<?xml version="1.0" encoding="UTF-8" standalone="no"?>
<svg
   xmlns:dc="http://purl.org/dc/elements/1.1/"
   xmlns:cc="http://creativecommons.org/ns#"
   xmlns:rdf="http://www.w3.org/1999/02/22-rdf-syntax-ns#"
   xmlns:svg="http://www.w3.org/2000/svg"
   xmlns="http://www.w3.org/2000/svg"
   xmlns:sodipodi="http://sodipodi.sourceforge.net/DTD/sodipodi-0.dtd"
   xmlns:inkscape="http://www.inkscape.org/namespaces/inkscape"
   id="svg2888"
   width="144px"
   version="1.1"
   height="144px"
   sodipodi:docname="chicago95_tmp_file.svg"
   inkscape:version="0.92.4 (5da689c313, 2019-01-14)">
  <sodipodi:namedview
     pagecolor="#ffffff"
     bordercolor="#666666"
     borderopacity="1"
     objecttolerance="10"
     gridtolerance="10"
     guidetolerance="10"
     inkscape:pageopacity="0"
     inkscape:pageshadow="2"
     inkscape:window-width="640"
     inkscape:window-height="480"
     id="namedview1447"
     showgrid="false"
     inkscape:zoom="1.6388889"
     inkscape:cx="72"
     inkscape:cy="72"
     inkscape:window-x="0"
     inkscape:window-y="0"
     inkscape:window-maximized="0"
     inkscape:current-layer="svg2888" />
  <metadata
     id="metadata2892">
    <rdf:RDF>
      <cc:Work
         rdf:about="">
        <dc:format>image/svg+xml</dc:format>
        <dc:type
           rdf:resource="http://purl.org/dc/dcmitype/StillImage" />
      </cc:Work>
    </rdf:RDF>
  </metadata>
  <defs
     id="defs2" />
  <path
     style="fill:#0000ff"
     d="M 87 9 L 87 12 L 90 12 L 93 12 L 93 9 L 90 9 L 87 9 z M 93 12 L 93 15 L 96 15 L 99 15 L 99 12 L 96 12 L 93 12 z M 99 15 L 99 18 L 102 18 L 105 18 L 105 15 L 102 15 L 99 15 z M 105 18 L 105 21 L 108 21 L 111 21 L 111 18 L 108 18 L 105 18 z M 84 15 L 84 18 L 87 18 L 90 18 L 90 15 L 87 15 L 84 15 z M 90 18 L 90 21 L 93 21 L 96 21 L 96 18 L 93 18 L 90 18 z M 75 18 L 75 21 L 78 21 L 81 21 L 81 18 L 78 18 L 75 18 z M 81 21 L 81 24 L 84 24 L 87 24 L 87 21 L 84 21 L 81 21 z M 87 24 L 87 27 L 90 27 L 93 27 L 93 24 L 90 24 L 87 24 z M 93 27 L 93 30 L 96 30 L 99 30 L 99 27 L 96 27 L 93 27 z M 72 24 L 72 27 L 75 27 L 78 27 L 78 24 L 75 24 L 72 24 z M 78 27 L 78 30 L 81 30 L 84 30 L 84 27 L 81 27 L 78 27 z "
     id="rect284" />
  <path
     style="fill:#00ff00"
     d="M 30 63 L 30 66 L 33 66 L 36 66 L 36 63 L 33 63 L 30 63 z "
     id="rect994" />
  <path
     style="fill:#ff0000"
     d="M 39 66 L 39 69 L 42 69 L 45 69 L 45 66 L 42 66 L 39 66 z "
     id="rect1092" />
  <path
     style="fill:#808080"
     d="M 87 0 L 87 3 L 90 3 L 93 3 L 93 0 L 90 0 L 87 0 z M 93 3 L 93 6 L 96 6 L 99 6 L 99 3 L 96 3 L 93 3 z M 99 6 L 99 9 L 102 9 L 105 9 L 105 6 L 102 6 L 99 6 z M 105 9 L 105 12 L 108 12 L 111 12 L 111 9 L 108 9 L 105 9 z M 111 12 L 111 15 L 114 15 L 117 15 L 117 12 L 114 12 L 111 12 z M 117 15 L 117 18 L 120 18 L 120 21 L 123 21 L 126 21 L 126 18 L 123 18 L 123 15 L 120 15 L 117 15 z M 87 3 L 84 3 L 81 3 L 81 6 L 78 6 L 78 9 L 81 9 L 84 9 L 84 6 L 87 6 L 87 3 z M 78 9 L 75 9 L 72 9 L 72 12 L 69 12 L 69 15 L 66 15 L 66 18 L 63 18 L 63 21 L 63 24 L 60 24 L 60 27 L 57 27 L 57 30 L 54 30 L 54 33 L 51 33 L 48 33 L 48 36 L 51 36 L 54 36 L 54 39 L 54 42 L 57 42 L 57 39 L 57 36 L 60 36 L 60 33 L 60 30 L 63 30 L 63 27 L 66 27 L 66 24 L 66 21 L 69 21 L 69 18 L 72 18 L 72 15 L 75 15 L 75 12 L 78 12 L 78 9 z M 54 42 L 51 42 L 48 42 L 48 45 L 45 45 L 42 45 L 42 48 L 39 48 L 36 48 L 36 51 L 33 51 L 30 51 L 30 54 L 33 54 L 36 54 L 36 57 L 39 57 L 42 57 L 42 54 L 42 51 L 45 51 L 48 51 L 48 48 L 51 48 L 54 48 L 57 48 L 57 45 L 54 45 L 54 42 z M 42 57 L 42 60 L 45 60 L 48 60 L 48 57 L 45 57 L 42 57 z M 48 60 L 48 63 L 51 63 L 54 63 L 54 60 L 51 60 L 48 60 z M 54 63 L 54 66 L 57 66 L 60 66 L 60 63 L 57 63 L 54 63 z M 60 66 L 60 69 L 63 69 L 66 69 L 66 66 L 63 66 L 60 66 z M 66 69 L 66 72 L 69 72 L 72 72 L 72 69 L 69 69 L 66 69 z M 72 69 L 75 69 L 78 69 L 78 66 L 75 66 L 72 66 L 72 69 z M 78 66 L 81 66 L 84 66 L 84 63 L 81 63 L 78 63 L 78 66 z M 84 63 L 87 63 L 90 63 L 90 60 L 93 60 L 96 60 L 96 57 L 93 57 L 90 57 L 90 54 L 87 54 L 87 57 L 87 60 L 84 60 L 84 63 z M 90 54 L 93 54 L 93 51 L 96 51 L 99 51 L 102 51 L 102 48 L 102 45 L 105 45 L 108 45 L 108 42 L 105 42 L 102 42 L 102 39 L 99 39 L 99 42 L 96 42 L 96 45 L 93 45 L 93 48 L 90 48 L 90 51 L 90 54 z M 108 45 L 108 48 L 108 51 L 111 51 L 111 48 L 114 48 L 117 48 L 117 45 L 114 45 L 111 45 L 108 45 z M 117 48 L 117 51 L 120 51 L 120 54 L 117 54 L 114 54 L 114 57 L 111 57 L 108 57 L 108 60 L 105 60 L 102 60 L 102 63 L 99 63 L 96 63 L 96 66 L 93 66 L 90 66 L 90 69 L 87 69 L 84 69 L 84 72 L 81 72 L 78 72 L 78 75 L 75 75 L 72 75 L 72 78 L 69 78 L 66 78 L 66 81 L 63 81 L 60 81 L 60 84 L 57 84 L 57 87 L 57 90 L 57 93 L 57 96 L 57 99 L 57 102 L 57 105 L 57 108 L 57 111 L 57 114 L 57 117 L 60 117 L 60 114 L 63 114 L 66 114 L 66 111 L 69 111 L 72 111 L 72 108 L 75 108 L 78 108 L 78 105 L 81 105 L 84 105 L 84 102 L 87 102 L 90 102 L 90 99 L 93 99 L 96 99 L 96 96 L 99 96 L 102 96 L 102 93 L 105 93 L 108 93 L 108 90 L 111 90 L 114 90 L 114 87 L 117 87 L 120 87 L 120 84 L 123 84 L 126 84 L 126 81 L 126 78 L 126 75 L 126 72 L 126 69 L 126 66 L 126 63 L 126 60 L 126 57 L 126 54 L 126 51 L 123 51 L 123 48 L 120 48 L 117 48 z M 120 87 L 120 90 L 117 90 L 114 90 L 114 93 L 111 93 L 108 93 L 108 96 L 105 96 L 102 96 L 102 99 L 99 99 L 96 99 L 96 102 L 93 102 L 90 102 L 90 105 L 87 105 L 84 105 L 84 108 L 81 108 L 78 108 L 78 111 L 75 111 L 72 111 L 72 114 L 69 114 L 66 114 L 66 117 L 63 117 L 60 117 L 60 120 L 57 120 L 57 123 L 57 126 L 57 129 L 57 132 L 60 132 L 63 132 L 63 129 L 66 129 L 69 129 L 69 126 L 72 126 L 75 126 L 75 123 L 78 123 L 81 123 L 81 120 L 84 120 L 87 120 L 87 117 L 90 117 L 90 114 L 93 114 L 96 114 L 96 111 L 99 111 L 102 111 L 102 108 L 105 108 L 108 108 L 108 105 L 111 105 L 114 105 L 114 102 L 117 102 L 120 102 L 120 99 L 123 99 L 123 96 L 123 93 L 123 90 L 123 87 L 120 87 z M 63 132 L 63 135 L 66 135 L 69 135 L 72 135 L 75 135 L 78 135 L 81 135 L 84 135 L 87 135 L 90 135 L 93 135 L 96 135 L 99 135 L 102 135 L 105 135 L 108 135 L 111 135 L 114 135 L 117 135 L 120 135 L 123 135 L 126 135 L 129 135 L 132 135 L 135 135 L 138 135 L 141 135 L 144 135 L 144 132 L 141 132 L 138 132 L 135 132 L 132 132 L 129 132 L 126 132 L 123 132 L 120 132 L 117 132 L 114 132 L 111 132 L 108 132 L 105 132 L 102 132 L 99 132 L 96 132 L 93 132 L 90 132 L 87 132 L 84 132 L 81 132 L 78 132 L 75 132 L 72 132 L 69 132 L 66 132 L 63 132 z M 57 120 L 57 117 L 54 117 L 54 120 L 57 120 z M 54 117 L 54 114 L 51 114 L 48 114 L 48 117 L 51 117 L 54 117 z M 48 114 L 48 111 L 45 111 L 42 111 L 42 114 L 45 114 L 48 114 z M 42 111 L 42 108 L 39 108 L 39 111 L 42 111 z M 39 108 L 39 105 L 36 105 L 33 105 L 33 108 L 36 108 L 39 108 z M 33 105 L 33 102 L 30 102 L 27 102 L 27 105 L 30 105 L 33 105 z M 27 102 L 27 99 L 24 99 L 21 99 L 21 102 L 24 102 L 27 102 z M 21 99 L 21 96 L 18 96 L 18 99 L 21 99 z M 18 96 L 18 93 L 15 93 L 15 90 L 15 87 L 15 84 L 15 81 L 15 78 L 15 75 L 15 72 L 15 69 L 15 66 L 15 63 L 18 63 L 21 63 L 21 60 L 18 60 L 15 60 L 12 60 L 12 63 L 12 66 L 12 69 L 12 72 L 12 75 L 12 78 L 12 81 L 12 84 L 12 87 L 12 90 L 9 90 L 6 90 L 6 87 L 3 87 L 3 84 L 3 81 L 3 78 L 3 75 L 3 72 L 3 69 L 3 66 L 3 63 L 3 60 L 6 60 L 9 60 L 9 57 L 6 57 L 3 57 L 0 57 L 0 60 L 0 63 L 0 66 L 0 69 L 0 72 L 0 75 L 0 78 L 0 81 L 0 84 L 0 87 L 0 90 L 0 93 L 3 93 L 3 96 L 3 99 L 3 102 L 6 102 L 6 99 L 6 96 L 6 93 L 9 93 L 12 93 L 12 96 L 15 96 L 18 96 z M 9 57 L 12 57 L 12 54 L 9 54 L 9 57 z M 12 54 L 15 54 L 18 54 L 18 51 L 15 51 L 12 51 L 12 54 z M 18 51 L 21 51 L 24 51 L 24 48 L 21 48 L 18 48 L 18 51 z M 24 48 L 27 48 L 30 48 L 30 45 L 27 45 L 24 45 L 24 48 z M 30 45 L 33 45 L 36 45 L 36 42 L 33 42 L 30 42 L 30 45 z M 36 42 L 39 42 L 42 42 L 42 39 L 39 39 L 36 39 L 36 42 z M 42 39 L 45 39 L 48 39 L 48 36 L 45 36 L 42 36 L 42 39 z M 21 60 L 24 60 L 24 57 L 21 57 L 21 60 z M 24 57 L 27 57 L 30 57 L 30 54 L 27 54 L 24 54 L 24 57 z M 48 111 L 51 111 L 51 108 L 51 105 L 51 102 L 51 99 L 51 96 L 51 93 L 51 90 L 51 87 L 51 84 L 51 81 L 54 81 L 57 81 L 57 78 L 54 78 L 51 78 L 48 78 L 48 81 L 48 84 L 48 87 L 48 90 L 48 93 L 48 96 L 48 99 L 48 102 L 48 105 L 48 108 L 48 111 z M 57 78 L 60 78 L 60 75 L 57 75 L 57 78 z M 60 75 L 63 75 L 66 75 L 66 72 L 63 72 L 60 72 L 60 75 z M 108 51 L 105 51 L 102 51 L 102 54 L 105 54 L 108 54 L 108 51 z M 102 54 L 99 54 L 96 54 L 96 57 L 99 57 L 102 57 L 102 54 z M 129 60 L 129 63 L 132 63 L 132 60 L 129 60 z M 132 63 L 132 66 L 135 66 L 135 69 L 138 69 L 138 72 L 141 72 L 141 69 L 144 69 L 144 66 L 141 66 L 138 66 L 138 63 L 135 63 L 132 63 z M 138 72 L 135 72 L 135 75 L 138 75 L 138 72 z M 135 75 L 132 75 L 132 78 L 135 78 L 135 75 z M 132 78 L 129 78 L 129 81 L 132 81 L 132 78 z M 42 129 L 42 132 L 45 132 L 45 129 L 42 129 z M 0 132 L 0 135 L 3 135 L 6 135 L 9 135 L 12 135 L 15 135 L 18 135 L 21 135 L 24 135 L 27 135 L 30 135 L 33 135 L 36 135 L 36 132 L 33 132 L 30 132 L 27 132 L 24 132 L 21 132 L 18 132 L 15 132 L 12 132 L 9 132 L 6 132 L 3 132 L 0 132 z "
     id="rect2680" />
  <path
     style="fill:#c0c0c0"
     d="M 48 39 L 48 42 L 51 42 L 54 42 L 54 39 L 51 39 L 48 39 z M 48 42 L 45 42 L 42 42 L 42 45 L 45 45 L 48 45 L 48 42 z M 42 45 L 39 45 L 36 45 L 36 48 L 39 48 L 42 48 L 42 45 z M 36 48 L 33 48 L 30 48 L 30 51 L 33 51 L 36 51 L 36 48 z M 30 51 L 27 51 L 24 51 L 24 54 L 27 54 L 30 54 L 30 51 z M 30 54 L 30 57 L 27 57 L 24 57 L 24 60 L 21 60 L 21 63 L 18 63 L 18 66 L 21 66 L 24 66 L 24 69 L 27 69 L 30 69 L 30 72 L 33 72 L 36 72 L 36 75 L 39 75 L 42 75 L 42 78 L 45 78 L 48 78 L 51 78 L 54 78 L 57 78 L 57 75 L 60 75 L 60 72 L 63 72 L 66 72 L 66 69 L 63 69 L 60 69 L 60 66 L 57 66 L 54 66 L 54 63 L 51 63 L 48 63 L 48 60 L 45 60 L 42 60 L 42 57 L 39 57 L 36 57 L 36 54 L 33 54 L 30 54 z M 42 57 L 45 57 L 48 57 L 48 60 L 51 60 L 54 60 L 54 63 L 57 63 L 60 63 L 60 66 L 63 66 L 66 66 L 66 69 L 69 69 L 72 69 L 72 66 L 75 66 L 78 66 L 78 63 L 78 60 L 75 60 L 72 60 L 72 57 L 69 57 L 66 57 L 66 54 L 63 54 L 60 54 L 60 51 L 57 51 L 54 51 L 54 48 L 51 48 L 48 48 L 48 51 L 45 51 L 42 51 L 42 54 L 42 57 z M 78 66 L 78 69 L 75 69 L 72 69 L 72 72 L 69 72 L 66 72 L 66 75 L 63 75 L 60 75 L 60 78 L 57 78 L 57 81 L 54 81 L 54 84 L 57 84 L 60 84 L 60 81 L 63 81 L 66 81 L 66 78 L 69 78 L 72 78 L 72 75 L 75 75 L 78 75 L 78 72 L 81 72 L 84 72 L 84 69 L 87 69 L 90 69 L 90 66 L 93 66 L 96 66 L 96 63 L 99 63 L 102 63 L 102 60 L 105 60 L 108 60 L 108 57 L 111 57 L 114 57 L 114 54 L 117 54 L 120 54 L 120 51 L 117 51 L 117 48 L 114 48 L 111 48 L 111 51 L 108 51 L 108 54 L 105 54 L 102 54 L 102 57 L 99 57 L 96 57 L 96 60 L 93 60 L 90 60 L 90 63 L 87 63 L 84 63 L 84 66 L 81 66 L 78 66 z M 96 57 L 96 54 L 99 54 L 102 54 L 102 51 L 99 51 L 96 51 L 93 51 L 93 54 L 90 54 L 90 57 L 93 57 L 96 57 z M 102 51 L 105 51 L 108 51 L 108 48 L 108 45 L 105 45 L 102 45 L 102 48 L 102 51 z M 54 84 L 51 84 L 51 87 L 51 90 L 51 93 L 51 96 L 51 99 L 51 102 L 51 105 L 51 108 L 51 111 L 48 111 L 48 114 L 51 114 L 54 114 L 54 117 L 57 117 L 57 114 L 57 111 L 57 108 L 57 105 L 57 102 L 57 99 L 57 96 L 57 93 L 57 90 L 57 87 L 54 87 L 54 84 z M 54 117 L 51 117 L 48 117 L 48 114 L 45 114 L 42 114 L 42 111 L 39 111 L 39 108 L 36 108 L 33 108 L 33 105 L 30 105 L 27 105 L 27 102 L 24 102 L 21 102 L 21 99 L 18 99 L 18 96 L 15 96 L 12 96 L 12 93 L 9 93 L 6 93 L 6 96 L 6 99 L 6 102 L 6 105 L 9 105 L 12 105 L 12 108 L 15 108 L 18 108 L 18 111 L 21 111 L 21 114 L 24 114 L 27 114 L 27 117 L 30 117 L 33 117 L 33 120 L 36 120 L 39 120 L 39 123 L 42 123 L 42 126 L 45 126 L 48 126 L 48 129 L 51 129 L 54 129 L 54 132 L 57 132 L 57 129 L 57 126 L 57 123 L 57 120 L 54 120 L 54 117 z M 48 129 L 45 129 L 45 132 L 48 132 L 48 129 z M 18 96 L 21 96 L 21 99 L 24 99 L 27 99 L 27 102 L 30 102 L 33 102 L 33 105 L 36 105 L 39 105 L 39 108 L 42 108 L 42 111 L 45 111 L 48 111 L 48 108 L 48 105 L 48 102 L 48 99 L 48 96 L 48 93 L 48 90 L 48 87 L 48 84 L 48 81 L 45 81 L 42 81 L 42 78 L 39 78 L 36 78 L 36 75 L 33 75 L 30 75 L 30 72 L 27 72 L 24 72 L 24 69 L 21 69 L 18 69 L 18 66 L 15 66 L 15 69 L 15 72 L 15 75 L 15 78 L 15 81 L 15 84 L 15 87 L 15 90 L 15 93 L 18 93 L 18 96 z M 21 60 L 21 57 L 24 57 L 24 54 L 21 54 L 18 54 L 18 57 L 15 57 L 12 57 L 12 60 L 15 60 L 18 60 L 21 60 z M 6 63 L 6 66 L 6 69 L 6 72 L 6 75 L 6 78 L 6 81 L 6 84 L 6 87 L 6 90 L 9 90 L 12 90 L 12 87 L 12 84 L 12 81 L 12 78 L 12 75 L 12 72 L 12 69 L 12 66 L 12 63 L 9 63 L 6 63 z M 30 63 L 33 63 L 36 63 L 36 66 L 33 66 L 30 66 L 30 63 z M 129 63 L 129 66 L 129 69 L 129 72 L 129 75 L 129 78 L 132 78 L 132 75 L 135 75 L 135 72 L 138 72 L 138 69 L 135 69 L 135 66 L 132 66 L 132 63 L 129 63 z M 39 66 L 42 66 L 45 66 L 45 69 L 42 69 L 39 69 L 39 66 z M 0 135 L 0 138 L 3 138 L 6 138 L 9 138 L 12 138 L 15 138 L 18 138 L 21 138 L 24 138 L 27 138 L 30 138 L 33 138 L 36 138 L 36 135 L 33 135 L 30 135 L 27 135 L 24 135 L 21 135 L 18 135 L 15 135 L 12 135 L 9 135 L 6 135 L 3 135 L 0 135 z M 57 135 L 57 138 L 60 138 L 63 138 L 66 138 L 69 138 L 72 138 L 75 138 L 78 138 L 81 138 L 84 138 L 87 138 L 90 138 L 93 138 L 96 138 L 99 138 L 102 138 L 105 138 L 108 138 L 111 138 L 114 138 L 117 138 L 120 138 L 123 138 L 126 138 L 129 138 L 132 138 L 135 138 L 138 138 L 141 138 L 144 138 L 144 135 L 141 135 L 138 135 L 135 135 L 132 135 L 129 135 L 126 135 L 123 135 L 120 135 L 117 135 L 114 135 L 111 135 L 108 135 L 105 135 L 102 135 L 99 135 L 96 135 L 93 135 L 90 135 L 87 135 L 84 135 L 81 135 L 78 135 L 75 135 L 72 135 L 69 135 L 66 135 L 63 135 L 60 135 L 57 135 z "
     id="rect2776" />
  <path
     style="fill:#ffffff"
     d="M 87 3 L 87 6 L 84 6 L 84 9 L 81 9 L 78 9 L 78 12 L 75 12 L 75 15 L 72 15 L 72 18 L 69 18 L 69 21 L 66 21 L 66 24 L 66 27 L 63 27 L 63 30 L 60 30 L 60 33 L 60 36 L 57 36 L 57 39 L 57 42 L 54 42 L 54 45 L 57 45 L 57 48 L 60 48 L 60 51 L 63 51 L 66 51 L 66 54 L 69 54 L 72 54 L 72 57 L 75 57 L 78 57 L 78 60 L 81 60 L 84 60 L 84 57 L 84 54 L 84 51 L 87 51 L 87 48 L 87 45 L 90 45 L 90 42 L 93 42 L 93 39 L 96 39 L 96 36 L 99 36 L 99 33 L 102 33 L 102 30 L 105 30 L 108 30 L 108 27 L 111 27 L 111 24 L 114 24 L 117 24 L 117 21 L 120 21 L 120 18 L 117 18 L 117 15 L 114 15 L 111 15 L 111 12 L 108 12 L 105 12 L 105 9 L 102 9 L 99 9 L 99 6 L 96 6 L 93 6 L 93 3 L 90 3 L 87 3 z M 87 9 L 90 9 L 93 9 L 93 12 L 96 12 L 99 12 L 99 15 L 102 15 L 105 15 L 105 18 L 108 18 L 111 18 L 111 21 L 108 21 L 105 21 L 105 18 L 102 18 L 99 18 L 99 15 L 96 15 L 93 15 L 93 12 L 90 12 L 87 12 L 87 9 z M 84 15 L 87 15 L 90 15 L 90 18 L 93 18 L 96 18 L 96 21 L 93 21 L 90 21 L 90 18 L 87 18 L 84 18 L 84 15 z M 75 18 L 78 18 L 81 18 L 81 21 L 84 21 L 87 21 L 87 24 L 90 24 L 93 24 L 93 27 L 96 27 L 99 27 L 99 30 L 96 30 L 93 30 L 93 27 L 90 27 L 87 27 L 87 24 L 84 24 L 81 24 L 81 21 L 78 21 L 75 21 L 75 18 z M 72 24 L 75 24 L 78 24 L 78 27 L 81 27 L 84 27 L 84 30 L 81 30 L 78 30 L 78 27 L 75 27 L 72 27 L 72 24 z M 48 36 L 48 39 L 51 39 L 54 39 L 54 36 L 51 36 L 48 36 z M 48 39 L 45 39 L 42 39 L 42 42 L 45 42 L 48 42 L 48 39 z M 42 42 L 39 42 L 36 42 L 36 45 L 39 45 L 42 45 L 42 42 z M 36 45 L 33 45 L 30 45 L 30 48 L 33 48 L 36 48 L 36 45 z M 30 48 L 27 48 L 24 48 L 24 51 L 27 51 L 30 51 L 30 48 z M 24 51 L 21 51 L 18 51 L 18 54 L 21 54 L 24 54 L 24 51 z M 18 54 L 15 54 L 12 54 L 12 57 L 15 57 L 18 57 L 18 54 z M 12 57 L 9 57 L 9 60 L 6 60 L 3 60 L 3 63 L 3 66 L 3 69 L 3 72 L 3 75 L 3 78 L 3 81 L 3 84 L 3 87 L 6 87 L 6 84 L 6 81 L 6 78 L 6 75 L 6 72 L 6 69 L 6 66 L 6 63 L 9 63 L 12 63 L 12 60 L 12 57 z M 15 63 L 15 66 L 18 66 L 18 63 L 15 63 z M 18 66 L 18 69 L 21 69 L 24 69 L 24 66 L 21 66 L 18 66 z M 24 69 L 24 72 L 27 72 L 30 72 L 30 69 L 27 69 L 24 69 z M 30 72 L 30 75 L 33 75 L 36 75 L 36 72 L 33 72 L 30 72 z M 36 75 L 36 78 L 39 78 L 42 78 L 42 75 L 39 75 L 36 75 z M 42 78 L 42 81 L 45 81 L 48 81 L 48 78 L 45 78 L 42 78 z M 51 81 L 51 84 L 54 84 L 54 81 L 51 81 z M 54 84 L 54 87 L 57 87 L 57 84 L 54 84 z M 39 135 L 39 138 L 39 141 L 42 141 L 42 138 L 42 135 L 39 135 z "
     id="rect2804" />
  <path
     style="fill:#ffff00"
     d="M 42 135 L 42 138 L 42 141 L 45 141 L 48 141 L 51 141 L 51 138 L 51 135 L 48 135 L 45 135 L 42 135 z "
     id="rect2810" />
  <path
     style="fill:#808000"
     d="M 36 132 L 36 135 L 36 138 L 36 141 L 39 141 L 39 138 L 39 135 L 42 135 L 45 135 L 48 135 L 51 135 L 51 138 L 51 141 L 54 141 L 54 138 L 54 135 L 54 132 L 51 132 L 48 132 L 45 132 L 42 132 L 39 132 L 36 132 z "
     id="rect2812" />
  <path
     style="fill:#000000"
     d="M 117 21 L 117 24 L 114 24 L 111 24 L 111 27 L 108 27 L 108 30 L 105 30 L 102 30 L 102 33 L 99 33 L 99 36 L 96 36 L 96 39 L 93 39 L 93 42 L 90 42 L 90 45 L 87 45 L 87 48 L 87 51 L 84 51 L 84 54 L 84 57 L 84 60 L 87 60 L 87 57 L 87 54 L 90 54 L 90 51 L 90 48 L 93 48 L 93 45 L 96 45 L 96 42 L 99 42 L 99 39 L 102 39 L 102 36 L 105 36 L 105 33 L 108 33 L 111 33 L 111 30 L 114 30 L 114 27 L 117 27 L 120 27 L 120 24 L 123 24 L 126 24 L 126 21 L 123 21 L 120 21 L 117 21 z M 84 60 L 81 60 L 78 60 L 78 63 L 81 63 L 84 63 L 84 60 z M 78 60 L 78 57 L 75 57 L 72 57 L 72 60 L 75 60 L 78 60 z M 72 57 L 72 54 L 69 54 L 66 54 L 66 57 L 69 57 L 72 57 z M 66 54 L 66 51 L 63 51 L 60 51 L 60 54 L 63 54 L 66 54 z M 60 51 L 60 48 L 57 48 L 54 48 L 54 51 L 57 51 L 60 51 z M 126 51 L 126 54 L 126 57 L 126 60 L 126 63 L 126 66 L 126 69 L 126 72 L 126 75 L 126 78 L 126 81 L 126 84 L 123 84 L 120 84 L 120 87 L 123 87 L 123 90 L 123 93 L 123 96 L 123 99 L 120 99 L 120 102 L 123 102 L 126 102 L 126 99 L 126 96 L 126 93 L 126 90 L 126 87 L 129 87 L 129 84 L 132 84 L 132 81 L 129 81 L 129 78 L 129 75 L 129 72 L 129 69 L 129 66 L 129 63 L 129 60 L 129 57 L 129 54 L 129 51 L 126 51 z M 132 81 L 135 81 L 135 78 L 132 78 L 132 81 z M 135 78 L 138 78 L 138 75 L 135 75 L 135 78 z M 138 75 L 141 75 L 141 72 L 138 72 L 138 75 z M 141 72 L 144 72 L 144 69 L 141 69 L 141 72 z M 120 102 L 117 102 L 114 102 L 114 105 L 117 105 L 120 105 L 120 102 z M 114 105 L 111 105 L 108 105 L 108 108 L 111 108 L 114 108 L 114 105 z M 108 108 L 105 108 L 102 108 L 102 111 L 105 111 L 108 111 L 108 108 z M 102 111 L 99 111 L 96 111 L 96 114 L 99 114 L 102 114 L 102 111 z M 96 114 L 93 114 L 90 114 L 90 117 L 93 117 L 96 117 L 96 114 z M 90 117 L 87 117 L 87 120 L 90 120 L 90 117 z M 87 120 L 84 120 L 81 120 L 81 123 L 84 123 L 87 123 L 87 120 z M 81 123 L 78 123 L 75 123 L 75 126 L 78 126 L 81 126 L 81 123 z M 75 126 L 72 126 L 69 126 L 69 129 L 72 129 L 75 129 L 75 126 z M 69 129 L 66 129 L 63 129 L 63 132 L 66 132 L 69 132 L 69 129 z M 63 132 L 60 132 L 57 132 L 54 132 L 54 135 L 54 138 L 54 141 L 51 141 L 48 141 L 45 141 L 42 141 L 39 141 L 36 141 L 36 144 L 39 144 L 42 144 L 45 144 L 48 144 L 51 144 L 54 144 L 57 144 L 57 141 L 60 141 L 63 141 L 66 141 L 69 141 L 72 141 L 75 141 L 78 141 L 81 141 L 84 141 L 87 141 L 90 141 L 93 141 L 96 141 L 99 141 L 102 141 L 105 141 L 108 141 L 111 141 L 114 141 L 117 141 L 120 141 L 123 141 L 126 141 L 129 141 L 132 141 L 135 141 L 138 141 L 141 141 L 144 141 L 144 138 L 141 138 L 138 138 L 135 138 L 132 138 L 129 138 L 126 138 L 123 138 L 120 138 L 117 138 L 114 138 L 111 138 L 108 138 L 105 138 L 102 138 L 99 138 L 96 138 L 93 138 L 90 138 L 87 138 L 84 138 L 81 138 L 78 138 L 75 138 L 72 138 L 69 138 L 66 138 L 63 138 L 60 138 L 57 138 L 57 135 L 60 135 L 63 135 L 63 132 z M 36 141 L 36 138 L 33 138 L 30 138 L 27 138 L 24 138 L 21 138 L 18 138 L 15 138 L 12 138 L 9 138 L 6 138 L 3 138 L 0 138 L 0 141 L 3 141 L 6 141 L 9 141 L 12 141 L 15 141 L 18 141 L 21 141 L 24 141 L 27 141 L 30 141 L 33 141 L 36 141 z M 54 132 L 54 129 L 51 129 L 48 129 L 48 132 L 51 132 L 54 132 z M 48 129 L 48 126 L 45 126 L 42 126 L 42 129 L 45 129 L 48 129 z M 42 126 L 42 123 L 39 123 L 39 126 L 42 126 z M 39 123 L 39 120 L 36 120 L 33 120 L 33 123 L 36 123 L 39 123 z M 33 120 L 33 117 L 30 117 L 27 117 L 27 120 L 30 120 L 33 120 z M 27 117 L 27 114 L 24 114 L 21 114 L 21 117 L 24 117 L 27 117 z M 21 114 L 21 111 L 18 111 L 18 114 L 21 114 z M 18 111 L 18 108 L 15 108 L 12 108 L 12 111 L 15 111 L 18 111 z M 12 108 L 12 105 L 9 105 L 6 105 L 6 108 L 9 108 L 12 108 z M 6 105 L 6 102 L 3 102 L 3 105 L 6 105 z M 120 87 L 117 87 L 114 87 L 114 90 L 117 90 L 120 90 L 120 87 z M 114 90 L 111 90 L 108 90 L 108 93 L 111 93 L 114 93 L 114 90 z M 108 93 L 105 93 L 102 93 L 102 96 L 105 96 L 108 96 L 108 93 z M 102 96 L 99 96 L 96 96 L 96 99 L 99 99 L 102 99 L 102 96 z M 96 99 L 93 99 L 90 99 L 90 102 L 93 102 L 96 102 L 96 99 z M 90 102 L 87 102 L 84 102 L 84 105 L 87 105 L 90 105 L 90 102 z M 84 105 L 81 105 L 78 105 L 78 108 L 81 108 L 84 108 L 84 105 z M 78 108 L 75 108 L 72 108 L 72 111 L 75 111 L 78 111 L 78 108 z M 72 111 L 69 111 L 66 111 L 66 114 L 69 114 L 72 114 L 72 111 z M 66 114 L 63 114 L 60 114 L 60 117 L 63 117 L 66 117 L 66 114 z M 60 117 L 57 117 L 57 120 L 60 120 L 60 117 z "
     id="rect2886" />
</svg>
