<?xml version="1.0" encoding="UTF-8" standalone="no"?>
<svg
   xmlns:dc="http://purl.org/dc/elements/1.1/"
   xmlns:cc="http://creativecommons.org/ns#"
   xmlns:rdf="http://www.w3.org/1999/02/22-rdf-syntax-ns#"
   xmlns:svg="http://www.w3.org/2000/svg"
   xmlns="http://www.w3.org/2000/svg"
   xmlns:sodipodi="http://sodipodi.sourceforge.net/DTD/sodipodi-0.dtd"
   xmlns:inkscape="http://www.inkscape.org/namespaces/inkscape"
   id="svg232"
   width="320px"
   version="1.1"
   height="320px"
   sodipodi:docname="chicago95_tmp_file.svg"
   inkscape:version="0.92.5 (2060ec1f9f, 2020-04-08)">
  <sodipodi:namedview
     pagecolor="#ffffff"
     bordercolor="#666666"
     borderopacity="1"
     objecttolerance="10"
     gridtolerance="10"
     guidetolerance="10"
     inkscape:pageopacity="0"
     inkscape:pageshadow="2"
     inkscape:window-width="640"
     inkscape:window-height="480"
     id="namedview119"
     showgrid="false"
     inkscape:zoom="0.7375"
     inkscape:cx="160"
     inkscape:cy="160"
     inkscape:window-x="0"
     inkscape:window-y="0"
     inkscape:window-maximized="0"
     inkscape:current-layer="svg232" />
  <metadata
     id="metadata236">
    <rdf:RDF>
      <cc:Work
         rdf:about="">
        <dc:format>image/svg+xml</dc:format>
        <dc:type
           rdf:resource="http://purl.org/dc/dcmitype/StillImage" />
      </cc:Work>
    </rdf:RDF>
  </metadata>
  <defs
     id="defs2" />
  <path
     style="fill:#ffffff"
     d="M 140 60 L 140 80 L 140 81 L 140 100 L 140 101 L 140 121 L 160 121 L 161 121 L 180 121 L 181 121 L 200 121 L 201 121 L 220 121 L 221 121 L 241 121 L 241 101 L 241 100 L 241 81 L 241 80 L 241 60 L 221 60 L 220 60 L 201 60 L 200 60 L 181 60 L 180 60 L 161 60 L 160 60 L 140 60 z "
     id="rect64" />
  <path
     style="fill:#c0c0c0"
     d="M 20 200 L 20 220 L 20 221 L 20 240 L 20 241 L 20 261 L 40 261 L 41 261 L 60 261 L 61 261 L 80 261 L 81 261 L 100 261 L 101 261 L 120 261 L 121 261 L 140 261 L 141 261 L 160 261 L 161 261 L 180 261 L 181 261 L 200 261 L 201 261 L 220 261 L 221 261 L 241 261 L 241 241 L 241 240 L 241 221 L 241 220 L 241 200 L 221 200 L 220 200 L 201 200 L 200 200 L 181 200 L 180 200 L 161 200 L 160 200 L 141 200 L 140 200 L 121 200 L 120 200 L 101 200 L 100 200 L 81 200 L 80 200 L 61 200 L 60 200 L 41 200 L 40 200 L 20 200 z "
     id="rect196" />
  <path
     style="fill:#000000"
     d="M 280 20 L 280 40 L 280 41 L 280 60 L 280 61 L 280 80 L 280 81 L 280 100 L 280 101 L 280 120 L 280 121 L 280 140 L 280 141 L 280 160 L 280 161 L 280 180 L 280 181 L 280 200 L 280 201 L 280 220 L 280 221 L 280 240 L 280 241 L 280 260 L 280 261 L 280 280 L 280 281 L 280 301 L 301 301 L 301 281 L 301 280 L 301 261 L 301 260 L 301 241 L 301 240 L 301 221 L 301 220 L 301 201 L 301 200 L 301 181 L 301 180 L 301 161 L 301 160 L 301 141 L 301 140 L 301 121 L 301 120 L 301 101 L 301 100 L 301 81 L 301 80 L 301 61 L 301 60 L 301 41 L 301 40 L 301 20 L 280 20 z M 120 40 L 120 60 L 120 61 L 120 80 L 120 81 L 120 100 L 120 101 L 120 120 L 120 121 L 120 141 L 140 141 L 141 141 L 160 141 L 161 141 L 180 141 L 181 141 L 200 141 L 201 141 L 220 141 L 221 141 L 240 141 L 241 141 L 261 141 L 261 121 L 261 120 L 261 101 L 261 100 L 261 81 L 261 80 L 261 61 L 261 60 L 261 40 L 241 40 L 240 40 L 221 40 L 220 40 L 201 40 L 200 40 L 181 40 L 180 40 L 161 40 L 160 40 L 141 40 L 140 40 L 120 40 z M 141 61 L 160 61 L 161 61 L 180 61 L 181 61 L 200 61 L 201 61 L 220 61 L 221 61 L 240 61 L 240 80 L 240 81 L 240 100 L 240 101 L 240 120 L 221 120 L 220 120 L 201 120 L 200 120 L 181 120 L 180 120 L 161 120 L 160 120 L 141 120 L 141 101 L 141 100 L 141 81 L 141 80 L 141 61 z M 0 180 L 0 200 L 0 201 L 0 220 L 0 221 L 0 240 L 0 241 L 0 260 L 0 261 L 0 281 L 20 281 L 21 281 L 40 281 L 41 281 L 60 281 L 61 281 L 80 281 L 81 281 L 100 281 L 101 281 L 120 281 L 121 281 L 140 281 L 141 281 L 160 281 L 161 281 L 180 281 L 181 281 L 200 281 L 201 281 L 220 281 L 221 281 L 240 281 L 241 281 L 261 281 L 261 261 L 261 260 L 261 241 L 261 240 L 261 221 L 261 220 L 261 201 L 261 200 L 261 180 L 241 180 L 240 180 L 221 180 L 220 180 L 201 180 L 200 180 L 181 180 L 180 180 L 161 180 L 160 180 L 141 180 L 140 180 L 121 180 L 120 180 L 101 180 L 100 180 L 81 180 L 80 180 L 61 180 L 60 180 L 41 180 L 40 180 L 21 180 L 20 180 L 0 180 z M 21 201 L 40 201 L 41 201 L 60 201 L 61 201 L 80 201 L 81 201 L 100 201 L 101 201 L 120 201 L 121 201 L 140 201 L 141 201 L 160 201 L 161 201 L 180 201 L 181 201 L 200 201 L 201 201 L 220 201 L 221 201 L 240 201 L 240 220 L 240 221 L 240 240 L 240 241 L 240 260 L 221 260 L 220 260 L 201 260 L 200 260 L 181 260 L 180 260 L 161 260 L 160 260 L 141 260 L 140 260 L 121 260 L 120 260 L 101 260 L 100 260 L 81 260 L 80 260 L 61 260 L 60 260 L 41 260 L 40 260 L 21 260 L 21 241 L 21 240 L 21 221 L 21 220 L 21 201 z "
     id="rect230" />
</svg>
