<?xml version="1.0" encoding="UTF-8" standalone="no"?>
<svg
   xmlns:dc="http://purl.org/dc/elements/1.1/"
   xmlns:cc="http://creativecommons.org/ns#"
   xmlns:rdf="http://www.w3.org/1999/02/22-rdf-syntax-ns#"
   xmlns:svg="http://www.w3.org/2000/svg"
   xmlns="http://www.w3.org/2000/svg"
   xmlns:sodipodi="http://sodipodi.sourceforge.net/DTD/sodipodi-0.dtd"
   xmlns:inkscape="http://www.inkscape.org/namespaces/inkscape"
   id="svg212"
   width="320px"
   version="1.1"
   height="320px"
   sodipodi:docname="chicago95_tmp_file.svg"
   inkscape:version="0.92.5 (2060ec1f9f, 2020-04-08)">
  <sodipodi:namedview
     pagecolor="#ffffff"
     bordercolor="#666666"
     borderopacity="1"
     objecttolerance="10"
     gridtolerance="10"
     guidetolerance="10"
     inkscape:pageopacity="0"
     inkscape:pageshadow="2"
     inkscape:window-width="452"
     inkscape:window-height="423"
     id="namedview109"
     showgrid="false"
     inkscape:zoom="0.7375"
     inkscape:cx="160"
     inkscape:cy="160"
     inkscape:window-x="0"
     inkscape:window-y="0"
     inkscape:window-maximized="0"
     inkscape:current-layer="svg212" />
  <metadata
     id="metadata216">
    <rdf:RDF>
      <cc:Work
         rdf:about="">
        <dc:format>image/svg+xml</dc:format>
        <dc:type
           rdf:resource="http://purl.org/dc/dcmitype/StillImage" />
      </cc:Work>
    </rdf:RDF>
  </metadata>
  <defs
     id="defs2" />
  <path
     style="fill:#ffffff"
     d="M 100 60 L 100 80 L 100 81 L 100 100 L 100 101 L 100 121 L 120 121 L 121 121 L 140 121 L 141 121 L 160 121 L 161 121 L 180 121 L 181 121 L 201 121 L 201 101 L 201 100 L 201 81 L 201 80 L 201 60 L 181 60 L 180 60 L 161 60 L 160 60 L 141 60 L 140 60 L 121 60 L 120 60 L 100 60 z "
     id="rect58" />
  <path
     style="fill:#c0c0c0"
     d="M 40 200 L 40 220 L 40 221 L 40 240 L 40 241 L 40 261 L 60 261 L 61 261 L 80 261 L 81 261 L 100 261 L 101 261 L 120 261 L 121 261 L 140 261 L 141 261 L 160 261 L 161 261 L 180 261 L 181 261 L 200 261 L 201 261 L 220 261 L 221 261 L 240 261 L 241 261 L 261 261 L 261 241 L 261 240 L 261 221 L 261 220 L 261 200 L 241 200 L 240 200 L 221 200 L 220 200 L 201 200 L 200 200 L 181 200 L 180 200 L 161 200 L 160 200 L 141 200 L 140 200 L 121 200 L 120 200 L 101 200 L 100 200 L 81 200 L 80 200 L 61 200 L 60 200 L 40 200 z "
     id="rect180" />
  <path
     style="fill:#000000"
     d="M 140 20 L 140 40 L 121 40 L 120 40 L 101 40 L 100 40 L 80 40 L 80 60 L 80 61 L 80 80 L 80 81 L 80 100 L 80 101 L 80 120 L 80 121 L 80 141 L 100 141 L 101 141 L 120 141 L 121 141 L 140 141 L 140 160 L 140 161 L 140 180 L 121 180 L 120 180 L 101 180 L 100 180 L 81 180 L 80 180 L 61 180 L 60 180 L 41 180 L 40 180 L 20 180 L 20 200 L 20 201 L 20 220 L 20 221 L 20 240 L 20 241 L 20 260 L 20 261 L 20 281 L 40 281 L 41 281 L 60 281 L 61 281 L 80 281 L 81 281 L 100 281 L 101 281 L 120 281 L 121 281 L 140 281 L 140 301 L 161 301 L 161 281 L 180 281 L 181 281 L 200 281 L 201 281 L 220 281 L 221 281 L 240 281 L 241 281 L 260 281 L 261 281 L 281 281 L 281 261 L 281 260 L 281 241 L 281 240 L 281 221 L 281 220 L 281 201 L 281 200 L 281 180 L 261 180 L 260 180 L 241 180 L 240 180 L 221 180 L 220 180 L 201 180 L 200 180 L 181 180 L 180 180 L 161 180 L 161 161 L 161 160 L 161 141 L 180 141 L 181 141 L 200 141 L 201 141 L 221 141 L 221 121 L 221 120 L 221 101 L 221 100 L 221 81 L 221 80 L 221 61 L 221 60 L 221 40 L 201 40 L 200 40 L 181 40 L 180 40 L 161 40 L 161 20 L 140 20 z M 101 61 L 120 61 L 121 61 L 140 61 L 141 61 L 160 61 L 161 61 L 180 61 L 181 61 L 200 61 L 200 80 L 200 81 L 200 100 L 200 101 L 200 120 L 181 120 L 180 120 L 161 120 L 160 120 L 141 120 L 140 120 L 121 120 L 120 120 L 101 120 L 101 101 L 101 100 L 101 81 L 101 80 L 101 61 z M 41 201 L 60 201 L 61 201 L 80 201 L 81 201 L 100 201 L 101 201 L 120 201 L 121 201 L 140 201 L 141 201 L 160 201 L 161 201 L 180 201 L 181 201 L 200 201 L 201 201 L 220 201 L 221 201 L 240 201 L 241 201 L 260 201 L 260 220 L 260 221 L 260 240 L 260 241 L 260 260 L 241 260 L 240 260 L 221 260 L 220 260 L 201 260 L 200 260 L 181 260 L 180 260 L 161 260 L 160 260 L 141 260 L 140 260 L 121 260 L 120 260 L 101 260 L 100 260 L 81 260 L 80 260 L 61 260 L 60 260 L 41 260 L 41 241 L 41 240 L 41 221 L 41 220 L 41 201 z "
     id="rect210" />
</svg>
