<?xml version="1.0" encoding="UTF-8" standalone="no"?>
<svg
   xmlns:dc="http://purl.org/dc/elements/1.1/"
   xmlns:cc="http://creativecommons.org/ns#"
   xmlns:rdf="http://www.w3.org/1999/02/22-rdf-syntax-ns#"
   xmlns:svg="http://www.w3.org/2000/svg"
   xmlns="http://www.w3.org/2000/svg"
   xmlns:sodipodi="http://sodipodi.sourceforge.net/DTD/sodipodi-0.dtd"
   xmlns:inkscape="http://www.inkscape.org/namespaces/inkscape"
   id="svg1300"
   width="96px"
   version="1.1"
   height="96px"
   sodipodi:docname="chicago95_tmp_file.svg"
   inkscape:version="0.92.4 (5da689c313, 2019-01-14)">
  <sodipodi:namedview
     pagecolor="#ffffff"
     bordercolor="#666666"
     borderopacity="1"
     objecttolerance="10"
     gridtolerance="10"
     guidetolerance="10"
     inkscape:pageopacity="0"
     inkscape:pageshadow="2"
     inkscape:window-width="640"
     inkscape:window-height="480"
     id="namedview653"
     showgrid="false"
     inkscape:zoom="2.4583333"
     inkscape:cx="47.999998"
     inkscape:cy="47.999998"
     inkscape:window-x="0"
     inkscape:window-y="0"
     inkscape:window-maximized="0"
     inkscape:current-layer="svg1300" />
  <metadata
     id="metadata1304">
    <rdf:RDF>
      <cc:Work
         rdf:about="">
        <dc:format>image/svg+xml</dc:format>
        <dc:type
           rdf:resource="http://purl.org/dc/dcmitype/StillImage" />
      </cc:Work>
    </rdf:RDF>
  </metadata>
  <defs
     id="defs2" />
  <path
     style="fill:#880000"
     d="M 36 30 L 36 33 L 36 36 L 36 39 L 36 42 L 33 42 L 30 42 L 27 42 L 24 42 L 21 42 L 18 42 L 15 42 L 12 42 L 9 42 L 6 42 L 6 45 L 6 48 L 6 51 L 6 54 L 9 54 L 12 54 L 15 54 L 18 54 L 21 54 L 24 54 L 27 54 L 30 54 L 33 54 L 36 54 L 36 57 L 36 60 L 36 63 L 36 66 L 39 66 L 42 66 L 42 63 L 42 60 L 45 60 L 48 60 L 48 57 L 48 54 L 51 54 L 54 54 L 54 51 L 54 48 L 54 45 L 54 42 L 51 42 L 48 42 L 48 39 L 48 36 L 45 36 L 42 36 L 42 33 L 42 30 L 39 30 L 36 30 z "
     id="rect958" />
  <path
     style="fill:#f8fcf8"
     d="M 48 12 L 48 15 L 48 18 L 48 21 L 48 24 L 48 27 L 48 30 L 48 33 L 48 36 L 51 36 L 54 36 L 54 39 L 54 42 L 57 42 L 60 42 L 60 45 L 60 48 L 60 51 L 60 54 L 57 54 L 54 54 L 54 57 L 54 60 L 51 60 L 48 60 L 48 63 L 48 66 L 48 69 L 48 72 L 48 75 L 48 78 L 48 81 L 48 84 L 51 84 L 54 84 L 57 84 L 60 84 L 60 81 L 60 78 L 63 78 L 66 78 L 69 78 L 72 78 L 72 75 L 72 72 L 75 72 L 78 72 L 81 72 L 84 72 L 84 69 L 84 66 L 84 63 L 84 60 L 84 57 L 84 54 L 84 51 L 84 48 L 84 45 L 84 42 L 84 39 L 84 36 L 84 33 L 84 30 L 84 27 L 84 24 L 84 21 L 84 18 L 84 15 L 84 12 L 81 12 L 78 12 L 75 12 L 72 12 L 69 12 L 66 12 L 63 12 L 60 12 L 57 12 L 54 12 L 51 12 L 48 12 z M 66 36 L 69 36 L 72 36 L 75 36 L 78 36 L 78 39 L 78 42 L 78 45 L 78 48 L 75 48 L 72 48 L 69 48 L 66 48 L 66 45 L 66 42 L 66 39 L 66 36 z "
     id="rect1202" />
  <path
     style="fill:#000000"
     d="M 42 6 L 42 9 L 42 12 L 42 15 L 42 18 L 42 21 L 42 24 L 39 24 L 36 24 L 33 24 L 30 24 L 30 27 L 30 30 L 30 33 L 30 36 L 27 36 L 24 36 L 21 36 L 18 36 L 15 36 L 12 36 L 9 36 L 6 36 L 3 36 L 0 36 L 0 39 L 0 42 L 0 45 L 0 48 L 0 51 L 0 54 L 0 57 L 0 60 L 3 60 L 6 60 L 9 60 L 12 60 L 15 60 L 18 60 L 21 60 L 24 60 L 27 60 L 30 60 L 30 63 L 30 66 L 30 69 L 30 72 L 33 72 L 36 72 L 39 72 L 42 72 L 42 75 L 42 78 L 42 81 L 42 84 L 42 87 L 42 90 L 45 90 L 48 90 L 51 90 L 54 90 L 57 90 L 60 90 L 63 90 L 66 90 L 69 90 L 72 90 L 75 90 L 78 90 L 81 90 L 84 90 L 87 90 L 90 90 L 93 90 L 96 90 L 96 87 L 96 84 L 96 81 L 96 78 L 96 75 L 96 72 L 96 69 L 96 66 L 96 63 L 96 60 L 96 57 L 96 54 L 96 51 L 96 48 L 96 45 L 96 42 L 96 39 L 96 36 L 96 33 L 96 30 L 96 27 L 96 24 L 96 21 L 96 18 L 96 15 L 96 12 L 96 9 L 96 6 L 93 6 L 90 6 L 87 6 L 84 6 L 81 6 L 78 6 L 75 6 L 72 6 L 69 6 L 66 6 L 63 6 L 60 6 L 57 6 L 54 6 L 51 6 L 48 6 L 45 6 L 42 6 z M 48 12 L 51 12 L 54 12 L 57 12 L 60 12 L 63 12 L 66 12 L 69 12 L 72 12 L 75 12 L 78 12 L 81 12 L 84 12 L 84 15 L 84 18 L 84 21 L 84 24 L 84 27 L 84 30 L 84 33 L 84 36 L 84 39 L 84 42 L 84 45 L 84 48 L 84 51 L 84 54 L 84 57 L 84 60 L 84 63 L 84 66 L 84 69 L 84 72 L 81 72 L 78 72 L 75 72 L 72 72 L 72 75 L 72 78 L 69 78 L 66 78 L 63 78 L 60 78 L 60 81 L 60 84 L 57 84 L 54 84 L 51 84 L 48 84 L 48 81 L 48 78 L 48 75 L 48 72 L 48 69 L 48 66 L 48 63 L 48 60 L 45 60 L 42 60 L 42 63 L 42 66 L 39 66 L 36 66 L 36 63 L 36 60 L 36 57 L 36 54 L 33 54 L 30 54 L 27 54 L 24 54 L 21 54 L 18 54 L 15 54 L 12 54 L 9 54 L 6 54 L 6 51 L 6 48 L 6 45 L 6 42 L 9 42 L 12 42 L 15 42 L 18 42 L 21 42 L 24 42 L 27 42 L 30 42 L 33 42 L 36 42 L 36 39 L 36 36 L 36 33 L 36 30 L 39 30 L 42 30 L 42 33 L 42 36 L 45 36 L 48 36 L 48 33 L 48 30 L 48 27 L 48 24 L 48 21 L 48 18 L 48 15 L 48 12 z M 48 36 L 48 39 L 48 42 L 51 42 L 54 42 L 54 39 L 54 36 L 51 36 L 48 36 z M 54 42 L 54 45 L 54 48 L 54 51 L 54 54 L 57 54 L 60 54 L 60 51 L 60 48 L 60 45 L 60 42 L 57 42 L 54 42 z M 54 54 L 51 54 L 48 54 L 48 57 L 48 60 L 51 60 L 54 60 L 54 57 L 54 54 z M 66 36 L 66 39 L 66 42 L 66 45 L 66 48 L 69 48 L 72 48 L 75 48 L 78 48 L 78 45 L 78 42 L 78 39 L 78 36 L 75 36 L 72 36 L 69 36 L 66 36 z "
     id="rect1298" />
</svg>
