<?xml version="1.0" encoding="UTF-8" standalone="no"?>
<svg
   xmlns:dc="http://purl.org/dc/elements/1.1/"
   xmlns:cc="http://creativecommons.org/ns#"
   xmlns:rdf="http://www.w3.org/1999/02/22-rdf-syntax-ns#"
   xmlns:svg="http://www.w3.org/2000/svg"
   xmlns="http://www.w3.org/2000/svg"
   xmlns:sodipodi="http://sodipodi.sourceforge.net/DTD/sodipodi-0.dtd"
   xmlns:inkscape="http://www.inkscape.org/namespaces/inkscape"
   id="svg372"
   width="128px"
   version="1.1"
   height="128px"
   sodipodi:docname="chicago95_tmp_file.svg"
   inkscape:version="0.92.4 (5da689c313, 2019-01-14)">
  <sodipodi:namedview
     pagecolor="#ffffff"
     bordercolor="#666666"
     borderopacity="1"
     objecttolerance="10"
     gridtolerance="10"
     guidetolerance="10"
     inkscape:pageopacity="0"
     inkscape:pageshadow="2"
     inkscape:window-width="640"
     inkscape:window-height="480"
     id="namedview189"
     showgrid="false"
     inkscape:zoom="1.84375"
     inkscape:cx="64"
     inkscape:cy="64"
     inkscape:window-x="0"
     inkscape:window-y="0"
     inkscape:window-maximized="0"
     inkscape:current-layer="svg372" />
  <metadata
     id="metadata376">
    <rdf:RDF>
      <cc:Work
         rdf:about="">
        <dc:format>image/svg+xml</dc:format>
        <dc:type
           rdf:resource="http://purl.org/dc/dcmitype/StillImage" />
      </cc:Work>
    </rdf:RDF>
  </metadata>
  <defs
     id="defs2" />
  <path
     style="fill:#000000"
     d="M 104 16 L 104 20 L 104 24 L 100 24 L 96 24 L 96 28 L 96 32 L 92 32 L 88 32 L 88 36 L 88 40 L 84 40 L 80 40 L 80 44 L 80 48 L 76 48 L 72 48 L 72 52 L 72 56 L 68 56 L 64 56 L 64 60 L 64 64 L 60 64 L 56 64 L 56 68 L 56 72 L 52 72 L 48 72 L 48 76 L 48 80 L 44 80 L 40 80 L 40 76 L 40 72 L 40 68 L 40 64 L 40 60 L 40 56 L 36 56 L 32 56 L 28 56 L 24 56 L 24 60 L 24 64 L 20 64 L 16 64 L 16 68 L 16 72 L 16 76 L 16 80 L 16 84 L 16 88 L 16 92 L 16 96 L 16 100 L 16 104 L 20 104 L 24 104 L 24 108 L 24 112 L 28 112 L 32 112 L 36 112 L 40 112 L 40 108 L 40 104 L 44 104 L 48 104 L 48 100 L 48 96 L 52 96 L 56 96 L 56 92 L 56 88 L 60 88 L 64 88 L 64 84 L 64 80 L 68 80 L 72 80 L 72 76 L 72 72 L 76 72 L 80 72 L 80 68 L 80 64 L 84 64 L 88 64 L 88 60 L 88 56 L 92 56 L 96 56 L 96 52 L 96 48 L 100 48 L 104 48 L 104 44 L 104 40 L 108 40 L 112 40 L 112 36 L 112 32 L 112 28 L 112 24 L 112 20 L 112 16 L 108 16 L 104 16 z "
     id="rect370" />
</svg>
