<?xml version="1.0" encoding="UTF-8" standalone="no"?>
<svg
   xmlns:dc="http://purl.org/dc/elements/1.1/"
   xmlns:cc="http://creativecommons.org/ns#"
   xmlns:rdf="http://www.w3.org/1999/02/22-rdf-syntax-ns#"
   xmlns:svg="http://www.w3.org/2000/svg"
   xmlns="http://www.w3.org/2000/svg"
   xmlns:sodipodi="http://sodipodi.sourceforge.net/DTD/sodipodi-0.dtd"
   xmlns:inkscape="http://www.inkscape.org/namespaces/inkscape"
   id="svg222"
   width="320px"
   version="1.1"
   height="320px"
   sodipodi:docname="chicago95_tmp_file.svg"
   inkscape:version="0.92.5 (2060ec1f9f, 2020-04-08)">
  <sodipodi:namedview
     pagecolor="#ffffff"
     bordercolor="#666666"
     borderopacity="1"
     objecttolerance="10"
     gridtolerance="10"
     guidetolerance="10"
     inkscape:pageopacity="0"
     inkscape:pageshadow="2"
     inkscape:window-width="640"
     inkscape:window-height="480"
     id="namedview114"
     showgrid="false"
     inkscape:zoom="0.7375"
     inkscape:cx="160"
     inkscape:cy="160"
     inkscape:window-x="0"
     inkscape:window-y="0"
     inkscape:window-maximized="0"
     inkscape:current-layer="svg222" />
  <metadata
     id="metadata226">
    <rdf:RDF>
      <cc:Work
         rdf:about="">
        <dc:format>image/svg+xml</dc:format>
        <dc:type
           rdf:resource="http://purl.org/dc/dcmitype/StillImage" />
      </cc:Work>
    </rdf:RDF>
  </metadata>
  <defs
     id="defs2" />
  <path
     style="fill:#800000"
     d="M 0 100 L 0 121 L 21 121 L 21 100 L 0 100 z M 40 100 L 40 121 L 61 121 L 61 100 L 40 100 z M 80 100 L 80 121 L 100 121 L 101 121 L 121 121 L 121 100 L 101 100 L 100 100 L 80 100 z M 0 140 L 0 161 L 21 161 L 21 140 L 0 140 z M 40 140 L 40 161 L 61 161 L 61 140 L 40 140 z M 80 140 L 80 161 L 100 161 L 101 161 L 121 161 L 121 140 L 101 140 L 100 140 L 80 140 z M 0 180 L 0 201 L 21 201 L 21 180 L 0 180 z M 40 180 L 40 201 L 61 201 L 61 180 L 40 180 z M 80 180 L 80 201 L 100 201 L 101 201 L 121 201 L 121 180 L 101 180 L 100 180 L 80 180 z M 0 220 L 0 241 L 21 241 L 21 220 L 0 220 z M 40 220 L 40 241 L 61 241 L 61 220 L 40 220 z M 80 220 L 80 241 L 100 241 L 101 241 L 121 241 L 121 220 L 101 220 L 100 220 L 80 220 z "
     id="rect184" />
  <path
     style="fill:#ffffff"
     d="M 160 60 L 160 80 L 160 81 L 160 100 L 160 101 L 160 120 L 160 121 L 160 140 L 160 141 L 160 160 L 160 161 L 160 180 L 160 181 L 160 200 L 160 201 L 160 220 L 160 221 L 160 241 L 180 241 L 181 241 L 200 241 L 201 241 L 220 241 L 221 241 L 240 241 L 241 241 L 260 241 L 261 241 L 280 241 L 281 241 L 301 241 L 301 221 L 301 220 L 301 201 L 301 200 L 301 181 L 301 180 L 301 161 L 301 160 L 301 141 L 301 140 L 301 120 L 281 120 L 280 120 L 261 120 L 260 120 L 241 120 L 241 101 L 241 100 L 241 81 L 241 80 L 241 60 L 221 60 L 220 60 L 201 60 L 200 60 L 181 60 L 180 60 L 160 60 z M 260 80 L 260 101 L 281 101 L 281 80 L 260 80 z "
     id="rect200" />
  <path
     style="fill:#000000"
     d="M 140 40 L 140 60 L 140 61 L 140 80 L 140 81 L 140 100 L 140 101 L 140 120 L 140 121 L 140 140 L 140 141 L 140 160 L 140 161 L 140 180 L 140 181 L 140 200 L 140 201 L 140 220 L 140 221 L 140 240 L 140 241 L 140 261 L 160 261 L 161 261 L 180 261 L 181 261 L 200 261 L 201 261 L 220 261 L 221 261 L 240 261 L 241 261 L 260 261 L 261 261 L 280 261 L 281 261 L 300 261 L 301 261 L 321 261 L 321 241 L 321 240 L 321 221 L 321 220 L 321 201 L 321 200 L 321 181 L 321 180 L 321 161 L 321 160 L 321 141 L 321 140 L 321 121 L 321 120 L 321 100 L 301 100 L 301 80 L 281 80 L 281 60 L 261 60 L 261 40 L 241 40 L 240 40 L 221 40 L 220 40 L 201 40 L 200 40 L 181 40 L 180 40 L 161 40 L 160 40 L 140 40 z M 161 61 L 180 61 L 181 61 L 200 61 L 201 61 L 220 61 L 221 61 L 240 61 L 240 80 L 240 81 L 240 100 L 240 101 L 240 121 L 260 121 L 261 121 L 280 121 L 281 121 L 300 121 L 300 140 L 300 141 L 300 160 L 300 161 L 300 180 L 300 181 L 300 200 L 300 201 L 300 220 L 300 221 L 300 240 L 281 240 L 280 240 L 261 240 L 260 240 L 241 240 L 240 240 L 221 240 L 220 240 L 201 240 L 200 240 L 181 240 L 180 240 L 161 240 L 161 221 L 161 220 L 161 201 L 161 200 L 161 181 L 161 180 L 161 161 L 161 160 L 161 141 L 161 140 L 161 121 L 161 120 L 161 101 L 161 100 L 161 81 L 161 80 L 161 61 z M 261 81 L 280 81 L 280 100 L 261 100 L 261 81 z "
     id="rect220" />
</svg>
