<?xml version="1.0" encoding="UTF-8" standalone="no"?>
<svg
   xmlns:dc="http://purl.org/dc/elements/1.1/"
   xmlns:cc="http://creativecommons.org/ns#"
   xmlns:rdf="http://www.w3.org/1999/02/22-rdf-syntax-ns#"
   xmlns:svg="http://www.w3.org/2000/svg"
   xmlns="http://www.w3.org/2000/svg"
   xmlns:sodipodi="http://sodipodi.sourceforge.net/DTD/sodipodi-0.dtd"
   xmlns:inkscape="http://www.inkscape.org/namespaces/inkscape"
   id="svg1566"
   width="128px"
   version="1.1"
   height="128px"
   sodipodi:docname="chicago95_tmp_file.svg"
   inkscape:version="0.92.4 (5da689c313, 2019-01-14)">
  <sodipodi:namedview
     pagecolor="#ffffff"
     bordercolor="#666666"
     borderopacity="1"
     objecttolerance="10"
     gridtolerance="10"
     guidetolerance="10"
     inkscape:pageopacity="0"
     inkscape:pageshadow="2"
     inkscape:window-width="640"
     inkscape:window-height="480"
     id="namedview786"
     showgrid="false"
     inkscape:zoom="1.84375"
     inkscape:cx="64"
     inkscape:cy="64"
     inkscape:window-x="0"
     inkscape:window-y="0"
     inkscape:window-maximized="0"
     inkscape:current-layer="svg1566" />
  <metadata
     id="metadata1570">
    <rdf:RDF>
      <cc:Work
         rdf:about="">
        <dc:format>image/svg+xml</dc:format>
        <dc:type
           rdf:resource="http://purl.org/dc/dcmitype/StillImage" />
      </cc:Work>
    </rdf:RDF>
  </metadata>
  <defs
     id="defs2" />
  <path
     style="fill:#c0c0c0"
     d="M 28 12 L 28 16 L 28 20 L 28 24 L 28 28 L 28 32 L 28 36 L 28 40 L 28 44 L 28 48 L 28 52 L 28 56 L 28 60 L 28 64 L 32 64 L 32 68 L 36 68 L 40 68 L 44 68 L 48 68 L 52 68 L 56 68 L 60 68 L 64 68 L 68 68 L 72 68 L 76 68 L 80 68 L 84 68 L 88 68 L 92 68 L 96 68 L 96 64 L 100 64 L 100 60 L 100 56 L 100 52 L 100 48 L 100 44 L 100 40 L 100 36 L 100 32 L 100 28 L 100 24 L 100 20 L 100 16 L 100 12 L 96 12 L 92 12 L 88 12 L 84 12 L 80 12 L 76 12 L 72 12 L 68 12 L 64 12 L 60 12 L 56 12 L 52 12 L 48 12 L 44 12 L 40 12 L 36 12 L 32 12 L 28 12 z M 108 12 L 108 16 L 108 20 L 112 20 L 116 20 L 116 16 L 116 12 L 112 12 L 108 12 z M 80 84 L 80 88 L 80 92 L 80 96 L 80 100 L 80 104 L 80 108 L 80 112 L 80 116 L 84 116 L 88 116 L 92 116 L 96 116 L 100 116 L 100 112 L 100 108 L 100 104 L 100 100 L 100 96 L 100 92 L 100 88 L 100 84 L 96 84 L 92 84 L 88 84 L 84 84 L 80 84 z "
     id="rect1502" />
  <path
     style="fill:#808000"
     d="M 12 12 L 12 16 L 12 20 L 12 24 L 12 28 L 12 32 L 12 36 L 12 40 L 12 44 L 12 48 L 12 52 L 12 56 L 12 60 L 12 64 L 12 68 L 12 72 L 12 76 L 12 80 L 12 84 L 12 88 L 12 92 L 12 96 L 12 100 L 12 104 L 12 108 L 12 112 L 16 112 L 16 116 L 20 116 L 24 116 L 28 116 L 32 116 L 32 112 L 32 108 L 32 104 L 32 100 L 32 96 L 32 92 L 32 88 L 32 84 L 32 80 L 36 80 L 40 80 L 44 80 L 48 80 L 52 80 L 56 80 L 60 80 L 64 80 L 68 80 L 72 80 L 76 80 L 80 80 L 84 80 L 88 80 L 92 80 L 96 80 L 100 80 L 104 80 L 104 84 L 104 88 L 104 92 L 104 96 L 104 100 L 104 104 L 104 108 L 104 112 L 104 116 L 108 116 L 112 116 L 116 116 L 116 112 L 116 108 L 116 104 L 116 100 L 116 96 L 116 92 L 116 88 L 116 84 L 116 80 L 116 76 L 116 72 L 116 68 L 116 64 L 116 60 L 116 56 L 116 52 L 116 48 L 116 44 L 116 40 L 116 36 L 116 32 L 116 28 L 116 24 L 112 24 L 108 24 L 104 24 L 104 28 L 104 32 L 104 36 L 104 40 L 104 44 L 104 48 L 104 52 L 104 56 L 104 60 L 104 64 L 100 64 L 100 68 L 96 68 L 96 72 L 92 72 L 88 72 L 84 72 L 80 72 L 76 72 L 72 72 L 68 72 L 64 72 L 60 72 L 56 72 L 52 72 L 48 72 L 44 72 L 40 72 L 36 72 L 32 72 L 32 68 L 28 68 L 28 64 L 24 64 L 24 60 L 24 56 L 24 52 L 24 48 L 24 44 L 24 40 L 24 36 L 24 32 L 24 28 L 24 24 L 24 20 L 24 16 L 24 12 L 20 12 L 16 12 L 12 12 z "
     id="rect1510" />
  <path
     style="fill:#000000"
     d="M 8 8 L 8 12 L 8 16 L 8 20 L 8 24 L 8 28 L 8 32 L 8 36 L 8 40 L 8 44 L 8 48 L 8 52 L 8 56 L 8 60 L 8 64 L 8 68 L 8 72 L 8 76 L 8 80 L 8 84 L 8 88 L 8 92 L 8 96 L 8 100 L 8 104 L 8 108 L 8 112 L 12 112 L 12 108 L 12 104 L 12 100 L 12 96 L 12 92 L 12 88 L 12 84 L 12 80 L 12 76 L 12 72 L 12 68 L 12 64 L 12 60 L 12 56 L 12 52 L 12 48 L 12 44 L 12 40 L 12 36 L 12 32 L 12 28 L 12 24 L 12 20 L 12 16 L 12 12 L 16 12 L 20 12 L 24 12 L 24 16 L 24 20 L 24 24 L 24 28 L 24 32 L 24 36 L 24 40 L 24 44 L 24 48 L 24 52 L 24 56 L 24 60 L 24 64 L 28 64 L 28 60 L 28 56 L 28 52 L 28 48 L 28 44 L 28 40 L 28 36 L 28 32 L 28 28 L 28 24 L 28 20 L 28 16 L 28 12 L 32 12 L 36 12 L 40 12 L 44 12 L 48 12 L 52 12 L 56 12 L 60 12 L 64 12 L 68 12 L 72 12 L 76 12 L 80 12 L 84 12 L 88 12 L 92 12 L 96 12 L 100 12 L 100 16 L 100 20 L 100 24 L 100 28 L 100 32 L 100 36 L 100 40 L 100 44 L 100 48 L 100 52 L 100 56 L 100 60 L 100 64 L 104 64 L 104 60 L 104 56 L 104 52 L 104 48 L 104 44 L 104 40 L 104 36 L 104 32 L 104 28 L 104 24 L 108 24 L 112 24 L 116 24 L 116 28 L 116 32 L 116 36 L 116 40 L 116 44 L 116 48 L 116 52 L 116 56 L 116 60 L 116 64 L 116 68 L 116 72 L 116 76 L 116 80 L 116 84 L 116 88 L 116 92 L 116 96 L 116 100 L 116 104 L 116 108 L 116 112 L 116 116 L 112 116 L 108 116 L 104 116 L 104 112 L 104 108 L 104 104 L 104 100 L 104 96 L 104 92 L 104 88 L 104 84 L 104 80 L 100 80 L 96 80 L 92 80 L 88 80 L 84 80 L 80 80 L 76 80 L 72 80 L 68 80 L 64 80 L 60 80 L 56 80 L 52 80 L 48 80 L 44 80 L 40 80 L 36 80 L 32 80 L 32 84 L 32 88 L 32 92 L 32 96 L 32 100 L 32 104 L 32 108 L 32 112 L 32 116 L 28 116 L 24 116 L 20 116 L 16 116 L 16 120 L 20 120 L 24 120 L 28 120 L 32 120 L 36 120 L 40 120 L 44 120 L 48 120 L 52 120 L 56 120 L 60 120 L 64 120 L 68 120 L 72 120 L 76 120 L 80 120 L 84 120 L 88 120 L 92 120 L 96 120 L 100 120 L 104 120 L 108 120 L 112 120 L 116 120 L 120 120 L 120 116 L 120 112 L 120 108 L 120 104 L 120 100 L 120 96 L 120 92 L 120 88 L 120 84 L 120 80 L 120 76 L 120 72 L 120 68 L 120 64 L 120 60 L 120 56 L 120 52 L 120 48 L 120 44 L 120 40 L 120 36 L 120 32 L 120 28 L 120 24 L 120 20 L 120 16 L 120 12 L 120 8 L 116 8 L 112 8 L 108 8 L 104 8 L 100 8 L 96 8 L 92 8 L 88 8 L 84 8 L 80 8 L 76 8 L 72 8 L 68 8 L 64 8 L 60 8 L 56 8 L 52 8 L 48 8 L 44 8 L 40 8 L 36 8 L 32 8 L 28 8 L 24 8 L 20 8 L 16 8 L 12 8 L 8 8 z M 16 116 L 16 112 L 12 112 L 12 116 L 16 116 z M 100 64 L 96 64 L 96 68 L 100 68 L 100 64 z M 96 68 L 92 68 L 88 68 L 84 68 L 80 68 L 76 68 L 72 68 L 68 68 L 64 68 L 60 68 L 56 68 L 52 68 L 48 68 L 44 68 L 40 68 L 36 68 L 32 68 L 32 72 L 36 72 L 40 72 L 44 72 L 48 72 L 52 72 L 56 72 L 60 72 L 64 72 L 68 72 L 72 72 L 76 72 L 80 72 L 84 72 L 88 72 L 92 72 L 96 72 L 96 68 z M 32 68 L 32 64 L 28 64 L 28 68 L 32 68 z M 108 12 L 112 12 L 116 12 L 116 16 L 116 20 L 112 20 L 108 20 L 108 16 L 108 12 z M 80 84 L 84 84 L 88 84 L 92 84 L 96 84 L 100 84 L 100 88 L 100 92 L 100 96 L 100 100 L 100 104 L 100 108 L 100 112 L 100 116 L 96 116 L 92 116 L 88 116 L 84 116 L 80 116 L 80 112 L 80 108 L 80 104 L 80 100 L 80 96 L 80 92 L 80 88 L 80 84 z "
     id="rect1564" />
</svg>
