<?xml version="1.0" encoding="UTF-8" standalone="no"?>
<svg
   xmlns:dc="http://purl.org/dc/elements/1.1/"
   xmlns:cc="http://creativecommons.org/ns#"
   xmlns:rdf="http://www.w3.org/1999/02/22-rdf-syntax-ns#"
   xmlns:svg="http://www.w3.org/2000/svg"
   xmlns="http://www.w3.org/2000/svg"
   xmlns:sodipodi="http://sodipodi.sourceforge.net/DTD/sodipodi-0.dtd"
   xmlns:inkscape="http://www.inkscape.org/namespaces/inkscape"
   id="svg1546"
   width="128px"
   version="1.1"
   height="128px"
   sodipodi:docname="chicago95_tmp_file.svg"
   inkscape:version="0.92.4 (5da689c313, 2019-01-14)">
  <sodipodi:namedview
     pagecolor="#ffffff"
     bordercolor="#666666"
     borderopacity="1"
     objecttolerance="10"
     gridtolerance="10"
     guidetolerance="10"
     inkscape:pageopacity="0"
     inkscape:pageshadow="2"
     inkscape:window-width="640"
     inkscape:window-height="480"
     id="namedview776"
     showgrid="false"
     inkscape:zoom="1.84375"
     inkscape:cx="64"
     inkscape:cy="64"
     inkscape:window-x="0"
     inkscape:window-y="0"
     inkscape:window-maximized="0"
     inkscape:current-layer="svg1546" />
  <metadata
     id="metadata1550">
    <rdf:RDF>
      <cc:Work
         rdf:about="">
        <dc:format>image/svg+xml</dc:format>
        <dc:type
           rdf:resource="http://purl.org/dc/dcmitype/StillImage" />
      </cc:Work>
    </rdf:RDF>
  </metadata>
  <defs
     id="defs2" />
  <path
     style="fill:#c0c0c0"
     d="M 88 12 L 88 16 L 92 16 L 92 12 L 88 12 z M 92 16 L 92 20 L 96 20 L 96 16 L 92 16 z M 96 20 L 96 24 L 100 24 L 100 20 L 96 20 z "
     id="rect244" />
  <path
     style="fill:#ffffff"
     d="M 20 4 L 20 8 L 20 12 L 20 16 L 20 20 L 20 24 L 20 28 L 20 32 L 20 36 L 20 40 L 20 44 L 20 48 L 20 52 L 20 56 L 20 60 L 20 64 L 20 68 L 20 72 L 20 76 L 20 80 L 20 84 L 20 88 L 20 92 L 20 96 L 20 100 L 20 104 L 20 108 L 20 112 L 20 116 L 20 120 L 24 120 L 28 120 L 32 120 L 36 120 L 40 120 L 44 120 L 48 120 L 52 120 L 56 120 L 60 120 L 64 120 L 68 120 L 72 120 L 76 120 L 80 120 L 84 120 L 88 120 L 92 120 L 96 120 L 100 120 L 104 120 L 108 120 L 108 116 L 108 112 L 108 108 L 108 104 L 108 100 L 108 96 L 108 92 L 108 88 L 108 84 L 108 80 L 108 76 L 108 72 L 108 68 L 108 64 L 108 60 L 108 56 L 108 52 L 108 48 L 108 44 L 108 40 L 108 36 L 108 32 L 108 28 L 104 28 L 100 28 L 96 28 L 92 28 L 88 28 L 84 28 L 84 24 L 84 20 L 84 16 L 84 12 L 84 8 L 84 4 L 80 4 L 76 4 L 72 4 L 68 4 L 64 4 L 60 4 L 56 4 L 52 4 L 48 4 L 44 4 L 40 4 L 36 4 L 32 4 L 28 4 L 24 4 L 20 4 z M 88 16 L 88 20 L 88 24 L 92 24 L 96 24 L 96 20 L 92 20 L 92 16 L 88 16 z "
     id="rect1442" />
  <path
     style="fill:#000000"
     d="M 16 0 L 16 4 L 16 8 L 16 12 L 16 16 L 16 20 L 16 24 L 16 28 L 16 32 L 16 36 L 16 40 L 16 44 L 16 48 L 16 52 L 16 56 L 16 60 L 16 64 L 16 68 L 16 72 L 16 76 L 16 80 L 16 84 L 16 88 L 16 92 L 16 96 L 16 100 L 16 104 L 16 108 L 16 112 L 16 116 L 16 120 L 16 124 L 20 124 L 24 124 L 28 124 L 32 124 L 36 124 L 40 124 L 44 124 L 48 124 L 52 124 L 56 124 L 60 124 L 64 124 L 68 124 L 72 124 L 76 124 L 80 124 L 84 124 L 88 124 L 92 124 L 96 124 L 100 124 L 104 124 L 108 124 L 112 124 L 112 120 L 112 116 L 112 112 L 112 108 L 112 104 L 112 100 L 112 96 L 112 92 L 112 88 L 112 84 L 112 80 L 112 76 L 112 72 L 112 68 L 112 64 L 112 60 L 112 56 L 112 52 L 112 48 L 112 44 L 112 40 L 112 36 L 112 32 L 112 28 L 112 24 L 108 24 L 108 20 L 104 20 L 104 24 L 100 24 L 96 24 L 92 24 L 88 24 L 88 20 L 88 16 L 88 12 L 88 8 L 92 8 L 92 4 L 88 4 L 88 0 L 84 0 L 80 0 L 76 0 L 72 0 L 68 0 L 64 0 L 60 0 L 56 0 L 52 0 L 48 0 L 44 0 L 40 0 L 36 0 L 32 0 L 28 0 L 24 0 L 20 0 L 16 0 z M 92 8 L 92 12 L 96 12 L 96 8 L 92 8 z M 96 12 L 96 16 L 100 16 L 100 12 L 96 12 z M 100 16 L 100 20 L 104 20 L 104 16 L 100 16 z M 20 4 L 24 4 L 28 4 L 32 4 L 36 4 L 40 4 L 44 4 L 48 4 L 52 4 L 56 4 L 60 4 L 64 4 L 68 4 L 72 4 L 76 4 L 80 4 L 84 4 L 84 8 L 84 12 L 84 16 L 84 20 L 84 24 L 84 28 L 88 28 L 92 28 L 96 28 L 100 28 L 104 28 L 108 28 L 108 32 L 108 36 L 108 40 L 108 44 L 108 48 L 108 52 L 108 56 L 108 60 L 108 64 L 108 68 L 108 72 L 108 76 L 108 80 L 108 84 L 108 88 L 108 92 L 108 96 L 108 100 L 108 104 L 108 108 L 108 112 L 108 116 L 108 120 L 104 120 L 100 120 L 96 120 L 92 120 L 88 120 L 84 120 L 80 120 L 76 120 L 72 120 L 68 120 L 64 120 L 60 120 L 56 120 L 52 120 L 48 120 L 44 120 L 40 120 L 36 120 L 32 120 L 28 120 L 24 120 L 20 120 L 20 116 L 20 112 L 20 108 L 20 104 L 20 100 L 20 96 L 20 92 L 20 88 L 20 84 L 20 80 L 20 76 L 20 72 L 20 68 L 20 64 L 20 60 L 20 56 L 20 52 L 20 48 L 20 44 L 20 40 L 20 36 L 20 32 L 20 28 L 20 24 L 20 20 L 20 16 L 20 12 L 20 8 L 20 4 z "
     id="rect1494" />
  <path
     style="fill:#808080"
     d="M 88 8 L 88 12 L 92 12 L 92 8 L 88 8 z M 92 12 L 92 16 L 96 16 L 96 12 L 92 12 z M 96 16 L 96 20 L 100 20 L 100 16 L 96 16 z M 100 20 L 100 24 L 104 24 L 104 20 L 100 20 z M 112 28 L 112 32 L 112 36 L 112 40 L 112 44 L 112 48 L 112 52 L 112 56 L 112 60 L 112 64 L 112 68 L 112 72 L 112 76 L 112 80 L 112 84 L 112 88 L 112 92 L 112 96 L 112 100 L 112 104 L 112 108 L 112 112 L 112 116 L 112 120 L 112 124 L 108 124 L 104 124 L 100 124 L 96 124 L 92 124 L 88 124 L 84 124 L 80 124 L 76 124 L 72 124 L 68 124 L 64 124 L 60 124 L 56 124 L 52 124 L 48 124 L 44 124 L 40 124 L 36 124 L 32 124 L 28 124 L 24 124 L 20 124 L 20 128 L 24 128 L 28 128 L 32 128 L 36 128 L 40 128 L 44 128 L 48 128 L 52 128 L 56 128 L 60 128 L 64 128 L 68 128 L 72 128 L 76 128 L 80 128 L 84 128 L 88 128 L 92 128 L 96 128 L 100 128 L 104 128 L 108 128 L 112 128 L 116 128 L 116 124 L 116 120 L 116 116 L 116 112 L 116 108 L 116 104 L 116 100 L 116 96 L 116 92 L 116 88 L 116 84 L 116 80 L 116 76 L 116 72 L 116 68 L 116 64 L 116 60 L 116 56 L 116 52 L 116 48 L 116 44 L 116 40 L 116 36 L 116 32 L 116 28 L 112 28 z "
     id="rect1544" />
</svg>
