<?xml version="1.0" encoding="UTF-8" standalone="no"?>
<svg
   xmlns:dc="http://purl.org/dc/elements/1.1/"
   xmlns:cc="http://creativecommons.org/ns#"
   xmlns:rdf="http://www.w3.org/1999/02/22-rdf-syntax-ns#"
   xmlns:svg="http://www.w3.org/2000/svg"
   xmlns="http://www.w3.org/2000/svg"
   xmlns:sodipodi="http://sodipodi.sourceforge.net/DTD/sodipodi-0.dtd"
   xmlns:inkscape="http://www.inkscape.org/namespaces/inkscape"
   id="svg298"
   width="320px"
   version="1.1"
   height="320px"
   sodipodi:docname="chicago95_tmp_file.svg"
   inkscape:version="0.92.5 (2060ec1f9f, 2020-04-08)">
  <sodipodi:namedview
     pagecolor="#ffffff"
     bordercolor="#666666"
     borderopacity="1"
     objecttolerance="10"
     gridtolerance="10"
     guidetolerance="10"
     inkscape:pageopacity="0"
     inkscape:pageshadow="2"
     inkscape:window-width="452"
     inkscape:window-height="423"
     id="namedview152"
     showgrid="false"
     inkscape:zoom="0.7375"
     inkscape:cx="162.71186"
     inkscape:cy="154.57627"
     inkscape:window-x="0"
     inkscape:window-y="0"
     inkscape:window-maximized="0"
     inkscape:current-layer="svg298" />
  <metadata
     id="metadata302">
    <rdf:RDF>
      <cc:Work
         rdf:about="">
        <dc:format>image/svg+xml</dc:format>
        <dc:type
           rdf:resource="http://purl.org/dc/dcmitype/StillImage" />
      </cc:Work>
    </rdf:RDF>
  </metadata>
  <defs
     id="defs2" />
  <path
     style="fill:#000000"
     d="M 20 40 L 20 60 L 20 61 L 20 80 L 20 81 L 20 100 L 20 101 L 20 120 L 20 121 L 20 140 L 20 141 L 20 160 L 20 161 L 20 180 L 20 181 L 20 200 L 20 201 L 20 220 L 20 221 L 20 241 L 40 241 L 41 241 L 60 241 L 61 241 L 80 241 L 81 241 L 100 241 L 101 241 L 120 241 L 121 241 L 141 241 L 141 220 L 121 220 L 120 220 L 101 220 L 100 220 L 81 220 L 80 220 L 61 220 L 60 220 L 41 220 L 41 201 L 41 200 L 41 181 L 41 180 L 41 161 L 41 160 L 41 141 L 41 140 L 41 121 L 41 120 L 41 101 L 41 100 L 41 81 L 41 80 L 41 61 L 60 61 L 61 61 L 80 61 L 81 61 L 100 61 L 101 61 L 120 61 L 120 80 L 120 81 L 120 100 L 120 101 L 120 121 L 141 121 L 141 101 L 141 100 L 141 81 L 160 81 L 160 101 L 181 101 L 181 80 L 161 80 L 161 60 L 141 60 L 141 40 L 121 40 L 120 40 L 101 40 L 100 40 L 81 40 L 80 40 L 61 40 L 60 40 L 41 40 L 40 40 L 20 40 z M 60 100 L 60 121 L 80 121 L 81 121 L 101 121 L 101 100 L 81 100 L 80 100 L 60 100 z M 60 140 L 60 161 L 80 161 L 81 161 L 100 161 L 101 161 L 120 161 L 121 161 L 141 161 L 141 140 L 121 140 L 120 140 L 101 140 L 100 140 L 81 140 L 80 140 L 60 140 z M 180 160 L 180 181 L 200 181 L 201 181 L 221 181 L 221 160 L 201 160 L 200 160 L 180 160 z M 60 180 L 60 201 L 80 201 L 81 201 L 100 201 L 101 201 L 120 201 L 121 201 L 141 201 L 141 180 L 121 180 L 120 180 L 101 180 L 100 180 L 81 180 L 80 180 L 60 180 z M 180 200 L 180 221 L 200 221 L 201 221 L 220 221 L 221 221 L 240 221 L 241 221 L 260 221 L 261 221 L 281 221 L 281 200 L 261 200 L 260 200 L 241 200 L 240 200 L 221 200 L 220 200 L 201 200 L 200 200 L 180 200 z M 180 240 L 180 261 L 200 261 L 201 261 L 220 261 L 221 261 L 240 261 L 241 261 L 260 261 L 261 261 L 281 261 L 281 240 L 261 240 L 260 240 L 241 240 L 240 240 L 221 240 L 220 240 L 201 240 L 200 240 L 180 240 z "
     id="rect256" />
  <path
     style="fill:#ffffff"
     d="M 40 60 L 40 80 L 40 81 L 40 100 L 40 101 L 40 120 L 40 121 L 40 140 L 40 141 L 40 160 L 40 161 L 40 180 L 40 181 L 40 200 L 40 201 L 40 221 L 60 221 L 61 221 L 80 221 L 81 221 L 100 221 L 101 221 L 120 221 L 121 221 L 141 221 L 141 200 L 121 200 L 120 200 L 101 200 L 100 200 L 81 200 L 80 200 L 61 200 L 61 181 L 80 181 L 81 181 L 100 181 L 101 181 L 120 181 L 121 181 L 141 181 L 141 160 L 121 160 L 120 160 L 101 160 L 100 160 L 81 160 L 80 160 L 61 160 L 61 141 L 80 141 L 81 141 L 100 141 L 101 141 L 120 141 L 121 141 L 141 141 L 141 120 L 121 120 L 121 101 L 121 100 L 121 81 L 121 80 L 121 60 L 101 60 L 100 60 L 81 60 L 80 60 L 61 60 L 60 60 L 40 60 z M 140 80 L 140 101 L 161 101 L 161 80 L 140 80 z M 61 101 L 80 101 L 81 101 L 100 101 L 100 120 L 81 120 L 80 120 L 61 120 L 61 101 z M 160 120 L 160 140 L 160 141 L 160 160 L 160 161 L 160 180 L 160 181 L 160 200 L 160 201 L 160 220 L 160 221 L 160 240 L 160 241 L 160 260 L 160 261 L 160 281 L 180 281 L 181 281 L 200 281 L 201 281 L 220 281 L 221 281 L 240 281 L 241 281 L 260 281 L 261 281 L 280 281 L 281 281 L 301 281 L 301 261 L 301 260 L 301 241 L 301 240 L 301 221 L 301 220 L 301 201 L 301 200 L 301 180 L 281 180 L 280 180 L 261 180 L 260 180 L 241 180 L 241 161 L 241 160 L 241 141 L 241 140 L 241 120 L 221 120 L 220 120 L 201 120 L 200 120 L 181 120 L 180 120 L 160 120 z M 260 140 L 260 161 L 281 161 L 281 140 L 260 140 z M 181 161 L 200 161 L 201 161 L 220 161 L 220 180 L 201 180 L 200 180 L 181 180 L 181 161 z M 181 201 L 200 201 L 201 201 L 220 201 L 221 201 L 240 201 L 241 201 L 260 201 L 261 201 L 280 201 L 280 220 L 261 220 L 260 220 L 241 220 L 240 220 L 221 220 L 220 220 L 201 220 L 200 220 L 181 220 L 181 201 z M 181 241 L 200 241 L 201 241 L 220 241 L 221 241 L 240 241 L 241 241 L 260 241 L 261 241 L 280 241 L 280 260 L 261 260 L 260 260 L 241 260 L 240 260 L 221 260 L 220 260 L 201 260 L 200 260 L 181 260 L 181 241 z "
     id="rect276" />
  <path
     style="fill:#00007f"
     d="M 140 100 L 140 120 L 140 121 L 140 140 L 140 141 L 140 160 L 140 161 L 140 180 L 140 181 L 140 200 L 140 201 L 140 220 L 140 221 L 140 240 L 140 241 L 140 260 L 140 261 L 140 280 L 140 281 L 140 301 L 160 301 L 161 301 L 180 301 L 181 301 L 200 301 L 201 301 L 220 301 L 221 301 L 240 301 L 241 301 L 260 301 L 261 301 L 280 301 L 281 301 L 300 301 L 301 301 L 321 301 L 321 281 L 321 280 L 321 261 L 321 260 L 321 241 L 321 240 L 321 221 L 321 220 L 321 201 L 321 200 L 321 181 L 321 180 L 321 160 L 301 160 L 301 140 L 281 140 L 281 120 L 261 120 L 261 100 L 241 100 L 240 100 L 221 100 L 220 100 L 201 100 L 200 100 L 181 100 L 180 100 L 161 100 L 160 100 L 140 100 z M 161 121 L 180 121 L 181 121 L 200 121 L 201 121 L 220 121 L 221 121 L 240 121 L 240 140 L 240 141 L 240 160 L 240 161 L 240 181 L 260 181 L 261 181 L 280 181 L 281 181 L 300 181 L 300 200 L 300 201 L 300 220 L 300 221 L 300 240 L 300 241 L 300 260 L 300 261 L 300 280 L 281 280 L 280 280 L 261 280 L 260 280 L 241 280 L 240 280 L 221 280 L 220 280 L 201 280 L 200 280 L 181 280 L 180 280 L 161 280 L 161 261 L 161 260 L 161 241 L 161 240 L 161 221 L 161 220 L 161 201 L 161 200 L 161 181 L 161 180 L 161 161 L 161 160 L 161 141 L 161 140 L 161 121 z M 261 141 L 280 141 L 280 160 L 261 160 L 261 141 z "
     id="rect296" />
</svg>
