<?xml version="1.0" encoding="UTF-8" standalone="no"?>
<svg
   xmlns:dc="http://purl.org/dc/elements/1.1/"
   xmlns:cc="http://creativecommons.org/ns#"
   xmlns:rdf="http://www.w3.org/1999/02/22-rdf-syntax-ns#"
   xmlns:svg="http://www.w3.org/2000/svg"
   xmlns="http://www.w3.org/2000/svg"
   xmlns:sodipodi="http://sodipodi.sourceforge.net/DTD/sodipodi-0.dtd"
   xmlns:inkscape="http://www.inkscape.org/namespaces/inkscape"
   id="svg580"
   width="128px"
   version="1.1"
   height="128px"
   sodipodi:docname="chicago95_tmp_file.svg"
   inkscape:version="0.92.4 (5da689c313, 2019-01-14)">
  <sodipodi:namedview
     pagecolor="#ffffff"
     bordercolor="#666666"
     borderopacity="1"
     objecttolerance="10"
     gridtolerance="10"
     guidetolerance="10"
     inkscape:pageopacity="0"
     inkscape:pageshadow="2"
     inkscape:window-width="640"
     inkscape:window-height="480"
     id="namedview293"
     showgrid="false"
     inkscape:zoom="1.84375"
     inkscape:cx="64"
     inkscape:cy="64"
     inkscape:window-x="0"
     inkscape:window-y="0"
     inkscape:window-maximized="0"
     inkscape:current-layer="svg580" />
  <metadata
     id="metadata584">
    <rdf:RDF>
      <cc:Work
         rdf:about="">
        <dc:format>image/svg+xml</dc:format>
        <dc:type
           rdf:resource="http://purl.org/dc/dcmitype/StillImage" />
      </cc:Work>
    </rdf:RDF>
  </metadata>
  <defs
     id="defs2" />
  <path
     style="fill:#00ffff"
     d="M 24 64 L 24 68 L 24 72 L 28 72 L 32 72 L 32 68 L 32 64 L 28 64 L 24 64 z "
     id="rect290" />
  <path
     style="fill:#ffffff"
     d="M 16 56 L 16 60 L 16 64 L 16 68 L 16 72 L 20 72 L 24 72 L 24 68 L 24 64 L 28 64 L 32 64 L 32 60 L 32 56 L 28 56 L 24 56 L 20 56 L 16 56 z M 48 72 L 48 76 L 48 80 L 52 80 L 56 80 L 56 76 L 56 72 L 52 72 L 48 72 z M 48 80 L 44 80 L 40 80 L 40 84 L 40 88 L 44 88 L 48 88 L 48 84 L 48 80 z M 40 88 L 36 88 L 32 88 L 32 92 L 32 96 L 36 96 L 40 96 L 40 92 L 40 88 z "
     id="rect466" />
  <path
     style="fill:#808080"
     d="M 16 48 L 16 52 L 16 56 L 20 56 L 24 56 L 24 52 L 24 48 L 20 48 L 16 48 z M 16 56 L 12 56 L 8 56 L 8 60 L 8 64 L 12 64 L 16 64 L 16 60 L 16 56 z M 40 48 L 40 52 L 40 56 L 44 56 L 48 56 L 48 52 L 48 48 L 44 48 L 40 48 z M 48 56 L 48 60 L 48 64 L 52 64 L 56 64 L 56 60 L 56 56 L 52 56 L 48 56 z M 8 80 L 8 84 L 8 88 L 12 88 L 16 88 L 16 84 L 16 80 L 12 80 L 8 80 z M 16 88 L 16 92 L 16 96 L 20 96 L 24 96 L 24 92 L 24 88 L 20 88 L 16 88 z M 48 80 L 48 84 L 48 88 L 52 88 L 56 88 L 56 84 L 56 80 L 52 80 L 48 80 z M 48 88 L 44 88 L 40 88 L 40 92 L 40 96 L 44 96 L 48 96 L 48 92 L 48 88 z "
     id="rect470" />
  <path
     style="fill:#800000"
     d="M 96 0 L 96 4 L 96 8 L 96 12 L 96 16 L 92 16 L 88 16 L 84 16 L 80 16 L 80 20 L 80 24 L 84 24 L 88 24 L 92 24 L 96 24 L 96 28 L 96 32 L 96 36 L 96 40 L 100 40 L 104 40 L 104 36 L 104 32 L 108 32 L 112 32 L 112 28 L 112 24 L 116 24 L 120 24 L 120 20 L 120 16 L 116 16 L 112 16 L 112 12 L 112 8 L 108 8 L 104 8 L 104 4 L 104 0 L 100 0 L 96 0 z M 80 24 L 76 24 L 72 24 L 72 28 L 72 32 L 72 36 L 72 40 L 72 44 L 72 48 L 76 48 L 80 48 L 80 44 L 80 40 L 80 36 L 80 32 L 80 28 L 80 24 z M 120 48 L 120 52 L 120 56 L 120 60 L 120 64 L 120 68 L 120 72 L 124 72 L 128 72 L 128 68 L 128 64 L 128 60 L 128 56 L 128 52 L 128 48 L 124 48 L 120 48 z M 120 72 L 116 72 L 112 72 L 108 72 L 104 72 L 104 68 L 104 64 L 104 60 L 104 56 L 100 56 L 96 56 L 96 60 L 96 64 L 92 64 L 88 64 L 88 68 L 88 72 L 84 72 L 80 72 L 80 76 L 80 80 L 84 80 L 88 80 L 88 84 L 88 88 L 92 88 L 96 88 L 96 92 L 96 96 L 100 96 L 104 96 L 104 92 L 104 88 L 104 84 L 104 80 L 108 80 L 112 80 L 116 80 L 120 80 L 120 76 L 120 72 z "
     id="rect482" />
  <path
     style="fill:#000000"
     d="M 16 40 L 16 44 L 16 48 L 20 48 L 24 48 L 28 48 L 32 48 L 36 48 L 40 48 L 44 48 L 48 48 L 48 44 L 48 40 L 44 40 L 40 40 L 36 40 L 32 40 L 28 40 L 24 40 L 20 40 L 16 40 z M 48 48 L 48 52 L 48 56 L 52 56 L 56 56 L 56 52 L 56 48 L 52 48 L 48 48 z M 56 56 L 56 60 L 56 64 L 56 68 L 56 72 L 56 76 L 56 80 L 56 84 L 56 88 L 60 88 L 64 88 L 64 84 L 64 80 L 64 76 L 64 72 L 64 68 L 64 64 L 64 60 L 64 56 L 60 56 L 56 56 z M 56 88 L 52 88 L 48 88 L 48 92 L 48 96 L 52 96 L 56 96 L 56 92 L 56 88 z M 48 96 L 44 96 L 40 96 L 36 96 L 32 96 L 28 96 L 24 96 L 20 96 L 16 96 L 16 100 L 16 104 L 20 104 L 24 104 L 28 104 L 32 104 L 36 104 L 40 104 L 44 104 L 48 104 L 48 100 L 48 96 z M 16 96 L 16 92 L 16 88 L 12 88 L 8 88 L 8 92 L 8 96 L 12 96 L 16 96 z M 8 88 L 8 84 L 8 80 L 8 76 L 8 72 L 8 68 L 8 64 L 8 60 L 8 56 L 4 56 L 0 56 L 0 60 L 0 64 L 0 68 L 0 72 L 0 76 L 0 80 L 0 84 L 0 88 L 4 88 L 8 88 z M 8 56 L 12 56 L 16 56 L 16 52 L 16 48 L 12 48 L 8 48 L 8 52 L 8 56 z "
     id="rect526" />
  <path
     style="fill:#000080"
     d="M 56 88 L 56 92 L 56 96 L 52 96 L 48 96 L 48 100 L 48 104 L 52 104 L 56 104 L 56 108 L 56 112 L 60 112 L 64 112 L 64 116 L 64 120 L 68 120 L 72 120 L 76 120 L 80 120 L 80 116 L 80 112 L 80 108 L 80 104 L 76 104 L 72 104 L 72 100 L 72 96 L 68 96 L 64 96 L 64 92 L 64 88 L 60 88 L 56 88 z "
     id="rect578" />
</svg>
