<?xml version="1.0" encoding="UTF-8" standalone="no"?>
<svg
   xmlns:dc="http://purl.org/dc/elements/1.1/"
   xmlns:cc="http://creativecommons.org/ns#"
   xmlns:rdf="http://www.w3.org/1999/02/22-rdf-syntax-ns#"
   xmlns:svg="http://www.w3.org/2000/svg"
   xmlns="http://www.w3.org/2000/svg"
   xmlns:sodipodi="http://sodipodi.sourceforge.net/DTD/sodipodi-0.dtd"
   xmlns:inkscape="http://www.inkscape.org/namespaces/inkscape"
   id="svg1180"
   width="128px"
   version="1.1"
   height="128px"
   sodipodi:docname="chicago95_tmp_file.svg"
   inkscape:version="0.92.4 (5da689c313, 2019-01-14)">
  <sodipodi:namedview
     pagecolor="#ffffff"
     bordercolor="#666666"
     borderopacity="1"
     objecttolerance="10"
     gridtolerance="10"
     guidetolerance="10"
     inkscape:pageopacity="0"
     inkscape:pageshadow="2"
     inkscape:window-width="640"
     inkscape:window-height="480"
     id="namedview593"
     showgrid="false"
     inkscape:zoom="1.84375"
     inkscape:cx="64"
     inkscape:cy="64"
     inkscape:window-x="0"
     inkscape:window-y="0"
     inkscape:window-maximized="0"
     inkscape:current-layer="svg1180" />
  <metadata
     id="metadata1184">
    <rdf:RDF>
      <cc:Work
         rdf:about="">
        <dc:format>image/svg+xml</dc:format>
        <dc:type
           rdf:resource="http://purl.org/dc/dcmitype/StillImage" />
      </cc:Work>
    </rdf:RDF>
  </metadata>
  <defs
     id="defs2" />
  <path
     style="fill:#000000"
     d="M 8 16 L 8 20 L 8 24 L 8 28 L 8 32 L 8 36 L 8 40 L 8 44 L 8 48 L 8 52 L 8 56 L 8 60 L 8 64 L 8 68 L 8 72 L 8 76 L 8 80 L 8 84 L 8 88 L 8 92 L 8 96 L 12 96 L 16 96 L 20 96 L 24 96 L 28 96 L 32 96 L 36 96 L 40 96 L 44 96 L 48 96 L 52 96 L 56 96 L 56 92 L 56 88 L 52 88 L 48 88 L 44 88 L 40 88 L 36 88 L 32 88 L 28 88 L 24 88 L 20 88 L 16 88 L 16 84 L 16 80 L 16 76 L 16 72 L 16 68 L 16 64 L 16 60 L 16 56 L 16 52 L 16 48 L 16 44 L 16 40 L 16 36 L 16 32 L 16 28 L 16 24 L 20 24 L 24 24 L 28 24 L 32 24 L 36 24 L 40 24 L 44 24 L 48 24 L 48 28 L 48 32 L 48 36 L 48 40 L 48 44 L 48 48 L 52 48 L 56 48 L 56 44 L 56 40 L 56 36 L 56 32 L 60 32 L 64 32 L 64 28 L 64 24 L 60 24 L 56 24 L 56 20 L 56 16 L 52 16 L 48 16 L 44 16 L 40 16 L 36 16 L 32 16 L 28 16 L 24 16 L 20 16 L 16 16 L 12 16 L 8 16 z M 64 32 L 64 36 L 64 40 L 68 40 L 72 40 L 72 36 L 72 32 L 68 32 L 64 32 z M 24 40 L 24 44 L 24 48 L 28 48 L 32 48 L 36 48 L 40 48 L 40 44 L 40 40 L 36 40 L 32 40 L 28 40 L 24 40 z M 24 56 L 24 60 L 24 64 L 28 64 L 32 64 L 36 64 L 40 64 L 44 64 L 48 64 L 52 64 L 56 64 L 56 60 L 56 56 L 52 56 L 48 56 L 44 56 L 40 56 L 36 56 L 32 56 L 28 56 L 24 56 z M 72 64 L 72 68 L 72 72 L 76 72 L 80 72 L 84 72 L 88 72 L 88 68 L 88 64 L 84 64 L 80 64 L 76 64 L 72 64 z M 24 72 L 24 76 L 24 80 L 28 80 L 32 80 L 36 80 L 40 80 L 44 80 L 48 80 L 52 80 L 56 80 L 56 76 L 56 72 L 52 72 L 48 72 L 44 72 L 40 72 L 36 72 L 32 72 L 28 72 L 24 72 z M 72 80 L 72 84 L 72 88 L 76 88 L 80 88 L 84 88 L 88 88 L 92 88 L 96 88 L 100 88 L 104 88 L 108 88 L 112 88 L 112 84 L 112 80 L 108 80 L 104 80 L 100 80 L 96 80 L 92 80 L 88 80 L 84 80 L 80 80 L 76 80 L 72 80 z M 72 96 L 72 100 L 72 104 L 76 104 L 80 104 L 84 104 L 88 104 L 92 104 L 96 104 L 100 104 L 104 104 L 108 104 L 112 104 L 112 100 L 112 96 L 108 96 L 104 96 L 100 96 L 96 96 L 92 96 L 88 96 L 84 96 L 80 96 L 76 96 L 72 96 z "
     id="rect1026" />
  <path
     style="fill:#ffffff"
     d="M 16 24 L 16 28 L 16 32 L 16 36 L 16 40 L 16 44 L 16 48 L 16 52 L 16 56 L 16 60 L 16 64 L 16 68 L 16 72 L 16 76 L 16 80 L 16 84 L 16 88 L 20 88 L 24 88 L 28 88 L 32 88 L 36 88 L 40 88 L 44 88 L 48 88 L 52 88 L 56 88 L 56 84 L 56 80 L 52 80 L 48 80 L 44 80 L 40 80 L 36 80 L 32 80 L 28 80 L 24 80 L 24 76 L 24 72 L 28 72 L 32 72 L 36 72 L 40 72 L 44 72 L 48 72 L 52 72 L 56 72 L 56 68 L 56 64 L 52 64 L 48 64 L 44 64 L 40 64 L 36 64 L 32 64 L 28 64 L 24 64 L 24 60 L 24 56 L 28 56 L 32 56 L 36 56 L 40 56 L 44 56 L 48 56 L 52 56 L 56 56 L 56 52 L 56 48 L 52 48 L 48 48 L 48 44 L 48 40 L 48 36 L 48 32 L 48 28 L 48 24 L 44 24 L 40 24 L 36 24 L 32 24 L 28 24 L 24 24 L 20 24 L 16 24 z M 56 32 L 56 36 L 56 40 L 60 40 L 64 40 L 64 36 L 64 32 L 60 32 L 56 32 z M 24 40 L 28 40 L 32 40 L 36 40 L 40 40 L 40 44 L 40 48 L 36 48 L 32 48 L 28 48 L 24 48 L 24 44 L 24 40 z M 64 48 L 64 52 L 64 56 L 64 60 L 64 64 L 64 68 L 64 72 L 64 76 L 64 80 L 64 84 L 64 88 L 64 92 L 64 96 L 64 100 L 64 104 L 64 108 L 64 112 L 68 112 L 72 112 L 76 112 L 80 112 L 84 112 L 88 112 L 92 112 L 96 112 L 100 112 L 104 112 L 108 112 L 112 112 L 116 112 L 120 112 L 120 108 L 120 104 L 120 100 L 120 96 L 120 92 L 120 88 L 120 84 L 120 80 L 120 76 L 120 72 L 116 72 L 112 72 L 108 72 L 104 72 L 100 72 L 96 72 L 96 68 L 96 64 L 96 60 L 96 56 L 96 52 L 96 48 L 92 48 L 88 48 L 84 48 L 80 48 L 76 48 L 72 48 L 68 48 L 64 48 z M 104 56 L 104 60 L 104 64 L 108 64 L 112 64 L 112 60 L 112 56 L 108 56 L 104 56 z M 72 64 L 76 64 L 80 64 L 84 64 L 88 64 L 88 68 L 88 72 L 84 72 L 80 72 L 76 72 L 72 72 L 72 68 L 72 64 z M 72 80 L 76 80 L 80 80 L 84 80 L 88 80 L 92 80 L 96 80 L 100 80 L 104 80 L 108 80 L 112 80 L 112 84 L 112 88 L 108 88 L 104 88 L 100 88 L 96 88 L 92 88 L 88 88 L 84 88 L 80 88 L 76 88 L 72 88 L 72 84 L 72 80 z M 72 96 L 76 96 L 80 96 L 84 96 L 88 96 L 92 96 L 96 96 L 100 96 L 104 96 L 108 96 L 112 96 L 112 100 L 112 104 L 108 104 L 104 104 L 100 104 L 96 104 L 92 104 L 88 104 L 84 104 L 80 104 L 76 104 L 72 104 L 72 100 L 72 96 z "
     id="rect1102" />
  <path
     style="fill:#00007f"
     d="M 56 40 L 56 44 L 56 48 L 56 52 L 56 56 L 56 60 L 56 64 L 56 68 L 56 72 L 56 76 L 56 80 L 56 84 L 56 88 L 56 92 L 56 96 L 56 100 L 56 104 L 56 108 L 56 112 L 56 116 L 56 120 L 60 120 L 64 120 L 68 120 L 72 120 L 76 120 L 80 120 L 84 120 L 88 120 L 92 120 L 96 120 L 100 120 L 104 120 L 108 120 L 112 120 L 116 120 L 120 120 L 124 120 L 128 120 L 128 116 L 128 112 L 128 108 L 128 104 L 128 100 L 128 96 L 128 92 L 128 88 L 128 84 L 128 80 L 128 76 L 128 72 L 128 68 L 128 64 L 124 64 L 120 64 L 120 60 L 120 56 L 116 56 L 112 56 L 112 60 L 112 64 L 108 64 L 104 64 L 104 60 L 104 56 L 108 56 L 112 56 L 112 52 L 112 48 L 108 48 L 104 48 L 104 44 L 104 40 L 100 40 L 96 40 L 92 40 L 88 40 L 84 40 L 80 40 L 76 40 L 72 40 L 68 40 L 64 40 L 60 40 L 56 40 z M 64 48 L 68 48 L 72 48 L 76 48 L 80 48 L 84 48 L 88 48 L 92 48 L 96 48 L 96 52 L 96 56 L 96 60 L 96 64 L 96 68 L 96 72 L 100 72 L 104 72 L 108 72 L 112 72 L 116 72 L 120 72 L 120 76 L 120 80 L 120 84 L 120 88 L 120 92 L 120 96 L 120 100 L 120 104 L 120 108 L 120 112 L 116 112 L 112 112 L 108 112 L 104 112 L 100 112 L 96 112 L 92 112 L 88 112 L 84 112 L 80 112 L 76 112 L 72 112 L 68 112 L 64 112 L 64 108 L 64 104 L 64 100 L 64 96 L 64 92 L 64 88 L 64 84 L 64 80 L 64 76 L 64 72 L 64 68 L 64 64 L 64 60 L 64 56 L 64 52 L 64 48 z "
     id="rect1178" />
</svg>
