<?xml version="1.0" encoding="UTF-8" standalone="no"?>
<svg
   xmlns:dc="http://purl.org/dc/elements/1.1/"
   xmlns:cc="http://creativecommons.org/ns#"
   xmlns:rdf="http://www.w3.org/1999/02/22-rdf-syntax-ns#"
   xmlns:svg="http://www.w3.org/2000/svg"
   xmlns="http://www.w3.org/2000/svg"
   xmlns:sodipodi="http://sodipodi.sourceforge.net/DTD/sodipodi-0.dtd"
   xmlns:inkscape="http://www.inkscape.org/namespaces/inkscape"
   id="svg216"
   width="640px"
   version="1.1"
   height="640px"
   sodipodi:docname="chicago95_tmp_file.svg"
   inkscape:version="0.92.5 (2060ec1f9f, 2020-04-08)">
  <sodipodi:namedview
     pagecolor="#ffffff"
     bordercolor="#666666"
     borderopacity="1"
     objecttolerance="10"
     gridtolerance="10"
     guidetolerance="10"
     inkscape:pageopacity="0"
     inkscape:pageshadow="2"
     inkscape:window-width="640"
     inkscape:window-height="480"
     id="namedview111"
     showgrid="false"
     inkscape:zoom="0.36875"
     inkscape:cx="320"
     inkscape:cy="320"
     inkscape:window-x="0"
     inkscape:window-y="0"
     inkscape:window-maximized="0"
     inkscape:current-layer="svg216" />
  <metadata
     id="metadata220">
    <rdf:RDF>
      <cc:Work
         rdf:about="">
        <dc:format>image/svg+xml</dc:format>
        <dc:type
           rdf:resource="http://purl.org/dc/dcmitype/StillImage" />
      </cc:Work>
    </rdf:RDF>
  </metadata>
  <defs
     id="defs2" />
  <path
     style="fill:#000000"
     d="M 240 140 L 240 161 L 260 161 L 261 161 L 280 161 L 281 161 L 300 161 L 300 180 L 300 181 L 300 200 L 300 201 L 300 220 L 300 221 L 300 240 L 300 241 L 300 260 L 300 261 L 300 280 L 300 281 L 300 300 L 281 300 L 280 300 L 260 300 L 260 321 L 280 321 L 281 321 L 300 321 L 300 340 L 300 341 L 300 360 L 300 361 L 300 380 L 300 381 L 300 400 L 300 401 L 300 420 L 300 421 L 300 440 L 300 441 L 300 460 L 300 461 L 300 480 L 281 480 L 280 480 L 261 480 L 260 480 L 240 480 L 240 501 L 260 501 L 261 501 L 280 501 L 281 501 L 301 501 L 301 481 L 320 481 L 320 501 L 340 501 L 341 501 L 360 501 L 361 501 L 381 501 L 381 480 L 361 480 L 360 480 L 341 480 L 340 480 L 321 480 L 321 461 L 321 460 L 321 441 L 321 440 L 321 421 L 321 420 L 321 401 L 321 400 L 321 381 L 321 380 L 321 361 L 321 360 L 321 341 L 321 340 L 321 321 L 340 321 L 341 321 L 361 321 L 361 300 L 341 300 L 340 300 L 321 300 L 321 281 L 321 280 L 321 261 L 321 260 L 321 241 L 321 240 L 321 221 L 321 220 L 321 201 L 321 200 L 321 181 L 321 180 L 321 161 L 340 161 L 341 161 L 360 161 L 361 161 L 381 161 L 381 140 L 361 140 L 360 140 L 341 140 L 340 140 L 320 140 L 320 160 L 301 160 L 301 140 L 281 140 L 280 140 L 261 140 L 260 140 L 240 140 z "
     id="rect196" />
  <path
     style="fill:#ffffff"
     d="M 220 120 L 220 140 L 220 141 L 220 160 L 220 161 L 220 181 L 240 181 L 241 181 L 260 181 L 261 181 L 280 181 L 280 200 L 280 201 L 280 220 L 280 221 L 280 240 L 280 241 L 280 260 L 280 261 L 280 280 L 261 280 L 260 280 L 240 280 L 240 300 L 240 301 L 240 320 L 240 321 L 240 341 L 260 341 L 261 341 L 280 341 L 280 360 L 280 361 L 280 380 L 280 381 L 280 400 L 280 401 L 280 420 L 280 421 L 280 440 L 280 441 L 280 460 L 261 460 L 260 460 L 241 460 L 240 460 L 220 460 L 220 480 L 220 481 L 220 500 L 220 501 L 220 521 L 240 521 L 241 521 L 260 521 L 261 521 L 280 521 L 281 521 L 301 521 L 301 501 L 320 501 L 320 521 L 340 521 L 341 521 L 360 521 L 361 521 L 380 521 L 381 521 L 401 521 L 401 501 L 401 500 L 401 481 L 401 480 L 401 460 L 381 460 L 380 460 L 361 460 L 360 460 L 341 460 L 341 441 L 341 440 L 341 421 L 341 420 L 341 401 L 341 400 L 341 381 L 341 380 L 341 361 L 341 360 L 341 341 L 360 341 L 361 341 L 381 341 L 381 321 L 381 320 L 381 301 L 381 300 L 381 280 L 361 280 L 360 280 L 341 280 L 341 261 L 341 260 L 341 241 L 341 240 L 341 221 L 341 220 L 341 201 L 341 200 L 341 181 L 360 181 L 361 181 L 380 181 L 381 181 L 401 181 L 401 161 L 401 160 L 401 141 L 401 140 L 401 120 L 381 120 L 380 120 L 361 120 L 360 120 L 341 120 L 340 120 L 320 120 L 320 140 L 301 140 L 301 120 L 281 120 L 280 120 L 261 120 L 260 120 L 241 120 L 240 120 L 220 120 z M 241 141 L 260 141 L 261 141 L 280 141 L 281 141 L 300 141 L 300 160 L 281 160 L 280 160 L 261 160 L 260 160 L 241 160 L 241 141 z M 321 141 L 340 141 L 341 141 L 360 141 L 361 141 L 380 141 L 380 160 L 361 160 L 360 160 L 341 160 L 340 160 L 321 160 L 321 141 z M 301 161 L 320 161 L 320 180 L 320 181 L 320 200 L 320 201 L 320 220 L 320 221 L 320 240 L 320 241 L 320 260 L 320 261 L 320 280 L 320 281 L 320 301 L 340 301 L 341 301 L 360 301 L 360 320 L 341 320 L 340 320 L 320 320 L 320 340 L 320 341 L 320 360 L 320 361 L 320 380 L 320 381 L 320 400 L 320 401 L 320 420 L 320 421 L 320 440 L 320 441 L 320 460 L 320 461 L 320 480 L 301 480 L 301 461 L 301 460 L 301 441 L 301 440 L 301 421 L 301 420 L 301 401 L 301 400 L 301 381 L 301 380 L 301 361 L 301 360 L 301 341 L 301 340 L 301 320 L 281 320 L 280 320 L 261 320 L 261 301 L 280 301 L 281 301 L 301 301 L 301 281 L 301 280 L 301 261 L 301 260 L 301 241 L 301 240 L 301 221 L 301 220 L 301 201 L 301 200 L 301 181 L 301 180 L 301 161 z M 241 481 L 260 481 L 261 481 L 280 481 L 281 481 L 300 481 L 300 500 L 281 500 L 280 500 L 261 500 L 260 500 L 241 500 L 241 481 z M 321 481 L 340 481 L 341 481 L 360 481 L 361 481 L 380 481 L 380 500 L 361 500 L 360 500 L 341 500 L 340 500 L 321 500 L 321 481 z "
     id="rect214" />
</svg>
