<?xml version="1.0" encoding="UTF-8" standalone="no"?>
<svg
   xmlns:dc="http://purl.org/dc/elements/1.1/"
   xmlns:cc="http://creativecommons.org/ns#"
   xmlns:rdf="http://www.w3.org/1999/02/22-rdf-syntax-ns#"
   xmlns:svg="http://www.w3.org/2000/svg"
   xmlns="http://www.w3.org/2000/svg"
   xmlns:sodipodi="http://sodipodi.sourceforge.net/DTD/sodipodi-0.dtd"
   xmlns:inkscape="http://www.inkscape.org/namespaces/inkscape"
   id="svg892"
   width="128px"
   version="1.1"
   height="128px"
   sodipodi:docname="chicago95_tmp_file.svg"
   inkscape:version="0.92.4 (5da689c313, 2019-01-14)">
  <sodipodi:namedview
     pagecolor="#ffffff"
     bordercolor="#666666"
     borderopacity="1"
     objecttolerance="10"
     gridtolerance="10"
     guidetolerance="10"
     inkscape:pageopacity="0"
     inkscape:pageshadow="2"
     inkscape:window-width="640"
     inkscape:window-height="480"
     id="namedview449"
     showgrid="false"
     inkscape:zoom="1.84375"
     inkscape:cx="64"
     inkscape:cy="64"
     inkscape:window-x="0"
     inkscape:window-y="0"
     inkscape:window-maximized="0"
     inkscape:current-layer="svg892" />
  <metadata
     id="metadata896">
    <rdf:RDF>
      <cc:Work
         rdf:about="">
        <dc:format>image/svg+xml</dc:format>
        <dc:type
           rdf:resource="http://purl.org/dc/dcmitype/StillImage" />
      </cc:Work>
    </rdf:RDF>
  </metadata>
  <defs
     id="defs2" />
  <path
     style="fill:#ffffff"
     d="M 24 48 L 24 52 L 24 56 L 28 56 L 32 56 L 32 52 L 32 48 L 28 48 L 24 48 z M 40 48 L 40 52 L 40 56 L 44 56 L 48 56 L 48 52 L 48 48 L 44 48 L 40 48 z M 8 64 L 8 68 L 8 72 L 12 72 L 16 72 L 16 68 L 16 64 L 12 64 L 8 64 z M 16 72 L 16 76 L 16 80 L 20 80 L 24 80 L 24 76 L 24 72 L 20 72 L 16 72 z M 24 72 L 28 72 L 32 72 L 32 68 L 32 64 L 28 64 L 24 64 L 24 68 L 24 72 z M 32 72 L 32 76 L 32 80 L 36 80 L 40 80 L 40 76 L 40 72 L 36 72 L 32 72 z M 40 72 L 44 72 L 48 72 L 48 68 L 48 64 L 44 64 L 40 64 L 40 68 L 40 72 z M 48 72 L 48 76 L 48 80 L 52 80 L 56 80 L 56 76 L 56 72 L 52 72 L 48 72 z M 56 72 L 60 72 L 64 72 L 64 68 L 64 64 L 60 64 L 56 64 L 56 68 L 56 72 z M 64 72 L 64 76 L 64 80 L 68 80 L 72 80 L 72 76 L 72 72 L 68 72 L 64 72 z M 72 72 L 76 72 L 80 72 L 80 68 L 80 64 L 76 64 L 72 64 L 72 68 L 72 72 z M 72 80 L 72 84 L 72 88 L 76 88 L 80 88 L 80 84 L 80 80 L 76 80 L 72 80 z M 72 88 L 68 88 L 64 88 L 64 92 L 64 96 L 68 96 L 72 96 L 72 92 L 72 88 z M 72 96 L 72 100 L 72 104 L 76 104 L 80 104 L 80 100 L 80 96 L 76 96 L 72 96 z M 72 104 L 68 104 L 64 104 L 64 108 L 64 112 L 68 112 L 72 112 L 72 108 L 72 104 z M 64 104 L 64 100 L 64 96 L 60 96 L 56 96 L 56 100 L 56 104 L 60 104 L 64 104 z M 56 104 L 52 104 L 48 104 L 48 108 L 48 112 L 52 112 L 56 112 L 56 108 L 56 104 z M 48 104 L 48 100 L 48 96 L 44 96 L 40 96 L 40 100 L 40 104 L 44 104 L 48 104 z M 40 104 L 36 104 L 32 104 L 32 108 L 32 112 L 36 112 L 40 112 L 40 108 L 40 104 z M 32 104 L 32 100 L 32 96 L 28 96 L 24 96 L 24 100 L 24 104 L 28 104 L 32 104 z M 24 104 L 20 104 L 16 104 L 16 108 L 16 112 L 20 112 L 24 112 L 24 108 L 24 104 z M 16 104 L 16 100 L 16 96 L 12 96 L 8 96 L 8 100 L 8 104 L 12 104 L 16 104 z M 16 96 L 20 96 L 24 96 L 24 92 L 24 88 L 20 88 L 16 88 L 16 92 L 16 96 z M 16 88 L 16 84 L 16 80 L 12 80 L 8 80 L 8 84 L 8 88 L 12 88 L 16 88 z M 24 88 L 28 88 L 32 88 L 32 84 L 32 80 L 28 80 L 24 80 L 24 84 L 24 88 z M 32 88 L 32 92 L 32 96 L 36 96 L 40 96 L 40 92 L 40 88 L 36 88 L 32 88 z M 40 88 L 44 88 L 48 88 L 48 84 L 48 80 L 44 80 L 40 80 L 40 84 L 40 88 z M 48 88 L 48 92 L 48 96 L 52 96 L 56 96 L 56 92 L 56 88 L 52 88 L 48 88 z M 56 88 L 60 88 L 64 88 L 64 84 L 64 80 L 60 80 L 56 80 L 56 84 L 56 88 z "
     id="rect794" />
  <path
     style="fill:#ffff00"
     d="M 16 48 L 16 52 L 16 56 L 20 56 L 24 56 L 24 52 L 24 48 L 20 48 L 16 48 z M 32 48 L 32 52 L 32 56 L 36 56 L 40 56 L 40 52 L 40 48 L 36 48 L 32 48 z M 16 64 L 16 68 L 16 72 L 20 72 L 24 72 L 24 68 L 24 64 L 20 64 L 16 64 z M 24 72 L 24 76 L 24 80 L 28 80 L 32 80 L 32 76 L 32 72 L 28 72 L 24 72 z M 32 72 L 36 72 L 40 72 L 40 68 L 40 64 L 36 64 L 32 64 L 32 68 L 32 72 z M 40 72 L 40 76 L 40 80 L 44 80 L 48 80 L 48 76 L 48 72 L 44 72 L 40 72 z M 48 72 L 52 72 L 56 72 L 56 68 L 56 64 L 52 64 L 48 64 L 48 68 L 48 72 z M 56 72 L 56 76 L 56 80 L 60 80 L 64 80 L 64 76 L 64 72 L 60 72 L 56 72 z M 64 72 L 68 72 L 72 72 L 72 68 L 72 64 L 68 64 L 64 64 L 64 68 L 64 72 z M 72 72 L 72 76 L 72 80 L 76 80 L 80 80 L 80 76 L 80 72 L 76 72 L 72 72 z M 72 80 L 68 80 L 64 80 L 64 84 L 64 88 L 68 88 L 72 88 L 72 84 L 72 80 z M 72 88 L 72 92 L 72 96 L 76 96 L 80 96 L 80 92 L 80 88 L 76 88 L 72 88 z M 72 96 L 68 96 L 64 96 L 64 100 L 64 104 L 68 104 L 72 104 L 72 100 L 72 96 z M 72 104 L 72 108 L 72 112 L 76 112 L 80 112 L 80 108 L 80 104 L 76 104 L 72 104 z M 64 104 L 60 104 L 56 104 L 56 108 L 56 112 L 60 112 L 64 112 L 64 108 L 64 104 z M 56 104 L 56 100 L 56 96 L 52 96 L 48 96 L 48 100 L 48 104 L 52 104 L 56 104 z M 48 104 L 44 104 L 40 104 L 40 108 L 40 112 L 44 112 L 48 112 L 48 108 L 48 104 z M 40 104 L 40 100 L 40 96 L 36 96 L 32 96 L 32 100 L 32 104 L 36 104 L 40 104 z M 32 104 L 28 104 L 24 104 L 24 108 L 24 112 L 28 112 L 32 112 L 32 108 L 32 104 z M 24 104 L 24 100 L 24 96 L 20 96 L 16 96 L 16 100 L 16 104 L 20 104 L 24 104 z M 16 104 L 12 104 L 8 104 L 8 108 L 8 112 L 12 112 L 16 112 L 16 108 L 16 104 z M 16 96 L 16 92 L 16 88 L 12 88 L 8 88 L 8 92 L 8 96 L 12 96 L 16 96 z M 16 88 L 20 88 L 24 88 L 24 84 L 24 80 L 20 80 L 16 80 L 16 84 L 16 88 z M 16 80 L 16 76 L 16 72 L 12 72 L 8 72 L 8 76 L 8 80 L 12 80 L 16 80 z M 24 88 L 24 92 L 24 96 L 28 96 L 32 96 L 32 92 L 32 88 L 28 88 L 24 88 z M 32 88 L 36 88 L 40 88 L 40 84 L 40 80 L 36 80 L 32 80 L 32 84 L 32 88 z M 40 88 L 40 92 L 40 96 L 44 96 L 48 96 L 48 92 L 48 88 L 44 88 L 40 88 z M 48 88 L 52 88 L 56 88 L 56 84 L 56 80 L 52 80 L 48 80 L 48 84 L 48 88 z M 56 88 L 56 92 L 56 96 L 60 96 L 64 96 L 64 92 L 64 88 L 60 88 L 56 88 z "
     id="rect798" />
  <path
     style="fill:#000000"
     d="M 80 8 L 80 12 L 80 16 L 84 16 L 88 16 L 88 12 L 88 8 L 84 8 L 80 8 z M 80 24 L 80 28 L 80 32 L 84 32 L 88 32 L 88 28 L 88 24 L 84 24 L 80 24 z M 56 32 L 56 36 L 56 40 L 60 40 L 64 40 L 64 36 L 64 32 L 60 32 L 56 32 z M 64 40 L 64 44 L 64 48 L 68 48 L 72 48 L 72 44 L 72 40 L 68 40 L 64 40 z M 72 48 L 72 52 L 72 56 L 68 56 L 64 56 L 60 56 L 56 56 L 56 52 L 56 48 L 52 48 L 48 48 L 48 52 L 48 56 L 44 56 L 40 56 L 36 56 L 32 56 L 28 56 L 24 56 L 20 56 L 16 56 L 16 52 L 16 48 L 12 48 L 8 48 L 8 52 L 8 56 L 4 56 L 0 56 L 0 60 L 0 64 L 0 68 L 0 72 L 0 76 L 0 80 L 0 84 L 0 88 L 0 92 L 0 96 L 0 100 L 0 104 L 0 108 L 0 112 L 0 116 L 0 120 L 4 120 L 8 120 L 12 120 L 16 120 L 20 120 L 24 120 L 28 120 L 32 120 L 36 120 L 40 120 L 44 120 L 48 120 L 52 120 L 56 120 L 60 120 L 64 120 L 68 120 L 72 120 L 76 120 L 80 120 L 84 120 L 88 120 L 88 116 L 88 112 L 88 108 L 88 104 L 88 100 L 88 96 L 88 92 L 88 88 L 88 84 L 88 80 L 88 76 L 88 72 L 92 72 L 96 72 L 96 68 L 96 64 L 92 64 L 88 64 L 84 64 L 80 64 L 80 68 L 80 72 L 80 76 L 80 80 L 80 84 L 80 88 L 80 92 L 80 96 L 80 100 L 80 104 L 80 108 L 80 112 L 76 112 L 72 112 L 68 112 L 64 112 L 60 112 L 56 112 L 52 112 L 48 112 L 44 112 L 40 112 L 36 112 L 32 112 L 28 112 L 24 112 L 20 112 L 16 112 L 12 112 L 8 112 L 8 108 L 8 104 L 8 100 L 8 96 L 8 92 L 8 88 L 8 84 L 8 80 L 8 76 L 8 72 L 8 68 L 8 64 L 12 64 L 16 64 L 20 64 L 24 64 L 28 64 L 32 64 L 36 64 L 40 64 L 44 64 L 48 64 L 52 64 L 56 64 L 60 64 L 64 64 L 68 64 L 72 64 L 76 64 L 80 64 L 80 60 L 80 56 L 80 52 L 80 48 L 76 48 L 72 48 z M 80 48 L 84 48 L 88 48 L 88 44 L 88 40 L 84 40 L 80 40 L 80 44 L 80 48 z M 88 48 L 88 52 L 88 56 L 92 56 L 96 56 L 96 52 L 96 48 L 92 48 L 88 48 z M 96 48 L 100 48 L 104 48 L 104 44 L 104 40 L 100 40 L 96 40 L 96 44 L 96 48 z M 104 40 L 108 40 L 112 40 L 112 36 L 112 32 L 108 32 L 104 32 L 104 36 L 104 40 z M 96 56 L 96 60 L 96 64 L 100 64 L 104 64 L 104 60 L 104 56 L 100 56 L 96 56 z M 96 72 L 96 76 L 96 80 L 100 80 L 104 80 L 104 76 L 104 72 L 100 72 L 96 72 z M 104 80 L 104 84 L 104 88 L 108 88 L 112 88 L 112 84 L 112 80 L 108 80 L 104 80 z M 16 48 L 20 48 L 24 48 L 28 48 L 32 48 L 36 48 L 40 48 L 44 48 L 48 48 L 48 44 L 48 40 L 44 40 L 40 40 L 36 40 L 32 40 L 28 40 L 24 40 L 20 40 L 16 40 L 16 44 L 16 48 z M 112 56 L 112 60 L 112 64 L 116 64 L 120 64 L 120 60 L 120 56 L 116 56 L 112 56 z "
     id="rect890" />
</svg>
