<?xml version="1.0" encoding="UTF-8" standalone="no"?>
<svg
   xmlns:dc="http://purl.org/dc/elements/1.1/"
   xmlns:cc="http://creativecommons.org/ns#"
   xmlns:rdf="http://www.w3.org/1999/02/22-rdf-syntax-ns#"
   xmlns:svg="http://www.w3.org/2000/svg"
   xmlns="http://www.w3.org/2000/svg"
   xmlns:sodipodi="http://sodipodi.sourceforge.net/DTD/sodipodi-0.dtd"
   xmlns:inkscape="http://www.inkscape.org/namespaces/inkscape"
   id="svg424"
   width="340px"
   version="1.1"
   height="280px"
   sodipodi:docname="chicago95_tmp_file.svg"
   inkscape:version="0.92.5 (2060ec1f9f, 2020-04-08)">
  <sodipodi:namedview
     pagecolor="#ffffff"
     bordercolor="#666666"
     borderopacity="1"
     objecttolerance="10"
     gridtolerance="10"
     guidetolerance="10"
     inkscape:pageopacity="0"
     inkscape:pageshadow="2"
     inkscape:window-width="452"
     inkscape:window-height="423"
     id="namedview215"
     showgrid="false"
     inkscape:zoom="0.77058824"
     inkscape:cx="172.59542"
     inkscape:cy="134.80916"
     inkscape:window-x="0"
     inkscape:window-y="0"
     inkscape:window-maximized="0"
     inkscape:current-layer="svg424" />
  <metadata
     id="metadata428">
    <rdf:RDF>
      <cc:Work
         rdf:about="">
        <dc:format>image/svg+xml</dc:format>
        <dc:type
           rdf:resource="http://purl.org/dc/dcmitype/StillImage" />
      </cc:Work>
    </rdf:RDF>
  </metadata>
  <defs
     id="defs2" />
  <path
     style="fill:#ffffff"
     d="M 60 20 L 60 40 L 40 40 L 40 60 L 20 60 L 20 80 L 20 81 L 20 100 L 20 101 L 20 121 L 40 121 L 40 140 L 40 141 L 40 161 L 60 161 L 60 180 L 60 181 L 60 200 L 60 201 L 60 220 L 40 220 L 40 241 L 60 241 L 60 261 L 80 261 L 81 261 L 100 261 L 101 261 L 120 261 L 121 261 L 140 261 L 141 261 L 160 261 L 161 261 L 180 261 L 181 261 L 200 261 L 201 261 L 220 261 L 221 261 L 240 261 L 241 261 L 260 261 L 261 261 L 281 261 L 281 241 L 301 241 L 301 221 L 321 221 L 321 201 L 321 200 L 321 181 L 321 180 L 321 160 L 301 160 L 301 141 L 301 140 L 301 120 L 281 120 L 281 101 L 281 100 L 281 80 L 261 80 L 260 80 L 241 80 L 241 60 L 221 60 L 220 60 L 201 60 L 200 60 L 180 60 L 180 80 L 180 81 L 180 100 L 180 101 L 180 121 L 200 121 L 200 140 L 200 141 L 200 160 L 180 160 L 180 180 L 180 181 L 180 200 L 180 201 L 180 221 L 200 221 L 200 240 L 181 240 L 180 240 L 161 240 L 160 240 L 141 240 L 140 240 L 121 240 L 121 221 L 141 221 L 141 201 L 141 200 L 141 180 L 121 180 L 121 161 L 141 161 L 141 141 L 141 140 L 141 120 L 121 120 L 121 101 L 141 101 L 141 81 L 141 80 L 141 60 L 121 60 L 120 60 L 100 60 L 100 80 L 81 80 L 80 80 L 61 80 L 61 61 L 61 60 L 61 41 L 80 41 L 81 41 L 100 41 L 101 41 L 120 41 L 121 41 L 140 41 L 141 41 L 160 41 L 161 41 L 180 41 L 181 41 L 200 41 L 201 41 L 220 41 L 221 41 L 240 41 L 241 41 L 260 41 L 261 41 L 280 41 L 280 61 L 301 61 L 301 40 L 281 40 L 281 20 L 261 20 L 260 20 L 241 20 L 240 20 L 221 20 L 220 20 L 201 20 L 200 20 L 181 20 L 180 20 L 161 20 L 160 20 L 141 20 L 140 20 L 121 20 L 120 20 L 101 20 L 100 20 L 81 20 L 80 20 L 60 20 z M 101 81 L 120 81 L 120 100 L 101 100 L 101 81 z M 221 81 L 240 81 L 240 100 L 221 100 L 221 81 z M 201 101 L 220 101 L 220 120 L 201 120 L 201 101 z M 201 161 L 220 161 L 220 180 L 201 180 L 201 161 z M 101 181 L 120 181 L 120 200 L 101 200 L 101 181 z M 221 181 L 240 181 L 240 200 L 221 200 L 221 181 z M 81 201 L 100 201 L 100 220 L 81 220 L 81 201 z M 241 201 L 260 201 L 260 220 L 241 220 L 241 201 z M 61 221 L 80 221 L 80 240 L 61 240 L 61 221 z M 261 221 L 280 221 L 280 240 L 261 240 L 261 221 z "
     id="rect388" />
  <path
     style="fill:#000000"
     d="M 20 0 L 20 20 L 20 21 L 20 40 L 20 41 L 20 60 L 0 60 L 0 80 L 0 81 L 0 100 L 0 101 L 0 121 L 20 121 L 20 140 L 20 141 L 20 161 L 40 161 L 40 180 L 40 181 L 40 200 L 40 201 L 40 220 L 20 220 L 20 240 L 20 241 L 20 260 L 20 261 L 20 281 L 40 281 L 41 281 L 60 281 L 61 281 L 80 281 L 81 281 L 100 281 L 101 281 L 120 281 L 121 281 L 140 281 L 141 281 L 160 281 L 161 281 L 180 281 L 181 281 L 200 281 L 201 281 L 220 281 L 221 281 L 240 281 L 241 281 L 260 281 L 261 281 L 280 281 L 281 281 L 300 281 L 301 281 L 321 281 L 321 261 L 321 260 L 321 241 L 321 240 L 321 221 L 341 221 L 341 201 L 341 200 L 341 181 L 341 180 L 341 160 L 321 160 L 321 141 L 321 140 L 321 120 L 301 120 L 301 101 L 301 100 L 301 81 L 301 80 L 301 61 L 321 61 L 321 41 L 321 40 L 321 21 L 321 20 L 321 0 L 301 0 L 300 0 L 281 0 L 280 0 L 261 0 L 260 0 L 241 0 L 240 0 L 221 0 L 220 0 L 201 0 L 200 0 L 181 0 L 180 0 L 161 0 L 160 0 L 141 0 L 140 0 L 121 0 L 120 0 L 101 0 L 100 0 L 81 0 L 80 0 L 61 0 L 60 0 L 41 0 L 40 0 L 20 0 z M 61 21 L 80 21 L 81 21 L 100 21 L 101 21 L 120 21 L 121 21 L 140 21 L 141 21 L 160 21 L 161 21 L 180 21 L 181 21 L 200 21 L 201 21 L 220 21 L 221 21 L 240 21 L 241 21 L 260 21 L 261 21 L 280 21 L 280 40 L 261 40 L 260 40 L 241 40 L 240 40 L 221 40 L 220 40 L 201 40 L 200 40 L 181 40 L 180 40 L 161 40 L 160 40 L 141 40 L 140 40 L 121 40 L 120 40 L 101 40 L 100 40 L 81 40 L 80 40 L 61 40 L 61 21 z M 41 41 L 60 41 L 60 60 L 60 61 L 60 81 L 80 81 L 81 81 L 100 81 L 100 101 L 120 101 L 120 121 L 140 121 L 140 140 L 140 141 L 140 160 L 120 160 L 120 180 L 100 180 L 100 200 L 80 200 L 80 220 L 61 220 L 61 201 L 61 200 L 61 181 L 61 180 L 61 160 L 41 160 L 41 141 L 41 140 L 41 120 L 21 120 L 21 101 L 21 100 L 21 81 L 21 80 L 21 61 L 41 61 L 41 41 z M 281 41 L 300 41 L 300 60 L 281 60 L 281 41 z M 101 61 L 120 61 L 121 61 L 140 61 L 140 80 L 140 81 L 140 100 L 121 100 L 121 80 L 101 80 L 101 61 z M 181 61 L 200 61 L 201 61 L 220 61 L 221 61 L 240 61 L 240 80 L 220 80 L 220 100 L 200 100 L 200 120 L 181 120 L 181 101 L 181 100 L 181 81 L 181 80 L 181 61 z M 241 81 L 260 81 L 261 81 L 280 81 L 280 100 L 280 101 L 280 121 L 300 121 L 300 140 L 300 141 L 300 161 L 320 161 L 320 180 L 320 181 L 320 200 L 320 201 L 320 220 L 300 220 L 300 240 L 281 240 L 281 220 L 261 220 L 261 200 L 241 200 L 241 180 L 221 180 L 221 160 L 201 160 L 201 141 L 201 140 L 201 121 L 221 121 L 221 101 L 241 101 L 241 81 z M 181 161 L 200 161 L 200 181 L 220 181 L 220 201 L 240 201 L 240 221 L 260 221 L 260 241 L 280 241 L 280 260 L 261 260 L 260 260 L 241 260 L 240 260 L 221 260 L 220 260 L 201 260 L 200 260 L 181 260 L 180 260 L 161 260 L 160 260 L 141 260 L 140 260 L 121 260 L 120 260 L 101 260 L 100 260 L 81 260 L 80 260 L 61 260 L 61 241 L 81 241 L 81 221 L 101 221 L 101 201 L 121 201 L 121 181 L 140 181 L 140 200 L 140 201 L 140 220 L 120 220 L 120 241 L 140 241 L 141 241 L 160 241 L 161 241 L 180 241 L 181 241 L 201 241 L 201 220 L 181 220 L 181 201 L 181 200 L 181 181 L 181 180 L 181 161 z M 41 221 L 60 221 L 60 240 L 41 240 L 41 221 z "
     id="rect422" />
</svg>
