<?xml version="1.0" encoding="UTF-8" standalone="no"?>
<svg
   xmlns:dc="http://purl.org/dc/elements/1.1/"
   xmlns:cc="http://creativecommons.org/ns#"
   xmlns:rdf="http://www.w3.org/1999/02/22-rdf-syntax-ns#"
   xmlns:svg="http://www.w3.org/2000/svg"
   xmlns="http://www.w3.org/2000/svg"
   xmlns:sodipodi="http://sodipodi.sourceforge.net/DTD/sodipodi-0.dtd"
   xmlns:inkscape="http://www.inkscape.org/namespaces/inkscape"
   id="svg104"
   width="320px"
   version="1.1"
   height="320px"
   sodipodi:docname="chicago95_tmp_file.svg"
   inkscape:version="0.92.5 (2060ec1f9f, 2020-04-08)">
  <sodipodi:namedview
     pagecolor="#ffffff"
     bordercolor="#666666"
     borderopacity="1"
     objecttolerance="10"
     gridtolerance="10"
     guidetolerance="10"
     inkscape:pageopacity="0"
     inkscape:pageshadow="2"
     inkscape:window-width="452"
     inkscape:window-height="423"
     id="namedview55"
     showgrid="false"
     inkscape:zoom="0.7375"
     inkscape:cx="160"
     inkscape:cy="160"
     inkscape:window-x="0"
     inkscape:window-y="0"
     inkscape:window-maximized="0"
     inkscape:current-layer="svg104" />
  <metadata
     id="metadata108">
    <rdf:RDF>
      <cc:Work
         rdf:about="">
        <dc:format>image/svg+xml</dc:format>
        <dc:type
           rdf:resource="http://purl.org/dc/dcmitype/StillImage" />
      </cc:Work>
    </rdf:RDF>
  </metadata>
  <defs
     id="defs2" />
  <path
     style="fill:#000000"
     d="M 100 60 L 100 80 L 80 80 L 80 100 L 80 101 L 80 120 L 80 121 L 80 140 L 61 140 L 60 140 L 41 140 L 40 140 L 20 140 L 20 161 L 40 161 L 41 161 L 60 161 L 61 161 L 80 161 L 80 180 L 80 181 L 80 200 L 80 201 L 80 221 L 100 221 L 100 241 L 120 241 L 121 241 L 140 241 L 141 241 L 160 241 L 161 241 L 180 241 L 181 241 L 200 241 L 201 241 L 221 241 L 221 221 L 241 221 L 241 201 L 241 200 L 241 181 L 241 180 L 241 161 L 260 161 L 261 161 L 280 161 L 281 161 L 301 161 L 301 140 L 281 140 L 280 140 L 261 140 L 260 140 L 241 140 L 241 121 L 241 120 L 241 101 L 241 100 L 241 80 L 221 80 L 221 60 L 201 60 L 200 60 L 181 60 L 180 60 L 161 60 L 160 60 L 141 60 L 140 60 L 121 60 L 120 60 L 100 60 z M 121 81 L 140 81 L 141 81 L 160 81 L 161 81 L 180 81 L 181 81 L 200 81 L 200 100 L 200 101 L 200 120 L 200 121 L 200 140 L 181 140 L 180 140 L 161 140 L 160 140 L 141 140 L 140 140 L 121 140 L 121 121 L 121 120 L 121 101 L 121 100 L 121 81 z M 121 161 L 140 161 L 141 161 L 160 161 L 161 161 L 180 161 L 181 161 L 200 161 L 200 180 L 200 181 L 200 200 L 200 201 L 200 220 L 181 220 L 180 220 L 161 220 L 160 220 L 141 220 L 140 220 L 121 220 L 121 201 L 121 200 L 121 181 L 121 180 L 121 161 z "
     id="rect102" />
</svg>
