<?xml version="1.0" encoding="UTF-8" standalone="no"?>
<svg
   xmlns:dc="http://purl.org/dc/elements/1.1/"
   xmlns:cc="http://creativecommons.org/ns#"
   xmlns:rdf="http://www.w3.org/1999/02/22-rdf-syntax-ns#"
   xmlns:svg="http://www.w3.org/2000/svg"
   xmlns="http://www.w3.org/2000/svg"
   xmlns:sodipodi="http://sodipodi.sourceforge.net/DTD/sodipodi-0.dtd"
   xmlns:inkscape="http://www.inkscape.org/namespaces/inkscape"
   id="svg60"
   width="320px"
   version="1.1"
   height="320px"
   sodipodi:docname="chicago95_tmp_file.svg"
   inkscape:version="0.92.5 (2060ec1f9f, 2020-04-08)">
  <sodipodi:namedview
     pagecolor="#ffffff"
     bordercolor="#666666"
     borderopacity="1"
     objecttolerance="10"
     gridtolerance="10"
     guidetolerance="10"
     inkscape:pageopacity="0"
     inkscape:pageshadow="2"
     inkscape:window-width="640"
     inkscape:window-height="480"
     id="namedview33"
     showgrid="false"
     inkscape:zoom="0.7375"
     inkscape:cx="160"
     inkscape:cy="160"
     inkscape:window-x="0"
     inkscape:window-y="0"
     inkscape:window-maximized="0"
     inkscape:current-layer="svg60" />
  <metadata
     id="metadata64">
    <rdf:RDF>
      <cc:Work
         rdf:about="">
        <dc:format>image/svg+xml</dc:format>
        <dc:type
           rdf:resource="http://purl.org/dc/dcmitype/StillImage" />
      </cc:Work>
    </rdf:RDF>
  </metadata>
  <defs
     id="defs2" />
  <path
     style="fill:#000000"
     d="M 60 40 L 60 61 L 80 61 L 81 61 L 100 61 L 101 61 L 120 61 L 121 61 L 140 61 L 141 61 L 160 61 L 161 61 L 180 61 L 181 61 L 201 61 L 201 40 L 181 40 L 180 40 L 161 40 L 160 40 L 141 40 L 140 40 L 121 40 L 120 40 L 101 40 L 100 40 L 81 40 L 80 40 L 60 40 z M 60 80 L 60 101 L 80 101 L 81 101 L 100 101 L 101 101 L 120 101 L 121 101 L 140 101 L 141 101 L 161 101 L 161 80 L 141 80 L 140 80 L 121 80 L 120 80 L 101 80 L 100 80 L 81 80 L 80 80 L 60 80 z M 60 120 L 60 141 L 80 141 L 81 141 L 100 141 L 101 141 L 121 141 L 121 120 L 101 120 L 100 120 L 81 120 L 80 120 L 60 120 z "
     id="rect32" />
  <path
     style="fill:#800000"
     d="M 140 160 L 140 180 L 120 180 L 120 200 L 100 200 L 100 221 L 120 221 L 120 241 L 140 241 L 140 261 L 161 261 L 161 241 L 161 240 L 161 221 L 180 221 L 181 221 L 200 221 L 201 221 L 220 221 L 221 221 L 241 221 L 241 200 L 221 200 L 220 200 L 201 200 L 200 200 L 181 200 L 180 200 L 161 200 L 161 181 L 161 180 L 161 160 L 140 160 z "
     id="rect58" />
</svg>
