<?xml version="1.0" encoding="UTF-8" standalone="no"?>
<svg
   xmlns:dc="http://purl.org/dc/elements/1.1/"
   xmlns:cc="http://creativecommons.org/ns#"
   xmlns:rdf="http://www.w3.org/1999/02/22-rdf-syntax-ns#"
   xmlns:svg="http://www.w3.org/2000/svg"
   xmlns="http://www.w3.org/2000/svg"
   xmlns:sodipodi="http://sodipodi.sourceforge.net/DTD/sodipodi-0.dtd"
   xmlns:inkscape="http://www.inkscape.org/namespaces/inkscape"
   id="svg228"
   width="128px"
   version="1.1"
   height="128px"
   sodipodi:docname="chicago95_tmp_file.svg"
   inkscape:version="0.92.4 (5da689c313, 2019-01-14)">
  <sodipodi:namedview
     pagecolor="#ffffff"
     bordercolor="#666666"
     borderopacity="1"
     objecttolerance="10"
     gridtolerance="10"
     guidetolerance="10"
     inkscape:pageopacity="0"
     inkscape:pageshadow="2"
     inkscape:window-width="640"
     inkscape:window-height="480"
     id="namedview117"
     showgrid="false"
     inkscape:zoom="1.84375"
     inkscape:cx="64"
     inkscape:cy="64"
     inkscape:window-x="0"
     inkscape:window-y="0"
     inkscape:window-maximized="0"
     inkscape:current-layer="svg228" />
  <metadata
     id="metadata232">
    <rdf:RDF>
      <cc:Work
         rdf:about="">
        <dc:format>image/svg+xml</dc:format>
        <dc:type
           rdf:resource="http://purl.org/dc/dcmitype/StillImage" />
      </cc:Work>
    </rdf:RDF>
  </metadata>
  <defs
     id="defs2" />
  <path
     style="fill:#000000"
     d="M 48 16 L 48 20 L 48 24 L 52 24 L 56 24 L 60 24 L 64 24 L 68 24 L 72 24 L 76 24 L 80 24 L 84 24 L 88 24 L 92 24 L 96 24 L 100 24 L 104 24 L 104 20 L 104 16 L 100 16 L 96 16 L 92 16 L 88 16 L 84 16 L 80 16 L 76 16 L 72 16 L 68 16 L 64 16 L 60 16 L 56 16 L 52 16 L 48 16 z M 64 32 L 64 36 L 64 40 L 68 40 L 72 40 L 76 40 L 80 40 L 84 40 L 88 40 L 92 40 L 96 40 L 100 40 L 104 40 L 104 36 L 104 32 L 100 32 L 96 32 L 92 32 L 88 32 L 84 32 L 80 32 L 76 32 L 72 32 L 68 32 L 64 32 z M 80 48 L 80 52 L 80 56 L 84 56 L 88 56 L 92 56 L 96 56 L 100 56 L 104 56 L 104 52 L 104 48 L 100 48 L 96 48 L 92 48 L 88 48 L 84 48 L 80 48 z "
     id="rect122" />
  <path
     style="fill:#800000"
     d="M 64 64 L 64 68 L 64 72 L 64 76 L 64 80 L 60 80 L 56 80 L 52 80 L 48 80 L 44 80 L 40 80 L 36 80 L 32 80 L 32 84 L 32 88 L 36 88 L 40 88 L 44 88 L 48 88 L 52 88 L 56 88 L 60 88 L 64 88 L 64 92 L 64 96 L 64 100 L 64 104 L 68 104 L 72 104 L 72 100 L 72 96 L 76 96 L 80 96 L 80 92 L 80 88 L 84 88 L 88 88 L 88 84 L 88 80 L 84 80 L 80 80 L 80 76 L 80 72 L 76 72 L 72 72 L 72 68 L 72 64 L 68 64 L 64 64 z "
     id="rect226" />
</svg>
