<?xml version="1.0" encoding="UTF-8" standalone="no"?>
<svg
   xmlns:dc="http://purl.org/dc/elements/1.1/"
   xmlns:cc="http://creativecommons.org/ns#"
   xmlns:rdf="http://www.w3.org/1999/02/22-rdf-syntax-ns#"
   xmlns:svg="http://www.w3.org/2000/svg"
   xmlns="http://www.w3.org/2000/svg"
   xmlns:sodipodi="http://sodipodi.sourceforge.net/DTD/sodipodi-0.dtd"
   xmlns:inkscape="http://www.inkscape.org/namespaces/inkscape"
   id="svg332"
   width="128px"
   version="1.1"
   height="128px"
   sodipodi:docname="chicago95_tmp_file.svg"
   inkscape:version="0.92.4 (5da689c313, 2019-01-14)">
  <sodipodi:namedview
     pagecolor="#ffffff"
     bordercolor="#666666"
     borderopacity="1"
     objecttolerance="10"
     gridtolerance="10"
     guidetolerance="10"
     inkscape:pageopacity="0"
     inkscape:pageshadow="2"
     inkscape:window-width="640"
     inkscape:window-height="480"
     id="namedview169"
     showgrid="false"
     inkscape:zoom="1.84375"
     inkscape:cx="64"
     inkscape:cy="64"
     inkscape:window-x="0"
     inkscape:window-y="0"
     inkscape:window-maximized="0"
     inkscape:current-layer="svg332" />
  <metadata
     id="metadata336">
    <rdf:RDF>
      <cc:Work
         rdf:about="">
        <dc:format>image/svg+xml</dc:format>
        <dc:type
           rdf:resource="http://purl.org/dc/dcmitype/StillImage" />
      </cc:Work>
    </rdf:RDF>
  </metadata>
  <defs
     id="defs2" />
  <path
     style="fill:#000080"
     d="M 24 8 L 24 12 L 24 16 L 28 16 L 32 16 L 36 16 L 40 16 L 44 16 L 48 16 L 48 20 L 48 24 L 44 24 L 40 24 L 36 24 L 32 24 L 28 24 L 24 24 L 24 28 L 24 32 L 20 32 L 16 32 L 16 36 L 16 40 L 16 44 L 16 48 L 20 48 L 24 48 L 24 52 L 24 56 L 28 56 L 32 56 L 36 56 L 40 56 L 44 56 L 48 56 L 52 56 L 56 56 L 60 56 L 64 56 L 64 52 L 64 48 L 64 44 L 64 40 L 64 36 L 64 32 L 64 28 L 64 24 L 64 20 L 64 16 L 60 16 L 56 16 L 56 12 L 56 8 L 52 8 L 48 8 L 44 8 L 40 8 L 36 8 L 32 8 L 28 8 L 24 8 z M 32 32 L 36 32 L 40 32 L 44 32 L 48 32 L 48 36 L 48 40 L 48 44 L 48 48 L 44 48 L 40 48 L 36 48 L 32 48 L 32 44 L 32 40 L 32 36 L 32 32 z "
     id="rect194" />
  <path
     style="fill:#800000"
     d="M 80 80 L 80 84 L 80 88 L 80 92 L 80 96 L 76 96 L 72 96 L 68 96 L 64 96 L 60 96 L 56 96 L 52 96 L 48 96 L 44 96 L 40 96 L 36 96 L 32 96 L 28 96 L 24 96 L 20 96 L 16 96 L 16 100 L 16 104 L 20 104 L 24 104 L 28 104 L 32 104 L 36 104 L 40 104 L 44 104 L 48 104 L 52 104 L 56 104 L 60 104 L 64 104 L 68 104 L 72 104 L 76 104 L 80 104 L 80 108 L 80 112 L 80 116 L 80 120 L 84 120 L 88 120 L 88 116 L 88 112 L 92 112 L 96 112 L 96 108 L 96 104 L 100 104 L 104 104 L 104 100 L 104 96 L 100 96 L 96 96 L 96 92 L 96 88 L 92 88 L 88 88 L 88 84 L 88 80 L 84 80 L 80 80 z "
     id="rect330" />
</svg>
