<?xml version="1.0" encoding="UTF-8" standalone="no"?>
<svg
   xmlns:dc="http://purl.org/dc/elements/1.1/"
   xmlns:cc="http://creativecommons.org/ns#"
   xmlns:rdf="http://www.w3.org/1999/02/22-rdf-syntax-ns#"
   xmlns:svg="http://www.w3.org/2000/svg"
   xmlns="http://www.w3.org/2000/svg"
   xmlns:sodipodi="http://sodipodi.sourceforge.net/DTD/sodipodi-0.dtd"
   xmlns:inkscape="http://www.inkscape.org/namespaces/inkscape"
   id="svg298"
   width="320px"
   version="1.1"
   height="320px"
   sodipodi:docname="chicago95_tmp_file.svg"
   inkscape:version="0.92.5 (2060ec1f9f, 2020-04-08)">
  <sodipodi:namedview
     pagecolor="#ffffff"
     bordercolor="#666666"
     borderopacity="1"
     objecttolerance="10"
     gridtolerance="10"
     guidetolerance="10"
     inkscape:pageopacity="0"
     inkscape:pageshadow="2"
     inkscape:window-width="640"
     inkscape:window-height="480"
     id="namedview152"
     showgrid="false"
     inkscape:zoom="0.7375"
     inkscape:cx="160"
     inkscape:cy="160"
     inkscape:window-x="0"
     inkscape:window-y="0"
     inkscape:window-maximized="0"
     inkscape:current-layer="svg298" />
  <metadata
     id="metadata302">
    <rdf:RDF>
      <cc:Work
         rdf:about="">
        <dc:format>image/svg+xml</dc:format>
        <dc:type
           rdf:resource="http://purl.org/dc/dcmitype/StillImage" />
      </cc:Work>
    </rdf:RDF>
  </metadata>
  <defs
     id="defs2" />
  <path
     style="fill:#840000"
     d="M 220 20 L 220 40 L 220 41 L 220 60 L 220 61 L 220 81 L 241 81 L 241 61 L 241 60 L 241 41 L 241 40 L 241 20 L 220 20 z "
     id="rect36" />
  <path
     style="fill:#ffff00"
     d="M 140 40 L 140 60 L 120 60 L 120 80 L 100 80 L 100 100 L 80 100 L 80 120 L 60 120 L 60 140 L 40 140 L 40 161 L 61 161 L 61 141 L 81 141 L 81 121 L 101 121 L 101 101 L 121 101 L 121 81 L 141 81 L 141 61 L 160 61 L 161 61 L 180 61 L 180 81 L 200 81 L 200 101 L 220 101 L 220 121 L 240 121 L 240 141 L 260 141 L 260 161 L 281 161 L 281 140 L 261 140 L 261 120 L 241 120 L 241 100 L 221 100 L 221 80 L 201 80 L 201 60 L 181 60 L 181 40 L 161 40 L 160 40 L 140 40 z M 140 200 L 140 220 L 140 221 L 140 240 L 140 241 L 140 260 L 140 261 L 140 281 L 160 281 L 161 281 L 181 281 L 181 261 L 181 260 L 181 241 L 181 240 L 181 221 L 181 220 L 181 200 L 161 200 L 160 200 L 140 200 z "
     id="rect262" />
  <path
     style="fill:#ffffff"
     d="M 140 80 L 140 100 L 120 100 L 120 120 L 100 120 L 100 140 L 80 140 L 80 160 L 60 160 L 60 180 L 60 181 L 60 200 L 60 201 L 60 220 L 60 221 L 60 240 L 60 241 L 60 260 L 60 261 L 60 281 L 80 281 L 81 281 L 100 281 L 101 281 L 121 281 L 121 261 L 121 260 L 121 241 L 121 240 L 121 221 L 121 220 L 121 201 L 121 200 L 121 181 L 140 181 L 141 181 L 160 181 L 161 181 L 180 181 L 181 181 L 200 181 L 200 200 L 200 201 L 200 220 L 200 221 L 200 240 L 200 241 L 200 260 L 200 261 L 200 281 L 220 281 L 221 281 L 240 281 L 241 281 L 261 281 L 261 261 L 261 260 L 261 241 L 261 240 L 261 221 L 261 220 L 261 201 L 261 200 L 261 181 L 261 180 L 261 160 L 241 160 L 241 140 L 221 140 L 221 120 L 201 120 L 201 100 L 181 100 L 181 80 L 161 80 L 160 80 L 140 80 z "
     id="rect270" />
  <path
     style="fill:#000000"
     d="M 140 20 L 140 40 L 120 40 L 120 60 L 100 60 L 100 80 L 80 80 L 80 100 L 60 100 L 60 120 L 40 120 L 40 140 L 20 140 L 20 161 L 40 161 L 40 180 L 40 181 L 40 200 L 40 201 L 40 220 L 40 221 L 40 240 L 40 241 L 40 260 L 40 261 L 40 280 L 40 281 L 40 301 L 60 301 L 61 301 L 80 301 L 81 301 L 100 301 L 101 301 L 120 301 L 121 301 L 140 301 L 141 301 L 160 301 L 161 301 L 180 301 L 181 301 L 200 301 L 201 301 L 220 301 L 221 301 L 240 301 L 241 301 L 260 301 L 261 301 L 281 301 L 281 281 L 281 280 L 281 261 L 281 260 L 281 241 L 281 240 L 281 221 L 281 220 L 281 201 L 281 200 L 281 181 L 281 180 L 281 161 L 301 161 L 301 140 L 281 140 L 281 120 L 261 120 L 261 101 L 261 100 L 261 81 L 261 80 L 261 61 L 261 60 L 261 41 L 261 40 L 261 20 L 240 20 L 240 40 L 240 41 L 240 60 L 240 61 L 240 80 L 221 80 L 221 60 L 201 60 L 201 40 L 181 40 L 181 20 L 161 20 L 160 20 L 140 20 z M 141 41 L 160 41 L 161 41 L 180 41 L 180 60 L 161 60 L 160 60 L 141 60 L 141 41 z M 121 61 L 140 61 L 140 80 L 121 80 L 121 61 z M 181 61 L 200 61 L 200 80 L 181 80 L 181 61 z M 101 81 L 120 81 L 120 100 L 101 100 L 101 81 z M 141 81 L 160 81 L 161 81 L 180 81 L 180 101 L 200 101 L 200 121 L 220 121 L 220 141 L 240 141 L 240 161 L 260 161 L 260 180 L 260 181 L 260 200 L 260 201 L 260 220 L 260 221 L 260 240 L 260 241 L 260 260 L 260 261 L 260 280 L 241 280 L 240 280 L 221 280 L 220 280 L 201 280 L 201 261 L 201 260 L 201 241 L 201 240 L 201 221 L 201 220 L 201 201 L 201 200 L 201 180 L 181 180 L 180 180 L 161 180 L 160 180 L 141 180 L 140 180 L 120 180 L 120 200 L 120 201 L 120 220 L 120 221 L 120 240 L 120 241 L 120 260 L 120 261 L 120 280 L 101 280 L 100 280 L 81 280 L 80 280 L 61 280 L 61 261 L 61 260 L 61 241 L 61 240 L 61 221 L 61 220 L 61 201 L 61 200 L 61 181 L 61 180 L 61 161 L 81 161 L 81 141 L 101 141 L 101 121 L 121 121 L 121 101 L 141 101 L 141 81 z M 201 81 L 220 81 L 220 100 L 201 100 L 201 81 z M 81 101 L 100 101 L 100 120 L 81 120 L 81 101 z M 221 101 L 240 101 L 240 120 L 221 120 L 221 101 z M 61 121 L 80 121 L 80 140 L 61 140 L 61 121 z M 241 121 L 260 121 L 260 140 L 241 140 L 241 121 z M 41 141 L 60 141 L 60 160 L 41 160 L 41 141 z M 261 141 L 280 141 L 280 160 L 261 160 L 261 141 z M 141 201 L 160 201 L 161 201 L 180 201 L 180 220 L 180 221 L 180 240 L 180 241 L 180 260 L 180 261 L 180 280 L 161 280 L 160 280 L 141 280 L 141 261 L 141 260 L 141 241 L 141 240 L 141 221 L 141 220 L 141 201 z "
     id="rect296" />
</svg>
