<?xml version="1.0" encoding="UTF-8" standalone="no"?>
<svg
   xmlns:dc="http://purl.org/dc/elements/1.1/"
   xmlns:cc="http://creativecommons.org/ns#"
   xmlns:rdf="http://www.w3.org/1999/02/22-rdf-syntax-ns#"
   xmlns:svg="http://www.w3.org/2000/svg"
   xmlns="http://www.w3.org/2000/svg"
   xmlns:sodipodi="http://sodipodi.sourceforge.net/DTD/sodipodi-0.dtd"
   xmlns:inkscape="http://www.inkscape.org/namespaces/inkscape"
   id="svg240"
   width="320px"
   version="1.1"
   height="320px"
   sodipodi:docname="chicago95_tmp_file.svg"
   inkscape:version="0.92.5 (2060ec1f9f, 2020-04-08)">
  <sodipodi:namedview
     pagecolor="#ffffff"
     bordercolor="#666666"
     borderopacity="1"
     objecttolerance="10"
     gridtolerance="10"
     guidetolerance="10"
     inkscape:pageopacity="0"
     inkscape:pageshadow="2"
     inkscape:window-width="452"
     inkscape:window-height="423"
     id="namedview123"
     showgrid="false"
     inkscape:zoom="0.7375"
     inkscape:cx="160"
     inkscape:cy="160"
     inkscape:window-x="0"
     inkscape:window-y="0"
     inkscape:window-maximized="0"
     inkscape:current-layer="svg240" />
  <metadata
     id="metadata244">
    <rdf:RDF>
      <cc:Work
         rdf:about="">
        <dc:format>image/svg+xml</dc:format>
        <dc:type
           rdf:resource="http://purl.org/dc/dcmitype/StillImage" />
      </cc:Work>
    </rdf:RDF>
  </metadata>
  <defs
     id="defs2" />
  <path
     style="fill:#00ffff"
     d="M 280 60 L 280 80 L 280 81 L 280 100 L 280 101 L 280 120 L 280 121 L 280 140 L 280 141 L 280 160 L 280 161 L 280 180 L 280 181 L 280 200 L 280 201 L 280 220 L 280 221 L 280 240 L 280 241 L 280 260 L 280 261 L 280 281 L 301 281 L 301 261 L 301 260 L 301 241 L 301 240 L 301 221 L 301 220 L 301 201 L 301 200 L 301 181 L 301 180 L 301 161 L 301 160 L 301 141 L 301 140 L 301 121 L 301 120 L 301 101 L 301 100 L 301 81 L 301 80 L 301 60 L 280 60 z M 140 80 L 140 100 L 140 101 L 140 120 L 140 121 L 140 140 L 121 140 L 120 140 L 101 140 L 100 140 L 81 140 L 80 140 L 61 140 L 60 140 L 41 140 L 40 140 L 20 140 L 20 160 L 20 161 L 20 180 L 20 181 L 20 201 L 40 201 L 41 201 L 60 201 L 61 201 L 80 201 L 81 201 L 100 201 L 101 201 L 120 201 L 121 201 L 140 201 L 140 220 L 140 221 L 140 240 L 140 241 L 140 261 L 161 261 L 161 241 L 181 241 L 181 221 L 201 221 L 201 201 L 221 201 L 221 181 L 241 181 L 241 160 L 221 160 L 221 140 L 201 140 L 201 120 L 181 120 L 181 100 L 161 100 L 161 80 L 140 80 z "
     id="rect228" />
  <path
     style="fill:#000000"
     d="M 120 40 L 120 60 L 120 61 L 120 80 L 120 81 L 120 100 L 120 101 L 120 120 L 101 120 L 100 120 L 81 120 L 80 120 L 61 120 L 60 120 L 41 120 L 40 120 L 21 120 L 20 120 L 0 120 L 0 140 L 0 141 L 0 160 L 0 161 L 0 180 L 0 181 L 0 200 L 0 201 L 0 221 L 20 221 L 21 221 L 40 221 L 41 221 L 60 221 L 61 221 L 80 221 L 81 221 L 100 221 L 101 221 L 120 221 L 120 240 L 120 241 L 120 260 L 120 261 L 120 280 L 120 281 L 120 301 L 141 301 L 141 281 L 161 281 L 161 261 L 181 261 L 181 241 L 201 241 L 201 221 L 221 221 L 221 201 L 241 201 L 241 181 L 260 181 L 260 200 L 260 201 L 260 220 L 260 221 L 260 240 L 260 241 L 260 260 L 260 261 L 260 280 L 260 281 L 260 301 L 280 301 L 281 301 L 300 301 L 301 301 L 321 301 L 321 281 L 321 280 L 321 261 L 321 260 L 321 241 L 321 240 L 321 221 L 321 220 L 321 201 L 321 200 L 321 181 L 321 180 L 321 161 L 321 160 L 321 141 L 321 140 L 321 121 L 321 120 L 321 101 L 321 100 L 321 81 L 321 80 L 321 61 L 321 60 L 321 40 L 301 40 L 300 40 L 281 40 L 280 40 L 260 40 L 260 60 L 260 61 L 260 80 L 260 81 L 260 100 L 260 101 L 260 120 L 260 121 L 260 140 L 260 141 L 260 160 L 241 160 L 241 140 L 221 140 L 221 120 L 201 120 L 201 100 L 181 100 L 181 80 L 161 80 L 161 60 L 141 60 L 141 40 L 120 40 z M 281 61 L 300 61 L 300 80 L 300 81 L 300 100 L 300 101 L 300 120 L 300 121 L 300 140 L 300 141 L 300 160 L 300 161 L 300 180 L 300 181 L 300 200 L 300 201 L 300 220 L 300 221 L 300 240 L 300 241 L 300 260 L 300 261 L 300 280 L 281 280 L 281 261 L 281 260 L 281 241 L 281 240 L 281 221 L 281 220 L 281 201 L 281 200 L 281 181 L 281 180 L 281 161 L 281 160 L 281 141 L 281 140 L 281 121 L 281 120 L 281 101 L 281 100 L 281 81 L 281 80 L 281 61 z M 141 81 L 160 81 L 160 101 L 180 101 L 180 121 L 200 121 L 200 141 L 220 141 L 220 161 L 240 161 L 240 180 L 220 180 L 220 200 L 200 200 L 200 220 L 180 220 L 180 240 L 160 240 L 160 260 L 141 260 L 141 241 L 141 240 L 141 221 L 141 220 L 141 200 L 121 200 L 120 200 L 101 200 L 100 200 L 81 200 L 80 200 L 61 200 L 60 200 L 41 200 L 40 200 L 21 200 L 21 181 L 21 180 L 21 161 L 21 160 L 21 141 L 40 141 L 41 141 L 60 141 L 61 141 L 80 141 L 81 141 L 100 141 L 101 141 L 120 141 L 121 141 L 141 141 L 141 121 L 141 120 L 141 101 L 141 100 L 141 81 z "
     id="rect238" />
</svg>
