<?xml version="1.0" encoding="UTF-8" standalone="no"?>
<svg
   xmlns:dc="http://purl.org/dc/elements/1.1/"
   xmlns:cc="http://creativecommons.org/ns#"
   xmlns:rdf="http://www.w3.org/1999/02/22-rdf-syntax-ns#"
   xmlns:svg="http://www.w3.org/2000/svg"
   xmlns="http://www.w3.org/2000/svg"
   xmlns:sodipodi="http://sodipodi.sourceforge.net/DTD/sodipodi-0.dtd"
   xmlns:inkscape="http://www.inkscape.org/namespaces/inkscape"
   id="svg182"
   width="320px"
   version="1.1"
   height="320px"
   sodipodi:docname="chicago95_tmp_file.svg"
   inkscape:version="0.92.5 (2060ec1f9f, 2020-04-08)">
  <sodipodi:namedview
     pagecolor="#ffffff"
     bordercolor="#666666"
     borderopacity="1"
     objecttolerance="10"
     gridtolerance="10"
     guidetolerance="10"
     inkscape:pageopacity="0"
     inkscape:pageshadow="2"
     inkscape:window-width="640"
     inkscape:window-height="480"
     id="namedview94"
     showgrid="false"
     inkscape:zoom="0.7375"
     inkscape:cx="160"
     inkscape:cy="160"
     inkscape:window-x="0"
     inkscape:window-y="0"
     inkscape:window-maximized="0"
     inkscape:current-layer="svg182" />
  <metadata
     id="metadata186">
    <rdf:RDF>
      <cc:Work
         rdf:about="">
        <dc:format>image/svg+xml</dc:format>
        <dc:type
           rdf:resource="http://purl.org/dc/dcmitype/StillImage" />
      </cc:Work>
    </rdf:RDF>
  </metadata>
  <defs
     id="defs2" />
  <path
     style="fill:#00ffff"
     d="M 180 80 L 180 100 L 180 101 L 180 120 L 180 121 L 180 140 L 161 140 L 160 140 L 141 140 L 140 140 L 121 140 L 120 140 L 101 140 L 100 140 L 81 140 L 80 140 L 61 140 L 60 140 L 41 140 L 40 140 L 20 140 L 20 160 L 20 161 L 20 180 L 20 181 L 20 201 L 40 201 L 41 201 L 60 201 L 61 201 L 80 201 L 81 201 L 100 201 L 101 201 L 120 201 L 121 201 L 140 201 L 141 201 L 160 201 L 161 201 L 180 201 L 180 220 L 180 221 L 180 240 L 180 241 L 180 261 L 201 261 L 201 241 L 221 241 L 221 221 L 241 221 L 241 201 L 261 201 L 261 181 L 281 181 L 281 160 L 261 160 L 261 140 L 241 140 L 241 120 L 221 120 L 221 100 L 201 100 L 201 80 L 180 80 z "
     id="rect172" />
  <path
     style="fill:#000000"
     d="M 160 40 L 160 60 L 160 61 L 160 80 L 160 81 L 160 100 L 160 101 L 160 120 L 141 120 L 140 120 L 121 120 L 120 120 L 101 120 L 100 120 L 81 120 L 80 120 L 61 120 L 60 120 L 41 120 L 40 120 L 21 120 L 20 120 L 0 120 L 0 140 L 0 141 L 0 160 L 0 161 L 0 180 L 0 181 L 0 200 L 0 201 L 0 221 L 20 221 L 21 221 L 40 221 L 41 221 L 60 221 L 61 221 L 80 221 L 81 221 L 100 221 L 101 221 L 120 221 L 121 221 L 140 221 L 141 221 L 160 221 L 160 240 L 160 241 L 160 260 L 160 261 L 160 280 L 160 281 L 160 301 L 181 301 L 181 281 L 201 281 L 201 261 L 221 261 L 221 241 L 241 241 L 241 221 L 261 221 L 261 201 L 281 201 L 281 181 L 301 181 L 301 160 L 281 160 L 281 140 L 261 140 L 261 120 L 241 120 L 241 100 L 221 100 L 221 80 L 201 80 L 201 60 L 181 60 L 181 40 L 160 40 z M 181 81 L 200 81 L 200 101 L 220 101 L 220 121 L 240 121 L 240 141 L 260 141 L 260 161 L 280 161 L 280 180 L 260 180 L 260 200 L 240 200 L 240 220 L 220 220 L 220 240 L 200 240 L 200 260 L 181 260 L 181 241 L 181 240 L 181 221 L 181 220 L 181 200 L 161 200 L 160 200 L 141 200 L 140 200 L 121 200 L 120 200 L 101 200 L 100 200 L 81 200 L 80 200 L 61 200 L 60 200 L 41 200 L 40 200 L 21 200 L 21 181 L 21 180 L 21 161 L 21 160 L 21 141 L 40 141 L 41 141 L 60 141 L 61 141 L 80 141 L 81 141 L 100 141 L 101 141 L 120 141 L 121 141 L 140 141 L 141 141 L 160 141 L 161 141 L 181 141 L 181 121 L 181 120 L 181 101 L 181 100 L 181 81 z "
     id="rect180" />
</svg>
