<?xml version="1.0" encoding="UTF-8" standalone="no"?>
<svg
   xmlns:dc="http://purl.org/dc/elements/1.1/"
   xmlns:cc="http://creativecommons.org/ns#"
   xmlns:rdf="http://www.w3.org/1999/02/22-rdf-syntax-ns#"
   xmlns:svg="http://www.w3.org/2000/svg"
   xmlns="http://www.w3.org/2000/svg"
   xmlns:sodipodi="http://sodipodi.sourceforge.net/DTD/sodipodi-0.dtd"
   xmlns:inkscape="http://www.inkscape.org/namespaces/inkscape"
   id="svg716"
   width="128px"
   version="1.1"
   height="128px"
   sodipodi:docname="chicago95_tmp_file.svg"
   inkscape:version="0.92.4 (5da689c313, 2019-01-14)">
  <sodipodi:namedview
     pagecolor="#ffffff"
     bordercolor="#666666"
     borderopacity="1"
     objecttolerance="10"
     gridtolerance="10"
     guidetolerance="10"
     inkscape:pageopacity="0"
     inkscape:pageshadow="2"
     inkscape:window-width="640"
     inkscape:window-height="480"
     id="namedview361"
     showgrid="false"
     inkscape:zoom="1.84375"
     inkscape:cx="64"
     inkscape:cy="64"
     inkscape:window-x="0"
     inkscape:window-y="0"
     inkscape:window-maximized="0"
     inkscape:current-layer="svg716" />
  <metadata
     id="metadata720">
    <rdf:RDF>
      <cc:Work
         rdf:about="">
        <dc:format>image/svg+xml</dc:format>
        <dc:type
           rdf:resource="http://purl.org/dc/dcmitype/StillImage" />
      </cc:Work>
    </rdf:RDF>
  </metadata>
  <defs
     id="defs2" />
  <path
     style="fill:#00ffff"
     d="M 72 32 L 72 36 L 72 40 L 72 44 L 72 48 L 72 52 L 72 56 L 68 56 L 64 56 L 60 56 L 56 56 L 52 56 L 48 56 L 44 56 L 40 56 L 36 56 L 32 56 L 28 56 L 24 56 L 20 56 L 16 56 L 12 56 L 8 56 L 8 60 L 8 64 L 8 68 L 8 72 L 8 76 L 8 80 L 12 80 L 16 80 L 20 80 L 24 80 L 28 80 L 32 80 L 36 80 L 40 80 L 44 80 L 48 80 L 52 80 L 56 80 L 60 80 L 64 80 L 68 80 L 72 80 L 72 84 L 72 88 L 72 92 L 72 96 L 72 100 L 72 104 L 76 104 L 80 104 L 80 100 L 80 96 L 84 96 L 88 96 L 88 92 L 88 88 L 92 88 L 96 88 L 96 84 L 96 80 L 100 80 L 104 80 L 104 76 L 104 72 L 108 72 L 112 72 L 112 68 L 112 64 L 108 64 L 104 64 L 104 60 L 104 56 L 100 56 L 96 56 L 96 52 L 96 48 L 92 48 L 88 48 L 88 44 L 88 40 L 84 40 L 80 40 L 80 36 L 80 32 L 76 32 L 72 32 z "
     id="rect686" />
  <path
     style="fill:#000000"
     d="M 64 16 L 64 20 L 64 24 L 64 28 L 64 32 L 64 36 L 64 40 L 64 44 L 64 48 L 60 48 L 56 48 L 52 48 L 48 48 L 44 48 L 40 48 L 36 48 L 32 48 L 28 48 L 24 48 L 20 48 L 16 48 L 12 48 L 8 48 L 4 48 L 0 48 L 0 52 L 0 56 L 0 60 L 0 64 L 0 68 L 0 72 L 0 76 L 0 80 L 0 84 L 0 88 L 4 88 L 8 88 L 12 88 L 16 88 L 20 88 L 24 88 L 28 88 L 32 88 L 36 88 L 40 88 L 44 88 L 48 88 L 52 88 L 56 88 L 60 88 L 64 88 L 64 92 L 64 96 L 64 100 L 64 104 L 64 108 L 64 112 L 64 116 L 64 120 L 68 120 L 72 120 L 72 116 L 72 112 L 76 112 L 80 112 L 80 108 L 80 104 L 76 104 L 72 104 L 72 100 L 72 96 L 72 92 L 72 88 L 72 84 L 72 80 L 68 80 L 64 80 L 60 80 L 56 80 L 52 80 L 48 80 L 44 80 L 40 80 L 36 80 L 32 80 L 28 80 L 24 80 L 20 80 L 16 80 L 12 80 L 8 80 L 8 76 L 8 72 L 8 68 L 8 64 L 8 60 L 8 56 L 12 56 L 16 56 L 20 56 L 24 56 L 28 56 L 32 56 L 36 56 L 40 56 L 44 56 L 48 56 L 52 56 L 56 56 L 60 56 L 64 56 L 68 56 L 72 56 L 72 52 L 72 48 L 72 44 L 72 40 L 72 36 L 72 32 L 76 32 L 80 32 L 80 28 L 80 24 L 76 24 L 72 24 L 72 20 L 72 16 L 68 16 L 64 16 z M 80 32 L 80 36 L 80 40 L 84 40 L 88 40 L 88 36 L 88 32 L 84 32 L 80 32 z M 88 40 L 88 44 L 88 48 L 92 48 L 96 48 L 96 44 L 96 40 L 92 40 L 88 40 z M 96 48 L 96 52 L 96 56 L 100 56 L 104 56 L 104 52 L 104 48 L 100 48 L 96 48 z M 104 56 L 104 60 L 104 64 L 108 64 L 112 64 L 112 60 L 112 56 L 108 56 L 104 56 z M 112 64 L 112 68 L 112 72 L 116 72 L 120 72 L 120 68 L 120 64 L 116 64 L 112 64 z M 112 72 L 108 72 L 104 72 L 104 76 L 104 80 L 108 80 L 112 80 L 112 76 L 112 72 z M 104 80 L 100 80 L 96 80 L 96 84 L 96 88 L 100 88 L 104 88 L 104 84 L 104 80 z M 96 88 L 92 88 L 88 88 L 88 92 L 88 96 L 92 96 L 96 96 L 96 92 L 96 88 z M 88 96 L 84 96 L 80 96 L 80 100 L 80 104 L 84 104 L 88 104 L 88 100 L 88 96 z "
     id="rect714" />
</svg>
