<?xml version="1.0" encoding="UTF-8" standalone="no"?>
<svg
   xmlns:dc="http://purl.org/dc/elements/1.1/"
   xmlns:cc="http://creativecommons.org/ns#"
   xmlns:rdf="http://www.w3.org/1999/02/22-rdf-syntax-ns#"
   xmlns:svg="http://www.w3.org/2000/svg"
   xmlns="http://www.w3.org/2000/svg"
   xmlns:sodipodi="http://sodipodi.sourceforge.net/DTD/sodipodi-0.dtd"
   xmlns:inkscape="http://www.inkscape.org/namespaces/inkscape"
   id="svg716"
   width="128px"
   version="1.1"
   height="128px"
   sodipodi:docname="chicago95_tmp_file.svg"
   inkscape:version="0.92.4 (5da689c313, 2019-01-14)">
  <sodipodi:namedview
     pagecolor="#ffffff"
     bordercolor="#666666"
     borderopacity="1"
     objecttolerance="10"
     gridtolerance="10"
     guidetolerance="10"
     inkscape:pageopacity="0"
     inkscape:pageshadow="2"
     inkscape:window-width="640"
     inkscape:window-height="480"
     id="namedview361"
     showgrid="false"
     inkscape:zoom="1.84375"
     inkscape:cx="64"
     inkscape:cy="64"
     inkscape:window-x="0"
     inkscape:window-y="0"
     inkscape:window-maximized="0"
     inkscape:current-layer="svg716" />
  <metadata
     id="metadata720">
    <rdf:RDF>
      <cc:Work
         rdf:about="">
        <dc:format>image/svg+xml</dc:format>
        <dc:type
           rdf:resource="http://purl.org/dc/dcmitype/StillImage" />
      </cc:Work>
    </rdf:RDF>
  </metadata>
  <defs
     id="defs2" />
  <path
     style="fill:#00ffff"
     d="M 48 24 L 48 28 L 48 32 L 44 32 L 40 32 L 40 36 L 40 40 L 36 40 L 32 40 L 32 44 L 32 48 L 28 48 L 24 48 L 24 52 L 24 56 L 20 56 L 16 56 L 16 60 L 16 64 L 20 64 L 24 64 L 24 68 L 24 72 L 28 72 L 32 72 L 32 76 L 32 80 L 36 80 L 40 80 L 40 84 L 40 88 L 44 88 L 48 88 L 48 92 L 48 96 L 52 96 L 56 96 L 56 92 L 56 88 L 56 84 L 56 80 L 56 76 L 56 72 L 60 72 L 64 72 L 68 72 L 72 72 L 76 72 L 80 72 L 84 72 L 88 72 L 92 72 L 96 72 L 100 72 L 104 72 L 108 72 L 112 72 L 116 72 L 120 72 L 120 68 L 120 64 L 120 60 L 120 56 L 120 52 L 120 48 L 116 48 L 112 48 L 108 48 L 104 48 L 100 48 L 96 48 L 92 48 L 88 48 L 84 48 L 80 48 L 76 48 L 72 48 L 68 48 L 64 48 L 60 48 L 56 48 L 56 44 L 56 40 L 56 36 L 56 32 L 56 28 L 56 24 L 52 24 L 48 24 z "
     id="rect686" />
  <path
     style="fill:#000000"
     d="M 56 8 L 56 12 L 56 16 L 52 16 L 48 16 L 48 20 L 48 24 L 52 24 L 56 24 L 56 28 L 56 32 L 56 36 L 56 40 L 56 44 L 56 48 L 60 48 L 64 48 L 68 48 L 72 48 L 76 48 L 80 48 L 84 48 L 88 48 L 92 48 L 96 48 L 100 48 L 104 48 L 108 48 L 112 48 L 116 48 L 120 48 L 120 52 L 120 56 L 120 60 L 120 64 L 120 68 L 120 72 L 116 72 L 112 72 L 108 72 L 104 72 L 100 72 L 96 72 L 92 72 L 88 72 L 84 72 L 80 72 L 76 72 L 72 72 L 68 72 L 64 72 L 60 72 L 56 72 L 56 76 L 56 80 L 56 84 L 56 88 L 56 92 L 56 96 L 52 96 L 48 96 L 48 100 L 48 104 L 52 104 L 56 104 L 56 108 L 56 112 L 60 112 L 64 112 L 64 108 L 64 104 L 64 100 L 64 96 L 64 92 L 64 88 L 64 84 L 64 80 L 68 80 L 72 80 L 76 80 L 80 80 L 84 80 L 88 80 L 92 80 L 96 80 L 100 80 L 104 80 L 108 80 L 112 80 L 116 80 L 120 80 L 124 80 L 128 80 L 128 76 L 128 72 L 128 68 L 128 64 L 128 60 L 128 56 L 128 52 L 128 48 L 128 44 L 128 40 L 124 40 L 120 40 L 116 40 L 112 40 L 108 40 L 104 40 L 100 40 L 96 40 L 92 40 L 88 40 L 84 40 L 80 40 L 76 40 L 72 40 L 68 40 L 64 40 L 64 36 L 64 32 L 64 28 L 64 24 L 64 20 L 64 16 L 64 12 L 64 8 L 60 8 L 56 8 z M 48 96 L 48 92 L 48 88 L 44 88 L 40 88 L 40 92 L 40 96 L 44 96 L 48 96 z M 40 88 L 40 84 L 40 80 L 36 80 L 32 80 L 32 84 L 32 88 L 36 88 L 40 88 z M 32 80 L 32 76 L 32 72 L 28 72 L 24 72 L 24 76 L 24 80 L 28 80 L 32 80 z M 24 72 L 24 68 L 24 64 L 20 64 L 16 64 L 16 68 L 16 72 L 20 72 L 24 72 z M 16 64 L 16 60 L 16 56 L 12 56 L 8 56 L 8 60 L 8 64 L 12 64 L 16 64 z M 16 56 L 20 56 L 24 56 L 24 52 L 24 48 L 20 48 L 16 48 L 16 52 L 16 56 z M 24 48 L 28 48 L 32 48 L 32 44 L 32 40 L 28 40 L 24 40 L 24 44 L 24 48 z M 32 40 L 36 40 L 40 40 L 40 36 L 40 32 L 36 32 L 32 32 L 32 36 L 32 40 z M 40 32 L 44 32 L 48 32 L 48 28 L 48 24 L 44 24 L 40 24 L 40 28 L 40 32 z "
     id="rect714" />
</svg>
