<?xml version="1.0" encoding="UTF-8" standalone="no"?>
<svg
   xmlns:dc="http://purl.org/dc/elements/1.1/"
   xmlns:cc="http://creativecommons.org/ns#"
   xmlns:rdf="http://www.w3.org/1999/02/22-rdf-syntax-ns#"
   xmlns:svg="http://www.w3.org/2000/svg"
   xmlns="http://www.w3.org/2000/svg"
   xmlns:sodipodi="http://sodipodi.sourceforge.net/DTD/sodipodi-0.dtd"
   xmlns:inkscape="http://www.inkscape.org/namespaces/inkscape"
   id="svg182"
   width="320px"
   version="1.1"
   height="320px"
   sodipodi:docname="chicago95_tmp_file.svg"
   inkscape:version="0.92.5 (2060ec1f9f, 2020-04-08)">
  <sodipodi:namedview
     pagecolor="#ffffff"
     bordercolor="#666666"
     borderopacity="1"
     objecttolerance="10"
     gridtolerance="10"
     guidetolerance="10"
     inkscape:pageopacity="0"
     inkscape:pageshadow="2"
     inkscape:window-width="640"
     inkscape:window-height="480"
     id="namedview94"
     showgrid="false"
     inkscape:zoom="0.7375"
     inkscape:cx="160"
     inkscape:cy="160"
     inkscape:window-x="0"
     inkscape:window-y="0"
     inkscape:window-maximized="0"
     inkscape:current-layer="svg182" />
  <metadata
     id="metadata186">
    <rdf:RDF>
      <cc:Work
         rdf:about="">
        <dc:format>image/svg+xml</dc:format>
        <dc:type
           rdf:resource="http://purl.org/dc/dcmitype/StillImage" />
      </cc:Work>
    </rdf:RDF>
  </metadata>
  <defs
     id="defs2" />
  <path
     style="fill:#00ffff"
     d="M 120 60 L 120 80 L 100 80 L 100 100 L 80 100 L 80 120 L 60 120 L 60 140 L 40 140 L 40 161 L 60 161 L 60 181 L 80 181 L 80 201 L 100 201 L 100 221 L 120 221 L 120 241 L 141 241 L 141 221 L 141 220 L 141 201 L 141 200 L 141 181 L 160 181 L 161 181 L 180 181 L 181 181 L 200 181 L 201 181 L 220 181 L 221 181 L 240 181 L 241 181 L 260 181 L 261 181 L 280 181 L 281 181 L 301 181 L 301 161 L 301 160 L 301 141 L 301 140 L 301 120 L 281 120 L 280 120 L 261 120 L 260 120 L 241 120 L 240 120 L 221 120 L 220 120 L 201 120 L 200 120 L 181 120 L 180 120 L 161 120 L 160 120 L 141 120 L 141 101 L 141 100 L 141 81 L 141 80 L 141 60 L 120 60 z "
     id="rect172" />
  <path
     style="fill:#000000"
     d="M 140 20 L 140 40 L 120 40 L 120 60 L 100 60 L 100 80 L 80 80 L 80 100 L 60 100 L 60 120 L 40 120 L 40 140 L 20 140 L 20 161 L 40 161 L 40 181 L 60 181 L 60 201 L 80 201 L 80 221 L 100 221 L 100 241 L 120 241 L 120 261 L 140 261 L 140 281 L 161 281 L 161 261 L 161 260 L 161 241 L 161 240 L 161 221 L 161 220 L 161 201 L 180 201 L 181 201 L 200 201 L 201 201 L 220 201 L 221 201 L 240 201 L 241 201 L 260 201 L 261 201 L 280 201 L 281 201 L 300 201 L 301 201 L 321 201 L 321 181 L 321 180 L 321 161 L 321 160 L 321 141 L 321 140 L 321 121 L 321 120 L 321 100 L 301 100 L 300 100 L 281 100 L 280 100 L 261 100 L 260 100 L 241 100 L 240 100 L 221 100 L 220 100 L 201 100 L 200 100 L 181 100 L 180 100 L 161 100 L 161 81 L 161 80 L 161 61 L 161 60 L 161 41 L 161 40 L 161 20 L 140 20 z M 121 61 L 140 61 L 140 80 L 140 81 L 140 100 L 140 101 L 140 121 L 160 121 L 161 121 L 180 121 L 181 121 L 200 121 L 201 121 L 220 121 L 221 121 L 240 121 L 241 121 L 260 121 L 261 121 L 280 121 L 281 121 L 300 121 L 300 140 L 300 141 L 300 160 L 300 161 L 300 180 L 281 180 L 280 180 L 261 180 L 260 180 L 241 180 L 240 180 L 221 180 L 220 180 L 201 180 L 200 180 L 181 180 L 180 180 L 161 180 L 160 180 L 140 180 L 140 200 L 140 201 L 140 220 L 140 221 L 140 240 L 121 240 L 121 220 L 101 220 L 101 200 L 81 200 L 81 180 L 61 180 L 61 160 L 41 160 L 41 141 L 61 141 L 61 121 L 81 121 L 81 101 L 101 101 L 101 81 L 121 81 L 121 61 z "
     id="rect180" />
</svg>
