<?xml version="1.0" encoding="UTF-8" standalone="no"?>
<svg
   xmlns:dc="http://purl.org/dc/elements/1.1/"
   xmlns:cc="http://creativecommons.org/ns#"
   xmlns:rdf="http://www.w3.org/1999/02/22-rdf-syntax-ns#"
   xmlns:svg="http://www.w3.org/2000/svg"
   xmlns="http://www.w3.org/2000/svg"
   xmlns:sodipodi="http://sodipodi.sourceforge.net/DTD/sodipodi-0.dtd"
   xmlns:inkscape="http://www.inkscape.org/namespaces/inkscape"
   id="svg452"
   width="128px"
   version="1.1"
   height="128px"
   sodipodi:docname="chicago95_tmp_file.svg"
   inkscape:version="0.92.4 (5da689c313, 2019-01-14)">
  <sodipodi:namedview
     pagecolor="#ffffff"
     bordercolor="#666666"
     borderopacity="1"
     objecttolerance="10"
     gridtolerance="10"
     guidetolerance="10"
     inkscape:pageopacity="0"
     inkscape:pageshadow="2"
     inkscape:window-width="640"
     inkscape:window-height="480"
     id="namedview229"
     showgrid="false"
     inkscape:zoom="1.84375"
     inkscape:cx="64"
     inkscape:cy="64"
     inkscape:window-x="0"
     inkscape:window-y="0"
     inkscape:window-maximized="0"
     inkscape:current-layer="svg452" />
  <metadata
     id="metadata456">
    <rdf:RDF>
      <cc:Work
         rdf:about="">
        <dc:format>image/svg+xml</dc:format>
        <dc:type
           rdf:resource="http://purl.org/dc/dcmitype/StillImage" />
      </cc:Work>
    </rdf:RDF>
  </metadata>
  <defs
     id="defs2" />
  <path
     style="fill:#ffffff"
     d="M 104 16 L 104 20 L 104 24 L 108 24 L 112 24 L 112 20 L 112 16 L 108 16 L 104 16 z M 104 24 L 100 24 L 96 24 L 96 28 L 96 32 L 100 32 L 104 32 L 104 28 L 104 24 z M 96 32 L 92 32 L 88 32 L 88 36 L 88 40 L 92 40 L 96 40 L 96 36 L 96 32 z M 88 40 L 84 40 L 80 40 L 80 44 L 80 48 L 84 48 L 88 48 L 88 44 L 88 40 z M 80 48 L 76 48 L 72 48 L 72 52 L 72 56 L 76 56 L 80 56 L 80 52 L 80 48 z M 72 56 L 68 56 L 64 56 L 64 60 L 64 64 L 68 64 L 72 64 L 72 60 L 72 56 z M 64 64 L 60 64 L 56 64 L 56 68 L 56 72 L 60 72 L 64 72 L 64 68 L 64 64 z M 56 72 L 52 72 L 48 72 L 48 76 L 48 80 L 52 80 L 56 80 L 56 76 L 56 72 z M 48 80 L 44 80 L 40 80 L 40 84 L 40 88 L 44 88 L 48 88 L 48 84 L 48 80 z M 40 88 L 36 88 L 32 88 L 32 92 L 32 96 L 36 96 L 40 96 L 40 92 L 40 88 z "
     id="rect370" />
  <path
     style="fill:#ffff00"
     d="M 104 24 L 104 28 L 104 32 L 108 32 L 112 32 L 112 28 L 112 24 L 108 24 L 104 24 z M 104 32 L 100 32 L 96 32 L 96 36 L 96 40 L 100 40 L 104 40 L 104 36 L 104 32 z M 96 40 L 92 40 L 88 40 L 88 44 L 88 48 L 92 48 L 96 48 L 96 44 L 96 40 z M 88 48 L 84 48 L 80 48 L 80 52 L 80 56 L 84 56 L 88 56 L 88 52 L 88 48 z M 80 56 L 76 56 L 72 56 L 72 60 L 72 64 L 76 64 L 80 64 L 80 60 L 80 56 z M 72 64 L 68 64 L 64 64 L 64 68 L 64 72 L 68 72 L 72 72 L 72 68 L 72 64 z M 64 72 L 60 72 L 56 72 L 56 76 L 56 80 L 60 80 L 64 80 L 64 76 L 64 72 z M 56 80 L 52 80 L 48 80 L 48 84 L 48 88 L 52 88 L 56 88 L 56 84 L 56 80 z M 48 88 L 44 88 L 40 88 L 40 92 L 40 96 L 44 96 L 48 96 L 48 92 L 48 88 z "
     id="rect374" />
  <path
     style="fill:#808000"
     d="M 24 96 L 24 100 L 24 104 L 28 104 L 32 104 L 36 104 L 40 104 L 40 100 L 40 96 L 36 96 L 32 96 L 28 96 L 24 96 z "
     id="rect406" />
  <path
     style="fill:#000000"
     d="M 104 8 L 104 12 L 104 16 L 108 16 L 112 16 L 112 12 L 112 8 L 108 8 L 104 8 z M 112 16 L 112 20 L 112 24 L 112 28 L 112 32 L 108 32 L 104 32 L 104 36 L 104 40 L 108 40 L 112 40 L 112 44 L 112 48 L 116 48 L 120 48 L 120 44 L 120 40 L 120 36 L 120 32 L 120 28 L 120 24 L 120 20 L 120 16 L 116 16 L 112 16 z M 112 48 L 108 48 L 104 48 L 104 52 L 104 56 L 108 56 L 112 56 L 112 52 L 112 48 z M 104 56 L 100 56 L 96 56 L 96 60 L 96 64 L 100 64 L 104 64 L 104 60 L 104 56 z M 96 64 L 92 64 L 88 64 L 88 60 L 88 56 L 84 56 L 80 56 L 80 60 L 80 64 L 76 64 L 72 64 L 72 68 L 72 72 L 76 72 L 80 72 L 80 76 L 80 80 L 84 80 L 88 80 L 88 76 L 88 72 L 92 72 L 96 72 L 96 68 L 96 64 z M 72 72 L 68 72 L 64 72 L 64 76 L 64 80 L 68 80 L 72 80 L 72 76 L 72 72 z M 64 80 L 60 80 L 56 80 L 56 84 L 56 88 L 60 88 L 64 88 L 64 84 L 64 80 z M 56 88 L 52 88 L 48 88 L 48 92 L 48 96 L 52 96 L 56 96 L 56 92 L 56 88 z M 48 96 L 44 96 L 40 96 L 40 100 L 40 104 L 44 104 L 48 104 L 48 100 L 48 96 z M 40 104 L 36 104 L 32 104 L 28 104 L 24 104 L 24 100 L 24 96 L 20 96 L 16 96 L 16 100 L 16 104 L 16 108 L 16 112 L 12 112 L 8 112 L 8 116 L 8 120 L 12 120 L 16 120 L 20 120 L 24 120 L 24 116 L 24 112 L 28 112 L 32 112 L 36 112 L 40 112 L 40 108 L 40 104 z M 24 96 L 28 96 L 32 96 L 32 92 L 32 88 L 28 88 L 24 88 L 24 92 L 24 96 z M 32 88 L 36 88 L 40 88 L 40 84 L 40 80 L 36 80 L 32 80 L 32 84 L 32 88 z M 40 80 L 44 80 L 48 80 L 48 76 L 48 72 L 44 72 L 40 72 L 40 76 L 40 80 z M 48 72 L 52 72 L 56 72 L 56 68 L 56 64 L 52 64 L 48 64 L 48 68 L 48 72 z M 56 64 L 60 64 L 64 64 L 64 60 L 64 56 L 60 56 L 56 56 L 56 60 L 56 64 z M 64 56 L 68 56 L 72 56 L 72 52 L 72 48 L 68 48 L 64 48 L 64 52 L 64 56 z M 72 48 L 76 48 L 80 48 L 80 44 L 80 40 L 76 40 L 72 40 L 72 44 L 72 48 z M 80 40 L 84 40 L 88 40 L 88 36 L 88 32 L 84 32 L 80 32 L 80 36 L 80 40 z M 88 32 L 92 32 L 96 32 L 96 28 L 96 24 L 92 24 L 88 24 L 88 28 L 88 32 z M 96 24 L 100 24 L 104 24 L 104 20 L 104 16 L 100 16 L 96 16 L 96 20 L 96 24 z M 88 56 L 92 56 L 96 56 L 96 52 L 96 48 L 92 48 L 88 48 L 88 52 L 88 56 z M 96 48 L 100 48 L 104 48 L 104 44 L 104 40 L 100 40 L 96 40 L 96 44 L 96 48 z "
     id="rect450" />
</svg>
