<?xml version="1.0" encoding="UTF-8" standalone="no"?>
<svg
   xmlns:dc="http://purl.org/dc/elements/1.1/"
   xmlns:cc="http://creativecommons.org/ns#"
   xmlns:rdf="http://www.w3.org/1999/02/22-rdf-syntax-ns#"
   xmlns:svg="http://www.w3.org/2000/svg"
   xmlns="http://www.w3.org/2000/svg"
   xmlns:sodipodi="http://sodipodi.sourceforge.net/DTD/sodipodi-0.dtd"
   xmlns:inkscape="http://www.inkscape.org/namespaces/inkscape"
   id="svg756"
   width="128px"
   version="1.1"
   height="128px"
   sodipodi:docname="chicago95_tmp_file.svg"
   inkscape:version="0.92.4 (5da689c313, 2019-01-14)">
  <sodipodi:namedview
     pagecolor="#ffffff"
     bordercolor="#666666"
     borderopacity="1"
     objecttolerance="10"
     gridtolerance="10"
     guidetolerance="10"
     inkscape:pageopacity="0"
     inkscape:pageshadow="2"
     inkscape:window-width="640"
     inkscape:window-height="480"
     id="namedview381"
     showgrid="false"
     inkscape:zoom="1.84375"
     inkscape:cx="64"
     inkscape:cy="64"
     inkscape:window-x="0"
     inkscape:window-y="0"
     inkscape:window-maximized="0"
     inkscape:current-layer="svg756" />
  <metadata
     id="metadata760">
    <rdf:RDF>
      <cc:Work
         rdf:about="">
        <dc:format>image/svg+xml</dc:format>
        <dc:type
           rdf:resource="http://purl.org/dc/dcmitype/StillImage" />
      </cc:Work>
    </rdf:RDF>
  </metadata>
  <defs
     id="defs2" />
  <path
     style="fill:#c0c0c0"
     d="M 16 40 L 16 44 L 16 48 L 12 48 L 8 48 L 8 52 L 8 56 L 8 60 L 8 64 L 8 68 L 8 72 L 12 72 L 16 72 L 16 76 L 16 80 L 20 80 L 24 80 L 28 80 L 32 80 L 36 80 L 40 80 L 44 80 L 48 80 L 52 80 L 56 80 L 56 76 L 56 72 L 52 72 L 48 72 L 44 72 L 40 72 L 36 72 L 32 72 L 28 72 L 24 72 L 24 68 L 24 64 L 20 64 L 16 64 L 16 60 L 16 56 L 20 56 L 24 56 L 24 52 L 24 48 L 28 48 L 32 48 L 36 48 L 40 48 L 44 48 L 48 48 L 52 48 L 56 48 L 56 44 L 56 40 L 52 40 L 48 40 L 44 40 L 40 40 L 36 40 L 32 40 L 28 40 L 24 40 L 20 40 L 16 40 z M 72 40 L 72 44 L 72 48 L 76 48 L 80 48 L 84 48 L 88 48 L 92 48 L 96 48 L 100 48 L 104 48 L 104 52 L 104 56 L 108 56 L 112 56 L 112 60 L 112 64 L 108 64 L 104 64 L 104 68 L 104 72 L 100 72 L 96 72 L 92 72 L 88 72 L 84 72 L 80 72 L 76 72 L 72 72 L 72 76 L 72 80 L 76 80 L 80 80 L 84 80 L 88 80 L 92 80 L 96 80 L 100 80 L 104 80 L 108 80 L 112 80 L 112 76 L 112 72 L 116 72 L 120 72 L 120 68 L 120 64 L 120 60 L 120 56 L 120 52 L 120 48 L 116 48 L 112 48 L 112 44 L 112 40 L 108 40 L 104 40 L 100 40 L 96 40 L 92 40 L 88 40 L 84 40 L 80 40 L 76 40 L 72 40 z M 40 56 L 40 60 L 40 64 L 44 64 L 48 64 L 52 64 L 56 64 L 60 64 L 64 64 L 68 64 L 72 64 L 76 64 L 80 64 L 84 64 L 88 64 L 88 60 L 88 56 L 84 56 L 80 56 L 76 56 L 72 56 L 68 56 L 64 56 L 60 56 L 56 56 L 52 56 L 48 56 L 44 56 L 40 56 z "
     id="rect670" />
  <path
     style="fill:#000000"
     d="M 16 32 L 16 36 L 16 40 L 20 40 L 24 40 L 28 40 L 32 40 L 36 40 L 40 40 L 44 40 L 48 40 L 52 40 L 56 40 L 56 36 L 56 32 L 52 32 L 48 32 L 44 32 L 40 32 L 36 32 L 32 32 L 28 32 L 24 32 L 20 32 L 16 32 z M 56 40 L 56 44 L 56 48 L 52 48 L 48 48 L 44 48 L 40 48 L 36 48 L 32 48 L 28 48 L 24 48 L 24 52 L 24 56 L 28 56 L 32 56 L 32 60 L 32 64 L 28 64 L 24 64 L 24 68 L 24 72 L 28 72 L 32 72 L 36 72 L 40 72 L 44 72 L 48 72 L 52 72 L 56 72 L 56 76 L 56 80 L 60 80 L 64 80 L 68 80 L 72 80 L 72 76 L 72 72 L 76 72 L 80 72 L 84 72 L 88 72 L 92 72 L 96 72 L 100 72 L 104 72 L 104 68 L 104 64 L 100 64 L 96 64 L 96 60 L 96 56 L 100 56 L 104 56 L 104 52 L 104 48 L 100 48 L 96 48 L 92 48 L 88 48 L 84 48 L 80 48 L 76 48 L 72 48 L 72 44 L 72 40 L 68 40 L 64 40 L 60 40 L 56 40 z M 72 40 L 76 40 L 80 40 L 84 40 L 88 40 L 92 40 L 96 40 L 100 40 L 104 40 L 108 40 L 112 40 L 112 36 L 112 32 L 108 32 L 104 32 L 100 32 L 96 32 L 92 32 L 88 32 L 84 32 L 80 32 L 76 32 L 72 32 L 72 36 L 72 40 z M 112 40 L 112 44 L 112 48 L 116 48 L 120 48 L 120 44 L 120 40 L 116 40 L 112 40 z M 120 48 L 120 52 L 120 56 L 120 60 L 120 64 L 120 68 L 120 72 L 124 72 L 128 72 L 128 68 L 128 64 L 128 60 L 128 56 L 128 52 L 128 48 L 124 48 L 120 48 z M 120 72 L 116 72 L 112 72 L 112 76 L 112 80 L 116 80 L 120 80 L 120 76 L 120 72 z M 112 80 L 108 80 L 104 80 L 100 80 L 96 80 L 92 80 L 88 80 L 84 80 L 80 80 L 76 80 L 72 80 L 72 84 L 72 88 L 76 88 L 80 88 L 84 88 L 88 88 L 92 88 L 96 88 L 100 88 L 104 88 L 108 88 L 112 88 L 112 84 L 112 80 z M 104 56 L 104 60 L 104 64 L 108 64 L 112 64 L 112 60 L 112 56 L 108 56 L 104 56 z M 56 80 L 52 80 L 48 80 L 44 80 L 40 80 L 36 80 L 32 80 L 28 80 L 24 80 L 20 80 L 16 80 L 16 84 L 16 88 L 20 88 L 24 88 L 28 88 L 32 88 L 36 88 L 40 88 L 44 88 L 48 88 L 52 88 L 56 88 L 56 84 L 56 80 z M 16 80 L 16 76 L 16 72 L 12 72 L 8 72 L 8 76 L 8 80 L 12 80 L 16 80 z M 8 72 L 8 68 L 8 64 L 8 60 L 8 56 L 8 52 L 8 48 L 4 48 L 0 48 L 0 52 L 0 56 L 0 60 L 0 64 L 0 68 L 0 72 L 4 72 L 8 72 z M 8 48 L 12 48 L 16 48 L 16 44 L 16 40 L 12 40 L 8 40 L 8 44 L 8 48 z M 24 64 L 24 60 L 24 56 L 20 56 L 16 56 L 16 60 L 16 64 L 20 64 L 24 64 z M 40 56 L 44 56 L 48 56 L 52 56 L 56 56 L 60 56 L 64 56 L 68 56 L 72 56 L 76 56 L 80 56 L 84 56 L 88 56 L 88 60 L 88 64 L 84 64 L 80 64 L 76 64 L 72 64 L 68 64 L 64 64 L 60 64 L 56 64 L 52 64 L 48 64 L 44 64 L 40 64 L 40 60 L 40 56 z "
     id="rect754" />
</svg>
