<?xml version="1.0" encoding="UTF-8" standalone="no"?>
<svg
   xmlns:dc="http://purl.org/dc/elements/1.1/"
   xmlns:cc="http://creativecommons.org/ns#"
   xmlns:rdf="http://www.w3.org/1999/02/22-rdf-syntax-ns#"
   xmlns:svg="http://www.w3.org/2000/svg"
   xmlns="http://www.w3.org/2000/svg"
   xmlns:sodipodi="http://sodipodi.sourceforge.net/DTD/sodipodi-0.dtd"
   xmlns:inkscape="http://www.inkscape.org/namespaces/inkscape"
   id="svg140"
   width="320px"
   version="1.1"
   height="320px"
   sodipodi:docname="chicago95_tmp_file.svg"
   inkscape:version="0.92.5 (2060ec1f9f, 2020-04-08)">
  <sodipodi:namedview
     pagecolor="#ffffff"
     bordercolor="#666666"
     borderopacity="1"
     objecttolerance="10"
     gridtolerance="10"
     guidetolerance="10"
     inkscape:pageopacity="0"
     inkscape:pageshadow="2"
     inkscape:window-width="640"
     inkscape:window-height="480"
     id="namedview73"
     showgrid="false"
     inkscape:zoom="0.7375"
     inkscape:cx="160"
     inkscape:cy="160"
     inkscape:window-x="0"
     inkscape:window-y="0"
     inkscape:window-maximized="0"
     inkscape:current-layer="svg140" />
  <metadata
     id="metadata144">
    <rdf:RDF>
      <cc:Work
         rdf:about="">
        <dc:format>image/svg+xml</dc:format>
        <dc:type
           rdf:resource="http://purl.org/dc/dcmitype/StillImage" />
      </cc:Work>
    </rdf:RDF>
  </metadata>
  <defs
     id="defs2" />
  <path
     style="fill:#000080"
     d="M 60 20 L 60 41 L 80 41 L 81 41 L 100 41 L 101 41 L 120 41 L 120 60 L 101 60 L 100 60 L 81 60 L 80 60 L 60 60 L 60 80 L 40 80 L 40 100 L 40 101 L 40 121 L 60 121 L 60 141 L 80 141 L 81 141 L 100 141 L 101 141 L 120 141 L 121 141 L 140 141 L 141 141 L 161 141 L 161 121 L 161 120 L 161 101 L 161 100 L 161 81 L 161 80 L 161 61 L 161 60 L 161 40 L 141 40 L 141 20 L 121 20 L 120 20 L 101 20 L 100 20 L 81 20 L 80 20 L 60 20 z M 81 81 L 100 81 L 101 81 L 120 81 L 120 100 L 120 101 L 120 120 L 101 120 L 100 120 L 81 120 L 81 101 L 81 100 L 81 81 z M 60 180 L 60 200 L 40 200 L 40 220 L 40 221 L 40 240 L 40 241 L 40 260 L 40 261 L 40 281 L 60 281 L 60 301 L 80 301 L 81 301 L 100 301 L 101 301 L 120 301 L 121 301 L 141 301 L 141 281 L 161 281 L 161 260 L 141 260 L 140 260 L 120 260 L 120 280 L 101 280 L 100 280 L 81 280 L 81 261 L 81 260 L 81 241 L 100 241 L 101 241 L 120 241 L 121 241 L 140 241 L 141 241 L 161 241 L 161 221 L 161 220 L 161 200 L 141 200 L 141 180 L 121 180 L 120 180 L 101 180 L 100 180 L 81 180 L 80 180 L 60 180 z M 81 201 L 100 201 L 101 201 L 120 201 L 120 220 L 101 220 L 100 220 L 81 220 L 81 201 z "
     id="rect136" />
  <path
     style="fill:#800000"
     d="M 260 20 L 260 40 L 260 41 L 260 60 L 260 61 L 260 80 L 260 81 L 260 100 L 260 101 L 260 120 L 260 121 L 260 140 L 260 141 L 260 160 L 260 161 L 260 180 L 260 181 L 260 200 L 260 201 L 260 220 L 260 221 L 260 240 L 241 240 L 240 240 L 220 240 L 220 261 L 240 261 L 240 281 L 260 281 L 260 301 L 281 301 L 281 281 L 301 281 L 301 261 L 321 261 L 321 240 L 301 240 L 300 240 L 281 240 L 281 221 L 281 220 L 281 201 L 281 200 L 281 181 L 281 180 L 281 161 L 281 160 L 281 141 L 281 140 L 281 121 L 281 120 L 281 101 L 281 100 L 281 81 L 281 80 L 281 61 L 281 60 L 281 41 L 281 40 L 281 20 L 260 20 z "
     id="rect138" />
</svg>
