<?xml version="1.0" encoding="UTF-8" standalone="no"?>
<svg
   xmlns:dc="http://purl.org/dc/elements/1.1/"
   xmlns:cc="http://creativecommons.org/ns#"
   xmlns:rdf="http://www.w3.org/1999/02/22-rdf-syntax-ns#"
   xmlns:svg="http://www.w3.org/2000/svg"
   xmlns="http://www.w3.org/2000/svg"
   xmlns:sodipodi="http://sodipodi.sourceforge.net/DTD/sodipodi-0.dtd"
   xmlns:inkscape="http://www.inkscape.org/namespaces/inkscape"
   id="svg1300"
   width="128px"
   version="1.1"
   height="128px"
   sodipodi:docname="chicago95_tmp_file.svg"
   inkscape:version="0.92.4 (5da689c313, 2019-01-14)">
  <sodipodi:namedview
     pagecolor="#ffffff"
     bordercolor="#666666"
     borderopacity="1"
     objecttolerance="10"
     gridtolerance="10"
     guidetolerance="10"
     inkscape:pageopacity="0"
     inkscape:pageshadow="2"
     inkscape:window-width="640"
     inkscape:window-height="480"
     id="namedview653"
     showgrid="false"
     inkscape:zoom="1.84375"
     inkscape:cx="64"
     inkscape:cy="64"
     inkscape:window-x="0"
     inkscape:window-y="0"
     inkscape:window-maximized="0"
     inkscape:current-layer="svg1300" />
  <metadata
     id="metadata1304">
    <rdf:RDF>
      <cc:Work
         rdf:about="">
        <dc:format>image/svg+xml</dc:format>
        <dc:type
           rdf:resource="http://purl.org/dc/dcmitype/StillImage" />
      </cc:Work>
    </rdf:RDF>
  </metadata>
  <defs
     id="defs2" />
  <path
     style="fill:#ffff00"
     d="M 48 8 L 48 12 L 48 16 L 52 16 L 56 16 L 56 12 L 56 8 L 52 8 L 48 8 z M 48 16 L 44 16 L 40 16 L 40 20 L 40 24 L 44 24 L 48 24 L 48 20 L 48 16 z M 16 16 L 16 20 L 16 24 L 20 24 L 24 24 L 24 20 L 24 16 L 20 16 L 16 16 z "
     id="rect238" />
  <path
     style="fill:#ffffff"
     d="M 32 8 L 32 12 L 32 16 L 36 16 L 40 16 L 40 12 L 40 8 L 36 8 L 32 8 z M 8 24 L 8 28 L 8 32 L 12 32 L 16 32 L 16 28 L 16 24 L 12 24 L 8 24 z "
     id="rect346" />
  <path
     style="fill:#00ff00"
     d="M 72 8 L 72 12 L 72 16 L 76 16 L 80 16 L 80 12 L 80 8 L 76 8 L 72 8 z M 80 16 L 80 20 L 80 24 L 84 24 L 88 24 L 88 20 L 88 16 L 84 16 L 80 16 z M 88 16 L 92 16 L 96 16 L 96 12 L 96 8 L 92 8 L 88 8 L 88 12 L 88 16 z M 80 24 L 76 24 L 72 24 L 72 28 L 72 32 L 76 32 L 80 32 L 80 28 L 80 24 z M 32 16 L 32 20 L 32 24 L 36 24 L 40 24 L 40 20 L 40 16 L 36 16 L 32 16 z M 32 24 L 28 24 L 24 24 L 24 28 L 24 32 L 28 32 L 32 32 L 32 28 L 32 24 z M 56 16 L 56 20 L 56 24 L 60 24 L 64 24 L 64 20 L 64 16 L 60 16 L 56 16 z M 56 24 L 52 24 L 48 24 L 48 28 L 48 32 L 52 32 L 56 32 L 56 28 L 56 24 z M 56 32 L 56 36 L 56 40 L 60 40 L 64 40 L 64 36 L 64 32 L 60 32 L 56 32 z M 64 40 L 64 44 L 64 48 L 68 48 L 72 48 L 72 44 L 72 40 L 68 40 L 64 40 z M 56 40 L 52 40 L 48 40 L 48 44 L 48 48 L 48 52 L 48 56 L 52 56 L 56 56 L 56 52 L 56 48 L 56 44 L 56 40 z M 48 40 L 48 36 L 48 32 L 44 32 L 40 32 L 40 36 L 40 40 L 44 40 L 48 40 z M 40 40 L 36 40 L 32 40 L 32 44 L 32 48 L 36 48 L 40 48 L 40 44 L 40 40 z M 104 24 L 104 28 L 104 32 L 108 32 L 112 32 L 112 28 L 112 24 L 108 24 L 104 24 z M 8 32 L 8 36 L 8 40 L 12 40 L 16 40 L 16 36 L 16 32 L 12 32 L 8 32 z M 88 32 L 88 36 L 88 40 L 92 40 L 96 40 L 96 36 L 96 32 L 92 32 L 88 32 z M 96 40 L 96 44 L 96 48 L 100 48 L 104 48 L 104 44 L 104 40 L 100 40 L 96 40 z M 88 40 L 84 40 L 80 40 L 80 44 L 80 48 L 84 48 L 88 48 L 88 44 L 88 40 z M 16 48 L 16 52 L 16 56 L 20 56 L 24 56 L 24 52 L 24 48 L 20 48 L 16 48 z "
     id="rect742" />
  <path
     style="fill:#008000"
     d="M 32 0 L 32 4 L 32 8 L 36 8 L 40 8 L 40 12 L 40 16 L 44 16 L 48 16 L 48 12 L 48 8 L 52 8 L 56 8 L 56 12 L 56 16 L 60 16 L 64 16 L 64 20 L 64 24 L 60 24 L 56 24 L 56 28 L 56 32 L 60 32 L 64 32 L 64 36 L 64 40 L 68 40 L 72 40 L 72 44 L 72 48 L 68 48 L 64 48 L 64 44 L 64 40 L 60 40 L 56 40 L 56 44 L 56 48 L 56 52 L 56 56 L 60 56 L 64 56 L 64 60 L 64 64 L 68 64 L 72 64 L 72 60 L 72 56 L 76 56 L 80 56 L 80 52 L 80 48 L 80 44 L 80 40 L 84 40 L 88 40 L 88 36 L 88 32 L 92 32 L 96 32 L 96 36 L 96 40 L 100 40 L 104 40 L 108 40 L 112 40 L 112 44 L 112 48 L 116 48 L 120 48 L 120 44 L 120 40 L 120 36 L 120 32 L 124 32 L 128 32 L 128 28 L 128 24 L 124 24 L 120 24 L 120 20 L 120 16 L 116 16 L 112 16 L 112 12 L 112 8 L 108 8 L 104 8 L 100 8 L 96 8 L 96 12 L 96 16 L 92 16 L 88 16 L 88 20 L 88 24 L 84 24 L 80 24 L 80 28 L 80 32 L 76 32 L 72 32 L 72 28 L 72 24 L 76 24 L 80 24 L 80 20 L 80 16 L 76 16 L 72 16 L 72 12 L 72 8 L 76 8 L 80 8 L 80 12 L 80 16 L 84 16 L 88 16 L 88 12 L 88 8 L 92 8 L 96 8 L 96 4 L 96 0 L 92 0 L 88 0 L 84 0 L 80 0 L 76 0 L 72 0 L 68 0 L 64 0 L 60 0 L 56 0 L 52 0 L 48 0 L 44 0 L 40 0 L 36 0 L 32 0 z M 112 48 L 108 48 L 104 48 L 104 52 L 104 56 L 108 56 L 112 56 L 112 52 L 112 48 z M 104 56 L 100 56 L 96 56 L 96 60 L 96 64 L 100 64 L 104 64 L 104 60 L 104 56 z M 96 56 L 96 52 L 96 48 L 92 48 L 88 48 L 88 52 L 88 56 L 92 56 L 96 56 z M 88 56 L 84 56 L 80 56 L 80 60 L 80 64 L 84 64 L 88 64 L 88 60 L 88 56 z M 56 56 L 52 56 L 48 56 L 48 60 L 48 64 L 52 64 L 56 64 L 56 60 L 56 56 z M 48 56 L 48 52 L 48 48 L 48 44 L 48 40 L 44 40 L 40 40 L 40 44 L 40 48 L 36 48 L 32 48 L 32 52 L 32 56 L 36 56 L 40 56 L 44 56 L 48 56 z M 32 48 L 32 44 L 32 40 L 36 40 L 40 40 L 40 36 L 40 32 L 44 32 L 48 32 L 48 28 L 48 24 L 44 24 L 40 24 L 36 24 L 32 24 L 32 28 L 32 32 L 28 32 L 24 32 L 24 28 L 24 24 L 20 24 L 16 24 L 16 28 L 16 32 L 16 36 L 16 40 L 12 40 L 8 40 L 8 36 L 8 32 L 8 28 L 8 24 L 4 24 L 0 24 L 0 28 L 0 32 L 0 36 L 0 40 L 0 44 L 0 48 L 4 48 L 8 48 L 12 48 L 16 48 L 20 48 L 24 48 L 28 48 L 32 48 z M 8 24 L 12 24 L 16 24 L 16 20 L 16 16 L 12 16 L 8 16 L 8 20 L 8 24 z M 16 16 L 20 16 L 24 16 L 24 20 L 24 24 L 28 24 L 32 24 L 32 20 L 32 16 L 32 12 L 32 8 L 28 8 L 24 8 L 20 8 L 16 8 L 16 12 L 16 16 z M 48 24 L 52 24 L 56 24 L 56 20 L 56 16 L 52 16 L 48 16 L 48 20 L 48 24 z M 48 32 L 48 36 L 48 40 L 52 40 L 56 40 L 56 36 L 56 32 L 52 32 L 48 32 z M 104 24 L 108 24 L 112 24 L 112 28 L 112 32 L 108 32 L 104 32 L 104 28 L 104 24 z "
     id="rect874" />
  <path
     style="fill:#c0c0c0"
     d="M 72 72 L 72 76 L 72 80 L 76 80 L 80 80 L 80 76 L 80 72 L 76 72 L 72 72 z "
     id="rect1010" />
  <path
     style="fill:#808000"
     d="M 24 64 L 24 68 L 24 72 L 28 72 L 32 72 L 32 68 L 32 64 L 28 64 L 24 64 z M 32 72 L 32 76 L 32 80 L 36 80 L 40 80 L 40 76 L 40 72 L 36 72 L 32 72 z M 40 80 L 40 84 L 40 88 L 44 88 L 48 88 L 48 92 L 48 96 L 48 100 L 48 104 L 48 108 L 48 112 L 48 116 L 48 120 L 52 120 L 56 120 L 56 116 L 56 112 L 56 108 L 56 104 L 56 100 L 56 96 L 56 92 L 56 88 L 56 84 L 56 80 L 56 76 L 56 72 L 52 72 L 48 72 L 48 76 L 48 80 L 44 80 L 40 80 z "
     id="rect1230" />
  <path
     style="fill:#000000"
     d="M 120 32 L 120 36 L 120 40 L 120 44 L 120 48 L 116 48 L 112 48 L 112 52 L 112 56 L 108 56 L 104 56 L 104 60 L 104 64 L 108 64 L 112 64 L 116 64 L 120 64 L 120 60 L 120 56 L 124 56 L 128 56 L 128 52 L 128 48 L 128 44 L 128 40 L 128 36 L 128 32 L 124 32 L 120 32 z M 104 64 L 100 64 L 96 64 L 96 60 L 96 56 L 92 56 L 88 56 L 88 60 L 88 64 L 84 64 L 80 64 L 80 60 L 80 56 L 76 56 L 72 56 L 72 60 L 72 64 L 68 64 L 64 64 L 64 60 L 64 56 L 60 56 L 56 56 L 56 60 L 56 64 L 52 64 L 48 64 L 48 68 L 48 72 L 52 72 L 56 72 L 60 72 L 64 72 L 64 76 L 64 80 L 64 84 L 64 88 L 64 92 L 64 96 L 64 100 L 64 104 L 64 108 L 64 112 L 64 116 L 64 120 L 60 120 L 56 120 L 52 120 L 48 120 L 44 120 L 40 120 L 40 124 L 40 128 L 44 128 L 48 128 L 52 128 L 56 128 L 60 128 L 64 128 L 68 128 L 72 128 L 76 128 L 80 128 L 80 124 L 80 120 L 76 120 L 72 120 L 72 116 L 72 112 L 72 108 L 72 104 L 72 100 L 72 96 L 76 96 L 80 96 L 80 92 L 80 88 L 76 88 L 72 88 L 72 84 L 72 80 L 72 76 L 72 72 L 76 72 L 80 72 L 84 72 L 88 72 L 88 76 L 88 80 L 92 80 L 96 80 L 96 76 L 96 72 L 100 72 L 104 72 L 104 68 L 104 64 z M 88 80 L 84 80 L 80 80 L 80 84 L 80 88 L 84 88 L 88 88 L 88 84 L 88 80 z M 48 64 L 48 60 L 48 56 L 44 56 L 40 56 L 36 56 L 32 56 L 32 52 L 32 48 L 28 48 L 24 48 L 24 52 L 24 56 L 20 56 L 16 56 L 16 60 L 16 64 L 20 64 L 24 64 L 28 64 L 32 64 L 36 64 L 40 64 L 44 64 L 48 64 z M 16 56 L 16 52 L 16 48 L 12 48 L 8 48 L 8 52 L 8 56 L 12 56 L 16 56 z M 80 56 L 84 56 L 88 56 L 88 52 L 88 48 L 84 48 L 80 48 L 80 52 L 80 56 z M 88 48 L 92 48 L 96 48 L 96 44 L 96 40 L 92 40 L 88 40 L 88 44 L 88 48 z M 96 48 L 96 52 L 96 56 L 100 56 L 104 56 L 104 52 L 104 48 L 100 48 L 96 48 z M 104 48 L 108 48 L 112 48 L 112 44 L 112 40 L 108 40 L 104 40 L 104 44 L 104 48 z "
     id="rect1294" />
  <path
     style="fill:#800000"
     d="M 32 64 L 32 68 L 32 72 L 36 72 L 40 72 L 40 68 L 40 64 L 36 64 L 32 64 z M 40 72 L 40 76 L 40 80 L 44 80 L 48 80 L 48 76 L 48 72 L 44 72 L 40 72 z M 56 72 L 56 76 L 56 80 L 56 84 L 56 88 L 56 92 L 56 96 L 56 100 L 56 104 L 56 108 L 56 112 L 56 116 L 56 120 L 60 120 L 64 120 L 64 116 L 64 112 L 64 108 L 64 104 L 64 100 L 64 96 L 64 92 L 64 88 L 64 84 L 64 80 L 64 76 L 64 72 L 60 72 L 56 72 z M 80 72 L 80 76 L 80 80 L 84 80 L 88 80 L 88 76 L 88 72 L 84 72 L 80 72 z M 80 80 L 76 80 L 72 80 L 72 84 L 72 88 L 76 88 L 80 88 L 80 84 L 80 80 z M 96 88 L 96 92 L 96 96 L 96 100 L 96 104 L 92 104 L 88 104 L 84 104 L 80 104 L 80 108 L 80 112 L 84 112 L 88 112 L 88 116 L 88 120 L 92 120 L 96 120 L 96 124 L 96 128 L 100 128 L 104 128 L 104 124 L 104 120 L 108 120 L 112 120 L 112 116 L 112 112 L 116 112 L 120 112 L 120 108 L 120 104 L 116 104 L 112 104 L 108 104 L 104 104 L 104 100 L 104 96 L 104 92 L 104 88 L 100 88 L 96 88 z "
     id="rect1298" />
</svg>
