<?xml version="1.0" encoding="UTF-8" standalone="no"?>
<svg
   xmlns:dc="http://purl.org/dc/elements/1.1/"
   xmlns:cc="http://creativecommons.org/ns#"
   xmlns:rdf="http://www.w3.org/1999/02/22-rdf-syntax-ns#"
   xmlns:svg="http://www.w3.org/2000/svg"
   xmlns="http://www.w3.org/2000/svg"
   xmlns:sodipodi="http://sodipodi.sourceforge.net/DTD/sodipodi-0.dtd"
   xmlns:inkscape="http://www.inkscape.org/namespaces/inkscape"
   id="svg256"
   width="320px"
   version="1.1"
   height="320px"
   sodipodi:docname="chicago95_tmp_file.svg"
   inkscape:version="0.92.5 (2060ec1f9f, 2020-04-08)">
  <sodipodi:namedview
     pagecolor="#ffffff"
     bordercolor="#666666"
     borderopacity="1"
     objecttolerance="10"
     gridtolerance="10"
     guidetolerance="10"
     inkscape:pageopacity="0"
     inkscape:pageshadow="2"
     inkscape:window-width="452"
     inkscape:window-height="423"
     id="namedview131"
     showgrid="false"
     inkscape:zoom="0.7375"
     inkscape:cx="165.42372"
     inkscape:cy="149.15254"
     inkscape:window-x="0"
     inkscape:window-y="0"
     inkscape:window-maximized="0"
     inkscape:current-layer="svg256" />
  <metadata
     id="metadata260">
    <rdf:RDF>
      <cc:Work
         rdf:about="">
        <dc:format>image/svg+xml</dc:format>
        <dc:type
           rdf:resource="http://purl.org/dc/dcmitype/StillImage" />
      </cc:Work>
    </rdf:RDF>
  </metadata>
  <defs
     id="defs2" />
  <path
     style="fill:#c0c0c0"
     d="M 0 20 L 0 41 L 20 41 L 21 41 L 40 41 L 41 41 L 60 41 L 61 41 L 80 41 L 81 41 L 100 41 L 101 41 L 120 41 L 120 61 L 141 61 L 141 40 L 121 40 L 121 20 L 101 20 L 100 20 L 81 20 L 80 20 L 61 20 L 60 20 L 41 20 L 40 20 L 21 20 L 20 20 L 0 20 z M 280 20 L 280 40 L 260 40 L 260 61 L 280 61 L 280 80 L 260 80 L 260 100 L 241 100 L 240 100 L 221 100 L 220 100 L 201 100 L 200 100 L 181 100 L 180 100 L 161 100 L 160 100 L 141 100 L 140 100 L 121 100 L 121 80 L 101 80 L 101 60 L 80 60 L 80 80 L 80 81 L 80 101 L 100 101 L 100 121 L 120 121 L 121 121 L 140 121 L 141 121 L 160 121 L 161 121 L 180 121 L 181 121 L 200 121 L 201 121 L 220 121 L 221 121 L 240 121 L 241 121 L 260 121 L 261 121 L 281 121 L 281 101 L 301 101 L 301 81 L 301 80 L 301 60 L 281 60 L 281 41 L 300 41 L 301 41 L 321 41 L 321 20 L 301 20 L 300 20 L 280 20 z M 160 60 L 160 81 L 180 81 L 181 81 L 200 81 L 201 81 L 220 81 L 221 81 L 241 81 L 241 60 L 221 60 L 220 60 L 201 60 L 200 60 L 181 60 L 180 60 L 160 60 z M 120 140 L 120 160 L 101 160 L 100 160 L 81 160 L 80 160 L 61 160 L 60 160 L 41 160 L 40 160 L 21 160 L 20 160 L 0 160 L 0 181 L 20 181 L 21 181 L 40 181 L 41 181 L 60 181 L 61 181 L 80 181 L 81 181 L 100 181 L 101 181 L 121 181 L 121 161 L 141 161 L 141 140 L 120 140 z M 260 140 L 260 161 L 280 161 L 280 181 L 300 181 L 301 181 L 321 181 L 321 160 L 301 160 L 300 160 L 281 160 L 281 140 L 260 140 z "
     id="rect214" />
  <path
     style="fill:#000000"
     d="M 0 0 L 0 21 L 20 21 L 21 21 L 40 21 L 41 21 L 60 21 L 61 21 L 80 21 L 81 21 L 100 21 L 101 21 L 120 21 L 120 40 L 101 40 L 100 40 L 81 40 L 80 40 L 61 40 L 60 40 L 41 40 L 40 40 L 21 40 L 20 40 L 0 40 L 0 61 L 20 61 L 21 61 L 40 61 L 41 61 L 60 61 L 60 80 L 60 81 L 60 100 L 60 101 L 60 121 L 80 121 L 80 140 L 61 140 L 60 140 L 41 140 L 40 140 L 21 140 L 20 140 L 0 140 L 0 161 L 20 161 L 21 161 L 40 161 L 41 161 L 60 161 L 61 161 L 80 161 L 81 161 L 100 161 L 101 161 L 120 161 L 120 180 L 101 180 L 100 180 L 81 180 L 80 180 L 61 180 L 60 180 L 41 180 L 40 180 L 21 180 L 20 180 L 0 180 L 0 201 L 20 201 L 21 201 L 40 201 L 41 201 L 60 201 L 61 201 L 80 201 L 81 201 L 100 201 L 101 201 L 121 201 L 121 181 L 141 181 L 141 161 L 161 161 L 161 141 L 180 141 L 181 141 L 200 141 L 201 141 L 220 141 L 221 141 L 240 141 L 240 161 L 260 161 L 260 181 L 280 181 L 280 201 L 300 201 L 301 201 L 321 201 L 321 180 L 301 180 L 300 180 L 281 180 L 281 161 L 300 161 L 301 161 L 321 161 L 321 140 L 301 140 L 301 121 L 321 121 L 321 101 L 321 100 L 321 81 L 321 80 L 321 61 L 321 60 L 321 40 L 301 40 L 300 40 L 281 40 L 281 21 L 300 21 L 301 21 L 321 21 L 321 0 L 301 0 L 300 0 L 280 0 L 280 20 L 260 20 L 260 40 L 241 40 L 240 40 L 221 40 L 220 40 L 201 40 L 200 40 L 181 40 L 180 40 L 161 40 L 160 40 L 141 40 L 141 20 L 121 20 L 121 0 L 101 0 L 100 0 L 81 0 L 80 0 L 61 0 L 60 0 L 41 0 L 40 0 L 21 0 L 20 0 L 0 0 z M 121 41 L 140 41 L 140 60 L 121 60 L 121 41 z M 261 41 L 280 41 L 280 60 L 261 60 L 261 41 z M 81 61 L 100 61 L 100 81 L 120 81 L 120 101 L 140 101 L 141 101 L 160 101 L 161 101 L 180 101 L 181 101 L 200 101 L 201 101 L 220 101 L 221 101 L 240 101 L 241 101 L 261 101 L 261 81 L 281 81 L 281 61 L 300 61 L 300 80 L 300 81 L 300 100 L 280 100 L 280 120 L 261 120 L 260 120 L 241 120 L 240 120 L 221 120 L 220 120 L 201 120 L 200 120 L 181 120 L 180 120 L 161 120 L 160 120 L 141 120 L 140 120 L 121 120 L 120 120 L 101 120 L 101 100 L 81 100 L 81 81 L 81 80 L 81 61 z M 161 61 L 180 61 L 181 61 L 200 61 L 201 61 L 220 61 L 221 61 L 240 61 L 240 80 L 221 80 L 220 80 L 201 80 L 200 80 L 181 80 L 180 80 L 161 80 L 161 61 z M 121 141 L 140 141 L 140 160 L 121 160 L 121 141 z M 261 141 L 280 141 L 280 160 L 261 160 L 261 141 z "
     id="rect230" />
  <path
     style="fill:#800000"
     d="M 240 200 L 240 220 L 240 221 L 240 240 L 240 241 L 240 260 L 221 260 L 220 260 L 200 260 L 200 281 L 220 281 L 220 301 L 240 301 L 240 321 L 261 321 L 261 301 L 281 301 L 281 281 L 301 281 L 301 260 L 281 260 L 280 260 L 261 260 L 261 241 L 261 240 L 261 221 L 261 220 L 261 200 L 240 200 z "
     id="rect254" />
</svg>
