<?xml version="1.0" encoding="UTF-8" standalone="no"?>
<svg
   xmlns:dc="http://purl.org/dc/elements/1.1/"
   xmlns:cc="http://creativecommons.org/ns#"
   xmlns:rdf="http://www.w3.org/1999/02/22-rdf-syntax-ns#"
   xmlns:svg="http://www.w3.org/2000/svg"
   xmlns="http://www.w3.org/2000/svg"
   xmlns:sodipodi="http://sodipodi.sourceforge.net/DTD/sodipodi-0.dtd"
   xmlns:inkscape="http://www.inkscape.org/namespaces/inkscape"
   id="svg894"
   width="128px"
   version="1.1"
   height="128px"
   sodipodi:docname="chicago95_tmp_file.svg"
   inkscape:version="0.92.4 (5da689c313, 2019-01-14)">
  <sodipodi:namedview
     pagecolor="#ffffff"
     bordercolor="#666666"
     borderopacity="1"
     objecttolerance="10"
     gridtolerance="10"
     guidetolerance="10"
     inkscape:pageopacity="0"
     inkscape:pageshadow="2"
     inkscape:window-width="640"
     inkscape:window-height="480"
     id="namedview450"
     showgrid="false"
     inkscape:zoom="1.84375"
     inkscape:cx="64"
     inkscape:cy="64"
     inkscape:window-x="0"
     inkscape:window-y="0"
     inkscape:window-maximized="0"
     inkscape:current-layer="svg894" />
  <metadata
     id="metadata898">
    <rdf:RDF>
      <cc:Work
         rdf:about="">
        <dc:format>image/svg+xml</dc:format>
        <dc:type
           rdf:resource="http://purl.org/dc/dcmitype/StillImage" />
      </cc:Work>
    </rdf:RDF>
  </metadata>
  <defs
     id="defs2" />
  <path
     style="fill:#ffff00"
     d="M 68 8 L 68 12 L 68 16 L 64 16 L 64 20 L 60 20 L 56 20 L 56 24 L 56 28 L 60 28 L 60 32 L 64 32 L 68 32 L 72 32 L 76 32 L 76 28 L 80 28 L 80 24 L 80 20 L 80 16 L 80 12 L 76 12 L 76 8 L 72 8 L 68 8 z "
     id="rect150" />
  <path
     style="fill:#808000"
     d="M 76 8 L 76 12 L 80 12 L 80 8 L 76 8 z M 80 12 L 80 16 L 80 20 L 80 24 L 80 28 L 76 28 L 76 32 L 72 32 L 68 32 L 64 32 L 60 32 L 60 36 L 64 36 L 64 40 L 68 40 L 72 40 L 76 40 L 80 40 L 80 36 L 84 36 L 84 32 L 88 32 L 88 28 L 88 24 L 88 20 L 88 16 L 84 16 L 84 12 L 80 12 z M 60 32 L 60 28 L 56 28 L 56 32 L 60 32 z "
     id="rect230" />
  <path
     style="fill:#ff00ff"
     d="M 24 28 L 24 32 L 24 36 L 20 36 L 20 40 L 16 40 L 12 40 L 12 44 L 12 48 L 16 48 L 16 52 L 20 52 L 24 52 L 28 52 L 32 52 L 32 48 L 36 48 L 36 44 L 36 40 L 36 36 L 36 32 L 32 32 L 32 28 L 28 28 L 24 28 z "
     id="rect326" />
  <path
     style="fill:#800080"
     d="M 32 28 L 32 32 L 36 32 L 36 28 L 32 28 z M 36 32 L 36 36 L 36 40 L 36 44 L 36 48 L 32 48 L 32 52 L 28 52 L 24 52 L 20 52 L 16 52 L 16 56 L 20 56 L 20 60 L 24 60 L 28 60 L 32 60 L 36 60 L 36 56 L 40 56 L 40 52 L 44 52 L 44 48 L 44 44 L 44 40 L 44 36 L 40 36 L 40 32 L 36 32 z M 16 52 L 16 48 L 12 48 L 12 52 L 16 52 z "
     id="rect406" />
  <path
     style="fill:#00ff00"
     d="M 96 44 L 96 48 L 96 52 L 92 52 L 92 56 L 88 56 L 84 56 L 84 60 L 88 60 L 92 60 L 96 60 L 96 56 L 100 56 L 100 52 L 100 48 L 100 44 L 96 44 z "
     id="rect418" />
  <path
     style="fill:#008000"
     d="M 100 44 L 100 48 L 100 52 L 100 56 L 96 56 L 96 60 L 92 60 L 88 60 L 84 60 L 84 64 L 84 68 L 88 68 L 88 72 L 92 72 L 92 76 L 96 76 L 100 76 L 104 76 L 108 76 L 108 72 L 112 72 L 112 68 L 116 68 L 116 64 L 116 60 L 116 56 L 116 52 L 112 52 L 112 48 L 108 48 L 108 44 L 104 44 L 100 44 z "
     id="rect514" />
  <path
     style="fill:#808080"
     d="M 60 4 L 60 8 L 64 8 L 64 4 L 60 4 z M 60 8 L 56 8 L 56 12 L 60 12 L 60 8 z M 56 12 L 52 12 L 52 16 L 56 16 L 56 12 z M 80 4 L 80 8 L 84 8 L 84 4 L 80 4 z M 84 8 L 84 12 L 88 12 L 88 8 L 84 8 z M 88 12 L 88 16 L 92 16 L 92 12 L 88 12 z M 16 24 L 16 28 L 20 28 L 20 24 L 16 24 z M 16 28 L 12 28 L 12 32 L 16 32 L 16 28 z M 12 32 L 8 32 L 8 36 L 12 36 L 12 32 z M 36 24 L 36 28 L 40 28 L 40 24 L 36 24 z M 40 28 L 40 32 L 44 32 L 44 28 L 40 28 z M 44 32 L 44 36 L 48 36 L 48 32 L 44 32 z M 52 32 L 52 36 L 56 36 L 56 32 L 52 32 z M 56 36 L 56 40 L 60 40 L 60 36 L 56 36 z M 60 40 L 60 44 L 64 44 L 64 40 L 60 40 z M 88 32 L 88 36 L 92 36 L 92 32 L 88 32 z M 88 36 L 84 36 L 84 40 L 88 40 L 88 36 z M 88 40 L 88 44 L 92 44 L 92 40 L 88 40 z M 88 44 L 84 44 L 84 48 L 88 48 L 88 44 z M 84 48 L 80 48 L 80 52 L 84 52 L 84 48 z M 84 44 L 84 40 L 80 40 L 80 44 L 84 44 z M 108 40 L 108 44 L 112 44 L 112 40 L 108 40 z M 112 44 L 112 48 L 116 48 L 116 44 L 112 44 z M 116 48 L 116 52 L 120 52 L 120 48 L 116 48 z M 8 52 L 8 56 L 12 56 L 12 52 L 8 52 z M 12 56 L 12 60 L 16 60 L 16 56 L 12 56 z M 16 60 L 16 64 L 20 64 L 20 60 L 16 60 z M 44 52 L 44 56 L 48 56 L 48 52 L 44 52 z M 44 56 L 40 56 L 40 60 L 44 60 L 44 56 z M 40 60 L 36 60 L 36 64 L 40 64 L 40 60 z M 80 68 L 80 72 L 84 72 L 84 68 L 80 68 z M 84 72 L 84 76 L 88 76 L 88 72 L 84 72 z M 88 76 L 88 80 L 92 80 L 92 76 L 88 76 z M 116 68 L 116 72 L 120 72 L 120 68 L 116 68 z M 116 72 L 112 72 L 112 76 L 116 76 L 116 72 z M 112 76 L 108 76 L 108 80 L 112 80 L 112 76 z M 68 76 L 68 80 L 72 80 L 72 76 L 68 76 z M 64 88 L 64 92 L 68 92 L 68 88 L 64 88 z M 68 92 L 68 96 L 72 96 L 72 92 L 68 92 z "
     id="rect646" />
  <path
     style="fill:#ffffff"
     d="M 64 8 L 64 12 L 60 12 L 60 16 L 56 16 L 56 20 L 60 20 L 64 20 L 64 16 L 68 16 L 68 12 L 68 8 L 64 8 z M 20 28 L 20 32 L 16 32 L 16 36 L 12 36 L 12 40 L 16 40 L 20 40 L 20 36 L 24 36 L 24 32 L 24 28 L 20 28 z M 92 44 L 92 48 L 88 48 L 88 52 L 84 52 L 84 56 L 88 56 L 92 56 L 92 52 L 96 52 L 96 48 L 96 44 L 92 44 z M 36 80 L 36 84 L 40 84 L 40 88 L 44 88 L 44 92 L 48 92 L 48 96 L 52 96 L 52 100 L 56 100 L 60 100 L 60 96 L 56 96 L 56 92 L 52 92 L 52 88 L 48 88 L 48 84 L 44 84 L 44 80 L 40 80 L 36 80 z M 48 84 L 52 84 L 52 88 L 56 88 L 56 92 L 60 92 L 60 96 L 64 96 L 64 92 L 64 88 L 60 88 L 60 84 L 56 84 L 56 80 L 52 80 L 48 80 L 48 84 z M 72 80 L 72 84 L 72 88 L 76 88 L 76 92 L 80 92 L 80 96 L 80 100 L 80 104 L 76 104 L 76 108 L 72 108 L 68 108 L 64 108 L 60 108 L 56 108 L 52 108 L 52 104 L 48 104 L 48 100 L 44 100 L 44 96 L 40 96 L 40 92 L 36 92 L 36 88 L 32 88 L 32 84 L 28 84 L 28 88 L 28 92 L 32 92 L 32 96 L 36 96 L 36 100 L 40 100 L 40 104 L 44 104 L 44 108 L 48 108 L 48 112 L 52 112 L 52 116 L 56 116 L 60 116 L 64 116 L 68 116 L 72 116 L 76 116 L 80 116 L 84 116 L 88 116 L 92 116 L 92 112 L 96 112 L 96 108 L 96 104 L 96 100 L 92 100 L 92 96 L 88 96 L 88 92 L 84 92 L 84 88 L 80 88 L 80 84 L 76 84 L 76 80 L 72 80 z "
     id="rect824" />
  <path
     style="fill:#c0c0c0"
     d="M 32 84 L 32 88 L 36 88 L 36 84 L 32 84 z M 36 88 L 36 92 L 40 92 L 40 88 L 36 88 z M 40 92 L 40 96 L 44 96 L 44 92 L 40 92 z M 44 96 L 44 100 L 48 100 L 48 96 L 44 96 z M 48 100 L 48 104 L 52 104 L 52 100 L 48 100 z M 52 104 L 52 108 L 56 108 L 56 104 L 52 104 z M 56 104 L 60 104 L 64 104 L 68 104 L 72 104 L 72 100 L 72 96 L 68 96 L 68 92 L 64 92 L 64 96 L 64 100 L 60 100 L 56 100 L 56 104 z M 72 104 L 72 108 L 76 108 L 76 104 L 72 104 z M 76 104 L 80 104 L 80 100 L 80 96 L 80 92 L 76 92 L 76 96 L 76 100 L 76 104 z M 76 92 L 76 88 L 72 88 L 72 92 L 76 92 z M 96 104 L 96 108 L 96 112 L 92 112 L 92 116 L 88 116 L 84 116 L 80 116 L 76 116 L 72 116 L 68 116 L 64 116 L 60 116 L 56 116 L 56 120 L 60 120 L 64 120 L 68 120 L 72 120 L 76 120 L 80 120 L 84 120 L 88 120 L 92 120 L 96 120 L 100 120 L 100 116 L 100 112 L 100 108 L 100 104 L 96 104 z "
     id="rect858" />
  <path
     style="fill:#000000"
     d="M 64 4 L 64 8 L 68 8 L 72 8 L 76 8 L 80 8 L 80 4 L 76 4 L 72 4 L 68 4 L 64 4 z M 80 8 L 80 12 L 84 12 L 84 8 L 80 8 z M 84 12 L 84 16 L 88 16 L 88 12 L 84 12 z M 88 16 L 88 20 L 88 24 L 88 28 L 88 32 L 92 32 L 92 28 L 92 24 L 92 20 L 92 16 L 88 16 z M 88 32 L 84 32 L 84 36 L 88 36 L 88 32 z M 84 36 L 80 36 L 80 40 L 84 40 L 84 36 z M 80 40 L 76 40 L 72 40 L 68 40 L 64 40 L 64 44 L 68 44 L 72 44 L 76 44 L 80 44 L 80 40 z M 64 40 L 64 36 L 60 36 L 60 40 L 64 40 z M 60 36 L 60 32 L 56 32 L 56 36 L 60 36 z M 56 32 L 56 28 L 56 24 L 56 20 L 56 16 L 52 16 L 52 20 L 52 24 L 52 28 L 52 32 L 56 32 z M 56 16 L 60 16 L 60 12 L 56 12 L 56 16 z M 60 12 L 64 12 L 64 8 L 60 8 L 60 12 z M 20 24 L 20 28 L 24 28 L 28 28 L 32 28 L 36 28 L 36 24 L 32 24 L 28 24 L 24 24 L 20 24 z M 36 28 L 36 32 L 40 32 L 40 28 L 36 28 z M 40 32 L 40 36 L 44 36 L 44 32 L 40 32 z M 44 36 L 44 40 L 44 44 L 44 48 L 44 52 L 48 52 L 48 48 L 48 44 L 48 40 L 48 36 L 44 36 z M 44 52 L 40 52 L 40 56 L 44 56 L 44 52 z M 40 56 L 36 56 L 36 60 L 40 60 L 40 56 z M 36 60 L 32 60 L 28 60 L 24 60 L 20 60 L 20 64 L 24 64 L 28 64 L 32 64 L 36 64 L 36 60 z M 20 60 L 20 56 L 16 56 L 16 60 L 20 60 z M 16 56 L 16 52 L 12 52 L 12 56 L 16 56 z M 12 52 L 12 48 L 12 44 L 12 40 L 12 36 L 8 36 L 8 40 L 8 44 L 8 48 L 8 52 L 12 52 z M 12 36 L 16 36 L 16 32 L 12 32 L 12 36 z M 16 32 L 20 32 L 20 28 L 16 28 L 16 32 z M 92 40 L 92 44 L 96 44 L 100 44 L 104 44 L 108 44 L 108 40 L 104 40 L 100 40 L 96 40 L 92 40 z M 108 44 L 108 48 L 112 48 L 112 44 L 108 44 z M 112 48 L 112 52 L 116 52 L 116 48 L 112 48 z M 116 52 L 116 56 L 116 60 L 116 64 L 116 68 L 120 68 L 120 64 L 120 60 L 120 56 L 120 52 L 116 52 z M 116 68 L 112 68 L 112 72 L 116 72 L 116 68 z M 112 72 L 108 72 L 108 76 L 112 76 L 112 72 z M 108 76 L 104 76 L 100 76 L 96 76 L 92 76 L 92 80 L 96 80 L 100 80 L 104 80 L 108 80 L 108 76 z M 92 76 L 92 72 L 88 72 L 88 76 L 92 76 z M 88 72 L 88 68 L 84 68 L 84 72 L 88 72 z M 84 68 L 84 64 L 84 60 L 84 56 L 84 52 L 80 52 L 80 56 L 80 60 L 80 64 L 80 68 L 84 68 z M 84 52 L 88 52 L 88 48 L 84 48 L 84 52 z M 88 48 L 92 48 L 92 44 L 88 44 L 88 48 z M 36 76 L 36 80 L 40 80 L 44 80 L 44 76 L 40 76 L 36 76 z M 44 80 L 44 84 L 48 84 L 48 80 L 44 80 z M 48 80 L 52 80 L 56 80 L 56 76 L 52 76 L 48 76 L 48 80 z M 56 80 L 56 84 L 60 84 L 60 80 L 56 80 z M 60 84 L 60 88 L 64 88 L 64 84 L 60 84 z M 48 84 L 48 88 L 52 88 L 52 84 L 48 84 z M 52 88 L 52 92 L 56 92 L 56 88 L 52 88 z M 56 92 L 56 96 L 60 96 L 60 92 L 56 92 z M 60 96 L 60 100 L 64 100 L 64 96 L 60 96 z M 36 80 L 32 80 L 28 80 L 28 84 L 32 84 L 36 84 L 36 80 z M 36 84 L 36 88 L 40 88 L 40 84 L 36 84 z M 40 88 L 40 92 L 44 92 L 44 88 L 40 88 z M 44 92 L 44 96 L 48 96 L 48 92 L 44 92 z M 48 96 L 48 100 L 52 100 L 52 96 L 48 96 z M 52 100 L 52 104 L 56 104 L 56 100 L 52 100 z M 56 104 L 56 108 L 60 108 L 64 108 L 68 108 L 72 108 L 72 104 L 68 104 L 64 104 L 60 104 L 56 104 z M 72 104 L 76 104 L 76 100 L 76 96 L 76 92 L 72 92 L 72 96 L 72 100 L 72 104 z M 72 92 L 72 88 L 72 84 L 72 80 L 68 80 L 68 84 L 68 88 L 68 92 L 72 92 z M 72 80 L 76 80 L 76 76 L 72 76 L 72 80 z M 76 80 L 76 84 L 80 84 L 80 80 L 76 80 z M 80 84 L 80 88 L 84 88 L 84 84 L 80 84 z M 84 88 L 84 92 L 88 92 L 88 88 L 84 88 z M 88 92 L 88 96 L 92 96 L 92 92 L 88 92 z M 92 96 L 92 100 L 96 100 L 96 96 L 92 96 z M 96 100 L 96 104 L 100 104 L 100 108 L 100 112 L 100 116 L 100 120 L 96 120 L 92 120 L 88 120 L 84 120 L 80 120 L 76 120 L 72 120 L 68 120 L 64 120 L 60 120 L 56 120 L 56 124 L 60 124 L 64 124 L 68 124 L 72 124 L 76 124 L 80 124 L 84 124 L 88 124 L 92 124 L 96 124 L 100 124 L 104 124 L 108 124 L 112 124 L 112 120 L 112 116 L 112 112 L 112 108 L 112 104 L 112 100 L 112 96 L 108 96 L 104 96 L 100 96 L 100 100 L 96 100 z M 56 120 L 56 116 L 52 116 L 52 120 L 56 120 z M 52 116 L 52 112 L 48 112 L 48 116 L 52 116 z M 48 112 L 48 108 L 44 108 L 44 112 L 48 112 z M 44 108 L 44 104 L 40 104 L 40 108 L 44 108 z M 40 104 L 40 100 L 36 100 L 36 104 L 40 104 z M 36 100 L 36 96 L 32 96 L 32 100 L 36 100 z M 32 96 L 32 92 L 28 92 L 28 96 L 32 96 z M 28 92 L 28 88 L 28 84 L 24 84 L 24 88 L 24 92 L 28 92 z "
     id="rect892" />
</svg>
