<?xml version="1.0" encoding="UTF-8" standalone="no"?>
<svg
   xmlns:dc="http://purl.org/dc/elements/1.1/"
   xmlns:cc="http://creativecommons.org/ns#"
   xmlns:rdf="http://www.w3.org/1999/02/22-rdf-syntax-ns#"
   xmlns:svg="http://www.w3.org/2000/svg"
   xmlns="http://www.w3.org/2000/svg"
   xmlns:sodipodi="http://sodipodi.sourceforge.net/DTD/sodipodi-0.dtd"
   xmlns:inkscape="http://www.inkscape.org/namespaces/inkscape"
   id="svg202"
   width="320px"
   version="1.1"
   height="320px"
   sodipodi:docname="chicago95_tmp_file.svg"
   inkscape:version="0.92.5 (2060ec1f9f, 2020-04-08)">
  <sodipodi:namedview
     pagecolor="#ffffff"
     bordercolor="#666666"
     borderopacity="1"
     objecttolerance="10"
     gridtolerance="10"
     guidetolerance="10"
     inkscape:pageopacity="0"
     inkscape:pageshadow="2"
     inkscape:window-width="452"
     inkscape:window-height="423"
     id="namedview104"
     showgrid="false"
     inkscape:zoom="0.7375"
     inkscape:cx="168.13558"
     inkscape:cy="143.72881"
     inkscape:window-x="0"
     inkscape:window-y="0"
     inkscape:window-maximized="0"
     inkscape:current-layer="svg202" />
  <metadata
     id="metadata206">
    <rdf:RDF>
      <cc:Work
         rdf:about="">
        <dc:format>image/svg+xml</dc:format>
        <dc:type
           rdf:resource="http://purl.org/dc/dcmitype/StillImage" />
      </cc:Work>
    </rdf:RDF>
  </metadata>
  <defs
     id="defs2" />
  <path
     style="fill:#800000"
     d="M 280 100 L 280 120 L 260 120 L 260 141 L 281 141 L 281 121 L 301 121 L 301 100 L 280 100 z "
     id="rect74" />
  <path
     style="fill:#000080"
     d="M 20 80 L 20 101 L 41 101 L 41 80 L 20 80 z M 60 80 L 60 101 L 81 101 L 81 80 L 60 80 z M 0 120 L 0 141 L 21 141 L 21 120 L 0 120 z M 40 120 L 40 141 L 60 141 L 61 141 L 81 141 L 81 120 L 61 120 L 60 120 L 40 120 z M 160 140 L 160 161 L 180 161 L 181 161 L 200 161 L 201 161 L 221 161 L 221 140 L 201 140 L 200 140 L 181 140 L 180 140 L 160 140 z M 0 160 L 0 181 L 21 181 L 21 160 L 0 160 z M 40 160 L 40 181 L 60 181 L 61 181 L 81 181 L 81 160 L 61 160 L 60 160 L 40 160 z M 160 180 L 160 201 L 180 201 L 181 201 L 200 201 L 201 201 L 220 201 L 221 201 L 240 201 L 241 201 L 261 201 L 261 180 L 241 180 L 240 180 L 221 180 L 220 180 L 201 180 L 200 180 L 181 180 L 180 180 L 160 180 z M 0 200 L 0 221 L 21 221 L 21 200 L 0 200 z M 40 200 L 40 221 L 60 221 L 61 221 L 81 221 L 81 200 L 61 200 L 60 200 L 40 200 z "
     id="rect156" />
  <path
     style="fill:#ffffff"
     d="M 120 100 L 120 120 L 120 121 L 120 140 L 120 141 L 120 160 L 120 161 L 120 180 L 120 181 L 120 200 L 120 201 L 120 221 L 140 221 L 141 221 L 160 221 L 161 221 L 180 221 L 181 221 L 200 221 L 201 221 L 220 221 L 221 221 L 240 221 L 241 221 L 260 221 L 261 221 L 280 221 L 281 221 L 301 221 L 301 201 L 301 200 L 301 181 L 301 180 L 301 161 L 301 160 L 301 140 L 281 140 L 280 140 L 261 140 L 261 121 L 261 120 L 261 100 L 241 100 L 240 100 L 221 100 L 220 100 L 201 100 L 200 100 L 181 100 L 180 100 L 161 100 L 160 100 L 141 100 L 140 100 L 120 100 z M 161 141 L 180 141 L 181 141 L 200 141 L 201 141 L 220 141 L 220 160 L 201 160 L 200 160 L 181 160 L 180 160 L 161 160 L 161 141 z M 161 181 L 180 181 L 181 181 L 200 181 L 201 181 L 220 181 L 221 181 L 240 181 L 241 181 L 260 181 L 260 200 L 241 200 L 240 200 L 221 200 L 220 200 L 201 200 L 200 200 L 181 200 L 180 200 L 161 200 L 161 181 z "
     id="rect176" />
  <path
     style="fill:#000000"
     d="M 100 80 L 100 100 L 100 101 L 100 120 L 100 121 L 100 140 L 100 141 L 100 160 L 100 161 L 100 180 L 100 181 L 100 200 L 100 201 L 100 220 L 100 221 L 100 241 L 120 241 L 121 241 L 140 241 L 141 241 L 160 241 L 161 241 L 180 241 L 181 241 L 200 241 L 201 241 L 220 241 L 221 241 L 240 241 L 241 241 L 260 241 L 261 241 L 280 241 L 281 241 L 300 241 L 301 241 L 321 241 L 321 221 L 321 220 L 321 201 L 321 200 L 321 181 L 321 180 L 321 161 L 321 160 L 321 141 L 321 140 L 321 121 L 321 120 L 321 101 L 321 100 L 321 80 L 301 80 L 300 80 L 281 80 L 280 80 L 261 80 L 260 80 L 241 80 L 240 80 L 221 80 L 220 80 L 201 80 L 200 80 L 181 80 L 180 80 L 161 80 L 160 80 L 141 80 L 140 80 L 121 80 L 120 80 L 100 80 z M 121 101 L 140 101 L 141 101 L 160 101 L 161 101 L 180 101 L 181 101 L 200 101 L 201 101 L 220 101 L 221 101 L 240 101 L 241 101 L 260 101 L 260 121 L 280 121 L 280 141 L 300 141 L 300 160 L 300 161 L 300 180 L 300 181 L 300 200 L 300 201 L 300 220 L 281 220 L 280 220 L 261 220 L 260 220 L 241 220 L 240 220 L 221 220 L 220 220 L 201 220 L 200 220 L 181 220 L 180 220 L 161 220 L 160 220 L 141 220 L 140 220 L 121 220 L 121 201 L 121 200 L 121 181 L 121 180 L 121 161 L 121 160 L 121 141 L 121 140 L 121 121 L 121 120 L 121 101 z M 281 101 L 300 101 L 300 120 L 281 120 L 281 101 z "
     id="rect200" />
</svg>
