<?xml version="1.0" encoding="UTF-8" standalone="no"?>
<svg
   xmlns:dc="http://purl.org/dc/elements/1.1/"
   xmlns:cc="http://creativecommons.org/ns#"
   xmlns:rdf="http://www.w3.org/1999/02/22-rdf-syntax-ns#"
   xmlns:svg="http://www.w3.org/2000/svg"
   xmlns="http://www.w3.org/2000/svg"
   xmlns:sodipodi="http://sodipodi.sourceforge.net/DTD/sodipodi-0.dtd"
   xmlns:inkscape="http://www.inkscape.org/namespaces/inkscape"
   id="svg1720"
   width="128px"
   version="1.1"
   height="128px"
   sodipodi:docname="chicago95_tmp_file.svg"
   inkscape:version="0.92.4 (5da689c313, 2019-01-14)">
  <sodipodi:namedview
     pagecolor="#ffffff"
     bordercolor="#666666"
     borderopacity="1"
     objecttolerance="10"
     gridtolerance="10"
     guidetolerance="10"
     inkscape:pageopacity="0"
     inkscape:pageshadow="2"
     inkscape:window-width="640"
     inkscape:window-height="480"
     id="namedview863"
     showgrid="false"
     inkscape:zoom="1.84375"
     inkscape:cx="64"
     inkscape:cy="64"
     inkscape:window-x="0"
     inkscape:window-y="0"
     inkscape:window-maximized="0"
     inkscape:current-layer="svg1720" />
  <metadata
     id="metadata1724">
    <rdf:RDF>
      <cc:Work
         rdf:about="">
        <dc:format>image/svg+xml</dc:format>
        <dc:type
           rdf:resource="http://purl.org/dc/dcmitype/StillImage" />
      </cc:Work>
    </rdf:RDF>
  </metadata>
  <defs
     id="defs2" />
  <path
     style="fill:#800000"
     d="M 80 16 L 80 20 L 80 24 L 80 28 L 84 28 L 88 28 L 92 28 L 96 28 L 96 24 L 96 20 L 96 16 L 92 16 L 88 16 L 84 16 L 80 16 z M 104 68 L 104 72 L 104 76 L 104 80 L 108 80 L 112 80 L 116 80 L 120 80 L 120 76 L 120 72 L 120 68 L 116 68 L 112 68 L 108 68 L 104 68 z "
     id="rect1092" />
  <path
     style="fill:#000080"
     d="M 104 8 L 104 12 L 108 12 L 112 12 L 116 12 L 120 12 L 120 8 L 116 8 L 112 8 L 108 8 L 104 8 z M 124 8 L 124 12 L 128 12 L 128 8 L 124 8 z M 8 12 L 8 16 L 12 16 L 16 16 L 20 16 L 24 16 L 28 16 L 28 12 L 24 12 L 20 12 L 16 12 L 12 12 L 8 12 z M 104 16 L 104 20 L 108 20 L 112 20 L 116 20 L 120 20 L 120 16 L 116 16 L 112 16 L 108 16 L 104 16 z M 124 16 L 124 20 L 128 20 L 128 16 L 124 16 z M 8 20 L 8 24 L 12 24 L 16 24 L 20 24 L 24 24 L 28 24 L 28 20 L 24 20 L 20 20 L 16 20 L 12 20 L 8 20 z M 104 24 L 104 28 L 108 28 L 112 28 L 116 28 L 120 28 L 120 24 L 116 24 L 112 24 L 108 24 L 104 24 z M 124 24 L 124 28 L 128 28 L 128 24 L 124 24 z M 32 32 L 32 36 L 36 36 L 40 36 L 44 36 L 48 36 L 52 36 L 56 36 L 60 36 L 64 36 L 68 36 L 72 36 L 76 36 L 76 32 L 72 32 L 68 32 L 64 32 L 60 32 L 56 32 L 52 32 L 48 32 L 44 32 L 40 32 L 36 32 L 32 32 z M 104 32 L 104 36 L 108 36 L 112 36 L 116 36 L 120 36 L 120 32 L 116 32 L 112 32 L 108 32 L 104 32 z M 124 32 L 124 36 L 128 36 L 128 32 L 124 32 z M 32 40 L 32 44 L 36 44 L 40 44 L 44 44 L 48 44 L 52 44 L 56 44 L 60 44 L 64 44 L 68 44 L 72 44 L 76 44 L 76 40 L 72 40 L 68 40 L 64 40 L 60 40 L 56 40 L 52 40 L 48 40 L 44 40 L 40 40 L 36 40 L 32 40 z M 104 40 L 104 44 L 108 44 L 112 44 L 116 44 L 120 44 L 120 40 L 116 40 L 112 40 L 108 40 L 104 40 z M 124 40 L 124 44 L 128 44 L 128 40 L 124 40 z M 32 48 L 32 52 L 36 52 L 40 52 L 44 52 L 48 52 L 52 52 L 56 52 L 60 52 L 64 52 L 68 52 L 72 52 L 76 52 L 76 48 L 72 48 L 68 48 L 64 48 L 60 48 L 56 48 L 52 48 L 48 48 L 44 48 L 40 48 L 36 48 L 32 48 z M 104 48 L 104 52 L 108 52 L 112 52 L 116 52 L 120 52 L 120 48 L 116 48 L 112 48 L 108 48 L 104 48 z M 124 48 L 124 52 L 128 52 L 128 48 L 124 48 z M 32 64 L 32 68 L 36 68 L 40 68 L 44 68 L 48 68 L 52 68 L 52 64 L 48 64 L 44 64 L 40 64 L 36 64 L 32 64 z M 0 72 L 0 76 L 4 76 L 4 72 L 0 72 z M 8 72 L 8 76 L 12 76 L 16 76 L 20 76 L 24 76 L 24 72 L 20 72 L 16 72 L 12 72 L 8 72 z M 32 72 L 32 76 L 36 76 L 40 76 L 44 76 L 48 76 L 52 76 L 52 72 L 48 72 L 44 72 L 40 72 L 36 72 L 32 72 z M 0 80 L 0 84 L 4 84 L 4 80 L 0 80 z M 8 80 L 8 84 L 12 84 L 16 84 L 20 84 L 24 84 L 24 80 L 20 80 L 16 80 L 12 80 L 8 80 z M 56 84 L 56 88 L 60 88 L 64 88 L 68 88 L 72 88 L 76 88 L 80 88 L 84 88 L 88 88 L 92 88 L 96 88 L 100 88 L 100 84 L 96 84 L 92 84 L 88 84 L 84 84 L 80 84 L 76 84 L 72 84 L 68 84 L 64 84 L 60 84 L 56 84 z M 0 88 L 0 92 L 4 92 L 4 88 L 0 88 z M 8 88 L 8 92 L 12 92 L 16 92 L 20 92 L 24 92 L 24 88 L 20 88 L 16 88 L 12 88 L 8 88 z M 56 92 L 56 96 L 60 96 L 64 96 L 68 96 L 72 96 L 76 96 L 80 96 L 84 96 L 88 96 L 92 96 L 96 96 L 100 96 L 100 92 L 96 92 L 92 92 L 88 92 L 84 92 L 80 92 L 76 92 L 72 92 L 68 92 L 64 92 L 60 92 L 56 92 z M 0 96 L 0 100 L 4 100 L 4 96 L 0 96 z M 8 96 L 8 100 L 12 100 L 16 100 L 20 100 L 24 100 L 24 96 L 20 96 L 16 96 L 12 96 L 8 96 z M 56 100 L 56 104 L 60 104 L 64 104 L 68 104 L 72 104 L 76 104 L 80 104 L 84 104 L 88 104 L 92 104 L 96 104 L 100 104 L 100 100 L 96 100 L 92 100 L 88 100 L 84 100 L 80 100 L 76 100 L 72 100 L 68 100 L 64 100 L 60 100 L 56 100 z M 0 104 L 0 108 L 4 108 L 4 104 L 0 104 z M 8 104 L 8 108 L 12 108 L 16 108 L 20 108 L 24 108 L 24 104 L 20 104 L 16 104 L 12 104 L 8 104 z M 0 112 L 0 116 L 4 116 L 4 112 L 0 112 z M 8 112 L 8 116 L 12 116 L 16 116 L 20 116 L 24 116 L 24 112 L 20 112 L 16 112 L 12 112 L 8 112 z "
     id="rect1562" />
  <path
     style="fill:#c0c0c0"
     d="M 96 8 L 96 12 L 100 12 L 104 12 L 104 8 L 100 8 L 96 8 z M 96 16 L 96 20 L 100 20 L 104 20 L 104 16 L 100 16 L 96 16 z M 96 24 L 96 28 L 100 28 L 104 28 L 104 24 L 100 24 L 96 24 z M 96 32 L 96 36 L 100 36 L 104 36 L 104 32 L 100 32 L 96 32 z M 96 40 L 96 44 L 100 44 L 104 44 L 104 40 L 100 40 L 96 40 z M 96 48 L 96 52 L 100 52 L 104 52 L 104 48 L 100 48 L 96 48 z M 24 64 L 24 68 L 28 68 L 32 68 L 32 64 L 28 64 L 24 64 z M 24 72 L 24 76 L 28 76 L 32 76 L 32 72 L 28 72 L 24 72 z M 24 80 L 24 84 L 28 84 L 32 84 L 32 80 L 28 80 L 24 80 z M 24 88 L 24 92 L 28 92 L 32 92 L 32 88 L 28 88 L 24 88 z M 24 96 L 24 100 L 28 100 L 32 100 L 32 96 L 28 96 L 24 96 z M 24 104 L 24 108 L 28 108 L 32 108 L 32 104 L 28 104 L 24 104 z M 24 112 L 24 116 L 28 116 L 32 116 L 32 112 L 28 112 L 24 112 z "
     id="rect1566" />
  <path
     style="fill:#ffffff"
     d="M 4 8 L 4 12 L 4 16 L 4 20 L 4 24 L 4 28 L 4 32 L 4 36 L 4 40 L 4 44 L 4 48 L 4 52 L 4 56 L 4 60 L 4 64 L 8 64 L 12 64 L 16 64 L 20 64 L 24 64 L 24 60 L 24 56 L 28 56 L 32 56 L 36 56 L 40 56 L 44 56 L 48 56 L 52 56 L 56 56 L 60 56 L 64 56 L 68 56 L 72 56 L 76 56 L 80 56 L 84 56 L 88 56 L 92 56 L 96 56 L 96 52 L 96 48 L 96 44 L 96 40 L 96 36 L 96 32 L 96 28 L 92 28 L 88 28 L 84 28 L 80 28 L 80 24 L 80 20 L 80 16 L 84 16 L 88 16 L 92 16 L 96 16 L 96 12 L 96 8 L 92 8 L 88 8 L 84 8 L 80 8 L 76 8 L 72 8 L 68 8 L 64 8 L 60 8 L 56 8 L 52 8 L 48 8 L 44 8 L 40 8 L 36 8 L 32 8 L 28 8 L 24 8 L 20 8 L 16 8 L 12 8 L 8 8 L 4 8 z M 8 12 L 12 12 L 16 12 L 20 12 L 24 12 L 28 12 L 28 16 L 24 16 L 20 16 L 16 16 L 12 16 L 8 16 L 8 12 z M 8 20 L 12 20 L 16 20 L 20 20 L 24 20 L 28 20 L 28 24 L 24 24 L 20 24 L 16 24 L 12 24 L 8 24 L 8 20 z M 32 32 L 36 32 L 40 32 L 44 32 L 48 32 L 52 32 L 56 32 L 60 32 L 64 32 L 68 32 L 72 32 L 76 32 L 76 36 L 72 36 L 68 36 L 64 36 L 60 36 L 56 36 L 52 36 L 48 36 L 44 36 L 40 36 L 36 36 L 32 36 L 32 32 z M 32 40 L 36 40 L 40 40 L 44 40 L 48 40 L 52 40 L 56 40 L 60 40 L 64 40 L 68 40 L 72 40 L 76 40 L 76 44 L 72 44 L 68 44 L 64 44 L 60 44 L 56 44 L 52 44 L 48 44 L 44 44 L 40 44 L 36 44 L 32 44 L 32 40 z M 32 48 L 36 48 L 40 48 L 44 48 L 48 48 L 52 48 L 56 48 L 60 48 L 64 48 L 68 48 L 72 48 L 76 48 L 76 52 L 72 52 L 68 52 L 64 52 L 60 52 L 56 52 L 52 52 L 48 52 L 44 52 L 40 52 L 36 52 L 32 52 L 32 48 z M 28 60 L 28 64 L 32 64 L 36 64 L 40 64 L 44 64 L 48 64 L 52 64 L 52 68 L 48 68 L 44 68 L 40 68 L 36 68 L 32 68 L 28 68 L 28 72 L 32 72 L 36 72 L 40 72 L 44 72 L 48 72 L 52 72 L 52 76 L 48 76 L 44 76 L 40 76 L 36 76 L 32 76 L 28 76 L 28 80 L 32 80 L 32 84 L 28 84 L 28 88 L 32 88 L 32 92 L 28 92 L 28 96 L 32 96 L 32 100 L 28 100 L 28 104 L 32 104 L 32 108 L 28 108 L 28 112 L 32 112 L 32 116 L 36 116 L 40 116 L 44 116 L 48 116 L 52 116 L 56 116 L 60 116 L 64 116 L 68 116 L 72 116 L 76 116 L 80 116 L 84 116 L 88 116 L 92 116 L 96 116 L 100 116 L 104 116 L 108 116 L 112 116 L 116 116 L 120 116 L 120 112 L 120 108 L 120 104 L 120 100 L 120 96 L 120 92 L 120 88 L 120 84 L 120 80 L 116 80 L 112 80 L 108 80 L 104 80 L 104 76 L 104 72 L 104 68 L 108 68 L 112 68 L 116 68 L 120 68 L 120 64 L 120 60 L 116 60 L 112 60 L 108 60 L 104 60 L 100 60 L 96 60 L 92 60 L 88 60 L 84 60 L 80 60 L 76 60 L 72 60 L 68 60 L 64 60 L 60 60 L 56 60 L 52 60 L 48 60 L 44 60 L 40 60 L 36 60 L 32 60 L 28 60 z M 56 84 L 60 84 L 64 84 L 68 84 L 72 84 L 76 84 L 80 84 L 84 84 L 88 84 L 92 84 L 96 84 L 100 84 L 100 88 L 96 88 L 92 88 L 88 88 L 84 88 L 80 88 L 76 88 L 72 88 L 68 88 L 64 88 L 60 88 L 56 88 L 56 84 z M 56 92 L 60 92 L 64 92 L 68 92 L 72 92 L 76 92 L 80 92 L 84 92 L 88 92 L 92 92 L 96 92 L 100 92 L 100 96 L 96 96 L 92 96 L 88 96 L 84 96 L 80 96 L 76 96 L 72 96 L 68 96 L 64 96 L 60 96 L 56 96 L 56 92 z M 56 100 L 60 100 L 64 100 L 68 100 L 72 100 L 76 100 L 80 100 L 84 100 L 88 100 L 92 100 L 96 100 L 100 100 L 100 104 L 96 104 L 92 104 L 88 104 L 84 104 L 80 104 L 76 104 L 72 104 L 68 104 L 64 104 L 60 104 L 56 104 L 56 100 z "
     id="rect1610" />
  <path
     style="fill:#808080"
     d="M 0 4 L 0 8 L 0 12 L 0 16 L 0 20 L 0 24 L 0 28 L 0 32 L 0 36 L 0 40 L 0 44 L 0 48 L 0 52 L 0 56 L 0 60 L 0 64 L 0 68 L 4 68 L 8 68 L 12 68 L 16 68 L 20 68 L 24 68 L 24 64 L 20 64 L 16 64 L 12 64 L 8 64 L 4 64 L 4 60 L 4 56 L 4 52 L 4 48 L 4 44 L 4 40 L 4 36 L 4 32 L 4 28 L 4 24 L 4 20 L 4 16 L 4 12 L 4 8 L 8 8 L 12 8 L 16 8 L 20 8 L 24 8 L 28 8 L 32 8 L 36 8 L 40 8 L 44 8 L 48 8 L 52 8 L 56 8 L 60 8 L 64 8 L 68 8 L 72 8 L 76 8 L 80 8 L 84 8 L 88 8 L 92 8 L 96 8 L 100 8 L 100 4 L 96 4 L 92 4 L 88 4 L 84 4 L 80 4 L 76 4 L 72 4 L 68 4 L 64 4 L 60 4 L 56 4 L 52 4 L 48 4 L 44 4 L 40 4 L 36 4 L 32 4 L 28 4 L 24 4 L 20 4 L 16 4 L 12 4 L 8 4 L 4 4 L 0 4 z M 24 64 L 28 64 L 28 60 L 32 60 L 36 60 L 40 60 L 44 60 L 48 60 L 52 60 L 56 60 L 60 60 L 64 60 L 68 60 L 72 60 L 76 60 L 80 60 L 84 60 L 88 60 L 92 60 L 96 60 L 100 60 L 104 60 L 108 60 L 112 60 L 116 60 L 120 60 L 120 64 L 120 68 L 120 72 L 120 76 L 120 80 L 120 84 L 120 88 L 120 92 L 120 96 L 120 100 L 120 104 L 120 108 L 120 112 L 120 116 L 116 116 L 112 116 L 108 116 L 104 116 L 100 116 L 96 116 L 92 116 L 88 116 L 84 116 L 80 116 L 76 116 L 72 116 L 68 116 L 64 116 L 60 116 L 56 116 L 52 116 L 48 116 L 44 116 L 40 116 L 36 116 L 32 116 L 28 116 L 24 116 L 24 120 L 28 120 L 32 120 L 36 120 L 40 120 L 44 120 L 48 120 L 52 120 L 56 120 L 60 120 L 64 120 L 68 120 L 72 120 L 76 120 L 80 120 L 84 120 L 88 120 L 92 120 L 96 120 L 100 120 L 104 120 L 108 120 L 112 120 L 116 120 L 120 120 L 124 120 L 124 116 L 124 112 L 124 108 L 124 104 L 124 100 L 124 96 L 124 92 L 124 88 L 124 84 L 124 80 L 124 76 L 124 72 L 124 68 L 124 64 L 124 60 L 124 56 L 120 56 L 116 56 L 112 56 L 108 56 L 104 56 L 100 56 L 100 52 L 96 52 L 96 56 L 92 56 L 88 56 L 84 56 L 80 56 L 76 56 L 72 56 L 68 56 L 64 56 L 60 56 L 56 56 L 52 56 L 48 56 L 44 56 L 40 56 L 36 56 L 32 56 L 28 56 L 24 56 L 24 60 L 24 64 z M 24 68 L 24 72 L 28 72 L 28 68 L 24 68 z M 96 12 L 96 16 L 100 16 L 100 12 L 96 12 z M 96 20 L 96 24 L 100 24 L 100 20 L 96 20 z M 96 28 L 96 32 L 100 32 L 100 28 L 96 28 z M 96 36 L 96 40 L 100 40 L 100 36 L 96 36 z M 96 44 L 96 48 L 100 48 L 100 44 L 96 44 z M 24 76 L 24 80 L 28 80 L 28 76 L 24 76 z M 24 84 L 24 88 L 28 88 L 28 84 L 24 84 z M 24 92 L 24 96 L 28 96 L 28 92 L 24 92 z M 24 100 L 24 104 L 28 104 L 28 100 L 24 100 z M 24 108 L 24 112 L 28 112 L 28 108 L 24 108 z "
     id="rect1664" />
  <path
     style="fill:#000000"
     d="M 100 4 L 100 8 L 104 8 L 104 4 L 100 4 z M 100 12 L 100 16 L 104 16 L 104 12 L 100 12 z M 100 20 L 100 24 L 104 24 L 104 20 L 100 20 z M 100 28 L 100 32 L 104 32 L 104 28 L 100 28 z M 100 36 L 100 40 L 104 40 L 104 36 L 100 36 z M 100 44 L 100 48 L 104 48 L 104 44 L 100 44 z M 100 52 L 100 56 L 104 56 L 104 52 L 100 52 z M 124 56 L 124 60 L 124 64 L 124 68 L 124 72 L 124 76 L 124 80 L 124 84 L 124 88 L 124 92 L 124 96 L 124 100 L 124 104 L 124 108 L 124 112 L 124 116 L 124 120 L 120 120 L 116 120 L 112 120 L 108 120 L 104 120 L 100 120 L 96 120 L 92 120 L 88 120 L 84 120 L 80 120 L 76 120 L 72 120 L 68 120 L 64 120 L 60 120 L 56 120 L 52 120 L 48 120 L 44 120 L 40 120 L 36 120 L 32 120 L 28 120 L 24 120 L 24 124 L 28 124 L 32 124 L 36 124 L 40 124 L 44 124 L 48 124 L 52 124 L 56 124 L 60 124 L 64 124 L 68 124 L 72 124 L 76 124 L 80 124 L 84 124 L 88 124 L 92 124 L 96 124 L 100 124 L 104 124 L 108 124 L 112 124 L 116 124 L 120 124 L 124 124 L 128 124 L 128 120 L 128 116 L 128 112 L 128 108 L 128 104 L 128 100 L 128 96 L 128 92 L 128 88 L 128 84 L 128 80 L 128 76 L 128 72 L 128 68 L 128 64 L 128 60 L 128 56 L 124 56 z "
     id="rect1718" />
</svg>
