<?xml version="1.0" encoding="UTF-8" standalone="no"?>
<svg
   xmlns:dc="http://purl.org/dc/elements/1.1/"
   xmlns:cc="http://creativecommons.org/ns#"
   xmlns:rdf="http://www.w3.org/1999/02/22-rdf-syntax-ns#"
   xmlns:svg="http://www.w3.org/2000/svg"
   xmlns="http://www.w3.org/2000/svg"
   xmlns:sodipodi="http://sodipodi.sourceforge.net/DTD/sodipodi-0.dtd"
   xmlns:inkscape="http://www.inkscape.org/namespaces/inkscape"
   id="svg852"
   width="128px"
   version="1.1"
   height="128px"
   sodipodi:docname="chicago95_tmp_file.svg"
   inkscape:version="0.92.4 (5da689c313, 2019-01-14)">
  <sodipodi:namedview
     pagecolor="#ffffff"
     bordercolor="#666666"
     borderopacity="1"
     objecttolerance="10"
     gridtolerance="10"
     guidetolerance="10"
     inkscape:pageopacity="0"
     inkscape:pageshadow="2"
     inkscape:window-width="640"
     inkscape:window-height="480"
     id="namedview429"
     showgrid="false"
     inkscape:zoom="1.84375"
     inkscape:cx="64"
     inkscape:cy="64"
     inkscape:window-x="0"
     inkscape:window-y="0"
     inkscape:window-maximized="0"
     inkscape:current-layer="svg852" />
  <metadata
     id="metadata856">
    <rdf:RDF>
      <cc:Work
         rdf:about="">
        <dc:format>image/svg+xml</dc:format>
        <dc:type
           rdf:resource="http://purl.org/dc/dcmitype/StillImage" />
      </cc:Work>
    </rdf:RDF>
  </metadata>
  <defs
     id="defs2" />
  <path
     style="fill:#ffffff"
     d="M 56 32 L 56 36 L 56 40 L 60 40 L 64 40 L 64 36 L 64 32 L 60 32 L 56 32 z M 56 40 L 52 40 L 48 40 L 44 40 L 40 40 L 40 44 L 40 48 L 36 48 L 32 48 L 28 48 L 24 48 L 24 52 L 24 56 L 24 60 L 24 64 L 28 64 L 32 64 L 32 68 L 32 72 L 28 72 L 24 72 L 24 76 L 24 80 L 24 84 L 24 88 L 24 92 L 24 96 L 28 96 L 32 96 L 36 96 L 40 96 L 40 92 L 40 88 L 36 88 L 32 88 L 32 84 L 32 80 L 36 80 L 40 80 L 44 80 L 48 80 L 52 80 L 56 80 L 56 76 L 56 72 L 56 68 L 56 64 L 60 64 L 64 64 L 64 60 L 64 56 L 60 56 L 56 56 L 52 56 L 48 56 L 48 52 L 48 48 L 52 48 L 56 48 L 56 44 L 56 40 z "
     id="rect758" />
  <path
     style="fill:#000000"
     d="M 16 16 L 16 20 L 16 24 L 12 24 L 8 24 L 8 28 L 8 32 L 4 32 L 0 32 L 0 36 L 0 40 L 0 44 L 0 48 L 0 52 L 0 56 L 0 60 L 0 64 L 0 68 L 0 72 L 4 72 L 8 72 L 8 76 L 8 80 L 12 80 L 16 80 L 16 84 L 16 88 L 12 88 L 8 88 L 8 92 L 8 96 L 12 96 L 16 96 L 20 96 L 24 96 L 24 92 L 24 88 L 24 84 L 24 80 L 24 76 L 24 72 L 28 72 L 32 72 L 32 68 L 32 64 L 28 64 L 24 64 L 24 60 L 24 56 L 24 52 L 24 48 L 28 48 L 32 48 L 36 48 L 40 48 L 40 44 L 40 40 L 44 40 L 48 40 L 52 40 L 56 40 L 56 36 L 56 32 L 60 32 L 64 32 L 64 36 L 64 40 L 68 40 L 72 40 L 72 36 L 72 32 L 72 28 L 72 24 L 68 24 L 64 24 L 60 24 L 56 24 L 56 20 L 56 16 L 52 16 L 48 16 L 44 16 L 40 16 L 36 16 L 32 16 L 28 16 L 24 16 L 20 16 L 16 16 z M 64 40 L 60 40 L 56 40 L 56 44 L 56 48 L 52 48 L 48 48 L 48 52 L 48 56 L 52 56 L 56 56 L 60 56 L 64 56 L 64 52 L 64 48 L 64 44 L 64 40 z M 64 56 L 64 60 L 64 64 L 68 64 L 72 64 L 72 60 L 72 56 L 68 56 L 64 56 z M 64 64 L 60 64 L 56 64 L 56 68 L 56 72 L 56 76 L 56 80 L 60 80 L 64 80 L 64 76 L 64 72 L 64 68 L 64 64 z M 56 80 L 52 80 L 48 80 L 44 80 L 40 80 L 36 80 L 32 80 L 32 84 L 32 88 L 36 88 L 40 88 L 40 92 L 40 96 L 36 96 L 32 96 L 28 96 L 24 96 L 24 100 L 24 104 L 28 104 L 32 104 L 36 104 L 40 104 L 44 104 L 48 104 L 48 100 L 48 96 L 48 92 L 48 88 L 52 88 L 56 88 L 56 84 L 56 80 z M 48 104 L 48 108 L 48 112 L 52 112 L 56 112 L 56 108 L 56 104 L 52 104 L 48 104 z M 8 96 L 4 96 L 0 96 L 0 100 L 0 104 L 0 108 L 0 112 L 4 112 L 8 112 L 8 108 L 8 104 L 8 100 L 8 96 z "
     id="rect846" />
  <path
     style="fill:#800000"
     d="M 112 32 L 112 36 L 112 40 L 116 40 L 120 40 L 120 36 L 120 32 L 116 32 L 112 32 z M 120 40 L 120 44 L 120 48 L 120 52 L 120 56 L 120 60 L 120 64 L 116 64 L 112 64 L 112 68 L 112 72 L 108 72 L 104 72 L 104 68 L 104 64 L 104 60 L 104 56 L 100 56 L 96 56 L 96 60 L 96 64 L 92 64 L 88 64 L 88 68 L 88 72 L 84 72 L 80 72 L 80 76 L 80 80 L 76 80 L 72 80 L 72 84 L 72 88 L 76 88 L 80 88 L 80 92 L 80 96 L 84 96 L 88 96 L 88 100 L 88 104 L 92 104 L 96 104 L 96 108 L 96 112 L 100 112 L 104 112 L 104 108 L 104 104 L 104 100 L 104 96 L 108 96 L 112 96 L 112 92 L 112 88 L 116 88 L 120 88 L 120 84 L 120 80 L 124 80 L 128 80 L 128 76 L 128 72 L 128 68 L 128 64 L 128 60 L 128 56 L 128 52 L 128 48 L 128 44 L 128 40 L 124 40 L 120 40 z "
     id="rect850" />
</svg>
