<?xml version="1.0" encoding="UTF-8" standalone="no"?>
<svg
   xmlns:dc="http://purl.org/dc/elements/1.1/"
   xmlns:cc="http://creativecommons.org/ns#"
   xmlns:rdf="http://www.w3.org/1999/02/22-rdf-syntax-ns#"
   xmlns:svg="http://www.w3.org/2000/svg"
   xmlns="http://www.w3.org/2000/svg"
   xmlns:sodipodi="http://sodipodi.sourceforge.net/DTD/sodipodi-0.dtd"
   xmlns:inkscape="http://www.inkscape.org/namespaces/inkscape"
   id="svg852"
   width="128px"
   version="1.1"
   height="128px"
   sodipodi:docname="chicago95_tmp_file.svg"
   inkscape:version="0.92.4 (5da689c313, 2019-01-14)">
  <sodipodi:namedview
     pagecolor="#ffffff"
     bordercolor="#666666"
     borderopacity="1"
     objecttolerance="10"
     gridtolerance="10"
     guidetolerance="10"
     inkscape:pageopacity="0"
     inkscape:pageshadow="2"
     inkscape:window-width="640"
     inkscape:window-height="480"
     id="namedview429"
     showgrid="false"
     inkscape:zoom="1.84375"
     inkscape:cx="64"
     inkscape:cy="64"
     inkscape:window-x="0"
     inkscape:window-y="0"
     inkscape:window-maximized="0"
     inkscape:current-layer="svg852" />
  <metadata
     id="metadata856">
    <rdf:RDF>
      <cc:Work
         rdf:about="">
        <dc:format>image/svg+xml</dc:format>
        <dc:type
           rdf:resource="http://purl.org/dc/dcmitype/StillImage" />
      </cc:Work>
    </rdf:RDF>
  </metadata>
  <defs
     id="defs2" />
  <path
     style="fill:#ffffff"
     d="M 112 32 L 112 36 L 112 40 L 116 40 L 120 40 L 120 36 L 120 32 L 116 32 L 112 32 z M 112 40 L 108 40 L 104 40 L 100 40 L 96 40 L 96 44 L 96 48 L 92 48 L 88 48 L 84 48 L 80 48 L 80 52 L 80 56 L 80 60 L 80 64 L 84 64 L 88 64 L 88 68 L 88 72 L 84 72 L 80 72 L 80 76 L 80 80 L 80 84 L 80 88 L 80 92 L 80 96 L 84 96 L 88 96 L 92 96 L 96 96 L 96 92 L 96 88 L 92 88 L 88 88 L 88 84 L 88 80 L 92 80 L 96 80 L 100 80 L 104 80 L 108 80 L 112 80 L 112 76 L 112 72 L 112 68 L 112 64 L 116 64 L 120 64 L 120 60 L 120 56 L 116 56 L 112 56 L 108 56 L 104 56 L 104 52 L 104 48 L 108 48 L 112 48 L 112 44 L 112 40 z "
     id="rect774" />
  <path
     style="fill:#800000"
     d="M 0 32 L 0 36 L 0 40 L 0 44 L 0 48 L 0 52 L 0 56 L 0 60 L 0 64 L 0 68 L 0 72 L 0 76 L 0 80 L 4 80 L 8 80 L 8 84 L 8 88 L 12 88 L 16 88 L 16 92 L 16 96 L 20 96 L 24 96 L 24 100 L 24 104 L 24 108 L 24 112 L 28 112 L 32 112 L 32 108 L 32 104 L 36 104 L 40 104 L 40 100 L 40 96 L 44 96 L 48 96 L 48 92 L 48 88 L 52 88 L 56 88 L 56 84 L 56 80 L 52 80 L 48 80 L 48 76 L 48 72 L 44 72 L 40 72 L 40 68 L 40 64 L 36 64 L 32 64 L 32 60 L 32 56 L 28 56 L 24 56 L 24 60 L 24 64 L 24 68 L 24 72 L 20 72 L 16 72 L 16 68 L 16 64 L 12 64 L 8 64 L 8 60 L 8 56 L 8 52 L 8 48 L 8 44 L 8 40 L 8 36 L 8 32 L 4 32 L 0 32 z "
     id="rect842" />
  <path
     style="fill:#000000"
     d="M 72 16 L 72 20 L 72 24 L 68 24 L 64 24 L 64 28 L 64 32 L 60 32 L 56 32 L 56 36 L 56 40 L 56 44 L 56 48 L 56 52 L 56 56 L 56 60 L 56 64 L 56 68 L 56 72 L 60 72 L 64 72 L 64 76 L 64 80 L 68 80 L 72 80 L 72 84 L 72 88 L 68 88 L 64 88 L 64 92 L 64 96 L 68 96 L 72 96 L 76 96 L 80 96 L 80 92 L 80 88 L 80 84 L 80 80 L 80 76 L 80 72 L 84 72 L 88 72 L 88 68 L 88 64 L 84 64 L 80 64 L 80 60 L 80 56 L 80 52 L 80 48 L 84 48 L 88 48 L 92 48 L 96 48 L 96 44 L 96 40 L 100 40 L 104 40 L 108 40 L 112 40 L 112 36 L 112 32 L 116 32 L 120 32 L 120 36 L 120 40 L 124 40 L 128 40 L 128 36 L 128 32 L 128 28 L 128 24 L 124 24 L 120 24 L 116 24 L 112 24 L 112 20 L 112 16 L 108 16 L 104 16 L 100 16 L 96 16 L 92 16 L 88 16 L 84 16 L 80 16 L 76 16 L 72 16 z M 120 40 L 116 40 L 112 40 L 112 44 L 112 48 L 108 48 L 104 48 L 104 52 L 104 56 L 108 56 L 112 56 L 116 56 L 120 56 L 120 52 L 120 48 L 120 44 L 120 40 z M 120 56 L 120 60 L 120 64 L 124 64 L 128 64 L 128 60 L 128 56 L 124 56 L 120 56 z M 120 64 L 116 64 L 112 64 L 112 68 L 112 72 L 112 76 L 112 80 L 116 80 L 120 80 L 120 76 L 120 72 L 120 68 L 120 64 z M 112 80 L 108 80 L 104 80 L 100 80 L 96 80 L 92 80 L 88 80 L 88 84 L 88 88 L 92 88 L 96 88 L 96 92 L 96 96 L 92 96 L 88 96 L 84 96 L 80 96 L 80 100 L 80 104 L 84 104 L 88 104 L 92 104 L 96 104 L 100 104 L 104 104 L 104 100 L 104 96 L 104 92 L 104 88 L 108 88 L 112 88 L 112 84 L 112 80 z M 104 104 L 104 108 L 104 112 L 108 112 L 112 112 L 112 108 L 112 104 L 108 104 L 104 104 z M 64 96 L 60 96 L 56 96 L 56 100 L 56 104 L 56 108 L 56 112 L 60 112 L 64 112 L 64 108 L 64 104 L 64 100 L 64 96 z "
     id="rect850" />
</svg>
