<?xml version="1.0" encoding="UTF-8" standalone="no"?>
<svg
   xmlns:dc="http://purl.org/dc/elements/1.1/"
   xmlns:cc="http://creativecommons.org/ns#"
   xmlns:rdf="http://www.w3.org/1999/02/22-rdf-syntax-ns#"
   xmlns:svg="http://www.w3.org/2000/svg"
   xmlns="http://www.w3.org/2000/svg"
   xmlns:sodipodi="http://sodipodi.sourceforge.net/DTD/sodipodi-0.dtd"
   xmlns:inkscape="http://www.inkscape.org/namespaces/inkscape"
   id="svg216"
   width="320px"
   version="1.1"
   height="300px"
   sodipodi:docname="chicago95_tmp_file.svg"
   inkscape:version="0.92.5 (2060ec1f9f, 2020-04-08)">
  <sodipodi:namedview
     pagecolor="#ffffff"
     bordercolor="#666666"
     borderopacity="1"
     objecttolerance="10"
     gridtolerance="10"
     guidetolerance="10"
     inkscape:pageopacity="0"
     inkscape:pageshadow="2"
     inkscape:window-width="640"
     inkscape:window-height="480"
     id="namedview111"
     showgrid="false"
     inkscape:zoom="0.78666667"
     inkscape:cx="160"
     inkscape:cy="150"
     inkscape:window-x="0"
     inkscape:window-y="0"
     inkscape:window-maximized="0"
     inkscape:current-layer="svg216" />
  <metadata
     id="metadata220">
    <rdf:RDF>
      <cc:Work
         rdf:about="">
        <dc:format>image/svg+xml</dc:format>
        <dc:type
           rdf:resource="http://purl.org/dc/dcmitype/StillImage" />
      </cc:Work>
    </rdf:RDF>
  </metadata>
  <defs
     id="defs2" />
  <path
     style="fill:#ffffff"
     d="M 280 80 L 280 100 L 261 100 L 260 100 L 240 100 L 240 120 L 220 120 L 220 140 L 200 140 L 200 161 L 220 161 L 220 180 L 200 180 L 200 200 L 200 201 L 200 220 L 180 220 L 180 241 L 200 241 L 201 241 L 220 241 L 221 241 L 240 241 L 241 241 L 261 241 L 261 220 L 241 220 L 241 201 L 260 201 L 261 201 L 281 201 L 281 181 L 281 180 L 281 161 L 301 161 L 301 140 L 281 140 L 280 140 L 261 140 L 261 121 L 281 121 L 281 101 L 301 101 L 301 80 L 280 80 z "
     id="rect194" />
  <path
     style="fill:#000000"
     d="M 180 40 L 180 60 L 160 60 L 160 80 L 140 80 L 140 100 L 140 101 L 140 120 L 140 121 L 140 140 L 140 141 L 140 160 L 140 161 L 140 181 L 160 181 L 160 201 L 180 201 L 180 220 L 160 220 L 160 241 L 180 241 L 180 261 L 200 261 L 201 261 L 220 261 L 221 261 L 240 261 L 241 261 L 260 261 L 261 261 L 280 261 L 281 261 L 301 261 L 301 240 L 281 240 L 281 221 L 281 220 L 281 201 L 301 201 L 301 181 L 301 180 L 301 161 L 321 161 L 321 140 L 301 140 L 301 121 L 301 120 L 301 101 L 321 101 L 321 81 L 321 80 L 321 60 L 301 60 L 300 60 L 281 60 L 281 40 L 261 40 L 260 40 L 241 40 L 240 40 L 221 40 L 220 40 L 201 40 L 200 40 L 180 40 z M 281 81 L 300 81 L 300 100 L 281 100 L 281 81 z M 241 101 L 260 101 L 261 101 L 280 101 L 280 120 L 260 120 L 260 141 L 280 141 L 281 141 L 300 141 L 300 160 L 280 160 L 280 180 L 280 181 L 280 200 L 261 200 L 260 200 L 240 200 L 240 221 L 260 221 L 260 240 L 241 240 L 240 240 L 221 240 L 220 240 L 201 240 L 200 240 L 181 240 L 181 221 L 201 221 L 201 201 L 201 200 L 201 181 L 221 181 L 221 160 L 201 160 L 201 141 L 221 141 L 221 121 L 241 121 L 241 101 z "
     id="rect212" />
  <path
     style="fill:#000080"
     d="M 0 60 L 0 81 L 21 81 L 21 60 L 0 60 z M 0 100 L 0 120 L 0 121 L 0 140 L 0 141 L 0 160 L 0 161 L 0 181 L 20 181 L 20 200 L 20 201 L 20 221 L 40 221 L 40 241 L 60 241 L 60 260 L 60 261 L 60 281 L 81 281 L 81 261 L 101 261 L 101 241 L 121 241 L 121 221 L 141 221 L 141 200 L 121 200 L 121 180 L 101 180 L 101 160 L 81 160 L 81 140 L 60 140 L 60 160 L 60 161 L 60 180 L 41 180 L 41 160 L 21 160 L 21 141 L 21 140 L 21 121 L 21 120 L 21 100 L 0 100 z "
     id="rect214" />
</svg>
