<?xml version="1.0" encoding="UTF-8" standalone="no"?>
<svg
   xmlns:dc="http://purl.org/dc/elements/1.1/"
   xmlns:cc="http://creativecommons.org/ns#"
   xmlns:rdf="http://www.w3.org/1999/02/22-rdf-syntax-ns#"
   xmlns:svg="http://www.w3.org/2000/svg"
   xmlns="http://www.w3.org/2000/svg"
   xmlns:sodipodi="http://sodipodi.sourceforge.net/DTD/sodipodi-0.dtd"
   xmlns:inkscape="http://www.inkscape.org/namespaces/inkscape"
   id="svg426"
   width="320px"
   version="1.1"
   height="320px"
   sodipodi:docname="chicago95_tmp_file.svg"
   inkscape:version="0.92.5 (2060ec1f9f, 2020-04-08)">
  <sodipodi:namedview
     pagecolor="#ffffff"
     bordercolor="#666666"
     borderopacity="1"
     objecttolerance="10"
     gridtolerance="10"
     guidetolerance="10"
     inkscape:pageopacity="0"
     inkscape:pageshadow="2"
     inkscape:window-width="640"
     inkscape:window-height="480"
     id="namedview216"
     showgrid="false"
     inkscape:zoom="0.7375"
     inkscape:cx="160"
     inkscape:cy="160"
     inkscape:window-x="0"
     inkscape:window-y="0"
     inkscape:window-maximized="0"
     inkscape:current-layer="svg426" />
  <metadata
     id="metadata430">
    <rdf:RDF>
      <cc:Work
         rdf:about="">
        <dc:format>image/svg+xml</dc:format>
        <dc:type
           rdf:resource="http://purl.org/dc/dcmitype/StillImage" />
      </cc:Work>
    </rdf:RDF>
  </metadata>
  <defs
     id="defs2" />
  <path
     style="fill:#800000"
     d="M 260 40 L 260 61 L 280 61 L 280 81 L 301 81 L 301 61 L 301 60 L 301 40 L 281 40 L 280 40 L 260 40 z "
     id="rect96" />
  <path
     style="fill:#000080"
     d="M 40 60 L 40 81 L 60 81 L 61 81 L 80 81 L 81 81 L 100 81 L 101 81 L 120 81 L 121 81 L 141 81 L 141 60 L 121 60 L 120 60 L 101 60 L 100 60 L 81 60 L 80 60 L 61 60 L 60 60 L 40 60 z M 40 100 L 40 121 L 60 121 L 61 121 L 80 121 L 81 121 L 100 121 L 101 121 L 120 121 L 121 121 L 140 121 L 141 121 L 160 121 L 161 121 L 181 121 L 181 100 L 161 100 L 160 100 L 141 100 L 140 100 L 121 100 L 120 100 L 101 100 L 100 100 L 81 100 L 80 100 L 61 100 L 60 100 L 40 100 z M 40 140 L 40 161 L 60 161 L 61 161 L 80 161 L 81 161 L 100 161 L 101 161 L 120 161 L 121 161 L 140 161 L 141 161 L 161 161 L 161 140 L 141 140 L 140 140 L 121 140 L 120 140 L 101 140 L 100 140 L 81 140 L 80 140 L 61 140 L 60 140 L 40 140 z "
     id="rect190" />
  <path
     style="fill:#ffffff"
     d="M 20 20 L 20 40 L 20 41 L 20 60 L 20 61 L 20 80 L 20 81 L 20 100 L 20 101 L 20 120 L 20 121 L 20 140 L 20 141 L 20 160 L 20 161 L 20 180 L 20 181 L 20 200 L 20 201 L 20 220 L 20 221 L 20 240 L 20 241 L 20 261 L 40 261 L 41 261 L 60 261 L 61 261 L 80 261 L 81 261 L 100 261 L 101 261 L 121 261 L 121 240 L 101 240 L 100 240 L 81 240 L 81 221 L 100 221 L 101 221 L 121 221 L 121 201 L 121 200 L 121 181 L 141 181 L 141 160 L 121 160 L 120 160 L 101 160 L 100 160 L 81 160 L 80 160 L 61 160 L 60 160 L 41 160 L 41 141 L 60 141 L 61 141 L 80 141 L 81 141 L 100 141 L 101 141 L 120 141 L 121 141 L 140 141 L 141 141 L 160 141 L 161 141 L 181 141 L 181 121 L 201 121 L 201 100 L 181 100 L 181 80 L 161 80 L 161 61 L 161 60 L 161 41 L 161 40 L 161 20 L 141 20 L 140 20 L 121 20 L 120 20 L 101 20 L 100 20 L 81 20 L 80 20 L 61 20 L 60 20 L 41 20 L 40 20 L 20 20 z M 180 40 L 180 61 L 201 61 L 201 40 L 180 40 z M 41 61 L 60 61 L 61 61 L 80 61 L 81 61 L 100 61 L 101 61 L 120 61 L 121 61 L 140 61 L 140 80 L 121 80 L 120 80 L 101 80 L 100 80 L 81 80 L 80 80 L 61 80 L 60 80 L 41 80 L 41 61 z M 41 101 L 60 101 L 61 101 L 80 101 L 81 101 L 100 101 L 101 101 L 120 101 L 121 101 L 140 101 L 141 101 L 160 101 L 161 101 L 180 101 L 180 120 L 161 120 L 160 120 L 141 120 L 140 120 L 121 120 L 120 120 L 101 120 L 100 120 L 81 120 L 80 120 L 61 120 L 60 120 L 41 120 L 41 101 z M 81 181 L 100 181 L 100 200 L 81 200 L 81 181 z M 61 201 L 80 201 L 80 220 L 61 220 L 61 201 z M 41 221 L 60 221 L 60 240 L 41 240 L 41 221 z "
     id="rect324" />
  <path
     style="fill:#c0c0c0"
     d="M 260 60 L 260 81 L 281 81 L 281 60 L 260 60 z M 180 80 L 180 101 L 200 101 L 201 101 L 221 101 L 221 80 L 201 80 L 200 80 L 180 80 z M 180 220 L 180 241 L 201 241 L 201 220 L 180 220 z M 220 220 L 220 241 L 241 241 L 241 220 L 220 220 z M 20 260 L 20 281 L 40 281 L 41 281 L 60 281 L 61 281 L 80 281 L 81 281 L 101 281 L 101 260 L 81 260 L 80 260 L 61 260 L 60 260 L 41 260 L 40 260 L 20 260 z M 180 260 L 180 281 L 201 281 L 201 260 L 180 260 z M 220 260 L 220 281 L 241 281 L 241 260 L 220 260 z "
     id="rect366" />
  <path
     style="fill:#808080"
     d="M 0 0 L 0 20 L 0 21 L 0 40 L 0 41 L 0 60 L 0 61 L 0 80 L 0 81 L 0 100 L 0 101 L 0 120 L 0 121 L 0 140 L 0 141 L 0 160 L 0 161 L 0 180 L 0 181 L 0 200 L 0 201 L 0 220 L 0 221 L 0 240 L 0 241 L 0 260 L 0 261 L 0 280 L 0 281 L 0 301 L 21 301 L 21 281 L 21 280 L 21 261 L 21 260 L 21 241 L 21 240 L 21 221 L 21 220 L 21 201 L 21 200 L 21 181 L 21 180 L 21 161 L 21 160 L 21 141 L 21 140 L 21 121 L 21 120 L 21 101 L 21 100 L 21 81 L 21 80 L 21 61 L 21 60 L 21 41 L 21 40 L 21 21 L 40 21 L 41 21 L 60 21 L 61 21 L 80 21 L 81 21 L 100 21 L 101 21 L 120 21 L 121 21 L 140 21 L 141 21 L 160 21 L 160 40 L 160 41 L 160 61 L 181 61 L 181 41 L 200 41 L 200 61 L 221 61 L 221 40 L 201 40 L 201 20 L 181 20 L 181 0 L 161 0 L 160 0 L 141 0 L 140 0 L 121 0 L 120 0 L 101 0 L 100 0 L 81 0 L 80 0 L 61 0 L 60 0 L 41 0 L 40 0 L 21 0 L 20 0 L 0 0 z M 120 180 L 120 201 L 141 201 L 141 180 L 120 180 z M 180 200 L 180 221 L 201 221 L 201 200 L 180 200 z M 220 200 L 220 221 L 241 221 L 241 200 L 220 200 z "
     id="rect376" />
  <path
     style="fill:#ffff00"
     d="M 240 80 L 240 100 L 220 100 L 220 120 L 200 120 L 200 140 L 180 140 L 180 160 L 180 161 L 180 180 L 160 180 L 160 200 L 160 201 L 160 220 L 140 220 L 140 240 L 140 241 L 140 260 L 120 260 L 120 280 L 120 281 L 120 301 L 140 301 L 141 301 L 160 301 L 161 301 L 180 301 L 181 301 L 200 301 L 201 301 L 220 301 L 221 301 L 240 301 L 241 301 L 260 301 L 261 301 L 280 301 L 281 301 L 301 301 L 301 281 L 301 280 L 301 260 L 281 260 L 281 241 L 281 240 L 281 220 L 261 220 L 261 201 L 261 200 L 261 180 L 241 180 L 241 161 L 241 160 L 241 140 L 221 140 L 221 121 L 241 121 L 241 101 L 261 101 L 261 80 L 240 80 z M 201 161 L 220 161 L 220 181 L 240 181 L 240 200 L 240 201 L 240 220 L 240 221 L 240 240 L 221 240 L 220 240 L 201 240 L 200 240 L 181 240 L 181 221 L 181 220 L 181 201 L 181 200 L 181 181 L 201 181 L 201 161 z M 181 261 L 200 261 L 201 261 L 220 261 L 221 261 L 240 261 L 240 280 L 221 280 L 220 280 L 201 280 L 200 280 L 181 280 L 181 261 z "
     id="rect404" />
  <path
     style="fill:#808000"
     d="M 240 60 L 240 80 L 220 80 L 220 100 L 200 100 L 200 120 L 180 120 L 180 140 L 160 140 L 160 160 L 140 160 L 140 180 L 140 181 L 140 200 L 140 201 L 140 220 L 120 220 L 120 240 L 120 241 L 120 260 L 100 260 L 100 280 L 100 281 L 100 301 L 120 301 L 120 321 L 141 321 L 141 300 L 121 300 L 121 281 L 121 280 L 121 261 L 141 261 L 141 241 L 141 240 L 141 221 L 161 221 L 161 201 L 161 200 L 161 181 L 181 181 L 181 161 L 181 160 L 181 141 L 201 141 L 201 121 L 221 121 L 221 101 L 241 101 L 241 81 L 261 81 L 261 60 L 240 60 z "
     id="rect408" />
  <path
     style="fill:#000000"
     d="M 160 60 L 160 81 L 180 81 L 181 81 L 200 81 L 201 81 L 220 81 L 221 81 L 241 81 L 241 60 L 221 60 L 220 60 L 201 60 L 200 60 L 181 60 L 180 60 L 160 60 z M 260 80 L 260 100 L 240 100 L 240 120 L 220 120 L 220 141 L 240 141 L 240 160 L 240 161 L 240 180 L 221 180 L 221 160 L 200 160 L 200 180 L 180 180 L 180 201 L 200 201 L 200 220 L 200 221 L 200 241 L 221 241 L 221 221 L 221 220 L 221 201 L 241 201 L 241 181 L 260 181 L 260 200 L 260 201 L 260 221 L 280 221 L 280 240 L 280 241 L 280 261 L 300 261 L 300 280 L 300 281 L 300 300 L 281 300 L 280 300 L 261 300 L 260 300 L 241 300 L 240 300 L 221 300 L 220 300 L 201 300 L 200 300 L 181 300 L 180 300 L 161 300 L 160 300 L 140 300 L 140 321 L 160 321 L 161 321 L 180 321 L 181 321 L 200 321 L 201 321 L 220 321 L 221 321 L 240 321 L 241 321 L 260 321 L 261 321 L 280 321 L 281 321 L 301 321 L 301 301 L 321 301 L 321 281 L 321 280 L 321 260 L 301 260 L 301 241 L 301 240 L 301 220 L 281 220 L 281 201 L 281 200 L 281 180 L 261 180 L 261 161 L 261 160 L 261 140 L 241 140 L 241 121 L 261 121 L 261 101 L 281 101 L 281 80 L 260 80 z M 80 180 L 80 200 L 60 200 L 60 220 L 40 220 L 40 241 L 61 241 L 61 221 L 80 221 L 80 241 L 100 241 L 101 241 L 121 241 L 121 221 L 141 221 L 141 200 L 120 200 L 120 220 L 101 220 L 100 220 L 81 220 L 81 201 L 101 201 L 101 180 L 80 180 z M 200 260 L 200 281 L 221 281 L 221 260 L 200 260 z M 20 280 L 20 301 L 40 301 L 41 301 L 60 301 L 61 301 L 80 301 L 81 301 L 101 301 L 101 280 L 81 280 L 80 280 L 61 280 L 60 280 L 41 280 L 40 280 L 20 280 z "
     id="rect424" />
</svg>
