<?xml version="1.0" encoding="UTF-8" standalone="no"?>
<svg
   xmlns:dc="http://purl.org/dc/elements/1.1/"
   xmlns:cc="http://creativecommons.org/ns#"
   xmlns:rdf="http://www.w3.org/1999/02/22-rdf-syntax-ns#"
   xmlns:svg="http://www.w3.org/2000/svg"
   xmlns="http://www.w3.org/2000/svg"
   xmlns:sodipodi="http://sodipodi.sourceforge.net/DTD/sodipodi-0.dtd"
   xmlns:inkscape="http://www.inkscape.org/namespaces/inkscape"
   id="svg556"
   width="128px"
   version="1.1"
   height="128px"
   sodipodi:docname="chicago95_tmp_file.svg"
   inkscape:version="0.92.4 (5da689c313, 2019-01-14)">
  <sodipodi:namedview
     pagecolor="#ffffff"
     bordercolor="#666666"
     borderopacity="1"
     objecttolerance="10"
     gridtolerance="10"
     guidetolerance="10"
     inkscape:pageopacity="0"
     inkscape:pageshadow="2"
     inkscape:window-width="640"
     inkscape:window-height="480"
     id="namedview281"
     showgrid="false"
     inkscape:zoom="1.84375"
     inkscape:cx="64"
     inkscape:cy="64"
     inkscape:window-x="0"
     inkscape:window-y="0"
     inkscape:window-maximized="0"
     inkscape:current-layer="svg556" />
  <metadata
     id="metadata560">
    <rdf:RDF>
      <cc:Work
         rdf:about="">
        <dc:format>image/svg+xml</dc:format>
        <dc:type
           rdf:resource="http://purl.org/dc/dcmitype/StillImage" />
      </cc:Work>
    </rdf:RDF>
  </metadata>
  <defs
     id="defs2" />
  <path
     style="fill:#ff0000"
     d="M 40 32 L 40 36 L 40 40 L 36 40 L 32 40 L 32 44 L 32 48 L 28 48 L 24 48 L 24 52 L 24 56 L 24 60 L 24 64 L 24 68 L 24 72 L 24 76 L 24 80 L 24 84 L 24 88 L 28 88 L 32 88 L 32 92 L 32 96 L 36 96 L 40 96 L 40 100 L 40 104 L 44 104 L 48 104 L 52 104 L 56 104 L 60 104 L 64 104 L 68 104 L 72 104 L 76 104 L 80 104 L 80 100 L 80 96 L 84 96 L 88 96 L 88 92 L 88 88 L 92 88 L 96 88 L 96 84 L 96 80 L 96 76 L 96 72 L 96 68 L 96 64 L 96 60 L 96 56 L 96 52 L 96 48 L 92 48 L 88 48 L 88 44 L 88 40 L 84 40 L 80 40 L 80 36 L 80 32 L 76 32 L 72 32 L 68 32 L 64 32 L 60 32 L 56 32 L 52 32 L 48 32 L 44 32 L 40 32 z "
     id="rect554" />
</svg>
