<?xml version="1.0" encoding="UTF-8" standalone="no"?>
<svg
   xmlns:dc="http://purl.org/dc/elements/1.1/"
   xmlns:cc="http://creativecommons.org/ns#"
   xmlns:rdf="http://www.w3.org/1999/02/22-rdf-syntax-ns#"
   xmlns:svg="http://www.w3.org/2000/svg"
   xmlns="http://www.w3.org/2000/svg"
   xmlns:sodipodi="http://sodipodi.sourceforge.net/DTD/sodipodi-0.dtd"
   xmlns:inkscape="http://www.inkscape.org/namespaces/inkscape"
   id="svg452"
   width="320px"
   version="1.1"
   height="320px"
   sodipodi:docname="chicago95_tmp_file.svg"
   inkscape:version="0.92.5 (2060ec1f9f, 2020-04-08)">
  <sodipodi:namedview
     pagecolor="#ffffff"
     bordercolor="#666666"
     borderopacity="1"
     objecttolerance="10"
     gridtolerance="10"
     guidetolerance="10"
     inkscape:pageopacity="0"
     inkscape:pageshadow="2"
     inkscape:window-width="640"
     inkscape:window-height="480"
     id="namedview229"
     showgrid="false"
     inkscape:zoom="0.7375"
     inkscape:cx="160"
     inkscape:cy="160"
     inkscape:window-x="0"
     inkscape:window-y="0"
     inkscape:window-maximized="0"
     inkscape:current-layer="svg452" />
  <metadata
     id="metadata456">
    <rdf:RDF>
      <cc:Work
         rdf:about="">
        <dc:format>image/svg+xml</dc:format>
        <dc:type
           rdf:resource="http://purl.org/dc/dcmitype/StillImage" />
      </cc:Work>
    </rdf:RDF>
  </metadata>
  <defs
     id="defs2" />
  <path
     style="fill:#0000b6"
     d="M 60 60 L 60 81 L 80 81 L 81 81 L 100 81 L 101 81 L 120 81 L 121 81 L 140 81 L 141 81 L 160 81 L 161 81 L 180 81 L 181 81 L 200 81 L 201 81 L 220 81 L 221 81 L 240 81 L 241 81 L 261 81 L 261 60 L 241 60 L 240 60 L 221 60 L 220 60 L 201 60 L 200 60 L 181 60 L 180 60 L 161 60 L 160 60 L 141 60 L 140 60 L 121 60 L 120 60 L 101 60 L 100 60 L 81 60 L 80 60 L 60 60 z M 60 100 L 60 121 L 80 121 L 81 121 L 100 121 L 101 121 L 120 121 L 121 121 L 140 121 L 141 121 L 160 121 L 161 121 L 180 121 L 181 121 L 200 121 L 201 121 L 220 121 L 221 121 L 240 121 L 241 121 L 261 121 L 261 100 L 241 100 L 240 100 L 221 100 L 220 100 L 201 100 L 200 100 L 181 100 L 180 100 L 161 100 L 160 100 L 141 100 L 140 100 L 121 100 L 120 100 L 101 100 L 100 100 L 81 100 L 80 100 L 60 100 z M 60 140 L 60 161 L 80 161 L 81 161 L 100 161 L 101 161 L 120 161 L 121 161 L 140 161 L 141 161 L 160 161 L 161 161 L 180 161 L 181 161 L 200 161 L 201 161 L 220 161 L 221 161 L 240 161 L 241 161 L 261 161 L 261 140 L 241 140 L 240 140 L 221 140 L 220 140 L 201 140 L 200 140 L 181 140 L 180 140 L 161 140 L 160 140 L 141 140 L 140 140 L 121 140 L 120 140 L 101 140 L 100 140 L 81 140 L 80 140 L 60 140 z M 60 180 L 60 201 L 80 201 L 81 201 L 100 201 L 101 201 L 120 201 L 121 201 L 140 201 L 141 201 L 160 201 L 161 201 L 180 201 L 181 201 L 200 201 L 201 201 L 220 201 L 221 201 L 240 201 L 241 201 L 261 201 L 261 180 L 241 180 L 240 180 L 221 180 L 220 180 L 201 180 L 200 180 L 181 180 L 180 180 L 161 180 L 160 180 L 141 180 L 140 180 L 121 180 L 120 180 L 101 180 L 100 180 L 81 180 L 80 180 L 60 180 z M 60 220 L 60 241 L 80 241 L 81 241 L 100 241 L 101 241 L 120 241 L 121 241 L 140 241 L 141 241 L 160 241 L 161 241 L 180 241 L 181 241 L 200 241 L 201 241 L 221 241 L 221 220 L 201 220 L 200 220 L 181 220 L 180 220 L 161 220 L 160 220 L 141 220 L 140 220 L 121 220 L 120 220 L 101 220 L 100 220 L 81 220 L 80 220 L 60 220 z "
     id="rect330" />
  <path
     style="fill:#ffffff"
     d="M 40 20 L 40 40 L 40 41 L 40 60 L 40 61 L 40 80 L 40 81 L 40 100 L 40 101 L 40 120 L 40 121 L 40 140 L 40 141 L 40 160 L 40 161 L 40 180 L 40 181 L 40 200 L 40 201 L 40 220 L 40 221 L 40 240 L 40 241 L 40 260 L 40 261 L 40 280 L 40 281 L 40 301 L 60 301 L 61 301 L 80 301 L 81 301 L 100 301 L 101 301 L 120 301 L 121 301 L 140 301 L 141 301 L 160 301 L 161 301 L 180 301 L 181 301 L 200 301 L 201 301 L 220 301 L 221 301 L 240 301 L 241 301 L 260 301 L 261 301 L 281 301 L 281 281 L 281 280 L 281 261 L 281 260 L 281 241 L 281 240 L 281 221 L 281 220 L 281 201 L 281 200 L 281 181 L 281 180 L 281 161 L 281 160 L 281 141 L 281 140 L 281 121 L 281 120 L 281 101 L 281 100 L 281 81 L 281 80 L 281 61 L 281 60 L 281 41 L 281 40 L 281 20 L 261 20 L 260 20 L 241 20 L 240 20 L 221 20 L 220 20 L 201 20 L 200 20 L 181 20 L 180 20 L 161 20 L 160 20 L 141 20 L 140 20 L 121 20 L 120 20 L 101 20 L 100 20 L 81 20 L 80 20 L 61 20 L 60 20 L 40 20 z M 61 61 L 80 61 L 81 61 L 100 61 L 101 61 L 120 61 L 121 61 L 140 61 L 141 61 L 160 61 L 161 61 L 180 61 L 181 61 L 200 61 L 201 61 L 220 61 L 221 61 L 240 61 L 241 61 L 260 61 L 260 80 L 241 80 L 240 80 L 221 80 L 220 80 L 201 80 L 200 80 L 181 80 L 180 80 L 161 80 L 160 80 L 141 80 L 140 80 L 121 80 L 120 80 L 101 80 L 100 80 L 81 80 L 80 80 L 61 80 L 61 61 z M 61 101 L 80 101 L 81 101 L 100 101 L 101 101 L 120 101 L 121 101 L 140 101 L 141 101 L 160 101 L 161 101 L 180 101 L 181 101 L 200 101 L 201 101 L 220 101 L 221 101 L 240 101 L 241 101 L 260 101 L 260 120 L 241 120 L 240 120 L 221 120 L 220 120 L 201 120 L 200 120 L 181 120 L 180 120 L 161 120 L 160 120 L 141 120 L 140 120 L 121 120 L 120 120 L 101 120 L 100 120 L 81 120 L 80 120 L 61 120 L 61 101 z M 61 141 L 80 141 L 81 141 L 100 141 L 101 141 L 120 141 L 121 141 L 140 141 L 141 141 L 160 141 L 161 141 L 180 141 L 181 141 L 200 141 L 201 141 L 220 141 L 221 141 L 240 141 L 241 141 L 260 141 L 260 160 L 241 160 L 240 160 L 221 160 L 220 160 L 201 160 L 200 160 L 181 160 L 180 160 L 161 160 L 160 160 L 141 160 L 140 160 L 121 160 L 120 160 L 101 160 L 100 160 L 81 160 L 80 160 L 61 160 L 61 141 z M 61 181 L 80 181 L 81 181 L 100 181 L 101 181 L 120 181 L 121 181 L 140 181 L 141 181 L 160 181 L 161 181 L 180 181 L 181 181 L 200 181 L 201 181 L 220 181 L 221 181 L 240 181 L 241 181 L 260 181 L 260 200 L 241 200 L 240 200 L 221 200 L 220 200 L 201 200 L 200 200 L 181 200 L 180 200 L 161 200 L 160 200 L 141 200 L 140 200 L 121 200 L 120 200 L 101 200 L 100 200 L 81 200 L 80 200 L 61 200 L 61 181 z M 61 221 L 80 221 L 81 221 L 100 221 L 101 221 L 120 221 L 121 221 L 140 221 L 141 221 L 160 221 L 161 221 L 180 221 L 181 221 L 200 221 L 201 221 L 220 221 L 220 240 L 201 240 L 200 240 L 181 240 L 180 240 L 161 240 L 160 240 L 141 240 L 140 240 L 121 240 L 120 240 L 101 240 L 100 240 L 81 240 L 80 240 L 61 240 L 61 221 z "
     id="rect420" />
  <path
     style="fill:#000000"
     d="M 20 0 L 20 20 L 20 21 L 20 40 L 20 41 L 20 60 L 20 61 L 20 80 L 20 81 L 20 100 L 20 101 L 20 120 L 20 121 L 20 140 L 20 141 L 20 160 L 20 161 L 20 180 L 20 181 L 20 200 L 20 201 L 20 220 L 20 221 L 20 240 L 20 241 L 20 260 L 20 261 L 20 280 L 20 281 L 20 300 L 20 301 L 20 321 L 40 321 L 41 321 L 60 321 L 61 321 L 80 321 L 81 321 L 100 321 L 101 321 L 120 321 L 121 321 L 140 321 L 141 321 L 160 321 L 161 321 L 180 321 L 181 321 L 200 321 L 201 321 L 220 321 L 221 321 L 240 321 L 241 321 L 260 321 L 261 321 L 280 321 L 281 321 L 301 321 L 301 301 L 301 300 L 301 281 L 301 280 L 301 261 L 301 260 L 301 241 L 301 240 L 301 221 L 301 220 L 301 201 L 301 200 L 301 181 L 301 180 L 301 161 L 301 160 L 301 141 L 301 140 L 301 121 L 301 120 L 301 101 L 301 100 L 301 81 L 301 80 L 301 61 L 301 60 L 301 41 L 301 40 L 301 21 L 301 20 L 301 0 L 281 0 L 280 0 L 261 0 L 260 0 L 241 0 L 240 0 L 221 0 L 220 0 L 201 0 L 200 0 L 181 0 L 180 0 L 161 0 L 160 0 L 141 0 L 140 0 L 121 0 L 120 0 L 101 0 L 100 0 L 81 0 L 80 0 L 61 0 L 60 0 L 41 0 L 40 0 L 20 0 z M 41 21 L 60 21 L 61 21 L 80 21 L 81 21 L 100 21 L 101 21 L 120 21 L 121 21 L 140 21 L 141 21 L 160 21 L 161 21 L 180 21 L 181 21 L 200 21 L 201 21 L 220 21 L 221 21 L 240 21 L 241 21 L 260 21 L 261 21 L 280 21 L 280 40 L 280 41 L 280 60 L 280 61 L 280 80 L 280 81 L 280 100 L 280 101 L 280 120 L 280 121 L 280 140 L 280 141 L 280 160 L 280 161 L 280 180 L 280 181 L 280 200 L 280 201 L 280 220 L 280 221 L 280 240 L 280 241 L 280 260 L 280 261 L 280 280 L 280 281 L 280 300 L 261 300 L 260 300 L 241 300 L 240 300 L 221 300 L 220 300 L 201 300 L 200 300 L 181 300 L 180 300 L 161 300 L 160 300 L 141 300 L 140 300 L 121 300 L 120 300 L 101 300 L 100 300 L 81 300 L 80 300 L 61 300 L 60 300 L 41 300 L 41 281 L 41 280 L 41 261 L 41 260 L 41 241 L 41 240 L 41 221 L 41 220 L 41 201 L 41 200 L 41 181 L 41 180 L 41 161 L 41 160 L 41 141 L 41 140 L 41 121 L 41 120 L 41 101 L 41 100 L 41 81 L 41 80 L 41 61 L 41 60 L 41 41 L 41 40 L 41 21 z "
     id="rect450" />
</svg>
