<?xml version="1.0" encoding="UTF-8" standalone="no"?>
<svg
   xmlns:dc="http://purl.org/dc/elements/1.1/"
   xmlns:cc="http://creativecommons.org/ns#"
   xmlns:rdf="http://www.w3.org/1999/02/22-rdf-syntax-ns#"
   xmlns:svg="http://www.w3.org/2000/svg"
   xmlns="http://www.w3.org/2000/svg"
   xmlns:sodipodi="http://sodipodi.sourceforge.net/DTD/sodipodi-0.dtd"
   xmlns:inkscape="http://www.inkscape.org/namespaces/inkscape"
   id="svg86"
   width="320px"
   version="1.1"
   height="320px"
   sodipodi:docname="chicago95_tmp_file.svg"
   inkscape:version="0.92.5 (2060ec1f9f, 2020-04-08)">
  <sodipodi:namedview
     pagecolor="#ffffff"
     bordercolor="#666666"
     borderopacity="1"
     objecttolerance="10"
     gridtolerance="10"
     guidetolerance="10"
     inkscape:pageopacity="0"
     inkscape:pageshadow="2"
     inkscape:window-width="452"
     inkscape:window-height="423"
     id="namedview46"
     showgrid="false"
     inkscape:zoom="0.7375"
     inkscape:cx="160"
     inkscape:cy="160"
     inkscape:window-x="0"
     inkscape:window-y="0"
     inkscape:window-maximized="0"
     inkscape:current-layer="svg86" />
  <metadata
     id="metadata90">
    <rdf:RDF>
      <cc:Work
         rdf:about="">
        <dc:format>image/svg+xml</dc:format>
        <dc:type
           rdf:resource="http://purl.org/dc/dcmitype/StillImage" />
      </cc:Work>
    </rdf:RDF>
  </metadata>
  <defs
     id="defs2" />
  <path
     style="fill:#000000"
     d="M 60 60 L 60 80 L 60 81 L 60 100 L 60 101 L 60 120 L 60 121 L 60 140 L 60 141 L 60 160 L 60 161 L 60 180 L 60 181 L 60 200 L 60 201 L 60 220 L 60 221 L 60 241 L 81 241 L 81 221 L 100 221 L 101 221 L 121 221 L 121 201 L 140 201 L 141 201 L 161 201 L 161 181 L 180 181 L 181 181 L 201 181 L 201 161 L 220 161 L 221 161 L 241 161 L 241 140 L 221 140 L 220 140 L 201 140 L 201 120 L 181 120 L 180 120 L 161 120 L 161 100 L 141 100 L 140 100 L 121 100 L 121 80 L 101 80 L 100 80 L 81 80 L 81 60 L 60 60 z "
     id="rect84" />
</svg>
