<?xml version="1.0" encoding="UTF-8" standalone="no"?>
<svg
   xmlns:dc="http://purl.org/dc/elements/1.1/"
   xmlns:cc="http://creativecommons.org/ns#"
   xmlns:rdf="http://www.w3.org/1999/02/22-rdf-syntax-ns#"
   xmlns:svg="http://www.w3.org/2000/svg"
   xmlns="http://www.w3.org/2000/svg"
   xmlns:sodipodi="http://sodipodi.sourceforge.net/DTD/sodipodi-0.dtd"
   xmlns:inkscape="http://www.inkscape.org/namespaces/inkscape"
   id="svg260"
   width="128px"
   version="1.1"
   height="128px"
   sodipodi:docname="chicago95_tmp_file.svg"
   inkscape:version="0.92.4 (5da689c313, 2019-01-14)">
  <sodipodi:namedview
     pagecolor="#ffffff"
     bordercolor="#666666"
     borderopacity="1"
     objecttolerance="10"
     gridtolerance="10"
     guidetolerance="10"
     inkscape:pageopacity="0"
     inkscape:pageshadow="2"
     inkscape:window-width="640"
     inkscape:window-height="480"
     id="namedview133"
     showgrid="false"
     inkscape:zoom="1.84375"
     inkscape:cx="64"
     inkscape:cy="64"
     inkscape:window-x="0"
     inkscape:window-y="0"
     inkscape:window-maximized="0"
     inkscape:current-layer="svg260" />
  <metadata
     id="metadata264">
    <rdf:RDF>
      <cc:Work
         rdf:about="">
        <dc:format>image/svg+xml</dc:format>
        <dc:type
           rdf:resource="http://purl.org/dc/dcmitype/StillImage" />
      </cc:Work>
    </rdf:RDF>
  </metadata>
  <defs
     id="defs2" />
  <path
     style="fill:#000000"
     d="M 40 32 L 40 36 L 40 40 L 40 44 L 40 48 L 40 52 L 40 56 L 40 60 L 40 64 L 40 68 L 40 72 L 40 76 L 40 80 L 40 84 L 40 88 L 40 92 L 40 96 L 44 96 L 48 96 L 52 96 L 56 96 L 56 92 L 56 88 L 56 84 L 56 80 L 56 76 L 56 72 L 56 68 L 56 64 L 56 60 L 56 56 L 56 52 L 56 48 L 56 44 L 56 40 L 56 36 L 56 32 L 52 32 L 48 32 L 44 32 L 40 32 z M 72 32 L 72 36 L 72 40 L 72 44 L 72 48 L 72 52 L 72 56 L 72 60 L 72 64 L 72 68 L 72 72 L 72 76 L 72 80 L 72 84 L 72 88 L 72 92 L 72 96 L 76 96 L 80 96 L 84 96 L 88 96 L 88 92 L 88 88 L 88 84 L 88 80 L 88 76 L 88 72 L 88 68 L 88 64 L 88 60 L 88 56 L 88 52 L 88 48 L 88 44 L 88 40 L 88 36 L 88 32 L 84 32 L 80 32 L 76 32 L 72 32 z "
     id="rect258" />
</svg>
