<?xml version="1.0" encoding="UTF-8" standalone="no"?>
<svg
   xmlns:dc="http://purl.org/dc/elements/1.1/"
   xmlns:cc="http://creativecommons.org/ns#"
   xmlns:rdf="http://www.w3.org/1999/02/22-rdf-syntax-ns#"
   xmlns:svg="http://www.w3.org/2000/svg"
   xmlns="http://www.w3.org/2000/svg"
   xmlns:sodipodi="http://sodipodi.sourceforge.net/DTD/sodipodi-0.dtd"
   xmlns:inkscape="http://www.inkscape.org/namespaces/inkscape"
   id="svg258"
   width="320px"
   version="1.1"
   height="320px"
   sodipodi:docname="chicago95_tmp_file.svg"
   inkscape:version="0.92.5 (2060ec1f9f, 2020-04-08)">
  <sodipodi:namedview
     pagecolor="#ffffff"
     bordercolor="#666666"
     borderopacity="1"
     objecttolerance="10"
     gridtolerance="10"
     guidetolerance="10"
     inkscape:pageopacity="0"
     inkscape:pageshadow="2"
     inkscape:window-width="452"
     inkscape:window-height="423"
     id="namedview132"
     showgrid="false"
     inkscape:zoom="0.7375"
     inkscape:cx="168.13558"
     inkscape:cy="143.72881"
     inkscape:window-x="0"
     inkscape:window-y="0"
     inkscape:window-maximized="0"
     inkscape:current-layer="svg258" />
  <metadata
     id="metadata262">
    <rdf:RDF>
      <cc:Work
         rdf:about="">
        <dc:format>image/svg+xml</dc:format>
        <dc:type
           rdf:resource="http://purl.org/dc/dcmitype/StillImage" />
      </cc:Work>
    </rdf:RDF>
  </metadata>
  <defs
     id="defs2" />
  <path
     style="fill:#ffff00"
     d="M 120 40 L 120 60 L 100 60 L 100 80 L 80 80 L 80 100 L 60 100 L 60 121 L 80 121 L 80 140 L 60 140 L 60 161 L 80 161 L 80 180 L 60 180 L 60 201 L 80 201 L 80 221 L 100 221 L 100 241 L 121 241 L 121 220 L 101 220 L 101 201 L 121 201 L 121 180 L 101 180 L 101 161 L 121 161 L 121 140 L 101 140 L 101 121 L 121 121 L 121 100 L 101 100 L 101 81 L 121 81 L 121 61 L 141 61 L 141 40 L 120 40 z M 81 101 L 100 101 L 100 120 L 81 120 L 81 101 z M 20 140 L 20 160 L 20 161 L 20 181 L 41 181 L 41 161 L 41 160 L 41 140 L 20 140 z M 81 141 L 100 141 L 100 160 L 81 160 L 81 141 z M 81 181 L 100 181 L 100 200 L 81 200 L 81 181 z "
     id="rect202" />
  <path
     style="fill:#ffffff"
     d="M 180 60 L 180 80 L 160 80 L 160 100 L 160 101 L 160 120 L 160 121 L 160 141 L 180 141 L 180 160 L 180 161 L 180 180 L 160 180 L 160 200 L 160 201 L 160 220 L 160 221 L 160 240 L 160 241 L 160 261 L 180 261 L 181 261 L 201 261 L 201 241 L 201 240 L 201 221 L 201 220 L 201 201 L 201 200 L 201 181 L 201 180 L 201 161 L 201 160 L 201 141 L 201 140 L 201 121 L 201 120 L 201 101 L 201 100 L 201 81 L 201 80 L 201 60 L 180 60 z M 100 80 L 100 100 L 80 100 L 80 120 L 60 120 L 60 141 L 80 141 L 80 160 L 60 160 L 60 181 L 80 181 L 80 201 L 100 201 L 100 221 L 121 221 L 121 200 L 101 200 L 101 181 L 121 181 L 121 160 L 101 160 L 101 141 L 121 141 L 121 120 L 101 120 L 101 101 L 121 101 L 121 80 L 100 80 z M 20 120 L 20 141 L 41 141 L 41 120 L 20 120 z M 81 121 L 100 121 L 100 140 L 81 140 L 81 121 z M 81 161 L 100 161 L 100 180 L 81 180 L 81 161 z "
     id="rect226" />
  <path
     style="fill:#c0c0c0"
     d="M 160 40 L 160 60 L 160 61 L 160 80 L 140 80 L 140 100 L 140 101 L 140 121 L 161 121 L 161 101 L 161 100 L 161 81 L 181 81 L 181 61 L 201 61 L 201 40 L 181 40 L 180 40 L 160 40 z M 40 120 L 40 140 L 40 141 L 40 160 L 40 161 L 40 181 L 61 181 L 61 161 L 61 160 L 61 141 L 61 140 L 61 120 L 40 120 z M 140 140 L 140 161 L 161 161 L 161 140 L 140 140 z M 140 200 L 140 220 L 140 221 L 140 241 L 161 241 L 161 221 L 161 220 L 161 200 L 140 200 z M 160 260 L 160 281 L 180 281 L 181 281 L 201 281 L 201 260 L 181 260 L 180 260 L 160 260 z "
     id="rect240" />
  <path
     style="fill:#bfbf00"
     d="M 120 20 L 120 40 L 100 40 L 100 60 L 80 60 L 80 80 L 60 80 L 60 100 L 41 100 L 40 100 L 20 100 L 20 120 L 0 120 L 0 140 L 0 141 L 0 160 L 0 161 L 0 181 L 20 181 L 20 201 L 41 201 L 41 180 L 21 180 L 21 161 L 21 160 L 21 141 L 21 140 L 21 121 L 40 121 L 41 121 L 61 121 L 61 101 L 81 101 L 81 81 L 101 81 L 101 61 L 121 61 L 121 41 L 141 41 L 141 20 L 120 20 z M 60 200 L 60 221 L 80 221 L 80 241 L 100 241 L 100 261 L 120 261 L 120 281 L 140 281 L 140 301 L 161 301 L 161 280 L 141 280 L 141 260 L 121 260 L 121 240 L 101 240 L 101 220 L 81 220 L 81 200 L 60 200 z "
     id="rect248" />
  <path
     style="fill:#808080"
     d="M 140 20 L 140 41 L 161 41 L 161 20 L 140 20 z M 180 20 L 180 41 L 201 41 L 201 20 L 180 20 z M 120 60 L 120 81 L 140 81 L 141 81 L 161 81 L 161 60 L 141 60 L 140 60 L 120 60 z M 200 60 L 200 80 L 200 81 L 200 100 L 200 101 L 200 120 L 200 121 L 200 140 L 200 141 L 200 160 L 200 161 L 200 180 L 200 181 L 200 200 L 200 201 L 200 220 L 200 221 L 200 240 L 200 241 L 200 260 L 200 261 L 200 280 L 180 280 L 180 301 L 201 301 L 201 281 L 221 281 L 221 261 L 221 260 L 221 241 L 221 240 L 221 221 L 221 220 L 221 201 L 221 200 L 221 181 L 221 180 L 221 161 L 221 160 L 221 141 L 221 140 L 221 121 L 221 120 L 221 101 L 221 100 L 221 81 L 221 80 L 221 60 L 200 60 z M 280 60 L 280 80 L 260 80 L 260 100 L 240 100 L 240 121 L 261 121 L 261 101 L 281 101 L 281 81 L 301 81 L 301 60 L 280 60 z M 140 160 L 140 181 L 161 181 L 161 160 L 140 160 z M 240 160 L 240 181 L 260 181 L 261 181 L 280 181 L 281 181 L 300 181 L 301 181 L 321 181 L 321 160 L 301 160 L 300 160 L 281 160 L 280 160 L 261 160 L 260 160 L 240 160 z M 40 180 L 40 201 L 61 201 L 61 180 L 40 180 z M 240 220 L 240 241 L 260 241 L 260 261 L 280 261 L 280 281 L 301 281 L 301 260 L 281 260 L 281 240 L 261 240 L 261 220 L 240 220 z M 120 240 L 120 261 L 140 261 L 141 261 L 161 261 L 161 240 L 141 240 L 140 240 L 120 240 z "
     id="rect252" />
  <path
     style="fill:#000000"
     d="M 140 0 L 140 21 L 160 21 L 160 40 L 140 40 L 140 61 L 161 61 L 161 41 L 181 41 L 181 21 L 181 20 L 181 0 L 161 0 L 160 0 L 140 0 z M 120 80 L 120 100 L 120 101 L 120 120 L 120 121 L 120 140 L 120 141 L 120 160 L 120 161 L 120 180 L 120 181 L 120 200 L 120 201 L 120 220 L 120 221 L 120 241 L 141 241 L 141 221 L 141 220 L 141 201 L 161 201 L 161 181 L 181 181 L 181 161 L 181 160 L 181 140 L 161 140 L 161 120 L 141 120 L 141 101 L 141 100 L 141 80 L 120 80 z M 141 141 L 160 141 L 160 160 L 160 161 L 160 180 L 141 180 L 141 161 L 141 160 L 141 141 z M 0 180 L 0 201 L 20 201 L 20 221 L 40 221 L 41 221 L 60 221 L 60 241 L 80 241 L 80 261 L 100 261 L 100 281 L 120 281 L 120 301 L 140 301 L 140 321 L 160 321 L 161 321 L 181 321 L 181 301 L 181 300 L 181 280 L 161 280 L 161 260 L 140 260 L 140 280 L 121 280 L 121 260 L 101 260 L 101 240 L 81 240 L 81 220 L 61 220 L 61 200 L 41 200 L 40 200 L 21 200 L 21 180 L 0 180 z M 141 281 L 160 281 L 160 300 L 141 300 L 141 281 z "
     id="rect256" />
</svg>
