<?xml version="1.0" encoding="UTF-8" standalone="no"?>
<svg
   xmlns:dc="http://purl.org/dc/elements/1.1/"
   xmlns:cc="http://creativecommons.org/ns#"
   xmlns:rdf="http://www.w3.org/1999/02/22-rdf-syntax-ns#"
   xmlns:svg="http://www.w3.org/2000/svg"
   xmlns="http://www.w3.org/2000/svg"
   xmlns:sodipodi="http://sodipodi.sourceforge.net/DTD/sodipodi-0.dtd"
   xmlns:inkscape="http://www.inkscape.org/namespaces/inkscape"
   id="svg136"
   width="320px"
   version="1.1"
   height="320px"
   sodipodi:docname="chicago95_tmp_file.svg"
   inkscape:version="0.92.5 (2060ec1f9f, 2020-04-08)">
  <sodipodi:namedview
     pagecolor="#ffffff"
     bordercolor="#666666"
     borderopacity="1"
     objecttolerance="10"
     gridtolerance="10"
     guidetolerance="10"
     inkscape:pageopacity="0"
     inkscape:pageshadow="2"
     inkscape:window-width="640"
     inkscape:window-height="480"
     id="namedview71"
     showgrid="false"
     inkscape:zoom="0.7375"
     inkscape:cx="160"
     inkscape:cy="160"
     inkscape:window-x="0"
     inkscape:window-y="0"
     inkscape:window-maximized="0"
     inkscape:current-layer="svg136" />
  <metadata
     id="metadata140">
    <rdf:RDF>
      <cc:Work
         rdf:about="">
        <dc:format>image/svg+xml</dc:format>
        <dc:type
           rdf:resource="http://purl.org/dc/dcmitype/StillImage" />
      </cc:Work>
    </rdf:RDF>
  </metadata>
  <defs
     id="defs2" />
  <path
     style="fill:#000000"
     d="M 140 60 L 140 80 L 120 80 L 120 100 L 100 100 L 100 120 L 80 120 L 80 140 L 60 140 L 60 160 L 40 160 L 40 181 L 60 181 L 61 181 L 80 181 L 81 181 L 100 181 L 101 181 L 120 181 L 121 181 L 140 181 L 141 181 L 160 181 L 161 181 L 180 181 L 181 181 L 200 181 L 201 181 L 220 181 L 221 181 L 240 181 L 241 181 L 260 181 L 261 181 L 281 181 L 281 160 L 261 160 L 261 140 L 241 140 L 241 120 L 221 120 L 221 100 L 201 100 L 201 80 L 181 80 L 181 60 L 161 60 L 160 60 L 140 60 z M 40 220 L 40 240 L 40 241 L 40 261 L 60 261 L 61 261 L 80 261 L 81 261 L 100 261 L 101 261 L 120 261 L 121 261 L 140 261 L 141 261 L 160 261 L 161 261 L 180 261 L 181 261 L 200 261 L 201 261 L 220 261 L 221 261 L 240 261 L 241 261 L 260 261 L 261 261 L 281 261 L 281 241 L 281 240 L 281 220 L 261 220 L 260 220 L 241 220 L 240 220 L 221 220 L 220 220 L 201 220 L 200 220 L 181 220 L 180 220 L 161 220 L 160 220 L 141 220 L 140 220 L 121 220 L 120 220 L 101 220 L 100 220 L 81 220 L 80 220 L 61 220 L 60 220 L 40 220 z "
     id="rect134" />
</svg>
