<?xml version="1.0" encoding="UTF-8" standalone="no"?>
<svg
   xmlns:dc="http://purl.org/dc/elements/1.1/"
   xmlns:cc="http://creativecommons.org/ns#"
   xmlns:rdf="http://www.w3.org/1999/02/22-rdf-syntax-ns#"
   xmlns:svg="http://www.w3.org/2000/svg"
   xmlns="http://www.w3.org/2000/svg"
   xmlns:sodipodi="http://sodipodi.sourceforge.net/DTD/sodipodi-0.dtd"
   xmlns:inkscape="http://www.inkscape.org/namespaces/inkscape"
   id="svg188"
   width="128px"
   version="1.1"
   height="128px"
   sodipodi:docname="chicago95_tmp_file.svg"
   inkscape:version="0.92.4 (5da689c313, 2019-01-14)">
  <sodipodi:namedview
     pagecolor="#ffffff"
     bordercolor="#666666"
     borderopacity="1"
     objecttolerance="10"
     gridtolerance="10"
     guidetolerance="10"
     inkscape:pageopacity="0"
     inkscape:pageshadow="2"
     inkscape:window-width="640"
     inkscape:window-height="480"
     id="namedview97"
     showgrid="false"
     inkscape:zoom="1.84375"
     inkscape:cx="64"
     inkscape:cy="64"
     inkscape:window-x="0"
     inkscape:window-y="0"
     inkscape:window-maximized="0"
     inkscape:current-layer="svg188" />
  <metadata
     id="metadata192">
    <rdf:RDF>
      <cc:Work
         rdf:about="">
        <dc:format>image/svg+xml</dc:format>
        <dc:type
           rdf:resource="http://purl.org/dc/dcmitype/StillImage" />
      </cc:Work>
    </rdf:RDF>
  </metadata>
  <defs
     id="defs2" />
  <path
     style="fill:#000080"
     d="M 32 40 L 32 44 L 32 48 L 28 48 L 24 48 L 24 52 L 24 56 L 20 56 L 16 56 L 16 60 L 16 64 L 20 64 L 24 64 L 24 68 L 24 72 L 28 72 L 32 72 L 32 76 L 32 80 L 36 80 L 40 80 L 40 76 L 40 72 L 40 68 L 40 64 L 44 64 L 48 64 L 52 64 L 56 64 L 60 64 L 64 64 L 68 64 L 72 64 L 76 64 L 80 64 L 80 68 L 80 72 L 80 76 L 80 80 L 84 80 L 88 80 L 88 76 L 88 72 L 92 72 L 96 72 L 96 68 L 96 64 L 100 64 L 104 64 L 104 60 L 104 56 L 100 56 L 96 56 L 96 52 L 96 48 L 92 48 L 88 48 L 88 44 L 88 40 L 84 40 L 80 40 L 80 44 L 80 48 L 80 52 L 80 56 L 76 56 L 72 56 L 68 56 L 64 56 L 60 56 L 56 56 L 52 56 L 48 56 L 44 56 L 40 56 L 40 52 L 40 48 L 40 44 L 40 40 L 36 40 L 32 40 z "
     id="rect186" />
</svg>
