<?xml version="1.0" encoding="UTF-8" standalone="no"?>
<svg
   xmlns:dc="http://purl.org/dc/elements/1.1/"
   xmlns:cc="http://creativecommons.org/ns#"
   xmlns:rdf="http://www.w3.org/1999/02/22-rdf-syntax-ns#"
   xmlns:svg="http://www.w3.org/2000/svg"
   xmlns="http://www.w3.org/2000/svg"
   xmlns:sodipodi="http://sodipodi.sourceforge.net/DTD/sodipodi-0.dtd"
   xmlns:inkscape="http://www.inkscape.org/namespaces/inkscape"
   id="svg156"
   width="128px"
   version="1.1"
   height="128px"
   sodipodi:docname="chicago95_tmp_file.svg"
   inkscape:version="0.92.4 (5da689c313, 2019-01-14)">
  <sodipodi:namedview
     pagecolor="#ffffff"
     bordercolor="#666666"
     borderopacity="1"
     objecttolerance="10"
     gridtolerance="10"
     guidetolerance="10"
     inkscape:pageopacity="0"
     inkscape:pageshadow="2"
     inkscape:window-width="640"
     inkscape:window-height="480"
     id="namedview81"
     showgrid="false"
     inkscape:zoom="1.84375"
     inkscape:cx="64"
     inkscape:cy="64"
     inkscape:window-x="0"
     inkscape:window-y="0"
     inkscape:window-maximized="0"
     inkscape:current-layer="svg156" />
  <metadata
     id="metadata160">
    <rdf:RDF>
      <cc:Work
         rdf:about="">
        <dc:format>image/svg+xml</dc:format>
        <dc:type
           rdf:resource="http://purl.org/dc/dcmitype/StillImage" />
      </cc:Work>
    </rdf:RDF>
  </metadata>
  <defs
     id="defs2" />
  <path
     style="fill:#000080"
     d="M 24 24 L 24 28 L 24 32 L 28 32 L 32 32 L 36 32 L 40 32 L 44 32 L 48 32 L 52 32 L 56 32 L 56 28 L 56 24 L 52 24 L 48 24 L 44 24 L 40 24 L 36 24 L 32 24 L 28 24 L 24 24 z M 56 32 L 56 36 L 56 40 L 60 40 L 64 40 L 64 36 L 64 32 L 60 32 L 56 32 z M 64 40 L 64 44 L 64 48 L 68 48 L 72 48 L 72 44 L 72 40 L 68 40 L 64 40 z M 72 48 L 72 52 L 72 56 L 72 60 L 72 64 L 72 68 L 72 72 L 72 76 L 72 80 L 68 80 L 64 80 L 60 80 L 56 80 L 56 84 L 56 88 L 60 88 L 64 88 L 64 92 L 64 96 L 68 96 L 72 96 L 72 100 L 72 104 L 76 104 L 80 104 L 80 100 L 80 96 L 84 96 L 88 96 L 88 92 L 88 88 L 92 88 L 96 88 L 96 84 L 96 80 L 92 80 L 88 80 L 84 80 L 80 80 L 80 76 L 80 72 L 80 68 L 80 64 L 80 60 L 80 56 L 80 52 L 80 48 L 76 48 L 72 48 z "
     id="rect154" />
</svg>
