<?xml version="1.0" encoding="UTF-8" standalone="no"?>
<svg
   xmlns:dc="http://purl.org/dc/elements/1.1/"
   xmlns:cc="http://creativecommons.org/ns#"
   xmlns:rdf="http://www.w3.org/1999/02/22-rdf-syntax-ns#"
   xmlns:svg="http://www.w3.org/2000/svg"
   xmlns="http://www.w3.org/2000/svg"
   xmlns:sodipodi="http://sodipodi.sourceforge.net/DTD/sodipodi-0.dtd"
   xmlns:inkscape="http://www.inkscape.org/namespaces/inkscape"
   id="svg1086"
   width="128px"
   version="1.1"
   height="128px"
   sodipodi:docname="chicago95_tmp_file.svg"
   inkscape:version="0.92.4 (5da689c313, 2019-01-14)">
  <sodipodi:namedview
     pagecolor="#ffffff"
     bordercolor="#666666"
     borderopacity="1"
     objecttolerance="10"
     gridtolerance="10"
     guidetolerance="10"
     inkscape:pageopacity="0"
     inkscape:pageshadow="2"
     inkscape:window-width="640"
     inkscape:window-height="480"
     id="namedview546"
     showgrid="false"
     inkscape:zoom="1.84375"
     inkscape:cx="64"
     inkscape:cy="64"
     inkscape:window-x="0"
     inkscape:window-y="0"
     inkscape:window-maximized="0"
     inkscape:current-layer="svg1086" />
  <metadata
     id="metadata1090">
    <rdf:RDF>
      <cc:Work
         rdf:about="">
        <dc:format>image/svg+xml</dc:format>
        <dc:type
           rdf:resource="http://purl.org/dc/dcmitype/StillImage" />
      </cc:Work>
    </rdf:RDF>
  </metadata>
  <defs
     id="defs2" />
  <path
     style="fill:#ffffff"
     d="M 52 12 L 52 16 L 48 16 L 44 16 L 40 16 L 40 20 L 36 20 L 36 24 L 32 24 L 28 24 L 28 28 L 24 28 L 24 32 L 24 36 L 20 36 L 20 40 L 16 40 L 16 44 L 16 48 L 16 52 L 12 52 L 12 56 L 12 60 L 12 64 L 12 68 L 12 72 L 12 76 L 16 76 L 16 80 L 16 84 L 16 88 L 20 88 L 20 92 L 24 92 L 24 96 L 24 100 L 28 100 L 28 104 L 32 104 L 36 104 L 36 108 L 40 108 L 40 112 L 44 112 L 48 112 L 52 112 L 52 116 L 56 116 L 60 116 L 64 116 L 64 112 L 64 108 L 64 104 L 64 100 L 64 96 L 64 92 L 64 88 L 64 84 L 64 80 L 64 76 L 64 72 L 64 68 L 64 64 L 64 60 L 64 56 L 64 52 L 64 48 L 64 44 L 64 40 L 64 36 L 64 32 L 64 28 L 64 24 L 64 20 L 64 16 L 64 12 L 60 12 L 56 12 L 52 12 z "
     id="rect1076" />
  <path
     style="fill:#000000"
     d="M 64 12 L 64 16 L 64 20 L 64 24 L 64 28 L 64 32 L 64 36 L 64 40 L 64 44 L 64 48 L 64 52 L 64 56 L 64 60 L 64 64 L 64 68 L 64 72 L 64 76 L 64 80 L 64 84 L 64 88 L 64 92 L 64 96 L 64 100 L 64 104 L 64 108 L 64 112 L 64 116 L 68 116 L 72 116 L 76 116 L 76 112 L 80 112 L 84 112 L 88 112 L 88 108 L 92 108 L 92 104 L 96 104 L 100 104 L 100 100 L 104 100 L 104 96 L 104 92 L 108 92 L 108 88 L 112 88 L 112 84 L 112 80 L 112 76 L 116 76 L 116 72 L 116 68 L 116 64 L 116 60 L 116 56 L 116 52 L 112 52 L 112 48 L 112 44 L 112 40 L 108 40 L 108 36 L 104 36 L 104 32 L 104 28 L 100 28 L 100 24 L 96 24 L 92 24 L 92 20 L 88 20 L 88 16 L 84 16 L 80 16 L 76 16 L 76 12 L 72 12 L 68 12 L 64 12 z "
     id="rect1082" />
  <path
     style="fill:#c0c0c0"
     d="M 48 12 L 48 16 L 52 16 L 52 12 L 48 12 z M 76 12 L 76 16 L 80 16 L 80 12 L 76 12 z M 32 20 L 32 24 L 36 24 L 36 20 L 32 20 z M 92 20 L 92 24 L 96 24 L 96 20 L 92 20 z M 20 32 L 20 36 L 24 36 L 24 32 L 20 32 z M 104 32 L 104 36 L 108 36 L 108 32 L 104 32 z M 12 48 L 12 52 L 16 52 L 16 48 L 12 48 z M 112 48 L 112 52 L 116 52 L 116 48 L 112 48 z M 12 76 L 12 80 L 16 80 L 16 76 L 12 76 z M 112 76 L 112 80 L 116 80 L 116 76 L 112 76 z M 20 92 L 20 96 L 24 96 L 24 92 L 20 92 z M 104 92 L 104 96 L 108 96 L 108 92 L 104 92 z M 32 104 L 32 108 L 36 108 L 36 104 L 32 104 z M 92 104 L 92 108 L 96 108 L 96 104 L 92 104 z M 44 112 L 44 116 L 48 116 L 52 116 L 52 112 L 48 112 L 44 112 z M 76 112 L 76 116 L 80 116 L 80 112 L 76 112 z "
     id="rect1084" />
</svg>
