<?xml version="1.0" encoding="UTF-8" standalone="no"?>
<svg
   xmlns:dc="http://purl.org/dc/elements/1.1/"
   xmlns:cc="http://creativecommons.org/ns#"
   xmlns:rdf="http://www.w3.org/1999/02/22-rdf-syntax-ns#"
   xmlns:svg="http://www.w3.org/2000/svg"
   xmlns="http://www.w3.org/2000/svg"
   xmlns:sodipodi="http://sodipodi.sourceforge.net/DTD/sodipodi-0.dtd"
   xmlns:inkscape="http://www.inkscape.org/namespaces/inkscape"
   id="svg92"
   width="320px"
   version="1.1"
   height="320px"
   sodipodi:docname="chicago95_tmp_file.svg"
   inkscape:version="0.92.5 (2060ec1f9f, 2020-04-08)">
  <sodipodi:namedview
     pagecolor="#ffffff"
     bordercolor="#666666"
     borderopacity="1"
     objecttolerance="10"
     gridtolerance="10"
     guidetolerance="10"
     inkscape:pageopacity="0"
     inkscape:pageshadow="2"
     inkscape:window-width="452"
     inkscape:window-height="423"
     id="namedview49"
     showgrid="false"
     inkscape:zoom="0.7375"
     inkscape:cx="160"
     inkscape:cy="160"
     inkscape:window-x="0"
     inkscape:window-y="0"
     inkscape:window-maximized="0"
     inkscape:current-layer="svg92" />
  <metadata
     id="metadata96">
    <rdf:RDF>
      <cc:Work
         rdf:about="">
        <dc:format>image/svg+xml</dc:format>
        <dc:type
           rdf:resource="http://purl.org/dc/dcmitype/StillImage" />
      </cc:Work>
    </rdf:RDF>
  </metadata>
  <defs
     id="defs2" />
  <path
     style="fill:#000000"
     d="M 140 0 L 140 20 L 140 21 L 140 40 L 140 41 L 140 60 L 140 61 L 140 80 L 140 81 L 140 100 L 140 101 L 140 120 L 140 121 L 140 140 L 140 141 L 140 160 L 140 161 L 140 180 L 140 181 L 140 200 L 140 201 L 140 220 L 140 221 L 140 240 L 121 240 L 120 240 L 101 240 L 100 240 L 80 240 L 80 261 L 100 261 L 100 281 L 120 281 L 120 301 L 140 301 L 140 321 L 160 321 L 161 321 L 181 321 L 181 301 L 201 301 L 201 281 L 221 281 L 221 261 L 241 261 L 241 240 L 221 240 L 220 240 L 201 240 L 200 240 L 181 240 L 181 221 L 181 220 L 181 201 L 181 200 L 181 181 L 181 180 L 181 161 L 181 160 L 181 141 L 181 140 L 181 121 L 181 120 L 181 101 L 181 100 L 181 81 L 181 80 L 181 61 L 181 60 L 181 41 L 181 40 L 181 21 L 181 20 L 181 0 L 161 0 L 160 0 L 140 0 z "
     id="rect90" />
</svg>
