<?xml version="1.0" encoding="UTF-8" standalone="no"?>
<svg
   xmlns:dc="http://purl.org/dc/elements/1.1/"
   xmlns:cc="http://creativecommons.org/ns#"
   xmlns:rdf="http://www.w3.org/1999/02/22-rdf-syntax-ns#"
   xmlns:svg="http://www.w3.org/2000/svg"
   xmlns="http://www.w3.org/2000/svg"
   xmlns:sodipodi="http://sodipodi.sourceforge.net/DTD/sodipodi-0.dtd"
   xmlns:inkscape="http://www.inkscape.org/namespaces/inkscape"
   id="svg278"
   width="320px"
   version="1.1"
   height="320px"
   sodipodi:docname="chicago95_tmp_file.svg"
   inkscape:version="0.92.5 (2060ec1f9f, 2020-04-08)">
  <sodipodi:namedview
     pagecolor="#ffffff"
     bordercolor="#666666"
     borderopacity="1"
     objecttolerance="10"
     gridtolerance="10"
     guidetolerance="10"
     inkscape:pageopacity="0"
     inkscape:pageshadow="2"
     inkscape:window-width="640"
     inkscape:window-height="480"
     id="namedview142"
     showgrid="false"
     inkscape:zoom="0.7375"
     inkscape:cx="160"
     inkscape:cy="160"
     inkscape:window-x="0"
     inkscape:window-y="0"
     inkscape:window-maximized="0"
     inkscape:current-layer="svg278" />
  <metadata
     id="metadata282">
    <rdf:RDF>
      <cc:Work
         rdf:about="">
        <dc:format>image/svg+xml</dc:format>
        <dc:type
           rdf:resource="http://purl.org/dc/dcmitype/StillImage" />
      </cc:Work>
    </rdf:RDF>
  </metadata>
  <defs
     id="defs2" />
  <path
     style="fill:#ffffff"
     d="M 80 140 L 80 160 L 80 161 L 80 181 L 100 181 L 101 181 L 120 181 L 121 181 L 140 181 L 141 181 L 160 181 L 161 181 L 180 181 L 181 181 L 200 181 L 201 181 L 221 181 L 221 161 L 221 160 L 221 140 L 201 140 L 200 140 L 181 140 L 180 140 L 161 140 L 160 140 L 141 140 L 140 140 L 121 140 L 120 140 L 101 140 L 100 140 L 80 140 z "
     id="rect146" />
  <path
     style="fill:#800000"
     d="M 100 40 L 100 60 L 81 60 L 80 60 L 60 60 L 60 80 L 40 80 L 40 100 L 40 101 L 40 120 L 20 120 L 20 140 L 20 141 L 20 160 L 20 161 L 20 180 L 20 181 L 20 200 L 20 201 L 20 221 L 40 221 L 40 241 L 61 241 L 61 220 L 41 220 L 41 201 L 41 200 L 41 181 L 41 180 L 41 161 L 41 160 L 41 141 L 41 140 L 41 121 L 61 121 L 61 101 L 61 100 L 61 81 L 80 81 L 81 81 L 101 81 L 101 61 L 120 61 L 121 61 L 140 61 L 141 61 L 160 61 L 161 61 L 180 61 L 181 61 L 200 61 L 200 81 L 221 81 L 221 60 L 201 60 L 201 40 L 181 40 L 180 40 L 161 40 L 160 40 L 141 40 L 140 40 L 121 40 L 120 40 L 100 40 z "
     id="rect206" />
  <path
     style="fill:#ff0000"
     d="M 100 60 L 100 80 L 81 80 L 80 80 L 60 80 L 60 100 L 60 101 L 60 120 L 40 120 L 40 140 L 40 141 L 40 160 L 40 161 L 40 180 L 40 181 L 40 200 L 40 201 L 40 221 L 60 221 L 60 240 L 60 241 L 60 261 L 80 261 L 81 261 L 100 261 L 100 281 L 120 281 L 121 281 L 140 281 L 141 281 L 160 281 L 161 281 L 180 281 L 181 281 L 201 281 L 201 261 L 220 261 L 221 261 L 241 261 L 241 241 L 241 240 L 241 221 L 261 221 L 261 201 L 261 200 L 261 181 L 261 180 L 261 161 L 261 160 L 261 141 L 261 140 L 261 120 L 241 120 L 241 101 L 241 100 L 241 80 L 221 80 L 220 80 L 201 80 L 201 60 L 181 60 L 180 60 L 161 60 L 160 60 L 141 60 L 140 60 L 121 60 L 120 60 L 100 60 z M 81 141 L 100 141 L 101 141 L 120 141 L 121 141 L 140 141 L 141 141 L 160 141 L 161 141 L 180 141 L 181 141 L 200 141 L 201 141 L 220 141 L 220 160 L 220 161 L 220 180 L 201 180 L 200 180 L 181 180 L 180 180 L 161 180 L 160 180 L 141 180 L 140 180 L 121 180 L 120 180 L 101 180 L 100 180 L 81 180 L 81 161 L 81 160 L 81 141 z "
     id="rect262" />
  <path
     style="fill:#000000"
     d="M 220 60 L 220 81 L 240 81 L 240 100 L 240 101 L 240 121 L 260 121 L 260 140 L 260 141 L 260 160 L 260 161 L 260 180 L 260 181 L 260 200 L 260 201 L 260 220 L 240 220 L 240 240 L 240 241 L 240 260 L 221 260 L 220 260 L 200 260 L 200 280 L 181 280 L 180 280 L 161 280 L 160 280 L 141 280 L 140 280 L 121 280 L 120 280 L 101 280 L 101 260 L 81 260 L 80 260 L 61 260 L 61 240 L 40 240 L 40 261 L 60 261 L 60 281 L 80 281 L 81 281 L 100 281 L 100 301 L 120 301 L 121 301 L 140 301 L 141 301 L 160 301 L 161 301 L 180 301 L 181 301 L 201 301 L 201 281 L 220 281 L 221 281 L 241 281 L 241 261 L 261 261 L 261 241 L 261 240 L 261 221 L 281 221 L 281 201 L 281 200 L 281 181 L 281 180 L 281 161 L 281 160 L 281 141 L 281 140 L 281 120 L 261 120 L 261 101 L 261 100 L 261 80 L 241 80 L 241 60 L 220 60 z "
     id="rect276" />
</svg>
