<?xml version="1.0" encoding="UTF-8" standalone="no"?>
<svg
   xmlns:dc="http://purl.org/dc/elements/1.1/"
   xmlns:cc="http://creativecommons.org/ns#"
   xmlns:rdf="http://www.w3.org/1999/02/22-rdf-syntax-ns#"
   xmlns:svg="http://www.w3.org/2000/svg"
   xmlns="http://www.w3.org/2000/svg"
   xmlns:sodipodi="http://sodipodi.sourceforge.net/DTD/sodipodi-0.dtd"
   xmlns:inkscape="http://www.inkscape.org/namespaces/inkscape"
   id="svg1676"
   width="128px"
   version="1.1"
   height="128px"
   sodipodi:docname="chicago95_tmp_file.svg"
   inkscape:version="0.92.4 (5da689c313, 2019-01-14)">
  <sodipodi:namedview
     pagecolor="#ffffff"
     bordercolor="#666666"
     borderopacity="1"
     objecttolerance="10"
     gridtolerance="10"
     guidetolerance="10"
     inkscape:pageopacity="0"
     inkscape:pageshadow="2"
     inkscape:window-width="640"
     inkscape:window-height="480"
     id="namedview841"
     showgrid="false"
     inkscape:zoom="1.84375"
     inkscape:cx="64"
     inkscape:cy="64"
     inkscape:window-x="0"
     inkscape:window-y="0"
     inkscape:window-maximized="0"
     inkscape:current-layer="svg1676" />
  <metadata
     id="metadata1680">
    <rdf:RDF>
      <cc:Work
         rdf:about="">
        <dc:format>image/svg+xml</dc:format>
        <dc:type
           rdf:resource="http://purl.org/dc/dcmitype/StillImage" />
      </cc:Work>
    </rdf:RDF>
  </metadata>
  <defs
     id="defs2" />
  <path
     style="fill:#ffff00"
     d="M 36 8 L 36 12 L 40 12 L 40 8 L 36 8 z "
     id="rect126" />
  <path
     style="fill:#808000"
     d="M 40 8 L 40 12 L 36 12 L 36 16 L 40 16 L 44 16 L 44 12 L 44 8 L 40 8 z "
     id="rect184" />
  <path
     style="fill:#00ffff"
     d="M 28 16 L 28 20 L 32 20 L 32 16 L 28 16 z "
     id="rect234" />
  <path
     style="fill:#00ff00"
     d="M 36 16 L 36 20 L 40 20 L 40 16 L 36 16 z "
     id="rect238" />
  <path
     style="fill:#0000ff"
     d="M 32 16 L 32 20 L 28 20 L 28 24 L 32 24 L 36 24 L 36 20 L 36 16 L 32 16 z "
     id="rect292" />
  <path
     style="fill:#008000"
     d="M 40 16 L 40 20 L 36 20 L 36 24 L 40 24 L 44 24 L 44 20 L 44 16 L 40 16 z "
     id="rect296" />
  <path
     style="fill:#000080"
     d="M 24 8 L 24 12 L 24 16 L 24 20 L 24 24 L 28 24 L 28 20 L 28 16 L 28 12 L 28 8 L 24 8 z M 44 8 L 44 12 L 44 16 L 44 20 L 44 24 L 48 24 L 52 24 L 56 24 L 60 24 L 64 24 L 68 24 L 72 24 L 76 24 L 80 24 L 84 24 L 84 20 L 84 16 L 84 12 L 88 12 L 92 12 L 96 12 L 100 12 L 104 12 L 108 12 L 112 12 L 116 12 L 120 12 L 120 8 L 116 8 L 112 8 L 108 8 L 104 8 L 100 8 L 96 8 L 92 8 L 88 8 L 84 8 L 80 8 L 76 8 L 72 8 L 68 8 L 64 8 L 60 8 L 56 8 L 52 8 L 48 8 L 44 8 z "
     id="rect316" />
  <path
     style="fill:#808080"
     d="M 16 0 L 16 4 L 16 8 L 16 12 L 16 16 L 16 20 L 16 24 L 16 28 L 16 32 L 16 36 L 16 40 L 20 40 L 20 36 L 20 32 L 20 28 L 20 24 L 20 20 L 20 16 L 20 12 L 20 8 L 20 4 L 24 4 L 28 4 L 32 4 L 36 4 L 40 4 L 44 4 L 48 4 L 52 4 L 56 4 L 60 4 L 64 4 L 68 4 L 72 4 L 76 4 L 80 4 L 84 4 L 88 4 L 92 4 L 96 4 L 100 4 L 104 4 L 108 4 L 112 4 L 116 4 L 120 4 L 124 4 L 128 4 L 128 0 L 124 0 L 120 0 L 116 0 L 112 0 L 108 0 L 104 0 L 100 0 L 96 0 L 92 0 L 88 0 L 84 0 L 80 0 L 76 0 L 72 0 L 68 0 L 64 0 L 60 0 L 56 0 L 52 0 L 48 0 L 44 0 L 40 0 L 36 0 L 32 0 L 28 0 L 24 0 L 20 0 L 16 0 z M 120 8 L 120 12 L 120 16 L 120 20 L 120 24 L 120 28 L 120 32 L 120 36 L 120 40 L 120 44 L 120 48 L 120 52 L 120 56 L 120 60 L 120 64 L 120 68 L 120 72 L 120 76 L 120 80 L 120 84 L 120 88 L 120 92 L 120 96 L 116 96 L 112 96 L 108 96 L 104 96 L 100 96 L 96 96 L 92 96 L 88 96 L 84 96 L 80 96 L 76 96 L 72 96 L 68 96 L 64 96 L 60 96 L 56 96 L 52 96 L 48 96 L 48 100 L 52 100 L 56 100 L 60 100 L 64 100 L 68 100 L 72 100 L 76 100 L 80 100 L 84 100 L 88 100 L 92 100 L 96 100 L 100 100 L 104 100 L 108 100 L 112 100 L 116 100 L 120 100 L 124 100 L 124 96 L 124 92 L 124 88 L 124 84 L 124 80 L 124 76 L 124 72 L 124 68 L 124 64 L 124 60 L 124 56 L 124 52 L 124 48 L 124 44 L 124 40 L 124 36 L 124 32 L 124 28 L 124 24 L 124 20 L 124 16 L 124 12 L 124 8 L 120 8 z M 24 28 L 24 32 L 24 36 L 24 40 L 28 40 L 28 36 L 28 32 L 32 32 L 36 32 L 40 32 L 44 32 L 48 32 L 52 32 L 56 32 L 60 32 L 64 32 L 68 32 L 72 32 L 76 32 L 80 32 L 84 32 L 88 32 L 92 32 L 96 32 L 100 32 L 104 32 L 108 32 L 112 32 L 116 32 L 116 28 L 112 28 L 108 28 L 104 28 L 100 28 L 96 28 L 92 28 L 88 28 L 84 28 L 80 28 L 76 28 L 72 28 L 68 28 L 64 28 L 60 28 L 56 28 L 52 28 L 48 28 L 44 28 L 40 28 L 36 28 L 32 28 L 28 28 L 24 28 z M 4 52 L 4 56 L 4 60 L 4 64 L 4 68 L 4 72 L 8 72 L 8 68 L 8 64 L 8 60 L 8 56 L 8 52 L 4 52 z M 8 72 L 8 76 L 12 76 L 12 72 L 8 72 z M 12 76 L 12 80 L 16 80 L 16 76 L 12 76 z M 16 80 L 16 84 L 16 88 L 20 88 L 20 84 L 20 80 L 16 80 z M 16 88 L 12 88 L 12 92 L 16 92 L 16 88 z M 12 92 L 8 92 L 8 96 L 12 96 L 12 92 z M 8 96 L 4 96 L 4 100 L 4 104 L 4 108 L 4 112 L 4 116 L 8 116 L 8 112 L 8 108 L 8 104 L 8 100 L 8 96 z M 36 52 L 36 56 L 36 60 L 36 64 L 36 68 L 36 72 L 36 76 L 40 76 L 40 72 L 44 72 L 44 68 L 44 64 L 44 60 L 44 56 L 44 52 L 40 52 L 36 52 z M 36 76 L 32 76 L 32 80 L 36 80 L 36 76 z M 32 80 L 28 80 L 28 84 L 28 88 L 32 88 L 32 84 L 32 80 z M 32 88 L 32 92 L 36 92 L 36 88 L 32 88 z M 36 92 L 36 96 L 36 100 L 36 104 L 36 108 L 36 112 L 40 112 L 40 116 L 44 116 L 44 112 L 44 108 L 44 104 L 44 100 L 44 96 L 40 96 L 40 92 L 36 92 z M 16 68 L 16 72 L 20 72 L 20 68 L 16 68 z M 16 108 L 16 112 L 20 112 L 20 108 L 16 108 z M 20 112 L 20 116 L 24 116 L 24 112 L 20 112 z M 16 112 L 12 112 L 12 116 L 16 116 L 16 112 z "
     id="rect1598" />
  <path
     style="fill:#800000"
     d="M 32 8 L 32 12 L 28 12 L 28 16 L 32 16 L 36 16 L 36 12 L 36 8 L 32 8 z M 0 40 L 0 44 L 0 48 L 4 48 L 4 44 L 8 44 L 12 44 L 16 44 L 20 44 L 24 44 L 28 44 L 32 44 L 36 44 L 40 44 L 44 44 L 48 44 L 48 40 L 44 40 L 40 40 L 36 40 L 32 40 L 28 40 L 24 40 L 20 40 L 16 40 L 12 40 L 8 40 L 4 40 L 0 40 z M 0 120 L 0 124 L 4 124 L 4 120 L 0 120 z "
     id="rect1624" />
  <path
     style="fill:#ffffff"
     d="M 28 32 L 28 36 L 28 40 L 32 40 L 36 40 L 40 40 L 44 40 L 48 40 L 52 40 L 52 44 L 52 48 L 48 48 L 48 52 L 48 56 L 48 60 L 48 64 L 48 68 L 48 72 L 44 72 L 44 76 L 40 76 L 40 80 L 36 80 L 36 84 L 36 88 L 40 88 L 40 92 L 44 92 L 48 92 L 52 92 L 56 92 L 60 92 L 64 92 L 68 92 L 72 92 L 76 92 L 80 92 L 84 92 L 88 92 L 92 92 L 96 92 L 100 92 L 104 92 L 108 92 L 112 92 L 116 92 L 116 88 L 116 84 L 116 80 L 116 76 L 116 72 L 116 68 L 116 64 L 116 60 L 116 56 L 116 52 L 116 48 L 116 44 L 116 40 L 116 36 L 116 32 L 112 32 L 108 32 L 104 32 L 100 32 L 96 32 L 92 32 L 88 32 L 84 32 L 80 32 L 76 32 L 72 32 L 68 32 L 64 32 L 60 32 L 56 32 L 52 32 L 48 32 L 44 32 L 40 32 L 36 32 L 32 32 L 28 32 z M 8 44 L 8 48 L 12 48 L 12 44 L 8 44 z M 12 52 L 12 56 L 12 60 L 12 64 L 12 68 L 16 68 L 20 68 L 24 68 L 24 64 L 24 60 L 24 56 L 20 56 L 20 52 L 16 52 L 12 52 z M 16 72 L 16 76 L 20 76 L 20 72 L 16 72 z M 20 76 L 20 80 L 20 84 L 20 88 L 20 92 L 16 92 L 16 96 L 12 96 L 12 100 L 12 104 L 12 108 L 12 112 L 16 112 L 16 108 L 20 108 L 20 104 L 24 104 L 24 100 L 24 96 L 24 92 L 24 88 L 24 84 L 24 80 L 24 76 L 20 76 z M 20 108 L 20 112 L 24 112 L 24 108 L 20 108 z M 20 112 L 16 112 L 16 116 L 20 116 L 20 112 z M 8 120 L 8 124 L 12 124 L 12 120 L 8 120 z "
     id="rect1628" />
  <path
     style="fill:#c0c0c0"
     d="M 20 4 L 20 8 L 20 12 L 20 16 L 20 20 L 20 24 L 20 28 L 20 32 L 20 36 L 20 40 L 24 40 L 24 36 L 24 32 L 24 28 L 28 28 L 32 28 L 36 28 L 40 28 L 44 28 L 48 28 L 52 28 L 56 28 L 60 28 L 64 28 L 68 28 L 72 28 L 76 28 L 80 28 L 84 28 L 88 28 L 92 28 L 96 28 L 100 28 L 104 28 L 108 28 L 112 28 L 116 28 L 116 32 L 116 36 L 116 40 L 116 44 L 116 48 L 116 52 L 116 56 L 116 60 L 116 64 L 116 68 L 116 72 L 116 76 L 116 80 L 116 84 L 116 88 L 116 92 L 112 92 L 108 92 L 104 92 L 100 92 L 96 92 L 92 92 L 88 92 L 84 92 L 80 92 L 76 92 L 72 92 L 68 92 L 64 92 L 60 92 L 56 92 L 52 92 L 48 92 L 44 92 L 44 96 L 48 96 L 52 96 L 56 96 L 60 96 L 64 96 L 68 96 L 72 96 L 76 96 L 80 96 L 84 96 L 88 96 L 92 96 L 96 96 L 100 96 L 104 96 L 108 96 L 112 96 L 116 96 L 120 96 L 120 92 L 120 88 L 120 84 L 120 80 L 120 76 L 120 72 L 120 68 L 120 64 L 120 60 L 120 56 L 120 52 L 120 48 L 120 44 L 120 40 L 120 36 L 120 32 L 120 28 L 120 24 L 116 24 L 112 24 L 108 24 L 104 24 L 100 24 L 96 24 L 92 24 L 88 24 L 84 24 L 80 24 L 76 24 L 72 24 L 68 24 L 64 24 L 60 24 L 56 24 L 52 24 L 48 24 L 44 24 L 40 24 L 36 24 L 32 24 L 28 24 L 24 24 L 24 20 L 24 16 L 24 12 L 24 8 L 28 8 L 32 8 L 36 8 L 40 8 L 44 8 L 48 8 L 52 8 L 56 8 L 60 8 L 64 8 L 68 8 L 72 8 L 76 8 L 80 8 L 84 8 L 88 8 L 92 8 L 96 8 L 100 8 L 104 8 L 108 8 L 112 8 L 116 8 L 120 8 L 124 8 L 124 4 L 120 4 L 116 4 L 112 4 L 108 4 L 104 4 L 100 4 L 96 4 L 92 4 L 88 4 L 84 4 L 80 4 L 76 4 L 72 4 L 68 4 L 64 4 L 60 4 L 56 4 L 52 4 L 48 4 L 44 4 L 40 4 L 36 4 L 32 4 L 28 4 L 24 4 L 20 4 z M 84 12 L 84 16 L 84 20 L 88 20 L 92 20 L 92 16 L 92 12 L 88 12 L 84 12 z M 96 12 L 96 16 L 96 20 L 100 20 L 104 20 L 104 16 L 104 12 L 100 12 L 96 12 z M 108 12 L 108 16 L 108 20 L 112 20 L 116 20 L 116 16 L 116 12 L 112 12 L 108 12 z M 12 44 L 12 48 L 16 48 L 20 48 L 24 48 L 24 44 L 20 44 L 16 44 L 12 44 z M 8 52 L 8 56 L 8 60 L 8 64 L 8 68 L 8 72 L 12 72 L 12 76 L 16 76 L 16 72 L 16 68 L 12 68 L 12 64 L 12 60 L 12 56 L 12 52 L 8 52 z M 16 76 L 16 80 L 20 80 L 20 76 L 16 76 z M 20 52 L 20 56 L 24 56 L 24 60 L 24 64 L 24 68 L 28 68 L 28 72 L 32 72 L 32 68 L 36 68 L 36 64 L 36 60 L 36 56 L 36 52 L 32 52 L 28 52 L 24 52 L 20 52 z M 32 72 L 32 76 L 36 76 L 36 72 L 32 72 z M 32 76 L 28 76 L 28 80 L 32 80 L 32 76 z M 28 80 L 24 80 L 24 84 L 24 88 L 24 92 L 28 92 L 28 96 L 24 96 L 24 100 L 28 100 L 28 104 L 32 104 L 32 108 L 36 108 L 36 104 L 36 100 L 36 96 L 36 92 L 32 92 L 32 88 L 28 88 L 28 84 L 28 80 z M 32 108 L 28 108 L 28 112 L 32 112 L 32 108 z M 32 112 L 32 116 L 36 116 L 36 112 L 32 112 z M 28 112 L 24 112 L 24 116 L 28 116 L 28 112 z M 28 108 L 28 104 L 24 104 L 24 108 L 28 108 z M 28 76 L 28 72 L 24 72 L 24 76 L 28 76 z M 24 72 L 24 68 L 20 68 L 20 72 L 24 72 z M 16 88 L 16 92 L 20 92 L 20 88 L 16 88 z M 16 92 L 12 92 L 12 96 L 16 96 L 16 92 z M 12 96 L 8 96 L 8 100 L 8 104 L 8 108 L 8 112 L 8 116 L 12 116 L 12 112 L 12 108 L 12 104 L 12 100 L 12 96 z M 12 120 L 12 124 L 16 124 L 20 124 L 24 124 L 24 120 L 20 120 L 16 120 L 12 120 z "
     id="rect1634" />
  <path
     style="fill:#ff0000"
     d="M 28 8 L 28 12 L 32 12 L 32 8 L 28 8 z M 4 44 L 4 48 L 8 48 L 8 44 L 4 44 z M 24 44 L 24 48 L 28 48 L 32 48 L 36 48 L 40 48 L 44 48 L 48 48 L 48 44 L 44 44 L 40 44 L 36 44 L 32 44 L 28 44 L 24 44 z M 4 120 L 4 124 L 8 124 L 8 120 L 4 120 z M 24 120 L 24 124 L 28 124 L 32 124 L 36 124 L 40 124 L 44 124 L 48 124 L 48 120 L 44 120 L 40 120 L 36 120 L 32 120 L 28 120 L 24 120 z "
     id="rect1646" />
  <path
     style="fill:#000000"
     d="M 124 4 L 124 8 L 124 12 L 124 16 L 124 20 L 124 24 L 124 28 L 124 32 L 124 36 L 124 40 L 124 44 L 124 48 L 124 52 L 124 56 L 124 60 L 124 64 L 124 68 L 124 72 L 124 76 L 124 80 L 124 84 L 124 88 L 124 92 L 124 96 L 124 100 L 120 100 L 116 100 L 112 100 L 108 100 L 104 100 L 100 100 L 96 100 L 92 100 L 88 100 L 84 100 L 80 100 L 76 100 L 72 100 L 68 100 L 64 100 L 60 100 L 56 100 L 52 100 L 48 100 L 48 96 L 44 96 L 44 100 L 44 104 L 44 108 L 44 112 L 44 116 L 40 116 L 40 112 L 36 112 L 36 116 L 32 116 L 32 112 L 28 112 L 28 116 L 24 116 L 20 116 L 16 116 L 12 116 L 8 116 L 4 116 L 4 120 L 8 120 L 12 120 L 16 120 L 20 120 L 24 120 L 28 120 L 32 120 L 36 120 L 40 120 L 44 120 L 48 120 L 48 116 L 48 112 L 48 108 L 48 104 L 52 104 L 56 104 L 60 104 L 64 104 L 68 104 L 72 104 L 76 104 L 80 104 L 84 104 L 88 104 L 92 104 L 96 104 L 100 104 L 104 104 L 108 104 L 112 104 L 116 104 L 120 104 L 124 104 L 128 104 L 128 100 L 128 96 L 128 92 L 128 88 L 128 84 L 128 80 L 128 76 L 128 72 L 128 68 L 128 64 L 128 60 L 128 56 L 128 52 L 128 48 L 128 44 L 128 40 L 128 36 L 128 32 L 128 28 L 128 24 L 128 20 L 128 16 L 128 12 L 128 8 L 128 4 L 124 4 z M 48 120 L 48 124 L 44 124 L 40 124 L 36 124 L 32 124 L 28 124 L 24 124 L 20 124 L 16 124 L 12 124 L 8 124 L 4 124 L 0 124 L 0 128 L 4 128 L 8 128 L 12 128 L 16 128 L 20 128 L 24 128 L 28 128 L 32 128 L 36 128 L 40 128 L 44 128 L 48 128 L 52 128 L 52 124 L 52 120 L 48 120 z M 28 112 L 28 108 L 24 108 L 24 112 L 28 112 z M 24 108 L 24 104 L 20 104 L 20 108 L 24 108 z M 24 104 L 28 104 L 28 100 L 24 100 L 24 104 z M 28 104 L 28 108 L 32 108 L 32 104 L 28 104 z M 32 108 L 32 112 L 36 112 L 36 108 L 32 108 z M 44 96 L 44 92 L 40 92 L 40 96 L 44 96 z M 40 92 L 40 88 L 36 88 L 36 92 L 40 92 z M 36 88 L 36 84 L 36 80 L 32 80 L 32 84 L 32 88 L 36 88 z M 36 80 L 40 80 L 40 76 L 36 76 L 36 80 z M 40 76 L 44 76 L 44 72 L 40 72 L 40 76 z M 44 72 L 48 72 L 48 68 L 48 64 L 48 60 L 48 56 L 48 52 L 48 48 L 44 48 L 40 48 L 36 48 L 32 48 L 28 48 L 24 48 L 20 48 L 16 48 L 12 48 L 8 48 L 4 48 L 4 52 L 8 52 L 12 52 L 16 52 L 20 52 L 24 52 L 28 52 L 32 52 L 36 52 L 40 52 L 44 52 L 44 56 L 44 60 L 44 64 L 44 68 L 44 72 z M 48 48 L 52 48 L 52 44 L 52 40 L 48 40 L 48 44 L 48 48 z M 92 12 L 92 16 L 92 20 L 88 20 L 84 20 L 84 24 L 88 24 L 92 24 L 96 24 L 100 24 L 104 24 L 108 24 L 112 24 L 116 24 L 120 24 L 120 20 L 120 16 L 120 12 L 116 12 L 116 16 L 116 20 L 112 20 L 108 20 L 108 16 L 108 12 L 104 12 L 104 16 L 104 20 L 100 20 L 96 20 L 96 16 L 96 12 L 92 12 z M 24 68 L 24 72 L 28 72 L 28 68 L 24 68 z M 28 72 L 28 76 L 32 76 L 32 72 L 28 72 z M 32 72 L 36 72 L 36 68 L 32 68 L 32 72 z M 28 76 L 24 76 L 24 80 L 28 80 L 28 76 z M 24 76 L 24 72 L 20 72 L 20 76 L 24 76 z M 24 92 L 24 96 L 28 96 L 28 92 L 24 92 z "
     id="rect1674" />
</svg>
