<?xml version="1.0" encoding="UTF-8" standalone="no"?>
<svg
   xmlns:dc="http://purl.org/dc/elements/1.1/"
   xmlns:cc="http://creativecommons.org/ns#"
   xmlns:rdf="http://www.w3.org/1999/02/22-rdf-syntax-ns#"
   xmlns:svg="http://www.w3.org/2000/svg"
   xmlns="http://www.w3.org/2000/svg"
   xmlns:sodipodi="http://sodipodi.sourceforge.net/DTD/sodipodi-0.dtd"
   xmlns:inkscape="http://www.inkscape.org/namespaces/inkscape"
   id="svg1596"
   width="128px"
   version="1.1"
   height="128px"
   sodipodi:docname="chicago95_tmp_file.svg"
   inkscape:version="0.92.4 (5da689c313, 2019-01-14)">
  <sodipodi:namedview
     pagecolor="#ffffff"
     bordercolor="#666666"
     borderopacity="1"
     objecttolerance="10"
     gridtolerance="10"
     guidetolerance="10"
     inkscape:pageopacity="0"
     inkscape:pageshadow="2"
     inkscape:window-width="640"
     inkscape:window-height="480"
     id="namedview801"
     showgrid="false"
     inkscape:zoom="1.84375"
     inkscape:cx="64"
     inkscape:cy="64"
     inkscape:window-x="0"
     inkscape:window-y="0"
     inkscape:window-maximized="0"
     inkscape:current-layer="svg1596" />
  <metadata
     id="metadata1600">
    <rdf:RDF>
      <cc:Work
         rdf:about="">
        <dc:format>image/svg+xml</dc:format>
        <dc:type
           rdf:resource="http://purl.org/dc/dcmitype/StillImage" />
      </cc:Work>
    </rdf:RDF>
  </metadata>
  <defs
     id="defs2" />
  <path
     style="fill:#008080"
     d="M 48 32 L 48 36 L 52 36 L 52 32 L 48 32 z M 52 36 L 52 40 L 56 40 L 56 36 L 52 36 z M 56 44 L 56 48 L 56 52 L 56 56 L 56 60 L 56 64 L 60 64 L 60 60 L 60 56 L 60 52 L 60 48 L 60 44 L 56 44 z M 56 64 L 52 64 L 52 68 L 48 68 L 48 72 L 44 72 L 44 76 L 48 76 L 52 76 L 52 72 L 56 72 L 56 68 L 56 64 z M 44 76 L 40 76 L 36 76 L 32 76 L 28 76 L 24 76 L 20 76 L 20 80 L 24 80 L 28 80 L 32 80 L 36 80 L 40 80 L 44 80 L 44 76 z "
     id="rect1036" />
  <path
     style="fill:#ffffff"
     d="M 28 4 L 28 8 L 28 12 L 28 16 L 28 20 L 28 24 L 32 24 L 36 24 L 40 24 L 44 24 L 48 24 L 52 24 L 52 28 L 56 28 L 56 32 L 60 32 L 64 32 L 68 32 L 72 32 L 76 32 L 80 32 L 80 36 L 76 36 L 72 36 L 68 36 L 64 36 L 64 40 L 68 40 L 68 44 L 68 48 L 72 48 L 76 48 L 80 48 L 84 48 L 88 48 L 92 48 L 96 48 L 100 48 L 100 52 L 96 52 L 92 52 L 88 52 L 84 52 L 80 52 L 76 52 L 72 52 L 68 52 L 68 56 L 72 56 L 76 56 L 80 56 L 84 56 L 88 56 L 92 56 L 96 56 L 100 56 L 100 60 L 96 60 L 92 60 L 88 60 L 84 60 L 80 60 L 76 60 L 72 60 L 68 60 L 68 64 L 72 64 L 76 64 L 80 64 L 84 64 L 88 64 L 92 64 L 96 64 L 100 64 L 100 68 L 96 68 L 92 68 L 88 68 L 84 68 L 80 68 L 76 68 L 72 68 L 68 68 L 64 68 L 64 72 L 68 72 L 72 72 L 76 72 L 80 72 L 84 72 L 88 72 L 92 72 L 96 72 L 100 72 L 100 76 L 96 76 L 92 76 L 88 76 L 84 76 L 80 76 L 76 76 L 72 76 L 72 80 L 76 80 L 80 80 L 84 80 L 88 80 L 92 80 L 96 80 L 100 80 L 100 84 L 96 84 L 92 84 L 88 84 L 84 84 L 80 84 L 80 88 L 84 88 L 88 88 L 92 88 L 96 88 L 100 88 L 100 92 L 96 92 L 92 92 L 88 92 L 88 96 L 92 96 L 96 96 L 100 96 L 100 100 L 96 100 L 96 104 L 100 104 L 100 108 L 104 108 L 104 112 L 108 112 L 112 112 L 116 112 L 116 108 L 116 104 L 116 100 L 116 96 L 116 92 L 116 88 L 116 84 L 116 80 L 116 76 L 116 72 L 116 68 L 116 64 L 116 60 L 116 56 L 116 52 L 116 48 L 116 44 L 116 40 L 116 36 L 116 32 L 112 32 L 108 32 L 104 32 L 100 32 L 96 32 L 92 32 L 92 28 L 92 24 L 92 20 L 92 16 L 92 12 L 92 8 L 92 4 L 88 4 L 84 4 L 80 4 L 76 4 L 72 4 L 68 4 L 64 4 L 60 4 L 56 4 L 52 4 L 48 4 L 44 4 L 40 4 L 36 4 L 32 4 L 28 4 z M 96 16 L 96 20 L 96 24 L 96 28 L 100 28 L 104 28 L 108 28 L 108 24 L 104 24 L 104 20 L 100 20 L 100 16 L 96 16 z M 24 28 L 24 32 L 28 32 L 28 28 L 24 28 z M 28 32 L 28 36 L 32 36 L 32 32 L 28 32 z M 32 32 L 36 32 L 36 28 L 32 28 L 32 32 z M 28 36 L 24 36 L 24 40 L 28 40 L 28 36 z M 40 28 L 40 32 L 44 32 L 44 28 L 40 28 z M 12 32 L 12 36 L 16 36 L 16 32 L 12 32 z M 16 36 L 16 40 L 12 40 L 12 44 L 16 44 L 16 48 L 12 48 L 12 52 L 16 52 L 16 56 L 20 56 L 20 52 L 20 48 L 20 44 L 20 40 L 20 36 L 16 36 z M 16 56 L 12 56 L 12 60 L 16 60 L 16 56 z M 16 60 L 16 64 L 20 64 L 20 60 L 16 60 z M 16 64 L 12 64 L 12 68 L 16 68 L 16 64 z M 16 68 L 16 72 L 20 72 L 20 68 L 16 68 z M 12 64 L 12 60 L 8 60 L 8 64 L 12 64 z M 8 60 L 8 56 L 4 56 L 4 60 L 8 60 z M 8 56 L 12 56 L 12 52 L 8 52 L 8 56 z M 8 52 L 8 48 L 4 48 L 4 52 L 8 52 z M 8 48 L 12 48 L 12 44 L 8 44 L 8 48 z M 12 40 L 12 36 L 8 36 L 8 40 L 12 40 z M 52 80 L 52 84 L 56 84 L 56 80 L 52 80 z M 56 84 L 56 88 L 60 88 L 60 84 L 56 84 z M 28 84 L 28 88 L 28 92 L 28 96 L 28 100 L 28 104 L 28 108 L 28 112 L 32 112 L 36 112 L 40 112 L 44 112 L 48 112 L 52 112 L 56 112 L 60 112 L 64 112 L 68 112 L 72 112 L 72 108 L 68 108 L 68 104 L 64 104 L 64 100 L 60 100 L 56 100 L 52 100 L 48 100 L 44 100 L 40 100 L 40 96 L 44 96 L 48 96 L 52 96 L 56 96 L 56 92 L 52 92 L 48 92 L 44 92 L 40 92 L 40 88 L 44 88 L 48 88 L 48 84 L 44 84 L 40 84 L 36 84 L 32 84 L 28 84 z "
     id="rect1474" />
  <path
     style="fill:#808080"
     d="M 24 0 L 24 4 L 24 8 L 24 12 L 24 16 L 24 20 L 24 24 L 20 24 L 20 28 L 24 28 L 28 28 L 32 28 L 36 28 L 40 28 L 40 24 L 36 24 L 32 24 L 28 24 L 28 20 L 28 16 L 28 12 L 28 8 L 28 4 L 32 4 L 36 4 L 40 4 L 44 4 L 48 4 L 52 4 L 56 4 L 60 4 L 64 4 L 68 4 L 72 4 L 76 4 L 80 4 L 84 4 L 88 4 L 92 4 L 92 8 L 92 12 L 92 16 L 92 20 L 92 24 L 92 28 L 92 32 L 96 32 L 96 28 L 96 24 L 96 20 L 96 16 L 96 12 L 100 12 L 100 8 L 96 8 L 96 4 L 96 0 L 92 0 L 88 0 L 84 0 L 80 0 L 76 0 L 72 0 L 68 0 L 64 0 L 60 0 L 56 0 L 52 0 L 48 0 L 44 0 L 40 0 L 36 0 L 32 0 L 28 0 L 24 0 z M 100 12 L 100 16 L 104 16 L 104 12 L 100 12 z M 104 16 L 104 20 L 108 20 L 108 16 L 104 16 z M 108 20 L 108 24 L 112 24 L 112 20 L 108 20 z M 112 24 L 112 28 L 116 28 L 116 24 L 112 24 z M 20 28 L 16 28 L 12 28 L 12 32 L 16 32 L 20 32 L 20 28 z M 12 32 L 8 32 L 8 36 L 12 36 L 12 32 z M 8 36 L 4 36 L 4 40 L 4 44 L 8 44 L 8 40 L 8 36 z M 4 44 L 0 44 L 0 48 L 0 52 L 0 56 L 0 60 L 0 64 L 4 64 L 4 60 L 4 56 L 4 52 L 4 48 L 4 44 z M 4 64 L 4 68 L 4 72 L 8 72 L 8 68 L 8 64 L 4 64 z M 8 72 L 8 76 L 12 76 L 12 72 L 8 72 z M 44 24 L 44 28 L 48 28 L 48 24 L 44 24 z M 52 28 L 52 32 L 56 32 L 56 28 L 52 28 z M 56 32 L 56 36 L 60 36 L 60 32 L 56 32 z M 60 36 L 60 40 L 60 44 L 64 44 L 64 40 L 64 36 L 60 36 z M 64 44 L 64 48 L 64 52 L 64 56 L 64 60 L 64 64 L 68 64 L 68 60 L 68 56 L 68 52 L 68 48 L 68 44 L 64 44 z M 64 64 L 60 64 L 60 68 L 60 72 L 64 72 L 64 68 L 64 64 z M 64 72 L 64 76 L 68 76 L 68 72 L 64 72 z M 68 76 L 68 80 L 72 80 L 72 76 L 68 76 z M 72 80 L 72 84 L 76 84 L 76 80 L 72 80 z M 76 84 L 76 88 L 80 88 L 80 84 L 76 84 z M 80 88 L 80 92 L 84 92 L 84 88 L 80 88 z M 84 92 L 84 96 L 88 96 L 88 92 L 84 92 z M 88 96 L 88 100 L 92 100 L 92 96 L 88 96 z M 92 100 L 92 104 L 96 104 L 96 100 L 92 100 z M 96 104 L 96 108 L 100 108 L 100 104 L 96 104 z M 100 108 L 100 112 L 104 112 L 104 108 L 100 108 z M 64 76 L 60 76 L 60 72 L 56 72 L 56 76 L 56 80 L 60 80 L 60 84 L 64 84 L 64 80 L 64 76 z M 36 52 L 36 56 L 40 56 L 44 56 L 48 56 L 52 56 L 56 56 L 56 52 L 52 52 L 48 52 L 44 52 L 40 52 L 36 52 z M 36 60 L 36 64 L 40 64 L 44 64 L 48 64 L 52 64 L 56 64 L 56 60 L 52 60 L 48 60 L 44 60 L 40 60 L 36 60 z M 36 68 L 36 72 L 40 72 L 44 72 L 48 72 L 48 68 L 44 68 L 40 68 L 36 68 z M 44 80 L 44 84 L 48 84 L 48 80 L 44 80 z M 48 84 L 48 88 L 52 88 L 52 84 L 48 84 z M 52 88 L 52 92 L 56 92 L 56 88 L 52 88 z M 24 84 L 24 88 L 24 92 L 24 96 L 24 100 L 24 104 L 24 108 L 24 112 L 24 116 L 28 116 L 28 112 L 28 108 L 28 104 L 28 100 L 28 96 L 28 92 L 28 88 L 28 84 L 24 84 z "
     id="rect1480" />
  <path
     style="fill:#c0c0c0"
     d="M 96 12 L 96 16 L 100 16 L 100 12 L 96 12 z M 100 16 L 100 20 L 104 20 L 104 16 L 100 16 z M 104 20 L 104 24 L 108 24 L 108 20 L 104 20 z M 108 24 L 108 28 L 112 28 L 112 24 L 108 24 z M 48 24 L 48 28 L 52 28 L 52 24 L 48 24 z M 20 28 L 20 32 L 20 36 L 20 40 L 20 44 L 20 48 L 20 52 L 20 56 L 20 60 L 20 64 L 20 68 L 20 72 L 20 76 L 24 76 L 24 72 L 28 72 L 28 68 L 24 68 L 24 64 L 28 64 L 28 60 L 24 60 L 24 56 L 28 56 L 28 52 L 24 52 L 24 48 L 28 48 L 28 44 L 24 44 L 24 40 L 24 36 L 24 32 L 24 28 L 20 28 z M 28 44 L 32 44 L 32 40 L 28 40 L 28 44 z M 32 40 L 36 40 L 36 36 L 32 36 L 32 40 z M 36 36 L 40 36 L 40 32 L 36 32 L 36 36 z M 40 36 L 40 40 L 44 40 L 44 36 L 40 36 z M 44 36 L 48 36 L 48 32 L 44 32 L 44 36 z M 48 36 L 48 40 L 52 40 L 52 36 L 48 36 z M 52 40 L 52 44 L 56 44 L 56 40 L 52 40 z M 52 44 L 48 44 L 48 48 L 52 48 L 52 44 z M 52 48 L 52 52 L 56 52 L 56 48 L 52 48 z M 48 48 L 44 48 L 44 52 L 48 52 L 48 48 z M 44 48 L 44 44 L 40 44 L 40 48 L 44 48 z M 40 48 L 36 48 L 36 52 L 40 52 L 40 48 z M 36 52 L 32 52 L 32 56 L 36 56 L 36 52 z M 36 56 L 36 60 L 40 60 L 40 56 L 36 56 z M 36 60 L 32 60 L 32 64 L 36 64 L 36 60 z M 36 64 L 36 68 L 40 68 L 40 64 L 36 64 z M 36 68 L 32 68 L 32 72 L 36 72 L 36 68 z M 36 72 L 36 76 L 40 76 L 40 72 L 36 72 z M 32 72 L 28 72 L 28 76 L 32 76 L 32 72 z M 32 68 L 32 64 L 28 64 L 28 68 L 32 68 z M 32 60 L 32 56 L 28 56 L 28 60 L 32 60 z M 32 52 L 32 48 L 28 48 L 28 52 L 32 52 z M 32 48 L 36 48 L 36 44 L 32 44 L 32 48 z M 36 44 L 40 44 L 40 40 L 36 40 L 36 44 z M 44 44 L 48 44 L 48 40 L 44 40 L 44 44 z M 60 32 L 60 36 L 64 36 L 68 36 L 72 36 L 76 36 L 80 36 L 80 32 L 76 32 L 72 32 L 68 32 L 64 32 L 60 32 z M 116 32 L 116 36 L 116 40 L 116 44 L 116 48 L 116 52 L 116 56 L 116 60 L 116 64 L 116 68 L 116 72 L 116 76 L 116 80 L 116 84 L 116 88 L 116 92 L 116 96 L 116 100 L 116 104 L 116 108 L 116 112 L 112 112 L 108 112 L 104 112 L 104 116 L 108 116 L 112 116 L 116 116 L 120 116 L 120 112 L 120 108 L 120 104 L 120 100 L 120 96 L 120 92 L 120 88 L 120 84 L 120 80 L 120 76 L 120 72 L 120 68 L 120 64 L 120 60 L 120 56 L 120 52 L 120 48 L 120 44 L 120 40 L 120 36 L 120 32 L 116 32 z M 64 40 L 64 44 L 68 44 L 68 40 L 64 40 z M 68 48 L 68 52 L 72 52 L 76 52 L 80 52 L 84 52 L 88 52 L 92 52 L 96 52 L 100 52 L 100 48 L 96 48 L 92 48 L 88 48 L 84 48 L 80 48 L 76 48 L 72 48 L 68 48 z M 44 56 L 44 60 L 48 60 L 48 56 L 44 56 z M 52 56 L 52 60 L 56 60 L 56 56 L 52 56 z M 68 56 L 68 60 L 72 60 L 76 60 L 80 60 L 84 60 L 88 60 L 92 60 L 96 60 L 100 60 L 100 56 L 96 56 L 92 56 L 88 56 L 84 56 L 80 56 L 76 56 L 72 56 L 68 56 z M 44 64 L 44 68 L 48 68 L 48 64 L 44 64 z M 64 64 L 64 68 L 68 68 L 72 68 L 76 68 L 80 68 L 84 68 L 88 68 L 92 68 L 96 68 L 100 68 L 100 64 L 96 64 L 92 64 L 88 64 L 84 64 L 80 64 L 76 64 L 72 64 L 68 64 L 64 64 z M 8 68 L 8 72 L 12 72 L 12 68 L 8 68 z M 12 72 L 12 76 L 16 76 L 16 72 L 12 72 z M 68 72 L 68 76 L 72 76 L 76 76 L 80 76 L 84 76 L 88 76 L 92 76 L 96 76 L 100 76 L 100 72 L 96 72 L 92 72 L 88 72 L 84 72 L 80 72 L 76 72 L 72 72 L 68 72 z M 52 76 L 52 80 L 56 80 L 56 76 L 52 76 z M 56 80 L 56 84 L 60 84 L 60 80 L 56 80 z M 56 84 L 52 84 L 52 88 L 56 88 L 56 84 z M 52 88 L 48 88 L 44 88 L 40 88 L 40 92 L 44 92 L 48 92 L 52 92 L 52 88 z M 52 84 L 52 80 L 48 80 L 48 84 L 52 84 z M 76 80 L 76 84 L 80 84 L 84 84 L 88 84 L 92 84 L 96 84 L 100 84 L 100 80 L 96 80 L 92 80 L 88 80 L 84 80 L 80 80 L 76 80 z M 84 88 L 84 92 L 88 92 L 92 92 L 96 92 L 100 92 L 100 88 L 96 88 L 92 88 L 88 88 L 84 88 z M 40 96 L 40 100 L 44 100 L 48 100 L 52 100 L 56 100 L 60 100 L 60 96 L 56 96 L 52 96 L 48 96 L 44 96 L 40 96 z M 92 96 L 92 100 L 96 100 L 100 100 L 100 96 L 96 96 L 92 96 z M 28 112 L 28 116 L 32 116 L 36 116 L 40 116 L 44 116 L 48 116 L 52 116 L 56 116 L 60 116 L 64 116 L 68 116 L 72 116 L 76 116 L 76 112 L 72 112 L 68 112 L 64 112 L 60 112 L 56 112 L 52 112 L 48 112 L 44 112 L 40 112 L 36 112 L 32 112 L 28 112 z "
     id="rect1526" />
  <path
     style="fill:#000080"
     d="M 56 92 L 56 96 L 60 96 L 60 92 L 56 92 z M 60 96 L 60 100 L 64 100 L 64 96 L 60 96 z M 64 100 L 64 104 L 68 104 L 68 100 L 64 100 z M 68 104 L 68 108 L 72 108 L 72 104 L 68 104 z M 72 108 L 72 112 L 76 112 L 76 108 L 72 108 z M 76 112 L 76 116 L 80 116 L 80 112 L 76 112 z M 80 116 L 80 120 L 84 120 L 84 116 L 80 116 z M 84 120 L 84 124 L 88 124 L 88 120 L 84 120 z "
     id="rect1580" />
  <path
     style="fill:#00ffff"
     d="M 28 28 L 28 32 L 32 32 L 32 28 L 28 28 z M 32 32 L 32 36 L 36 36 L 36 32 L 32 32 z M 36 32 L 40 32 L 40 28 L 36 28 L 36 32 z M 40 32 L 40 36 L 44 36 L 44 32 L 40 32 z M 44 36 L 44 40 L 48 40 L 48 36 L 44 36 z M 48 40 L 48 44 L 52 44 L 52 40 L 48 40 z M 52 44 L 52 48 L 56 48 L 56 44 L 52 44 z M 52 48 L 48 48 L 48 52 L 52 52 L 52 48 z M 48 48 L 48 44 L 44 44 L 44 48 L 48 48 z M 44 48 L 40 48 L 40 52 L 44 52 L 44 48 z M 40 48 L 40 44 L 36 44 L 36 48 L 40 48 z M 36 48 L 32 48 L 32 52 L 36 52 L 36 48 z M 32 52 L 28 52 L 28 56 L 32 56 L 32 52 z M 32 56 L 32 60 L 36 60 L 36 56 L 32 56 z M 32 60 L 28 60 L 28 64 L 32 64 L 32 60 z M 32 64 L 32 68 L 36 68 L 36 64 L 32 64 z M 32 68 L 28 68 L 28 72 L 32 72 L 32 68 z M 32 72 L 32 76 L 36 76 L 36 72 L 32 72 z M 28 72 L 24 72 L 24 76 L 28 76 L 28 72 z M 28 68 L 28 64 L 24 64 L 24 68 L 28 68 z M 28 60 L 28 56 L 24 56 L 24 60 L 28 60 z M 28 52 L 28 48 L 24 48 L 24 52 L 28 52 z M 28 48 L 32 48 L 32 44 L 28 44 L 28 48 z M 28 44 L 28 40 L 24 40 L 24 44 L 28 44 z M 28 40 L 32 40 L 32 36 L 28 36 L 28 40 z M 28 36 L 28 32 L 24 32 L 24 36 L 28 36 z M 32 40 L 32 44 L 36 44 L 36 40 L 32 40 z M 36 40 L 40 40 L 40 36 L 36 36 L 36 40 z M 40 40 L 40 44 L 44 44 L 44 40 L 40 40 z M 16 32 L 16 36 L 20 36 L 20 32 L 16 32 z M 16 36 L 12 36 L 12 40 L 16 40 L 16 36 z M 12 40 L 8 40 L 8 44 L 12 44 L 12 40 z M 12 44 L 12 48 L 16 48 L 16 44 L 12 44 z M 12 48 L 8 48 L 8 52 L 12 52 L 12 48 z M 12 52 L 12 56 L 16 56 L 16 52 L 12 52 z M 16 56 L 16 60 L 20 60 L 20 56 L 16 56 z M 16 60 L 12 60 L 12 64 L 16 64 L 16 60 z M 16 64 L 16 68 L 20 68 L 20 64 L 16 64 z M 16 68 L 12 68 L 12 72 L 16 72 L 16 68 z M 16 72 L 16 76 L 20 76 L 20 72 L 16 72 z M 12 68 L 12 64 L 8 64 L 8 68 L 12 68 z M 8 64 L 8 60 L 4 60 L 4 64 L 8 64 z M 8 60 L 12 60 L 12 56 L 8 56 L 8 60 z M 8 56 L 8 52 L 4 52 L 4 56 L 8 56 z M 8 48 L 8 44 L 4 44 L 4 48 L 8 48 z M 40 56 L 40 60 L 44 60 L 44 56 L 40 56 z M 48 56 L 48 60 L 52 60 L 52 56 L 48 56 z M 40 64 L 40 68 L 44 68 L 44 64 L 40 64 z M 48 64 L 48 68 L 52 68 L 52 64 L 48 64 z M 40 72 L 40 76 L 44 76 L 44 72 L 40 72 z M 60 84 L 60 88 L 60 92 L 64 92 L 64 96 L 68 96 L 68 100 L 72 100 L 72 104 L 76 104 L 76 108 L 80 108 L 80 112 L 84 112 L 84 116 L 88 116 L 88 120 L 92 120 L 92 124 L 96 124 L 96 120 L 96 116 L 92 116 L 92 112 L 88 112 L 88 108 L 84 108 L 84 104 L 80 104 L 80 100 L 76 100 L 76 96 L 72 96 L 72 92 L 68 92 L 68 88 L 64 88 L 64 84 L 60 84 z "
     id="rect1584" />
  <path
     style="fill:#0000ff"
     d="M 64 80 L 64 84 L 64 88 L 68 88 L 68 92 L 72 92 L 72 96 L 76 96 L 76 100 L 80 100 L 80 104 L 84 104 L 84 108 L 88 108 L 88 112 L 92 112 L 92 116 L 96 116 L 96 120 L 96 124 L 100 124 L 100 120 L 100 116 L 100 112 L 96 112 L 96 108 L 92 108 L 92 104 L 88 104 L 88 100 L 84 100 L 84 96 L 80 96 L 80 92 L 76 92 L 76 88 L 72 88 L 72 84 L 68 84 L 68 80 L 64 80 z M 56 88 L 56 92 L 60 92 L 60 88 L 56 88 z M 60 92 L 60 96 L 64 96 L 64 92 L 60 92 z M 64 96 L 64 100 L 68 100 L 68 96 L 64 96 z M 68 100 L 68 104 L 72 104 L 72 100 L 68 100 z M 72 104 L 72 108 L 76 108 L 76 104 L 72 104 z M 76 108 L 76 112 L 80 112 L 80 108 L 76 108 z M 80 112 L 80 116 L 84 116 L 84 112 L 80 112 z M 84 116 L 84 120 L 88 120 L 88 116 L 84 116 z M 88 120 L 88 124 L 92 124 L 92 120 L 88 120 z "
     id="rect1586" />
  <path
     style="fill:#000000"
     d="M 96 4 L 96 8 L 100 8 L 100 4 L 96 4 z M 100 8 L 100 12 L 104 12 L 104 8 L 100 8 z M 104 12 L 104 16 L 108 16 L 108 12 L 104 12 z M 108 16 L 108 20 L 112 20 L 112 16 L 108 16 z M 112 20 L 112 24 L 116 24 L 116 20 L 112 20 z M 116 24 L 116 28 L 112 28 L 108 28 L 104 28 L 100 28 L 96 28 L 96 32 L 100 32 L 104 32 L 108 32 L 112 32 L 116 32 L 120 32 L 120 36 L 120 40 L 120 44 L 120 48 L 120 52 L 120 56 L 120 60 L 120 64 L 120 68 L 120 72 L 120 76 L 120 80 L 120 84 L 120 88 L 120 92 L 120 96 L 120 100 L 120 104 L 120 108 L 120 112 L 120 116 L 116 116 L 112 116 L 108 116 L 104 116 L 104 112 L 100 112 L 100 116 L 100 120 L 100 124 L 104 124 L 104 120 L 108 120 L 112 120 L 116 120 L 120 120 L 124 120 L 124 116 L 124 112 L 124 108 L 124 104 L 124 100 L 124 96 L 124 92 L 124 88 L 124 84 L 124 80 L 124 76 L 124 72 L 124 68 L 124 64 L 124 60 L 124 56 L 124 52 L 124 48 L 124 44 L 124 40 L 124 36 L 124 32 L 124 28 L 120 28 L 120 24 L 116 24 z M 100 124 L 96 124 L 92 124 L 88 124 L 88 128 L 92 128 L 96 128 L 100 128 L 100 124 z M 100 112 L 100 108 L 96 108 L 96 112 L 100 112 z M 96 108 L 96 104 L 92 104 L 92 108 L 96 108 z M 92 104 L 92 100 L 88 100 L 88 104 L 92 104 z M 88 100 L 88 96 L 84 96 L 84 100 L 88 100 z M 84 96 L 84 92 L 80 92 L 80 96 L 84 96 z M 80 92 L 80 88 L 76 88 L 76 92 L 80 92 z M 76 88 L 76 84 L 72 84 L 72 88 L 76 88 z M 72 84 L 72 80 L 68 80 L 68 84 L 72 84 z M 68 80 L 68 76 L 64 76 L 64 80 L 68 80 z M 64 76 L 64 72 L 60 72 L 60 76 L 64 76 z M 60 72 L 60 68 L 60 64 L 56 64 L 56 68 L 56 72 L 60 72 z M 56 72 L 52 72 L 52 76 L 56 76 L 56 72 z M 52 76 L 48 76 L 44 76 L 44 80 L 48 80 L 52 80 L 52 76 z M 44 80 L 40 80 L 36 80 L 32 80 L 28 80 L 24 80 L 20 80 L 20 84 L 24 84 L 28 84 L 32 84 L 36 84 L 40 84 L 44 84 L 44 80 z M 20 80 L 20 76 L 16 76 L 12 76 L 12 80 L 16 80 L 20 80 z M 60 64 L 64 64 L 64 60 L 64 56 L 64 52 L 64 48 L 64 44 L 60 44 L 60 48 L 60 52 L 60 56 L 60 60 L 60 64 z M 60 44 L 60 40 L 60 36 L 56 36 L 56 40 L 56 44 L 60 44 z M 56 36 L 56 32 L 52 32 L 52 36 L 56 36 z M 52 32 L 52 28 L 48 28 L 44 28 L 44 32 L 48 32 L 52 32 z M 44 28 L 44 24 L 40 24 L 40 28 L 44 28 z M 24 116 L 24 120 L 28 120 L 32 120 L 36 120 L 40 120 L 44 120 L 48 120 L 52 120 L 56 120 L 60 120 L 64 120 L 68 120 L 72 120 L 76 120 L 80 120 L 80 116 L 76 116 L 72 116 L 68 116 L 64 116 L 60 116 L 56 116 L 52 116 L 48 116 L 44 116 L 40 116 L 36 116 L 32 116 L 28 116 L 24 116 z "
     id="rect1594" />
</svg>
