<?xml version="1.0" encoding="UTF-8" standalone="no"?>
<svg
   xmlns:dc="http://purl.org/dc/elements/1.1/"
   xmlns:cc="http://creativecommons.org/ns#"
   xmlns:rdf="http://www.w3.org/1999/02/22-rdf-syntax-ns#"
   xmlns:svg="http://www.w3.org/2000/svg"
   xmlns="http://www.w3.org/2000/svg"
   xmlns:sodipodi="http://sodipodi.sourceforge.net/DTD/sodipodi-0.dtd"
   xmlns:inkscape="http://www.inkscape.org/namespaces/inkscape"
   id="svg400"
   width="320px"
   version="1.1"
   height="320px"
   sodipodi:docname="chicago95_tmp_file.svg"
   inkscape:version="0.92.5 (2060ec1f9f, 2020-04-08)">
  <sodipodi:namedview
     pagecolor="#ffffff"
     bordercolor="#666666"
     borderopacity="1"
     objecttolerance="10"
     gridtolerance="10"
     guidetolerance="10"
     inkscape:pageopacity="0"
     inkscape:pageshadow="2"
     inkscape:window-width="452"
     inkscape:window-height="423"
     id="namedview203"
     showgrid="false"
     inkscape:zoom="0.7375"
     inkscape:cx="165.42372"
     inkscape:cy="149.15254"
     inkscape:window-x="0"
     inkscape:window-y="0"
     inkscape:window-maximized="0"
     inkscape:current-layer="svg400" />
  <metadata
     id="metadata404">
    <rdf:RDF>
      <cc:Work
         rdf:about="">
        <dc:format>image/svg+xml</dc:format>
        <dc:type
           rdf:resource="http://purl.org/dc/dcmitype/StillImage" />
      </cc:Work>
    </rdf:RDF>
  </metadata>
  <defs
     id="defs2" />
  <path
     style="fill:#ffffff"
     d="M 40 40 L 40 61 L 60 61 L 61 61 L 80 61 L 80 81 L 100 81 L 101 81 L 120 81 L 120 101 L 140 101 L 141 101 L 160 101 L 160 121 L 180 121 L 181 121 L 201 121 L 201 100 L 181 100 L 180 100 L 161 100 L 161 80 L 141 80 L 140 80 L 121 80 L 121 60 L 101 60 L 100 60 L 81 60 L 81 40 L 61 40 L 60 40 L 40 40 z "
     id="rect136" />
  <path
     style="fill:#00ffff"
     d="M 80 120 L 80 140 L 80 141 L 80 160 L 60 160 L 60 181 L 80 181 L 80 201 L 101 201 L 101 181 L 120 181 L 121 181 L 141 181 L 141 160 L 121 160 L 120 160 L 101 160 L 101 141 L 101 140 L 101 120 L 80 120 z M 81 161 L 100 161 L 100 180 L 81 180 L 81 161 z "
     id="rect254" />
  <path
     style="fill:#0000ff"
     d="M 60 100 L 60 120 L 60 121 L 60 140 L 60 141 L 60 161 L 80 161 L 80 180 L 60 180 L 60 201 L 81 201 L 81 181 L 100 181 L 100 200 L 100 201 L 100 221 L 120 221 L 121 221 L 141 221 L 141 201 L 141 200 L 141 180 L 121 180 L 120 180 L 101 180 L 101 161 L 120 161 L 121 161 L 141 161 L 141 141 L 141 140 L 141 120 L 121 120 L 120 120 L 100 120 L 100 140 L 100 141 L 100 160 L 81 160 L 81 141 L 81 140 L 81 121 L 81 120 L 81 100 L 60 100 z "
     id="rect290" />
  <path
     style="fill:#000080"
     d="M 60 80 L 60 101 L 80 101 L 80 121 L 100 121 L 101 121 L 121 121 L 121 100 L 101 100 L 100 100 L 81 100 L 81 80 L 60 80 z M 140 120 L 140 140 L 140 141 L 140 160 L 140 161 L 140 180 L 140 181 L 140 200 L 140 201 L 140 220 L 121 220 L 120 220 L 101 220 L 101 200 L 81 200 L 80 200 L 60 200 L 60 221 L 80 221 L 81 221 L 100 221 L 100 241 L 120 241 L 121 241 L 140 241 L 140 261 L 161 261 L 161 241 L 161 240 L 161 221 L 161 220 L 161 201 L 161 200 L 161 181 L 161 180 L 161 161 L 161 160 L 161 141 L 161 140 L 161 120 L 140 120 z "
     id="rect348" />
  <path
     style="fill:#c0c0c0"
     d="M 60 20 L 60 41 L 80 41 L 80 61 L 100 61 L 101 61 L 120 61 L 120 81 L 140 81 L 141 81 L 160 81 L 160 101 L 180 101 L 181 101 L 200 101 L 200 120 L 181 120 L 180 120 L 160 120 L 160 140 L 160 141 L 160 160 L 160 161 L 160 180 L 160 181 L 160 200 L 160 201 L 160 220 L 160 221 L 160 240 L 160 241 L 160 260 L 141 260 L 141 240 L 121 240 L 120 240 L 101 240 L 101 220 L 81 220 L 80 220 L 61 220 L 61 200 L 41 200 L 41 181 L 41 180 L 41 161 L 41 160 L 41 141 L 41 140 L 41 121 L 41 120 L 41 101 L 41 100 L 41 81 L 41 80 L 41 61 L 41 60 L 41 40 L 20 40 L 20 60 L 20 61 L 20 80 L 20 81 L 20 100 L 20 101 L 20 120 L 20 121 L 20 140 L 20 141 L 20 160 L 20 161 L 20 180 L 20 181 L 20 200 L 20 201 L 20 221 L 40 221 L 41 221 L 60 221 L 60 241 L 80 241 L 81 241 L 100 241 L 100 261 L 120 261 L 121 261 L 140 261 L 140 281 L 160 281 L 161 281 L 180 281 L 181 281 L 201 281 L 201 261 L 201 260 L 201 241 L 201 240 L 201 221 L 201 220 L 201 201 L 201 200 L 201 181 L 201 180 L 201 161 L 201 160 L 201 141 L 201 140 L 201 121 L 221 121 L 221 101 L 241 101 L 241 81 L 260 81 L 260 101 L 281 101 L 281 80 L 261 80 L 261 60 L 240 60 L 240 80 L 221 80 L 220 80 L 201 80 L 201 61 L 221 61 L 221 40 L 200 40 L 200 60 L 181 60 L 180 60 L 161 60 L 161 40 L 141 40 L 140 40 L 121 40 L 121 20 L 101 20 L 100 20 L 81 20 L 80 20 L 60 20 z "
     id="rect372" />
  <path
     style="fill:#808080"
     d="M 60 0 L 60 20 L 41 20 L 40 20 L 20 20 L 20 40 L 0 40 L 0 60 L 0 61 L 0 80 L 0 81 L 0 100 L 0 101 L 0 120 L 0 121 L 0 140 L 0 141 L 0 160 L 0 161 L 0 180 L 0 181 L 0 200 L 0 201 L 0 221 L 20 221 L 20 241 L 40 241 L 41 241 L 60 241 L 60 261 L 80 261 L 81 261 L 100 261 L 100 281 L 120 281 L 121 281 L 140 281 L 140 301 L 160 301 L 161 301 L 180 301 L 181 301 L 201 301 L 201 281 L 220 281 L 221 281 L 241 281 L 241 261 L 241 260 L 241 241 L 241 240 L 241 221 L 241 220 L 241 201 L 241 200 L 241 181 L 241 180 L 241 161 L 241 160 L 241 141 L 241 140 L 241 121 L 241 120 L 241 101 L 260 101 L 260 120 L 260 121 L 260 140 L 260 141 L 260 160 L 260 161 L 260 180 L 260 181 L 260 200 L 260 201 L 260 221 L 281 221 L 281 201 L 301 201 L 301 181 L 301 180 L 301 161 L 301 160 L 301 141 L 301 140 L 301 121 L 301 120 L 301 101 L 301 100 L 301 81 L 301 80 L 301 60 L 281 60 L 280 60 L 261 60 L 261 40 L 241 40 L 240 40 L 221 40 L 221 20 L 201 20 L 200 20 L 181 20 L 180 20 L 161 20 L 160 20 L 141 20 L 140 20 L 121 20 L 121 0 L 101 0 L 100 0 L 81 0 L 80 0 L 60 0 z M 61 21 L 80 21 L 81 21 L 100 21 L 101 21 L 120 21 L 120 41 L 140 41 L 141 41 L 160 41 L 160 61 L 180 61 L 181 61 L 200 61 L 200 81 L 220 81 L 221 81 L 240 81 L 240 100 L 220 100 L 220 120 L 200 120 L 200 140 L 200 141 L 200 160 L 200 161 L 200 180 L 200 181 L 200 200 L 200 201 L 200 220 L 200 221 L 200 240 L 200 241 L 200 260 L 200 261 L 200 280 L 181 280 L 180 280 L 161 280 L 160 280 L 141 280 L 141 260 L 121 260 L 120 260 L 101 260 L 101 240 L 81 240 L 80 240 L 61 240 L 61 220 L 41 220 L 40 220 L 21 220 L 21 201 L 21 200 L 21 181 L 21 180 L 21 161 L 21 160 L 21 141 L 21 140 L 21 121 L 21 120 L 21 101 L 21 100 L 21 81 L 21 80 L 21 61 L 21 60 L 21 41 L 40 41 L 41 41 L 61 41 L 61 21 z M 201 41 L 220 41 L 220 60 L 201 60 L 201 41 z M 40 60 L 40 81 L 60 81 L 61 81 L 80 81 L 80 101 L 100 101 L 101 101 L 120 101 L 120 121 L 140 121 L 141 121 L 161 121 L 161 100 L 141 100 L 140 100 L 121 100 L 121 80 L 101 80 L 100 80 L 81 80 L 81 60 L 61 60 L 60 60 L 40 60 z M 241 61 L 260 61 L 260 80 L 241 80 L 241 61 z M 261 81 L 280 81 L 280 100 L 261 100 L 261 81 z "
     id="rect388" />
  <path
     style="fill:#000000"
     d="M 40 80 L 40 100 L 40 101 L 40 120 L 40 121 L 40 140 L 40 141 L 40 160 L 40 161 L 40 180 L 40 181 L 40 201 L 61 201 L 61 181 L 61 180 L 61 161 L 61 160 L 61 141 L 61 140 L 61 121 L 61 120 L 61 101 L 61 100 L 61 80 L 40 80 z M 300 80 L 300 100 L 300 101 L 300 120 L 300 121 L 300 140 L 300 141 L 300 160 L 300 161 L 300 180 L 300 181 L 300 200 L 280 200 L 280 220 L 261 220 L 261 201 L 261 200 L 261 181 L 261 180 L 261 161 L 261 160 L 261 141 L 261 140 L 261 121 L 261 120 L 261 100 L 240 100 L 240 120 L 240 121 L 240 140 L 240 141 L 240 160 L 240 161 L 240 180 L 240 181 L 240 200 L 240 201 L 240 220 L 240 221 L 240 240 L 240 241 L 240 260 L 240 261 L 240 280 L 221 280 L 220 280 L 200 280 L 200 300 L 181 300 L 180 300 L 161 300 L 160 300 L 141 300 L 141 280 L 121 280 L 120 280 L 101 280 L 101 260 L 81 260 L 80 260 L 61 260 L 61 240 L 41 240 L 40 240 L 21 240 L 21 220 L 0 220 L 0 241 L 20 241 L 20 261 L 40 261 L 41 261 L 60 261 L 60 281 L 80 281 L 81 281 L 100 281 L 100 301 L 120 301 L 121 301 L 140 301 L 140 321 L 160 321 L 161 321 L 180 321 L 181 321 L 201 321 L 201 301 L 220 301 L 221 301 L 241 301 L 241 281 L 261 281 L 261 261 L 261 260 L 261 241 L 281 241 L 281 221 L 301 221 L 301 201 L 321 201 L 321 181 L 321 180 L 321 161 L 321 160 L 321 141 L 321 140 L 321 121 L 321 120 L 321 101 L 321 100 L 321 80 L 300 80 z "
     id="rect398" />
</svg>
