<?xml version="1.0" encoding="UTF-8" standalone="no"?>
<svg
   xmlns:dc="http://purl.org/dc/elements/1.1/"
   xmlns:cc="http://creativecommons.org/ns#"
   xmlns:rdf="http://www.w3.org/1999/02/22-rdf-syntax-ns#"
   xmlns:svg="http://www.w3.org/2000/svg"
   xmlns="http://www.w3.org/2000/svg"
   xmlns:sodipodi="http://sodipodi.sourceforge.net/DTD/sodipodi-0.dtd"
   xmlns:inkscape="http://www.inkscape.org/namespaces/inkscape"
   id="svg154"
   width="320px"
   version="1.1"
   height="320px"
   sodipodi:docname="chicago95_tmp_file.svg"
   inkscape:version="0.92.5 (2060ec1f9f, 2020-04-08)">
  <sodipodi:namedview
     pagecolor="#ffffff"
     bordercolor="#666666"
     borderopacity="1"
     objecttolerance="10"
     gridtolerance="10"
     guidetolerance="10"
     inkscape:pageopacity="0"
     inkscape:pageshadow="2"
     inkscape:window-width="452"
     inkscape:window-height="423"
     id="namedview80"
     showgrid="false"
     inkscape:zoom="0.7375"
     inkscape:cx="165.42372"
     inkscape:cy="149.15254"
     inkscape:window-x="0"
     inkscape:window-y="0"
     inkscape:window-maximized="0"
     inkscape:current-layer="svg154" />
  <metadata
     id="metadata158">
    <rdf:RDF>
      <cc:Work
         rdf:about="">
        <dc:format>image/svg+xml</dc:format>
        <dc:type
           rdf:resource="http://purl.org/dc/dcmitype/StillImage" />
      </cc:Work>
    </rdf:RDF>
  </metadata>
  <defs
     id="defs2" />
  <path
     style="opacity:0.00392157;fill:#000000"
     d="M 0 40 L 0 60 L 0 61 L 0 80 L 0 81 L 0 101 L 21 101 L 21 81 L 21 80 L 21 61 L 21 60 L 21 40 L 0 40 z "
     id="rect48" />
  <path
     style="fill:#800000"
     d="M 120 40 L 120 61 L 140 61 L 141 61 L 160 61 L 161 61 L 180 61 L 181 61 L 200 61 L 201 61 L 220 61 L 221 61 L 240 61 L 241 61 L 260 61 L 261 61 L 281 61 L 281 40 L 261 40 L 260 40 L 241 40 L 240 40 L 221 40 L 220 40 L 201 40 L 200 40 L 181 40 L 180 40 L 161 40 L 160 40 L 141 40 L 140 40 L 120 40 z M 120 140 L 120 161 L 140 161 L 141 161 L 160 161 L 161 161 L 180 161 L 181 161 L 200 161 L 201 161 L 220 161 L 221 161 L 240 161 L 241 161 L 260 161 L 261 161 L 281 161 L 281 140 L 261 140 L 260 140 L 241 140 L 240 140 L 221 140 L 220 140 L 201 140 L 200 140 L 181 140 L 180 140 L 161 140 L 160 140 L 141 140 L 140 140 L 120 140 z M 120 240 L 120 261 L 140 261 L 141 261 L 160 261 L 161 261 L 180 261 L 181 261 L 200 261 L 201 261 L 220 261 L 221 261 L 240 261 L 241 261 L 260 261 L 261 261 L 281 261 L 281 240 L 261 240 L 260 240 L 241 240 L 240 240 L 221 240 L 220 240 L 201 240 L 200 240 L 181 240 L 180 240 L 161 240 L 160 240 L 141 240 L 140 240 L 120 240 z "
     id="rect136" />
  <path
     style="fill:#ffffff"
     d="M 40 40 L 40 60 L 40 61 L 40 81 L 60 81 L 61 81 L 81 81 L 81 61 L 81 60 L 81 40 L 61 40 L 60 40 L 40 40 z M 40 140 L 40 160 L 40 161 L 40 181 L 60 181 L 61 181 L 81 181 L 81 161 L 81 160 L 81 140 L 61 140 L 60 140 L 40 140 z M 40 240 L 40 260 L 40 261 L 40 281 L 60 281 L 61 281 L 81 281 L 81 261 L 81 260 L 81 240 L 61 240 L 60 240 L 40 240 z "
     id="rect142" />
  <path
     style="fill:#000080"
     d="M 20 20 L 20 40 L 20 41 L 20 60 L 20 61 L 20 80 L 20 81 L 20 101 L 40 101 L 41 101 L 60 101 L 61 101 L 80 101 L 81 101 L 101 101 L 101 81 L 101 80 L 101 61 L 101 60 L 101 41 L 101 40 L 101 20 L 81 20 L 80 20 L 61 20 L 60 20 L 41 20 L 40 20 L 20 20 z M 41 41 L 60 41 L 61 41 L 80 41 L 80 60 L 80 61 L 80 80 L 61 80 L 60 80 L 41 80 L 41 61 L 41 60 L 41 41 z M 20 120 L 20 140 L 20 141 L 20 160 L 20 161 L 20 180 L 20 181 L 20 201 L 40 201 L 41 201 L 60 201 L 61 201 L 80 201 L 81 201 L 101 201 L 101 181 L 101 180 L 101 161 L 101 160 L 101 141 L 101 140 L 101 120 L 81 120 L 80 120 L 61 120 L 60 120 L 41 120 L 40 120 L 20 120 z M 41 141 L 60 141 L 61 141 L 80 141 L 80 160 L 80 161 L 80 180 L 61 180 L 60 180 L 41 180 L 41 161 L 41 160 L 41 141 z M 20 220 L 20 240 L 20 241 L 20 260 L 20 261 L 20 280 L 20 281 L 20 301 L 40 301 L 41 301 L 60 301 L 61 301 L 80 301 L 81 301 L 101 301 L 101 281 L 101 280 L 101 261 L 101 260 L 101 241 L 101 240 L 101 220 L 81 220 L 80 220 L 61 220 L 60 220 L 41 220 L 40 220 L 20 220 z M 41 241 L 60 241 L 61 241 L 80 241 L 80 260 L 80 261 L 80 280 L 61 280 L 60 280 L 41 280 L 41 261 L 41 260 L 41 241 z "
     id="rect152" />
</svg>
