<?xml version="1.0" encoding="UTF-8" standalone="no"?>
<svg
   xmlns:dc="http://purl.org/dc/elements/1.1/"
   xmlns:cc="http://creativecommons.org/ns#"
   xmlns:rdf="http://www.w3.org/1999/02/22-rdf-syntax-ns#"
   xmlns:svg="http://www.w3.org/2000/svg"
   xmlns="http://www.w3.org/2000/svg"
   xmlns:sodipodi="http://sodipodi.sourceforge.net/DTD/sodipodi-0.dtd"
   xmlns:inkscape="http://www.inkscape.org/namespaces/inkscape"
   id="svg408"
   width="320px"
   version="1.1"
   height="320px"
   sodipodi:docname="chicago95_tmp_file.svg"
   inkscape:version="0.92.5 (2060ec1f9f, 2020-04-08)">
  <sodipodi:namedview
     pagecolor="#ffffff"
     bordercolor="#666666"
     borderopacity="1"
     objecttolerance="10"
     gridtolerance="10"
     guidetolerance="10"
     inkscape:pageopacity="0"
     inkscape:pageshadow="2"
     inkscape:window-width="640"
     inkscape:window-height="480"
     id="namedview207"
     showgrid="false"
     inkscape:zoom="0.7375"
     inkscape:cx="160"
     inkscape:cy="160"
     inkscape:window-x="0"
     inkscape:window-y="0"
     inkscape:window-maximized="0"
     inkscape:current-layer="svg408" />
  <metadata
     id="metadata412">
    <rdf:RDF>
      <cc:Work
         rdf:about="">
        <dc:format>image/svg+xml</dc:format>
        <dc:type
           rdf:resource="http://purl.org/dc/dcmitype/StillImage" />
      </cc:Work>
    </rdf:RDF>
  </metadata>
  <defs
     id="defs2" />
  <path
     style="fill:#00a857"
     d="M 140 60 L 140 80 L 140 81 L 140 100 L 121 100 L 120 100 L 100 100 L 100 120 L 80 120 L 80 140 L 80 141 L 80 160 L 80 161 L 80 181 L 101 181 L 101 161 L 101 160 L 101 141 L 101 140 L 101 121 L 120 121 L 121 121 L 140 121 L 140 140 L 140 141 L 140 161 L 161 161 L 161 141 L 181 141 L 181 121 L 201 121 L 201 100 L 181 100 L 181 80 L 161 80 L 161 60 L 140 60 z M 200 160 L 200 180 L 200 181 L 200 200 L 200 201 L 200 220 L 181 220 L 180 220 L 161 220 L 161 201 L 161 200 L 161 180 L 140 180 L 140 200 L 120 200 L 120 220 L 100 220 L 100 241 L 120 241 L 120 261 L 140 261 L 140 281 L 161 281 L 161 261 L 161 260 L 161 241 L 180 241 L 181 241 L 201 241 L 201 221 L 221 221 L 221 201 L 221 200 L 221 181 L 221 180 L 221 160 L 200 160 z "
     id="rect342" />
  <path
     style="fill:#ffffff"
     d="M 40 20 L 40 40 L 40 41 L 40 60 L 40 61 L 40 80 L 40 81 L 40 100 L 40 101 L 40 120 L 40 121 L 40 140 L 40 141 L 40 160 L 40 161 L 40 180 L 40 181 L 40 200 L 40 201 L 40 220 L 40 221 L 40 240 L 40 241 L 40 260 L 40 261 L 40 280 L 40 281 L 40 301 L 60 301 L 61 301 L 80 301 L 81 301 L 100 301 L 101 301 L 120 301 L 121 301 L 140 301 L 141 301 L 160 301 L 161 301 L 180 301 L 181 301 L 200 301 L 201 301 L 220 301 L 221 301 L 240 301 L 241 301 L 261 301 L 261 281 L 261 280 L 261 261 L 261 260 L 261 241 L 261 240 L 261 221 L 261 220 L 261 201 L 261 200 L 261 181 L 261 180 L 261 161 L 261 160 L 261 141 L 261 140 L 261 121 L 261 120 L 261 101 L 261 100 L 261 80 L 241 80 L 240 80 L 221 80 L 220 80 L 201 80 L 201 61 L 201 60 L 201 41 L 201 40 L 201 20 L 181 20 L 180 20 L 161 20 L 160 20 L 141 20 L 140 20 L 121 20 L 120 20 L 101 20 L 100 20 L 81 20 L 80 20 L 61 20 L 60 20 L 40 20 z M 220 40 L 220 61 L 241 61 L 241 40 L 220 40 z M 141 61 L 160 61 L 160 81 L 180 81 L 180 101 L 200 101 L 200 120 L 180 120 L 180 140 L 160 140 L 160 160 L 141 160 L 141 141 L 141 140 L 141 120 L 121 120 L 120 120 L 101 120 L 101 101 L 120 101 L 121 101 L 141 101 L 141 81 L 141 80 L 141 61 z M 81 121 L 100 121 L 100 140 L 100 141 L 100 160 L 100 161 L 100 180 L 81 180 L 81 161 L 81 160 L 81 141 L 81 140 L 81 121 z M 201 161 L 220 161 L 220 180 L 220 181 L 220 200 L 220 201 L 220 220 L 201 220 L 201 201 L 201 200 L 201 181 L 201 180 L 201 161 z M 141 181 L 160 181 L 160 200 L 160 201 L 160 221 L 180 221 L 181 221 L 200 221 L 200 240 L 181 240 L 180 240 L 160 240 L 160 260 L 160 261 L 160 280 L 141 280 L 141 260 L 121 260 L 121 240 L 101 240 L 101 221 L 121 221 L 121 201 L 141 201 L 141 181 z "
     id="rect378" />
  <path
     style="fill:#000000"
     d="M 20 0 L 20 20 L 20 21 L 20 40 L 20 41 L 20 60 L 20 61 L 20 80 L 20 81 L 20 100 L 20 101 L 20 120 L 20 121 L 20 140 L 20 141 L 20 160 L 20 161 L 20 180 L 20 181 L 20 200 L 20 201 L 20 220 L 20 221 L 20 240 L 20 241 L 20 260 L 20 261 L 20 280 L 20 281 L 20 300 L 20 301 L 20 321 L 40 321 L 41 321 L 60 321 L 61 321 L 80 321 L 81 321 L 100 321 L 101 321 L 120 321 L 121 321 L 140 321 L 141 321 L 160 321 L 161 321 L 180 321 L 181 321 L 200 321 L 201 321 L 220 321 L 221 321 L 240 321 L 241 321 L 260 321 L 261 321 L 281 321 L 281 301 L 281 300 L 281 281 L 281 280 L 281 261 L 281 260 L 281 241 L 281 240 L 281 221 L 281 220 L 281 201 L 281 200 L 281 181 L 281 180 L 281 161 L 281 160 L 281 141 L 281 140 L 281 121 L 281 120 L 281 101 L 281 100 L 281 81 L 281 80 L 281 60 L 261 60 L 261 40 L 241 40 L 241 20 L 221 20 L 221 0 L 201 0 L 200 0 L 181 0 L 180 0 L 161 0 L 160 0 L 141 0 L 140 0 L 121 0 L 120 0 L 101 0 L 100 0 L 81 0 L 80 0 L 61 0 L 60 0 L 41 0 L 40 0 L 20 0 z M 41 21 L 60 21 L 61 21 L 80 21 L 81 21 L 100 21 L 101 21 L 120 21 L 121 21 L 140 21 L 141 21 L 160 21 L 161 21 L 180 21 L 181 21 L 200 21 L 200 40 L 200 41 L 200 60 L 200 61 L 200 81 L 220 81 L 221 81 L 240 81 L 241 81 L 260 81 L 260 100 L 260 101 L 260 120 L 260 121 L 260 140 L 260 141 L 260 160 L 260 161 L 260 180 L 260 181 L 260 200 L 260 201 L 260 220 L 260 221 L 260 240 L 260 241 L 260 260 L 260 261 L 260 280 L 260 281 L 260 300 L 241 300 L 240 300 L 221 300 L 220 300 L 201 300 L 200 300 L 181 300 L 180 300 L 161 300 L 160 300 L 141 300 L 140 300 L 121 300 L 120 300 L 101 300 L 100 300 L 81 300 L 80 300 L 61 300 L 60 300 L 41 300 L 41 281 L 41 280 L 41 261 L 41 260 L 41 241 L 41 240 L 41 221 L 41 220 L 41 201 L 41 200 L 41 181 L 41 180 L 41 161 L 41 160 L 41 141 L 41 140 L 41 121 L 41 120 L 41 101 L 41 100 L 41 81 L 41 80 L 41 61 L 41 60 L 41 41 L 41 40 L 41 21 z M 221 41 L 240 41 L 240 60 L 221 60 L 221 41 z "
     id="rect406" />
</svg>
