<?xml version="1.0" encoding="UTF-8" standalone="no"?>
<svg
   xmlns:dc="http://purl.org/dc/elements/1.1/"
   xmlns:cc="http://creativecommons.org/ns#"
   xmlns:rdf="http://www.w3.org/1999/02/22-rdf-syntax-ns#"
   xmlns:svg="http://www.w3.org/2000/svg"
   xmlns="http://www.w3.org/2000/svg"
   xmlns:sodipodi="http://sodipodi.sourceforge.net/DTD/sodipodi-0.dtd"
   xmlns:inkscape="http://www.inkscape.org/namespaces/inkscape"
   id="svg340"
   width="320px"
   version="1.1"
   height="320px"
   sodipodi:docname="chicago95_tmp_file.svg"
   inkscape:version="0.92.5 (2060ec1f9f, 2020-04-08)">
  <sodipodi:namedview
     pagecolor="#ffffff"
     bordercolor="#666666"
     borderopacity="1"
     objecttolerance="10"
     gridtolerance="10"
     guidetolerance="10"
     inkscape:pageopacity="0"
     inkscape:pageshadow="2"
     inkscape:window-width="640"
     inkscape:window-height="480"
     id="namedview173"
     showgrid="false"
     inkscape:zoom="0.7375"
     inkscape:cx="160"
     inkscape:cy="160"
     inkscape:window-x="0"
     inkscape:window-y="0"
     inkscape:window-maximized="0"
     inkscape:current-layer="svg340" />
  <metadata
     id="metadata344">
    <rdf:RDF>
      <cc:Work
         rdf:about="">
        <dc:format>image/svg+xml</dc:format>
        <dc:type
           rdf:resource="http://purl.org/dc/dcmitype/StillImage" />
      </cc:Work>
    </rdf:RDF>
  </metadata>
  <defs
     id="defs2" />
  <path
     style="fill:#ffffff"
     d="M 40 100 L 40 120 L 40 121 L 40 140 L 40 141 L 40 160 L 40 161 L 40 180 L 40 181 L 40 200 L 40 201 L 40 220 L 40 221 L 40 240 L 40 241 L 40 261 L 60 261 L 61 261 L 80 261 L 81 261 L 100 261 L 101 261 L 120 261 L 121 261 L 140 261 L 141 261 L 160 261 L 161 261 L 180 261 L 181 261 L 200 261 L 201 261 L 220 261 L 221 261 L 240 261 L 241 261 L 260 261 L 261 261 L 281 261 L 281 241 L 281 240 L 281 221 L 281 220 L 281 201 L 281 200 L 281 181 L 281 180 L 281 161 L 281 160 L 281 141 L 281 140 L 281 121 L 281 120 L 281 100 L 261 100 L 260 100 L 241 100 L 240 100 L 221 100 L 220 100 L 201 100 L 200 100 L 181 100 L 180 100 L 161 100 L 160 100 L 141 100 L 140 100 L 121 100 L 120 100 L 101 100 L 100 100 L 81 100 L 80 100 L 61 100 L 60 100 L 40 100 z "
     id="rect308" />
  <path
     style="fill:#000000"
     d="M 20 40 L 20 60 L 20 61 L 20 80 L 20 81 L 20 100 L 20 101 L 20 120 L 20 121 L 20 140 L 20 141 L 20 160 L 20 161 L 20 180 L 20 181 L 20 200 L 20 201 L 20 220 L 20 221 L 20 240 L 20 241 L 20 260 L 20 261 L 20 281 L 40 281 L 41 281 L 60 281 L 61 281 L 80 281 L 81 281 L 100 281 L 101 281 L 120 281 L 121 281 L 140 281 L 141 281 L 160 281 L 161 281 L 180 281 L 181 281 L 200 281 L 201 281 L 220 281 L 221 281 L 240 281 L 241 281 L 260 281 L 261 281 L 280 281 L 281 281 L 301 281 L 301 261 L 301 260 L 301 241 L 301 240 L 301 221 L 301 220 L 301 201 L 301 200 L 301 181 L 301 180 L 301 161 L 301 160 L 301 141 L 301 140 L 301 121 L 301 120 L 301 101 L 301 100 L 301 81 L 301 80 L 301 61 L 301 60 L 301 40 L 281 40 L 280 40 L 261 40 L 260 40 L 241 40 L 240 40 L 221 40 L 220 40 L 201 40 L 200 40 L 181 40 L 180 40 L 161 40 L 160 40 L 141 40 L 140 40 L 121 40 L 120 40 L 101 40 L 100 40 L 81 40 L 80 40 L 61 40 L 60 40 L 41 40 L 40 40 L 20 40 z M 41 101 L 60 101 L 61 101 L 80 101 L 81 101 L 100 101 L 101 101 L 120 101 L 121 101 L 140 101 L 141 101 L 160 101 L 161 101 L 180 101 L 181 101 L 200 101 L 201 101 L 220 101 L 221 101 L 240 101 L 241 101 L 260 101 L 261 101 L 280 101 L 280 120 L 280 121 L 280 140 L 280 141 L 280 160 L 280 161 L 280 180 L 280 181 L 280 200 L 280 201 L 280 220 L 280 221 L 280 240 L 280 241 L 280 260 L 261 260 L 260 260 L 241 260 L 240 260 L 221 260 L 220 260 L 201 260 L 200 260 L 181 260 L 180 260 L 161 260 L 160 260 L 141 260 L 140 260 L 121 260 L 120 260 L 101 260 L 100 260 L 81 260 L 80 260 L 61 260 L 60 260 L 41 260 L 41 241 L 41 240 L 41 221 L 41 220 L 41 201 L 41 200 L 41 181 L 41 180 L 41 161 L 41 160 L 41 141 L 41 140 L 41 121 L 41 120 L 41 101 z "
     id="rect338" />
</svg>
