<?xml version="1.0" encoding="UTF-8" standalone="no"?>
<svg
   xmlns:dc="http://purl.org/dc/elements/1.1/"
   xmlns:cc="http://creativecommons.org/ns#"
   xmlns:rdf="http://www.w3.org/1999/02/22-rdf-syntax-ns#"
   xmlns:svg="http://www.w3.org/2000/svg"
   xmlns="http://www.w3.org/2000/svg"
   xmlns:sodipodi="http://sodipodi.sourceforge.net/DTD/sodipodi-0.dtd"
   xmlns:inkscape="http://www.inkscape.org/namespaces/inkscape"
   id="svg1860"
   width="128px"
   version="1.1"
   height="128px"
   sodipodi:docname="chicago95_tmp_file.svg"
   inkscape:version="0.92.4 (5da689c313, 2019-01-14)">
  <sodipodi:namedview
     pagecolor="#ffffff"
     bordercolor="#666666"
     borderopacity="1"
     objecttolerance="10"
     gridtolerance="10"
     guidetolerance="10"
     inkscape:pageopacity="0"
     inkscape:pageshadow="2"
     inkscape:window-width="640"
     inkscape:window-height="480"
     id="namedview933"
     showgrid="false"
     inkscape:zoom="1.84375"
     inkscape:cx="64"
     inkscape:cy="64"
     inkscape:window-x="0"
     inkscape:window-y="0"
     inkscape:window-maximized="0"
     inkscape:current-layer="svg1860" />
  <metadata
     id="metadata1864">
    <rdf:RDF>
      <cc:Work
         rdf:about="">
        <dc:format>image/svg+xml</dc:format>
        <dc:type
           rdf:resource="http://purl.org/dc/dcmitype/StillImage" />
      </cc:Work>
    </rdf:RDF>
  </metadata>
  <defs
     id="defs2" />
  <path
     style="fill:#000080"
     d="M 8 12 L 8 16 L 8 20 L 8 24 L 8 28 L 12 28 L 16 28 L 20 28 L 24 28 L 28 28 L 32 28 L 36 28 L 40 28 L 44 28 L 48 28 L 52 28 L 56 28 L 60 28 L 64 28 L 68 28 L 72 28 L 76 28 L 80 28 L 84 28 L 84 24 L 84 20 L 84 16 L 88 16 L 92 16 L 96 16 L 100 16 L 104 16 L 108 16 L 112 16 L 116 16 L 120 16 L 120 12 L 116 12 L 112 12 L 108 12 L 104 12 L 100 12 L 96 12 L 92 12 L 88 12 L 84 12 L 80 12 L 76 12 L 72 12 L 68 12 L 64 12 L 60 12 L 56 12 L 52 12 L 48 12 L 44 12 L 40 12 L 36 12 L 32 12 L 28 12 L 24 12 L 20 12 L 16 12 L 12 12 L 8 12 z "
     id="rect364" />
  <path
     style="fill:#ffffff"
     d="M 12 36 L 12 40 L 12 44 L 12 48 L 12 52 L 12 56 L 12 60 L 12 64 L 12 68 L 12 72 L 12 76 L 12 80 L 12 84 L 12 88 L 12 92 L 12 96 L 12 100 L 12 104 L 12 108 L 16 108 L 20 108 L 24 108 L 28 108 L 32 108 L 36 108 L 40 108 L 44 108 L 48 108 L 52 108 L 56 108 L 60 108 L 64 108 L 68 108 L 72 108 L 76 108 L 80 108 L 84 108 L 88 108 L 92 108 L 96 108 L 100 108 L 104 108 L 108 108 L 112 108 L 116 108 L 116 104 L 116 100 L 116 96 L 116 92 L 116 88 L 116 84 L 116 80 L 116 76 L 116 72 L 116 68 L 116 64 L 116 60 L 116 56 L 116 52 L 116 48 L 116 44 L 116 40 L 116 36 L 112 36 L 108 36 L 104 36 L 100 36 L 96 36 L 92 36 L 88 36 L 84 36 L 80 36 L 76 36 L 72 36 L 68 36 L 64 36 L 60 36 L 56 36 L 52 36 L 48 36 L 44 36 L 40 36 L 36 36 L 32 36 L 28 36 L 24 36 L 20 36 L 16 36 L 12 36 z "
     id="rect1660" />
  <path
     style="fill:#c0c0c0"
     d="M 4 8 L 4 12 L 4 16 L 4 20 L 4 24 L 4 28 L 4 32 L 4 36 L 4 40 L 4 44 L 4 48 L 4 52 L 4 56 L 4 60 L 4 64 L 4 68 L 4 72 L 4 76 L 4 80 L 4 84 L 4 88 L 4 92 L 4 96 L 4 100 L 4 104 L 4 108 L 4 112 L 8 112 L 12 112 L 16 112 L 20 112 L 24 112 L 28 112 L 32 112 L 36 112 L 40 112 L 44 112 L 48 112 L 52 112 L 56 112 L 60 112 L 64 112 L 68 112 L 72 112 L 76 112 L 80 112 L 84 112 L 88 112 L 92 112 L 96 112 L 100 112 L 104 112 L 108 112 L 112 112 L 116 112 L 120 112 L 120 108 L 120 104 L 120 100 L 120 96 L 120 92 L 120 88 L 120 84 L 120 80 L 120 76 L 120 72 L 120 68 L 120 64 L 120 60 L 120 56 L 120 52 L 120 48 L 120 44 L 120 40 L 120 36 L 120 32 L 120 28 L 116 28 L 112 28 L 108 28 L 104 28 L 100 28 L 96 28 L 92 28 L 88 28 L 84 28 L 80 28 L 76 28 L 72 28 L 68 28 L 64 28 L 60 28 L 56 28 L 52 28 L 48 28 L 44 28 L 40 28 L 36 28 L 32 28 L 28 28 L 24 28 L 20 28 L 16 28 L 12 28 L 8 28 L 8 24 L 8 20 L 8 16 L 8 12 L 12 12 L 16 12 L 20 12 L 24 12 L 28 12 L 32 12 L 36 12 L 40 12 L 44 12 L 48 12 L 52 12 L 56 12 L 60 12 L 64 12 L 68 12 L 72 12 L 76 12 L 80 12 L 84 12 L 88 12 L 92 12 L 96 12 L 100 12 L 104 12 L 108 12 L 112 12 L 116 12 L 120 12 L 120 8 L 116 8 L 112 8 L 108 8 L 104 8 L 100 8 L 96 8 L 92 8 L 88 8 L 84 8 L 80 8 L 76 8 L 72 8 L 68 8 L 64 8 L 60 8 L 56 8 L 52 8 L 48 8 L 44 8 L 40 8 L 36 8 L 32 8 L 28 8 L 24 8 L 20 8 L 16 8 L 12 8 L 8 8 L 4 8 z M 84 16 L 84 20 L 84 24 L 88 24 L 92 24 L 92 20 L 92 16 L 88 16 L 84 16 z M 96 16 L 96 20 L 96 24 L 100 24 L 104 24 L 104 20 L 104 16 L 100 16 L 96 16 z M 108 16 L 108 20 L 108 24 L 112 24 L 116 24 L 116 20 L 116 16 L 112 16 L 108 16 z M 8 32 L 12 32 L 16 32 L 20 32 L 24 32 L 28 32 L 32 32 L 36 32 L 40 32 L 44 32 L 48 32 L 52 32 L 56 32 L 60 32 L 64 32 L 68 32 L 72 32 L 76 32 L 80 32 L 84 32 L 88 32 L 92 32 L 96 32 L 100 32 L 104 32 L 108 32 L 112 32 L 116 32 L 116 36 L 116 40 L 116 44 L 116 48 L 116 52 L 116 56 L 116 60 L 116 64 L 116 68 L 116 72 L 116 76 L 116 80 L 116 84 L 116 88 L 116 92 L 116 96 L 116 100 L 116 104 L 116 108 L 112 108 L 108 108 L 104 108 L 100 108 L 96 108 L 92 108 L 88 108 L 84 108 L 80 108 L 76 108 L 72 108 L 68 108 L 64 108 L 60 108 L 56 108 L 52 108 L 48 108 L 44 108 L 40 108 L 36 108 L 32 108 L 28 108 L 24 108 L 20 108 L 16 108 L 12 108 L 8 108 L 8 104 L 8 100 L 8 96 L 8 92 L 8 88 L 8 84 L 8 80 L 8 76 L 8 72 L 8 68 L 8 64 L 8 60 L 8 56 L 8 52 L 8 48 L 8 44 L 8 40 L 8 36 L 8 32 z "
     id="rect1726" />
  <path
     style="fill:#808080"
     d="M 0 4 L 0 8 L 0 12 L 0 16 L 0 20 L 0 24 L 0 28 L 0 32 L 0 36 L 0 40 L 0 44 L 0 48 L 0 52 L 0 56 L 0 60 L 0 64 L 0 68 L 0 72 L 0 76 L 0 80 L 0 84 L 0 88 L 0 92 L 0 96 L 0 100 L 0 104 L 0 108 L 0 112 L 0 116 L 4 116 L 8 116 L 12 116 L 16 116 L 20 116 L 24 116 L 28 116 L 32 116 L 36 116 L 40 116 L 44 116 L 48 116 L 52 116 L 56 116 L 60 116 L 64 116 L 68 116 L 72 116 L 76 116 L 80 116 L 84 116 L 88 116 L 92 116 L 96 116 L 100 116 L 104 116 L 108 116 L 112 116 L 116 116 L 120 116 L 124 116 L 124 112 L 124 108 L 124 104 L 124 100 L 124 96 L 124 92 L 124 88 L 124 84 L 124 80 L 124 76 L 124 72 L 124 68 L 124 64 L 124 60 L 124 56 L 124 52 L 124 48 L 124 44 L 124 40 L 124 36 L 124 32 L 124 28 L 124 24 L 124 20 L 124 16 L 124 12 L 124 8 L 124 4 L 120 4 L 116 4 L 112 4 L 108 4 L 104 4 L 100 4 L 96 4 L 92 4 L 88 4 L 84 4 L 80 4 L 76 4 L 72 4 L 68 4 L 64 4 L 60 4 L 56 4 L 52 4 L 48 4 L 44 4 L 40 4 L 36 4 L 32 4 L 28 4 L 24 4 L 20 4 L 16 4 L 12 4 L 8 4 L 4 4 L 0 4 z M 4 8 L 8 8 L 12 8 L 16 8 L 20 8 L 24 8 L 28 8 L 32 8 L 36 8 L 40 8 L 44 8 L 48 8 L 52 8 L 56 8 L 60 8 L 64 8 L 68 8 L 72 8 L 76 8 L 80 8 L 84 8 L 88 8 L 92 8 L 96 8 L 100 8 L 104 8 L 108 8 L 112 8 L 116 8 L 120 8 L 120 12 L 120 16 L 120 20 L 120 24 L 120 28 L 120 32 L 120 36 L 120 40 L 120 44 L 120 48 L 120 52 L 120 56 L 120 60 L 120 64 L 120 68 L 120 72 L 120 76 L 120 80 L 120 84 L 120 88 L 120 92 L 120 96 L 120 100 L 120 104 L 120 108 L 120 112 L 116 112 L 112 112 L 108 112 L 104 112 L 100 112 L 96 112 L 92 112 L 88 112 L 84 112 L 80 112 L 76 112 L 72 112 L 68 112 L 64 112 L 60 112 L 56 112 L 52 112 L 48 112 L 44 112 L 40 112 L 36 112 L 32 112 L 28 112 L 24 112 L 20 112 L 16 112 L 12 112 L 8 112 L 4 112 L 4 108 L 4 104 L 4 100 L 4 96 L 4 92 L 4 88 L 4 84 L 4 80 L 4 76 L 4 72 L 4 68 L 4 64 L 4 60 L 4 56 L 4 52 L 4 48 L 4 44 L 4 40 L 4 36 L 4 32 L 4 28 L 4 24 L 4 20 L 4 16 L 4 12 L 4 8 z M 8 32 L 8 36 L 8 40 L 8 44 L 8 48 L 8 52 L 8 56 L 8 60 L 8 64 L 8 68 L 8 72 L 8 76 L 8 80 L 8 84 L 8 88 L 8 92 L 8 96 L 8 100 L 8 104 L 8 108 L 12 108 L 12 104 L 12 100 L 12 96 L 12 92 L 12 88 L 12 84 L 12 80 L 12 76 L 12 72 L 12 68 L 12 64 L 12 60 L 12 56 L 12 52 L 12 48 L 12 44 L 12 40 L 12 36 L 16 36 L 20 36 L 24 36 L 28 36 L 32 36 L 36 36 L 40 36 L 44 36 L 48 36 L 52 36 L 56 36 L 60 36 L 64 36 L 68 36 L 72 36 L 76 36 L 80 36 L 84 36 L 88 36 L 92 36 L 96 36 L 100 36 L 104 36 L 108 36 L 112 36 L 116 36 L 116 32 L 112 32 L 108 32 L 104 32 L 100 32 L 96 32 L 92 32 L 88 32 L 84 32 L 80 32 L 76 32 L 72 32 L 68 32 L 64 32 L 60 32 L 56 32 L 52 32 L 48 32 L 44 32 L 40 32 L 36 32 L 32 32 L 28 32 L 24 32 L 20 32 L 16 32 L 12 32 L 8 32 z "
     id="rect1792" />
  <path
     style="fill:#000000"
     d="M 124 4 L 124 8 L 124 12 L 124 16 L 124 20 L 124 24 L 124 28 L 124 32 L 124 36 L 124 40 L 124 44 L 124 48 L 124 52 L 124 56 L 124 60 L 124 64 L 124 68 L 124 72 L 124 76 L 124 80 L 124 84 L 124 88 L 124 92 L 124 96 L 124 100 L 124 104 L 124 108 L 124 112 L 124 116 L 120 116 L 116 116 L 112 116 L 108 116 L 104 116 L 100 116 L 96 116 L 92 116 L 88 116 L 84 116 L 80 116 L 76 116 L 72 116 L 68 116 L 64 116 L 60 116 L 56 116 L 52 116 L 48 116 L 44 116 L 40 116 L 36 116 L 32 116 L 28 116 L 24 116 L 20 116 L 16 116 L 12 116 L 8 116 L 4 116 L 0 116 L 0 120 L 4 120 L 8 120 L 12 120 L 16 120 L 20 120 L 24 120 L 28 120 L 32 120 L 36 120 L 40 120 L 44 120 L 48 120 L 52 120 L 56 120 L 60 120 L 64 120 L 68 120 L 72 120 L 76 120 L 80 120 L 84 120 L 88 120 L 92 120 L 96 120 L 100 120 L 104 120 L 108 120 L 112 120 L 116 120 L 120 120 L 124 120 L 128 120 L 128 116 L 128 112 L 128 108 L 128 104 L 128 100 L 128 96 L 128 92 L 128 88 L 128 84 L 128 80 L 128 76 L 128 72 L 128 68 L 128 64 L 128 60 L 128 56 L 128 52 L 128 48 L 128 44 L 128 40 L 128 36 L 128 32 L 128 28 L 128 24 L 128 20 L 128 16 L 128 12 L 128 8 L 128 4 L 124 4 z M 92 16 L 92 20 L 92 24 L 88 24 L 84 24 L 84 28 L 88 28 L 92 28 L 96 28 L 100 28 L 104 28 L 108 28 L 112 28 L 116 28 L 120 28 L 120 24 L 120 20 L 120 16 L 116 16 L 116 20 L 116 24 L 112 24 L 108 24 L 108 20 L 108 16 L 104 16 L 104 20 L 104 24 L 100 24 L 96 24 L 96 20 L 96 16 L 92 16 z "
     id="rect1858" />
</svg>
