<?xml version="1.0" encoding="UTF-8" standalone="no"?>
<svg
   xmlns:dc="http://purl.org/dc/elements/1.1/"
   xmlns:cc="http://creativecommons.org/ns#"
   xmlns:rdf="http://www.w3.org/1999/02/22-rdf-syntax-ns#"
   xmlns:svg="http://www.w3.org/2000/svg"
   xmlns="http://www.w3.org/2000/svg"
   xmlns:sodipodi="http://sodipodi.sourceforge.net/DTD/sodipodi-0.dtd"
   xmlns:inkscape="http://www.inkscape.org/namespaces/inkscape"
   id="svg452"
   width="128px"
   version="1.1"
   height="128px"
   sodipodi:docname="chicago95_tmp_file.svg"
   inkscape:version="0.92.4 (5da689c313, 2019-01-14)">
  <sodipodi:namedview
     pagecolor="#ffffff"
     bordercolor="#666666"
     borderopacity="1"
     objecttolerance="10"
     gridtolerance="10"
     guidetolerance="10"
     inkscape:pageopacity="0"
     inkscape:pageshadow="2"
     inkscape:window-width="640"
     inkscape:window-height="480"
     id="namedview229"
     showgrid="false"
     inkscape:zoom="1.84375"
     inkscape:cx="64"
     inkscape:cy="64"
     inkscape:window-x="0"
     inkscape:window-y="0"
     inkscape:window-maximized="0"
     inkscape:current-layer="svg452" />
  <metadata
     id="metadata456">
    <rdf:RDF>
      <cc:Work
         rdf:about="">
        <dc:format>image/svg+xml</dc:format>
        <dc:type
           rdf:resource="http://purl.org/dc/dcmitype/StillImage" />
      </cc:Work>
    </rdf:RDF>
  </metadata>
  <defs
     id="defs2" />
  <path
     style="fill:#000000"
     d="M 16 24 L 16 28 L 16 32 L 20 32 L 24 32 L 24 36 L 24 40 L 28 40 L 32 40 L 32 44 L 32 48 L 36 48 L 40 48 L 40 52 L 40 56 L 44 56 L 48 56 L 48 60 L 48 64 L 48 68 L 48 72 L 44 72 L 40 72 L 40 76 L 40 80 L 36 80 L 32 80 L 32 84 L 32 88 L 28 88 L 24 88 L 24 92 L 24 96 L 20 96 L 16 96 L 16 100 L 16 104 L 20 104 L 24 104 L 28 104 L 32 104 L 36 104 L 40 104 L 40 100 L 40 96 L 44 96 L 48 96 L 48 92 L 48 88 L 52 88 L 56 88 L 56 84 L 56 80 L 60 80 L 64 80 L 68 80 L 72 80 L 72 84 L 72 88 L 76 88 L 80 88 L 80 92 L 80 96 L 84 96 L 88 96 L 88 100 L 88 104 L 92 104 L 96 104 L 100 104 L 104 104 L 108 104 L 112 104 L 112 100 L 112 96 L 108 96 L 104 96 L 104 92 L 104 88 L 100 88 L 96 88 L 96 84 L 96 80 L 92 80 L 88 80 L 88 76 L 88 72 L 84 72 L 80 72 L 80 68 L 80 64 L 80 60 L 80 56 L 84 56 L 88 56 L 88 52 L 88 48 L 92 48 L 96 48 L 96 44 L 96 40 L 100 40 L 104 40 L 104 36 L 104 32 L 108 32 L 112 32 L 112 28 L 112 24 L 108 24 L 104 24 L 100 24 L 96 24 L 92 24 L 88 24 L 88 28 L 88 32 L 84 32 L 80 32 L 80 36 L 80 40 L 76 40 L 72 40 L 72 44 L 72 48 L 68 48 L 64 48 L 60 48 L 56 48 L 56 44 L 56 40 L 52 40 L 48 40 L 48 36 L 48 32 L 44 32 L 40 32 L 40 28 L 40 24 L 36 24 L 32 24 L 28 24 L 24 24 L 20 24 L 16 24 z "
     id="rect450" />
</svg>
