<?xml version="1.0" encoding="UTF-8" standalone="no"?>
<svg
   xmlns:dc="http://purl.org/dc/elements/1.1/"
   xmlns:cc="http://creativecommons.org/ns#"
   xmlns:rdf="http://www.w3.org/1999/02/22-rdf-syntax-ns#"
   xmlns:svg="http://www.w3.org/2000/svg"
   xmlns="http://www.w3.org/2000/svg"
   xmlns:sodipodi="http://sodipodi.sourceforge.net/DTD/sodipodi-0.dtd"
   xmlns:inkscape="http://www.inkscape.org/namespaces/inkscape"
   id="svg556"
   width="128px"
   version="1.1"
   height="128px"
   sodipodi:docname="chicago95_tmp_file.svg"
   inkscape:version="0.92.4 (5da689c313, 2019-01-14)">
  <sodipodi:namedview
     pagecolor="#ffffff"
     bordercolor="#666666"
     borderopacity="1"
     objecttolerance="10"
     gridtolerance="10"
     guidetolerance="10"
     inkscape:pageopacity="0"
     inkscape:pageshadow="2"
     inkscape:window-width="640"
     inkscape:window-height="480"
     id="namedview281"
     showgrid="false"
     inkscape:zoom="1.84375"
     inkscape:cx="64"
     inkscape:cy="64"
     inkscape:window-x="0"
     inkscape:window-y="0"
     inkscape:window-maximized="0"
     inkscape:current-layer="svg556" />
  <metadata
     id="metadata560">
    <rdf:RDF>
      <cc:Work
         rdf:about="">
        <dc:format>image/svg+xml</dc:format>
        <dc:type
           rdf:resource="http://purl.org/dc/dcmitype/StillImage" />
      </cc:Work>
    </rdf:RDF>
  </metadata>
  <defs
     id="defs2" />
  <path
     style="fill:#87888f"
     d="M 24 0 L 24 4 L 24 8 L 28 8 L 32 8 L 32 4 L 32 0 L 28 0 L 24 0 z M 64 0 L 64 4 L 64 8 L 68 8 L 72 8 L 72 4 L 72 0 L 68 0 L 64 0 z M 16 16 L 16 20 L 16 24 L 20 24 L 24 24 L 24 20 L 24 16 L 20 16 L 16 16 z M 72 16 L 72 20 L 72 24 L 76 24 L 80 24 L 80 20 L 80 16 L 76 16 L 72 16 z M 0 24 L 0 28 L 0 32 L 4 32 L 8 32 L 8 28 L 8 24 L 4 24 L 0 24 z M 88 24 L 88 28 L 88 32 L 92 32 L 96 32 L 96 28 L 96 24 L 92 24 L 88 24 z M 0 64 L 0 68 L 0 72 L 4 72 L 8 72 L 8 68 L 8 64 L 4 64 L 0 64 z M 88 64 L 88 68 L 88 72 L 92 72 L 96 72 L 96 68 L 96 64 L 92 64 L 88 64 z M 16 72 L 16 76 L 16 80 L 20 80 L 24 80 L 24 76 L 24 72 L 20 72 L 16 72 z M 72 72 L 72 76 L 72 80 L 76 80 L 80 80 L 80 76 L 80 72 L 76 72 L 72 72 z M 24 88 L 24 92 L 24 96 L 28 96 L 32 96 L 32 92 L 32 88 L 28 88 L 24 88 z M 64 88 L 64 92 L 64 96 L 68 96 L 72 96 L 72 92 L 72 88 L 68 88 L 64 88 z "
     id="rect478" />
  <path
     style="fill:#000080"
     d="M 24 24 L 24 28 L 24 32 L 24 36 L 24 40 L 28 40 L 32 40 L 32 36 L 32 32 L 36 32 L 40 32 L 40 28 L 40 24 L 36 24 L 32 24 L 28 24 L 24 24 z M 56 24 L 56 28 L 56 32 L 60 32 L 64 32 L 64 36 L 64 40 L 68 40 L 72 40 L 72 36 L 72 32 L 72 28 L 72 24 L 68 24 L 64 24 L 60 24 L 56 24 z M 24 56 L 24 60 L 24 64 L 24 68 L 24 72 L 28 72 L 32 72 L 36 72 L 40 72 L 40 68 L 40 64 L 36 64 L 32 64 L 32 60 L 32 56 L 28 56 L 24 56 z M 64 56 L 64 60 L 64 64 L 60 64 L 56 64 L 56 68 L 56 72 L 60 72 L 64 72 L 68 72 L 72 72 L 72 68 L 72 64 L 72 60 L 72 56 L 68 56 L 64 56 z M 96 88 L 96 92 L 96 96 L 100 96 L 104 96 L 104 92 L 104 88 L 100 88 L 96 88 z M 104 96 L 104 100 L 104 104 L 108 104 L 112 104 L 112 100 L 112 96 L 108 96 L 104 96 z M 112 104 L 112 108 L 112 112 L 116 112 L 120 112 L 120 108 L 120 104 L 116 104 L 112 104 z M 112 112 L 108 112 L 104 112 L 104 116 L 104 120 L 108 120 L 112 120 L 112 116 L 112 112 z M 104 112 L 104 108 L 104 104 L 100 104 L 96 104 L 96 108 L 96 112 L 100 112 L 104 112 z M 96 104 L 96 100 L 96 96 L 92 96 L 88 96 L 88 100 L 88 104 L 92 104 L 96 104 z "
     id="rect550" />
  <path
     style="fill:#000000"
     d="M 32 0 L 32 4 L 32 8 L 36 8 L 40 8 L 44 8 L 48 8 L 52 8 L 56 8 L 60 8 L 64 8 L 64 4 L 64 0 L 60 0 L 56 0 L 52 0 L 48 0 L 44 0 L 40 0 L 36 0 L 32 0 z M 64 8 L 64 12 L 64 16 L 68 16 L 72 16 L 76 16 L 80 16 L 80 12 L 80 8 L 76 8 L 72 8 L 68 8 L 64 8 z M 80 16 L 80 20 L 80 24 L 80 28 L 80 32 L 84 32 L 88 32 L 88 28 L 88 24 L 88 20 L 88 16 L 84 16 L 80 16 z M 88 32 L 88 36 L 88 40 L 88 44 L 88 48 L 88 52 L 88 56 L 88 60 L 88 64 L 92 64 L 96 64 L 96 60 L 96 56 L 96 52 L 96 48 L 96 44 L 96 40 L 96 36 L 96 32 L 92 32 L 88 32 z M 88 64 L 84 64 L 80 64 L 80 68 L 80 72 L 80 76 L 80 80 L 76 80 L 72 80 L 68 80 L 64 80 L 64 84 L 64 88 L 68 88 L 72 88 L 76 88 L 80 88 L 80 92 L 80 96 L 84 96 L 88 96 L 92 96 L 96 96 L 96 92 L 96 88 L 96 84 L 96 80 L 92 80 L 88 80 L 88 76 L 88 72 L 88 68 L 88 64 z M 96 96 L 96 100 L 96 104 L 100 104 L 104 104 L 104 100 L 104 96 L 100 96 L 96 96 z M 104 104 L 104 108 L 104 112 L 108 112 L 112 112 L 112 108 L 112 104 L 108 104 L 104 104 z M 112 112 L 112 116 L 112 120 L 116 120 L 120 120 L 120 116 L 120 112 L 116 112 L 112 112 z M 64 88 L 60 88 L 56 88 L 52 88 L 48 88 L 44 88 L 40 88 L 36 88 L 32 88 L 32 92 L 32 96 L 36 96 L 40 96 L 44 96 L 48 96 L 52 96 L 56 96 L 60 96 L 64 96 L 64 92 L 64 88 z M 32 88 L 32 84 L 32 80 L 28 80 L 24 80 L 20 80 L 16 80 L 16 84 L 16 88 L 20 88 L 24 88 L 28 88 L 32 88 z M 16 80 L 16 76 L 16 72 L 16 68 L 16 64 L 12 64 L 8 64 L 8 68 L 8 72 L 8 76 L 8 80 L 12 80 L 16 80 z M 8 64 L 8 60 L 8 56 L 8 52 L 8 48 L 8 44 L 8 40 L 8 36 L 8 32 L 4 32 L 0 32 L 0 36 L 0 40 L 0 44 L 0 48 L 0 52 L 0 56 L 0 60 L 0 64 L 4 64 L 8 64 z M 8 32 L 12 32 L 16 32 L 16 28 L 16 24 L 16 20 L 16 16 L 12 16 L 8 16 L 8 20 L 8 24 L 8 28 L 8 32 z M 16 16 L 20 16 L 24 16 L 28 16 L 32 16 L 32 12 L 32 8 L 28 8 L 24 8 L 20 8 L 16 8 L 16 12 L 16 16 z "
     id="rect554" />
</svg>
