<?xml version="1.0" encoding="UTF-8" standalone="no"?>
<svg
   xmlns:dc="http://purl.org/dc/elements/1.1/"
   xmlns:cc="http://creativecommons.org/ns#"
   xmlns:rdf="http://www.w3.org/1999/02/22-rdf-syntax-ns#"
   xmlns:svg="http://www.w3.org/2000/svg"
   xmlns="http://www.w3.org/2000/svg"
   id="svg3712"
   width="192px"
   version="1.1"
   height="192px">
  <metadata
     id="metadata3716">
    <rdf:RDF>
      <cc:Work
         rdf:about="">
        <dc:format>image/svg+xml</dc:format>
        <dc:type
           rdf:resource="http://purl.org/dc/dcmitype/StillImage" />
      </cc:Work>
    </rdf:RDF>
  </metadata>
  <defs
     id="defs2" />
  <path
     style="fill:#00ffff"
     d="M 112 76 L 112 80 L 116 80 L 116 76 L 112 76 z M 116 80 L 116 84 L 120 84 L 120 80 L 116 80 z M 120 80 L 124 80 L 124 76 L 120 76 L 120 80 z M 124 80 L 124 84 L 128 84 L 128 80 L 124 80 z M 128 80 L 132 80 L 132 76 L 128 76 L 128 80 z M 132 80 L 132 84 L 136 84 L 136 80 L 132 80 z M 136 84 L 136 88 L 140 88 L 140 84 L 136 84 z M 140 88 L 140 92 L 144 92 L 144 88 L 140 88 z M 140 92 L 136 92 L 136 96 L 140 96 L 140 92 z M 140 96 L 140 100 L 144 100 L 144 96 L 140 96 z M 144 100 L 144 104 L 148 104 L 148 100 L 144 100 z M 148 104 L 148 108 L 152 108 L 152 104 L 148 104 z M 148 108 L 144 108 L 144 112 L 148 112 L 148 108 z M 148 112 L 148 116 L 152 116 L 152 112 L 148 112 z M 148 116 L 144 116 L 144 120 L 148 120 L 148 116 z M 144 120 L 140 120 L 140 124 L 144 124 L 144 120 z M 144 124 L 144 128 L 148 128 L 148 124 L 144 124 z M 144 128 L 140 128 L 140 132 L 144 132 L 144 128 z M 140 132 L 136 132 L 136 136 L 140 136 L 140 132 z M 136 136 L 132 136 L 132 140 L 136 140 L 136 136 z M 132 140 L 128 140 L 128 144 L 132 144 L 132 140 z M 128 140 L 128 136 L 124 136 L 124 140 L 128 140 z M 124 140 L 120 140 L 120 144 L 124 144 L 124 140 z M 120 140 L 120 136 L 116 136 L 116 140 L 120 140 z M 116 140 L 112 140 L 112 144 L 116 144 L 116 140 z M 112 140 L 112 136 L 108 136 L 108 140 L 112 140 z M 108 140 L 104 140 L 104 144 L 108 144 L 108 140 z M 104 140 L 104 136 L 100 136 L 100 140 L 104 140 z M 100 136 L 100 132 L 96 132 L 96 136 L 100 136 z M 96 132 L 96 128 L 92 128 L 92 132 L 96 132 z M 92 128 L 92 124 L 88 124 L 88 128 L 92 128 z M 92 124 L 96 124 L 96 120 L 92 120 L 92 124 z M 92 120 L 92 116 L 88 116 L 88 120 L 92 120 z M 88 116 L 88 112 L 84 112 L 84 116 L 88 116 z M 88 112 L 92 112 L 92 108 L 88 108 L 88 112 z M 88 108 L 88 104 L 84 104 L 84 108 L 88 108 z M 88 104 L 92 104 L 92 100 L 88 100 L 88 104 z M 92 100 L 96 100 L 96 96 L 92 96 L 92 100 z M 96 96 L 100 96 L 100 92 L 96 92 L 96 96 z M 100 92 L 104 92 L 104 88 L 100 88 L 100 92 z M 104 88 L 108 88 L 108 84 L 104 84 L 104 88 z M 108 84 L 112 84 L 112 80 L 108 80 L 108 84 z M 92 112 L 92 116 L 96 116 L 96 112 L 92 112 z M 96 116 L 96 120 L 100 120 L 100 116 L 96 116 z M 100 120 L 100 124 L 104 124 L 104 120 L 100 120 z M 104 120 L 108 120 L 108 116 L 104 116 L 104 120 z M 108 116 L 112 116 L 112 112 L 108 112 L 108 116 z M 108 112 L 108 108 L 104 108 L 104 112 L 108 112 z M 108 108 L 112 108 L 112 104 L 108 104 L 108 108 z M 108 104 L 108 100 L 104 100 L 104 104 L 108 104 z M 108 100 L 112 100 L 112 96 L 108 96 L 108 100 z M 112 96 L 116 96 L 116 92 L 112 92 L 112 96 z M 116 92 L 120 92 L 120 88 L 116 88 L 116 92 z M 120 88 L 124 88 L 124 84 L 120 84 L 120 88 z M 124 88 L 124 92 L 128 92 L 128 88 L 124 88 z M 128 88 L 132 88 L 132 84 L 128 84 L 128 88 z M 132 88 L 132 92 L 136 92 L 136 88 L 132 88 z M 132 92 L 128 92 L 128 96 L 132 96 L 132 92 z M 132 96 L 132 100 L 136 100 L 136 96 L 132 96 z M 136 100 L 136 104 L 140 104 L 140 100 L 136 100 z M 140 104 L 140 108 L 144 108 L 144 104 L 140 104 z M 140 108 L 136 108 L 136 112 L 140 112 L 140 108 z M 140 112 L 140 116 L 144 116 L 144 112 L 140 112 z M 140 116 L 136 116 L 136 120 L 140 120 L 140 116 z M 136 120 L 132 120 L 132 124 L 136 124 L 136 120 z M 136 124 L 136 128 L 140 128 L 140 124 L 136 124 z M 136 128 L 132 128 L 132 132 L 136 132 L 136 128 z M 132 132 L 128 132 L 128 136 L 132 136 L 132 132 z M 128 132 L 128 128 L 124 128 L 124 132 L 128 132 z M 124 132 L 120 132 L 120 136 L 124 136 L 124 132 z M 120 132 L 120 128 L 116 128 L 116 132 L 120 132 z M 116 132 L 112 132 L 112 136 L 116 136 L 116 132 z M 112 132 L 112 128 L 108 128 L 108 132 L 112 132 z M 108 132 L 104 132 L 104 136 L 108 136 L 108 132 z M 104 132 L 104 128 L 100 128 L 100 132 L 104 132 z M 100 128 L 100 124 L 96 124 L 96 128 L 100 128 z M 104 128 L 108 128 L 108 124 L 104 124 L 104 128 z M 108 124 L 112 124 L 112 120 L 108 120 L 108 124 z M 112 120 L 116 120 L 116 116 L 112 116 L 112 120 z M 116 116 L 120 116 L 120 112 L 116 112 L 116 116 z M 116 112 L 116 108 L 112 108 L 112 112 L 116 112 z M 116 108 L 120 108 L 120 104 L 116 104 L 116 108 z M 116 104 L 116 100 L 112 100 L 112 104 L 116 104 z M 116 100 L 120 100 L 120 96 L 116 96 L 116 100 z M 120 96 L 124 96 L 124 92 L 120 92 L 120 96 z M 124 96 L 124 100 L 128 100 L 128 96 L 124 96 z M 128 100 L 128 104 L 132 104 L 132 100 L 128 100 z M 132 104 L 132 108 L 136 108 L 136 104 L 132 104 z M 132 108 L 128 108 L 128 112 L 132 112 L 132 108 z M 132 112 L 132 116 L 136 116 L 136 112 L 132 112 z M 132 116 L 128 116 L 128 120 L 132 120 L 132 116 z M 128 120 L 124 120 L 124 124 L 128 124 L 128 120 z M 128 124 L 128 128 L 132 128 L 132 124 L 128 124 z M 124 124 L 120 124 L 120 128 L 124 128 L 124 124 z M 120 124 L 120 120 L 116 120 L 116 124 L 120 124 z M 116 124 L 112 124 L 112 128 L 116 128 L 116 124 z M 120 120 L 124 120 L 124 116 L 120 116 L 120 120 z M 124 116 L 128 116 L 128 112 L 124 112 L 124 116 z M 124 112 L 124 108 L 120 108 L 120 112 L 124 112 z M 124 108 L 128 108 L 128 104 L 124 104 L 124 108 z M 124 104 L 124 100 L 120 100 L 120 104 L 124 104 z "
     id="rect2876" />
  <path
     style="fill:#ffffff"
     d="M 68 8 L 68 12 L 72 12 L 72 8 L 68 8 z M 72 12 L 72 16 L 76 16 L 76 12 L 72 12 z M 76 12 L 80 12 L 80 8 L 76 8 L 76 12 z M 68 12 L 64 12 L 64 16 L 68 16 L 68 12 z M 64 16 L 60 16 L 60 20 L 64 20 L 64 16 z M 60 16 L 60 12 L 56 12 L 56 16 L 60 16 z M 56 16 L 52 16 L 48 16 L 48 20 L 44 20 L 40 20 L 40 24 L 36 24 L 36 28 L 40 28 L 44 28 L 44 24 L 48 24 L 52 24 L 52 20 L 56 20 L 56 16 z M 36 28 L 32 28 L 32 32 L 28 32 L 28 36 L 28 40 L 32 40 L 32 36 L 36 36 L 36 40 L 40 40 L 40 36 L 40 32 L 36 32 L 36 28 z M 36 40 L 32 40 L 32 44 L 36 44 L 36 40 z M 32 44 L 28 44 L 28 40 L 24 40 L 20 40 L 20 44 L 20 48 L 24 48 L 24 52 L 28 52 L 28 48 L 32 48 L 32 44 z M 28 52 L 28 56 L 24 56 L 24 60 L 20 60 L 20 64 L 16 64 L 16 68 L 20 68 L 20 72 L 16 72 L 16 76 L 20 76 L 20 80 L 16 80 L 16 84 L 20 84 L 20 88 L 24 88 L 24 92 L 28 92 L 28 96 L 24 96 L 24 100 L 28 100 L 28 104 L 32 104 L 32 100 L 36 100 L 36 96 L 40 96 L 40 92 L 44 92 L 44 88 L 40 88 L 40 84 L 44 84 L 44 80 L 48 80 L 48 76 L 44 76 L 40 76 L 40 72 L 44 72 L 44 68 L 40 68 L 40 64 L 44 64 L 44 60 L 40 60 L 40 56 L 40 52 L 36 52 L 36 56 L 32 56 L 32 52 L 28 52 z M 44 60 L 48 60 L 48 56 L 44 56 L 44 60 z M 48 56 L 52 56 L 52 52 L 48 52 L 48 56 z M 52 56 L 52 60 L 56 60 L 56 56 L 52 56 z M 56 60 L 56 64 L 60 64 L 64 64 L 64 60 L 60 60 L 56 60 z M 52 60 L 48 60 L 48 64 L 52 64 L 52 60 z M 48 64 L 44 64 L 44 68 L 48 68 L 48 64 z M 48 68 L 48 72 L 52 72 L 52 68 L 48 68 z M 48 80 L 48 84 L 52 84 L 52 80 L 48 80 z M 52 84 L 52 88 L 56 88 L 56 84 L 52 84 z M 56 88 L 56 92 L 60 92 L 60 88 L 56 88 z M 60 88 L 64 88 L 64 84 L 60 84 L 60 88 z M 64 84 L 68 84 L 68 80 L 64 80 L 64 84 z M 56 92 L 52 92 L 52 96 L 56 96 L 56 92 z M 52 96 L 48 96 L 48 100 L 52 100 L 52 96 z M 52 100 L 52 104 L 56 104 L 56 100 L 52 100 z M 52 104 L 48 104 L 48 108 L 52 108 L 52 104 z M 48 104 L 48 100 L 44 100 L 44 104 L 48 104 z M 44 100 L 44 96 L 40 96 L 40 100 L 44 100 z M 40 100 L 36 100 L 36 104 L 40 104 L 40 100 z M 36 104 L 32 104 L 32 108 L 36 108 L 36 104 z M 48 84 L 44 84 L 44 88 L 48 88 L 48 84 z M 24 96 L 24 92 L 20 92 L 20 96 L 24 96 z M 20 92 L 20 88 L 16 88 L 16 92 L 20 92 z M 16 80 L 16 76 L 12 76 L 12 80 L 16 80 z M 16 72 L 16 68 L 12 68 L 12 72 L 16 72 z M 16 64 L 16 60 L 12 60 L 12 64 L 16 64 z M 16 60 L 20 60 L 20 56 L 16 56 L 16 60 z M 20 56 L 24 56 L 24 52 L 20 52 L 20 56 z M 20 52 L 20 48 L 16 48 L 16 52 L 20 52 z M 68 20 L 68 24 L 72 24 L 72 20 L 68 20 z M 52 28 L 52 32 L 56 32 L 60 32 L 60 28 L 56 28 L 52 28 z M 44 32 L 44 36 L 48 36 L 48 32 L 44 32 z M 104 80 L 104 84 L 108 84 L 108 80 L 104 80 z M 108 84 L 108 88 L 104 88 L 104 92 L 100 92 L 100 96 L 96 96 L 96 100 L 92 100 L 92 104 L 88 104 L 88 108 L 92 108 L 92 112 L 96 112 L 96 116 L 100 116 L 100 120 L 104 120 L 104 116 L 108 116 L 108 112 L 104 112 L 104 108 L 108 108 L 108 104 L 104 104 L 104 100 L 108 100 L 108 96 L 112 96 L 112 92 L 116 92 L 116 88 L 120 88 L 120 84 L 116 84 L 116 80 L 112 80 L 112 84 L 108 84 z M 120 84 L 124 84 L 124 80 L 120 80 L 120 84 z M 124 84 L 124 88 L 128 88 L 128 84 L 124 84 z M 128 84 L 132 84 L 132 80 L 128 80 L 128 84 z M 132 84 L 132 88 L 136 88 L 136 84 L 132 84 z M 124 88 L 120 88 L 120 92 L 124 92 L 124 88 z M 104 120 L 104 124 L 108 124 L 108 120 L 104 120 z M 104 124 L 100 124 L 100 128 L 104 128 L 104 124 z M 104 128 L 104 132 L 108 132 L 108 128 L 104 128 z M 104 132 L 100 132 L 100 136 L 104 136 L 104 132 z M 104 136 L 104 140 L 108 140 L 108 136 L 104 136 z M 100 136 L 96 136 L 96 140 L 100 140 L 100 136 z M 96 136 L 96 132 L 92 132 L 92 136 L 96 136 z M 92 132 L 92 128 L 88 128 L 88 132 L 92 132 z M 92 128 L 96 128 L 96 124 L 92 124 L 92 128 z M 92 124 L 92 120 L 88 120 L 88 124 L 92 124 z M 88 120 L 88 116 L 84 116 L 84 120 L 88 120 z M 88 116 L 92 116 L 92 112 L 88 112 L 88 116 z M 88 112 L 88 108 L 84 108 L 84 112 L 88 112 z M 92 116 L 92 120 L 96 120 L 96 116 L 92 116 z M 96 120 L 96 124 L 100 124 L 100 120 L 96 120 z M 96 128 L 96 132 L 100 132 L 100 128 L 96 128 z M 92 100 L 92 96 L 88 96 L 88 100 L 92 100 z M 92 96 L 96 96 L 96 92 L 92 92 L 92 96 z M 96 92 L 100 92 L 100 88 L 96 88 L 96 92 z M 100 88 L 104 88 L 104 84 L 100 84 L 100 88 z M 136 148 L 136 152 L 140 152 L 140 156 L 144 156 L 148 156 L 148 152 L 144 152 L 144 148 L 140 148 L 136 148 z "
     id="rect3124" />
  <path
     style="fill:#008080"
     d="M 80 4 L 80 8 L 84 8 L 88 8 L 88 4 L 84 4 L 80 4 z M 100 4 L 100 8 L 104 8 L 108 8 L 108 4 L 104 4 L 100 4 z M 112 4 L 112 8 L 116 8 L 116 4 L 112 4 z M 116 8 L 116 12 L 120 12 L 124 12 L 128 12 L 128 8 L 124 8 L 120 8 L 116 8 z M 44 24 L 44 28 L 48 28 L 48 24 L 44 24 z M 48 28 L 48 32 L 52 32 L 52 28 L 48 28 z M 44 28 L 40 28 L 40 32 L 44 32 L 44 28 z M 24 36 L 24 40 L 28 40 L 28 36 L 24 36 z M 28 40 L 28 44 L 32 44 L 32 40 L 28 40 z M 32 40 L 36 40 L 36 36 L 32 36 L 32 40 z M 40 40 L 40 44 L 40 48 L 44 48 L 44 44 L 44 40 L 40 40 z M 40 48 L 36 48 L 36 52 L 40 52 L 40 48 z M 136 56 L 136 60 L 140 60 L 140 56 L 136 56 z M 8 68 L 8 72 L 8 76 L 4 76 L 4 80 L 4 84 L 4 88 L 4 92 L 8 92 L 8 88 L 12 88 L 12 84 L 8 84 L 8 80 L 12 80 L 12 76 L 12 72 L 12 68 L 8 68 z M 12 88 L 12 92 L 16 92 L 16 88 L 12 88 z M 12 92 L 8 92 L 8 96 L 12 96 L 12 92 z M 12 96 L 12 100 L 16 100 L 16 96 L 12 96 z M 16 100 L 16 104 L 20 104 L 20 100 L 16 100 z M 20 100 L 24 100 L 24 96 L 20 96 L 20 100 z M 24 100 L 24 104 L 28 104 L 28 100 L 24 100 z M 28 104 L 28 108 L 32 108 L 32 104 L 28 104 z M 28 108 L 24 108 L 24 112 L 28 112 L 28 108 z M 28 112 L 28 116 L 32 116 L 32 112 L 28 112 z M 32 116 L 32 120 L 36 120 L 36 116 L 32 116 z M 32 120 L 28 120 L 28 124 L 32 124 L 32 120 z M 32 124 L 32 128 L 32 132 L 32 136 L 36 136 L 36 132 L 40 132 L 40 128 L 40 124 L 36 124 L 32 124 z M 32 136 L 28 136 L 28 140 L 24 140 L 24 136 L 28 136 L 28 132 L 24 132 L 24 128 L 24 124 L 24 120 L 20 120 L 20 124 L 16 124 L 16 128 L 20 128 L 20 132 L 16 132 L 16 128 L 12 128 L 12 132 L 12 136 L 16 136 L 16 140 L 16 144 L 20 144 L 20 148 L 20 152 L 24 152 L 24 156 L 28 156 L 28 160 L 32 160 L 32 164 L 36 164 L 40 164 L 40 160 L 36 160 L 36 156 L 32 156 L 32 152 L 32 148 L 32 144 L 32 140 L 32 136 z M 12 128 L 12 124 L 16 124 L 16 120 L 12 120 L 12 116 L 16 116 L 16 112 L 12 112 L 12 108 L 8 108 L 8 112 L 4 112 L 4 116 L 8 116 L 8 120 L 8 124 L 8 128 L 12 128 z M 8 108 L 8 104 L 4 104 L 4 108 L 8 108 z M 8 104 L 12 104 L 12 100 L 8 100 L 8 104 z M 8 100 L 8 96 L 4 96 L 4 100 L 8 100 z M 12 104 L 12 108 L 16 108 L 16 104 L 12 104 z M 16 108 L 16 112 L 20 112 L 20 108 L 16 108 z M 20 108 L 24 108 L 24 104 L 20 104 L 20 108 z M 20 112 L 20 116 L 24 116 L 24 112 L 20 112 z M 24 116 L 24 120 L 28 120 L 28 116 L 24 116 z M 20 116 L 16 116 L 16 120 L 20 120 L 20 116 z M 136 80 L 136 84 L 140 84 L 140 80 L 136 80 z M 140 84 L 140 88 L 144 88 L 144 84 L 140 84 z M 144 88 L 144 92 L 144 96 L 148 96 L 148 100 L 148 104 L 152 104 L 152 108 L 152 112 L 152 116 L 152 120 L 148 120 L 148 124 L 148 128 L 148 132 L 152 132 L 152 128 L 152 124 L 156 124 L 156 120 L 156 116 L 156 112 L 156 108 L 156 104 L 156 100 L 152 100 L 152 96 L 152 92 L 148 92 L 148 88 L 144 88 z M 148 132 L 144 132 L 144 136 L 148 136 L 148 132 z M 144 136 L 140 136 L 140 140 L 144 140 L 144 136 z M 140 140 L 136 140 L 132 140 L 132 144 L 136 144 L 140 144 L 140 140 z M 132 144 L 128 144 L 124 144 L 120 144 L 116 144 L 112 144 L 108 144 L 108 148 L 112 148 L 116 148 L 120 148 L 124 148 L 128 148 L 132 148 L 132 144 z M 100 140 L 100 144 L 104 144 L 104 140 L 100 140 z "
     id="rect3218" />
  <path
     style="fill:#808080"
     d="M 76 0 L 76 4 L 80 4 L 84 4 L 88 4 L 92 4 L 96 4 L 100 4 L 104 4 L 108 4 L 112 4 L 116 4 L 116 0 L 112 0 L 108 0 L 104 0 L 100 0 L 96 0 L 92 0 L 88 0 L 84 0 L 80 0 L 76 0 z M 116 4 L 116 8 L 120 8 L 124 8 L 128 8 L 128 4 L 124 4 L 120 4 L 116 4 z M 128 8 L 128 12 L 132 12 L 136 12 L 136 8 L 132 8 L 128 8 z M 136 12 L 136 16 L 140 16 L 144 16 L 144 12 L 140 12 L 136 12 z M 144 16 L 144 20 L 148 20 L 152 20 L 152 16 L 148 16 L 144 16 z M 152 20 L 152 24 L 156 24 L 156 20 L 152 20 z M 156 24 L 156 28 L 160 28 L 160 24 L 156 24 z M 76 4 L 72 4 L 68 4 L 64 4 L 64 8 L 68 8 L 72 8 L 76 8 L 76 4 z M 64 8 L 60 8 L 56 8 L 56 12 L 60 12 L 64 12 L 64 8 z M 56 12 L 52 12 L 48 12 L 48 16 L 52 16 L 56 16 L 56 12 z M 48 16 L 44 16 L 40 16 L 40 20 L 44 20 L 48 20 L 48 16 z M 40 20 L 36 20 L 36 24 L 40 24 L 40 20 z M 36 24 L 32 24 L 32 28 L 36 28 L 36 24 z M 32 28 L 28 28 L 28 32 L 32 32 L 32 28 z M 28 32 L 24 32 L 24 36 L 28 36 L 28 32 z M 24 36 L 20 36 L 20 40 L 24 40 L 24 36 z M 20 40 L 16 40 L 16 44 L 16 48 L 20 48 L 20 44 L 20 40 z M 16 48 L 12 48 L 12 52 L 8 52 L 8 56 L 8 60 L 8 64 L 12 64 L 12 60 L 12 56 L 16 56 L 16 52 L 16 48 z M 8 64 L 4 64 L 4 68 L 4 72 L 4 76 L 8 76 L 8 72 L 8 68 L 8 64 z M 4 76 L 0 76 L 0 80 L 0 84 L 0 88 L 0 92 L 0 96 L 0 100 L 0 104 L 0 108 L 0 112 L 0 116 L 4 116 L 4 112 L 4 108 L 4 104 L 4 100 L 4 96 L 4 92 L 4 88 L 4 84 L 4 80 L 4 76 z M 4 116 L 4 120 L 4 124 L 4 128 L 8 128 L 8 124 L 8 120 L 8 116 L 4 116 z M 8 128 L 8 132 L 8 136 L 12 136 L 12 132 L 12 128 L 8 128 z M 12 136 L 12 140 L 12 144 L 16 144 L 16 140 L 16 136 L 12 136 z M 16 144 L 16 148 L 16 152 L 20 152 L 20 148 L 20 144 L 16 144 z M 20 152 L 20 156 L 24 156 L 24 152 L 20 152 z M 24 156 L 24 160 L 28 160 L 28 156 L 24 156 z M 28 160 L 28 164 L 32 164 L 32 160 L 28 160 z M 32 164 L 32 168 L 36 168 L 36 164 L 32 164 z M 108 72 L 108 76 L 112 76 L 116 76 L 120 76 L 124 76 L 128 76 L 132 76 L 132 72 L 128 72 L 124 72 L 120 72 L 116 72 L 112 72 L 108 72 z M 132 76 L 132 80 L 136 80 L 140 80 L 140 76 L 136 76 L 132 76 z M 108 76 L 104 76 L 100 76 L 100 80 L 104 80 L 108 80 L 108 76 z M 100 80 L 96 80 L 96 84 L 100 84 L 100 80 z M 96 84 L 92 84 L 92 88 L 96 88 L 96 84 z M 92 88 L 88 88 L 88 92 L 92 92 L 92 88 z M 88 92 L 84 92 L 84 96 L 84 100 L 88 100 L 88 96 L 88 92 z M 84 100 L 80 100 L 80 104 L 80 108 L 80 112 L 80 116 L 80 120 L 80 124 L 84 124 L 84 120 L 84 116 L 84 112 L 84 108 L 84 104 L 84 100 z M 84 124 L 84 128 L 84 132 L 88 132 L 88 128 L 88 124 L 84 124 z M 88 132 L 88 136 L 92 136 L 92 132 L 88 132 z M 92 136 L 92 140 L 96 140 L 96 136 L 92 136 z M 96 140 L 96 144 L 100 144 L 100 140 L 96 140 z M 144 128 L 144 132 L 148 132 L 148 128 L 144 128 z M 144 132 L 140 132 L 140 136 L 144 136 L 144 132 z M 140 136 L 136 136 L 136 140 L 140 140 L 140 136 z M 148 136 L 148 140 L 144 140 L 144 144 L 148 144 L 148 148 L 152 148 L 152 152 L 156 152 L 156 148 L 156 144 L 156 140 L 152 140 L 152 136 L 148 136 z M 132 148 L 132 152 L 132 156 L 136 156 L 136 152 L 136 148 L 132 148 z M 136 156 L 136 160 L 140 160 L 140 156 L 136 156 z M 140 160 L 140 164 L 144 164 L 144 160 L 140 160 z "
     id="rect3290" />
  <path
     style="fill:#008000"
     d="M 84 8 L 84 12 L 80 12 L 80 16 L 76 16 L 72 16 L 68 16 L 68 20 L 72 20 L 72 24 L 76 24 L 76 28 L 76 32 L 72 32 L 72 36 L 68 36 L 64 36 L 60 36 L 60 32 L 56 32 L 52 32 L 52 36 L 56 36 L 56 40 L 52 40 L 52 36 L 48 36 L 48 40 L 44 40 L 44 44 L 44 48 L 48 48 L 52 48 L 52 52 L 56 52 L 56 56 L 56 60 L 60 60 L 64 60 L 64 64 L 60 64 L 56 64 L 52 64 L 52 68 L 52 72 L 48 72 L 44 72 L 44 76 L 48 76 L 52 76 L 56 76 L 56 72 L 60 72 L 64 72 L 68 72 L 68 68 L 68 64 L 72 64 L 72 60 L 76 60 L 76 56 L 80 56 L 80 60 L 84 60 L 88 60 L 92 60 L 96 60 L 96 64 L 92 64 L 92 68 L 96 68 L 96 72 L 100 72 L 100 68 L 104 68 L 108 68 L 108 64 L 104 64 L 104 60 L 108 60 L 108 64 L 112 64 L 112 68 L 108 68 L 108 72 L 112 72 L 116 72 L 120 72 L 124 72 L 128 72 L 132 72 L 136 72 L 136 76 L 140 76 L 140 80 L 144 80 L 144 84 L 148 84 L 148 88 L 152 88 L 152 84 L 152 80 L 156 80 L 156 76 L 160 76 L 164 76 L 164 80 L 168 80 L 168 84 L 172 84 L 172 80 L 176 80 L 176 76 L 172 76 L 172 72 L 168 72 L 168 68 L 164 68 L 164 64 L 168 64 L 168 60 L 164 60 L 164 56 L 168 56 L 168 52 L 164 52 L 164 48 L 160 48 L 160 44 L 164 44 L 164 40 L 164 36 L 160 36 L 160 32 L 160 28 L 156 28 L 156 24 L 152 24 L 152 20 L 148 20 L 144 20 L 144 24 L 140 24 L 140 20 L 144 20 L 144 16 L 140 16 L 136 16 L 136 20 L 132 20 L 132 16 L 128 16 L 128 12 L 124 12 L 120 12 L 116 12 L 116 8 L 112 8 L 108 8 L 108 12 L 108 16 L 104 16 L 100 16 L 100 12 L 96 12 L 92 12 L 88 12 L 88 8 L 84 8 z M 164 44 L 164 48 L 168 48 L 168 44 L 164 44 z M 168 44 L 172 44 L 172 40 L 168 40 L 168 44 z M 168 48 L 168 52 L 172 52 L 172 48 L 168 48 z M 172 52 L 172 56 L 176 56 L 176 52 L 172 52 z M 176 56 L 176 60 L 180 60 L 180 56 L 176 56 z M 176 60 L 172 60 L 172 64 L 176 64 L 176 60 z M 176 64 L 176 68 L 180 68 L 180 64 L 176 64 z M 180 68 L 180 72 L 184 72 L 184 68 L 180 68 z M 180 72 L 176 72 L 176 76 L 180 76 L 180 72 z M 180 76 L 180 80 L 184 80 L 184 76 L 180 76 z M 184 80 L 184 84 L 188 84 L 188 80 L 184 80 z M 184 84 L 180 84 L 180 88 L 184 88 L 184 84 z M 184 88 L 184 92 L 188 92 L 188 88 L 184 88 z M 180 84 L 180 80 L 176 80 L 176 84 L 180 84 z M 176 84 L 172 84 L 172 88 L 176 88 L 176 84 z M 176 72 L 176 68 L 172 68 L 172 72 L 176 72 z M 172 68 L 172 64 L 168 64 L 168 68 L 172 68 z M 172 60 L 172 56 L 168 56 L 168 60 L 172 60 z M 92 68 L 88 68 L 88 72 L 92 72 L 92 68 z M 44 40 L 44 36 L 40 36 L 40 40 L 44 40 z M 40 40 L 36 40 L 36 44 L 40 44 L 40 40 z M 36 44 L 32 44 L 32 48 L 36 48 L 36 44 z M 32 48 L 28 48 L 28 52 L 32 52 L 32 48 z M 32 52 L 32 56 L 36 56 L 36 52 L 32 52 z M 60 32 L 64 32 L 68 32 L 68 28 L 72 28 L 72 24 L 68 24 L 68 20 L 64 20 L 64 24 L 60 24 L 60 20 L 56 20 L 56 24 L 52 24 L 52 28 L 56 28 L 60 28 L 60 32 z M 80 40 L 84 40 L 88 40 L 92 40 L 92 44 L 88 44 L 84 44 L 84 48 L 80 48 L 76 48 L 76 44 L 80 44 L 80 40 z M 40 52 L 40 56 L 44 56 L 44 52 L 40 52 z M 116 52 L 120 52 L 120 56 L 124 56 L 124 60 L 128 60 L 128 56 L 128 52 L 132 52 L 136 52 L 136 56 L 140 56 L 140 60 L 140 64 L 144 64 L 144 68 L 148 68 L 148 72 L 144 72 L 144 68 L 140 68 L 140 64 L 136 64 L 132 64 L 128 64 L 124 64 L 120 64 L 120 68 L 116 68 L 116 64 L 116 60 L 112 60 L 112 56 L 116 56 L 116 52 z M 72 72 L 72 76 L 76 76 L 76 72 L 72 72 z M 76 76 L 76 80 L 72 80 L 72 76 L 68 76 L 64 76 L 64 80 L 68 80 L 68 84 L 64 84 L 64 88 L 68 88 L 68 92 L 64 92 L 64 88 L 60 88 L 60 92 L 56 92 L 56 96 L 56 100 L 60 100 L 60 104 L 56 104 L 56 108 L 60 108 L 60 112 L 56 112 L 56 116 L 60 116 L 64 116 L 64 120 L 68 120 L 68 124 L 72 124 L 72 128 L 76 128 L 76 132 L 80 132 L 80 136 L 80 140 L 84 140 L 84 144 L 88 144 L 88 148 L 84 148 L 84 152 L 80 152 L 80 156 L 80 160 L 84 160 L 84 164 L 88 164 L 92 164 L 92 168 L 88 168 L 88 172 L 92 172 L 96 172 L 100 172 L 100 168 L 104 168 L 104 164 L 104 160 L 108 160 L 112 160 L 112 156 L 116 156 L 116 152 L 112 152 L 108 152 L 108 148 L 104 148 L 100 148 L 100 144 L 96 144 L 96 140 L 92 140 L 92 136 L 88 136 L 88 132 L 84 132 L 84 128 L 84 124 L 80 124 L 80 120 L 80 116 L 80 112 L 80 108 L 80 104 L 80 100 L 84 100 L 84 96 L 84 92 L 88 92 L 88 88 L 92 88 L 92 84 L 96 84 L 96 80 L 92 80 L 88 80 L 88 76 L 84 76 L 80 76 L 76 76 z M 56 112 L 56 108 L 52 108 L 52 112 L 56 112 z M 56 92 L 56 88 L 52 88 L 52 92 L 56 92 z M 56 88 L 60 88 L 60 84 L 56 84 L 56 88 z M 24 124 L 24 128 L 28 128 L 28 124 L 24 124 z M 28 132 L 28 136 L 32 136 L 32 132 L 28 132 z "
     id="rect3396" />
  <path
     style="fill:#0000ff"
     d="M 88 4 L 88 8 L 88 12 L 92 12 L 96 12 L 100 12 L 100 16 L 104 16 L 108 16 L 108 12 L 108 8 L 104 8 L 100 8 L 100 4 L 96 4 L 92 4 L 88 4 z M 108 8 L 112 8 L 112 4 L 108 4 L 108 8 z M 128 12 L 128 16 L 132 16 L 132 20 L 136 20 L 136 16 L 136 12 L 132 12 L 128 12 z M 140 20 L 140 24 L 144 24 L 144 20 L 140 20 z M 72 24 L 72 28 L 68 28 L 68 32 L 64 32 L 60 32 L 60 36 L 64 36 L 68 36 L 72 36 L 72 32 L 76 32 L 76 28 L 76 24 L 72 24 z M 48 32 L 48 36 L 52 36 L 52 32 L 48 32 z M 52 36 L 52 40 L 56 40 L 56 36 L 52 36 z M 80 40 L 80 44 L 76 44 L 76 48 L 80 48 L 84 48 L 84 44 L 88 44 L 92 44 L 92 40 L 88 40 L 84 40 L 80 40 z M 36 44 L 36 48 L 40 48 L 40 44 L 36 44 z M 36 48 L 32 48 L 32 52 L 36 52 L 36 48 z M 44 48 L 44 52 L 48 52 L 52 52 L 52 48 L 48 48 L 44 48 z M 116 52 L 116 56 L 112 56 L 112 60 L 116 60 L 116 64 L 116 68 L 120 68 L 120 64 L 124 64 L 128 64 L 132 64 L 136 64 L 140 64 L 140 60 L 136 60 L 136 56 L 136 52 L 132 52 L 128 52 L 128 56 L 128 60 L 124 60 L 124 56 L 120 56 L 120 52 L 116 52 z M 140 64 L 140 68 L 144 68 L 144 64 L 140 64 z M 144 68 L 144 72 L 148 72 L 148 68 L 144 68 z M 76 56 L 76 60 L 72 60 L 72 64 L 68 64 L 68 68 L 68 72 L 72 72 L 76 72 L 76 76 L 80 76 L 84 76 L 88 76 L 88 80 L 92 80 L 96 80 L 100 80 L 100 76 L 104 76 L 108 76 L 108 72 L 108 68 L 104 68 L 100 68 L 100 72 L 96 72 L 96 68 L 92 68 L 92 72 L 88 72 L 88 68 L 92 68 L 92 64 L 96 64 L 96 60 L 92 60 L 88 60 L 84 60 L 80 60 L 80 56 L 76 56 z M 108 68 L 112 68 L 112 64 L 108 64 L 108 68 z M 108 64 L 108 60 L 104 60 L 104 64 L 108 64 z M 68 72 L 64 72 L 60 72 L 56 72 L 56 76 L 52 76 L 52 80 L 52 84 L 56 84 L 60 84 L 64 84 L 64 80 L 64 76 L 68 76 L 68 72 z M 156 76 L 156 80 L 152 80 L 152 84 L 152 88 L 152 92 L 156 92 L 156 96 L 156 100 L 160 100 L 160 104 L 160 108 L 160 112 L 160 116 L 160 120 L 160 124 L 156 124 L 156 128 L 156 132 L 160 132 L 160 128 L 164 128 L 168 128 L 168 124 L 164 124 L 164 120 L 168 120 L 168 116 L 172 116 L 172 112 L 168 112 L 168 108 L 172 108 L 172 104 L 176 104 L 176 100 L 180 100 L 180 96 L 176 96 L 176 92 L 172 92 L 172 88 L 172 84 L 168 84 L 168 80 L 164 80 L 164 76 L 160 76 L 156 76 z M 176 92 L 180 92 L 180 88 L 176 88 L 176 92 z M 180 92 L 180 96 L 184 96 L 184 92 L 180 92 z M 180 100 L 180 104 L 184 104 L 184 100 L 180 100 z M 180 104 L 176 104 L 176 108 L 180 108 L 180 104 z M 176 108 L 172 108 L 172 112 L 176 112 L 176 108 z M 168 120 L 168 124 L 172 124 L 172 120 L 168 120 z M 168 128 L 168 132 L 172 132 L 172 128 L 168 128 z M 44 88 L 44 92 L 44 96 L 48 96 L 52 96 L 52 92 L 52 88 L 48 88 L 44 88 z M 40 100 L 40 104 L 40 108 L 44 108 L 44 104 L 44 100 L 40 100 z M 40 108 L 36 108 L 32 108 L 32 112 L 36 112 L 36 116 L 40 116 L 40 120 L 36 120 L 32 120 L 32 124 L 36 124 L 40 124 L 40 128 L 40 132 L 36 132 L 36 136 L 32 136 L 32 140 L 32 144 L 32 148 L 32 152 L 32 156 L 36 156 L 36 160 L 40 160 L 40 164 L 44 164 L 44 168 L 48 168 L 48 172 L 52 172 L 56 172 L 60 172 L 60 168 L 64 168 L 64 172 L 68 172 L 68 168 L 72 168 L 72 172 L 76 172 L 76 168 L 80 168 L 80 164 L 80 160 L 80 156 L 80 152 L 84 152 L 84 148 L 88 148 L 88 144 L 84 144 L 84 140 L 80 140 L 80 136 L 80 132 L 76 132 L 76 128 L 72 128 L 72 124 L 68 124 L 64 124 L 64 120 L 60 120 L 56 120 L 52 120 L 52 116 L 52 112 L 48 112 L 44 112 L 40 112 L 40 108 z M 80 168 L 80 172 L 84 172 L 84 168 L 80 168 z M 84 168 L 88 168 L 88 164 L 84 164 L 84 168 z M 80 172 L 76 172 L 76 176 L 80 176 L 80 172 z M 72 172 L 68 172 L 68 176 L 72 176 L 72 172 z M 64 172 L 60 172 L 60 176 L 64 176 L 64 172 z M 32 124 L 28 124 L 28 128 L 28 132 L 32 132 L 32 128 L 32 124 z M 116 156 L 116 160 L 112 160 L 108 160 L 104 160 L 104 164 L 108 164 L 108 168 L 112 168 L 112 164 L 116 164 L 116 168 L 120 168 L 120 164 L 124 164 L 124 160 L 128 160 L 128 156 L 124 156 L 120 156 L 116 156 z M 128 160 L 128 164 L 132 164 L 132 160 L 128 160 z M 132 164 L 132 168 L 136 168 L 136 164 L 132 164 z M 128 164 L 124 164 L 124 168 L 128 168 L 128 164 z M 124 168 L 120 168 L 120 172 L 124 172 L 124 168 z M 116 168 L 112 168 L 112 172 L 116 172 L 116 168 z M 108 168 L 104 168 L 104 172 L 108 172 L 108 168 z "
     id="rect3460" />
  <path
     style="fill:#c0c0c0"
     d="M 76 4 L 76 8 L 80 8 L 80 4 L 76 4 z M 80 8 L 80 12 L 84 12 L 84 8 L 80 8 z M 80 12 L 76 12 L 76 16 L 80 16 L 80 12 z M 76 12 L 76 8 L 72 8 L 72 12 L 76 12 z M 72 12 L 68 12 L 68 16 L 72 16 L 72 12 z M 68 16 L 64 16 L 64 20 L 68 20 L 68 16 z M 64 20 L 60 20 L 60 24 L 64 24 L 64 20 z M 60 20 L 60 16 L 56 16 L 56 20 L 60 20 z M 56 20 L 52 20 L 52 24 L 56 24 L 56 20 z M 52 24 L 48 24 L 48 28 L 52 28 L 52 24 z M 48 28 L 44 28 L 44 32 L 48 32 L 48 28 z M 44 32 L 40 32 L 40 36 L 44 36 L 44 32 z M 44 36 L 44 40 L 48 40 L 48 36 L 44 36 z M 40 32 L 40 28 L 36 28 L 36 32 L 40 32 z M 60 16 L 64 16 L 64 12 L 60 12 L 60 16 z M 64 12 L 68 12 L 68 8 L 64 8 L 64 12 z M 20 48 L 20 52 L 24 52 L 24 48 L 20 48 z M 24 52 L 24 56 L 28 56 L 28 52 L 24 52 z M 24 56 L 20 56 L 20 60 L 24 60 L 24 56 z M 20 60 L 16 60 L 16 64 L 20 64 L 20 60 z M 16 64 L 12 64 L 8 64 L 8 68 L 12 68 L 16 68 L 16 64 z M 16 68 L 16 72 L 20 72 L 20 68 L 16 68 z M 16 72 L 12 72 L 12 76 L 16 76 L 16 72 z M 16 76 L 16 80 L 20 80 L 20 76 L 16 76 z M 16 80 L 12 80 L 8 80 L 8 84 L 12 84 L 12 88 L 16 88 L 20 88 L 20 84 L 16 84 L 16 80 z M 20 88 L 20 92 L 24 92 L 24 88 L 20 88 z M 24 92 L 24 96 L 28 96 L 28 92 L 24 92 z M 20 92 L 16 92 L 12 92 L 12 96 L 16 96 L 16 100 L 20 100 L 20 96 L 20 92 z M 20 100 L 20 104 L 24 104 L 24 100 L 20 100 z M 24 104 L 24 108 L 28 108 L 28 104 L 24 104 z M 28 108 L 28 112 L 32 112 L 32 108 L 28 108 z M 32 112 L 32 116 L 36 116 L 36 112 L 32 112 z M 36 116 L 36 120 L 40 120 L 40 116 L 36 116 z M 32 116 L 28 116 L 28 120 L 32 120 L 32 116 z M 28 120 L 24 120 L 24 124 L 28 124 L 28 120 z M 24 120 L 24 116 L 20 116 L 20 120 L 24 120 z M 20 120 L 16 120 L 16 124 L 20 124 L 20 120 z M 16 124 L 12 124 L 12 128 L 16 128 L 16 124 z M 16 128 L 16 132 L 20 132 L 20 128 L 16 128 z M 16 120 L 16 116 L 12 116 L 12 120 L 16 120 z M 16 116 L 20 116 L 20 112 L 16 112 L 16 116 z M 16 112 L 16 108 L 12 108 L 12 112 L 16 112 z M 12 108 L 12 104 L 8 104 L 8 108 L 12 108 z M 8 108 L 4 108 L 4 112 L 8 112 L 8 108 z M 8 104 L 8 100 L 4 100 L 4 104 L 8 104 z M 8 100 L 12 100 L 12 96 L 8 96 L 8 100 z M 8 96 L 8 92 L 4 92 L 4 96 L 8 96 z M 8 92 L 12 92 L 12 88 L 8 88 L 8 92 z M 12 100 L 12 104 L 16 104 L 16 100 L 12 100 z M 16 104 L 16 108 L 20 108 L 20 104 L 16 104 z M 20 108 L 20 112 L 24 112 L 24 108 L 20 108 z M 24 112 L 24 116 L 28 116 L 28 112 L 24 112 z M 16 60 L 16 56 L 12 56 L 12 60 L 16 60 z M 16 56 L 20 56 L 20 52 L 16 52 L 16 56 z M 40 48 L 40 52 L 44 52 L 44 48 L 40 48 z M 44 52 L 44 56 L 48 56 L 48 52 L 44 52 z M 48 56 L 48 60 L 52 60 L 52 56 L 48 56 z M 52 56 L 56 56 L 56 52 L 52 52 L 52 56 z M 52 60 L 52 64 L 56 64 L 56 60 L 52 60 z M 52 64 L 48 64 L 48 68 L 52 68 L 52 64 z M 48 68 L 44 68 L 44 72 L 48 72 L 48 68 z M 44 72 L 40 72 L 40 76 L 44 76 L 44 72 z M 44 68 L 44 64 L 40 64 L 40 68 L 44 68 z M 44 64 L 48 64 L 48 60 L 44 60 L 44 64 z M 44 60 L 44 56 L 40 56 L 40 60 L 44 60 z M 68 72 L 68 76 L 72 76 L 72 72 L 68 72 z M 72 76 L 72 80 L 76 80 L 76 76 L 72 76 z M 48 76 L 48 80 L 52 80 L 52 76 L 48 76 z M 48 80 L 44 80 L 44 84 L 48 84 L 48 80 z M 48 84 L 48 88 L 52 88 L 52 84 L 48 84 z M 44 84 L 40 84 L 40 88 L 44 88 L 44 84 z M 108 76 L 108 80 L 112 80 L 112 76 L 108 76 z M 116 76 L 116 80 L 120 80 L 120 76 L 116 76 z M 124 76 L 124 80 L 128 80 L 128 76 L 124 76 z M 100 80 L 100 84 L 104 84 L 104 80 L 100 80 z M 100 84 L 96 84 L 96 88 L 100 88 L 100 84 z M 96 88 L 92 88 L 92 92 L 96 92 L 96 88 z M 92 92 L 88 92 L 88 96 L 92 96 L 92 92 z M 64 88 L 64 92 L 68 92 L 68 88 L 64 88 z M 128 88 L 128 92 L 132 92 L 132 88 L 128 88 z M 132 92 L 132 96 L 136 96 L 136 92 L 132 92 z M 136 92 L 140 92 L 140 88 L 136 88 L 136 92 z M 140 92 L 140 96 L 144 96 L 144 92 L 140 92 z M 144 96 L 144 100 L 148 100 L 148 96 L 144 96 z M 144 100 L 140 100 L 140 104 L 144 104 L 144 100 z M 144 104 L 144 108 L 148 108 L 148 104 L 144 104 z M 148 108 L 148 112 L 152 112 L 152 108 L 148 108 z M 148 112 L 144 112 L 144 116 L 148 116 L 148 112 z M 148 116 L 148 120 L 152 120 L 152 116 L 148 116 z M 148 120 L 144 120 L 144 124 L 148 124 L 148 120 z M 144 124 L 140 124 L 140 128 L 144 128 L 144 124 z M 140 128 L 136 128 L 136 132 L 140 132 L 140 128 z M 136 132 L 132 132 L 132 136 L 136 136 L 136 132 z M 132 136 L 128 136 L 128 140 L 132 140 L 132 136 z M 128 140 L 124 140 L 124 144 L 128 144 L 128 140 z M 124 140 L 124 136 L 120 136 L 120 140 L 124 140 z M 120 140 L 116 140 L 116 144 L 120 144 L 120 140 z M 116 140 L 116 136 L 112 136 L 112 140 L 116 140 z M 112 140 L 108 140 L 108 144 L 112 144 L 112 140 z M 112 136 L 112 132 L 108 132 L 108 136 L 112 136 z M 112 132 L 116 132 L 116 128 L 112 128 L 112 132 z M 112 128 L 112 124 L 108 124 L 108 128 L 112 128 z M 112 124 L 116 124 L 116 120 L 112 120 L 112 124 z M 112 120 L 112 116 L 108 116 L 108 120 L 112 120 z M 112 116 L 116 116 L 116 112 L 112 112 L 112 116 z M 112 112 L 112 108 L 108 108 L 108 112 L 112 112 z M 112 108 L 116 108 L 116 104 L 112 104 L 112 108 z M 112 104 L 112 100 L 108 100 L 108 104 L 112 104 z M 112 100 L 116 100 L 116 96 L 112 96 L 112 100 z M 116 96 L 120 96 L 120 92 L 116 92 L 116 96 z M 120 96 L 120 100 L 124 100 L 124 96 L 120 96 z M 124 96 L 128 96 L 128 92 L 124 92 L 124 96 z M 128 96 L 128 100 L 132 100 L 132 96 L 128 96 z M 132 100 L 132 104 L 136 104 L 136 100 L 132 100 z M 136 100 L 140 100 L 140 96 L 136 96 L 136 100 z M 136 104 L 136 108 L 140 108 L 140 104 L 136 104 z M 140 108 L 140 112 L 144 112 L 144 108 L 140 108 z M 140 112 L 136 112 L 136 116 L 140 116 L 140 112 z M 140 116 L 140 120 L 144 120 L 144 116 L 140 116 z M 140 120 L 136 120 L 136 124 L 140 124 L 140 120 z M 136 124 L 132 124 L 132 128 L 136 128 L 136 124 z M 132 128 L 128 128 L 128 132 L 132 132 L 132 128 z M 128 132 L 124 132 L 124 136 L 128 136 L 128 132 z M 124 132 L 124 128 L 120 128 L 120 132 L 124 132 z M 120 132 L 116 132 L 116 136 L 120 136 L 120 132 z M 120 128 L 120 124 L 116 124 L 116 128 L 120 128 z M 120 124 L 124 124 L 124 120 L 120 120 L 120 124 z M 120 120 L 120 116 L 116 116 L 116 120 L 120 120 z M 120 116 L 124 116 L 124 112 L 120 112 L 120 116 z M 120 112 L 120 108 L 116 108 L 116 112 L 120 112 z M 120 108 L 124 108 L 124 104 L 120 104 L 120 108 z M 120 104 L 120 100 L 116 100 L 116 104 L 120 104 z M 124 104 L 128 104 L 128 100 L 124 100 L 124 104 z M 128 104 L 128 108 L 132 108 L 132 104 L 128 104 z M 132 108 L 132 112 L 136 112 L 136 108 L 132 108 z M 132 112 L 128 112 L 128 116 L 132 116 L 132 112 z M 132 116 L 132 120 L 136 120 L 136 116 L 132 116 z M 132 120 L 128 120 L 128 124 L 132 124 L 132 120 z M 128 124 L 124 124 L 124 128 L 128 128 L 128 124 z M 128 120 L 128 116 L 124 116 L 124 120 L 128 120 z M 128 112 L 128 108 L 124 108 L 124 112 L 128 112 z M 40 92 L 40 96 L 44 96 L 44 92 L 40 92 z M 44 96 L 44 100 L 48 100 L 48 96 L 44 96 z M 48 100 L 48 104 L 52 104 L 52 100 L 48 100 z M 52 100 L 56 100 L 56 96 L 52 96 L 52 100 z M 56 100 L 56 104 L 60 104 L 60 100 L 56 100 z M 56 104 L 52 104 L 52 108 L 56 108 L 56 104 z M 56 108 L 56 112 L 60 112 L 60 108 L 56 108 z M 56 112 L 52 112 L 52 116 L 52 120 L 56 120 L 60 120 L 64 120 L 64 116 L 60 116 L 56 116 L 56 112 z M 64 120 L 64 124 L 68 124 L 68 120 L 64 120 z M 52 112 L 52 108 L 48 108 L 48 104 L 44 104 L 44 108 L 40 108 L 40 112 L 44 112 L 48 112 L 52 112 z M 40 108 L 40 104 L 36 104 L 36 108 L 40 108 z M 36 104 L 36 100 L 32 100 L 32 104 L 36 104 z M 36 100 L 40 100 L 40 96 L 36 96 L 36 100 z M 84 100 L 84 104 L 88 104 L 88 100 L 84 100 z M 84 120 L 84 124 L 88 124 L 88 120 L 84 120 z M 24 128 L 24 132 L 28 132 L 28 128 L 24 128 z M 24 136 L 24 140 L 28 140 L 28 136 L 24 136 z M 140 144 L 140 148 L 144 148 L 144 152 L 148 152 L 148 156 L 152 156 L 152 152 L 152 148 L 148 148 L 148 144 L 144 144 L 140 144 z M 148 156 L 144 156 L 140 156 L 140 160 L 144 160 L 148 160 L 148 156 z M 148 160 L 148 164 L 152 164 L 152 160 L 148 160 z M 152 164 L 152 168 L 156 168 L 156 164 L 152 164 z M 156 168 L 156 172 L 160 172 L 160 168 L 156 168 z M 160 172 L 160 176 L 164 176 L 164 172 L 160 172 z M 164 176 L 164 180 L 168 180 L 168 176 L 164 176 z M 168 180 L 168 184 L 172 184 L 172 180 L 168 180 z M 140 156 L 140 152 L 136 152 L 136 156 L 140 156 z "
     id="rect3628" />
  <path
     style="fill:#000080"
     d="M 160 32 L 160 36 L 164 36 L 164 32 L 160 32 z M 164 36 L 164 40 L 164 44 L 168 44 L 168 40 L 168 36 L 164 36 z M 168 44 L 168 48 L 172 48 L 172 44 L 168 44 z M 172 48 L 172 52 L 176 52 L 176 48 L 172 48 z M 172 52 L 168 52 L 168 56 L 172 56 L 172 52 z M 172 56 L 172 60 L 176 60 L 176 56 L 172 56 z M 176 60 L 176 64 L 180 64 L 180 60 L 176 60 z M 180 64 L 180 68 L 184 68 L 184 64 L 180 64 z M 180 68 L 176 68 L 176 72 L 180 72 L 180 68 z M 180 72 L 180 76 L 184 76 L 184 72 L 180 72 z M 184 76 L 184 80 L 188 80 L 188 76 L 184 76 z M 184 80 L 180 80 L 180 84 L 184 84 L 184 80 z M 184 84 L 184 88 L 188 88 L 188 84 L 184 84 z M 184 88 L 180 88 L 180 92 L 184 92 L 184 88 z M 184 92 L 184 96 L 180 96 L 180 100 L 184 100 L 184 104 L 180 104 L 180 108 L 176 108 L 176 112 L 172 112 L 172 116 L 168 116 L 168 120 L 172 120 L 172 124 L 168 124 L 168 128 L 172 128 L 172 132 L 168 132 L 168 128 L 164 128 L 160 128 L 160 132 L 156 132 L 156 136 L 156 140 L 160 140 L 160 144 L 164 144 L 164 148 L 168 148 L 172 148 L 172 144 L 176 144 L 176 140 L 176 136 L 180 136 L 180 132 L 180 128 L 184 128 L 184 124 L 184 120 L 184 116 L 188 116 L 188 112 L 188 108 L 188 104 L 188 100 L 188 96 L 188 92 L 184 92 z M 168 124 L 168 120 L 164 120 L 164 124 L 168 124 z M 172 112 L 172 108 L 168 108 L 168 112 L 172 112 z M 172 108 L 176 108 L 176 104 L 172 104 L 172 108 z M 176 104 L 180 104 L 180 100 L 176 100 L 176 104 z M 180 96 L 180 92 L 176 92 L 176 96 L 180 96 z M 176 92 L 176 88 L 172 88 L 172 92 L 176 92 z M 176 88 L 180 88 L 180 84 L 176 84 L 176 88 z M 176 84 L 176 80 L 172 80 L 172 84 L 176 84 z M 176 80 L 180 80 L 180 76 L 176 76 L 176 80 z M 176 76 L 176 72 L 172 72 L 172 76 L 176 76 z M 172 72 L 172 68 L 168 68 L 168 72 L 172 72 z M 168 68 L 168 64 L 164 64 L 164 68 L 168 68 z M 168 64 L 172 64 L 172 60 L 168 60 L 168 64 z M 168 60 L 168 56 L 164 56 L 164 60 L 168 60 z M 172 64 L 172 68 L 176 68 L 176 64 L 172 64 z M 168 52 L 168 48 L 164 48 L 164 52 L 168 52 z M 164 48 L 164 44 L 160 44 L 160 48 L 164 48 z M 132 72 L 132 76 L 136 76 L 136 72 L 132 72 z M 116 152 L 116 156 L 120 156 L 124 156 L 128 156 L 128 160 L 132 160 L 132 164 L 136 164 L 136 168 L 132 168 L 132 164 L 128 164 L 128 168 L 124 168 L 124 172 L 120 172 L 120 168 L 116 168 L 116 172 L 112 172 L 112 168 L 108 168 L 108 172 L 104 172 L 104 168 L 100 168 L 100 172 L 96 172 L 92 172 L 88 172 L 88 168 L 84 168 L 84 172 L 80 172 L 80 176 L 76 176 L 76 172 L 72 172 L 72 176 L 68 176 L 68 172 L 64 172 L 64 176 L 60 176 L 60 172 L 56 172 L 52 172 L 48 172 L 48 176 L 52 176 L 56 176 L 56 180 L 60 180 L 64 180 L 64 184 L 68 184 L 72 184 L 76 184 L 76 188 L 80 188 L 84 188 L 88 188 L 92 188 L 96 188 L 100 188 L 104 188 L 108 188 L 112 188 L 116 188 L 116 184 L 120 184 L 124 184 L 128 184 L 128 180 L 132 180 L 136 180 L 136 176 L 140 176 L 144 176 L 144 172 L 148 172 L 148 168 L 144 168 L 144 164 L 140 164 L 140 160 L 136 160 L 136 156 L 132 156 L 132 152 L 128 152 L 124 152 L 120 152 L 116 152 z M 48 172 L 48 168 L 44 168 L 44 164 L 40 164 L 36 164 L 36 168 L 40 168 L 40 172 L 44 172 L 48 172 z M 60 172 L 64 172 L 64 168 L 60 168 L 60 172 z M 68 172 L 72 172 L 72 168 L 68 168 L 68 172 z M 76 172 L 80 172 L 80 168 L 76 168 L 76 172 z M 80 168 L 84 168 L 84 164 L 84 160 L 80 160 L 80 164 L 80 168 z M 88 168 L 92 168 L 92 164 L 88 164 L 88 168 z M 104 168 L 108 168 L 108 164 L 104 164 L 104 168 z M 112 168 L 116 168 L 116 164 L 112 164 L 112 168 z M 120 168 L 124 168 L 124 164 L 120 164 L 120 168 z M 124 164 L 128 164 L 128 160 L 124 160 L 124 164 z M 116 156 L 112 156 L 112 160 L 116 160 L 116 156 z "
     id="rect3664" />
  <path
     style="fill:#ff0000"
     d="M 152 152 L 152 156 L 152 160 L 156 160 L 156 164 L 160 164 L 160 168 L 164 168 L 164 172 L 168 172 L 168 176 L 172 176 L 172 180 L 176 180 L 176 184 L 180 184 L 180 180 L 180 176 L 176 176 L 176 172 L 172 172 L 172 168 L 168 168 L 168 164 L 164 164 L 164 160 L 160 160 L 160 156 L 156 156 L 156 152 L 152 152 z M 144 160 L 144 164 L 148 164 L 148 160 L 144 160 z M 148 164 L 148 168 L 152 168 L 152 164 L 148 164 z M 152 168 L 152 172 L 156 172 L 156 168 L 152 168 z M 156 172 L 156 176 L 160 176 L 160 172 L 156 172 z M 160 176 L 160 180 L 164 180 L 164 176 L 160 176 z M 164 180 L 164 184 L 168 184 L 168 180 L 164 180 z M 168 184 L 168 188 L 172 188 L 172 184 L 168 184 z "
     id="rect3674" />
  <path
     style="fill:#ff00ff"
     d="M 148 156 L 148 160 L 152 160 L 152 156 L 148 156 z M 152 160 L 152 164 L 156 164 L 156 160 L 152 160 z M 156 164 L 156 168 L 160 168 L 160 164 L 156 164 z M 160 168 L 160 172 L 164 172 L 164 168 L 160 168 z M 164 172 L 164 176 L 168 176 L 168 172 L 164 172 z M 168 176 L 168 180 L 172 180 L 172 176 L 168 176 z M 172 180 L 172 184 L 172 188 L 176 188 L 176 184 L 176 180 L 172 180 z "
     id="rect3676" />
  <path
     style="fill:#800000"
     d="M 156 144 L 156 148 L 156 152 L 156 156 L 160 156 L 160 160 L 164 160 L 164 164 L 168 164 L 168 168 L 172 168 L 172 172 L 176 172 L 176 176 L 180 176 L 180 180 L 180 184 L 176 184 L 176 188 L 180 188 L 184 188 L 184 184 L 188 184 L 188 180 L 188 176 L 188 172 L 184 172 L 184 168 L 180 168 L 180 164 L 176 164 L 176 160 L 172 160 L 172 156 L 168 156 L 168 152 L 164 152 L 164 148 L 160 148 L 160 144 L 156 144 z M 144 164 L 144 168 L 148 168 L 148 164 L 144 164 z M 148 168 L 148 172 L 152 172 L 152 168 L 148 168 z M 152 172 L 152 176 L 156 176 L 156 172 L 152 172 z M 156 176 L 156 180 L 160 180 L 160 176 L 156 176 z M 160 180 L 160 184 L 164 184 L 164 180 L 160 180 z M 164 184 L 164 188 L 168 188 L 168 184 L 164 184 z M 168 188 L 168 192 L 172 192 L 172 188 L 168 188 z "
     id="rect3704" />
  <path
     style="fill:#000000"
     d="M 160 28 L 160 32 L 164 32 L 164 28 L 160 28 z M 164 32 L 164 36 L 168 36 L 168 32 L 164 32 z M 168 36 L 168 40 L 172 40 L 172 36 L 168 36 z M 172 40 L 172 44 L 172 48 L 176 48 L 176 44 L 176 40 L 172 40 z M 176 48 L 176 52 L 176 56 L 180 56 L 180 52 L 180 48 L 176 48 z M 180 56 L 180 60 L 180 64 L 184 64 L 184 60 L 184 56 L 180 56 z M 184 64 L 184 68 L 184 72 L 184 76 L 188 76 L 188 72 L 188 68 L 188 64 L 184 64 z M 188 76 L 188 80 L 188 84 L 188 88 L 188 92 L 188 96 L 188 100 L 188 104 L 188 108 L 188 112 L 188 116 L 192 116 L 192 112 L 192 108 L 192 104 L 192 100 L 192 96 L 192 92 L 192 88 L 192 84 L 192 80 L 192 76 L 188 76 z M 188 116 L 184 116 L 184 120 L 184 124 L 184 128 L 188 128 L 188 124 L 188 120 L 188 116 z M 184 128 L 180 128 L 180 132 L 180 136 L 184 136 L 184 132 L 184 128 z M 180 136 L 176 136 L 176 140 L 176 144 L 180 144 L 180 140 L 180 136 z M 176 144 L 172 144 L 172 148 L 168 148 L 164 148 L 164 152 L 168 152 L 168 156 L 172 156 L 172 152 L 176 152 L 176 148 L 176 144 z M 172 156 L 172 160 L 176 160 L 176 156 L 172 156 z M 176 160 L 176 164 L 180 164 L 180 160 L 176 160 z M 180 164 L 180 168 L 184 168 L 184 164 L 180 164 z M 184 168 L 184 172 L 188 172 L 188 168 L 184 168 z M 188 172 L 188 176 L 188 180 L 188 184 L 192 184 L 192 180 L 192 176 L 192 172 L 188 172 z M 188 184 L 184 184 L 184 188 L 188 188 L 188 184 z M 184 188 L 180 188 L 176 188 L 172 188 L 172 192 L 176 192 L 180 192 L 184 192 L 184 188 z M 164 148 L 164 144 L 160 144 L 160 148 L 164 148 z M 160 144 L 160 140 L 156 140 L 156 144 L 160 144 z M 156 140 L 156 136 L 156 132 L 156 128 L 156 124 L 152 124 L 152 128 L 152 132 L 148 132 L 148 136 L 152 136 L 152 140 L 156 140 z M 148 136 L 144 136 L 144 140 L 148 140 L 148 136 z M 144 140 L 140 140 L 140 144 L 144 144 L 144 140 z M 140 144 L 136 144 L 132 144 L 132 148 L 136 148 L 140 148 L 140 144 z M 132 148 L 128 148 L 124 148 L 120 148 L 116 148 L 112 148 L 108 148 L 108 152 L 112 152 L 116 152 L 120 152 L 124 152 L 128 152 L 132 152 L 132 148 z M 108 148 L 108 144 L 104 144 L 100 144 L 100 148 L 104 148 L 108 148 z M 156 124 L 160 124 L 160 120 L 160 116 L 160 112 L 160 108 L 160 104 L 160 100 L 156 100 L 156 104 L 156 108 L 156 112 L 156 116 L 156 120 L 156 124 z M 156 100 L 156 96 L 156 92 L 152 92 L 152 96 L 152 100 L 156 100 z M 152 92 L 152 88 L 148 88 L 148 92 L 152 92 z M 148 88 L 148 84 L 144 84 L 144 88 L 148 88 z M 144 84 L 144 80 L 140 80 L 140 84 L 144 84 z M 36 168 L 36 172 L 40 172 L 40 168 L 36 168 z M 40 172 L 40 176 L 44 176 L 48 176 L 48 172 L 44 172 L 40 172 z M 48 176 L 48 180 L 52 180 L 56 180 L 56 176 L 52 176 L 48 176 z M 56 180 L 56 184 L 60 184 L 64 184 L 64 180 L 60 180 L 56 180 z M 64 184 L 64 188 L 68 188 L 72 188 L 76 188 L 76 184 L 72 184 L 68 184 L 64 184 z M 76 188 L 76 192 L 80 192 L 84 192 L 88 192 L 92 192 L 96 192 L 100 192 L 104 192 L 108 192 L 112 192 L 116 192 L 116 188 L 112 188 L 108 188 L 104 188 L 100 188 L 96 188 L 92 188 L 88 188 L 84 188 L 80 188 L 76 188 z M 116 188 L 120 188 L 124 188 L 128 188 L 128 184 L 124 184 L 120 184 L 116 184 L 116 188 z M 128 184 L 132 184 L 136 184 L 136 180 L 132 180 L 128 180 L 128 184 z M 136 180 L 140 180 L 144 180 L 144 176 L 140 176 L 136 176 L 136 180 z M 144 176 L 148 176 L 152 176 L 152 172 L 148 172 L 144 172 L 144 176 z "
     id="rect3710" />
</svg>
