<?xml version="1.0" encoding="UTF-8" standalone="no"?>
<svg
   xmlns:dc="http://purl.org/dc/elements/1.1/"
   xmlns:cc="http://creativecommons.org/ns#"
   xmlns:rdf="http://www.w3.org/1999/02/22-rdf-syntax-ns#"
   xmlns:svg="http://www.w3.org/2000/svg"
   xmlns="http://www.w3.org/2000/svg"
   height="192px"
   version="1.1"
   width="192px"
   id="svg3762">
  <metadata
     id="metadata3766">
    <rdf:RDF>
      <cc:Work
         rdf:about="">
        <dc:format>image/svg+xml</dc:format>
        <dc:type
           rdf:resource="http://purl.org/dc/dcmitype/StillImage" />
      </cc:Work>
    </rdf:RDF>
  </metadata>
  <defs
     id="defs2" />
  <path
     id="rect1868"
     d="M 108 92 L 108 96 L 108 100 L 112 100 L 116 100 L 116 96 L 116 92 L 112 92 L 108 92 z M 148 92 L 148 96 L 148 100 L 152 100 L 156 100 L 156 96 L 156 92 L 152 92 L 148 92 z "
     style="fill:#00ffff" />
  <path
     id="rect1960"
     d="M 144 88 L 144 92 L 144 96 L 144 100 L 144 104 L 148 104 L 148 100 L 148 96 L 148 92 L 152 92 L 156 92 L 156 88 L 152 88 L 148 88 L 144 88 z "
     style="fill:#0000ff" />
  <path
     id="rect2040"
     d="M 104 88 L 104 92 L 104 96 L 100 96 L 100 100 L 100 104 L 96 104 L 96 108 L 100 108 L 104 108 L 108 108 L 112 108 L 116 108 L 116 104 L 116 100 L 112 100 L 108 100 L 108 96 L 108 92 L 112 92 L 116 92 L 116 96 L 116 100 L 120 100 L 120 96 L 120 92 L 120 88 L 116 88 L 112 88 L 108 88 L 104 88 z "
     style="fill:#008080" />
  <path
     id="rect2138"
     d="M 32 56 L 32 60 L 32 64 L 32 68 L 32 72 L 36 72 L 40 72 L 44 72 L 48 72 L 52 72 L 56 72 L 60 72 L 64 72 L 68 72 L 72 72 L 76 72 L 80 72 L 84 72 L 88 72 L 92 72 L 96 72 L 100 72 L 104 72 L 108 72 L 112 72 L 116 72 L 120 72 L 124 72 L 128 72 L 132 72 L 136 72 L 140 72 L 144 72 L 148 72 L 152 72 L 156 72 L 160 72 L 164 72 L 168 72 L 172 72 L 176 72 L 180 72 L 184 72 L 188 72 L 188 68 L 188 64 L 188 60 L 188 56 L 184 56 L 180 56 L 176 56 L 172 56 L 168 56 L 164 56 L 160 56 L 156 56 L 152 56 L 148 56 L 144 56 L 140 56 L 136 56 L 132 56 L 128 56 L 124 56 L 120 56 L 116 56 L 112 56 L 108 56 L 104 56 L 100 56 L 96 56 L 92 56 L 88 56 L 84 56 L 80 56 L 76 56 L 72 56 L 68 56 L 64 56 L 60 56 L 56 56 L 52 56 L 48 56 L 44 56 L 40 56 L 36 56 L 32 56 z M 36 60 L 40 60 L 44 60 L 48 60 L 48 64 L 48 68 L 44 68 L 40 68 L 36 68 L 36 64 L 36 60 z M 148 60 L 152 60 L 156 60 L 156 64 L 156 68 L 152 68 L 148 68 L 148 64 L 148 60 z M 160 60 L 164 60 L 168 60 L 168 64 L 168 68 L 164 68 L 160 68 L 160 64 L 160 60 z M 172 60 L 176 60 L 180 60 L 180 64 L 180 68 L 176 68 L 172 68 L 172 64 L 172 60 z M 156 88 L 156 92 L 156 96 L 156 100 L 152 100 L 148 100 L 148 104 L 144 104 L 140 104 L 140 108 L 144 108 L 148 108 L 152 108 L 156 108 L 160 108 L 164 108 L 164 104 L 164 100 L 164 96 L 164 92 L 164 88 L 160 88 L 156 88 z M 116 100 L 116 104 L 116 108 L 112 108 L 108 108 L 104 108 L 100 108 L 100 112 L 104 112 L 108 112 L 112 112 L 116 112 L 120 112 L 120 108 L 120 104 L 120 100 L 116 100 z "
     style="fill:#000080" />
  <path
     id="rect2902"
     d="M 20 12 L 20 16 L 24 16 L 24 12 L 20 12 z M 24 16 L 24 20 L 28 20 L 28 16 L 24 16 z M 28 16 L 32 16 L 32 12 L 28 12 L 28 16 z M 32 16 L 32 20 L 36 20 L 36 16 L 32 16 z M 36 16 L 40 16 L 40 12 L 36 12 L 36 16 z M 40 16 L 40 20 L 44 20 L 44 16 L 40 16 z M 44 16 L 48 16 L 48 12 L 44 12 L 44 16 z M 48 16 L 48 20 L 52 20 L 52 16 L 48 16 z M 52 16 L 56 16 L 56 12 L 52 12 L 52 16 z M 56 16 L 56 20 L 60 20 L 60 16 L 56 16 z M 60 16 L 64 16 L 64 12 L 60 12 L 60 16 z M 64 16 L 64 20 L 68 20 L 68 16 L 64 16 z M 68 20 L 68 24 L 72 24 L 72 20 L 68 20 z M 64 20 L 60 20 L 60 24 L 64 24 L 64 20 z M 56 20 L 52 20 L 52 24 L 56 24 L 56 20 z M 48 20 L 44 20 L 44 24 L 48 24 L 48 20 z M 40 20 L 36 20 L 36 24 L 40 24 L 40 20 z M 32 20 L 28 20 L 28 24 L 32 24 L 32 20 z M 24 20 L 20 20 L 20 24 L 24 24 L 24 20 z M 20 20 L 20 16 L 16 16 L 16 20 L 20 20 z M 16 20 L 12 20 L 12 24 L 16 24 L 16 20 z M 8 32 L 8 36 L 12 36 L 12 32 L 8 32 z M 12 36 L 12 40 L 16 40 L 16 36 L 12 36 z M 16 36 L 20 36 L 20 32 L 16 32 L 16 36 z M 20 36 L 20 40 L 24 40 L 24 36 L 20 36 z M 24 36 L 28 36 L 28 32 L 24 32 L 24 36 z M 28 36 L 28 40 L 32 40 L 32 36 L 28 36 z M 32 36 L 36 36 L 36 32 L 32 32 L 32 36 z M 36 36 L 36 40 L 40 40 L 40 36 L 36 36 z M 40 36 L 44 36 L 44 32 L 40 32 L 40 36 z M 44 36 L 44 40 L 48 40 L 48 36 L 44 36 z M 48 36 L 52 36 L 52 32 L 48 32 L 48 36 z M 52 36 L 52 40 L 56 40 L 56 36 L 52 36 z M 56 36 L 60 36 L 60 32 L 56 32 L 56 36 z M 60 36 L 60 40 L 64 40 L 64 36 L 60 36 z M 64 36 L 68 36 L 68 32 L 64 32 L 64 36 z M 68 36 L 68 40 L 72 40 L 72 36 L 68 36 z M 72 36 L 76 36 L 76 32 L 72 32 L 72 36 z M 76 36 L 76 40 L 80 40 L 80 36 L 76 36 z M 80 36 L 84 36 L 84 32 L 80 32 L 80 36 z M 84 36 L 84 40 L 88 40 L 88 36 L 84 36 z M 88 36 L 92 36 L 92 32 L 88 32 L 88 36 z M 92 36 L 92 40 L 96 40 L 96 36 L 92 36 z M 96 36 L 100 36 L 100 32 L 96 32 L 96 36 z M 100 36 L 100 40 L 104 40 L 104 36 L 100 36 z M 104 36 L 108 36 L 108 32 L 104 32 L 104 36 z M 108 36 L 108 40 L 112 40 L 112 36 L 108 36 z M 112 36 L 116 36 L 116 32 L 112 32 L 112 36 z M 116 36 L 116 40 L 120 40 L 120 36 L 116 36 z M 120 36 L 124 36 L 124 32 L 120 32 L 120 36 z M 124 36 L 124 40 L 128 40 L 128 36 L 124 36 z M 128 36 L 132 36 L 132 32 L 128 32 L 128 36 z M 132 36 L 132 40 L 136 40 L 136 36 L 132 36 z M 136 36 L 140 36 L 140 32 L 136 32 L 136 36 z M 140 36 L 140 40 L 144 40 L 144 36 L 140 36 z M 144 36 L 148 36 L 148 32 L 144 32 L 144 36 z M 148 36 L 148 40 L 152 40 L 152 36 L 148 36 z M 152 36 L 156 36 L 156 32 L 152 32 L 152 36 z M 156 36 L 156 40 L 160 40 L 160 36 L 156 36 z M 156 40 L 152 40 L 152 44 L 156 44 L 156 40 z M 156 44 L 156 48 L 160 48 L 160 44 L 156 44 z M 156 48 L 152 48 L 152 52 L 156 52 L 156 48 z M 152 48 L 152 44 L 148 44 L 148 48 L 152 48 z M 148 48 L 144 48 L 144 52 L 148 52 L 148 48 z M 144 48 L 144 44 L 140 44 L 140 48 L 144 48 z M 140 48 L 136 48 L 136 52 L 140 52 L 140 48 z M 136 48 L 136 44 L 132 44 L 132 48 L 136 48 z M 132 48 L 128 48 L 128 52 L 132 52 L 132 48 z M 128 48 L 128 44 L 124 44 L 124 48 L 128 48 z M 124 48 L 120 48 L 120 52 L 124 52 L 124 48 z M 120 48 L 120 44 L 116 44 L 116 48 L 120 48 z M 116 48 L 112 48 L 112 52 L 116 52 L 116 48 z M 112 48 L 112 44 L 108 44 L 108 48 L 112 48 z M 108 48 L 104 48 L 104 52 L 108 52 L 108 48 z M 104 48 L 104 44 L 100 44 L 100 48 L 104 48 z M 100 48 L 96 48 L 96 52 L 100 52 L 100 48 z M 96 48 L 96 44 L 92 44 L 92 48 L 96 48 z M 92 48 L 88 48 L 88 52 L 92 52 L 92 48 z M 88 48 L 88 44 L 84 44 L 84 48 L 88 48 z M 84 48 L 80 48 L 80 52 L 84 52 L 84 48 z M 80 48 L 80 44 L 76 44 L 76 48 L 80 48 z M 76 48 L 72 48 L 72 52 L 76 52 L 76 48 z M 72 48 L 72 44 L 68 44 L 68 48 L 72 48 z M 68 48 L 64 48 L 64 52 L 68 52 L 68 48 z M 64 48 L 64 44 L 60 44 L 60 48 L 64 48 z M 60 48 L 56 48 L 56 52 L 60 52 L 60 48 z M 56 48 L 56 44 L 52 44 L 52 48 L 56 48 z M 52 48 L 48 48 L 48 52 L 52 52 L 52 48 z M 48 48 L 48 44 L 44 44 L 44 48 L 48 48 z M 44 48 L 40 48 L 40 52 L 44 52 L 44 48 z M 40 48 L 40 44 L 36 44 L 36 48 L 40 48 z M 36 48 L 32 48 L 32 52 L 36 52 L 36 48 z M 32 48 L 32 44 L 28 44 L 28 48 L 32 48 z M 28 48 L 24 48 L 24 52 L 28 52 L 28 48 z M 24 52 L 20 52 L 20 56 L 24 56 L 24 52 z M 24 56 L 24 60 L 28 60 L 28 56 L 24 56 z M 24 60 L 20 60 L 20 64 L 24 64 L 24 60 z M 24 64 L 24 68 L 28 68 L 28 64 L 24 64 z M 24 68 L 20 68 L 20 72 L 24 72 L 24 68 z M 24 72 L 24 76 L 28 76 L 28 72 L 24 72 z M 24 76 L 20 76 L 20 80 L 24 80 L 24 76 z M 24 80 L 24 84 L 28 84 L 28 80 L 24 80 z M 24 84 L 20 84 L 20 88 L 24 88 L 24 84 z M 24 88 L 24 92 L 28 92 L 28 88 L 24 88 z M 24 92 L 20 92 L 20 96 L 24 96 L 24 92 z M 24 96 L 24 100 L 28 100 L 28 96 L 24 96 z M 24 100 L 20 100 L 20 104 L 24 104 L 24 100 z M 24 104 L 24 108 L 28 108 L 28 104 L 24 104 z M 24 108 L 20 108 L 20 112 L 24 112 L 24 108 z M 24 112 L 24 116 L 28 116 L 28 112 L 24 112 z M 24 116 L 20 116 L 20 120 L 24 120 L 24 116 z M 24 120 L 24 124 L 28 124 L 28 120 L 24 120 z M 24 124 L 20 124 L 20 128 L 24 128 L 24 124 z M 24 128 L 24 132 L 28 132 L 28 128 L 24 128 z M 24 132 L 20 132 L 20 136 L 24 136 L 24 132 z M 20 132 L 20 128 L 16 128 L 16 132 L 20 132 z M 16 132 L 12 132 L 12 136 L 16 136 L 16 132 z M 12 132 L 12 128 L 8 128 L 8 132 L 12 132 z M 12 128 L 16 128 L 16 124 L 12 124 L 12 128 z M 12 124 L 12 120 L 8 120 L 8 124 L 12 124 z M 12 120 L 16 120 L 16 116 L 12 116 L 12 120 z M 12 116 L 12 112 L 8 112 L 8 116 L 12 116 z M 12 112 L 16 112 L 16 108 L 12 108 L 12 112 z M 12 108 L 12 104 L 8 104 L 8 108 L 12 108 z M 12 104 L 16 104 L 16 100 L 12 100 L 12 104 z M 12 100 L 12 96 L 8 96 L 8 100 L 12 100 z M 12 96 L 16 96 L 16 92 L 12 92 L 12 96 z M 12 92 L 12 88 L 8 88 L 8 92 L 12 92 z M 12 88 L 16 88 L 16 84 L 12 84 L 12 88 z M 12 84 L 12 80 L 8 80 L 8 84 L 12 84 z M 12 80 L 16 80 L 16 76 L 12 76 L 12 80 z M 12 76 L 12 72 L 8 72 L 8 76 L 12 76 z M 12 72 L 16 72 L 16 68 L 12 68 L 12 72 z M 12 68 L 12 64 L 8 64 L 8 68 L 12 68 z M 12 64 L 16 64 L 16 60 L 12 60 L 12 64 z M 12 60 L 12 56 L 8 56 L 8 60 L 12 60 z M 12 56 L 16 56 L 16 52 L 12 52 L 12 56 z M 12 52 L 12 48 L 8 48 L 8 52 L 12 52 z M 12 48 L 16 48 L 16 44 L 12 44 L 12 48 z M 12 44 L 12 40 L 8 40 L 8 44 L 12 44 z M 16 44 L 20 44 L 20 40 L 16 40 L 16 44 z M 20 44 L 20 48 L 24 48 L 24 44 L 20 44 z M 24 44 L 28 44 L 28 40 L 24 40 L 24 44 z M 20 48 L 16 48 L 16 52 L 20 52 L 20 48 z M 16 56 L 16 60 L 20 60 L 20 56 L 16 56 z M 16 64 L 16 68 L 20 68 L 20 64 L 16 64 z M 16 72 L 16 76 L 20 76 L 20 72 L 16 72 z M 16 80 L 16 84 L 20 84 L 20 80 L 16 80 z M 16 88 L 16 92 L 20 92 L 20 88 L 16 88 z M 16 96 L 16 100 L 20 100 L 20 96 L 16 96 z M 16 104 L 16 108 L 20 108 L 20 104 L 16 104 z M 16 112 L 16 116 L 20 116 L 20 112 L 16 112 z M 16 120 L 16 124 L 20 124 L 20 120 L 16 120 z M 32 44 L 36 44 L 36 40 L 32 40 L 32 44 z M 40 44 L 44 44 L 44 40 L 40 40 L 40 44 z M 48 44 L 52 44 L 52 40 L 48 40 L 48 44 z M 56 44 L 60 44 L 60 40 L 56 40 L 56 44 z M 64 44 L 68 44 L 68 40 L 64 40 L 64 44 z M 72 44 L 76 44 L 76 40 L 72 40 L 72 44 z M 80 44 L 84 44 L 84 40 L 80 40 L 80 44 z M 88 44 L 92 44 L 92 40 L 88 40 L 88 44 z M 96 44 L 100 44 L 100 40 L 96 40 L 96 44 z M 104 44 L 108 44 L 108 40 L 104 40 L 104 44 z M 112 44 L 116 44 L 116 40 L 112 40 L 112 44 z M 120 44 L 124 44 L 124 40 L 120 40 L 120 44 z M 128 44 L 132 44 L 132 40 L 128 40 L 128 44 z M 136 44 L 140 44 L 140 40 L 136 40 L 136 44 z M 144 44 L 148 44 L 148 40 L 144 40 L 144 44 z M 36 60 L 36 64 L 40 64 L 40 60 L 36 60 z M 64 92 L 64 96 L 64 100 L 68 100 L 68 96 L 72 96 L 72 92 L 68 92 L 64 92 z M 68 136 L 68 140 L 68 144 L 72 144 L 76 144 L 76 140 L 76 136 L 72 136 L 68 136 z M 108 136 L 108 140 L 108 144 L 112 144 L 116 144 L 116 140 L 116 136 L 112 136 L 108 136 z "
     style="fill:#ffff00" />
  <path
     id="rect3000"
     d="M 60 88 L 60 92 L 60 96 L 60 100 L 64 100 L 64 96 L 64 92 L 68 92 L 72 92 L 72 88 L 68 88 L 64 88 L 60 88 z M 64 100 L 64 104 L 68 104 L 72 104 L 72 100 L 76 100 L 76 96 L 72 96 L 68 96 L 68 100 L 64 100 z M 144 132 L 144 136 L 144 140 L 144 144 L 144 148 L 148 148 L 148 144 L 148 140 L 148 136 L 152 136 L 156 136 L 160 136 L 160 132 L 156 132 L 152 132 L 148 132 L 144 132 z "
     style="fill:#ff0000" />
  <path
     id="rect3046"
     d="M 68 132 L 68 136 L 72 136 L 76 136 L 76 140 L 76 144 L 80 144 L 80 140 L 80 136 L 80 132 L 76 132 L 72 132 L 68 132 z M 76 144 L 72 144 L 68 144 L 68 148 L 68 152 L 72 152 L 76 152 L 76 148 L 76 144 z M 68 144 L 68 140 L 68 136 L 64 136 L 64 140 L 60 140 L 60 144 L 64 144 L 68 144 z "
     style="fill:#ff00ff" />
  <path
     id="rect3048"
     d="M 60 144 L 60 148 L 56 148 L 56 152 L 60 152 L 64 152 L 68 152 L 68 148 L 68 144 L 64 144 L 60 144 z M 76 144 L 76 148 L 76 152 L 80 152 L 80 148 L 80 144 L 76 144 z "
     style="fill:#800080" />
  <path
     id="rect3066"
     d="M 160 32 L 160 36 L 160 40 L 160 44 L 160 48 L 160 52 L 164 52 L 164 48 L 164 44 L 164 40 L 164 36 L 164 32 L 160 32 z M 104 132 L 104 136 L 104 140 L 100 140 L 100 144 L 100 148 L 96 148 L 96 152 L 100 152 L 104 152 L 108 152 L 112 152 L 116 152 L 116 148 L 116 144 L 112 144 L 108 144 L 108 140 L 108 136 L 112 136 L 116 136 L 116 140 L 116 144 L 120 144 L 120 140 L 120 136 L 120 132 L 116 132 L 112 132 L 108 132 L 104 132 z M 4 136 L 4 140 L 8 140 L 12 140 L 16 140 L 20 140 L 24 140 L 28 140 L 28 136 L 24 136 L 20 136 L 16 136 L 12 136 L 8 136 L 4 136 z "
     style="fill:#808000" />
  <path
     id="rect3090"
     d="M 72 88 L 72 92 L 72 96 L 76 96 L 76 100 L 72 100 L 72 104 L 68 104 L 64 104 L 64 100 L 60 100 L 60 104 L 56 104 L 56 108 L 60 108 L 64 108 L 68 108 L 72 108 L 76 108 L 80 108 L 80 104 L 80 100 L 80 96 L 80 92 L 80 88 L 76 88 L 72 88 z M 160 132 L 160 136 L 156 136 L 156 140 L 156 144 L 152 144 L 148 144 L 148 148 L 144 148 L 140 148 L 140 152 L 144 152 L 148 152 L 152 152 L 156 152 L 160 152 L 164 152 L 164 148 L 164 144 L 164 140 L 164 136 L 164 132 L 160 132 z "
     style="fill:#800000" />
  <path
     id="rect3592"
     d="M 20 8 L 20 12 L 24 12 L 28 12 L 32 12 L 36 12 L 40 12 L 44 12 L 48 12 L 52 12 L 56 12 L 60 12 L 64 12 L 64 8 L 60 8 L 56 8 L 52 8 L 48 8 L 44 8 L 40 8 L 36 8 L 32 8 L 28 8 L 24 8 L 20 8 z M 20 12 L 16 12 L 16 16 L 20 16 L 20 12 z M 16 16 L 12 16 L 12 20 L 16 20 L 16 16 z M 12 20 L 8 20 L 8 24 L 12 24 L 12 20 z M 4 28 L 4 32 L 4 36 L 4 40 L 4 44 L 4 48 L 4 52 L 4 56 L 4 60 L 4 64 L 4 68 L 4 72 L 4 76 L 4 80 L 4 84 L 4 88 L 4 92 L 4 96 L 4 100 L 4 104 L 4 108 L 4 112 L 4 116 L 4 120 L 4 124 L 4 128 L 4 132 L 4 136 L 8 136 L 8 132 L 8 128 L 8 124 L 8 120 L 8 116 L 8 112 L 8 108 L 8 104 L 8 100 L 8 96 L 8 92 L 8 88 L 8 84 L 8 80 L 8 76 L 8 72 L 8 68 L 8 64 L 8 60 L 8 56 L 8 52 L 8 48 L 8 44 L 8 40 L 8 36 L 8 32 L 12 32 L 16 32 L 20 32 L 24 32 L 28 32 L 32 32 L 36 32 L 40 32 L 44 32 L 48 32 L 52 32 L 56 32 L 60 32 L 64 32 L 68 32 L 72 32 L 76 32 L 80 32 L 84 32 L 88 32 L 92 32 L 96 32 L 100 32 L 104 32 L 108 32 L 112 32 L 116 32 L 120 32 L 124 32 L 128 32 L 132 32 L 136 32 L 140 32 L 144 32 L 148 32 L 152 32 L 156 32 L 160 32 L 160 28 L 156 28 L 152 28 L 148 28 L 144 28 L 140 28 L 136 28 L 132 28 L 128 28 L 124 28 L 120 28 L 116 28 L 112 28 L 108 28 L 104 28 L 100 28 L 96 28 L 92 28 L 88 28 L 84 28 L 80 28 L 76 28 L 72 28 L 68 28 L 64 28 L 60 28 L 56 28 L 52 28 L 48 28 L 44 28 L 40 28 L 36 28 L 32 28 L 28 28 L 24 28 L 20 28 L 16 28 L 12 28 L 8 28 L 4 28 z M 148 60 L 148 64 L 152 64 L 152 60 L 148 60 z M 160 60 L 160 64 L 164 64 L 164 60 L 160 60 z M 172 60 L 172 64 L 176 64 L 176 60 L 172 60 z M 36 80 L 36 84 L 36 88 L 36 92 L 36 96 L 36 100 L 36 104 L 36 108 L 36 112 L 36 116 L 36 120 L 36 124 L 36 128 L 36 132 L 36 136 L 36 140 L 36 144 L 36 148 L 36 152 L 36 156 L 36 160 L 36 164 L 36 168 L 36 172 L 36 176 L 40 176 L 44 176 L 48 176 L 52 176 L 56 176 L 60 176 L 64 176 L 68 176 L 72 176 L 76 176 L 80 176 L 84 176 L 88 176 L 92 176 L 96 176 L 100 176 L 104 176 L 108 176 L 112 176 L 116 176 L 120 176 L 124 176 L 128 176 L 132 176 L 136 176 L 140 176 L 144 176 L 148 176 L 152 176 L 156 176 L 160 176 L 164 176 L 168 176 L 172 176 L 176 176 L 180 176 L 184 176 L 184 172 L 184 168 L 184 164 L 184 160 L 184 156 L 184 152 L 184 148 L 184 144 L 184 140 L 184 136 L 184 132 L 184 128 L 184 124 L 184 120 L 184 116 L 184 112 L 184 108 L 184 104 L 184 100 L 184 96 L 184 92 L 184 88 L 184 84 L 184 80 L 180 80 L 176 80 L 172 80 L 168 80 L 164 80 L 160 80 L 156 80 L 152 80 L 148 80 L 144 80 L 140 80 L 136 80 L 132 80 L 128 80 L 124 80 L 120 80 L 116 80 L 112 80 L 108 80 L 104 80 L 100 80 L 96 80 L 92 80 L 88 80 L 84 80 L 80 80 L 76 80 L 72 80 L 68 80 L 64 80 L 60 80 L 56 80 L 52 80 L 48 80 L 44 80 L 40 80 L 36 80 z M 60 88 L 64 88 L 68 88 L 72 88 L 76 88 L 80 88 L 80 92 L 80 96 L 80 100 L 80 104 L 80 108 L 80 112 L 76 112 L 72 112 L 68 112 L 64 112 L 60 112 L 60 108 L 56 108 L 56 104 L 60 104 L 60 100 L 60 96 L 60 92 L 60 88 z M 104 88 L 108 88 L 112 88 L 116 88 L 120 88 L 120 92 L 120 96 L 120 100 L 120 104 L 120 108 L 120 112 L 116 112 L 112 112 L 108 112 L 104 112 L 100 112 L 100 108 L 96 108 L 96 104 L 100 104 L 100 100 L 100 96 L 104 96 L 104 92 L 104 88 z M 144 88 L 148 88 L 152 88 L 156 88 L 160 88 L 164 88 L 164 92 L 164 96 L 164 100 L 164 104 L 164 108 L 164 112 L 160 112 L 156 112 L 152 112 L 148 112 L 144 112 L 144 108 L 140 108 L 140 104 L 144 104 L 144 100 L 144 96 L 144 92 L 144 88 z M 56 120 L 60 120 L 64 120 L 68 120 L 72 120 L 76 120 L 80 120 L 80 124 L 76 124 L 72 124 L 68 124 L 64 124 L 60 124 L 56 124 L 56 120 z M 96 120 L 100 120 L 104 120 L 108 120 L 112 120 L 116 120 L 120 120 L 120 124 L 116 124 L 112 124 L 108 124 L 104 124 L 100 124 L 96 124 L 96 120 z M 140 120 L 144 120 L 148 120 L 152 120 L 156 120 L 160 120 L 164 120 L 164 124 L 160 124 L 156 124 L 152 124 L 148 124 L 144 124 L 140 124 L 140 120 z M 68 132 L 72 132 L 76 132 L 80 132 L 80 136 L 80 140 L 80 144 L 80 148 L 80 152 L 80 156 L 76 156 L 72 156 L 68 156 L 64 156 L 60 156 L 60 152 L 56 152 L 56 148 L 60 148 L 60 144 L 60 140 L 64 140 L 64 136 L 68 136 L 68 132 z M 104 132 L 108 132 L 112 132 L 116 132 L 120 132 L 120 136 L 120 140 L 120 144 L 120 148 L 120 152 L 120 156 L 116 156 L 112 156 L 108 156 L 104 156 L 100 156 L 100 152 L 96 152 L 96 148 L 100 148 L 100 144 L 100 140 L 104 140 L 104 136 L 104 132 z M 144 132 L 148 132 L 152 132 L 156 132 L 160 132 L 164 132 L 164 136 L 164 140 L 164 144 L 164 148 L 164 152 L 164 156 L 160 156 L 156 156 L 152 156 L 148 156 L 144 156 L 144 152 L 140 152 L 140 148 L 144 148 L 144 144 L 144 140 L 144 136 L 144 132 z M 148 136 L 148 140 L 148 144 L 152 144 L 156 144 L 156 140 L 156 136 L 152 136 L 148 136 z M 56 164 L 60 164 L 64 164 L 68 164 L 72 164 L 76 164 L 80 164 L 80 168 L 76 168 L 72 168 L 68 168 L 64 168 L 60 168 L 56 168 L 56 164 z M 96 164 L 100 164 L 104 164 L 108 164 L 112 164 L 116 164 L 120 164 L 120 168 L 116 168 L 112 168 L 108 168 L 104 168 L 100 168 L 96 168 L 96 164 z M 140 164 L 144 164 L 148 164 L 152 164 L 156 164 L 160 164 L 164 164 L 164 168 L 160 168 L 156 168 L 152 168 L 148 168 L 144 168 L 140 168 L 140 164 z "
     style="fill:#ffffff" />
  <path
     id="rect3598"
     d="M 20 4 L 20 8 L 24 8 L 28 8 L 32 8 L 36 8 L 40 8 L 44 8 L 48 8 L 52 8 L 56 8 L 60 8 L 64 8 L 64 4 L 60 4 L 56 4 L 52 4 L 48 4 L 44 4 L 40 4 L 36 4 L 32 4 L 28 4 L 24 4 L 20 4 z M 64 8 L 64 12 L 68 12 L 68 8 L 64 8 z M 68 12 L 68 16 L 72 16 L 72 12 L 68 12 z M 72 16 L 72 20 L 76 20 L 76 16 L 72 16 z M 76 20 L 76 24 L 80 24 L 80 20 L 76 20 z M 80 24 L 80 28 L 84 28 L 88 28 L 92 28 L 96 28 L 100 28 L 104 28 L 108 28 L 112 28 L 116 28 L 120 28 L 124 28 L 128 28 L 132 28 L 136 28 L 140 28 L 144 28 L 148 28 L 152 28 L 156 28 L 160 28 L 160 24 L 156 24 L 152 24 L 148 24 L 144 24 L 140 24 L 136 24 L 132 24 L 128 24 L 124 24 L 120 24 L 116 24 L 112 24 L 108 24 L 104 24 L 100 24 L 96 24 L 92 24 L 88 24 L 84 24 L 80 24 z M 20 8 L 16 8 L 16 12 L 20 12 L 20 8 z M 16 12 L 12 12 L 12 16 L 16 16 L 16 12 z M 12 16 L 8 16 L 8 20 L 12 20 L 12 16 z M 8 20 L 4 20 L 4 24 L 0 24 L 0 28 L 0 32 L 0 36 L 0 40 L 0 44 L 0 48 L 0 52 L 0 56 L 0 60 L 0 64 L 0 68 L 0 72 L 0 76 L 0 80 L 0 84 L 0 88 L 0 92 L 0 96 L 0 100 L 0 104 L 0 108 L 0 112 L 0 116 L 0 120 L 0 124 L 0 128 L 0 132 L 0 136 L 0 140 L 4 140 L 4 136 L 4 132 L 4 128 L 4 124 L 4 120 L 4 116 L 4 112 L 4 108 L 4 104 L 4 100 L 4 96 L 4 92 L 4 88 L 4 84 L 4 80 L 4 76 L 4 72 L 4 68 L 4 64 L 4 60 L 4 56 L 4 52 L 4 48 L 4 44 L 4 40 L 4 36 L 4 32 L 4 28 L 8 28 L 8 24 L 8 20 z M 28 52 L 28 56 L 28 60 L 28 64 L 28 68 L 28 72 L 28 76 L 28 80 L 28 84 L 28 88 L 28 92 L 28 96 L 28 100 L 28 104 L 28 108 L 28 112 L 28 116 L 28 120 L 28 124 L 28 128 L 28 132 L 28 136 L 28 140 L 28 144 L 28 148 L 28 152 L 28 156 L 28 160 L 28 164 L 28 168 L 28 172 L 28 176 L 28 180 L 32 180 L 32 176 L 32 172 L 32 168 L 32 164 L 32 160 L 32 156 L 32 152 L 32 148 L 32 144 L 32 140 L 32 136 L 32 132 L 32 128 L 32 124 L 32 120 L 32 116 L 32 112 L 32 108 L 32 104 L 32 100 L 32 96 L 32 92 L 32 88 L 32 84 L 32 80 L 32 76 L 36 76 L 40 76 L 44 76 L 48 76 L 52 76 L 56 76 L 60 76 L 64 76 L 68 76 L 72 76 L 76 76 L 80 76 L 84 76 L 88 76 L 92 76 L 96 76 L 100 76 L 104 76 L 108 76 L 112 76 L 116 76 L 120 76 L 124 76 L 128 76 L 132 76 L 136 76 L 140 76 L 144 76 L 148 76 L 152 76 L 156 76 L 160 76 L 164 76 L 168 76 L 172 76 L 176 76 L 180 76 L 184 76 L 188 76 L 188 72 L 184 72 L 180 72 L 176 72 L 172 72 L 168 72 L 164 72 L 160 72 L 156 72 L 152 72 L 148 72 L 144 72 L 140 72 L 136 72 L 132 72 L 128 72 L 124 72 L 120 72 L 116 72 L 112 72 L 108 72 L 104 72 L 100 72 L 96 72 L 92 72 L 88 72 L 84 72 L 80 72 L 76 72 L 72 72 L 68 72 L 64 72 L 60 72 L 56 72 L 52 72 L 48 72 L 44 72 L 40 72 L 36 72 L 32 72 L 32 68 L 32 64 L 32 60 L 32 56 L 36 56 L 40 56 L 44 56 L 48 56 L 52 56 L 56 56 L 60 56 L 64 56 L 68 56 L 72 56 L 76 56 L 80 56 L 84 56 L 88 56 L 92 56 L 96 56 L 100 56 L 104 56 L 108 56 L 112 56 L 116 56 L 120 56 L 124 56 L 128 56 L 132 56 L 136 56 L 140 56 L 144 56 L 148 56 L 152 56 L 156 56 L 160 56 L 164 56 L 168 56 L 172 56 L 176 56 L 180 56 L 184 56 L 188 56 L 188 52 L 184 52 L 180 52 L 176 52 L 172 52 L 168 52 L 164 52 L 160 52 L 156 52 L 152 52 L 148 52 L 144 52 L 140 52 L 136 52 L 132 52 L 128 52 L 124 52 L 120 52 L 116 52 L 112 52 L 108 52 L 104 52 L 100 52 L 96 52 L 92 52 L 88 52 L 84 52 L 80 52 L 76 52 L 72 52 L 68 52 L 64 52 L 60 52 L 56 52 L 52 52 L 48 52 L 44 52 L 40 52 L 36 52 L 32 52 L 28 52 z M 56 120 L 56 124 L 60 124 L 64 124 L 68 124 L 72 124 L 76 124 L 80 124 L 80 120 L 76 120 L 72 120 L 68 120 L 64 120 L 60 120 L 56 120 z M 96 120 L 96 124 L 100 124 L 104 124 L 108 124 L 112 124 L 116 124 L 120 124 L 120 120 L 116 120 L 112 120 L 108 120 L 104 120 L 100 120 L 96 120 z M 140 120 L 140 124 L 144 124 L 148 124 L 152 124 L 156 124 L 160 124 L 164 124 L 164 120 L 160 120 L 156 120 L 152 120 L 148 120 L 144 120 L 140 120 z M 56 164 L 56 168 L 60 168 L 64 168 L 68 168 L 72 168 L 76 168 L 80 168 L 80 164 L 76 164 L 72 164 L 68 164 L 64 164 L 60 164 L 56 164 z M 96 164 L 96 168 L 100 168 L 104 168 L 108 168 L 112 168 L 116 168 L 120 168 L 120 164 L 116 164 L 112 164 L 108 164 L 104 164 L 100 164 L 96 164 z M 140 164 L 140 168 L 144 168 L 148 168 L 152 168 L 156 168 L 160 168 L 164 168 L 164 164 L 160 164 L 156 164 L 152 164 L 148 164 L 144 164 L 140 164 z "
     style="fill:#808080" />
  <path
     id="rect3676"
     d="M 24 12 L 24 16 L 28 16 L 28 12 L 24 12 z M 28 16 L 28 20 L 32 20 L 32 16 L 28 16 z M 32 16 L 36 16 L 36 12 L 32 12 L 32 16 z M 36 16 L 36 20 L 40 20 L 40 16 L 36 16 z M 40 16 L 44 16 L 44 12 L 40 12 L 40 16 z M 44 16 L 44 20 L 48 20 L 48 16 L 44 16 z M 48 16 L 52 16 L 52 12 L 48 12 L 48 16 z M 52 16 L 52 20 L 56 20 L 56 16 L 52 16 z M 56 16 L 60 16 L 60 12 L 56 12 L 56 16 z M 60 16 L 60 20 L 64 20 L 64 16 L 60 16 z M 64 16 L 68 16 L 68 12 L 64 12 L 64 16 z M 68 16 L 68 20 L 72 20 L 72 16 L 68 16 z M 72 20 L 72 24 L 68 24 L 68 20 L 64 20 L 64 24 L 60 24 L 60 20 L 56 20 L 56 24 L 52 24 L 52 20 L 48 20 L 48 24 L 44 24 L 44 20 L 40 20 L 40 24 L 36 24 L 36 20 L 32 20 L 32 24 L 28 24 L 28 20 L 24 20 L 24 24 L 20 24 L 20 20 L 16 20 L 16 24 L 12 24 L 8 24 L 8 28 L 12 28 L 16 28 L 20 28 L 24 28 L 28 28 L 32 28 L 36 28 L 40 28 L 44 28 L 48 28 L 52 28 L 56 28 L 60 28 L 64 28 L 68 28 L 72 28 L 76 28 L 80 28 L 80 24 L 76 24 L 76 20 L 72 20 z M 20 20 L 24 20 L 24 16 L 20 16 L 20 20 z M 12 32 L 12 36 L 16 36 L 16 32 L 12 32 z M 16 36 L 16 40 L 20 40 L 20 36 L 16 36 z M 20 36 L 24 36 L 24 32 L 20 32 L 20 36 z M 24 36 L 24 40 L 28 40 L 28 36 L 24 36 z M 28 36 L 32 36 L 32 32 L 28 32 L 28 36 z M 32 36 L 32 40 L 36 40 L 36 36 L 32 36 z M 36 36 L 40 36 L 40 32 L 36 32 L 36 36 z M 40 36 L 40 40 L 44 40 L 44 36 L 40 36 z M 44 36 L 48 36 L 48 32 L 44 32 L 44 36 z M 48 36 L 48 40 L 52 40 L 52 36 L 48 36 z M 52 36 L 56 36 L 56 32 L 52 32 L 52 36 z M 56 36 L 56 40 L 60 40 L 60 36 L 56 36 z M 60 36 L 64 36 L 64 32 L 60 32 L 60 36 z M 64 36 L 64 40 L 68 40 L 68 36 L 64 36 z M 68 36 L 72 36 L 72 32 L 68 32 L 68 36 z M 72 36 L 72 40 L 76 40 L 76 36 L 72 36 z M 76 36 L 80 36 L 80 32 L 76 32 L 76 36 z M 80 36 L 80 40 L 84 40 L 84 36 L 80 36 z M 84 36 L 88 36 L 88 32 L 84 32 L 84 36 z M 88 36 L 88 40 L 92 40 L 92 36 L 88 36 z M 92 36 L 96 36 L 96 32 L 92 32 L 92 36 z M 96 36 L 96 40 L 100 40 L 100 36 L 96 36 z M 100 36 L 104 36 L 104 32 L 100 32 L 100 36 z M 104 36 L 104 40 L 108 40 L 108 36 L 104 36 z M 108 36 L 112 36 L 112 32 L 108 32 L 108 36 z M 112 36 L 112 40 L 116 40 L 116 36 L 112 36 z M 116 36 L 120 36 L 120 32 L 116 32 L 116 36 z M 120 36 L 120 40 L 124 40 L 124 36 L 120 36 z M 124 36 L 128 36 L 128 32 L 124 32 L 124 36 z M 128 36 L 128 40 L 132 40 L 132 36 L 128 36 z M 132 36 L 136 36 L 136 32 L 132 32 L 132 36 z M 136 36 L 136 40 L 140 40 L 140 36 L 136 36 z M 140 36 L 144 36 L 144 32 L 140 32 L 140 36 z M 144 36 L 144 40 L 148 40 L 148 36 L 144 36 z M 148 36 L 152 36 L 152 32 L 148 32 L 148 36 z M 152 36 L 152 40 L 156 40 L 156 36 L 152 36 z M 156 36 L 160 36 L 160 32 L 156 32 L 156 36 z M 156 40 L 156 44 L 160 44 L 160 40 L 156 40 z M 156 44 L 152 44 L 152 48 L 156 48 L 156 44 z M 156 48 L 156 52 L 160 52 L 160 48 L 156 48 z M 152 48 L 148 48 L 148 52 L 152 52 L 152 48 z M 148 48 L 148 44 L 144 44 L 144 48 L 148 48 z M 144 48 L 140 48 L 140 52 L 144 52 L 144 48 z M 140 48 L 140 44 L 136 44 L 136 48 L 140 48 z M 136 48 L 132 48 L 132 52 L 136 52 L 136 48 z M 132 48 L 132 44 L 128 44 L 128 48 L 132 48 z M 128 48 L 124 48 L 124 52 L 128 52 L 128 48 z M 124 48 L 124 44 L 120 44 L 120 48 L 124 48 z M 120 48 L 116 48 L 116 52 L 120 52 L 120 48 z M 116 48 L 116 44 L 112 44 L 112 48 L 116 48 z M 112 48 L 108 48 L 108 52 L 112 52 L 112 48 z M 108 48 L 108 44 L 104 44 L 104 48 L 108 48 z M 104 48 L 100 48 L 100 52 L 104 52 L 104 48 z M 100 48 L 100 44 L 96 44 L 96 48 L 100 48 z M 96 48 L 92 48 L 92 52 L 96 52 L 96 48 z M 92 48 L 92 44 L 88 44 L 88 48 L 92 48 z M 88 48 L 84 48 L 84 52 L 88 52 L 88 48 z M 84 48 L 84 44 L 80 44 L 80 48 L 84 48 z M 80 48 L 76 48 L 76 52 L 80 52 L 80 48 z M 76 48 L 76 44 L 72 44 L 72 48 L 76 48 z M 72 48 L 68 48 L 68 52 L 72 52 L 72 48 z M 68 48 L 68 44 L 64 44 L 64 48 L 68 48 z M 64 48 L 60 48 L 60 52 L 64 52 L 64 48 z M 60 48 L 60 44 L 56 44 L 56 48 L 60 48 z M 56 48 L 52 48 L 52 52 L 56 52 L 56 48 z M 52 48 L 52 44 L 48 44 L 48 48 L 52 48 z M 48 48 L 44 48 L 44 52 L 48 52 L 48 48 z M 44 48 L 44 44 L 40 44 L 40 48 L 44 48 z M 40 48 L 36 48 L 36 52 L 40 52 L 40 48 z M 36 48 L 36 44 L 32 44 L 32 48 L 36 48 z M 32 48 L 28 48 L 28 52 L 32 52 L 32 48 z M 28 52 L 24 52 L 24 56 L 28 56 L 28 52 z M 24 56 L 20 56 L 20 60 L 24 60 L 24 56 z M 24 60 L 24 64 L 28 64 L 28 60 L 24 60 z M 24 64 L 20 64 L 20 68 L 24 68 L 24 64 z M 24 68 L 24 72 L 28 72 L 28 68 L 24 68 z M 24 72 L 20 72 L 20 76 L 24 76 L 24 72 z M 24 76 L 24 80 L 28 80 L 28 76 L 24 76 z M 24 80 L 20 80 L 20 84 L 24 84 L 24 80 z M 24 84 L 24 88 L 28 88 L 28 84 L 24 84 z M 24 88 L 20 88 L 20 92 L 24 92 L 24 88 z M 24 92 L 24 96 L 28 96 L 28 92 L 24 92 z M 24 96 L 20 96 L 20 100 L 24 100 L 24 96 z M 24 100 L 24 104 L 28 104 L 28 100 L 24 100 z M 24 104 L 20 104 L 20 108 L 24 108 L 24 104 z M 24 108 L 24 112 L 28 112 L 28 108 L 24 108 z M 24 112 L 20 112 L 20 116 L 24 116 L 24 112 z M 24 116 L 24 120 L 28 120 L 28 116 L 24 116 z M 24 120 L 20 120 L 20 124 L 24 124 L 24 120 z M 24 124 L 24 128 L 28 128 L 28 124 L 24 124 z M 24 128 L 20 128 L 20 132 L 24 132 L 24 128 z M 24 132 L 24 136 L 28 136 L 28 132 L 24 132 z M 20 132 L 16 132 L 16 136 L 20 136 L 20 132 z M 16 132 L 16 128 L 12 128 L 12 132 L 16 132 z M 12 132 L 8 132 L 8 136 L 12 136 L 12 132 z M 12 128 L 12 124 L 8 124 L 8 128 L 12 128 z M 12 124 L 16 124 L 16 120 L 12 120 L 12 124 z M 12 120 L 12 116 L 8 116 L 8 120 L 12 120 z M 12 116 L 16 116 L 16 112 L 12 112 L 12 116 z M 12 112 L 12 108 L 8 108 L 8 112 L 12 112 z M 12 108 L 16 108 L 16 104 L 12 104 L 12 108 z M 12 104 L 12 100 L 8 100 L 8 104 L 12 104 z M 12 100 L 16 100 L 16 96 L 12 96 L 12 100 z M 12 96 L 12 92 L 8 92 L 8 96 L 12 96 z M 12 92 L 16 92 L 16 88 L 12 88 L 12 92 z M 12 88 L 12 84 L 8 84 L 8 88 L 12 88 z M 12 84 L 16 84 L 16 80 L 12 80 L 12 84 z M 12 80 L 12 76 L 8 76 L 8 80 L 12 80 z M 12 76 L 16 76 L 16 72 L 12 72 L 12 76 z M 12 72 L 12 68 L 8 68 L 8 72 L 12 72 z M 12 68 L 16 68 L 16 64 L 12 64 L 12 68 z M 12 64 L 12 60 L 8 60 L 8 64 L 12 64 z M 12 60 L 16 60 L 16 56 L 12 56 L 12 60 z M 12 56 L 12 52 L 8 52 L 8 56 L 12 56 z M 12 52 L 16 52 L 16 48 L 12 48 L 12 52 z M 12 48 L 12 44 L 8 44 L 8 48 L 12 48 z M 12 44 L 16 44 L 16 40 L 12 40 L 12 44 z M 12 40 L 12 36 L 8 36 L 8 40 L 12 40 z M 16 44 L 16 48 L 20 48 L 20 44 L 16 44 z M 20 44 L 24 44 L 24 40 L 20 40 L 20 44 z M 24 44 L 24 48 L 28 48 L 28 44 L 24 44 z M 28 44 L 32 44 L 32 40 L 28 40 L 28 44 z M 24 48 L 20 48 L 20 52 L 24 52 L 24 48 z M 20 52 L 16 52 L 16 56 L 20 56 L 20 52 z M 16 60 L 16 64 L 20 64 L 20 60 L 16 60 z M 16 68 L 16 72 L 20 72 L 20 68 L 16 68 z M 16 76 L 16 80 L 20 80 L 20 76 L 16 76 z M 16 84 L 16 88 L 20 88 L 20 84 L 16 84 z M 16 92 L 16 96 L 20 96 L 20 92 L 16 92 z M 16 100 L 16 104 L 20 104 L 20 100 L 16 100 z M 16 108 L 16 112 L 20 112 L 20 108 L 16 108 z M 16 116 L 16 120 L 20 120 L 20 116 L 16 116 z M 16 124 L 16 128 L 20 128 L 20 124 L 16 124 z M 36 44 L 40 44 L 40 40 L 36 40 L 36 44 z M 44 44 L 48 44 L 48 40 L 44 40 L 44 44 z M 52 44 L 56 44 L 56 40 L 52 40 L 52 44 z M 60 44 L 64 44 L 64 40 L 60 40 L 60 44 z M 68 44 L 72 44 L 72 40 L 68 40 L 68 44 z M 76 44 L 80 44 L 80 40 L 76 40 L 76 44 z M 84 44 L 88 44 L 88 40 L 84 40 L 84 44 z M 92 44 L 96 44 L 96 40 L 92 40 L 92 44 z M 100 44 L 104 44 L 104 40 L 100 40 L 100 44 z M 108 44 L 112 44 L 112 40 L 108 40 L 108 44 z M 116 44 L 120 44 L 120 40 L 116 40 L 116 44 z M 124 44 L 128 44 L 128 40 L 124 40 L 124 44 z M 132 44 L 136 44 L 136 40 L 132 40 L 132 44 z M 140 44 L 144 44 L 144 40 L 140 40 L 140 44 z M 148 44 L 152 44 L 152 40 L 148 40 L 148 44 z M 32 76 L 32 80 L 32 84 L 32 88 L 32 92 L 32 96 L 32 100 L 32 104 L 32 108 L 32 112 L 32 116 L 32 120 L 32 124 L 32 128 L 32 132 L 32 136 L 32 140 L 32 144 L 32 148 L 32 152 L 32 156 L 32 160 L 32 164 L 32 168 L 32 172 L 32 176 L 32 180 L 36 180 L 40 180 L 44 180 L 48 180 L 52 180 L 56 180 L 60 180 L 64 180 L 68 180 L 72 180 L 76 180 L 80 180 L 84 180 L 88 180 L 92 180 L 96 180 L 100 180 L 104 180 L 108 180 L 112 180 L 116 180 L 120 180 L 124 180 L 128 180 L 132 180 L 136 180 L 140 180 L 144 180 L 148 180 L 152 180 L 156 180 L 160 180 L 164 180 L 168 180 L 172 180 L 176 180 L 180 180 L 184 180 L 188 180 L 188 176 L 188 172 L 188 168 L 188 164 L 188 160 L 188 156 L 188 152 L 188 148 L 188 144 L 188 140 L 188 136 L 188 132 L 188 128 L 188 124 L 188 120 L 188 116 L 188 112 L 188 108 L 188 104 L 188 100 L 188 96 L 188 92 L 188 88 L 188 84 L 188 80 L 188 76 L 184 76 L 180 76 L 176 76 L 172 76 L 168 76 L 164 76 L 160 76 L 156 76 L 152 76 L 148 76 L 144 76 L 140 76 L 136 76 L 132 76 L 128 76 L 124 76 L 120 76 L 116 76 L 112 76 L 108 76 L 104 76 L 100 76 L 96 76 L 92 76 L 88 76 L 84 76 L 80 76 L 76 76 L 72 76 L 68 76 L 64 76 L 60 76 L 56 76 L 52 76 L 48 76 L 44 76 L 40 76 L 36 76 L 32 76 z M 36 80 L 40 80 L 44 80 L 48 80 L 52 80 L 56 80 L 60 80 L 64 80 L 68 80 L 72 80 L 76 80 L 80 80 L 84 80 L 88 80 L 92 80 L 96 80 L 100 80 L 104 80 L 108 80 L 112 80 L 116 80 L 120 80 L 124 80 L 128 80 L 132 80 L 136 80 L 140 80 L 144 80 L 148 80 L 152 80 L 156 80 L 160 80 L 164 80 L 168 80 L 172 80 L 176 80 L 180 80 L 184 80 L 184 84 L 184 88 L 184 92 L 184 96 L 184 100 L 184 104 L 184 108 L 184 112 L 184 116 L 184 120 L 184 124 L 184 128 L 184 132 L 184 136 L 184 140 L 184 144 L 184 148 L 184 152 L 184 156 L 184 160 L 184 164 L 184 168 L 184 172 L 184 176 L 180 176 L 176 176 L 172 176 L 168 176 L 164 176 L 160 176 L 156 176 L 152 176 L 148 176 L 144 176 L 140 176 L 136 176 L 132 176 L 128 176 L 124 176 L 120 176 L 116 176 L 112 176 L 108 176 L 104 176 L 100 176 L 96 176 L 92 176 L 88 176 L 84 176 L 80 176 L 76 176 L 72 176 L 68 176 L 64 176 L 60 176 L 56 176 L 52 176 L 48 176 L 44 176 L 40 176 L 36 176 L 36 172 L 36 168 L 36 164 L 36 160 L 36 156 L 36 152 L 36 148 L 36 144 L 36 140 L 36 136 L 36 132 L 36 128 L 36 124 L 36 120 L 36 116 L 36 112 L 36 108 L 36 104 L 36 100 L 36 96 L 36 92 L 36 88 L 36 84 L 36 80 z "
     style="fill:#c0c0c0" />
  <path
     id="rect3760"
     d="M 160 28 L 160 32 L 164 32 L 164 28 L 160 28 z M 164 32 L 164 36 L 164 40 L 164 44 L 164 48 L 164 52 L 168 52 L 168 48 L 168 44 L 168 40 L 168 36 L 168 32 L 164 32 z M 188 52 L 188 56 L 188 60 L 188 64 L 188 68 L 188 72 L 188 76 L 188 80 L 188 84 L 188 88 L 188 92 L 188 96 L 188 100 L 188 104 L 188 108 L 188 112 L 188 116 L 188 120 L 188 124 L 188 128 L 188 132 L 188 136 L 188 140 L 188 144 L 188 148 L 188 152 L 188 156 L 188 160 L 188 164 L 188 168 L 188 172 L 188 176 L 188 180 L 184 180 L 180 180 L 176 180 L 172 180 L 168 180 L 164 180 L 160 180 L 156 180 L 152 180 L 148 180 L 144 180 L 140 180 L 136 180 L 132 180 L 128 180 L 124 180 L 120 180 L 116 180 L 112 180 L 108 180 L 104 180 L 100 180 L 96 180 L 92 180 L 88 180 L 84 180 L 80 180 L 76 180 L 72 180 L 68 180 L 64 180 L 60 180 L 56 180 L 52 180 L 48 180 L 44 180 L 40 180 L 36 180 L 32 180 L 28 180 L 28 184 L 32 184 L 36 184 L 40 184 L 44 184 L 48 184 L 52 184 L 56 184 L 60 184 L 64 184 L 68 184 L 72 184 L 76 184 L 80 184 L 84 184 L 88 184 L 92 184 L 96 184 L 100 184 L 104 184 L 108 184 L 112 184 L 116 184 L 120 184 L 124 184 L 128 184 L 132 184 L 136 184 L 140 184 L 144 184 L 148 184 L 152 184 L 156 184 L 160 184 L 164 184 L 168 184 L 172 184 L 176 184 L 180 184 L 184 184 L 188 184 L 192 184 L 192 180 L 192 176 L 192 172 L 192 168 L 192 164 L 192 160 L 192 156 L 192 152 L 192 148 L 192 144 L 192 140 L 192 136 L 192 132 L 192 128 L 192 124 L 192 120 L 192 116 L 192 112 L 192 108 L 192 104 L 192 100 L 192 96 L 192 92 L 192 88 L 192 84 L 192 80 L 192 76 L 192 72 L 192 68 L 192 64 L 192 60 L 192 56 L 192 52 L 188 52 z M 40 60 L 40 64 L 36 64 L 36 68 L 40 68 L 44 68 L 48 68 L 48 64 L 48 60 L 44 60 L 40 60 z M 152 60 L 152 64 L 148 64 L 148 68 L 152 68 L 156 68 L 156 64 L 156 60 L 152 60 z M 164 60 L 164 64 L 160 64 L 160 68 L 164 68 L 168 68 L 168 64 L 168 60 L 164 60 z M 176 60 L 176 64 L 172 64 L 172 68 L 176 68 L 180 68 L 180 64 L 180 60 L 176 60 z M 60 108 L 60 112 L 64 112 L 68 112 L 72 112 L 76 112 L 80 112 L 80 108 L 76 108 L 72 108 L 68 108 L 64 108 L 60 108 z M 144 108 L 144 112 L 148 112 L 152 112 L 156 112 L 160 112 L 164 112 L 164 108 L 160 108 L 156 108 L 152 108 L 148 108 L 144 108 z M 4 140 L 4 144 L 8 144 L 12 144 L 16 144 L 20 144 L 24 144 L 28 144 L 28 140 L 24 140 L 20 140 L 16 140 L 12 140 L 8 140 L 4 140 z M 116 144 L 116 148 L 116 152 L 112 152 L 108 152 L 104 152 L 100 152 L 100 156 L 104 156 L 108 156 L 112 156 L 116 156 L 120 156 L 120 152 L 120 148 L 120 144 L 116 144 z M 60 152 L 60 156 L 64 156 L 68 156 L 72 156 L 76 156 L 80 156 L 80 152 L 76 152 L 72 152 L 68 152 L 64 152 L 60 152 z M 144 152 L 144 156 L 148 156 L 152 156 L 156 156 L 160 156 L 164 156 L 164 152 L 160 152 L 156 152 L 152 152 L 148 152 L 144 152 z "
     style="fill:#000000" />
</svg>
