<?xml version="1.0" encoding="UTF-8" standalone="no"?>
<svg
   xmlns:dc="http://purl.org/dc/elements/1.1/"
   xmlns:cc="http://creativecommons.org/ns#"
   xmlns:rdf="http://www.w3.org/1999/02/22-rdf-syntax-ns#"
   xmlns:svg="http://www.w3.org/2000/svg"
   xmlns="http://www.w3.org/2000/svg"
   xmlns:sodipodi="http://sodipodi.sourceforge.net/DTD/sodipodi-0.dtd"
   xmlns:inkscape="http://www.inkscape.org/namespaces/inkscape"
   id="svg2180"
   width="192px"
   version="1.1"
   height="192px"
   sodipodi:docname="chicago95_tmp_file.svg"
   inkscape:version="0.92.4 (5da689c313, 2019-01-14)">
  <sodipodi:namedview
     pagecolor="#ffffff"
     bordercolor="#666666"
     borderopacity="1"
     objecttolerance="10"
     gridtolerance="10"
     guidetolerance="10"
     inkscape:pageopacity="0"
     inkscape:pageshadow="2"
     inkscape:window-width="453"
     inkscape:window-height="423"
     id="namedview1093"
     showgrid="false"
     inkscape:zoom="1.2291667"
     inkscape:cx="152.94929"
     inkscape:cy="-17.898181"
     inkscape:window-x="0"
     inkscape:window-y="0"
     inkscape:window-maximized="0"
     inkscape:current-layer="svg2180" />
  <metadata
     id="metadata2184">
    <rdf:RDF>
      <cc:Work
         rdf:about="">
        <dc:format>image/svg+xml</dc:format>
        <dc:type
           rdf:resource="http://purl.org/dc/dcmitype/StillImage" />
      </cc:Work>
    </rdf:RDF>
  </metadata>
  <defs
     id="defs2" />
  <path
     style="fill:#8f8f22"
     d="M 76 4 L 76 8 L 80 8 L 80 4 L 76 4 z "
     id="rect38" />
  <path
     style="fill:#a0a04e"
     d="M 88 4 L 88 8 L 92 8 L 92 4 L 88 4 z "
     id="rect44" />
  <path
     style="fill:#b1b162"
     d="M 100 4 L 100 8 L 104 8 L 104 4 L 100 4 z "
     id="rect50" />
  <path
     style="fill:#9e9e4e"
     d="M 124 4 L 124 8 L 128 8 L 128 4 L 124 4 z "
     id="rect62" />
  <path
     style="fill:#999943"
     d="M 80 4 L 80 8 L 84 8 L 84 4 L 80 4 z M 80 8 L 76 8 L 76 12 L 80 12 L 80 8 z M 92 4 L 92 8 L 96 8 L 96 4 L 92 4 z M 108 4 L 108 8 L 112 8 L 112 4 L 108 4 z M 120 4 L 120 8 L 124 8 L 124 4 L 120 4 z M 128 4 L 128 8 L 132 8 L 132 4 L 128 4 z "
     id="rect78" />
  <path
     style="fill:#dcdcdc"
     d="M 76 12 L 76 16 L 76 20 L 80 20 L 80 16 L 80 12 L 76 12 z "
     id="rect174" />
  <path
     style="fill:#ebebeb"
     d="M 100 12 L 100 16 L 100 20 L 104 20 L 104 16 L 104 12 L 100 12 z "
     id="rect186" />
  <path
     style="fill:#d4d4d4"
     d="M 124 12 L 124 16 L 124 20 L 128 20 L 128 16 L 128 12 L 124 12 z "
     id="rect198" />
  <path
     style="fill:#afaf5d"
     d="M 40 28 L 40 32 L 44 32 L 44 28 L 40 28 z "
     id="rect330" />
  <path
     style="fill:#ffff5c"
     d="M 124 28 L 124 32 L 128 32 L 128 28 L 124 28 z "
     id="rect372" />
  <path
     style="fill:#cdcdcd"
     d="M 136 28 L 136 32 L 140 32 L 140 28 L 136 28 z "
     id="rect378" />
  <path
     style="fill:#cccccc"
     d="M 148 28 L 148 32 L 152 32 L 152 28 L 148 28 z "
     id="rect384" />
  <path
     style="fill:#eeee43"
     d="M 136 36 L 136 40 L 136 44 L 140 44 L 140 40 L 140 36 L 136 36 z "
     id="rect584" />
  <path
     style="fill:#f7f7ed"
     d="M 28 52 L 28 56 L 32 56 L 32 52 L 28 52 z "
     id="rect744" />
  <path
     style="fill:#9d9d00"
     d="M 76 52 L 76 56 L 80 56 L 80 52 L 76 52 z "
     id="rect768" />
  <path
     style="fill:#232300"
     d="M 88 52 L 88 56 L 92 56 L 92 52 L 88 52 z "
     id="rect774" />
  <path
     style="fill:#3b3b00"
     d="M 160 52 L 160 56 L 164 56 L 164 52 L 160 52 z "
     id="rect810" />
  <path
     style="fill:#9c9c00"
     d="M 100 60 L 100 64 L 104 64 L 104 60 L 100 60 z "
     id="rect922" />
  <path
     style="fill:#f4f4e7"
     d="M 28 64 L 28 68 L 32 68 L 32 64 L 28 64 z "
     id="rect958" />
  <path
     style="fill:#a6a600"
     d="M 64 64 L 64 68 L 68 68 L 68 64 L 64 64 z "
     id="rect976" />
  <path
     style="fill:#757500"
     d="M 76 64 L 76 68 L 80 68 L 80 64 L 76 64 z "
     id="rect982" />
  <path
     style="fill:#303030"
     d="M 96 64 L 96 68 L 100 68 L 100 64 L 96 64 z "
     id="rect990" />
  <path
     style="fill:#a2a220"
     d="M 100 64 L 100 68 L 104 68 L 104 64 L 100 64 z "
     id="rect992" />
  <path
     style="fill:#3f3f00"
     d="M 160 64 L 160 68 L 164 68 L 164 64 L 160 64 z "
     id="rect1022" />
  <path
     style="fill:#f6f6ed"
     d="M 28 76 L 28 80 L 32 80 L 32 76 L 28 76 z "
     id="rect1156" />
  <path
     style="fill:#4d4d00"
     d="M 64 76 L 64 80 L 68 80 L 68 76 L 64 76 z "
     id="rect1174" />
  <path
     style="fill:#cdcd43"
     d="M 100 76 L 100 80 L 104 80 L 104 76 L 100 76 z "
     id="rect1184" />
  <path
     style="fill:#121200"
     d="M 148 76 L 148 80 L 152 80 L 152 76 L 148 76 z "
     id="rect1208" />
  <path
     style="fill:#292900"
     d="M 84 52 L 84 56 L 88 56 L 88 52 L 84 52 z M 92 52 L 92 56 L 96 56 L 96 52 L 92 52 z M 64 80 L 64 84 L 68 84 L 68 80 L 64 80 z "
     id="rect1236" />
  <path
     style="fill:#d5d539"
     d="M 100 68 L 100 72 L 100 76 L 104 76 L 104 72 L 104 68 L 100 68 z M 100 80 L 100 84 L 104 84 L 104 80 L 100 80 z "
     id="rect1242" />
  <path
     style="fill:#d5d500"
     d="M 136 84 L 136 88 L 140 88 L 140 84 L 136 84 z "
     id="rect1316" />
  <path
     style="fill:#090900"
     d="M 28 88 L 28 92 L 32 92 L 32 88 L 28 88 z "
     id="rect1326" />
  <path
     style="fill:#cccc99"
     d="M 88 88 L 88 92 L 92 92 L 92 88 L 88 88 z "
     id="rect1348" />
  <path
     style="fill:#cece9c"
     d="M 44 28 L 44 32 L 48 32 L 48 28 L 44 28 z M 44 32 L 40 32 L 40 36 L 44 36 L 44 32 z M 92 88 L 92 92 L 96 92 L 96 88 L 92 88 z "
     id="rect1350" />
  <path
     style="fill:#ffff64"
     d="M 48 28 L 48 32 L 52 32 L 52 28 L 48 28 z M 120 28 L 120 32 L 124 32 L 124 28 L 120 28 z M 128 28 L 128 32 L 132 32 L 132 28 L 128 28 z M 40 36 L 40 40 L 40 44 L 40 48 L 44 48 L 44 44 L 44 40 L 44 36 L 40 36 z M 100 84 L 100 88 L 104 88 L 104 84 L 100 84 z M 100 88 L 96 88 L 96 92 L 100 92 L 100 88 z "
     id="rect1352" />
  <path
     style="fill:#ffff29"
     d="M 100 88 L 100 92 L 104 92 L 104 88 L 100 88 z "
     id="rect1354" />
  <path
     style="fill:#8f8f00"
     d="M 136 88 L 136 92 L 140 92 L 140 88 L 136 88 z "
     id="rect1372" />
  <path
     style="fill:#565600"
     d="M 80 64 L 80 68 L 84 68 L 84 64 L 80 64 z M 80 68 L 76 68 L 76 72 L 80 72 L 80 68 z M 136 92 L 136 96 L 140 96 L 140 92 L 136 92 z "
     id="rect1406" />
  <path
     style="fill:#aaaa55"
     d="M 84 4 L 84 8 L 88 8 L 88 4 L 84 4 z M 96 4 L 96 8 L 100 8 L 100 4 L 96 4 z M 104 4 L 104 8 L 108 8 L 108 4 L 104 4 z M 112 4 L 112 8 L 116 8 L 120 8 L 120 4 L 116 4 L 112 4 z M 76 100 L 76 104 L 76 108 L 80 108 L 80 104 L 80 100 L 76 100 z "
     id="rect1478" />
  <path
     style="fill:#ebebd6"
     d="M 64 12 L 64 16 L 64 20 L 68 20 L 68 16 L 68 12 L 64 12 z M 72 112 L 72 116 L 76 116 L 76 112 L 72 112 z "
     id="rect1548" />
  <path
     style="fill:#ecec88"
     d="M 76 112 L 76 116 L 80 116 L 80 112 L 76 112 z "
     id="rect1550" />
  <path
     style="fill:#959500"
     d="M 72 52 L 72 56 L 76 56 L 76 52 L 72 52 z M 80 52 L 80 56 L 84 56 L 84 52 L 80 52 z M 64 60 L 64 64 L 68 64 L 68 60 L 64 60 z M 64 68 L 64 72 L 64 76 L 68 76 L 68 72 L 68 68 L 64 68 z M 124 96 L 124 100 L 128 100 L 128 96 L 124 96 z M 112 112 L 112 116 L 116 116 L 120 116 L 120 112 L 116 112 L 112 112 z "
     id="rect1570" />
  <path
     style="fill:#818100"
     d="M 136 4 L 136 8 L 140 8 L 140 4 L 136 4 z M 148 52 L 148 56 L 152 56 L 152 52 L 148 52 z M 148 64 L 148 68 L 152 68 L 152 64 L 148 64 z M 124 112 L 124 116 L 128 116 L 128 112 L 124 112 z M 64 136 L 64 140 L 68 140 L 68 136 L 64 136 z "
     id="rect1768" />
  <path
     style="fill:#ffffb1"
     d="M 76 136 L 76 140 L 80 140 L 80 136 L 76 136 z "
     id="rect1774" />
  <path
     style="fill:#0b0b00"
     d="M 68 76 L 68 80 L 72 80 L 72 76 L 68 76 z M 152 76 L 152 80 L 156 80 L 156 76 L 152 76 z M 120 136 L 120 140 L 124 140 L 124 136 L 120 136 z "
     id="rect1796" />
  <path
     style="fill:#0e0e00"
     d="M 124 136 L 124 140 L 128 140 L 128 136 L 124 136 z "
     id="rect1798" />
  <path
     style="fill:#ffffff"
     d="M 84 8 L 84 12 L 88 12 L 88 8 L 84 8 z M 88 12 L 88 16 L 88 20 L 84 20 L 84 16 L 84 12 L 80 12 L 80 16 L 80 20 L 76 20 L 72 20 L 72 16 L 72 12 L 68 12 L 68 16 L 68 20 L 64 20 L 60 20 L 56 20 L 52 20 L 52 24 L 56 24 L 60 24 L 64 24 L 68 24 L 72 24 L 76 24 L 80 24 L 84 24 L 88 24 L 92 24 L 96 24 L 100 24 L 104 24 L 108 24 L 112 24 L 116 24 L 120 24 L 120 20 L 116 20 L 112 20 L 112 16 L 112 12 L 108 12 L 108 8 L 104 8 L 100 8 L 96 8 L 96 12 L 100 12 L 104 12 L 104 16 L 104 20 L 100 20 L 96 20 L 96 16 L 96 12 L 92 12 L 88 12 z M 112 12 L 116 12 L 120 12 L 120 8 L 116 8 L 112 8 L 112 12 z M 120 12 L 120 16 L 120 20 L 124 20 L 124 16 L 124 12 L 120 12 z M 120 24 L 120 28 L 124 28 L 128 28 L 132 28 L 132 24 L 128 24 L 124 24 L 120 24 z M 52 24 L 48 24 L 48 28 L 52 28 L 52 24 z M 44 32 L 44 36 L 48 36 L 48 32 L 44 32 z M 36 36 L 36 40 L 36 44 L 36 48 L 40 48 L 40 44 L 40 40 L 40 36 L 36 36 z M 36 48 L 32 48 L 28 48 L 28 52 L 32 52 L 32 56 L 28 56 L 28 60 L 28 64 L 32 64 L 32 68 L 28 68 L 28 72 L 28 76 L 32 76 L 32 80 L 28 80 L 28 84 L 32 84 L 36 84 L 36 80 L 36 76 L 36 72 L 36 68 L 36 64 L 36 60 L 36 56 L 36 52 L 36 48 z M 96 84 L 96 88 L 100 88 L 100 84 L 96 84 z M 88 92 L 88 96 L 92 96 L 96 96 L 96 92 L 92 92 L 88 92 z M 88 96 L 84 96 L 84 100 L 88 100 L 88 96 z M 84 100 L 80 100 L 80 104 L 80 108 L 84 108 L 84 104 L 84 100 z M 72 116 L 72 120 L 72 124 L 72 128 L 72 132 L 72 136 L 72 140 L 72 144 L 76 144 L 76 140 L 76 136 L 76 132 L 76 128 L 76 124 L 76 120 L 76 116 L 72 116 z "
     id="rect1806" />
  <path
     style="fill:#ffffab"
     d="M 76 116 L 76 120 L 76 124 L 76 128 L 76 132 L 76 136 L 80 136 L 80 132 L 80 128 L 80 124 L 80 120 L 80 116 L 76 116 z M 76 140 L 76 144 L 80 144 L 80 140 L 76 140 z "
     id="rect1808" />
  <path
     style="fill:#cbcbcb"
     d="M 80 8 L 80 12 L 84 12 L 84 8 L 80 8 z M 84 12 L 84 16 L 84 20 L 88 20 L 88 16 L 88 12 L 84 12 z M 88 12 L 92 12 L 96 12 L 96 8 L 92 8 L 88 8 L 88 12 z M 96 12 L 96 16 L 96 20 L 100 20 L 100 16 L 100 12 L 96 12 z M 108 8 L 108 12 L 112 12 L 112 8 L 108 8 z M 112 12 L 112 16 L 112 20 L 116 20 L 120 20 L 120 16 L 120 12 L 116 12 L 112 12 z M 120 12 L 124 12 L 128 12 L 128 16 L 128 20 L 124 20 L 120 20 L 120 24 L 124 24 L 128 24 L 132 24 L 132 28 L 132 32 L 132 36 L 136 36 L 140 36 L 140 40 L 140 44 L 144 44 L 144 48 L 148 48 L 148 44 L 152 44 L 156 44 L 156 40 L 156 36 L 156 32 L 156 28 L 156 24 L 152 24 L 148 24 L 148 20 L 144 20 L 144 16 L 144 12 L 140 12 L 136 12 L 132 12 L 132 8 L 128 8 L 124 8 L 120 8 L 120 12 z M 72 12 L 72 16 L 72 20 L 76 20 L 76 16 L 76 12 L 72 12 z M 136 28 L 140 28 L 140 32 L 136 32 L 136 28 z M 148 28 L 152 28 L 152 32 L 148 32 L 148 28 z M 108 148 L 108 152 L 112 152 L 112 148 L 108 148 z "
     id="rect1882" />
  <path
     style="fill:#a0a045"
     d="M 76 152 L 76 156 L 80 156 L 80 152 L 76 152 z "
     id="rect1896" />
  <path
     style="fill:#b0b000"
     d="M 88 152 L 88 156 L 92 156 L 92 152 L 88 152 z "
     id="rect1902" />
  <path
     style="fill:#b1b100"
     d="M 100 152 L 100 156 L 104 156 L 104 152 L 100 152 z "
     id="rect1908" />
  <path
     style="fill:#aaaa00"
     d="M 76 108 L 76 112 L 80 112 L 80 108 L 76 108 z M 80 152 L 80 156 L 84 156 L 88 156 L 88 152 L 84 152 L 80 152 z M 92 152 L 92 156 L 96 156 L 100 156 L 100 152 L 96 152 L 92 152 z M 104 152 L 104 156 L 108 156 L 108 152 L 104 152 z "
     id="rect1910" />
  <path
     style="fill:#b2b288"
     d="M 108 152 L 108 156 L 112 156 L 112 152 L 108 152 z "
     id="rect1912" />
  <path
     style="fill:#262600"
     d="M 124 152 L 124 156 L 128 156 L 128 152 L 124 152 z "
     id="rect1920" />
  <path
     style="fill:#151500"
     d="M 124 132 L 124 136 L 128 136 L 128 132 L 124 132 z M 124 148 L 124 152 L 128 152 L 128 148 L 124 148 z M 124 156 L 124 160 L 124 164 L 124 168 L 124 172 L 128 172 L 128 168 L 128 164 L 128 160 L 128 156 L 124 156 z "
     id="rect2052" />
  <path
     style="fill:#bdbd59"
     d="M 72 176 L 72 180 L 76 180 L 76 176 L 72 176 z "
     id="rect2092" />
  <path
     style="fill:#d1d140"
     d="M 76 176 L 76 180 L 80 180 L 80 176 L 76 176 z "
     id="rect2094" />
  <path
     style="fill:#b2b200"
     d="M 132 88 L 132 92 L 136 92 L 136 88 L 132 88 z M 108 176 L 108 180 L 112 180 L 112 176 L 108 176 z "
     id="rect2110" />
  <path
     style="fill:#323200"
     d="M 160 36 L 160 40 L 160 44 L 160 48 L 160 52 L 164 52 L 164 48 L 164 44 L 164 40 L 164 36 L 160 36 z M 160 56 L 160 60 L 160 64 L 164 64 L 164 60 L 164 56 L 160 56 z M 160 68 L 160 72 L 164 72 L 164 68 L 160 68 z M 140 88 L 140 92 L 144 92 L 144 88 L 140 88 z M 112 176 L 112 180 L 116 180 L 120 180 L 120 176 L 116 176 L 112 176 z "
     id="rect2114" />
  <path
     style="fill:#929292"
     d="M 96 68 L 96 72 L 96 76 L 96 80 L 96 84 L 100 84 L 100 80 L 100 76 L 100 72 L 100 68 L 96 68 z M 72 152 L 72 156 L 72 160 L 76 160 L 76 156 L 76 152 L 72 152 z M 72 160 L 68 160 L 64 160 L 64 164 L 64 168 L 64 172 L 64 176 L 64 180 L 68 180 L 72 180 L 72 176 L 72 172 L 72 168 L 72 164 L 72 160 z M 72 180 L 72 184 L 76 184 L 76 180 L 72 180 z "
     id="rect2120" />
  <path
     style="fill:#b6b662"
     d="M 76 156 L 76 160 L 80 160 L 80 156 L 76 156 z M 76 180 L 76 184 L 80 184 L 80 180 L 76 180 z "
     id="rect2122" />
  <path
     style="fill:#ffff00"
     d="M 52 24 L 52 28 L 52 32 L 48 32 L 48 36 L 44 36 L 44 40 L 44 44 L 44 48 L 40 48 L 36 48 L 36 52 L 36 56 L 36 60 L 36 64 L 36 68 L 36 72 L 36 76 L 36 80 L 36 84 L 40 84 L 44 84 L 48 84 L 52 84 L 56 84 L 60 84 L 64 84 L 64 80 L 64 76 L 64 72 L 64 68 L 64 64 L 64 60 L 68 60 L 72 60 L 72 56 L 72 52 L 76 52 L 80 52 L 84 52 L 88 52 L 92 52 L 96 52 L 96 56 L 96 60 L 100 60 L 104 60 L 104 64 L 104 68 L 104 72 L 104 76 L 104 80 L 104 84 L 104 88 L 104 92 L 100 92 L 96 92 L 96 96 L 92 96 L 88 96 L 88 100 L 84 100 L 84 104 L 84 108 L 80 108 L 80 112 L 80 116 L 80 120 L 80 124 L 80 128 L 80 132 L 80 136 L 80 140 L 80 144 L 84 144 L 88 144 L 92 144 L 96 144 L 100 144 L 104 144 L 108 144 L 112 144 L 112 140 L 112 136 L 112 132 L 112 128 L 112 124 L 112 120 L 112 116 L 112 112 L 116 112 L 120 112 L 120 108 L 120 104 L 120 100 L 124 100 L 124 96 L 128 96 L 132 96 L 132 92 L 132 88 L 136 88 L 136 84 L 140 84 L 144 84 L 144 80 L 144 76 L 144 72 L 144 68 L 144 64 L 144 60 L 144 56 L 144 52 L 144 48 L 144 44 L 140 44 L 136 44 L 136 40 L 136 36 L 132 36 L 132 32 L 128 32 L 124 32 L 120 32 L 120 28 L 120 24 L 116 24 L 112 24 L 108 24 L 104 24 L 100 24 L 96 24 L 92 24 L 88 24 L 84 24 L 80 24 L 76 24 L 72 24 L 68 24 L 64 24 L 60 24 L 56 24 L 52 24 z M 80 156 L 80 160 L 76 160 L 72 160 L 72 164 L 72 168 L 72 172 L 72 176 L 76 176 L 80 176 L 80 180 L 80 184 L 84 184 L 88 184 L 92 184 L 96 184 L 100 184 L 104 184 L 108 184 L 108 180 L 108 176 L 112 176 L 112 172 L 112 168 L 112 164 L 112 160 L 108 160 L 108 156 L 104 156 L 100 156 L 96 156 L 92 156 L 88 156 L 84 156 L 80 156 z "
     id="rect2136" />
  <path
     style="fill:#808000"
     d="M 76 0 L 76 4 L 80 4 L 84 4 L 88 4 L 92 4 L 96 4 L 100 4 L 104 4 L 108 4 L 112 4 L 116 4 L 120 4 L 124 4 L 128 4 L 132 4 L 132 0 L 128 0 L 124 0 L 120 0 L 116 0 L 112 0 L 108 0 L 104 0 L 100 0 L 96 0 L 92 0 L 88 0 L 84 0 L 80 0 L 76 0 z M 132 4 L 132 8 L 132 12 L 136 12 L 140 12 L 144 12 L 144 8 L 144 4 L 140 4 L 140 8 L 136 8 L 136 4 L 132 4 z M 144 12 L 144 16 L 144 20 L 148 20 L 148 24 L 152 24 L 156 24 L 156 20 L 152 20 L 152 16 L 152 12 L 148 12 L 144 12 z M 156 24 L 156 28 L 156 32 L 156 36 L 156 40 L 156 44 L 152 44 L 148 44 L 148 48 L 144 48 L 144 52 L 144 56 L 144 60 L 144 64 L 144 68 L 144 72 L 144 76 L 144 80 L 144 84 L 148 84 L 148 80 L 148 76 L 152 76 L 156 76 L 156 72 L 160 72 L 160 68 L 160 64 L 160 60 L 160 56 L 160 52 L 160 48 L 160 44 L 160 40 L 160 36 L 164 36 L 168 36 L 168 32 L 168 28 L 164 28 L 164 24 L 160 24 L 156 24 z M 144 84 L 140 84 L 140 88 L 144 88 L 144 84 z M 76 4 L 72 4 L 68 4 L 64 4 L 64 8 L 64 12 L 68 12 L 72 12 L 76 12 L 76 8 L 76 4 z M 64 12 L 60 12 L 56 12 L 52 12 L 52 16 L 52 20 L 56 20 L 60 20 L 64 20 L 64 16 L 64 12 z M 52 20 L 48 20 L 48 24 L 52 24 L 52 20 z M 48 24 L 44 24 L 40 24 L 40 28 L 44 28 L 48 28 L 48 24 z M 40 28 L 36 28 L 36 32 L 36 36 L 40 36 L 40 32 L 40 28 z M 36 36 L 32 36 L 28 36 L 28 40 L 28 44 L 28 48 L 32 48 L 36 48 L 36 44 L 36 40 L 36 36 z M 28 48 L 24 48 L 24 52 L 24 56 L 24 60 L 24 64 L 24 68 L 24 72 L 24 76 L 24 80 L 24 84 L 24 88 L 24 92 L 28 92 L 28 88 L 28 84 L 28 80 L 28 76 L 28 72 L 28 68 L 28 64 L 28 60 L 28 56 L 28 52 L 28 48 z M 148 52 L 152 52 L 152 56 L 148 56 L 148 52 z M 72 56 L 72 60 L 68 60 L 68 64 L 68 68 L 68 72 L 68 76 L 72 76 L 72 72 L 76 72 L 76 68 L 76 64 L 80 64 L 84 64 L 84 60 L 84 56 L 80 56 L 76 56 L 72 56 z M 148 64 L 152 64 L 152 68 L 148 68 L 148 64 z M 88 84 L 88 88 L 92 88 L 96 88 L 96 84 L 92 84 L 88 84 z M 88 88 L 84 88 L 84 92 L 84 96 L 88 96 L 88 92 L 88 88 z M 84 96 L 80 96 L 76 96 L 76 100 L 80 100 L 84 100 L 84 96 z M 76 100 L 72 100 L 72 104 L 72 108 L 72 112 L 76 112 L 76 108 L 76 104 L 76 100 z M 72 112 L 68 112 L 64 112 L 64 116 L 64 120 L 64 124 L 64 128 L 64 132 L 64 136 L 68 136 L 68 140 L 64 140 L 64 144 L 64 148 L 68 148 L 72 148 L 72 144 L 72 140 L 72 136 L 72 132 L 72 128 L 72 124 L 72 120 L 72 116 L 72 112 z M 132 92 L 132 96 L 136 96 L 136 92 L 132 92 z M 132 96 L 128 96 L 128 100 L 124 100 L 120 100 L 120 104 L 120 108 L 120 112 L 120 116 L 116 116 L 112 116 L 112 120 L 112 124 L 112 128 L 112 132 L 112 136 L 112 140 L 112 144 L 116 144 L 120 144 L 120 140 L 120 136 L 124 136 L 124 132 L 128 132 L 132 132 L 132 128 L 132 124 L 132 120 L 132 116 L 132 112 L 132 108 L 132 104 L 132 100 L 132 96 z M 124 112 L 128 112 L 128 116 L 124 116 L 124 112 z M 76 148 L 76 152 L 80 152 L 84 152 L 88 152 L 92 152 L 96 152 L 100 152 L 104 152 L 108 152 L 108 148 L 104 148 L 100 148 L 96 148 L 92 148 L 88 148 L 84 148 L 80 148 L 76 148 z M 112 148 L 112 152 L 112 156 L 108 156 L 108 160 L 112 160 L 112 164 L 112 168 L 112 172 L 112 176 L 116 176 L 120 176 L 120 172 L 124 172 L 124 168 L 124 164 L 124 160 L 124 156 L 124 152 L 124 148 L 120 148 L 116 148 L 112 148 z M 108 180 L 108 184 L 112 184 L 112 180 L 108 180 z "
     id="rect2138" />
  <path
     style="fill:#000000"
     d="M 164 36 L 164 40 L 164 44 L 164 48 L 164 52 L 164 56 L 164 60 L 164 64 L 164 68 L 164 72 L 168 72 L 168 68 L 168 64 L 168 60 L 168 56 L 168 52 L 168 48 L 168 44 L 168 40 L 168 36 L 164 36 z M 164 72 L 160 72 L 156 72 L 156 76 L 156 80 L 160 80 L 164 80 L 164 76 L 164 72 z M 156 80 L 152 80 L 148 80 L 148 84 L 144 84 L 144 88 L 144 92 L 148 92 L 152 92 L 152 88 L 152 84 L 156 84 L 156 80 z M 144 92 L 140 92 L 140 96 L 144 96 L 144 92 z M 140 96 L 136 96 L 132 96 L 132 100 L 132 104 L 132 108 L 132 112 L 132 116 L 132 120 L 132 124 L 132 128 L 132 132 L 136 132 L 140 132 L 140 128 L 140 124 L 140 120 L 140 116 L 140 112 L 140 108 L 140 104 L 140 100 L 140 96 z M 132 132 L 128 132 L 128 136 L 128 140 L 132 140 L 132 136 L 132 132 z M 128 140 L 124 140 L 120 140 L 120 144 L 116 144 L 112 144 L 108 144 L 104 144 L 100 144 L 96 144 L 92 144 L 88 144 L 84 144 L 80 144 L 76 144 L 72 144 L 72 148 L 76 148 L 80 148 L 84 148 L 88 148 L 92 148 L 96 148 L 100 148 L 104 148 L 108 148 L 112 148 L 116 148 L 120 148 L 124 148 L 128 148 L 128 144 L 128 140 z M 128 148 L 128 152 L 128 156 L 128 160 L 128 164 L 128 168 L 128 172 L 132 172 L 132 168 L 132 164 L 132 160 L 132 156 L 132 152 L 132 148 L 128 148 z M 128 172 L 124 172 L 120 172 L 120 176 L 120 180 L 124 180 L 128 180 L 128 176 L 128 172 z M 120 180 L 116 180 L 112 180 L 112 184 L 116 184 L 120 184 L 120 180 z M 112 184 L 108 184 L 104 184 L 100 184 L 96 184 L 92 184 L 88 184 L 84 184 L 80 184 L 76 184 L 76 188 L 76 192 L 80 192 L 84 192 L 88 192 L 92 192 L 96 192 L 100 192 L 104 192 L 108 192 L 112 192 L 112 188 L 112 184 z M 84 56 L 84 60 L 84 64 L 84 68 L 88 68 L 92 68 L 92 64 L 92 60 L 96 60 L 96 56 L 92 56 L 88 56 L 84 56 z M 96 60 L 96 64 L 100 64 L 100 60 L 96 60 z M 84 68 L 80 68 L 80 72 L 84 72 L 84 68 z M 80 72 L 76 72 L 72 72 L 72 76 L 72 80 L 76 80 L 80 80 L 80 76 L 80 72 z M 72 80 L 68 80 L 68 84 L 72 84 L 72 80 z M 68 84 L 64 84 L 60 84 L 56 84 L 52 84 L 48 84 L 44 84 L 40 84 L 36 84 L 32 84 L 28 84 L 28 88 L 32 88 L 32 92 L 36 92 L 40 92 L 44 92 L 48 92 L 52 92 L 56 92 L 60 92 L 64 92 L 68 92 L 68 88 L 68 84 z "
     id="rect2178" />
</svg>
