<?xml version="1.0" encoding="UTF-8" standalone="no"?>
<svg
   xmlns:dc="http://purl.org/dc/elements/1.1/"
   xmlns:cc="http://creativecommons.org/ns#"
   xmlns:rdf="http://www.w3.org/1999/02/22-rdf-syntax-ns#"
   xmlns:svg="http://www.w3.org/2000/svg"
   xmlns="http://www.w3.org/2000/svg"
   height="192px"
   version="1.1"
   width="192px"
   id="svg2986">
  <metadata
     id="metadata2990">
    <rdf:RDF>
      <cc:Work
         rdf:about="">
        <dc:format>image/svg+xml</dc:format>
        <dc:type
           rdf:resource="http://purl.org/dc/dcmitype/StillImage" />
      </cc:Work>
    </rdf:RDF>
  </metadata>
  <defs
     id="defs2" />
  <path
     id="rect136"
     d="M 92 12 L 92 16 L 96 16 L 96 20 L 100 20 L 100 24 L 104 24 L 108 24 L 108 20 L 108 16 L 108 12 L 104 12 L 100 12 L 96 12 L 92 12 z "
     style="fill:#ff00ff" />
  <path
     id="rect208"
     d="M 92 16 L 92 20 L 96 20 L 96 16 L 92 16 z M 96 20 L 96 24 L 100 24 L 100 20 L 96 20 z M 100 24 L 100 28 L 104 28 L 108 28 L 108 24 L 104 24 L 100 24 z M 108 24 L 112 24 L 112 20 L 112 16 L 108 16 L 108 20 L 108 24 z "
     style="fill:#800080" />
  <path
     id="rect564"
     d="M 88 32 L 88 36 L 88 40 L 84 40 L 84 44 L 88 44 L 88 48 L 92 48 L 96 48 L 100 48 L 100 44 L 100 40 L 100 36 L 96 36 L 96 32 L 92 32 L 88 32 z "
     style="fill:#00ff00" />
  <path
     id="rect636"
     d="M 100 40 L 100 44 L 100 48 L 104 48 L 104 44 L 104 40 L 100 40 z M 100 48 L 96 48 L 92 48 L 88 48 L 88 52 L 92 52 L 96 52 L 100 52 L 100 48 z M 88 48 L 88 44 L 84 44 L 84 48 L 88 48 z "
     style="fill:#008000" />
  <path
     id="rect1156"
     d="M 120 68 L 120 72 L 116 72 L 116 76 L 120 76 L 120 80 L 124 80 L 128 80 L 132 80 L 132 76 L 136 76 L 136 72 L 132 72 L 132 68 L 128 68 L 124 68 L 120 68 z "
     style="fill:#0000ff" />
  <path
     id="rect1228"
     d="M 40 24 L 40 28 L 40 32 L 40 36 L 40 40 L 40 44 L 44 44 L 48 44 L 52 44 L 56 44 L 60 44 L 64 44 L 68 44 L 72 44 L 72 40 L 72 36 L 72 32 L 72 28 L 72 24 L 68 24 L 64 24 L 60 24 L 56 24 L 52 24 L 48 24 L 44 24 L 40 24 z M 132 24 L 132 28 L 136 28 L 136 32 L 136 36 L 140 36 L 140 40 L 144 40 L 148 40 L 148 36 L 148 32 L 152 32 L 156 32 L 160 32 L 164 32 L 168 32 L 172 32 L 172 36 L 172 40 L 168 40 L 164 40 L 160 40 L 156 40 L 152 40 L 148 40 L 148 44 L 152 44 L 156 44 L 160 44 L 164 44 L 168 44 L 172 44 L 176 44 L 176 40 L 176 36 L 176 32 L 176 28 L 176 24 L 172 24 L 168 24 L 164 24 L 160 24 L 156 24 L 152 24 L 148 24 L 144 24 L 140 24 L 136 24 L 132 24 z M 132 68 L 132 72 L 136 72 L 136 68 L 132 68 z M 136 72 L 136 76 L 140 76 L 140 72 L 136 72 z M 136 76 L 132 76 L 132 80 L 136 80 L 136 76 z M 132 80 L 128 80 L 124 80 L 120 80 L 120 84 L 124 84 L 128 84 L 132 84 L 132 80 z M 120 80 L 120 76 L 116 76 L 116 80 L 120 80 z "
     style="fill:#000080" />
  <path
     id="rect2782"
     d="M 108 60 L 108 64 L 108 68 L 112 68 L 112 64 L 112 60 L 108 60 z M 108 68 L 104 68 L 104 72 L 108 72 L 108 68 z M 104 72 L 100 72 L 96 72 L 96 76 L 100 76 L 104 76 L 104 72 z M 96 72 L 96 68 L 92 68 L 92 72 L 96 72 z M 48 68 L 48 72 L 52 72 L 56 72 L 60 72 L 60 68 L 56 68 L 52 68 L 48 68 z M 48 72 L 44 72 L 44 76 L 44 80 L 48 80 L 48 76 L 48 72 z M 44 80 L 40 80 L 40 84 L 40 88 L 44 88 L 44 84 L 44 80 z M 40 88 L 36 88 L 36 92 L 36 96 L 40 96 L 40 92 L 40 88 z M 36 96 L 32 96 L 32 100 L 32 104 L 36 104 L 36 100 L 36 96 z M 32 104 L 28 104 L 28 108 L 28 112 L 32 112 L 32 108 L 32 104 z M 28 112 L 24 112 L 24 116 L 24 120 L 28 120 L 28 116 L 28 112 z M 24 120 L 20 120 L 20 124 L 20 128 L 24 128 L 24 124 L 24 120 z M 20 128 L 16 128 L 16 132 L 16 136 L 20 136 L 20 132 L 20 128 z M 16 136 L 12 136 L 12 140 L 12 144 L 16 144 L 16 140 L 16 136 z M 12 144 L 8 144 L 8 148 L 8 152 L 12 152 L 12 148 L 12 144 z M 8 152 L 4 152 L 4 156 L 4 160 L 8 160 L 8 156 L 8 152 z M 4 160 L 0 160 L 0 164 L 4 164 L 4 160 z M 56 100 L 56 104 L 56 108 L 60 108 L 60 104 L 60 100 L 56 100 z M 60 108 L 60 112 L 60 116 L 64 116 L 64 112 L 64 108 L 60 108 z M 64 116 L 64 120 L 64 124 L 68 124 L 68 120 L 68 116 L 64 116 z M 68 124 L 68 128 L 68 132 L 64 132 L 60 132 L 56 132 L 52 132 L 48 132 L 44 132 L 40 132 L 36 132 L 36 136 L 40 136 L 44 136 L 48 136 L 52 136 L 56 136 L 60 136 L 64 136 L 68 136 L 72 136 L 76 136 L 76 132 L 72 132 L 72 128 L 72 124 L 68 124 z M 80 152 L 80 156 L 80 160 L 84 160 L 84 156 L 84 152 L 80 152 z M 84 160 L 84 164 L 88 164 L 88 160 L 84 160 z "
     style="fill:#800000" />
  <path
     id="rect2790"
     d="M 96 56 L 96 60 L 92 60 L 92 64 L 92 68 L 96 68 L 96 72 L 100 72 L 104 72 L 104 68 L 108 68 L 108 64 L 108 60 L 108 56 L 104 56 L 100 56 L 96 56 z M 48 72 L 48 76 L 48 80 L 44 80 L 44 84 L 44 88 L 40 88 L 40 92 L 40 96 L 36 96 L 36 100 L 36 104 L 32 104 L 32 108 L 32 112 L 28 112 L 28 116 L 28 120 L 24 120 L 24 124 L 24 128 L 20 128 L 20 132 L 20 136 L 16 136 L 16 140 L 16 144 L 12 144 L 12 148 L 12 152 L 8 152 L 8 156 L 8 160 L 4 160 L 4 164 L 8 164 L 12 164 L 16 164 L 20 164 L 20 160 L 24 160 L 24 156 L 24 152 L 28 152 L 28 148 L 28 144 L 32 144 L 36 144 L 40 144 L 44 144 L 48 144 L 52 144 L 56 144 L 60 144 L 64 144 L 68 144 L 72 144 L 76 144 L 80 144 L 80 148 L 80 152 L 84 152 L 84 156 L 84 160 L 88 160 L 88 164 L 92 164 L 96 164 L 100 164 L 104 164 L 104 160 L 100 160 L 100 156 L 100 152 L 96 152 L 96 148 L 96 144 L 92 144 L 92 140 L 92 136 L 88 136 L 88 132 L 88 128 L 84 128 L 84 124 L 84 120 L 80 120 L 80 116 L 80 112 L 76 112 L 76 108 L 76 104 L 72 104 L 72 100 L 72 96 L 68 96 L 68 92 L 68 88 L 64 88 L 64 84 L 64 80 L 60 80 L 60 76 L 60 72 L 56 72 L 52 72 L 48 72 z M 52 92 L 56 92 L 56 96 L 56 100 L 60 100 L 60 104 L 60 108 L 64 108 L 64 112 L 64 116 L 68 116 L 68 120 L 68 124 L 72 124 L 72 128 L 72 132 L 76 132 L 76 136 L 72 136 L 68 136 L 64 136 L 60 136 L 56 136 L 52 136 L 48 136 L 44 136 L 40 136 L 36 136 L 32 136 L 32 132 L 36 132 L 36 128 L 36 124 L 40 124 L 40 120 L 40 116 L 44 116 L 44 112 L 44 108 L 48 108 L 48 104 L 48 100 L 52 100 L 52 96 L 52 92 z "
     style="fill:#ff0000" />
  <path
     id="rect2862"
     d="M 92 8 L 92 12 L 96 12 L 96 8 L 92 8 z M 92 12 L 88 12 L 88 16 L 92 16 L 92 12 z M 88 16 L 84 16 L 84 20 L 88 20 L 88 16 z M 88 20 L 88 24 L 92 24 L 92 20 L 88 20 z M 92 24 L 92 28 L 96 28 L 96 24 L 92 24 z M 96 28 L 96 32 L 100 32 L 100 28 L 96 28 z M 100 32 L 100 36 L 104 36 L 104 32 L 100 32 z M 104 32 L 108 32 L 108 28 L 104 28 L 104 32 z M 108 28 L 112 28 L 112 24 L 108 24 L 108 28 z M 112 24 L 116 24 L 116 20 L 112 20 L 112 24 z M 116 20 L 120 20 L 120 16 L 116 16 L 116 20 z M 116 16 L 116 12 L 112 12 L 112 16 L 116 16 z M 112 12 L 112 8 L 108 8 L 108 12 L 112 12 z M 120 20 L 120 24 L 124 24 L 124 20 L 120 20 z M 120 24 L 116 24 L 116 28 L 120 28 L 120 24 z M 120 28 L 120 32 L 124 32 L 124 28 L 120 28 z M 124 32 L 124 36 L 128 36 L 128 32 L 124 32 z M 128 36 L 128 40 L 132 40 L 132 36 L 128 36 z M 132 40 L 132 44 L 136 44 L 136 40 L 132 40 z M 136 44 L 136 48 L 140 48 L 140 44 L 136 44 z M 140 48 L 140 52 L 144 52 L 144 48 L 140 48 z M 144 52 L 144 56 L 148 56 L 148 52 L 144 52 z M 148 56 L 148 60 L 152 60 L 152 56 L 148 56 z M 152 60 L 152 64 L 156 64 L 156 60 L 152 60 z M 152 64 L 148 64 L 148 68 L 152 68 L 152 64 z M 152 68 L 152 72 L 156 72 L 156 68 L 152 68 z M 152 72 L 148 72 L 148 76 L 152 76 L 152 72 z M 148 76 L 144 76 L 144 80 L 148 80 L 148 76 z M 144 80 L 140 80 L 140 84 L 144 84 L 144 80 z M 140 84 L 136 84 L 136 88 L 140 88 L 140 84 z M 136 84 L 136 80 L 132 80 L 132 84 L 136 84 z M 132 84 L 128 84 L 128 88 L 132 88 L 132 84 z M 136 80 L 140 80 L 140 76 L 136 76 L 136 80 z M 140 76 L 144 76 L 144 72 L 140 72 L 140 76 z M 140 72 L 140 68 L 136 68 L 136 72 L 140 72 z M 136 68 L 136 64 L 132 64 L 132 68 L 136 68 z M 132 64 L 132 60 L 128 60 L 128 64 L 132 64 z M 128 64 L 124 64 L 124 68 L 128 68 L 128 64 z M 124 64 L 124 60 L 120 60 L 120 64 L 124 64 z M 120 64 L 116 64 L 116 68 L 120 68 L 120 64 z M 116 68 L 112 68 L 112 72 L 116 72 L 116 68 z M 112 72 L 108 72 L 108 76 L 112 76 L 112 72 z M 112 76 L 112 80 L 116 80 L 116 76 L 112 76 z M 116 80 L 116 84 L 120 84 L 120 80 L 116 80 z M 120 84 L 120 88 L 124 88 L 124 84 L 120 84 z M 116 84 L 112 84 L 112 88 L 116 88 L 116 84 z M 112 84 L 112 80 L 108 80 L 108 84 L 112 84 z M 108 84 L 104 84 L 104 88 L 108 88 L 108 84 z M 104 84 L 104 80 L 100 80 L 100 84 L 104 84 z M 100 80 L 100 76 L 96 76 L 96 80 L 100 80 z M 96 76 L 96 72 L 92 72 L 92 76 L 96 76 z M 92 72 L 92 68 L 88 68 L 88 72 L 92 72 z M 88 68 L 88 64 L 84 64 L 84 68 L 88 68 z M 88 64 L 92 64 L 92 60 L 88 60 L 88 64 z M 88 60 L 88 56 L 84 56 L 84 60 L 88 60 z M 84 56 L 84 52 L 80 52 L 80 56 L 84 56 z M 84 52 L 88 52 L 88 48 L 84 48 L 84 52 z M 84 48 L 84 44 L 80 44 L 80 48 L 84 48 z M 88 52 L 88 56 L 92 56 L 92 52 L 88 52 z M 92 56 L 92 60 L 96 60 L 96 56 L 92 56 z M 96 56 L 100 56 L 100 52 L 96 52 L 96 56 z M 100 52 L 104 52 L 104 48 L 100 48 L 100 52 z M 104 48 L 108 48 L 108 44 L 104 44 L 104 48 z M 108 44 L 112 44 L 112 40 L 108 40 L 108 44 z M 108 40 L 108 36 L 104 36 L 104 40 L 108 40 z M 108 36 L 112 36 L 112 32 L 108 32 L 108 36 z M 112 32 L 116 32 L 116 28 L 112 28 L 112 32 z M 116 32 L 116 36 L 120 36 L 120 32 L 116 32 z M 120 36 L 120 40 L 124 40 L 124 36 L 120 36 z M 124 40 L 124 44 L 128 44 L 128 40 L 124 40 z M 124 44 L 120 44 L 120 48 L 124 48 L 124 44 z M 120 48 L 116 48 L 116 52 L 120 52 L 120 48 z M 116 52 L 112 52 L 112 56 L 116 56 L 116 52 z M 116 56 L 116 60 L 120 60 L 120 56 L 116 56 z M 116 60 L 112 60 L 112 64 L 116 64 L 116 60 z M 112 60 L 112 56 L 108 56 L 108 60 L 112 60 z M 108 56 L 108 52 L 104 52 L 104 56 L 108 56 z M 108 52 L 112 52 L 112 48 L 108 48 L 108 52 z M 112 48 L 116 48 L 116 44 L 112 44 L 112 48 z M 116 44 L 120 44 L 120 40 L 116 40 L 116 44 z M 116 40 L 116 36 L 112 36 L 112 40 L 116 40 z M 104 80 L 108 80 L 108 76 L 104 76 L 104 80 z M 136 64 L 140 64 L 140 60 L 136 60 L 136 64 z M 140 60 L 144 60 L 144 56 L 140 56 L 140 60 z M 140 56 L 140 52 L 136 52 L 136 56 L 140 56 z M 144 60 L 144 64 L 148 64 L 148 60 L 144 60 z M 144 64 L 140 64 L 140 68 L 144 68 L 144 64 z M 144 68 L 144 72 L 148 72 L 148 68 L 144 68 z M 92 28 L 88 28 L 88 32 L 92 32 L 92 28 z M 88 32 L 84 32 L 84 36 L 88 36 L 88 32 z M 84 36 L 80 36 L 80 40 L 84 40 L 84 36 z M 84 32 L 84 28 L 80 28 L 80 32 L 84 32 z M 84 28 L 88 28 L 88 24 L 84 24 L 84 28 z M 100 8 L 100 12 L 104 12 L 104 8 L 100 8 z M 164 112 L 164 116 L 168 116 L 168 112 L 164 112 z M 164 116 L 160 116 L 160 120 L 164 120 L 164 116 z M 160 120 L 156 120 L 156 124 L 160 124 L 160 120 z M 160 124 L 160 128 L 164 128 L 164 124 L 160 124 z M 160 128 L 156 128 L 156 132 L 160 132 L 160 128 z M 156 132 L 152 132 L 152 136 L 156 136 L 156 132 z M 152 132 L 152 128 L 148 128 L 148 132 L 152 132 z M 148 132 L 144 132 L 144 136 L 148 136 L 148 132 z M 152 128 L 156 128 L 156 124 L 152 124 L 152 128 z M 136 136 L 136 140 L 140 140 L 140 136 L 136 136 z M 136 144 L 136 148 L 140 148 L 140 144 L 136 144 z M 136 148 L 132 148 L 132 152 L 136 152 L 136 148 z M 136 152 L 136 156 L 140 156 L 140 152 L 136 152 z M 148 144 L 148 148 L 152 148 L 152 144 L 148 144 z M 152 148 L 152 152 L 156 152 L 156 148 L 152 148 z M 156 148 L 160 148 L 160 144 L 156 144 L 156 148 z M 160 148 L 160 152 L 164 152 L 164 148 L 160 148 z M 160 152 L 156 152 L 156 156 L 160 156 L 160 152 z M 160 156 L 160 160 L 164 160 L 164 156 L 160 156 z M 160 160 L 156 160 L 156 164 L 160 164 L 160 160 z M 160 164 L 160 168 L 164 168 L 164 164 L 160 164 z M 156 164 L 152 164 L 152 168 L 156 168 L 156 164 z M 152 164 L 152 160 L 148 160 L 148 164 L 152 164 z M 148 160 L 148 156 L 144 156 L 144 160 L 148 160 z M 148 156 L 152 156 L 152 152 L 148 152 L 148 156 z M 148 152 L 148 148 L 144 148 L 144 152 L 148 152 z M 152 156 L 152 160 L 156 160 L 156 156 L 152 156 z "
     style="fill:#ffff00" />
  <path
     id="rect2910"
     d="M 36 20 L 36 24 L 36 28 L 36 32 L 36 36 L 36 40 L 36 44 L 36 48 L 36 52 L 36 56 L 36 60 L 36 64 L 36 68 L 36 72 L 36 76 L 36 80 L 36 84 L 36 88 L 40 88 L 40 84 L 40 80 L 40 76 L 40 72 L 40 68 L 40 64 L 40 60 L 40 56 L 40 52 L 40 48 L 40 44 L 40 40 L 40 36 L 40 32 L 40 28 L 40 24 L 44 24 L 48 24 L 52 24 L 56 24 L 60 24 L 64 24 L 68 24 L 72 24 L 76 24 L 76 20 L 72 20 L 68 20 L 64 20 L 60 20 L 56 20 L 52 20 L 48 20 L 44 20 L 40 20 L 36 20 z M 132 20 L 132 24 L 136 24 L 140 24 L 144 24 L 148 24 L 152 24 L 156 24 L 160 24 L 164 24 L 168 24 L 172 24 L 176 24 L 176 20 L 172 20 L 168 20 L 164 20 L 160 20 L 156 20 L 152 20 L 148 20 L 144 20 L 140 20 L 136 20 L 132 20 z M 132 56 L 132 60 L 136 60 L 136 56 L 132 56 z M 64 76 L 64 80 L 68 80 L 68 76 L 64 76 z M 68 84 L 68 88 L 72 88 L 72 84 L 68 84 z M 72 92 L 72 96 L 76 96 L 76 92 L 72 92 z M 52 100 L 52 104 L 52 108 L 48 108 L 48 112 L 48 116 L 44 116 L 44 120 L 44 124 L 40 124 L 40 128 L 40 132 L 44 132 L 44 128 L 48 128 L 48 124 L 48 120 L 52 120 L 52 116 L 52 112 L 56 112 L 56 108 L 56 104 L 56 100 L 52 100 z M 76 100 L 76 104 L 80 104 L 80 100 L 76 100 z M 172 104 L 172 108 L 176 108 L 176 104 L 172 104 z M 80 108 L 80 112 L 84 112 L 84 108 L 80 108 z M 168 112 L 168 116 L 172 116 L 172 112 L 168 112 z M 84 116 L 84 120 L 88 120 L 88 116 L 84 116 z M 88 124 L 88 128 L 92 128 L 92 124 L 88 124 z M 168 124 L 168 128 L 168 132 L 168 136 L 172 136 L 172 132 L 172 128 L 172 124 L 168 124 z M 172 136 L 172 140 L 176 140 L 176 136 L 172 136 z M 172 140 L 168 140 L 168 144 L 168 148 L 168 152 L 172 152 L 172 148 L 172 144 L 172 140 z M 92 132 L 92 136 L 96 136 L 96 132 L 92 132 z M 96 140 L 96 144 L 100 144 L 100 140 L 96 140 z M 176 144 L 176 148 L 180 148 L 180 144 L 176 144 z M 32 148 L 32 152 L 28 152 L 28 156 L 28 160 L 24 160 L 24 164 L 24 168 L 20 168 L 16 168 L 12 168 L 8 168 L 4 168 L 4 172 L 8 172 L 12 172 L 16 172 L 20 172 L 24 172 L 28 172 L 28 168 L 28 164 L 32 164 L 32 160 L 32 156 L 36 156 L 36 152 L 40 152 L 44 152 L 48 152 L 52 152 L 56 152 L 60 152 L 64 152 L 68 152 L 72 152 L 76 152 L 76 148 L 72 148 L 68 148 L 64 148 L 60 148 L 56 148 L 52 148 L 48 148 L 44 148 L 40 148 L 36 148 L 32 148 z M 100 148 L 100 152 L 104 152 L 104 148 L 100 148 z M 104 152 L 104 156 L 104 160 L 108 160 L 108 156 L 108 152 L 104 152 z M 108 160 L 108 164 L 108 168 L 104 168 L 100 168 L 96 168 L 92 168 L 88 168 L 88 172 L 92 172 L 96 172 L 100 172 L 104 172 L 108 172 L 112 172 L 112 168 L 112 164 L 112 160 L 108 160 z M 168 156 L 168 160 L 168 164 L 168 168 L 172 168 L 172 164 L 172 160 L 176 160 L 176 156 L 172 156 L 168 156 z M 168 168 L 164 168 L 164 172 L 168 172 L 168 168 z "
     style="fill:#808080" />
  <path
     id="rect2964"
     d="M 92 4 L 92 8 L 96 8 L 100 8 L 104 8 L 108 8 L 112 8 L 116 8 L 116 4 L 112 4 L 108 4 L 104 4 L 100 4 L 96 4 L 92 4 z M 92 8 L 88 8 L 88 12 L 92 12 L 92 8 z M 88 12 L 84 12 L 84 16 L 88 16 L 88 12 z M 84 16 L 80 16 L 80 20 L 80 24 L 84 24 L 84 20 L 84 16 z M 80 24 L 76 24 L 76 28 L 76 32 L 76 36 L 76 40 L 76 44 L 76 48 L 76 52 L 76 56 L 76 60 L 80 60 L 80 56 L 80 52 L 80 48 L 80 44 L 80 40 L 80 36 L 80 32 L 80 28 L 80 24 z M 80 60 L 80 64 L 80 68 L 84 68 L 84 64 L 84 60 L 80 60 z M 84 68 L 84 72 L 84 76 L 88 76 L 88 72 L 88 68 L 84 68 z M 88 76 L 88 80 L 92 80 L 92 76 L 88 76 z M 92 80 L 92 84 L 96 84 L 100 84 L 100 80 L 96 80 L 92 80 z M 100 84 L 100 88 L 104 88 L 104 84 L 100 84 z M 100 88 L 96 88 L 92 88 L 92 84 L 88 84 L 88 80 L 84 80 L 84 76 L 80 76 L 80 72 L 80 68 L 76 68 L 76 64 L 76 60 L 72 60 L 72 56 L 72 52 L 72 48 L 68 48 L 64 48 L 60 48 L 56 48 L 52 48 L 48 48 L 44 48 L 44 52 L 44 56 L 44 60 L 44 64 L 44 68 L 44 72 L 48 72 L 48 68 L 52 68 L 56 68 L 60 68 L 60 72 L 64 72 L 64 76 L 68 76 L 68 80 L 68 84 L 72 84 L 72 88 L 72 92 L 76 92 L 76 96 L 76 100 L 80 100 L 80 104 L 80 108 L 84 108 L 84 112 L 84 116 L 88 116 L 88 120 L 88 124 L 92 124 L 92 128 L 92 132 L 96 132 L 96 136 L 96 140 L 100 140 L 100 144 L 104 144 L 108 144 L 112 144 L 116 144 L 120 144 L 124 144 L 128 144 L 128 140 L 128 136 L 132 136 L 132 132 L 136 132 L 136 128 L 140 128 L 144 128 L 148 128 L 148 124 L 152 124 L 152 120 L 156 120 L 156 116 L 160 116 L 160 112 L 164 112 L 164 108 L 168 108 L 168 104 L 172 104 L 172 100 L 172 96 L 172 92 L 172 88 L 172 84 L 172 80 L 172 76 L 172 72 L 172 68 L 172 64 L 172 60 L 172 56 L 172 52 L 172 48 L 168 48 L 164 48 L 160 48 L 156 48 L 156 52 L 160 52 L 160 56 L 160 60 L 164 60 L 164 64 L 164 68 L 164 72 L 164 76 L 160 76 L 160 80 L 160 84 L 156 84 L 156 88 L 152 88 L 148 88 L 148 92 L 144 92 L 140 92 L 140 96 L 136 96 L 132 96 L 128 96 L 124 96 L 120 96 L 116 96 L 112 96 L 108 96 L 108 92 L 104 92 L 100 92 L 100 88 z M 132 136 L 132 140 L 132 144 L 132 148 L 136 148 L 136 144 L 140 144 L 140 140 L 136 140 L 136 136 L 132 136 z M 136 148 L 136 152 L 140 152 L 140 148 L 136 148 z M 148 32 L 148 36 L 152 36 L 152 32 L 148 32 z M 156 32 L 156 36 L 160 36 L 160 32 L 156 32 z M 164 32 L 164 36 L 168 36 L 168 32 L 164 32 z M 124 48 L 124 52 L 124 56 L 128 56 L 132 56 L 132 52 L 132 48 L 128 48 L 124 48 z M 56 108 L 56 112 L 52 112 L 52 116 L 52 120 L 48 120 L 48 124 L 48 128 L 44 128 L 44 132 L 48 132 L 52 132 L 56 132 L 60 132 L 64 132 L 68 132 L 68 128 L 68 124 L 64 124 L 64 120 L 64 116 L 60 116 L 60 112 L 60 108 L 56 108 z M 176 112 L 176 116 L 176 120 L 176 124 L 176 128 L 176 132 L 176 136 L 176 140 L 180 140 L 180 144 L 180 148 L 180 152 L 180 156 L 176 156 L 176 160 L 176 164 L 176 168 L 176 172 L 176 176 L 176 180 L 176 184 L 180 184 L 180 180 L 184 180 L 184 176 L 184 172 L 184 168 L 184 164 L 188 164 L 188 160 L 188 156 L 188 152 L 188 148 L 188 144 L 188 140 L 188 136 L 188 132 L 184 132 L 184 128 L 184 124 L 184 120 L 184 116 L 180 116 L 180 112 L 176 112 z M 176 140 L 172 140 L 172 144 L 176 144 L 176 140 z M 164 116 L 164 120 L 168 120 L 168 116 L 164 116 z M 164 120 L 160 120 L 160 124 L 164 124 L 164 120 z M 160 124 L 156 124 L 156 128 L 160 128 L 160 124 z M 160 128 L 160 132 L 156 132 L 156 136 L 152 136 L 152 132 L 148 132 L 148 136 L 144 136 L 144 140 L 144 144 L 144 148 L 148 148 L 148 144 L 152 144 L 152 148 L 156 148 L 156 144 L 160 144 L 160 148 L 164 148 L 164 144 L 164 140 L 164 136 L 164 132 L 164 128 L 160 128 z M 160 148 L 156 148 L 156 152 L 160 152 L 160 148 z M 152 148 L 148 148 L 148 152 L 152 152 L 152 148 z M 152 132 L 156 132 L 156 128 L 152 128 L 152 132 z "
     style="fill:#ffffff" />
  <path
     id="rect2972"
     d="M 92 0 L 92 4 L 96 4 L 100 4 L 104 4 L 108 4 L 112 4 L 116 4 L 116 0 L 112 0 L 108 0 L 104 0 L 100 0 L 96 0 L 92 0 z M 92 4 L 88 4 L 88 8 L 92 8 L 92 4 z M 88 8 L 84 8 L 84 12 L 88 12 L 88 8 z M 84 12 L 80 12 L 80 16 L 84 16 L 84 12 z M 80 16 L 76 16 L 76 20 L 76 24 L 80 24 L 80 20 L 80 16 z M 76 24 L 72 24 L 72 28 L 72 32 L 72 36 L 72 40 L 72 44 L 72 48 L 72 52 L 72 56 L 72 60 L 76 60 L 76 56 L 76 52 L 76 48 L 76 44 L 76 40 L 76 36 L 76 32 L 76 28 L 76 24 z M 76 60 L 76 64 L 76 68 L 80 68 L 80 64 L 80 60 L 76 60 z M 80 68 L 80 72 L 80 76 L 84 76 L 84 72 L 84 68 L 80 68 z M 84 76 L 84 80 L 88 80 L 88 76 L 84 76 z M 88 80 L 88 84 L 92 84 L 92 80 L 88 80 z M 92 84 L 92 88 L 96 88 L 100 88 L 100 84 L 96 84 L 92 84 z M 116 8 L 116 12 L 120 12 L 120 8 L 116 8 z M 120 12 L 120 16 L 120 20 L 124 20 L 124 16 L 124 12 L 120 12 z M 124 20 L 124 24 L 124 28 L 128 28 L 128 24 L 128 20 L 124 20 z M 128 28 L 128 32 L 128 36 L 132 36 L 132 32 L 132 28 L 128 28 z M 132 36 L 132 40 L 136 40 L 136 36 L 132 36 z M 136 40 L 136 44 L 140 44 L 140 40 L 136 40 z M 140 44 L 140 48 L 144 48 L 148 48 L 148 44 L 144 44 L 140 44 z M 148 48 L 148 52 L 152 52 L 152 48 L 148 48 z M 152 52 L 152 56 L 152 60 L 156 60 L 156 56 L 156 52 L 152 52 z M 156 60 L 156 64 L 156 68 L 156 72 L 156 76 L 160 76 L 160 72 L 160 68 L 160 64 L 160 60 L 156 60 z M 156 76 L 152 76 L 152 80 L 148 80 L 148 84 L 152 84 L 156 84 L 156 80 L 156 76 z M 148 84 L 144 84 L 140 84 L 140 88 L 144 88 L 148 88 L 148 84 z M 140 88 L 136 88 L 132 88 L 128 88 L 124 88 L 120 88 L 116 88 L 112 88 L 108 88 L 108 92 L 112 92 L 116 92 L 120 92 L 124 92 L 128 92 L 132 92 L 136 92 L 140 92 L 140 88 z M 124 44 L 124 48 L 128 48 L 132 48 L 132 44 L 128 44 L 124 44 z M 124 48 L 120 48 L 120 52 L 120 56 L 124 56 L 124 52 L 124 48 z M 172 100 L 172 104 L 176 104 L 176 100 L 172 100 z M 172 104 L 168 104 L 168 108 L 172 108 L 172 104 z M 168 108 L 164 108 L 164 112 L 168 112 L 168 108 z M 164 112 L 160 112 L 160 116 L 164 116 L 164 112 z M 160 116 L 156 116 L 156 120 L 160 120 L 160 116 z M 156 120 L 152 120 L 152 124 L 156 124 L 156 120 z M 152 124 L 148 124 L 148 128 L 152 128 L 152 124 z M 148 128 L 144 128 L 140 128 L 136 128 L 136 132 L 140 132 L 144 132 L 148 132 L 148 128 z M 136 132 L 132 132 L 132 136 L 136 136 L 136 132 z M 132 136 L 128 136 L 128 140 L 128 144 L 128 148 L 128 152 L 128 156 L 132 156 L 132 152 L 132 148 L 132 144 L 132 140 L 132 136 z M 132 156 L 132 160 L 136 160 L 140 160 L 144 160 L 144 156 L 144 152 L 144 148 L 144 144 L 144 140 L 144 136 L 140 136 L 140 140 L 140 144 L 140 148 L 140 152 L 140 156 L 136 156 L 132 156 z M 144 160 L 144 164 L 148 164 L 148 160 L 144 160 z M 148 164 L 148 168 L 152 168 L 152 164 L 148 164 z M 152 168 L 152 172 L 156 172 L 156 176 L 160 176 L 160 180 L 164 180 L 164 184 L 168 184 L 168 188 L 172 188 L 172 184 L 172 180 L 168 180 L 168 176 L 168 172 L 164 172 L 160 172 L 160 168 L 156 168 L 152 168 z "
     style="fill:#808000" />
  <path
     id="rect2976"
     d="M 96 8 L 96 12 L 100 12 L 100 8 L 96 8 z M 104 8 L 104 12 L 108 12 L 108 8 L 104 8 z M 108 12 L 108 16 L 112 16 L 112 12 L 108 12 z M 112 12 L 116 12 L 116 8 L 112 8 L 112 12 z M 116 12 L 116 16 L 120 16 L 120 12 L 116 12 z M 116 16 L 112 16 L 112 20 L 116 20 L 116 16 z M 116 20 L 116 24 L 120 24 L 120 20 L 116 20 z M 120 24 L 120 28 L 124 28 L 124 24 L 120 24 z M 124 28 L 124 32 L 128 32 L 128 28 L 124 28 z M 124 32 L 120 32 L 120 36 L 124 36 L 124 32 z M 124 36 L 124 40 L 128 40 L 128 36 L 124 36 z M 128 40 L 128 44 L 132 44 L 132 40 L 128 40 z M 132 44 L 132 48 L 136 48 L 136 44 L 132 44 z M 136 48 L 136 52 L 140 52 L 140 48 L 136 48 z M 140 52 L 140 56 L 144 56 L 144 52 L 140 52 z M 144 52 L 148 52 L 148 48 L 144 48 L 144 52 z M 148 52 L 148 56 L 152 56 L 152 52 L 148 52 z M 148 56 L 144 56 L 144 60 L 148 60 L 148 56 z M 148 60 L 148 64 L 152 64 L 152 60 L 148 60 z M 152 64 L 152 68 L 156 68 L 156 64 L 152 64 z M 152 68 L 148 68 L 148 72 L 152 72 L 152 68 z M 152 72 L 152 76 L 156 76 L 156 72 L 152 72 z M 152 76 L 148 76 L 148 80 L 152 80 L 152 76 z M 148 80 L 144 80 L 144 84 L 148 84 L 148 80 z M 144 80 L 144 76 L 140 76 L 140 80 L 144 80 z M 140 80 L 136 80 L 136 84 L 140 84 L 140 80 z M 136 84 L 132 84 L 132 88 L 136 88 L 136 84 z M 144 76 L 148 76 L 148 72 L 144 72 L 144 76 z M 144 72 L 144 68 L 140 68 L 140 72 L 144 72 z M 140 68 L 140 64 L 136 64 L 136 68 L 140 68 z M 136 64 L 136 60 L 132 60 L 132 64 L 136 64 z M 132 64 L 128 64 L 128 68 L 132 68 L 132 64 z M 128 64 L 128 60 L 124 60 L 124 64 L 128 64 z M 124 64 L 120 64 L 120 68 L 124 68 L 124 64 z M 120 68 L 116 68 L 116 72 L 120 72 L 120 68 z M 116 72 L 112 72 L 112 76 L 116 76 L 116 72 z M 112 76 L 108 76 L 108 80 L 112 80 L 112 76 z M 112 80 L 112 84 L 116 84 L 116 80 L 112 80 z M 116 84 L 116 88 L 120 88 L 120 84 L 116 84 z M 112 84 L 108 84 L 108 88 L 112 88 L 112 84 z M 108 84 L 108 80 L 104 80 L 104 84 L 108 84 z M 104 80 L 104 76 L 100 76 L 100 80 L 104 80 z M 104 76 L 108 76 L 108 72 L 104 72 L 104 76 z M 108 72 L 112 72 L 112 68 L 108 68 L 108 72 z M 112 68 L 116 68 L 116 64 L 112 64 L 112 68 z M 116 64 L 120 64 L 120 60 L 116 60 L 116 64 z M 116 60 L 116 56 L 112 56 L 112 60 L 116 60 z M 112 56 L 112 52 L 108 52 L 108 56 L 112 56 z M 108 52 L 108 48 L 104 48 L 104 52 L 108 52 z M 104 52 L 100 52 L 100 56 L 104 56 L 104 52 z M 108 48 L 112 48 L 112 44 L 108 44 L 108 48 z M 108 44 L 108 40 L 104 40 L 104 44 L 108 44 z M 104 40 L 104 36 L 100 36 L 100 40 L 104 40 z M 100 36 L 100 32 L 96 32 L 96 36 L 100 36 z M 96 32 L 96 28 L 92 28 L 92 32 L 96 32 z M 92 28 L 92 24 L 88 24 L 88 28 L 92 28 z M 88 28 L 84 28 L 84 32 L 88 32 L 88 28 z M 84 32 L 80 32 L 80 36 L 84 36 L 84 32 z M 84 36 L 84 40 L 88 40 L 88 36 L 84 36 z M 84 40 L 80 40 L 80 44 L 84 44 L 84 40 z M 84 28 L 84 24 L 80 24 L 80 28 L 84 28 z M 84 24 L 88 24 L 88 20 L 84 20 L 84 24 z M 88 20 L 92 20 L 92 16 L 88 16 L 88 20 z M 92 20 L 92 24 L 96 24 L 96 20 L 92 20 z M 96 24 L 96 28 L 100 28 L 100 24 L 96 24 z M 100 28 L 100 32 L 104 32 L 104 28 L 100 28 z M 104 32 L 104 36 L 108 36 L 108 32 L 104 32 z M 108 32 L 112 32 L 112 28 L 108 28 L 108 32 z M 112 28 L 116 28 L 116 24 L 112 24 L 112 28 z M 116 28 L 116 32 L 120 32 L 120 28 L 116 28 z M 116 32 L 112 32 L 112 36 L 116 36 L 116 32 z M 116 36 L 116 40 L 120 40 L 120 36 L 116 36 z M 120 40 L 120 44 L 124 44 L 124 40 L 120 40 z M 120 44 L 116 44 L 116 48 L 120 48 L 120 44 z M 116 48 L 112 48 L 112 52 L 116 52 L 116 48 z M 116 52 L 116 56 L 120 56 L 120 52 L 116 52 z M 120 56 L 120 60 L 124 60 L 124 56 L 120 56 z M 116 44 L 116 40 L 112 40 L 112 44 L 116 44 z M 112 40 L 112 36 L 108 36 L 108 40 L 112 40 z M 136 60 L 140 60 L 140 56 L 136 56 L 136 60 z M 140 60 L 140 64 L 144 64 L 144 60 L 140 60 z M 144 64 L 144 68 L 148 68 L 148 64 L 144 64 z M 40 44 L 40 48 L 40 52 L 40 56 L 40 60 L 40 64 L 40 68 L 40 72 L 40 76 L 40 80 L 44 80 L 44 76 L 44 72 L 44 68 L 44 64 L 44 60 L 44 56 L 44 52 L 44 48 L 48 48 L 52 48 L 56 48 L 60 48 L 64 48 L 68 48 L 72 48 L 72 44 L 68 44 L 64 44 L 60 44 L 56 44 L 52 44 L 48 44 L 44 44 L 40 44 z M 152 44 L 152 48 L 156 48 L 160 48 L 164 48 L 168 48 L 172 48 L 172 52 L 172 56 L 172 60 L 172 64 L 172 68 L 172 72 L 172 76 L 172 80 L 172 84 L 172 88 L 172 92 L 172 96 L 172 100 L 176 100 L 176 96 L 176 92 L 176 88 L 176 84 L 176 80 L 176 76 L 176 72 L 176 68 L 176 64 L 176 60 L 176 56 L 176 52 L 176 48 L 176 44 L 172 44 L 168 44 L 164 44 L 160 44 L 156 44 L 152 44 z M 80 48 L 80 52 L 84 52 L 84 48 L 80 48 z M 84 52 L 84 56 L 88 56 L 88 52 L 84 52 z M 88 56 L 88 60 L 92 60 L 92 56 L 88 56 z M 92 56 L 96 56 L 96 52 L 92 52 L 92 56 z M 88 60 L 84 60 L 84 64 L 88 64 L 88 60 z M 88 64 L 88 68 L 92 68 L 92 64 L 88 64 z M 84 60 L 84 56 L 80 56 L 80 60 L 84 60 z M 88 72 L 88 76 L 92 76 L 92 72 L 88 72 z M 92 76 L 92 80 L 96 80 L 96 76 L 92 76 z M 124 84 L 124 88 L 128 88 L 128 84 L 124 84 z M 168 108 L 168 112 L 172 112 L 172 108 L 168 108 z M 176 108 L 176 112 L 180 112 L 180 108 L 176 108 z M 180 112 L 180 116 L 184 116 L 184 112 L 180 112 z M 172 116 L 172 120 L 172 124 L 172 128 L 172 132 L 172 136 L 176 136 L 176 132 L 176 128 L 176 124 L 176 120 L 176 116 L 172 116 z M 164 120 L 164 124 L 168 124 L 168 120 L 164 120 z M 184 128 L 184 132 L 188 132 L 188 128 L 184 128 z M 136 132 L 136 136 L 140 136 L 144 136 L 144 132 L 140 132 L 136 132 z M 100 144 L 100 148 L 104 148 L 108 148 L 112 148 L 116 148 L 120 148 L 124 148 L 128 148 L 128 144 L 124 144 L 120 144 L 116 144 L 112 144 L 108 144 L 104 144 L 100 144 z M 172 144 L 172 148 L 172 152 L 176 152 L 176 148 L 176 144 L 172 144 z M 176 152 L 176 156 L 180 156 L 180 152 L 176 152 z M 132 152 L 132 156 L 136 156 L 136 152 L 132 152 z M 144 152 L 144 156 L 148 156 L 148 152 L 144 152 z M 148 156 L 148 160 L 152 160 L 152 156 L 148 156 z M 152 156 L 156 156 L 156 152 L 152 152 L 152 156 z M 156 156 L 156 160 L 160 160 L 160 156 L 156 156 z M 160 156 L 164 156 L 164 152 L 160 152 L 160 156 z M 160 160 L 160 164 L 164 164 L 164 160 L 160 160 z M 160 164 L 156 164 L 156 168 L 160 168 L 160 164 z M 160 168 L 160 172 L 164 172 L 164 168 L 160 168 z M 156 164 L 156 160 L 152 160 L 152 164 L 156 164 z M 172 160 L 172 164 L 172 168 L 172 172 L 172 176 L 172 180 L 176 180 L 176 176 L 176 172 L 176 168 L 176 164 L 176 160 L 172 160 z M 184 164 L 184 168 L 188 168 L 188 164 L 184 164 z M 180 180 L 180 184 L 184 184 L 184 180 L 180 180 z M 180 184 L 176 184 L 176 188 L 180 188 L 180 184 z "
     style="fill:#c0c0c0" />
  <path
     id="rect2984"
     d="M 116 4 L 116 8 L 120 8 L 120 4 L 116 4 z M 120 8 L 120 12 L 124 12 L 124 8 L 120 8 z M 124 12 L 124 16 L 124 20 L 128 20 L 128 16 L 128 12 L 124 12 z M 128 20 L 128 24 L 128 28 L 132 28 L 132 24 L 132 20 L 128 20 z M 132 28 L 132 32 L 132 36 L 136 36 L 136 32 L 136 28 L 132 28 z M 136 36 L 136 40 L 140 40 L 140 36 L 136 36 z M 140 40 L 140 44 L 144 44 L 148 44 L 148 40 L 144 40 L 140 40 z M 148 40 L 152 40 L 156 40 L 160 40 L 164 40 L 168 40 L 172 40 L 172 36 L 172 32 L 168 32 L 168 36 L 164 36 L 164 32 L 160 32 L 160 36 L 156 36 L 156 32 L 152 32 L 152 36 L 148 36 L 148 40 z M 148 44 L 148 48 L 152 48 L 152 44 L 148 44 z M 152 48 L 152 52 L 156 52 L 156 48 L 152 48 z M 156 52 L 156 56 L 156 60 L 160 60 L 160 56 L 160 52 L 156 52 z M 160 60 L 160 64 L 160 68 L 160 72 L 160 76 L 164 76 L 164 72 L 164 68 L 164 64 L 164 60 L 160 60 z M 160 76 L 156 76 L 156 80 L 156 84 L 160 84 L 160 80 L 160 76 z M 156 84 L 152 84 L 148 84 L 148 88 L 152 88 L 156 88 L 156 84 z M 148 88 L 144 88 L 140 88 L 140 92 L 144 92 L 148 92 L 148 88 z M 140 92 L 136 92 L 132 92 L 128 92 L 124 92 L 120 92 L 116 92 L 112 92 L 108 92 L 108 96 L 112 96 L 116 96 L 120 96 L 124 96 L 128 96 L 132 96 L 136 96 L 140 96 L 140 92 z M 108 92 L 108 88 L 104 88 L 100 88 L 100 92 L 104 92 L 108 92 z M 176 20 L 176 24 L 176 28 L 176 32 L 176 36 L 176 40 L 176 44 L 176 48 L 176 52 L 176 56 L 176 60 L 176 64 L 176 68 L 176 72 L 176 76 L 176 80 L 176 84 L 176 88 L 176 92 L 176 96 L 176 100 L 176 104 L 176 108 L 180 108 L 180 104 L 180 100 L 180 96 L 180 92 L 180 88 L 180 84 L 180 80 L 180 76 L 180 72 L 180 68 L 180 64 L 180 60 L 180 56 L 180 52 L 180 48 L 180 44 L 180 40 L 180 36 L 180 32 L 180 28 L 180 24 L 180 20 L 176 20 z M 180 108 L 180 112 L 184 112 L 184 108 L 180 108 z M 184 112 L 184 116 L 184 120 L 184 124 L 184 128 L 188 128 L 188 124 L 188 120 L 188 116 L 188 112 L 184 112 z M 188 128 L 188 132 L 188 136 L 188 140 L 188 144 L 188 148 L 188 152 L 188 156 L 188 160 L 188 164 L 188 168 L 192 168 L 192 164 L 192 160 L 192 156 L 192 152 L 192 148 L 192 144 L 192 140 L 192 136 L 192 132 L 192 128 L 188 128 z M 188 168 L 184 168 L 184 172 L 184 176 L 184 180 L 184 184 L 188 184 L 188 180 L 188 176 L 188 172 L 188 168 z M 184 184 L 180 184 L 180 188 L 184 188 L 184 184 z M 180 188 L 176 188 L 176 184 L 176 180 L 172 180 L 172 184 L 172 188 L 168 188 L 168 192 L 172 192 L 176 192 L 180 192 L 180 188 z M 168 188 L 168 184 L 164 184 L 164 188 L 168 188 z M 164 184 L 164 180 L 160 180 L 160 184 L 164 184 z M 160 180 L 160 176 L 156 176 L 156 180 L 160 180 z M 156 176 L 156 172 L 152 172 L 152 176 L 156 176 z M 152 172 L 152 168 L 148 168 L 148 172 L 152 172 z M 148 168 L 148 164 L 144 164 L 144 168 L 148 168 z M 144 164 L 144 160 L 140 160 L 136 160 L 132 160 L 132 164 L 136 164 L 140 164 L 144 164 z M 132 160 L 132 156 L 128 156 L 128 160 L 132 160 z M 172 180 L 172 176 L 172 172 L 172 168 L 168 168 L 168 172 L 168 176 L 168 180 L 172 180 z M 168 168 L 168 164 L 168 160 L 168 156 L 172 156 L 176 156 L 176 152 L 172 152 L 168 152 L 168 148 L 168 144 L 168 140 L 172 140 L 172 136 L 168 136 L 168 132 L 168 128 L 168 124 L 164 124 L 164 128 L 164 132 L 164 136 L 164 140 L 164 144 L 164 148 L 164 152 L 164 156 L 164 160 L 164 164 L 164 168 L 168 168 z M 168 124 L 172 124 L 172 120 L 172 116 L 168 116 L 168 120 L 168 124 z M 172 116 L 176 116 L 176 112 L 176 108 L 172 108 L 172 112 L 172 116 z M 176 152 L 180 152 L 180 148 L 176 148 L 176 152 z M 132 48 L 132 52 L 132 56 L 136 56 L 136 52 L 136 48 L 132 48 z M 132 56 L 128 56 L 124 56 L 124 60 L 128 60 L 132 60 L 132 56 z M 60 72 L 60 76 L 60 80 L 64 80 L 64 76 L 64 72 L 60 72 z M 64 80 L 64 84 L 64 88 L 68 88 L 68 84 L 68 80 L 64 80 z M 68 88 L 68 92 L 68 96 L 72 96 L 72 92 L 72 88 L 68 88 z M 72 96 L 72 100 L 72 104 L 76 104 L 76 100 L 76 96 L 72 96 z M 76 104 L 76 108 L 76 112 L 80 112 L 80 108 L 80 104 L 76 104 z M 80 112 L 80 116 L 80 120 L 84 120 L 84 116 L 84 112 L 80 112 z M 84 120 L 84 124 L 84 128 L 88 128 L 88 124 L 88 120 L 84 120 z M 88 128 L 88 132 L 88 136 L 92 136 L 92 132 L 92 128 L 88 128 z M 92 136 L 92 140 L 92 144 L 96 144 L 96 140 L 96 136 L 92 136 z M 96 144 L 96 148 L 96 152 L 100 152 L 100 148 L 100 144 L 96 144 z M 100 152 L 100 156 L 100 160 L 104 160 L 104 156 L 104 152 L 100 152 z M 104 152 L 108 152 L 112 152 L 116 152 L 120 152 L 124 152 L 128 152 L 128 148 L 124 148 L 120 148 L 116 148 L 112 148 L 108 148 L 104 148 L 104 152 z M 104 160 L 104 164 L 100 164 L 96 164 L 92 164 L 88 164 L 84 164 L 84 168 L 88 168 L 92 168 L 96 168 L 100 168 L 104 168 L 108 168 L 108 164 L 108 160 L 104 160 z M 52 92 L 52 96 L 52 100 L 56 100 L 56 96 L 56 92 L 52 92 z M 52 100 L 48 100 L 48 104 L 48 108 L 52 108 L 52 104 L 52 100 z M 48 108 L 44 108 L 44 112 L 44 116 L 48 116 L 48 112 L 48 108 z M 44 116 L 40 116 L 40 120 L 40 124 L 44 124 L 44 120 L 44 116 z M 40 124 L 36 124 L 36 128 L 36 132 L 40 132 L 40 128 L 40 124 z M 36 132 L 32 132 L 32 136 L 36 136 L 36 132 z M 176 140 L 176 144 L 180 144 L 180 140 L 176 140 z M 28 144 L 28 148 L 28 152 L 32 152 L 32 148 L 36 148 L 40 148 L 44 148 L 48 148 L 52 148 L 56 148 L 60 148 L 64 148 L 68 148 L 72 148 L 76 148 L 76 152 L 80 152 L 80 148 L 80 144 L 76 144 L 72 144 L 68 144 L 64 144 L 60 144 L 56 144 L 52 144 L 48 144 L 44 144 L 40 144 L 36 144 L 32 144 L 28 144 z M 28 152 L 24 152 L 24 156 L 24 160 L 28 160 L 28 156 L 28 152 z M 24 160 L 20 160 L 20 164 L 16 164 L 12 164 L 8 164 L 4 164 L 0 164 L 0 168 L 4 168 L 8 168 L 12 168 L 16 168 L 20 168 L 24 168 L 24 164 L 24 160 z "
     style="fill:#000000" />
</svg>
