<?xml version="1.0" encoding="UTF-8" standalone="no"?>
<svg
   xmlns:dc="http://purl.org/dc/elements/1.1/"
   xmlns:cc="http://creativecommons.org/ns#"
   xmlns:rdf="http://www.w3.org/1999/02/22-rdf-syntax-ns#"
   xmlns:svg="http://www.w3.org/2000/svg"
   xmlns="http://www.w3.org/2000/svg"
   id="svg2668"
   width="192px"
   version="1.1"
   height="192px">
  <metadata
     id="metadata2672">
    <rdf:RDF>
      <cc:Work
         rdf:about="">
        <dc:format>image/svg+xml</dc:format>
        <dc:type
           rdf:resource="http://purl.org/dc/dcmitype/StillImage" />
      </cc:Work>
    </rdf:RDF>
  </metadata>
  <defs
     id="defs2" />
  <path
     style="fill:#0000ff"
     d="M 80 40 L 80 44 L 76 44 L 76 48 L 80 48 L 84 48 L 84 44 L 84 40 L 80 40 z "
     id="rect466" />
  <path
     style="fill:#000080"
     d="M 84 40 L 84 44 L 84 48 L 88 48 L 88 44 L 88 40 L 84 40 z M 84 48 L 80 48 L 76 48 L 76 52 L 80 52 L 84 52 L 84 48 z "
     id="rect530" />
  <path
     style="fill:#00ff00"
     d="M 64 52 L 64 56 L 60 56 L 60 60 L 64 60 L 68 60 L 68 56 L 68 52 L 64 52 z "
     id="rect652" />
  <path
     style="fill:#008000"
     d="M 68 52 L 68 56 L 68 60 L 72 60 L 72 56 L 72 52 L 68 52 z M 68 60 L 64 60 L 60 60 L 60 64 L 64 64 L 68 64 L 68 60 z "
     id="rect718" />
  <path
     style="fill:#ff0000"
     d="M 64 36 L 64 40 L 60 40 L 60 44 L 64 44 L 68 44 L 68 40 L 68 36 L 64 36 z M 152 124 L 152 128 L 152 132 L 156 132 L 156 128 L 156 124 L 152 124 z "
     id="rect1826" />
  <path
     style="fill:#800000"
     d="M 68 36 L 68 40 L 68 44 L 72 44 L 72 40 L 72 36 L 68 36 z M 68 44 L 64 44 L 60 44 L 60 48 L 64 48 L 68 48 L 68 44 z M 148 120 L 148 124 L 152 124 L 156 124 L 156 128 L 156 132 L 160 132 L 160 128 L 160 124 L 160 120 L 156 120 L 152 120 L 148 120 z M 156 132 L 152 132 L 152 128 L 148 128 L 148 124 L 144 124 L 144 128 L 144 132 L 148 132 L 148 136 L 152 136 L 156 136 L 156 132 z "
     id="rect1902" />
  <path
     style="fill:#ffffff"
     d="M 100 12 L 100 16 L 100 20 L 100 24 L 100 28 L 100 32 L 100 36 L 100 40 L 100 44 L 100 48 L 100 52 L 100 56 L 100 60 L 100 64 L 100 68 L 100 72 L 100 76 L 100 80 L 100 84 L 100 88 L 100 92 L 100 96 L 104 96 L 108 96 L 108 92 L 104 92 L 104 88 L 108 88 L 108 84 L 104 84 L 104 80 L 108 80 L 108 76 L 104 76 L 104 72 L 108 72 L 108 68 L 104 68 L 104 64 L 108 64 L 108 60 L 104 60 L 104 56 L 108 56 L 108 52 L 104 52 L 104 48 L 108 48 L 108 44 L 104 44 L 104 40 L 108 40 L 108 36 L 104 36 L 104 32 L 108 32 L 108 28 L 104 28 L 104 24 L 108 24 L 108 20 L 104 20 L 104 16 L 108 16 L 112 16 L 116 16 L 120 16 L 124 16 L 128 16 L 128 12 L 124 12 L 120 12 L 116 12 L 112 12 L 108 12 L 104 12 L 100 12 z M 108 24 L 108 28 L 112 28 L 112 24 L 108 24 z M 108 32 L 108 36 L 112 36 L 112 32 L 108 32 z M 108 40 L 108 44 L 112 44 L 112 40 L 108 40 z M 108 48 L 108 52 L 112 52 L 112 48 L 108 48 z M 108 56 L 108 60 L 112 60 L 112 56 L 108 56 z M 108 64 L 108 68 L 112 68 L 112 64 L 108 64 z M 108 72 L 108 76 L 112 76 L 112 72 L 108 72 z M 108 80 L 108 84 L 112 84 L 112 80 L 108 80 z M 108 88 L 108 92 L 112 92 L 112 88 L 108 88 z M 48 20 L 48 24 L 52 24 L 56 24 L 60 24 L 64 24 L 68 24 L 72 24 L 76 24 L 80 24 L 80 20 L 76 20 L 72 20 L 68 20 L 64 20 L 60 20 L 56 20 L 52 20 L 48 20 z M 80 24 L 80 28 L 84 28 L 88 28 L 88 24 L 84 24 L 80 24 z M 88 28 L 88 32 L 92 32 L 92 28 L 88 28 z M 48 24 L 44 24 L 40 24 L 36 24 L 36 28 L 40 28 L 44 28 L 48 28 L 48 24 z M 36 28 L 32 28 L 28 28 L 28 32 L 32 32 L 36 32 L 36 28 z M 28 32 L 24 32 L 24 36 L 28 36 L 28 32 z M 24 36 L 20 36 L 20 40 L 24 40 L 24 36 z M 20 40 L 16 40 L 16 44 L 16 48 L 20 48 L 20 44 L 20 40 z M 16 48 L 12 48 L 12 52 L 12 56 L 16 56 L 16 52 L 16 48 z M 12 56 L 8 56 L 8 60 L 8 64 L 8 68 L 8 72 L 12 72 L 12 68 L 12 64 L 12 60 L 12 56 z M 8 72 L 4 72 L 4 76 L 4 80 L 4 84 L 4 88 L 4 92 L 4 96 L 4 100 L 4 104 L 4 108 L 8 108 L 8 104 L 8 100 L 8 96 L 8 92 L 8 88 L 8 84 L 8 80 L 8 76 L 8 72 z M 8 108 L 8 112 L 8 116 L 8 120 L 12 120 L 12 116 L 12 112 L 12 108 L 8 108 z M 12 120 L 12 124 L 16 124 L 16 120 L 12 120 z M 28 64 L 28 68 L 28 72 L 32 72 L 32 76 L 36 76 L 36 72 L 36 68 L 32 68 L 32 64 L 28 64 z M 104 104 L 104 108 L 104 112 L 104 116 L 108 116 L 108 112 L 112 112 L 112 108 L 108 108 L 108 104 L 104 104 z M 108 116 L 108 120 L 112 120 L 112 116 L 108 116 z M 108 120 L 104 120 L 104 116 L 100 116 L 100 112 L 96 112 L 96 116 L 96 120 L 96 124 L 100 124 L 100 128 L 104 128 L 108 128 L 108 124 L 108 120 z M 44 128 L 44 132 L 44 136 L 44 140 L 44 144 L 44 148 L 44 152 L 44 156 L 48 156 L 48 152 L 48 148 L 48 144 L 48 140 L 48 136 L 52 136 L 56 136 L 56 140 L 60 140 L 64 140 L 68 140 L 68 144 L 72 144 L 76 144 L 80 144 L 80 148 L 84 148 L 88 148 L 92 148 L 92 152 L 96 152 L 100 152 L 104 152 L 104 156 L 108 156 L 112 156 L 116 156 L 116 160 L 120 160 L 124 160 L 124 156 L 120 156 L 120 152 L 116 152 L 112 152 L 108 152 L 108 148 L 104 148 L 100 148 L 96 148 L 96 144 L 92 144 L 88 144 L 84 144 L 84 140 L 80 140 L 76 140 L 72 140 L 72 136 L 68 136 L 64 136 L 60 136 L 60 132 L 56 132 L 52 132 L 52 128 L 48 128 L 44 128 z "
     id="rect2342" />
  <path
     style="fill:#c0c0c0"
     d="M 100 8 L 100 12 L 104 12 L 108 12 L 112 12 L 116 12 L 120 12 L 124 12 L 128 12 L 128 16 L 132 16 L 132 12 L 132 8 L 128 8 L 124 8 L 120 8 L 116 8 L 112 8 L 108 8 L 104 8 L 100 8 z M 104 16 L 104 20 L 108 20 L 108 24 L 112 24 L 112 28 L 108 28 L 108 32 L 112 32 L 112 36 L 108 36 L 108 40 L 112 40 L 112 44 L 108 44 L 108 48 L 112 48 L 112 52 L 108 52 L 108 56 L 112 56 L 112 60 L 108 60 L 108 64 L 112 64 L 112 68 L 108 68 L 108 72 L 112 72 L 112 76 L 108 76 L 108 80 L 112 80 L 112 84 L 108 84 L 108 88 L 112 88 L 112 92 L 108 92 L 108 96 L 112 96 L 116 96 L 120 96 L 120 92 L 124 92 L 124 88 L 120 88 L 120 84 L 124 84 L 124 80 L 120 80 L 120 76 L 124 76 L 124 72 L 120 72 L 120 68 L 124 68 L 124 64 L 120 64 L 120 60 L 124 60 L 124 56 L 120 56 L 120 52 L 124 52 L 124 48 L 120 48 L 120 44 L 124 44 L 124 40 L 120 40 L 120 36 L 124 36 L 124 32 L 120 32 L 120 28 L 124 28 L 124 24 L 120 24 L 120 20 L 124 20 L 124 16 L 120 16 L 116 16 L 112 16 L 108 16 L 104 16 z M 124 20 L 124 24 L 128 24 L 128 20 L 124 20 z M 124 28 L 124 32 L 128 32 L 128 28 L 124 28 z M 124 36 L 124 40 L 128 40 L 128 36 L 124 36 z M 124 44 L 124 48 L 128 48 L 128 44 L 124 44 z M 124 52 L 124 56 L 128 56 L 128 52 L 124 52 z M 124 60 L 124 64 L 128 64 L 128 60 L 124 60 z M 124 68 L 124 72 L 128 72 L 128 68 L 124 68 z M 124 76 L 124 80 L 128 80 L 128 76 L 124 76 z M 124 84 L 124 88 L 128 88 L 128 84 L 124 84 z M 124 92 L 124 96 L 128 96 L 128 92 L 124 92 z M 108 92 L 108 88 L 104 88 L 104 92 L 108 92 z M 108 84 L 108 80 L 104 80 L 104 84 L 108 84 z M 108 76 L 108 72 L 104 72 L 104 76 L 108 76 z M 108 68 L 108 64 L 104 64 L 104 68 L 108 68 z M 108 60 L 108 56 L 104 56 L 104 60 L 108 60 z M 108 52 L 108 48 L 104 48 L 104 52 L 108 52 z M 108 44 L 108 40 L 104 40 L 104 44 L 108 44 z M 108 36 L 108 32 L 104 32 L 104 36 L 108 36 z M 108 28 L 108 24 L 104 24 L 104 28 L 108 28 z M 48 24 L 48 28 L 44 28 L 40 28 L 36 28 L 36 32 L 32 32 L 28 32 L 28 36 L 24 36 L 24 40 L 20 40 L 20 44 L 20 48 L 16 48 L 16 52 L 16 56 L 12 56 L 12 60 L 12 64 L 12 68 L 12 72 L 8 72 L 8 76 L 8 80 L 8 84 L 8 88 L 8 92 L 8 96 L 8 100 L 8 104 L 8 108 L 12 108 L 12 112 L 12 116 L 12 120 L 16 120 L 16 124 L 20 124 L 24 124 L 24 120 L 28 120 L 28 116 L 28 112 L 28 108 L 28 104 L 28 100 L 32 100 L 32 96 L 36 96 L 36 92 L 40 92 L 44 92 L 48 92 L 52 92 L 52 88 L 56 88 L 60 88 L 60 84 L 64 84 L 68 84 L 68 80 L 72 80 L 76 80 L 76 76 L 80 76 L 80 72 L 84 72 L 84 68 L 88 68 L 88 64 L 92 64 L 92 60 L 92 56 L 92 52 L 92 48 L 92 44 L 92 40 L 92 36 L 92 32 L 88 32 L 88 28 L 84 28 L 80 28 L 80 24 L 76 24 L 72 24 L 68 24 L 64 24 L 60 24 L 56 24 L 52 24 L 48 24 z M 92 32 L 96 32 L 96 28 L 92 28 L 92 32 z M 16 124 L 12 124 L 12 128 L 16 128 L 16 124 z M 60 36 L 64 36 L 68 36 L 72 36 L 72 40 L 72 44 L 72 48 L 68 48 L 64 48 L 60 48 L 60 44 L 60 40 L 60 36 z M 76 40 L 80 40 L 84 40 L 88 40 L 88 44 L 88 48 L 88 52 L 84 52 L 80 52 L 76 52 L 76 48 L 76 44 L 76 40 z M 60 52 L 64 52 L 68 52 L 72 52 L 72 56 L 72 60 L 72 64 L 68 64 L 64 64 L 60 64 L 60 60 L 60 56 L 60 52 z M 28 56 L 32 56 L 36 56 L 40 56 L 44 56 L 44 60 L 48 60 L 48 64 L 52 64 L 52 68 L 52 72 L 52 76 L 48 76 L 48 80 L 44 80 L 44 84 L 40 84 L 36 84 L 32 84 L 28 84 L 28 80 L 24 80 L 24 76 L 20 76 L 20 72 L 20 68 L 20 64 L 24 64 L 24 60 L 28 60 L 28 56 z M 28 60 L 28 64 L 32 64 L 32 68 L 36 68 L 36 72 L 36 76 L 32 76 L 32 72 L 28 72 L 28 68 L 28 64 L 24 64 L 24 68 L 24 72 L 24 76 L 28 76 L 28 80 L 32 80 L 36 80 L 40 80 L 40 76 L 44 76 L 44 72 L 44 68 L 40 68 L 40 64 L 36 64 L 36 60 L 32 60 L 28 60 z M 132 100 L 132 104 L 132 108 L 136 108 L 136 112 L 140 112 L 140 116 L 140 120 L 140 124 L 136 124 L 136 128 L 132 128 L 132 132 L 128 132 L 124 132 L 124 136 L 120 136 L 116 136 L 112 136 L 108 136 L 108 132 L 104 132 L 100 132 L 100 128 L 96 128 L 96 124 L 92 124 L 92 120 L 92 116 L 92 112 L 96 112 L 96 108 L 100 108 L 100 104 L 96 104 L 92 104 L 88 104 L 88 108 L 84 108 L 80 108 L 80 112 L 76 112 L 72 112 L 72 116 L 68 116 L 64 116 L 64 120 L 60 120 L 56 120 L 56 124 L 52 124 L 48 124 L 48 128 L 52 128 L 52 132 L 56 132 L 60 132 L 60 136 L 64 136 L 68 136 L 72 136 L 72 140 L 76 140 L 80 140 L 84 140 L 84 144 L 88 144 L 92 144 L 96 144 L 96 148 L 100 148 L 104 148 L 108 148 L 108 152 L 112 152 L 116 152 L 120 152 L 120 156 L 124 156 L 128 156 L 132 156 L 132 152 L 136 152 L 140 152 L 140 148 L 144 148 L 148 148 L 148 144 L 152 144 L 156 144 L 156 140 L 160 140 L 164 140 L 164 136 L 160 136 L 156 136 L 152 136 L 148 136 L 144 136 L 144 132 L 144 128 L 144 124 L 148 124 L 148 120 L 152 120 L 156 120 L 160 120 L 160 124 L 164 124 L 164 128 L 164 132 L 164 136 L 168 136 L 172 136 L 172 132 L 176 132 L 180 132 L 180 128 L 184 128 L 184 124 L 184 120 L 180 120 L 176 120 L 176 116 L 172 116 L 168 116 L 164 116 L 164 112 L 160 112 L 156 112 L 152 112 L 152 108 L 148 108 L 144 108 L 144 104 L 140 104 L 136 104 L 136 100 L 132 100 z M 148 124 L 148 128 L 152 128 L 152 124 L 148 124 z M 108 132 L 112 132 L 116 132 L 120 132 L 124 132 L 124 128 L 124 124 L 120 124 L 116 124 L 112 124 L 108 124 L 108 128 L 108 132 z M 108 104 L 108 108 L 112 108 L 112 112 L 108 112 L 108 116 L 112 116 L 112 120 L 116 120 L 116 116 L 120 116 L 120 112 L 116 112 L 116 108 L 120 108 L 120 104 L 116 104 L 112 104 L 108 104 z M 120 108 L 120 112 L 124 112 L 124 108 L 120 108 z M 120 116 L 120 120 L 124 120 L 124 116 L 120 116 z M 48 136 L 48 140 L 48 144 L 48 148 L 48 152 L 48 156 L 52 156 L 52 160 L 56 160 L 60 160 L 64 160 L 64 164 L 68 164 L 72 164 L 76 164 L 76 168 L 80 168 L 84 168 L 88 168 L 88 172 L 92 172 L 96 172 L 100 172 L 100 176 L 104 176 L 108 176 L 112 176 L 112 180 L 116 180 L 120 180 L 120 176 L 120 172 L 120 168 L 120 164 L 120 160 L 116 160 L 116 156 L 112 156 L 108 156 L 104 156 L 104 152 L 100 152 L 96 152 L 92 152 L 92 148 L 88 148 L 84 148 L 80 148 L 80 144 L 76 144 L 72 144 L 68 144 L 68 140 L 64 140 L 60 140 L 56 140 L 56 136 L 52 136 L 48 136 z "
     id="rect2616" />
  <path
     style="fill:#808080"
     d="M 100 4 L 100 8 L 104 8 L 108 8 L 112 8 L 116 8 L 120 8 L 124 8 L 128 8 L 132 8 L 132 4 L 128 4 L 124 4 L 120 4 L 116 4 L 112 4 L 108 4 L 104 4 L 100 4 z M 100 8 L 96 8 L 96 12 L 96 16 L 96 20 L 96 24 L 92 24 L 88 24 L 88 28 L 92 28 L 96 28 L 96 32 L 92 32 L 92 36 L 92 40 L 92 44 L 92 48 L 92 52 L 92 56 L 92 60 L 92 64 L 88 64 L 88 68 L 92 68 L 96 68 L 96 72 L 96 76 L 96 80 L 96 84 L 96 88 L 96 92 L 96 96 L 100 96 L 100 92 L 100 88 L 100 84 L 100 80 L 100 76 L 100 72 L 100 68 L 100 64 L 100 60 L 100 56 L 100 52 L 100 48 L 100 44 L 100 40 L 100 36 L 100 32 L 100 28 L 100 24 L 100 20 L 100 16 L 100 12 L 100 8 z M 88 68 L 84 68 L 84 72 L 88 72 L 88 68 z M 84 72 L 80 72 L 80 76 L 84 76 L 84 72 z M 80 76 L 76 76 L 76 80 L 80 80 L 80 76 z M 76 80 L 72 80 L 68 80 L 68 84 L 72 84 L 76 84 L 76 80 z M 68 84 L 64 84 L 60 84 L 60 88 L 64 88 L 68 88 L 68 84 z M 60 88 L 56 88 L 52 88 L 52 92 L 56 92 L 60 92 L 60 88 z M 52 92 L 48 92 L 44 92 L 40 92 L 36 92 L 36 96 L 40 96 L 44 96 L 48 96 L 52 96 L 52 92 z M 36 96 L 32 96 L 32 100 L 36 100 L 36 96 z M 32 100 L 28 100 L 28 104 L 28 108 L 28 112 L 28 116 L 28 120 L 32 120 L 32 116 L 32 112 L 32 108 L 32 104 L 32 100 z M 28 120 L 24 120 L 24 124 L 20 124 L 16 124 L 16 128 L 20 128 L 24 128 L 28 128 L 28 124 L 28 120 z M 88 24 L 88 20 L 84 20 L 80 20 L 80 24 L 84 24 L 88 24 z M 80 20 L 80 16 L 76 16 L 72 16 L 68 16 L 64 16 L 60 16 L 56 16 L 52 16 L 48 16 L 48 20 L 52 20 L 56 20 L 60 20 L 64 20 L 68 20 L 72 20 L 76 20 L 80 20 z M 48 20 L 44 20 L 40 20 L 36 20 L 36 24 L 40 24 L 44 24 L 48 24 L 48 20 z M 36 24 L 32 24 L 28 24 L 28 28 L 32 28 L 36 28 L 36 24 z M 28 28 L 24 28 L 24 32 L 28 32 L 28 28 z M 24 32 L 20 32 L 20 36 L 24 36 L 24 32 z M 20 36 L 16 36 L 16 40 L 20 40 L 20 36 z M 16 40 L 12 40 L 12 44 L 12 48 L 16 48 L 16 44 L 16 40 z M 12 48 L 8 48 L 8 52 L 8 56 L 12 56 L 12 52 L 12 48 z M 8 56 L 4 56 L 4 60 L 4 64 L 4 68 L 4 72 L 8 72 L 8 68 L 8 64 L 8 60 L 8 56 z M 4 72 L 0 72 L 0 76 L 0 80 L 0 84 L 0 88 L 0 92 L 0 96 L 0 100 L 0 104 L 0 108 L 4 108 L 4 104 L 4 100 L 4 96 L 4 92 L 4 88 L 4 84 L 4 80 L 4 76 L 4 72 z M 4 108 L 4 112 L 4 116 L 4 120 L 8 120 L 8 116 L 8 112 L 8 108 L 4 108 z M 8 120 L 8 124 L 8 128 L 12 128 L 12 124 L 12 120 L 8 120 z M 124 16 L 124 20 L 128 20 L 128 24 L 124 24 L 124 28 L 128 28 L 128 32 L 124 32 L 124 36 L 128 36 L 128 40 L 124 40 L 124 44 L 128 44 L 128 48 L 124 48 L 124 52 L 128 52 L 128 56 L 124 56 L 124 60 L 128 60 L 128 64 L 124 64 L 124 68 L 128 68 L 128 72 L 124 72 L 124 76 L 128 76 L 128 80 L 124 80 L 124 84 L 128 84 L 128 88 L 124 88 L 124 92 L 128 92 L 128 96 L 132 96 L 132 92 L 132 88 L 132 84 L 132 80 L 132 76 L 132 72 L 132 68 L 132 64 L 132 60 L 132 56 L 132 52 L 132 48 L 132 44 L 132 40 L 132 36 L 132 32 L 132 28 L 132 24 L 132 20 L 132 16 L 128 16 L 124 16 z M 132 96 L 132 100 L 136 100 L 136 96 L 132 96 z M 136 100 L 136 104 L 140 104 L 144 104 L 144 100 L 140 100 L 136 100 z M 144 104 L 144 108 L 148 108 L 152 108 L 152 104 L 148 104 L 144 104 z M 152 108 L 152 112 L 156 112 L 160 112 L 164 112 L 164 108 L 160 108 L 156 108 L 152 108 z M 164 112 L 164 116 L 168 116 L 172 116 L 176 116 L 176 112 L 172 112 L 168 112 L 164 112 z M 176 116 L 176 120 L 180 120 L 184 120 L 184 116 L 180 116 L 176 116 z M 128 96 L 124 96 L 124 92 L 120 92 L 120 96 L 116 96 L 112 96 L 108 96 L 104 96 L 104 100 L 108 100 L 112 100 L 116 100 L 120 100 L 124 100 L 128 100 L 128 96 z M 104 100 L 100 100 L 96 100 L 92 100 L 88 100 L 88 104 L 92 104 L 96 104 L 100 104 L 100 108 L 96 108 L 96 112 L 100 112 L 100 116 L 104 116 L 104 112 L 104 108 L 104 104 L 104 100 z M 104 116 L 104 120 L 108 120 L 108 116 L 104 116 z M 96 112 L 92 112 L 92 116 L 92 120 L 92 124 L 96 124 L 96 120 L 96 116 L 96 112 z M 96 124 L 96 128 L 100 128 L 100 124 L 96 124 z M 100 128 L 100 132 L 104 132 L 108 132 L 108 128 L 104 128 L 100 128 z M 108 132 L 108 136 L 112 136 L 116 136 L 120 136 L 120 132 L 116 132 L 112 132 L 108 132 z M 88 104 L 84 104 L 80 104 L 80 108 L 84 108 L 88 108 L 88 104 z M 80 108 L 76 108 L 72 108 L 72 112 L 76 112 L 80 112 L 80 108 z M 72 112 L 68 112 L 64 112 L 64 116 L 68 116 L 72 116 L 72 112 z M 64 116 L 60 116 L 56 116 L 56 120 L 60 120 L 64 120 L 64 116 z M 56 120 L 52 120 L 48 120 L 48 124 L 52 124 L 56 124 L 56 120 z M 48 124 L 44 124 L 40 124 L 40 128 L 40 132 L 40 136 L 40 140 L 40 144 L 40 148 L 40 152 L 40 156 L 40 160 L 44 160 L 48 160 L 52 160 L 52 156 L 48 156 L 44 156 L 44 152 L 44 148 L 44 144 L 44 140 L 44 136 L 44 132 L 44 128 L 48 128 L 48 124 z M 52 160 L 52 164 L 56 164 L 60 164 L 64 164 L 64 160 L 60 160 L 56 160 L 52 160 z M 64 164 L 64 168 L 68 168 L 72 168 L 76 168 L 76 164 L 72 164 L 68 164 L 64 164 z M 76 168 L 76 172 L 80 172 L 84 172 L 88 172 L 88 168 L 84 168 L 80 168 L 76 168 z M 88 172 L 88 176 L 92 176 L 96 176 L 100 176 L 100 172 L 96 172 L 92 172 L 88 172 z M 100 176 L 100 180 L 104 180 L 108 180 L 112 180 L 112 176 L 108 176 L 104 176 L 100 176 z M 112 180 L 112 184 L 116 184 L 120 184 L 124 184 L 128 184 L 132 184 L 136 184 L 136 180 L 140 180 L 144 180 L 144 176 L 148 176 L 152 176 L 152 172 L 156 172 L 160 172 L 160 168 L 164 168 L 168 168 L 168 164 L 172 164 L 176 164 L 176 160 L 180 160 L 184 160 L 184 156 L 188 156 L 188 152 L 188 148 L 188 144 L 188 140 L 188 136 L 188 132 L 188 128 L 188 124 L 184 124 L 184 128 L 180 128 L 180 132 L 176 132 L 172 132 L 172 136 L 168 136 L 164 136 L 164 140 L 160 140 L 156 140 L 156 144 L 152 144 L 148 144 L 148 148 L 144 148 L 140 148 L 140 152 L 136 152 L 132 152 L 132 156 L 128 156 L 124 156 L 124 160 L 120 160 L 120 164 L 120 168 L 120 172 L 120 176 L 120 180 L 116 180 L 112 180 z M 164 136 L 164 132 L 160 132 L 160 136 L 164 136 z M 124 88 L 124 84 L 120 84 L 120 88 L 124 88 z M 124 80 L 124 76 L 120 76 L 120 80 L 124 80 z M 124 72 L 124 68 L 120 68 L 120 72 L 124 72 z M 124 64 L 124 60 L 120 60 L 120 64 L 124 64 z M 124 56 L 124 52 L 120 52 L 120 56 L 124 56 z M 124 48 L 124 44 L 120 44 L 120 48 L 124 48 z M 124 40 L 124 36 L 120 36 L 120 40 L 124 40 z M 124 32 L 124 28 L 120 28 L 120 32 L 124 32 z M 124 24 L 124 20 L 120 20 L 120 24 L 124 24 z M 60 36 L 60 40 L 64 40 L 64 36 L 60 36 z M 76 40 L 76 44 L 80 44 L 80 40 L 76 40 z M 68 44 L 68 48 L 72 48 L 72 44 L 68 44 z M 84 48 L 84 52 L 88 52 L 88 48 L 84 48 z M 60 52 L 60 56 L 64 56 L 64 52 L 60 52 z M 28 56 L 28 60 L 32 60 L 36 60 L 36 64 L 40 64 L 40 60 L 44 60 L 44 56 L 40 56 L 36 56 L 32 56 L 28 56 z M 44 60 L 44 64 L 48 64 L 48 60 L 44 60 z M 48 64 L 48 68 L 48 72 L 48 76 L 52 76 L 52 72 L 52 68 L 52 64 L 48 64 z M 44 64 L 40 64 L 40 68 L 44 68 L 44 64 z M 28 60 L 24 60 L 24 64 L 28 64 L 28 60 z M 24 64 L 20 64 L 20 68 L 20 72 L 20 76 L 24 76 L 24 72 L 24 68 L 24 64 z M 24 76 L 24 80 L 28 80 L 28 76 L 24 76 z M 28 80 L 28 84 L 32 84 L 36 84 L 40 84 L 40 80 L 36 80 L 32 80 L 28 80 z M 40 80 L 44 80 L 44 76 L 40 76 L 40 80 z M 68 60 L 68 64 L 72 64 L 72 60 L 68 60 z M 120 104 L 120 108 L 124 108 L 124 112 L 120 112 L 120 116 L 124 116 L 128 116 L 128 112 L 128 108 L 128 104 L 124 104 L 120 104 z M 128 116 L 128 120 L 124 120 L 124 124 L 124 128 L 128 128 L 132 128 L 132 124 L 136 124 L 136 120 L 136 116 L 136 112 L 132 112 L 132 116 L 128 116 z M 120 116 L 116 116 L 116 120 L 120 120 L 120 116 z M 120 112 L 120 108 L 116 108 L 116 112 L 120 112 z M 144 132 L 144 136 L 148 136 L 148 132 L 144 132 z "
     id="rect2650" />
  <path
     style="fill:#000000"
     d="M 132 8 L 132 12 L 132 16 L 132 20 L 132 24 L 132 28 L 132 32 L 132 36 L 132 40 L 132 44 L 132 48 L 132 52 L 132 56 L 132 60 L 132 64 L 132 68 L 132 72 L 132 76 L 132 80 L 132 84 L 132 88 L 132 92 L 132 96 L 136 96 L 136 92 L 136 88 L 136 84 L 136 80 L 136 76 L 136 72 L 136 68 L 136 64 L 136 60 L 136 56 L 136 52 L 136 48 L 136 44 L 136 40 L 136 36 L 136 32 L 136 28 L 136 24 L 136 20 L 136 16 L 136 12 L 136 8 L 132 8 z M 132 96 L 128 96 L 128 100 L 124 100 L 120 100 L 116 100 L 112 100 L 108 100 L 104 100 L 104 104 L 108 104 L 112 104 L 116 104 L 120 104 L 124 104 L 128 104 L 128 108 L 128 112 L 128 116 L 132 116 L 132 112 L 136 112 L 136 108 L 132 108 L 132 104 L 132 100 L 132 96 z M 136 112 L 136 116 L 136 120 L 136 124 L 140 124 L 140 120 L 140 116 L 140 112 L 136 112 z M 136 124 L 132 124 L 132 128 L 136 128 L 136 124 z M 132 128 L 128 128 L 124 128 L 124 132 L 128 132 L 132 132 L 132 128 z M 124 132 L 120 132 L 120 136 L 124 136 L 124 132 z M 128 116 L 124 116 L 124 120 L 128 120 L 128 116 z M 124 120 L 120 120 L 116 120 L 112 120 L 108 120 L 108 124 L 112 124 L 116 124 L 120 124 L 124 124 L 124 120 z M 104 100 L 104 96 L 100 96 L 100 100 L 104 100 z M 40 60 L 40 64 L 44 64 L 44 60 L 40 60 z M 44 64 L 44 68 L 44 72 L 44 76 L 44 80 L 48 80 L 48 76 L 48 72 L 48 68 L 48 64 L 44 64 z M 44 80 L 40 80 L 40 84 L 44 84 L 44 80 z M 88 68 L 88 72 L 92 72 L 96 72 L 96 68 L 92 68 L 88 68 z M 88 72 L 84 72 L 84 76 L 88 76 L 88 72 z M 84 76 L 80 76 L 80 80 L 84 80 L 84 76 z M 80 80 L 76 80 L 76 84 L 80 84 L 80 80 z M 76 84 L 72 84 L 68 84 L 68 88 L 72 88 L 76 88 L 76 84 z M 68 88 L 64 88 L 60 88 L 60 92 L 64 92 L 68 92 L 68 88 z M 60 92 L 56 92 L 52 92 L 52 96 L 56 96 L 60 96 L 60 92 z M 52 96 L 48 96 L 44 96 L 40 96 L 36 96 L 36 100 L 40 100 L 44 100 L 48 100 L 52 100 L 52 96 z M 36 100 L 32 100 L 32 104 L 32 108 L 32 112 L 32 116 L 32 120 L 36 120 L 36 116 L 36 112 L 36 108 L 36 104 L 36 100 z M 32 120 L 28 120 L 28 124 L 28 128 L 32 128 L 32 124 L 32 120 z M 28 128 L 24 128 L 20 128 L 16 128 L 12 128 L 12 132 L 16 132 L 20 132 L 24 132 L 28 132 L 28 128 z M 184 120 L 184 124 L 188 124 L 188 120 L 184 120 z M 188 124 L 188 128 L 188 132 L 188 136 L 188 140 L 188 144 L 188 148 L 188 152 L 188 156 L 192 156 L 192 152 L 192 148 L 192 144 L 192 140 L 192 136 L 192 132 L 192 128 L 192 124 L 188 124 z M 188 156 L 184 156 L 184 160 L 188 160 L 188 156 z M 184 160 L 180 160 L 176 160 L 176 164 L 180 164 L 184 164 L 184 160 z M 176 164 L 172 164 L 168 164 L 168 168 L 172 168 L 176 168 L 176 164 z M 168 168 L 164 168 L 160 168 L 160 172 L 164 172 L 168 172 L 168 168 z M 160 172 L 156 172 L 152 172 L 152 176 L 156 176 L 160 176 L 160 172 z M 152 176 L 148 176 L 144 176 L 144 180 L 148 180 L 152 180 L 152 176 z M 144 180 L 140 180 L 136 180 L 136 184 L 140 184 L 144 184 L 144 180 z M 136 184 L 132 184 L 128 184 L 124 184 L 120 184 L 116 184 L 112 184 L 112 188 L 116 188 L 120 188 L 124 188 L 128 188 L 132 188 L 136 188 L 136 184 z M 112 184 L 112 180 L 108 180 L 104 180 L 100 180 L 100 184 L 104 184 L 108 184 L 112 184 z M 100 180 L 100 176 L 96 176 L 92 176 L 88 176 L 88 180 L 92 180 L 96 180 L 100 180 z M 88 176 L 88 172 L 84 172 L 80 172 L 76 172 L 76 176 L 80 176 L 84 176 L 88 176 z M 76 172 L 76 168 L 72 168 L 68 168 L 64 168 L 64 172 L 68 172 L 72 172 L 76 172 z M 64 168 L 64 164 L 60 164 L 56 164 L 52 164 L 52 168 L 56 168 L 60 168 L 64 168 z M 52 164 L 52 160 L 48 160 L 44 160 L 44 164 L 48 164 L 52 164 z M 160 124 L 160 128 L 160 132 L 164 132 L 164 128 L 164 124 L 160 124 z M 160 132 L 156 132 L 156 136 L 160 136 L 160 132 z "
     id="rect2666" />
</svg>
