<?xml version="1.0" encoding="UTF-8" standalone="no"?>
<svg
   xmlns:dc="http://purl.org/dc/elements/1.1/"
   xmlns:cc="http://creativecommons.org/ns#"
   xmlns:rdf="http://www.w3.org/1999/02/22-rdf-syntax-ns#"
   xmlns:svg="http://www.w3.org/2000/svg"
   xmlns="http://www.w3.org/2000/svg"
   height="96px"
   version="1.1"
   width="96px"
   id="svg612">
  <metadata
     id="metadata616">
    <rdf:RDF>
      <cc:Work
         rdf:about="">
        <dc:format>image/svg+xml</dc:format>
        <dc:type
           rdf:resource="http://purl.org/dc/dcmitype/StillImage" />
      </cc:Work>
    </rdf:RDF>
  </metadata>
  <defs
     id="defs2" />
  <path
     id="rect120"
     d="M 72 6 L 72 9 L 75 9 L 75 6 L 72 6 z M 75 9 L 75 12 L 78 12 L 78 9 L 75 9 z M 72 9 L 69 9 L 69 12 L 72 12 L 72 9 z M 69 12 L 66 12 L 66 15 L 69 15 L 69 12 z M 69 15 L 69 18 L 72 18 L 72 15 L 69 15 z M 69 18 L 66 18 L 66 21 L 69 21 L 69 18 z "
     style="fill:#ffff00" />
  <path
     id="rect372"
     d="M 57 24 L 57 27 L 60 27 L 60 24 L 57 24 z M 57 27 L 54 27 L 54 30 L 57 30 L 57 27 z M 54 30 L 51 30 L 51 33 L 54 33 L 54 30 z M 51 33 L 48 33 L 48 36 L 51 36 L 51 33 z M 48 36 L 45 36 L 45 39 L 48 39 L 48 36 z M 45 39 L 42 39 L 42 42 L 45 42 L 45 39 z M 42 42 L 39 42 L 39 45 L 42 45 L 42 42 z M 39 45 L 36 45 L 36 48 L 39 48 L 39 45 z M 36 48 L 33 48 L 33 51 L 36 51 L 36 48 z M 33 51 L 30 51 L 30 54 L 33 54 L 33 51 z M 30 54 L 27 54 L 27 57 L 30 57 L 30 54 z M 27 57 L 24 57 L 24 60 L 27 60 L 27 57 z M 48 48 L 48 51 L 51 51 L 51 48 L 48 48 z M 51 51 L 51 54 L 51 57 L 54 57 L 57 57 L 57 54 L 57 51 L 54 51 L 51 51 z "
     style="fill:#00ffff" />
  <path
     id="rect436"
     d="M 54 24 L 54 27 L 57 27 L 57 24 L 54 24 z M 54 27 L 51 27 L 51 30 L 54 30 L 54 27 z M 51 30 L 48 30 L 48 33 L 51 33 L 51 30 z M 48 33 L 45 33 L 45 36 L 48 36 L 48 33 z M 45 36 L 42 36 L 42 39 L 45 39 L 45 36 z M 42 39 L 39 39 L 39 42 L 42 42 L 42 39 z M 39 42 L 36 42 L 36 45 L 39 45 L 39 42 z M 36 45 L 33 45 L 33 48 L 36 48 L 36 45 z M 33 48 L 30 48 L 30 51 L 33 51 L 33 48 z M 30 51 L 27 51 L 27 54 L 30 54 L 30 51 z M 27 54 L 24 54 L 24 57 L 27 57 L 27 54 z M 24 57 L 21 57 L 21 60 L 21 63 L 24 63 L 24 60 L 24 57 z M 60 27 L 60 30 L 57 30 L 57 33 L 54 33 L 54 36 L 51 36 L 51 39 L 54 39 L 57 39 L 60 39 L 60 36 L 63 36 L 63 33 L 66 33 L 66 30 L 63 30 L 63 27 L 60 27 z M 48 42 L 48 45 L 45 45 L 45 48 L 42 48 L 42 51 L 42 54 L 45 54 L 48 54 L 51 54 L 51 51 L 48 51 L 48 48 L 51 48 L 51 51 L 54 51 L 54 48 L 54 45 L 54 42 L 51 42 L 48 42 z M 36 51 L 36 54 L 33 54 L 33 57 L 30 57 L 30 60 L 27 60 L 27 63 L 27 66 L 30 66 L 33 66 L 33 63 L 36 63 L 36 60 L 39 60 L 39 57 L 39 54 L 39 51 L 36 51 z "
     style="fill:#008080" />
  <path
     id="rect508"
     d="M 69 3 L 69 6 L 72 6 L 72 3 L 69 3 z M 69 6 L 66 6 L 66 9 L 69 9 L 69 6 z M 66 9 L 63 9 L 63 12 L 66 12 L 66 9 z M 63 12 L 60 12 L 60 15 L 63 15 L 63 12 z M 75 3 L 75 6 L 78 6 L 78 3 L 75 3 z M 78 6 L 78 9 L 81 9 L 81 6 L 78 6 z M 81 9 L 81 12 L 78 12 L 75 12 L 75 15 L 75 18 L 78 18 L 78 15 L 81 15 L 84 15 L 84 12 L 84 9 L 81 9 z M 78 18 L 78 21 L 81 21 L 81 18 L 78 18 z M 78 21 L 75 21 L 75 24 L 78 24 L 78 21 z M 75 21 L 75 18 L 72 18 L 69 18 L 69 21 L 69 24 L 69 27 L 72 27 L 72 24 L 72 21 L 75 21 z M 60 18 L 60 21 L 63 21 L 63 18 L 60 18 z M 63 21 L 63 24 L 63 27 L 66 27 L 66 24 L 66 21 L 63 21 z M 60 60 L 60 63 L 60 66 L 60 69 L 60 72 L 63 72 L 63 69 L 63 66 L 63 63 L 66 63 L 69 63 L 72 63 L 72 60 L 69 60 L 66 60 L 63 60 L 60 60 z M 21 63 L 21 66 L 21 69 L 24 69 L 24 66 L 24 63 L 21 63 z M 21 69 L 18 69 L 18 72 L 21 72 L 21 69 z M 18 72 L 15 72 L 15 75 L 18 75 L 18 72 z M 66 66 L 66 69 L 69 69 L 69 66 L 66 66 z "
     style="fill:#c0c0c0" />
  <path
     id="rect604"
     d="M 69 6 L 69 9 L 72 9 L 72 6 L 69 6 z M 75 6 L 75 9 L 78 9 L 78 6 L 75 6 z M 63 12 L 63 15 L 63 18 L 63 21 L 66 21 L 66 18 L 66 15 L 66 12 L 63 12 z M 72 12 L 72 15 L 75 15 L 75 12 L 72 12 z M 57 27 L 57 30 L 60 30 L 60 27 L 57 27 z M 57 30 L 54 30 L 54 33 L 57 33 L 57 30 z M 54 33 L 51 33 L 51 36 L 54 36 L 54 33 z M 51 36 L 48 36 L 48 39 L 51 39 L 51 36 z M 48 39 L 45 39 L 45 42 L 48 42 L 48 39 z M 45 42 L 42 42 L 42 45 L 45 45 L 45 42 z M 42 45 L 39 45 L 39 48 L 42 48 L 42 45 z M 39 48 L 36 48 L 36 51 L 39 51 L 39 48 z M 36 51 L 33 51 L 33 54 L 36 54 L 36 51 z M 33 54 L 30 54 L 30 57 L 33 57 L 33 54 z M 30 57 L 27 57 L 27 60 L 30 60 L 30 57 z M 27 60 L 24 60 L 24 63 L 27 63 L 27 60 z M 60 57 L 60 60 L 63 60 L 66 60 L 69 60 L 72 60 L 72 57 L 69 57 L 66 57 L 63 57 L 60 57 z M 60 60 L 57 60 L 57 63 L 57 66 L 57 69 L 57 72 L 60 72 L 60 69 L 60 66 L 60 63 L 60 60 z M 63 63 L 63 66 L 63 69 L 66 69 L 66 66 L 69 66 L 69 63 L 66 63 L 63 63 z M 63 78 L 63 81 L 63 84 L 66 84 L 66 81 L 66 78 L 63 78 z M 60 87 L 60 90 L 60 93 L 60 96 L 63 96 L 66 96 L 66 93 L 66 90 L 66 87 L 63 87 L 60 87 z "
     style="fill:#ffffff" />
  <path
     id="rect608"
     d="M 66 0 L 66 3 L 63 3 L 60 3 L 60 6 L 60 9 L 57 9 L 57 12 L 57 15 L 57 18 L 57 21 L 60 21 L 60 18 L 63 18 L 63 15 L 60 15 L 60 12 L 63 12 L 63 9 L 66 9 L 66 6 L 69 6 L 69 3 L 72 3 L 72 6 L 75 6 L 75 3 L 78 3 L 81 3 L 81 0 L 78 0 L 75 0 L 72 0 L 69 0 L 66 0 z M 66 9 L 66 12 L 69 12 L 69 9 L 66 9 z M 69 12 L 69 15 L 72 15 L 72 12 L 69 12 z M 72 12 L 75 12 L 75 9 L 72 9 L 72 12 z M 69 15 L 66 15 L 66 18 L 69 18 L 69 15 z M 81 6 L 81 9 L 84 9 L 84 6 L 81 6 z M 81 9 L 78 9 L 78 12 L 81 12 L 81 9 z M 84 12 L 84 15 L 87 15 L 87 12 L 84 12 z M 84 15 L 81 15 L 81 18 L 84 18 L 84 15 z M 84 18 L 84 21 L 87 21 L 87 18 L 84 18 z M 84 21 L 81 21 L 81 24 L 84 24 L 84 21 z M 81 24 L 78 24 L 78 27 L 81 27 L 81 24 z M 78 27 L 75 27 L 75 30 L 78 30 L 78 27 z M 75 27 L 75 24 L 72 24 L 72 27 L 75 27 z M 72 27 L 69 27 L 69 30 L 72 30 L 72 27 z M 66 21 L 66 24 L 69 24 L 69 21 L 66 21 z M 63 54 L 63 57 L 66 57 L 69 57 L 72 57 L 72 54 L 69 54 L 66 54 L 63 54 z M 72 57 L 72 60 L 72 63 L 69 63 L 69 66 L 72 66 L 72 69 L 72 72 L 75 72 L 75 69 L 75 66 L 75 63 L 75 60 L 75 57 L 72 57 z M 72 72 L 69 72 L 66 72 L 66 69 L 63 69 L 63 72 L 60 72 L 57 72 L 57 75 L 60 75 L 63 75 L 66 75 L 69 75 L 72 75 L 72 72 z M 57 72 L 57 69 L 57 66 L 57 63 L 54 63 L 54 66 L 54 69 L 54 72 L 57 72 z M 18 63 L 18 66 L 18 69 L 21 69 L 21 66 L 21 63 L 18 63 z M 18 69 L 15 69 L 15 72 L 18 72 L 18 69 z M 15 72 L 12 72 L 12 75 L 15 75 L 15 72 z M 24 66 L 24 69 L 27 69 L 27 66 L 24 66 z M 60 78 L 60 81 L 60 84 L 57 84 L 57 87 L 57 90 L 57 93 L 57 96 L 60 96 L 60 93 L 60 90 L 60 87 L 63 87 L 66 87 L 66 90 L 66 93 L 66 96 L 69 96 L 72 96 L 72 93 L 72 90 L 72 87 L 69 87 L 69 84 L 69 81 L 69 78 L 66 78 L 66 81 L 66 84 L 63 84 L 63 81 L 63 78 L 60 78 z "
     style="fill:#808080" />
  <path
     id="rect610"
     d="M 78 3 L 78 6 L 81 6 L 84 6 L 84 3 L 81 3 L 78 3 z M 84 6 L 84 9 L 84 12 L 87 12 L 87 15 L 84 15 L 84 18 L 87 18 L 87 21 L 84 21 L 84 24 L 81 24 L 81 27 L 78 27 L 78 30 L 75 30 L 75 27 L 72 27 L 72 30 L 69 30 L 69 27 L 69 24 L 66 24 L 66 27 L 63 27 L 63 30 L 66 30 L 66 33 L 69 33 L 72 33 L 75 33 L 78 33 L 81 33 L 81 30 L 84 30 L 87 30 L 87 27 L 87 24 L 90 24 L 90 21 L 90 18 L 90 15 L 90 12 L 90 9 L 87 9 L 87 6 L 84 6 z M 66 33 L 63 33 L 63 36 L 66 36 L 66 33 z M 63 36 L 60 36 L 60 39 L 63 39 L 63 36 z M 60 39 L 57 39 L 54 39 L 51 39 L 48 39 L 48 42 L 51 42 L 54 42 L 54 45 L 54 48 L 54 51 L 57 51 L 57 48 L 57 45 L 57 42 L 60 42 L 60 39 z M 57 51 L 57 54 L 57 57 L 54 57 L 51 57 L 51 60 L 54 60 L 54 63 L 57 63 L 57 60 L 60 60 L 60 57 L 63 57 L 63 54 L 60 54 L 60 51 L 57 51 z M 51 57 L 51 54 L 48 54 L 45 54 L 42 54 L 42 51 L 42 48 L 39 48 L 39 51 L 39 54 L 39 57 L 39 60 L 42 60 L 42 57 L 45 57 L 48 57 L 51 57 z M 39 60 L 36 60 L 36 63 L 39 63 L 39 60 z M 36 63 L 33 63 L 33 66 L 36 66 L 36 63 z M 33 66 L 30 66 L 27 66 L 27 69 L 30 69 L 33 69 L 33 66 z M 27 69 L 24 69 L 21 69 L 21 72 L 24 72 L 27 72 L 27 69 z M 21 72 L 18 72 L 18 75 L 21 75 L 21 72 z M 18 75 L 15 75 L 12 75 L 12 78 L 15 78 L 18 78 L 18 75 z M 12 78 L 9 78 L 9 81 L 12 81 L 12 78 z M 9 81 L 6 81 L 6 84 L 6 87 L 9 87 L 9 84 L 9 81 z M 6 87 L 3 87 L 3 90 L 3 93 L 3 96 L 6 96 L 6 93 L 6 90 L 6 87 z M 27 66 L 27 63 L 24 63 L 24 66 L 27 66 z M 42 48 L 45 48 L 45 45 L 42 45 L 42 48 z M 45 45 L 48 45 L 48 42 L 45 42 L 45 45 z M 63 27 L 63 24 L 63 21 L 60 21 L 57 21 L 57 24 L 60 24 L 60 27 L 63 27 z M 75 27 L 78 27 L 78 24 L 75 24 L 75 27 z M 75 24 L 75 21 L 72 21 L 72 24 L 75 24 z M 75 21 L 78 21 L 78 18 L 75 18 L 75 21 z M 75 18 L 75 15 L 72 15 L 72 18 L 75 18 z M 78 18 L 81 18 L 81 15 L 78 15 L 78 18 z M 81 18 L 81 21 L 84 21 L 84 18 L 81 18 z M 81 21 L 78 21 L 78 24 L 81 24 L 81 21 z M 75 60 L 75 63 L 75 66 L 75 69 L 75 72 L 78 72 L 78 69 L 78 66 L 78 63 L 78 60 L 75 60 z M 75 72 L 72 72 L 72 75 L 75 75 L 75 72 z M 72 75 L 69 75 L 66 75 L 63 75 L 60 75 L 60 78 L 63 78 L 66 78 L 69 78 L 69 81 L 69 84 L 69 87 L 72 87 L 72 90 L 72 93 L 72 96 L 75 96 L 75 93 L 75 90 L 75 87 L 75 84 L 72 84 L 72 81 L 72 78 L 72 75 z M 72 72 L 72 69 L 72 66 L 69 66 L 69 69 L 66 69 L 66 72 L 69 72 L 72 72 z "
     style="fill:#000000" />
</svg>
