<?xml version="1.0" encoding="UTF-8" standalone="no"?>
<svg
   id="svg3"
   version="1.1"
   height="48"
   width="48"
   sodipodi:docname="camera-web.svg"
   xml:space="preserve"
   inkscape:version="1.2.2 (b0a8486541, 2022-12-01)"
   xmlns:inkscape="http://www.inkscape.org/namespaces/inkscape"
   xmlns:sodipodi="http://sodipodi.sourceforge.net/DTD/sodipodi-0.dtd"
   xmlns="http://www.w3.org/2000/svg"
   xmlns:svg="http://www.w3.org/2000/svg"
   xmlns:rdf="http://www.w3.org/1999/02/22-rdf-syntax-ns#"
   xmlns:cc="http://creativecommons.org/ns#"
   xmlns:dc="http://purl.org/dc/elements/1.1/"><sodipodi:namedview
     id="namedview359"
     pagecolor="#ffffff"
     bordercolor="#000000"
     borderopacity="0.25"
     inkscape:showpageshadow="2"
     inkscape:pageopacity="0.0"
     inkscape:pagecheckerboard="0"
     inkscape:deskcolor="#d1d1d1"
     showgrid="false"
     inkscape:zoom="5.4579805"
     inkscape:cx="6.4126283"
     inkscape:cy="23.085462"
     inkscape:window-width="1920"
     inkscape:window-height="1008"
     inkscape:window-x="0"
     inkscape:window-y="0"
     inkscape:window-maximized="1"
     inkscape:current-layer="svg3" /><metadata
     id="metadata9"><rdf:RDF><cc:Work
         rdf:about=""><dc:format>image/svg+xml</dc:format><dc:type
           rdf:resource="http://purl.org/dc/dcmitype/StillImage" /></cc:Work></rdf:RDF></metadata><defs
     id="defs7" /><g
     id="g504"><path
       style="fill:#ffffff;stroke-width:1;opacity:0"
       d="M 0,46 V 44 H 0.5 1 V 42.5 41 H 0.5 0 V 38.5 36 H 0.5 1 V 36.5 37 H 1.5 2 V 37.5 38 H 2.5 3 v 0.5 0.5 h 9 9 v 1 1 H 11.5 2 V 42.5 44 H 10.5 19 V 44.5 45 H 22.5 26 V 44.5 44 h 9 9 V 42.5 41 H 34 24 v -1 -1 h 9 9 V 38.5 38 H 42.5 43 V 35 32 H 43.5 44 V 31.5 31 H 44.5 45 V 30.5 30 H 45.5 46 V 29.5 29 H 46.5 47 V 28 27 H 47.5 48 V 37.5 48 H 24 0 Z M 46,42.5 V 41 H 45.5 45 V 42.5 44 H 45.5 46 Z M 47,18 V 17 H 46.5 46 V 16.5 16 H 45.5 45 V 15.5 15 H 44.5 44 V 14.5 14 H 43.5 43 V 11.5 9 H 42.5 42 V 8.5 8 H 41.5 41 V 7.5 7 H 40 39 V 6.5 6 H 38.5 38 V 5.5 5 H 37 36 V 4.5 4 H 27 18 V 3.5 3 H 15 12 V 3.5 4 H 10.5 9 V 4.5 5 H 8 7 V 5.5 6 H 6.5 6 V 6.5 7 H 5.5 5 V 8 9 H 4.5 4 V 9.5 10 H 3.5 3 V 10.5 11 H 2.5 2 V 11.5 12 H 1.5 1 V 12.5 13 H 0.5 0 V 6.5 0 H 24 48 V 9.5 19 H 47.5 47 Z"
       id="path530" /><path
       style="fill:#fefefe;stroke-width:1"
       d="m 21,43 v -1 h 0.5 0.5 v 1 1 H 21.5 21 Z M 0,42.5 V 42 H 0.5 1 V 42.5 43 H 0.5 0 Z m 2,0 V 42 H 10.5 19 V 42.5 43 H 10.5 2 Z m 24,0 V 42 h 9 9 v 0.5 0.5 h -9 -9 z m 19,0 V 42 H 45.5 46 V 42.5 43 H 45.5 45 Z M 22,40 v -1 h 0.5 0.5 v 1 1 H 22.5 22 Z m 8,-2.5 V 37 H 31.5 33 V 37.5 38 H 31.5 30 Z m 15,-13 V 23 H 45.5 46 V 24.5 26 H 45.5 45 Z M 36,23 V 21 H 36.5 37 V 21.5 22 H 37.5 38 V 21.5 21 H 38.5 39 V 21.5 22 H 38.5 38 v 1 1 H 37.5 37 V 24.5 25 H 36.5 36 Z M 30,20.5 V 19 H 30.5 31 V 20.5 22 H 30.5 30 Z m -9,-4 V 16 H 22.5 24 V 16.5 17 H 22.5 21 Z M 1,13.5 V 13 H 1.5 2 V 12.5 12 H 2.5 3 V 11.5 11 H 3.5 4 V 11.5 12 H 3.5 3 V 12.5 13 H 2.5 2 V 13.5 14 H 1.5 1 Z m 5,-6 V 7 H 6.5 7 V 7.5 8 H 6.5 6 Z m 5,-2 V 5 H 11.5 12 V 4.5 4 H 12.5 13 V 4.5 5 H 12.5 12 V 5.5 6 H 11.5 11 Z m 3,-1 V 4 H 14.5 15 V 4.5 5 H 14.5 14 Z"
       id="path528" /><path
       style="fill:#bfbfbf;stroke-width:1"
       d="m 23,43 v -1 h 0.5 0.5 v 1 1 H 23.5 23 Z M 34,37.5 V 37 H 34.5 35 V 37.5 38 H 34.5 34 Z M 14,31 v -6 h 6 6 v 1 1 h 0.5 0.5 v 1 1 h 0.5 0.5 v 0.5 0.5 h 0.5 0.5 v 0.5 0.5 h 0.5 0.5 v 0.5 0.5 h 0.5 0.5 v 0.5 0.5 h 1 1 V 33.5 34 H 29.5 26 V 34.5 35 H 25.5 25 v 1 1 H 19.5 14 Z m 8,3.5 V 34 H 22.5 23 V 33.5 33 H 23.5 24 V 31 29 H 23.5 23 V 28.5 28 H 22.5 22 V 27.5 27 H 20 18 V 27.5 28 H 17.5 17 V 28.5 29 H 16.5 16 v 2 2 h 0.5 0.5 v 0.5 0.5 h 0.5 0.5 v 0.5 0.5 h 2 2 z m 17,2 V 36 H 39.5 40 V 35.5 35 H 40.5 41 V 35.5 36 H 40.5 40 V 36.5 37 H 39.5 39 Z M 1,25 V 14 H 1.5 2 V 13.5 13 H 2.5 3 V 12.5 12 H 3.5 4 V 11.5 11 H 5 6 V 11.5 12 H 5 4 v 1 1 H 3.5 3 V 14.5 15 H 3.5 4 V 15.5 16 H 3.5 3 V 16.5 17 H 3.5 4 V 17.5 18 H 3.5 3 V 18.5 19 H 3.5 4 V 19.5 20 H 3.5 3 V 20.5 21 H 3.5 4 V 21.5 22 H 3.5 3 V 22.5 23 H 3.5 4 V 23.5 24 H 3.5 3 V 24.5 25 H 3.5 4 V 25.5 26 H 3.5 3 V 26.5 27 H 3.5 4 V 27.5 28 H 3.5 3 V 28.5 29 H 3.5 4 V 29.5 30 H 3.5 3 V 30.5 31 H 3.5 4 V 31.5 32 H 3.5 3 V 32.5 33 H 3.5 4 V 33.5 34 H 3.5 3 V 34.5 35 H 3.5 4 V 35.5 36 H 2.5 1 Z m 10,9.5 V 34 H 11.5 12 V 34.5 35 H 11.5 11 Z m 0,-2 V 32 H 11.5 12 V 32.5 33 H 11.5 11 Z m 29,-1 V 31 H 40.5 41 V 31.5 32 H 40.5 40 Z m -29,-1 V 30 H 11.5 12 V 30.5 31 H 11.5 11 Z m 31,0 V 30 H 42.5 43 V 29.5 29 H 43.5 44 V 28.5 28 h 0.5 0.5 v -1 -1 h 0.5 0.5 v 1 1 H 45.5 45 V 28.5 29 H 44.5 44 V 29.5 30 H 43.5 43 V 30.5 31 H 42.5 42 Z m -31,-2 V 28 H 11.5 12 V 28.5 29 H 11.5 11 Z m 26,0 V 28 H 36.5 36 V 27.5 27 H 35.5 35 V 24 21 H 35.5 36 V 20.5 20 H 36.5 37 V 19.5 19 h 1 1 V 19.5 20 H 39.5 40 V 21.5 23 H 39.5 39 V 22 21 H 38.5 38 V 21.5 22 H 37.5 37 V 21.5 21 H 36.5 36 v 2 2 H 36.5 37 V 24.5 24 H 37.5 38 V 24.5 25 H 37.5 37 v 1 1 h 0.5 0.5 v 0.5 0.5 h 0.5 0.5 v 0.5 0.5 h -1 -1 z m 3,-1 V 27 H 39.5 39 V 26.5 26 H 39.5 40 V 26.5 27 H 40.5 41 V 26.5 26 H 41.5 42 V 26.5 27 H 41.5 41 V 27.5 28 H 40.5 40 Z m -29,-1 V 26 H 11.5 12 V 26.5 27 H 11.5 11 Z m 19,-2 V 23 H 29.5 29 V 21.5 20 h 0.5 0.5 v 1 1 h 0.5 0.5 v 2 2 H 30.5 30 Z m -19,0 V 24 H 11.5 12 V 24.5 25 H 11.5 11 Z m 30,0 V 24 H 41.5 42 V 24.5 25 H 41.5 41 Z m -30,-2 V 22 H 11.5 12 V 22.5 23 H 11.5 11 Z M 41,22 v -1 h 0.5 0.5 v 1 1 H 41.5 41 Z m 4,-0.5 V 20 H 45.5 46 V 21.5 23 H 45.5 45 Z m -29,-4 V 13 H 22.5 29 V 13.5 14 H 28.5 28 V 14.5 15 H 27.5 27 V 14.5 14 H 22.5 18 v 3 3 h 4 4 v 1 1 h -5 -5 z m -5,3 V 20 H 11.5 12 V 20.5 21 H 11.5 11 Z M 31,19 V 18 H 31.5 32 V 17.5 17 H 32.5 33 V 16.5 16 H 33.5 34 V 16.5 17 H 33.5 33 v 1 1 H 32.5 32 V 19.5 20 H 31.5 31 Z M 11,18.5 V 18 H 11.5 12 V 18.5 19 H 11.5 11 Z M 20,17 v -1 h 0.5 0.5 v 1 1 H 20.5 20 Z M 10,15.5 V 15 H 9.5 9 V 14.5 14 H 8.5 8 V 13.5 13 H 7.5 7 V 12.5 12 H 7.5 8 V 12.5 13 H 8.5 9 V 13.5 14 H 9.5 10 V 14.5 15 H 10.5 11 V 15.5 16 H 10.5 10 Z M 9,10 V 9 H 9.5 10 V 8.5 8 H 23.5 37 V 8.5 9 H 37.5 38 V 8.5 8 H 38.5 39 V 8.5 9 H 39.5 40 V 9.5 10 H 40.5 41 V 10.5 11 H 40.5 40 V 10.5 10 H 39.5 39 V 10.5 11 H 38.5 38 V 10.5 10 H 37.5 37 V 10.5 11 H 36.5 36 V 10.5 10 H 35.5 35 V 10.5 11 H 34.5 34 V 10.5 10 H 33.5 33 V 10.5 11 H 32.5 32 V 10.5 10 H 31.5 31 V 10.5 11 H 30.5 30 V 10.5 10 H 29.5 29 V 10.5 11 H 28.5 28 V 10.5 10 H 27.5 27 V 10.5 11 H 26 25 V 10.5 10 H 24.5 24 V 10.5 11 H 16.5 9 Z M 37,9.5 V 9 H 36.5 36 V 9.5 10 h 0.5 0.5 z m 2,0 V 9 H 38.5 38 V 9.5 10 H 38.5 39 Z M 6,8.5 V 8 H 6.5 7 V 7 6 H 7.5 8 V 7 8 H 7.5 7 V 8.5 9 H 6.5 6 Z M 9,5 V 4 h 1 1 V 4.5 5 H 10.5 10 V 5.5 6 H 9.5 9 Z m 3,0.5 V 5 H 12.5 13 V 4.5 4 H 13.5 14 V 4.5 5 H 14.5 15 V 4.5 4 H 16.5 18 V 4.5 5 H 18.5 19 V 5.5 6 H 15.5 12 Z m 23,-1 V 4 H 35.5 36 V 4.5 5 H 35.5 35 Z"
       id="path526" /><path
       style="fill:#00fefe;stroke-width:1"
       d="m 20,43 v -1 h 0.5 0.5 v 1 1 H 20.5 20 Z m 2,0 v -1 h 0.5 0.5 v 1 1 H 22.5 22 Z m 6,-5.5 V 37 h 1 1 v 0.5 0.5 h -1 -1 z m 5,0 V 37 H 33.5 34 V 37.5 38 H 33.5 33 Z m 5,-10 V 27 H 37.5 37 V 26 25 H 37.5 38 V 23.5 22 H 38.5 39 V 22.5 23 H 39.5 40 V 21.5 20 H 39.5 39 V 19.5 19 H 39.5 40 V 19.5 20 H 40.5 41 V 21.5 23 H 41.5 42 V 23.5 24 H 41.5 41 V 24.5 25 H 41.5 42 V 25.5 26 H 41.5 41 V 26.5 27 H 40.5 40 v 0.5 0.5 h -1 -1 z m 2,-1 V 26 H 39.5 39 v 0.5 0.5 h 0.5 0.5 z m -19,-9 V 17 H 22.5 24 V 16.5 16 h 0.5 0.5 v 1 1 h -2 -2 z"
       id="path524" /><path
       style="fill:#7f7f7f;stroke-width:1"
       d="M 0,41.5 V 41 H 0.5 1 V 41.5 42 H 0.5 0 Z m 2,0 V 41 H 10.5 19 V 41.5 42 H 10.5 2 Z m 24,0 V 41 h 9 9 v 0.5 0.5 h -9 -9 z m 19,0 V 41 H 45.5 46 V 41.5 42 H 45.5 45 Z m -16,-3 V 38 H 29.5 30 V 38.5 39 H 29.5 29 Z m 2,0 V 38 H 31.5 32 V 38.5 39 H 31.5 31 Z m 2,0 V 38 H 33.5 34 V 38.5 39 H 33.5 33 Z m 2,0 V 38 H 35.5 36 V 38.5 39 H 35.5 35 Z M 2,37.5 V 37 H 1.5 1 V 36.5 36 H 0.5 0 V 24.5 13 H 0.5 1 V 12.5 12 H 1.5 2 V 11.5 11 H 2.5 3 V 10.5 10 H 3.5 4 V 9.5 9 H 4.5 5 v 1 1 H 4 3 V 11.5 12 H 2.5 2 V 12.5 13 H 1.5 1 V 24.5 36 H 2.5 4 V 35.5 35 H 3.5 3 V 34.5 34 H 3.5 4 V 33.5 33 H 3.5 3 V 32.5 32 H 3.5 4 V 31.5 31 H 3.5 3 V 30.5 30 H 3.5 4 V 29.5 29 H 3.5 3 V 28.5 28 H 3.5 4 V 27.5 27 H 3.5 3 V 26.5 26 H 3.5 4 V 25.5 25 H 3.5 3 V 24.5 24 H 3.5 4 V 23.5 23 H 3.5 3 V 22.5 22 H 3.5 4 V 21.5 21 H 3.5 3 V 20.5 20 H 3.5 4 V 19.5 19 H 3.5 3 V 18.5 18 H 3.5 4 V 17.5 17 H 3.5 3 V 16.5 16 H 3.5 4 V 15.5 15 H 3.5 3 V 14.5 14 H 3.5 4 V 13 12 H 4.5 5 V 12.5 13 H 5.5 6 V 12 11 H 6.5 7 v 1 1 H 7.5 8 V 13.5 14 H 8.5 9 V 14.5 15 H 9.5 10 V 15.5 16 H 10.5 11 V 16.5 17 H 11.5 12 V 17.5 18 H 11.5 11 V 18.5 19 H 11.5 12 V 19.5 20 H 11.5 11 V 21.5 23 H 11.5 12 V 23.5 24 H 11.5 11 V 25.5 27 H 11.5 12 V 27.5 28 H 11.5 11 V 29.5 31 H 11.5 12 V 31.5 32 H 11.5 11 V 33.5 35 H 11.5 12 V 35.5 36 H 11 10 V 36.5 37 H 9 8 V 36.5 36 H 8.5 9 V 35.5 35 H 8.5 8 V 34.5 34 H 8.5 9 V 33.5 33 H 8.5 8 V 32.5 32 H 8.5 9 V 31.5 31 H 8.5 8 V 30.5 30 H 8.5 9 V 29.5 29 H 8.5 8 V 28.5 28 H 8.5 9 V 27.5 27 H 8.5 8 V 26.5 26 H 8.5 9 V 25.5 25 H 8.5 8 V 24.5 24 H 8.5 9 V 23.5 23 H 8.5 8 V 22.5 22 H 8.5 9 V 21.5 21 H 8.5 8 V 20.5 20 H 8.5 9 V 19.5 19 H 8.5 8 V 18.5 18 H 8.5 9 V 17.5 17 H 8.5 8 V 16.5 16 H 8.5 9 V 15.5 15 H 8.5 8 V 14.5 14 H 7.5 7 V 14.5 15 H 6.5 6 V 15.5 16 H 6.5 7 V 16.5 17 H 6.5 6 V 17.5 18 H 6.5 7 V 18.5 19 H 6.5 6 V 19.5 20 H 6.5 7 V 20.5 21 H 6.5 6 V 21.5 22 H 6.5 7 V 22.5 23 H 6.5 6 V 23.5 24 H 6.5 7 V 24.5 25 H 6.5 6 V 25.5 26 H 6.5 7 V 26.5 27 H 6.5 6 V 27.5 28 H 6.5 7 V 28.5 29 H 6.5 6 V 29.5 30 H 6.5 7 V 30.5 31 H 6.5 6 V 31.5 32 H 6.5 7 V 32.5 33 H 6.5 6 V 33.5 34 H 6.5 7 V 34.5 35 H 6.5 6 V 35.5 36 H 6.5 7 V 36.5 37 H 6.5 6 V 36.5 36 H 5.5 5 V 36.5 37 H 4 3 V 37.5 38 H 2.5 2 Z m 4,-3 V 34 H 5.5 5 V 34.5 35 H 5.5 6 Z m 0,-2 V 32 H 5.5 5 V 32.5 33 H 5.5 6 Z m 0,-2 V 30 H 5.5 5 V 30.5 31 H 5.5 6 Z m 0,-2 V 28 H 5.5 5 V 28.5 29 H 5.5 6 Z m 0,-2 V 26 H 5.5 5 V 26.5 27 H 5.5 6 Z m 0,-2 V 24 H 5.5 5 V 24.5 25 H 5.5 6 Z m 0,-2 V 22 H 5.5 5 V 22.5 23 H 5.5 6 Z m 0,-2 V 20 H 5.5 5 V 20.5 21 H 5.5 6 Z m 0,-2 V 18 H 5.5 5 V 18.5 19 H 5.5 6 Z m 0,-2 V 16 H 5.5 5 V 16.5 17 H 5.5 6 Z m 0,-2 V 14 H 6.5 7 V 13.5 13 H 6.5 6 V 13.5 14 H 5.5 5 V 14.5 15 H 5.5 6 Z m 33,23 V 37 H 39.5 40 V 36.5 36 H 39.5 39 V 35 34 H 40.5 42 V 35.5 37 H 41.5 41 v 0.5 0.5 h -1 -1 z m 2,-2 V 35 H 40.5 40 V 35.5 36 H 40.5 41 Z M 25,36 V 35 H 25.5 26 V 34.5 34 H 29.5 33 V 33.5 33 H 32 31 V 32.5 32 H 30.5 30 V 31.5 31 H 29.5 29 V 30.5 30 H 28.5 28 V 29.5 29 H 27.5 27 V 28 27 H 26.5 26 V 25.5 24 h 0.5 0.5 v 1.5 1.5 h 0.5 0.5 v 1 1 h 0.5 0.5 v 0.5 0.5 h 0.5 0.5 v 0.5 0.5 h 0.5 0.5 v 0.5 0.5 h 1 1 V 32.5 33 H 34.5 36 V 33.5 34 H 36.5 37 V 34.5 35 H 31.5 26 v 1 1 H 25.5 25 Z m 5,0.5 V 36 H 30.5 31 V 36.5 37 H 30.5 30 Z m 2,0 V 36 H 32.5 33 V 36.5 37 H 32.5 32 Z m -19,-1 V 35 H 13.5 14 V 35.5 36 H 13.5 13 Z m 5,-1 V 34 H 17.5 17 V 33.5 33 H 16.5 16 V 31 29 H 16.5 17 V 28.5 28 H 17.5 18 V 27.5 27 h 2 2 v 0.5 0.5 h 0.5 0.5 v 0.5 0.5 h 0.5 0.5 v 2 2 H 23.5 23 V 33.5 34 H 22.5 22 v 0.5 0.5 h -2 -2 z m 4,-1 V 33 H 22.5 23 V 31 29 H 22.5 22 V 28.5 28 H 20 18 V 28.5 29 H 17.5 17 v 2 2 h 0.5 0.5 v 0.5 0.5 h 2 2 z m -9,0 V 33 H 13.5 14 V 33.5 34 H 13.5 13 Z m 0,-2 V 31 H 13.5 14 V 31.5 32 H 13.5 13 Z m 22,0 V 31 H 33.5 32 V 30.5 30 H 31.5 31 V 29.5 29 H 30.5 30 V 28 27 H 29.5 29 v -2 -2 h 0.5 0.5 v 2 2 H 30.5 31 V 23.5 20 H 31.5 32 V 19.5 19 H 32.5 33 V 19.5 20 H 32.5 32 v 4 4 H 32.5 33 V 28.5 29 H 33.5 34 V 29.5 30 H 34.5 35 V 30.5 31 H 37.5 40 V 31.5 32 H 37.5 35 Z m -2,-2 V 29 H 32.5 32 V 28.5 28 H 31.5 31 V 28.5 29 H 31.5 32 V 29.5 30 H 32.5 33 Z M 41,31 V 30 H 41.5 42 V 29.5 29 H 42.5 43 V 28.5 28 h 0.5 0.5 v -1 -1 h 0.5 0.5 v 1 1 H 44.5 44 V 28.5 29 H 44.5 45 V 29.5 30 H 44.5 44 V 30.5 31 H 43.5 43 v 0.5 0.5 h -1 -1 z m 2,-0.5 V 30 H 43.5 44 V 29.5 29 H 43.5 43 V 29.5 30 H 42.5 42 v 0.5 0.5 h 0.5 0.5 z m -30,-1 V 29 H 13.5 14 V 29.5 30 H 13.5 13 Z m 22,-1 V 28 H 34.5 34 V 27.5 27 h 0.5 0.5 v 0.5 0.5 h 1 1 v 0.5 0.5 h -1 -1 z m 4,0 V 28 H 39.5 40 V 28.5 29 H 39.5 39 Z m 7,0 V 28 H 46.5 47 V 28.5 29 H 46.5 46 Z m -33,-1 V 27 H 13.5 14 V 27.5 28 H 13.5 13 Z M 47,23 v -4 h 0.5 0.5 v 4 4 H 47.5 47 Z M 13,25.5 V 25 H 13.5 14 V 24.5 24 H 14.5 15 V 24.5 25 H 14.5 14 V 25.5 26 H 13.5 13 Z M 34,24 v -2 h 0.5 0.5 v 2 2 H 34.5 34 Z M 16,24.5 V 24 H 16.5 17 V 24.5 25 H 16.5 16 Z m 2,0 V 24 H 18.5 19 V 24.5 25 H 18.5 18 Z m 2,0 V 24 H 20.5 21 V 24.5 25 H 20.5 20 Z m 2,0 V 24 H 22.5 23 V 24.5 25 H 22.5 22 Z m 2,0 V 24 H 24.5 25 V 24.5 25 H 24.5 24 Z m -8,-2 V 22 H 15.5 15 V 21.5 21 H 15.5 16 V 21.5 22 H 16.5 17 V 22.5 23 H 16.5 16 Z m 2,0 V 22 H 18.5 19 V 22.5 23 H 18.5 18 Z m 2,0 V 22 H 20.5 21 V 22.5 23 H 20.5 20 Z m 2,0 V 22 H 22.5 23 V 22.5 23 H 22.5 22 Z m 2,0 V 22 H 24.5 25 V 22.5 23 H 24.5 24 Z m 2,-1 V 20 H 26.5 27 V 21.5 23 H 26.5 26 Z m 9,-1 V 20 H 35.5 36 V 19.5 19 H 36.5 37 V 19.5 20 H 36.5 36 V 20.5 21 H 35.5 35 Z M 44,20 V 19 H 43.5 43 V 18.5 18 H 42.5 42 V 17.5 17 h 1 1 V 17.5 18 H 44.5 45 V 18.5 19 H 45.5 46 V 19.5 20 H 45.5 45 V 20.5 21 H 44.5 44 Z M 15,19.5 V 19 H 15.5 16 V 19.5 20 H 15.5 15 Z M 29,19 V 18 H 29.5 30 V 17.5 17 H 30.5 31 V 16.5 16 h 1 1 V 15.5 15 h 1 1 V 14.5 14 h 0.5 0.5 v 1 1 H 35.5 35 V 16.5 17 H 34.5 34 V 17.5 18 H 33.5 33 V 17.5 17 H 32.5 32 V 17.5 18 H 31.5 31 V 18.5 19 H 30.5 30 V 19.5 20 H 29.5 29 Z m 5,-2.5 V 16 H 33.5 33 v 0.5 0.5 h 0.5 0.5 z m -19,1 V 17 H 15.5 16 V 17.5 18 H 15.5 15 Z m 31,0 V 17 H 46.5 47 V 17.5 18 H 46.5 46 Z M 27,16 V 15 H 27.5 28 V 14.5 14 H 28.5 29 V 13.5 13 h 0.5 0.5 v 1 1 H 29.5 29 V 15.5 16 H 28.5 28 V 16.5 17 H 27.5 27 Z M 15,15.5 V 15 H 15.5 16 V 15.5 16 H 15.5 15 Z m -3,-2 V 13 H 11.5 11 V 12.5 12 H 11.5 12 V 12.5 13 H 12.5 13 V 13.5 14 H 12.5 12 Z m 3,0 V 13 H 15.5 16 V 13.5 14 H 15.5 15 Z m -7,-3 V 10 H 8.5 9 V 10.5 11 H 8.5 8 Z m 16,0 V 10 H 24.5 25 V 10.5 11 H 24.5 24 Z m 3,0 V 10 H 27.5 28 V 10.5 11 H 27.5 27 Z m 2,0 V 10 H 29.5 30 V 10.5 11 H 29.5 29 Z m 2,0 V 10 H 31.5 32 V 10.5 11 H 31.5 31 Z m 2,0 V 10 H 33.5 34 V 10.5 11 H 33.5 33 Z m 2,0 V 10 H 35.5 36 V 9.5 9 H 36.5 37 V 8.5 8 H 37.5 38 V 8.5 9 H 38.5 39 V 9.5 10 H 39.5 40 V 10.5 11 H 39.5 39 V 10.5 10 H 38.5 38 V 10.5 11 H 37.5 37 V 10.5 10 H 36.5 36 V 10.5 11 H 35.5 35 Z m 3,-1 V 9 H 37.5 37 V 9.5 10 H 37.5 38 Z M 6,9.5 V 9 H 6.5 7 V 8.5 8 H 7.5 8 V 7 6 H 7.5 7 V 6.5 7 H 6.5 6 V 6.5 6 H 6.5 7 V 5.5 5 H 8 9 V 6.5 8 H 8.5 8 V 8.5 9 H 7.5 7 V 9.5 10 H 6.5 6 Z m 35,0 V 9 H 40.5 40 V 8.5 8 H 40.5 41 V 8.5 9 H 41.5 42 V 9.5 10 H 41.5 41 Z M 22,6.5 V 6 H 21.5 21 V 5.5 5 H 28.5 36 V 6 7 H 35.5 35 V 6.5 6 H 34 33 V 6.5 7 H 32.5 32 V 6.5 6 H 31.5 31 V 6.5 7 H 30.5 30 V 6.5 6 H 29.5 29 V 6.5 7 H 28.5 28 V 6.5 6 H 27.5 27 V 6.5 7 H 26.5 26 V 6.5 6 H 25.5 25 V 6.5 7 H 24.5 24 V 6.5 6 H 23.5 23 V 6.5 7 H 22.5 22 Z m 15,0 V 6 H 37.5 38 V 6.5 7 H 37.5 37 Z M 10,5.5 V 5 H 10.5 11 V 4.5 4 H 11.5 12 V 3.5 3 h 3 3 V 3.5 4 H 18.5 19 V 4.5 5 H 19.5 20 V 5.5 6 H 19.5 19 V 5.5 5 H 18.5 18 V 4.5 4 H 15 12 V 4.5 5 H 11.5 11 V 5.5 6 H 10.5 10 Z"
       id="path522" /><path
       style="fill:#fe0000;stroke-width:1"
       d="M 21,31 V 30 H 20.5 20 V 29.5 29 h 0.5 0.5 v 0.5 0.5 h 0.5 0.5 v 1 1 H 21.5 21 Z"
       id="path520" /><path
       style="fill:#0000fe;stroke-width:1"
       d="M 40,28.5 V 28 H 40.5 41 V 27.5 27 H 41.5 42 V 26.5 26 H 42.5 43 V 25.5 25 H 43.5 44 V 25.5 26 H 43.5 43 V 26.5 27 H 42.5 42 V 27.5 28 H 41.5 41 V 28.5 29 H 40.5 40 Z m 3,-5 V 23 H 43.5 44 V 23.5 24 H 43.5 43 Z m -30,-1 V 22 H 13.5 14 V 22.5 23 H 13.5 13 Z m 30,-1 V 21 H 42.5 42 V 20 19 H 41.5 41 V 18.5 18 h 0.5 0.5 v 0.5 0.5 h 0.5 0.5 v 0.5 0.5 h 0.5 0.5 v 1 1 H 43.5 43 Z"
       id="path518" /><path
       style="fill:#7f7f00;stroke-width:1"
       d="M 13,36.5 V 36 H 13.5 14 V 36.5 37 H 13.5 13 Z m 0,-2 V 34 H 13.5 14 V 34.5 35 H 13.5 13 Z m 0,-2 V 32 H 13.5 14 V 32.5 33 H 13.5 13 Z M 19,31 v -1 h 1 1 V 29.5 29 H 21.5 22 V 29.5 30 H 21.5 21 v 1 1 H 20 19 Z M 13,30.5 V 30 H 13.5 14 V 30.5 31 H 13.5 13 Z m 19,-1 V 29 H 31.5 31 V 28.5 28 H 31.5 32 V 28.5 29 H 32.5 33 V 29.5 30 H 32.5 32 Z m -19,-1 V 28 H 13.5 14 V 28.5 29 H 13.5 13 Z m 0,-2 V 26 H 13.5 14 V 26.5 27 H 13.5 13 Z m 17,0 V 26 H 30.5 31 V 26.5 27 H 30.5 30 Z m -17,-2 V 24 H 13.5 14 V 24.5 25 H 13.5 13 Z m 2,0 V 24 H 15.5 16 V 24.5 25 H 15.5 15 Z m 2,0 V 24 H 17.5 18 V 24.5 25 H 17.5 17 Z m 2,0 V 24 H 19.5 20 V 24.5 25 H 19.5 19 Z m 2,0 V 24 H 21.5 22 V 24.5 25 H 21.5 21 Z m 2,0 V 24 H 23.5 24 V 24.5 25 H 23.5 23 Z m 2,0 V 24 H 25.5 26 V 24.5 25 H 25.5 25 Z m -10,-2 V 22 H 15.5 16 V 22.5 23 H 15.5 15 Z m 2,0 V 22 H 17.5 18 V 22.5 23 H 17.5 17 Z m 2,0 V 22 H 19.5 20 V 22.5 23 H 19.5 19 Z m 2,0 V 22 H 21.5 22 V 22.5 23 H 21.5 21 Z m 2,0 V 22 H 23.5 24 V 22.5 23 H 23.5 23 Z m 2,0 V 22 H 25.5 26 V 22.5 23 H 25.5 25 Z m -10,-2 V 20 H 15.5 16 V 20.5 21 H 15.5 15 Z m 0,-2 V 18 H 15.5 16 V 18.5 19 H 15.5 15 Z m 0,-2 V 16 H 15.5 16 V 16.5 17 H 15.5 15 Z m 0,-2 V 14 H 15.5 16 V 14.5 15 H 15.5 15 Z m 21,0 V 14 H 36.5 37 V 14.5 15 H 36.5 36 Z m 2,0 V 14 H 38.5 39 V 14.5 15 H 38.5 38 Z m -22,-2 V 12 H 16.5 17 V 12.5 13 H 16.5 16 Z m 2,0 V 12 H 18.5 19 V 12.5 13 H 18.5 18 Z m 2,0 V 12 H 20.5 21 V 12.5 13 H 20.5 20 Z m 2,0 V 12 H 22.5 23 V 12.5 13 H 22.5 22 Z m 2,0 V 12 H 24.5 25 V 12.5 13 H 24.5 24 Z m 2,0 V 12 H 26.5 27 V 12.5 13 H 26.5 26 Z m 2,0 V 12 H 28.5 29 V 12.5 13 H 28.5 28 Z m 13,-2 V 10 H 40.5 40 V 9.5 9 H 39.5 39 V 8.5 8 H 39.5 40 V 8.5 9 H 40.5 41 V 9.5 10 H 41.5 42 V 10.5 11 H 41.5 41 Z M 8,9.5 V 9 H 8.5 9 V 8 7 H 9.5 10 V 8 9 H 9.5 9 V 9.5 10 H 8.5 8 Z m 3,-3 V 6 H 11.5 12 V 6.5 7 H 11.5 11 Z m 2,0 V 6 H 13.5 14 V 6.5 7 H 13.5 13 Z m 2,0 V 6 H 15.5 16 V 6.5 7 H 15.5 15 Z m 2,0 V 6 H 17.5 18 V 6.5 7 H 17.5 17 Z m 2,0 V 6 H 19.5 20 V 6.5 7 H 19.5 19 Z m 4,0 V 6 H 23.5 24 V 6.5 7 H 23.5 23 Z m 2,0 V 6 H 25.5 26 V 6.5 7 H 25.5 25 Z m 2,0 V 6 H 27.5 28 V 6.5 7 H 27.5 27 Z m 2,0 V 6 H 29.5 30 V 6.5 7 H 29.5 29 Z m 2,0 V 6 H 31.5 32 V 6.5 7 H 31.5 31 Z m 2,0 V 6 h 1 1 V 6.5 7 h -1 -1 z m 3,0 V 6 H 36.5 37 V 6.5 7 H 36.5 36 Z"
       id="path516" /><path
       style="fill:#7f007f;stroke-width:1"
       d="M 27,36.5 V 36 H 27.5 28 V 36.5 37 H 27.5 27 Z m 2,0 V 36 H 29.5 30 V 36.5 37 H 29.5 29 Z m 2,0 V 36 H 31.5 32 V 36.5 37 H 31.5 31 Z m 2,0 V 36 H 33.5 34 V 36.5 37 H 33.5 33 Z m 2,0 V 36 h 1 1 v 0.5 0.5 h -1 -1 z m -1,-5 V 31 H 34.5 35 V 30.5 30 H 35.5 36 V 30.5 31 H 35.5 35 V 31.5 32 H 34.5 34 Z m 6,-1 V 30 H 40.5 41 V 30.5 31 H 40.5 40 Z m -7,-7 V 19 H 33.5 34 V 18.5 18 H 34.5 35 V 17.5 17 H 35.5 36 V 17.5 18 H 35.5 35 V 18.5 19 H 34.5 34 V 23.5 28 H 33.5 33 Z m -20,-2 V 21 H 13.5 14 V 21.5 22 H 13.5 13 Z m 0,-2 V 19 H 13.5 14 V 19.5 20 H 13.5 13 Z m 0,-2 V 17 H 13.5 14 V 17.5 18 H 13.5 13 Z m 24,-1 V 16 H 36.5 36 V 15.5 15 h 0.5 0.5 v 0.5 0.5 h 3 3 v 0.5 0.5 h -3 -3 z m -24,-1 V 15 H 13.5 14 V 15.5 16 H 13.5 13 Z m 2,-3 V 12 H 15.5 16 V 12.5 13 H 15.5 15 Z m 2,0 V 12 H 17.5 18 V 12.5 13 H 17.5 17 Z m 2,0 V 12 H 19.5 20 V 12.5 13 H 19.5 19 Z m 2,0 V 12 H 21.5 22 V 12.5 13 H 21.5 21 Z m 2,0 V 12 H 23.5 24 V 12.5 13 H 23.5 23 Z m 2,0 V 12 H 25.5 26 V 12.5 13 H 25.5 25 Z m 2,0 V 12 H 27.5 28 V 12.5 13 H 27.5 27 Z m 2,0 V 12 H 29.5 30 V 12.5 13 H 29.5 29 Z m 2,0 V 12 H 31.5 32 V 12.5 13 H 31.5 31 Z m -21,-1 V 11 H 10.5 11 V 11.5 12 H 10.5 10 Z M 7,9.5 V 9 H 7.5 8 V 8.5 8 H 8.5 9 V 8.5 9 H 8.5 8 V 9.5 10 H 7.5 7 Z m 2,-3 V 6 H 9.5 10 V 6.5 7 H 9.5 9 Z"
       id="path514" /><path
       style="fill:#007f7f;stroke-width:1"
       d="M 19,42.5 V 41 h 3 3 V 42.5 44 H 24.5 24 v -1 -1 h -2 -2 v 1 1 H 19.5 19 Z m 11,-4 V 38 H 30.5 31 V 38.5 39 H 30.5 30 Z m 2,0 V 38 H 32.5 33 V 38.5 39 H 32.5 32 Z m 2,0 V 38 H 34.5 35 V 37.5 37 H 34.5 34 V 36.5 36 h 0.5 0.5 v 0.5 0.5 h 1 1 V 37.5 38 H 36 35 V 38.5 39 H 34.5 34 Z m -7,-1 V 37 H 27.5 28 V 36.5 36 H 28.5 29 V 36.5 37 H 28.5 28 V 37.5 38 H 27.5 27 Z m -16,-4 V 33 H 11.5 12 V 33.5 34 H 11.5 11 Z m 0,-4 V 29 H 11.5 12 V 29.5 30 H 11.5 11 Z m 24,-2 V 27 H 34.5 34 V 26.5 26 H 34.5 35 V 26.5 27 H 35.5 36 V 27.5 28 H 35.5 35 Z m -24,-2 V 25 H 11.5 12 V 25.5 26 H 11.5 11 Z m 31,-2 V 21 H 41.5 41 V 20.5 20 H 40.5 40 V 19.5 19 H 38 36 V 19.5 20 H 35.5 35 v 1 1 H 34.5 34 V 21 20 H 34.5 35 V 19.5 19 H 35.5 36 V 18.5 18 h 2.5 2.5 v 0.5 0.5 h 0.5 0.5 v 1 1 H 42.5 43 V 21.5 22 H 43.5 44 V 22.5 23 H 43.5 43 V 23.5 24 H 43.5 44 V 24.5 25 H 43.5 43 V 25.5 26 H 42.5 42 Z m -31,-2 V 21 H 11.5 12 V 21.5 22 H 11.5 11 Z m 2,-1 V 20 H 13.5 14 V 20.5 21 H 13.5 13 Z m 0,-2 V 18 H 13.5 14 V 18.5 19 H 13.5 13 Z m 7,0 V 18 H 22.5 25 V 17 16 H 22.5 20 V 15.5 15 h 3 3 v 2 2 h -3 -3 z m -9,-2 V 16 H 11.5 12 V 16.5 17 H 11.5 11 Z m 2,0 V 16 H 13.5 14 V 16.5 17 H 13.5 13 Z m 23,0 V 16 H 36.5 37 V 16.5 17 H 36.5 36 Z m -23,-2 V 14 H 13.5 14 V 14.5 15 H 13.5 13 Z m 27,0 V 14 H 40.5 41 V 14.5 15 H 40.5 40 Z m -10,-2 V 12 H 30.5 31 V 12.5 13 H 30.5 30 Z m 2,0 V 12 H 32.5 33 V 12.5 13 H 32.5 32 Z M 5,8 V 7 H 5.5 6 V 8 9 H 5.5 5 Z M 10,6.5 V 6 H 10.5 11 V 6.5 7 H 10.5 10 Z m 2,0 V 6 H 12.5 13 V 6.5 7 H 12.5 12 Z m 2,0 V 6 H 14.5 15 V 6.5 7 H 14.5 14 Z m 2,0 V 6 H 16.5 17 V 6.5 7 H 16.5 16 Z m 2,0 V 6 H 18.5 19 V 6.5 7 H 18.5 18 Z m 2,0 V 6 H 20.5 21 V 6.5 7 H 20.5 20 Z m 0,-2 V 4 H 27.5 35 V 4.5 5 H 27.5 20 Z"
       id="path512" /><path
       style="fill:#7f0000;stroke-width:1"
       d="M 19,32.5 V 32 H 18.5 18 V 31 30 H 18.5 19 V 29.5 29 H 19.5 20 V 29.5 30 H 19.5 19 v 1 1 H 20.5 22 V 32.5 33 H 20.5 19 Z m 3,-3 V 29 H 22.5 23 V 29.5 30 H 22.5 22 Z m 15,-15 V 14 H 37.5 38 V 14.5 15 H 37.5 37 Z m 2,0 V 14 H 39.5 40 V 14.5 15 H 39.5 39 Z"
       id="path510" /><path
       style="fill:#00007f;stroke-width:1"
       d="M 12,38.5 V 38 h 7 7 v 0.5 0.5 h -7 -7 z m 16,0 V 38 H 28.5 29 V 38.5 39 H 28.5 28 Z m 10,0 V 38 H 38.5 39 V 38.5 39 H 38.5 38 Z M 6,37.5 V 37 H 5.5 5 V 36.5 36 H 5.5 6 V 35.5 35 H 5.5 5 V 34.5 34 H 5.5 6 V 33.5 33 H 5.5 5 V 32.5 32 H 5.5 6 V 31.5 31 H 5.5 5 V 30.5 30 H 5.5 6 V 29.5 29 H 5.5 5 V 28.5 28 H 5.5 6 V 27.5 27 H 5.5 5 V 26.5 26 H 5.5 6 V 25.5 25 H 5.5 5 V 24.5 24 H 5.5 6 V 23.5 23 H 5.5 5 V 22.5 22 H 5.5 6 V 21.5 21 H 5.5 5 V 20.5 20 H 5.5 6 V 19.5 19 H 5.5 5 V 18.5 18 H 5.5 6 V 17.5 17 H 5.5 5 V 16.5 16 H 5.5 6 V 15.5 15 H 5.5 5 V 14.5 14 H 5.5 6 V 13.5 13 H 5.5 5 V 12.5 12 H 5.5 6 V 12.5 13 H 6.5 7 V 13.5 14 H 6.5 6 V 14.5 15 H 7.5 9 V 15.5 16 H 7.5 6 V 16.5 17 H 7.5 9 V 17.5 18 H 7.5 6 V 18.5 19 H 7.5 9 V 19.5 20 H 7.5 6 V 20.5 21 H 7.5 9 V 21.5 22 H 7.5 6 V 22.5 23 H 7.5 9 V 23.5 24 H 7.5 6 V 24.5 25 H 7.5 9 V 25.5 26 H 7.5 6 V 26.5 27 H 7.5 9 V 27.5 28 H 7.5 6 V 28.5 29 H 7.5 9 V 29.5 30 H 7.5 6 V 30.5 31 H 7.5 9 V 31.5 32 H 7.5 6 V 32.5 33 H 7.5 9 V 33.5 34 H 7.5 6 V 34.5 35 H 7.5 9 V 35.5 36 H 7.5 6 v 0.5 0.5 h 2 2 V 36.5 36 H 10.5 11 V 36.5 37 H 10.5 10 V 37.5 38 H 8 6 Z m 30,-4 V 33 H 36.5 37 V 33.5 34 H 36.5 36 Z m 4,0 V 33 H 40.5 41 V 33.5 34 H 40.5 40 Z m -7,-1 V 32 H 33.5 34 V 32.5 33 H 33.5 33 Z m -2,-1 V 31 H 30.5 30 V 30.5 30 H 29.5 29 V 29.5 29 H 29.5 30 V 29.5 30 H 30.5 31 V 30.5 31 H 31.5 32 V 31.5 32 H 31.5 31 Z m 3,-2 V 29 H 33.5 33 V 28.5 28 H 32.5 32 V 27.5 27 H 32.5 33 V 27.5 28 H 33.5 34 V 28.5 29 H 34.5 35 V 29.5 30 H 34.5 34 Z m 7,-1 V 28 H 41.5 42 V 27.5 27 H 42.5 43 V 27.5 28 H 42.5 42 V 28.5 29 H 41.5 41 Z m 4,0 V 28 H 45.5 46 V 23.5 19 H 45.5 45 V 18.5 18 H 44.5 44 v -1 -1 h 0.5 0.5 v 0.5 0.5 h 0.5 0.5 v 0.5 0.5 h 0.5 0.5 v 5 5 H 46.5 46 V 28.5 29 H 45.5 45 Z m -17,-4 V 22 H 28.5 29 V 24.5 27 H 28.5 28 Z M 14,18 V 14 H 13.5 13 V 14.5 15 H 12.5 12 V 14.5 14 H 11.5 11 V 13.5 13 H 10.5 10 V 12.5 12 H 9.5 9 V 12.5 13 H 8.5 8 V 12.5 12 H 8.5 9 V 11.5 11 H 9.5 10 V 11.5 12 H 10.5 11 V 11.5 11 h 0.5 0.5 v 0.5 0.5 h 1 1 v 1 1 h 0.5 0.5 v 4 4 H 14.5 14 Z M 13,13.5 V 13 H 12.5 12 V 12.5 12 H 11.5 11 v 0.5 0.5 h 0.5 0.5 v 0.5 0.5 h 0.5 0.5 z m 15,6 V 19 H 28.5 29 V 19.5 20 H 28.5 28 Z M 19,17 V 15 H 18.5 18 V 14.5 14 H 22.5 27 V 14.5 15 H 23.5 20 v 2 2 H 19.5 19 Z m 16,1.5 V 18 H 35.5 36 V 18.5 19 H 35.5 35 Z m -3,-3 V 15 H 32.5 33 V 15.5 16 H 32.5 32 Z m 5,0 V 15 h 3 3 v 0.5 0.5 h -3 -3 z m -3,-1 V 14 H 34.5 35 V 14.5 15 H 34.5 34 Z m -4,-1 V 13 h 1 1 v 0.5 0.5 h -1 -1 z m 3,-1 V 12 H 33.5 34 V 12.5 13 H 33.5 33 Z M 5,10 V 9 H 5.5 6 V 9.5 10 H 6.5 7 V 10.5 11 H 6 5 Z M 10,7.5 V 7 H 10.5 11 V 7.5 8 H 10.5 10 Z"
       id="path508" /><path
       style="fill:#000000;stroke-width:1"
       d="M 19,44.5 V 44 H 10.5 2 V 43.5 43 h 8.5 8.5 v 0.5 0.5 h 3 3 V 42.5 41 h 0.5 0.5 v 1 1 h 9 9 V 43.5 44 H 35 26 V 44.5 45 H 22.5 19 Z M 0,43.5 V 43 H 0.5 1 V 43.5 44 H 0.5 0 Z m 45,0 V 43 H 45.5 46 V 43.5 44 H 45.5 45 Z M 21,40 v -1 h 0.5 0.5 v 1 1 H 21.5 21 Z m 2,0 v -1 h 0.5 0.5 v 1 1 H 23.5 23 Z M 3,38 V 37 H 4.5 6 v 0.5 0.5 h 2 2 V 37.5 37 H 10.5 11 V 36.5 36 H 11.5 12 V 26 16 H 11.5 11 V 15.5 15 H 10.5 10 V 14.5 14 H 9.5 9 V 13 12 H 8 7 V 11 10 H 7.5 8 V 10.5 11 H 8.5 9 V 11.5 12 H 9.5 10 v 0.5 0.5 h 0.5 0.5 v 0.5 0.5 h 0.5 0.5 v 0.5 0.5 h 0.5 0.5 v 4 4 H 13.5 14 V 22.5 22 h 0.5 0.5 v 0.5 0.5 h 6 6 V 21.5 20 H 22.5 18 V 17.5 15 h 0.5 0.5 v 2 2 h 3.5 3.5 v -2 -2 h 0.5 0.5 v 1 1 H 27.5 28 V 16.5 16 H 28.5 29 V 15.5 15 H 29.5 30 V 14.5 14 h 1 1 V 13.5 13 h 1 1 V 12.5 12 H 24.5 15 v 1 1 H 14.5 14 V 13 12 H 13 12 V 11.5 11 H 27 42 V 10 9 H 41.5 41 V 8.5 8 H 26 11 V 7.5 7 h 5 5 V 6.5 6 H 20.5 20 V 5.5 5 H 19.5 19 V 4.5 4 H 19.5 20 V 4.5 5 H 20.5 21 V 5.5 6 H 21.5 22 V 6.5 7 h 8 8 V 6.5 6 H 37 36 V 5.5 5 h 1 1 V 5.5 6 H 38.5 39 V 6.5 7 h 1 1 V 7.5 8 H 41.5 42 V 8.5 9 H 42.5 43 V 11.5 14 H 43.5 44 V 14.5 15 H 44.5 45 V 15.5 16 H 45.5 46 V 16.5 17 H 45.5 45 V 16.5 16 H 44.5 44 V 16.5 17 H 43.5 43 V 16 15 H 42 41 V 14.5 14 H 37.5 34 V 14.5 15 H 33 32 V 15.5 16 H 31.5 31 V 16.5 17 H 30.5 30 V 17.5 18 H 29.5 29 V 18.5 19 H 28.5 28 v 0.5 0.5 h 0.5 0.5 v 1 1 H 28.5 28 v 2.5 2.5 h 1 1 v 1 1 h 0.5 0.5 v 0.5 0.5 h 0.5 0.5 v 0.5 0.5 h 1 1 V 31.5 32 H 38.5 43 V 31.5 31 H 43.5 44 V 30.5 30 H 44.5 45 V 29.5 29 H 45.5 46 V 29.5 30 H 45.5 45 V 30.5 31 H 44.5 44 V 31.5 32 H 43.5 43 v 3 3 H 42.5 42 V 38.5 39 H 40.5 39 V 38.5 38 H 38.5 38 V 38.5 39 H 37 36 V 38.5 38 h 0.5 0.5 v -1 -1 h -5 -5 v 1 1 H 27.5 28 V 38.5 39 H 27 26 V 38.5 38 H 19 12 V 38.5 39 H 7.5 3 Z M 41,37.5 V 37 H 41.5 42 V 35.5 34 H 41.5 41 V 33.5 33 H 40.5 40 V 33.5 34 H 39.5 39 v 2 2 h 1 1 z M 26,36 V 35 H 31.5 37 V 34 33 H 35.5 34 V 32.5 32 H 33 32 V 31.5 31 H 31.5 31 V 30.5 30 H 30.5 30 V 29.5 29 H 29 28 V 28 27 H 27.5 27 V 25.5 24 H 20 13 V 30.5 37 H 19.5 26 Z M 18,33.5 V 33 H 17.5 17 V 31 29 H 17.5 18 V 28.5 28 h 2 2 V 28.5 29 H 20.5 19 V 29.5 30 H 18.5 18 v 1 1 H 18.5 19 V 32.5 33 H 20.5 22 V 31.5 30 H 22.5 23 V 31.5 33 H 22.5 22 v 0.5 0.5 h -2 -2 z m -11,3 V 36 H 7.5 8 V 36.5 37 H 7.5 7 Z m 0,-2 V 34 H 7.5 8 V 34.5 35 H 7.5 7 Z m 0,-2 V 32 H 7.5 8 V 32.5 33 H 7.5 7 Z m 0,-2 V 30 H 7.5 8 V 30.5 31 H 7.5 7 Z m 29,0 V 30 H 35.5 35 V 29.5 29 H 34.5 34 V 28.5 28 H 34.5 35 V 28.5 29 H 38.5 42 V 28.5 28 H 42.5 43 V 27 26 H 43.5 44 V 23.5 21 H 44.5 45 V 23.5 26 H 44.5 44 v 1 1 H 43.5 43 V 28.5 29 H 42.5 42 V 29.5 30 H 41 40 V 30.5 31 H 38 36 Z M 7,28.5 V 28 H 7.5 8 V 28.5 29 H 7.5 7 Z m 0,-2 V 26 H 7.5 8 V 26.5 27 H 7.5 7 Z m 25,-3 V 20 H 32.5 33 V 23.5 27 H 32.5 32 Z m -25,1 V 24 H 7.5 8 V 24.5 25 H 7.5 7 Z m 0,-2 V 22 H 7.5 8 V 22.5 23 H 7.5 7 Z m 0,-2 V 20 H 7.5 8 V 20.5 21 H 7.5 7 Z m 27,-1 V 19 H 33.5 33 V 18.5 18 H 33.5 34 V 17.5 17 H 34.5 35 V 16.5 16 h 0.5 0.5 v 0.5 0.5 h 3 3 V 17.5 18 H 42.5 43 V 18.5 19 H 43.5 44 V 19.5 20 H 43.5 43 V 19.5 19 H 42.5 42 V 18.5 18 H 39 36 V 17.5 17 H 35.5 35 V 17.5 18 H 34.5 34 V 18.5 19 H 34.5 35 V 19.5 20 H 34.5 34 Z M 7,18.5 V 18 H 7.5 8 V 18.5 19 H 7.5 7 Z m 0,-2 V 16 H 7.5 8 V 16.5 17 H 7.5 7 Z m 0,-2 V 14 H 7.5 8 V 14.5 15 H 7.5 7 Z"
       id="path506" /></g></svg>
