<?xml version="1.0" encoding="UTF-8" standalone="no"?>
<svg
   xmlns:dc="http://purl.org/dc/elements/1.1/"
   xmlns:cc="http://creativecommons.org/ns#"
   xmlns:rdf="http://www.w3.org/1999/02/22-rdf-syntax-ns#"
   xmlns:svg="http://www.w3.org/2000/svg"
   xmlns="http://www.w3.org/2000/svg"
   xmlns:sodipodi="http://sodipodi.sourceforge.net/DTD/sodipodi-0.dtd"
   xmlns:inkscape="http://www.inkscape.org/namespaces/inkscape"
   id="svg1198"
   width="640px"
   version="1.1"
   height="640px"
   sodipodi:docname="chicago95_tmp_file.svg"
   inkscape:version="0.92.5 (2060ec1f9f, 2020-04-08)">
  <sodipodi:namedview
     pagecolor="#ffffff"
     bordercolor="#666666"
     borderopacity="1"
     objecttolerance="10"
     gridtolerance="10"
     guidetolerance="10"
     inkscape:pageopacity="0"
     inkscape:pageshadow="2"
     inkscape:window-width="640"
     inkscape:window-height="480"
     id="namedview602"
     showgrid="false"
     inkscape:zoom="0.36875"
     inkscape:cx="320"
     inkscape:cy="320"
     inkscape:window-x="0"
     inkscape:window-y="0"
     inkscape:window-maximized="0"
     inkscape:current-layer="svg1198" />
  <metadata
     id="metadata1202">
    <rdf:RDF>
      <cc:Work
         rdf:about="">
        <dc:format>image/svg+xml</dc:format>
        <dc:type
           rdf:resource="http://purl.org/dc/dcmitype/StillImage" />
      </cc:Work>
    </rdf:RDF>
  </metadata>
  <defs
     id="defs2" />
  <path
     style="fill:#ffffff"
     d="M 300 100 L 300 121 L 320 121 L 321 121 L 340 121 L 341 121 L 361 121 L 361 100 L 341 100 L 340 100 L 321 100 L 320 100 L 300 100 z M 140 140 L 140 161 L 160 161 L 161 161 L 180 161 L 181 161 L 201 161 L 201 140 L 181 140 L 180 140 L 161 140 L 160 140 L 140 140 z M 500 140 L 500 161 L 521 161 L 521 140 L 500 140 z M 100 180 L 100 201 L 120 201 L 121 201 L 140 201 L 141 201 L 160 201 L 161 201 L 180 201 L 181 201 L 200 201 L 201 201 L 220 201 L 221 201 L 240 201 L 241 201 L 260 201 L 261 201 L 280 201 L 281 201 L 300 201 L 301 201 L 320 201 L 321 201 L 340 201 L 341 201 L 360 201 L 361 201 L 380 201 L 381 201 L 400 201 L 401 201 L 420 201 L 421 201 L 440 201 L 441 201 L 460 201 L 461 201 L 480 201 L 481 201 L 500 201 L 501 201 L 520 201 L 521 201 L 540 201 L 541 201 L 560 201 L 561 201 L 580 201 L 580 220 L 580 221 L 580 240 L 580 241 L 580 261 L 601 261 L 601 241 L 601 240 L 601 221 L 601 220 L 601 200 L 581 200 L 581 180 L 561 180 L 560 180 L 541 180 L 540 180 L 521 180 L 520 180 L 501 180 L 500 180 L 481 180 L 480 180 L 461 180 L 460 180 L 441 180 L 440 180 L 421 180 L 420 180 L 401 180 L 400 180 L 381 180 L 380 180 L 361 180 L 360 180 L 341 180 L 340 180 L 321 180 L 320 180 L 301 180 L 300 180 L 281 180 L 280 180 L 261 180 L 260 180 L 241 180 L 240 180 L 221 180 L 220 180 L 201 180 L 200 180 L 181 180 L 180 180 L 161 180 L 160 180 L 141 180 L 140 180 L 121 180 L 120 180 L 100 180 z M 300 240 L 300 261 L 320 261 L 320 280 L 300 280 L 300 301 L 320 301 L 321 301 L 341 301 L 341 281 L 360 281 L 361 281 L 380 281 L 381 281 L 400 281 L 401 281 L 421 281 L 421 260 L 401 260 L 400 260 L 381 260 L 380 260 L 361 260 L 360 260 L 341 260 L 340 260 L 321 260 L 321 240 L 300 240 z "
     id="rect476" />
  <path
     style="fill:#00ffff"
     d="M 380 340 L 380 361 L 400 361 L 400 381 L 420 381 L 420 400 L 420 401 L 420 421 L 441 421 L 441 401 L 441 400 L 441 380 L 421 380 L 421 360 L 401 360 L 401 340 L 380 340 z "
     id="rect834" />
  <path
     style="fill:#0000ff"
     d="M 360 340 L 360 361 L 381 361 L 381 340 L 360 340 z M 400 340 L 400 361 L 420 361 L 420 380 L 400 380 L 400 401 L 421 401 L 421 381 L 441 381 L 441 360 L 421 360 L 421 340 L 400 340 z M 440 400 L 440 420 L 420 420 L 420 440 L 420 441 L 420 460 L 400 460 L 400 481 L 421 481 L 421 461 L 441 461 L 441 441 L 441 440 L 441 421 L 461 421 L 461 400 L 440 400 z "
     id="rect1006" />
  <path
     style="fill:#c0c0c0"
     d="M 300 120 L 300 140 L 280 140 L 280 161 L 300 161 L 301 161 L 320 161 L 321 161 L 340 161 L 341 161 L 360 161 L 361 161 L 380 161 L 381 161 L 401 161 L 401 140 L 381 140 L 381 120 L 361 120 L 360 120 L 341 120 L 340 120 L 321 120 L 320 120 L 300 120 z M 60 160 L 60 181 L 80 181 L 80 201 L 100 201 L 100 220 L 100 221 L 100 240 L 100 241 L 100 261 L 120 261 L 121 261 L 140 261 L 141 261 L 160 261 L 161 261 L 180 261 L 181 261 L 200 261 L 201 261 L 220 261 L 221 261 L 240 261 L 241 261 L 260 261 L 260 281 L 280 281 L 280 301 L 300 301 L 300 320 L 280 320 L 280 340 L 280 341 L 280 360 L 260 360 L 260 380 L 260 381 L 260 400 L 260 401 L 260 420 L 260 421 L 260 440 L 260 441 L 260 461 L 280 461 L 280 480 L 280 481 L 280 501 L 300 501 L 300 521 L 320 521 L 321 521 L 340 521 L 340 541 L 360 541 L 361 541 L 380 541 L 381 541 L 400 541 L 401 541 L 420 541 L 421 541 L 441 541 L 441 521 L 460 521 L 461 521 L 481 521 L 481 501 L 501 501 L 501 481 L 501 480 L 501 461 L 521 461 L 521 441 L 521 440 L 521 421 L 521 420 L 521 401 L 521 400 L 521 381 L 521 380 L 521 360 L 501 360 L 501 341 L 501 340 L 501 320 L 481 320 L 481 300 L 461 300 L 460 300 L 441 300 L 441 280 L 421 280 L 420 280 L 401 280 L 400 280 L 381 280 L 380 280 L 361 280 L 360 280 L 340 280 L 340 300 L 321 300 L 320 300 L 301 300 L 301 281 L 321 281 L 321 261 L 340 261 L 341 261 L 360 261 L 361 261 L 380 261 L 381 261 L 401 261 L 401 241 L 420 241 L 421 241 L 440 241 L 440 261 L 460 261 L 461 261 L 480 261 L 481 261 L 500 261 L 501 261 L 520 261 L 521 261 L 540 261 L 541 261 L 560 261 L 561 261 L 581 261 L 581 241 L 581 240 L 581 221 L 581 220 L 581 200 L 561 200 L 560 200 L 541 200 L 540 200 L 521 200 L 520 200 L 501 200 L 500 200 L 481 200 L 480 200 L 461 200 L 460 200 L 441 200 L 440 200 L 421 200 L 420 200 L 401 200 L 400 200 L 381 200 L 380 200 L 361 200 L 360 200 L 341 200 L 340 200 L 321 200 L 320 200 L 301 200 L 300 200 L 281 200 L 280 200 L 261 200 L 260 200 L 241 200 L 240 200 L 221 200 L 220 200 L 201 200 L 200 200 L 181 200 L 180 200 L 161 200 L 160 200 L 141 200 L 140 200 L 121 200 L 120 200 L 101 200 L 101 181 L 101 180 L 101 160 L 81 160 L 80 160 L 60 160 z M 220 160 L 220 181 L 241 181 L 241 160 L 220 160 z M 420 160 L 420 181 L 440 181 L 441 181 L 461 181 L 461 160 L 441 160 L 440 160 L 420 160 z M 540 160 L 540 181 L 561 181 L 561 160 L 540 160 z M 301 221 L 320 221 L 321 221 L 340 221 L 341 221 L 360 221 L 361 221 L 380 221 L 381 221 L 400 221 L 400 240 L 381 240 L 380 240 L 361 240 L 360 240 L 341 240 L 340 240 L 320 240 L 320 260 L 301 260 L 300 260 L 281 260 L 280 260 L 261 260 L 261 241 L 280 241 L 281 241 L 301 241 L 301 221 z M 60 260 L 60 280 L 60 281 L 60 300 L 60 301 L 60 320 L 60 321 L 60 340 L 60 341 L 60 360 L 60 361 L 60 380 L 60 381 L 60 400 L 60 401 L 60 420 L 60 421 L 60 440 L 60 441 L 60 460 L 60 461 L 60 481 L 81 481 L 81 461 L 81 460 L 81 441 L 81 440 L 81 421 L 81 420 L 81 401 L 81 400 L 81 381 L 81 380 L 81 361 L 81 360 L 81 341 L 81 340 L 81 321 L 81 320 L 81 301 L 81 300 L 81 281 L 81 280 L 81 260 L 60 260 z M 100 280 L 100 300 L 100 301 L 100 320 L 100 321 L 100 340 L 100 341 L 100 360 L 100 361 L 100 380 L 100 381 L 100 400 L 100 401 L 100 420 L 100 421 L 100 440 L 100 441 L 100 460 L 100 461 L 100 480 L 100 481 L 100 500 L 100 501 L 100 521 L 121 521 L 121 501 L 121 500 L 121 481 L 121 480 L 121 461 L 121 460 L 121 441 L 121 440 L 121 421 L 121 420 L 121 401 L 121 400 L 121 381 L 121 380 L 121 361 L 121 360 L 121 341 L 121 340 L 121 321 L 121 320 L 121 301 L 121 300 L 121 280 L 100 280 z M 580 280 L 580 300 L 580 301 L 580 320 L 580 321 L 580 340 L 580 341 L 580 360 L 580 361 L 580 380 L 580 381 L 580 400 L 580 401 L 580 420 L 580 421 L 580 440 L 580 441 L 580 460 L 580 461 L 580 480 L 580 481 L 580 501 L 601 501 L 601 481 L 601 480 L 601 461 L 601 460 L 601 441 L 601 440 L 601 421 L 601 420 L 601 401 L 601 400 L 601 381 L 601 380 L 601 361 L 601 360 L 601 341 L 601 340 L 601 321 L 601 320 L 601 301 L 601 300 L 601 280 L 580 280 z M 341 301 L 360 301 L 361 301 L 380 301 L 381 301 L 400 301 L 401 301 L 420 301 L 421 301 L 440 301 L 440 321 L 460 321 L 461 321 L 480 321 L 480 340 L 480 341 L 480 361 L 500 361 L 500 380 L 500 381 L 500 400 L 500 401 L 500 420 L 500 421 L 500 440 L 500 441 L 500 460 L 480 460 L 480 480 L 480 481 L 480 500 L 461 500 L 460 500 L 440 500 L 440 520 L 421 520 L 420 520 L 401 520 L 400 520 L 381 520 L 380 520 L 361 520 L 360 520 L 341 520 L 341 500 L 321 500 L 320 500 L 301 500 L 301 481 L 301 480 L 301 460 L 281 460 L 281 441 L 281 440 L 281 421 L 281 420 L 281 401 L 281 400 L 281 381 L 281 380 L 281 361 L 301 361 L 301 341 L 301 340 L 301 321 L 320 321 L 321 321 L 341 321 L 341 301 z "
     id="rect1168" />
  <path
     style="fill:#000000"
     d="M 280 80 L 280 100 L 260 100 L 260 120 L 240 120 L 240 140 L 221 140 L 220 140 L 201 140 L 201 120 L 181 120 L 180 120 L 161 120 L 160 120 L 141 120 L 140 120 L 120 120 L 120 140 L 101 140 L 100 140 L 81 140 L 80 140 L 60 140 L 60 160 L 40 160 L 40 180 L 40 181 L 40 200 L 40 201 L 40 220 L 40 221 L 40 240 L 40 241 L 40 260 L 40 261 L 40 280 L 40 281 L 40 300 L 40 301 L 40 320 L 40 321 L 40 340 L 40 341 L 40 360 L 40 361 L 40 380 L 40 381 L 40 400 L 40 401 L 40 420 L 40 421 L 40 440 L 40 441 L 40 460 L 40 461 L 40 481 L 60 481 L 60 501 L 80 501 L 80 521 L 100 521 L 100 541 L 120 541 L 121 541 L 140 541 L 141 541 L 160 541 L 161 541 L 180 541 L 181 541 L 200 541 L 201 541 L 220 541 L 221 541 L 240 541 L 241 541 L 260 541 L 261 541 L 280 541 L 281 541 L 300 541 L 301 541 L 321 541 L 321 520 L 301 520 L 301 500 L 281 500 L 281 480 L 261 480 L 261 461 L 261 460 L 261 441 L 261 440 L 261 421 L 261 420 L 261 401 L 261 400 L 261 381 L 261 380 L 261 361 L 261 360 L 261 341 L 281 341 L 281 320 L 261 320 L 261 300 L 241 300 L 241 281 L 261 281 L 261 261 L 280 261 L 281 261 L 301 261 L 301 241 L 320 241 L 321 241 L 340 241 L 341 241 L 360 241 L 361 241 L 380 241 L 381 241 L 400 241 L 400 261 L 420 261 L 421 261 L 440 261 L 440 281 L 460 281 L 460 301 L 480 301 L 480 321 L 500 321 L 500 341 L 520 341 L 520 360 L 520 361 L 520 380 L 520 381 L 520 400 L 520 401 L 520 420 L 520 421 L 520 440 L 520 441 L 520 460 L 520 461 L 520 480 L 500 480 L 500 500 L 480 500 L 480 520 L 460 520 L 460 541 L 480 541 L 481 541 L 500 541 L 501 541 L 520 541 L 521 541 L 540 541 L 541 541 L 560 541 L 561 541 L 581 541 L 581 521 L 601 521 L 601 501 L 621 501 L 621 481 L 621 480 L 621 461 L 621 460 L 621 441 L 621 440 L 621 421 L 621 420 L 621 401 L 621 400 L 621 381 L 621 380 L 621 361 L 621 360 L 621 341 L 621 340 L 621 321 L 621 320 L 621 301 L 621 300 L 621 281 L 621 280 L 621 261 L 621 260 L 621 241 L 621 240 L 621 221 L 621 220 L 621 200 L 601 200 L 601 180 L 581 180 L 581 160 L 561 160 L 561 140 L 541 140 L 540 140 L 521 140 L 521 120 L 501 120 L 500 120 L 480 120 L 480 140 L 461 140 L 460 140 L 441 140 L 440 140 L 421 140 L 420 140 L 401 140 L 401 120 L 381 120 L 381 100 L 361 100 L 361 80 L 341 80 L 340 80 L 321 80 L 320 80 L 301 80 L 300 80 L 280 80 z M 281 101 L 300 101 L 301 101 L 320 101 L 321 101 L 340 101 L 341 101 L 360 101 L 360 121 L 380 121 L 380 141 L 400 141 L 400 160 L 381 160 L 380 160 L 361 160 L 360 160 L 341 160 L 340 160 L 321 160 L 320 160 L 301 160 L 300 160 L 281 160 L 281 141 L 301 141 L 301 120 L 281 120 L 281 101 z M 261 121 L 280 121 L 280 140 L 261 140 L 261 121 z M 121 141 L 140 141 L 141 141 L 160 141 L 161 141 L 180 141 L 181 141 L 200 141 L 200 160 L 181 160 L 180 160 L 161 160 L 160 160 L 141 160 L 140 160 L 121 160 L 121 141 z M 481 141 L 500 141 L 501 141 L 520 141 L 520 160 L 501 160 L 500 160 L 481 160 L 481 141 z M 61 161 L 80 161 L 81 161 L 100 161 L 101 161 L 120 161 L 120 181 L 140 181 L 141 181 L 160 181 L 161 181 L 180 181 L 181 181 L 200 181 L 201 181 L 221 181 L 221 161 L 240 161 L 241 161 L 260 161 L 260 181 L 280 181 L 281 181 L 300 181 L 301 181 L 320 181 L 321 181 L 340 181 L 341 181 L 360 181 L 361 181 L 380 181 L 381 181 L 400 181 L 401 181 L 421 181 L 421 161 L 440 161 L 441 161 L 460 161 L 461 161 L 480 161 L 480 181 L 500 181 L 501 181 L 520 181 L 521 181 L 541 181 L 541 161 L 560 161 L 560 181 L 580 181 L 580 201 L 600 201 L 600 220 L 600 221 L 600 240 L 600 241 L 600 260 L 581 260 L 580 260 L 561 260 L 560 260 L 541 260 L 540 260 L 521 260 L 520 260 L 501 260 L 500 260 L 481 260 L 480 260 L 461 260 L 460 260 L 441 260 L 441 240 L 421 240 L 420 240 L 401 240 L 401 220 L 381 220 L 380 220 L 361 220 L 360 220 L 341 220 L 340 220 L 321 220 L 320 220 L 300 220 L 300 240 L 281 240 L 280 240 L 260 240 L 260 260 L 241 260 L 240 260 L 221 260 L 220 260 L 201 260 L 200 260 L 181 260 L 180 260 L 161 260 L 160 260 L 141 260 L 140 260 L 121 260 L 120 260 L 101 260 L 100 260 L 81 260 L 81 240 L 61 240 L 61 221 L 61 220 L 61 201 L 61 200 L 61 181 L 61 180 L 61 161 z M 61 261 L 80 261 L 80 280 L 80 281 L 80 300 L 80 301 L 80 320 L 80 321 L 80 340 L 80 341 L 80 360 L 80 361 L 80 380 L 80 381 L 80 400 L 80 401 L 80 420 L 80 421 L 80 440 L 80 441 L 80 460 L 80 461 L 80 480 L 61 480 L 61 461 L 61 460 L 61 441 L 61 440 L 61 421 L 61 420 L 61 401 L 61 400 L 61 381 L 61 380 L 61 361 L 61 360 L 61 341 L 61 340 L 61 321 L 61 320 L 61 301 L 61 300 L 61 281 L 61 280 L 61 261 z M 101 281 L 120 281 L 121 281 L 140 281 L 141 281 L 160 281 L 161 281 L 180 281 L 181 281 L 200 281 L 201 281 L 220 281 L 220 300 L 200 300 L 200 320 L 200 321 L 200 340 L 200 341 L 200 360 L 200 361 L 200 380 L 200 381 L 200 400 L 200 401 L 200 420 L 200 421 L 200 441 L 220 441 L 220 461 L 240 461 L 240 481 L 260 481 L 260 501 L 280 501 L 280 520 L 261 520 L 260 520 L 241 520 L 240 520 L 221 520 L 220 520 L 201 520 L 200 520 L 181 520 L 180 520 L 161 520 L 160 520 L 141 520 L 140 520 L 121 520 L 120 520 L 101 520 L 101 501 L 101 500 L 101 481 L 101 480 L 101 461 L 101 460 L 101 441 L 101 440 L 101 421 L 101 420 L 101 401 L 101 400 L 101 381 L 101 380 L 101 361 L 101 360 L 101 341 L 101 340 L 101 321 L 101 320 L 101 301 L 101 300 L 101 281 z M 481 281 L 500 281 L 501 281 L 520 281 L 521 281 L 540 281 L 541 281 L 560 281 L 561 281 L 580 281 L 581 281 L 600 281 L 600 300 L 600 301 L 600 320 L 600 321 L 600 340 L 600 341 L 600 360 L 600 361 L 600 380 L 600 381 L 600 400 L 600 401 L 600 420 L 600 421 L 600 440 L 600 441 L 600 460 L 600 461 L 600 480 L 600 481 L 600 500 L 581 500 L 580 500 L 560 500 L 560 520 L 541 520 L 540 520 L 521 520 L 520 520 L 501 520 L 501 501 L 521 501 L 521 481 L 541 481 L 541 461 L 541 460 L 541 441 L 541 440 L 541 421 L 541 420 L 541 401 L 541 400 L 541 381 L 541 380 L 541 361 L 541 360 L 541 340 L 521 340 L 521 320 L 501 320 L 501 300 L 481 300 L 481 281 z M 340 300 L 340 320 L 320 320 L 320 340 L 300 340 L 300 360 L 280 360 L 280 380 L 280 381 L 280 400 L 280 401 L 280 420 L 280 421 L 280 440 L 280 441 L 280 461 L 300 461 L 300 481 L 320 481 L 320 501 L 340 501 L 340 521 L 360 521 L 361 521 L 380 521 L 381 521 L 400 521 L 401 521 L 420 521 L 421 521 L 441 521 L 441 501 L 461 501 L 461 481 L 481 481 L 481 461 L 501 461 L 501 441 L 501 440 L 501 421 L 501 420 L 501 401 L 501 400 L 501 381 L 501 380 L 501 360 L 481 360 L 481 340 L 461 340 L 461 320 L 441 320 L 441 300 L 421 300 L 420 300 L 401 300 L 400 300 L 381 300 L 380 300 L 361 300 L 360 300 L 340 300 z M 221 301 L 240 301 L 240 320 L 221 320 L 221 301 z M 241 321 L 260 321 L 260 340 L 241 340 L 241 321 z M 361 341 L 380 341 L 381 341 L 400 341 L 401 341 L 420 341 L 420 361 L 440 361 L 440 380 L 440 381 L 440 401 L 460 401 L 460 420 L 440 420 L 440 440 L 440 441 L 440 460 L 421 460 L 421 441 L 421 440 L 421 421 L 421 420 L 421 400 L 401 400 L 401 381 L 401 380 L 401 360 L 381 360 L 380 360 L 361 360 L 361 341 z M 401 461 L 420 461 L 420 480 L 401 480 L 401 461 z M 340 540 L 340 561 L 360 561 L 361 561 L 380 561 L 381 561 L 400 561 L 401 561 L 420 561 L 421 561 L 441 561 L 441 540 L 421 540 L 420 540 L 401 540 L 400 540 L 381 540 L 380 540 L 361 540 L 360 540 L 340 540 z "
     id="rect1194" />
  <path
     style="fill:#808080"
     d="M 280 100 L 280 120 L 260 120 L 260 141 L 281 141 L 281 121 L 301 121 L 301 100 L 280 100 z M 100 120 L 100 141 L 120 141 L 120 160 L 100 160 L 100 181 L 121 181 L 121 161 L 141 161 L 141 140 L 121 140 L 121 120 L 100 120 z M 460 120 L 460 141 L 480 141 L 480 160 L 460 160 L 460 181 L 481 181 L 481 161 L 501 161 L 501 140 L 481 140 L 481 120 L 460 120 z M 240 160 L 240 181 L 261 181 L 261 160 L 240 160 z M 60 180 L 60 200 L 60 201 L 60 220 L 60 221 L 60 241 L 80 241 L 80 261 L 101 261 L 101 241 L 101 240 L 101 221 L 101 220 L 101 200 L 81 200 L 81 180 L 60 180 z M 420 260 L 420 281 L 440 281 L 440 301 L 461 301 L 461 280 L 441 280 L 441 260 L 420 260 z M 120 280 L 120 300 L 120 301 L 120 320 L 120 321 L 120 340 L 120 341 L 120 360 L 120 361 L 120 380 L 120 381 L 120 400 L 120 401 L 120 420 L 120 421 L 120 440 L 120 441 L 120 460 L 120 461 L 120 480 L 120 481 L 120 500 L 120 501 L 120 521 L 140 521 L 141 521 L 160 521 L 161 521 L 180 521 L 181 521 L 200 521 L 201 521 L 220 521 L 221 521 L 240 521 L 241 521 L 260 521 L 261 521 L 281 521 L 281 500 L 261 500 L 261 481 L 281 481 L 281 460 L 260 460 L 260 480 L 241 480 L 241 460 L 221 460 L 221 440 L 201 440 L 201 421 L 201 420 L 201 401 L 201 400 L 201 381 L 201 380 L 201 361 L 201 360 L 201 341 L 201 340 L 201 321 L 201 320 L 201 301 L 220 301 L 220 321 L 240 321 L 240 341 L 260 341 L 260 361 L 281 361 L 281 340 L 261 340 L 261 321 L 280 321 L 281 321 L 300 321 L 300 341 L 321 341 L 321 320 L 301 320 L 301 300 L 281 300 L 281 280 L 261 280 L 260 280 L 240 280 L 240 300 L 221 300 L 221 280 L 201 280 L 200 280 L 181 280 L 180 280 L 161 280 L 160 280 L 141 280 L 140 280 L 120 280 z M 480 280 L 480 301 L 500 301 L 500 321 L 520 321 L 520 340 L 500 340 L 500 361 L 521 361 L 521 341 L 540 341 L 540 360 L 540 361 L 540 380 L 540 381 L 540 400 L 540 401 L 540 420 L 540 421 L 540 440 L 540 441 L 540 460 L 540 461 L 540 480 L 521 480 L 521 460 L 500 460 L 500 481 L 520 481 L 520 500 L 500 500 L 500 521 L 520 521 L 521 521 L 540 521 L 541 521 L 561 521 L 561 501 L 581 501 L 581 481 L 581 480 L 581 461 L 581 460 L 581 441 L 581 440 L 581 421 L 581 420 L 581 401 L 581 400 L 581 381 L 581 380 L 581 361 L 581 360 L 581 341 L 581 340 L 581 321 L 581 320 L 581 301 L 581 300 L 581 280 L 561 280 L 560 280 L 541 280 L 540 280 L 521 280 L 520 280 L 501 280 L 500 280 L 480 280 z M 241 301 L 260 301 L 260 320 L 241 320 L 241 301 z M 460 320 L 460 341 L 481 341 L 481 320 L 460 320 z M 300 480 L 300 501 L 321 501 L 321 480 L 300 480 z M 460 480 L 460 501 L 481 501 L 481 480 L 460 480 z M 320 520 L 320 540 L 320 541 L 320 561 L 341 561 L 341 541 L 341 540 L 341 520 L 320 520 z M 440 520 L 440 540 L 440 541 L 440 561 L 461 561 L 461 541 L 461 540 L 461 520 L 440 520 z "
     id="rect1196" />
</svg>
