<?xml version="1.0" encoding="UTF-8" standalone="no"?>
<svg
   xmlns:dc="http://purl.org/dc/elements/1.1/"
   xmlns:cc="http://creativecommons.org/ns#"
   xmlns:rdf="http://www.w3.org/1999/02/22-rdf-syntax-ns#"
   xmlns:svg="http://www.w3.org/2000/svg"
   xmlns="http://www.w3.org/2000/svg"
   xmlns:sodipodi="http://sodipodi.sourceforge.net/DTD/sodipodi-0.dtd"
   xmlns:inkscape="http://www.inkscape.org/namespaces/inkscape"
   id="svg982"
   width="640px"
   version="1.1"
   height="640px"
   sodipodi:docname="chicago95_tmp_file.svg"
   inkscape:version="0.92.5 (2060ec1f9f, 2020-04-08)">
  <sodipodi:namedview
     pagecolor="#ffffff"
     bordercolor="#666666"
     borderopacity="1"
     objecttolerance="10"
     gridtolerance="10"
     guidetolerance="10"
     inkscape:pageopacity="0"
     inkscape:pageshadow="2"
     inkscape:window-width="640"
     inkscape:window-height="480"
     id="namedview494"
     showgrid="false"
     inkscape:zoom="0.36875"
     inkscape:cx="320"
     inkscape:cy="320"
     inkscape:window-x="0"
     inkscape:window-y="0"
     inkscape:window-maximized="0"
     inkscape:current-layer="svg982" />
  <metadata
     id="metadata986">
    <rdf:RDF>
      <cc:Work
         rdf:about="">
        <dc:format>image/svg+xml</dc:format>
        <dc:type
           rdf:resource="http://purl.org/dc/dcmitype/StillImage" />
      </cc:Work>
    </rdf:RDF>
  </metadata>
  <defs
     id="defs2" />
  <path
     style="fill:#ff0000"
     d="M 300 300 L 300 321 L 321 321 L 321 300 L 300 300 z "
     id="rect408" />
  <path
     style="fill:#800000"
     d="M 320 300 L 320 320 L 300 320 L 300 341 L 320 341 L 321 341 L 341 341 L 341 321 L 341 320 L 341 300 L 320 300 z "
     id="rect448" />
  <path
     style="fill:#808080"
     d="M 520 140 L 520 160 L 520 161 L 520 180 L 500 180 L 500 200 L 480 200 L 480 220 L 461 220 L 460 220 L 440 220 L 440 240 L 420 240 L 420 260 L 400 260 L 400 280 L 380 280 L 380 300 L 380 301 L 380 320 L 380 321 L 380 340 L 380 341 L 380 360 L 380 361 L 380 380 L 380 381 L 380 400 L 380 401 L 380 420 L 380 421 L 380 440 L 380 441 L 380 460 L 380 461 L 380 480 L 380 481 L 380 500 L 380 501 L 380 521 L 401 521 L 401 501 L 421 501 L 421 481 L 441 481 L 441 461 L 461 461 L 461 441 L 481 441 L 481 421 L 501 421 L 501 401 L 521 401 L 521 381 L 541 381 L 541 361 L 541 360 L 541 341 L 541 340 L 541 321 L 541 320 L 541 301 L 541 300 L 541 281 L 541 280 L 541 261 L 541 260 L 541 241 L 541 240 L 541 221 L 541 220 L 541 201 L 541 200 L 541 181 L 541 180 L 541 161 L 541 160 L 541 140 L 520 140 z M 501 221 L 520 221 L 520 240 L 520 241 L 520 260 L 520 261 L 520 280 L 520 281 L 520 300 L 520 301 L 520 320 L 520 321 L 520 340 L 500 340 L 500 360 L 480 360 L 480 380 L 460 380 L 460 400 L 440 400 L 440 420 L 420 420 L 420 440 L 401 440 L 401 421 L 401 420 L 401 401 L 401 400 L 401 381 L 401 380 L 401 361 L 401 360 L 401 341 L 401 340 L 401 321 L 421 321 L 421 301 L 441 301 L 441 281 L 461 281 L 461 261 L 481 261 L 481 241 L 501 241 L 501 221 z M 300 440 L 300 460 L 280 460 L 280 480 L 260 480 L 260 500 L 260 501 L 260 521 L 280 521 L 280 541 L 301 541 L 301 521 L 321 521 L 321 501 L 341 501 L 341 480 L 321 480 L 321 461 L 321 460 L 321 440 L 300 440 z M 100 460 L 100 480 L 100 481 L 100 500 L 100 501 L 100 520 L 100 521 L 100 540 L 100 541 L 100 561 L 120 561 L 120 581 L 141 581 L 141 560 L 121 560 L 121 541 L 121 540 L 121 521 L 121 520 L 121 501 L 121 500 L 121 481 L 140 481 L 141 481 L 160 481 L 161 481 L 180 481 L 181 481 L 200 481 L 200 501 L 220 501 L 220 520 L 220 521 L 220 541 L 241 541 L 241 521 L 241 520 L 241 500 L 221 500 L 221 480 L 201 480 L 201 460 L 181 460 L 180 460 L 161 460 L 160 460 L 141 460 L 140 460 L 121 460 L 120 460 L 100 460 z M 301 481 L 320 481 L 320 500 L 301 500 L 301 481 z M 281 501 L 300 501 L 300 520 L 281 520 L 281 501 z "
     id="rect926" />
  <path
     style="fill:#ffffff"
     d="M 500 60 L 500 80 L 480 80 L 480 100 L 480 101 L 480 120 L 461 120 L 461 100 L 441 100 L 441 80 L 421 80 L 420 80 L 401 80 L 400 80 L 381 80 L 380 80 L 360 80 L 360 100 L 340 100 L 340 120 L 320 120 L 320 140 L 300 140 L 300 160 L 280 160 L 280 180 L 260 180 L 260 200 L 240 200 L 240 220 L 220 220 L 220 241 L 241 241 L 241 221 L 261 221 L 261 201 L 281 201 L 281 181 L 301 181 L 301 161 L 321 161 L 321 141 L 341 141 L 341 121 L 361 121 L 361 101 L 380 101 L 381 101 L 400 101 L 401 101 L 420 101 L 421 101 L 440 101 L 440 121 L 460 121 L 460 140 L 460 141 L 460 160 L 440 160 L 440 181 L 461 181 L 461 161 L 481 161 L 481 141 L 481 140 L 481 121 L 501 121 L 501 101 L 501 100 L 501 81 L 521 81 L 521 60 L 500 60 z M 200 260 L 200 280 L 200 281 L 200 300 L 200 301 L 200 320 L 200 321 L 200 341 L 221 341 L 221 321 L 221 320 L 221 301 L 221 300 L 221 281 L 240 281 L 241 281 L 260 281 L 261 281 L 280 281 L 280 301 L 300 301 L 301 301 L 320 301 L 321 301 L 340 301 L 341 301 L 361 301 L 361 280 L 341 280 L 340 280 L 321 280 L 320 280 L 301 280 L 300 280 L 281 280 L 281 260 L 261 260 L 260 260 L 241 260 L 240 260 L 221 260 L 220 260 L 200 260 z M 200 360 L 200 380 L 180 380 L 180 401 L 200 401 L 200 421 L 221 421 L 221 401 L 241 401 L 241 381 L 260 381 L 261 381 L 281 381 L 281 360 L 261 360 L 260 360 L 241 360 L 240 360 L 221 360 L 220 360 L 200 360 z M 160 480 L 160 500 L 140 500 L 140 520 L 140 521 L 140 540 L 140 541 L 140 561 L 160 561 L 160 581 L 180 581 L 181 581 L 201 581 L 201 561 L 221 561 L 221 541 L 221 540 L 221 521 L 221 520 L 221 500 L 201 500 L 201 480 L 181 480 L 180 480 L 160 480 z "
     id="rect932" />
  <path
     style="fill:#c0c0c0"
     d="M 520 60 L 520 80 L 500 80 L 500 100 L 500 101 L 500 120 L 480 120 L 480 140 L 480 141 L 480 160 L 460 160 L 460 180 L 460 181 L 460 201 L 481 201 L 481 181 L 501 181 L 501 161 L 501 160 L 501 141 L 521 141 L 521 121 L 541 121 L 541 101 L 541 100 L 541 81 L 561 81 L 561 60 L 541 60 L 540 60 L 520 60 z M 360 100 L 360 120 L 340 120 L 340 140 L 320 140 L 320 160 L 300 160 L 300 180 L 280 180 L 280 200 L 260 200 L 260 220 L 240 220 L 240 241 L 260 241 L 261 241 L 280 241 L 280 261 L 300 261 L 301 261 L 320 261 L 321 261 L 340 261 L 341 261 L 360 261 L 360 281 L 381 281 L 381 261 L 401 261 L 401 241 L 421 241 L 421 221 L 441 221 L 441 200 L 421 200 L 421 181 L 421 180 L 421 161 L 441 161 L 441 141 L 441 140 L 441 121 L 441 120 L 441 100 L 421 100 L 420 100 L 401 100 L 400 100 L 381 100 L 380 100 L 360 100 z M 480 260 L 480 280 L 460 280 L 460 300 L 440 300 L 440 320 L 420 320 L 420 340 L 420 341 L 420 360 L 420 361 L 420 380 L 420 381 L 420 401 L 441 401 L 441 381 L 461 381 L 461 361 L 481 361 L 481 341 L 501 341 L 501 320 L 481 320 L 481 301 L 481 300 L 481 281 L 501 281 L 501 260 L 480 260 z M 220 280 L 220 300 L 220 301 L 220 320 L 220 321 L 220 341 L 240 341 L 241 341 L 260 341 L 261 341 L 280 341 L 280 361 L 300 361 L 300 380 L 281 380 L 280 380 L 261 380 L 260 380 L 240 380 L 240 400 L 220 400 L 220 420 L 220 421 L 220 440 L 201 440 L 201 420 L 181 420 L 180 420 L 161 420 L 160 420 L 141 420 L 140 420 L 121 420 L 120 420 L 100 420 L 100 440 L 80 440 L 80 460 L 60 460 L 60 480 L 60 481 L 60 500 L 60 501 L 60 520 L 60 521 L 60 540 L 60 541 L 60 560 L 60 561 L 60 581 L 80 581 L 80 601 L 100 601 L 100 621 L 120 621 L 121 621 L 140 621 L 141 621 L 160 621 L 161 621 L 180 621 L 181 621 L 201 621 L 201 601 L 221 601 L 221 581 L 241 581 L 241 560 L 220 560 L 220 580 L 200 580 L 200 600 L 181 600 L 180 600 L 161 600 L 160 600 L 141 600 L 140 600 L 121 600 L 121 580 L 101 580 L 101 560 L 81 560 L 81 541 L 81 540 L 81 521 L 81 520 L 81 501 L 81 500 L 81 481 L 81 480 L 81 461 L 101 461 L 101 441 L 120 441 L 121 441 L 140 441 L 141 441 L 160 441 L 161 441 L 180 441 L 181 441 L 200 441 L 200 461 L 220 461 L 220 481 L 241 481 L 241 461 L 260 461 L 260 481 L 281 481 L 281 461 L 301 461 L 301 441 L 321 441 L 321 421 L 321 420 L 321 401 L 340 401 L 340 420 L 340 421 L 340 440 L 340 441 L 340 460 L 340 461 L 340 480 L 340 481 L 340 500 L 320 500 L 320 520 L 300 520 L 300 541 L 320 541 L 321 541 L 340 541 L 341 541 L 361 541 L 361 521 L 361 520 L 361 501 L 361 500 L 361 481 L 361 480 L 361 461 L 361 460 L 361 441 L 361 440 L 361 421 L 361 420 L 361 401 L 361 400 L 361 381 L 361 380 L 361 361 L 361 360 L 361 341 L 361 340 L 361 321 L 361 320 L 361 300 L 340 300 L 340 320 L 340 321 L 340 340 L 321 340 L 320 340 L 301 340 L 301 321 L 301 320 L 301 300 L 281 300 L 281 280 L 261 280 L 260 280 L 241 280 L 240 280 L 220 280 z M 441 321 L 460 321 L 460 340 L 460 341 L 460 360 L 441 360 L 441 341 L 441 340 L 441 321 z M 301 381 L 320 381 L 320 400 L 301 400 L 301 381 z M 221 441 L 240 441 L 240 460 L 221 460 L 221 441 z M 120 480 L 120 500 L 120 501 L 120 520 L 120 521 L 120 540 L 120 541 L 120 561 L 140 561 L 140 581 L 161 581 L 161 560 L 141 560 L 141 541 L 141 540 L 141 521 L 141 520 L 141 501 L 161 501 L 161 480 L 141 480 L 140 480 L 120 480 z "
     id="rect968" />
  <path
     style="fill:#000000"
     d="M 500 20 L 500 40 L 480 40 L 480 60 L 480 61 L 480 80 L 461 80 L 460 80 L 441 80 L 441 60 L 421 60 L 420 60 L 401 60 L 400 60 L 381 60 L 380 60 L 360 60 L 360 80 L 340 80 L 340 100 L 320 100 L 320 120 L 300 120 L 300 140 L 280 140 L 280 160 L 260 160 L 260 180 L 240 180 L 240 200 L 220 200 L 220 220 L 200 220 L 200 240 L 180 240 L 180 260 L 180 261 L 180 280 L 180 281 L 180 300 L 180 301 L 180 320 L 180 321 L 180 340 L 180 341 L 180 360 L 180 361 L 180 380 L 160 380 L 160 400 L 141 400 L 140 400 L 121 400 L 120 400 L 100 400 L 100 420 L 80 420 L 80 440 L 60 440 L 60 460 L 40 460 L 40 480 L 40 481 L 40 500 L 40 501 L 40 520 L 40 521 L 40 540 L 40 541 L 40 560 L 40 561 L 40 581 L 60 581 L 60 601 L 80 601 L 80 621 L 100 621 L 100 641 L 120 641 L 121 641 L 140 641 L 141 641 L 160 641 L 161 641 L 180 641 L 181 641 L 201 641 L 201 621 L 221 621 L 221 601 L 241 601 L 241 581 L 261 581 L 261 561 L 261 560 L 261 541 L 280 541 L 280 561 L 300 561 L 301 561 L 320 561 L 321 561 L 340 561 L 341 561 L 360 561 L 361 561 L 380 561 L 381 561 L 401 561 L 401 541 L 421 541 L 421 521 L 441 521 L 441 501 L 461 501 L 461 481 L 481 481 L 481 461 L 501 461 L 501 441 L 521 441 L 521 421 L 541 421 L 541 401 L 561 401 L 561 381 L 561 380 L 561 361 L 561 360 L 561 341 L 561 340 L 561 321 L 561 320 L 561 301 L 561 300 L 561 281 L 561 280 L 561 261 L 561 260 L 561 241 L 561 240 L 561 221 L 561 220 L 561 201 L 561 200 L 561 181 L 561 180 L 561 161 L 561 160 L 561 141 L 561 140 L 561 121 L 581 121 L 581 101 L 601 101 L 601 81 L 601 80 L 601 61 L 601 60 L 601 40 L 581 40 L 581 20 L 561 20 L 560 20 L 541 20 L 540 20 L 521 20 L 520 20 L 500 20 z M 501 61 L 520 61 L 521 61 L 540 61 L 541 61 L 560 61 L 560 80 L 540 80 L 540 100 L 540 101 L 540 120 L 520 120 L 520 140 L 500 140 L 500 160 L 500 161 L 500 180 L 480 180 L 480 200 L 461 200 L 461 180 L 441 180 L 441 161 L 461 161 L 461 141 L 461 140 L 461 121 L 481 121 L 481 101 L 481 100 L 481 81 L 501 81 L 501 61 z M 361 81 L 380 81 L 381 81 L 400 81 L 401 81 L 420 81 L 421 81 L 440 81 L 440 101 L 460 101 L 460 120 L 440 120 L 440 140 L 440 141 L 440 160 L 420 160 L 420 180 L 420 181 L 420 201 L 440 201 L 440 220 L 420 220 L 420 240 L 400 240 L 400 260 L 380 260 L 380 280 L 361 280 L 361 260 L 341 260 L 340 260 L 321 260 L 320 260 L 301 260 L 300 260 L 281 260 L 281 240 L 261 240 L 260 240 L 241 240 L 240 240 L 221 240 L 221 221 L 241 221 L 241 201 L 261 201 L 261 181 L 281 181 L 281 161 L 301 161 L 301 141 L 321 141 L 321 121 L 341 121 L 341 101 L 361 101 L 361 81 z M 521 141 L 540 141 L 540 160 L 540 161 L 540 180 L 540 181 L 540 200 L 540 201 L 540 220 L 540 221 L 540 240 L 540 241 L 540 260 L 540 261 L 540 280 L 540 281 L 540 300 L 540 301 L 540 320 L 540 321 L 540 340 L 540 341 L 540 360 L 540 361 L 540 380 L 520 380 L 520 400 L 500 400 L 500 420 L 480 420 L 480 440 L 460 440 L 460 460 L 440 460 L 440 480 L 420 480 L 420 500 L 400 500 L 400 520 L 381 520 L 381 501 L 381 500 L 381 481 L 381 480 L 381 461 L 381 460 L 381 441 L 381 440 L 381 421 L 381 420 L 381 401 L 381 400 L 381 381 L 381 380 L 381 361 L 381 360 L 381 341 L 381 340 L 381 321 L 381 320 L 381 301 L 381 300 L 381 281 L 401 281 L 401 261 L 421 261 L 421 241 L 441 241 L 441 221 L 460 221 L 461 221 L 481 221 L 481 201 L 501 201 L 501 181 L 521 181 L 521 161 L 521 160 L 521 141 z M 500 220 L 500 240 L 480 240 L 480 260 L 460 260 L 460 280 L 440 280 L 440 300 L 420 300 L 420 320 L 400 320 L 400 340 L 400 341 L 400 360 L 400 361 L 400 380 L 400 381 L 400 400 L 400 401 L 400 420 L 400 421 L 400 441 L 421 441 L 421 421 L 441 421 L 441 401 L 461 401 L 461 381 L 481 381 L 481 361 L 501 361 L 501 341 L 521 341 L 521 321 L 521 320 L 521 301 L 521 300 L 521 281 L 521 280 L 521 261 L 521 260 L 521 241 L 521 240 L 521 220 L 500 220 z M 201 261 L 220 261 L 221 261 L 240 261 L 241 261 L 260 261 L 261 261 L 280 261 L 280 281 L 300 281 L 301 281 L 320 281 L 321 281 L 340 281 L 341 281 L 360 281 L 360 300 L 360 301 L 360 320 L 360 321 L 360 340 L 360 341 L 360 360 L 360 361 L 360 380 L 360 381 L 360 400 L 360 401 L 360 420 L 360 421 L 360 440 L 360 441 L 360 460 L 360 461 L 360 480 L 360 481 L 360 500 L 360 501 L 360 520 L 360 521 L 360 540 L 341 540 L 340 540 L 321 540 L 320 540 L 301 540 L 300 540 L 281 540 L 281 521 L 301 521 L 301 501 L 321 501 L 321 481 L 341 481 L 341 461 L 341 460 L 341 441 L 341 440 L 341 421 L 341 420 L 341 400 L 321 400 L 321 380 L 301 380 L 301 360 L 281 360 L 281 340 L 261 340 L 260 340 L 241 340 L 240 340 L 221 340 L 220 340 L 201 340 L 201 321 L 201 320 L 201 301 L 201 300 L 201 281 L 201 280 L 201 261 z M 481 261 L 500 261 L 500 280 L 481 280 L 481 261 z M 461 281 L 480 281 L 480 300 L 480 301 L 480 321 L 500 321 L 500 340 L 480 340 L 480 360 L 461 360 L 461 341 L 461 340 L 461 320 L 441 320 L 441 301 L 461 301 L 461 281 z M 421 321 L 440 321 L 440 340 L 440 341 L 440 361 L 460 361 L 460 380 L 440 380 L 440 400 L 421 400 L 421 381 L 421 380 L 421 361 L 421 360 L 421 341 L 421 340 L 421 321 z M 201 361 L 220 361 L 221 361 L 240 361 L 241 361 L 260 361 L 261 361 L 280 361 L 280 381 L 300 381 L 300 401 L 320 401 L 320 420 L 320 421 L 320 440 L 320 441 L 320 460 L 320 461 L 320 480 L 300 480 L 300 500 L 280 500 L 280 520 L 261 520 L 261 501 L 261 500 L 261 481 L 261 480 L 261 460 L 241 460 L 241 440 L 221 440 L 221 420 L 201 420 L 201 400 L 181 400 L 181 381 L 201 381 L 201 361 z M 101 421 L 120 421 L 121 421 L 140 421 L 141 421 L 160 421 L 161 421 L 180 421 L 181 421 L 200 421 L 200 440 L 181 440 L 180 440 L 161 440 L 160 440 L 141 440 L 140 440 L 121 440 L 120 440 L 101 440 L 101 421 z M 81 441 L 100 441 L 100 460 L 81 460 L 81 441 z M 201 441 L 220 441 L 220 460 L 201 460 L 201 441 z M 61 461 L 80 461 L 80 480 L 80 481 L 80 500 L 80 501 L 80 520 L 80 521 L 80 540 L 80 541 L 80 561 L 100 561 L 100 581 L 120 581 L 120 601 L 140 601 L 141 601 L 160 601 L 161 601 L 180 601 L 181 601 L 200 601 L 200 620 L 181 620 L 180 620 L 161 620 L 160 620 L 141 620 L 140 620 L 121 620 L 120 620 L 101 620 L 101 600 L 81 600 L 81 580 L 61 580 L 61 561 L 61 560 L 61 541 L 61 540 L 61 521 L 61 520 L 61 501 L 61 500 L 61 481 L 61 480 L 61 461 z M 101 461 L 120 461 L 121 461 L 140 461 L 141 461 L 160 461 L 161 461 L 180 461 L 181 461 L 200 461 L 200 481 L 220 481 L 220 501 L 240 501 L 240 520 L 240 521 L 240 540 L 220 540 L 220 560 L 200 560 L 200 580 L 181 580 L 180 580 L 161 580 L 160 580 L 141 580 L 140 580 L 121 580 L 121 560 L 101 560 L 101 541 L 101 540 L 101 521 L 101 520 L 101 501 L 101 500 L 101 481 L 101 480 L 101 461 z M 221 461 L 240 461 L 240 480 L 221 480 L 221 461 z M 221 561 L 240 561 L 240 580 L 221 580 L 221 561 z M 201 581 L 220 581 L 220 600 L 201 600 L 201 581 z "
     id="rect980" />
</svg>
