<?xml version="1.0" encoding="UTF-8" standalone="no"?>
<svg
   height="48"
   width="48"
   version="1.1"
   id="svg2995"
   sodipodi:docname="drive-harddisk-ieee1394.svg"
   xml:space="preserve"
   inkscape:version="1.2.2 (b0a8486541, 2022-12-01)"
   xmlns:inkscape="http://www.inkscape.org/namespaces/inkscape"
   xmlns:sodipodi="http://sodipodi.sourceforge.net/DTD/sodipodi-0.dtd"
   xmlns="http://www.w3.org/2000/svg"
   xmlns:svg="http://www.w3.org/2000/svg"
   xmlns:rdf="http://www.w3.org/1999/02/22-rdf-syntax-ns#"
   xmlns:cc="http://creativecommons.org/ns#"
   xmlns:dc="http://purl.org/dc/elements/1.1/"><sodipodi:namedview
     id="namedview353"
     pagecolor="#ffffff"
     bordercolor="#000000"
     borderopacity="0.25"
     inkscape:showpageshadow="2"
     inkscape:pageopacity="0.0"
     inkscape:pagecheckerboard="0"
     inkscape:deskcolor="#d1d1d1"
     showgrid="false"
     inkscape:zoom="5.4579805"
     inkscape:cx="34.261757"
     inkscape:cy="41.590475"
     inkscape:window-width="1920"
     inkscape:window-height="1008"
     inkscape:window-x="0"
     inkscape:window-y="0"
     inkscape:window-maximized="1"
     inkscape:current-layer="svg2995" /><metadata
     id="metadata3001"><rdf:RDF><cc:Work
         rdf:about=""><dc:format>image/svg+xml</dc:format><dc:type
           rdf:resource="http://purl.org/dc/dcmitype/StillImage" /></cc:Work></rdf:RDF></metadata><defs
     id="defs2999" /><g
     id="g1052"
     transform="scale(0.1)"
     style="stroke-width:10"><path
       style="fill:#ffffff;stroke-width:10;opacity:0"
       d="M 0,240 V 0 H 240 480 V 240 480 H 240 0 Z m 420,105 v -5 h 5 5 v -5 -5 h 5 5 v -5 -5 h 5 5 v -5 -5 h 5 5 v -5 -5 h 5 5 v -80 -80 h -5 -5 v -5 -5 H 260 60 v 5 5 h -5 -5 v 5 5 h -5 -5 v 5 5 h -5 -5 v 5 5 h -5 -5 v 5 5 h -5 -5 v 80 80 h 5 5 v 5 5 h 200 200 z"
       id="path1066" /><path
       style="fill:#fefefe;stroke-width:10"
       d="m 20,255 v -75 h 195 195 v 5 5 H 220 30 v 70 70 h -5 -5 z m 30,40 v -5 h 165 165 v 5 5 H 215 50 Z m 0,-20 v -5 h 165 165 v 5 5 H 215 50 Z"
       id="path1064" /><path
       style="fill:#bfbfbf;stroke-width:10"
       d="m 30,260 v -70 h 190 190 v 70 70 H 220 30 Z m 350,20 V 260 H 215 50 v 20 20 h 165 165 z m -10,-70 v -10 h -20 -20 v 10 10 h 20 20 z M 30,175 v -5 h 5 5 v -5 -5 h 5 5 v -5 -5 h 5 5 v -5 -5 h 195 195 v 5 5 h -5 -5 v 5 5 h -5 -5 v 5 5 h -5 -5 v 5 5 H 225 30 Z"
       id="path1062" /><path
       style="fill:#7f7f7f;stroke-width:10"
       d="m 10,260 v -80 h 5 5 v -5 -5 h 5 5 v -5 -5 h 5 5 v -5 -5 h 5 5 v -5 -5 h 5 5 v -5 -5 h 200 200 v 85 85 h -5 -5 v 5 5 h -5 -5 v 5 5 h -5 -5 v 5 5 h -5 -5 v 5 5 H 215 10 Z m 400,-5 v -75 h 5 5 v -5 -5 h 5 5 v -5 -5 h 5 5 v -5 -5 h 5 5 v -5 -5 H 255 60 v 5 5 h -5 -5 v 5 5 h -5 -5 v 5 5 h -5 -5 v 5 5 h -5 -5 v 75 75 H 215 410 Z M 50,285 v -5 h 165 165 v 5 5 H 215 50 Z m 0,-20 v -5 h 165 165 v 5 5 H 215 50 Z"
       id="path1060" /><path
       style="fill:#00fe00;stroke-width:10"
       d="m 330,205 v -5 h 20 20 v 5 5 h -20 -20 z"
       id="path1058" /><path
       style="fill:#007f00;stroke-width:10"
       d="m 330,215 v -5 h 20 20 v 5 5 h -20 -20 z"
       id="path1056" /><path
       style="fill:#000000;stroke-width:10"
       d="m 20,345 v -5 h 200 200 v -5 -5 h 5 5 v -5 -5 h 5 5 v -5 -5 h 5 5 v -5 -5 h 5 5 v -80 -80 h 5 5 v 80 80 h -5 -5 v 5 5 h -5 -5 v 5 5 h -5 -5 v 5 5 h -5 -5 v 5 5 h -5 -5 v 5 5 H 220 20 Z"
       id="path1054" /></g></svg>
