<?xml version="1.0" encoding="UTF-8" standalone="no"?>
<svg
   xmlns:dc="http://purl.org/dc/elements/1.1/"
   xmlns:cc="http://creativecommons.org/ns#"
   xmlns:rdf="http://www.w3.org/1999/02/22-rdf-syntax-ns#"
   xmlns:svg="http://www.w3.org/2000/svg"
   xmlns="http://www.w3.org/2000/svg"
   xmlns:sodipodi="http://sodipodi.sourceforge.net/DTD/sodipodi-0.dtd"
   xmlns:inkscape="http://www.inkscape.org/namespaces/inkscape"
   id="svg2312"
   width="144px"
   version="1.1"
   height="144px"
   sodipodi:docname="chicago95_tmp_file.svg"
   inkscape:version="0.92.4 (5da689c313, 2019-01-14)">
  <sodipodi:namedview
     pagecolor="#ffffff"
     bordercolor="#666666"
     borderopacity="1"
     objecttolerance="10"
     gridtolerance="10"
     guidetolerance="10"
     inkscape:pageopacity="0"
     inkscape:pageshadow="2"
     inkscape:window-width="640"
     inkscape:window-height="480"
     id="namedview1159"
     showgrid="false"
     inkscape:zoom="1.6388889"
     inkscape:cx="72"
     inkscape:cy="72"
     inkscape:window-x="0"
     inkscape:window-y="0"
     inkscape:window-maximized="0"
     inkscape:current-layer="svg2312" />
  <metadata
     id="metadata2316">
    <rdf:RDF>
      <cc:Work
         rdf:about="">
        <dc:format>image/svg+xml</dc:format>
        <dc:type
           rdf:resource="http://purl.org/dc/dcmitype/StillImage" />
      </cc:Work>
    </rdf:RDF>
  </metadata>
  <defs
     id="defs2" />
  <path
     style="fill:#ffffff"
     d="M 51 30 L 51 33 L 54 33 L 54 30 L 51 30 z M 54 33 L 54 36 L 57 36 L 57 33 L 54 33 z M 57 33 L 60 33 L 60 30 L 57 30 L 57 33 z M 60 33 L 60 36 L 63 36 L 63 33 L 60 33 z M 63 33 L 66 33 L 66 30 L 63 30 L 63 33 z M 66 33 L 66 36 L 69 36 L 69 33 L 66 33 z M 69 36 L 69 39 L 72 39 L 72 36 L 69 36 z M 72 39 L 72 42 L 75 42 L 75 39 L 72 39 z M 69 39 L 66 39 L 66 36 L 63 36 L 63 39 L 60 39 L 60 42 L 63 42 L 66 42 L 69 42 L 69 39 z M 60 42 L 57 42 L 57 39 L 54 39 L 54 36 L 51 36 L 51 33 L 48 33 L 45 33 L 42 33 L 42 36 L 39 36 L 36 36 L 36 39 L 33 39 L 33 42 L 30 42 L 30 45 L 27 45 L 27 48 L 24 48 L 24 51 L 21 51 L 21 54 L 18 54 L 18 57 L 21 57 L 21 60 L 21 63 L 24 63 L 24 66 L 27 66 L 27 69 L 30 69 L 30 72 L 33 72 L 33 69 L 36 69 L 36 66 L 39 66 L 39 63 L 42 63 L 42 60 L 45 60 L 45 57 L 48 57 L 48 54 L 51 54 L 51 51 L 54 51 L 54 48 L 57 48 L 57 45 L 60 45 L 60 42 z M 57 39 L 60 39 L 60 36 L 57 36 L 57 39 z M 78 39 L 78 42 L 81 42 L 81 39 L 78 39 z M 60 48 L 60 51 L 57 51 L 57 54 L 54 54 L 54 57 L 51 57 L 51 60 L 48 60 L 48 63 L 45 63 L 45 66 L 42 66 L 42 69 L 39 69 L 39 72 L 36 72 L 36 75 L 36 78 L 39 78 L 39 81 L 42 81 L 42 84 L 45 84 L 45 87 L 48 87 L 48 90 L 51 90 L 51 93 L 54 93 L 54 96 L 57 96 L 57 99 L 60 99 L 60 102 L 63 102 L 63 105 L 63 108 L 66 108 L 69 108 L 69 105 L 72 105 L 72 108 L 75 108 L 75 111 L 78 111 L 78 114 L 81 114 L 81 117 L 84 117 L 84 114 L 87 114 L 87 111 L 84 111 L 84 108 L 87 108 L 87 111 L 90 111 L 90 114 L 93 114 L 93 111 L 96 111 L 96 114 L 99 114 L 99 111 L 102 111 L 102 114 L 105 114 L 108 114 L 108 111 L 108 108 L 105 108 L 105 105 L 108 105 L 108 102 L 111 102 L 111 99 L 114 99 L 114 102 L 117 102 L 120 102 L 120 99 L 117 99 L 117 96 L 117 93 L 114 93 L 114 90 L 117 90 L 117 87 L 117 84 L 120 84 L 120 81 L 120 78 L 120 75 L 117 75 L 117 72 L 114 72 L 114 69 L 117 69 L 117 66 L 114 66 L 114 63 L 111 63 L 111 60 L 108 60 L 108 57 L 105 57 L 105 54 L 102 54 L 102 51 L 99 51 L 99 48 L 96 48 L 93 48 L 90 48 L 87 48 L 84 48 L 81 48 L 78 48 L 75 48 L 72 48 L 69 48 L 66 48 L 63 48 L 60 48 z M 117 69 L 117 72 L 120 72 L 120 69 L 117 69 z M 120 84 L 120 87 L 120 90 L 117 90 L 117 93 L 120 93 L 123 93 L 123 90 L 123 87 L 123 84 L 120 84 z M 123 84 L 126 84 L 126 81 L 123 81 L 123 84 z M 120 99 L 123 99 L 123 96 L 120 96 L 120 99 z M 114 102 L 111 102 L 111 105 L 114 105 L 114 102 z M 114 105 L 114 108 L 117 108 L 117 105 L 114 105 z M 114 108 L 111 108 L 111 111 L 114 111 L 114 108 z M 111 108 L 111 105 L 108 105 L 108 108 L 111 108 z M 102 114 L 99 114 L 99 117 L 102 117 L 102 114 z M 96 114 L 93 114 L 93 117 L 96 117 L 96 114 z M 93 117 L 90 117 L 90 120 L 93 120 L 93 117 z M 90 117 L 90 114 L 87 114 L 87 117 L 90 117 z M 78 114 L 75 114 L 75 117 L 78 117 L 78 114 z M 75 114 L 75 111 L 72 111 L 72 114 L 75 114 z M 72 111 L 72 108 L 69 108 L 69 111 L 72 111 z M 69 111 L 66 111 L 66 114 L 69 114 L 69 111 z M 60 102 L 57 102 L 57 105 L 60 105 L 60 102 z M 54 96 L 51 96 L 51 99 L 54 99 L 54 96 z M 114 78 L 117 78 L 117 81 L 114 81 L 114 78 z M 99 105 L 102 105 L 102 108 L 99 108 L 99 105 z "
     id="rect1962" />
  <path
     style="fill:#c0c0c0"
     d="M 54 30 L 54 33 L 57 33 L 57 30 L 54 30 z M 57 33 L 57 36 L 60 36 L 60 33 L 57 33 z M 60 33 L 63 33 L 63 30 L 60 30 L 60 33 z M 63 33 L 63 36 L 66 36 L 66 33 L 63 33 z M 66 33 L 69 33 L 69 36 L 72 36 L 72 39 L 75 39 L 75 42 L 78 42 L 78 39 L 81 39 L 81 42 L 84 42 L 87 42 L 90 42 L 90 39 L 87 39 L 87 36 L 84 36 L 84 33 L 81 33 L 81 30 L 78 30 L 75 30 L 72 30 L 69 30 L 66 30 L 66 33 z M 72 39 L 69 39 L 69 42 L 72 42 L 72 39 z M 69 39 L 69 36 L 66 36 L 66 39 L 69 39 z M 63 36 L 60 36 L 60 39 L 63 39 L 63 36 z M 60 45 L 60 48 L 63 48 L 66 48 L 69 48 L 72 48 L 75 48 L 78 48 L 81 48 L 84 48 L 87 48 L 90 48 L 93 48 L 96 48 L 99 48 L 99 45 L 96 45 L 93 45 L 90 45 L 87 45 L 84 45 L 81 45 L 78 45 L 75 45 L 72 45 L 69 45 L 66 45 L 63 45 L 60 45 z M 99 48 L 99 51 L 102 51 L 102 48 L 99 48 z M 102 51 L 102 54 L 105 54 L 105 51 L 102 51 z M 105 54 L 105 57 L 108 57 L 108 54 L 105 54 z M 108 57 L 108 60 L 111 60 L 111 57 L 108 57 z M 111 60 L 111 63 L 114 63 L 114 60 L 111 60 z M 114 63 L 114 66 L 117 66 L 117 63 L 114 63 z M 117 66 L 117 69 L 120 69 L 120 66 L 117 66 z M 120 69 L 120 72 L 117 72 L 117 75 L 120 75 L 120 78 L 120 81 L 120 84 L 123 84 L 123 81 L 126 81 L 126 78 L 126 75 L 123 75 L 123 72 L 123 69 L 120 69 z M 123 84 L 123 87 L 123 90 L 123 93 L 120 93 L 117 93 L 117 96 L 117 99 L 120 99 L 120 96 L 123 96 L 123 99 L 120 99 L 120 102 L 117 102 L 114 102 L 114 105 L 117 105 L 117 108 L 114 108 L 114 111 L 111 111 L 111 108 L 108 108 L 108 111 L 108 114 L 105 114 L 102 114 L 102 117 L 99 117 L 99 114 L 96 114 L 96 117 L 93 117 L 93 120 L 90 120 L 90 117 L 87 117 L 87 114 L 84 114 L 84 117 L 81 117 L 81 114 L 78 114 L 78 117 L 75 117 L 75 114 L 72 114 L 72 111 L 69 111 L 69 114 L 66 114 L 66 111 L 69 111 L 69 108 L 66 108 L 63 108 L 63 105 L 63 102 L 60 102 L 60 105 L 57 105 L 57 102 L 60 102 L 60 99 L 57 99 L 57 96 L 54 96 L 54 99 L 51 99 L 51 96 L 54 96 L 54 93 L 51 93 L 51 90 L 48 90 L 48 87 L 45 87 L 45 84 L 42 84 L 42 81 L 39 81 L 39 78 L 36 78 L 36 75 L 36 72 L 33 72 L 33 75 L 30 75 L 30 72 L 30 69 L 27 69 L 27 66 L 24 66 L 24 63 L 21 63 L 21 60 L 21 57 L 18 57 L 18 60 L 18 63 L 18 66 L 18 69 L 18 72 L 21 72 L 21 75 L 24 75 L 24 78 L 27 78 L 27 81 L 30 81 L 30 84 L 33 84 L 33 87 L 36 87 L 36 90 L 39 90 L 39 93 L 42 93 L 42 96 L 45 96 L 45 99 L 48 99 L 48 102 L 51 102 L 51 105 L 54 105 L 54 108 L 57 108 L 57 111 L 60 111 L 60 114 L 63 114 L 63 117 L 66 117 L 66 120 L 69 120 L 69 123 L 72 123 L 72 126 L 75 126 L 75 123 L 78 123 L 78 126 L 81 126 L 81 129 L 84 129 L 84 126 L 87 126 L 87 129 L 90 129 L 90 126 L 93 126 L 93 129 L 96 129 L 96 126 L 99 126 L 99 129 L 102 129 L 105 129 L 108 129 L 108 126 L 111 126 L 111 123 L 114 123 L 117 123 L 117 120 L 120 120 L 120 117 L 123 117 L 123 114 L 123 111 L 126 111 L 126 108 L 129 108 L 129 105 L 129 102 L 129 99 L 129 96 L 129 93 L 132 93 L 132 90 L 129 90 L 129 87 L 129 84 L 126 84 L 123 84 z M 99 129 L 96 129 L 96 132 L 99 132 L 99 129 z M 93 129 L 90 129 L 90 132 L 93 132 L 93 129 z M 90 132 L 87 132 L 87 135 L 90 135 L 90 132 z M 87 132 L 87 129 L 84 129 L 84 132 L 87 132 z M 84 132 L 81 132 L 81 135 L 84 135 L 84 132 z M 81 132 L 81 129 L 78 129 L 78 132 L 81 132 z M 78 132 L 75 132 L 75 135 L 78 135 L 78 132 z M 75 132 L 75 129 L 72 129 L 72 132 L 75 132 z M 72 132 L 69 132 L 69 135 L 72 135 L 72 132 z M 69 132 L 69 129 L 66 129 L 66 132 L 69 132 z M 66 132 L 63 132 L 63 135 L 66 135 L 66 132 z M 63 132 L 63 129 L 60 129 L 60 132 L 63 132 z M 60 129 L 60 126 L 57 126 L 57 129 L 60 129 z M 57 126 L 57 123 L 54 123 L 54 126 L 57 126 z M 57 123 L 60 123 L 60 120 L 57 120 L 57 123 z M 57 120 L 57 117 L 54 117 L 54 120 L 57 120 z M 54 117 L 54 114 L 51 114 L 51 117 L 54 117 z M 51 114 L 51 111 L 48 111 L 48 114 L 51 114 z M 48 111 L 48 108 L 45 108 L 45 111 L 48 111 z M 45 108 L 45 105 L 42 105 L 42 108 L 45 108 z M 42 105 L 42 102 L 39 102 L 39 105 L 42 105 z M 42 102 L 45 102 L 45 99 L 42 99 L 42 102 z M 42 99 L 42 96 L 39 96 L 39 99 L 42 99 z M 39 96 L 39 93 L 36 93 L 36 96 L 39 96 z M 36 93 L 36 90 L 33 90 L 33 93 L 36 93 z M 33 90 L 33 87 L 30 87 L 30 90 L 33 90 z M 30 87 L 30 84 L 27 84 L 27 87 L 30 87 z M 27 84 L 27 81 L 24 81 L 24 84 L 27 84 z M 24 81 L 24 78 L 21 78 L 21 81 L 24 81 z M 21 78 L 21 75 L 18 75 L 18 78 L 21 78 z M 45 102 L 45 105 L 48 105 L 48 102 L 45 102 z M 48 105 L 48 108 L 51 108 L 51 105 L 48 105 z M 51 108 L 51 111 L 54 111 L 54 108 L 51 108 z M 54 111 L 54 114 L 57 114 L 57 111 L 54 111 z M 57 114 L 57 117 L 60 117 L 60 114 L 57 114 z M 60 117 L 60 120 L 63 120 L 63 117 L 60 117 z M 63 120 L 63 123 L 66 123 L 66 120 L 63 120 z M 66 123 L 66 126 L 69 126 L 69 123 L 66 123 z M 69 126 L 69 129 L 72 129 L 72 126 L 69 126 z M 66 126 L 63 126 L 63 129 L 66 129 L 66 126 z M 63 126 L 63 123 L 60 123 L 60 126 L 63 126 z M 75 129 L 78 129 L 78 126 L 75 126 L 75 129 z M 36 72 L 39 72 L 39 69 L 36 69 L 36 72 z M 39 69 L 42 69 L 42 66 L 39 66 L 39 69 z M 42 66 L 45 66 L 45 63 L 42 63 L 42 66 z M 45 63 L 48 63 L 48 60 L 45 60 L 45 63 z M 48 60 L 51 60 L 51 57 L 48 57 L 48 60 z M 51 57 L 54 57 L 54 54 L 51 54 L 51 57 z M 54 54 L 57 54 L 57 51 L 54 51 L 54 54 z M 57 51 L 60 51 L 60 48 L 57 48 L 57 51 z M 69 108 L 72 108 L 72 105 L 69 105 L 69 108 z M 72 108 L 72 111 L 75 111 L 75 108 L 72 108 z M 75 111 L 75 114 L 78 114 L 78 111 L 75 111 z M 87 114 L 90 114 L 90 111 L 87 111 L 87 114 z M 87 111 L 87 108 L 84 108 L 84 111 L 87 111 z M 90 114 L 90 117 L 93 117 L 93 114 L 90 114 z M 93 114 L 96 114 L 96 111 L 93 111 L 93 114 z M 99 114 L 102 114 L 102 111 L 99 111 L 99 114 z M 108 108 L 108 105 L 105 105 L 105 108 L 108 108 z M 108 105 L 111 105 L 111 102 L 108 102 L 108 105 z M 111 102 L 114 102 L 114 99 L 111 99 L 111 102 z M 111 105 L 111 108 L 114 108 L 114 105 L 111 105 z M 117 93 L 117 90 L 114 90 L 114 93 L 117 93 z M 117 90 L 120 90 L 120 87 L 120 84 L 117 84 L 117 87 L 117 90 z M 117 72 L 117 69 L 114 69 L 114 72 L 117 72 z M 114 78 L 114 81 L 117 81 L 117 78 L 114 78 z M 99 105 L 99 108 L 102 108 L 102 105 L 99 105 z "
     id="rect2206" />
  <path
     style="fill:#000000"
     d="M 15 3 L 15 6 L 18 6 L 21 6 L 24 6 L 27 6 L 30 6 L 33 6 L 36 6 L 36 3 L 33 3 L 30 3 L 27 3 L 24 3 L 21 3 L 18 3 L 15 3 z M 15 6 L 12 6 L 9 6 L 9 9 L 12 9 L 15 9 L 15 6 z M 9 9 L 6 9 L 6 12 L 6 15 L 6 18 L 6 21 L 9 21 L 9 18 L 9 15 L 9 12 L 9 9 z M 9 21 L 9 24 L 12 24 L 12 21 L 9 21 z M 12 24 L 12 27 L 15 27 L 15 24 L 12 24 z M 15 27 L 15 30 L 18 30 L 18 27 L 15 27 z M 18 30 L 18 33 L 21 33 L 24 33 L 24 30 L 21 30 L 18 30 z M 24 33 L 24 36 L 27 36 L 30 36 L 33 36 L 36 36 L 36 33 L 33 33 L 30 33 L 27 33 L 24 33 z M 84 30 L 84 33 L 87 33 L 87 30 L 84 30 z M 87 33 L 87 36 L 90 36 L 90 33 L 87 33 z M 90 36 L 90 39 L 93 39 L 93 36 L 90 36 z M 126 75 L 126 78 L 129 78 L 129 75 L 126 75 z M 129 81 L 129 84 L 129 87 L 129 90 L 132 90 L 132 87 L 132 84 L 132 81 L 129 81 z M 132 90 L 132 93 L 132 96 L 132 99 L 132 102 L 132 105 L 132 108 L 132 111 L 132 114 L 132 117 L 135 117 L 135 114 L 135 111 L 135 108 L 135 105 L 135 102 L 135 99 L 135 96 L 135 93 L 135 90 L 132 90 z M 132 117 L 129 117 L 129 120 L 129 123 L 132 123 L 132 120 L 132 117 z M 129 123 L 126 123 L 126 126 L 129 126 L 129 123 z M 126 126 L 123 126 L 123 129 L 126 129 L 126 126 z M 123 129 L 120 129 L 120 132 L 123 132 L 123 129 z M 120 132 L 117 132 L 117 135 L 120 135 L 120 132 z M 117 135 L 114 135 L 111 135 L 111 138 L 114 138 L 117 138 L 117 135 z M 111 138 L 108 138 L 105 138 L 105 141 L 108 141 L 111 141 L 111 138 z "
     id="rect2290" />
  <path
     style="fill:#808080"
     d="M 15 0 L 15 3 L 18 3 L 21 3 L 24 3 L 27 3 L 30 3 L 33 3 L 36 3 L 36 0 L 33 0 L 30 0 L 27 0 L 24 0 L 21 0 L 18 0 L 15 0 z M 15 3 L 12 3 L 9 3 L 9 6 L 12 6 L 15 6 L 15 3 z M 9 6 L 6 6 L 6 9 L 9 9 L 9 6 z M 9 9 L 9 12 L 9 15 L 9 18 L 9 21 L 12 21 L 12 24 L 15 24 L 15 27 L 18 27 L 18 30 L 21 30 L 24 30 L 24 33 L 27 33 L 30 33 L 33 33 L 36 33 L 36 36 L 39 36 L 42 36 L 42 33 L 45 33 L 48 33 L 51 33 L 51 30 L 54 30 L 57 30 L 60 30 L 63 30 L 66 30 L 69 30 L 72 30 L 75 30 L 78 30 L 81 30 L 81 27 L 78 27 L 75 27 L 72 27 L 69 27 L 66 27 L 63 27 L 60 27 L 57 27 L 54 27 L 51 27 L 48 27 L 48 30 L 45 30 L 42 30 L 39 30 L 36 30 L 33 30 L 30 30 L 30 27 L 27 27 L 24 27 L 21 27 L 21 24 L 18 24 L 18 21 L 15 21 L 15 18 L 12 18 L 12 15 L 12 12 L 12 9 L 9 9 z M 81 30 L 81 33 L 84 33 L 84 30 L 81 30 z M 84 33 L 84 36 L 87 36 L 87 33 L 84 33 z M 87 36 L 87 39 L 90 39 L 90 36 L 87 36 z M 90 39 L 90 42 L 87 42 L 84 42 L 81 42 L 78 42 L 75 42 L 72 42 L 69 42 L 66 42 L 63 42 L 60 42 L 60 45 L 63 45 L 66 45 L 69 45 L 72 45 L 75 45 L 78 45 L 81 45 L 84 45 L 87 45 L 90 45 L 93 45 L 96 45 L 99 45 L 99 42 L 96 42 L 96 39 L 93 39 L 90 39 z M 99 45 L 99 48 L 102 48 L 102 45 L 99 45 z M 102 48 L 102 51 L 105 51 L 105 48 L 102 48 z M 105 51 L 105 54 L 108 54 L 108 51 L 105 51 z M 108 54 L 108 57 L 111 57 L 111 54 L 108 54 z M 111 57 L 111 60 L 114 60 L 114 57 L 111 57 z M 114 60 L 114 63 L 117 63 L 117 60 L 114 60 z M 117 63 L 117 66 L 120 66 L 120 63 L 117 63 z M 120 66 L 120 69 L 123 69 L 123 66 L 120 66 z M 123 69 L 123 72 L 123 75 L 126 75 L 126 72 L 126 69 L 123 69 z M 60 45 L 57 45 L 57 48 L 60 48 L 60 45 z M 57 48 L 54 48 L 54 51 L 57 51 L 57 48 z M 54 51 L 51 51 L 51 54 L 54 54 L 54 51 z M 51 54 L 48 54 L 48 57 L 51 57 L 51 54 z M 48 57 L 45 57 L 45 60 L 48 60 L 48 57 z M 45 60 L 42 60 L 42 63 L 45 63 L 45 60 z M 42 63 L 39 63 L 39 66 L 42 66 L 42 63 z M 39 66 L 36 66 L 36 69 L 39 69 L 39 66 z M 36 69 L 33 69 L 33 72 L 36 72 L 36 69 z M 33 72 L 30 72 L 30 75 L 33 75 L 33 72 z M 60 42 L 60 39 L 57 39 L 57 42 L 60 42 z M 57 39 L 57 36 L 54 36 L 54 39 L 57 39 z M 54 36 L 54 33 L 51 33 L 51 36 L 54 36 z M 36 36 L 33 36 L 33 39 L 36 39 L 36 36 z M 33 39 L 30 39 L 30 42 L 33 42 L 33 39 z M 30 42 L 27 42 L 27 45 L 30 45 L 30 42 z M 27 45 L 24 45 L 24 48 L 27 48 L 27 45 z M 24 48 L 21 48 L 21 51 L 24 51 L 24 48 z M 21 51 L 18 51 L 18 54 L 21 54 L 21 51 z M 18 54 L 15 54 L 15 57 L 15 60 L 15 63 L 15 66 L 15 69 L 15 72 L 15 75 L 15 78 L 18 78 L 18 75 L 21 75 L 21 72 L 18 72 L 18 69 L 18 66 L 18 63 L 18 60 L 18 57 L 18 54 z M 21 75 L 21 78 L 24 78 L 24 75 L 21 75 z M 24 78 L 24 81 L 27 81 L 27 78 L 24 78 z M 27 81 L 27 84 L 30 84 L 30 81 L 27 81 z M 30 84 L 30 87 L 33 87 L 33 84 L 30 84 z M 33 87 L 33 90 L 36 90 L 36 87 L 33 87 z M 36 90 L 36 93 L 39 93 L 39 90 L 36 90 z M 39 93 L 39 96 L 42 96 L 42 93 L 39 93 z M 42 96 L 42 99 L 45 99 L 45 96 L 42 96 z M 45 99 L 45 102 L 48 102 L 48 99 L 45 99 z M 48 102 L 48 105 L 51 105 L 51 102 L 48 102 z M 51 105 L 51 108 L 54 108 L 54 105 L 51 105 z M 54 108 L 54 111 L 57 111 L 57 108 L 54 108 z M 57 111 L 57 114 L 60 114 L 60 111 L 57 111 z M 60 114 L 60 117 L 63 117 L 63 114 L 60 114 z M 63 117 L 63 120 L 66 120 L 66 117 L 63 117 z M 66 120 L 66 123 L 69 123 L 69 120 L 66 120 z M 69 123 L 69 126 L 72 126 L 72 123 L 69 123 z M 72 126 L 72 129 L 75 129 L 75 126 L 72 126 z M 75 126 L 78 126 L 78 123 L 75 123 L 75 126 z M 78 126 L 78 129 L 81 129 L 81 126 L 78 126 z M 81 129 L 81 132 L 84 132 L 84 129 L 81 129 z M 84 129 L 87 129 L 87 126 L 84 126 L 84 129 z M 87 129 L 87 132 L 90 132 L 90 129 L 87 129 z M 90 129 L 93 129 L 93 126 L 90 126 L 90 129 z M 93 129 L 93 132 L 90 132 L 90 135 L 87 135 L 87 132 L 84 132 L 84 135 L 81 135 L 81 132 L 78 132 L 78 135 L 75 135 L 75 132 L 72 132 L 72 135 L 69 135 L 69 132 L 66 132 L 66 135 L 63 135 L 63 138 L 66 138 L 69 138 L 69 141 L 72 141 L 75 141 L 75 144 L 78 144 L 81 144 L 84 144 L 87 144 L 90 144 L 93 144 L 96 144 L 99 144 L 102 144 L 105 144 L 105 141 L 105 138 L 108 138 L 111 138 L 111 135 L 114 135 L 117 135 L 117 132 L 120 132 L 120 129 L 123 129 L 123 126 L 126 126 L 126 123 L 129 123 L 129 120 L 129 117 L 132 117 L 132 114 L 132 111 L 132 108 L 132 105 L 132 102 L 132 99 L 132 96 L 132 93 L 129 93 L 129 96 L 129 99 L 129 102 L 129 105 L 129 108 L 126 108 L 126 111 L 123 111 L 123 114 L 123 117 L 120 117 L 120 120 L 117 120 L 117 123 L 114 123 L 111 123 L 111 126 L 108 126 L 108 129 L 105 129 L 102 129 L 99 129 L 99 132 L 96 132 L 96 129 L 93 129 z M 96 129 L 99 129 L 99 126 L 96 126 L 96 129 z M 63 135 L 63 132 L 60 132 L 60 135 L 63 135 z M 60 132 L 60 129 L 57 129 L 57 132 L 60 132 z M 57 129 L 57 126 L 54 126 L 54 129 L 57 129 z M 54 126 L 54 123 L 57 123 L 57 120 L 54 120 L 54 117 L 51 117 L 51 114 L 48 114 L 48 111 L 45 111 L 45 114 L 45 117 L 48 117 L 48 120 L 51 120 L 51 123 L 51 126 L 54 126 z M 45 111 L 45 108 L 42 108 L 42 111 L 45 111 z M 42 108 L 42 105 L 39 105 L 39 108 L 42 108 z M 39 105 L 39 102 L 42 102 L 42 99 L 39 99 L 39 96 L 36 96 L 36 93 L 33 93 L 33 90 L 30 90 L 30 93 L 30 96 L 33 96 L 33 99 L 36 99 L 36 102 L 36 105 L 39 105 z M 30 90 L 30 87 L 27 87 L 27 90 L 30 90 z M 27 87 L 27 84 L 24 84 L 24 87 L 27 87 z M 24 84 L 24 81 L 21 81 L 21 84 L 24 84 z M 21 81 L 21 78 L 18 78 L 18 81 L 21 81 z M 42 102 L 42 105 L 45 105 L 45 102 L 42 102 z M 45 105 L 45 108 L 48 108 L 48 105 L 45 105 z M 48 108 L 48 111 L 51 111 L 51 108 L 48 108 z M 51 111 L 51 114 L 54 114 L 54 111 L 51 111 z M 54 114 L 54 117 L 57 117 L 57 114 L 54 114 z M 57 117 L 57 120 L 60 120 L 60 117 L 57 117 z M 60 120 L 60 123 L 63 123 L 63 120 L 60 120 z M 63 123 L 63 126 L 66 126 L 66 123 L 63 123 z M 66 126 L 66 129 L 69 129 L 69 126 L 66 126 z M 69 129 L 69 132 L 72 132 L 72 129 L 69 129 z M 66 129 L 63 129 L 63 132 L 66 132 L 66 129 z M 63 129 L 63 126 L 60 126 L 60 129 L 63 129 z M 60 126 L 60 123 L 57 123 L 57 126 L 60 126 z M 75 132 L 78 132 L 78 129 L 75 129 L 75 132 z M 126 78 L 126 81 L 126 84 L 129 84 L 129 81 L 129 78 L 126 78 z "
     id="rect2310" />
</svg>
