<?xml version="1.0" encoding="UTF-8" standalone="no"?>
<svg
   id="svg2"
   height="48"
   width="48"
   version="1.1"
   sodipodi:docname="yast_mouse.svg"
   xml:space="preserve"
   inkscape:version="1.2.2 (b0a8486541, 2022-12-01)"
   xmlns:inkscape="http://www.inkscape.org/namespaces/inkscape"
   xmlns:sodipodi="http://sodipodi.sourceforge.net/DTD/sodipodi-0.dtd"
   xmlns="http://www.w3.org/2000/svg"
   xmlns:svg="http://www.w3.org/2000/svg"
   xmlns:rdf="http://www.w3.org/1999/02/22-rdf-syntax-ns#"
   xmlns:cc="http://creativecommons.org/ns#"
   xmlns:dc="http://purl.org/dc/elements/1.1/"><sodipodi:namedview
     id="namedview6"
     pagecolor="#ffffff"
     bordercolor="#000000"
     borderopacity="0.25"
     inkscape:showpageshadow="2"
     inkscape:pageopacity="0.0"
     inkscape:pagecheckerboard="0"
     inkscape:deskcolor="#d1d1d1"
     showgrid="false"
     inkscape:zoom="7.71875"
     inkscape:cx="6.7368421"
     inkscape:cy="16.582996"
     inkscape:window-width="1920"
     inkscape:window-height="1008"
     inkscape:window-x="0"
     inkscape:window-y="0"
     inkscape:window-maximized="1"
     inkscape:current-layer="svg2" /><metadata
     id="metadata8"><rdf:RDF><cc:Work
         rdf:about=""><dc:format>image/svg+xml</dc:format><dc:type
           rdf:resource="http://purl.org/dc/dcmitype/StillImage" /></cc:Work></rdf:RDF></metadata><defs
     id="defs6" /><g
     id="g301"
     transform="translate(-32.647774,15.417004)"><path
       style="fill:#ffffff;stroke-width:1;opacity:0"
       d="m 32.647774,8.582996 v -24 h 2.5 2.5 v 0.5 0.5 h -1 -1 v 0.5 0.5 h -0.5 -0.5 v 2.5 2.5 h 0.5 0.5 v 0.5 0.5 h 0.5 0.5 v 0.5 0.5 h 0.5 0.5 v 0.5 0.5 h 0.5 0.5 v 0.5 0.5 h 1 1 v 0.5 0.5 h 1.5 1.5 v 0.5 0.5 h -0.5 -0.5 v 0.5 0.5 h -0.5 -0.5 v 0.5 0.5 h -0.5 -0.5 v 0.5 0.5 h -0.5 -0.5 v 0.5 0.5 h -0.5 -0.5 v 0.5 0.5 h -0.5 -0.5 v 4 4 h 0.5 0.5 v 0.5 0.5 h 0.5 0.5 v 0.5 0.5 h 0.5 0.5 v 0.5 0.5 h 0.5 0.5 v 0.5 0.5 h 0.5 0.5 v 1 1 h 0.5 0.5 v 0.5 0.5 h 0.5 0.5 v 1 1 h 0.5 0.5 v 0.5 0.5 h 0.5 0.5 v 0.5 0.5 h 0.5 0.5 v 1 1 h 0.5 0.5 v 0.5 0.5 h 0.5 0.5 v 1 1 h 0.5 0.5 v 0.5 0.5 h 0.5 0.5 v 0.5 0.5 h 0.5 0.5 v 0.5 0.5 h 0.5 0.5 v 0.5 0.5 h 1 1 v 0.5 0.5 h 1 1 v 0.5 0.5 h -12.5 -12.5 z m 35,23.5 v -0.5 h 1 1 v -0.5 -0.5 h 1 1 v -0.5 -0.5 h 0.5 0.5 v -0.5 -0.5 h 0.5 0.5 v -0.5 -0.5 h 0.5 0.5 v -0.5 -0.5 h 0.5 0.5 v -0.5 -0.5 h 0.5 0.5 v -1 -1 h 0.5 0.5 v -4.5 -4.5 h -0.5 -0.5 v -1.5 -1.5 h -0.5 -0.5 v -1 -1 h -0.5 -0.5 v -1 -1 h -0.5 -0.5 v -0.5 -0.5 h -0.5 -0.5 v -0.5 -0.5 h -0.5 -0.5 v -0.5 -0.5 h -0.5 -0.5 v -0.5 -0.5 h -0.5 -0.5 v -0.5 -0.5 h -0.5 -0.5 v -0.5 -0.5 h -0.5 -0.5 v -0.5 -0.5 h -0.5 -0.5 v -0.5 -0.5 h -0.5 -0.5 v -0.5 -0.5 h -0.5 -0.5 v -0.5 -0.5 h -0.5 -0.5 v -0.5 -0.5 h -0.5 -0.5 v -0.5 -0.5 h -0.5 -0.5 v -0.5 -0.5 h -1 -1 v -0.5 -0.5 h -5.5 -5.5 v 0.5 0.5 h -3 -3 v -0.5 -0.5 h -1.5 -1.5 v -0.5 -0.5 h -0.5 -0.5 v -0.5 -0.5 h -0.5 -0.5 v -0.5 -0.5 h -0.5 -0.5 v -1.5 -1.5 h 0.5 0.5 v -0.5 -0.5 h 3.5 3.5 v -1 -1 h 18 18 v 24 24 h -6.5 -6.5 z"
       id="path311" /><path
       style="fill:#fefefe;stroke-width:1"
       d="m 62.647774,24.082996 v -0.5 h -0.5 -0.5 v -0.5 -0.5 h -0.5 -0.5 v 0.5 0.5 h -0.5 -0.5 v -0.5 -0.5 h -0.5 -0.5 v 0.5 0.5 h -0.5 -0.5 v -0.5 -0.5 h -0.5 -0.5 v -0.5 -0.5 h -0.5 -0.5 v 0.5 0.5 h -0.5 -0.5 v -0.5 -0.5 h 0.5 0.5 v -0.5 -0.5 h -1 -1 v -1 -1 h -0.5 -0.5 v 0.5 0.5 h -0.5 -0.5 v -0.5 -0.5 h 0.5 0.5 v -0.5 -0.5 h -0.5 -0.5 v -0.5 -0.5 h -0.5 -0.5 v 0.5 0.5 h -0.5 -0.5 v -0.5 -0.5 h 0.5 0.5 v -0.5 -0.5 h -0.5 -0.5 v -0.5 -0.5 h -0.5 -0.5 v -0.5 -0.5 h -0.5 -0.5 v -0.5 -0.5 h -0.5 -0.5 v -0.5 -0.5 h -0.5 -0.5 v -0.5 -0.5 h -0.5 -0.5 v -1 -1 h 0.5 0.5 v -0.5 -0.5 h 0.5 0.5 v -0.5 -0.5 h 0.5 0.5 v -0.5 -0.5 h 0.5 0.5 v -0.5 -0.5 h 0.5 0.5 v -0.5 -0.5 h 0.5 0.5 v -0.5 -0.5 h 0.5 0.5 v -0.5 -0.5 h 0.5 0.5 v -0.5 -0.5 h 6.5 6.5 v 0.5 0.5 h 0.5 0.5 v 0.5 0.5 h 0.5 0.5 v 0.5 0.5 h 0.5 0.5 v 0.5 0.5 h 0.5 0.5 v 0.5 0.5 h 0.5 0.5 v 0.5 0.5 h 0.5 0.5 v 0.5 0.5 h 0.5 0.5 v 0.5 0.5 h -0.5 -0.5 v 0.5 0.5 h 0.5 0.5 v 1.5 1.5 h 0.5 0.5 v -0.5 -0.5 h 0.5 0.5 v 0.5 0.5 h -0.5 -0.5 v 1.5 1.5 h -1 -1 v 1 1 h 0.5 0.5 v -0.5 -0.5 h 0.5 0.5 v 0.5 0.5 h -0.5 -0.5 v 0.5 0.5 h -1 -1 v 0.5 0.5 h 0.5 0.5 v 0.5 0.5 h -0.5 -0.5 v 0.5 0.5 h -0.5 -0.5 v -0.5 -0.5 h -0.5 -0.5 v 1 1 h -1 -1 v 0.5 0.5 h -0.5 -0.5 v -0.5 -0.5 h -0.5 -0.5 v 0.5 0.5 h -0.5 -0.5 v 0.5 0.5 h -0.5 -0.5 z m 1,-1 v -0.5 h 0.5 0.5 v -0.5 -0.5 h -0.5 -0.5 v 0.5 0.5 h -0.5 -0.5 v -0.5 -0.5 h -0.5 -0.5 v -0.5 -0.5 h -0.5 -0.5 v 0.5 0.5 h 0.5 0.5 v 0.5 0.5 h 0.5 0.5 v 0.5 0.5 h 0.5 0.5 z m -5,-1 v -0.5 h -0.5 -0.5 v -0.5 -0.5 h -0.5 -0.5 v -0.5 -0.5 h -0.5 -0.5 v 0.5 0.5 h 0.5 0.5 v 0.5 0.5 h 0.5 0.5 v 0.5 0.5 h 0.5 0.5 z m 8,0 v -0.5 h -0.5 -0.5 v 0.5 0.5 h 0.5 0.5 z m 0,-2 v -0.5 h -0.5 -0.5 v 0.5 0.5 h 0.5 0.5 z m 2,0 v -0.5 h 0.5 0.5 v 0.5 0.5 h 0.5 0.5 v -0.5 -0.5 h -0.5 -0.5 v -0.5 -0.5 h 0.5 0.5 v -0.5 -0.5 h -0.5 -0.5 v 0.5 0.5 h -0.5 -0.5 v 0.5 0.5 h -0.5 -0.5 v 0.5 0.5 h 0.5 0.5 z m 3,-5 v -0.5 h 0.5 0.5 v -1 -1 h -0.5 -0.5 v 1 1 h -0.5 -0.5 v 0.5 0.5 h 0.5 0.5 z m 0,-4 v -0.5 h -0.5 -0.5 v 0.5 0.5 h 0.5 0.5 z m 0,-3 v -0.5 h -0.5 -0.5 v 0.5 0.5 h 0.5 0.5 z m -29,0 v -0.5 h -0.5 -0.5 v -0.5 -0.5 h -0.5 -0.5 v -0.5 -0.5 h -0.5 -0.5 v -1 -1 h -0.5 -0.5 v -0.5 -0.5 h 0.5 0.5 v -0.5 -0.5 h 0.5 0.5 v -0.5 -0.5 h 0.5 0.5 v -0.5 -0.5 h 0.5 0.5 v -0.5 -0.5 h 0.5 0.5 v -0.5 -0.5 h 0.5 0.5 v -0.5 -0.5 h 1 1 v -0.5 -0.5 h 1.5 1.5 v -0.5 -0.5 h 0.5 0.5 v 0.5 0.5 h 0.5 0.5 v -0.5 -0.5 h 0.5 0.5 v 0.5 0.5 h 0.5 0.5 v -0.5 -0.5 h 0.5 0.5 v 0.5 0.5 h 0.5 0.5 v 0.5 0.5 h 0.5 0.5 v 0.5 0.5 h 0.5 0.5 v 0.5 0.5 h -0.5 -0.5 v -0.5 -0.5 h -0.5 -0.5 v 0.5 0.5 h -1.5 -1.5 v 0.5 0.5 h -0.5 -0.5 v 0.5 0.5 h -0.5 -0.5 v 0.5 0.5 h -0.5 -0.5 v 0.5 0.5 h -0.5 -0.5 v 0.5 0.5 h -0.5 -0.5 v 0.5 0.5 h -0.5 -0.5 v 0.5 0.5 h -0.5 -0.5 v 0.5 0.5 h -0.5 -0.5 v 0.5 0.5 h -0.5 -0.5 v 0.5 0.5 h -0.5 -0.5 z m 10,-10 v -0.5 h 0.5 0.5 v -0.5 -0.5 h 0.5 0.5 v 0.5 0.5 h 0.5 0.5 v -0.5 -0.5 h -0.5 -0.5 v -0.5 -0.5 h -0.5 -0.5 v 0.5 0.5 h -0.5 -0.5 v -0.5 -0.5 h -0.5 -0.5 v 0.5 0.5 h -0.5 -0.5 v -0.5 -0.5 h -0.5 -0.5 v 0.5 0.5 h 0.5 0.5 v 0.5 0.5 h 0.5 0.5 v 0.5 0.5 h 0.5 0.5 z m -1,-1 v -0.5 h 0.5 0.5 v 0.5 0.5 h -0.5 -0.5 z m 7,1 v -0.5 h 0.5 0.5 v 0.5 0.5 h -0.5 -0.5 z"
       id="path309" /><path
       style="fill:#bfbfbf;stroke-width:1"
       d="m 53.647774,29.082996 v -0.5 h -0.5 -0.5 v -0.5 -0.5 h -0.5 -0.5 v -0.5 -0.5 h -0.5 -0.5 v -0.5 -0.5 h 0.5 0.5 v -0.5 -0.5 h -0.5 -0.5 v -0.5 -0.5 h -0.5 -0.5 v -0.5 -0.5 h -0.5 -0.5 v -0.5 -0.5 h -0.5 -0.5 v -0.5 -0.5 h -0.5 -0.5 v -0.5 -0.5 h -0.5 -0.5 v -0.5 -0.5 h 0.5 0.5 v -0.5 -0.5 h -0.5 -0.5 v -0.5 -0.5 h -0.5 -0.5 v -0.5 -0.5 h -0.5 -0.5 v -0.5 -0.5 h -0.5 -0.5 v -0.5 -0.5 h -0.5 -0.5 v -0.5 -0.5 h -0.5 -0.5 v -0.5 -0.5 h -0.5 -0.5 v -0.5 -0.5 h -0.5 -0.5 v -0.5 -0.5 h 0.5 0.5 v -0.5 -0.5 h -0.5 -0.5 v -2.5 -2.5 h 0.5 0.5 v 1 1 h 0.5 0.5 v 0.5 0.5 h 0.5 0.5 v 0.5 0.5 h 0.5 0.5 v 1 1 h 0.5 0.5 v -0.5 -0.5 h 0.5 0.5 v -0.5 -0.5 h 0.5 0.5 v -0.5 -0.5 h 0.5 0.5 v -0.5 -0.5 h 0.5 0.5 v -0.5 -0.5 h 0.5 0.5 v -0.5 -0.5 h 0.5 0.5 v -0.5 -0.5 h 0.5 0.5 v -0.5 -0.5 h 0.5 0.5 v -0.5 -0.5 h 0.5 0.5 v -0.5 -0.5 h 6.5 6.5 v 0.5 0.5 h 0.5 0.5 v 0.5 0.5 h 0.5 0.5 v 0.5 0.5 h 0.5 0.5 v 0.5 0.5 h 0.5 0.5 v 0.5 0.5 h 0.5 0.5 v 0.5 0.5 h 0.5 0.5 v 0.5 0.5 h 0.5 0.5 v 0.5 0.5 h 0.5 0.5 v 1 1 h 0.5 0.5 v 1 1 h -0.5 -0.5 v 0.5 0.5 h 1 1 v 1 1 h 0.5 0.5 v 0.5 0.5 h -0.5 -0.5 v 2.5 2.5 h -0.5 -0.5 v 0.5 0.5 h -0.5 -0.5 v 1 1 h -0.5 -0.5 v 0.5 0.5 h -0.5 -0.5 v 0.5 0.5 h -1 -1 v 0.5 0.5 h -0.5 -0.5 v 0.5 0.5 h -1.5 -1.5 v 0.5 0.5 h -0.5 -0.5 v -0.5 -0.5 h -0.5 -0.5 v 0.5 0.5 h -0.5 -0.5 v 0.5 0.5 h -0.5 -0.5 v -0.5 -0.5 h -0.5 -0.5 v 0.5 0.5 h -0.5 -0.5 v -0.5 -0.5 h -0.5 -0.5 v 0.5 0.5 h -0.5 -0.5 v -0.5 -0.5 h -0.5 -0.5 v 0.5 0.5 h -0.5 -0.5 v -0.5 -0.5 h -0.5 -0.5 v 0.5 0.5 h -0.5 -0.5 z m 1,-1 v -0.5 h 0.5 0.5 v 0.5 0.5 h 0.5 0.5 v -0.5 -0.5 h 0.5 0.5 v 0.5 0.5 h 0.5 0.5 v -0.5 -0.5 h 0.5 0.5 v 0.5 0.5 h 0.5 0.5 v -0.5 -0.5 h 0.5 0.5 v 0.5 0.5 h 0.5 0.5 v -0.5 -0.5 h 0.5 0.5 v -0.5 -0.5 h -0.5 -0.5 v 0.5 0.5 h -0.5 -0.5 v -0.5 -0.5 h -0.5 -0.5 v 0.5 0.5 h -0.5 -0.5 v -0.5 -0.5 h -0.5 -0.5 v -0.5 -0.5 h -0.5 -0.5 v 0.5 0.5 h -0.5 -0.5 v -0.5 -0.5 h -0.5 -0.5 v -0.5 -0.5 h -0.5 -0.5 v -0.5 -0.5 h -0.5 -0.5 v -0.5 -0.5 h -0.5 -0.5 v -0.5 -0.5 h -0.5 -0.5 v -0.5 -0.5 h -0.5 -0.5 v -0.5 -0.5 h -0.5 -0.5 v -0.5 -0.5 h -0.5 -0.5 v -0.5 -0.5 h -0.5 -0.5 v -0.5 -0.5 h -0.5 -0.5 v -0.5 -0.5 h -0.5 -0.5 v -0.5 -0.5 h -0.5 -0.5 v -0.5 -0.5 h -0.5 -0.5 v -0.5 -0.5 h -0.5 -0.5 v -0.5 -0.5 h -0.5 -0.5 v -0.5 -0.5 h -0.5 -0.5 v -0.5 -0.5 h -0.5 -0.5 v 0.5 0.5 h 0.5 0.5 v 0.5 0.5 h 0.5 0.5 v 0.5 0.5 h 0.5 0.5 v 0.5 0.5 h 0.5 0.5 v 0.5 0.5 h 0.5 0.5 v 0.5 0.5 h 0.5 0.5 v 0.5 0.5 h 0.5 0.5 v 0.5 0.5 h 0.5 0.5 v 0.5 0.5 h -0.5 -0.5 v 0.5 0.5 h 0.5 0.5 v 0.5 0.5 h 0.5 0.5 v 0.5 0.5 h 0.5 0.5 v 0.5 0.5 h 0.5 0.5 v 0.5 0.5 h 0.5 0.5 v 0.5 0.5 h 0.5 0.5 v 0.5 0.5 h -0.5 -0.5 v 0.5 0.5 h 0.5 0.5 v 0.5 0.5 h 0.5 0.5 v 0.5 0.5 h 0.5 0.5 z m -1,-1 v -0.5 h -0.5 -0.5 v -0.5 -0.5 h 0.5 0.5 v -0.5 -0.5 h -0.5 -0.5 v -0.5 -0.5 h -0.5 -0.5 v -0.5 -0.5 h -0.5 -0.5 v -0.5 -0.5 h -0.5 -0.5 v -0.5 -0.5 h -0.5 -0.5 v -0.5 -0.5 h -0.5 -0.5 v -0.5 -0.5 h 0.5 0.5 v 0.5 0.5 h 0.5 0.5 v 0.5 0.5 h 0.5 0.5 v 0.5 0.5 h 0.5 0.5 v 0.5 0.5 h 0.5 0.5 v 0.5 0.5 h 0.5 0.5 v 0.5 0.5 h 0.5 0.5 v 0.5 0.5 h 0.5 0.5 v 0.5 0.5 h 0.5 0.5 v 0.5 0.5 h -0.5 -0.5 v -0.5 -0.5 h -0.5 -0.5 v 0.5 0.5 h -0.5 -0.5 z m 1,-1 v -0.5 h -0.5 -0.5 v 0.5 0.5 h 0.5 0.5 z m 3,1 v -0.5 h 0.5 0.5 v 0.5 0.5 h -0.5 -0.5 z m 8,0 v -0.5 h -0.5 -0.5 v 0.5 0.5 h 0.5 0.5 z m -2,-3 v -0.5 h 0.5 0.5 v -0.5 -0.5 h 0.5 0.5 v 0.5 0.5 h 0.5 0.5 v -0.5 -0.5 h 1 1 v -1 -1 h 0.5 0.5 v 0.5 0.5 h 0.5 0.5 v -0.5 -0.5 h 0.5 0.5 v -0.5 -0.5 h -0.5 -0.5 v -0.5 -0.5 h 1 1 v -0.5 -0.5 h 0.5 0.5 v -0.5 -0.5 h -0.5 -0.5 v 0.5 0.5 h -0.5 -0.5 v -1 -1 h 1 1 v -1.5 -1.5 h -0.5 -0.5 v -1.5 -1.5 h -0.5 -0.5 v -0.5 -0.5 h 0.5 0.5 v -0.5 -0.5 h -0.5 -0.5 v -0.5 -0.5 h -0.5 -0.5 v -0.5 -0.5 h -0.5 -0.5 v -0.5 -0.5 h -0.5 -0.5 v -0.5 -0.5 h -0.5 -0.5 v -0.5 -0.5 h -0.5 -0.5 v -0.5 -0.5 h -0.5 -0.5 v -0.5 -0.5 h -6.5 -6.5 v 0.5 0.5 h -0.5 -0.5 v 0.5 0.5 h -0.5 -0.5 v 0.5 0.5 h -0.5 -0.5 v 0.5 0.5 h -0.5 -0.5 v 0.5 0.5 h -0.5 -0.5 v 0.5 0.5 h -0.5 -0.5 v 0.5 0.5 h -0.5 -0.5 v 0.5 0.5 h -0.5 -0.5 v 1 1 h 0.5 0.5 v 0.5 0.5 h 0.5 0.5 v 0.5 0.5 h 0.5 0.5 v 0.5 0.5 h 0.5 0.5 v 0.5 0.5 h 0.5 0.5 v 0.5 0.5 h 0.5 0.5 v 0.5 0.5 h -0.5 -0.5 v 0.5 0.5 h 0.5 0.5 v -0.5 -0.5 h 0.5 0.5 v 0.5 0.5 h 0.5 0.5 v 0.5 0.5 h -0.5 -0.5 v 0.5 0.5 h 0.5 0.5 v -0.5 -0.5 h 0.5 0.5 v 1 1 h 1 1 v 0.5 0.5 h -0.5 -0.5 v 0.5 0.5 h 0.5 0.5 v -0.5 -0.5 h 0.5 0.5 v 0.5 0.5 h 0.5 0.5 v 0.5 0.5 h 0.5 0.5 v -0.5 -0.5 h 0.5 0.5 v 0.5 0.5 h 0.5 0.5 v -0.5 -0.5 h 0.5 0.5 v 0.5 0.5 h 0.5 0.5 v 0.5 0.5 h 0.5 0.5 z m -1,-1 v -0.5 h -0.5 -0.5 v -0.5 -0.5 h -0.5 -0.5 v -0.5 -0.5 h 0.5 0.5 v 0.5 0.5 h 0.5 0.5 v 0.5 0.5 h 0.5 0.5 v -0.5 -0.5 h 0.5 0.5 v 0.5 0.5 h -0.5 -0.5 v 0.5 0.5 h -0.5 -0.5 z m -5,-1 v -0.5 h -0.5 -0.5 v -0.5 -0.5 h -0.5 -0.5 v -0.5 -0.5 h 0.5 0.5 v 0.5 0.5 h 0.5 0.5 v 0.5 0.5 h 0.5 0.5 v 0.5 0.5 h -0.5 -0.5 z m 8,0 v -0.5 h 0.5 0.5 v 0.5 0.5 h -0.5 -0.5 z m 0,-2 v -0.5 h 0.5 0.5 v 0.5 0.5 h -0.5 -0.5 z m 2,0 v -0.5 h 0.5 0.5 v -0.5 -0.5 h 0.5 0.5 v -0.5 -0.5 h 0.5 0.5 v 0.5 0.5 h -0.5 -0.5 v 0.5 0.5 h 0.5 0.5 v 0.5 0.5 h -0.5 -0.5 v -0.5 -0.5 h -0.5 -0.5 v 0.5 0.5 h -0.5 -0.5 z m 3,-5 v -0.5 h 0.5 0.5 v -1 -1 h 0.5 0.5 v 1 1 h -0.5 -0.5 v 0.5 0.5 h -0.5 -0.5 z m 0,-4 v -0.5 h 0.5 0.5 v 0.5 0.5 h -0.5 -0.5 z m 0,-3 v -0.5 h 0.5 0.5 v 0.5 0.5 h -0.5 -0.5 z m -15,-10 v -0.5 h -0.5 -0.5 v -0.5 -0.5 h -0.5 -0.5 v 0.5 0.5 h -0.5 -0.5 v -0.5 -0.5 h -0.5 -0.5 v -0.5 -0.5 h -0.5 -0.5 v -0.5 -0.5 h 0.5 0.5 v 0.5 0.5 h 0.5 0.5 v -0.5 -0.5 h 0.5 0.5 v 0.5 0.5 h 0.5 0.5 v -0.5 -0.5 h 2.5 2.5 v 0.5 0.5 h 0.5 0.5 v 0.5 0.5 h 0.5 0.5 v 0.5 0.5 h 0.5 0.5 v 0.5 0.5 h -1.5 -1.5 v -0.5 -0.5 h -0.5 -0.5 v 0.5 0.5 h -0.5 -0.5 v -0.5 -0.5 h -0.5 -0.5 v 0.5 0.5 h -0.5 -0.5 z m 1,-1 v -0.5 h -0.5 -0.5 v -0.5 -0.5 h -0.5 -0.5 v 0.5 0.5 h 0.5 0.5 v 0.5 0.5 h 0.5 0.5 z m -3,-1 v -0.5 h -0.5 -0.5 v 0.5 0.5 h 0.5 0.5 z"
       id="path307" /><path
       style="fill:#7f7f7f;stroke-width:1"
       d="m 57.647774,32.082996 v -0.5 h -1 -1 v -0.5 -0.5 h -1 -1 v -0.5 -0.5 h -0.5 -0.5 v -0.5 -0.5 h -0.5 -0.5 v -0.5 -0.5 h -0.5 -0.5 v -0.5 -0.5 h -0.5 -0.5 v -1 -1 h -0.5 -0.5 v -0.5 -0.5 h -0.5 -0.5 v -1 -1 h -0.5 -0.5 v -0.5 -0.5 h -0.5 -0.5 v -0.5 -0.5 h -0.5 -0.5 v -1 -1 h -0.5 -0.5 v -0.5 -0.5 h -0.5 -0.5 v -1 -1 h -0.5 -0.5 v -0.5 -0.5 h -0.5 -0.5 v -0.5 -0.5 h -0.5 -0.5 v -0.5 -0.5 h -0.5 -0.5 v -0.5 -0.5 h -0.5 -0.5 v -4 -4 h 0.5 0.5 v -0.5 -0.5 h 0.5 0.5 v -0.5 -0.5 h 0.5 0.5 v -0.5 -0.5 h 0.5 0.5 v -0.5 -0.5 h 0.5 0.5 v -0.5 -0.5 h 0.5 0.5 v -0.5 -0.5 h 0.5 0.5 v -0.5 -0.5 h -2 -2 v -0.5 -0.5 h -1 -1 v -0.5 -0.5 h -0.5 -0.5 v -0.5 -0.5 h -0.5 -0.5 v -0.5 -0.5 h -0.5 -0.5 v -2 -2 h -0.5 -0.5 v -0.5 -0.5 h 0.5 0.5 v -0.5 -0.5 h 1 1 v -0.5 -0.5 h 3.5 3.5 v 0.5 0.5 h -3.5 -3.5 v 0.5 0.5 h -1 -1 v 0.5 0.5 h 0.5 0.5 v 1.5 1.5 h 0.5 0.5 v 0.5 0.5 h 0.5 0.5 v 0.5 0.5 h 0.5 0.5 v 0.5 0.5 h 1.5 1.5 v 0.5 0.5 h 3 3 v -0.5 -0.5 h 5.5 5.5 v 0.5 0.5 h 0.5 0.5 v 0.5 0.5 h 0.5 0.5 v 0.5 0.5 h 0.5 0.5 v 0.5 0.5 h 1 1 v 0.5 0.5 h 0.5 0.5 v 0.5 0.5 h 0.5 0.5 v 0.5 0.5 h 0.5 0.5 v 0.5 0.5 h 0.5 0.5 v 0.5 0.5 h 0.5 0.5 v 0.5 0.5 h 0.5 0.5 v 0.5 0.5 h 0.5 0.5 v 0.5 0.5 h 0.5 0.5 v 0.5 0.5 h 0.5 0.5 v 0.5 0.5 h 0.5 0.5 v 1 1 h -0.5 -0.5 v -1 -1 h -0.5 -0.5 v -0.5 -0.5 h -0.5 -0.5 v -0.5 -0.5 h -0.5 -0.5 v -0.5 -0.5 h -0.5 -0.5 v -0.5 -0.5 h -0.5 -0.5 v -0.5 -0.5 h -0.5 -0.5 v -0.5 -0.5 h -0.5 -0.5 v -0.5 -0.5 h -0.5 -0.5 v -0.5 -0.5 h -6.5 -6.5 v 0.5 0.5 h -0.5 -0.5 v 0.5 0.5 h -0.5 -0.5 v 0.5 0.5 h -0.5 -0.5 v 0.5 0.5 h -0.5 -0.5 v 0.5 0.5 h -0.5 -0.5 v 0.5 0.5 h -0.5 -0.5 v 0.5 0.5 h -0.5 -0.5 v 0.5 0.5 h -0.5 -0.5 v 0.5 0.5 h -0.5 -0.5 v 0.5 0.5 h -0.5 -0.5 v -0.5 -0.5 h 0.5 0.5 v -0.5 -0.5 h 0.5 0.5 v -0.5 -0.5 h 0.5 0.5 v -0.5 -0.5 h 0.5 0.5 v -0.5 -0.5 h 0.5 0.5 v -0.5 -0.5 h 0.5 0.5 v -0.5 -0.5 h 0.5 0.5 v -0.5 -0.5 h 0.5 0.5 v -0.5 -0.5 h 0.5 0.5 v -0.5 -0.5 h 0.5 0.5 v -0.5 -0.5 h -0.5 -0.5 v -0.5 -0.5 h -0.5 -0.5 v -0.5 -0.5 h -0.5 -0.5 v -0.5 -0.5 h -1.5 -1.5 v 0.5 0.5 h -1 -1 v 0.5 0.5 h -0.5 -0.5 v 0.5 0.5 h -0.5 -0.5 v 0.5 0.5 h -0.5 -0.5 v 0.5 0.5 h -0.5 -0.5 v 0.5 0.5 h -0.5 -0.5 v 0.5 0.5 h -0.5 -0.5 v 3 3 h 0.5 0.5 v 0.5 0.5 h 0.5 0.5 v 0.5 0.5 h 0.5 0.5 v 0.5 0.5 h 0.5 0.5 v 0.5 0.5 h 0.5 0.5 v 0.5 0.5 h 0.5 0.5 v 0.5 0.5 h 0.5 0.5 v 0.5 0.5 h 0.5 0.5 v 0.5 0.5 h 0.5 0.5 v 0.5 0.5 h 0.5 0.5 v 0.5 0.5 h 0.5 0.5 v 0.5 0.5 h 0.5 0.5 v 0.5 0.5 h 0.5 0.5 v 0.5 0.5 h 0.5 0.5 v 0.5 0.5 h 0.5 0.5 v 0.5 0.5 h 0.5 0.5 v 0.5 0.5 h 0.5 0.5 v 0.5 0.5 h 0.5 0.5 v 0.5 0.5 h 0.5 0.5 v -0.5 -0.5 h 0.5 0.5 v 0.5 0.5 h 0.5 0.5 v 0.5 0.5 h 0.5 0.5 v -0.5 -0.5 h 0.5 0.5 v 0.5 0.5 h 0.5 0.5 v -0.5 -0.5 h 0.5 0.5 v 0.5 0.5 h 0.5 0.5 v -0.5 -0.5 h 0.5 0.5 v 0.5 0.5 h 1.5 1.5 v -0.5 -0.5 h 0.5 0.5 v -0.5 -0.5 h 1 1 v -0.5 -0.5 h 0.5 0.5 v -0.5 -0.5 h 0.5 0.5 v -1 -1 h 0.5 0.5 v -0.5 -0.5 h 0.5 0.5 v -2.5 -2.5 h 0.5 0.5 v 4 4 h -0.5 -0.5 v 1 1 h -0.5 -0.5 v 0.5 0.5 h -0.5 -0.5 v 0.5 0.5 h -0.5 -0.5 v 0.5 0.5 h -0.5 -0.5 v 0.5 0.5 h -1 -1 v 0.5 0.5 h -1 -1 v 1 1 h -5 -5 z m -3,-3 v -0.5 h 0.5 0.5 v 0.5 0.5 h 0.5 0.5 v -0.5 -0.5 h 0.5 0.5 v 0.5 0.5 h 0.5 0.5 v -0.5 -0.5 h 0.5 0.5 v 0.5 0.5 h 0.5 0.5 v -0.5 -0.5 h 0.5 0.5 v 0.5 0.5 h 0.5 0.5 v -0.5 -0.5 h 0.5 0.5 v -0.5 -0.5 h -0.5 -0.5 v 0.5 0.5 h -0.5 -0.5 v -0.5 -0.5 h -0.5 -0.5 v 0.5 0.5 h -0.5 -0.5 v -0.5 -0.5 h -0.5 -0.5 v -0.5 -0.5 h -0.5 -0.5 v 0.5 0.5 h -0.5 -0.5 v -0.5 -0.5 h -0.5 -0.5 v -0.5 -0.5 h -0.5 -0.5 v -0.5 -0.5 h -0.5 -0.5 v -0.5 -0.5 h -0.5 -0.5 v -0.5 -0.5 h -0.5 -0.5 v -0.5 -0.5 h -0.5 -0.5 v -0.5 -0.5 h -0.5 -0.5 v -0.5 -0.5 h -0.5 -0.5 v -0.5 -0.5 h -0.5 -0.5 v -0.5 -0.5 h -0.5 -0.5 v -0.5 -0.5 h -0.5 -0.5 v -0.5 -0.5 h -0.5 -0.5 v -0.5 -0.5 h -0.5 -0.5 v -0.5 -0.5 h -0.5 -0.5 v -0.5 -0.5 h -0.5 -0.5 v -0.5 -0.5 h -0.5 -0.5 v -0.5 -0.5 h -0.5 -0.5 v -0.5 -0.5 h -0.5 -0.5 v 0.5 0.5 h 0.5 0.5 v 0.5 0.5 h 0.5 0.5 v 0.5 0.5 h 0.5 0.5 v 0.5 0.5 h 0.5 0.5 v 0.5 0.5 h 0.5 0.5 v 0.5 0.5 h 0.5 0.5 v 0.5 0.5 h 0.5 0.5 v 0.5 0.5 h 0.5 0.5 v 0.5 0.5 h -0.5 -0.5 v 0.5 0.5 h 0.5 0.5 v 0.5 0.5 h 0.5 0.5 v 0.5 0.5 h 0.5 0.5 v 0.5 0.5 h 0.5 0.5 v 0.5 0.5 h 0.5 0.5 v 0.5 0.5 h 0.5 0.5 v 0.5 0.5 h -0.5 -0.5 v 0.5 0.5 h 0.5 0.5 v 0.5 0.5 h 0.5 0.5 v 0.5 0.5 h 0.5 0.5 v 0.5 0.5 h 0.5 0.5 z m -1,-1 v -0.5 h -0.5 -0.5 v -0.5 -0.5 h -0.5 -0.5 v -0.5 -0.5 h 0.5 0.5 v -0.5 -0.5 h -0.5 -0.5 v -0.5 -0.5 h -0.5 -0.5 v -0.5 -0.5 h -0.5 -0.5 v -0.5 -0.5 h -0.5 -0.5 v -0.5 -0.5 h -0.5 -0.5 v -0.5 -0.5 h -0.5 -0.5 v -0.5 -0.5 h 0.5 0.5 v 0.5 0.5 h 0.5 0.5 v 0.5 0.5 h 0.5 0.5 v 0.5 0.5 h 0.5 0.5 v 0.5 0.5 h 0.5 0.5 v 0.5 0.5 h 0.5 0.5 v 0.5 0.5 h 0.5 0.5 v 0.5 0.5 h 0.5 0.5 v 0.5 0.5 h 0.5 0.5 v 0.5 0.5 h 0.5 0.5 v 0.5 0.5 h -0.5 -0.5 v -0.5 -0.5 h -0.5 -0.5 v 0.5 0.5 h -0.5 -0.5 z m 1,-1 v -0.5 h -0.5 -0.5 v -0.5 -0.5 h -0.5 -0.5 v 0.5 0.5 h 0.5 0.5 v 0.5 0.5 h 0.5 0.5 z m 3,1 v -0.5 h 0.5 0.5 v 0.5 0.5 h -0.5 -0.5 z m 8,0 v -0.5 h -0.5 -0.5 v 0.5 0.5 h 0.5 0.5 z m -3,-30 v -0.5 h -0.5 -0.5 v -0.5 -0.5 h -0.5 -0.5 v -0.5 -0.5 h -0.5 -0.5 v -0.5 -0.5 h -5 -5 v 0.5 0.5 h 0.5 0.5 v 0.5 0.5 h 0.5 0.5 v 0.5 0.5 h 0.5 0.5 v 0.5 0.5 h 5 5 z m 12,13.5 v -1 h 0.5 0.5 v 1 1 h -0.5 -0.5 z"
       id="path305" /><path
       style="fill:#000000;stroke-width:1"
       d="m 67.647774,31.082996 v -0.5 h 1 1 v -0.5 -0.5 h 1 1 v -0.5 -0.5 h 0.5 0.5 v -0.5 -0.5 h 0.5 0.5 v -0.5 -0.5 h 0.5 0.5 v -0.5 -0.5 h 0.5 0.5 v -1 -1 h 0.5 0.5 v -4.5 -4.5 h -0.5 -0.5 v -1.5 -1.5 h 0.5 0.5 v 1.5 1.5 h 0.5 0.5 v 4.5 4.5 h -0.5 -0.5 v 1 1 h -0.5 -0.5 v 0.5 0.5 h -0.5 -0.5 v 0.5 0.5 h -0.5 -0.5 v 0.5 0.5 h -0.5 -0.5 v 0.5 0.5 h -0.5 -0.5 v 0.5 0.5 h -1 -1 v 0.5 0.5 h -1 -1 z m 7,-21 v -0.5 h 0.5 0.5 v 0.5 0.5 h -0.5 -0.5 z m -12,-13 v -0.5 h -0.5 -0.5 v -0.5 -0.5 h -0.5 -0.5 v -0.5 -0.5 h 0.5 0.5 v 0.5 0.5 h 0.5 0.5 v 0.5 0.5 h 0.5 0.5 v 0.5 0.5 h -0.5 -0.5 z m -22,-1 v -0.5 h -1 -1 v -0.5 -0.5 h -0.5 -0.5 v -0.5 -0.5 h -0.5 -0.5 v -0.5 -0.5 h -0.5 -0.5 v -0.5 -0.5 h -0.5 -0.5 v -2 -2 h 0.5 0.5 v -0.5 -0.5 h 1 1 v -0.5 -0.5 h 3.5 3.5 v 0.5 0.5 h -3.5 -3.5 v 0.5 0.5 h -1 -1 v 2 2 h 0.5 0.5 v 0.5 0.5 h 0.5 0.5 v 0.5 0.5 h 0.5 0.5 v 0.5 0.5 h 1 1 v 0.5 0.5 h 2 2 v 0.5 0.5 h -2 -2 z"
       id="path303" /></g></svg>
