<?xml version="1.0" encoding="UTF-8" standalone="no"?>
<svg
   version="1.1"
   width="48"
   height="48"
   id="svg2"
   sodipodi:docname="media-encrypted.svg"
   xml:space="preserve"
   inkscape:version="1.2.2 (b0a8486541, 2022-12-01)"
   xmlns:inkscape="http://www.inkscape.org/namespaces/inkscape"
   xmlns:sodipodi="http://sodipodi.sourceforge.net/DTD/sodipodi-0.dtd"
   xmlns="http://www.w3.org/2000/svg"
   xmlns:svg="http://www.w3.org/2000/svg"
   xmlns:rdf="http://www.w3.org/1999/02/22-rdf-syntax-ns#"
   xmlns:cc="http://creativecommons.org/ns#"
   xmlns:dc="http://purl.org/dc/elements/1.1/"><sodipodi:namedview
     id="namedview345"
     pagecolor="#ffffff"
     bordercolor="#000000"
     borderopacity="0.25"
     inkscape:showpageshadow="2"
     inkscape:pageopacity="0.0"
     inkscape:pagecheckerboard="0"
     inkscape:deskcolor="#d1d1d1"
     showgrid="false"
     inkscape:zoom="7.71875"
     inkscape:cx="27.336032"
     inkscape:cy="42.493927"
     inkscape:window-width="1920"
     inkscape:window-height="1008"
     inkscape:window-x="0"
     inkscape:window-y="0"
     inkscape:window-maximized="1"
     inkscape:current-layer="g490" /><metadata
     id="metadata8"><rdf:RDF><cc:Work
         rdf:about=""><dc:format>image/svg+xml</dc:format><dc:type
           rdf:resource="http://purl.org/dc/dcmitype/StillImage" /></cc:Work></rdf:RDF></metadata><defs
     id="defs6" /><g
     id="g490"><path
       style="fill:#ffffff;stroke-width:1;opacity:0"
       d="M 0,24 V 0 H 24 48 V 24 48 H 24 0 Z M 43,44.5 V 44 H 43.5 44 V 43.5 43 H 44.5 45 V 37 31 H 45.5 46 V 30.5 30 H 46.5 47 V 22 14 H 46.5 46 V 13.5 13 H 26 6 V 13.5 14 H 5.5 5 V 14.5 15 H 4.5 4 V 15.5 16 H 3.5 3 V 16.5 17 H 2.5 2 V 17.5 18 H 1.5 1 v 8 8 H 1.5 2 V 34.5 35 H 12.5 23 v 4.5 4.5 h 0.5 0.5 v 0.5 0.5 h 9.5 9.5 z"
       id="path508" /><path
       style="fill:#fefefe;stroke-width:1"
       d="M 24,36.5 V 30 H 24.5 25 V 29.5 29 H 32.5 40 V 29.5 30 H 40.5 41 V 30.5 31 H 40.5 40 V 30.5 30 H 32.5 25 V 36.5 43 H 24.5 24 Z M 2,25.5 V 18 H 15 28 V 18.5 19 H 15.5 3 v 7 7 H 2.5 2 Z m 3,4 V 29 h 9 9 V 29.5 30 H 14 5 Z m 0,-2 V 27 H 14.5 24 V 27.5 28 H 14.5 5 Z m 35,-9 V 18 H 40.5 41 V 18.5 19 H 40.5 40 Z"
       id="path506" /><path
       style="fill:#bfbfbf;stroke-width:1"
       d="M 41,36.5 V 30 H 40.5 40 V 29.5 29 h 1 1 v 7 7 H 41.5 41 Z m -15,4 V 40 h 7 7 v 0.5 0.5 h -7 -7 z m 0,-2 V 38 h 7 7 v 0.5 0.5 h -7 -7 z m 0,-2 V 36 h 7 7 v 0.5 0.5 h -7 -7 z m 0,-2 V 34 h 7 7 V 34.5 35 H 33 26 Z M 3,26 v -7 h 12 12 v 3 3 H 26.5 26 V 25.5 26 H 15.5 5 v 2 2 h 9 9 V 31.5 33 H 13 3 Z m 23,6.5 V 32 h 7 7 v 0.5 0.5 h -7 -7 z m -2,-3 V 29 H 24.5 25 V 29.5 30 H 24.5 24 Z M 38,23 V 19 H 37 36 V 19.5 20 H 34.5 33 v 1 1 h 2 2 V 23.5 25 H 34 31 V 22.5 20 H 31.5 32 V 19.5 19 h 2 2 V 18.5 18 H 35.5 35 V 17.5 17 h 0.5 0.5 v 0.5 0.5 h 1 1 v 0.5 0.5 h 0.5 0.5 v 4 4 H 38.5 38 Z M 29,19.5 V 19 H 29.5 30 V 18.5 18 H 30.5 31 V 18.5 19 H 30.5 30 V 19.5 20 H 29.5 29 Z M 3,17.5 V 17 H 3.5 4 V 16.5 16 H 4.5 5 V 15.5 15 H 5.5 6 V 14.5 14 H 25.5 45 V 14.5 15 H 44.5 44 V 15.5 16 H 43.5 43 V 16.5 17 H 42.5 42 V 17.5 18 H 40.5 39 V 17.5 17 H 38.5 38 V 16.5 16 H 37 36 V 15.5 15 H 34 32 V 15.5 16 H 31 30 V 16.5 17 H 29.5 29 V 17.5 18 H 16 3 Z"
       id="path504" /><path
       style="fill:#fefe00;stroke-width:1"
       d="M 25,36.5 V 30 h 7.5 7.5 v 0.5 0.5 h 0.5 0.5 v 6 6 h -8 -8 z m 15,4 V 40 h -7 -7 v 0.5 0.5 h 7 7 z m 0,-2 V 38 h -7 -7 v 0.5 0.5 h 7 7 z m 0,-2 V 36 h -7 -7 v 0.5 0.5 h 7 7 z m 0,-2 V 34 h -7 -7 v 0.5 0.5 h 7 7 z m 0,-2 V 32 h -7 -7 v 0.5 0.5 h 7 7 z M 28,23 V 19 H 28.5 29 V 18.5 18 H 29.5 30 V 17.5 17 h 1 1 V 16.5 16 h 2 2 V 16.5 17 H 36.5 37 V 17.5 18 H 36.5 36 V 17.5 17 H 34 32 V 17.5 18 H 31 30 V 18.5 19 H 29.5 29 v 4 4 H 28.5 28 Z m 9,-3.5 V 19 H 37.5 38 V 19.5 20 H 37.5 37 Z"
       id="path502" /><path
       style="fill:#7f7f7f;stroke-width:1"
       d="M 42,43 V 42 H 42.5 43 V 41.5 41 H 42.5 42 V 40.5 40 H 42.5 43 V 39.5 39 H 42.5 42 V 38.5 38 H 42.5 43 V 37.5 37 H 42.5 42 V 36.5 36 H 42.5 43 V 35.5 35 H 42.5 42 V 34.5 34 H 42.5 43 V 33.5 33 H 42.5 42 V 32.5 32 H 42.5 43 V 31.5 31 H 42.5 42 V 30.5 30 H 42.5 43 V 29.5 29 H 42.5 42 V 28.5 28 H 41.5 41 V 28.5 29 H 40.5 40 V 28.5 28 H 40.5 41 V 27.5 27 H 41.5 42 V 26.5 26 H 42.5 43 V 25.5 25 H 42 41 V 21.5 18 H 41.5 42 V 17.5 17 H 42.5 43 V 16.5 16 H 43.5 44 V 15.5 15 H 44.5 45 V 14.5 14 H 25.5 6 V 14.5 15 H 5.5 5 V 15.5 16 H 4.5 4 V 16.5 17 H 3.5 3 V 17.5 18 H 2.5 2 V 25.5 33 H 12.5 23 V 33.5 34 H 12 1 V 26 18 H 1.5 2 V 17.5 17 H 2.5 3 V 16.5 16 H 3.5 4 V 15.5 15 H 4.5 5 V 14.5 14 H 5.5 6 V 13.5 13 H 26 46 V 21.5 30 H 45.5 45 V 28.5 27 H 44.5 44 V 27.5 28 H 43.5 43 V 28.5 29 H 43.5 44 V 29.5 30 H 43.5 43 V 30.5 31 H 43.5 44 V 31.5 32 H 43.5 43 V 32.5 33 H 43.5 44 V 33.5 34 H 43.5 43 V 34.5 35 H 43.5 44 V 35.5 36 H 43.5 43 V 36.5 37 H 43.5 44 V 37.5 38 H 43.5 43 V 38.5 39 H 43.5 44 V 39.5 40 H 43.5 43 V 40.5 41 H 43.5 44 V 41.5 42 H 43.5 43 v 1 1 H 42.5 42 Z M 43,27.5 V 27 H 43.5 44 V 26.5 26 H 43.5 43 V 26.5 27 H 42.5 42 v 0.5 0.5 h 0.5 0.5 z m -38,1 V 28 h 9 9 V 28.5 29 H 14 5 Z m 19,0 V 28 H 24.5 25 V 27.5 27 H 15 5 V 26.5 26 H 15 25 V 26.5 27 H 25.5 26 V 26.5 26 H 26.5 27 V 26.5 27 H 26.5 26 V 27.5 28 H 26.5 27 V 28.5 29 H 26.5 26 V 28.5 28 H 25.5 25 V 28.5 29 H 24.5 24 Z m 4,0 V 28 H 28.5 29 V 28.5 29 H 28.5 28 Z m 2,0 V 28 H 30.5 31 V 27.5 27 H 31.5 32 V 26.5 26 H 32.5 33 V 26.5 27 H 33.5 34 V 26.5 26 H 34.5 35 V 26.5 27 H 35.5 36 V 26.5 26 H 36.5 37 V 26.5 27 H 37.5 38 V 27.5 28 H 38.5 39 V 28.5 29 H 38.5 38 V 28.5 28 H 37.5 37 V 28.5 29 H 36.5 36 V 28.5 28 H 35.5 35 V 28.5 29 H 34.5 34 V 28.5 28 H 33.5 33 V 28.5 29 H 32.5 32 V 28.5 28 H 31.5 31 V 28.5 29 H 30.5 30 Z m 3,-1 V 27 H 32.5 32 v 0.5 0.5 h 0.5 0.5 z m 2,0 V 27 H 34.5 34 v 0.5 0.5 h 0.5 0.5 z m 2,0 V 27 H 36.5 36 v 0.5 0.5 h 0.5 0.5 z"
       id="path500" /><path
       style="fill:#00fe00;stroke-width:1"
       d="M 33,20.5 V 20 h 2 2 v 0.5 0.5 h -2 -2 z"
       id="path498" /><path
       style="fill:#7f7f00;stroke-width:1"
       d="M 23,36 V 28 H 23.5 24 V 27.5 27 H 24.5 25 V 26.5 26 H 25.5 26 V 25.5 25 H 26.5 27 V 22 19 H 27.5 28 V 18.5 18 H 28.5 29 V 17.5 17 H 29.5 30 V 16.5 16 h 1 1 V 15.5 15 h 2 2 V 15.5 16 H 34 32 V 16.5 17 H 33.5 35 V 17.5 18 H 33.5 32 V 18.5 19 H 31.5 31 V 19.5 20 H 30.5 30 V 23.5 27 H 29.5 29 V 23.5 20 H 29.5 30 V 19.5 19 H 30.5 31 V 18.5 18 H 31.5 32 V 17.5 17 H 31 30 V 17.5 18 H 29.5 29 V 18.5 19 H 28.5 28 v 4 4 H 27.5 27 V 27.5 28 H 27.5 28 V 28.5 29 H 27.5 27 V 28.5 28 H 26.5 26 V 28.5 29 H 25.5 25 V 28.5 28 H 24.5 24 v 7.5 7.5 h 9 9 V 43.5 44 H 32.5 23 Z m 3,-8.5 V 27 H 26.5 27 V 26.5 26 H 26.5 26 V 26.5 27 H 25.5 25 v 0.5 0.5 h 0.5 0.5 z m 17,15 V 42 H 42.5 42 V 41.5 41 H 42.5 43 V 40.5 40 H 42.5 42 V 39.5 39 H 42.5 43 V 38.5 38 H 42.5 42 V 37.5 37 H 42.5 43 V 36.5 36 H 42.5 42 V 35.5 35 H 42.5 43 V 34.5 34 H 42.5 42 V 33.5 33 H 42.5 43 V 32.5 32 H 42.5 42 V 31.5 31 H 42.5 43 V 30.5 30 H 42.5 42 V 29.5 29 H 41.5 41 V 28.5 28 H 40.5 40 V 28.5 29 H 39.5 39 V 28.5 28 H 39.5 40 V 27.5 27 H 39.5 39 V 23 19 H 38.5 38 V 18.5 18 H 37.5 37 V 17.5 17 h 0.5 0.5 v 0.5 0.5 h 0.5 0.5 v 0.5 0.5 h 0.5 0.5 v 4 4 h 0.5 0.5 v -1 -1 h 1 1 V 25.5 26 H 42.5 42 V 26.5 27 H 42.5 43 V 27.5 28 H 43.5 44 V 28.5 29 H 43.5 43 V 29.5 30 H 43.5 44 V 30.5 31 H 43.5 43 V 31.5 32 H 43.5 44 V 32.5 33 H 43.5 43 V 33.5 34 H 43.5 44 V 34.5 35 H 43.5 43 V 35.5 36 H 43.5 44 V 36.5 37 H 43.5 43 V 37.5 38 H 43.5 44 V 38.5 39 H 43.5 43 V 39.5 40 H 43.5 44 V 40.5 41 H 43.5 43 V 41.5 42 H 43.5 44 V 42.5 43 H 43.5 43 Z m 0,-14 V 28 H 42.5 42 V 27.5 27 H 41.5 41 v 0.5 0.5 h 0.5 0.5 v 0.5 0.5 h 0.5 0.5 z m -14,0 V 28 H 29.5 30 V 28.5 29 H 29.5 29 Z m 2,0 V 28 H 31.5 32 V 27.5 27 H 31.5 31 v -1 -1 h 3 3 V 22.5 20 H 36.5 36 V 19.5 19 H 36.5 37 V 19.5 20 H 37.5 38 V 23.5 27 H 37.5 37 V 27.5 28 H 37.5 38 V 28.5 29 H 37.5 37 V 28.5 28 H 36.5 36 V 28.5 29 H 35.5 35 V 28.5 28 H 34.5 34 V 28.5 29 H 33.5 33 V 28.5 28 H 32.5 32 V 28.5 29 H 31.5 31 Z m 3,-1 V 27 H 34.5 35 V 27.5 28 H 35.5 36 V 27.5 27 H 36.5 37 V 26.5 26 H 36.5 36 V 26.5 27 H 35.5 35 V 26.5 26 H 34.5 34 V 26.5 27 H 33.5 33 V 26.5 26 H 32.5 32 v 0.5 0.5 h 0.5 0.5 v 0.5 0.5 h 0.5 0.5 z"
       id="path496" /><path
       style="fill:#007f00;stroke-width:1"
       d="M 33,21.5 V 21 h 2 2 v 0.5 0.5 h -2 -2 z"
       id="path494" /><path
       style="fill:#000000;stroke-width:1"
       d="M 24,44.5 V 44 H 33.5 43 V 43.5 43 H 43.5 44 V 35 27 H 43.5 43 V 26.5 26 h 0.5 0.5 v 0.5 0.5 h 0.5 0.5 v 1.5 1.5 h 0.5 0.5 v -8 -8 h 0.5 0.5 v 8 8 H 46.5 46 V 30.5 31 H 45.5 45 v 6 6 H 44.5 44 V 43.5 44 H 43.5 43 V 44.5 45 H 33.5 24 Z M 2,34.5 V 34 H 12.5 23 V 34.5 35 H 12.5 2 Z m 25,-7 V 27 H 28.5 30 V 23.5 20 H 30.5 31 V 19.5 19 H 31.5 32 V 18.5 18 h 2 2 V 18.5 19 H 34 32 V 19.5 20 H 31.5 31 v 4 4 h -2 -2 z m 11,0 V 27 h 1 1 V 23 19 H 39.5 39 V 18.5 18 H 38.5 38 V 17.5 17 H 37 36 V 16.5 16 h 1 1 v 0.5 0.5 h 0.5 0.5 v 0.5 0.5 h 0.5 0.5 v 0.5 0.5 h 0.5 0.5 v 4 4 H 40.5 40 v 0.5 0.5 h -1 -1 z"
       id="path492" /></g></svg>
