<?xml version="1.0" encoding="UTF-8" standalone="no"?>
<svg
   width="48"
   height="48"
   version="1.1"
   id="svg3"
   sodipodi:docname="media-flash-cf.svg"
   xml:space="preserve"
   inkscape:version="1.2.2 (b0a8486541, 2022-12-01)"
   xmlns:inkscape="http://www.inkscape.org/namespaces/inkscape"
   xmlns:sodipodi="http://sodipodi.sourceforge.net/DTD/sodipodi-0.dtd"
   xmlns="http://www.w3.org/2000/svg"
   xmlns:svg="http://www.w3.org/2000/svg"
   xmlns:rdf="http://www.w3.org/1999/02/22-rdf-syntax-ns#"
   xmlns:cc="http://creativecommons.org/ns#"
   xmlns:dc="http://purl.org/dc/elements/1.1/"><sodipodi:namedview
     id="namedview6"
     pagecolor="#ffffff"
     bordercolor="#000000"
     borderopacity="0.25"
     inkscape:showpageshadow="2"
     inkscape:pageopacity="0.0"
     inkscape:pagecheckerboard="0"
     inkscape:deskcolor="#d1d1d1"
     showgrid="false"
     inkscape:zoom="7.71875"
     inkscape:cx="2.7206478"
     inkscape:cy="9.3279352"
     inkscape:window-width="1920"
     inkscape:window-height="1008"
     inkscape:window-x="0"
     inkscape:window-y="0"
     inkscape:window-maximized="1"
     inkscape:current-layer="svg3" /><metadata
     id="metadata9"><rdf:RDF><cc:Work
         rdf:about=""><dc:format>image/svg+xml</dc:format><dc:type
           rdf:resource="http://purl.org/dc/dcmitype/StillImage" /></cc:Work></rdf:RDF></metadata><defs
     id="defs7" /><g
     id="g327"
     transform="matrix(0.1,0,0,0.1,21.557895,21.117409)"
     style="stroke-width:10"><path
       style="fill:#ffffff;stroke-width:10;opacity:0"
       d="m -215.57895,233.82591 v -35 h 5 5 v 5 5 h 215 215 v -5 -5 h 5 5 v -5 -5 h 5 5 v -5 -5 h 5 5 v -5 -5 h 5 5 v 50 50 h -240 -240 z m 0,-330 v -115 h 240 240 v 100 100 h -5 -5 v -5 -5 h -215 -215 v 5 5 h -5 -5 v 5 5 h -5 -5 v 5 5 h -5 -5 v 5 5 h -5 -5 z"
       id="path341" /><path
       style="fill:#fefefe;stroke-width:10"
       d="m -205.57895,103.82591 v -85 h 210 210 v 5 5 h -205 -205 v 80 80 h -5 -5 z m 90,60 v -5 h 5 5 v -5 -5 h 5 5 v 10 10 h -10 -10 z m 30,0 v -5 h 5 5 v -5 -5 h 5 5 v 10 10 h -10 -10 z m 30,0 v -5 h 5 5 v -5 -5 h 5 5 v 10 10 h -10 -10 z m 30,0 v -5 h 5 5 v -5 -5 h 5 5 v 10 10 h -10 -10 z m 30,0 v -5 h 5 5 v -5 -5 h 5 5 v 10 10 h -10 -10 z m 30,0 v -5 h 5 5 v -5 -5 h 5 5 v 10 10 h -10 -10 z m 30,0 v -5 h 5 5 v -5 -5 h 5 5 v 10 10 h -10 -10 z m 30,0 v -5 h 5 5 v -5 -5 h 5 5 v 10 10 h -10 -10 z m 30,0 v -5 h 5 5 v -5 -5 h 5 5 v 10 10 h -10 -10 z m 30,0 v -5 h 5 5 v -5 -5 h 5 5 v 10 10 h -10 -10 z m -240,-50 v -5 h -15 -15 v -5 -5 h 15 15 v 5 5 h 115 115 v -5 -5 h 15 15 v 5 5 h -15 -15 v 5 5 h -115 -115 z"
       id="path339" /><path
       style="fill:#bfbfbf;stroke-width:10"
       d="m -195.57895,108.82591 v -80 h 205 205 v 80 80 h -205 -205 z m 100,45 v -15 h -10 -10 v 15 15 h 10 10 z m 30,0 v -15 h -10 -10 v 15 15 h 10 10 z m 30,0 v -15 h -10 -10 v 15 15 h 10 10 z m 30,0 v -15 h -10 -10 v 15 15 h 10 10 z m 30,0 v -15 h -10 -10 v 15 15 h 10 10 z m 30,0 v -15 h -10 -10 v 15 15 h 10 10 z m 30,0 v -15 h -10 -10 v 15 15 h 10 10 z m 30,0 v -15 h -10 -10 v 15 15 h 10 10 z m 30,0 v -15 h -10 -10 v 15 15 h 10 10 z m 30,0 v -15 h -10 -10 v 15 15 h 10 10 z m -30,-40 v -5 h 15 15 v -5 -5 h -15 -15 v -5 -5 h 15 15 v -10 -10 h -15 -15 v -5 -5 h -115 -115 v 5 5 h -15 -15 v 10 10 h 15 15 v 5 5 h -15 -15 v 5 5 h 15 15 v 5 5 h 115 115 z m -290,-30 v -15 h -15 -15 v 15 15 h 15 15 z m -50,-70 v -5 h 5 5 v -5 -5 h 5 5 v -5 -5 h 210 210 v 5 5 h -5 -5 v 5 5 h -5 -5 v 5 5 h -210 -210 z"
       id="path337" /><path
       style="fill:#7f7f7f;stroke-width:10"
       d="m -215.57895,108.82591 v -90 h 5 5 v -5 -5 h 5 5 v -5 -5 h 5 5 v -5 -5 h 5 5 v -5 -5 h 215 215 v 95 95 h -5 -5 v 5 5 h -5 -5 v 5 5 h -5 -5 v 5 5 h -220 -220 z m 430,-5 v -85 h 5 5 v -5 -5 h 5 5 v -5 -5 h 5 5 v -5 -5 h -210 -210 v 5 5 h -5 -5 v 5 5 h -5 -5 v 5 5 h -5 -5 v 85 85 h 210 210 z m -330,45 v -10 h 10 10 v 5 5 h -5 -5 v 5 5 h -5 -5 z m 30,0 v -10 h 10 10 v 5 5 h -5 -5 v 5 5 h -5 -5 z m 30,0 v -10 h 10 10 v 5 5 h -5 -5 v 5 5 h -5 -5 z m 30,0 v -10 h 10 10 v 5 5 h -5 -5 v 5 5 h -5 -5 z m 30,0 v -10 h 10 10 v 5 5 h -5 -5 v 5 5 h -5 -5 z m 30,0 v -10 h 10 10 v 5 5 h -5 -5 v 5 5 h -5 -5 z m 30,0 v -10 h 10 10 v 5 5 h -5 -5 v 5 5 h -5 -5 z m 30,0 v -10 h 10 10 v 5 5 h -5 -5 v 5 5 h -5 -5 z m 30,0 v -10 h 10 10 v 5 5 h -5 -5 v 5 5 h -5 -5 z m 30,0 v -10 h 10 10 v 5 5 h -5 -5 v 5 5 h -5 -5 z m -240,-45 v -5 h 115 115 v 5 5 h -115 -115 z m -30,-25 v -10 h 15 15 v -5 -5 h 115 115 v 5 5 h 15 15 v 10 10 h -15 -15 v -10 -10 h -115 -115 v 10 10 h -15 -15 z"
       id="path335" /><path
       style="fill:#fe0000;stroke-width:10"
       d="m -175.57895,78.82591 v -10 h 10 10 v 10 10 h -10 -10 z"
       id="path333" /><path
       style="fill:#7f0000;stroke-width:10"
       d="m -175.57895,93.82591 v -5 h 10 10 v -10 -10 h 5 5 v 15 15 h -15 -15 z"
       id="path331" /><path
       style="fill:#000000;stroke-width:10"
       d="m -205.57895,203.82591 v -5 h 215 215 v -5 -5 h 5 5 v -5 -5 h 5 5 v -5 -5 h 5 5 v -90 -90 h 5 5 v 90 90 h -5 -5 v 5 5 h -5 -5 v 5 5 h -5 -5 v 5 5 h -5 -5 v 5 5 h -215 -215 z m 120,-120 v -15 h 115 115 v 15 15 h -115 -115 z"
       id="path329" /></g></svg>
