<?xml version="1.0" encoding="UTF-8" standalone="no"?>
<svg
   id="svg3"
   version="1.1"
   height="48"
   width="48"
   sodipodi:docname="3floppy_unmount.svg"
   xml:space="preserve"
   inkscape:version="1.2.2 (b0a8486541, 2022-12-01)"
   xmlns:inkscape="http://www.inkscape.org/namespaces/inkscape"
   xmlns:sodipodi="http://sodipodi.sourceforge.net/DTD/sodipodi-0.dtd"
   xmlns="http://www.w3.org/2000/svg"
   xmlns:svg="http://www.w3.org/2000/svg"
   xmlns:rdf="http://www.w3.org/1999/02/22-rdf-syntax-ns#"
   xmlns:cc="http://creativecommons.org/ns#"
   xmlns:dc="http://purl.org/dc/elements/1.1/"><sodipodi:namedview
     id="namedview6"
     pagecolor="#ffffff"
     bordercolor="#000000"
     borderopacity="0.25"
     inkscape:showpageshadow="2"
     inkscape:pageopacity="0.0"
     inkscape:pagecheckerboard="0"
     inkscape:deskcolor="#d1d1d1"
     showgrid="false"
     inkscape:zoom="7.71875"
     inkscape:cx="-10.234818"
     inkscape:cy="20.080972"
     inkscape:window-width="1920"
     inkscape:window-height="1008"
     inkscape:window-x="0"
     inkscape:window-y="0"
     inkscape:window-maximized="1"
     inkscape:current-layer="svg3" /><metadata
     id="metadata9"><rdf:RDF><cc:Work
         rdf:about=""><dc:format>image/svg+xml</dc:format><dc:type
           rdf:resource="http://purl.org/dc/dcmitype/StillImage" /></cc:Work></rdf:RDF></metadata><defs
     id="defs7" /><g
     id="g327"><path
       style="opacity:0;fill:#ffffff;stroke-width:1"
       d="M 0,47 V 46 H 0.5 1 V 46.5 47 H 20.5 40 V 46.5 46 H 40.5 41 V 45.5 45 H 41.5 42 V 44.5 44 H 42.5 43 V 43.5 43 H 43.5 44 V 42.5 42 H 44.5 45 V 37.5 33 h 1 1 V 32.5 32 h 0.5 0.5 v 8 8 H 24 0 Z M 0,15 V 0 h 24 24 v 5 5 H 47.5 47 V 9.5 9 H 36 25 V 9.5 10 H 24.5 24 v 8 8 H 14 4 V 26.5 27 H 3.5 3 V 27.5 28 H 2.5 2 V 28.5 29 H 1.5 1 V 29.5 30 H 0.5 0 Z"
       id="path341" /><path
       style="fill:#fefefe;stroke-width:1"
       d="M 1,37.5 V 30 H 12.5 24 V 30.5 31 H 13 2 v 7 7 H 1.5 1 Z m 13,3 V 40 H 9.5 5 V 39.5 39 H 9.5 14 v 0.5 0.5 h 6 6 V 39.5 39 H 30.5 35 V 39.5 40 H 30.5 26 v 0.5 0.5 h -6 -6 z m 11,-20 V 10 H 25.5 26 V 20.5 31 H 25.5 25 Z m 16,8 V 26 H 41.5 42 V 28.5 31 H 41.5 41 Z m -11,-6 V 22 H 29.5 29 v -6 -6 h 7 7 v 6 6 H 42.5 42 v 0.5 0.5 h -6 -6 z"
       id="path339" /><path
       style="fill:#bfbfbf;stroke-width:1"
       d="m 2,38 v -7 h 11 11 v 0.5 0.5 h 0.5 0.5 v 0.5 0.5 h 3.5 3.5 v 1 1 h 1.5 1.5 v -1 -1 h 2 2 v 6 6 H 20.5 2 Z m 24,2.5 V 40 H 30.5 35 V 39 38 H 30.5 26 V 37.5 37 H 20 14 V 37.5 38 H 9.5 5 v 1 1 H 9.5 14 v 0.5 0.5 h 6 6 z m 0,-20 V 10 h 1.5 1.5 v 6 6 h 0.5 0.5 v 0.5 0.5 h 6 6 V 22.5 22 H 42.5 43 V 17.5 13 h 1 1 V 12 11 H 44 43 V 10.5 10 H 44.5 46 V 20.5 31 H 44 42 V 28.5 26 H 41.5 41 V 28.5 31 H 40.5 40 V 28.5 26 H 40.5 41 V 25.5 25 H 36.5 32 V 25.5 26 H 31.5 31 V 28.5 31 H 28.5 26 Z m -24,9 V 29 H 2.5 3 V 28.5 28 H 3.5 4 V 27.5 27 H 14 24 V 28.5 30 H 13 2 Z M 34,28 v -2 h 0.5 0.5 v 2 2 H 34.5 34 Z"
       id="path337" /><path
       style="fill:#7e7e7e;stroke-width:1"
       d="M 0,38 V 30 H 0.5 1 V 29.5 29 H 1.5 2 V 28.5 28 H 2.5 3 V 27.5 27 H 3.5 4 V 26.5 26 H 14 24 V 18 10 H 24.5 25 V 9.5 9 H 36 47 V 20.5 32 H 43.5 40 V 31.5 31 h 3 3 V 20.5 10 H 35.5 25 V 20.5 31 h 3 3 V 28.5 26 H 31.5 32 V 25.5 25 H 36.5 41 V 25.5 26 H 40 39 V 28.5 31 H 35 31 V 31.5 32 H 27.5 24 V 29.5 27 H 14 4 V 27.5 28 H 3.5 3 V 28.5 29 H 2.5 2 V 29.5 30 H 1.5 1 V 37.5 45 H 20 39 V 39 33 H 41.5 44 V 37.5 42 H 43.5 43 V 42.5 43 H 42.5 42 V 43.5 44 H 41.5 41 V 44.5 45 H 40.5 40 V 45.5 46 H 20 0 Z M 35,28 V 26 H 33.5 32 v 2 2 H 33.5 35 Z M 5,38.5 V 38 H 9.5 14 V 37.5 37 h 6 6 V 37.5 38 H 30.5 35 V 38.5 39 H 30.5 26 V 38.5 38 H 20 14 V 38.5 39 H 9.5 5 Z"
       id="path335" /><path
       style="fill:#fe0000;stroke-width:1"
       d="M 32,34.5 V 34 H 33.5 35 V 34.5 35 H 33.5 32 Z"
       id="path333" /><path
       style="fill:#7f0000;stroke-width:1"
       d="M 32,33.5 V 33 H 33.5 35 V 33.5 34 H 33.5 32 Z"
       id="path331" /><path
       style="fill:#000000;stroke-width:1"
       d="M 1,46.5 V 46 H 20.5 40 V 45.5 45 H 40.5 41 V 44.5 44 H 41.5 42 V 43.5 43 H 42.5 43 V 42.5 42 H 43.5 44 V 37.5 33 H 34.5 25 V 32.5 32 h 3 3 V 31.5 31 h 4 4 V 28.5 26 h 0.5 0.5 v 3 3 H 43.5 47 V 21 10 H 47.5 48 V 21 32 H 47.5 47 V 32.5 33 H 46 45 V 37.5 42 H 44.5 44 V 42.5 43 H 43.5 43 V 43.5 44 H 42.5 42 V 44.5 45 H 41.5 41 V 45.5 46 H 40.5 40 V 46.5 47 H 20.5 1 Z M 14,39 v -1 h 6 6 v 1 1 H 20 14 Z M 32,28 v -2 h 1 1 v 2 2 H 33 32 Z M 43,12 v -1 h 1 1 v 1 1 h -1 -1 z"
       id="path329" /></g></svg>
