<?xml version="1.0" encoding="UTF-8" standalone="no"?>
<svg
   id="svg3"
   version="1.1"
   height="48"
   width="48"
   sodipodi:docname="gnome-modem.svg"
   xml:space="preserve"
   inkscape:version="1.2.2 (b0a8486541, 2022-12-01)"
   xmlns:inkscape="http://www.inkscape.org/namespaces/inkscape"
   xmlns:sodipodi="http://sodipodi.sourceforge.net/DTD/sodipodi-0.dtd"
   xmlns="http://www.w3.org/2000/svg"
   xmlns:svg="http://www.w3.org/2000/svg"
   xmlns:rdf="http://www.w3.org/1999/02/22-rdf-syntax-ns#"
   xmlns:cc="http://creativecommons.org/ns#"
   xmlns:dc="http://purl.org/dc/elements/1.1/"><sodipodi:namedview
     id="namedview385"
     pagecolor="#ffffff"
     bordercolor="#000000"
     borderopacity="0.25"
     inkscape:showpageshadow="2"
     inkscape:pageopacity="0.0"
     inkscape:pagecheckerboard="0"
     inkscape:deskcolor="#d1d1d1"
     showgrid="false"
     inkscape:zoom="10.915961"
     inkscape:cx="34.353366"
     inkscape:cy="33.803712"
     inkscape:window-width="1920"
     inkscape:window-height="1008"
     inkscape:window-x="0"
     inkscape:window-y="0"
     inkscape:window-maximized="1"
     inkscape:current-layer="g530" /><metadata
     id="metadata9"><rdf:RDF><cc:Work
         rdf:about=""><dc:format>image/svg+xml</dc:format><dc:type
           rdf:resource="http://purl.org/dc/dcmitype/StillImage" /></cc:Work></rdf:RDF></metadata><defs
     id="defs7" /><g
     id="g530"
     transform="translate(-13.248633)"><path
       style="fill:#ffffff;stroke-width:1;opacity:0"
       d="M 13.248633,42.5 V 37 h 0.5 0.5 v 0.5 0.5 h 1 1 v 0.5 0.5 h 1 1 v 0.5 0.5 h 1 1 v 0.5 0.5 h 1 1 v 0.5 0.5 h 1 1 v 0.5 0.5 h 1 1 v 0.5 0.5 h 1 1 v 0.5 0.5 h 1 1 v 0.5 0.5 h 1 1 v 0.5 0.5 h 1 1 v 0.5 0.5 h -10.5 -10.5 z m 24,5 V 47 h 1 1 V 46.5 46 h 1 1 V 45.5 45 h 1 1 V 44.5 44 h 1 1 V 43.5 43 h 1 1 V 42.5 42 h 1 1 V 41.5 41 h 1 1 V 40.5 40 h 1 1 V 39.5 39 h 1 1 V 38.5 38 h 1 1 V 37.5 37 h 1 1 V 36.5 36 h 1 1 v 6 6 h -12 -12 z m -24,-32.5 V 0 h 8 8 V 0.5 1 h -1 -1 V 1.5 2 h -0.5 -0.5 V 2.5 3 h -0.5 -0.5 V 3.5 4 h -0.5 -0.5 V 4.5 5 h -0.5 -0.5 v 1 1 h -0.5 -0.5 V 9.5 12 h 0.5 0.5 v 0.5 0.5 h 0.5 0.5 v 0.5 0.5 h 0.5 0.5 v 0.5 0.5 h -0.5 -0.5 v 0.5 0.5 h -0.5 -0.5 v 0.5 0.5 h -0.5 -0.5 v 0.5 0.5 h -0.5 -0.5 v 0.5 0.5 h -0.5 -0.5 v 0.5 0.5 h -0.5 -0.5 v 0.5 0.5 h -0.5 -0.5 v 0.5 0.5 h -0.5 -0.5 v 3 3 h -0.5 -0.5 v 0.5 0.5 h -1 -1 v 0.5 0.5 h -0.5 -0.5 z m 47,11.5 V 25 h 0.5 0.5 v 1.5 1.5 h -0.5 -0.5 z m 0,-12 V 14 h -0.5 -0.5 V 13.5 13 h -0.5 -0.5 V 12.5 12 h -0.5 -0.5 V 11.5 11 h -0.5 -0.5 V 10.5 10 h -0.5 -0.5 V 9.5 9 h -0.5 -0.5 V 8.5 8 h -1 -1 V 7.5 7 h -0.5 -0.5 V 6.5 6 h -0.5 -0.5 V 5.5 5 h -1 -1 V 4.5 4 h -1 -1 V 3.5 3 h -1 -1 V 2.5 2 h -1 -1 V 1.5 1 h -2 -2 V 0.5 0 h 11.5 11.5 V 7.5 15 h -0.5 -0.5 z"
       id="path548" /><path
       style="fill:#fefefe;stroke-width:1"
       d="M 34.248633,39.5 V 39 h -1 -1 V 38.5 38 h -1 -1 V 37.5 37 h -1 -1 V 36.5 36 h -1 -1 V 35.5 35 h -1 -1 V 34.5 34 h -1 -1 V 33.5 33 h -1 -1 V 32.5 32 h -1 -1 V 31.5 31 h -1.5 -1.5 v 2.5 2.5 h -0.5 -0.5 v -3 -3 h 1 1 V 29.5 29 h 0.5 0.5 v 0.5 0.5 h 0.5 0.5 v 0.5 0.5 h 1 1 v 0.5 0.5 h 1 1 v 0.5 0.5 h 1 1 v 0.5 0.5 h 1 1 v 0.5 0.5 h 1 1 v 0.5 0.5 h 1 1 v 0.5 0.5 h 1 1 v 0.5 0.5 h 1 1 v 0.5 0.5 h 1 1 v 0.5 0.5 h -1 -1 z m -2,-10 V 29 h -1 -1 V 28.5 28 h -1 -1 V 27.5 27 h -1 -1 V 26.5 26 h -1 -1 V 25.5 25 h -1 -1 V 24.5 24 h -1 -1 V 23.5 23 h -0.5 -0.5 v 2 2 h -0.5 -0.5 V 24.5 22 h 0.5 0.5 V 21.5 21 h 0.5 0.5 V 20.5 20 h 0.5 0.5 V 19.5 19 h 0.5 0.5 V 18.5 18 h 0.5 0.5 V 17.5 17 h 0.5 0.5 V 16.5 16 h 0.5 0.5 V 15.5 15 h 0.5 0.5 v 0.5 0.5 h -0.5 -0.5 v 0.5 0.5 h -0.5 -0.5 v 0.5 0.5 h -0.5 -0.5 v 0.5 0.5 h -0.5 -0.5 v 0.5 0.5 h -0.5 -0.5 v 0.5 0.5 h -0.5 -0.5 v 1 1 h 1 1 v 0.5 0.5 h 1 1 v 0.5 0.5 h 1 1 v 0.5 0.5 h 1 1 v 0.5 0.5 h 1 1 v 0.5 0.5 h 1 1 v 0.5 0.5 h 1 1 v 0.5 0.5 h -1 -1 z m 0,-4 V 25 h 0.5 0.5 v 0.5 0.5 h -0.5 -0.5 z m -3,-2 V 23 h 0.5 0.5 v 0.5 0.5 h -0.5 -0.5 z m 5,0 V 23 h 0.5 0.5 v 0.5 0.5 h -0.5 -0.5 z m -9,-1 V 22 h 0.5 0.5 v 0.5 0.5 h -0.5 -0.5 z m 6,-1 V 21 h 0.5 0.5 v 0.5 0.5 h -0.5 -0.5 z m 5,0 V 21 h 0.5 0.5 v 0.5 0.5 h -0.5 -0.5 z m -9,-1 V 20 h 0.5 0.5 v 0.5 0.5 h -0.5 -0.5 z m 6,-1 V 19 h 0.5 0.5 v 0.5 0.5 h -0.5 -0.5 z m 4,0 V 19 h 0.5 0.5 v 0.5 0.5 h -0.5 -0.5 z m -8,-1 V 18 h 0.5 0.5 v 0.5 0.5 h -0.5 -0.5 z m 5,-1 V 17 h 0.5 0.5 v 0.5 0.5 h -0.5 -0.5 z m 6,0 V 17 h 0.5 0.5 v 0.5 0.5 h -0.5 -0.5 z m 13,0 V 17 h -0.5 -0.5 V 16.5 16 h -0.5 -0.5 v -1 -1 h -0.5 -0.5 V 13.5 13 h -0.5 -0.5 V 12.5 12 h -0.5 -0.5 V 11.5 11 h -0.5 -0.5 V 10.5 10 h -1 -1 V 9.5 9 h -0.5 -0.5 V 8.5 8 h -1 -1 V 7.5 7 h -1 -1 V 6.5 6 h -1 -1 V 5.5 5 h -0.5 -0.5 V 4.5 4 h -2 -2 V 3.5 3 h 2 2 V 3.5 4 h 1 1 V 4.5 5 h 1 1 V 5.5 6 h 1 1 V 6.5 7 h 0.5 0.5 V 7.5 8 h 1 1 V 8.5 9 h 1 1 V 9.5 10 h 0.5 0.5 v 0.5 0.5 h 0.5 0.5 v 0.5 0.5 h 0.5 0.5 v 0.5 0.5 h 0.5 0.5 v 0.5 0.5 h 0.5 0.5 v 0.5 0.5 h 0.5 0.5 v 0.5 0.5 h 0.5 0.5 v 0.5 0.5 h 1.5 1.5 V 15.5 14 h -0.5 -0.5 V 13.5 13 h -0.5 -0.5 V 12.5 12 h -0.5 -0.5 V 11.5 11 h -0.5 -0.5 V 10.5 10 h -0.5 -0.5 V 9.5 9 h 0.5 0.5 V 9.5 10 h 0.5 0.5 v 0.5 0.5 h 0.5 0.5 v 0.5 0.5 h 0.5 0.5 v 0.5 0.5 h 0.5 0.5 v 0.5 0.5 h 0.5 0.5 v 0.5 0.5 h 0.5 0.5 v 0.5 0.5 h -0.5 -0.5 v 0.5 0.5 h -0.5 -0.5 v 0.5 0.5 h -2.5 -2.5 z m -23,-1 V 16 h 0.5 0.5 v 0.5 0.5 h -0.5 -0.5 z m 7,-1 V 15 h 0.5 0.5 v 0.5 0.5 h -0.5 -0.5 z m -4,-1 V 14 h 0.5 0.5 V 13.5 13 h 0.5 0.5 v 0.5 0.5 h -0.5 -0.5 v 0.5 0.5 h -0.5 -0.5 z m 8,-1 V 13 h 1 1 v -1 -1 h 0.5 0.5 v 1.5 1.5 h -1.5 -1.5 z m -18,-3 V 9 h 0.5 0.5 v 1.5 1.5 h -0.5 -0.5 z m 10,-2 V 7 h 1 1 V 7.5 8 h -0.5 -0.5 v 1 1 h -0.5 -0.5 z m 18,0 V 8 h -0.5 -0.5 V 7.5 7 h -1 -1 V 6.5 6 h -1 -1 V 5.5 5 h -1 -1 V 4.5 4 h -1 -1 V 3.5 3 h -2 -2 V 2.5 2 h -4.5 -4.5 V 2.5 3 h -1 -1 V 3.5 4 h -0.5 -0.5 V 4.5 5 h -0.5 -0.5 v 1 1 h -0.5 -0.5 V 7.5 8 h -0.5 -0.5 V 7.5 7 h 0.5 0.5 V 6 5 h 0.5 0.5 V 4.5 4 h 0.5 0.5 V 3.5 3 h 0.5 0.5 V 2.5 2 h 1 1 V 1.5 1 h 4.5 4.5 V 1.5 2 h 2 2 V 2.5 3 h 1 1 V 3.5 4 h 1 1 V 4.5 5 h 1 1 V 5.5 6 h 1 1 V 6.5 7 h 0.5 0.5 V 7.5 8 h 0.5 0.5 V 8.5 9 h -0.5 -0.5 z"
       id="path546" /><path
       style="fill:#bfbfbf;stroke-width:1"
       d="M 34.248633,45.5 V 45 h -1 -1 V 44.5 44 h -1 -1 V 43.5 43 h -1 -1 V 42.5 42 h -1 -1 V 41.5 41 h -1 -1 V 40.5 40 h -1 -1 V 39.5 39 h -1 -1 V 38.5 38 h -1 -1 V 37.5 37 h -1 -1 V 36.5 36 h -0.5 -0.5 V 33.5 31 h 1.5 1.5 V 30.5 30 h -0.5 -0.5 V 29.5 29 h 1 1 V 28.5 28 h -0.5 -0.5 V 27.5 27 h 0.5 0.5 v 0.5 0.5 h 1 1 v 0.5 0.5 h 1 1 v 0.5 0.5 h 1 1 v 0.5 0.5 h 1 1 v 0.5 0.5 h 1 1 v 0.5 0.5 h 1 1 v 0.5 0.5 h 1 1 v 0.5 0.5 h 0.5 0.5 v 0.5 0.5 h -0.5 -0.5 v 0.5 0.5 h 1 1 v 0.5 0.5 h 0.5 0.5 v 0.5 0.5 h 0.5 0.5 V 38.5 38 h 1 1 V 37.5 37 h 1 1 V 36.5 36 h 1 1 V 35.5 35 h 1 1 V 34.5 34 h 1 1 V 33.5 33 h 1 1 V 32.5 32 h 1 1 V 31.5 31 h 1 1 V 30.5 30 h 1 1 V 29.5 29 h 1 1 V 28.5 28 h 1 1 v 0.5 0.5 h -1 -1 v 0.5 0.5 h -1 -1 v 0.5 0.5 h -1 -1 v 0.5 0.5 h -1 -1 v 0.5 0.5 h -1 -1 v 0.5 0.5 h -1 -1 v 0.5 0.5 h -1 -1 v 0.5 0.5 h -1 -1 v 0.5 0.5 h -1 -1 v 0.5 0.5 h -1 -1 v 0.5 0.5 h -1 -1 v 0.5 0.5 h -0.5 -0.5 v 3 3 h -1 -1 z m -1,-5 V 39 h 0.5 0.5 v 0.5 0.5 h 1 1 V 39.5 39 h -1 -1 V 38.5 38 h -1 -1 V 37.5 37 h -1 -1 V 36.5 36 h -1 -1 V 35.5 35 h -1 -1 V 34.5 34 h -1 -1 V 33.5 33 h -1 -1 V 32.5 32 h -1 -1 V 31.5 31 h -1 -1 v 0.5 0.5 h 1 1 v 0.5 0.5 h -0.5 -0.5 v 1.5 1.5 h 1 1 V 34.5 33 h 0.5 0.5 v 0.5 0.5 h 1 1 v 0.5 0.5 h -1 -1 v 1.5 1.5 h 1 1 V 36.5 35 h 1 1 v 0.5 0.5 h -0.5 -0.5 v 1.5 1.5 h 1 1 V 37.5 36 h 0.5 0.5 v 0.5 0.5 h 1 1 v 0.5 0.5 h -1 -1 v 1.5 1.5 h 1 1 V 39.5 38 h 1 1 v 0.5 0.5 h -0.5 -0.5 v 1.5 1.5 h 1 1 z m 0,-5 V 35 h -1 -1 V 34.5 34 h -1 -1 V 33.5 33 h -1 -1 V 32.5 32 h -1 -1 V 31.5 31 h -1 -1 V 30.5 30 h -1 -1 V 29.5 29 h -1 -1 v 0.5 0.5 h 1 1 v 0.5 0.5 h 1 1 v 0.5 0.5 h 1 1 v 0.5 0.5 h 1 1 v 0.5 0.5 h 1 1 v 0.5 0.5 h 1 1 v 0.5 0.5 h 1 1 z m 1,-6 V 29 h 0.5 0.5 V 28.5 28 h 0.5 0.5 V 27.5 27 h 0.5 0.5 V 26.5 26 h 0.5 0.5 V 25.5 25 h 0.5 0.5 V 24.5 24 h 0.5 0.5 V 23.5 23 h 0.5 0.5 V 22.5 22 h 0.5 0.5 V 21.5 21 h 0.5 0.5 V 20.5 20 h 0.5 0.5 V 19.5 19 h 0.5 0.5 V 18.5 18 h 0.5 0.5 V 17.5 17 h 1 1 V 16.5 16 h 0.5 0.5 v 0.5 0.5 h -0.5 -0.5 v 0.5 0.5 h -1 -1 v 0.5 0.5 h -0.5 -0.5 v 0.5 0.5 h -0.5 -0.5 v 0.5 0.5 h -0.5 -0.5 v 0.5 0.5 h -0.5 -0.5 v 0.5 0.5 h -0.5 -0.5 v 0.5 0.5 h -0.5 -0.5 v 0.5 0.5 h -0.5 -0.5 v 0.5 0.5 h -0.5 -0.5 v 0.5 0.5 h -0.5 -0.5 v 0.5 0.5 h -0.5 -0.5 v 0.5 0.5 h -0.5 -0.5 v 0.5 0.5 h -0.5 -0.5 z m -3,-4 V 25 h 0.5 0.5 v 0.5 0.5 h -0.5 -0.5 z m 22,-0.5 v -1 h 1 1 v 1 1 h -1 -1 z m -25,-1.5 V 23 h 0.5 0.5 v 0.5 0.5 h -0.5 -0.5 z m 5,0 V 23 h 0.5 0.5 v 0.5 0.5 h -0.5 -0.5 z m -9,-1 V 22 h 0.5 0.5 v 0.5 0.5 h -0.5 -0.5 z m 29,-2 V 18 h 1 1 v 2.5 2.5 h -1 -1 z m -23,1 V 21 h 0.5 0.5 v 0.5 0.5 h -0.5 -0.5 z m 5,0 V 21 h 0.5 0.5 v 0.5 0.5 h -0.5 -0.5 z m -9,-1 V 20 h 0.5 0.5 v 0.5 0.5 h -0.5 -0.5 z m 6,-1 V 19 h 0.5 0.5 v 0.5 0.5 h -0.5 -0.5 z m 6,0 V 19 h 0.5 0.5 v 0.5 0.5 h -0.5 -0.5 z m -10,-1 V 18 h 0.5 0.5 v 0.5 0.5 h -0.5 -0.5 z m 7,-1 V 17 h 0.5 0.5 v 0.5 0.5 h -0.5 -0.5 z m 4,0 V 17 h 0.5 0.5 v 0.5 0.5 h -0.5 -0.5 z m -8,-1 V 16 h 0.5 0.5 v 0.5 0.5 h -0.5 -0.5 z m 5,-1 V 15 h 0.5 0.5 v 0.5 0.5 h -0.5 -0.5 z m -9,-1 V 14 h 0.5 0.5 v -1 -1 h 1 1 V 11.5 11 h 0.5 0.5 V 10.5 10 h 0.5 0.5 V 9.5 9 h 0.5 0.5 v 1 1 h -0.5 -0.5 v 0.5 0.5 h -1 -1 v 0.5 0.5 h -0.5 -0.5 v 0.5 0.5 h -0.5 -0.5 v 0.5 0.5 h -0.5 -0.5 z m 5,0 V 14 h 0.5 0.5 v 0.5 0.5 h -0.5 -0.5 z m 12,-1 V 12 h 0.5 0.5 v 1.5 1.5 h -0.5 -0.5 z m -19,-1 V 11 h 0.5 0.5 v 1.5 1.5 h -0.5 -0.5 z m 13,0 V 12 h -0.5 -0.5 V 11.5 11 h 0.5 0.5 v 0.5 0.5 h 1 1 v 0.5 0.5 h -1 -1 z m -3,-3 V 8 h 0.5 0.5 V 9.5 11 h -0.5 -0.5 z m 4,1 V 10 h -0.5 -0.5 V 9.5 9 h -0.5 -0.5 V 8.5 8 h 0.5 0.5 V 7.5 7 h 1 1 V 7.5 8 h 1 1 V 8.5 9 h 0.5 0.5 V 9.5 10 h -0.5 -0.5 v 0.5 0.5 h -0.5 -0.5 V 10.5 10 h -0.5 -0.5 v 0.5 0.5 h -0.5 -0.5 z m 1,-1 V 9 h -0.5 -0.5 V 8.5 8 h -0.5 -0.5 V 8.5 9 h 0.5 0.5 V 9.5 10 h 0.5 0.5 z m 2,0 V 9 h -0.5 -0.5 V 9.5 10 h 0.5 0.5 z m -17,0 V 9 h 1 1 V 8.5 8 h 0.5 0.5 V 7.5 7 h 0.5 0.5 V 6.5 6 h 0.5 0.5 V 5.5 5 h 0.5 0.5 V 5.5 6 h -0.5 -0.5 V 6.5 7 h -0.5 -0.5 V 7.5 8 h -0.5 -0.5 V 8.5 9 h -0.5 -0.5 V 9.5 10 h -1 -1 z m 7,-5 V 4 h 1.5 1.5 V 4.5 5 h -1.5 -1.5 z"
       id="path544" /><path
       style="fill:#fefe00;stroke-width:1"
       d="M 33.248633,34.5 V 34 h -1 -1 V 33.5 33 h -1 -1 V 32.5 32 h -1 -1 V 31.5 31 h -1 -1 V 30.5 30 h -1 -1 V 29.5 29 h -1 -1 V 28.5 28 h -1 -1 V 25.5 23 h 0.5 0.5 v -1 -1 h 0.5 0.5 V 20.5 20 h 0.5 0.5 V 19.5 19 h 0.5 0.5 V 18.5 18 h 0.5 0.5 V 17.5 17 h 0.5 0.5 V 16.5 16 h 0.5 0.5 V 15.5 15 h 1 1 V 14.5 14 h 0.5 0.5 V 13.5 13 h 0.5 0.5 V 12.5 12 h 1 1 V 11.5 11 h 0.5 0.5 V 10.5 10 h 0.5 0.5 V 9 8 h 0.5 0.5 V 9.5 11 h 1 1 v 0.5 0.5 h 0.5 0.5 v 0.5 0.5 h 1.5 1.5 v 0.5 0.5 h 1.5 1.5 v 0.5 0.5 h 0.5 0.5 v 0.5 0.5 h 1.5 1.5 v 0.5 0.5 h -1 -1 v 0.5 0.5 h -0.5 -0.5 v 0.5 0.5 h -0.5 -0.5 v 0.5 0.5 h -0.5 -0.5 v 0.5 0.5 h -0.5 -0.5 v 0.5 0.5 h -0.5 -0.5 v 0.5 0.5 h -0.5 -0.5 v 0.5 0.5 h -0.5 -0.5 v 0.5 0.5 h -0.5 -0.5 v 0.5 0.5 h -0.5 -0.5 v 0.5 0.5 h -0.5 -0.5 v 0.5 0.5 h -0.5 -0.5 v 0.5 0.5 h -1.5 -1.5 v 0.5 0.5 h 1 1 v 2.5 2.5 h -0.5 -0.5 z m -1,-6 V 28 h -1 -1 V 27.5 27 h -1 -1 V 26.5 26 h -1 -1 V 25.5 25 h -1 -1 V 24.5 24 h -1 -1 V 23.5 23 h -1 -1 v 0.5 0.5 h 1 1 v 0.5 0.5 h 1 1 v 0.5 0.5 h 1 1 v 0.5 0.5 h 1 1 v 0.5 0.5 h 1 1 v 0.5 0.5 h 1 1 z m 2,-3 V 25 h 0.5 0.5 V 24.5 24 h 0.5 0.5 V 23.5 23 h 0.5 0.5 V 22.5 22 h 0.5 0.5 V 21.5 21 h 0.5 0.5 V 20.5 20 h 0.5 0.5 V 19.5 19 h 0.5 0.5 V 17.5 16 h -0.5 -0.5 v 0.5 0.5 h -0.5 -0.5 v 0.5 0.5 h -0.5 -0.5 v 0.5 0.5 h -0.5 -0.5 v 0.5 0.5 h -0.5 -0.5 v 0.5 0.5 h -0.5 -0.5 v 0.5 0.5 h -0.5 -0.5 v 0.5 0.5 h -0.5 -0.5 v 0.5 0.5 h -0.5 -0.5 v 0.5 0.5 h -0.5 -0.5 v 0.5 0.5 h 1.5 1.5 z m -3,-2 V 23 h 0.5 0.5 V 22.5 22 h 0.5 0.5 V 21.5 21 h 0.5 0.5 V 20.5 20 h 0.5 0.5 V 19.5 19 h 0.5 0.5 V 18.5 18 h 0.5 0.5 V 17.5 17 h 0.5 0.5 V 15.5 14 h -0.5 -0.5 v 0.5 0.5 h -0.5 -0.5 v 0.5 0.5 h -0.5 -0.5 v 0.5 0.5 h -0.5 -0.5 v 0.5 0.5 h -0.5 -0.5 v 0.5 0.5 h -0.5 -0.5 v 0.5 0.5 h -0.5 -0.5 v 0.5 0.5 h -0.5 -0.5 v 0.5 0.5 h -0.5 -0.5 v 0.5 0.5 h -0.5 -0.5 v 0.5 0.5 h 1.5 1.5 z m -4,-1 V 22 h 0.5 0.5 V 21.5 21 h 0.5 0.5 V 20.5 20 h 0.5 0.5 V 19.5 19 h 0.5 0.5 V 18.5 18 h 0.5 0.5 V 17.5 17 h 0.5 0.5 V 16.5 16 h 0.5 0.5 V 15.5 15 h 0.5 0.5 v -1 -1 h -0.5 -0.5 v 0.5 0.5 h -1 -1 v 0.5 0.5 h -0.5 -0.5 v 0.5 0.5 h -0.5 -0.5 v 0.5 0.5 h -0.5 -0.5 v 0.5 0.5 h -0.5 -0.5 v 0.5 0.5 h -0.5 -0.5 v 0.5 0.5 h -0.5 -0.5 v 0.5 0.5 h -0.5 -0.5 v 0.5 0.5 h -0.5 -0.5 v 0.5 0.5 h 1.5 1.5 z m 25,3 V 25 h -0.5 -0.5 v -1 -1 h 0.5 0.5 v -1 -1 h -0.5 -0.5 V 18.5 16 h -0.5 -0.5 v -1 -1 h -0.5 -0.5 V 13.5 13 h -0.5 -0.5 V 12.5 12 h -0.5 -0.5 V 11.5 11 h -0.5 -0.5 V 10.5 10 h 0.5 0.5 v 0.5 0.5 h 0.5 0.5 v 0.5 0.5 h 0.5 0.5 v 0.5 0.5 h 0.5 0.5 v 0.5 0.5 h 0.5 0.5 v 1 1 h 0.5 0.5 v 0.5 0.5 h 0.5 0.5 v 3 3 h -0.5 -0.5 v 0.5 0.5 h 0.5 0.5 v 1 1 h -0.5 -0.5 z m 3,-9 V 16 h -0.5 -0.5 V 15.5 15 h -0.5 -0.5 V 14.5 14 h -0.5 -0.5 V 13.5 13 h -0.5 -0.5 V 12.5 12 h -0.5 -0.5 V 11.5 11 h -0.5 -0.5 V 10.5 10 h -0.5 -0.5 V 9.5 9 h -1 -1 V 8.5 8 h -1 -1 V 8.5 9 h 0.5 0.5 V 9.5 10 h -0.5 -0.5 V 9.5 9 h -1 -1 V 8.5 8 h -1 -1 V 7.5 7 h -1.5 -1.5 V 6.5 6 h -0.5 -0.5 V 5.5 5 h -0.5 -0.5 V 4.5 4 h 1 1 V 3.5 3 h -2 -2 V 3.5 4 h -0.5 -0.5 V 4.5 5 h -1 -1 V 5.5 6 h -0.5 -0.5 V 6.5 7 h -0.5 -0.5 V 7.5 8 h -0.5 -0.5 V 8.5 9 h -1.5 -1.5 V 8 7 h 0.5 0.5 V 6 5 h 0.5 0.5 V 4.5 4 h 0.5 0.5 V 3.5 3 h 1 1 V 2.5 2 h 4.5 4.5 V 2.5 3 h 2 2 V 3.5 4 h 1 1 V 4.5 5 h 1 1 V 5.5 6 h 1 1 V 6.5 7 h 1 1 V 7.5 8 h 0.5 0.5 V 8.5 9 h 1 1 V 9.5 10 h 0.5 0.5 v 0.5 0.5 h 0.5 0.5 v 0.5 0.5 h 0.5 0.5 v 0.5 0.5 h 0.5 0.5 v 0.5 0.5 h 0.5 0.5 v 1.5 1.5 h -1.5 -1.5 z m -11,-9 V 7 h -0.5 -0.5 V 6.5 6 h -1 -1 V 5.5 5 h -1 -1 V 4.5 4 h -1 -1 V 4.5 5 h 0.5 0.5 V 5.5 6 h 1 1 V 6.5 7 h 1 1 V 7.5 8 h 1 1 z m -20,4 V 10 h 0.5 0.5 v 1.5 1.5 h -0.5 -0.5 z"
       id="path542" /><path
       style="fill:#7f7f7f;stroke-width:1"
       d="M 34.248633,46.5 V 46 h -1 -1 V 45.5 45 h -1 -1 V 44.5 44 h -1 -1 V 43.5 43 h -1 -1 V 42.5 42 h -1 -1 V 41.5 41 h -1 -1 V 40.5 40 h -1 -1 V 39.5 39 h -1 -1 V 38.5 38 h -1 -1 V 37.5 37 h -1.5 -1.5 V 33.5 30 h 0.5 0.5 V 29.5 29 h 1 1 V 28.5 28 h 0.5 0.5 v 0.5 0.5 h -0.5 -0.5 v 0.5 0.5 h -1 -1 v 3 3 h 1 1 v 0.5 0.5 h 1 1 v 0.5 0.5 h 1 1 v 0.5 0.5 h 1 1 v 0.5 0.5 h 1 1 v 0.5 0.5 h 1 1 v 0.5 0.5 h 1 1 v 0.5 0.5 h 1 1 v 0.5 0.5 h 1 1 v 0.5 0.5 h 1 1 v 0.5 0.5 h 1 1 v -3 -3 h 0.5 0.5 V 39.5 39 h -0.5 -0.5 V 38.5 38 h 0.5 0.5 V 37.5 37 h 1 1 V 36.5 36 h 1 1 V 35.5 35 h 1 1 V 34.5 34 h 1 1 V 33.5 33 h 1 1 V 32.5 32 h 1 1 V 31.5 31 h 1 1 V 30.5 30 h 1 1 V 29.5 29 h 1 1 V 28.5 28 h 1 1 V 27.5 27 h 1 1 v 0.5 0.5 h 0.5 0.5 v 3.5 3.5 h -0.5 -0.5 v 0.5 0.5 h -1 -1 v 0.5 0.5 h -1 -1 v 0.5 0.5 h -1 -1 v 0.5 0.5 h -1 -1 v 0.5 0.5 h -1 -1 v 0.5 0.5 h -1 -1 v 0.5 0.5 h -1 -1 v 0.5 0.5 h -1 -1 v 0.5 0.5 h -1 -1 v 0.5 0.5 h -1 -1 v 0.5 0.5 h -1 -1 v 0.5 0.5 h -1.5 -1.5 z m 5,-8 V 38 h 1 1 V 37.5 37 h 1 1 V 36.5 36 h 1 1 V 35.5 35 h 1 1 V 34.5 34 h 1 1 V 33.5 33 h 1 1 V 32.5 32 h 1 1 V 31.5 31 h 1 1 V 30.5 30 h 1 1 V 29.5 29 h 1 1 V 28.5 28 h -1 -1 v 0.5 0.5 h -1 -1 v 0.5 0.5 h -1 -1 v 0.5 0.5 h -1 -1 v 0.5 0.5 h -1 -1 v 0.5 0.5 h -1 -1 v 0.5 0.5 h -1 -1 v 0.5 0.5 h -1 -1 v 0.5 0.5 h -1 -1 v 0.5 0.5 h -1 -1 v 0.5 0.5 h -1 -1 v 0.5 0.5 h 1 1 z m 4,-17 V 21 h 0.5 0.5 v 0.5 0.5 h -0.5 -0.5 z m 1,-10 V 11 h 0.5 0.5 v 0.5 0.5 h -0.5 -0.5 z m -9,-6 V 5 h 0.5 0.5 V 5.5 6 h -0.5 -0.5 z"
       id="path540" /><path
       style="fill:#fe0000;stroke-width:1"
       d="m 31.248633,40 v -1 h 0.5 0.5 v 1 1 h -0.5 -0.5 z m -3,-1 v -1 h 0.5 0.5 v 1 1 h -0.5 -0.5 z m -3,-2 v -1 h 0.5 0.5 v 1 1 h -0.5 -0.5 z m -3,-1 v -1 h 0.5 0.5 v 1 1 h -0.5 -0.5 z m -3,-2 v -1 h 0.5 0.5 v 1 1 h -0.5 -0.5 z"
       id="path538" /><path
       style="fill:#7f7f00;stroke-width:1"
       d="M 35.248633,36.5 V 36 h -0.5 -0.5 v -3 -3 h 0.5 0.5 V 29.5 29 h 0.5 0.5 V 28.5 28 h 0.5 0.5 V 27.5 27 h 0.5 0.5 V 26.5 26 h 0.5 0.5 V 25.5 25 h 0.5 0.5 V 24.5 24 h 0.5 0.5 V 23.5 23 h 0.5 0.5 V 22.5 22 h 1 1 v -1 -1 h 0.5 0.5 V 19.5 19 h 0.5 0.5 V 18.5 18 h 1 1 V 17.5 17 h 0.5 0.5 v 4 4 h 0.5 0.5 V 20.5 16 h 0.5 0.5 v 2.5 2.5 h 0.5 0.5 v 1 1 h 1.5 1.5 V 20.5 18 h 1.5 1.5 V 17.5 17 h 0.5 0.5 V 16.5 16 h 0.5 0.5 v 3 3 h -1 -1 v 0.5 0.5 h 1 1 v 1 1 h -0.5 -0.5 v 0.5 0.5 h -1 -1 v 0.5 0.5 h -2.5 -2.5 v 0.5 0.5 h 0.5 0.5 v 0.5 0.5 h -1 -1 v 0.5 0.5 h -1 -1 v 0.5 0.5 h -1 -1 v 0.5 0.5 h -1 -1 v 0.5 0.5 h -1 -1 v 0.5 0.5 h -1 -1 v 0.5 0.5 h -1 -1 v 0.5 0.5 h -1 -1 v 0.5 0.5 h -1 -1 z m 17,-10 V 26 h 1.5 1.5 v -1 -1 h 1.5 1.5 V 23.5 23 h -1.5 -1.5 v 0.5 0.5 h -1.5 -1.5 V 23.5 23 h -0.5 -0.5 v 1 1 h -0.5 -0.5 v 0.5 0.5 h 0.5 0.5 v 0.5 0.5 h 0.5 0.5 z m -1,-1 V 25 h 0.5 0.5 v 0.5 0.5 h -0.5 -0.5 z m -34,-0.5 v -3 h 0.5 0.5 V 21.5 21 h 0.5 0.5 V 20.5 20 h 0.5 0.5 V 19.5 19 h 0.5 0.5 V 18.5 18 h 0.5 0.5 V 17.5 17 h 0.5 0.5 V 16.5 16 h 0.5 0.5 V 15.5 15 h 0.5 0.5 V 14.5 14 h -0.5 -0.5 V 13.5 13 h -0.5 -0.5 V 12.5 12 h -0.5 -0.5 V 9.5 7 h 0.5 0.5 V 6 5 h 0.5 0.5 V 4.5 4 h 0.5 0.5 V 3.5 3 h 0.5 0.5 V 2.5 2 h 0.5 0.5 V 1.5 1 h 1 1 V 0.5 0 h 4.5 4.5 V 0.5 1 h 2 2 V 1.5 2 h 1 1 V 2.5 3 h 1 1 V 3.5 4 h 1 1 V 4.5 5 h 1 1 V 5.5 6 h 0.5 0.5 V 6.5 7 h 0.5 0.5 V 7.5 8 h 1 1 V 8.5 9 h 0.5 0.5 V 9.5 10 h 0.5 0.5 v 0.5 0.5 h 0.5 0.5 v 0.5 0.5 h 0.5 0.5 v 0.5 0.5 h 0.5 0.5 v 0.5 0.5 h 0.5 0.5 v 0.5 0.5 h -0.5 -0.5 V 14.5 14 h -0.5 -0.5 V 13.5 13 h -0.5 -0.5 V 12.5 12 h -0.5 -0.5 V 11.5 11 h -0.5 -0.5 V 10.5 10 h -0.5 -0.5 V 9.5 9 h -1 -1 V 8.5 8 h -0.5 -0.5 V 7.5 7 h -0.5 -0.5 V 6.5 6 h -1 -1 V 5.5 5 h -1 -1 V 4.5 4 h -1 -1 V 3.5 3 h -1 -1 V 2.5 2 h -2 -2 V 1.5 1 h -4.5 -4.5 V 1.5 2 h -1 -1 V 2.5 3 h -0.5 -0.5 V 3.5 4 h -0.5 -0.5 V 4.5 5 h -0.5 -0.5 v 1 1 h -0.5 -0.5 V 7.5 8 h 0.5 0.5 V 8.5 9 h 0.5 0.5 V 9.5 10 h 0.5 0.5 v 0.5 0.5 h 1 1 V 10.5 10 h -0.5 -0.5 V 9.5 9 h 0.5 0.5 V 8.5 8 h 0.5 0.5 V 7.5 7 h 0.5 0.5 V 6.5 6 h 0.5 0.5 V 5.5 5 h 1.5 1.5 V 5.5 6 h -1 -1 V 7.5 9 h -0.5 -0.5 V 9.5 10 h -0.5 -0.5 v 0.5 0.5 h -1 -1 v 0.5 0.5 h -0.5 -0.5 v 0.5 0.5 h 0.5 0.5 v 0.5 0.5 h -0.5 -0.5 v 0.5 0.5 h -1 -1 v 0.5 0.5 h -0.5 -0.5 v 0.5 0.5 h -0.5 -0.5 v 0.5 0.5 h -0.5 -0.5 v 0.5 0.5 h -0.5 -0.5 v 0.5 0.5 h -0.5 -0.5 v 0.5 0.5 h -0.5 -0.5 v 0.5 0.5 h -0.5 -0.5 v 3 3 h -0.5 -0.5 z m 9,-12.5 V 11 h -0.5 -0.5 V 10.5 10 h -0.5 -0.5 V 9.5 9 h -0.5 -0.5 v 1.5 1.5 h 0.5 0.5 v 0.5 0.5 h 0.5 0.5 v 0.5 0.5 h 0.5 0.5 z m 6,12 V 24 h 1 1 v 0.5 0.5 h -1 -1 z m -3,-2 V 22 h 1 1 v 0.5 0.5 h -1 -1 z m 5,0 V 22 h 1 1 v 0.5 0.5 h -1 -1 z m -9,-1 V 21 h 1 1 v 0.5 0.5 h -1 -1 z m 6,-1 V 20 h 1 1 v 0.5 0.5 h -1 -1 z m 5,0 V 20 h 1 1 v 0.5 0.5 h -1 -1 z m -9,-1 V 19 h 1 1 v 0.5 0.5 h -1 -1 z m 6,-1 V 18 h 1 1 v 0.5 0.5 h -1 -1 z m 5,0 V 18 h 1 1 v 0.5 0.5 h -1 -1 z m -9,-1 V 17 h 1 1 v 0.5 0.5 h -1 -1 z m 6,-1 V 16 h 1 1 v 0.5 0.5 h -1 -1 z m 5,0 V 16 h 0.5 0.5 v 0.5 0.5 h -0.5 -0.5 z m -9,-1 V 15 h 1 1 v 0.5 0.5 h -1 -1 z m 14,-2 V 11 h 0.5 0.5 v 2 2 h 0.5 0.5 v 0.5 0.5 h -1 -1 z m -8,1 V 14 h 0.5 0.5 v 0.5 0.5 h -0.5 -0.5 z m 12,0 V 14 h -0.5 -0.5 V 13.5 13 h -0.5 -0.5 V 12.5 12 h 0.5 0.5 v 0.5 0.5 h 0.5 0.5 v 0.5 0.5 h 0.5 0.5 v 0.5 0.5 h -0.5 -0.5 z m -7,-2 V 12 h -1 -1 v -1 -1 h -0.5 -0.5 v 0.5 0.5 h -0.5 -0.5 V 10.5 10 h -0.5 -0.5 V 9.5 9 h 0.5 0.5 V 8.5 8 h -1 -1 V 7 6 h 0.5 0.5 V 6.5 7 h 0.5 0.5 V 7.5 8 h 0.5 0.5 V 8.5 9 h 0.5 0.5 V 9.5 10 h 0.5 0.5 V 9.5 9 h 0.5 0.5 V 9.5 10 h 0.5 0.5 V 9.5 9 h 0.5 0.5 V 9.5 10 h -0.5 -0.5 v 0.5 0.5 h -0.5 -0.5 v 0.5 0.5 h 0.5 0.5 v 0.5 0.5 h -0.5 -0.5 z m 0,-2 V 10 h -0.5 -0.5 v 0.5 0.5 h 0.5 0.5 z m -3,-1 V 9 h -0.5 -0.5 V 9.5 10 h 0.5 0.5 z"
       id="path536" /><path
       style="fill:#7f0000;stroke-width:1"
       d="M 31.248633,41.5 V 41 h 0.5 0.5 v -1 -1 h 0.5 0.5 v 1.5 1.5 h -1 -1 z m -3,-1 V 40 h 0.5 0.5 v -1 -1 h 0.5 0.5 v 1.5 1.5 h -1 -1 z m -3,-2 V 38 h 0.5 0.5 v -1 -1 h 0.5 0.5 v 1.5 1.5 h -1 -1 z m -3,-1 V 37 h 0.5 0.5 v -1 -1 h 0.5 0.5 v 1.5 1.5 h -1 -1 z m -3,-2 V 35 h 0.5 0.5 v -1 -1 h 0.5 0.5 v 1.5 1.5 h -1 -1 z"
       id="path534" /><path
       style="fill:#000000;stroke-width:1"
       d="M 34.248633,47.5 V 47 h -1 -1 V 46.5 46 h -1 -1 V 45.5 45 h -1 -1 V 44.5 44 h -1 -1 V 43.5 43 h -1 -1 V 42.5 42 h -1 -1 V 41.5 41 h -1 -1 V 40.5 40 h -1 -1 V 39.5 39 h -1 -1 V 38.5 38 h -1 -1 V 37.5 37 h 1 1 v 0.5 0.5 h 1 1 v 0.5 0.5 h 1 1 v 0.5 0.5 h 1 1 v 0.5 0.5 h 1 1 v 0.5 0.5 h 1 1 v 0.5 0.5 h 1 1 v 0.5 0.5 h 1 1 v 0.5 0.5 h 1 1 v 0.5 0.5 h 1 1 v 0.5 0.5 h 1.5 1.5 V 46.5 46 h 1 1 V 45.5 45 h 1 1 V 44.5 44 h 1 1 V 43.5 43 h 1 1 V 42.5 42 h 1 1 V 41.5 41 h 1 1 V 40.5 40 h 1 1 V 39.5 39 h 1 1 V 38.5 38 h 1 1 V 37.5 37 h 1 1 V 36.5 36 h 1 1 V 35.5 35 h 0.5 0.5 V 31.5 28 h -0.5 -0.5 V 27.5 27 h -1 -1 v 0.5 0.5 h -1 -1 v 0.5 0.5 h -1 -1 v 0.5 0.5 h -1 -1 v 0.5 0.5 h -1 -1 v 0.5 0.5 h -1 -1 v 0.5 0.5 h -1 -1 v 0.5 0.5 h -1 -1 v 0.5 0.5 h -1 -1 v 0.5 0.5 h -1 -1 v 0.5 0.5 h -1 -1 v 0.5 0.5 h -1 -1 V 37.5 37 h -1 -1 V 36.5 36 h -1 -1 V 35.5 35 h -1 -1 V 34.5 34 h -1 -1 V 33.5 33 h -1 -1 V 32.5 32 h -1 -1 V 31.5 31 h -1 -1 V 30.5 30 h -1 -1 V 29.5 29 h -1 -1 V 28.5 28 h 1 1 v 0.5 0.5 h 1 1 v 0.5 0.5 h 1 1 v 0.5 0.5 h 1 1 v 0.5 0.5 h 1 1 v 0.5 0.5 h 1 1 v 0.5 0.5 h 1 1 v 0.5 0.5 h 1 1 v 0.5 0.5 h 1 1 v 0.5 0.5 h 1 1 V 36.5 36 h 1 1 V 35.5 35 h 1 1 V 34.5 34 h 1 1 V 33.5 33 h 1 1 V 32.5 32 h 1 1 V 31.5 31 h 1 1 V 30.5 30 h 1 1 V 29.5 29 h 1 1 V 28.5 28 h -0.5 -0.5 V 27.5 27 h -0.5 -0.5 V 26.5 26 h -0.5 -0.5 V 25.5 25 h -0.5 -0.5 V 20.5 16 h -1 -1 V 15.5 15 h -0.5 -0.5 v -2 -2 h -1.5 -1.5 v 0.5 0.5 h -0.5 -0.5 v 0.5 0.5 h -1 -1 V 12.5 12 h -1 -1 V 11.5 11 h -1 -1 V 9.5 8 h -0.5 -0.5 V 7.5 7 h -1 -1 v 1 1 h -0.5 -0.5 V 9.5 10 h -0.5 -0.5 v 0.5 0.5 h -0.5 -0.5 v 0.5 0.5 h -1 -1 v 0.5 0.5 h -0.5 -0.5 V 12.5 12 h 0.5 0.5 V 11.5 11 h -1 -1 V 10.5 10 h 1 1 v 0.5 0.5 h 1 1 V 10.5 10 h 0.5 0.5 V 9.5 9 h 0.5 0.5 V 7.5 6 h 1 1 V 5.5 5 h 0.5 0.5 V 5.5 6 h 0.5 0.5 v 1 1 h 0.5 0.5 v 1 1 h 0.5 0.5 v 0.5 0.5 h 1 1 v 0.5 0.5 h 1 1 V 11.5 11 h 0.5 0.5 V 10.5 10 h 1.5 1.5 v 0.5 0.5 h 0.5 0.5 v 1 1 h 0.5 0.5 v 0.5 0.5 h 0.5 0.5 v 0.5 0.5 h 0.5 0.5 v 5 5 h 0.5 0.5 v 0.5 0.5 h 0.5 0.5 v 0.5 0.5 h 2.5 2.5 V 26.5 26 h 1 1 V 25.5 25 h 0.5 0.5 v -1 -1 h -1 -1 v 0.5 0.5 h -1.5 -1.5 V 23.5 23 h 1.5 1.5 V 22.5 22 h 1 1 V 18.5 15 h 0.5 0.5 v 5 5 h -0.5 -0.5 v 1.5 1.5 h 0.5 0.5 v 4 4 h -1 -1 v 0.5 0.5 h -1 -1 v 0.5 0.5 h -1 -1 v 0.5 0.5 h -1 -1 v 0.5 0.5 h -1 -1 v 0.5 0.5 h -1 -1 v 0.5 0.5 h -1 -1 v 0.5 0.5 h -1 -1 v 0.5 0.5 h -1 -1 v 0.5 0.5 h -1 -1 v 0.5 0.5 h -1 -1 v 0.5 0.5 h -1 -1 v 0.5 0.5 h -1.5 -1.5 z m -1,-22 V 25 h 0.5 0.5 V 24.5 24 h 0.5 0.5 V 23.5 23 h 0.5 0.5 V 22.5 22 h 0.5 0.5 V 21.5 21 h 0.5 0.5 V 20.5 20 h 0.5 0.5 V 19.5 19 h 0.5 0.5 V 18.5 18 h 0.5 0.5 v 0.5 0.5 h -0.5 -0.5 v 0.5 0.5 h -0.5 -0.5 v 0.5 0.5 h -0.5 -0.5 v 0.5 0.5 h -0.5 -0.5 v 0.5 0.5 h -0.5 -0.5 v 0.5 0.5 h -0.5 -0.5 v 0.5 0.5 h -0.5 -0.5 v 0.5 0.5 h -0.5 -0.5 z m -3,-2 V 23 h 0.5 0.5 V 22.5 22 h 0.5 0.5 V 21.5 21 h 0.5 0.5 V 20.5 20 h 0.5 0.5 V 19.5 19 h 0.5 0.5 V 18.5 18 h 0.5 0.5 V 17.5 17 h 0.5 0.5 V 16.5 16 h 0.5 0.5 v 0.5 0.5 h -0.5 -0.5 v 0.5 0.5 h -0.5 -0.5 v 0.5 0.5 h -0.5 -0.5 v 0.5 0.5 h -0.5 -0.5 v 0.5 0.5 h -0.5 -0.5 v 0.5 0.5 h -0.5 -0.5 v 0.5 0.5 h -0.5 -0.5 v 0.5 0.5 h -0.5 -0.5 z m -4,-1 V 22 h 0.5 0.5 V 21.5 21 h 0.5 0.5 V 20.5 20 h 0.5 0.5 V 19.5 19 h 0.5 0.5 V 18.5 18 h 0.5 0.5 V 17.5 17 h 0.5 0.5 V 16.5 16 h 0.5 0.5 V 15.5 15 h 0.5 0.5 V 14.5 14 h 0.5 0.5 v 0.5 0.5 h -0.5 -0.5 v 0.5 0.5 h -0.5 -0.5 v 0.5 0.5 h -0.5 -0.5 v 0.5 0.5 h -0.5 -0.5 v 0.5 0.5 h -0.5 -0.5 v 0.5 0.5 h -0.5 -0.5 v 0.5 0.5 h -0.5 -0.5 v 0.5 0.5 h -0.5 -0.5 v 0.5 0.5 h -0.5 -0.5 z"
       id="path532" /></g></svg>
