<?xml version="1.0" encoding="UTF-8" standalone="no"?>
<svg
   id="svg3"
   version="1.1"
   height="48"
   width="48"
   sodipodi:docname="gnome-dev-wavelan.svg"
   xml:space="preserve"
   inkscape:version="1.2.2 (b0a8486541, 2022-12-01)"
   xmlns:inkscape="http://www.inkscape.org/namespaces/inkscape"
   xmlns:sodipodi="http://sodipodi.sourceforge.net/DTD/sodipodi-0.dtd"
   xmlns="http://www.w3.org/2000/svg"
   xmlns:svg="http://www.w3.org/2000/svg"
   xmlns:rdf="http://www.w3.org/1999/02/22-rdf-syntax-ns#"
   xmlns:cc="http://creativecommons.org/ns#"
   xmlns:dc="http://purl.org/dc/elements/1.1/"><sodipodi:namedview
     id="namedview6"
     pagecolor="#ffffff"
     bordercolor="#000000"
     borderopacity="0.25"
     inkscape:showpageshadow="2"
     inkscape:pageopacity="0.0"
     inkscape:pagecheckerboard="0"
     inkscape:deskcolor="#d1d1d1"
     showgrid="false"
     inkscape:zoom="15.4375"
     inkscape:cx="16.647773"
     inkscape:cy="11.012146"
     inkscape:window-width="1920"
     inkscape:window-height="1008"
     inkscape:window-x="0"
     inkscape:window-y="0"
     inkscape:window-maximized="1"
     inkscape:current-layer="g347" /><metadata
     id="metadata9"><rdf:RDF><cc:Work
         rdf:about=""><dc:format>image/svg+xml</dc:format><dc:type
           rdf:resource="http://purl.org/dc/dcmitype/StillImage" /></cc:Work></rdf:RDF></metadata><defs
     id="defs7" /><g
     id="g347"
     transform="matrix(0.1,0,0,0.1,24.897768,22.158659)"
     style="stroke-width:10"><path
       style="fill:#ffffff;stroke-width:10;opacity:0"
       d="m -248.97768,18.41341 v -240 h 240 240 v 240 240 h -75 -75 v -5 -5 h 15 15 v -5 -5 h 10 10 v -5 -5 h 5 5 v -10 -10 h -5 -5 v -5 -5 h -10 -10 v -5 -5 h -15 -15 v -5 -5 h -10 -10 v -15 -15 h 10 10 v -5 -5 h 10 10 v -5 -5 h 10 10 v -5 -5 h 5 5 v -5 -5 h 5 5 v -5 -5 h 5 5 v -5 -5 h 5 5 v -10 -10 h 5 5 v -10 -10 h 5 5 v -15 -15 h 5 5 v -20 -20 h 5 5 v -50 -50 h -5 -5 v -15 -15 h -5 -5 v -10 -10 h -5 -5 v -5 -5 h -5 -5 v -5 -5 h -10 -10 v -5 -5 h -10 -10 v -5 -5 h -60 -60 v 5 5 h -15 -15 v 5 5 h -10 -10 v 5 5 h -10 -10 v 5 5 h -5 -5 v 5 5 h -10 -10 v 5 5 h -5 -5 v 5 5 h -5 -5 v 5 5 h -5 -5 v -10 -10 h -5 -5 v -5 -5 h -5 -5 v -5 -5 h -15 -15 v 15 15 h 5 5 v 5 5 h 5 5 v 5 5 h 10 10 v 5 5 h -5 -5 v 5 5 h -5 -5 v 10 10 h -5 -5 v 10 10 h -5 -5 v 10 10 h -5 -5 v 15 15 h -5 -5 v 35 35 h 5 5 v 10 10 h 5 5 v 10 10 h 5 5 v 5 5 h 5 5 v 5 5 h 5 5 v 5 5 h 5 5 v 5 5 h 10 10 v 5 5 h 15 15 v 5 5 h 45 45 v 10 10 h -10 -10 v 5 5 h -15 -15 v 5 5 h -10 -10 v 5 5 h -5 -5 v 10 10 h 5 5 v 5 5 h 10 10 v 5 5 h 15 15 v 5 5 h -115 -115 z"
       id="path365" /><path
       style="fill:#fefefe;stroke-width:10"
       d="m -38.97768,233.41341 v -5 h -10 -10 v -10 -10 h 15 15 v -5 -5 h 15 15 v -5 -5 h 5 5 v -5 -5 h 10 10 v 5 5 h -5 -5 v 5 5 h -5 -5 v 5 5 h -15 -15 v 5 5 h 5 5 v 5 5 h 20 20 v 5 5 h -35 -35 z m -70,-110 v -5 h -15 -15 v -5 -5 h -5 -5 v -5 -5 h -5 -5 v -5 -5 h -5 -5 v -10 -10 h -5 -5 v -10 -10 h -5 -5 v -30 -30 h 5 5 v -15 -15 h 5 5 v -10 -10 h 5 5 v -10 -10 h 5 5 v -10 -10 h 5 5 v -5 -5 h 5 5 v 5 5 h -5 -5 v 10 10 h -5 -5 v 10 10 h -5 -5 v 10 10 h -5 -5 v 15 15 h -5 -5 v 30 30 h 5 5 v 10 10 h 5 5 v 10 10 h 5 5 v 5 5 h 10 10 v 5 5 h 15 15 v 5 5 h 40 40 v -5 -5 h 20 20 v -5 -5 h 5 5 v -5 -5 h 10 10 v -5 -5 h 10 10 v -5 -5 h -10 -10 v -5 -5 h 10 10 v -5 -5 h 5 5 v -5 -5 h 5 5 v -5 -5 h 5 5 v -5 -5 h 5 5 v -10 -10 h 5 5 v -5 -5 h 5 5 v 5 5 h 5 5 v -10 -10 h 5 5 v -15 -15 h 5 5 v -20 -20 h -5 -5 v 5 5 h -5 -5 v 5 5 h 5 5 v 5 5 h -5 -5 v 5 5 h -5 -5 v -5 -5 h 5 5 v -5 -5 h -5 -5 v -5 -5 h -5 -5 v -5 -5 h 5 5 v -5 -5 h -5 -5 v -5 -5 h -5 -5 v -5 -5 h -5 -5 v -5 -5 h -5 -5 v -5 -5 h -5 -5 v -5 -5 h 5 5 v -5 -5 h 5 5 v -5 -5 h 5 5 v -5 -5 h -5 -5 v -5 -5 h -45 -45 v 5 5 h -20 -20 v 5 5 h -10 -10 v 5 5 h -5 -5 v 5 5 h -10 -10 v 5 5 h -5 -5 v 5 5 h -10 -10 v 5 5 h -5 -5 v -5 -5 h 5 5 v -5 -5 h 5 5 v -5 -5 h 10 10 v -5 -5 h 5 5 v -5 -5 h 10 10 v -5 -5 h 10 10 v -5 -5 h 15 15 v -5 -5 h 60 60 v 5 5 h 5 5 v 5 5 h 5 5 v 5 5 h 5 5 v 5 5 h 5 5 v 5 5 h 5 5 v 55 55 h -5 -5 v 15 15 h -5 -5 v 10 10 h -5 -5 v 10 10 h -5 -5 v 5 5 h -5 -5 v 5 5 h -5 -5 v 5 5 h -5 -5 v 5 5 h -5 -5 v 5 5 h -5 -5 v 5 5 h -10 -10 v 5 5 h -10 -10 v 5 5 h -10 -10 v 5 5 h -20 -20 v 5 5 h -45 -45 z m 190,-60 v -5 h 5 5 v -5 -5 h 5 5 v -5 -5 h 5 5 v -5 -5 h 5 5 v -5 -5 h 5 5 v -10 -10 h -5 -5 v 10 10 h -5 -5 v 5 5 h -5 -5 v 5 5 h -5 -5 v 5 5 h -5 -5 v 5 5 h -5 -5 v 5 5 h 5 5 z m 60,-150 v -5 h 5 5 v -5 -5 h 5 5 v -5 -5 h -5 -5 v -5 -5 h 5 5 v -5 -5 h -5 -5 v -5 -5 h -5 -5 v -5 -5 h -5 -5 v -5 -5 h -5 -5 v -5 -5 h -5 -5 v 5 5 h -5 -5 v 5 5 h -5 -5 v 5 5 h 5 5 v 5 5 h 5 5 v 5 5 h 5 5 v 5 5 h 5 5 v 5 5 h 5 5 v 5 5 h -5 -5 v 5 5 h 5 5 z m 0,-20 v -5 h -5 -5 v -5 -5 h -5 -5 v -5 -5 h -5 -5 v -5 -5 h -5 -5 v -5 -5 h 5 5 v -5 -5 h 5 5 v 5 5 h 5 5 v 5 5 h 5 5 v 5 5 h 5 5 v 5 5 h -5 -5 v 5 5 h 5 5 v 5 5 h -5 -5 z m 0,-20 v -5 h -5 -5 v -5 -5 h -5 -5 v -5 -5 h -5 -5 v 5 5 h 5 5 v 5 5 h 5 5 v 5 5 h 5 5 z m -10,90 v -5 h 5 5 v 5 5 h -5 -5 z"
       id="path363" /><path
       style="fill:#bfbfbf;stroke-width:10"
       d="m -48.97768,233.41341 v -5 h 5 5 v 5 5 h -5 -5 z m 80,0 v -5 h -20 -20 v -5 -5 h -5 -5 v -5 -5 h 15 15 v -5 -5 h 5 5 v -5 -5 h 5 5 v -5 -5 h -10 -10 v -5 -5 h 15 15 v 5 5 h 5 5 v 5 5 h 5 5 v 5 5 h 5 5 v 5 5 h 10 10 v 10 10 h -15 -15 v 5 5 h -15 -15 z m -100,-15 v -10 h 5 5 v 10 10 h -5 -5 z m 20,-15 v -5 h 10 10 v 5 5 h -10 -10 z m 30,-10 v -5 h 10 10 v 5 5 h -10 -10 z m -100,-70 v -5 h 5 5 v 5 5 h -5 -5 z m 100,0 v -5 h 20 20 v -5 -5 h -10 -10 v -5 -5 h 10 10 v -5 -5 h -5 -5 v -5 -5 h 5 5 v 5 5 h 5 5 v -5 -5 h 10 10 v -5 -5 h 10 10 v -5 -5 h 5 5 v -5 -5 h 5 5 v -5 -5 h 5 5 v -5 -5 h 5 5 v -5 -5 h 5 5 v -10 -10 h -5 -5 v 5 5 h -5 -5 v 5 5 h -5 -5 v 5 5 h -5 -5 v 5 5 h -5 -5 v 5 5 h -5 -5 v -5 -5 h 5 5 v -5 -5 h 5 5 v -5 -5 h 5 5 v -5 -5 h -5 -5 v -5 -5 h 5 5 v -5 -5 h -5 -5 v -5 -5 h 5 5 v -5 -5 h -5 -5 v -5 -5 h -5 -5 v -5 -5 h -5 -5 v -5 -5 h -5 -5 v -5 -5 h -5 -5 v -5 -5 h -5 -5 v 5 5 h -5 -5 v -5 -5 h -5 -5 v 5 5 h -5 -5 v -5 -5 h -5 -5 v 5 5 h -5 -5 v -5 -5 h 5 5 v -5 -5 h 5 5 v 5 5 h 5 5 v -5 -5 h 5 5 v 5 5 h 5 5 v -5 -5 h 5 5 v 5 5 h 5 5 v -5 -5 h 5 5 v -5 -5 h -5 -5 v -5 -5 h 5 5 v 5 5 h 5 5 v -5 -5 h 5 5 v -5 -5 h -5 -5 v -5 -5 h -5 -5 v 5 5 h -5 -5 v -5 -5 h -5 -5 v 5 5 h -5 -5 v -5 -5 h -5 -5 v 5 5 h -5 -5 v -5 -5 h 5 5 v -5 -5 h 5 5 v -5 -5 h 5 5 v -5 -5 h 5 5 v -5 -5 h 5 5 v -5 -5 h 5 5 v -5 -5 h 5 5 v 5 5 h 5 5 v -5 -5 h 5 5 v 5 5 h 5 5 v 5 5 h 5 5 v 5 5 h 5 5 v 5 5 h 5 5 v 5 5 h 5 5 v 5 5 h 5 5 v 5 5 h -5 -5 v 5 5 h 5 5 v 5 5 h -5 -5 v 5 5 h 5 5 v 20 20 h -5 -5 v 15 15 h -5 -5 v 10 10 h -5 -5 v 10 10 h -5 -5 v 5 5 h -5 -5 v 5 5 h -5 -5 v 5 5 h -5 -5 v 5 5 h -5 -5 v 5 5 h -5 -5 v 5 5 h -10 -10 v 5 5 h -10 -10 v 5 5 h -5 -5 v 5 5 h 10 10 v -5 -5 h 10 10 v -5 -5 h 10 10 v -5 -5 h 5 5 v -5 -5 h 5 5 v -5 -5 h 5 5 v -5 -5 h 5 5 v -5 -5 h 5 5 v -5 -5 h 5 5 v -10 -10 h 5 5 v -10 -10 h 5 5 v -15 -15 h 5 5 v -45 -45 h 5 5 v 45 45 h -5 -5 v 15 15 h -5 -5 v 10 10 h -5 -5 v 10 10 h -5 -5 v 5 5 h -5 -5 v 5 5 h -5 -5 v 5 5 h -5 -5 v 5 5 h -5 -5 v 5 5 h -5 -5 v 5 5 h -5 -5 v 5 5 h -10 -10 v 5 5 h -10 -10 v 5 5 h -10 -10 v 5 5 h -20 -20 z m 120,-120 v -5 h 5 5 v -5 -5 h 5 5 v 5 5 h 5 5 v -5 -5 h -5 -5 v -5 -5 h 5 5 v -5 -5 h 5 5 v -5 -5 h -5 -5 v -5 -5 h 5 5 v -5 -5 h 5 5 v -5 -5 h -5 -5 v -5 -5 h 5 5 v -5 -5 h -5 -5 v -5 -5 h 5 5 v -5 -5 h -5 -5 v -5 -5 h 5 5 v -5 -5 h -5 -5 v -5 -5 h -5 -5 v -5 -5 h -5 -5 v -5 -5 h -5 -5 v -5 -5 h -5 -5 v -5 -5 h -5 -5 v 5 5 h -5 -5 v -5 -5 h -5 -5 v 5 5 h -5 -5 v 5 5 h -5 -5 v 5 5 h -5 -5 v 5 5 h -5 -5 v 5 5 h 5 5 v -5 -5 h 5 5 v 5 5 h 5 5 v -5 -5 h 5 5 v 5 5 h 5 5 v 5 5 h 5 5 v 5 5 h -5 -5 v 5 5 h -5 -5 v 5 5 h -5 -5 v 5 5 h -5 -5 v 5 5 h 5 5 v 5 5 h 5 5 v 5 5 h 5 5 v 5 5 h 5 5 v 5 5 h 5 5 v 5 5 h -5 -5 v 5 5 h 5 5 v 5 5 h -5 -5 v 5 5 h 5 5 z m 0,-20 v -5 h 5 5 v -5 -5 h -5 -5 v -5 -5 h -5 -5 v -5 -5 h -5 -5 v -5 -5 h -5 -5 v -5 -5 h -5 -5 v -5 -5 h 5 5 v -5 -5 h 5 5 v -5 -5 h 5 5 v -5 -5 h 5 5 v -5 -5 h -5 -5 v -5 -5 h -5 -5 v -5 -5 h -5 -5 v -5 -5 h -5 -5 v 5 5 h -5 -5 v -5 -5 h 5 5 v -5 -5 h 5 5 v -5 -5 h 5 5 v 5 5 h 5 5 v -5 -5 h 5 5 v 5 5 h 5 5 v 5 5 h 5 5 v 5 5 h 5 5 v 5 5 h 5 5 v 5 5 h -5 -5 v 5 5 h 5 5 v 5 5 h -5 -5 v 5 5 h 5 5 v 5 5 h -5 -5 v 5 5 h 5 5 v 5 5 h -5 -5 v 5 5 h -5 -5 v 5 5 h 5 5 v 5 5 h -5 -5 v 5 5 h -5 -5 v 5 5 h -5 -5 z m 20,-20 v -5 h -5 -5 v -5 -5 h 5 5 v -5 -5 h 5 5 v -5 -5 h -5 -5 v -5 -5 h 5 5 v -5 -5 h -5 -5 v -5 -5 h 5 5 v -5 -5 h -5 -5 v -5 -5 h 5 5 v -5 -5 h -5 -5 v -5 -5 h -5 -5 v -5 -5 h -5 -5 v -5 -5 h -5 -5 v 5 5 h -5 -5 v -5 -5 h -5 -5 v 5 5 h 5 5 v 5 5 h 5 5 v 5 5 h 5 5 v 5 5 h 5 5 v 5 5 h -5 -5 v 5 5 h -5 -5 v 5 5 h -5 -5 v 5 5 h -5 -5 v 5 5 h 5 5 v 5 5 h 5 5 v 5 5 h 5 5 v 5 5 h 5 5 v 5 5 h 5 5 z m -20,-20 v -5 h -5 -5 v -5 -5 h -5 -5 v -5 -5 h 5 5 v -5 -5 h 5 5 v -5 -5 h 5 5 v -5 -5 h 5 5 v 5 5 h -5 -5 v 5 5 h 5 5 v 5 5 h -5 -5 v 5 5 h 5 5 v 5 5 h -5 -5 v 5 5 h -5 -5 z m 10,-10 v -5 h -5 -5 v -5 -5 h 5 5 v -5 -5 h -5 -5 v 5 5 h -5 -5 v 5 5 h 5 5 v 5 5 h 5 5 z m 0,-60 v -5 h -5 -5 v -5 -5 h -5 -5 v -5 -5 h 5 5 v 5 5 h 5 5 v 5 5 h 5 5 v 5 5 h -5 -5 z m -260,240 v -5 h -5 -5 v -5 -5 h -5 -5 v -5 -5 h 5 5 v -5 -5 h 5 5 v 5 5 h 5 5 v 5 5 h -5 -5 v 5 5 h 5 5 v 5 5 h -5 -5 z m 0,-20 v -5 h -5 -5 v 5 5 h 5 5 z m 20,10 v -5 h 5 5 v 5 5 h -5 -5 z m 50,-10 v -5 h -5 -5 v -5 -5 h -5 -5 v -5 -5 h -5 -5 v -5 -5 h -5 -5 v -5 -5 h 5 5 v -5 -5 h -5 -5 v -5 -5 h 5 5 v 5 5 h 5 5 v 5 5 h -5 -5 v 5 5 h 5 5 v 5 5 h 5 5 v 5 5 h 5 5 v 5 5 h 5 5 v -5 -5 h 5 5 v 5 5 h 5 5 v -5 -5 h 5 5 v 5 5 h 5 5 v 5 5 h -5 -5 v -5 -5 h -5 -5 v 5 5 h -5 -5 v -5 -5 h -5 -5 v 5 5 h -5 -5 z m 60,0 v -5 h 5 5 v -5 -5 h 5 5 v 5 5 h -5 -5 v 5 5 h -5 -5 z m -160,-20 v -5 h 5 5 v -5 -5 h 5 5 v 5 5 h -5 -5 v 5 5 h -5 -5 z m -10,-20 v -5 h 5 5 v -30 -30 h 5 5 v 30 30 h -5 -5 v 5 5 h -5 -5 z m 20,-90 v -5 h 5 5 v 5 5 h -5 -5 z m 10,-20 v -5 h 5 5 v 5 5 h -5 -5 z m 10,-20 v -5 h 5 5 v 5 5 h -5 -5 z m 10,-20 v -5 h 5 5 v 5 5 h -5 -5 z m 300,-60 v -5 h -5 -5 v -5 -5 h -5 -5 v -5 -5 h -5 -5 v -5 -5 h 5 5 v 5 5 h 5 5 v 5 5 h 5 5 v 5 5 h 5 5 v 5 5 h -5 -5 z m -150,-30 v -5 h 5 5 v 5 5 h -5 -5 z"
       id="path361" /><path
       style="fill:#00fefe;stroke-width:10"
       d="m -98.97768,113.41341 v -5 h 5 5 v 5 5 h -5 -5 z m 70,0 v -5 h 5 5 v 5 5 h -5 -5 z m 0,-30 v -5 h -5 -5 v -5 -5 h -5 -5 v 5 5 h -5 -5 v -5 -5 h -5 -5 v 5 5 h -5 -5 v -5 -5 h -5 -5 v -5 -5 h -5 -5 v -5 -5 h 5 5 v -5 -5 h -5 -5 v -5 -5 h -5 -5 v -5 -5 h 5 5 v -5 -5 h -5 -5 v -5 -5 h 5 5 v -5 -5 h -5 -5 v -5 -5 h 5 5 v -5 -5 h -5 -5 v -5 -5 h 5 5 v -5 -5 h -5 -5 v -5 -5 h 5 5 v -5 -5 h -5 -5 v -5 -5 h 5 5 v 5 5 h 5 5 v 5 5 h 5 5 v 5 5 h 5 5 v 5 5 h 5 5 v 5 5 h 5 5 v 5 5 h 5 5 v 5 5 h 5 5 v 5 5 h 5 5 v 5 5 h 5 5 v 5 5 h 5 5 v 5 5 h 5 5 v 5 5 h 5 5 v 5 5 h 5 5 v -5 -5 h 5 5 v -5 -5 h -5 -5 v -5 -5 h -5 -5 v -5 -5 h -5 -5 v -5 -5 h -5 -5 v -5 -5 h -5 -5 v -5 -5 h -5 -5 v -5 -5 h -5 -5 v -5 -5 h -5 -5 v -5 -5 h -5 -5 v -5 -5 h -5 -5 v -5 -5 h -5 -5 v -5 -5 h -5 -5 v -5 -5 h -5 -5 v -5 -5 h 5 5 v 5 5 h 5 5 v -5 -5 h 5 5 v 5 5 h 5 5 v -5 -5 h 5 5 v 5 5 h 5 5 v -5 -5 h 5 5 v 5 5 h 5 5 v -5 -5 h 5 5 v 5 5 h 5 5 v -5 -5 h 5 5 v 5 5 h 5 5 v -5 -5 h 5 5 v 5 5 h 5 5 v -5 -5 h 5 5 v -5 -5 h 5 5 v -5 -5 h -5 -5 v -5 -5 h -5 -5 v 5 5 h -5 -5 v -5 -5 h -5 -5 v 5 5 h -5 -5 v -5 -5 h -5 -5 v 5 5 h -5 -5 v -5 -5 h -5 -5 v 5 5 h -5 -5 v -5 -5 h -5 -5 v 5 5 h -5 -5 v -5 -5 h -5 -5 v 5 5 h -5 -5 v -5 -5 h 5 5 v -5 -5 h 5 5 v -5 -5 h 5 5 v -5 -5 h 5 5 v -5 -5 h -5 -5 v -5 -5 h 5 5 v 5 5 h 5 5 v -5 -5 h 5 5 v 5 5 h 5 5 v -5 -5 h 5 5 v -5 -5 h 5 5 v 5 5 h 5 5 v -5 -5 h 5 5 v 5 5 h 5 5 v -5 -5 h 5 5 v 5 5 h 5 5 v -5 -5 h 5 5 v 5 5 h 5 5 v 5 5 h -5 -5 v 5 5 h -5 -5 v 5 5 h -5 -5 v 5 5 h 5 5 v 5 5 h 5 5 v 5 5 h 5 5 v 5 5 h 5 5 v 5 5 h 5 5 v 5 5 h -5 -5 v 5 5 h 5 5 v 5 5 h 5 5 v 5 5 h -5 -5 v 5 5 h 5 5 v 5 5 h -5 -5 v 5 5 h 5 5 v 5 5 h -5 -5 v 5 5 h -5 -5 v 5 5 h -5 -5 v 5 5 h 5 5 v 5 5 h -5 -5 v 5 5 h -5 -5 v 5 5 h -5 -5 v 5 5 h -5 -5 v 5 5 h -5 -5 v -5 -5 h -5 -5 v 5 5 h -5 -5 v 5 5 h 5 5 v 5 5 h -5 -5 v -5 -5 h -5 -5 v 5 5 h -5 -5 v -5 -5 h -5 -5 v 5 5 h -5 -5 v -5 -5 h -5 -5 v 5 5 h -5 -5 v 5 5 h -5 -5 z m 10,-10 v -5 h 5 5 v -5 -5 h 5 5 v 5 5 h 5 5 v -5 -5 h 5 5 v 5 5 h 5 5 v -5 -5 h 5 5 v -5 -5 h 5 5 v -5 -5 h 5 5 v 5 5 h 5 5 v -5 -5 h 5 5 v -5 -5 h 5 5 v -5 -5 h 5 5 v -5 -5 h -5 -5 v -5 -5 h 5 5 v -5 -5 h 5 5 v -5 -5 h 5 5 v -5 -5 h -5 -5 v -5 -5 h 5 5 v -5 -5 h -5 -5 v -5 -5 h 5 5 v -5 -5 h -5 -5 v -5 -5 h -5 -5 v -5 -5 h 5 5 v -5 -5 h -5 -5 v -5 -5 h -5 -5 v -5 -5 h -5 -5 v -5 -5 h -5 -5 v -5 -5 h -5 -5 v -5 -5 h 5 5 v -5 -5 h 5 5 v -5 -5 h 5 5 v -5 -5 h -5 -5 v 5 5 h -5 -5 v -5 -5 h -5 -5 v 5 5 h -5 -5 v -5 -5 h -5 -5 v 5 5 h -5 -5 v -5 -5 h -5 -5 v 5 5 h -5 -5 v 5 5 h -5 -5 v -5 -5 h -5 -5 v 5 5 h -5 -5 v 5 5 h -5 -5 v 5 5 h -5 -5 v 5 5 h 5 5 v -5 -5 h 5 5 v 5 5 h 5 5 v -5 -5 h 5 5 v 5 5 h 5 5 v -5 -5 h 5 5 v 5 5 h 5 5 v -5 -5 h 5 5 v 5 5 h 5 5 v -5 -5 h 5 5 v 5 5 h 5 5 v 5 5 h 5 5 v 5 5 h -5 -5 v 5 5 h -5 -5 v 5 5 h -5 -5 v 5 5 h -5 -5 v -5 -5 h -5 -5 v 5 5 h -5 -5 v -5 -5 h -5 -5 v 5 5 h -5 -5 v -5 -5 h -5 -5 v 5 5 h -5 -5 v -5 -5 h -5 -5 v 5 5 h -5 -5 v -5 -5 h -5 -5 v 5 5 h -5 -5 v -5 -5 h -5 -5 v 5 5 h 5 5 v 5 5 h 5 5 v 5 5 h 5 5 v 5 5 h 5 5 v 5 5 h 5 5 v 5 5 h 5 5 v 5 5 h 5 5 v 5 5 h 5 5 v 5 5 h 5 5 v 5 5 h 5 5 v 5 5 h 5 5 v 5 5 h 5 5 v 5 5 h -5 -5 v 5 5 h -5 -5 v 5 5 h -5 -5 v -5 -5 h -5 -5 v -5 -5 h -5 -5 v -5 -5 h -5 -5 v -5 -5 h -5 -5 v -5 -5 h -5 -5 v -5 -5 h -5 -5 v -5 -5 h -5 -5 v -5 -5 h -5 -5 v -5 -5 h -5 -5 v -5 -5 h -5 -5 v -5 -5 h -5 -5 v -5 -5 h -5 -5 v 5 5 h 5 5 v 5 5 h -5 -5 v 5 5 h 5 5 v 5 5 h -5 -5 v 5 5 h 5 5 v 5 5 h -5 -5 v 5 5 h 5 5 v 5 5 h -5 -5 v 5 5 h 5 5 v 5 5 h 5 5 v 5 5 h -5 -5 v 5 5 h 5 5 v 5 5 h 5 5 v -5 -5 h 5 5 v 5 5 h 5 5 v -5 -5 h 5 5 v 5 5 h 5 5 v 5 5 h 5 5 z m -10,-10 v -5 h -5 -5 v -5 -5 h -5 -5 v 5 5 h -5 -5 v -5 -5 h -5 -5 v 5 5 h -5 -5 v -5 -5 h 5 5 v -5 -5 h -5 -5 v -5 -5 h -5 -5 v -5 -5 h 5 5 v -5 -5 h -5 -5 v -5 -5 h 5 5 v -5 -5 h -5 -5 v -5 -5 h 5 5 v -5 -5 h -5 -5 v -5 -5 h 5 5 v 5 5 h 5 5 v 5 5 h 5 5 v 5 5 h 5 5 v 5 5 h 5 5 v 5 5 h 5 5 v 5 5 h 5 5 v 5 5 h 5 5 v 5 5 h 5 5 v 5 5 h 5 5 v 5 5 h -5 -5 v -5 -5 h -5 -5 v 5 5 h -5 -5 v 5 5 h -5 -5 z m 10,-10 v -5 h 5 5 v -5 -5 h -5 -5 v -5 -5 h -5 -5 v -5 -5 h -5 -5 v -5 -5 h -5 -5 v -5 -5 h -5 -5 v -5 -5 h -5 -5 v -5 -5 h -5 -5 v 5 5 h 5 5 v 5 5 h -5 -5 v 5 5 h 5 5 v 5 5 h -5 -5 v 5 5 h 5 5 v 5 5 h 5 5 v 5 5 h 5 5 v -5 -5 h 5 5 v 5 5 h 5 5 v 5 5 h 5 5 z m -10,-10 v -5 h -5 -5 v -5 -5 h -5 -5 v 5 5 h -5 -5 v -5 -5 h -5 -5 v -5 -5 h 5 5 v -5 -5 h -5 -5 v -5 -5 h 5 5 v 5 5 h 5 5 v 5 5 h 5 5 v 5 5 h 5 5 v 5 5 h 5 5 v 5 5 h -5 -5 z m -20,-20 v -5 h -5 -5 v 5 5 h 5 5 z m 110,10 v -5 h -5 -5 v -5 -5 h -5 -5 v -5 -5 h -5 -5 v -5 -5 h -5 -5 v -5 -5 h -5 -5 v -5 -5 h -5 -5 v -5 -5 h -5 -5 v -5 -5 h -5 -5 v -5 -5 h -5 -5 v -5 -5 h -5 -5 v -5 -5 h -5 -5 v -5 -5 h 5 5 v 5 5 h 5 5 v -5 -5 h 5 5 v 5 5 h 5 5 v -5 -5 h 5 5 v 5 5 h 5 5 v -5 -5 h 5 5 v 5 5 h 5 5 v -5 -5 h 5 5 v 5 5 h 5 5 v -5 -5 h 5 5 v -5 -5 h 5 5 v -5 -5 h 5 5 v -5 -5 h 5 5 v 5 5 h 5 5 v 5 5 h -5 -5 v 5 5 h 5 5 v 5 5 h 5 5 v 5 5 h -5 -5 v 5 5 h 5 5 v 5 5 h -5 -5 v 5 5 h 5 5 v 5 5 h -5 -5 v 5 5 h -5 -5 v 5 5 h -5 -5 v 5 5 h 5 5 v 5 5 h -5 -5 v 5 5 h -5 -5 v 5 5 h -5 -5 z m 10,-10 v -5 h 5 5 v -5 -5 h -5 -5 v -5 -5 h 5 5 v -5 -5 h 5 5 v -5 -5 h 5 5 v -5 -5 h -5 -5 v -5 -5 h 5 5 v -5 -5 h -5 -5 v -5 -5 h 5 5 v -5 -5 h -5 -5 v -5 -5 h -5 -5 v -5 -5 h 5 5 v -5 -5 h -5 -5 v 5 5 h -5 -5 v 5 5 h -5 -5 v 5 5 h -5 -5 v 5 5 h -5 -5 v -5 -5 h -5 -5 v 5 5 h -5 -5 v -5 -5 h -5 -5 v 5 5 h -5 -5 v -5 -5 h -5 -5 v 5 5 h -5 -5 v -5 -5 h -5 -5 v 5 5 h 5 5 v 5 5 h 5 5 v 5 5 h 5 5 v 5 5 h 5 5 v 5 5 h 5 5 v 5 5 h 5 5 v 5 5 h 5 5 v 5 5 h 5 5 v 5 5 h 5 5 v 5 5 h 5 5 z m -10,-10 v -5 h -5 -5 v -5 -5 h -5 -5 v -5 -5 h -5 -5 v -5 -5 h -5 -5 v -5 -5 h -5 -5 v -5 -5 h -5 -5 v -5 -5 h -5 -5 v -5 -5 h 5 5 v 5 5 h 5 5 v -5 -5 h 5 5 v 5 5 h 5 5 v -5 -5 h 5 5 v 5 5 h 5 5 v -5 -5 h 5 5 v -5 -5 h 5 5 v -5 -5 h 5 5 v 5 5 h 5 5 v 5 5 h -5 -5 v 5 5 h 5 5 v 5 5 h -5 -5 v 5 5 h 5 5 v 5 5 h -5 -5 v 5 5 h -5 -5 v 5 5 h -5 -5 v 5 5 h 5 5 v 5 5 h -5 -5 z m 0,-20 v -5 h 5 5 v -5 -5 h 5 5 v -5 -5 h -5 -5 v -5 -5 h 5 5 v -5 -5 h -5 -5 v -5 -5 h 5 5 v -5 -5 h -5 -5 v 5 5 h -5 -5 v 5 5 h -5 -5 v 5 5 h -5 -5 v -5 -5 h -5 -5 v 5 5 h -5 -5 v -5 -5 h -5 -5 v 5 5 h 5 5 v 5 5 h 5 5 v 5 5 h 5 5 v 5 5 h 5 5 v 5 5 h 5 5 z m -10,-10 v -5 h -5 -5 v -5 -5 h -5 -5 v -5 -5 h 5 5 v 5 5 h 5 5 v -5 -5 h 5 5 v -5 -5 h 5 5 v 5 5 h -5 -5 v 5 5 h 5 5 v 5 5 h -5 -5 v 5 5 h -5 -5 z m 10,-10 v -5 h -5 -5 v 5 5 h 5 5 z m -80,-120 v -5 h 5 5 v -5 -5 h 5 5 v 5 5 h 5 5 v -5 -5 h 5 5 v -5 -5 h 5 5 v 5 5 h 5 5 v -5 -5 h 5 5 v 5 5 h 5 5 v -5 -5 h 5 5 v 5 5 h -5 -5 v 5 5 h -5 -5 v 5 5 h -5 -5 v -5 -5 h -5 -5 v 5 5 h -5 -5 v -5 -5 h -5 -5 v 5 5 h -5 -5 v -5 -5 h -5 -5 v 5 5 h -5 -5 z m 50,-10 v -5 h -5 -5 v 5 5 h 5 5 z m 20,0 v -5 h -5 -5 v 5 5 h 5 5 z m -220,0 v -5 h 5 5 v 5 5 h -5 -5 z"
       id="path359" /><path
       style="fill:#7f7f7f;stroke-width:10"
       d="m -18.97768,243.41341 v -5 h 40 40 v -5 -5 h 15 15 v -10 -10 h -10 -10 v -5 -5 h -5 -5 v -5 -5 h -5 -5 v -5 -5 h -5 -5 v -5 -5 h -15 -15 v 10 10 h -15 -15 v 5 5 h -15 -15 v 5 5 h -10 -10 v 10 10 h -5 -5 v -10 -10 h 5 5 v -5 -5 h 10 10 v -5 -5 h 15 15 v -5 -5 h 10 10 v -5 -5 h 5 5 v -5 -5 h 20 20 v 10 10 h 15 15 v 5 5 h 15 15 v 10 10 h 10 10 v 10 10 h -10 -10 v 5 5 h -15 -15 v 5 5 h -50 -50 z m -70,-100 v -5 h -15 -15 v -5 -5 h -10 -10 v -5 -5 h 10 10 v 5 5 h 70 70 v -5 -5 h 10 10 v -5 -5 h 10 10 v -5 -5 h 10 10 v -5 -5 h 5 5 v -5 -5 h 5 5 v -5 -5 h 5 5 v -5 -5 h 5 5 v -5 -5 h 5 5 v -5 -5 h 5 5 v -5 -5 h 5 5 v -10 -10 h 5 5 v -10 -10 h 5 5 v -15 -15 h 5 5 v -40 -40 h 5 5 v 50 50 h -5 -5 v 20 20 h -5 -5 v 15 15 h -5 -5 v 10 10 h -5 -5 v 10 10 h -5 -5 v 5 5 h -5 -5 v 5 5 h -5 -5 v 5 5 h -10 -10 v 5 5 h -10 -10 v 5 5 h -15 -15 v 5 5 h -70 -70 z m 260,-285 v -10 h 5 5 v 10 10 h -5 -5 z m -10,-25 v -5 h -5 -5 v -5 -5 h 5 5 v 5 5 h 5 5 v 5 5 h -5 -5 z"
       id="path357" /><path
       style="fill:#0000fe;stroke-width:10"
       d="m -78.97768,103.41341 v -5 h -5 -5 v -5 -5 h -5 -5 v 5 5 h -5 -5 v -5 -5 h -5 -5 v -5 -5 h -5 -5 v 5 5 h -5 -5 v -5 -5 h -5 -5 v -5 -5 h -5 -5 v -5 -5 h 5 5 v -5 -5 h -5 -5 v -5 -5 h 5 5 v -5 -5 h -5 -5 v -5 -5 h 5 5 v -5 -5 h -5 -5 v -5 -5 h 5 5 v -5 -5 h -5 -5 v -5 -5 h 5 5 v -5 -5 h 5 5 v -5 -5 h -5 -5 v -5 -5 h 5 5 v -5 -5 h 5 5 v 5 5 h -5 -5 v 5 5 h 5 5 v 5 5 h -5 -5 v 5 5 h 5 5 v 5 5 h -5 -5 v 5 5 h 5 5 v 5 5 h -5 -5 v 5 5 h 5 5 v 5 5 h 5 5 v 5 5 h 5 5 v -5 -5 h 5 5 v -5 -5 h -5 -5 v -5 -5 h 5 5 v -5 -5 h -5 -5 v -5 -5 h 5 5 v -5 -5 h -5 -5 v -5 -5 h 5 5 v -5 -5 h -5 -5 v -5 -5 h 5 5 v -5 -5 h -5 -5 v -5 -5 h 5 5 v -5 -5 h -5 -5 v -5 -5 h 5 5 v -5 -5 h -5 -5 v -5 -5 h 80 80 v 5 5 h -50 -50 v 5 5 h -5 -5 v 5 5 h -5 -5 v 5 5 h -5 -5 v 5 5 h -5 -5 v 5 5 h 5 5 v 5 5 h 5 5 v 5 5 h -5 -5 v 5 5 h -5 -5 v 5 5 h -5 -5 v 5 5 h 5 5 v 5 5 h 5 5 v 5 5 h -5 -5 v 5 5 h 5 5 v 5 5 h 5 5 v 5 5 h 5 5 v 5 5 h 5 5 v 5 5 h 5 5 v 5 5 h 5 5 v -5 -5 h 5 5 v 5 5 h 5 5 v -5 -5 h 5 5 v 5 5 h 5 5 v -5 -5 h 5 5 v 5 5 h -5 -5 v 5 5 h -5 -5 v 5 5 h -5 -5 v -5 -5 h -5 -5 v 5 5 h -5 -5 v 5 5 h -5 -5 v -5 -5 h -5 -5 v 5 5 h -5 -5 v -5 -5 h -5 -5 v 5 5 h -5 -5 z m 10,-10 v -5 h 5 5 v 5 5 h 5 5 v -5 -5 h 5 5 v 5 5 h 5 5 v -5 -5 h 5 5 v -5 -5 h -5 -5 v 5 5 h -5 -5 v -5 -5 h -5 -5 v -5 -5 h -5 -5 v -5 -5 h -5 -5 v -5 -5 h -5 -5 v -5 -5 h -5 -5 v -5 -5 h -5 -5 v 5 5 h -5 -5 v 5 5 h -5 -5 v -5 -5 h -5 -5 v -5 -5 h -5 -5 v -5 -5 h -5 -5 v 5 5 h 5 5 v 5 5 h -5 -5 v 5 5 h 5 5 v 5 5 h -5 -5 v 5 5 h 5 5 v 5 5 h 5 5 v -5 -5 h 5 5 v 5 5 h 5 5 v 5 5 h 5 5 v -5 -5 h 5 5 v 5 5 h 5 5 v 5 5 h 5 5 z m -10,-10 v -5 h -5 -5 v -5 -5 h -5 -5 v 5 5 h -5 -5 v -5 -5 h -5 -5 v -5 -5 h -5 -5 v 5 5 h -5 -5 v -5 -5 h 5 5 v -5 -5 h -5 -5 v -5 -5 h 5 5 v 5 5 h 5 5 v 5 5 h 5 5 v -5 -5 h 5 5 v -5 -5 h 5 5 v 5 5 h 5 5 v 5 5 h 5 5 v 5 5 h 5 5 v 5 5 h 5 5 v 5 5 h -5 -5 v -5 -5 h -5 -5 v 5 5 h -5 -5 z m 10,-10 v -5 h -5 -5 v -5 -5 h -5 -5 v -5 -5 h -5 -5 v 5 5 h -5 -5 v 5 5 h 5 5 v -5 -5 h 5 5 v 5 5 h 5 5 v 5 5 h 5 5 z m 70,10 v -5 h -5 -5 v 5 5 h 5 5 z m -90,-70 v -5 h -5 -5 v 5 5 h 5 5 z m -50,-10 v -5 h -5 -5 v 5 5 h 5 5 z m 0,-20 v -5 h -5 -5 v 5 5 h 5 5 z m 50,-10 v -5 h 5 5 v -5 -5 h -5 -5 v -5 -5 h -5 -5 v 5 5 h 5 5 v 5 5 h -5 -5 v 5 5 h 5 5 z m 0,-40 v -5 h 5 5 v -5 -5 h 5 5 v -5 -5 h 5 5 v -5 -5 h -5 -5 v 5 5 h -5 -5 v -5 -5 h -5 -5 v 5 5 h -5 -5 v 5 5 h 5 5 v 5 5 h -5 -5 v 5 5 h 5 5 z m 0,-20 v -5 h 5 5 v 5 5 h -5 -5 z m 150,-30 v -5 h 5 5 v 5 5 h -5 -5 z m -150,-10 v -5 h 5 5 v -5 -5 h 5 5 v -5 -5 h 5 5 v -5 -5 h 5 5 v -5 -5 h 5 5 v 5 5 h 5 5 v -5 -5 h 5 5 v -5 -5 h 5 5 v 5 5 h 5 5 v -5 -5 h 5 5 v 5 5 h -5 -5 v 5 5 h -5 -5 v 5 5 h -5 -5 v 5 5 h -5 -5 v 5 5 h -5 -5 v 5 5 h -5 -5 v -5 -5 h -5 -5 v 5 5 h -5 -5 v -5 -5 h -5 -5 v 5 5 h -5 -5 z m 30,-10 v -5 h 5 5 v 5 5 h 5 5 v -5 -5 h 5 5 v -5 -5 h 5 5 v -5 -5 h 5 5 v -5 -5 h -5 -5 v 5 5 h -5 -5 v 5 5 h -5 -5 v -5 -5 h -5 -5 v 5 5 h -5 -5 v 5 5 h -5 -5 v 5 5 h 5 5 z m 10,-10 v -5 h 5 5 v 5 5 h -5 -5 z m -120,10 v -5 h 10 10 v -10 -10 h 5 5 v 15 15 h -15 -15 z"
       id="path355" /><path
       style="fill:#007f7f;stroke-width:10"
       d="m -158.97768,113.41341 v -5 h -5 -5 v -5 -5 h -5 -5 v -10 -10 h -5 -5 v -10 -10 h -5 -5 v -35 -35 h 5 5 v -15 -15 h 5 5 v -10 -10 h 5 5 v -10 -10 h 5 5 v -10 -10 h 5 5 v -5 -5 h 5 5 v -5 -5 h 5 5 v -5 -5 h 5 5 v -5 -5 h 5 5 v -5 -5 h 5 5 v -5 -5 h 10 10 v -5 -5 h 5 5 v -5 -5 h 10 10 v -5 -5 h 10 10 v -5 -5 h 15 15 v -5 -5 h 60 60 v 5 5 h 10 10 v 5 5 h 10 10 v 5 5 h -10 -10 v -5 -5 h -10 -10 v -5 -5 h -60 -60 v 5 5 h -15 -15 v 5 5 h -10 -10 v 5 5 h -10 -10 v 5 5 h -5 -5 v 5 5 h 5 5 v 5 5 h 5 5 v -5 -5 h 5 5 v -5 -5 h 5 5 v -5 -5 h 5 5 v 5 5 h -5 -5 v 5 5 h -5 -5 v 5 5 h -5 -5 v 5 5 h -5 -5 v 5 5 h 20 20 v -5 -5 h 5 5 v -5 -5 h 5 5 v -5 -5 h 5 5 v -5 -5 h 5 5 v -5 -5 h 5 5 v -5 -5 h 5 5 v -5 -5 h 5 5 v 5 5 h 5 5 v -5 -5 h 5 5 v 5 5 h -5 -5 v 5 5 h -5 -5 v 5 5 h -5 -5 v 5 5 h -5 -5 v 5 5 h -5 -5 v 5 5 h -5 -5 v 5 5 h 30 30 v 5 5 h -90 -90 v -5 -5 h -5 -5 v 5 5 h -5 -5 v 5 5 h -5 -5 v 10 10 h -5 -5 v 10 10 h -5 -5 v 10 10 h -5 -5 v 15 15 h -5 -5 v 35 35 h 5 5 v 10 10 h 5 5 v 10 10 h 5 5 v 5 5 h 5 5 v 5 5 h -5 -5 z m 50,-240 v -5 h 10 10 v 5 5 h 5 5 v -5 -5 h 5 5 v -5 -5 h -5 -5 v -5 -5 h -10 -10 v 5 5 h -5 -5 v 5 5 h -5 -5 v 5 5 h 5 5 z m 20,-10 v -5 h 5 5 v 5 5 h -5 -5 z m 80,10 v -5 h 5 5 v -5 -5 h 5 5 v -5 -5 h 5 5 v -5 -5 h 5 5 v -5 -5 h 5 5 v -5 -5 h -5 -5 v 5 5 h -5 -5 v 5 5 h -5 -5 v 5 5 h -5 -5 v 5 5 h -5 -5 v 5 5 h -5 -5 v 5 5 h 5 5 z m -80,240 v -5 h -15 -15 v -5 -5 h -10 -10 v -5 -5 h -5 -5 v -5 -5 h -5 -5 v -5 -5 h 5 5 v -5 -5 h -10 -10 v -45 -45 h 5 5 v -10 -10 h 5 5 v -10 -10 h 5 5 v -10 -10 h 5 5 v 15 15 h -5 -5 v 5 5 h 5 5 v 5 5 h -5 -5 v 5 5 h 5 5 v 5 5 h -5 -5 v 5 5 h 5 5 v 5 5 h -5 -5 v 5 5 h 5 5 v 5 5 h -5 -5 v 5 5 h 5 5 v 5 5 h 5 5 v 5 5 h -5 -5 v 5 5 h 5 5 v 5 5 h 5 5 v 5 5 h 5 5 v 5 5 h 5 5 v 5 5 h 5 5 v 5 5 h 5 5 v -5 -5 h 5 5 v 5 5 h 5 5 v -5 -5 h 5 5 v 5 5 h 5 5 v -5 -5 h 15 15 v -5 -5 h 10 10 v -5 -5 h 5 5 v -5 -5 h -5 -5 v -5 -5 h -5 -5 v 5 5 h -5 -5 v -5 -5 h -5 -5 v 5 5 h -5 -5 v -5 -5 h -5 -5 v 5 5 h -5 -5 v -5 -5 h -5 -5 v -5 -5 h -5 -5 v -5 -5 h -5 -5 v -5 -5 h -5 -5 v -5 -5 h 5 5 v -5 -5 h -5 -5 v -5 -5 h -5 -5 v -5 -5 h 5 5 v -5 -5 h 5 5 v -5 -5 h 5 5 v -5 -5 h -5 -5 v -5 -5 h -5 -5 v -5 -5 h 5 5 v -5 -5 h 5 5 v -5 -5 h 5 5 v -5 -5 h 5 5 v -5 -5 h 5 5 v 5 5 h 5 5 v -5 -5 h 5 5 v 5 5 h -5 -5 v 5 5 h -5 -5 v 5 5 h 5 5 v 5 5 h 5 5 v -5 -5 h 5 5 v 5 5 h 5 5 v -5 -5 h 5 5 v 5 5 h 5 5 v -5 -5 h 5 5 v 5 5 h 5 5 v 5 5 h 5 5 v 5 5 h 5 5 v 5 5 h 5 5 v 5 5 h -5 -5 v 5 5 h 5 5 v 5 5 h -5 -5 v 5 5 h 5 5 v 5 5 h -5 -5 v 5 5 h -5 -5 v 5 5 h -5 -5 v 5 5 h 5 5 v 5 5 h -5 -5 v 5 5 h -5 -5 v 5 5 h -5 -5 v 5 5 h -5 -5 v 5 5 h -10 -10 v 5 5 h -15 -15 v 5 5 h -30 -30 z m -10,-20 v -5 h -5 -5 v -5 -5 h -5 -5 v -5 -5 h -5 -5 v -5 -5 h -5 -5 v -5 -5 h 5 5 v -5 -5 h -5 -5 v -5 -5 h -5 -5 v -5 -5 h 5 5 v -5 -5 h -5 -5 v -5 -5 h 5 5 v -5 -5 h -5 -5 v -5 -5 h 5 5 v -5 -5 h -5 -5 v 5 5 h -5 -5 v 5 5 h 5 5 v 5 5 h -5 -5 v 5 5 h 5 5 v 5 5 h -5 -5 v 5 5 h 5 5 v 5 5 h -5 -5 v 5 5 h 5 5 v 5 5 h 5 5 v 5 5 h -5 -5 v 5 5 h 5 5 v 5 5 h 5 5 v -5 -5 h 5 5 v 5 5 h 5 5 v 5 5 h 5 5 z m -40,-20 v -5 h 5 5 v 5 5 h -5 -5 z m -10,-30 v -5 h 5 5 v 5 5 h -5 -5 z m 190,20 v -5 h 5 5 v -5 -5 h -5 -5 v -5 -5 h 5 5 v -5 -5 h 5 5 v -5 -5 h 5 5 v -5 -5 h -5 -5 v -5 -5 h 5 5 v -5 -5 h -5 -5 v -5 -5 h 5 5 v -5 -5 h -5 -5 v -5 -5 h -5 -5 v -5 -5 h -5 -5 v -5 -5 h -5 -5 v 5 5 h -5 -5 v -5 -5 h -5 -5 v 5 5 h -5 -5 v -5 -5 h -5 -5 v 5 5 h -5 -5 v -5 -5 h -5 -5 v -5 -5 h -5 -5 v -5 -5 h 5 5 v -5 -5 h -5 -5 v 5 5 h -5 -5 v 5 5 h -5 -5 v 5 5 h -5 -5 v 5 5 h 5 5 v 5 5 h 5 5 v 5 5 h -5 -5 v 5 5 h -5 -5 v 5 5 h -5 -5 v 5 5 h 5 5 v 5 5 h 5 5 v 5 5 h -5 -5 v 5 5 h 5 5 v 5 5 h 5 5 v 5 5 h 5 5 v 5 5 h 5 5 v -5 -5 h 5 5 v 5 5 h 5 5 v -5 -5 h 5 5 v 5 5 h 5 5 v -5 -5 h 5 5 v 5 5 h 5 5 v 5 5 h 5 5 z m -10,-10 v -5 h -5 -5 v -5 -5 h -5 -5 v 5 5 h -5 -5 v -5 -5 h -5 -5 v 5 5 h -5 -5 v -5 -5 h -5 -5 v 5 5 h -5 -5 v -5 -5 h -5 -5 v -5 -5 h -5 -5 v -5 -5 h 5 5 v -5 -5 h -5 -5 v -5 -5 h -5 -5 v -5 -5 h 5 5 v -5 -5 h 5 5 v -5 -5 h 5 5 v -5 -5 h -5 -5 v -5 -5 h -5 -5 v -5 -5 h 5 5 v -5 -5 h 5 5 v 5 5 h 5 5 v 5 5 h 5 5 v 5 5 h 5 5 v -5 -5 h 5 5 v 5 5 h 5 5 v -5 -5 h 5 5 v 5 5 h 5 5 v -5 -5 h 5 5 v 5 5 h 5 5 v 5 5 h 5 5 v 5 5 h -5 -5 v 5 5 h 5 5 v 5 5 h -5 -5 v 5 5 h 5 5 v 5 5 h -5 -5 v 5 5 h -5 -5 v 5 5 h -5 -5 v 5 5 h 5 5 v 5 5 h -5 -5 z m -60,-20 v -5 h 5 5 v 5 5 h 5 5 v -5 -5 h 5 5 v 5 5 h 5 5 v -5 -5 h 5 5 v -5 -5 h 5 5 v 5 5 h 5 5 v -5 -5 h 5 5 v -5 -5 h -5 -5 v -5 -5 h 5 5 v -5 -5 h -5 -5 v -5 -5 h 5 5 v -5 -5 h -5 -5 v -5 -5 h -5 -5 v 5 5 h -5 -5 v -5 -5 h -5 -5 v 5 5 h -5 -5 v -5 -5 h -5 -5 v 5 5 h -5 -5 v -5 -5 h -5 -5 v -5 -5 h -5 -5 v -5 -5 h -5 -5 v 5 5 h 5 5 v 5 5 h 5 5 v 5 5 h -5 -5 v 5 5 h -5 -5 v 5 5 h -5 -5 v 5 5 h 5 5 v 5 5 h 5 5 v 5 5 h -5 -5 v 5 5 h 5 5 v 5 5 h 5 5 z m -10,-10 v -5 h 5 5 v -5 -5 h -5 -5 v -5 -5 h -5 -5 v -5 -5 h 5 5 v -5 -5 h 5 5 v -5 -5 h 5 5 v 5 5 h 5 5 v -5 -5 h 5 5 v 5 5 h 5 5 v -5 -5 h 5 5 v 5 5 h 5 5 v -5 -5 h 5 5 v 5 5 h -5 -5 v 5 5 h 5 5 v 5 5 h -5 -5 v 5 5 h 5 5 v 5 5 h -5 -5 v -5 -5 h -5 -5 v 5 5 h -5 -5 v 5 5 h -5 -5 v -5 -5 h -5 -5 v 5 5 h -5 -5 v -5 -5 h -5 -5 v 5 5 h -5 -5 z m 30,-10 v -5 h 5 5 v 5 5 h 5 5 v -5 -5 h 5 5 v -5 -5 h 5 5 v -5 -5 h -5 -5 v -5 -5 h -5 -5 v 5 5 h -5 -5 v -5 -5 h -5 -5 v 5 5 h -5 -5 v -5 -5 h -5 -5 v 5 5 h -5 -5 v 5 5 h 5 5 v 5 5 h 5 5 v 5 5 h 5 5 z m -10,-10 v -5 h -5 -5 v -5 -5 h 5 5 v 5 5 h 5 5 v -5 -5 h 5 5 v 5 5 h 5 5 v -5 -5 h 5 5 v 5 5 h -5 -5 v 5 5 h -5 -5 v -5 -5 h -5 -5 v 5 5 h -5 -5 z m -120,-50 v -5 h -5 -5 v 5 5 h 5 5 z m 20,10 v -65 h 5 5 v 65 65 h -5 -5 z m 120,-60 v -5 h 5 5 v 5 5 h -5 -5 z m 20,0 v -5 h 5 5 v 5 5 h -5 -5 z m 20,0 v -5 h 5 5 v 5 5 h -5 -5 z m -220,-60 v -15 h 15 15 v 15 15 h -15 -15 z m 20,0 v -5 h -5 -5 v 5 5 h 5 5 z"
       id="path353" /><path
       style="fill:#00007f;stroke-width:10"
       d="m -128.97768,-41.58659 v -70 h 5 5 v 70 70 h -5 -5 z m -30,-85 v -5 h 10 10 v -10 -10 h 5 5 v 15 15 h -15 -15 z"
       id="path351" /><path
       style="fill:#000000;stroke-width:10"
       d="m -18.97768,253.41341 v -5 h -15 -15 v -5 -5 h -10 -10 v -5 -5 h 10 10 v 5 5 h 15 15 v 5 5 h 50 50 v -5 -5 h 15 15 v -5 -5 h 10 10 v -10 -10 h -10 -10 v -5 -5 h 10 10 v 5 5 h 5 5 v 10 10 h -5 -5 v 5 5 h -10 -10 v 5 5 h -15 -15 v 5 5 h -50 -50 z m 70,-85 v -10 h -20 -20 v 5 5 h -5 -5 v -5 -5 h -45 -45 v -5 -5 h -15 -15 v -5 -5 h -10 -10 v -5 -5 h -5 -5 v -5 -5 h 5 5 v 5 5 h 10 10 v 5 5 h 15 15 v 5 5 h 70 70 v -5 -5 h 15 15 v -5 -5 h 10 10 v -5 -5 h 10 10 v -5 -5 h 5 5 v -5 -5 h 5 5 v -5 -5 h 5 5 v -10 -10 h 5 5 v -10 -10 h 5 5 v -15 -15 h 5 5 v -20 -20 h 5 5 v -50 -50 h -5 -5 v -15 -15 h -5 -5 v -10 -10 h -5 -5 v -5 -5 h 5 5 v 5 5 h 5 5 v 10 10 h 5 5 v 15 15 h 5 5 v 50 50 h -5 -5 v 20 20 h -5 -5 v 15 15 h -5 -5 v 10 10 h -5 -5 v 10 10 h -5 -5 v 5 5 h -5 -5 v 5 5 h -5 -5 v 5 5 h -5 -5 v 5 5 h -10 -10 v 5 5 h -10 -10 v 5 5 h -10 -10 v 15 15 h -5 -5 z m -40,-145 v -5 h -5 -5 v -5 -5 h -5 -5 v -5 -5 h -5 -5 v -5 -5 h -5 -5 v -5 -5 h -5 -5 v -5 -5 h -5 -5 v -5 -5 h -5 -5 v -5 -5 h -5 -5 v -5 -5 h -5 -5 v -5 -5 h -5 -5 v -5 -5 h -5 -5 v -5 -5 h -5 -5 v -5 -5 h -5 -5 v -5 -5 h -5 -5 v -5 -5 h 5 5 v 5 5 h 5 5 v 5 5 h 5 5 v 5 5 h 5 5 v 5 5 h 5 5 v 5 5 h 5 5 v 5 5 h 5 5 v 5 5 h 5 5 v 5 5 h 5 5 v 5 5 h 5 5 v 5 5 h 5 5 v 5 5 h 5 5 v 5 5 h 5 5 v 5 5 h 5 5 v 5 5 h 5 5 v 5 5 h -5 -5 z"
       id="path349" /></g></svg>
