<?xml version="1.0" encoding="UTF-8" standalone="no"?>
<!-- Created with Inkscape (http://www.inkscape.org/) -->
<svg
   xmlns:dc="http://purl.org/dc/elements/1.1/"
   xmlns:cc="http://web.resource.org/cc/"
   xmlns:rdf="http://www.w3.org/1999/02/22-rdf-syntax-ns#"
   xmlns:svg="http://www.w3.org/2000/svg"
   xmlns="http://www.w3.org/2000/svg"
   xmlns:xlink="http://www.w3.org/1999/xlink"
   xmlns:sodipodi="http://sodipodi.sourceforge.net/DTD/sodipodi-0.dtd"
   xmlns:inkscape="http://www.inkscape.org/namespaces/inkscape"
   width="48"
   height="48"
   id="svg2"
   sodipodi:version="0.32"
   inkscape:version="0.45"
   version="1.0"
   sodipodi:docname="phone.svg"
   sodipodi:docbase="/home/dobey/Projects/gnome-icon-theme/scalable/devices"
   inkscape:output_extension="org.inkscape.output.svg.inkscape">
  <defs
     id="defs4">
    <linearGradient
       inkscape:collect="always"
       id="linearGradient7088">
      <stop
         style="stop-color:#ffffff;stop-opacity:1;"
         offset="0"
         id="stop7090" />
      <stop
         style="stop-color:#ffffff;stop-opacity:0;"
         offset="1"
         id="stop7092" />
    </linearGradient>
    <linearGradient
       inkscape:collect="always"
       id="linearGradient7526">
      <stop
         style="stop-color:#888a85;stop-opacity:1;"
         offset="0"
         id="stop7528" />
      <stop
         style="stop-color:#d3d7cf;stop-opacity:0.49803922"
         offset="1"
         id="stop7530" />
    </linearGradient>
    <linearGradient
       id="linearGradient7281">
      <stop
         style="stop-color:#2e3436;stop-opacity:1"
         offset="0"
         id="stop7283" />
      <stop
         style="stop-color:#888a85;stop-opacity:1"
         offset="1"
         id="stop7285" />
    </linearGradient>
    <linearGradient
       inkscape:collect="always"
       id="linearGradient7231">
      <stop
         style="stop-color:#ffffff;stop-opacity:1;"
         offset="0"
         id="stop7233" />
      <stop
         style="stop-color:#ffffff;stop-opacity:0;"
         offset="1"
         id="stop7235" />
    </linearGradient>
    <linearGradient
       inkscape:collect="always"
       id="linearGradient7223">
      <stop
         style="stop-color:#ffffff;stop-opacity:1;"
         offset="0"
         id="stop7225" />
      <stop
         style="stop-color:#ffffff;stop-opacity:0;"
         offset="1"
         id="stop7227" />
    </linearGradient>
    <linearGradient
       inkscape:collect="always"
       id="linearGradient7215">
      <stop
         style="stop-color:#ffffff;stop-opacity:1;"
         offset="0"
         id="stop7217" />
      <stop
         style="stop-color:#ffffff;stop-opacity:0;"
         offset="1"
         id="stop7219" />
    </linearGradient>
    <linearGradient
       inkscape:collect="always"
       id="linearGradient7199">
      <stop
         style="stop-color:#ffffff;stop-opacity:1;"
         offset="0"
         id="stop7201" />
      <stop
         style="stop-color:#ffffff;stop-opacity:0;"
         offset="1"
         id="stop7203" />
    </linearGradient>
    <linearGradient
       id="linearGradient8357">
      <stop
         style="stop-color:#ffffff;stop-opacity:1;"
         offset="0"
         id="stop8359" />
      <stop
         style="stop-color:#888a85;stop-opacity:1"
         offset="1"
         id="stop8361" />
    </linearGradient>
    <linearGradient
       inkscape:collect="always"
       id="linearGradient8236">
      <stop
         style="stop-color:#000000;stop-opacity:1;"
         offset="0"
         id="stop8238" />
      <stop
         style="stop-color:#000000;stop-opacity:0;"
         offset="1"
         id="stop8240" />
    </linearGradient>
    <linearGradient
       inkscape:collect="always"
       id="linearGradient8228">
      <stop
         style="stop-color:#000000;stop-opacity:1;"
         offset="0"
         id="stop8230" />
      <stop
         style="stop-color:#000000;stop-opacity:0;"
         offset="1"
         id="stop8232" />
    </linearGradient>
    <linearGradient
       id="linearGradient8216">
      <stop
         style="stop-color:#888a85;stop-opacity:1;"
         offset="0"
         id="stop8218" />
      <stop
         style="stop-color:#babdb6;stop-opacity:1"
         offset="1"
         id="stop8220" />
    </linearGradient>
    <linearGradient
       id="linearGradient8046">
      <stop
         style="stop-color:#ffffff;stop-opacity:1"
         offset="0"
         id="stop8048" />
      <stop
         style="stop-color:#888a85;stop-opacity:1"
         offset="1"
         id="stop8050" />
    </linearGradient>
    <linearGradient
       id="linearGradient8012"
       inkscape:collect="always">
      <stop
         id="stop8014"
         offset="0"
         style="stop-color:#2e3436;stop-opacity:1" />
      <stop
         id="stop8016"
         offset="1"
         style="stop-color:#888a85;stop-opacity:1" />
    </linearGradient>
    <linearGradient
       inkscape:collect="always"
       id="linearGradient8000">
      <stop
         style="stop-color:#2e3436;stop-opacity:1"
         offset="0"
         id="stop8002" />
      <stop
         style="stop-color:#888a85;stop-opacity:1"
         offset="1"
         id="stop8004" />
    </linearGradient>
    <linearGradient
       id="linearGradient7992">
      <stop
         style="stop-color:#ffffff;stop-opacity:1"
         offset="0"
         id="stop7994" />
      <stop
         style="stop-color:#d3d7cf;stop-opacity:0"
         offset="1"
         id="stop7996" />
    </linearGradient>
    <linearGradient
       id="linearGradient7972">
      <stop
         style="stop-color:#ffffff;stop-opacity:1"
         offset="0"
         id="stop7974" />
      <stop
         style="stop-color:#eeeeec;stop-opacity:1"
         offset="1"
         id="stop7976" />
    </linearGradient>
    <linearGradient
       inkscape:collect="always"
       id="linearGradient7917">
      <stop
         style="stop-color:#ffffff;stop-opacity:1;"
         offset="0"
         id="stop7919" />
      <stop
         style="stop-color:#ffffff;stop-opacity:0;"
         offset="1"
         id="stop7921" />
    </linearGradient>
    <linearGradient
       inkscape:collect="always"
       xlink:href="#linearGradient7917"
       id="linearGradient7923"
       x1="59.510406"
       y1="8.375"
       x2="87.042259"
       y2="92.265244"
       gradientUnits="userSpaceOnUse"
       gradientTransform="translate(-40,0)" />
    <linearGradient
       inkscape:collect="always"
       xlink:href="#linearGradient7972"
       id="linearGradient7978"
       x1="65.4375"
       y1="19.690521"
       x2="65.4375"
       y2="10.6875"
       gradientUnits="userSpaceOnUse"
       gradientTransform="translate(-40,-1)" />
    <linearGradient
       inkscape:collect="always"
       xlink:href="#linearGradient7992"
       id="linearGradient7998"
       x1="64.375"
       y1="9.3125"
       x2="64.375"
       y2="23.438053"
       gradientUnits="userSpaceOnUse"
       gradientTransform="translate(-89,-1)" />
    <linearGradient
       inkscape:collect="always"
       xlink:href="#linearGradient8000"
       id="linearGradient8006"
       x1="64.5625"
       y1="42.625"
       x2="64.5"
       y2="41"
       gradientUnits="userSpaceOnUse"
       gradientTransform="matrix(1,0,0,-1,-39,83.058522)" />
    <linearGradient
       inkscape:collect="always"
       xlink:href="#linearGradient8012"
       id="linearGradient8010"
       x1="64.5625"
       y1="42.625"
       x2="64.5"
       y2="41"
       gradientUnits="userSpaceOnUse"
       gradientTransform="matrix(1,0,0,-1,-39,83.058522)" />
    <radialGradient
       inkscape:collect="always"
       xlink:href="#linearGradient8046"
       id="radialGradient8054"
       cx="64.5"
       cy="29.797501"
       fx="64.5"
       fy="29.797501"
       r="10.5"
       gradientTransform="matrix(1.328134,0,0,7.0060184,-61.16464,-173.01183)"
       gradientUnits="userSpaceOnUse" />
    <linearGradient
       inkscape:collect="always"
       xlink:href="#linearGradient8216"
       id="linearGradient8222"
       x1="71.739273"
       y1="2.2823277"
       x2="71.739273"
       y2="5.5714717"
       gradientUnits="userSpaceOnUse"
       gradientTransform="translate(-40,0)" />
    <radialGradient
       inkscape:collect="always"
       xlink:href="#linearGradient8228"
       id="radialGradient8234"
       cx="27.9375"
       cy="38.0625"
       fx="27.9375"
       fy="38.0625"
       r="12.0625"
       gradientTransform="matrix(1,0,0,0.8134715,0,7.0997409)"
       gradientUnits="userSpaceOnUse" />
    <linearGradient
       inkscape:collect="always"
       xlink:href="#linearGradient8236"
       id="linearGradient8242"
       x1="23.334524"
       y1="12.556273"
       x2="23.334524"
       y2="28.203257"
       gradientUnits="userSpaceOnUse"
       gradientTransform="translate(0,-1)" />
    <linearGradient
       inkscape:collect="always"
       xlink:href="#linearGradient7281"
       id="linearGradient7287"
       x1="26.499495"
       y1="21.108738"
       x2="29.249495"
       y2="44.788391"
       gradientUnits="userSpaceOnUse" />
    <linearGradient
       inkscape:collect="always"
       xlink:href="#linearGradient7231"
       id="linearGradient7449"
       gradientUnits="userSpaceOnUse"
       gradientTransform="translate(-20,0)"
       x1="48.496433"
       y1="36.460838"
       x2="48.982567"
       y2="38.4375" />
    <linearGradient
       inkscape:collect="always"
       xlink:href="#linearGradient7231"
       id="linearGradient7452"
       gradientUnits="userSpaceOnUse"
       gradientTransform="translate(-20,0)"
       x1="39.502918"
       y1="36.460838"
       x2="40.01115"
       y2="38.440475" />
    <linearGradient
       inkscape:collect="always"
       xlink:href="#linearGradient7223"
       id="linearGradient7455"
       gradientUnits="userSpaceOnUse"
       gradientTransform="translate(-20,0)"
       x1="38.5"
       y1="33.5625"
       x2="39.0625"
       y2="35.497356" />
    <linearGradient
       inkscape:collect="always"
       xlink:href="#linearGradient7223"
       id="linearGradient7458"
       gradientUnits="userSpaceOnUse"
       gradientTransform="translate(-20,0)"
       x1="48.53125"
       y1="33.46875"
       x2="49"
       y2="35.4375" />
    <linearGradient
       inkscape:collect="always"
       xlink:href="#linearGradient7215"
       id="linearGradient7461"
       gradientUnits="userSpaceOnUse"
       gradientTransform="translate(-20,0)"
       x1="48.5"
       y1="30.46875"
       x2="49"
       y2="32.4375" />
    <linearGradient
       inkscape:collect="always"
       xlink:href="#linearGradient7215"
       id="linearGradient7464"
       gradientUnits="userSpaceOnUse"
       gradientTransform="translate(-20,0)"
       x1="38.5"
       y1="30.5"
       x2="39"
       y2="32.500843" />
    <linearGradient
       inkscape:collect="always"
       xlink:href="#linearGradient7199"
       id="linearGradient7467"
       gradientUnits="userSpaceOnUse"
       gradientTransform="translate(-20,3)"
       x1="48.478554"
       y1="24.508232"
       x2="48.976982"
       y2="26.4375" />
    <linearGradient
       inkscape:collect="always"
       xlink:href="#linearGradient7199"
       id="linearGradient7470"
       gradientUnits="userSpaceOnUse"
       gradientTransform="translate(-20,3)"
       x1="43.493069"
       y1="24.486135"
       x2="44"
       y2="26.4375" />
    <linearGradient
       inkscape:collect="always"
       xlink:href="#linearGradient7199"
       id="linearGradient7473"
       gradientUnits="userSpaceOnUse"
       gradientTransform="translate(-20,3)"
       x1="38.491497"
       y1="24.541054"
       x2="38.947304"
       y2="26.4375" />
    <linearGradient
       inkscape:collect="always"
       xlink:href="#linearGradient7199"
       id="linearGradient7476"
       gradientUnits="userSpaceOnUse"
       gradientTransform="translate(-20,0)"
       x1="48.478554"
       y1="24.508232"
       x2="48.976982"
       y2="26.4375" />
    <linearGradient
       inkscape:collect="always"
       xlink:href="#linearGradient7199"
       id="linearGradient7479"
       gradientUnits="userSpaceOnUse"
       gradientTransform="translate(-20,0)"
       x1="43.493069"
       y1="24.486135"
       x2="44"
       y2="26.4375" />
    <linearGradient
       inkscape:collect="always"
       xlink:href="#linearGradient7199"
       id="linearGradient7482"
       gradientUnits="userSpaceOnUse"
       gradientTransform="translate(-20,0)"
       x1="38.491497"
       y1="24.541054"
       x2="38.947304"
       y2="26.4375" />
    <linearGradient
       inkscape:collect="always"
       xlink:href="#linearGradient7231"
       id="linearGradient7485"
       gradientUnits="userSpaceOnUse"
       gradientTransform="translate(-20,0)"
       x1="43.480392"
       y1="36.505032"
       x2="43.988625"
       y2="38.4375" />
    <linearGradient
       inkscape:collect="always"
       xlink:href="#linearGradient7223"
       id="linearGradient7488"
       gradientUnits="userSpaceOnUse"
       gradientTransform="translate(-20,0)"
       x1="43.53125"
       y1="33.46875"
       x2="44"
       y2="35.4375" />
    <linearGradient
       inkscape:collect="always"
       xlink:href="#linearGradient7215"
       id="linearGradient7491"
       gradientUnits="userSpaceOnUse"
       gradientTransform="translate(-20,0)"
       x1="43.5"
       y1="30.5"
       x2="44.0625"
       y2="32.313343" />
    <linearGradient
       inkscape:collect="always"
       xlink:href="#linearGradient8357"
       id="linearGradient7511"
       gradientUnits="userSpaceOnUse"
       x1="27.53125"
       y1="32.21875"
       x2="23.749973"
       y2="22.53125" />
    <linearGradient
       inkscape:collect="always"
       xlink:href="#linearGradient7526"
       id="linearGradient7532"
       x1="24.375"
       y1="25.375"
       x2="28.087311"
       y2="52.811184"
       gradientUnits="userSpaceOnUse" />
    <linearGradient
       inkscape:collect="always"
       xlink:href="#linearGradient8012"
       id="linearGradient6116"
       gradientUnits="userSpaceOnUse"
       gradientTransform="matrix(1,0,0,-1,-40,50.058522)"
       x1="64.5625"
       y1="42.625"
       x2="64.5"
       y2="41" />
    <linearGradient
       inkscape:collect="always"
       xlink:href="#linearGradient8000"
       id="linearGradient6118"
       gradientUnits="userSpaceOnUse"
       gradientTransform="matrix(1,0,0,-1,-40,50.058522)"
       x1="64.5625"
       y1="42.625"
       x2="64.5"
       y2="41" />
    <linearGradient
       inkscape:collect="always"
       xlink:href="#linearGradient8012"
       id="linearGradient6122"
       gradientUnits="userSpaceOnUse"
       gradientTransform="matrix(1,0,0,-1,-38,50.058522)"
       x1="64.5625"
       y1="42.625"
       x2="64.5"
       y2="41" />
    <linearGradient
       inkscape:collect="always"
       xlink:href="#linearGradient7088"
       id="linearGradient7094"
       x1="21.8125"
       y1="7.6875"
       x2="26.5"
       y2="19.9375"
       gradientUnits="userSpaceOnUse" />
  </defs>
  <sodipodi:namedview
     id="base"
     pagecolor="#ffffff"
     bordercolor="#666666"
     borderopacity="0.37647059"
     inkscape:pageopacity="0"
     inkscape:pageshadow="2"
     inkscape:zoom="1"
     inkscape:cx="19.876739"
     inkscape:cy="10.140185"
     inkscape:document-units="px"
     inkscape:current-layer="layer1"
     width="48px"
     height="48px"
     inkscape:showpageshadow="false"
     gridempspacing="2"
     gridspacingx="0.5px"
     gridspacingy="0.5px"
     inkscape:window-width="1221"
     inkscape:window-height="853"
     inkscape:window-x="65"
     inkscape:window-y="83"
     showgrid="false"
     showguides="true"
     inkscape:guide-bbox="true"
     showborder="false" />
  <metadata
     id="metadata7">
    <rdf:RDF>
      <cc:Work
         rdf:about="">
        <dc:format>image/svg+xml</dc:format>
        <dc:type
           rdf:resource="http://purl.org/dc/dcmitype/StillImage" />
        <dc:creator>
          <cc:Agent>
            <dc:title>Lapo Calamandrei</dc:title>
          </cc:Agent>
        </dc:creator>
        <cc:license
           rdf:resource="http://creativecommons.org/licenses/GPL/2.0/" />
        <dc:subject>
          <rdf:Bag>
            <rdf:li>phone</rdf:li>
            <rdf:li>cellular</rdf:li>
            <rdf:li>wireless</rdf:li>
            <rdf:li>gsm</rdf:li>
            <rdf:li>voip</rdf:li>
            <rdf:li>3g</rdf:li>
            <rdf:li>umts</rdf:li>
          </rdf:Bag>
        </dc:subject>
        <dc:title>Cell Phone</dc:title>
        <dc:date>2007-05-24</dc:date>
      </cc:Work>
      <cc:License
         rdf:about="http://creativecommons.org/licenses/GPL/2.0/">
        <cc:permits
           rdf:resource="http://web.resource.org/cc/Reproduction" />
        <cc:permits
           rdf:resource="http://web.resource.org/cc/Distribution" />
        <cc:requires
           rdf:resource="http://web.resource.org/cc/Notice" />
        <cc:permits
           rdf:resource="http://web.resource.org/cc/DerivativeWorks" />
        <cc:requires
           rdf:resource="http://web.resource.org/cc/ShareAlike" />
        <cc:requires
           rdf:resource="http://web.resource.org/cc/SourceCode" />
      </cc:License>
    </rdf:RDF>
  </metadata>
  <g
     inkscape:label="Livello 1"
     inkscape:groupmode="layer"
     id="layer1"
     style="display:inline">
    <rect
       style="opacity:1;fill:url(#linearGradient8222);fill-opacity:1;fill-rule:evenodd;stroke:#555753;stroke-width:0.99999994;stroke-linecap:round;stroke-linejoin:round;stroke-miterlimit:4;stroke-dasharray:none;stroke-opacity:1"
       id="rect7962"
       width="2"
       height="9"
       x="30.5"
       y="0.5625"
       rx="1"
       ry="1" />
    <path
       sodipodi:type="arc"
       style="opacity:0.4;fill:url(#radialGradient8234);fill-opacity:1;fill-rule:evenodd;stroke:none;stroke-width:1;stroke-linecap:round;stroke-linejoin:round;stroke-miterlimit:4;stroke-dasharray:none;stroke-opacity:1"
       id="path8226"
       sodipodi:cx="27.9375"
       sodipodi:cy="38.0625"
       sodipodi:rx="12.0625"
       sodipodi:ry="9.8125"
       d="M 40 38.0625 A 12.0625 9.8125 0 1 1  15.875,38.0625 A 12.0625 9.8125 0 1 1  40 38.0625 z"
       transform="matrix(1.0673575,0,0,0.4968153,-5.1943,23.214968)" />
    <path
       style="opacity:1;fill:url(#radialGradient8054);fill-opacity:1;fill-rule:evenodd;stroke:#555753;stroke-width:1;stroke-linecap:round;stroke-linejoin:miter;stroke-miterlimit:4;stroke-dasharray:none;stroke-opacity:1"
       d="M 19.5625,5.5 C 16.753603,5.5 14.5,7.070666 14.5,9.03125 L 14.5,33.75 C 14.5,39.708578 16.976602,44.5 20.0625,44.5 L 28.9375,44.5 C 32.023397,44.5 34.5,39.708577 34.5,33.75 L 34.5,9.03125 C 34.5,7.070666 32.246396,5.5 29.4375,5.5 L 19.5625,5.5 z "
       id="path7885"
       sodipodi:nodetypes="ccccccccc" />
    <path
       sodipodi:type="inkscape:offset"
       inkscape:radius="-0.5"
       inkscape:original="M 19.5625 5.5 C 16.753603 5.5 14.5 7.0706659 14.5 9.03125 L 14.5 33.75 C 14.5 39.708578 16.976602 44.5 20.0625 44.5 L 28.9375 44.5 C 32.023397 44.5 34.5 39.708577 34.5 33.75 L 34.5 9.03125 C 34.5 7.0706659 32.246396 5.5 29.4375 5.5 L 19.5625 5.5 z "
       style="opacity:0.47761195;fill:url(#linearGradient7094);fill-opacity:1;fill-rule:evenodd;stroke:none;stroke-width:1;stroke-linecap:round;stroke-linejoin:miter;stroke-miterlimit:4;stroke-dasharray:none;stroke-opacity:1"
       id="path7086"
       d="M 19.5625,6 C 18.251247,6 17.065963,6.3684846 16.25,6.9375 C 15.434037,7.5065154 15,8.2425338 15,9.03125 L 15,33.75 C 15,36.660016 15.605563,39.275023 16.5625,41.125 C 17.519437,42.974977 18.778332,44 20.0625,44 L 28.9375,44 C 30.221668,44 31.480563,42.974977 32.4375,41.125 C 33.394437,39.275023 34,36.660016 34,33.75 L 34,9.03125 C 34,8.2425339 33.565963,7.5065155 32.75,6.9375 C 31.934037,6.3684845 30.748752,6 29.4375,6 L 19.5625,6 z " />
    <rect
       style="opacity:0.5970149;fill:none;fill-opacity:1;fill-rule:evenodd;stroke:url(#linearGradient7998);stroke-width:1;stroke-linecap:round;stroke-linejoin:miter;stroke-miterlimit:4;stroke-dasharray:none;stroke-opacity:1"
       id="rect7990"
       width="15.999991"
       height="13"
       x="-32.499992"
       y="9.5"
       rx="3.0661337"
       ry="3.0661337"
       transform="scale(-1,1)" />
    <rect
       style="opacity:1;fill:url(#linearGradient7978);fill-opacity:1;fill-rule:evenodd;stroke:#888a85;stroke-width:0.99999994;stroke-linecap:round;stroke-linejoin:miter;stroke-miterlimit:4;stroke-dasharray:none;stroke-opacity:1"
       id="rect7889"
       width="14"
       height="11"
       x="17.5"
       y="10.5"
       rx="2.0388288"
       ry="2.0388288" />
    <path
       style="opacity:0.86194033;fill:none;fill-opacity:1;fill-rule:evenodd;stroke:url(#linearGradient7923);stroke-width:1;stroke-linecap:round;stroke-linejoin:miter;stroke-miterlimit:4;stroke-opacity:1"
       d="M 19.5625,6.5 C 18.343394,6.5 17.249773,6.842685 16.53125,7.34375 C 15.812727,7.844815 15.5,8.431952 15.5,9.03125 L 15.5,33.75 C 15.5,36.591524 16.090474,39.147929 17,40.90625 C 17.909526,42.664571 19.034198,43.5 20.0625,43.5 L 28.9375,43.5 C 29.965802,43.5 31.090474,42.664571 32,40.90625 C 32.909526,39.147929 33.5,36.591523 33.5,33.75 L 33.5,9.03125 C 33.5,8.431952 33.187274,7.844815 32.46875,7.34375 C 31.750226,6.842685 30.656606,6.5 29.4375,6.5 L 19.5625,6.5 z "
       id="path7896"
       sodipodi:nodetypes="csccsccsccscc" />
    <path
       style="fill:none;fill-opacity:1;fill-rule:evenodd;stroke:url(#linearGradient8010);stroke-width:1.00000012px;stroke-linecap:round;stroke-linejoin:miter;stroke-opacity:1"
       d="M 25.5,41.558522 L 25.5,40.5"
       id="path7900" />
    <path
       style="fill:none;fill-opacity:1;fill-rule:evenodd;stroke:url(#linearGradient8006);stroke-width:1px;stroke-linecap:round;stroke-linejoin:miter;stroke-opacity:1"
       d="M 23.5,41.558522 L 23.5,40.558522"
       id="path7905"
       sodipodi:nodetypes="cc" />
    <rect
       style="opacity:1;fill:#3465a4;fill-opacity:1;fill-rule:evenodd;stroke:none;stroke-width:1;stroke-linecap:round;stroke-linejoin:round;stroke-miterlimit:4;stroke-dasharray:none;stroke-opacity:1"
       id="rect8057"
       width="1"
       height="1"
       x="25"
       y="14" />
    <rect
       style="opacity:1;fill:#3465a4;fill-opacity:1;fill-rule:evenodd;stroke:none;stroke-width:1;stroke-linecap:round;stroke-linejoin:round;stroke-miterlimit:4;stroke-dasharray:none;stroke-opacity:1"
       id="rect8059"
       width="1"
       height="2"
       x="27"
       y="13" />
    <rect
       style="opacity:1;fill:#3465a4;fill-opacity:1;fill-rule:evenodd;stroke:none;stroke-width:1;stroke-linecap:round;stroke-linejoin:round;stroke-miterlimit:4;stroke-dasharray:none;stroke-opacity:1"
       id="rect8061"
       width="1"
       height="3"
       x="29"
       y="12" />
    <g
       id="g8067"
       transform="translate(-50,-1)">
      <rect
         y="15"
         x="69"
         height="1"
         width="1"
         id="rect8063"
         style="opacity:1;fill:#3465a4;fill-opacity:1;fill-rule:evenodd;stroke:none;stroke-width:1;stroke-linecap:round;stroke-linejoin:round;stroke-miterlimit:4;stroke-dasharray:none;stroke-opacity:1" />
      <rect
         y="13"
         x="69"
         height="1"
         width="1"
         id="rect8065"
         style="opacity:1;fill:#3465a4;fill-opacity:1;fill-rule:evenodd;stroke:none;stroke-width:1;stroke-linecap:round;stroke-linejoin:round;stroke-miterlimit:4;stroke-dasharray:none;stroke-opacity:1" />
    </g>
    <rect
       style="opacity:1;fill:#3465a4;fill-opacity:1;fill-rule:evenodd;stroke:none;stroke-width:1;stroke-linecap:round;stroke-linejoin:round;stroke-miterlimit:4;stroke-dasharray:none;stroke-opacity:1"
       id="rect8074"
       width="3.0000002"
       height="1"
       x="19"
       y="19" />
    <rect
       style="opacity:1;fill:#3465a4;fill-opacity:1;fill-rule:evenodd;stroke:none;stroke-width:1;stroke-linecap:round;stroke-linejoin:round;stroke-miterlimit:4;stroke-dasharray:none;stroke-opacity:1"
       id="rect8076"
       width="3.0000002"
       height="1"
       x="27"
       y="19" />
    <rect
       style="opacity:0.39179107;fill:#729fcf;fill-opacity:1;fill-rule:evenodd;stroke:none;stroke-width:1;stroke-linecap:round;stroke-linejoin:round;stroke-miterlimit:4;stroke-dasharray:none;stroke-opacity:1"
       id="rect8078"
       width="13"
       height="1"
       x="18"
       y="18" />
    <rect
       style="opacity:0.09328356;fill:none;fill-opacity:1;fill-rule:evenodd;stroke:url(#linearGradient8242);stroke-width:0.99999994;stroke-linecap:round;stroke-linejoin:miter;stroke-miterlimit:4;stroke-dasharray:none;stroke-opacity:1"
       id="rect7980"
       width="12"
       height="9"
       x="18.5"
       y="11.5"
       rx="1.0075788"
       ry="1.0075788" />
    <path
       sodipodi:type="arc"
       style="opacity:1;fill:#eeeeec;fill-opacity:1;fill-rule:evenodd;stroke:none;stroke-width:1;stroke-linecap:round;stroke-linejoin:round;stroke-miterlimit:4;stroke-dasharray:none;stroke-opacity:1"
       id="path8224"
       sodipodi:cx="71.5"
       sodipodi:cy="1.5937499"
       sodipodi:rx="0.453125"
       sodipodi:ry="0.421875"
       d="M 71.953125 1.5937499 A 0.453125 0.421875 0 1 1  71.046875,1.5937499 A 0.453125 0.421875 0 1 1  71.953125 1.5937499 z"
       transform="matrix(1.6551692,0,0,1.7962963,-87.0946,-1.105035)" />
    <path
       style="fill:none;fill-opacity:1;fill-rule:evenodd;stroke:url(#linearGradient7511);stroke-width:0.99999994;stroke-linecap:round;stroke-linejoin:miter;stroke-miterlimit:4;stroke-opacity:1"
       d="M 16.5,24.631663 L 16.5,27.6875 C 16.5,31.386677 16.899906,34.184967 17.59375,36.15625 C 17.940672,37.141892 18.349737,37.906718 18.90625,38.5 C 19.462763,39.093282 20.209189,39.5 21,39.5 L 28,39.5 C 28.785425,39.5 29.535575,39.119774 30.09375,38.53125 C 30.651925,37.942726 31.058872,37.138877 31.40625,36.15625 C 32.101007,34.190996 32.5,31.417446 32.5,27.6875 L 32.5,24.631663 C 31.801719,23.004152 30.471547,23.5 28.96875,23.5 L 20.03125,23.5 C 18.17716,23.5 17.474359,23.061376 16.5,24.631663 z "
       id="path8355"
       sodipodi:nodetypes="ccssccssccccc" />
    <path
       style="fill:url(#linearGradient7532);fill-opacity:1;fill-rule:evenodd;stroke:url(#linearGradient7287);stroke-width:0.97000003;stroke-linecap:round;stroke-linejoin:round;stroke-miterlimit:4;stroke-dasharray:none;stroke-opacity:1"
       d="M 18.0625,24.5 C 17.750875,24.5 17.5,24.750875 17.5,25.0625 L 17.5,25.9375 C 17.5,26.249125 17.750875,26.5 18.0625,26.5 L 20.9375,26.5 C 21.249125,26.5 21.5,26.249125 21.5,25.9375 L 21.5,25.0625 C 21.5,24.750875 21.249125,24.5 20.9375,24.5 L 20.03125,24.5 L 18.0625,24.5 z M 23.0625,24.5 C 22.750875,24.5 22.5,24.750875 22.5,25.0625 L 22.5,25.9375 C 22.5,26.249125 22.750875,26.5 23.0625,26.5 L 25.9375,26.5 C 26.249125,26.5 26.5,26.249125 26.5,25.9375 L 26.5,25.0625 C 26.5,24.750875 26.249125,24.5 25.9375,24.5 L 23.0625,24.5 z M 28.0625,24.5 C 27.750875,24.5 27.5,24.750875 27.5,25.0625 L 27.5,25.9375 C 27.5,26.249125 27.750875,26.5 28.0625,26.5 L 30.9375,26.5 C 31.249125,26.5 31.5,26.249125 31.5,25.9375 L 31.5,25.0625 C 31.5,24.750875 31.249125,24.5 30.9375,24.5 L 28.96875,24.5 L 28.0625,24.5 z M 18.0625,27.5 C 17.772689,27.5 17.531798,27.718965 17.5,28 C 17.497607,28.021153 17.5,28.040686 17.5,28.0625 C 17.503018,28.442419 17.519661,28.797352 17.53125,29.15625 C 17.616416,29.358275 17.828781,29.5 18.0625,29.5 L 20.9375,29.5 C 21.249125,29.5 21.5,29.249125 21.5,28.9375 L 21.5,28.0625 C 21.5,27.750875 21.249125,27.5 20.9375,27.5 L 18.0625,27.5 z M 23.0625,27.5 C 22.750875,27.5 22.5,27.750875 22.5,28.0625 L 22.5,28.9375 C 22.5,29.249125 22.750875,29.5 23.0625,29.5 L 25.9375,29.5 C 26.249125,29.5 26.5,29.249125 26.5,28.9375 L 26.5,28.0625 C 26.5,27.750875 26.249125,27.5 25.9375,27.5 L 23.0625,27.5 z M 28.0625,27.5 C 27.750875,27.5 27.5,27.750875 27.5,28.0625 L 27.5,28.9375 C 27.5,29.249125 27.750875,29.5 28.0625,29.5 L 30.9375,29.5 C 31.171219,29.5 31.383584,29.358275 31.46875,29.15625 C 31.480339,28.794911 31.496982,28.445527 31.5,28.0625 C 31.500172,28.040628 31.499856,28.021943 31.5,28 C 31.468202,27.718965 31.227311,27.5 30.9375,27.5 L 28.0625,27.5 z M 18.0625,30.5 C 17.882716,30.5 17.727835,30.588256 17.625,30.71875 C 17.668776,31.320774 17.712015,31.906145 17.78125,32.4375 C 17.863498,32.484483 17.960623,32.5 18.0625,32.5 L 20.9375,32.5 C 21.249125,32.5 21.5,32.249125 21.5,31.9375 L 21.5,31.0625 C 21.5,30.750875 21.249125,30.5 20.9375,30.5 L 18.0625,30.5 z M 23.0625,30.5 C 22.750875,30.5 22.5,30.750875 22.5,31.0625 L 22.5,31.9375 C 22.5,32.249125 22.750875,32.5 23.0625,32.5 L 25.9375,32.5 C 26.249125,32.5 26.5,32.249125 26.5,31.9375 L 26.5,31.0625 C 26.5,30.750875 26.249125,30.5 25.9375,30.5 L 23.0625,30.5 z M 28.0625,30.5 C 27.750875,30.5 27.5,30.750875 27.5,31.0625 L 27.5,31.9375 C 27.5,32.249125 27.750875,32.5 28.0625,32.5 L 30.9375,32.5 C 31.039377,32.5 31.136502,32.484483 31.21875,32.4375 C 31.286593,31.911149 31.331935,31.315462 31.375,30.71875 C 31.272165,30.588256 31.117284,30.5 30.9375,30.5 L 28.0625,30.5 z M 17.96875,33.5 C 18.103209,34.248868 18.251972,34.921542 18.4375,35.5 L 20.9375,35.5 C 21.249125,35.5 21.5,35.249125 21.5,34.9375 L 21.5,34.0625 C 21.5,33.750875 21.249125,33.5 20.9375,33.5 L 18.0625,33.5 C 18.029779,33.5 17.999911,33.494688 17.96875,33.5 z M 23.0625,33.5 C 22.750875,33.5 22.5,33.750875 22.5,34.0625 L 22.5,34.9375 C 22.5,35.249125 22.750875,35.5 23.0625,35.5 L 25.9375,35.5 C 26.249125,35.5 26.5,35.249125 26.5,34.9375 L 26.5,34.0625 C 26.5,33.750875 26.249125,33.5 25.9375,33.5 L 23.0625,33.5 z M 28.0625,33.5 C 27.750875,33.5 27.5,33.750875 27.5,34.0625 L 27.5,34.9375 C 27.5,35.249125 27.750875,35.5 28.0625,35.5 L 30.5625,35.5 C 30.746275,34.925272 30.897969,34.245333 31.03125,33.5 C 31.000089,33.494688 30.970221,33.5 30.9375,33.5 L 28.0625,33.5 z M 18.9375,36.5 C 18.890307,36.5 18.855821,36.512357 18.8125,36.53125 C 19.410622,37.842551 20.169694,38.5 21,38.5 L 21.0625,38.5 C 21.296219,38.5 21.5,38.249125 21.5,37.9375 L 21.5,37.0625 C 21.5,36.750875 21.296218,36.5 21.0625,36.5 L 18.9375,36.5 z M 23.0625,36.5 C 22.750875,36.5 22.5,36.750875 22.5,37.0625 L 22.5,37.9375 C 22.5,38.249125 22.750875,38.5 23.0625,38.5 L 25.9375,38.5 C 26.249125,38.5 26.5,38.249125 26.5,37.9375 L 26.5,37.0625 C 26.5,36.750875 26.249125,36.5 25.9375,36.5 L 23.0625,36.5 z M 27.9375,36.5 C 27.703781,36.5 27.5,36.750875 27.5,37.0625 L 27.5,37.9375 C 27.5,38.249125 27.703782,38.5 27.9375,38.5 L 28,38.5 C 28.835261,38.5 29.587757,37.850072 30.1875,36.53125 C 30.144179,36.512357 30.109693,36.5 30.0625,36.5 L 27.9375,36.5 z "
       id="path8246" />
    <g
       id="g7493"
       style="opacity:0.85">
      <path
         sodipodi:nodetypes="ccccc"
         id="path7193"
         d="M 26.5,31.0625 C 26.5,30.750875 26.249125,30.5 25.9375,30.5 L 23.0625,30.5 C 22.750875,30.5 22.5,30.750875 22.5,31.0625 L 22.5,31.9375"
         style="opacity:1;fill:none;fill-opacity:1;fill-rule:evenodd;stroke:url(#linearGradient7491);stroke-width:1;stroke-linecap:round;stroke-linejoin:round;stroke-miterlimit:4;stroke-dasharray:none;stroke-opacity:1" />
      <path
         sodipodi:nodetypes="ccccc"
         id="path7195"
         d="M 26.5,34.0625 C 26.5,33.750875 26.249125,33.5 25.9375,33.5 L 23.0625,33.5 C 22.750875,33.5 22.5,33.750875 22.5,34.0625 L 22.5,34.9375"
         style="opacity:1;fill:none;fill-opacity:1;fill-rule:evenodd;stroke:url(#linearGradient7488);stroke-width:1;stroke-linecap:round;stroke-linejoin:round;stroke-miterlimit:4;stroke-dasharray:none;stroke-opacity:1" />
      <path
         sodipodi:nodetypes="ccccc"
         id="path7197"
         d="M 26.5,37.0625 C 26.5,36.750875 26.249125,36.5 25.9375,36.5 L 23.0625,36.5 C 22.750875,36.5 22.5,36.750875 22.5,37.0625 L 22.5,37.9375"
         style="opacity:1;fill:none;fill-opacity:1;fill-rule:evenodd;stroke:url(#linearGradient7485);stroke-width:1;stroke-linecap:round;stroke-linejoin:round;stroke-miterlimit:4;stroke-dasharray:none;stroke-opacity:1" />
      <path
         sodipodi:nodetypes="cccccc"
         id="path7191"
         d="M 21.5,25.0625 C 21.5,24.750875 21.249125,24.5 20.9375,24.5 L 20.03125,24.5 L 18.0625,24.5 C 17.750875,24.5 17.5,24.750875 17.5,25.0625 L 17.5,25.9375"
         style="opacity:1;fill:none;fill-opacity:1;fill-rule:evenodd;stroke:url(#linearGradient7482);stroke-width:1;stroke-linecap:round;stroke-linejoin:round;stroke-miterlimit:4;stroke-dasharray:none;stroke-opacity:1" />
      <path
         style="opacity:1;fill:none;fill-opacity:1;fill-rule:evenodd;stroke:url(#linearGradient7479);stroke-width:1;stroke-linecap:round;stroke-linejoin:round;stroke-miterlimit:4;stroke-dasharray:none;stroke-opacity:1"
         d="M 26.5,25.0625 C 26.5,24.750875 26.249125,24.5 25.9375,24.5 L 23.0625,24.5 C 22.750875,24.5 22.5,24.750875 22.5,25.0625 L 22.5,25.9375"
         id="path7311"
         sodipodi:nodetypes="ccccc" />
      <path
         style="opacity:1;fill:none;fill-opacity:1;fill-rule:evenodd;stroke:url(#linearGradient7476);stroke-width:1;stroke-linecap:round;stroke-linejoin:round;stroke-miterlimit:4;stroke-dasharray:none;stroke-opacity:1"
         d="M 31.5,25.0625 C 31.5,24.750875 31.249125,24.5 30.9375,24.5 L 28.96875,24.5 L 28.0625,24.5 C 27.750875,24.5 27.5,24.750875 27.5,25.0625 L 27.5,25.9375"
         id="path7313"
         sodipodi:nodetypes="cccccc" />
      <path
         sodipodi:nodetypes="cccccc"
         id="path7341"
         d="M 21.5,28.0625 C 21.5,27.750875 21.249125,27.5 20.9375,27.5 L 20.03125,27.5 L 18.0625,27.5 C 17.750875,27.5 17.5,27.750875 17.5,28.0625 L 17.5,28.9375"
         style="opacity:1;fill:none;fill-opacity:1;fill-rule:evenodd;stroke:url(#linearGradient7473);stroke-width:1;stroke-linecap:round;stroke-linejoin:round;stroke-miterlimit:4;stroke-dasharray:none;stroke-opacity:1" />
      <path
         style="opacity:1;fill:none;fill-opacity:1;fill-rule:evenodd;stroke:url(#linearGradient7470);stroke-width:1;stroke-linecap:round;stroke-linejoin:round;stroke-miterlimit:4;stroke-dasharray:none;stroke-opacity:1"
         d="M 26.5,28.0625 C 26.5,27.750875 26.249125,27.5 25.9375,27.5 L 23.0625,27.5 C 22.750875,27.5 22.5,27.750875 22.5,28.0625 L 22.5,28.9375"
         id="path7343"
         sodipodi:nodetypes="ccccc" />
      <path
         style="opacity:1;fill:none;fill-opacity:1;fill-rule:evenodd;stroke:url(#linearGradient7467);stroke-width:1;stroke-linecap:round;stroke-linejoin:round;stroke-miterlimit:4;stroke-dasharray:none;stroke-opacity:1"
         d="M 31.5,28.0625 C 31.5,27.750875 31.249125,27.5 30.9375,27.5 L 28.96875,27.5 L 28.0625,27.5 C 27.750875,27.5 27.5,27.750875 27.5,28.0625 L 27.5,28.9375"
         id="path7345"
         sodipodi:nodetypes="cccccc" />
      <path
         sodipodi:nodetypes="ccccc"
         id="path7353"
         d="M 21.5,31.0625 C 21.5,30.750875 21.249125,30.5 20.9375,30.5 L 18.0625,30.5 C 17.882716,30.5 17.727835,30.588256 17.625,30.71875 C 17.668776,31.320774 17.712015,31.906145 17.78125,32.4375"
         style="opacity:1;fill:none;fill-opacity:1;fill-rule:evenodd;stroke:url(#linearGradient7464);stroke-width:1;stroke-linecap:round;stroke-linejoin:round;stroke-miterlimit:4;stroke-dasharray:none;stroke-opacity:1" />
      <path
         sodipodi:nodetypes="ccccc"
         id="path7355"
         d="M 31.375,30.71875 C 31.272165,30.588256 31.117284,30.5 30.9375,30.5 L 28.0625,30.5 C 27.750875,30.5 27.5,30.750875 27.5,31.0625 L 27.5,31.9375"
         style="opacity:1;fill:none;fill-opacity:1;fill-rule:evenodd;stroke:url(#linearGradient7461);stroke-width:1;stroke-linecap:round;stroke-linejoin:round;stroke-miterlimit:4;stroke-dasharray:none;stroke-opacity:1" />
      <path
         sodipodi:nodetypes="ccccc"
         id="path7361"
         d="M 31.03125,33.5 C 31.000089,33.494688 30.970221,33.5 30.9375,33.5 L 28.0625,33.5 C 27.750875,33.5 27.5,33.750875 27.5,34.0625 L 27.5,34.9375"
         style="opacity:1;fill:none;fill-opacity:1;fill-rule:evenodd;stroke:url(#linearGradient7458);stroke-width:1;stroke-linecap:round;stroke-linejoin:round;stroke-miterlimit:4;stroke-dasharray:none;stroke-opacity:1" />
      <path
         sodipodi:nodetypes="ccccc"
         id="path7363"
         d="M 21.5,34.0625 C 21.5,33.750875 21.249125,33.5 20.9375,33.5 L 18.0625,33.5 C 18.029779,33.5 17.999911,33.494688 17.96875,33.5 C 18.103209,34.248868 18.251972,34.921542 18.4375,35.5"
         style="opacity:1;fill:none;fill-opacity:1;fill-rule:evenodd;stroke:url(#linearGradient7455);stroke-width:1;stroke-linecap:round;stroke-linejoin:round;stroke-miterlimit:4;stroke-dasharray:none;stroke-opacity:1" />
      <path
         sodipodi:nodetypes="cccc"
         id="path7369"
         d="M 21.5,37.0625 C 21.5,36.750875 21.296218,36.5 21.0625,36.5 L 18.9375,36.5 C 18.890307,36.5 18.855821,36.512357 18.8125,36.53125"
         style="opacity:1;fill:none;fill-opacity:1;fill-rule:evenodd;stroke:url(#linearGradient7452);stroke-width:1;stroke-linecap:round;stroke-linejoin:round;stroke-miterlimit:4;stroke-dasharray:none;stroke-opacity:1" />
      <path
         sodipodi:nodetypes="ccccc"
         id="path7371"
         d="M 30.1875,36.53125 C 30.144179,36.512357 30.109693,36.5 30.0625,36.5 L 27.9375,36.5 C 27.703781,36.5 27.5,36.750875 27.5,37.0625 L 27.5,37.9375"
         style="opacity:1;fill:none;fill-opacity:1;fill-rule:evenodd;stroke:url(#linearGradient7449);stroke-width:1;stroke-linecap:round;stroke-linejoin:round;stroke-miterlimit:4;stroke-dasharray:none;stroke-opacity:1" />
    </g>
    <g
       id="g7135"
       style="fill:#555753"
       transform="translate(0,1)" />
    <path
       style="fill:none;fill-opacity:1;fill-rule:evenodd;stroke:url(#linearGradient6116);stroke-width:1.00000012px;stroke-linecap:round;stroke-linejoin:miter;stroke-opacity:1"
       d="M 24.5,8.558522 L 24.5,7.5"
       id="path6112" />
    <path
       style="fill:none;fill-opacity:1;fill-rule:evenodd;stroke:url(#linearGradient6118);stroke-width:1px;stroke-linecap:round;stroke-linejoin:miter;stroke-opacity:1"
       d="M 22.5,8.558522 L 22.5,7.558522"
       id="path6114"
       sodipodi:nodetypes="cc" />
    <path
       style="fill:none;fill-opacity:1;fill-rule:evenodd;stroke:url(#linearGradient6122);stroke-width:1.00000012px;stroke-linecap:round;stroke-linejoin:miter;stroke-opacity:1"
       d="M 26.5,8.558522 L 26.5,7.5"
       id="path6120" />
  </g>
</svg>
