<?xml version="1.0" encoding="UTF-8" standalone="no"?>
<svg
   xmlns:dc="http://purl.org/dc/elements/1.1/"
   xmlns:cc="http://creativecommons.org/ns#"
   xmlns:rdf="http://www.w3.org/1999/02/22-rdf-syntax-ns#"
   xmlns:svg="http://www.w3.org/2000/svg"
   xmlns="http://www.w3.org/2000/svg"
   xmlns:sodipodi="http://sodipodi.sourceforge.net/DTD/sodipodi-0.dtd"
   xmlns:inkscape="http://www.inkscape.org/namespaces/inkscape"
   id="svg932"
   width="640px"
   version="1.1"
   height="640px"
   sodipodi:docname="chicago95_tmp_file.svg"
   inkscape:version="0.92.5 (2060ec1f9f, 2020-04-08)">
  <sodipodi:namedview
     pagecolor="#ffffff"
     bordercolor="#666666"
     borderopacity="1"
     objecttolerance="10"
     gridtolerance="10"
     guidetolerance="10"
     inkscape:pageopacity="0"
     inkscape:pageshadow="2"
     inkscape:window-width="640"
     inkscape:window-height="485"
     id="namedview469"
     showgrid="false"
     inkscape:zoom="0.36875"
     inkscape:cx="320"
     inkscape:cy="320"
     inkscape:window-x="0"
     inkscape:window-y="0"
     inkscape:window-maximized="0"
     inkscape:current-layer="svg932" />
  <metadata
     id="metadata936">
    <rdf:RDF>
      <cc:Work
         rdf:about="">
        <dc:format>image/svg+xml</dc:format>
        <dc:type
           rdf:resource="http://purl.org/dc/dcmitype/StillImage" />
      </cc:Work>
    </rdf:RDF>
  </metadata>
  <defs
     id="defs2" />
  <path
     style="fill:#008080"
     d="M 40 280 L 40 301 L 61 301 L 61 280 L 40 280 z "
     id="rect312" />
  <path
     style="fill:#c0c0c0"
     d="M 280 100 L 280 120 L 260 120 L 260 140 L 240 140 L 240 160 L 220 160 L 220 180 L 200 180 L 200 200 L 180 200 L 180 220 L 160 220 L 160 240 L 140 240 L 140 260 L 120 260 L 120 280 L 100 280 L 100 300 L 80 300 L 80 320 L 80 321 L 80 341 L 100 341 L 100 361 L 120 361 L 120 381 L 140 381 L 140 401 L 160 401 L 160 421 L 180 421 L 180 441 L 200 441 L 200 461 L 220 461 L 220 481 L 240 481 L 240 501 L 260 501 L 260 521 L 280 521 L 280 541 L 300 541 L 300 561 L 321 561 L 321 541 L 341 541 L 341 521 L 361 521 L 361 501 L 381 501 L 381 481 L 401 481 L 401 461 L 421 461 L 421 441 L 441 441 L 441 421 L 461 421 L 461 401 L 481 401 L 481 381 L 501 381 L 501 361 L 521 361 L 521 341 L 541 341 L 541 320 L 521 320 L 521 300 L 501 300 L 501 280 L 481 280 L 481 260 L 461 260 L 461 240 L 441 240 L 441 220 L 421 220 L 421 200 L 401 200 L 401 180 L 381 180 L 381 160 L 361 160 L 361 140 L 341 140 L 341 120 L 321 120 L 321 100 L 301 100 L 300 100 L 280 100 z "
     id="rect890" />
  <path
     style="fill:#ffffff"
     d="M 280 60 L 280 80 L 260 80 L 260 100 L 240 100 L 240 120 L 220 120 L 220 140 L 200 140 L 200 160 L 180 160 L 180 180 L 160 180 L 160 200 L 140 200 L 140 220 L 120 220 L 120 240 L 100 240 L 100 260 L 80 260 L 80 280 L 60 280 L 60 300 L 40 300 L 40 320 L 40 321 L 40 341 L 60 341 L 60 361 L 80 361 L 80 381 L 100 381 L 100 401 L 120 401 L 120 421 L 140 421 L 140 441 L 160 441 L 160 461 L 180 461 L 180 481 L 200 481 L 200 501 L 220 501 L 220 521 L 240 521 L 240 541 L 260 541 L 260 561 L 280 561 L 280 581 L 301 581 L 301 561 L 301 560 L 301 540 L 281 540 L 281 520 L 261 520 L 261 500 L 241 500 L 241 480 L 221 480 L 221 460 L 201 460 L 201 440 L 181 440 L 181 420 L 161 420 L 161 400 L 141 400 L 141 380 L 121 380 L 121 360 L 101 360 L 101 340 L 81 340 L 81 321 L 81 320 L 81 301 L 101 301 L 101 281 L 121 281 L 121 261 L 141 261 L 141 241 L 161 241 L 161 221 L 181 221 L 181 201 L 201 201 L 201 181 L 221 181 L 221 161 L 241 161 L 241 141 L 261 141 L 261 121 L 281 121 L 281 101 L 300 101 L 301 101 L 320 101 L 320 121 L 340 121 L 340 141 L 360 141 L 360 161 L 380 161 L 380 181 L 400 181 L 400 201 L 420 201 L 420 221 L 440 221 L 440 241 L 460 241 L 460 261 L 480 261 L 480 281 L 500 281 L 500 301 L 520 301 L 520 321 L 540 321 L 540 341 L 560 341 L 561 341 L 581 341 L 581 320 L 561 320 L 561 300 L 541 300 L 541 280 L 521 280 L 521 260 L 501 260 L 501 240 L 481 240 L 481 220 L 461 220 L 461 200 L 441 200 L 441 180 L 421 180 L 421 160 L 401 160 L 401 140 L 381 140 L 381 120 L 361 120 L 361 100 L 341 100 L 341 80 L 321 80 L 321 60 L 301 60 L 300 60 L 280 60 z "
     id="rect904" />
  <path
     style="fill:#808080"
     d="M 320 60 L 320 81 L 340 81 L 340 101 L 360 101 L 360 121 L 380 121 L 380 141 L 400 141 L 400 161 L 420 161 L 420 181 L 440 181 L 440 201 L 460 201 L 460 221 L 480 221 L 480 241 L 500 241 L 500 261 L 520 261 L 520 281 L 540 281 L 540 301 L 560 301 L 561 301 L 581 301 L 581 280 L 561 280 L 561 260 L 541 260 L 541 240 L 521 240 L 521 220 L 501 220 L 501 200 L 481 200 L 481 180 L 461 180 L 461 160 L 441 160 L 441 140 L 421 140 L 421 120 L 401 120 L 401 100 L 381 100 L 381 80 L 361 80 L 361 60 L 341 60 L 340 60 L 320 60 z M 520 340 L 520 360 L 500 360 L 500 380 L 480 380 L 480 400 L 460 400 L 460 420 L 440 420 L 440 440 L 420 440 L 420 460 L 400 460 L 400 480 L 380 480 L 380 500 L 360 500 L 360 520 L 340 520 L 340 540 L 320 540 L 320 560 L 300 560 L 300 580 L 300 581 L 300 601 L 321 601 L 321 581 L 341 581 L 341 561 L 361 561 L 361 541 L 381 541 L 381 521 L 401 521 L 401 501 L 421 501 L 421 481 L 441 481 L 441 461 L 461 461 L 461 441 L 481 441 L 481 421 L 501 421 L 501 401 L 521 401 L 521 381 L 541 381 L 541 361 L 561 361 L 561 340 L 541 340 L 540 340 L 520 340 z "
     id="rect918" />
  <path
     style="fill:#000000"
     d="M 560 300 L 560 321 L 580 321 L 580 340 L 560 340 L 560 360 L 540 360 L 540 380 L 520 380 L 520 400 L 500 400 L 500 420 L 480 420 L 480 440 L 460 440 L 460 460 L 440 460 L 440 480 L 420 480 L 420 500 L 400 500 L 400 520 L 380 520 L 380 540 L 360 540 L 360 560 L 340 560 L 340 580 L 320 580 L 320 600 L 301 600 L 301 580 L 281 580 L 281 560 L 261 560 L 261 540 L 241 540 L 241 520 L 221 520 L 221 500 L 201 500 L 201 480 L 181 480 L 181 460 L 161 460 L 161 440 L 141 440 L 141 420 L 121 420 L 121 400 L 101 400 L 101 380 L 81 380 L 81 360 L 61 360 L 61 340 L 41 340 L 41 320 L 20 320 L 20 340 L 20 341 L 20 361 L 40 361 L 40 381 L 60 381 L 60 401 L 80 401 L 80 421 L 100 421 L 100 441 L 120 441 L 120 461 L 140 461 L 140 481 L 160 481 L 160 501 L 180 501 L 180 521 L 200 521 L 200 541 L 220 541 L 220 561 L 240 561 L 240 581 L 260 581 L 260 601 L 280 601 L 280 621 L 300 621 L 300 641 L 321 641 L 321 621 L 341 621 L 341 601 L 361 601 L 361 581 L 381 581 L 381 561 L 401 561 L 401 541 L 421 541 L 421 521 L 441 521 L 441 501 L 461 501 L 461 481 L 481 481 L 481 461 L 501 461 L 501 441 L 521 441 L 521 421 L 541 421 L 541 401 L 561 401 L 561 381 L 581 381 L 581 361 L 601 361 L 601 341 L 621 341 L 621 320 L 601 320 L 601 300 L 581 300 L 580 300 L 560 300 z "
     id="rect930" />
</svg>
