<?xml version="1.0" encoding="UTF-8" standalone="no"?>
<svg
   xmlns:dc="http://purl.org/dc/elements/1.1/"
   xmlns:cc="http://creativecommons.org/ns#"
   xmlns:rdf="http://www.w3.org/1999/02/22-rdf-syntax-ns#"
   xmlns:svg="http://www.w3.org/2000/svg"
   xmlns="http://www.w3.org/2000/svg"
   height="960px"
   version="1.1"
   width="960px"
   id="svg2864">
  <metadata
     id="metadata2868">
    <rdf:RDF>
      <cc:Work
         rdf:about="">
        <dc:format>image/svg+xml</dc:format>
        <dc:type
           rdf:resource="http://purl.org/dc/dcmitype/StillImage" />
      </cc:Work>
    </rdf:RDF>
  </metadata>
  <defs
     id="defs2" />
  <path
     id="rect2456"
     d="M 120 180 L 120 200 L 140 200 L 160 200 L 160 180 L 140 180 L 120 180 z M 380 280 L 380 300 L 380 320 L 380 340 L 380 360 L 400 360 L 420 360 L 440 360 L 460 360 L 480 360 L 500 360 L 520 360 L 540 360 L 560 360 L 580 360 L 600 360 L 620 360 L 640 360 L 660 360 L 680 360 L 700 360 L 700 340 L 700 320 L 700 300 L 700 280 L 680 280 L 660 280 L 640 280 L 620 280 L 600 280 L 580 280 L 560 280 L 540 280 L 520 280 L 500 280 L 480 280 L 460 280 L 440 280 L 420 280 L 400 280 L 380 280 z M 120 300 L 120 320 L 140 320 L 160 320 L 160 300 L 140 300 L 120 300 z M 120 420 L 120 440 L 140 440 L 160 440 L 160 420 L 140 420 L 120 420 z M 120 540 L 120 560 L 140 560 L 160 560 L 160 540 L 140 540 L 120 540 z M 120 660 L 120 680 L 140 680 L 160 680 L 160 660 L 140 660 L 120 660 z M 120 780 L 120 800 L 140 800 L 160 800 L 160 780 L 140 780 L 120 780 z "
     style="fill:#ffffff" />
  <path
     id="rect2460"
     d="M 160 180 L 160 200 L 180 200 L 200 200 L 200 180 L 180 180 L 160 180 z M 360 260 L 360 280 L 360 300 L 360 320 L 360 340 L 360 360 L 380 360 L 380 340 L 380 320 L 380 300 L 380 280 L 400 280 L 420 280 L 440 280 L 460 280 L 480 280 L 500 280 L 520 280 L 540 280 L 560 280 L 580 280 L 600 280 L 620 280 L 640 280 L 660 280 L 680 280 L 700 280 L 700 260 L 680 260 L 660 260 L 640 260 L 620 260 L 600 260 L 580 260 L 560 260 L 540 260 L 520 260 L 500 260 L 480 260 L 460 260 L 440 260 L 420 260 L 400 260 L 380 260 L 360 260 z M 160 300 L 160 320 L 180 320 L 200 320 L 200 300 L 180 300 L 160 300 z M 160 420 L 160 440 L 180 440 L 200 440 L 200 420 L 180 420 L 160 420 z M 160 540 L 160 560 L 180 560 L 200 560 L 200 540 L 180 540 L 160 540 z M 160 660 L 160 680 L 180 680 L 200 680 L 200 660 L 180 660 L 160 660 z M 160 780 L 160 800 L 180 800 L 200 800 L 200 780 L 180 780 L 160 780 z "
     style="fill:#c0c0c0" />
  <path
     id="rect2738"
     d="M 200 100 L 200 120 L 200 140 L 200 160 L 220 160 L 220 140 L 220 120 L 220 100 L 200 100 z M 200 180 L 200 200 L 220 200 L 240 200 L 240 180 L 220 180 L 200 180 z M 240 200 L 240 220 L 260 220 L 260 200 L 240 200 z M 240 220 L 220 220 L 200 220 L 200 240 L 200 260 L 200 280 L 220 280 L 220 260 L 220 240 L 240 240 L 240 220 z M 200 300 L 200 320 L 220 320 L 240 320 L 240 300 L 220 300 L 200 300 z M 240 320 L 240 340 L 260 340 L 260 320 L 240 320 z M 240 340 L 220 340 L 200 340 L 200 360 L 200 380 L 200 400 L 220 400 L 220 380 L 220 360 L 240 360 L 240 340 z M 200 420 L 200 440 L 220 440 L 240 440 L 240 420 L 220 420 L 200 420 z M 240 440 L 240 460 L 260 460 L 260 440 L 240 440 z M 240 460 L 220 460 L 200 460 L 200 480 L 200 500 L 200 520 L 220 520 L 220 500 L 220 480 L 240 480 L 240 460 z M 200 540 L 200 560 L 220 560 L 240 560 L 240 540 L 220 540 L 200 540 z M 240 560 L 240 580 L 260 580 L 260 560 L 240 560 z M 240 580 L 220 580 L 200 580 L 200 600 L 200 620 L 200 640 L 220 640 L 220 620 L 220 600 L 240 600 L 240 580 z M 200 660 L 200 680 L 220 680 L 240 680 L 240 660 L 220 660 L 200 660 z M 240 680 L 240 700 L 260 700 L 260 680 L 240 680 z M 240 700 L 220 700 L 200 700 L 200 720 L 200 740 L 200 760 L 220 760 L 220 740 L 220 720 L 240 720 L 240 700 z M 200 780 L 200 800 L 220 800 L 240 800 L 240 780 L 220 780 L 200 780 z M 240 800 L 240 820 L 260 820 L 260 800 L 240 800 z M 240 820 L 220 820 L 200 820 L 200 840 L 200 860 L 200 880 L 220 880 L 220 860 L 220 840 L 240 840 L 240 820 z "
     style="fill:#808080" />
  <path
     id="rect2796"
     d="M 220 100 L 220 120 L 220 140 L 220 160 L 240 160 L 240 180 L 260 180 L 260 200 L 260 220 L 240 220 L 240 240 L 220 240 L 220 260 L 220 280 L 240 280 L 240 300 L 260 300 L 260 320 L 260 340 L 240 340 L 240 360 L 220 360 L 220 380 L 220 400 L 240 400 L 240 420 L 260 420 L 260 440 L 260 460 L 240 460 L 240 480 L 220 480 L 220 500 L 220 520 L 240 520 L 240 540 L 260 540 L 260 560 L 260 580 L 240 580 L 240 600 L 220 600 L 220 620 L 220 640 L 240 640 L 240 660 L 260 660 L 260 680 L 260 700 L 240 700 L 240 720 L 220 720 L 220 740 L 220 760 L 240 760 L 240 780 L 260 780 L 260 800 L 260 820 L 240 820 L 240 840 L 220 840 L 220 860 L 220 880 L 240 880 L 260 880 L 280 880 L 300 880 L 320 880 L 340 880 L 360 880 L 380 880 L 400 880 L 420 880 L 440 880 L 460 880 L 480 880 L 500 880 L 520 880 L 540 880 L 560 880 L 580 880 L 600 880 L 620 880 L 640 880 L 660 880 L 680 880 L 700 880 L 720 880 L 740 880 L 760 880 L 780 880 L 800 880 L 800 860 L 820 860 L 820 840 L 820 820 L 820 800 L 820 780 L 820 760 L 820 740 L 820 720 L 820 700 L 820 680 L 820 660 L 820 640 L 820 620 L 820 600 L 820 580 L 820 560 L 820 540 L 820 520 L 820 500 L 820 480 L 820 460 L 820 440 L 820 420 L 820 400 L 820 380 L 820 360 L 820 340 L 820 320 L 820 300 L 820 280 L 820 260 L 820 240 L 820 220 L 820 200 L 820 180 L 820 160 L 820 140 L 820 120 L 800 120 L 800 100 L 780 100 L 760 100 L 740 100 L 720 100 L 700 100 L 680 100 L 660 100 L 640 100 L 620 100 L 600 100 L 580 100 L 560 100 L 540 100 L 520 100 L 500 100 L 480 100 L 460 100 L 440 100 L 420 100 L 400 100 L 380 100 L 360 100 L 340 100 L 320 100 L 300 100 L 280 100 L 260 100 L 240 100 L 220 100 z M 360 240 L 380 240 L 400 240 L 420 240 L 440 240 L 460 240 L 480 240 L 500 240 L 520 240 L 540 240 L 560 240 L 580 240 L 600 240 L 620 240 L 640 240 L 660 240 L 680 240 L 700 240 L 700 260 L 720 260 L 720 280 L 720 300 L 720 320 L 720 340 L 720 360 L 700 360 L 700 380 L 680 380 L 660 380 L 640 380 L 620 380 L 600 380 L 580 380 L 560 380 L 540 380 L 520 380 L 500 380 L 480 380 L 460 380 L 440 380 L 420 380 L 400 380 L 380 380 L 360 380 L 360 360 L 340 360 L 340 340 L 340 320 L 340 300 L 340 280 L 340 260 L 360 260 L 360 240 z "
     style="fill:#008080" />
  <path
     id="rect2862"
     d="M 160 80 L 160 100 L 160 120 L 160 140 L 160 160 L 140 160 L 120 160 L 120 180 L 140 180 L 160 180 L 180 180 L 200 180 L 220 180 L 240 180 L 240 160 L 220 160 L 200 160 L 200 140 L 200 120 L 200 100 L 220 100 L 240 100 L 260 100 L 280 100 L 300 100 L 320 100 L 340 100 L 360 100 L 380 100 L 400 100 L 420 100 L 440 100 L 460 100 L 480 100 L 500 100 L 520 100 L 540 100 L 560 100 L 580 100 L 600 100 L 620 100 L 640 100 L 660 100 L 680 100 L 700 100 L 720 100 L 740 100 L 760 100 L 780 100 L 800 100 L 800 80 L 780 80 L 760 80 L 740 80 L 720 80 L 700 80 L 680 80 L 660 80 L 640 80 L 620 80 L 600 80 L 580 80 L 560 80 L 540 80 L 520 80 L 500 80 L 480 80 L 460 80 L 440 80 L 420 80 L 400 80 L 380 80 L 360 80 L 340 80 L 320 80 L 300 80 L 280 80 L 260 80 L 240 80 L 220 80 L 200 80 L 180 80 L 160 80 z M 800 100 L 800 120 L 820 120 L 820 100 L 800 100 z M 820 120 L 820 140 L 820 160 L 820 180 L 820 200 L 820 220 L 820 240 L 820 260 L 820 280 L 820 300 L 820 320 L 820 340 L 820 360 L 820 380 L 820 400 L 820 420 L 820 440 L 820 460 L 820 480 L 820 500 L 820 520 L 820 540 L 820 560 L 820 580 L 820 600 L 820 620 L 820 640 L 820 660 L 820 680 L 820 700 L 820 720 L 820 740 L 820 760 L 820 780 L 820 800 L 820 820 L 820 840 L 820 860 L 840 860 L 840 840 L 840 820 L 840 800 L 840 780 L 840 760 L 840 740 L 840 720 L 840 700 L 840 680 L 840 660 L 840 640 L 840 620 L 840 600 L 840 580 L 840 560 L 840 540 L 840 520 L 840 500 L 840 480 L 840 460 L 840 440 L 840 420 L 840 400 L 840 380 L 840 360 L 840 340 L 840 320 L 840 300 L 840 280 L 840 260 L 840 240 L 840 220 L 840 200 L 840 180 L 840 160 L 840 140 L 840 120 L 820 120 z M 820 860 L 800 860 L 800 880 L 820 880 L 820 860 z M 800 880 L 780 880 L 760 880 L 740 880 L 720 880 L 700 880 L 680 880 L 660 880 L 640 880 L 620 880 L 600 880 L 580 880 L 560 880 L 540 880 L 520 880 L 500 880 L 480 880 L 460 880 L 440 880 L 420 880 L 400 880 L 380 880 L 360 880 L 340 880 L 320 880 L 300 880 L 280 880 L 260 880 L 240 880 L 220 880 L 200 880 L 200 860 L 200 840 L 200 820 L 220 820 L 240 820 L 240 800 L 220 800 L 200 800 L 180 800 L 160 800 L 140 800 L 120 800 L 120 820 L 140 820 L 160 820 L 160 840 L 160 860 L 160 880 L 160 900 L 180 900 L 200 900 L 220 900 L 240 900 L 260 900 L 280 900 L 300 900 L 320 900 L 340 900 L 360 900 L 380 900 L 400 900 L 420 900 L 440 900 L 460 900 L 480 900 L 500 900 L 520 900 L 540 900 L 560 900 L 580 900 L 600 900 L 620 900 L 640 900 L 660 900 L 680 900 L 700 900 L 720 900 L 740 900 L 760 900 L 780 900 L 800 900 L 800 880 z M 120 800 L 120 780 L 100 780 L 100 800 L 120 800 z M 120 780 L 140 780 L 160 780 L 180 780 L 200 780 L 220 780 L 240 780 L 240 760 L 220 760 L 200 760 L 200 740 L 200 720 L 200 700 L 220 700 L 240 700 L 240 680 L 220 680 L 200 680 L 180 680 L 160 680 L 140 680 L 120 680 L 120 700 L 140 700 L 160 700 L 160 720 L 160 740 L 160 760 L 140 760 L 120 760 L 120 780 z M 120 680 L 120 660 L 100 660 L 100 680 L 120 680 z M 120 660 L 140 660 L 160 660 L 180 660 L 200 660 L 220 660 L 240 660 L 240 640 L 220 640 L 200 640 L 200 620 L 200 600 L 200 580 L 220 580 L 240 580 L 240 560 L 220 560 L 200 560 L 180 560 L 160 560 L 140 560 L 120 560 L 120 580 L 140 580 L 160 580 L 160 600 L 160 620 L 160 640 L 140 640 L 120 640 L 120 660 z M 120 560 L 120 540 L 100 540 L 100 560 L 120 560 z M 120 540 L 140 540 L 160 540 L 180 540 L 200 540 L 220 540 L 240 540 L 240 520 L 220 520 L 200 520 L 200 500 L 200 480 L 200 460 L 220 460 L 240 460 L 240 440 L 220 440 L 200 440 L 180 440 L 160 440 L 140 440 L 120 440 L 120 460 L 140 460 L 160 460 L 160 480 L 160 500 L 160 520 L 140 520 L 120 520 L 120 540 z M 120 440 L 120 420 L 100 420 L 100 440 L 120 440 z M 120 420 L 140 420 L 160 420 L 180 420 L 200 420 L 220 420 L 240 420 L 240 400 L 220 400 L 200 400 L 200 380 L 200 360 L 200 340 L 220 340 L 240 340 L 240 320 L 220 320 L 200 320 L 180 320 L 160 320 L 140 320 L 120 320 L 120 340 L 140 340 L 160 340 L 160 360 L 160 380 L 160 400 L 140 400 L 120 400 L 120 420 z M 120 320 L 120 300 L 100 300 L 100 320 L 120 320 z M 120 300 L 140 300 L 160 300 L 180 300 L 200 300 L 220 300 L 240 300 L 240 280 L 220 280 L 200 280 L 200 260 L 200 240 L 200 220 L 220 220 L 240 220 L 240 200 L 220 200 L 200 200 L 180 200 L 160 200 L 140 200 L 120 200 L 120 220 L 140 220 L 160 220 L 160 240 L 160 260 L 160 280 L 140 280 L 120 280 L 120 300 z M 120 200 L 120 180 L 100 180 L 100 200 L 120 200 z M 240 200 L 260 200 L 260 180 L 240 180 L 240 200 z M 240 300 L 240 320 L 260 320 L 260 300 L 240 300 z M 240 420 L 240 440 L 260 440 L 260 420 L 240 420 z M 240 540 L 240 560 L 260 560 L 260 540 L 240 540 z M 240 660 L 240 680 L 260 680 L 260 660 L 240 660 z M 240 780 L 240 800 L 260 800 L 260 780 L 240 780 z M 360 240 L 360 260 L 380 260 L 400 260 L 420 260 L 440 260 L 460 260 L 480 260 L 500 260 L 520 260 L 540 260 L 560 260 L 580 260 L 600 260 L 620 260 L 640 260 L 660 260 L 680 260 L 700 260 L 700 240 L 680 240 L 660 240 L 640 240 L 620 240 L 600 240 L 580 240 L 560 240 L 540 240 L 520 240 L 500 240 L 480 240 L 460 240 L 440 240 L 420 240 L 400 240 L 380 240 L 360 240 z M 700 260 L 700 280 L 700 300 L 700 320 L 700 340 L 700 360 L 720 360 L 720 340 L 720 320 L 720 300 L 720 280 L 720 260 L 700 260 z M 700 360 L 680 360 L 660 360 L 640 360 L 620 360 L 600 360 L 580 360 L 560 360 L 540 360 L 520 360 L 500 360 L 480 360 L 460 360 L 440 360 L 420 360 L 400 360 L 380 360 L 360 360 L 360 380 L 380 380 L 400 380 L 420 380 L 440 380 L 460 380 L 480 380 L 500 380 L 520 380 L 540 380 L 560 380 L 580 380 L 600 380 L 620 380 L 640 380 L 660 380 L 680 380 L 700 380 L 700 360 z M 360 360 L 360 340 L 360 320 L 360 300 L 360 280 L 360 260 L 340 260 L 340 280 L 340 300 L 340 320 L 340 340 L 340 360 L 360 360 z "
     style="fill:#000000" />
</svg>
