<?xml version="1.0" encoding="UTF-8" standalone="no"?>
<svg
   xmlns:dc="http://purl.org/dc/elements/1.1/"
   xmlns:cc="http://creativecommons.org/ns#"
   xmlns:rdf="http://www.w3.org/1999/02/22-rdf-syntax-ns#"
   xmlns:svg="http://www.w3.org/2000/svg"
   xmlns="http://www.w3.org/2000/svg"
   height="960px"
   version="1.1"
   width="960px"
   id="svg1998">
  <metadata
     id="metadata2002">
    <rdf:RDF>
      <cc:Work
         rdf:about="">
        <dc:format>image/svg+xml</dc:format>
        <dc:type
           rdf:resource="http://purl.org/dc/dcmitype/StillImage" />
      </cc:Work>
    </rdf:RDF>
  </metadata>
  <defs
     id="defs2" />
  <path
     id="rect8"
     d="M 400 0 L 400 20 L 420 20 L 420 0 L 400 0 z "
     style="opacity:0.99607843;fill:#204e94" />
  <path
     id="rect16"
     d="M 380 20 L 380 40 L 400 40 L 400 20 L 380 20 z "
     style="fill:#1048a4" />
  <path
     id="rect18"
     d="M 400 20 L 400 40 L 420 40 L 420 20 L 400 20 z "
     style="fill:#184699" />
  <path
     id="rect32"
     d="M 400 40 L 400 60 L 420 60 L 420 40 L 400 40 z "
     style="fill:#18479b" />
  <path
     id="rect44"
     d="M 340 60 L 340 80 L 360 80 L 360 60 L 340 60 z "
     style="fill:#8290d6" />
  <path
     id="rect48"
     d="M 380 60 L 380 80 L 400 80 L 400 60 L 380 60 z "
     style="fill:#0740b7" />
  <path
     id="rect50"
     d="M 400 60 L 400 80 L 420 80 L 420 60 L 400 60 z "
     style="fill:#1946a6" />
  <path
     id="rect62"
     d="M 320 80 L 320 100 L 340 100 L 340 80 L 320 80 z "
     style="fill:#8694d8" />
  <path
     id="rect66"
     d="M 360 80 L 360 100 L 380 100 L 380 80 L 360 80 z "
     style="opacity:0.99607843;fill:#3b60d3" />
  <path
     id="rect68"
     d="M 380 80 L 380 100 L 400 100 L 400 80 L 380 80 z "
     style="fill:#0537cf" />
  <path
     id="rect70"
     d="M 400 80 L 400 100 L 420 100 L 420 80 L 400 80 z "
     style="fill:#1d3bb4" />
  <path
     id="rect84"
     d="M 340 100 L 340 120 L 360 120 L 360 100 L 340 100 z "
     style="fill:#5774d6" />
  <path
     id="rect86"
     d="M 360 100 L 360 120 L 380 120 L 380 100 L 360 100 z "
     style="opacity:0.99607843;fill:#3864dd" />
  <path
     id="rect88"
     d="M 380 100 L 380 120 L 400 120 L 400 100 L 380 100 z "
     style="fill:#092ee6" />
  <path
     id="rect90"
     d="M 400 100 L 400 120 L 420 120 L 420 100 L 400 100 z "
     style="fill:#1f36bb" />
  <path
     id="rect120"
     d="M 320 120 L 320 140 L 340 140 L 340 120 L 320 120 z "
     style="opacity:0.99607843;fill:#5673d5" />
  <path
     id="rect122"
     d="M 340 120 L 340 140 L 360 140 L 360 120 L 340 120 z "
     style="opacity:0.99607843;fill:#5a7be4" />
  <path
     id="rect124"
     d="M 360 120 L 360 140 L 380 140 L 380 120 L 360 120 z "
     style="opacity:0.99607843;fill:#3e5cec" />
  <path
     id="rect156"
     d="M 360 40 L 360 60 L 380 60 L 380 40 L 360 40 z M 300 100 L 300 120 L 320 120 L 320 100 L 300 100 z M 300 120 L 280 120 L 280 140 L 300 140 L 300 120 z M 280 140 L 260 140 L 260 160 L 280 160 L 280 140 z "
     style="opacity:0.99607843;fill:#617eca" />
  <path
     id="rect162"
     d="M 300 140 L 300 160 L 320 160 L 340 160 L 340 140 L 320 140 L 300 140 z "
     style="fill:#5a7add" />
  <path
     id="rect164"
     d="M 340 140 L 340 160 L 360 160 L 360 140 L 340 140 z "
     style="fill:#5f75ed" />
  <path
     id="rect166"
     d="M 360 140 L 360 160 L 380 160 L 380 140 L 360 140 z "
     style="opacity:0.99607843;fill:#4257f0" />
  <path
     id="rect168"
     d="M 380 140 L 380 160 L 400 160 L 400 140 L 380 140 z "
     style="fill:#0f25e7" />
  <path
     id="rect178"
     d="M 540 140 L 540 160 L 560 160 L 560 140 L 540 140 z "
     style="fill:#184e9c" />
  <path
     id="rect192"
     d="M 680 140 L 680 160 L 700 160 L 700 140 L 680 140 z "
     style="fill:#2354b4" />
  <path
     id="rect194"
     d="M 700 140 L 700 160 L 720 160 L 720 140 L 700 140 z "
     style="fill:#003288" />
  <path
     id="rect198"
     d="M 240 160 L 240 180 L 260 180 L 260 160 L 240 160 z "
     style="fill:#375db8" />
  <path
     id="rect202"
     d="M 280 160 L 280 180 L 300 180 L 300 160 L 280 160 z "
     style="fill:#5a79dd" />
  <path
     id="rect206"
     d="M 300 160 L 300 180 L 320 180 L 340 180 L 340 160 L 320 160 L 300 160 z "
     style="fill:#5e73ea" />
  <path
     id="rect210"
     d="M 360 160 L 360 180 L 380 180 L 380 160 L 360 160 z "
     style="opacity:0.99607843;fill:#4655ee" />
  <path
     id="rect212"
     d="M 380 160 L 380 180 L 400 180 L 400 160 L 380 160 z "
     style="fill:#1023de" />
  <path
     id="rect214"
     d="M 400 160 L 400 180 L 420 180 L 420 160 L 400 160 z "
     style="fill:#1f34b5" />
  <path
     id="rect222"
     d="M 540 160 L 540 180 L 560 180 L 560 160 L 540 160 z "
     style="fill:#114898" />
  <path
     id="rect224"
     d="M 560 160 L 560 180 L 580 180 L 580 160 L 560 160 z "
     style="fill:#6577d9" />
  <path
     id="rect226"
     d="M 580 160 L 580 180 L 600 180 L 600 160 L 580 160 z "
     style="opacity:0.99607843;fill:#5975d7" />
  <path
     id="rect228"
     d="M 600 160 L 600 180 L 620 180 L 620 160 L 600 160 z "
     style="fill:#5873d9" />
  <path
     id="rect230"
     d="M 620 160 L 620 180 L 640 180 L 640 160 L 620 160 z "
     style="fill:#5673da" />
  <path
     id="rect234"
     d="M 640 160 L 640 180 L 660 180 L 680 180 L 680 160 L 660 160 L 640 160 z "
     style="fill:#5272d9" />
  <path
     id="rect236"
     d="M 680 160 L 680 180 L 700 180 L 700 160 L 680 160 z "
     style="fill:#164ec2" />
  <path
     id="rect238"
     d="M 700 160 L 700 180 L 720 180 L 720 160 L 700 160 z "
     style="fill:#002d95" />
  <path
     id="rect244"
     d="M 240 180 L 240 200 L 260 200 L 260 180 L 240 180 z "
     style="fill:#355db6" />
  <path
     id="rect256"
     d="M 360 180 L 360 200 L 380 200 L 380 180 L 360 180 z "
     style="opacity:0.99607843;fill:#4654ee" />
  <path
     id="rect268"
     d="M 540 180 L 540 200 L 560 200 L 560 180 L 540 180 z "
     style="fill:#144694" />
  <path
     id="rect270"
     d="M 560 180 L 560 200 L 580 200 L 580 180 L 560 180 z "
     style="fill:#657fdb" />
  <path
     id="rect272"
     d="M 580 180 L 580 200 L 600 200 L 600 180 L 580 180 z "
     style="opacity:0.99607843;fill:#5b7be1" />
  <path
     id="rect274"
     d="M 600 180 L 600 200 L 620 200 L 620 180 L 600 180 z "
     style="fill:#5c7aea" />
  <path
     id="rect276"
     d="M 620 180 L 620 200 L 640 200 L 640 180 L 620 180 z "
     style="fill:#5b7aec" />
  <path
     id="rect280"
     d="M 640 180 L 640 200 L 660 200 L 680 200 L 680 180 L 660 180 L 640 180 z "
     style="fill:#5977e9" />
  <path
     id="rect282"
     d="M 680 180 L 680 200 L 700 200 L 700 180 L 680 180 z "
     style="fill:#1c45e0" />
  <path
     id="rect284"
     d="M 700 180 L 700 200 L 720 200 L 720 180 L 700 180 z "
     style="fill:#0122b2" />
  <path
     id="rect290"
     d="M 240 200 L 240 220 L 260 220 L 260 200 L 240 200 z "
     style="fill:#355eb4" />
  <path
     id="rect294"
     d="M 280 200 L 280 220 L 300 220 L 300 200 L 280 200 z "
     style="fill:#5f72e8" />
  <path
     id="rect302"
     d="M 360 200 L 360 220 L 380 220 L 380 200 L 360 200 z "
     style="opacity:0.99607843;fill:#4656f0" />
  <path
     id="rect306"
     d="M 400 140 L 400 160 L 420 160 L 420 140 L 400 140 z M 400 180 L 400 200 L 400 220 L 420 220 L 420 200 L 420 180 L 400 180 z "
     style="fill:#2034b6" />
  <path
     id="rect316"
     d="M 560 200 L 560 220 L 580 220 L 580 200 L 560 200 z "
     style="fill:#6787dc" />
  <path
     id="rect318"
     d="M 580 200 L 580 220 L 600 220 L 600 200 L 580 200 z "
     style="opacity:0.99607843;fill:#5d75e8" />
  <path
     id="rect320"
     d="M 600 200 L 600 220 L 620 220 L 620 200 L 600 200 z "
     style="fill:#6274f6" />
  <path
     id="rect328"
     d="M 680 200 L 680 220 L 700 220 L 700 200 L 680 200 z "
     style="fill:#2137ed" />
  <path
     id="rect350"
     d="M 360 220 L 360 240 L 380 240 L 380 220 L 360 220 z "
     style="opacity:0.99607843;fill:#4557f5" />
  <path
     id="rect354"
     d="M 400 220 L 400 240 L 420 240 L 420 220 L 400 220 z "
     style="fill:#1f35b6" />
  <path
     id="rect364"
     d="M 560 220 L 560 240 L 580 240 L 580 220 L 560 220 z "
     style="fill:#6a87dd" />
  <path
     id="rect366"
     d="M 580 220 L 580 240 L 600 240 L 600 220 L 580 220 z "
     style="opacity:0.99607843;fill:#5e74e8" />
  <path
     id="rect368"
     d="M 600 220 L 600 240 L 620 240 L 620 220 L 600 220 z "
     style="fill:#6273f6" />
  <path
     id="rect390"
     d="M 280 240 L 280 260 L 300 260 L 300 240 L 280 240 z "
     style="opacity:0.99607843;fill:#5e74ee" />
  <path
     id="rect398"
     d="M 360 240 L 360 260 L 380 260 L 380 240 L 360 240 z "
     style="opacity:0.99607843;fill:#4458fa" />
  <path
     id="rect400"
     d="M 380 240 L 380 260 L 400 260 L 400 240 L 380 240 z "
     style="opacity:0.99607843;fill:#0d26ed" />
  <path
     id="rect402"
     d="M 400 120 L 400 140 L 420 140 L 420 120 L 400 120 z M 400 240 L 400 260 L 420 260 L 420 240 L 400 240 z "
     style="opacity:0.99607843;fill:#1d34ba" />
  <path
     id="rect410"
     d="M 540 200 L 540 220 L 540 240 L 540 260 L 560 260 L 560 240 L 560 220 L 560 200 L 540 200 z "
     style="opacity:0.99607843;fill:#124792" />
  <path
     id="rect414"
     d="M 580 240 L 580 260 L 600 260 L 600 240 L 580 240 z "
     style="opacity:0.99607843;fill:#5f76e4" />
  <path
     id="rect416"
     d="M 600 240 L 600 260 L 620 260 L 620 240 L 600 240 z "
     style="opacity:0.99607843;fill:#6171f2" />
  <path
     id="rect446"
     d="M 360 260 L 360 280 L 380 280 L 380 260 L 360 260 z "
     style="opacity:0.99607843;fill:#4459fa" />
  <path
     id="rect448"
     d="M 380 260 L 380 280 L 400 280 L 400 260 L 380 260 z "
     style="fill:#0c27f2" />
  <path
     id="rect458"
     d="M 540 260 L 540 280 L 560 280 L 560 260 L 540 260 z "
     style="fill:#144896" />
  <path
     id="rect462"
     d="M 580 260 L 580 280 L 600 280 L 600 260 L 580 260 z "
     style="opacity:0.99607843;fill:#5f75e2" />
  <path
     id="rect466"
     d="M 620 260 L 620 280 L 640 280 L 640 260 L 620 260 z "
     style="fill:#6171f1" />
  <path
     id="rect494"
     d="M 360 280 L 360 300 L 380 300 L 380 280 L 360 280 z "
     style="opacity:0.99607843;fill:#475df9" />
  <path
     id="rect496"
     d="M 380 280 L 380 300 L 400 300 L 400 280 L 380 280 z "
     style="fill:#0d28f1" />
  <path
     id="rect498"
     d="M 400 260 L 400 280 L 400 300 L 420 300 L 420 280 L 420 260 L 400 260 z "
     style="fill:#1f35bb" />
  <path
     id="rect506"
     d="M 540 280 L 540 300 L 560 300 L 560 280 L 540 280 z "
     style="fill:#1f50a0" />
  <path
     id="rect542"
     d="M 360 300 L 360 320 L 380 320 L 380 300 L 360 300 z "
     style="opacity:0.99607843;fill:#566af9" />
  <path
     id="rect544"
     d="M 380 300 L 380 320 L 400 320 L 400 300 L 380 300 z "
     style="fill:#1d35ee" />
  <path
     id="rect546"
     d="M 400 300 L 400 320 L 420 320 L 420 300 L 400 300 z "
     style="fill:#2944c2" />
  <path
     id="rect548"
     d="M 420 300 L 420 320 L 440 320 L 440 300 L 420 300 z "
     style="fill:#8499db" />
  <path
     id="rect554"
     d="M 440 300 L 440 320 L 460 320 L 480 320 L 500 320 L 500 300 L 480 300 L 460 300 L 440 300 z "
     style="opacity:0.99607843;fill:#8398d8" />
  <path
     id="rect556"
     d="M 500 300 L 500 320 L 520 320 L 520 300 L 500 300 z "
     style="fill:#8398d9" />
  <path
     id="rect558"
     d="M 520 300 L 520 320 L 540 320 L 540 300 L 520 300 z "
     style="fill:#8197d5" />
  <path
     id="rect560"
     d="M 540 300 L 540 320 L 560 320 L 560 300 L 540 300 z "
     style="fill:#7688c9" />
  <path
     id="rect564"
     d="M 280 180 L 280 200 L 300 200 L 300 180 L 280 180 z M 580 300 L 580 320 L 600 320 L 600 300 L 580 300 z "
     style="opacity:0.99607843;fill:#5f75e3" />
  <path
     id="rect588"
     d="M 280 280 L 280 300 L 280 320 L 280 340 L 300 340 L 300 320 L 300 300 L 300 280 L 280 280 z "
     style="fill:#6074f0" />
  <path
     id="rect592"
     d="M 300 260 L 300 280 L 320 280 L 340 280 L 340 260 L 320 260 L 300 260 z M 300 320 L 300 340 L 320 340 L 340 340 L 340 320 L 320 320 L 300 320 z "
     style="fill:#6273f8" />
  <path
     id="rect598"
     d="M 380 320 L 380 340 L 400 340 L 400 320 L 380 320 z "
     style="fill:#5d6df3" />
  <path
     id="rect600"
     d="M 400 320 L 400 340 L 420 340 L 420 320 L 400 320 z "
     style="fill:#4e6add" />
  <path
     id="rect602"
     d="M 420 320 L 420 340 L 440 340 L 440 320 L 420 320 z "
     style="fill:#597dc9" />
  <path
     id="rect608"
     d="M 440 320 L 440 340 L 460 340 L 480 340 L 500 340 L 500 320 L 480 320 L 460 320 L 440 320 z "
     style="opacity:0.99607843;fill:#6078bb" />
  <path
     id="rect610"
     d="M 500 320 L 500 340 L 520 340 L 520 320 L 500 320 z "
     style="fill:#6b82bf" />
  <path
     id="rect612"
     d="M 340 80 L 340 100 L 360 100 L 360 80 L 340 80 z M 340 100 L 320 100 L 320 120 L 340 120 L 340 100 z M 320 120 L 300 120 L 300 140 L 320 140 L 320 120 z M 300 140 L 280 140 L 280 160 L 300 160 L 300 140 z M 280 160 L 260 160 L 260 180 L 280 180 L 280 160 z M 560 280 L 560 300 L 560 320 L 580 320 L 580 300 L 580 280 L 560 280 z M 520 320 L 520 340 L 540 340 L 540 320 L 520 320 z "
     style="fill:#aebbe2" />
  <path
     id="rect614"
     d="M 540 320 L 540 340 L 560 340 L 560 320 L 540 320 z "
     style="fill:#a7ade8" />
  <path
     id="rect616"
     d="M 560 320 L 560 340 L 580 340 L 580 320 L 560 320 z "
     style="fill:#617cdb" />
  <path
     id="rect618"
     d="M 580 320 L 580 340 L 600 340 L 600 320 L 580 320 z "
     style="opacity:0.99607843;fill:#5f75e4" />
  <path
     id="rect628"
     d="M 680 320 L 680 340 L 700 340 L 700 320 L 680 320 z "
     style="fill:#2336e7" />
  <path
     id="rect642"
     d="M 280 260 L 280 280 L 300 280 L 300 260 L 280 260 z M 280 340 L 280 360 L 300 360 L 300 340 L 280 340 z "
     style="fill:#5f74ee" />
  <path
     id="rect652"
     d="M 380 340 L 380 360 L 400 360 L 400 340 L 380 340 z "
     style="fill:#6674f2" />
  <path
     id="rect654"
     d="M 400 340 L 400 360 L 420 360 L 420 340 L 400 340 z "
     style="fill:#7188ed" />
  <path
     id="rect656"
     d="M 420 340 L 420 360 L 440 360 L 440 340 L 420 340 z "
     style="fill:#7890e3" />
  <path
     id="rect658"
     d="M 440 340 L 440 360 L 460 360 L 460 340 L 440 340 z "
     style="fill:#7c8de0" />
  <path
     id="rect660"
     d="M 460 340 L 460 360 L 480 360 L 480 340 L 460 340 z "
     style="fill:#7d8ce0" />
  <path
     id="rect666"
     d="M 520 340 L 520 360 L 540 360 L 540 340 L 520 340 z "
     style="fill:#6a7dd8" />
  <path
     id="rect668"
     d="M 540 340 L 540 360 L 560 360 L 560 340 L 540 340 z "
     style="fill:#6075d5" />
  <path
     id="rect670"
     d="M 560 340 L 560 360 L 580 360 L 580 340 L 560 340 z "
     style="fill:#5979d9" />
  <path
     id="rect672"
     d="M 580 340 L 580 360 L 600 360 L 600 340 L 580 340 z "
     style="opacity:0.99607843;fill:#5f72e7" />
  <path
     id="rect692"
     d="M 240 300 L 240 320 L 260 320 L 260 300 L 240 300 z M 240 360 L 240 380 L 260 380 L 260 360 L 240 360 z "
     style="opacity:0.99607843;fill:#365eb2" />
  <path
     id="rect696"
     d="M 280 360 L 280 380 L 300 380 L 300 360 L 280 360 z "
     style="opacity:0.99607843;fill:#6173ee" />
  <path
     id="rect702"
     d="M 340 360 L 340 380 L 360 380 L 360 360 L 340 360 z "
     style="opacity:0.99607843;fill:#6170f3" />
  <path
     id="rect710"
     d="M 420 360 L 420 380 L 440 380 L 440 360 L 420 360 z "
     style="opacity:0.99607843;fill:#5c77e0" />
  <path
     id="rect712"
     d="M 440 360 L 440 380 L 460 380 L 460 360 L 440 360 z "
     style="opacity:0.99607843;fill:#5b79dc" />
  <path
     id="rect718"
     d="M 460 360 L 460 380 L 480 380 L 500 380 L 520 380 L 520 360 L 500 360 L 480 360 L 460 360 z "
     style="opacity:0.99607843;fill:#5a78da" />
  <path
     id="rect722"
     d="M 520 360 L 520 380 L 540 380 L 560 380 L 560 360 L 540 360 L 520 360 z "
     style="opacity:0.99607843;fill:#5a78dd" />
  <path
     id="rect724"
     d="M 580 280 L 580 300 L 600 300 L 600 280 L 580 280 z M 560 360 L 560 380 L 580 380 L 580 360 L 560 360 z "
     style="opacity:0.99607843;fill:#5f74e2" />
  <path
     id="rect730"
     d="M 620 360 L 620 380 L 640 380 L 640 360 L 620 360 z "
     style="opacity:0.99607843;fill:#616eef" />
  <path
     id="rect734"
     d="M 640 360 L 640 380 L 660 380 L 680 380 L 680 360 L 660 360 L 640 360 z "
     style="opacity:0.99607843;fill:#5f6aef" />
  <path
     id="rect738"
     d="M 700 280 L 700 300 L 720 300 L 720 280 L 700 280 z M 700 360 L 700 380 L 720 380 L 720 360 L 700 360 z "
     style="opacity:0.99607843;fill:#0718c2" />
  <path
     id="rect746"
     d="M 240 320 L 240 340 L 240 360 L 260 360 L 260 340 L 260 320 L 240 320 z M 240 380 L 240 400 L 260 400 L 260 380 L 240 380 z "
     style="fill:#365fb1" />
  <path
     id="rect750"
     d="M 280 380 L 280 400 L 300 400 L 300 380 L 280 380 z "
     style="fill:#6173ed" />
  <path
     id="rect764"
     d="M 580 360 L 580 380 L 600 380 L 600 360 L 580 360 z M 420 380 L 420 400 L 440 400 L 440 380 L 420 380 z "
     style="fill:#6270eb" />
  <path
     id="rect770"
     d="M 400 360 L 400 380 L 420 380 L 420 360 L 400 360 z M 440 380 L 440 400 L 460 400 L 480 400 L 500 400 L 500 380 L 480 380 L 460 380 L 440 380 z "
     style="opacity:0.99607843;fill:#6071e9" />
  <path
     id="rect772"
     d="M 500 380 L 500 400 L 520 400 L 520 380 L 500 380 z "
     style="fill:#6171ed" />
  <path
     id="rect776"
     d="M 520 380 L 520 400 L 540 400 L 560 400 L 560 380 L 540 380 L 520 380 z "
     style="fill:#6172ee" />
  <path
     id="rect804"
     d="M 280 400 L 280 420 L 300 420 L 300 400 L 280 400 z "
     style="fill:#6172ec" />
  <path
     id="rect820"
     d="M 360 360 L 360 380 L 380 380 L 380 360 L 360 360 z M 360 380 L 340 380 L 340 400 L 360 400 L 360 380 z M 440 400 L 440 420 L 460 420 L 460 400 L 440 400 z "
     style="fill:#6170f1" />
  <path
     id="rect836"
     d="M 400 400 L 400 420 L 420 420 L 440 420 L 440 400 L 420 400 L 400 400 z M 600 400 L 600 420 L 620 420 L 620 400 L 600 400 z "
     style="fill:#6270f2" />
  <path
     id="rect842"
     d="M 640 400 L 640 420 L 660 420 L 680 420 L 680 400 L 660 400 L 640 400 z "
     style="fill:#5f6cf2" />
  <path
     id="rect846"
     d="M 700 400 L 700 420 L 720 420 L 720 400 L 700 400 z "
     style="fill:#0717c0" />
  <path
     id="rect862"
     d="M 300 200 L 300 220 L 320 220 L 340 220 L 340 200 L 320 200 L 300 200 z M 600 260 L 600 280 L 620 280 L 620 260 L 600 260 z M 460 400 L 460 420 L 480 420 L 480 400 L 460 400 z M 300 420 L 300 440 L 320 440 L 340 440 L 340 420 L 320 420 L 300 420 z "
     style="fill:#616ff0" />
  <path
     id="rect870"
     d="M 400 420 L 400 440 L 420 440 L 420 420 L 400 420 z "
     style="fill:#6370f4" />
  <path
     id="rect872"
     d="M 420 420 L 420 440 L 440 440 L 440 420 L 420 420 z "
     style="fill:#6170f4" />
  <path
     id="rect876"
     d="M 340 200 L 340 220 L 360 220 L 360 200 L 340 200 z M 460 420 L 460 440 L 480 440 L 480 420 L 460 420 z "
     style="fill:#616ff3" />
  <path
     id="rect880"
     d="M 500 420 L 500 440 L 520 440 L 520 420 L 500 420 z "
     style="fill:#606ff1" />
  <path
     id="rect882"
     d="M 520 420 L 520 440 L 540 440 L 540 420 L 520 420 z "
     style="fill:#606def" />
  <path
     id="rect884"
     d="M 620 280 L 620 300 L 640 300 L 640 280 L 620 280 z M 600 380 L 600 400 L 620 400 L 620 380 L 600 380 z M 340 400 L 340 420 L 360 420 L 360 400 L 340 400 z M 500 400 L 500 420 L 520 420 L 520 400 L 500 400 z M 540 420 L 540 440 L 560 440 L 560 420 L 540 420 z "
     style="fill:#646eed" />
  <path
     id="rect888"
     d="M 300 400 L 300 420 L 320 420 L 340 420 L 340 400 L 320 400 L 300 400 z M 480 420 L 480 440 L 500 440 L 500 420 L 480 420 z M 580 420 L 580 440 L 600 440 L 600 420 L 580 420 z "
     style="opacity:0.99607843;fill:#6170f2" />
  <path
     id="rect912"
     d="M 280 420 L 280 440 L 280 460 L 300 460 L 300 440 L 300 420 L 280 420 z "
     style="fill:#6072e9" />
  <path
     id="rect920"
     d="M 580 400 L 580 420 L 600 420 L 600 400 L 580 400 z M 360 420 L 360 440 L 360 460 L 380 460 L 380 440 L 380 420 L 360 420 z "
     style="opacity:0.99607843;fill:#616ef0" />
  <path
     id="rect922"
     d="M 380 440 L 380 460 L 400 460 L 400 440 L 380 440 z "
     style="fill:#5160f1" />
  <path
     id="rect924"
     d="M 400 440 L 400 460 L 420 460 L 420 440 L 400 440 z "
     style="fill:#3247f1" />
  <path
     id="rect926"
     d="M 420 440 L 420 460 L 440 460 L 440 440 L 420 440 z "
     style="fill:#233aef" />
  <path
     id="rect930"
     d="M 440 440 L 440 460 L 460 460 L 480 460 L 480 440 L 460 440 L 440 440 z "
     style="fill:#2039f0" />
  <path
     id="rect932"
     d="M 480 440 L 480 460 L 500 460 L 500 440 L 480 440 z "
     style="opacity:0.99607843;fill:#2438ea" />
  <path
     id="rect934"
     d="M 500 440 L 500 460 L 520 460 L 520 440 L 500 440 z "
     style="fill:#2539e9" />
  <path
     id="rect936"
     d="M 520 440 L 520 460 L 540 460 L 540 440 L 520 440 z "
     style="fill:#2e41ee" />
  <path
     id="rect938"
     d="M 540 440 L 540 460 L 560 460 L 560 440 L 540 440 z "
     style="fill:#4a58f0" />
  <path
     id="rect940"
     d="M 440 420 L 440 440 L 460 440 L 460 420 L 440 420 z M 560 440 L 560 460 L 580 460 L 580 440 L 560 440 z "
     style="fill:#6070f3" />
  <path
     id="rect952"
     d="M 680 440 L 680 460 L 700 460 L 700 440 L 680 440 z "
     style="fill:#2334e5" />
  <path
     id="rect970"
     d="M 600 360 L 600 380 L 620 380 L 620 360 L 600 360 z M 360 400 L 360 420 L 380 420 L 380 400 L 360 400 z M 300 460 L 300 480 L 320 480 L 340 480 L 340 460 L 320 460 L 300 460 z "
     style="opacity:0.99607843;fill:#616dee" />
  <path
     id="rect974"
     d="M 360 460 L 360 480 L 380 480 L 380 460 L 360 460 z "
     style="opacity:0.99607843;fill:#5b6af1" />
  <path
     id="rect976"
     d="M 380 460 L 380 480 L 400 480 L 400 460 L 380 460 z "
     style="opacity:0.99607843;fill:#2135ea" />
  <path
     id="rect978"
     d="M 400 460 L 400 480 L 420 480 L 420 460 L 400 460 z "
     style="opacity:0.99607843;fill:#0a23e8" />
  <path
     id="rect980"
     d="M 420 460 L 420 480 L 440 480 L 440 460 L 420 460 z "
     style="opacity:0.99607843;fill:#0d1fdb" />
  <path
     id="rect982"
     d="M 440 460 L 440 480 L 460 480 L 460 460 L 440 460 z "
     style="opacity:0.99607843;fill:#0c1eda" />
  <path
     id="rect988"
     d="M 460 460 L 460 480 L 480 480 L 500 480 L 520 480 L 520 460 L 500 460 L 480 460 L 460 460 z "
     style="opacity:0.99607843;fill:#0b1dda" />
  <path
     id="rect990"
     d="M 520 460 L 520 480 L 540 480 L 540 460 L 520 460 z "
     style="opacity:0.99607843;fill:#0f21db" />
  <path
     id="rect992"
     d="M 540 460 L 540 480 L 560 480 L 560 460 L 540 460 z "
     style="opacity:0.99607843;fill:#1a2fe8" />
  <path
     id="rect994"
     d="M 560 460 L 560 480 L 580 480 L 580 460 L 560 460 z "
     style="opacity:0.99607843;fill:#586af6" />
  <path
     id="rect1000"
     d="M 340 240 L 340 260 L 360 260 L 360 240 L 340 240 z M 340 320 L 340 340 L 360 340 L 360 320 L 340 320 z M 620 460 L 620 480 L 640 480 L 640 460 L 620 460 z "
     style="opacity:0.99607843;fill:#6172fa" />
  <path
     id="rect1006"
     d="M 680 460 L 680 480 L 700 480 L 700 460 L 680 460 z "
     style="opacity:0.99607843;fill:#2237ea" />
  <path
     id="rect1028"
     d="M 360 480 L 360 500 L 380 500 L 380 480 L 360 480 z "
     style="opacity:0.99607843;fill:#515fed" />
  <path
     id="rect1030"
     d="M 380 480 L 380 500 L 400 500 L 400 480 L 380 480 z "
     style="fill:#1028ea" />
  <path
     id="rect1032"
     d="M 400 480 L 400 500 L 420 500 L 420 480 L 400 480 z "
     style="fill:#2736d0" />
  <path
     id="rect1046"
     d="M 540 480 L 540 500 L 560 500 L 560 480 L 540 480 z "
     style="fill:#3447cd" />
  <path
     id="rect1048"
     d="M 560 480 L 560 500 L 580 500 L 580 480 L 560 480 z "
     style="fill:#5169f0" />
  <path
     id="rect1086"
     d="M 400 500 L 400 520 L 420 520 L 420 500 L 400 500 z "
     style="fill:#182cba" />
  <path
     id="rect1100"
     d="M 540 500 L 540 520 L 560 520 L 560 500 L 540 500 z "
     style="fill:#2048af" />
  <path
     id="rect1102"
     d="M 560 500 L 560 520 L 580 520 L 580 500 L 560 500 z "
     style="fill:#5478e3" />
  <path
     id="rect1104"
     d="M 580 500 L 580 520 L 600 520 L 600 500 L 580 500 z "
     style="opacity:0.99607843;fill:#6076f3" />
  <path
     id="rect1138"
     d="M 380 520 L 380 540 L 400 540 L 400 520 L 380 520 z "
     style="fill:#0f25eb" />
  <path
     id="rect1154"
     d="M 540 520 L 540 540 L 560 540 L 560 520 L 540 520 z "
     style="fill:#1d4ca0" />
  <path
     id="rect1156"
     d="M 560 520 L 560 540 L 580 540 L 580 520 L 560 520 z "
     style="fill:#577edc" />
  <path
     id="rect1158"
     d="M 580 520 L 580 540 L 600 540 L 600 520 L 580 520 z "
     style="opacity:0.99607843;fill:#5f7ced" />
  <path
     id="rect1166"
     d="M 640 500 L 640 520 L 640 540 L 660 540 L 680 540 L 680 520 L 680 500 L 660 500 L 640 500 z "
     style="fill:#5e6ff9" />
  <path
     id="rect1168"
     d="M 680 500 L 680 520 L 680 540 L 700 540 L 700 520 L 700 500 L 680 500 z "
     style="fill:#2236eb" />
  <path
     id="rect1192"
     d="M 380 500 L 380 520 L 400 520 L 400 500 L 380 500 z M 380 540 L 380 560 L 400 560 L 400 540 L 380 540 z "
     style="fill:#0f26e9" />
  <path
     id="rect1202"
     d="M 540 540 L 540 560 L 560 560 L 560 540 L 540 540 z "
     style="fill:#1a4998" />
  <path
     id="rect1216"
     d="M 680 480 L 680 500 L 700 500 L 700 480 L 680 480 z M 680 540 L 680 560 L 700 560 L 700 540 L 680 540 z "
     style="fill:#2238ea" />
  <path
     id="rect1238"
     d="M 360 500 L 360 520 L 360 540 L 360 560 L 360 580 L 380 580 L 380 560 L 380 540 L 380 520 L 380 500 L 360 500 z "
     style="opacity:0.99607843;fill:#505def" />
  <path
     id="rect1240"
     d="M 380 560 L 380 580 L 400 580 L 400 560 L 380 560 z "
     style="fill:#0f25e8" />
  <path
     id="rect1242"
     d="M 400 520 L 400 540 L 400 560 L 400 580 L 420 580 L 420 560 L 420 540 L 420 520 L 400 520 z "
     style="fill:#182bb8" />
  <path
     id="rect1250"
     d="M 540 560 L 540 580 L 560 580 L 560 560 L 540 560 z "
     style="fill:#1b4a96" />
  <path
     id="rect1256"
     d="M 620 200 L 620 220 L 640 220 L 640 200 L 620 200 z M 580 480 L 580 500 L 600 500 L 600 480 L 580 480 z M 600 520 L 600 540 L 620 540 L 620 520 L 600 520 z M 600 560 L 600 580 L 620 580 L 620 560 L 600 560 z "
     style="fill:#6274f8" />
  <path
     id="rect1262"
     d="M 640 220 L 640 240 L 660 240 L 680 240 L 680 220 L 660 220 L 640 220 z M 640 460 L 640 480 L 660 480 L 680 480 L 680 460 L 660 460 L 640 460 z M 640 560 L 640 580 L 660 580 L 680 580 L 680 560 L 660 560 L 640 560 z "
     style="fill:#5e6df6" />
  <path
     id="rect1264"
     d="M 680 220 L 680 240 L 700 240 L 700 220 L 680 220 z M 680 560 L 680 580 L 700 580 L 700 560 L 680 560 z "
     style="fill:#2335e8" />
  <path
     id="rect1266"
     d="M 700 200 L 700 220 L 700 240 L 720 240 L 720 220 L 720 200 L 700 200 z M 700 420 L 700 440 L 700 460 L 700 480 L 700 500 L 700 520 L 700 540 L 700 560 L 700 580 L 720 580 L 720 560 L 720 540 L 720 520 L 720 500 L 720 480 L 720 460 L 720 440 L 720 420 L 700 420 z "
     style="fill:#0817bc" />
  <path
     id="rect1282"
     d="M 300 580 L 300 600 L 320 600 L 340 600 L 340 580 L 320 580 L 300 580 z "
     style="opacity:0.99607843;fill:#616ded" />
  <path
     id="rect1288"
     d="M 380 200 L 380 220 L 400 220 L 400 200 L 380 200 z M 380 580 L 380 600 L 400 600 L 400 580 L 380 580 z "
     style="opacity:0.99607843;fill:#1025e6" />
  <path
     id="rect1300"
     d="M 560 580 L 560 600 L 580 600 L 580 580 L 560 580 z "
     style="opacity:0.99607843;fill:#547dd7" />
  <path
     id="rect1310"
     d="M 640 440 L 640 460 L 660 460 L 680 460 L 680 440 L 660 440 L 640 440 z M 640 580 L 640 600 L 660 600 L 680 600 L 680 580 L 660 580 L 640 580 z "
     style="opacity:0.99607843;fill:#5e6ef5" />
  <path
     id="rect1314"
     d="M 700 240 L 700 260 L 720 260 L 720 240 L 700 240 z M 700 580 L 700 600 L 720 600 L 720 580 L 700 580 z "
     style="opacity:0.99607843;fill:#0817bd" />
  <path
     id="rect1332"
     d="M 620 320 L 620 340 L 640 340 L 640 320 L 620 320 z M 300 600 L 300 620 L 320 620 L 340 620 L 360 620 L 360 600 L 340 600 L 320 600 L 300 600 z "
     style="fill:#636fed" />
  <path
     id="rect1336"
     d="M 380 600 L 380 620 L 400 620 L 400 600 L 380 600 z "
     style="fill:#1024e3" />
  <path
     id="rect1350"
     d="M 580 600 L 580 620 L 600 620 L 600 600 L 580 600 z "
     style="opacity:0.99607843;fill:#5f78e7" />
  <path
     id="rect1352"
     d="M 600 600 L 600 620 L 620 620 L 620 600 L 600 600 z "
     style="fill:#6172f5" />
  <path
     id="rect1354"
     d="M 340 220 L 340 240 L 360 240 L 360 220 L 340 220 z M 360 320 L 360 340 L 380 340 L 380 320 L 360 320 z M 600 440 L 600 460 L 620 460 L 620 440 L 600 440 z M 600 460 L 580 460 L 580 480 L 600 480 L 600 460 z M 600 580 L 600 600 L 620 600 L 620 580 L 600 580 z M 620 600 L 620 620 L 640 620 L 640 600 L 620 600 z "
     style="fill:#6272f7" />
  <path
     id="rect1360"
     d="M 680 580 L 680 600 L 680 620 L 700 620 L 700 600 L 700 580 L 680 580 z "
     style="fill:#2335e5" />
  <path
     id="rect1384"
     d="M 380 620 L 380 640 L 400 640 L 400 620 L 380 620 z "
     style="fill:#1024e2" />
  <path
     id="rect1386"
     d="M 400 620 L 400 640 L 420 640 L 420 620 L 400 620 z "
     style="fill:#182bb4" />
  <path
     id="rect1402"
     d="M 300 380 L 300 400 L 320 400 L 340 400 L 340 380 L 320 380 L 300 380 z M 620 400 L 620 420 L 640 420 L 640 400 L 620 400 z M 380 420 L 380 440 L 400 440 L 400 420 L 380 420 z M 620 620 L 620 640 L 640 640 L 640 620 L 620 620 z "
     style="fill:#6271f3" />
  <path
     id="rect1406"
     d="M 640 260 L 640 280 L 660 280 L 680 280 L 680 260 L 660 260 L 640 260 z M 640 620 L 640 640 L 660 640 L 680 640 L 680 620 L 660 620 L 640 620 z "
     style="fill:#5e6bf0" />
  <path
     id="rect1408"
     d="M 680 240 L 680 260 L 680 280 L 700 280 L 700 260 L 700 240 L 680 240 z M 680 360 L 680 380 L 680 400 L 680 420 L 680 440 L 700 440 L 700 420 L 700 400 L 700 380 L 700 360 L 680 360 z M 680 620 L 680 640 L 700 640 L 700 620 L 680 620 z "
     style="fill:#2334e4" />
  <path
     id="rect1410"
     d="M 700 260 L 700 280 L 720 280 L 720 260 L 700 260 z M 700 380 L 700 400 L 720 400 L 720 380 L 700 380 z M 700 600 L 700 620 L 700 640 L 720 640 L 720 620 L 720 600 L 700 600 z "
     style="fill:#0718c1" />
  <path
     id="rect1422"
     d="M 280 460 L 280 480 L 280 500 L 280 520 L 280 540 L 280 560 L 280 580 L 280 600 L 280 620 L 280 640 L 280 660 L 300 660 L 300 640 L 300 620 L 300 600 L 300 580 L 300 560 L 300 540 L 300 520 L 300 500 L 300 480 L 300 460 L 280 460 z "
     style="fill:#6071e8" />
  <path
     id="rect1426"
     d="M 620 380 L 620 400 L 640 400 L 640 380 L 620 380 z M 380 400 L 380 420 L 400 420 L 400 400 L 380 400 z M 560 420 L 560 440 L 580 440 L 580 420 L 560 420 z M 340 500 L 340 520 L 340 540 L 340 560 L 340 580 L 360 580 L 360 560 L 360 540 L 360 520 L 360 500 L 340 500 z M 300 640 L 300 660 L 320 660 L 340 660 L 340 640 L 320 640 L 300 640 z "
     style="fill:#626ff0" />
  <path
     id="rect1428"
     d="M 380 360 L 380 380 L 400 380 L 400 360 L 380 360 z M 520 400 L 520 420 L 540 420 L 560 420 L 560 400 L 540 400 L 520 400 z M 340 420 L 340 440 L 360 440 L 360 420 L 340 420 z M 340 440 L 320 440 L 300 440 L 300 460 L 320 460 L 340 460 L 340 440 z M 340 460 L 340 480 L 340 500 L 360 500 L 360 480 L 360 460 L 340 460 z M 340 580 L 340 600 L 360 600 L 360 580 L 340 580 z M 340 640 L 340 660 L 360 660 L 360 640 L 340 640 z "
     style="fill:#616fef" />
  <path
     id="rect1430"
     d="M 360 600 L 360 620 L 360 640 L 360 660 L 380 660 L 380 640 L 380 620 L 380 600 L 360 600 z "
     style="opacity:0.99607843;fill:#505eec" />
  <path
     id="rect1448"
     d="M 600 640 L 600 660 L 620 660 L 620 640 L 600 640 z "
     style="fill:#6171ef" />
  <path
     id="rect1454"
     d="M 640 280 L 640 300 L 640 320 L 640 340 L 640 360 L 660 360 L 680 360 L 680 340 L 680 320 L 680 300 L 680 280 L 660 280 L 640 280 z M 640 640 L 640 660 L 660 660 L 680 660 L 680 640 L 660 640 L 640 640 z "
     style="fill:#5d6aee" />
  <path
     id="rect1456"
     d="M 680 280 L 680 300 L 680 320 L 700 320 L 700 300 L 700 280 L 680 280 z M 680 340 L 680 360 L 700 360 L 700 340 L 680 340 z M 680 640 L 680 660 L 700 660 L 700 640 L 680 640 z "
     style="fill:#2336e6" />
  <path
     id="rect1458"
     d="M 700 640 L 700 660 L 720 660 L 720 640 L 700 640 z "
     style="fill:#0618c5" />
  <path
     id="rect1466"
     d="M 240 240 L 240 260 L 240 280 L 240 300 L 260 300 L 260 280 L 260 260 L 260 240 L 240 240 z M 240 400 L 240 420 L 240 440 L 240 460 L 240 480 L 240 500 L 240 520 L 240 540 L 240 560 L 260 560 L 260 540 L 260 520 L 260 500 L 260 480 L 260 460 L 260 440 L 260 420 L 260 400 L 240 400 z M 240 580 L 240 600 L 240 620 L 240 640 L 240 660 L 240 680 L 260 680 L 260 660 L 260 640 L 260 620 L 260 600 L 260 580 L 240 580 z "
     style="fill:#365db2" />
  <path
     id="rect1470"
     d="M 280 220 L 280 240 L 300 240 L 300 220 L 280 220 z M 280 660 L 280 680 L 300 680 L 300 660 L 280 660 z "
     style="fill:#5f71eb" />
  <path
     id="rect1474"
     d="M 300 660 L 300 680 L 320 680 L 340 680 L 340 660 L 320 660 L 300 660 z "
     style="fill:#6271f2" />
  <path
     id="rect1478"
     d="M 360 580 L 360 600 L 380 600 L 380 580 L 360 580 z M 360 660 L 360 680 L 380 680 L 380 660 L 360 660 z "
     style="opacity:0.99607843;fill:#505dee" />
  <path
     id="rect1480"
     d="M 380 180 L 380 200 L 400 200 L 400 180 L 380 180 z M 380 640 L 380 660 L 380 680 L 400 680 L 400 660 L 400 640 L 380 640 z "
     style="fill:#1023e0" />
  <path
     id="rect1494"
     d="M 580 620 L 580 640 L 600 640 L 600 620 L 580 620 z M 580 660 L 580 680 L 600 680 L 600 660 L 580 660 z "
     style="opacity:0.99607843;fill:#6078e3" />
  <path
     id="rect1496"
     d="M 600 300 L 600 320 L 620 320 L 620 300 L 600 300 z M 560 380 L 560 400 L 580 400 L 580 380 L 560 380 z M 600 660 L 600 680 L 620 680 L 620 660 L 600 660 z "
     style="fill:#616eed" />
  <path
     id="rect1498"
     d="M 340 180 L 340 200 L 360 200 L 360 180 L 340 180 z M 600 280 L 600 300 L 620 300 L 620 280 L 600 280 z M 620 300 L 620 320 L 640 320 L 640 300 L 620 300 z M 620 320 L 600 320 L 600 340 L 600 360 L 620 360 L 640 360 L 640 340 L 620 340 L 620 320 z M 360 380 L 360 400 L 380 400 L 400 400 L 420 400 L 420 380 L 400 380 L 380 380 L 360 380 z M 580 380 L 580 400 L 600 400 L 600 380 L 580 380 z M 580 400 L 560 400 L 560 420 L 580 420 L 580 400 z M 480 400 L 480 420 L 500 420 L 500 400 L 480 400 z M 340 440 L 340 460 L 360 460 L 360 440 L 340 440 z M 300 480 L 300 500 L 300 520 L 300 540 L 300 560 L 300 580 L 320 580 L 340 580 L 340 560 L 340 540 L 340 520 L 340 500 L 340 480 L 320 480 L 300 480 z M 300 620 L 300 640 L 320 640 L 340 640 L 360 640 L 360 620 L 340 620 L 320 620 L 300 620 z M 620 660 L 620 680 L 640 680 L 640 660 L 620 660 z "
     style="fill:#616eee" />
  <path
     id="rect1502"
     d="M 640 380 L 640 400 L 660 400 L 680 400 L 680 380 L 660 380 L 640 380 z M 640 660 L 640 680 L 660 680 L 680 680 L 680 660 L 660 660 L 640 660 z "
     style="fill:#5f6bef" />
  <path
     id="rect1504"
     d="M 680 660 L 680 680 L 700 680 L 700 660 L 680 660 z "
     style="fill:#2236e9" />
  <path
     id="rect1506"
     d="M 700 660 L 700 680 L 720 680 L 720 660 L 700 660 z "
     style="fill:#0518c6" />
  <path
     id="rect1514"
     d="M 240 220 L 240 240 L 260 240 L 260 220 L 240 220 z M 240 560 L 240 580 L 260 580 L 260 560 L 240 560 z M 240 680 L 240 700 L 260 700 L 260 680 L 240 680 z "
     style="fill:#365db3" />
  <path
     id="rect1518"
     d="M 280 680 L 280 700 L 300 700 L 300 680 L 280 680 z "
     style="fill:#6073ee" />
  <path
     id="rect1524"
     d="M 300 220 L 300 240 L 320 240 L 340 240 L 340 220 L 320 220 L 300 220 z M 300 340 L 300 360 L 300 380 L 320 380 L 340 380 L 340 360 L 340 340 L 320 340 L 300 340 z M 620 420 L 620 440 L 640 440 L 640 420 L 620 420 z M 580 440 L 580 460 L 600 460 L 600 440 L 580 440 z M 300 680 L 300 700 L 320 700 L 340 700 L 360 700 L 360 680 L 340 680 L 320 680 L 300 680 z "
     style="fill:#6371f5" />
  <path
     id="rect1526"
     d="M 360 680 L 360 700 L 380 700 L 380 680 L 360 680 z "
     style="opacity:0.99607843;fill:#505ef0" />
  <path
     id="rect1528"
     d="M 380 680 L 380 700 L 400 700 L 400 680 L 380 680 z "
     style="fill:#1023e2" />
  <path
     id="rect1530"
     d="M 400 640 L 400 660 L 400 680 L 400 700 L 420 700 L 420 680 L 420 660 L 420 640 L 400 640 z "
     style="fill:#182bb2" />
  <path
     id="rect1542"
     d="M 580 680 L 580 700 L 600 700 L 600 680 L 580 680 z "
     style="opacity:0.99607843;fill:#5f79e2" />
  <path
     id="rect1544"
     d="M 300 180 L 300 200 L 320 200 L 340 200 L 340 180 L 320 180 L 300 180 z M 600 680 L 600 700 L 620 700 L 620 680 L 600 680 z "
     style="fill:#616fed" />
  <path
     id="rect1546"
     d="M 620 640 L 620 660 L 640 660 L 640 640 L 620 640 z M 340 660 L 340 680 L 360 680 L 360 660 L 340 660 z M 620 680 L 620 700 L 640 700 L 640 680 L 620 680 z "
     style="fill:#626ff1" />
  <path
     id="rect1550"
     d="M 640 240 L 640 260 L 660 260 L 680 260 L 680 240 L 660 240 L 640 240 z M 640 420 L 640 440 L 660 440 L 680 440 L 680 420 L 660 420 L 640 420 z M 640 600 L 640 620 L 660 620 L 680 620 L 680 600 L 660 600 L 640 600 z M 640 680 L 640 700 L 660 700 L 680 700 L 680 680 L 660 680 L 640 680 z "
     style="fill:#5f6df3" />
  <path
     id="rect1552"
     d="M 680 680 L 680 700 L 700 700 L 700 680 L 680 680 z "
     style="fill:#2138ee" />
  <path
     id="rect1562"
     d="M 240 700 L 240 720 L 260 720 L 260 700 L 240 700 z "
     style="fill:#365cb3" />
  <path
     id="rect1566"
     d="M 280 700 L 280 720 L 300 720 L 300 700 L 280 700 z "
     style="fill:#6074f1" />
  <path
     id="rect1574"
     d="M 360 700 L 360 720 L 380 720 L 380 700 L 360 700 z "
     style="opacity:0.99607843;fill:#4f60f3" />
  <path
     id="rect1576"
     d="M 380 700 L 380 720 L 400 720 L 400 700 L 380 700 z "
     style="fill:#1024e5" />
  <path
     id="rect1578"
     d="M 400 700 L 400 720 L 420 720 L 420 700 L 400 700 z "
     style="fill:#182bb5" />
  <path
     id="rect1590"
     d="M 580 640 L 580 660 L 600 660 L 600 640 L 580 640 z M 580 700 L 580 720 L 600 720 L 600 700 L 580 700 z "
     style="opacity:0.99607843;fill:#5f79e3" />
  <path
     id="rect1592"
     d="M 340 160 L 340 180 L 360 180 L 360 160 L 340 160 z M 600 700 L 600 720 L 620 720 L 620 700 L 600 700 z "
     style="fill:#6170f0" />
  <path
     id="rect1594"
     d="M 620 240 L 620 260 L 640 260 L 640 240 L 620 240 z M 360 340 L 360 360 L 380 360 L 380 340 L 360 340 z M 600 420 L 600 440 L 620 440 L 620 420 L 600 420 z M 620 700 L 620 720 L 640 720 L 640 700 L 620 700 z "
     style="fill:#6371f4" />
  <path
     id="rect1598"
     d="M 640 700 L 640 720 L 660 720 L 680 720 L 680 700 L 660 700 L 640 700 z "
     style="fill:#5f6ef5" />
  <path
     id="rect1600"
     d="M 680 700 L 680 720 L 700 720 L 700 700 L 680 700 z "
     style="fill:#2038f0" />
  <path
     id="rect1602"
     d="M 700 680 L 700 700 L 700 720 L 720 720 L 720 700 L 720 680 L 700 680 z "
     style="fill:#0519cc" />
  <path
     id="rect1610"
     d="M 240 720 L 240 740 L 260 740 L 260 720 L 240 720 z "
     style="opacity:0.99607843;fill:#355db4" />
  <path
     id="rect1614"
     d="M 280 720 L 280 740 L 300 740 L 300 720 L 280 720 z "
     style="opacity:0.99607843;fill:#6075f5" />
  <path
     id="rect1622"
     d="M 360 720 L 360 740 L 380 740 L 380 720 L 360 720 z "
     style="opacity:0.99607843;fill:#4e60f6" />
  <path
     id="rect1624"
     d="M 380 120 L 380 140 L 400 140 L 400 120 L 380 120 z M 380 220 L 380 240 L 400 240 L 400 220 L 380 220 z M 380 720 L 380 740 L 400 740 L 400 720 L 380 720 z "
     style="opacity:0.99607843;fill:#0e26ec" />
  <path
     id="rect1626"
     d="M 400 580 L 400 600 L 400 620 L 420 620 L 420 600 L 420 580 L 400 580 z M 400 720 L 400 740 L 420 740 L 420 720 L 400 720 z "
     style="opacity:0.99607843;fill:#182cb6" />
  <path
     id="rect1636"
     d="M 560 620 L 560 640 L 560 660 L 560 680 L 560 700 L 560 720 L 560 740 L 580 740 L 580 720 L 580 700 L 580 680 L 580 660 L 580 640 L 580 620 L 560 620 z "
     style="opacity:0.99607843;fill:#557bd4" />
  <path
     id="rect1638"
     d="M 580 720 L 580 740 L 600 740 L 600 720 L 580 720 z "
     style="opacity:0.99607843;fill:#6079e4" />
  <path
     id="rect1640"
     d="M 600 620 L 600 640 L 620 640 L 620 620 L 600 620 z M 600 720 L 600 740 L 620 740 L 620 720 L 600 720 z "
     style="opacity:0.99607843;fill:#6071f3" />
  <path
     id="rect1642"
     d="M 340 340 L 340 360 L 360 360 L 360 340 L 340 340 z M 620 720 L 620 740 L 640 740 L 640 720 L 620 720 z "
     style="opacity:0.99607843;fill:#6271f7" />
  <path
     id="rect1646"
     d="M 640 200 L 640 220 L 660 220 L 680 220 L 680 200 L 660 200 L 640 200 z M 640 480 L 640 500 L 660 500 L 680 500 L 680 480 L 660 480 L 640 480 z M 640 540 L 640 560 L 660 560 L 680 560 L 680 540 L 660 540 L 640 540 z M 640 720 L 640 740 L 660 740 L 680 740 L 680 720 L 660 720 L 640 720 z "
     style="opacity:0.99607843;fill:#5e6ff8" />
  <path
     id="rect1648"
     d="M 680 720 L 680 740 L 700 740 L 700 720 L 680 720 z "
     style="opacity:0.99607843;fill:#1d39f9" />
  <path
     id="rect1650"
     d="M 700 720 L 700 740 L 720 740 L 720 720 L 700 720 z "
     style="opacity:0.99607843;fill:#031ad1" />
  <path
     id="rect1658"
     d="M 240 740 L 240 760 L 260 760 L 260 740 L 240 740 z "
     style="fill:#355eb7" />
  <path
     id="rect1660"
     d="M 380 40 L 380 60 L 400 60 L 400 40 L 380 40 z M 380 60 L 360 60 L 360 80 L 380 80 L 380 60 z M 560 140 L 560 160 L 580 160 L 600 160 L 620 160 L 640 160 L 660 160 L 680 160 L 680 140 L 660 140 L 640 140 L 620 140 L 600 140 L 580 140 L 560 140 z M 260 180 L 260 200 L 260 220 L 260 240 L 260 260 L 260 280 L 260 300 L 260 320 L 260 340 L 260 360 L 260 380 L 260 400 L 260 420 L 260 440 L 260 460 L 260 480 L 260 500 L 260 520 L 260 540 L 260 560 L 260 580 L 260 600 L 260 620 L 260 640 L 260 660 L 260 680 L 260 700 L 260 720 L 260 740 L 260 760 L 280 760 L 280 740 L 280 720 L 280 700 L 280 680 L 280 660 L 280 640 L 280 620 L 280 600 L 280 580 L 280 560 L 280 540 L 280 520 L 280 500 L 280 480 L 280 460 L 280 440 L 280 420 L 280 400 L 280 380 L 280 360 L 280 340 L 280 320 L 280 300 L 280 280 L 280 260 L 280 240 L 280 220 L 280 200 L 280 180 L 260 180 z M 560 240 L 560 260 L 560 280 L 580 280 L 580 260 L 580 240 L 560 240 z M 480 340 L 480 360 L 500 360 L 520 360 L 520 340 L 500 340 L 480 340 z "
     style="fill:#95a3ea" />
  <path
     id="rect1662"
     d="M 280 740 L 280 760 L 300 760 L 300 740 L 280 740 z "
     style="fill:#6175f7" />
  <path
     id="rect1668"
     d="M 340 260 L 340 280 L 340 300 L 340 320 L 360 320 L 360 300 L 360 280 L 360 260 L 340 260 z M 620 500 L 620 520 L 620 540 L 620 560 L 640 560 L 640 540 L 640 520 L 640 500 L 620 500 z M 300 740 L 300 760 L 320 760 L 340 760 L 360 760 L 360 740 L 340 740 L 320 740 L 300 740 z "
     style="fill:#6174fc" />
  <path
     id="rect1670"
     d="M 360 740 L 360 760 L 380 760 L 380 740 L 360 740 z "
     style="opacity:0.99607843;fill:#4d60f8" />
  <path
     id="rect1672"
     d="M 380 740 L 380 760 L 400 760 L 400 740 L 380 740 z "
     style="fill:#0e27ee" />
  <path
     id="rect1674"
     d="M 400 740 L 400 760 L 420 760 L 420 740 L 400 740 z "
     style="fill:#172cb9" />
  <path
     id="rect1684"
     d="M 560 600 L 560 620 L 580 620 L 580 600 L 560 600 z M 560 740 L 560 760 L 580 760 L 580 740 L 560 740 z "
     style="fill:#557bd5" />
  <path
     id="rect1686"
     d="M 580 740 L 580 760 L 600 760 L 600 740 L 580 740 z "
     style="opacity:0.99607843;fill:#5e7cea" />
  <path
     id="rect1688"
     d="M 620 220 L 620 240 L 640 240 L 640 220 L 620 220 z M 300 240 L 300 260 L 320 260 L 340 260 L 340 240 L 320 240 L 300 240 z M 620 440 L 620 460 L 640 460 L 640 440 L 620 440 z M 620 580 L 620 600 L 640 600 L 640 580 L 620 580 z M 300 700 L 300 720 L 320 720 L 340 720 L 360 720 L 360 700 L 340 700 L 320 700 L 300 700 z M 600 740 L 600 760 L 620 760 L 620 740 L 600 740 z "
     style="fill:#6272f8" />
  <path
     id="rect1694"
     d="M 640 740 L 640 760 L 660 760 L 680 760 L 680 740 L 660 740 L 640 740 z "
     style="fill:#5f70fb" />
  <path
     id="rect1696"
     d="M 680 740 L 680 760 L 700 760 L 700 740 L 680 740 z "
     style="fill:#1c3af9" />
  <path
     id="rect1698"
     d="M 700 740 L 700 760 L 720 760 L 720 740 L 700 740 z "
     style="fill:#021cd5" />
  <path
     id="rect1706"
     d="M 240 760 L 240 780 L 260 780 L 260 760 L 240 760 z "
     style="fill:#174aac" />
  <path
     id="rect1708"
     d="M 260 760 L 260 780 L 280 780 L 280 760 L 260 760 z "
     style="fill:#2755db" />
  <path
     id="rect1710"
     d="M 280 760 L 280 780 L 300 780 L 300 760 L 280 760 z "
     style="fill:#2d4bf5" />
  <path
     id="rect1716"
     d="M 300 760 L 300 780 L 320 780 L 340 780 L 360 780 L 360 760 L 340 760 L 320 760 L 300 760 z "
     style="fill:#2e49fa" />
  <path
     id="rect1718"
     d="M 360 760 L 360 780 L 380 780 L 380 760 L 360 760 z "
     style="opacity:0.99607843;fill:#2844f9" />
  <path
     id="rect1720"
     d="M 380 760 L 380 780 L 400 780 L 400 760 L 380 760 z "
     style="fill:#0927f4" />
  <path
     id="rect1722"
     d="M 400 760 L 400 780 L 420 780 L 420 760 L 400 760 z "
     style="fill:#182dbc" />
  <path
     id="rect1730"
     d="M 540 580 L 540 600 L 540 620 L 540 640 L 540 660 L 540 680 L 540 700 L 540 720 L 540 740 L 540 760 L 540 780 L 560 780 L 560 760 L 560 740 L 560 720 L 560 700 L 560 680 L 560 660 L 560 640 L 560 620 L 560 600 L 560 580 L 540 580 z "
     style="fill:#1b4a95" />
  <path
     id="rect1732"
     d="M 560 760 L 560 780 L 580 780 L 580 760 L 560 760 z "
     style="fill:#557eda" />
  <path
     id="rect1734"
     d="M 580 540 L 580 560 L 580 580 L 580 600 L 600 600 L 600 580 L 600 560 L 600 540 L 580 540 z M 580 760 L 580 780 L 600 780 L 600 760 L 580 760 z "
     style="opacity:0.99607843;fill:#5d7cec" />
  <path
     id="rect1738"
     d="M 620 760 L 620 780 L 640 780 L 640 760 L 620 760 z "
     style="fill:#6173fc" />
  <path
     id="rect1742"
     d="M 640 760 L 640 780 L 660 780 L 680 780 L 680 760 L 660 760 L 640 760 z "
     style="fill:#4b61fb" />
  <path
     id="rect1744"
     d="M 680 760 L 680 780 L 700 780 L 700 760 L 680 760 z "
     style="fill:#1030fb" />
  <path
     id="rect1746"
     d="M 700 760 L 700 780 L 720 780 L 720 760 L 700 760 z "
     style="fill:#1a30cb" />
  <path
     id="rect1754"
     d="M 240 780 L 240 800 L 260 800 L 260 780 L 240 780 z "
     style="fill:#002f97" />
  <path
     id="rect1756"
     d="M 260 780 L 260 800 L 280 800 L 280 780 L 260 780 z "
     style="fill:#0528c6" />
  <path
     id="rect1758"
     d="M 280 780 L 280 800 L 300 800 L 300 780 L 280 780 z "
     style="fill:#0520e9" />
  <path
     id="rect1762"
     d="M 300 780 L 300 800 L 320 800 L 340 800 L 340 780 L 320 780 L 300 780 z "
     style="fill:#0520f1" />
  <path
     id="rect1764"
     d="M 340 780 L 340 800 L 360 800 L 360 780 L 340 780 z "
     style="fill:#051ff2" />
  <path
     id="rect1766"
     d="M 360 780 L 360 800 L 380 800 L 380 780 L 360 780 z "
     style="opacity:0.99607843;fill:#031fef" />
  <path
     id="rect1768"
     d="M 380 780 L 380 800 L 400 800 L 400 780 L 380 780 z "
     style="fill:#021cec" />
  <path
     id="rect1770"
     d="M 400 780 L 400 800 L 420 800 L 420 780 L 400 780 z "
     style="fill:#1830bb" />
  <path
     id="rect1778"
     d="M 540 780 L 540 800 L 560 800 L 560 780 L 540 780 z "
     style="fill:#1d4a9d" />
  <path
     id="rect1782"
     d="M 580 780 L 580 800 L 600 800 L 600 780 L 580 780 z "
     style="opacity:0.99607843;fill:#5f7ded" />
  <path
     id="rect1784"
     d="M 300 280 L 300 300 L 300 320 L 320 320 L 340 320 L 340 300 L 340 280 L 320 280 L 300 280 z M 600 460 L 600 480 L 600 500 L 600 520 L 620 520 L 620 500 L 640 500 L 640 480 L 620 480 L 620 460 L 600 460 z M 600 540 L 600 560 L 620 560 L 620 540 L 600 540 z M 620 560 L 620 580 L 640 580 L 640 560 L 620 560 z M 300 720 L 300 740 L 320 740 L 340 740 L 360 740 L 360 720 L 340 720 L 320 720 L 300 720 z M 620 740 L 620 760 L 640 760 L 640 740 L 620 740 z M 620 760 L 600 760 L 600 780 L 600 800 L 620 800 L 620 780 L 620 760 z "
     style="fill:#6173fa" />
  <path
     id="rect1786"
     d="M 620 780 L 620 800 L 640 800 L 640 780 L 620 780 z "
     style="fill:#4d62fb" />
  <path
     id="rect1790"
     d="M 640 780 L 640 800 L 660 800 L 680 800 L 680 780 L 660 780 L 640 780 z "
     style="fill:#1837fa" />
  <path
     id="rect1818"
     d="M 380 0 L 380 20 L 400 20 L 400 0 L 380 0 z M 380 20 L 360 20 L 360 40 L 380 40 L 380 20 z M 360 40 L 340 40 L 340 60 L 360 60 L 360 40 z M 340 60 L 320 60 L 320 80 L 340 80 L 340 60 z M 320 80 L 300 80 L 300 100 L 320 100 L 320 80 z M 300 100 L 280 100 L 280 120 L 300 120 L 300 100 z M 280 120 L 260 120 L 260 140 L 280 140 L 280 120 z M 260 140 L 240 140 L 240 160 L 260 160 L 260 140 z M 560 120 L 560 140 L 580 140 L 600 140 L 620 140 L 640 140 L 660 140 L 680 140 L 700 140 L 700 120 L 680 120 L 660 120 L 640 120 L 620 120 L 600 120 L 580 120 L 560 120 z M 700 300 L 700 320 L 700 340 L 700 360 L 720 360 L 720 340 L 720 320 L 720 300 L 700 300 z M 260 800 L 260 820 L 280 820 L 300 820 L 320 820 L 340 820 L 360 820 L 380 820 L 400 820 L 420 820 L 420 800 L 400 800 L 380 800 L 360 800 L 340 800 L 320 800 L 300 800 L 280 800 L 260 800 z "
     style="fill:#0618c6" />
  <path
     id="rect1826"
     d="M 540 800 L 540 820 L 560 820 L 560 800 L 540 800 z "
     style="fill:#1d4ca1" />
  <path
     id="rect1828"
     d="M 560 540 L 560 560 L 560 580 L 580 580 L 580 560 L 580 540 L 560 540 z M 560 780 L 560 800 L 560 820 L 580 820 L 580 800 L 580 780 L 560 780 z "
     style="fill:#557edb" />
  <path
     id="rect1830"
     d="M 580 800 L 580 820 L 600 820 L 600 800 L 580 800 z "
     style="opacity:0.99607843;fill:#5f7cef" />
  <path
     id="rect1832"
     d="M 600 800 L 600 820 L 620 820 L 620 800 L 600 800 z "
     style="fill:#4b60fa" />
  <path
     id="rect1834"
     d="M 620 800 L 620 820 L 640 820 L 640 800 L 620 800 z "
     style="fill:#1736fb" />
  <path
     id="rect1838"
     d="M 640 800 L 640 820 L 660 820 L 680 820 L 680 800 L 660 800 L 640 800 z "
     style="fill:#0520f7" />
  <path
     id="rect1868"
     d="M 540 820 L 540 840 L 560 840 L 560 820 L 540 820 z "
     style="opacity:0.99607843;fill:#1d4da5" />
  <path
     id="rect1870"
     d="M 560 820 L 560 840 L 580 840 L 580 820 L 560 820 z "
     style="opacity:0.99607843;fill:#5279db" />
  <path
     id="rect1872"
     d="M 580 820 L 580 840 L 600 840 L 600 820 L 580 820 z "
     style="opacity:0.99607843;fill:#4766ee" />
  <path
     id="rect1874"
     d="M 600 820 L 600 840 L 620 840 L 620 820 L 600 820 z "
     style="opacity:0.99607843;fill:#1838fa" />
  <path
     id="rect1876"
     d="M 620 820 L 620 840 L 640 840 L 640 820 L 620 820 z "
     style="opacity:0.99607843;fill:#0521f7" />
  <path
     id="rect1878"
     d="M 640 820 L 640 840 L 660 840 L 660 820 L 640 820 z "
     style="opacity:0.99607843;fill:#2032d7" />
  <path
     id="rect1906"
     d="M 540 840 L 540 860 L 560 860 L 560 840 L 540 840 z "
     style="fill:#1d4ea6" />
  <path
     id="rect1908"
     d="M 560 840 L 560 860 L 580 860 L 580 840 L 560 840 z "
     style="fill:#3263d3" />
  <path
     id="rect1910"
     d="M 580 840 L 580 860 L 600 860 L 600 840 L 580 840 z "
     style="opacity:0.99607843;fill:#0f3ce8" />
  <path
     id="rect1912"
     d="M 680 780 L 680 800 L 700 800 L 700 780 L 680 780 z M 600 840 L 600 860 L 620 860 L 620 840 L 600 840 z "
     style="fill:#0420f8" />
  <path
     id="rect1914"
     d="M 620 840 L 620 860 L 640 860 L 640 840 L 620 840 z "
     style="fill:#2333d6" />
  <path
     id="rect1940"
     d="M 540 860 L 540 880 L 560 880 L 560 860 L 540 860 z "
     style="fill:#1a4da5" />
  <path
     id="rect1942"
     d="M 560 860 L 560 880 L 580 880 L 580 860 L 560 860 z "
     style="fill:#0842c4" />
  <path
     id="rect1944"
     d="M 580 860 L 580 880 L 600 880 L 600 860 L 580 860 z "
     style="opacity:0.99607843;fill:#0727df" />
  <path
     id="rect1946"
     d="M 600 860 L 600 880 L 620 880 L 620 860 L 600 860 z "
     style="fill:#2032d5" />
  <path
     id="rect1956"
     d="M 540 880 L 540 900 L 560 900 L 560 880 L 540 880 z "
     style="fill:#18479d" />
  <path
     id="rect1958"
     d="M 560 880 L 560 900 L 580 900 L 580 880 L 560 880 z "
     style="fill:#0236b8" />
  <path
     id="rect1960"
     d="M 580 880 L 580 900 L 600 900 L 600 880 L 580 880 z "
     style="opacity:0.99607843;fill:#203abc" />
  <path
     id="rect1970"
     d="M 540 900 L 540 920 L 560 920 L 560 900 L 540 900 z "
     style="fill:#164092" />
  <path
     id="rect1972"
     d="M 560 900 L 560 920 L 580 920 L 580 900 L 560 900 z "
     style="fill:#204ba0" />
  <path
     id="rect1982"
     d="M 540 920 L 540 940 L 560 940 L 560 920 L 540 920 z "
     style="fill:#325aa3" />
  <path
     id="rect1996"
     d="M 360 0 L 360 20 L 380 20 L 380 0 L 360 0 z M 360 20 L 340 20 L 340 40 L 360 40 L 360 20 z M 340 40 L 320 40 L 320 60 L 340 60 L 340 40 z M 320 60 L 300 60 L 300 80 L 320 80 L 320 60 z M 300 80 L 280 80 L 280 100 L 300 100 L 300 80 z M 420 0 L 420 20 L 420 40 L 420 60 L 420 80 L 420 100 L 420 120 L 420 140 L 420 160 L 420 180 L 420 200 L 420 220 L 420 240 L 420 260 L 420 280 L 420 300 L 440 300 L 460 300 L 480 300 L 480 280 L 480 260 L 480 240 L 480 220 L 480 200 L 480 180 L 480 160 L 480 140 L 480 120 L 480 100 L 480 80 L 480 60 L 480 40 L 460 40 L 460 20 L 440 20 L 440 0 L 420 0 z M 560 100 L 560 120 L 580 120 L 600 120 L 620 120 L 640 120 L 660 120 L 680 120 L 700 120 L 700 100 L 680 100 L 660 100 L 640 100 L 620 100 L 600 100 L 580 100 L 560 100 z M 700 120 L 700 140 L 720 140 L 720 120 L 700 120 z M 720 140 L 720 160 L 720 180 L 720 200 L 720 220 L 720 240 L 720 260 L 720 280 L 720 300 L 720 320 L 720 340 L 720 360 L 720 380 L 720 400 L 720 420 L 720 440 L 720 460 L 720 480 L 720 500 L 720 520 L 720 540 L 720 560 L 720 580 L 720 600 L 720 620 L 720 640 L 720 660 L 720 680 L 720 700 L 720 720 L 720 740 L 720 760 L 720 780 L 700 780 L 700 800 L 680 800 L 680 820 L 660 820 L 660 840 L 640 840 L 640 860 L 620 860 L 620 880 L 600 880 L 600 900 L 580 900 L 580 920 L 560 920 L 560 940 L 540 940 L 540 960 L 560 960 L 580 960 L 600 960 L 600 940 L 620 940 L 640 940 L 640 920 L 660 920 L 660 900 L 680 900 L 680 880 L 700 880 L 700 860 L 700 840 L 720 840 L 720 820 L 740 820 L 740 800 L 760 800 L 780 800 L 780 780 L 780 760 L 780 740 L 780 720 L 780 700 L 780 680 L 780 660 L 780 640 L 780 620 L 780 600 L 780 580 L 780 560 L 780 540 L 780 520 L 780 500 L 780 480 L 780 460 L 780 440 L 780 420 L 780 400 L 780 380 L 780 360 L 780 340 L 780 320 L 780 300 L 780 280 L 780 260 L 780 240 L 780 220 L 780 200 L 760 200 L 760 180 L 760 160 L 740 160 L 740 140 L 720 140 z M 560 120 L 540 120 L 540 140 L 560 140 L 560 120 z M 240 120 L 240 140 L 260 140 L 260 120 L 240 120 z M 420 480 L 420 500 L 420 520 L 420 540 L 420 560 L 420 580 L 420 600 L 420 620 L 420 640 L 420 660 L 420 680 L 420 700 L 420 720 L 420 740 L 420 760 L 420 780 L 420 800 L 420 820 L 400 820 L 380 820 L 360 820 L 340 820 L 320 820 L 300 820 L 280 820 L 260 820 L 260 840 L 280 840 L 280 860 L 300 860 L 300 880 L 320 880 L 340 880 L 360 880 L 380 880 L 400 880 L 420 880 L 440 880 L 460 880 L 480 880 L 480 860 L 480 840 L 480 820 L 480 800 L 480 780 L 480 760 L 480 740 L 480 720 L 480 700 L 480 680 L 480 660 L 480 640 L 480 620 L 480 600 L 480 580 L 480 560 L 480 540 L 500 540 L 520 540 L 540 540 L 540 520 L 540 500 L 540 480 L 520 480 L 500 480 L 480 480 L 460 480 L 440 480 L 420 480 z M 260 820 L 260 800 L 240 800 L 240 820 L 260 820 z "
     style="opacity:0.15686275;fill:#343434" />
</svg>
