<?xml version="1.0" encoding="UTF-8" standalone="no"?>
<svg
   xmlns:dc="http://purl.org/dc/elements/1.1/"
   xmlns:cc="http://creativecommons.org/ns#"
   xmlns:rdf="http://www.w3.org/1999/02/22-rdf-syntax-ns#"
   xmlns:svg="http://www.w3.org/2000/svg"
   xmlns="http://www.w3.org/2000/svg"
   xmlns:sodipodi="http://sodipodi.sourceforge.net/DTD/sodipodi-0.dtd"
   xmlns:inkscape="http://www.inkscape.org/namespaces/inkscape"
   id="svg3578"
   width="960px"
   version="1.1"
   height="960px"
   sodipodi:docname="chicago95_tmp_file.svg"
   inkscape:version="0.92.4 (5da689c313, 2019-01-14)">
  <sodipodi:namedview
     pagecolor="#ffffff"
     bordercolor="#666666"
     borderopacity="1"
     objecttolerance="10"
     gridtolerance="10"
     guidetolerance="10"
     inkscape:pageopacity="0"
     inkscape:pageshadow="2"
     inkscape:window-width="640"
     inkscape:window-height="480"
     id="namedview1792"
     showgrid="false"
     inkscape:zoom="0.24583333"
     inkscape:cx="479.99996"
     inkscape:cy="479.99996"
     inkscape:window-x="0"
     inkscape:window-y="0"
     inkscape:window-maximized="0"
     inkscape:current-layer="svg3578" />
  <metadata
     id="metadata3582">
    <rdf:RDF>
      <cc:Work
         rdf:about="">
        <dc:format>image/svg+xml</dc:format>
        <dc:type
           rdf:resource="http://purl.org/dc/dcmitype/StillImage" />
      </cc:Work>
    </rdf:RDF>
  </metadata>
  <defs
     id="defs2" />
  <path
     style="fill:#f8fc00"
     d="M 280 240 L 280 260 L 300 260 L 300 240 L 280 240 z M 280 260 L 260 260 L 260 280 L 280 280 L 280 260 z M 260 280 L 240 280 L 240 300 L 260 300 L 260 280 z M 240 300 L 220 300 L 220 320 L 240 320 L 240 300 z M 220 320 L 200 320 L 200 340 L 220 340 L 220 320 z M 220 340 L 220 360 L 240 360 L 240 340 L 220 340 z M 220 360 L 200 360 L 200 380 L 220 380 L 220 360 z M 220 380 L 220 400 L 240 400 L 240 380 L 220 380 z M 220 400 L 200 400 L 200 420 L 220 420 L 220 400 z M 220 420 L 220 440 L 240 440 L 240 420 L 220 420 z M 220 440 L 200 440 L 200 460 L 180 460 L 180 440 L 160 440 L 160 460 L 140 460 L 140 480 L 160 480 L 160 500 L 180 500 L 180 480 L 200 480 L 200 500 L 220 500 L 220 480 L 240 480 L 240 460 L 220 460 L 220 440 z M 220 500 L 220 520 L 240 520 L 240 500 L 220 500 z M 220 520 L 200 520 L 200 540 L 220 540 L 220 520 z M 220 540 L 220 560 L 240 560 L 240 540 L 220 540 z M 220 560 L 200 560 L 200 580 L 220 580 L 220 560 z M 220 580 L 220 600 L 240 600 L 240 580 L 220 580 z M 240 600 L 240 620 L 260 620 L 260 600 L 240 600 z M 260 620 L 260 640 L 280 640 L 280 620 L 260 620 z M 280 640 L 280 660 L 300 660 L 300 640 L 280 640 z M 200 560 L 200 540 L 180 540 L 180 560 L 200 560 z M 180 540 L 180 520 L 160 520 L 160 540 L 180 540 z M 160 520 L 160 500 L 140 500 L 140 520 L 160 520 z M 180 520 L 200 520 L 200 500 L 180 500 L 180 520 z M 160 440 L 160 420 L 140 420 L 140 440 L 160 440 z M 160 420 L 180 420 L 180 400 L 160 400 L 160 420 z M 160 400 L 160 380 L 140 380 L 140 400 L 160 400 z M 160 380 L 180 380 L 180 360 L 160 360 L 160 380 z M 180 360 L 200 360 L 200 340 L 180 340 L 180 360 z M 180 380 L 180 400 L 200 400 L 200 380 L 180 380 z M 180 420 L 180 440 L 200 440 L 200 420 L 180 420 z M 280 300 L 280 320 L 300 320 L 300 300 L 280 300 z M 300 320 L 300 340 L 320 340 L 320 320 L 300 320 z M 320 320 L 340 320 L 340 300 L 320 300 L 320 320 z M 340 320 L 340 340 L 360 340 L 360 320 L 340 320 z M 340 340 L 320 340 L 320 360 L 340 360 L 340 340 z M 340 360 L 340 380 L 360 380 L 360 360 L 340 360 z M 340 380 L 320 380 L 320 400 L 340 400 L 340 380 z M 340 400 L 340 420 L 360 420 L 360 400 L 340 400 z M 340 420 L 320 420 L 320 440 L 340 440 L 340 420 z M 340 440 L 340 460 L 360 460 L 360 440 L 340 440 z M 340 460 L 320 460 L 320 480 L 340 480 L 340 460 z M 340 480 L 340 500 L 360 500 L 360 480 L 340 480 z M 340 500 L 320 500 L 320 520 L 340 520 L 340 500 z M 340 520 L 340 540 L 360 540 L 360 520 L 340 520 z M 340 540 L 320 540 L 320 560 L 340 560 L 340 540 z M 340 560 L 340 580 L 360 580 L 360 560 L 340 560 z M 340 580 L 320 580 L 320 600 L 340 600 L 340 580 z M 320 600 L 300 600 L 300 620 L 320 620 L 320 600 z M 300 600 L 300 580 L 280 580 L 280 600 L 300 600 z M 280 580 L 280 560 L 260 560 L 260 580 L 280 580 z M 280 560 L 300 560 L 300 540 L 280 540 L 280 560 z M 300 540 L 320 540 L 320 520 L 300 520 L 300 540 z M 300 520 L 300 500 L 280 500 L 280 520 L 300 520 z M 300 500 L 320 500 L 320 480 L 300 480 L 300 500 z M 300 560 L 300 580 L 320 580 L 320 560 L 300 560 z M 320 420 L 320 400 L 300 400 L 300 420 L 320 420 z M 300 400 L 300 380 L 280 380 L 280 400 L 300 400 z M 280 380 L 280 360 L 260 360 L 260 380 L 280 380 z M 280 360 L 300 360 L 300 340 L 280 340 L 280 360 z M 280 340 L 280 320 L 260 320 L 260 340 L 280 340 z M 300 360 L 300 380 L 320 380 L 320 360 L 300 360 z M 80 400 L 80 420 L 80 440 L 80 460 L 80 480 L 80 500 L 100 500 L 120 500 L 120 480 L 120 460 L 120 440 L 120 420 L 100 420 L 100 400 L 80 400 z "
     id="rect2404" />
  <path
     style="fill:#f8fcf8"
     d="M 200 20 L 200 40 L 200 60 L 200 80 L 200 100 L 200 120 L 200 140 L 200 160 L 200 180 L 200 200 L 200 220 L 200 240 L 200 260 L 200 280 L 220 280 L 220 260 L 240 260 L 240 240 L 260 240 L 260 220 L 280 220 L 280 200 L 300 200 L 300 220 L 320 220 L 340 220 L 340 240 L 360 240 L 360 260 L 360 280 L 380 280 L 400 280 L 400 300 L 400 320 L 420 320 L 420 340 L 420 360 L 440 360 L 440 340 L 460 340 L 480 340 L 480 320 L 500 320 L 520 320 L 520 300 L 540 300 L 560 300 L 560 280 L 580 280 L 580 260 L 600 260 L 600 280 L 600 300 L 580 300 L 580 320 L 560 320 L 540 320 L 540 340 L 520 340 L 500 340 L 500 360 L 480 360 L 460 360 L 460 380 L 440 380 L 440 400 L 440 420 L 440 440 L 460 440 L 480 440 L 500 440 L 520 440 L 540 440 L 560 440 L 560 460 L 560 480 L 540 480 L 520 480 L 500 480 L 480 480 L 460 480 L 440 480 L 440 500 L 440 520 L 440 540 L 440 560 L 460 560 L 460 580 L 480 580 L 500 580 L 500 600 L 520 600 L 540 600 L 540 620 L 560 620 L 580 620 L 580 640 L 600 640 L 600 660 L 600 680 L 580 680 L 580 660 L 560 660 L 560 640 L 540 640 L 520 640 L 520 620 L 500 620 L 480 620 L 480 600 L 460 600 L 440 600 L 440 620 L 440 640 L 440 660 L 440 680 L 440 700 L 420 700 L 420 720 L 400 720 L 400 740 L 380 740 L 380 760 L 360 760 L 360 740 L 340 740 L 320 740 L 320 720 L 300 720 L 300 700 L 280 700 L 280 680 L 260 680 L 260 660 L 240 660 L 240 640 L 220 640 L 220 620 L 200 620 L 200 640 L 200 660 L 200 680 L 200 700 L 200 720 L 200 740 L 200 760 L 200 780 L 200 800 L 200 820 L 200 840 L 200 860 L 200 880 L 200 900 L 200 920 L 220 920 L 240 920 L 260 920 L 280 920 L 300 920 L 320 920 L 340 920 L 360 920 L 380 920 L 400 920 L 420 920 L 440 920 L 460 920 L 480 920 L 500 920 L 520 920 L 540 920 L 560 920 L 580 920 L 600 920 L 620 920 L 640 920 L 660 920 L 680 920 L 700 920 L 720 920 L 740 920 L 760 920 L 780 920 L 800 920 L 820 920 L 840 920 L 860 920 L 880 920 L 880 900 L 880 880 L 880 860 L 880 840 L 880 820 L 880 800 L 880 780 L 880 760 L 880 740 L 880 720 L 880 700 L 880 680 L 880 660 L 880 640 L 880 620 L 880 600 L 880 580 L 880 560 L 880 540 L 880 520 L 880 500 L 880 480 L 880 460 L 880 440 L 880 420 L 880 400 L 880 380 L 880 360 L 880 340 L 880 320 L 880 300 L 880 280 L 880 260 L 880 240 L 880 220 L 880 200 L 860 200 L 840 200 L 820 200 L 800 200 L 780 200 L 760 200 L 740 200 L 720 200 L 720 180 L 720 160 L 720 140 L 720 120 L 720 100 L 720 80 L 720 60 L 720 40 L 720 20 L 700 20 L 680 20 L 660 20 L 640 20 L 620 20 L 600 20 L 580 20 L 560 20 L 540 20 L 520 20 L 500 20 L 480 20 L 460 20 L 440 20 L 420 20 L 400 20 L 380 20 L 360 20 L 340 20 L 320 20 L 300 20 L 280 20 L 260 20 L 240 20 L 220 20 L 200 20 z M 740 120 L 740 140 L 740 160 L 740 180 L 760 180 L 780 180 L 800 180 L 800 160 L 780 160 L 780 140 L 760 140 L 760 120 L 740 120 z M 220 320 L 220 340 L 240 340 L 240 320 L 220 320 z M 220 340 L 200 340 L 200 360 L 220 360 L 220 340 z M 220 360 L 220 380 L 240 380 L 240 360 L 220 360 z M 220 380 L 200 380 L 200 400 L 220 400 L 220 380 z M 220 400 L 220 420 L 240 420 L 240 400 L 220 400 z M 220 420 L 200 420 L 200 440 L 220 440 L 220 420 z M 220 440 L 220 460 L 240 460 L 240 440 L 220 440 z M 200 440 L 180 440 L 180 460 L 200 460 L 200 440 z M 180 440 L 180 420 L 160 420 L 160 440 L 180 440 z M 160 440 L 140 440 L 140 460 L 160 460 L 160 440 z M 160 420 L 160 400 L 140 400 L 140 420 L 160 420 z M 160 400 L 180 400 L 180 380 L 160 380 L 160 400 z M 180 380 L 200 380 L 200 360 L 180 360 L 180 380 z M 180 400 L 180 420 L 200 420 L 200 400 L 180 400 z M 100 380 L 100 400 L 100 420 L 120 420 L 120 400 L 120 380 L 100 380 z M 340 460 L 340 480 L 360 480 L 360 460 L 340 460 z M 340 480 L 320 480 L 320 500 L 340 500 L 340 480 z M 340 500 L 340 520 L 360 520 L 360 500 L 340 500 z M 340 520 L 320 520 L 320 540 L 340 540 L 340 520 z M 340 540 L 340 560 L 360 560 L 360 540 L 340 540 z M 340 560 L 320 560 L 320 580 L 340 580 L 340 560 z M 340 580 L 340 600 L 360 600 L 360 580 L 340 580 z M 340 600 L 320 600 L 320 620 L 340 620 L 340 600 z M 320 600 L 320 580 L 300 580 L 300 600 L 320 600 z M 300 580 L 300 560 L 280 560 L 280 580 L 300 580 z M 280 560 L 280 540 L 260 540 L 260 560 L 280 560 z M 280 540 L 300 540 L 300 520 L 280 520 L 280 540 z M 300 520 L 320 520 L 320 500 L 300 500 L 300 520 z M 300 540 L 300 560 L 320 560 L 320 540 L 300 540 z "
     id="rect3424" />
  <path
     style="fill:#808080"
     d="M 180 0 L 180 20 L 180 40 L 180 60 L 180 80 L 180 100 L 180 120 L 180 140 L 180 160 L 180 180 L 180 200 L 180 220 L 180 240 L 180 260 L 180 280 L 180 300 L 200 300 L 200 280 L 200 260 L 200 240 L 200 220 L 200 200 L 200 180 L 200 160 L 200 140 L 200 120 L 200 100 L 200 80 L 200 60 L 200 40 L 200 20 L 220 20 L 240 20 L 260 20 L 280 20 L 300 20 L 320 20 L 340 20 L 360 20 L 380 20 L 400 20 L 420 20 L 440 20 L 460 20 L 480 20 L 500 20 L 520 20 L 540 20 L 560 20 L 580 20 L 600 20 L 620 20 L 640 20 L 660 20 L 680 20 L 700 20 L 720 20 L 720 40 L 720 60 L 720 80 L 720 100 L 720 120 L 720 140 L 720 160 L 720 180 L 720 200 L 740 200 L 740 180 L 740 160 L 740 140 L 740 120 L 740 100 L 740 80 L 760 80 L 760 100 L 780 100 L 780 120 L 800 120 L 800 140 L 820 140 L 820 160 L 840 160 L 840 180 L 860 180 L 880 180 L 880 160 L 860 160 L 860 140 L 840 140 L 840 120 L 820 120 L 820 100 L 800 100 L 800 80 L 780 80 L 780 60 L 760 60 L 760 40 L 740 40 L 740 20 L 740 0 L 720 0 L 700 0 L 680 0 L 660 0 L 640 0 L 620 0 L 600 0 L 580 0 L 560 0 L 540 0 L 520 0 L 500 0 L 480 0 L 460 0 L 440 0 L 420 0 L 400 0 L 380 0 L 360 0 L 340 0 L 320 0 L 300 0 L 280 0 L 260 0 L 240 0 L 220 0 L 200 0 L 180 0 z M 300 260 L 300 280 L 320 280 L 340 280 L 360 280 L 360 260 L 340 260 L 320 260 L 300 260 z M 360 280 L 360 300 L 360 320 L 360 340 L 360 360 L 360 380 L 360 400 L 360 420 L 360 440 L 360 460 L 360 480 L 360 500 L 360 520 L 360 540 L 360 560 L 360 580 L 360 600 L 360 620 L 380 620 L 380 600 L 380 580 L 380 560 L 380 540 L 380 520 L 380 500 L 380 480 L 380 460 L 380 440 L 380 420 L 380 400 L 380 380 L 380 360 L 380 340 L 380 320 L 380 300 L 380 280 L 360 280 z M 360 620 L 340 620 L 340 640 L 360 640 L 360 620 z M 300 280 L 280 280 L 260 280 L 260 300 L 260 320 L 280 320 L 280 300 L 300 300 L 300 280 z M 580 260 L 580 280 L 560 280 L 560 300 L 540 300 L 520 300 L 520 320 L 500 320 L 480 320 L 480 340 L 460 340 L 440 340 L 440 360 L 420 360 L 420 380 L 440 380 L 460 380 L 460 360 L 480 360 L 500 360 L 500 340 L 520 340 L 540 340 L 540 320 L 560 320 L 580 320 L 580 300 L 600 300 L 600 280 L 600 260 L 580 260 z M 120 420 L 120 440 L 120 460 L 120 480 L 120 500 L 100 500 L 100 520 L 120 520 L 140 520 L 140 500 L 140 480 L 140 460 L 140 440 L 140 420 L 120 420 z M 140 520 L 140 540 L 160 540 L 160 520 L 140 520 z M 160 540 L 160 560 L 180 560 L 180 540 L 160 540 z M 180 560 L 180 580 L 200 580 L 200 560 L 180 560 z M 200 580 L 200 600 L 220 600 L 220 580 L 200 580 z M 220 600 L 220 620 L 240 620 L 240 600 L 220 600 z M 240 620 L 240 640 L 260 640 L 260 620 L 240 620 z M 260 620 L 280 620 L 300 620 L 300 600 L 280 600 L 280 580 L 260 580 L 260 600 L 260 620 z M 260 640 L 260 660 L 280 660 L 280 640 L 260 640 z M 200 600 L 180 600 L 180 620 L 180 640 L 180 660 L 180 680 L 180 700 L 180 720 L 180 740 L 180 760 L 180 780 L 180 800 L 180 820 L 180 840 L 180 860 L 180 880 L 180 900 L 180 920 L 180 940 L 200 940 L 200 920 L 200 900 L 200 880 L 200 860 L 200 840 L 200 820 L 200 800 L 200 780 L 200 760 L 200 740 L 200 720 L 200 700 L 200 680 L 200 660 L 200 640 L 200 620 L 200 600 z M 260 440 L 260 460 L 260 480 L 280 480 L 300 480 L 300 460 L 280 460 L 280 440 L 260 440 z M 420 440 L 420 460 L 420 480 L 440 480 L 460 480 L 480 480 L 500 480 L 520 480 L 540 480 L 560 480 L 560 460 L 560 440 L 540 440 L 520 440 L 500 440 L 480 440 L 460 440 L 440 440 L 420 440 z M 420 560 L 420 580 L 440 580 L 440 600 L 460 600 L 480 600 L 480 620 L 500 620 L 520 620 L 520 640 L 540 640 L 560 640 L 560 660 L 580 660 L 580 680 L 600 680 L 600 660 L 600 640 L 580 640 L 580 620 L 560 620 L 540 620 L 540 600 L 520 600 L 500 600 L 500 580 L 480 580 L 460 580 L 460 560 L 440 560 L 420 560 z "
     id="rect3430" />
  <path
     style="fill:#c0c0c0"
     d="M 740 80 L 740 100 L 740 120 L 760 120 L 760 140 L 780 140 L 780 160 L 800 160 L 800 180 L 820 180 L 840 180 L 840 160 L 820 160 L 820 140 L 800 140 L 800 120 L 780 120 L 780 100 L 760 100 L 760 80 L 740 80 z M 880 200 L 880 220 L 880 240 L 880 260 L 880 280 L 880 300 L 880 320 L 880 340 L 880 360 L 880 380 L 880 400 L 880 420 L 880 440 L 880 460 L 880 480 L 880 500 L 880 520 L 880 540 L 880 560 L 880 580 L 880 600 L 880 620 L 880 640 L 880 660 L 880 680 L 880 700 L 880 720 L 880 740 L 880 760 L 880 780 L 880 800 L 880 820 L 880 840 L 880 860 L 880 880 L 880 900 L 880 920 L 860 920 L 840 920 L 820 920 L 800 920 L 780 920 L 760 920 L 740 920 L 720 920 L 700 920 L 680 920 L 660 920 L 640 920 L 620 920 L 600 920 L 580 920 L 560 920 L 540 920 L 520 920 L 500 920 L 480 920 L 460 920 L 440 920 L 420 920 L 400 920 L 380 920 L 360 920 L 340 920 L 320 920 L 300 920 L 280 920 L 260 920 L 240 920 L 220 920 L 200 920 L 200 940 L 220 940 L 240 940 L 260 940 L 280 940 L 300 940 L 320 940 L 340 940 L 360 940 L 380 940 L 400 940 L 420 940 L 440 940 L 460 940 L 480 940 L 500 940 L 520 940 L 540 940 L 560 940 L 580 940 L 600 940 L 620 940 L 640 940 L 660 940 L 680 940 L 700 940 L 720 940 L 740 940 L 760 940 L 780 940 L 800 940 L 820 940 L 840 940 L 860 940 L 880 940 L 900 940 L 900 920 L 900 900 L 900 880 L 900 860 L 900 840 L 900 820 L 900 800 L 900 780 L 900 760 L 900 740 L 900 720 L 900 700 L 900 680 L 900 660 L 900 640 L 900 620 L 900 600 L 900 580 L 900 560 L 900 540 L 900 520 L 900 500 L 900 480 L 900 460 L 900 440 L 900 420 L 900 400 L 900 380 L 900 360 L 900 340 L 900 320 L 900 300 L 900 280 L 900 260 L 900 240 L 900 220 L 900 200 L 880 200 z M 320 220 L 320 240 L 340 240 L 340 220 L 320 220 z M 340 240 L 340 260 L 360 260 L 360 240 L 340 240 z M 300 280 L 300 300 L 300 320 L 320 320 L 320 300 L 340 300 L 340 320 L 360 320 L 360 300 L 360 280 L 340 280 L 320 280 L 300 280 z M 340 320 L 320 320 L 320 340 L 340 340 L 340 320 z M 340 340 L 340 360 L 360 360 L 360 340 L 340 340 z M 340 360 L 320 360 L 320 380 L 340 380 L 340 360 z M 340 380 L 340 400 L 360 400 L 360 380 L 340 380 z M 340 400 L 320 400 L 320 420 L 340 420 L 340 400 z M 340 420 L 340 440 L 360 440 L 360 420 L 340 420 z M 340 440 L 320 440 L 320 460 L 340 460 L 340 440 z M 320 400 L 320 380 L 300 380 L 300 400 L 320 400 z M 300 380 L 300 360 L 280 360 L 280 380 L 300 380 z M 280 360 L 280 340 L 260 340 L 260 360 L 280 360 z M 280 340 L 300 340 L 300 320 L 280 320 L 280 340 z M 300 340 L 300 360 L 320 360 L 320 340 L 300 340 z M 380 280 L 380 300 L 380 320 L 380 340 L 380 360 L 380 380 L 380 400 L 380 420 L 380 440 L 380 460 L 380 480 L 380 500 L 380 520 L 380 540 L 380 560 L 380 580 L 380 600 L 380 620 L 360 620 L 360 640 L 340 640 L 340 660 L 320 660 L 320 680 L 300 680 L 300 700 L 300 720 L 320 720 L 320 740 L 340 740 L 360 740 L 360 760 L 380 760 L 380 740 L 400 740 L 400 720 L 420 720 L 420 700 L 440 700 L 440 680 L 440 660 L 440 640 L 440 620 L 440 600 L 440 580 L 420 580 L 420 560 L 440 560 L 440 540 L 440 520 L 440 500 L 440 480 L 420 480 L 420 460 L 420 440 L 440 440 L 440 420 L 440 400 L 440 380 L 420 380 L 420 360 L 420 340 L 420 320 L 400 320 L 400 300 L 400 280 L 380 280 z M 340 640 L 340 620 L 320 620 L 300 620 L 300 640 L 320 640 L 340 640 z M 340 620 L 360 620 L 360 600 L 340 600 L 340 620 z M 120 380 L 120 400 L 120 420 L 140 420 L 140 400 L 140 380 L 120 380 z M 260 420 L 260 440 L 280 440 L 280 460 L 300 460 L 300 440 L 300 420 L 280 420 L 260 420 z M 140 480 L 140 500 L 160 500 L 160 480 L 140 480 z M 160 500 L 160 520 L 180 520 L 180 500 L 160 500 z M 180 500 L 200 500 L 200 480 L 180 480 L 180 500 z M 200 500 L 200 520 L 220 520 L 220 500 L 200 500 z M 220 500 L 240 500 L 240 480 L 220 480 L 220 500 z M 220 520 L 220 540 L 240 540 L 240 520 L 220 520 z M 220 540 L 200 540 L 200 560 L 220 560 L 220 540 z M 220 560 L 220 580 L 240 580 L 240 560 L 220 560 z M 200 540 L 200 520 L 180 520 L 180 540 L 200 540 z "
     id="rect3500" />
  <path
     style="fill:#000000"
     d="M 740 20 L 740 40 L 760 40 L 760 20 L 740 20 z M 760 40 L 760 60 L 780 60 L 780 40 L 760 40 z M 780 60 L 780 80 L 800 80 L 800 60 L 780 60 z M 800 80 L 800 100 L 820 100 L 820 80 L 800 80 z M 820 100 L 820 120 L 840 120 L 840 100 L 820 100 z M 840 120 L 840 140 L 860 140 L 860 120 L 840 120 z M 860 140 L 860 160 L 880 160 L 880 140 L 860 140 z M 880 160 L 880 180 L 860 180 L 840 180 L 820 180 L 800 180 L 780 180 L 760 180 L 740 180 L 740 200 L 760 200 L 780 200 L 800 200 L 820 200 L 840 200 L 860 200 L 880 200 L 900 200 L 900 220 L 900 240 L 900 260 L 900 280 L 900 300 L 900 320 L 900 340 L 900 360 L 900 380 L 900 400 L 900 420 L 900 440 L 900 460 L 900 480 L 900 500 L 900 520 L 900 540 L 900 560 L 900 580 L 900 600 L 900 620 L 900 640 L 900 660 L 900 680 L 900 700 L 900 720 L 900 740 L 900 760 L 900 780 L 900 800 L 900 820 L 900 840 L 900 860 L 900 880 L 900 900 L 900 920 L 900 940 L 880 940 L 860 940 L 840 940 L 820 940 L 800 940 L 780 940 L 760 940 L 740 940 L 720 940 L 700 940 L 680 940 L 660 940 L 640 940 L 620 940 L 600 940 L 580 940 L 560 940 L 540 940 L 520 940 L 500 940 L 480 940 L 460 940 L 440 940 L 420 940 L 400 940 L 380 940 L 360 940 L 340 940 L 320 940 L 300 940 L 280 940 L 260 940 L 240 940 L 220 940 L 200 940 L 180 940 L 180 960 L 200 960 L 220 960 L 240 960 L 260 960 L 280 960 L 300 960 L 320 960 L 340 960 L 360 960 L 380 960 L 400 960 L 420 960 L 440 960 L 460 960 L 480 960 L 500 960 L 520 960 L 540 960 L 560 960 L 580 960 L 600 960 L 620 960 L 640 960 L 660 960 L 680 960 L 700 960 L 720 960 L 740 960 L 760 960 L 780 960 L 800 960 L 820 960 L 840 960 L 860 960 L 880 960 L 900 960 L 920 960 L 920 940 L 920 920 L 920 900 L 920 880 L 920 860 L 920 840 L 920 820 L 920 800 L 920 780 L 920 760 L 920 740 L 920 720 L 920 700 L 920 680 L 920 660 L 920 640 L 920 620 L 920 600 L 920 580 L 920 560 L 920 540 L 920 520 L 920 500 L 920 480 L 920 460 L 920 440 L 920 420 L 920 400 L 920 380 L 920 360 L 920 340 L 920 320 L 920 300 L 920 280 L 920 260 L 920 240 L 920 220 L 920 200 L 920 180 L 900 180 L 900 160 L 880 160 z M 280 200 L 280 220 L 260 220 L 260 240 L 240 240 L 240 260 L 220 260 L 220 280 L 200 280 L 200 300 L 180 300 L 180 320 L 160 320 L 160 340 L 140 340 L 140 360 L 120 360 L 100 360 L 100 380 L 120 380 L 140 380 L 160 380 L 160 360 L 180 360 L 180 340 L 200 340 L 200 320 L 220 320 L 220 300 L 240 300 L 240 280 L 260 280 L 260 260 L 280 260 L 280 240 L 300 240 L 300 260 L 320 260 L 340 260 L 340 240 L 320 240 L 320 220 L 300 220 L 300 200 L 280 200 z M 300 260 L 280 260 L 280 280 L 300 280 L 300 260 z M 240 300 L 240 320 L 240 340 L 240 360 L 240 380 L 240 400 L 240 420 L 240 440 L 240 460 L 240 480 L 240 500 L 240 520 L 240 540 L 240 560 L 240 580 L 240 600 L 260 600 L 260 580 L 260 560 L 260 540 L 280 540 L 280 520 L 280 500 L 300 500 L 300 480 L 280 480 L 260 480 L 260 460 L 260 440 L 260 420 L 280 420 L 300 420 L 300 400 L 280 400 L 280 380 L 260 380 L 260 360 L 260 340 L 260 320 L 260 300 L 240 300 z M 300 420 L 300 440 L 300 460 L 300 480 L 320 480 L 320 460 L 320 440 L 320 420 L 300 420 z M 100 380 L 80 380 L 60 380 L 60 400 L 60 420 L 60 440 L 60 460 L 60 480 L 60 500 L 60 520 L 80 520 L 100 520 L 100 500 L 80 500 L 80 480 L 80 460 L 80 440 L 80 420 L 80 400 L 100 400 L 100 380 z M 100 520 L 100 540 L 120 540 L 140 540 L 140 520 L 120 520 L 100 520 z M 140 540 L 140 560 L 160 560 L 160 540 L 140 540 z M 160 560 L 160 580 L 180 580 L 180 560 L 160 560 z M 180 580 L 180 600 L 200 600 L 200 580 L 180 580 z M 200 600 L 200 620 L 220 620 L 220 600 L 200 600 z M 220 620 L 220 640 L 240 640 L 240 620 L 220 620 z M 240 640 L 240 660 L 260 660 L 260 640 L 240 640 z M 260 660 L 260 680 L 280 680 L 280 700 L 300 700 L 300 680 L 320 680 L 320 660 L 340 660 L 340 640 L 320 640 L 300 640 L 300 660 L 280 660 L 260 660 z M 300 640 L 300 620 L 280 620 L 280 640 L 300 640 z "
     id="rect3576" />
</svg>
