<?xml version="1.0" encoding="UTF-8" standalone="no"?>
<svg
   xmlns:dc="http://purl.org/dc/elements/1.1/"
   xmlns:cc="http://creativecommons.org/ns#"
   xmlns:rdf="http://www.w3.org/1999/02/22-rdf-syntax-ns#"
   xmlns:svg="http://www.w3.org/2000/svg"
   xmlns="http://www.w3.org/2000/svg"
   height="960px"
   version="1.1"
   width="960px"
   id="svg3406">
  <metadata
     id="metadata3410">
    <rdf:RDF>
      <cc:Work
         rdf:about="">
        <dc:format>image/svg+xml</dc:format>
        <dc:type
           rdf:resource="http://purl.org/dc/dcmitype/StillImage" />
      </cc:Work>
    </rdf:RDF>
  </metadata>
  <defs
     id="defs2" />
  <path
     id="rect1632"
     d="M 680 440 L 680 460 L 700 460 L 700 440 L 680 440 z M 680 460 L 660 460 L 660 480 L 680 480 L 680 460 z "
     style="fill:#000080" />
  <path
     id="rect2386"
     d="M 580 340 L 580 360 L 580 380 L 580 400 L 580 420 L 600 420 L 620 420 L 620 400 L 620 380 L 600 380 L 600 360 L 600 340 L 580 340 z M 480 360 L 480 380 L 500 380 L 500 360 L 480 360 z M 640 380 L 640 400 L 660 400 L 660 380 L 640 380 z M 680 380 L 680 400 L 700 400 L 720 400 L 720 380 L 700 380 L 680 380 z M 580 560 L 580 580 L 580 600 L 600 600 L 600 580 L 600 560 L 580 560 z M 600 600 L 600 620 L 620 620 L 620 600 L 600 600 z M 620 620 L 620 640 L 620 660 L 640 660 L 660 660 L 660 640 L 640 640 L 640 620 L 620 620 z M 620 660 L 600 660 L 600 680 L 620 680 L 620 660 z M 560 620 L 560 640 L 580 640 L 580 620 L 560 620 z "
     style="fill:#808000" />
  <path
     id="rect2444"
     d="M 400 600 L 400 620 L 400 640 L 420 640 L 420 620 L 420 600 L 400 600 z M 360 640 L 360 660 L 380 660 L 380 640 L 360 640 z M 400 660 L 400 680 L 420 680 L 420 660 L 400 660 z M 420 680 L 420 700 L 440 700 L 440 680 L 420 680 z "
     style="fill:#008080" />
  <path
     id="rect2454"
     d="M 420 600 L 420 620 L 420 640 L 420 660 L 440 660 L 440 680 L 460 680 L 480 680 L 480 660 L 480 640 L 460 640 L 460 620 L 440 620 L 440 600 L 420 600 z M 380 640 L 380 660 L 380 680 L 400 680 L 400 660 L 400 640 L 380 640 z M 400 680 L 400 700 L 420 700 L 420 680 L 400 680 z M 540 640 L 540 660 L 540 680 L 560 680 L 560 660 L 560 640 L 540 640 z M 540 680 L 520 680 L 520 660 L 500 660 L 500 680 L 500 700 L 520 700 L 540 700 L 540 680 z "
     style="fill:#00ffff" />
  <path
     id="rect2460"
     d="M 600 320 L 600 340 L 600 360 L 600 380 L 620 380 L 620 400 L 640 400 L 640 380 L 660 380 L 660 400 L 680 400 L 680 380 L 700 380 L 720 380 L 720 400 L 740 400 L 740 380 L 740 360 L 720 360 L 720 340 L 700 340 L 700 320 L 680 320 L 660 320 L 640 320 L 620 320 L 600 320 z M 560 580 L 560 600 L 560 620 L 580 620 L 580 640 L 600 640 L 600 660 L 620 660 L 620 640 L 620 620 L 600 620 L 600 600 L 580 600 L 580 580 L 560 580 z M 620 660 L 620 680 L 640 680 L 640 660 L 620 660 z M 580 680 L 580 700 L 600 700 L 600 680 L 580 680 z "
     style="fill:#ffff00" />
  <path
     id="rect2464"
     d="M 620 680 L 620 700 L 640 700 L 640 680 L 620 680 z "
     style="fill:#800000" />
  <path
     id="rect2470"
     d="M 660 680 L 660 700 L 680 700 L 700 700 L 700 680 L 680 680 L 660 680 z "
     style="fill:#ff00ff" />
  <path
     id="rect2476"
     d="M 700 640 L 700 660 L 680 660 L 680 680 L 700 680 L 720 680 L 720 660 L 720 640 L 700 640 z M 720 680 L 720 700 L 740 700 L 760 700 L 760 680 L 740 680 L 720 680 z M 600 680 L 600 700 L 620 700 L 620 680 L 600 680 z "
     style="fill:#800080" />
  <path
     id="rect3172"
     d="M 200 40 L 200 60 L 200 80 L 200 100 L 200 120 L 200 140 L 200 160 L 200 180 L 200 200 L 200 220 L 200 240 L 200 260 L 200 280 L 200 300 L 200 320 L 200 340 L 200 360 L 200 380 L 200 400 L 200 420 L 200 440 L 200 460 L 200 480 L 200 500 L 200 520 L 200 540 L 200 560 L 200 580 L 200 600 L 200 620 L 200 640 L 200 660 L 200 680 L 200 700 L 200 720 L 200 740 L 200 760 L 200 780 L 200 800 L 200 820 L 200 840 L 200 860 L 200 880 L 220 880 L 240 880 L 260 880 L 280 880 L 300 880 L 320 880 L 340 880 L 360 880 L 380 880 L 400 880 L 420 880 L 440 880 L 460 880 L 480 880 L 500 880 L 520 880 L 540 880 L 560 880 L 580 880 L 600 880 L 620 880 L 640 880 L 660 880 L 680 880 L 700 880 L 720 880 L 740 880 L 760 880 L 780 880 L 800 880 L 820 880 L 840 880 L 860 880 L 880 880 L 880 860 L 880 840 L 880 820 L 880 800 L 880 780 L 880 760 L 880 740 L 880 720 L 880 700 L 880 680 L 880 660 L 880 640 L 880 620 L 880 600 L 880 580 L 880 560 L 880 540 L 880 520 L 880 500 L 880 480 L 880 460 L 880 440 L 880 420 L 880 400 L 880 380 L 880 360 L 880 340 L 880 320 L 880 300 L 880 280 L 880 260 L 880 240 L 880 220 L 860 220 L 840 220 L 820 220 L 800 220 L 780 220 L 760 220 L 740 220 L 740 200 L 720 200 L 720 180 L 720 160 L 720 140 L 720 120 L 720 100 L 720 80 L 720 60 L 720 40 L 700 40 L 680 40 L 660 40 L 640 40 L 620 40 L 600 40 L 580 40 L 560 40 L 540 40 L 520 40 L 500 40 L 480 40 L 460 40 L 440 40 L 420 40 L 400 40 L 380 40 L 360 40 L 340 40 L 320 40 L 300 40 L 280 40 L 260 40 L 240 40 L 220 40 L 200 40 z M 740 100 L 740 120 L 740 140 L 740 160 L 740 180 L 760 180 L 780 180 L 800 180 L 820 180 L 820 160 L 800 160 L 800 140 L 780 140 L 780 120 L 760 120 L 760 100 L 740 100 z M 420 280 L 440 280 L 460 280 L 480 280 L 500 280 L 520 280 L 540 280 L 540 300 L 560 300 L 580 300 L 600 300 L 620 300 L 640 300 L 660 300 L 680 300 L 700 300 L 700 320 L 720 320 L 720 340 L 740 340 L 740 360 L 760 360 L 760 380 L 760 400 L 760 420 L 740 420 L 740 440 L 740 460 L 740 480 L 760 480 L 760 500 L 740 500 L 740 520 L 740 540 L 740 560 L 740 580 L 720 580 L 720 600 L 700 600 L 700 620 L 720 620 L 720 640 L 740 640 L 740 660 L 760 660 L 760 680 L 760 700 L 740 700 L 720 700 L 700 700 L 680 700 L 660 700 L 640 700 L 620 700 L 600 700 L 580 700 L 560 700 L 540 700 L 520 700 L 500 700 L 480 700 L 460 700 L 440 700 L 420 700 L 400 700 L 380 700 L 380 680 L 360 680 L 360 660 L 360 640 L 360 620 L 360 600 L 380 600 L 380 580 L 400 580 L 400 560 L 380 560 L 360 560 L 360 540 L 360 520 L 340 520 L 340 500 L 340 480 L 340 460 L 320 460 L 320 440 L 320 420 L 320 400 L 320 380 L 340 380 L 340 360 L 360 360 L 360 340 L 360 320 L 380 320 L 380 300 L 400 300 L 420 300 L 420 280 z M 720 580 L 720 560 L 700 560 L 700 540 L 680 540 L 680 520 L 700 520 L 720 520 L 720 500 L 740 500 L 740 480 L 720 480 L 720 460 L 700 460 L 680 460 L 680 480 L 660 480 L 660 460 L 660 440 L 680 440 L 700 440 L 720 440 L 720 420 L 720 400 L 700 400 L 680 400 L 680 420 L 660 420 L 660 400 L 640 400 L 640 420 L 620 420 L 600 420 L 600 440 L 620 440 L 620 460 L 620 480 L 620 500 L 620 520 L 620 540 L 620 560 L 620 580 L 640 580 L 660 580 L 680 580 L 700 580 L 720 580 z M 620 580 L 600 580 L 600 600 L 620 600 L 620 580 z M 620 600 L 620 620 L 640 620 L 640 600 L 620 600 z M 640 620 L 640 640 L 660 640 L 660 620 L 640 620 z "
     style="fill:#ffffff" />
  <path
     id="rect3180"
     d="M 180 20 L 180 40 L 180 60 L 180 80 L 180 100 L 180 120 L 180 140 L 180 160 L 180 180 L 180 200 L 180 220 L 180 240 L 180 260 L 180 280 L 180 300 L 180 320 L 180 340 L 180 360 L 180 380 L 180 400 L 180 420 L 180 440 L 180 460 L 180 480 L 180 500 L 180 520 L 180 540 L 180 560 L 180 580 L 180 600 L 180 620 L 180 640 L 180 660 L 180 680 L 180 700 L 180 720 L 180 740 L 180 760 L 180 780 L 180 800 L 180 820 L 180 840 L 180 860 L 180 880 L 180 900 L 200 900 L 200 880 L 200 860 L 200 840 L 200 820 L 200 800 L 200 780 L 200 760 L 200 740 L 200 720 L 200 700 L 200 680 L 200 660 L 200 640 L 200 620 L 200 600 L 200 580 L 200 560 L 200 540 L 200 520 L 200 500 L 200 480 L 200 460 L 200 440 L 200 420 L 200 400 L 200 380 L 200 360 L 200 340 L 200 320 L 200 300 L 200 280 L 200 260 L 200 240 L 200 220 L 200 200 L 200 180 L 200 160 L 200 140 L 200 120 L 200 100 L 200 80 L 200 60 L 200 40 L 220 40 L 240 40 L 260 40 L 280 40 L 300 40 L 320 40 L 340 40 L 360 40 L 380 40 L 400 40 L 420 40 L 440 40 L 460 40 L 480 40 L 500 40 L 520 40 L 540 40 L 560 40 L 580 40 L 600 40 L 620 40 L 640 40 L 660 40 L 680 40 L 700 40 L 720 40 L 720 60 L 720 80 L 720 100 L 720 120 L 720 140 L 720 160 L 720 180 L 720 200 L 740 200 L 760 200 L 780 200 L 800 200 L 820 200 L 840 200 L 860 200 L 880 200 L 900 200 L 900 180 L 880 180 L 860 180 L 840 180 L 820 180 L 800 180 L 780 180 L 760 180 L 740 180 L 740 160 L 740 140 L 740 120 L 740 100 L 740 80 L 740 60 L 740 40 L 740 20 L 720 20 L 700 20 L 680 20 L 660 20 L 640 20 L 620 20 L 600 20 L 580 20 L 560 20 L 540 20 L 520 20 L 500 20 L 480 20 L 460 20 L 440 20 L 420 20 L 400 20 L 380 20 L 360 20 L 340 20 L 320 20 L 300 20 L 280 20 L 260 20 L 240 20 L 220 20 L 200 20 L 180 20 z M 500 360 L 500 380 L 520 380 L 520 360 L 500 360 z M 520 380 L 520 400 L 540 400 L 540 380 L 520 380 z M 540 380 L 560 380 L 560 360 L 540 360 L 540 380 z M 540 400 L 540 420 L 560 420 L 560 400 L 540 400 z M 520 400 L 500 400 L 500 420 L 520 420 L 520 400 z M 500 420 L 480 420 L 480 440 L 500 440 L 500 420 z M 500 440 L 500 460 L 520 460 L 520 440 L 500 440 z M 520 460 L 520 480 L 540 480 L 540 460 L 520 460 z M 540 480 L 540 500 L 560 500 L 560 480 L 540 480 z M 560 480 L 580 480 L 580 460 L 560 460 L 560 480 z M 560 500 L 560 520 L 580 520 L 580 500 L 560 500 z M 560 520 L 540 520 L 540 540 L 560 540 L 560 520 z M 560 540 L 560 560 L 580 560 L 580 540 L 560 540 z M 540 540 L 520 540 L 520 560 L 540 560 L 540 540 z M 520 540 L 520 520 L 500 520 L 500 540 L 520 540 z M 500 540 L 480 540 L 480 560 L 500 560 L 500 540 z M 480 560 L 460 560 L 460 580 L 480 580 L 480 560 z M 480 580 L 480 600 L 500 600 L 500 580 L 480 580 z M 500 600 L 500 620 L 520 620 L 520 600 L 500 600 z M 520 620 L 520 640 L 540 640 L 540 620 L 520 620 z M 500 620 L 480 620 L 480 640 L 500 640 L 500 620 z M 480 620 L 480 600 L 460 600 L 460 620 L 480 620 z M 460 600 L 460 580 L 440 580 L 440 600 L 460 600 z M 440 580 L 440 560 L 420 560 L 420 580 L 440 580 z M 440 560 L 460 560 L 460 540 L 440 540 L 440 560 z M 460 540 L 480 540 L 480 520 L 460 520 L 460 540 z M 460 520 L 460 500 L 440 500 L 440 520 L 460 520 z M 460 500 L 480 500 L 480 480 L 460 480 L 460 500 z M 460 480 L 460 460 L 440 460 L 440 480 L 460 480 z M 460 460 L 480 460 L 480 440 L 460 440 L 460 460 z M 480 460 L 480 480 L 500 480 L 500 460 L 480 460 z M 500 480 L 500 500 L 520 500 L 520 480 L 500 480 z M 520 500 L 520 520 L 540 520 L 540 500 L 520 500 z M 500 500 L 480 500 L 480 520 L 500 520 L 500 500 z M 500 400 L 500 380 L 480 380 L 480 400 L 500 400 z M 660 440 L 660 460 L 680 460 L 680 440 L 660 440 z M 700 440 L 700 460 L 720 460 L 720 440 L 700 440 z M 680 520 L 680 540 L 700 540 L 700 520 L 680 520 z M 620 580 L 620 600 L 640 600 L 660 600 L 660 580 L 640 580 L 620 580 z "
     style="fill:#808080" />
  <path
     id="rect3328"
     d="M 740 20 L 740 40 L 760 40 L 760 20 L 740 20 z M 760 40 L 760 60 L 780 60 L 780 40 L 760 40 z M 780 60 L 780 80 L 800 80 L 800 60 L 780 60 z M 800 80 L 800 100 L 820 100 L 820 80 L 800 80 z M 820 100 L 820 120 L 840 120 L 840 100 L 820 100 z M 840 120 L 840 140 L 860 140 L 860 120 L 840 120 z M 860 140 L 860 160 L 880 160 L 880 140 L 860 140 z M 880 160 L 880 180 L 900 180 L 900 160 L 880 160 z M 900 180 L 900 200 L 900 220 L 900 240 L 900 260 L 900 280 L 900 300 L 900 320 L 900 340 L 900 360 L 900 380 L 900 400 L 900 420 L 900 440 L 900 460 L 900 480 L 900 500 L 900 520 L 900 540 L 900 560 L 900 580 L 900 600 L 900 620 L 900 640 L 900 660 L 900 680 L 900 700 L 900 720 L 900 740 L 900 760 L 900 780 L 900 800 L 900 820 L 900 840 L 900 860 L 900 880 L 900 900 L 880 900 L 860 900 L 840 900 L 820 900 L 800 900 L 780 900 L 760 900 L 740 900 L 720 900 L 700 900 L 680 900 L 660 900 L 640 900 L 620 900 L 600 900 L 580 900 L 560 900 L 540 900 L 520 900 L 500 900 L 480 900 L 460 900 L 440 900 L 420 900 L 400 900 L 380 900 L 360 900 L 340 900 L 320 900 L 300 900 L 280 900 L 260 900 L 240 900 L 220 900 L 200 900 L 180 900 L 180 920 L 200 920 L 220 920 L 240 920 L 260 920 L 280 920 L 300 920 L 320 920 L 340 920 L 360 920 L 380 920 L 400 920 L 420 920 L 440 920 L 460 920 L 480 920 L 500 920 L 520 920 L 540 920 L 560 920 L 580 920 L 600 920 L 620 920 L 640 920 L 660 920 L 680 920 L 700 920 L 720 920 L 740 920 L 760 920 L 780 920 L 800 920 L 820 920 L 840 920 L 860 920 L 880 920 L 900 920 L 920 920 L 920 900 L 920 880 L 920 860 L 920 840 L 920 820 L 920 800 L 920 780 L 920 760 L 920 740 L 920 720 L 920 700 L 920 680 L 920 660 L 920 640 L 920 620 L 920 600 L 920 580 L 920 560 L 920 540 L 920 520 L 920 500 L 920 480 L 920 460 L 920 440 L 920 420 L 920 400 L 920 380 L 920 360 L 920 340 L 920 320 L 920 300 L 920 280 L 920 260 L 920 240 L 920 220 L 920 200 L 920 180 L 900 180 z M 420 280 L 420 300 L 400 300 L 380 300 L 380 320 L 360 320 L 360 340 L 360 360 L 340 360 L 340 380 L 320 380 L 320 400 L 320 420 L 320 440 L 320 460 L 340 460 L 340 480 L 340 500 L 340 520 L 360 520 L 360 540 L 360 560 L 380 560 L 400 560 L 400 580 L 380 580 L 380 600 L 360 600 L 360 620 L 360 640 L 380 640 L 400 640 L 400 620 L 400 600 L 420 600 L 440 600 L 440 580 L 420 580 L 420 560 L 440 560 L 440 540 L 440 520 L 440 500 L 440 480 L 420 480 L 420 460 L 440 460 L 440 440 L 460 440 L 460 420 L 480 420 L 480 400 L 480 380 L 480 360 L 500 360 L 520 360 L 540 360 L 560 360 L 560 380 L 560 400 L 560 420 L 540 420 L 520 420 L 520 440 L 520 460 L 540 460 L 540 440 L 560 440 L 580 440 L 580 420 L 580 400 L 580 380 L 580 360 L 580 340 L 600 340 L 600 320 L 620 320 L 640 320 L 660 320 L 680 320 L 700 320 L 700 300 L 680 300 L 660 300 L 640 300 L 620 300 L 600 300 L 580 300 L 560 300 L 540 300 L 540 280 L 520 280 L 500 280 L 480 280 L 460 280 L 440 280 L 420 280 z M 700 320 L 700 340 L 720 340 L 720 320 L 700 320 z M 720 340 L 720 360 L 740 360 L 740 340 L 720 340 z M 740 360 L 740 380 L 740 400 L 720 400 L 720 420 L 720 440 L 720 460 L 720 480 L 740 480 L 740 460 L 740 440 L 740 420 L 760 420 L 760 400 L 760 380 L 760 360 L 740 360 z M 740 480 L 740 500 L 760 500 L 760 480 L 740 480 z M 740 500 L 720 500 L 720 520 L 700 520 L 700 540 L 720 540 L 720 560 L 720 580 L 740 580 L 740 560 L 740 540 L 740 520 L 740 500 z M 720 580 L 700 580 L 680 580 L 660 580 L 660 600 L 680 600 L 680 620 L 680 640 L 680 660 L 700 660 L 700 640 L 720 640 L 720 620 L 700 620 L 700 600 L 720 600 L 720 580 z M 720 640 L 720 660 L 720 680 L 740 680 L 760 680 L 760 660 L 740 660 L 740 640 L 720 640 z M 720 680 L 700 680 L 700 700 L 720 700 L 720 680 z M 680 660 L 660 660 L 640 660 L 640 680 L 640 700 L 660 700 L 660 680 L 680 680 L 680 660 z M 580 440 L 580 460 L 600 460 L 600 440 L 580 440 z M 600 460 L 600 480 L 580 480 L 580 500 L 580 520 L 560 520 L 560 540 L 580 540 L 580 560 L 600 560 L 600 540 L 600 520 L 600 500 L 620 500 L 620 480 L 620 460 L 600 460 z M 580 560 L 560 560 L 540 560 L 520 560 L 500 560 L 480 560 L 480 580 L 500 580 L 520 580 L 520 600 L 540 600 L 540 620 L 540 640 L 560 640 L 560 620 L 560 600 L 560 580 L 580 580 L 580 560 z M 560 640 L 560 660 L 560 680 L 540 680 L 540 700 L 560 700 L 580 700 L 580 680 L 600 680 L 600 660 L 600 640 L 580 640 L 560 640 z M 540 680 L 540 660 L 540 640 L 520 640 L 500 640 L 480 640 L 480 660 L 480 680 L 460 680 L 440 680 L 440 700 L 460 700 L 480 700 L 500 700 L 500 680 L 500 660 L 520 660 L 520 680 L 540 680 z M 440 680 L 440 660 L 420 660 L 420 680 L 440 680 z M 420 660 L 420 640 L 400 640 L 400 660 L 420 660 z M 480 640 L 480 620 L 460 620 L 460 640 L 480 640 z M 460 620 L 460 600 L 440 600 L 440 620 L 460 620 z M 620 400 L 620 420 L 640 420 L 640 400 L 620 400 z M 660 400 L 660 420 L 680 420 L 680 400 L 660 400 z M 360 660 L 360 680 L 380 680 L 380 660 L 360 660 z M 380 680 L 380 700 L 400 700 L 400 680 L 380 680 z "
     style="fill:#000000" />
  <path
     id="rect3404"
     d="M 740 40 L 740 60 L 740 80 L 740 100 L 760 100 L 760 120 L 780 120 L 780 140 L 800 140 L 800 160 L 820 160 L 820 180 L 840 180 L 860 180 L 880 180 L 880 160 L 860 160 L 860 140 L 840 140 L 840 120 L 820 120 L 820 100 L 800 100 L 800 80 L 780 80 L 780 60 L 760 60 L 760 40 L 740 40 z M 740 200 L 740 220 L 760 220 L 780 220 L 800 220 L 820 220 L 840 220 L 860 220 L 880 220 L 880 240 L 880 260 L 880 280 L 880 300 L 880 320 L 880 340 L 880 360 L 880 380 L 880 400 L 880 420 L 880 440 L 880 460 L 880 480 L 880 500 L 880 520 L 880 540 L 880 560 L 880 580 L 880 600 L 880 620 L 880 640 L 880 660 L 880 680 L 880 700 L 880 720 L 880 740 L 880 760 L 880 780 L 880 800 L 880 820 L 880 840 L 880 860 L 880 880 L 860 880 L 840 880 L 820 880 L 800 880 L 780 880 L 760 880 L 740 880 L 720 880 L 700 880 L 680 880 L 660 880 L 640 880 L 620 880 L 600 880 L 580 880 L 560 880 L 540 880 L 520 880 L 500 880 L 480 880 L 460 880 L 440 880 L 420 880 L 400 880 L 380 880 L 360 880 L 340 880 L 320 880 L 300 880 L 280 880 L 260 880 L 240 880 L 220 880 L 200 880 L 200 900 L 220 900 L 240 900 L 260 900 L 280 900 L 300 900 L 320 900 L 340 900 L 360 900 L 380 900 L 400 900 L 420 900 L 440 900 L 460 900 L 480 900 L 500 900 L 520 900 L 540 900 L 560 900 L 580 900 L 600 900 L 620 900 L 640 900 L 660 900 L 680 900 L 700 900 L 720 900 L 740 900 L 760 900 L 780 900 L 800 900 L 820 900 L 840 900 L 860 900 L 880 900 L 900 900 L 900 880 L 900 860 L 900 840 L 900 820 L 900 800 L 900 780 L 900 760 L 900 740 L 900 720 L 900 700 L 900 680 L 900 660 L 900 640 L 900 620 L 900 600 L 900 580 L 900 560 L 900 540 L 900 520 L 900 500 L 900 480 L 900 460 L 900 440 L 900 420 L 900 400 L 900 380 L 900 360 L 900 340 L 900 320 L 900 300 L 900 280 L 900 260 L 900 240 L 900 220 L 900 200 L 880 200 L 860 200 L 840 200 L 820 200 L 800 200 L 780 200 L 760 200 L 740 200 z M 920 220 L 920 240 L 920 260 L 920 280 L 920 300 L 920 320 L 920 340 L 920 360 L 920 380 L 920 400 L 920 420 L 920 440 L 920 460 L 920 480 L 920 500 L 920 520 L 920 540 L 920 560 L 920 580 L 920 600 L 920 620 L 920 640 L 920 660 L 920 680 L 920 700 L 920 720 L 920 740 L 920 760 L 920 780 L 920 800 L 920 820 L 920 840 L 920 860 L 920 880 L 920 900 L 920 920 L 900 920 L 880 920 L 860 920 L 840 920 L 820 920 L 800 920 L 780 920 L 760 920 L 740 920 L 720 920 L 700 920 L 680 920 L 660 920 L 640 920 L 620 920 L 600 920 L 580 920 L 560 920 L 540 920 L 520 920 L 500 920 L 480 920 L 460 920 L 440 920 L 420 920 L 400 920 L 380 920 L 360 920 L 340 920 L 320 920 L 300 920 L 280 920 L 260 920 L 240 920 L 220 920 L 200 920 L 200 940 L 220 940 L 240 940 L 260 940 L 280 940 L 300 940 L 320 940 L 340 940 L 360 940 L 380 940 L 400 940 L 420 940 L 440 940 L 460 940 L 480 940 L 500 940 L 520 940 L 540 940 L 560 940 L 580 940 L 600 940 L 620 940 L 640 940 L 660 940 L 680 940 L 700 940 L 720 940 L 740 940 L 760 940 L 780 940 L 800 940 L 820 940 L 840 940 L 860 940 L 880 940 L 900 940 L 920 940 L 940 940 L 940 920 L 940 900 L 940 880 L 940 860 L 940 840 L 940 820 L 940 800 L 940 780 L 940 760 L 940 740 L 940 720 L 940 700 L 940 680 L 940 660 L 940 640 L 940 620 L 940 600 L 940 580 L 940 560 L 940 540 L 940 520 L 940 500 L 940 480 L 940 460 L 940 440 L 940 420 L 940 400 L 940 380 L 940 360 L 940 340 L 940 320 L 940 300 L 940 280 L 940 260 L 940 240 L 940 220 L 920 220 z M 520 360 L 520 380 L 540 380 L 540 360 L 520 360 z M 540 380 L 540 400 L 560 400 L 560 380 L 540 380 z M 540 400 L 520 400 L 520 420 L 540 420 L 540 400 z M 520 420 L 500 420 L 500 440 L 520 440 L 520 420 z M 500 440 L 480 440 L 480 460 L 500 460 L 500 440 z M 500 460 L 500 480 L 520 480 L 520 460 L 500 460 z M 520 480 L 520 500 L 540 500 L 540 480 L 520 480 z M 540 480 L 560 480 L 560 460 L 580 460 L 580 440 L 560 440 L 540 440 L 540 460 L 540 480 z M 580 440 L 600 440 L 600 420 L 580 420 L 580 440 z M 600 440 L 600 460 L 620 460 L 620 440 L 600 440 z M 600 460 L 580 460 L 580 480 L 600 480 L 600 460 z M 580 480 L 560 480 L 560 500 L 580 500 L 580 480 z M 560 500 L 540 500 L 540 520 L 560 520 L 560 500 z M 540 520 L 520 520 L 520 540 L 540 540 L 540 520 z M 540 540 L 540 560 L 560 560 L 560 540 L 540 540 z M 520 540 L 500 540 L 500 560 L 520 560 L 520 540 z M 500 540 L 500 520 L 480 520 L 480 540 L 500 540 z M 480 540 L 460 540 L 460 560 L 480 560 L 480 540 z M 460 560 L 440 560 L 440 580 L 460 580 L 460 560 z M 460 580 L 460 600 L 480 600 L 480 580 L 460 580 z M 480 600 L 480 620 L 500 620 L 500 600 L 480 600 z M 500 600 L 520 600 L 520 580 L 500 580 L 500 600 z M 520 600 L 520 620 L 540 620 L 540 600 L 520 600 z M 520 620 L 500 620 L 500 640 L 520 640 L 520 620 z M 460 540 L 460 520 L 440 520 L 440 540 L 460 540 z M 460 520 L 480 520 L 480 500 L 460 500 L 460 520 z M 460 500 L 460 480 L 440 480 L 440 500 L 460 500 z M 440 480 L 440 460 L 420 460 L 420 480 L 440 480 z M 440 460 L 460 460 L 460 440 L 440 440 L 440 460 z M 460 440 L 480 440 L 480 420 L 460 420 L 460 440 z M 480 420 L 500 420 L 500 400 L 480 400 L 480 420 z M 500 400 L 520 400 L 520 380 L 500 380 L 500 400 z M 460 460 L 460 480 L 480 480 L 480 460 L 460 460 z M 480 480 L 480 500 L 500 500 L 500 480 L 480 480 z M 500 500 L 500 520 L 520 520 L 520 500 L 500 500 z M 600 500 L 600 520 L 600 540 L 600 560 L 600 580 L 620 580 L 620 560 L 620 540 L 620 520 L 620 500 L 600 500 z M 700 540 L 700 560 L 720 560 L 720 540 L 700 540 z M 640 600 L 640 620 L 660 620 L 660 640 L 660 660 L 680 660 L 680 640 L 680 620 L 680 600 L 660 600 L 640 600 z "
     style="fill:#c0c0c0" />
</svg>
