<?xml version="1.0" encoding="UTF-8" standalone="no"?>
<svg
   xmlns:dc="http://purl.org/dc/elements/1.1/"
   xmlns:cc="http://creativecommons.org/ns#"
   xmlns:rdf="http://www.w3.org/1999/02/22-rdf-syntax-ns#"
   xmlns:svg="http://www.w3.org/2000/svg"
   xmlns="http://www.w3.org/2000/svg"
   xmlns:sodipodi="http://sodipodi.sourceforge.net/DTD/sodipodi-0.dtd"
   xmlns:inkscape="http://www.inkscape.org/namespaces/inkscape"
   id="svg3826"
   width="960px"
   version="1.1"
   height="960px"
   sodipodi:docname="chicago95_tmp_file.svg"
   inkscape:version="0.92.4 (5da689c313, 2019-01-14)">
  <sodipodi:namedview
     pagecolor="#ffffff"
     bordercolor="#666666"
     borderopacity="1"
     objecttolerance="10"
     gridtolerance="10"
     guidetolerance="10"
     inkscape:pageopacity="0"
     inkscape:pageshadow="2"
     inkscape:window-width="640"
     inkscape:window-height="480"
     id="namedview1916"
     showgrid="false"
     inkscape:zoom="0.24583333"
     inkscape:cx="479.99996"
     inkscape:cy="479.99996"
     inkscape:window-x="0"
     inkscape:window-y="0"
     inkscape:window-maximized="0"
     inkscape:current-layer="svg3826" />
  <metadata
     id="metadata3830">
    <rdf:RDF>
      <cc:Work
         rdf:about="">
        <dc:format>image/svg+xml</dc:format>
        <dc:type
           rdf:resource="http://purl.org/dc/dcmitype/StillImage" />
      </cc:Work>
    </rdf:RDF>
  </metadata>
  <defs
     id="defs2" />
  <path
     style="fill:#800000"
     d="M 780 20 L 780 40 L 780 60 L 780 80 L 780 100 L 780 120 L 800 120 L 820 120 L 840 120 L 860 120 L 880 120 L 880 100 L 860 100 L 860 80 L 840 80 L 840 60 L 820 60 L 820 40 L 800 40 L 800 20 L 780 20 z M 20 80 L 20 100 L 20 120 L 20 140 L 20 160 L 20 180 L 20 200 L 20 220 L 20 240 L 20 260 L 20 280 L 20 300 L 40 300 L 60 300 L 80 300 L 100 300 L 120 300 L 140 300 L 160 300 L 180 300 L 200 300 L 220 300 L 240 300 L 260 300 L 280 300 L 300 300 L 320 300 L 340 300 L 360 300 L 380 300 L 400 300 L 420 300 L 440 300 L 460 300 L 480 300 L 500 300 L 520 300 L 540 300 L 560 300 L 580 300 L 600 300 L 620 300 L 640 300 L 660 300 L 660 280 L 660 260 L 660 240 L 660 220 L 660 200 L 660 180 L 660 160 L 660 140 L 660 120 L 660 100 L 660 80 L 640 80 L 620 80 L 600 80 L 580 80 L 560 80 L 540 80 L 520 80 L 500 80 L 480 80 L 460 80 L 440 80 L 420 80 L 400 80 L 380 80 L 360 80 L 340 80 L 320 80 L 300 80 L 280 80 L 260 80 L 240 80 L 220 80 L 200 80 L 180 80 L 160 80 L 140 80 L 120 80 L 100 80 L 80 80 L 60 80 L 40 80 L 20 80 z M 160 120 L 180 120 L 200 120 L 200 140 L 220 140 L 220 160 L 220 180 L 200 180 L 200 200 L 220 200 L 220 220 L 220 240 L 200 240 L 200 260 L 180 260 L 160 260 L 160 240 L 160 220 L 160 200 L 160 180 L 160 160 L 160 140 L 160 120 z M 200 240 L 200 220 L 200 200 L 180 200 L 180 220 L 180 240 L 200 240 z M 200 180 L 200 160 L 200 140 L 180 140 L 180 160 L 180 180 L 200 180 z M 280 120 L 300 120 L 300 140 L 320 140 L 320 160 L 320 180 L 340 180 L 360 180 L 360 160 L 360 140 L 380 140 L 380 120 L 400 120 L 400 140 L 400 160 L 400 180 L 400 200 L 400 220 L 400 240 L 400 260 L 380 260 L 380 240 L 380 220 L 380 200 L 380 180 L 360 180 L 360 200 L 340 200 L 320 200 L 320 180 L 300 180 L 300 200 L 300 220 L 300 240 L 300 260 L 280 260 L 280 240 L 280 220 L 280 200 L 280 180 L 280 160 L 280 140 L 280 120 z M 460 120 L 480 120 L 500 120 L 500 140 L 520 140 L 520 160 L 520 180 L 500 180 L 500 200 L 480 200 L 480 220 L 480 240 L 480 260 L 460 260 L 460 240 L 460 220 L 460 200 L 460 180 L 460 160 L 460 140 L 460 120 z M 500 180 L 500 160 L 500 140 L 480 140 L 480 160 L 480 180 L 500 180 z "
     id="rect1278" />
  <path
     style="fill:#c0c0c0"
     d="M 240 20 L 240 40 L 240 60 L 260 60 L 280 60 L 300 60 L 320 60 L 340 60 L 360 60 L 380 60 L 400 60 L 420 60 L 440 60 L 460 60 L 480 60 L 500 60 L 520 60 L 540 60 L 560 60 L 580 60 L 600 60 L 620 60 L 640 60 L 660 60 L 680 60 L 680 80 L 700 80 L 720 80 L 720 100 L 720 120 L 720 140 L 720 160 L 720 180 L 720 200 L 720 220 L 720 240 L 720 260 L 720 280 L 720 300 L 720 320 L 740 320 L 740 340 L 740 360 L 760 360 L 780 360 L 800 360 L 800 380 L 820 380 L 840 380 L 860 380 L 860 400 L 860 420 L 880 420 L 900 420 L 900 400 L 900 380 L 900 360 L 900 340 L 900 320 L 900 300 L 900 280 L 900 260 L 900 240 L 900 220 L 900 200 L 900 180 L 880 180 L 860 180 L 840 180 L 820 180 L 800 180 L 780 180 L 780 160 L 780 140 L 760 140 L 740 140 L 740 120 L 740 100 L 740 80 L 740 60 L 740 40 L 740 20 L 720 20 L 700 20 L 680 20 L 660 20 L 640 20 L 620 20 L 600 20 L 580 20 L 560 20 L 540 20 L 520 20 L 500 20 L 480 20 L 460 20 L 440 20 L 420 20 L 400 20 L 380 20 L 360 20 L 340 20 L 320 20 L 300 20 L 280 20 L 260 20 L 240 20 z M 360 360 L 360 380 L 340 380 L 320 380 L 320 400 L 320 420 L 300 420 L 280 420 L 260 420 L 260 440 L 260 460 L 260 480 L 280 480 L 300 480 L 300 460 L 300 440 L 320 440 L 340 440 L 360 440 L 360 420 L 380 420 L 400 420 L 420 420 L 420 400 L 420 380 L 440 380 L 440 400 L 440 420 L 420 420 L 420 440 L 440 440 L 460 440 L 480 440 L 480 420 L 500 420 L 520 420 L 540 420 L 560 420 L 580 420 L 600 420 L 620 420 L 640 420 L 660 420 L 660 400 L 660 380 L 660 360 L 640 360 L 620 360 L 600 360 L 580 360 L 560 360 L 540 360 L 520 360 L 500 360 L 480 360 L 460 360 L 440 360 L 420 360 L 400 360 L 380 360 L 360 360 z M 420 440 L 400 440 L 380 440 L 360 440 L 360 460 L 360 480 L 380 480 L 400 480 L 420 480 L 420 460 L 420 440 z M 360 480 L 340 480 L 320 480 L 300 480 L 300 500 L 280 500 L 260 500 L 260 520 L 260 540 L 280 540 L 300 540 L 320 540 L 320 520 L 320 500 L 340 500 L 360 500 L 360 480 z M 360 500 L 360 520 L 360 540 L 380 540 L 400 540 L 420 540 L 420 560 L 420 580 L 420 600 L 440 600 L 440 580 L 440 560 L 440 540 L 460 540 L 480 540 L 480 560 L 500 560 L 520 560 L 540 560 L 540 540 L 520 540 L 500 540 L 500 520 L 500 500 L 520 500 L 540 500 L 540 520 L 540 540 L 560 540 L 560 520 L 560 500 L 560 480 L 540 480 L 520 480 L 500 480 L 480 480 L 480 500 L 460 500 L 440 500 L 420 500 L 400 500 L 380 500 L 360 500 z M 360 540 L 340 540 L 320 540 L 320 560 L 340 560 L 360 560 L 360 540 z M 320 560 L 300 560 L 280 560 L 260 560 L 260 540 L 240 540 L 240 560 L 240 580 L 240 600 L 260 600 L 280 600 L 300 600 L 300 620 L 300 640 L 300 660 L 320 660 L 320 680 L 320 700 L 320 720 L 340 720 L 360 720 L 360 700 L 360 680 L 380 680 L 380 660 L 360 660 L 360 640 L 360 620 L 340 620 L 320 620 L 320 600 L 320 580 L 320 560 z M 380 680 L 380 700 L 380 720 L 380 740 L 380 760 L 380 780 L 400 780 L 420 780 L 420 800 L 440 800 L 440 820 L 440 840 L 460 840 L 480 840 L 500 840 L 520 840 L 540 840 L 560 840 L 560 860 L 580 860 L 600 860 L 620 860 L 640 860 L 660 860 L 680 860 L 680 840 L 700 840 L 720 840 L 740 840 L 740 820 L 740 800 L 760 800 L 780 800 L 800 800 L 800 780 L 820 780 L 840 780 L 840 760 L 840 740 L 860 740 L 860 720 L 880 720 L 900 720 L 900 700 L 900 680 L 900 660 L 900 640 L 900 620 L 900 600 L 880 600 L 860 600 L 860 620 L 840 620 L 840 600 L 820 600 L 800 600 L 800 580 L 800 560 L 800 540 L 780 540 L 780 520 L 780 500 L 760 500 L 740 500 L 720 500 L 720 520 L 720 540 L 720 560 L 720 580 L 720 600 L 720 620 L 700 620 L 680 620 L 680 640 L 680 660 L 660 660 L 660 680 L 640 680 L 620 680 L 600 680 L 580 680 L 560 680 L 540 680 L 520 680 L 500 680 L 500 700 L 500 720 L 520 720 L 540 720 L 540 740 L 520 740 L 500 740 L 500 720 L 480 720 L 460 720 L 440 720 L 440 700 L 440 680 L 420 680 L 400 680 L 380 680 z M 500 680 L 500 660 L 480 660 L 480 680 L 500 680 z M 480 660 L 480 640 L 480 620 L 460 620 L 440 620 L 440 640 L 440 660 L 460 660 L 480 660 z M 260 500 L 260 480 L 240 480 L 240 500 L 260 500 z "
     id="rect3428" />
  <path
     style="fill:#ffffff"
     d="M 160 120 L 160 140 L 160 160 L 160 180 L 160 200 L 160 220 L 160 240 L 160 260 L 180 260 L 200 260 L 200 240 L 180 240 L 180 220 L 180 200 L 200 200 L 200 180 L 180 180 L 180 160 L 180 140 L 200 140 L 200 120 L 180 120 L 160 120 z M 200 140 L 200 160 L 200 180 L 220 180 L 220 160 L 220 140 L 200 140 z M 200 200 L 200 220 L 200 240 L 220 240 L 220 220 L 220 200 L 200 200 z M 280 120 L 280 140 L 280 160 L 280 180 L 280 200 L 280 220 L 280 240 L 280 260 L 300 260 L 300 240 L 300 220 L 300 200 L 300 180 L 320 180 L 320 160 L 320 140 L 300 140 L 300 120 L 280 120 z M 320 180 L 320 200 L 340 200 L 360 200 L 360 180 L 340 180 L 320 180 z M 360 180 L 380 180 L 380 200 L 380 220 L 380 240 L 380 260 L 400 260 L 400 240 L 400 220 L 400 200 L 400 180 L 400 160 L 400 140 L 400 120 L 380 120 L 380 140 L 360 140 L 360 160 L 360 180 z M 460 120 L 460 140 L 460 160 L 460 180 L 460 200 L 460 220 L 460 240 L 460 260 L 480 260 L 480 240 L 480 220 L 480 200 L 500 200 L 500 180 L 480 180 L 480 160 L 480 140 L 500 140 L 500 120 L 480 120 L 460 120 z M 500 140 L 500 160 L 500 180 L 520 180 L 520 160 L 520 140 L 500 140 z M 240 360 L 240 380 L 240 400 L 240 420 L 240 440 L 240 460 L 240 480 L 260 480 L 260 460 L 260 440 L 260 420 L 280 420 L 300 420 L 320 420 L 320 400 L 320 380 L 340 380 L 360 380 L 360 360 L 340 360 L 320 360 L 300 360 L 280 360 L 260 360 L 240 360 z M 260 480 L 260 500 L 280 500 L 300 500 L 300 480 L 280 480 L 260 480 z M 300 480 L 320 480 L 340 480 L 360 480 L 360 460 L 360 440 L 340 440 L 320 440 L 300 440 L 300 460 L 300 480 z M 360 440 L 380 440 L 400 440 L 420 440 L 420 420 L 400 420 L 380 420 L 360 420 L 360 440 z M 420 420 L 440 420 L 440 400 L 440 380 L 420 380 L 420 400 L 420 420 z M 260 500 L 240 500 L 240 520 L 240 540 L 260 540 L 260 520 L 260 500 z M 500 500 L 500 520 L 500 540 L 520 540 L 540 540 L 540 520 L 540 500 L 520 500 L 500 500 z M 360 540 L 360 560 L 340 560 L 320 560 L 320 580 L 320 600 L 320 620 L 340 620 L 360 620 L 360 640 L 360 660 L 380 660 L 380 680 L 400 680 L 420 680 L 440 680 L 440 700 L 440 720 L 460 720 L 480 720 L 500 720 L 500 700 L 500 680 L 480 680 L 480 660 L 460 660 L 440 660 L 440 640 L 440 620 L 440 600 L 420 600 L 420 580 L 420 560 L 420 540 L 400 540 L 380 540 L 360 540 z M 500 720 L 500 740 L 520 740 L 540 740 L 540 720 L 520 720 L 500 720 z M 380 680 L 360 680 L 360 700 L 360 720 L 340 720 L 320 720 L 320 700 L 320 680 L 320 660 L 300 660 L 300 640 L 300 620 L 300 600 L 280 600 L 260 600 L 240 600 L 240 620 L 240 640 L 240 660 L 240 680 L 240 700 L 240 720 L 240 740 L 240 760 L 240 780 L 240 800 L 240 820 L 240 840 L 240 860 L 240 880 L 240 900 L 260 900 L 280 900 L 300 900 L 320 900 L 340 900 L 360 900 L 380 900 L 400 900 L 420 900 L 440 900 L 460 900 L 480 900 L 500 900 L 520 900 L 540 900 L 560 900 L 580 900 L 600 900 L 620 900 L 640 900 L 660 900 L 680 900 L 700 900 L 720 900 L 740 900 L 760 900 L 780 900 L 800 900 L 820 900 L 840 900 L 860 900 L 880 900 L 900 900 L 900 880 L 900 860 L 900 840 L 900 820 L 900 800 L 900 780 L 900 760 L 900 740 L 900 720 L 880 720 L 860 720 L 860 740 L 840 740 L 840 760 L 840 780 L 820 780 L 800 780 L 800 800 L 780 800 L 760 800 L 740 800 L 740 820 L 740 840 L 720 840 L 700 840 L 680 840 L 680 860 L 660 860 L 640 860 L 620 860 L 600 860 L 580 860 L 560 860 L 560 840 L 540 840 L 520 840 L 500 840 L 480 840 L 460 840 L 440 840 L 440 820 L 440 800 L 420 800 L 420 780 L 400 780 L 380 780 L 380 760 L 380 740 L 380 720 L 380 700 L 380 680 z "
     id="rect3602" />
  <path
     style="fill:#000000"
     d="M 200 0 L 200 20 L 200 40 L 200 60 L 180 60 L 160 60 L 140 60 L 120 60 L 100 60 L 80 60 L 60 60 L 40 60 L 20 60 L 0 60 L 0 80 L 0 100 L 0 120 L 0 140 L 0 160 L 0 180 L 0 200 L 0 220 L 0 240 L 0 260 L 0 280 L 0 300 L 0 320 L 20 320 L 40 320 L 60 320 L 80 320 L 100 320 L 120 320 L 140 320 L 160 320 L 180 320 L 200 320 L 200 340 L 200 360 L 200 380 L 200 400 L 200 420 L 200 440 L 200 460 L 200 480 L 200 500 L 200 520 L 200 540 L 200 560 L 200 580 L 200 600 L 200 620 L 200 640 L 200 660 L 200 680 L 200 700 L 200 720 L 200 740 L 200 760 L 200 780 L 200 800 L 200 820 L 200 840 L 200 860 L 200 880 L 200 900 L 200 920 L 220 920 L 240 920 L 260 920 L 280 920 L 300 920 L 320 920 L 340 920 L 360 920 L 380 920 L 400 920 L 420 920 L 440 920 L 460 920 L 480 920 L 500 920 L 520 920 L 540 920 L 560 920 L 580 920 L 600 920 L 620 920 L 640 920 L 660 920 L 680 920 L 700 920 L 720 920 L 740 920 L 760 920 L 780 920 L 800 920 L 820 920 L 840 920 L 860 920 L 880 920 L 900 920 L 920 920 L 920 900 L 920 880 L 920 860 L 920 840 L 920 820 L 920 800 L 920 780 L 920 760 L 920 740 L 920 720 L 920 700 L 920 680 L 920 660 L 920 640 L 920 620 L 920 600 L 920 580 L 920 560 L 920 540 L 920 520 L 920 500 L 920 480 L 920 460 L 920 440 L 920 420 L 920 400 L 920 380 L 920 360 L 920 340 L 920 320 L 920 300 L 920 280 L 920 260 L 920 240 L 920 220 L 920 200 L 920 180 L 920 160 L 920 140 L 920 120 L 900 120 L 900 100 L 880 100 L 880 120 L 860 120 L 840 120 L 820 120 L 800 120 L 780 120 L 780 100 L 780 80 L 780 60 L 780 40 L 780 20 L 800 20 L 800 0 L 780 0 L 760 0 L 740 0 L 720 0 L 700 0 L 680 0 L 660 0 L 640 0 L 620 0 L 600 0 L 580 0 L 560 0 L 540 0 L 520 0 L 500 0 L 480 0 L 460 0 L 440 0 L 420 0 L 400 0 L 380 0 L 360 0 L 340 0 L 320 0 L 300 0 L 280 0 L 260 0 L 240 0 L 220 0 L 200 0 z M 800 20 L 800 40 L 820 40 L 820 20 L 800 20 z M 820 40 L 820 60 L 840 60 L 840 40 L 820 40 z M 840 60 L 840 80 L 860 80 L 860 60 L 840 60 z M 860 80 L 860 100 L 880 100 L 880 80 L 860 80 z M 240 20 L 260 20 L 280 20 L 300 20 L 320 20 L 340 20 L 360 20 L 380 20 L 400 20 L 420 20 L 440 20 L 460 20 L 480 20 L 500 20 L 520 20 L 540 20 L 560 20 L 580 20 L 600 20 L 620 20 L 640 20 L 660 20 L 680 20 L 700 20 L 720 20 L 740 20 L 740 40 L 740 60 L 740 80 L 740 100 L 740 120 L 740 140 L 760 140 L 780 140 L 800 140 L 820 140 L 840 140 L 860 140 L 880 140 L 900 140 L 900 160 L 900 180 L 900 200 L 900 220 L 900 240 L 900 260 L 900 280 L 900 300 L 900 320 L 900 340 L 900 360 L 900 380 L 900 400 L 900 420 L 900 440 L 900 460 L 900 480 L 900 500 L 900 520 L 900 540 L 900 560 L 900 580 L 900 600 L 900 620 L 900 640 L 900 660 L 900 680 L 900 700 L 900 720 L 900 740 L 900 760 L 900 780 L 900 800 L 900 820 L 900 840 L 900 860 L 900 880 L 900 900 L 880 900 L 860 900 L 840 900 L 820 900 L 800 900 L 780 900 L 760 900 L 740 900 L 720 900 L 700 900 L 680 900 L 660 900 L 640 900 L 620 900 L 600 900 L 580 900 L 560 900 L 540 900 L 520 900 L 500 900 L 480 900 L 460 900 L 440 900 L 420 900 L 400 900 L 380 900 L 360 900 L 340 900 L 320 900 L 300 900 L 280 900 L 260 900 L 240 900 L 240 880 L 240 860 L 240 840 L 240 820 L 240 800 L 240 780 L 240 760 L 240 740 L 240 720 L 240 700 L 240 680 L 240 660 L 240 640 L 240 620 L 240 600 L 240 580 L 240 560 L 240 540 L 240 520 L 240 500 L 240 480 L 240 460 L 240 440 L 240 420 L 240 400 L 240 380 L 240 360 L 240 340 L 240 320 L 260 320 L 280 320 L 300 320 L 320 320 L 340 320 L 360 320 L 380 320 L 400 320 L 420 320 L 440 320 L 460 320 L 480 320 L 500 320 L 520 320 L 540 320 L 560 320 L 580 320 L 600 320 L 620 320 L 640 320 L 660 320 L 680 320 L 680 300 L 680 280 L 680 260 L 680 240 L 680 220 L 680 200 L 680 180 L 680 160 L 680 140 L 680 120 L 680 100 L 680 80 L 680 60 L 660 60 L 640 60 L 620 60 L 600 60 L 580 60 L 560 60 L 540 60 L 520 60 L 500 60 L 480 60 L 460 60 L 440 60 L 420 60 L 400 60 L 380 60 L 360 60 L 340 60 L 320 60 L 300 60 L 280 60 L 260 60 L 240 60 L 240 40 L 240 20 z M 20 80 L 40 80 L 60 80 L 80 80 L 100 80 L 120 80 L 140 80 L 160 80 L 180 80 L 200 80 L 220 80 L 240 80 L 260 80 L 280 80 L 300 80 L 320 80 L 340 80 L 360 80 L 380 80 L 400 80 L 420 80 L 440 80 L 460 80 L 480 80 L 500 80 L 520 80 L 540 80 L 560 80 L 580 80 L 600 80 L 620 80 L 640 80 L 660 80 L 660 100 L 660 120 L 660 140 L 660 160 L 660 180 L 660 200 L 660 220 L 660 240 L 660 260 L 660 280 L 660 300 L 640 300 L 620 300 L 600 300 L 580 300 L 560 300 L 540 300 L 520 300 L 500 300 L 480 300 L 460 300 L 440 300 L 420 300 L 400 300 L 380 300 L 360 300 L 340 300 L 320 300 L 300 300 L 280 300 L 260 300 L 240 300 L 220 300 L 200 300 L 180 300 L 160 300 L 140 300 L 120 300 L 100 300 L 80 300 L 60 300 L 40 300 L 20 300 L 20 280 L 20 260 L 20 240 L 20 220 L 20 200 L 20 180 L 20 160 L 20 140 L 20 120 L 20 100 L 20 80 z "
     id="rect3680" />
  <path
     style="fill:#808080"
     d="M 680 80 L 680 100 L 680 120 L 680 140 L 680 160 L 680 180 L 680 200 L 680 220 L 680 240 L 680 260 L 680 280 L 680 300 L 680 320 L 660 320 L 640 320 L 620 320 L 600 320 L 580 320 L 560 320 L 540 320 L 520 320 L 500 320 L 480 320 L 460 320 L 440 320 L 420 320 L 400 320 L 380 320 L 360 320 L 340 320 L 320 320 L 300 320 L 280 320 L 260 320 L 240 320 L 240 340 L 240 360 L 260 360 L 280 360 L 300 360 L 320 360 L 340 360 L 360 360 L 380 360 L 400 360 L 420 360 L 440 360 L 460 360 L 480 360 L 500 360 L 520 360 L 540 360 L 560 360 L 580 360 L 600 360 L 620 360 L 640 360 L 660 360 L 660 380 L 660 400 L 660 420 L 640 420 L 620 420 L 600 420 L 580 420 L 560 420 L 540 420 L 520 420 L 500 420 L 480 420 L 480 440 L 460 440 L 440 440 L 420 440 L 420 460 L 420 480 L 400 480 L 380 480 L 360 480 L 360 500 L 380 500 L 400 500 L 420 500 L 440 500 L 460 500 L 480 500 L 480 480 L 500 480 L 520 480 L 540 480 L 560 480 L 560 500 L 560 520 L 560 540 L 540 540 L 540 560 L 520 560 L 500 560 L 480 560 L 480 540 L 460 540 L 440 540 L 440 560 L 440 580 L 440 600 L 440 620 L 460 620 L 480 620 L 480 640 L 480 660 L 500 660 L 500 680 L 520 680 L 540 680 L 560 680 L 580 680 L 600 680 L 620 680 L 640 680 L 660 680 L 660 660 L 680 660 L 680 640 L 680 620 L 700 620 L 720 620 L 720 600 L 720 580 L 720 560 L 720 540 L 720 520 L 720 500 L 740 500 L 760 500 L 780 500 L 780 520 L 780 540 L 800 540 L 800 560 L 800 580 L 800 600 L 820 600 L 840 600 L 840 620 L 860 620 L 860 600 L 880 600 L 900 600 L 900 580 L 900 560 L 900 540 L 900 520 L 900 500 L 900 480 L 900 460 L 900 440 L 900 420 L 880 420 L 860 420 L 860 400 L 860 380 L 840 380 L 820 380 L 800 380 L 800 360 L 780 360 L 760 360 L 740 360 L 740 340 L 740 320 L 720 320 L 720 300 L 720 280 L 720 260 L 720 240 L 720 220 L 720 200 L 720 180 L 720 160 L 720 140 L 720 120 L 720 100 L 720 80 L 700 80 L 680 80 z M 360 500 L 340 500 L 320 500 L 320 520 L 320 540 L 340 540 L 360 540 L 360 520 L 360 500 z M 320 540 L 300 540 L 280 540 L 260 540 L 260 560 L 280 560 L 300 560 L 320 560 L 320 540 z M 780 140 L 780 160 L 780 180 L 800 180 L 820 180 L 840 180 L 860 180 L 880 180 L 900 180 L 900 160 L 900 140 L 880 140 L 860 140 L 840 140 L 820 140 L 800 140 L 780 140 z M 920 160 L 920 180 L 920 200 L 920 220 L 920 240 L 920 260 L 920 280 L 920 300 L 920 320 L 920 340 L 920 360 L 920 380 L 920 400 L 920 420 L 920 440 L 920 460 L 920 480 L 920 500 L 920 520 L 920 540 L 920 560 L 920 580 L 920 600 L 920 620 L 920 640 L 920 660 L 920 680 L 920 700 L 920 720 L 920 740 L 920 760 L 920 780 L 920 800 L 920 820 L 920 840 L 920 860 L 920 880 L 920 900 L 920 920 L 900 920 L 880 920 L 860 920 L 840 920 L 820 920 L 800 920 L 780 920 L 760 920 L 740 920 L 720 920 L 700 920 L 680 920 L 660 920 L 640 920 L 620 920 L 600 920 L 580 920 L 560 920 L 540 920 L 520 920 L 500 920 L 480 920 L 460 920 L 440 920 L 420 920 L 400 920 L 380 920 L 360 920 L 340 920 L 320 920 L 300 920 L 280 920 L 260 920 L 260 940 L 260 960 L 280 960 L 300 960 L 320 960 L 340 960 L 360 960 L 380 960 L 400 960 L 420 960 L 440 960 L 460 960 L 480 960 L 500 960 L 520 960 L 540 960 L 560 960 L 580 960 L 600 960 L 620 960 L 640 960 L 660 960 L 680 960 L 700 960 L 720 960 L 740 960 L 760 960 L 780 960 L 800 960 L 820 960 L 840 960 L 860 960 L 880 960 L 900 960 L 920 960 L 940 960 L 960 960 L 960 940 L 960 920 L 960 900 L 960 880 L 960 860 L 960 840 L 960 820 L 960 800 L 960 780 L 960 760 L 960 740 L 960 720 L 960 700 L 960 680 L 960 660 L 960 640 L 960 620 L 960 600 L 960 580 L 960 560 L 960 540 L 960 520 L 960 500 L 960 480 L 960 460 L 960 440 L 960 420 L 960 400 L 960 380 L 960 360 L 960 340 L 960 320 L 960 300 L 960 280 L 960 260 L 960 240 L 960 220 L 960 200 L 960 180 L 960 160 L 940 160 L 920 160 z "
     id="rect3824" />
</svg>
