<?xml version="1.0" encoding="UTF-8" standalone="no"?>
<svg
   xmlns:dc="http://purl.org/dc/elements/1.1/"
   xmlns:cc="http://creativecommons.org/ns#"
   xmlns:rdf="http://www.w3.org/1999/02/22-rdf-syntax-ns#"
   xmlns:svg="http://www.w3.org/2000/svg"
   xmlns="http://www.w3.org/2000/svg"
   height="960px"
   version="1.1"
   width="960px"
   id="svg3106">
  <metadata
     id="metadata3110">
    <rdf:RDF>
      <cc:Work
         rdf:about="">
        <dc:format>image/svg+xml</dc:format>
        <dc:type
           rdf:resource="http://purl.org/dc/dcmitype/StillImage" />
      </cc:Work>
    </rdf:RDF>
  </metadata>
  <defs
     id="defs2" />
  <path
     id="rect768"
     d="M 120 320 L 120 340 L 140 340 L 140 320 L 120 320 z "
     style="fill:#e3e3e3" />
  <path
     id="rect1054"
     d="M 160 380 L 160 400 L 180 400 L 180 380 L 160 380 z "
     style="fill:#a0a0a4" />
  <path
     id="rect1336"
     d="M 200 320 L 200 340 L 220 340 L 220 320 L 200 320 z M 260 420 L 260 440 L 280 440 L 280 420 L 260 420 z M 160 440 L 160 460 L 180 460 L 180 440 L 160 440 z "
     style="fill:#777777" />
  <path
     id="rect1522"
     d="M 180 220 L 180 240 L 200 240 L 220 240 L 240 240 L 240 220 L 220 220 L 200 220 L 180 220 z M 240 240 L 240 260 L 260 260 L 280 260 L 280 240 L 260 240 L 240 240 z M 280 260 L 280 280 L 300 280 L 320 280 L 320 260 L 300 260 L 280 260 z M 180 240 L 160 240 L 140 240 L 120 240 L 120 260 L 140 260 L 160 260 L 180 260 L 180 240 z M 120 260 L 100 260 L 100 280 L 100 300 L 120 300 L 120 280 L 120 260 z M 100 300 L 80 300 L 80 320 L 80 340 L 80 360 L 80 380 L 80 400 L 80 420 L 100 420 L 100 400 L 100 380 L 100 360 L 100 340 L 100 320 L 100 300 z M 100 420 L 100 440 L 120 440 L 120 420 L 100 420 z M 120 440 L 120 460 L 140 460 L 140 440 L 120 440 z M 140 460 L 140 480 L 140 500 L 160 500 L 160 480 L 160 460 L 140 460 z M 280 300 L 280 320 L 280 340 L 300 340 L 300 320 L 300 300 L 280 300 z M 300 360 L 300 380 L 320 380 L 320 360 L 300 360 z M 320 380 L 320 400 L 340 400 L 340 380 L 320 380 z M 320 400 L 300 400 L 300 420 L 320 420 L 320 400 z M 300 420 L 280 420 L 280 440 L 300 440 L 300 420 z M 180 380 L 180 400 L 180 420 L 200 420 L 200 400 L 200 380 L 180 380 z M 180 420 L 160 420 L 160 440 L 180 440 L 180 420 z M 300 460 L 300 480 L 320 480 L 320 460 L 300 460 z "
     style="fill:#555555" />
  <path
     id="rect1626"
     d="M 140 320 L 140 340 L 160 340 L 160 320 L 140 320 z M 100 360 L 100 380 L 120 380 L 120 360 L 100 360 z M 120 380 L 120 400 L 140 400 L 140 420 L 160 420 L 180 420 L 180 400 L 160 400 L 160 380 L 140 380 L 120 380 z M 240 500 L 240 520 L 260 520 L 260 500 L 240 500 z "
     style="fill:#c0c0c0" />
  <path
     id="rect1990"
     d="M 120 520 L 120 540 L 100 540 L 100 560 L 80 560 L 80 580 L 80 600 L 100 600 L 120 600 L 140 600 L 140 580 L 160 580 L 160 560 L 180 560 L 180 540 L 180 520 L 160 520 L 140 520 L 120 520 z "
     style="fill:#008080" />
  <path
     id="rect1996"
     d="M 260 520 L 260 540 L 260 560 L 260 580 L 280 580 L 280 560 L 280 540 L 280 520 L 260 520 z M 180 540 L 180 560 L 160 560 L 160 580 L 140 580 L 140 600 L 160 600 L 180 600 L 200 600 L 200 580 L 200 560 L 200 540 L 180 540 z "
     style="fill:#006666" />
  <path
     id="rect2002"
     d="M 200 560 L 200 580 L 200 600 L 220 600 L 240 600 L 260 600 L 260 580 L 240 580 L 220 580 L 220 560 L 200 560 z "
     style="fill:#003366" />
  <path
     id="rect2012"
     d="M 300 560 L 300 580 L 280 580 L 280 600 L 300 600 L 320 600 L 340 600 L 360 600 L 360 580 L 340 580 L 340 560 L 320 560 L 300 560 z "
     style="fill:#003333" />
  <path
     id="rect2154"
     d="M 460 400 L 460 420 L 460 440 L 480 440 L 500 440 L 520 440 L 540 440 L 560 440 L 580 440 L 600 440 L 620 440 L 640 440 L 660 440 L 680 440 L 700 440 L 720 440 L 740 440 L 760 440 L 780 440 L 800 440 L 820 440 L 840 440 L 840 420 L 840 400 L 820 400 L 800 400 L 780 400 L 760 400 L 740 400 L 720 400 L 700 400 L 680 400 L 660 400 L 640 400 L 620 400 L 600 400 L 580 400 L 560 400 L 540 400 L 520 400 L 500 400 L 480 400 L 460 400 z M 460 480 L 460 500 L 480 500 L 500 500 L 520 500 L 540 500 L 560 500 L 580 500 L 600 500 L 620 500 L 640 500 L 660 500 L 680 500 L 700 500 L 720 500 L 740 500 L 760 500 L 780 500 L 800 500 L 820 500 L 840 500 L 840 480 L 820 480 L 800 480 L 780 480 L 760 480 L 740 480 L 720 480 L 700 480 L 680 480 L 660 480 L 640 480 L 620 480 L 600 480 L 580 480 L 560 480 L 540 480 L 520 480 L 500 480 L 480 480 L 460 480 z M 460 520 L 460 540 L 480 540 L 500 540 L 520 540 L 540 540 L 560 540 L 580 540 L 600 540 L 620 540 L 640 540 L 660 540 L 680 540 L 700 540 L 720 540 L 740 540 L 760 540 L 780 540 L 800 540 L 820 540 L 840 540 L 840 520 L 820 520 L 800 520 L 780 520 L 760 520 L 740 520 L 720 520 L 700 520 L 680 520 L 660 520 L 640 520 L 620 520 L 600 520 L 580 520 L 560 520 L 540 520 L 520 520 L 500 520 L 480 520 L 460 520 z M 460 560 L 460 580 L 480 580 L 500 580 L 520 580 L 540 580 L 560 580 L 580 580 L 600 580 L 620 580 L 640 580 L 660 580 L 680 580 L 700 580 L 720 580 L 740 580 L 760 580 L 780 580 L 800 580 L 820 580 L 840 580 L 840 560 L 820 560 L 800 560 L 780 560 L 760 560 L 740 560 L 720 560 L 700 560 L 680 560 L 660 560 L 640 560 L 620 560 L 600 560 L 580 560 L 560 560 L 540 560 L 520 560 L 500 560 L 480 560 L 460 560 z M 460 600 L 460 620 L 480 620 L 500 620 L 520 620 L 540 620 L 560 620 L 580 620 L 600 620 L 620 620 L 640 620 L 660 620 L 680 620 L 700 620 L 720 620 L 740 620 L 760 620 L 780 620 L 800 620 L 820 620 L 840 620 L 840 600 L 820 600 L 800 600 L 780 600 L 760 600 L 740 600 L 720 600 L 700 600 L 680 600 L 660 600 L 640 600 L 620 600 L 600 600 L 580 600 L 560 600 L 540 600 L 520 600 L 500 600 L 480 600 L 460 600 z "
     style="fill:#333366" />
  <path
     id="rect2862"
     d="M 20 180 L 20 200 L 20 220 L 20 240 L 20 260 L 20 280 L 20 300 L 20 320 L 20 340 L 20 360 L 20 380 L 20 400 L 20 420 L 20 440 L 20 460 L 20 480 L 20 500 L 20 520 L 20 540 L 20 560 L 20 580 L 20 600 L 20 620 L 20 640 L 20 660 L 20 680 L 20 700 L 20 720 L 20 740 L 20 760 L 20 780 L 40 780 L 60 780 L 80 780 L 100 780 L 120 780 L 140 780 L 160 780 L 180 780 L 200 780 L 220 780 L 240 780 L 260 780 L 280 780 L 300 780 L 320 780 L 340 780 L 360 780 L 380 780 L 400 780 L 400 760 L 400 740 L 400 720 L 400 700 L 400 680 L 400 660 L 400 640 L 400 620 L 400 600 L 400 580 L 400 560 L 400 540 L 400 520 L 400 500 L 400 480 L 400 460 L 400 440 L 400 420 L 400 400 L 400 380 L 400 360 L 400 340 L 400 320 L 400 300 L 400 280 L 400 260 L 400 240 L 400 220 L 400 200 L 400 180 L 380 180 L 360 180 L 340 180 L 320 180 L 300 180 L 280 180 L 260 180 L 240 180 L 220 180 L 200 180 L 180 180 L 160 180 L 140 180 L 120 180 L 100 180 L 80 180 L 60 180 L 40 180 L 20 180 z M 180 220 L 200 220 L 220 220 L 240 220 L 240 240 L 260 240 L 280 240 L 280 260 L 300 260 L 320 260 L 320 280 L 300 280 L 300 300 L 300 320 L 300 340 L 300 360 L 320 360 L 320 380 L 340 380 L 340 400 L 320 400 L 320 420 L 300 420 L 300 440 L 320 440 L 320 460 L 320 480 L 300 480 L 300 500 L 280 500 L 280 520 L 300 520 L 300 540 L 320 540 L 340 540 L 340 560 L 360 560 L 360 580 L 380 580 L 380 600 L 360 600 L 340 600 L 320 600 L 300 600 L 280 600 L 260 600 L 240 600 L 220 600 L 200 600 L 180 600 L 160 600 L 140 600 L 120 600 L 100 600 L 80 600 L 60 600 L 60 580 L 60 560 L 80 560 L 80 540 L 100 540 L 100 520 L 120 520 L 120 500 L 140 500 L 140 480 L 140 460 L 120 460 L 120 440 L 100 440 L 100 420 L 80 420 L 80 400 L 80 380 L 80 360 L 80 340 L 80 320 L 80 300 L 100 300 L 100 280 L 100 260 L 120 260 L 120 240 L 140 240 L 160 240 L 180 240 L 180 220 z M 160 300 L 160 320 L 180 320 L 180 300 L 160 300 z M 120 340 L 120 360 L 140 360 L 140 340 L 120 340 z "
     style="fill:#d7d7d7" />
  <path
     id="rect2912"
     d="M 400 180 L 400 200 L 400 220 L 400 240 L 400 260 L 400 280 L 400 300 L 400 320 L 400 340 L 400 360 L 400 380 L 400 400 L 400 420 L 400 440 L 400 460 L 400 480 L 400 500 L 400 520 L 400 540 L 400 560 L 400 580 L 400 600 L 400 620 L 400 640 L 400 660 L 400 680 L 400 700 L 400 720 L 400 740 L 400 760 L 400 780 L 420 780 L 440 780 L 460 780 L 480 780 L 500 780 L 520 780 L 540 780 L 560 780 L 580 780 L 600 780 L 620 780 L 640 780 L 660 780 L 680 780 L 700 780 L 720 780 L 740 780 L 760 780 L 780 780 L 800 780 L 820 780 L 840 780 L 860 780 L 880 780 L 900 780 L 900 760 L 900 740 L 900 720 L 900 700 L 900 680 L 900 660 L 900 640 L 900 620 L 900 600 L 900 580 L 900 560 L 900 540 L 900 520 L 900 500 L 900 480 L 900 460 L 900 440 L 900 420 L 900 400 L 900 380 L 900 360 L 900 340 L 900 320 L 900 300 L 900 280 L 900 260 L 900 240 L 900 220 L 900 200 L 900 180 L 880 180 L 860 180 L 840 180 L 820 180 L 800 180 L 780 180 L 760 180 L 740 180 L 720 180 L 700 180 L 680 180 L 660 180 L 640 180 L 620 180 L 600 180 L 580 180 L 560 180 L 540 180 L 520 180 L 500 180 L 480 180 L 460 180 L 440 180 L 420 180 L 400 180 z M 180 240 L 180 260 L 160 260 L 140 260 L 120 260 L 120 280 L 120 300 L 100 300 L 100 320 L 100 340 L 120 340 L 120 320 L 140 320 L 160 320 L 160 300 L 180 300 L 180 320 L 200 320 L 220 320 L 220 340 L 200 340 L 180 340 L 180 360 L 180 380 L 200 380 L 200 400 L 200 420 L 180 420 L 180 440 L 180 460 L 180 480 L 160 480 L 160 500 L 180 500 L 180 520 L 200 520 L 200 540 L 220 540 L 220 560 L 240 560 L 260 560 L 260 540 L 260 520 L 240 520 L 220 520 L 220 500 L 220 480 L 240 480 L 260 480 L 280 480 L 300 480 L 300 460 L 300 440 L 280 440 L 260 440 L 260 420 L 280 420 L 300 420 L 300 400 L 320 400 L 320 380 L 300 380 L 300 360 L 280 360 L 280 340 L 280 320 L 280 300 L 280 280 L 280 260 L 260 260 L 240 260 L 240 240 L 220 240 L 200 240 L 180 240 z M 460 400 L 480 400 L 500 400 L 520 400 L 540 400 L 560 400 L 580 400 L 600 400 L 620 400 L 640 400 L 660 400 L 680 400 L 700 400 L 720 400 L 740 400 L 760 400 L 780 400 L 800 400 L 820 400 L 840 400 L 840 420 L 840 440 L 820 440 L 800 440 L 780 440 L 760 440 L 740 440 L 720 440 L 700 440 L 680 440 L 660 440 L 640 440 L 620 440 L 600 440 L 580 440 L 560 440 L 540 440 L 520 440 L 500 440 L 480 440 L 460 440 L 460 420 L 460 400 z M 460 480 L 480 480 L 500 480 L 520 480 L 540 480 L 560 480 L 580 480 L 600 480 L 620 480 L 640 480 L 660 480 L 680 480 L 700 480 L 720 480 L 740 480 L 760 480 L 780 480 L 800 480 L 820 480 L 840 480 L 840 500 L 820 500 L 800 500 L 780 500 L 760 500 L 740 500 L 720 500 L 700 500 L 680 500 L 660 500 L 640 500 L 620 500 L 600 500 L 580 500 L 560 500 L 540 500 L 520 500 L 500 500 L 480 500 L 460 500 L 460 480 z M 460 520 L 480 520 L 500 520 L 520 520 L 540 520 L 560 520 L 580 520 L 600 520 L 620 520 L 640 520 L 660 520 L 680 520 L 700 520 L 720 520 L 740 520 L 760 520 L 780 520 L 800 520 L 820 520 L 840 520 L 840 540 L 820 540 L 800 540 L 780 540 L 760 540 L 740 540 L 720 540 L 700 540 L 680 540 L 660 540 L 640 540 L 620 540 L 600 540 L 580 540 L 560 540 L 540 540 L 520 540 L 500 540 L 480 540 L 460 540 L 460 520 z M 460 560 L 480 560 L 500 560 L 520 560 L 540 560 L 560 560 L 580 560 L 600 560 L 620 560 L 640 560 L 660 560 L 680 560 L 700 560 L 720 560 L 740 560 L 760 560 L 780 560 L 800 560 L 820 560 L 840 560 L 840 580 L 820 580 L 800 580 L 780 580 L 760 580 L 740 580 L 720 580 L 700 580 L 680 580 L 660 580 L 640 580 L 620 580 L 600 580 L 580 580 L 560 580 L 540 580 L 520 580 L 500 580 L 480 580 L 460 580 L 460 560 z M 460 600 L 480 600 L 500 600 L 520 600 L 540 600 L 560 600 L 580 600 L 600 600 L 620 600 L 640 600 L 660 600 L 680 600 L 700 600 L 720 600 L 740 600 L 760 600 L 780 600 L 800 600 L 820 600 L 840 600 L 840 620 L 820 620 L 800 620 L 780 620 L 760 620 L 740 620 L 720 620 L 700 620 L 680 620 L 660 620 L 640 620 L 620 620 L 600 620 L 580 620 L 560 620 L 540 620 L 520 620 L 500 620 L 480 620 L 460 620 L 460 600 z "
     style="fill:#ffffff" />
  <path
     id="rect2918"
     d="M 0 160 L 0 180 L 0 200 L 0 220 L 0 240 L 0 260 L 0 280 L 0 300 L 0 320 L 0 340 L 0 360 L 0 380 L 0 400 L 0 420 L 0 440 L 0 460 L 0 480 L 0 500 L 0 520 L 0 540 L 0 560 L 0 580 L 0 600 L 0 620 L 0 640 L 0 660 L 0 680 L 0 700 L 0 720 L 0 740 L 0 760 L 0 780 L 0 800 L 20 800 L 20 780 L 20 760 L 20 740 L 20 720 L 20 700 L 20 680 L 20 660 L 20 640 L 20 620 L 20 600 L 20 580 L 20 560 L 20 540 L 20 520 L 20 500 L 20 480 L 20 460 L 20 440 L 20 420 L 20 400 L 20 380 L 20 360 L 20 340 L 20 320 L 20 300 L 20 280 L 20 260 L 20 240 L 20 220 L 20 200 L 20 180 L 40 180 L 60 180 L 80 180 L 100 180 L 120 180 L 140 180 L 160 180 L 180 180 L 200 180 L 220 180 L 240 180 L 260 180 L 280 180 L 300 180 L 320 180 L 340 180 L 360 180 L 380 180 L 400 180 L 420 180 L 440 180 L 460 180 L 480 180 L 500 180 L 520 180 L 540 180 L 560 180 L 580 180 L 600 180 L 620 180 L 640 180 L 660 180 L 680 180 L 700 180 L 720 180 L 740 180 L 760 180 L 780 180 L 800 180 L 820 180 L 840 180 L 860 180 L 880 180 L 900 180 L 920 180 L 920 160 L 900 160 L 880 160 L 860 160 L 840 160 L 820 160 L 800 160 L 780 160 L 760 160 L 740 160 L 720 160 L 700 160 L 680 160 L 660 160 L 640 160 L 620 160 L 600 160 L 580 160 L 560 160 L 540 160 L 520 160 L 500 160 L 480 160 L 460 160 L 440 160 L 420 160 L 400 160 L 380 160 L 360 160 L 340 160 L 320 160 L 300 160 L 280 160 L 260 160 L 240 160 L 220 160 L 200 160 L 180 160 L 160 160 L 140 160 L 120 160 L 100 160 L 80 160 L 60 160 L 40 160 L 20 160 L 0 160 z M 280 280 L 280 300 L 300 300 L 300 280 L 280 280 z M 160 320 L 160 340 L 180 340 L 180 320 L 160 320 z M 160 340 L 140 340 L 140 360 L 120 360 L 120 380 L 140 380 L 160 380 L 160 360 L 160 340 z M 120 380 L 100 380 L 100 400 L 120 400 L 120 380 z M 120 400 L 120 420 L 140 420 L 140 400 L 120 400 z M 140 420 L 140 440 L 160 440 L 160 420 L 140 420 z M 120 360 L 120 340 L 100 340 L 100 360 L 120 360 z M 220 500 L 220 520 L 240 520 L 240 500 L 220 500 z "
     style="fill:#b2b2b2" />
  <path
     id="rect3008"
     d="M 900 180 L 900 200 L 900 220 L 900 240 L 900 260 L 900 280 L 900 300 L 900 320 L 900 340 L 900 360 L 900 380 L 900 400 L 900 420 L 900 440 L 900 460 L 900 480 L 900 500 L 900 520 L 900 540 L 900 560 L 900 580 L 900 600 L 900 620 L 900 640 L 900 660 L 900 680 L 900 700 L 900 720 L 900 740 L 900 760 L 900 780 L 880 780 L 860 780 L 840 780 L 820 780 L 800 780 L 780 780 L 760 780 L 740 780 L 720 780 L 700 780 L 680 780 L 660 780 L 640 780 L 620 780 L 600 780 L 580 780 L 560 780 L 540 780 L 520 780 L 500 780 L 480 780 L 460 780 L 440 780 L 420 780 L 400 780 L 380 780 L 360 780 L 340 780 L 320 780 L 300 780 L 280 780 L 260 780 L 240 780 L 220 780 L 200 780 L 180 780 L 160 780 L 140 780 L 120 780 L 100 780 L 80 780 L 60 780 L 40 780 L 20 780 L 20 800 L 40 800 L 60 800 L 80 800 L 100 800 L 120 800 L 140 800 L 160 800 L 180 800 L 200 800 L 220 800 L 240 800 L 260 800 L 280 800 L 300 800 L 320 800 L 340 800 L 360 800 L 380 800 L 400 800 L 420 800 L 440 800 L 460 800 L 480 800 L 500 800 L 520 800 L 540 800 L 560 800 L 580 800 L 600 800 L 620 800 L 640 800 L 660 800 L 680 800 L 700 800 L 720 800 L 740 800 L 760 800 L 780 800 L 800 800 L 820 800 L 840 800 L 860 800 L 880 800 L 900 800 L 920 800 L 920 780 L 920 760 L 920 740 L 920 720 L 920 700 L 920 680 L 920 660 L 920 640 L 920 620 L 920 600 L 920 580 L 920 560 L 920 540 L 920 520 L 920 500 L 920 480 L 920 460 L 920 440 L 920 420 L 920 400 L 920 380 L 920 360 L 920 340 L 920 320 L 920 300 L 920 280 L 920 260 L 920 240 L 920 220 L 920 200 L 920 180 L 900 180 z M 280 340 L 280 360 L 300 360 L 300 340 L 280 340 z M 100 400 L 100 420 L 120 420 L 120 400 L 100 400 z M 120 420 L 120 440 L 140 440 L 140 420 L 120 420 z M 140 440 L 140 460 L 160 460 L 160 440 L 140 440 z M 160 460 L 160 480 L 180 480 L 180 460 L 160 460 z M 300 440 L 300 460 L 320 460 L 320 440 L 300 440 z M 220 480 L 220 500 L 240 500 L 240 480 L 220 480 z "
     style="fill:#868686" />
  <path
     id="rect3104"
     d="M 920 160 L 920 180 L 920 200 L 920 220 L 920 240 L 920 260 L 920 280 L 920 300 L 920 320 L 920 340 L 920 360 L 920 380 L 920 400 L 920 420 L 920 440 L 920 460 L 920 480 L 920 500 L 920 520 L 920 540 L 920 560 L 920 580 L 920 600 L 920 620 L 920 640 L 920 660 L 920 680 L 920 700 L 920 720 L 920 740 L 920 760 L 920 780 L 920 800 L 900 800 L 880 800 L 860 800 L 840 800 L 820 800 L 800 800 L 780 800 L 760 800 L 740 800 L 720 800 L 700 800 L 680 800 L 660 800 L 640 800 L 620 800 L 600 800 L 580 800 L 560 800 L 540 800 L 520 800 L 500 800 L 480 800 L 460 800 L 440 800 L 420 800 L 400 800 L 380 800 L 360 800 L 340 800 L 320 800 L 300 800 L 280 800 L 260 800 L 240 800 L 220 800 L 200 800 L 180 800 L 160 800 L 140 800 L 120 800 L 100 800 L 80 800 L 60 800 L 40 800 L 20 800 L 0 800 L 0 820 L 20 820 L 40 820 L 60 820 L 80 820 L 100 820 L 120 820 L 140 820 L 160 820 L 180 820 L 200 820 L 220 820 L 240 820 L 260 820 L 280 820 L 300 820 L 320 820 L 340 820 L 360 820 L 380 820 L 400 820 L 420 820 L 440 820 L 460 820 L 480 820 L 500 820 L 520 820 L 540 820 L 560 820 L 580 820 L 600 820 L 620 820 L 640 820 L 660 820 L 680 820 L 700 820 L 720 820 L 740 820 L 760 820 L 780 820 L 800 820 L 820 820 L 840 820 L 860 820 L 880 820 L 900 820 L 920 820 L 940 820 L 940 800 L 940 780 L 940 760 L 940 740 L 940 720 L 940 700 L 940 680 L 940 660 L 940 640 L 940 620 L 940 600 L 940 580 L 940 560 L 940 540 L 940 520 L 940 500 L 940 480 L 940 460 L 940 440 L 940 420 L 940 400 L 940 380 L 940 360 L 940 340 L 940 320 L 940 300 L 940 280 L 940 260 L 940 240 L 940 220 L 940 200 L 940 180 L 940 160 L 920 160 z M 180 320 L 180 340 L 200 340 L 200 320 L 180 320 z M 180 340 L 160 340 L 160 360 L 160 380 L 180 380 L 180 360 L 180 340 z M 240 480 L 240 500 L 260 500 L 260 520 L 280 520 L 280 500 L 300 500 L 300 480 L 280 480 L 260 480 L 240 480 z M 280 520 L 280 540 L 280 560 L 280 580 L 300 580 L 300 560 L 320 560 L 340 560 L 340 540 L 320 540 L 300 540 L 300 520 L 280 520 z M 340 560 L 340 580 L 360 580 L 360 560 L 340 560 z M 360 580 L 360 600 L 380 600 L 380 580 L 360 580 z M 280 580 L 260 580 L 260 600 L 280 600 L 280 580 z M 260 580 L 260 560 L 240 560 L 220 560 L 220 580 L 240 580 L 260 580 z M 220 560 L 220 540 L 200 540 L 200 560 L 220 560 z M 200 540 L 200 520 L 180 520 L 180 540 L 200 540 z M 180 520 L 180 500 L 160 500 L 140 500 L 120 500 L 120 520 L 140 520 L 160 520 L 180 520 z M 120 520 L 100 520 L 100 540 L 120 540 L 120 520 z M 100 540 L 80 540 L 80 560 L 100 560 L 100 540 z M 80 560 L 60 560 L 60 580 L 60 600 L 80 600 L 80 580 L 80 560 z "
     style="fill:#222222" />
</svg>
