<?xml version="1.0" encoding="UTF-8" standalone="no"?>
<svg
   xmlns:dc="http://purl.org/dc/elements/1.1/"
   xmlns:cc="http://creativecommons.org/ns#"
   xmlns:rdf="http://www.w3.org/1999/02/22-rdf-syntax-ns#"
   xmlns:svg="http://www.w3.org/2000/svg"
   xmlns="http://www.w3.org/2000/svg"
   id="svg3566"
   width="960px"
   version="1.1"
   height="960px">
  <metadata
     id="metadata3570">
    <rdf:RDF>
      <cc:Work
         rdf:about="">
        <dc:format>image/svg+xml</dc:format>
        <dc:type
           rdf:resource="http://purl.org/dc/dcmitype/StillImage" />
      </cc:Work>
    </rdf:RDF>
  </metadata>
  <defs
     id="defs2" />
  <path
     style="fill:#f8fc00"
     d="M 660 380 L 660 400 L 680 400 L 680 380 L 660 380 z M 680 400 L 680 420 L 700 420 L 700 400 L 680 400 z M 680 420 L 660 420 L 660 440 L 680 440 L 680 420 z M 680 440 L 680 460 L 700 460 L 700 440 L 680 440 z M 680 460 L 660 460 L 660 480 L 680 480 L 680 460 z M 660 480 L 640 480 L 640 500 L 660 500 L 660 480 z M 640 500 L 620 500 L 620 520 L 640 520 L 640 500 z M 620 500 L 620 480 L 600 480 L 600 500 L 620 500 z M 600 480 L 600 460 L 580 460 L 580 480 L 600 480 z M 600 460 L 620 460 L 620 440 L 600 440 L 600 460 z M 620 440 L 640 440 L 640 420 L 620 420 L 620 440 z M 640 420 L 660 420 L 660 400 L 640 400 L 640 420 z M 640 440 L 640 460 L 660 460 L 660 440 L 640 440 z M 640 460 L 620 460 L 620 480 L 640 480 L 640 460 z "
     id="rect1890" />
  <path
     style="fill:#f80000"
     d="M 140 500 L 140 520 L 140 540 L 160 540 L 180 540 L 180 520 L 160 520 L 160 500 L 140 500 z "
     id="rect1924" />
  <path
     style="fill:#f8fcf8"
     d="M 200 20 L 200 40 L 200 60 L 200 80 L 200 100 L 200 120 L 200 140 L 200 160 L 200 180 L 200 200 L 200 220 L 200 240 L 200 260 L 200 280 L 200 300 L 200 320 L 200 340 L 200 360 L 220 360 L 240 360 L 260 360 L 280 360 L 300 360 L 320 360 L 340 360 L 360 360 L 380 360 L 400 360 L 400 380 L 420 380 L 440 380 L 440 400 L 440 420 L 460 420 L 460 400 L 480 400 L 480 380 L 500 380 L 520 380 L 520 360 L 540 360 L 540 380 L 540 400 L 540 420 L 540 440 L 560 440 L 560 420 L 580 420 L 580 400 L 600 400 L 600 380 L 620 380 L 640 380 L 640 360 L 660 360 L 680 360 L 680 340 L 700 340 L 700 320 L 720 320 L 720 340 L 720 360 L 720 380 L 720 400 L 740 400 L 740 380 L 760 380 L 760 360 L 780 360 L 780 380 L 780 400 L 780 420 L 780 440 L 780 460 L 780 480 L 780 500 L 780 520 L 780 540 L 780 560 L 780 580 L 780 600 L 780 620 L 780 640 L 780 660 L 760 660 L 760 640 L 740 640 L 720 640 L 720 620 L 700 620 L 680 620 L 680 600 L 660 600 L 640 600 L 640 580 L 620 580 L 600 580 L 600 560 L 580 560 L 580 580 L 580 600 L 560 600 L 560 580 L 540 580 L 540 560 L 520 560 L 520 540 L 500 540 L 500 560 L 500 580 L 500 600 L 500 620 L 500 640 L 480 640 L 460 640 L 440 640 L 420 640 L 400 640 L 380 640 L 360 640 L 340 640 L 320 640 L 300 640 L 280 640 L 260 640 L 240 640 L 220 640 L 200 640 L 200 660 L 200 680 L 200 700 L 200 720 L 200 740 L 200 760 L 200 780 L 200 800 L 200 820 L 200 840 L 200 860 L 200 880 L 200 900 L 200 920 L 220 920 L 240 920 L 260 920 L 280 920 L 300 920 L 320 920 L 340 920 L 360 920 L 380 920 L 400 920 L 420 920 L 440 920 L 460 920 L 480 920 L 500 920 L 520 920 L 540 920 L 560 920 L 580 920 L 600 920 L 620 920 L 640 920 L 660 920 L 680 920 L 700 920 L 720 920 L 740 920 L 760 920 L 780 920 L 800 920 L 820 920 L 840 920 L 860 920 L 880 920 L 880 900 L 880 880 L 880 860 L 880 840 L 880 820 L 880 800 L 880 780 L 880 760 L 880 740 L 880 720 L 880 700 L 880 680 L 880 660 L 880 640 L 880 620 L 880 600 L 880 580 L 880 560 L 880 540 L 880 520 L 880 500 L 880 480 L 880 460 L 880 440 L 880 420 L 880 400 L 880 380 L 880 360 L 880 340 L 880 320 L 880 300 L 880 280 L 880 260 L 880 240 L 880 220 L 880 200 L 860 200 L 840 200 L 820 200 L 800 200 L 780 200 L 760 200 L 740 200 L 720 200 L 720 180 L 720 160 L 720 140 L 720 120 L 720 100 L 720 80 L 720 60 L 720 40 L 720 20 L 700 20 L 680 20 L 660 20 L 640 20 L 620 20 L 600 20 L 580 20 L 560 20 L 540 20 L 520 20 L 500 20 L 480 20 L 460 20 L 440 20 L 420 20 L 400 20 L 380 20 L 360 20 L 340 20 L 320 20 L 300 20 L 280 20 L 260 20 L 240 20 L 220 20 L 200 20 z M 680 360 L 680 380 L 700 380 L 700 360 L 680 360 z M 640 380 L 640 400 L 660 400 L 660 380 L 640 380 z M 640 400 L 620 400 L 620 420 L 640 420 L 640 400 z M 620 420 L 600 420 L 600 440 L 620 440 L 620 420 z M 600 440 L 580 440 L 580 460 L 600 460 L 600 440 z M 740 120 L 740 140 L 740 160 L 740 180 L 760 180 L 780 180 L 800 180 L 800 160 L 780 160 L 780 140 L 760 140 L 760 120 L 740 120 z M 80 380 L 80 400 L 80 420 L 80 440 L 100 440 L 100 420 L 120 420 L 120 400 L 100 400 L 100 380 L 80 380 z M 140 380 L 140 400 L 140 420 L 160 420 L 180 420 L 200 420 L 220 420 L 240 420 L 260 420 L 260 400 L 280 400 L 280 380 L 260 380 L 240 380 L 220 380 L 200 380 L 180 380 L 160 380 L 140 380 z M 480 420 L 480 440 L 480 460 L 500 460 L 500 440 L 500 420 L 480 420 z "
     id="rect3412" />
  <path
     style="fill:#808080"
     d="M 180 0 L 180 20 L 180 40 L 180 60 L 180 80 L 180 100 L 180 120 L 180 140 L 180 160 L 180 180 L 180 200 L 180 220 L 180 240 L 180 260 L 180 280 L 180 300 L 180 320 L 180 340 L 180 360 L 160 360 L 140 360 L 140 380 L 160 380 L 180 380 L 200 380 L 220 380 L 240 380 L 260 380 L 280 380 L 300 380 L 320 380 L 320 400 L 320 420 L 320 440 L 340 440 L 340 420 L 340 400 L 340 380 L 360 380 L 380 380 L 400 380 L 400 360 L 380 360 L 360 360 L 340 360 L 320 360 L 300 360 L 280 360 L 260 360 L 240 360 L 220 360 L 200 360 L 200 340 L 200 320 L 200 300 L 200 280 L 200 260 L 200 240 L 200 220 L 200 200 L 200 180 L 200 160 L 200 140 L 200 120 L 200 100 L 200 80 L 200 60 L 200 40 L 200 20 L 220 20 L 240 20 L 260 20 L 280 20 L 300 20 L 320 20 L 340 20 L 360 20 L 380 20 L 400 20 L 420 20 L 440 20 L 460 20 L 480 20 L 500 20 L 520 20 L 540 20 L 560 20 L 580 20 L 600 20 L 620 20 L 640 20 L 660 20 L 680 20 L 700 20 L 720 20 L 720 40 L 720 60 L 720 80 L 720 100 L 720 120 L 720 140 L 720 160 L 720 180 L 720 200 L 740 200 L 740 180 L 740 160 L 740 140 L 740 120 L 740 100 L 740 80 L 760 80 L 760 100 L 780 100 L 780 120 L 800 120 L 800 140 L 820 140 L 820 160 L 840 160 L 840 180 L 860 180 L 880 180 L 880 160 L 860 160 L 860 140 L 840 140 L 840 120 L 820 120 L 820 100 L 800 100 L 800 80 L 780 80 L 780 60 L 760 60 L 760 40 L 740 40 L 740 20 L 740 0 L 720 0 L 700 0 L 680 0 L 660 0 L 640 0 L 620 0 L 600 0 L 580 0 L 560 0 L 540 0 L 520 0 L 500 0 L 480 0 L 460 0 L 440 0 L 420 0 L 400 0 L 380 0 L 360 0 L 340 0 L 320 0 L 300 0 L 280 0 L 260 0 L 240 0 L 220 0 L 200 0 L 180 0 z M 400 380 L 400 400 L 400 420 L 400 440 L 400 460 L 400 480 L 400 500 L 400 520 L 400 540 L 380 540 L 360 540 L 340 540 L 320 540 L 300 540 L 280 540 L 260 540 L 240 540 L 220 540 L 200 540 L 180 540 L 160 540 L 140 540 L 140 520 L 140 500 L 140 480 L 140 460 L 120 460 L 120 480 L 120 500 L 120 520 L 120 540 L 120 560 L 140 560 L 160 560 L 180 560 L 200 560 L 220 560 L 240 560 L 260 560 L 280 560 L 300 560 L 320 560 L 340 560 L 360 560 L 380 560 L 400 560 L 420 560 L 420 540 L 420 520 L 420 500 L 420 480 L 420 460 L 420 440 L 420 420 L 420 400 L 420 380 L 400 380 z M 320 440 L 300 440 L 300 460 L 320 460 L 320 440 z M 300 460 L 280 460 L 280 480 L 300 480 L 300 460 z M 280 460 L 280 440 L 260 440 L 240 440 L 220 440 L 200 440 L 180 440 L 160 440 L 160 460 L 180 460 L 200 460 L 220 460 L 240 460 L 260 460 L 280 460 z M 160 440 L 160 420 L 140 420 L 140 440 L 160 440 z M 280 440 L 300 440 L 300 420 L 280 420 L 280 440 z M 60 320 L 60 340 L 60 360 L 60 380 L 60 400 L 60 420 L 60 440 L 60 460 L 80 460 L 80 440 L 80 420 L 80 400 L 80 380 L 100 380 L 100 400 L 120 400 L 120 380 L 120 360 L 100 360 L 100 340 L 80 340 L 80 320 L 60 320 z M 700 340 L 700 360 L 700 380 L 700 400 L 700 420 L 700 440 L 700 460 L 700 480 L 700 500 L 700 520 L 700 540 L 700 560 L 680 560 L 660 560 L 660 580 L 680 580 L 700 580 L 700 600 L 720 600 L 720 580 L 720 560 L 720 540 L 720 520 L 720 500 L 720 480 L 720 460 L 720 440 L 720 420 L 720 400 L 720 380 L 720 360 L 720 340 L 700 340 z M 660 560 L 660 540 L 640 540 L 620 540 L 620 560 L 640 560 L 660 560 z M 620 540 L 620 520 L 600 520 L 600 540 L 620 540 z M 600 520 L 600 500 L 580 500 L 580 520 L 600 520 z M 580 500 L 580 480 L 580 460 L 580 440 L 560 440 L 540 440 L 540 460 L 540 480 L 560 480 L 560 500 L 580 500 z M 580 440 L 600 440 L 600 420 L 580 420 L 580 440 z M 600 420 L 620 420 L 620 400 L 600 400 L 600 420 z M 620 400 L 640 400 L 640 380 L 620 380 L 620 400 z M 520 360 L 520 380 L 540 380 L 540 360 L 520 360 z M 520 380 L 500 380 L 480 380 L 480 400 L 500 400 L 500 420 L 500 440 L 500 460 L 480 460 L 480 480 L 500 480 L 500 500 L 520 500 L 520 480 L 520 460 L 520 440 L 520 420 L 520 400 L 520 380 z M 480 400 L 460 400 L 460 420 L 480 420 L 480 400 z M 460 420 L 440 420 L 440 440 L 460 440 L 460 420 z M 660 360 L 660 380 L 680 380 L 680 360 L 660 360 z M 440 460 L 440 480 L 440 500 L 440 520 L 440 540 L 440 560 L 440 580 L 460 580 L 460 560 L 460 540 L 460 520 L 460 500 L 460 480 L 460 460 L 440 460 z M 180 580 L 180 600 L 180 620 L 180 640 L 180 660 L 180 680 L 180 700 L 180 720 L 180 740 L 180 760 L 180 780 L 180 800 L 180 820 L 180 840 L 180 860 L 180 880 L 180 900 L 180 920 L 180 940 L 200 940 L 200 920 L 200 900 L 200 880 L 200 860 L 200 840 L 200 820 L 200 800 L 200 780 L 200 760 L 200 740 L 200 720 L 200 700 L 200 680 L 200 660 L 200 640 L 200 620 L 200 600 L 200 580 L 180 580 z "
     id="rect3418" />
  <path
     style="fill:#c0c0c0"
     d="M 740 80 L 740 100 L 740 120 L 760 120 L 760 140 L 780 140 L 780 160 L 800 160 L 800 180 L 820 180 L 840 180 L 840 160 L 820 160 L 820 140 L 800 140 L 800 120 L 780 120 L 780 100 L 760 100 L 760 80 L 740 80 z M 880 200 L 880 220 L 880 240 L 880 260 L 880 280 L 880 300 L 880 320 L 880 340 L 880 360 L 880 380 L 880 400 L 880 420 L 880 440 L 880 460 L 880 480 L 880 500 L 880 520 L 880 540 L 880 560 L 880 580 L 880 600 L 880 620 L 880 640 L 880 660 L 880 680 L 880 700 L 880 720 L 880 740 L 880 760 L 880 780 L 880 800 L 880 820 L 880 840 L 880 860 L 880 880 L 880 900 L 880 920 L 860 920 L 840 920 L 820 920 L 800 920 L 780 920 L 760 920 L 740 920 L 720 920 L 700 920 L 680 920 L 660 920 L 640 920 L 620 920 L 600 920 L 580 920 L 560 920 L 540 920 L 520 920 L 500 920 L 480 920 L 460 920 L 440 920 L 420 920 L 400 920 L 380 920 L 360 920 L 340 920 L 320 920 L 300 920 L 280 920 L 260 920 L 240 920 L 220 920 L 200 920 L 200 940 L 220 940 L 240 940 L 260 940 L 280 940 L 300 940 L 320 940 L 340 940 L 360 940 L 380 940 L 400 940 L 420 940 L 440 940 L 460 940 L 480 940 L 500 940 L 520 940 L 540 940 L 560 940 L 580 940 L 600 940 L 620 940 L 640 940 L 660 940 L 680 940 L 700 940 L 720 940 L 740 940 L 760 940 L 780 940 L 800 940 L 820 940 L 840 940 L 860 940 L 880 940 L 900 940 L 900 920 L 900 900 L 900 880 L 900 860 L 900 840 L 900 820 L 900 800 L 900 780 L 900 760 L 900 740 L 900 720 L 900 700 L 900 680 L 900 660 L 900 640 L 900 620 L 900 600 L 900 580 L 900 560 L 900 540 L 900 520 L 900 500 L 900 480 L 900 460 L 900 440 L 900 420 L 900 400 L 900 380 L 900 360 L 900 340 L 900 320 L 900 300 L 900 280 L 900 260 L 900 240 L 900 220 L 900 200 L 880 200 z M 700 320 L 700 340 L 720 340 L 720 320 L 700 320 z M 700 340 L 680 340 L 680 360 L 700 360 L 700 340 z M 640 360 L 640 380 L 660 380 L 660 360 L 640 360 z M 760 360 L 760 380 L 740 380 L 740 400 L 720 400 L 720 420 L 720 440 L 720 460 L 720 480 L 720 500 L 720 520 L 720 540 L 720 560 L 720 580 L 720 600 L 700 600 L 700 580 L 680 580 L 660 580 L 660 560 L 640 560 L 620 560 L 620 540 L 600 540 L 600 520 L 580 520 L 580 500 L 560 500 L 560 480 L 540 480 L 540 500 L 540 520 L 540 540 L 520 540 L 520 560 L 540 560 L 540 580 L 560 580 L 560 600 L 580 600 L 580 580 L 580 560 L 600 560 L 600 580 L 620 580 L 640 580 L 640 600 L 660 600 L 680 600 L 680 620 L 700 620 L 720 620 L 720 640 L 740 640 L 760 640 L 760 660 L 780 660 L 780 640 L 780 620 L 780 600 L 780 580 L 780 560 L 780 540 L 780 520 L 780 500 L 780 480 L 780 460 L 780 440 L 780 420 L 780 400 L 780 380 L 780 360 L 760 360 z M 520 540 L 520 520 L 500 520 L 500 500 L 480 500 L 480 480 L 460 480 L 460 500 L 460 520 L 460 540 L 460 560 L 460 580 L 440 580 L 420 580 L 400 580 L 380 580 L 360 580 L 340 580 L 320 580 L 300 580 L 280 580 L 260 580 L 240 580 L 220 580 L 200 580 L 200 600 L 200 620 L 200 640 L 220 640 L 240 640 L 260 640 L 280 640 L 300 640 L 320 640 L 340 640 L 360 640 L 380 640 L 400 640 L 420 640 L 440 640 L 460 640 L 480 640 L 500 640 L 500 620 L 500 600 L 500 580 L 500 560 L 500 540 L 520 540 z M 580 500 L 600 500 L 600 480 L 580 480 L 580 500 z M 600 480 L 620 480 L 620 460 L 600 460 L 600 480 z M 620 460 L 640 460 L 640 440 L 620 440 L 620 460 z M 640 440 L 660 440 L 660 420 L 640 420 L 640 440 z M 660 420 L 680 420 L 680 400 L 660 400 L 660 420 z M 680 400 L 700 400 L 700 380 L 680 380 L 680 400 z M 680 420 L 680 440 L 700 440 L 700 420 L 680 420 z M 680 440 L 660 440 L 660 460 L 680 460 L 680 440 z M 680 460 L 680 480 L 660 480 L 660 500 L 640 500 L 640 520 L 620 520 L 620 540 L 640 540 L 660 540 L 660 560 L 680 560 L 700 560 L 700 540 L 700 520 L 700 500 L 700 480 L 700 460 L 680 460 z M 620 520 L 620 500 L 600 500 L 600 520 L 620 520 z M 620 500 L 640 500 L 640 480 L 620 480 L 620 500 z M 640 480 L 660 480 L 660 460 L 640 460 L 640 480 z M 280 380 L 280 400 L 260 400 L 260 420 L 240 420 L 220 420 L 200 420 L 180 420 L 160 420 L 160 440 L 180 440 L 200 440 L 220 440 L 240 440 L 260 440 L 280 440 L 280 420 L 300 420 L 300 400 L 300 380 L 280 380 z M 340 380 L 340 400 L 340 420 L 340 440 L 320 440 L 320 460 L 300 460 L 300 480 L 280 480 L 260 480 L 240 480 L 220 480 L 200 480 L 180 480 L 160 480 L 140 480 L 140 500 L 160 500 L 160 520 L 180 520 L 180 540 L 200 540 L 220 540 L 240 540 L 260 540 L 280 540 L 300 540 L 300 520 L 300 500 L 320 500 L 320 520 L 320 540 L 340 540 L 360 540 L 360 520 L 380 520 L 380 500 L 400 500 L 400 480 L 400 460 L 400 440 L 400 420 L 400 400 L 400 380 L 380 380 L 360 380 L 340 380 z M 600 380 L 600 400 L 620 400 L 620 380 L 600 380 z M 600 400 L 580 400 L 580 420 L 600 420 L 600 400 z M 580 420 L 560 420 L 560 440 L 580 440 L 580 420 z M 480 400 L 480 420 L 500 420 L 500 400 L 480 400 z M 480 420 L 460 420 L 460 440 L 460 460 L 480 460 L 480 440 L 480 420 z "
     id="rect3488" />
  <path
     style="fill:#000000"
     d="M 740 20 L 740 40 L 760 40 L 760 20 L 740 20 z M 760 40 L 760 60 L 780 60 L 780 40 L 760 40 z M 780 60 L 780 80 L 800 80 L 800 60 L 780 60 z M 800 80 L 800 100 L 820 100 L 820 80 L 800 80 z M 820 100 L 820 120 L 840 120 L 840 100 L 820 100 z M 840 120 L 840 140 L 860 140 L 860 120 L 840 120 z M 860 140 L 860 160 L 880 160 L 880 140 L 860 140 z M 880 160 L 880 180 L 860 180 L 840 180 L 820 180 L 800 180 L 780 180 L 760 180 L 740 180 L 740 200 L 760 200 L 780 200 L 800 200 L 820 200 L 840 200 L 860 200 L 880 200 L 900 200 L 900 220 L 900 240 L 900 260 L 900 280 L 900 300 L 900 320 L 900 340 L 900 360 L 900 380 L 900 400 L 900 420 L 900 440 L 900 460 L 900 480 L 900 500 L 900 520 L 900 540 L 900 560 L 900 580 L 900 600 L 900 620 L 900 640 L 900 660 L 900 680 L 900 700 L 900 720 L 900 740 L 900 760 L 900 780 L 900 800 L 900 820 L 900 840 L 900 860 L 900 880 L 900 900 L 900 920 L 900 940 L 880 940 L 860 940 L 840 940 L 820 940 L 800 940 L 780 940 L 760 940 L 740 940 L 720 940 L 700 940 L 680 940 L 660 940 L 640 940 L 620 940 L 600 940 L 580 940 L 560 940 L 540 940 L 520 940 L 500 940 L 480 940 L 460 940 L 440 940 L 420 940 L 400 940 L 380 940 L 360 940 L 340 940 L 320 940 L 300 940 L 280 940 L 260 940 L 240 940 L 220 940 L 200 940 L 180 940 L 180 960 L 200 960 L 220 960 L 240 960 L 260 960 L 280 960 L 300 960 L 320 960 L 340 960 L 360 960 L 380 960 L 400 960 L 420 960 L 440 960 L 460 960 L 480 960 L 500 960 L 520 960 L 540 960 L 560 960 L 580 960 L 600 960 L 620 960 L 640 960 L 660 960 L 680 960 L 700 960 L 720 960 L 740 960 L 760 960 L 780 960 L 800 960 L 820 960 L 840 960 L 860 960 L 880 960 L 900 960 L 920 960 L 920 940 L 920 920 L 920 900 L 920 880 L 920 860 L 920 840 L 920 820 L 920 800 L 920 780 L 920 760 L 920 740 L 920 720 L 920 700 L 920 680 L 920 660 L 920 640 L 920 620 L 920 600 L 920 580 L 920 560 L 920 540 L 920 520 L 920 500 L 920 480 L 920 460 L 920 440 L 920 420 L 920 400 L 920 380 L 920 360 L 920 340 L 920 320 L 920 300 L 920 280 L 920 260 L 920 240 L 920 220 L 920 200 L 920 180 L 900 180 L 900 160 L 880 160 z M 120 380 L 120 400 L 120 420 L 100 420 L 100 440 L 120 440 L 120 460 L 140 460 L 140 480 L 160 480 L 180 480 L 200 480 L 220 480 L 240 480 L 260 480 L 280 480 L 280 460 L 260 460 L 240 460 L 220 460 L 200 460 L 180 460 L 160 460 L 160 440 L 140 440 L 140 420 L 140 400 L 140 380 L 120 380 z M 280 460 L 300 460 L 300 440 L 280 440 L 280 460 z M 300 440 L 320 440 L 320 420 L 320 400 L 320 380 L 300 380 L 300 400 L 300 420 L 300 440 z M 100 440 L 80 440 L 80 460 L 100 460 L 100 440 z M 80 460 L 60 460 L 60 480 L 80 480 L 80 460 z M 420 380 L 420 400 L 420 420 L 420 440 L 420 460 L 420 480 L 420 500 L 420 520 L 420 540 L 420 560 L 400 560 L 380 560 L 360 560 L 340 560 L 320 560 L 300 560 L 280 560 L 260 560 L 240 560 L 220 560 L 200 560 L 180 560 L 160 560 L 140 560 L 120 560 L 120 580 L 140 580 L 160 580 L 180 580 L 200 580 L 220 580 L 240 580 L 260 580 L 280 580 L 300 580 L 320 580 L 340 580 L 360 580 L 380 580 L 400 580 L 420 580 L 440 580 L 440 560 L 440 540 L 440 520 L 440 500 L 440 480 L 440 460 L 460 460 L 460 440 L 440 440 L 440 420 L 440 400 L 440 380 L 420 380 z M 460 460 L 460 480 L 480 480 L 480 460 L 460 460 z M 480 480 L 480 500 L 500 500 L 500 480 L 480 480 z M 500 500 L 500 520 L 520 520 L 520 540 L 540 540 L 540 520 L 540 500 L 540 480 L 540 460 L 540 440 L 540 420 L 540 400 L 540 380 L 520 380 L 520 400 L 520 420 L 520 440 L 520 460 L 520 480 L 520 500 L 500 500 z M 300 500 L 300 520 L 300 540 L 320 540 L 320 520 L 320 500 L 300 500 z M 380 500 L 380 520 L 360 520 L 360 540 L 380 540 L 400 540 L 400 520 L 400 500 L 380 500 z "
     id="rect3564" />
</svg>
