<?xml version="1.0" encoding="UTF-8" standalone="no"?>
<svg
   xmlns:dc="http://purl.org/dc/elements/1.1/"
   xmlns:cc="http://creativecommons.org/ns#"
   xmlns:rdf="http://www.w3.org/1999/02/22-rdf-syntax-ns#"
   xmlns:svg="http://www.w3.org/2000/svg"
   xmlns="http://www.w3.org/2000/svg"
   id="svg3960"
   width="960px"
   version="1.1"
   height="960px">
  <metadata
     id="metadata3964">
    <rdf:RDF>
      <cc:Work
         rdf:about="">
        <dc:format>image/svg+xml</dc:format>
        <dc:type
           rdf:resource="http://purl.org/dc/dcmitype/StillImage" />
      </cc:Work>
    </rdf:RDF>
  </metadata>
  <defs
     id="defs2" />
  <path
     style="fill:#ffff99"
     d="M 460 100 L 460 120 L 480 120 L 480 100 L 460 100 z "
     id="rect416" />
  <path
     style="fill:#ffff66"
     d="M 200 60 L 200 80 L 220 80 L 240 80 L 240 60 L 220 60 L 200 60 z M 340 60 L 340 80 L 360 80 L 380 80 L 400 80 L 420 80 L 440 80 L 460 80 L 480 80 L 500 80 L 520 80 L 540 80 L 560 80 L 580 80 L 600 80 L 620 80 L 620 60 L 600 60 L 580 60 L 560 60 L 540 60 L 520 60 L 500 60 L 480 60 L 460 60 L 440 60 L 420 60 L 400 60 L 380 60 L 360 60 L 340 60 z M 680 60 L 680 80 L 700 80 L 720 80 L 740 80 L 760 80 L 780 80 L 800 80 L 820 80 L 840 80 L 860 80 L 860 60 L 840 60 L 820 60 L 800 60 L 780 60 L 760 60 L 740 60 L 720 60 L 700 60 L 680 60 z M 440 120 L 440 140 L 460 140 L 480 140 L 480 120 L 460 120 L 440 120 z "
     id="rect496" />
  <path
     style="fill:#969696"
     d="M 280 20 L 280 40 L 300 40 L 300 20 L 280 20 z M 300 40 L 300 60 L 320 60 L 320 40 L 300 40 z M 320 60 L 320 80 L 340 80 L 340 60 L 320 60 z M 320 80 L 300 80 L 300 100 L 320 100 L 320 80 z M 300 100 L 280 100 L 280 120 L 300 120 L 300 100 z M 280 100 L 280 80 L 260 80 L 260 100 L 280 100 z M 260 80 L 260 60 L 240 60 L 240 80 L 260 80 z M 260 60 L 280 60 L 280 40 L 260 40 L 260 60 z M 640 40 L 640 60 L 660 60 L 660 40 L 640 40 z M 660 60 L 660 80 L 680 80 L 680 60 L 660 60 z M 680 80 L 680 100 L 700 100 L 700 80 L 680 80 z M 680 100 L 660 100 L 660 120 L 680 120 L 680 100 z M 660 120 L 640 120 L 640 140 L 660 140 L 660 120 z M 640 120 L 640 100 L 620 100 L 620 120 L 640 120 z M 620 100 L 620 80 L 600 80 L 600 100 L 620 100 z M 620 80 L 640 80 L 640 60 L 620 60 L 620 80 z "
     id="rect514" />
  <path
     style="fill:#ffcc00"
     d="M 220 80 L 220 100 L 240 100 L 240 80 L 220 80 z M 240 100 L 240 120 L 260 120 L 260 100 L 240 100 z M 260 120 L 260 140 L 280 140 L 280 120 L 260 120 z M 280 140 L 280 160 L 300 160 L 300 140 L 280 140 z M 300 140 L 320 140 L 320 120 L 300 120 L 300 140 z M 320 120 L 340 120 L 340 100 L 320 100 L 320 120 z M 340 100 L 360 100 L 360 80 L 340 80 L 340 100 z M 360 100 L 360 120 L 380 120 L 380 100 L 360 100 z M 380 100 L 400 100 L 400 80 L 380 80 L 380 100 z M 400 100 L 400 120 L 420 120 L 420 100 L 400 100 z M 420 100 L 440 100 L 440 80 L 420 80 L 420 100 z M 400 120 L 380 120 L 380 140 L 400 140 L 400 120 z M 400 140 L 400 160 L 420 160 L 420 140 L 400 140 z M 380 140 L 360 140 L 360 160 L 380 160 L 380 140 z M 360 140 L 360 120 L 340 120 L 340 140 L 360 140 z M 340 140 L 320 140 L 320 160 L 340 160 L 340 140 z M 260 140 L 240 140 L 240 160 L 260 160 L 260 140 z M 240 140 L 240 120 L 220 120 L 220 140 L 240 140 z M 220 140 L 200 140 L 200 160 L 220 160 L 220 140 z M 220 120 L 220 100 L 200 100 L 200 120 L 220 120 z M 500 80 L 500 100 L 520 100 L 520 80 L 500 80 z M 520 100 L 520 120 L 540 120 L 540 100 L 520 100 z M 540 100 L 560 100 L 560 80 L 540 80 L 540 100 z M 560 100 L 560 120 L 580 120 L 580 100 L 560 100 z M 580 100 L 600 100 L 600 80 L 580 80 L 580 100 z M 600 100 L 600 120 L 620 120 L 620 100 L 600 100 z M 620 120 L 620 140 L 640 140 L 640 120 L 620 120 z M 640 140 L 640 160 L 660 160 L 660 140 L 640 140 z M 660 140 L 680 140 L 680 120 L 660 120 L 660 140 z M 680 120 L 700 120 L 700 100 L 680 100 L 680 120 z M 700 100 L 720 100 L 720 80 L 700 80 L 700 100 z M 720 100 L 720 120 L 740 120 L 740 100 L 720 100 z M 740 100 L 760 100 L 760 80 L 740 80 L 740 100 z M 760 100 L 760 120 L 780 120 L 780 100 L 760 100 z M 780 100 L 800 100 L 800 80 L 780 80 L 780 100 z M 800 100 L 800 120 L 820 120 L 820 100 L 800 100 z M 820 100 L 840 100 L 840 80 L 820 80 L 820 100 z M 840 100 L 840 120 L 860 120 L 860 100 L 840 100 z M 840 120 L 820 120 L 820 140 L 840 140 L 840 120 z M 840 140 L 840 160 L 860 160 L 860 140 L 840 140 z M 820 140 L 800 140 L 800 160 L 820 160 L 820 140 z M 800 140 L 800 120 L 780 120 L 780 140 L 800 140 z M 780 140 L 760 140 L 760 160 L 780 160 L 780 140 z M 760 140 L 760 120 L 740 120 L 740 140 L 760 140 z M 740 140 L 720 140 L 720 160 L 740 160 L 740 140 z M 720 140 L 720 120 L 700 120 L 700 140 L 720 140 z M 700 140 L 680 140 L 680 160 L 700 160 L 700 140 z M 620 140 L 600 140 L 600 160 L 620 160 L 620 140 z M 600 140 L 600 120 L 580 120 L 580 140 L 600 140 z M 580 140 L 560 140 L 560 160 L 580 160 L 580 140 z M 560 140 L 560 120 L 540 120 L 540 140 L 560 140 z "
     id="rect618" />
  <path
     style="fill:#999900"
     d="M 220 0 L 220 20 L 240 20 L 260 20 L 280 20 L 300 20 L 320 20 L 340 20 L 360 20 L 380 20 L 400 20 L 420 20 L 440 20 L 460 20 L 480 20 L 500 20 L 520 20 L 540 20 L 560 20 L 580 20 L 600 20 L 620 20 L 640 20 L 660 20 L 680 20 L 700 20 L 720 20 L 740 20 L 760 20 L 780 20 L 800 20 L 820 20 L 840 20 L 860 20 L 880 20 L 900 20 L 900 40 L 880 40 L 880 60 L 860 60 L 860 80 L 860 100 L 860 120 L 860 140 L 860 160 L 880 160 L 880 140 L 900 140 L 900 120 L 920 120 L 920 100 L 940 100 L 940 80 L 940 60 L 940 40 L 940 20 L 940 0 L 920 0 L 900 0 L 880 0 L 860 0 L 840 0 L 820 0 L 800 0 L 780 0 L 760 0 L 740 0 L 720 0 L 700 0 L 680 0 L 660 0 L 640 0 L 620 0 L 600 0 L 580 0 L 560 0 L 540 0 L 520 0 L 500 0 L 480 0 L 460 0 L 440 0 L 420 0 L 400 0 L 380 0 L 360 0 L 340 0 L 320 0 L 300 0 L 280 0 L 260 0 L 240 0 L 220 0 z M 220 20 L 200 20 L 200 40 L 220 40 L 220 20 z M 200 40 L 180 40 L 180 60 L 180 80 L 180 100 L 180 120 L 180 140 L 180 160 L 200 160 L 200 140 L 200 120 L 200 100 L 200 80 L 200 60 L 200 40 z "
     id="rect620" />
  <path
     style="fill:#ff3366"
     d="M 280 60 L 280 80 L 300 80 L 300 60 L 280 60 z M 640 80 L 640 100 L 660 100 L 660 80 L 640 80 z M 80 160 L 80 180 L 100 180 L 100 160 L 80 160 z M 740 240 L 740 260 L 760 260 L 760 240 L 740 240 z M 600 440 L 600 460 L 620 460 L 620 440 L 600 440 z "
     id="rect1896" />
  <path
     style="fill:#4d4d4d"
     d="M 540 220 L 540 240 L 560 240 L 560 220 L 540 220 z M 560 240 L 560 260 L 580 260 L 580 240 L 560 240 z M 580 260 L 580 280 L 600 280 L 600 260 L 580 260 z M 600 280 L 600 300 L 620 300 L 620 280 L 600 280 z M 620 300 L 620 320 L 640 320 L 640 300 L 620 300 z M 640 320 L 640 340 L 660 340 L 660 320 L 640 320 z M 660 340 L 660 360 L 680 360 L 680 340 L 660 340 z M 680 360 L 680 380 L 700 380 L 700 360 L 680 360 z M 700 380 L 700 400 L 720 400 L 720 380 L 700 380 z M 720 400 L 720 420 L 740 420 L 740 400 L 720 400 z M 740 420 L 740 440 L 760 440 L 760 420 L 740 420 z M 760 440 L 760 460 L 780 460 L 780 440 L 760 440 z M 780 460 L 780 480 L 800 480 L 800 460 L 780 460 z "
     id="rect2004" />
  <path
     style="fill:#c0c0c0"
     d="M 80 120 L 80 140 L 100 140 L 100 120 L 80 120 z M 100 140 L 100 160 L 120 160 L 120 140 L 100 140 z M 120 160 L 120 180 L 140 180 L 140 160 L 120 160 z M 120 180 L 100 180 L 100 200 L 120 200 L 120 180 z M 100 200 L 80 200 L 80 220 L 100 220 L 100 200 z M 80 200 L 80 180 L 60 180 L 60 200 L 80 200 z M 60 180 L 60 160 L 40 160 L 40 180 L 60 180 z M 60 160 L 80 160 L 80 140 L 60 140 L 60 160 z M 740 200 L 740 220 L 760 220 L 760 200 L 740 200 z M 760 220 L 760 240 L 780 240 L 780 220 L 760 220 z M 780 240 L 780 260 L 800 260 L 800 240 L 780 240 z M 780 260 L 760 260 L 760 280 L 780 280 L 780 260 z M 760 280 L 740 280 L 740 300 L 760 300 L 760 280 z M 740 280 L 740 260 L 720 260 L 720 280 L 740 280 z M 720 260 L 720 240 L 700 240 L 700 260 L 720 260 z M 720 240 L 740 240 L 740 220 L 720 220 L 720 240 z M 600 400 L 600 420 L 620 420 L 620 400 L 600 400 z M 620 420 L 620 440 L 640 440 L 640 420 L 620 420 z M 640 440 L 640 460 L 660 460 L 660 440 L 640 440 z M 640 460 L 620 460 L 620 480 L 640 480 L 640 460 z M 620 480 L 600 480 L 600 500 L 620 500 L 620 480 z M 600 480 L 600 460 L 580 460 L 580 480 L 600 480 z M 580 460 L 580 440 L 560 440 L 560 460 L 580 460 z M 580 440 L 600 440 L 600 420 L 580 420 L 580 440 z "
     id="rect2076" />
  <path
     style="fill:#ffff00"
     d="M 220 20 L 220 40 L 200 40 L 200 60 L 220 60 L 240 60 L 260 60 L 260 40 L 280 40 L 280 20 L 260 20 L 240 20 L 220 20 z M 280 40 L 280 60 L 300 60 L 300 40 L 280 40 z M 300 40 L 320 40 L 320 60 L 340 60 L 360 60 L 380 60 L 400 60 L 420 60 L 440 60 L 460 60 L 480 60 L 500 60 L 520 60 L 540 60 L 560 60 L 580 60 L 600 60 L 620 60 L 640 60 L 640 40 L 660 40 L 660 60 L 680 60 L 700 60 L 720 60 L 740 60 L 760 60 L 780 60 L 800 60 L 820 60 L 840 60 L 860 60 L 880 60 L 880 40 L 900 40 L 900 20 L 880 20 L 860 20 L 840 20 L 820 20 L 800 20 L 780 20 L 760 20 L 740 20 L 720 20 L 700 20 L 680 20 L 660 20 L 640 20 L 620 20 L 600 20 L 580 20 L 560 20 L 540 20 L 520 20 L 500 20 L 480 20 L 460 20 L 440 20 L 420 20 L 400 20 L 380 20 L 360 20 L 340 20 L 320 20 L 300 20 L 300 40 z M 660 60 L 640 60 L 640 80 L 660 80 L 660 60 z M 660 80 L 660 100 L 680 100 L 680 80 L 660 80 z M 660 100 L 640 100 L 640 120 L 660 120 L 660 100 z M 640 100 L 640 80 L 620 80 L 620 100 L 640 100 z M 320 60 L 300 60 L 300 80 L 320 80 L 320 60 z M 300 80 L 280 80 L 280 100 L 300 100 L 300 80 z M 280 80 L 280 60 L 260 60 L 260 80 L 280 80 z M 480 120 L 480 140 L 460 140 L 460 160 L 480 160 L 480 180 L 500 180 L 500 200 L 520 200 L 540 200 L 540 180 L 540 160 L 520 160 L 520 140 L 500 140 L 500 120 L 480 120 z M 80 140 L 80 160 L 100 160 L 100 140 L 80 140 z M 100 160 L 100 180 L 120 180 L 120 160 L 100 160 z M 100 180 L 80 180 L 80 200 L 100 200 L 100 180 z M 80 180 L 80 160 L 60 160 L 60 180 L 80 180 z M 740 220 L 740 240 L 760 240 L 760 220 L 740 220 z M 760 240 L 760 260 L 780 260 L 780 240 L 760 240 z M 760 260 L 740 260 L 740 280 L 760 280 L 760 260 z M 740 260 L 740 240 L 720 240 L 720 260 L 740 260 z M 600 420 L 600 440 L 620 440 L 620 420 L 600 420 z M 620 440 L 620 460 L 640 460 L 640 440 L 620 440 z M 620 460 L 600 460 L 600 480 L 620 480 L 620 460 z M 600 460 L 600 440 L 580 440 L 580 460 L 600 460 z M 820 480 L 820 500 L 820 520 L 840 520 L 860 520 L 860 500 L 860 480 L 840 480 L 820 480 z "
     id="rect2190" />
  <path
     style="fill:#00ffff"
     d="M 60 300 L 60 320 L 80 320 L 80 340 L 80 360 L 80 380 L 80 400 L 80 420 L 80 440 L 80 460 L 80 480 L 80 500 L 80 520 L 80 540 L 80 560 L 80 580 L 80 600 L 80 620 L 80 640 L 100 640 L 120 640 L 140 640 L 140 620 L 160 620 L 160 600 L 160 580 L 180 580 L 180 560 L 180 540 L 160 540 L 140 540 L 140 560 L 120 560 L 120 540 L 120 520 L 120 500 L 120 480 L 120 460 L 120 440 L 120 420 L 120 400 L 120 380 L 120 360 L 120 340 L 120 320 L 140 320 L 160 320 L 180 320 L 180 300 L 160 300 L 140 300 L 120 300 L 100 300 L 80 300 L 60 300 z M 180 540 L 200 540 L 200 520 L 200 500 L 180 500 L 180 520 L 180 540 z M 200 500 L 220 500 L 220 480 L 220 460 L 200 460 L 200 480 L 200 500 z M 220 460 L 240 460 L 240 440 L 260 440 L 280 440 L 280 460 L 280 480 L 280 500 L 280 520 L 280 540 L 280 560 L 280 580 L 280 600 L 280 620 L 280 640 L 300 640 L 320 640 L 340 640 L 340 620 L 360 620 L 360 600 L 360 580 L 380 580 L 380 560 L 380 540 L 400 540 L 400 520 L 400 500 L 380 500 L 380 520 L 360 520 L 360 540 L 340 540 L 340 560 L 320 560 L 320 540 L 320 520 L 320 500 L 320 480 L 320 460 L 320 440 L 320 420 L 320 400 L 320 380 L 320 360 L 320 340 L 320 320 L 320 300 L 300 300 L 280 300 L 280 320 L 280 340 L 260 340 L 260 360 L 260 380 L 240 380 L 240 400 L 240 420 L 220 420 L 220 440 L 220 460 z M 400 500 L 420 500 L 420 480 L 420 460 L 400 460 L 400 480 L 400 500 z M 420 460 L 440 460 L 440 440 L 440 420 L 420 420 L 420 440 L 420 460 z M 440 420 L 460 420 L 460 400 L 460 380 L 440 380 L 440 400 L 440 420 z M 460 380 L 480 380 L 480 360 L 480 340 L 500 340 L 500 320 L 520 320 L 540 320 L 540 300 L 520 300 L 500 300 L 480 300 L 460 300 L 440 300 L 420 300 L 420 320 L 440 320 L 460 320 L 460 340 L 460 360 L 460 380 z "
     id="rect2678" />
  <path
     style="fill:#0099cc"
     d="M 320 300 L 320 320 L 320 340 L 320 360 L 320 380 L 320 400 L 320 420 L 320 440 L 320 460 L 320 480 L 320 500 L 320 520 L 320 540 L 320 560 L 340 560 L 340 540 L 340 520 L 340 500 L 340 480 L 340 460 L 340 440 L 340 420 L 340 400 L 340 380 L 340 360 L 340 340 L 340 320 L 340 300 L 320 300 z M 120 320 L 120 340 L 120 360 L 120 380 L 120 400 L 120 420 L 120 440 L 120 460 L 120 480 L 120 500 L 120 520 L 120 540 L 120 560 L 140 560 L 140 540 L 140 520 L 140 500 L 140 480 L 140 460 L 140 440 L 140 420 L 140 400 L 140 380 L 140 360 L 140 340 L 140 320 L 120 320 z M 260 320 L 260 340 L 280 340 L 280 320 L 260 320 z M 480 340 L 480 360 L 500 360 L 500 340 L 480 340 z M 240 360 L 240 380 L 260 380 L 260 360 L 240 360 z M 440 360 L 440 380 L 460 380 L 460 360 L 440 360 z M 460 380 L 460 400 L 480 400 L 480 380 L 460 380 z M 220 400 L 220 420 L 240 420 L 240 400 L 220 400 z M 420 400 L 420 420 L 440 420 L 440 400 L 420 400 z M 440 420 L 440 440 L 460 440 L 460 420 L 440 420 z M 200 440 L 200 460 L 220 460 L 220 440 L 200 440 z M 220 460 L 220 480 L 240 480 L 240 460 L 220 460 z M 260 440 L 260 460 L 260 480 L 260 500 L 260 520 L 260 540 L 260 560 L 260 580 L 260 600 L 260 620 L 260 640 L 280 640 L 280 620 L 280 600 L 280 580 L 280 560 L 280 540 L 280 520 L 280 500 L 280 480 L 280 460 L 280 440 L 260 440 z M 400 440 L 400 460 L 420 460 L 420 440 L 400 440 z M 420 460 L 420 480 L 440 480 L 440 460 L 420 460 z M 180 480 L 180 500 L 200 500 L 200 480 L 180 480 z M 200 500 L 200 520 L 220 520 L 220 500 L 200 500 z M 380 480 L 380 500 L 400 500 L 400 480 L 380 480 z M 400 500 L 400 520 L 420 520 L 420 500 L 400 500 z M 160 520 L 160 540 L 180 540 L 180 520 L 160 520 z M 180 540 L 180 560 L 200 560 L 200 540 L 180 540 z M 380 540 L 380 560 L 400 560 L 400 540 L 380 540 z M 160 580 L 160 600 L 180 600 L 180 580 L 160 580 z M 360 580 L 360 600 L 380 600 L 380 580 L 360 580 z M 140 620 L 140 640 L 160 640 L 160 620 L 140 620 z M 340 620 L 340 640 L 360 640 L 360 620 L 340 620 z "
     id="rect2680" />
  <path
     style="fill:#999999"
     d="M 180 660 L 180 680 L 200 680 L 200 660 L 180 660 z M 180 680 L 160 680 L 160 700 L 180 700 L 180 680 z M 840 660 L 840 680 L 860 680 L 860 660 L 840 660 z M 820 720 L 820 740 L 840 740 L 840 720 L 820 720 z M 140 740 L 140 760 L 160 760 L 160 740 L 140 740 z "
     id="rect3152" />
  <path
     style="fill:#b2b2b2"
     d="M 240 300 L 240 320 L 260 320 L 260 300 L 240 300 z M 180 340 L 180 360 L 180 380 L 180 400 L 180 420 L 180 440 L 200 440 L 200 420 L 200 400 L 220 400 L 220 380 L 200 380 L 200 360 L 200 340 L 180 340 z M 220 340 L 220 360 L 240 360 L 240 340 L 220 340 z M 420 340 L 420 360 L 440 360 L 440 340 L 420 340 z M 500 360 L 500 380 L 520 380 L 520 360 L 500 360 z M 400 380 L 400 400 L 420 400 L 420 380 L 400 380 z M 480 400 L 480 420 L 500 420 L 500 400 L 480 400 z M 380 420 L 380 440 L 400 440 L 400 420 L 380 420 z M 460 440 L 460 460 L 480 460 L 480 440 L 460 440 z M 160 460 L 160 480 L 180 480 L 180 460 L 160 460 z M 360 460 L 360 480 L 380 480 L 380 460 L 360 460 z M 440 480 L 440 500 L 460 500 L 460 480 L 440 480 z M 220 520 L 220 540 L 240 540 L 240 520 L 220 520 z M 420 520 L 420 540 L 440 540 L 440 520 L 420 520 z M 200 560 L 200 580 L 220 580 L 220 560 L 200 560 z M 400 560 L 400 580 L 420 580 L 420 560 L 400 560 z M 180 600 L 180 620 L 180 640 L 160 640 L 160 660 L 180 660 L 200 660 L 200 640 L 200 620 L 200 600 L 180 600 z M 380 600 L 380 620 L 400 620 L 400 600 L 380 600 z M 360 640 L 360 660 L 380 660 L 380 640 L 360 640 z M 140 720 L 140 740 L 160 740 L 180 740 L 180 720 L 160 720 L 140 720 z M 120 760 L 120 780 L 140 780 L 160 780 L 160 760 L 140 760 L 120 760 z "
     id="rect3236" />
  <path
     style="fill:#ffffff"
     d="M 440 100 L 440 120 L 460 120 L 460 100 L 440 100 z M 200 160 L 200 180 L 200 200 L 200 220 L 200 240 L 200 260 L 200 280 L 200 300 L 200 320 L 200 340 L 200 360 L 200 380 L 220 380 L 220 360 L 220 340 L 240 340 L 240 320 L 240 300 L 260 300 L 260 280 L 280 280 L 300 280 L 320 280 L 340 280 L 360 280 L 360 300 L 360 320 L 360 340 L 360 360 L 360 380 L 360 400 L 360 420 L 360 440 L 360 460 L 380 460 L 380 440 L 380 420 L 380 400 L 400 400 L 400 380 L 420 380 L 420 360 L 420 340 L 400 340 L 400 320 L 400 300 L 400 280 L 420 280 L 440 280 L 460 280 L 480 280 L 500 280 L 520 280 L 540 280 L 560 280 L 560 260 L 540 260 L 540 240 L 520 240 L 520 220 L 500 220 L 500 200 L 480 200 L 480 180 L 460 180 L 460 160 L 440 160 L 420 160 L 400 160 L 380 160 L 360 160 L 340 160 L 320 160 L 300 160 L 280 160 L 260 160 L 240 160 L 220 160 L 200 160 z M 560 280 L 560 300 L 580 300 L 580 280 L 560 280 z M 580 300 L 580 320 L 580 340 L 580 360 L 560 360 L 540 360 L 540 380 L 520 380 L 520 400 L 520 420 L 500 420 L 500 440 L 500 460 L 480 460 L 480 480 L 480 500 L 460 500 L 460 520 L 460 540 L 440 540 L 440 560 L 440 580 L 420 580 L 420 600 L 420 620 L 400 620 L 400 640 L 400 660 L 380 660 L 380 680 L 360 680 L 340 680 L 320 680 L 300 680 L 280 680 L 260 680 L 260 660 L 240 660 L 240 640 L 240 620 L 240 600 L 240 580 L 220 580 L 220 600 L 220 620 L 200 620 L 200 640 L 200 660 L 200 680 L 180 680 L 180 700 L 180 720 L 180 740 L 160 740 L 160 760 L 160 780 L 140 780 L 140 800 L 160 800 L 180 800 L 200 800 L 220 800 L 240 800 L 260 800 L 280 800 L 300 800 L 320 800 L 340 800 L 360 800 L 380 800 L 400 800 L 420 800 L 440 800 L 460 800 L 480 800 L 500 800 L 520 800 L 540 800 L 560 800 L 580 800 L 600 800 L 620 800 L 640 800 L 660 800 L 680 800 L 700 800 L 720 800 L 740 800 L 760 800 L 780 800 L 780 780 L 800 780 L 800 760 L 820 760 L 820 740 L 820 720 L 840 720 L 840 700 L 840 680 L 840 660 L 860 660 L 860 640 L 860 620 L 860 600 L 860 580 L 860 560 L 860 540 L 840 540 L 820 540 L 820 520 L 800 520 L 800 500 L 780 500 L 780 480 L 760 480 L 760 460 L 740 460 L 740 440 L 720 440 L 720 420 L 700 420 L 700 400 L 680 400 L 680 380 L 660 380 L 660 360 L 640 360 L 640 340 L 620 340 L 620 320 L 600 320 L 600 300 L 580 300 z M 560 160 L 560 180 L 580 180 L 580 200 L 600 200 L 600 220 L 620 220 L 620 240 L 640 240 L 640 260 L 660 260 L 660 280 L 680 280 L 680 300 L 700 300 L 700 320 L 720 320 L 720 340 L 740 340 L 740 360 L 760 360 L 760 380 L 780 380 L 780 400 L 800 400 L 800 420 L 820 420 L 820 440 L 840 440 L 840 460 L 860 460 L 860 440 L 860 420 L 860 400 L 860 380 L 860 360 L 860 340 L 860 320 L 860 300 L 860 280 L 860 260 L 860 240 L 860 220 L 860 200 L 860 180 L 860 160 L 840 160 L 820 160 L 800 160 L 780 160 L 760 160 L 740 160 L 720 160 L 700 160 L 680 160 L 660 160 L 640 160 L 620 160 L 600 160 L 580 160 L 560 160 z M 740 200 L 760 200 L 760 220 L 780 220 L 780 240 L 800 240 L 800 260 L 780 260 L 780 280 L 760 280 L 760 300 L 740 300 L 740 280 L 720 280 L 720 260 L 700 260 L 700 240 L 720 240 L 720 220 L 740 220 L 740 200 z M 160 340 L 160 360 L 160 380 L 160 400 L 160 420 L 160 440 L 160 460 L 180 460 L 180 440 L 180 420 L 180 400 L 180 380 L 180 360 L 180 340 L 160 340 z M 600 400 L 620 400 L 620 420 L 640 420 L 640 440 L 660 440 L 660 460 L 640 460 L 640 480 L 620 480 L 620 500 L 600 500 L 600 480 L 580 480 L 580 460 L 560 460 L 560 440 L 580 440 L 580 420 L 600 420 L 600 400 z "
     id="rect3382" />
  <path
     style="fill:#777777"
     d="M 180 160 L 180 180 L 180 200 L 180 220 L 180 240 L 180 260 L 180 280 L 200 280 L 200 260 L 200 240 L 200 220 L 200 200 L 200 180 L 200 160 L 180 160 z M 160 700 L 160 720 L 180 720 L 180 700 L 160 700 z M 820 740 L 820 760 L 840 760 L 840 740 L 820 740 z M 820 760 L 800 760 L 800 780 L 820 780 L 820 760 z M 800 780 L 780 780 L 780 800 L 800 800 L 800 780 z M 780 800 L 760 800 L 740 800 L 720 800 L 700 800 L 680 800 L 660 800 L 640 800 L 620 800 L 600 800 L 580 800 L 560 800 L 540 800 L 520 800 L 500 800 L 480 800 L 460 800 L 440 800 L 420 800 L 400 800 L 380 800 L 360 800 L 340 800 L 320 800 L 300 800 L 280 800 L 260 800 L 240 800 L 220 800 L 200 800 L 180 800 L 160 800 L 140 800 L 140 780 L 120 780 L 120 800 L 120 820 L 140 820 L 160 820 L 180 820 L 200 820 L 220 820 L 240 820 L 260 820 L 280 820 L 300 820 L 320 820 L 340 820 L 360 820 L 380 820 L 400 820 L 420 820 L 440 820 L 460 820 L 480 820 L 500 820 L 520 820 L 540 820 L 560 820 L 580 820 L 600 820 L 620 820 L 640 820 L 660 820 L 680 820 L 700 820 L 720 820 L 740 820 L 760 820 L 780 820 L 780 800 z "
     id="rect3466" />
  <path
     style="fill:#d7d7d7"
     d="M 140 820 L 140 840 L 160 840 L 180 840 L 200 840 L 220 840 L 240 840 L 260 840 L 280 840 L 300 840 L 320 840 L 340 840 L 360 840 L 380 840 L 400 840 L 420 840 L 440 840 L 460 840 L 480 840 L 500 840 L 520 840 L 540 840 L 560 840 L 580 840 L 600 840 L 620 840 L 620 820 L 600 820 L 580 820 L 560 820 L 540 820 L 520 820 L 500 820 L 480 820 L 460 820 L 440 820 L 420 820 L 400 820 L 380 820 L 360 820 L 340 820 L 320 820 L 300 820 L 280 820 L 260 820 L 240 820 L 220 820 L 200 820 L 180 820 L 160 820 L 140 820 z M 740 820 L 740 840 L 760 840 L 780 840 L 780 820 L 760 820 L 740 820 z "
     id="rect3550" />
  <path
     style="fill:#cbcbcb"
     d="M 200 80 L 200 100 L 220 100 L 220 80 L 200 80 z M 220 100 L 220 120 L 240 120 L 240 100 L 220 100 z M 240 100 L 260 100 L 260 80 L 240 80 L 240 100 z M 260 100 L 260 120 L 280 120 L 280 100 L 260 100 z M 280 120 L 280 140 L 300 140 L 300 120 L 280 120 z M 300 120 L 320 120 L 320 100 L 300 100 L 300 120 z M 320 100 L 340 100 L 340 80 L 320 80 L 320 100 z M 340 100 L 340 120 L 360 120 L 360 100 L 340 100 z M 360 100 L 380 100 L 380 80 L 360 80 L 360 100 z M 380 100 L 380 120 L 400 120 L 400 100 L 380 100 z M 400 100 L 420 100 L 420 80 L 400 80 L 400 100 z M 400 120 L 400 140 L 420 140 L 420 120 L 400 120 z M 420 140 L 420 160 L 440 160 L 440 140 L 420 140 z M 400 140 L 380 140 L 380 160 L 400 160 L 400 140 z M 380 140 L 380 120 L 360 120 L 360 140 L 380 140 z M 360 140 L 340 140 L 340 160 L 360 160 L 360 140 z M 340 140 L 340 120 L 320 120 L 320 140 L 340 140 z M 320 140 L 300 140 L 300 160 L 320 160 L 320 140 z M 280 140 L 260 140 L 260 160 L 280 160 L 280 140 z M 260 140 L 260 120 L 240 120 L 240 140 L 260 140 z M 240 140 L 220 140 L 220 160 L 240 160 L 240 140 z M 220 140 L 220 120 L 200 120 L 200 140 L 220 140 z M 480 80 L 480 100 L 500 100 L 500 80 L 480 80 z M 500 100 L 500 120 L 520 120 L 520 100 L 500 100 z M 520 100 L 540 100 L 540 80 L 520 80 L 520 100 z M 540 100 L 540 120 L 560 120 L 560 100 L 540 100 z M 560 100 L 580 100 L 580 80 L 560 80 L 560 100 z M 580 100 L 580 120 L 600 120 L 600 100 L 580 100 z M 600 120 L 600 140 L 620 140 L 620 120 L 600 120 z M 620 140 L 620 160 L 640 160 L 640 140 L 620 140 z M 600 140 L 580 140 L 580 160 L 600 160 L 600 140 z M 580 140 L 580 120 L 560 120 L 560 140 L 580 140 z M 560 140 L 540 140 L 540 160 L 560 160 L 560 140 z M 540 140 L 540 120 L 520 120 L 520 140 L 540 140 z M 720 80 L 720 100 L 740 100 L 740 80 L 720 80 z M 740 100 L 740 120 L 760 120 L 760 100 L 740 100 z M 760 100 L 780 100 L 780 80 L 760 80 L 760 100 z M 780 100 L 780 120 L 800 120 L 800 100 L 780 100 z M 800 100 L 820 100 L 820 80 L 800 80 L 800 100 z M 820 100 L 820 120 L 840 120 L 840 100 L 820 100 z M 840 100 L 860 100 L 860 80 L 840 80 L 840 100 z M 840 120 L 840 140 L 860 140 L 860 120 L 840 120 z M 840 140 L 820 140 L 820 160 L 840 160 L 840 140 z M 820 140 L 820 120 L 800 120 L 800 140 L 820 140 z M 800 140 L 780 140 L 780 160 L 800 160 L 800 140 z M 780 140 L 780 120 L 760 120 L 760 140 L 780 140 z M 760 140 L 740 140 L 740 160 L 760 160 L 760 140 z M 740 140 L 740 120 L 720 120 L 720 140 L 740 140 z M 720 140 L 700 140 L 700 160 L 720 160 L 720 140 z M 700 140 L 700 120 L 680 120 L 680 140 L 700 140 z M 680 140 L 660 140 L 660 160 L 680 160 L 680 140 z M 700 120 L 720 120 L 720 100 L 700 100 L 700 120 z M 920 100 L 920 120 L 920 140 L 920 160 L 920 180 L 920 200 L 920 220 L 920 240 L 920 260 L 920 280 L 920 300 L 920 320 L 920 340 L 920 360 L 920 380 L 920 400 L 920 420 L 920 440 L 920 460 L 920 480 L 920 500 L 920 520 L 920 540 L 920 560 L 920 580 L 920 600 L 920 620 L 920 640 L 920 660 L 940 660 L 940 640 L 940 620 L 940 600 L 940 580 L 940 560 L 940 540 L 940 520 L 940 500 L 940 480 L 940 460 L 940 440 L 940 420 L 940 400 L 940 380 L 940 360 L 940 340 L 940 320 L 940 300 L 940 280 L 940 260 L 940 240 L 940 220 L 940 200 L 940 180 L 940 160 L 940 140 L 940 120 L 940 100 L 920 100 z M 920 660 L 900 660 L 900 680 L 900 700 L 900 720 L 920 720 L 920 700 L 920 680 L 920 660 z M 920 720 L 920 740 L 920 760 L 940 760 L 940 740 L 940 720 L 920 720 z M 920 760 L 900 760 L 900 780 L 900 800 L 880 800 L 880 820 L 880 840 L 860 840 L 860 860 L 840 860 L 840 880 L 820 880 L 820 900 L 800 900 L 780 900 L 760 900 L 740 900 L 720 900 L 700 900 L 680 900 L 660 900 L 640 900 L 620 900 L 600 900 L 580 900 L 560 900 L 540 900 L 520 900 L 500 900 L 480 900 L 460 900 L 440 900 L 420 900 L 400 900 L 380 900 L 360 900 L 340 900 L 320 900 L 300 900 L 280 900 L 260 900 L 240 900 L 220 900 L 220 920 L 240 920 L 260 920 L 280 920 L 300 920 L 320 920 L 340 920 L 360 920 L 380 920 L 400 920 L 420 920 L 440 920 L 460 920 L 480 920 L 500 920 L 520 920 L 540 920 L 560 920 L 580 920 L 600 920 L 620 920 L 640 920 L 660 920 L 680 920 L 700 920 L 720 920 L 740 920 L 760 920 L 780 920 L 800 920 L 820 920 L 840 920 L 840 900 L 860 900 L 860 880 L 880 880 L 880 860 L 900 860 L 900 840 L 900 820 L 920 820 L 920 800 L 920 780 L 920 760 z M 820 880 L 820 860 L 840 860 L 840 840 L 860 840 L 860 820 L 860 800 L 840 800 L 840 820 L 820 820 L 820 840 L 800 840 L 800 860 L 780 860 L 760 860 L 740 860 L 720 860 L 700 860 L 680 860 L 660 860 L 640 860 L 620 860 L 600 860 L 580 860 L 560 860 L 540 860 L 520 860 L 500 860 L 480 860 L 460 860 L 440 860 L 420 860 L 400 860 L 380 860 L 360 860 L 340 860 L 320 860 L 300 860 L 280 860 L 260 860 L 240 860 L 220 860 L 200 860 L 180 860 L 180 880 L 200 880 L 220 880 L 240 880 L 260 880 L 280 880 L 300 880 L 320 880 L 340 880 L 360 880 L 380 880 L 400 880 L 420 880 L 440 880 L 460 880 L 480 880 L 500 880 L 520 880 L 540 880 L 560 880 L 580 880 L 600 880 L 620 880 L 640 880 L 660 880 L 680 880 L 700 880 L 720 880 L 740 880 L 760 880 L 780 880 L 800 880 L 820 880 z M 800 840 L 800 820 L 820 820 L 820 800 L 840 800 L 840 780 L 840 760 L 820 760 L 820 780 L 800 780 L 800 800 L 780 800 L 780 820 L 780 840 L 800 840 z M 840 760 L 860 760 L 860 740 L 860 720 L 840 720 L 840 740 L 840 760 z M 860 720 L 880 720 L 880 700 L 880 680 L 880 660 L 860 660 L 860 680 L 860 700 L 860 720 z M 880 660 L 900 660 L 900 640 L 900 620 L 900 600 L 900 580 L 900 560 L 900 540 L 900 520 L 900 500 L 900 480 L 900 460 L 900 440 L 900 420 L 900 400 L 900 380 L 900 360 L 900 340 L 900 320 L 900 300 L 900 280 L 900 260 L 900 240 L 900 220 L 900 200 L 900 180 L 900 160 L 900 140 L 880 140 L 880 160 L 880 180 L 880 200 L 880 220 L 880 240 L 880 260 L 880 280 L 880 300 L 880 320 L 880 340 L 880 360 L 880 380 L 880 400 L 880 420 L 880 440 L 880 460 L 880 480 L 880 500 L 880 520 L 880 540 L 880 560 L 880 580 L 880 600 L 880 620 L 880 640 L 880 660 z M 880 720 L 880 740 L 880 760 L 900 760 L 900 740 L 900 720 L 880 720 z M 880 760 L 860 760 L 860 780 L 860 800 L 880 800 L 880 780 L 880 760 z M 560 300 L 560 320 L 560 340 L 540 340 L 520 340 L 520 360 L 520 380 L 540 380 L 540 360 L 560 360 L 580 360 L 580 340 L 580 320 L 580 300 L 560 300 z M 520 380 L 500 380 L 500 400 L 500 420 L 520 420 L 520 400 L 520 380 z M 500 420 L 480 420 L 480 440 L 480 460 L 500 460 L 500 440 L 500 420 z M 480 460 L 460 460 L 460 480 L 460 500 L 480 500 L 480 480 L 480 460 z M 460 500 L 440 500 L 440 520 L 440 540 L 460 540 L 460 520 L 460 500 z M 440 540 L 420 540 L 420 560 L 420 580 L 440 580 L 440 560 L 440 540 z M 420 580 L 400 580 L 400 600 L 400 620 L 420 620 L 420 600 L 420 580 z M 400 620 L 380 620 L 380 640 L 380 660 L 400 660 L 400 640 L 400 620 z M 380 660 L 360 660 L 340 660 L 320 660 L 300 660 L 280 660 L 260 660 L 260 680 L 280 680 L 300 680 L 320 680 L 340 680 L 360 680 L 380 680 L 380 660 z M 380 400 L 380 420 L 400 420 L 400 400 L 380 400 z M 220 540 L 220 560 L 220 580 L 240 580 L 240 560 L 240 540 L 220 540 z M 220 580 L 200 580 L 200 600 L 200 620 L 220 620 L 220 600 L 220 580 z M 620 820 L 620 840 L 640 840 L 660 840 L 680 840 L 700 840 L 720 840 L 740 840 L 740 820 L 720 820 L 700 820 L 680 820 L 660 820 L 640 820 L 620 820 z "
     id="rect3872" />
  <path
     style="fill:#eaeaea"
     d="M 920 760 L 920 780 L 920 800 L 920 820 L 900 820 L 900 840 L 900 860 L 880 860 L 880 880 L 860 880 L 860 900 L 840 900 L 840 920 L 860 920 L 880 920 L 900 920 L 920 920 L 940 920 L 940 900 L 940 880 L 940 860 L 940 840 L 940 820 L 940 800 L 940 780 L 940 760 L 920 760 z "
     id="rect3882" />
  <path
     style="fill:#868686"
     d="M 900 120 L 900 140 L 900 160 L 900 180 L 900 200 L 900 220 L 900 240 L 900 260 L 900 280 L 900 300 L 900 320 L 900 340 L 900 360 L 900 380 L 900 400 L 900 420 L 900 440 L 900 460 L 900 480 L 900 500 L 900 520 L 900 540 L 900 560 L 900 580 L 900 600 L 900 620 L 900 640 L 900 660 L 920 660 L 920 640 L 920 620 L 920 600 L 920 580 L 920 560 L 920 540 L 920 520 L 920 500 L 920 480 L 920 460 L 920 440 L 920 420 L 920 400 L 920 380 L 920 360 L 920 340 L 920 320 L 920 300 L 920 280 L 920 260 L 920 240 L 920 220 L 920 200 L 920 180 L 920 160 L 920 140 L 920 120 L 900 120 z M 920 660 L 920 680 L 920 700 L 920 720 L 940 720 L 940 700 L 940 680 L 940 660 L 920 660 z M 920 720 L 900 720 L 900 740 L 900 760 L 920 760 L 920 740 L 920 720 z M 900 760 L 880 760 L 880 780 L 880 800 L 900 800 L 900 780 L 900 760 z M 880 800 L 860 800 L 860 820 L 860 840 L 880 840 L 880 820 L 880 800 z M 860 840 L 840 840 L 840 860 L 860 860 L 860 840 z M 840 860 L 820 860 L 820 880 L 840 880 L 840 860 z M 820 880 L 800 880 L 780 880 L 760 880 L 740 880 L 720 880 L 700 880 L 680 880 L 660 880 L 640 880 L 620 880 L 600 880 L 580 880 L 560 880 L 540 880 L 520 880 L 500 880 L 480 880 L 460 880 L 440 880 L 420 880 L 400 880 L 380 880 L 360 880 L 340 880 L 320 880 L 300 880 L 280 880 L 260 880 L 240 880 L 220 880 L 200 880 L 180 880 L 180 900 L 200 900 L 200 920 L 220 920 L 220 900 L 240 900 L 260 900 L 280 900 L 300 900 L 320 900 L 340 900 L 360 900 L 380 900 L 400 900 L 420 900 L 440 900 L 460 900 L 480 900 L 500 900 L 520 900 L 540 900 L 560 900 L 580 900 L 600 900 L 620 900 L 640 900 L 660 900 L 680 900 L 700 900 L 720 900 L 740 900 L 760 900 L 780 900 L 800 900 L 820 900 L 820 880 z M 220 920 L 220 940 L 240 940 L 260 940 L 280 940 L 300 940 L 320 940 L 340 940 L 360 940 L 380 940 L 400 940 L 420 940 L 440 940 L 460 940 L 480 940 L 500 940 L 520 940 L 540 940 L 560 940 L 580 940 L 600 940 L 620 940 L 640 940 L 660 940 L 680 940 L 700 940 L 720 940 L 740 940 L 760 940 L 780 940 L 800 940 L 820 940 L 840 940 L 860 940 L 880 940 L 900 940 L 920 940 L 940 940 L 940 920 L 920 920 L 900 920 L 880 920 L 860 920 L 840 920 L 820 920 L 800 920 L 780 920 L 760 920 L 740 920 L 720 920 L 700 920 L 680 920 L 660 920 L 640 920 L 620 920 L 600 920 L 580 920 L 560 920 L 540 920 L 520 920 L 500 920 L 480 920 L 460 920 L 440 920 L 420 920 L 400 920 L 380 920 L 360 920 L 340 920 L 320 920 L 300 920 L 280 920 L 260 920 L 240 920 L 220 920 z M 180 880 L 180 860 L 200 860 L 220 860 L 240 860 L 260 860 L 280 860 L 300 860 L 320 860 L 340 860 L 360 860 L 380 860 L 400 860 L 420 860 L 440 860 L 460 860 L 480 860 L 500 860 L 520 860 L 540 860 L 560 860 L 580 860 L 600 860 L 620 860 L 640 860 L 660 860 L 680 860 L 700 860 L 720 860 L 740 860 L 760 860 L 780 860 L 800 860 L 800 840 L 780 840 L 760 840 L 740 840 L 720 840 L 700 840 L 680 840 L 660 840 L 640 840 L 620 840 L 600 840 L 580 840 L 560 840 L 540 840 L 520 840 L 500 840 L 480 840 L 460 840 L 440 840 L 420 840 L 400 840 L 380 840 L 360 840 L 340 840 L 320 840 L 300 840 L 280 840 L 260 840 L 240 840 L 220 840 L 200 840 L 180 840 L 160 840 L 140 840 L 140 860 L 160 860 L 160 880 L 180 880 z M 140 840 L 140 820 L 120 820 L 120 840 L 140 840 z M 800 840 L 820 840 L 820 820 L 800 820 L 800 840 z M 820 820 L 840 820 L 840 800 L 820 800 L 820 820 z M 840 800 L 860 800 L 860 780 L 860 760 L 840 760 L 840 780 L 840 800 z M 860 760 L 880 760 L 880 740 L 880 720 L 860 720 L 860 740 L 860 760 z M 860 720 L 860 700 L 860 680 L 840 680 L 840 700 L 840 720 L 860 720 z M 880 720 L 900 720 L 900 700 L 900 680 L 900 660 L 880 660 L 880 680 L 880 700 L 880 720 z M 880 660 L 880 640 L 880 620 L 880 600 L 880 580 L 880 560 L 880 540 L 880 520 L 860 520 L 860 540 L 860 560 L 860 580 L 860 600 L 860 620 L 860 640 L 860 660 L 880 660 z M 860 160 L 860 180 L 860 200 L 860 220 L 860 240 L 860 260 L 860 280 L 860 300 L 860 320 L 860 340 L 860 360 L 860 380 L 860 400 L 860 420 L 860 440 L 860 460 L 860 480 L 880 480 L 880 460 L 880 440 L 880 420 L 880 400 L 880 380 L 880 360 L 880 340 L 880 320 L 880 300 L 880 280 L 880 260 L 880 240 L 880 220 L 880 200 L 880 180 L 880 160 L 860 160 z "
     id="rect3956" />
  <path
     style="fill:#000000"
     d="M 940 0 L 940 20 L 940 40 L 940 60 L 940 80 L 940 100 L 940 120 L 940 140 L 940 160 L 940 180 L 940 200 L 940 220 L 940 240 L 940 260 L 940 280 L 940 300 L 940 320 L 940 340 L 940 360 L 940 380 L 940 400 L 940 420 L 940 440 L 940 460 L 940 480 L 940 500 L 940 520 L 940 540 L 940 560 L 940 580 L 940 600 L 940 620 L 940 640 L 940 660 L 940 680 L 940 700 L 940 720 L 940 740 L 940 760 L 940 780 L 940 800 L 940 820 L 940 840 L 940 860 L 940 880 L 940 900 L 940 920 L 940 940 L 960 940 L 960 920 L 960 900 L 960 880 L 960 860 L 960 840 L 960 820 L 960 800 L 960 780 L 960 760 L 960 740 L 960 720 L 960 700 L 960 680 L 960 660 L 960 640 L 960 620 L 960 600 L 960 580 L 960 560 L 960 540 L 960 520 L 960 500 L 960 480 L 960 460 L 960 440 L 960 420 L 960 400 L 960 380 L 960 360 L 960 340 L 960 320 L 960 300 L 960 280 L 960 260 L 960 240 L 960 220 L 960 200 L 960 180 L 960 160 L 960 140 L 960 120 L 960 100 L 960 80 L 960 60 L 960 40 L 960 20 L 960 0 L 940 0 z M 440 80 L 440 100 L 460 100 L 480 100 L 480 80 L 460 80 L 440 80 z M 480 100 L 480 120 L 500 120 L 500 100 L 480 100 z M 500 120 L 500 140 L 520 140 L 520 120 L 500 120 z M 520 140 L 520 160 L 540 160 L 540 140 L 520 140 z M 540 160 L 540 180 L 540 200 L 520 200 L 500 200 L 500 220 L 520 220 L 520 240 L 540 240 L 540 220 L 560 220 L 560 240 L 580 240 L 580 260 L 600 260 L 600 280 L 620 280 L 620 300 L 640 300 L 640 320 L 660 320 L 660 340 L 680 340 L 680 360 L 700 360 L 700 380 L 720 380 L 720 400 L 740 400 L 740 420 L 760 420 L 760 440 L 780 440 L 780 460 L 800 460 L 800 480 L 780 480 L 780 500 L 800 500 L 800 520 L 820 520 L 820 500 L 820 480 L 840 480 L 860 480 L 860 460 L 840 460 L 840 440 L 820 440 L 820 420 L 800 420 L 800 400 L 780 400 L 780 380 L 760 380 L 760 360 L 740 360 L 740 340 L 720 340 L 720 320 L 700 320 L 700 300 L 680 300 L 680 280 L 660 280 L 660 260 L 640 260 L 640 240 L 620 240 L 620 220 L 600 220 L 600 200 L 580 200 L 580 180 L 560 180 L 560 160 L 540 160 z M 860 480 L 860 500 L 860 520 L 880 520 L 880 500 L 880 480 L 860 480 z M 860 520 L 840 520 L 820 520 L 820 540 L 840 540 L 860 540 L 860 520 z M 780 480 L 780 460 L 760 460 L 760 480 L 780 480 z M 760 460 L 760 440 L 740 440 L 740 460 L 760 460 z M 740 440 L 740 420 L 720 420 L 720 440 L 740 440 z M 720 420 L 720 400 L 700 400 L 700 420 L 720 420 z M 700 400 L 700 380 L 680 380 L 680 400 L 700 400 z M 680 380 L 680 360 L 660 360 L 660 380 L 680 380 z M 660 360 L 660 340 L 640 340 L 640 360 L 660 360 z M 640 340 L 640 320 L 620 320 L 620 340 L 640 340 z M 620 320 L 620 300 L 600 300 L 600 320 L 620 320 z M 600 300 L 600 280 L 580 280 L 580 300 L 600 300 z M 580 280 L 580 260 L 560 260 L 560 280 L 580 280 z M 560 280 L 540 280 L 520 280 L 500 280 L 480 280 L 460 280 L 440 280 L 420 280 L 400 280 L 400 300 L 400 320 L 400 340 L 420 340 L 440 340 L 440 360 L 460 360 L 460 340 L 460 320 L 440 320 L 420 320 L 420 300 L 440 300 L 460 300 L 480 300 L 500 300 L 520 300 L 540 300 L 540 320 L 520 320 L 500 320 L 500 340 L 500 360 L 520 360 L 520 340 L 540 340 L 560 340 L 560 320 L 560 300 L 560 280 z M 500 360 L 480 360 L 480 380 L 480 400 L 500 400 L 500 380 L 500 360 z M 480 400 L 460 400 L 460 420 L 460 440 L 480 440 L 480 420 L 480 400 z M 460 440 L 440 440 L 440 460 L 440 480 L 460 480 L 460 460 L 460 440 z M 440 480 L 420 480 L 420 500 L 420 520 L 440 520 L 440 500 L 440 480 z M 420 520 L 400 520 L 400 540 L 400 560 L 420 560 L 420 540 L 420 520 z M 400 560 L 380 560 L 380 580 L 380 600 L 400 600 L 400 580 L 400 560 z M 380 600 L 360 600 L 360 620 L 360 640 L 380 640 L 380 620 L 380 600 z M 360 640 L 340 640 L 320 640 L 300 640 L 280 640 L 260 640 L 260 620 L 260 600 L 260 580 L 260 560 L 260 540 L 260 520 L 260 500 L 260 480 L 260 460 L 260 440 L 240 440 L 240 460 L 240 480 L 220 480 L 220 500 L 220 520 L 240 520 L 240 540 L 240 560 L 240 580 L 240 600 L 240 620 L 240 640 L 240 660 L 260 660 L 280 660 L 300 660 L 320 660 L 340 660 L 360 660 L 360 640 z M 220 520 L 200 520 L 200 540 L 200 560 L 220 560 L 220 540 L 220 520 z M 200 560 L 180 560 L 180 580 L 180 600 L 200 600 L 200 580 L 200 560 z M 180 600 L 160 600 L 160 620 L 160 640 L 180 640 L 180 620 L 180 600 z M 160 640 L 140 640 L 120 640 L 100 640 L 80 640 L 80 620 L 80 600 L 80 580 L 80 560 L 80 540 L 80 520 L 80 500 L 80 480 L 80 460 L 80 440 L 80 420 L 80 400 L 80 380 L 80 360 L 80 340 L 80 320 L 60 320 L 60 300 L 80 300 L 100 300 L 120 300 L 140 300 L 160 300 L 180 300 L 180 320 L 160 320 L 140 320 L 140 340 L 140 360 L 140 380 L 140 400 L 140 420 L 140 440 L 140 460 L 140 480 L 140 500 L 140 520 L 140 540 L 160 540 L 160 520 L 180 520 L 180 500 L 180 480 L 160 480 L 160 460 L 160 440 L 160 420 L 160 400 L 160 380 L 160 360 L 160 340 L 180 340 L 200 340 L 200 320 L 200 300 L 200 280 L 180 280 L 160 280 L 140 280 L 120 280 L 100 280 L 80 280 L 60 280 L 40 280 L 40 300 L 40 320 L 40 340 L 60 340 L 60 360 L 60 380 L 60 400 L 60 420 L 60 440 L 60 460 L 60 480 L 60 500 L 60 520 L 60 540 L 60 560 L 60 580 L 60 600 L 60 620 L 60 640 L 60 660 L 80 660 L 100 660 L 120 660 L 140 660 L 160 660 L 160 640 z M 180 480 L 200 480 L 200 460 L 200 440 L 180 440 L 180 460 L 180 480 z M 200 440 L 220 440 L 220 420 L 220 400 L 200 400 L 200 420 L 200 440 z M 220 400 L 240 400 L 240 380 L 240 360 L 220 360 L 220 380 L 220 400 z M 240 360 L 260 360 L 260 340 L 260 320 L 240 320 L 240 340 L 240 360 z M 260 320 L 280 320 L 280 300 L 300 300 L 320 300 L 340 300 L 340 320 L 340 340 L 340 360 L 340 380 L 340 400 L 340 420 L 340 440 L 340 460 L 340 480 L 340 500 L 340 520 L 340 540 L 360 540 L 360 520 L 380 520 L 380 500 L 380 480 L 360 480 L 360 460 L 360 440 L 360 420 L 360 400 L 360 380 L 360 360 L 360 340 L 360 320 L 360 300 L 360 280 L 340 280 L 320 280 L 300 280 L 280 280 L 260 280 L 260 300 L 260 320 z M 380 480 L 400 480 L 400 460 L 400 440 L 380 440 L 380 460 L 380 480 z M 400 440 L 420 440 L 420 420 L 420 400 L 400 400 L 400 420 L 400 440 z M 420 400 L 440 400 L 440 380 L 440 360 L 420 360 L 420 380 L 420 400 z M 560 260 L 560 240 L 540 240 L 540 260 L 560 260 z M 500 200 L 500 180 L 480 180 L 480 200 L 500 200 z M 480 180 L 480 160 L 460 160 L 460 180 L 480 180 z M 460 160 L 460 140 L 440 140 L 440 160 L 460 160 z M 440 140 L 440 120 L 440 100 L 420 100 L 420 120 L 420 140 L 440 140 z "
     id="rect3958" />
</svg>
