<?xml version="1.0" encoding="UTF-8" standalone="no"?>
<svg
   xmlns:dc="http://purl.org/dc/elements/1.1/"
   xmlns:cc="http://creativecommons.org/ns#"
   xmlns:rdf="http://www.w3.org/1999/02/22-rdf-syntax-ns#"
   xmlns:svg="http://www.w3.org/2000/svg"
   xmlns="http://www.w3.org/2000/svg"
   xmlns:sodipodi="http://sodipodi.sourceforge.net/DTD/sodipodi-0.dtd"
   xmlns:inkscape="http://www.inkscape.org/namespaces/inkscape"
   id="svg1308"
   width="640px"
   version="1.1"
   height="640px"
   sodipodi:docname="chicago95_tmp_file.svg"
   inkscape:version="0.92.4 (5da689c313, 2019-01-14)">
  <sodipodi:namedview
     pagecolor="#ffffff"
     bordercolor="#666666"
     borderopacity="1"
     objecttolerance="10"
     gridtolerance="10"
     guidetolerance="10"
     inkscape:pageopacity="0"
     inkscape:pageshadow="2"
     inkscape:window-width="640"
     inkscape:window-height="480"
     id="namedview657"
     showgrid="false"
     inkscape:zoom="0.36875"
     inkscape:cx="320"
     inkscape:cy="320"
     inkscape:window-x="0"
     inkscape:window-y="0"
     inkscape:window-maximized="0"
     inkscape:current-layer="svg1308" />
  <metadata
     id="metadata1312">
    <rdf:RDF>
      <cc:Work
         rdf:about="">
        <dc:format>image/svg+xml</dc:format>
        <dc:type
           rdf:resource="http://purl.org/dc/dcmitype/StillImage" />
      </cc:Work>
    </rdf:RDF>
  </metadata>
  <defs
     id="defs2" />
  <path
     style="fill:#c0c0c0"
     d="M 160 140 L 160 160 L 180 160 L 180 140 L 160 140 z M 180 160 L 180 180 L 200 180 L 200 160 L 180 160 z M 200 160 L 220 160 L 220 140 L 200 140 L 200 160 z M 220 160 L 220 180 L 240 180 L 240 160 L 220 160 z M 240 160 L 260 160 L 260 140 L 240 140 L 240 160 z M 260 160 L 260 180 L 280 180 L 280 160 L 260 160 z M 280 160 L 300 160 L 300 140 L 280 140 L 280 160 z M 300 160 L 300 180 L 320 180 L 320 160 L 300 160 z M 320 160 L 340 160 L 340 140 L 320 140 L 320 160 z M 340 160 L 340 180 L 360 180 L 360 160 L 340 160 z M 360 160 L 380 160 L 380 140 L 360 140 L 360 160 z M 380 160 L 380 180 L 400 180 L 400 160 L 380 160 z M 400 160 L 420 160 L 420 140 L 400 140 L 400 160 z M 420 160 L 420 180 L 440 180 L 440 160 L 420 160 z M 440 160 L 460 160 L 460 140 L 440 140 L 440 160 z M 460 160 L 460 180 L 480 180 L 480 160 L 460 160 z M 480 160 L 500 160 L 500 140 L 480 140 L 480 160 z M 500 160 L 500 180 L 520 180 L 520 160 L 500 160 z M 520 160 L 540 160 L 540 140 L 520 140 L 520 160 z M 540 160 L 540 180 L 560 180 L 560 160 L 540 160 z M 540 180 L 520 180 L 520 200 L 540 200 L 540 180 z M 520 200 L 500 200 L 500 220 L 520 220 L 520 200 z M 500 220 L 480 220 L 480 240 L 500 240 L 500 220 z M 480 220 L 480 200 L 460 200 L 460 220 L 480 220 z M 460 220 L 440 220 L 440 240 L 460 240 L 460 220 z M 440 220 L 440 200 L 420 200 L 420 220 L 440 220 z M 420 220 L 400 220 L 400 240 L 420 240 L 420 220 z M 400 220 L 400 200 L 380 200 L 380 220 L 400 220 z M 380 220 L 360 220 L 360 240 L 380 240 L 380 220 z M 360 220 L 360 200 L 340 200 L 340 220 L 360 220 z M 340 220 L 320 220 L 320 240 L 340 240 L 340 220 z M 320 220 L 320 200 L 300 200 L 300 220 L 320 220 z M 300 220 L 280 220 L 280 240 L 300 240 L 300 220 z M 280 220 L 280 200 L 260 200 L 260 220 L 280 220 z M 260 220 L 240 220 L 240 240 L 260 240 L 260 220 z M 240 220 L 240 200 L 220 200 L 220 220 L 240 220 z M 220 200 L 220 180 L 200 180 L 200 200 L 220 200 z M 240 200 L 260 200 L 260 180 L 240 180 L 240 200 z M 280 200 L 300 200 L 300 180 L 280 180 L 280 200 z M 320 200 L 340 200 L 340 180 L 320 180 L 320 200 z M 360 200 L 380 200 L 380 180 L 360 180 L 360 200 z M 400 200 L 420 200 L 420 180 L 400 180 L 400 200 z M 440 200 L 460 200 L 460 180 L 440 180 L 440 200 z M 480 200 L 500 200 L 500 180 L 480 180 L 480 200 z M 280 260 L 280 280 L 300 280 L 300 260 L 280 260 z M 300 280 L 300 300 L 320 300 L 320 280 L 300 280 z M 320 280 L 340 280 L 340 260 L 320 260 L 320 280 z M 340 280 L 340 300 L 360 300 L 360 280 L 340 280 z M 360 280 L 380 280 L 380 260 L 360 260 L 360 280 z M 380 280 L 380 300 L 400 300 L 400 280 L 380 280 z M 400 280 L 420 280 L 420 260 L 400 260 L 400 280 z M 420 280 L 420 300 L 440 300 L 440 280 L 420 280 z M 440 280 L 460 280 L 460 260 L 440 260 L 440 280 z M 460 280 L 460 300 L 480 300 L 480 280 L 460 280 z M 480 280 L 500 280 L 500 260 L 480 260 L 480 280 z M 460 300 L 440 300 L 440 320 L 460 320 L 460 300 z M 460 320 L 460 340 L 480 340 L 480 320 L 460 320 z M 440 320 L 420 320 L 420 340 L 440 340 L 440 320 z M 420 320 L 420 300 L 400 300 L 400 320 L 420 320 z M 400 320 L 380 320 L 380 340 L 400 340 L 400 320 z M 380 340 L 360 340 L 360 360 L 380 360 L 380 340 z M 360 360 L 340 360 L 340 380 L 360 380 L 360 360 z M 340 380 L 320 380 L 320 400 L 340 400 L 340 380 z M 320 400 L 300 400 L 300 420 L 320 420 L 320 400 z M 300 400 L 300 380 L 280 380 L 280 400 L 300 400 z M 280 400 L 260 400 L 260 420 L 280 420 L 280 400 z M 260 400 L 260 380 L 240 380 L 240 400 L 260 400 z M 240 400 L 220 400 L 220 420 L 240 420 L 240 400 z M 220 400 L 220 380 L 200 380 L 200 400 L 220 400 z M 200 400 L 180 400 L 180 420 L 200 420 L 200 400 z M 220 380 L 240 380 L 240 360 L 220 360 L 220 380 z M 240 360 L 260 360 L 260 340 L 240 340 L 240 360 z M 240 340 L 240 320 L 220 320 L 220 340 L 240 340 z M 240 320 L 260 320 L 260 300 L 240 300 L 240 320 z M 260 300 L 280 300 L 280 280 L 260 280 L 260 300 z M 280 300 L 280 320 L 300 320 L 300 300 L 280 300 z M 300 320 L 300 340 L 320 340 L 320 320 L 300 320 z M 320 320 L 340 320 L 340 300 L 320 300 L 320 320 z M 340 320 L 340 340 L 360 340 L 360 320 L 340 320 z M 360 320 L 380 320 L 380 300 L 360 300 L 360 320 z M 340 340 L 320 340 L 320 360 L 340 360 L 340 340 z M 320 360 L 300 360 L 300 380 L 320 380 L 320 360 z M 300 360 L 300 340 L 280 340 L 280 360 L 300 360 z M 280 360 L 260 360 L 260 380 L 280 380 L 280 360 z M 280 340 L 280 320 L 260 320 L 260 340 L 280 340 z "
     id="rect898" />
  <path
     style="fill:#808000"
     d="M 120 100 L 120 120 L 120 140 L 140 140 L 140 120 L 160 120 L 180 120 L 200 120 L 220 120 L 240 120 L 260 120 L 280 120 L 300 120 L 320 120 L 340 120 L 360 120 L 380 120 L 400 120 L 420 120 L 440 120 L 460 120 L 480 120 L 500 120 L 520 120 L 540 120 L 560 120 L 580 120 L 600 120 L 620 120 L 640 120 L 640 100 L 620 100 L 600 100 L 580 100 L 560 100 L 540 100 L 520 100 L 500 100 L 480 100 L 460 100 L 440 100 L 420 100 L 400 100 L 380 100 L 360 100 L 340 100 L 320 100 L 300 100 L 280 100 L 260 100 L 240 100 L 220 100 L 200 100 L 180 100 L 160 100 L 140 100 L 120 100 z M 140 140 L 140 160 L 140 180 L 120 180 L 120 200 L 120 220 L 100 220 L 100 240 L 100 260 L 80 260 L 80 280 L 80 300 L 60 300 L 60 320 L 60 340 L 80 340 L 100 340 L 120 340 L 120 320 L 120 300 L 140 300 L 140 280 L 140 260 L 160 260 L 160 240 L 180 240 L 200 240 L 220 240 L 240 240 L 240 220 L 220 220 L 220 200 L 200 200 L 200 180 L 180 180 L 180 160 L 160 160 L 160 140 L 140 140 z M 160 260 L 160 280 L 160 300 L 140 300 L 140 320 L 140 340 L 120 340 L 120 360 L 120 380 L 140 380 L 140 400 L 160 400 L 160 420 L 180 420 L 180 400 L 200 400 L 200 380 L 200 360 L 220 360 L 220 340 L 220 320 L 240 320 L 240 300 L 240 280 L 260 280 L 260 260 L 240 260 L 220 260 L 200 260 L 180 260 L 160 260 z M 260 260 L 280 260 L 300 260 L 320 260 L 340 260 L 360 260 L 380 260 L 400 260 L 420 260 L 440 260 L 460 260 L 480 260 L 500 260 L 500 280 L 500 300 L 520 300 L 520 280 L 520 260 L 540 260 L 540 240 L 540 220 L 520 220 L 520 240 L 500 240 L 480 240 L 460 240 L 440 240 L 420 240 L 400 240 L 380 240 L 360 240 L 340 240 L 320 240 L 300 240 L 280 240 L 260 240 L 260 260 z M 540 220 L 560 220 L 560 200 L 560 180 L 540 180 L 540 200 L 540 220 z M 560 180 L 580 180 L 580 160 L 580 140 L 560 140 L 560 160 L 560 180 z M 580 180 L 580 200 L 580 220 L 560 220 L 560 240 L 560 260 L 540 260 L 540 280 L 540 300 L 520 300 L 520 320 L 520 340 L 500 340 L 500 360 L 500 380 L 500 400 L 500 420 L 500 440 L 500 460 L 500 480 L 500 500 L 500 520 L 520 520 L 520 500 L 520 480 L 540 480 L 540 460 L 540 440 L 560 440 L 560 420 L 560 400 L 580 400 L 580 380 L 580 360 L 600 360 L 600 340 L 600 320 L 620 320 L 620 300 L 620 280 L 620 260 L 620 240 L 620 220 L 620 200 L 620 180 L 620 160 L 620 140 L 600 140 L 600 160 L 600 180 L 580 180 z M 500 340 L 500 320 L 500 300 L 480 300 L 480 320 L 480 340 L 500 340 z M 480 340 L 460 340 L 440 340 L 420 340 L 400 340 L 400 360 L 420 360 L 440 360 L 460 360 L 480 360 L 480 340 z M 400 360 L 380 360 L 380 380 L 400 380 L 400 360 z M 380 380 L 360 380 L 360 400 L 380 400 L 380 380 z M 360 400 L 340 400 L 340 420 L 360 420 L 360 400 z M 340 420 L 320 420 L 300 420 L 280 420 L 260 420 L 240 420 L 220 420 L 200 420 L 180 420 L 180 440 L 200 440 L 220 440 L 240 440 L 260 440 L 280 440 L 300 440 L 320 440 L 340 440 L 340 420 z M 60 300 L 60 280 L 60 260 L 40 260 L 40 280 L 40 300 L 60 300 z M 40 300 L 20 300 L 20 320 L 20 340 L 40 340 L 40 320 L 40 300 z M 20 340 L 0 340 L 0 360 L 0 380 L 0 400 L 0 420 L 0 440 L 0 460 L 0 480 L 0 500 L 0 520 L 0 540 L 20 540 L 20 520 L 20 500 L 20 480 L 20 460 L 20 440 L 20 420 L 20 400 L 20 380 L 20 360 L 20 340 z M 60 260 L 80 260 L 80 240 L 80 220 L 60 220 L 60 240 L 60 260 z M 80 220 L 100 220 L 100 200 L 100 180 L 80 180 L 80 200 L 80 220 z M 100 180 L 120 180 L 120 160 L 120 140 L 100 140 L 100 160 L 100 180 z "
     id="rect1204" />
  <path
     style="fill:#ffffff"
     d="M 140 120 L 140 140 L 160 140 L 180 140 L 200 140 L 220 140 L 240 140 L 260 140 L 280 140 L 300 140 L 320 140 L 340 140 L 360 140 L 380 140 L 400 140 L 420 140 L 440 140 L 460 140 L 480 140 L 500 140 L 520 140 L 540 140 L 560 140 L 580 140 L 580 160 L 580 180 L 600 180 L 600 160 L 600 140 L 620 140 L 620 120 L 600 120 L 580 120 L 560 120 L 540 120 L 520 120 L 500 120 L 480 120 L 460 120 L 440 120 L 420 120 L 400 120 L 380 120 L 360 120 L 340 120 L 320 120 L 300 120 L 280 120 L 260 120 L 240 120 L 220 120 L 200 120 L 180 120 L 160 120 L 140 120 z M 580 180 L 560 180 L 560 200 L 560 220 L 580 220 L 580 200 L 580 180 z M 560 220 L 540 220 L 540 240 L 540 260 L 560 260 L 560 240 L 560 220 z M 540 260 L 520 260 L 520 280 L 520 300 L 540 300 L 540 280 L 540 260 z M 520 300 L 500 300 L 500 320 L 500 340 L 520 340 L 520 320 L 520 300 z M 500 340 L 480 340 L 480 360 L 460 360 L 440 360 L 420 360 L 400 360 L 400 380 L 380 380 L 380 400 L 360 400 L 360 420 L 340 420 L 340 440 L 320 440 L 300 440 L 280 440 L 260 440 L 240 440 L 220 440 L 200 440 L 180 440 L 180 460 L 200 460 L 200 480 L 220 480 L 220 460 L 240 460 L 240 480 L 260 480 L 260 460 L 280 460 L 280 480 L 300 480 L 300 460 L 320 460 L 320 480 L 340 480 L 340 460 L 360 460 L 360 440 L 380 440 L 380 420 L 400 420 L 400 400 L 420 400 L 420 380 L 440 380 L 440 400 L 460 400 L 460 380 L 480 380 L 480 400 L 500 400 L 500 380 L 500 360 L 500 340 z M 480 400 L 460 400 L 460 420 L 480 420 L 480 400 z M 480 420 L 480 440 L 500 440 L 500 420 L 480 420 z M 480 440 L 460 440 L 460 460 L 480 460 L 480 440 z M 480 460 L 480 480 L 500 480 L 500 460 L 480 460 z M 480 480 L 460 480 L 460 500 L 480 500 L 480 480 z M 480 500 L 480 520 L 500 520 L 500 500 L 480 500 z M 480 520 L 460 520 L 460 540 L 480 540 L 480 520 z M 460 520 L 460 500 L 440 500 L 440 520 L 460 520 z M 440 520 L 420 520 L 420 540 L 440 540 L 440 520 z M 420 520 L 420 500 L 400 500 L 400 520 L 420 520 z M 400 520 L 380 520 L 380 540 L 400 540 L 400 520 z M 380 520 L 380 500 L 360 500 L 360 520 L 380 520 z M 360 520 L 340 520 L 340 540 L 360 540 L 360 520 z M 340 520 L 340 500 L 320 500 L 320 520 L 340 520 z M 320 520 L 300 520 L 300 540 L 320 540 L 320 520 z M 300 520 L 300 500 L 280 500 L 280 520 L 300 520 z M 280 520 L 260 520 L 260 540 L 280 540 L 280 520 z M 260 520 L 260 500 L 240 500 L 240 520 L 260 520 z M 240 520 L 220 520 L 220 540 L 240 540 L 240 520 z M 220 520 L 220 500 L 200 500 L 200 520 L 220 520 z M 200 520 L 180 520 L 180 540 L 200 540 L 200 520 z M 180 520 L 180 500 L 160 500 L 160 520 L 180 520 z M 160 520 L 140 520 L 140 540 L 160 540 L 160 520 z M 140 520 L 140 500 L 120 500 L 120 520 L 140 520 z M 120 520 L 100 520 L 100 540 L 120 540 L 120 520 z M 100 520 L 100 500 L 80 500 L 80 520 L 100 520 z M 80 520 L 60 520 L 60 540 L 80 540 L 80 520 z M 60 520 L 60 500 L 40 500 L 40 520 L 60 520 z M 40 520 L 20 520 L 20 540 L 40 540 L 40 520 z M 40 500 L 40 480 L 20 480 L 20 500 L 40 500 z M 40 480 L 60 480 L 60 460 L 40 460 L 40 480 z M 40 460 L 40 440 L 20 440 L 20 460 L 40 460 z M 40 440 L 60 440 L 60 420 L 40 420 L 40 440 z M 40 420 L 40 400 L 20 400 L 20 420 L 40 420 z M 40 400 L 60 400 L 60 380 L 80 380 L 80 400 L 100 400 L 100 380 L 120 380 L 120 360 L 100 360 L 80 360 L 60 360 L 40 360 L 40 340 L 20 340 L 20 360 L 20 380 L 40 380 L 40 400 z M 40 340 L 60 340 L 60 320 L 60 300 L 40 300 L 40 320 L 40 340 z M 60 300 L 80 300 L 80 280 L 80 260 L 60 260 L 60 280 L 60 300 z M 80 260 L 100 260 L 100 240 L 100 220 L 80 220 L 80 240 L 80 260 z M 100 220 L 120 220 L 120 200 L 120 180 L 100 180 L 100 200 L 100 220 z M 120 180 L 140 180 L 140 160 L 140 140 L 120 140 L 120 160 L 120 180 z M 120 380 L 120 400 L 140 400 L 140 380 L 120 380 z M 140 400 L 140 420 L 160 420 L 160 400 L 140 400 z M 160 420 L 160 440 L 180 440 L 180 420 L 160 420 z M 160 440 L 140 440 L 140 460 L 160 460 L 160 440 z M 160 460 L 160 480 L 180 480 L 180 460 L 160 460 z M 180 480 L 180 500 L 200 500 L 200 480 L 180 480 z M 160 480 L 140 480 L 140 500 L 160 500 L 160 480 z M 140 480 L 140 460 L 120 460 L 120 480 L 140 480 z M 120 480 L 100 480 L 100 500 L 120 500 L 120 480 z M 100 480 L 100 460 L 80 460 L 80 480 L 100 480 z M 80 480 L 60 480 L 60 500 L 80 500 L 80 480 z M 80 460 L 80 440 L 60 440 L 60 460 L 80 460 z M 80 440 L 100 440 L 100 420 L 80 420 L 80 440 z M 80 420 L 80 400 L 60 400 L 60 420 L 80 420 z M 100 420 L 120 420 L 120 400 L 100 400 L 100 420 z M 120 420 L 120 440 L 140 440 L 140 420 L 120 420 z M 120 440 L 100 440 L 100 460 L 120 460 L 120 440 z M 220 500 L 240 500 L 240 480 L 220 480 L 220 500 z M 260 500 L 280 500 L 280 480 L 260 480 L 260 500 z M 300 500 L 320 500 L 320 480 L 300 480 L 300 500 z M 340 500 L 360 500 L 360 480 L 340 480 L 340 500 z M 360 480 L 380 480 L 380 460 L 360 460 L 360 480 z M 380 460 L 400 460 L 400 440 L 380 440 L 380 460 z M 400 440 L 420 440 L 420 420 L 400 420 L 400 440 z M 420 420 L 440 420 L 440 400 L 420 400 L 420 420 z M 440 420 L 440 440 L 460 440 L 460 420 L 440 420 z M 440 440 L 420 440 L 420 460 L 440 460 L 440 440 z M 440 460 L 440 480 L 460 480 L 460 460 L 440 460 z M 440 480 L 420 480 L 420 500 L 440 500 L 440 480 z M 420 480 L 420 460 L 400 460 L 400 480 L 420 480 z M 400 480 L 380 480 L 380 500 L 400 500 L 400 480 z "
     id="rect1250" />
  <path
     style="fill:#ffff00"
     d="M 180 140 L 180 160 L 200 160 L 200 140 L 180 140 z M 200 160 L 200 180 L 220 180 L 220 160 L 200 160 z M 220 160 L 240 160 L 240 140 L 220 140 L 220 160 z M 240 160 L 240 180 L 260 180 L 260 160 L 240 160 z M 260 160 L 280 160 L 280 140 L 260 140 L 260 160 z M 280 160 L 280 180 L 300 180 L 300 160 L 280 160 z M 300 160 L 320 160 L 320 140 L 300 140 L 300 160 z M 320 160 L 320 180 L 340 180 L 340 160 L 320 160 z M 340 160 L 360 160 L 360 140 L 340 140 L 340 160 z M 360 160 L 360 180 L 380 180 L 380 160 L 360 160 z M 380 160 L 400 160 L 400 140 L 380 140 L 380 160 z M 400 160 L 400 180 L 420 180 L 420 160 L 400 160 z M 420 160 L 440 160 L 440 140 L 420 140 L 420 160 z M 440 160 L 440 180 L 460 180 L 460 160 L 440 160 z M 460 160 L 480 160 L 480 140 L 460 140 L 460 160 z M 480 160 L 480 180 L 500 180 L 500 160 L 480 160 z M 500 160 L 520 160 L 520 140 L 500 140 L 500 160 z M 520 160 L 520 180 L 540 180 L 540 160 L 520 160 z M 540 160 L 560 160 L 560 140 L 540 140 L 540 160 z M 520 180 L 500 180 L 500 200 L 520 200 L 520 180 z M 520 200 L 520 220 L 540 220 L 540 200 L 520 200 z M 520 220 L 500 220 L 500 240 L 520 240 L 520 220 z M 500 220 L 500 200 L 480 200 L 480 220 L 500 220 z M 480 220 L 460 220 L 460 240 L 480 240 L 480 220 z M 460 220 L 460 200 L 440 200 L 440 220 L 460 220 z M 440 220 L 420 220 L 420 240 L 440 240 L 440 220 z M 420 220 L 420 200 L 400 200 L 400 220 L 420 220 z M 400 220 L 380 220 L 380 240 L 400 240 L 400 220 z M 380 220 L 380 200 L 360 200 L 360 220 L 380 220 z M 360 220 L 340 220 L 340 240 L 360 240 L 360 220 z M 340 220 L 340 200 L 320 200 L 320 220 L 340 220 z M 320 220 L 300 220 L 300 240 L 320 240 L 320 220 z M 300 220 L 300 200 L 280 200 L 280 220 L 300 220 z M 280 220 L 260 220 L 260 240 L 280 240 L 280 220 z M 260 220 L 260 200 L 240 200 L 240 220 L 260 220 z M 240 200 L 240 180 L 220 180 L 220 200 L 240 200 z M 260 200 L 280 200 L 280 180 L 260 180 L 260 200 z M 300 200 L 320 200 L 320 180 L 300 180 L 300 200 z M 340 200 L 360 200 L 360 180 L 340 180 L 340 200 z M 380 200 L 400 200 L 400 180 L 380 180 L 380 200 z M 420 200 L 440 200 L 440 180 L 420 180 L 420 200 z M 460 200 L 480 200 L 480 180 L 460 180 L 460 200 z M 260 260 L 260 280 L 280 280 L 280 260 L 260 260 z M 280 280 L 280 300 L 300 300 L 300 280 L 280 280 z M 300 280 L 320 280 L 320 260 L 300 260 L 300 280 z M 320 280 L 320 300 L 340 300 L 340 280 L 320 280 z M 340 280 L 360 280 L 360 260 L 340 260 L 340 280 z M 360 280 L 360 300 L 380 300 L 380 280 L 360 280 z M 380 280 L 400 280 L 400 260 L 380 260 L 380 280 z M 400 280 L 400 300 L 420 300 L 420 280 L 400 280 z M 420 280 L 440 280 L 440 260 L 420 260 L 420 280 z M 440 280 L 440 300 L 460 300 L 460 280 L 440 280 z M 460 280 L 480 280 L 480 260 L 460 260 L 460 280 z M 480 280 L 480 300 L 500 300 L 500 280 L 480 280 z M 480 300 L 460 300 L 460 320 L 480 320 L 480 300 z M 460 320 L 440 320 L 440 340 L 460 340 L 460 320 z M 440 320 L 440 300 L 420 300 L 420 320 L 440 320 z M 420 320 L 400 320 L 400 340 L 420 340 L 420 320 z M 400 340 L 380 340 L 380 360 L 400 360 L 400 340 z M 380 360 L 360 360 L 360 380 L 380 380 L 380 360 z M 360 380 L 340 380 L 340 400 L 360 400 L 360 380 z M 340 400 L 320 400 L 320 420 L 340 420 L 340 400 z M 320 400 L 320 380 L 300 380 L 300 400 L 320 400 z M 300 400 L 280 400 L 280 420 L 300 420 L 300 400 z M 280 400 L 280 380 L 260 380 L 260 400 L 280 400 z M 260 400 L 240 400 L 240 420 L 260 420 L 260 400 z M 240 400 L 240 380 L 220 380 L 220 400 L 240 400 z M 220 400 L 200 400 L 200 420 L 220 420 L 220 400 z M 220 380 L 220 360 L 200 360 L 200 380 L 220 380 z M 220 360 L 240 360 L 240 340 L 220 340 L 220 360 z M 240 340 L 260 340 L 260 320 L 240 320 L 240 340 z M 260 320 L 280 320 L 280 300 L 260 300 L 260 320 z M 260 300 L 260 280 L 240 280 L 240 300 L 260 300 z M 280 320 L 280 340 L 300 340 L 300 320 L 280 320 z M 300 320 L 320 320 L 320 300 L 300 300 L 300 320 z M 320 320 L 320 340 L 340 340 L 340 320 L 320 320 z M 340 320 L 360 320 L 360 300 L 340 300 L 340 320 z M 360 320 L 360 340 L 380 340 L 380 320 L 360 320 z M 380 320 L 400 320 L 400 300 L 380 300 L 380 320 z M 360 340 L 340 340 L 340 360 L 360 360 L 360 340 z M 340 360 L 320 360 L 320 380 L 340 380 L 340 360 z M 320 360 L 320 340 L 300 340 L 300 360 L 320 360 z M 300 360 L 280 360 L 280 380 L 300 380 L 300 360 z M 280 360 L 280 340 L 260 340 L 260 360 L 280 360 z M 260 360 L 240 360 L 240 380 L 260 380 L 260 360 z M 20 380 L 20 400 L 40 400 L 40 380 L 20 380 z M 40 400 L 40 420 L 60 420 L 60 400 L 40 400 z M 60 400 L 80 400 L 80 380 L 60 380 L 60 400 z M 80 400 L 80 420 L 100 420 L 100 400 L 80 400 z M 100 400 L 120 400 L 120 380 L 100 380 L 100 400 z M 120 400 L 120 420 L 140 420 L 140 400 L 120 400 z M 140 420 L 140 440 L 160 440 L 160 420 L 140 420 z M 160 440 L 160 460 L 180 460 L 180 440 L 160 440 z M 180 460 L 180 480 L 200 480 L 200 460 L 180 460 z M 200 480 L 200 500 L 220 500 L 220 480 L 200 480 z M 220 480 L 240 480 L 240 460 L 220 460 L 220 480 z M 240 480 L 240 500 L 260 500 L 260 480 L 240 480 z M 260 480 L 280 480 L 280 460 L 260 460 L 260 480 z M 280 480 L 280 500 L 300 500 L 300 480 L 280 480 z M 300 480 L 320 480 L 320 460 L 300 460 L 300 480 z M 320 480 L 320 500 L 340 500 L 340 480 L 320 480 z M 340 480 L 360 480 L 360 460 L 340 460 L 340 480 z M 360 460 L 380 460 L 380 440 L 360 440 L 360 460 z M 380 440 L 400 440 L 400 420 L 380 420 L 380 440 z M 400 420 L 420 420 L 420 400 L 400 400 L 400 420 z M 420 400 L 440 400 L 440 380 L 420 380 L 420 400 z M 440 400 L 440 420 L 460 420 L 460 400 L 440 400 z M 460 400 L 480 400 L 480 380 L 460 380 L 460 400 z M 480 400 L 480 420 L 500 420 L 500 400 L 480 400 z M 480 420 L 460 420 L 460 440 L 480 440 L 480 420 z M 480 440 L 480 460 L 500 460 L 500 440 L 480 440 z M 480 460 L 460 460 L 460 480 L 480 480 L 480 460 z M 480 480 L 480 500 L 500 500 L 500 480 L 480 480 z M 480 500 L 460 500 L 460 520 L 480 520 L 480 500 z M 480 520 L 480 540 L 500 540 L 500 520 L 480 520 z M 460 520 L 440 520 L 440 540 L 460 540 L 460 520 z M 440 520 L 440 500 L 420 500 L 420 520 L 440 520 z M 420 520 L 400 520 L 400 540 L 420 540 L 420 520 z M 400 520 L 400 500 L 380 500 L 380 520 L 400 520 z M 380 520 L 360 520 L 360 540 L 380 540 L 380 520 z M 360 520 L 360 500 L 340 500 L 340 520 L 360 520 z M 340 520 L 320 520 L 320 540 L 340 540 L 340 520 z M 320 520 L 320 500 L 300 500 L 300 520 L 320 520 z M 300 520 L 280 520 L 280 540 L 300 540 L 300 520 z M 280 520 L 280 500 L 260 500 L 260 520 L 280 520 z M 260 520 L 240 520 L 240 540 L 260 540 L 260 520 z M 240 520 L 240 500 L 220 500 L 220 520 L 240 520 z M 220 520 L 200 520 L 200 540 L 220 540 L 220 520 z M 200 520 L 200 500 L 180 500 L 180 520 L 200 520 z M 180 520 L 160 520 L 160 540 L 180 540 L 180 520 z M 160 520 L 160 500 L 140 500 L 140 520 L 160 520 z M 140 520 L 120 520 L 120 540 L 140 540 L 140 520 z M 120 520 L 120 500 L 100 500 L 100 520 L 120 520 z M 100 520 L 80 520 L 80 540 L 100 540 L 100 520 z M 80 520 L 80 500 L 60 500 L 60 520 L 80 520 z M 60 520 L 40 520 L 40 540 L 60 540 L 60 520 z M 40 520 L 40 500 L 20 500 L 20 520 L 40 520 z M 40 500 L 60 500 L 60 480 L 40 480 L 40 500 z M 40 480 L 40 460 L 20 460 L 20 480 L 40 480 z M 40 460 L 60 460 L 60 440 L 40 440 L 40 460 z M 40 440 L 40 420 L 20 420 L 20 440 L 40 440 z M 60 440 L 80 440 L 80 420 L 60 420 L 60 440 z M 80 440 L 80 460 L 100 460 L 100 440 L 80 440 z M 100 440 L 120 440 L 120 420 L 100 420 L 100 440 z M 120 440 L 120 460 L 140 460 L 140 440 L 120 440 z M 140 460 L 140 480 L 160 480 L 160 460 L 140 460 z M 160 480 L 160 500 L 180 500 L 180 480 L 160 480 z M 140 480 L 120 480 L 120 500 L 140 500 L 140 480 z M 120 480 L 120 460 L 100 460 L 100 480 L 120 480 z M 100 480 L 80 480 L 80 500 L 100 500 L 100 480 z M 80 480 L 80 460 L 60 460 L 60 480 L 80 480 z M 360 500 L 380 500 L 380 480 L 360 480 L 360 500 z M 380 480 L 400 480 L 400 460 L 380 460 L 380 480 z M 400 460 L 420 460 L 420 440 L 400 440 L 400 460 z M 420 440 L 440 440 L 440 420 L 420 420 L 420 440 z M 440 440 L 440 460 L 460 460 L 460 440 L 440 440 z M 440 460 L 420 460 L 420 480 L 440 480 L 440 460 z M 440 480 L 440 500 L 460 500 L 460 480 L 440 480 z M 420 480 L 400 480 L 400 500 L 420 500 L 420 480 z "
     id="rect1252" />
  <path
     style="fill:#000000"
     d="M 620 120 L 620 140 L 620 160 L 620 180 L 620 200 L 620 220 L 620 240 L 620 260 L 620 280 L 620 300 L 620 320 L 640 320 L 640 300 L 640 280 L 640 260 L 640 240 L 640 220 L 640 200 L 640 180 L 640 160 L 640 140 L 640 120 L 620 120 z M 620 320 L 600 320 L 600 340 L 600 360 L 620 360 L 620 340 L 620 320 z M 600 360 L 580 360 L 580 380 L 580 400 L 600 400 L 600 380 L 600 360 z M 580 400 L 560 400 L 560 420 L 560 440 L 580 440 L 580 420 L 580 400 z M 560 440 L 540 440 L 540 460 L 540 480 L 560 480 L 560 460 L 560 440 z M 540 480 L 520 480 L 520 500 L 520 520 L 540 520 L 540 500 L 540 480 z M 520 520 L 500 520 L 500 540 L 480 540 L 460 540 L 440 540 L 420 540 L 400 540 L 380 540 L 360 540 L 340 540 L 320 540 L 300 540 L 280 540 L 260 540 L 240 540 L 220 540 L 200 540 L 180 540 L 160 540 L 140 540 L 120 540 L 100 540 L 80 540 L 60 540 L 40 540 L 20 540 L 0 540 L 0 560 L 20 560 L 40 560 L 60 560 L 80 560 L 100 560 L 120 560 L 140 560 L 160 560 L 180 560 L 200 560 L 220 560 L 240 560 L 260 560 L 280 560 L 300 560 L 320 560 L 340 560 L 360 560 L 380 560 L 400 560 L 420 560 L 440 560 L 460 560 L 480 560 L 500 560 L 520 560 L 520 540 L 520 520 z M 160 240 L 160 260 L 180 260 L 200 260 L 220 260 L 240 260 L 260 260 L 260 240 L 240 240 L 220 240 L 200 240 L 180 240 L 160 240 z M 160 260 L 140 260 L 140 280 L 140 300 L 160 300 L 160 280 L 160 260 z M 140 300 L 120 300 L 120 320 L 120 340 L 140 340 L 140 320 L 140 300 z M 120 340 L 100 340 L 80 340 L 60 340 L 40 340 L 40 360 L 60 360 L 80 360 L 100 360 L 120 360 L 120 340 z "
     id="rect1306" />
</svg>
