<?xml version="1.0" encoding="UTF-8" standalone="no"?>
<svg
   xmlns:dc="http://purl.org/dc/elements/1.1/"
   xmlns:cc="http://creativecommons.org/ns#"
   xmlns:rdf="http://www.w3.org/1999/02/22-rdf-syntax-ns#"
   xmlns:svg="http://www.w3.org/2000/svg"
   xmlns="http://www.w3.org/2000/svg"
   height="144px"
   version="1.1"
   width="144px"
   id="svg3658">
  <metadata
     id="metadata3662">
    <rdf:RDF>
      <cc:Work
         rdf:about="">
        <dc:format>image/svg+xml</dc:format>
        <dc:type
           rdf:resource="http://purl.org/dc/dcmitype/StillImage" />
      </cc:Work>
    </rdf:RDF>
  </metadata>
  <defs
     id="defs2" />
  <path
     id="rect2438"
     d="M 60 93 L 60 96 L 63 96 L 63 93 L 60 93 z M 60 96 L 57 96 L 57 99 L 60 99 L 60 96 z "
     style="fill:#ffff33" />
  <path
     id="rect2514"
     d="M 54 99 L 54 102 L 57 102 L 57 99 L 54 99 z "
     style="fill:#ffff39" />
  <path
     id="rect2590"
     d="M 51 102 L 51 105 L 54 105 L 54 102 L 51 102 z "
     style="fill:#ffff3b" />
  <path
     id="rect2666"
     d="M 48 105 L 48 108 L 51 108 L 51 105 L 48 105 z "
     style="fill:#ffff3c" />
  <path
     id="rect2932"
     d="M 69 45 L 69 48 L 69 51 L 69 54 L 69 57 L 66 57 L 63 57 L 63 60 L 63 63 L 60 63 L 57 63 L 54 63 L 51 63 L 48 63 L 45 63 L 42 63 L 39 63 L 36 63 L 36 66 L 39 66 L 42 66 L 42 69 L 45 69 L 45 72 L 45 75 L 48 75 L 51 75 L 51 78 L 51 81 L 54 81 L 54 84 L 54 87 L 54 90 L 54 93 L 51 93 L 51 96 L 51 99 L 51 102 L 54 102 L 54 99 L 57 99 L 57 96 L 60 96 L 60 93 L 63 93 L 63 96 L 60 96 L 60 99 L 57 99 L 57 102 L 54 102 L 54 105 L 51 105 L 51 108 L 48 108 L 48 105 L 45 105 L 45 108 L 45 111 L 45 114 L 45 117 L 48 117 L 48 114 L 51 114 L 51 111 L 54 111 L 54 108 L 57 108 L 57 105 L 60 105 L 60 102 L 63 102 L 63 99 L 66 99 L 66 96 L 69 96 L 72 96 L 75 96 L 78 96 L 78 99 L 81 99 L 81 102 L 84 102 L 84 105 L 87 105 L 87 108 L 90 108 L 90 111 L 93 111 L 93 114 L 96 114 L 96 117 L 99 117 L 99 114 L 99 111 L 99 108 L 99 105 L 96 105 L 93 105 L 93 102 L 93 99 L 93 96 L 93 93 L 90 93 L 90 90 L 90 87 L 90 84 L 90 81 L 93 81 L 93 78 L 93 75 L 96 75 L 99 75 L 99 72 L 99 69 L 102 69 L 102 66 L 105 66 L 108 66 L 108 63 L 105 63 L 102 63 L 99 63 L 96 63 L 93 63 L 90 63 L 87 63 L 84 63 L 81 63 L 81 60 L 81 57 L 78 57 L 75 57 L 75 54 L 75 51 L 75 48 L 75 45 L 72 45 L 69 45 z "
     style="fill:#ffff00" />
  <path
     id="rect3048"
     d="M 36 120 L 36 123 L 39 123 L 39 120 L 36 120 z "
     style="fill:#87870f" />
  <path
     id="rect3096"
     d="M 69 27 L 69 30 L 69 33 L 72 33 L 75 33 L 75 30 L 75 27 L 72 27 L 69 27 z M 75 33 L 75 36 L 78 36 L 78 33 L 75 33 z M 78 36 L 78 39 L 78 42 L 78 45 L 81 45 L 81 42 L 81 39 L 81 36 L 78 36 z M 81 45 L 81 48 L 84 48 L 84 45 L 81 45 z M 84 48 L 84 51 L 84 54 L 84 57 L 87 57 L 87 54 L 87 51 L 87 48 L 84 48 z M 87 57 L 87 60 L 90 60 L 93 60 L 96 60 L 99 60 L 102 60 L 105 60 L 108 60 L 111 60 L 114 60 L 114 63 L 114 66 L 117 66 L 117 63 L 117 60 L 120 60 L 120 57 L 117 57 L 114 57 L 111 57 L 108 57 L 105 57 L 102 57 L 99 57 L 96 57 L 93 57 L 90 57 L 87 57 z M 114 66 L 111 66 L 111 69 L 114 69 L 114 66 z M 111 69 L 108 69 L 108 72 L 111 72 L 111 69 z M 108 72 L 105 72 L 105 75 L 108 75 L 108 72 z M 105 75 L 102 75 L 102 78 L 105 78 L 105 75 z M 102 78 L 99 78 L 99 81 L 102 81 L 102 78 z M 99 81 L 96 81 L 96 84 L 96 87 L 96 90 L 96 93 L 99 93 L 99 90 L 99 87 L 99 84 L 99 81 z M 99 93 L 99 96 L 99 99 L 102 99 L 102 96 L 102 93 L 99 93 z M 102 99 L 102 102 L 102 105 L 105 105 L 105 102 L 105 99 L 102 99 z M 105 105 L 105 108 L 105 111 L 105 114 L 108 114 L 108 111 L 108 108 L 108 105 L 105 105 z M 108 114 L 108 117 L 108 120 L 105 120 L 102 120 L 102 123 L 105 123 L 108 123 L 111 123 L 111 120 L 111 117 L 111 114 L 108 114 z M 69 33 L 66 33 L 66 36 L 69 36 L 69 33 z M 66 36 L 63 36 L 63 39 L 63 42 L 63 45 L 66 45 L 66 42 L 66 39 L 66 36 z M 63 45 L 60 45 L 60 48 L 63 48 L 63 45 z M 60 48 L 57 48 L 57 51 L 57 54 L 57 57 L 60 57 L 60 54 L 60 51 L 60 48 z M 57 57 L 54 57 L 51 57 L 48 57 L 45 57 L 42 57 L 39 57 L 36 57 L 33 57 L 30 57 L 27 57 L 24 57 L 24 60 L 27 60 L 27 63 L 27 66 L 30 66 L 30 63 L 30 60 L 33 60 L 36 60 L 39 60 L 42 60 L 45 60 L 48 60 L 51 60 L 54 60 L 57 60 L 57 57 z M 30 66 L 30 69 L 33 69 L 33 66 L 30 66 z M 33 69 L 33 72 L 36 72 L 36 69 L 33 69 z M 36 72 L 36 75 L 39 75 L 39 72 L 36 72 z M 39 75 L 39 78 L 42 78 L 42 75 L 39 75 z M 42 78 L 42 81 L 45 81 L 45 78 L 42 78 z M 45 81 L 45 84 L 45 87 L 45 90 L 45 93 L 48 93 L 48 90 L 48 87 L 48 84 L 48 81 L 45 81 z M 45 93 L 42 93 L 42 96 L 42 99 L 45 99 L 45 96 L 45 93 z M 42 99 L 39 99 L 39 102 L 39 105 L 42 105 L 42 102 L 42 99 z M 39 105 L 36 105 L 36 108 L 36 111 L 36 114 L 39 114 L 39 111 L 39 108 L 39 105 z M 36 114 L 33 114 L 33 117 L 33 120 L 33 123 L 36 123 L 36 120 L 36 117 L 36 114 z M 66 96 L 66 99 L 69 99 L 72 99 L 75 99 L 78 99 L 78 96 L 75 96 L 72 96 L 69 96 L 66 96 z M 39 120 L 39 123 L 42 123 L 42 120 L 39 120 z "
     style="fill:#808000" />
  <path
     id="rect3496"
     d="M 18 3 L 18 6 L 18 9 L 18 12 L 18 15 L 18 18 L 18 21 L 18 24 L 18 27 L 18 30 L 18 33 L 18 36 L 18 39 L 18 42 L 18 45 L 18 48 L 18 51 L 18 54 L 18 57 L 18 60 L 18 63 L 18 66 L 18 69 L 18 72 L 18 75 L 18 78 L 18 81 L 18 84 L 18 87 L 18 90 L 18 93 L 18 96 L 18 99 L 18 102 L 18 105 L 18 108 L 18 111 L 18 114 L 18 117 L 18 120 L 18 123 L 18 126 L 18 129 L 18 132 L 18 135 L 18 138 L 21 138 L 24 138 L 27 138 L 30 138 L 33 138 L 36 138 L 39 138 L 42 138 L 45 138 L 48 138 L 51 138 L 54 138 L 57 138 L 60 138 L 63 138 L 66 138 L 69 138 L 72 138 L 75 138 L 78 138 L 81 138 L 84 138 L 87 138 L 90 138 L 93 138 L 96 138 L 99 138 L 102 138 L 105 138 L 108 138 L 111 138 L 114 138 L 117 138 L 120 138 L 123 138 L 126 138 L 126 135 L 126 132 L 126 129 L 126 126 L 126 123 L 126 120 L 126 117 L 126 114 L 126 111 L 126 108 L 126 105 L 126 102 L 126 99 L 126 96 L 126 93 L 126 90 L 126 87 L 126 84 L 126 81 L 126 78 L 126 75 L 126 72 L 126 69 L 126 66 L 126 63 L 126 60 L 126 57 L 126 54 L 126 51 L 126 48 L 126 45 L 126 42 L 126 39 L 126 36 L 126 33 L 123 33 L 120 33 L 117 33 L 114 33 L 111 33 L 108 33 L 105 33 L 102 33 L 102 30 L 102 27 L 102 24 L 102 21 L 102 18 L 102 15 L 102 12 L 102 9 L 102 6 L 102 3 L 99 3 L 96 3 L 93 3 L 90 3 L 87 3 L 84 3 L 81 3 L 78 3 L 75 3 L 72 3 L 69 3 L 66 3 L 63 3 L 60 3 L 57 3 L 54 3 L 51 3 L 48 3 L 45 3 L 42 3 L 39 3 L 36 3 L 33 3 L 30 3 L 27 3 L 24 3 L 21 3 L 18 3 z M 105 12 L 105 15 L 105 18 L 105 21 L 105 24 L 105 27 L 105 30 L 108 30 L 111 30 L 114 30 L 117 30 L 120 30 L 123 30 L 123 27 L 120 27 L 120 24 L 117 24 L 117 21 L 114 21 L 114 18 L 111 18 L 111 15 L 108 15 L 108 12 L 105 12 z M 69 27 L 72 27 L 75 27 L 75 30 L 75 33 L 78 33 L 78 36 L 81 36 L 81 39 L 81 42 L 81 45 L 84 45 L 84 48 L 87 48 L 87 51 L 87 54 L 87 57 L 90 57 L 93 57 L 96 57 L 99 57 L 102 57 L 105 57 L 108 57 L 111 57 L 114 57 L 117 57 L 120 57 L 120 60 L 117 60 L 117 63 L 117 66 L 114 66 L 114 69 L 111 69 L 111 72 L 108 72 L 108 75 L 105 75 L 105 78 L 102 78 L 102 81 L 99 81 L 99 84 L 99 87 L 99 90 L 99 93 L 102 93 L 102 96 L 102 99 L 105 99 L 105 102 L 105 105 L 108 105 L 108 108 L 108 111 L 108 114 L 111 114 L 111 117 L 111 120 L 111 123 L 108 123 L 105 123 L 102 123 L 99 123 L 99 120 L 96 120 L 96 117 L 93 117 L 93 114 L 90 114 L 90 111 L 87 111 L 87 108 L 84 108 L 84 105 L 81 105 L 81 102 L 78 102 L 78 99 L 75 99 L 72 99 L 69 99 L 66 99 L 66 102 L 63 102 L 63 105 L 60 105 L 60 108 L 57 108 L 57 111 L 54 111 L 54 114 L 51 114 L 51 117 L 48 117 L 48 120 L 45 120 L 45 123 L 42 123 L 39 123 L 36 123 L 33 123 L 33 120 L 33 117 L 33 114 L 36 114 L 36 111 L 36 108 L 36 105 L 39 105 L 39 102 L 39 99 L 42 99 L 42 96 L 42 93 L 45 93 L 45 90 L 45 87 L 45 84 L 45 81 L 42 81 L 42 78 L 39 78 L 39 75 L 36 75 L 36 72 L 33 72 L 33 69 L 30 69 L 30 66 L 27 66 L 27 63 L 27 60 L 24 60 L 24 57 L 27 57 L 30 57 L 33 57 L 36 57 L 39 57 L 42 57 L 45 57 L 48 57 L 51 57 L 54 57 L 57 57 L 57 54 L 57 51 L 57 48 L 60 48 L 60 45 L 63 45 L 63 42 L 63 39 L 63 36 L 66 36 L 66 33 L 69 33 L 69 30 L 69 27 z M 69 33 L 69 36 L 66 36 L 66 39 L 66 42 L 66 45 L 63 45 L 63 48 L 60 48 L 60 51 L 60 54 L 60 57 L 57 57 L 57 60 L 54 60 L 51 60 L 48 60 L 45 60 L 42 60 L 39 60 L 36 60 L 33 60 L 30 60 L 30 63 L 30 66 L 33 66 L 33 69 L 36 69 L 36 72 L 39 72 L 39 75 L 42 75 L 42 78 L 45 78 L 45 81 L 48 81 L 48 84 L 48 87 L 48 90 L 48 93 L 45 93 L 45 96 L 45 99 L 42 99 L 42 102 L 42 105 L 39 105 L 39 108 L 39 111 L 39 114 L 36 114 L 36 117 L 36 120 L 39 120 L 42 120 L 45 120 L 45 117 L 45 114 L 45 111 L 45 108 L 45 105 L 48 105 L 51 105 L 51 102 L 51 99 L 51 96 L 51 93 L 54 93 L 54 90 L 54 87 L 54 84 L 54 81 L 51 81 L 51 78 L 51 75 L 48 75 L 45 75 L 45 72 L 45 69 L 42 69 L 42 66 L 39 66 L 36 66 L 36 63 L 39 63 L 42 63 L 45 63 L 48 63 L 51 63 L 54 63 L 57 63 L 60 63 L 63 63 L 63 60 L 63 57 L 66 57 L 69 57 L 69 54 L 69 51 L 69 48 L 69 45 L 72 45 L 75 45 L 75 48 L 75 51 L 75 54 L 75 57 L 78 57 L 81 57 L 81 60 L 81 63 L 84 63 L 87 63 L 90 63 L 93 63 L 96 63 L 99 63 L 102 63 L 105 63 L 108 63 L 108 66 L 105 66 L 102 66 L 102 69 L 99 69 L 99 72 L 99 75 L 96 75 L 93 75 L 93 78 L 93 81 L 90 81 L 90 84 L 90 87 L 90 90 L 90 93 L 93 93 L 93 96 L 93 99 L 93 102 L 93 105 L 96 105 L 99 105 L 99 108 L 99 111 L 99 114 L 99 117 L 99 120 L 102 120 L 105 120 L 108 120 L 108 117 L 108 114 L 105 114 L 105 111 L 105 108 L 105 105 L 102 105 L 102 102 L 102 99 L 99 99 L 99 96 L 99 93 L 96 93 L 96 90 L 96 87 L 96 84 L 96 81 L 99 81 L 99 78 L 102 78 L 102 75 L 105 75 L 105 72 L 108 72 L 108 69 L 111 69 L 111 66 L 114 66 L 114 63 L 114 60 L 111 60 L 108 60 L 105 60 L 102 60 L 99 60 L 96 60 L 93 60 L 90 60 L 87 60 L 87 57 L 84 57 L 84 54 L 84 51 L 84 48 L 81 48 L 81 45 L 78 45 L 78 42 L 78 39 L 78 36 L 75 36 L 75 33 L 72 33 L 69 33 z "
     style="fill:#ffffff" />
  <path
     id="rect3504"
     d="M 15 0 L 15 3 L 15 6 L 15 9 L 15 12 L 15 15 L 15 18 L 15 21 L 15 24 L 15 27 L 15 30 L 15 33 L 15 36 L 15 39 L 15 42 L 15 45 L 15 48 L 15 51 L 15 54 L 15 57 L 15 60 L 15 63 L 15 66 L 15 69 L 15 72 L 15 75 L 15 78 L 15 81 L 15 84 L 15 87 L 15 90 L 15 93 L 15 96 L 15 99 L 15 102 L 15 105 L 15 108 L 15 111 L 15 114 L 15 117 L 15 120 L 15 123 L 15 126 L 15 129 L 15 132 L 15 135 L 15 138 L 15 141 L 18 141 L 21 141 L 21 138 L 18 138 L 18 135 L 18 132 L 18 129 L 18 126 L 18 123 L 18 120 L 18 117 L 18 114 L 18 111 L 18 108 L 18 105 L 18 102 L 18 99 L 18 96 L 18 93 L 18 90 L 18 87 L 18 84 L 18 81 L 18 78 L 18 75 L 18 72 L 18 69 L 18 66 L 18 63 L 18 60 L 18 57 L 18 54 L 18 51 L 18 48 L 18 45 L 18 42 L 18 39 L 18 36 L 18 33 L 18 30 L 18 27 L 18 24 L 18 21 L 18 18 L 18 15 L 18 12 L 18 9 L 18 6 L 18 3 L 21 3 L 24 3 L 27 3 L 30 3 L 33 3 L 36 3 L 39 3 L 42 3 L 45 3 L 48 3 L 51 3 L 54 3 L 57 3 L 60 3 L 63 3 L 66 3 L 69 3 L 72 3 L 75 3 L 78 3 L 81 3 L 84 3 L 87 3 L 90 3 L 93 3 L 96 3 L 99 3 L 102 3 L 102 6 L 102 9 L 102 12 L 102 15 L 102 18 L 102 21 L 102 24 L 102 27 L 102 30 L 102 33 L 105 33 L 105 30 L 105 27 L 105 24 L 105 21 L 105 18 L 105 15 L 105 12 L 105 9 L 108 9 L 108 6 L 105 6 L 105 3 L 105 0 L 102 0 L 99 0 L 96 0 L 93 0 L 90 0 L 87 0 L 84 0 L 81 0 L 78 0 L 75 0 L 72 0 L 69 0 L 66 0 L 63 0 L 60 0 L 57 0 L 54 0 L 51 0 L 48 0 L 45 0 L 42 0 L 39 0 L 36 0 L 33 0 L 30 0 L 27 0 L 24 0 L 21 0 L 18 0 L 15 0 z M 108 9 L 108 12 L 111 12 L 111 9 L 108 9 z M 111 12 L 111 15 L 114 15 L 114 12 L 111 12 z M 114 15 L 114 18 L 117 18 L 117 15 L 114 15 z M 117 18 L 117 21 L 120 21 L 120 18 L 117 18 z M 120 21 L 120 24 L 123 24 L 123 21 L 120 21 z M 123 24 L 123 27 L 126 27 L 126 24 L 123 24 z M 126 27 L 126 30 L 129 30 L 129 27 L 126 27 z "
     style="fill:#808080" />
  <path
     id="rect3576"
     d="M 105 9 L 105 12 L 108 12 L 108 9 L 105 9 z M 108 12 L 108 15 L 111 15 L 111 12 L 108 12 z M 111 15 L 111 18 L 114 18 L 114 15 L 111 15 z M 114 18 L 114 21 L 117 21 L 117 18 L 114 18 z M 117 21 L 117 24 L 120 24 L 120 21 L 117 21 z M 120 24 L 120 27 L 123 27 L 123 24 L 120 24 z M 123 27 L 123 30 L 126 30 L 126 27 L 123 27 z M 126 33 L 126 36 L 126 39 L 126 42 L 126 45 L 126 48 L 126 51 L 126 54 L 126 57 L 126 60 L 126 63 L 126 66 L 126 69 L 126 72 L 126 75 L 126 78 L 126 81 L 126 84 L 126 87 L 126 90 L 126 93 L 126 96 L 126 99 L 126 102 L 126 105 L 126 108 L 126 111 L 126 114 L 126 117 L 126 120 L 126 123 L 126 126 L 126 129 L 126 132 L 126 135 L 126 138 L 123 138 L 120 138 L 117 138 L 114 138 L 111 138 L 108 138 L 105 138 L 102 138 L 99 138 L 96 138 L 93 138 L 90 138 L 87 138 L 84 138 L 81 138 L 78 138 L 75 138 L 72 138 L 69 138 L 66 138 L 63 138 L 60 138 L 57 138 L 54 138 L 51 138 L 48 138 L 45 138 L 42 138 L 39 138 L 36 138 L 33 138 L 30 138 L 27 138 L 24 138 L 21 138 L 21 141 L 24 141 L 27 141 L 30 141 L 33 141 L 36 141 L 39 141 L 42 141 L 45 141 L 48 141 L 51 141 L 54 141 L 57 141 L 60 141 L 63 141 L 66 141 L 69 141 L 72 141 L 75 141 L 78 141 L 81 141 L 84 141 L 87 141 L 90 141 L 93 141 L 96 141 L 99 141 L 102 141 L 105 141 L 108 141 L 111 141 L 114 141 L 117 141 L 120 141 L 123 141 L 126 141 L 129 141 L 129 138 L 129 135 L 129 132 L 129 129 L 129 126 L 129 123 L 129 120 L 129 117 L 129 114 L 129 111 L 129 108 L 129 105 L 129 102 L 129 99 L 129 96 L 129 93 L 129 90 L 129 87 L 129 84 L 129 81 L 129 78 L 129 75 L 129 72 L 129 69 L 129 66 L 129 63 L 129 60 L 129 57 L 129 54 L 129 51 L 129 48 L 129 45 L 129 42 L 129 39 L 129 36 L 129 33 L 126 33 z "
     style="fill:#c0c0c0" />
  <path
     id="rect3656"
     d="M 105 3 L 105 6 L 108 6 L 108 3 L 105 3 z M 108 6 L 108 9 L 111 9 L 111 6 L 108 6 z M 111 9 L 111 12 L 114 12 L 114 9 L 111 9 z M 114 12 L 114 15 L 117 15 L 117 12 L 114 12 z M 117 15 L 117 18 L 120 18 L 120 15 L 117 15 z M 120 18 L 120 21 L 123 21 L 123 18 L 120 18 z M 123 21 L 123 24 L 126 24 L 126 21 L 123 21 z M 126 24 L 126 27 L 129 27 L 129 24 L 126 24 z M 129 27 L 129 30 L 126 30 L 123 30 L 120 30 L 117 30 L 114 30 L 111 30 L 108 30 L 105 30 L 105 33 L 108 33 L 111 33 L 114 33 L 117 33 L 120 33 L 123 33 L 126 33 L 129 33 L 129 36 L 129 39 L 129 42 L 129 45 L 129 48 L 129 51 L 129 54 L 129 57 L 129 60 L 129 63 L 129 66 L 129 69 L 129 72 L 129 75 L 129 78 L 129 81 L 129 84 L 129 87 L 129 90 L 129 93 L 129 96 L 129 99 L 129 102 L 129 105 L 129 108 L 129 111 L 129 114 L 129 117 L 129 120 L 129 123 L 129 126 L 129 129 L 129 132 L 129 135 L 129 138 L 129 141 L 126 141 L 123 141 L 120 141 L 117 141 L 114 141 L 111 141 L 108 141 L 105 141 L 102 141 L 99 141 L 96 141 L 93 141 L 90 141 L 87 141 L 84 141 L 81 141 L 78 141 L 75 141 L 72 141 L 69 141 L 66 141 L 63 141 L 60 141 L 57 141 L 54 141 L 51 141 L 48 141 L 45 141 L 42 141 L 39 141 L 36 141 L 33 141 L 30 141 L 27 141 L 24 141 L 21 141 L 18 141 L 15 141 L 15 144 L 18 144 L 21 144 L 24 144 L 27 144 L 30 144 L 33 144 L 36 144 L 39 144 L 42 144 L 45 144 L 48 144 L 51 144 L 54 144 L 57 144 L 60 144 L 63 144 L 66 144 L 69 144 L 72 144 L 75 144 L 78 144 L 81 144 L 84 144 L 87 144 L 90 144 L 93 144 L 96 144 L 99 144 L 102 144 L 105 144 L 108 144 L 111 144 L 114 144 L 117 144 L 120 144 L 123 144 L 126 144 L 129 144 L 132 144 L 132 141 L 132 138 L 132 135 L 132 132 L 132 129 L 132 126 L 132 123 L 132 120 L 132 117 L 132 114 L 132 111 L 132 108 L 132 105 L 132 102 L 132 99 L 132 96 L 132 93 L 132 90 L 132 87 L 132 84 L 132 81 L 132 78 L 132 75 L 132 72 L 132 69 L 132 66 L 132 63 L 132 60 L 132 57 L 132 54 L 132 51 L 132 48 L 132 45 L 132 42 L 132 39 L 132 36 L 132 33 L 132 30 L 132 27 L 129 27 z M 63 99 L 63 102 L 66 102 L 66 99 L 63 99 z M 63 102 L 60 102 L 60 105 L 63 105 L 63 102 z M 60 105 L 57 105 L 57 108 L 60 108 L 60 105 z M 57 108 L 54 108 L 54 111 L 57 111 L 57 108 z M 54 111 L 51 111 L 51 114 L 54 114 L 54 111 z M 51 114 L 48 114 L 48 117 L 51 117 L 51 114 z M 48 117 L 45 117 L 45 120 L 48 120 L 48 117 z M 45 120 L 42 120 L 42 123 L 45 123 L 45 120 z M 78 99 L 78 102 L 81 102 L 81 99 L 78 99 z M 81 102 L 81 105 L 84 105 L 84 102 L 81 102 z M 84 105 L 84 108 L 87 108 L 87 105 L 84 105 z M 87 108 L 87 111 L 90 111 L 90 108 L 87 108 z M 90 111 L 90 114 L 93 114 L 93 111 L 90 111 z M 93 114 L 93 117 L 96 117 L 96 114 L 93 114 z M 96 117 L 96 120 L 99 120 L 99 117 L 96 117 z M 99 120 L 99 123 L 102 123 L 102 120 L 99 120 z "
     style="fill:#000000" />
</svg>
