/* XPM */
static char * bottom_left_active_xpm[] = {
"24 24 7 1",
" 	c None",
".	c #000000 s active_shadow_1",
"$	c #FF00FF s active_hilight_1",
"+	c #FFFF00 s active_hilight_2",
"@	c #C0C0C0 s active_mid_1",
"#	c #808080 s active_shadow_2",
"&      c #FF00FF s active_border_color",
"$$++&&@@@@              ",
"$$++&&@@@@              ",
"$$++&&@@@@              ",
"$$++&&@@@@              ",
"$$++&&@@@@              ",
"$$++&&@@@@              ",
"$$++&&@@@@              ",
"$$++&&@@@@              ",
"$$++&&@@@@              ",
"$$++&&@@@@              ",
"$$++&&@@@@              ",
"$$++&&@@@@              ",
"$$++&&@@@@              ",
"$$++&&@@@@              ",
"$$++&&@@@@@@@@@@@@@@@@@@",
"$$++&&@@@@@@@@@@@@@@@@@@",
"$$++&&@@@@@@@@@@@@@@@@@@",
"$$++&&@@@@@@@@@@@@@@@@@@",
"$$++&&&&&&&&&&&&&&&&&&&&",
"$$++&&&&&&&&&&&&&&&&&&&&",
"$$######################",
"$$######################",
"........................",
"........................"};
