/* XPM */
static char * hide_active_xpm[] = {
"32 48 7 1",
"       c None",
".      c #ff00ff s active_mid_2",
"&      c #000000 s active_shadow_1",
"+      c #FFFFFF s active_hilight_2",
"S      c #DFDFDF s active_hilight_1",
"@      c #C0C0C0 s active_mid_1",
"#      c #808080 s active_shadow_2",
"                                ",
"                                ",
"                                ",
"                                ",
"                                ",
"                                ",
"                                ",
"                                ",
"                                ",
"                                ",
"                                ",
"                                ",
"++++++++++++++++++++++++++++++&&",
"++++++++++++++++++++++++++++++&&",
"++SSSSSSSSSSSSSSSSSSSSSSSSSS##&&",
"++SSSSSSSSSSSSSSSSSSSSSSSSSS##&&",
"++SS@@@@@@@@@@@@@@@@@@@@@@@@##&&",
"++SS@@@@@@@@@@@@@@@@@@@@@@@@##&&",
"++SS@@@@@@@@@@@@@@@@@@@@@@@@##&&",
"++SS@@@@@@@@@@@@@@@@@@@@@@@@##&&",
"++SS@@@@@@@@@@@@@@@@@@@@@@@@##&&",
"++SS@@@@@@@@@@@@@@@@@@@@@@@@##&&",
"++SS@@@@@@@@@@@@@@@@@@@@@@@@##&&",
"++SS@@@@@@@@@@@@@@@@@@@@@@@@##&&",
"++SS@@@@@@@@@@@@@@@@@@@@@@@@##&&",
"++SS@@@@@@@@@@@@@@@@@@@@@@@@##&&",
"++SS@@@@@@@@@@@@@@@@@@@@@@@@##&&",
"++SS@@@@@@@@@@@@@@@@@@@@@@@@##&&",
"++SS@@@@@@@@@@@@@@@@@@@@@@@@##&&",
"++SS@@@@@@@@@@@@@@@@@@@@@@@@##&&",
"++SS@@@@............@@@@@@@@##&&",
"++SS@@@@............@@@@@@@@##&&",
"++SS@@@@............@@@@@@@@##&&",
"++SS@@@@............@@@@@@@@##&&",
"++SS@@@@@@@@@@@@@@@@@@@@@@@@##&&",
"++SS@@@@@@@@@@@@@@@@@@@@@@@@##&&",
"++############################&&",
"++############################&&",
"&&&&&&&&&&&&&&&&&&&&&&&&&&&&&&&&",
"&&&&&&&&&&&&&&&&&&&&&&&&&&&&&&&&",
"                                ",
"                                ",
"                                ",
"                                ",
"                                ",
"                                ",
"                                ",
"                                "};
