/* XPM */
static char * hide_inactive_xpm[] = {
"32 48 7 1",
"       c None",
".      c #ff00ff s inactive_mid_2",
"&      c #000000 s inactive_shadow_1",
"+      c #FFFFFF s inactive_hilight_2",
"S      c #DFDFDF s inactive_hilight_1",
"@      c #C0C0C0 s inactive_mid_1",
"#      c #808080 s inactive_shadow_2",
"                                ",
"                                ",
"                                ",
"                                ",
"                                ",
"                                ",
"                                ",
"                                ",
"                                ",
"                                ",
"                                ",
"                                ",
"++++++++++++++++++++++++++++++&&",
"++++++++++++++++++++++++++++++&&",
"++SSSSSSSSSSSSSSSSSSSSSSSSSS##&&",
"++SSSSSSSSSSSSSSSSSSSSSSSSSS##&&",
"++SS@@@@@@@@@@@@@@@@@@@@@@@@##&&",
"++SS@@@@@@@@@@@@@@@@@@@@@@@@##&&",
"++SS@@@@@@@@@@@@@@@@@@@@@@@@##&&",
"++SS@@@@@@@@@@@@@@@@@@@@@@@@##&&",
"++SS@@@@@@@@@@@@@@@@@@@@@@@@##&&",
"++SS@@@@@@@@@@@@@@@@@@@@@@@@##&&",
"++SS@@@@@@@@@@@@@@@@@@@@@@@@##&&",
"++SS@@@@@@@@@@@@@@@@@@@@@@@@##&&",
"++SS@@@@@@@@@@@@@@@@@@@@@@@@##&&",
"++SS@@@@@@@@@@@@@@@@@@@@@@@@##&&",
"++SS@@@@@@@@@@@@@@@@@@@@@@@@##&&",
"++SS@@@@@@@@@@@@@@@@@@@@@@@@##&&",
"++SS@@@@@@@@@@@@@@@@@@@@@@@@##&&",
"++SS@@@@@@@@@@@@@@@@@@@@@@@@##&&",
"++SS@@@@............@@@@@@@@##&&",
"++SS@@@@............@@@@@@@@##&&",
"++SS@@@@............@@@@@@@@##&&",
"++SS@@@@............@@@@@@@@##&&",
"++SS@@@@@@@@@@@@@@@@@@@@@@@@##&&",
"++SS@@@@@@@@@@@@@@@@@@@@@@@@##&&",
"++############################&&",
"++############################&&",
"&&&&&&&&&&&&&&&&&&&&&&&&&&&&&&&&",
"&&&&&&&&&&&&&&&&&&&&&&&&&&&&&&&&",
"                                ",
"                                ",
"                                ",
"                                ",
"                                ",
"                                ",
"                                ",
"                                "};
