/* XPM */
static char * left_inactive_xpm[] = {
"10 2 3 1",
" 	c None",
"+	c #FFFFFF s inactive_hilight_2",
"@	c #C0C0C0 s inactive_color_2",
"@@++@@@@@@",
"@@++@@@@@@"};
