/* XPM */
static char * maximize_inactive_xpm[] = {
"32 48 6 1",
" 	c None",
".	c #FFFFFF",
"+	c #000000",
"@	c #EBEBEB",
"#	c #B2B2B2",
"$	c #D8D8D8",
"                                ",
"                                ",
"                                ",
"                                ",
"                                ",
"                                ",
"                                ",
"                                ",
"                                ",
"                                ",
"                                ",
"                                ",
"..............................++",
"..............................++",
"..@@@@@@@@@@@@@@@@@@@@@@@@@@##++",
"..@@@@@@@@@@@@@@@@@@@@@@@@@@##++",
"..@@$$++++++++++++++++++$$$$##++",
"..@@$$++++++++++++++++++$$$$##++",
"..@@$$++++++++++++++++++$$$$##++",
"..@@$$++++++++++++++++++$$$$##++",
"..@@$$++$$$$$$$$$$$$$$++$$$$##++",
"..@@$$++$$$$$$$$$$$$$$++$$$$##++",
"..@@$$++$$$$$$$$$$$$$$++$$$$##++",
"..@@$$++$$$$$$$$$$$$$$++$$$$##++",
"..@@$$++$$$$$$$$$$$$$$++$$$$##++",
"..@@$$++$$$$$$$$$$$$$$++$$$$##++",
"..@@$$++$$$$$$$$$$$$$$++$$$$##++",
"..@@$$++$$$$$$$$$$$$$$++$$$$##++",
"..@@$$++$$$$$$$$$$$$$$++$$$$##++",
"..@@$$++$$$$$$$$$$$$$$++$$$$##++",
"..@@$$++$$$$$$$$$$$$$$++$$$$##++",
"..@@$$++$$$$$$$$$$$$$$++$$$$##++",
"..@@$$++++++++++++++++++$$$$##++",
"..@@$$++++++++++++++++++$$$$##++",
"..@@$$$$$$$$$$$$$$$$$$$$$$$$##++",
"..@@$$$$$$$$$$$$$$$$$$$$$$$$##++",
"..############################++",
"..############################++",
"++++++++++++++++++++++++++++++++",
"++++++++++++++++++++++++++++++++",
"                                ",
"                                ",
"                                ",
"                                ",
"                                ",
"                                ",
"                                ",
"                                "};
