/* XPM */
static char * maximize_toggled_pressed_xpm[] = {
"32 48 7 1",
"       c None",
"&      c #000000 s active_shadow_1",
"+      c #00FF00 s active_shadow_2",
"S      c #FFFF00 s active_hilight_1",
"@      c #C0C0C0 s active_mid_1",
".      c #ff00ff s active_mid_2",
"#      c #0000ff s active_hilight_2",
"                                ",
"                                ",
"                                ",
"                                ",
"                                ",
"                                ",
"                                ",
"                                ",
"                                ",
"                                ",
"                                ",
"                                ",
"&&&&&&&&&&&&&&&&&&&&&&&&&&&&&&##",
"&&&&&&&&&&&&&&&&&&&&&&&&&&&&&&##",
"&&++++++++++++++++++++++++++SS##",
"&&++++++++++++++++++++++++++SS##",
"&&++@@@@@@@@@@@@@@@@@@@@@@@@SS##",
"&&++@@@@@@@@@@@@@@@@@@@@@@@@SS##",
"&&++@@@@@@@@............@@@@SS##",
"&&++@@@@@@@@............@@@@SS##",
"&&++@@@@@@@@............@@@@SS##",
"&&++@@@@@@@@............@@@@SS##",
"&&++@@@@@@@@..@@@@@@@@..@@@@SS##",
"&&++@@@@@@@@..@@@@@@@@..@@@@SS##",
"&&++@@@@............@@..@@@@SS##",
"&&++@@@@............@@..@@@@SS##",
"&&++@@@@............@@..@@@@SS##",
"&&++@@@@............@@..@@@@SS##",
"&&++@@@@..@@@@@@@@......@@@@SS##",
"&&++@@@@..@@@@@@@@......@@@@SS##",
"&&++@@@@..@@@@@@@@..@@@@@@@@SS##",
"&&++@@@@..@@@@@@@@..@@@@@@@@SS##",
"&&++@@@@..@@@@@@@@..@@@@@@@@SS##",
"&&++@@@@..@@@@@@@@..@@@@@@@@SS##",
"&&++@@@@............@@@@@@@@SS##",
"&&++@@@@............@@@@@@@@SS##",
"&&SSSSSSSSSSSSSSSSSSSSSSSSSSSS##",
"&&SSSSSSSSSSSSSSSSSSSSSSSSSSSS##",
"################################",
"################################",
"                                ",
"                                ",
"                                ",
"                                ",
"                                ",
"                                ",
"                                ",
"                                "};
