/* XPM */
static char * right_active_xpm[] = {
"10 2 5 1",
" 	c None",
".	c #000000 s active_shadow_1",
"#	c #808080 s active_shadow_2",
"@	c #C0C0C0 s active_mid_1",
"&      c #FF00FF s active_border_color",
"@@@@&&##..",
"@@@@&&##.."};
