/* XPM */
static char * title_middle_inactive_xpm[] = {
"4 48 6 1",
" 	c None",
"+	c #FFFFFF s inactive_hilight_2",
"@	c #C0C0C0 s inactive_mid_1",
"#	c #808080 s inactive_hilight_1",
"&      c #FF00FF s inactive_border_color",
"$	c #8CB754 s inactive_color_1",
"####",
"####",
"++++",
"++++",
"&&&&",
"&&&&",
"@@@@",
"@@@@",
"$$$$",
"$$$$",
"$$$$",
"$$$$",
"$$$$",
"$$$$",
"$$$$",
"$$$$",
"$$$$",
"$$$$",
"$$$$",
"$$$$",
"$$$$",
"$$$$",
"$$$$",
"$$$$",
"$$$$",
"$$$$",
"$$$$",
"$$$$",
"$$$$",
"$$$$",
"$$$$",
"$$$$",
"$$$$",
"$$$$",
"$$$$",
"$$$$",
"$$$$",
"$$$$",
"$$$$",
"$$$$",
"$$$$",
"$$$$",
"$$$$",
"$$$$",
"@@@@",
"@@@@",
"@@@@",
"@@@@"};
