/* XPM */
static char * top_right_inactive_xpm[] = {
"8 48 7 1",
" 	c None",
".	c #000000 s inactive_shadow_1",
"+	c #FFFFFF s inactive_hilight_2",
"@	c #C0C0C0 s inactive_mid_1",
"&      c #FF00FF s inactive_border_color",
"#	c #808080 s inactive_shadow_2",
"S      c #FF00FF s inactive_hilight_1",
"SSSSSS..",
"SSSSSS..",
"++++##..",
"++++##..",
"&&&&##..",
"&&&&##..",
"@@&&##..",
"@@&&##..",
"@@&&##..",
"@@&&##..",
"@@&&##..",
"@@&&##..",
"@@&&##..",
"@@&&##..",
"@@&&##..",
"@@&&##..",
"@@&&##..",
"@@&&##..",
"@@&&##..",
"@@&&##..",
"@@&&##..",
"@@&&##..",
"@@&&##..",
"@@&&##..",
"@@&&##..",
"@@&&##..",
"@@&&##..",
"@@&&##..",
"@@&&##..",
"@@&&##..",
"@@&&##..",
"@@&&##..",
"@@&&##..",
"@@&&##..",
"@@&&##..",
"@@&&##..",
"@@&&##..",
"@@&&##..",
"@@&&##..",
"@@&&##..",
"@@&&##..",
"@@&&##..",
"@@&&##..",
"@@&&##..",
"@@&&##..",
"@@&&##..",
"@@&&##..",
"@@&&##.."};
