/* XPM */
static char * top_left_inactive_xpm[] = {
"8 48 6 1",
"       c None",
"$	c #FFFF00 s inactive_hilight_1",
"+	c #00FF00 s inactive_hilight_2",
"@      c #FF00FF s inactive_mid_1",
"#      c #000000 s inactive_shadow_2",
"&      c #0000FF s inactive_border_color",
"$$$$$$$$",
"$$$$$$$$",
"$$++++++",
"$$++++++",
"$$++&&&&",
"$$++&&&&",
"$$++&&@@",
"$$++&&@@",
"$$++&&@@",
"$$++&&@@",
"$$++&&@@",
"$$++&&@@",
"$$++&&@@",
"$$++&&@@",
"$$++&&@@",
"$$++&&@@",
"$$++&&@@",
"$$++&&@@",
"$$++&&@@",
"$$++&&@@",
"$$++&&@@",
"$$++&&@@",
"$$++&&@@",
"$$++&&@@",
"$$++&&@@",
"$$++&&@@",
"$$++&&@@",
"$$++&&@@",
"$$++&&@@",
"$$++&&@@",
"$$++&&@@",
"$$++&&@@",
"$$++&&@@",
"$$++&&@@",
"$$++&&@@",
"$$++&&@@",
"$$++&&@@",
"$$++&&@@",
"$$++&&@@",
"$$++&&@@",
"$$++&&@@",
"$$++&&@@",
"$$++&&@@",
"$$++&&@@",
"$$++&&@@",
"$$++&&@@",
"$$++&&@@",
"$$++&&@@"};
