/* XPM */
static char * top_left_inactive_xpm[] = {
"8 48 4 1",
" 	c None",
"+	c #FFFFFF s inactive_hilight_2",
"@	c #D8D8D8 s inactive_color_2",
"#	c #B2B2B2 s inactive_shadow_2",
"@@@@@@@@",
"@@@@@@@@",
"@@++++++",
"@@++++++",
"@@++@@@@",
"@@++@@@@",
"@@++@@@@",
"@@++@@@@",
"@@++@@@@",
"@@++@@@@",
"@@++@@@@",
"@@++@@@@",
"@@++@@@@",
"@@++@@@@",
"@@++@@@@",
"@@++@@@@",
"@@++@@@@",
"@@++@@@@",
"@@++@@@@",
"@@++@@@@",
"@@++@@@@",
"@@++@@@@",
"@@++@@@@",
"@@++@@@@",
"@@++@@@@",
"@@++@@@@",
"@@++@@@@",
"@@++@@@@",
"@@++@@@@",
"@@++@@@@",
"@@++@@@@",
"@@++@@@@",
"@@++@@@@",
"@@++@@@@",
"@@++@@@@",
"@@++@@@@",
"@@++@@@@",
"@@++@@@@",
"@@++@@@@",
"@@++@@@@",
"@@++@@@@",
"@@++@@@@",
"@@++@@@@",
"@@++@@@@",
"@@++@@@@",
"@@++@@@@",
"@@++@@@@",
"@@++@@@@"};
