<?xml version="1.0" encoding="UTF-8" standalone="no"?>
<svg
   xmlns:dc="http://purl.org/dc/elements/1.1/"
   xmlns:cc="http://creativecommons.org/ns#"
   xmlns:rdf="http://www.w3.org/1999/02/22-rdf-syntax-ns#"
   xmlns:svg="http://www.w3.org/2000/svg"
   xmlns="http://www.w3.org/2000/svg"
   xmlns:sodipodi="http://sodipodi.sourceforge.net/DTD/sodipodi-0.dtd"
   xmlns:inkscape="http://www.inkscape.org/namespaces/inkscape"
   id="svg1628"
   width="128px"
   version="1.1"
   height="128px"
   sodipodi:docname="chicago95_tmp_file.svg"
   inkscape:version="0.92.4 (5da689c313, 2019-01-14)">
  <sodipodi:namedview
     pagecolor="#ffffff"
     bordercolor="#666666"
     borderopacity="1"
     objecttolerance="10"
     gridtolerance="10"
     guidetolerance="10"
     inkscape:pageopacity="0"
     inkscape:pageshadow="2"
     inkscape:window-width="640"
     inkscape:window-height="480"
     id="namedview817"
     showgrid="false"
     inkscape:zoom="1.84375"
     inkscape:cx="64"
     inkscape:cy="64"
     inkscape:window-x="0"
     inkscape:window-y="0"
     inkscape:window-maximized="0"
     inkscape:current-layer="svg1628" />
  <metadata
     id="metadata1632">
    <rdf:RDF>
      <cc:Work
         rdf:about="">
        <dc:format>image/svg+xml</dc:format>
        <dc:type
           rdf:resource="http://purl.org/dc/dcmitype/StillImage" />
      </cc:Work>
    </rdf:RDF>
  </metadata>
  <defs
     id="defs2" />
  <path
     style="fill:#008000"
     d="M 112 24 L 112 28 L 116 28 L 120 28 L 124 28 L 124 24 L 120 24 L 116 24 L 112 24 z "
     id="rect220" />
  <path
     style="fill:#00ff00"
     d="M 112 28 L 112 32 L 112 36 L 116 36 L 120 36 L 124 36 L 124 32 L 124 28 L 120 28 L 116 28 L 112 28 z "
     id="rect348" />
  <path
     style="fill:#800080"
     d="M 112 44 L 112 48 L 116 48 L 120 48 L 124 48 L 124 44 L 120 44 L 116 44 L 112 44 z "
     id="rect538" />
  <path
     style="fill:#ff00ff"
     d="M 112 48 L 112 52 L 112 56 L 116 56 L 120 56 L 124 56 L 124 52 L 124 48 L 120 48 L 116 48 L 112 48 z "
     id="rect666" />
  <path
     style="fill:#808000"
     d="M 112 64 L 112 68 L 116 68 L 120 68 L 124 68 L 124 64 L 120 64 L 116 64 L 112 64 z "
     id="rect856" />
  <path
     style="fill:#ffff00"
     d="M 112 68 L 112 72 L 112 76 L 116 76 L 120 76 L 124 76 L 124 72 L 124 68 L 120 68 L 116 68 L 112 68 z "
     id="rect984" />
  <path
     style="fill:#00ffff"
     d="M 112 88 L 112 92 L 112 96 L 116 96 L 120 96 L 124 96 L 124 92 L 124 88 L 120 88 L 116 88 L 112 88 z "
     id="rect1302" />
  <path
     style="fill:#ffffff"
     d="M 20 16 L 20 20 L 20 24 L 20 28 L 20 32 L 20 36 L 20 40 L 20 44 L 20 48 L 20 52 L 20 56 L 20 60 L 20 64 L 20 68 L 20 72 L 20 76 L 20 80 L 20 84 L 20 88 L 20 92 L 20 96 L 20 100 L 24 100 L 28 100 L 32 100 L 36 100 L 40 100 L 44 100 L 48 100 L 52 100 L 56 100 L 56 96 L 56 92 L 56 88 L 56 84 L 56 80 L 52 80 L 48 80 L 44 80 L 40 80 L 36 80 L 32 80 L 28 80 L 24 80 L 24 76 L 28 76 L 32 76 L 36 76 L 40 76 L 44 76 L 48 76 L 52 76 L 56 76 L 56 72 L 52 72 L 48 72 L 44 72 L 40 72 L 36 72 L 32 72 L 28 72 L 24 72 L 24 68 L 28 68 L 32 68 L 36 68 L 40 68 L 44 68 L 48 68 L 52 68 L 56 68 L 56 64 L 52 64 L 48 64 L 44 64 L 40 64 L 36 64 L 32 64 L 28 64 L 24 64 L 24 60 L 28 60 L 32 60 L 36 60 L 40 60 L 44 60 L 48 60 L 52 60 L 56 60 L 56 56 L 56 52 L 52 52 L 48 52 L 44 52 L 40 52 L 36 52 L 32 52 L 28 52 L 24 52 L 24 48 L 28 48 L 32 48 L 36 48 L 40 48 L 44 48 L 48 48 L 52 48 L 56 48 L 56 44 L 52 44 L 48 44 L 44 44 L 40 44 L 36 44 L 32 44 L 28 44 L 24 44 L 24 40 L 28 40 L 32 40 L 36 40 L 40 40 L 44 40 L 48 40 L 52 40 L 56 40 L 56 36 L 52 36 L 48 36 L 44 36 L 40 36 L 36 36 L 32 36 L 28 36 L 24 36 L 24 32 L 28 32 L 32 32 L 36 32 L 40 32 L 44 32 L 48 32 L 52 32 L 56 32 L 56 28 L 52 28 L 48 28 L 44 28 L 40 28 L 36 28 L 32 28 L 28 28 L 24 28 L 24 24 L 28 24 L 32 24 L 36 24 L 40 24 L 44 24 L 48 24 L 52 24 L 56 24 L 56 20 L 56 16 L 52 16 L 48 16 L 44 16 L 40 16 L 36 16 L 32 16 L 28 16 L 24 16 L 20 16 z M 68 16 L 68 20 L 64 20 L 64 24 L 64 28 L 68 28 L 68 24 L 72 24 L 76 24 L 80 24 L 84 24 L 88 24 L 92 24 L 96 24 L 100 24 L 100 28 L 96 28 L 92 28 L 88 28 L 84 28 L 80 28 L 76 28 L 72 28 L 68 28 L 68 32 L 72 32 L 76 32 L 80 32 L 84 32 L 88 32 L 92 32 L 96 32 L 100 32 L 100 36 L 96 36 L 92 36 L 88 36 L 84 36 L 80 36 L 76 36 L 72 36 L 68 36 L 68 40 L 72 40 L 76 40 L 80 40 L 84 40 L 88 40 L 92 40 L 96 40 L 100 40 L 100 44 L 96 44 L 92 44 L 88 44 L 84 44 L 80 44 L 76 44 L 72 44 L 68 44 L 68 48 L 72 48 L 76 48 L 80 48 L 84 48 L 88 48 L 92 48 L 96 48 L 100 48 L 100 52 L 96 52 L 92 52 L 88 52 L 84 52 L 80 52 L 76 52 L 72 52 L 68 52 L 68 56 L 72 56 L 76 56 L 80 56 L 84 56 L 88 56 L 92 56 L 96 56 L 100 56 L 100 60 L 96 60 L 92 60 L 88 60 L 84 60 L 80 60 L 76 60 L 72 60 L 68 60 L 68 64 L 72 64 L 76 64 L 80 64 L 84 64 L 88 64 L 92 64 L 96 64 L 100 64 L 100 68 L 96 68 L 92 68 L 88 68 L 84 68 L 80 68 L 76 68 L 72 68 L 68 68 L 68 72 L 64 72 L 64 76 L 64 80 L 68 80 L 68 76 L 72 76 L 76 76 L 80 76 L 84 76 L 88 76 L 92 76 L 96 76 L 100 76 L 100 80 L 96 80 L 92 80 L 88 80 L 84 80 L 80 80 L 76 80 L 72 80 L 68 80 L 68 84 L 72 84 L 76 84 L 80 84 L 84 84 L 88 84 L 92 84 L 96 84 L 100 84 L 100 88 L 96 88 L 92 88 L 88 88 L 84 88 L 80 88 L 76 88 L 72 88 L 68 88 L 68 92 L 64 92 L 64 96 L 64 100 L 64 104 L 68 104 L 68 100 L 72 100 L 76 100 L 80 100 L 84 100 L 88 100 L 92 100 L 96 100 L 100 100 L 104 100 L 104 96 L 104 92 L 104 88 L 104 84 L 104 80 L 104 76 L 104 72 L 104 68 L 104 64 L 104 60 L 104 56 L 104 52 L 104 48 L 104 44 L 104 40 L 104 36 L 104 32 L 104 28 L 104 24 L 104 20 L 104 16 L 100 16 L 96 16 L 92 16 L 88 16 L 84 16 L 80 16 L 76 16 L 72 16 L 68 16 z M 68 88 L 68 84 L 64 84 L 64 88 L 68 88 z M 68 68 L 68 64 L 64 64 L 64 68 L 68 68 z M 68 60 L 68 56 L 64 56 L 64 60 L 68 60 z M 68 52 L 68 48 L 64 48 L 64 52 L 68 52 z M 68 44 L 68 40 L 64 40 L 64 44 L 68 44 z M 68 36 L 68 32 L 64 32 L 64 36 L 68 36 z M 12 20 L 12 24 L 12 28 L 12 32 L 12 36 L 12 40 L 12 44 L 12 48 L 12 52 L 12 56 L 12 60 L 12 64 L 12 68 L 12 72 L 12 76 L 12 80 L 12 84 L 12 88 L 12 92 L 12 96 L 12 100 L 12 104 L 16 104 L 16 100 L 16 96 L 16 92 L 16 88 L 16 84 L 16 80 L 16 76 L 16 72 L 16 68 L 16 64 L 16 60 L 16 56 L 16 52 L 16 48 L 16 44 L 16 40 L 16 36 L 16 32 L 16 28 L 16 24 L 16 20 L 12 20 z "
     id="rect1402" />
  <path
     style="fill:#c0c0c0"
     d="M 108 20 L 108 24 L 108 28 L 108 32 L 108 36 L 108 40 L 108 44 L 108 48 L 108 52 L 108 56 L 108 60 L 108 64 L 108 68 L 108 72 L 108 76 L 108 80 L 108 84 L 108 88 L 108 92 L 108 96 L 108 100 L 108 104 L 112 104 L 112 100 L 112 96 L 112 92 L 112 88 L 112 84 L 112 80 L 112 76 L 112 72 L 112 68 L 112 64 L 112 60 L 112 56 L 112 52 L 112 48 L 112 44 L 112 40 L 112 36 L 112 32 L 112 28 L 112 24 L 112 20 L 108 20 z M 24 24 L 24 28 L 28 28 L 32 28 L 36 28 L 40 28 L 44 28 L 48 28 L 52 28 L 56 28 L 56 24 L 52 24 L 48 24 L 44 24 L 40 24 L 36 24 L 32 24 L 28 24 L 24 24 z M 68 24 L 68 28 L 72 28 L 76 28 L 80 28 L 84 28 L 88 28 L 92 28 L 96 28 L 100 28 L 100 24 L 96 24 L 92 24 L 88 24 L 84 24 L 80 24 L 76 24 L 72 24 L 68 24 z M 68 28 L 64 28 L 64 32 L 68 32 L 68 28 z M 68 32 L 68 36 L 72 36 L 76 36 L 80 36 L 84 36 L 88 36 L 92 36 L 96 36 L 100 36 L 100 32 L 96 32 L 92 32 L 88 32 L 84 32 L 80 32 L 76 32 L 72 32 L 68 32 z M 68 36 L 64 36 L 64 40 L 68 40 L 68 36 z M 68 40 L 68 44 L 72 44 L 76 44 L 80 44 L 84 44 L 88 44 L 92 44 L 96 44 L 100 44 L 100 40 L 96 40 L 92 40 L 88 40 L 84 40 L 80 40 L 76 40 L 72 40 L 68 40 z M 68 44 L 64 44 L 64 48 L 68 48 L 68 44 z M 68 48 L 68 52 L 72 52 L 76 52 L 80 52 L 84 52 L 88 52 L 92 52 L 96 52 L 100 52 L 100 48 L 96 48 L 92 48 L 88 48 L 84 48 L 80 48 L 76 48 L 72 48 L 68 48 z M 68 52 L 64 52 L 64 56 L 68 56 L 68 52 z M 68 56 L 68 60 L 72 60 L 76 60 L 80 60 L 84 60 L 88 60 L 92 60 L 96 60 L 100 60 L 100 56 L 96 56 L 92 56 L 88 56 L 84 56 L 80 56 L 76 56 L 72 56 L 68 56 z M 68 60 L 64 60 L 64 64 L 68 64 L 68 60 z M 68 64 L 68 68 L 72 68 L 76 68 L 80 68 L 84 68 L 88 68 L 92 68 L 96 68 L 100 68 L 100 64 L 96 64 L 92 64 L 88 64 L 84 64 L 80 64 L 76 64 L 72 64 L 68 64 z M 68 68 L 64 68 L 64 72 L 68 72 L 68 68 z M 24 32 L 24 36 L 28 36 L 32 36 L 36 36 L 40 36 L 44 36 L 48 36 L 52 36 L 56 36 L 56 32 L 52 32 L 48 32 L 44 32 L 40 32 L 36 32 L 32 32 L 28 32 L 24 32 z M 24 40 L 24 44 L 28 44 L 32 44 L 36 44 L 40 44 L 44 44 L 48 44 L 52 44 L 56 44 L 56 40 L 52 40 L 48 40 L 44 40 L 40 40 L 36 40 L 32 40 L 28 40 L 24 40 z M 24 48 L 24 52 L 28 52 L 32 52 L 36 52 L 40 52 L 44 52 L 48 52 L 52 52 L 56 52 L 56 48 L 52 48 L 48 48 L 44 48 L 40 48 L 36 48 L 32 48 L 28 48 L 24 48 z M 24 60 L 24 64 L 28 64 L 32 64 L 36 64 L 40 64 L 44 64 L 48 64 L 52 64 L 56 64 L 56 60 L 52 60 L 48 60 L 44 60 L 40 60 L 36 60 L 32 60 L 28 60 L 24 60 z M 24 68 L 24 72 L 28 72 L 32 72 L 36 72 L 40 72 L 44 72 L 48 72 L 52 72 L 56 72 L 56 68 L 52 68 L 48 68 L 44 68 L 40 68 L 36 68 L 32 68 L 28 68 L 24 68 z M 24 76 L 24 80 L 28 80 L 32 80 L 36 80 L 40 80 L 44 80 L 48 80 L 52 80 L 56 80 L 56 76 L 52 76 L 48 76 L 44 76 L 40 76 L 36 76 L 32 76 L 28 76 L 24 76 z M 68 76 L 68 80 L 72 80 L 76 80 L 80 80 L 84 80 L 88 80 L 92 80 L 96 80 L 100 80 L 100 76 L 96 76 L 92 76 L 88 76 L 84 76 L 80 76 L 76 76 L 72 76 L 68 76 z M 68 80 L 64 80 L 64 84 L 68 84 L 68 80 z M 68 84 L 68 88 L 72 88 L 76 88 L 80 88 L 84 88 L 88 88 L 92 88 L 96 88 L 100 88 L 100 84 L 96 84 L 92 84 L 88 84 L 84 84 L 80 84 L 76 84 L 72 84 L 68 84 z M 68 88 L 64 88 L 64 92 L 68 92 L 68 88 z M 52 104 L 52 108 L 56 108 L 56 104 L 52 104 z M 68 104 L 68 108 L 72 108 L 72 104 L 68 104 z "
     id="rect1466" />
  <path
     style="fill:#808080"
     d="M 16 12 L 16 16 L 12 16 L 8 16 L 8 20 L 4 20 L 0 20 L 0 24 L 0 28 L 0 32 L 0 36 L 0 40 L 0 44 L 0 48 L 0 52 L 0 56 L 0 60 L 0 64 L 0 68 L 0 72 L 0 76 L 0 80 L 0 84 L 0 88 L 0 92 L 0 96 L 0 100 L 0 104 L 0 108 L 0 112 L 4 112 L 4 108 L 4 104 L 4 100 L 4 96 L 4 92 L 4 88 L 4 84 L 4 80 L 4 76 L 4 72 L 4 68 L 4 64 L 4 60 L 4 56 L 4 52 L 4 48 L 4 44 L 4 40 L 4 36 L 4 32 L 4 28 L 4 24 L 8 24 L 8 28 L 8 32 L 8 36 L 8 40 L 8 44 L 8 48 L 8 52 L 8 56 L 8 60 L 8 64 L 8 68 L 8 72 L 8 76 L 8 80 L 8 84 L 8 88 L 8 92 L 8 96 L 8 100 L 8 104 L 12 104 L 12 100 L 12 96 L 12 92 L 12 88 L 12 84 L 12 80 L 12 76 L 12 72 L 12 68 L 12 64 L 12 60 L 12 56 L 12 52 L 12 48 L 12 44 L 12 40 L 12 36 L 12 32 L 12 28 L 12 24 L 12 20 L 16 20 L 16 24 L 16 28 L 16 32 L 16 36 L 16 40 L 16 44 L 16 48 L 16 52 L 16 56 L 16 60 L 16 64 L 16 68 L 16 72 L 16 76 L 16 80 L 16 84 L 16 88 L 16 92 L 16 96 L 16 100 L 16 104 L 20 104 L 24 104 L 28 104 L 32 104 L 36 104 L 40 104 L 44 104 L 48 104 L 52 104 L 56 104 L 56 108 L 60 108 L 60 104 L 60 100 L 60 96 L 60 92 L 60 88 L 60 84 L 60 80 L 60 76 L 60 72 L 60 68 L 60 64 L 60 60 L 60 56 L 60 52 L 60 48 L 60 44 L 60 40 L 60 36 L 60 32 L 60 28 L 60 24 L 60 20 L 64 20 L 68 20 L 68 16 L 64 16 L 60 16 L 56 16 L 56 20 L 56 24 L 56 28 L 56 32 L 56 36 L 56 40 L 56 44 L 56 48 L 56 52 L 56 56 L 56 60 L 56 64 L 56 68 L 56 72 L 56 76 L 56 80 L 56 84 L 56 88 L 56 92 L 56 96 L 56 100 L 52 100 L 48 100 L 44 100 L 40 100 L 36 100 L 32 100 L 28 100 L 24 100 L 20 100 L 20 96 L 20 92 L 20 88 L 20 84 L 20 80 L 20 76 L 20 72 L 20 68 L 20 64 L 20 60 L 20 56 L 20 52 L 20 48 L 20 44 L 20 40 L 20 36 L 20 32 L 20 28 L 20 24 L 20 20 L 20 16 L 24 16 L 28 16 L 32 16 L 36 16 L 40 16 L 44 16 L 48 16 L 52 16 L 56 16 L 56 12 L 52 12 L 48 12 L 44 12 L 40 12 L 36 12 L 32 12 L 28 12 L 24 12 L 20 12 L 16 12 z M 68 16 L 72 16 L 76 16 L 80 16 L 84 16 L 88 16 L 92 16 L 96 16 L 100 16 L 104 16 L 104 20 L 104 24 L 104 28 L 104 32 L 104 36 L 104 40 L 104 44 L 104 48 L 104 52 L 104 56 L 104 60 L 104 64 L 104 68 L 104 72 L 104 76 L 104 80 L 104 84 L 104 88 L 104 92 L 104 96 L 104 100 L 100 100 L 96 100 L 92 100 L 88 100 L 84 100 L 80 100 L 76 100 L 72 100 L 68 100 L 68 104 L 72 104 L 76 104 L 80 104 L 84 104 L 88 104 L 92 104 L 96 104 L 100 104 L 104 104 L 108 104 L 108 100 L 108 96 L 108 92 L 108 88 L 108 84 L 108 80 L 108 76 L 108 72 L 108 68 L 108 64 L 108 60 L 108 56 L 108 52 L 108 48 L 108 44 L 108 40 L 108 36 L 108 32 L 108 28 L 108 24 L 108 20 L 112 20 L 112 16 L 108 16 L 108 12 L 104 12 L 100 12 L 96 12 L 92 12 L 88 12 L 84 12 L 80 12 L 76 12 L 72 12 L 68 12 L 68 16 z M 68 104 L 64 104 L 64 108 L 68 108 L 68 104 z M 116 20 L 116 24 L 120 24 L 120 20 L 116 20 z "
     id="rect1494" />
  <path
     style="fill:#008080"
     d="M 4 24 L 4 28 L 4 32 L 4 36 L 4 40 L 4 44 L 4 48 L 4 52 L 4 56 L 4 60 L 4 64 L 4 68 L 4 72 L 4 76 L 4 80 L 4 84 L 4 88 L 4 92 L 4 96 L 4 100 L 4 104 L 4 108 L 4 112 L 8 112 L 12 112 L 16 112 L 20 112 L 24 112 L 28 112 L 32 112 L 36 112 L 40 112 L 44 112 L 48 112 L 52 112 L 52 108 L 48 108 L 44 108 L 40 108 L 36 108 L 32 108 L 28 108 L 24 108 L 20 108 L 16 108 L 12 108 L 8 108 L 8 104 L 8 100 L 8 96 L 8 92 L 8 88 L 8 84 L 8 80 L 8 76 L 8 72 L 8 68 L 8 64 L 8 60 L 8 56 L 8 52 L 8 48 L 8 44 L 8 40 L 8 36 L 8 32 L 8 28 L 8 24 L 4 24 z M 52 112 L 52 116 L 56 116 L 60 116 L 64 116 L 68 116 L 72 116 L 72 112 L 68 112 L 64 112 L 60 112 L 56 112 L 52 112 z M 72 112 L 76 112 L 80 112 L 84 112 L 88 112 L 92 112 L 96 112 L 100 112 L 104 112 L 108 112 L 112 112 L 116 112 L 120 112 L 120 108 L 120 104 L 120 100 L 116 100 L 116 104 L 116 108 L 112 108 L 108 108 L 104 108 L 100 108 L 96 108 L 92 108 L 88 108 L 84 108 L 80 108 L 76 108 L 72 108 L 72 112 z M 116 40 L 116 44 L 120 44 L 120 40 L 116 40 z M 116 60 L 116 64 L 120 64 L 120 60 L 116 60 z M 116 80 L 116 84 L 112 84 L 112 88 L 116 88 L 120 88 L 124 88 L 124 84 L 120 84 L 120 80 L 116 80 z "
     id="rect1590" />
  <path
     style="fill:#000000"
     d="M 112 16 L 112 20 L 112 24 L 116 24 L 116 20 L 116 16 L 112 16 z M 60 20 L 60 24 L 60 28 L 60 32 L 60 36 L 60 40 L 60 44 L 60 48 L 60 52 L 60 56 L 60 60 L 60 64 L 60 68 L 60 72 L 60 76 L 60 80 L 60 84 L 60 88 L 60 92 L 60 96 L 60 100 L 60 104 L 60 108 L 56 108 L 52 108 L 52 112 L 56 112 L 60 112 L 64 112 L 68 112 L 72 112 L 72 108 L 68 108 L 64 108 L 64 104 L 64 100 L 64 96 L 64 92 L 64 88 L 64 84 L 64 80 L 64 76 L 64 72 L 64 68 L 64 64 L 64 60 L 64 56 L 64 52 L 64 48 L 64 44 L 64 40 L 64 36 L 64 32 L 64 28 L 64 24 L 64 20 L 60 20 z M 72 108 L 76 108 L 80 108 L 84 108 L 88 108 L 92 108 L 96 108 L 100 108 L 104 108 L 108 108 L 112 108 L 116 108 L 116 104 L 116 100 L 120 100 L 120 104 L 120 108 L 120 112 L 116 112 L 112 112 L 108 112 L 104 112 L 100 112 L 96 112 L 92 112 L 88 112 L 84 112 L 80 112 L 76 112 L 72 112 L 72 116 L 76 116 L 80 116 L 84 116 L 88 116 L 92 116 L 96 116 L 100 116 L 104 116 L 108 116 L 112 116 L 116 116 L 120 116 L 124 116 L 124 112 L 124 108 L 124 104 L 124 100 L 128 100 L 128 96 L 128 92 L 128 88 L 128 84 L 124 84 L 124 88 L 124 92 L 124 96 L 120 96 L 116 96 L 112 96 L 112 100 L 112 104 L 108 104 L 104 104 L 100 104 L 96 104 L 92 104 L 88 104 L 84 104 L 80 104 L 76 104 L 72 104 L 72 108 z M 124 84 L 124 80 L 128 80 L 128 76 L 128 72 L 128 68 L 128 64 L 124 64 L 124 68 L 124 72 L 124 76 L 120 76 L 116 76 L 112 76 L 112 80 L 112 84 L 116 84 L 116 80 L 120 80 L 120 84 L 124 84 z M 124 64 L 124 60 L 128 60 L 128 56 L 128 52 L 128 48 L 128 44 L 124 44 L 124 48 L 124 52 L 124 56 L 120 56 L 116 56 L 112 56 L 112 60 L 112 64 L 116 64 L 116 60 L 120 60 L 120 64 L 124 64 z M 124 44 L 124 40 L 128 40 L 128 36 L 128 32 L 128 28 L 128 24 L 124 24 L 124 28 L 124 32 L 124 36 L 120 36 L 116 36 L 112 36 L 112 40 L 112 44 L 116 44 L 116 40 L 120 40 L 120 44 L 124 44 z M 124 24 L 124 20 L 120 20 L 120 24 L 124 24 z M 72 116 L 68 116 L 64 116 L 60 116 L 56 116 L 52 116 L 52 120 L 56 120 L 60 120 L 64 120 L 68 120 L 72 120 L 72 116 z M 52 116 L 52 112 L 48 112 L 44 112 L 40 112 L 36 112 L 32 112 L 28 112 L 24 112 L 20 112 L 16 112 L 12 112 L 8 112 L 4 112 L 0 112 L 0 116 L 4 116 L 8 116 L 12 116 L 16 116 L 20 116 L 24 116 L 28 116 L 32 116 L 36 116 L 40 116 L 44 116 L 48 116 L 52 116 z M 52 108 L 52 104 L 48 104 L 44 104 L 40 104 L 36 104 L 32 104 L 28 104 L 24 104 L 20 104 L 16 104 L 12 104 L 8 104 L 8 108 L 12 108 L 16 108 L 20 108 L 24 108 L 28 108 L 32 108 L 36 108 L 40 108 L 44 108 L 48 108 L 52 108 z "
     id="rect1626" />
</svg>
