<?xml version="1.0" encoding="UTF-8" standalone="no"?>
<svg
   xmlns:dc="http://purl.org/dc/elements/1.1/"
   xmlns:cc="http://creativecommons.org/ns#"
   xmlns:rdf="http://www.w3.org/1999/02/22-rdf-syntax-ns#"
   xmlns:svg="http://www.w3.org/2000/svg"
   xmlns="http://www.w3.org/2000/svg"
   xmlns:sodipodi="http://sodipodi.sourceforge.net/DTD/sodipodi-0.dtd"
   xmlns:inkscape="http://www.inkscape.org/namespaces/inkscape"
   id="svg1460"
   width="128px"
   version="1.1"
   height="128px"
   sodipodi:docname="chicago95_tmp_file.svg"
   inkscape:version="0.92.4 (5da689c313, 2019-01-14)">
  <sodipodi:namedview
     pagecolor="#ffffff"
     bordercolor="#666666"
     borderopacity="1"
     objecttolerance="10"
     gridtolerance="10"
     guidetolerance="10"
     inkscape:pageopacity="0"
     inkscape:pageshadow="2"
     inkscape:window-width="640"
     inkscape:window-height="480"
     id="namedview733"
     showgrid="false"
     inkscape:zoom="1.84375"
     inkscape:cx="64"
     inkscape:cy="64"
     inkscape:window-x="0"
     inkscape:window-y="0"
     inkscape:window-maximized="0"
     inkscape:current-layer="svg1460" />
  <metadata
     id="metadata1464">
    <rdf:RDF>
      <cc:Work
         rdf:about="">
        <dc:format>image/svg+xml</dc:format>
        <dc:type
           rdf:resource="http://purl.org/dc/dcmitype/StillImage" />
      </cc:Work>
    </rdf:RDF>
  </metadata>
  <defs
     id="defs2" />
  <path
     style="fill:#0000a8"
     d="M 80 0 L 80 4 L 80 8 L 84 8 L 88 8 L 92 8 L 96 8 L 100 8 L 104 8 L 104 4 L 104 0 L 100 0 L 96 0 L 92 0 L 88 0 L 84 0 L 80 0 z M 104 8 L 104 12 L 104 16 L 100 16 L 96 16 L 92 16 L 88 16 L 88 20 L 88 24 L 92 24 L 96 24 L 96 28 L 96 32 L 100 32 L 104 32 L 104 36 L 104 40 L 108 40 L 112 40 L 112 36 L 112 32 L 116 32 L 120 32 L 120 28 L 120 24 L 124 24 L 128 24 L 128 20 L 128 16 L 124 16 L 120 16 L 116 16 L 112 16 L 112 12 L 112 8 L 108 8 L 104 8 z "
     id="rect418" />
  <path
     style="fill:#ffffff"
     d="M 8 8 L 8 12 L 8 16 L 8 20 L 8 24 L 8 28 L 8 32 L 8 36 L 8 40 L 8 44 L 8 48 L 8 52 L 8 56 L 8 60 L 8 64 L 8 68 L 8 72 L 8 76 L 8 80 L 12 80 L 16 80 L 20 80 L 24 80 L 28 80 L 32 80 L 36 80 L 40 80 L 40 76 L 40 72 L 40 68 L 40 64 L 40 60 L 40 56 L 40 52 L 40 48 L 40 44 L 40 40 L 44 40 L 48 40 L 52 40 L 56 40 L 60 40 L 64 40 L 64 36 L 64 32 L 60 32 L 56 32 L 52 32 L 48 32 L 44 32 L 40 32 L 40 28 L 40 24 L 40 20 L 40 16 L 40 12 L 40 8 L 36 8 L 32 8 L 28 8 L 24 8 L 20 8 L 16 8 L 12 8 L 8 8 z M 48 16 L 48 20 L 48 24 L 52 24 L 56 24 L 56 20 L 56 16 L 52 16 L 48 16 z "
     id="rect978" />
  <path
     style="fill:#c0c7c8"
     d="M 64 48 L 64 52 L 64 56 L 64 60 L 64 64 L 64 68 L 64 72 L 68 72 L 72 72 L 76 72 L 80 72 L 84 72 L 88 72 L 92 72 L 96 72 L 96 68 L 96 64 L 96 60 L 96 56 L 96 52 L 96 48 L 92 48 L 88 48 L 84 48 L 80 48 L 76 48 L 72 48 L 68 48 L 64 48 z M 88 96 L 88 100 L 88 104 L 88 108 L 88 112 L 92 112 L 96 112 L 96 108 L 96 104 L 96 100 L 96 96 L 92 96 L 88 96 z "
     id="rect1366" />
  <path
     style="fill:#a8a857"
     d="M 48 48 L 48 52 L 48 56 L 48 60 L 48 64 L 48 68 L 48 72 L 48 76 L 48 80 L 48 84 L 48 88 L 48 92 L 48 96 L 48 100 L 48 104 L 48 108 L 48 112 L 52 112 L 56 112 L 56 108 L 56 104 L 56 100 L 56 96 L 56 92 L 56 88 L 60 88 L 64 88 L 68 88 L 72 88 L 76 88 L 80 88 L 84 88 L 88 88 L 92 88 L 96 88 L 100 88 L 104 88 L 104 92 L 104 96 L 104 100 L 104 104 L 104 108 L 104 112 L 108 112 L 112 112 L 112 108 L 112 104 L 112 100 L 112 96 L 112 92 L 112 88 L 112 84 L 112 80 L 112 76 L 112 72 L 112 68 L 112 64 L 112 60 L 112 56 L 112 52 L 112 48 L 108 48 L 104 48 L 104 52 L 104 56 L 104 60 L 104 64 L 104 68 L 104 72 L 104 76 L 104 80 L 100 80 L 96 80 L 92 80 L 88 80 L 84 80 L 80 80 L 76 80 L 72 80 L 68 80 L 64 80 L 60 80 L 56 80 L 56 76 L 56 72 L 56 68 L 56 64 L 56 60 L 56 56 L 56 52 L 56 48 L 52 48 L 48 48 z "
     id="rect1374" />
  <path
     style="fill:#000000"
     d="M 0 0 L 0 4 L 0 8 L 0 12 L 0 16 L 0 20 L 0 24 L 0 28 L 0 32 L 0 36 L 0 40 L 0 44 L 0 48 L 0 52 L 0 56 L 0 60 L 0 64 L 0 68 L 0 72 L 0 76 L 0 80 L 0 84 L 0 88 L 4 88 L 8 88 L 12 88 L 16 88 L 20 88 L 24 88 L 28 88 L 32 88 L 36 88 L 40 88 L 40 92 L 40 96 L 40 100 L 40 104 L 40 108 L 40 112 L 40 116 L 40 120 L 44 120 L 48 120 L 52 120 L 56 120 L 60 120 L 64 120 L 68 120 L 72 120 L 76 120 L 80 120 L 84 120 L 88 120 L 92 120 L 96 120 L 100 120 L 104 120 L 108 120 L 112 120 L 116 120 L 120 120 L 120 116 L 120 112 L 120 108 L 120 104 L 120 100 L 120 96 L 120 92 L 120 88 L 120 84 L 120 80 L 120 76 L 120 72 L 120 68 L 120 64 L 120 60 L 120 56 L 120 52 L 120 48 L 120 44 L 120 40 L 116 40 L 112 40 L 108 40 L 104 40 L 100 40 L 96 40 L 92 40 L 88 40 L 84 40 L 80 40 L 76 40 L 72 40 L 72 36 L 72 32 L 72 28 L 72 24 L 68 24 L 64 24 L 64 20 L 64 16 L 60 16 L 56 16 L 56 20 L 56 24 L 52 24 L 48 24 L 48 20 L 48 16 L 52 16 L 56 16 L 56 12 L 56 8 L 52 8 L 48 8 L 48 4 L 48 0 L 44 0 L 40 0 L 36 0 L 32 0 L 28 0 L 24 0 L 20 0 L 16 0 L 12 0 L 8 0 L 4 0 L 0 0 z M 8 8 L 12 8 L 16 8 L 20 8 L 24 8 L 28 8 L 32 8 L 36 8 L 40 8 L 40 12 L 40 16 L 40 20 L 40 24 L 40 28 L 40 32 L 44 32 L 48 32 L 52 32 L 56 32 L 60 32 L 64 32 L 64 36 L 64 40 L 60 40 L 56 40 L 52 40 L 48 40 L 44 40 L 40 40 L 40 44 L 40 48 L 40 52 L 40 56 L 40 60 L 40 64 L 40 68 L 40 72 L 40 76 L 40 80 L 36 80 L 32 80 L 28 80 L 24 80 L 20 80 L 16 80 L 12 80 L 8 80 L 8 76 L 8 72 L 8 68 L 8 64 L 8 60 L 8 56 L 8 52 L 8 48 L 8 44 L 8 40 L 8 36 L 8 32 L 8 28 L 8 24 L 8 20 L 8 16 L 8 12 L 8 8 z M 48 48 L 52 48 L 56 48 L 56 52 L 56 56 L 56 60 L 56 64 L 56 68 L 56 72 L 56 76 L 56 80 L 60 80 L 64 80 L 68 80 L 72 80 L 76 80 L 80 80 L 84 80 L 88 80 L 92 80 L 96 80 L 100 80 L 104 80 L 104 76 L 104 72 L 104 68 L 104 64 L 104 60 L 104 56 L 104 52 L 104 48 L 108 48 L 112 48 L 112 52 L 112 56 L 112 60 L 112 64 L 112 68 L 112 72 L 112 76 L 112 80 L 112 84 L 112 88 L 112 92 L 112 96 L 112 100 L 112 104 L 112 108 L 112 112 L 108 112 L 104 112 L 104 108 L 104 104 L 104 100 L 104 96 L 104 92 L 104 88 L 100 88 L 96 88 L 92 88 L 88 88 L 84 88 L 80 88 L 76 88 L 72 88 L 68 88 L 64 88 L 60 88 L 56 88 L 56 92 L 56 96 L 56 100 L 56 104 L 56 108 L 56 112 L 52 112 L 48 112 L 48 108 L 48 104 L 48 100 L 48 96 L 48 92 L 48 88 L 48 84 L 48 80 L 48 76 L 48 72 L 48 68 L 48 64 L 48 60 L 48 56 L 48 52 L 48 48 z M 64 48 L 68 48 L 72 48 L 76 48 L 80 48 L 84 48 L 88 48 L 92 48 L 96 48 L 96 52 L 96 56 L 96 60 L 96 64 L 96 68 L 96 72 L 92 72 L 88 72 L 84 72 L 80 72 L 76 72 L 72 72 L 68 72 L 64 72 L 64 68 L 64 64 L 64 60 L 64 56 L 64 52 L 64 48 z M 88 96 L 92 96 L 96 96 L 96 100 L 96 104 L 96 108 L 96 112 L 92 112 L 88 112 L 88 108 L 88 104 L 88 100 L 88 96 z "
     id="rect1458" />
</svg>
