<?xml version="1.0" encoding="UTF-8" standalone="no"?>
<svg
   xmlns:dc="http://purl.org/dc/elements/1.1/"
   xmlns:cc="http://creativecommons.org/ns#"
   xmlns:rdf="http://www.w3.org/1999/02/22-rdf-syntax-ns#"
   xmlns:svg="http://www.w3.org/2000/svg"
   xmlns="http://www.w3.org/2000/svg"
   xmlns:sodipodi="http://sodipodi.sourceforge.net/DTD/sodipodi-0.dtd"
   xmlns:inkscape="http://www.inkscape.org/namespaces/inkscape"
   id="svg1100"
   width="128px"
   version="1.1"
   height="128px"
   sodipodi:docname="chicago95_tmp_file.svg"
   inkscape:version="0.92.4 (5da689c313, 2019-01-14)">
  <sodipodi:namedview
     pagecolor="#ffffff"
     bordercolor="#666666"
     borderopacity="1"
     objecttolerance="10"
     gridtolerance="10"
     guidetolerance="10"
     inkscape:pageopacity="0"
     inkscape:pageshadow="2"
     inkscape:window-width="640"
     inkscape:window-height="480"
     id="namedview553"
     showgrid="false"
     inkscape:zoom="1.84375"
     inkscape:cx="64"
     inkscape:cy="64"
     inkscape:window-x="0"
     inkscape:window-y="0"
     inkscape:window-maximized="0"
     inkscape:current-layer="svg1100" />
  <metadata
     id="metadata1104">
    <rdf:RDF>
      <cc:Work
         rdf:about="">
        <dc:format>image/svg+xml</dc:format>
        <dc:type
           rdf:resource="http://purl.org/dc/dcmitype/StillImage" />
      </cc:Work>
    </rdf:RDF>
  </metadata>
  <defs
     id="defs2" />
  <path
     style="fill:#800000"
     d="M 32 48 L 32 52 L 32 56 L 32 60 L 32 64 L 32 68 L 32 72 L 32 76 L 32 80 L 32 84 L 32 88 L 32 92 L 32 96 L 36 96 L 40 96 L 44 96 L 48 96 L 52 96 L 56 96 L 60 96 L 64 96 L 68 96 L 72 96 L 76 96 L 80 96 L 80 92 L 80 88 L 76 88 L 72 88 L 72 84 L 72 80 L 68 80 L 64 80 L 64 84 L 64 88 L 60 88 L 56 88 L 52 88 L 48 88 L 44 88 L 40 88 L 40 84 L 40 80 L 40 76 L 40 72 L 40 68 L 40 64 L 44 64 L 48 64 L 48 60 L 48 56 L 44 56 L 40 56 L 40 52 L 40 48 L 36 48 L 32 48 z M 48 64 L 48 68 L 48 72 L 52 72 L 56 72 L 56 68 L 56 64 L 52 64 L 48 64 z M 56 72 L 56 76 L 56 80 L 60 80 L 64 80 L 64 76 L 64 72 L 60 72 L 56 72 z "
     id="rect910" />
  <path
     style="fill:#ffffff"
     d="M 24 16 L 24 20 L 24 24 L 24 28 L 24 32 L 24 36 L 24 40 L 24 44 L 24 48 L 24 52 L 24 56 L 24 60 L 24 64 L 24 68 L 24 72 L 24 76 L 24 80 L 24 84 L 24 88 L 24 92 L 24 96 L 24 100 L 24 104 L 28 104 L 32 104 L 36 104 L 40 104 L 44 104 L 48 104 L 52 104 L 56 104 L 60 104 L 64 104 L 68 104 L 72 104 L 76 104 L 80 104 L 84 104 L 88 104 L 92 104 L 96 104 L 96 100 L 96 96 L 96 92 L 96 88 L 96 84 L 96 80 L 96 76 L 96 72 L 96 68 L 96 64 L 96 60 L 96 56 L 96 52 L 96 48 L 96 44 L 96 40 L 92 40 L 88 40 L 84 40 L 80 40 L 76 40 L 72 40 L 72 36 L 72 32 L 72 28 L 72 24 L 72 20 L 72 16 L 68 16 L 64 16 L 60 16 L 56 16 L 52 16 L 48 16 L 44 16 L 40 16 L 36 16 L 32 16 L 28 16 L 24 16 z M 80 24 L 80 28 L 80 32 L 84 32 L 88 32 L 88 28 L 88 24 L 84 24 L 80 24 z M 32 48 L 36 48 L 40 48 L 40 52 L 40 56 L 44 56 L 48 56 L 48 60 L 48 64 L 52 64 L 56 64 L 56 68 L 56 72 L 60 72 L 64 72 L 64 76 L 64 80 L 68 80 L 72 80 L 72 84 L 72 88 L 76 88 L 80 88 L 80 92 L 80 96 L 76 96 L 72 96 L 68 96 L 64 96 L 60 96 L 56 96 L 52 96 L 48 96 L 44 96 L 40 96 L 36 96 L 32 96 L 32 92 L 32 88 L 32 84 L 32 80 L 32 76 L 32 72 L 32 68 L 32 64 L 32 60 L 32 56 L 32 52 L 32 48 z M 64 80 L 60 80 L 56 80 L 56 76 L 56 72 L 52 72 L 48 72 L 48 68 L 48 64 L 44 64 L 40 64 L 40 68 L 40 72 L 40 76 L 40 80 L 40 84 L 40 88 L 44 88 L 48 88 L 52 88 L 56 88 L 60 88 L 64 88 L 64 84 L 64 80 z "
     id="rect1006" />
  <path
     style="fill:#000000"
     d="M 16 8 L 16 12 L 16 16 L 16 20 L 16 24 L 16 28 L 16 32 L 16 36 L 16 40 L 16 44 L 16 48 L 16 52 L 16 56 L 16 60 L 16 64 L 16 68 L 16 72 L 16 76 L 16 80 L 16 84 L 16 88 L 16 92 L 16 96 L 16 100 L 16 104 L 16 108 L 16 112 L 20 112 L 24 112 L 28 112 L 32 112 L 36 112 L 40 112 L 44 112 L 48 112 L 52 112 L 56 112 L 60 112 L 64 112 L 68 112 L 72 112 L 76 112 L 80 112 L 84 112 L 88 112 L 92 112 L 96 112 L 100 112 L 104 112 L 104 108 L 104 104 L 104 100 L 104 96 L 104 92 L 104 88 L 104 84 L 104 80 L 104 76 L 104 72 L 104 68 L 104 64 L 104 60 L 104 56 L 104 52 L 104 48 L 104 44 L 104 40 L 104 36 L 104 32 L 100 32 L 96 32 L 96 28 L 96 24 L 92 24 L 88 24 L 88 28 L 88 32 L 84 32 L 80 32 L 80 28 L 80 24 L 84 24 L 88 24 L 88 20 L 88 16 L 84 16 L 80 16 L 80 12 L 80 8 L 76 8 L 72 8 L 68 8 L 64 8 L 60 8 L 56 8 L 52 8 L 48 8 L 44 8 L 40 8 L 36 8 L 32 8 L 28 8 L 24 8 L 20 8 L 16 8 z M 24 16 L 28 16 L 32 16 L 36 16 L 40 16 L 44 16 L 48 16 L 52 16 L 56 16 L 60 16 L 64 16 L 68 16 L 72 16 L 72 20 L 72 24 L 72 28 L 72 32 L 72 36 L 72 40 L 76 40 L 80 40 L 84 40 L 88 40 L 92 40 L 96 40 L 96 44 L 96 48 L 96 52 L 96 56 L 96 60 L 96 64 L 96 68 L 96 72 L 96 76 L 96 80 L 96 84 L 96 88 L 96 92 L 96 96 L 96 100 L 96 104 L 92 104 L 88 104 L 84 104 L 80 104 L 76 104 L 72 104 L 68 104 L 64 104 L 60 104 L 56 104 L 52 104 L 48 104 L 44 104 L 40 104 L 36 104 L 32 104 L 28 104 L 24 104 L 24 100 L 24 96 L 24 92 L 24 88 L 24 84 L 24 80 L 24 76 L 24 72 L 24 68 L 24 64 L 24 60 L 24 56 L 24 52 L 24 48 L 24 44 L 24 40 L 24 36 L 24 32 L 24 28 L 24 24 L 24 20 L 24 16 z "
     id="rect1098" />
</svg>
