<?xml version="1.0" encoding="UTF-8" standalone="no"?>
<svg
   xmlns:dc="http://purl.org/dc/elements/1.1/"
   xmlns:cc="http://creativecommons.org/ns#"
   xmlns:rdf="http://www.w3.org/1999/02/22-rdf-syntax-ns#"
   xmlns:svg="http://www.w3.org/2000/svg"
   xmlns="http://www.w3.org/2000/svg"
   xmlns:sodipodi="http://sodipodi.sourceforge.net/DTD/sodipodi-0.dtd"
   xmlns:inkscape="http://www.inkscape.org/namespaces/inkscape"
   id="svg1564"
   width="128px"
   version="1.1"
   height="128px"
   sodipodi:docname="chicago95_tmp_file.svg"
   inkscape:version="0.92.4 (5da689c313, 2019-01-14)">
  <sodipodi:namedview
     pagecolor="#ffffff"
     bordercolor="#666666"
     borderopacity="1"
     objecttolerance="10"
     gridtolerance="10"
     guidetolerance="10"
     inkscape:pageopacity="0"
     inkscape:pageshadow="2"
     inkscape:window-width="640"
     inkscape:window-height="480"
     id="namedview785"
     showgrid="false"
     inkscape:zoom="1.84375"
     inkscape:cx="64"
     inkscape:cy="64"
     inkscape:window-x="0"
     inkscape:window-y="0"
     inkscape:window-maximized="0"
     inkscape:current-layer="svg1564" />
  <metadata
     id="metadata1568">
    <rdf:RDF>
      <cc:Work
         rdf:about="">
        <dc:format>image/svg+xml</dc:format>
        <dc:type
           rdf:resource="http://purl.org/dc/dcmitype/StillImage" />
      </cc:Work>
    </rdf:RDF>
  </metadata>
  <defs
     id="defs2" />
  <path
     style="fill:#000080"
     d="M 24 24 L 24 28 L 24 32 L 28 32 L 32 32 L 36 32 L 40 32 L 44 32 L 48 32 L 52 32 L 56 32 L 60 32 L 64 32 L 68 32 L 72 32 L 76 32 L 80 32 L 84 32 L 88 32 L 92 32 L 96 32 L 96 28 L 96 24 L 92 24 L 88 24 L 84 24 L 80 24 L 76 24 L 72 24 L 68 24 L 64 24 L 60 24 L 56 24 L 52 24 L 48 24 L 44 24 L 40 24 L 36 24 L 32 24 L 28 24 L 24 24 z "
     id="rect410" />
  <path
     style="fill:#800000"
     d="M 40 40 L 40 44 L 40 48 L 40 52 L 40 56 L 40 60 L 40 64 L 44 64 L 48 64 L 52 64 L 56 64 L 60 64 L 64 64 L 68 64 L 72 64 L 72 68 L 72 72 L 72 76 L 72 80 L 76 80 L 80 80 L 80 76 L 80 72 L 84 72 L 88 72 L 88 68 L 88 64 L 92 64 L 96 64 L 96 60 L 96 56 L 92 56 L 88 56 L 88 52 L 88 48 L 84 48 L 80 48 L 80 44 L 80 40 L 76 40 L 72 40 L 72 44 L 72 48 L 72 52 L 72 56 L 68 56 L 64 56 L 60 56 L 56 56 L 52 56 L 48 56 L 48 52 L 48 48 L 48 44 L 48 40 L 44 40 L 40 40 z "
     id="rect1026" />
  <path
     style="fill:#ffffff"
     d="M 16 8 L 16 12 L 16 16 L 16 20 L 16 24 L 16 28 L 16 32 L 16 36 L 16 40 L 16 44 L 16 48 L 16 52 L 16 56 L 16 60 L 16 64 L 16 68 L 16 72 L 16 76 L 16 80 L 16 84 L 16 88 L 16 92 L 16 96 L 16 100 L 16 104 L 16 108 L 16 112 L 20 112 L 24 112 L 28 112 L 32 112 L 36 112 L 40 112 L 44 112 L 48 112 L 52 112 L 56 112 L 60 112 L 64 112 L 68 112 L 72 112 L 76 112 L 80 112 L 84 112 L 88 112 L 92 112 L 96 112 L 100 112 L 104 112 L 104 108 L 104 104 L 104 100 L 104 96 L 104 92 L 104 88 L 104 84 L 104 80 L 104 76 L 104 72 L 104 68 L 104 64 L 104 60 L 104 56 L 104 52 L 104 48 L 104 44 L 104 40 L 104 36 L 104 32 L 104 28 L 104 24 L 104 20 L 104 16 L 104 12 L 104 8 L 100 8 L 96 8 L 92 8 L 88 8 L 84 8 L 80 8 L 76 8 L 72 8 L 68 8 L 64 8 L 60 8 L 56 8 L 52 8 L 48 8 L 44 8 L 40 8 L 36 8 L 32 8 L 28 8 L 24 8 L 20 8 L 16 8 z M 24 24 L 28 24 L 32 24 L 36 24 L 40 24 L 44 24 L 48 24 L 52 24 L 56 24 L 60 24 L 64 24 L 68 24 L 72 24 L 76 24 L 80 24 L 84 24 L 88 24 L 92 24 L 96 24 L 96 28 L 96 32 L 92 32 L 88 32 L 84 32 L 80 32 L 76 32 L 72 32 L 68 32 L 64 32 L 60 32 L 56 32 L 52 32 L 48 32 L 44 32 L 40 32 L 36 32 L 32 32 L 28 32 L 24 32 L 24 28 L 24 24 z M 40 40 L 44 40 L 48 40 L 48 44 L 48 48 L 48 52 L 48 56 L 52 56 L 56 56 L 60 56 L 64 56 L 68 56 L 72 56 L 72 52 L 72 48 L 72 44 L 72 40 L 76 40 L 80 40 L 80 44 L 80 48 L 84 48 L 88 48 L 88 52 L 88 56 L 92 56 L 96 56 L 96 60 L 96 64 L 92 64 L 88 64 L 88 68 L 88 72 L 84 72 L 80 72 L 80 76 L 80 80 L 76 80 L 72 80 L 72 76 L 72 72 L 72 68 L 72 64 L 68 64 L 64 64 L 60 64 L 56 64 L 52 64 L 48 64 L 44 64 L 40 64 L 40 60 L 40 56 L 40 52 L 40 48 L 40 44 L 40 40 z "
     id="rect1454" />
  <path
     style="fill:#000000"
     d="M 8 0 L 8 4 L 8 8 L 8 12 L 8 16 L 8 20 L 8 24 L 8 28 L 8 32 L 8 36 L 8 40 L 8 44 L 8 48 L 8 52 L 8 56 L 8 60 L 8 64 L 8 68 L 8 72 L 8 76 L 8 80 L 8 84 L 8 88 L 8 92 L 8 96 L 8 100 L 8 104 L 8 108 L 8 112 L 8 116 L 8 120 L 12 120 L 16 120 L 20 120 L 24 120 L 28 120 L 32 120 L 36 120 L 40 120 L 44 120 L 48 120 L 52 120 L 56 120 L 60 120 L 64 120 L 68 120 L 72 120 L 76 120 L 80 120 L 84 120 L 88 120 L 92 120 L 96 120 L 100 120 L 104 120 L 108 120 L 112 120 L 112 116 L 112 112 L 112 108 L 112 104 L 112 100 L 112 96 L 112 92 L 112 88 L 112 84 L 112 80 L 112 76 L 112 72 L 112 68 L 112 64 L 112 60 L 112 56 L 112 52 L 112 48 L 112 44 L 112 40 L 112 36 L 112 32 L 112 28 L 112 24 L 112 20 L 112 16 L 112 12 L 112 8 L 112 4 L 112 0 L 108 0 L 104 0 L 100 0 L 96 0 L 92 0 L 88 0 L 84 0 L 80 0 L 76 0 L 72 0 L 68 0 L 64 0 L 60 0 L 56 0 L 52 0 L 48 0 L 44 0 L 40 0 L 36 0 L 32 0 L 28 0 L 24 0 L 20 0 L 16 0 L 12 0 L 8 0 z M 16 8 L 20 8 L 24 8 L 28 8 L 32 8 L 36 8 L 40 8 L 44 8 L 48 8 L 52 8 L 56 8 L 60 8 L 64 8 L 68 8 L 72 8 L 76 8 L 80 8 L 84 8 L 88 8 L 92 8 L 96 8 L 100 8 L 104 8 L 104 12 L 104 16 L 104 20 L 104 24 L 104 28 L 104 32 L 104 36 L 104 40 L 104 44 L 104 48 L 104 52 L 104 56 L 104 60 L 104 64 L 104 68 L 104 72 L 104 76 L 104 80 L 104 84 L 104 88 L 104 92 L 104 96 L 104 100 L 104 104 L 104 108 L 104 112 L 100 112 L 96 112 L 92 112 L 88 112 L 84 112 L 80 112 L 76 112 L 72 112 L 68 112 L 64 112 L 60 112 L 56 112 L 52 112 L 48 112 L 44 112 L 40 112 L 36 112 L 32 112 L 28 112 L 24 112 L 20 112 L 16 112 L 16 108 L 16 104 L 16 100 L 16 96 L 16 92 L 16 88 L 16 84 L 16 80 L 16 76 L 16 72 L 16 68 L 16 64 L 16 60 L 16 56 L 16 52 L 16 48 L 16 44 L 16 40 L 16 36 L 16 32 L 16 28 L 16 24 L 16 20 L 16 16 L 16 12 L 16 8 z "
     id="rect1562" />
</svg>
