<?xml version="1.0" encoding="utf-8" ?>
<svg baseProfile="full" height="128px" version="1.1" width="128px" xmlns="http://www.w3.org/2000/svg" xmlns:ev="http://www.w3.org/2001/xml-events" xmlns:xlink="http://www.w3.org/1999/xlink"><defs /><rect fill="rgb(0,0,128)" height="4px" width="4px" x="32px" y="32px" /><rect fill="rgb(0,0,128)" height="4px" width="4px" x="36px" y="32px" /><rect fill="rgb(0,0,128)" height="4px" width="4px" x="40px" y="32px" /><rect fill="rgb(0,0,128)" height="4px" width="4px" x="44px" y="32px" /><rect fill="rgb(0,0,128)" height="4px" width="4px" x="48px" y="32px" /><rect fill="rgb(0,0,128)" height="4px" width="4px" x="52px" y="32px" /><rect fill="rgb(0,0,128)" height="4px" width="4px" x="56px" y="32px" /><rect fill="rgb(0,0,128)" height="4px" width="4px" x="60px" y="32px" /><rect fill="rgb(0,0,128)" height="4px" width="4px" x="32px" y="36px" /><rect fill="rgb(0,0,128)" height="4px" width="4px" x="36px" y="36px" /><rect fill="rgb(0,0,128)" height="4px" width="4px" x="40px" y="36px" /><rect fill="rgb(0,0,128)" height="4px" width="4px" x="44px" y="36px" /><rect fill="rgb(0,0,128)" height="4px" width="4px" x="48px" y="36px" /><rect fill="rgb(0,0,128)" height="4px" width="4px" x="52px" y="36px" /><rect fill="rgb(0,0,128)" height="4px" width="4px" x="56px" y="36px" /><rect fill="rgb(0,0,128)" height="4px" width="4px" x="60px" y="36px" /><rect fill="rgb(0,0,128)" height="4px" width="4px" x="24px" y="40px" /><rect fill="rgb(0,0,128)" height="4px" width="4px" x="28px" y="40px" /><rect fill="rgb(0,0,128)" height="4px" width="4px" x="64px" y="40px" /><rect fill="rgb(0,0,128)" height="4px" width="4px" x="68px" y="40px" /><rect fill="rgb(0,0,128)" height="4px" width="4px" x="72px" y="40px" /><rect fill="rgb(0,0,128)" height="4px" width="4px" x="76px" y="40px" /><rect fill="rgb(0,0,128)" height="4px" width="4px" x="104px" y="40px" /><rect fill="rgb(0,0,128)" height="4px" width="4px" x="108px" y="40px" /><rect fill="rgb(0,0,128)" height="4px" width="4px" x="24px" y="44px" /><rect fill="rgb(0,0,128)" height="4px" width="4px" x="28px" y="44px" /><rect fill="rgb(0,0,128)" height="4px" width="4px" x="64px" y="44px" /><rect fill="rgb(0,0,128)" height="4px" width="4px" x="68px" y="44px" /><rect fill="rgb(0,0,128)" height="4px" width="4px" x="72px" y="44px" /><rect fill="rgb(0,0,128)" height="4px" width="4px" x="76px" y="44px" /><rect fill="rgb(0,0,128)" height="4px" width="4px" x="104px" y="44px" /><rect fill="rgb(0,0,128)" height="4px" width="4px" x="108px" y="44px" /><rect fill="rgb(0,0,128)" height="4px" width="4px" x="16px" y="48px" /><rect fill="rgb(0,0,128)" height="4px" width="4px" x="20px" y="48px" /><rect fill="rgb(0,0,128)" height="4px" width="4px" x="80px" y="48px" /><rect fill="rgb(0,0,128)" height="4px" width="4px" x="84px" y="48px" /><rect fill="rgb(0,0,128)" height="4px" width="4px" x="96px" y="48px" /><rect fill="rgb(0,0,128)" height="4px" width="4px" x="100px" y="48px" /><rect fill="rgb(0,0,128)" height="4px" width="4px" x="104px" y="48px" /><rect fill="rgb(0,0,128)" height="4px" width="4px" x="108px" y="48px" /><rect fill="rgb(0,0,128)" height="4px" width="4px" x="16px" y="52px" /><rect fill="rgb(0,0,128)" height="4px" width="4px" x="20px" y="52px" /><rect fill="rgb(0,0,128)" height="4px" width="4px" x="80px" y="52px" /><rect fill="rgb(0,0,128)" height="4px" width="4px" x="84px" y="52px" /><rect fill="rgb(0,0,128)" height="4px" width="4px" x="96px" y="52px" /><rect fill="rgb(0,0,128)" height="4px" width="4px" x="100px" y="52px" /><rect fill="rgb(0,0,128)" height="4px" width="4px" x="104px" y="52px" /><rect fill="rgb(0,0,128)" height="4px" width="4px" x="108px" y="52px" /><rect fill="rgb(0,0,128)" height="4px" width="4px" x="16px" y="56px" /><rect fill="rgb(0,0,128)" height="4px" width="4px" x="20px" y="56px" /><rect fill="rgb(0,0,128)" height="4px" width="4px" x="88px" y="56px" /><rect fill="rgb(0,0,128)" height="4px" width="4px" x="92px" y="56px" /><rect fill="rgb(0,0,128)" height="4px" width="4px" x="96px" y="56px" /><rect fill="rgb(0,0,128)" height="4px" width="4px" x="100px" y="56px" /><rect fill="rgb(0,0,128)" height="4px" width="4px" x="104px" y="56px" /><rect fill="rgb(0,0,128)" height="4px" width="4px" x="108px" y="56px" /><rect fill="rgb(0,0,128)" height="4px" width="4px" x="16px" y="60px" /><rect fill="rgb(0,0,128)" height="4px" width="4px" x="20px" y="60px" /><rect fill="rgb(0,0,128)" height="4px" width="4px" x="88px" y="60px" /><rect fill="rgb(0,0,128)" height="4px" width="4px" x="92px" y="60px" /><rect fill="rgb(0,0,128)" height="4px" width="4px" x="96px" y="60px" /><rect fill="rgb(0,0,128)" height="4px" width="4px" x="100px" y="60px" /><rect fill="rgb(0,0,128)" height="4px" width="4px" x="104px" y="60px" /><rect fill="rgb(0,0,128)" height="4px" width="4px" x="108px" y="60px" /><rect fill="rgb(0,0,128)" height="4px" width="4px" x="16px" y="64px" /><rect fill="rgb(0,0,128)" height="4px" width="4px" x="20px" y="64px" /><rect fill="rgb(0,0,128)" height="4px" width="4px" x="80px" y="64px" /><rect fill="rgb(0,0,128)" height="4px" width="4px" x="84px" y="64px" /><rect fill="rgb(0,0,128)" height="4px" width="4px" x="88px" y="64px" /><rect fill="rgb(0,0,128)" height="4px" width="4px" x="92px" y="64px" /><rect fill="rgb(0,0,128)" height="4px" width="4px" x="96px" y="64px" /><rect fill="rgb(0,0,128)" height="4px" width="4px" x="100px" y="64px" /><rect fill="rgb(0,0,128)" height="4px" width="4px" x="104px" y="64px" /><rect fill="rgb(0,0,128)" height="4px" width="4px" x="108px" y="64px" /><rect fill="rgb(0,0,128)" height="4px" width="4px" x="16px" y="68px" /><rect fill="rgb(0,0,128)" height="4px" width="4px" x="20px" y="68px" /><rect fill="rgb(0,0,128)" height="4px" width="4px" x="80px" y="68px" /><rect fill="rgb(0,0,128)" height="4px" width="4px" x="84px" y="68px" /><rect fill="rgb(0,0,128)" height="4px" width="4px" x="88px" y="68px" /><rect fill="rgb(0,0,128)" height="4px" width="4px" x="92px" y="68px" /><rect fill="rgb(0,0,128)" height="4px" width="4px" x="96px" y="68px" /><rect fill="rgb(0,0,128)" height="4px" width="4px" x="100px" y="68px" /><rect fill="rgb(0,0,128)" height="4px" width="4px" x="104px" y="68px" /><rect fill="rgb(0,0,128)" height="4px" width="4px" x="108px" y="68px" /><rect fill="rgb(0,0,128)" height="4px" width="4px" x="24px" y="72px" /><rect fill="rgb(0,0,128)" height="4px" width="4px" x="28px" y="72px" /><rect fill="rgb(0,0,128)" height="4px" width="4px" x="72px" y="72px" /><rect fill="rgb(0,0,128)" height="4px" width="4px" x="76px" y="72px" /><rect fill="rgb(0,0,128)" height="4px" width="4px" x="80px" y="72px" /><rect fill="rgb(0,0,128)" height="4px" width="4px" x="84px" y="72px" /><rect fill="rgb(0,0,128)" height="4px" width="4px" x="88px" y="72px" /><rect fill="rgb(0,0,128)" height="4px" width="4px" x="92px" y="72px" /><rect fill="rgb(0,0,128)" height="4px" width="4px" x="96px" y="72px" /><rect fill="rgb(0,0,128)" height="4px" width="4px" x="100px" y="72px" /><rect fill="rgb(0,0,128)" height="4px" width="4px" x="104px" y="72px" /><rect fill="rgb(0,0,128)" height="4px" width="4px" x="108px" y="72px" /><rect fill="rgb(0,0,128)" height="4px" width="4px" x="24px" y="76px" /><rect fill="rgb(0,0,128)" height="4px" width="4px" x="28px" y="76px" /><rect fill="rgb(0,0,128)" height="4px" width="4px" x="72px" y="76px" /><rect fill="rgb(0,0,128)" height="4px" width="4px" x="76px" y="76px" /><rect fill="rgb(0,0,128)" height="4px" width="4px" x="80px" y="76px" /><rect fill="rgb(0,0,128)" height="4px" width="4px" x="84px" y="76px" /><rect fill="rgb(0,0,128)" height="4px" width="4px" x="88px" y="76px" /><rect fill="rgb(0,0,128)" height="4px" width="4px" x="92px" y="76px" /><rect fill="rgb(0,0,128)" height="4px" width="4px" x="96px" y="76px" /><rect fill="rgb(0,0,128)" height="4px" width="4px" x="100px" y="76px" /><rect fill="rgb(0,0,128)" height="4px" width="4px" x="104px" y="76px" /><rect fill="rgb(0,0,128)" height="4px" width="4px" x="108px" y="76px" /><rect fill="rgb(0,0,128)" height="4px" width="4px" x="24px" y="80px" /><rect fill="rgb(0,0,128)" height="4px" width="4px" x="28px" y="80px" /><rect fill="rgb(0,0,128)" height="4px" width="4px" x="24px" y="84px" /><rect fill="rgb(0,0,128)" height="4px" width="4px" x="28px" y="84px" /></svg>