<?xml version="1.0" encoding="UTF-8" standalone="no"?>
<svg
   xmlns:dc="http://purl.org/dc/elements/1.1/"
   xmlns:cc="http://creativecommons.org/ns#"
   xmlns:rdf="http://www.w3.org/1999/02/22-rdf-syntax-ns#"
   xmlns:svg="http://www.w3.org/2000/svg"
   xmlns="http://www.w3.org/2000/svg"
   xmlns:sodipodi="http://sodipodi.sourceforge.net/DTD/sodipodi-0.dtd"
   xmlns:inkscape="http://www.inkscape.org/namespaces/inkscape"
   id="svg404"
   width="128px"
   version="1.1"
   height="128px"
   sodipodi:docname="chicago95_tmp_file.svg"
   inkscape:version="0.92.4 (5da689c313, 2019-01-14)">
  <sodipodi:namedview
     pagecolor="#ffffff"
     bordercolor="#666666"
     borderopacity="1"
     objecttolerance="10"
     gridtolerance="10"
     guidetolerance="10"
     inkscape:pageopacity="0"
     inkscape:pageshadow="2"
     inkscape:window-width="640"
     inkscape:window-height="480"
     id="namedview205"
     showgrid="false"
     inkscape:zoom="1.84375"
     inkscape:cx="64"
     inkscape:cy="64"
     inkscape:window-x="0"
     inkscape:window-y="0"
     inkscape:window-maximized="0"
     inkscape:current-layer="svg404" />
  <metadata
     id="metadata408">
    <rdf:RDF>
      <cc:Work
         rdf:about="">
        <dc:format>image/svg+xml</dc:format>
        <dc:type
           rdf:resource="http://purl.org/dc/dcmitype/StillImage" />
      </cc:Work>
    </rdf:RDF>
  </metadata>
  <defs
     id="defs2" />
  <path
     style="fill:#ff0000"
     d="M 24 24 L 24 28 L 24 32 L 28 32 L 28 36 L 32 36 L 32 40 L 36 40 L 36 44 L 40 44 L 40 48 L 44 48 L 44 52 L 48 52 L 48 56 L 52 56 L 52 60 L 52 64 L 48 64 L 48 68 L 44 68 L 44 72 L 40 72 L 40 76 L 36 76 L 36 80 L 32 80 L 32 84 L 28 84 L 28 88 L 24 88 L 24 92 L 24 96 L 28 96 L 32 96 L 36 96 L 40 96 L 44 96 L 44 92 L 48 92 L 48 88 L 52 88 L 52 84 L 56 84 L 56 80 L 60 80 L 60 76 L 64 76 L 64 72 L 68 72 L 72 72 L 72 76 L 76 76 L 76 80 L 80 80 L 80 84 L 84 84 L 84 88 L 88 88 L 88 92 L 92 92 L 92 96 L 96 96 L 100 96 L 104 96 L 108 96 L 112 96 L 112 92 L 112 88 L 108 88 L 108 84 L 104 84 L 104 80 L 100 80 L 100 76 L 96 76 L 96 72 L 92 72 L 92 68 L 88 68 L 88 64 L 84 64 L 84 60 L 84 56 L 88 56 L 88 52 L 92 52 L 92 48 L 96 48 L 96 44 L 100 44 L 100 40 L 104 40 L 104 36 L 108 36 L 108 32 L 112 32 L 112 28 L 112 24 L 108 24 L 104 24 L 100 24 L 96 24 L 92 24 L 92 28 L 88 28 L 88 32 L 84 32 L 84 36 L 80 36 L 80 40 L 76 40 L 76 44 L 72 44 L 72 48 L 68 48 L 64 48 L 64 44 L 60 44 L 60 40 L 56 40 L 56 36 L 52 36 L 52 32 L 48 32 L 48 28 L 44 28 L 44 24 L 40 24 L 36 24 L 32 24 L 28 24 L 24 24 z "
     id="rect402" />
</svg>
