<?xml version="1.0" encoding="UTF-8" standalone="no"?>
<svg
   xmlns:dc="http://purl.org/dc/elements/1.1/"
   xmlns:cc="http://creativecommons.org/ns#"
   xmlns:rdf="http://www.w3.org/1999/02/22-rdf-syntax-ns#"
   xmlns:svg="http://www.w3.org/2000/svg"
   xmlns="http://www.w3.org/2000/svg"
   xmlns:sodipodi="http://sodipodi.sourceforge.net/DTD/sodipodi-0.dtd"
   xmlns:inkscape="http://www.inkscape.org/namespaces/inkscape"
   id="svg332"
   width="128px"
   version="1.1"
   height="128px"
   sodipodi:docname="chicago95_tmp_file.svg"
   inkscape:version="0.92.4 (5da689c313, 2019-01-14)">
  <sodipodi:namedview
     pagecolor="#ffffff"
     bordercolor="#666666"
     borderopacity="1"
     objecttolerance="10"
     gridtolerance="10"
     guidetolerance="10"
     inkscape:pageopacity="0"
     inkscape:pageshadow="2"
     inkscape:window-width="640"
     inkscape:window-height="480"
     id="namedview169"
     showgrid="false"
     inkscape:zoom="1.84375"
     inkscape:cx="64"
     inkscape:cy="64"
     inkscape:window-x="0"
     inkscape:window-y="0"
     inkscape:window-maximized="0"
     inkscape:current-layer="svg332" />
  <metadata
     id="metadata336">
    <rdf:RDF>
      <cc:Work
         rdf:about="">
        <dc:format>image/svg+xml</dc:format>
        <dc:type
           rdf:resource="http://purl.org/dc/dcmitype/StillImage" />
      </cc:Work>
    </rdf:RDF>
  </metadata>
  <defs
     id="defs2" />
  <path
     style="fill:#000080"
     d="M 72 8 L 72 12 L 72 16 L 76 16 L 80 16 L 84 16 L 88 16 L 92 16 L 96 16 L 96 20 L 96 24 L 92 24 L 88 24 L 84 24 L 80 24 L 76 24 L 72 24 L 72 28 L 72 32 L 68 32 L 64 32 L 64 36 L 64 40 L 64 44 L 64 48 L 68 48 L 72 48 L 72 52 L 72 56 L 76 56 L 80 56 L 84 56 L 88 56 L 92 56 L 96 56 L 100 56 L 104 56 L 108 56 L 112 56 L 112 52 L 112 48 L 112 44 L 112 40 L 112 36 L 112 32 L 112 28 L 112 24 L 112 20 L 112 16 L 108 16 L 104 16 L 104 12 L 104 8 L 100 8 L 96 8 L 92 8 L 88 8 L 84 8 L 80 8 L 76 8 L 72 8 z M 80 32 L 84 32 L 88 32 L 92 32 L 96 32 L 96 36 L 96 40 L 96 44 L 96 48 L 92 48 L 88 48 L 84 48 L 80 48 L 80 44 L 80 40 L 80 36 L 80 32 z "
     id="rect194" />
  <path
     style="fill:#800000"
     d="M 40 80 L 40 84 L 40 88 L 36 88 L 32 88 L 32 92 L 32 96 L 28 96 L 24 96 L 24 100 L 24 104 L 28 104 L 32 104 L 32 108 L 32 112 L 36 112 L 40 112 L 40 116 L 40 120 L 44 120 L 48 120 L 48 116 L 48 112 L 48 108 L 48 104 L 52 104 L 56 104 L 60 104 L 64 104 L 68 104 L 72 104 L 76 104 L 80 104 L 84 104 L 88 104 L 92 104 L 96 104 L 100 104 L 104 104 L 108 104 L 112 104 L 112 100 L 112 96 L 108 96 L 104 96 L 100 96 L 96 96 L 92 96 L 88 96 L 84 96 L 80 96 L 76 96 L 72 96 L 68 96 L 64 96 L 60 96 L 56 96 L 52 96 L 48 96 L 48 92 L 48 88 L 48 84 L 48 80 L 44 80 L 40 80 z "
     id="rect330" />
</svg>
