<?xml version="1.0" encoding="UTF-8" standalone="no"?>
<svg
   xmlns:dc="http://purl.org/dc/elements/1.1/"
   xmlns:cc="http://creativecommons.org/ns#"
   xmlns:rdf="http://www.w3.org/1999/02/22-rdf-syntax-ns#"
   xmlns:svg="http://www.w3.org/2000/svg"
   xmlns="http://www.w3.org/2000/svg"
   xmlns:sodipodi="http://sodipodi.sourceforge.net/DTD/sodipodi-0.dtd"
   xmlns:inkscape="http://www.inkscape.org/namespaces/inkscape"
   id="svg308"
   width="128px"
   version="1.1"
   height="128px"
   sodipodi:docname="chicago95_tmp_file.svg"
   inkscape:version="0.92.4 (5da689c313, 2019-01-14)">
  <sodipodi:namedview
     pagecolor="#ffffff"
     bordercolor="#666666"
     borderopacity="1"
     objecttolerance="10"
     gridtolerance="10"
     guidetolerance="10"
     inkscape:pageopacity="0"
     inkscape:pageshadow="2"
     inkscape:window-width="640"
     inkscape:window-height="480"
     id="namedview157"
     showgrid="false"
     inkscape:zoom="1.84375"
     inkscape:cx="64"
     inkscape:cy="64"
     inkscape:window-x="0"
     inkscape:window-y="0"
     inkscape:window-maximized="0"
     inkscape:current-layer="svg308" />
  <metadata
     id="metadata312">
    <rdf:RDF>
      <cc:Work
         rdf:about="">
        <dc:format>image/svg+xml</dc:format>
        <dc:type
           rdf:resource="http://purl.org/dc/dcmitype/StillImage" />
      </cc:Work>
    </rdf:RDF>
  </metadata>
  <defs
     id="defs2" />
  <path
     style="fill:#000000"
     d="M 32 24 L 32 28 L 32 32 L 36 32 L 40 32 L 40 36 L 40 40 L 40 44 L 40 48 L 40 52 L 40 56 L 40 60 L 40 64 L 40 68 L 40 72 L 44 72 L 48 72 L 48 76 L 48 80 L 52 80 L 56 80 L 60 80 L 64 80 L 68 80 L 72 80 L 76 80 L 80 80 L 84 80 L 88 80 L 88 76 L 88 72 L 88 68 L 88 64 L 88 60 L 88 56 L 88 52 L 88 48 L 88 44 L 88 40 L 88 36 L 88 32 L 88 28 L 88 24 L 84 24 L 80 24 L 76 24 L 72 24 L 72 28 L 72 32 L 72 36 L 72 40 L 72 44 L 72 48 L 72 52 L 72 56 L 72 60 L 72 64 L 68 64 L 64 64 L 60 64 L 56 64 L 56 60 L 56 56 L 56 52 L 56 48 L 56 44 L 56 40 L 56 36 L 56 32 L 56 28 L 56 24 L 52 24 L 48 24 L 44 24 L 40 24 L 36 24 L 32 24 z M 40 88 L 40 92 L 40 96 L 44 96 L 48 96 L 52 96 L 56 96 L 60 96 L 64 96 L 68 96 L 72 96 L 76 96 L 80 96 L 84 96 L 88 96 L 88 92 L 88 88 L 84 88 L 80 88 L 76 88 L 72 88 L 68 88 L 64 88 L 60 88 L 56 88 L 52 88 L 48 88 L 44 88 L 40 88 z "
     id="rect306" />
</svg>
