<?xml version="1.0" encoding="UTF-8" standalone="no"?>
<svg
   xmlns:dc="http://purl.org/dc/elements/1.1/"
   xmlns:cc="http://creativecommons.org/ns#"
   xmlns:rdf="http://www.w3.org/1999/02/22-rdf-syntax-ns#"
   xmlns:svg="http://www.w3.org/2000/svg"
   xmlns="http://www.w3.org/2000/svg"
   xmlns:sodipodi="http://sodipodi.sourceforge.net/DTD/sodipodi-0.dtd"
   xmlns:inkscape="http://www.inkscape.org/namespaces/inkscape"
   id="svg716"
   width="128px"
   version="1.1"
   height="128px"
   sodipodi:docname="chicago95_tmp_file.svg"
   inkscape:version="0.92.4 (5da689c313, 2019-01-14)">
  <sodipodi:namedview
     pagecolor="#ffffff"
     bordercolor="#666666"
     borderopacity="1"
     objecttolerance="10"
     gridtolerance="10"
     guidetolerance="10"
     inkscape:pageopacity="0"
     inkscape:pageshadow="2"
     inkscape:window-width="640"
     inkscape:window-height="480"
     id="namedview361"
     showgrid="false"
     inkscape:zoom="1.84375"
     inkscape:cx="64"
     inkscape:cy="64"
     inkscape:window-x="0"
     inkscape:window-y="0"
     inkscape:window-maximized="0"
     inkscape:current-layer="svg716" />
  <metadata
     id="metadata720">
    <rdf:RDF>
      <cc:Work
         rdf:about="">
        <dc:format>image/svg+xml</dc:format>
        <dc:type
           rdf:resource="http://purl.org/dc/dcmitype/StillImage" />
      </cc:Work>
    </rdf:RDF>
  </metadata>
  <defs
     id="defs2" />
  <path
     style="fill:#00ffff"
     d="M 56 8 L 56 12 L 56 16 L 56 20 L 56 24 L 56 28 L 56 32 L 56 36 L 56 40 L 56 44 L 56 48 L 56 52 L 56 56 L 56 60 L 56 64 L 56 68 L 56 72 L 52 72 L 48 72 L 44 72 L 40 72 L 36 72 L 32 72 L 32 76 L 32 80 L 36 80 L 40 80 L 40 84 L 40 88 L 44 88 L 48 88 L 48 92 L 48 96 L 52 96 L 56 96 L 56 100 L 56 104 L 60 104 L 64 104 L 64 108 L 64 112 L 68 112 L 72 112 L 72 108 L 72 104 L 76 104 L 80 104 L 80 100 L 80 96 L 84 96 L 88 96 L 88 92 L 88 88 L 92 88 L 96 88 L 96 84 L 96 80 L 100 80 L 104 80 L 104 76 L 104 72 L 100 72 L 96 72 L 92 72 L 88 72 L 84 72 L 80 72 L 80 68 L 80 64 L 80 60 L 80 56 L 80 52 L 80 48 L 80 44 L 80 40 L 80 36 L 80 32 L 80 28 L 80 24 L 80 20 L 80 16 L 80 12 L 80 8 L 76 8 L 72 8 L 68 8 L 64 8 L 60 8 L 56 8 z "
     id="rect702" />
  <path
     style="fill:#000000"
     d="M 48 0 L 48 4 L 48 8 L 48 12 L 48 16 L 48 20 L 48 24 L 48 28 L 48 32 L 48 36 L 48 40 L 48 44 L 48 48 L 48 52 L 48 56 L 48 60 L 48 64 L 44 64 L 40 64 L 36 64 L 32 64 L 28 64 L 24 64 L 20 64 L 16 64 L 16 68 L 16 72 L 20 72 L 24 72 L 24 76 L 24 80 L 28 80 L 32 80 L 32 76 L 32 72 L 36 72 L 40 72 L 44 72 L 48 72 L 52 72 L 56 72 L 56 68 L 56 64 L 56 60 L 56 56 L 56 52 L 56 48 L 56 44 L 56 40 L 56 36 L 56 32 L 56 28 L 56 24 L 56 20 L 56 16 L 56 12 L 56 8 L 60 8 L 64 8 L 68 8 L 72 8 L 76 8 L 80 8 L 80 12 L 80 16 L 80 20 L 80 24 L 80 28 L 80 32 L 80 36 L 80 40 L 80 44 L 80 48 L 80 52 L 80 56 L 80 60 L 80 64 L 80 68 L 80 72 L 84 72 L 88 72 L 92 72 L 96 72 L 100 72 L 104 72 L 104 76 L 104 80 L 108 80 L 112 80 L 112 76 L 112 72 L 116 72 L 120 72 L 120 68 L 120 64 L 116 64 L 112 64 L 108 64 L 104 64 L 100 64 L 96 64 L 92 64 L 88 64 L 88 60 L 88 56 L 88 52 L 88 48 L 88 44 L 88 40 L 88 36 L 88 32 L 88 28 L 88 24 L 88 20 L 88 16 L 88 12 L 88 8 L 88 4 L 88 0 L 84 0 L 80 0 L 76 0 L 72 0 L 68 0 L 64 0 L 60 0 L 56 0 L 52 0 L 48 0 z M 104 80 L 100 80 L 96 80 L 96 84 L 96 88 L 100 88 L 104 88 L 104 84 L 104 80 z M 96 88 L 92 88 L 88 88 L 88 92 L 88 96 L 92 96 L 96 96 L 96 92 L 96 88 z M 88 96 L 84 96 L 80 96 L 80 100 L 80 104 L 84 104 L 88 104 L 88 100 L 88 96 z M 80 104 L 76 104 L 72 104 L 72 108 L 72 112 L 76 112 L 80 112 L 80 108 L 80 104 z M 72 112 L 68 112 L 64 112 L 64 116 L 64 120 L 68 120 L 72 120 L 72 116 L 72 112 z M 64 112 L 64 108 L 64 104 L 60 104 L 56 104 L 56 108 L 56 112 L 60 112 L 64 112 z M 56 104 L 56 100 L 56 96 L 52 96 L 48 96 L 48 100 L 48 104 L 52 104 L 56 104 z M 48 96 L 48 92 L 48 88 L 44 88 L 40 88 L 40 92 L 40 96 L 44 96 L 48 96 z M 40 88 L 40 84 L 40 80 L 36 80 L 32 80 L 32 84 L 32 88 L 36 88 L 40 88 z "
     id="rect714" />
</svg>
