<?xml version="1.0" encoding="UTF-8" standalone="no"?>
<svg
   xmlns:dc="http://purl.org/dc/elements/1.1/"
   xmlns:cc="http://creativecommons.org/ns#"
   xmlns:rdf="http://www.w3.org/1999/02/22-rdf-syntax-ns#"
   xmlns:svg="http://www.w3.org/2000/svg"
   xmlns="http://www.w3.org/2000/svg"
   xmlns:sodipodi="http://sodipodi.sourceforge.net/DTD/sodipodi-0.dtd"
   xmlns:inkscape="http://www.inkscape.org/namespaces/inkscape"
   id="svg948"
   width="128px"
   version="1.1"
   height="128px"
   sodipodi:docname="chicago95_tmp_file.svg"
   inkscape:version="0.92.4 (5da689c313, 2019-01-14)">
  <sodipodi:namedview
     pagecolor="#ffffff"
     bordercolor="#666666"
     borderopacity="1"
     objecttolerance="10"
     gridtolerance="10"
     guidetolerance="10"
     inkscape:pageopacity="0"
     inkscape:pageshadow="2"
     inkscape:window-width="640"
     inkscape:window-height="480"
     id="namedview477"
     showgrid="false"
     inkscape:zoom="1.84375"
     inkscape:cx="64"
     inkscape:cy="64"
     inkscape:window-x="0"
     inkscape:window-y="0"
     inkscape:window-maximized="0"
     inkscape:current-layer="svg948" />
  <metadata
     id="metadata952">
    <rdf:RDF>
      <cc:Work
         rdf:about="">
        <dc:format>image/svg+xml</dc:format>
        <dc:type
           rdf:resource="http://purl.org/dc/dcmitype/StillImage" />
      </cc:Work>
    </rdf:RDF>
  </metadata>
  <defs
     id="defs2" />
  <path
     style="fill:#00ffff"
     d="M 8 24 L 8 28 L 8 32 L 8 36 L 8 40 L 8 44 L 8 48 L 8 52 L 8 56 L 8 60 L 8 64 L 8 68 L 8 72 L 8 76 L 8 80 L 8 84 L 8 88 L 8 92 L 8 96 L 8 100 L 8 104 L 8 108 L 8 112 L 12 112 L 16 112 L 16 108 L 16 104 L 16 100 L 16 96 L 16 92 L 16 88 L 16 84 L 16 80 L 16 76 L 16 72 L 16 68 L 16 64 L 16 60 L 16 56 L 16 52 L 16 48 L 16 44 L 16 40 L 16 36 L 16 32 L 16 28 L 16 24 L 12 24 L 8 24 z M 64 32 L 64 36 L 64 40 L 60 40 L 56 40 L 56 44 L 56 48 L 52 48 L 48 48 L 48 52 L 48 56 L 44 56 L 40 56 L 40 60 L 40 64 L 36 64 L 32 64 L 32 68 L 32 72 L 36 72 L 40 72 L 40 76 L 40 80 L 44 80 L 48 80 L 48 84 L 48 88 L 52 88 L 56 88 L 56 92 L 56 96 L 60 96 L 64 96 L 64 100 L 64 104 L 68 104 L 72 104 L 72 100 L 72 96 L 72 92 L 72 88 L 72 84 L 72 80 L 76 80 L 80 80 L 84 80 L 88 80 L 92 80 L 96 80 L 100 80 L 104 80 L 108 80 L 112 80 L 116 80 L 120 80 L 120 76 L 120 72 L 120 68 L 120 64 L 120 60 L 120 56 L 116 56 L 112 56 L 108 56 L 104 56 L 100 56 L 96 56 L 92 56 L 88 56 L 84 56 L 80 56 L 76 56 L 72 56 L 72 52 L 72 48 L 72 44 L 72 40 L 72 36 L 72 32 L 68 32 L 64 32 z "
     id="rect902" />
  <path
     style="fill:#000000"
     d="M 0 16 L 0 20 L 0 24 L 0 28 L 0 32 L 0 36 L 0 40 L 0 44 L 0 48 L 0 52 L 0 56 L 0 60 L 0 64 L 0 68 L 0 72 L 0 76 L 0 80 L 0 84 L 0 88 L 0 92 L 0 96 L 0 100 L 0 104 L 0 108 L 0 112 L 0 116 L 0 120 L 4 120 L 8 120 L 12 120 L 16 120 L 20 120 L 24 120 L 24 116 L 24 112 L 24 108 L 24 104 L 24 100 L 24 96 L 24 92 L 24 88 L 24 84 L 24 80 L 24 76 L 24 72 L 28 72 L 32 72 L 32 68 L 32 64 L 28 64 L 24 64 L 24 60 L 24 56 L 24 52 L 24 48 L 24 44 L 24 40 L 24 36 L 24 32 L 24 28 L 24 24 L 24 20 L 24 16 L 20 16 L 16 16 L 12 16 L 8 16 L 4 16 L 0 16 z M 32 64 L 36 64 L 40 64 L 40 60 L 40 56 L 36 56 L 32 56 L 32 60 L 32 64 z M 40 56 L 44 56 L 48 56 L 48 52 L 48 48 L 44 48 L 40 48 L 40 52 L 40 56 z M 48 48 L 52 48 L 56 48 L 56 44 L 56 40 L 52 40 L 48 40 L 48 44 L 48 48 z M 56 40 L 60 40 L 64 40 L 64 36 L 64 32 L 60 32 L 56 32 L 56 36 L 56 40 z M 64 32 L 68 32 L 72 32 L 72 36 L 72 40 L 72 44 L 72 48 L 72 52 L 72 56 L 76 56 L 80 56 L 84 56 L 88 56 L 92 56 L 96 56 L 100 56 L 104 56 L 108 56 L 112 56 L 116 56 L 120 56 L 120 60 L 120 64 L 120 68 L 120 72 L 120 76 L 120 80 L 116 80 L 112 80 L 108 80 L 104 80 L 100 80 L 96 80 L 92 80 L 88 80 L 84 80 L 80 80 L 76 80 L 72 80 L 72 84 L 72 88 L 72 92 L 72 96 L 72 100 L 72 104 L 68 104 L 64 104 L 64 108 L 64 112 L 68 112 L 72 112 L 72 116 L 72 120 L 76 120 L 80 120 L 80 116 L 80 112 L 80 108 L 80 104 L 80 100 L 80 96 L 80 92 L 80 88 L 84 88 L 88 88 L 92 88 L 96 88 L 100 88 L 104 88 L 108 88 L 112 88 L 116 88 L 120 88 L 124 88 L 128 88 L 128 84 L 128 80 L 128 76 L 128 72 L 128 68 L 128 64 L 128 60 L 128 56 L 128 52 L 128 48 L 124 48 L 120 48 L 116 48 L 112 48 L 108 48 L 104 48 L 100 48 L 96 48 L 92 48 L 88 48 L 84 48 L 80 48 L 80 44 L 80 40 L 80 36 L 80 32 L 80 28 L 80 24 L 80 20 L 80 16 L 76 16 L 72 16 L 72 20 L 72 24 L 68 24 L 64 24 L 64 28 L 64 32 z M 64 104 L 64 100 L 64 96 L 60 96 L 56 96 L 56 100 L 56 104 L 60 104 L 64 104 z M 56 96 L 56 92 L 56 88 L 52 88 L 48 88 L 48 92 L 48 96 L 52 96 L 56 96 z M 48 88 L 48 84 L 48 80 L 44 80 L 40 80 L 40 84 L 40 88 L 44 88 L 48 88 z M 40 80 L 40 76 L 40 72 L 36 72 L 32 72 L 32 76 L 32 80 L 36 80 L 40 80 z M 8 24 L 12 24 L 16 24 L 16 28 L 16 32 L 16 36 L 16 40 L 16 44 L 16 48 L 16 52 L 16 56 L 16 60 L 16 64 L 16 68 L 16 72 L 16 76 L 16 80 L 16 84 L 16 88 L 16 92 L 16 96 L 16 100 L 16 104 L 16 108 L 16 112 L 12 112 L 8 112 L 8 108 L 8 104 L 8 100 L 8 96 L 8 92 L 8 88 L 8 84 L 8 80 L 8 76 L 8 72 L 8 68 L 8 64 L 8 60 L 8 56 L 8 52 L 8 48 L 8 44 L 8 40 L 8 36 L 8 32 L 8 28 L 8 24 z "
     id="rect946" />
</svg>
