<?xml version="1.0" encoding="UTF-8" standalone="no"?>
<svg
   xmlns:dc="http://purl.org/dc/elements/1.1/"
   xmlns:cc="http://creativecommons.org/ns#"
   xmlns:rdf="http://www.w3.org/1999/02/22-rdf-syntax-ns#"
   xmlns:svg="http://www.w3.org/2000/svg"
   xmlns="http://www.w3.org/2000/svg"
   xmlns:sodipodi="http://sodipodi.sourceforge.net/DTD/sodipodi-0.dtd"
   xmlns:inkscape="http://www.inkscape.org/namespaces/inkscape"
   id="svg724"
   width="128px"
   version="1.1"
   height="128px"
   sodipodi:docname="chicago95_tmp_file.svg"
   inkscape:version="0.92.4 (5da689c313, 2019-01-14)">
  <sodipodi:namedview
     pagecolor="#ffffff"
     bordercolor="#666666"
     borderopacity="1"
     objecttolerance="10"
     gridtolerance="10"
     guidetolerance="10"
     inkscape:pageopacity="0"
     inkscape:pageshadow="2"
     inkscape:window-width="640"
     inkscape:window-height="480"
     id="namedview365"
     showgrid="false"
     inkscape:zoom="1.84375"
     inkscape:cx="64"
     inkscape:cy="64"
     inkscape:window-x="0"
     inkscape:window-y="0"
     inkscape:window-maximized="0"
     inkscape:current-layer="svg724" />
  <metadata
     id="metadata728">
    <rdf:RDF>
      <cc:Work
         rdf:about="">
        <dc:format>image/svg+xml</dc:format>
        <dc:type
           rdf:resource="http://purl.org/dc/dcmitype/StillImage" />
      </cc:Work>
    </rdf:RDF>
  </metadata>
  <defs
     id="defs2" />
  <path
     style="fill:#00ffff"
     d="M 88 32 L 88 36 L 88 40 L 88 44 L 88 48 L 88 52 L 88 56 L 88 60 L 88 64 L 84 64 L 80 64 L 76 64 L 72 64 L 68 64 L 64 64 L 60 64 L 56 64 L 52 64 L 48 64 L 44 64 L 40 64 L 40 60 L 40 56 L 36 56 L 32 56 L 32 60 L 32 64 L 28 64 L 24 64 L 24 68 L 24 72 L 20 72 L 16 72 L 16 76 L 16 80 L 20 80 L 24 80 L 24 84 L 24 88 L 28 88 L 32 88 L 32 92 L 32 96 L 36 96 L 40 96 L 40 92 L 40 88 L 44 88 L 48 88 L 52 88 L 56 88 L 60 88 L 64 88 L 68 88 L 72 88 L 76 88 L 80 88 L 84 88 L 88 88 L 92 88 L 96 88 L 100 88 L 104 88 L 108 88 L 112 88 L 112 84 L 112 80 L 112 76 L 112 72 L 112 68 L 112 64 L 112 60 L 112 56 L 112 52 L 112 48 L 112 44 L 112 40 L 112 36 L 112 32 L 108 32 L 104 32 L 100 32 L 96 32 L 92 32 L 88 32 z "
     id="rect658" />
  <path
     style="fill:#000000"
     d="M 80 24 L 80 28 L 80 32 L 80 36 L 80 40 L 80 44 L 80 48 L 80 52 L 80 56 L 76 56 L 72 56 L 68 56 L 64 56 L 60 56 L 56 56 L 52 56 L 48 56 L 48 52 L 48 48 L 48 44 L 48 40 L 44 40 L 40 40 L 40 44 L 40 48 L 36 48 L 32 48 L 32 52 L 32 56 L 36 56 L 40 56 L 40 60 L 40 64 L 44 64 L 48 64 L 52 64 L 56 64 L 60 64 L 64 64 L 68 64 L 72 64 L 76 64 L 80 64 L 84 64 L 88 64 L 88 60 L 88 56 L 88 52 L 88 48 L 88 44 L 88 40 L 88 36 L 88 32 L 92 32 L 96 32 L 100 32 L 104 32 L 108 32 L 112 32 L 112 36 L 112 40 L 112 44 L 112 48 L 112 52 L 112 56 L 112 60 L 112 64 L 112 68 L 112 72 L 112 76 L 112 80 L 112 84 L 112 88 L 108 88 L 104 88 L 100 88 L 96 88 L 92 88 L 88 88 L 84 88 L 80 88 L 76 88 L 72 88 L 68 88 L 64 88 L 60 88 L 56 88 L 52 88 L 48 88 L 44 88 L 40 88 L 40 92 L 40 96 L 36 96 L 32 96 L 32 100 L 32 104 L 36 104 L 40 104 L 40 108 L 40 112 L 44 112 L 48 112 L 48 108 L 48 104 L 48 100 L 48 96 L 52 96 L 56 96 L 60 96 L 64 96 L 68 96 L 72 96 L 76 96 L 80 96 L 84 96 L 88 96 L 92 96 L 96 96 L 100 96 L 104 96 L 108 96 L 112 96 L 116 96 L 120 96 L 120 92 L 120 88 L 120 84 L 120 80 L 120 76 L 120 72 L 120 68 L 120 64 L 120 60 L 120 56 L 120 52 L 120 48 L 120 44 L 120 40 L 120 36 L 120 32 L 120 28 L 120 24 L 116 24 L 112 24 L 108 24 L 104 24 L 100 24 L 96 24 L 92 24 L 88 24 L 84 24 L 80 24 z M 32 96 L 32 92 L 32 88 L 28 88 L 24 88 L 24 92 L 24 96 L 28 96 L 32 96 z M 24 88 L 24 84 L 24 80 L 20 80 L 16 80 L 16 84 L 16 88 L 20 88 L 24 88 z M 16 80 L 16 76 L 16 72 L 12 72 L 8 72 L 8 76 L 8 80 L 12 80 L 16 80 z M 16 72 L 20 72 L 24 72 L 24 68 L 24 64 L 20 64 L 16 64 L 16 68 L 16 72 z M 24 64 L 28 64 L 32 64 L 32 60 L 32 56 L 28 56 L 24 56 L 24 60 L 24 64 z "
     id="rect722" />
</svg>
