<?xml version="1.0" encoding="UTF-8" standalone="no"?>
<svg
   xmlns:dc="http://purl.org/dc/elements/1.1/"
   xmlns:cc="http://creativecommons.org/ns#"
   xmlns:rdf="http://www.w3.org/1999/02/22-rdf-syntax-ns#"
   xmlns:svg="http://www.w3.org/2000/svg"
   xmlns="http://www.w3.org/2000/svg"
   xmlns:sodipodi="http://sodipodi.sourceforge.net/DTD/sodipodi-0.dtd"
   xmlns:inkscape="http://www.inkscape.org/namespaces/inkscape"
   id="svg948"
   width="128px"
   version="1.1"
   height="128px"
   sodipodi:docname="chicago95_tmp_file.svg"
   inkscape:version="0.92.4 (5da689c313, 2019-01-14)">
  <sodipodi:namedview
     pagecolor="#ffffff"
     bordercolor="#666666"
     borderopacity="1"
     objecttolerance="10"
     gridtolerance="10"
     guidetolerance="10"
     inkscape:pageopacity="0"
     inkscape:pageshadow="2"
     inkscape:window-width="640"
     inkscape:window-height="480"
     id="namedview477"
     showgrid="false"
     inkscape:zoom="1.84375"
     inkscape:cx="64"
     inkscape:cy="64"
     inkscape:window-x="0"
     inkscape:window-y="0"
     inkscape:window-maximized="0"
     inkscape:current-layer="svg948" />
  <metadata
     id="metadata952">
    <rdf:RDF>
      <cc:Work
         rdf:about="">
        <dc:format>image/svg+xml</dc:format>
        <dc:type
           rdf:resource="http://purl.org/dc/dcmitype/StillImage" />
      </cc:Work>
    </rdf:RDF>
  </metadata>
  <defs
     id="defs2" />
  <path
     style="fill:#00ffff"
     d="M 112 24 L 112 28 L 112 32 L 112 36 L 112 40 L 112 44 L 112 48 L 112 52 L 112 56 L 112 60 L 112 64 L 112 68 L 112 72 L 112 76 L 112 80 L 112 84 L 112 88 L 112 92 L 112 96 L 112 100 L 112 104 L 112 108 L 112 112 L 116 112 L 120 112 L 120 108 L 120 104 L 120 100 L 120 96 L 120 92 L 120 88 L 120 84 L 120 80 L 120 76 L 120 72 L 120 68 L 120 64 L 120 60 L 120 56 L 120 52 L 120 48 L 120 44 L 120 40 L 120 36 L 120 32 L 120 28 L 120 24 L 116 24 L 112 24 z M 56 32 L 56 36 L 56 40 L 56 44 L 56 48 L 56 52 L 56 56 L 52 56 L 48 56 L 44 56 L 40 56 L 36 56 L 32 56 L 28 56 L 24 56 L 20 56 L 16 56 L 12 56 L 8 56 L 8 60 L 8 64 L 8 68 L 8 72 L 8 76 L 8 80 L 12 80 L 16 80 L 20 80 L 24 80 L 28 80 L 32 80 L 36 80 L 40 80 L 44 80 L 48 80 L 52 80 L 56 80 L 56 84 L 56 88 L 56 92 L 56 96 L 56 100 L 56 104 L 60 104 L 64 104 L 64 100 L 64 96 L 68 96 L 72 96 L 72 92 L 72 88 L 76 88 L 80 88 L 80 84 L 80 80 L 84 80 L 88 80 L 88 76 L 88 72 L 92 72 L 96 72 L 96 68 L 96 64 L 92 64 L 88 64 L 88 60 L 88 56 L 84 56 L 80 56 L 80 52 L 80 48 L 76 48 L 72 48 L 72 44 L 72 40 L 68 40 L 64 40 L 64 36 L 64 32 L 60 32 L 56 32 z "
     id="rect910" />
  <path
     style="fill:#000000"
     d="M 48 16 L 48 20 L 48 24 L 48 28 L 48 32 L 48 36 L 48 40 L 48 44 L 48 48 L 44 48 L 40 48 L 36 48 L 32 48 L 28 48 L 24 48 L 20 48 L 16 48 L 12 48 L 8 48 L 4 48 L 0 48 L 0 52 L 0 56 L 0 60 L 0 64 L 0 68 L 0 72 L 0 76 L 0 80 L 0 84 L 0 88 L 4 88 L 8 88 L 12 88 L 16 88 L 20 88 L 24 88 L 28 88 L 32 88 L 36 88 L 40 88 L 44 88 L 48 88 L 48 92 L 48 96 L 48 100 L 48 104 L 48 108 L 48 112 L 48 116 L 48 120 L 52 120 L 56 120 L 56 116 L 56 112 L 60 112 L 64 112 L 64 108 L 64 104 L 60 104 L 56 104 L 56 100 L 56 96 L 56 92 L 56 88 L 56 84 L 56 80 L 52 80 L 48 80 L 44 80 L 40 80 L 36 80 L 32 80 L 28 80 L 24 80 L 20 80 L 16 80 L 12 80 L 8 80 L 8 76 L 8 72 L 8 68 L 8 64 L 8 60 L 8 56 L 12 56 L 16 56 L 20 56 L 24 56 L 28 56 L 32 56 L 36 56 L 40 56 L 44 56 L 48 56 L 52 56 L 56 56 L 56 52 L 56 48 L 56 44 L 56 40 L 56 36 L 56 32 L 60 32 L 64 32 L 64 28 L 64 24 L 60 24 L 56 24 L 56 20 L 56 16 L 52 16 L 48 16 z M 64 32 L 64 36 L 64 40 L 68 40 L 72 40 L 72 36 L 72 32 L 68 32 L 64 32 z M 72 40 L 72 44 L 72 48 L 76 48 L 80 48 L 80 44 L 80 40 L 76 40 L 72 40 z M 80 48 L 80 52 L 80 56 L 84 56 L 88 56 L 88 52 L 88 48 L 84 48 L 80 48 z M 88 56 L 88 60 L 88 64 L 92 64 L 96 64 L 96 60 L 96 56 L 92 56 L 88 56 z M 96 64 L 96 68 L 96 72 L 100 72 L 104 72 L 104 76 L 104 80 L 104 84 L 104 88 L 104 92 L 104 96 L 104 100 L 104 104 L 104 108 L 104 112 L 104 116 L 104 120 L 108 120 L 112 120 L 116 120 L 120 120 L 124 120 L 128 120 L 128 116 L 128 112 L 128 108 L 128 104 L 128 100 L 128 96 L 128 92 L 128 88 L 128 84 L 128 80 L 128 76 L 128 72 L 128 68 L 128 64 L 128 60 L 128 56 L 128 52 L 128 48 L 128 44 L 128 40 L 128 36 L 128 32 L 128 28 L 128 24 L 128 20 L 128 16 L 124 16 L 120 16 L 116 16 L 112 16 L 108 16 L 104 16 L 104 20 L 104 24 L 104 28 L 104 32 L 104 36 L 104 40 L 104 44 L 104 48 L 104 52 L 104 56 L 104 60 L 104 64 L 100 64 L 96 64 z M 96 72 L 92 72 L 88 72 L 88 76 L 88 80 L 92 80 L 96 80 L 96 76 L 96 72 z M 88 80 L 84 80 L 80 80 L 80 84 L 80 88 L 84 88 L 88 88 L 88 84 L 88 80 z M 80 88 L 76 88 L 72 88 L 72 92 L 72 96 L 76 96 L 80 96 L 80 92 L 80 88 z M 72 96 L 68 96 L 64 96 L 64 100 L 64 104 L 68 104 L 72 104 L 72 100 L 72 96 z M 112 24 L 116 24 L 120 24 L 120 28 L 120 32 L 120 36 L 120 40 L 120 44 L 120 48 L 120 52 L 120 56 L 120 60 L 120 64 L 120 68 L 120 72 L 120 76 L 120 80 L 120 84 L 120 88 L 120 92 L 120 96 L 120 100 L 120 104 L 120 108 L 120 112 L 116 112 L 112 112 L 112 108 L 112 104 L 112 100 L 112 96 L 112 92 L 112 88 L 112 84 L 112 80 L 112 76 L 112 72 L 112 68 L 112 64 L 112 60 L 112 56 L 112 52 L 112 48 L 112 44 L 112 40 L 112 36 L 112 32 L 112 28 L 112 24 z "
     id="rect946" />
</svg>
