<?xml version="1.0" encoding="UTF-8" standalone="no"?>
<svg
   xmlns:dc="http://purl.org/dc/elements/1.1/"
   xmlns:cc="http://creativecommons.org/ns#"
   xmlns:rdf="http://www.w3.org/1999/02/22-rdf-syntax-ns#"
   xmlns:svg="http://www.w3.org/2000/svg"
   xmlns="http://www.w3.org/2000/svg"
   xmlns:sodipodi="http://sodipodi.sourceforge.net/DTD/sodipodi-0.dtd"
   xmlns:inkscape="http://www.inkscape.org/namespaces/inkscape"
   id="svg716"
   width="128px"
   version="1.1"
   height="128px"
   sodipodi:docname="chicago95_tmp_file.svg"
   inkscape:version="0.92.4 (5da689c313, 2019-01-14)">
  <sodipodi:namedview
     pagecolor="#ffffff"
     bordercolor="#666666"
     borderopacity="1"
     objecttolerance="10"
     gridtolerance="10"
     guidetolerance="10"
     inkscape:pageopacity="0"
     inkscape:pageshadow="2"
     inkscape:window-width="640"
     inkscape:window-height="480"
     id="namedview361"
     showgrid="false"
     inkscape:zoom="1.84375"
     inkscape:cx="64"
     inkscape:cy="64"
     inkscape:window-x="0"
     inkscape:window-y="0"
     inkscape:window-maximized="0"
     inkscape:current-layer="svg716" />
  <metadata
     id="metadata720">
    <rdf:RDF>
      <cc:Work
         rdf:about="">
        <dc:format>image/svg+xml</dc:format>
        <dc:type
           rdf:resource="http://purl.org/dc/dcmitype/StillImage" />
      </cc:Work>
    </rdf:RDF>
  </metadata>
  <defs
     id="defs2" />
  <path
     style="fill:#00ffff"
     d="M 64 16 L 64 20 L 64 24 L 60 24 L 56 24 L 56 28 L 56 32 L 52 32 L 48 32 L 48 36 L 48 40 L 44 40 L 40 40 L 40 44 L 40 48 L 36 48 L 32 48 L 32 52 L 32 56 L 36 56 L 40 56 L 44 56 L 48 56 L 52 56 L 56 56 L 56 60 L 56 64 L 56 68 L 56 72 L 56 76 L 56 80 L 56 84 L 56 88 L 56 92 L 56 96 L 56 100 L 56 104 L 56 108 L 56 112 L 56 116 L 56 120 L 60 120 L 64 120 L 68 120 L 72 120 L 76 120 L 80 120 L 80 116 L 80 112 L 80 108 L 80 104 L 80 100 L 80 96 L 80 92 L 80 88 L 80 84 L 80 80 L 80 76 L 80 72 L 80 68 L 80 64 L 80 60 L 80 56 L 84 56 L 88 56 L 92 56 L 96 56 L 100 56 L 104 56 L 104 52 L 104 48 L 100 48 L 96 48 L 96 44 L 96 40 L 92 40 L 88 40 L 88 36 L 88 32 L 84 32 L 80 32 L 80 28 L 80 24 L 76 24 L 72 24 L 72 20 L 72 16 L 68 16 L 64 16 z "
     id="rect670" />
  <path
     style="fill:#000000"
     d="M 64 8 L 64 12 L 64 16 L 68 16 L 72 16 L 72 12 L 72 8 L 68 8 L 64 8 z M 72 16 L 72 20 L 72 24 L 76 24 L 80 24 L 80 20 L 80 16 L 76 16 L 72 16 z M 80 24 L 80 28 L 80 32 L 84 32 L 88 32 L 88 28 L 88 24 L 84 24 L 80 24 z M 88 32 L 88 36 L 88 40 L 92 40 L 96 40 L 96 36 L 96 32 L 92 32 L 88 32 z M 96 40 L 96 44 L 96 48 L 100 48 L 104 48 L 104 44 L 104 40 L 100 40 L 96 40 z M 104 48 L 104 52 L 104 56 L 100 56 L 96 56 L 92 56 L 88 56 L 84 56 L 80 56 L 80 60 L 80 64 L 80 68 L 80 72 L 80 76 L 80 80 L 80 84 L 80 88 L 80 92 L 80 96 L 80 100 L 80 104 L 80 108 L 80 112 L 80 116 L 80 120 L 76 120 L 72 120 L 68 120 L 64 120 L 60 120 L 56 120 L 56 116 L 56 112 L 56 108 L 56 104 L 56 100 L 56 96 L 56 92 L 56 88 L 56 84 L 56 80 L 56 76 L 56 72 L 56 68 L 56 64 L 56 60 L 56 56 L 52 56 L 48 56 L 44 56 L 40 56 L 36 56 L 32 56 L 32 52 L 32 48 L 28 48 L 24 48 L 24 52 L 24 56 L 20 56 L 16 56 L 16 60 L 16 64 L 20 64 L 24 64 L 28 64 L 32 64 L 36 64 L 40 64 L 44 64 L 48 64 L 48 68 L 48 72 L 48 76 L 48 80 L 48 84 L 48 88 L 48 92 L 48 96 L 48 100 L 48 104 L 48 108 L 48 112 L 48 116 L 48 120 L 48 124 L 48 128 L 52 128 L 56 128 L 60 128 L 64 128 L 68 128 L 72 128 L 76 128 L 80 128 L 84 128 L 88 128 L 88 124 L 88 120 L 88 116 L 88 112 L 88 108 L 88 104 L 88 100 L 88 96 L 88 92 L 88 88 L 88 84 L 88 80 L 88 76 L 88 72 L 88 68 L 88 64 L 92 64 L 96 64 L 100 64 L 104 64 L 108 64 L 112 64 L 116 64 L 120 64 L 120 60 L 120 56 L 116 56 L 112 56 L 112 52 L 112 48 L 108 48 L 104 48 z M 32 48 L 36 48 L 40 48 L 40 44 L 40 40 L 36 40 L 32 40 L 32 44 L 32 48 z M 40 40 L 44 40 L 48 40 L 48 36 L 48 32 L 44 32 L 40 32 L 40 36 L 40 40 z M 48 32 L 52 32 L 56 32 L 56 28 L 56 24 L 52 24 L 48 24 L 48 28 L 48 32 z M 56 24 L 60 24 L 64 24 L 64 20 L 64 16 L 60 16 L 56 16 L 56 20 L 56 24 z "
     id="rect714" />
</svg>
