<?xml version="1.0" encoding="UTF-8" standalone="no"?>
<svg
   xmlns:dc="http://purl.org/dc/elements/1.1/"
   xmlns:cc="http://creativecommons.org/ns#"
   xmlns:rdf="http://www.w3.org/1999/02/22-rdf-syntax-ns#"
   xmlns:svg="http://www.w3.org/2000/svg"
   xmlns="http://www.w3.org/2000/svg"
   xmlns:sodipodi="http://sodipodi.sourceforge.net/DTD/sodipodi-0.dtd"
   xmlns:inkscape="http://www.inkscape.org/namespaces/inkscape"
   id="svg1524"
   width="128px"
   version="1.1"
   height="128px"
   sodipodi:docname="chicago95_tmp_file.svg"
   inkscape:version="0.92.4 (5da689c313, 2019-01-14)">
  <sodipodi:namedview
     pagecolor="#ffffff"
     bordercolor="#666666"
     borderopacity="1"
     objecttolerance="10"
     gridtolerance="10"
     guidetolerance="10"
     inkscape:pageopacity="0"
     inkscape:pageshadow="2"
     inkscape:window-width="640"
     inkscape:window-height="480"
     id="namedview765"
     showgrid="false"
     inkscape:zoom="1.84375"
     inkscape:cx="64"
     inkscape:cy="64"
     inkscape:window-x="0"
     inkscape:window-y="0"
     inkscape:window-maximized="0"
     inkscape:current-layer="svg1524" />
  <metadata
     id="metadata1528">
    <rdf:RDF>
      <cc:Work
         rdf:about="">
        <dc:format>image/svg+xml</dc:format>
        <dc:type
           rdf:resource="http://purl.org/dc/dcmitype/StillImage" />
      </cc:Work>
    </rdf:RDF>
  </metadata>
  <defs
     id="defs2" />
  <path
     style="fill:#ffffff"
     d="M 40 16 L 40 20 L 40 24 L 40 28 L 40 32 L 36 32 L 32 32 L 32 36 L 32 40 L 32 44 L 32 48 L 28 48 L 24 48 L 24 52 L 24 56 L 28 56 L 32 56 L 36 56 L 40 56 L 44 56 L 48 56 L 52 56 L 56 56 L 60 56 L 64 56 L 68 56 L 72 56 L 76 56 L 80 56 L 84 56 L 88 56 L 88 52 L 88 48 L 88 44 L 88 40 L 92 40 L 96 40 L 96 36 L 96 32 L 96 28 L 96 24 L 100 24 L 104 24 L 104 20 L 104 16 L 100 16 L 96 16 L 92 16 L 88 16 L 84 16 L 80 16 L 76 16 L 72 16 L 68 16 L 64 16 L 60 16 L 56 16 L 52 16 L 48 16 L 44 16 L 40 16 z M 48 24 L 52 24 L 56 24 L 60 24 L 64 24 L 68 24 L 72 24 L 76 24 L 80 24 L 84 24 L 88 24 L 88 28 L 88 32 L 84 32 L 80 32 L 76 32 L 72 32 L 68 32 L 64 32 L 60 32 L 56 32 L 52 32 L 48 32 L 48 28 L 48 24 z M 40 40 L 44 40 L 48 40 L 52 40 L 56 40 L 60 40 L 64 40 L 68 40 L 72 40 L 76 40 L 80 40 L 80 44 L 80 48 L 76 48 L 72 48 L 68 48 L 64 48 L 60 48 L 56 48 L 52 48 L 48 48 L 44 48 L 40 48 L 40 44 L 40 40 z "
     id="rect494" />
  <path
     style="fill:#c0c0c0"
     d="M 96 48 L 96 52 L 96 56 L 100 56 L 104 56 L 104 52 L 104 48 L 100 48 L 96 48 z M 104 56 L 104 60 L 104 64 L 108 64 L 112 64 L 112 60 L 112 56 L 108 56 L 104 56 z M 112 56 L 116 56 L 120 56 L 120 52 L 120 48 L 116 48 L 112 48 L 112 52 L 112 56 z M 112 64 L 112 68 L 112 72 L 108 72 L 104 72 L 104 76 L 108 76 L 108 80 L 112 80 L 116 80 L 120 80 L 120 76 L 120 72 L 120 68 L 120 64 L 116 64 L 112 64 z M 104 72 L 104 68 L 104 64 L 100 64 L 96 64 L 96 68 L 96 72 L 100 72 L 104 72 z M 96 64 L 96 60 L 96 56 L 92 56 L 88 56 L 88 60 L 88 64 L 92 64 L 96 64 z M 88 64 L 84 64 L 80 64 L 76 64 L 72 64 L 68 64 L 64 64 L 60 64 L 56 64 L 52 64 L 48 64 L 44 64 L 40 64 L 36 64 L 32 64 L 28 64 L 24 64 L 20 64 L 16 64 L 12 64 L 8 64 L 8 68 L 8 72 L 12 72 L 16 72 L 20 72 L 24 72 L 28 72 L 32 72 L 36 72 L 40 72 L 44 72 L 48 72 L 52 72 L 56 72 L 60 72 L 64 72 L 68 72 L 72 72 L 76 72 L 80 72 L 84 72 L 88 72 L 88 68 L 88 64 z M 8 80 L 8 84 L 8 88 L 8 92 L 8 96 L 12 96 L 16 96 L 20 96 L 24 96 L 28 96 L 32 96 L 36 96 L 40 96 L 44 96 L 48 96 L 52 96 L 56 96 L 56 92 L 56 88 L 56 84 L 56 80 L 52 80 L 48 80 L 44 80 L 40 80 L 36 80 L 32 80 L 28 80 L 24 80 L 20 80 L 16 80 L 12 80 L 8 80 z M 80 80 L 80 84 L 80 88 L 80 92 L 80 96 L 84 96 L 88 96 L 92 96 L 92 92 L 92 88 L 96 88 L 96 84 L 96 80 L 92 80 L 88 80 L 84 80 L 80 80 z M 16 104 L 16 108 L 16 112 L 20 112 L 24 112 L 28 112 L 32 112 L 36 112 L 40 112 L 44 112 L 48 112 L 52 112 L 56 112 L 60 112 L 64 112 L 68 112 L 72 112 L 76 112 L 80 112 L 84 112 L 84 108 L 84 104 L 80 104 L 76 104 L 72 104 L 68 104 L 64 104 L 60 104 L 56 104 L 52 104 L 48 104 L 44 104 L 40 104 L 36 104 L 32 104 L 28 104 L 24 104 L 20 104 L 16 104 z "
     id="rect1346" />
  <path
     style="fill:#ffff00"
     d="M 100 84 L 100 88 L 96 88 L 96 92 L 96 96 L 92 96 L 92 100 L 92 104 L 88 104 L 88 108 L 88 112 L 84 112 L 84 116 L 84 120 L 88 120 L 92 120 L 96 120 L 100 120 L 104 120 L 108 120 L 112 120 L 116 120 L 120 120 L 124 120 L 124 116 L 124 112 L 120 112 L 120 108 L 120 104 L 116 104 L 116 100 L 116 96 L 112 96 L 112 92 L 112 88 L 108 88 L 108 84 L 104 84 L 100 84 z M 56 88 L 56 92 L 56 96 L 60 96 L 64 96 L 68 96 L 72 96 L 76 96 L 80 96 L 80 92 L 80 88 L 76 88 L 72 88 L 68 88 L 64 88 L 60 88 L 56 88 z M 100 92 L 104 92 L 108 92 L 108 96 L 108 100 L 108 104 L 108 108 L 104 108 L 100 108 L 100 104 L 100 100 L 100 96 L 100 92 z M 100 112 L 104 112 L 108 112 L 108 116 L 104 116 L 100 116 L 100 112 z "
     id="rect1476" />
  <path
     style="fill:#000000"
     d="M 40 8 L 40 12 L 40 16 L 44 16 L 48 16 L 52 16 L 56 16 L 60 16 L 64 16 L 68 16 L 72 16 L 76 16 L 80 16 L 84 16 L 88 16 L 92 16 L 96 16 L 100 16 L 104 16 L 104 20 L 104 24 L 108 24 L 112 24 L 112 20 L 112 16 L 112 12 L 112 8 L 108 8 L 104 8 L 100 8 L 96 8 L 92 8 L 88 8 L 84 8 L 80 8 L 76 8 L 72 8 L 68 8 L 64 8 L 60 8 L 56 8 L 52 8 L 48 8 L 44 8 L 40 8 z M 104 24 L 100 24 L 96 24 L 96 28 L 96 32 L 96 36 L 96 40 L 92 40 L 88 40 L 88 44 L 88 48 L 88 52 L 88 56 L 92 56 L 96 56 L 96 52 L 96 48 L 100 48 L 104 48 L 104 52 L 104 56 L 108 56 L 112 56 L 112 52 L 112 48 L 116 48 L 120 48 L 120 44 L 120 40 L 116 40 L 112 40 L 108 40 L 104 40 L 104 36 L 104 32 L 104 28 L 104 24 z M 120 48 L 120 52 L 120 56 L 116 56 L 112 56 L 112 60 L 112 64 L 116 64 L 120 64 L 120 68 L 120 72 L 120 76 L 120 80 L 124 80 L 128 80 L 128 76 L 128 72 L 128 68 L 128 64 L 128 60 L 128 56 L 128 52 L 128 48 L 124 48 L 120 48 z M 120 80 L 116 80 L 112 80 L 108 80 L 108 76 L 104 76 L 104 72 L 100 72 L 96 72 L 96 68 L 96 64 L 92 64 L 88 64 L 88 68 L 88 72 L 84 72 L 80 72 L 76 72 L 72 72 L 68 72 L 64 72 L 60 72 L 56 72 L 52 72 L 48 72 L 44 72 L 40 72 L 36 72 L 32 72 L 28 72 L 24 72 L 20 72 L 16 72 L 12 72 L 8 72 L 8 68 L 8 64 L 4 64 L 0 64 L 0 68 L 0 72 L 0 76 L 0 80 L 0 84 L 0 88 L 0 92 L 0 96 L 0 100 L 0 104 L 4 104 L 8 104 L 8 108 L 8 112 L 12 112 L 16 112 L 16 108 L 16 104 L 20 104 L 24 104 L 28 104 L 32 104 L 36 104 L 40 104 L 44 104 L 48 104 L 52 104 L 56 104 L 60 104 L 64 104 L 68 104 L 72 104 L 76 104 L 80 104 L 84 104 L 84 108 L 84 112 L 88 112 L 88 108 L 88 104 L 92 104 L 92 100 L 92 96 L 88 96 L 84 96 L 80 96 L 76 96 L 72 96 L 68 96 L 64 96 L 60 96 L 56 96 L 52 96 L 48 96 L 44 96 L 40 96 L 36 96 L 32 96 L 28 96 L 24 96 L 20 96 L 16 96 L 12 96 L 8 96 L 8 92 L 8 88 L 8 84 L 8 80 L 12 80 L 16 80 L 20 80 L 24 80 L 28 80 L 32 80 L 36 80 L 40 80 L 44 80 L 48 80 L 52 80 L 56 80 L 60 80 L 64 80 L 68 80 L 72 80 L 76 80 L 80 80 L 84 80 L 88 80 L 92 80 L 96 80 L 96 84 L 96 88 L 100 88 L 100 84 L 104 84 L 108 84 L 108 88 L 112 88 L 112 92 L 112 96 L 116 96 L 116 100 L 116 104 L 120 104 L 120 100 L 120 96 L 120 92 L 120 88 L 120 84 L 120 80 z M 120 104 L 120 108 L 120 112 L 124 112 L 124 108 L 124 104 L 120 104 z M 124 112 L 124 116 L 124 120 L 128 120 L 128 116 L 128 112 L 124 112 z M 124 120 L 120 120 L 116 120 L 112 120 L 108 120 L 104 120 L 100 120 L 96 120 L 92 120 L 88 120 L 84 120 L 84 124 L 88 124 L 92 124 L 96 124 L 100 124 L 104 124 L 108 124 L 112 124 L 116 124 L 120 124 L 124 124 L 124 120 z M 84 120 L 84 116 L 84 112 L 80 112 L 76 112 L 72 112 L 68 112 L 64 112 L 60 112 L 56 112 L 52 112 L 48 112 L 44 112 L 40 112 L 36 112 L 32 112 L 28 112 L 24 112 L 20 112 L 16 112 L 16 116 L 16 120 L 20 120 L 24 120 L 28 120 L 32 120 L 36 120 L 40 120 L 44 120 L 48 120 L 52 120 L 56 120 L 60 120 L 64 120 L 68 120 L 72 120 L 76 120 L 80 120 L 84 120 z M 96 88 L 92 88 L 92 92 L 92 96 L 96 96 L 96 92 L 96 88 z M 8 64 L 12 64 L 16 64 L 20 64 L 24 64 L 28 64 L 32 64 L 36 64 L 40 64 L 44 64 L 48 64 L 52 64 L 56 64 L 60 64 L 64 64 L 68 64 L 72 64 L 76 64 L 80 64 L 84 64 L 88 64 L 88 60 L 88 56 L 84 56 L 80 56 L 76 56 L 72 56 L 68 56 L 64 56 L 60 56 L 56 56 L 52 56 L 48 56 L 44 56 L 40 56 L 36 56 L 32 56 L 28 56 L 24 56 L 24 52 L 24 48 L 20 48 L 16 48 L 16 52 L 16 56 L 12 56 L 8 56 L 8 60 L 8 64 z M 24 48 L 28 48 L 32 48 L 32 44 L 32 40 L 32 36 L 32 32 L 28 32 L 24 32 L 24 36 L 24 40 L 24 44 L 24 48 z M 32 32 L 36 32 L 40 32 L 40 28 L 40 24 L 40 20 L 40 16 L 36 16 L 32 16 L 32 20 L 32 24 L 32 28 L 32 32 z M 96 64 L 100 64 L 104 64 L 104 60 L 104 56 L 100 56 L 96 56 L 96 60 L 96 64 z M 104 64 L 104 68 L 104 72 L 108 72 L 112 72 L 112 68 L 112 64 L 108 64 L 104 64 z M 48 24 L 48 28 L 48 32 L 52 32 L 56 32 L 60 32 L 64 32 L 68 32 L 72 32 L 76 32 L 80 32 L 84 32 L 88 32 L 88 28 L 88 24 L 84 24 L 80 24 L 76 24 L 72 24 L 68 24 L 64 24 L 60 24 L 56 24 L 52 24 L 48 24 z M 40 40 L 40 44 L 40 48 L 44 48 L 48 48 L 52 48 L 56 48 L 60 48 L 64 48 L 68 48 L 72 48 L 76 48 L 80 48 L 80 44 L 80 40 L 76 40 L 72 40 L 68 40 L 64 40 L 60 40 L 56 40 L 52 40 L 48 40 L 44 40 L 40 40 z M 100 92 L 100 96 L 100 100 L 100 104 L 100 108 L 104 108 L 108 108 L 108 104 L 108 100 L 108 96 L 108 92 L 104 92 L 100 92 z M 100 112 L 100 116 L 104 116 L 108 116 L 108 112 L 104 112 L 100 112 z "
     id="rect1500" />
  <path
     style="fill:#808080"
     d="M 56 80 L 56 84 L 56 88 L 60 88 L 64 88 L 68 88 L 72 88 L 76 88 L 80 88 L 80 84 L 80 80 L 76 80 L 72 80 L 68 80 L 64 80 L 60 80 L 56 80 z M 80 120 L 80 124 L 84 124 L 84 120 L 80 120 z M 84 124 L 84 128 L 88 128 L 92 128 L 96 128 L 100 128 L 104 128 L 108 128 L 112 128 L 116 128 L 120 128 L 124 128 L 124 124 L 120 124 L 116 124 L 112 124 L 108 124 L 104 124 L 100 124 L 96 124 L 92 124 L 88 124 L 84 124 z M 124 124 L 128 124 L 128 120 L 124 120 L 124 124 z "
     id="rect1522" />
</svg>
