<?xml version="1.0" encoding="UTF-8" standalone="no"?>
<svg
   xmlns:dc="http://purl.org/dc/elements/1.1/"
   xmlns:cc="http://creativecommons.org/ns#"
   xmlns:rdf="http://www.w3.org/1999/02/22-rdf-syntax-ns#"
   xmlns:svg="http://www.w3.org/2000/svg"
   xmlns="http://www.w3.org/2000/svg"
   xmlns:sodipodi="http://sodipodi.sourceforge.net/DTD/sodipodi-0.dtd"
   xmlns:inkscape="http://www.inkscape.org/namespaces/inkscape"
   id="svg548"
   width="128px"
   version="1.1"
   height="128px"
   sodipodi:docname="chicago95_tmp_file.svg"
   inkscape:version="0.92.4 (5da689c313, 2019-01-14)">
  <sodipodi:namedview
     pagecolor="#ffffff"
     bordercolor="#666666"
     borderopacity="1"
     objecttolerance="10"
     gridtolerance="10"
     guidetolerance="10"
     inkscape:pageopacity="0"
     inkscape:pageshadow="2"
     inkscape:window-width="640"
     inkscape:window-height="480"
     id="namedview277"
     showgrid="false"
     inkscape:zoom="1.84375"
     inkscape:cx="64"
     inkscape:cy="64"
     inkscape:window-x="0"
     inkscape:window-y="0"
     inkscape:window-maximized="0"
     inkscape:current-layer="svg548" />
  <metadata
     id="metadata552">
    <rdf:RDF>
      <cc:Work
         rdf:about="">
        <dc:format>image/svg+xml</dc:format>
        <dc:type
           rdf:resource="http://purl.org/dc/dcmitype/StillImage" />
      </cc:Work>
    </rdf:RDF>
  </metadata>
  <defs
     id="defs2" />
  <path
     style="fill:#000000"
     d="M 16 24 L 16 28 L 16 32 L 16 36 L 16 40 L 16 44 L 16 48 L 16 52 L 16 56 L 16 60 L 16 64 L 16 68 L 16 72 L 16 76 L 16 80 L 16 84 L 16 88 L 16 92 L 16 96 L 20 96 L 24 96 L 28 96 L 32 96 L 32 92 L 32 88 L 32 84 L 32 80 L 32 76 L 32 72 L 32 68 L 32 64 L 36 64 L 40 64 L 40 68 L 40 72 L 44 72 L 48 72 L 48 76 L 48 80 L 52 80 L 56 80 L 56 84 L 56 88 L 60 88 L 64 88 L 64 92 L 64 96 L 68 96 L 72 96 L 72 92 L 72 88 L 72 84 L 72 80 L 72 76 L 72 72 L 72 68 L 72 64 L 76 64 L 80 64 L 80 68 L 80 72 L 84 72 L 88 72 L 88 76 L 88 80 L 92 80 L 96 80 L 96 84 L 96 88 L 100 88 L 104 88 L 104 92 L 104 96 L 108 96 L 112 96 L 112 92 L 112 88 L 112 84 L 112 80 L 112 76 L 112 72 L 112 68 L 112 64 L 112 60 L 112 56 L 112 52 L 112 48 L 112 44 L 112 40 L 112 36 L 112 32 L 112 28 L 112 24 L 108 24 L 104 24 L 104 28 L 104 32 L 100 32 L 96 32 L 96 36 L 96 40 L 92 40 L 88 40 L 88 44 L 88 48 L 84 48 L 80 48 L 80 52 L 80 56 L 76 56 L 72 56 L 72 52 L 72 48 L 72 44 L 72 40 L 72 36 L 72 32 L 72 28 L 72 24 L 68 24 L 64 24 L 64 28 L 64 32 L 60 32 L 56 32 L 56 36 L 56 40 L 52 40 L 48 40 L 48 44 L 48 48 L 44 48 L 40 48 L 40 52 L 40 56 L 36 56 L 32 56 L 32 52 L 32 48 L 32 44 L 32 40 L 32 36 L 32 32 L 32 28 L 32 24 L 28 24 L 24 24 L 20 24 L 16 24 z "
     id="rect546" />
</svg>
