<?xml version="1.0" encoding="UTF-8" standalone="no"?>
<svg
   xmlns:dc="http://purl.org/dc/elements/1.1/"
   xmlns:cc="http://creativecommons.org/ns#"
   xmlns:rdf="http://www.w3.org/1999/02/22-rdf-syntax-ns#"
   xmlns:svg="http://www.w3.org/2000/svg"
   xmlns="http://www.w3.org/2000/svg"
   xmlns:sodipodi="http://sodipodi.sourceforge.net/DTD/sodipodi-0.dtd"
   xmlns:inkscape="http://www.inkscape.org/namespaces/inkscape"
   id="svg532"
   width="128px"
   version="1.1"
   height="128px"
   sodipodi:docname="chicago95_tmp_file.svg"
   inkscape:version="0.92.4 (5da689c313, 2019-01-14)">
  <sodipodi:namedview
     pagecolor="#ffffff"
     bordercolor="#666666"
     borderopacity="1"
     objecttolerance="10"
     gridtolerance="10"
     guidetolerance="10"
     inkscape:pageopacity="0"
     inkscape:pageshadow="2"
     inkscape:window-width="640"
     inkscape:window-height="480"
     id="namedview269"
     showgrid="false"
     inkscape:zoom="1.84375"
     inkscape:cx="64"
     inkscape:cy="64"
     inkscape:window-x="0"
     inkscape:window-y="0"
     inkscape:window-maximized="0"
     inkscape:current-layer="svg532" />
  <metadata
     id="metadata536">
    <rdf:RDF>
      <cc:Work
         rdf:about="">
        <dc:format>image/svg+xml</dc:format>
        <dc:type
           rdf:resource="http://purl.org/dc/dcmitype/StillImage" />
      </cc:Work>
    </rdf:RDF>
  </metadata>
  <defs
     id="defs2" />
  <path
     style="fill:#000000"
     d="M 56 24 L 56 28 L 56 32 L 52 32 L 48 32 L 48 36 L 48 40 L 44 40 L 40 40 L 40 44 L 40 48 L 36 48 L 32 48 L 32 52 L 32 56 L 28 56 L 24 56 L 24 60 L 24 64 L 20 64 L 16 64 L 16 68 L 16 72 L 20 72 L 24 72 L 28 72 L 32 72 L 36 72 L 40 72 L 44 72 L 48 72 L 52 72 L 56 72 L 60 72 L 64 72 L 68 72 L 72 72 L 76 72 L 80 72 L 84 72 L 88 72 L 92 72 L 96 72 L 100 72 L 104 72 L 108 72 L 112 72 L 112 68 L 112 64 L 108 64 L 104 64 L 104 60 L 104 56 L 100 56 L 96 56 L 96 52 L 96 48 L 92 48 L 88 48 L 88 44 L 88 40 L 84 40 L 80 40 L 80 36 L 80 32 L 76 32 L 72 32 L 72 28 L 72 24 L 68 24 L 64 24 L 60 24 L 56 24 z M 16 88 L 16 92 L 16 96 L 16 100 L 16 104 L 20 104 L 24 104 L 28 104 L 32 104 L 36 104 L 40 104 L 44 104 L 48 104 L 52 104 L 56 104 L 60 104 L 64 104 L 68 104 L 72 104 L 76 104 L 80 104 L 84 104 L 88 104 L 92 104 L 96 104 L 100 104 L 104 104 L 108 104 L 112 104 L 112 100 L 112 96 L 112 92 L 112 88 L 108 88 L 104 88 L 100 88 L 96 88 L 92 88 L 88 88 L 84 88 L 80 88 L 76 88 L 72 88 L 68 88 L 64 88 L 60 88 L 56 88 L 52 88 L 48 88 L 44 88 L 40 88 L 36 88 L 32 88 L 28 88 L 24 88 L 20 88 L 16 88 z "
     id="rect530" />
</svg>
