<?xml version="1.0" encoding="UTF-8" standalone="no"?>
<svg
   xmlns:dc="http://purl.org/dc/elements/1.1/"
   xmlns:cc="http://creativecommons.org/ns#"
   xmlns:rdf="http://www.w3.org/1999/02/22-rdf-syntax-ns#"
   xmlns:svg="http://www.w3.org/2000/svg"
   xmlns="http://www.w3.org/2000/svg"
   xmlns:sodipodi="http://sodipodi.sourceforge.net/DTD/sodipodi-0.dtd"
   xmlns:inkscape="http://www.inkscape.org/namespaces/inkscape"
   id="svg156"
   width="128px"
   version="1.1"
   height="128px"
   sodipodi:docname="chicago95_tmp_file.svg"
   inkscape:version="0.92.4 (5da689c313, 2019-01-14)">
  <sodipodi:namedview
     pagecolor="#ffffff"
     bordercolor="#666666"
     borderopacity="1"
     objecttolerance="10"
     gridtolerance="10"
     guidetolerance="10"
     inkscape:pageopacity="0"
     inkscape:pageshadow="2"
     inkscape:window-width="640"
     inkscape:window-height="480"
     id="namedview81"
     showgrid="false"
     inkscape:zoom="1.84375"
     inkscape:cx="64"
     inkscape:cy="64"
     inkscape:window-x="0"
     inkscape:window-y="0"
     inkscape:window-maximized="0"
     inkscape:current-layer="svg156" />
  <metadata
     id="metadata160">
    <rdf:RDF>
      <cc:Work
         rdf:about="">
        <dc:format>image/svg+xml</dc:format>
        <dc:type
           rdf:resource="http://purl.org/dc/dcmitype/StillImage" />
      </cc:Work>
    </rdf:RDF>
  </metadata>
  <defs
     id="defs2" />
  <path
     style="fill:#000080"
     d="M 72 24 L 72 28 L 72 32 L 76 32 L 80 32 L 84 32 L 88 32 L 92 32 L 96 32 L 100 32 L 104 32 L 104 28 L 104 24 L 100 24 L 96 24 L 92 24 L 88 24 L 84 24 L 80 24 L 76 24 L 72 24 z M 72 32 L 68 32 L 64 32 L 64 36 L 64 40 L 68 40 L 72 40 L 72 36 L 72 32 z M 64 40 L 60 40 L 56 40 L 56 44 L 56 48 L 60 48 L 64 48 L 64 44 L 64 40 z M 56 48 L 52 48 L 48 48 L 48 52 L 48 56 L 48 60 L 48 64 L 48 68 L 48 72 L 48 76 L 48 80 L 44 80 L 40 80 L 36 80 L 32 80 L 32 84 L 32 88 L 36 88 L 40 88 L 40 92 L 40 96 L 44 96 L 48 96 L 48 100 L 48 104 L 52 104 L 56 104 L 56 100 L 56 96 L 60 96 L 64 96 L 64 92 L 64 88 L 68 88 L 72 88 L 72 84 L 72 80 L 68 80 L 64 80 L 60 80 L 56 80 L 56 76 L 56 72 L 56 68 L 56 64 L 56 60 L 56 56 L 56 52 L 56 48 z "
     id="rect154" />
</svg>
