<?xml version="1.0" encoding="UTF-8" standalone="no"?>
<svg
   xmlns:dc="http://purl.org/dc/elements/1.1/"
   xmlns:cc="http://creativecommons.org/ns#"
   xmlns:rdf="http://www.w3.org/1999/02/22-rdf-syntax-ns#"
   xmlns:svg="http://www.w3.org/2000/svg"
   xmlns="http://www.w3.org/2000/svg"
   xmlns:sodipodi="http://sodipodi.sourceforge.net/DTD/sodipodi-0.dtd"
   xmlns:inkscape="http://www.inkscape.org/namespaces/inkscape"
   id="svg188"
   width="128px"
   version="1.1"
   height="128px"
   sodipodi:docname="chicago95_tmp_file.svg"
   inkscape:version="0.92.4 (5da689c313, 2019-01-14)">
  <sodipodi:namedview
     pagecolor="#ffffff"
     bordercolor="#666666"
     borderopacity="1"
     objecttolerance="10"
     gridtolerance="10"
     guidetolerance="10"
     inkscape:pageopacity="0"
     inkscape:pageshadow="2"
     inkscape:window-width="640"
     inkscape:window-height="480"
     id="namedview97"
     showgrid="false"
     inkscape:zoom="1.84375"
     inkscape:cx="64"
     inkscape:cy="64"
     inkscape:window-x="0"
     inkscape:window-y="0"
     inkscape:window-maximized="0"
     inkscape:current-layer="svg188" />
  <metadata
     id="metadata192">
    <rdf:RDF>
      <cc:Work
         rdf:about="">
        <dc:format>image/svg+xml</dc:format>
        <dc:type
           rdf:resource="http://purl.org/dc/dcmitype/StillImage" />
      </cc:Work>
    </rdf:RDF>
  </metadata>
  <defs
     id="defs2" />
  <path
     style="fill:#000080"
     d="M 56 16 L 56 20 L 56 24 L 52 24 L 48 24 L 48 28 L 48 32 L 44 32 L 40 32 L 40 36 L 40 40 L 44 40 L 48 40 L 52 40 L 56 40 L 56 44 L 56 48 L 56 52 L 56 56 L 56 60 L 56 64 L 56 68 L 56 72 L 56 76 L 56 80 L 52 80 L 48 80 L 44 80 L 40 80 L 40 84 L 40 88 L 44 88 L 48 88 L 48 92 L 48 96 L 52 96 L 56 96 L 56 100 L 56 104 L 60 104 L 64 104 L 64 100 L 64 96 L 68 96 L 72 96 L 72 92 L 72 88 L 76 88 L 80 88 L 80 84 L 80 80 L 76 80 L 72 80 L 68 80 L 64 80 L 64 76 L 64 72 L 64 68 L 64 64 L 64 60 L 64 56 L 64 52 L 64 48 L 64 44 L 64 40 L 68 40 L 72 40 L 76 40 L 80 40 L 80 36 L 80 32 L 76 32 L 72 32 L 72 28 L 72 24 L 68 24 L 64 24 L 64 20 L 64 16 L 60 16 L 56 16 z "
     id="rect186" />
</svg>
