<?xml version="1.0" encoding="UTF-8" standalone="no"?>
<svg
   xmlns:dc="http://purl.org/dc/elements/1.1/"
   xmlns:cc="http://creativecommons.org/ns#"
   xmlns:rdf="http://www.w3.org/1999/02/22-rdf-syntax-ns#"
   xmlns:svg="http://www.w3.org/2000/svg"
   xmlns="http://www.w3.org/2000/svg"
   xmlns:sodipodi="http://sodipodi.sourceforge.net/DTD/sodipodi-0.dtd"
   xmlns:inkscape="http://www.inkscape.org/namespaces/inkscape"
   id="svg2024"
   width="128px"
   version="1.1"
   height="128px"
   sodipodi:docname="chicago95_tmp_file.svg"
   inkscape:version="0.92.4 (5da689c313, 2019-01-14)">
  <sodipodi:namedview
     pagecolor="#ffffff"
     bordercolor="#666666"
     borderopacity="1"
     objecttolerance="10"
     gridtolerance="10"
     guidetolerance="10"
     inkscape:pageopacity="0"
     inkscape:pageshadow="2"
     inkscape:window-width="640"
     inkscape:window-height="480"
     id="namedview1015"
     showgrid="false"
     inkscape:zoom="1.84375"
     inkscape:cx="64"
     inkscape:cy="64"
     inkscape:window-x="0"
     inkscape:window-y="0"
     inkscape:window-maximized="0"
     inkscape:current-layer="svg2024" />
  <metadata
     id="metadata2028">
    <rdf:RDF>
      <cc:Work
         rdf:about="">
        <dc:format>image/svg+xml</dc:format>
        <dc:type
           rdf:resource="http://purl.org/dc/dcmitype/StillImage" />
      </cc:Work>
    </rdf:RDF>
  </metadata>
  <defs
     id="defs2" />
  <path
     style="fill:#808080"
     d="M 52 8 L 52 12 L 52 16 L 52 20 L 52 24 L 52 28 L 52 32 L 56 32 L 56 36 L 60 36 L 60 40 L 64 40 L 64 44 L 68 44 L 68 48 L 72 48 L 72 52 L 72 56 L 68 56 L 68 60 L 64 60 L 64 64 L 60 64 L 60 68 L 56 68 L 56 72 L 52 72 L 52 76 L 52 80 L 52 84 L 52 88 L 56 88 L 60 88 L 64 88 L 68 88 L 72 88 L 76 88 L 76 84 L 76 80 L 76 76 L 76 72 L 76 68 L 76 64 L 76 60 L 76 56 L 76 52 L 76 48 L 76 44 L 76 40 L 76 36 L 76 32 L 76 28 L 80 28 L 80 24 L 84 24 L 84 20 L 88 20 L 88 16 L 92 16 L 92 12 L 96 12 L 96 8 L 92 8 L 88 8 L 84 8 L 80 8 L 76 8 L 72 8 L 68 8 L 64 8 L 60 8 L 56 8 L 52 8 z M 112 8 L 112 12 L 112 16 L 112 20 L 112 24 L 112 28 L 112 32 L 112 36 L 112 40 L 112 44 L 112 48 L 112 52 L 112 56 L 112 60 L 112 64 L 112 68 L 112 72 L 112 76 L 112 80 L 112 84 L 112 88 L 112 92 L 112 96 L 112 100 L 116 100 L 116 96 L 116 92 L 116 88 L 116 84 L 116 80 L 116 76 L 116 72 L 116 68 L 116 64 L 116 60 L 116 56 L 116 52 L 116 48 L 116 44 L 116 40 L 116 36 L 116 32 L 116 28 L 116 24 L 116 20 L 116 16 L 116 12 L 116 8 L 112 8 z M 92 68 L 92 72 L 96 72 L 96 68 L 92 68 z "
     id="rect1596" />
  <path
     style="fill:#008080"
     d="M 104 12 L 104 16 L 100 16 L 100 20 L 96 20 L 96 24 L 92 24 L 92 28 L 88 28 L 88 32 L 88 36 L 88 40 L 88 44 L 88 48 L 88 52 L 88 56 L 88 60 L 88 64 L 92 64 L 92 60 L 96 60 L 100 60 L 100 64 L 100 68 L 100 72 L 100 76 L 96 76 L 92 76 L 92 72 L 88 72 L 88 76 L 88 80 L 88 84 L 88 88 L 88 92 L 88 96 L 88 100 L 88 104 L 88 108 L 88 112 L 88 116 L 88 120 L 92 120 L 92 116 L 96 116 L 96 112 L 100 112 L 100 108 L 104 108 L 104 104 L 108 104 L 108 100 L 108 96 L 108 92 L 108 88 L 108 84 L 108 80 L 108 76 L 108 72 L 108 68 L 108 64 L 108 60 L 108 56 L 108 52 L 108 48 L 108 44 L 108 40 L 108 36 L 108 32 L 108 28 L 108 24 L 108 20 L 108 16 L 108 12 L 104 12 z M 40 24 L 40 28 L 44 28 L 44 24 L 40 24 z M 44 28 L 44 32 L 48 32 L 48 28 L 44 28 z M 48 32 L 48 36 L 52 36 L 52 32 L 48 32 z M 52 36 L 52 40 L 56 40 L 56 36 L 52 36 z M 56 40 L 56 44 L 60 44 L 60 40 L 56 40 z M 60 44 L 60 48 L 64 48 L 64 44 L 60 44 z M 64 48 L 64 52 L 60 52 L 60 56 L 56 56 L 56 60 L 52 60 L 52 64 L 48 64 L 48 68 L 44 68 L 44 72 L 40 72 L 40 76 L 40 80 L 44 80 L 44 76 L 48 76 L 48 72 L 52 72 L 52 68 L 56 68 L 56 64 L 60 64 L 60 60 L 64 60 L 64 56 L 68 56 L 68 52 L 68 48 L 64 48 z M 8 56 L 8 60 L 12 60 L 16 60 L 20 60 L 24 60 L 28 60 L 32 60 L 36 60 L 40 60 L 40 56 L 36 56 L 32 56 L 28 56 L 24 56 L 20 56 L 16 56 L 12 56 L 8 56 z "
     id="rect1902" />
  <path
     style="fill:#00ffff"
     d="M 100 8 L 100 12 L 96 12 L 96 16 L 92 16 L 92 20 L 88 20 L 88 24 L 84 24 L 84 28 L 80 28 L 80 32 L 80 36 L 80 40 L 80 44 L 80 48 L 80 52 L 80 56 L 80 60 L 80 64 L 80 68 L 80 72 L 80 76 L 80 80 L 80 84 L 80 88 L 80 92 L 80 96 L 80 100 L 80 104 L 80 108 L 80 112 L 80 116 L 80 120 L 80 124 L 84 124 L 88 124 L 88 120 L 88 116 L 88 112 L 88 108 L 88 104 L 88 100 L 88 96 L 88 92 L 88 88 L 88 84 L 88 80 L 88 76 L 88 72 L 88 68 L 88 64 L 88 60 L 88 56 L 88 52 L 88 48 L 88 44 L 88 40 L 88 36 L 88 32 L 88 28 L 92 28 L 92 24 L 96 24 L 96 20 L 100 20 L 100 16 L 104 16 L 104 12 L 108 12 L 108 8 L 104 8 L 100 8 z M 40 28 L 40 32 L 40 36 L 40 40 L 40 44 L 36 44 L 32 44 L 28 44 L 24 44 L 20 44 L 16 44 L 12 44 L 8 44 L 8 48 L 8 52 L 8 56 L 12 56 L 16 56 L 20 56 L 24 56 L 28 56 L 32 56 L 36 56 L 40 56 L 40 60 L 40 64 L 40 68 L 40 72 L 44 72 L 44 68 L 48 68 L 48 64 L 52 64 L 52 60 L 56 60 L 56 56 L 60 56 L 60 52 L 64 52 L 64 48 L 60 48 L 60 44 L 56 44 L 56 40 L 52 40 L 52 36 L 48 36 L 48 32 L 44 32 L 44 28 L 40 28 z M 44 40 L 48 40 L 48 44 L 52 44 L 52 48 L 56 48 L 56 52 L 52 52 L 48 52 L 44 52 L 40 52 L 36 52 L 32 52 L 28 52 L 24 52 L 20 52 L 16 52 L 16 48 L 20 48 L 24 48 L 28 48 L 32 48 L 36 48 L 40 48 L 44 48 L 48 48 L 48 44 L 44 44 L 44 40 z "
     id="rect1958" />
  <path
     style="fill:#000000"
     d="M 48 4 L 48 8 L 48 12 L 48 16 L 48 20 L 48 24 L 44 24 L 44 28 L 48 28 L 48 32 L 52 32 L 52 28 L 52 24 L 52 20 L 52 16 L 52 12 L 52 8 L 56 8 L 60 8 L 64 8 L 68 8 L 72 8 L 76 8 L 80 8 L 84 8 L 88 8 L 92 8 L 96 8 L 96 12 L 100 12 L 100 8 L 104 8 L 108 8 L 108 12 L 108 16 L 108 20 L 108 24 L 108 28 L 108 32 L 108 36 L 108 40 L 108 44 L 108 48 L 108 52 L 108 56 L 108 60 L 108 64 L 108 68 L 108 72 L 108 76 L 108 80 L 108 84 L 108 88 L 108 92 L 108 96 L 108 100 L 108 104 L 112 104 L 116 104 L 120 104 L 124 104 L 128 104 L 128 100 L 124 100 L 120 100 L 116 100 L 112 100 L 112 96 L 112 92 L 112 88 L 112 84 L 112 80 L 112 76 L 112 72 L 112 68 L 112 64 L 112 60 L 112 56 L 112 52 L 112 48 L 112 44 L 112 40 L 112 36 L 112 32 L 112 28 L 112 24 L 112 20 L 112 16 L 112 12 L 112 8 L 112 4 L 108 4 L 104 4 L 100 4 L 96 4 L 92 4 L 88 4 L 84 4 L 80 4 L 76 4 L 72 4 L 68 4 L 64 4 L 60 4 L 56 4 L 52 4 L 48 4 z M 108 104 L 104 104 L 104 108 L 108 108 L 108 104 z M 104 108 L 100 108 L 100 112 L 104 112 L 104 108 z M 100 112 L 96 112 L 96 116 L 100 116 L 100 112 z M 96 116 L 92 116 L 92 120 L 96 120 L 96 116 z M 92 120 L 88 120 L 88 124 L 92 124 L 92 120 z M 88 124 L 84 124 L 80 124 L 80 120 L 80 116 L 80 112 L 80 108 L 80 104 L 80 100 L 80 96 L 80 92 L 80 88 L 80 84 L 80 80 L 80 76 L 80 72 L 80 68 L 80 64 L 80 60 L 80 56 L 80 52 L 80 48 L 80 44 L 80 40 L 80 36 L 80 32 L 80 28 L 76 28 L 76 32 L 76 36 L 76 40 L 76 44 L 76 48 L 76 52 L 76 56 L 76 60 L 76 64 L 76 68 L 76 72 L 76 76 L 76 80 L 76 84 L 76 88 L 72 88 L 68 88 L 64 88 L 60 88 L 56 88 L 52 88 L 52 84 L 52 80 L 52 76 L 52 72 L 48 72 L 48 76 L 44 76 L 44 80 L 48 80 L 48 84 L 48 88 L 48 92 L 48 96 L 48 100 L 44 100 L 40 100 L 36 100 L 32 100 L 28 100 L 24 100 L 20 100 L 16 100 L 12 100 L 8 100 L 4 100 L 0 100 L 0 104 L 4 104 L 8 104 L 12 104 L 16 104 L 20 104 L 24 104 L 28 104 L 32 104 L 36 104 L 40 104 L 44 104 L 48 104 L 52 104 L 52 100 L 52 96 L 52 92 L 56 92 L 60 92 L 64 92 L 68 92 L 72 92 L 76 92 L 76 96 L 76 100 L 76 104 L 76 108 L 76 112 L 76 116 L 76 120 L 76 124 L 76 128 L 80 128 L 84 128 L 88 128 L 88 124 z M 44 80 L 40 80 L 40 76 L 40 72 L 40 68 L 40 64 L 40 60 L 36 60 L 32 60 L 28 60 L 24 60 L 20 60 L 16 60 L 12 60 L 8 60 L 8 64 L 12 64 L 16 64 L 20 64 L 24 64 L 28 64 L 32 64 L 36 64 L 36 68 L 36 72 L 36 76 L 36 80 L 36 84 L 36 88 L 40 88 L 40 84 L 44 84 L 44 80 z M 8 60 L 8 56 L 8 52 L 8 48 L 8 44 L 4 44 L 4 48 L 4 52 L 4 56 L 4 60 L 8 60 z M 8 44 L 12 44 L 16 44 L 20 44 L 24 44 L 28 44 L 32 44 L 36 44 L 40 44 L 40 40 L 40 36 L 40 32 L 40 28 L 40 24 L 44 24 L 44 20 L 40 20 L 36 20 L 36 24 L 36 28 L 36 32 L 36 36 L 36 40 L 32 40 L 28 40 L 24 40 L 20 40 L 16 40 L 12 40 L 8 40 L 8 44 z M 52 72 L 56 72 L 56 68 L 52 68 L 52 72 z M 56 68 L 60 68 L 60 64 L 56 64 L 56 68 z M 60 64 L 64 64 L 64 60 L 60 60 L 60 64 z M 64 60 L 68 60 L 68 56 L 64 56 L 64 60 z M 68 56 L 72 56 L 72 52 L 72 48 L 68 48 L 68 52 L 68 56 z M 68 48 L 68 44 L 64 44 L 64 48 L 68 48 z M 64 44 L 64 40 L 60 40 L 60 44 L 64 44 z M 60 40 L 60 36 L 56 36 L 56 40 L 60 40 z M 56 36 L 56 32 L 52 32 L 52 36 L 56 36 z M 80 28 L 84 28 L 84 24 L 80 24 L 80 28 z M 84 24 L 88 24 L 88 20 L 84 20 L 84 24 z M 88 20 L 92 20 L 92 16 L 88 16 L 88 20 z M 92 16 L 96 16 L 96 12 L 92 12 L 92 16 z M 92 60 L 92 64 L 96 64 L 96 68 L 96 72 L 92 72 L 92 76 L 96 76 L 100 76 L 100 72 L 100 68 L 100 64 L 100 60 L 96 60 L 92 60 z M 92 72 L 92 68 L 92 64 L 88 64 L 88 68 L 88 72 L 92 72 z "
     id="rect2010" />
  <path
     style="fill:#c0c0c0"
     d="M 116 12 L 116 16 L 116 20 L 116 24 L 116 28 L 116 32 L 116 36 L 116 40 L 116 44 L 116 48 L 116 52 L 116 56 L 116 60 L 116 64 L 116 68 L 116 72 L 116 76 L 116 80 L 116 84 L 116 88 L 116 92 L 116 96 L 116 100 L 120 100 L 120 96 L 120 92 L 120 88 L 120 84 L 120 80 L 120 76 L 120 72 L 120 68 L 120 64 L 120 60 L 120 56 L 120 52 L 120 48 L 120 44 L 120 40 L 120 36 L 120 32 L 120 28 L 120 24 L 120 20 L 120 16 L 120 12 L 116 12 z M 12 64 L 12 68 L 16 68 L 16 72 L 20 72 L 24 72 L 28 72 L 32 72 L 36 72 L 36 68 L 36 64 L 32 64 L 28 64 L 24 64 L 20 64 L 16 64 L 12 64 z M 44 80 L 44 84 L 40 84 L 40 88 L 40 92 L 44 92 L 44 88 L 48 88 L 48 84 L 48 80 L 44 80 z M 60 92 L 60 96 L 64 96 L 68 96 L 68 92 L 64 92 L 60 92 z M 60 96 L 56 96 L 52 96 L 52 100 L 56 100 L 60 100 L 60 96 z M 72 96 L 72 100 L 76 100 L 76 96 L 72 96 z M 72 100 L 68 100 L 64 100 L 64 104 L 68 104 L 72 104 L 72 100 z M 64 104 L 60 104 L 56 104 L 56 108 L 60 108 L 64 108 L 64 104 z M 56 108 L 52 108 L 48 108 L 48 112 L 52 112 L 56 112 L 56 108 z M 48 112 L 44 112 L 40 112 L 40 116 L 44 116 L 48 116 L 48 112 z M 40 116 L 36 116 L 32 116 L 32 120 L 36 120 L 40 120 L 40 116 z M 32 120 L 28 120 L 24 120 L 24 124 L 28 124 L 32 124 L 32 120 z M 24 124 L 20 124 L 16 124 L 16 128 L 20 128 L 24 128 L 24 124 z M 0 104 L 0 108 L 4 108 L 4 104 L 0 104 z M 16 104 L 16 108 L 20 108 L 24 108 L 24 104 L 20 104 L 16 104 z M 16 108 L 12 108 L 8 108 L 8 112 L 12 112 L 16 112 L 16 108 z M 8 112 L 4 112 L 0 112 L 0 116 L 4 116 L 8 116 L 8 112 z M 36 104 L 36 108 L 40 108 L 44 108 L 44 104 L 40 104 L 36 104 z M 36 108 L 32 108 L 28 108 L 28 112 L 32 112 L 36 112 L 36 108 z M 28 112 L 24 112 L 20 112 L 20 116 L 24 116 L 28 116 L 28 112 z M 20 116 L 16 116 L 12 116 L 12 120 L 16 120 L 20 120 L 20 116 z M 12 120 L 8 120 L 8 124 L 12 124 L 12 120 z M 116 104 L 116 108 L 120 108 L 124 108 L 124 104 L 120 104 L 116 104 z M 116 108 L 112 108 L 108 108 L 108 112 L 112 112 L 116 112 L 116 108 z M 108 112 L 104 112 L 100 112 L 100 116 L 104 116 L 108 116 L 108 112 z M 100 116 L 96 116 L 96 120 L 100 120 L 100 116 z M 68 108 L 68 112 L 72 112 L 76 112 L 76 108 L 72 108 L 68 108 z M 68 112 L 64 112 L 60 112 L 60 116 L 64 116 L 68 116 L 68 112 z M 60 116 L 56 116 L 52 116 L 52 120 L 56 120 L 60 120 L 60 116 z M 52 120 L 48 120 L 44 120 L 44 124 L 48 124 L 52 124 L 52 120 z M 44 124 L 40 124 L 36 124 L 36 128 L 40 128 L 44 128 L 44 124 z M 120 112 L 120 116 L 124 116 L 128 116 L 128 112 L 124 112 L 120 112 z M 120 116 L 116 116 L 112 116 L 112 120 L 116 120 L 120 120 L 120 116 z M 112 120 L 108 120 L 104 120 L 104 124 L 108 124 L 112 124 L 112 120 z M 104 124 L 100 124 L 96 124 L 96 128 L 100 128 L 104 128 L 104 124 z M 72 116 L 72 120 L 76 120 L 76 116 L 72 116 z M 72 120 L 68 120 L 64 120 L 64 124 L 68 124 L 72 124 L 72 120 z M 64 124 L 60 124 L 56 124 L 56 128 L 60 128 L 64 128 L 64 124 z "
     id="rect2018" />
  <path
     style="fill:#ffffff"
     d="M 0 0 L 0 4 L 0 8 L 0 12 L 0 16 L 0 20 L 0 24 L 0 28 L 0 32 L 0 36 L 0 40 L 0 44 L 0 48 L 0 52 L 0 56 L 0 60 L 0 64 L 0 68 L 0 72 L 0 76 L 0 80 L 0 84 L 0 88 L 0 92 L 0 96 L 0 100 L 4 100 L 8 100 L 12 100 L 16 100 L 20 100 L 24 100 L 28 100 L 32 100 L 36 100 L 40 100 L 44 100 L 48 100 L 48 96 L 48 92 L 48 88 L 44 88 L 44 92 L 40 92 L 40 88 L 36 88 L 36 84 L 36 80 L 36 76 L 36 72 L 32 72 L 28 72 L 24 72 L 20 72 L 16 72 L 16 68 L 12 68 L 12 64 L 8 64 L 8 60 L 4 60 L 4 56 L 4 52 L 4 48 L 4 44 L 8 44 L 8 40 L 12 40 L 16 40 L 20 40 L 24 40 L 28 40 L 32 40 L 36 40 L 36 36 L 36 32 L 36 28 L 36 24 L 36 20 L 40 20 L 44 20 L 44 24 L 48 24 L 48 20 L 48 16 L 48 12 L 48 8 L 48 4 L 52 4 L 56 4 L 60 4 L 64 4 L 68 4 L 72 4 L 76 4 L 80 4 L 84 4 L 88 4 L 92 4 L 96 4 L 100 4 L 104 4 L 108 4 L 112 4 L 112 8 L 116 8 L 116 12 L 120 12 L 120 16 L 120 20 L 120 24 L 120 28 L 120 32 L 120 36 L 120 40 L 120 44 L 120 48 L 120 52 L 120 56 L 120 60 L 120 64 L 120 68 L 120 72 L 120 76 L 120 80 L 120 84 L 120 88 L 120 92 L 120 96 L 120 100 L 124 100 L 128 100 L 128 96 L 128 92 L 128 88 L 128 84 L 128 80 L 128 76 L 128 72 L 128 68 L 128 64 L 128 60 L 128 56 L 128 52 L 128 48 L 128 44 L 128 40 L 128 36 L 128 32 L 128 28 L 128 24 L 128 20 L 128 16 L 128 12 L 128 8 L 128 4 L 128 0 L 124 0 L 120 0 L 116 0 L 112 0 L 108 0 L 104 0 L 100 0 L 96 0 L 92 0 L 88 0 L 84 0 L 80 0 L 76 0 L 72 0 L 68 0 L 64 0 L 60 0 L 56 0 L 52 0 L 48 0 L 44 0 L 40 0 L 36 0 L 32 0 L 28 0 L 24 0 L 20 0 L 16 0 L 12 0 L 8 0 L 4 0 L 0 0 z M 44 40 L 44 44 L 48 44 L 48 40 L 44 40 z M 48 44 L 48 48 L 44 48 L 40 48 L 36 48 L 32 48 L 28 48 L 24 48 L 20 48 L 16 48 L 16 52 L 20 52 L 24 52 L 28 52 L 32 52 L 36 52 L 40 52 L 44 52 L 48 52 L 52 52 L 56 52 L 56 48 L 52 48 L 52 44 L 48 44 z M 92 64 L 92 68 L 96 68 L 96 64 L 92 64 z M 52 92 L 52 96 L 56 96 L 60 96 L 60 92 L 56 92 L 52 92 z M 60 96 L 60 100 L 56 100 L 52 100 L 52 104 L 48 104 L 44 104 L 44 108 L 40 108 L 36 108 L 36 112 L 32 112 L 28 112 L 28 116 L 24 116 L 20 116 L 20 120 L 16 120 L 12 120 L 12 124 L 16 124 L 20 124 L 24 124 L 24 120 L 28 120 L 32 120 L 32 116 L 36 116 L 40 116 L 40 112 L 44 112 L 48 112 L 48 108 L 52 108 L 56 108 L 56 104 L 60 104 L 64 104 L 64 100 L 68 100 L 72 100 L 72 96 L 76 96 L 76 92 L 72 92 L 68 92 L 68 96 L 64 96 L 60 96 z M 72 100 L 72 104 L 68 104 L 64 104 L 64 108 L 60 108 L 56 108 L 56 112 L 52 112 L 48 112 L 48 116 L 44 116 L 40 116 L 40 120 L 36 120 L 32 120 L 32 124 L 28 124 L 24 124 L 24 128 L 28 128 L 32 128 L 36 128 L 36 124 L 40 124 L 44 124 L 44 120 L 48 120 L 52 120 L 52 116 L 56 116 L 60 116 L 60 112 L 64 112 L 68 112 L 68 108 L 72 108 L 76 108 L 76 104 L 76 100 L 72 100 z M 68 112 L 68 116 L 64 116 L 60 116 L 60 120 L 56 120 L 52 120 L 52 124 L 48 124 L 44 124 L 44 128 L 48 128 L 52 128 L 56 128 L 56 124 L 60 124 L 64 124 L 64 120 L 68 120 L 72 120 L 72 116 L 76 116 L 76 112 L 72 112 L 68 112 z M 72 120 L 72 124 L 68 124 L 64 124 L 64 128 L 68 128 L 72 128 L 76 128 L 76 124 L 76 120 L 72 120 z M 12 120 L 12 116 L 16 116 L 20 116 L 20 112 L 24 112 L 28 112 L 28 108 L 32 108 L 36 108 L 36 104 L 32 104 L 28 104 L 24 104 L 24 108 L 20 108 L 16 108 L 16 112 L 12 112 L 8 112 L 8 116 L 4 116 L 4 120 L 8 120 L 12 120 z M 8 112 L 8 108 L 12 108 L 16 108 L 16 104 L 12 104 L 8 104 L 4 104 L 4 108 L 0 108 L 0 112 L 4 112 L 8 112 z M 108 104 L 108 108 L 112 108 L 116 108 L 116 104 L 112 104 L 108 104 z M 116 108 L 116 112 L 112 112 L 108 112 L 108 116 L 104 116 L 100 116 L 100 120 L 96 120 L 92 120 L 92 124 L 88 124 L 88 128 L 92 128 L 96 128 L 96 124 L 100 124 L 104 124 L 104 120 L 108 120 L 112 120 L 112 116 L 116 116 L 120 116 L 120 112 L 124 112 L 128 112 L 128 108 L 128 104 L 124 104 L 124 108 L 120 108 L 116 108 z M 120 116 L 120 120 L 124 120 L 124 116 L 120 116 z M 120 120 L 116 120 L 112 120 L 112 124 L 116 124 L 120 124 L 120 120 z M 112 124 L 108 124 L 104 124 L 104 128 L 108 128 L 112 128 L 112 124 z M 108 112 L 108 108 L 104 108 L 104 112 L 108 112 z "
     id="rect2022" />
</svg>
