<?xml version="1.0" encoding="UTF-8" standalone="no"?>
<svg
   xmlns:dc="http://purl.org/dc/elements/1.1/"
   xmlns:cc="http://creativecommons.org/ns#"
   xmlns:rdf="http://www.w3.org/1999/02/22-rdf-syntax-ns#"
   xmlns:svg="http://www.w3.org/2000/svg"
   xmlns="http://www.w3.org/2000/svg"
   xmlns:sodipodi="http://sodipodi.sourceforge.net/DTD/sodipodi-0.dtd"
   xmlns:inkscape="http://www.inkscape.org/namespaces/inkscape"
   id="svg1312"
   width="640px"
   version="1.1"
   height="640px"
   sodipodi:docname="chicago95_tmp_file.svg"
   inkscape:version="0.92.5 (2060ec1f9f, 2020-04-08)">
  <sodipodi:namedview
     pagecolor="#ffffff"
     bordercolor="#666666"
     borderopacity="1"
     objecttolerance="10"
     gridtolerance="10"
     guidetolerance="10"
     inkscape:pageopacity="0"
     inkscape:pageshadow="2"
     inkscape:window-width="640"
     inkscape:window-height="485"
     id="namedview659"
     showgrid="false"
     inkscape:zoom="0.36875"
     inkscape:cx="320"
     inkscape:cy="320"
     inkscape:window-x="0"
     inkscape:window-y="0"
     inkscape:window-maximized="0"
     inkscape:current-layer="svg1312" />
  <metadata
     id="metadata1316">
    <rdf:RDF>
      <cc:Work
         rdf:about="">
        <dc:format>image/svg+xml</dc:format>
        <dc:type
           rdf:resource="http://purl.org/dc/dcmitype/StillImage" />
      </cc:Work>
    </rdf:RDF>
  </metadata>
  <defs
     id="defs2" />
  <path
     style="fill:#ffff00"
     d="M 200 180 L 200 200 L 180 200 L 180 220 L 160 220 L 160 241 L 180 241 L 180 261 L 201 261 L 201 241 L 221 241 L 221 220 L 201 220 L 201 201 L 220 201 L 221 201 L 240 201 L 241 201 L 261 201 L 261 180 L 241 180 L 240 180 L 221 180 L 220 180 L 200 180 z M 260 240 L 260 260 L 240 260 L 240 281 L 260 281 L 260 300 L 241 300 L 240 300 L 221 300 L 220 300 L 200 300 L 200 321 L 220 321 L 221 321 L 240 321 L 241 321 L 261 321 L 261 301 L 281 301 L 281 281 L 301 281 L 301 260 L 281 260 L 281 240 L 260 240 z "
     id="rect668" />
  <path
     style="fill:#0000ff"
     d="M 140 140 L 140 160 L 140 161 L 140 180 L 140 181 L 140 200 L 140 201 L 140 220 L 140 221 L 140 240 L 140 241 L 140 260 L 140 261 L 140 281 L 160 281 L 160 301 L 180 301 L 181 301 L 200 301 L 201 301 L 220 301 L 221 301 L 240 301 L 241 301 L 260 301 L 260 320 L 240 320 L 240 341 L 260 341 L 261 341 L 280 341 L 280 361 L 300 361 L 301 361 L 321 361 L 321 341 L 321 340 L 321 321 L 321 320 L 321 301 L 321 300 L 321 281 L 321 280 L 321 261 L 321 260 L 321 241 L 321 240 L 321 220 L 301 220 L 301 200 L 281 200 L 280 200 L 261 200 L 260 200 L 241 200 L 240 200 L 221 200 L 220 200 L 201 200 L 201 181 L 221 181 L 221 160 L 201 160 L 200 160 L 181 160 L 181 140 L 161 140 L 160 140 L 140 140 z M 181 201 L 200 201 L 200 221 L 220 221 L 220 240 L 200 240 L 200 260 L 181 260 L 181 240 L 161 240 L 161 221 L 181 221 L 181 201 z M 261 241 L 280 241 L 280 261 L 300 261 L 300 280 L 280 280 L 280 300 L 261 300 L 261 280 L 241 280 L 241 261 L 261 261 L 261 241 z "
     id="rect774" />
  <path
     style="fill:#000080"
     d="M 140 120 L 140 141 L 160 141 L 161 141 L 180 141 L 180 161 L 200 161 L 201 161 L 220 161 L 220 181 L 240 181 L 241 181 L 260 181 L 260 201 L 280 201 L 281 201 L 300 201 L 300 221 L 320 221 L 320 240 L 320 241 L 320 260 L 320 261 L 320 280 L 320 281 L 320 300 L 320 301 L 320 320 L 320 321 L 320 340 L 320 341 L 320 360 L 301 360 L 300 360 L 281 360 L 281 340 L 261 340 L 260 340 L 241 340 L 241 320 L 221 320 L 220 320 L 201 320 L 201 300 L 181 300 L 180 300 L 161 300 L 161 280 L 140 280 L 140 301 L 160 301 L 160 321 L 180 321 L 181 321 L 200 321 L 200 341 L 220 341 L 221 341 L 240 341 L 240 361 L 260 361 L 261 361 L 280 361 L 280 381 L 300 381 L 301 381 L 320 381 L 320 401 L 341 401 L 341 381 L 341 380 L 341 361 L 341 360 L 341 341 L 341 340 L 341 321 L 341 320 L 341 301 L 341 300 L 341 281 L 341 280 L 341 261 L 341 260 L 341 241 L 341 240 L 341 221 L 341 220 L 341 200 L 321 200 L 320 200 L 301 200 L 301 180 L 281 180 L 280 180 L 261 180 L 261 160 L 241 160 L 240 160 L 221 160 L 221 140 L 201 140 L 200 140 L 181 140 L 181 120 L 161 120 L 160 120 L 140 120 z "
     id="rect872" />
  <path
     style="fill:#00ff00"
     d="M 100 420 L 100 441 L 120 441 L 121 441 L 141 441 L 141 420 L 121 420 L 120 420 L 100 420 z "
     id="rect958" />
  <path
     style="fill:#008000"
     d="M 100 440 L 100 461 L 120 461 L 121 461 L 141 461 L 141 440 L 121 440 L 120 440 L 100 440 z "
     id="rect1012" />
  <path
     style="fill:#ffffff"
     d="M 80 60 L 80 80 L 80 81 L 80 100 L 80 101 L 80 120 L 80 121 L 80 140 L 80 141 L 80 160 L 80 161 L 80 180 L 80 181 L 80 200 L 80 201 L 80 220 L 80 221 L 80 240 L 80 241 L 80 260 L 80 261 L 80 280 L 80 281 L 80 301 L 101 301 L 101 281 L 101 280 L 101 261 L 101 260 L 101 241 L 101 240 L 101 221 L 101 220 L 101 201 L 101 200 L 101 181 L 101 180 L 101 161 L 101 160 L 101 141 L 101 140 L 101 121 L 101 120 L 101 101 L 101 100 L 101 81 L 120 81 L 121 81 L 140 81 L 141 81 L 160 81 L 161 81 L 180 81 L 180 101 L 200 101 L 201 101 L 220 101 L 220 121 L 240 121 L 241 121 L 260 121 L 260 141 L 280 141 L 281 141 L 300 141 L 300 161 L 320 161 L 321 161 L 341 161 L 341 140 L 321 140 L 320 140 L 301 140 L 301 120 L 281 120 L 280 120 L 261 120 L 261 100 L 241 100 L 240 100 L 221 100 L 221 80 L 201 80 L 200 80 L 181 80 L 181 60 L 161 60 L 160 60 L 141 60 L 140 60 L 121 60 L 120 60 L 101 60 L 100 60 L 80 60 z M 60 360 L 60 380 L 60 381 L 60 400 L 60 401 L 60 420 L 60 421 L 60 440 L 60 441 L 60 461 L 81 461 L 81 441 L 81 440 L 81 421 L 81 420 L 81 401 L 81 400 L 81 381 L 100 381 L 100 401 L 120 401 L 121 401 L 140 401 L 140 421 L 160 421 L 161 421 L 180 421 L 180 441 L 200 441 L 201 441 L 220 441 L 220 461 L 240 461 L 241 461 L 260 461 L 260 481 L 280 481 L 281 481 L 300 481 L 300 501 L 320 501 L 321 501 L 340 501 L 340 521 L 361 521 L 361 500 L 341 500 L 341 480 L 321 480 L 320 480 L 301 480 L 301 460 L 281 460 L 280 460 L 261 460 L 261 440 L 241 440 L 240 440 L 221 440 L 221 420 L 201 420 L 200 420 L 181 420 L 181 400 L 161 400 L 160 400 L 141 400 L 141 380 L 121 380 L 120 380 L 101 380 L 101 360 L 81 360 L 80 360 L 60 360 z "
     id="rect1178" />
  <path
     style="fill:#c0c0c0"
     d="M 160 20 L 160 40 L 141 40 L 140 40 L 120 40 L 120 61 L 140 61 L 141 61 L 160 61 L 161 61 L 180 61 L 180 80 L 161 80 L 160 80 L 141 80 L 140 80 L 121 80 L 120 80 L 100 80 L 100 100 L 100 101 L 100 120 L 100 121 L 100 140 L 100 141 L 100 160 L 100 161 L 100 180 L 100 181 L 100 200 L 100 201 L 100 220 L 100 221 L 100 240 L 100 241 L 100 260 L 100 261 L 100 280 L 100 281 L 100 300 L 80 300 L 80 321 L 100 321 L 100 340 L 81 340 L 80 340 L 60 340 L 60 361 L 80 361 L 81 361 L 100 361 L 100 380 L 80 380 L 80 400 L 80 401 L 80 420 L 80 421 L 80 440 L 80 441 L 80 461 L 100 461 L 100 481 L 120 481 L 121 481 L 140 481 L 140 501 L 160 501 L 161 501 L 180 501 L 180 521 L 200 521 L 201 521 L 220 521 L 220 541 L 240 541 L 241 541 L 260 541 L 260 561 L 280 561 L 281 561 L 300 561 L 300 581 L 320 581 L 321 581 L 340 581 L 340 601 L 361 601 L 361 581 L 361 580 L 361 561 L 361 560 L 361 541 L 361 540 L 361 521 L 380 521 L 381 521 L 401 521 L 401 501 L 420 501 L 421 501 L 441 501 L 441 481 L 460 481 L 461 481 L 481 481 L 481 461 L 500 461 L 501 461 L 521 461 L 521 441 L 540 441 L 541 441 L 561 441 L 561 420 L 541 420 L 540 420 L 520 420 L 520 440 L 501 440 L 500 440 L 480 440 L 480 460 L 461 460 L 460 460 L 440 460 L 440 480 L 421 480 L 420 480 L 400 480 L 400 500 L 381 500 L 380 500 L 361 500 L 361 480 L 341 480 L 341 461 L 361 461 L 361 441 L 361 440 L 361 421 L 361 420 L 361 401 L 361 400 L 361 381 L 361 380 L 361 361 L 361 360 L 361 341 L 361 340 L 361 321 L 361 320 L 361 301 L 361 300 L 361 281 L 361 280 L 361 261 L 361 260 L 361 241 L 361 240 L 361 221 L 361 220 L 361 201 L 361 200 L 361 181 L 361 180 L 361 161 L 380 161 L 381 161 L 401 161 L 401 141 L 420 141 L 421 141 L 441 141 L 441 121 L 460 121 L 460 141 L 481 141 L 481 121 L 500 121 L 501 121 L 521 121 L 521 100 L 501 100 L 500 100 L 481 100 L 481 80 L 461 80 L 460 80 L 441 80 L 441 60 L 421 60 L 420 60 L 401 60 L 400 60 L 381 60 L 380 60 L 360 60 L 360 80 L 341 80 L 340 80 L 321 80 L 321 60 L 301 60 L 300 60 L 281 60 L 281 40 L 261 40 L 260 40 L 241 40 L 241 20 L 221 20 L 220 20 L 201 20 L 200 20 L 181 20 L 180 20 L 160 20 z M 181 81 L 200 81 L 201 81 L 220 81 L 220 100 L 201 100 L 200 100 L 181 100 L 181 81 z M 361 81 L 380 81 L 381 81 L 400 81 L 400 100 L 381 100 L 380 100 L 361 100 L 361 81 z M 121 101 L 140 101 L 141 101 L 160 101 L 161 101 L 180 101 L 180 121 L 200 121 L 201 121 L 220 121 L 220 141 L 240 141 L 241 141 L 260 141 L 260 161 L 280 161 L 281 161 L 300 161 L 300 181 L 320 181 L 321 181 L 340 181 L 340 200 L 340 201 L 340 220 L 340 221 L 340 240 L 340 241 L 340 260 L 340 261 L 340 280 L 340 281 L 340 300 L 340 301 L 340 320 L 340 321 L 340 340 L 340 341 L 340 360 L 340 361 L 340 380 L 340 381 L 340 400 L 340 401 L 340 420 L 321 420 L 321 400 L 301 400 L 300 400 L 281 400 L 281 380 L 261 380 L 260 380 L 241 380 L 241 360 L 221 360 L 220 360 L 201 360 L 201 340 L 181 340 L 180 340 L 161 340 L 161 320 L 141 320 L 140 320 L 121 320 L 120 320 L 101 320 L 101 301 L 121 301 L 121 281 L 121 280 L 121 261 L 121 260 L 121 241 L 121 240 L 121 221 L 121 220 L 121 201 L 121 200 L 121 181 L 121 180 L 121 161 L 121 160 L 121 141 L 121 140 L 121 121 L 121 120 L 121 101 z M 221 101 L 240 101 L 241 101 L 260 101 L 260 120 L 241 120 L 240 120 L 221 120 L 221 101 z M 401 101 L 420 101 L 421 101 L 440 101 L 440 120 L 421 120 L 420 120 L 401 120 L 401 101 z M 261 121 L 280 121 L 281 121 L 300 121 L 300 140 L 281 140 L 280 140 L 261 140 L 261 121 z M 301 141 L 320 141 L 321 141 L 340 141 L 340 160 L 321 160 L 320 160 L 301 160 L 301 141 z M 101 341 L 120 341 L 121 341 L 140 341 L 140 360 L 121 360 L 120 360 L 101 360 L 101 341 z M 141 361 L 160 361 L 161 361 L 180 361 L 180 380 L 161 380 L 160 380 L 141 380 L 141 361 z M 101 381 L 120 381 L 121 381 L 140 381 L 140 400 L 121 400 L 120 400 L 101 400 L 101 381 z M 181 381 L 200 381 L 201 381 L 220 381 L 220 400 L 201 400 L 200 400 L 181 400 L 181 381 z M 141 401 L 160 401 L 161 401 L 180 401 L 180 420 L 161 420 L 160 420 L 141 420 L 141 401 z M 221 401 L 240 401 L 241 401 L 260 401 L 260 420 L 241 420 L 240 420 L 221 420 L 221 401 z M 101 421 L 120 421 L 121 421 L 140 421 L 140 440 L 140 441 L 140 460 L 121 460 L 120 460 L 101 460 L 101 441 L 101 440 L 101 421 z M 181 421 L 200 421 L 201 421 L 220 421 L 220 440 L 201 440 L 200 440 L 181 440 L 181 421 z M 261 421 L 280 421 L 281 421 L 300 421 L 300 440 L 281 440 L 280 440 L 261 440 L 261 421 z M 221 441 L 240 441 L 241 441 L 260 441 L 260 460 L 241 460 L 240 460 L 221 460 L 221 441 z M 301 441 L 320 441 L 321 441 L 340 441 L 340 460 L 321 460 L 320 460 L 301 460 L 301 441 z M 261 461 L 280 461 L 281 461 L 300 461 L 300 480 L 281 480 L 280 480 L 261 480 L 261 461 z M 301 481 L 320 481 L 321 481 L 340 481 L 340 500 L 321 500 L 320 500 L 301 500 L 301 481 z M 341 501 L 360 501 L 360 520 L 341 520 L 341 501 z "
     id="rect1296" />
  <path
     style="fill:#808080"
     d="M 160 0 L 160 20 L 141 20 L 140 20 L 120 20 L 120 40 L 101 40 L 100 40 L 80 40 L 80 60 L 60 60 L 60 80 L 60 81 L 60 100 L 60 101 L 60 120 L 60 121 L 60 140 L 60 141 L 60 160 L 60 161 L 60 180 L 60 181 L 60 200 L 60 201 L 60 220 L 60 221 L 60 240 L 60 241 L 60 260 L 60 261 L 60 280 L 60 281 L 60 300 L 60 301 L 60 320 L 60 321 L 60 340 L 40 340 L 40 360 L 40 361 L 40 380 L 40 381 L 40 400 L 40 401 L 40 420 L 40 421 L 40 440 L 40 441 L 40 461 L 61 461 L 61 441 L 61 440 L 61 421 L 61 420 L 61 401 L 61 400 L 61 381 L 61 380 L 61 361 L 61 360 L 61 341 L 81 341 L 81 321 L 81 320 L 81 301 L 81 300 L 81 281 L 81 280 L 81 261 L 81 260 L 81 241 L 81 240 L 81 221 L 81 220 L 81 201 L 81 200 L 81 181 L 81 180 L 81 161 L 81 160 L 81 141 L 81 140 L 81 121 L 81 120 L 81 101 L 81 100 L 81 81 L 81 80 L 81 61 L 100 61 L 101 61 L 121 61 L 121 41 L 140 41 L 141 41 L 161 41 L 161 21 L 180 21 L 181 21 L 200 21 L 201 21 L 220 21 L 221 21 L 240 21 L 240 41 L 260 41 L 261 41 L 280 41 L 280 61 L 300 61 L 301 61 L 320 61 L 320 81 L 340 81 L 341 81 L 360 81 L 360 101 L 380 101 L 381 101 L 400 101 L 400 121 L 420 121 L 421 121 L 441 121 L 441 100 L 421 100 L 420 100 L 401 100 L 401 80 L 381 80 L 380 80 L 361 80 L 361 61 L 380 61 L 381 61 L 400 61 L 401 61 L 420 61 L 421 61 L 440 61 L 440 81 L 460 81 L 461 81 L 480 81 L 480 101 L 500 101 L 501 101 L 520 101 L 520 120 L 501 120 L 500 120 L 480 120 L 480 140 L 460 140 L 460 160 L 460 161 L 460 180 L 460 181 L 460 200 L 460 201 L 460 220 L 460 221 L 460 240 L 460 241 L 460 260 L 460 261 L 460 280 L 460 281 L 460 300 L 460 301 L 460 320 L 460 321 L 460 340 L 460 341 L 460 360 L 460 361 L 460 381 L 480 381 L 480 400 L 460 400 L 460 420 L 460 421 L 460 440 L 441 440 L 441 421 L 441 420 L 441 401 L 441 400 L 441 381 L 441 380 L 441 361 L 441 360 L 441 341 L 441 340 L 441 321 L 441 320 L 441 301 L 441 300 L 441 281 L 441 280 L 441 261 L 441 260 L 441 241 L 441 240 L 441 221 L 441 220 L 441 201 L 441 200 L 441 181 L 441 180 L 441 161 L 441 160 L 441 140 L 421 140 L 420 140 L 400 140 L 400 160 L 381 160 L 380 160 L 360 160 L 360 180 L 360 181 L 360 200 L 360 201 L 360 220 L 360 221 L 360 240 L 360 241 L 360 260 L 360 261 L 360 280 L 360 281 L 360 300 L 360 301 L 360 320 L 360 321 L 360 340 L 360 341 L 360 360 L 360 361 L 360 380 L 360 381 L 360 400 L 360 401 L 360 420 L 360 421 L 360 440 L 360 441 L 360 461 L 380 461 L 381 461 L 400 461 L 400 480 L 381 480 L 380 480 L 360 480 L 360 501 L 380 501 L 381 501 L 400 501 L 400 520 L 381 520 L 380 520 L 360 520 L 360 540 L 360 541 L 360 560 L 360 561 L 360 580 L 360 581 L 360 601 L 380 601 L 381 601 L 401 601 L 401 581 L 420 581 L 421 581 L 441 581 L 441 561 L 460 561 L 461 561 L 481 561 L 481 541 L 500 541 L 501 541 L 521 541 L 521 521 L 540 521 L 541 521 L 561 521 L 561 501 L 561 500 L 561 481 L 561 480 L 561 461 L 561 460 L 561 440 L 541 440 L 540 440 L 521 440 L 521 421 L 540 421 L 541 421 L 561 421 L 561 400 L 541 400 L 540 400 L 521 400 L 521 380 L 501 380 L 500 380 L 481 380 L 481 361 L 501 361 L 501 341 L 521 341 L 521 321 L 541 321 L 541 301 L 541 300 L 541 281 L 541 280 L 541 261 L 541 260 L 541 241 L 541 240 L 541 221 L 541 220 L 541 201 L 541 200 L 541 181 L 541 180 L 541 161 L 541 160 L 541 141 L 541 140 L 541 121 L 541 120 L 541 100 L 521 100 L 521 80 L 501 80 L 500 80 L 481 80 L 481 60 L 461 60 L 460 60 L 441 60 L 441 40 L 421 40 L 420 40 L 401 40 L 400 40 L 381 40 L 380 40 L 361 40 L 360 40 L 341 40 L 340 40 L 321 40 L 320 40 L 301 40 L 300 40 L 281 40 L 281 20 L 261 20 L 260 20 L 241 20 L 241 0 L 221 0 L 220 0 L 201 0 L 200 0 L 181 0 L 180 0 L 160 0 z M 140 100 L 140 121 L 160 121 L 161 121 L 180 121 L 180 141 L 200 141 L 201 141 L 220 141 L 220 161 L 240 161 L 241 161 L 260 161 L 260 181 L 280 181 L 281 181 L 300 181 L 300 201 L 320 201 L 321 201 L 341 201 L 341 180 L 321 180 L 320 180 L 301 180 L 301 160 L 281 160 L 280 160 L 261 160 L 261 140 L 241 140 L 240 140 L 221 140 L 221 120 L 201 120 L 200 120 L 181 120 L 181 100 L 161 100 L 160 100 L 140 100 z M 100 300 L 100 321 L 120 321 L 121 321 L 140 321 L 141 321 L 160 321 L 160 341 L 180 341 L 181 341 L 200 341 L 200 361 L 220 361 L 221 361 L 240 361 L 240 381 L 260 381 L 261 381 L 280 381 L 280 401 L 300 401 L 301 401 L 320 401 L 320 421 L 341 421 L 341 400 L 321 400 L 321 380 L 301 380 L 300 380 L 281 380 L 281 360 L 261 360 L 260 360 L 241 360 L 241 340 L 221 340 L 220 340 L 201 340 L 201 320 L 181 320 L 180 320 L 161 320 L 161 300 L 141 300 L 140 300 L 121 300 L 120 300 L 100 300 z M 401 441 L 420 441 L 421 441 L 440 441 L 440 460 L 421 460 L 420 460 L 401 460 L 401 441 z M 481 441 L 500 441 L 501 441 L 520 441 L 520 460 L 501 460 L 500 460 L 481 460 L 481 441 z M 441 461 L 460 461 L 461 461 L 480 461 L 480 480 L 461 480 L 460 480 L 441 480 L 441 461 z M 401 481 L 420 481 L 421 481 L 440 481 L 440 500 L 421 500 L 420 500 L 401 500 L 401 481 z "
     id="rect1300" />
  <path
     style="fill:#000000"
     d="M 120 100 L 120 120 L 120 121 L 120 140 L 120 141 L 120 160 L 120 161 L 120 180 L 120 181 L 120 200 L 120 201 L 120 220 L 120 221 L 120 240 L 120 241 L 120 260 L 120 261 L 120 280 L 120 281 L 120 301 L 141 301 L 141 281 L 141 280 L 141 261 L 141 260 L 141 241 L 141 240 L 141 221 L 141 220 L 141 201 L 141 200 L 141 181 L 141 180 L 141 161 L 141 160 L 141 141 L 141 140 L 141 121 L 141 120 L 141 100 L 120 100 z M 440 120 L 440 140 L 440 141 L 440 160 L 440 161 L 440 180 L 440 181 L 440 200 L 440 201 L 440 220 L 440 221 L 440 240 L 440 241 L 440 260 L 440 261 L 440 280 L 440 281 L 440 300 L 440 301 L 440 320 L 440 321 L 440 340 L 440 341 L 440 360 L 440 361 L 440 380 L 440 381 L 440 400 L 440 401 L 440 420 L 440 421 L 440 440 L 421 440 L 420 440 L 400 440 L 400 460 L 381 460 L 380 460 L 361 460 L 360 460 L 341 460 L 341 440 L 321 440 L 320 440 L 301 440 L 301 420 L 281 420 L 280 420 L 261 420 L 261 400 L 241 400 L 240 400 L 221 400 L 221 380 L 201 380 L 200 380 L 181 380 L 181 360 L 161 360 L 160 360 L 141 360 L 141 340 L 121 340 L 120 340 L 101 340 L 101 320 L 80 320 L 80 341 L 100 341 L 100 361 L 120 361 L 121 361 L 140 361 L 140 381 L 160 381 L 161 381 L 180 381 L 180 401 L 200 401 L 201 401 L 220 401 L 220 421 L 240 421 L 241 421 L 260 421 L 260 441 L 280 441 L 281 441 L 300 441 L 300 461 L 320 461 L 321 461 L 340 461 L 340 481 L 360 481 L 361 481 L 380 481 L 381 481 L 401 481 L 401 461 L 420 461 L 421 461 L 441 461 L 441 441 L 461 441 L 461 421 L 461 420 L 461 401 L 481 401 L 481 381 L 500 381 L 501 381 L 520 381 L 520 401 L 540 401 L 541 401 L 560 401 L 560 420 L 560 421 L 560 440 L 560 441 L 560 460 L 560 461 L 560 480 L 560 481 L 560 500 L 560 501 L 560 520 L 541 520 L 540 520 L 520 520 L 520 540 L 501 540 L 500 540 L 480 540 L 480 560 L 461 560 L 460 560 L 440 560 L 440 580 L 421 580 L 420 580 L 400 580 L 400 600 L 381 600 L 380 600 L 361 600 L 360 600 L 341 600 L 341 580 L 321 580 L 320 580 L 301 580 L 301 560 L 281 560 L 280 560 L 261 560 L 261 540 L 241 540 L 240 540 L 221 540 L 221 520 L 201 520 L 200 520 L 181 520 L 181 500 L 161 500 L 160 500 L 141 500 L 141 480 L 121 480 L 120 480 L 101 480 L 101 460 L 81 460 L 80 460 L 60 460 L 60 481 L 80 481 L 81 481 L 100 481 L 100 501 L 120 501 L 121 501 L 140 501 L 140 521 L 160 521 L 161 521 L 180 521 L 180 541 L 200 541 L 201 541 L 220 541 L 220 561 L 240 561 L 241 561 L 260 561 L 260 581 L 280 581 L 281 581 L 300 581 L 300 601 L 320 601 L 321 601 L 340 601 L 340 621 L 360 621 L 361 621 L 380 621 L 381 621 L 401 621 L 401 601 L 420 601 L 421 601 L 441 601 L 441 581 L 460 581 L 461 581 L 481 581 L 481 561 L 500 561 L 501 561 L 521 561 L 521 541 L 540 541 L 541 541 L 561 541 L 561 521 L 581 521 L 581 501 L 581 500 L 581 481 L 581 480 L 581 461 L 581 460 L 581 441 L 581 440 L 581 421 L 581 420 L 581 400 L 561 400 L 561 380 L 541 380 L 540 380 L 521 380 L 521 361 L 521 360 L 521 341 L 541 341 L 541 321 L 561 321 L 561 301 L 561 300 L 561 281 L 561 280 L 561 261 L 561 260 L 561 241 L 561 240 L 561 221 L 561 220 L 561 201 L 561 200 L 561 181 L 561 180 L 561 161 L 561 160 L 561 141 L 561 140 L 561 120 L 540 120 L 540 140 L 540 141 L 540 160 L 540 161 L 540 180 L 540 181 L 540 200 L 540 201 L 540 220 L 540 221 L 540 240 L 540 241 L 540 260 L 540 261 L 540 280 L 540 281 L 540 300 L 540 301 L 540 320 L 520 320 L 520 340 L 500 340 L 500 360 L 480 360 L 480 380 L 461 380 L 461 361 L 461 360 L 461 341 L 461 340 L 461 321 L 461 320 L 461 301 L 461 300 L 461 281 L 461 280 L 461 261 L 461 260 L 461 241 L 461 240 L 461 221 L 461 220 L 461 201 L 461 200 L 461 181 L 461 180 L 461 161 L 461 160 L 461 141 L 461 140 L 461 120 L 440 120 z "
     id="rect1310" />
</svg>
