<?xml version="1.0" encoding="UTF-8" standalone="no"?>
<svg
   xmlns:dc="http://purl.org/dc/elements/1.1/"
   xmlns:cc="http://creativecommons.org/ns#"
   xmlns:rdf="http://www.w3.org/1999/02/22-rdf-syntax-ns#"
   xmlns:svg="http://www.w3.org/2000/svg"
   xmlns="http://www.w3.org/2000/svg"
   xmlns:sodipodi="http://sodipodi.sourceforge.net/DTD/sodipodi-0.dtd"
   xmlns:inkscape="http://www.inkscape.org/namespaces/inkscape"
   id="svg636"
   width="128px"
   version="1.1"
   height="128px"
   sodipodi:docname="chicago95_tmp_file.svg"
   inkscape:version="0.92.4 (5da689c313, 2019-01-14)">
  <sodipodi:namedview
     pagecolor="#ffffff"
     bordercolor="#666666"
     borderopacity="1"
     objecttolerance="10"
     gridtolerance="10"
     guidetolerance="10"
     inkscape:pageopacity="0"
     inkscape:pageshadow="2"
     inkscape:window-width="640"
     inkscape:window-height="480"
     id="namedview321"
     showgrid="false"
     inkscape:zoom="1.84375"
     inkscape:cx="64"
     inkscape:cy="64"
     inkscape:window-x="0"
     inkscape:window-y="0"
     inkscape:window-maximized="0"
     inkscape:current-layer="svg636" />
  <metadata
     id="metadata640">
    <rdf:RDF>
      <cc:Work
         rdf:about="">
        <dc:format>image/svg+xml</dc:format>
        <dc:type
           rdf:resource="http://purl.org/dc/dcmitype/StillImage" />
      </cc:Work>
    </rdf:RDF>
  </metadata>
  <defs
     id="defs2" />
  <path
     style="fill:#ffffff"
     d="M 40 72 L 40 76 L 40 80 L 40 84 L 40 88 L 40 92 L 40 96 L 36 96 L 32 96 L 28 96 L 24 96 L 20 96 L 16 96 L 16 100 L 16 104 L 16 108 L 16 112 L 20 112 L 24 112 L 28 112 L 32 112 L 36 112 L 40 112 L 44 112 L 48 112 L 52 112 L 56 112 L 60 112 L 64 112 L 68 112 L 72 112 L 76 112 L 80 112 L 84 112 L 88 112 L 92 112 L 96 112 L 96 108 L 96 104 L 96 100 L 96 96 L 92 96 L 88 96 L 84 96 L 80 96 L 76 96 L 72 96 L 72 92 L 72 88 L 72 84 L 72 80 L 72 76 L 72 72 L 68 72 L 64 72 L 60 72 L 56 72 L 52 72 L 48 72 L 44 72 L 40 72 z "
     id="rect534" />
  <path
     style="fill:#000000"
     d="M 72 8 L 72 12 L 72 16 L 76 16 L 80 16 L 80 12 L 80 8 L 76 8 L 72 8 z M 72 24 L 72 28 L 72 32 L 76 32 L 80 32 L 80 28 L 80 24 L 76 24 L 72 24 z M 48 32 L 48 36 L 48 40 L 52 40 L 56 40 L 56 36 L 56 32 L 52 32 L 48 32 z M 56 40 L 56 44 L 56 48 L 60 48 L 64 48 L 64 44 L 64 40 L 60 40 L 56 40 z M 64 48 L 64 52 L 64 56 L 68 56 L 72 56 L 72 52 L 72 48 L 68 48 L 64 48 z M 72 48 L 76 48 L 80 48 L 80 44 L 80 40 L 76 40 L 72 40 L 72 44 L 72 48 z M 80 48 L 80 52 L 80 56 L 84 56 L 88 56 L 88 52 L 88 48 L 84 48 L 80 48 z M 88 48 L 92 48 L 96 48 L 96 44 L 96 40 L 92 40 L 88 40 L 88 44 L 88 48 z M 96 40 L 100 40 L 104 40 L 104 36 L 104 32 L 100 32 L 96 32 L 96 36 L 96 40 z M 88 56 L 88 60 L 88 64 L 92 64 L 96 64 L 96 60 L 96 56 L 92 56 L 88 56 z M 88 64 L 84 64 L 80 64 L 80 68 L 80 72 L 84 72 L 88 72 L 88 68 L 88 64 z M 88 72 L 88 76 L 88 80 L 92 80 L 96 80 L 96 76 L 96 72 L 92 72 L 88 72 z M 96 80 L 96 84 L 96 88 L 92 88 L 88 88 L 84 88 L 80 88 L 80 84 L 80 80 L 80 76 L 80 72 L 76 72 L 72 72 L 72 76 L 72 80 L 72 84 L 72 88 L 72 92 L 72 96 L 76 96 L 80 96 L 84 96 L 88 96 L 92 96 L 96 96 L 96 100 L 96 104 L 96 108 L 96 112 L 92 112 L 88 112 L 84 112 L 80 112 L 76 112 L 72 112 L 68 112 L 64 112 L 60 112 L 56 112 L 52 112 L 48 112 L 44 112 L 40 112 L 36 112 L 32 112 L 28 112 L 24 112 L 20 112 L 16 112 L 16 108 L 16 104 L 16 100 L 16 96 L 20 96 L 24 96 L 28 96 L 32 96 L 36 96 L 40 96 L 40 92 L 40 88 L 40 84 L 40 80 L 40 76 L 40 72 L 44 72 L 48 72 L 52 72 L 56 72 L 60 72 L 64 72 L 68 72 L 72 72 L 72 68 L 72 64 L 68 64 L 64 64 L 60 64 L 56 64 L 52 64 L 48 64 L 44 64 L 40 64 L 36 64 L 32 64 L 32 68 L 32 72 L 32 76 L 32 80 L 32 84 L 32 88 L 28 88 L 24 88 L 20 88 L 16 88 L 12 88 L 8 88 L 8 92 L 8 96 L 8 100 L 8 104 L 8 108 L 8 112 L 8 116 L 8 120 L 12 120 L 16 120 L 20 120 L 24 120 L 28 120 L 32 120 L 36 120 L 40 120 L 44 120 L 48 120 L 52 120 L 56 120 L 60 120 L 64 120 L 68 120 L 72 120 L 76 120 L 80 120 L 84 120 L 88 120 L 92 120 L 96 120 L 100 120 L 104 120 L 104 116 L 104 112 L 104 108 L 104 104 L 104 100 L 104 96 L 104 92 L 104 88 L 104 84 L 104 80 L 100 80 L 96 80 z M 104 56 L 104 60 L 104 64 L 108 64 L 112 64 L 112 60 L 112 56 L 108 56 L 104 56 z "
     id="rect634" />
</svg>
