<?xml version="1.0" encoding="UTF-8" standalone="no"?>
<svg
   xmlns:dc="http://purl.org/dc/elements/1.1/"
   xmlns:cc="http://creativecommons.org/ns#"
   xmlns:rdf="http://www.w3.org/1999/02/22-rdf-syntax-ns#"
   xmlns:svg="http://www.w3.org/2000/svg"
   xmlns="http://www.w3.org/2000/svg"
   xmlns:sodipodi="http://sodipodi.sourceforge.net/DTD/sodipodi-0.dtd"
   xmlns:inkscape="http://www.inkscape.org/namespaces/inkscape"
   id="svg492"
   width="128px"
   version="1.1"
   height="128px"
   sodipodi:docname="chicago95_tmp_file.svg"
   inkscape:version="0.92.4 (5da689c313, 2019-01-14)">
  <sodipodi:namedview
     pagecolor="#ffffff"
     bordercolor="#666666"
     borderopacity="1"
     objecttolerance="10"
     gridtolerance="10"
     guidetolerance="10"
     inkscape:pageopacity="0"
     inkscape:pageshadow="2"
     inkscape:window-width="640"
     inkscape:window-height="480"
     id="namedview249"
     showgrid="false"
     inkscape:zoom="1.84375"
     inkscape:cx="64"
     inkscape:cy="64"
     inkscape:window-x="0"
     inkscape:window-y="0"
     inkscape:window-maximized="0"
     inkscape:current-layer="svg492" />
  <metadata
     id="metadata496">
    <rdf:RDF>
      <cc:Work
         rdf:about="">
        <dc:format>image/svg+xml</dc:format>
        <dc:type
           rdf:resource="http://purl.org/dc/dcmitype/StillImage" />
      </cc:Work>
    </rdf:RDF>
  </metadata>
  <defs
     id="defs2" />
  <path
     style="fill:#000000"
     d="M 16 24 L 16 28 L 16 32 L 20 32 L 24 32 L 28 32 L 32 32 L 36 32 L 40 32 L 40 36 L 40 40 L 36 40 L 32 40 L 28 40 L 24 40 L 20 40 L 16 40 L 16 44 L 16 48 L 12 48 L 8 48 L 8 52 L 8 56 L 8 60 L 8 64 L 12 64 L 16 64 L 16 68 L 16 72 L 20 72 L 24 72 L 28 72 L 32 72 L 36 72 L 40 72 L 44 72 L 48 72 L 52 72 L 56 72 L 56 68 L 56 64 L 56 60 L 56 56 L 56 52 L 56 48 L 56 44 L 56 40 L 56 36 L 56 32 L 52 32 L 48 32 L 48 28 L 48 24 L 44 24 L 40 24 L 36 24 L 32 24 L 28 24 L 24 24 L 20 24 L 16 24 z M 72 24 L 72 28 L 72 32 L 68 32 L 64 32 L 64 36 L 64 40 L 64 44 L 64 48 L 64 52 L 64 56 L 64 60 L 64 64 L 68 64 L 72 64 L 72 68 L 72 72 L 76 72 L 80 72 L 84 72 L 88 72 L 92 72 L 96 72 L 100 72 L 104 72 L 104 68 L 104 64 L 108 64 L 112 64 L 112 60 L 112 56 L 108 56 L 104 56 L 100 56 L 96 56 L 96 60 L 96 64 L 92 64 L 88 64 L 84 64 L 80 64 L 80 60 L 80 56 L 80 52 L 80 48 L 84 48 L 88 48 L 92 48 L 96 48 L 100 48 L 104 48 L 108 48 L 112 48 L 112 44 L 112 40 L 112 36 L 112 32 L 108 32 L 104 32 L 104 28 L 104 24 L 100 24 L 96 24 L 92 24 L 88 24 L 84 24 L 80 24 L 76 24 L 72 24 z M 80 32 L 84 32 L 88 32 L 92 32 L 96 32 L 96 36 L 96 40 L 92 40 L 88 40 L 84 40 L 80 40 L 80 36 L 80 32 z M 24 48 L 28 48 L 32 48 L 36 48 L 40 48 L 40 52 L 40 56 L 40 60 L 40 64 L 36 64 L 32 64 L 28 64 L 24 64 L 24 60 L 24 56 L 24 52 L 24 48 z "
     id="rect386" />
  <path
     style="fill:#800000"
     d="M 16 80 L 16 84 L 16 88 L 20 88 L 24 88 L 24 84 L 24 80 L 20 80 L 16 80 z M 24 88 L 24 92 L 24 96 L 28 96 L 32 96 L 32 92 L 32 88 L 28 88 L 24 88 z M 32 88 L 36 88 L 40 88 L 40 84 L 40 80 L 36 80 L 32 80 L 32 84 L 32 88 z M 40 88 L 40 92 L 40 96 L 44 96 L 48 96 L 48 92 L 48 88 L 44 88 L 40 88 z M 48 88 L 52 88 L 56 88 L 56 84 L 56 80 L 52 80 L 48 80 L 48 84 L 48 88 z M 56 88 L 56 92 L 56 96 L 60 96 L 64 96 L 64 92 L 64 88 L 60 88 L 56 88 z M 64 88 L 68 88 L 72 88 L 72 84 L 72 80 L 68 80 L 64 80 L 64 84 L 64 88 z M 72 88 L 72 92 L 72 96 L 76 96 L 80 96 L 80 92 L 80 88 L 76 88 L 72 88 z M 80 88 L 84 88 L 88 88 L 88 84 L 88 80 L 84 80 L 80 80 L 80 84 L 80 88 z M 88 88 L 88 92 L 88 96 L 92 96 L 96 96 L 96 92 L 96 88 L 92 88 L 88 88 z M 96 88 L 100 88 L 104 88 L 104 84 L 104 80 L 100 80 L 96 80 L 96 84 L 96 88 z M 104 88 L 104 92 L 104 96 L 108 96 L 112 96 L 112 92 L 112 88 L 108 88 L 104 88 z M 16 88 L 12 88 L 8 88 L 8 92 L 8 96 L 12 96 L 16 96 L 16 92 L 16 88 z "
     id="rect490" />
</svg>
