<?xml version="1.0" encoding="UTF-8" standalone="no"?>
<svg
   xmlns:dc="http://purl.org/dc/elements/1.1/"
   xmlns:cc="http://creativecommons.org/ns#"
   xmlns:rdf="http://www.w3.org/1999/02/22-rdf-syntax-ns#"
   xmlns:svg="http://www.w3.org/2000/svg"
   xmlns="http://www.w3.org/2000/svg"
   xmlns:sodipodi="http://sodipodi.sourceforge.net/DTD/sodipodi-0.dtd"
   xmlns:inkscape="http://www.inkscape.org/namespaces/inkscape"
   id="svg1804"
   width="128px"
   version="1.1"
   height="128px"
   sodipodi:docname="chicago95_tmp_file.svg"
   inkscape:version="0.92.4 (5da689c313, 2019-01-14)">
  <sodipodi:namedview
     pagecolor="#ffffff"
     bordercolor="#666666"
     borderopacity="1"
     objecttolerance="10"
     gridtolerance="10"
     guidetolerance="10"
     inkscape:pageopacity="0"
     inkscape:pageshadow="2"
     inkscape:window-width="640"
     inkscape:window-height="480"
     id="namedview905"
     showgrid="false"
     inkscape:zoom="1.84375"
     inkscape:cx="64"
     inkscape:cy="64"
     inkscape:window-x="0"
     inkscape:window-y="0"
     inkscape:window-maximized="0"
     inkscape:current-layer="svg1804" />
  <metadata
     id="metadata1808">
    <rdf:RDF>
      <cc:Work
         rdf:about="">
        <dc:format>image/svg+xml</dc:format>
        <dc:type
           rdf:resource="http://purl.org/dc/dcmitype/StillImage" />
      </cc:Work>
    </rdf:RDF>
  </metadata>
  <defs
     id="defs2" />
  <path
     style="fill:#800000"
     d="M 56 8 L 56 12 L 56 16 L 52 16 L 48 16 L 48 20 L 48 24 L 44 24 L 40 24 L 40 28 L 40 32 L 44 32 L 48 32 L 52 32 L 56 32 L 56 36 L 56 40 L 56 44 L 56 48 L 60 48 L 64 48 L 64 44 L 64 40 L 64 36 L 64 32 L 68 32 L 72 32 L 76 32 L 80 32 L 80 28 L 80 24 L 76 24 L 72 24 L 72 20 L 72 16 L 68 16 L 64 16 L 64 12 L 64 8 L 60 8 L 56 8 z M 24 40 L 24 44 L 24 48 L 20 48 L 16 48 L 16 52 L 16 56 L 12 56 L 8 56 L 8 60 L 8 64 L 12 64 L 16 64 L 16 68 L 16 72 L 20 72 L 24 72 L 24 76 L 24 80 L 28 80 L 32 80 L 32 76 L 32 72 L 32 68 L 32 64 L 36 64 L 40 64 L 44 64 L 48 64 L 48 60 L 48 56 L 44 56 L 40 56 L 36 56 L 32 56 L 32 52 L 32 48 L 32 44 L 32 40 L 28 40 L 24 40 z M 88 40 L 88 44 L 88 48 L 88 52 L 88 56 L 84 56 L 80 56 L 76 56 L 72 56 L 72 60 L 72 64 L 76 64 L 80 64 L 84 64 L 88 64 L 88 68 L 88 72 L 88 76 L 88 80 L 92 80 L 96 80 L 96 76 L 96 72 L 100 72 L 104 72 L 104 68 L 104 64 L 108 64 L 112 64 L 112 60 L 112 56 L 108 56 L 104 56 L 104 52 L 104 48 L 100 48 L 96 48 L 96 44 L 96 40 L 92 40 L 88 40 z M 56 72 L 56 76 L 56 80 L 56 84 L 56 88 L 52 88 L 48 88 L 44 88 L 40 88 L 40 92 L 40 96 L 44 96 L 48 96 L 48 100 L 48 104 L 52 104 L 56 104 L 56 108 L 56 112 L 60 112 L 64 112 L 64 108 L 64 104 L 68 104 L 72 104 L 72 100 L 72 96 L 76 96 L 80 96 L 80 92 L 80 88 L 76 88 L 72 88 L 68 88 L 64 88 L 64 84 L 64 80 L 64 76 L 64 72 L 60 72 L 56 72 z "
     id="rect1654" />
  <path
     style="fill:#ffffff"
     d="M 8 8 L 8 12 L 8 16 L 8 20 L 8 24 L 8 28 L 8 32 L 8 36 L 8 40 L 8 44 L 8 48 L 8 52 L 8 56 L 12 56 L 16 56 L 16 52 L 16 48 L 20 48 L 24 48 L 24 44 L 24 40 L 28 40 L 32 40 L 32 44 L 32 48 L 32 52 L 32 56 L 36 56 L 40 56 L 44 56 L 48 56 L 48 60 L 48 64 L 44 64 L 40 64 L 36 64 L 32 64 L 32 68 L 32 72 L 32 76 L 32 80 L 28 80 L 24 80 L 24 76 L 24 72 L 20 72 L 16 72 L 16 68 L 16 64 L 12 64 L 8 64 L 8 68 L 8 72 L 8 76 L 8 80 L 8 84 L 8 88 L 8 92 L 8 96 L 8 100 L 8 104 L 8 108 L 8 112 L 12 112 L 16 112 L 20 112 L 24 112 L 28 112 L 32 112 L 36 112 L 40 112 L 44 112 L 48 112 L 52 112 L 56 112 L 56 108 L 56 104 L 52 104 L 48 104 L 48 100 L 48 96 L 44 96 L 40 96 L 40 92 L 40 88 L 44 88 L 48 88 L 52 88 L 56 88 L 56 84 L 56 80 L 56 76 L 56 72 L 60 72 L 64 72 L 64 76 L 64 80 L 64 84 L 64 88 L 68 88 L 72 88 L 76 88 L 80 88 L 80 92 L 80 96 L 76 96 L 72 96 L 72 100 L 72 104 L 68 104 L 64 104 L 64 108 L 64 112 L 68 112 L 72 112 L 76 112 L 80 112 L 84 112 L 88 112 L 92 112 L 96 112 L 100 112 L 104 112 L 108 112 L 112 112 L 112 108 L 112 104 L 112 100 L 112 96 L 112 92 L 112 88 L 112 84 L 112 80 L 112 76 L 112 72 L 112 68 L 112 64 L 108 64 L 104 64 L 104 68 L 104 72 L 100 72 L 96 72 L 96 76 L 96 80 L 92 80 L 88 80 L 88 76 L 88 72 L 88 68 L 88 64 L 84 64 L 80 64 L 76 64 L 72 64 L 72 60 L 72 56 L 76 56 L 80 56 L 84 56 L 88 56 L 88 52 L 88 48 L 88 44 L 88 40 L 92 40 L 96 40 L 96 44 L 96 48 L 100 48 L 104 48 L 104 52 L 104 56 L 108 56 L 112 56 L 112 52 L 112 48 L 112 44 L 112 40 L 112 36 L 112 32 L 112 28 L 112 24 L 112 20 L 112 16 L 112 12 L 112 8 L 108 8 L 104 8 L 100 8 L 96 8 L 92 8 L 88 8 L 84 8 L 80 8 L 76 8 L 72 8 L 68 8 L 64 8 L 64 12 L 64 16 L 68 16 L 72 16 L 72 20 L 72 24 L 76 24 L 80 24 L 80 28 L 80 32 L 76 32 L 72 32 L 68 32 L 64 32 L 64 36 L 64 40 L 64 44 L 64 48 L 60 48 L 56 48 L 56 44 L 56 40 L 56 36 L 56 32 L 52 32 L 48 32 L 44 32 L 40 32 L 40 28 L 40 24 L 44 24 L 48 24 L 48 20 L 48 16 L 52 16 L 56 16 L 56 12 L 56 8 L 52 8 L 48 8 L 44 8 L 40 8 L 36 8 L 32 8 L 28 8 L 24 8 L 20 8 L 16 8 L 12 8 L 8 8 z "
     id="rect1678" />
  <path
     style="fill:#000080"
     d="M 0 0 L 0 4 L 0 8 L 0 12 L 0 16 L 0 20 L 0 24 L 0 28 L 0 32 L 0 36 L 0 40 L 0 44 L 0 48 L 0 52 L 0 56 L 0 60 L 0 64 L 0 68 L 0 72 L 0 76 L 0 80 L 0 84 L 0 88 L 0 92 L 0 96 L 0 100 L 0 104 L 0 108 L 0 112 L 0 116 L 0 120 L 4 120 L 8 120 L 12 120 L 16 120 L 20 120 L 24 120 L 28 120 L 32 120 L 36 120 L 40 120 L 44 120 L 48 120 L 52 120 L 56 120 L 60 120 L 64 120 L 68 120 L 72 120 L 76 120 L 80 120 L 84 120 L 88 120 L 92 120 L 96 120 L 100 120 L 104 120 L 108 120 L 112 120 L 116 120 L 120 120 L 120 116 L 120 112 L 120 108 L 120 104 L 120 100 L 120 96 L 120 92 L 120 88 L 120 84 L 120 80 L 120 76 L 120 72 L 120 68 L 120 64 L 120 60 L 120 56 L 120 52 L 120 48 L 120 44 L 120 40 L 120 36 L 120 32 L 120 28 L 120 24 L 120 20 L 120 16 L 120 12 L 120 8 L 120 4 L 120 0 L 116 0 L 112 0 L 108 0 L 104 0 L 100 0 L 96 0 L 92 0 L 88 0 L 84 0 L 80 0 L 76 0 L 72 0 L 68 0 L 64 0 L 60 0 L 56 0 L 52 0 L 48 0 L 44 0 L 40 0 L 36 0 L 32 0 L 28 0 L 24 0 L 20 0 L 16 0 L 12 0 L 8 0 L 4 0 L 0 0 z M 8 8 L 12 8 L 16 8 L 20 8 L 24 8 L 28 8 L 32 8 L 36 8 L 40 8 L 44 8 L 48 8 L 52 8 L 56 8 L 60 8 L 64 8 L 68 8 L 72 8 L 76 8 L 80 8 L 84 8 L 88 8 L 92 8 L 96 8 L 100 8 L 104 8 L 108 8 L 112 8 L 112 12 L 112 16 L 112 20 L 112 24 L 112 28 L 112 32 L 112 36 L 112 40 L 112 44 L 112 48 L 112 52 L 112 56 L 112 60 L 112 64 L 112 68 L 112 72 L 112 76 L 112 80 L 112 84 L 112 88 L 112 92 L 112 96 L 112 100 L 112 104 L 112 108 L 112 112 L 108 112 L 104 112 L 100 112 L 96 112 L 92 112 L 88 112 L 84 112 L 80 112 L 76 112 L 72 112 L 68 112 L 64 112 L 60 112 L 56 112 L 52 112 L 48 112 L 44 112 L 40 112 L 36 112 L 32 112 L 28 112 L 24 112 L 20 112 L 16 112 L 12 112 L 8 112 L 8 108 L 8 104 L 8 100 L 8 96 L 8 92 L 8 88 L 8 84 L 8 80 L 8 76 L 8 72 L 8 68 L 8 64 L 8 60 L 8 56 L 8 52 L 8 48 L 8 44 L 8 40 L 8 36 L 8 32 L 8 28 L 8 24 L 8 20 L 8 16 L 8 12 L 8 8 z "
     id="rect1802" />
</svg>
