<?xml version="1.0" encoding="UTF-8" standalone="no"?>
<svg
   xmlns:dc="http://purl.org/dc/elements/1.1/"
   xmlns:cc="http://creativecommons.org/ns#"
   xmlns:rdf="http://www.w3.org/1999/02/22-rdf-syntax-ns#"
   xmlns:svg="http://www.w3.org/2000/svg"
   xmlns="http://www.w3.org/2000/svg"
   xmlns:sodipodi="http://sodipodi.sourceforge.net/DTD/sodipodi-0.dtd"
   xmlns:inkscape="http://www.inkscape.org/namespaces/inkscape"
   id="svg940"
   width="128px"
   version="1.1"
   height="128px"
   sodipodi:docname="chicago95_tmp_file.svg"
   inkscape:version="0.92.4 (5da689c313, 2019-01-14)">
  <sodipodi:namedview
     pagecolor="#ffffff"
     bordercolor="#666666"
     borderopacity="1"
     objecttolerance="10"
     gridtolerance="10"
     guidetolerance="10"
     inkscape:pageopacity="0"
     inkscape:pageshadow="2"
     inkscape:window-width="640"
     inkscape:window-height="480"
     id="namedview473"
     showgrid="false"
     inkscape:zoom="1.84375"
     inkscape:cx="64"
     inkscape:cy="64"
     inkscape:window-x="0"
     inkscape:window-y="0"
     inkscape:window-maximized="0"
     inkscape:current-layer="svg940" />
  <metadata
     id="metadata944">
    <rdf:RDF>
      <cc:Work
         rdf:about="">
        <dc:format>image/svg+xml</dc:format>
        <dc:type
           rdf:resource="http://purl.org/dc/dcmitype/StillImage" />
      </cc:Work>
    </rdf:RDF>
  </metadata>
  <defs
     id="defs2" />
  <path
     style="fill:#ffffff"
     d="M 48 16 L 48 20 L 48 24 L 48 28 L 48 32 L 52 32 L 56 32 L 60 32 L 64 32 L 64 28 L 64 24 L 64 20 L 64 16 L 60 16 L 56 16 L 52 16 L 48 16 z M 8 56 L 8 60 L 8 64 L 8 68 L 8 72 L 8 76 L 8 80 L 8 84 L 8 88 L 8 92 L 8 96 L 8 100 L 8 104 L 8 108 L 8 112 L 12 112 L 16 112 L 20 112 L 24 112 L 28 112 L 32 112 L 36 112 L 40 112 L 44 112 L 48 112 L 52 112 L 56 112 L 60 112 L 64 112 L 64 108 L 64 104 L 64 100 L 64 96 L 64 92 L 64 88 L 64 84 L 64 80 L 64 76 L 64 72 L 64 68 L 64 64 L 64 60 L 64 56 L 60 56 L 56 56 L 52 56 L 48 56 L 44 56 L 40 56 L 36 56 L 32 56 L 28 56 L 24 56 L 20 56 L 16 56 L 12 56 L 8 56 z "
     id="rect842" />
  <path
     style="fill:#000080"
     d="M 40 8 L 40 12 L 40 16 L 40 20 L 40 24 L 40 28 L 40 32 L 40 36 L 40 40 L 44 40 L 48 40 L 52 40 L 56 40 L 60 40 L 64 40 L 68 40 L 72 40 L 72 36 L 72 32 L 72 28 L 72 24 L 72 20 L 72 16 L 72 12 L 72 8 L 68 8 L 64 8 L 60 8 L 56 8 L 52 8 L 48 8 L 44 8 L 40 8 z M 48 16 L 52 16 L 56 16 L 60 16 L 64 16 L 64 20 L 64 24 L 64 28 L 64 32 L 60 32 L 56 32 L 52 32 L 48 32 L 48 28 L 48 24 L 48 20 L 48 16 z M 0 48 L 0 52 L 0 56 L 0 60 L 0 64 L 0 68 L 0 72 L 0 76 L 0 80 L 0 84 L 0 88 L 0 92 L 0 96 L 0 100 L 0 104 L 0 108 L 0 112 L 0 116 L 0 120 L 4 120 L 8 120 L 12 120 L 16 120 L 20 120 L 24 120 L 28 120 L 32 120 L 36 120 L 40 120 L 44 120 L 48 120 L 52 120 L 56 120 L 60 120 L 64 120 L 68 120 L 72 120 L 72 116 L 72 112 L 72 108 L 72 104 L 72 100 L 72 96 L 72 92 L 72 88 L 72 84 L 72 80 L 72 76 L 72 72 L 72 68 L 72 64 L 72 60 L 72 56 L 72 52 L 72 48 L 68 48 L 64 48 L 60 48 L 56 48 L 52 48 L 48 48 L 44 48 L 40 48 L 36 48 L 32 48 L 28 48 L 24 48 L 20 48 L 16 48 L 12 48 L 8 48 L 4 48 L 0 48 z M 8 56 L 12 56 L 16 56 L 20 56 L 24 56 L 28 56 L 32 56 L 36 56 L 40 56 L 44 56 L 48 56 L 52 56 L 56 56 L 60 56 L 64 56 L 64 60 L 64 64 L 64 68 L 64 72 L 64 76 L 64 80 L 64 84 L 64 88 L 64 92 L 64 96 L 64 100 L 64 104 L 64 108 L 64 112 L 60 112 L 56 112 L 52 112 L 48 112 L 44 112 L 40 112 L 36 112 L 32 112 L 28 112 L 24 112 L 20 112 L 16 112 L 12 112 L 8 112 L 8 108 L 8 104 L 8 100 L 8 96 L 8 92 L 8 88 L 8 84 L 8 80 L 8 76 L 8 72 L 8 68 L 8 64 L 8 60 L 8 56 z "
     id="rect934" />
  <path
     style="fill:#800000"
     d="M 104 8 L 104 12 L 104 16 L 104 20 L 104 24 L 104 28 L 104 32 L 104 36 L 104 40 L 104 44 L 104 48 L 104 52 L 104 56 L 104 60 L 104 64 L 104 68 L 104 72 L 104 76 L 104 80 L 104 84 L 104 88 L 104 92 L 104 96 L 100 96 L 96 96 L 92 96 L 88 96 L 88 100 L 88 104 L 92 104 L 96 104 L 96 108 L 96 112 L 100 112 L 104 112 L 104 116 L 104 120 L 108 120 L 112 120 L 112 116 L 112 112 L 116 112 L 120 112 L 120 108 L 120 104 L 124 104 L 128 104 L 128 100 L 128 96 L 124 96 L 120 96 L 116 96 L 112 96 L 112 92 L 112 88 L 112 84 L 112 80 L 112 76 L 112 72 L 112 68 L 112 64 L 112 60 L 112 56 L 112 52 L 112 48 L 112 44 L 112 40 L 112 36 L 112 32 L 112 28 L 112 24 L 112 20 L 112 16 L 112 12 L 112 8 L 108 8 L 104 8 z "
     id="rect938" />
</svg>
