<?xml version="1.0" encoding="UTF-8" standalone="no"?>
<svg
   xmlns:dc="http://purl.org/dc/elements/1.1/"
   xmlns:cc="http://creativecommons.org/ns#"
   xmlns:rdf="http://www.w3.org/1999/02/22-rdf-syntax-ns#"
   xmlns:svg="http://www.w3.org/2000/svg"
   xmlns="http://www.w3.org/2000/svg"
   xmlns:sodipodi="http://sodipodi.sourceforge.net/DTD/sodipodi-0.dtd"
   xmlns:inkscape="http://www.inkscape.org/namespaces/inkscape"
   id="svg3678"
   width="144px"
   version="1.1"
   height="144px"
   sodipodi:docname="chicago95_tmp_file.svg"
   inkscape:version="0.92.4 (5da689c313, 2019-01-14)">
  <sodipodi:namedview
     pagecolor="#ffffff"
     bordercolor="#666666"
     borderopacity="1"
     objecttolerance="10"
     gridtolerance="10"
     guidetolerance="10"
     inkscape:pageopacity="0"
     inkscape:pageshadow="2"
     inkscape:window-width="453"
     inkscape:window-height="423"
     id="namedview1842"
     showgrid="false"
     inkscape:zoom="1.6388889"
     inkscape:cx="106.16952"
     inkscape:cy="3.6610183"
     inkscape:window-x="0"
     inkscape:window-y="0"
     inkscape:window-maximized="0"
     inkscape:current-layer="svg3678" />
  <metadata
     id="metadata3682">
    <rdf:RDF>
      <cc:Work
         rdf:about="">
        <dc:format>image/svg+xml</dc:format>
        <dc:type
           rdf:resource="http://purl.org/dc/dcmitype/StillImage" />
      </cc:Work>
    </rdf:RDF>
  </metadata>
  <defs
     id="defs2" />
  <path
     style="fill:#000062"
     d="M 57 3 L 57 6 L 60 6 L 60 3 L 57 3 z M 75 3 L 75 6 L 78 6 L 78 3 L 75 3 z "
     id="rect52" />
  <path
     style="fill:#000038"
     d="M 120 21 L 120 24 L 123 24 L 123 21 L 120 21 z "
     id="rect416" />
  <path
     style="fill:#9c9cff"
     d="M 57 15 L 57 18 L 60 18 L 60 15 L 57 15 z M 57 33 L 57 36 L 60 36 L 60 33 L 57 33 z "
     id="rect680" />
  <path
     style="fill:#2d2dff"
     d="M 75 39 L 75 42 L 78 42 L 78 39 L 75 39 z "
     id="rect864" />
  <path
     style="fill:#2929ff"
     d="M 63 39 L 63 42 L 66 42 L 69 42 L 72 42 L 75 42 L 75 39 L 72 39 L 69 39 L 66 39 L 63 39 z M 78 39 L 78 42 L 81 42 L 81 39 L 78 39 z "
     id="rect866" />
  <path
     style="fill:#5050ff"
     d="M 48 48 L 48 51 L 51 51 L 51 48 L 48 48 z "
     id="rect1122" />
  <path
     style="fill:#6262ff"
     d="M 57 48 L 57 51 L 60 51 L 60 48 L 57 48 z M 75 48 L 75 51 L 78 51 L 78 48 L 75 48 z "
     id="rect1140" />
  <path
     style="fill:#5555ff"
     d="M 51 48 L 51 51 L 54 51 L 57 51 L 57 48 L 54 48 L 51 48 z M 60 48 L 60 51 L 63 51 L 66 51 L 69 51 L 72 51 L 75 51 L 75 48 L 72 48 L 69 48 L 66 48 L 63 48 L 60 48 z M 78 48 L 78 51 L 81 51 L 84 51 L 87 51 L 90 51 L 90 48 L 87 48 L 84 48 L 81 48 L 78 48 z "
     id="rect1148" />
  <path
     style="fill:#1111ff"
     d="M 48 57 L 48 60 L 51 60 L 51 57 L 48 57 z "
     id="rect1404" />
  <path
     style="fill:#1b1bff"
     d="M 57 57 L 57 60 L 60 60 L 60 57 L 57 57 z "
     id="rect1410" />
  <path
     style="fill:#1717ff"
     d="M 51 57 L 51 60 L 54 60 L 57 60 L 57 57 L 54 57 L 51 57 z M 60 57 L 60 60 L 63 60 L 63 57 L 60 57 z "
     id="rect1412" />
  <path
     style="fill:#0000e8"
     d="M 12 39 L 12 42 L 15 42 L 15 39 L 12 39 z M 3 66 L 3 69 L 6 69 L 6 66 L 3 66 z "
     id="rect1662" />
  <path
     style="fill:#0000ed"
     d="M 3 57 L 3 60 L 6 60 L 6 57 L 3 57 z M 3 84 L 3 87 L 6 87 L 6 84 L 3 84 z "
     id="rect2238" />
  <path
     style="fill:#000013"
     d="M 138 57 L 138 60 L 141 60 L 141 57 L 138 57 z M 138 84 L 138 87 L 141 87 L 141 84 L 138 84 z "
     id="rect2328" />
  <path
     style="fill:#00009a"
     d="M 12 102 L 12 105 L 15 105 L 15 102 L 12 102 z "
     id="rect2802" />
  <path
     style="fill:#000017"
     d="M 138 66 L 138 69 L 141 69 L 141 66 L 138 66 z M 9 102 L 9 105 L 12 105 L 12 102 L 9 102 z M 129 102 L 129 105 L 132 105 L 135 105 L 135 102 L 132 102 L 129 102 z "
     id="rect2882" />
  <path
     style="fill:#00009c"
     d="M 21 21 L 21 24 L 24 24 L 27 24 L 27 21 L 24 21 L 21 21 z M 117 21 L 117 24 L 120 24 L 120 21 L 117 21 z M 12 33 L 12 36 L 12 39 L 15 39 L 15 36 L 15 33 L 12 33 z M 12 105 L 12 108 L 12 111 L 15 111 L 15 108 L 15 105 L 12 105 z "
     id="rect2974" />
  <path
     style="fill:#0000ab"
     d="M 18 114 L 18 117 L 21 117 L 21 114 L 18 114 z "
     id="rect3138" />
  <path
     style="fill:#e7e7ff"
     d="M 48 114 L 48 117 L 51 117 L 51 114 L 48 114 z "
     id="rect3158" />
  <path
     style="fill:#0000c0"
     d="M 120 114 L 120 117 L 123 117 L 123 114 L 120 114 z "
     id="rect3206" />
  <path
     style="fill:#000029"
     d="M 120 24 L 120 27 L 123 27 L 123 24 L 120 24 z M 120 117 L 120 120 L 123 120 L 123 117 L 120 117 z "
     id="rect3280" />
  <path
     style="fill:#ffffff"
     d="M 63 9 L 63 12 L 63 15 L 60 15 L 60 18 L 57 18 L 54 18 L 54 21 L 54 24 L 54 27 L 54 30 L 54 33 L 57 33 L 60 33 L 60 36 L 63 36 L 63 39 L 66 39 L 69 39 L 72 39 L 75 39 L 78 39 L 81 39 L 81 36 L 84 36 L 84 33 L 87 33 L 90 33 L 90 30 L 90 27 L 90 24 L 90 21 L 90 18 L 87 18 L 84 18 L 84 15 L 81 15 L 81 12 L 81 9 L 78 9 L 75 9 L 72 9 L 69 9 L 66 9 L 63 9 z M 48 51 L 48 54 L 48 57 L 51 57 L 54 57 L 57 57 L 60 57 L 63 57 L 63 60 L 63 63 L 63 66 L 63 69 L 63 72 L 63 75 L 63 78 L 63 81 L 63 84 L 63 87 L 63 90 L 63 93 L 63 96 L 63 99 L 63 102 L 63 105 L 63 108 L 63 111 L 60 111 L 57 111 L 54 111 L 51 111 L 48 111 L 48 114 L 51 114 L 51 117 L 48 117 L 48 120 L 48 123 L 48 126 L 51 126 L 54 126 L 57 126 L 60 126 L 63 126 L 66 126 L 69 126 L 72 126 L 75 126 L 78 126 L 81 126 L 84 126 L 87 126 L 90 126 L 93 126 L 96 126 L 99 126 L 102 126 L 102 123 L 102 120 L 102 117 L 102 114 L 102 111 L 99 111 L 96 111 L 93 111 L 90 111 L 90 108 L 90 105 L 90 102 L 90 99 L 90 96 L 90 93 L 90 90 L 90 87 L 90 84 L 90 81 L 90 78 L 90 75 L 90 72 L 90 69 L 90 66 L 90 63 L 90 60 L 90 57 L 90 54 L 90 51 L 87 51 L 84 51 L 81 51 L 78 51 L 75 51 L 72 51 L 69 51 L 66 51 L 63 51 L 60 51 L 57 51 L 54 51 L 51 51 L 48 51 z "
     id="rect3404" />
  <path
     style="fill:#0000d6"
     d="M 30 15 L 30 18 L 33 18 L 33 15 L 30 15 z M 9 39 L 9 42 L 12 42 L 12 39 L 9 39 z M 129 39 L 129 42 L 132 42 L 135 42 L 135 39 L 132 39 L 129 39 z M 30 126 L 30 129 L 33 129 L 33 126 L 30 126 z "
     id="rect3422" />
  <path
     style="fill:#000055"
     d="M 54 3 L 54 6 L 57 6 L 57 3 L 54 3 z M 60 3 L 60 6 L 63 6 L 66 6 L 69 6 L 72 6 L 75 6 L 75 3 L 72 3 L 69 3 L 66 3 L 63 3 L 60 3 z M 78 3 L 78 6 L 81 6 L 84 6 L 87 6 L 90 6 L 90 3 L 87 3 L 84 3 L 81 3 L 78 3 z M 39 9 L 39 12 L 39 15 L 42 15 L 42 12 L 42 9 L 39 9 z M 123 114 L 123 117 L 126 117 L 126 114 L 123 114 z M 39 129 L 39 132 L 42 132 L 42 129 L 39 129 z "
     id="rect3486" />
  <path
     style="fill:#000042"
     d="M 39 132 L 39 135 L 42 135 L 42 132 L 39 132 z "
     id="rect3540" />
  <path
     style="fill:#000059"
     d="M 48 132 L 48 135 L 51 135 L 51 132 L 48 132 z M 93 132 L 93 135 L 96 135 L 96 132 L 93 132 z "
     id="rect3576" />
  <path
     style="fill:#000064"
     d="M 123 27 L 123 30 L 123 33 L 126 33 L 126 30 L 126 27 L 123 27 z M 123 111 L 123 114 L 126 114 L 126 111 L 123 111 z M 42 132 L 42 135 L 45 135 L 48 135 L 48 132 L 45 132 L 42 132 z M 51 132 L 51 135 L 54 135 L 54 132 L 51 132 z M 90 132 L 90 135 L 93 135 L 93 132 L 90 132 z M 96 132 L 96 135 L 99 135 L 102 135 L 102 132 L 99 132 L 96 132 z "
     id="rect3580" />
  <path
     style="fill:#0000ff"
     d="M 54 6 L 54 9 L 51 9 L 48 9 L 45 9 L 42 9 L 42 12 L 42 15 L 39 15 L 36 15 L 33 15 L 33 18 L 30 18 L 27 18 L 27 21 L 27 24 L 24 24 L 21 24 L 21 27 L 18 27 L 18 30 L 18 33 L 15 33 L 15 36 L 15 39 L 15 42 L 12 42 L 9 42 L 9 45 L 9 48 L 9 51 L 9 54 L 6 54 L 3 54 L 3 57 L 6 57 L 6 60 L 3 60 L 3 63 L 3 66 L 6 66 L 6 69 L 3 69 L 3 72 L 3 75 L 3 78 L 3 81 L 3 84 L 6 84 L 6 87 L 3 87 L 3 90 L 6 90 L 9 90 L 9 93 L 9 96 L 9 99 L 9 102 L 12 102 L 15 102 L 15 105 L 15 108 L 15 111 L 18 111 L 18 114 L 21 114 L 21 117 L 21 120 L 24 120 L 27 120 L 27 123 L 27 126 L 30 126 L 33 126 L 33 129 L 36 129 L 39 129 L 42 129 L 42 132 L 45 132 L 48 132 L 51 132 L 54 132 L 54 135 L 54 138 L 57 138 L 60 138 L 63 138 L 66 138 L 69 138 L 72 138 L 75 138 L 78 138 L 81 138 L 84 138 L 87 138 L 90 138 L 90 135 L 90 132 L 93 132 L 96 132 L 99 132 L 102 132 L 102 129 L 105 129 L 108 129 L 111 129 L 111 126 L 114 126 L 117 126 L 117 123 L 117 120 L 120 120 L 120 117 L 120 114 L 123 114 L 123 111 L 126 111 L 129 111 L 129 108 L 129 105 L 129 102 L 132 102 L 135 102 L 135 99 L 135 96 L 135 93 L 135 90 L 138 90 L 138 87 L 138 84 L 138 81 L 138 78 L 138 75 L 138 72 L 138 69 L 138 66 L 138 63 L 138 60 L 138 57 L 138 54 L 135 54 L 135 51 L 135 48 L 135 45 L 135 42 L 132 42 L 129 42 L 129 39 L 129 36 L 129 33 L 126 33 L 123 33 L 123 30 L 123 27 L 120 27 L 120 24 L 117 24 L 117 21 L 117 18 L 114 18 L 111 18 L 111 15 L 108 15 L 105 15 L 102 15 L 102 12 L 102 9 L 99 9 L 96 9 L 93 9 L 90 9 L 90 6 L 87 6 L 84 6 L 81 6 L 78 6 L 75 6 L 72 6 L 69 6 L 66 6 L 63 6 L 60 6 L 57 6 L 54 6 z M 63 9 L 66 9 L 69 9 L 72 9 L 75 9 L 78 9 L 81 9 L 81 12 L 81 15 L 84 15 L 84 18 L 87 18 L 90 18 L 90 21 L 90 24 L 90 27 L 90 30 L 90 33 L 87 33 L 84 33 L 84 36 L 81 36 L 81 39 L 81 42 L 78 42 L 75 42 L 72 42 L 69 42 L 66 42 L 63 42 L 63 39 L 63 36 L 60 36 L 57 36 L 57 33 L 54 33 L 54 30 L 54 27 L 54 24 L 54 21 L 54 18 L 57 18 L 57 15 L 60 15 L 63 15 L 63 12 L 63 9 z M 48 48 L 51 48 L 54 48 L 57 48 L 60 48 L 63 48 L 66 48 L 69 48 L 72 48 L 75 48 L 78 48 L 81 48 L 84 48 L 87 48 L 90 48 L 90 51 L 90 54 L 90 57 L 90 60 L 90 63 L 90 66 L 90 69 L 90 72 L 90 75 L 90 78 L 90 81 L 90 84 L 90 87 L 90 90 L 90 93 L 90 96 L 90 99 L 90 102 L 90 105 L 90 108 L 90 111 L 93 111 L 96 111 L 99 111 L 102 111 L 102 114 L 102 117 L 102 120 L 102 123 L 102 126 L 99 126 L 96 126 L 93 126 L 90 126 L 87 126 L 84 126 L 81 126 L 78 126 L 75 126 L 72 126 L 69 126 L 66 126 L 63 126 L 60 126 L 57 126 L 54 126 L 51 126 L 48 126 L 48 123 L 48 120 L 48 117 L 48 114 L 48 111 L 51 111 L 54 111 L 57 111 L 60 111 L 63 111 L 63 108 L 63 105 L 63 102 L 63 99 L 63 96 L 63 93 L 63 90 L 63 87 L 63 84 L 63 81 L 63 78 L 63 75 L 63 72 L 63 69 L 63 66 L 63 63 L 63 60 L 60 60 L 57 60 L 54 60 L 51 60 L 48 60 L 48 57 L 48 54 L 48 51 L 48 48 z "
     id="rect3620" />
  <path
     style="fill:#000000"
     d="M 54 0 L 54 3 L 57 3 L 60 3 L 63 3 L 66 3 L 69 3 L 72 3 L 75 3 L 78 3 L 81 3 L 84 3 L 87 3 L 90 3 L 90 0 L 87 0 L 84 0 L 81 0 L 78 0 L 75 0 L 72 0 L 69 0 L 66 0 L 63 0 L 60 0 L 57 0 L 54 0 z M 90 3 L 90 6 L 90 9 L 93 9 L 96 9 L 99 9 L 102 9 L 102 6 L 102 3 L 99 3 L 96 3 L 93 3 L 90 3 z M 102 9 L 102 12 L 102 15 L 105 15 L 108 15 L 111 15 L 111 12 L 111 9 L 108 9 L 105 9 L 102 9 z M 111 15 L 111 18 L 114 18 L 117 18 L 117 15 L 114 15 L 111 15 z M 117 18 L 117 21 L 120 21 L 123 21 L 123 18 L 120 18 L 117 18 z M 123 21 L 123 24 L 123 27 L 126 27 L 126 24 L 126 21 L 123 21 z M 126 27 L 126 30 L 126 33 L 129 33 L 129 30 L 129 27 L 126 27 z M 129 33 L 129 36 L 129 39 L 132 39 L 135 39 L 135 36 L 135 33 L 132 33 L 129 33 z M 135 39 L 135 42 L 135 45 L 135 48 L 135 51 L 135 54 L 138 54 L 138 57 L 141 57 L 141 60 L 138 60 L 138 63 L 138 66 L 141 66 L 141 69 L 138 69 L 138 72 L 138 75 L 138 78 L 138 81 L 138 84 L 141 84 L 141 87 L 138 87 L 138 90 L 135 90 L 135 93 L 135 96 L 135 99 L 135 102 L 135 105 L 138 105 L 141 105 L 141 102 L 141 99 L 141 96 L 141 93 L 141 90 L 144 90 L 144 87 L 144 84 L 144 81 L 144 78 L 144 75 L 144 72 L 144 69 L 144 66 L 144 63 L 144 60 L 144 57 L 144 54 L 141 54 L 141 51 L 141 48 L 141 45 L 141 42 L 141 39 L 138 39 L 135 39 z M 135 105 L 132 105 L 129 105 L 129 108 L 129 111 L 132 111 L 135 111 L 135 108 L 135 105 z M 129 111 L 126 111 L 126 114 L 126 117 L 129 117 L 129 114 L 129 111 z M 126 117 L 123 117 L 123 120 L 126 120 L 126 117 z M 123 120 L 120 120 L 117 120 L 117 123 L 117 126 L 120 126 L 123 126 L 123 123 L 123 120 z M 117 126 L 114 126 L 111 126 L 111 129 L 114 129 L 117 129 L 117 126 z M 111 129 L 108 129 L 105 129 L 102 129 L 102 132 L 102 135 L 105 135 L 108 135 L 111 135 L 111 132 L 111 129 z M 102 135 L 99 135 L 96 135 L 93 135 L 90 135 L 90 138 L 93 138 L 96 138 L 99 138 L 102 138 L 102 135 z M 90 138 L 87 138 L 84 138 L 81 138 L 78 138 L 75 138 L 72 138 L 69 138 L 66 138 L 63 138 L 60 138 L 57 138 L 54 138 L 54 141 L 54 144 L 57 144 L 60 144 L 63 144 L 66 144 L 69 144 L 72 144 L 75 144 L 78 144 L 81 144 L 84 144 L 87 144 L 90 144 L 90 141 L 90 138 z M 54 138 L 54 135 L 51 135 L 48 135 L 45 135 L 42 135 L 39 135 L 39 138 L 42 138 L 45 138 L 48 138 L 51 138 L 54 138 z M 39 135 L 39 132 L 39 129 L 36 129 L 33 129 L 30 129 L 30 132 L 30 135 L 33 135 L 36 135 L 39 135 z M 30 129 L 30 126 L 27 126 L 27 129 L 30 129 z M 27 126 L 27 123 L 27 120 L 24 120 L 21 120 L 21 123 L 21 126 L 24 126 L 27 126 z M 21 120 L 21 117 L 18 117 L 18 120 L 21 120 z M 18 117 L 18 114 L 18 111 L 15 111 L 12 111 L 12 114 L 12 117 L 15 117 L 18 117 z M 12 111 L 12 108 L 12 105 L 9 105 L 9 108 L 9 111 L 12 111 z M 9 105 L 9 102 L 9 99 L 9 96 L 9 93 L 9 90 L 6 90 L 3 90 L 3 93 L 3 96 L 3 99 L 3 102 L 3 105 L 6 105 L 9 105 z M 3 90 L 3 87 L 3 84 L 3 81 L 3 78 L 3 75 L 3 72 L 3 69 L 3 66 L 3 63 L 3 60 L 3 57 L 3 54 L 0 54 L 0 57 L 0 60 L 0 63 L 0 66 L 0 69 L 0 72 L 0 75 L 0 78 L 0 81 L 0 84 L 0 87 L 0 90 L 3 90 z M 3 54 L 6 54 L 9 54 L 9 51 L 9 48 L 9 45 L 9 42 L 9 39 L 6 39 L 3 39 L 3 42 L 3 45 L 3 48 L 3 51 L 3 54 z M 9 39 L 12 39 L 12 36 L 12 33 L 9 33 L 9 36 L 9 39 z M 12 33 L 15 33 L 18 33 L 18 30 L 18 27 L 15 27 L 12 27 L 12 30 L 12 33 z M 18 27 L 21 27 L 21 24 L 21 21 L 18 21 L 18 24 L 18 27 z M 21 21 L 24 21 L 27 21 L 27 18 L 24 18 L 21 18 L 21 21 z M 27 18 L 30 18 L 30 15 L 27 15 L 27 18 z M 30 15 L 33 15 L 36 15 L 39 15 L 39 12 L 39 9 L 36 9 L 33 9 L 30 9 L 30 12 L 30 15 z M 39 9 L 42 9 L 45 9 L 48 9 L 51 9 L 54 9 L 54 6 L 54 3 L 51 3 L 48 3 L 45 3 L 42 3 L 39 3 L 39 6 L 39 9 z "
     id="rect3676" />
</svg>
