<?xml version="1.0" encoding="UTF-8" standalone="no"?>
<svg
   xmlns:dc="http://purl.org/dc/elements/1.1/"
   xmlns:cc="http://creativecommons.org/ns#"
   xmlns:rdf="http://www.w3.org/1999/02/22-rdf-syntax-ns#"
   xmlns:svg="http://www.w3.org/2000/svg"
   xmlns="http://www.w3.org/2000/svg"
   xmlns:sodipodi="http://sodipodi.sourceforge.net/DTD/sodipodi-0.dtd"
   xmlns:inkscape="http://www.inkscape.org/namespaces/inkscape"
   id="svg1320"
   width="96px"
   version="1.1"
   height="96px"
   sodipodi:docname="chicago95_tmp_file.svg"
   inkscape:version="0.92.4 (5da689c313, 2019-01-14)">
  <sodipodi:namedview
     pagecolor="#ffffff"
     bordercolor="#666666"
     borderopacity="1"
     objecttolerance="10"
     gridtolerance="10"
     guidetolerance="10"
     inkscape:pageopacity="0"
     inkscape:pageshadow="2"
     inkscape:window-width="640"
     inkscape:window-height="480"
     id="namedview663"
     showgrid="false"
     inkscape:zoom="2.4583333"
     inkscape:cx="47.999995"
     inkscape:cy="47.999995"
     inkscape:window-x="0"
     inkscape:window-y="0"
     inkscape:window-maximized="0"
     inkscape:current-layer="svg1320" />
  <metadata
     id="metadata1324">
    <rdf:RDF>
      <cc:Work
         rdf:about="">
        <dc:format>image/svg+xml</dc:format>
        <dc:type
           rdf:resource="http://purl.org/dc/dcmitype/StillImage" />
      </cc:Work>
    </rdf:RDF>
  </metadata>
  <defs
     id="defs2" />
  <path
     style="fill:#ffff00"
     d="M 78 21 L 78 24 L 81 24 L 81 21 L 78 21 z M 72 24 L 72 27 L 75 27 L 75 24 L 72 24 z M 72 30 L 72 33 L 75 33 L 75 30 L 72 30 z M 66 33 L 66 36 L 69 36 L 69 33 L 66 33 z M 78 33 L 78 36 L 81 36 L 81 33 L 78 33 z M 60 36 L 60 39 L 63 39 L 63 36 L 60 36 z M 78 39 L 78 42 L 81 42 L 81 39 L 78 39 z M 60 42 L 60 45 L 63 45 L 63 42 L 60 42 z M 72 42 L 72 45 L 75 45 L 75 42 L 72 42 z M 54 45 L 54 48 L 57 48 L 57 45 L 54 45 z M 66 45 L 66 48 L 69 48 L 69 45 L 66 45 z M 78 45 L 78 48 L 81 48 L 81 45 L 78 45 z M 24 48 L 24 51 L 27 51 L 27 48 L 24 48 z M 36 48 L 36 51 L 39 51 L 39 48 L 36 48 z M 42 48 L 42 51 L 45 51 L 45 48 L 42 48 z M 48 48 L 48 51 L 51 51 L 51 48 L 48 48 z M 72 48 L 72 51 L 75 51 L 75 48 L 72 48 z M 18 51 L 18 54 L 21 54 L 21 51 L 18 51 z M 78 51 L 78 54 L 81 54 L 81 51 L 78 51 z M 24 54 L 24 57 L 27 57 L 27 54 L 24 54 z M 60 54 L 60 57 L 63 57 L 63 54 L 60 54 z M 72 54 L 72 57 L 75 57 L 75 54 L 72 54 z M 30 57 L 30 60 L 33 60 L 33 57 L 30 57 z M 54 57 L 54 60 L 57 60 L 57 57 L 54 57 z M 66 57 L 66 60 L 69 60 L 69 57 L 66 57 z M 78 57 L 78 60 L 81 60 L 81 57 L 78 57 z M 12 60 L 12 63 L 15 63 L 15 60 L 12 60 z M 36 60 L 36 63 L 39 63 L 39 60 L 36 60 z M 48 60 L 48 63 L 51 63 L 51 60 L 48 60 z M 60 60 L 60 63 L 63 63 L 63 60 L 60 60 z M 72 60 L 72 63 L 75 63 L 75 60 L 72 60 z M 18 63 L 18 66 L 21 66 L 21 63 L 18 63 z M 30 63 L 30 66 L 33 66 L 33 63 L 30 63 z M 42 63 L 42 66 L 45 66 L 45 63 L 42 63 z M 54 63 L 54 66 L 57 66 L 57 63 L 54 63 z M 24 66 L 24 69 L 27 69 L 27 66 L 24 66 z M 36 66 L 36 69 L 39 69 L 39 66 L 36 66 z M 48 66 L 48 69 L 51 69 L 51 66 L 48 66 z M 30 69 L 30 72 L 33 72 L 33 69 L 30 69 z M 42 69 L 42 72 L 45 72 L 45 69 L 42 69 z M 54 69 L 54 72 L 57 72 L 57 69 L 54 69 z M 12 72 L 12 75 L 15 75 L 15 72 L 12 72 z M 24 72 L 24 75 L 27 75 L 27 72 L 24 72 z M 36 72 L 36 75 L 39 75 L 39 72 L 36 72 z M 48 72 L 48 75 L 51 75 L 51 72 L 48 72 z "
     id="rect1054" />
  <path
     style="fill:#800000"
     d="M 93 57 L 93 60 L 90 60 L 90 63 L 87 63 L 87 66 L 84 66 L 84 69 L 81 69 L 81 72 L 78 72 L 78 75 L 75 75 L 75 78 L 72 78 L 72 75 L 69 75 L 69 72 L 66 72 L 66 75 L 63 75 L 63 78 L 66 78 L 66 81 L 69 81 L 69 84 L 72 84 L 72 87 L 75 87 L 75 84 L 78 84 L 78 81 L 81 81 L 81 78 L 84 78 L 84 75 L 87 75 L 87 72 L 90 72 L 90 69 L 93 69 L 93 66 L 96 66 L 96 63 L 96 60 L 96 57 L 93 57 z "
     id="rect1234" />
  <path
     style="fill:#808080"
     d="M 6 18 L 6 21 L 6 24 L 6 27 L 6 30 L 6 33 L 6 36 L 6 39 L 6 42 L 6 45 L 6 48 L 6 51 L 6 54 L 6 57 L 6 60 L 6 63 L 6 66 L 6 69 L 6 72 L 6 75 L 6 78 L 9 78 L 12 78 L 15 78 L 18 78 L 21 78 L 24 78 L 27 78 L 30 78 L 33 78 L 36 78 L 39 78 L 42 78 L 45 78 L 48 78 L 51 78 L 54 78 L 57 78 L 57 81 L 57 84 L 57 87 L 57 90 L 57 93 L 60 93 L 60 90 L 60 87 L 60 84 L 60 81 L 60 78 L 60 75 L 60 72 L 60 69 L 60 66 L 63 66 L 66 66 L 69 66 L 72 66 L 75 66 L 78 66 L 81 66 L 84 66 L 87 66 L 87 63 L 87 60 L 87 57 L 87 54 L 87 51 L 87 48 L 87 45 L 87 42 L 87 39 L 87 36 L 87 33 L 87 30 L 87 27 L 87 24 L 87 21 L 87 18 L 84 18 L 81 18 L 78 18 L 75 18 L 72 18 L 69 18 L 66 18 L 63 18 L 60 18 L 57 18 L 54 18 L 51 18 L 48 18 L 45 18 L 42 18 L 39 18 L 36 18 L 33 18 L 30 18 L 27 18 L 24 18 L 21 18 L 18 18 L 15 18 L 12 18 L 9 18 L 6 18 z M 9 21 L 12 21 L 15 21 L 18 21 L 21 21 L 24 21 L 27 21 L 30 21 L 33 21 L 36 21 L 39 21 L 42 21 L 45 21 L 48 21 L 51 21 L 54 21 L 57 21 L 60 21 L 63 21 L 66 21 L 69 21 L 72 21 L 75 21 L 78 21 L 81 21 L 84 21 L 84 24 L 81 24 L 81 27 L 84 27 L 84 30 L 84 33 L 84 36 L 84 39 L 84 42 L 84 45 L 84 48 L 84 51 L 84 54 L 84 57 L 84 60 L 84 63 L 81 63 L 78 63 L 75 63 L 72 63 L 69 63 L 66 63 L 63 63 L 60 63 L 57 63 L 57 66 L 57 69 L 57 72 L 57 75 L 54 75 L 51 75 L 48 75 L 45 75 L 42 75 L 39 75 L 36 75 L 33 75 L 30 75 L 27 75 L 24 75 L 21 75 L 18 75 L 15 75 L 12 75 L 9 75 L 9 72 L 9 69 L 9 66 L 9 63 L 9 60 L 9 57 L 9 54 L 9 51 L 9 48 L 9 45 L 9 42 L 9 39 L 9 36 L 9 33 L 9 30 L 9 27 L 12 27 L 12 24 L 9 24 L 9 21 z M 12 27 L 12 30 L 15 30 L 15 27 L 12 27 z M 15 30 L 15 33 L 18 33 L 18 30 L 15 30 z M 18 33 L 18 36 L 21 36 L 21 33 L 18 33 z M 21 36 L 21 39 L 24 39 L 24 36 L 21 36 z M 24 39 L 24 42 L 27 42 L 27 39 L 24 39 z M 27 42 L 27 45 L 30 45 L 30 42 L 27 42 z M 30 45 L 30 48 L 33 48 L 33 45 L 30 45 z M 33 48 L 33 51 L 36 51 L 36 48 L 33 48 z M 36 51 L 36 54 L 39 54 L 39 51 L 36 51 z M 39 54 L 39 57 L 42 57 L 45 57 L 48 57 L 51 57 L 54 57 L 54 54 L 51 54 L 48 54 L 45 54 L 42 54 L 39 54 z M 54 54 L 57 54 L 57 51 L 54 51 L 54 54 z M 57 51 L 60 51 L 60 48 L 57 48 L 57 51 z M 60 48 L 63 48 L 63 45 L 60 45 L 60 48 z M 63 45 L 66 45 L 66 42 L 63 42 L 63 45 z M 66 42 L 69 42 L 69 39 L 66 39 L 66 42 z M 69 39 L 72 39 L 72 36 L 69 36 L 69 39 z M 72 36 L 75 36 L 75 33 L 72 33 L 72 36 z M 75 33 L 78 33 L 78 30 L 75 30 L 75 33 z M 78 30 L 81 30 L 81 27 L 78 27 L 78 30 z "
     id="rect1272" />
  <path
     style="fill:#ffffff"
     d="M 9 21 L 9 24 L 12 24 L 12 27 L 15 27 L 15 30 L 18 30 L 18 33 L 21 33 L 21 36 L 24 36 L 24 39 L 27 39 L 27 42 L 30 42 L 30 45 L 33 45 L 33 48 L 36 48 L 39 48 L 39 51 L 39 54 L 42 54 L 45 54 L 48 54 L 51 54 L 54 54 L 54 51 L 57 51 L 57 48 L 54 48 L 54 45 L 57 45 L 57 48 L 60 48 L 60 45 L 60 42 L 63 42 L 66 42 L 66 39 L 69 39 L 69 36 L 66 36 L 66 33 L 69 33 L 69 36 L 72 36 L 72 33 L 72 30 L 75 30 L 78 30 L 78 27 L 81 27 L 81 24 L 78 24 L 78 21 L 75 21 L 72 21 L 69 21 L 66 21 L 63 21 L 60 21 L 57 21 L 54 21 L 51 21 L 48 21 L 45 21 L 42 21 L 39 21 L 36 21 L 33 21 L 30 21 L 27 21 L 24 21 L 21 21 L 18 21 L 15 21 L 12 21 L 9 21 z M 81 24 L 84 24 L 84 21 L 81 21 L 81 24 z M 72 24 L 75 24 L 75 27 L 72 27 L 72 24 z M 9 30 L 9 33 L 9 36 L 9 39 L 9 42 L 9 45 L 9 48 L 9 51 L 9 54 L 9 57 L 9 60 L 9 63 L 9 66 L 12 66 L 12 63 L 12 60 L 15 60 L 18 60 L 18 57 L 21 57 L 21 54 L 18 54 L 18 51 L 21 51 L 21 54 L 24 54 L 24 51 L 24 48 L 27 48 L 27 45 L 24 45 L 24 42 L 21 42 L 21 39 L 18 39 L 18 36 L 15 36 L 15 33 L 12 33 L 12 30 L 9 30 z M 21 57 L 21 60 L 18 60 L 18 63 L 21 63 L 21 66 L 18 66 L 18 63 L 15 63 L 15 66 L 12 66 L 12 69 L 9 69 L 9 72 L 9 75 L 12 75 L 12 72 L 15 72 L 15 75 L 18 75 L 21 75 L 24 75 L 24 72 L 27 72 L 27 75 L 30 75 L 33 75 L 36 75 L 36 72 L 39 72 L 39 75 L 42 75 L 45 75 L 48 75 L 48 72 L 51 72 L 51 75 L 54 75 L 57 75 L 57 72 L 54 72 L 54 69 L 57 69 L 57 66 L 54 66 L 54 63 L 57 63 L 60 63 L 60 60 L 63 60 L 63 63 L 66 63 L 69 63 L 72 63 L 72 60 L 72 57 L 69 57 L 69 60 L 66 60 L 66 57 L 69 57 L 69 54 L 66 54 L 66 51 L 63 51 L 63 54 L 63 57 L 60 57 L 57 57 L 57 60 L 54 60 L 51 60 L 51 63 L 48 63 L 48 60 L 45 60 L 42 60 L 39 60 L 39 63 L 36 63 L 36 60 L 39 60 L 39 57 L 36 57 L 36 54 L 33 54 L 33 51 L 30 51 L 27 51 L 27 54 L 27 57 L 24 57 L 21 57 z M 66 51 L 69 51 L 69 54 L 72 54 L 75 54 L 75 57 L 75 60 L 78 60 L 78 57 L 81 57 L 81 60 L 78 60 L 78 63 L 81 63 L 84 63 L 84 60 L 84 57 L 84 54 L 84 51 L 84 48 L 84 45 L 84 42 L 84 39 L 84 36 L 84 33 L 84 30 L 81 30 L 81 33 L 81 36 L 78 36 L 75 36 L 75 39 L 72 39 L 72 42 L 75 42 L 75 45 L 72 45 L 72 42 L 69 42 L 69 45 L 69 48 L 66 48 L 66 51 z M 60 36 L 63 36 L 63 39 L 60 39 L 60 36 z M 78 39 L 81 39 L 81 42 L 78 42 L 78 39 z M 78 45 L 81 45 L 81 48 L 78 48 L 78 45 z M 42 48 L 45 48 L 45 51 L 42 51 L 42 48 z M 48 48 L 51 48 L 51 51 L 48 51 L 48 48 z M 72 48 L 75 48 L 75 51 L 72 51 L 72 48 z M 78 51 L 81 51 L 81 54 L 78 54 L 78 51 z M 30 57 L 33 57 L 33 60 L 30 60 L 30 57 z M 30 63 L 33 63 L 33 66 L 30 66 L 30 63 z M 42 63 L 45 63 L 45 66 L 42 66 L 42 63 z M 24 66 L 27 66 L 27 69 L 24 69 L 24 66 z M 36 66 L 39 66 L 39 69 L 36 69 L 36 66 z M 48 66 L 51 66 L 51 69 L 48 69 L 48 66 z M 60 66 L 60 69 L 60 72 L 60 75 L 60 78 L 60 81 L 60 84 L 60 87 L 63 87 L 63 84 L 66 84 L 66 81 L 66 78 L 63 78 L 63 75 L 66 75 L 66 72 L 69 72 L 69 75 L 72 75 L 72 78 L 75 78 L 75 75 L 78 75 L 78 72 L 81 72 L 81 69 L 84 69 L 84 66 L 81 66 L 78 66 L 75 66 L 72 66 L 69 66 L 66 66 L 63 66 L 60 66 z M 66 84 L 66 87 L 69 87 L 69 84 L 66 84 z M 66 87 L 63 87 L 63 90 L 66 90 L 66 87 z M 63 90 L 60 90 L 60 93 L 63 93 L 63 90 z M 30 69 L 33 69 L 33 72 L 30 72 L 30 69 z M 42 69 L 45 69 L 45 72 L 42 72 L 42 69 z "
     id="rect1274" />
  <path
     style="fill:#c0c0c0"
     d="M 9 27 L 9 30 L 12 30 L 12 27 L 9 27 z M 12 30 L 12 33 L 15 33 L 15 30 L 12 30 z M 15 33 L 15 36 L 18 36 L 18 33 L 15 33 z M 18 36 L 18 39 L 21 39 L 21 36 L 18 36 z M 21 39 L 21 42 L 24 42 L 24 39 L 21 39 z M 24 42 L 24 45 L 27 45 L 27 42 L 24 42 z M 27 45 L 27 48 L 27 51 L 30 51 L 33 51 L 33 48 L 30 48 L 30 45 L 27 45 z M 33 51 L 33 54 L 36 54 L 36 51 L 33 51 z M 36 54 L 36 57 L 39 57 L 39 54 L 36 54 z M 39 57 L 39 60 L 42 60 L 45 60 L 48 60 L 51 60 L 54 60 L 54 57 L 51 57 L 48 57 L 45 57 L 42 57 L 39 57 z M 54 57 L 57 57 L 60 57 L 60 54 L 63 54 L 63 51 L 66 51 L 66 48 L 66 45 L 63 45 L 63 48 L 60 48 L 60 51 L 57 51 L 57 54 L 54 54 L 54 57 z M 66 45 L 69 45 L 69 42 L 66 42 L 66 45 z M 69 42 L 72 42 L 72 39 L 69 39 L 69 42 z M 72 39 L 75 39 L 75 36 L 72 36 L 72 39 z M 75 36 L 78 36 L 78 33 L 75 33 L 75 36 z M 78 33 L 81 33 L 81 30 L 78 30 L 78 33 z M 81 30 L 84 30 L 84 27 L 81 27 L 81 30 z M 66 51 L 66 54 L 69 54 L 69 51 L 66 51 z M 69 54 L 69 57 L 72 57 L 72 54 L 69 54 z M 72 57 L 72 60 L 75 60 L 75 57 L 72 57 z M 75 60 L 75 63 L 78 63 L 78 60 L 75 60 z M 27 51 L 24 51 L 24 54 L 27 54 L 27 51 z M 24 54 L 21 54 L 21 57 L 24 57 L 24 54 z M 21 57 L 18 57 L 18 60 L 21 60 L 21 57 z M 18 60 L 15 60 L 15 63 L 18 63 L 18 60 z M 15 63 L 12 63 L 12 66 L 15 66 L 15 63 z M 12 66 L 9 66 L 9 69 L 12 69 L 12 66 z M 87 72 L 87 75 L 84 75 L 84 78 L 81 78 L 81 81 L 78 81 L 78 84 L 75 84 L 75 87 L 72 87 L 72 84 L 69 84 L 69 87 L 66 87 L 66 90 L 63 90 L 63 93 L 66 93 L 69 93 L 72 93 L 75 93 L 78 93 L 81 93 L 84 93 L 87 93 L 90 93 L 90 90 L 90 87 L 90 84 L 90 81 L 90 78 L 90 75 L 90 72 L 87 72 z M 63 90 L 63 87 L 60 87 L 60 90 L 63 90 z M 63 87 L 66 87 L 66 84 L 63 84 L 63 87 z M 66 84 L 69 84 L 69 81 L 66 81 L 66 84 z "
     id="rect1292" />
  <path
     style="fill:#000000"
     d="M 87 18 L 87 21 L 87 24 L 87 27 L 87 30 L 87 33 L 87 36 L 87 39 L 87 42 L 87 45 L 87 48 L 87 51 L 87 54 L 87 57 L 87 60 L 87 63 L 90 63 L 90 60 L 90 57 L 90 54 L 90 51 L 90 48 L 90 45 L 90 42 L 90 39 L 90 36 L 90 33 L 90 30 L 90 27 L 90 24 L 90 21 L 90 18 L 87 18 z M 90 69 L 90 72 L 90 75 L 90 78 L 90 81 L 90 84 L 90 87 L 90 90 L 90 93 L 87 93 L 84 93 L 81 93 L 78 93 L 75 93 L 72 93 L 69 93 L 66 93 L 63 93 L 60 93 L 57 93 L 57 96 L 60 96 L 63 96 L 66 96 L 69 96 L 72 96 L 75 96 L 78 96 L 81 96 L 84 96 L 87 96 L 90 96 L 93 96 L 93 93 L 93 90 L 93 87 L 93 84 L 93 81 L 93 78 L 93 75 L 93 72 L 93 69 L 90 69 z M 6 78 L 6 81 L 9 81 L 12 81 L 15 81 L 18 81 L 21 81 L 24 81 L 27 81 L 30 81 L 33 81 L 36 81 L 39 81 L 42 81 L 45 81 L 48 81 L 51 81 L 54 81 L 57 81 L 57 78 L 54 78 L 51 78 L 48 78 L 45 78 L 42 78 L 39 78 L 36 78 L 33 78 L 30 78 L 27 78 L 24 78 L 21 78 L 18 78 L 15 78 L 12 78 L 9 78 L 6 78 z "
     id="rect1318" />
</svg>
