<?xml version="1.0" encoding="UTF-8" standalone="no"?>
<svg
   xmlns:dc="http://purl.org/dc/elements/1.1/"
   xmlns:cc="http://creativecommons.org/ns#"
   xmlns:rdf="http://www.w3.org/1999/02/22-rdf-syntax-ns#"
   xmlns:svg="http://www.w3.org/2000/svg"
   xmlns="http://www.w3.org/2000/svg"
   xmlns:sodipodi="http://sodipodi.sourceforge.net/DTD/sodipodi-0.dtd"
   xmlns:inkscape="http://www.inkscape.org/namespaces/inkscape"
   id="svg284"
   width="96px"
   version="1.1"
   height="96px"
   sodipodi:docname="chicago95_tmp_file.svg"
   inkscape:version="0.92.4 (5da689c313, 2019-01-14)">
  <sodipodi:namedview
     pagecolor="#ffffff"
     bordercolor="#666666"
     borderopacity="1"
     objecttolerance="10"
     gridtolerance="10"
     guidetolerance="10"
     inkscape:pageopacity="0"
     inkscape:pageshadow="2"
     inkscape:window-width="640"
     inkscape:window-height="480"
     id="namedview145"
     showgrid="false"
     inkscape:zoom="2.4583333"
     inkscape:cx="47.999999"
     inkscape:cy="47.999999"
     inkscape:window-x="0"
     inkscape:window-y="0"
     inkscape:window-maximized="0"
     inkscape:current-layer="svg284" />
  <metadata
     id="metadata288">
    <rdf:RDF>
      <cc:Work
         rdf:about="">
        <dc:format>image/svg+xml</dc:format>
        <dc:type
           rdf:resource="http://purl.org/dc/dcmitype/StillImage" />
      </cc:Work>
    </rdf:RDF>
  </metadata>
  <defs
     id="defs2" />
  <path
     style="fill:#c0c0c0"
     d="M 18 27 L 18 30 L 21 30 L 21 27 L 18 27 z M 18 30 L 15 30 L 15 33 L 18 33 L 18 30 z M 78 27 L 78 30 L 81 30 L 81 27 L 78 27 z M 81 30 L 81 33 L 84 33 L 84 30 L 81 30 z M 15 60 L 15 63 L 18 63 L 18 60 L 15 60 z M 18 63 L 18 66 L 21 66 L 21 63 L 18 63 z M 30 60 L 30 63 L 33 63 L 33 60 L 30 60 z M 81 60 L 81 63 L 84 63 L 84 60 L 81 60 z M 81 63 L 78 63 L 78 66 L 81 66 L 81 63 z "
     id="rect262" />
  <path
     style="fill:#008000"
     d="M 21 27 L 21 30 L 18 30 L 18 33 L 15 33 L 15 36 L 15 39 L 15 42 L 15 45 L 15 48 L 15 51 L 15 54 L 15 57 L 15 60 L 18 60 L 18 63 L 21 63 L 21 66 L 24 66 L 27 66 L 30 66 L 33 66 L 33 63 L 30 63 L 30 60 L 27 60 L 24 60 L 21 60 L 21 57 L 21 54 L 21 51 L 21 48 L 21 45 L 21 42 L 21 39 L 21 36 L 21 33 L 24 33 L 27 33 L 30 33 L 33 33 L 36 33 L 39 33 L 42 33 L 45 33 L 48 33 L 51 33 L 54 33 L 57 33 L 60 33 L 63 33 L 66 33 L 69 33 L 72 33 L 75 33 L 78 33 L 78 36 L 78 39 L 78 42 L 78 45 L 78 48 L 78 51 L 78 54 L 78 57 L 78 60 L 75 60 L 72 60 L 69 60 L 66 60 L 63 60 L 60 60 L 57 60 L 54 60 L 54 57 L 54 54 L 54 51 L 54 48 L 51 48 L 51 51 L 48 51 L 48 54 L 45 54 L 45 57 L 42 57 L 42 60 L 39 60 L 39 63 L 39 66 L 42 66 L 42 69 L 45 69 L 45 72 L 48 72 L 48 75 L 51 75 L 51 78 L 54 78 L 54 75 L 54 72 L 54 69 L 54 66 L 57 66 L 60 66 L 63 66 L 66 66 L 69 66 L 72 66 L 75 66 L 78 66 L 78 63 L 81 63 L 81 60 L 84 60 L 84 57 L 84 54 L 84 51 L 84 48 L 84 45 L 84 42 L 84 39 L 84 36 L 84 33 L 81 33 L 81 30 L 78 30 L 78 27 L 75 27 L 72 27 L 69 27 L 66 27 L 63 27 L 60 27 L 57 27 L 54 27 L 51 27 L 48 27 L 45 27 L 42 27 L 39 27 L 36 27 L 33 27 L 30 27 L 27 27 L 24 27 L 21 27 z "
     id="rect282" />
</svg>
