<?xml version="1.0" encoding="UTF-8" standalone="no"?>
<svg
   xmlns:dc="http://purl.org/dc/elements/1.1/"
   xmlns:cc="http://creativecommons.org/ns#"
   xmlns:rdf="http://www.w3.org/1999/02/22-rdf-syntax-ns#"
   xmlns:svg="http://www.w3.org/2000/svg"
   xmlns="http://www.w3.org/2000/svg"
   xmlns:sodipodi="http://sodipodi.sourceforge.net/DTD/sodipodi-0.dtd"
   xmlns:inkscape="http://www.inkscape.org/namespaces/inkscape"
   id="svg1404"
   width="96px"
   version="1.1"
   height="96px"
   sodipodi:docname="chicago95_tmp_file.svg"
   inkscape:version="0.92.4 (5da689c313, 2019-01-14)">
  <sodipodi:namedview
     pagecolor="#ffffff"
     bordercolor="#666666"
     borderopacity="1"
     objecttolerance="10"
     gridtolerance="10"
     guidetolerance="10"
     inkscape:pageopacity="0"
     inkscape:pageshadow="2"
     inkscape:window-width="640"
     inkscape:window-height="480"
     id="namedview705"
     showgrid="false"
     inkscape:zoom="2.4583333"
     inkscape:cx="47.999994"
     inkscape:cy="47.999994"
     inkscape:window-x="0"
     inkscape:window-y="0"
     inkscape:window-maximized="0"
     inkscape:current-layer="svg1404" />
  <metadata
     id="metadata1408">
    <rdf:RDF>
      <cc:Work
         rdf:about="">
        <dc:format>image/svg+xml</dc:format>
        <dc:type
           rdf:resource="http://purl.org/dc/dcmitype/StillImage" />
      </cc:Work>
    </rdf:RDF>
  </metadata>
  <defs
     id="defs2" />
  <path
     style="fill:#ff0000"
     d="M 57 3 L 57 6 L 54 6 L 51 6 L 51 9 L 48 9 L 48 12 L 45 12 L 45 15 L 45 18 L 42 18 L 42 21 L 42 24 L 42 27 L 42 30 L 42 33 L 42 36 L 45 36 L 45 39 L 45 42 L 48 42 L 48 45 L 51 45 L 51 48 L 54 48 L 57 48 L 57 51 L 60 51 L 63 51 L 66 51 L 69 51 L 72 51 L 75 51 L 75 48 L 78 48 L 81 48 L 81 45 L 84 45 L 84 42 L 87 42 L 87 39 L 87 36 L 90 36 L 90 33 L 90 30 L 90 27 L 90 24 L 90 21 L 90 18 L 87 18 L 87 15 L 87 12 L 84 12 L 84 9 L 81 9 L 81 6 L 78 6 L 75 6 L 75 3 L 72 3 L 69 3 L 66 3 L 63 3 L 60 3 L 57 3 z M 51 12 L 54 12 L 57 12 L 57 15 L 60 15 L 60 18 L 63 18 L 63 21 L 66 21 L 69 21 L 69 18 L 72 18 L 72 15 L 75 15 L 75 12 L 78 12 L 81 12 L 81 15 L 81 18 L 78 18 L 78 21 L 75 21 L 75 24 L 72 24 L 72 27 L 72 30 L 75 30 L 75 33 L 78 33 L 78 36 L 81 36 L 81 39 L 81 42 L 78 42 L 75 42 L 75 39 L 72 39 L 72 36 L 69 36 L 69 33 L 66 33 L 63 33 L 63 36 L 60 36 L 60 39 L 57 39 L 57 42 L 54 42 L 51 42 L 51 39 L 51 36 L 54 36 L 54 33 L 57 33 L 57 30 L 60 30 L 60 27 L 60 24 L 57 24 L 57 21 L 54 21 L 54 18 L 51 18 L 51 15 L 51 12 z "
     id="rect736" />
  <path
     style="fill:#ffffff"
     d="M 51 12 L 51 15 L 51 18 L 54 18 L 54 21 L 57 21 L 57 24 L 60 24 L 60 27 L 60 30 L 57 30 L 57 33 L 54 33 L 54 36 L 51 36 L 51 39 L 51 42 L 54 42 L 57 42 L 57 39 L 60 39 L 60 36 L 63 36 L 63 33 L 66 33 L 69 33 L 69 36 L 72 36 L 72 39 L 75 39 L 75 42 L 78 42 L 81 42 L 81 39 L 81 36 L 78 36 L 78 33 L 75 33 L 75 30 L 72 30 L 72 27 L 72 24 L 75 24 L 75 21 L 78 21 L 78 18 L 81 18 L 81 15 L 81 12 L 78 12 L 75 12 L 75 15 L 72 15 L 72 18 L 69 18 L 69 21 L 66 21 L 63 21 L 63 18 L 60 18 L 60 15 L 57 15 L 57 12 L 54 12 L 51 12 z M 12 48 L 12 51 L 15 51 L 18 51 L 21 51 L 24 51 L 27 51 L 30 51 L 33 51 L 36 51 L 39 51 L 42 51 L 45 51 L 48 51 L 48 48 L 45 48 L 42 48 L 39 48 L 36 48 L 33 48 L 30 48 L 27 48 L 24 48 L 21 48 L 18 48 L 15 48 L 12 48 z M 12 51 L 9 51 L 9 54 L 9 57 L 9 60 L 9 63 L 9 66 L 9 69 L 9 72 L 9 75 L 9 78 L 9 81 L 9 84 L 9 87 L 9 90 L 12 90 L 12 87 L 12 84 L 12 81 L 12 78 L 12 75 L 12 72 L 12 69 L 12 66 L 12 63 L 12 60 L 12 57 L 12 54 L 12 51 z "
     id="rect1282" />
  <path
     style="fill:#ffff00"
     d="M 33 9 L 33 12 L 36 12 L 39 12 L 42 12 L 45 12 L 45 9 L 42 9 L 39 9 L 36 9 L 33 9 z M 33 12 L 30 12 L 27 12 L 27 15 L 30 15 L 33 15 L 33 12 z M 27 15 L 24 15 L 24 18 L 27 18 L 27 15 z M 24 18 L 21 18 L 21 21 L 21 24 L 21 27 L 21 30 L 21 33 L 21 36 L 21 39 L 21 42 L 24 42 L 24 39 L 24 36 L 24 33 L 24 30 L 24 27 L 24 24 L 24 21 L 24 18 z M 12 51 L 12 54 L 12 57 L 12 60 L 12 63 L 12 66 L 12 69 L 12 72 L 12 75 L 12 78 L 12 81 L 12 84 L 12 87 L 12 90 L 15 90 L 18 90 L 21 90 L 24 90 L 27 90 L 30 90 L 33 90 L 36 90 L 39 90 L 42 90 L 45 90 L 48 90 L 51 90 L 54 90 L 57 90 L 60 90 L 60 87 L 60 84 L 60 81 L 60 78 L 60 75 L 60 72 L 60 69 L 60 66 L 60 63 L 60 60 L 60 57 L 57 57 L 57 60 L 54 60 L 51 60 L 48 60 L 45 60 L 42 60 L 39 60 L 36 60 L 33 60 L 30 60 L 27 60 L 24 60 L 21 60 L 18 60 L 15 60 L 15 57 L 18 57 L 21 57 L 24 57 L 27 57 L 30 57 L 33 57 L 36 57 L 39 57 L 42 57 L 45 57 L 48 57 L 51 57 L 54 57 L 57 57 L 57 54 L 54 54 L 51 54 L 51 51 L 48 51 L 45 51 L 42 51 L 39 51 L 36 51 L 33 51 L 30 51 L 27 51 L 24 51 L 21 51 L 18 51 L 15 51 L 12 51 z M 15 63 L 18 63 L 21 63 L 24 63 L 27 63 L 30 63 L 33 63 L 36 63 L 39 63 L 42 63 L 45 63 L 48 63 L 51 63 L 54 63 L 57 63 L 57 66 L 54 66 L 51 66 L 48 66 L 45 66 L 42 66 L 39 66 L 36 66 L 33 66 L 30 66 L 27 66 L 24 66 L 21 66 L 18 66 L 15 66 L 15 63 z M 15 69 L 18 69 L 21 69 L 24 69 L 27 69 L 30 69 L 33 69 L 36 69 L 39 69 L 42 69 L 45 69 L 48 69 L 51 69 L 54 69 L 57 69 L 57 72 L 54 72 L 51 72 L 48 72 L 45 72 L 42 72 L 39 72 L 36 72 L 33 72 L 30 72 L 27 72 L 24 72 L 21 72 L 18 72 L 15 72 L 15 69 z M 15 75 L 18 75 L 21 75 L 24 75 L 27 75 L 30 75 L 33 75 L 36 75 L 39 75 L 42 75 L 45 75 L 48 75 L 51 75 L 54 75 L 57 75 L 57 78 L 54 78 L 51 78 L 48 78 L 45 78 L 42 78 L 39 78 L 36 78 L 33 78 L 30 78 L 27 78 L 24 78 L 21 78 L 18 78 L 15 78 L 15 75 z M 15 81 L 18 81 L 21 81 L 24 81 L 27 81 L 30 81 L 33 81 L 36 81 L 39 81 L 42 81 L 45 81 L 48 81 L 51 81 L 54 81 L 57 81 L 57 84 L 54 84 L 51 84 L 48 84 L 45 84 L 42 84 L 39 84 L 36 84 L 33 84 L 30 84 L 27 84 L 24 84 L 21 84 L 18 84 L 15 84 L 15 81 z "
     id="rect1314" />
  <path
     style="fill:#c0c0c0"
     d="M 27 15 L 27 18 L 30 18 L 30 15 L 27 15 z M 27 18 L 24 18 L 24 21 L 27 21 L 27 18 z M 9 48 L 9 51 L 12 51 L 12 48 L 9 48 z M 15 57 L 15 60 L 18 60 L 21 60 L 24 60 L 27 60 L 30 60 L 33 60 L 36 60 L 39 60 L 42 60 L 45 60 L 48 60 L 51 60 L 54 60 L 57 60 L 57 57 L 54 57 L 51 57 L 48 57 L 45 57 L 42 57 L 39 57 L 36 57 L 33 57 L 30 57 L 27 57 L 24 57 L 21 57 L 18 57 L 15 57 z M 60 57 L 60 60 L 60 63 L 60 66 L 60 69 L 60 72 L 60 75 L 60 78 L 60 81 L 60 84 L 60 87 L 60 90 L 63 90 L 63 87 L 63 84 L 63 81 L 63 78 L 63 75 L 63 72 L 63 69 L 63 66 L 63 63 L 63 60 L 63 57 L 60 57 z M 15 63 L 15 66 L 18 66 L 21 66 L 24 66 L 27 66 L 30 66 L 33 66 L 36 66 L 39 66 L 42 66 L 45 66 L 48 66 L 51 66 L 54 66 L 57 66 L 57 63 L 54 63 L 51 63 L 48 63 L 45 63 L 42 63 L 39 63 L 36 63 L 33 63 L 30 63 L 27 63 L 24 63 L 21 63 L 18 63 L 15 63 z M 15 69 L 15 72 L 18 72 L 21 72 L 24 72 L 27 72 L 30 72 L 33 72 L 36 72 L 39 72 L 42 72 L 45 72 L 48 72 L 51 72 L 54 72 L 57 72 L 57 69 L 54 69 L 51 69 L 48 69 L 45 69 L 42 69 L 39 69 L 36 69 L 33 69 L 30 69 L 27 69 L 24 69 L 21 69 L 18 69 L 15 69 z M 15 75 L 15 78 L 18 78 L 21 78 L 24 78 L 27 78 L 30 78 L 33 78 L 36 78 L 39 78 L 42 78 L 45 78 L 48 78 L 51 78 L 54 78 L 57 78 L 57 75 L 54 75 L 51 75 L 48 75 L 45 75 L 42 75 L 39 75 L 36 75 L 33 75 L 30 75 L 27 75 L 24 75 L 21 75 L 18 75 L 15 75 z M 15 81 L 15 84 L 18 84 L 21 84 L 24 84 L 27 84 L 30 84 L 33 84 L 36 84 L 39 84 L 42 84 L 45 84 L 48 84 L 51 84 L 54 84 L 57 84 L 57 81 L 54 81 L 51 81 L 48 81 L 45 81 L 42 81 L 39 81 L 36 81 L 33 81 L 30 81 L 27 81 L 24 81 L 21 81 L 18 81 L 15 81 z "
     id="rect1316" />
  <path
     style="fill:#808000"
     d="M 33 6 L 33 9 L 36 9 L 39 9 L 42 9 L 45 9 L 45 6 L 42 6 L 39 6 L 36 6 L 33 6 z M 33 9 L 30 9 L 27 9 L 27 12 L 30 12 L 33 12 L 33 9 z M 33 12 L 33 15 L 36 15 L 39 15 L 42 15 L 42 12 L 39 12 L 36 12 L 33 12 z M 33 15 L 30 15 L 30 18 L 33 18 L 33 15 z M 30 18 L 27 18 L 27 21 L 30 21 L 30 18 z M 27 21 L 24 21 L 24 24 L 24 27 L 24 30 L 24 33 L 24 36 L 24 39 L 24 42 L 27 42 L 27 39 L 27 36 L 27 33 L 27 30 L 27 27 L 27 24 L 27 21 z M 27 12 L 24 12 L 24 15 L 27 15 L 27 12 z M 24 15 L 21 15 L 21 18 L 24 18 L 24 15 z M 21 18 L 18 18 L 18 21 L 18 24 L 18 27 L 18 30 L 18 33 L 18 36 L 15 36 L 15 39 L 18 39 L 18 42 L 21 42 L 21 39 L 21 36 L 21 33 L 21 30 L 21 27 L 21 24 L 21 21 L 21 18 z M 18 42 L 15 42 L 15 45 L 18 45 L 18 42 z M 18 45 L 18 48 L 21 48 L 21 45 L 18 45 z M 15 45 L 12 45 L 12 48 L 15 48 L 15 45 z M 12 45 L 12 42 L 9 42 L 9 45 L 12 45 z M 9 45 L 6 45 L 6 48 L 6 51 L 6 54 L 6 57 L 6 60 L 6 63 L 6 66 L 6 69 L 6 72 L 6 75 L 6 78 L 6 81 L 6 84 L 6 87 L 6 90 L 6 93 L 9 93 L 12 93 L 15 93 L 18 93 L 21 93 L 24 93 L 27 93 L 30 93 L 33 93 L 36 93 L 39 93 L 42 93 L 45 93 L 48 93 L 51 93 L 54 93 L 57 93 L 60 93 L 63 93 L 63 90 L 60 90 L 57 90 L 54 90 L 51 90 L 48 90 L 45 90 L 42 90 L 39 90 L 36 90 L 33 90 L 30 90 L 27 90 L 24 90 L 21 90 L 18 90 L 15 90 L 12 90 L 9 90 L 9 87 L 9 84 L 9 81 L 9 78 L 9 75 L 9 72 L 9 69 L 9 66 L 9 63 L 9 60 L 9 57 L 9 54 L 9 51 L 9 48 L 9 45 z M 12 42 L 15 42 L 15 39 L 12 39 L 12 42 z M 30 36 L 30 39 L 30 42 L 33 42 L 33 39 L 36 39 L 36 42 L 39 42 L 39 39 L 42 39 L 42 36 L 39 36 L 36 36 L 33 36 L 30 36 z M 39 42 L 39 45 L 42 45 L 42 42 L 39 42 z M 42 45 L 42 48 L 45 48 L 45 45 L 42 45 z M 39 45 L 36 45 L 36 48 L 39 48 L 39 45 z M 36 45 L 36 42 L 33 42 L 33 45 L 36 45 z M 33 45 L 30 45 L 30 48 L 33 48 L 33 45 z M 24 45 L 24 48 L 27 48 L 27 45 L 24 45 z M 66 57 L 66 60 L 69 60 L 69 57 L 66 57 z M 66 60 L 63 60 L 63 63 L 66 63 L 66 60 z M 66 63 L 66 66 L 69 66 L 69 63 L 66 63 z M 66 66 L 63 66 L 63 69 L 66 69 L 66 66 z M 66 69 L 66 72 L 69 72 L 69 69 L 66 69 z M 66 72 L 63 72 L 63 75 L 66 75 L 66 72 z M 66 75 L 66 78 L 69 78 L 69 75 L 66 75 z M 66 78 L 63 78 L 63 81 L 66 81 L 66 78 z M 66 81 L 66 84 L 69 84 L 69 81 L 66 81 z M 66 84 L 63 84 L 63 87 L 66 87 L 66 84 z M 66 87 L 66 90 L 69 90 L 69 87 L 66 87 z "
     id="rect1360" />
  <path
     style="fill:#808080"
     d="M 57 0 L 57 3 L 60 3 L 63 3 L 66 3 L 69 3 L 72 3 L 75 3 L 75 0 L 72 0 L 69 0 L 66 0 L 63 0 L 60 0 L 57 0 z M 75 3 L 75 6 L 78 6 L 81 6 L 81 3 L 78 3 L 75 3 z M 81 6 L 81 9 L 84 9 L 84 6 L 81 6 z M 84 9 L 84 12 L 87 12 L 87 9 L 84 9 z M 87 12 L 87 15 L 87 18 L 90 18 L 93 18 L 93 15 L 90 15 L 90 12 L 87 12 z M 93 18 L 93 21 L 93 24 L 93 27 L 93 30 L 93 33 L 93 36 L 96 36 L 96 33 L 96 30 L 96 27 L 96 24 L 96 21 L 96 18 L 93 18 z M 93 36 L 90 36 L 90 39 L 90 42 L 93 42 L 93 39 L 93 36 z M 90 42 L 87 42 L 87 45 L 90 45 L 90 42 z M 87 45 L 84 45 L 84 48 L 87 48 L 87 45 z M 84 48 L 81 48 L 81 51 L 84 51 L 84 48 z M 81 51 L 78 51 L 75 51 L 75 54 L 78 54 L 81 54 L 81 51 z M 75 54 L 72 54 L 69 54 L 66 54 L 63 54 L 60 54 L 57 54 L 57 57 L 60 57 L 63 57 L 63 60 L 66 60 L 66 57 L 69 57 L 72 57 L 75 57 L 75 54 z M 66 60 L 66 63 L 69 63 L 69 60 L 66 60 z M 66 63 L 63 63 L 63 66 L 66 66 L 66 63 z M 66 66 L 66 69 L 69 69 L 69 66 L 66 66 z M 66 69 L 63 69 L 63 72 L 66 72 L 66 69 z M 66 72 L 66 75 L 69 75 L 69 72 L 66 72 z M 66 75 L 63 75 L 63 78 L 66 78 L 66 75 z M 66 78 L 66 81 L 69 81 L 69 78 L 66 78 z M 66 81 L 63 81 L 63 84 L 66 84 L 66 81 z M 66 84 L 66 87 L 69 87 L 69 84 L 66 84 z M 66 87 L 63 87 L 63 90 L 63 93 L 66 93 L 66 90 L 66 87 z M 57 54 L 57 51 L 54 51 L 51 51 L 51 54 L 54 54 L 57 54 z M 51 51 L 51 48 L 48 48 L 48 51 L 51 51 z M 48 48 L 48 45 L 45 45 L 45 48 L 48 48 z M 45 45 L 45 42 L 45 39 L 45 36 L 42 36 L 42 39 L 39 39 L 39 42 L 42 42 L 42 45 L 45 45 z M 42 45 L 39 45 L 39 48 L 42 48 L 42 45 z M 39 45 L 39 42 L 36 42 L 36 45 L 39 45 z M 36 45 L 33 45 L 33 48 L 36 48 L 36 45 z M 33 45 L 33 42 L 30 42 L 30 45 L 33 45 z M 30 45 L 27 45 L 27 48 L 30 48 L 30 45 z M 33 42 L 36 42 L 36 39 L 33 39 L 33 42 z M 42 36 L 42 33 L 42 30 L 42 27 L 42 24 L 42 21 L 42 18 L 39 18 L 39 21 L 39 24 L 39 27 L 39 30 L 39 33 L 39 36 L 42 36 z M 42 18 L 45 18 L 45 15 L 45 12 L 42 12 L 42 15 L 42 18 z M 45 12 L 48 12 L 48 9 L 45 9 L 45 12 z M 48 9 L 51 9 L 51 6 L 48 6 L 48 9 z M 51 6 L 54 6 L 57 6 L 57 3 L 54 3 L 51 3 L 51 6 z M 15 39 L 15 42 L 18 42 L 18 39 L 15 39 z M 15 42 L 12 42 L 12 45 L 15 45 L 15 42 z M 15 45 L 15 48 L 18 48 L 18 45 L 15 45 z M 12 45 L 9 45 L 9 48 L 12 48 L 12 45 z M 21 45 L 21 48 L 24 48 L 24 45 L 21 45 z "
     id="rect1362" />
  <path
     style="fill:#000000"
     d="M 33 15 L 33 18 L 36 18 L 39 18 L 42 18 L 42 15 L 39 15 L 36 15 L 33 15 z M 33 18 L 30 18 L 30 21 L 33 21 L 33 18 z M 30 21 L 27 21 L 27 24 L 27 27 L 27 30 L 27 33 L 27 36 L 27 39 L 27 42 L 24 42 L 21 42 L 18 42 L 18 45 L 21 45 L 24 45 L 27 45 L 30 45 L 30 42 L 30 39 L 30 36 L 30 33 L 30 30 L 30 27 L 30 24 L 30 21 z M 90 18 L 90 21 L 90 24 L 90 27 L 90 30 L 90 33 L 90 36 L 93 36 L 93 33 L 93 30 L 93 27 L 93 24 L 93 21 L 93 18 L 90 18 z M 90 36 L 87 36 L 87 39 L 87 42 L 90 42 L 90 39 L 90 36 z M 87 42 L 84 42 L 84 45 L 87 45 L 87 42 z M 84 45 L 81 45 L 81 48 L 84 48 L 84 45 z M 81 48 L 78 48 L 75 48 L 75 51 L 78 51 L 81 51 L 81 48 z M 75 51 L 72 51 L 69 51 L 66 51 L 63 51 L 60 51 L 57 51 L 57 54 L 60 54 L 63 54 L 66 54 L 69 54 L 72 54 L 75 54 L 75 51 z M 57 51 L 57 48 L 54 48 L 51 48 L 51 51 L 54 51 L 57 51 z M 51 48 L 51 45 L 48 45 L 48 48 L 51 48 z M 48 45 L 48 42 L 45 42 L 45 45 L 48 45 z M 69 57 L 69 60 L 69 63 L 69 66 L 69 69 L 69 72 L 69 75 L 69 78 L 69 81 L 69 84 L 69 87 L 69 90 L 72 90 L 72 87 L 72 84 L 72 81 L 72 78 L 72 75 L 72 72 L 72 69 L 72 66 L 72 63 L 72 60 L 72 57 L 69 57 z M 69 90 L 66 90 L 66 93 L 69 93 L 69 90 z M 66 93 L 63 93 L 60 93 L 57 93 L 54 93 L 51 93 L 48 93 L 45 93 L 42 93 L 39 93 L 36 93 L 33 93 L 30 93 L 27 93 L 24 93 L 21 93 L 18 93 L 15 93 L 12 93 L 9 93 L 9 96 L 12 96 L 15 96 L 18 96 L 21 96 L 24 96 L 27 96 L 30 96 L 33 96 L 36 96 L 39 96 L 42 96 L 45 96 L 48 96 L 51 96 L 54 96 L 57 96 L 60 96 L 63 96 L 66 96 L 66 93 z "
     id="rect1402" />
</svg>
