<?xml version="1.0" encoding="UTF-8" standalone="no"?>
<svg
   xmlns:dc="http://purl.org/dc/elements/1.1/"
   xmlns:cc="http://creativecommons.org/ns#"
   xmlns:rdf="http://www.w3.org/1999/02/22-rdf-syntax-ns#"
   xmlns:svg="http://www.w3.org/2000/svg"
   xmlns="http://www.w3.org/2000/svg"
   xmlns:sodipodi="http://sodipodi.sourceforge.net/DTD/sodipodi-0.dtd"
   xmlns:inkscape="http://www.inkscape.org/namespaces/inkscape"
   id="svg1026"
   width="96px"
   version="1.1"
   height="96px"
   sodipodi:docname="chicago95_tmp_file.svg"
   inkscape:version="0.92.4 (5da689c313, 2019-01-14)">
  <sodipodi:namedview
     pagecolor="#ffffff"
     bordercolor="#666666"
     borderopacity="1"
     objecttolerance="10"
     gridtolerance="10"
     guidetolerance="10"
     inkscape:pageopacity="0"
     inkscape:pageshadow="2"
     inkscape:window-width="640"
     inkscape:window-height="480"
     id="namedview516"
     showgrid="false"
     inkscape:zoom="2.4583333"
     inkscape:cx="47.999995"
     inkscape:cy="47.999995"
     inkscape:window-x="0"
     inkscape:window-y="0"
     inkscape:window-maximized="0"
     inkscape:current-layer="svg1026" />
  <metadata
     id="metadata1030">
    <rdf:RDF>
      <cc:Work
         rdf:about="">
        <dc:format>image/svg+xml</dc:format>
        <dc:type
           rdf:resource="http://purl.org/dc/dcmitype/StillImage" />
      </cc:Work>
    </rdf:RDF>
  </metadata>
  <defs
     id="defs2" />
  <path
     style="fill:#ffffff"
     d="M 30 45 L 30 48 L 33 48 L 36 48 L 39 48 L 42 48 L 45 48 L 48 48 L 51 48 L 54 48 L 57 48 L 60 48 L 63 48 L 66 48 L 69 48 L 72 48 L 75 48 L 75 45 L 72 45 L 69 45 L 66 45 L 63 45 L 60 45 L 57 45 L 54 45 L 51 45 L 48 45 L 45 45 L 42 45 L 39 45 L 36 45 L 33 45 L 30 45 z M 75 48 L 75 51 L 78 51 L 78 48 L 75 48 z M 30 48 L 27 48 L 27 51 L 27 54 L 27 57 L 27 60 L 27 63 L 27 66 L 27 69 L 27 72 L 27 75 L 27 78 L 27 81 L 27 84 L 27 87 L 30 87 L 30 84 L 30 81 L 30 78 L 30 75 L 30 72 L 30 69 L 30 66 L 30 63 L 30 60 L 30 57 L 30 54 L 30 51 L 30 48 z "
     id="rect904" />
  <path
     style="fill:#ffff00"
     d="M 51 6 L 51 9 L 54 9 L 57 9 L 60 9 L 63 9 L 63 6 L 60 6 L 57 6 L 54 6 L 51 6 z M 63 9 L 63 12 L 66 12 L 66 9 L 63 9 z M 51 9 L 48 9 L 45 9 L 45 12 L 48 12 L 51 12 L 51 9 z M 45 12 L 42 12 L 42 15 L 45 15 L 45 12 z M 42 15 L 39 15 L 39 18 L 39 21 L 39 24 L 39 27 L 39 30 L 39 33 L 39 36 L 39 39 L 42 39 L 42 36 L 42 33 L 42 30 L 42 27 L 42 24 L 42 21 L 42 18 L 42 15 z M 66 15 L 66 18 L 69 18 L 69 15 L 66 15 z M 30 48 L 30 51 L 30 54 L 30 57 L 30 60 L 30 63 L 30 66 L 30 69 L 30 72 L 30 75 L 30 78 L 30 81 L 30 84 L 30 87 L 33 87 L 36 87 L 39 87 L 42 87 L 45 87 L 48 87 L 51 87 L 54 87 L 57 87 L 60 87 L 63 87 L 66 87 L 69 87 L 72 87 L 75 87 L 78 87 L 78 84 L 78 81 L 78 78 L 78 75 L 78 72 L 78 69 L 78 66 L 78 63 L 78 60 L 78 57 L 78 54 L 78 51 L 75 51 L 75 48 L 72 48 L 69 48 L 66 48 L 63 48 L 60 48 L 57 48 L 54 48 L 51 48 L 48 48 L 45 48 L 42 48 L 39 48 L 36 48 L 33 48 L 30 48 z M 33 54 L 36 54 L 39 54 L 42 54 L 45 54 L 48 54 L 51 54 L 54 54 L 57 54 L 60 54 L 63 54 L 66 54 L 69 54 L 72 54 L 75 54 L 75 57 L 72 57 L 69 57 L 66 57 L 63 57 L 60 57 L 57 57 L 54 57 L 51 57 L 48 57 L 45 57 L 42 57 L 39 57 L 36 57 L 33 57 L 33 54 z M 33 60 L 36 60 L 39 60 L 42 60 L 45 60 L 48 60 L 51 60 L 54 60 L 57 60 L 60 60 L 63 60 L 66 60 L 69 60 L 72 60 L 75 60 L 75 63 L 72 63 L 69 63 L 66 63 L 63 63 L 60 63 L 57 63 L 54 63 L 51 63 L 48 63 L 45 63 L 42 63 L 39 63 L 36 63 L 33 63 L 33 60 z M 33 66 L 36 66 L 39 66 L 42 66 L 45 66 L 48 66 L 51 66 L 54 66 L 57 66 L 60 66 L 63 66 L 66 66 L 69 66 L 72 66 L 75 66 L 75 69 L 72 69 L 69 69 L 66 69 L 63 69 L 60 69 L 57 69 L 54 69 L 51 69 L 48 69 L 45 69 L 42 69 L 39 69 L 36 69 L 33 69 L 33 66 z M 33 72 L 36 72 L 39 72 L 42 72 L 45 72 L 48 72 L 51 72 L 54 72 L 57 72 L 60 72 L 63 72 L 66 72 L 69 72 L 72 72 L 75 72 L 75 75 L 72 75 L 69 75 L 66 75 L 63 75 L 60 75 L 57 75 L 54 75 L 51 75 L 48 75 L 45 75 L 42 75 L 39 75 L 36 75 L 33 75 L 33 72 z M 33 78 L 36 78 L 39 78 L 42 78 L 45 78 L 48 78 L 51 78 L 54 78 L 57 78 L 60 78 L 63 78 L 66 78 L 69 78 L 72 78 L 75 78 L 75 81 L 72 81 L 69 81 L 66 81 L 63 81 L 60 81 L 57 81 L 54 81 L 51 81 L 48 81 L 45 81 L 42 81 L 39 81 L 36 81 L 33 81 L 33 78 z "
     id="rect936" />
  <path
     style="fill:#c0c0c0"
     d="M 60 9 L 60 12 L 63 12 L 63 9 L 60 9 z M 63 12 L 63 15 L 66 15 L 69 15 L 69 12 L 66 12 L 63 12 z M 69 15 L 69 18 L 69 21 L 69 24 L 69 27 L 69 30 L 69 33 L 69 36 L 69 39 L 72 39 L 72 36 L 72 33 L 72 30 L 72 27 L 72 24 L 72 21 L 72 18 L 72 15 L 69 15 z M 45 12 L 45 15 L 48 15 L 48 12 L 45 12 z M 45 15 L 42 15 L 42 18 L 45 18 L 45 15 z M 27 45 L 27 48 L 30 48 L 30 45 L 27 45 z M 75 45 L 75 48 L 78 48 L 78 51 L 78 54 L 78 57 L 78 60 L 78 63 L 78 66 L 78 69 L 78 72 L 78 75 L 78 78 L 78 81 L 78 84 L 78 87 L 81 87 L 81 84 L 81 81 L 81 78 L 81 75 L 81 72 L 81 69 L 81 66 L 81 63 L 81 60 L 81 57 L 81 54 L 81 51 L 81 48 L 81 45 L 78 45 L 75 45 z M 33 54 L 33 57 L 36 57 L 39 57 L 42 57 L 45 57 L 48 57 L 51 57 L 54 57 L 57 57 L 60 57 L 63 57 L 66 57 L 69 57 L 72 57 L 75 57 L 75 54 L 72 54 L 69 54 L 66 54 L 63 54 L 60 54 L 57 54 L 54 54 L 51 54 L 48 54 L 45 54 L 42 54 L 39 54 L 36 54 L 33 54 z M 33 60 L 33 63 L 36 63 L 39 63 L 42 63 L 45 63 L 48 63 L 51 63 L 54 63 L 57 63 L 60 63 L 63 63 L 66 63 L 69 63 L 72 63 L 75 63 L 75 60 L 72 60 L 69 60 L 66 60 L 63 60 L 60 60 L 57 60 L 54 60 L 51 60 L 48 60 L 45 60 L 42 60 L 39 60 L 36 60 L 33 60 z M 33 66 L 33 69 L 36 69 L 39 69 L 42 69 L 45 69 L 48 69 L 51 69 L 54 69 L 57 69 L 60 69 L 63 69 L 66 69 L 69 69 L 72 69 L 75 69 L 75 66 L 72 66 L 69 66 L 66 66 L 63 66 L 60 66 L 57 66 L 54 66 L 51 66 L 48 66 L 45 66 L 42 66 L 39 66 L 36 66 L 33 66 z M 33 72 L 33 75 L 36 75 L 39 75 L 42 75 L 45 75 L 48 75 L 51 75 L 54 75 L 57 75 L 60 75 L 63 75 L 66 75 L 69 75 L 72 75 L 75 75 L 75 72 L 72 72 L 69 72 L 66 72 L 63 72 L 60 72 L 57 72 L 54 72 L 51 72 L 48 72 L 45 72 L 42 72 L 39 72 L 36 72 L 33 72 z M 33 78 L 33 81 L 36 81 L 39 81 L 42 81 L 45 81 L 48 81 L 51 81 L 54 81 L 57 81 L 60 81 L 63 81 L 66 81 L 69 81 L 72 81 L 75 81 L 75 78 L 72 78 L 69 78 L 66 78 L 63 78 L 60 78 L 57 78 L 54 78 L 51 78 L 48 78 L 45 78 L 42 78 L 39 78 L 36 78 L 33 78 z "
     id="rect938" />
  <path
     style="fill:#808000"
     d="M 51 3 L 51 6 L 54 6 L 57 6 L 60 6 L 63 6 L 63 3 L 60 3 L 57 3 L 54 3 L 51 3 z M 51 6 L 48 6 L 45 6 L 45 9 L 48 9 L 51 9 L 51 6 z M 51 9 L 51 12 L 54 12 L 57 12 L 60 12 L 60 9 L 57 9 L 54 9 L 51 9 z M 51 12 L 48 12 L 48 15 L 51 15 L 51 12 z M 48 15 L 45 15 L 45 18 L 48 18 L 48 15 z M 45 18 L 42 18 L 42 21 L 42 24 L 42 27 L 42 30 L 42 33 L 42 36 L 42 39 L 45 39 L 45 36 L 45 33 L 45 30 L 45 27 L 45 24 L 45 21 L 45 18 z M 45 9 L 42 9 L 42 12 L 45 12 L 45 9 z M 42 12 L 39 12 L 39 15 L 42 15 L 42 12 z M 39 15 L 36 15 L 36 18 L 36 21 L 36 24 L 36 27 L 36 30 L 36 33 L 33 33 L 33 36 L 36 36 L 36 39 L 39 39 L 39 36 L 39 33 L 39 30 L 39 27 L 39 24 L 39 21 L 39 18 L 39 15 z M 36 39 L 33 39 L 33 42 L 36 42 L 36 39 z M 36 42 L 36 45 L 39 45 L 39 42 L 36 42 z M 33 42 L 30 42 L 30 45 L 33 45 L 33 42 z M 30 42 L 30 39 L 27 39 L 27 42 L 30 42 z M 27 42 L 24 42 L 24 45 L 24 48 L 24 51 L 24 54 L 24 57 L 24 60 L 24 63 L 24 66 L 24 69 L 24 72 L 24 75 L 24 78 L 24 81 L 24 84 L 24 87 L 24 90 L 27 90 L 30 90 L 33 90 L 36 90 L 39 90 L 42 90 L 45 90 L 48 90 L 51 90 L 54 90 L 57 90 L 60 90 L 63 90 L 66 90 L 69 90 L 72 90 L 75 90 L 78 90 L 81 90 L 81 87 L 78 87 L 75 87 L 72 87 L 69 87 L 66 87 L 63 87 L 60 87 L 57 87 L 54 87 L 51 87 L 48 87 L 45 87 L 42 87 L 39 87 L 36 87 L 33 87 L 30 87 L 27 87 L 27 84 L 27 81 L 27 78 L 27 75 L 27 72 L 27 69 L 27 66 L 27 63 L 27 60 L 27 57 L 27 54 L 27 51 L 27 48 L 27 45 L 27 42 z M 30 39 L 33 39 L 33 36 L 30 36 L 30 39 z M 66 9 L 66 12 L 69 12 L 69 9 L 66 9 z M 69 12 L 69 15 L 72 15 L 72 12 L 69 12 z M 72 15 L 72 18 L 72 21 L 72 24 L 72 27 L 72 30 L 72 33 L 72 36 L 72 39 L 75 39 L 75 36 L 75 33 L 75 30 L 75 27 L 75 24 L 75 21 L 75 18 L 75 15 L 72 15 z M 75 39 L 75 42 L 78 42 L 78 39 L 75 39 z M 78 39 L 81 39 L 81 36 L 84 36 L 84 33 L 81 33 L 78 33 L 78 36 L 78 39 z M 81 39 L 81 42 L 84 42 L 84 39 L 81 39 z M 84 42 L 84 45 L 87 45 L 87 42 L 84 42 z M 84 45 L 81 45 L 81 48 L 84 48 L 84 45 z M 84 48 L 84 51 L 87 51 L 87 48 L 84 48 z M 84 51 L 81 51 L 81 54 L 84 54 L 84 51 z M 84 54 L 84 57 L 87 57 L 87 54 L 84 54 z M 84 57 L 81 57 L 81 60 L 84 60 L 84 57 z M 84 60 L 84 63 L 87 63 L 87 60 L 84 60 z M 84 63 L 81 63 L 81 66 L 84 66 L 84 63 z M 84 66 L 84 69 L 87 69 L 87 66 L 84 66 z M 84 69 L 81 69 L 81 72 L 84 72 L 84 69 z M 84 72 L 84 75 L 87 75 L 87 72 L 84 72 z M 84 75 L 81 75 L 81 78 L 84 78 L 84 75 z M 84 78 L 84 81 L 87 81 L 87 78 L 84 78 z M 84 81 L 81 81 L 81 84 L 84 84 L 84 81 z M 84 84 L 84 87 L 87 87 L 87 84 L 84 84 z M 81 45 L 81 42 L 78 42 L 78 45 L 81 45 z M 75 42 L 72 42 L 72 45 L 75 45 L 75 42 z M 63 15 L 63 18 L 66 18 L 66 15 L 63 15 z M 66 18 L 66 21 L 66 24 L 66 27 L 66 30 L 66 33 L 63 33 L 60 33 L 57 33 L 54 33 L 51 33 L 48 33 L 48 36 L 48 39 L 51 39 L 51 36 L 54 36 L 54 39 L 57 39 L 57 36 L 60 36 L 60 39 L 63 39 L 63 36 L 66 36 L 66 39 L 69 39 L 69 36 L 69 33 L 69 30 L 69 27 L 69 24 L 69 21 L 69 18 L 66 18 z M 66 39 L 63 39 L 63 42 L 66 42 L 66 39 z M 66 42 L 66 45 L 69 45 L 69 42 L 66 42 z M 63 42 L 60 42 L 60 45 L 63 45 L 63 42 z M 60 42 L 60 39 L 57 39 L 57 42 L 60 42 z M 57 42 L 54 42 L 54 45 L 57 45 L 57 42 z M 54 42 L 54 39 L 51 39 L 51 42 L 54 42 z M 51 42 L 48 42 L 48 45 L 51 45 L 51 42 z M 42 42 L 42 45 L 45 45 L 45 42 L 42 42 z "
     id="rect982" />
  <path
     style="fill:#808080"
     d="M 33 36 L 33 39 L 36 39 L 36 36 L 33 36 z M 33 39 L 30 39 L 30 42 L 33 42 L 33 39 z M 33 42 L 33 45 L 36 45 L 36 42 L 33 42 z M 30 42 L 27 42 L 27 45 L 30 45 L 30 42 z M 51 36 L 51 39 L 54 39 L 54 36 L 51 36 z M 54 39 L 54 42 L 57 42 L 57 39 L 54 39 z M 57 39 L 60 39 L 60 36 L 57 36 L 57 39 z M 60 39 L 60 42 L 63 42 L 63 39 L 60 39 z M 63 39 L 66 39 L 66 36 L 63 36 L 63 39 z M 66 39 L 66 42 L 69 42 L 69 39 L 66 39 z M 69 42 L 69 45 L 72 45 L 72 42 L 69 42 z M 66 42 L 63 42 L 63 45 L 66 45 L 66 42 z M 60 42 L 57 42 L 57 45 L 60 45 L 60 42 z M 54 42 L 51 42 L 51 45 L 54 45 L 54 42 z M 51 42 L 51 39 L 48 39 L 48 42 L 51 42 z M 48 42 L 45 42 L 45 45 L 48 45 L 48 42 z M 81 36 L 81 39 L 84 39 L 84 36 L 81 36 z M 84 39 L 84 42 L 87 42 L 87 39 L 84 39 z M 84 42 L 81 42 L 81 45 L 84 45 L 84 42 z M 84 45 L 84 48 L 87 48 L 87 45 L 84 45 z M 84 48 L 81 48 L 81 51 L 84 51 L 84 48 z M 84 51 L 84 54 L 87 54 L 87 51 L 84 51 z M 84 54 L 81 54 L 81 57 L 84 57 L 84 54 z M 84 57 L 84 60 L 87 60 L 87 57 L 84 57 z M 84 60 L 81 60 L 81 63 L 84 63 L 84 60 z M 84 63 L 84 66 L 87 66 L 87 63 L 84 63 z M 84 66 L 81 66 L 81 69 L 84 69 L 84 66 z M 84 69 L 84 72 L 87 72 L 87 69 L 84 69 z M 84 72 L 81 72 L 81 75 L 84 75 L 84 72 z M 84 75 L 84 78 L 87 78 L 87 75 L 84 75 z M 84 78 L 81 78 L 81 81 L 84 81 L 84 78 z M 84 81 L 84 84 L 87 84 L 87 81 L 84 81 z M 84 84 L 81 84 L 81 87 L 81 90 L 84 90 L 84 87 L 84 84 z M 81 42 L 81 39 L 78 39 L 78 42 L 81 42 z M 78 42 L 75 42 L 75 45 L 78 45 L 78 42 z M 39 42 L 39 45 L 42 45 L 42 42 L 39 42 z "
     id="rect984" />
  <path
     style="fill:#000000"
     d="M 63 6 L 63 9 L 66 9 L 69 9 L 69 6 L 66 6 L 63 6 z M 69 9 L 69 12 L 72 12 L 72 9 L 69 9 z M 72 12 L 72 15 L 75 15 L 75 12 L 72 12 z M 75 15 L 75 18 L 75 21 L 75 24 L 75 27 L 75 30 L 75 33 L 75 36 L 75 39 L 78 39 L 78 36 L 78 33 L 78 30 L 78 27 L 78 24 L 78 21 L 78 18 L 78 15 L 75 15 z M 75 39 L 72 39 L 69 39 L 69 42 L 72 42 L 75 42 L 75 39 z M 51 12 L 51 15 L 54 15 L 57 15 L 60 15 L 63 15 L 63 12 L 60 12 L 57 12 L 54 12 L 51 12 z M 51 15 L 48 15 L 48 18 L 51 18 L 51 15 z M 48 18 L 45 18 L 45 21 L 45 24 L 45 27 L 45 30 L 45 33 L 45 36 L 45 39 L 42 39 L 39 39 L 36 39 L 36 42 L 39 42 L 42 42 L 45 42 L 48 42 L 48 39 L 48 36 L 48 33 L 48 30 L 48 27 L 48 24 L 48 21 L 48 18 z M 84 36 L 84 39 L 87 39 L 87 36 L 84 36 z M 87 39 L 87 42 L 87 45 L 87 48 L 87 51 L 87 54 L 87 57 L 87 60 L 87 63 L 87 66 L 87 69 L 87 72 L 87 75 L 87 78 L 87 81 L 87 84 L 87 87 L 90 87 L 90 84 L 90 81 L 90 78 L 90 75 L 90 72 L 90 69 L 90 66 L 90 63 L 90 60 L 90 57 L 90 54 L 90 51 L 90 48 L 90 45 L 90 42 L 90 39 L 87 39 z M 87 87 L 84 87 L 84 90 L 87 90 L 87 87 z M 84 90 L 81 90 L 78 90 L 75 90 L 72 90 L 69 90 L 66 90 L 63 90 L 60 90 L 57 90 L 54 90 L 51 90 L 48 90 L 45 90 L 42 90 L 39 90 L 36 90 L 33 90 L 30 90 L 27 90 L 27 93 L 30 93 L 33 93 L 36 93 L 39 93 L 42 93 L 45 93 L 48 93 L 51 93 L 54 93 L 57 93 L 60 93 L 63 93 L 66 93 L 69 93 L 72 93 L 75 93 L 78 93 L 81 93 L 84 93 L 84 90 z "
     id="rect1024" />
</svg>
