<?xml version="1.0" encoding="UTF-8" standalone="no"?>
<svg
   xmlns:dc="http://purl.org/dc/elements/1.1/"
   xmlns:cc="http://creativecommons.org/ns#"
   xmlns:rdf="http://www.w3.org/1999/02/22-rdf-syntax-ns#"
   xmlns:svg="http://www.w3.org/2000/svg"
   xmlns="http://www.w3.org/2000/svg"
   xmlns:sodipodi="http://sodipodi.sourceforge.net/DTD/sodipodi-0.dtd"
   xmlns:inkscape="http://www.inkscape.org/namespaces/inkscape"
   id="svg944"
   width="96px"
   version="1.1"
   height="96px"
   sodipodi:docname="chicago95_tmp_file.svg"
   inkscape:version="0.92.4 (5da689c313, 2019-01-14)">
  <sodipodi:namedview
     pagecolor="#ffffff"
     bordercolor="#666666"
     borderopacity="1"
     objecttolerance="10"
     gridtolerance="10"
     guidetolerance="10"
     inkscape:pageopacity="0"
     inkscape:pageshadow="2"
     inkscape:window-width="640"
     inkscape:window-height="480"
     id="namedview475"
     showgrid="false"
     inkscape:zoom="2.4583333"
     inkscape:cx="47.999993"
     inkscape:cy="47.999993"
     inkscape:window-x="0"
     inkscape:window-y="0"
     inkscape:window-maximized="0"
     inkscape:current-layer="svg944" />
  <metadata
     id="metadata948">
    <rdf:RDF>
      <cc:Work
         rdf:about="">
        <dc:format>image/svg+xml</dc:format>
        <dc:type
           rdf:resource="http://purl.org/dc/dcmitype/StillImage" />
      </cc:Work>
    </rdf:RDF>
  </metadata>
  <defs
     id="defs2" />
  <path
     style="fill:#363636"
     d="M 42 24 L 42 27 L 45 27 L 45 24 L 42 24 z M 48 24 L 48 27 L 51 27 L 51 24 L 48 24 z M 54 24 L 54 27 L 57 27 L 57 24 L 54 24 z M 36 27 L 36 30 L 39 30 L 39 27 L 36 27 z M 60 27 L 60 30 L 63 30 L 63 27 L 60 27 z M 30 30 L 30 33 L 33 33 L 33 30 L 30 30 z M 30 33 L 27 33 L 27 36 L 30 36 L 30 33 z M 63 33 L 63 36 L 66 36 L 69 36 L 69 33 L 66 33 L 63 33 z M 69 39 L 69 42 L 72 42 L 72 39 L 69 39 z M 24 42 L 24 45 L 27 45 L 27 42 L 24 42 z M 69 45 L 69 48 L 72 48 L 72 45 L 69 45 z M 24 48 L 24 51 L 27 51 L 27 48 L 24 48 z M 69 51 L 69 54 L 72 54 L 72 51 L 69 51 z M 24 54 L 24 57 L 27 57 L 27 54 L 24 54 z "
     id="rect288" />
  <path
     style="fill:#b1b1b1"
     d="M 36 24 L 36 27 L 39 27 L 39 24 L 36 24 z M 57 24 L 57 27 L 60 27 L 60 24 L 57 24 z M 57 27 L 54 27 L 54 30 L 57 30 L 57 27 z M 57 30 L 57 33 L 57 36 L 54 36 L 54 33 L 54 30 L 51 30 L 51 33 L 51 36 L 51 39 L 54 39 L 57 39 L 60 39 L 60 36 L 60 33 L 60 30 L 57 30 z M 60 39 L 60 42 L 63 42 L 63 45 L 66 45 L 66 42 L 69 42 L 69 39 L 66 39 L 66 36 L 63 36 L 63 39 L 60 39 z M 69 39 L 72 39 L 72 36 L 69 36 L 69 39 z M 66 45 L 66 48 L 69 48 L 69 45 L 66 45 z M 66 48 L 63 48 L 63 45 L 60 45 L 60 42 L 57 42 L 54 42 L 54 45 L 51 45 L 51 48 L 48 48 L 48 51 L 51 51 L 54 51 L 54 48 L 57 48 L 57 51 L 60 51 L 60 54 L 63 54 L 63 51 L 66 51 L 66 48 z M 66 51 L 66 54 L 69 54 L 69 51 L 66 51 z M 66 54 L 63 54 L 63 57 L 66 57 L 66 54 z M 60 54 L 57 54 L 57 57 L 60 57 L 60 54 z M 57 54 L 57 51 L 54 51 L 54 54 L 57 54 z M 51 45 L 51 42 L 48 42 L 48 45 L 51 45 z M 51 30 L 51 27 L 48 27 L 48 30 L 51 30 z M 48 30 L 45 30 L 45 33 L 48 33 L 48 30 z M 45 30 L 45 27 L 42 27 L 42 30 L 45 30 z M 36 33 L 36 36 L 39 36 L 39 33 L 36 33 z M 24 36 L 24 39 L 27 39 L 27 36 L 24 36 z M 45 36 L 45 39 L 48 39 L 48 36 L 45 36 z M 30 39 L 30 42 L 33 42 L 33 39 L 30 39 z M 30 42 L 27 42 L 27 45 L 27 48 L 30 48 L 30 45 L 30 42 z M 33 45 L 33 48 L 36 48 L 36 45 L 33 45 z M 27 51 L 27 54 L 30 54 L 33 54 L 33 51 L 30 51 L 27 51 z "
     id="rect314" />
  <path
     style="fill:#ededed"
     d="M 39 27 L 39 30 L 36 30 L 36 33 L 39 33 L 39 36 L 36 36 L 36 33 L 33 33 L 33 36 L 30 36 L 30 39 L 33 39 L 33 42 L 30 42 L 30 45 L 30 48 L 30 51 L 33 51 L 36 51 L 36 48 L 33 48 L 33 45 L 36 45 L 36 48 L 39 48 L 42 48 L 45 48 L 45 51 L 48 51 L 48 48 L 51 48 L 51 45 L 48 45 L 48 42 L 51 42 L 51 45 L 54 45 L 54 42 L 54 39 L 51 39 L 51 36 L 51 33 L 51 30 L 48 30 L 48 33 L 45 33 L 45 30 L 42 30 L 42 27 L 39 27 z M 45 30 L 48 30 L 48 27 L 45 27 L 45 30 z M 51 30 L 54 30 L 54 27 L 51 27 L 51 30 z M 30 42 L 30 39 L 27 39 L 27 42 L 30 42 z M 54 33 L 54 36 L 57 36 L 57 33 L 54 33 z M 60 33 L 60 36 L 63 36 L 63 33 L 60 33 z M 45 36 L 48 36 L 48 39 L 45 39 L 45 36 z M 57 39 L 57 42 L 60 42 L 60 39 L 57 39 z M 69 57 L 69 60 L 72 60 L 72 57 L 69 57 z "
     id="rect358" />
  <path
     style="fill:#ffffff"
     d="M 36 51 L 36 54 L 33 54 L 33 57 L 30 57 L 27 57 L 27 60 L 27 63 L 27 66 L 30 66 L 30 69 L 33 69 L 36 69 L 36 66 L 33 66 L 33 63 L 30 63 L 30 60 L 33 60 L 33 63 L 36 63 L 36 60 L 39 60 L 39 57 L 42 57 L 42 54 L 45 54 L 45 51 L 42 51 L 39 51 L 36 51 z M 45 54 L 45 57 L 48 57 L 48 60 L 51 60 L 51 57 L 54 57 L 54 54 L 51 54 L 48 54 L 45 54 z M 54 57 L 54 60 L 57 60 L 57 57 L 54 57 z M 54 60 L 51 60 L 51 63 L 54 63 L 54 60 z M 54 63 L 54 66 L 57 66 L 57 63 L 54 63 z M 57 66 L 57 69 L 60 69 L 60 66 L 57 66 z M 60 66 L 63 66 L 63 63 L 66 63 L 66 66 L 69 66 L 69 63 L 69 60 L 66 60 L 63 60 L 60 60 L 60 63 L 60 66 z M 69 66 L 69 69 L 72 69 L 75 69 L 75 66 L 78 66 L 78 63 L 75 63 L 75 60 L 72 60 L 72 63 L 72 66 L 69 66 z M 75 60 L 78 60 L 78 63 L 81 63 L 81 60 L 84 60 L 84 57 L 84 54 L 81 54 L 78 54 L 78 57 L 75 57 L 75 60 z M 84 60 L 84 63 L 87 63 L 87 60 L 84 60 z M 87 63 L 87 66 L 90 66 L 90 63 L 87 63 z M 87 66 L 84 66 L 84 69 L 87 69 L 87 66 z M 84 66 L 84 63 L 81 63 L 81 66 L 84 66 z M 81 66 L 78 66 L 78 69 L 81 69 L 81 66 z M 69 69 L 66 69 L 66 72 L 69 72 L 69 69 z M 66 69 L 66 66 L 63 66 L 63 69 L 66 69 z M 63 69 L 60 69 L 60 72 L 63 72 L 63 69 z M 51 63 L 48 63 L 48 66 L 51 66 L 51 63 z M 48 66 L 45 66 L 45 69 L 48 69 L 48 66 z M 45 69 L 42 69 L 42 72 L 45 72 L 45 69 z M 42 69 L 42 66 L 39 66 L 39 69 L 42 69 z M 39 69 L 36 69 L 36 72 L 39 72 L 39 69 z M 36 72 L 33 72 L 30 72 L 30 75 L 33 75 L 33 78 L 33 81 L 36 81 L 36 78 L 36 75 L 36 72 z M 30 75 L 27 75 L 27 78 L 30 78 L 30 75 z M 27 75 L 27 72 L 24 72 L 24 75 L 27 75 z M 24 75 L 21 75 L 21 72 L 24 72 L 24 69 L 27 69 L 27 66 L 24 66 L 21 66 L 18 66 L 18 69 L 15 69 L 15 72 L 15 75 L 15 78 L 18 78 L 18 81 L 21 81 L 21 78 L 24 78 L 24 75 z M 27 69 L 27 72 L 30 72 L 30 69 L 27 69 z M 39 66 L 39 63 L 36 63 L 36 66 L 39 66 z M 39 63 L 42 63 L 42 60 L 39 60 L 39 63 z M 42 63 L 42 66 L 45 66 L 45 63 L 42 63 z M 54 75 L 54 78 L 57 78 L 60 78 L 60 75 L 57 75 L 54 75 z M 54 78 L 51 78 L 51 81 L 54 81 L 54 78 z M 51 81 L 48 81 L 48 84 L 51 84 L 51 81 z M 48 81 L 48 78 L 45 78 L 45 81 L 48 81 z M 45 81 L 42 81 L 39 81 L 39 84 L 42 84 L 45 84 L 45 81 z M 75 75 L 75 78 L 78 78 L 78 75 L 75 75 z M 78 78 L 78 81 L 81 81 L 84 81 L 84 78 L 81 78 L 78 78 z M 84 78 L 87 78 L 87 75 L 84 75 L 84 78 z M 78 81 L 75 81 L 75 78 L 72 78 L 72 81 L 72 84 L 75 84 L 78 84 L 78 81 z "
     id="rect786" />
  <path
     style="fill:#c0c0c0"
     d="M 54 30 L 54 33 L 57 33 L 57 30 L 54 30 z M 54 39 L 54 42 L 57 42 L 57 39 L 54 39 z M 60 42 L 60 45 L 63 45 L 63 42 L 60 42 z M 27 48 L 27 51 L 30 51 L 30 48 L 27 48 z M 54 48 L 54 51 L 57 51 L 57 48 L 54 48 z M 57 51 L 57 54 L 60 54 L 60 51 L 57 51 z M 39 57 L 39 60 L 42 60 L 45 60 L 45 57 L 42 57 L 39 57 z M 45 60 L 45 63 L 45 66 L 48 66 L 48 63 L 48 60 L 45 60 z M 84 57 L 84 60 L 87 60 L 87 57 L 84 57 z M 87 60 L 87 63 L 90 63 L 90 60 L 87 60 z M 54 66 L 54 69 L 51 69 L 48 69 L 45 69 L 45 72 L 48 72 L 48 75 L 51 75 L 51 72 L 54 72 L 57 72 L 60 72 L 60 69 L 57 69 L 57 66 L 54 66 z M 60 72 L 60 75 L 63 75 L 63 72 L 60 72 z M 51 75 L 51 78 L 54 78 L 54 75 L 51 75 z M 45 72 L 42 72 L 42 75 L 45 75 L 45 72 z M 42 75 L 39 75 L 39 72 L 36 72 L 36 75 L 36 78 L 39 78 L 42 78 L 42 75 z M 36 72 L 36 69 L 33 69 L 30 69 L 30 72 L 33 72 L 36 72 z M 39 72 L 42 72 L 42 69 L 39 69 L 39 72 z M 75 66 L 75 69 L 75 72 L 78 72 L 78 69 L 78 66 L 75 66 z M 78 72 L 78 75 L 81 75 L 81 72 L 78 72 z M 81 72 L 84 72 L 84 69 L 84 66 L 81 66 L 81 69 L 81 72 z M 75 72 L 72 72 L 72 75 L 75 75 L 75 72 z M 72 72 L 72 69 L 69 69 L 69 72 L 72 72 z M 69 72 L 66 72 L 66 75 L 69 75 L 69 72 z M 87 72 L 87 75 L 90 75 L 90 72 L 87 72 z M 30 75 L 30 78 L 33 78 L 33 75 L 30 75 z M 30 78 L 27 78 L 24 78 L 21 78 L 21 81 L 24 81 L 27 81 L 30 81 L 30 78 z M 75 78 L 75 81 L 78 81 L 78 78 L 75 78 z M 84 78 L 84 81 L 81 81 L 81 84 L 84 84 L 87 84 L 87 81 L 87 78 L 84 78 z M 81 84 L 78 84 L 78 87 L 81 87 L 81 84 z M 45 81 L 45 84 L 48 84 L 48 81 L 45 81 z M 45 84 L 42 84 L 39 84 L 36 84 L 36 87 L 39 87 L 42 87 L 45 87 L 45 84 z M 36 87 L 33 87 L 33 90 L 36 90 L 36 87 z M 54 81 L 54 84 L 51 84 L 51 87 L 51 90 L 54 90 L 54 87 L 57 87 L 60 87 L 63 87 L 66 87 L 69 87 L 72 87 L 72 84 L 69 84 L 69 81 L 66 81 L 63 81 L 60 81 L 57 81 L 54 81 z M 72 87 L 72 90 L 75 90 L 75 87 L 72 87 z "
     id="rect876" />
  <path
     style="fill:#c9c9c9"
     d="M 42 54 L 42 57 L 45 57 L 45 54 L 42 54 z M 45 57 L 45 60 L 48 60 L 48 57 L 45 57 z M 48 60 L 48 63 L 51 63 L 51 60 L 48 60 z M 51 60 L 54 60 L 54 57 L 51 57 L 51 60 z M 54 60 L 54 63 L 57 63 L 57 60 L 54 60 z M 54 63 L 51 63 L 51 66 L 54 66 L 54 63 z M 45 60 L 42 60 L 42 63 L 45 63 L 45 60 z M 42 63 L 39 63 L 39 66 L 42 66 L 42 63 z M 42 66 L 42 69 L 45 69 L 45 66 L 42 66 z M 39 66 L 36 66 L 36 69 L 39 69 L 39 66 z M 36 66 L 36 63 L 33 63 L 33 66 L 36 66 z M 33 63 L 33 60 L 30 60 L 30 63 L 33 63 z M 36 63 L 39 63 L 39 60 L 36 60 L 36 63 z M 75 60 L 75 63 L 78 63 L 78 60 L 75 60 z M 78 63 L 78 66 L 81 66 L 81 63 L 78 63 z M 81 63 L 84 63 L 84 60 L 81 60 L 81 63 z M 84 63 L 84 66 L 87 66 L 87 63 L 84 63 z M 63 63 L 63 66 L 66 66 L 66 63 L 63 63 z M 66 66 L 66 69 L 69 69 L 69 66 L 66 66 z M 66 69 L 63 69 L 63 72 L 63 75 L 66 75 L 66 72 L 66 69 z M 63 69 L 63 66 L 60 66 L 60 69 L 63 69 z M 27 66 L 27 69 L 30 69 L 30 66 L 27 66 z M 27 69 L 24 69 L 24 72 L 27 72 L 27 69 z M 27 72 L 27 75 L 30 75 L 30 72 L 27 72 z M 27 75 L 24 75 L 24 78 L 27 78 L 27 75 z M 24 75 L 24 72 L 21 72 L 21 75 L 24 75 z M 72 69 L 72 72 L 75 72 L 75 69 L 72 69 z M 72 72 L 69 72 L 69 75 L 72 75 L 72 72 z M 78 69 L 78 72 L 81 72 L 81 69 L 78 69 z M 81 72 L 81 75 L 84 75 L 84 72 L 81 72 z M 39 72 L 39 75 L 42 75 L 42 72 L 39 72 z M 42 75 L 42 78 L 45 78 L 45 75 L 42 75 z M 45 75 L 48 75 L 48 72 L 45 72 L 45 75 z M 42 78 L 39 78 L 39 81 L 42 81 L 42 78 z M 78 81 L 78 84 L 81 84 L 81 81 L 78 81 z M 81 84 L 81 87 L 84 87 L 84 84 L 81 84 z M 81 87 L 78 87 L 78 90 L 81 90 L 81 87 z M 78 87 L 78 84 L 75 84 L 75 87 L 78 87 z "
     id="rect880" />
  <path
     style="fill:#808080"
     d="M 39 24 L 39 27 L 42 27 L 42 24 L 39 24 z M 45 24 L 45 27 L 48 27 L 48 24 L 45 24 z M 51 24 L 51 27 L 54 27 L 54 24 L 51 24 z M 33 27 L 33 30 L 33 33 L 36 33 L 36 30 L 36 27 L 33 27 z M 33 33 L 30 33 L 30 36 L 33 36 L 33 33 z M 30 36 L 27 36 L 27 39 L 30 39 L 30 36 z M 27 39 L 24 39 L 24 42 L 27 42 L 27 39 z M 57 27 L 57 30 L 60 30 L 60 27 L 57 27 z M 60 30 L 60 33 L 63 33 L 66 33 L 66 30 L 63 30 L 60 30 z M 60 36 L 60 39 L 63 39 L 63 36 L 60 36 z M 66 36 L 66 39 L 69 39 L 69 36 L 66 36 z M 66 42 L 66 45 L 69 45 L 72 45 L 72 42 L 69 42 L 66 42 z M 66 45 L 63 45 L 63 48 L 66 48 L 66 45 z M 66 48 L 66 51 L 69 51 L 72 51 L 72 48 L 69 48 L 66 48 z M 66 51 L 63 51 L 63 54 L 66 54 L 66 51 z M 66 54 L 66 57 L 63 57 L 63 54 L 60 54 L 60 57 L 57 57 L 57 60 L 57 63 L 57 66 L 60 66 L 60 63 L 60 60 L 63 60 L 66 60 L 69 60 L 69 57 L 72 57 L 72 54 L 69 54 L 66 54 z M 72 57 L 72 60 L 75 60 L 75 57 L 72 57 z M 75 57 L 78 57 L 78 54 L 75 54 L 75 57 z M 78 54 L 81 54 L 84 54 L 84 51 L 81 51 L 78 51 L 78 54 z M 84 54 L 84 57 L 87 57 L 87 54 L 84 54 z M 87 57 L 87 60 L 90 60 L 90 63 L 90 66 L 87 66 L 87 69 L 84 69 L 84 72 L 84 75 L 87 75 L 87 72 L 90 72 L 93 72 L 93 69 L 93 66 L 93 63 L 93 60 L 93 57 L 90 57 L 87 57 z M 87 75 L 87 78 L 87 81 L 87 84 L 84 84 L 84 87 L 81 87 L 81 90 L 78 90 L 75 90 L 72 90 L 72 87 L 69 87 L 69 90 L 69 93 L 72 93 L 75 93 L 78 93 L 81 93 L 84 93 L 84 96 L 87 96 L 87 93 L 87 90 L 90 90 L 90 87 L 93 87 L 93 84 L 93 81 L 93 78 L 90 78 L 90 75 L 87 75 z M 84 75 L 81 75 L 78 75 L 78 78 L 81 78 L 84 78 L 84 75 z M 78 75 L 78 72 L 75 72 L 75 75 L 78 75 z M 75 75 L 72 75 L 69 75 L 66 75 L 63 75 L 60 75 L 60 78 L 57 78 L 54 78 L 54 81 L 57 81 L 60 81 L 63 81 L 66 81 L 69 81 L 69 84 L 72 84 L 72 81 L 72 78 L 75 78 L 75 75 z M 54 81 L 51 81 L 51 84 L 54 84 L 54 81 z M 51 84 L 48 84 L 45 84 L 45 87 L 42 87 L 39 87 L 36 87 L 36 90 L 36 93 L 39 93 L 42 93 L 45 93 L 45 90 L 48 90 L 48 93 L 51 93 L 54 93 L 54 90 L 51 90 L 51 87 L 51 84 z M 36 87 L 36 84 L 39 84 L 39 81 L 39 78 L 36 78 L 36 81 L 33 81 L 33 78 L 30 78 L 30 81 L 27 81 L 24 81 L 24 84 L 27 84 L 30 84 L 30 87 L 33 87 L 36 87 z M 51 81 L 51 78 L 51 75 L 48 75 L 45 75 L 45 78 L 48 78 L 48 81 L 51 81 z M 45 78 L 42 78 L 42 81 L 45 81 L 45 78 z M 51 75 L 54 75 L 57 75 L 60 75 L 60 72 L 57 72 L 54 72 L 51 72 L 51 75 z M 72 60 L 69 60 L 69 63 L 69 66 L 72 66 L 72 63 L 72 60 z M 57 57 L 57 54 L 54 54 L 54 57 L 57 57 z M 54 54 L 54 51 L 51 51 L 48 51 L 45 51 L 45 54 L 48 54 L 51 54 L 54 54 z M 45 51 L 45 48 L 42 48 L 39 48 L 36 48 L 36 51 L 39 51 L 42 51 L 45 51 z M 36 51 L 33 51 L 33 54 L 36 54 L 36 51 z M 33 54 L 30 54 L 27 54 L 27 57 L 30 57 L 33 57 L 33 54 z M 27 57 L 24 57 L 24 60 L 24 63 L 21 63 L 18 63 L 15 63 L 15 66 L 15 69 L 18 69 L 18 66 L 21 66 L 24 66 L 27 66 L 27 63 L 27 60 L 27 57 z M 15 69 L 12 69 L 12 72 L 12 75 L 12 78 L 15 78 L 15 75 L 15 72 L 15 69 z M 27 54 L 27 51 L 24 51 L 24 54 L 27 54 z M 24 45 L 24 48 L 27 48 L 27 45 L 24 45 z M 48 66 L 48 69 L 51 69 L 54 69 L 54 66 L 51 66 L 48 66 z "
     id="rect940" />
  <path
     style="fill:#000000"
     d="M 93 60 L 93 63 L 93 66 L 93 69 L 93 72 L 96 72 L 96 69 L 96 66 L 96 63 L 96 60 L 93 60 z M 93 72 L 90 72 L 90 75 L 90 78 L 93 78 L 93 75 L 93 72 z M 93 78 L 93 81 L 93 84 L 93 87 L 96 87 L 96 84 L 96 81 L 96 78 L 93 78 z M 93 87 L 90 87 L 90 90 L 93 90 L 93 87 z M 90 90 L 87 90 L 87 93 L 87 96 L 90 96 L 90 93 L 90 90 z M 15 78 L 15 81 L 18 81 L 18 78 L 15 78 z M 18 81 L 18 84 L 21 84 L 24 84 L 24 81 L 21 81 L 18 81 z M 24 84 L 24 87 L 27 87 L 30 87 L 30 84 L 27 84 L 24 84 z M 30 87 L 30 90 L 33 90 L 33 87 L 30 87 z M 33 90 L 33 93 L 36 93 L 36 90 L 33 90 z M 36 93 L 36 96 L 39 96 L 42 96 L 45 96 L 45 93 L 42 93 L 39 93 L 36 93 z M 45 93 L 48 93 L 48 90 L 45 90 L 45 93 z M 72 84 L 72 87 L 75 87 L 75 84 L 72 84 z M 75 87 L 75 90 L 78 90 L 78 87 L 75 87 z M 54 87 L 54 90 L 57 90 L 60 90 L 63 90 L 66 90 L 66 93 L 66 96 L 69 96 L 72 96 L 75 96 L 78 96 L 81 96 L 84 96 L 84 93 L 81 93 L 78 93 L 75 93 L 72 93 L 69 93 L 69 90 L 69 87 L 66 87 L 63 87 L 60 87 L 57 87 L 54 87 z M 51 93 L 51 96 L 54 96 L 54 93 L 51 93 z "
     id="rect942" />
</svg>
