<?xml version="1.0" encoding="UTF-8" standalone="no"?>
<svg
   xmlns:dc="http://purl.org/dc/elements/1.1/"
   xmlns:cc="http://creativecommons.org/ns#"
   xmlns:rdf="http://www.w3.org/1999/02/22-rdf-syntax-ns#"
   xmlns:svg="http://www.w3.org/2000/svg"
   xmlns="http://www.w3.org/2000/svg"
   xmlns:sodipodi="http://sodipodi.sourceforge.net/DTD/sodipodi-0.dtd"
   xmlns:inkscape="http://www.inkscape.org/namespaces/inkscape"
   id="svg766"
   width="96px"
   version="1.1"
   height="96px"
   sodipodi:docname="chicago95_tmp_file.svg"
   inkscape:version="0.92.4 (5da689c313, 2019-01-14)">
  <sodipodi:namedview
     pagecolor="#ffffff"
     bordercolor="#666666"
     borderopacity="1"
     objecttolerance="10"
     gridtolerance="10"
     guidetolerance="10"
     inkscape:pageopacity="0"
     inkscape:pageshadow="2"
     inkscape:window-width="640"
     inkscape:window-height="480"
     id="namedview386"
     showgrid="false"
     inkscape:zoom="2.4583333"
     inkscape:cx="47.999996"
     inkscape:cy="47.999996"
     inkscape:window-x="0"
     inkscape:window-y="0"
     inkscape:window-maximized="0"
     inkscape:current-layer="svg766" />
  <metadata
     id="metadata770">
    <rdf:RDF>
      <cc:Work
         rdf:about="">
        <dc:format>image/svg+xml</dc:format>
        <dc:type
           rdf:resource="http://purl.org/dc/dcmitype/StillImage" />
      </cc:Work>
    </rdf:RDF>
  </metadata>
  <defs
     id="defs2" />
  <path
     style="fill:#ffffff"
     d="M 30 3 L 30 6 L 27 6 L 27 9 L 24 9 L 21 9 L 21 12 L 21 15 L 21 18 L 24 18 L 24 21 L 27 21 L 30 21 L 30 18 L 27 18 L 27 15 L 24 15 L 24 12 L 27 12 L 27 15 L 30 15 L 30 12 L 33 12 L 33 9 L 36 9 L 36 6 L 39 6 L 39 3 L 36 3 L 33 3 L 30 3 z M 39 6 L 39 9 L 39 12 L 42 12 L 42 9 L 45 9 L 48 9 L 48 6 L 45 6 L 42 6 L 39 6 z M 48 9 L 48 12 L 51 12 L 51 9 L 48 9 z M 39 12 L 36 12 L 36 15 L 36 18 L 39 18 L 39 15 L 39 12 z M 39 18 L 39 21 L 42 21 L 42 18 L 39 18 z M 36 18 L 33 18 L 33 21 L 36 21 L 36 18 z M 24 21 L 21 21 L 21 24 L 24 24 L 24 21 z M 24 24 L 24 27 L 27 27 L 27 30 L 27 33 L 30 33 L 30 30 L 30 27 L 30 24 L 27 24 L 24 24 z M 24 27 L 21 27 L 21 30 L 24 30 L 24 27 z M 21 21 L 21 18 L 18 18 L 15 18 L 12 18 L 12 21 L 9 21 L 9 24 L 9 27 L 9 30 L 12 30 L 12 33 L 15 33 L 15 30 L 18 30 L 18 27 L 15 27 L 15 24 L 18 24 L 18 21 L 21 21 z M 72 6 L 72 9 L 69 9 L 69 12 L 72 12 L 72 15 L 75 15 L 75 12 L 78 12 L 78 9 L 78 6 L 75 6 L 72 6 z M 78 12 L 78 15 L 81 15 L 81 12 L 78 12 z M 69 12 L 66 12 L 66 15 L 66 18 L 69 18 L 69 15 L 69 12 z M 66 18 L 63 18 L 63 21 L 66 21 L 66 18 z M 54 12 L 54 15 L 54 18 L 57 18 L 57 15 L 60 15 L 63 15 L 63 12 L 60 12 L 57 12 L 54 12 z M 54 18 L 51 18 L 51 21 L 54 21 L 54 18 z M 48 27 L 48 30 L 51 30 L 54 30 L 54 27 L 51 27 L 48 27 z M 54 30 L 54 33 L 57 33 L 57 30 L 54 30 z M 54 33 L 51 33 L 51 36 L 54 36 L 54 33 z M 48 30 L 45 30 L 45 33 L 48 33 L 48 30 z M 45 33 L 42 33 L 42 36 L 45 36 L 45 33 z M 42 33 L 42 30 L 39 30 L 39 33 L 42 33 z M 39 33 L 36 33 L 33 33 L 33 36 L 36 36 L 39 36 L 39 33 z M 69 27 L 69 30 L 72 30 L 72 27 L 69 27 z M 72 30 L 72 33 L 75 33 L 78 33 L 78 30 L 75 30 L 72 30 z M 78 30 L 81 30 L 81 27 L 78 27 L 78 30 z M 72 33 L 69 33 L 69 36 L 72 36 L 72 33 z M 69 36 L 66 36 L 66 39 L 69 39 L 69 36 z M 69 33 L 69 30 L 66 30 L 66 33 L 69 33 z "
     id="rect558" />
  <path
     style="fill:#c0c0c0"
     d="M 36 6 L 36 9 L 39 9 L 39 6 L 36 6 z M 36 9 L 33 9 L 33 12 L 30 12 L 30 15 L 27 15 L 27 18 L 30 18 L 30 21 L 30 24 L 33 24 L 33 27 L 33 30 L 33 33 L 36 33 L 36 30 L 39 30 L 39 27 L 42 27 L 45 27 L 45 24 L 48 24 L 51 24 L 54 24 L 54 27 L 57 27 L 60 27 L 63 27 L 66 27 L 69 27 L 69 24 L 72 24 L 72 27 L 75 27 L 78 27 L 78 24 L 78 21 L 81 21 L 81 18 L 84 18 L 84 15 L 84 12 L 81 12 L 81 15 L 78 15 L 78 12 L 75 12 L 75 15 L 72 15 L 72 12 L 69 12 L 69 15 L 69 18 L 66 18 L 66 21 L 63 21 L 63 18 L 63 15 L 60 15 L 57 15 L 57 18 L 54 18 L 54 21 L 51 21 L 51 18 L 51 15 L 51 12 L 48 12 L 48 9 L 45 9 L 42 9 L 42 12 L 42 15 L 42 18 L 45 18 L 48 18 L 48 21 L 45 21 L 42 21 L 39 21 L 39 18 L 36 18 L 36 21 L 33 21 L 33 18 L 36 18 L 36 15 L 36 12 L 36 9 z M 78 12 L 81 12 L 81 9 L 78 9 L 78 12 z M 45 27 L 45 30 L 48 30 L 48 27 L 45 27 z M 48 30 L 48 33 L 51 33 L 54 33 L 54 30 L 51 30 L 48 30 z M 54 33 L 54 36 L 57 36 L 57 39 L 60 39 L 60 36 L 63 36 L 63 33 L 63 30 L 60 30 L 57 30 L 57 33 L 54 33 z M 57 39 L 54 39 L 54 42 L 57 42 L 57 39 z M 54 39 L 54 36 L 51 36 L 51 39 L 54 39 z M 27 15 L 27 12 L 24 12 L 24 15 L 27 15 z M 21 18 L 21 21 L 24 21 L 24 18 L 21 18 z M 21 21 L 18 21 L 18 24 L 15 24 L 15 27 L 18 27 L 18 30 L 15 30 L 15 33 L 18 33 L 21 33 L 24 33 L 24 30 L 21 30 L 21 27 L 24 27 L 24 24 L 21 24 L 21 21 z M 24 27 L 24 30 L 27 30 L 27 27 L 24 27 z M 24 33 L 24 36 L 27 36 L 27 33 L 24 33 z M 81 24 L 81 27 L 84 27 L 84 24 L 81 24 z M 69 30 L 69 33 L 72 33 L 72 30 L 69 30 z M 72 33 L 72 36 L 69 36 L 69 39 L 69 42 L 72 42 L 72 39 L 75 39 L 75 36 L 78 36 L 81 36 L 81 33 L 81 30 L 78 30 L 78 33 L 75 33 L 72 33 z M 39 33 L 39 36 L 42 36 L 42 33 L 39 33 z M 39 36 L 36 36 L 33 36 L 30 36 L 30 39 L 33 39 L 36 39 L 39 39 L 39 36 z M 30 39 L 27 39 L 27 42 L 30 42 L 30 39 z M 63 39 L 63 42 L 66 42 L 66 39 L 63 39 z "
     id="rect604" />
  <path
     style="fill:#808080"
     d="M 30 0 L 30 3 L 33 3 L 36 3 L 39 3 L 39 0 L 36 0 L 33 0 L 30 0 z M 39 3 L 39 6 L 42 6 L 45 6 L 48 6 L 48 3 L 45 3 L 42 3 L 39 3 z M 48 6 L 48 9 L 51 9 L 51 6 L 48 6 z M 51 9 L 51 12 L 51 15 L 51 18 L 54 18 L 54 15 L 54 12 L 57 12 L 60 12 L 63 12 L 63 9 L 60 9 L 57 9 L 54 9 L 51 9 z M 63 12 L 63 15 L 63 18 L 66 18 L 66 15 L 66 12 L 63 12 z M 66 12 L 69 12 L 69 9 L 66 9 L 66 12 z M 69 9 L 72 9 L 72 6 L 69 6 L 69 9 z M 72 6 L 75 6 L 78 6 L 78 3 L 75 3 L 72 3 L 72 6 z M 78 6 L 78 9 L 81 9 L 81 6 L 78 6 z M 81 9 L 81 12 L 84 12 L 84 15 L 84 18 L 81 18 L 81 21 L 78 21 L 78 24 L 78 27 L 81 27 L 81 24 L 84 24 L 87 24 L 87 21 L 87 18 L 87 15 L 87 12 L 87 9 L 84 9 L 81 9 z M 81 27 L 81 30 L 81 33 L 81 36 L 78 36 L 75 36 L 75 39 L 72 39 L 72 42 L 69 42 L 69 39 L 66 39 L 66 42 L 63 42 L 63 39 L 66 39 L 66 36 L 69 36 L 69 33 L 66 33 L 66 30 L 69 30 L 69 27 L 66 27 L 63 27 L 60 27 L 57 27 L 54 27 L 54 30 L 57 30 L 60 30 L 63 30 L 63 33 L 63 36 L 60 36 L 60 39 L 57 39 L 57 42 L 54 42 L 54 39 L 51 39 L 51 36 L 51 33 L 48 33 L 45 33 L 45 36 L 42 36 L 39 36 L 39 39 L 36 39 L 33 39 L 30 39 L 30 42 L 30 45 L 33 45 L 36 45 L 36 42 L 39 42 L 42 42 L 45 42 L 48 42 L 48 45 L 48 48 L 51 48 L 54 48 L 57 48 L 57 51 L 60 51 L 63 51 L 63 48 L 63 45 L 66 45 L 69 45 L 72 45 L 72 48 L 75 48 L 78 48 L 81 48 L 81 45 L 81 42 L 84 42 L 84 39 L 87 39 L 87 36 L 87 33 L 87 30 L 84 30 L 84 27 L 81 27 z M 30 39 L 30 36 L 33 36 L 33 33 L 33 30 L 33 27 L 33 24 L 30 24 L 30 27 L 30 30 L 30 33 L 27 33 L 27 36 L 27 39 L 30 39 z M 27 33 L 27 30 L 24 30 L 24 33 L 27 33 z M 24 33 L 21 33 L 18 33 L 18 36 L 21 36 L 24 36 L 24 33 z M 30 24 L 30 21 L 27 21 L 24 21 L 24 24 L 27 24 L 30 24 z M 45 33 L 45 30 L 45 27 L 42 27 L 39 27 L 39 30 L 42 30 L 42 33 L 45 33 z M 39 30 L 36 30 L 36 33 L 39 33 L 39 30 z M 45 27 L 48 27 L 51 27 L 54 27 L 54 24 L 51 24 L 48 24 L 45 24 L 45 27 z M 54 39 L 57 39 L 57 36 L 54 36 L 54 39 z M 69 27 L 72 27 L 72 24 L 69 24 L 69 27 z M 72 27 L 72 30 L 75 30 L 78 30 L 78 27 L 75 27 L 72 27 z M 30 3 L 27 3 L 27 6 L 30 6 L 30 3 z M 27 6 L 24 6 L 21 6 L 21 9 L 24 9 L 27 9 L 27 6 z M 21 9 L 18 9 L 18 12 L 18 15 L 15 15 L 12 15 L 9 15 L 9 18 L 9 21 L 12 21 L 12 18 L 15 18 L 18 18 L 21 18 L 21 15 L 21 12 L 21 9 z M 9 21 L 6 21 L 6 24 L 6 27 L 6 30 L 9 30 L 9 27 L 9 24 L 9 21 z M 36 9 L 36 12 L 39 12 L 39 9 L 36 9 z M 39 12 L 39 15 L 39 18 L 42 18 L 42 15 L 42 12 L 39 12 z M 42 18 L 42 21 L 45 21 L 48 21 L 48 18 L 45 18 L 42 18 z "
     id="rect700" />
  <path
     style="fill:#000000"
     d="M 87 12 L 87 15 L 87 18 L 87 21 L 87 24 L 90 24 L 90 21 L 90 18 L 90 15 L 90 12 L 87 12 z M 87 24 L 84 24 L 84 27 L 84 30 L 87 30 L 87 27 L 87 24 z M 87 30 L 87 33 L 87 36 L 87 39 L 90 39 L 90 36 L 90 33 L 90 30 L 87 30 z M 87 39 L 84 39 L 84 42 L 87 42 L 87 39 z M 84 42 L 81 42 L 81 45 L 81 48 L 84 48 L 84 45 L 84 42 z M 81 48 L 78 48 L 75 48 L 72 48 L 72 51 L 75 51 L 78 51 L 81 51 L 81 48 z M 72 48 L 72 45 L 69 45 L 66 45 L 63 45 L 63 48 L 63 51 L 66 51 L 66 48 L 69 48 L 72 48 z M 63 51 L 60 51 L 57 51 L 57 54 L 60 54 L 63 54 L 63 51 z M 57 51 L 57 48 L 54 48 L 51 48 L 48 48 L 48 51 L 51 51 L 54 51 L 57 51 z M 48 48 L 48 45 L 48 42 L 45 42 L 42 42 L 39 42 L 36 42 L 36 45 L 39 45 L 42 45 L 45 45 L 45 48 L 48 48 z M 36 45 L 33 45 L 30 45 L 30 42 L 27 42 L 27 45 L 27 48 L 30 48 L 33 48 L 36 48 L 36 45 z M 27 42 L 27 39 L 27 36 L 24 36 L 21 36 L 18 36 L 18 39 L 21 39 L 24 39 L 24 42 L 27 42 z M 18 36 L 18 33 L 15 33 L 12 33 L 12 36 L 15 36 L 18 36 z M 12 33 L 12 30 L 9 30 L 9 33 L 12 33 z "
     id="rect718" />
  <path
     style="fill:#007f7f"
     d="M 24 42 L 24 45 L 24 48 L 27 48 L 27 45 L 27 42 L 24 42 z M 42 45 L 42 48 L 45 48 L 45 45 L 42 45 z M 69 48 L 69 51 L 69 54 L 72 54 L 72 51 L 72 48 L 69 48 z M 21 51 L 21 54 L 24 54 L 24 51 L 21 51 z M 51 51 L 51 54 L 54 54 L 54 51 L 51 51 z M 30 54 L 30 57 L 30 60 L 33 60 L 33 57 L 33 54 L 30 54 z M 42 54 L 42 57 L 45 57 L 45 54 L 42 54 z M 60 54 L 60 57 L 63 57 L 63 54 L 60 54 z M 18 60 L 18 63 L 18 66 L 21 66 L 21 63 L 21 60 L 18 60 z M 36 60 L 36 63 L 36 66 L 39 66 L 39 63 L 39 60 L 36 60 z M 48 60 L 48 63 L 51 63 L 51 60 L 48 60 z M 45 66 L 45 69 L 45 72 L 48 72 L 48 69 L 48 66 L 45 66 z M 63 66 L 63 69 L 63 72 L 66 72 L 66 69 L 66 66 L 63 66 z M 33 69 L 33 72 L 33 75 L 36 75 L 36 72 L 36 69 L 33 69 z M 54 69 L 54 72 L 54 75 L 57 75 L 57 72 L 57 69 L 54 69 z M 42 75 L 42 78 L 42 81 L 45 81 L 45 78 L 45 75 L 42 75 z M 60 75 L 60 78 L 60 81 L 63 81 L 63 78 L 63 75 L 60 75 z M 21 78 L 21 81 L 24 81 L 24 78 L 21 78 z "
     id="rect764" />
</svg>
