<?xml version="1.0" encoding="UTF-8" standalone="no"?>
<svg
   xmlns:dc="http://purl.org/dc/elements/1.1/"
   xmlns:cc="http://creativecommons.org/ns#"
   xmlns:rdf="http://www.w3.org/1999/02/22-rdf-syntax-ns#"
   xmlns:svg="http://www.w3.org/2000/svg"
   xmlns="http://www.w3.org/2000/svg"
   id="svg3398"
   width="960px"
   version="1.1"
   height="960px">
  <metadata
     id="metadata3402">
    <rdf:RDF>
      <cc:Work
         rdf:about="">
        <dc:format>image/svg+xml</dc:format>
        <dc:type
           rdf:resource="http://purl.org/dc/dcmitype/StillImage" />
      </cc:Work>
    </rdf:RDF>
  </metadata>
  <defs
     id="defs2" />
  <path
     style="fill:#00ffff"
     d="M 280 60 L 280 80 L 300 80 L 300 60 L 280 60 z M 300 80 L 300 100 L 320 100 L 320 80 L 300 80 z M 320 100 L 320 120 L 340 120 L 340 100 L 320 100 z M 340 100 L 360 100 L 360 80 L 340 80 L 340 100 z M 360 80 L 380 80 L 380 60 L 360 60 L 360 80 z M 380 80 L 380 100 L 400 100 L 400 80 L 380 80 z M 400 100 L 400 120 L 420 120 L 420 100 L 400 100 z M 420 100 L 440 100 L 440 80 L 420 80 L 420 100 z M 440 80 L 460 80 L 460 60 L 440 60 L 440 80 z M 460 80 L 460 100 L 480 100 L 480 80 L 460 80 z M 480 100 L 480 120 L 500 120 L 500 100 L 480 100 z M 500 100 L 520 100 L 520 80 L 500 80 L 500 100 z M 520 80 L 540 80 L 540 60 L 520 60 L 520 80 z M 540 80 L 540 100 L 560 100 L 560 80 L 540 80 z M 560 80 L 580 80 L 580 60 L 560 60 L 560 80 z M 580 80 L 580 100 L 600 100 L 600 80 L 580 80 z M 600 100 L 600 120 L 620 120 L 620 100 L 600 100 z M 620 100 L 640 100 L 640 80 L 620 80 L 620 100 z M 640 80 L 660 80 L 660 60 L 640 60 L 640 80 z M 660 80 L 660 100 L 680 100 L 680 80 L 660 80 z M 680 100 L 680 120 L 700 120 L 700 100 L 680 100 z M 700 100 L 720 100 L 720 80 L 700 80 L 700 100 z M 720 80 L 740 80 L 740 60 L 720 60 L 720 80 z M 740 80 L 740 100 L 760 100 L 760 80 L 740 80 z M 760 100 L 760 120 L 780 120 L 780 100 L 760 100 z M 780 100 L 800 100 L 800 80 L 780 80 L 780 100 z M 760 120 L 740 120 L 740 140 L 760 140 L 760 120 z M 740 140 L 720 140 L 720 160 L 740 160 L 740 140 z M 740 160 L 740 180 L 760 180 L 760 160 L 740 160 z M 740 180 L 720 180 L 720 200 L 740 200 L 740 180 z M 720 200 L 700 200 L 700 220 L 720 220 L 720 200 z M 700 220 L 680 220 L 680 240 L 700 240 L 700 220 z M 700 240 L 700 260 L 720 260 L 720 240 L 700 240 z M 700 260 L 680 260 L 680 280 L 700 280 L 700 260 z M 680 280 L 660 280 L 660 300 L 680 300 L 680 280 z M 660 300 L 640 300 L 640 320 L 660 320 L 660 300 z M 660 320 L 660 340 L 680 340 L 680 320 L 660 320 z M 660 340 L 640 340 L 640 360 L 660 360 L 660 340 z M 640 360 L 620 360 L 620 380 L 640 380 L 640 360 z M 620 380 L 600 380 L 600 400 L 620 400 L 620 380 z M 620 400 L 620 420 L 640 420 L 640 400 L 620 400 z M 620 420 L 600 420 L 600 440 L 620 440 L 620 420 z M 600 440 L 580 440 L 580 460 L 600 460 L 600 440 z M 580 460 L 560 460 L 560 480 L 580 480 L 580 460 z M 580 480 L 580 500 L 600 500 L 600 480 L 580 480 z M 580 500 L 560 500 L 560 520 L 580 520 L 580 500 z M 560 520 L 540 520 L 540 540 L 560 540 L 560 520 z M 540 540 L 520 540 L 520 560 L 540 560 L 540 540 z M 520 540 L 520 520 L 500 520 L 500 540 L 520 540 z M 500 540 L 480 540 L 480 560 L 500 560 L 500 540 z M 480 540 L 480 520 L 460 520 L 460 540 L 480 540 z M 460 540 L 440 540 L 440 560 L 460 560 L 460 540 z M 440 540 L 440 520 L 420 520 L 420 540 L 440 540 z M 420 540 L 400 540 L 400 560 L 420 560 L 420 540 z M 400 540 L 400 520 L 380 520 L 380 540 L 400 540 z M 380 540 L 360 540 L 360 560 L 380 560 L 380 540 z M 360 540 L 360 520 L 340 520 L 340 540 L 360 540 z M 340 540 L 320 540 L 320 560 L 340 560 L 340 540 z M 320 540 L 320 520 L 300 520 L 300 540 L 320 540 z M 300 540 L 280 540 L 280 560 L 300 560 L 300 540 z M 280 540 L 280 520 L 260 520 L 260 540 L 280 540 z M 260 540 L 240 540 L 240 560 L 260 560 L 260 540 z M 240 540 L 240 520 L 220 520 L 220 540 L 240 540 z M 220 540 L 200 540 L 200 560 L 220 560 L 220 540 z M 200 540 L 200 520 L 180 520 L 180 540 L 200 540 z M 180 540 L 160 540 L 160 560 L 180 560 L 180 540 z M 160 540 L 160 520 L 140 520 L 140 540 L 160 540 z M 140 540 L 120 540 L 120 560 L 140 560 L 140 540 z M 120 540 L 120 520 L 100 520 L 100 540 L 120 540 z M 100 540 L 80 540 L 80 560 L 100 560 L 100 540 z M 80 540 L 80 520 L 60 520 L 60 540 L 80 540 z M 60 540 L 40 540 L 40 560 L 60 560 L 60 540 z M 60 520 L 60 500 L 40 500 L 40 520 L 60 520 z M 60 500 L 80 500 L 80 480 L 60 480 L 60 500 z M 80 480 L 100 480 L 100 460 L 80 460 L 80 480 z M 100 460 L 120 460 L 120 440 L 100 440 L 100 460 z M 100 440 L 100 420 L 80 420 L 80 440 L 100 440 z M 100 420 L 120 420 L 120 400 L 100 400 L 100 420 z M 120 400 L 140 400 L 140 380 L 120 380 L 120 400 z M 140 380 L 160 380 L 160 360 L 140 360 L 140 380 z M 140 360 L 140 340 L 120 340 L 120 360 L 140 360 z M 140 340 L 160 340 L 160 320 L 140 320 L 140 340 z M 160 320 L 180 320 L 180 300 L 160 300 L 160 320 z M 180 300 L 200 300 L 200 280 L 180 280 L 180 300 z M 180 280 L 180 260 L 160 260 L 160 280 L 180 280 z M 180 260 L 200 260 L 200 240 L 180 240 L 180 260 z M 200 240 L 220 240 L 220 220 L 200 220 L 200 240 z M 220 220 L 240 220 L 240 200 L 220 200 L 220 220 z M 220 200 L 220 180 L 200 180 L 200 200 L 220 200 z M 220 180 L 240 180 L 240 160 L 220 160 L 220 180 z M 240 160 L 260 160 L 260 140 L 240 140 L 240 160 z M 260 140 L 280 140 L 280 120 L 260 120 L 260 140 z M 260 120 L 260 100 L 240 100 L 240 120 L 260 120 z M 260 100 L 280 100 L 280 80 L 260 80 L 260 100 z M 280 100 L 280 120 L 300 120 L 300 100 L 280 100 z M 300 120 L 300 140 L 320 140 L 320 120 L 300 120 z M 320 140 L 320 160 L 340 160 L 340 140 L 320 140 z M 340 140 L 360 140 L 360 120 L 340 120 L 340 140 z M 360 120 L 380 120 L 380 100 L 360 100 L 360 120 z M 380 120 L 380 140 L 400 140 L 400 120 L 380 120 z M 400 140 L 400 160 L 420 160 L 420 140 L 400 140 z M 420 140 L 440 140 L 440 120 L 420 120 L 420 140 z M 440 120 L 460 120 L 460 100 L 440 100 L 440 120 z M 460 120 L 460 140 L 480 140 L 480 120 L 460 120 z M 480 140 L 480 160 L 500 160 L 500 140 L 480 140 z M 500 140 L 520 140 L 520 120 L 500 120 L 500 140 z M 520 120 L 540 120 L 540 100 L 520 100 L 520 120 z M 540 120 L 540 140 L 560 140 L 560 120 L 540 120 z M 560 120 L 580 120 L 580 100 L 560 100 L 560 120 z M 580 120 L 580 140 L 600 140 L 600 120 L 580 120 z M 600 140 L 600 160 L 620 160 L 620 140 L 600 140 z M 620 140 L 640 140 L 640 120 L 620 120 L 620 140 z M 640 120 L 660 120 L 660 100 L 640 100 L 640 120 z M 660 120 L 660 140 L 680 140 L 680 120 L 660 120 z M 680 140 L 680 160 L 700 160 L 700 140 L 680 140 z M 700 140 L 720 140 L 720 120 L 700 120 L 700 140 z M 720 120 L 740 120 L 740 100 L 720 100 L 720 120 z M 700 160 L 700 180 L 720 180 L 720 160 L 700 160 z M 700 180 L 680 180 L 680 200 L 700 200 L 700 180 z M 680 200 L 660 200 L 660 220 L 680 220 L 680 200 z M 660 220 L 640 220 L 640 240 L 660 240 L 660 220 z M 660 240 L 660 260 L 680 260 L 680 240 L 660 240 z M 660 260 L 640 260 L 640 280 L 660 280 L 660 260 z M 640 280 L 620 280 L 620 300 L 640 300 L 640 280 z M 620 300 L 600 300 L 600 320 L 620 320 L 620 300 z M 620 320 L 620 340 L 640 340 L 640 320 L 620 320 z M 620 340 L 600 340 L 600 360 L 620 360 L 620 340 z M 600 360 L 580 360 L 580 380 L 600 380 L 600 360 z M 580 380 L 560 380 L 560 400 L 580 400 L 580 380 z M 580 400 L 580 420 L 600 420 L 600 400 L 580 400 z M 580 420 L 560 420 L 560 440 L 580 440 L 580 420 z M 560 440 L 540 440 L 540 460 L 560 460 L 560 440 z M 540 460 L 520 460 L 520 480 L 540 480 L 540 460 z M 540 480 L 540 500 L 560 500 L 560 480 L 540 480 z M 540 500 L 520 500 L 520 520 L 540 520 L 540 500 z M 520 500 L 520 480 L 500 480 L 500 500 L 520 500 z M 500 500 L 480 500 L 480 520 L 500 520 L 500 500 z M 480 500 L 480 480 L 460 480 L 460 500 L 480 500 z M 460 500 L 440 500 L 440 520 L 460 520 L 460 500 z M 440 500 L 440 480 L 420 480 L 420 500 L 440 500 z M 420 500 L 400 500 L 400 520 L 420 520 L 420 500 z M 400 500 L 400 480 L 380 480 L 380 500 L 400 500 z M 380 500 L 360 500 L 360 520 L 380 520 L 380 500 z M 360 500 L 360 480 L 340 480 L 340 500 L 360 500 z M 340 500 L 320 500 L 320 520 L 340 520 L 340 500 z M 320 500 L 320 480 L 300 480 L 300 500 L 320 500 z M 300 500 L 280 500 L 280 520 L 300 520 L 300 500 z M 280 500 L 280 480 L 260 480 L 260 500 L 280 500 z M 260 500 L 240 500 L 240 520 L 260 520 L 260 500 z M 240 500 L 240 480 L 220 480 L 220 500 L 240 500 z M 220 500 L 200 500 L 200 520 L 220 520 L 220 500 z M 200 500 L 200 480 L 180 480 L 180 500 L 200 500 z M 180 500 L 160 500 L 160 520 L 180 520 L 180 500 z M 160 500 L 160 480 L 140 480 L 140 500 L 160 500 z M 140 500 L 120 500 L 120 520 L 140 520 L 140 500 z M 120 500 L 120 480 L 100 480 L 100 500 L 120 500 z M 100 500 L 80 500 L 80 520 L 100 520 L 100 500 z M 120 480 L 140 480 L 140 460 L 120 460 L 120 480 z M 140 460 L 160 460 L 160 440 L 140 440 L 140 460 z M 140 440 L 140 420 L 120 420 L 120 440 L 140 440 z M 140 420 L 160 420 L 160 400 L 140 400 L 140 420 z M 160 400 L 180 400 L 180 380 L 160 380 L 160 400 z M 180 380 L 200 380 L 200 360 L 180 360 L 180 380 z M 180 360 L 180 340 L 160 340 L 160 360 L 180 360 z M 180 340 L 200 340 L 200 320 L 180 320 L 180 340 z M 200 320 L 220 320 L 220 300 L 200 300 L 200 320 z M 220 300 L 240 300 L 240 280 L 220 280 L 220 300 z M 220 280 L 220 260 L 200 260 L 200 280 L 220 280 z M 220 260 L 240 260 L 240 240 L 220 240 L 220 260 z M 240 240 L 260 240 L 260 220 L 240 220 L 240 240 z M 260 220 L 280 220 L 280 200 L 260 200 L 260 220 z M 260 200 L 260 180 L 240 180 L 240 200 L 260 200 z M 260 180 L 280 180 L 280 160 L 260 160 L 260 180 z M 280 160 L 300 160 L 300 140 L 280 140 L 280 160 z M 300 160 L 300 180 L 320 180 L 320 160 L 300 160 z M 320 180 L 320 200 L 340 200 L 340 180 L 320 180 z M 340 180 L 360 180 L 360 160 L 340 160 L 340 180 z M 360 160 L 380 160 L 380 140 L 360 140 L 360 160 z M 380 160 L 380 180 L 400 180 L 400 160 L 380 160 z M 320 200 L 300 200 L 300 220 L 320 220 L 320 200 z M 320 220 L 320 240 L 340 240 L 340 220 L 320 220 z M 320 240 L 300 240 L 300 260 L 320 260 L 320 240 z M 300 260 L 280 260 L 280 280 L 300 280 L 300 260 z M 300 280 L 300 300 L 320 300 L 320 280 L 300 280 z M 320 300 L 320 320 L 340 320 L 340 300 L 320 300 z M 340 300 L 360 300 L 360 280 L 340 280 L 340 300 z M 360 300 L 360 320 L 380 320 L 380 300 L 360 300 z M 380 300 L 400 300 L 400 280 L 380 280 L 380 300 z M 400 300 L 400 320 L 420 320 L 420 300 L 400 300 z M 420 300 L 440 300 L 440 280 L 420 280 L 420 300 z M 440 300 L 440 320 L 460 320 L 460 300 L 440 300 z M 460 300 L 480 300 L 480 280 L 460 280 L 460 300 z M 480 300 L 480 320 L 500 320 L 500 300 L 480 300 z M 500 300 L 520 300 L 520 280 L 500 280 L 500 300 z M 520 300 L 520 320 L 540 320 L 540 300 L 520 300 z M 540 300 L 560 300 L 560 280 L 540 280 L 540 300 z M 560 300 L 560 320 L 580 320 L 580 300 L 560 300 z M 580 300 L 600 300 L 600 280 L 580 280 L 580 300 z M 600 280 L 620 280 L 620 260 L 600 260 L 600 280 z M 620 260 L 640 260 L 640 240 L 620 240 L 620 260 z M 620 240 L 620 220 L 600 220 L 600 240 L 620 240 z M 620 220 L 640 220 L 640 200 L 620 200 L 620 220 z M 640 200 L 660 200 L 660 180 L 640 180 L 640 200 z M 640 180 L 640 160 L 620 160 L 620 180 L 640 180 z M 640 160 L 660 160 L 660 140 L 640 140 L 640 160 z M 660 160 L 660 180 L 680 180 L 680 160 L 660 160 z M 580 320 L 580 340 L 600 340 L 600 320 L 580 320 z M 580 340 L 560 340 L 560 360 L 580 360 L 580 340 z M 560 360 L 540 360 L 540 380 L 560 380 L 560 360 z M 540 380 L 520 380 L 520 400 L 540 400 L 540 380 z M 540 400 L 540 420 L 560 420 L 560 400 L 540 400 z M 540 420 L 520 420 L 520 440 L 540 440 L 540 420 z M 520 440 L 500 440 L 500 460 L 520 460 L 520 440 z M 500 460 L 480 460 L 480 480 L 500 480 L 500 460 z M 480 460 L 480 440 L 460 440 L 460 460 L 480 460 z M 460 460 L 440 460 L 440 480 L 460 480 L 460 460 z M 440 460 L 440 440 L 420 440 L 420 460 L 440 460 z M 420 460 L 400 460 L 400 480 L 420 480 L 420 460 z M 400 460 L 400 440 L 380 440 L 380 460 L 400 460 z M 380 460 L 360 460 L 360 480 L 380 480 L 380 460 z M 360 460 L 360 440 L 340 440 L 340 460 L 360 460 z M 340 460 L 320 460 L 320 480 L 340 480 L 340 460 z M 320 460 L 320 440 L 300 440 L 300 460 L 320 460 z M 300 460 L 280 460 L 280 480 L 300 480 L 300 460 z M 280 460 L 280 440 L 260 440 L 260 460 L 280 460 z M 260 460 L 240 460 L 240 480 L 260 480 L 260 460 z M 240 460 L 240 440 L 220 440 L 220 460 L 240 460 z M 220 460 L 200 460 L 200 480 L 220 480 L 220 460 z M 200 460 L 200 440 L 180 440 L 180 460 L 200 460 z M 180 460 L 160 460 L 160 480 L 180 480 L 180 460 z M 180 440 L 180 420 L 160 420 L 160 440 L 180 440 z M 180 420 L 200 420 L 200 400 L 180 400 L 180 420 z M 200 400 L 220 400 L 220 380 L 200 380 L 200 400 z M 220 380 L 240 380 L 240 360 L 220 360 L 220 380 z M 220 360 L 220 340 L 200 340 L 200 360 L 220 360 z M 220 340 L 240 340 L 240 320 L 220 320 L 220 340 z M 240 320 L 260 320 L 260 300 L 240 300 L 240 320 z M 260 300 L 280 300 L 280 280 L 260 280 L 260 300 z M 260 280 L 260 260 L 240 260 L 240 280 L 260 280 z M 260 260 L 280 260 L 280 240 L 260 240 L 260 260 z M 280 240 L 300 240 L 300 220 L 280 220 L 280 240 z M 280 300 L 280 320 L 300 320 L 300 300 L 280 300 z M 300 320 L 300 340 L 320 340 L 320 320 L 300 320 z M 320 340 L 320 360 L 340 360 L 340 340 L 320 340 z M 340 340 L 360 340 L 360 320 L 340 320 L 340 340 z M 360 340 L 360 360 L 380 360 L 380 340 L 360 340 z M 380 340 L 400 340 L 400 320 L 380 320 L 380 340 z M 400 340 L 400 360 L 420 360 L 420 340 L 400 340 z M 420 340 L 440 340 L 440 320 L 420 320 L 420 340 z M 440 340 L 440 360 L 460 360 L 460 340 L 440 340 z M 460 340 L 480 340 L 480 320 L 460 320 L 460 340 z M 480 340 L 480 360 L 500 360 L 500 340 L 480 340 z M 500 340 L 520 340 L 520 320 L 500 320 L 500 340 z M 520 340 L 520 360 L 540 360 L 540 340 L 520 340 z M 540 340 L 560 340 L 560 320 L 540 320 L 540 340 z M 520 360 L 500 360 L 500 380 L 520 380 L 520 360 z M 500 380 L 480 380 L 480 400 L 500 400 L 500 380 z M 500 400 L 500 420 L 520 420 L 520 400 L 500 400 z M 500 420 L 480 420 L 480 440 L 500 440 L 500 420 z M 480 420 L 480 400 L 460 400 L 460 420 L 480 420 z M 460 420 L 440 420 L 440 440 L 460 440 L 460 420 z M 440 420 L 440 400 L 420 400 L 420 420 L 440 420 z M 420 420 L 400 420 L 400 440 L 420 440 L 420 420 z M 400 420 L 400 400 L 380 400 L 380 420 L 400 420 z M 380 420 L 360 420 L 360 440 L 380 440 L 380 420 z M 360 420 L 360 400 L 340 400 L 340 420 L 360 420 z M 340 420 L 320 420 L 320 440 L 340 440 L 340 420 z M 320 420 L 320 400 L 300 400 L 300 420 L 320 420 z M 300 420 L 280 420 L 280 440 L 300 440 L 300 420 z M 280 420 L 280 400 L 260 400 L 260 420 L 280 420 z M 260 420 L 240 420 L 240 440 L 260 440 L 260 420 z M 240 420 L 240 400 L 220 400 L 220 420 L 240 420 z M 220 420 L 200 420 L 200 440 L 220 440 L 220 420 z M 240 400 L 260 400 L 260 380 L 240 380 L 240 400 z M 260 380 L 280 380 L 280 360 L 260 360 L 260 380 z M 260 360 L 260 340 L 240 340 L 240 360 L 260 360 z M 260 340 L 280 340 L 280 320 L 260 320 L 260 340 z M 280 340 L 280 360 L 300 360 L 300 340 L 280 340 z M 300 360 L 300 380 L 320 380 L 320 360 L 300 360 z M 320 380 L 320 400 L 340 400 L 340 380 L 320 380 z M 340 380 L 360 380 L 360 360 L 340 360 L 340 380 z M 360 380 L 360 400 L 380 400 L 380 380 L 360 380 z M 380 380 L 400 380 L 400 360 L 380 360 L 380 380 z M 400 380 L 400 400 L 420 400 L 420 380 L 400 380 z M 420 380 L 440 380 L 440 360 L 420 360 L 420 380 z M 440 380 L 440 400 L 460 400 L 460 380 L 440 380 z M 460 380 L 480 380 L 480 360 L 460 360 L 460 380 z M 300 380 L 280 380 L 280 400 L 300 400 L 300 380 z M 300 200 L 300 180 L 280 180 L 280 200 L 300 200 z M 600 160 L 580 160 L 580 180 L 600 180 L 600 160 z M 580 160 L 580 140 L 560 140 L 560 160 L 580 160 z M 560 160 L 540 160 L 540 180 L 560 180 L 560 160 z M 540 160 L 540 140 L 520 140 L 520 160 L 540 160 z M 520 160 L 500 160 L 500 180 L 520 180 L 520 160 z M 480 160 L 460 160 L 460 180 L 480 180 L 480 160 z M 460 160 L 460 140 L 440 140 L 440 160 L 460 160 z M 440 160 L 420 160 L 420 180 L 440 180 L 440 160 z M 360 220 L 360 240 L 380 240 L 380 220 L 360 220 z M 400 220 L 400 240 L 420 240 L 420 220 L 400 220 z M 440 220 L 440 240 L 460 240 L 460 220 L 440 220 z M 480 220 L 480 240 L 500 240 L 500 220 L 480 220 z M 520 220 L 520 240 L 540 240 L 540 220 L 520 220 z M 560 220 L 560 240 L 580 240 L 580 220 L 560 220 z "
     id="rect2150" />
  <path
     style="fill:#008080"
     d="M 800 60 L 800 80 L 800 100 L 780 100 L 780 120 L 780 140 L 760 140 L 760 160 L 760 180 L 740 180 L 740 200 L 740 220 L 720 220 L 720 240 L 720 260 L 700 260 L 700 280 L 700 300 L 680 300 L 680 320 L 680 340 L 660 340 L 660 360 L 660 380 L 640 380 L 640 400 L 640 420 L 620 420 L 620 440 L 620 460 L 600 460 L 600 480 L 600 500 L 580 500 L 580 520 L 560 520 L 560 540 L 540 540 L 540 560 L 520 560 L 500 560 L 480 560 L 460 560 L 440 560 L 420 560 L 400 560 L 380 560 L 360 560 L 340 560 L 320 560 L 300 560 L 280 560 L 260 560 L 240 560 L 220 560 L 200 560 L 180 560 L 160 560 L 140 560 L 120 560 L 100 560 L 80 560 L 60 560 L 40 560 L 40 580 L 40 600 L 60 600 L 80 600 L 100 600 L 120 600 L 140 600 L 160 600 L 180 600 L 200 600 L 220 600 L 240 600 L 260 600 L 280 600 L 300 600 L 320 600 L 340 600 L 360 600 L 380 600 L 400 600 L 420 600 L 440 600 L 460 600 L 480 600 L 500 600 L 520 600 L 520 580 L 540 580 L 560 580 L 580 580 L 580 560 L 600 560 L 600 540 L 600 520 L 620 520 L 620 500 L 620 480 L 640 480 L 640 460 L 640 440 L 660 440 L 660 420 L 660 400 L 680 400 L 680 380 L 680 360 L 700 360 L 700 340 L 700 320 L 720 320 L 720 300 L 720 280 L 740 280 L 740 260 L 740 240 L 760 240 L 760 220 L 760 200 L 780 200 L 780 180 L 780 160 L 800 160 L 800 140 L 800 120 L 820 120 L 820 100 L 820 80 L 840 80 L 840 60 L 820 60 L 800 60 z "
     id="rect2332" />
  <path
     style="fill:#ffffff"
     d="M 340 0 L 340 20 L 360 20 L 360 40 L 380 40 L 380 60 L 400 60 L 420 60 L 420 40 L 400 40 L 400 20 L 380 20 L 380 0 L 360 0 L 340 0 z M 440 0 L 440 20 L 460 20 L 460 40 L 480 40 L 480 60 L 500 60 L 520 60 L 520 40 L 500 40 L 500 20 L 480 20 L 480 0 L 460 0 L 440 0 z M 540 0 L 540 20 L 560 20 L 560 40 L 580 40 L 580 60 L 600 60 L 620 60 L 620 40 L 600 40 L 600 20 L 580 20 L 580 0 L 560 0 L 540 0 z M 640 0 L 640 20 L 660 20 L 660 40 L 680 40 L 680 60 L 700 60 L 720 60 L 720 40 L 700 40 L 700 20 L 680 20 L 680 0 L 660 0 L 640 0 z M 720 0 L 720 20 L 740 20 L 740 40 L 760 40 L 760 60 L 780 60 L 800 60 L 800 40 L 780 40 L 780 20 L 760 20 L 760 0 L 740 0 L 720 0 z M 300 40 L 300 60 L 320 60 L 320 40 L 300 40 z M 820 340 L 820 360 L 820 380 L 840 380 L 840 360 L 840 340 L 820 340 z M 780 420 L 780 440 L 780 460 L 780 480 L 800 480 L 820 480 L 840 480 L 840 460 L 840 440 L 840 420 L 820 420 L 800 420 L 780 420 z M 760 520 L 760 540 L 760 560 L 780 560 L 800 560 L 820 560 L 840 560 L 840 540 L 840 520 L 820 520 L 800 520 L 780 520 L 760 520 z M 720 600 L 720 620 L 720 640 L 720 660 L 740 660 L 760 660 L 780 660 L 800 660 L 820 660 L 840 660 L 840 640 L 840 620 L 840 600 L 820 600 L 800 600 L 780 600 L 760 600 L 740 600 L 720 600 z M 700 700 L 700 720 L 700 740 L 720 740 L 740 740 L 760 740 L 780 740 L 800 740 L 820 740 L 840 740 L 840 720 L 840 700 L 820 700 L 800 700 L 780 700 L 760 700 L 740 700 L 720 700 L 700 700 z M 640 780 L 640 800 L 620 800 L 600 800 L 580 800 L 560 800 L 540 800 L 520 800 L 500 800 L 480 800 L 460 800 L 440 800 L 420 800 L 400 800 L 380 800 L 360 800 L 340 800 L 320 800 L 300 800 L 300 820 L 300 840 L 320 840 L 340 840 L 360 840 L 380 840 L 400 840 L 420 840 L 440 840 L 460 840 L 480 840 L 500 840 L 520 840 L 540 840 L 560 840 L 580 840 L 600 840 L 620 840 L 640 840 L 660 840 L 680 840 L 700 840 L 720 840 L 740 840 L 760 840 L 780 840 L 800 840 L 800 820 L 820 820 L 820 800 L 840 800 L 840 780 L 820 780 L 800 780 L 780 780 L 760 780 L 740 780 L 720 780 L 700 780 L 680 780 L 660 780 L 640 780 z "
     id="rect3154" />
  <path
     style="fill:#c0c0c0"
     d="M 340 60 L 340 80 L 360 80 L 360 60 L 340 60 z M 360 80 L 360 100 L 380 100 L 380 80 L 360 80 z M 380 100 L 380 120 L 400 120 L 400 100 L 380 100 z M 400 100 L 420 100 L 420 80 L 400 80 L 400 100 z M 420 80 L 440 80 L 440 60 L 420 60 L 420 80 z M 440 80 L 440 100 L 460 100 L 460 80 L 440 80 z M 460 80 L 480 80 L 480 60 L 460 60 L 460 80 z M 480 80 L 480 100 L 500 100 L 500 80 L 480 80 z M 500 100 L 500 120 L 520 120 L 520 100 L 500 100 z M 520 100 L 540 100 L 540 80 L 520 80 L 520 100 z M 540 80 L 560 80 L 560 60 L 540 60 L 540 80 z M 560 80 L 560 100 L 580 100 L 580 80 L 560 80 z M 580 100 L 580 120 L 600 120 L 600 100 L 580 100 z M 600 100 L 620 100 L 620 80 L 600 80 L 600 100 z M 620 80 L 640 80 L 640 60 L 620 60 L 620 80 z M 640 80 L 640 100 L 660 100 L 660 80 L 640 80 z M 660 80 L 680 80 L 680 60 L 660 60 L 660 80 z M 680 80 L 680 100 L 700 100 L 700 80 L 680 80 z M 700 100 L 700 120 L 720 120 L 720 100 L 700 100 z M 720 100 L 740 100 L 740 80 L 720 80 L 720 100 z M 740 80 L 760 80 L 760 60 L 740 60 L 740 80 z M 760 80 L 760 100 L 780 100 L 780 80 L 760 80 z M 760 100 L 740 100 L 740 120 L 760 120 L 760 100 z M 760 120 L 760 140 L 780 140 L 780 120 L 760 120 z M 760 140 L 740 140 L 740 160 L 760 160 L 760 140 z M 740 160 L 720 160 L 720 180 L 740 180 L 740 160 z M 720 180 L 700 180 L 700 200 L 720 200 L 720 180 z M 720 200 L 720 220 L 740 220 L 740 200 L 720 200 z M 720 220 L 700 220 L 700 240 L 720 240 L 720 220 z M 700 240 L 680 240 L 680 260 L 700 260 L 700 240 z M 680 260 L 660 260 L 660 280 L 680 280 L 680 260 z M 680 280 L 680 300 L 700 300 L 700 280 L 680 280 z M 680 300 L 660 300 L 660 320 L 680 320 L 680 300 z M 660 320 L 640 320 L 640 340 L 660 340 L 660 320 z M 640 340 L 620 340 L 620 360 L 640 360 L 640 340 z M 640 360 L 640 380 L 660 380 L 660 360 L 640 360 z M 640 380 L 620 380 L 620 400 L 640 400 L 640 380 z M 620 400 L 600 400 L 600 420 L 620 420 L 620 400 z M 600 420 L 580 420 L 580 440 L 600 440 L 600 420 z M 600 440 L 600 460 L 620 460 L 620 440 L 600 440 z M 600 460 L 580 460 L 580 480 L 600 480 L 600 460 z M 580 480 L 560 480 L 560 500 L 580 500 L 580 480 z M 560 500 L 540 500 L 540 520 L 560 520 L 560 500 z M 540 520 L 520 520 L 520 540 L 540 540 L 540 520 z M 520 540 L 500 540 L 500 560 L 520 560 L 520 540 z M 500 540 L 500 520 L 480 520 L 480 540 L 500 540 z M 480 540 L 460 540 L 460 560 L 480 560 L 480 540 z M 460 540 L 460 520 L 440 520 L 440 540 L 460 540 z M 440 540 L 420 540 L 420 560 L 440 560 L 440 540 z M 420 540 L 420 520 L 400 520 L 400 540 L 420 540 z M 400 540 L 380 540 L 380 560 L 400 560 L 400 540 z M 380 540 L 380 520 L 360 520 L 360 540 L 380 540 z M 360 540 L 340 540 L 340 560 L 360 560 L 360 540 z M 340 540 L 340 520 L 320 520 L 320 540 L 340 540 z M 320 540 L 300 540 L 300 560 L 320 560 L 320 540 z M 300 540 L 300 520 L 280 520 L 280 540 L 300 540 z M 280 540 L 260 540 L 260 560 L 280 560 L 280 540 z M 260 540 L 260 520 L 240 520 L 240 540 L 260 540 z M 240 540 L 220 540 L 220 560 L 240 560 L 240 540 z M 220 540 L 220 520 L 200 520 L 200 540 L 220 540 z M 200 540 L 180 540 L 180 560 L 200 560 L 200 540 z M 180 540 L 180 520 L 160 520 L 160 540 L 180 540 z M 160 540 L 140 540 L 140 560 L 160 560 L 160 540 z M 140 540 L 140 520 L 120 520 L 120 540 L 140 540 z M 120 540 L 100 540 L 100 560 L 120 560 L 120 540 z M 100 540 L 100 520 L 80 520 L 80 540 L 100 540 z M 80 540 L 60 540 L 60 560 L 80 560 L 80 540 z M 60 540 L 60 520 L 40 520 L 40 540 L 60 540 z M 40 540 L 20 540 L 20 560 L 40 560 L 40 540 z M 60 520 L 80 520 L 80 500 L 60 500 L 60 520 z M 80 500 L 100 500 L 100 480 L 80 480 L 80 500 z M 80 480 L 80 460 L 60 460 L 60 480 L 80 480 z M 80 460 L 100 460 L 100 440 L 80 440 L 80 460 z M 100 440 L 120 440 L 120 420 L 100 420 L 100 440 z M 120 420 L 140 420 L 140 400 L 120 400 L 120 420 z M 120 400 L 120 380 L 100 380 L 100 400 L 120 400 z M 120 380 L 140 380 L 140 360 L 120 360 L 120 380 z M 140 360 L 160 360 L 160 340 L 140 340 L 140 360 z M 160 340 L 180 340 L 180 320 L 160 320 L 160 340 z M 160 320 L 160 300 L 140 300 L 140 320 L 160 320 z M 160 300 L 180 300 L 180 280 L 160 280 L 160 300 z M 180 280 L 200 280 L 200 260 L 180 260 L 180 280 z M 200 260 L 220 260 L 220 240 L 200 240 L 200 260 z M 200 240 L 200 220 L 180 220 L 180 240 L 200 240 z M 200 220 L 220 220 L 220 200 L 200 200 L 200 220 z M 220 200 L 240 200 L 240 180 L 220 180 L 220 200 z M 240 180 L 260 180 L 260 160 L 240 160 L 240 180 z M 240 160 L 240 140 L 220 140 L 220 160 L 240 160 z M 240 140 L 260 140 L 260 120 L 240 120 L 240 140 z M 260 120 L 280 120 L 280 100 L 260 100 L 260 120 z M 280 100 L 300 100 L 300 80 L 280 80 L 280 100 z M 300 100 L 300 120 L 320 120 L 320 100 L 300 100 z M 320 100 L 340 100 L 340 80 L 320 80 L 320 100 z M 340 100 L 340 120 L 360 120 L 360 100 L 340 100 z M 360 120 L 360 140 L 380 140 L 380 120 L 360 120 z M 380 140 L 380 160 L 400 160 L 400 140 L 380 140 z M 400 140 L 420 140 L 420 120 L 400 120 L 400 140 z M 420 120 L 440 120 L 440 100 L 420 100 L 420 120 z M 440 120 L 440 140 L 460 140 L 460 120 L 440 120 z M 460 120 L 480 120 L 480 100 L 460 100 L 460 120 z M 480 120 L 480 140 L 500 140 L 500 120 L 480 120 z M 500 140 L 500 160 L 520 160 L 520 140 L 500 140 z M 520 140 L 540 140 L 540 120 L 520 120 L 520 140 z M 540 120 L 560 120 L 560 100 L 540 100 L 540 120 z M 560 120 L 560 140 L 580 140 L 580 120 L 560 120 z M 580 140 L 580 160 L 600 160 L 600 140 L 580 140 z M 600 140 L 620 140 L 620 120 L 600 120 L 600 140 z M 620 120 L 640 120 L 640 100 L 620 100 L 620 120 z M 640 120 L 640 140 L 660 140 L 660 120 L 640 120 z M 660 120 L 680 120 L 680 100 L 660 100 L 660 120 z M 680 120 L 680 140 L 700 140 L 700 120 L 680 120 z M 700 140 L 700 160 L 720 160 L 720 140 L 700 140 z M 720 140 L 740 140 L 740 120 L 720 120 L 720 140 z M 700 160 L 680 160 L 680 180 L 700 180 L 700 160 z M 680 180 L 660 180 L 660 200 L 680 200 L 680 180 z M 680 200 L 680 220 L 700 220 L 700 200 L 680 200 z M 680 220 L 660 220 L 660 240 L 680 240 L 680 220 z M 660 240 L 640 240 L 640 260 L 660 260 L 660 240 z M 640 260 L 620 260 L 620 280 L 640 280 L 640 260 z M 640 280 L 640 300 L 660 300 L 660 280 L 640 280 z M 640 300 L 620 300 L 620 320 L 640 320 L 640 300 z M 620 320 L 600 320 L 600 340 L 620 340 L 620 320 z M 600 340 L 580 340 L 580 360 L 600 360 L 600 340 z M 600 360 L 600 380 L 620 380 L 620 360 L 600 360 z M 600 380 L 580 380 L 580 400 L 600 400 L 600 380 z M 580 400 L 560 400 L 560 420 L 580 420 L 580 400 z M 560 420 L 540 420 L 540 440 L 560 440 L 560 420 z M 560 440 L 560 460 L 580 460 L 580 440 L 560 440 z M 560 460 L 540 460 L 540 480 L 560 480 L 560 460 z M 540 480 L 520 480 L 520 500 L 540 500 L 540 480 z M 520 500 L 500 500 L 500 520 L 520 520 L 520 500 z M 500 500 L 500 480 L 480 480 L 480 500 L 500 500 z M 480 500 L 460 500 L 460 520 L 480 520 L 480 500 z M 460 500 L 460 480 L 440 480 L 440 500 L 460 500 z M 440 500 L 420 500 L 420 520 L 440 520 L 440 500 z M 420 500 L 420 480 L 400 480 L 400 500 L 420 500 z M 400 500 L 380 500 L 380 520 L 400 520 L 400 500 z M 380 500 L 380 480 L 360 480 L 360 500 L 380 500 z M 360 500 L 340 500 L 340 520 L 360 520 L 360 500 z M 340 500 L 340 480 L 320 480 L 320 500 L 340 500 z M 320 500 L 300 500 L 300 520 L 320 520 L 320 500 z M 300 500 L 300 480 L 280 480 L 280 500 L 300 500 z M 280 500 L 260 500 L 260 520 L 280 520 L 280 500 z M 260 500 L 260 480 L 240 480 L 240 500 L 260 500 z M 240 500 L 220 500 L 220 520 L 240 520 L 240 500 z M 220 500 L 220 480 L 200 480 L 200 500 L 220 500 z M 200 500 L 180 500 L 180 520 L 200 520 L 200 500 z M 180 500 L 180 480 L 160 480 L 160 500 L 180 500 z M 160 500 L 140 500 L 140 520 L 160 520 L 160 500 z M 140 500 L 140 480 L 120 480 L 120 500 L 140 500 z M 120 500 L 100 500 L 100 520 L 120 520 L 120 500 z M 120 480 L 120 460 L 100 460 L 100 480 L 120 480 z M 120 460 L 140 460 L 140 440 L 120 440 L 120 460 z M 140 440 L 160 440 L 160 420 L 140 420 L 140 440 z M 160 420 L 180 420 L 180 400 L 160 400 L 160 420 z M 160 400 L 160 380 L 140 380 L 140 400 L 160 400 z M 160 380 L 180 380 L 180 360 L 160 360 L 160 380 z M 180 360 L 200 360 L 200 340 L 180 340 L 180 360 z M 200 340 L 220 340 L 220 320 L 200 320 L 200 340 z M 200 320 L 200 300 L 180 300 L 180 320 L 200 320 z M 200 300 L 220 300 L 220 280 L 200 280 L 200 300 z M 220 280 L 240 280 L 240 260 L 220 260 L 220 280 z M 240 260 L 260 260 L 260 240 L 240 240 L 240 260 z M 240 240 L 240 220 L 220 220 L 220 240 L 240 240 z M 240 220 L 260 220 L 260 200 L 240 200 L 240 220 z M 260 200 L 280 200 L 280 180 L 260 180 L 260 200 z M 280 180 L 300 180 L 300 160 L 280 160 L 280 180 z M 280 160 L 280 140 L 260 140 L 260 160 L 280 160 z M 280 140 L 300 140 L 300 120 L 280 120 L 280 140 z M 300 140 L 300 160 L 320 160 L 320 140 L 300 140 z M 320 140 L 340 140 L 340 120 L 320 120 L 320 140 z M 340 140 L 340 160 L 360 160 L 360 140 L 340 140 z M 360 160 L 360 180 L 380 180 L 380 160 L 360 160 z M 340 160 L 320 160 L 320 180 L 340 180 L 340 160 z M 320 180 L 300 180 L 300 200 L 320 200 L 320 180 z M 300 200 L 280 200 L 280 220 L 300 220 L 300 200 z M 300 220 L 300 240 L 320 240 L 320 220 L 300 220 z M 300 240 L 280 240 L 280 260 L 300 260 L 300 240 z M 280 260 L 260 260 L 260 280 L 280 280 L 280 260 z M 280 280 L 280 300 L 300 300 L 300 280 L 280 280 z M 300 300 L 300 320 L 320 320 L 320 300 L 300 300 z M 320 300 L 340 300 L 340 280 L 320 280 L 320 300 z M 340 300 L 340 320 L 360 320 L 360 300 L 340 300 z M 360 300 L 380 300 L 380 280 L 360 280 L 360 300 z M 380 300 L 380 320 L 400 320 L 400 300 L 380 300 z M 400 300 L 420 300 L 420 280 L 400 280 L 400 300 z M 420 300 L 420 320 L 440 320 L 440 300 L 420 300 z M 440 300 L 460 300 L 460 280 L 440 280 L 440 300 z M 460 300 L 460 320 L 480 320 L 480 300 L 460 300 z M 480 300 L 500 300 L 500 280 L 480 280 L 480 300 z M 500 300 L 500 320 L 520 320 L 520 300 L 500 300 z M 520 300 L 540 300 L 540 280 L 520 280 L 520 300 z M 540 300 L 540 320 L 560 320 L 560 300 L 540 300 z M 560 300 L 580 300 L 580 280 L 560 280 L 560 300 z M 580 280 L 600 280 L 600 260 L 580 260 L 580 280 z M 600 260 L 620 260 L 620 240 L 600 240 L 600 260 z M 600 240 L 600 220 L 580 220 L 580 240 L 600 240 z M 620 240 L 640 240 L 640 220 L 620 220 L 620 240 z M 640 220 L 660 220 L 660 200 L 640 200 L 640 220 z M 600 280 L 600 300 L 620 300 L 620 280 L 600 280 z M 600 300 L 580 300 L 580 320 L 600 320 L 600 300 z M 580 320 L 560 320 L 560 340 L 580 340 L 580 320 z M 560 340 L 540 340 L 540 360 L 560 360 L 560 340 z M 560 360 L 560 380 L 580 380 L 580 360 L 560 360 z M 560 380 L 540 380 L 540 400 L 560 400 L 560 380 z M 540 400 L 520 400 L 520 420 L 540 420 L 540 400 z M 520 420 L 500 420 L 500 440 L 520 440 L 520 420 z M 520 440 L 520 460 L 540 460 L 540 440 L 520 440 z M 520 460 L 500 460 L 500 480 L 520 480 L 520 460 z M 500 460 L 500 440 L 480 440 L 480 460 L 500 460 z M 480 460 L 460 460 L 460 480 L 480 480 L 480 460 z M 460 460 L 460 440 L 440 440 L 440 460 L 460 460 z M 440 460 L 420 460 L 420 480 L 440 480 L 440 460 z M 420 460 L 420 440 L 400 440 L 400 460 L 420 460 z M 400 460 L 380 460 L 380 480 L 400 480 L 400 460 z M 380 460 L 380 440 L 360 440 L 360 460 L 380 460 z M 360 460 L 340 460 L 340 480 L 360 480 L 360 460 z M 340 460 L 340 440 L 320 440 L 320 460 L 340 460 z M 320 460 L 300 460 L 300 480 L 320 480 L 320 460 z M 300 460 L 300 440 L 280 440 L 280 460 L 300 460 z M 280 460 L 260 460 L 260 480 L 280 480 L 280 460 z M 260 460 L 260 440 L 240 440 L 240 460 L 260 460 z M 240 460 L 220 460 L 220 480 L 240 480 L 240 460 z M 220 460 L 220 440 L 200 440 L 200 460 L 220 460 z M 200 460 L 180 460 L 180 480 L 200 480 L 200 460 z M 180 460 L 180 440 L 160 440 L 160 460 L 180 460 z M 160 460 L 140 460 L 140 480 L 160 480 L 160 460 z M 180 440 L 200 440 L 200 420 L 180 420 L 180 440 z M 200 420 L 220 420 L 220 400 L 200 400 L 200 420 z M 200 400 L 200 380 L 180 380 L 180 400 L 200 400 z M 200 380 L 220 380 L 220 360 L 200 360 L 200 380 z M 220 360 L 240 360 L 240 340 L 220 340 L 220 360 z M 240 340 L 260 340 L 260 320 L 240 320 L 240 340 z M 240 320 L 240 300 L 220 300 L 220 320 L 240 320 z M 240 300 L 260 300 L 260 280 L 240 280 L 240 300 z M 260 300 L 260 320 L 280 320 L 280 300 L 260 300 z M 280 320 L 280 340 L 300 340 L 300 320 L 280 320 z M 300 340 L 300 360 L 320 360 L 320 340 L 300 340 z M 320 340 L 340 340 L 340 320 L 320 320 L 320 340 z M 340 340 L 340 360 L 360 360 L 360 340 L 340 340 z M 360 340 L 380 340 L 380 320 L 360 320 L 360 340 z M 380 340 L 380 360 L 400 360 L 400 340 L 380 340 z M 400 340 L 420 340 L 420 320 L 400 320 L 400 340 z M 420 340 L 420 360 L 440 360 L 440 340 L 420 340 z M 440 340 L 460 340 L 460 320 L 440 320 L 440 340 z M 460 340 L 460 360 L 480 360 L 480 340 L 460 340 z M 480 340 L 500 340 L 500 320 L 480 320 L 480 340 z M 500 340 L 500 360 L 520 360 L 520 340 L 500 340 z M 520 340 L 540 340 L 540 320 L 520 320 L 520 340 z M 520 360 L 520 380 L 540 380 L 540 360 L 520 360 z M 520 380 L 500 380 L 500 400 L 520 400 L 520 380 z M 500 400 L 480 400 L 480 420 L 500 420 L 500 400 z M 480 420 L 460 420 L 460 440 L 480 440 L 480 420 z M 460 420 L 460 400 L 440 400 L 440 420 L 460 420 z M 440 420 L 420 420 L 420 440 L 440 440 L 440 420 z M 420 420 L 420 400 L 400 400 L 400 420 L 420 420 z M 400 420 L 380 420 L 380 440 L 400 440 L 400 420 z M 380 420 L 380 400 L 360 400 L 360 420 L 380 420 z M 360 420 L 340 420 L 340 440 L 360 440 L 360 420 z M 340 420 L 340 400 L 320 400 L 320 420 L 340 420 z M 320 420 L 300 420 L 300 440 L 320 440 L 320 420 z M 300 420 L 300 400 L 280 400 L 280 420 L 300 420 z M 280 420 L 260 420 L 260 440 L 280 440 L 280 420 z M 260 420 L 260 400 L 240 400 L 240 420 L 260 420 z M 240 420 L 220 420 L 220 440 L 240 440 L 240 420 z M 240 400 L 240 380 L 220 380 L 220 400 L 240 400 z M 240 380 L 260 380 L 260 360 L 240 360 L 240 380 z M 260 360 L 280 360 L 280 340 L 260 340 L 260 360 z M 280 360 L 280 380 L 300 380 L 300 360 L 280 360 z M 300 380 L 300 400 L 320 400 L 320 380 L 300 380 z M 320 380 L 340 380 L 340 360 L 320 360 L 320 380 z M 340 380 L 340 400 L 360 400 L 360 380 L 340 380 z M 360 380 L 380 380 L 380 360 L 360 360 L 360 380 z M 380 380 L 380 400 L 400 400 L 400 380 L 380 380 z M 400 380 L 420 380 L 420 360 L 400 360 L 400 380 z M 420 380 L 420 400 L 440 400 L 440 380 L 420 380 z M 440 380 L 460 380 L 460 360 L 440 360 L 440 380 z M 460 380 L 460 400 L 480 400 L 480 380 L 460 380 z M 480 380 L 500 380 L 500 360 L 480 360 L 480 380 z M 280 380 L 260 380 L 260 400 L 280 400 L 280 380 z M 280 240 L 280 220 L 260 220 L 260 240 L 280 240 z M 660 180 L 660 160 L 640 160 L 640 180 L 660 180 z M 640 160 L 640 140 L 620 140 L 620 160 L 640 160 z M 620 160 L 600 160 L 600 180 L 620 180 L 620 160 z M 660 160 L 680 160 L 680 140 L 660 140 L 660 160 z M 580 160 L 560 160 L 560 180 L 580 180 L 580 160 z M 560 160 L 560 140 L 540 140 L 540 160 L 560 160 z M 540 160 L 520 160 L 520 180 L 540 180 L 540 160 z M 500 160 L 480 160 L 480 180 L 500 180 L 500 160 z M 480 160 L 480 140 L 460 140 L 460 160 L 480 160 z M 460 160 L 440 160 L 440 180 L 460 180 L 460 160 z M 440 160 L 440 140 L 420 140 L 420 160 L 440 160 z M 420 160 L 400 160 L 400 180 L 420 180 L 420 160 z M 840 80 L 840 100 L 840 120 L 840 140 L 820 140 L 820 160 L 820 180 L 800 180 L 800 200 L 800 220 L 780 220 L 780 240 L 780 260 L 760 260 L 760 280 L 760 300 L 780 300 L 800 300 L 820 300 L 840 300 L 840 320 L 820 320 L 800 320 L 780 320 L 760 320 L 740 320 L 740 340 L 720 340 L 720 360 L 720 380 L 700 380 L 700 400 L 720 400 L 740 400 L 760 400 L 780 400 L 800 400 L 820 400 L 840 400 L 840 420 L 840 440 L 840 460 L 840 480 L 840 500 L 820 500 L 800 500 L 780 500 L 760 500 L 740 500 L 720 500 L 700 500 L 680 500 L 660 500 L 640 500 L 640 520 L 640 540 L 620 540 L 620 560 L 620 580 L 640 580 L 660 580 L 680 580 L 700 580 L 720 580 L 740 580 L 760 580 L 780 580 L 800 580 L 820 580 L 840 580 L 840 600 L 840 620 L 840 640 L 840 660 L 840 680 L 820 680 L 800 680 L 780 680 L 760 680 L 740 680 L 720 680 L 700 680 L 680 680 L 660 680 L 640 680 L 620 680 L 600 680 L 580 680 L 560 680 L 540 680 L 520 680 L 500 680 L 480 680 L 460 680 L 440 680 L 420 680 L 400 680 L 380 680 L 360 680 L 340 680 L 320 680 L 300 680 L 300 700 L 300 720 L 300 740 L 300 760 L 320 760 L 340 760 L 360 760 L 380 760 L 400 760 L 420 760 L 440 760 L 460 760 L 480 760 L 500 760 L 520 760 L 540 760 L 560 760 L 580 760 L 600 760 L 620 760 L 640 760 L 660 760 L 680 760 L 700 760 L 720 760 L 740 760 L 760 760 L 780 760 L 800 760 L 820 760 L 840 760 L 840 780 L 840 800 L 820 800 L 820 820 L 800 820 L 800 840 L 780 840 L 760 840 L 740 840 L 720 840 L 700 840 L 680 840 L 660 840 L 640 840 L 620 840 L 600 840 L 580 840 L 560 840 L 540 840 L 520 840 L 500 840 L 480 840 L 460 840 L 440 840 L 420 840 L 400 840 L 380 840 L 360 840 L 340 840 L 320 840 L 320 860 L 340 860 L 340 880 L 360 880 L 380 880 L 400 880 L 420 880 L 440 880 L 460 880 L 480 880 L 500 880 L 520 880 L 540 880 L 560 880 L 580 880 L 600 880 L 620 880 L 640 880 L 660 880 L 680 880 L 700 880 L 720 880 L 740 880 L 760 880 L 780 880 L 800 880 L 800 860 L 820 860 L 840 860 L 840 840 L 860 840 L 860 820 L 860 800 L 880 800 L 880 780 L 880 760 L 880 740 L 880 720 L 880 700 L 880 680 L 880 660 L 880 640 L 880 620 L 880 600 L 880 580 L 880 560 L 880 540 L 880 520 L 880 500 L 880 480 L 880 460 L 880 440 L 880 420 L 880 400 L 880 380 L 880 360 L 880 340 L 880 320 L 880 300 L 880 280 L 880 260 L 880 240 L 880 220 L 880 200 L 880 180 L 880 160 L 880 140 L 880 120 L 880 100 L 880 80 L 860 80 L 840 80 z M 340 220 L 340 240 L 360 240 L 360 220 L 340 220 z M 380 220 L 380 240 L 400 240 L 400 220 L 380 220 z M 420 220 L 420 240 L 440 240 L 440 220 L 420 220 z M 460 220 L 460 240 L 480 240 L 480 220 L 460 220 z M 500 220 L 500 240 L 520 240 L 520 220 L 500 220 z M 540 220 L 540 240 L 560 240 L 560 220 L 540 220 z M 820 340 L 840 340 L 840 360 L 840 380 L 820 380 L 820 360 L 820 340 z M 680 420 L 680 440 L 680 460 L 660 460 L 660 480 L 680 480 L 700 480 L 720 480 L 740 480 L 760 480 L 780 480 L 780 460 L 780 440 L 780 420 L 760 420 L 740 420 L 720 420 L 700 420 L 680 420 z M 760 520 L 780 520 L 800 520 L 820 520 L 840 520 L 840 540 L 840 560 L 820 560 L 800 560 L 780 560 L 760 560 L 760 540 L 760 520 z M 580 600 L 580 620 L 560 620 L 540 620 L 520 620 L 500 620 L 480 620 L 460 620 L 440 620 L 420 620 L 400 620 L 380 620 L 360 620 L 340 620 L 320 620 L 300 620 L 300 640 L 300 660 L 320 660 L 340 660 L 360 660 L 380 660 L 400 660 L 420 660 L 440 660 L 460 660 L 480 660 L 500 660 L 520 660 L 540 660 L 560 660 L 580 660 L 600 660 L 620 660 L 640 660 L 660 660 L 680 660 L 700 660 L 720 660 L 720 640 L 720 620 L 720 600 L 700 600 L 680 600 L 660 600 L 640 600 L 620 600 L 600 600 L 580 600 z M 700 700 L 720 700 L 740 700 L 760 700 L 780 700 L 800 700 L 820 700 L 840 700 L 840 720 L 840 740 L 820 740 L 800 740 L 780 740 L 760 740 L 740 740 L 720 740 L 700 740 L 700 720 L 700 700 z M 300 780 L 300 800 L 320 800 L 340 800 L 360 800 L 380 800 L 400 800 L 420 800 L 440 800 L 460 800 L 480 800 L 500 800 L 520 800 L 540 800 L 560 800 L 580 800 L 600 800 L 620 800 L 640 800 L 640 780 L 620 780 L 600 780 L 580 780 L 560 780 L 540 780 L 520 780 L 500 780 L 480 780 L 460 780 L 440 780 L 420 780 L 400 780 L 380 780 L 360 780 L 340 780 L 320 780 L 300 780 z "
     id="rect3276" />
  <path
     style="fill:#808080"
     d="M 880 100 L 880 120 L 880 140 L 880 160 L 880 180 L 880 200 L 880 220 L 880 240 L 880 260 L 880 280 L 880 300 L 880 320 L 880 340 L 880 360 L 880 380 L 880 400 L 880 420 L 880 440 L 880 460 L 880 480 L 880 500 L 880 520 L 880 540 L 880 560 L 880 580 L 880 600 L 880 620 L 880 640 L 880 660 L 880 680 L 880 700 L 880 720 L 880 740 L 880 760 L 880 780 L 880 800 L 860 800 L 860 820 L 860 840 L 840 840 L 840 860 L 820 860 L 800 860 L 800 880 L 780 880 L 760 880 L 740 880 L 720 880 L 700 880 L 680 880 L 660 880 L 640 880 L 620 880 L 600 880 L 580 880 L 560 880 L 540 880 L 520 880 L 500 880 L 480 880 L 460 880 L 440 880 L 420 880 L 400 880 L 380 880 L 380 900 L 400 900 L 420 900 L 440 900 L 460 900 L 480 900 L 500 900 L 520 900 L 540 900 L 560 900 L 580 900 L 600 900 L 620 900 L 640 900 L 660 900 L 680 900 L 700 900 L 720 900 L 740 900 L 760 900 L 780 900 L 800 900 L 820 900 L 840 900 L 860 900 L 860 880 L 880 880 L 880 860 L 900 860 L 900 840 L 900 820 L 900 800 L 900 780 L 900 760 L 900 740 L 900 720 L 900 700 L 900 680 L 900 660 L 900 640 L 900 620 L 900 600 L 900 580 L 900 560 L 900 540 L 900 520 L 900 500 L 900 480 L 900 460 L 900 440 L 900 420 L 900 400 L 900 380 L 900 360 L 900 340 L 900 320 L 900 300 L 900 280 L 900 260 L 900 240 L 900 220 L 900 200 L 900 180 L 900 160 L 900 140 L 900 120 L 900 100 L 880 100 z M 740 300 L 740 320 L 760 320 L 780 320 L 800 320 L 820 320 L 840 320 L 840 300 L 820 300 L 800 300 L 780 300 L 760 300 L 740 300 z M 700 400 L 700 420 L 720 420 L 740 420 L 760 420 L 780 420 L 800 420 L 820 420 L 840 420 L 840 400 L 820 400 L 800 400 L 780 400 L 760 400 L 740 400 L 720 400 L 700 400 z M 660 480 L 660 500 L 680 500 L 700 500 L 720 500 L 740 500 L 760 500 L 780 500 L 800 500 L 820 500 L 840 500 L 840 480 L 820 480 L 800 480 L 780 480 L 760 480 L 740 480 L 720 480 L 700 480 L 680 480 L 660 480 z M 580 580 L 580 600 L 600 600 L 620 600 L 640 600 L 660 600 L 680 600 L 700 600 L 720 600 L 740 600 L 760 600 L 780 600 L 800 600 L 820 600 L 840 600 L 840 580 L 820 580 L 800 580 L 780 580 L 760 580 L 740 580 L 720 580 L 700 580 L 680 580 L 660 580 L 640 580 L 620 580 L 600 580 L 580 580 z M 580 600 L 560 600 L 560 620 L 580 620 L 580 600 z M 300 660 L 300 680 L 320 680 L 340 680 L 360 680 L 380 680 L 400 680 L 420 680 L 440 680 L 460 680 L 480 680 L 500 680 L 520 680 L 540 680 L 560 680 L 580 680 L 600 680 L 620 680 L 640 680 L 660 680 L 680 680 L 700 680 L 720 680 L 740 680 L 760 680 L 780 680 L 800 680 L 820 680 L 840 680 L 840 660 L 820 660 L 800 660 L 780 660 L 760 660 L 740 660 L 720 660 L 700 660 L 680 660 L 660 660 L 640 660 L 620 660 L 600 660 L 580 660 L 560 660 L 540 660 L 520 660 L 500 660 L 480 660 L 460 660 L 440 660 L 420 660 L 400 660 L 380 660 L 360 660 L 340 660 L 320 660 L 300 660 z M 300 760 L 300 780 L 320 780 L 340 780 L 360 780 L 380 780 L 400 780 L 420 780 L 440 780 L 460 780 L 480 780 L 500 780 L 520 780 L 540 780 L 560 780 L 580 780 L 600 780 L 620 780 L 640 780 L 660 780 L 680 780 L 700 780 L 720 780 L 740 780 L 760 780 L 780 780 L 800 780 L 820 780 L 840 780 L 840 760 L 820 760 L 800 760 L 780 760 L 760 760 L 740 760 L 720 760 L 700 760 L 680 760 L 660 760 L 640 760 L 620 760 L 600 760 L 580 760 L 560 760 L 540 760 L 520 760 L 500 760 L 480 760 L 460 760 L 440 760 L 420 760 L 400 760 L 380 760 L 360 760 L 340 760 L 320 760 L 300 760 z "
     id="rect3340" />
  <path
     style="fill:#000000"
     d="M 280 0 L 280 20 L 280 40 L 260 40 L 260 60 L 240 60 L 240 80 L 220 80 L 220 100 L 220 120 L 200 120 L 200 140 L 200 160 L 180 160 L 180 180 L 180 200 L 160 200 L 160 220 L 160 240 L 140 240 L 140 260 L 140 280 L 120 280 L 120 300 L 120 320 L 100 320 L 100 340 L 100 360 L 80 360 L 80 380 L 80 400 L 60 400 L 60 420 L 60 440 L 40 440 L 40 460 L 40 480 L 20 480 L 20 500 L 0 500 L 0 520 L 0 540 L 0 560 L 0 580 L 0 600 L 20 600 L 20 620 L 40 620 L 60 620 L 80 620 L 100 620 L 120 620 L 140 620 L 160 620 L 180 620 L 200 620 L 220 620 L 240 620 L 260 620 L 280 620 L 280 640 L 280 660 L 280 680 L 280 700 L 280 720 L 280 740 L 280 760 L 280 780 L 280 800 L 280 820 L 280 840 L 300 840 L 300 820 L 300 800 L 300 780 L 300 760 L 300 740 L 300 720 L 300 700 L 300 680 L 300 660 L 300 640 L 300 620 L 320 620 L 340 620 L 360 620 L 380 620 L 400 620 L 420 620 L 440 620 L 460 620 L 480 620 L 500 620 L 520 620 L 540 620 L 560 620 L 560 600 L 580 600 L 580 580 L 560 580 L 540 580 L 520 580 L 520 600 L 500 600 L 480 600 L 460 600 L 440 600 L 420 600 L 400 600 L 380 600 L 360 600 L 340 600 L 320 600 L 300 600 L 280 600 L 260 600 L 240 600 L 220 600 L 200 600 L 180 600 L 160 600 L 140 600 L 120 600 L 100 600 L 80 600 L 60 600 L 40 600 L 40 580 L 40 560 L 20 560 L 20 540 L 40 540 L 40 520 L 40 500 L 60 500 L 60 480 L 60 460 L 80 460 L 80 440 L 80 420 L 100 420 L 100 400 L 100 380 L 120 380 L 120 360 L 120 340 L 140 340 L 140 320 L 140 300 L 160 300 L 160 280 L 160 260 L 180 260 L 180 240 L 180 220 L 200 220 L 200 200 L 200 180 L 220 180 L 220 160 L 220 140 L 240 140 L 240 120 L 240 100 L 260 100 L 260 80 L 280 80 L 280 60 L 300 60 L 300 40 L 320 40 L 320 60 L 300 60 L 300 80 L 320 80 L 340 80 L 340 60 L 360 60 L 380 60 L 380 40 L 360 40 L 360 20 L 340 20 L 340 0 L 320 0 L 300 0 L 280 0 z M 380 60 L 380 80 L 400 80 L 420 80 L 420 60 L 400 60 L 380 60 z M 420 60 L 440 60 L 460 60 L 480 60 L 480 40 L 460 40 L 460 20 L 440 20 L 440 0 L 420 0 L 400 0 L 380 0 L 380 20 L 400 20 L 400 40 L 420 40 L 420 60 z M 480 60 L 480 80 L 500 80 L 520 80 L 520 60 L 500 60 L 480 60 z M 520 60 L 540 60 L 560 60 L 580 60 L 580 40 L 560 40 L 560 20 L 540 20 L 540 0 L 520 0 L 500 0 L 480 0 L 480 20 L 500 20 L 500 40 L 520 40 L 520 60 z M 580 60 L 580 80 L 600 80 L 620 80 L 620 60 L 600 60 L 580 60 z M 620 60 L 640 60 L 660 60 L 680 60 L 680 40 L 660 40 L 660 20 L 640 20 L 640 0 L 620 0 L 600 0 L 580 0 L 580 20 L 600 20 L 600 40 L 620 40 L 620 60 z M 680 60 L 680 80 L 700 80 L 720 80 L 720 60 L 700 60 L 680 60 z M 720 60 L 740 60 L 760 60 L 760 40 L 740 40 L 740 20 L 720 20 L 720 0 L 700 0 L 680 0 L 680 20 L 700 20 L 700 40 L 720 40 L 720 60 z M 760 60 L 760 80 L 780 80 L 800 80 L 800 60 L 780 60 L 760 60 z M 800 60 L 820 60 L 840 60 L 840 80 L 860 80 L 880 80 L 880 100 L 900 100 L 900 120 L 900 140 L 900 160 L 900 180 L 900 200 L 900 220 L 900 240 L 900 260 L 900 280 L 900 300 L 900 320 L 900 340 L 900 360 L 900 380 L 900 400 L 900 420 L 900 440 L 900 460 L 900 480 L 900 500 L 900 520 L 900 540 L 900 560 L 900 580 L 900 600 L 900 620 L 900 640 L 900 660 L 900 680 L 900 700 L 900 720 L 900 740 L 900 760 L 900 780 L 900 800 L 900 820 L 900 840 L 900 860 L 880 860 L 880 880 L 860 880 L 860 900 L 840 900 L 820 900 L 800 900 L 780 900 L 760 900 L 740 900 L 720 900 L 700 900 L 680 900 L 660 900 L 640 900 L 620 900 L 600 900 L 580 900 L 560 900 L 540 900 L 520 900 L 500 900 L 480 900 L 460 900 L 440 900 L 420 900 L 400 900 L 380 900 L 380 880 L 360 880 L 340 880 L 340 900 L 360 900 L 360 920 L 380 920 L 400 920 L 420 920 L 440 920 L 460 920 L 480 920 L 500 920 L 520 920 L 540 920 L 560 920 L 580 920 L 600 920 L 620 920 L 640 920 L 660 920 L 680 920 L 700 920 L 720 920 L 740 920 L 760 920 L 780 920 L 800 920 L 820 920 L 840 920 L 860 920 L 880 920 L 880 900 L 900 900 L 900 880 L 920 880 L 920 860 L 920 840 L 920 820 L 920 800 L 920 780 L 920 760 L 920 740 L 920 720 L 920 700 L 920 680 L 920 660 L 920 640 L 920 620 L 920 600 L 920 580 L 920 560 L 920 540 L 920 520 L 920 500 L 920 480 L 920 460 L 920 440 L 920 420 L 920 400 L 920 380 L 920 360 L 920 340 L 920 320 L 920 300 L 920 280 L 920 260 L 920 240 L 920 220 L 920 200 L 920 180 L 920 160 L 920 140 L 920 120 L 920 100 L 920 80 L 920 60 L 900 60 L 880 60 L 880 40 L 860 40 L 840 40 L 840 20 L 820 20 L 820 0 L 800 0 L 780 0 L 760 0 L 760 20 L 780 20 L 780 40 L 800 40 L 800 60 z M 340 880 L 340 860 L 320 860 L 320 880 L 340 880 z M 320 860 L 320 840 L 300 840 L 300 860 L 320 860 z M 840 80 L 820 80 L 820 100 L 820 120 L 800 120 L 800 140 L 800 160 L 780 160 L 780 180 L 780 200 L 760 200 L 760 220 L 760 240 L 740 240 L 740 260 L 740 280 L 720 280 L 720 300 L 720 320 L 700 320 L 700 340 L 700 360 L 680 360 L 680 380 L 680 400 L 660 400 L 660 420 L 660 440 L 640 440 L 640 460 L 640 480 L 620 480 L 620 500 L 620 520 L 600 520 L 600 540 L 600 560 L 580 560 L 580 580 L 600 580 L 620 580 L 620 560 L 620 540 L 640 540 L 640 520 L 640 500 L 660 500 L 660 480 L 660 460 L 680 460 L 680 440 L 680 420 L 700 420 L 700 400 L 700 380 L 720 380 L 720 360 L 720 340 L 740 340 L 740 320 L 740 300 L 760 300 L 760 280 L 760 260 L 780 260 L 780 240 L 780 220 L 800 220 L 800 200 L 800 180 L 820 180 L 820 160 L 820 140 L 840 140 L 840 120 L 840 100 L 840 80 z M 340 180 L 340 200 L 320 200 L 320 220 L 340 220 L 360 220 L 380 220 L 400 220 L 420 220 L 440 220 L 460 220 L 480 220 L 500 220 L 520 220 L 540 220 L 560 220 L 580 220 L 600 220 L 620 220 L 620 200 L 640 200 L 640 180 L 620 180 L 600 180 L 580 180 L 560 180 L 540 180 L 520 180 L 500 180 L 480 180 L 460 180 L 440 180 L 420 180 L 400 180 L 380 180 L 360 180 L 340 180 z M 320 240 L 320 260 L 300 260 L 300 280 L 320 280 L 340 280 L 360 280 L 380 280 L 400 280 L 420 280 L 440 280 L 460 280 L 480 280 L 500 280 L 520 280 L 540 280 L 560 280 L 580 280 L 580 260 L 600 260 L 600 240 L 580 240 L 560 240 L 540 240 L 520 240 L 500 240 L 480 240 L 460 240 L 440 240 L 420 240 L 400 240 L 380 240 L 360 240 L 340 240 L 320 240 z "
     id="rect3396" />
</svg>
