<?xml version="1.0" encoding="UTF-8" standalone="no"?>
<svg
   xmlns:dc="http://purl.org/dc/elements/1.1/"
   xmlns:cc="http://creativecommons.org/ns#"
   xmlns:rdf="http://www.w3.org/1999/02/22-rdf-syntax-ns#"
   xmlns:svg="http://www.w3.org/2000/svg"
   xmlns="http://www.w3.org/2000/svg"
   id="svg2764"
   width="960px"
   version="1.1"
   height="960px">
  <metadata
     id="metadata2768">
    <rdf:RDF>
      <cc:Work
         rdf:about="">
        <dc:format>image/svg+xml</dc:format>
        <dc:type
           rdf:resource="http://purl.org/dc/dcmitype/StillImage" />
      </cc:Work>
    </rdf:RDF>
  </metadata>
  <defs
     id="defs2" />
  <path
     style="fill:#800000"
     d="M 440 200 L 440 220 L 420 220 L 420 240 L 400 240 L 400 260 L 420 260 L 420 280 L 440 280 L 440 300 L 460 300 L 480 300 L 500 300 L 520 300 L 520 280 L 540 280 L 540 260 L 560 260 L 560 240 L 540 240 L 540 220 L 520 220 L 520 200 L 500 200 L 480 200 L 460 200 L 440 200 z "
     id="rect492" />
  <path
     style="fill:#0000ff"
     d="M 180 420 L 180 440 L 200 440 L 200 460 L 220 460 L 240 460 L 240 480 L 240 500 L 260 500 L 260 520 L 260 540 L 240 540 L 240 560 L 220 560 L 220 580 L 200 580 L 200 600 L 180 600 L 160 600 L 160 620 L 180 620 L 200 620 L 220 620 L 240 620 L 240 600 L 260 600 L 260 580 L 280 580 L 300 580 L 300 600 L 300 620 L 320 620 L 320 640 L 320 660 L 340 660 L 340 680 L 340 700 L 360 700 L 380 700 L 380 720 L 400 720 L 420 720 L 440 720 L 440 700 L 440 680 L 420 680 L 400 680 L 400 660 L 380 660 L 380 640 L 380 620 L 360 620 L 360 600 L 360 580 L 340 580 L 340 560 L 340 540 L 320 540 L 320 520 L 320 500 L 300 500 L 300 480 L 300 460 L 280 460 L 280 440 L 260 440 L 260 420 L 240 420 L 220 420 L 200 420 L 180 420 z "
     id="rect2376" />
  <path
     style="fill:#c0c0c0"
     d="M 480 80 L 480 100 L 460 100 L 440 100 L 440 120 L 420 120 L 420 140 L 400 140 L 380 140 L 380 160 L 360 160 L 340 160 L 340 180 L 320 180 L 300 180 L 300 200 L 280 200 L 260 200 L 260 220 L 240 220 L 220 220 L 220 240 L 200 240 L 180 240 L 160 240 L 160 260 L 180 260 L 180 280 L 200 280 L 220 280 L 240 280 L 240 300 L 260 300 L 260 320 L 280 320 L 300 320 L 300 340 L 320 340 L 340 340 L 340 360 L 360 360 L 380 360 L 400 360 L 400 380 L 420 380 L 440 380 L 440 400 L 460 400 L 480 400 L 480 420 L 500 420 L 500 400 L 520 400 L 540 400 L 540 380 L 560 380 L 580 380 L 580 360 L 600 360 L 620 360 L 640 360 L 640 340 L 660 340 L 680 340 L 680 320 L 700 320 L 720 320 L 720 300 L 740 300 L 740 280 L 760 280 L 780 280 L 780 260 L 800 260 L 800 280 L 820 280 L 820 260 L 840 260 L 840 240 L 820 240 L 800 240 L 780 240 L 760 240 L 760 220 L 740 220 L 720 220 L 720 200 L 700 200 L 680 200 L 680 180 L 660 180 L 640 180 L 640 160 L 620 160 L 600 160 L 600 140 L 580 140 L 560 140 L 560 120 L 540 120 L 540 100 L 520 100 L 520 80 L 500 80 L 480 80 z M 800 280 L 780 280 L 780 300 L 800 300 L 800 280 z M 780 300 L 760 300 L 760 320 L 780 320 L 780 300 z M 160 260 L 140 260 L 140 280 L 140 300 L 120 300 L 120 320 L 120 340 L 100 340 L 100 360 L 100 380 L 80 380 L 80 400 L 80 420 L 60 420 L 60 440 L 60 460 L 40 460 L 40 480 L 40 500 L 20 500 L 20 520 L 20 540 L 20 560 L 20 580 L 20 600 L 20 620 L 20 640 L 40 640 L 40 660 L 60 660 L 80 660 L 80 680 L 100 680 L 120 680 L 120 700 L 140 700 L 160 700 L 160 720 L 180 720 L 200 720 L 200 740 L 220 740 L 240 740 L 240 760 L 260 760 L 280 760 L 280 780 L 300 780 L 320 780 L 320 800 L 340 800 L 360 800 L 360 820 L 380 820 L 400 820 L 400 840 L 420 840 L 440 840 L 440 860 L 460 860 L 480 860 L 480 840 L 480 820 L 480 800 L 480 780 L 480 760 L 480 740 L 480 720 L 480 700 L 480 680 L 480 660 L 480 640 L 480 620 L 480 600 L 480 580 L 480 560 L 480 540 L 480 520 L 480 500 L 480 480 L 480 460 L 460 460 L 460 440 L 440 440 L 440 420 L 420 420 L 400 420 L 400 400 L 380 400 L 360 400 L 340 400 L 340 380 L 320 380 L 300 380 L 280 380 L 280 360 L 260 360 L 260 340 L 240 340 L 220 340 L 220 320 L 200 320 L 200 300 L 180 300 L 160 300 L 160 280 L 160 260 z M 440 200 L 460 200 L 480 200 L 500 200 L 520 200 L 520 220 L 540 220 L 540 240 L 560 240 L 560 260 L 540 260 L 540 280 L 520 280 L 520 300 L 500 300 L 480 300 L 460 300 L 440 300 L 440 280 L 420 280 L 420 260 L 400 260 L 400 240 L 420 240 L 420 220 L 440 220 L 440 200 z M 700 340 L 700 360 L 720 360 L 720 340 L 700 340 z M 700 360 L 680 360 L 680 380 L 700 380 L 700 360 z M 620 380 L 620 400 L 640 400 L 640 380 L 620 380 z M 560 400 L 560 420 L 580 420 L 580 400 L 560 400 z M 560 420 L 540 420 L 540 440 L 560 440 L 560 420 z M 180 420 L 200 420 L 220 420 L 240 420 L 260 420 L 260 440 L 280 440 L 280 460 L 300 460 L 300 480 L 300 500 L 320 500 L 320 520 L 320 540 L 340 540 L 340 560 L 340 580 L 360 580 L 360 600 L 360 620 L 380 620 L 380 640 L 380 660 L 400 660 L 400 680 L 420 680 L 440 680 L 440 700 L 440 720 L 420 720 L 400 720 L 380 720 L 380 700 L 360 700 L 340 700 L 340 680 L 340 660 L 320 660 L 320 640 L 320 620 L 300 620 L 300 600 L 300 580 L 280 580 L 260 580 L 260 600 L 240 600 L 240 620 L 220 620 L 200 620 L 180 620 L 160 620 L 160 600 L 180 600 L 200 600 L 200 580 L 220 580 L 220 560 L 240 560 L 240 540 L 260 540 L 260 520 L 260 500 L 240 500 L 240 480 L 240 460 L 220 460 L 200 460 L 200 440 L 180 440 L 180 420 z "
     id="rect2730" />
  <path
     style="fill:#808080"
     d="M 820 260 L 820 280 L 800 280 L 800 300 L 780 300 L 780 320 L 760 320 L 740 320 L 740 340 L 720 340 L 720 360 L 700 360 L 700 380 L 680 380 L 660 380 L 640 380 L 640 400 L 620 400 L 600 400 L 580 400 L 580 420 L 560 420 L 560 440 L 540 440 L 520 440 L 520 460 L 500 460 L 500 480 L 500 500 L 500 520 L 500 540 L 500 560 L 500 580 L 500 600 L 500 620 L 500 640 L 500 660 L 500 680 L 500 700 L 500 720 L 500 740 L 500 760 L 500 780 L 500 800 L 500 820 L 500 840 L 500 860 L 520 860 L 540 860 L 560 860 L 560 840 L 580 840 L 580 820 L 600 820 L 620 820 L 640 820 L 640 800 L 660 800 L 680 800 L 680 780 L 700 780 L 700 760 L 720 760 L 740 760 L 760 760 L 760 740 L 780 740 L 800 740 L 800 720 L 820 720 L 820 700 L 840 700 L 860 700 L 880 700 L 880 680 L 900 680 L 900 660 L 920 660 L 920 640 L 920 620 L 940 620 L 940 600 L 940 580 L 940 560 L 940 540 L 940 520 L 940 500 L 940 480 L 920 480 L 920 460 L 920 440 L 900 440 L 900 420 L 900 400 L 900 380 L 880 380 L 880 360 L 880 340 L 880 320 L 860 320 L 860 300 L 840 300 L 840 280 L 840 260 L 820 260 z M 720 460 L 740 460 L 760 460 L 780 460 L 800 460 L 820 460 L 840 460 L 840 480 L 840 500 L 840 520 L 840 540 L 840 560 L 820 560 L 820 540 L 800 540 L 800 520 L 780 520 L 780 540 L 760 540 L 760 560 L 740 560 L 740 580 L 720 580 L 720 600 L 700 600 L 700 620 L 680 620 L 680 640 L 660 640 L 660 660 L 640 660 L 640 640 L 640 620 L 660 620 L 660 600 L 680 600 L 680 580 L 700 580 L 700 560 L 720 560 L 720 540 L 740 540 L 740 520 L 760 520 L 780 520 L 780 500 L 760 500 L 760 480 L 740 480 L 720 480 L 720 460 z "
     id="rect2738" />
  <path
     style="fill:#ffffff"
     d="M 160 260 L 160 280 L 160 300 L 180 300 L 200 300 L 200 320 L 220 320 L 220 340 L 240 340 L 260 340 L 260 360 L 280 360 L 280 380 L 300 380 L 320 380 L 340 380 L 340 400 L 360 400 L 380 400 L 400 400 L 400 420 L 420 420 L 440 420 L 440 440 L 460 440 L 460 460 L 480 460 L 480 480 L 480 500 L 480 520 L 480 540 L 480 560 L 480 580 L 480 600 L 480 620 L 480 640 L 480 660 L 480 680 L 480 700 L 480 720 L 480 740 L 480 760 L 480 780 L 480 800 L 480 820 L 480 840 L 480 860 L 480 880 L 500 880 L 500 860 L 500 840 L 500 820 L 500 800 L 500 780 L 500 760 L 500 740 L 500 720 L 500 700 L 500 680 L 500 660 L 500 640 L 500 620 L 500 600 L 500 580 L 500 560 L 500 540 L 500 520 L 500 500 L 500 480 L 500 460 L 520 460 L 520 440 L 540 440 L 540 420 L 560 420 L 560 400 L 580 400 L 600 400 L 620 400 L 620 380 L 640 380 L 660 380 L 680 380 L 680 360 L 700 360 L 700 340 L 720 340 L 740 340 L 740 320 L 760 320 L 760 300 L 780 300 L 780 280 L 760 280 L 740 280 L 740 300 L 720 300 L 720 320 L 700 320 L 680 320 L 680 340 L 660 340 L 640 340 L 640 360 L 620 360 L 600 360 L 580 360 L 580 380 L 560 380 L 540 380 L 540 400 L 520 400 L 500 400 L 500 420 L 480 420 L 480 400 L 460 400 L 440 400 L 440 380 L 420 380 L 400 380 L 400 360 L 380 360 L 360 360 L 340 360 L 340 340 L 320 340 L 300 340 L 300 320 L 280 320 L 260 320 L 260 300 L 240 300 L 240 280 L 220 280 L 200 280 L 180 280 L 180 260 L 160 260 z M 780 280 L 800 280 L 800 260 L 780 260 L 780 280 z "
     id="rect2750" />
  <path
     style="fill:#000000"
     d="M 460 60 L 460 80 L 440 80 L 440 100 L 460 100 L 480 100 L 480 80 L 500 80 L 520 80 L 520 60 L 500 60 L 480 60 L 460 60 z M 520 80 L 520 100 L 540 100 L 540 120 L 560 120 L 560 140 L 580 140 L 600 140 L 600 160 L 620 160 L 640 160 L 640 180 L 660 180 L 680 180 L 680 200 L 700 200 L 720 200 L 720 220 L 740 220 L 760 220 L 760 240 L 780 240 L 800 240 L 820 240 L 840 240 L 840 220 L 820 220 L 800 220 L 780 220 L 780 200 L 760 200 L 740 200 L 740 180 L 720 180 L 700 180 L 700 160 L 680 160 L 660 160 L 660 140 L 640 140 L 620 140 L 620 120 L 600 120 L 580 120 L 580 100 L 560 100 L 560 80 L 540 80 L 520 80 z M 840 240 L 840 260 L 840 280 L 840 300 L 860 300 L 860 320 L 880 320 L 880 300 L 880 280 L 860 280 L 860 260 L 860 240 L 840 240 z M 880 320 L 880 340 L 880 360 L 880 380 L 900 380 L 900 400 L 900 420 L 900 440 L 920 440 L 920 460 L 920 480 L 940 480 L 940 500 L 940 520 L 940 540 L 940 560 L 940 580 L 940 600 L 940 620 L 920 620 L 920 640 L 920 660 L 900 660 L 900 680 L 880 680 L 880 700 L 900 700 L 920 700 L 920 680 L 940 680 L 940 660 L 960 660 L 960 640 L 960 620 L 960 600 L 960 580 L 960 560 L 960 540 L 960 520 L 960 500 L 960 480 L 960 460 L 960 440 L 940 440 L 940 420 L 920 420 L 920 400 L 920 380 L 920 360 L 900 360 L 900 340 L 900 320 L 880 320 z M 880 700 L 860 700 L 840 700 L 820 700 L 820 720 L 800 720 L 800 740 L 820 740 L 840 740 L 840 720 L 860 720 L 880 720 L 880 700 z M 800 740 L 780 740 L 760 740 L 760 760 L 780 760 L 800 760 L 800 740 z M 760 760 L 740 760 L 720 760 L 700 760 L 700 780 L 680 780 L 680 800 L 700 800 L 720 800 L 720 780 L 740 780 L 760 780 L 760 760 z M 680 800 L 660 800 L 640 800 L 640 820 L 660 820 L 680 820 L 680 800 z M 640 820 L 620 820 L 600 820 L 580 820 L 580 840 L 560 840 L 560 860 L 580 860 L 600 860 L 600 840 L 620 840 L 640 840 L 640 820 z M 560 860 L 540 860 L 520 860 L 500 860 L 500 880 L 480 880 L 480 860 L 460 860 L 440 860 L 440 840 L 420 840 L 400 840 L 400 820 L 380 820 L 360 820 L 360 800 L 340 800 L 320 800 L 320 780 L 300 780 L 280 780 L 280 760 L 260 760 L 240 760 L 240 740 L 220 740 L 200 740 L 200 720 L 180 720 L 160 720 L 160 700 L 140 700 L 120 700 L 120 680 L 100 680 L 80 680 L 80 660 L 60 660 L 40 660 L 40 640 L 20 640 L 20 620 L 20 600 L 20 580 L 20 560 L 20 540 L 20 520 L 20 500 L 40 500 L 40 480 L 40 460 L 20 460 L 20 480 L 0 480 L 0 500 L 0 520 L 0 540 L 0 560 L 0 580 L 0 600 L 0 620 L 0 640 L 0 660 L 20 660 L 20 680 L 40 680 L 60 680 L 60 700 L 80 700 L 100 700 L 100 720 L 120 720 L 140 720 L 140 740 L 160 740 L 180 740 L 180 760 L 200 760 L 220 760 L 220 780 L 240 780 L 260 780 L 260 800 L 280 800 L 300 800 L 300 820 L 320 820 L 340 820 L 340 840 L 360 840 L 380 840 L 380 860 L 400 860 L 420 860 L 420 880 L 440 880 L 460 880 L 460 900 L 480 900 L 500 900 L 520 900 L 520 880 L 540 880 L 560 880 L 560 860 z M 40 460 L 60 460 L 60 440 L 60 420 L 40 420 L 40 440 L 40 460 z M 60 420 L 80 420 L 80 400 L 80 380 L 60 380 L 60 400 L 60 420 z M 80 380 L 100 380 L 100 360 L 100 340 L 80 340 L 80 360 L 80 380 z M 100 340 L 120 340 L 120 320 L 120 300 L 100 300 L 100 320 L 100 340 z M 120 300 L 140 300 L 140 280 L 140 260 L 120 260 L 120 280 L 120 300 z M 140 260 L 160 260 L 160 240 L 180 240 L 200 240 L 220 240 L 220 220 L 200 220 L 180 220 L 160 220 L 140 220 L 140 240 L 140 260 z M 220 220 L 240 220 L 260 220 L 260 200 L 240 200 L 220 200 L 220 220 z M 260 200 L 280 200 L 300 200 L 300 180 L 280 180 L 260 180 L 260 200 z M 300 180 L 320 180 L 340 180 L 340 160 L 320 160 L 300 160 L 300 180 z M 340 160 L 360 160 L 380 160 L 380 140 L 360 140 L 340 140 L 340 160 z M 380 140 L 400 140 L 420 140 L 420 120 L 400 120 L 380 120 L 380 140 z M 420 120 L 440 120 L 440 100 L 420 100 L 420 120 z M 720 460 L 720 480 L 740 480 L 760 480 L 760 500 L 780 500 L 780 520 L 800 520 L 800 540 L 820 540 L 820 560 L 840 560 L 840 540 L 840 520 L 840 500 L 840 480 L 840 460 L 820 460 L 800 460 L 780 460 L 760 460 L 740 460 L 720 460 z M 780 520 L 760 520 L 740 520 L 740 540 L 720 540 L 720 560 L 700 560 L 700 580 L 680 580 L 680 600 L 660 600 L 660 620 L 640 620 L 640 640 L 640 660 L 660 660 L 660 640 L 680 640 L 680 620 L 700 620 L 700 600 L 720 600 L 720 580 L 740 580 L 740 560 L 760 560 L 760 540 L 780 540 L 780 520 z "
     id="rect2762" />
</svg>
