<?xml version="1.0" encoding="UTF-8" standalone="no"?>
<svg
   xmlns:dc="http://purl.org/dc/elements/1.1/"
   xmlns:cc="http://creativecommons.org/ns#"
   xmlns:rdf="http://www.w3.org/1999/02/22-rdf-syntax-ns#"
   xmlns:svg="http://www.w3.org/2000/svg"
   xmlns="http://www.w3.org/2000/svg"
   height="960px"
   version="1.1"
   width="960px"
   id="svg2276">
  <metadata
     id="metadata2280">
    <rdf:RDF>
      <cc:Work
         rdf:about="">
        <dc:format>image/svg+xml</dc:format>
        <dc:type
           rdf:resource="http://purl.org/dc/dcmitype/StillImage" />
      </cc:Work>
    </rdf:RDF>
  </metadata>
  <defs
     id="defs2" />
  <path
     id="rect1764"
     d="M 480 260 L 480 280 L 480 300 L 480 320 L 480 340 L 480 360 L 480 380 L 500 380 L 500 360 L 520 360 L 520 340 L 540 340 L 540 320 L 540 300 L 520 300 L 520 280 L 500 280 L 500 260 L 480 260 z M 480 560 L 480 580 L 480 600 L 480 620 L 480 640 L 480 660 L 480 680 L 500 680 L 500 660 L 520 660 L 520 640 L 540 640 L 540 620 L 540 600 L 520 600 L 520 580 L 500 580 L 500 560 L 480 560 z "
     style="fill:#2b50e0" />
  <path
     id="rect2116"
     d="M 420 80 L 420 100 L 420 120 L 420 140 L 420 160 L 420 180 L 420 200 L 420 220 L 420 240 L 420 260 L 420 280 L 420 300 L 420 320 L 420 340 L 420 360 L 400 360 L 380 360 L 380 340 L 360 340 L 360 320 L 340 320 L 340 300 L 320 300 L 320 280 L 300 280 L 300 260 L 280 260 L 280 280 L 260 280 L 260 300 L 240 300 L 240 320 L 260 320 L 260 340 L 280 340 L 280 360 L 300 360 L 300 380 L 320 380 L 320 400 L 340 400 L 340 420 L 360 420 L 360 440 L 380 440 L 380 460 L 400 460 L 400 480 L 380 480 L 380 500 L 360 500 L 360 520 L 340 520 L 340 540 L 320 540 L 320 560 L 300 560 L 300 580 L 280 580 L 280 600 L 260 600 L 260 620 L 240 620 L 240 640 L 260 640 L 260 660 L 280 660 L 280 680 L 300 680 L 300 660 L 320 660 L 320 640 L 340 640 L 340 620 L 360 620 L 360 600 L 380 600 L 380 580 L 400 580 L 420 580 L 420 600 L 420 620 L 420 640 L 420 660 L 420 680 L 420 700 L 420 720 L 420 740 L 420 760 L 420 780 L 420 800 L 420 820 L 440 820 L 460 820 L 460 800 L 480 800 L 480 780 L 500 780 L 500 760 L 520 760 L 520 740 L 540 740 L 540 720 L 560 720 L 560 700 L 580 700 L 580 680 L 600 680 L 600 660 L 620 660 L 620 640 L 640 640 L 640 620 L 640 600 L 620 600 L 620 580 L 600 580 L 600 560 L 580 560 L 580 540 L 560 540 L 560 520 L 540 520 L 540 500 L 520 500 L 520 480 L 500 480 L 500 460 L 520 460 L 520 440 L 540 440 L 540 420 L 560 420 L 560 400 L 580 400 L 580 380 L 600 380 L 600 360 L 620 360 L 620 340 L 640 340 L 640 320 L 660 320 L 660 300 L 640 300 L 640 280 L 620 280 L 620 260 L 600 260 L 600 240 L 580 240 L 580 220 L 560 220 L 560 200 L 540 200 L 540 180 L 520 180 L 520 160 L 500 160 L 500 140 L 480 140 L 480 120 L 460 120 L 460 100 L 440 100 L 440 80 L 420 80 z M 480 260 L 500 260 L 500 280 L 520 280 L 520 300 L 540 300 L 540 320 L 540 340 L 520 340 L 520 360 L 500 360 L 500 380 L 480 380 L 480 360 L 480 340 L 480 320 L 480 300 L 480 280 L 480 260 z M 480 560 L 500 560 L 500 580 L 520 580 L 520 600 L 540 600 L 540 620 L 540 640 L 520 640 L 520 660 L 500 660 L 500 680 L 480 680 L 480 660 L 480 640 L 480 620 L 480 600 L 480 580 L 480 560 z "
     style="fill:#ffffff" />
  <path
     id="rect2274"
     d="M 380 20 L 380 40 L 360 40 L 340 40 L 320 40 L 320 60 L 300 60 L 300 80 L 280 80 L 260 80 L 260 100 L 240 100 L 240 120 L 240 140 L 220 140 L 220 160 L 200 160 L 200 180 L 180 180 L 180 200 L 180 220 L 160 220 L 160 240 L 160 260 L 160 280 L 140 280 L 140 300 L 140 320 L 140 340 L 140 360 L 120 360 L 120 380 L 120 400 L 120 420 L 120 440 L 120 460 L 120 480 L 120 500 L 120 520 L 120 540 L 120 560 L 120 580 L 140 580 L 140 600 L 140 620 L 140 640 L 140 660 L 160 660 L 160 680 L 160 700 L 160 720 L 180 720 L 180 740 L 180 760 L 200 760 L 200 780 L 220 780 L 220 800 L 240 800 L 240 820 L 240 840 L 260 840 L 260 860 L 280 860 L 300 860 L 300 880 L 320 880 L 320 900 L 340 900 L 360 900 L 380 900 L 380 920 L 400 920 L 420 920 L 440 920 L 460 920 L 480 920 L 500 920 L 500 900 L 520 900 L 540 900 L 560 900 L 560 880 L 580 880 L 580 860 L 600 860 L 620 860 L 620 840 L 640 840 L 640 820 L 640 800 L 660 800 L 660 780 L 680 780 L 680 760 L 700 760 L 700 740 L 700 720 L 720 720 L 720 700 L 720 680 L 720 660 L 740 660 L 740 640 L 740 620 L 740 600 L 740 580 L 760 580 L 760 560 L 760 540 L 760 520 L 760 500 L 760 480 L 760 460 L 760 440 L 760 420 L 760 400 L 760 380 L 760 360 L 740 360 L 740 340 L 740 320 L 740 300 L 740 280 L 720 280 L 720 260 L 720 240 L 720 220 L 700 220 L 700 200 L 700 180 L 680 180 L 680 160 L 660 160 L 660 140 L 640 140 L 640 120 L 640 100 L 620 100 L 620 80 L 600 80 L 580 80 L 580 60 L 560 60 L 560 40 L 540 40 L 520 40 L 500 40 L 500 20 L 480 20 L 460 20 L 440 20 L 420 20 L 400 20 L 380 20 z M 420 80 L 440 80 L 440 100 L 460 100 L 460 120 L 480 120 L 480 140 L 500 140 L 500 160 L 520 160 L 520 180 L 540 180 L 540 200 L 560 200 L 560 220 L 580 220 L 580 240 L 600 240 L 600 260 L 620 260 L 620 280 L 640 280 L 640 300 L 660 300 L 660 320 L 640 320 L 640 340 L 620 340 L 620 360 L 600 360 L 600 380 L 580 380 L 580 400 L 560 400 L 560 420 L 540 420 L 540 440 L 520 440 L 520 460 L 500 460 L 500 480 L 520 480 L 520 500 L 540 500 L 540 520 L 560 520 L 560 540 L 580 540 L 580 560 L 600 560 L 600 580 L 620 580 L 620 600 L 640 600 L 640 620 L 640 640 L 620 640 L 620 660 L 600 660 L 600 680 L 580 680 L 580 700 L 560 700 L 560 720 L 540 720 L 540 740 L 520 740 L 520 760 L 500 760 L 500 780 L 480 780 L 480 800 L 460 800 L 460 820 L 440 820 L 420 820 L 420 800 L 420 780 L 420 760 L 420 740 L 420 720 L 420 700 L 420 680 L 420 660 L 420 640 L 420 620 L 420 600 L 420 580 L 400 580 L 380 580 L 380 600 L 360 600 L 360 620 L 340 620 L 340 640 L 320 640 L 320 660 L 300 660 L 300 680 L 280 680 L 280 660 L 260 660 L 260 640 L 240 640 L 240 620 L 260 620 L 260 600 L 280 600 L 280 580 L 300 580 L 300 560 L 320 560 L 320 540 L 340 540 L 340 520 L 360 520 L 360 500 L 380 500 L 380 480 L 400 480 L 400 460 L 380 460 L 380 440 L 360 440 L 360 420 L 340 420 L 340 400 L 320 400 L 320 380 L 300 380 L 300 360 L 280 360 L 280 340 L 260 340 L 260 320 L 240 320 L 240 300 L 260 300 L 260 280 L 280 280 L 280 260 L 300 260 L 300 280 L 320 280 L 320 300 L 340 300 L 340 320 L 360 320 L 360 340 L 380 340 L 380 360 L 400 360 L 420 360 L 420 340 L 420 320 L 420 300 L 420 280 L 420 260 L 420 240 L 420 220 L 420 200 L 420 180 L 420 160 L 420 140 L 420 120 L 420 100 L 420 80 z "
     style="fill:#001eff" />
</svg>
