<?xml version="1.0" encoding="UTF-8" standalone="no"?>
<svg
   xmlns:dc="http://purl.org/dc/elements/1.1/"
   xmlns:cc="http://creativecommons.org/ns#"
   xmlns:rdf="http://www.w3.org/1999/02/22-rdf-syntax-ns#"
   xmlns:svg="http://www.w3.org/2000/svg"
   xmlns="http://www.w3.org/2000/svg"
   id="svg3420"
   width="940px"
   version="1.1"
   height="960px">
  <metadata
     id="metadata3424">
    <rdf:RDF>
      <cc:Work
         rdf:about="">
        <dc:format>image/svg+xml</dc:format>
        <dc:type
           rdf:resource="http://purl.org/dc/dcmitype/StillImage" />
      </cc:Work>
    </rdf:RDF>
  </metadata>
  <defs
     id="defs2" />
  <path
     style="fill:#005f00"
     d="M 80 240 L 80 260 L 100 260 L 100 240 L 80 240 z "
     id="rect674" />
  <path
     style="fill:#9cce9c"
     d="M 540 240 L 540 260 L 560 260 L 580 260 L 600 260 L 620 260 L 640 260 L 660 260 L 660 240 L 640 240 L 620 240 L 600 240 L 580 240 L 560 240 L 540 240 z "
     id="rect730" />
  <path
     style="fill:#004e00"
     d="M 60 240 L 60 260 L 80 260 L 80 240 L 60 240 z M 780 240 L 780 260 L 800 260 L 820 260 L 820 240 L 800 240 L 780 240 z "
     id="rect746" />
  <path
     style="fill:#393939"
     d="M 820 240 L 820 260 L 840 260 L 840 240 L 820 240 z "
     id="rect748" />
  <path
     style="fill:#ebebeb"
     d="M 520 300 L 520 320 L 540 320 L 540 300 L 520 300 z "
     id="rect970" />
  <path
     style="fill:#4f9e4f"
     d="M 640 300 L 640 320 L 660 320 L 660 300 L 640 300 z "
     id="rect982" />
  <path
     style="fill:#95b795"
     d="M 380 500 L 380 520 L 400 520 L 400 500 L 380 500 z "
     id="rect1872" />
  <path
     style="fill:#f1f1f1"
     d="M 320 460 L 320 480 L 320 500 L 340 500 L 340 480 L 340 460 L 320 460 z M 380 520 L 380 540 L 380 560 L 400 560 L 400 540 L 400 520 L 380 520 z "
     id="rect2060" />
  <path
     style="fill:#d9d9d9"
     d="M 320 560 L 320 580 L 340 580 L 340 560 L 320 560 z M 380 620 L 380 640 L 400 640 L 400 620 L 380 620 z "
     id="rect2420" />
  <path
     style="fill:#369436"
     d="M 320 580 L 320 600 L 320 620 L 340 620 L 340 600 L 340 580 L 320 580 z M 380 640 L 380 660 L 380 680 L 400 680 L 400 660 L 400 640 L 380 640 z "
     id="rect2588" />
  <path
     style="fill:#ffffff"
     d="M 540 260 L 540 280 L 540 300 L 540 320 L 520 320 L 520 340 L 500 340 L 500 360 L 500 380 L 480 380 L 480 400 L 480 420 L 480 440 L 460 440 L 460 460 L 460 480 L 460 500 L 440 500 L 420 500 L 420 520 L 420 540 L 420 560 L 400 560 L 380 560 L 380 540 L 380 520 L 360 520 L 360 500 L 340 500 L 320 500 L 320 480 L 320 460 L 300 460 L 280 460 L 260 460 L 240 460 L 240 480 L 240 500 L 260 500 L 280 500 L 280 520 L 300 520 L 300 540 L 300 560 L 320 560 L 340 560 L 340 580 L 360 580 L 360 600 L 360 620 L 380 620 L 400 620 L 400 640 L 420 640 L 420 660 L 420 680 L 440 680 L 460 680 L 460 660 L 460 640 L 480 640 L 480 620 L 480 600 L 480 580 L 500 580 L 520 580 L 520 560 L 520 540 L 520 520 L 540 520 L 540 500 L 540 480 L 540 460 L 560 460 L 580 460 L 580 440 L 580 420 L 580 400 L 600 400 L 600 380 L 600 360 L 600 340 L 620 340 L 640 340 L 640 320 L 640 300 L 640 280 L 660 280 L 660 260 L 640 260 L 620 260 L 600 260 L 580 260 L 560 260 L 540 260 z "
     id="rect2594" />
  <path
     style="fill:#cbcbcb"
     d="M 520 280 L 520 300 L 540 300 L 540 280 L 520 280 z M 640 280 L 640 300 L 660 300 L 660 280 L 640 280 z M 480 340 L 480 360 L 480 380 L 500 380 L 500 360 L 500 340 L 480 340 z M 600 340 L 600 360 L 600 380 L 620 380 L 640 380 L 640 360 L 640 340 L 620 340 L 600 340 z M 460 400 L 460 420 L 460 440 L 480 440 L 480 420 L 480 400 L 460 400 z M 580 400 L 580 420 L 580 440 L 600 440 L 600 420 L 600 400 L 580 400 z M 340 460 L 340 480 L 340 500 L 360 500 L 360 480 L 360 460 L 340 460 z M 360 500 L 360 520 L 380 520 L 380 500 L 360 500 z M 420 460 L 420 480 L 420 500 L 440 500 L 460 500 L 460 480 L 460 460 L 440 460 L 420 460 z M 540 460 L 540 480 L 540 500 L 560 500 L 580 500 L 580 480 L 580 460 L 560 460 L 540 460 z M 240 500 L 240 520 L 260 520 L 280 520 L 280 500 L 260 500 L 240 500 z M 280 520 L 280 540 L 280 560 L 300 560 L 300 540 L 300 520 L 280 520 z M 300 560 L 300 580 L 320 580 L 320 560 L 300 560 z M 400 520 L 400 540 L 400 560 L 420 560 L 420 540 L 420 520 L 400 520 z M 520 520 L 520 540 L 520 560 L 540 560 L 540 540 L 540 520 L 520 520 z M 340 580 L 340 600 L 340 620 L 360 620 L 360 600 L 360 580 L 340 580 z M 360 620 L 360 640 L 380 640 L 380 620 L 360 620 z M 480 580 L 480 600 L 480 620 L 500 620 L 520 620 L 520 600 L 520 580 L 500 580 L 480 580 z M 400 640 L 400 660 L 400 680 L 420 680 L 420 660 L 420 640 L 400 640 z M 460 640 L 460 660 L 460 680 L 480 680 L 480 660 L 480 640 L 460 640 z "
     id="rect2596" />
  <path
     style="fill:#002200"
     d="M 320 40 L 320 60 L 340 60 L 340 40 L 320 40 z M 80 180 L 80 200 L 80 220 L 80 240 L 100 240 L 100 220 L 100 200 L 100 180 L 80 180 z M 20 340 L 20 360 L 20 380 L 20 400 L 20 420 L 20 440 L 20 460 L 20 480 L 20 500 L 20 520 L 20 540 L 20 560 L 40 560 L 40 540 L 40 520 L 40 500 L 40 480 L 40 460 L 40 440 L 40 420 L 40 400 L 40 380 L 40 360 L 40 340 L 20 340 z M 80 640 L 80 660 L 80 680 L 80 700 L 100 700 L 100 680 L 100 660 L 100 640 L 80 640 z M 320 820 L 320 840 L 320 860 L 340 860 L 340 840 L 340 820 L 320 820 z "
     id="rect3222" />
  <path
     style="fill:#008000"
     d="M 340 40 L 340 60 L 320 60 L 300 60 L 280 60 L 260 60 L 240 60 L 240 80 L 240 100 L 220 100 L 200 100 L 180 100 L 180 120 L 160 120 L 160 140 L 160 160 L 140 160 L 120 160 L 120 180 L 100 180 L 100 200 L 100 220 L 100 240 L 100 260 L 80 260 L 60 260 L 60 280 L 60 300 L 60 320 L 60 340 L 40 340 L 40 360 L 40 380 L 40 400 L 40 420 L 40 440 L 40 460 L 40 480 L 40 500 L 40 520 L 40 540 L 40 560 L 60 560 L 60 580 L 60 600 L 60 620 L 60 640 L 80 640 L 100 640 L 100 660 L 100 680 L 100 700 L 120 700 L 120 720 L 120 740 L 140 740 L 160 740 L 160 760 L 180 760 L 180 780 L 180 800 L 200 800 L 220 800 L 240 800 L 240 820 L 260 820 L 280 820 L 300 820 L 320 820 L 340 820 L 340 840 L 340 860 L 360 860 L 380 860 L 400 860 L 420 860 L 440 860 L 460 860 L 480 860 L 500 860 L 520 860 L 540 860 L 540 840 L 540 820 L 560 820 L 580 820 L 600 820 L 620 820 L 640 820 L 640 800 L 660 800 L 680 800 L 700 800 L 700 780 L 700 760 L 720 760 L 720 740 L 740 740 L 760 740 L 760 720 L 760 700 L 780 700 L 780 680 L 780 660 L 780 640 L 800 640 L 820 640 L 820 620 L 820 600 L 820 580 L 820 560 L 840 560 L 840 540 L 840 520 L 840 500 L 840 480 L 840 460 L 840 440 L 840 420 L 840 400 L 840 380 L 840 360 L 840 340 L 820 340 L 820 320 L 820 300 L 820 280 L 820 260 L 800 260 L 780 260 L 780 240 L 780 220 L 780 200 L 780 180 L 760 180 L 760 160 L 740 160 L 720 160 L 720 140 L 720 120 L 700 120 L 700 100 L 680 100 L 660 100 L 640 100 L 640 80 L 640 60 L 620 60 L 600 60 L 580 60 L 560 60 L 540 60 L 540 40 L 520 40 L 500 40 L 480 40 L 460 40 L 440 40 L 420 40 L 400 40 L 380 40 L 360 40 L 340 40 z M 540 240 L 560 240 L 580 240 L 600 240 L 620 240 L 640 240 L 660 240 L 660 260 L 660 280 L 660 300 L 660 320 L 640 320 L 640 340 L 640 360 L 640 380 L 620 380 L 600 380 L 600 400 L 600 420 L 600 440 L 580 440 L 580 460 L 580 480 L 580 500 L 560 500 L 540 500 L 540 520 L 540 540 L 540 560 L 520 560 L 520 580 L 520 600 L 520 620 L 500 620 L 480 620 L 480 640 L 480 660 L 480 680 L 460 680 L 440 680 L 420 680 L 400 680 L 380 680 L 380 660 L 380 640 L 360 640 L 360 620 L 340 620 L 320 620 L 320 600 L 320 580 L 300 580 L 300 560 L 280 560 L 280 540 L 280 520 L 260 520 L 240 520 L 240 500 L 240 480 L 240 460 L 260 460 L 280 460 L 300 460 L 320 460 L 340 460 L 360 460 L 360 480 L 360 500 L 380 500 L 400 500 L 400 520 L 420 520 L 420 500 L 420 480 L 420 460 L 440 460 L 460 460 L 460 440 L 460 420 L 460 400 L 480 400 L 480 380 L 480 360 L 480 340 L 500 340 L 520 340 L 520 320 L 520 300 L 520 280 L 540 280 L 540 260 L 540 240 z "
     id="rect3242" />
  <path
     style="fill:#6b6b6b"
     d="M 320 860 L 320 880 L 340 880 L 340 860 L 320 860 z "
     id="rect3276" />
  <path
     style="fill:#000000"
     d="M 340 0 L 340 20 L 340 40 L 360 40 L 380 40 L 400 40 L 420 40 L 440 40 L 460 40 L 480 40 L 500 40 L 520 40 L 540 40 L 540 20 L 540 0 L 520 0 L 500 0 L 480 0 L 460 0 L 440 0 L 420 0 L 400 0 L 380 0 L 360 0 L 340 0 z M 540 40 L 540 60 L 560 60 L 580 60 L 600 60 L 620 60 L 640 60 L 640 40 L 620 40 L 600 40 L 580 40 L 560 40 L 540 40 z M 640 60 L 640 80 L 640 100 L 660 100 L 680 100 L 700 100 L 700 80 L 700 60 L 680 60 L 660 60 L 640 60 z M 700 100 L 700 120 L 720 120 L 720 100 L 700 100 z M 720 120 L 720 140 L 720 160 L 740 160 L 760 160 L 760 140 L 760 120 L 740 120 L 720 120 z M 760 160 L 760 180 L 780 180 L 780 160 L 760 160 z M 780 180 L 780 200 L 780 220 L 780 240 L 800 240 L 820 240 L 820 220 L 820 200 L 820 180 L 800 180 L 780 180 z M 240 40 L 240 60 L 260 60 L 280 60 L 300 60 L 320 60 L 320 40 L 300 40 L 280 40 L 260 40 L 240 40 z M 240 60 L 220 60 L 200 60 L 180 60 L 180 80 L 180 100 L 200 100 L 220 100 L 240 100 L 240 80 L 240 60 z M 180 100 L 160 100 L 160 120 L 180 120 L 180 100 z M 160 120 L 140 120 L 120 120 L 120 140 L 120 160 L 140 160 L 160 160 L 160 140 L 160 120 z M 120 160 L 100 160 L 100 180 L 120 180 L 120 160 z M 60 180 L 60 200 L 60 220 L 60 240 L 80 240 L 80 220 L 80 200 L 80 180 L 60 180 z M 60 240 L 40 240 L 40 260 L 40 280 L 40 300 L 40 320 L 40 340 L 60 340 L 60 320 L 60 300 L 60 280 L 60 260 L 60 240 z M 820 260 L 820 280 L 820 300 L 820 320 L 820 340 L 840 340 L 840 320 L 840 300 L 840 280 L 840 260 L 820 260 z M 840 340 L 840 360 L 840 380 L 840 400 L 840 420 L 840 440 L 840 460 L 840 480 L 840 500 L 840 520 L 840 540 L 840 560 L 860 560 L 880 560 L 880 540 L 880 520 L 880 500 L 880 480 L 880 460 L 880 440 L 880 420 L 880 400 L 880 380 L 880 360 L 880 340 L 860 340 L 840 340 z M 840 560 L 820 560 L 820 580 L 820 600 L 820 620 L 820 640 L 840 640 L 840 620 L 840 600 L 840 580 L 840 560 z M 820 640 L 800 640 L 780 640 L 780 660 L 780 680 L 780 700 L 800 700 L 820 700 L 820 680 L 820 660 L 820 640 z M 780 700 L 760 700 L 760 720 L 760 740 L 780 740 L 780 720 L 780 700 z M 760 740 L 740 740 L 720 740 L 720 760 L 740 760 L 760 760 L 760 740 z M 720 760 L 700 760 L 700 780 L 700 800 L 720 800 L 720 780 L 720 760 z M 700 800 L 680 800 L 660 800 L 640 800 L 640 820 L 660 820 L 680 820 L 700 820 L 700 800 z M 640 820 L 620 820 L 600 820 L 580 820 L 560 820 L 540 820 L 540 840 L 540 860 L 560 860 L 580 860 L 600 860 L 620 860 L 640 860 L 640 840 L 640 820 z M 540 860 L 520 860 L 500 860 L 480 860 L 460 860 L 440 860 L 420 860 L 400 860 L 380 860 L 360 860 L 340 860 L 340 880 L 360 880 L 380 880 L 400 880 L 420 880 L 440 880 L 460 880 L 480 880 L 500 880 L 520 880 L 540 880 L 540 860 z M 0 340 L 0 360 L 0 380 L 0 400 L 0 420 L 0 440 L 0 460 L 0 480 L 0 500 L 0 520 L 0 540 L 0 560 L 20 560 L 20 540 L 20 520 L 20 500 L 20 480 L 20 460 L 20 440 L 20 420 L 20 400 L 20 380 L 20 360 L 20 340 L 0 340 z M 40 560 L 40 580 L 40 600 L 40 620 L 40 640 L 60 640 L 60 620 L 60 600 L 60 580 L 60 560 L 40 560 z M 60 640 L 60 660 L 60 680 L 60 700 L 80 700 L 80 680 L 80 660 L 80 640 L 60 640 z M 100 700 L 100 720 L 100 740 L 120 740 L 120 720 L 120 700 L 100 700 z M 120 740 L 120 760 L 140 760 L 160 760 L 160 740 L 140 740 L 120 740 z M 160 760 L 160 780 L 160 800 L 180 800 L 180 780 L 180 760 L 160 760 z M 180 800 L 180 820 L 200 820 L 220 820 L 240 820 L 240 800 L 220 800 L 200 800 L 180 800 z M 240 820 L 240 840 L 240 860 L 260 860 L 280 860 L 300 860 L 320 860 L 320 840 L 320 820 L 300 820 L 280 820 L 260 820 L 240 820 z "
     id="rect3296" />
  <path
     style="fill:#929292"
     d="M 820 220 L 820 240 L 840 240 L 840 220 L 820 220 z M 840 240 L 840 260 L 840 280 L 840 300 L 840 320 L 840 340 L 860 340 L 880 340 L 880 360 L 880 380 L 880 400 L 880 420 L 880 440 L 880 460 L 880 480 L 880 500 L 880 520 L 880 540 L 880 560 L 860 560 L 840 560 L 840 580 L 840 600 L 840 620 L 840 640 L 820 640 L 820 660 L 820 680 L 820 700 L 800 700 L 780 700 L 780 720 L 780 740 L 760 740 L 760 760 L 740 760 L 720 760 L 720 780 L 720 800 L 700 800 L 700 820 L 680 820 L 660 820 L 640 820 L 640 840 L 640 860 L 620 860 L 600 860 L 580 860 L 560 860 L 540 860 L 540 880 L 520 880 L 500 880 L 480 880 L 460 880 L 440 880 L 420 880 L 400 880 L 380 880 L 360 880 L 340 880 L 320 880 L 320 860 L 300 860 L 280 860 L 260 860 L 240 860 L 240 880 L 260 880 L 280 880 L 300 880 L 300 900 L 300 920 L 320 920 L 340 920 L 360 920 L 380 920 L 400 920 L 400 940 L 420 940 L 440 940 L 460 940 L 480 940 L 500 940 L 520 940 L 540 940 L 560 940 L 580 940 L 600 940 L 600 920 L 620 920 L 640 920 L 660 920 L 680 920 L 700 920 L 700 900 L 700 880 L 720 880 L 740 880 L 760 880 L 760 860 L 780 860 L 780 840 L 780 820 L 800 820 L 820 820 L 820 800 L 840 800 L 840 780 L 840 760 L 860 760 L 880 760 L 880 740 L 880 720 L 880 700 L 900 700 L 900 680 L 900 660 L 900 640 L 900 620 L 920 620 L 940 620 L 940 600 L 940 580 L 940 560 L 940 540 L 940 520 L 940 500 L 940 480 L 940 460 L 940 440 L 940 420 L 940 400 L 920 400 L 900 400 L 900 380 L 900 360 L 900 340 L 900 320 L 900 300 L 880 300 L 880 280 L 880 260 L 880 240 L 860 240 L 840 240 z M 240 860 L 240 840 L 240 820 L 220 820 L 220 840 L 220 860 L 240 860 z "
     id="rect3418" />
</svg>
