<?xml version="1.0" encoding="UTF-8" standalone="no"?>
<svg
   xmlns:dc="http://purl.org/dc/elements/1.1/"
   xmlns:cc="http://creativecommons.org/ns#"
   xmlns:rdf="http://www.w3.org/1999/02/22-rdf-syntax-ns#"
   xmlns:svg="http://www.w3.org/2000/svg"
   xmlns="http://www.w3.org/2000/svg"
   xmlns:sodipodi="http://sodipodi.sourceforge.net/DTD/sodipodi-0.dtd"
   xmlns:inkscape="http://www.inkscape.org/namespaces/inkscape"
   id="svg4608"
   width="960px"
   version="1.1"
   height="960px"
   sodipodi:docname="chicago95_tmp_file.svg"
   inkscape:version="0.92.4 (5da689c313, 2019-01-14)">
  <sodipodi:namedview
     pagecolor="#ffffff"
     bordercolor="#666666"
     borderopacity="1"
     objecttolerance="10"
     gridtolerance="10"
     guidetolerance="10"
     inkscape:pageopacity="0"
     inkscape:pageshadow="2"
     inkscape:window-width="453"
     inkscape:window-height="423"
     id="namedview2307"
     showgrid="false"
     inkscape:zoom="0.24583333"
     inkscape:cx="496.27116"
     inkscape:cy="447.4576"
     inkscape:window-x="0"
     inkscape:window-y="0"
     inkscape:window-maximized="0"
     inkscape:current-layer="svg4608" />
  <metadata
     id="metadata4612">
    <rdf:RDF>
      <cc:Work
         rdf:about="">
        <dc:format>image/svg+xml</dc:format>
        <dc:type
           rdf:resource="http://purl.org/dc/dcmitype/StillImage" />
      </cc:Work>
    </rdf:RDF>
  </metadata>
  <defs
     id="defs2" />
  <path
     style="fill:#ffffff"
     d="M 460 160 L 460 180 L 480 180 L 480 160 L 460 160 z M 300 180 L 300 200 L 320 200 L 320 180 L 300 180 z M 600 180 L 600 200 L 620 200 L 620 180 L 600 180 z M 180 300 L 180 320 L 200 320 L 200 300 L 180 300 z M 720 300 L 720 320 L 740 320 L 740 300 L 720 300 z M 160 460 L 160 480 L 180 480 L 180 460 L 160 460 z M 740 460 L 740 480 L 760 480 L 760 460 L 740 460 z M 180 600 L 180 620 L 200 620 L 200 600 L 180 600 z M 720 600 L 720 620 L 740 620 L 740 600 L 720 600 z M 300 720 L 300 740 L 320 740 L 320 720 L 300 720 z M 600 720 L 600 740 L 620 740 L 620 720 L 600 720 z M 460 760 L 460 780 L 480 780 L 480 760 L 460 760 z "
     id="rect3696" />
  <path
     style="fill:#c0c0c0"
     d="M 120 120 L 120 140 L 120 160 L 120 180 L 120 200 L 120 220 L 120 240 L 120 260 L 120 280 L 120 300 L 120 320 L 120 340 L 120 360 L 120 380 L 120 400 L 120 420 L 120 440 L 120 460 L 120 480 L 120 500 L 120 520 L 120 540 L 120 560 L 120 580 L 120 600 L 120 620 L 120 640 L 120 660 L 120 680 L 120 700 L 120 720 L 120 740 L 120 760 L 120 780 L 120 800 L 120 820 L 120 840 L 140 840 L 160 840 L 180 840 L 200 840 L 220 840 L 240 840 L 260 840 L 280 840 L 300 840 L 320 840 L 340 840 L 360 840 L 380 840 L 400 840 L 420 840 L 440 840 L 460 840 L 480 840 L 500 840 L 520 840 L 540 840 L 560 840 L 580 840 L 600 840 L 620 840 L 640 840 L 660 840 L 680 840 L 700 840 L 720 840 L 740 840 L 760 840 L 780 840 L 800 840 L 820 840 L 840 840 L 840 820 L 840 800 L 840 780 L 840 760 L 840 740 L 840 720 L 840 700 L 840 680 L 840 660 L 840 640 L 840 620 L 840 600 L 840 580 L 840 560 L 840 540 L 840 520 L 840 500 L 840 480 L 840 460 L 840 440 L 840 420 L 840 400 L 840 380 L 840 360 L 840 340 L 840 320 L 840 300 L 840 280 L 840 260 L 840 240 L 840 220 L 840 200 L 840 180 L 840 160 L 840 140 L 840 120 L 820 120 L 800 120 L 780 120 L 760 120 L 740 120 L 720 120 L 700 120 L 680 120 L 660 120 L 640 120 L 620 120 L 600 120 L 580 120 L 560 120 L 540 120 L 520 120 L 500 120 L 480 120 L 460 120 L 440 120 L 420 120 L 400 120 L 380 120 L 360 120 L 340 120 L 320 120 L 300 120 L 280 120 L 260 120 L 240 120 L 220 120 L 200 120 L 180 120 L 160 120 L 140 120 L 120 120 z M 460 160 L 480 160 L 500 160 L 500 180 L 520 180 L 520 200 L 500 200 L 500 220 L 480 220 L 480 200 L 460 200 L 460 180 L 460 160 z M 300 180 L 320 180 L 340 180 L 340 200 L 360 200 L 360 220 L 340 220 L 340 240 L 320 240 L 320 220 L 300 220 L 300 200 L 300 180 z M 600 180 L 620 180 L 640 180 L 640 200 L 660 200 L 660 220 L 640 220 L 640 240 L 620 240 L 620 220 L 600 220 L 600 200 L 600 180 z M 480 260 L 500 260 L 500 280 L 500 300 L 500 320 L 500 340 L 500 360 L 500 380 L 500 400 L 500 420 L 500 440 L 500 460 L 520 460 L 520 440 L 540 440 L 540 420 L 560 420 L 560 440 L 540 440 L 540 460 L 520 460 L 520 480 L 540 480 L 560 480 L 580 480 L 600 480 L 620 480 L 640 480 L 660 480 L 680 480 L 680 500 L 660 500 L 640 500 L 620 500 L 600 500 L 580 500 L 560 500 L 540 500 L 520 500 L 500 500 L 500 520 L 500 540 L 500 560 L 500 580 L 500 600 L 480 600 L 480 580 L 480 560 L 480 540 L 480 520 L 460 520 L 460 540 L 440 540 L 440 560 L 420 560 L 420 580 L 400 580 L 400 600 L 380 600 L 380 580 L 400 580 L 400 560 L 420 560 L 420 540 L 440 540 L 440 520 L 460 520 L 460 500 L 440 500 L 420 500 L 420 480 L 440 480 L 460 480 L 480 480 L 480 460 L 480 440 L 480 420 L 480 400 L 480 380 L 480 360 L 480 340 L 480 320 L 480 300 L 480 280 L 480 260 z M 180 300 L 200 300 L 220 300 L 220 320 L 240 320 L 240 340 L 220 340 L 220 360 L 200 360 L 200 340 L 180 340 L 180 320 L 180 300 z M 720 300 L 740 300 L 760 300 L 760 320 L 780 320 L 780 340 L 760 340 L 760 360 L 740 360 L 740 340 L 720 340 L 720 320 L 720 300 z M 160 460 L 180 460 L 200 460 L 200 480 L 220 480 L 220 500 L 200 500 L 200 520 L 180 520 L 180 500 L 160 500 L 160 480 L 160 460 z M 740 460 L 760 460 L 780 460 L 780 480 L 800 480 L 800 500 L 780 500 L 780 520 L 760 520 L 760 500 L 740 500 L 740 480 L 740 460 z M 180 600 L 200 600 L 220 600 L 220 620 L 240 620 L 240 640 L 220 640 L 220 660 L 200 660 L 200 640 L 180 640 L 180 620 L 180 600 z M 720 600 L 740 600 L 760 600 L 760 620 L 780 620 L 780 640 L 760 640 L 760 660 L 740 660 L 740 640 L 720 640 L 720 620 L 720 600 z M 300 720 L 320 720 L 340 720 L 340 740 L 360 740 L 360 760 L 340 760 L 340 780 L 320 780 L 320 760 L 300 760 L 300 740 L 300 720 z M 600 720 L 620 720 L 640 720 L 640 740 L 660 740 L 660 760 L 640 760 L 640 780 L 620 780 L 620 760 L 600 760 L 600 740 L 600 720 z M 460 760 L 480 760 L 500 760 L 500 780 L 520 780 L 520 800 L 500 800 L 500 820 L 480 820 L 480 800 L 460 800 L 460 780 L 460 760 z "
     id="rect4020" />
  <path
     style="fill:#ff0000"
     d="M 40 40 L 40 60 L 40 80 L 40 100 L 40 120 L 40 140 L 40 160 L 40 180 L 40 200 L 40 220 L 40 240 L 40 260 L 40 280 L 40 300 L 40 320 L 40 340 L 40 360 L 40 380 L 40 400 L 40 420 L 40 440 L 40 460 L 40 480 L 40 500 L 40 520 L 40 540 L 40 560 L 40 580 L 40 600 L 40 620 L 40 640 L 40 660 L 40 680 L 40 700 L 40 720 L 40 740 L 40 760 L 40 780 L 40 800 L 40 820 L 40 840 L 40 860 L 40 880 L 40 900 L 60 900 L 80 900 L 100 900 L 120 900 L 140 900 L 160 900 L 180 900 L 200 900 L 220 900 L 240 900 L 260 900 L 280 900 L 300 900 L 320 900 L 340 900 L 360 900 L 380 900 L 400 900 L 420 900 L 440 900 L 460 900 L 480 900 L 500 900 L 520 900 L 540 900 L 560 900 L 580 900 L 600 900 L 620 900 L 640 900 L 660 900 L 680 900 L 700 900 L 720 900 L 740 900 L 760 900 L 780 900 L 800 900 L 820 900 L 840 900 L 860 900 L 880 900 L 900 900 L 900 880 L 900 860 L 900 840 L 900 820 L 900 800 L 900 780 L 900 760 L 900 740 L 900 720 L 900 700 L 900 680 L 900 660 L 900 640 L 900 620 L 900 600 L 900 580 L 900 560 L 900 540 L 900 520 L 900 500 L 900 480 L 900 460 L 900 440 L 900 420 L 900 400 L 900 380 L 900 360 L 900 340 L 900 320 L 900 300 L 900 280 L 900 260 L 900 240 L 900 220 L 900 200 L 900 180 L 900 160 L 900 140 L 900 120 L 900 100 L 900 80 L 900 60 L 900 40 L 880 40 L 860 40 L 840 40 L 820 40 L 800 40 L 780 40 L 760 40 L 740 40 L 720 40 L 700 40 L 680 40 L 660 40 L 640 40 L 620 40 L 600 40 L 580 40 L 560 40 L 540 40 L 520 40 L 500 40 L 480 40 L 460 40 L 440 40 L 420 40 L 400 40 L 380 40 L 360 40 L 340 40 L 320 40 L 300 40 L 280 40 L 260 40 L 240 40 L 220 40 L 200 40 L 180 40 L 160 40 L 140 40 L 120 40 L 100 40 L 80 40 L 60 40 L 40 40 z M 80 80 L 100 80 L 120 80 L 140 80 L 160 80 L 180 80 L 200 80 L 220 80 L 240 80 L 260 80 L 280 80 L 300 80 L 320 80 L 340 80 L 360 80 L 380 80 L 400 80 L 420 80 L 440 80 L 460 80 L 480 80 L 500 80 L 520 80 L 540 80 L 560 80 L 580 80 L 600 80 L 620 80 L 640 80 L 660 80 L 680 80 L 700 80 L 720 80 L 740 80 L 760 80 L 780 80 L 800 80 L 820 80 L 840 80 L 860 80 L 860 100 L 860 120 L 860 140 L 860 160 L 860 180 L 860 200 L 860 220 L 860 240 L 860 260 L 860 280 L 860 300 L 860 320 L 860 340 L 860 360 L 860 380 L 860 400 L 860 420 L 860 440 L 860 460 L 860 480 L 860 500 L 860 520 L 860 540 L 860 560 L 860 580 L 860 600 L 860 620 L 860 640 L 860 660 L 860 680 L 860 700 L 860 720 L 860 740 L 860 760 L 860 780 L 860 800 L 860 820 L 860 840 L 860 860 L 840 860 L 820 860 L 800 860 L 780 860 L 760 860 L 740 860 L 720 860 L 700 860 L 680 860 L 660 860 L 640 860 L 620 860 L 600 860 L 580 860 L 560 860 L 540 860 L 520 860 L 500 860 L 480 860 L 460 860 L 440 860 L 420 860 L 400 860 L 380 860 L 360 860 L 340 860 L 320 860 L 300 860 L 280 860 L 260 860 L 240 860 L 220 860 L 200 860 L 180 860 L 160 860 L 140 860 L 120 860 L 100 860 L 80 860 L 80 840 L 80 820 L 80 800 L 80 780 L 80 760 L 80 740 L 80 720 L 80 700 L 80 680 L 80 660 L 80 640 L 80 620 L 80 600 L 80 580 L 80 560 L 80 540 L 80 520 L 80 500 L 80 480 L 80 460 L 80 440 L 80 420 L 80 400 L 80 380 L 80 360 L 80 340 L 80 320 L 80 300 L 80 280 L 80 260 L 80 240 L 80 220 L 80 200 L 80 180 L 80 160 L 80 140 L 80 120 L 80 100 L 80 80 z "
     id="rect4314" />
  <path
     style="fill:#800000"
     d="M 20 20 L 20 40 L 20 60 L 20 80 L 20 100 L 20 120 L 20 140 L 20 160 L 20 180 L 20 200 L 20 220 L 20 240 L 20 260 L 20 280 L 20 300 L 20 320 L 20 340 L 20 360 L 20 380 L 20 400 L 20 420 L 20 440 L 20 460 L 20 480 L 20 500 L 20 520 L 20 540 L 20 560 L 20 580 L 20 600 L 20 620 L 20 640 L 20 660 L 20 680 L 20 700 L 20 720 L 20 740 L 20 760 L 20 780 L 20 800 L 20 820 L 20 840 L 20 860 L 20 880 L 20 900 L 20 920 L 40 920 L 60 920 L 80 920 L 100 920 L 120 920 L 140 920 L 160 920 L 180 920 L 200 920 L 220 920 L 240 920 L 260 920 L 280 920 L 300 920 L 320 920 L 340 920 L 360 920 L 380 920 L 400 920 L 420 920 L 440 920 L 460 920 L 480 920 L 500 920 L 520 920 L 540 920 L 560 920 L 580 920 L 600 920 L 620 920 L 640 920 L 660 920 L 680 920 L 700 920 L 720 920 L 740 920 L 760 920 L 780 920 L 800 920 L 820 920 L 840 920 L 860 920 L 880 920 L 900 920 L 920 920 L 920 900 L 920 880 L 920 860 L 920 840 L 920 820 L 920 800 L 920 780 L 920 760 L 920 740 L 920 720 L 920 700 L 920 680 L 920 660 L 920 640 L 920 620 L 920 600 L 920 580 L 920 560 L 920 540 L 920 520 L 920 500 L 920 480 L 920 460 L 920 440 L 920 420 L 920 400 L 920 380 L 920 360 L 920 340 L 920 320 L 920 300 L 920 280 L 920 260 L 920 240 L 920 220 L 920 200 L 920 180 L 920 160 L 920 140 L 920 120 L 920 100 L 920 80 L 920 60 L 920 40 L 920 20 L 900 20 L 880 20 L 860 20 L 840 20 L 820 20 L 800 20 L 780 20 L 760 20 L 740 20 L 720 20 L 700 20 L 680 20 L 660 20 L 640 20 L 620 20 L 600 20 L 580 20 L 560 20 L 540 20 L 520 20 L 500 20 L 480 20 L 460 20 L 440 20 L 420 20 L 400 20 L 380 20 L 360 20 L 340 20 L 320 20 L 300 20 L 280 20 L 260 20 L 240 20 L 220 20 L 200 20 L 180 20 L 160 20 L 140 20 L 120 20 L 100 20 L 80 20 L 60 20 L 40 20 L 20 20 z M 40 40 L 60 40 L 80 40 L 100 40 L 120 40 L 140 40 L 160 40 L 180 40 L 200 40 L 220 40 L 240 40 L 260 40 L 280 40 L 300 40 L 320 40 L 340 40 L 360 40 L 380 40 L 400 40 L 420 40 L 440 40 L 460 40 L 480 40 L 500 40 L 520 40 L 540 40 L 560 40 L 580 40 L 600 40 L 620 40 L 640 40 L 660 40 L 680 40 L 700 40 L 720 40 L 740 40 L 760 40 L 780 40 L 800 40 L 820 40 L 840 40 L 860 40 L 880 40 L 900 40 L 900 60 L 900 80 L 900 100 L 900 120 L 900 140 L 900 160 L 900 180 L 900 200 L 900 220 L 900 240 L 900 260 L 900 280 L 900 300 L 900 320 L 900 340 L 900 360 L 900 380 L 900 400 L 900 420 L 900 440 L 900 460 L 900 480 L 900 500 L 900 520 L 900 540 L 900 560 L 900 580 L 900 600 L 900 620 L 900 640 L 900 660 L 900 680 L 900 700 L 900 720 L 900 740 L 900 760 L 900 780 L 900 800 L 900 820 L 900 840 L 900 860 L 900 880 L 900 900 L 880 900 L 860 900 L 840 900 L 820 900 L 800 900 L 780 900 L 760 900 L 740 900 L 720 900 L 700 900 L 680 900 L 660 900 L 640 900 L 620 900 L 600 900 L 580 900 L 560 900 L 540 900 L 520 900 L 500 900 L 480 900 L 460 900 L 440 900 L 420 900 L 400 900 L 380 900 L 360 900 L 340 900 L 320 900 L 300 900 L 280 900 L 260 900 L 240 900 L 220 900 L 200 900 L 180 900 L 160 900 L 140 900 L 120 900 L 100 900 L 80 900 L 60 900 L 40 900 L 40 880 L 40 860 L 40 840 L 40 820 L 40 800 L 40 780 L 40 760 L 40 740 L 40 720 L 40 700 L 40 680 L 40 660 L 40 640 L 40 620 L 40 600 L 40 580 L 40 560 L 40 540 L 40 520 L 40 500 L 40 480 L 40 460 L 40 440 L 40 420 L 40 400 L 40 380 L 40 360 L 40 340 L 40 320 L 40 300 L 40 280 L 40 260 L 40 240 L 40 220 L 40 200 L 40 180 L 40 160 L 40 140 L 40 120 L 40 100 L 40 80 L 40 60 L 40 40 z M 80 80 L 80 100 L 80 120 L 80 140 L 80 160 L 80 180 L 80 200 L 80 220 L 80 240 L 80 260 L 80 280 L 80 300 L 80 320 L 80 340 L 80 360 L 80 380 L 80 400 L 80 420 L 80 440 L 80 460 L 80 480 L 80 500 L 80 520 L 80 540 L 80 560 L 80 580 L 80 600 L 80 620 L 80 640 L 80 660 L 80 680 L 80 700 L 80 720 L 80 740 L 80 760 L 80 780 L 80 800 L 80 820 L 80 840 L 80 860 L 100 860 L 100 840 L 100 820 L 100 800 L 100 780 L 100 760 L 100 740 L 100 720 L 100 700 L 100 680 L 100 660 L 100 640 L 100 620 L 100 600 L 100 580 L 100 560 L 100 540 L 100 520 L 100 500 L 100 480 L 100 460 L 100 440 L 100 420 L 100 400 L 100 380 L 100 360 L 100 340 L 100 320 L 100 300 L 100 280 L 100 260 L 100 240 L 100 220 L 100 200 L 100 180 L 100 160 L 100 140 L 100 120 L 100 100 L 120 100 L 140 100 L 160 100 L 180 100 L 200 100 L 220 100 L 240 100 L 260 100 L 280 100 L 300 100 L 320 100 L 340 100 L 360 100 L 380 100 L 400 100 L 420 100 L 440 100 L 460 100 L 480 100 L 500 100 L 520 100 L 540 100 L 560 100 L 580 100 L 600 100 L 620 100 L 640 100 L 660 100 L 680 100 L 700 100 L 720 100 L 740 100 L 760 100 L 780 100 L 800 100 L 820 100 L 840 100 L 840 120 L 840 140 L 840 160 L 840 180 L 840 200 L 840 220 L 840 240 L 840 260 L 840 280 L 840 300 L 840 320 L 840 340 L 840 360 L 840 380 L 840 400 L 840 420 L 840 440 L 840 460 L 840 480 L 840 500 L 840 520 L 840 540 L 840 560 L 840 580 L 840 600 L 840 620 L 840 640 L 840 660 L 840 680 L 840 700 L 840 720 L 840 740 L 840 760 L 840 780 L 840 800 L 840 820 L 840 840 L 820 840 L 800 840 L 780 840 L 760 840 L 740 840 L 720 840 L 700 840 L 680 840 L 660 840 L 640 840 L 620 840 L 600 840 L 580 840 L 560 840 L 540 840 L 520 840 L 500 840 L 480 840 L 460 840 L 440 840 L 420 840 L 400 840 L 380 840 L 360 840 L 340 840 L 320 840 L 300 840 L 280 840 L 260 840 L 240 840 L 220 840 L 200 840 L 180 840 L 160 840 L 140 840 L 120 840 L 120 860 L 140 860 L 160 860 L 180 860 L 200 860 L 220 860 L 240 860 L 260 860 L 280 860 L 300 860 L 320 860 L 340 860 L 360 860 L 380 860 L 400 860 L 420 860 L 440 860 L 460 860 L 480 860 L 500 860 L 520 860 L 540 860 L 560 860 L 580 860 L 600 860 L 620 860 L 640 860 L 660 860 L 680 860 L 700 860 L 720 860 L 740 860 L 760 860 L 780 860 L 800 860 L 820 860 L 840 860 L 860 860 L 860 840 L 860 820 L 860 800 L 860 780 L 860 760 L 860 740 L 860 720 L 860 700 L 860 680 L 860 660 L 860 640 L 860 620 L 860 600 L 860 580 L 860 560 L 860 540 L 860 520 L 860 500 L 860 480 L 860 460 L 860 440 L 860 420 L 860 400 L 860 380 L 860 360 L 860 340 L 860 320 L 860 300 L 860 280 L 860 260 L 860 240 L 860 220 L 860 200 L 860 180 L 860 160 L 860 140 L 860 120 L 860 100 L 860 80 L 840 80 L 820 80 L 800 80 L 780 80 L 760 80 L 740 80 L 720 80 L 700 80 L 680 80 L 660 80 L 640 80 L 620 80 L 600 80 L 580 80 L 560 80 L 540 80 L 520 80 L 500 80 L 480 80 L 460 80 L 440 80 L 420 80 L 400 80 L 380 80 L 360 80 L 340 80 L 320 80 L 300 80 L 280 80 L 260 80 L 240 80 L 220 80 L 200 80 L 180 80 L 160 80 L 140 80 L 120 80 L 100 80 L 80 80 z "
     id="rect4412" />
  <path
     style="fill:#000000"
     d="M 0 0 L 0 20 L 0 40 L 0 60 L 0 80 L 0 100 L 0 120 L 0 140 L 0 160 L 0 180 L 0 200 L 0 220 L 0 240 L 0 260 L 0 280 L 0 300 L 0 320 L 0 340 L 0 360 L 0 380 L 0 400 L 0 420 L 0 440 L 0 460 L 0 480 L 0 500 L 0 520 L 0 540 L 0 560 L 0 580 L 0 600 L 0 620 L 0 640 L 0 660 L 0 680 L 0 700 L 0 720 L 0 740 L 0 760 L 0 780 L 0 800 L 0 820 L 0 840 L 0 860 L 0 880 L 0 900 L 0 920 L 0 940 L 20 940 L 20 960 L 40 960 L 60 960 L 80 960 L 100 960 L 120 960 L 140 960 L 160 960 L 180 960 L 200 960 L 220 960 L 240 960 L 260 960 L 280 960 L 300 960 L 320 960 L 340 960 L 360 960 L 380 960 L 400 960 L 420 960 L 440 960 L 460 960 L 480 960 L 500 960 L 520 960 L 540 960 L 560 960 L 580 960 L 600 960 L 620 960 L 640 960 L 660 960 L 680 960 L 700 960 L 720 960 L 740 960 L 760 960 L 780 960 L 800 960 L 820 960 L 840 960 L 860 960 L 880 960 L 900 960 L 920 960 L 940 960 L 960 960 L 960 940 L 960 920 L 960 900 L 960 880 L 960 860 L 960 840 L 960 820 L 960 800 L 960 780 L 960 760 L 960 740 L 960 720 L 960 700 L 960 680 L 960 660 L 960 640 L 960 620 L 960 600 L 960 580 L 960 560 L 960 540 L 960 520 L 960 500 L 960 480 L 960 460 L 960 440 L 960 420 L 960 400 L 960 380 L 960 360 L 960 340 L 960 320 L 960 300 L 960 280 L 960 260 L 960 240 L 960 220 L 960 200 L 960 180 L 960 160 L 960 140 L 960 120 L 960 100 L 960 80 L 960 60 L 960 40 L 960 20 L 940 20 L 940 0 L 920 0 L 900 0 L 880 0 L 860 0 L 840 0 L 820 0 L 800 0 L 780 0 L 760 0 L 740 0 L 720 0 L 700 0 L 680 0 L 660 0 L 640 0 L 620 0 L 600 0 L 580 0 L 560 0 L 540 0 L 520 0 L 500 0 L 480 0 L 460 0 L 440 0 L 420 0 L 400 0 L 380 0 L 360 0 L 340 0 L 320 0 L 300 0 L 280 0 L 260 0 L 240 0 L 220 0 L 200 0 L 180 0 L 160 0 L 140 0 L 120 0 L 100 0 L 80 0 L 60 0 L 40 0 L 20 0 L 0 0 z M 20 20 L 40 20 L 60 20 L 80 20 L 100 20 L 120 20 L 140 20 L 160 20 L 180 20 L 200 20 L 220 20 L 240 20 L 260 20 L 280 20 L 300 20 L 320 20 L 340 20 L 360 20 L 380 20 L 400 20 L 420 20 L 440 20 L 460 20 L 480 20 L 500 20 L 520 20 L 540 20 L 560 20 L 580 20 L 600 20 L 620 20 L 640 20 L 660 20 L 680 20 L 700 20 L 720 20 L 740 20 L 760 20 L 780 20 L 800 20 L 820 20 L 840 20 L 860 20 L 880 20 L 900 20 L 920 20 L 920 40 L 920 60 L 920 80 L 920 100 L 920 120 L 920 140 L 920 160 L 920 180 L 920 200 L 920 220 L 920 240 L 920 260 L 920 280 L 920 300 L 920 320 L 920 340 L 920 360 L 920 380 L 920 400 L 920 420 L 920 440 L 920 460 L 920 480 L 920 500 L 920 520 L 920 540 L 920 560 L 920 580 L 920 600 L 920 620 L 920 640 L 920 660 L 920 680 L 920 700 L 920 720 L 920 740 L 920 760 L 920 780 L 920 800 L 920 820 L 920 840 L 920 860 L 920 880 L 920 900 L 920 920 L 900 920 L 880 920 L 860 920 L 840 920 L 820 920 L 800 920 L 780 920 L 760 920 L 740 920 L 720 920 L 700 920 L 680 920 L 660 920 L 640 920 L 620 920 L 600 920 L 580 920 L 560 920 L 540 920 L 520 920 L 500 920 L 480 920 L 460 920 L 440 920 L 420 920 L 400 920 L 380 920 L 360 920 L 340 920 L 320 920 L 300 920 L 280 920 L 260 920 L 240 920 L 220 920 L 200 920 L 180 920 L 160 920 L 140 920 L 120 920 L 100 920 L 80 920 L 60 920 L 40 920 L 20 920 L 20 900 L 20 880 L 20 860 L 20 840 L 20 820 L 20 800 L 20 780 L 20 760 L 20 740 L 20 720 L 20 700 L 20 680 L 20 660 L 20 640 L 20 620 L 20 600 L 20 580 L 20 560 L 20 540 L 20 520 L 20 500 L 20 480 L 20 460 L 20 440 L 20 420 L 20 400 L 20 380 L 20 360 L 20 340 L 20 320 L 20 300 L 20 280 L 20 260 L 20 240 L 20 220 L 20 200 L 20 180 L 20 160 L 20 140 L 20 120 L 20 100 L 20 80 L 20 60 L 20 40 L 20 20 z M 100 100 L 100 120 L 100 140 L 100 160 L 100 180 L 100 200 L 100 220 L 100 240 L 100 260 L 100 280 L 100 300 L 100 320 L 100 340 L 100 360 L 100 380 L 100 400 L 100 420 L 100 440 L 100 460 L 100 480 L 100 500 L 100 520 L 100 540 L 100 560 L 100 580 L 100 600 L 100 620 L 100 640 L 100 660 L 100 680 L 100 700 L 100 720 L 100 740 L 100 760 L 100 780 L 100 800 L 100 820 L 100 840 L 100 860 L 120 860 L 120 840 L 120 820 L 120 800 L 120 780 L 120 760 L 120 740 L 120 720 L 120 700 L 120 680 L 120 660 L 120 640 L 120 620 L 120 600 L 120 580 L 120 560 L 120 540 L 120 520 L 120 500 L 120 480 L 120 460 L 120 440 L 120 420 L 120 400 L 120 380 L 120 360 L 120 340 L 120 320 L 120 300 L 120 280 L 120 260 L 120 240 L 120 220 L 120 200 L 120 180 L 120 160 L 120 140 L 120 120 L 140 120 L 160 120 L 180 120 L 200 120 L 220 120 L 240 120 L 260 120 L 280 120 L 300 120 L 320 120 L 340 120 L 360 120 L 380 120 L 400 120 L 420 120 L 440 120 L 460 120 L 480 120 L 500 120 L 520 120 L 540 120 L 560 120 L 580 120 L 600 120 L 620 120 L 640 120 L 660 120 L 680 120 L 700 120 L 720 120 L 740 120 L 760 120 L 780 120 L 800 120 L 820 120 L 840 120 L 840 100 L 820 100 L 800 100 L 780 100 L 760 100 L 740 100 L 720 100 L 700 100 L 680 100 L 660 100 L 640 100 L 620 100 L 600 100 L 580 100 L 560 100 L 540 100 L 520 100 L 500 100 L 480 100 L 460 100 L 440 100 L 420 100 L 400 100 L 380 100 L 360 100 L 340 100 L 320 100 L 300 100 L 280 100 L 260 100 L 240 100 L 220 100 L 200 100 L 180 100 L 160 100 L 140 100 L 120 100 L 100 100 z M 480 160 L 480 180 L 460 180 L 460 200 L 480 200 L 480 220 L 500 220 L 500 200 L 520 200 L 520 180 L 500 180 L 500 160 L 480 160 z M 320 180 L 320 200 L 300 200 L 300 220 L 320 220 L 320 240 L 340 240 L 340 220 L 360 220 L 360 200 L 340 200 L 340 180 L 320 180 z M 620 180 L 620 200 L 600 200 L 600 220 L 620 220 L 620 240 L 640 240 L 640 220 L 660 220 L 660 200 L 640 200 L 640 180 L 620 180 z M 480 260 L 480 280 L 480 300 L 480 320 L 480 340 L 480 360 L 480 380 L 480 400 L 480 420 L 480 440 L 480 460 L 480 480 L 460 480 L 440 480 L 420 480 L 420 500 L 440 500 L 460 500 L 460 520 L 480 520 L 480 540 L 480 560 L 480 580 L 480 600 L 500 600 L 500 580 L 500 560 L 500 540 L 500 520 L 500 500 L 520 500 L 540 500 L 560 500 L 580 500 L 600 500 L 620 500 L 640 500 L 660 500 L 680 500 L 680 480 L 660 480 L 640 480 L 620 480 L 600 480 L 580 480 L 560 480 L 540 480 L 520 480 L 520 460 L 500 460 L 500 440 L 500 420 L 500 400 L 500 380 L 500 360 L 500 340 L 500 320 L 500 300 L 500 280 L 500 260 L 480 260 z M 520 460 L 540 460 L 540 440 L 520 440 L 520 460 z M 540 440 L 560 440 L 560 420 L 540 420 L 540 440 z M 460 520 L 440 520 L 440 540 L 460 540 L 460 520 z M 440 540 L 420 540 L 420 560 L 440 560 L 440 540 z M 420 560 L 400 560 L 400 580 L 420 580 L 420 560 z M 400 580 L 380 580 L 380 600 L 400 600 L 400 580 z M 200 300 L 200 320 L 180 320 L 180 340 L 200 340 L 200 360 L 220 360 L 220 340 L 240 340 L 240 320 L 220 320 L 220 300 L 200 300 z M 740 300 L 740 320 L 720 320 L 720 340 L 740 340 L 740 360 L 760 360 L 760 340 L 780 340 L 780 320 L 760 320 L 760 300 L 740 300 z M 180 460 L 180 480 L 160 480 L 160 500 L 180 500 L 180 520 L 200 520 L 200 500 L 220 500 L 220 480 L 200 480 L 200 460 L 180 460 z M 760 460 L 760 480 L 740 480 L 740 500 L 760 500 L 760 520 L 780 520 L 780 500 L 800 500 L 800 480 L 780 480 L 780 460 L 760 460 z M 200 600 L 200 620 L 180 620 L 180 640 L 200 640 L 200 660 L 220 660 L 220 640 L 240 640 L 240 620 L 220 620 L 220 600 L 200 600 z M 740 600 L 740 620 L 720 620 L 720 640 L 740 640 L 740 660 L 760 660 L 760 640 L 780 640 L 780 620 L 760 620 L 760 600 L 740 600 z M 320 720 L 320 740 L 300 740 L 300 760 L 320 760 L 320 780 L 340 780 L 340 760 L 360 760 L 360 740 L 340 740 L 340 720 L 320 720 z M 620 720 L 620 740 L 600 740 L 600 760 L 620 760 L 620 780 L 640 780 L 640 760 L 660 760 L 660 740 L 640 740 L 640 720 L 620 720 z M 480 760 L 480 780 L 460 780 L 460 800 L 480 800 L 480 820 L 500 820 L 500 800 L 520 800 L 520 780 L 500 780 L 500 760 L 480 760 z "
     id="rect4606" />
</svg>
