<?xml version="1.0" encoding="UTF-8" standalone="no"?>
<svg
   xmlns:dc="http://purl.org/dc/elements/1.1/"
   xmlns:cc="http://creativecommons.org/ns#"
   xmlns:rdf="http://www.w3.org/1999/02/22-rdf-syntax-ns#"
   xmlns:svg="http://www.w3.org/2000/svg"
   xmlns="http://www.w3.org/2000/svg"
   id="svg2130"
   width="960px"
   version="1.1"
   height="960px">
  <metadata
     id="metadata2134">
    <rdf:RDF>
      <cc:Work
         rdf:about="">
        <dc:format>image/svg+xml</dc:format>
        <dc:type
           rdf:resource="http://purl.org/dc/dcmitype/StillImage" />
      </cc:Work>
    </rdf:RDF>
  </metadata>
  <defs
     id="defs2" />
  <path
     style="fill:#66ff00"
     d="M 180 220 L 180 240 L 160 240 L 160 260 L 140 260 L 140 280 L 120 280 L 120 300 L 100 300 L 100 320 L 80 320 L 80 340 L 60 340 L 60 360 L 40 360 L 40 380 L 40 400 L 40 420 L 40 440 L 40 460 L 40 480 L 40 500 L 60 500 L 60 480 L 80 480 L 80 460 L 100 460 L 100 440 L 120 440 L 120 420 L 140 420 L 140 400 L 160 400 L 160 380 L 180 380 L 180 360 L 200 360 L 200 340 L 200 320 L 200 300 L 200 280 L 200 260 L 200 240 L 200 220 L 180 220 z M 860 480 L 860 500 L 840 500 L 840 520 L 820 520 L 820 540 L 800 540 L 800 560 L 780 560 L 780 580 L 760 580 L 760 600 L 760 620 L 760 640 L 760 660 L 760 680 L 780 680 L 800 680 L 800 660 L 800 640 L 820 640 L 820 620 L 840 620 L 860 620 L 860 600 L 860 580 L 880 580 L 880 560 L 880 540 L 880 520 L 880 500 L 880 480 L 860 480 z "
     id="rect1852" />
  <path
     style="fill:#00ff00"
     d="M 880 460 L 880 480 L 880 500 L 880 520 L 880 540 L 880 560 L 880 580 L 860 580 L 860 600 L 860 620 L 880 620 L 880 600 L 900 600 L 900 580 L 900 560 L 900 540 L 900 520 L 900 500 L 900 480 L 900 460 L 880 460 z M 860 620 L 840 620 L 820 620 L 820 640 L 800 640 L 800 660 L 800 680 L 820 680 L 820 660 L 840 660 L 840 640 L 860 640 L 860 620 z M 800 680 L 780 680 L 760 680 L 760 700 L 760 720 L 780 720 L 780 700 L 800 700 L 800 680 z "
     id="rect1986" />
  <path
     style="fill:#3399ff"
     d="M 780 240 L 780 260 L 780 280 L 780 300 L 780 320 L 780 340 L 780 360 L 780 380 L 800 380 L 800 400 L 820 400 L 820 420 L 840 420 L 840 440 L 860 440 L 860 460 L 880 460 L 880 440 L 900 440 L 900 420 L 920 420 L 920 400 L 920 380 L 920 360 L 900 360 L 900 340 L 880 340 L 880 320 L 860 320 L 860 300 L 840 300 L 840 280 L 820 280 L 820 260 L 800 260 L 800 240 L 780 240 z M 80 500 L 80 520 L 60 520 L 60 540 L 40 540 L 40 560 L 40 580 L 40 600 L 40 620 L 60 620 L 60 640 L 80 640 L 80 660 L 100 660 L 100 680 L 120 680 L 120 700 L 140 700 L 140 720 L 160 720 L 160 740 L 180 740 L 180 720 L 180 700 L 180 680 L 180 660 L 180 640 L 180 620 L 180 600 L 180 580 L 160 580 L 160 560 L 140 560 L 140 540 L 120 540 L 120 520 L 100 520 L 100 500 L 80 500 z "
     id="rect1994" />
  <path
     style="fill:#ffffff"
     d="M 220 200 L 220 220 L 220 240 L 220 260 L 220 280 L 220 300 L 220 320 L 220 340 L 220 360 L 220 380 L 240 380 L 240 360 L 240 340 L 240 320 L 240 300 L 240 280 L 240 260 L 240 240 L 240 220 L 260 220 L 280 220 L 300 220 L 320 220 L 340 220 L 360 220 L 380 220 L 400 220 L 400 200 L 380 200 L 360 200 L 340 200 L 320 200 L 300 200 L 280 200 L 260 200 L 240 200 L 220 200 z M 240 380 L 240 400 L 260 400 L 260 380 L 240 380 z M 260 400 L 260 420 L 280 420 L 280 400 L 260 400 z M 280 420 L 280 440 L 300 440 L 300 420 L 280 420 z M 500 660 L 500 680 L 520 680 L 520 660 L 500 660 z M 520 680 L 520 700 L 540 700 L 540 680 L 520 680 z M 540 700 L 540 720 L 560 720 L 560 700 L 540 700 z M 560 720 L 560 740 L 580 740 L 580 720 L 560 720 z "
     id="rect2022" />
  <path
     style="fill:#ffcc00"
     d="M 240 220 L 240 240 L 240 260 L 240 280 L 240 300 L 240 320 L 240 340 L 240 360 L 240 380 L 260 380 L 260 400 L 280 400 L 280 420 L 300 420 L 300 440 L 320 440 L 320 420 L 340 420 L 340 400 L 360 400 L 360 380 L 380 380 L 380 360 L 400 360 L 400 340 L 420 340 L 420 320 L 440 320 L 440 300 L 460 300 L 460 280 L 440 280 L 440 260 L 420 260 L 420 240 L 400 240 L 400 220 L 380 220 L 360 220 L 340 220 L 320 220 L 300 220 L 280 220 L 260 220 L 240 220 z M 640 520 L 640 540 L 620 540 L 620 560 L 600 560 L 600 580 L 580 580 L 580 600 L 560 600 L 560 620 L 540 620 L 540 640 L 520 640 L 520 660 L 520 680 L 540 680 L 540 700 L 560 700 L 560 720 L 580 720 L 580 740 L 600 740 L 620 740 L 640 740 L 660 740 L 680 740 L 700 740 L 720 740 L 720 720 L 720 700 L 720 680 L 720 660 L 720 640 L 720 620 L 720 600 L 720 580 L 700 580 L 700 560 L 680 560 L 680 540 L 660 540 L 660 520 L 640 520 z "
     id="rect2036" />
  <path
     style="fill:#008000"
     d="M 180 200 L 180 220 L 200 220 L 200 200 L 180 200 z M 180 220 L 160 220 L 160 240 L 180 240 L 180 220 z M 160 240 L 140 240 L 140 260 L 160 260 L 160 240 z M 140 260 L 120 260 L 120 280 L 140 280 L 140 260 z M 120 280 L 100 280 L 100 300 L 120 300 L 120 280 z M 100 300 L 80 300 L 80 320 L 100 320 L 100 300 z M 80 320 L 60 320 L 60 340 L 80 340 L 80 320 z M 60 340 L 40 340 L 40 360 L 60 360 L 60 340 z M 40 360 L 20 360 L 20 380 L 20 400 L 20 420 L 20 440 L 20 460 L 20 480 L 20 500 L 20 520 L 20 540 L 40 540 L 40 520 L 60 520 L 60 500 L 40 500 L 40 480 L 40 460 L 40 440 L 40 420 L 40 400 L 40 380 L 40 360 z M 60 500 L 80 500 L 80 480 L 60 480 L 60 500 z M 80 480 L 100 480 L 100 460 L 80 460 L 80 480 z M 100 460 L 120 460 L 120 440 L 100 440 L 100 460 z M 120 440 L 140 440 L 140 420 L 120 420 L 120 440 z M 140 420 L 160 420 L 160 400 L 140 400 L 140 420 z M 160 400 L 180 400 L 180 380 L 160 380 L 160 400 z M 180 380 L 200 380 L 200 360 L 180 360 L 180 380 z M 900 420 L 900 440 L 880 440 L 880 460 L 900 460 L 900 480 L 900 500 L 900 520 L 900 540 L 900 560 L 900 580 L 900 600 L 920 600 L 920 580 L 920 560 L 920 540 L 920 520 L 920 500 L 920 480 L 920 460 L 920 440 L 920 420 L 900 420 z M 900 600 L 880 600 L 880 620 L 900 620 L 900 600 z M 880 620 L 860 620 L 860 640 L 880 640 L 880 620 z M 860 640 L 840 640 L 840 660 L 860 660 L 860 640 z M 840 660 L 820 660 L 820 680 L 840 680 L 840 660 z M 820 680 L 800 680 L 800 700 L 820 700 L 820 680 z M 800 700 L 780 700 L 780 720 L 800 720 L 800 700 z M 780 720 L 760 720 L 760 740 L 780 740 L 780 720 z M 880 460 L 860 460 L 860 480 L 880 480 L 880 460 z M 860 480 L 840 480 L 840 500 L 860 500 L 860 480 z M 840 500 L 820 500 L 820 520 L 840 520 L 840 500 z M 820 520 L 800 520 L 800 540 L 820 540 L 820 520 z M 800 540 L 780 540 L 780 560 L 800 560 L 800 540 z M 780 560 L 760 560 L 760 580 L 780 580 L 780 560 z "
     id="rect2042" />
  <path
     style="fill:#0066ff"
     d="M 780 220 L 780 240 L 800 240 L 800 220 L 780 220 z M 800 240 L 800 260 L 820 260 L 820 240 L 800 240 z M 820 260 L 820 280 L 840 280 L 840 260 L 820 260 z M 840 280 L 840 300 L 860 300 L 860 280 L 840 280 z M 860 300 L 860 320 L 880 320 L 880 300 L 860 300 z M 880 320 L 880 340 L 900 340 L 900 320 L 880 320 z M 900 340 L 900 360 L 920 360 L 920 340 L 900 340 z M 780 380 L 780 400 L 800 400 L 800 380 L 780 380 z M 800 400 L 800 420 L 820 420 L 820 400 L 800 400 z M 820 420 L 820 440 L 840 440 L 840 420 L 820 420 z M 840 440 L 840 460 L 860 460 L 860 440 L 840 440 z M 20 540 L 20 560 L 20 580 L 20 600 L 20 620 L 40 620 L 40 600 L 40 580 L 40 560 L 40 540 L 20 540 z M 40 620 L 40 640 L 60 640 L 60 620 L 40 620 z M 60 640 L 60 660 L 80 660 L 80 640 L 60 640 z M 80 660 L 80 680 L 100 680 L 100 660 L 80 660 z M 100 680 L 100 700 L 120 700 L 120 680 L 100 680 z M 120 700 L 120 720 L 140 720 L 140 700 L 120 700 z M 140 720 L 140 740 L 160 740 L 160 720 L 140 720 z M 160 740 L 160 760 L 180 760 L 180 740 L 160 740 z "
     id="rect2046" />
  <path
     style="fill:#ff3300"
     d="M 580 200 L 580 220 L 560 220 L 560 240 L 540 240 L 540 260 L 520 260 L 520 280 L 500 280 L 500 300 L 480 300 L 480 320 L 460 320 L 460 340 L 440 340 L 440 360 L 420 360 L 420 380 L 400 380 L 400 400 L 380 400 L 380 420 L 360 420 L 360 440 L 340 440 L 340 460 L 320 460 L 320 480 L 300 480 L 300 500 L 280 500 L 280 520 L 260 520 L 260 540 L 240 540 L 240 560 L 220 560 L 220 580 L 200 580 L 200 600 L 200 620 L 200 640 L 200 660 L 200 680 L 200 700 L 200 720 L 200 740 L 200 760 L 220 760 L 240 760 L 260 760 L 280 760 L 300 760 L 320 760 L 340 760 L 360 760 L 360 740 L 380 740 L 380 720 L 400 720 L 400 700 L 420 700 L 420 680 L 440 680 L 440 660 L 460 660 L 460 640 L 480 640 L 480 620 L 500 620 L 500 600 L 520 600 L 520 580 L 540 580 L 540 560 L 560 560 L 560 540 L 580 540 L 580 520 L 600 520 L 600 500 L 620 500 L 620 480 L 640 480 L 640 460 L 660 460 L 660 440 L 680 440 L 680 420 L 700 420 L 700 400 L 720 400 L 720 380 L 740 380 L 740 360 L 740 340 L 740 320 L 740 300 L 740 280 L 740 260 L 740 240 L 740 220 L 740 200 L 720 200 L 700 200 L 680 200 L 660 200 L 640 200 L 620 200 L 600 200 L 580 200 z "
     id="rect2064" />
  <path
     style="fill:#808000"
     d="M 200 180 L 200 200 L 220 200 L 240 200 L 260 200 L 280 200 L 300 200 L 320 200 L 340 200 L 360 200 L 380 200 L 400 200 L 400 180 L 380 180 L 360 180 L 340 180 L 320 180 L 300 180 L 280 180 L 260 180 L 240 180 L 220 180 L 200 180 z M 220 380 L 220 400 L 240 400 L 240 380 L 220 380 z M 240 400 L 240 420 L 260 420 L 260 400 L 240 400 z M 260 420 L 260 440 L 280 440 L 280 420 L 260 420 z M 280 440 L 280 460 L 300 460 L 300 440 L 280 440 z M 620 520 L 620 540 L 640 540 L 640 520 L 620 520 z M 620 540 L 600 540 L 600 560 L 620 560 L 620 540 z M 600 560 L 580 560 L 580 580 L 600 580 L 600 560 z M 580 580 L 560 580 L 560 600 L 580 600 L 580 580 z M 560 600 L 540 600 L 540 620 L 560 620 L 560 600 z M 540 620 L 520 620 L 520 640 L 540 640 L 540 620 z M 520 640 L 500 640 L 500 660 L 520 660 L 520 640 z M 500 660 L 480 660 L 480 680 L 500 680 L 500 660 z M 500 680 L 500 700 L 520 700 L 520 680 L 500 680 z M 520 700 L 520 720 L 540 720 L 540 700 L 520 700 z M 540 720 L 540 740 L 560 740 L 560 720 L 540 720 z M 560 740 L 560 760 L 580 760 L 580 740 L 560 740 z "
     id="rect2070" />
  <path
     style="fill:#c0c0c0"
     d="M 400 220 L 400 240 L 420 240 L 420 220 L 400 220 z M 420 240 L 420 260 L 440 260 L 440 240 L 420 240 z M 440 260 L 440 280 L 460 280 L 460 260 L 440 260 z M 460 280 L 460 300 L 480 300 L 480 280 L 460 280 z M 460 300 L 440 300 L 440 320 L 460 320 L 460 300 z M 440 320 L 420 320 L 420 340 L 440 340 L 440 320 z M 420 340 L 400 340 L 400 360 L 420 360 L 420 340 z M 400 360 L 380 360 L 380 380 L 400 380 L 400 360 z M 380 380 L 360 380 L 360 400 L 380 400 L 380 380 z M 360 400 L 340 400 L 340 420 L 360 420 L 360 400 z M 340 420 L 320 420 L 320 440 L 340 440 L 340 420 z M 320 440 L 300 440 L 300 460 L 320 460 L 320 440 z M 640 500 L 640 520 L 660 520 L 660 500 L 640 500 z M 660 520 L 660 540 L 680 540 L 680 520 L 660 520 z M 680 540 L 680 560 L 700 560 L 700 540 L 680 540 z M 700 560 L 700 580 L 720 580 L 720 560 L 700 560 z M 720 580 L 720 600 L 720 620 L 720 640 L 720 660 L 720 680 L 720 700 L 720 720 L 720 740 L 700 740 L 680 740 L 660 740 L 640 740 L 620 740 L 600 740 L 580 740 L 580 760 L 600 760 L 620 760 L 640 760 L 660 760 L 680 760 L 700 760 L 720 760 L 740 760 L 740 740 L 740 720 L 740 700 L 740 680 L 740 660 L 740 640 L 740 620 L 740 600 L 740 580 L 720 580 z "
     id="rect2086" />
  <path
     style="fill:#660000"
     d="M 580 180 L 580 200 L 600 200 L 620 200 L 640 200 L 660 200 L 680 200 L 700 200 L 720 200 L 740 200 L 740 220 L 740 240 L 740 260 L 740 280 L 740 300 L 740 320 L 740 340 L 740 360 L 740 380 L 760 380 L 760 360 L 760 340 L 760 320 L 760 300 L 760 280 L 760 260 L 760 240 L 760 220 L 760 200 L 760 180 L 740 180 L 720 180 L 700 180 L 680 180 L 660 180 L 640 180 L 620 180 L 600 180 L 580 180 z M 740 380 L 720 380 L 720 400 L 740 400 L 740 380 z M 720 400 L 700 400 L 700 420 L 720 420 L 720 400 z M 700 420 L 680 420 L 680 440 L 700 440 L 700 420 z M 680 440 L 660 440 L 660 460 L 680 460 L 680 440 z M 660 460 L 640 460 L 640 480 L 660 480 L 660 460 z M 640 480 L 620 480 L 620 500 L 640 500 L 640 480 z M 620 500 L 600 500 L 600 520 L 620 520 L 620 500 z M 600 520 L 580 520 L 580 540 L 600 540 L 600 520 z M 580 540 L 560 540 L 560 560 L 580 560 L 580 540 z M 560 560 L 540 560 L 540 580 L 560 580 L 560 560 z M 540 580 L 520 580 L 520 600 L 540 600 L 540 580 z M 520 600 L 500 600 L 500 620 L 520 620 L 520 600 z M 500 620 L 480 620 L 480 640 L 500 640 L 500 620 z M 480 640 L 460 640 L 460 660 L 480 660 L 480 640 z M 460 660 L 440 660 L 440 680 L 460 680 L 460 660 z M 440 680 L 420 680 L 420 700 L 440 700 L 440 680 z M 420 700 L 400 700 L 400 720 L 420 720 L 420 700 z M 400 720 L 380 720 L 380 740 L 400 740 L 400 720 z M 380 740 L 360 740 L 360 760 L 380 760 L 380 740 z M 580 200 L 560 200 L 560 220 L 580 220 L 580 200 z M 560 220 L 540 220 L 540 240 L 560 240 L 560 220 z M 540 240 L 520 240 L 520 260 L 540 260 L 540 240 z M 520 260 L 500 260 L 500 280 L 520 280 L 520 260 z M 500 280 L 480 280 L 480 300 L 500 300 L 500 280 z M 480 300 L 460 300 L 460 320 L 480 320 L 480 300 z M 460 320 L 440 320 L 440 340 L 460 340 L 460 320 z M 440 340 L 420 340 L 420 360 L 440 360 L 440 340 z M 420 360 L 400 360 L 400 380 L 420 380 L 420 360 z M 400 380 L 380 380 L 380 400 L 400 400 L 400 380 z M 380 400 L 360 400 L 360 420 L 380 420 L 380 400 z M 360 420 L 340 420 L 340 440 L 360 440 L 360 420 z M 340 440 L 320 440 L 320 460 L 340 460 L 340 440 z M 320 460 L 300 460 L 300 480 L 320 480 L 320 460 z M 300 480 L 280 480 L 280 500 L 300 500 L 300 480 z M 280 500 L 260 500 L 260 520 L 280 520 L 280 500 z M 260 520 L 240 520 L 240 540 L 260 540 L 260 520 z M 240 540 L 220 540 L 220 560 L 240 560 L 240 540 z M 220 560 L 200 560 L 200 580 L 220 580 L 220 560 z M 200 580 L 180 580 L 180 600 L 180 620 L 180 640 L 180 660 L 180 680 L 180 700 L 180 720 L 180 740 L 180 760 L 180 780 L 200 780 L 200 760 L 200 740 L 200 720 L 200 700 L 200 680 L 200 660 L 200 640 L 200 620 L 200 600 L 200 580 z "
     id="rect2092" />
  <path
     style="fill:#000000"
     d="M 760 180 L 760 200 L 760 220 L 760 240 L 760 260 L 760 280 L 760 300 L 760 320 L 760 340 L 760 360 L 760 380 L 780 380 L 780 360 L 780 340 L 780 320 L 780 300 L 780 280 L 780 260 L 780 240 L 780 220 L 800 220 L 800 200 L 780 200 L 780 180 L 760 180 z M 800 220 L 800 240 L 820 240 L 820 220 L 800 220 z M 820 240 L 820 260 L 840 260 L 840 240 L 820 240 z M 840 260 L 840 280 L 860 280 L 860 260 L 840 260 z M 860 280 L 860 300 L 880 300 L 880 280 L 860 280 z M 880 300 L 880 320 L 900 320 L 900 300 L 880 300 z M 900 320 L 900 340 L 920 340 L 920 320 L 900 320 z M 920 340 L 920 360 L 920 380 L 920 400 L 920 420 L 920 440 L 920 460 L 920 480 L 920 500 L 920 520 L 920 540 L 920 560 L 920 580 L 920 600 L 940 600 L 940 580 L 940 560 L 940 540 L 940 520 L 940 500 L 940 480 L 940 460 L 940 440 L 940 420 L 940 400 L 940 380 L 940 360 L 940 340 L 920 340 z M 920 600 L 900 600 L 900 620 L 920 620 L 920 600 z M 900 620 L 880 620 L 880 640 L 900 640 L 900 620 z M 880 640 L 860 640 L 860 660 L 880 660 L 880 640 z M 860 660 L 840 660 L 840 680 L 860 680 L 860 660 z M 840 680 L 820 680 L 820 700 L 840 700 L 840 680 z M 820 700 L 800 700 L 800 720 L 820 720 L 820 700 z M 800 720 L 780 720 L 780 740 L 800 740 L 800 720 z M 780 740 L 760 740 L 760 720 L 760 700 L 760 680 L 760 660 L 760 640 L 760 620 L 760 600 L 760 580 L 740 580 L 740 600 L 740 620 L 740 640 L 740 660 L 740 680 L 740 700 L 740 720 L 740 740 L 740 760 L 720 760 L 700 760 L 680 760 L 660 760 L 640 760 L 620 760 L 600 760 L 580 760 L 580 780 L 600 780 L 620 780 L 640 780 L 660 780 L 680 780 L 700 780 L 720 780 L 740 780 L 760 780 L 760 760 L 780 760 L 780 740 z M 740 580 L 740 560 L 720 560 L 720 580 L 740 580 z M 720 560 L 720 540 L 700 540 L 700 560 L 720 560 z M 700 540 L 700 520 L 680 520 L 680 540 L 700 540 z M 680 520 L 680 500 L 660 500 L 660 520 L 680 520 z M 660 500 L 660 480 L 640 480 L 640 500 L 660 500 z M 640 500 L 620 500 L 620 520 L 640 520 L 640 500 z M 620 520 L 600 520 L 600 540 L 620 540 L 620 520 z M 600 540 L 580 540 L 580 560 L 600 560 L 600 540 z M 580 560 L 560 560 L 560 580 L 580 580 L 580 560 z M 560 580 L 540 580 L 540 600 L 560 600 L 560 580 z M 540 600 L 520 600 L 520 620 L 540 620 L 540 600 z M 520 620 L 500 620 L 500 640 L 520 640 L 520 620 z M 500 640 L 480 640 L 480 660 L 500 660 L 500 640 z M 480 660 L 460 660 L 460 680 L 480 680 L 480 660 z M 460 680 L 440 680 L 440 700 L 460 700 L 460 680 z M 440 700 L 420 700 L 420 720 L 440 720 L 440 700 z M 420 720 L 400 720 L 400 740 L 420 740 L 420 720 z M 400 740 L 380 740 L 380 760 L 400 760 L 400 740 z M 380 760 L 360 760 L 340 760 L 320 760 L 300 760 L 280 760 L 260 760 L 240 760 L 220 760 L 200 760 L 200 780 L 220 780 L 240 780 L 260 780 L 280 780 L 300 780 L 320 780 L 340 780 L 360 780 L 380 780 L 380 760 z M 660 480 L 680 480 L 680 460 L 660 460 L 660 480 z M 680 460 L 700 460 L 700 440 L 680 440 L 680 460 z M 700 440 L 720 440 L 720 420 L 700 420 L 700 440 z M 720 420 L 740 420 L 740 400 L 720 400 L 720 420 z M 740 400 L 760 400 L 760 380 L 740 380 L 740 400 z M 200 200 L 200 220 L 200 240 L 200 260 L 200 280 L 200 300 L 200 320 L 200 340 L 200 360 L 200 380 L 220 380 L 220 360 L 220 340 L 220 320 L 220 300 L 220 280 L 220 260 L 220 240 L 220 220 L 220 200 L 200 200 z M 200 380 L 180 380 L 180 400 L 200 400 L 200 380 z M 180 400 L 160 400 L 160 420 L 180 420 L 180 400 z M 160 420 L 140 420 L 140 440 L 160 440 L 160 420 z M 140 440 L 120 440 L 120 460 L 140 460 L 140 440 z M 120 460 L 100 460 L 100 480 L 120 480 L 120 460 z M 100 480 L 80 480 L 80 500 L 100 500 L 100 480 z M 100 500 L 100 520 L 120 520 L 120 500 L 100 500 z M 120 520 L 120 540 L 140 540 L 140 520 L 120 520 z M 140 540 L 140 560 L 160 560 L 160 540 L 140 540 z M 160 560 L 160 580 L 180 580 L 180 560 L 160 560 z M 80 500 L 60 500 L 60 520 L 80 520 L 80 500 z M 60 520 L 40 520 L 40 540 L 60 540 L 60 520 z M 400 200 L 400 220 L 420 220 L 420 200 L 400 200 z M 420 220 L 420 240 L 440 240 L 440 220 L 420 220 z M 440 240 L 440 260 L 460 260 L 460 240 L 440 240 z M 460 260 L 460 280 L 480 280 L 480 260 L 460 260 z "
     id="rect2128" />
</svg>
