<?xml version="1.0" encoding="UTF-8" standalone="no"?>
<svg
   xmlns:dc="http://purl.org/dc/elements/1.1/"
   xmlns:cc="http://creativecommons.org/ns#"
   xmlns:rdf="http://www.w3.org/1999/02/22-rdf-syntax-ns#"
   xmlns:svg="http://www.w3.org/2000/svg"
   xmlns="http://www.w3.org/2000/svg"
   id="svg2374"
   width="960px"
   version="1.1"
   height="960px">
  <metadata
     id="metadata2378">
    <rdf:RDF>
      <cc:Work
         rdf:about="">
        <dc:format>image/svg+xml</dc:format>
        <dc:type
           rdf:resource="http://purl.org/dc/dcmitype/StillImage" />
      </cc:Work>
    </rdf:RDF>
  </metadata>
  <defs
     id="defs2" />
  <path
     style="fill:#06ffff"
     d="M 540 40 L 540 60 L 560 60 L 560 40 L 540 40 z M 560 60 L 560 80 L 580 80 L 580 60 L 560 60 z M 580 80 L 580 100 L 600 100 L 600 80 L 580 80 z M 600 100 L 600 120 L 620 120 L 620 100 L 600 100 z M 600 120 L 580 120 L 580 140 L 600 140 L 600 120 z M 580 140 L 560 140 L 560 160 L 580 160 L 580 140 z M 560 140 L 560 120 L 540 120 L 540 140 L 560 140 z M 540 120 L 540 100 L 520 100 L 520 120 L 540 120 z M 520 100 L 520 80 L 500 80 L 500 100 L 520 100 z M 520 80 L 540 80 L 540 60 L 520 60 L 520 80 z M 540 80 L 540 100 L 560 100 L 560 80 L 540 80 z M 560 100 L 560 120 L 580 120 L 580 100 L 560 100 z M 780 120 L 780 140 L 800 140 L 800 120 L 780 120 z M 800 140 L 800 160 L 820 160 L 820 140 L 800 140 z M 820 160 L 820 180 L 840 180 L 840 160 L 820 160 z M 840 180 L 840 200 L 860 200 L 860 180 L 840 180 z M 840 200 L 820 200 L 820 220 L 840 220 L 840 200 z M 820 220 L 800 220 L 800 240 L 820 240 L 820 220 z M 800 240 L 780 240 L 780 260 L 800 260 L 800 240 z M 780 240 L 780 220 L 760 220 L 760 240 L 780 240 z M 760 220 L 760 200 L 740 200 L 740 220 L 760 220 z M 740 200 L 740 180 L 720 180 L 720 200 L 740 200 z M 740 180 L 760 180 L 760 160 L 740 160 L 740 180 z M 760 160 L 780 160 L 780 140 L 760 140 L 760 160 z M 780 160 L 780 180 L 800 180 L 800 160 L 780 160 z M 800 180 L 800 200 L 820 200 L 820 180 L 800 180 z M 800 200 L 780 200 L 780 220 L 800 220 L 800 200 z M 780 200 L 780 180 L 760 180 L 760 200 L 780 200 z M 180 320 L 180 340 L 200 340 L 200 320 L 180 320 z M 200 340 L 200 360 L 220 360 L 220 340 L 200 340 z M 220 340 L 240 340 L 240 320 L 220 320 L 220 340 z M 240 340 L 240 360 L 260 360 L 260 340 L 240 340 z M 260 340 L 280 340 L 280 320 L 260 320 L 260 340 z M 180 340 L 160 340 L 160 360 L 180 360 L 180 340 z M 320 320 L 320 340 L 340 340 L 340 320 L 320 320 z M 340 340 L 340 360 L 360 360 L 360 340 L 340 340 z M 360 340 L 380 340 L 380 320 L 360 320 L 360 340 z M 380 340 L 380 360 L 400 360 L 400 340 L 380 340 z M 400 340 L 420 340 L 420 320 L 400 320 L 400 340 z M 420 340 L 420 360 L 440 360 L 440 340 L 420 340 z M 440 340 L 460 340 L 460 320 L 440 320 L 440 340 z M 460 340 L 460 360 L 480 360 L 480 340 L 460 340 z M 480 340 L 500 340 L 500 320 L 480 320 L 480 340 z M 500 340 L 500 360 L 520 360 L 520 340 L 500 340 z M 520 340 L 540 340 L 540 320 L 520 320 L 520 340 z M 540 340 L 540 360 L 560 360 L 560 340 L 540 340 z M 560 340 L 580 340 L 580 320 L 560 320 L 560 340 z M 580 340 L 580 360 L 600 360 L 600 340 L 580 340 z M 600 340 L 620 340 L 620 320 L 600 320 L 600 340 z M 320 340 L 300 340 L 300 360 L 320 360 L 320 340 z M 120 380 L 120 400 L 140 400 L 140 380 L 120 380 z M 140 400 L 140 420 L 160 420 L 160 400 L 140 400 z M 160 400 L 180 400 L 180 380 L 160 380 L 160 400 z M 180 400 L 180 420 L 200 420 L 200 400 L 180 400 z M 200 400 L 220 400 L 220 380 L 200 380 L 200 400 z M 120 400 L 100 400 L 100 420 L 120 420 L 120 400 z M 260 380 L 260 400 L 280 400 L 280 380 L 260 380 z M 280 400 L 280 420 L 300 420 L 300 400 L 280 400 z M 300 400 L 320 400 L 320 380 L 300 380 L 300 400 z M 320 400 L 320 420 L 340 420 L 340 400 L 320 400 z M 340 400 L 360 400 L 360 380 L 340 380 L 340 400 z M 360 400 L 360 420 L 380 420 L 380 400 L 360 400 z M 380 400 L 400 400 L 400 380 L 380 380 L 380 400 z M 260 400 L 240 400 L 240 420 L 260 420 L 260 400 z M 460 380 L 460 400 L 480 400 L 480 380 L 460 380 z M 480 400 L 480 420 L 500 420 L 500 400 L 480 400 z M 500 400 L 520 400 L 520 380 L 500 380 L 500 400 z M 520 400 L 520 420 L 540 420 L 540 400 L 520 400 z M 540 400 L 560 400 L 560 380 L 540 380 L 540 400 z M 560 400 L 560 420 L 580 420 L 580 400 L 560 400 z M 560 420 L 540 420 L 540 440 L 560 440 L 560 420 z M 560 440 L 560 460 L 580 460 L 580 440 L 560 440 z M 560 460 L 540 460 L 540 480 L 560 480 L 560 460 z M 560 480 L 560 500 L 580 500 L 580 480 L 560 480 z M 560 500 L 540 500 L 540 520 L 560 520 L 560 500 z M 540 500 L 540 480 L 520 480 L 520 500 L 540 500 z M 520 480 L 520 460 L 500 460 L 500 480 L 520 480 z M 500 460 L 500 440 L 480 440 L 480 460 L 500 460 z M 480 440 L 480 420 L 460 420 L 460 440 L 480 440 z M 460 420 L 460 400 L 440 400 L 440 420 L 460 420 z M 500 440 L 520 440 L 520 420 L 500 420 L 500 440 z M 520 440 L 520 460 L 540 460 L 540 440 L 520 440 z M 60 440 L 60 460 L 80 460 L 80 440 L 60 440 z M 80 460 L 80 480 L 100 480 L 100 460 L 80 460 z M 100 460 L 120 460 L 120 440 L 100 440 L 100 460 z M 120 460 L 120 480 L 140 480 L 140 460 L 120 460 z M 140 460 L 160 460 L 160 440 L 140 440 L 140 460 z M 60 460 L 40 460 L 40 480 L 60 480 L 60 460 z M 240 440 L 240 460 L 260 460 L 260 440 L 240 440 z M 260 460 L 260 480 L 280 480 L 280 460 L 260 460 z M 280 460 L 300 460 L 300 440 L 280 440 L 280 460 z M 300 460 L 300 480 L 320 480 L 320 460 L 300 460 z M 320 460 L 340 460 L 340 440 L 320 440 L 320 460 z M 340 460 L 340 480 L 360 480 L 360 460 L 340 460 z M 340 480 L 320 480 L 320 500 L 340 500 L 340 480 z M 340 500 L 340 520 L 360 520 L 360 500 L 340 500 z M 340 520 L 320 520 L 320 540 L 340 540 L 340 520 z M 340 540 L 340 560 L 360 560 L 360 540 L 340 540 z M 320 520 L 320 500 L 300 500 L 300 520 L 320 520 z M 300 500 L 300 480 L 280 480 L 280 500 L 300 500 z M 660 440 L 660 460 L 680 460 L 680 440 L 660 440 z M 680 460 L 680 480 L 700 480 L 700 460 L 680 460 z M 680 480 L 660 480 L 660 500 L 680 500 L 680 480 z M 660 480 L 660 460 L 640 460 L 640 480 L 660 480 z M 20 500 L 20 520 L 40 520 L 40 500 L 20 500 z M 40 520 L 40 540 L 60 540 L 60 520 L 40 520 z M 60 520 L 80 520 L 80 500 L 60 500 L 60 520 z M 80 520 L 80 540 L 100 540 L 100 520 L 80 520 z M 100 520 L 120 520 L 120 500 L 100 500 L 100 520 z M 120 520 L 120 540 L 140 540 L 140 520 L 120 520 z M 120 540 L 100 540 L 100 560 L 120 560 L 120 540 z M 120 560 L 120 580 L 140 580 L 140 560 L 120 560 z M 120 580 L 100 580 L 100 600 L 120 600 L 120 580 z M 120 600 L 120 620 L 140 620 L 140 600 L 120 600 z M 120 620 L 100 620 L 100 640 L 120 640 L 120 620 z M 100 620 L 100 600 L 80 600 L 80 620 L 100 620 z M 80 620 L 60 620 L 60 640 L 80 640 L 80 620 z M 60 620 L 60 600 L 40 600 L 40 620 L 60 620 z M 40 620 L 20 620 L 20 640 L 40 640 L 40 620 z M 40 600 L 40 580 L 20 580 L 20 600 L 40 600 z M 40 580 L 60 580 L 60 560 L 40 560 L 40 580 z M 40 560 L 40 540 L 20 540 L 20 560 L 40 560 z M 60 560 L 80 560 L 80 540 L 60 540 L 60 560 z M 80 560 L 80 580 L 100 580 L 100 560 L 80 560 z M 80 580 L 60 580 L 60 600 L 80 600 L 80 580 z M 400 540 L 400 560 L 420 560 L 420 540 L 400 540 z M 440 540 L 440 560 L 460 560 L 460 540 L 440 540 z M 480 540 L 480 560 L 500 560 L 500 540 L 480 540 z M 520 540 L 520 560 L 540 560 L 540 540 L 520 540 z M 260 580 L 260 600 L 280 600 L 280 580 L 260 580 z M 300 580 L 300 600 L 320 600 L 320 580 L 300 580 z M 400 580 L 400 600 L 420 600 L 420 580 L 400 580 z M 420 600 L 420 620 L 440 620 L 440 600 L 420 600 z M 440 600 L 460 600 L 460 580 L 440 580 L 440 600 z M 460 600 L 460 620 L 480 620 L 480 600 L 460 600 z M 480 600 L 500 600 L 500 580 L 480 580 L 480 600 z M 500 600 L 500 620 L 520 620 L 520 600 L 500 600 z M 500 620 L 480 620 L 480 640 L 500 640 L 500 620 z M 500 640 L 500 660 L 520 660 L 520 640 L 500 640 z M 500 660 L 480 660 L 480 680 L 500 680 L 500 660 z M 500 680 L 500 700 L 520 700 L 520 680 L 500 680 z M 500 700 L 480 700 L 480 720 L 500 720 L 500 700 z M 480 700 L 480 680 L 460 680 L 460 700 L 480 700 z M 460 680 L 460 660 L 440 660 L 440 680 L 460 680 z M 440 660 L 440 640 L 420 640 L 420 660 L 440 660 z M 420 640 L 420 620 L 400 620 L 400 640 L 420 640 z M 400 620 L 400 600 L 380 600 L 380 620 L 400 620 z M 440 640 L 460 640 L 460 620 L 440 620 L 440 640 z M 460 640 L 460 660 L 480 660 L 480 640 L 460 640 z M 200 620 L 200 640 L 220 640 L 220 620 L 200 620 z M 240 620 L 240 640 L 260 640 L 260 620 L 240 620 z M 280 620 L 280 640 L 300 640 L 300 620 L 280 620 z M 40 660 L 40 680 L 60 680 L 60 660 L 40 660 z M 60 680 L 60 700 L 80 700 L 80 680 L 60 680 z M 80 680 L 100 680 L 100 660 L 80 660 L 80 680 z M 100 680 L 100 700 L 120 700 L 120 680 L 100 680 z M 120 680 L 140 680 L 140 660 L 120 660 L 120 680 z M 120 700 L 120 720 L 140 720 L 140 700 L 120 700 z M 120 720 L 100 720 L 100 740 L 120 740 L 120 720 z M 120 740 L 120 760 L 140 760 L 140 740 L 120 740 z M 120 760 L 100 760 L 100 780 L 120 780 L 120 760 z M 100 760 L 100 740 L 80 740 L 80 760 L 100 760 z M 80 760 L 60 760 L 60 780 L 80 780 L 80 760 z M 60 760 L 60 740 L 40 740 L 40 760 L 60 760 z M 40 760 L 20 760 L 20 780 L 40 780 L 40 760 z M 40 740 L 40 720 L 20 720 L 20 740 L 40 740 z M 40 720 L 60 720 L 60 700 L 40 700 L 40 720 z M 40 700 L 40 680 L 20 680 L 20 700 L 40 700 z M 60 720 L 60 740 L 80 740 L 80 720 L 60 720 z M 80 720 L 100 720 L 100 700 L 80 700 L 80 720 z M 180 660 L 180 680 L 200 680 L 200 660 L 180 660 z M 200 680 L 200 700 L 220 700 L 220 680 L 200 680 z M 220 680 L 240 680 L 240 660 L 220 660 L 220 680 z M 240 680 L 240 700 L 260 700 L 260 680 L 240 680 z M 260 680 L 280 680 L 280 660 L 260 660 L 260 680 z M 280 680 L 280 700 L 300 700 L 300 680 L 280 680 z M 280 700 L 260 700 L 260 720 L 280 720 L 280 700 z M 280 720 L 280 740 L 300 740 L 300 720 L 280 720 z M 280 740 L 260 740 L 260 760 L 280 760 L 280 740 z M 280 760 L 280 780 L 300 780 L 300 760 L 280 760 z M 260 760 L 240 760 L 240 780 L 260 780 L 260 760 z M 240 760 L 240 740 L 220 740 L 220 760 L 240 760 z M 220 760 L 200 760 L 200 780 L 220 780 L 220 760 z M 200 760 L 200 740 L 180 740 L 180 760 L 200 760 z M 180 760 L 160 760 L 160 780 L 180 780 L 180 760 z M 180 740 L 180 720 L 160 720 L 160 740 L 180 740 z M 180 720 L 200 720 L 200 700 L 180 700 L 180 720 z M 180 700 L 180 680 L 160 680 L 160 700 L 180 700 z M 200 720 L 200 740 L 220 740 L 220 720 L 200 720 z M 220 720 L 240 720 L 240 700 L 220 700 L 220 720 z M 240 720 L 240 740 L 260 740 L 260 720 L 240 720 z M 380 740 L 380 760 L 400 760 L 400 740 L 380 740 z M 400 760 L 400 780 L 420 780 L 420 760 L 400 760 z M 420 760 L 440 760 L 440 740 L 420 740 L 420 760 z M 440 760 L 440 780 L 460 780 L 460 760 L 440 760 z M 460 760 L 480 760 L 480 740 L 460 740 L 460 760 z M 380 760 L 360 760 L 360 780 L 380 780 L 380 760 z M 40 800 L 40 820 L 60 820 L 60 800 L 40 800 z M 60 820 L 60 840 L 80 840 L 80 820 L 60 820 z M 80 820 L 100 820 L 100 800 L 80 800 L 80 820 z M 100 820 L 100 840 L 120 840 L 120 820 L 100 820 z M 120 820 L 140 820 L 140 800 L 120 800 L 120 820 z M 120 840 L 120 860 L 140 860 L 140 840 L 120 840 z M 120 860 L 100 860 L 100 880 L 120 880 L 120 860 z M 120 880 L 120 900 L 140 900 L 140 880 L 120 880 z M 120 900 L 100 900 L 100 920 L 120 920 L 120 900 z M 100 900 L 100 880 L 80 880 L 80 900 L 100 900 z M 80 900 L 60 900 L 60 920 L 80 920 L 80 900 z M 60 900 L 60 880 L 40 880 L 40 900 L 60 900 z M 40 900 L 20 900 L 20 920 L 40 920 L 40 900 z M 40 880 L 40 860 L 20 860 L 20 880 L 40 880 z M 40 860 L 60 860 L 60 840 L 40 840 L 40 860 z M 40 840 L 40 820 L 20 820 L 20 840 L 40 840 z M 60 860 L 60 880 L 80 880 L 80 860 L 60 860 z M 80 860 L 100 860 L 100 840 L 80 840 L 80 860 z M 180 800 L 180 820 L 200 820 L 200 800 L 180 800 z M 200 820 L 200 840 L 220 840 L 220 820 L 200 820 z M 220 820 L 240 820 L 240 800 L 220 800 L 220 820 z M 240 820 L 240 840 L 260 840 L 260 820 L 240 820 z M 260 820 L 280 820 L 280 800 L 260 800 L 260 820 z M 260 840 L 260 860 L 280 860 L 300 860 L 300 840 L 280 840 L 260 840 z M 260 860 L 240 860 L 240 880 L 260 880 L 260 860 z M 260 880 L 260 900 L 280 900 L 300 900 L 300 880 L 280 880 L 260 880 z M 260 900 L 240 900 L 240 920 L 260 920 L 260 900 z M 240 900 L 240 880 L 220 880 L 220 900 L 240 900 z M 220 900 L 200 900 L 200 920 L 220 920 L 220 900 z M 200 900 L 200 880 L 180 880 L 180 900 L 200 900 z M 180 900 L 160 900 L 160 920 L 180 920 L 180 900 z M 180 880 L 180 860 L 160 860 L 160 880 L 180 880 z M 180 860 L 200 860 L 200 840 L 180 840 L 180 860 z M 180 840 L 180 820 L 160 820 L 160 840 L 180 840 z M 200 860 L 200 880 L 220 880 L 220 860 L 200 860 z M 220 860 L 240 860 L 240 840 L 220 840 L 220 860 z M 340 800 L 340 820 L 360 820 L 360 800 L 340 800 z M 360 820 L 360 840 L 380 840 L 380 820 L 360 820 z M 380 820 L 400 820 L 400 800 L 380 800 L 380 820 z M 400 820 L 400 840 L 420 840 L 420 820 L 400 820 z M 420 820 L 440 820 L 440 800 L 420 800 L 420 820 z M 420 840 L 420 860 L 440 860 L 440 840 L 420 840 z M 420 860 L 400 860 L 400 880 L 420 880 L 420 860 z M 420 880 L 420 900 L 440 900 L 440 880 L 420 880 z M 420 900 L 400 900 L 400 920 L 420 920 L 420 900 z M 400 900 L 400 880 L 380 880 L 380 900 L 400 900 z M 380 900 L 360 900 L 360 920 L 380 920 L 380 900 z M 360 900 L 360 880 L 340 880 L 340 900 L 360 900 z M 340 900 L 320 900 L 320 920 L 340 920 L 340 900 z M 340 880 L 340 860 L 320 860 L 320 880 L 340 880 z M 340 860 L 360 860 L 360 840 L 340 840 L 340 860 z M 340 840 L 340 820 L 320 820 L 320 840 L 340 840 z M 360 860 L 360 880 L 380 880 L 380 860 L 360 860 z M 380 860 L 400 860 L 400 840 L 380 840 L 380 860 z "
     id="rect2316" />
  <path
     style="fill:#fefffc"
     d="M 540 20 L 540 40 L 560 40 L 560 20 L 540 20 z M 560 40 L 560 60 L 580 60 L 580 40 L 560 40 z M 580 60 L 580 80 L 600 80 L 600 60 L 580 60 z M 600 80 L 600 100 L 620 100 L 620 80 L 600 80 z M 600 100 L 580 100 L 580 120 L 600 120 L 600 100 z M 580 120 L 560 120 L 560 140 L 580 140 L 580 120 z M 560 140 L 540 140 L 540 160 L 560 160 L 560 140 z M 540 140 L 540 120 L 520 120 L 520 140 L 540 140 z M 520 120 L 520 100 L 500 100 L 500 120 L 520 120 z M 500 100 L 500 80 L 480 80 L 480 100 L 500 100 z M 500 80 L 520 80 L 520 60 L 500 60 L 500 80 z M 520 60 L 540 60 L 540 40 L 520 40 L 520 60 z M 540 60 L 540 80 L 560 80 L 560 60 L 540 60 z M 560 80 L 560 100 L 580 100 L 580 80 L 560 80 z M 560 100 L 540 100 L 540 120 L 560 120 L 560 100 z M 540 100 L 540 80 L 520 80 L 520 100 L 540 100 z M 760 120 L 760 140 L 780 140 L 780 120 L 760 120 z M 780 140 L 780 160 L 800 160 L 800 140 L 780 140 z M 800 160 L 800 180 L 820 180 L 820 160 L 800 160 z M 820 180 L 820 200 L 840 200 L 840 180 L 820 180 z M 820 200 L 800 200 L 800 220 L 820 220 L 820 200 z M 800 220 L 780 220 L 780 240 L 800 240 L 800 220 z M 780 240 L 760 240 L 760 260 L 780 260 L 780 240 z M 760 240 L 760 220 L 740 220 L 740 240 L 760 240 z M 740 220 L 740 200 L 720 200 L 720 220 L 740 220 z M 720 200 L 720 180 L 700 180 L 700 200 L 720 200 z M 720 180 L 740 180 L 740 160 L 720 160 L 720 180 z M 740 160 L 760 160 L 760 140 L 740 140 L 740 160 z M 760 160 L 760 180 L 780 180 L 780 160 L 760 160 z M 780 180 L 780 200 L 800 200 L 800 180 L 780 180 z M 780 200 L 760 200 L 760 220 L 780 220 L 780 200 z M 760 200 L 760 180 L 740 180 L 740 200 L 760 200 z M 200 320 L 200 340 L 220 340 L 220 320 L 200 320 z M 220 340 L 220 360 L 240 360 L 240 340 L 220 340 z M 240 340 L 260 340 L 260 320 L 240 320 L 240 340 z M 260 340 L 260 360 L 280 360 L 280 340 L 260 340 z M 280 340 L 300 340 L 300 320 L 280 320 L 280 340 z M 200 340 L 180 340 L 180 360 L 200 360 L 200 340 z M 340 320 L 340 340 L 360 340 L 360 320 L 340 320 z M 360 340 L 360 360 L 380 360 L 380 340 L 360 340 z M 380 340 L 400 340 L 400 320 L 380 320 L 380 340 z M 400 340 L 400 360 L 420 360 L 420 340 L 400 340 z M 420 340 L 440 340 L 440 320 L 420 320 L 420 340 z M 340 340 L 320 340 L 320 360 L 340 360 L 340 340 z M 500 320 L 500 340 L 520 340 L 520 320 L 500 320 z M 520 340 L 520 360 L 500 360 L 500 340 L 480 340 L 480 360 L 460 360 L 440 360 L 440 380 L 440 400 L 460 400 L 460 380 L 480 380 L 480 400 L 500 400 L 500 380 L 520 380 L 520 400 L 540 400 L 540 380 L 560 380 L 560 400 L 580 400 L 580 380 L 580 360 L 580 340 L 560 340 L 560 360 L 540 360 L 540 340 L 520 340 z M 540 340 L 560 340 L 560 320 L 540 320 L 540 340 z M 580 340 L 600 340 L 600 320 L 580 320 L 580 340 z M 560 400 L 540 400 L 540 420 L 560 420 L 560 400 z M 560 420 L 560 440 L 580 440 L 580 420 L 560 420 z M 560 440 L 540 440 L 540 460 L 560 460 L 560 440 z M 560 460 L 560 480 L 580 480 L 580 460 L 560 460 z M 560 480 L 540 480 L 540 500 L 560 500 L 560 480 z M 560 500 L 560 520 L 580 520 L 580 500 L 560 500 z M 540 480 L 540 460 L 520 460 L 520 480 L 540 480 z M 520 460 L 520 440 L 500 440 L 500 460 L 520 460 z M 500 440 L 500 420 L 480 420 L 480 440 L 500 440 z M 480 420 L 480 400 L 460 400 L 460 420 L 480 420 z M 500 420 L 520 420 L 520 400 L 500 400 L 500 420 z M 520 420 L 520 440 L 540 440 L 540 420 L 520 420 z M 140 380 L 140 400 L 160 400 L 160 380 L 140 380 z M 160 400 L 160 420 L 180 420 L 180 400 L 160 400 z M 180 400 L 200 400 L 200 380 L 180 380 L 180 400 z M 200 400 L 200 420 L 220 420 L 220 400 L 200 400 z M 220 400 L 240 400 L 240 380 L 220 380 L 220 400 z M 140 400 L 120 400 L 120 420 L 140 420 L 140 400 z M 280 380 L 280 400 L 300 400 L 300 380 L 280 380 z M 300 400 L 300 420 L 320 420 L 320 400 L 300 400 z M 320 400 L 340 400 L 340 380 L 320 380 L 320 400 z M 340 400 L 340 420 L 360 420 L 360 400 L 340 400 z M 360 400 L 380 400 L 380 380 L 360 380 L 360 400 z M 280 400 L 260 400 L 260 420 L 280 420 L 280 400 z M 660 420 L 660 440 L 680 440 L 680 420 L 660 420 z M 680 440 L 680 460 L 700 460 L 700 440 L 680 440 z M 700 460 L 700 480 L 720 480 L 720 460 L 700 460 z M 700 480 L 680 480 L 680 500 L 700 500 L 700 480 z M 680 500 L 660 500 L 660 520 L 680 520 L 680 500 z M 660 500 L 660 480 L 640 480 L 640 500 L 660 500 z M 640 480 L 640 460 L 620 460 L 620 480 L 640 480 z M 640 460 L 660 460 L 660 440 L 640 440 L 640 460 z M 660 460 L 660 480 L 680 480 L 680 460 L 660 460 z M 80 440 L 80 460 L 100 460 L 100 440 L 80 440 z M 100 460 L 100 480 L 120 480 L 120 460 L 100 460 z M 120 460 L 140 460 L 140 440 L 120 440 L 120 460 z M 140 460 L 140 480 L 160 480 L 160 460 L 140 460 z M 160 460 L 180 460 L 180 440 L 160 440 L 160 460 z M 80 460 L 60 460 L 60 480 L 80 480 L 80 460 z M 260 440 L 260 460 L 280 460 L 280 440 L 260 440 z M 280 460 L 280 480 L 300 480 L 300 460 L 280 460 z M 300 460 L 320 460 L 320 440 L 300 440 L 300 460 z M 320 460 L 320 480 L 340 480 L 340 460 L 320 460 z M 340 460 L 360 460 L 360 440 L 340 440 L 340 460 z M 340 480 L 340 500 L 360 500 L 360 480 L 340 480 z M 340 500 L 320 500 L 320 520 L 340 520 L 340 500 z M 340 520 L 340 540 L 360 540 L 360 520 L 340 520 z M 320 500 L 320 480 L 300 480 L 300 500 L 320 500 z M 40 500 L 40 520 L 60 520 L 60 500 L 40 500 z M 60 520 L 60 540 L 80 540 L 80 520 L 60 520 z M 80 520 L 100 520 L 100 500 L 80 500 L 80 520 z M 100 520 L 100 540 L 120 540 L 120 520 L 100 520 z M 120 520 L 140 520 L 140 500 L 120 500 L 120 520 z M 120 540 L 120 560 L 140 560 L 140 540 L 120 540 z M 120 560 L 100 560 L 100 580 L 120 580 L 120 560 z M 120 580 L 120 600 L 140 600 L 140 580 L 120 580 z M 120 600 L 100 600 L 100 620 L 120 620 L 120 600 z M 120 620 L 120 640 L 140 640 L 140 620 L 120 620 z M 100 620 L 80 620 L 80 640 L 100 640 L 100 620 z M 80 620 L 80 600 L 60 600 L 60 620 L 80 620 z M 60 620 L 40 620 L 40 640 L 60 640 L 60 620 z M 40 620 L 40 600 L 20 600 L 20 620 L 40 620 z M 40 600 L 60 600 L 60 580 L 40 580 L 40 600 z M 40 580 L 40 560 L 20 560 L 20 580 L 40 580 z M 40 560 L 60 560 L 60 540 L 40 540 L 40 560 z M 40 540 L 40 520 L 20 520 L 20 540 L 40 540 z M 60 560 L 60 580 L 80 580 L 80 560 L 60 560 z M 80 560 L 100 560 L 100 540 L 80 540 L 80 560 z M 80 580 L 80 600 L 100 600 L 100 580 L 80 580 z M 420 540 L 420 560 L 400 560 L 380 560 L 380 580 L 380 600 L 400 600 L 400 580 L 420 580 L 420 600 L 440 600 L 440 580 L 460 580 L 460 600 L 480 600 L 480 580 L 500 580 L 500 600 L 520 600 L 520 580 L 520 560 L 520 540 L 500 540 L 500 560 L 480 560 L 480 540 L 460 540 L 460 560 L 440 560 L 440 540 L 420 540 z M 500 600 L 480 600 L 480 620 L 500 620 L 500 600 z M 500 620 L 500 640 L 520 640 L 520 620 L 500 620 z M 500 640 L 480 640 L 480 660 L 500 660 L 500 640 z M 500 660 L 500 680 L 520 680 L 520 660 L 500 660 z M 500 680 L 480 680 L 480 700 L 500 700 L 500 680 z M 500 700 L 500 720 L 520 720 L 520 700 L 500 700 z M 480 680 L 480 660 L 460 660 L 460 680 L 480 680 z M 460 660 L 460 640 L 440 640 L 440 660 L 460 660 z M 440 640 L 440 620 L 420 620 L 420 640 L 440 640 z M 420 620 L 420 600 L 400 600 L 400 620 L 420 620 z M 440 620 L 460 620 L 460 600 L 440 600 L 440 620 z M 460 620 L 460 640 L 480 640 L 480 620 L 460 620 z M 220 580 L 220 600 L 240 600 L 240 580 L 220 580 z M 240 600 L 240 620 L 260 620 L 260 600 L 240 600 z M 260 620 L 260 640 L 280 640 L 280 620 L 260 620 z M 280 620 L 300 620 L 300 600 L 280 600 L 280 620 z M 240 620 L 220 620 L 220 640 L 240 640 L 240 620 z M 220 620 L 220 600 L 200 600 L 200 620 L 220 620 z M 200 620 L 180 620 L 180 640 L 200 640 L 200 620 z M 20 660 L 20 680 L 40 680 L 40 660 L 20 660 z M 40 680 L 40 700 L 60 700 L 60 680 L 40 680 z M 60 680 L 80 680 L 80 660 L 60 660 L 60 680 z M 80 680 L 80 700 L 100 700 L 100 680 L 80 680 z M 100 680 L 120 680 L 120 660 L 100 660 L 100 680 z M 120 680 L 120 700 L 140 700 L 140 680 L 120 680 z M 120 700 L 100 700 L 100 720 L 120 720 L 120 700 z M 120 720 L 120 740 L 140 740 L 140 720 L 120 720 z M 120 740 L 100 740 L 100 760 L 120 760 L 120 740 z M 120 760 L 120 780 L 140 780 L 140 760 L 120 760 z M 100 760 L 80 760 L 80 780 L 100 780 L 100 760 z M 80 760 L 80 740 L 60 740 L 60 760 L 80 760 z M 60 760 L 40 760 L 40 780 L 60 780 L 60 760 z M 40 760 L 40 740 L 20 740 L 20 760 L 40 760 z M 40 740 L 60 740 L 60 720 L 40 720 L 40 740 z M 40 720 L 40 700 L 20 700 L 20 720 L 40 720 z M 60 720 L 80 720 L 80 700 L 60 700 L 60 720 z M 80 720 L 80 740 L 100 740 L 100 720 L 80 720 z M 160 660 L 160 680 L 180 680 L 180 660 L 160 660 z M 180 680 L 180 700 L 200 700 L 200 680 L 180 680 z M 200 680 L 220 680 L 220 660 L 200 660 L 200 680 z M 220 680 L 220 700 L 240 700 L 240 680 L 220 680 z M 240 680 L 260 680 L 260 660 L 240 660 L 240 680 z M 260 680 L 260 700 L 280 700 L 280 680 L 260 680 z M 280 680 L 300 680 L 300 660 L 280 660 L 280 680 z M 280 700 L 280 720 L 300 720 L 300 700 L 280 700 z M 280 720 L 260 720 L 260 740 L 280 740 L 280 720 z M 280 740 L 280 760 L 300 760 L 300 740 L 280 740 z M 280 760 L 260 760 L 260 780 L 280 780 L 280 760 z M 260 760 L 260 740 L 240 740 L 240 760 L 260 760 z M 240 760 L 220 760 L 220 780 L 240 780 L 240 760 z M 220 760 L 220 740 L 200 740 L 200 760 L 220 760 z M 200 760 L 180 760 L 180 780 L 200 780 L 200 760 z M 180 760 L 180 740 L 160 740 L 160 760 L 180 760 z M 180 740 L 200 740 L 200 720 L 180 720 L 180 740 z M 180 720 L 180 700 L 160 700 L 160 720 L 180 720 z M 200 720 L 220 720 L 220 700 L 200 700 L 200 720 z M 220 720 L 220 740 L 240 740 L 240 720 L 220 720 z M 240 720 L 260 720 L 260 700 L 240 700 L 240 720 z M 360 740 L 360 760 L 380 760 L 380 740 L 360 740 z M 380 760 L 380 780 L 360 780 L 360 760 L 340 760 L 340 780 L 320 780 L 320 800 L 320 820 L 340 820 L 340 800 L 360 800 L 360 820 L 380 820 L 380 800 L 400 800 L 400 820 L 420 820 L 420 800 L 440 800 L 440 780 L 440 760 L 420 760 L 420 780 L 400 780 L 400 760 L 380 760 z M 400 760 L 420 760 L 420 740 L 400 740 L 400 760 z M 440 760 L 460 760 L 460 740 L 440 740 L 440 760 z M 460 760 L 460 780 L 480 780 L 480 760 L 460 760 z M 480 760 L 500 760 L 500 740 L 480 740 L 480 760 z M 420 820 L 420 840 L 440 840 L 440 820 L 420 820 z M 420 840 L 400 840 L 400 860 L 420 860 L 420 840 z M 420 860 L 420 880 L 440 880 L 440 860 L 420 860 z M 420 880 L 400 880 L 400 900 L 420 900 L 420 880 z M 420 900 L 420 920 L 440 920 L 440 900 L 420 900 z M 400 900 L 380 900 L 380 920 L 400 920 L 400 900 z M 380 900 L 380 880 L 360 880 L 360 900 L 380 900 z M 360 900 L 340 900 L 340 920 L 360 920 L 360 900 z M 340 900 L 340 880 L 320 880 L 320 900 L 340 900 z M 340 880 L 360 880 L 360 860 L 340 860 L 340 880 z M 340 860 L 340 840 L 320 840 L 320 860 L 340 860 z M 340 840 L 360 840 L 360 820 L 340 820 L 340 840 z M 360 840 L 360 860 L 380 860 L 380 840 L 360 840 z M 380 840 L 400 840 L 400 820 L 380 820 L 380 840 z M 380 860 L 380 880 L 400 880 L 400 860 L 380 860 z M 20 800 L 20 820 L 40 820 L 40 800 L 20 800 z M 40 820 L 40 840 L 60 840 L 60 820 L 40 820 z M 60 820 L 80 820 L 80 800 L 60 800 L 60 820 z M 80 820 L 80 840 L 100 840 L 100 820 L 80 820 z M 100 820 L 120 820 L 120 800 L 100 800 L 100 820 z M 120 820 L 120 840 L 140 840 L 140 820 L 120 820 z M 120 840 L 100 840 L 100 860 L 120 860 L 120 840 z M 120 860 L 120 880 L 140 880 L 140 860 L 120 860 z M 120 880 L 100 880 L 100 900 L 120 900 L 120 880 z M 120 900 L 120 920 L 140 920 L 140 900 L 120 900 z M 100 900 L 80 900 L 80 920 L 100 920 L 100 900 z M 80 900 L 80 880 L 60 880 L 60 900 L 80 900 z M 60 900 L 40 900 L 40 920 L 60 920 L 60 900 z M 40 900 L 40 880 L 20 880 L 20 900 L 40 900 z M 40 880 L 60 880 L 60 860 L 40 860 L 40 880 z M 40 860 L 40 840 L 20 840 L 20 860 L 40 860 z M 60 860 L 80 860 L 80 840 L 60 840 L 60 860 z M 80 860 L 80 880 L 100 880 L 100 860 L 80 860 z M 160 800 L 160 820 L 180 820 L 180 800 L 160 800 z M 180 820 L 180 840 L 200 840 L 200 820 L 180 820 z M 200 820 L 220 820 L 220 800 L 200 800 L 200 820 z M 220 820 L 220 840 L 240 840 L 240 820 L 220 820 z M 240 820 L 260 820 L 260 800 L 240 800 L 240 820 z M 260 820 L 260 840 L 280 840 L 300 840 L 300 820 L 280 820 L 260 820 z M 260 840 L 240 840 L 240 860 L 260 860 L 260 840 z M 260 860 L 260 880 L 280 880 L 300 880 L 300 860 L 280 860 L 260 860 z M 260 880 L 240 880 L 240 900 L 260 900 L 260 880 z M 260 900 L 260 920 L 280 920 L 300 920 L 300 900 L 280 900 L 260 900 z M 240 900 L 220 900 L 220 920 L 240 920 L 240 900 z M 220 900 L 220 880 L 200 880 L 200 900 L 220 900 z M 200 900 L 180 900 L 180 920 L 200 920 L 200 900 z M 180 900 L 180 880 L 160 880 L 160 900 L 180 900 z M 180 880 L 200 880 L 200 860 L 180 860 L 180 880 z M 180 860 L 180 840 L 160 840 L 160 860 L 180 860 z M 200 860 L 220 860 L 220 840 L 200 840 L 200 860 z M 220 860 L 220 880 L 240 880 L 240 860 L 220 860 z "
     id="rect2318" />
  <path
     style="fill:#80817f"
     d="M 460 80 L 460 100 L 460 120 L 460 140 L 460 160 L 460 180 L 480 180 L 480 200 L 500 200 L 500 180 L 500 160 L 480 160 L 480 140 L 480 120 L 480 100 L 480 80 L 460 80 z M 500 200 L 500 220 L 520 220 L 520 240 L 540 240 L 560 240 L 560 220 L 540 220 L 540 200 L 520 200 L 500 200 z M 760 100 L 760 120 L 780 120 L 800 120 L 820 120 L 840 120 L 860 120 L 860 100 L 840 100 L 820 100 L 800 100 L 780 100 L 760 100 z M 760 120 L 740 120 L 740 140 L 760 140 L 760 120 z M 740 140 L 720 140 L 720 160 L 740 160 L 740 140 z M 720 160 L 700 160 L 700 180 L 720 180 L 720 160 z M 700 180 L 680 180 L 680 200 L 700 200 L 700 180 z M 700 200 L 700 220 L 720 220 L 720 200 L 700 200 z M 720 220 L 720 240 L 740 240 L 740 220 L 720 220 z M 740 240 L 740 260 L 760 260 L 760 240 L 740 240 z M 760 260 L 760 280 L 780 280 L 780 260 L 760 260 z M 940 180 L 940 200 L 960 200 L 960 180 L 940 180 z M 180 300 L 180 320 L 200 320 L 220 320 L 240 320 L 260 320 L 280 320 L 300 320 L 320 320 L 340 320 L 360 320 L 380 320 L 400 320 L 420 320 L 440 320 L 460 320 L 480 320 L 500 320 L 520 320 L 540 320 L 560 320 L 580 320 L 600 320 L 620 320 L 640 320 L 660 320 L 660 300 L 640 300 L 620 300 L 600 300 L 580 300 L 560 300 L 540 300 L 520 300 L 500 300 L 480 300 L 460 300 L 440 300 L 420 300 L 400 300 L 380 300 L 360 300 L 340 300 L 320 300 L 300 300 L 280 300 L 260 300 L 240 300 L 220 300 L 200 300 L 180 300 z M 180 320 L 160 320 L 160 340 L 180 340 L 180 320 z M 160 340 L 140 340 L 140 360 L 160 360 L 160 340 z M 140 360 L 120 360 L 120 380 L 140 380 L 140 360 z M 120 380 L 100 380 L 100 400 L 120 400 L 120 380 z M 100 400 L 80 400 L 80 420 L 100 420 L 100 400 z M 80 420 L 60 420 L 60 440 L 80 440 L 80 420 z M 60 440 L 40 440 L 40 460 L 60 460 L 60 440 z M 40 460 L 20 460 L 20 480 L 40 480 L 40 460 z M 20 480 L 0 480 L 0 500 L 0 520 L 0 540 L 0 560 L 0 580 L 0 600 L 0 620 L 0 640 L 0 660 L 0 680 L 0 700 L 0 720 L 0 740 L 0 760 L 0 780 L 0 800 L 0 820 L 0 840 L 0 860 L 0 880 L 0 900 L 0 920 L 0 940 L 20 940 L 20 920 L 20 900 L 20 880 L 20 860 L 20 840 L 20 820 L 20 800 L 20 780 L 20 760 L 20 740 L 20 720 L 20 700 L 20 680 L 20 660 L 20 640 L 20 620 L 20 600 L 20 580 L 20 560 L 20 540 L 20 520 L 20 500 L 20 480 z M 660 400 L 660 420 L 680 420 L 700 420 L 720 420 L 740 420 L 760 420 L 780 420 L 780 400 L 760 400 L 740 400 L 720 400 L 700 400 L 680 400 L 660 400 z M 660 420 L 640 420 L 640 440 L 660 440 L 660 420 z M 640 440 L 620 440 L 620 460 L 640 460 L 640 440 z M 620 460 L 600 460 L 600 480 L 620 480 L 620 460 z M 420 480 L 420 500 L 440 500 L 440 480 L 420 480 z M 280 800 L 280 820 L 300 820 L 300 800 L 280 800 z "
     id="rect2326" />
  <path
     style="fill:#00807f"
     d="M 480 100 L 480 120 L 480 140 L 480 160 L 500 160 L 500 180 L 500 200 L 520 200 L 540 200 L 540 220 L 560 220 L 580 220 L 580 200 L 600 200 L 600 180 L 620 180 L 620 160 L 620 140 L 620 120 L 600 120 L 600 140 L 580 140 L 580 160 L 560 160 L 540 160 L 540 140 L 520 140 L 520 120 L 500 120 L 500 100 L 480 100 z M 800 120 L 800 140 L 820 140 L 820 160 L 840 160 L 840 180 L 860 180 L 880 180 L 900 180 L 920 180 L 920 160 L 900 160 L 900 140 L 880 140 L 880 120 L 860 120 L 840 120 L 820 120 L 800 120 z M 840 200 L 840 220 L 820 220 L 820 240 L 800 240 L 800 260 L 780 260 L 780 280 L 800 280 L 820 280 L 840 280 L 860 280 L 860 260 L 880 260 L 880 240 L 900 240 L 900 220 L 920 220 L 920 200 L 900 200 L 880 200 L 860 200 L 840 200 z M 300 320 L 300 340 L 320 340 L 320 320 L 300 320 z M 300 340 L 280 340 L 280 360 L 260 360 L 240 360 L 220 360 L 200 360 L 180 360 L 160 360 L 140 360 L 140 380 L 160 380 L 180 380 L 200 380 L 220 380 L 240 380 L 240 400 L 260 400 L 260 380 L 280 380 L 300 380 L 320 380 L 340 380 L 360 380 L 380 380 L 400 380 L 400 400 L 380 400 L 380 420 L 360 420 L 340 420 L 320 420 L 300 420 L 280 420 L 260 420 L 240 420 L 240 440 L 260 440 L 280 440 L 300 440 L 320 440 L 340 440 L 360 440 L 360 460 L 360 480 L 360 500 L 360 520 L 360 540 L 360 560 L 380 560 L 380 540 L 400 540 L 400 520 L 420 520 L 420 500 L 420 480 L 420 460 L 420 440 L 420 420 L 420 400 L 420 380 L 440 380 L 440 360 L 420 360 L 400 360 L 380 360 L 360 360 L 340 360 L 320 360 L 300 360 L 300 340 z M 240 420 L 240 400 L 220 400 L 220 420 L 240 420 z M 220 420 L 200 420 L 180 420 L 160 420 L 140 420 L 120 420 L 100 420 L 80 420 L 80 440 L 100 440 L 120 440 L 140 440 L 160 440 L 180 440 L 180 460 L 160 460 L 160 480 L 140 480 L 120 480 L 100 480 L 80 480 L 60 480 L 40 480 L 20 480 L 20 500 L 40 500 L 60 500 L 80 500 L 100 500 L 120 500 L 140 500 L 140 520 L 140 540 L 140 560 L 140 580 L 140 600 L 140 620 L 140 640 L 120 640 L 100 640 L 80 640 L 60 640 L 40 640 L 20 640 L 20 660 L 40 660 L 60 660 L 80 660 L 100 660 L 120 660 L 140 660 L 140 680 L 140 700 L 140 720 L 140 740 L 140 760 L 140 780 L 120 780 L 100 780 L 80 780 L 60 780 L 40 780 L 20 780 L 20 800 L 40 800 L 60 800 L 80 800 L 100 800 L 120 800 L 140 800 L 140 820 L 140 840 L 140 860 L 140 880 L 140 900 L 140 920 L 120 920 L 100 920 L 80 920 L 60 920 L 40 920 L 20 920 L 20 940 L 40 940 L 60 940 L 80 940 L 100 940 L 120 940 L 140 940 L 160 940 L 180 940 L 200 940 L 220 940 L 240 940 L 260 940 L 280 940 L 300 940 L 320 940 L 340 940 L 360 940 L 380 940 L 400 940 L 420 940 L 440 940 L 460 940 L 460 920 L 480 920 L 480 900 L 500 900 L 500 880 L 520 880 L 520 860 L 520 840 L 520 820 L 520 800 L 520 780 L 520 760 L 520 740 L 500 740 L 500 760 L 480 760 L 480 780 L 460 780 L 440 780 L 440 800 L 440 820 L 440 840 L 440 860 L 440 880 L 440 900 L 440 920 L 420 920 L 400 920 L 380 920 L 360 920 L 340 920 L 320 920 L 320 900 L 320 880 L 320 860 L 320 840 L 320 820 L 320 800 L 320 780 L 320 760 L 340 760 L 340 740 L 360 740 L 360 720 L 360 700 L 360 680 L 360 660 L 360 640 L 360 620 L 360 600 L 340 600 L 340 620 L 320 620 L 320 640 L 300 640 L 280 640 L 260 640 L 240 640 L 220 640 L 200 640 L 180 640 L 160 640 L 160 620 L 180 620 L 180 600 L 200 600 L 200 580 L 220 580 L 220 560 L 220 540 L 220 520 L 220 500 L 220 480 L 220 460 L 220 440 L 220 420 z M 320 620 L 320 600 L 300 600 L 300 620 L 320 620 z M 300 600 L 300 580 L 280 580 L 280 600 L 300 600 z M 280 600 L 260 600 L 260 620 L 280 620 L 280 600 z M 260 600 L 260 580 L 240 580 L 240 600 L 260 600 z M 240 600 L 220 600 L 220 620 L 240 620 L 240 600 z M 320 600 L 340 600 L 340 580 L 320 580 L 320 600 z M 620 340 L 620 360 L 600 360 L 600 380 L 600 400 L 600 420 L 600 440 L 600 460 L 620 460 L 620 440 L 640 440 L 640 420 L 640 400 L 640 380 L 640 360 L 640 340 L 620 340 z M 440 420 L 440 440 L 440 460 L 440 480 L 440 500 L 440 520 L 460 520 L 480 520 L 500 520 L 520 520 L 540 520 L 540 500 L 520 500 L 520 480 L 500 480 L 500 460 L 480 460 L 480 440 L 460 440 L 460 420 L 440 420 z M 700 420 L 700 440 L 720 440 L 720 460 L 740 460 L 760 460 L 780 460 L 780 440 L 760 440 L 760 420 L 740 420 L 720 420 L 700 420 z M 240 460 L 240 480 L 240 500 L 240 520 L 240 540 L 240 560 L 260 560 L 280 560 L 300 560 L 320 560 L 340 560 L 340 540 L 320 540 L 320 520 L 300 520 L 300 500 L 280 500 L 280 480 L 260 480 L 260 460 L 240 460 z M 600 480 L 600 500 L 620 500 L 620 480 L 600 480 z M 620 500 L 620 520 L 600 520 L 600 540 L 600 560 L 600 580 L 600 600 L 600 620 L 600 640 L 620 640 L 620 620 L 640 620 L 640 600 L 640 580 L 640 560 L 640 540 L 640 520 L 640 500 L 620 500 z M 620 640 L 620 660 L 600 660 L 600 680 L 600 700 L 600 720 L 600 740 L 600 760 L 600 780 L 620 780 L 620 760 L 640 760 L 640 740 L 640 720 L 640 700 L 640 680 L 640 660 L 640 640 L 620 640 z M 720 480 L 720 500 L 700 500 L 700 520 L 700 540 L 720 540 L 740 540 L 740 520 L 760 520 L 760 500 L 780 500 L 780 480 L 760 480 L 740 480 L 720 480 z M 540 540 L 540 560 L 520 560 L 520 580 L 520 600 L 520 620 L 520 640 L 520 660 L 520 680 L 520 700 L 520 720 L 540 720 L 540 700 L 560 700 L 560 680 L 580 680 L 580 660 L 580 640 L 580 620 L 580 600 L 580 580 L 580 560 L 580 540 L 560 540 L 540 540 z M 560 700 L 560 720 L 540 720 L 540 740 L 540 760 L 540 780 L 540 800 L 540 820 L 540 840 L 560 840 L 560 820 L 580 820 L 580 800 L 580 780 L 580 760 L 580 740 L 580 720 L 580 700 L 560 700 z M 380 620 L 380 640 L 380 660 L 380 680 L 380 700 L 380 720 L 400 720 L 420 720 L 440 720 L 460 720 L 480 720 L 480 700 L 460 700 L 460 680 L 440 680 L 440 660 L 420 660 L 420 640 L 400 640 L 400 620 L 380 620 z M 160 660 L 180 660 L 200 660 L 220 660 L 240 660 L 260 660 L 280 660 L 300 660 L 300 680 L 300 700 L 300 720 L 300 740 L 300 760 L 300 780 L 280 780 L 260 780 L 240 780 L 220 780 L 200 780 L 180 780 L 160 780 L 160 760 L 160 740 L 160 720 L 160 700 L 160 680 L 160 660 z M 160 800 L 180 800 L 200 800 L 220 800 L 240 800 L 260 800 L 280 800 L 300 800 L 300 820 L 300 840 L 300 860 L 300 880 L 300 900 L 300 920 L 280 920 L 260 920 L 240 920 L 220 920 L 200 920 L 180 920 L 160 920 L 160 900 L 160 880 L 160 860 L 160 840 L 160 820 L 160 800 z "
     id="rect2370" />
  <path
     style="fill:#0e0905"
     d="M 540 0 L 540 20 L 560 20 L 560 40 L 580 40 L 580 60 L 600 60 L 600 80 L 620 80 L 620 100 L 620 120 L 620 140 L 620 160 L 620 180 L 600 180 L 600 200 L 580 200 L 580 220 L 560 220 L 560 240 L 540 240 L 540 260 L 560 260 L 580 260 L 580 240 L 600 240 L 600 220 L 620 220 L 620 200 L 640 200 L 640 180 L 640 160 L 640 140 L 640 120 L 640 100 L 640 80 L 640 60 L 620 60 L 620 40 L 600 40 L 600 20 L 580 20 L 580 0 L 560 0 L 540 0 z M 540 20 L 520 20 L 520 40 L 540 40 L 540 20 z M 520 40 L 500 40 L 500 60 L 520 60 L 520 40 z M 500 60 L 480 60 L 480 80 L 500 80 L 500 60 z M 860 100 L 860 120 L 880 120 L 880 100 L 860 100 z M 880 120 L 880 140 L 900 140 L 900 120 L 880 120 z M 900 140 L 900 160 L 920 160 L 920 140 L 900 140 z M 920 160 L 920 180 L 900 180 L 880 180 L 860 180 L 860 200 L 880 200 L 900 200 L 920 200 L 920 220 L 940 220 L 940 200 L 940 180 L 940 160 L 920 160 z M 920 220 L 900 220 L 900 240 L 920 240 L 920 220 z M 900 240 L 880 240 L 880 260 L 900 260 L 900 240 z M 880 260 L 860 260 L 860 280 L 880 280 L 880 260 z M 460 320 L 460 340 L 480 340 L 480 320 L 460 320 z M 460 340 L 440 340 L 440 360 L 460 360 L 460 340 z M 620 320 L 620 340 L 640 340 L 640 360 L 640 380 L 640 400 L 640 420 L 660 420 L 660 400 L 660 380 L 660 360 L 660 340 L 660 320 L 640 320 L 620 320 z M 620 340 L 600 340 L 600 360 L 620 360 L 620 340 z M 600 360 L 580 360 L 580 380 L 580 400 L 580 420 L 580 440 L 580 460 L 580 480 L 580 500 L 580 520 L 560 520 L 540 520 L 520 520 L 500 520 L 480 520 L 460 520 L 440 520 L 440 500 L 420 500 L 420 520 L 400 520 L 400 540 L 420 540 L 440 540 L 460 540 L 480 540 L 500 540 L 520 540 L 540 540 L 560 540 L 580 540 L 580 560 L 580 580 L 580 600 L 580 620 L 580 640 L 580 660 L 580 680 L 560 680 L 560 700 L 580 700 L 580 720 L 580 740 L 580 760 L 580 780 L 580 800 L 580 820 L 600 820 L 600 800 L 620 800 L 620 780 L 600 780 L 600 760 L 600 740 L 600 720 L 600 700 L 600 680 L 600 660 L 620 660 L 620 640 L 600 640 L 600 620 L 600 600 L 600 580 L 600 560 L 600 540 L 600 520 L 620 520 L 620 500 L 600 500 L 600 480 L 600 460 L 600 440 L 600 420 L 600 400 L 600 380 L 600 360 z M 620 500 L 640 500 L 640 480 L 620 480 L 620 500 z M 640 500 L 640 520 L 640 540 L 640 560 L 640 580 L 640 600 L 640 620 L 620 620 L 620 640 L 640 640 L 640 660 L 640 680 L 640 700 L 640 720 L 640 740 L 640 760 L 660 760 L 660 740 L 660 720 L 660 700 L 660 680 L 660 660 L 660 640 L 660 620 L 660 600 L 660 580 L 660 560 L 660 540 L 680 540 L 680 560 L 700 560 L 720 560 L 740 560 L 740 540 L 720 540 L 700 540 L 700 520 L 700 500 L 680 500 L 680 520 L 660 520 L 660 500 L 640 500 z M 700 500 L 720 500 L 720 480 L 700 480 L 700 500 z M 720 480 L 740 480 L 760 480 L 780 480 L 780 500 L 800 500 L 800 480 L 820 480 L 820 460 L 800 460 L 800 440 L 780 440 L 780 460 L 760 460 L 740 460 L 720 460 L 720 480 z M 720 460 L 720 440 L 700 440 L 700 460 L 720 460 z M 700 440 L 700 420 L 680 420 L 680 440 L 700 440 z M 780 440 L 780 420 L 760 420 L 760 440 L 780 440 z M 780 500 L 760 500 L 760 520 L 780 520 L 780 500 z M 760 520 L 740 520 L 740 540 L 760 540 L 760 520 z M 640 760 L 620 760 L 620 780 L 640 780 L 640 760 z M 580 820 L 560 820 L 560 840 L 580 840 L 580 820 z M 560 840 L 540 840 L 540 820 L 540 800 L 540 780 L 540 760 L 540 740 L 540 720 L 520 720 L 500 720 L 480 720 L 460 720 L 440 720 L 420 720 L 400 720 L 380 720 L 380 700 L 380 680 L 380 660 L 380 640 L 380 620 L 380 600 L 380 580 L 380 560 L 360 560 L 340 560 L 320 560 L 300 560 L 280 560 L 260 560 L 240 560 L 240 540 L 240 520 L 240 500 L 240 480 L 240 460 L 240 440 L 240 420 L 220 420 L 220 440 L 220 460 L 220 480 L 220 500 L 220 520 L 220 540 L 220 560 L 220 580 L 240 580 L 260 580 L 280 580 L 300 580 L 320 580 L 340 580 L 340 600 L 360 600 L 360 620 L 360 640 L 360 660 L 360 680 L 360 700 L 360 720 L 360 740 L 380 740 L 400 740 L 420 740 L 440 740 L 460 740 L 480 740 L 500 740 L 520 740 L 520 760 L 520 780 L 520 800 L 520 820 L 520 840 L 520 860 L 520 880 L 540 880 L 540 860 L 560 860 L 560 840 z M 520 880 L 500 880 L 500 900 L 520 900 L 520 880 z M 500 900 L 480 900 L 480 920 L 500 920 L 500 900 z M 480 920 L 460 920 L 460 940 L 480 940 L 480 920 z M 360 740 L 340 740 L 340 760 L 360 760 L 360 740 z M 340 760 L 320 760 L 320 780 L 340 780 L 340 760 z M 340 600 L 320 600 L 320 620 L 340 620 L 340 600 z M 320 620 L 300 620 L 300 640 L 320 640 L 320 620 z M 220 580 L 200 580 L 200 600 L 220 600 L 220 580 z M 200 600 L 180 600 L 180 620 L 200 620 L 200 600 z M 180 620 L 160 620 L 160 640 L 180 640 L 180 620 z M 380 560 L 400 560 L 400 540 L 380 540 L 380 560 z M 540 720 L 560 720 L 560 700 L 540 700 L 540 720 z M 420 380 L 420 400 L 420 420 L 420 440 L 420 460 L 420 480 L 440 480 L 440 460 L 440 440 L 440 420 L 440 400 L 440 380 L 420 380 z "
     id="rect2372" />
</svg>
