<?xml version="1.0" encoding="UTF-8" standalone="no"?>
<svg
   xmlns:dc="http://purl.org/dc/elements/1.1/"
   xmlns:cc="http://creativecommons.org/ns#"
   xmlns:rdf="http://www.w3.org/1999/02/22-rdf-syntax-ns#"
   xmlns:svg="http://www.w3.org/2000/svg"
   xmlns="http://www.w3.org/2000/svg"
   id="svg2984"
   width="940px"
   version="1.1"
   height="960px">
  <metadata
     id="metadata2988">
    <rdf:RDF>
      <cc:Work
         rdf:about="">
        <dc:format>image/svg+xml</dc:format>
        <dc:type
           rdf:resource="http://purl.org/dc/dcmitype/StillImage" />
      </cc:Work>
    </rdf:RDF>
  </metadata>
  <defs
     id="defs2" />
  <path
     style="opacity:0.8745098;fill:#7c7c7c"
     d="M 760 140 L 760 160 L 780 160 L 800 160 L 800 140 L 780 140 L 760 140 z "
     id="rect316" />
  <path
     style="opacity:0.8745098;fill:#ebebeb"
     d="M 800 140 L 800 160 L 820 160 L 820 140 L 800 140 z "
     id="rect318" />
  <path
     style="opacity:0.8745098;fill:#e0e0e0"
     d="M 820 140 L 820 160 L 840 160 L 840 140 L 820 140 z "
     id="rect320" />
  <path
     style="opacity:0.90980392;fill:#cdcdcd"
     d="M 840 140 L 840 160 L 860 160 L 860 140 L 840 140 z "
     id="rect322" />
  <path
     style="fill:#00ffff"
     d="M 80 420 L 80 440 L 100 440 L 120 440 L 120 420 L 100 420 L 80 420 z M 120 440 L 120 460 L 120 480 L 140 480 L 140 460 L 140 440 L 120 440 z M 140 480 L 140 500 L 160 500 L 180 500 L 180 480 L 160 480 L 140 480 z M 180 500 L 180 520 L 180 540 L 200 540 L 200 520 L 200 500 L 180 500 z M 200 500 L 220 500 L 240 500 L 240 480 L 220 480 L 200 480 L 200 500 z M 180 540 L 160 540 L 140 540 L 140 560 L 160 560 L 180 560 L 180 540 z M 140 540 L 140 520 L 140 500 L 120 500 L 120 520 L 120 540 L 140 540 z M 120 500 L 120 480 L 100 480 L 80 480 L 80 500 L 100 500 L 120 500 z M 80 500 L 60 500 L 60 520 L 60 540 L 80 540 L 80 520 L 80 500 z M 60 540 L 40 540 L 20 540 L 20 560 L 40 560 L 60 560 L 60 540 z "
     id="rect1722" />
  <path
     style="fill:#cbcbcb"
     d="M 800 120 L 800 140 L 820 140 L 820 120 L 800 120 z M 840 120 L 840 140 L 860 140 L 860 160 L 840 160 L 820 160 L 820 180 L 840 180 L 860 180 L 880 180 L 880 160 L 880 140 L 880 120 L 860 120 L 840 120 z M 820 180 L 800 180 L 800 200 L 820 200 L 820 180 z M 800 200 L 780 200 L 760 200 L 760 220 L 760 240 L 780 240 L 800 240 L 800 220 L 800 200 z M 760 240 L 740 240 L 740 260 L 760 260 L 760 240 z M 760 260 L 760 280 L 760 300 L 780 300 L 800 300 L 800 280 L 800 260 L 780 260 L 760 260 z M 800 300 L 800 320 L 820 320 L 820 300 L 800 300 z M 820 300 L 840 300 L 840 320 L 860 320 L 880 320 L 900 320 L 900 300 L 880 300 L 880 280 L 880 260 L 880 240 L 860 240 L 840 240 L 840 260 L 820 260 L 820 280 L 820 300 z M 840 320 L 820 320 L 820 340 L 820 360 L 800 360 L 800 380 L 820 380 L 820 400 L 820 420 L 800 420 L 800 400 L 800 380 L 780 380 L 760 380 L 760 400 L 760 420 L 740 420 L 740 400 L 740 380 L 720 380 L 700 380 L 700 400 L 700 420 L 680 420 L 680 440 L 700 440 L 720 440 L 740 440 L 760 440 L 780 440 L 800 440 L 820 440 L 840 440 L 840 420 L 840 400 L 840 380 L 840 360 L 840 340 L 840 320 z M 680 440 L 660 440 L 640 440 L 640 460 L 640 480 L 660 480 L 680 480 L 680 460 L 680 440 z M 680 480 L 680 500 L 700 500 L 700 480 L 680 480 z M 700 500 L 700 520 L 700 540 L 720 540 L 740 540 L 740 520 L 740 500 L 720 500 L 700 500 z M 700 540 L 680 540 L 680 560 L 700 560 L 700 540 z M 700 560 L 700 580 L 700 600 L 720 600 L 740 600 L 740 580 L 740 560 L 720 560 L 700 560 z M 680 540 L 680 520 L 680 500 L 660 500 L 640 500 L 640 520 L 640 540 L 660 540 L 680 540 z M 640 500 L 640 480 L 620 480 L 620 500 L 640 500 z M 620 500 L 600 500 L 580 500 L 580 520 L 580 540 L 600 540 L 620 540 L 620 520 L 620 500 z M 580 500 L 580 480 L 560 480 L 560 500 L 580 500 z M 640 440 L 640 420 L 620 420 L 620 440 L 640 440 z M 640 420 L 660 420 L 680 420 L 680 400 L 680 380 L 660 380 L 640 380 L 640 400 L 640 420 z M 680 380 L 700 380 L 700 360 L 680 360 L 680 380 z M 680 360 L 680 340 L 680 320 L 660 320 L 640 320 L 640 340 L 640 360 L 660 360 L 680 360 z M 640 320 L 640 300 L 620 300 L 620 320 L 640 320 z M 640 300 L 660 300 L 680 300 L 680 280 L 680 260 L 660 260 L 640 260 L 640 280 L 640 300 z M 680 260 L 700 260 L 700 240 L 680 240 L 680 260 z M 700 240 L 720 240 L 740 240 L 740 220 L 740 200 L 720 200 L 700 200 L 700 220 L 700 240 z M 740 200 L 760 200 L 760 180 L 740 180 L 740 200 z M 760 180 L 780 180 L 800 180 L 800 160 L 780 160 L 760 160 L 760 180 z M 700 260 L 700 280 L 700 300 L 720 300 L 740 300 L 740 280 L 740 260 L 720 260 L 700 260 z M 740 300 L 740 320 L 760 320 L 760 300 L 740 300 z M 760 320 L 760 340 L 760 360 L 780 360 L 800 360 L 800 340 L 800 320 L 780 320 L 760 320 z M 760 360 L 740 360 L 740 380 L 760 380 L 760 360 z M 740 360 L 740 340 L 740 320 L 720 320 L 700 320 L 700 340 L 700 360 L 720 360 L 740 360 z M 700 320 L 700 300 L 680 300 L 680 320 L 700 320 z M 180 300 L 180 320 L 200 320 L 200 300 L 180 300 z M 60 420 L 60 440 L 80 440 L 80 420 L 60 420 z M 140 420 L 140 440 L 160 440 L 180 440 L 180 420 L 160 420 L 140 420 z M 180 440 L 180 460 L 180 480 L 200 480 L 200 460 L 200 440 L 180 440 z M 20 480 L 20 500 L 40 500 L 60 500 L 60 480 L 40 480 L 20 480 z "
     id="rect1946" />
  <path
     style="fill:#929292"
     d="M 240 240 L 240 260 L 260 260 L 280 260 L 300 260 L 320 260 L 340 260 L 360 260 L 380 260 L 400 260 L 420 260 L 440 260 L 440 240 L 420 240 L 400 240 L 380 240 L 360 240 L 340 240 L 320 240 L 300 240 L 280 240 L 260 240 L 240 240 z M 240 260 L 220 260 L 200 260 L 180 260 L 180 280 L 180 300 L 200 300 L 220 300 L 240 300 L 240 280 L 240 260 z M 180 300 L 160 300 L 140 300 L 120 300 L 120 320 L 140 320 L 160 320 L 180 320 L 180 300 z M 120 320 L 100 320 L 80 320 L 80 340 L 80 360 L 100 360 L 120 360 L 120 340 L 120 320 z M 80 360 L 60 360 L 60 380 L 60 400 L 60 420 L 80 420 L 80 400 L 80 380 L 80 360 z M 60 420 L 40 420 L 20 420 L 20 440 L 20 460 L 20 480 L 40 480 L 60 480 L 60 460 L 60 440 L 60 420 z M 20 480 L 0 480 L 0 500 L 0 520 L 0 540 L 0 560 L 0 580 L 0 600 L 0 620 L 20 620 L 20 600 L 20 580 L 20 560 L 20 540 L 20 520 L 20 500 L 20 480 z M 740 480 L 740 500 L 740 520 L 740 540 L 740 560 L 740 580 L 740 600 L 760 600 L 760 580 L 760 560 L 780 560 L 800 560 L 800 540 L 780 540 L 760 540 L 760 520 L 760 500 L 760 480 L 740 480 z "
     id="rect1960" />
  <path
     style="fill:#ffffff"
     d="M 820 120 L 820 140 L 840 140 L 840 120 L 820 120 z M 800 160 L 800 180 L 820 180 L 820 160 L 800 160 z M 820 180 L 820 200 L 840 200 L 840 180 L 820 180 z M 800 180 L 780 180 L 760 180 L 760 200 L 780 200 L 800 200 L 800 180 z M 760 200 L 740 200 L 740 220 L 740 240 L 760 240 L 760 220 L 760 200 z M 760 240 L 760 260 L 780 260 L 800 260 L 800 240 L 780 240 L 760 240 z M 800 260 L 800 280 L 800 300 L 820 300 L 820 280 L 820 260 L 800 260 z M 820 260 L 840 260 L 840 240 L 820 240 L 820 260 z M 820 300 L 820 320 L 840 320 L 840 300 L 820 300 z M 820 320 L 800 320 L 800 340 L 800 360 L 820 360 L 820 340 L 820 320 z M 800 360 L 780 360 L 760 360 L 760 380 L 780 380 L 800 380 L 800 360 z M 800 380 L 800 400 L 800 420 L 820 420 L 820 400 L 820 380 L 800 380 z M 760 380 L 740 380 L 740 400 L 740 420 L 760 420 L 760 400 L 760 380 z M 740 380 L 740 360 L 720 360 L 700 360 L 700 380 L 720 380 L 740 380 z M 700 380 L 680 380 L 680 400 L 680 420 L 700 420 L 700 400 L 700 380 z M 680 420 L 660 420 L 640 420 L 640 440 L 660 440 L 680 440 L 680 420 z M 680 440 L 680 460 L 680 480 L 700 480 L 700 460 L 700 440 L 680 440 z M 700 480 L 700 500 L 720 500 L 740 500 L 740 480 L 720 480 L 700 480 z M 700 500 L 680 500 L 680 520 L 680 540 L 700 540 L 700 520 L 700 500 z M 700 540 L 700 560 L 720 560 L 740 560 L 740 540 L 720 540 L 700 540 z M 680 540 L 660 540 L 640 540 L 640 560 L 660 560 L 680 560 L 680 540 z M 640 540 L 640 520 L 640 500 L 620 500 L 620 520 L 620 540 L 640 540 z M 620 500 L 620 480 L 600 480 L 580 480 L 580 500 L 600 500 L 620 500 z M 620 480 L 640 480 L 640 460 L 640 440 L 620 440 L 620 460 L 620 480 z M 640 480 L 640 500 L 660 500 L 680 500 L 680 480 L 660 480 L 640 480 z M 700 360 L 700 340 L 700 320 L 680 320 L 680 340 L 680 360 L 700 360 z M 680 320 L 680 300 L 660 300 L 640 300 L 640 320 L 660 320 L 680 320 z M 640 300 L 640 280 L 640 260 L 620 260 L 620 280 L 620 300 L 640 300 z M 640 260 L 660 260 L 680 260 L 680 240 L 660 240 L 640 240 L 640 260 z M 680 260 L 680 280 L 680 300 L 700 300 L 700 280 L 700 260 L 680 260 z M 700 260 L 720 260 L 740 260 L 740 240 L 720 240 L 700 240 L 700 260 z M 740 260 L 740 280 L 740 300 L 760 300 L 760 280 L 760 260 L 740 260 z M 760 300 L 760 320 L 780 320 L 800 320 L 800 300 L 780 300 L 760 300 z M 760 320 L 740 320 L 740 340 L 740 360 L 760 360 L 760 340 L 760 320 z M 740 320 L 740 300 L 720 300 L 700 300 L 700 320 L 720 320 L 740 320 z M 240 260 L 240 280 L 240 300 L 260 300 L 260 280 L 260 260 L 240 260 z M 240 300 L 220 300 L 200 300 L 200 320 L 220 320 L 240 320 L 240 300 z M 200 320 L 180 320 L 180 340 L 180 360 L 200 360 L 200 340 L 200 320 z M 180 360 L 160 360 L 140 360 L 140 380 L 160 380 L 180 380 L 180 360 z M 140 380 L 120 380 L 120 400 L 120 420 L 140 420 L 140 400 L 140 380 z M 120 380 L 120 360 L 100 360 L 80 360 L 80 380 L 100 380 L 120 380 z M 120 360 L 140 360 L 140 340 L 140 320 L 120 320 L 120 340 L 120 360 z M 60 440 L 60 460 L 60 480 L 80 480 L 80 460 L 80 440 L 60 440 z M 80 560 L 80 580 L 80 600 L 100 600 L 120 600 L 120 580 L 120 560 L 100 560 L 80 560 z M 120 600 L 120 620 L 140 620 L 140 600 L 120 600 z M 120 620 L 100 620 L 80 620 L 80 640 L 80 660 L 100 660 L 120 660 L 120 640 L 120 620 z M 80 660 L 60 660 L 60 680 L 80 680 L 80 660 z M 60 660 L 60 640 L 60 620 L 40 620 L 20 620 L 20 640 L 20 660 L 40 660 L 60 660 z M 60 620 L 80 620 L 80 600 L 60 600 L 60 620 z "
     id="rect2218" />
  <path
     style="opacity:0.8745098;fill:#00ce00"
     d="M 80 760 L 80 780 L 100 780 L 120 780 L 120 760 L 100 760 L 80 760 z M 140 760 L 140 780 L 160 780 L 180 780 L 180 760 L 160 760 L 140 760 z "
     id="rect2568" />
  <path
     style="opacity:0.8745098;fill:#00b200"
     d="M 60 760 L 60 780 L 80 780 L 80 760 L 60 760 z M 120 760 L 120 780 L 140 780 L 140 760 L 120 760 z M 180 760 L 180 780 L 200 780 L 200 760 L 180 760 z "
     id="rect2570" />
  <path
     style="opacity:0.8745098;fill:#0000ce"
     d="M 320 760 L 320 780 L 340 780 L 360 780 L 360 760 L 340 760 L 320 760 z M 380 760 L 380 780 L 400 780 L 400 760 L 380 760 z "
     id="rect2590" />
  <path
     style="opacity:0.90980392;fill:#0000b3"
     d="M 400 760 L 400 780 L 420 780 L 420 760 L 400 760 z "
     id="rect2592" />
  <path
     style="fill:#00ff00"
     d="M 260 260 L 260 280 L 260 300 L 240 300 L 240 320 L 260 320 L 280 320 L 300 320 L 300 300 L 320 300 L 340 300 L 360 300 L 360 320 L 380 320 L 400 320 L 400 300 L 400 280 L 400 260 L 380 260 L 360 260 L 340 260 L 320 260 L 300 260 L 280 260 L 260 260 z M 240 320 L 220 320 L 200 320 L 200 340 L 200 360 L 220 360 L 240 360 L 240 340 L 240 320 z M 240 360 L 240 380 L 260 380 L 260 360 L 240 360 z M 240 380 L 220 380 L 200 380 L 200 400 L 200 420 L 220 420 L 240 420 L 240 400 L 240 380 z M 200 420 L 180 420 L 180 440 L 200 440 L 200 420 z M 180 420 L 180 400 L 180 380 L 160 380 L 140 380 L 140 400 L 140 420 L 160 420 L 180 420 z M 140 380 L 140 360 L 120 360 L 120 380 L 140 380 z M 140 360 L 160 360 L 180 360 L 180 340 L 180 320 L 160 320 L 140 320 L 140 340 L 140 360 z M 180 360 L 180 380 L 200 380 L 200 360 L 180 360 z M 260 440 L 260 460 L 260 480 L 280 480 L 300 480 L 300 460 L 300 440 L 280 440 L 260 440 z M 120 560 L 120 580 L 120 600 L 140 600 L 140 580 L 140 560 L 120 560 z M 140 600 L 140 620 L 120 620 L 120 640 L 120 660 L 100 660 L 80 660 L 80 680 L 60 680 L 60 660 L 40 660 L 20 660 L 20 680 L 20 700 L 20 720 L 40 720 L 60 720 L 80 720 L 80 740 L 100 740 L 120 740 L 120 720 L 140 720 L 140 700 L 140 680 L 160 680 L 180 680 L 180 660 L 180 640 L 180 620 L 180 600 L 160 600 L 140 600 z M 180 680 L 180 700 L 180 720 L 200 720 L 200 700 L 200 680 L 180 680 z M 200 720 L 200 740 L 220 740 L 240 740 L 240 720 L 220 720 L 200 720 z M 200 740 L 180 740 L 180 760 L 200 760 L 200 740 z M 180 740 L 180 720 L 160 720 L 140 720 L 140 740 L 160 740 L 180 740 z M 140 740 L 120 740 L 120 760 L 140 760 L 140 740 z M 80 740 L 60 740 L 60 760 L 80 760 L 80 740 z M 60 660 L 80 660 L 80 640 L 80 620 L 60 620 L 60 640 L 60 660 z M 80 620 L 100 620 L 120 620 L 120 600 L 100 600 L 80 600 L 80 620 z M 80 780 L 80 800 L 100 800 L 120 800 L 120 780 L 100 780 L 80 780 z M 140 780 L 140 800 L 160 800 L 180 800 L 180 780 L 160 780 L 140 780 z "
     id="rect2630" />
  <path
     style="fill:#0000ff"
     d="M 800 240 L 800 260 L 820 260 L 820 240 L 800 240 z M 80 440 L 80 460 L 80 480 L 100 480 L 120 480 L 120 460 L 120 440 L 100 440 L 80 440 z M 120 480 L 120 500 L 140 500 L 140 480 L 120 480 z M 140 500 L 140 520 L 140 540 L 160 540 L 180 540 L 180 520 L 180 500 L 160 500 L 140 500 z M 180 540 L 180 560 L 200 560 L 200 580 L 200 600 L 200 620 L 200 640 L 200 660 L 220 660 L 240 660 L 260 660 L 280 660 L 300 660 L 300 640 L 300 620 L 320 620 L 320 600 L 320 580 L 320 560 L 340 560 L 360 560 L 360 540 L 360 520 L 360 500 L 340 500 L 320 500 L 300 500 L 300 480 L 280 480 L 260 480 L 260 460 L 260 440 L 240 440 L 240 460 L 240 480 L 240 500 L 220 500 L 200 500 L 200 520 L 200 540 L 180 540 z M 120 500 L 100 500 L 80 500 L 80 520 L 80 540 L 100 540 L 120 540 L 120 520 L 120 500 z M 80 540 L 60 540 L 60 560 L 80 560 L 80 540 z M 60 560 L 40 560 L 20 560 L 20 580 L 20 600 L 40 600 L 60 600 L 60 580 L 60 560 z M 60 540 L 60 520 L 60 500 L 40 500 L 20 500 L 20 520 L 20 540 L 40 540 L 60 540 z M 60 500 L 80 500 L 80 480 L 60 480 L 60 500 z M 440 440 L 440 460 L 440 480 L 460 480 L 460 460 L 460 440 L 440 440 z M 500 440 L 500 460 L 500 480 L 500 500 L 520 500 L 520 480 L 520 460 L 520 440 L 500 440 z M 500 500 L 480 500 L 460 500 L 440 500 L 440 520 L 440 540 L 440 560 L 420 560 L 400 560 L 380 560 L 380 580 L 380 600 L 380 620 L 380 640 L 380 660 L 360 660 L 340 660 L 320 660 L 320 680 L 340 680 L 360 680 L 380 680 L 380 700 L 380 720 L 400 720 L 420 720 L 440 720 L 460 720 L 480 720 L 500 720 L 520 720 L 520 700 L 520 680 L 500 680 L 480 680 L 460 680 L 460 660 L 440 660 L 420 660 L 400 660 L 400 640 L 400 620 L 420 620 L 440 620 L 460 620 L 460 600 L 460 580 L 460 560 L 480 560 L 500 560 L 500 540 L 500 520 L 500 500 z M 500 560 L 500 580 L 500 600 L 520 600 L 540 600 L 560 600 L 560 620 L 580 620 L 600 620 L 620 620 L 640 620 L 660 620 L 680 620 L 700 620 L 700 600 L 680 600 L 660 600 L 640 600 L 640 580 L 640 560 L 620 560 L 600 560 L 580 560 L 580 540 L 560 540 L 540 540 L 520 540 L 520 560 L 500 560 z M 560 620 L 540 620 L 520 620 L 500 620 L 480 620 L 460 620 L 460 640 L 460 660 L 480 660 L 500 660 L 520 660 L 540 660 L 560 660 L 560 640 L 560 620 z M 800 560 L 800 580 L 800 600 L 780 600 L 760 600 L 760 620 L 780 620 L 800 620 L 820 620 L 820 600 L 820 580 L 820 560 L 800 560 z M 320 720 L 320 740 L 340 740 L 360 740 L 360 720 L 340 720 L 320 720 z M 360 740 L 360 760 L 380 760 L 380 740 L 360 740 z M 320 740 L 300 740 L 300 760 L 320 760 L 320 740 z M 400 740 L 400 760 L 420 760 L 440 760 L 440 740 L 420 740 L 400 740 z M 460 740 L 460 760 L 480 760 L 500 760 L 500 740 L 480 740 L 460 740 z M 320 780 L 320 800 L 340 800 L 360 800 L 360 780 L 340 780 L 320 780 z M 360 800 L 360 820 L 380 820 L 380 800 L 360 800 z M 380 800 L 400 800 L 400 780 L 380 780 L 380 800 z M 320 800 L 300 800 L 300 820 L 320 820 L 320 800 z "
     id="rect2708" />
  <path
     style="opacity:0.8745098;fill:#003200"
     d="M 200 820 L 200 840 L 220 840 L 240 840 L 240 820 L 220 820 L 200 820 z "
     id="rect2752" />
  <path
     style="opacity:0.8745098;fill:#00004e"
     d="M 240 820 L 240 840 L 260 840 L 280 840 L 300 840 L 300 820 L 280 820 L 260 820 L 240 820 z "
     id="rect2758" />
  <path
     style="opacity:0.8745098;fill:#0000b2"
     d="M 300 760 L 300 780 L 320 780 L 320 760 L 300 760 z M 360 760 L 360 780 L 380 780 L 380 760 L 360 760 z M 420 760 L 420 780 L 440 780 L 440 760 L 420 760 z M 460 760 L 460 780 L 480 780 L 500 780 L 500 760 L 480 760 L 460 760 z M 300 820 L 300 840 L 320 840 L 320 820 L 300 820 z M 360 820 L 360 840 L 380 840 L 380 820 L 360 820 z "
     id="rect2766" />
  <path
     style="opacity:0.8745098;fill:#000032"
     d="M 520 760 L 520 780 L 540 780 L 560 780 L 560 760 L 540 760 L 520 760 z M 580 820 L 580 840 L 600 840 L 620 840 L 620 820 L 600 820 L 580 820 z "
     id="rect2790" />
  <path
     style="fill:#008000"
     d="M 300 300 L 300 320 L 280 320 L 260 320 L 240 320 L 240 340 L 240 360 L 260 360 L 260 380 L 240 380 L 240 400 L 240 420 L 220 420 L 200 420 L 200 440 L 200 460 L 200 480 L 220 480 L 240 480 L 240 460 L 240 440 L 260 440 L 280 440 L 300 440 L 300 460 L 300 480 L 300 500 L 320 500 L 340 500 L 360 500 L 360 520 L 360 540 L 360 560 L 340 560 L 320 560 L 320 580 L 320 600 L 340 600 L 360 600 L 360 620 L 340 620 L 320 620 L 300 620 L 300 640 L 300 660 L 280 660 L 260 660 L 240 660 L 220 660 L 200 660 L 200 640 L 200 620 L 200 600 L 200 580 L 200 560 L 180 560 L 160 560 L 140 560 L 140 580 L 140 600 L 160 600 L 180 600 L 180 620 L 180 640 L 180 660 L 180 680 L 200 680 L 200 700 L 200 720 L 220 720 L 240 720 L 240 740 L 220 740 L 200 740 L 200 760 L 200 780 L 180 780 L 180 800 L 160 800 L 140 800 L 140 780 L 120 780 L 120 800 L 100 800 L 80 800 L 80 780 L 60 780 L 60 800 L 60 820 L 60 840 L 80 840 L 80 860 L 100 860 L 120 860 L 140 860 L 160 860 L 180 860 L 200 860 L 200 840 L 200 820 L 220 820 L 240 820 L 240 800 L 260 800 L 260 780 L 260 760 L 260 740 L 280 740 L 300 740 L 320 740 L 320 720 L 300 720 L 300 700 L 300 680 L 320 680 L 320 660 L 340 660 L 360 660 L 380 660 L 380 640 L 380 620 L 380 600 L 380 580 L 380 560 L 380 540 L 400 540 L 420 540 L 440 540 L 440 520 L 440 500 L 460 500 L 480 500 L 500 500 L 500 480 L 500 460 L 500 440 L 500 420 L 480 420 L 460 420 L 460 400 L 460 380 L 460 360 L 440 360 L 440 340 L 440 320 L 440 300 L 420 300 L 400 300 L 400 320 L 380 320 L 360 320 L 360 300 L 340 300 L 320 300 L 300 300 z M 60 780 L 60 760 L 60 740 L 80 740 L 80 720 L 60 720 L 40 720 L 20 720 L 20 740 L 20 760 L 20 780 L 40 780 L 60 780 z M 20 720 L 20 700 L 20 680 L 20 660 L 20 640 L 20 620 L 0 620 L 0 640 L 0 660 L 0 680 L 0 700 L 0 720 L 20 720 z M 20 620 L 40 620 L 60 620 L 60 600 L 40 600 L 20 600 L 20 620 z M 60 600 L 80 600 L 80 580 L 80 560 L 60 560 L 60 580 L 60 600 z M 80 560 L 100 560 L 120 560 L 140 560 L 140 540 L 120 540 L 100 540 L 80 540 L 80 560 z M 80 740 L 80 760 L 100 760 L 120 760 L 120 740 L 100 740 L 80 740 z M 120 740 L 140 740 L 140 720 L 120 720 L 120 740 z M 140 720 L 160 720 L 180 720 L 180 700 L 180 680 L 160 680 L 140 680 L 140 700 L 140 720 z M 180 720 L 180 740 L 200 740 L 200 720 L 180 720 z M 180 740 L 160 740 L 140 740 L 140 760 L 160 760 L 180 760 L 180 740 z M 200 480 L 180 480 L 180 500 L 200 500 L 200 480 z M 180 480 L 180 460 L 180 440 L 160 440 L 140 440 L 140 460 L 140 480 L 160 480 L 180 480 z M 140 440 L 140 420 L 120 420 L 120 440 L 140 440 z M 120 420 L 120 400 L 120 380 L 100 380 L 80 380 L 80 400 L 80 420 L 100 420 L 120 420 z M 200 420 L 200 400 L 200 380 L 180 380 L 180 400 L 180 420 L 200 420 z M 200 380 L 220 380 L 240 380 L 240 360 L 220 360 L 200 360 L 200 380 z M 440 440 L 460 440 L 460 460 L 460 480 L 440 480 L 440 460 L 440 440 z M 520 660 L 520 680 L 540 680 L 560 680 L 560 700 L 560 720 L 580 720 L 580 700 L 580 680 L 600 680 L 620 680 L 640 680 L 640 660 L 620 660 L 600 660 L 580 660 L 560 660 L 540 660 L 520 660 z "
     id="rect2804" />
  <path
     style="fill:#000080"
     d="M 500 500 L 500 520 L 500 540 L 500 560 L 520 560 L 520 540 L 540 540 L 560 540 L 580 540 L 580 520 L 580 500 L 560 500 L 540 500 L 520 500 L 500 500 z M 580 540 L 580 560 L 600 560 L 620 560 L 640 560 L 640 540 L 620 540 L 600 540 L 580 540 z M 640 560 L 640 580 L 640 600 L 660 600 L 680 600 L 700 600 L 700 580 L 700 560 L 680 560 L 660 560 L 640 560 z M 700 600 L 700 620 L 680 620 L 660 620 L 640 620 L 620 620 L 600 620 L 580 620 L 560 620 L 560 640 L 560 660 L 580 660 L 600 660 L 620 660 L 640 660 L 640 680 L 620 680 L 600 680 L 580 680 L 580 700 L 580 720 L 560 720 L 560 700 L 560 680 L 540 680 L 520 680 L 520 700 L 520 720 L 500 720 L 480 720 L 460 720 L 440 720 L 420 720 L 400 720 L 380 720 L 380 700 L 380 680 L 360 680 L 340 680 L 320 680 L 300 680 L 300 700 L 300 720 L 320 720 L 340 720 L 360 720 L 360 740 L 380 740 L 380 760 L 400 760 L 400 740 L 420 740 L 440 740 L 440 760 L 440 780 L 420 780 L 400 780 L 400 800 L 380 800 L 380 820 L 380 840 L 360 840 L 360 820 L 360 800 L 340 800 L 320 800 L 320 820 L 320 840 L 300 840 L 280 840 L 260 840 L 240 840 L 240 860 L 220 860 L 200 860 L 200 880 L 220 880 L 240 880 L 240 900 L 240 920 L 260 920 L 280 920 L 300 920 L 320 920 L 340 920 L 360 920 L 380 920 L 400 920 L 420 920 L 440 920 L 460 920 L 460 900 L 460 880 L 480 880 L 500 880 L 520 880 L 520 860 L 540 860 L 560 860 L 580 860 L 580 840 L 580 820 L 600 820 L 620 820 L 620 840 L 640 840 L 640 820 L 640 800 L 640 780 L 640 760 L 640 740 L 640 720 L 660 720 L 680 720 L 680 700 L 680 680 L 680 660 L 700 660 L 720 660 L 740 660 L 760 660 L 780 660 L 800 660 L 820 660 L 820 640 L 820 620 L 800 620 L 780 620 L 760 620 L 760 600 L 740 600 L 720 600 L 700 600 z M 760 600 L 780 600 L 800 600 L 800 580 L 800 560 L 780 560 L 760 560 L 760 580 L 760 600 z M 800 560 L 820 560 L 820 540 L 800 540 L 800 560 z M 820 560 L 820 580 L 820 600 L 820 620 L 840 620 L 860 620 L 880 620 L 880 600 L 860 600 L 860 580 L 860 560 L 840 560 L 820 560 z M 320 800 L 320 780 L 300 780 L 300 800 L 320 800 z M 360 800 L 380 800 L 380 780 L 360 780 L 360 800 z M 360 740 L 340 740 L 320 740 L 320 760 L 340 760 L 360 760 L 360 740 z M 520 680 L 520 660 L 500 660 L 480 660 L 460 660 L 460 680 L 480 680 L 500 680 L 520 680 z M 460 660 L 460 640 L 460 620 L 440 620 L 420 620 L 400 620 L 400 640 L 400 660 L 420 660 L 440 660 L 460 660 z M 460 620 L 480 620 L 500 620 L 520 620 L 540 620 L 560 620 L 560 600 L 540 600 L 520 600 L 500 600 L 500 580 L 500 560 L 480 560 L 460 560 L 460 580 L 460 600 L 460 620 z M 320 600 L 320 620 L 340 620 L 360 620 L 360 600 L 340 600 L 320 600 z M 460 740 L 480 740 L 500 740 L 500 760 L 500 780 L 480 780 L 460 780 L 460 760 L 460 740 z M 520 760 L 540 760 L 560 760 L 560 780 L 560 800 L 540 800 L 520 800 L 520 780 L 520 760 z "
     id="rect2954" />
  <path
     style="fill:#000000"
     d="M 580 0 L 580 20 L 580 40 L 560 40 L 540 40 L 520 40 L 520 60 L 500 60 L 500 80 L 500 100 L 480 100 L 460 100 L 460 120 L 460 140 L 440 140 L 440 160 L 440 180 L 440 200 L 440 220 L 440 240 L 440 260 L 420 260 L 400 260 L 400 280 L 400 300 L 420 300 L 440 300 L 440 320 L 440 340 L 440 360 L 460 360 L 460 380 L 460 400 L 460 420 L 480 420 L 500 420 L 500 440 L 520 440 L 520 460 L 520 480 L 520 500 L 540 500 L 560 500 L 560 480 L 580 480 L 600 480 L 620 480 L 620 460 L 620 440 L 620 420 L 640 420 L 640 400 L 640 380 L 660 380 L 680 380 L 680 360 L 660 360 L 640 360 L 640 340 L 640 320 L 620 320 L 620 300 L 620 280 L 620 260 L 640 260 L 640 240 L 660 240 L 680 240 L 700 240 L 700 220 L 700 200 L 720 200 L 740 200 L 740 180 L 760 180 L 760 160 L 760 140 L 780 140 L 800 140 L 800 120 L 820 120 L 840 120 L 860 120 L 880 120 L 880 140 L 880 160 L 880 180 L 900 180 L 900 160 L 920 160 L 940 160 L 940 140 L 940 120 L 940 100 L 940 80 L 940 60 L 920 60 L 900 60 L 900 40 L 880 40 L 860 40 L 860 20 L 860 0 L 840 0 L 820 0 L 800 0 L 780 0 L 760 0 L 740 0 L 720 0 L 700 0 L 680 0 L 660 0 L 640 0 L 620 0 L 600 0 L 580 0 z M 880 180 L 860 180 L 840 180 L 840 200 L 820 200 L 800 200 L 800 220 L 800 240 L 820 240 L 840 240 L 860 240 L 880 240 L 880 220 L 880 200 L 880 180 z M 880 240 L 880 260 L 880 280 L 880 300 L 900 300 L 900 280 L 900 260 L 900 240 L 880 240 z M 900 300 L 900 320 L 920 320 L 940 320 L 940 300 L 920 300 L 900 300 z M 900 320 L 880 320 L 860 320 L 840 320 L 840 340 L 840 360 L 840 380 L 840 400 L 840 420 L 840 440 L 820 440 L 800 440 L 780 440 L 760 440 L 740 440 L 720 440 L 700 440 L 700 460 L 700 480 L 720 480 L 740 480 L 760 480 L 760 500 L 760 520 L 760 540 L 780 540 L 800 540 L 800 520 L 800 500 L 800 480 L 820 480 L 840 480 L 860 480 L 860 460 L 860 440 L 880 440 L 880 420 L 880 400 L 880 380 L 880 360 L 900 360 L 900 340 L 900 320 z M 380 540 L 380 560 L 400 560 L 420 560 L 440 560 L 440 540 L 420 540 L 400 540 L 380 540 z M 680 660 L 680 680 L 680 700 L 680 720 L 700 720 L 700 700 L 700 680 L 700 660 L 680 660 z M 680 720 L 660 720 L 640 720 L 640 740 L 640 760 L 640 780 L 660 780 L 680 780 L 680 760 L 680 740 L 680 720 z M 260 740 L 260 760 L 260 780 L 260 800 L 240 800 L 240 820 L 260 820 L 280 820 L 300 820 L 300 800 L 300 780 L 300 760 L 300 740 L 280 740 L 260 740 z M 520 780 L 520 800 L 540 800 L 560 800 L 560 780 L 540 780 L 520 780 z M 200 840 L 200 860 L 220 860 L 240 860 L 240 840 L 220 840 L 200 840 z M 200 860 L 180 860 L 160 860 L 140 860 L 120 860 L 120 880 L 140 880 L 160 880 L 180 880 L 180 900 L 180 920 L 200 920 L 220 920 L 240 920 L 240 900 L 240 880 L 220 880 L 200 880 L 200 860 z M 240 920 L 240 940 L 260 940 L 280 940 L 300 940 L 320 940 L 340 940 L 360 940 L 380 940 L 400 940 L 420 940 L 440 940 L 460 940 L 460 920 L 440 920 L 420 920 L 400 920 L 380 920 L 360 920 L 340 920 L 320 920 L 300 920 L 280 920 L 260 920 L 240 920 z M 460 920 L 480 920 L 500 920 L 520 920 L 520 900 L 520 880 L 500 880 L 480 880 L 460 880 L 460 900 L 460 920 z M 520 880 L 540 880 L 560 880 L 580 880 L 580 860 L 560 860 L 540 860 L 520 860 L 520 880 z M 580 860 L 600 860 L 620 860 L 620 840 L 600 840 L 580 840 L 580 860 z "
     id="rect2982" />
</svg>
