<?xml version="1.0" encoding="UTF-8" standalone="no"?>
<svg
   xmlns:dc="http://purl.org/dc/elements/1.1/"
   xmlns:cc="http://creativecommons.org/ns#"
   xmlns:rdf="http://www.w3.org/1999/02/22-rdf-syntax-ns#"
   xmlns:svg="http://www.w3.org/2000/svg"
   xmlns="http://www.w3.org/2000/svg"
   xmlns:sodipodi="http://sodipodi.sourceforge.net/DTD/sodipodi-0.dtd"
   xmlns:inkscape="http://www.inkscape.org/namespaces/inkscape"
   id="svg1158"
   width="640px"
   version="1.1"
   height="640px"
   sodipodi:docname="chicago95_tmp_file.svg"
   inkscape:version="0.92.5 (2060ec1f9f, 2020-04-08)">
  <sodipodi:namedview
     pagecolor="#ffffff"
     bordercolor="#666666"
     borderopacity="1"
     objecttolerance="10"
     gridtolerance="10"
     guidetolerance="10"
     inkscape:pageopacity="0"
     inkscape:pageshadow="2"
     inkscape:window-width="640"
     inkscape:window-height="480"
     id="namedview582"
     showgrid="false"
     inkscape:zoom="0.36875"
     inkscape:cx="320"
     inkscape:cy="320"
     inkscape:window-x="0"
     inkscape:window-y="0"
     inkscape:window-maximized="0"
     inkscape:current-layer="svg1158" />
  <metadata
     id="metadata1162">
    <rdf:RDF>
      <cc:Work
         rdf:about="">
        <dc:format>image/svg+xml</dc:format>
        <dc:type
           rdf:resource="http://purl.org/dc/dcmitype/StillImage" />
      </cc:Work>
    </rdf:RDF>
  </metadata>
  <defs
     id="defs2" />
  <path
     style="fill:#ffff00"
     d="M 520 20 L 520 40 L 500 40 L 500 61 L 520 61 L 520 81 L 540 81 L 540 101 L 560 101 L 560 121 L 580 121 L 580 141 L 601 141 L 601 121 L 621 121 L 621 100 L 601 100 L 601 80 L 581 80 L 581 60 L 561 60 L 561 40 L 541 40 L 541 20 L 520 20 z "
     id="rect138" />
  <path
     style="fill:#808000"
     d="M 480 60 L 480 81 L 500 81 L 500 101 L 520 101 L 520 121 L 540 121 L 540 141 L 560 141 L 560 161 L 581 161 L 581 141 L 581 140 L 581 120 L 561 120 L 561 100 L 541 100 L 541 80 L 521 80 L 521 60 L 501 60 L 500 60 L 480 60 z "
     id="rect186" />
  <path
     style="fill:#ff0000"
     d="M 460 260 L 460 280 L 440 280 L 440 300 L 420 300 L 420 320 L 400 320 L 400 340 L 380 340 L 380 361 L 400 361 L 400 381 L 421 381 L 421 361 L 441 361 L 441 341 L 461 341 L 461 321 L 481 321 L 481 301 L 501 301 L 501 280 L 481 280 L 481 260 L 460 260 z "
     id="rect664" />
  <path
     style="fill:#800000"
     d="M 480 300 L 480 320 L 460 320 L 460 340 L 440 340 L 440 360 L 420 360 L 420 380 L 420 381 L 420 401 L 441 401 L 441 381 L 461 381 L 461 361 L 481 361 L 481 341 L 501 341 L 501 321 L 521 321 L 521 300 L 501 300 L 500 300 L 480 300 z "
     id="rect714" />
  <path
     style="fill:#ffffff"
     d="M 160 160 L 160 180 L 160 181 L 160 200 L 160 201 L 160 220 L 160 221 L 160 240 L 160 241 L 160 260 L 160 261 L 160 280 L 160 281 L 160 300 L 160 301 L 160 321 L 180 321 L 180 341 L 200 341 L 200 361 L 220 361 L 220 381 L 240 381 L 240 401 L 260 401 L 260 421 L 280 421 L 281 421 L 300 421 L 301 421 L 320 421 L 321 421 L 340 421 L 340 441 L 360 441 L 361 441 L 380 441 L 381 441 L 400 441 L 401 441 L 420 441 L 420 461 L 440 461 L 441 461 L 460 461 L 461 461 L 481 461 L 481 441 L 481 440 L 481 421 L 481 420 L 481 400 L 460 400 L 460 420 L 441 420 L 440 420 L 421 420 L 421 400 L 401 400 L 401 380 L 381 380 L 381 360 L 361 360 L 361 341 L 381 341 L 381 321 L 401 321 L 401 301 L 421 301 L 421 281 L 441 281 L 441 261 L 461 261 L 461 241 L 481 241 L 481 220 L 461 220 L 460 220 L 441 220 L 440 220 L 421 220 L 420 220 L 401 220 L 401 200 L 381 200 L 380 200 L 361 200 L 360 200 L 341 200 L 340 200 L 321 200 L 321 180 L 301 180 L 300 180 L 281 180 L 280 180 L 261 180 L 260 180 L 241 180 L 241 160 L 221 160 L 220 160 L 201 160 L 200 160 L 181 160 L 180 160 L 160 160 z M 140 420 L 140 440 L 140 441 L 140 460 L 140 461 L 140 480 L 140 481 L 140 501 L 160 501 L 161 501 L 180 501 L 181 501 L 200 501 L 201 501 L 221 501 L 221 480 L 201 480 L 201 460 L 181 460 L 181 440 L 161 440 L 161 420 L 140 420 z M 360 460 L 360 481 L 380 481 L 381 481 L 401 481 L 401 460 L 381 460 L 380 460 L 360 460 z "
     id="rect944" />
  <path
     style="fill:#c0c0c0"
     d="M 240 80 L 240 101 L 261 101 L 261 80 L 240 80 z M 460 80 L 460 101 L 480 101 L 480 121 L 500 121 L 500 140 L 500 141 L 500 161 L 520 161 L 520 181 L 540 181 L 540 201 L 560 201 L 561 201 L 580 201 L 581 201 L 601 201 L 601 181 L 621 181 L 621 161 L 641 161 L 641 141 L 641 140 L 641 120 L 620 120 L 620 140 L 600 140 L 600 160 L 580 160 L 580 180 L 561 180 L 561 160 L 541 160 L 541 140 L 521 140 L 521 120 L 501 120 L 501 100 L 481 100 L 481 80 L 460 80 z M 320 100 L 320 121 L 341 121 L 341 100 L 320 100 z M 400 120 L 400 141 L 421 141 L 421 120 L 400 120 z M 160 140 L 160 161 L 180 161 L 181 161 L 200 161 L 201 161 L 220 161 L 221 161 L 240 161 L 240 181 L 260 181 L 261 181 L 280 181 L 281 181 L 300 181 L 301 181 L 320 181 L 320 201 L 340 201 L 341 201 L 360 201 L 361 201 L 380 201 L 381 201 L 400 201 L 400 221 L 420 221 L 421 221 L 440 221 L 441 221 L 460 221 L 461 221 L 481 221 L 481 200 L 461 200 L 460 200 L 441 200 L 440 200 L 421 200 L 420 200 L 401 200 L 401 180 L 381 180 L 380 180 L 361 180 L 360 180 L 341 180 L 340 180 L 321 180 L 321 160 L 301 160 L 300 160 L 281 160 L 280 160 L 261 160 L 260 160 L 241 160 L 241 140 L 221 140 L 220 140 L 201 140 L 200 140 L 181 140 L 180 140 L 160 140 z M 520 320 L 520 340 L 500 340 L 500 361 L 521 361 L 521 341 L 541 341 L 541 320 L 520 320 z M 460 380 L 460 400 L 440 400 L 440 421 L 461 421 L 461 401 L 481 401 L 481 380 L 460 380 z M 140 400 L 140 421 L 160 421 L 160 441 L 180 441 L 180 461 L 200 461 L 200 481 L 220 481 L 220 501 L 241 501 L 241 480 L 221 480 L 221 460 L 201 460 L 201 440 L 181 440 L 181 420 L 161 420 L 161 400 L 140 400 z M 320 420 L 320 440 L 300 440 L 300 461 L 321 461 L 321 441 L 341 441 L 341 420 L 320 420 z M 400 440 L 400 461 L 421 461 L 421 440 L 400 440 z M 340 460 L 340 481 L 361 481 L 361 460 L 340 460 z M 380 480 L 380 501 L 401 501 L 401 480 L 380 480 z "
     id="rect962" />
  <path
     style="fill:#808080"
     d="M 540 320 L 540 340 L 520 340 L 520 360 L 500 360 L 500 380 L 500 381 L 500 400 L 500 401 L 500 420 L 500 421 L 500 440 L 500 441 L 500 461 L 520 461 L 521 461 L 541 461 L 541 441 L 560 441 L 561 441 L 581 441 L 581 421 L 600 421 L 601 421 L 621 421 L 621 400 L 601 400 L 600 400 L 581 400 L 581 380 L 561 380 L 560 380 L 541 380 L 541 361 L 541 360 L 541 341 L 561 341 L 561 320 L 540 320 z M 320 460 L 320 481 L 340 481 L 340 501 L 360 501 L 360 521 L 380 521 L 380 541 L 400 541 L 400 561 L 420 561 L 421 561 L 440 561 L 441 561 L 460 561 L 461 561 L 481 561 L 481 540 L 461 540 L 460 540 L 441 540 L 441 520 L 421 520 L 421 500 L 401 500 L 400 500 L 381 500 L 381 480 L 361 480 L 360 480 L 341 480 L 341 460 L 320 460 z M 440 480 L 440 501 L 460 501 L 461 501 L 481 501 L 481 480 L 461 480 L 460 480 L 440 480 z M 140 500 L 140 521 L 160 521 L 161 521 L 180 521 L 181 521 L 200 521 L 201 521 L 220 521 L 221 521 L 240 521 L 241 521 L 261 521 L 261 500 L 241 500 L 240 500 L 221 500 L 220 500 L 201 500 L 200 500 L 181 500 L 180 500 L 161 500 L 160 500 L 140 500 z "
     id="rect1082" />
  <path
     style="fill:#008080"
     d="M 80 280 L 80 301 L 100 301 L 100 320 L 80 320 L 80 341 L 100 341 L 100 360 L 80 360 L 80 381 L 100 381 L 100 400 L 80 400 L 80 421 L 100 421 L 100 440 L 80 440 L 80 461 L 100 461 L 100 480 L 80 480 L 80 501 L 100 501 L 100 520 L 80 520 L 80 541 L 100 541 L 100 560 L 80 560 L 80 581 L 101 581 L 101 561 L 120 561 L 120 581 L 141 581 L 141 561 L 160 561 L 160 581 L 181 581 L 181 561 L 200 561 L 200 581 L 221 581 L 221 561 L 240 561 L 240 581 L 261 581 L 261 561 L 280 561 L 280 581 L 301 581 L 301 561 L 320 561 L 320 581 L 341 581 L 341 561 L 360 561 L 360 581 L 381 581 L 381 561 L 381 560 L 381 540 L 361 540 L 361 520 L 341 520 L 341 500 L 321 500 L 321 480 L 301 480 L 301 460 L 281 460 L 281 440 L 261 440 L 261 420 L 241 420 L 241 400 L 221 400 L 221 380 L 201 380 L 201 360 L 181 360 L 181 340 L 161 340 L 161 320 L 141 320 L 141 300 L 121 300 L 121 280 L 101 280 L 100 280 L 80 280 z M 121 361 L 140 361 L 140 381 L 160 381 L 160 401 L 180 401 L 180 421 L 200 421 L 200 441 L 220 441 L 220 461 L 240 461 L 240 481 L 260 481 L 260 501 L 280 501 L 280 521 L 300 521 L 300 540 L 281 540 L 280 540 L 261 540 L 260 540 L 241 540 L 240 540 L 221 540 L 220 540 L 201 540 L 200 540 L 181 540 L 180 540 L 161 540 L 160 540 L 141 540 L 140 540 L 121 540 L 121 521 L 121 520 L 121 501 L 121 500 L 121 481 L 121 480 L 121 461 L 121 460 L 121 441 L 121 440 L 121 421 L 121 420 L 121 401 L 121 400 L 121 381 L 121 380 L 121 361 z "
     id="rect1114" />
  <path
     style="fill:#00ffff"
     d="M 160 100 L 160 121 L 180 121 L 181 121 L 200 121 L 201 121 L 220 121 L 221 121 L 240 121 L 240 141 L 260 141 L 261 141 L 280 141 L 281 141 L 300 141 L 301 141 L 320 141 L 320 161 L 340 161 L 341 161 L 360 161 L 361 161 L 380 161 L 381 161 L 400 161 L 400 181 L 420 181 L 421 181 L 440 181 L 441 181 L 460 181 L 461 181 L 481 181 L 481 160 L 461 160 L 460 160 L 441 160 L 440 160 L 421 160 L 420 160 L 401 160 L 401 140 L 381 140 L 380 140 L 361 140 L 360 140 L 341 140 L 340 140 L 321 140 L 321 120 L 301 120 L 300 120 L 281 120 L 280 120 L 261 120 L 260 120 L 241 120 L 241 100 L 221 100 L 220 100 L 201 100 L 200 100 L 181 100 L 180 100 L 160 100 z M 80 260 L 80 281 L 101 281 L 101 260 L 80 260 z M 80 300 L 80 321 L 101 321 L 101 300 L 80 300 z M 80 340 L 80 361 L 101 361 L 101 340 L 80 340 z M 80 380 L 80 401 L 101 401 L 101 380 L 80 380 z M 80 420 L 80 441 L 101 441 L 101 420 L 80 420 z M 80 460 L 80 481 L 101 481 L 101 460 L 80 460 z M 80 500 L 80 521 L 101 521 L 101 500 L 80 500 z M 80 540 L 80 561 L 100 561 L 100 581 L 121 581 L 121 560 L 101 560 L 101 540 L 80 540 z M 140 560 L 140 581 L 161 581 L 161 560 L 140 560 z M 180 560 L 180 581 L 201 581 L 201 560 L 180 560 z M 220 560 L 220 581 L 241 581 L 241 560 L 220 560 z M 260 560 L 260 581 L 281 581 L 281 560 L 260 560 z M 300 560 L 300 581 L 321 581 L 321 560 L 300 560 z M 340 560 L 340 581 L 361 581 L 361 560 L 340 560 z M 380 560 L 380 581 L 401 581 L 401 560 L 380 560 z "
     id="rect1116" />
  <path
     style="fill:#000000"
     d="M 520 0 L 520 20 L 500 20 L 500 40 L 480 40 L 480 60 L 460 60 L 460 81 L 480 81 L 480 101 L 500 101 L 500 121 L 520 121 L 520 141 L 540 141 L 540 161 L 560 161 L 560 181 L 581 181 L 581 161 L 601 161 L 601 141 L 621 141 L 621 121 L 641 121 L 641 100 L 621 100 L 621 80 L 601 80 L 601 60 L 581 60 L 581 40 L 561 40 L 561 20 L 541 20 L 541 0 L 520 0 z M 521 21 L 540 21 L 540 41 L 560 41 L 560 61 L 580 61 L 580 81 L 600 81 L 600 101 L 620 101 L 620 120 L 600 120 L 600 140 L 580 140 L 580 160 L 561 160 L 561 140 L 541 140 L 541 120 L 521 120 L 521 100 L 501 100 L 501 80 L 481 80 L 481 61 L 501 61 L 501 41 L 521 41 L 521 21 z M 140 60 L 140 80 L 140 81 L 140 100 L 140 101 L 140 120 L 140 121 L 140 140 L 140 141 L 140 160 L 140 161 L 140 180 L 140 181 L 140 200 L 140 201 L 140 220 L 140 221 L 140 240 L 140 241 L 140 260 L 140 261 L 140 280 L 121 280 L 121 260 L 101 260 L 101 240 L 81 240 L 81 220 L 60 220 L 60 240 L 60 241 L 60 260 L 60 261 L 60 280 L 60 281 L 60 300 L 60 301 L 60 320 L 60 321 L 60 340 L 60 341 L 60 360 L 60 361 L 60 380 L 60 381 L 60 400 L 60 401 L 60 420 L 60 421 L 60 440 L 60 441 L 60 460 L 60 461 L 60 480 L 60 481 L 60 500 L 60 501 L 60 520 L 60 521 L 60 540 L 60 541 L 60 560 L 60 561 L 60 580 L 60 581 L 60 601 L 80 601 L 81 601 L 100 601 L 101 601 L 120 601 L 121 601 L 140 601 L 141 601 L 160 601 L 161 601 L 180 601 L 181 601 L 200 601 L 201 601 L 220 601 L 221 601 L 240 601 L 241 601 L 260 601 L 261 601 L 280 601 L 281 601 L 300 601 L 301 601 L 320 601 L 321 601 L 340 601 L 341 601 L 360 601 L 361 601 L 380 601 L 381 601 L 400 601 L 401 601 L 420 601 L 421 601 L 441 601 L 441 580 L 421 580 L 421 560 L 401 560 L 401 540 L 381 540 L 381 520 L 361 520 L 361 500 L 341 500 L 341 480 L 321 480 L 321 461 L 340 461 L 341 461 L 360 461 L 361 461 L 380 461 L 381 461 L 400 461 L 400 481 L 420 481 L 421 481 L 440 481 L 441 481 L 460 481 L 461 481 L 480 481 L 481 481 L 501 481 L 501 461 L 501 460 L 501 441 L 501 440 L 501 421 L 501 420 L 501 401 L 501 400 L 501 381 L 501 380 L 501 361 L 501 360 L 501 341 L 521 341 L 521 321 L 541 321 L 541 300 L 521 300 L 521 280 L 501 280 L 501 261 L 501 260 L 501 241 L 501 240 L 501 221 L 501 220 L 501 201 L 501 200 L 501 181 L 501 180 L 501 161 L 501 160 L 501 140 L 481 140 L 480 140 L 461 140 L 460 140 L 441 140 L 440 140 L 421 140 L 420 140 L 401 140 L 401 120 L 381 120 L 380 120 L 361 120 L 360 120 L 341 120 L 340 120 L 321 120 L 321 100 L 301 100 L 300 100 L 281 100 L 280 100 L 261 100 L 260 100 L 241 100 L 241 80 L 221 80 L 220 80 L 201 80 L 200 80 L 181 80 L 180 80 L 161 80 L 161 60 L 140 60 z M 161 101 L 180 101 L 181 101 L 200 101 L 201 101 L 220 101 L 221 101 L 240 101 L 240 120 L 221 120 L 220 120 L 201 120 L 200 120 L 181 120 L 180 120 L 161 120 L 161 101 z M 241 121 L 260 121 L 261 121 L 280 121 L 281 121 L 300 121 L 301 121 L 320 121 L 320 140 L 301 140 L 300 140 L 281 140 L 280 140 L 261 140 L 260 140 L 241 140 L 241 121 z M 161 141 L 180 141 L 181 141 L 200 141 L 201 141 L 220 141 L 221 141 L 240 141 L 240 161 L 260 161 L 261 161 L 280 161 L 281 161 L 300 161 L 301 161 L 320 161 L 320 181 L 340 181 L 341 181 L 360 181 L 361 181 L 380 181 L 381 181 L 400 181 L 400 201 L 420 201 L 421 201 L 440 201 L 441 201 L 460 201 L 461 201 L 480 201 L 480 220 L 480 221 L 480 240 L 460 240 L 460 260 L 440 260 L 440 280 L 420 280 L 420 300 L 400 300 L 400 320 L 380 320 L 380 340 L 360 340 L 360 361 L 380 361 L 380 381 L 400 381 L 400 401 L 420 401 L 420 421 L 441 421 L 441 401 L 461 401 L 461 381 L 480 381 L 480 400 L 480 401 L 480 420 L 480 421 L 480 440 L 480 441 L 480 460 L 461 460 L 460 460 L 441 460 L 440 460 L 421 460 L 420 460 L 401 460 L 401 440 L 381 440 L 380 440 L 361 440 L 360 440 L 341 440 L 340 440 L 321 440 L 321 420 L 301 420 L 300 420 L 281 420 L 280 420 L 261 420 L 261 400 L 241 400 L 241 380 L 221 380 L 221 360 L 201 360 L 201 340 L 181 340 L 181 320 L 161 320 L 161 301 L 161 300 L 161 281 L 161 280 L 161 261 L 161 260 L 161 241 L 161 240 L 161 221 L 161 220 L 161 201 L 161 200 L 161 181 L 161 180 L 161 161 L 161 160 L 161 141 z M 321 141 L 340 141 L 341 141 L 360 141 L 361 141 L 380 141 L 381 141 L 400 141 L 400 160 L 381 160 L 380 160 L 361 160 L 360 160 L 341 160 L 340 160 L 321 160 L 321 141 z M 401 161 L 420 161 L 421 161 L 440 161 L 441 161 L 460 161 L 461 161 L 480 161 L 480 180 L 461 180 L 460 180 L 441 180 L 440 180 L 421 180 L 420 180 L 401 180 L 401 161 z M 81 261 L 100 261 L 100 281 L 120 281 L 120 301 L 140 301 L 140 321 L 160 321 L 160 341 L 180 341 L 180 361 L 200 361 L 200 381 L 220 381 L 220 401 L 240 401 L 240 421 L 260 421 L 260 441 L 280 441 L 280 461 L 300 461 L 300 481 L 320 481 L 320 501 L 340 501 L 340 521 L 360 521 L 360 541 L 380 541 L 380 561 L 400 561 L 400 580 L 381 580 L 380 580 L 361 580 L 360 580 L 341 580 L 340 580 L 321 580 L 320 580 L 301 580 L 300 580 L 281 580 L 280 580 L 261 580 L 260 580 L 241 580 L 240 580 L 221 580 L 220 580 L 201 580 L 200 580 L 181 580 L 180 580 L 161 580 L 160 580 L 141 580 L 140 580 L 121 580 L 120 580 L 101 580 L 100 580 L 81 580 L 81 561 L 81 560 L 81 541 L 81 540 L 81 521 L 81 520 L 81 501 L 81 500 L 81 481 L 81 480 L 81 461 L 81 460 L 81 441 L 81 440 L 81 421 L 81 420 L 81 401 L 81 400 L 81 381 L 81 380 L 81 361 L 81 360 L 81 341 L 81 340 L 81 321 L 81 320 L 81 301 L 81 300 L 81 281 L 81 280 L 81 261 z M 461 261 L 480 261 L 480 281 L 500 281 L 500 301 L 520 301 L 520 320 L 500 320 L 500 340 L 480 340 L 480 360 L 460 360 L 460 380 L 440 380 L 440 400 L 421 400 L 421 380 L 401 380 L 401 360 L 381 360 L 381 341 L 401 341 L 401 321 L 421 321 L 421 301 L 441 301 L 441 281 L 461 281 L 461 261 z M 120 360 L 120 380 L 120 381 L 120 400 L 120 401 L 120 420 L 120 421 L 120 440 L 120 441 L 120 460 L 120 461 L 120 480 L 120 481 L 120 500 L 120 501 L 120 520 L 120 521 L 120 541 L 140 541 L 141 541 L 160 541 L 161 541 L 180 541 L 181 541 L 200 541 L 201 541 L 220 541 L 221 541 L 240 541 L 241 541 L 260 541 L 261 541 L 280 541 L 281 541 L 301 541 L 301 520 L 281 520 L 281 500 L 261 500 L 261 480 L 241 480 L 241 460 L 221 460 L 221 440 L 201 440 L 201 420 L 181 420 L 181 400 L 161 400 L 161 380 L 141 380 L 141 360 L 120 360 z M 141 401 L 160 401 L 160 421 L 180 421 L 180 441 L 200 441 L 200 461 L 220 461 L 220 481 L 240 481 L 240 501 L 260 501 L 260 520 L 241 520 L 240 520 L 221 520 L 220 520 L 201 520 L 200 520 L 181 520 L 180 520 L 161 520 L 160 520 L 141 520 L 141 501 L 141 500 L 141 481 L 141 480 L 141 461 L 141 460 L 141 441 L 141 440 L 141 421 L 141 420 L 141 401 z M 301 441 L 320 441 L 320 460 L 301 460 L 301 441 z "
     id="rect1156" />
</svg>
