<?xml version="1.0" encoding="UTF-8" standalone="no"?>
<svg
   xmlns:dc="http://purl.org/dc/elements/1.1/"
   xmlns:cc="http://creativecommons.org/ns#"
   xmlns:rdf="http://www.w3.org/1999/02/22-rdf-syntax-ns#"
   xmlns:svg="http://www.w3.org/2000/svg"
   xmlns="http://www.w3.org/2000/svg"
   id="svg1676"
   width="960px"
   version="1.1"
   height="960px">
  <metadata
     id="metadata1680">
    <rdf:RDF>
      <cc:Work
         rdf:about="">
        <dc:format>image/svg+xml</dc:format>
        <dc:type
           rdf:resource="http://purl.org/dc/dcmitype/StillImage" />
      </cc:Work>
    </rdf:RDF>
  </metadata>
  <defs
     id="defs2" />
  <path
     style="fill:#ffff00"
     d="M 340 200 L 340 220 L 360 220 L 360 200 L 340 200 z "
     id="rect126" />
  <path
     style="fill:#808000"
     d="M 360 200 L 360 220 L 340 220 L 340 240 L 360 240 L 380 240 L 380 220 L 380 200 L 360 200 z "
     id="rect184" />
  <path
     style="fill:#00ffff"
     d="M 300 240 L 300 260 L 320 260 L 320 240 L 300 240 z "
     id="rect234" />
  <path
     style="fill:#00ff00"
     d="M 340 240 L 340 260 L 360 260 L 360 240 L 340 240 z "
     id="rect238" />
  <path
     style="fill:#0000ff"
     d="M 320 240 L 320 260 L 300 260 L 300 280 L 320 280 L 340 280 L 340 260 L 340 240 L 320 240 z "
     id="rect292" />
  <path
     style="fill:#008000"
     d="M 360 240 L 360 260 L 340 260 L 340 280 L 360 280 L 380 280 L 380 260 L 380 240 L 360 240 z "
     id="rect296" />
  <path
     style="fill:#000080"
     d="M 280 200 L 280 220 L 280 240 L 280 260 L 280 280 L 300 280 L 300 260 L 300 240 L 300 220 L 300 200 L 280 200 z M 380 200 L 380 220 L 380 240 L 380 260 L 380 280 L 400 280 L 420 280 L 440 280 L 460 280 L 480 280 L 500 280 L 520 280 L 540 280 L 560 280 L 580 280 L 580 260 L 580 240 L 580 220 L 600 220 L 620 220 L 640 220 L 660 220 L 680 220 L 700 220 L 720 220 L 740 220 L 760 220 L 760 200 L 740 200 L 720 200 L 700 200 L 680 200 L 660 200 L 640 200 L 620 200 L 600 200 L 580 200 L 560 200 L 540 200 L 520 200 L 500 200 L 480 200 L 460 200 L 440 200 L 420 200 L 400 200 L 380 200 z "
     id="rect316" />
  <path
     style="fill:#808080"
     d="M 240 160 L 240 180 L 240 200 L 240 220 L 240 240 L 240 260 L 240 280 L 240 300 L 240 320 L 240 340 L 240 360 L 260 360 L 260 340 L 260 320 L 260 300 L 260 280 L 260 260 L 260 240 L 260 220 L 260 200 L 260 180 L 280 180 L 300 180 L 320 180 L 340 180 L 360 180 L 380 180 L 400 180 L 420 180 L 440 180 L 460 180 L 480 180 L 500 180 L 520 180 L 540 180 L 560 180 L 580 180 L 600 180 L 620 180 L 640 180 L 660 180 L 680 180 L 700 180 L 720 180 L 740 180 L 760 180 L 780 180 L 800 180 L 800 160 L 780 160 L 760 160 L 740 160 L 720 160 L 700 160 L 680 160 L 660 160 L 640 160 L 620 160 L 600 160 L 580 160 L 560 160 L 540 160 L 520 160 L 500 160 L 480 160 L 460 160 L 440 160 L 420 160 L 400 160 L 380 160 L 360 160 L 340 160 L 320 160 L 300 160 L 280 160 L 260 160 L 240 160 z M 760 200 L 760 220 L 760 240 L 760 260 L 760 280 L 760 300 L 760 320 L 760 340 L 760 360 L 760 380 L 760 400 L 760 420 L 760 440 L 760 460 L 760 480 L 760 500 L 760 520 L 760 540 L 760 560 L 760 580 L 760 600 L 760 620 L 760 640 L 740 640 L 720 640 L 700 640 L 680 640 L 660 640 L 640 640 L 620 640 L 600 640 L 580 640 L 560 640 L 540 640 L 520 640 L 500 640 L 480 640 L 460 640 L 440 640 L 420 640 L 400 640 L 400 660 L 420 660 L 440 660 L 460 660 L 480 660 L 500 660 L 520 660 L 540 660 L 560 660 L 580 660 L 600 660 L 620 660 L 640 660 L 660 660 L 680 660 L 700 660 L 720 660 L 740 660 L 760 660 L 780 660 L 780 640 L 780 620 L 780 600 L 780 580 L 780 560 L 780 540 L 780 520 L 780 500 L 780 480 L 780 460 L 780 440 L 780 420 L 780 400 L 780 380 L 780 360 L 780 340 L 780 320 L 780 300 L 780 280 L 780 260 L 780 240 L 780 220 L 780 200 L 760 200 z M 280 300 L 280 320 L 280 340 L 280 360 L 300 360 L 300 340 L 300 320 L 320 320 L 340 320 L 360 320 L 380 320 L 400 320 L 420 320 L 440 320 L 460 320 L 480 320 L 500 320 L 520 320 L 540 320 L 560 320 L 580 320 L 600 320 L 620 320 L 640 320 L 660 320 L 680 320 L 700 320 L 720 320 L 740 320 L 740 300 L 720 300 L 700 300 L 680 300 L 660 300 L 640 300 L 620 300 L 600 300 L 580 300 L 560 300 L 540 300 L 520 300 L 500 300 L 480 300 L 460 300 L 440 300 L 420 300 L 400 300 L 380 300 L 360 300 L 340 300 L 320 300 L 300 300 L 280 300 z M 180 420 L 180 440 L 180 460 L 180 480 L 180 500 L 180 520 L 200 520 L 200 500 L 200 480 L 200 460 L 200 440 L 200 420 L 180 420 z M 200 520 L 200 540 L 220 540 L 220 520 L 200 520 z M 220 540 L 220 560 L 240 560 L 240 540 L 220 540 z M 240 560 L 240 580 L 240 600 L 260 600 L 260 580 L 260 560 L 240 560 z M 240 600 L 220 600 L 220 620 L 240 620 L 240 600 z M 220 620 L 200 620 L 200 640 L 220 640 L 220 620 z M 200 640 L 180 640 L 180 660 L 180 680 L 180 700 L 180 720 L 180 740 L 200 740 L 200 720 L 200 700 L 200 680 L 200 660 L 200 640 z M 340 420 L 340 440 L 340 460 L 340 480 L 340 500 L 340 520 L 340 540 L 360 540 L 360 520 L 380 520 L 380 500 L 380 480 L 380 460 L 380 440 L 380 420 L 360 420 L 340 420 z M 340 540 L 320 540 L 320 560 L 340 560 L 340 540 z M 320 560 L 300 560 L 300 580 L 300 600 L 320 600 L 320 580 L 320 560 z M 320 600 L 320 620 L 340 620 L 340 600 L 320 600 z M 340 620 L 340 640 L 340 660 L 340 680 L 340 700 L 340 720 L 360 720 L 360 740 L 380 740 L 380 720 L 380 700 L 380 680 L 380 660 L 380 640 L 360 640 L 360 620 L 340 620 z M 240 500 L 240 520 L 260 520 L 260 500 L 240 500 z M 240 700 L 240 720 L 260 720 L 260 700 L 240 700 z M 260 720 L 260 740 L 280 740 L 280 720 L 260 720 z M 240 720 L 220 720 L 220 740 L 240 740 L 240 720 z "
     id="rect1598" />
  <path
     style="fill:#800000"
     d="M 320 200 L 320 220 L 300 220 L 300 240 L 320 240 L 340 240 L 340 220 L 340 200 L 320 200 z M 160 360 L 160 380 L 160 400 L 180 400 L 180 380 L 200 380 L 220 380 L 240 380 L 260 380 L 280 380 L 300 380 L 320 380 L 340 380 L 360 380 L 380 380 L 400 380 L 400 360 L 380 360 L 360 360 L 340 360 L 320 360 L 300 360 L 280 360 L 260 360 L 240 360 L 220 360 L 200 360 L 180 360 L 160 360 z M 160 760 L 160 780 L 180 780 L 180 760 L 160 760 z "
     id="rect1624" />
  <path
     style="fill:#ffffff"
     d="M 300 320 L 300 340 L 300 360 L 320 360 L 340 360 L 360 360 L 380 360 L 400 360 L 420 360 L 420 380 L 420 400 L 400 400 L 400 420 L 400 440 L 400 460 L 400 480 L 400 500 L 400 520 L 380 520 L 380 540 L 360 540 L 360 560 L 340 560 L 340 580 L 340 600 L 360 600 L 360 620 L 380 620 L 400 620 L 420 620 L 440 620 L 460 620 L 480 620 L 500 620 L 520 620 L 540 620 L 560 620 L 580 620 L 600 620 L 620 620 L 640 620 L 660 620 L 680 620 L 700 620 L 720 620 L 740 620 L 740 600 L 740 580 L 740 560 L 740 540 L 740 520 L 740 500 L 740 480 L 740 460 L 740 440 L 740 420 L 740 400 L 740 380 L 740 360 L 740 340 L 740 320 L 720 320 L 700 320 L 680 320 L 660 320 L 640 320 L 620 320 L 600 320 L 580 320 L 560 320 L 540 320 L 520 320 L 500 320 L 480 320 L 460 320 L 440 320 L 420 320 L 400 320 L 380 320 L 360 320 L 340 320 L 320 320 L 300 320 z M 200 380 L 200 400 L 220 400 L 220 380 L 200 380 z M 220 420 L 220 440 L 220 460 L 220 480 L 220 500 L 240 500 L 260 500 L 280 500 L 280 480 L 280 460 L 280 440 L 260 440 L 260 420 L 240 420 L 220 420 z M 240 520 L 240 540 L 260 540 L 260 520 L 240 520 z M 260 540 L 260 560 L 260 580 L 260 600 L 260 620 L 240 620 L 240 640 L 220 640 L 220 660 L 220 680 L 220 700 L 220 720 L 240 720 L 240 700 L 260 700 L 260 680 L 280 680 L 280 660 L 280 640 L 280 620 L 280 600 L 280 580 L 280 560 L 280 540 L 260 540 z M 260 700 L 260 720 L 280 720 L 280 700 L 260 700 z M 260 720 L 240 720 L 240 740 L 260 740 L 260 720 z M 200 760 L 200 780 L 220 780 L 220 760 L 200 760 z "
     id="rect1628" />
  <path
     style="fill:#c0c0c0"
     d="M 260 180 L 260 200 L 260 220 L 260 240 L 260 260 L 260 280 L 260 300 L 260 320 L 260 340 L 260 360 L 280 360 L 280 340 L 280 320 L 280 300 L 300 300 L 320 300 L 340 300 L 360 300 L 380 300 L 400 300 L 420 300 L 440 300 L 460 300 L 480 300 L 500 300 L 520 300 L 540 300 L 560 300 L 580 300 L 600 300 L 620 300 L 640 300 L 660 300 L 680 300 L 700 300 L 720 300 L 740 300 L 740 320 L 740 340 L 740 360 L 740 380 L 740 400 L 740 420 L 740 440 L 740 460 L 740 480 L 740 500 L 740 520 L 740 540 L 740 560 L 740 580 L 740 600 L 740 620 L 720 620 L 700 620 L 680 620 L 660 620 L 640 620 L 620 620 L 600 620 L 580 620 L 560 620 L 540 620 L 520 620 L 500 620 L 480 620 L 460 620 L 440 620 L 420 620 L 400 620 L 380 620 L 380 640 L 400 640 L 420 640 L 440 640 L 460 640 L 480 640 L 500 640 L 520 640 L 540 640 L 560 640 L 580 640 L 600 640 L 620 640 L 640 640 L 660 640 L 680 640 L 700 640 L 720 640 L 740 640 L 760 640 L 760 620 L 760 600 L 760 580 L 760 560 L 760 540 L 760 520 L 760 500 L 760 480 L 760 460 L 760 440 L 760 420 L 760 400 L 760 380 L 760 360 L 760 340 L 760 320 L 760 300 L 760 280 L 740 280 L 720 280 L 700 280 L 680 280 L 660 280 L 640 280 L 620 280 L 600 280 L 580 280 L 560 280 L 540 280 L 520 280 L 500 280 L 480 280 L 460 280 L 440 280 L 420 280 L 400 280 L 380 280 L 360 280 L 340 280 L 320 280 L 300 280 L 280 280 L 280 260 L 280 240 L 280 220 L 280 200 L 300 200 L 320 200 L 340 200 L 360 200 L 380 200 L 400 200 L 420 200 L 440 200 L 460 200 L 480 200 L 500 200 L 520 200 L 540 200 L 560 200 L 580 200 L 600 200 L 620 200 L 640 200 L 660 200 L 680 200 L 700 200 L 720 200 L 740 200 L 760 200 L 780 200 L 780 180 L 760 180 L 740 180 L 720 180 L 700 180 L 680 180 L 660 180 L 640 180 L 620 180 L 600 180 L 580 180 L 560 180 L 540 180 L 520 180 L 500 180 L 480 180 L 460 180 L 440 180 L 420 180 L 400 180 L 380 180 L 360 180 L 340 180 L 320 180 L 300 180 L 280 180 L 260 180 z M 580 220 L 580 240 L 580 260 L 600 260 L 620 260 L 620 240 L 620 220 L 600 220 L 580 220 z M 640 220 L 640 240 L 640 260 L 660 260 L 680 260 L 680 240 L 680 220 L 660 220 L 640 220 z M 700 220 L 700 240 L 700 260 L 720 260 L 740 260 L 740 240 L 740 220 L 720 220 L 700 220 z M 220 380 L 220 400 L 240 400 L 260 400 L 280 400 L 280 380 L 260 380 L 240 380 L 220 380 z M 200 420 L 200 440 L 200 460 L 200 480 L 200 500 L 200 520 L 220 520 L 220 540 L 240 540 L 240 520 L 240 500 L 220 500 L 220 480 L 220 460 L 220 440 L 220 420 L 200 420 z M 240 540 L 240 560 L 260 560 L 260 540 L 240 540 z M 260 420 L 260 440 L 280 440 L 280 460 L 280 480 L 280 500 L 300 500 L 300 520 L 320 520 L 320 500 L 340 500 L 340 480 L 340 460 L 340 440 L 340 420 L 320 420 L 300 420 L 280 420 L 260 420 z M 320 520 L 320 540 L 340 540 L 340 520 L 320 520 z M 320 540 L 300 540 L 300 560 L 320 560 L 320 540 z M 300 560 L 280 560 L 280 580 L 280 600 L 280 620 L 300 620 L 300 640 L 280 640 L 280 660 L 300 660 L 300 680 L 320 680 L 320 700 L 340 700 L 340 680 L 340 660 L 340 640 L 340 620 L 320 620 L 320 600 L 300 600 L 300 580 L 300 560 z M 320 700 L 300 700 L 300 720 L 320 720 L 320 700 z M 320 720 L 320 740 L 340 740 L 340 720 L 320 720 z M 300 720 L 280 720 L 280 740 L 300 740 L 300 720 z M 300 700 L 300 680 L 280 680 L 280 700 L 300 700 z M 300 540 L 300 520 L 280 520 L 280 540 L 300 540 z M 280 520 L 280 500 L 260 500 L 260 520 L 280 520 z M 240 600 L 240 620 L 260 620 L 260 600 L 240 600 z M 240 620 L 220 620 L 220 640 L 240 640 L 240 620 z M 220 640 L 200 640 L 200 660 L 200 680 L 200 700 L 200 720 L 200 740 L 220 740 L 220 720 L 220 700 L 220 680 L 220 660 L 220 640 z M 220 760 L 220 780 L 240 780 L 260 780 L 280 780 L 280 760 L 260 760 L 240 760 L 220 760 z "
     id="rect1634" />
  <path
     style="fill:#ff0000"
     d="M 300 200 L 300 220 L 320 220 L 320 200 L 300 200 z M 180 380 L 180 400 L 200 400 L 200 380 L 180 380 z M 280 380 L 280 400 L 300 400 L 320 400 L 340 400 L 360 400 L 380 400 L 400 400 L 400 380 L 380 380 L 360 380 L 340 380 L 320 380 L 300 380 L 280 380 z M 180 760 L 180 780 L 200 780 L 200 760 L 180 760 z M 280 760 L 280 780 L 300 780 L 320 780 L 340 780 L 360 780 L 380 780 L 400 780 L 400 760 L 380 760 L 360 760 L 340 760 L 320 760 L 300 760 L 280 760 z "
     id="rect1646" />
  <path
     style="fill:#000000"
     d="M 780 180 L 780 200 L 780 220 L 780 240 L 780 260 L 780 280 L 780 300 L 780 320 L 780 340 L 780 360 L 780 380 L 780 400 L 780 420 L 780 440 L 780 460 L 780 480 L 780 500 L 780 520 L 780 540 L 780 560 L 780 580 L 780 600 L 780 620 L 780 640 L 780 660 L 760 660 L 740 660 L 720 660 L 700 660 L 680 660 L 660 660 L 640 660 L 620 660 L 600 660 L 580 660 L 560 660 L 540 660 L 520 660 L 500 660 L 480 660 L 460 660 L 440 660 L 420 660 L 400 660 L 400 640 L 380 640 L 380 660 L 380 680 L 380 700 L 380 720 L 380 740 L 360 740 L 360 720 L 340 720 L 340 740 L 320 740 L 320 720 L 300 720 L 300 740 L 280 740 L 260 740 L 240 740 L 220 740 L 200 740 L 180 740 L 180 760 L 200 760 L 220 760 L 240 760 L 260 760 L 280 760 L 300 760 L 320 760 L 340 760 L 360 760 L 380 760 L 400 760 L 400 740 L 400 720 L 400 700 L 400 680 L 420 680 L 440 680 L 460 680 L 480 680 L 500 680 L 520 680 L 540 680 L 560 680 L 580 680 L 600 680 L 620 680 L 640 680 L 660 680 L 680 680 L 700 680 L 720 680 L 740 680 L 760 680 L 780 680 L 800 680 L 800 660 L 800 640 L 800 620 L 800 600 L 800 580 L 800 560 L 800 540 L 800 520 L 800 500 L 800 480 L 800 460 L 800 440 L 800 420 L 800 400 L 800 380 L 800 360 L 800 340 L 800 320 L 800 300 L 800 280 L 800 260 L 800 240 L 800 220 L 800 200 L 800 180 L 780 180 z M 400 760 L 400 780 L 380 780 L 360 780 L 340 780 L 320 780 L 300 780 L 280 780 L 260 780 L 240 780 L 220 780 L 200 780 L 180 780 L 160 780 L 160 800 L 180 800 L 200 800 L 220 800 L 240 800 L 260 800 L 280 800 L 300 800 L 320 800 L 340 800 L 360 800 L 380 800 L 400 800 L 420 800 L 420 780 L 420 760 L 400 760 z M 300 720 L 300 700 L 280 700 L 280 720 L 300 720 z M 280 700 L 280 680 L 260 680 L 260 700 L 280 700 z M 280 680 L 300 680 L 300 660 L 280 660 L 280 680 z M 300 680 L 300 700 L 320 700 L 320 680 L 300 680 z M 320 700 L 320 720 L 340 720 L 340 700 L 320 700 z M 380 640 L 380 620 L 360 620 L 360 640 L 380 640 z M 360 620 L 360 600 L 340 600 L 340 620 L 360 620 z M 340 600 L 340 580 L 340 560 L 320 560 L 320 580 L 320 600 L 340 600 z M 340 560 L 360 560 L 360 540 L 340 540 L 340 560 z M 360 540 L 380 540 L 380 520 L 360 520 L 360 540 z M 380 520 L 400 520 L 400 500 L 400 480 L 400 460 L 400 440 L 400 420 L 400 400 L 380 400 L 360 400 L 340 400 L 320 400 L 300 400 L 280 400 L 260 400 L 240 400 L 220 400 L 200 400 L 180 400 L 180 420 L 200 420 L 220 420 L 240 420 L 260 420 L 280 420 L 300 420 L 320 420 L 340 420 L 360 420 L 380 420 L 380 440 L 380 460 L 380 480 L 380 500 L 380 520 z M 400 400 L 420 400 L 420 380 L 420 360 L 400 360 L 400 380 L 400 400 z M 620 220 L 620 240 L 620 260 L 600 260 L 580 260 L 580 280 L 600 280 L 620 280 L 640 280 L 660 280 L 680 280 L 700 280 L 720 280 L 740 280 L 760 280 L 760 260 L 760 240 L 760 220 L 740 220 L 740 240 L 740 260 L 720 260 L 700 260 L 700 240 L 700 220 L 680 220 L 680 240 L 680 260 L 660 260 L 640 260 L 640 240 L 640 220 L 620 220 z M 280 500 L 280 520 L 300 520 L 300 500 L 280 500 z M 300 520 L 300 540 L 320 540 L 320 520 L 300 520 z M 320 520 L 340 520 L 340 500 L 320 500 L 320 520 z M 300 540 L 280 540 L 280 560 L 300 560 L 300 540 z M 280 540 L 280 520 L 260 520 L 260 540 L 280 540 z M 280 620 L 280 640 L 300 640 L 300 620 L 280 620 z "
     id="rect1674" />
</svg>
