<?xml version="1.0" encoding="UTF-8" standalone="no"?>
<svg
   xmlns:dc="http://purl.org/dc/elements/1.1/"
   xmlns:cc="http://creativecommons.org/ns#"
   xmlns:rdf="http://www.w3.org/1999/02/22-rdf-syntax-ns#"
   xmlns:svg="http://www.w3.org/2000/svg"
   xmlns="http://www.w3.org/2000/svg"
   id="svg1056"
   width="960px"
   version="1.1"
   height="960px">
  <metadata
     id="metadata1060">
    <rdf:RDF>
      <cc:Work
         rdf:about="">
        <dc:format>image/svg+xml</dc:format>
        <dc:type
           rdf:resource="http://purl.org/dc/dcmitype/StillImage" />
      </cc:Work>
    </rdf:RDF>
  </metadata>
  <defs
     id="defs2" />
  <path
     style="fill:#800000"
     d="M 520 120 L 520 140 L 520 160 L 500 160 L 500 180 L 480 180 L 480 200 L 500 200 L 520 200 L 540 200 L 540 220 L 560 220 L 580 220 L 580 240 L 600 240 L 600 220 L 600 200 L 620 200 L 620 180 L 640 180 L 640 160 L 640 140 L 620 140 L 600 140 L 600 120 L 580 120 L 560 120 L 540 120 L 520 120 z "
     id="rect118" />
  <path
     style="fill:#ffffff"
     d="M 440 260 L 440 280 L 460 280 L 460 260 L 440 260 z M 420 300 L 420 320 L 440 320 L 440 300 L 420 300 z M 420 320 L 400 320 L 400 340 L 420 340 L 420 320 z M 380 360 L 380 380 L 400 380 L 400 360 L 380 360 z M 380 380 L 360 380 L 360 400 L 380 400 L 380 380 z M 340 420 L 340 440 L 360 440 L 360 420 L 340 420 z M 340 440 L 320 440 L 320 460 L 340 460 L 340 440 z M 300 480 L 300 500 L 320 500 L 320 480 L 300 480 z M 300 500 L 280 500 L 280 520 L 300 520 L 300 500 z M 260 540 L 260 560 L 280 560 L 280 540 L 260 540 z M 260 560 L 240 560 L 240 580 L 260 580 L 260 560 z "
     id="rect720" />
  <path
     style="fill:#ffff00"
     d="M 480 240 L 480 260 L 460 260 L 460 280 L 440 280 L 440 300 L 440 320 L 420 320 L 420 340 L 400 340 L 400 360 L 400 380 L 380 380 L 380 400 L 360 400 L 360 420 L 360 440 L 340 440 L 340 460 L 320 460 L 320 480 L 320 500 L 300 500 L 300 520 L 280 520 L 280 540 L 280 560 L 260 560 L 260 580 L 240 580 L 240 600 L 260 600 L 280 600 L 280 620 L 300 620 L 320 620 L 320 600 L 340 600 L 340 580 L 340 560 L 360 560 L 360 540 L 380 540 L 380 520 L 380 500 L 400 500 L 400 480 L 420 480 L 420 460 L 420 440 L 440 440 L 440 420 L 460 420 L 460 400 L 460 380 L 480 380 L 480 360 L 500 360 L 500 340 L 500 320 L 520 320 L 520 300 L 540 300 L 540 280 L 540 260 L 520 260 L 520 240 L 500 240 L 480 240 z "
     id="rect804" />
  <path
     style="fill:#808000"
     d="M 540 260 L 540 280 L 540 300 L 520 300 L 520 320 L 500 320 L 500 340 L 500 360 L 480 360 L 480 380 L 460 380 L 460 400 L 460 420 L 440 420 L 440 440 L 420 440 L 420 460 L 420 480 L 400 480 L 400 500 L 380 500 L 380 520 L 380 540 L 360 540 L 360 560 L 340 560 L 340 580 L 340 600 L 320 600 L 320 620 L 320 640 L 340 640 L 340 620 L 360 620 L 360 600 L 360 580 L 380 580 L 380 560 L 400 560 L 400 540 L 400 520 L 420 520 L 420 500 L 440 500 L 440 480 L 440 460 L 460 460 L 460 440 L 480 440 L 480 420 L 480 400 L 500 400 L 500 380 L 520 380 L 520 360 L 520 340 L 540 340 L 540 320 L 560 320 L 560 300 L 560 280 L 560 260 L 540 260 z "
     id="rect842" />
  <path
     style="fill:#c0c0c0"
     d="M 460 240 L 460 260 L 480 260 L 480 240 L 460 240 z M 220 580 L 220 600 L 220 620 L 220 640 L 220 660 L 220 680 L 240 680 L 240 700 L 260 700 L 260 680 L 280 680 L 300 680 L 300 660 L 320 660 L 320 640 L 320 620 L 300 620 L 280 620 L 280 600 L 260 600 L 240 600 L 240 580 L 220 580 z "
     id="rect920" />
  <path
     style="fill:#000000"
     d="M 520 100 L 520 120 L 540 120 L 560 120 L 580 120 L 600 120 L 600 100 L 580 100 L 560 100 L 540 100 L 520 100 z M 600 120 L 600 140 L 620 140 L 640 140 L 640 120 L 620 120 L 600 120 z M 640 140 L 640 160 L 640 180 L 620 180 L 620 200 L 600 200 L 600 220 L 600 240 L 580 240 L 580 220 L 560 220 L 540 220 L 540 200 L 520 200 L 500 200 L 480 200 L 480 180 L 460 180 L 460 200 L 460 220 L 440 220 L 440 240 L 460 240 L 480 240 L 500 240 L 520 240 L 520 260 L 540 260 L 560 260 L 560 280 L 560 300 L 580 300 L 580 320 L 580 340 L 600 340 L 600 320 L 600 300 L 620 300 L 620 280 L 640 280 L 640 260 L 640 240 L 660 240 L 660 220 L 680 220 L 680 200 L 680 180 L 660 180 L 660 160 L 660 140 L 640 140 z M 580 340 L 560 340 L 560 360 L 580 360 L 580 340 z M 560 360 L 540 360 L 540 380 L 540 400 L 560 400 L 560 380 L 560 360 z M 540 400 L 520 400 L 520 420 L 540 420 L 540 400 z M 520 420 L 500 420 L 500 440 L 500 460 L 520 460 L 520 440 L 520 420 z M 500 460 L 480 460 L 480 480 L 500 480 L 500 460 z M 480 480 L 460 480 L 460 500 L 460 520 L 480 520 L 480 500 L 480 480 z M 460 520 L 440 520 L 440 540 L 460 540 L 460 520 z M 440 540 L 420 540 L 420 560 L 420 580 L 440 580 L 440 560 L 440 540 z M 420 580 L 400 580 L 400 600 L 420 600 L 420 580 z M 400 600 L 380 600 L 380 620 L 380 640 L 400 640 L 400 620 L 400 600 z M 380 640 L 360 640 L 360 660 L 380 660 L 380 640 z M 360 660 L 340 660 L 340 680 L 360 680 L 360 660 z M 340 680 L 320 680 L 300 680 L 300 700 L 320 700 L 340 700 L 340 680 z M 300 700 L 280 700 L 260 700 L 240 700 L 240 680 L 220 680 L 220 660 L 220 640 L 220 620 L 220 600 L 220 580 L 200 580 L 200 600 L 200 620 L 200 640 L 200 660 L 200 680 L 200 700 L 200 720 L 200 740 L 220 740 L 240 740 L 240 720 L 260 720 L 280 720 L 300 720 L 300 700 z M 220 580 L 240 580 L 240 560 L 240 540 L 220 540 L 220 560 L 220 580 z M 240 540 L 260 540 L 260 520 L 240 520 L 240 540 z M 260 520 L 280 520 L 280 500 L 280 480 L 260 480 L 260 500 L 260 520 z M 280 480 L 300 480 L 300 460 L 280 460 L 280 480 z M 300 460 L 320 460 L 320 440 L 320 420 L 300 420 L 300 440 L 300 460 z M 320 420 L 340 420 L 340 400 L 320 400 L 320 420 z M 340 400 L 360 400 L 360 380 L 360 360 L 340 360 L 340 380 L 340 400 z M 360 360 L 380 360 L 380 340 L 360 340 L 360 360 z M 380 340 L 400 340 L 400 320 L 400 300 L 380 300 L 380 320 L 380 340 z M 400 300 L 420 300 L 420 280 L 400 280 L 400 300 z M 420 280 L 440 280 L 440 260 L 440 240 L 420 240 L 420 260 L 420 280 z M 480 180 L 500 180 L 500 160 L 480 160 L 480 180 z M 500 160 L 520 160 L 520 140 L 520 120 L 500 120 L 500 140 L 500 160 z M 780 260 L 780 280 L 780 300 L 780 320 L 780 340 L 780 360 L 780 380 L 780 400 L 780 420 L 780 440 L 780 460 L 780 480 L 780 500 L 780 520 L 780 540 L 780 560 L 780 580 L 780 600 L 780 620 L 800 620 L 820 620 L 840 620 L 860 620 L 880 620 L 900 620 L 920 620 L 940 620 L 940 600 L 940 580 L 940 560 L 940 540 L 940 520 L 940 500 L 940 480 L 940 460 L 940 440 L 940 420 L 940 400 L 940 380 L 940 360 L 940 340 L 940 320 L 940 300 L 940 280 L 940 260 L 920 260 L 900 260 L 880 260 L 860 260 L 840 260 L 820 260 L 800 260 L 780 260 z M 780 640 L 780 660 L 780 680 L 780 700 L 780 720 L 780 740 L 780 760 L 800 760 L 820 760 L 840 760 L 860 760 L 880 760 L 900 760 L 920 760 L 940 760 L 940 740 L 940 720 L 940 700 L 940 680 L 940 660 L 940 640 L 920 640 L 900 640 L 880 640 L 860 640 L 840 640 L 820 640 L 800 640 L 780 640 z "
     id="rect1014" />
  <path
     style="fill:#808080"
     d="M 440 240 L 440 260 L 460 260 L 460 240 L 440 240 z M 420 280 L 420 300 L 440 300 L 440 280 L 420 280 z M 420 300 L 400 300 L 400 320 L 420 320 L 420 300 z M 560 300 L 560 320 L 540 320 L 540 340 L 520 340 L 520 360 L 520 380 L 500 380 L 500 400 L 480 400 L 480 420 L 480 440 L 460 440 L 460 460 L 440 460 L 440 480 L 440 500 L 420 500 L 420 520 L 400 520 L 400 540 L 400 560 L 380 560 L 380 580 L 360 580 L 360 600 L 360 620 L 340 620 L 340 640 L 320 640 L 320 660 L 300 660 L 300 680 L 320 680 L 340 680 L 340 660 L 360 660 L 360 640 L 380 640 L 380 620 L 380 600 L 400 600 L 400 580 L 420 580 L 420 560 L 420 540 L 440 540 L 440 520 L 460 520 L 460 500 L 460 480 L 480 480 L 480 460 L 500 460 L 500 440 L 500 420 L 520 420 L 520 400 L 540 400 L 540 380 L 540 360 L 560 360 L 560 340 L 580 340 L 580 320 L 580 300 L 560 300 z M 300 680 L 280 680 L 260 680 L 260 700 L 280 700 L 300 700 L 300 680 z M 380 340 L 380 360 L 400 360 L 400 340 L 380 340 z M 380 360 L 360 360 L 360 380 L 380 380 L 380 360 z M 340 400 L 340 420 L 360 420 L 360 400 L 340 400 z M 340 420 L 320 420 L 320 440 L 340 440 L 340 420 z M 300 460 L 300 480 L 320 480 L 320 460 L 300 460 z M 300 480 L 280 480 L 280 500 L 300 500 L 300 480 z M 260 520 L 260 540 L 280 540 L 280 520 L 260 520 z M 260 540 L 240 540 L 240 560 L 260 560 L 260 540 z M 40 740 L 40 760 L 40 780 L 60 780 L 80 780 L 80 760 L 80 740 L 60 740 L 40 740 z M 140 740 L 140 760 L 140 780 L 160 780 L 180 780 L 180 760 L 180 740 L 160 740 L 140 740 z M 80 800 L 80 820 L 80 840 L 100 840 L 120 840 L 120 820 L 120 800 L 100 800 L 80 800 z M 160 800 L 160 820 L 160 840 L 180 840 L 200 840 L 200 820 L 200 800 L 180 800 L 160 800 z M 40 860 L 40 880 L 40 900 L 60 900 L 80 900 L 80 880 L 80 860 L 60 860 L 40 860 z M 140 860 L 140 880 L 140 900 L 160 900 L 180 900 L 180 880 L 180 860 L 160 860 L 140 860 z "
     id="rect1054" />
</svg>
