<?xml version="1.0" encoding="UTF-8" standalone="no"?>
<svg
   xmlns:dc="http://purl.org/dc/elements/1.1/"
   xmlns:cc="http://creativecommons.org/ns#"
   xmlns:rdf="http://www.w3.org/1999/02/22-rdf-syntax-ns#"
   xmlns:svg="http://www.w3.org/2000/svg"
   xmlns="http://www.w3.org/2000/svg"
   id="svg3368"
   width="960px"
   version="1.1"
   height="960px">
  <metadata
     id="metadata3372">
    <rdf:RDF>
      <cc:Work
         rdf:about="">
        <dc:format>image/svg+xml</dc:format>
        <dc:type
           rdf:resource="http://purl.org/dc/dcmitype/StillImage" />
      </cc:Work>
    </rdf:RDF>
  </metadata>
  <defs
     id="defs2" />
  <path
     style="fill:#404040"
     d="M 920 120 L 920 140 L 940 140 L 940 120 L 920 120 z "
     id="rect246" />
  <path
     style="fill:#bfbfbf"
     d="M 460 560 L 460 580 L 480 580 L 480 560 L 460 560 z "
     id="rect1934" />
  <path
     style="fill:#ffff40"
     d="M 560 540 L 560 560 L 580 560 L 580 540 L 560 540 z M 580 560 L 580 580 L 600 580 L 600 560 L 580 560 z M 600 560 L 620 560 L 620 540 L 600 540 L 600 560 z M 620 560 L 620 580 L 640 580 L 640 560 L 620 560 z M 640 560 L 660 560 L 660 540 L 640 540 L 640 560 z M 660 560 L 660 580 L 680 580 L 680 560 L 660 560 z M 680 560 L 700 560 L 700 540 L 680 540 L 680 560 z M 700 560 L 700 580 L 720 580 L 720 560 L 700 560 z M 720 560 L 740 560 L 740 540 L 720 540 L 720 560 z M 740 560 L 740 580 L 760 580 L 760 560 L 740 560 z M 760 560 L 780 560 L 780 540 L 760 540 L 760 560 z M 780 560 L 780 580 L 800 580 L 800 560 L 780 560 z M 800 560 L 820 560 L 820 540 L 800 540 L 800 560 z M 560 560 L 540 560 L 540 580 L 560 580 L 560 560 z M 540 580 L 520 580 L 520 600 L 540 600 L 540 580 z "
     id="rect2020" />
  <path
     style="fill:#d0d090"
     d="M 440 600 L 440 620 L 460 620 L 460 600 L 440 600 z "
     id="rect2086" />
  <path
     style="fill:#b0b0b0"
     d="M 920 160 L 920 180 L 940 180 L 940 160 L 920 160 z M 320 640 L 320 660 L 340 660 L 340 640 L 320 640 z "
     id="rect2220" />
  <path
     style="fill:#e0e0e0"
     d="M 320 720 L 320 740 L 340 740 L 340 720 L 320 720 z "
     id="rect2500" />
  <path
     style="fill:#f0f030"
     d="M 440 620 L 440 640 L 460 640 L 460 620 L 440 620 z M 400 740 L 400 760 L 420 760 L 420 740 L 400 740 z M 440 740 L 440 760 L 460 760 L 460 740 L 440 740 z "
     id="rect2580" />
  <path
     style="fill:#ff0000"
     d="M 640 240 L 640 260 L 640 280 L 640 300 L 620 300 L 600 300 L 580 300 L 580 320 L 580 340 L 580 360 L 600 360 L 620 360 L 640 360 L 640 380 L 640 400 L 640 420 L 660 420 L 680 420 L 700 420 L 700 400 L 700 380 L 700 360 L 720 360 L 740 360 L 760 360 L 760 340 L 760 320 L 760 300 L 740 300 L 720 300 L 700 300 L 700 280 L 700 260 L 700 240 L 680 240 L 660 240 L 640 240 z M 540 780 L 540 800 L 540 820 L 560 820 L 580 820 L 600 820 L 620 820 L 640 820 L 660 820 L 680 820 L 700 820 L 720 820 L 740 820 L 760 820 L 760 800 L 760 780 L 740 780 L 720 780 L 700 780 L 680 780 L 660 780 L 640 780 L 620 780 L 600 780 L 580 780 L 560 780 L 540 780 z "
     id="rect2818" />
  <path
     style="fill:#ffffff"
     d="M 600 40 L 600 60 L 600 80 L 600 100 L 600 120 L 620 120 L 620 100 L 640 100 L 640 80 L 640 60 L 660 60 L 680 60 L 680 40 L 660 40 L 640 40 L 620 40 L 600 40 z M 400 120 L 400 140 L 420 140 L 420 160 L 440 160 L 460 160 L 460 140 L 440 140 L 440 120 L 420 120 L 400 120 z M 880 140 L 880 160 L 860 160 L 840 160 L 840 180 L 820 180 L 800 180 L 780 180 L 760 180 L 740 180 L 720 180 L 700 180 L 680 180 L 660 180 L 640 180 L 620 180 L 600 180 L 580 180 L 560 180 L 540 180 L 520 180 L 520 200 L 540 200 L 540 220 L 560 220 L 580 220 L 600 220 L 620 220 L 640 220 L 660 220 L 680 220 L 700 220 L 720 220 L 740 220 L 760 220 L 780 220 L 800 220 L 820 220 L 820 200 L 840 200 L 860 200 L 860 180 L 880 180 L 900 180 L 900 160 L 920 160 L 940 160 L 940 140 L 920 140 L 900 140 L 880 140 z M 520 180 L 520 160 L 500 160 L 500 180 L 520 180 z M 440 300 L 440 320 L 440 340 L 460 340 L 460 320 L 480 320 L 480 300 L 460 300 L 440 300 z M 440 340 L 420 340 L 420 360 L 440 360 L 440 340 z M 420 360 L 400 360 L 380 360 L 360 360 L 340 360 L 320 360 L 300 360 L 280 360 L 260 360 L 240 360 L 220 360 L 200 360 L 180 360 L 160 360 L 140 360 L 120 360 L 120 380 L 140 380 L 140 400 L 160 400 L 180 400 L 200 400 L 220 400 L 240 400 L 260 400 L 280 400 L 300 400 L 320 400 L 340 400 L 360 400 L 380 400 L 400 400 L 400 380 L 420 380 L 420 360 z M 160 420 L 160 440 L 160 460 L 160 480 L 160 500 L 160 520 L 160 540 L 180 540 L 180 560 L 200 560 L 200 540 L 200 520 L 180 520 L 180 500 L 180 480 L 180 460 L 180 440 L 180 420 L 160 420 z M 200 560 L 200 580 L 220 580 L 220 560 L 200 560 z M 220 580 L 220 600 L 240 600 L 240 580 L 220 580 z M 220 420 L 220 440 L 220 460 L 240 460 L 260 460 L 280 460 L 300 460 L 320 460 L 340 460 L 360 460 L 360 440 L 360 420 L 340 420 L 320 420 L 300 420 L 280 420 L 260 420 L 240 420 L 220 420 z M 220 480 L 220 500 L 220 520 L 240 520 L 260 520 L 280 520 L 300 520 L 320 520 L 340 520 L 360 520 L 360 500 L 360 480 L 340 480 L 320 480 L 300 480 L 280 480 L 260 480 L 240 480 L 220 480 z M 500 540 L 500 560 L 520 560 L 520 540 L 500 540 z M 500 560 L 480 560 L 480 580 L 500 580 L 500 560 z M 500 580 L 500 600 L 520 600 L 520 580 L 500 580 z M 500 600 L 480 600 L 480 620 L 500 620 L 500 600 z M 500 620 L 500 640 L 520 640 L 520 620 L 500 620 z M 500 640 L 480 640 L 480 660 L 500 660 L 500 640 z M 500 660 L 500 680 L 520 680 L 520 660 L 500 660 z M 500 680 L 480 680 L 480 700 L 500 700 L 500 680 z M 500 700 L 500 720 L 520 720 L 520 700 L 500 700 z M 500 720 L 480 720 L 480 740 L 500 740 L 500 720 z M 500 740 L 500 760 L 520 760 L 520 740 L 500 740 z M 500 760 L 480 760 L 480 780 L 500 780 L 500 760 z M 500 780 L 500 800 L 520 800 L 520 780 L 500 780 z M 500 800 L 480 800 L 480 820 L 500 820 L 500 800 z M 500 820 L 500 840 L 520 840 L 520 820 L 500 820 z M 500 840 L 480 840 L 480 860 L 500 860 L 500 840 z M 500 860 L 500 880 L 520 880 L 520 860 L 500 860 z M 500 880 L 480 880 L 480 900 L 500 900 L 500 880 z M 480 880 L 480 860 L 460 860 L 440 860 L 440 880 L 460 880 L 480 880 z M 480 840 L 480 820 L 460 820 L 460 840 L 480 840 z M 480 800 L 480 780 L 460 780 L 460 800 L 480 800 z M 480 760 L 480 740 L 460 740 L 460 760 L 480 760 z M 480 720 L 480 700 L 460 700 L 460 720 L 480 720 z M 480 680 L 480 660 L 460 660 L 460 680 L 480 680 z M 480 640 L 480 620 L 460 620 L 460 640 L 480 640 z M 480 600 L 480 580 L 460 580 L 460 600 L 480 600 z M 160 580 L 160 600 L 180 600 L 180 580 L 160 580 z M 300 720 L 300 740 L 300 760 L 300 780 L 300 800 L 280 800 L 280 820 L 260 820 L 260 840 L 240 840 L 240 860 L 220 860 L 220 880 L 200 880 L 180 880 L 160 880 L 140 880 L 120 880 L 120 860 L 100 860 L 100 840 L 80 840 L 60 840 L 40 840 L 40 860 L 40 880 L 60 880 L 80 880 L 100 880 L 100 900 L 120 900 L 140 900 L 160 900 L 180 900 L 200 900 L 220 900 L 240 900 L 240 880 L 260 880 L 260 860 L 280 860 L 280 840 L 300 840 L 300 820 L 320 820 L 320 800 L 320 780 L 340 780 L 340 760 L 340 740 L 320 740 L 320 720 L 300 720 z "
     id="rect3136" />
  <path
     style="fill:#e0e000"
     d="M 500 900 L 500 920 L 520 920 L 520 900 L 500 900 z "
     id="rect3214" />
  <path
     style="fill:#c0c0c0"
     d="M 680 40 L 680 60 L 660 60 L 640 60 L 640 80 L 640 100 L 620 100 L 620 120 L 640 120 L 660 120 L 660 100 L 680 100 L 700 100 L 700 80 L 720 80 L 720 60 L 720 40 L 700 40 L 680 40 z M 480 100 L 480 120 L 500 120 L 500 140 L 520 140 L 540 140 L 540 160 L 560 160 L 580 160 L 600 160 L 600 180 L 620 180 L 640 180 L 660 180 L 680 180 L 700 180 L 720 180 L 740 180 L 760 180 L 780 180 L 800 180 L 820 180 L 840 180 L 840 160 L 820 160 L 800 160 L 780 160 L 760 160 L 740 160 L 720 160 L 700 160 L 680 160 L 660 160 L 640 160 L 620 160 L 620 140 L 600 140 L 600 120 L 580 120 L 580 100 L 560 100 L 540 100 L 520 100 L 500 100 L 480 100 z M 400 140 L 400 160 L 400 180 L 400 200 L 400 220 L 400 240 L 400 260 L 400 280 L 420 280 L 440 280 L 460 280 L 480 280 L 500 280 L 520 280 L 520 300 L 540 300 L 540 320 L 540 340 L 540 360 L 520 360 L 520 380 L 500 380 L 500 400 L 500 420 L 500 440 L 500 460 L 500 480 L 500 500 L 500 520 L 480 520 L 480 540 L 500 540 L 520 540 L 540 540 L 540 560 L 560 560 L 560 540 L 580 540 L 580 560 L 600 560 L 600 540 L 620 540 L 620 560 L 640 560 L 640 540 L 660 540 L 660 560 L 680 560 L 680 540 L 700 540 L 700 560 L 720 560 L 720 540 L 740 540 L 740 560 L 760 560 L 760 540 L 780 540 L 780 560 L 800 560 L 800 540 L 820 540 L 820 560 L 840 560 L 840 540 L 860 540 L 860 520 L 840 520 L 840 500 L 860 500 L 860 480 L 840 480 L 840 460 L 860 460 L 860 440 L 840 440 L 840 420 L 860 420 L 860 400 L 840 400 L 840 380 L 860 380 L 860 360 L 840 360 L 840 340 L 860 340 L 860 320 L 840 320 L 840 300 L 860 300 L 860 280 L 840 280 L 840 260 L 860 260 L 860 240 L 840 240 L 840 220 L 860 220 L 860 200 L 840 200 L 820 200 L 820 220 L 800 220 L 780 220 L 760 220 L 740 220 L 720 220 L 700 220 L 680 220 L 660 220 L 640 220 L 620 220 L 600 220 L 580 220 L 560 220 L 540 220 L 540 200 L 520 200 L 520 180 L 500 180 L 500 160 L 480 160 L 460 160 L 440 160 L 420 160 L 420 140 L 400 140 z M 860 200 L 880 200 L 880 180 L 860 180 L 860 200 z M 880 200 L 880 220 L 900 220 L 900 200 L 880 200 z M 900 200 L 920 200 L 920 180 L 920 160 L 900 160 L 900 180 L 900 200 z M 920 200 L 920 220 L 940 220 L 940 200 L 920 200 z M 920 220 L 900 220 L 900 240 L 920 240 L 920 220 z M 920 240 L 920 260 L 940 260 L 940 240 L 920 240 z M 920 260 L 900 260 L 900 280 L 920 280 L 920 260 z M 920 280 L 920 300 L 940 300 L 940 280 L 920 280 z M 920 300 L 900 300 L 900 320 L 920 320 L 920 300 z M 920 320 L 920 340 L 940 340 L 940 320 L 920 320 z M 920 340 L 900 340 L 900 360 L 920 360 L 920 340 z M 920 360 L 920 380 L 940 380 L 940 360 L 920 360 z M 920 380 L 900 380 L 900 400 L 920 400 L 920 380 z M 920 400 L 920 420 L 940 420 L 940 400 L 920 400 z M 920 420 L 900 420 L 900 440 L 920 440 L 920 420 z M 920 440 L 920 460 L 940 460 L 940 440 L 920 440 z M 920 460 L 900 460 L 900 480 L 920 480 L 920 460 z M 900 480 L 880 480 L 880 500 L 900 500 L 900 480 z M 880 500 L 860 500 L 860 520 L 880 520 L 880 500 z M 880 480 L 880 460 L 860 460 L 860 480 L 880 480 z M 880 460 L 900 460 L 900 440 L 880 440 L 880 460 z M 880 440 L 880 420 L 860 420 L 860 440 L 880 440 z M 880 420 L 900 420 L 900 400 L 880 400 L 880 420 z M 880 400 L 880 380 L 860 380 L 860 400 L 880 400 z M 880 380 L 900 380 L 900 360 L 880 360 L 880 380 z M 880 360 L 880 340 L 860 340 L 860 360 L 880 360 z M 880 340 L 900 340 L 900 320 L 880 320 L 880 340 z M 880 320 L 880 300 L 860 300 L 860 320 L 880 320 z M 880 300 L 900 300 L 900 280 L 880 280 L 880 300 z M 880 280 L 880 260 L 860 260 L 860 280 L 880 280 z M 880 260 L 900 260 L 900 240 L 880 240 L 880 260 z M 880 240 L 880 220 L 860 220 L 860 240 L 880 240 z M 820 560 L 800 560 L 800 580 L 820 580 L 820 560 z M 820 580 L 820 600 L 840 600 L 840 580 L 820 580 z M 820 600 L 800 600 L 800 620 L 820 620 L 820 600 z M 820 620 L 820 640 L 840 640 L 840 620 L 820 620 z M 820 640 L 800 640 L 800 660 L 820 660 L 820 640 z M 820 660 L 820 680 L 840 680 L 840 660 L 820 660 z M 820 680 L 800 680 L 800 700 L 820 700 L 820 680 z M 820 700 L 820 720 L 840 720 L 840 700 L 820 700 z M 820 720 L 800 720 L 800 740 L 820 740 L 820 720 z M 820 740 L 820 760 L 840 760 L 840 740 L 820 740 z M 820 760 L 800 760 L 800 780 L 820 780 L 820 760 z M 820 780 L 820 800 L 840 800 L 840 780 L 820 780 z M 800 760 L 800 740 L 780 740 L 780 760 L 800 760 z M 780 760 L 760 760 L 760 780 L 780 780 L 780 760 z M 760 760 L 760 740 L 740 740 L 740 760 L 760 760 z M 740 760 L 720 760 L 720 780 L 740 780 L 740 760 z M 720 760 L 720 740 L 700 740 L 700 760 L 720 760 z M 700 760 L 680 760 L 680 780 L 700 780 L 700 760 z M 680 760 L 680 740 L 660 740 L 660 760 L 680 760 z M 660 760 L 640 760 L 640 780 L 660 780 L 660 760 z M 640 760 L 640 740 L 620 740 L 620 760 L 640 760 z M 620 760 L 600 760 L 600 780 L 620 780 L 620 760 z M 600 760 L 600 740 L 580 740 L 580 760 L 600 760 z M 580 760 L 560 760 L 560 780 L 580 780 L 580 760 z M 560 760 L 560 740 L 540 740 L 540 760 L 560 760 z M 540 760 L 520 760 L 520 780 L 540 780 L 540 760 z M 540 740 L 540 720 L 520 720 L 520 740 L 540 740 z M 540 720 L 560 720 L 560 700 L 540 700 L 540 720 z M 540 700 L 540 680 L 520 680 L 520 700 L 540 700 z M 540 680 L 560 680 L 560 660 L 540 660 L 540 680 z M 540 660 L 540 640 L 520 640 L 520 660 L 540 660 z M 540 640 L 560 640 L 560 620 L 540 620 L 540 640 z M 540 620 L 540 600 L 520 600 L 520 620 L 540 620 z M 540 600 L 560 600 L 560 580 L 540 580 L 540 600 z M 540 580 L 540 560 L 520 560 L 520 580 L 540 580 z M 560 580 L 580 580 L 580 560 L 560 560 L 560 580 z M 580 580 L 580 600 L 600 600 L 600 580 L 580 580 z M 600 580 L 620 580 L 620 560 L 600 560 L 600 580 z M 620 580 L 620 600 L 640 600 L 640 580 L 620 580 z M 640 580 L 660 580 L 660 560 L 640 560 L 640 580 z M 660 580 L 660 600 L 680 600 L 680 580 L 660 580 z M 680 580 L 700 580 L 700 560 L 680 560 L 680 580 z M 700 580 L 700 600 L 720 600 L 720 580 L 700 580 z M 720 580 L 740 580 L 740 560 L 720 560 L 720 580 z M 740 580 L 740 600 L 760 600 L 760 580 L 740 580 z M 760 580 L 780 580 L 780 560 L 760 560 L 760 580 z M 780 580 L 780 600 L 800 600 L 800 580 L 780 580 z M 780 600 L 760 600 L 760 620 L 780 620 L 780 600 z M 780 620 L 780 640 L 800 640 L 800 620 L 780 620 z M 780 640 L 760 640 L 760 660 L 780 660 L 780 640 z M 780 660 L 780 680 L 800 680 L 800 660 L 780 660 z M 780 680 L 760 680 L 760 700 L 780 700 L 780 680 z M 780 700 L 780 720 L 800 720 L 800 700 L 780 700 z M 780 720 L 760 720 L 760 740 L 780 740 L 780 720 z M 760 720 L 760 700 L 740 700 L 740 720 L 760 720 z M 740 720 L 720 720 L 720 740 L 740 740 L 740 720 z M 720 720 L 720 700 L 700 700 L 700 720 L 720 720 z M 700 720 L 680 720 L 680 740 L 700 740 L 700 720 z M 680 720 L 680 700 L 660 700 L 660 720 L 680 720 z M 660 720 L 640 720 L 640 740 L 660 740 L 660 720 z M 640 720 L 640 700 L 620 700 L 620 720 L 640 720 z M 620 720 L 600 720 L 600 740 L 620 740 L 620 720 z M 600 720 L 600 700 L 580 700 L 580 720 L 600 720 z M 580 720 L 560 720 L 560 740 L 580 740 L 580 720 z M 580 700 L 580 680 L 560 680 L 560 700 L 580 700 z M 580 680 L 600 680 L 600 660 L 580 660 L 580 680 z M 580 660 L 580 640 L 560 640 L 560 660 L 580 660 z M 580 640 L 600 640 L 600 620 L 580 620 L 580 640 z M 580 620 L 580 600 L 560 600 L 560 620 L 580 620 z M 600 620 L 620 620 L 620 600 L 600 600 L 600 620 z M 620 620 L 620 640 L 640 640 L 640 620 L 620 620 z M 640 620 L 660 620 L 660 600 L 640 600 L 640 620 z M 660 620 L 660 640 L 680 640 L 680 620 L 660 620 z M 680 620 L 700 620 L 700 600 L 680 600 L 680 620 z M 700 620 L 700 640 L 720 640 L 720 620 L 700 620 z M 720 620 L 740 620 L 740 600 L 720 600 L 720 620 z M 740 620 L 740 640 L 760 640 L 760 620 L 740 620 z M 740 640 L 720 640 L 720 660 L 740 660 L 740 640 z M 740 660 L 740 680 L 760 680 L 760 660 L 740 660 z M 740 680 L 720 680 L 720 700 L 740 700 L 740 680 z M 720 680 L 720 660 L 700 660 L 700 680 L 720 680 z M 700 680 L 680 680 L 680 700 L 700 700 L 700 680 z M 680 680 L 680 660 L 660 660 L 660 680 L 680 680 z M 660 680 L 640 680 L 640 700 L 660 700 L 660 680 z M 640 680 L 640 660 L 620 660 L 620 680 L 640 680 z M 620 680 L 600 680 L 600 700 L 620 700 L 620 680 z M 620 660 L 620 640 L 600 640 L 600 660 L 620 660 z M 640 660 L 660 660 L 660 640 L 640 640 L 640 660 z M 680 660 L 700 660 L 700 640 L 680 640 L 680 660 z M 640 240 L 660 240 L 680 240 L 700 240 L 700 260 L 700 280 L 700 300 L 720 300 L 740 300 L 760 300 L 760 320 L 760 340 L 760 360 L 740 360 L 720 360 L 700 360 L 700 380 L 700 400 L 700 420 L 680 420 L 660 420 L 640 420 L 640 400 L 640 380 L 640 360 L 620 360 L 600 360 L 580 360 L 580 340 L 580 320 L 580 300 L 600 300 L 620 300 L 640 300 L 640 280 L 640 260 L 640 240 z M 180 280 L 180 300 L 160 300 L 160 320 L 140 320 L 140 340 L 120 340 L 120 360 L 140 360 L 160 360 L 180 360 L 200 360 L 200 340 L 200 320 L 200 300 L 200 280 L 180 280 z M 220 300 L 220 320 L 240 320 L 240 300 L 220 300 z M 320 300 L 320 320 L 300 320 L 280 320 L 280 340 L 260 340 L 240 340 L 240 360 L 260 360 L 280 360 L 300 360 L 320 360 L 340 360 L 340 340 L 340 320 L 340 300 L 320 300 z M 360 300 L 360 320 L 380 320 L 380 300 L 360 300 z M 420 300 L 420 320 L 400 320 L 400 340 L 380 340 L 380 360 L 400 360 L 420 360 L 420 340 L 440 340 L 440 320 L 440 300 L 420 300 z M 180 420 L 180 440 L 180 460 L 180 480 L 180 500 L 180 520 L 200 520 L 200 540 L 200 560 L 220 560 L 220 580 L 240 580 L 240 600 L 260 600 L 280 600 L 300 600 L 320 600 L 340 600 L 360 600 L 380 600 L 400 600 L 400 580 L 400 560 L 400 540 L 420 540 L 420 520 L 420 500 L 420 480 L 420 460 L 420 440 L 420 420 L 400 420 L 380 420 L 360 420 L 360 440 L 360 460 L 360 480 L 360 500 L 360 520 L 360 540 L 340 540 L 320 540 L 300 540 L 280 540 L 260 540 L 240 540 L 220 540 L 220 520 L 220 500 L 220 480 L 220 460 L 220 440 L 220 420 L 200 420 L 180 420 z M 420 620 L 420 640 L 440 640 L 440 620 L 420 620 z M 440 640 L 440 660 L 460 660 L 460 640 L 440 640 z M 440 660 L 420 660 L 420 680 L 440 680 L 440 660 z M 440 680 L 440 700 L 460 700 L 460 680 L 440 680 z M 440 700 L 420 700 L 420 720 L 440 720 L 440 700 z M 440 720 L 440 740 L 460 740 L 460 720 L 440 720 z M 440 740 L 420 740 L 420 760 L 440 760 L 440 740 z M 440 760 L 440 780 L 460 780 L 460 760 L 440 760 z M 440 780 L 420 780 L 420 800 L 440 800 L 440 780 z M 440 800 L 440 820 L 460 820 L 460 800 L 440 800 z M 440 820 L 420 820 L 420 840 L 440 840 L 440 820 z M 440 840 L 440 860 L 460 860 L 460 840 L 440 840 z M 420 820 L 420 800 L 400 800 L 400 820 L 420 820 z M 420 780 L 420 760 L 400 760 L 400 780 L 420 780 z M 420 740 L 420 720 L 400 720 L 400 740 L 420 740 z M 420 700 L 420 680 L 400 680 L 400 700 L 420 700 z M 280 640 L 280 660 L 300 660 L 320 660 L 320 640 L 300 640 L 280 640 z M 520 800 L 520 820 L 540 820 L 540 800 L 520 800 z M 540 820 L 540 840 L 560 840 L 560 820 L 540 820 z M 560 840 L 560 860 L 580 860 L 580 840 L 560 840 z M 580 840 L 600 840 L 600 820 L 580 820 L 580 840 z M 600 840 L 600 860 L 620 860 L 620 840 L 600 840 z M 620 840 L 640 840 L 640 820 L 620 820 L 620 840 z M 640 840 L 640 860 L 660 860 L 660 840 L 640 840 z M 660 840 L 680 840 L 680 820 L 660 820 L 660 840 z M 680 840 L 680 860 L 700 860 L 700 840 L 680 840 z M 700 840 L 720 840 L 720 820 L 700 820 L 700 840 z M 720 840 L 720 860 L 740 860 L 740 840 L 720 840 z M 740 840 L 760 840 L 760 820 L 740 820 L 740 840 z M 760 820 L 780 820 L 780 800 L 760 800 L 760 820 z M 760 840 L 760 860 L 780 860 L 780 840 L 760 840 z M 760 860 L 740 860 L 740 880 L 760 880 L 760 860 z M 760 880 L 760 900 L 780 900 L 780 880 L 760 880 z M 760 900 L 740 900 L 740 920 L 760 920 L 760 900 z M 740 900 L 740 880 L 720 880 L 720 900 L 740 900 z M 720 900 L 700 900 L 700 920 L 720 920 L 720 900 z M 700 900 L 700 880 L 680 880 L 680 900 L 700 900 z M 680 900 L 660 900 L 660 920 L 680 920 L 680 900 z M 660 900 L 660 880 L 640 880 L 640 900 L 660 900 z M 640 900 L 620 900 L 620 920 L 640 920 L 640 900 z M 620 900 L 620 880 L 600 880 L 600 900 L 620 900 z M 600 900 L 580 900 L 580 920 L 600 920 L 600 900 z M 580 900 L 580 880 L 560 880 L 560 900 L 580 900 z M 560 900 L 540 900 L 540 920 L 560 920 L 560 900 z M 540 900 L 540 880 L 520 880 L 520 900 L 540 900 z M 540 880 L 560 880 L 560 860 L 540 860 L 540 880 z M 540 860 L 540 840 L 520 840 L 520 860 L 540 860 z M 580 880 L 600 880 L 600 860 L 580 860 L 580 880 z M 620 880 L 640 880 L 640 860 L 620 860 L 620 880 z M 660 880 L 680 880 L 680 860 L 660 860 L 660 880 z M 700 880 L 720 880 L 720 860 L 700 860 L 700 880 z "
     id="rect3238" />
  <path
     style="fill:#808000"
     d="M 200 140 L 200 160 L 200 180 L 200 200 L 200 220 L 200 240 L 200 260 L 200 280 L 200 300 L 200 320 L 200 340 L 200 360 L 220 360 L 220 340 L 220 320 L 220 300 L 220 280 L 220 260 L 220 240 L 220 220 L 220 200 L 220 180 L 220 160 L 220 140 L 200 140 z M 340 160 L 340 180 L 340 200 L 340 220 L 340 240 L 340 260 L 340 280 L 340 300 L 340 320 L 340 340 L 340 360 L 360 360 L 360 340 L 360 320 L 360 300 L 360 280 L 360 260 L 360 240 L 360 220 L 360 200 L 360 180 L 360 160 L 340 160 z M 380 820 L 380 840 L 380 860 L 400 860 L 400 880 L 420 880 L 420 900 L 440 900 L 440 920 L 460 920 L 460 940 L 480 940 L 500 940 L 520 940 L 520 920 L 500 920 L 500 900 L 480 900 L 460 900 L 460 880 L 440 880 L 440 860 L 420 860 L 420 840 L 400 840 L 400 820 L 380 820 z "
     id="rect3284" />
  <path
     style="fill:#ffff00"
     d="M 220 160 L 220 180 L 220 200 L 220 220 L 220 240 L 220 260 L 220 280 L 220 300 L 240 300 L 240 280 L 240 260 L 240 240 L 240 220 L 240 200 L 240 180 L 240 160 L 220 160 z M 360 160 L 360 180 L 360 200 L 360 220 L 360 240 L 360 260 L 360 280 L 360 300 L 380 300 L 380 280 L 380 260 L 380 240 L 380 220 L 380 200 L 380 180 L 380 160 L 360 160 z M 920 460 L 920 480 L 940 480 L 940 460 L 920 460 z M 920 480 L 900 480 L 900 500 L 920 500 L 920 480 z M 920 500 L 920 520 L 940 520 L 940 500 L 920 500 z M 920 520 L 900 520 L 900 540 L 920 540 L 920 520 z M 920 540 L 920 560 L 940 560 L 940 540 L 920 540 z M 920 560 L 900 560 L 900 580 L 920 580 L 920 560 z M 920 580 L 920 600 L 940 600 L 940 580 L 920 580 z M 920 600 L 900 600 L 900 620 L 920 620 L 920 600 z M 920 620 L 920 640 L 940 640 L 940 620 L 920 620 z M 920 640 L 900 640 L 900 660 L 920 660 L 920 640 z M 920 660 L 920 680 L 940 680 L 940 660 L 920 660 z M 920 680 L 900 680 L 900 700 L 920 700 L 920 680 z M 920 700 L 920 720 L 940 720 L 940 700 L 920 700 z M 920 720 L 900 720 L 900 740 L 920 740 L 920 720 z M 920 740 L 920 760 L 940 760 L 940 740 L 920 740 z M 920 760 L 900 760 L 900 780 L 920 780 L 920 760 z M 920 780 L 920 800 L 940 800 L 940 780 L 920 780 z M 920 800 L 900 800 L 900 820 L 920 820 L 920 800 z M 900 820 L 880 820 L 880 840 L 900 840 L 900 820 z M 880 840 L 860 840 L 860 860 L 880 860 L 880 840 z M 860 860 L 840 860 L 840 880 L 860 880 L 860 860 z M 840 880 L 820 880 L 820 900 L 840 900 L 840 880 z M 820 900 L 800 900 L 800 920 L 820 920 L 820 900 z M 800 900 L 800 880 L 780 880 L 780 900 L 800 900 z M 780 900 L 760 900 L 760 920 L 780 920 L 780 900 z M 760 920 L 740 920 L 740 940 L 760 940 L 760 920 z M 740 920 L 740 900 L 720 900 L 720 920 L 740 920 z M 720 920 L 700 920 L 700 940 L 720 940 L 720 920 z M 700 920 L 700 900 L 680 900 L 680 920 L 700 920 z M 680 920 L 660 920 L 660 940 L 680 940 L 680 920 z M 660 920 L 660 900 L 640 900 L 640 920 L 660 920 z M 640 920 L 620 920 L 620 940 L 640 940 L 640 920 z M 620 920 L 620 900 L 600 900 L 600 920 L 620 920 z M 600 920 L 580 920 L 580 940 L 600 940 L 600 920 z M 580 920 L 580 900 L 560 900 L 560 920 L 580 920 z M 560 920 L 540 920 L 540 940 L 560 940 L 560 920 z M 540 920 L 540 900 L 520 900 L 520 920 L 540 920 z M 520 900 L 520 880 L 500 880 L 500 900 L 520 900 z M 500 880 L 500 860 L 480 860 L 480 880 L 500 880 z M 480 880 L 460 880 L 460 900 L 480 900 L 480 880 z M 480 860 L 480 840 L 460 840 L 460 860 L 480 860 z M 460 840 L 460 820 L 440 820 L 440 840 L 460 840 z M 440 840 L 420 840 L 420 860 L 440 860 L 440 840 z M 420 840 L 420 820 L 400 820 L 400 840 L 420 840 z M 420 820 L 440 820 L 440 800 L 420 800 L 420 820 z M 420 800 L 420 780 L 400 780 L 400 800 L 420 800 z M 420 780 L 440 780 L 440 760 L 420 760 L 420 780 z M 440 780 L 440 800 L 460 800 L 460 780 L 440 780 z M 460 780 L 480 780 L 480 760 L 460 760 L 460 780 z M 480 760 L 500 760 L 500 740 L 480 740 L 480 760 z M 480 740 L 480 720 L 460 720 L 460 740 L 480 740 z M 460 720 L 460 700 L 440 700 L 440 720 L 460 720 z M 440 720 L 420 720 L 420 740 L 440 740 L 440 720 z M 420 720 L 420 700 L 400 700 L 400 720 L 420 720 z M 420 700 L 440 700 L 440 680 L 420 680 L 420 700 z M 420 680 L 420 660 L 400 660 L 400 680 L 420 680 z M 420 660 L 440 660 L 440 640 L 420 640 L 420 660 z M 440 660 L 440 680 L 460 680 L 460 660 L 440 660 z M 460 660 L 480 660 L 480 640 L 460 640 L 460 660 z M 480 640 L 500 640 L 500 620 L 480 620 L 480 640 z M 480 620 L 480 600 L 460 600 L 460 620 L 480 620 z M 480 600 L 500 600 L 500 580 L 480 580 L 480 600 z M 500 580 L 520 580 L 520 560 L 500 560 L 500 580 z M 500 560 L 500 540 L 480 540 L 480 560 L 500 560 z M 520 560 L 540 560 L 540 540 L 520 540 L 520 560 z M 500 600 L 500 620 L 520 620 L 520 600 L 500 600 z M 520 620 L 520 640 L 540 640 L 540 620 L 520 620 z M 540 620 L 560 620 L 560 600 L 540 600 L 540 620 z M 560 600 L 580 600 L 580 580 L 560 580 L 560 600 z M 580 600 L 580 620 L 600 620 L 600 600 L 580 600 z M 600 600 L 620 600 L 620 580 L 600 580 L 600 600 z M 620 600 L 620 620 L 640 620 L 640 600 L 620 600 z M 640 600 L 660 600 L 660 580 L 640 580 L 640 600 z M 660 600 L 660 620 L 680 620 L 680 600 L 660 600 z M 680 600 L 700 600 L 700 580 L 680 580 L 680 600 z M 700 600 L 700 620 L 720 620 L 720 600 L 700 600 z M 720 600 L 740 600 L 740 580 L 720 580 L 720 600 z M 740 600 L 740 620 L 760 620 L 760 600 L 740 600 z M 760 600 L 780 600 L 780 580 L 760 580 L 760 600 z M 780 600 L 780 620 L 800 620 L 800 600 L 780 600 z M 800 600 L 820 600 L 820 580 L 800 580 L 800 600 z M 820 580 L 840 580 L 840 560 L 820 560 L 820 580 z M 840 560 L 860 560 L 860 540 L 840 540 L 840 560 z M 860 540 L 880 540 L 880 520 L 860 520 L 860 540 z M 880 520 L 900 520 L 900 500 L 880 500 L 880 520 z M 880 540 L 880 560 L 900 560 L 900 540 L 880 540 z M 880 560 L 860 560 L 860 580 L 880 580 L 880 560 z M 880 580 L 880 600 L 900 600 L 900 580 L 880 580 z M 880 600 L 860 600 L 860 620 L 880 620 L 880 600 z M 880 620 L 880 640 L 900 640 L 900 620 L 880 620 z M 880 640 L 860 640 L 860 660 L 880 660 L 880 640 z M 880 660 L 880 680 L 900 680 L 900 660 L 880 660 z M 880 680 L 860 680 L 860 700 L 880 700 L 880 680 z M 880 700 L 880 720 L 900 720 L 900 700 L 880 700 z M 880 720 L 860 720 L 860 740 L 880 740 L 880 720 z M 880 740 L 880 760 L 900 760 L 900 740 L 880 740 z M 880 760 L 860 760 L 860 780 L 880 780 L 880 760 z M 880 780 L 880 800 L 900 800 L 900 780 L 880 780 z M 880 800 L 860 800 L 860 820 L 880 820 L 880 800 z M 860 820 L 840 820 L 840 840 L 860 840 L 860 820 z M 840 840 L 820 840 L 820 860 L 840 860 L 840 840 z M 820 860 L 800 860 L 800 880 L 820 880 L 820 860 z M 800 860 L 800 840 L 780 840 L 780 860 L 800 860 z M 780 860 L 760 860 L 760 880 L 780 880 L 780 860 z M 760 880 L 740 880 L 740 900 L 760 900 L 760 880 z M 740 880 L 740 860 L 720 860 L 720 880 L 740 880 z M 720 880 L 700 880 L 700 900 L 720 900 L 720 880 z M 700 880 L 700 860 L 680 860 L 680 880 L 700 880 z M 680 880 L 660 880 L 660 900 L 680 900 L 680 880 z M 660 880 L 660 860 L 640 860 L 640 880 L 660 880 z M 640 880 L 620 880 L 620 900 L 640 900 L 640 880 z M 620 880 L 620 860 L 600 860 L 600 880 L 620 880 z M 600 880 L 580 880 L 580 900 L 600 900 L 600 880 z M 580 880 L 580 860 L 560 860 L 560 880 L 580 880 z M 560 880 L 540 880 L 540 900 L 560 900 L 560 880 z M 540 880 L 540 860 L 520 860 L 520 880 L 540 880 z M 520 860 L 520 840 L 500 840 L 500 860 L 520 860 z M 500 840 L 500 820 L 480 820 L 480 840 L 500 840 z M 480 820 L 480 800 L 460 800 L 460 820 L 480 820 z M 480 800 L 500 800 L 500 780 L 480 780 L 480 800 z M 500 780 L 520 780 L 520 760 L 500 760 L 500 780 z M 520 760 L 540 760 L 540 740 L 520 740 L 520 760 z M 520 740 L 520 720 L 500 720 L 500 740 L 520 740 z M 500 720 L 500 700 L 480 700 L 480 720 L 500 720 z M 480 700 L 480 680 L 460 680 L 460 700 L 480 700 z M 480 680 L 500 680 L 500 660 L 480 660 L 480 680 z M 500 660 L 520 660 L 520 640 L 500 640 L 500 660 z M 520 660 L 520 680 L 540 680 L 540 660 L 520 660 z M 540 660 L 560 660 L 560 640 L 540 640 L 540 660 z M 560 640 L 580 640 L 580 620 L 560 620 L 560 640 z M 580 640 L 580 660 L 600 660 L 600 640 L 580 640 z M 600 640 L 620 640 L 620 620 L 600 620 L 600 640 z M 620 640 L 620 660 L 640 660 L 640 640 L 620 640 z M 640 640 L 660 640 L 660 620 L 640 620 L 640 640 z M 660 640 L 660 660 L 680 660 L 680 640 L 660 640 z M 680 640 L 700 640 L 700 620 L 680 620 L 680 640 z M 700 640 L 700 660 L 720 660 L 720 640 L 700 640 z M 720 640 L 740 640 L 740 620 L 720 620 L 720 640 z M 740 640 L 740 660 L 760 660 L 760 640 L 740 640 z M 760 640 L 780 640 L 780 620 L 760 620 L 760 640 z M 780 640 L 780 660 L 800 660 L 800 640 L 780 640 z M 800 640 L 820 640 L 820 620 L 800 620 L 800 640 z M 820 620 L 840 620 L 840 600 L 820 600 L 820 620 z M 840 600 L 860 600 L 860 580 L 840 580 L 840 600 z M 840 620 L 840 640 L 860 640 L 860 620 L 840 620 z M 840 640 L 820 640 L 820 660 L 840 660 L 840 640 z M 840 660 L 840 680 L 860 680 L 860 660 L 840 660 z M 840 680 L 820 680 L 820 700 L 840 700 L 840 680 z M 840 700 L 840 720 L 860 720 L 860 700 L 840 700 z M 840 720 L 820 720 L 820 740 L 840 740 L 840 720 z M 840 740 L 840 760 L 860 760 L 860 740 L 840 740 z M 840 760 L 820 760 L 820 780 L 840 780 L 840 760 z M 840 780 L 840 800 L 860 800 L 860 780 L 840 780 z M 840 800 L 820 800 L 820 820 L 840 820 L 840 800 z M 820 820 L 800 820 L 800 840 L 820 840 L 820 820 z M 800 820 L 800 800 L 780 800 L 780 820 L 800 820 z M 780 820 L 760 820 L 760 840 L 780 840 L 780 820 z M 760 840 L 740 840 L 740 860 L 760 860 L 760 840 z M 740 840 L 740 820 L 720 820 L 720 840 L 740 840 z M 720 840 L 700 840 L 700 860 L 720 860 L 720 840 z M 700 840 L 700 820 L 680 820 L 680 840 L 700 840 z M 680 840 L 660 840 L 660 860 L 680 860 L 680 840 z M 660 840 L 660 820 L 640 820 L 640 840 L 660 840 z M 640 840 L 620 840 L 620 860 L 640 860 L 640 840 z M 620 840 L 620 820 L 600 820 L 600 840 L 620 840 z M 600 840 L 580 840 L 580 860 L 600 860 L 600 840 z M 580 840 L 580 820 L 560 820 L 560 840 L 580 840 z M 560 840 L 540 840 L 540 860 L 560 860 L 560 840 z M 540 840 L 540 820 L 520 820 L 520 840 L 540 840 z M 520 820 L 520 800 L 500 800 L 500 820 L 520 820 z M 520 800 L 540 800 L 540 780 L 520 780 L 520 800 z M 540 780 L 560 780 L 560 760 L 540 760 L 540 780 z M 560 760 L 580 760 L 580 740 L 560 740 L 560 760 z M 560 740 L 560 720 L 540 720 L 540 740 L 560 740 z M 540 720 L 540 700 L 520 700 L 520 720 L 540 720 z M 520 700 L 520 680 L 500 680 L 500 700 L 520 700 z M 540 700 L 560 700 L 560 680 L 540 680 L 540 700 z M 560 680 L 580 680 L 580 660 L 560 660 L 560 680 z M 580 680 L 580 700 L 600 700 L 600 680 L 580 680 z M 600 680 L 620 680 L 620 660 L 600 660 L 600 680 z M 620 680 L 620 700 L 640 700 L 640 680 L 620 680 z M 640 680 L 660 680 L 660 660 L 640 660 L 640 680 z M 660 680 L 660 700 L 680 700 L 680 680 L 660 680 z M 680 680 L 700 680 L 700 660 L 680 660 L 680 680 z M 700 680 L 700 700 L 720 700 L 720 680 L 700 680 z M 720 680 L 740 680 L 740 660 L 720 660 L 720 680 z M 740 680 L 740 700 L 760 700 L 760 680 L 740 680 z M 760 680 L 780 680 L 780 660 L 760 660 L 760 680 z M 780 680 L 780 700 L 800 700 L 800 680 L 780 680 z M 800 680 L 820 680 L 820 660 L 800 660 L 800 680 z M 800 700 L 800 720 L 820 720 L 820 700 L 800 700 z M 800 720 L 780 720 L 780 740 L 800 740 L 800 720 z M 800 740 L 800 760 L 820 760 L 820 740 L 800 740 z M 800 760 L 780 760 L 780 780 L 800 780 L 800 760 z M 800 780 L 800 800 L 820 800 L 820 780 L 800 780 z M 780 780 L 760 780 L 760 800 L 780 800 L 780 780 z M 760 780 L 760 760 L 740 760 L 740 780 L 760 780 z M 740 760 L 740 740 L 720 740 L 720 760 L 740 760 z M 720 760 L 700 760 L 700 780 L 720 780 L 720 760 z M 700 760 L 700 740 L 680 740 L 680 760 L 700 760 z M 680 760 L 660 760 L 660 780 L 680 780 L 680 760 z M 660 760 L 660 740 L 640 740 L 640 760 L 660 760 z M 640 760 L 620 760 L 620 780 L 640 780 L 640 760 z M 620 760 L 620 740 L 600 740 L 600 760 L 620 760 z M 600 760 L 580 760 L 580 780 L 600 780 L 600 760 z M 600 740 L 600 720 L 580 720 L 580 740 L 600 740 z M 580 720 L 580 700 L 560 700 L 560 720 L 580 720 z M 600 720 L 620 720 L 620 700 L 600 700 L 600 720 z M 620 720 L 620 740 L 640 740 L 640 720 L 620 720 z M 640 720 L 660 720 L 660 700 L 640 700 L 640 720 z M 660 720 L 660 740 L 680 740 L 680 720 L 660 720 z M 680 720 L 700 720 L 700 700 L 680 700 L 680 720 z M 700 720 L 700 740 L 720 740 L 720 720 L 700 720 z M 720 720 L 740 720 L 740 700 L 720 700 L 720 720 z M 740 720 L 740 740 L 760 740 L 760 720 L 740 720 z M 760 720 L 780 720 L 780 700 L 760 700 L 760 720 z M 760 740 L 760 760 L 780 760 L 780 740 L 760 740 z "
     id="rect3308" />
  <path
     style="fill:#808080"
     d="M 600 0 L 600 20 L 580 20 L 580 40 L 560 40 L 560 60 L 540 60 L 520 60 L 500 60 L 500 80 L 480 80 L 460 80 L 460 100 L 440 100 L 420 100 L 400 100 L 380 100 L 380 120 L 400 120 L 420 120 L 440 120 L 440 140 L 460 140 L 460 160 L 480 160 L 500 160 L 520 160 L 520 180 L 540 180 L 560 180 L 580 180 L 600 180 L 600 160 L 580 160 L 560 160 L 540 160 L 540 140 L 520 140 L 500 140 L 500 120 L 480 120 L 480 100 L 500 100 L 520 100 L 540 100 L 560 100 L 580 100 L 580 120 L 600 120 L 600 100 L 600 80 L 600 60 L 600 40 L 620 40 L 640 40 L 660 40 L 680 40 L 700 40 L 720 40 L 720 60 L 720 80 L 700 80 L 700 100 L 680 100 L 660 100 L 660 120 L 680 120 L 700 120 L 720 120 L 740 120 L 740 100 L 760 100 L 760 80 L 760 60 L 760 40 L 760 20 L 760 0 L 740 0 L 720 0 L 700 0 L 680 0 L 660 0 L 640 0 L 620 0 L 600 0 z M 380 120 L 360 120 L 360 140 L 340 140 L 340 160 L 360 160 L 380 160 L 380 140 L 380 120 z M 780 100 L 780 120 L 760 120 L 760 140 L 740 140 L 720 140 L 720 160 L 740 160 L 760 160 L 780 160 L 800 160 L 820 160 L 840 160 L 860 160 L 880 160 L 880 140 L 900 140 L 920 140 L 920 120 L 900 120 L 880 120 L 860 120 L 840 120 L 840 100 L 820 100 L 800 100 L 780 100 z M 220 120 L 220 140 L 220 160 L 240 160 L 240 140 L 240 120 L 220 120 z M 880 180 L 880 200 L 900 200 L 900 180 L 880 180 z M 900 200 L 900 220 L 920 220 L 920 200 L 900 200 z M 920 200 L 940 200 L 940 180 L 920 180 L 920 200 z M 920 220 L 920 240 L 940 240 L 940 220 L 920 220 z M 920 240 L 900 240 L 900 260 L 920 260 L 920 240 z M 920 260 L 920 280 L 940 280 L 940 260 L 920 260 z M 920 280 L 900 280 L 900 300 L 920 300 L 920 280 z M 920 300 L 920 320 L 940 320 L 940 300 L 920 300 z M 920 320 L 900 320 L 900 340 L 920 340 L 920 320 z M 920 340 L 920 360 L 940 360 L 940 340 L 920 340 z M 920 360 L 900 360 L 900 380 L 920 380 L 920 360 z M 920 380 L 920 400 L 940 400 L 940 380 L 920 380 z M 920 400 L 900 400 L 900 420 L 920 420 L 920 400 z M 920 420 L 920 440 L 940 440 L 940 420 L 920 420 z M 920 440 L 900 440 L 900 460 L 920 460 L 920 440 z M 900 460 L 880 460 L 880 480 L 900 480 L 900 460 z M 880 480 L 860 480 L 860 500 L 880 500 L 880 480 z M 860 500 L 840 500 L 840 520 L 860 520 L 860 500 z M 860 480 L 860 460 L 840 460 L 840 480 L 860 480 z M 860 460 L 880 460 L 880 440 L 860 440 L 860 460 z M 860 440 L 860 420 L 840 420 L 840 440 L 860 440 z M 860 420 L 880 420 L 880 400 L 860 400 L 860 420 z M 860 400 L 860 380 L 840 380 L 840 400 L 860 400 z M 860 380 L 880 380 L 880 360 L 860 360 L 860 380 z M 860 360 L 860 340 L 840 340 L 840 360 L 860 360 z M 860 340 L 880 340 L 880 320 L 860 320 L 860 340 z M 860 320 L 860 300 L 840 300 L 840 320 L 860 320 z M 860 300 L 880 300 L 880 280 L 860 280 L 860 300 z M 860 280 L 860 260 L 840 260 L 840 280 L 860 280 z M 860 260 L 880 260 L 880 240 L 860 240 L 860 260 z M 860 240 L 860 220 L 840 220 L 840 240 L 860 240 z M 860 220 L 880 220 L 880 200 L 860 200 L 860 220 z M 880 220 L 880 240 L 900 240 L 900 220 L 880 220 z M 880 260 L 880 280 L 900 280 L 900 260 L 880 260 z M 880 300 L 880 320 L 900 320 L 900 300 L 880 300 z M 880 340 L 880 360 L 900 360 L 900 340 L 880 340 z M 880 380 L 880 400 L 900 400 L 900 380 L 880 380 z M 880 420 L 880 440 L 900 440 L 900 420 L 880 420 z M 180 240 L 180 260 L 160 260 L 160 280 L 140 280 L 140 300 L 120 300 L 120 320 L 100 320 L 100 340 L 100 360 L 100 380 L 100 400 L 120 400 L 120 420 L 120 440 L 120 460 L 120 480 L 120 500 L 120 520 L 120 540 L 140 540 L 140 560 L 160 560 L 160 580 L 180 580 L 180 600 L 200 600 L 220 600 L 220 580 L 200 580 L 200 560 L 180 560 L 180 540 L 160 540 L 160 520 L 160 500 L 160 480 L 160 460 L 160 440 L 160 420 L 180 420 L 200 420 L 220 420 L 240 420 L 260 420 L 280 420 L 300 420 L 320 420 L 340 420 L 360 420 L 380 420 L 400 420 L 420 420 L 420 440 L 420 460 L 420 480 L 420 500 L 420 520 L 420 540 L 400 540 L 400 560 L 400 580 L 400 600 L 420 600 L 420 580 L 440 580 L 440 560 L 440 540 L 460 540 L 460 520 L 460 500 L 480 500 L 480 480 L 480 460 L 480 440 L 480 420 L 480 400 L 460 400 L 460 380 L 480 380 L 480 360 L 500 360 L 500 340 L 520 340 L 520 320 L 520 300 L 520 280 L 500 280 L 480 280 L 460 280 L 440 280 L 420 280 L 420 300 L 440 300 L 460 300 L 480 300 L 480 320 L 460 320 L 460 340 L 440 340 L 440 360 L 420 360 L 420 380 L 400 380 L 400 400 L 380 400 L 360 400 L 340 400 L 320 400 L 300 400 L 280 400 L 260 400 L 240 400 L 220 400 L 200 400 L 180 400 L 160 400 L 140 400 L 140 380 L 120 380 L 120 360 L 120 340 L 140 340 L 140 320 L 160 320 L 160 300 L 180 300 L 180 280 L 200 280 L 200 260 L 200 240 L 180 240 z M 280 300 L 280 320 L 300 320 L 320 320 L 320 300 L 300 300 L 280 300 z M 220 460 L 220 480 L 240 480 L 260 480 L 280 480 L 300 480 L 320 480 L 340 480 L 360 480 L 360 460 L 340 460 L 320 460 L 300 460 L 280 460 L 260 460 L 240 460 L 220 460 z M 920 480 L 920 500 L 940 500 L 940 480 L 920 480 z M 920 500 L 900 500 L 900 520 L 920 520 L 920 500 z M 920 520 L 920 540 L 940 540 L 940 520 L 920 520 z M 920 540 L 900 540 L 900 560 L 920 560 L 920 540 z M 920 560 L 920 580 L 940 580 L 940 560 L 920 560 z M 920 580 L 900 580 L 900 600 L 920 600 L 920 580 z M 920 600 L 920 620 L 940 620 L 940 600 L 920 600 z M 920 620 L 900 620 L 900 640 L 920 640 L 920 620 z M 920 640 L 920 660 L 940 660 L 940 640 L 920 640 z M 920 660 L 900 660 L 900 680 L 920 680 L 920 660 z M 920 680 L 920 700 L 940 700 L 940 680 L 920 680 z M 920 700 L 900 700 L 900 720 L 920 720 L 920 700 z M 920 720 L 920 740 L 940 740 L 940 720 L 920 720 z M 920 740 L 900 740 L 900 760 L 920 760 L 920 740 z M 920 760 L 920 780 L 940 780 L 940 760 L 920 760 z M 920 780 L 900 780 L 900 800 L 920 800 L 920 780 z M 920 800 L 920 820 L 940 820 L 940 800 L 920 800 z M 920 820 L 900 820 L 900 840 L 920 840 L 920 820 z M 900 840 L 880 840 L 880 860 L 900 860 L 900 840 z M 880 860 L 860 860 L 860 880 L 880 880 L 880 860 z M 860 880 L 840 880 L 840 900 L 860 900 L 860 880 z M 840 880 L 840 860 L 820 860 L 820 880 L 840 880 z M 820 880 L 800 880 L 800 900 L 820 900 L 820 880 z M 800 900 L 780 900 L 780 920 L 800 920 L 800 900 z M 780 920 L 760 920 L 760 940 L 780 940 L 780 920 z M 800 880 L 800 860 L 780 860 L 780 880 L 800 880 z M 800 860 L 820 860 L 820 840 L 800 840 L 800 860 z M 800 840 L 800 820 L 780 820 L 780 840 L 800 840 z M 800 820 L 820 820 L 820 800 L 800 800 L 800 820 z M 800 800 L 800 780 L 780 780 L 780 800 L 800 800 z M 820 820 L 820 840 L 840 840 L 840 820 L 820 820 z M 840 820 L 860 820 L 860 800 L 840 800 L 840 820 z M 860 800 L 880 800 L 880 780 L 860 780 L 860 800 z M 860 780 L 860 760 L 840 760 L 840 780 L 860 780 z M 860 760 L 880 760 L 880 740 L 860 740 L 860 760 z M 860 740 L 860 720 L 840 720 L 840 740 L 860 740 z M 860 720 L 880 720 L 880 700 L 860 700 L 860 720 z M 860 700 L 860 680 L 840 680 L 840 700 L 860 700 z M 860 680 L 880 680 L 880 660 L 860 660 L 860 680 z M 860 660 L 860 640 L 840 640 L 840 660 L 860 660 z M 860 640 L 880 640 L 880 620 L 860 620 L 860 640 z M 860 620 L 860 600 L 840 600 L 840 620 L 860 620 z M 860 600 L 880 600 L 880 580 L 860 580 L 860 600 z M 860 580 L 860 560 L 840 560 L 840 580 L 860 580 z M 860 560 L 880 560 L 880 540 L 860 540 L 860 560 z M 880 540 L 900 540 L 900 520 L 880 520 L 880 540 z M 880 560 L 880 580 L 900 580 L 900 560 L 880 560 z M 880 600 L 880 620 L 900 620 L 900 600 L 880 600 z M 880 640 L 880 660 L 900 660 L 900 640 L 880 640 z M 880 680 L 880 700 L 900 700 L 900 680 L 880 680 z M 880 720 L 880 740 L 900 740 L 900 720 L 880 720 z M 880 760 L 880 780 L 900 780 L 900 760 L 880 760 z M 880 800 L 880 820 L 900 820 L 900 800 L 880 800 z M 880 820 L 860 820 L 860 840 L 880 840 L 880 820 z M 860 840 L 840 840 L 840 860 L 860 860 L 860 840 z M 220 520 L 220 540 L 240 540 L 260 540 L 280 540 L 300 540 L 320 540 L 340 540 L 360 540 L 360 520 L 340 520 L 320 520 L 300 520 L 280 520 L 260 520 L 240 520 L 220 520 z M 240 640 L 240 660 L 240 680 L 260 680 L 260 700 L 260 720 L 280 720 L 280 740 L 280 760 L 280 780 L 260 780 L 260 800 L 260 820 L 280 820 L 280 800 L 300 800 L 300 780 L 300 760 L 300 740 L 300 720 L 320 720 L 340 720 L 340 740 L 340 760 L 340 780 L 320 780 L 320 800 L 320 820 L 300 820 L 300 840 L 280 840 L 280 860 L 260 860 L 260 880 L 240 880 L 240 900 L 220 900 L 200 900 L 180 900 L 160 900 L 140 900 L 120 900 L 100 900 L 100 880 L 80 880 L 60 880 L 40 880 L 40 860 L 40 840 L 60 840 L 80 840 L 100 840 L 100 820 L 80 820 L 60 820 L 40 820 L 20 820 L 20 840 L 0 840 L 0 860 L 0 880 L 0 900 L 20 900 L 40 900 L 40 920 L 60 920 L 80 920 L 80 940 L 100 940 L 120 940 L 140 940 L 160 940 L 180 940 L 200 940 L 220 940 L 220 920 L 240 920 L 260 920 L 260 900 L 280 900 L 300 900 L 300 880 L 320 880 L 320 860 L 320 840 L 340 840 L 340 820 L 340 800 L 360 800 L 360 780 L 360 760 L 360 740 L 360 720 L 360 700 L 340 700 L 320 700 L 300 700 L 280 700 L 280 680 L 280 660 L 280 640 L 260 640 L 240 640 z M 100 840 L 100 860 L 120 860 L 120 880 L 140 880 L 160 880 L 180 880 L 200 880 L 220 880 L 220 860 L 240 860 L 240 840 L 220 840 L 200 840 L 180 840 L 160 840 L 140 840 L 120 840 L 100 840 z M 240 840 L 260 840 L 260 820 L 240 820 L 240 840 z M 340 640 L 340 660 L 360 660 L 380 660 L 400 660 L 400 640 L 380 640 L 360 640 L 340 640 z M 520 920 L 520 940 L 540 940 L 540 920 L 520 920 z M 560 920 L 560 940 L 580 940 L 580 920 L 560 920 z M 600 920 L 600 940 L 620 940 L 620 920 L 600 920 z M 640 920 L 640 940 L 660 940 L 660 920 L 640 920 z M 680 920 L 680 940 L 700 940 L 700 920 L 680 920 z M 720 920 L 720 940 L 740 940 L 740 920 L 720 920 z "
     id="rect3310" />
  <path
     style="fill:#202000"
     d="M 520 300 L 520 320 L 520 340 L 500 340 L 500 360 L 480 360 L 480 380 L 460 380 L 460 400 L 480 400 L 480 420 L 480 440 L 480 460 L 480 480 L 480 500 L 460 500 L 460 520 L 460 540 L 440 540 L 440 560 L 440 580 L 420 580 L 420 600 L 400 600 L 380 600 L 360 600 L 340 600 L 320 600 L 300 600 L 280 600 L 260 600 L 240 600 L 220 600 L 220 620 L 220 640 L 240 640 L 260 640 L 280 640 L 300 640 L 320 640 L 340 640 L 360 640 L 380 640 L 400 640 L 400 660 L 420 660 L 420 640 L 420 620 L 440 620 L 440 600 L 460 600 L 460 580 L 460 560 L 480 560 L 480 540 L 480 520 L 500 520 L 500 500 L 500 480 L 500 460 L 500 440 L 500 420 L 500 400 L 500 380 L 520 380 L 520 360 L 540 360 L 540 340 L 540 320 L 540 300 L 520 300 z M 400 660 L 380 660 L 360 660 L 340 660 L 320 660 L 300 660 L 280 660 L 280 680 L 280 700 L 300 700 L 320 700 L 340 700 L 360 700 L 360 720 L 360 740 L 360 760 L 360 780 L 360 800 L 340 800 L 340 820 L 340 840 L 320 840 L 320 860 L 320 880 L 340 880 L 340 860 L 360 860 L 360 840 L 380 840 L 380 820 L 400 820 L 400 800 L 400 780 L 400 760 L 400 740 L 400 720 L 400 700 L 400 680 L 400 660 z M 320 880 L 300 880 L 300 900 L 320 900 L 320 880 z M 300 900 L 280 900 L 260 900 L 260 920 L 240 920 L 220 920 L 220 940 L 200 940 L 180 940 L 160 940 L 140 940 L 120 940 L 100 940 L 80 940 L 80 920 L 60 920 L 40 920 L 40 900 L 20 900 L 0 900 L 0 920 L 0 940 L 20 940 L 40 940 L 60 940 L 60 960 L 80 960 L 100 960 L 120 960 L 140 960 L 160 960 L 180 960 L 200 960 L 220 960 L 240 960 L 240 940 L 260 940 L 280 940 L 280 920 L 300 920 L 300 900 z "
     id="rect3336" />
  <path
     style="fill:#000000"
     d="M 760 60 L 760 80 L 760 100 L 740 100 L 740 120 L 720 120 L 700 120 L 680 120 L 660 120 L 640 120 L 620 120 L 600 120 L 600 140 L 620 140 L 620 160 L 640 160 L 660 160 L 680 160 L 700 160 L 720 160 L 720 140 L 740 140 L 760 140 L 760 120 L 780 120 L 780 100 L 800 100 L 820 100 L 840 100 L 840 120 L 860 120 L 880 120 L 900 120 L 920 120 L 940 120 L 940 100 L 920 100 L 900 100 L 880 100 L 860 100 L 860 80 L 840 80 L 820 80 L 820 60 L 800 60 L 780 60 L 760 60 z M 940 120 L 940 140 L 940 160 L 940 180 L 940 200 L 940 220 L 940 240 L 940 260 L 940 280 L 940 300 L 940 320 L 940 340 L 940 360 L 940 380 L 940 400 L 940 420 L 940 440 L 940 460 L 940 480 L 940 500 L 940 520 L 940 540 L 940 560 L 940 580 L 940 600 L 940 620 L 940 640 L 940 660 L 940 680 L 940 700 L 940 720 L 940 740 L 940 760 L 940 780 L 940 800 L 940 820 L 920 820 L 920 840 L 900 840 L 900 860 L 880 860 L 880 880 L 860 880 L 860 900 L 840 900 L 820 900 L 820 920 L 800 920 L 780 920 L 780 940 L 760 940 L 740 940 L 720 940 L 700 940 L 680 940 L 660 940 L 640 940 L 620 940 L 600 940 L 580 940 L 560 940 L 540 940 L 520 940 L 520 960 L 540 960 L 560 960 L 580 960 L 600 960 L 620 960 L 640 960 L 660 960 L 680 960 L 700 960 L 720 960 L 740 960 L 760 960 L 780 960 L 800 960 L 820 960 L 820 940 L 840 940 L 860 940 L 860 920 L 880 920 L 880 900 L 900 900 L 900 880 L 920 880 L 920 860 L 940 860 L 940 840 L 960 840 L 960 820 L 960 800 L 960 780 L 960 760 L 960 740 L 960 720 L 960 700 L 960 680 L 960 660 L 960 640 L 960 620 L 960 600 L 960 580 L 960 560 L 960 540 L 960 520 L 960 500 L 960 480 L 960 460 L 960 440 L 960 420 L 960 400 L 960 380 L 960 360 L 960 340 L 960 320 L 960 300 L 960 280 L 960 260 L 960 240 L 960 220 L 960 200 L 960 180 L 960 160 L 960 140 L 960 120 L 940 120 z M 240 120 L 240 140 L 240 160 L 240 180 L 240 200 L 240 220 L 240 240 L 240 260 L 240 280 L 240 300 L 240 320 L 220 320 L 220 340 L 220 360 L 240 360 L 240 340 L 260 340 L 280 340 L 280 320 L 280 300 L 260 300 L 260 280 L 260 260 L 260 240 L 260 220 L 260 200 L 260 180 L 260 160 L 260 140 L 260 120 L 240 120 z M 380 120 L 380 140 L 380 160 L 380 180 L 380 200 L 380 220 L 380 240 L 380 260 L 380 280 L 380 300 L 380 320 L 360 320 L 360 340 L 360 360 L 380 360 L 380 340 L 400 340 L 400 320 L 420 320 L 420 300 L 420 280 L 400 280 L 400 260 L 400 240 L 400 220 L 400 200 L 400 180 L 400 160 L 400 140 L 400 120 L 380 120 z "
     id="rect3366" />
</svg>
