<?xml version="1.0" encoding="UTF-8" standalone="no"?>
<svg
   xmlns:dc="http://purl.org/dc/elements/1.1/"
   xmlns:cc="http://creativecommons.org/ns#"
   xmlns:rdf="http://www.w3.org/1999/02/22-rdf-syntax-ns#"
   xmlns:svg="http://www.w3.org/2000/svg"
   xmlns="http://www.w3.org/2000/svg"
   height="640px"
   version="1.1"
   width="640px"
   id="svg1626">
  <metadata
     id="metadata1630">
    <rdf:RDF>
      <cc:Work
         rdf:about="">
        <dc:format>image/svg+xml</dc:format>
        <dc:type
           rdf:resource="http://purl.org/dc/dcmitype/StillImage" />
      </cc:Work>
    </rdf:RDF>
  </metadata>
  <defs
     id="defs2" />
  <path
     id="rect1444"
     d="M 260 60 L 260 80 L 240 80 L 240 100 L 220 100 L 220 120 L 220 140 L 200 140 L 200 160 L 200 180 L 200 200 L 200 220 L 200 240 L 200 260 L 200 280 L 200 300 L 220 300 L 220 320 L 220 340 L 240 340 L 240 360 L 240 380 L 260 380 L 260 400 L 280 400 L 280 420 L 300 420 L 320 420 L 340 420 L 340 400 L 360 400 L 360 380 L 380 380 L 380 360 L 380 340 L 400 340 L 400 320 L 400 300 L 420 300 L 420 280 L 420 260 L 420 240 L 420 220 L 420 200 L 420 180 L 420 160 L 420 140 L 400 140 L 400 120 L 400 100 L 380 100 L 380 80 L 360 80 L 360 60 L 340 60 L 320 60 L 300 60 L 280 60 L 260 60 z M 280 440 L 280 460 L 260 460 L 260 480 L 240 480 L 240 500 L 240 520 L 240 540 L 260 540 L 260 560 L 280 560 L 280 580 L 300 580 L 320 580 L 340 580 L 340 560 L 360 560 L 360 540 L 380 540 L 380 520 L 380 500 L 380 480 L 360 480 L 360 460 L 340 460 L 340 440 L 320 440 L 300 440 L 280 440 z "
     style="fill:#ff0000" />
  <path
     id="rect1516"
     d="M 80 20 L 80 40 L 80 60 L 80 80 L 80 100 L 80 120 L 80 140 L 80 160 L 80 180 L 80 200 L 80 220 L 80 240 L 80 260 L 80 280 L 80 300 L 80 320 L 80 340 L 80 360 L 80 380 L 80 400 L 80 420 L 80 440 L 80 460 L 80 480 L 80 500 L 80 520 L 80 540 L 80 560 L 80 580 L 80 600 L 100 600 L 120 600 L 140 600 L 160 600 L 180 600 L 200 600 L 220 600 L 240 600 L 260 600 L 280 600 L 300 600 L 320 600 L 340 600 L 360 600 L 380 600 L 400 600 L 420 600 L 440 600 L 460 600 L 480 600 L 500 600 L 520 600 L 540 600 L 540 580 L 540 560 L 540 540 L 540 520 L 540 500 L 540 480 L 540 460 L 540 440 L 540 420 L 540 400 L 540 380 L 540 360 L 540 340 L 540 320 L 540 300 L 540 280 L 540 260 L 540 240 L 540 220 L 540 200 L 540 180 L 540 160 L 540 140 L 520 140 L 500 140 L 480 140 L 460 140 L 440 140 L 440 120 L 440 100 L 440 80 L 440 60 L 440 40 L 440 20 L 420 20 L 400 20 L 380 20 L 360 20 L 340 20 L 320 20 L 300 20 L 280 20 L 260 20 L 240 20 L 220 20 L 200 20 L 180 20 L 160 20 L 140 20 L 120 20 L 100 20 L 80 20 z M 260 60 L 280 60 L 300 60 L 320 60 L 340 60 L 360 60 L 360 80 L 380 80 L 380 100 L 400 100 L 400 120 L 400 140 L 420 140 L 420 160 L 420 180 L 420 200 L 420 220 L 420 240 L 420 260 L 420 280 L 420 300 L 400 300 L 400 320 L 400 340 L 380 340 L 380 360 L 380 380 L 360 380 L 360 400 L 340 400 L 340 420 L 320 420 L 300 420 L 280 420 L 280 400 L 260 400 L 260 380 L 240 380 L 240 360 L 240 340 L 220 340 L 220 320 L 220 300 L 200 300 L 200 280 L 200 260 L 200 240 L 200 220 L 200 200 L 200 180 L 200 160 L 200 140 L 220 140 L 220 120 L 220 100 L 240 100 L 240 80 L 260 80 L 260 60 z M 460 80 L 460 100 L 460 120 L 480 120 L 500 120 L 500 100 L 480 100 L 480 80 L 460 80 z M 280 440 L 300 440 L 320 440 L 340 440 L 340 460 L 360 460 L 360 480 L 380 480 L 380 500 L 380 520 L 380 540 L 360 540 L 360 560 L 340 560 L 340 580 L 320 580 L 300 580 L 280 580 L 280 560 L 260 560 L 260 540 L 240 540 L 240 520 L 240 500 L 240 480 L 260 480 L 260 460 L 280 460 L 280 440 z "
     style="fill:#ffffff" />
  <path
     id="rect1522"
     d="M 60 0 L 60 20 L 60 40 L 60 60 L 60 80 L 60 100 L 60 120 L 60 140 L 60 160 L 60 180 L 60 200 L 60 220 L 60 240 L 60 260 L 60 280 L 60 300 L 60 320 L 60 340 L 60 360 L 60 380 L 60 400 L 60 420 L 60 440 L 60 460 L 60 480 L 60 500 L 60 520 L 60 540 L 60 560 L 60 580 L 60 600 L 60 620 L 80 620 L 80 600 L 80 580 L 80 560 L 80 540 L 80 520 L 80 500 L 80 480 L 80 460 L 80 440 L 80 420 L 80 400 L 80 380 L 80 360 L 80 340 L 80 320 L 80 300 L 80 280 L 80 260 L 80 240 L 80 220 L 80 200 L 80 180 L 80 160 L 80 140 L 80 120 L 80 100 L 80 80 L 80 60 L 80 40 L 80 20 L 100 20 L 120 20 L 140 20 L 160 20 L 180 20 L 200 20 L 220 20 L 240 20 L 260 20 L 280 20 L 300 20 L 320 20 L 340 20 L 360 20 L 380 20 L 400 20 L 420 20 L 440 20 L 440 40 L 440 60 L 440 80 L 440 100 L 440 120 L 440 140 L 460 140 L 460 120 L 460 100 L 460 80 L 460 60 L 480 60 L 480 40 L 460 40 L 460 20 L 460 0 L 440 0 L 420 0 L 400 0 L 380 0 L 360 0 L 340 0 L 320 0 L 300 0 L 280 0 L 260 0 L 240 0 L 220 0 L 200 0 L 180 0 L 160 0 L 140 0 L 120 0 L 100 0 L 80 0 L 60 0 z M 480 60 L 480 80 L 500 80 L 500 60 L 480 60 z M 500 80 L 500 100 L 520 100 L 520 80 L 500 80 z M 520 100 L 520 120 L 540 120 L 540 100 L 520 100 z "
     style="fill:#808080" />
  <path
     id="rect1570"
     d="M 460 60 L 460 80 L 480 80 L 480 60 L 460 60 z M 480 80 L 480 100 L 500 100 L 500 80 L 480 80 z M 500 100 L 500 120 L 520 120 L 520 100 L 500 100 z M 540 140 L 540 160 L 540 180 L 540 200 L 540 220 L 540 240 L 540 260 L 540 280 L 540 300 L 540 320 L 540 340 L 540 360 L 540 380 L 540 400 L 540 420 L 540 440 L 540 460 L 540 480 L 540 500 L 540 520 L 540 540 L 540 560 L 540 580 L 540 600 L 520 600 L 500 600 L 480 600 L 460 600 L 440 600 L 420 600 L 400 600 L 380 600 L 360 600 L 340 600 L 320 600 L 300 600 L 280 600 L 260 600 L 240 600 L 220 600 L 200 600 L 180 600 L 160 600 L 140 600 L 120 600 L 100 600 L 80 600 L 80 620 L 100 620 L 120 620 L 140 620 L 160 620 L 180 620 L 200 620 L 220 620 L 240 620 L 260 620 L 280 620 L 300 620 L 320 620 L 340 620 L 360 620 L 380 620 L 400 620 L 420 620 L 440 620 L 460 620 L 480 620 L 500 620 L 520 620 L 540 620 L 560 620 L 560 600 L 560 580 L 560 560 L 560 540 L 560 520 L 560 500 L 560 480 L 560 460 L 560 440 L 560 420 L 560 400 L 560 380 L 560 360 L 560 340 L 560 320 L 560 300 L 560 280 L 560 260 L 560 240 L 560 220 L 560 200 L 560 180 L 560 160 L 560 140 L 540 140 z "
     style="fill:#c0c0c0" />
  <path
     id="rect1624"
     d="M 460 20 L 460 40 L 480 40 L 480 20 L 460 20 z M 480 40 L 480 60 L 500 60 L 500 40 L 480 40 z M 500 60 L 500 80 L 520 80 L 520 60 L 500 60 z M 520 80 L 520 100 L 540 100 L 540 80 L 520 80 z M 540 100 L 540 120 L 520 120 L 500 120 L 480 120 L 460 120 L 460 140 L 480 140 L 500 140 L 520 140 L 540 140 L 560 140 L 560 160 L 560 180 L 560 200 L 560 220 L 560 240 L 560 260 L 560 280 L 560 300 L 560 320 L 560 340 L 560 360 L 560 380 L 560 400 L 560 420 L 560 440 L 560 460 L 560 480 L 560 500 L 560 520 L 560 540 L 560 560 L 560 580 L 560 600 L 560 620 L 540 620 L 520 620 L 500 620 L 480 620 L 460 620 L 440 620 L 420 620 L 400 620 L 380 620 L 360 620 L 340 620 L 320 620 L 300 620 L 280 620 L 260 620 L 240 620 L 220 620 L 200 620 L 180 620 L 160 620 L 140 620 L 120 620 L 100 620 L 80 620 L 60 620 L 60 640 L 80 640 L 100 640 L 120 640 L 140 640 L 160 640 L 180 640 L 200 640 L 220 640 L 240 640 L 260 640 L 280 640 L 300 640 L 320 640 L 340 640 L 360 640 L 380 640 L 400 640 L 420 640 L 440 640 L 460 640 L 480 640 L 500 640 L 520 640 L 540 640 L 560 640 L 580 640 L 580 620 L 580 600 L 580 580 L 580 560 L 580 540 L 580 520 L 580 500 L 580 480 L 580 460 L 580 440 L 580 420 L 580 400 L 580 380 L 580 360 L 580 340 L 580 320 L 580 300 L 580 280 L 580 260 L 580 240 L 580 220 L 580 200 L 580 180 L 580 160 L 580 140 L 580 120 L 560 120 L 560 100 L 540 100 z "
     style="fill:#000000" />
</svg>
