<?xml version="1.0" encoding="UTF-8" standalone="no"?>
<svg
   xmlns:dc="http://purl.org/dc/elements/1.1/"
   xmlns:cc="http://creativecommons.org/ns#"
   xmlns:rdf="http://www.w3.org/1999/02/22-rdf-syntax-ns#"
   xmlns:svg="http://www.w3.org/2000/svg"
   xmlns="http://www.w3.org/2000/svg"
   id="svg3326"
   width="960px"
   version="1.1"
   height="960px">
  <metadata
     id="metadata3330">
    <rdf:RDF>
      <cc:Work
         rdf:about="">
        <dc:format>image/svg+xml</dc:format>
        <dc:type
           rdf:resource="http://purl.org/dc/dcmitype/StillImage" />
      </cc:Work>
    </rdf:RDF>
  </metadata>
  <defs
     id="defs2" />
  <path
     style="fill:#ff00ff"
     d="M 520 120 L 520 140 L 520 160 L 540 160 L 560 160 L 560 140 L 540 140 L 540 120 L 520 120 z M 400 180 L 400 200 L 400 220 L 420 220 L 440 220 L 440 200 L 420 200 L 420 180 L 400 180 z M 280 240 L 280 260 L 280 280 L 300 280 L 320 280 L 320 260 L 300 260 L 300 240 L 280 240 z "
     id="rect648" />
  <path
     style="fill:#808000"
     d="M 580 60 L 580 80 L 580 100 L 600 100 L 620 100 L 620 80 L 620 60 L 600 60 L 580 60 z M 520 100 L 520 120 L 540 120 L 540 100 L 520 100 z M 460 120 L 460 140 L 460 160 L 480 160 L 480 140 L 480 120 L 460 120 z M 400 160 L 400 180 L 420 180 L 420 160 L 400 160 z M 340 180 L 340 200 L 340 220 L 360 220 L 360 200 L 360 180 L 340 180 z M 280 220 L 280 240 L 300 240 L 300 220 L 280 220 z M 220 240 L 220 260 L 220 280 L 240 280 L 240 260 L 240 240 L 220 240 z M 760 340 L 760 360 L 740 360 L 720 360 L 720 380 L 700 380 L 680 380 L 680 400 L 660 400 L 640 400 L 640 420 L 620 420 L 600 420 L 600 440 L 580 440 L 560 440 L 560 460 L 560 480 L 580 480 L 600 480 L 600 500 L 620 500 L 640 500 L 640 480 L 660 480 L 680 480 L 680 460 L 700 460 L 720 460 L 720 440 L 740 440 L 760 440 L 760 420 L 780 420 L 800 420 L 800 400 L 820 400 L 840 400 L 840 380 L 840 360 L 820 360 L 800 360 L 800 340 L 780 340 L 760 340 z "
     id="rect1558" />
  <path
     style="fill:#008000"
     d="M 580 20 L 580 40 L 560 40 L 540 40 L 540 60 L 520 60 L 500 60 L 500 80 L 520 80 L 540 80 L 560 80 L 580 80 L 580 60 L 600 60 L 620 60 L 620 40 L 600 40 L 600 20 L 580 20 z M 620 60 L 620 80 L 620 100 L 620 120 L 640 120 L 640 140 L 660 140 L 660 160 L 680 160 L 680 140 L 700 140 L 720 140 L 720 120 L 740 120 L 740 140 L 760 140 L 780 140 L 780 160 L 800 160 L 820 160 L 820 180 L 840 180 L 860 180 L 860 200 L 840 200 L 840 220 L 820 220 L 800 220 L 800 240 L 780 240 L 760 240 L 760 260 L 740 260 L 720 260 L 720 280 L 700 280 L 680 280 L 660 280 L 660 260 L 640 260 L 640 240 L 620 240 L 600 240 L 580 240 L 580 260 L 600 260 L 600 280 L 620 280 L 640 280 L 640 300 L 660 300 L 660 320 L 640 320 L 640 340 L 620 340 L 600 340 L 600 360 L 580 360 L 560 360 L 560 380 L 540 380 L 520 380 L 520 400 L 500 400 L 480 400 L 460 400 L 460 380 L 440 380 L 420 380 L 420 360 L 400 360 L 400 380 L 400 400 L 420 400 L 440 400 L 440 420 L 460 420 L 480 420 L 480 440 L 500 440 L 520 440 L 520 420 L 540 420 L 560 420 L 560 400 L 580 400 L 600 400 L 600 380 L 620 380 L 640 380 L 640 360 L 660 360 L 680 360 L 680 340 L 700 340 L 720 340 L 720 320 L 740 320 L 760 320 L 760 300 L 780 300 L 800 300 L 800 280 L 820 280 L 840 280 L 840 260 L 860 260 L 880 260 L 880 240 L 900 240 L 920 240 L 920 220 L 940 220 L 940 200 L 920 200 L 900 200 L 900 180 L 880 180 L 880 160 L 860 160 L 840 160 L 840 140 L 820 140 L 800 140 L 800 120 L 780 120 L 760 120 L 760 100 L 740 100 L 720 100 L 720 80 L 700 80 L 680 80 L 680 60 L 660 60 L 640 60 L 620 60 z M 640 140 L 620 140 L 620 160 L 640 160 L 640 140 z M 620 140 L 620 120 L 600 120 L 600 140 L 620 140 z M 600 140 L 580 140 L 580 160 L 600 160 L 600 140 z M 600 120 L 600 100 L 580 100 L 580 120 L 600 120 z M 500 80 L 480 80 L 480 100 L 500 100 L 500 80 z M 180 620 L 180 640 L 180 660 L 200 660 L 200 640 L 200 620 L 180 620 z M 240 660 L 240 680 L 240 700 L 260 700 L 260 680 L 260 660 L 240 660 z "
     id="rect2458" />
  <path
     style="fill:#ff0000"
     d="M 580 160 L 580 180 L 600 180 L 600 160 L 580 160 z M 460 220 L 460 240 L 480 240 L 480 220 L 460 220 z M 340 280 L 340 300 L 360 300 L 360 280 L 340 280 z M 280 660 L 280 680 L 280 700 L 280 720 L 300 720 L 300 700 L 300 680 L 300 660 L 280 660 z M 340 700 L 340 720 L 340 740 L 340 760 L 360 760 L 360 740 L 360 720 L 360 700 L 340 700 z M 400 720 L 400 740 L 400 760 L 400 780 L 420 780 L 420 760 L 420 740 L 420 720 L 400 720 z "
     id="rect2818" />
  <path
     style="fill:#800000"
     d="M 300 680 L 300 700 L 300 720 L 320 720 L 320 700 L 320 680 L 300 680 z M 360 720 L 360 740 L 360 760 L 380 760 L 380 740 L 380 720 L 360 720 z M 420 740 L 420 760 L 420 780 L 440 780 L 440 760 L 440 740 L 420 740 z "
     id="rect2820" />
  <path
     style="fill:#ffffff"
     d="M 600 200 L 600 220 L 620 220 L 640 220 L 640 200 L 620 200 L 600 200 z M 640 220 L 640 240 L 660 240 L 680 240 L 680 220 L 660 220 L 640 220 z M 680 240 L 680 260 L 700 260 L 700 240 L 680 240 z M 40 280 L 40 300 L 20 300 L 20 320 L 20 340 L 20 360 L 20 380 L 40 380 L 60 380 L 60 360 L 60 340 L 60 320 L 60 300 L 60 280 L 40 280 z M 120 280 L 120 300 L 140 300 L 160 300 L 160 280 L 140 280 L 120 280 z M 160 300 L 160 320 L 180 320 L 200 320 L 200 300 L 180 300 L 160 300 z M 200 320 L 200 340 L 220 340 L 240 340 L 240 320 L 220 320 L 200 320 z M 240 340 L 240 360 L 260 360 L 280 360 L 280 340 L 260 340 L 240 340 z M 280 360 L 280 380 L 300 380 L 320 380 L 320 360 L 300 360 L 280 360 z M 320 380 L 320 400 L 340 400 L 360 400 L 360 380 L 340 380 L 320 380 z M 360 400 L 360 420 L 380 420 L 400 420 L 400 400 L 380 400 L 360 400 z M 400 420 L 400 440 L 420 440 L 440 440 L 440 420 L 420 420 L 400 420 z M 440 440 L 440 460 L 460 460 L 480 460 L 480 440 L 460 440 L 440 440 z M 480 460 L 480 480 L 500 480 L 520 480 L 520 460 L 500 460 L 480 460 z M 520 480 L 520 500 L 540 500 L 560 500 L 560 480 L 540 480 L 520 480 z M 560 500 L 560 520 L 580 520 L 580 500 L 560 500 z M 380 320 L 380 340 L 400 340 L 420 340 L 420 320 L 400 320 L 380 320 z M 420 340 L 420 360 L 440 360 L 460 360 L 460 340 L 440 340 L 420 340 z M 460 360 L 460 380 L 480 380 L 500 380 L 500 360 L 480 360 L 460 360 z M 260 460 L 260 480 L 240 480 L 220 480 L 220 500 L 200 500 L 180 500 L 160 500 L 160 520 L 160 540 L 180 540 L 200 540 L 200 520 L 220 520 L 240 520 L 260 520 L 260 500 L 280 500 L 300 500 L 300 480 L 320 480 L 320 460 L 300 460 L 280 460 L 260 460 z M 200 540 L 200 560 L 220 560 L 240 560 L 240 540 L 220 540 L 200 540 z M 240 560 L 240 580 L 260 580 L 280 580 L 280 560 L 260 560 L 240 560 z M 280 580 L 280 600 L 300 600 L 320 600 L 320 580 L 300 580 L 280 580 z M 320 600 L 320 620 L 340 620 L 360 620 L 360 600 L 340 600 L 320 600 z M 360 620 L 360 640 L 380 640 L 400 640 L 400 620 L 380 620 L 360 620 z M 400 640 L 400 660 L 420 660 L 440 660 L 440 640 L 420 640 L 400 640 z M 440 660 L 440 680 L 440 700 L 440 720 L 460 720 L 480 720 L 480 700 L 460 700 L 460 680 L 460 660 L 440 660 z M 160 540 L 140 540 L 120 540 L 100 540 L 100 560 L 120 560 L 140 560 L 160 560 L 160 540 z M 100 540 L 100 520 L 80 520 L 60 520 L 40 520 L 40 540 L 40 560 L 40 580 L 40 600 L 40 620 L 40 640 L 40 660 L 40 680 L 60 680 L 60 660 L 60 640 L 60 620 L 60 600 L 60 580 L 60 560 L 60 540 L 80 540 L 100 540 z M 860 600 L 860 620 L 880 620 L 880 600 L 860 600 z M 880 620 L 880 640 L 900 640 L 900 620 L 880 620 z M 880 640 L 860 640 L 860 660 L 880 660 L 880 640 z M 860 660 L 840 660 L 840 680 L 860 680 L 860 660 z M 840 680 L 820 680 L 820 700 L 840 700 L 840 680 z M 820 700 L 800 700 L 800 720 L 820 720 L 820 700 z M 800 700 L 800 680 L 780 680 L 780 700 L 800 700 z M 800 680 L 820 680 L 820 660 L 800 660 L 800 680 z M 820 660 L 840 660 L 840 640 L 820 640 L 820 660 z M 840 640 L 860 640 L 860 620 L 840 620 L 840 640 z M 660 760 L 660 780 L 680 780 L 680 760 L 660 760 z M 680 780 L 680 800 L 700 800 L 700 780 L 680 780 z M 680 800 L 660 800 L 660 820 L 680 820 L 680 800 z M 660 820 L 640 820 L 640 840 L 660 840 L 660 820 z M 640 840 L 620 840 L 620 860 L 640 860 L 640 840 z M 620 860 L 600 860 L 600 880 L 620 880 L 620 860 z M 600 860 L 600 840 L 580 840 L 580 860 L 600 860 z M 600 840 L 620 840 L 620 820 L 600 820 L 600 840 z M 620 820 L 640 820 L 640 800 L 620 800 L 620 820 z M 640 800 L 660 800 L 660 780 L 640 780 L 640 800 z M 720 800 L 720 820 L 740 820 L 760 820 L 760 800 L 740 800 L 720 800 z "
     id="rect3174" />
  <path
     style="fill:#00ffff"
     d="M 620 560 L 620 580 L 600 580 L 600 600 L 620 600 L 620 620 L 640 620 L 640 640 L 660 640 L 660 620 L 660 600 L 640 600 L 640 580 L 640 560 L 620 560 z M 660 640 L 660 660 L 660 680 L 680 680 L 680 700 L 700 700 L 700 680 L 700 660 L 680 660 L 680 640 L 660 640 z M 780 760 L 780 780 L 780 800 L 800 800 L 800 820 L 820 820 L 820 840 L 840 840 L 840 860 L 860 860 L 860 880 L 880 880 L 900 880 L 900 860 L 920 860 L 920 840 L 920 820 L 900 820 L 880 820 L 860 820 L 860 800 L 840 800 L 840 780 L 820 780 L 800 780 L 800 760 L 780 760 z "
     id="rect3202" />
  <path
     style="fill:#ffff00"
     d="M 540 120 L 540 140 L 560 140 L 560 120 L 540 120 z M 560 140 L 560 160 L 580 160 L 580 140 L 560 140 z M 600 160 L 600 180 L 620 180 L 620 160 L 600 160 z M 420 180 L 420 200 L 440 200 L 440 180 L 420 180 z M 440 200 L 440 220 L 460 220 L 460 200 L 440 200 z M 480 220 L 480 240 L 500 240 L 500 220 L 480 220 z M 300 240 L 300 260 L 320 260 L 320 240 L 300 240 z M 320 260 L 320 280 L 340 280 L 340 260 L 320 260 z M 360 280 L 360 300 L 380 300 L 380 280 L 360 280 z M 660 540 L 660 560 L 640 560 L 640 580 L 640 600 L 660 600 L 660 620 L 660 640 L 680 640 L 680 660 L 700 660 L 700 680 L 700 700 L 720 700 L 720 680 L 720 660 L 720 640 L 720 620 L 720 600 L 720 580 L 720 560 L 720 540 L 700 540 L 680 540 L 660 540 z M 780 800 L 780 820 L 780 840 L 780 860 L 780 880 L 800 880 L 800 900 L 800 920 L 820 920 L 840 920 L 860 920 L 860 900 L 880 900 L 880 880 L 860 880 L 860 860 L 840 860 L 840 840 L 820 840 L 820 820 L 800 820 L 800 800 L 780 800 z "
     id="rect3282" />
  <path
     style="fill:#c0c0c0"
     d="M 540 100 L 540 120 L 560 120 L 560 100 L 540 100 z M 480 120 L 480 140 L 480 160 L 500 160 L 500 140 L 500 120 L 480 120 z M 720 140 L 720 160 L 700 160 L 680 160 L 680 180 L 660 180 L 640 180 L 640 200 L 640 220 L 660 220 L 680 220 L 680 240 L 700 240 L 700 260 L 720 260 L 720 240 L 740 240 L 760 240 L 760 220 L 780 220 L 800 220 L 800 200 L 820 200 L 820 180 L 800 180 L 780 180 L 780 160 L 760 160 L 740 160 L 740 140 L 720 140 z M 420 160 L 420 180 L 440 180 L 440 160 L 420 160 z M 360 180 L 360 200 L 360 220 L 380 220 L 380 200 L 380 180 L 360 180 z M 300 220 L 300 240 L 320 240 L 320 220 L 300 220 z M 240 240 L 240 260 L 240 280 L 260 280 L 260 260 L 260 240 L 240 240 z M 480 260 L 480 280 L 460 280 L 440 280 L 440 300 L 420 300 L 400 300 L 400 320 L 420 320 L 420 340 L 440 340 L 460 340 L 460 360 L 480 360 L 500 360 L 500 380 L 520 380 L 520 360 L 540 360 L 560 360 L 560 340 L 580 340 L 600 340 L 600 320 L 620 320 L 640 320 L 640 300 L 620 300 L 600 300 L 600 280 L 580 280 L 560 280 L 560 260 L 540 260 L 520 260 L 500 260 L 480 260 z M 60 300 L 60 320 L 60 340 L 60 360 L 60 380 L 40 380 L 20 380 L 20 400 L 40 400 L 60 400 L 80 400 L 80 380 L 80 360 L 80 340 L 80 320 L 80 300 L 60 300 z M 120 300 L 120 320 L 120 340 L 120 360 L 140 360 L 160 360 L 160 380 L 180 380 L 200 380 L 200 400 L 220 400 L 240 400 L 240 420 L 260 420 L 280 420 L 280 440 L 300 440 L 320 440 L 320 460 L 340 460 L 360 460 L 360 480 L 380 480 L 400 480 L 400 500 L 420 500 L 440 500 L 440 520 L 460 520 L 480 520 L 480 540 L 500 540 L 520 540 L 520 560 L 540 560 L 560 560 L 560 580 L 580 580 L 580 560 L 580 540 L 580 520 L 560 520 L 560 500 L 540 500 L 520 500 L 520 480 L 500 480 L 480 480 L 480 460 L 460 460 L 440 460 L 440 440 L 420 440 L 400 440 L 400 420 L 380 420 L 360 420 L 360 400 L 340 400 L 320 400 L 320 380 L 300 380 L 280 380 L 280 360 L 260 360 L 240 360 L 240 340 L 220 340 L 200 340 L 200 320 L 180 320 L 160 320 L 160 300 L 140 300 L 120 300 z M 520 560 L 500 560 L 480 560 L 480 540 L 460 540 L 440 540 L 440 520 L 420 520 L 400 520 L 400 500 L 380 500 L 360 500 L 360 480 L 340 480 L 320 480 L 300 480 L 300 500 L 280 500 L 260 500 L 260 520 L 240 520 L 220 520 L 200 520 L 200 540 L 220 540 L 240 540 L 240 560 L 260 560 L 280 560 L 280 580 L 300 580 L 320 580 L 320 600 L 340 600 L 360 600 L 360 620 L 380 620 L 400 620 L 400 640 L 420 640 L 440 640 L 440 660 L 460 660 L 460 640 L 480 640 L 480 620 L 500 620 L 520 620 L 520 600 L 540 600 L 540 580 L 520 580 L 520 560 z M 520 620 L 520 640 L 500 640 L 480 640 L 480 660 L 460 660 L 460 680 L 460 700 L 480 700 L 480 720 L 500 720 L 520 720 L 520 700 L 520 680 L 520 660 L 540 660 L 540 640 L 540 620 L 520 620 z M 540 660 L 540 680 L 540 700 L 540 720 L 540 740 L 540 760 L 540 780 L 540 800 L 540 820 L 560 820 L 560 840 L 560 860 L 580 860 L 580 840 L 600 840 L 600 820 L 620 820 L 620 800 L 640 800 L 640 780 L 660 780 L 660 760 L 680 760 L 680 740 L 680 720 L 660 720 L 660 700 L 640 700 L 640 680 L 620 680 L 620 660 L 600 660 L 600 640 L 580 640 L 580 620 L 560 620 L 560 640 L 560 660 L 540 660 z M 680 760 L 680 780 L 700 780 L 700 760 L 680 760 z M 700 780 L 700 800 L 680 800 L 680 820 L 660 820 L 660 840 L 640 840 L 640 860 L 620 860 L 620 880 L 600 880 L 600 900 L 620 900 L 620 920 L 640 920 L 660 920 L 660 940 L 680 940 L 700 940 L 720 940 L 740 940 L 760 940 L 760 920 L 760 900 L 760 880 L 760 860 L 760 840 L 760 820 L 740 820 L 720 820 L 720 800 L 720 780 L 700 780 z M 600 880 L 600 860 L 580 860 L 580 880 L 600 880 z M 600 860 L 620 860 L 620 840 L 600 840 L 600 860 z M 620 840 L 640 840 L 640 820 L 620 820 L 620 840 z M 640 820 L 660 820 L 660 800 L 640 800 L 640 820 z M 660 800 L 680 800 L 680 780 L 660 780 L 660 800 z M 480 720 L 460 720 L 440 720 L 440 700 L 440 680 L 440 660 L 420 660 L 400 660 L 400 640 L 380 640 L 360 640 L 360 620 L 340 620 L 320 620 L 320 600 L 300 600 L 280 600 L 280 580 L 260 580 L 240 580 L 240 560 L 220 560 L 200 560 L 200 540 L 180 540 L 160 540 L 160 560 L 140 560 L 120 560 L 100 560 L 100 540 L 80 540 L 60 540 L 60 560 L 60 580 L 60 600 L 60 620 L 60 640 L 60 660 L 60 680 L 80 680 L 80 700 L 100 700 L 120 700 L 120 720 L 140 720 L 160 720 L 160 740 L 180 740 L 200 740 L 200 760 L 220 760 L 240 760 L 240 780 L 260 780 L 280 780 L 280 800 L 300 800 L 320 800 L 320 820 L 340 820 L 360 820 L 360 840 L 380 840 L 400 840 L 400 860 L 420 860 L 440 860 L 440 880 L 460 880 L 480 880 L 480 860 L 480 840 L 480 820 L 480 800 L 480 780 L 480 760 L 480 740 L 480 720 z M 100 540 L 120 540 L 140 540 L 160 540 L 160 520 L 160 500 L 180 500 L 200 500 L 220 500 L 220 480 L 240 480 L 260 480 L 260 460 L 280 460 L 280 440 L 260 440 L 240 440 L 220 440 L 200 440 L 200 460 L 180 460 L 160 460 L 160 480 L 140 480 L 120 480 L 120 500 L 100 500 L 80 500 L 80 520 L 100 520 L 100 540 z M 720 340 L 720 360 L 740 360 L 760 360 L 760 340 L 740 340 L 720 340 z M 720 360 L 700 360 L 680 360 L 680 380 L 700 380 L 720 380 L 720 360 z M 680 380 L 660 380 L 640 380 L 640 400 L 660 400 L 680 400 L 680 380 z M 640 400 L 620 400 L 600 400 L 600 420 L 620 420 L 640 420 L 640 400 z M 600 420 L 580 420 L 560 420 L 560 440 L 580 440 L 600 440 L 600 420 z M 560 440 L 540 440 L 520 440 L 520 460 L 540 460 L 560 460 L 560 440 z M 800 420 L 800 440 L 780 440 L 760 440 L 760 460 L 740 460 L 720 460 L 720 480 L 700 480 L 680 480 L 680 500 L 660 500 L 640 500 L 640 520 L 620 520 L 600 520 L 600 540 L 600 560 L 620 560 L 620 540 L 640 540 L 660 540 L 660 520 L 680 520 L 700 520 L 720 520 L 720 500 L 740 500 L 760 500 L 760 480 L 780 480 L 800 480 L 800 460 L 820 460 L 840 460 L 840 440 L 820 440 L 820 420 L 800 420 z M 840 460 L 840 480 L 820 480 L 800 480 L 800 500 L 780 500 L 760 500 L 760 520 L 780 520 L 800 520 L 820 520 L 820 540 L 840 540 L 860 540 L 860 520 L 880 520 L 900 520 L 900 500 L 920 500 L 940 500 L 940 480 L 920 480 L 900 480 L 900 460 L 880 460 L 860 460 L 840 460 z M 820 540 L 800 540 L 780 540 L 760 540 L 740 540 L 720 540 L 720 560 L 720 580 L 720 600 L 720 620 L 720 640 L 720 660 L 720 680 L 740 680 L 760 680 L 760 700 L 780 700 L 780 680 L 800 680 L 800 660 L 820 660 L 820 640 L 840 640 L 840 620 L 860 620 L 860 600 L 880 600 L 880 580 L 860 580 L 860 560 L 840 560 L 820 560 L 820 540 z M 880 600 L 880 620 L 900 620 L 900 600 L 880 600 z M 900 620 L 900 640 L 880 640 L 880 660 L 860 660 L 860 680 L 840 680 L 840 700 L 820 700 L 820 720 L 800 720 L 800 740 L 800 760 L 800 780 L 820 780 L 840 780 L 840 800 L 860 800 L 860 820 L 880 820 L 900 820 L 920 820 L 940 820 L 940 800 L 940 780 L 940 760 L 940 740 L 940 720 L 940 700 L 940 680 L 940 660 L 920 660 L 920 640 L 920 620 L 900 620 z M 800 720 L 800 700 L 780 700 L 780 720 L 800 720 z M 800 700 L 820 700 L 820 680 L 800 680 L 800 700 z M 820 680 L 840 680 L 840 660 L 820 660 L 820 680 z M 840 660 L 860 660 L 860 640 L 840 640 L 840 660 z M 860 640 L 880 640 L 880 620 L 860 620 L 860 640 z M 160 600 L 180 600 L 180 620 L 200 620 L 200 640 L 200 660 L 180 660 L 160 660 L 160 640 L 160 620 L 160 600 z M 220 640 L 240 640 L 240 660 L 260 660 L 260 680 L 260 700 L 240 700 L 220 700 L 220 680 L 220 660 L 220 640 z M 280 660 L 300 660 L 300 680 L 320 680 L 320 700 L 320 720 L 300 720 L 280 720 L 280 700 L 280 680 L 280 660 z M 340 700 L 360 700 L 360 720 L 380 720 L 380 740 L 380 760 L 360 760 L 340 760 L 340 740 L 340 720 L 340 700 z M 400 720 L 420 720 L 420 740 L 440 740 L 440 760 L 440 780 L 420 780 L 400 780 L 400 760 L 400 740 L 400 720 z M 720 720 L 720 740 L 720 760 L 740 760 L 760 760 L 760 740 L 760 720 L 740 720 L 720 720 z "
     id="rect3298" />
  <path
     style="fill:#00ff00"
     d="M 460 80 L 460 100 L 440 100 L 420 100 L 420 120 L 400 120 L 380 120 L 380 140 L 360 140 L 340 140 L 340 160 L 320 160 L 300 160 L 300 180 L 280 180 L 260 180 L 260 200 L 240 200 L 220 200 L 220 220 L 200 220 L 180 220 L 180 240 L 160 240 L 140 240 L 140 260 L 160 260 L 160 280 L 180 280 L 200 280 L 200 300 L 220 300 L 240 300 L 240 320 L 260 320 L 280 320 L 280 340 L 300 340 L 320 340 L 320 360 L 340 360 L 360 360 L 360 380 L 380 380 L 400 380 L 400 360 L 380 360 L 380 340 L 360 340 L 340 340 L 340 320 L 360 320 L 360 300 L 340 300 L 320 300 L 300 300 L 300 280 L 280 280 L 280 260 L 280 240 L 280 220 L 300 220 L 320 220 L 320 240 L 320 260 L 340 260 L 340 280 L 360 280 L 380 280 L 380 300 L 400 300 L 400 280 L 420 280 L 440 280 L 440 260 L 460 260 L 480 260 L 480 240 L 460 240 L 440 240 L 420 240 L 420 220 L 400 220 L 400 200 L 400 180 L 400 160 L 420 160 L 440 160 L 440 180 L 440 200 L 460 200 L 460 220 L 480 220 L 500 220 L 500 240 L 520 240 L 540 240 L 560 240 L 560 260 L 580 260 L 580 240 L 600 240 L 600 220 L 580 220 L 580 200 L 600 200 L 600 180 L 580 180 L 560 180 L 540 180 L 540 160 L 520 160 L 520 140 L 520 120 L 520 100 L 540 100 L 560 100 L 560 120 L 560 140 L 580 140 L 600 140 L 600 120 L 580 120 L 580 100 L 580 80 L 560 80 L 540 80 L 520 80 L 500 80 L 500 100 L 480 100 L 480 80 L 460 80 z M 600 120 L 620 120 L 620 100 L 600 100 L 600 120 z M 620 120 L 620 140 L 640 140 L 640 120 L 620 120 z M 640 140 L 640 160 L 660 160 L 660 140 L 640 140 z M 640 160 L 620 160 L 620 180 L 640 180 L 640 160 z M 620 160 L 620 140 L 600 140 L 600 160 L 620 160 z M 460 120 L 480 120 L 500 120 L 500 140 L 500 160 L 480 160 L 460 160 L 460 140 L 460 120 z M 340 180 L 360 180 L 380 180 L 380 200 L 380 220 L 360 220 L 340 220 L 340 200 L 340 180 z M 220 240 L 240 240 L 260 240 L 260 260 L 260 280 L 240 280 L 220 280 L 220 260 L 220 240 z M 160 600 L 160 620 L 160 640 L 160 660 L 180 660 L 180 640 L 180 620 L 180 600 L 160 600 z M 580 600 L 580 620 L 580 640 L 600 640 L 600 660 L 620 660 L 620 680 L 640 680 L 640 700 L 660 700 L 660 720 L 680 720 L 700 720 L 700 700 L 680 700 L 680 680 L 660 680 L 660 660 L 660 640 L 640 640 L 640 620 L 620 620 L 620 600 L 600 600 L 580 600 z M 220 640 L 220 660 L 220 680 L 220 700 L 240 700 L 240 680 L 240 660 L 240 640 L 220 640 z M 760 780 L 760 800 L 760 820 L 760 840 L 760 860 L 760 880 L 760 900 L 760 920 L 760 940 L 780 940 L 800 940 L 820 940 L 820 920 L 800 920 L 800 900 L 800 880 L 780 880 L 780 860 L 780 840 L 780 820 L 780 800 L 780 780 L 760 780 z "
     id="rect3304" />
  <path
     style="fill:#808080"
     d="M 580 0 L 580 20 L 600 20 L 600 0 L 580 0 z M 600 20 L 600 40 L 620 40 L 620 60 L 640 60 L 660 60 L 680 60 L 680 40 L 660 40 L 640 40 L 640 20 L 620 20 L 600 20 z M 680 60 L 680 80 L 700 80 L 720 80 L 720 60 L 700 60 L 680 60 z M 720 80 L 720 100 L 740 100 L 760 100 L 760 80 L 740 80 L 720 80 z M 760 100 L 760 120 L 780 120 L 800 120 L 800 100 L 780 100 L 760 100 z M 800 120 L 800 140 L 820 140 L 840 140 L 840 120 L 820 120 L 800 120 z M 840 140 L 840 160 L 860 160 L 880 160 L 880 140 L 860 140 L 840 140 z M 880 160 L 880 180 L 900 180 L 900 200 L 920 200 L 940 200 L 940 220 L 960 220 L 960 200 L 960 180 L 940 180 L 920 180 L 920 160 L 900 160 L 880 160 z M 580 20 L 560 20 L 540 20 L 540 40 L 560 40 L 580 40 L 580 20 z M 540 40 L 520 40 L 500 40 L 500 60 L 520 60 L 540 60 L 540 40 z M 500 60 L 480 60 L 460 60 L 460 80 L 480 80 L 500 80 L 500 60 z M 460 80 L 440 80 L 420 80 L 420 100 L 440 100 L 460 100 L 460 80 z M 420 100 L 400 100 L 380 100 L 380 120 L 400 120 L 420 120 L 420 100 z M 380 120 L 360 120 L 340 120 L 340 140 L 360 140 L 380 140 L 380 120 z M 340 140 L 320 140 L 300 140 L 300 160 L 320 160 L 340 160 L 340 140 z M 300 160 L 280 160 L 260 160 L 260 180 L 280 180 L 300 180 L 300 160 z M 260 180 L 240 180 L 220 180 L 220 200 L 240 200 L 260 200 L 260 180 z M 220 200 L 200 200 L 180 200 L 180 220 L 200 220 L 220 220 L 220 200 z M 180 220 L 160 220 L 140 220 L 140 240 L 160 240 L 180 240 L 180 220 z M 140 240 L 120 240 L 100 240 L 100 260 L 100 280 L 120 280 L 140 280 L 160 280 L 160 260 L 140 260 L 140 240 z M 160 280 L 160 300 L 180 300 L 200 300 L 200 280 L 180 280 L 160 280 z M 200 300 L 200 320 L 220 320 L 240 320 L 240 300 L 220 300 L 200 300 z M 240 320 L 240 340 L 260 340 L 280 340 L 280 320 L 260 320 L 240 320 z M 280 340 L 280 360 L 300 360 L 320 360 L 320 340 L 300 340 L 280 340 z M 320 360 L 320 380 L 340 380 L 360 380 L 360 360 L 340 360 L 320 360 z M 360 380 L 360 400 L 380 400 L 400 400 L 400 380 L 380 380 L 360 380 z M 400 400 L 400 420 L 420 420 L 440 420 L 440 400 L 420 400 L 400 400 z M 440 420 L 440 440 L 460 440 L 480 440 L 480 420 L 460 420 L 440 420 z M 480 440 L 480 460 L 500 460 L 520 460 L 520 440 L 500 440 L 480 440 z M 520 440 L 540 440 L 560 440 L 560 420 L 540 420 L 520 420 L 520 440 z M 560 420 L 580 420 L 600 420 L 600 400 L 580 400 L 560 400 L 560 420 z M 600 400 L 620 400 L 640 400 L 640 380 L 620 380 L 600 380 L 600 400 z M 640 380 L 660 380 L 680 380 L 680 360 L 660 360 L 640 360 L 640 380 z M 680 360 L 700 360 L 720 360 L 720 340 L 700 340 L 680 340 L 680 360 z M 100 280 L 80 280 L 60 280 L 60 300 L 80 300 L 80 320 L 80 340 L 80 360 L 80 380 L 80 400 L 100 400 L 100 380 L 100 360 L 100 340 L 100 320 L 100 300 L 100 280 z M 60 280 L 60 260 L 40 260 L 40 280 L 60 280 z M 40 280 L 20 280 L 0 280 L 0 300 L 0 320 L 0 340 L 0 360 L 0 380 L 20 380 L 20 360 L 20 340 L 20 320 L 20 300 L 40 300 L 40 280 z M 720 120 L 720 140 L 740 140 L 740 120 L 720 120 z M 740 140 L 740 160 L 760 160 L 780 160 L 780 140 L 760 140 L 740 140 z M 780 160 L 780 180 L 800 180 L 820 180 L 820 160 L 800 160 L 780 160 z M 820 180 L 820 200 L 840 200 L 840 180 L 820 180 z M 720 140 L 700 140 L 680 140 L 680 160 L 700 160 L 720 160 L 720 140 z M 680 160 L 660 160 L 640 160 L 640 180 L 660 180 L 680 180 L 680 160 z M 640 180 L 620 180 L 600 180 L 600 200 L 620 200 L 640 200 L 640 180 z M 600 200 L 580 200 L 580 220 L 600 220 L 600 200 z M 600 220 L 600 240 L 620 240 L 640 240 L 640 220 L 620 220 L 600 220 z M 640 240 L 640 260 L 660 260 L 660 280 L 680 280 L 680 260 L 680 240 L 660 240 L 640 240 z M 540 160 L 540 180 L 560 180 L 580 180 L 580 160 L 560 160 L 540 160 z M 420 220 L 420 240 L 440 240 L 460 240 L 460 220 L 440 220 L 420 220 z M 480 240 L 480 260 L 500 260 L 520 260 L 540 260 L 560 260 L 560 240 L 540 240 L 520 240 L 500 240 L 480 240 z M 560 260 L 560 280 L 580 280 L 600 280 L 600 260 L 580 260 L 560 260 z M 600 280 L 600 300 L 620 300 L 640 300 L 640 280 L 620 280 L 600 280 z M 480 260 L 460 260 L 440 260 L 440 280 L 460 280 L 480 280 L 480 260 z M 440 280 L 420 280 L 400 280 L 400 300 L 420 300 L 440 300 L 440 280 z M 400 300 L 380 300 L 360 300 L 360 320 L 340 320 L 340 340 L 360 340 L 380 340 L 380 320 L 400 320 L 400 300 z M 380 340 L 380 360 L 400 360 L 420 360 L 420 340 L 400 340 L 380 340 z M 420 360 L 420 380 L 440 380 L 460 380 L 460 360 L 440 360 L 420 360 z M 460 380 L 460 400 L 480 400 L 480 380 L 460 380 z M 300 280 L 300 300 L 320 300 L 340 300 L 340 280 L 320 280 L 300 280 z M 760 320 L 760 340 L 780 340 L 800 340 L 800 320 L 780 320 L 760 320 z M 800 340 L 800 360 L 820 360 L 840 360 L 840 340 L 820 340 L 800 340 z M 120 380 L 120 400 L 140 400 L 160 400 L 160 380 L 140 380 L 120 380 z M 200 420 L 200 440 L 220 440 L 240 440 L 240 420 L 220 420 L 200 420 z M 200 440 L 180 440 L 160 440 L 160 460 L 180 460 L 200 460 L 200 440 z M 160 460 L 140 460 L 120 460 L 120 480 L 140 480 L 160 480 L 160 460 z M 120 480 L 100 480 L 80 480 L 80 500 L 100 500 L 120 500 L 120 480 z M 80 500 L 60 500 L 40 500 L 40 520 L 60 520 L 80 520 L 80 500 z M 40 520 L 20 520 L 20 540 L 20 560 L 20 580 L 20 600 L 20 620 L 20 640 L 20 660 L 20 680 L 20 700 L 40 700 L 60 700 L 80 700 L 80 680 L 60 680 L 40 680 L 40 660 L 40 640 L 40 620 L 40 600 L 40 580 L 40 560 L 40 540 L 40 520 z M 80 700 L 80 720 L 100 720 L 120 720 L 120 700 L 100 700 L 80 700 z M 120 720 L 120 740 L 140 740 L 160 740 L 160 720 L 140 720 L 120 720 z M 160 740 L 160 760 L 180 760 L 200 760 L 200 740 L 180 740 L 160 740 z M 200 760 L 200 780 L 220 780 L 240 780 L 240 760 L 220 760 L 200 760 z M 240 780 L 240 800 L 260 800 L 280 800 L 280 780 L 260 780 L 240 780 z M 280 800 L 280 820 L 300 820 L 320 820 L 320 800 L 300 800 L 280 800 z M 320 820 L 320 840 L 340 840 L 360 840 L 360 820 L 340 820 L 320 820 z M 360 840 L 360 860 L 380 860 L 400 860 L 400 840 L 380 840 L 360 840 z M 400 860 L 400 880 L 420 880 L 440 880 L 440 860 L 420 860 L 400 860 z M 440 880 L 440 900 L 460 900 L 480 900 L 500 900 L 500 880 L 520 880 L 540 880 L 540 860 L 560 860 L 560 840 L 560 820 L 540 820 L 540 800 L 540 780 L 540 760 L 540 740 L 540 720 L 540 700 L 540 680 L 540 660 L 520 660 L 520 680 L 520 700 L 520 720 L 500 720 L 480 720 L 480 740 L 480 760 L 480 780 L 480 800 L 480 820 L 480 840 L 480 860 L 480 880 L 460 880 L 440 880 z M 540 660 L 560 660 L 560 640 L 560 620 L 580 620 L 580 600 L 560 600 L 560 580 L 540 580 L 540 600 L 520 600 L 520 620 L 540 620 L 540 640 L 540 660 z M 520 620 L 500 620 L 480 620 L 480 640 L 500 640 L 520 640 L 520 620 z M 480 640 L 460 640 L 460 660 L 480 660 L 480 640 z M 580 600 L 600 600 L 600 580 L 580 580 L 580 600 z M 600 580 L 620 580 L 620 560 L 600 560 L 600 580 z M 620 560 L 640 560 L 660 560 L 660 540 L 640 540 L 620 540 L 620 560 z M 660 540 L 680 540 L 700 540 L 720 540 L 740 540 L 760 540 L 780 540 L 800 540 L 820 540 L 820 520 L 800 520 L 780 520 L 760 520 L 760 500 L 740 500 L 720 500 L 720 520 L 700 520 L 680 520 L 660 520 L 660 540 z M 760 500 L 780 500 L 800 500 L 800 480 L 780 480 L 760 480 L 760 500 z M 800 480 L 820 480 L 840 480 L 840 460 L 820 460 L 800 460 L 800 480 z M 840 460 L 860 460 L 880 460 L 900 460 L 900 440 L 880 440 L 860 440 L 860 420 L 840 420 L 820 420 L 820 440 L 840 440 L 840 460 z M 900 460 L 900 480 L 920 480 L 940 480 L 940 460 L 920 460 L 900 460 z M 820 540 L 820 560 L 840 560 L 860 560 L 860 580 L 880 580 L 900 580 L 900 600 L 920 600 L 920 620 L 940 620 L 940 600 L 940 580 L 940 560 L 940 540 L 940 520 L 940 500 L 920 500 L 900 500 L 900 520 L 880 520 L 860 520 L 860 540 L 840 540 L 820 540 z M 560 860 L 560 880 L 580 880 L 580 860 L 560 860 z M 580 880 L 580 900 L 600 900 L 600 880 L 580 880 z M 600 900 L 600 920 L 620 920 L 620 900 L 600 900 z M 620 920 L 620 940 L 640 940 L 660 940 L 660 920 L 640 920 L 620 920 z M 660 940 L 660 960 L 680 960 L 700 960 L 720 960 L 720 940 L 700 940 L 680 940 L 660 940 z M 580 500 L 580 520 L 600 520 L 600 500 L 580 500 z M 720 680 L 720 700 L 740 700 L 760 700 L 760 680 L 740 680 L 720 680 z M 760 700 L 760 720 L 780 720 L 780 700 L 760 700 z M 780 720 L 780 740 L 780 760 L 800 760 L 800 740 L 800 720 L 780 720 z M 780 760 L 760 760 L 760 780 L 780 780 L 780 760 z M 760 780 L 740 780 L 720 780 L 720 800 L 740 800 L 760 800 L 760 780 z M 720 780 L 720 760 L 700 760 L 700 780 L 720 780 z M 700 760 L 700 740 L 700 720 L 680 720 L 680 740 L 680 760 L 700 760 z M 700 720 L 720 720 L 720 700 L 700 700 L 700 720 z "
     id="rect3314" />
  <path
     style="fill:#000000"
     d="M 840 180 L 840 200 L 860 200 L 860 180 L 840 180 z M 840 200 L 820 200 L 800 200 L 800 220 L 820 220 L 840 220 L 840 200 z M 800 220 L 780 220 L 760 220 L 760 240 L 780 240 L 800 240 L 800 220 z M 760 240 L 740 240 L 720 240 L 720 260 L 740 260 L 760 260 L 760 240 z M 720 260 L 700 260 L 680 260 L 680 280 L 700 280 L 720 280 L 720 260 z M 920 220 L 920 240 L 940 240 L 960 240 L 960 220 L 940 220 L 920 220 z M 920 240 L 900 240 L 880 240 L 880 260 L 900 260 L 920 260 L 920 240 z M 880 260 L 860 260 L 840 260 L 840 280 L 860 280 L 880 280 L 880 260 z M 840 280 L 820 280 L 800 280 L 800 300 L 820 300 L 840 300 L 840 280 z M 800 300 L 780 300 L 760 300 L 760 320 L 780 320 L 800 320 L 800 300 z M 760 320 L 740 320 L 720 320 L 720 340 L 740 340 L 760 340 L 760 320 z M 100 280 L 100 300 L 100 320 L 100 340 L 100 360 L 100 380 L 100 400 L 120 400 L 120 380 L 140 380 L 160 380 L 160 360 L 140 360 L 120 360 L 120 340 L 120 320 L 120 300 L 120 280 L 100 280 z M 160 380 L 160 400 L 180 400 L 200 400 L 200 380 L 180 380 L 160 380 z M 200 400 L 200 420 L 220 420 L 240 420 L 240 400 L 220 400 L 200 400 z M 240 420 L 240 440 L 260 440 L 280 440 L 280 420 L 260 420 L 240 420 z M 280 440 L 280 460 L 300 460 L 320 460 L 320 440 L 300 440 L 280 440 z M 320 460 L 320 480 L 340 480 L 360 480 L 360 460 L 340 460 L 320 460 z M 360 480 L 360 500 L 380 500 L 400 500 L 400 480 L 380 480 L 360 480 z M 400 500 L 400 520 L 420 520 L 440 520 L 440 500 L 420 500 L 400 500 z M 440 520 L 440 540 L 460 540 L 480 540 L 480 520 L 460 520 L 440 520 z M 480 540 L 480 560 L 500 560 L 520 560 L 520 540 L 500 540 L 480 540 z M 520 560 L 520 580 L 540 580 L 560 580 L 560 560 L 540 560 L 520 560 z M 560 580 L 560 600 L 580 600 L 580 580 L 560 580 z M 580 580 L 600 580 L 600 560 L 600 540 L 600 520 L 580 520 L 580 540 L 580 560 L 580 580 z M 600 520 L 620 520 L 640 520 L 640 500 L 620 500 L 600 500 L 600 520 z M 600 500 L 600 480 L 580 480 L 560 480 L 560 500 L 580 500 L 600 500 z M 560 480 L 560 460 L 540 460 L 520 460 L 520 480 L 540 480 L 560 480 z M 640 500 L 660 500 L 680 500 L 680 480 L 660 480 L 640 480 L 640 500 z M 680 480 L 700 480 L 720 480 L 720 460 L 700 460 L 680 460 L 680 480 z M 720 460 L 740 460 L 760 460 L 760 440 L 740 440 L 720 440 L 720 460 z M 760 440 L 780 440 L 800 440 L 800 420 L 780 420 L 760 420 L 760 440 z M 800 420 L 820 420 L 840 420 L 840 400 L 820 400 L 800 400 L 800 420 z M 840 400 L 860 400 L 880 400 L 880 380 L 880 360 L 860 360 L 840 360 L 840 380 L 840 400 z M 100 400 L 80 400 L 60 400 L 40 400 L 20 400 L 20 420 L 40 420 L 60 420 L 80 420 L 100 420 L 100 400 z M 20 400 L 20 380 L 0 380 L 0 400 L 20 400 z M 640 300 L 640 320 L 660 320 L 660 300 L 640 300 z M 640 320 L 620 320 L 600 320 L 600 340 L 620 340 L 640 340 L 640 320 z M 600 340 L 580 340 L 560 340 L 560 360 L 580 360 L 600 360 L 600 340 z M 560 360 L 540 360 L 520 360 L 520 380 L 540 380 L 560 380 L 560 360 z M 520 380 L 500 380 L 480 380 L 480 400 L 500 400 L 520 400 L 520 380 z M 940 480 L 940 500 L 940 520 L 940 540 L 940 560 L 940 580 L 940 600 L 940 620 L 920 620 L 920 640 L 920 660 L 940 660 L 940 680 L 940 700 L 940 720 L 940 740 L 940 760 L 940 780 L 940 800 L 940 820 L 960 820 L 960 800 L 960 780 L 960 760 L 960 740 L 960 720 L 960 700 L 960 680 L 960 660 L 960 640 L 960 620 L 960 600 L 960 580 L 960 560 L 960 540 L 960 520 L 960 500 L 960 480 L 940 480 z M 940 820 L 920 820 L 920 840 L 920 860 L 940 860 L 940 840 L 940 820 z M 920 860 L 900 860 L 900 880 L 920 880 L 920 860 z M 900 880 L 880 880 L 880 900 L 900 900 L 900 880 z M 880 900 L 860 900 L 860 920 L 880 920 L 880 900 z M 860 920 L 840 920 L 820 920 L 820 940 L 840 940 L 860 940 L 860 920 z M 820 940 L 800 940 L 780 940 L 760 940 L 740 940 L 720 940 L 720 960 L 740 960 L 760 960 L 780 960 L 800 960 L 820 960 L 820 940 z M 920 620 L 920 600 L 900 600 L 900 620 L 920 620 z M 900 600 L 900 580 L 880 580 L 880 600 L 900 600 z M 40 700 L 40 720 L 60 720 L 80 720 L 80 700 L 60 700 L 40 700 z M 80 720 L 80 740 L 100 740 L 120 740 L 120 720 L 100 720 L 80 720 z M 120 740 L 120 760 L 140 760 L 160 760 L 160 740 L 140 740 L 120 740 z M 160 760 L 160 780 L 180 780 L 200 780 L 200 760 L 180 760 L 160 760 z M 200 780 L 200 800 L 220 800 L 240 800 L 240 780 L 220 780 L 200 780 z M 240 800 L 240 820 L 260 820 L 280 820 L 280 800 L 260 800 L 240 800 z M 280 820 L 280 840 L 300 840 L 320 840 L 320 820 L 300 820 L 280 820 z M 320 840 L 320 860 L 340 860 L 360 860 L 360 840 L 340 840 L 320 840 z M 360 860 L 360 880 L 380 880 L 400 880 L 400 860 L 380 860 L 360 860 z M 400 880 L 400 900 L 420 900 L 440 900 L 440 880 L 420 880 L 400 880 z M 440 900 L 440 920 L 460 920 L 480 920 L 500 920 L 500 900 L 480 900 L 460 900 L 440 900 z M 500 900 L 520 900 L 540 900 L 540 880 L 520 880 L 500 880 L 500 900 z M 540 880 L 560 880 L 560 860 L 540 860 L 540 880 z M 720 700 L 720 720 L 740 720 L 760 720 L 760 700 L 740 700 L 720 700 z M 760 720 L 760 740 L 760 760 L 780 760 L 780 740 L 780 720 L 760 720 z M 760 760 L 740 760 L 720 760 L 720 780 L 740 780 L 760 780 L 760 760 z M 720 760 L 720 740 L 720 720 L 700 720 L 700 740 L 700 760 L 720 760 z "
     id="rect3324" />
</svg>
