<?xml version="1.0" encoding="utf-8" ?>
<svg baseProfile="full" height="96px" version="1.1" width="96px" xmlns="http://www.w3.org/2000/svg" xmlns:ev="http://www.w3.org/2001/xml-events" xmlns:xlink="http://www.w3.org/1999/xlink"><defs /><rect fill="rgb(255,0,0)" height="3px" width="3px" x="0px" y="21px" /><rect fill="rgb(255,0,0)" height="3px" width="3px" x="3px" y="21px" /><rect fill="rgb(255,0,0)" height="3px" width="3px" x="6px" y="21px" /><rect fill="rgb(255,0,0)" height="3px" width="3px" x="9px" y="21px" /><rect fill="rgb(255,0,0)" height="3px" width="3px" x="12px" y="21px" /><rect fill="rgb(255,0,0)" height="3px" width="3px" x="15px" y="21px" /><rect fill="rgb(255,0,0)" height="3px" width="3px" x="18px" y="21px" /><rect fill="rgb(255,0,0)" height="3px" width="3px" x="21px" y="21px" /><rect fill="rgb(255,0,0)" height="3px" width="3px" x="24px" y="21px" /><rect fill="rgb(255,0,0)" height="3px" width="3px" x="27px" y="21px" /><rect fill="rgb(255,0,0)" height="3px" width="3px" x="30px" y="21px" /><rect fill="rgb(255,0,0)" height="3px" width="3px" x="33px" y="21px" /><rect fill="rgb(255,0,0)" height="3px" width="3px" x="36px" y="21px" /><rect fill="rgb(255,0,0)" height="3px" width="3px" x="0px" y="24px" /><rect fill="rgb(255,0,0)" height="3px" width="3px" x="3px" y="24px" /><rect fill="rgb(255,0,0)" height="3px" width="3px" x="6px" y="24px" /><rect fill="rgb(255,0,0)" height="3px" width="3px" x="9px" y="24px" /><rect fill="rgb(255,0,0)" height="3px" width="3px" x="12px" y="24px" /><rect fill="rgb(255,0,0)" height="3px" width="3px" x="15px" y="24px" /><rect fill="rgb(255,0,0)" height="3px" width="3px" x="18px" y="24px" /><rect fill="rgb(255,0,0)" height="3px" width="3px" x="21px" y="24px" /><rect fill="rgb(255,0,0)" height="3px" width="3px" x="24px" y="24px" /><rect fill="rgb(255,0,0)" height="3px" width="3px" x="27px" y="24px" /><rect fill="rgb(255,0,0)" height="3px" width="3px" x="30px" y="24px" /><rect fill="rgb(255,0,0)" height="3px" width="3px" x="33px" y="24px" /><rect fill="rgb(255,0,0)" height="3px" width="3px" x="36px" y="24px" /><rect fill="rgb(0,0,0)" height="3px" width="3px" x="39px" y="24px" /><rect fill="rgb(0,0,0)" height="3px" width="3px" x="3px" y="27px" /><rect fill="rgb(0,0,0)" height="3px" width="3px" x="6px" y="27px" /><rect fill="rgb(255,0,0)" height="3px" width="3px" x="9px" y="27px" /><rect fill="rgb(255,0,0)" height="3px" width="3px" x="12px" y="27px" /><rect fill="rgb(255,0,0)" height="3px" width="3px" x="15px" y="27px" /><rect fill="rgb(255,0,0)" height="3px" width="3px" x="18px" y="27px" /><rect fill="rgb(255,0,0)" height="3px" width="3px" x="21px" y="27px" /><rect fill="rgb(255,0,0)" height="3px" width="3px" x="24px" y="27px" /><rect fill="rgb(0,0,0)" height="3px" width="3px" x="27px" y="27px" /><rect fill="rgb(0,0,0)" height="3px" width="3px" x="30px" y="27px" /><rect fill="rgb(0,0,0)" height="3px" width="3px" x="33px" y="27px" /><rect fill="rgb(0,0,0)" height="3px" width="3px" x="36px" y="27px" /><rect fill="rgb(0,0,0)" height="3px" width="3px" x="39px" y="27px" /><rect fill="rgb(255,0,0)" height="3px" width="3px" x="45px" y="27px" /><rect fill="rgb(255,0,0)" height="3px" width="3px" x="48px" y="27px" /><rect fill="rgb(255,0,0)" height="3px" width="3px" x="51px" y="27px" /><rect fill="rgb(255,0,0)" height="3px" width="3px" x="54px" y="27px" /><rect fill="rgb(255,0,0)" height="3px" width="3px" x="57px" y="27px" /><rect fill="rgb(255,0,0)" height="3px" width="3px" x="60px" y="27px" /><rect fill="rgb(255,0,0)" height="3px" width="3px" x="63px" y="27px" /><rect fill="rgb(255,0,0)" height="3px" width="3px" x="66px" y="27px" /><rect fill="rgb(255,0,0)" height="3px" width="3px" x="69px" y="27px" /><rect fill="rgb(255,0,0)" height="3px" width="3px" x="72px" y="27px" /><rect fill="rgb(255,0,0)" height="3px" width="3px" x="81px" y="27px" /><rect fill="rgb(255,0,0)" height="3px" width="3px" x="84px" y="27px" /><rect fill="rgb(255,0,0)" height="3px" width="3px" x="12px" y="30px" /><rect fill="rgb(255,0,0)" height="3px" width="3px" x="15px" y="30px" /><rect fill="rgb(255,0,0)" height="3px" width="3px" x="18px" y="30px" /><rect fill="rgb(255,0,0)" height="3px" width="3px" x="21px" y="30px" /><rect fill="rgb(255,0,0)" height="3px" width="3px" x="24px" y="30px" /><rect fill="rgb(255,0,0)" height="3px" width="3px" x="27px" y="30px" /><rect fill="rgb(255,0,0)" height="3px" width="3px" x="45px" y="30px" /><rect fill="rgb(255,0,0)" height="3px" width="3px" x="48px" y="30px" /><rect fill="rgb(255,0,0)" height="3px" width="3px" x="51px" y="30px" /><rect fill="rgb(255,0,0)" height="3px" width="3px" x="54px" y="30px" /><rect fill="rgb(255,0,0)" height="3px" width="3px" x="57px" y="30px" /><rect fill="rgb(255,0,0)" height="3px" width="3px" x="60px" y="30px" /><rect fill="rgb(255,0,0)" height="3px" width="3px" x="63px" y="30px" /><rect fill="rgb(255,0,0)" height="3px" width="3px" x="66px" y="30px" /><rect fill="rgb(255,0,0)" height="3px" width="3px" x="69px" y="30px" /><rect fill="rgb(255,0,0)" height="3px" width="3px" x="72px" y="30px" /><rect fill="rgb(0,0,0)" height="3px" width="3px" x="75px" y="30px" /><rect fill="rgb(255,0,0)" height="3px" width="3px" x="78px" y="30px" /><rect fill="rgb(255,0,0)" height="3px" width="3px" x="81px" y="30px" /><rect fill="rgb(255,0,0)" height="3px" width="3px" x="84px" y="30px" /><rect fill="rgb(255,0,0)" height="3px" width="3px" x="87px" y="30px" /><rect fill="rgb(255,0,0)" height="3px" width="3px" x="90px" y="30px" /><rect fill="rgb(255,0,0)" height="3px" width="3px" x="15px" y="33px" /><rect fill="rgb(255,0,0)" height="3px" width="3px" x="18px" y="33px" /><rect fill="rgb(255,0,0)" height="3px" width="3px" x="21px" y="33px" /><rect fill="rgb(255,0,0)" height="3px" width="3px" x="24px" y="33px" /><rect fill="rgb(255,0,0)" height="3px" width="3px" x="27px" y="33px" /><rect fill="rgb(255,0,0)" height="3px" width="3px" x="30px" y="33px" /><rect fill="rgb(0,0,0)" height="3px" width="3px" x="48px" y="33px" /><rect fill="rgb(0,0,0)" height="3px" width="3px" x="51px" y="33px" /><rect fill="rgb(255,0,0)" height="3px" width="3px" x="54px" y="33px" /><rect fill="rgb(255,0,0)" height="3px" width="3px" x="57px" y="33px" /><rect fill="rgb(255,0,0)" height="3px" width="3px" x="60px" y="33px" /><rect fill="rgb(255,0,0)" height="3px" width="3px" x="63px" y="33px" /><rect fill="rgb(255,0,0)" height="3px" width="3px" x="66px" y="33px" /><rect fill="rgb(0,0,0)" height="3px" width="3px" x="69px" y="33px" /><rect fill="rgb(0,0,0)" height="3px" width="3px" x="72px" y="33px" /><rect fill="rgb(0,0,0)" height="3px" width="3px" x="75px" y="33px" /><rect fill="rgb(255,0,0)" height="3px" width="3px" x="78px" y="33px" /><rect fill="rgb(255,0,0)" height="3px" width="3px" x="81px" y="33px" /><rect fill="rgb(255,0,0)" height="3px" width="3px" x="84px" y="33px" /><rect fill="rgb(255,0,0)" height="3px" width="3px" x="87px" y="33px" /><rect fill="rgb(255,0,0)" height="3px" width="3px" x="90px" y="33px" /><rect fill="rgb(255,0,0)" height="3px" width="3px" x="93px" y="33px" /><rect fill="rgb(255,0,0)" height="3px" width="3px" x="18px" y="36px" /><rect fill="rgb(255,0,0)" height="3px" width="3px" x="21px" y="36px" /><rect fill="rgb(255,0,0)" height="3px" width="3px" x="24px" y="36px" /><rect fill="rgb(255,0,0)" height="3px" width="3px" x="27px" y="36px" /><rect fill="rgb(255,0,0)" height="3px" width="3px" x="30px" y="36px" /><rect fill="rgb(255,0,0)" height="3px" width="3px" x="33px" y="36px" /><rect fill="rgb(255,0,0)" height="3px" width="3px" x="51px" y="36px" /><rect fill="rgb(255,0,0)" height="3px" width="3px" x="54px" y="36px" /><rect fill="rgb(255,0,0)" height="3px" width="3px" x="57px" y="36px" /><rect fill="rgb(255,0,0)" height="3px" width="3px" x="60px" y="36px" /><rect fill="rgb(0,0,0)" height="3px" width="3px" x="63px" y="36px" /><rect fill="rgb(0,0,0)" height="3px" width="3px" x="66px" y="36px" /><rect fill="rgb(0,0,0)" height="3px" width="3px" x="69px" y="36px" /><rect fill="rgb(255,0,0)" height="3px" width="3px" x="78px" y="36px" /><rect fill="rgb(255,0,0)" height="3px" width="3px" x="81px" y="36px" /><rect fill="rgb(255,0,0)" height="3px" width="3px" x="84px" y="36px" /><rect fill="rgb(255,0,0)" height="3px" width="3px" x="87px" y="36px" /><rect fill="rgb(255,0,0)" height="3px" width="3px" x="90px" y="36px" /><rect fill="rgb(0,0,0)" height="3px" width="3px" x="93px" y="36px" /><rect fill="rgb(255,0,0)" height="3px" width="3px" x="21px" y="39px" /><rect fill="rgb(255,0,0)" height="3px" width="3px" x="24px" y="39px" /><rect fill="rgb(255,0,0)" height="3px" width="3px" x="27px" y="39px" /><rect fill="rgb(255,0,0)" height="3px" width="3px" x="30px" y="39px" /><rect fill="rgb(255,0,0)" height="3px" width="3px" x="33px" y="39px" /><rect fill="rgb(255,0,0)" height="3px" width="3px" x="36px" y="39px" /><rect fill="rgb(255,0,0)" height="3px" width="3px" x="48px" y="39px" /><rect fill="rgb(255,0,0)" height="3px" width="3px" x="51px" y="39px" /><rect fill="rgb(255,0,0)" height="3px" width="3px" x="54px" y="39px" /><rect fill="rgb(255,0,0)" height="3px" width="3px" x="57px" y="39px" /><rect fill="rgb(0,0,0)" height="3px" width="3px" x="60px" y="39px" /><rect fill="rgb(0,0,0)" height="3px" width="3px" x="63px" y="39px" /><rect fill="rgb(255,0,0)" height="3px" width="3px" x="75px" y="39px" /><rect fill="rgb(255,0,0)" height="3px" width="3px" x="78px" y="39px" /><rect fill="rgb(255,0,0)" height="3px" width="3px" x="81px" y="39px" /><rect fill="rgb(255,0,0)" height="3px" width="3px" x="84px" y="39px" /><rect fill="rgb(255,0,0)" height="3px" width="3px" x="87px" y="39px" /><rect fill="rgb(255,0,0)" height="3px" width="3px" x="90px" y="39px" /><rect fill="rgb(0,0,0)" height="3px" width="3px" x="93px" y="39px" /><rect fill="rgb(255,0,0)" height="3px" width="3px" x="24px" y="42px" /><rect fill="rgb(255,0,0)" height="3px" width="3px" x="27px" y="42px" /><rect fill="rgb(255,0,0)" height="3px" width="3px" x="30px" y="42px" /><rect fill="rgb(255,0,0)" height="3px" width="3px" x="33px" y="42px" /><rect fill="rgb(255,0,0)" height="3px" width="3px" x="36px" y="42px" /><rect fill="rgb(255,0,0)" height="3px" width="3px" x="39px" y="42px" /><rect fill="rgb(255,0,0)" height="3px" width="3px" x="45px" y="42px" /><rect fill="rgb(255,0,0)" height="3px" width="3px" x="48px" y="42px" /><rect fill="rgb(255,0,0)" height="3px" width="3px" x="51px" y="42px" /><rect fill="rgb(255,0,0)" height="3px" width="3px" x="54px" y="42px" /><rect fill="rgb(0,0,0)" height="3px" width="3px" x="57px" y="42px" /><rect fill="rgb(0,0,0)" height="3px" width="3px" x="60px" y="42px" /><rect fill="rgb(255,0,0)" height="3px" width="3px" x="75px" y="42px" /><rect fill="rgb(255,0,0)" height="3px" width="3px" x="78px" y="42px" /><rect fill="rgb(255,0,0)" height="3px" width="3px" x="81px" y="42px" /><rect fill="rgb(255,0,0)" height="3px" width="3px" x="84px" y="42px" /><rect fill="rgb(255,0,0)" height="3px" width="3px" x="87px" y="42px" /><rect fill="rgb(0,0,0)" height="3px" width="3px" x="90px" y="42px" /><rect fill="rgb(0,0,0)" height="3px" width="3px" x="93px" y="42px" /><rect fill="rgb(255,0,0)" height="3px" width="3px" x="27px" y="45px" /><rect fill="rgb(255,0,0)" height="3px" width="3px" x="30px" y="45px" /><rect fill="rgb(255,0,0)" height="3px" width="3px" x="33px" y="45px" /><rect fill="rgb(255,0,0)" height="3px" width="3px" x="36px" y="45px" /><rect fill="rgb(255,0,0)" height="3px" width="3px" x="39px" y="45px" /><rect fill="rgb(255,0,0)" height="3px" width="3px" x="42px" y="45px" /><rect fill="rgb(255,0,0)" height="3px" width="3px" x="45px" y="45px" /><rect fill="rgb(255,0,0)" height="3px" width="3px" x="48px" y="45px" /><rect fill="rgb(255,0,0)" height="3px" width="3px" x="51px" y="45px" /><rect fill="rgb(0,0,0)" height="3px" width="3px" x="54px" y="45px" /><rect fill="rgb(0,0,0)" height="3px" width="3px" x="57px" y="45px" /><rect fill="rgb(255,0,0)" height="3px" width="3px" x="75px" y="45px" /><rect fill="rgb(255,0,0)" height="3px" width="3px" x="78px" y="45px" /><rect fill="rgb(255,0,0)" height="3px" width="3px" x="81px" y="45px" /><rect fill="rgb(255,0,0)" height="3px" width="3px" x="84px" y="45px" /><rect fill="rgb(255,0,0)" height="3px" width="3px" x="87px" y="45px" /><rect fill="rgb(0,0,0)" height="3px" width="3px" x="90px" y="45px" /><rect fill="rgb(255,0,0)" height="3px" width="3px" x="30px" y="48px" /><rect fill="rgb(255,0,0)" height="3px" width="3px" x="33px" y="48px" /><rect fill="rgb(255,0,0)" height="3px" width="3px" x="36px" y="48px" /><rect fill="rgb(255,0,0)" height="3px" width="3px" x="39px" y="48px" /><rect fill="rgb(255,0,0)" height="3px" width="3px" x="42px" y="48px" /><rect fill="rgb(255,0,0)" height="3px" width="3px" x="45px" y="48px" /><rect fill="rgb(255,0,0)" height="3px" width="3px" x="48px" y="48px" /><rect fill="rgb(0,0,0)" height="3px" width="3px" x="51px" y="48px" /><rect fill="rgb(0,0,0)" height="3px" width="3px" x="54px" y="48px" /><rect fill="rgb(255,0,0)" height="3px" width="3px" x="72px" y="48px" /><rect fill="rgb(255,0,0)" height="3px" width="3px" x="75px" y="48px" /><rect fill="rgb(255,0,0)" height="3px" width="3px" x="78px" y="48px" /><rect fill="rgb(255,0,0)" height="3px" width="3px" x="81px" y="48px" /><rect fill="rgb(255,0,0)" height="3px" width="3px" x="84px" y="48px" /><rect fill="rgb(0,0,0)" height="3px" width="3px" x="87px" y="48px" /><rect fill="rgb(0,0,0)" height="3px" width="3px" x="90px" y="48px" /><rect fill="rgb(255,0,0)" height="3px" width="3px" x="30px" y="51px" /><rect fill="rgb(255,0,0)" height="3px" width="3px" x="33px" y="51px" /><rect fill="rgb(255,0,0)" height="3px" width="3px" x="36px" y="51px" /><rect fill="rgb(255,0,0)" height="3px" width="3px" x="39px" y="51px" /><rect fill="rgb(255,0,0)" height="3px" width="3px" x="42px" y="51px" /><rect fill="rgb(255,0,0)" height="3px" width="3px" x="45px" y="51px" /><rect fill="rgb(0,0,0)" height="3px" width="3px" x="48px" y="51px" /><rect fill="rgb(0,0,0)" height="3px" width="3px" x="51px" y="51px" /><rect fill="rgb(255,0,0)" height="3px" width="3px" x="72px" y="51px" /><rect fill="rgb(255,0,0)" height="3px" width="3px" x="75px" y="51px" /><rect fill="rgb(255,0,0)" height="3px" width="3px" x="78px" y="51px" /><rect fill="rgb(255,0,0)" height="3px" width="3px" x="81px" y="51px" /><rect fill="rgb(0,0,0)" height="3px" width="3px" x="84px" y="51px" /><rect fill="rgb(0,0,0)" height="3px" width="3px" x="87px" y="51px" /><rect fill="rgb(255,0,0)" height="3px" width="3px" x="33px" y="54px" /><rect fill="rgb(255,0,0)" height="3px" width="3px" x="36px" y="54px" /><rect fill="rgb(255,0,0)" height="3px" width="3px" x="39px" y="54px" /><rect fill="rgb(255,0,0)" height="3px" width="3px" x="42px" y="54px" /><rect fill="rgb(255,0,0)" height="3px" width="3px" x="45px" y="54px" /><rect fill="rgb(0,0,0)" height="3px" width="3px" x="48px" y="54px" /><rect fill="rgb(255,0,0)" height="3px" width="3px" x="72px" y="54px" /><rect fill="rgb(255,0,0)" height="3px" width="3px" x="75px" y="54px" /><rect fill="rgb(255,0,0)" height="3px" width="3px" x="78px" y="54px" /><rect fill="rgb(255,0,0)" height="3px" width="3px" x="81px" y="54px" /><rect fill="rgb(0,0,0)" height="3px" width="3px" x="84px" y="54px" /><rect fill="rgb(255,0,0)" height="3px" width="3px" x="33px" y="57px" /><rect fill="rgb(255,0,0)" height="3px" width="3px" x="36px" y="57px" /><rect fill="rgb(255,0,0)" height="3px" width="3px" x="39px" y="57px" /><rect fill="rgb(255,0,0)" height="3px" width="3px" x="42px" y="57px" /><rect fill="rgb(255,0,0)" height="3px" width="3px" x="45px" y="57px" /><rect fill="rgb(0,0,0)" height="3px" width="3px" x="48px" y="57px" /><rect fill="rgb(255,0,0)" height="3px" width="3px" x="72px" y="57px" /><rect fill="rgb(255,0,0)" height="3px" width="3px" x="75px" y="57px" /><rect fill="rgb(255,0,0)" height="3px" width="3px" x="78px" y="57px" /><rect fill="rgb(0,0,0)" height="3px" width="3px" x="81px" y="57px" /><rect fill="rgb(0,0,0)" height="3px" width="3px" x="84px" y="57px" /><rect fill="rgb(255,0,0)" height="3px" width="3px" x="33px" y="60px" /><rect fill="rgb(255,0,0)" height="3px" width="3px" x="36px" y="60px" /><rect fill="rgb(255,0,0)" height="3px" width="3px" x="39px" y="60px" /><rect fill="rgb(255,0,0)" height="3px" width="3px" x="42px" y="60px" /><rect fill="rgb(255,0,0)" height="3px" width="3px" x="45px" y="60px" /><rect fill="rgb(0,0,0)" height="3px" width="3px" x="48px" y="60px" /><rect fill="rgb(0,0,0)" height="3px" width="3px" x="75px" y="60px" /><rect fill="rgb(0,0,0)" height="3px" width="3px" x="78px" y="60px" /><rect fill="rgb(0,0,0)" height="3px" width="3px" x="81px" y="60px" /><rect fill="rgb(255,0,0)" height="3px" width="3px" x="33px" y="63px" /><rect fill="rgb(255,0,0)" height="3px" width="3px" x="36px" y="63px" /><rect fill="rgb(255,0,0)" height="3px" width="3px" x="39px" y="63px" /><rect fill="rgb(255,0,0)" height="3px" width="3px" x="42px" y="63px" /><rect fill="rgb(255,0,0)" height="3px" width="3px" x="45px" y="63px" /><rect fill="rgb(0,0,0)" height="3px" width="3px" x="48px" y="63px" /><rect fill="rgb(255,0,0)" height="3px" width="3px" x="66px" y="63px" /><rect fill="rgb(255,0,0)" height="3px" width="3px" x="69px" y="63px" /><rect fill="rgb(255,0,0)" height="3px" width="3px" x="72px" y="63px" /><rect fill="rgb(255,0,0)" height="3px" width="3px" x="21px" y="66px" /><rect fill="rgb(255,0,0)" height="3px" width="3px" x="24px" y="66px" /><rect fill="rgb(255,0,0)" height="3px" width="3px" x="27px" y="66px" /><rect fill="rgb(255,0,0)" height="3px" width="3px" x="30px" y="66px" /><rect fill="rgb(255,0,0)" height="3px" width="3px" x="33px" y="66px" /><rect fill="rgb(255,0,0)" height="3px" width="3px" x="36px" y="66px" /><rect fill="rgb(255,0,0)" height="3px" width="3px" x="39px" y="66px" /><rect fill="rgb(255,0,0)" height="3px" width="3px" x="42px" y="66px" /><rect fill="rgb(255,0,0)" height="3px" width="3px" x="45px" y="66px" /><rect fill="rgb(255,0,0)" height="3px" width="3px" x="48px" y="66px" /><rect fill="rgb(255,0,0)" height="3px" width="3px" x="51px" y="66px" /><rect fill="rgb(255,0,0)" height="3px" width="3px" x="54px" y="66px" /><rect fill="rgb(255,0,0)" height="3px" width="3px" x="66px" y="66px" /><rect fill="rgb(255,0,0)" height="3px" width="3px" x="69px" y="66px" /><rect fill="rgb(255,0,0)" height="3px" width="3px" x="72px" y="66px" /><rect fill="rgb(0,0,0)" height="3px" width="3px" x="75px" y="66px" /><rect fill="rgb(255,0,0)" height="3px" width="3px" x="21px" y="69px" /><rect fill="rgb(255,0,0)" height="3px" width="3px" x="24px" y="69px" /><rect fill="rgb(255,0,0)" height="3px" width="3px" x="27px" y="69px" /><rect fill="rgb(255,0,0)" height="3px" width="3px" x="30px" y="69px" /><rect fill="rgb(255,0,0)" height="3px" width="3px" x="33px" y="69px" /><rect fill="rgb(255,0,0)" height="3px" width="3px" x="36px" y="69px" /><rect fill="rgb(255,0,0)" height="3px" width="3px" x="39px" y="69px" /><rect fill="rgb(255,0,0)" height="3px" width="3px" x="42px" y="69px" /><rect fill="rgb(255,0,0)" height="3px" width="3px" x="45px" y="69px" /><rect fill="rgb(255,0,0)" height="3px" width="3px" x="48px" y="69px" /><rect fill="rgb(255,0,0)" height="3px" width="3px" x="51px" y="69px" /><rect fill="rgb(255,0,0)" height="3px" width="3px" x="54px" y="69px" /><rect fill="rgb(0,0,0)" height="3px" width="3px" x="57px" y="69px" /><rect fill="rgb(255,0,0)" height="3px" width="3px" x="66px" y="69px" /><rect fill="rgb(255,0,0)" height="3px" width="3px" x="69px" y="69px" /><rect fill="rgb(255,0,0)" height="3px" width="3px" x="72px" y="69px" /><rect fill="rgb(0,0,0)" height="3px" width="3px" x="75px" y="69px" /><rect fill="rgb(0,0,0)" height="3px" width="3px" x="24px" y="72px" /><rect fill="rgb(0,0,0)" height="3px" width="3px" x="27px" y="72px" /><rect fill="rgb(0,0,0)" height="3px" width="3px" x="30px" y="72px" /><rect fill="rgb(0,0,0)" height="3px" width="3px" x="33px" y="72px" /><rect fill="rgb(0,0,0)" height="3px" width="3px" x="36px" y="72px" /><rect fill="rgb(0,0,0)" height="3px" width="3px" x="39px" y="72px" /><rect fill="rgb(0,0,0)" height="3px" width="3px" x="42px" y="72px" /><rect fill="rgb(0,0,0)" height="3px" width="3px" x="45px" y="72px" /><rect fill="rgb(0,0,0)" height="3px" width="3px" x="48px" y="72px" /><rect fill="rgb(0,0,0)" height="3px" width="3px" x="51px" y="72px" /><rect fill="rgb(0,0,0)" height="3px" width="3px" x="54px" y="72px" /><rect fill="rgb(0,0,0)" height="3px" width="3px" x="57px" y="72px" /><rect fill="rgb(0,0,0)" height="3px" width="3px" x="69px" y="72px" /><rect fill="rgb(0,0,0)" height="3px" width="3px" x="72px" y="72px" /><rect fill="rgb(0,0,0)" height="3px" width="3px" x="75px" y="72px" /></svg>