<?xml version="1.0" encoding="UTF-8" standalone="no"?>
<svg
   xmlns:dc="http://purl.org/dc/elements/1.1/"
   xmlns:cc="http://creativecommons.org/ns#"
   xmlns:rdf="http://www.w3.org/1999/02/22-rdf-syntax-ns#"
   xmlns:svg="http://www.w3.org/2000/svg"
   xmlns="http://www.w3.org/2000/svg"
   height="960px"
   version="1.1"
   width="960px"
   id="svg4588">
  <metadata
     id="metadata4592">
    <rdf:RDF>
      <cc:Work
         rdf:about="">
        <dc:format>image/svg+xml</dc:format>
        <dc:type
           rdf:resource="http://purl.org/dc/dcmitype/StillImage" />
      </cc:Work>
    </rdf:RDF>
  </metadata>
  <defs
     id="defs2" />
  <path
     id="rect3238"
     d="M 380 120 L 380 140 L 380 160 L 400 160 L 420 160 L 420 140 L 420 120 L 400 120 L 380 120 z M 480 120 L 480 140 L 480 160 L 500 160 L 520 160 L 520 140 L 520 120 L 500 120 L 480 120 z M 540 160 L 540 180 L 540 200 L 560 200 L 580 200 L 580 180 L 580 160 L 560 160 L 540 160 z M 580 200 L 580 220 L 600 220 L 600 200 L 580 200 z M 160 280 L 160 300 L 160 320 L 180 320 L 200 320 L 200 300 L 200 280 L 180 280 L 160 280 z M 640 280 L 640 300 L 640 320 L 660 320 L 680 320 L 680 300 L 680 280 L 660 280 L 640 280 z M 160 380 L 160 400 L 160 420 L 180 420 L 200 420 L 200 400 L 200 380 L 180 380 L 160 380 z M 520 380 L 520 400 L 520 420 L 540 420 L 540 400 L 540 380 L 520 380 z M 700 420 L 700 440 L 720 440 L 740 440 L 740 420 L 720 420 L 700 420 z M 760 640 L 760 660 L 760 680 L 780 680 L 800 680 L 800 660 L 800 640 L 780 640 L 760 640 z "
     style="fill:#1d1d1d" />
  <path
     id="rect3794"
     d="M 580 760 L 580 780 L 580 800 L 600 800 L 600 780 L 600 760 L 580 760 z "
     style="fill:#ffffff" />
  <path
     id="rect3808"
     d="M 380 200 L 380 220 L 400 220 L 420 220 L 420 240 L 420 260 L 420 280 L 420 300 L 420 320 L 440 320 L 440 300 L 440 280 L 460 280 L 480 280 L 500 280 L 520 280 L 540 280 L 560 280 L 580 280 L 580 300 L 580 320 L 560 320 L 540 320 L 540 340 L 540 360 L 560 360 L 580 360 L 600 360 L 600 380 L 620 380 L 640 380 L 640 360 L 640 340 L 640 320 L 620 320 L 600 320 L 600 300 L 600 280 L 600 260 L 580 260 L 580 240 L 580 220 L 560 220 L 540 220 L 520 220 L 520 200 L 500 200 L 480 200 L 460 200 L 440 200 L 420 200 L 400 200 L 380 200 z M 640 380 L 640 400 L 640 420 L 620 420 L 600 420 L 600 440 L 580 440 L 580 460 L 580 480 L 560 480 L 540 480 L 520 480 L 500 480 L 480 480 L 480 460 L 480 440 L 460 440 L 440 440 L 440 460 L 440 480 L 420 480 L 420 500 L 420 520 L 440 520 L 460 520 L 480 520 L 480 540 L 500 540 L 520 540 L 540 540 L 540 560 L 540 580 L 540 600 L 560 600 L 580 600 L 600 600 L 600 620 L 600 640 L 600 660 L 600 680 L 600 700 L 580 700 L 580 720 L 580 740 L 560 740 L 540 740 L 540 760 L 560 760 L 580 760 L 600 760 L 620 760 L 640 760 L 640 740 L 660 740 L 680 740 L 680 720 L 680 700 L 700 700 L 700 680 L 700 660 L 700 640 L 700 620 L 700 600 L 700 580 L 700 560 L 700 540 L 700 520 L 680 520 L 680 500 L 680 480 L 680 460 L 680 440 L 680 420 L 680 400 L 680 380 L 660 380 L 640 380 z M 420 380 L 420 400 L 420 420 L 440 420 L 440 400 L 440 380 L 420 380 z M 680 760 L 680 780 L 680 800 L 700 800 L 720 800 L 740 800 L 740 780 L 740 760 L 720 760 L 700 760 L 680 760 z "
     style="fill:#e4e4e4" />
  <path
     id="rect3942"
     d="M 440 280 L 440 300 L 440 320 L 460 320 L 480 320 L 480 300 L 480 280 L 460 280 L 440 280 z M 520 320 L 520 340 L 520 360 L 540 360 L 540 340 L 540 320 L 520 320 z M 600 380 L 600 400 L 600 420 L 620 420 L 640 420 L 640 400 L 640 380 L 620 380 L 600 380 z M 700 600 L 700 620 L 700 640 L 700 660 L 700 680 L 720 680 L 740 680 L 740 660 L 740 640 L 740 620 L 740 600 L 720 600 L 700 600 z M 520 640 L 520 660 L 520 680 L 540 680 L 540 660 L 540 640 L 520 640 z M 100 680 L 100 700 L 100 720 L 100 740 L 100 760 L 100 780 L 100 800 L 120 800 L 120 820 L 120 840 L 140 840 L 160 840 L 160 820 L 160 800 L 160 780 L 160 760 L 180 760 L 200 760 L 200 740 L 180 740 L 160 740 L 160 720 L 160 700 L 140 700 L 120 700 L 120 680 L 100 680 z M 540 700 L 540 720 L 540 740 L 560 740 L 580 740 L 580 720 L 580 700 L 560 700 L 540 700 z M 640 740 L 640 760 L 660 760 L 680 760 L 680 740 L 660 740 L 640 740 z M 800 740 L 800 760 L 820 760 L 840 760 L 840 740 L 820 740 L 800 740 z "
     style="fill:#d6d6d5" />
  <path
     id="rect3974"
     d="M 220 100 L 220 120 L 200 120 L 200 140 L 200 160 L 220 160 L 240 160 L 260 160 L 260 140 L 260 120 L 280 120 L 300 120 L 320 120 L 320 100 L 300 100 L 280 100 L 260 100 L 240 100 L 220 100 z M 320 120 L 320 140 L 320 160 L 340 160 L 360 160 L 360 140 L 360 120 L 340 120 L 320 120 z M 360 120 L 380 120 L 400 120 L 420 120 L 420 100 L 400 100 L 380 100 L 360 100 L 360 120 z M 540 120 L 540 140 L 540 160 L 560 160 L 580 160 L 580 140 L 580 120 L 560 120 L 540 120 z M 580 160 L 580 180 L 580 200 L 600 200 L 600 180 L 600 160 L 580 160 z M 540 160 L 520 160 L 520 180 L 520 200 L 540 200 L 540 180 L 540 160 z M 640 200 L 640 220 L 640 240 L 640 260 L 660 260 L 680 260 L 700 260 L 700 240 L 700 220 L 700 200 L 680 200 L 660 200 L 640 200 z M 120 260 L 120 280 L 140 280 L 160 280 L 180 280 L 200 280 L 220 280 L 220 260 L 200 260 L 180 260 L 160 260 L 140 260 L 120 260 z M 680 280 L 680 300 L 680 320 L 680 340 L 680 360 L 680 380 L 700 380 L 720 380 L 740 380 L 740 360 L 720 360 L 700 360 L 700 340 L 700 320 L 700 300 L 700 280 L 680 280 z M 160 320 L 160 340 L 160 360 L 160 380 L 180 380 L 200 380 L 200 360 L 200 340 L 200 320 L 180 320 L 160 320 z M 100 360 L 100 380 L 120 380 L 120 360 L 100 360 z M 260 380 L 260 400 L 260 420 L 280 420 L 300 420 L 320 420 L 320 400 L 320 380 L 300 380 L 280 380 L 260 380 z M 320 420 L 320 440 L 340 440 L 360 440 L 360 420 L 340 420 L 320 420 z M 480 380 L 480 400 L 480 420 L 500 420 L 520 420 L 520 400 L 520 380 L 500 380 L 480 380 z M 200 420 L 200 440 L 220 440 L 220 420 L 200 420 z M 740 420 L 740 440 L 760 440 L 760 420 L 740 420 z M 260 440 L 260 460 L 260 480 L 260 500 L 260 520 L 280 520 L 280 500 L 280 480 L 280 460 L 280 440 L 260 440 z M 200 480 L 200 500 L 200 520 L 220 520 L 220 500 L 220 480 L 200 480 z M 200 520 L 180 520 L 160 520 L 140 520 L 120 520 L 120 540 L 140 540 L 160 540 L 160 560 L 160 580 L 140 580 L 120 580 L 120 600 L 140 600 L 160 600 L 180 600 L 200 600 L 220 600 L 220 580 L 200 580 L 200 560 L 200 540 L 200 520 z M 220 580 L 240 580 L 260 580 L 260 560 L 260 540 L 240 540 L 220 540 L 220 560 L 220 580 z M 320 480 L 320 500 L 320 520 L 340 520 L 360 520 L 360 500 L 360 480 L 340 480 L 320 480 z M 380 520 L 380 540 L 380 560 L 380 580 L 380 600 L 380 620 L 380 640 L 400 640 L 420 640 L 420 620 L 420 600 L 420 580 L 420 560 L 420 540 L 420 520 L 400 520 L 380 520 z M 700 520 L 700 540 L 720 540 L 740 540 L 740 520 L 720 520 L 700 520 z M 740 540 L 740 560 L 740 580 L 760 580 L 760 560 L 760 540 L 740 540 z M 760 580 L 760 600 L 780 600 L 800 600 L 800 580 L 780 580 L 760 580 z M 440 600 L 440 620 L 440 640 L 460 640 L 480 640 L 480 620 L 480 600 L 460 600 L 440 600 z M 200 680 L 200 700 L 220 700 L 220 680 L 200 680 z M 220 700 L 220 720 L 220 740 L 240 740 L 260 740 L 260 760 L 280 760 L 300 760 L 320 760 L 320 740 L 300 740 L 280 740 L 280 720 L 280 700 L 260 700 L 240 700 L 220 700 z M 260 760 L 240 760 L 220 760 L 220 780 L 220 800 L 240 800 L 260 800 L 260 780 L 260 760 z M 540 680 L 540 700 L 560 700 L 580 700 L 580 680 L 560 680 L 540 680 z M 740 680 L 740 700 L 760 700 L 780 700 L 800 700 L 800 680 L 780 680 L 760 680 L 740 680 z M 380 760 L 380 780 L 380 800 L 400 800 L 420 800 L 420 780 L 420 760 L 400 760 L 380 760 z M 440 800 L 440 820 L 440 840 L 460 840 L 480 840 L 480 820 L 480 800 L 460 800 L 440 800 z "
     style="fill:#545454" />
  <path
     id="rect3978"
     d="M 200 100 L 200 120 L 220 120 L 220 100 L 200 100 z M 200 120 L 180 120 L 160 120 L 160 140 L 160 160 L 180 160 L 200 160 L 200 140 L 200 120 z M 160 160 L 140 160 L 120 160 L 120 180 L 120 200 L 140 200 L 160 200 L 160 180 L 160 160 z M 740 100 L 740 120 L 760 120 L 760 140 L 760 160 L 780 160 L 800 160 L 800 180 L 800 200 L 780 200 L 760 200 L 760 220 L 780 220 L 800 220 L 820 220 L 840 220 L 840 200 L 840 180 L 840 160 L 840 140 L 840 120 L 820 120 L 800 120 L 800 100 L 780 100 L 760 100 L 740 100 z M 760 220 L 740 220 L 740 240 L 740 260 L 760 260 L 760 240 L 760 220 z M 760 260 L 760 280 L 780 280 L 800 280 L 800 260 L 780 260 L 760 260 z M 680 120 L 680 140 L 680 160 L 700 160 L 700 140 L 700 120 L 680 120 z M 680 160 L 660 160 L 640 160 L 640 180 L 640 200 L 660 200 L 680 200 L 680 180 L 680 160 z M 380 160 L 380 180 L 380 200 L 400 200 L 420 200 L 420 180 L 420 160 L 400 160 L 380 160 z M 280 200 L 280 220 L 260 220 L 260 240 L 260 260 L 260 280 L 240 280 L 220 280 L 220 300 L 220 320 L 220 340 L 220 360 L 240 360 L 260 360 L 260 380 L 280 380 L 300 380 L 320 380 L 340 380 L 360 380 L 360 400 L 360 420 L 380 420 L 400 420 L 420 420 L 420 400 L 420 380 L 440 380 L 440 360 L 440 340 L 440 320 L 420 320 L 420 340 L 420 360 L 400 360 L 380 360 L 380 340 L 380 320 L 360 320 L 360 300 L 360 280 L 360 260 L 340 260 L 320 260 L 320 240 L 320 220 L 320 200 L 300 200 L 280 200 z M 480 320 L 480 340 L 480 360 L 500 360 L 520 360 L 520 340 L 520 320 L 500 320 L 480 320 z M 580 360 L 580 380 L 600 380 L 600 360 L 580 360 z M 760 360 L 760 380 L 780 380 L 800 380 L 800 360 L 780 360 L 760 360 z M 580 420 L 580 440 L 600 440 L 600 420 L 580 420 z M 680 420 L 680 440 L 680 460 L 680 480 L 700 480 L 700 460 L 700 440 L 700 420 L 680 420 z M 760 420 L 760 440 L 760 460 L 760 480 L 780 480 L 800 480 L 800 460 L 800 440 L 820 440 L 840 440 L 840 420 L 820 420 L 800 420 L 780 420 L 760 420 z M 800 480 L 800 500 L 800 520 L 780 520 L 760 520 L 760 540 L 780 540 L 800 540 L 800 560 L 800 580 L 820 580 L 840 580 L 840 560 L 840 540 L 840 520 L 840 500 L 840 480 L 820 480 L 800 480 z M 380 440 L 380 460 L 380 480 L 400 480 L 420 480 L 420 460 L 420 440 L 400 440 L 380 440 z M 520 440 L 520 460 L 520 480 L 540 480 L 540 460 L 540 440 L 520 440 z M 320 540 L 320 560 L 320 580 L 340 580 L 360 580 L 360 560 L 360 540 L 340 540 L 320 540 z M 100 580 L 100 600 L 120 600 L 120 580 L 100 580 z M 520 580 L 520 600 L 540 600 L 540 580 L 520 580 z M 120 640 L 120 660 L 120 680 L 140 680 L 160 680 L 160 660 L 160 640 L 140 640 L 120 640 z M 440 640 L 440 660 L 440 680 L 460 680 L 480 680 L 480 660 L 480 640 L 460 640 L 440 640 z M 580 640 L 580 660 L 580 680 L 600 680 L 600 660 L 600 640 L 580 640 z M 360 680 L 360 700 L 380 700 L 380 720 L 380 740 L 400 740 L 420 740 L 420 720 L 420 700 L 420 680 L 400 680 L 380 680 L 360 680 z M 420 740 L 420 760 L 440 760 L 440 740 L 420 740 z M 700 680 L 700 700 L 720 700 L 740 700 L 740 680 L 720 680 L 700 680 z M 800 680 L 800 700 L 820 700 L 840 700 L 840 680 L 820 680 L 800 680 z M 520 740 L 520 760 L 540 760 L 540 740 L 520 740 z M 520 760 L 500 760 L 480 760 L 480 780 L 480 800 L 480 820 L 480 840 L 500 840 L 520 840 L 520 820 L 520 800 L 520 780 L 520 760 z M 760 760 L 760 780 L 760 800 L 780 800 L 800 800 L 820 800 L 840 800 L 840 780 L 840 760 L 820 760 L 800 760 L 780 760 L 760 760 z M 160 800 L 160 820 L 160 840 L 180 840 L 200 840 L 200 820 L 200 800 L 180 800 L 160 800 z "
     style="fill:#989898" />
  <path
     id="rect4000"
     d="M 740 120 L 740 140 L 740 160 L 760 160 L 760 140 L 760 120 L 740 120 z M 420 160 L 420 180 L 420 200 L 440 200 L 460 200 L 480 200 L 480 180 L 480 160 L 460 160 L 440 160 L 420 160 z M 520 200 L 520 220 L 540 220 L 540 200 L 520 200 z M 380 220 L 380 240 L 380 260 L 380 280 L 380 300 L 380 320 L 400 320 L 420 320 L 420 300 L 420 280 L 420 260 L 420 240 L 420 220 L 400 220 L 380 220 z M 800 220 L 800 240 L 800 260 L 820 260 L 840 260 L 840 240 L 840 220 L 820 220 L 800 220 z M 540 280 L 540 300 L 540 320 L 560 320 L 580 320 L 580 300 L 580 280 L 560 280 L 540 280 z M 640 360 L 640 380 L 660 380 L 680 380 L 680 360 L 660 360 L 640 360 z M 480 440 L 480 460 L 480 480 L 500 480 L 520 480 L 520 460 L 520 440 L 500 440 L 480 440 z M 760 480 L 760 500 L 760 520 L 780 520 L 800 520 L 800 500 L 800 480 L 780 480 L 760 480 z M 420 520 L 420 540 L 440 540 L 440 520 L 420 520 z M 100 540 L 100 560 L 100 580 L 120 580 L 120 560 L 120 540 L 100 540 z M 480 540 L 480 560 L 480 580 L 500 580 L 520 580 L 520 560 L 520 540 L 500 540 L 480 540 z M 480 580 L 460 580 L 440 580 L 440 600 L 460 600 L 480 600 L 480 580 z M 120 680 L 120 700 L 140 700 L 160 700 L 160 680 L 140 680 L 120 680 z M 580 680 L 580 700 L 600 700 L 600 680 L 580 680 z M 680 700 L 680 720 L 680 740 L 700 740 L 700 720 L 700 700 L 680 700 z M 800 700 L 800 720 L 800 740 L 820 740 L 840 740 L 840 720 L 840 700 L 820 700 L 800 700 z M 160 760 L 160 780 L 160 800 L 180 800 L 200 800 L 200 780 L 200 760 L 180 760 L 160 760 z M 600 760 L 600 780 L 600 800 L 620 800 L 640 800 L 640 780 L 640 760 L 620 760 L 600 760 z M 600 800 L 580 800 L 560 800 L 540 800 L 540 820 L 540 840 L 560 840 L 580 840 L 600 840 L 600 820 L 600 800 z M 100 800 L 100 820 L 100 840 L 120 840 L 120 820 L 120 800 L 100 800 z M 700 800 L 700 820 L 700 840 L 720 840 L 740 840 L 740 820 L 740 800 L 720 800 L 700 800 z "
     style="fill:#cbcbcb" />
  <path
     id="rect4002"
     d="M 360 120 L 360 140 L 360 160 L 380 160 L 380 140 L 380 120 L 360 120 z M 420 120 L 420 140 L 420 160 L 440 160 L 460 160 L 480 160 L 480 140 L 480 120 L 460 120 L 440 120 L 420 120 z M 520 120 L 520 140 L 520 160 L 540 160 L 540 140 L 540 120 L 520 120 z M 600 200 L 600 220 L 620 220 L 640 220 L 640 200 L 620 200 L 600 200 z M 600 260 L 600 280 L 620 280 L 640 280 L 660 280 L 680 280 L 680 260 L 660 260 L 640 260 L 620 260 L 600 260 z M 120 280 L 120 300 L 120 320 L 140 320 L 160 320 L 160 300 L 160 280 L 140 280 L 120 280 z M 100 380 L 100 400 L 100 420 L 120 420 L 140 420 L 160 420 L 160 400 L 160 380 L 140 380 L 120 380 L 100 380 z M 160 420 L 160 440 L 160 460 L 160 480 L 180 480 L 200 480 L 220 480 L 220 460 L 220 440 L 200 440 L 200 420 L 180 420 L 160 420 z M 540 380 L 540 400 L 540 420 L 520 420 L 500 420 L 480 420 L 480 440 L 500 440 L 520 440 L 540 440 L 560 440 L 580 440 L 580 420 L 580 400 L 580 380 L 560 380 L 540 380 z M 700 380 L 700 400 L 700 420 L 720 420 L 740 420 L 740 400 L 740 380 L 720 380 L 700 380 z M 280 440 L 280 460 L 280 480 L 280 500 L 280 520 L 300 520 L 320 520 L 320 500 L 320 480 L 340 480 L 360 480 L 380 480 L 380 460 L 380 440 L 360 440 L 340 440 L 320 440 L 300 440 L 280 440 z M 700 440 L 700 460 L 700 480 L 700 500 L 700 520 L 720 520 L 740 520 L 740 500 L 740 480 L 740 460 L 740 440 L 720 440 L 700 440 z M 120 540 L 120 560 L 120 580 L 140 580 L 160 580 L 160 560 L 160 540 L 140 540 L 120 540 z M 220 580 L 220 600 L 220 620 L 220 640 L 240 640 L 260 640 L 260 660 L 260 680 L 280 680 L 280 660 L 280 640 L 280 620 L 280 600 L 260 600 L 260 580 L 240 580 L 220 580 z M 420 600 L 420 620 L 420 640 L 440 640 L 440 620 L 440 600 L 420 600 z M 440 680 L 440 700 L 460 700 L 480 700 L 480 680 L 460 680 L 440 680 z M 360 740 L 360 760 L 360 780 L 360 800 L 380 800 L 380 780 L 380 760 L 380 740 L 360 740 z M 360 800 L 340 800 L 320 800 L 320 820 L 320 840 L 340 840 L 360 840 L 360 820 L 360 800 z M 740 800 L 740 820 L 740 840 L 760 840 L 760 820 L 760 800 L 740 800 z "
     style="fill:#2d2d2d" />
  <path
     id="rect4010"
     d="M 100 100 L 100 120 L 100 140 L 100 160 L 100 180 L 100 200 L 100 220 L 100 240 L 100 260 L 120 260 L 120 240 L 120 220 L 120 200 L 120 180 L 120 160 L 140 160 L 160 160 L 160 140 L 160 120 L 180 120 L 200 120 L 200 100 L 180 100 L 160 100 L 140 100 L 120 100 L 100 100 z M 700 120 L 700 140 L 700 160 L 680 160 L 680 180 L 680 200 L 700 200 L 720 200 L 740 200 L 760 200 L 780 200 L 800 200 L 800 180 L 800 160 L 780 160 L 760 160 L 740 160 L 740 140 L 740 120 L 720 120 L 700 120 z M 320 200 L 320 220 L 320 240 L 320 260 L 340 260 L 360 260 L 360 280 L 360 300 L 360 320 L 380 320 L 380 300 L 380 280 L 380 260 L 380 240 L 380 220 L 380 200 L 360 200 L 340 200 L 320 200 z M 380 320 L 380 340 L 380 360 L 400 360 L 420 360 L 420 340 L 420 320 L 400 320 L 380 320 z M 760 220 L 760 240 L 760 260 L 780 260 L 800 260 L 800 240 L 800 220 L 780 220 L 760 220 z M 480 280 L 480 300 L 480 320 L 500 320 L 520 320 L 540 320 L 540 300 L 540 280 L 520 280 L 500 280 L 480 280 z M 600 280 L 600 300 L 600 320 L 620 320 L 640 320 L 640 300 L 640 280 L 620 280 L 600 280 z M 440 360 L 440 380 L 440 400 L 440 420 L 440 440 L 460 440 L 480 440 L 480 420 L 480 400 L 480 380 L 500 380 L 520 380 L 520 360 L 500 360 L 480 360 L 460 360 L 440 360 z M 800 360 L 800 380 L 800 400 L 800 420 L 820 420 L 840 420 L 840 400 L 840 380 L 840 360 L 820 360 L 800 360 z M 380 420 L 380 440 L 400 440 L 420 440 L 420 420 L 400 420 L 380 420 z M 540 440 L 540 460 L 540 480 L 560 480 L 580 480 L 580 460 L 580 440 L 560 440 L 540 440 z M 800 440 L 800 460 L 800 480 L 820 480 L 840 480 L 840 460 L 840 440 L 820 440 L 800 440 z M 680 480 L 680 500 L 680 520 L 700 520 L 700 500 L 700 480 L 680 480 z M 100 520 L 100 540 L 120 540 L 120 520 L 100 520 z M 420 540 L 420 560 L 420 580 L 440 580 L 440 560 L 440 540 L 420 540 z M 520 540 L 520 560 L 520 580 L 540 580 L 540 560 L 540 540 L 520 540 z M 700 580 L 700 600 L 720 600 L 740 600 L 740 580 L 720 580 L 700 580 z M 480 600 L 480 620 L 480 640 L 480 660 L 480 680 L 500 680 L 520 680 L 520 660 L 520 640 L 520 620 L 520 600 L 500 600 L 480 600 z M 100 640 L 100 660 L 100 680 L 120 680 L 120 660 L 120 640 L 100 640 z M 540 640 L 540 660 L 540 680 L 560 680 L 580 680 L 580 660 L 580 640 L 560 640 L 540 640 z M 160 700 L 160 720 L 160 740 L 180 740 L 200 740 L 200 720 L 200 700 L 180 700 L 160 700 z M 200 740 L 200 760 L 220 760 L 220 740 L 200 740 z M 440 740 L 440 760 L 460 760 L 480 760 L 480 740 L 460 740 L 440 740 z M 700 740 L 700 760 L 720 760 L 740 760 L 740 740 L 720 740 L 700 740 z M 520 800 L 520 820 L 520 840 L 540 840 L 540 820 L 540 800 L 520 800 z M 800 800 L 800 820 L 800 840 L 820 840 L 840 840 L 840 820 L 840 800 L 820 800 L 800 800 z "
     style="fill:#bfbfbf" />
  <path
     id="rect4032"
     d="M 60 60 L 60 80 L 60 100 L 60 120 L 60 140 L 60 160 L 60 180 L 60 200 L 60 220 L 60 240 L 60 260 L 60 280 L 60 300 L 60 320 L 60 340 L 60 360 L 60 380 L 60 400 L 60 420 L 60 440 L 60 460 L 60 480 L 60 500 L 60 520 L 60 540 L 60 560 L 60 580 L 60 600 L 60 620 L 60 640 L 60 660 L 60 680 L 60 700 L 60 720 L 60 740 L 60 760 L 60 780 L 60 800 L 60 820 L 60 840 L 60 860 L 80 860 L 100 860 L 100 840 L 100 820 L 100 800 L 100 780 L 100 760 L 100 740 L 100 720 L 100 700 L 100 680 L 100 660 L 100 640 L 100 620 L 100 600 L 100 580 L 100 560 L 100 540 L 100 520 L 100 500 L 100 480 L 100 460 L 100 440 L 100 420 L 100 400 L 100 380 L 100 360 L 100 340 L 100 320 L 100 300 L 100 280 L 100 260 L 100 240 L 100 220 L 100 200 L 100 180 L 100 160 L 100 140 L 100 120 L 100 100 L 120 100 L 140 100 L 160 100 L 180 100 L 200 100 L 220 100 L 240 100 L 260 100 L 280 100 L 300 100 L 320 100 L 340 100 L 360 100 L 380 100 L 400 100 L 420 100 L 440 100 L 460 100 L 480 100 L 500 100 L 520 100 L 540 100 L 560 100 L 580 100 L 600 100 L 620 100 L 640 100 L 660 100 L 680 100 L 700 100 L 720 100 L 740 100 L 760 100 L 780 100 L 800 100 L 820 100 L 840 100 L 860 100 L 860 80 L 860 60 L 840 60 L 820 60 L 800 60 L 780 60 L 760 60 L 740 60 L 720 60 L 700 60 L 680 60 L 660 60 L 640 60 L 620 60 L 600 60 L 580 60 L 560 60 L 540 60 L 520 60 L 500 60 L 480 60 L 460 60 L 440 60 L 420 60 L 400 60 L 380 60 L 360 60 L 340 60 L 320 60 L 300 60 L 280 60 L 260 60 L 240 60 L 220 60 L 200 60 L 180 60 L 160 60 L 140 60 L 120 60 L 100 60 L 80 60 L 60 60 z M 420 420 L 420 440 L 420 460 L 420 480 L 440 480 L 440 460 L 440 440 L 440 420 L 420 420 z M 440 520 L 440 540 L 440 560 L 440 580 L 460 580 L 480 580 L 480 560 L 480 540 L 480 520 L 460 520 L 440 520 z M 520 600 L 520 620 L 520 640 L 540 640 L 560 640 L 580 640 L 600 640 L 600 620 L 600 600 L 580 600 L 560 600 L 540 600 L 520 600 z M 520 760 L 520 780 L 520 800 L 540 800 L 560 800 L 580 800 L 580 780 L 580 760 L 560 760 L 540 760 L 520 760 z M 640 800 L 640 820 L 640 840 L 660 840 L 680 840 L 700 840 L 700 820 L 700 800 L 680 800 L 660 800 L 640 800 z "
     style="fill:#eeeeee" />
  <path
     id="rect4108"
     d="M 320 100 L 320 120 L 340 120 L 360 120 L 360 100 L 340 100 L 320 100 z M 320 120 L 300 120 L 280 120 L 280 140 L 280 160 L 300 160 L 320 160 L 320 140 L 320 120 z M 420 100 L 420 120 L 440 120 L 460 120 L 480 120 L 500 120 L 520 120 L 540 120 L 560 120 L 580 120 L 600 120 L 620 120 L 640 120 L 660 120 L 680 120 L 680 100 L 660 100 L 640 100 L 620 100 L 600 100 L 580 100 L 560 100 L 540 100 L 520 100 L 500 100 L 480 100 L 460 100 L 440 100 L 420 100 z M 840 100 L 840 120 L 840 140 L 840 160 L 840 180 L 840 200 L 840 220 L 840 240 L 840 260 L 840 280 L 840 300 L 840 320 L 840 340 L 840 360 L 840 380 L 840 400 L 840 420 L 840 440 L 840 460 L 840 480 L 840 500 L 840 520 L 840 540 L 840 560 L 840 580 L 840 600 L 820 600 L 800 600 L 800 620 L 800 640 L 820 640 L 840 640 L 840 660 L 840 680 L 840 700 L 840 720 L 840 740 L 840 760 L 840 780 L 840 800 L 840 820 L 840 840 L 820 840 L 800 840 L 780 840 L 760 840 L 740 840 L 720 840 L 700 840 L 680 840 L 660 840 L 640 840 L 620 840 L 600 840 L 580 840 L 560 840 L 540 840 L 520 840 L 500 840 L 480 840 L 460 840 L 440 840 L 440 820 L 440 800 L 440 780 L 440 760 L 420 760 L 420 780 L 420 800 L 420 820 L 420 840 L 400 840 L 380 840 L 380 820 L 380 800 L 360 800 L 360 820 L 360 840 L 340 840 L 320 840 L 300 840 L 280 840 L 280 820 L 280 800 L 300 800 L 320 800 L 340 800 L 360 800 L 360 780 L 360 760 L 340 760 L 320 760 L 300 760 L 280 760 L 260 760 L 260 780 L 260 800 L 240 800 L 220 800 L 220 780 L 220 760 L 200 760 L 200 780 L 200 800 L 200 820 L 200 840 L 180 840 L 160 840 L 140 840 L 120 840 L 100 840 L 100 860 L 120 860 L 140 860 L 160 860 L 180 860 L 200 860 L 220 860 L 240 860 L 260 860 L 280 860 L 300 860 L 320 860 L 340 860 L 360 860 L 380 860 L 400 860 L 420 860 L 440 860 L 460 860 L 480 860 L 500 860 L 520 860 L 540 860 L 560 860 L 580 860 L 600 860 L 620 860 L 640 860 L 660 860 L 680 860 L 700 860 L 720 860 L 740 860 L 760 860 L 780 860 L 800 860 L 820 860 L 840 860 L 860 860 L 860 840 L 860 820 L 860 800 L 860 780 L 860 760 L 860 740 L 860 720 L 860 700 L 860 680 L 860 660 L 860 640 L 860 620 L 860 600 L 860 580 L 860 560 L 860 540 L 860 520 L 860 500 L 860 480 L 860 460 L 860 440 L 860 420 L 860 400 L 860 380 L 860 360 L 860 340 L 860 320 L 860 300 L 860 280 L 860 260 L 860 240 L 860 220 L 860 200 L 860 180 L 860 160 L 860 140 L 860 120 L 860 100 L 840 100 z M 220 760 L 240 760 L 260 760 L 260 740 L 240 740 L 220 740 L 220 760 z M 420 760 L 420 740 L 400 740 L 380 740 L 380 760 L 400 760 L 420 760 z M 160 160 L 160 180 L 160 200 L 160 220 L 180 220 L 200 220 L 200 200 L 220 200 L 220 220 L 240 220 L 260 220 L 260 200 L 260 180 L 260 160 L 240 160 L 220 160 L 200 160 L 180 160 L 160 160 z M 220 220 L 200 220 L 200 240 L 200 260 L 220 260 L 220 240 L 220 220 z M 600 160 L 600 180 L 600 200 L 620 200 L 640 200 L 640 180 L 640 160 L 620 160 L 600 160 z M 540 200 L 540 220 L 560 220 L 580 220 L 580 200 L 560 200 L 540 200 z M 580 220 L 580 240 L 580 260 L 600 260 L 600 240 L 600 220 L 580 220 z M 700 200 L 700 220 L 700 240 L 700 260 L 680 260 L 680 280 L 700 280 L 700 300 L 700 320 L 700 340 L 700 360 L 720 360 L 740 360 L 740 340 L 740 320 L 760 320 L 780 320 L 800 320 L 800 300 L 800 280 L 780 280 L 760 280 L 760 260 L 740 260 L 740 240 L 740 220 L 740 200 L 720 200 L 700 200 z M 100 280 L 100 300 L 100 320 L 100 340 L 100 360 L 120 360 L 120 380 L 140 380 L 160 380 L 160 360 L 160 340 L 160 320 L 140 320 L 120 320 L 120 300 L 120 280 L 100 280 z M 200 280 L 200 300 L 200 320 L 200 340 L 200 360 L 220 360 L 220 340 L 220 320 L 220 300 L 220 280 L 200 280 z M 440 320 L 440 340 L 440 360 L 460 360 L 480 360 L 480 340 L 480 320 L 460 320 L 440 320 z M 640 320 L 640 340 L 640 360 L 660 360 L 680 360 L 680 340 L 680 320 L 660 320 L 640 320 z M 200 380 L 200 400 L 200 420 L 220 420 L 220 440 L 240 440 L 260 440 L 280 440 L 300 440 L 320 440 L 320 420 L 300 420 L 280 420 L 260 420 L 260 400 L 260 380 L 240 380 L 220 380 L 200 380 z M 320 420 L 340 420 L 360 420 L 360 400 L 360 380 L 340 380 L 320 380 L 320 400 L 320 420 z M 360 420 L 360 440 L 380 440 L 380 420 L 360 420 z M 580 380 L 580 400 L 580 420 L 600 420 L 600 400 L 600 380 L 580 380 z M 680 380 L 680 400 L 680 420 L 700 420 L 700 400 L 700 380 L 680 380 z M 740 380 L 740 400 L 740 420 L 760 420 L 760 400 L 760 380 L 740 380 z M 100 420 L 100 440 L 100 460 L 100 480 L 100 500 L 100 520 L 120 520 L 140 520 L 160 520 L 180 520 L 200 520 L 200 500 L 200 480 L 180 480 L 160 480 L 160 460 L 160 440 L 160 420 L 140 420 L 120 420 L 100 420 z M 740 440 L 740 460 L 740 480 L 740 500 L 740 520 L 740 540 L 760 540 L 760 520 L 760 500 L 760 480 L 760 460 L 760 440 L 740 440 z M 360 480 L 360 500 L 360 520 L 380 520 L 380 500 L 380 480 L 360 480 z M 280 520 L 280 540 L 300 540 L 320 540 L 320 520 L 300 520 L 280 520 z M 200 540 L 200 560 L 200 580 L 220 580 L 220 560 L 220 540 L 200 540 z M 260 580 L 260 600 L 280 600 L 280 580 L 260 580 z M 480 580 L 480 600 L 500 600 L 520 600 L 520 580 L 500 580 L 480 580 z M 740 580 L 740 600 L 760 600 L 760 580 L 740 580 z M 120 600 L 120 620 L 120 640 L 140 640 L 160 640 L 160 660 L 160 680 L 160 700 L 180 700 L 200 700 L 200 680 L 200 660 L 200 640 L 220 640 L 220 620 L 220 600 L 200 600 L 180 600 L 160 600 L 140 600 L 120 600 z M 220 640 L 220 660 L 220 680 L 220 700 L 240 700 L 260 700 L 280 700 L 280 720 L 280 740 L 300 740 L 320 740 L 320 720 L 320 700 L 320 680 L 320 660 L 320 640 L 300 640 L 280 640 L 280 660 L 280 680 L 260 680 L 260 660 L 260 640 L 240 640 L 220 640 z M 740 640 L 740 660 L 740 680 L 760 680 L 760 660 L 760 640 L 740 640 z M 480 680 L 480 700 L 460 700 L 440 700 L 440 720 L 440 740 L 460 740 L 480 740 L 500 740 L 520 740 L 540 740 L 540 720 L 540 700 L 540 680 L 520 680 L 500 680 L 480 680 z M 740 700 L 740 720 L 740 740 L 740 760 L 740 780 L 740 800 L 760 800 L 760 780 L 760 760 L 760 740 L 760 720 L 760 700 L 740 700 z "
     style="fill:#686868" />
  <path
     id="rect4304"
     d="M 40 40 L 40 60 L 40 80 L 40 100 L 40 120 L 40 140 L 40 160 L 40 180 L 40 200 L 40 220 L 40 240 L 40 260 L 40 280 L 40 300 L 40 320 L 40 340 L 40 360 L 40 380 L 40 400 L 40 420 L 40 440 L 40 460 L 40 480 L 40 500 L 40 520 L 40 540 L 40 560 L 40 580 L 40 600 L 40 620 L 40 640 L 40 660 L 40 680 L 40 700 L 40 720 L 40 740 L 40 760 L 40 780 L 40 800 L 40 820 L 40 840 L 40 860 L 40 880 L 40 900 L 60 900 L 80 900 L 100 900 L 120 900 L 140 900 L 160 900 L 180 900 L 200 900 L 220 900 L 240 900 L 260 900 L 280 900 L 300 900 L 320 900 L 340 900 L 360 900 L 380 900 L 400 900 L 420 900 L 440 900 L 460 900 L 480 900 L 500 900 L 520 900 L 540 900 L 560 900 L 580 900 L 600 900 L 620 900 L 640 900 L 660 900 L 680 900 L 700 900 L 720 900 L 740 900 L 760 900 L 780 900 L 800 900 L 820 900 L 840 900 L 860 900 L 880 900 L 900 900 L 900 880 L 900 860 L 900 840 L 900 820 L 900 800 L 900 780 L 900 760 L 900 740 L 900 720 L 900 700 L 900 680 L 900 660 L 900 640 L 900 620 L 900 600 L 900 580 L 900 560 L 900 540 L 900 520 L 900 500 L 900 480 L 900 460 L 900 440 L 900 420 L 900 400 L 900 380 L 900 360 L 900 340 L 900 320 L 900 300 L 900 280 L 900 260 L 900 240 L 900 220 L 900 200 L 900 180 L 900 160 L 900 140 L 900 120 L 900 100 L 900 80 L 900 60 L 900 40 L 880 40 L 860 40 L 840 40 L 820 40 L 800 40 L 780 40 L 760 40 L 740 40 L 720 40 L 700 40 L 680 40 L 660 40 L 640 40 L 620 40 L 600 40 L 580 40 L 560 40 L 540 40 L 520 40 L 500 40 L 480 40 L 460 40 L 440 40 L 420 40 L 400 40 L 380 40 L 360 40 L 340 40 L 320 40 L 300 40 L 280 40 L 260 40 L 240 40 L 220 40 L 200 40 L 180 40 L 160 40 L 140 40 L 120 40 L 100 40 L 80 40 L 60 40 L 40 40 z M 60 60 L 80 60 L 100 60 L 120 60 L 140 60 L 160 60 L 180 60 L 200 60 L 220 60 L 240 60 L 260 60 L 280 60 L 300 60 L 320 60 L 340 60 L 360 60 L 380 60 L 400 60 L 420 60 L 440 60 L 460 60 L 480 60 L 500 60 L 520 60 L 540 60 L 560 60 L 580 60 L 600 60 L 620 60 L 640 60 L 660 60 L 680 60 L 700 60 L 720 60 L 740 60 L 760 60 L 780 60 L 800 60 L 820 60 L 840 60 L 860 60 L 860 80 L 860 100 L 860 120 L 860 140 L 860 160 L 860 180 L 860 200 L 860 220 L 860 240 L 860 260 L 860 280 L 860 300 L 860 320 L 860 340 L 860 360 L 860 380 L 860 400 L 860 420 L 860 440 L 860 460 L 860 480 L 860 500 L 860 520 L 860 540 L 860 560 L 860 580 L 860 600 L 860 620 L 860 640 L 860 660 L 860 680 L 860 700 L 860 720 L 860 740 L 860 760 L 860 780 L 860 800 L 860 820 L 860 840 L 860 860 L 840 860 L 820 860 L 800 860 L 780 860 L 760 860 L 740 860 L 720 860 L 700 860 L 680 860 L 660 860 L 640 860 L 620 860 L 600 860 L 580 860 L 560 860 L 540 860 L 520 860 L 500 860 L 480 860 L 460 860 L 440 860 L 420 860 L 400 860 L 380 860 L 360 860 L 340 860 L 320 860 L 300 860 L 280 860 L 260 860 L 240 860 L 220 860 L 200 860 L 180 860 L 160 860 L 140 860 L 120 860 L 100 860 L 80 860 L 60 860 L 60 840 L 60 820 L 60 800 L 60 780 L 60 760 L 60 740 L 60 720 L 60 700 L 60 680 L 60 660 L 60 640 L 60 620 L 60 600 L 60 580 L 60 560 L 60 540 L 60 520 L 60 500 L 60 480 L 60 460 L 60 440 L 60 420 L 60 400 L 60 380 L 60 360 L 60 340 L 60 320 L 60 300 L 60 280 L 60 260 L 60 240 L 60 220 L 60 200 L 60 180 L 60 160 L 60 140 L 60 120 L 60 100 L 60 80 L 60 60 z "
     style="fill:#ffcc66" />
  <path
     id="rect4402"
     d="M 0 0 L 0 20 L 0 40 L 0 60 L 0 80 L 0 100 L 0 120 L 0 140 L 0 160 L 0 180 L 0 200 L 0 220 L 0 240 L 0 260 L 0 280 L 0 300 L 0 320 L 0 340 L 0 360 L 0 380 L 0 400 L 0 420 L 0 440 L 0 460 L 0 480 L 0 500 L 0 520 L 0 540 L 0 560 L 0 580 L 0 600 L 0 620 L 0 640 L 0 660 L 0 680 L 0 700 L 0 720 L 0 740 L 0 760 L 0 780 L 0 800 L 0 820 L 0 840 L 0 860 L 0 880 L 0 900 L 0 920 L 20 920 L 40 920 L 60 920 L 80 920 L 100 920 L 120 920 L 140 920 L 160 920 L 180 920 L 200 920 L 220 920 L 240 920 L 260 920 L 280 920 L 300 920 L 320 920 L 340 920 L 360 920 L 380 920 L 400 920 L 420 920 L 440 920 L 460 920 L 480 920 L 500 920 L 520 920 L 540 920 L 560 920 L 580 920 L 600 920 L 620 920 L 640 920 L 660 920 L 680 920 L 700 920 L 720 920 L 740 920 L 760 920 L 780 920 L 800 920 L 820 920 L 840 920 L 860 920 L 880 920 L 900 920 L 920 920 L 920 900 L 920 880 L 920 860 L 920 840 L 920 820 L 920 800 L 920 780 L 920 760 L 920 740 L 920 720 L 920 700 L 920 680 L 920 660 L 920 640 L 920 620 L 920 600 L 920 580 L 920 560 L 920 540 L 920 520 L 920 500 L 920 480 L 920 460 L 920 440 L 920 420 L 920 400 L 920 380 L 920 360 L 920 340 L 920 320 L 920 300 L 920 280 L 920 260 L 920 240 L 920 220 L 920 200 L 920 180 L 920 160 L 920 140 L 920 120 L 920 100 L 920 80 L 920 60 L 920 40 L 920 20 L 920 0 L 900 0 L 880 0 L 860 0 L 840 0 L 820 0 L 800 0 L 780 0 L 760 0 L 740 0 L 720 0 L 700 0 L 680 0 L 660 0 L 640 0 L 620 0 L 600 0 L 580 0 L 560 0 L 540 0 L 520 0 L 500 0 L 480 0 L 460 0 L 440 0 L 420 0 L 400 0 L 380 0 L 360 0 L 340 0 L 320 0 L 300 0 L 280 0 L 260 0 L 240 0 L 220 0 L 200 0 L 180 0 L 160 0 L 140 0 L 120 0 L 100 0 L 80 0 L 60 0 L 40 0 L 20 0 L 0 0 z M 40 40 L 60 40 L 80 40 L 100 40 L 120 40 L 140 40 L 160 40 L 180 40 L 200 40 L 220 40 L 240 40 L 260 40 L 280 40 L 300 40 L 320 40 L 340 40 L 360 40 L 380 40 L 400 40 L 420 40 L 440 40 L 460 40 L 480 40 L 500 40 L 520 40 L 540 40 L 560 40 L 580 40 L 600 40 L 620 40 L 640 40 L 660 40 L 680 40 L 700 40 L 720 40 L 740 40 L 760 40 L 780 40 L 800 40 L 820 40 L 840 40 L 860 40 L 880 40 L 900 40 L 900 60 L 900 80 L 900 100 L 900 120 L 900 140 L 900 160 L 900 180 L 900 200 L 900 220 L 900 240 L 900 260 L 900 280 L 900 300 L 900 320 L 900 340 L 900 360 L 900 380 L 900 400 L 900 420 L 900 440 L 900 460 L 900 480 L 900 500 L 900 520 L 900 540 L 900 560 L 900 580 L 900 600 L 900 620 L 900 640 L 900 660 L 900 680 L 900 700 L 900 720 L 900 740 L 900 760 L 900 780 L 900 800 L 900 820 L 900 840 L 900 860 L 900 880 L 900 900 L 880 900 L 860 900 L 840 900 L 820 900 L 800 900 L 780 900 L 760 900 L 740 900 L 720 900 L 700 900 L 680 900 L 660 900 L 640 900 L 620 900 L 600 900 L 580 900 L 560 900 L 540 900 L 520 900 L 500 900 L 480 900 L 460 900 L 440 900 L 420 900 L 400 900 L 380 900 L 360 900 L 340 900 L 320 900 L 300 900 L 280 900 L 260 900 L 240 900 L 220 900 L 200 900 L 180 900 L 160 900 L 140 900 L 120 900 L 100 900 L 80 900 L 60 900 L 40 900 L 40 880 L 40 860 L 40 840 L 40 820 L 40 800 L 40 780 L 40 760 L 40 740 L 40 720 L 40 700 L 40 680 L 40 660 L 40 640 L 40 620 L 40 600 L 40 580 L 40 560 L 40 540 L 40 520 L 40 500 L 40 480 L 40 460 L 40 440 L 40 420 L 40 400 L 40 380 L 40 360 L 40 340 L 40 320 L 40 300 L 40 280 L 40 260 L 40 240 L 40 220 L 40 200 L 40 180 L 40 160 L 40 140 L 40 120 L 40 100 L 40 80 L 40 60 L 40 40 z M 600 220 L 600 240 L 600 260 L 620 260 L 640 260 L 640 240 L 640 220 L 620 220 L 600 220 z M 760 600 L 760 620 L 760 640 L 780 640 L 800 640 L 800 620 L 800 600 L 780 600 L 760 600 z "
     style="fill:#020202" />
  <path
     id="rect4586"
     d="M 920 60 L 920 80 L 920 100 L 920 120 L 920 140 L 920 160 L 920 180 L 920 200 L 920 220 L 920 240 L 920 260 L 920 280 L 920 300 L 920 320 L 920 340 L 920 360 L 920 380 L 920 400 L 920 420 L 920 440 L 920 460 L 920 480 L 920 500 L 920 520 L 920 540 L 920 560 L 920 580 L 920 600 L 920 620 L 920 640 L 920 660 L 920 680 L 920 700 L 920 720 L 920 740 L 920 760 L 920 780 L 920 800 L 920 820 L 920 840 L 920 860 L 920 880 L 920 900 L 920 920 L 900 920 L 880 920 L 860 920 L 840 920 L 820 920 L 800 920 L 780 920 L 760 920 L 740 920 L 720 920 L 700 920 L 680 920 L 660 920 L 640 920 L 620 920 L 600 920 L 580 920 L 560 920 L 540 920 L 520 920 L 500 920 L 480 920 L 460 920 L 440 920 L 420 920 L 400 920 L 380 920 L 360 920 L 340 920 L 320 920 L 300 920 L 280 920 L 260 920 L 240 920 L 220 920 L 200 920 L 180 920 L 160 920 L 140 920 L 120 920 L 100 920 L 80 920 L 60 920 L 60 940 L 60 960 L 80 960 L 100 960 L 120 960 L 140 960 L 160 960 L 180 960 L 200 960 L 220 960 L 240 960 L 260 960 L 280 960 L 300 960 L 320 960 L 340 960 L 360 960 L 380 960 L 400 960 L 420 960 L 440 960 L 460 960 L 480 960 L 500 960 L 520 960 L 540 960 L 560 960 L 580 960 L 600 960 L 620 960 L 640 960 L 660 960 L 680 960 L 700 960 L 720 960 L 740 960 L 760 960 L 780 960 L 800 960 L 820 960 L 840 960 L 860 960 L 880 960 L 900 960 L 920 960 L 940 960 L 960 960 L 960 940 L 960 920 L 960 900 L 960 880 L 960 860 L 960 840 L 960 820 L 960 800 L 960 780 L 960 760 L 960 740 L 960 720 L 960 700 L 960 680 L 960 660 L 960 640 L 960 620 L 960 600 L 960 580 L 960 560 L 960 540 L 960 520 L 960 500 L 960 480 L 960 460 L 960 440 L 960 420 L 960 400 L 960 380 L 960 360 L 960 340 L 960 320 L 960 300 L 960 280 L 960 260 L 960 240 L 960 220 L 960 200 L 960 180 L 960 160 L 960 140 L 960 120 L 960 100 L 960 80 L 960 60 L 940 60 L 920 60 z M 680 100 L 680 120 L 700 120 L 720 120 L 740 120 L 740 100 L 720 100 L 700 100 L 680 100 z M 680 120 L 660 120 L 640 120 L 620 120 L 600 120 L 580 120 L 580 140 L 580 160 L 600 160 L 620 160 L 640 160 L 660 160 L 680 160 L 680 140 L 680 120 z M 800 100 L 800 120 L 820 120 L 840 120 L 840 100 L 820 100 L 800 100 z M 260 120 L 260 140 L 260 160 L 260 180 L 260 200 L 260 220 L 280 220 L 280 200 L 300 200 L 320 200 L 340 200 L 360 200 L 380 200 L 380 180 L 380 160 L 360 160 L 340 160 L 320 160 L 300 160 L 280 160 L 280 140 L 280 120 L 260 120 z M 260 220 L 240 220 L 220 220 L 220 240 L 220 260 L 220 280 L 240 280 L 260 280 L 260 260 L 260 240 L 260 220 z M 220 220 L 220 200 L 200 200 L 200 220 L 220 220 z M 200 220 L 180 220 L 160 220 L 160 200 L 140 200 L 120 200 L 120 220 L 120 240 L 120 260 L 140 260 L 160 260 L 180 260 L 200 260 L 200 240 L 200 220 z M 120 260 L 100 260 L 100 280 L 120 280 L 120 260 z M 480 160 L 480 180 L 480 200 L 500 200 L 520 200 L 520 180 L 520 160 L 500 160 L 480 160 z M 740 200 L 740 220 L 760 220 L 760 200 L 740 200 z M 800 260 L 800 280 L 800 300 L 800 320 L 780 320 L 760 320 L 740 320 L 740 340 L 740 360 L 740 380 L 760 380 L 760 360 L 780 360 L 800 360 L 820 360 L 840 360 L 840 340 L 840 320 L 840 300 L 840 280 L 840 260 L 820 260 L 800 260 z M 760 380 L 760 400 L 760 420 L 780 420 L 800 420 L 800 400 L 800 380 L 780 380 L 760 380 z M 200 360 L 200 380 L 220 380 L 240 380 L 260 380 L 260 360 L 240 360 L 220 360 L 200 360 z M 520 360 L 520 380 L 540 380 L 560 380 L 580 380 L 580 360 L 560 360 L 540 360 L 520 360 z M 220 440 L 220 460 L 220 480 L 220 500 L 220 520 L 200 520 L 200 540 L 220 540 L 240 540 L 260 540 L 260 560 L 260 580 L 280 580 L 280 600 L 280 620 L 280 640 L 300 640 L 320 640 L 320 660 L 320 680 L 320 700 L 320 720 L 320 740 L 320 760 L 340 760 L 360 760 L 360 740 L 380 740 L 380 720 L 380 700 L 360 700 L 360 680 L 380 680 L 400 680 L 420 680 L 420 700 L 420 720 L 420 740 L 440 740 L 440 720 L 440 700 L 440 680 L 440 660 L 440 640 L 420 640 L 400 640 L 380 640 L 380 620 L 380 600 L 380 580 L 380 560 L 380 540 L 380 520 L 360 520 L 340 520 L 320 520 L 320 540 L 340 540 L 360 540 L 360 560 L 360 580 L 340 580 L 320 580 L 320 560 L 320 540 L 300 540 L 280 540 L 280 520 L 260 520 L 260 500 L 260 480 L 260 460 L 260 440 L 240 440 L 220 440 z M 380 520 L 400 520 L 420 520 L 420 500 L 420 480 L 400 480 L 380 480 L 380 500 L 380 520 z M 700 540 L 700 560 L 700 580 L 720 580 L 740 580 L 740 560 L 740 540 L 720 540 L 700 540 z M 760 540 L 760 560 L 760 580 L 780 580 L 800 580 L 800 560 L 800 540 L 780 540 L 760 540 z M 800 580 L 800 600 L 820 600 L 840 600 L 840 580 L 820 580 L 800 580 z M 420 580 L 420 600 L 440 600 L 440 580 L 420 580 z M 100 600 L 100 620 L 100 640 L 120 640 L 120 620 L 120 600 L 100 600 z M 740 600 L 740 620 L 740 640 L 760 640 L 760 620 L 760 600 L 740 600 z M 200 640 L 200 660 L 200 680 L 220 680 L 220 660 L 220 640 L 200 640 z M 800 640 L 800 660 L 800 680 L 820 680 L 840 680 L 840 660 L 840 640 L 820 640 L 800 640 z M 200 700 L 200 720 L 200 740 L 220 740 L 220 720 L 220 700 L 200 700 z M 700 700 L 700 720 L 700 740 L 720 740 L 740 740 L 740 720 L 740 700 L 720 700 L 700 700 z M 700 740 L 680 740 L 680 760 L 700 760 L 700 740 z M 680 760 L 660 760 L 640 760 L 640 780 L 640 800 L 660 800 L 680 800 L 680 780 L 680 760 z M 640 800 L 620 800 L 600 800 L 600 820 L 600 840 L 620 840 L 640 840 L 640 820 L 640 800 z M 760 700 L 760 720 L 760 740 L 760 760 L 780 760 L 800 760 L 800 740 L 800 720 L 800 700 L 780 700 L 760 700 z M 480 740 L 480 760 L 500 760 L 520 760 L 520 740 L 500 740 L 480 740 z M 480 760 L 460 760 L 440 760 L 440 780 L 440 800 L 460 800 L 480 800 L 480 780 L 480 760 z M 280 800 L 280 820 L 280 840 L 300 840 L 320 840 L 320 820 L 320 800 L 300 800 L 280 800 z M 380 800 L 380 820 L 380 840 L 400 840 L 420 840 L 420 820 L 420 800 L 400 800 L 380 800 z M 760 800 L 760 820 L 760 840 L 780 840 L 800 840 L 800 820 L 800 800 L 780 800 L 760 800 z "
     style="fill:#8a8a8a" />
</svg>
