<?xml version="1.0" encoding="UTF-8" standalone="no"?>
<svg
   xmlns:dc="http://purl.org/dc/elements/1.1/"
   xmlns:cc="http://creativecommons.org/ns#"
   xmlns:rdf="http://www.w3.org/1999/02/22-rdf-syntax-ns#"
   xmlns:svg="http://www.w3.org/2000/svg"
   xmlns="http://www.w3.org/2000/svg"
   id="svg2934"
   width="960px"
   version="1.1"
   height="960px">
  <metadata
     id="metadata2938">
    <rdf:RDF>
      <cc:Work
         rdf:about="">
        <dc:format>image/svg+xml</dc:format>
        <dc:type
           rdf:resource="http://purl.org/dc/dcmitype/StillImage" />
      </cc:Work>
    </rdf:RDF>
  </metadata>
  <defs
     id="defs2" />
  <path
     style="fill:#808000"
     d="M 100 80 L 100 100 L 120 100 L 140 100 L 160 100 L 160 80 L 140 80 L 120 80 L 100 80 z M 200 80 L 200 100 L 220 100 L 240 100 L 240 80 L 220 80 L 200 80 z M 240 100 L 240 120 L 260 120 L 260 100 L 240 100 z M 260 120 L 260 140 L 280 140 L 280 120 L 260 120 z M 280 140 L 280 160 L 300 160 L 300 140 L 280 140 z M 300 160 L 300 180 L 300 200 L 300 220 L 300 240 L 300 260 L 320 260 L 320 240 L 320 220 L 320 200 L 320 180 L 320 160 L 300 160 z M 300 260 L 280 260 L 280 280 L 300 280 L 300 260 z M 100 120 L 100 140 L 80 140 L 80 160 L 60 160 L 60 180 L 80 180 L 100 180 L 100 160 L 120 160 L 120 140 L 140 140 L 140 120 L 120 120 L 100 120 z M 200 140 L 200 160 L 220 160 L 220 140 L 200 140 z M 200 160 L 180 160 L 180 180 L 200 180 L 200 160 z M 180 180 L 160 180 L 160 200 L 180 200 L 180 180 z M 160 200 L 140 200 L 140 220 L 160 220 L 160 200 z M 140 220 L 120 220 L 120 240 L 140 240 L 140 220 z M 120 240 L 100 240 L 100 260 L 120 260 L 120 240 z M 100 260 L 80 260 L 80 280 L 100 280 L 100 260 z M 100 280 L 100 300 L 120 300 L 120 280 L 100 280 z M 120 300 L 120 320 L 140 320 L 140 300 L 120 300 z M 20 280 L 20 300 L 40 300 L 40 280 L 20 280 z M 40 300 L 40 320 L 60 320 L 60 300 L 40 300 z M 60 320 L 60 340 L 80 340 L 80 320 L 60 320 z M 80 340 L 80 360 L 100 360 L 100 340 L 80 340 z M 80 360 L 60 360 L 60 340 L 40 340 L 40 320 L 20 320 L 20 340 L 20 360 L 40 360 L 40 380 L 60 380 L 60 400 L 80 400 L 100 400 L 120 400 L 140 400 L 160 400 L 180 400 L 200 400 L 200 380 L 180 380 L 160 380 L 140 380 L 120 380 L 100 380 L 80 380 L 80 360 z M 200 380 L 220 380 L 220 360 L 200 360 L 200 380 z M 220 300 L 220 320 L 240 320 L 240 300 L 220 300 z M 240 320 L 240 340 L 260 340 L 260 320 L 240 320 z M 260 340 L 260 360 L 280 360 L 280 340 L 260 340 z M 280 360 L 280 380 L 300 380 L 300 360 L 280 360 z M 300 380 L 300 400 L 320 400 L 320 380 L 300 380 z M 320 400 L 320 420 L 340 420 L 340 400 L 320 400 z M 340 420 L 340 440 L 360 440 L 360 420 L 340 420 z M 360 440 L 360 460 L 380 460 L 380 440 L 360 440 z M 380 460 L 380 480 L 400 480 L 400 460 L 380 460 z M 400 480 L 400 500 L 420 500 L 420 480 L 400 480 z M 420 500 L 420 520 L 440 520 L 440 500 L 420 500 z M 440 520 L 440 540 L 460 540 L 460 520 L 440 520 z M 240 400 L 240 420 L 260 420 L 260 400 L 240 400 z M 280 420 L 280 440 L 300 440 L 300 420 L 280 420 z M 300 440 L 300 460 L 320 460 L 320 440 L 300 440 z M 280 440 L 260 440 L 240 440 L 240 460 L 260 460 L 280 460 L 280 440 z M 300 480 L 300 500 L 320 500 L 340 500 L 340 480 L 320 480 L 300 480 z M 360 520 L 360 540 L 380 540 L 380 520 L 360 520 z M 360 560 L 360 580 L 380 580 L 400 580 L 420 580 L 440 580 L 460 580 L 460 560 L 440 560 L 420 560 L 400 560 L 380 560 L 360 560 z "
     id="rect1992" />
  <path
     style="fill:#0000ff"
     d="M 360 140 L 360 160 L 340 160 L 340 180 L 340 200 L 340 220 L 360 220 L 360 240 L 380 240 L 400 240 L 400 260 L 420 260 L 440 260 L 440 280 L 460 280 L 480 280 L 480 300 L 500 300 L 520 300 L 520 320 L 540 320 L 560 320 L 560 340 L 580 340 L 600 340 L 600 360 L 620 360 L 640 360 L 640 380 L 660 380 L 680 380 L 680 400 L 700 400 L 720 400 L 740 400 L 760 400 L 780 400 L 780 380 L 780 360 L 780 340 L 760 340 L 740 340 L 740 320 L 720 320 L 700 320 L 700 300 L 680 300 L 660 300 L 660 280 L 640 280 L 620 280 L 620 260 L 600 260 L 580 260 L 580 240 L 560 240 L 540 240 L 540 220 L 520 220 L 500 220 L 500 200 L 480 200 L 460 200 L 460 180 L 440 180 L 420 180 L 420 160 L 400 160 L 380 160 L 380 140 L 360 140 z M 400 380 L 400 400 L 420 400 L 420 380 L 400 380 z M 420 400 L 420 420 L 440 420 L 440 440 L 460 440 L 460 460 L 480 460 L 480 480 L 500 480 L 500 500 L 500 520 L 520 520 L 520 540 L 540 540 L 560 540 L 560 560 L 580 560 L 600 560 L 600 580 L 620 580 L 640 580 L 640 600 L 660 600 L 680 600 L 680 620 L 700 620 L 720 620 L 720 640 L 740 640 L 760 640 L 760 620 L 780 620 L 780 600 L 780 580 L 780 560 L 760 560 L 740 560 L 740 540 L 720 540 L 700 540 L 700 520 L 680 520 L 660 520 L 660 500 L 640 500 L 620 500 L 620 480 L 600 480 L 580 480 L 580 460 L 560 460 L 540 460 L 540 440 L 520 440 L 500 440 L 500 420 L 480 420 L 460 420 L 460 400 L 440 400 L 420 400 z "
     id="rect2270" />
  <path
     style="fill:#c0c0c0"
     d="M 340 240 L 340 260 L 340 280 L 340 300 L 340 320 L 340 340 L 360 340 L 360 320 L 360 300 L 360 280 L 360 260 L 360 240 L 340 240 z M 760 300 L 760 320 L 780 320 L 780 300 L 760 300 z M 800 320 L 800 340 L 820 340 L 820 320 L 800 320 z M 800 360 L 800 380 L 820 380 L 820 360 L 800 360 z M 820 380 L 820 400 L 840 400 L 840 380 L 820 380 z M 840 380 L 860 380 L 860 360 L 840 360 L 840 380 z M 840 400 L 840 420 L 860 420 L 860 400 L 840 400 z M 840 420 L 820 420 L 820 440 L 840 440 L 840 420 z M 820 440 L 800 440 L 800 460 L 820 460 L 820 440 z M 820 460 L 820 480 L 840 480 L 840 460 L 820 460 z M 820 480 L 800 480 L 800 500 L 780 500 L 760 500 L 760 520 L 760 540 L 740 540 L 740 560 L 760 560 L 780 560 L 780 580 L 800 580 L 800 560 L 800 540 L 820 540 L 820 520 L 820 500 L 820 480 z M 800 480 L 800 460 L 780 460 L 780 480 L 800 480 z M 800 440 L 800 420 L 780 420 L 780 440 L 800 440 z M 780 420 L 780 400 L 760 400 L 760 420 L 780 420 z M 780 400 L 800 400 L 800 380 L 780 380 L 780 400 z M 800 400 L 800 420 L 820 420 L 820 400 L 800 400 z M 140 440 L 140 460 L 120 460 L 120 480 L 120 500 L 100 500 L 100 520 L 100 540 L 80 540 L 80 560 L 80 580 L 60 580 L 60 600 L 60 620 L 80 620 L 80 640 L 100 640 L 120 640 L 120 660 L 140 660 L 160 660 L 160 680 L 180 680 L 200 680 L 200 700 L 220 700 L 220 680 L 220 660 L 200 660 L 180 660 L 180 640 L 160 640 L 160 620 L 180 620 L 180 600 L 160 600 L 140 600 L 140 580 L 140 560 L 160 560 L 160 540 L 160 520 L 180 520 L 180 500 L 180 480 L 200 480 L 200 460 L 200 440 L 180 440 L 180 460 L 160 460 L 160 440 L 140 440 z M 220 480 L 220 500 L 240 500 L 260 500 L 260 520 L 280 520 L 280 540 L 300 540 L 300 520 L 300 500 L 280 500 L 280 480 L 260 480 L 240 480 L 220 480 z M 280 540 L 260 540 L 260 560 L 260 580 L 280 580 L 280 560 L 280 540 z M 320 540 L 320 560 L 320 580 L 320 600 L 340 600 L 340 620 L 360 620 L 380 620 L 380 640 L 400 640 L 420 640 L 440 640 L 460 640 L 460 620 L 480 620 L 480 600 L 500 600 L 500 580 L 500 560 L 480 560 L 480 580 L 460 580 L 460 600 L 440 600 L 420 600 L 400 600 L 380 600 L 360 600 L 360 580 L 340 580 L 340 560 L 340 540 L 320 540 z M 320 640 L 320 660 L 340 660 L 340 640 L 320 640 z M 360 660 L 360 680 L 380 680 L 380 660 L 360 660 z M 400 680 L 400 700 L 420 700 L 420 680 L 400 680 z "
     id="rect2460" />
  <path
     style="fill:#ffff00"
     d="M 80 80 L 80 100 L 60 100 L 60 120 L 40 120 L 40 140 L 20 140 L 20 160 L 20 180 L 20 200 L 20 220 L 40 220 L 40 240 L 40 260 L 20 260 L 20 280 L 40 280 L 40 300 L 60 300 L 60 320 L 80 320 L 80 340 L 100 340 L 100 360 L 120 360 L 140 360 L 160 360 L 180 360 L 200 360 L 200 340 L 220 340 L 220 360 L 240 360 L 240 380 L 240 400 L 260 400 L 260 420 L 280 420 L 300 420 L 300 440 L 320 440 L 320 460 L 340 460 L 340 480 L 360 480 L 360 500 L 360 520 L 380 520 L 380 540 L 400 540 L 420 540 L 440 540 L 440 520 L 420 520 L 420 500 L 400 500 L 400 480 L 380 480 L 380 460 L 360 460 L 360 440 L 340 440 L 340 420 L 320 420 L 320 400 L 300 400 L 300 380 L 280 380 L 280 360 L 260 360 L 260 340 L 240 340 L 240 320 L 220 320 L 220 300 L 240 300 L 260 300 L 260 320 L 280 320 L 280 340 L 300 340 L 300 360 L 320 360 L 320 380 L 340 380 L 340 400 L 360 400 L 360 420 L 380 420 L 380 440 L 400 440 L 400 460 L 420 460 L 420 480 L 440 480 L 440 500 L 460 500 L 460 520 L 480 520 L 480 500 L 480 480 L 460 480 L 460 460 L 440 460 L 440 440 L 420 440 L 420 420 L 400 420 L 400 400 L 380 400 L 380 380 L 360 380 L 360 360 L 340 360 L 340 340 L 320 340 L 320 320 L 300 320 L 300 300 L 280 300 L 280 280 L 280 260 L 300 260 L 300 240 L 300 220 L 300 200 L 300 180 L 300 160 L 280 160 L 280 140 L 260 140 L 260 120 L 240 120 L 240 100 L 220 100 L 200 100 L 180 100 L 160 100 L 140 100 L 120 100 L 100 100 L 100 80 L 80 80 z M 100 120 L 120 120 L 140 120 L 140 140 L 140 160 L 120 160 L 120 180 L 100 180 L 100 200 L 80 200 L 80 180 L 60 180 L 60 160 L 80 160 L 80 140 L 100 140 L 100 120 z M 200 140 L 220 140 L 220 160 L 240 160 L 240 180 L 260 180 L 260 200 L 240 200 L 240 220 L 220 220 L 220 240 L 200 240 L 200 260 L 180 260 L 180 280 L 160 280 L 160 300 L 140 300 L 140 320 L 120 320 L 120 300 L 100 300 L 100 280 L 80 280 L 80 260 L 100 260 L 100 240 L 120 240 L 120 220 L 140 220 L 140 200 L 160 200 L 160 180 L 180 180 L 180 160 L 200 160 L 200 140 z M 200 160 L 200 180 L 180 180 L 180 200 L 160 200 L 160 220 L 140 220 L 140 240 L 120 240 L 120 260 L 100 260 L 100 280 L 120 280 L 120 300 L 140 300 L 140 280 L 160 280 L 160 260 L 180 260 L 180 240 L 200 240 L 200 220 L 220 220 L 220 200 L 240 200 L 240 180 L 220 180 L 220 160 L 200 160 z M 560 600 L 560 620 L 540 620 L 540 640 L 560 640 L 560 660 L 580 660 L 600 660 L 600 680 L 620 680 L 640 680 L 640 700 L 660 700 L 660 680 L 680 680 L 680 660 L 660 660 L 660 640 L 640 640 L 620 640 L 620 620 L 600 620 L 580 620 L 580 600 L 560 600 z M 500 720 L 500 740 L 480 740 L 480 760 L 500 760 L 500 780 L 520 780 L 540 780 L 540 800 L 560 800 L 580 800 L 580 820 L 600 820 L 600 800 L 620 800 L 620 780 L 600 780 L 600 760 L 580 760 L 560 760 L 560 740 L 540 740 L 520 740 L 520 720 L 500 720 z "
     id="rect2790" />
  <path
     style="fill:#808080"
     d="M 160 60 L 160 80 L 180 80 L 200 80 L 200 60 L 180 60 L 160 60 z M 0 220 L 0 240 L 0 260 L 20 260 L 20 240 L 20 220 L 0 220 z M 300 280 L 300 300 L 320 300 L 320 280 L 300 280 z M 240 300 L 240 320 L 260 320 L 260 300 L 240 300 z M 260 320 L 260 340 L 280 340 L 280 320 L 260 320 z M 280 340 L 280 360 L 300 360 L 300 340 L 280 340 z M 300 360 L 300 380 L 320 380 L 320 360 L 300 360 z M 320 380 L 320 400 L 340 400 L 340 380 L 320 380 z M 340 400 L 340 420 L 360 420 L 360 400 L 340 400 z M 360 420 L 360 440 L 380 440 L 380 420 L 360 420 z M 380 440 L 380 460 L 400 460 L 400 440 L 380 440 z M 400 460 L 400 480 L 420 480 L 420 460 L 400 460 z M 420 480 L 420 500 L 440 500 L 440 480 L 420 480 z M 440 500 L 440 520 L 460 520 L 460 500 L 440 500 z M 360 300 L 360 320 L 360 340 L 380 340 L 400 340 L 400 360 L 420 360 L 440 360 L 440 380 L 460 380 L 480 380 L 480 360 L 480 340 L 460 340 L 440 340 L 440 320 L 420 320 L 400 320 L 400 300 L 380 300 L 360 300 z M 520 380 L 520 400 L 520 420 L 540 420 L 560 420 L 560 440 L 580 440 L 600 440 L 600 460 L 620 460 L 640 460 L 640 440 L 640 420 L 620 420 L 600 420 L 600 400 L 580 400 L 560 400 L 560 380 L 540 380 L 520 380 z M 140 420 L 140 440 L 160 440 L 180 440 L 200 440 L 220 440 L 220 420 L 200 420 L 180 420 L 160 420 L 140 420 z M 740 440 L 740 460 L 740 480 L 720 480 L 720 500 L 720 520 L 700 520 L 700 540 L 720 540 L 740 540 L 760 540 L 760 520 L 760 500 L 780 500 L 780 480 L 780 460 L 780 440 L 760 440 L 740 440 z M 220 460 L 220 480 L 240 480 L 240 460 L 220 460 z M 240 540 L 240 560 L 240 580 L 260 580 L 260 560 L 260 540 L 240 540 z M 540 580 L 540 600 L 540 620 L 560 620 L 560 600 L 580 600 L 580 580 L 560 580 L 540 580 z M 580 600 L 580 620 L 600 620 L 620 620 L 620 600 L 600 600 L 580 600 z M 620 620 L 620 640 L 640 640 L 660 640 L 660 620 L 640 620 L 620 620 z M 660 640 L 660 660 L 680 660 L 680 680 L 700 680 L 700 660 L 700 640 L 680 640 L 660 640 z M 680 680 L 660 680 L 660 700 L 640 700 L 640 720 L 660 720 L 680 720 L 680 700 L 680 680 z M 640 700 L 640 680 L 620 680 L 600 680 L 600 700 L 620 700 L 640 700 z M 600 680 L 600 660 L 580 660 L 560 660 L 560 680 L 580 680 L 600 680 z M 560 660 L 560 640 L 540 640 L 540 620 L 520 620 L 520 640 L 520 660 L 540 660 L 560 660 z M 160 620 L 160 640 L 180 640 L 180 660 L 200 660 L 220 660 L 240 660 L 240 640 L 220 640 L 220 620 L 200 620 L 180 620 L 160 620 z M 320 620 L 320 640 L 340 640 L 340 660 L 360 660 L 380 660 L 380 680 L 400 680 L 420 680 L 420 700 L 440 700 L 440 680 L 440 660 L 420 660 L 400 660 L 400 640 L 380 640 L 360 640 L 360 620 L 340 620 L 320 620 z M 480 700 L 480 720 L 480 740 L 500 740 L 500 720 L 520 720 L 520 700 L 500 700 L 480 700 z M 520 720 L 520 740 L 540 740 L 560 740 L 560 720 L 540 720 L 520 720 z M 560 740 L 560 760 L 580 760 L 600 760 L 600 740 L 580 740 L 560 740 z M 600 760 L 600 780 L 620 780 L 620 800 L 640 800 L 640 780 L 640 760 L 620 760 L 600 760 z M 620 800 L 600 800 L 600 820 L 580 820 L 580 840 L 600 840 L 620 840 L 620 820 L 620 800 z M 580 820 L 580 800 L 560 800 L 540 800 L 540 820 L 560 820 L 580 820 z M 540 800 L 540 780 L 520 780 L 500 780 L 500 800 L 520 800 L 540 800 z M 500 780 L 500 760 L 480 760 L 480 740 L 460 740 L 460 760 L 460 780 L 480 780 L 500 780 z "
     id="rect2826" />
  <path
     style="fill:#ffffff"
     d="M 320 60 L 320 80 L 320 100 L 300 100 L 300 120 L 300 140 L 320 140 L 320 160 L 340 160 L 360 160 L 360 140 L 380 140 L 380 160 L 400 160 L 420 160 L 420 180 L 440 180 L 460 180 L 460 200 L 480 200 L 500 200 L 500 220 L 520 220 L 540 220 L 540 240 L 560 240 L 580 240 L 580 260 L 600 260 L 620 260 L 620 280 L 640 280 L 660 280 L 660 300 L 680 300 L 700 300 L 700 320 L 720 320 L 740 320 L 740 340 L 760 340 L 780 340 L 780 360 L 780 380 L 800 380 L 800 360 L 820 360 L 820 380 L 840 380 L 840 360 L 860 360 L 860 380 L 840 380 L 840 400 L 860 400 L 860 420 L 880 420 L 880 400 L 880 380 L 900 380 L 900 360 L 900 340 L 880 340 L 880 320 L 860 320 L 840 320 L 840 300 L 820 300 L 800 300 L 800 280 L 780 280 L 760 280 L 760 260 L 740 260 L 720 260 L 720 240 L 700 240 L 680 240 L 680 220 L 660 220 L 640 220 L 640 200 L 620 200 L 600 200 L 600 180 L 580 180 L 560 180 L 560 160 L 540 160 L 520 160 L 520 140 L 500 140 L 480 140 L 480 120 L 460 120 L 440 120 L 440 100 L 420 100 L 400 100 L 400 80 L 380 80 L 360 80 L 360 60 L 340 60 L 320 60 z M 860 420 L 840 420 L 840 440 L 820 440 L 820 460 L 840 460 L 860 460 L 860 440 L 860 420 z M 820 460 L 800 460 L 800 480 L 820 480 L 820 460 z M 820 480 L 820 500 L 840 500 L 840 480 L 820 480 z M 800 480 L 780 480 L 780 500 L 800 500 L 800 480 z M 800 460 L 800 440 L 780 440 L 780 460 L 800 460 z M 780 440 L 780 420 L 760 420 L 760 440 L 780 440 z M 780 420 L 800 420 L 800 400 L 780 400 L 780 420 z M 800 400 L 820 400 L 820 380 L 800 380 L 800 400 z M 820 400 L 820 420 L 840 420 L 840 400 L 820 400 z M 820 420 L 800 420 L 800 440 L 820 440 L 820 420 z M 220 160 L 220 180 L 240 180 L 240 160 L 220 160 z M 240 180 L 240 200 L 260 200 L 260 180 L 240 180 z M 240 200 L 220 200 L 220 220 L 240 220 L 240 200 z M 220 220 L 200 220 L 200 240 L 220 240 L 220 220 z M 200 240 L 180 240 L 180 260 L 200 260 L 200 240 z M 180 260 L 160 260 L 160 280 L 180 280 L 180 260 z M 160 280 L 140 280 L 140 300 L 160 300 L 160 280 z M 360 240 L 360 260 L 360 280 L 360 300 L 380 300 L 400 300 L 400 320 L 420 320 L 440 320 L 440 340 L 460 340 L 480 340 L 480 360 L 480 380 L 460 380 L 440 380 L 440 360 L 420 360 L 400 360 L 400 340 L 380 340 L 360 340 L 360 360 L 380 360 L 380 380 L 400 380 L 420 380 L 420 400 L 440 400 L 460 400 L 460 420 L 480 420 L 500 420 L 500 440 L 520 440 L 540 440 L 540 460 L 560 460 L 580 460 L 580 480 L 600 480 L 620 480 L 620 500 L 640 500 L 660 500 L 660 520 L 680 520 L 680 500 L 680 480 L 700 480 L 700 460 L 700 440 L 720 440 L 720 420 L 720 400 L 700 400 L 680 400 L 680 380 L 660 380 L 640 380 L 640 360 L 620 360 L 600 360 L 600 340 L 580 340 L 560 340 L 560 320 L 540 320 L 520 320 L 520 300 L 500 300 L 480 300 L 480 280 L 460 280 L 440 280 L 440 260 L 420 260 L 400 260 L 400 240 L 380 240 L 360 240 z M 760 300 L 780 300 L 780 320 L 760 320 L 760 300 z M 800 320 L 820 320 L 820 340 L 800 340 L 800 320 z M 520 380 L 540 380 L 560 380 L 560 400 L 580 400 L 600 400 L 600 420 L 620 420 L 640 420 L 640 440 L 640 460 L 620 460 L 600 460 L 600 440 L 580 440 L 560 440 L 560 420 L 540 420 L 520 420 L 520 400 L 520 380 z M 160 440 L 160 460 L 180 460 L 180 440 L 160 440 z M 220 500 L 220 520 L 200 520 L 200 540 L 200 560 L 180 560 L 180 580 L 200 580 L 220 580 L 220 600 L 240 600 L 260 600 L 260 580 L 240 580 L 240 560 L 240 540 L 260 540 L 280 540 L 280 520 L 260 520 L 260 500 L 240 500 L 220 500 z M 500 520 L 500 540 L 500 560 L 500 580 L 500 600 L 480 600 L 480 620 L 460 620 L 460 640 L 440 640 L 420 640 L 400 640 L 400 660 L 420 660 L 440 660 L 440 680 L 440 700 L 420 700 L 400 700 L 400 680 L 380 680 L 360 680 L 360 660 L 340 660 L 320 660 L 320 640 L 320 620 L 340 620 L 340 600 L 320 600 L 320 580 L 300 580 L 300 600 L 300 620 L 280 620 L 280 640 L 280 660 L 260 660 L 260 680 L 260 700 L 240 700 L 240 720 L 260 720 L 280 720 L 280 740 L 300 740 L 320 740 L 320 760 L 340 760 L 360 760 L 360 780 L 380 780 L 400 780 L 400 800 L 420 800 L 440 800 L 440 820 L 460 820 L 480 820 L 480 840 L 500 840 L 520 840 L 520 860 L 540 860 L 560 860 L 560 880 L 580 880 L 600 880 L 600 900 L 620 900 L 640 900 L 640 880 L 640 860 L 660 860 L 660 840 L 660 820 L 680 820 L 680 800 L 680 780 L 700 780 L 700 760 L 700 740 L 720 740 L 720 720 L 720 700 L 740 700 L 740 680 L 740 660 L 760 660 L 760 640 L 740 640 L 720 640 L 720 620 L 700 620 L 680 620 L 680 600 L 660 600 L 640 600 L 640 580 L 620 580 L 600 580 L 600 560 L 580 560 L 560 560 L 560 540 L 540 540 L 520 540 L 520 520 L 500 520 z M 540 580 L 560 580 L 580 580 L 580 600 L 600 600 L 620 600 L 620 620 L 640 620 L 660 620 L 660 640 L 680 640 L 700 640 L 700 660 L 700 680 L 680 680 L 680 700 L 680 720 L 660 720 L 640 720 L 640 700 L 620 700 L 600 700 L 600 680 L 580 680 L 560 680 L 560 660 L 540 660 L 520 660 L 520 640 L 520 620 L 540 620 L 540 600 L 540 580 z M 360 620 L 360 640 L 380 640 L 380 620 L 360 620 z M 480 700 L 500 700 L 520 700 L 520 720 L 540 720 L 560 720 L 560 740 L 580 740 L 600 740 L 600 760 L 620 760 L 640 760 L 640 780 L 640 800 L 620 800 L 620 820 L 620 840 L 600 840 L 580 840 L 580 820 L 560 820 L 540 820 L 540 800 L 520 800 L 500 800 L 500 780 L 480 780 L 460 780 L 460 760 L 460 740 L 480 740 L 480 720 L 480 700 z "
     id="rect2902" />
  <path
     style="fill:#000000"
     d="M 300 0 L 300 20 L 300 40 L 280 40 L 280 60 L 280 80 L 260 80 L 240 80 L 240 100 L 260 100 L 260 120 L 280 120 L 280 140 L 300 140 L 300 120 L 300 100 L 320 100 L 320 80 L 320 60 L 340 60 L 360 60 L 360 80 L 380 80 L 400 80 L 400 100 L 420 100 L 440 100 L 440 120 L 460 120 L 480 120 L 480 140 L 500 140 L 520 140 L 520 160 L 540 160 L 560 160 L 560 180 L 580 180 L 600 180 L 600 200 L 620 200 L 640 200 L 640 220 L 660 220 L 680 220 L 680 240 L 700 240 L 720 240 L 720 260 L 740 260 L 760 260 L 760 280 L 780 280 L 800 280 L 800 300 L 820 300 L 840 300 L 840 320 L 860 320 L 880 320 L 880 340 L 900 340 L 900 360 L 900 380 L 880 380 L 880 400 L 880 420 L 860 420 L 860 440 L 860 460 L 840 460 L 840 480 L 840 500 L 820 500 L 820 520 L 820 540 L 800 540 L 800 560 L 800 580 L 780 580 L 780 600 L 780 620 L 760 620 L 760 640 L 760 660 L 740 660 L 740 680 L 740 700 L 720 700 L 720 720 L 720 740 L 700 740 L 700 760 L 700 780 L 680 780 L 680 800 L 680 820 L 660 820 L 660 840 L 660 860 L 640 860 L 640 880 L 640 900 L 620 900 L 600 900 L 600 880 L 580 880 L 560 880 L 560 860 L 540 860 L 520 860 L 520 840 L 500 840 L 480 840 L 480 820 L 460 820 L 440 820 L 440 800 L 420 800 L 400 800 L 400 780 L 380 780 L 360 780 L 360 760 L 340 760 L 320 760 L 320 740 L 300 740 L 280 740 L 280 720 L 260 720 L 240 720 L 240 700 L 260 700 L 260 680 L 260 660 L 280 660 L 280 640 L 280 620 L 300 620 L 300 600 L 300 580 L 320 580 L 320 560 L 320 540 L 340 540 L 340 560 L 340 580 L 360 580 L 360 560 L 380 560 L 400 560 L 420 560 L 440 560 L 460 560 L 460 580 L 480 580 L 480 560 L 500 560 L 500 540 L 500 520 L 500 500 L 500 480 L 480 480 L 480 500 L 480 520 L 460 520 L 460 540 L 440 540 L 420 540 L 400 540 L 380 540 L 360 540 L 360 520 L 360 500 L 360 480 L 340 480 L 340 500 L 320 500 L 300 500 L 300 520 L 300 540 L 280 540 L 280 560 L 280 580 L 260 580 L 260 600 L 240 600 L 220 600 L 220 580 L 200 580 L 180 580 L 180 560 L 200 560 L 200 540 L 200 520 L 220 520 L 220 500 L 220 480 L 220 460 L 240 460 L 240 440 L 260 440 L 280 440 L 280 420 L 260 420 L 240 420 L 240 400 L 240 380 L 240 360 L 220 360 L 220 380 L 200 380 L 200 400 L 180 400 L 160 400 L 140 400 L 120 400 L 100 400 L 80 400 L 60 400 L 60 420 L 80 420 L 100 420 L 100 440 L 80 440 L 80 460 L 80 480 L 60 480 L 60 500 L 60 520 L 40 520 L 40 540 L 40 560 L 20 560 L 20 580 L 20 600 L 0 600 L 0 620 L 0 640 L 20 640 L 20 660 L 40 660 L 60 660 L 60 680 L 80 680 L 100 680 L 100 700 L 120 700 L 140 700 L 140 720 L 160 720 L 180 720 L 180 740 L 200 740 L 220 740 L 220 760 L 240 760 L 260 760 L 260 780 L 280 780 L 300 780 L 300 800 L 320 800 L 340 800 L 340 820 L 360 820 L 380 820 L 380 840 L 400 840 L 420 840 L 420 860 L 440 860 L 460 860 L 460 880 L 480 880 L 500 880 L 500 900 L 520 900 L 540 900 L 540 920 L 560 920 L 580 920 L 580 940 L 600 940 L 620 940 L 620 960 L 640 960 L 660 960 L 660 940 L 660 920 L 680 920 L 680 900 L 680 880 L 700 880 L 700 860 L 700 840 L 720 840 L 720 820 L 720 800 L 740 800 L 740 780 L 740 760 L 760 760 L 760 740 L 760 720 L 780 720 L 780 700 L 780 680 L 800 680 L 800 660 L 800 640 L 820 640 L 820 620 L 820 600 L 840 600 L 840 580 L 840 560 L 860 560 L 860 540 L 860 520 L 880 520 L 880 500 L 880 480 L 900 480 L 900 460 L 900 440 L 920 440 L 920 420 L 920 400 L 940 400 L 940 380 L 940 360 L 960 360 L 960 340 L 960 320 L 940 320 L 940 300 L 920 300 L 900 300 L 900 280 L 880 280 L 860 280 L 860 260 L 840 260 L 820 260 L 820 240 L 800 240 L 780 240 L 780 220 L 760 220 L 740 220 L 740 200 L 720 200 L 700 200 L 700 180 L 680 180 L 660 180 L 660 160 L 640 160 L 620 160 L 620 140 L 600 140 L 580 140 L 580 120 L 560 120 L 540 120 L 540 100 L 520 100 L 500 100 L 500 80 L 480 80 L 460 80 L 460 60 L 440 60 L 420 60 L 420 40 L 400 40 L 380 40 L 380 20 L 360 20 L 340 20 L 340 0 L 320 0 L 300 0 z M 60 400 L 60 380 L 40 380 L 40 400 L 60 400 z M 40 380 L 40 360 L 20 360 L 20 380 L 40 380 z M 20 360 L 20 340 L 20 320 L 40 320 L 40 300 L 20 300 L 20 280 L 20 260 L 0 260 L 0 280 L 0 300 L 0 320 L 0 340 L 0 360 L 20 360 z M 20 260 L 40 260 L 40 240 L 40 220 L 20 220 L 20 240 L 20 260 z M 20 220 L 20 200 L 20 180 L 20 160 L 20 140 L 0 140 L 0 160 L 0 180 L 0 200 L 0 220 L 20 220 z M 20 140 L 40 140 L 40 120 L 20 120 L 20 140 z M 40 120 L 60 120 L 60 100 L 40 100 L 40 120 z M 60 100 L 80 100 L 80 80 L 60 80 L 60 100 z M 80 80 L 100 80 L 120 80 L 140 80 L 160 80 L 160 60 L 140 60 L 120 60 L 100 60 L 80 60 L 80 80 z M 160 80 L 160 100 L 180 100 L 200 100 L 200 80 L 180 80 L 160 80 z M 200 80 L 220 80 L 240 80 L 240 60 L 220 60 L 200 60 L 200 80 z M 40 320 L 40 340 L 60 340 L 60 320 L 40 320 z M 60 340 L 60 360 L 80 360 L 80 340 L 60 340 z M 80 360 L 80 380 L 100 380 L 120 380 L 140 380 L 160 380 L 180 380 L 200 380 L 200 360 L 180 360 L 160 360 L 140 360 L 120 360 L 100 360 L 80 360 z M 200 360 L 220 360 L 220 340 L 200 340 L 200 360 z M 280 440 L 280 460 L 260 460 L 240 460 L 240 480 L 260 480 L 280 480 L 280 500 L 300 500 L 300 480 L 320 480 L 340 480 L 340 460 L 320 460 L 300 460 L 300 440 L 280 440 z M 480 480 L 480 460 L 460 460 L 460 480 L 480 480 z M 460 460 L 460 440 L 440 440 L 440 460 L 460 460 z M 440 440 L 440 420 L 420 420 L 420 440 L 440 440 z M 420 420 L 420 400 L 400 400 L 400 420 L 420 420 z M 400 400 L 400 380 L 380 380 L 380 400 L 400 400 z M 380 380 L 380 360 L 360 360 L 360 380 L 380 380 z M 360 360 L 360 340 L 340 340 L 340 360 L 360 360 z M 340 340 L 340 320 L 340 300 L 340 280 L 340 260 L 340 240 L 360 240 L 360 220 L 340 220 L 340 200 L 340 180 L 340 160 L 320 160 L 320 180 L 320 200 L 320 220 L 320 240 L 320 260 L 300 260 L 300 280 L 320 280 L 320 300 L 300 300 L 300 320 L 320 320 L 320 340 L 340 340 z M 300 300 L 300 280 L 280 280 L 280 300 L 300 300 z M 320 160 L 320 140 L 300 140 L 300 160 L 320 160 z M 460 580 L 440 580 L 420 580 L 400 580 L 380 580 L 360 580 L 360 600 L 380 600 L 400 600 L 420 600 L 440 600 L 460 600 L 460 580 z M 120 140 L 120 160 L 140 160 L 140 140 L 120 140 z M 120 160 L 100 160 L 100 180 L 120 180 L 120 160 z M 100 180 L 80 180 L 80 200 L 100 200 L 100 180 z M 720 400 L 720 420 L 720 440 L 700 440 L 700 460 L 700 480 L 680 480 L 680 500 L 680 520 L 700 520 L 720 520 L 720 500 L 720 480 L 740 480 L 740 460 L 740 440 L 760 440 L 760 420 L 760 400 L 740 400 L 720 400 z M 140 420 L 160 420 L 180 420 L 200 420 L 220 420 L 220 440 L 200 440 L 200 460 L 200 480 L 180 480 L 180 500 L 180 520 L 160 520 L 160 540 L 160 560 L 140 560 L 140 580 L 140 600 L 160 600 L 180 600 L 180 620 L 200 620 L 220 620 L 220 640 L 240 640 L 240 660 L 220 660 L 220 680 L 220 700 L 200 700 L 200 680 L 180 680 L 160 680 L 160 660 L 140 660 L 120 660 L 120 640 L 100 640 L 80 640 L 80 620 L 60 620 L 60 600 L 60 580 L 80 580 L 80 560 L 80 540 L 100 540 L 100 520 L 100 500 L 120 500 L 120 480 L 120 460 L 140 460 L 140 440 L 140 420 z "
     id="rect2932" />
</svg>
