<?xml version="1.0" encoding="UTF-8" standalone="no"?>
<svg
   xmlns:dc="http://purl.org/dc/elements/1.1/"
   xmlns:cc="http://creativecommons.org/ns#"
   xmlns:rdf="http://www.w3.org/1999/02/22-rdf-syntax-ns#"
   xmlns:svg="http://www.w3.org/2000/svg"
   xmlns="http://www.w3.org/2000/svg"
   id="svg2998"
   width="960px"
   version="1.1"
   height="960px">
  <metadata
     id="metadata3002">
    <rdf:RDF>
      <cc:Work
         rdf:about="">
        <dc:format>image/svg+xml</dc:format>
        <dc:type
           rdf:resource="http://purl.org/dc/dcmitype/StillImage" />
      </cc:Work>
    </rdf:RDF>
  </metadata>
  <defs
     id="defs2" />
  <path
     style="fill:#ffffff"
     d="M 200 240 L 200 260 L 220 260 L 220 240 L 200 240 z M 220 260 L 220 280 L 240 280 L 240 260 L 220 260 z M 240 260 L 260 260 L 260 240 L 240 240 L 240 260 z M 260 260 L 260 280 L 280 280 L 280 260 L 260 260 z M 280 260 L 300 260 L 300 240 L 280 240 L 280 260 z M 300 260 L 300 280 L 320 280 L 320 260 L 300 260 z M 320 260 L 340 260 L 340 240 L 320 240 L 320 260 z M 340 260 L 340 280 L 360 280 L 360 260 L 340 260 z M 360 260 L 380 260 L 380 240 L 360 240 L 360 260 z M 380 260 L 380 280 L 400 280 L 400 260 L 380 260 z M 400 260 L 420 260 L 420 240 L 400 240 L 400 260 z M 420 260 L 420 280 L 440 280 L 440 260 L 420 260 z M 440 260 L 460 260 L 460 240 L 440 240 L 440 260 z M 460 260 L 460 280 L 480 280 L 480 260 L 460 260 z M 480 260 L 500 260 L 500 240 L 480 240 L 480 260 z M 500 260 L 500 280 L 520 280 L 520 260 L 500 260 z M 520 260 L 540 260 L 540 240 L 520 240 L 520 260 z M 540 260 L 540 280 L 560 280 L 560 260 L 540 260 z M 560 260 L 580 260 L 580 240 L 560 240 L 560 260 z M 580 260 L 580 280 L 600 280 L 600 260 L 580 260 z M 600 260 L 620 260 L 620 240 L 600 240 L 600 260 z M 620 260 L 620 280 L 640 280 L 640 260 L 620 260 z M 640 260 L 660 260 L 660 240 L 640 240 L 640 260 z M 660 260 L 660 280 L 680 280 L 680 260 L 660 260 z M 660 280 L 640 280 L 640 300 L 660 300 L 660 280 z M 660 300 L 660 320 L 680 320 L 680 300 L 660 300 z M 660 320 L 640 320 L 640 340 L 660 340 L 660 320 z M 660 340 L 660 360 L 680 360 L 680 340 L 660 340 z M 660 360 L 640 360 L 640 380 L 660 380 L 660 360 z M 660 380 L 660 400 L 680 400 L 680 380 L 660 380 z M 660 400 L 640 400 L 640 420 L 660 420 L 660 400 z M 660 420 L 660 440 L 680 440 L 680 420 L 660 420 z M 660 440 L 640 440 L 640 460 L 660 460 L 660 440 z M 660 460 L 660 480 L 680 480 L 680 460 L 660 460 z M 660 480 L 640 480 L 640 500 L 660 500 L 660 480 z M 660 500 L 660 520 L 680 520 L 680 500 L 660 500 z M 660 520 L 640 520 L 640 540 L 660 540 L 660 520 z M 660 540 L 660 560 L 680 560 L 680 540 L 660 540 z M 660 560 L 640 560 L 640 580 L 660 580 L 660 560 z M 660 580 L 660 600 L 680 600 L 680 580 L 660 580 z M 660 600 L 640 600 L 640 620 L 660 620 L 660 600 z M 660 620 L 660 640 L 680 640 L 680 620 L 660 620 z M 660 640 L 640 640 L 640 660 L 660 660 L 660 640 z M 660 660 L 660 680 L 680 680 L 680 660 L 660 660 z M 660 680 L 640 680 L 640 700 L 660 700 L 660 680 z M 660 700 L 660 720 L 680 720 L 680 700 L 660 700 z M 660 720 L 640 720 L 640 740 L 660 740 L 660 720 z M 660 740 L 660 760 L 680 760 L 680 740 L 660 740 z M 660 760 L 640 760 L 640 780 L 660 780 L 660 760 z M 660 780 L 660 800 L 680 800 L 680 780 L 660 780 z M 660 800 L 640 800 L 640 820 L 660 820 L 660 800 z M 640 800 L 640 780 L 620 780 L 620 800 L 640 800 z M 620 800 L 600 800 L 600 820 L 620 820 L 620 800 z M 600 800 L 600 780 L 580 780 L 580 800 L 600 800 z M 580 800 L 560 800 L 560 820 L 580 820 L 580 800 z M 560 800 L 560 780 L 540 780 L 540 800 L 560 800 z M 540 800 L 520 800 L 520 820 L 540 820 L 540 800 z M 520 800 L 520 780 L 500 780 L 500 800 L 520 800 z M 500 800 L 480 800 L 480 820 L 500 820 L 500 800 z M 480 800 L 480 780 L 460 780 L 460 800 L 480 800 z M 460 800 L 440 800 L 440 820 L 460 820 L 460 800 z M 440 800 L 440 780 L 420 780 L 420 800 L 440 800 z M 420 800 L 400 800 L 400 820 L 420 820 L 420 800 z M 400 800 L 400 780 L 380 780 L 380 800 L 400 800 z M 380 800 L 360 800 L 360 820 L 380 820 L 380 800 z M 360 800 L 360 780 L 340 780 L 340 800 L 360 800 z M 340 800 L 320 800 L 320 820 L 340 820 L 340 800 z M 320 800 L 320 780 L 300 780 L 300 800 L 320 800 z M 300 800 L 280 800 L 280 820 L 300 820 L 300 800 z M 280 800 L 280 780 L 260 780 L 260 800 L 280 800 z M 260 800 L 240 800 L 240 820 L 260 820 L 260 800 z M 240 800 L 240 780 L 220 780 L 220 800 L 240 800 z M 220 800 L 200 800 L 200 820 L 220 820 L 220 800 z M 200 800 L 200 780 L 180 780 L 180 800 L 200 800 z M 200 780 L 220 780 L 220 760 L 200 760 L 200 780 z M 200 760 L 200 740 L 180 740 L 180 760 L 200 760 z M 200 740 L 220 740 L 220 720 L 200 720 L 200 740 z M 200 720 L 200 700 L 180 700 L 180 720 L 200 720 z M 200 700 L 220 700 L 220 680 L 200 680 L 200 700 z M 200 680 L 200 660 L 180 660 L 180 680 L 200 680 z M 200 660 L 220 660 L 220 640 L 200 640 L 200 660 z M 200 640 L 200 620 L 180 620 L 180 640 L 200 640 z M 200 620 L 220 620 L 220 600 L 200 600 L 200 620 z M 200 600 L 200 580 L 180 580 L 180 600 L 200 600 z M 200 580 L 220 580 L 220 560 L 200 560 L 200 580 z M 200 560 L 200 540 L 180 540 L 180 560 L 200 560 z M 200 540 L 220 540 L 220 520 L 200 520 L 200 540 z M 200 520 L 200 500 L 180 500 L 180 520 L 200 520 z M 200 500 L 220 500 L 220 480 L 200 480 L 200 500 z M 200 480 L 200 460 L 180 460 L 180 480 L 200 480 z M 200 460 L 220 460 L 220 440 L 200 440 L 200 460 z M 200 440 L 200 420 L 180 420 L 180 440 L 200 440 z M 200 420 L 220 420 L 220 400 L 200 400 L 200 420 z M 200 400 L 200 380 L 180 380 L 180 400 L 200 400 z M 200 380 L 220 380 L 220 360 L 200 360 L 200 380 z M 200 360 L 200 340 L 180 340 L 180 360 L 200 360 z M 200 340 L 220 340 L 220 320 L 200 320 L 200 340 z M 200 320 L 200 300 L 180 300 L 180 320 L 200 320 z M 200 300 L 220 300 L 220 280 L 200 280 L 200 300 z M 200 280 L 200 260 L 180 260 L 180 280 L 200 280 z M 220 300 L 220 320 L 240 320 L 240 300 L 220 300 z M 240 320 L 240 340 L 260 340 L 260 320 L 240 320 z M 260 320 L 280 320 L 280 300 L 260 300 L 260 320 z M 280 320 L 280 340 L 300 340 L 300 320 L 280 320 z M 280 340 L 260 340 L 260 360 L 280 360 L 280 340 z M 280 360 L 280 380 L 300 380 L 300 360 L 280 360 z M 280 380 L 260 380 L 260 400 L 280 400 L 280 380 z M 280 400 L 280 420 L 300 420 L 300 400 L 280 400 z M 260 400 L 240 400 L 240 420 L 260 420 L 260 400 z M 240 420 L 220 420 L 220 440 L 240 440 L 240 420 z M 240 400 L 240 380 L 220 380 L 220 400 L 240 400 z M 240 380 L 260 380 L 260 360 L 240 360 L 240 380 z M 240 360 L 240 340 L 220 340 L 220 360 L 240 360 z M 220 620 L 220 640 L 240 640 L 240 620 L 220 620 z M 240 640 L 240 660 L 260 660 L 260 640 L 240 640 z M 260 660 L 260 680 L 280 680 L 280 660 L 260 660 z M 280 660 L 300 660 L 300 640 L 280 640 L 280 660 z M 280 680 L 280 700 L 300 700 L 300 680 L 280 680 z M 280 700 L 260 700 L 260 720 L 280 720 L 280 700 z M 260 720 L 240 720 L 240 740 L 260 740 L 260 720 z M 260 740 L 260 760 L 280 760 L 280 740 L 260 740 z M 240 740 L 220 740 L 220 760 L 240 760 L 240 740 z M 240 720 L 240 700 L 220 700 L 220 720 L 240 720 z M 240 700 L 260 700 L 260 680 L 240 680 L 240 700 z M 240 680 L 240 660 L 220 660 L 220 680 L 240 680 z M 320 780 L 340 780 L 340 760 L 320 760 L 320 780 z M 340 760 L 360 760 L 360 740 L 340 740 L 340 760 z M 360 740 L 380 740 L 380 720 L 360 720 L 360 740 z M 380 720 L 400 720 L 400 700 L 380 700 L 380 720 z M 380 700 L 380 680 L 360 680 L 360 700 L 380 700 z M 380 680 L 400 680 L 400 660 L 380 660 L 380 680 z M 380 660 L 380 640 L 360 640 L 360 660 L 380 660 z M 380 740 L 380 760 L 400 760 L 400 740 L 380 740 z M 380 760 L 360 760 L 360 780 L 380 780 L 380 760 z M 480 780 L 500 780 L 500 760 L 480 760 L 480 780 z M 480 760 L 480 740 L 460 740 L 460 760 L 480 760 z M 640 760 L 640 740 L 620 740 L 620 760 L 640 760 z M 620 740 L 620 720 L 600 720 L 600 740 L 620 740 z M 600 740 L 580 740 L 580 760 L 600 760 L 600 740 z M 580 740 L 580 720 L 560 720 L 560 740 L 580 740 z M 560 720 L 560 700 L 540 700 L 540 720 L 560 720 z M 560 700 L 580 700 L 580 680 L 560 680 L 560 700 z M 560 680 L 560 660 L 540 660 L 540 680 L 560 680 z M 560 660 L 580 660 L 580 640 L 560 640 L 560 660 z M 580 640 L 600 640 L 600 620 L 580 620 L 580 640 z M 600 620 L 620 620 L 620 600 L 600 600 L 600 620 z M 620 600 L 640 600 L 640 580 L 620 580 L 620 600 z M 620 620 L 620 640 L 640 640 L 640 620 L 620 620 z M 620 640 L 600 640 L 600 660 L 620 660 L 620 640 z M 620 660 L 620 680 L 640 680 L 640 660 L 620 660 z M 620 680 L 600 680 L 600 700 L 620 700 L 620 680 z M 620 700 L 620 720 L 640 720 L 640 700 L 620 700 z M 600 700 L 580 700 L 580 720 L 600 720 L 600 700 z M 600 680 L 600 660 L 580 660 L 580 680 L 600 680 z M 640 440 L 640 420 L 620 420 L 620 440 L 640 440 z M 620 440 L 600 440 L 600 460 L 620 460 L 620 440 z M 600 440 L 600 420 L 580 420 L 580 440 L 600 440 z M 580 420 L 580 400 L 560 400 L 560 420 L 580 420 z M 560 400 L 560 380 L 540 380 L 540 400 L 560 400 z M 560 380 L 580 380 L 580 360 L 560 360 L 560 380 z M 560 360 L 560 340 L 540 340 L 540 360 L 560 360 z M 560 340 L 580 340 L 580 320 L 560 320 L 560 340 z M 580 320 L 600 320 L 600 300 L 580 300 L 580 320 z M 600 320 L 600 340 L 620 340 L 620 320 L 600 320 z M 620 320 L 640 320 L 640 300 L 620 300 L 620 320 z M 620 340 L 620 360 L 640 360 L 640 340 L 620 340 z M 620 360 L 600 360 L 600 380 L 620 380 L 620 360 z M 620 380 L 620 400 L 640 400 L 640 380 L 620 380 z M 620 400 L 600 400 L 600 420 L 620 420 L 620 400 z M 600 400 L 600 380 L 580 380 L 580 400 L 600 400 z M 600 360 L 600 340 L 580 340 L 580 360 L 600 360 z M 500 280 L 480 280 L 480 300 L 500 300 L 500 280 z M 480 300 L 460 300 L 460 320 L 480 320 L 480 300 z M 380 280 L 360 280 L 360 300 L 380 300 L 380 280 z M 380 300 L 380 320 L 400 320 L 400 300 L 380 300 z M 380 320 L 360 320 L 360 340 L 380 340 L 380 320 z M 380 340 L 380 360 L 400 360 L 400 340 L 380 340 z M 380 360 L 360 360 L 360 380 L 380 380 L 380 360 z M 380 380 L 380 400 L 400 400 L 400 380 L 380 380 z M 380 400 L 360 400 L 360 420 L 380 420 L 380 400 z M 360 320 L 360 300 L 340 300 L 340 320 L 360 320 z M 340 300 L 340 280 L 320 280 L 320 300 L 340 300 z M 460 340 L 460 360 L 480 360 L 480 340 L 460 340 z M 460 380 L 460 400 L 480 400 L 480 380 L 460 380 z M 240 480 L 240 500 L 260 500 L 260 480 L 240 480 z M 260 500 L 260 520 L 280 520 L 280 500 L 260 500 z M 280 500 L 300 500 L 300 480 L 280 480 L 280 500 z M 280 520 L 280 540 L 300 540 L 300 520 L 280 520 z M 280 540 L 260 540 L 260 560 L 280 560 L 280 540 z M 280 560 L 280 580 L 300 580 L 300 560 L 280 560 z M 260 560 L 240 560 L 240 580 L 260 580 L 260 560 z M 260 540 L 260 520 L 240 520 L 240 540 L 260 540 z M 360 480 L 360 500 L 380 500 L 380 480 L 360 480 z M 380 500 L 380 520 L 400 520 L 400 500 L 380 500 z M 380 520 L 360 520 L 360 540 L 380 540 L 380 520 z M 380 540 L 380 560 L 400 560 L 400 540 L 380 540 z M 380 560 L 360 560 L 360 580 L 380 580 L 380 560 z M 560 480 L 560 500 L 580 500 L 580 480 L 560 480 z M 580 500 L 580 520 L 600 520 L 600 500 L 580 500 z M 580 520 L 560 520 L 560 540 L 580 540 L 580 520 z M 580 540 L 580 560 L 600 560 L 600 540 L 580 540 z M 580 560 L 560 560 L 560 580 L 580 580 L 580 560 z M 560 560 L 560 540 L 540 540 L 540 560 L 560 560 z M 560 520 L 560 500 L 540 500 L 540 520 L 560 520 z M 460 500 L 460 520 L 480 520 L 480 500 L 460 500 z M 460 540 L 460 560 L 480 560 L 480 540 L 460 540 z M 460 660 L 460 680 L 480 680 L 480 660 L 460 660 z M 460 700 L 460 720 L 480 720 L 480 700 L 460 700 z "
     id="rect2702" />
  <path
     style="fill:#00ffff"
     d="M 180 240 L 180 260 L 200 260 L 200 240 L 180 240 z M 200 260 L 200 280 L 220 280 L 220 260 L 200 260 z M 220 260 L 240 260 L 240 240 L 220 240 L 220 260 z M 240 260 L 240 280 L 260 280 L 260 260 L 240 260 z M 260 260 L 280 260 L 280 240 L 260 240 L 260 260 z M 280 260 L 280 280 L 300 280 L 300 260 L 280 260 z M 300 260 L 320 260 L 320 240 L 300 240 L 300 260 z M 320 260 L 320 280 L 340 280 L 340 260 L 320 260 z M 340 260 L 360 260 L 360 240 L 340 240 L 340 260 z M 360 260 L 360 280 L 380 280 L 380 260 L 360 260 z M 380 260 L 400 260 L 400 240 L 380 240 L 380 260 z M 400 260 L 400 280 L 420 280 L 420 260 L 400 260 z M 420 260 L 440 260 L 440 240 L 420 240 L 420 260 z M 440 260 L 440 280 L 460 280 L 460 260 L 440 260 z M 460 260 L 480 260 L 480 240 L 460 240 L 460 260 z M 480 260 L 480 280 L 500 280 L 500 260 L 480 260 z M 500 260 L 520 260 L 520 240 L 500 240 L 500 260 z M 520 260 L 520 280 L 540 280 L 540 260 L 520 260 z M 540 260 L 560 260 L 560 240 L 540 240 L 540 260 z M 560 260 L 560 280 L 580 280 L 580 260 L 560 260 z M 580 260 L 600 260 L 600 240 L 580 240 L 580 260 z M 600 260 L 600 280 L 620 280 L 620 260 L 600 260 z M 620 260 L 640 260 L 640 240 L 620 240 L 620 260 z M 640 260 L 640 280 L 660 280 L 660 260 L 640 260 z M 660 260 L 680 260 L 680 240 L 660 240 L 660 260 z M 660 280 L 660 300 L 680 300 L 680 280 L 660 280 z M 660 300 L 640 300 L 640 320 L 660 320 L 660 300 z M 660 320 L 660 340 L 680 340 L 680 320 L 660 320 z M 660 340 L 640 340 L 640 360 L 660 360 L 660 340 z M 660 360 L 660 380 L 680 380 L 680 360 L 660 360 z M 660 380 L 640 380 L 640 400 L 660 400 L 660 380 z M 660 400 L 660 420 L 680 420 L 680 400 L 660 400 z M 660 420 L 640 420 L 640 440 L 660 440 L 660 420 z M 660 440 L 660 460 L 680 460 L 680 440 L 660 440 z M 660 460 L 640 460 L 640 480 L 660 480 L 660 460 z M 660 480 L 660 500 L 680 500 L 680 480 L 660 480 z M 660 500 L 640 500 L 640 520 L 660 520 L 660 500 z M 660 520 L 660 540 L 680 540 L 680 520 L 660 520 z M 660 540 L 640 540 L 640 560 L 660 560 L 660 540 z M 660 560 L 660 580 L 680 580 L 680 560 L 660 560 z M 660 580 L 640 580 L 640 600 L 660 600 L 660 580 z M 660 600 L 660 620 L 680 620 L 680 600 L 660 600 z M 660 620 L 640 620 L 640 640 L 660 640 L 660 620 z M 660 640 L 660 660 L 680 660 L 680 640 L 660 640 z M 660 660 L 640 660 L 640 680 L 660 680 L 660 660 z M 660 680 L 660 700 L 680 700 L 680 680 L 660 680 z M 660 700 L 640 700 L 640 720 L 660 720 L 660 700 z M 660 720 L 660 740 L 680 740 L 680 720 L 660 720 z M 660 740 L 640 740 L 640 760 L 660 760 L 660 740 z M 660 760 L 660 780 L 680 780 L 680 760 L 660 760 z M 660 780 L 640 780 L 640 800 L 660 800 L 660 780 z M 660 800 L 660 820 L 680 820 L 680 800 L 660 800 z M 640 800 L 620 800 L 620 820 L 640 820 L 640 800 z M 620 800 L 620 780 L 600 780 L 600 800 L 620 800 z M 600 800 L 580 800 L 580 820 L 600 820 L 600 800 z M 580 800 L 580 780 L 560 780 L 560 800 L 580 800 z M 560 800 L 540 800 L 540 820 L 560 820 L 560 800 z M 540 800 L 540 780 L 520 780 L 520 800 L 540 800 z M 520 800 L 500 800 L 500 820 L 520 820 L 520 800 z M 500 800 L 500 780 L 480 780 L 480 800 L 500 800 z M 480 800 L 460 800 L 460 820 L 480 820 L 480 800 z M 460 800 L 460 780 L 440 780 L 440 800 L 460 800 z M 440 800 L 420 800 L 420 820 L 440 820 L 440 800 z M 420 800 L 420 780 L 400 780 L 400 800 L 420 800 z M 400 800 L 380 800 L 380 820 L 400 820 L 400 800 z M 380 800 L 380 780 L 360 780 L 360 800 L 380 800 z M 360 800 L 340 800 L 340 820 L 360 820 L 360 800 z M 340 800 L 340 780 L 320 780 L 320 800 L 340 800 z M 320 800 L 300 800 L 300 820 L 320 820 L 320 800 z M 300 800 L 300 780 L 280 780 L 280 800 L 300 800 z M 280 800 L 260 800 L 260 820 L 280 820 L 280 800 z M 260 800 L 260 780 L 240 780 L 240 800 L 260 800 z M 240 800 L 220 800 L 220 820 L 240 820 L 240 800 z M 220 800 L 220 780 L 200 780 L 200 800 L 220 800 z M 200 800 L 180 800 L 180 820 L 200 820 L 200 800 z M 200 780 L 200 760 L 180 760 L 180 780 L 200 780 z M 200 760 L 220 760 L 220 740 L 200 740 L 200 760 z M 200 740 L 200 720 L 180 720 L 180 740 L 200 740 z M 200 720 L 220 720 L 220 700 L 200 700 L 200 720 z M 200 700 L 200 680 L 180 680 L 180 700 L 200 700 z M 200 680 L 220 680 L 220 660 L 200 660 L 200 680 z M 200 660 L 200 640 L 180 640 L 180 660 L 200 660 z M 200 640 L 220 640 L 220 620 L 200 620 L 200 640 z M 200 620 L 200 600 L 180 600 L 180 620 L 200 620 z M 200 600 L 220 600 L 220 580 L 200 580 L 200 600 z M 200 580 L 200 560 L 180 560 L 180 580 L 200 580 z M 200 560 L 220 560 L 220 540 L 200 540 L 200 560 z M 200 540 L 200 520 L 180 520 L 180 540 L 200 540 z M 200 520 L 220 520 L 220 500 L 200 500 L 200 520 z M 200 500 L 200 480 L 180 480 L 180 500 L 200 500 z M 200 480 L 220 480 L 220 460 L 200 460 L 200 480 z M 200 460 L 200 440 L 180 440 L 180 460 L 200 460 z M 200 440 L 220 440 L 220 420 L 200 420 L 200 440 z M 200 420 L 200 400 L 180 400 L 180 420 L 200 420 z M 200 400 L 220 400 L 220 380 L 200 380 L 200 400 z M 200 380 L 200 360 L 180 360 L 180 380 L 200 380 z M 200 360 L 220 360 L 220 340 L 200 340 L 200 360 z M 200 340 L 200 320 L 180 320 L 180 340 L 200 340 z M 200 320 L 220 320 L 220 300 L 200 300 L 200 320 z M 200 300 L 200 280 L 180 280 L 180 300 L 200 300 z M 220 320 L 220 340 L 240 340 L 240 320 L 220 320 z M 240 320 L 260 320 L 260 300 L 240 300 L 240 320 z M 260 320 L 260 340 L 280 340 L 280 320 L 260 320 z M 280 340 L 280 360 L 300 360 L 300 340 L 280 340 z M 280 360 L 260 360 L 260 380 L 280 380 L 280 360 z M 280 380 L 280 400 L 300 400 L 300 380 L 280 380 z M 280 400 L 260 400 L 260 420 L 280 420 L 280 400 z M 260 420 L 240 420 L 240 440 L 260 440 L 260 420 z M 240 440 L 220 440 L 220 460 L 240 460 L 240 440 z M 240 420 L 240 400 L 220 400 L 220 420 L 240 420 z M 240 400 L 260 400 L 260 380 L 240 380 L 240 400 z M 240 380 L 240 360 L 220 360 L 220 380 L 240 380 z M 240 360 L 260 360 L 260 340 L 240 340 L 240 360 z M 220 600 L 220 620 L 240 620 L 240 600 L 220 600 z M 240 620 L 240 640 L 260 640 L 260 620 L 240 620 z M 260 640 L 260 660 L 280 660 L 280 640 L 260 640 z M 280 660 L 280 680 L 300 680 L 300 660 L 280 660 z M 280 680 L 260 680 L 260 700 L 280 700 L 280 680 z M 280 700 L 280 720 L 300 720 L 300 700 L 280 700 z M 280 720 L 260 720 L 260 740 L 280 740 L 280 720 z M 260 740 L 240 740 L 240 760 L 260 760 L 260 740 z M 240 740 L 240 720 L 220 720 L 220 740 L 240 740 z M 240 720 L 260 720 L 260 700 L 240 700 L 240 720 z M 240 700 L 240 680 L 220 680 L 220 700 L 240 700 z M 240 680 L 260 680 L 260 660 L 240 660 L 240 680 z M 240 660 L 240 640 L 220 640 L 220 660 L 240 660 z M 340 780 L 360 780 L 360 760 L 340 760 L 340 780 z M 360 760 L 380 760 L 380 740 L 360 740 L 360 760 z M 380 740 L 400 740 L 400 720 L 380 720 L 380 740 z M 380 720 L 380 700 L 360 700 L 360 720 L 380 720 z M 380 700 L 400 700 L 400 680 L 380 680 L 380 700 z M 380 680 L 380 660 L 360 660 L 360 680 L 380 680 z M 380 660 L 400 660 L 400 640 L 380 640 L 380 660 z M 380 760 L 380 780 L 400 780 L 400 760 L 380 760 z M 460 780 L 480 780 L 480 760 L 460 760 L 460 780 z M 480 760 L 500 760 L 500 740 L 480 740 L 480 760 z M 480 740 L 480 720 L 460 720 L 460 740 L 480 740 z M 500 760 L 500 780 L 520 780 L 520 760 L 500 760 z M 640 740 L 640 720 L 620 720 L 620 740 L 640 740 z M 620 740 L 600 740 L 600 760 L 620 760 L 620 740 z M 600 740 L 600 720 L 580 720 L 580 740 L 600 740 z M 580 720 L 580 700 L 560 700 L 560 720 L 580 720 z M 560 700 L 560 680 L 540 680 L 540 700 L 560 700 z M 560 680 L 580 680 L 580 660 L 560 660 L 560 680 z M 560 660 L 560 640 L 540 640 L 540 660 L 560 660 z M 580 660 L 600 660 L 600 640 L 580 640 L 580 660 z M 600 640 L 620 640 L 620 620 L 600 620 L 600 640 z M 620 620 L 640 620 L 640 600 L 620 600 L 620 620 z M 620 640 L 620 660 L 640 660 L 640 640 L 620 640 z M 620 660 L 600 660 L 600 680 L 620 680 L 620 660 z M 620 680 L 620 700 L 640 700 L 640 680 L 620 680 z M 620 700 L 600 700 L 600 720 L 620 720 L 620 700 z M 600 700 L 600 680 L 580 680 L 580 700 L 600 700 z M 640 460 L 640 440 L 620 440 L 620 460 L 640 460 z M 620 440 L 620 420 L 600 420 L 600 440 L 620 440 z M 600 420 L 600 400 L 580 400 L 580 420 L 600 420 z M 580 400 L 580 380 L 560 380 L 560 400 L 580 400 z M 560 400 L 540 400 L 540 420 L 560 420 L 560 400 z M 560 380 L 560 360 L 540 360 L 540 380 L 560 380 z M 560 360 L 580 360 L 580 340 L 560 340 L 560 360 z M 580 340 L 600 340 L 600 320 L 580 320 L 580 340 z M 600 320 L 620 320 L 620 300 L 600 300 L 600 320 z M 620 320 L 620 340 L 640 340 L 640 320 L 620 320 z M 620 340 L 600 340 L 600 360 L 620 360 L 620 340 z M 620 360 L 620 380 L 640 380 L 640 360 L 620 360 z M 620 380 L 600 380 L 600 400 L 620 400 L 620 380 z M 620 400 L 620 420 L 640 420 L 640 400 L 620 400 z M 600 380 L 600 360 L 580 360 L 580 380 L 600 380 z M 520 280 L 500 280 L 500 300 L 520 300 L 520 280 z M 500 300 L 480 300 L 480 320 L 500 320 L 500 300 z M 480 320 L 460 320 L 460 340 L 480 340 L 480 320 z M 480 300 L 480 280 L 460 280 L 460 300 L 480 300 z M 400 280 L 380 280 L 380 300 L 400 300 L 400 280 z M 380 300 L 360 300 L 360 320 L 380 320 L 380 300 z M 380 320 L 380 340 L 400 340 L 400 320 L 380 320 z M 380 340 L 360 340 L 360 360 L 380 360 L 380 340 z M 380 360 L 380 380 L 400 380 L 400 360 L 380 360 z M 380 380 L 360 380 L 360 400 L 380 400 L 380 380 z M 380 400 L 380 420 L 400 420 L 400 400 L 380 400 z M 360 300 L 360 280 L 340 280 L 340 300 L 360 300 z M 460 360 L 460 380 L 480 380 L 480 360 L 460 360 z M 460 400 L 460 420 L 480 420 L 480 400 L 460 400 z M 260 480 L 260 500 L 280 500 L 280 480 L 260 480 z M 280 500 L 280 520 L 300 520 L 300 500 L 280 500 z M 280 520 L 260 520 L 260 540 L 280 540 L 280 520 z M 280 540 L 280 560 L 300 560 L 300 540 L 280 540 z M 280 560 L 260 560 L 260 580 L 280 580 L 280 560 z M 260 560 L 260 540 L 240 540 L 240 560 L 260 560 z M 260 520 L 260 500 L 240 500 L 240 520 L 260 520 z M 380 480 L 380 500 L 400 500 L 400 480 L 380 480 z M 380 500 L 360 500 L 360 520 L 380 520 L 380 500 z M 380 520 L 380 540 L 400 540 L 400 520 L 380 520 z M 380 540 L 360 540 L 360 560 L 380 560 L 380 540 z M 380 560 L 380 580 L 400 580 L 400 560 L 380 560 z M 460 480 L 460 500 L 480 500 L 480 480 L 460 480 z M 540 480 L 540 500 L 560 500 L 560 480 L 540 480 z M 560 500 L 560 520 L 580 520 L 580 500 L 560 500 z M 580 500 L 600 500 L 600 480 L 580 480 L 580 500 z M 580 520 L 580 540 L 600 540 L 600 520 L 580 520 z M 580 540 L 560 540 L 560 560 L 580 560 L 580 540 z M 580 560 L 580 580 L 600 580 L 600 560 L 580 560 z M 560 560 L 540 560 L 540 580 L 560 580 L 560 560 z M 560 540 L 560 520 L 540 520 L 540 540 L 560 540 z M 460 520 L 460 540 L 480 540 L 480 520 L 460 520 z M 460 560 L 460 580 L 480 580 L 480 560 L 460 560 z M 460 640 L 460 660 L 480 660 L 480 640 L 460 640 z M 460 680 L 460 700 L 480 700 L 480 680 L 460 680 z "
     id="rect2704" />
  <path
     style="fill:#808080"
     d="M 180 100 L 180 120 L 160 120 L 160 140 L 140 140 L 140 160 L 160 160 L 180 160 L 200 160 L 220 160 L 240 160 L 260 160 L 280 160 L 300 160 L 320 160 L 340 160 L 360 160 L 380 160 L 400 160 L 420 160 L 440 160 L 460 160 L 480 160 L 500 160 L 520 160 L 540 160 L 560 160 L 580 160 L 600 160 L 620 160 L 640 160 L 660 160 L 680 160 L 700 160 L 720 160 L 740 160 L 760 160 L 760 140 L 780 140 L 780 120 L 800 120 L 800 100 L 780 100 L 760 100 L 740 100 L 720 100 L 700 100 L 680 100 L 660 100 L 640 100 L 620 100 L 600 100 L 580 100 L 560 100 L 540 100 L 520 100 L 500 100 L 480 100 L 460 100 L 440 100 L 420 100 L 400 100 L 380 100 L 360 100 L 340 100 L 320 100 L 300 100 L 280 100 L 260 100 L 240 100 L 220 100 L 200 100 L 180 100 z M 800 120 L 800 140 L 780 140 L 780 160 L 760 160 L 760 180 L 760 200 L 760 220 L 760 240 L 760 260 L 760 280 L 760 300 L 760 320 L 760 340 L 760 360 L 760 380 L 760 400 L 760 420 L 760 440 L 760 460 L 760 480 L 760 500 L 760 520 L 760 540 L 760 560 L 760 580 L 760 600 L 760 620 L 760 640 L 760 660 L 760 680 L 760 700 L 760 720 L 760 740 L 760 760 L 760 780 L 760 800 L 760 820 L 760 840 L 760 860 L 780 860 L 780 840 L 800 840 L 800 820 L 820 820 L 820 800 L 820 780 L 820 760 L 820 740 L 820 720 L 820 700 L 820 680 L 820 660 L 820 640 L 820 620 L 820 600 L 820 580 L 820 560 L 820 540 L 820 520 L 820 500 L 820 480 L 820 460 L 820 440 L 820 420 L 820 400 L 820 380 L 820 360 L 820 340 L 820 320 L 820 300 L 820 280 L 820 260 L 820 240 L 820 220 L 820 200 L 820 180 L 820 160 L 820 140 L 820 120 L 800 120 z "
     id="rect2860" />
  <path
     style="fill:#808000"
     d="M 120 180 L 120 200 L 120 220 L 120 240 L 120 260 L 120 280 L 120 300 L 120 320 L 120 340 L 120 360 L 120 380 L 120 400 L 120 420 L 120 440 L 120 460 L 120 480 L 120 500 L 120 520 L 120 540 L 120 560 L 120 580 L 120 600 L 120 620 L 120 640 L 120 660 L 120 680 L 120 700 L 120 720 L 120 740 L 120 760 L 120 780 L 120 800 L 120 820 L 120 840 L 120 860 L 120 880 L 140 880 L 160 880 L 180 880 L 200 880 L 220 880 L 240 880 L 260 880 L 280 880 L 300 880 L 320 880 L 340 880 L 360 880 L 380 880 L 400 880 L 420 880 L 440 880 L 460 880 L 480 880 L 500 880 L 520 880 L 540 880 L 560 880 L 580 880 L 600 880 L 620 880 L 640 880 L 660 880 L 680 880 L 700 880 L 720 880 L 740 880 L 740 860 L 740 840 L 740 820 L 740 800 L 740 780 L 740 760 L 740 740 L 740 720 L 740 700 L 740 680 L 740 660 L 740 640 L 740 620 L 740 600 L 740 580 L 740 560 L 740 540 L 740 520 L 740 500 L 740 480 L 740 460 L 740 440 L 740 420 L 740 400 L 740 380 L 740 360 L 740 340 L 740 320 L 740 300 L 740 280 L 740 260 L 740 240 L 740 220 L 740 200 L 740 180 L 720 180 L 700 180 L 680 180 L 660 180 L 640 180 L 620 180 L 600 180 L 580 180 L 560 180 L 540 180 L 520 180 L 500 180 L 480 180 L 460 180 L 440 180 L 420 180 L 400 180 L 380 180 L 360 180 L 340 180 L 320 180 L 300 180 L 280 180 L 260 180 L 240 180 L 220 180 L 200 180 L 180 180 L 160 180 L 140 180 L 120 180 z M 160 220 L 180 220 L 200 220 L 220 220 L 240 220 L 260 220 L 280 220 L 300 220 L 320 220 L 340 220 L 360 220 L 380 220 L 400 220 L 420 220 L 440 220 L 460 220 L 480 220 L 500 220 L 520 220 L 540 220 L 560 220 L 580 220 L 600 220 L 620 220 L 640 220 L 660 220 L 680 220 L 700 220 L 700 240 L 700 260 L 700 280 L 700 300 L 700 320 L 700 340 L 700 360 L 700 380 L 700 400 L 700 420 L 700 440 L 700 460 L 700 480 L 700 500 L 700 520 L 700 540 L 700 560 L 700 580 L 700 600 L 700 620 L 700 640 L 700 660 L 700 680 L 700 700 L 700 720 L 700 740 L 700 760 L 700 780 L 700 800 L 700 820 L 700 840 L 680 840 L 660 840 L 640 840 L 620 840 L 600 840 L 580 840 L 560 840 L 540 840 L 520 840 L 500 840 L 480 840 L 460 840 L 440 840 L 420 840 L 400 840 L 380 840 L 360 840 L 340 840 L 320 840 L 300 840 L 280 840 L 260 840 L 240 840 L 220 840 L 200 840 L 180 840 L 160 840 L 160 820 L 160 800 L 160 780 L 160 760 L 160 740 L 160 720 L 160 700 L 160 680 L 160 660 L 160 640 L 160 620 L 160 600 L 160 580 L 160 560 L 160 540 L 160 520 L 160 500 L 160 480 L 160 460 L 160 440 L 160 420 L 160 400 L 160 380 L 160 360 L 160 340 L 160 320 L 160 300 L 160 280 L 160 260 L 160 240 L 160 220 z "
     id="rect2926" />
  <path
     style="fill:#000000"
     d="M 180 80 L 180 100 L 200 100 L 220 100 L 240 100 L 260 100 L 280 100 L 300 100 L 320 100 L 340 100 L 360 100 L 380 100 L 400 100 L 420 100 L 440 100 L 460 100 L 480 100 L 500 100 L 520 100 L 540 100 L 560 100 L 580 100 L 600 100 L 620 100 L 640 100 L 660 100 L 680 100 L 700 100 L 720 100 L 740 100 L 760 100 L 780 100 L 800 100 L 800 120 L 820 120 L 820 140 L 820 160 L 820 180 L 820 200 L 820 220 L 820 240 L 820 260 L 820 280 L 820 300 L 820 320 L 820 340 L 820 360 L 820 380 L 820 400 L 820 420 L 820 440 L 820 460 L 820 480 L 820 500 L 820 520 L 820 540 L 820 560 L 820 580 L 820 600 L 820 620 L 820 640 L 820 660 L 820 680 L 820 700 L 820 720 L 820 740 L 820 760 L 820 780 L 820 800 L 820 820 L 840 820 L 840 800 L 840 780 L 840 760 L 840 740 L 840 720 L 840 700 L 840 680 L 840 660 L 840 640 L 840 620 L 840 600 L 840 580 L 840 560 L 840 540 L 840 520 L 840 500 L 840 480 L 840 460 L 840 440 L 840 420 L 840 400 L 840 380 L 840 360 L 840 340 L 840 320 L 840 300 L 840 280 L 840 260 L 840 240 L 840 220 L 840 200 L 840 180 L 840 160 L 840 140 L 840 120 L 840 100 L 840 80 L 820 80 L 800 80 L 780 80 L 760 80 L 740 80 L 720 80 L 700 80 L 680 80 L 660 80 L 640 80 L 620 80 L 600 80 L 580 80 L 560 80 L 540 80 L 520 80 L 500 80 L 480 80 L 460 80 L 440 80 L 420 80 L 400 80 L 380 80 L 360 80 L 340 80 L 320 80 L 300 80 L 280 80 L 260 80 L 240 80 L 220 80 L 200 80 L 180 80 z M 820 820 L 800 820 L 800 840 L 820 840 L 820 820 z M 800 840 L 780 840 L 780 860 L 800 860 L 800 840 z M 780 860 L 760 860 L 760 840 L 760 820 L 760 800 L 760 780 L 760 760 L 760 740 L 760 720 L 760 700 L 760 680 L 760 660 L 760 640 L 760 620 L 760 600 L 760 580 L 760 560 L 760 540 L 760 520 L 760 500 L 760 480 L 760 460 L 760 440 L 760 420 L 760 400 L 760 380 L 760 360 L 760 340 L 760 320 L 760 300 L 760 280 L 760 260 L 760 240 L 760 220 L 760 200 L 760 180 L 760 160 L 740 160 L 720 160 L 700 160 L 680 160 L 660 160 L 640 160 L 620 160 L 600 160 L 580 160 L 560 160 L 540 160 L 520 160 L 500 160 L 480 160 L 460 160 L 440 160 L 420 160 L 400 160 L 380 160 L 360 160 L 340 160 L 320 160 L 300 160 L 280 160 L 260 160 L 240 160 L 220 160 L 200 160 L 180 160 L 160 160 L 140 160 L 140 140 L 120 140 L 120 160 L 100 160 L 100 180 L 100 200 L 100 220 L 100 240 L 100 260 L 100 280 L 100 300 L 100 320 L 100 340 L 100 360 L 100 380 L 100 400 L 100 420 L 100 440 L 100 460 L 100 480 L 100 500 L 100 520 L 100 540 L 100 560 L 100 580 L 100 600 L 100 620 L 100 640 L 100 660 L 100 680 L 100 700 L 100 720 L 100 740 L 100 760 L 100 780 L 100 800 L 100 820 L 100 840 L 100 860 L 100 880 L 100 900 L 120 900 L 140 900 L 160 900 L 180 900 L 200 900 L 220 900 L 240 900 L 260 900 L 280 900 L 300 900 L 320 900 L 340 900 L 360 900 L 380 900 L 400 900 L 420 900 L 440 900 L 460 900 L 480 900 L 500 900 L 520 900 L 540 900 L 560 900 L 580 900 L 600 900 L 620 900 L 640 900 L 660 900 L 680 900 L 700 900 L 720 900 L 740 900 L 760 900 L 760 880 L 780 880 L 780 860 z M 140 140 L 160 140 L 160 120 L 140 120 L 140 140 z M 160 120 L 180 120 L 180 100 L 160 100 L 160 120 z M 760 160 L 780 160 L 780 140 L 760 140 L 760 160 z M 780 140 L 800 140 L 800 120 L 780 120 L 780 140 z M 120 180 L 140 180 L 160 180 L 180 180 L 200 180 L 220 180 L 240 180 L 260 180 L 280 180 L 300 180 L 320 180 L 340 180 L 360 180 L 380 180 L 400 180 L 420 180 L 440 180 L 460 180 L 480 180 L 500 180 L 520 180 L 540 180 L 560 180 L 580 180 L 600 180 L 620 180 L 640 180 L 660 180 L 680 180 L 700 180 L 720 180 L 740 180 L 740 200 L 740 220 L 740 240 L 740 260 L 740 280 L 740 300 L 740 320 L 740 340 L 740 360 L 740 380 L 740 400 L 740 420 L 740 440 L 740 460 L 740 480 L 740 500 L 740 520 L 740 540 L 740 560 L 740 580 L 740 600 L 740 620 L 740 640 L 740 660 L 740 680 L 740 700 L 740 720 L 740 740 L 740 760 L 740 780 L 740 800 L 740 820 L 740 840 L 740 860 L 740 880 L 720 880 L 700 880 L 680 880 L 660 880 L 640 880 L 620 880 L 600 880 L 580 880 L 560 880 L 540 880 L 520 880 L 500 880 L 480 880 L 460 880 L 440 880 L 420 880 L 400 880 L 380 880 L 360 880 L 340 880 L 320 880 L 300 880 L 280 880 L 260 880 L 240 880 L 220 880 L 200 880 L 180 880 L 160 880 L 140 880 L 120 880 L 120 860 L 120 840 L 120 820 L 120 800 L 120 780 L 120 760 L 120 740 L 120 720 L 120 700 L 120 680 L 120 660 L 120 640 L 120 620 L 120 600 L 120 580 L 120 560 L 120 540 L 120 520 L 120 500 L 120 480 L 120 460 L 120 440 L 120 420 L 120 400 L 120 380 L 120 360 L 120 340 L 120 320 L 120 300 L 120 280 L 120 260 L 120 240 L 120 220 L 120 200 L 120 180 z M 160 220 L 160 240 L 160 260 L 160 280 L 160 300 L 160 320 L 160 340 L 160 360 L 160 380 L 160 400 L 160 420 L 160 440 L 160 460 L 160 480 L 160 500 L 160 520 L 160 540 L 160 560 L 160 580 L 160 600 L 160 620 L 160 640 L 160 660 L 160 680 L 160 700 L 160 720 L 160 740 L 160 760 L 160 780 L 160 800 L 160 820 L 160 840 L 180 840 L 200 840 L 220 840 L 240 840 L 260 840 L 280 840 L 300 840 L 320 840 L 340 840 L 360 840 L 380 840 L 400 840 L 420 840 L 440 840 L 460 840 L 480 840 L 500 840 L 520 840 L 540 840 L 560 840 L 580 840 L 600 840 L 620 840 L 640 840 L 660 840 L 680 840 L 700 840 L 700 820 L 700 800 L 700 780 L 700 760 L 700 740 L 700 720 L 700 700 L 700 680 L 700 660 L 700 640 L 700 620 L 700 600 L 700 580 L 700 560 L 700 540 L 700 520 L 700 500 L 700 480 L 700 460 L 700 440 L 700 420 L 700 400 L 700 380 L 700 360 L 700 340 L 700 320 L 700 300 L 700 280 L 700 260 L 700 240 L 700 220 L 680 220 L 660 220 L 640 220 L 620 220 L 600 220 L 580 220 L 560 220 L 540 220 L 520 220 L 500 220 L 480 220 L 460 220 L 440 220 L 420 220 L 400 220 L 380 220 L 360 220 L 340 220 L 320 220 L 300 220 L 280 220 L 260 220 L 240 220 L 220 220 L 200 220 L 180 220 L 160 220 z M 180 240 L 200 240 L 220 240 L 240 240 L 260 240 L 280 240 L 300 240 L 320 240 L 340 240 L 360 240 L 380 240 L 400 240 L 420 240 L 440 240 L 460 240 L 480 240 L 500 240 L 520 240 L 540 240 L 560 240 L 580 240 L 600 240 L 620 240 L 640 240 L 660 240 L 680 240 L 680 260 L 680 280 L 680 300 L 680 320 L 680 340 L 680 360 L 680 380 L 680 400 L 680 420 L 680 440 L 680 460 L 680 480 L 680 500 L 680 520 L 680 540 L 680 560 L 680 580 L 680 600 L 680 620 L 680 640 L 680 660 L 680 680 L 680 700 L 680 720 L 680 740 L 680 760 L 680 780 L 680 800 L 680 820 L 660 820 L 640 820 L 620 820 L 600 820 L 580 820 L 560 820 L 540 820 L 520 820 L 500 820 L 480 820 L 460 820 L 440 820 L 420 820 L 400 820 L 380 820 L 360 820 L 340 820 L 320 820 L 300 820 L 280 820 L 260 820 L 240 820 L 220 820 L 200 820 L 180 820 L 180 800 L 180 780 L 180 760 L 180 740 L 180 720 L 180 700 L 180 680 L 180 660 L 180 640 L 180 620 L 180 600 L 180 580 L 180 560 L 180 540 L 180 520 L 180 500 L 180 480 L 180 460 L 180 440 L 180 420 L 180 400 L 180 380 L 180 360 L 180 340 L 180 320 L 180 300 L 180 280 L 180 260 L 180 240 z M 220 280 L 220 300 L 240 300 L 260 300 L 280 300 L 280 320 L 300 320 L 300 340 L 300 360 L 300 380 L 300 400 L 300 420 L 280 420 L 260 420 L 260 440 L 240 440 L 240 460 L 220 460 L 220 480 L 220 500 L 220 520 L 220 540 L 220 560 L 220 580 L 220 600 L 240 600 L 240 620 L 260 620 L 260 640 L 280 640 L 300 640 L 300 660 L 300 680 L 300 700 L 300 720 L 280 720 L 280 740 L 280 760 L 260 760 L 240 760 L 220 760 L 220 780 L 240 780 L 260 780 L 280 780 L 300 780 L 320 780 L 320 760 L 340 760 L 340 740 L 360 740 L 360 720 L 360 700 L 360 680 L 360 660 L 360 640 L 380 640 L 400 640 L 400 660 L 400 680 L 400 700 L 400 720 L 400 740 L 400 760 L 400 780 L 420 780 L 440 780 L 460 780 L 460 760 L 460 740 L 460 720 L 460 700 L 460 680 L 460 660 L 460 640 L 480 640 L 480 660 L 480 680 L 480 700 L 480 720 L 480 740 L 500 740 L 500 760 L 520 760 L 520 780 L 540 780 L 560 780 L 580 780 L 600 780 L 620 780 L 640 780 L 640 760 L 620 760 L 600 760 L 580 760 L 580 740 L 560 740 L 560 720 L 540 720 L 540 700 L 540 680 L 540 660 L 540 640 L 560 640 L 580 640 L 580 620 L 600 620 L 600 600 L 620 600 L 620 580 L 640 580 L 640 560 L 640 540 L 640 520 L 640 500 L 640 480 L 640 460 L 620 460 L 600 460 L 600 440 L 580 440 L 580 420 L 560 420 L 540 420 L 540 400 L 540 380 L 540 360 L 540 340 L 560 340 L 560 320 L 580 320 L 580 300 L 600 300 L 620 300 L 640 300 L 640 280 L 620 280 L 600 280 L 580 280 L 560 280 L 540 280 L 520 280 L 520 300 L 500 300 L 500 320 L 480 320 L 480 340 L 480 360 L 480 380 L 480 400 L 480 420 L 460 420 L 460 400 L 460 380 L 460 360 L 460 340 L 460 320 L 460 300 L 460 280 L 440 280 L 420 280 L 400 280 L 400 300 L 400 320 L 400 340 L 400 360 L 400 380 L 400 400 L 400 420 L 380 420 L 360 420 L 360 400 L 360 380 L 360 360 L 360 340 L 360 320 L 340 320 L 340 300 L 320 300 L 320 280 L 300 280 L 280 280 L 260 280 L 240 280 L 220 280 z M 240 480 L 260 480 L 280 480 L 300 480 L 300 500 L 300 520 L 300 540 L 300 560 L 300 580 L 280 580 L 260 580 L 240 580 L 240 560 L 240 540 L 240 520 L 240 500 L 240 480 z M 360 480 L 380 480 L 400 480 L 400 500 L 400 520 L 400 540 L 400 560 L 400 580 L 380 580 L 360 580 L 360 560 L 360 540 L 360 520 L 360 500 L 360 480 z M 460 480 L 480 480 L 480 500 L 480 520 L 480 540 L 480 560 L 480 580 L 460 580 L 460 560 L 460 540 L 460 520 L 460 500 L 460 480 z M 540 480 L 560 480 L 580 480 L 600 480 L 600 500 L 600 520 L 600 540 L 600 560 L 600 580 L 580 580 L 560 580 L 540 580 L 540 560 L 540 540 L 540 520 L 540 500 L 540 480 z "
     id="rect2996" />
</svg>
