<?xml version="1.0" encoding="UTF-8" standalone="no"?>
<svg
   xmlns:dc="http://purl.org/dc/elements/1.1/"
   xmlns:cc="http://creativecommons.org/ns#"
   xmlns:rdf="http://www.w3.org/1999/02/22-rdf-syntax-ns#"
   xmlns:svg="http://www.w3.org/2000/svg"
   xmlns="http://www.w3.org/2000/svg"
   height="640px"
   version="1.1"
   width="640px"
   id="svg1512">
  <metadata
     id="metadata1516">
    <rdf:RDF>
      <cc:Work
         rdf:about="">
        <dc:format>image/svg+xml</dc:format>
        <dc:type
           rdf:resource="http://purl.org/dc/dcmitype/StillImage" />
      </cc:Work>
    </rdf:RDF>
  </metadata>
  <defs
     id="defs2" />
  <path
     id="rect1250"
     d="M 420 160 L 420 180 L 420 200 L 400 200 L 380 200 L 380 220 L 380 240 L 400 240 L 420 240 L 420 260 L 420 280 L 440 280 L 460 280 L 460 260 L 460 240 L 480 240 L 500 240 L 500 220 L 500 200 L 480 200 L 460 200 L 460 180 L 460 160 L 440 160 L 420 160 z M 360 520 L 360 540 L 380 540 L 400 540 L 420 540 L 440 540 L 460 540 L 480 540 L 500 540 L 500 520 L 480 520 L 460 520 L 440 520 L 420 520 L 400 520 L 380 520 L 360 520 z "
     style="fill:#ff0000" />
  <path
     id="rect1402"
     d="M 400 20 L 400 40 L 400 60 L 400 80 L 420 80 L 420 60 L 420 40 L 440 40 L 460 40 L 460 20 L 440 20 L 420 20 L 400 20 z M 280 80 L 280 100 L 300 100 L 300 80 L 280 80 z M 600 80 L 600 100 L 620 100 L 620 80 L 600 80 z M 600 100 L 580 100 L 560 100 L 560 120 L 580 120 L 600 120 L 600 100 z M 560 120 L 540 120 L 520 120 L 500 120 L 480 120 L 460 120 L 440 120 L 420 120 L 400 120 L 380 120 L 360 120 L 340 120 L 340 140 L 360 140 L 380 140 L 400 140 L 420 140 L 440 140 L 460 140 L 480 140 L 500 140 L 520 140 L 540 140 L 560 140 L 560 120 z M 300 200 L 300 220 L 320 220 L 320 200 L 300 200 z M 300 220 L 280 220 L 280 240 L 300 240 L 300 220 z M 280 240 L 260 240 L 240 240 L 220 240 L 200 240 L 180 240 L 160 240 L 140 240 L 120 240 L 100 240 L 80 240 L 80 260 L 100 260 L 120 260 L 140 260 L 160 260 L 180 260 L 200 260 L 220 260 L 240 260 L 260 260 L 280 260 L 280 240 z M 100 280 L 100 300 L 100 320 L 100 340 L 100 360 L 120 360 L 120 340 L 120 320 L 120 300 L 120 280 L 100 280 z M 120 360 L 120 380 L 140 380 L 140 360 L 120 360 z M 140 380 L 140 400 L 160 400 L 160 380 L 140 380 z M 120 380 L 100 380 L 100 400 L 120 400 L 120 380 z M 140 280 L 140 300 L 160 300 L 180 300 L 200 300 L 220 300 L 240 300 L 240 280 L 220 280 L 200 280 L 180 280 L 160 280 L 140 280 z M 140 320 L 140 340 L 160 340 L 180 340 L 200 340 L 220 340 L 240 340 L 240 320 L 220 320 L 200 320 L 180 320 L 160 320 L 140 320 z M 320 360 L 320 380 L 340 380 L 340 360 L 320 360 z M 320 380 L 300 380 L 300 400 L 320 400 L 320 380 z M 320 400 L 320 420 L 340 420 L 340 400 L 320 400 z M 320 420 L 300 420 L 300 440 L 320 440 L 320 420 z M 320 440 L 320 460 L 340 460 L 340 440 L 320 440 z M 320 460 L 300 460 L 300 480 L 320 480 L 320 460 z M 320 480 L 320 500 L 340 500 L 340 480 L 320 480 z M 320 500 L 300 500 L 300 520 L 320 520 L 320 500 z M 320 520 L 320 540 L 340 540 L 340 520 L 320 520 z M 320 540 L 300 540 L 300 560 L 320 560 L 320 540 z M 320 560 L 320 580 L 340 580 L 340 560 L 320 560 z M 320 580 L 300 580 L 300 600 L 320 600 L 320 580 z M 200 480 L 200 500 L 200 520 L 200 540 L 220 540 L 220 520 L 220 500 L 220 480 L 200 480 z M 200 540 L 180 540 L 180 560 L 200 560 L 200 540 z M 180 560 L 160 560 L 160 580 L 180 580 L 180 560 z M 160 580 L 140 580 L 120 580 L 100 580 L 80 580 L 60 580 L 60 600 L 80 600 L 100 600 L 120 600 L 140 600 L 160 600 L 160 580 z M 60 580 L 60 560 L 40 560 L 20 560 L 20 580 L 40 580 L 60 580 z "
     style="fill:#ffffff" />
  <path
     id="rect1422"
     d="M 460 20 L 460 40 L 440 40 L 420 40 L 420 60 L 420 80 L 440 80 L 440 60 L 460 60 L 480 60 L 480 40 L 480 20 L 460 20 z M 320 60 L 320 80 L 340 80 L 340 100 L 360 100 L 380 100 L 400 100 L 400 80 L 380 80 L 380 60 L 360 60 L 340 60 L 320 60 z M 400 100 L 400 120 L 420 120 L 440 120 L 460 120 L 480 120 L 500 120 L 520 120 L 540 120 L 560 120 L 560 100 L 540 100 L 520 100 L 500 100 L 480 100 L 460 100 L 440 100 L 420 100 L 400 100 z M 340 100 L 320 100 L 300 100 L 280 100 L 280 120 L 280 140 L 280 160 L 280 180 L 300 180 L 320 180 L 340 180 L 340 200 L 360 200 L 360 220 L 360 240 L 340 240 L 340 260 L 340 280 L 340 300 L 340 320 L 340 340 L 320 340 L 320 360 L 340 360 L 360 360 L 360 380 L 380 380 L 380 360 L 400 360 L 400 380 L 420 380 L 420 360 L 440 360 L 440 380 L 460 380 L 460 360 L 480 360 L 480 380 L 500 380 L 500 360 L 520 360 L 520 380 L 540 380 L 540 360 L 560 360 L 560 340 L 560 320 L 580 320 L 580 300 L 560 300 L 560 280 L 580 280 L 580 260 L 560 260 L 560 240 L 580 240 L 580 220 L 560 220 L 560 200 L 580 200 L 580 180 L 560 180 L 560 160 L 580 160 L 580 140 L 560 140 L 540 140 L 520 140 L 500 140 L 480 140 L 460 140 L 440 140 L 420 140 L 400 140 L 380 140 L 360 140 L 340 140 L 340 120 L 340 100 z M 580 140 L 600 140 L 600 120 L 580 120 L 580 140 z M 600 120 L 620 120 L 620 100 L 600 100 L 600 120 z M 600 140 L 600 160 L 620 160 L 620 140 L 600 140 z M 600 160 L 580 160 L 580 180 L 600 180 L 600 160 z M 600 180 L 600 200 L 620 200 L 620 180 L 600 180 z M 600 200 L 580 200 L 580 220 L 600 220 L 600 200 z M 600 220 L 600 240 L 620 240 L 620 220 L 600 220 z M 600 240 L 580 240 L 580 260 L 600 260 L 600 240 z M 600 260 L 600 280 L 620 280 L 620 260 L 600 260 z M 600 280 L 580 280 L 580 300 L 600 300 L 600 280 z M 580 320 L 580 340 L 600 340 L 600 320 L 580 320 z M 540 380 L 540 400 L 560 400 L 560 380 L 540 380 z M 540 400 L 520 400 L 520 420 L 540 420 L 540 400 z M 540 420 L 540 440 L 560 440 L 560 420 L 540 420 z M 540 440 L 520 440 L 520 460 L 540 460 L 540 440 z M 540 460 L 540 480 L 560 480 L 560 460 L 540 460 z M 540 480 L 520 480 L 520 500 L 540 500 L 540 480 z M 540 500 L 540 520 L 560 520 L 560 500 L 540 500 z M 520 500 L 500 500 L 500 520 L 520 520 L 520 500 z M 500 500 L 500 480 L 480 480 L 480 500 L 500 500 z M 480 500 L 460 500 L 460 520 L 480 520 L 480 500 z M 460 500 L 460 480 L 440 480 L 440 500 L 460 500 z M 440 500 L 420 500 L 420 520 L 440 520 L 440 500 z M 420 500 L 420 480 L 400 480 L 400 500 L 420 500 z M 400 500 L 380 500 L 380 520 L 400 520 L 400 500 z M 380 500 L 380 480 L 360 480 L 360 500 L 380 500 z M 360 500 L 340 500 L 340 520 L 360 520 L 360 500 z M 360 480 L 360 460 L 340 460 L 340 480 L 360 480 z M 360 460 L 380 460 L 380 440 L 360 440 L 360 460 z M 360 440 L 360 420 L 340 420 L 340 440 L 360 440 z M 360 420 L 380 420 L 380 400 L 360 400 L 360 420 z M 360 400 L 360 380 L 340 380 L 340 400 L 360 400 z M 380 400 L 400 400 L 400 380 L 380 380 L 380 400 z M 400 400 L 400 420 L 420 420 L 420 400 L 400 400 z M 420 400 L 440 400 L 440 380 L 420 380 L 420 400 z M 440 400 L 440 420 L 460 420 L 460 400 L 440 400 z M 460 400 L 480 400 L 480 380 L 460 380 L 460 400 z M 480 400 L 480 420 L 500 420 L 500 400 L 480 400 z M 500 400 L 520 400 L 520 380 L 500 380 L 500 400 z M 500 420 L 500 440 L 520 440 L 520 420 L 500 420 z M 500 440 L 480 440 L 480 460 L 500 460 L 500 440 z M 500 460 L 500 480 L 520 480 L 520 460 L 500 460 z M 480 460 L 460 460 L 460 480 L 480 480 L 480 460 z M 460 460 L 460 440 L 440 440 L 440 460 L 460 460 z M 440 460 L 420 460 L 420 480 L 440 480 L 440 460 z M 420 460 L 420 440 L 400 440 L 400 460 L 420 460 z M 400 460 L 380 460 L 380 480 L 400 480 L 400 460 z M 400 440 L 400 420 L 380 420 L 380 440 L 400 440 z M 420 440 L 440 440 L 440 420 L 420 420 L 420 440 z M 460 440 L 480 440 L 480 420 L 460 420 L 460 440 z M 420 160 L 440 160 L 460 160 L 460 180 L 460 200 L 480 200 L 500 200 L 500 220 L 500 240 L 480 240 L 460 240 L 460 260 L 460 280 L 440 280 L 420 280 L 420 260 L 420 240 L 400 240 L 380 240 L 380 220 L 380 200 L 400 200 L 420 200 L 420 180 L 420 160 z M 100 200 L 100 220 L 80 220 L 80 240 L 100 240 L 120 240 L 120 220 L 120 200 L 100 200 z M 140 200 L 140 220 L 160 220 L 160 200 L 140 200 z M 160 220 L 160 240 L 180 240 L 200 240 L 220 240 L 220 220 L 220 200 L 200 200 L 200 220 L 180 220 L 160 220 z M 240 200 L 240 220 L 260 220 L 260 200 L 240 200 z M 260 220 L 260 240 L 280 240 L 280 220 L 260 220 z M 280 220 L 300 220 L 300 200 L 280 200 L 280 220 z M 120 280 L 120 300 L 120 320 L 120 340 L 120 360 L 140 360 L 140 340 L 140 320 L 140 300 L 140 280 L 120 280 z M 140 360 L 140 380 L 160 380 L 160 400 L 180 400 L 200 400 L 220 400 L 240 400 L 260 400 L 260 380 L 260 360 L 280 360 L 280 340 L 280 320 L 280 300 L 280 280 L 260 280 L 240 280 L 240 300 L 240 320 L 240 340 L 240 360 L 220 360 L 200 360 L 180 360 L 160 360 L 140 360 z M 280 400 L 280 420 L 300 420 L 300 400 L 280 400 z M 180 420 L 180 440 L 200 440 L 220 440 L 220 420 L 200 420 L 180 420 z M 280 440 L 280 460 L 300 460 L 300 440 L 280 440 z M 280 460 L 260 460 L 260 480 L 280 480 L 280 460 z M 280 480 L 280 500 L 300 500 L 300 480 L 280 480 z M 280 500 L 260 500 L 260 520 L 280 520 L 280 500 z M 280 520 L 280 540 L 300 540 L 300 520 L 280 520 z M 280 540 L 260 540 L 260 560 L 280 560 L 280 540 z M 280 560 L 280 580 L 300 580 L 300 560 L 280 560 z M 340 540 L 340 560 L 360 560 L 360 540 L 340 540 z M 360 560 L 360 580 L 380 580 L 380 560 L 360 560 z M 380 560 L 400 560 L 400 540 L 380 540 L 380 560 z M 400 560 L 400 580 L 420 580 L 420 560 L 400 560 z M 420 560 L 440 560 L 440 540 L 420 540 L 420 560 z M 440 560 L 440 580 L 460 580 L 460 560 L 440 560 z M 460 560 L 480 560 L 480 540 L 460 540 L 460 560 z M 480 560 L 480 580 L 500 580 L 500 560 L 480 560 z M 500 560 L 520 560 L 520 540 L 500 540 L 500 560 z M 500 580 L 500 600 L 520 600 L 520 580 L 500 580 z M 480 580 L 460 580 L 460 600 L 480 600 L 480 580 z M 440 580 L 420 580 L 420 600 L 440 600 L 440 580 z M 400 580 L 380 580 L 380 600 L 400 600 L 400 580 z M 360 580 L 340 580 L 340 600 L 360 600 L 360 580 z "
     style="fill:#c0c0c0" />
  <path
     id="rect1454"
     d="M 120 100 L 120 120 L 120 140 L 120 160 L 120 180 L 120 200 L 120 220 L 120 240 L 140 240 L 140 220 L 140 200 L 140 180 L 140 160 L 140 140 L 140 120 L 140 100 L 120 100 z M 220 100 L 220 120 L 220 140 L 220 160 L 220 180 L 220 200 L 220 220 L 220 240 L 240 240 L 240 220 L 240 200 L 240 180 L 240 160 L 240 140 L 240 120 L 240 100 L 220 100 z M 240 540 L 240 560 L 260 560 L 260 540 L 240 540 z M 260 560 L 260 580 L 280 580 L 280 560 L 260 560 z M 280 580 L 280 600 L 300 600 L 300 580 L 280 580 z M 300 600 L 300 620 L 320 620 L 340 620 L 340 600 L 320 600 L 300 600 z "
     style="fill:#808000" />
  <path
     id="rect1472"
     d="M 140 100 L 140 120 L 140 140 L 140 160 L 140 180 L 140 200 L 160 200 L 160 180 L 160 160 L 160 140 L 160 120 L 160 100 L 140 100 z M 240 100 L 240 120 L 240 140 L 240 160 L 240 180 L 240 200 L 260 200 L 260 180 L 260 160 L 260 140 L 260 120 L 260 100 L 240 100 z M 600 300 L 600 320 L 620 320 L 620 300 L 600 300 z M 560 340 L 560 360 L 580 360 L 580 340 L 560 340 z M 580 360 L 580 380 L 600 380 L 600 360 L 580 360 z M 600 360 L 620 360 L 620 340 L 600 340 L 600 360 z M 600 380 L 600 400 L 620 400 L 620 380 L 600 380 z M 600 400 L 580 400 L 580 420 L 600 420 L 600 400 z M 600 420 L 600 440 L 620 440 L 620 420 L 600 420 z M 600 440 L 580 440 L 580 460 L 600 460 L 600 440 z M 600 460 L 600 480 L 620 480 L 620 460 L 600 460 z M 600 480 L 580 480 L 580 500 L 600 500 L 600 480 z M 600 500 L 600 520 L 620 520 L 620 500 L 600 500 z M 600 520 L 580 520 L 580 540 L 600 540 L 600 520 z M 600 540 L 600 560 L 620 560 L 620 540 L 600 540 z M 600 560 L 580 560 L 580 580 L 600 580 L 600 560 z M 580 580 L 560 580 L 560 600 L 580 600 L 580 580 z M 560 580 L 560 560 L 540 560 L 540 580 L 560 580 z M 540 580 L 520 580 L 520 600 L 540 600 L 540 580 z M 520 600 L 500 600 L 500 620 L 520 620 L 520 600 z M 500 600 L 500 580 L 480 580 L 480 600 L 500 600 z M 480 600 L 460 600 L 460 620 L 480 620 L 480 600 z M 460 600 L 460 580 L 440 580 L 440 600 L 460 600 z M 440 600 L 420 600 L 420 620 L 440 620 L 440 600 z M 420 600 L 420 580 L 400 580 L 400 600 L 420 600 z M 400 600 L 380 600 L 380 620 L 400 620 L 400 600 z M 380 600 L 380 580 L 360 580 L 360 600 L 380 600 z M 360 600 L 340 600 L 340 620 L 360 620 L 360 600 z M 340 600 L 340 580 L 320 580 L 320 600 L 340 600 z M 320 580 L 320 560 L 300 560 L 300 580 L 320 580 z M 300 560 L 300 540 L 280 540 L 280 560 L 300 560 z M 280 540 L 280 520 L 260 520 L 260 540 L 280 540 z M 280 520 L 300 520 L 300 500 L 280 500 L 280 520 z M 280 500 L 280 480 L 260 480 L 260 500 L 280 500 z M 280 480 L 300 480 L 300 460 L 280 460 L 280 480 z M 280 460 L 280 440 L 260 440 L 260 460 L 280 460 z M 280 440 L 300 440 L 300 420 L 280 420 L 280 440 z M 300 420 L 320 420 L 320 400 L 300 400 L 300 420 z M 320 400 L 340 400 L 340 380 L 320 380 L 320 400 z M 340 380 L 360 380 L 360 360 L 340 360 L 340 380 z M 360 380 L 360 400 L 380 400 L 380 380 L 360 380 z M 380 380 L 400 380 L 400 360 L 380 360 L 380 380 z M 400 380 L 400 400 L 420 400 L 420 380 L 400 380 z M 420 380 L 440 380 L 440 360 L 420 360 L 420 380 z M 440 380 L 440 400 L 460 400 L 460 380 L 440 380 z M 460 380 L 480 380 L 480 360 L 460 360 L 460 380 z M 480 380 L 480 400 L 500 400 L 500 380 L 480 380 z M 500 380 L 520 380 L 520 360 L 500 360 L 500 380 z M 520 380 L 520 400 L 540 400 L 540 380 L 520 380 z M 540 380 L 560 380 L 560 360 L 540 360 L 540 380 z M 560 380 L 560 400 L 580 400 L 580 380 L 560 380 z M 560 400 L 540 400 L 540 420 L 560 420 L 560 400 z M 560 420 L 560 440 L 580 440 L 580 420 L 560 420 z M 560 440 L 540 440 L 540 460 L 560 460 L 560 440 z M 560 460 L 560 480 L 580 480 L 580 460 L 560 460 z M 560 480 L 540 480 L 540 500 L 560 500 L 560 480 z M 560 500 L 560 520 L 580 520 L 580 500 L 560 500 z M 560 520 L 540 520 L 540 540 L 560 540 L 560 520 z M 560 540 L 560 560 L 580 560 L 580 540 L 560 540 z M 540 540 L 520 540 L 520 560 L 540 560 L 540 540 z M 520 560 L 500 560 L 500 580 L 520 580 L 520 560 z M 500 560 L 500 540 L 480 540 L 480 560 L 500 560 z M 480 560 L 460 560 L 460 580 L 480 580 L 480 560 z M 460 560 L 460 540 L 440 540 L 440 560 L 460 560 z M 440 560 L 420 560 L 420 580 L 440 580 L 440 560 z M 420 560 L 420 540 L 400 540 L 400 560 L 420 560 z M 400 560 L 380 560 L 380 580 L 400 580 L 400 560 z M 380 560 L 380 540 L 360 540 L 360 560 L 380 560 z M 360 560 L 340 560 L 340 580 L 360 580 L 360 560 z M 340 560 L 340 540 L 320 540 L 320 560 L 340 560 z M 320 540 L 320 520 L 300 520 L 300 540 L 320 540 z M 320 520 L 340 520 L 340 500 L 320 500 L 320 520 z M 320 500 L 320 480 L 300 480 L 300 500 L 320 500 z M 320 480 L 340 480 L 340 460 L 320 460 L 320 480 z M 320 460 L 320 440 L 300 440 L 300 460 L 320 460 z M 320 440 L 340 440 L 340 420 L 320 420 L 320 440 z M 340 420 L 360 420 L 360 400 L 340 400 L 340 420 z M 360 420 L 360 440 L 380 440 L 380 420 L 360 420 z M 380 420 L 400 420 L 400 400 L 380 400 L 380 420 z M 400 420 L 400 440 L 420 440 L 420 420 L 400 420 z M 420 420 L 440 420 L 440 400 L 420 400 L 420 420 z M 440 420 L 440 440 L 460 440 L 460 420 L 440 420 z M 460 420 L 480 420 L 480 400 L 460 400 L 460 420 z M 480 420 L 480 440 L 500 440 L 500 420 L 480 420 z M 500 420 L 520 420 L 520 400 L 500 400 L 500 420 z M 520 420 L 520 440 L 540 440 L 540 420 L 520 420 z M 520 440 L 500 440 L 500 460 L 520 460 L 520 440 z M 520 460 L 520 480 L 540 480 L 540 460 L 520 460 z M 520 480 L 500 480 L 500 500 L 520 500 L 520 480 z M 520 500 L 520 520 L 540 520 L 540 500 L 520 500 z M 520 520 L 500 520 L 500 540 L 520 540 L 520 520 z M 500 520 L 500 500 L 480 500 L 480 520 L 500 520 z M 480 500 L 480 480 L 460 480 L 460 500 L 480 500 z M 460 500 L 440 500 L 440 520 L 460 520 L 460 500 z M 440 500 L 440 480 L 420 480 L 420 500 L 440 500 z M 420 500 L 400 500 L 400 520 L 420 520 L 420 500 z M 400 500 L 400 480 L 380 480 L 380 500 L 400 500 z M 380 500 L 360 500 L 360 520 L 380 520 L 380 500 z M 360 520 L 340 520 L 340 540 L 360 540 L 360 520 z M 360 500 L 360 480 L 340 480 L 340 500 L 360 500 z M 360 480 L 380 480 L 380 460 L 360 460 L 360 480 z M 360 460 L 360 440 L 340 440 L 340 460 L 360 460 z M 380 460 L 400 460 L 400 440 L 380 440 L 380 460 z M 400 460 L 400 480 L 420 480 L 420 460 L 400 460 z M 420 460 L 440 460 L 440 440 L 420 440 L 420 460 z M 440 460 L 440 480 L 460 480 L 460 460 L 440 460 z M 460 460 L 480 460 L 480 440 L 460 440 L 460 460 z M 480 460 L 480 480 L 500 480 L 500 460 L 480 460 z "
     style="fill:#ffff00" />
  <path
     id="rect1474"
     d="M 400 0 L 400 20 L 420 20 L 440 20 L 460 20 L 480 20 L 480 40 L 480 60 L 460 60 L 440 60 L 440 80 L 460 80 L 480 80 L 500 80 L 500 60 L 500 40 L 500 20 L 500 0 L 480 0 L 460 0 L 440 0 L 420 0 L 400 0 z M 500 80 L 500 100 L 520 100 L 540 100 L 560 100 L 580 100 L 600 100 L 600 80 L 580 80 L 560 80 L 560 60 L 540 60 L 520 60 L 520 80 L 500 80 z M 400 20 L 380 20 L 380 40 L 360 40 L 340 40 L 320 40 L 320 60 L 340 60 L 360 60 L 380 60 L 380 80 L 400 80 L 400 60 L 400 40 L 400 20 z M 320 60 L 300 60 L 280 60 L 260 60 L 260 80 L 280 80 L 300 80 L 300 100 L 320 100 L 340 100 L 340 80 L 320 80 L 320 60 z M 340 100 L 340 120 L 360 120 L 380 120 L 400 120 L 400 100 L 380 100 L 360 100 L 340 100 z M 260 80 L 240 80 L 240 100 L 260 100 L 260 80 z M 140 80 L 140 100 L 160 100 L 160 80 L 140 80 z M 560 120 L 560 140 L 580 140 L 580 120 L 560 120 z M 580 140 L 580 160 L 600 160 L 600 140 L 580 140 z M 600 140 L 620 140 L 620 120 L 600 120 L 600 140 z M 600 160 L 600 180 L 620 180 L 620 160 L 600 160 z M 600 180 L 580 180 L 580 200 L 600 200 L 600 180 z M 600 200 L 600 220 L 620 220 L 620 200 L 600 200 z M 600 220 L 580 220 L 580 240 L 600 240 L 600 220 z M 600 240 L 600 260 L 620 260 L 620 240 L 600 240 z M 600 260 L 580 260 L 580 280 L 600 280 L 600 260 z M 600 280 L 600 300 L 620 300 L 620 280 L 600 280 z M 600 300 L 580 300 L 580 320 L 600 320 L 600 300 z M 600 320 L 600 340 L 620 340 L 620 320 L 600 320 z M 600 340 L 580 340 L 580 360 L 600 360 L 600 340 z M 600 360 L 600 380 L 620 380 L 620 360 L 600 360 z M 600 380 L 580 380 L 580 400 L 600 400 L 600 380 z M 600 400 L 600 420 L 620 420 L 620 400 L 600 400 z M 600 420 L 580 420 L 580 440 L 600 440 L 600 420 z M 600 440 L 600 460 L 620 460 L 620 440 L 600 440 z M 600 460 L 580 460 L 580 480 L 600 480 L 600 460 z M 600 480 L 600 500 L 620 500 L 620 480 L 600 480 z M 600 500 L 580 500 L 580 520 L 600 520 L 600 500 z M 600 520 L 600 540 L 620 540 L 620 520 L 600 520 z M 600 540 L 580 540 L 580 560 L 600 560 L 600 540 z M 580 560 L 560 560 L 560 580 L 580 580 L 580 560 z M 560 580 L 540 580 L 540 600 L 560 600 L 560 580 z M 540 600 L 520 600 L 520 620 L 540 620 L 540 600 z M 540 580 L 540 560 L 520 560 L 520 580 L 540 580 z M 540 560 L 560 560 L 560 540 L 540 540 L 540 560 z M 540 540 L 540 520 L 520 520 L 520 540 L 540 540 z M 560 540 L 580 540 L 580 520 L 560 520 L 560 540 z M 580 500 L 580 480 L 560 480 L 560 500 L 580 500 z M 580 460 L 580 440 L 560 440 L 560 460 L 580 460 z M 580 420 L 580 400 L 560 400 L 560 420 L 580 420 z M 580 380 L 580 360 L 560 360 L 560 380 L 580 380 z M 580 340 L 580 320 L 560 320 L 560 340 L 580 340 z M 580 300 L 580 280 L 560 280 L 560 300 L 580 300 z M 580 260 L 580 240 L 560 240 L 560 260 L 580 260 z M 580 220 L 580 200 L 560 200 L 560 220 L 580 220 z M 580 180 L 580 160 L 560 160 L 560 180 L 580 180 z M 100 180 L 100 200 L 120 200 L 120 180 L 100 180 z M 100 200 L 80 200 L 80 220 L 100 220 L 100 200 z M 80 220 L 60 220 L 60 240 L 60 260 L 80 260 L 80 240 L 80 220 z M 80 260 L 80 280 L 80 300 L 80 320 L 80 340 L 80 360 L 100 360 L 100 340 L 100 320 L 100 300 L 100 280 L 120 280 L 140 280 L 160 280 L 180 280 L 200 280 L 220 280 L 240 280 L 260 280 L 280 280 L 280 300 L 280 320 L 280 340 L 280 360 L 260 360 L 260 380 L 260 400 L 280 400 L 280 380 L 300 380 L 300 360 L 300 340 L 320 340 L 320 320 L 320 300 L 320 280 L 300 280 L 300 260 L 320 260 L 320 240 L 340 240 L 340 220 L 340 200 L 340 180 L 320 180 L 300 180 L 300 200 L 320 200 L 320 220 L 300 220 L 300 240 L 280 240 L 280 260 L 260 260 L 240 260 L 220 260 L 200 260 L 180 260 L 160 260 L 140 260 L 120 260 L 100 260 L 80 260 z M 100 360 L 100 380 L 120 380 L 120 360 L 100 360 z M 120 380 L 120 400 L 140 400 L 140 380 L 120 380 z M 200 180 L 200 200 L 220 200 L 220 180 L 200 180 z M 200 200 L 180 200 L 180 220 L 200 220 L 200 200 z M 140 300 L 140 320 L 160 320 L 180 320 L 200 320 L 220 320 L 240 320 L 240 300 L 220 300 L 200 300 L 180 300 L 160 300 L 140 300 z M 140 340 L 140 360 L 160 360 L 180 360 L 200 360 L 220 360 L 240 360 L 240 340 L 220 340 L 200 340 L 180 340 L 160 340 L 140 340 z M 160 420 L 160 440 L 160 460 L 180 460 L 180 440 L 180 420 L 160 420 z M 180 460 L 180 480 L 180 500 L 180 520 L 180 540 L 200 540 L 200 520 L 200 500 L 200 480 L 220 480 L 220 500 L 220 520 L 220 540 L 240 540 L 240 520 L 240 500 L 240 480 L 240 460 L 220 460 L 200 460 L 180 460 z M 220 540 L 200 540 L 200 560 L 180 560 L 180 580 L 160 580 L 160 600 L 180 600 L 200 600 L 200 580 L 220 580 L 220 560 L 220 540 z M 160 600 L 140 600 L 120 600 L 100 600 L 80 600 L 60 600 L 60 580 L 40 580 L 20 580 L 20 560 L 0 560 L 0 580 L 0 600 L 20 600 L 40 600 L 40 620 L 60 620 L 80 620 L 100 620 L 120 620 L 140 620 L 160 620 L 160 600 z M 20 560 L 40 560 L 60 560 L 60 540 L 40 540 L 20 540 L 20 560 z M 60 560 L 60 580 L 80 580 L 100 580 L 120 580 L 140 580 L 160 580 L 160 560 L 140 560 L 120 560 L 100 560 L 80 560 L 60 560 z M 160 560 L 180 560 L 180 540 L 160 540 L 160 560 z M 220 420 L 220 440 L 240 440 L 260 440 L 260 420 L 240 420 L 220 420 z M 360 600 L 360 620 L 380 620 L 380 600 L 360 600 z M 400 600 L 400 620 L 420 620 L 420 600 L 400 600 z M 440 600 L 440 620 L 460 620 L 460 600 L 440 600 z M 480 600 L 480 620 L 500 620 L 500 600 L 480 600 z "
     style="fill:#808080" />
  <path
     id="rect1510"
     d="M 500 40 L 500 60 L 500 80 L 520 80 L 520 60 L 540 60 L 560 60 L 560 40 L 540 40 L 520 40 L 500 40 z M 560 60 L 560 80 L 580 80 L 600 80 L 620 80 L 620 60 L 600 60 L 580 60 L 560 60 z M 620 80 L 620 100 L 620 120 L 620 140 L 620 160 L 620 180 L 620 200 L 620 220 L 620 240 L 620 260 L 620 280 L 620 300 L 620 320 L 620 340 L 620 360 L 620 380 L 620 400 L 620 420 L 620 440 L 620 460 L 620 480 L 620 500 L 620 520 L 620 540 L 620 560 L 640 560 L 640 540 L 640 520 L 640 500 L 640 480 L 640 460 L 640 440 L 640 420 L 640 400 L 640 380 L 640 360 L 640 340 L 640 320 L 640 300 L 640 280 L 640 260 L 640 240 L 640 220 L 640 200 L 640 180 L 640 160 L 640 140 L 640 120 L 640 100 L 640 80 L 620 80 z M 620 560 L 600 560 L 600 580 L 620 580 L 620 560 z M 600 580 L 580 580 L 580 600 L 600 600 L 600 580 z M 580 600 L 560 600 L 540 600 L 540 620 L 560 620 L 580 620 L 580 600 z M 540 620 L 520 620 L 500 620 L 480 620 L 460 620 L 440 620 L 420 620 L 400 620 L 380 620 L 360 620 L 340 620 L 340 640 L 360 640 L 380 640 L 400 640 L 420 640 L 440 640 L 460 640 L 480 640 L 500 640 L 520 640 L 540 640 L 540 620 z M 500 80 L 480 80 L 460 80 L 440 80 L 420 80 L 400 80 L 400 100 L 420 100 L 440 100 L 460 100 L 480 100 L 500 100 L 500 80 z M 160 80 L 160 100 L 160 120 L 160 140 L 160 160 L 160 180 L 160 200 L 160 220 L 180 220 L 180 200 L 200 200 L 200 180 L 180 180 L 180 160 L 180 140 L 180 120 L 180 100 L 180 80 L 160 80 z M 160 220 L 140 220 L 140 240 L 160 240 L 160 220 z M 260 80 L 260 100 L 260 120 L 260 140 L 260 160 L 260 180 L 260 200 L 260 220 L 280 220 L 280 200 L 300 200 L 300 180 L 280 180 L 280 160 L 280 140 L 280 120 L 280 100 L 280 80 L 260 80 z M 260 220 L 240 220 L 240 240 L 260 240 L 260 220 z M 340 200 L 340 220 L 340 240 L 360 240 L 360 220 L 360 200 L 340 200 z M 340 240 L 320 240 L 320 260 L 300 260 L 300 280 L 320 280 L 320 300 L 320 320 L 320 340 L 340 340 L 340 320 L 340 300 L 340 280 L 340 260 L 340 240 z M 320 340 L 300 340 L 300 360 L 300 380 L 320 380 L 320 360 L 320 340 z M 300 380 L 280 380 L 280 400 L 300 400 L 300 380 z M 280 400 L 260 400 L 240 400 L 220 400 L 200 400 L 180 400 L 160 400 L 140 400 L 140 420 L 160 420 L 180 420 L 200 420 L 220 420 L 240 420 L 260 420 L 260 440 L 280 440 L 280 420 L 280 400 z M 260 440 L 240 440 L 220 440 L 200 440 L 180 440 L 180 460 L 200 460 L 220 460 L 240 460 L 240 480 L 240 500 L 240 520 L 240 540 L 260 540 L 260 520 L 260 500 L 260 480 L 260 460 L 260 440 z M 240 540 L 220 540 L 220 560 L 220 580 L 240 580 L 240 560 L 240 540 z M 220 580 L 200 580 L 200 600 L 220 600 L 220 580 z M 200 600 L 180 600 L 160 600 L 160 620 L 180 620 L 200 620 L 200 600 z M 160 620 L 140 620 L 120 620 L 100 620 L 80 620 L 60 620 L 40 620 L 40 640 L 60 640 L 80 640 L 100 640 L 120 640 L 140 640 L 160 640 L 160 620 z M 40 620 L 40 600 L 20 600 L 0 600 L 0 620 L 20 620 L 40 620 z "
     style="fill:#000000" />
</svg>
