<svg xmlns="http://www.w3.org/2000/svg" viewBox="0 -0.5 32 32" shape-rendering="crispEdges">
<metadata>Made with Pixels to Svg https://codepen.io/shshaw/pen/XbxvNj</metadata>
<path stroke="#000000" d="M15 0h2M14 1h1M17 1h1M13 2h1M18 2h1M12 3h1M19 3h1M11 4h1M20 4h1M10 5h1M21 5h1M9 6h1M14 6h3M22 6h1M8 7h1M14 7h1M16 7h5M23 7h1M7 8h1M11 8h4M16 8h2M20 8h1M24 8h1M6 9h1M10 9h2M20 9h1M25 9h1M5 10h1M10 10h1M20 10h1M26 10h1M4 11h1M10 11h1M13 11h2M16 11h2M20 11h1M27 11h1M3 12h1M10 12h1M13 12h2M16 12h5M28 12h1M2 13h1M10 13h1M13 13h2M16 13h1M29 13h1M1 14h1M10 14h1M13 14h2M16 14h4M30 14h1M0 15h1M10 15h1M19 15h2M31 15h1M0 16h1M10 16h2M20 16h1M31 16h1M1 17h1M11 17h4M16 17h2M20 17h1M30 17h1M2 18h1M14 18h1M16 18h2M20 18h1M29 18h1M3 19h1M10 19h5M16 19h2M20 19h1M28 19h1M4 20h1M10 20h1M13 20h2M16 20h2M20 20h1M27 20h1M5 21h1M10 21h1M20 21h1M26 21h1M6 22h1M10 22h1M19 22h2M25 22h1M7 23h1M10 23h1M13 23h2M16 23h4M24 23h1M8 24h1M10 24h5M16 24h1M23 24h1M9 25h1M14 25h3M22 25h1M4 26h1M6 26h1M8 26h1M10 26h1M12 26h1M14 26h1M16 26h1M18 26h1M20 26h1M22 26h1M24 26h1M26 26h1M1 27h1M3 27h1M9 27h3M14 27h3M19 27h2M27 27h1M29 27h1M31 27h1M0 28h1M4 28h1M10 28h1M15 28h1M19 28h1M21 28h1M10 29h1M15 29h1M19 29h1M21 29h1M27 29h1M30 29h1M0 30h1M4 30h1M10 30h1M15 30h1M19 30h2M1 31h1M3 31h1M5 31h1M7 31h1M9 31h1M11 31h1M13 31h1M15 31h1M17 31h1M19 31h1M21 31h1M23 31h1M25 31h1M27 31h1M29 31h1M31 31h1" />
<path stroke="#ffff00" d="M15 1h2M14 2h4M13 3h6M12 4h8M11 5h10M10 6h4M17 6h5M9 7h5M21 7h2M8 8h3M21 8h1M23 8h1M7 9h3M21 9h4M6 10h4M21 10h1M23 10h1M25 10h1M5 11h5M21 11h2M24 11h1M26 11h1M4 12h6M21 12h1M23 12h1M25 12h1M27 12h1M3 13h7M17 13h4M22 13h1M24 13h1M26 13h1M28 13h1M2 14h8M21 14h1M23 14h1M25 14h1M27 14h1M29 14h1M1 15h9M22 15h1M24 15h1M26 15h1M28 15h1M30 15h1M1 16h9M21 16h1M23 16h1M25 16h1M27 16h1M29 16h1M2 17h9M22 17h1M24 17h1M26 17h1M28 17h1M3 18h7M11 18h1M13 18h1M21 18h1M23 18h1M25 18h1M27 18h1M4 19h6M22 19h1M24 19h1M26 19h1M5 20h3M9 20h1M21 20h1M23 20h1M25 20h1M6 21h4M22 21h1M24 21h1M7 22h1M9 22h1M21 22h1M23 22h1M8 23h2M20 23h1M22 23h1M9 24h1M17 24h1M19 24h1M21 24h1M10 25h1M12 25h1M18 25h1M20 25h1" />
<path stroke="#ffffff" d="M15 7h1M15 8h1M18 8h2M12 9h8M11 10h9M11 11h2M15 11h1M18 11h2M11 12h2M15 12h1M11 13h2M15 13h1M11 14h2M15 14h1M11 15h8M12 16h8M15 17h1M18 17h2M15 18h1M18 18h2M15 19h1M18 19h2M11 20h2M15 20h1M18 20h2M11 21h9M11 22h8M11 23h2M15 23h1M15 24h1" />
<path stroke="#ff0000" d="M22 8h1M22 10h1M24 10h1M23 11h1M25 11h1M22 12h1M24 12h1M26 12h1M21 13h1M23 13h1M25 13h1M27 13h1M20 14h1M22 14h1M24 14h1M26 14h1M28 14h1M21 15h1M23 15h1M25 15h1M27 15h1M29 15h1M22 16h1M24 16h1M26 16h1M28 16h1M30 16h1M21 17h1M23 17h1M25 17h1M27 17h1M29 17h1M10 18h1M12 18h1M22 18h1M24 18h1M26 18h1M28 18h1M21 19h1M23 19h1M25 19h1M27 19h1M8 20h1M22 20h1M24 20h1M26 20h1M21 21h1M23 21h1M25 21h1M8 22h1M22 22h1M24 22h1M21 23h1M23 23h1M18 24h1M20 24h1M22 24h1M11 25h1M13 25h1M17 25h1M19 25h1M21 25h1" />
<path stroke="#008000" d="M5 26h1M7 26h1M9 26h1M11 26h1M13 26h1M15 26h1M17 26h1M19 26h1M21 26h1M23 26h1M25 26h1M27 26h1M0 27h1M2 27h1M4 27h1M28 27h1M30 27h1M27 28h1M31 28h1M1 29h1M4 29h1M27 30h1M31 30h1M0 31h1M2 31h1M4 31h1M6 31h1M8 31h1M10 31h1M12 31h1M14 31h1M16 31h1M18 31h1M20 31h1M22 31h1M24 31h1M26 31h1M28 31h1M30 31h1" />
<path stroke="#00ff00" d="M5 27h4M12 27h2M17 27h2M21 27h6M1 28h3M5 28h5M11 28h4M16 28h3M20 28h1M22 28h5M28 28h3M2 29h2M5 29h5M11 29h4M16 29h3M20 29h1M22 29h5M28 29h2M1 30h3M5 30h5M11 30h4M16 30h3M21 30h6M28 30h3" />
</svg>