<?xml version="1.0" encoding="UTF-8" standalone="no"?>
<svg
   xmlns:dc="http://purl.org/dc/elements/1.1/"
   xmlns:cc="http://creativecommons.org/ns#"
   xmlns:rdf="http://www.w3.org/1999/02/22-rdf-syntax-ns#"
   xmlns:svg="http://www.w3.org/2000/svg"
   xmlns="http://www.w3.org/2000/svg"
   xmlns:sodipodi="http://sodipodi.sourceforge.net/DTD/sodipodi-0.dtd"
   xmlns:inkscape="http://www.inkscape.org/namespaces/inkscape"
   id="svg2584"
   width="960px"
   version="1.1"
   height="960px"
   sodipodi:docname="chicago95_tmp_file.svg"
   inkscape:version="0.92.4 (5da689c313, 2019-01-14)">
  <sodipodi:namedview
     pagecolor="#ffffff"
     bordercolor="#666666"
     borderopacity="1"
     objecttolerance="10"
     gridtolerance="10"
     guidetolerance="10"
     inkscape:pageopacity="0"
     inkscape:pageshadow="2"
     inkscape:window-width="640"
     inkscape:window-height="480"
     id="namedview1295"
     showgrid="false"
     inkscape:zoom="0.24583333"
     inkscape:cx="479.99995"
     inkscape:cy="479.99995"
     inkscape:window-x="0"
     inkscape:window-y="0"
     inkscape:window-maximized="0"
     inkscape:current-layer="svg2584" />
  <metadata
     id="metadata2588">
    <rdf:RDF>
      <cc:Work
         rdf:about="">
        <dc:format>image/svg+xml</dc:format>
        <dc:type
           rdf:resource="http://purl.org/dc/dcmitype/StillImage" />
      </cc:Work>
    </rdf:RDF>
  </metadata>
  <defs
     id="defs2" />
  <path
     style="fill:#ffff00"
     d="M 560 60 L 560 80 L 540 80 L 540 100 L 560 100 L 580 100 L 580 80 L 580 60 L 560 60 z "
     id="rect26" />
  <path
     style="fill:#808000"
     d="M 600 60 L 600 80 L 600 100 L 580 100 L 580 120 L 600 120 L 620 120 L 620 100 L 620 80 L 620 60 L 600 60 z "
     id="rect40" />
  <path
     style="fill:#c0c0c0"
     d="M 580 60 L 580 80 L 580 100 L 600 100 L 600 80 L 600 60 L 580 60 z M 40 400 L 40 420 L 60 420 L 80 420 L 100 420 L 120 420 L 140 420 L 160 420 L 180 420 L 200 420 L 220 420 L 240 420 L 260 420 L 280 420 L 300 420 L 320 420 L 340 420 L 360 420 L 380 420 L 400 420 L 420 420 L 440 420 L 460 420 L 480 420 L 500 420 L 520 420 L 540 420 L 560 420 L 580 420 L 600 420 L 620 420 L 640 420 L 660 420 L 680 420 L 700 420 L 720 420 L 740 420 L 760 420 L 780 420 L 800 420 L 820 420 L 840 420 L 860 420 L 880 420 L 900 420 L 900 400 L 880 400 L 860 400 L 840 400 L 820 400 L 800 400 L 780 400 L 760 400 L 740 400 L 720 400 L 700 400 L 680 400 L 660 400 L 640 400 L 620 400 L 600 400 L 580 400 L 560 400 L 540 400 L 520 400 L 500 400 L 480 400 L 460 400 L 440 400 L 420 400 L 400 400 L 380 400 L 360 400 L 340 400 L 320 400 L 300 400 L 280 400 L 260 400 L 240 400 L 220 400 L 200 400 L 180 400 L 160 400 L 140 400 L 120 400 L 100 400 L 80 400 L 60 400 L 40 400 z M 120 440 L 120 460 L 120 480 L 100 480 L 80 480 L 60 480 L 60 500 L 80 500 L 100 500 L 120 500 L 140 500 L 140 480 L 140 460 L 140 440 L 120 440 z M 240 440 L 240 460 L 240 480 L 220 480 L 200 480 L 180 480 L 180 500 L 200 500 L 220 500 L 240 500 L 260 500 L 260 480 L 260 460 L 260 440 L 240 440 z M 360 440 L 360 460 L 360 480 L 340 480 L 320 480 L 300 480 L 300 500 L 320 500 L 340 500 L 360 500 L 380 500 L 380 480 L 380 460 L 380 440 L 360 440 z M 480 440 L 480 460 L 480 480 L 460 480 L 440 480 L 420 480 L 420 500 L 440 500 L 460 500 L 480 500 L 500 500 L 500 480 L 500 460 L 500 440 L 480 440 z M 600 440 L 600 460 L 600 480 L 580 480 L 560 480 L 540 480 L 540 500 L 560 500 L 580 500 L 600 500 L 620 500 L 620 480 L 620 460 L 620 440 L 600 440 z M 720 440 L 720 460 L 720 480 L 700 480 L 680 480 L 660 480 L 660 500 L 680 500 L 700 500 L 720 500 L 740 500 L 740 480 L 740 460 L 740 440 L 720 440 z M 840 440 L 840 460 L 840 480 L 820 480 L 800 480 L 780 480 L 780 500 L 800 500 L 820 500 L 840 500 L 860 500 L 860 480 L 860 460 L 860 440 L 840 440 z M 180 540 L 180 560 L 180 580 L 160 580 L 140 580 L 120 580 L 100 580 L 80 580 L 60 580 L 60 600 L 80 600 L 100 600 L 120 600 L 140 600 L 160 600 L 180 600 L 200 600 L 200 580 L 200 560 L 200 540 L 180 540 z M 300 540 L 300 560 L 300 580 L 280 580 L 260 580 L 240 580 L 240 600 L 260 600 L 280 600 L 300 600 L 320 600 L 320 580 L 320 560 L 320 540 L 300 540 z M 420 540 L 420 560 L 420 580 L 400 580 L 380 580 L 360 580 L 360 600 L 380 600 L 400 600 L 420 600 L 440 600 L 440 580 L 440 560 L 440 540 L 420 540 z M 540 540 L 540 560 L 540 580 L 520 580 L 500 580 L 480 580 L 480 600 L 500 600 L 520 600 L 540 600 L 560 600 L 560 580 L 560 560 L 560 540 L 540 540 z M 660 540 L 660 560 L 660 580 L 640 580 L 620 580 L 600 580 L 600 600 L 620 600 L 640 600 L 660 600 L 680 600 L 680 580 L 680 560 L 680 540 L 660 540 z M 840 540 L 840 560 L 840 580 L 820 580 L 800 580 L 780 580 L 760 580 L 740 580 L 720 580 L 720 600 L 740 600 L 760 600 L 780 600 L 800 600 L 820 600 L 840 600 L 860 600 L 860 580 L 860 560 L 860 540 L 840 540 z M 120 640 L 120 660 L 120 680 L 100 680 L 80 680 L 60 680 L 60 700 L 80 700 L 100 700 L 120 700 L 140 700 L 140 680 L 140 660 L 140 640 L 120 640 z M 240 640 L 240 660 L 240 680 L 220 680 L 200 680 L 180 680 L 180 700 L 200 700 L 220 700 L 240 700 L 260 700 L 260 680 L 260 660 L 260 640 L 240 640 z M 360 640 L 360 660 L 360 680 L 340 680 L 320 680 L 300 680 L 300 700 L 320 700 L 340 700 L 360 700 L 380 700 L 380 680 L 380 660 L 380 640 L 360 640 z M 480 640 L 480 660 L 480 680 L 460 680 L 440 680 L 420 680 L 420 700 L 440 700 L 460 700 L 480 700 L 500 700 L 500 680 L 500 660 L 500 640 L 480 640 z M 600 640 L 600 660 L 600 680 L 580 680 L 560 680 L 540 680 L 540 700 L 560 700 L 580 700 L 600 700 L 620 700 L 620 680 L 620 660 L 620 640 L 600 640 z M 720 640 L 720 660 L 720 680 L 700 680 L 680 680 L 660 680 L 660 700 L 680 700 L 700 700 L 720 700 L 740 700 L 740 680 L 740 660 L 740 640 L 720 640 z M 840 640 L 840 660 L 840 680 L 820 680 L 800 680 L 780 680 L 780 700 L 800 700 L 820 700 L 840 700 L 860 700 L 860 680 L 860 660 L 860 640 L 840 640 z M 120 740 L 120 760 L 120 780 L 100 780 L 80 780 L 60 780 L 60 800 L 80 800 L 100 800 L 120 800 L 140 800 L 140 780 L 140 760 L 140 740 L 120 740 z M 220 740 L 220 760 L 220 780 L 200 780 L 180 780 L 180 800 L 200 800 L 220 800 L 240 800 L 240 780 L 240 760 L 240 740 L 220 740 z M 620 740 L 620 760 L 620 780 L 600 780 L 580 780 L 560 780 L 540 780 L 520 780 L 500 780 L 480 780 L 460 780 L 440 780 L 420 780 L 400 780 L 380 780 L 360 780 L 340 780 L 320 780 L 300 780 L 280 780 L 280 800 L 300 800 L 320 800 L 340 800 L 360 800 L 380 800 L 400 800 L 420 800 L 440 800 L 460 800 L 480 800 L 500 800 L 520 800 L 540 800 L 560 800 L 580 800 L 600 800 L 620 800 L 640 800 L 640 780 L 640 760 L 640 740 L 620 740 z M 720 740 L 720 760 L 720 780 L 700 780 L 680 780 L 680 800 L 700 800 L 720 800 L 740 800 L 740 780 L 740 760 L 740 740 L 720 740 z M 840 740 L 840 760 L 840 780 L 820 780 L 800 780 L 780 780 L 780 800 L 800 800 L 820 800 L 840 800 L 860 800 L 860 780 L 860 760 L 860 740 L 840 740 z "
     id="rect2202" />
  <path
     style="fill:#ffffff"
     d="M 580 40 L 580 60 L 600 60 L 600 40 L 580 40 z M 560 100 L 560 120 L 580 120 L 580 100 L 560 100 z M 20 400 L 20 420 L 20 440 L 20 460 L 20 480 L 20 500 L 20 520 L 20 540 L 20 560 L 20 580 L 20 600 L 20 620 L 20 640 L 20 660 L 20 680 L 20 700 L 20 720 L 20 740 L 20 760 L 20 780 L 20 800 L 20 820 L 20 840 L 20 860 L 40 860 L 40 840 L 40 820 L 40 800 L 40 780 L 40 760 L 40 740 L 40 720 L 40 700 L 40 680 L 40 660 L 40 640 L 40 620 L 40 600 L 40 580 L 40 560 L 40 540 L 40 520 L 40 500 L 40 480 L 40 460 L 40 440 L 40 420 L 40 400 L 20 400 z M 900 400 L 900 420 L 920 420 L 920 400 L 900 400 z M 60 440 L 60 460 L 60 480 L 80 480 L 100 480 L 120 480 L 120 460 L 120 440 L 100 440 L 80 440 L 60 440 z M 180 440 L 180 460 L 180 480 L 200 480 L 220 480 L 240 480 L 240 460 L 240 440 L 220 440 L 200 440 L 180 440 z M 300 440 L 300 460 L 300 480 L 320 480 L 340 480 L 360 480 L 360 460 L 360 440 L 340 440 L 320 440 L 300 440 z M 420 440 L 420 460 L 420 480 L 440 480 L 460 480 L 480 480 L 480 460 L 480 440 L 460 440 L 440 440 L 420 440 z M 540 440 L 540 460 L 540 480 L 560 480 L 580 480 L 600 480 L 600 460 L 600 440 L 580 440 L 560 440 L 540 440 z M 660 440 L 660 460 L 660 480 L 680 480 L 700 480 L 720 480 L 720 460 L 720 440 L 700 440 L 680 440 L 660 440 z M 780 440 L 780 460 L 780 480 L 800 480 L 820 480 L 840 480 L 840 460 L 840 440 L 820 440 L 800 440 L 780 440 z M 60 540 L 60 560 L 60 580 L 80 580 L 100 580 L 120 580 L 140 580 L 160 580 L 180 580 L 180 560 L 180 540 L 160 540 L 140 540 L 120 540 L 100 540 L 80 540 L 60 540 z M 240 540 L 240 560 L 240 580 L 260 580 L 280 580 L 300 580 L 300 560 L 300 540 L 280 540 L 260 540 L 240 540 z M 360 540 L 360 560 L 360 580 L 380 580 L 400 580 L 420 580 L 420 560 L 420 540 L 400 540 L 380 540 L 360 540 z M 480 540 L 480 560 L 480 580 L 500 580 L 520 580 L 540 580 L 540 560 L 540 540 L 520 540 L 500 540 L 480 540 z M 600 540 L 600 560 L 600 580 L 620 580 L 640 580 L 660 580 L 660 560 L 660 540 L 640 540 L 620 540 L 600 540 z M 720 540 L 720 560 L 720 580 L 740 580 L 760 580 L 780 580 L 800 580 L 820 580 L 840 580 L 840 560 L 840 540 L 820 540 L 800 540 L 780 540 L 760 540 L 740 540 L 720 540 z M 60 640 L 60 660 L 60 680 L 80 680 L 100 680 L 120 680 L 120 660 L 120 640 L 100 640 L 80 640 L 60 640 z M 180 640 L 180 660 L 180 680 L 200 680 L 220 680 L 240 680 L 240 660 L 240 640 L 220 640 L 200 640 L 180 640 z M 300 640 L 300 660 L 300 680 L 320 680 L 340 680 L 360 680 L 360 660 L 360 640 L 340 640 L 320 640 L 300 640 z M 420 640 L 420 660 L 420 680 L 440 680 L 460 680 L 480 680 L 480 660 L 480 640 L 460 640 L 440 640 L 420 640 z M 540 640 L 540 660 L 540 680 L 560 680 L 580 680 L 600 680 L 600 660 L 600 640 L 580 640 L 560 640 L 540 640 z M 660 640 L 660 660 L 660 680 L 680 680 L 700 680 L 720 680 L 720 660 L 720 640 L 700 640 L 680 640 L 660 640 z M 780 640 L 780 660 L 780 680 L 800 680 L 820 680 L 840 680 L 840 660 L 840 640 L 820 640 L 800 640 L 780 640 z M 60 740 L 60 760 L 60 780 L 80 780 L 100 780 L 120 780 L 120 760 L 120 740 L 100 740 L 80 740 L 60 740 z M 180 740 L 180 760 L 180 780 L 200 780 L 220 780 L 220 760 L 220 740 L 200 740 L 180 740 z M 280 740 L 280 760 L 280 780 L 300 780 L 320 780 L 340 780 L 360 780 L 380 780 L 400 780 L 420 780 L 440 780 L 460 780 L 480 780 L 500 780 L 520 780 L 540 780 L 560 780 L 580 780 L 600 780 L 620 780 L 620 760 L 620 740 L 600 740 L 580 740 L 560 740 L 540 740 L 520 740 L 500 740 L 480 740 L 460 740 L 440 740 L 420 740 L 400 740 L 380 740 L 360 740 L 340 740 L 320 740 L 300 740 L 280 740 z M 680 740 L 680 760 L 680 780 L 700 780 L 720 780 L 720 760 L 720 740 L 700 740 L 680 740 z M 780 740 L 780 760 L 780 780 L 800 780 L 820 780 L 840 780 L 840 760 L 840 740 L 820 740 L 800 740 L 780 740 z "
     id="rect2402" />
  <path
     style="fill:#808080"
     d="M 580 20 L 580 40 L 600 40 L 600 20 L 580 20 z M 600 40 L 600 60 L 620 60 L 620 40 L 600 40 z M 580 40 L 560 40 L 560 60 L 580 60 L 580 40 z M 560 60 L 540 60 L 540 80 L 560 80 L 560 60 z M 540 80 L 520 80 L 520 100 L 540 100 L 540 80 z M 540 100 L 540 120 L 560 120 L 560 100 L 540 100 z M 640 120 L 640 140 L 660 140 L 660 120 L 640 120 z M 660 140 L 660 160 L 680 160 L 700 160 L 720 160 L 740 160 L 740 140 L 720 140 L 700 140 L 680 140 L 660 140 z M 740 180 L 740 200 L 740 220 L 740 240 L 740 260 L 760 260 L 760 240 L 760 220 L 760 200 L 760 180 L 740 180 z M 740 260 L 720 260 L 700 260 L 680 260 L 660 260 L 640 260 L 640 280 L 660 280 L 680 280 L 700 280 L 720 280 L 740 280 L 740 260 z M 640 260 L 640 240 L 620 240 L 600 240 L 600 260 L 620 260 L 640 260 z M 600 260 L 580 260 L 560 260 L 560 280 L 580 280 L 600 280 L 600 260 z M 560 260 L 560 240 L 540 240 L 520 240 L 520 260 L 540 260 L 560 260 z M 520 260 L 500 260 L 480 260 L 480 280 L 500 280 L 520 280 L 520 260 z M 480 260 L 480 240 L 460 240 L 440 240 L 440 260 L 460 260 L 480 260 z M 440 260 L 420 260 L 400 260 L 400 280 L 420 280 L 440 280 L 440 260 z M 400 260 L 400 240 L 380 240 L 360 240 L 360 260 L 380 260 L 400 260 z M 360 260 L 340 260 L 320 260 L 320 280 L 340 280 L 360 280 L 360 260 z M 320 260 L 320 240 L 300 240 L 280 240 L 280 260 L 300 260 L 320 260 z M 280 260 L 260 260 L 240 260 L 240 280 L 260 280 L 280 280 L 280 260 z M 240 260 L 240 240 L 220 240 L 200 240 L 200 260 L 220 260 L 240 260 z M 200 260 L 180 260 L 160 260 L 160 280 L 180 280 L 200 280 L 200 260 z M 160 260 L 160 240 L 140 240 L 120 240 L 120 260 L 140 260 L 160 260 z M 120 260 L 100 260 L 80 260 L 80 280 L 100 280 L 120 280 L 120 260 z M 80 280 L 60 280 L 60 300 L 80 300 L 80 280 z M 60 300 L 40 300 L 40 320 L 40 340 L 40 360 L 40 380 L 20 380 L 20 400 L 40 400 L 60 400 L 80 400 L 100 400 L 120 400 L 140 400 L 160 400 L 180 400 L 200 400 L 220 400 L 240 400 L 260 400 L 280 400 L 300 400 L 320 400 L 340 400 L 360 400 L 380 400 L 400 400 L 420 400 L 440 400 L 460 400 L 480 400 L 500 400 L 520 400 L 540 400 L 560 400 L 580 400 L 600 400 L 620 400 L 640 400 L 660 400 L 680 400 L 700 400 L 720 400 L 740 400 L 760 400 L 780 400 L 800 400 L 820 400 L 840 400 L 860 400 L 880 400 L 900 400 L 920 400 L 920 380 L 900 380 L 880 380 L 860 380 L 840 380 L 820 380 L 800 380 L 780 380 L 760 380 L 740 380 L 720 380 L 700 380 L 680 380 L 660 380 L 640 380 L 620 380 L 600 380 L 580 380 L 560 380 L 540 380 L 520 380 L 500 380 L 480 380 L 460 380 L 440 380 L 420 380 L 400 380 L 380 380 L 360 380 L 340 380 L 320 380 L 300 380 L 280 380 L 260 380 L 240 380 L 220 380 L 200 380 L 180 380 L 160 380 L 140 380 L 120 380 L 100 380 L 80 380 L 60 380 L 60 360 L 60 340 L 60 320 L 60 300 z M 20 400 L 0 400 L 0 420 L 0 440 L 0 460 L 0 480 L 0 500 L 0 520 L 0 540 L 0 560 L 0 580 L 0 600 L 0 620 L 0 640 L 0 660 L 0 680 L 0 700 L 0 720 L 0 740 L 0 760 L 0 780 L 0 800 L 0 820 L 0 840 L 0 860 L 20 860 L 20 840 L 20 820 L 20 800 L 20 780 L 20 760 L 20 740 L 20 720 L 20 700 L 20 680 L 20 660 L 20 640 L 20 620 L 20 600 L 20 580 L 20 560 L 20 540 L 20 520 L 20 500 L 20 480 L 20 460 L 20 440 L 20 420 L 20 400 z M 40 420 L 40 440 L 40 460 L 40 480 L 40 500 L 40 520 L 40 540 L 40 560 L 40 580 L 40 600 L 40 620 L 40 640 L 40 660 L 40 680 L 40 700 L 40 720 L 40 740 L 40 760 L 40 780 L 40 800 L 40 820 L 40 840 L 40 860 L 60 860 L 80 860 L 100 860 L 120 860 L 140 860 L 160 860 L 180 860 L 200 860 L 220 860 L 240 860 L 260 860 L 280 860 L 300 860 L 320 860 L 340 860 L 360 860 L 380 860 L 400 860 L 420 860 L 440 860 L 460 860 L 480 860 L 500 860 L 520 860 L 540 860 L 560 860 L 580 860 L 600 860 L 620 860 L 640 860 L 660 860 L 680 860 L 700 860 L 720 860 L 740 860 L 760 860 L 780 860 L 800 860 L 820 860 L 840 860 L 860 860 L 880 860 L 900 860 L 920 860 L 920 840 L 920 820 L 920 800 L 920 780 L 920 760 L 920 740 L 920 720 L 920 700 L 920 680 L 920 660 L 920 640 L 920 620 L 920 600 L 920 580 L 920 560 L 920 540 L 920 520 L 920 500 L 920 480 L 920 460 L 920 440 L 920 420 L 900 420 L 880 420 L 860 420 L 840 420 L 820 420 L 800 420 L 780 420 L 760 420 L 740 420 L 720 420 L 700 420 L 680 420 L 660 420 L 640 420 L 620 420 L 600 420 L 580 420 L 560 420 L 540 420 L 520 420 L 500 420 L 480 420 L 460 420 L 440 420 L 420 420 L 400 420 L 380 420 L 360 420 L 340 420 L 320 420 L 300 420 L 280 420 L 260 420 L 240 420 L 220 420 L 200 420 L 180 420 L 160 420 L 140 420 L 120 420 L 100 420 L 80 420 L 60 420 L 40 420 z M 60 440 L 80 440 L 100 440 L 120 440 L 140 440 L 140 460 L 140 480 L 140 500 L 120 500 L 100 500 L 80 500 L 60 500 L 60 480 L 60 460 L 60 440 z M 160 440 L 180 440 L 200 440 L 220 440 L 240 440 L 260 440 L 260 460 L 260 480 L 260 500 L 240 500 L 220 500 L 200 500 L 180 500 L 180 520 L 200 520 L 220 520 L 240 520 L 260 520 L 280 520 L 280 500 L 280 480 L 280 460 L 280 440 L 300 440 L 320 440 L 340 440 L 360 440 L 380 440 L 380 460 L 380 480 L 380 500 L 360 500 L 340 500 L 320 500 L 300 500 L 300 520 L 320 520 L 340 520 L 360 520 L 380 520 L 400 520 L 400 500 L 400 480 L 400 460 L 400 440 L 420 440 L 440 440 L 460 440 L 480 440 L 500 440 L 500 460 L 500 480 L 500 500 L 480 500 L 460 500 L 440 500 L 420 500 L 420 520 L 440 520 L 460 520 L 480 520 L 500 520 L 520 520 L 520 500 L 520 480 L 520 460 L 520 440 L 540 440 L 560 440 L 580 440 L 600 440 L 620 440 L 620 460 L 620 480 L 620 500 L 600 500 L 580 500 L 560 500 L 540 500 L 540 520 L 560 520 L 580 520 L 600 520 L 620 520 L 640 520 L 640 500 L 640 480 L 640 460 L 640 440 L 660 440 L 680 440 L 700 440 L 720 440 L 740 440 L 740 460 L 740 480 L 740 500 L 720 500 L 700 500 L 680 500 L 660 500 L 660 520 L 680 520 L 700 520 L 720 520 L 740 520 L 760 520 L 760 500 L 760 480 L 760 460 L 760 440 L 780 440 L 800 440 L 820 440 L 840 440 L 860 440 L 860 460 L 860 480 L 860 500 L 840 500 L 820 500 L 800 500 L 780 500 L 780 520 L 800 520 L 820 520 L 840 520 L 860 520 L 880 520 L 880 500 L 880 480 L 880 460 L 880 440 L 900 440 L 900 460 L 900 480 L 900 500 L 900 520 L 900 540 L 900 560 L 900 580 L 900 600 L 900 620 L 900 640 L 900 660 L 900 680 L 900 700 L 900 720 L 900 740 L 900 760 L 900 780 L 900 800 L 900 820 L 900 840 L 880 840 L 860 840 L 840 840 L 820 840 L 800 840 L 780 840 L 760 840 L 740 840 L 720 840 L 700 840 L 680 840 L 660 840 L 640 840 L 620 840 L 600 840 L 580 840 L 560 840 L 540 840 L 520 840 L 500 840 L 480 840 L 460 840 L 440 840 L 420 840 L 400 840 L 380 840 L 360 840 L 340 840 L 320 840 L 300 840 L 280 840 L 260 840 L 240 840 L 220 840 L 200 840 L 180 840 L 160 840 L 140 840 L 120 840 L 100 840 L 80 840 L 60 840 L 60 820 L 80 820 L 100 820 L 120 820 L 140 820 L 160 820 L 160 800 L 160 780 L 160 760 L 160 740 L 140 740 L 140 760 L 140 780 L 140 800 L 120 800 L 100 800 L 80 800 L 60 800 L 60 780 L 60 760 L 60 740 L 60 720 L 80 720 L 100 720 L 120 720 L 140 720 L 160 720 L 160 700 L 160 680 L 160 660 L 160 640 L 140 640 L 140 660 L 140 680 L 140 700 L 120 700 L 100 700 L 80 700 L 60 700 L 60 680 L 60 660 L 60 640 L 60 620 L 80 620 L 100 620 L 120 620 L 140 620 L 160 620 L 180 620 L 200 620 L 220 620 L 220 600 L 220 580 L 220 560 L 220 540 L 200 540 L 200 560 L 200 580 L 200 600 L 180 600 L 160 600 L 140 600 L 120 600 L 100 600 L 80 600 L 60 600 L 60 580 L 60 560 L 60 540 L 60 520 L 80 520 L 100 520 L 120 520 L 140 520 L 160 520 L 160 500 L 160 480 L 160 460 L 160 440 z M 320 540 L 320 560 L 320 580 L 320 600 L 300 600 L 280 600 L 260 600 L 240 600 L 240 620 L 260 620 L 280 620 L 300 620 L 320 620 L 340 620 L 340 600 L 340 580 L 340 560 L 340 540 L 320 540 z M 440 540 L 440 560 L 440 580 L 440 600 L 420 600 L 400 600 L 380 600 L 360 600 L 360 620 L 380 620 L 400 620 L 420 620 L 440 620 L 460 620 L 460 600 L 460 580 L 460 560 L 460 540 L 440 540 z M 560 540 L 560 560 L 560 580 L 560 600 L 540 600 L 520 600 L 500 600 L 480 600 L 480 620 L 500 620 L 520 620 L 540 620 L 560 620 L 580 620 L 580 600 L 580 580 L 580 560 L 580 540 L 560 540 z M 680 540 L 680 560 L 680 580 L 680 600 L 660 600 L 640 600 L 620 600 L 600 600 L 600 620 L 620 620 L 640 620 L 660 620 L 680 620 L 700 620 L 700 600 L 700 580 L 700 560 L 700 540 L 680 540 z M 860 540 L 860 560 L 860 580 L 860 600 L 840 600 L 820 600 L 800 600 L 780 600 L 760 600 L 740 600 L 720 600 L 720 620 L 740 620 L 760 620 L 780 620 L 800 620 L 820 620 L 840 620 L 860 620 L 880 620 L 880 600 L 880 580 L 880 560 L 880 540 L 860 540 z M 260 640 L 260 660 L 260 680 L 260 700 L 240 700 L 220 700 L 200 700 L 180 700 L 180 720 L 200 720 L 220 720 L 240 720 L 260 720 L 280 720 L 280 700 L 280 680 L 280 660 L 280 640 L 260 640 z M 380 640 L 380 660 L 380 680 L 380 700 L 360 700 L 340 700 L 320 700 L 300 700 L 300 720 L 320 720 L 340 720 L 360 720 L 380 720 L 400 720 L 400 700 L 400 680 L 400 660 L 400 640 L 380 640 z M 500 640 L 500 660 L 500 680 L 500 700 L 480 700 L 460 700 L 440 700 L 420 700 L 420 720 L 440 720 L 460 720 L 480 720 L 500 720 L 520 720 L 520 700 L 520 680 L 520 660 L 520 640 L 500 640 z M 620 640 L 620 660 L 620 680 L 620 700 L 600 700 L 580 700 L 560 700 L 540 700 L 540 720 L 560 720 L 580 720 L 600 720 L 620 720 L 640 720 L 640 700 L 640 680 L 640 660 L 640 640 L 620 640 z M 740 640 L 740 660 L 740 680 L 740 700 L 720 700 L 700 700 L 680 700 L 660 700 L 660 720 L 680 720 L 700 720 L 720 720 L 740 720 L 760 720 L 760 700 L 760 680 L 760 660 L 760 640 L 740 640 z M 860 640 L 860 660 L 860 680 L 860 700 L 840 700 L 820 700 L 800 700 L 780 700 L 780 720 L 800 720 L 820 720 L 840 720 L 860 720 L 880 720 L 880 700 L 880 680 L 880 660 L 880 640 L 860 640 z M 240 740 L 240 760 L 240 780 L 240 800 L 220 800 L 200 800 L 180 800 L 180 820 L 200 820 L 220 820 L 240 820 L 260 820 L 260 800 L 260 780 L 260 760 L 260 740 L 240 740 z M 640 740 L 640 760 L 640 780 L 640 800 L 620 800 L 600 800 L 580 800 L 560 800 L 540 800 L 520 800 L 500 800 L 480 800 L 460 800 L 440 800 L 420 800 L 400 800 L 380 800 L 360 800 L 340 800 L 320 800 L 300 800 L 280 800 L 280 820 L 300 820 L 320 820 L 340 820 L 360 820 L 380 820 L 400 820 L 420 820 L 440 820 L 460 820 L 480 820 L 500 820 L 520 820 L 540 820 L 560 820 L 580 820 L 600 820 L 620 820 L 640 820 L 660 820 L 660 800 L 660 780 L 660 760 L 660 740 L 640 740 z M 740 740 L 740 760 L 740 780 L 740 800 L 720 800 L 700 800 L 680 800 L 680 820 L 700 820 L 720 820 L 740 820 L 760 820 L 760 800 L 760 780 L 760 760 L 760 740 L 740 740 z M 860 740 L 860 760 L 860 780 L 860 800 L 840 800 L 820 800 L 800 800 L 780 800 L 780 820 L 800 820 L 820 820 L 840 820 L 860 820 L 880 820 L 880 800 L 880 780 L 880 760 L 880 740 L 860 740 z "
     id="rect2490" />
  <path
     style="fill:#000000"
     d="M 620 60 L 620 80 L 620 100 L 620 120 L 600 120 L 580 120 L 560 120 L 560 140 L 580 140 L 600 140 L 620 140 L 640 140 L 640 120 L 640 100 L 640 80 L 640 60 L 620 60 z M 640 140 L 640 160 L 660 160 L 660 140 L 640 140 z M 660 160 L 660 180 L 680 180 L 700 180 L 720 180 L 740 180 L 760 180 L 760 160 L 740 160 L 720 160 L 700 160 L 680 160 L 660 160 z M 760 180 L 760 200 L 760 220 L 760 240 L 760 260 L 780 260 L 780 240 L 780 220 L 780 200 L 780 180 L 760 180 z M 760 260 L 740 260 L 740 280 L 760 280 L 760 260 z M 740 280 L 720 280 L 700 280 L 680 280 L 660 280 L 640 280 L 640 300 L 660 300 L 680 300 L 700 300 L 720 300 L 740 300 L 740 280 z M 640 280 L 640 260 L 620 260 L 600 260 L 600 280 L 620 280 L 640 280 z M 600 280 L 580 280 L 560 280 L 560 300 L 580 300 L 600 300 L 600 280 z M 560 280 L 560 260 L 540 260 L 520 260 L 520 280 L 540 280 L 560 280 z M 520 280 L 500 280 L 480 280 L 480 300 L 500 300 L 520 300 L 520 280 z M 480 280 L 480 260 L 460 260 L 440 260 L 440 280 L 460 280 L 480 280 z M 440 280 L 420 280 L 400 280 L 400 300 L 420 300 L 440 300 L 440 280 z M 400 280 L 400 260 L 380 260 L 360 260 L 360 280 L 380 280 L 400 280 z M 360 280 L 340 280 L 320 280 L 320 300 L 340 300 L 360 300 L 360 280 z M 320 280 L 320 260 L 300 260 L 280 260 L 280 280 L 300 280 L 320 280 z M 280 280 L 260 280 L 240 280 L 240 300 L 260 300 L 280 300 L 280 280 z M 240 280 L 240 260 L 220 260 L 200 260 L 200 280 L 220 280 L 240 280 z M 200 280 L 180 280 L 160 280 L 160 300 L 180 300 L 200 300 L 200 280 z M 160 280 L 160 260 L 140 260 L 120 260 L 120 280 L 140 280 L 160 280 z M 120 280 L 100 280 L 80 280 L 80 300 L 100 300 L 120 300 L 120 280 z M 80 300 L 60 300 L 60 320 L 60 340 L 60 360 L 60 380 L 80 380 L 80 360 L 80 340 L 80 320 L 80 300 z M 920 400 L 920 420 L 920 440 L 920 460 L 920 480 L 920 500 L 920 520 L 920 540 L 920 560 L 920 580 L 920 600 L 920 620 L 920 640 L 920 660 L 920 680 L 920 700 L 920 720 L 920 740 L 920 760 L 920 780 L 920 800 L 920 820 L 920 840 L 920 860 L 940 860 L 940 840 L 940 820 L 940 800 L 940 780 L 940 760 L 940 740 L 940 720 L 940 700 L 940 680 L 940 660 L 940 640 L 940 620 L 940 600 L 940 580 L 940 560 L 940 540 L 940 520 L 940 500 L 940 480 L 940 460 L 940 440 L 940 420 L 940 400 L 920 400 z M 920 860 L 900 860 L 880 860 L 860 860 L 840 860 L 820 860 L 800 860 L 780 860 L 760 860 L 740 860 L 720 860 L 700 860 L 680 860 L 660 860 L 640 860 L 620 860 L 600 860 L 580 860 L 560 860 L 540 860 L 520 860 L 500 860 L 480 860 L 460 860 L 440 860 L 420 860 L 400 860 L 380 860 L 360 860 L 340 860 L 320 860 L 300 860 L 280 860 L 260 860 L 240 860 L 220 860 L 200 860 L 180 860 L 160 860 L 140 860 L 120 860 L 100 860 L 80 860 L 60 860 L 40 860 L 20 860 L 20 880 L 40 880 L 60 880 L 80 880 L 100 880 L 120 880 L 140 880 L 160 880 L 180 880 L 200 880 L 220 880 L 240 880 L 260 880 L 280 880 L 300 880 L 320 880 L 340 880 L 360 880 L 380 880 L 400 880 L 420 880 L 440 880 L 460 880 L 480 880 L 500 880 L 520 880 L 540 880 L 560 880 L 580 880 L 600 880 L 620 880 L 640 880 L 660 880 L 680 880 L 700 880 L 720 880 L 740 880 L 760 880 L 780 880 L 800 880 L 820 880 L 840 880 L 860 880 L 880 880 L 900 880 L 920 880 L 920 860 z M 160 440 L 160 460 L 160 480 L 160 500 L 160 520 L 140 520 L 120 520 L 100 520 L 80 520 L 60 520 L 60 540 L 80 540 L 100 540 L 120 540 L 140 540 L 160 540 L 180 540 L 200 540 L 220 540 L 220 560 L 220 580 L 220 600 L 220 620 L 200 620 L 180 620 L 160 620 L 140 620 L 120 620 L 100 620 L 80 620 L 60 620 L 60 640 L 80 640 L 100 640 L 120 640 L 140 640 L 160 640 L 160 660 L 160 680 L 160 700 L 160 720 L 140 720 L 120 720 L 100 720 L 80 720 L 60 720 L 60 740 L 80 740 L 100 740 L 120 740 L 140 740 L 160 740 L 160 760 L 160 780 L 160 800 L 160 820 L 140 820 L 120 820 L 100 820 L 80 820 L 60 820 L 60 840 L 80 840 L 100 840 L 120 840 L 140 840 L 160 840 L 180 840 L 200 840 L 220 840 L 240 840 L 260 840 L 280 840 L 300 840 L 320 840 L 340 840 L 360 840 L 380 840 L 400 840 L 420 840 L 440 840 L 460 840 L 480 840 L 500 840 L 520 840 L 540 840 L 560 840 L 580 840 L 600 840 L 620 840 L 640 840 L 660 840 L 680 840 L 700 840 L 720 840 L 740 840 L 760 840 L 780 840 L 800 840 L 820 840 L 840 840 L 860 840 L 880 840 L 900 840 L 900 820 L 900 800 L 900 780 L 900 760 L 900 740 L 900 720 L 900 700 L 900 680 L 900 660 L 900 640 L 900 620 L 900 600 L 900 580 L 900 560 L 900 540 L 900 520 L 900 500 L 900 480 L 900 460 L 900 440 L 880 440 L 880 460 L 880 480 L 880 500 L 880 520 L 860 520 L 840 520 L 820 520 L 800 520 L 780 520 L 780 500 L 780 480 L 780 460 L 780 440 L 760 440 L 760 460 L 760 480 L 760 500 L 760 520 L 740 520 L 720 520 L 700 520 L 680 520 L 660 520 L 660 500 L 660 480 L 660 460 L 660 440 L 640 440 L 640 460 L 640 480 L 640 500 L 640 520 L 620 520 L 600 520 L 580 520 L 560 520 L 540 520 L 540 500 L 540 480 L 540 460 L 540 440 L 520 440 L 520 460 L 520 480 L 520 500 L 520 520 L 500 520 L 480 520 L 460 520 L 440 520 L 420 520 L 420 500 L 420 480 L 420 460 L 420 440 L 400 440 L 400 460 L 400 480 L 400 500 L 400 520 L 380 520 L 360 520 L 340 520 L 320 520 L 300 520 L 300 500 L 300 480 L 300 460 L 300 440 L 280 440 L 280 460 L 280 480 L 280 500 L 280 520 L 260 520 L 240 520 L 220 520 L 200 520 L 180 520 L 180 500 L 180 480 L 180 460 L 180 440 L 160 440 z M 240 540 L 260 540 L 280 540 L 300 540 L 320 540 L 340 540 L 340 560 L 340 580 L 340 600 L 340 620 L 320 620 L 300 620 L 280 620 L 260 620 L 240 620 L 240 600 L 240 580 L 240 560 L 240 540 z M 360 540 L 380 540 L 400 540 L 420 540 L 440 540 L 460 540 L 460 560 L 460 580 L 460 600 L 460 620 L 440 620 L 420 620 L 400 620 L 380 620 L 360 620 L 360 600 L 360 580 L 360 560 L 360 540 z M 480 540 L 500 540 L 520 540 L 540 540 L 560 540 L 580 540 L 580 560 L 580 580 L 580 600 L 580 620 L 560 620 L 540 620 L 520 620 L 500 620 L 480 620 L 480 600 L 480 580 L 480 560 L 480 540 z M 600 540 L 620 540 L 640 540 L 660 540 L 680 540 L 700 540 L 700 560 L 700 580 L 700 600 L 700 620 L 680 620 L 660 620 L 640 620 L 620 620 L 600 620 L 600 600 L 600 580 L 600 560 L 600 540 z M 720 540 L 740 540 L 760 540 L 780 540 L 800 540 L 820 540 L 840 540 L 860 540 L 880 540 L 880 560 L 880 580 L 880 600 L 880 620 L 860 620 L 840 620 L 820 620 L 800 620 L 780 620 L 760 620 L 740 620 L 720 620 L 720 600 L 720 580 L 720 560 L 720 540 z M 180 640 L 200 640 L 220 640 L 240 640 L 260 640 L 280 640 L 280 660 L 280 680 L 280 700 L 280 720 L 260 720 L 240 720 L 220 720 L 200 720 L 180 720 L 180 700 L 180 680 L 180 660 L 180 640 z M 300 640 L 320 640 L 340 640 L 360 640 L 380 640 L 400 640 L 400 660 L 400 680 L 400 700 L 400 720 L 380 720 L 360 720 L 340 720 L 320 720 L 300 720 L 300 700 L 300 680 L 300 660 L 300 640 z M 420 640 L 440 640 L 460 640 L 480 640 L 500 640 L 520 640 L 520 660 L 520 680 L 520 700 L 520 720 L 500 720 L 480 720 L 460 720 L 440 720 L 420 720 L 420 700 L 420 680 L 420 660 L 420 640 z M 540 640 L 560 640 L 580 640 L 600 640 L 620 640 L 640 640 L 640 660 L 640 680 L 640 700 L 640 720 L 620 720 L 600 720 L 580 720 L 560 720 L 540 720 L 540 700 L 540 680 L 540 660 L 540 640 z M 660 640 L 680 640 L 700 640 L 720 640 L 740 640 L 760 640 L 760 660 L 760 680 L 760 700 L 760 720 L 740 720 L 720 720 L 700 720 L 680 720 L 660 720 L 660 700 L 660 680 L 660 660 L 660 640 z M 780 640 L 800 640 L 820 640 L 840 640 L 860 640 L 880 640 L 880 660 L 880 680 L 880 700 L 880 720 L 860 720 L 840 720 L 820 720 L 800 720 L 780 720 L 780 700 L 780 680 L 780 660 L 780 640 z M 180 740 L 200 740 L 220 740 L 240 740 L 260 740 L 260 760 L 260 780 L 260 800 L 260 820 L 240 820 L 220 820 L 200 820 L 180 820 L 180 800 L 180 780 L 180 760 L 180 740 z M 280 740 L 300 740 L 320 740 L 340 740 L 360 740 L 380 740 L 400 740 L 420 740 L 440 740 L 460 740 L 480 740 L 500 740 L 520 740 L 540 740 L 560 740 L 580 740 L 600 740 L 620 740 L 640 740 L 660 740 L 660 760 L 660 780 L 660 800 L 660 820 L 640 820 L 620 820 L 600 820 L 580 820 L 560 820 L 540 820 L 520 820 L 500 820 L 480 820 L 460 820 L 440 820 L 420 820 L 400 820 L 380 820 L 360 820 L 340 820 L 320 820 L 300 820 L 280 820 L 280 800 L 280 780 L 280 760 L 280 740 z M 680 740 L 700 740 L 720 740 L 740 740 L 760 740 L 760 760 L 760 780 L 760 800 L 760 820 L 740 820 L 720 820 L 700 820 L 680 820 L 680 800 L 680 780 L 680 760 L 680 740 z M 780 740 L 800 740 L 820 740 L 840 740 L 860 740 L 880 740 L 880 760 L 880 780 L 880 800 L 880 820 L 860 820 L 840 820 L 820 820 L 800 820 L 780 820 L 780 800 L 780 780 L 780 760 L 780 740 z "
     id="rect2582" />
</svg>
