<?xml version="1.0" encoding="UTF-8" standalone="no"?>
<svg
   xmlns:dc="http://purl.org/dc/elements/1.1/"
   xmlns:cc="http://creativecommons.org/ns#"
   xmlns:rdf="http://www.w3.org/1999/02/22-rdf-syntax-ns#"
   xmlns:svg="http://www.w3.org/2000/svg"
   xmlns="http://www.w3.org/2000/svg"
   height="960px"
   version="1.1"
   width="960px"
   id="svg4228">
  <metadata
     id="metadata4232">
    <rdf:RDF>
      <cc:Work
         rdf:about="">
        <dc:format>image/svg+xml</dc:format>
        <dc:type
           rdf:resource="http://purl.org/dc/dcmitype/StillImage" />
      </cc:Work>
    </rdf:RDF>
  </metadata>
  <defs
     id="defs2" />
  <path
     id="rect398"
     d="M 100 100 L 100 120 L 100 140 L 120 140 L 120 120 L 140 120 L 140 100 L 120 100 L 100 100 z "
     style="fill:#ff0000" />
  <path
     id="rect404"
     d="M 160 100 L 160 120 L 160 140 L 180 140 L 180 120 L 200 120 L 200 100 L 180 100 L 160 100 z "
     style="fill:#ffff00" />
  <path
     id="rect498"
     d="M 140 100 L 140 120 L 120 120 L 120 140 L 100 140 L 100 160 L 120 160 L 140 160 L 160 160 L 160 140 L 160 120 L 160 100 L 140 100 z "
     style="fill:#800000" />
  <path
     id="rect504"
     d="M 200 100 L 200 120 L 180 120 L 180 140 L 160 140 L 160 160 L 180 160 L 200 160 L 220 160 L 220 140 L 220 120 L 220 100 L 200 100 z "
     style="fill:#808000" />
  <path
     id="rect686"
     d="M 100 160 L 100 180 L 100 200 L 120 200 L 120 180 L 140 180 L 140 160 L 120 160 L 100 160 z "
     style="fill:#00ffff" />
  <path
     id="rect692"
     d="M 160 160 L 160 180 L 160 200 L 180 200 L 180 180 L 200 180 L 200 160 L 180 160 L 160 160 z "
     style="fill:#00ff00" />
  <path
     id="rect792"
     d="M 200 160 L 200 180 L 180 180 L 180 200 L 160 200 L 160 220 L 180 220 L 200 220 L 220 220 L 220 200 L 220 180 L 220 160 L 200 160 z "
     style="fill:#008000" />
  <path
     id="rect834"
     d="M 60 100 L 60 120 L 60 140 L 60 160 L 60 180 L 60 200 L 60 220 L 80 220 L 100 220 L 100 200 L 100 180 L 100 160 L 100 140 L 100 120 L 100 100 L 80 100 L 60 100 z M 220 100 L 220 120 L 220 140 L 220 160 L 220 180 L 220 200 L 220 220 L 240 220 L 260 220 L 280 220 L 300 220 L 320 220 L 340 220 L 360 220 L 380 220 L 400 220 L 420 220 L 440 220 L 460 220 L 480 220 L 500 220 L 520 220 L 540 220 L 560 220 L 580 220 L 600 220 L 620 220 L 640 220 L 640 200 L 640 180 L 640 160 L 640 140 L 640 120 L 660 120 L 680 120 L 700 120 L 720 120 L 740 120 L 760 120 L 780 120 L 800 120 L 820 120 L 840 120 L 860 120 L 880 120 L 900 120 L 920 120 L 920 100 L 900 100 L 880 100 L 860 100 L 840 100 L 820 100 L 800 100 L 780 100 L 760 100 L 740 100 L 720 100 L 700 100 L 680 100 L 660 100 L 640 100 L 620 100 L 600 100 L 580 100 L 560 100 L 540 100 L 520 100 L 500 100 L 480 100 L 460 100 L 440 100 L 420 100 L 400 100 L 380 100 L 360 100 L 340 100 L 320 100 L 300 100 L 280 100 L 260 100 L 240 100 L 220 100 z "
     style="fill:#000080" />
  <path
     id="rect3702"
     d="M 140 160 L 140 180 L 120 180 L 120 200 L 100 200 L 100 220 L 120 220 L 140 220 L 160 220 L 160 200 L 160 180 L 160 160 L 140 160 z M 460 300 L 460 320 L 440 320 L 440 340 L 420 340 L 420 360 L 420 380 L 420 400 L 420 420 L 420 440 L 420 460 L 420 480 L 420 500 L 420 520 L 400 520 L 380 520 L 360 520 L 360 540 L 340 540 L 340 560 L 340 580 L 320 580 L 320 600 L 300 600 L 300 620 L 300 640 L 300 660 L 300 680 L 320 680 L 320 700 L 320 720 L 340 720 L 340 740 L 340 760 L 360 760 L 360 780 L 380 780 L 400 780 L 400 800 L 420 800 L 440 800 L 440 820 L 460 820 L 480 820 L 500 820 L 520 820 L 520 800 L 540 800 L 540 780 L 560 780 L 560 760 L 580 760 L 580 740 L 600 740 L 600 720 L 600 700 L 580 700 L 560 700 L 560 720 L 540 720 L 540 740 L 520 740 L 520 760 L 500 760 L 480 760 L 460 760 L 440 760 L 440 740 L 420 740 L 420 720 L 400 720 L 400 700 L 380 700 L 380 680 L 360 680 L 360 660 L 360 640 L 360 620 L 360 600 L 380 600 L 380 580 L 400 580 L 400 560 L 420 560 L 420 540 L 440 540 L 460 540 L 460 560 L 460 580 L 460 600 L 460 620 L 460 640 L 480 640 L 500 640 L 520 640 L 540 640 L 560 640 L 580 640 L 600 640 L 600 660 L 620 660 L 620 680 L 640 680 L 640 700 L 640 720 L 660 720 L 660 740 L 660 760 L 660 780 L 680 780 L 700 780 L 720 780 L 720 760 L 740 760 L 740 740 L 760 740 L 760 720 L 780 720 L 780 700 L 760 700 L 740 700 L 720 700 L 720 720 L 700 720 L 700 700 L 700 680 L 680 680 L 680 660 L 680 640 L 660 640 L 660 620 L 660 600 L 640 600 L 640 580 L 620 580 L 600 580 L 580 580 L 560 580 L 540 580 L 520 580 L 520 560 L 520 540 L 540 540 L 560 540 L 580 540 L 600 540 L 600 520 L 600 500 L 600 480 L 580 480 L 560 480 L 540 480 L 520 480 L 500 480 L 480 480 L 480 460 L 480 440 L 480 420 L 500 420 L 500 400 L 520 400 L 520 380 L 540 380 L 540 360 L 540 340 L 520 340 L 520 320 L 500 320 L 500 300 L 480 300 L 460 300 z "
     style="fill:#0000ff" />
  <path
     id="rect3834"
     d="M 80 260 L 80 280 L 80 300 L 80 320 L 80 340 L 80 360 L 80 380 L 80 400 L 80 420 L 80 440 L 80 460 L 80 480 L 80 500 L 80 520 L 80 540 L 80 560 L 80 580 L 80 600 L 80 620 L 80 640 L 80 660 L 80 680 L 80 700 L 80 720 L 80 740 L 80 760 L 80 780 L 80 800 L 80 820 L 80 840 L 100 840 L 120 840 L 140 840 L 160 840 L 180 840 L 200 840 L 220 840 L 240 840 L 260 840 L 280 840 L 300 840 L 320 840 L 340 840 L 360 840 L 380 840 L 400 840 L 420 840 L 440 840 L 460 840 L 480 840 L 500 840 L 520 840 L 540 840 L 560 840 L 580 840 L 600 840 L 620 840 L 640 840 L 660 840 L 680 840 L 700 840 L 720 840 L 740 840 L 760 840 L 780 840 L 800 840 L 820 840 L 840 840 L 860 840 L 880 840 L 880 820 L 880 800 L 880 780 L 880 760 L 880 740 L 880 720 L 880 700 L 880 680 L 880 660 L 880 640 L 880 620 L 880 600 L 880 580 L 880 560 L 880 540 L 880 520 L 880 500 L 880 480 L 880 460 L 880 440 L 880 420 L 880 400 L 880 380 L 880 360 L 880 340 L 880 320 L 880 300 L 880 280 L 880 260 L 860 260 L 840 260 L 820 260 L 800 260 L 780 260 L 760 260 L 740 260 L 720 260 L 700 260 L 680 260 L 660 260 L 640 260 L 620 260 L 600 260 L 580 260 L 560 260 L 540 260 L 520 260 L 500 260 L 480 260 L 460 260 L 440 260 L 420 260 L 400 260 L 380 260 L 360 260 L 340 260 L 320 260 L 300 260 L 280 260 L 260 260 L 240 260 L 220 260 L 200 260 L 180 260 L 160 260 L 140 260 L 120 260 L 100 260 L 80 260 z M 440 300 L 460 300 L 480 300 L 500 300 L 520 300 L 520 320 L 540 320 L 540 340 L 540 360 L 540 380 L 540 400 L 520 400 L 520 420 L 500 420 L 480 420 L 480 440 L 480 460 L 480 480 L 500 480 L 520 480 L 540 480 L 560 480 L 580 480 L 600 480 L 600 500 L 600 520 L 600 540 L 580 540 L 560 540 L 540 540 L 520 540 L 520 560 L 520 580 L 540 580 L 560 580 L 580 580 L 600 580 L 620 580 L 640 580 L 660 580 L 660 600 L 660 620 L 680 620 L 680 640 L 680 660 L 700 660 L 700 680 L 720 680 L 720 700 L 740 700 L 760 700 L 780 700 L 780 720 L 780 740 L 760 740 L 760 760 L 740 760 L 740 780 L 720 780 L 700 780 L 680 780 L 660 780 L 660 760 L 660 740 L 660 720 L 640 720 L 640 700 L 640 680 L 620 680 L 620 660 L 600 660 L 600 640 L 580 640 L 560 640 L 540 640 L 520 640 L 500 640 L 480 640 L 460 640 L 460 620 L 460 600 L 460 580 L 460 560 L 440 560 L 420 560 L 420 580 L 400 580 L 400 600 L 380 600 L 380 620 L 360 620 L 360 640 L 360 660 L 380 660 L 380 680 L 400 680 L 400 700 L 420 700 L 420 720 L 440 720 L 440 740 L 460 740 L 460 760 L 480 760 L 500 760 L 520 760 L 520 740 L 520 720 L 540 720 L 540 700 L 560 700 L 580 700 L 600 700 L 600 720 L 620 720 L 620 740 L 600 740 L 600 760 L 580 760 L 580 780 L 560 780 L 540 780 L 540 800 L 520 800 L 520 820 L 500 820 L 480 820 L 460 820 L 440 820 L 440 800 L 420 800 L 400 800 L 400 780 L 380 780 L 360 780 L 360 760 L 340 760 L 340 740 L 320 740 L 320 720 L 320 700 L 300 700 L 300 680 L 300 660 L 300 640 L 300 620 L 300 600 L 300 580 L 300 560 L 320 560 L 320 540 L 340 540 L 340 520 L 360 520 L 380 520 L 380 500 L 400 500 L 400 480 L 420 480 L 420 460 L 420 440 L 420 420 L 420 400 L 420 380 L 420 360 L 420 340 L 420 320 L 440 320 L 440 300 z "
     style="fill:#ffffff" />
  <path
     id="rect4030"
     d="M 20 60 L 20 80 L 20 100 L 20 120 L 20 140 L 20 160 L 20 180 L 20 200 L 20 220 L 20 240 L 20 260 L 20 280 L 20 300 L 20 320 L 20 340 L 20 360 L 20 380 L 20 400 L 20 420 L 20 440 L 20 460 L 20 480 L 20 500 L 20 520 L 20 540 L 20 560 L 20 580 L 20 600 L 20 620 L 20 640 L 20 660 L 20 680 L 20 700 L 20 720 L 20 740 L 20 760 L 20 780 L 20 800 L 20 820 L 20 840 L 20 860 L 20 880 L 40 880 L 60 880 L 80 880 L 100 880 L 120 880 L 140 880 L 160 880 L 180 880 L 200 880 L 220 880 L 240 880 L 260 880 L 280 880 L 300 880 L 320 880 L 340 880 L 360 880 L 380 880 L 400 880 L 420 880 L 440 880 L 460 880 L 480 880 L 500 880 L 520 880 L 540 880 L 560 880 L 580 880 L 600 880 L 620 880 L 640 880 L 660 880 L 680 880 L 700 880 L 720 880 L 740 880 L 760 880 L 780 880 L 800 880 L 820 880 L 840 880 L 860 880 L 880 880 L 900 880 L 920 880 L 920 860 L 920 840 L 920 820 L 920 800 L 920 780 L 920 760 L 920 740 L 920 720 L 920 700 L 920 680 L 920 660 L 920 640 L 920 620 L 920 600 L 920 580 L 920 560 L 920 540 L 920 520 L 920 500 L 920 480 L 920 460 L 920 440 L 920 420 L 920 400 L 920 380 L 920 360 L 920 340 L 920 320 L 920 300 L 920 280 L 920 260 L 920 240 L 920 220 L 900 220 L 880 220 L 860 220 L 840 220 L 820 220 L 800 220 L 780 220 L 760 220 L 740 220 L 720 220 L 700 220 L 680 220 L 660 220 L 640 220 L 620 220 L 600 220 L 580 220 L 560 220 L 540 220 L 520 220 L 500 220 L 480 220 L 460 220 L 440 220 L 420 220 L 400 220 L 380 220 L 360 220 L 340 220 L 320 220 L 300 220 L 280 220 L 260 220 L 240 220 L 220 220 L 200 220 L 180 220 L 160 220 L 140 220 L 120 220 L 100 220 L 80 220 L 60 220 L 60 200 L 60 180 L 60 160 L 60 140 L 60 120 L 60 100 L 80 100 L 100 100 L 120 100 L 140 100 L 160 100 L 180 100 L 200 100 L 220 100 L 240 100 L 260 100 L 280 100 L 300 100 L 320 100 L 340 100 L 360 100 L 380 100 L 400 100 L 420 100 L 440 100 L 460 100 L 480 100 L 500 100 L 520 100 L 540 100 L 560 100 L 580 100 L 600 100 L 620 100 L 640 100 L 660 100 L 680 100 L 700 100 L 720 100 L 740 100 L 760 100 L 780 100 L 800 100 L 820 100 L 840 100 L 860 100 L 880 100 L 900 100 L 920 100 L 920 80 L 920 60 L 900 60 L 880 60 L 860 60 L 840 60 L 820 60 L 800 60 L 780 60 L 760 60 L 740 60 L 720 60 L 700 60 L 680 60 L 660 60 L 640 60 L 620 60 L 600 60 L 580 60 L 560 60 L 540 60 L 520 60 L 500 60 L 480 60 L 460 60 L 440 60 L 420 60 L 400 60 L 380 60 L 360 60 L 340 60 L 320 60 L 300 60 L 280 60 L 260 60 L 240 60 L 220 60 L 200 60 L 180 60 L 160 60 L 140 60 L 120 60 L 100 60 L 80 60 L 60 60 L 40 60 L 20 60 z M 640 120 L 640 140 L 640 160 L 640 180 L 660 180 L 680 180 L 700 180 L 700 160 L 700 140 L 700 120 L 680 120 L 660 120 L 640 120 z M 740 120 L 740 140 L 740 160 L 740 180 L 760 180 L 780 180 L 800 180 L 800 160 L 800 140 L 800 120 L 780 120 L 760 120 L 740 120 z M 840 120 L 840 140 L 840 160 L 840 180 L 860 180 L 880 180 L 900 180 L 900 160 L 900 140 L 900 120 L 880 120 L 860 120 L 840 120 z M 60 240 L 80 240 L 100 240 L 120 240 L 140 240 L 160 240 L 180 240 L 200 240 L 220 240 L 240 240 L 260 240 L 280 240 L 300 240 L 320 240 L 340 240 L 360 240 L 380 240 L 400 240 L 420 240 L 440 240 L 460 240 L 480 240 L 500 240 L 520 240 L 540 240 L 560 240 L 580 240 L 600 240 L 620 240 L 640 240 L 660 240 L 680 240 L 700 240 L 720 240 L 740 240 L 760 240 L 780 240 L 800 240 L 820 240 L 840 240 L 860 240 L 880 240 L 880 260 L 880 280 L 880 300 L 880 320 L 880 340 L 880 360 L 880 380 L 880 400 L 880 420 L 880 440 L 880 460 L 880 480 L 880 500 L 880 520 L 880 540 L 880 560 L 880 580 L 880 600 L 880 620 L 880 640 L 880 660 L 880 680 L 880 700 L 880 720 L 880 740 L 880 760 L 880 780 L 880 800 L 880 820 L 880 840 L 860 840 L 840 840 L 820 840 L 800 840 L 780 840 L 760 840 L 740 840 L 720 840 L 700 840 L 680 840 L 660 840 L 640 840 L 620 840 L 600 840 L 580 840 L 560 840 L 540 840 L 520 840 L 500 840 L 480 840 L 460 840 L 440 840 L 420 840 L 400 840 L 380 840 L 360 840 L 340 840 L 320 840 L 300 840 L 280 840 L 260 840 L 240 840 L 220 840 L 200 840 L 180 840 L 160 840 L 140 840 L 120 840 L 100 840 L 80 840 L 60 840 L 60 820 L 60 800 L 60 780 L 60 760 L 60 740 L 60 720 L 60 700 L 60 680 L 60 660 L 60 640 L 60 620 L 60 600 L 60 580 L 60 560 L 60 540 L 60 520 L 60 500 L 60 480 L 60 460 L 60 440 L 60 420 L 60 400 L 60 380 L 60 360 L 60 340 L 60 320 L 60 300 L 60 280 L 60 260 L 60 240 z M 440 300 L 440 320 L 460 320 L 460 300 L 440 300 z M 440 320 L 420 320 L 420 340 L 440 340 L 440 320 z M 500 300 L 500 320 L 520 320 L 520 300 L 500 300 z M 520 320 L 520 340 L 540 340 L 540 320 L 520 320 z M 520 380 L 520 400 L 540 400 L 540 380 L 520 380 z M 520 400 L 500 400 L 500 420 L 520 420 L 520 400 z M 400 480 L 400 500 L 420 500 L 420 480 L 400 480 z M 400 500 L 380 500 L 380 520 L 400 520 L 400 500 z M 340 520 L 340 540 L 360 540 L 360 520 L 340 520 z M 340 540 L 320 540 L 320 560 L 300 560 L 300 580 L 300 600 L 320 600 L 320 580 L 340 580 L 340 560 L 340 540 z M 420 540 L 420 560 L 440 560 L 460 560 L 460 540 L 440 540 L 420 540 z M 420 560 L 400 560 L 400 580 L 420 580 L 420 560 z M 400 580 L 380 580 L 380 600 L 400 600 L 400 580 z M 380 600 L 360 600 L 360 620 L 380 620 L 380 600 z M 360 660 L 360 680 L 380 680 L 380 660 L 360 660 z M 380 680 L 380 700 L 400 700 L 400 680 L 380 680 z M 400 700 L 400 720 L 420 720 L 420 700 L 400 700 z M 420 720 L 420 740 L 440 740 L 440 720 L 420 720 z M 440 740 L 440 760 L 460 760 L 460 740 L 440 740 z M 540 700 L 540 720 L 560 720 L 560 700 L 540 700 z M 540 720 L 520 720 L 520 740 L 540 740 L 540 720 z "
     style="fill:#c0c0c0" />
  <path
     id="rect4128"
     d="M 0 40 L 0 60 L 0 80 L 0 100 L 0 120 L 0 140 L 0 160 L 0 180 L 0 200 L 0 220 L 0 240 L 0 260 L 0 280 L 0 300 L 0 320 L 0 340 L 0 360 L 0 380 L 0 400 L 0 420 L 0 440 L 0 460 L 0 480 L 0 500 L 0 520 L 0 540 L 0 560 L 0 580 L 0 600 L 0 620 L 0 640 L 0 660 L 0 680 L 0 700 L 0 720 L 0 740 L 0 760 L 0 780 L 0 800 L 0 820 L 0 840 L 0 860 L 0 880 L 0 900 L 20 900 L 40 900 L 60 900 L 80 900 L 100 900 L 120 900 L 140 900 L 160 900 L 180 900 L 200 900 L 220 900 L 240 900 L 260 900 L 280 900 L 300 900 L 320 900 L 340 900 L 360 900 L 380 900 L 400 900 L 420 900 L 440 900 L 460 900 L 480 900 L 500 900 L 520 900 L 540 900 L 560 900 L 580 900 L 600 900 L 620 900 L 640 900 L 660 900 L 680 900 L 700 900 L 720 900 L 740 900 L 760 900 L 780 900 L 800 900 L 820 900 L 840 900 L 860 900 L 880 900 L 900 900 L 920 900 L 940 900 L 940 880 L 940 860 L 940 840 L 940 820 L 940 800 L 940 780 L 940 760 L 940 740 L 940 720 L 940 700 L 940 680 L 940 660 L 940 640 L 940 620 L 940 600 L 940 580 L 940 560 L 940 540 L 940 520 L 940 500 L 940 480 L 940 460 L 940 440 L 940 420 L 940 400 L 940 380 L 940 360 L 940 340 L 940 320 L 940 300 L 940 280 L 940 260 L 940 240 L 940 220 L 940 200 L 940 180 L 940 160 L 940 140 L 940 120 L 940 100 L 940 80 L 940 60 L 940 40 L 920 40 L 900 40 L 880 40 L 860 40 L 840 40 L 820 40 L 800 40 L 780 40 L 760 40 L 740 40 L 720 40 L 700 40 L 680 40 L 660 40 L 640 40 L 620 40 L 600 40 L 580 40 L 560 40 L 540 40 L 520 40 L 500 40 L 480 40 L 460 40 L 440 40 L 420 40 L 400 40 L 380 40 L 360 40 L 340 40 L 320 40 L 300 40 L 280 40 L 260 40 L 240 40 L 220 40 L 200 40 L 180 40 L 160 40 L 140 40 L 120 40 L 100 40 L 80 40 L 60 40 L 40 40 L 20 40 L 0 40 z M 20 60 L 40 60 L 60 60 L 80 60 L 100 60 L 120 60 L 140 60 L 160 60 L 180 60 L 200 60 L 220 60 L 240 60 L 260 60 L 280 60 L 300 60 L 320 60 L 340 60 L 360 60 L 380 60 L 400 60 L 420 60 L 440 60 L 460 60 L 480 60 L 500 60 L 520 60 L 540 60 L 560 60 L 580 60 L 600 60 L 620 60 L 640 60 L 660 60 L 680 60 L 700 60 L 720 60 L 740 60 L 760 60 L 780 60 L 800 60 L 820 60 L 840 60 L 860 60 L 880 60 L 900 60 L 920 60 L 920 80 L 920 100 L 920 120 L 920 140 L 920 160 L 920 180 L 920 200 L 920 220 L 920 240 L 920 260 L 920 280 L 920 300 L 920 320 L 920 340 L 920 360 L 920 380 L 920 400 L 920 420 L 920 440 L 920 460 L 920 480 L 920 500 L 920 520 L 920 540 L 920 560 L 920 580 L 920 600 L 920 620 L 920 640 L 920 660 L 920 680 L 920 700 L 920 720 L 920 740 L 920 760 L 920 780 L 920 800 L 920 820 L 920 840 L 920 860 L 920 880 L 900 880 L 880 880 L 860 880 L 840 880 L 820 880 L 800 880 L 780 880 L 760 880 L 740 880 L 720 880 L 700 880 L 680 880 L 660 880 L 640 880 L 620 880 L 600 880 L 580 880 L 560 880 L 540 880 L 520 880 L 500 880 L 480 880 L 460 880 L 440 880 L 420 880 L 400 880 L 380 880 L 360 880 L 340 880 L 320 880 L 300 880 L 280 880 L 260 880 L 240 880 L 220 880 L 200 880 L 180 880 L 160 880 L 140 880 L 120 880 L 100 880 L 80 880 L 60 880 L 40 880 L 20 880 L 20 860 L 20 840 L 20 820 L 20 800 L 20 780 L 20 760 L 20 740 L 20 720 L 20 700 L 20 680 L 20 660 L 20 640 L 20 620 L 20 600 L 20 580 L 20 560 L 20 540 L 20 520 L 20 500 L 20 480 L 20 460 L 20 440 L 20 420 L 20 400 L 20 380 L 20 360 L 20 340 L 20 320 L 20 300 L 20 280 L 20 260 L 20 240 L 20 220 L 20 200 L 20 180 L 20 160 L 20 140 L 20 120 L 20 100 L 20 80 L 20 60 z M 60 240 L 60 260 L 60 280 L 60 300 L 60 320 L 60 340 L 60 360 L 60 380 L 60 400 L 60 420 L 60 440 L 60 460 L 60 480 L 60 500 L 60 520 L 60 540 L 60 560 L 60 580 L 60 600 L 60 620 L 60 640 L 60 660 L 60 680 L 60 700 L 60 720 L 60 740 L 60 760 L 60 780 L 60 800 L 60 820 L 60 840 L 80 840 L 80 820 L 80 800 L 80 780 L 80 760 L 80 740 L 80 720 L 80 700 L 80 680 L 80 660 L 80 640 L 80 620 L 80 600 L 80 580 L 80 560 L 80 540 L 80 520 L 80 500 L 80 480 L 80 460 L 80 440 L 80 420 L 80 400 L 80 380 L 80 360 L 80 340 L 80 320 L 80 300 L 80 280 L 80 260 L 100 260 L 120 260 L 140 260 L 160 260 L 180 260 L 200 260 L 220 260 L 240 260 L 260 260 L 280 260 L 300 260 L 320 260 L 340 260 L 360 260 L 380 260 L 400 260 L 420 260 L 440 260 L 460 260 L 480 260 L 500 260 L 520 260 L 540 260 L 560 260 L 580 260 L 600 260 L 620 260 L 640 260 L 660 260 L 680 260 L 700 260 L 720 260 L 740 260 L 760 260 L 780 260 L 800 260 L 820 260 L 840 260 L 860 260 L 880 260 L 880 240 L 860 240 L 840 240 L 820 240 L 800 240 L 780 240 L 760 240 L 740 240 L 720 240 L 700 240 L 680 240 L 660 240 L 640 240 L 620 240 L 600 240 L 580 240 L 560 240 L 540 240 L 520 240 L 500 240 L 480 240 L 460 240 L 440 240 L 420 240 L 400 240 L 380 240 L 360 240 L 340 240 L 320 240 L 300 240 L 280 240 L 260 240 L 240 240 L 220 240 L 200 240 L 180 240 L 160 240 L 140 240 L 120 240 L 100 240 L 80 240 L 60 240 z M 400 500 L 400 520 L 420 520 L 420 500 L 400 500 z M 640 580 L 640 600 L 660 600 L 660 580 L 640 580 z M 660 620 L 660 640 L 680 640 L 680 620 L 660 620 z M 680 660 L 680 680 L 700 680 L 700 660 L 680 660 z M 700 680 L 700 700 L 700 720 L 720 720 L 720 700 L 720 680 L 700 680 z M 300 680 L 300 700 L 320 700 L 320 680 L 300 680 z M 320 720 L 320 740 L 340 740 L 340 720 L 320 720 z M 600 720 L 600 740 L 620 740 L 620 720 L 600 720 z M 600 740 L 580 740 L 580 760 L 600 760 L 600 740 z M 580 760 L 560 760 L 560 780 L 580 780 L 580 760 z M 760 720 L 760 740 L 780 740 L 780 720 L 760 720 z M 760 740 L 740 740 L 740 760 L 760 760 L 760 740 z M 740 760 L 720 760 L 720 780 L 740 780 L 740 760 z "
     style="fill:#808080" />
  <path
     id="rect4226"
     d="M 940 40 L 940 60 L 940 80 L 940 100 L 940 120 L 940 140 L 940 160 L 940 180 L 940 200 L 940 220 L 940 240 L 940 260 L 940 280 L 940 300 L 940 320 L 940 340 L 940 360 L 940 380 L 940 400 L 940 420 L 940 440 L 940 460 L 940 480 L 940 500 L 940 520 L 940 540 L 940 560 L 940 580 L 940 600 L 940 620 L 940 640 L 940 660 L 940 680 L 940 700 L 940 720 L 940 740 L 940 760 L 940 780 L 940 800 L 940 820 L 940 840 L 940 860 L 940 880 L 940 900 L 920 900 L 900 900 L 880 900 L 860 900 L 840 900 L 820 900 L 800 900 L 780 900 L 760 900 L 740 900 L 720 900 L 700 900 L 680 900 L 660 900 L 640 900 L 620 900 L 600 900 L 580 900 L 560 900 L 540 900 L 520 900 L 500 900 L 480 900 L 460 900 L 440 900 L 420 900 L 400 900 L 380 900 L 360 900 L 340 900 L 320 900 L 300 900 L 280 900 L 260 900 L 240 900 L 220 900 L 200 900 L 180 900 L 160 900 L 140 900 L 120 900 L 100 900 L 80 900 L 60 900 L 40 900 L 20 900 L 0 900 L 0 920 L 20 920 L 40 920 L 60 920 L 80 920 L 100 920 L 120 920 L 140 920 L 160 920 L 180 920 L 200 920 L 220 920 L 240 920 L 260 920 L 280 920 L 300 920 L 320 920 L 340 920 L 360 920 L 380 920 L 400 920 L 420 920 L 440 920 L 460 920 L 480 920 L 500 920 L 520 920 L 540 920 L 560 920 L 580 920 L 600 920 L 620 920 L 640 920 L 660 920 L 680 920 L 700 920 L 720 920 L 740 920 L 760 920 L 780 920 L 800 920 L 820 920 L 840 920 L 860 920 L 880 920 L 900 920 L 920 920 L 940 920 L 960 920 L 960 900 L 960 880 L 960 860 L 960 840 L 960 820 L 960 800 L 960 780 L 960 760 L 960 740 L 960 720 L 960 700 L 960 680 L 960 660 L 960 640 L 960 620 L 960 600 L 960 580 L 960 560 L 960 540 L 960 520 L 960 500 L 960 480 L 960 460 L 960 440 L 960 420 L 960 400 L 960 380 L 960 360 L 960 340 L 960 320 L 960 300 L 960 280 L 960 260 L 960 240 L 960 220 L 960 200 L 960 180 L 960 160 L 960 140 L 960 120 L 960 100 L 960 80 L 960 60 L 960 40 L 940 40 z M 700 120 L 700 140 L 700 160 L 700 180 L 680 180 L 660 180 L 640 180 L 640 200 L 640 220 L 660 220 L 680 220 L 700 220 L 720 220 L 740 220 L 760 220 L 780 220 L 800 220 L 820 220 L 840 220 L 860 220 L 880 220 L 900 220 L 920 220 L 920 200 L 920 180 L 920 160 L 920 140 L 920 120 L 900 120 L 900 140 L 900 160 L 900 180 L 880 180 L 860 180 L 840 180 L 840 160 L 840 140 L 840 120 L 820 120 L 800 120 L 800 140 L 800 160 L 800 180 L 780 180 L 760 180 L 740 180 L 740 160 L 740 140 L 740 120 L 720 120 L 700 120 z "
     style="fill:#000000" />
</svg>
