<?xml version="1.0" encoding="UTF-8" standalone="no"?>
<svg
   xmlns:dc="http://purl.org/dc/elements/1.1/"
   xmlns:cc="http://creativecommons.org/ns#"
   xmlns:rdf="http://www.w3.org/1999/02/22-rdf-syntax-ns#"
   xmlns:svg="http://www.w3.org/2000/svg"
   xmlns="http://www.w3.org/2000/svg"
   height="960px"
   version="1.1"
   width="960px"
   id="svg3622">
  <metadata
     id="metadata3626">
    <rdf:RDF>
      <cc:Work
         rdf:about="">
        <dc:format>image/svg+xml</dc:format>
        <dc:type
           rdf:resource="http://purl.org/dc/dcmitype/StillImage" />
      </cc:Work>
    </rdf:RDF>
  </metadata>
  <defs
     id="defs2" />
  <path
     id="rect714"
     d="M 300 160 L 300 180 L 300 200 L 300 220 L 320 220 L 320 200 L 320 180 L 320 160 L 300 160 z "
     style="fill:#00ffff" />
  <path
     id="rect860"
     d="M 320 240 L 320 260 L 340 260 L 340 240 L 320 240 z "
     style="fill:#000080" />
  <path
     id="rect884"
     d="M 340 240 L 340 260 L 360 260 L 380 260 L 400 260 L 420 260 L 440 260 L 460 260 L 480 260 L 500 260 L 520 260 L 540 260 L 560 260 L 580 260 L 580 240 L 560 240 L 540 240 L 520 240 L 500 240 L 480 240 L 460 240 L 440 240 L 420 240 L 400 240 L 380 240 L 360 240 L 340 240 z "
     style="fill:#0000ff" />
  <path
     id="rect1690"
     d="M 280 140 L 280 160 L 280 180 L 280 200 L 280 220 L 280 240 L 280 260 L 280 280 L 280 300 L 280 320 L 280 340 L 280 360 L 280 380 L 280 400 L 280 420 L 280 440 L 280 460 L 280 480 L 300 480 L 320 480 L 340 480 L 360 480 L 380 480 L 400 480 L 420 480 L 440 480 L 460 480 L 480 480 L 500 480 L 520 480 L 540 480 L 560 480 L 580 480 L 600 480 L 620 480 L 640 480 L 660 480 L 680 480 L 700 480 L 720 480 L 720 460 L 720 440 L 720 420 L 720 400 L 720 380 L 720 360 L 720 340 L 720 320 L 720 300 L 720 280 L 720 260 L 720 240 L 720 220 L 720 200 L 720 180 L 720 160 L 720 140 L 700 140 L 680 140 L 660 140 L 640 140 L 620 140 L 600 140 L 580 140 L 560 140 L 540 140 L 520 140 L 500 140 L 480 140 L 460 140 L 440 140 L 420 140 L 400 140 L 380 140 L 360 140 L 340 140 L 320 140 L 300 140 L 280 140 z M 300 160 L 320 160 L 320 180 L 320 200 L 320 220 L 300 220 L 300 200 L 300 180 L 300 160 z M 380 180 L 400 180 L 420 180 L 440 180 L 460 180 L 480 180 L 500 180 L 520 180 L 540 180 L 560 180 L 580 180 L 600 180 L 620 180 L 640 180 L 660 180 L 660 200 L 660 220 L 660 240 L 660 260 L 660 280 L 660 300 L 660 320 L 660 340 L 660 360 L 640 360 L 620 360 L 600 360 L 600 380 L 600 400 L 600 420 L 580 420 L 560 420 L 540 420 L 520 420 L 500 420 L 480 420 L 460 420 L 440 420 L 420 420 L 400 420 L 380 420 L 360 420 L 340 420 L 320 420 L 320 400 L 320 380 L 320 360 L 320 340 L 320 320 L 320 300 L 320 280 L 320 260 L 320 240 L 340 240 L 360 240 L 380 240 L 380 220 L 380 200 L 380 180 z "
     style="fill:#008080" />
  <path
     id="rect2502"
     d="M 200 680 L 200 700 L 220 700 L 240 700 L 240 680 L 220 680 L 200 680 z "
     style="fill:#00ff00" />
  <path
     id="rect2586"
     d="M 240 680 L 240 700 L 220 700 L 200 700 L 200 720 L 220 720 L 240 720 L 260 720 L 260 700 L 260 680 L 240 680 z "
     style="fill:#008000" />
  <path
     id="rect3396"
     d="M 220 60 L 220 80 L 240 80 L 260 80 L 280 80 L 300 80 L 320 80 L 340 80 L 360 80 L 380 80 L 400 80 L 420 80 L 440 80 L 460 80 L 480 80 L 500 80 L 520 80 L 540 80 L 560 80 L 580 80 L 600 80 L 620 80 L 640 80 L 660 80 L 680 80 L 700 80 L 720 80 L 740 80 L 760 80 L 780 80 L 800 80 L 800 60 L 780 60 L 760 60 L 740 60 L 720 60 L 700 60 L 680 60 L 660 60 L 640 60 L 620 60 L 600 60 L 580 60 L 560 60 L 540 60 L 520 60 L 500 60 L 480 60 L 460 60 L 440 60 L 420 60 L 400 60 L 380 60 L 360 60 L 340 60 L 320 60 L 300 60 L 280 60 L 260 60 L 240 60 L 220 60 z M 220 80 L 200 80 L 200 100 L 200 120 L 200 140 L 200 160 L 200 180 L 200 200 L 200 220 L 200 240 L 200 260 L 200 280 L 200 300 L 200 320 L 200 340 L 200 360 L 200 380 L 200 400 L 200 420 L 200 440 L 200 460 L 200 480 L 200 500 L 200 520 L 200 540 L 200 560 L 220 560 L 220 540 L 220 520 L 220 500 L 220 480 L 220 460 L 220 440 L 220 420 L 220 400 L 220 380 L 220 360 L 220 340 L 220 320 L 220 300 L 220 280 L 220 260 L 220 240 L 220 220 L 220 200 L 220 180 L 220 160 L 220 140 L 220 120 L 220 100 L 220 80 z M 740 120 L 740 140 L 740 160 L 740 180 L 740 200 L 740 220 L 740 240 L 740 260 L 740 280 L 740 300 L 740 320 L 740 340 L 740 360 L 740 380 L 740 400 L 740 420 L 740 440 L 740 460 L 740 480 L 740 500 L 720 500 L 700 500 L 680 500 L 660 500 L 640 500 L 620 500 L 600 500 L 580 500 L 560 500 L 540 500 L 520 500 L 500 500 L 480 500 L 460 500 L 440 500 L 420 500 L 400 500 L 380 500 L 360 500 L 340 500 L 320 500 L 300 500 L 280 500 L 260 500 L 260 520 L 280 520 L 300 520 L 320 520 L 340 520 L 360 520 L 380 520 L 400 520 L 420 520 L 440 520 L 460 520 L 480 520 L 500 520 L 520 520 L 540 520 L 560 520 L 580 520 L 600 520 L 620 520 L 640 520 L 660 520 L 680 520 L 700 520 L 720 520 L 740 520 L 760 520 L 760 500 L 760 480 L 760 460 L 760 440 L 760 420 L 760 400 L 760 380 L 760 360 L 760 340 L 760 320 L 760 300 L 760 280 L 760 260 L 760 240 L 760 220 L 760 200 L 760 180 L 760 160 L 760 140 L 760 120 L 740 120 z M 400 220 L 400 240 L 420 240 L 440 240 L 460 240 L 480 240 L 500 240 L 520 240 L 540 240 L 560 240 L 580 240 L 600 240 L 600 260 L 600 280 L 600 300 L 600 320 L 600 340 L 620 340 L 640 340 L 640 320 L 640 300 L 640 280 L 640 260 L 640 240 L 640 220 L 620 220 L 600 220 L 580 220 L 560 220 L 540 220 L 520 220 L 500 220 L 480 220 L 460 220 L 440 220 L 420 220 L 400 220 z M 340 280 L 340 300 L 340 320 L 340 340 L 340 360 L 340 380 L 340 400 L 360 400 L 380 400 L 400 400 L 420 400 L 440 400 L 460 400 L 480 400 L 500 400 L 520 400 L 540 400 L 560 400 L 580 400 L 580 380 L 580 360 L 580 340 L 580 320 L 580 300 L 580 280 L 560 280 L 540 280 L 520 280 L 500 280 L 480 280 L 460 280 L 440 280 L 420 280 L 400 280 L 380 280 L 360 280 L 340 280 z M 160 620 L 160 640 L 160 660 L 160 680 L 160 700 L 160 720 L 160 740 L 180 740 L 180 720 L 180 700 L 180 680 L 180 660 L 180 640 L 200 640 L 220 640 L 240 640 L 260 640 L 280 640 L 300 640 L 320 640 L 340 640 L 360 640 L 380 640 L 400 640 L 420 640 L 440 640 L 460 640 L 480 640 L 500 640 L 520 640 L 540 640 L 560 640 L 580 640 L 600 640 L 620 640 L 640 640 L 660 640 L 680 640 L 700 640 L 720 640 L 740 640 L 760 640 L 780 640 L 800 640 L 820 640 L 840 640 L 840 620 L 820 620 L 800 620 L 780 620 L 760 620 L 740 620 L 720 620 L 700 620 L 680 620 L 660 620 L 640 620 L 620 620 L 600 620 L 580 620 L 560 620 L 540 620 L 520 620 L 500 620 L 480 620 L 460 620 L 440 620 L 420 620 L 400 620 L 380 620 L 360 620 L 340 620 L 320 620 L 300 620 L 280 620 L 260 620 L 240 620 L 220 620 L 200 620 L 180 620 L 160 620 z M 160 740 L 140 740 L 140 760 L 160 760 L 160 740 z M 140 760 L 120 760 L 120 780 L 140 780 L 140 760 z M 140 780 L 140 800 L 160 800 L 160 780 L 140 780 z M 140 800 L 120 800 L 120 820 L 140 820 L 140 800 z M 120 820 L 100 820 L 100 840 L 120 840 L 120 820 z M 100 840 L 80 840 L 80 860 L 100 860 L 100 840 z M 80 840 L 80 820 L 60 820 L 60 840 L 80 840 z M 60 840 L 40 840 L 40 860 L 60 860 L 60 840 z M 40 860 L 20 860 L 20 880 L 20 900 L 20 920 L 40 920 L 40 900 L 60 900 L 80 900 L 100 900 L 120 900 L 140 900 L 160 900 L 180 900 L 200 900 L 220 900 L 240 900 L 260 900 L 280 900 L 300 900 L 320 900 L 340 900 L 360 900 L 380 900 L 400 900 L 420 900 L 440 900 L 460 900 L 480 900 L 500 900 L 520 900 L 540 900 L 560 900 L 580 900 L 600 900 L 620 900 L 640 900 L 660 900 L 680 900 L 700 900 L 720 900 L 720 880 L 700 880 L 680 880 L 660 880 L 640 880 L 620 880 L 600 880 L 580 880 L 560 880 L 540 880 L 520 880 L 500 880 L 480 880 L 460 880 L 440 880 L 420 880 L 400 880 L 380 880 L 360 880 L 340 880 L 320 880 L 300 880 L 280 880 L 260 880 L 240 880 L 220 880 L 200 880 L 180 880 L 160 880 L 140 880 L 120 880 L 100 880 L 80 880 L 60 880 L 40 880 L 40 860 z M 80 820 L 100 820 L 100 800 L 80 800 L 80 820 z M 100 800 L 120 800 L 120 780 L 100 780 L 100 800 z M 200 780 L 200 800 L 180 800 L 180 820 L 160 820 L 160 840 L 140 840 L 140 860 L 160 860 L 180 860 L 180 840 L 200 840 L 200 820 L 220 820 L 220 800 L 240 800 L 240 780 L 220 780 L 200 780 z M 280 780 L 280 800 L 260 800 L 260 820 L 240 820 L 240 840 L 220 840 L 220 860 L 240 860 L 260 860 L 260 840 L 280 840 L 280 820 L 300 820 L 300 800 L 320 800 L 320 780 L 300 780 L 280 780 z M 360 780 L 360 800 L 340 800 L 340 820 L 320 820 L 320 840 L 300 840 L 300 860 L 320 860 L 340 860 L 340 840 L 360 840 L 360 820 L 380 820 L 380 800 L 400 800 L 400 780 L 380 780 L 360 780 z M 440 780 L 440 800 L 420 800 L 420 820 L 400 820 L 400 840 L 380 840 L 380 860 L 400 860 L 420 860 L 420 840 L 440 840 L 440 820 L 460 820 L 460 800 L 480 800 L 480 780 L 460 780 L 440 780 z M 520 780 L 520 800 L 500 800 L 500 820 L 480 820 L 480 840 L 460 840 L 460 860 L 480 860 L 500 860 L 520 860 L 520 840 L 520 820 L 540 820 L 540 800 L 560 800 L 560 780 L 540 780 L 520 780 z M 600 780 L 600 800 L 580 800 L 580 820 L 560 820 L 560 840 L 540 840 L 540 860 L 560 860 L 580 860 L 580 840 L 600 840 L 600 820 L 620 820 L 620 800 L 640 800 L 640 780 L 620 780 L 600 780 z M 680 780 L 680 800 L 660 800 L 660 820 L 640 820 L 640 840 L 620 840 L 620 860 L 640 860 L 660 860 L 660 840 L 680 840 L 680 820 L 700 820 L 700 800 L 720 800 L 720 780 L 700 780 L 680 780 z M 760 780 L 760 800 L 780 800 L 780 780 L 760 780 z M 760 800 L 740 800 L 740 820 L 760 820 L 760 800 z M 740 820 L 720 820 L 720 840 L 740 840 L 740 820 z M 720 840 L 700 840 L 700 860 L 720 860 L 720 840 z "
     style="fill:#ffffff" />
  <path
     id="rect3464"
     d="M 260 20 L 260 40 L 240 40 L 240 60 L 260 60 L 280 60 L 300 60 L 320 60 L 340 60 L 360 60 L 380 60 L 400 60 L 420 60 L 440 60 L 460 60 L 480 60 L 500 60 L 520 60 L 540 60 L 560 60 L 580 60 L 600 60 L 620 60 L 640 60 L 660 60 L 680 60 L 700 60 L 720 60 L 740 60 L 760 60 L 780 60 L 800 60 L 820 60 L 820 40 L 840 40 L 840 20 L 820 20 L 800 20 L 780 20 L 760 20 L 740 20 L 720 20 L 700 20 L 680 20 L 660 20 L 640 20 L 620 20 L 600 20 L 580 20 L 560 20 L 540 20 L 520 20 L 500 20 L 480 20 L 460 20 L 440 20 L 420 20 L 400 20 L 380 20 L 360 20 L 340 20 L 320 20 L 300 20 L 280 20 L 260 20 z M 220 80 L 220 100 L 220 120 L 220 140 L 220 160 L 220 180 L 220 200 L 220 220 L 220 240 L 220 260 L 220 280 L 220 300 L 220 320 L 220 340 L 220 360 L 220 380 L 220 400 L 220 420 L 220 440 L 220 460 L 220 480 L 220 500 L 220 520 L 220 540 L 220 560 L 240 560 L 260 560 L 280 560 L 300 560 L 320 560 L 340 560 L 360 560 L 380 560 L 400 560 L 420 560 L 440 560 L 460 560 L 480 560 L 500 560 L 520 560 L 540 560 L 560 560 L 580 560 L 600 560 L 620 560 L 640 560 L 660 560 L 680 560 L 700 560 L 720 560 L 740 560 L 760 560 L 780 560 L 800 560 L 800 540 L 800 520 L 800 500 L 800 480 L 800 460 L 800 440 L 800 420 L 800 400 L 800 380 L 800 360 L 800 340 L 800 320 L 800 300 L 800 280 L 800 260 L 800 240 L 800 220 L 800 200 L 800 180 L 800 160 L 800 140 L 800 120 L 800 100 L 800 80 L 780 80 L 760 80 L 740 80 L 720 80 L 700 80 L 680 80 L 660 80 L 640 80 L 620 80 L 600 80 L 580 80 L 560 80 L 540 80 L 520 80 L 500 80 L 480 80 L 460 80 L 440 80 L 420 80 L 400 80 L 380 80 L 360 80 L 340 80 L 320 80 L 300 80 L 280 80 L 260 80 L 240 80 L 220 80 z M 260 120 L 280 120 L 300 120 L 320 120 L 340 120 L 360 120 L 380 120 L 400 120 L 420 120 L 440 120 L 460 120 L 480 120 L 500 120 L 520 120 L 540 120 L 560 120 L 580 120 L 600 120 L 620 120 L 640 120 L 660 120 L 680 120 L 700 120 L 720 120 L 740 120 L 760 120 L 760 140 L 760 160 L 760 180 L 760 200 L 760 220 L 760 240 L 760 260 L 760 280 L 760 300 L 760 320 L 760 340 L 760 360 L 760 380 L 760 400 L 760 420 L 760 440 L 760 460 L 760 480 L 760 500 L 760 520 L 740 520 L 720 520 L 700 520 L 680 520 L 660 520 L 640 520 L 620 520 L 600 520 L 580 520 L 560 520 L 540 520 L 520 520 L 500 520 L 480 520 L 460 520 L 440 520 L 420 520 L 400 520 L 380 520 L 360 520 L 340 520 L 320 520 L 300 520 L 280 520 L 260 520 L 260 500 L 260 480 L 260 460 L 260 440 L 260 420 L 260 400 L 260 380 L 260 360 L 260 340 L 260 320 L 260 300 L 260 280 L 260 260 L 260 240 L 260 220 L 260 200 L 260 180 L 260 160 L 260 140 L 260 120 z M 400 200 L 400 220 L 420 220 L 440 220 L 460 220 L 480 220 L 500 220 L 520 220 L 540 220 L 560 220 L 580 220 L 600 220 L 620 220 L 640 220 L 640 200 L 620 200 L 600 200 L 580 200 L 560 200 L 540 200 L 520 200 L 500 200 L 480 200 L 460 200 L 440 200 L 420 200 L 400 200 z M 340 260 L 340 280 L 360 280 L 380 280 L 400 280 L 420 280 L 440 280 L 460 280 L 480 280 L 500 280 L 520 280 L 540 280 L 560 280 L 580 280 L 580 260 L 560 260 L 540 260 L 520 260 L 500 260 L 480 260 L 460 260 L 440 260 L 420 260 L 400 260 L 380 260 L 360 260 L 340 260 z M 920 520 L 920 540 L 940 540 L 940 520 L 920 520 z M 920 540 L 900 540 L 900 560 L 920 560 L 920 540 z M 900 560 L 880 560 L 880 580 L 900 580 L 900 560 z M 880 580 L 860 580 L 860 600 L 880 600 L 880 580 z M 860 600 L 840 600 L 840 620 L 860 620 L 860 600 z M 180 640 L 180 660 L 180 680 L 180 700 L 180 720 L 180 740 L 160 740 L 160 760 L 140 760 L 140 780 L 160 780 L 180 780 L 200 780 L 220 780 L 240 780 L 260 780 L 280 780 L 300 780 L 320 780 L 340 780 L 360 780 L 380 780 L 400 780 L 420 780 L 440 780 L 460 780 L 480 780 L 500 780 L 520 780 L 540 780 L 560 780 L 580 780 L 600 780 L 620 780 L 640 780 L 660 780 L 680 780 L 700 780 L 720 780 L 740 780 L 760 780 L 780 780 L 780 800 L 760 800 L 760 820 L 740 820 L 740 840 L 720 840 L 720 860 L 700 860 L 680 860 L 660 860 L 640 860 L 620 860 L 600 860 L 580 860 L 560 860 L 540 860 L 520 860 L 500 860 L 480 860 L 460 860 L 440 860 L 420 860 L 400 860 L 380 860 L 360 860 L 340 860 L 320 860 L 300 860 L 280 860 L 260 860 L 240 860 L 220 860 L 200 860 L 180 860 L 160 860 L 140 860 L 120 860 L 100 860 L 80 860 L 80 840 L 60 840 L 60 860 L 40 860 L 40 880 L 60 880 L 80 880 L 100 880 L 120 880 L 140 880 L 160 880 L 180 880 L 200 880 L 220 880 L 240 880 L 260 880 L 280 880 L 300 880 L 320 880 L 340 880 L 360 880 L 380 880 L 400 880 L 420 880 L 440 880 L 460 880 L 480 880 L 500 880 L 520 880 L 540 880 L 560 880 L 580 880 L 600 880 L 620 880 L 640 880 L 660 880 L 680 880 L 700 880 L 720 880 L 740 880 L 740 860 L 760 860 L 760 840 L 780 840 L 780 820 L 800 820 L 800 800 L 820 800 L 820 780 L 840 780 L 840 760 L 840 740 L 840 720 L 840 700 L 840 680 L 840 660 L 840 640 L 820 640 L 800 640 L 780 640 L 760 640 L 740 640 L 720 640 L 700 640 L 680 640 L 660 640 L 640 640 L 620 640 L 600 640 L 580 640 L 560 640 L 540 640 L 520 640 L 500 640 L 480 640 L 460 640 L 440 640 L 420 640 L 400 640 L 380 640 L 360 640 L 340 640 L 320 640 L 300 640 L 280 640 L 260 640 L 240 640 L 220 640 L 200 640 L 180 640 z M 80 840 L 100 840 L 100 820 L 80 820 L 80 840 z M 100 820 L 120 820 L 120 800 L 100 800 L 100 820 z M 120 800 L 140 800 L 140 780 L 120 780 L 120 800 z M 200 680 L 220 680 L 240 680 L 260 680 L 260 700 L 260 720 L 240 720 L 220 720 L 200 720 L 200 700 L 200 680 z M 580 680 L 600 680 L 620 680 L 640 680 L 660 680 L 680 680 L 700 680 L 720 680 L 740 680 L 760 680 L 780 680 L 780 700 L 780 720 L 760 720 L 740 720 L 720 720 L 700 720 L 680 720 L 660 720 L 640 720 L 620 720 L 600 720 L 580 720 L 580 700 L 580 680 z M 40 900 L 40 920 L 60 920 L 80 920 L 100 920 L 120 920 L 140 920 L 160 920 L 180 920 L 200 920 L 220 920 L 240 920 L 260 920 L 280 920 L 300 920 L 320 920 L 340 920 L 360 920 L 380 920 L 400 920 L 420 920 L 440 920 L 460 920 L 480 920 L 500 920 L 520 920 L 540 920 L 560 920 L 580 920 L 600 920 L 620 920 L 640 920 L 660 920 L 680 920 L 700 920 L 720 920 L 720 900 L 700 900 L 680 900 L 660 900 L 640 900 L 620 900 L 600 900 L 580 900 L 560 900 L 540 900 L 520 900 L 500 900 L 480 900 L 460 900 L 440 900 L 420 900 L 400 900 L 380 900 L 360 900 L 340 900 L 320 900 L 300 900 L 280 900 L 260 900 L 240 900 L 220 900 L 200 900 L 180 900 L 160 900 L 140 900 L 120 900 L 100 900 L 80 900 L 60 900 L 40 900 z "
     style="fill:#c0c0c0" />
  <path
     id="rect3548"
     d="M 260 0 L 260 20 L 280 20 L 300 20 L 320 20 L 340 20 L 360 20 L 380 20 L 400 20 L 420 20 L 440 20 L 460 20 L 480 20 L 500 20 L 520 20 L 540 20 L 560 20 L 580 20 L 600 20 L 620 20 L 640 20 L 660 20 L 680 20 L 700 20 L 720 20 L 740 20 L 760 20 L 780 20 L 800 20 L 820 20 L 840 20 L 840 40 L 820 40 L 820 60 L 800 60 L 800 80 L 800 100 L 800 120 L 800 140 L 800 160 L 800 180 L 800 200 L 800 220 L 800 240 L 800 260 L 800 280 L 800 300 L 800 320 L 800 340 L 800 360 L 800 380 L 800 400 L 800 420 L 800 440 L 800 460 L 800 480 L 800 500 L 800 520 L 800 540 L 800 560 L 780 560 L 760 560 L 740 560 L 720 560 L 700 560 L 680 560 L 660 560 L 640 560 L 620 560 L 600 560 L 580 560 L 560 560 L 540 560 L 520 560 L 500 560 L 480 560 L 460 560 L 440 560 L 420 560 L 400 560 L 380 560 L 360 560 L 340 560 L 320 560 L 300 560 L 280 560 L 260 560 L 240 560 L 220 560 L 200 560 L 200 540 L 200 520 L 200 500 L 200 480 L 200 460 L 200 440 L 200 420 L 200 400 L 200 380 L 200 360 L 200 340 L 200 320 L 200 300 L 200 280 L 200 260 L 200 240 L 200 220 L 200 200 L 200 180 L 200 160 L 200 140 L 200 120 L 200 100 L 200 80 L 180 80 L 180 100 L 180 120 L 180 140 L 180 160 L 180 180 L 180 200 L 180 220 L 180 240 L 180 260 L 180 280 L 180 300 L 180 320 L 180 340 L 180 360 L 180 380 L 180 400 L 180 420 L 180 440 L 180 460 L 180 480 L 180 500 L 180 520 L 180 540 L 180 560 L 180 580 L 200 580 L 220 580 L 240 580 L 260 580 L 280 580 L 300 580 L 320 580 L 340 580 L 360 580 L 380 580 L 400 580 L 420 580 L 440 580 L 460 580 L 480 580 L 500 580 L 520 580 L 540 580 L 560 580 L 580 580 L 600 580 L 620 580 L 640 580 L 660 580 L 680 580 L 700 580 L 720 580 L 740 580 L 760 580 L 780 580 L 800 580 L 820 580 L 820 560 L 840 560 L 840 540 L 860 540 L 860 520 L 880 520 L 880 500 L 880 480 L 880 460 L 880 440 L 880 420 L 880 400 L 880 380 L 880 360 L 880 340 L 880 320 L 880 300 L 880 280 L 880 260 L 880 240 L 880 220 L 880 200 L 880 180 L 880 160 L 880 140 L 880 120 L 880 100 L 880 80 L 880 60 L 880 40 L 880 20 L 880 0 L 860 0 L 840 0 L 820 0 L 800 0 L 780 0 L 760 0 L 740 0 L 720 0 L 700 0 L 680 0 L 660 0 L 640 0 L 620 0 L 600 0 L 580 0 L 560 0 L 540 0 L 520 0 L 500 0 L 480 0 L 460 0 L 440 0 L 420 0 L 400 0 L 380 0 L 360 0 L 340 0 L 320 0 L 300 0 L 280 0 L 260 0 z M 880 520 L 880 540 L 860 540 L 860 560 L 840 560 L 840 580 L 820 580 L 820 600 L 800 600 L 780 600 L 760 600 L 740 600 L 720 600 L 700 600 L 680 600 L 660 600 L 640 600 L 620 600 L 600 600 L 580 600 L 560 600 L 540 600 L 520 600 L 500 600 L 480 600 L 460 600 L 440 600 L 420 600 L 400 600 L 380 600 L 360 600 L 340 600 L 320 600 L 300 600 L 280 600 L 260 600 L 240 600 L 220 600 L 200 600 L 180 600 L 160 600 L 160 620 L 180 620 L 200 620 L 220 620 L 240 620 L 260 620 L 280 620 L 300 620 L 320 620 L 340 620 L 360 620 L 380 620 L 400 620 L 420 620 L 440 620 L 460 620 L 480 620 L 500 620 L 520 620 L 540 620 L 560 620 L 580 620 L 600 620 L 620 620 L 640 620 L 660 620 L 680 620 L 700 620 L 720 620 L 740 620 L 760 620 L 780 620 L 800 620 L 820 620 L 840 620 L 840 600 L 860 600 L 860 580 L 880 580 L 880 560 L 900 560 L 900 540 L 920 540 L 920 520 L 900 520 L 880 520 z M 920 540 L 920 560 L 900 560 L 900 580 L 880 580 L 880 600 L 860 600 L 860 620 L 840 620 L 840 640 L 840 660 L 840 680 L 840 700 L 840 720 L 840 740 L 840 760 L 860 760 L 860 780 L 860 800 L 880 800 L 880 780 L 900 780 L 900 760 L 920 760 L 920 740 L 940 740 L 940 720 L 940 700 L 940 680 L 940 660 L 940 640 L 940 620 L 940 600 L 940 580 L 940 560 L 940 540 L 920 540 z M 160 620 L 140 620 L 140 640 L 140 660 L 140 680 L 140 700 L 140 720 L 140 740 L 160 740 L 160 720 L 160 700 L 160 680 L 160 660 L 160 640 L 160 620 z M 140 740 L 120 740 L 120 760 L 140 760 L 140 740 z M 120 760 L 100 760 L 100 780 L 120 780 L 120 760 z M 100 780 L 80 780 L 80 800 L 100 800 L 100 780 z M 80 800 L 60 800 L 60 820 L 80 820 L 80 800 z M 60 820 L 40 820 L 40 840 L 60 840 L 60 820 z M 40 840 L 20 840 L 20 860 L 40 860 L 40 840 z M 20 860 L 0 860 L 0 880 L 0 900 L 0 920 L 0 940 L 0 960 L 20 960 L 20 940 L 40 940 L 60 940 L 80 940 L 100 940 L 120 940 L 140 940 L 160 940 L 180 940 L 200 940 L 220 940 L 240 940 L 260 940 L 280 940 L 300 940 L 320 940 L 340 940 L 360 940 L 380 940 L 400 940 L 420 940 L 440 940 L 460 940 L 480 940 L 500 940 L 520 940 L 540 940 L 560 940 L 580 940 L 600 940 L 620 940 L 640 940 L 660 940 L 680 940 L 700 940 L 720 940 L 740 940 L 740 920 L 760 920 L 760 900 L 780 900 L 780 880 L 800 880 L 800 860 L 820 860 L 820 840 L 840 840 L 840 820 L 840 800 L 840 780 L 820 780 L 820 800 L 800 800 L 800 820 L 780 820 L 780 840 L 760 840 L 760 860 L 740 860 L 740 880 L 720 880 L 720 900 L 720 920 L 700 920 L 680 920 L 660 920 L 640 920 L 620 920 L 600 920 L 580 920 L 560 920 L 540 920 L 520 920 L 500 920 L 480 920 L 460 920 L 440 920 L 420 920 L 400 920 L 380 920 L 360 920 L 340 920 L 320 920 L 300 920 L 280 920 L 260 920 L 240 920 L 220 920 L 200 920 L 180 920 L 160 920 L 140 920 L 120 920 L 100 920 L 80 920 L 60 920 L 40 920 L 20 920 L 20 900 L 20 880 L 20 860 z M 200 80 L 220 80 L 220 60 L 200 60 L 200 80 z M 220 60 L 240 60 L 240 40 L 220 40 L 220 60 z M 240 40 L 260 40 L 260 20 L 240 20 L 240 40 z M 720 120 L 720 140 L 720 160 L 720 180 L 720 200 L 720 220 L 720 240 L 720 260 L 720 280 L 720 300 L 720 320 L 720 340 L 720 360 L 720 380 L 720 400 L 720 420 L 720 440 L 720 460 L 720 480 L 700 480 L 680 480 L 660 480 L 640 480 L 620 480 L 600 480 L 580 480 L 560 480 L 540 480 L 520 480 L 500 480 L 480 480 L 460 480 L 440 480 L 420 480 L 400 480 L 380 480 L 360 480 L 340 480 L 320 480 L 300 480 L 280 480 L 280 500 L 300 500 L 320 500 L 340 500 L 360 500 L 380 500 L 400 500 L 420 500 L 440 500 L 460 500 L 480 500 L 500 500 L 520 500 L 540 500 L 560 500 L 580 500 L 600 500 L 620 500 L 640 500 L 660 500 L 680 500 L 700 500 L 720 500 L 740 500 L 740 480 L 740 460 L 740 440 L 740 420 L 740 400 L 740 380 L 740 360 L 740 340 L 740 320 L 740 300 L 740 280 L 740 260 L 740 240 L 740 220 L 740 200 L 740 180 L 740 160 L 740 140 L 740 120 L 720 120 z M 380 200 L 380 220 L 380 240 L 400 240 L 400 220 L 400 200 L 380 200 z M 320 260 L 320 280 L 320 300 L 320 320 L 320 340 L 320 360 L 320 380 L 320 400 L 340 400 L 340 380 L 340 360 L 340 340 L 340 320 L 340 300 L 340 280 L 340 260 L 320 260 z M 580 680 L 580 700 L 600 700 L 620 700 L 640 700 L 660 700 L 680 700 L 700 700 L 720 700 L 740 700 L 760 700 L 780 700 L 780 680 L 760 680 L 740 680 L 720 680 L 700 680 L 680 680 L 660 680 L 640 680 L 620 680 L 600 680 L 580 680 z M 160 780 L 160 800 L 180 800 L 180 780 L 160 780 z M 160 800 L 140 800 L 140 820 L 160 820 L 160 800 z M 140 820 L 120 820 L 120 840 L 140 840 L 140 820 z M 120 840 L 100 840 L 100 860 L 120 860 L 120 840 z M 240 780 L 240 800 L 260 800 L 260 780 L 240 780 z M 240 800 L 220 800 L 220 820 L 240 820 L 240 800 z M 220 820 L 200 820 L 200 840 L 220 840 L 220 820 z M 200 840 L 180 840 L 180 860 L 200 860 L 200 840 z M 320 780 L 320 800 L 340 800 L 340 780 L 320 780 z M 320 800 L 300 800 L 300 820 L 320 820 L 320 800 z M 300 820 L 280 820 L 280 840 L 300 840 L 300 820 z M 280 840 L 260 840 L 260 860 L 280 860 L 280 840 z M 400 780 L 400 800 L 420 800 L 420 780 L 400 780 z M 400 800 L 380 800 L 380 820 L 400 820 L 400 800 z M 380 820 L 360 820 L 360 840 L 380 840 L 380 820 z M 360 840 L 340 840 L 340 860 L 360 860 L 360 840 z M 480 780 L 480 800 L 500 800 L 500 780 L 480 780 z M 480 800 L 460 800 L 460 820 L 480 820 L 480 800 z M 460 820 L 440 820 L 440 840 L 460 840 L 460 820 z M 440 840 L 420 840 L 420 860 L 440 860 L 440 840 z M 560 780 L 560 800 L 580 800 L 580 780 L 560 780 z M 560 800 L 540 800 L 540 820 L 560 820 L 560 800 z M 540 820 L 520 820 L 520 840 L 540 840 L 540 820 z M 640 780 L 640 800 L 660 800 L 660 780 L 640 780 z M 640 800 L 620 800 L 620 820 L 640 820 L 640 800 z M 620 820 L 600 820 L 600 840 L 620 840 L 620 820 z M 600 840 L 580 840 L 580 860 L 600 860 L 600 840 z M 720 780 L 720 800 L 740 800 L 740 780 L 720 780 z M 720 800 L 700 800 L 700 820 L 720 820 L 720 800 z M 700 820 L 680 820 L 680 840 L 700 840 L 700 820 z M 680 840 L 660 840 L 660 860 L 680 860 L 680 840 z "
     style="fill:#808080" />
  <path
     id="rect3620"
     d="M 880 20 L 880 40 L 880 60 L 880 80 L 880 100 L 880 120 L 880 140 L 880 160 L 880 180 L 880 200 L 880 220 L 880 240 L 880 260 L 880 280 L 880 300 L 880 320 L 880 340 L 880 360 L 880 380 L 880 400 L 880 420 L 880 440 L 880 460 L 880 480 L 880 500 L 880 520 L 900 520 L 920 520 L 940 520 L 940 500 L 920 500 L 900 500 L 900 480 L 900 460 L 900 440 L 900 420 L 900 400 L 900 380 L 900 360 L 900 340 L 900 320 L 900 300 L 900 280 L 900 260 L 900 240 L 900 220 L 900 200 L 900 180 L 900 160 L 900 140 L 900 120 L 900 100 L 900 80 L 900 60 L 900 40 L 900 20 L 880 20 z M 940 520 L 940 540 L 940 560 L 940 580 L 940 600 L 940 620 L 940 640 L 940 660 L 940 680 L 940 700 L 940 720 L 940 740 L 960 740 L 960 720 L 960 700 L 960 680 L 960 660 L 960 640 L 960 620 L 960 600 L 960 580 L 960 560 L 960 540 L 960 520 L 940 520 z M 940 740 L 920 740 L 920 760 L 940 760 L 940 740 z M 920 760 L 900 760 L 900 780 L 920 780 L 920 760 z M 900 780 L 880 780 L 880 800 L 900 800 L 900 780 z M 880 800 L 860 800 L 860 780 L 860 760 L 840 760 L 840 780 L 840 800 L 840 820 L 840 840 L 860 840 L 860 820 L 880 820 L 880 800 z M 840 840 L 820 840 L 820 860 L 840 860 L 840 840 z M 820 860 L 800 860 L 800 880 L 820 880 L 820 860 z M 800 880 L 780 880 L 780 900 L 800 900 L 800 880 z M 780 900 L 760 900 L 760 920 L 780 920 L 780 900 z M 760 920 L 740 920 L 740 940 L 760 940 L 760 920 z M 740 940 L 720 940 L 700 940 L 680 940 L 660 940 L 640 940 L 620 940 L 600 940 L 580 940 L 560 940 L 540 940 L 520 940 L 500 940 L 480 940 L 460 940 L 440 940 L 420 940 L 400 940 L 380 940 L 360 940 L 340 940 L 320 940 L 300 940 L 280 940 L 260 940 L 240 940 L 220 940 L 200 940 L 180 940 L 160 940 L 140 940 L 120 940 L 100 940 L 80 940 L 60 940 L 40 940 L 20 940 L 20 960 L 40 960 L 60 960 L 80 960 L 100 960 L 120 960 L 140 960 L 160 960 L 180 960 L 200 960 L 220 960 L 240 960 L 260 960 L 280 960 L 300 960 L 320 960 L 340 960 L 360 960 L 380 960 L 400 960 L 420 960 L 440 960 L 460 960 L 480 960 L 500 960 L 520 960 L 540 960 L 560 960 L 580 960 L 600 960 L 620 960 L 640 960 L 660 960 L 680 960 L 700 960 L 720 960 L 740 960 L 740 940 z M 880 520 L 860 520 L 860 540 L 880 540 L 880 520 z M 860 540 L 840 540 L 840 560 L 860 560 L 860 540 z M 840 560 L 820 560 L 820 580 L 840 580 L 840 560 z M 820 580 L 800 580 L 780 580 L 760 580 L 740 580 L 720 580 L 700 580 L 680 580 L 660 580 L 640 580 L 620 580 L 600 580 L 580 580 L 560 580 L 540 580 L 520 580 L 500 580 L 480 580 L 460 580 L 440 580 L 420 580 L 400 580 L 380 580 L 360 580 L 340 580 L 320 580 L 300 580 L 280 580 L 260 580 L 240 580 L 220 580 L 200 580 L 200 600 L 220 600 L 240 600 L 260 600 L 280 600 L 300 600 L 320 600 L 340 600 L 360 600 L 380 600 L 400 600 L 420 600 L 440 600 L 460 600 L 480 600 L 500 600 L 520 600 L 540 600 L 560 600 L 580 600 L 600 600 L 620 600 L 640 600 L 660 600 L 680 600 L 700 600 L 720 600 L 740 600 L 760 600 L 780 600 L 800 600 L 820 600 L 820 580 z M 260 120 L 260 140 L 260 160 L 260 180 L 260 200 L 260 220 L 260 240 L 260 260 L 260 280 L 260 300 L 260 320 L 260 340 L 260 360 L 260 380 L 260 400 L 260 420 L 260 440 L 260 460 L 260 480 L 260 500 L 280 500 L 280 480 L 280 460 L 280 440 L 280 420 L 280 400 L 280 380 L 280 360 L 280 340 L 280 320 L 280 300 L 280 280 L 280 260 L 280 240 L 280 220 L 280 200 L 280 180 L 280 160 L 280 140 L 300 140 L 320 140 L 340 140 L 360 140 L 380 140 L 400 140 L 420 140 L 440 140 L 460 140 L 480 140 L 500 140 L 520 140 L 540 140 L 560 140 L 580 140 L 600 140 L 620 140 L 640 140 L 660 140 L 680 140 L 700 140 L 720 140 L 720 120 L 700 120 L 680 120 L 660 120 L 640 120 L 620 120 L 600 120 L 580 120 L 560 120 L 540 120 L 520 120 L 500 120 L 480 120 L 460 120 L 440 120 L 420 120 L 400 120 L 380 120 L 360 120 L 340 120 L 320 120 L 300 120 L 280 120 L 260 120 z M 380 180 L 380 200 L 400 200 L 420 200 L 440 200 L 460 200 L 480 200 L 500 200 L 520 200 L 540 200 L 560 200 L 580 200 L 600 200 L 620 200 L 640 200 L 640 220 L 640 240 L 640 260 L 640 280 L 640 300 L 640 320 L 640 340 L 620 340 L 600 340 L 600 320 L 600 300 L 600 280 L 600 260 L 600 240 L 580 240 L 580 260 L 580 280 L 580 300 L 580 320 L 580 340 L 580 360 L 580 380 L 580 400 L 560 400 L 540 400 L 520 400 L 500 400 L 480 400 L 460 400 L 440 400 L 420 400 L 400 400 L 380 400 L 360 400 L 340 400 L 320 400 L 320 420 L 340 420 L 360 420 L 380 420 L 400 420 L 420 420 L 440 420 L 460 420 L 480 420 L 500 420 L 520 420 L 540 420 L 560 420 L 580 420 L 600 420 L 600 400 L 600 380 L 600 360 L 620 360 L 640 360 L 660 360 L 660 340 L 660 320 L 660 300 L 660 280 L 660 260 L 660 240 L 660 220 L 660 200 L 660 180 L 640 180 L 620 180 L 600 180 L 580 180 L 560 180 L 540 180 L 520 180 L 500 180 L 480 180 L 460 180 L 440 180 L 420 180 L 400 180 L 380 180 z M 580 700 L 580 720 L 600 720 L 620 720 L 640 720 L 660 720 L 680 720 L 700 720 L 720 720 L 740 720 L 760 720 L 780 720 L 780 700 L 760 700 L 740 700 L 720 700 L 700 700 L 680 700 L 660 700 L 640 700 L 620 700 L 600 700 L 580 700 z M 180 780 L 180 800 L 200 800 L 200 780 L 180 780 z M 180 800 L 160 800 L 160 820 L 180 820 L 180 800 z M 160 820 L 140 820 L 140 840 L 160 840 L 160 820 z M 140 840 L 120 840 L 120 860 L 140 860 L 140 840 z M 260 780 L 260 800 L 280 800 L 280 780 L 260 780 z M 260 800 L 240 800 L 240 820 L 260 820 L 260 800 z M 240 820 L 220 820 L 220 840 L 240 840 L 240 820 z M 220 840 L 200 840 L 200 860 L 220 860 L 220 840 z M 340 780 L 340 800 L 360 800 L 360 780 L 340 780 z M 340 800 L 320 800 L 320 820 L 340 820 L 340 800 z M 320 820 L 300 820 L 300 840 L 320 840 L 320 820 z M 300 840 L 280 840 L 280 860 L 300 860 L 300 840 z M 420 780 L 420 800 L 440 800 L 440 780 L 420 780 z M 420 800 L 400 800 L 400 820 L 420 820 L 420 800 z M 400 820 L 380 820 L 380 840 L 400 840 L 400 820 z M 380 840 L 360 840 L 360 860 L 380 860 L 380 840 z M 500 780 L 500 800 L 520 800 L 520 780 L 500 780 z M 500 800 L 480 800 L 480 820 L 500 820 L 500 800 z M 480 820 L 460 820 L 460 840 L 480 840 L 480 820 z M 460 840 L 440 840 L 440 860 L 460 860 L 460 840 z M 580 780 L 580 800 L 600 800 L 600 780 L 580 780 z M 580 800 L 560 800 L 560 820 L 580 820 L 580 800 z M 560 820 L 540 820 L 540 840 L 560 840 L 560 820 z M 540 840 L 520 840 L 520 860 L 540 860 L 540 840 z M 660 780 L 660 800 L 680 800 L 680 780 L 660 780 z M 660 800 L 640 800 L 640 820 L 660 820 L 660 800 z M 640 820 L 620 820 L 620 840 L 640 840 L 640 820 z M 620 840 L 600 840 L 600 860 L 620 860 L 620 840 z M 740 780 L 740 800 L 760 800 L 760 780 L 740 780 z M 740 800 L 720 800 L 720 820 L 740 820 L 740 800 z M 720 820 L 700 820 L 700 840 L 720 840 L 720 820 z M 700 840 L 680 840 L 680 860 L 700 860 L 700 840 z "
     style="fill:#000000" />
</svg>
