<?xml version="1.0" encoding="UTF-8" standalone="no"?>
<svg
   xmlns:dc="http://purl.org/dc/elements/1.1/"
   xmlns:cc="http://creativecommons.org/ns#"
   xmlns:rdf="http://www.w3.org/1999/02/22-rdf-syntax-ns#"
   xmlns:svg="http://www.w3.org/2000/svg"
   xmlns="http://www.w3.org/2000/svg"
   height="640px"
   version="1.1"
   width="640px"
   id="svg784">
  <metadata
     id="metadata788">
    <rdf:RDF>
      <cc:Work
         rdf:about="">
        <dc:format>image/svg+xml</dc:format>
        <dc:type
           rdf:resource="http://purl.org/dc/dcmitype/StillImage" />
      </cc:Work>
    </rdf:RDF>
  </metadata>
  <defs
     id="defs2" />
  <path
     id="rect298"
     d="M 380 160 L 380 180 L 400 180 L 400 160 L 380 160 z M 380 260 L 380 280 L 400 280 L 400 260 L 380 260 z "
     style="fill:#800000" />
  <path
     id="rect312"
     d="M 520 160 L 520 180 L 540 180 L 540 160 L 520 160 z M 520 260 L 520 280 L 540 280 L 540 260 L 520 260 z "
     style="fill:#008000" />
  <path
     id="rect314"
     d="M 480 160 L 480 180 L 480 200 L 480 220 L 480 240 L 480 260 L 500 260 L 520 260 L 540 260 L 540 280 L 560 280 L 560 260 L 560 240 L 560 220 L 560 200 L 560 180 L 540 180 L 520 180 L 520 160 L 500 160 L 480 160 z "
     style="fill:#00ff00" />
  <path
     id="rect364"
     d="M 400 160 L 400 180 L 380 180 L 360 180 L 360 200 L 360 220 L 360 240 L 360 260 L 360 280 L 380 280 L 380 260 L 400 260 L 420 260 L 440 260 L 440 240 L 440 220 L 440 200 L 440 180 L 440 160 L 420 160 L 400 160 z M 20 220 L 20 240 L 20 260 L 40 260 L 40 240 L 40 220 L 20 220 z M 280 220 L 280 240 L 260 240 L 240 240 L 240 260 L 240 280 L 240 300 L 260 300 L 260 280 L 280 280 L 300 280 L 300 260 L 300 240 L 300 220 L 280 220 z M 80 240 L 80 260 L 60 260 L 60 280 L 60 300 L 80 300 L 80 280 L 100 280 L 100 260 L 100 240 L 80 240 z M 200 240 L 200 260 L 180 260 L 180 280 L 180 300 L 180 320 L 200 320 L 200 300 L 220 300 L 220 280 L 220 260 L 220 240 L 200 240 z M 140 260 L 140 280 L 120 280 L 120 300 L 120 320 L 140 320 L 140 300 L 160 300 L 160 280 L 160 260 L 140 260 z "
     style="fill:#ff0000" />
  <path
     id="rect618"
     d="M 380 320 L 380 340 L 400 340 L 400 320 L 380 320 z M 380 420 L 380 440 L 400 440 L 400 420 L 380 420 z "
     style="fill:#000080" />
  <path
     id="rect632"
     d="M 520 320 L 520 340 L 540 340 L 540 320 L 520 320 z M 520 420 L 520 440 L 540 440 L 540 420 L 520 420 z "
     style="fill:#808000" />
  <path
     id="rect634"
     d="M 480 320 L 480 340 L 480 360 L 480 380 L 480 400 L 480 420 L 500 420 L 520 420 L 540 420 L 540 440 L 560 440 L 560 420 L 560 400 L 560 380 L 560 360 L 560 340 L 540 340 L 520 340 L 520 320 L 500 320 L 480 320 z "
     style="fill:#ffff00" />
  <path
     id="rect684"
     d="M 400 320 L 400 340 L 380 340 L 360 340 L 360 360 L 360 380 L 360 400 L 360 420 L 360 440 L 380 440 L 380 420 L 400 420 L 420 420 L 440 420 L 440 400 L 440 380 L 440 360 L 440 340 L 440 320 L 420 320 L 400 320 z M 20 380 L 20 400 L 20 420 L 40 420 L 40 400 L 40 380 L 20 380 z M 280 380 L 280 400 L 260 400 L 240 400 L 240 420 L 240 440 L 240 460 L 260 460 L 260 440 L 280 440 L 300 440 L 300 420 L 300 400 L 300 380 L 280 380 z M 80 400 L 80 420 L 60 420 L 60 440 L 60 460 L 80 460 L 80 440 L 100 440 L 100 420 L 100 400 L 80 400 z M 200 400 L 200 420 L 180 420 L 180 440 L 180 460 L 180 480 L 200 480 L 200 460 L 220 460 L 220 440 L 220 420 L 220 400 L 200 400 z M 140 420 L 140 440 L 120 440 L 120 460 L 120 480 L 140 480 L 140 460 L 160 460 L 160 440 L 160 420 L 140 420 z "
     style="fill:#0000ff" />
  <path
     id="rect782"
     d="M 380 100 L 380 120 L 360 120 L 340 120 L 340 140 L 320 140 L 320 160 L 320 180 L 320 200 L 320 220 L 320 240 L 320 260 L 320 280 L 320 300 L 320 320 L 320 340 L 320 360 L 320 380 L 320 400 L 320 420 L 320 440 L 320 460 L 320 480 L 320 500 L 320 520 L 340 520 L 360 520 L 360 500 L 380 500 L 400 500 L 400 480 L 420 480 L 440 480 L 460 480 L 480 480 L 500 480 L 520 480 L 520 500 L 540 500 L 560 500 L 560 520 L 580 520 L 600 520 L 600 500 L 600 480 L 600 460 L 600 440 L 600 420 L 600 400 L 600 380 L 600 360 L 600 340 L 600 320 L 600 300 L 600 280 L 600 260 L 600 240 L 600 220 L 600 200 L 600 180 L 600 160 L 600 140 L 580 140 L 580 120 L 560 120 L 540 120 L 540 100 L 520 100 L 500 100 L 480 100 L 460 100 L 440 100 L 420 100 L 400 100 L 380 100 z M 20 140 L 20 160 L 20 180 L 40 180 L 40 160 L 40 140 L 20 140 z M 280 140 L 280 160 L 260 160 L 240 160 L 240 180 L 240 200 L 240 220 L 260 220 L 260 200 L 280 200 L 300 200 L 300 180 L 300 160 L 300 140 L 280 140 z M 80 160 L 80 180 L 60 180 L 60 200 L 60 220 L 80 220 L 80 200 L 100 200 L 100 180 L 100 160 L 80 160 z M 200 160 L 200 180 L 180 180 L 180 200 L 180 220 L 180 240 L 200 240 L 200 220 L 220 220 L 220 200 L 220 180 L 220 160 L 200 160 z M 380 160 L 400 160 L 420 160 L 440 160 L 440 180 L 440 200 L 440 220 L 440 240 L 440 260 L 420 260 L 400 260 L 400 280 L 380 280 L 360 280 L 360 260 L 360 240 L 360 220 L 360 200 L 360 180 L 380 180 L 380 160 z M 480 160 L 500 160 L 520 160 L 540 160 L 540 180 L 560 180 L 560 200 L 560 220 L 560 240 L 560 260 L 560 280 L 540 280 L 520 280 L 520 260 L 500 260 L 480 260 L 480 240 L 480 220 L 480 200 L 480 180 L 480 160 z M 140 180 L 140 200 L 120 200 L 120 220 L 120 240 L 140 240 L 140 220 L 160 220 L 160 200 L 160 180 L 140 180 z M 20 300 L 20 320 L 20 340 L 40 340 L 40 320 L 40 300 L 20 300 z M 280 300 L 280 320 L 260 320 L 240 320 L 240 340 L 240 360 L 240 380 L 260 380 L 260 360 L 280 360 L 300 360 L 300 340 L 300 320 L 300 300 L 280 300 z M 80 320 L 80 340 L 60 340 L 60 360 L 60 380 L 80 380 L 80 360 L 100 360 L 100 340 L 100 320 L 80 320 z M 200 320 L 200 340 L 180 340 L 180 360 L 180 380 L 180 400 L 200 400 L 200 380 L 220 380 L 220 360 L 220 340 L 220 320 L 200 320 z M 380 320 L 400 320 L 420 320 L 440 320 L 440 340 L 440 360 L 440 380 L 440 400 L 440 420 L 420 420 L 400 420 L 400 440 L 380 440 L 360 440 L 360 420 L 360 400 L 360 380 L 360 360 L 360 340 L 380 340 L 380 320 z M 480 320 L 500 320 L 520 320 L 540 320 L 540 340 L 560 340 L 560 360 L 560 380 L 560 400 L 560 420 L 560 440 L 540 440 L 520 440 L 520 420 L 500 420 L 480 420 L 480 400 L 480 380 L 480 360 L 480 340 L 480 320 z M 140 340 L 140 360 L 120 360 L 120 380 L 120 400 L 140 400 L 140 380 L 160 380 L 160 360 L 160 340 L 140 340 z M 20 460 L 20 480 L 20 500 L 40 500 L 40 480 L 40 460 L 20 460 z M 280 460 L 280 480 L 260 480 L 240 480 L 240 500 L 240 520 L 240 540 L 260 540 L 260 520 L 280 520 L 300 520 L 300 500 L 300 480 L 300 460 L 280 460 z M 80 480 L 80 500 L 60 500 L 60 520 L 60 540 L 80 540 L 80 520 L 100 520 L 100 500 L 100 480 L 80 480 z M 200 480 L 200 500 L 180 500 L 180 520 L 180 540 L 180 560 L 200 560 L 200 540 L 220 540 L 220 520 L 220 500 L 220 480 L 200 480 z M 140 500 L 140 520 L 120 520 L 120 540 L 120 560 L 140 560 L 140 540 L 160 540 L 160 520 L 160 500 L 140 500 z "
     style="fill:#000000" />
</svg>
