<?xml version="1.0" encoding="UTF-8" standalone="no"?>
<svg
   xmlns:dc="http://purl.org/dc/elements/1.1/"
   xmlns:cc="http://creativecommons.org/ns#"
   xmlns:rdf="http://www.w3.org/1999/02/22-rdf-syntax-ns#"
   xmlns:svg="http://www.w3.org/2000/svg"
   xmlns="http://www.w3.org/2000/svg"
   height="960px"
   version="1.1"
   width="960px"
   id="svg3748">
  <metadata
     id="metadata3752">
    <rdf:RDF>
      <cc:Work
         rdf:about="">
        <dc:format>image/svg+xml</dc:format>
        <dc:type
           rdf:resource="http://purl.org/dc/dcmitype/StillImage" />
      </cc:Work>
    </rdf:RDF>
  </metadata>
  <defs
     id="defs2" />
  <path
     id="rect1964"
     d="M 400 440 L 400 460 L 400 480 L 400 500 L 420 500 L 420 480 L 420 460 L 420 440 L 400 440 z M 360 460 L 360 480 L 360 500 L 380 500 L 380 480 L 380 460 L 360 460 z "
     style="fill:#00ff00" />
  <path
     id="rect1984"
     d="M 600 460 L 600 480 L 600 500 L 620 500 L 620 480 L 620 460 L 600 460 z M 800 460 L 800 480 L 820 480 L 820 460 L 800 460 z "
     style="fill:#00ffff" />
  <path
     id="rect2002"
     d="M 780 440 L 780 460 L 780 480 L 780 500 L 800 500 L 800 480 L 800 460 L 820 460 L 840 460 L 840 440 L 820 440 L 800 440 L 780 440 z "
     style="fill:#0000ff" />
  <path
     id="rect2062"
     d="M 420 440 L 420 460 L 420 480 L 420 500 L 400 500 L 380 500 L 360 500 L 340 500 L 340 520 L 360 520 L 380 520 L 400 520 L 420 520 L 440 520 L 440 500 L 440 480 L 440 460 L 440 440 L 420 440 z "
     style="fill:#008000" />
  <path
     id="rect2082"
     d="M 580 440 L 580 460 L 580 480 L 580 500 L 560 500 L 560 520 L 580 520 L 600 520 L 620 520 L 640 520 L 640 500 L 640 480 L 640 460 L 660 460 L 660 440 L 640 440 L 620 440 L 600 440 L 580 440 z M 600 460 L 620 460 L 620 480 L 620 500 L 600 500 L 600 480 L 600 460 z M 820 460 L 820 480 L 800 480 L 800 500 L 820 500 L 840 500 L 840 480 L 840 460 L 820 460 z "
     style="fill:#008080" />
  <path
     id="rect2180"
     d="M 20 40 L 20 60 L 20 80 L 20 100 L 20 120 L 20 140 L 40 140 L 60 140 L 80 140 L 100 140 L 120 140 L 140 140 L 160 140 L 180 140 L 200 140 L 220 140 L 240 140 L 260 140 L 280 140 L 300 140 L 320 140 L 340 140 L 360 140 L 380 140 L 400 140 L 420 140 L 440 140 L 460 140 L 480 140 L 500 140 L 520 140 L 540 140 L 560 140 L 580 140 L 600 140 L 620 140 L 640 140 L 660 140 L 680 140 L 700 140 L 700 120 L 700 100 L 700 80 L 700 60 L 700 40 L 680 40 L 660 40 L 640 40 L 620 40 L 600 40 L 580 40 L 560 40 L 540 40 L 520 40 L 500 40 L 480 40 L 460 40 L 440 40 L 420 40 L 400 40 L 380 40 L 360 40 L 340 40 L 320 40 L 300 40 L 280 40 L 260 40 L 240 40 L 220 40 L 200 40 L 180 40 L 160 40 L 140 40 L 120 40 L 100 40 L 80 40 L 60 40 L 40 40 L 20 40 z M 500 60 L 520 60 L 540 60 L 560 60 L 580 60 L 600 60 L 620 60 L 640 60 L 660 60 L 680 60 L 680 80 L 680 100 L 680 120 L 660 120 L 640 120 L 620 120 L 600 120 L 580 120 L 560 120 L 540 120 L 520 120 L 500 120 L 500 100 L 500 80 L 500 60 z M 300 280 L 300 300 L 300 320 L 280 320 L 280 340 L 300 340 L 300 360 L 320 360 L 320 380 L 340 380 L 360 380 L 380 380 L 400 380 L 420 380 L 440 380 L 460 380 L 480 380 L 500 380 L 520 380 L 540 380 L 560 380 L 580 380 L 600 380 L 620 380 L 640 380 L 660 380 L 680 380 L 700 380 L 720 380 L 740 380 L 760 380 L 780 380 L 800 380 L 820 380 L 840 380 L 860 380 L 880 380 L 900 380 L 920 380 L 940 380 L 940 360 L 940 340 L 940 320 L 940 300 L 940 280 L 920 280 L 900 280 L 880 280 L 860 280 L 840 280 L 820 280 L 800 280 L 780 280 L 760 280 L 740 280 L 720 280 L 700 280 L 680 280 L 660 280 L 640 280 L 620 280 L 600 280 L 580 280 L 560 280 L 540 280 L 520 280 L 500 280 L 480 280 L 460 280 L 440 280 L 440 300 L 440 320 L 420 320 L 420 300 L 420 280 L 400 280 L 380 280 L 380 300 L 380 320 L 360 320 L 360 300 L 360 280 L 340 280 L 340 300 L 340 320 L 320 320 L 320 300 L 320 280 L 300 280 z M 740 300 L 760 300 L 780 300 L 800 300 L 820 300 L 840 300 L 860 300 L 880 300 L 900 300 L 920 300 L 920 320 L 920 340 L 920 360 L 900 360 L 880 360 L 860 360 L 840 360 L 820 360 L 800 360 L 780 360 L 760 360 L 740 360 L 740 340 L 740 320 L 740 300 z M 260 360 L 260 380 L 280 380 L 280 360 L 260 360 z M 840 440 L 840 460 L 840 480 L 840 500 L 820 500 L 800 500 L 780 500 L 760 500 L 760 520 L 780 520 L 800 520 L 820 520 L 840 520 L 860 520 L 860 500 L 860 480 L 860 460 L 860 440 L 840 440 z M 640 460 L 640 480 L 640 500 L 640 520 L 620 520 L 600 520 L 580 520 L 580 540 L 600 540 L 620 540 L 640 540 L 660 540 L 660 520 L 660 500 L 660 480 L 660 460 L 640 460 z "
     style="fill:#000080" />
  <path
     id="rect2940"
     d="M 380 140 L 380 160 L 360 160 L 360 180 L 360 200 L 380 200 L 380 180 L 400 180 L 400 160 L 400 140 L 380 140 z M 100 160 L 100 180 L 120 180 L 120 200 L 140 200 L 140 180 L 140 160 L 120 160 L 100 160 z M 20 280 L 20 300 L 20 320 L 40 320 L 60 320 L 60 300 L 60 280 L 40 280 L 20 280 z M 80 280 L 80 300 L 80 320 L 100 320 L 100 300 L 100 280 L 80 280 z M 360 280 L 360 300 L 360 320 L 380 320 L 380 300 L 380 280 L 360 280 z M 420 280 L 420 300 L 420 320 L 440 320 L 440 300 L 440 280 L 420 280 z M 120 400 L 120 420 L 100 420 L 100 440 L 100 460 L 120 460 L 120 440 L 140 440 L 140 420 L 140 400 L 120 400 z M 360 440 L 360 460 L 380 460 L 380 480 L 380 500 L 400 500 L 400 480 L 400 460 L 400 440 L 380 440 L 360 440 z M 380 680 L 380 700 L 400 700 L 400 680 L 380 680 z M 600 680 L 600 700 L 620 700 L 620 680 L 600 680 z M 800 680 L 800 700 L 820 700 L 820 680 L 800 680 z "
     style="fill:#ffff00" />
  <path
     id="rect2972"
     d="M 360 660 L 360 680 L 360 700 L 360 720 L 380 720 L 400 720 L 420 720 L 420 700 L 420 680 L 440 680 L 440 660 L 420 660 L 400 660 L 380 660 L 360 660 z M 380 680 L 400 680 L 400 700 L 380 700 L 380 680 z "
     style="fill:#ff00ff" />
  <path
     id="rect3014"
     d="M 220 160 L 220 180 L 240 180 L 260 180 L 260 160 L 240 160 L 220 160 z M 140 180 L 140 200 L 140 220 L 160 220 L 160 240 L 180 240 L 180 260 L 180 280 L 160 280 L 140 280 L 140 300 L 140 320 L 160 320 L 180 320 L 180 340 L 180 360 L 160 360 L 160 380 L 140 380 L 140 400 L 140 420 L 160 420 L 160 400 L 180 400 L 180 380 L 200 380 L 200 360 L 220 360 L 220 380 L 220 400 L 240 400 L 260 400 L 260 380 L 260 360 L 280 360 L 280 380 L 300 380 L 300 400 L 320 400 L 320 420 L 340 420 L 340 440 L 360 440 L 380 440 L 380 420 L 360 420 L 360 400 L 340 400 L 340 380 L 320 380 L 320 360 L 300 360 L 300 340 L 280 340 L 280 320 L 300 320 L 300 300 L 300 280 L 300 260 L 320 260 L 320 240 L 340 240 L 340 220 L 360 220 L 360 200 L 360 180 L 340 180 L 340 200 L 320 200 L 320 220 L 300 220 L 300 240 L 280 240 L 260 240 L 240 240 L 220 240 L 200 240 L 200 220 L 180 220 L 180 200 L 160 200 L 160 180 L 140 180 z M 220 200 L 220 220 L 240 220 L 260 220 L 260 200 L 240 200 L 220 200 z M 100 280 L 100 300 L 100 320 L 120 320 L 120 300 L 120 280 L 100 280 z M 220 280 L 240 280 L 260 280 L 260 300 L 260 320 L 240 320 L 220 320 L 220 300 L 220 280 z M 320 280 L 320 300 L 320 320 L 340 320 L 340 300 L 340 280 L 320 280 z M 220 420 L 220 440 L 240 440 L 260 440 L 260 420 L 240 420 L 220 420 z M 220 460 L 220 480 L 240 480 L 260 480 L 260 460 L 240 460 L 220 460 z M 220 500 L 220 520 L 240 520 L 260 520 L 260 500 L 240 500 L 220 500 z M 780 660 L 780 680 L 780 700 L 780 720 L 800 720 L 820 720 L 840 720 L 840 700 L 840 680 L 840 660 L 820 660 L 800 660 L 780 660 z M 800 680 L 820 680 L 820 700 L 800 700 L 800 680 z "
     style="fill:#ff0000" />
  <path
     id="rect3046"
     d="M 420 680 L 420 700 L 420 720 L 400 720 L 380 720 L 360 720 L 340 720 L 340 740 L 360 740 L 380 740 L 400 740 L 420 740 L 440 740 L 440 720 L 440 700 L 440 680 L 420 680 z "
     style="fill:#800080" />
  <path
     id="rect3068"
     d="M 580 660 L 580 680 L 580 700 L 580 720 L 560 720 L 560 740 L 580 740 L 600 740 L 620 740 L 640 740 L 660 740 L 660 720 L 660 700 L 660 680 L 660 660 L 640 660 L 620 660 L 600 660 L 580 660 z M 600 680 L 620 680 L 640 680 L 640 700 L 640 720 L 620 720 L 600 720 L 600 700 L 600 680 z "
     style="fill:#808000" />
  <path
     id="rect3088"
     d="M 840 660 L 840 680 L 840 700 L 840 720 L 820 720 L 800 720 L 780 720 L 760 720 L 760 740 L 780 740 L 800 740 L 820 740 L 840 740 L 860 740 L 860 720 L 860 700 L 860 680 L 860 660 L 840 660 z "
     style="fill:#800000" />
  <path
     id="rect3600"
     d="M 500 60 L 500 80 L 520 80 L 520 60 L 500 60 z M 560 60 L 560 80 L 580 80 L 580 60 L 560 60 z M 620 60 L 620 80 L 640 80 L 640 60 L 620 60 z M 40 160 L 40 180 L 40 200 L 40 220 L 40 240 L 40 260 L 40 280 L 60 280 L 60 300 L 60 320 L 40 320 L 40 340 L 40 360 L 40 380 L 40 400 L 40 420 L 40 440 L 40 460 L 40 480 L 40 500 L 40 520 L 40 540 L 40 560 L 40 580 L 40 600 L 40 620 L 40 640 L 60 640 L 80 640 L 100 640 L 120 640 L 140 640 L 160 640 L 180 640 L 200 640 L 220 640 L 240 640 L 240 620 L 240 600 L 240 580 L 240 560 L 240 540 L 240 520 L 220 520 L 220 500 L 240 500 L 240 480 L 220 480 L 220 460 L 240 460 L 240 440 L 220 440 L 220 420 L 240 420 L 240 400 L 220 400 L 220 380 L 220 360 L 200 360 L 200 380 L 180 380 L 180 400 L 160 400 L 160 420 L 140 420 L 140 440 L 120 440 L 120 460 L 100 460 L 100 440 L 100 420 L 120 420 L 120 400 L 140 400 L 140 380 L 160 380 L 160 360 L 180 360 L 180 340 L 180 320 L 160 320 L 140 320 L 140 300 L 140 280 L 160 280 L 180 280 L 180 260 L 180 240 L 160 240 L 160 220 L 140 220 L 140 200 L 120 200 L 120 180 L 100 180 L 100 160 L 80 160 L 60 160 L 40 160 z M 140 160 L 140 180 L 160 180 L 160 200 L 180 200 L 180 220 L 200 220 L 200 240 L 220 240 L 240 240 L 260 240 L 280 240 L 300 240 L 300 220 L 320 220 L 320 200 L 340 200 L 340 180 L 360 180 L 360 160 L 340 160 L 320 160 L 300 160 L 280 160 L 260 160 L 260 180 L 240 180 L 220 180 L 220 160 L 200 160 L 180 160 L 160 160 L 140 160 z M 400 160 L 400 180 L 380 180 L 380 200 L 360 200 L 360 220 L 340 220 L 340 240 L 320 240 L 320 260 L 340 260 L 360 260 L 380 260 L 400 260 L 420 260 L 440 260 L 460 260 L 480 260 L 500 260 L 520 260 L 540 260 L 560 260 L 580 260 L 600 260 L 620 260 L 640 260 L 660 260 L 680 260 L 680 240 L 680 220 L 680 200 L 680 180 L 680 160 L 660 160 L 640 160 L 620 160 L 600 160 L 580 160 L 560 160 L 540 160 L 520 160 L 500 160 L 480 160 L 460 160 L 440 160 L 420 160 L 400 160 z M 220 200 L 240 200 L 260 200 L 260 220 L 240 220 L 220 220 L 220 200 z M 80 280 L 100 280 L 120 280 L 120 300 L 120 320 L 100 320 L 80 320 L 80 300 L 80 280 z M 740 300 L 740 320 L 760 320 L 760 300 L 740 300 z M 800 300 L 800 320 L 820 320 L 820 300 L 800 300 z M 860 300 L 860 320 L 880 320 L 880 300 L 860 300 z M 280 400 L 280 420 L 280 440 L 280 460 L 280 480 L 280 500 L 280 520 L 280 540 L 280 560 L 280 580 L 280 600 L 280 620 L 280 640 L 280 660 L 280 680 L 280 700 L 280 720 L 280 740 L 280 760 L 280 780 L 280 800 L 280 820 L 280 840 L 280 860 L 280 880 L 300 880 L 320 880 L 340 880 L 360 880 L 380 880 L 400 880 L 420 880 L 440 880 L 460 880 L 480 880 L 500 880 L 520 880 L 540 880 L 560 880 L 580 880 L 600 880 L 620 880 L 640 880 L 660 880 L 680 880 L 700 880 L 720 880 L 740 880 L 760 880 L 780 880 L 800 880 L 820 880 L 840 880 L 860 880 L 880 880 L 900 880 L 920 880 L 940 880 L 940 860 L 940 840 L 940 820 L 940 800 L 940 780 L 940 760 L 940 740 L 940 720 L 940 700 L 940 680 L 940 660 L 940 640 L 940 620 L 940 600 L 940 580 L 940 560 L 940 540 L 940 520 L 940 500 L 940 480 L 940 460 L 940 440 L 940 420 L 940 400 L 920 400 L 900 400 L 880 400 L 860 400 L 840 400 L 820 400 L 800 400 L 780 400 L 760 400 L 740 400 L 720 400 L 700 400 L 680 400 L 660 400 L 640 400 L 620 400 L 600 400 L 580 400 L 560 400 L 540 400 L 520 400 L 500 400 L 480 400 L 460 400 L 440 400 L 420 400 L 400 400 L 380 400 L 360 400 L 360 420 L 380 420 L 380 440 L 400 440 L 420 440 L 440 440 L 440 460 L 440 480 L 440 500 L 440 520 L 440 540 L 420 540 L 400 540 L 380 540 L 360 540 L 360 520 L 340 520 L 340 500 L 360 500 L 360 480 L 360 460 L 360 440 L 340 440 L 340 420 L 320 420 L 320 400 L 300 400 L 280 400 z M 580 440 L 600 440 L 620 440 L 640 440 L 660 440 L 660 460 L 660 480 L 660 500 L 660 520 L 660 540 L 640 540 L 620 540 L 600 540 L 580 540 L 580 520 L 560 520 L 560 500 L 580 500 L 580 480 L 580 460 L 580 440 z M 780 440 L 800 440 L 820 440 L 840 440 L 860 440 L 860 460 L 860 480 L 860 500 L 860 520 L 860 540 L 840 540 L 820 540 L 800 540 L 780 540 L 780 520 L 760 520 L 760 500 L 780 500 L 780 480 L 780 460 L 780 440 z M 340 580 L 360 580 L 380 580 L 400 580 L 420 580 L 440 580 L 440 600 L 440 620 L 420 620 L 400 620 L 380 620 L 360 620 L 340 620 L 340 600 L 340 580 z M 560 580 L 580 580 L 600 580 L 620 580 L 640 580 L 660 580 L 660 600 L 660 620 L 640 620 L 620 620 L 600 620 L 580 620 L 560 620 L 560 600 L 560 580 z M 760 580 L 780 580 L 800 580 L 820 580 L 840 580 L 860 580 L 860 600 L 860 620 L 840 620 L 820 620 L 800 620 L 780 620 L 760 620 L 760 600 L 760 580 z M 360 660 L 380 660 L 400 660 L 420 660 L 440 660 L 440 680 L 440 700 L 440 720 L 440 740 L 440 760 L 420 760 L 400 760 L 380 760 L 360 760 L 360 740 L 340 740 L 340 720 L 360 720 L 360 700 L 360 680 L 360 660 z M 580 660 L 600 660 L 620 660 L 640 660 L 660 660 L 660 680 L 660 700 L 660 720 L 660 740 L 660 760 L 640 760 L 620 760 L 600 760 L 580 760 L 580 740 L 560 740 L 560 720 L 580 720 L 580 700 L 580 680 L 580 660 z M 780 660 L 800 660 L 820 660 L 840 660 L 860 660 L 860 680 L 860 700 L 860 720 L 860 740 L 860 760 L 840 760 L 820 760 L 800 760 L 780 760 L 780 740 L 760 740 L 760 720 L 780 720 L 780 700 L 780 680 L 780 660 z M 340 800 L 360 800 L 380 800 L 400 800 L 420 800 L 440 800 L 440 820 L 440 840 L 420 840 L 400 840 L 380 840 L 360 840 L 340 840 L 340 820 L 340 800 z M 560 800 L 580 800 L 600 800 L 620 800 L 640 800 L 660 800 L 660 820 L 660 840 L 640 840 L 620 840 L 600 840 L 580 840 L 560 840 L 560 820 L 560 800 z M 760 800 L 780 800 L 800 800 L 820 800 L 840 800 L 860 800 L 860 820 L 860 840 L 840 840 L 820 840 L 800 840 L 780 840 L 760 840 L 760 820 L 760 800 z "
     style="fill:#ffffff" />
  <path
     id="rect3604"
     d="M 0 20 L 0 40 L 0 60 L 0 80 L 0 100 L 0 120 L 0 140 L 0 160 L 0 180 L 0 200 L 0 220 L 0 240 L 0 260 L 0 280 L 0 300 L 0 320 L 0 340 L 0 360 L 0 380 L 0 400 L 0 420 L 0 440 L 0 460 L 0 480 L 0 500 L 0 520 L 0 540 L 0 560 L 0 580 L 0 600 L 0 620 L 0 640 L 0 660 L 20 660 L 20 640 L 20 620 L 20 600 L 20 580 L 20 560 L 20 540 L 20 520 L 20 500 L 20 480 L 20 460 L 20 440 L 20 420 L 20 400 L 20 380 L 20 360 L 20 340 L 20 320 L 20 300 L 20 280 L 20 260 L 20 240 L 20 220 L 20 200 L 20 180 L 20 160 L 20 140 L 20 120 L 20 100 L 20 80 L 20 60 L 20 40 L 40 40 L 60 40 L 80 40 L 100 40 L 120 40 L 140 40 L 160 40 L 180 40 L 200 40 L 220 40 L 240 40 L 260 40 L 280 40 L 300 40 L 320 40 L 340 40 L 360 40 L 380 40 L 400 40 L 420 40 L 440 40 L 460 40 L 480 40 L 500 40 L 520 40 L 540 40 L 560 40 L 580 40 L 600 40 L 620 40 L 640 40 L 660 40 L 680 40 L 700 40 L 700 20 L 680 20 L 660 20 L 640 20 L 620 20 L 600 20 L 580 20 L 560 20 L 540 20 L 520 20 L 500 20 L 480 20 L 460 20 L 440 20 L 420 20 L 400 20 L 380 20 L 360 20 L 340 20 L 320 20 L 300 20 L 280 20 L 260 20 L 240 20 L 220 20 L 200 20 L 180 20 L 160 20 L 140 20 L 120 20 L 100 20 L 80 20 L 60 20 L 40 20 L 20 20 L 0 20 z M 300 260 L 300 280 L 320 280 L 340 280 L 360 280 L 380 280 L 400 280 L 420 280 L 440 280 L 460 280 L 480 280 L 500 280 L 520 280 L 540 280 L 560 280 L 580 280 L 600 280 L 620 280 L 640 280 L 660 280 L 680 280 L 700 280 L 720 280 L 740 280 L 760 280 L 780 280 L 800 280 L 820 280 L 840 280 L 860 280 L 880 280 L 900 280 L 920 280 L 940 280 L 940 260 L 920 260 L 900 260 L 880 260 L 860 260 L 840 260 L 820 260 L 800 260 L 780 260 L 760 260 L 740 260 L 720 260 L 700 260 L 680 260 L 660 260 L 640 260 L 620 260 L 600 260 L 580 260 L 560 260 L 540 260 L 520 260 L 500 260 L 480 260 L 460 260 L 440 260 L 420 260 L 400 260 L 380 260 L 360 260 L 340 260 L 320 260 L 300 260 z M 240 280 L 240 300 L 240 320 L 260 320 L 260 300 L 260 280 L 240 280 z M 240 400 L 240 420 L 260 420 L 260 400 L 240 400 z M 240 440 L 240 460 L 260 460 L 260 440 L 240 440 z M 240 480 L 240 500 L 260 500 L 260 480 L 240 480 z M 240 520 L 240 540 L 240 560 L 240 580 L 240 600 L 240 620 L 240 640 L 240 660 L 240 680 L 240 700 L 240 720 L 240 740 L 240 760 L 240 780 L 240 800 L 240 820 L 240 840 L 240 860 L 240 880 L 240 900 L 260 900 L 260 880 L 260 860 L 260 840 L 260 820 L 260 800 L 260 780 L 260 760 L 260 740 L 260 720 L 260 700 L 260 680 L 260 660 L 260 640 L 260 620 L 260 600 L 260 580 L 260 560 L 260 540 L 260 520 L 240 520 z M 340 580 L 340 600 L 360 600 L 380 600 L 400 600 L 420 600 L 440 600 L 440 580 L 420 580 L 400 580 L 380 580 L 360 580 L 340 580 z M 560 580 L 560 600 L 580 600 L 600 600 L 620 600 L 640 600 L 660 600 L 660 580 L 640 580 L 620 580 L 600 580 L 580 580 L 560 580 z M 760 580 L 760 600 L 780 600 L 800 600 L 820 600 L 840 600 L 860 600 L 860 580 L 840 580 L 820 580 L 800 580 L 780 580 L 760 580 z M 340 800 L 340 820 L 360 820 L 380 820 L 400 820 L 420 820 L 440 820 L 440 800 L 420 800 L 400 800 L 380 800 L 360 800 L 340 800 z M 560 800 L 560 820 L 580 820 L 600 820 L 620 820 L 640 820 L 660 820 L 660 800 L 640 800 L 620 800 L 600 800 L 580 800 L 560 800 z M 760 800 L 760 820 L 780 820 L 800 820 L 820 820 L 840 820 L 860 820 L 860 800 L 840 800 L 820 800 L 800 800 L 780 800 L 760 800 z "
     style="fill:#808080" />
  <path
     id="rect3672"
     d="M 520 60 L 520 80 L 500 80 L 500 100 L 520 100 L 540 100 L 540 80 L 540 60 L 520 60 z M 580 60 L 580 80 L 560 80 L 560 100 L 580 100 L 600 100 L 600 80 L 600 60 L 580 60 z M 640 60 L 640 80 L 620 80 L 620 100 L 640 100 L 660 100 L 660 80 L 660 60 L 640 60 z M 20 140 L 20 160 L 20 180 L 20 200 L 20 220 L 20 240 L 20 260 L 20 280 L 40 280 L 40 260 L 40 240 L 40 220 L 40 200 L 40 180 L 40 160 L 60 160 L 80 160 L 100 160 L 120 160 L 140 160 L 160 160 L 180 160 L 200 160 L 220 160 L 240 160 L 260 160 L 280 160 L 300 160 L 320 160 L 340 160 L 360 160 L 380 160 L 380 140 L 360 140 L 340 140 L 320 140 L 300 140 L 280 140 L 260 140 L 240 140 L 220 140 L 200 140 L 180 140 L 160 140 L 140 140 L 120 140 L 100 140 L 80 140 L 60 140 L 40 140 L 20 140 z M 400 140 L 400 160 L 420 160 L 440 160 L 460 160 L 480 160 L 500 160 L 520 160 L 540 160 L 560 160 L 580 160 L 600 160 L 620 160 L 640 160 L 660 160 L 680 160 L 680 180 L 680 200 L 680 220 L 680 240 L 680 260 L 700 260 L 700 240 L 700 220 L 700 200 L 700 180 L 700 160 L 700 140 L 680 140 L 660 140 L 640 140 L 620 140 L 600 140 L 580 140 L 560 140 L 540 140 L 520 140 L 500 140 L 480 140 L 460 140 L 440 140 L 420 140 L 400 140 z M 220 280 L 220 300 L 220 320 L 240 320 L 240 300 L 240 280 L 220 280 z M 760 300 L 760 320 L 740 320 L 740 340 L 760 340 L 780 340 L 780 320 L 780 300 L 760 300 z M 820 300 L 820 320 L 800 320 L 800 340 L 820 340 L 840 340 L 840 320 L 840 300 L 820 300 z M 880 300 L 880 320 L 860 320 L 860 340 L 880 340 L 900 340 L 900 320 L 900 300 L 880 300 z M 20 320 L 20 340 L 20 360 L 20 380 L 20 400 L 20 420 L 20 440 L 20 460 L 20 480 L 20 500 L 20 520 L 20 540 L 20 560 L 20 580 L 20 600 L 20 620 L 20 640 L 20 660 L 40 660 L 60 660 L 80 660 L 100 660 L 120 660 L 140 660 L 160 660 L 180 660 L 200 660 L 220 660 L 240 660 L 240 640 L 220 640 L 200 640 L 180 640 L 160 640 L 140 640 L 120 640 L 100 640 L 80 640 L 60 640 L 40 640 L 40 620 L 40 600 L 40 580 L 40 560 L 40 540 L 40 520 L 40 500 L 40 480 L 40 460 L 40 440 L 40 420 L 40 400 L 40 380 L 40 360 L 40 340 L 40 320 L 20 320 z M 260 380 L 260 400 L 260 420 L 260 440 L 260 460 L 260 480 L 260 500 L 260 520 L 260 540 L 260 560 L 260 580 L 260 600 L 260 620 L 260 640 L 260 660 L 260 680 L 260 700 L 260 720 L 260 740 L 260 760 L 260 780 L 260 800 L 260 820 L 260 840 L 260 860 L 260 880 L 260 900 L 280 900 L 300 900 L 320 900 L 340 900 L 360 900 L 380 900 L 400 900 L 420 900 L 440 900 L 460 900 L 480 900 L 500 900 L 520 900 L 540 900 L 560 900 L 580 900 L 600 900 L 620 900 L 640 900 L 660 900 L 680 900 L 700 900 L 720 900 L 740 900 L 760 900 L 780 900 L 800 900 L 820 900 L 840 900 L 860 900 L 880 900 L 900 900 L 920 900 L 940 900 L 940 880 L 920 880 L 900 880 L 880 880 L 860 880 L 840 880 L 820 880 L 800 880 L 780 880 L 760 880 L 740 880 L 720 880 L 700 880 L 680 880 L 660 880 L 640 880 L 620 880 L 600 880 L 580 880 L 560 880 L 540 880 L 520 880 L 500 880 L 480 880 L 460 880 L 440 880 L 420 880 L 400 880 L 380 880 L 360 880 L 340 880 L 320 880 L 300 880 L 280 880 L 280 860 L 280 840 L 280 820 L 280 800 L 280 780 L 280 760 L 280 740 L 280 720 L 280 700 L 280 680 L 280 660 L 280 640 L 280 620 L 280 600 L 280 580 L 280 560 L 280 540 L 280 520 L 280 500 L 280 480 L 280 460 L 280 440 L 280 420 L 280 400 L 300 400 L 300 380 L 280 380 L 260 380 z M 340 380 L 340 400 L 360 400 L 380 400 L 400 400 L 420 400 L 440 400 L 460 400 L 480 400 L 500 400 L 520 400 L 540 400 L 560 400 L 580 400 L 600 400 L 620 400 L 640 400 L 660 400 L 680 400 L 700 400 L 720 400 L 740 400 L 760 400 L 780 400 L 800 400 L 820 400 L 840 400 L 860 400 L 880 400 L 900 400 L 920 400 L 940 400 L 940 380 L 920 380 L 900 380 L 880 380 L 860 380 L 840 380 L 820 380 L 800 380 L 780 380 L 760 380 L 740 380 L 720 380 L 700 380 L 680 380 L 660 380 L 640 380 L 620 380 L 600 380 L 580 380 L 560 380 L 540 380 L 520 380 L 500 380 L 480 380 L 460 380 L 440 380 L 420 380 L 400 380 L 380 380 L 360 380 L 340 380 z M 340 600 L 340 620 L 360 620 L 380 620 L 400 620 L 420 620 L 440 620 L 440 600 L 420 600 L 400 600 L 380 600 L 360 600 L 340 600 z M 560 600 L 560 620 L 580 620 L 600 620 L 620 620 L 640 620 L 660 620 L 660 600 L 640 600 L 620 600 L 600 600 L 580 600 L 560 600 z M 760 600 L 760 620 L 780 620 L 800 620 L 820 620 L 840 620 L 860 620 L 860 600 L 840 600 L 820 600 L 800 600 L 780 600 L 760 600 z M 620 680 L 620 700 L 600 700 L 600 720 L 620 720 L 640 720 L 640 700 L 640 680 L 620 680 z M 340 820 L 340 840 L 360 840 L 380 840 L 400 840 L 420 840 L 440 840 L 440 820 L 420 820 L 400 820 L 380 820 L 360 820 L 340 820 z M 560 820 L 560 840 L 580 840 L 600 840 L 620 840 L 640 840 L 660 840 L 660 820 L 640 820 L 620 820 L 600 820 L 580 820 L 560 820 z M 760 820 L 760 840 L 780 840 L 800 840 L 820 840 L 840 840 L 860 840 L 860 820 L 840 820 L 820 820 L 800 820 L 780 820 L 760 820 z "
     style="fill:#c0c0c0" />
  <path
     id="rect3746"
     d="M 700 20 L 700 40 L 700 60 L 700 80 L 700 100 L 700 120 L 700 140 L 700 160 L 700 180 L 700 200 L 700 220 L 700 240 L 700 260 L 720 260 L 720 240 L 720 220 L 720 200 L 720 180 L 720 160 L 720 140 L 720 120 L 720 100 L 720 80 L 720 60 L 720 40 L 720 20 L 700 20 z M 540 60 L 540 80 L 540 100 L 520 100 L 500 100 L 500 120 L 520 120 L 540 120 L 560 120 L 580 120 L 600 120 L 620 120 L 640 120 L 660 120 L 680 120 L 680 100 L 680 80 L 680 60 L 660 60 L 660 80 L 660 100 L 640 100 L 620 100 L 620 80 L 620 60 L 600 60 L 600 80 L 600 100 L 580 100 L 560 100 L 560 80 L 560 60 L 540 60 z M 940 260 L 940 280 L 940 300 L 940 320 L 940 340 L 940 360 L 940 380 L 940 400 L 940 420 L 940 440 L 940 460 L 940 480 L 940 500 L 940 520 L 940 540 L 940 560 L 940 580 L 940 600 L 940 620 L 940 640 L 940 660 L 940 680 L 940 700 L 940 720 L 940 740 L 940 760 L 940 780 L 940 800 L 940 820 L 940 840 L 940 860 L 940 880 L 940 900 L 920 900 L 900 900 L 880 900 L 860 900 L 840 900 L 820 900 L 800 900 L 780 900 L 760 900 L 740 900 L 720 900 L 700 900 L 680 900 L 660 900 L 640 900 L 620 900 L 600 900 L 580 900 L 560 900 L 540 900 L 520 900 L 500 900 L 480 900 L 460 900 L 440 900 L 420 900 L 400 900 L 380 900 L 360 900 L 340 900 L 320 900 L 300 900 L 280 900 L 260 900 L 240 900 L 240 920 L 260 920 L 280 920 L 300 920 L 320 920 L 340 920 L 360 920 L 380 920 L 400 920 L 420 920 L 440 920 L 460 920 L 480 920 L 500 920 L 520 920 L 540 920 L 560 920 L 580 920 L 600 920 L 620 920 L 640 920 L 660 920 L 680 920 L 700 920 L 720 920 L 740 920 L 760 920 L 780 920 L 800 920 L 820 920 L 840 920 L 860 920 L 880 920 L 900 920 L 920 920 L 940 920 L 960 920 L 960 900 L 960 880 L 960 860 L 960 840 L 960 820 L 960 800 L 960 780 L 960 760 L 960 740 L 960 720 L 960 700 L 960 680 L 960 660 L 960 640 L 960 620 L 960 600 L 960 580 L 960 560 L 960 540 L 960 520 L 960 500 L 960 480 L 960 460 L 960 440 L 960 420 L 960 400 L 960 380 L 960 360 L 960 340 L 960 320 L 960 300 L 960 280 L 960 260 L 940 260 z M 780 300 L 780 320 L 780 340 L 760 340 L 740 340 L 740 360 L 760 360 L 780 360 L 800 360 L 820 360 L 840 360 L 860 360 L 880 360 L 900 360 L 920 360 L 920 340 L 920 320 L 920 300 L 900 300 L 900 320 L 900 340 L 880 340 L 860 340 L 860 320 L 860 300 L 840 300 L 840 320 L 840 340 L 820 340 L 800 340 L 800 320 L 800 300 L 780 300 z M 360 520 L 360 540 L 380 540 L 400 540 L 420 540 L 440 540 L 440 520 L 420 520 L 400 520 L 380 520 L 360 520 z M 780 520 L 780 540 L 800 540 L 820 540 L 840 540 L 860 540 L 860 520 L 840 520 L 820 520 L 800 520 L 780 520 z M 0 660 L 0 680 L 20 680 L 40 680 L 60 680 L 80 680 L 100 680 L 120 680 L 140 680 L 160 680 L 180 680 L 200 680 L 220 680 L 240 680 L 240 660 L 220 660 L 200 660 L 180 660 L 160 660 L 140 660 L 120 660 L 100 660 L 80 660 L 60 660 L 40 660 L 20 660 L 0 660 z M 360 740 L 360 760 L 380 760 L 400 760 L 420 760 L 440 760 L 440 740 L 420 740 L 400 740 L 380 740 L 360 740 z M 580 740 L 580 760 L 600 760 L 620 760 L 640 760 L 660 760 L 660 740 L 640 740 L 620 740 L 600 740 L 580 740 z M 780 740 L 780 760 L 800 760 L 820 760 L 840 760 L 860 760 L 860 740 L 840 740 L 820 740 L 800 740 L 780 740 z "
     style="fill:#000000" />
</svg>
