<?xml version="1.0" encoding="UTF-8" standalone="no"?>
<svg
   id="svg246"
   width="48"
   version="1.1"
   height="48"
   sodipodi:docname="emblem-symbolic-link.svg"
   inkscape:version="1.3 (0e150ed6c4, 2023-07-21)"
   xml:space="preserve"
   xmlns:inkscape="http://www.inkscape.org/namespaces/inkscape"
   xmlns:sodipodi="http://sodipodi.sourceforge.net/DTD/sodipodi-0.dtd"
   xmlns="http://www.w3.org/2000/svg"
   xmlns:svg="http://www.w3.org/2000/svg"
   xmlns:rdf="http://www.w3.org/1999/02/22-rdf-syntax-ns#"
   xmlns:cc="http://creativecommons.org/ns#"
   xmlns:dc="http://purl.org/dc/elements/1.1/"><sodipodi:namedview
     pagecolor="#ffffff"
     bordercolor="#666666"
     borderopacity="1"
     objecttolerance="10"
     gridtolerance="10"
     guidetolerance="10"
     inkscape:pageopacity="0"
     inkscape:pageshadow="2"
     inkscape:window-width="1920"
     inkscape:window-height="1008"
     id="namedview126"
     showgrid="false"
     inkscape:zoom="12.1875"
     inkscape:cx="24"
     inkscape:cy="23.958974"
     inkscape:window-x="0"
     inkscape:window-y="0"
     inkscape:window-maximized="1"
     inkscape:current-layer="svg246"
     inkscape:showpageshadow="2"
     inkscape:pagecheckerboard="0"
     inkscape:deskcolor="#d1d1d1" /><metadata
     id="metadata250"><rdf:RDF><cc:Work
         rdf:about=""><dc:format>image/svg+xml</dc:format><dc:type
           rdf:resource="http://purl.org/dc/dcmitype/StillImage" /></cc:Work></rdf:RDF></metadata><defs
     id="defs2" /><g
     id="g3"><path
       style="fill:none"
       d="M 0,24 V 0 H 24 48 V 24 48 H 24 0 Z m 39,1.5 V 9 H 22.5 6 V 25.5 42 H 22.5 39 Z"
       id="path6" /><path
       style="fill:#fefefe"
       d="M 9,25.5 V 12 H 22.5 36 V 25.5 39 H 22.5 9 Z m 12,9 V 33 H 19.5 18 V 31.5 30 H 19.5 21 V 28.5 27 H 22.5 24 V 25.5 24 H 25.5 27 V 25.5 27 H 28.5 30 V 21 15 H 24 18 V 16.5 18 H 19.5 21 V 19.5 21 H 19.5 18 V 22.5 24 H 16.5 15 v 4.5 4.5 h 1.5 1.5 v 1.5 1.5 h 1.5 1.5 z"
       id="path5" /><path
       style="fill:#7f7f7f"
       d="M 6,24 V 9 H 21 36 V 10.5 12 H 22.5 9 V 25.5 39 H 7.5 6 Z"
       id="path4" /><path
       style="fill:#000000"
       d="M 6,40.5 V 39 H 21 36 V 24 9 H 37.5 39 V 25.5 42 H 22.5 6 Z m 12,-6 V 33 H 16.5 15 V 28.5 24 H 16.5 18 V 22.5 21 H 19.5 21 V 19.5 18 H 19.5 18 V 16.5 15 h 6 6 v 6 6 H 28.5 27 V 25.5 24 H 25.5 24 V 25.5 27 H 22.5 21 V 28.5 30 H 19.5 18 V 31.5 33 H 19.5 21 V 34.5 36 H 19.5 18 Z"
       id="path3" /></g></svg>
