<?xml version="1.0" encoding="UTF-8" standalone="no"?>
<svg
   xmlns:dc="http://purl.org/dc/elements/1.1/"
   xmlns:cc="http://creativecommons.org/ns#"
   xmlns:rdf="http://www.w3.org/1999/02/22-rdf-syntax-ns#"
   xmlns:svg="http://www.w3.org/2000/svg"
   xmlns="http://www.w3.org/2000/svg"
   xmlns:sodipodi="http://sodipodi.sourceforge.net/DTD/sodipodi-0.dtd"
   xmlns:inkscape="http://www.inkscape.org/namespaces/inkscape"
   id="svg888"
   width="96px"
   version="1.1"
   height="96px"
   sodipodi:docname="chicago95_tmp_file.svg"
   inkscape:version="0.92.4 (5da689c313, 2019-01-14)">
  <sodipodi:namedview
     pagecolor="#ffffff"
     bordercolor="#666666"
     borderopacity="1"
     objecttolerance="10"
     gridtolerance="10"
     guidetolerance="10"
     inkscape:pageopacity="0"
     inkscape:pageshadow="2"
     inkscape:window-width="640"
     inkscape:window-height="480"
     id="namedview447"
     showgrid="false"
     inkscape:zoom="2.4583333"
     inkscape:cx="47.999996"
     inkscape:cy="47.999996"
     inkscape:window-x="0"
     inkscape:window-y="0"
     inkscape:window-maximized="0"
     inkscape:current-layer="svg888" />
  <metadata
     id="metadata892">
    <rdf:RDF>
      <cc:Work
         rdf:about="">
        <dc:format>image/svg+xml</dc:format>
        <dc:type
           rdf:resource="http://purl.org/dc/dcmitype/StillImage" />
      </cc:Work>
    </rdf:RDF>
  </metadata>
  <defs
     id="defs2" />
  <path
     style="fill:#0000ff"
     d="M 9 15 L 9 18 L 12 18 L 15 18 L 18 18 L 21 18 L 21 15 L 18 15 L 15 15 L 12 15 L 9 15 z M 9 21 L 9 24 L 12 24 L 15 24 L 18 24 L 21 24 L 24 24 L 27 24 L 30 24 L 30 21 L 27 21 L 24 21 L 21 21 L 18 21 L 15 21 L 12 21 L 9 21 z M 45 21 L 45 24 L 48 24 L 48 21 L 45 21 z M 48 24 L 48 27 L 51 27 L 51 24 L 48 24 z M 51 27 L 51 30 L 54 30 L 54 27 L 51 27 z M 54 30 L 54 33 L 57 33 L 57 30 L 54 30 z M 57 33 L 57 36 L 54 36 L 51 36 L 51 39 L 54 39 L 57 39 L 60 39 L 63 39 L 63 36 L 63 33 L 63 30 L 63 27 L 60 27 L 60 30 L 60 33 L 57 33 z M 9 27 L 9 30 L 12 30 L 15 30 L 18 30 L 21 30 L 24 30 L 27 30 L 30 30 L 30 27 L 27 27 L 24 27 L 21 27 L 18 27 L 15 27 L 12 27 L 9 27 z M 9 33 L 9 36 L 12 36 L 15 36 L 18 36 L 21 36 L 24 36 L 27 36 L 30 36 L 30 33 L 27 33 L 24 33 L 21 33 L 18 33 L 15 33 L 12 33 L 9 33 z M 66 60 L 66 63 L 69 63 L 72 63 L 75 63 L 78 63 L 78 60 L 75 60 L 72 60 L 69 60 L 66 60 z M 66 66 L 66 69 L 69 69 L 72 69 L 75 69 L 78 69 L 81 69 L 84 69 L 87 69 L 87 66 L 84 66 L 81 66 L 78 66 L 75 66 L 72 66 L 69 66 L 66 66 z M 66 72 L 66 75 L 69 75 L 72 75 L 75 75 L 78 75 L 81 75 L 84 75 L 87 75 L 87 72 L 84 72 L 81 72 L 78 72 L 75 72 L 72 72 L 69 72 L 66 72 z M 66 78 L 66 81 L 69 81 L 72 81 L 75 81 L 78 81 L 81 81 L 84 81 L 87 81 L 87 78 L 84 78 L 81 78 L 78 78 L 75 78 L 72 78 L 69 78 L 66 78 z "
     id="rect750" />
  <path
     style="fill:#ffffff"
     d="M 3 3 L 3 6 L 3 9 L 3 12 L 3 15 L 3 18 L 3 21 L 3 24 L 3 27 L 3 30 L 3 33 L 3 36 L 3 39 L 3 42 L 3 45 L 6 45 L 9 45 L 12 45 L 15 45 L 18 45 L 21 45 L 24 45 L 27 45 L 30 45 L 33 45 L 33 42 L 33 39 L 33 36 L 33 33 L 33 30 L 33 27 L 33 24 L 33 21 L 33 18 L 33 15 L 33 12 L 30 12 L 27 12 L 27 9 L 27 6 L 27 3 L 24 3 L 21 3 L 18 3 L 15 3 L 12 3 L 9 3 L 6 3 L 3 3 z M 30 6 L 30 9 L 33 9 L 33 6 L 30 6 z M 9 15 L 12 15 L 15 15 L 18 15 L 21 15 L 21 18 L 18 18 L 15 18 L 12 18 L 9 18 L 9 15 z M 9 21 L 12 21 L 15 21 L 18 21 L 21 21 L 24 21 L 27 21 L 30 21 L 30 24 L 27 24 L 24 24 L 21 24 L 18 24 L 15 24 L 12 24 L 9 24 L 9 21 z M 9 27 L 12 27 L 15 27 L 18 27 L 21 27 L 24 27 L 27 27 L 30 27 L 30 30 L 27 30 L 24 30 L 21 30 L 18 30 L 15 30 L 12 30 L 9 30 L 9 27 z M 9 33 L 12 33 L 15 33 L 18 33 L 21 33 L 24 33 L 27 33 L 30 33 L 30 36 L 27 36 L 24 36 L 21 36 L 18 36 L 15 36 L 12 36 L 9 36 L 9 33 z M 60 48 L 60 51 L 60 54 L 60 57 L 60 60 L 60 63 L 60 66 L 60 69 L 60 72 L 60 75 L 60 78 L 60 81 L 60 84 L 60 87 L 60 90 L 63 90 L 66 90 L 69 90 L 72 90 L 75 90 L 78 90 L 81 90 L 84 90 L 87 90 L 90 90 L 90 87 L 90 84 L 90 81 L 90 78 L 90 75 L 90 72 L 90 69 L 90 66 L 90 63 L 90 60 L 90 57 L 87 57 L 84 57 L 84 54 L 84 51 L 84 48 L 81 48 L 78 48 L 75 48 L 72 48 L 69 48 L 66 48 L 63 48 L 60 48 z M 87 51 L 87 54 L 90 54 L 90 51 L 87 51 z M 66 60 L 69 60 L 72 60 L 75 60 L 78 60 L 78 63 L 75 63 L 72 63 L 69 63 L 66 63 L 66 60 z M 66 66 L 69 66 L 72 66 L 75 66 L 78 66 L 81 66 L 84 66 L 87 66 L 87 69 L 84 69 L 81 69 L 78 69 L 75 69 L 72 69 L 69 69 L 66 69 L 66 66 z M 66 72 L 69 72 L 72 72 L 75 72 L 78 72 L 81 72 L 84 72 L 87 72 L 87 75 L 84 75 L 81 75 L 78 75 L 75 75 L 72 75 L 69 75 L 66 75 L 66 72 z M 66 78 L 69 78 L 72 78 L 75 78 L 78 78 L 81 78 L 84 78 L 87 78 L 87 81 L 84 81 L 81 81 L 78 81 L 75 81 L 72 81 L 69 81 L 66 81 L 66 78 z "
     id="rect830" />
  <path
     style="fill:#808080"
     d="M 0 0 L 0 3 L 0 6 L 0 9 L 0 12 L 0 15 L 0 18 L 0 21 L 0 24 L 0 27 L 0 30 L 0 33 L 0 36 L 0 39 L 0 42 L 0 45 L 0 48 L 3 48 L 3 45 L 3 42 L 3 39 L 3 36 L 3 33 L 3 30 L 3 27 L 3 24 L 3 21 L 3 18 L 3 15 L 3 12 L 3 9 L 3 6 L 3 3 L 6 3 L 9 3 L 12 3 L 15 3 L 18 3 L 21 3 L 24 3 L 27 3 L 27 6 L 27 9 L 30 9 L 30 6 L 30 3 L 30 0 L 27 0 L 24 0 L 21 0 L 18 0 L 15 0 L 12 0 L 9 0 L 6 0 L 3 0 L 0 0 z M 57 45 L 57 48 L 57 51 L 57 54 L 57 57 L 57 60 L 57 63 L 57 66 L 57 69 L 57 72 L 57 75 L 57 78 L 57 81 L 57 84 L 57 87 L 57 90 L 57 93 L 60 93 L 60 90 L 60 87 L 60 84 L 60 81 L 60 78 L 60 75 L 60 72 L 60 69 L 60 66 L 60 63 L 60 60 L 60 57 L 60 54 L 60 51 L 60 48 L 63 48 L 66 48 L 69 48 L 72 48 L 75 48 L 78 48 L 81 48 L 84 48 L 84 51 L 84 54 L 87 54 L 87 51 L 87 48 L 87 45 L 84 45 L 81 45 L 78 45 L 75 45 L 72 45 L 69 45 L 66 45 L 63 45 L 60 45 L 57 45 z "
     id="rect836" />
  <path
     style="fill:#c0c0c0"
     d="M 33 12 L 33 15 L 33 18 L 33 21 L 33 24 L 33 27 L 33 30 L 33 33 L 33 36 L 33 39 L 33 42 L 33 45 L 30 45 L 27 45 L 24 45 L 21 45 L 18 45 L 15 45 L 12 45 L 9 45 L 6 45 L 3 45 L 3 48 L 6 48 L 9 48 L 12 48 L 15 48 L 18 48 L 21 48 L 24 48 L 27 48 L 30 48 L 33 48 L 36 48 L 36 45 L 36 42 L 36 39 L 36 36 L 36 33 L 36 30 L 36 27 L 36 24 L 36 21 L 36 18 L 36 15 L 36 12 L 33 12 z M 90 57 L 90 60 L 90 63 L 90 66 L 90 69 L 90 72 L 90 75 L 90 78 L 90 81 L 90 84 L 90 87 L 90 90 L 87 90 L 84 90 L 81 90 L 78 90 L 75 90 L 72 90 L 69 90 L 66 90 L 63 90 L 60 90 L 60 93 L 63 93 L 66 93 L 69 93 L 72 93 L 75 93 L 78 93 L 81 93 L 84 93 L 87 93 L 90 93 L 93 93 L 93 90 L 93 87 L 93 84 L 93 81 L 93 78 L 93 75 L 93 72 L 93 69 L 93 66 L 93 63 L 93 60 L 93 57 L 90 57 z "
     id="rect858" />
  <path
     style="fill:#000000"
     d="M 30 3 L 30 6 L 33 6 L 33 3 L 30 3 z M 33 6 L 33 9 L 30 9 L 27 9 L 27 12 L 30 12 L 33 12 L 36 12 L 36 15 L 36 18 L 36 21 L 36 24 L 36 27 L 36 30 L 36 33 L 36 36 L 36 39 L 36 42 L 36 45 L 36 48 L 33 48 L 30 48 L 27 48 L 24 48 L 21 48 L 18 48 L 15 48 L 12 48 L 9 48 L 6 48 L 3 48 L 0 48 L 0 51 L 3 51 L 6 51 L 9 51 L 12 51 L 15 51 L 18 51 L 21 51 L 24 51 L 27 51 L 30 51 L 33 51 L 36 51 L 39 51 L 39 48 L 39 45 L 39 42 L 39 39 L 39 36 L 39 33 L 39 30 L 39 27 L 39 24 L 39 21 L 39 18 L 39 15 L 39 12 L 39 9 L 36 9 L 36 6 L 33 6 z M 87 48 L 87 51 L 90 51 L 90 48 L 87 48 z M 90 51 L 90 54 L 87 54 L 84 54 L 84 57 L 87 57 L 90 57 L 93 57 L 93 60 L 93 63 L 93 66 L 93 69 L 93 72 L 93 75 L 93 78 L 93 81 L 93 84 L 93 87 L 93 90 L 93 93 L 90 93 L 87 93 L 84 93 L 81 93 L 78 93 L 75 93 L 72 93 L 69 93 L 66 93 L 63 93 L 60 93 L 57 93 L 57 96 L 60 96 L 63 96 L 66 96 L 69 96 L 72 96 L 75 96 L 78 96 L 81 96 L 84 96 L 87 96 L 90 96 L 93 96 L 96 96 L 96 93 L 96 90 L 96 87 L 96 84 L 96 81 L 96 78 L 96 75 L 96 72 L 96 69 L 96 66 L 96 63 L 96 60 L 96 57 L 96 54 L 93 54 L 93 51 L 90 51 z "
     id="rect886" />
</svg>
