<?xml version="1.0" encoding="UTF-8" standalone="no"?>
<svg
   xmlns:dc="http://purl.org/dc/elements/1.1/"
   xmlns:cc="http://creativecommons.org/ns#"
   xmlns:rdf="http://www.w3.org/1999/02/22-rdf-syntax-ns#"
   xmlns:svg="http://www.w3.org/2000/svg"
   xmlns="http://www.w3.org/2000/svg"
   xmlns:sodipodi="http://sodipodi.sourceforge.net/DTD/sodipodi-0.dtd"
   xmlns:inkscape="http://www.inkscape.org/namespaces/inkscape"
   id="svg516"
   width="96px"
   version="1.1"
   height="96px"
   sodipodi:docname="chicago95_tmp_file.svg"
   inkscape:version="0.92.4 (5da689c313, 2019-01-14)">
  <sodipodi:namedview
     pagecolor="#ffffff"
     bordercolor="#666666"
     borderopacity="1"
     objecttolerance="10"
     gridtolerance="10"
     guidetolerance="10"
     inkscape:pageopacity="0"
     inkscape:pageshadow="2"
     inkscape:window-width="640"
     inkscape:window-height="480"
     id="namedview261"
     showgrid="false"
     inkscape:zoom="2.4583333"
     inkscape:cx="47.999998"
     inkscape:cy="47.999998"
     inkscape:window-x="0"
     inkscape:window-y="0"
     inkscape:window-maximized="0"
     inkscape:current-layer="svg516" />
  <metadata
     id="metadata520">
    <rdf:RDF>
      <cc:Work
         rdf:about="">
        <dc:format>image/svg+xml</dc:format>
        <dc:type
           rdf:resource="http://purl.org/dc/dcmitype/StillImage" />
      </cc:Work>
    </rdf:RDF>
  </metadata>
  <defs
     id="defs2" />
  <path
     style="fill:#808080"
     d="M 24 24 L 24 27 L 24 30 L 24 33 L 24 36 L 24 39 L 24 42 L 24 45 L 24 48 L 24 51 L 24 54 L 24 57 L 24 60 L 24 63 L 24 66 L 24 69 L 27 69 L 27 66 L 27 63 L 27 60 L 27 57 L 27 54 L 27 51 L 27 48 L 27 45 L 27 42 L 27 39 L 27 36 L 27 33 L 27 30 L 27 27 L 30 27 L 33 27 L 36 27 L 39 27 L 42 27 L 45 27 L 48 27 L 51 27 L 54 27 L 57 27 L 60 27 L 63 27 L 66 27 L 69 27 L 69 24 L 66 24 L 63 24 L 60 24 L 57 24 L 54 24 L 51 24 L 48 24 L 45 24 L 42 24 L 39 24 L 36 24 L 33 24 L 30 24 L 27 24 L 24 24 z "
     id="rect452" />
  <path
     style="fill:#ffffff"
     d="M 27 27 L 27 30 L 27 33 L 27 36 L 27 39 L 27 42 L 27 45 L 27 48 L 27 51 L 27 54 L 27 57 L 27 60 L 27 63 L 27 66 L 27 69 L 30 69 L 33 69 L 36 69 L 39 69 L 42 69 L 45 69 L 48 69 L 51 69 L 54 69 L 57 69 L 60 69 L 63 69 L 66 69 L 69 69 L 69 66 L 69 63 L 69 60 L 69 57 L 69 54 L 69 51 L 69 48 L 69 45 L 69 42 L 69 39 L 69 36 L 69 33 L 69 30 L 69 27 L 66 27 L 63 27 L 60 27 L 57 27 L 54 27 L 51 27 L 48 27 L 45 27 L 42 27 L 39 27 L 36 27 L 33 27 L 30 27 L 27 27 z M 42 30 L 45 30 L 48 30 L 51 30 L 54 30 L 54 33 L 57 33 L 57 36 L 60 36 L 60 39 L 60 42 L 60 45 L 63 45 L 63 48 L 63 51 L 63 54 L 63 57 L 63 60 L 63 63 L 63 66 L 60 66 L 57 66 L 54 66 L 51 66 L 48 66 L 45 66 L 42 66 L 39 66 L 36 66 L 33 66 L 33 63 L 33 60 L 33 57 L 33 54 L 33 51 L 33 48 L 33 45 L 36 45 L 36 42 L 36 39 L 36 36 L 39 36 L 39 33 L 42 33 L 42 30 z M 45 33 L 45 36 L 42 36 L 42 39 L 39 39 L 39 42 L 39 45 L 42 45 L 45 45 L 48 45 L 51 45 L 54 45 L 57 45 L 57 42 L 57 39 L 54 39 L 54 36 L 51 36 L 51 33 L 48 33 L 45 33 z "
     id="rect480" />
  <path
     style="fill:#000000"
     d="M 69 24 L 69 27 L 69 30 L 69 33 L 69 36 L 69 39 L 69 42 L 69 45 L 69 48 L 69 51 L 69 54 L 69 57 L 69 60 L 69 63 L 69 66 L 69 69 L 66 69 L 63 69 L 60 69 L 57 69 L 54 69 L 51 69 L 48 69 L 45 69 L 42 69 L 39 69 L 36 69 L 33 69 L 30 69 L 27 69 L 24 69 L 24 72 L 27 72 L 30 72 L 33 72 L 36 72 L 39 72 L 42 72 L 45 72 L 48 72 L 51 72 L 54 72 L 57 72 L 60 72 L 63 72 L 66 72 L 69 72 L 72 72 L 72 69 L 72 66 L 72 63 L 72 60 L 72 57 L 72 54 L 72 51 L 72 48 L 72 45 L 72 42 L 72 39 L 72 36 L 72 33 L 72 30 L 72 27 L 72 24 L 69 24 z M 42 30 L 42 33 L 39 33 L 39 36 L 36 36 L 36 39 L 36 42 L 36 45 L 33 45 L 33 48 L 33 51 L 33 54 L 33 57 L 33 60 L 33 63 L 33 66 L 36 66 L 39 66 L 42 66 L 45 66 L 48 66 L 51 66 L 54 66 L 57 66 L 60 66 L 63 66 L 63 63 L 63 60 L 63 57 L 63 54 L 63 51 L 63 48 L 63 45 L 60 45 L 60 42 L 60 39 L 60 36 L 57 36 L 57 33 L 54 33 L 54 30 L 51 30 L 48 30 L 45 30 L 42 30 z M 45 33 L 48 33 L 51 33 L 51 36 L 54 36 L 54 39 L 57 39 L 57 42 L 57 45 L 54 45 L 51 45 L 48 45 L 45 45 L 42 45 L 39 45 L 39 42 L 39 39 L 42 39 L 42 36 L 45 36 L 45 33 z "
     id="rect514" />
</svg>
