<?xml version="1.0" encoding="UTF-8" standalone="no"?>
<svg
   xmlns:dc="http://purl.org/dc/elements/1.1/"
   xmlns:cc="http://creativecommons.org/ns#"
   xmlns:rdf="http://www.w3.org/1999/02/22-rdf-syntax-ns#"
   xmlns:svg="http://www.w3.org/2000/svg"
   xmlns="http://www.w3.org/2000/svg"
   xmlns:sodipodi="http://sodipodi.sourceforge.net/DTD/sodipodi-0.dtd"
   xmlns:inkscape="http://www.inkscape.org/namespaces/inkscape"
   id="svg722"
   width="96px"
   version="1.1"
   height="96px"
   sodipodi:docname="chicago95_tmp_file.svg"
   inkscape:version="0.92.4 (5da689c313, 2019-01-14)">
  <sodipodi:namedview
     pagecolor="#ffffff"
     bordercolor="#666666"
     borderopacity="1"
     objecttolerance="10"
     gridtolerance="10"
     guidetolerance="10"
     inkscape:pageopacity="0"
     inkscape:pageshadow="2"
     inkscape:window-width="640"
     inkscape:window-height="480"
     id="namedview364"
     showgrid="false"
     inkscape:zoom="2.4583333"
     inkscape:cx="47.999996"
     inkscape:cy="47.999996"
     inkscape:window-x="0"
     inkscape:window-y="0"
     inkscape:window-maximized="0"
     inkscape:current-layer="svg722" />
  <metadata
     id="metadata726">
    <rdf:RDF>
      <cc:Work
         rdf:about="">
        <dc:format>image/svg+xml</dc:format>
        <dc:type
           rdf:resource="http://purl.org/dc/dcmitype/StillImage" />
      </cc:Work>
    </rdf:RDF>
  </metadata>
  <defs
     id="defs2" />
  <path
     style="fill:#00ffff"
     d="M 39 15 L 39 18 L 39 21 L 39 24 L 39 27 L 39 30 L 39 33 L 39 36 L 39 39 L 36 39 L 33 39 L 30 39 L 27 39 L 24 39 L 21 39 L 18 39 L 15 39 L 15 42 L 15 45 L 15 48 L 18 48 L 21 48 L 24 48 L 27 48 L 30 48 L 33 48 L 36 48 L 39 48 L 42 48 L 42 45 L 45 45 L 45 42 L 48 42 L 48 39 L 48 36 L 48 33 L 48 30 L 48 27 L 48 24 L 48 21 L 48 18 L 48 15 L 45 15 L 42 15 L 39 15 z M 48 42 L 48 45 L 51 45 L 51 42 L 48 42 z M 51 42 L 54 42 L 54 39 L 51 39 L 51 42 z M 48 45 L 45 45 L 45 48 L 48 48 L 48 45 z M 45 48 L 42 48 L 42 51 L 45 51 L 45 48 z M 42 51 L 39 51 L 39 54 L 42 54 L 42 51 z "
     id="rect464" />
  <path
     style="fill:#ffffff"
     d="M 36 12 L 36 15 L 36 18 L 36 21 L 36 24 L 36 27 L 36 30 L 36 33 L 36 36 L 33 36 L 30 36 L 27 36 L 24 36 L 21 36 L 18 36 L 15 36 L 12 36 L 12 39 L 12 42 L 12 45 L 12 48 L 15 48 L 15 45 L 15 42 L 15 39 L 18 39 L 21 39 L 24 39 L 27 39 L 30 39 L 33 39 L 36 39 L 39 39 L 39 36 L 39 33 L 39 30 L 39 27 L 39 24 L 39 21 L 39 18 L 39 15 L 42 15 L 45 15 L 48 15 L 51 15 L 51 12 L 48 12 L 45 12 L 42 12 L 39 12 L 36 12 z M 48 36 L 48 39 L 51 39 L 54 39 L 57 39 L 60 39 L 63 39 L 66 39 L 69 39 L 72 39 L 75 39 L 75 36 L 72 36 L 69 36 L 66 36 L 63 36 L 60 36 L 57 36 L 54 36 L 51 36 L 48 36 z M 36 48 L 36 51 L 36 54 L 36 57 L 36 60 L 36 63 L 36 66 L 36 69 L 36 72 L 36 75 L 39 75 L 39 72 L 39 69 L 39 66 L 39 63 L 39 60 L 39 57 L 39 54 L 39 51 L 39 48 L 36 48 z "
     id="rect642" />
  <path
     style="fill:#008080"
     d="M 48 39 L 48 42 L 51 42 L 51 39 L 48 39 z M 51 42 L 51 45 L 48 45 L 48 48 L 51 48 L 54 48 L 57 48 L 60 48 L 63 48 L 66 48 L 69 48 L 72 48 L 75 48 L 75 45 L 75 42 L 75 39 L 72 39 L 69 39 L 66 39 L 63 39 L 60 39 L 57 39 L 54 39 L 54 42 L 51 42 z M 48 48 L 45 48 L 45 51 L 42 51 L 42 54 L 39 54 L 39 57 L 39 60 L 39 63 L 39 66 L 39 69 L 39 72 L 39 75 L 42 75 L 45 75 L 48 75 L 48 72 L 48 69 L 48 66 L 48 63 L 48 60 L 48 57 L 48 54 L 48 51 L 48 48 z M 42 51 L 42 48 L 39 48 L 39 51 L 42 51 z M 42 48 L 45 48 L 45 45 L 42 45 L 42 48 z M 45 45 L 48 45 L 48 42 L 45 42 L 45 45 z "
     id="rect648" />
  <path
     style="fill:#000000"
     d="M 51 9 L 51 12 L 51 15 L 51 18 L 51 21 L 51 24 L 51 27 L 51 30 L 51 33 L 51 36 L 54 36 L 54 33 L 54 30 L 54 27 L 54 24 L 54 21 L 54 18 L 54 15 L 54 12 L 54 9 L 51 9 z M 78 33 L 78 36 L 78 39 L 78 42 L 78 45 L 78 48 L 78 51 L 75 51 L 72 51 L 69 51 L 66 51 L 63 51 L 60 51 L 57 51 L 54 51 L 51 51 L 51 54 L 51 57 L 51 60 L 51 63 L 51 66 L 51 69 L 51 72 L 51 75 L 51 78 L 48 78 L 45 78 L 42 78 L 39 78 L 36 78 L 33 78 L 33 81 L 36 81 L 39 81 L 42 81 L 45 81 L 48 81 L 51 81 L 54 81 L 54 78 L 54 75 L 54 72 L 54 69 L 54 66 L 54 63 L 54 60 L 54 57 L 54 54 L 57 54 L 60 54 L 63 54 L 66 54 L 69 54 L 72 54 L 75 54 L 78 54 L 81 54 L 81 51 L 81 48 L 81 45 L 81 42 L 81 39 L 81 36 L 81 33 L 78 33 z M 12 51 L 12 54 L 15 54 L 18 54 L 21 54 L 24 54 L 27 54 L 30 54 L 33 54 L 36 54 L 36 51 L 33 51 L 30 51 L 27 51 L 24 51 L 21 51 L 18 51 L 15 51 L 12 51 z "
     id="rect688" />
  <path
     style="fill:#808080"
     d="M 33 9 L 33 12 L 33 15 L 33 18 L 33 21 L 33 24 L 33 27 L 33 30 L 33 33 L 30 33 L 27 33 L 24 33 L 21 33 L 18 33 L 15 33 L 12 33 L 9 33 L 9 36 L 9 39 L 9 42 L 9 45 L 9 48 L 9 51 L 9 54 L 12 54 L 12 51 L 15 51 L 18 51 L 21 51 L 24 51 L 27 51 L 30 51 L 33 51 L 36 51 L 36 48 L 33 48 L 30 48 L 27 48 L 24 48 L 21 48 L 18 48 L 15 48 L 12 48 L 12 45 L 12 42 L 12 39 L 12 36 L 15 36 L 18 36 L 21 36 L 24 36 L 27 36 L 30 36 L 33 36 L 36 36 L 36 33 L 36 30 L 36 27 L 36 24 L 36 21 L 36 18 L 36 15 L 36 12 L 39 12 L 42 12 L 45 12 L 48 12 L 51 12 L 51 9 L 48 9 L 45 9 L 42 9 L 39 9 L 36 9 L 33 9 z M 48 15 L 48 18 L 48 21 L 48 24 L 48 27 L 48 30 L 48 33 L 48 36 L 51 36 L 51 33 L 51 30 L 51 27 L 51 24 L 51 21 L 51 18 L 51 15 L 48 15 z M 54 15 L 54 18 L 54 21 L 54 24 L 54 27 L 54 30 L 54 33 L 54 36 L 57 36 L 60 36 L 63 36 L 66 36 L 69 36 L 72 36 L 75 36 L 75 39 L 75 42 L 75 45 L 75 48 L 72 48 L 69 48 L 66 48 L 63 48 L 60 48 L 57 48 L 54 48 L 51 48 L 48 48 L 48 51 L 48 54 L 48 57 L 48 60 L 48 63 L 48 66 L 48 69 L 48 72 L 48 75 L 45 75 L 42 75 L 39 75 L 36 75 L 36 72 L 36 69 L 36 66 L 36 63 L 36 60 L 36 57 L 36 54 L 33 54 L 33 57 L 33 60 L 33 63 L 33 66 L 33 69 L 33 72 L 33 75 L 33 78 L 36 78 L 39 78 L 42 78 L 45 78 L 48 78 L 51 78 L 51 75 L 51 72 L 51 69 L 51 66 L 51 63 L 51 60 L 51 57 L 51 54 L 51 51 L 54 51 L 57 51 L 60 51 L 63 51 L 66 51 L 69 51 L 72 51 L 75 51 L 78 51 L 78 48 L 78 45 L 78 42 L 78 39 L 78 36 L 78 33 L 75 33 L 72 33 L 69 33 L 66 33 L 63 33 L 60 33 L 60 30 L 60 27 L 60 24 L 60 21 L 60 18 L 60 15 L 57 15 L 54 15 z M 81 39 L 81 42 L 81 45 L 81 48 L 81 51 L 81 54 L 78 54 L 75 54 L 72 54 L 69 54 L 66 54 L 63 54 L 60 54 L 57 54 L 54 54 L 54 57 L 54 60 L 54 63 L 54 66 L 54 69 L 54 72 L 54 75 L 54 78 L 54 81 L 51 81 L 48 81 L 45 81 L 42 81 L 39 81 L 39 84 L 39 87 L 42 87 L 45 87 L 48 87 L 51 87 L 54 87 L 57 87 L 60 87 L 60 84 L 60 81 L 60 78 L 60 75 L 60 72 L 60 69 L 60 66 L 60 63 L 60 60 L 63 60 L 66 60 L 69 60 L 72 60 L 75 60 L 78 60 L 81 60 L 84 60 L 87 60 L 87 57 L 87 54 L 87 51 L 87 48 L 87 45 L 87 42 L 87 39 L 84 39 L 81 39 z "
     id="rect720" />
</svg>
