<?xml version="1.0" encoding="UTF-8" standalone="no"?>
<svg
   xmlns:dc="http://purl.org/dc/elements/1.1/"
   xmlns:cc="http://creativecommons.org/ns#"
   xmlns:rdf="http://www.w3.org/1999/02/22-rdf-syntax-ns#"
   xmlns:svg="http://www.w3.org/2000/svg"
   xmlns="http://www.w3.org/2000/svg"
   xmlns:sodipodi="http://sodipodi.sourceforge.net/DTD/sodipodi-0.dtd"
   xmlns:inkscape="http://www.inkscape.org/namespaces/inkscape"
   id="svg556"
   width="96px"
   version="1.1"
   height="96px"
   sodipodi:docname="chicago95_tmp_file.svg"
   inkscape:version="0.92.4 (5da689c313, 2019-01-14)">
  <sodipodi:namedview
     pagecolor="#ffffff"
     bordercolor="#666666"
     borderopacity="1"
     objecttolerance="10"
     gridtolerance="10"
     guidetolerance="10"
     inkscape:pageopacity="0"
     inkscape:pageshadow="2"
     inkscape:window-width="640"
     inkscape:window-height="480"
     id="namedview281"
     showgrid="false"
     inkscape:zoom="2.4583333"
     inkscape:cx="47.999998"
     inkscape:cy="47.999998"
     inkscape:window-x="0"
     inkscape:window-y="0"
     inkscape:window-maximized="0"
     inkscape:current-layer="svg556" />
  <metadata
     id="metadata560">
    <rdf:RDF>
      <cc:Work
         rdf:about="">
        <dc:format>image/svg+xml</dc:format>
        <dc:type
           rdf:resource="http://purl.org/dc/dcmitype/StillImage" />
      </cc:Work>
    </rdf:RDF>
  </metadata>
  <defs
     id="defs2" />
  <path
     style="fill:#ece600"
     d="M 39 24 L 39 27 L 36 27 L 33 27 L 33 30 L 30 30 L 30 33 L 27 33 L 27 36 L 27 39 L 24 39 L 24 42 L 24 45 L 24 48 L 24 51 L 24 54 L 27 54 L 27 57 L 27 60 L 30 60 L 30 63 L 33 63 L 33 66 L 36 66 L 39 66 L 39 69 L 42 69 L 45 69 L 48 69 L 51 69 L 54 69 L 57 69 L 57 66 L 60 66 L 63 66 L 63 63 L 66 63 L 66 60 L 69 60 L 69 57 L 69 54 L 72 54 L 72 51 L 72 48 L 72 45 L 72 42 L 72 39 L 69 39 L 69 36 L 69 33 L 66 33 L 66 30 L 63 30 L 63 27 L 60 27 L 57 27 L 57 24 L 54 24 L 51 24 L 48 24 L 45 24 L 42 24 L 39 24 z "
     id="rect512" />
  <path
     style="fill:#000000"
     d="M 39 21 L 39 24 L 42 24 L 45 24 L 48 24 L 51 24 L 54 24 L 57 24 L 57 21 L 54 21 L 51 21 L 48 21 L 45 21 L 42 21 L 39 21 z M 57 24 L 57 27 L 60 27 L 63 27 L 63 24 L 60 24 L 57 24 z M 63 27 L 63 30 L 66 30 L 66 27 L 63 27 z M 66 30 L 66 33 L 69 33 L 69 30 L 66 30 z M 69 33 L 69 36 L 69 39 L 72 39 L 72 36 L 72 33 L 69 33 z M 72 39 L 72 42 L 72 45 L 72 48 L 72 51 L 72 54 L 75 54 L 75 51 L 75 48 L 75 45 L 75 42 L 75 39 L 72 39 z M 72 54 L 69 54 L 69 57 L 69 60 L 72 60 L 72 57 L 72 54 z M 69 60 L 66 60 L 66 63 L 69 63 L 69 60 z M 66 63 L 63 63 L 63 66 L 66 66 L 66 63 z M 63 66 L 60 66 L 57 66 L 57 69 L 60 69 L 63 69 L 63 66 z M 57 69 L 54 69 L 51 69 L 48 69 L 45 69 L 42 69 L 39 69 L 39 72 L 42 72 L 45 72 L 48 72 L 51 72 L 54 72 L 57 72 L 57 69 z M 39 69 L 39 66 L 36 66 L 33 66 L 33 69 L 36 69 L 39 69 z M 33 66 L 33 63 L 30 63 L 30 66 L 33 66 z M 30 63 L 30 60 L 27 60 L 27 63 L 30 63 z M 27 60 L 27 57 L 27 54 L 24 54 L 24 57 L 24 60 L 27 60 z M 24 54 L 24 51 L 24 48 L 24 45 L 24 42 L 24 39 L 21 39 L 21 42 L 21 45 L 21 48 L 21 51 L 21 54 L 24 54 z M 24 39 L 27 39 L 27 36 L 27 33 L 24 33 L 24 36 L 24 39 z M 27 33 L 30 33 L 30 30 L 27 30 L 27 33 z M 30 30 L 33 30 L 33 27 L 30 27 L 30 30 z M 33 27 L 36 27 L 39 27 L 39 24 L 36 24 L 33 24 L 33 27 z "
     id="rect534" />
  <path
     style="fill:#808080"
     d="M 66 27 L 66 30 L 69 30 L 69 27 L 66 27 z M 69 30 L 69 33 L 72 33 L 72 30 L 69 30 z M 72 33 L 72 36 L 72 39 L 75 39 L 75 42 L 75 45 L 75 48 L 75 51 L 75 54 L 72 54 L 72 57 L 72 60 L 69 60 L 69 63 L 66 63 L 66 66 L 63 66 L 63 69 L 60 69 L 57 69 L 57 72 L 54 72 L 51 72 L 48 72 L 45 72 L 45 75 L 48 75 L 51 75 L 54 75 L 57 75 L 60 75 L 63 75 L 63 72 L 66 72 L 69 72 L 69 69 L 72 69 L 72 66 L 75 66 L 75 63 L 78 63 L 78 60 L 78 57 L 81 57 L 81 54 L 81 51 L 81 48 L 81 45 L 81 42 L 78 42 L 78 39 L 78 36 L 75 36 L 75 33 L 72 33 z "
     id="rect554" />
</svg>
