<?xml version="1.0" standalone="no"?>
<!DOCTYPE svg PUBLIC "-//W3C//DTD SVG 1.1//EN" "http://www.w3.org/Graphics/SVG/1.1/DTD/svg11.dtd" >
<svg xmlns="http://www.w3.org/2000/svg">
<metadata>
This is a custom SVG webfont generated by Font Squirrel.
Copyright   : Copyright c 2011 by Tyler Finck All rights reserved
Designer    : Tyler Finck
Foundry     : Tyler Finck
Foundry URL : httpwwwsurslycom
</metadata>
<defs>
<font id="OstrichSansBlack" horiz-adv-x="1705" >
<font-face units-per-em="2048" ascent="1536" descent="-512" />
<missing-glyph horiz-adv-x="630" />
<glyph unicode=" "  horiz-adv-x="630" />
<glyph unicode="&#x09;" horiz-adv-x="630" />
<glyph unicode="&#xa0;" horiz-adv-x="630" />
<glyph unicode="!" horiz-adv-x="299" d="M0 4v217h193v-217h-193zM0 334v1179h193v-1179h-193z" />
<glyph unicode="&#x22;" horiz-adv-x="579" d="M0 1200v309h193v-309h-193zM285 1200v309h192v-309h-192z" />
<glyph unicode="#" horiz-adv-x="1169" d="M-41 467v195h311l37 192h-284v195h323l90 464h197l-90 -464h157l88 464h197l-88 -464h233v-195h-270l-39 -192h246v-195h-283l-90 -467h-196l90 467h-158l-92 -467h-197l90 467h-272zM467 662h158l39 192h-158z" />
<glyph unicode="$" horiz-adv-x="729" d="M0 1032q0 78 19.5 142.5t54.5 115.5q55 76 149 109v114h195v-112q53 -16 88 -42t57 -52q78 -100 78 -275v-96h-195v96q0 109 -34 154q-10 10 -30 21.5t-63 11.5t-68.5 -22.5t-38.5 -53.5t-16 -62.5t-3 -48.5q0 -39 10 -65.5t28.5 -47t44 -37t56.5 -30.5q10 -4 19 -9 t18 -12q12 -4 24 -10q27 -12 70 -35.5t82 -63.5t67.5 -100.5t28.5 -148.5q0 -154 -78 -254q-57 -78 -145 -102v-117h-195v115q-53 14 -89 40.5t-56 53.5q-78 96 -78 272v99h193v-99q0 -109 36 -151q8 -10 27.5 -22.5t62.5 -12.5q41 0 67 18.5t39 46t17 58.5t4 55 q0 39 -10 65.5t-27.5 45t-42 33t-53.5 28.5q-29 10 -43 21q-4 4 -11 7t-15 7l-70 39q-41 23 -80 63q-94 100 -94 250z" />
<glyph unicode="%" horiz-adv-x="1259" d="M0 1022v176q0 55 17.5 101.5t48 80t73.5 52t92 18.5q102 0 168 -70.5t66 -181.5v-176q0 -55 -17.5 -101.5t-48 -80t-73.5 -52t-95 -18.5q-100 0 -165.5 70.5t-65.5 181.5zM193 1022q0 -59 38.5 -59t38.5 59v176q0 59 -38.5 59t-38.5 -59v-176zM199 4l559 1509h207 l-559 -1509h-207zM694 315v177q0 111 65.5 181t168.5 70q49 0 92 -18t73.5 -52t48 -80t17.5 -101v-177q0 -55 -17.5 -101t-48 -80t-73.5 -52.5t-92 -18.5q-102 0 -168 70.5t-66 181.5zM889 315q0 -59 39 -59t39 59v177q0 59 -39 59t-39 -59v-177z" />
<glyph unicode="&#x26;" horiz-adv-x="1036" d="M0 408q0 80 19.5 140t51 106t70.5 82l78 69l15.5 12t13.5 12q-18 31 -38 70t-36 84t-27.5 91t-11.5 93q0 152 43 232q63 115 197 114q145 0 205 -133q23 -49 27.5 -106t4.5 -107q0 -86 -21.5 -166.5t-62.5 -148.5l-18 -29q-8 -12 -16 -22l161 -275q4 35 4 69v62v99h195 v-99q0 -76 -9 -177t-48 -197l174 -279h-230l-65 102q-119 -102 -301 -102q-84 0 -156 32t-123 91q-96 115 -96 281zM193 408q0 -37 10 -75t31.5 -67.5t56.5 -49t84 -19.5q131 0 198 82l-223 385l-6 -7l-63 -56q-29 -26 -48.5 -53.5t-29.5 -61t-10 -78.5zM330 1167 q0 -41 15 -88t38 -90q14 35 24.5 79t10.5 99v26q0 17 -2 36.5t-5 39t-10 34.5q-4 10 -8 13t-18.5 3t-17.5 -2t-7 -8q-8 -14 -14 -45t-6 -97z" />
<glyph unicode="'" horiz-adv-x="323" d="M0 1200v309h193v-309h-193z" />
<glyph unicode="(" horiz-adv-x="421" d="M0 739q0 362 98 576q41 86 78 123t49 45l105 -162q2 0 4 2l-23 -26q-23 -26 -49 -91t-47.5 -179t-21.5 -288q0 -166 20 -275.5t45 -174t47.5 -92t26.5 -31.5l-105 -164q-12 8 -49 43t-78 121q-51 104 -75.5 248.5t-24.5 324.5z" />
<glyph unicode=")" horiz-adv-x="438" d="M0 162l23 25q23 26 48 91.5t46.5 178t21.5 288.5q0 166 -19.5 275.5t-44 174.5t-47 92.5t-26.5 31.5l104 164q12 -8 49.5 -43t77.5 -121q100 -209 101 -574q0 -180 -24.5 -324.5t-76.5 -250.5q-39 -86 -75.5 -123t-48.5 -45l-105 162q-2 0 -4 -2z" />
<glyph unicode="*" horiz-adv-x="753" d="M0 1210l68 181l172 -64v184h192v-184l172 64l68 -181l-170 -63l129 -148l-146 -127l-149 168l-150 -168l-145 127l129 148z" />
<glyph unicode="+" horiz-adv-x="935" d="M0 662v192h299v299h195v-299h299v-192h-299v-302h-195v302h-299z" />
<glyph unicode="," horiz-adv-x="323" d="M0 6v211h193v-395z" />
<glyph unicode="-" horiz-adv-x="770" d="M0 662v192h629v-192h-629z" />
<glyph unicode="." horiz-adv-x="380" d="M0 0v217h193v-217h-193z" />
<glyph unicode="/" horiz-adv-x="854" d="M0 0l559 1509h207l-559 -1509h-207z" />
<glyph unicode="0" horiz-adv-x="770" d="M0 436v641q0 195 72 303q84 129 247.5 129t247.5 -129q74 -109 74 -303v-641q0 -195 -74 -305q-84 -131 -247.5 -131t-247.5 131q-72 112 -72 305zM193 436q0 -92 15 -141t35.5 -71.5t42 -26.5t34 -4t34 4t42 26.5t35.5 71.5t15 141v641q0 90 -15 138.5t-35.5 71 t-42 26.5t-34 4t-34 -4t-42 -26.5t-35.5 -71t-15 -138.5v-641z" />
<glyph unicode="1" horiz-adv-x="563" d="M0 1165l242 344h186v-1509h-192v1159l-86 -119z" />
<glyph unicode="2" horiz-adv-x="737" d="M0 0v96q0 94 17.5 171t50 148.5t75.5 141.5l97 150l79 110l53 72q24 33 40 66.5t25 71.5t9 87q0 18 -4 52t-17 68t-38 58.5t-68 24.5q-16 0 -37.5 -3t-42 -22.5t-33.5 -62.5t-13 -121v-98h-193v98q0 184 76 287q29 41 87 77.5t156 36.5q70 0 128.5 -27.5t99.5 -77.5 t65.5 -122t26.5 -158h2v-16h-2q-2 -72 -16.5 -128t-37 -104.5t-50.5 -90.5l-60 -83l-37 -50l-37 -54l-77 -119q-35 -53 -59.5 -101t-40 -92t-23.5 -93h118h224h98v-193h-98h-224h-319z" />
<glyph unicode="3" horiz-adv-x="737" d="M0 430v96h193v-96q0 -86 13 -130t27 -64q10 -16 29 -29.5t57 -13.5q45 0 71 30.5t38 69.5t15 76t3 51q0 68 -20 113t-48 72.5t-59.5 39.5t-52.5 12h-96h2v193h94q20 0 52 12t60 40t48 73t20 112q0 8 -3 45t-15 78t-37.5 74t-71.5 33q-12 0 -33.5 -4t-42 -26.5t-35.5 -71 t-15 -138.5v-96h-193v96q0 195 72 303q86 129 247.5 129t249.5 -139q72 -113 72 -283q0 -125 -42 -203.5t-87 -119.5l-10 -10q4 -2 5 -4t5 -7q45 -41 87 -119.5t42 -203.5q0 -84 -18.5 -154.5t-53.5 -126.5q-88 -139 -250 -139q-160 0 -247 127q-35 55 -53.5 130t-18.5 173z " />
<glyph unicode="4" horiz-adv-x="778" d="M0 422v192l471 895h176v-1509h-192v422h-455zM221 614h234v451z" />
<glyph unicode="5" horiz-adv-x="761" d="M0 322v32h193v-32q0 -12 6 -35t21.5 -43.5t39 -35.5t60 -15t61.5 23.5t39 59t20 75.5t6 73v147q0 80 -12 123t-26 62q-10 16 -29 27.5t-59.5 11.5t-59 -13.5t-29.5 -25.5q-39 -51 -38 -152v-65v-2h-193v2v65v905h193h448v-192h-448v-352q57 25 126 24q100 0 160 -40 t88 -81q74 -109 74 -297v-147q0 -168 -72 -281q-43 -70 -107.5 -106.5t-142.5 -36.5q-72 0 -133 28.5t-106 82.5q-39 45 -59.5 100.5t-20.5 110.5z" />
<glyph unicode="6" horiz-adv-x="753" d="M0 387v197v2v407q0 225 68 355q41 78 105.5 119.5t145.5 41.5q78 0 140.5 -28.5t105.5 -85.5q76 -104 76 -265v-65h-195v65q0 100 -36 148q-10 12 -30 25.5t-61 13.5q-43 0 -67.5 -37t-37.5 -89t-17 -106.5t-4 -91.5v-14q55 29 126 29q162 0 248 -123q74 -109 74 -301 v-152q0 -96 -23.5 -176t-65.5 -137.5t-101.5 -88t-131.5 -30.5q-156 0 -243 119q-76 100 -76 268zM193 387q0 -102 38 -154q10 -12 29 -26t59 -14q37 0 62 24.5t39 61t20 78.5t6 75v152q0 86 -14 133t-33.5 68.5t-42 25.5t-37.5 4q-45 0 -69.5 -31.5t-36.5 -71.5t-16 -77 t-4 -49v-199z" />
<glyph unicode="7" horiz-adv-x="878" d="M0 1317v192h793v-182l-557 -1327h-211l555 1317h-580z" />
<glyph unicode="8" horiz-adv-x="794" d="M0 426q0 203 78 305q4 6 9 12.5t9 12.5q-6 6 -18 22q-78 102 -78 307q0 203 78 306q86 119 264 118q176 0 264 -118q78 -106 78 -306q0 -201 -78 -307q-12 -16 -18 -22l18 -25q78 -106 78 -305q0 -104 -19.5 -179t-58.5 -128q-90 -119 -264 -119q-176 0 -264 119 q-78 104 -78 307zM193 426q0 -88 14 -135t35.5 -68.5t48 -25.5t51.5 -4t50.5 4t47 25.5t35.5 68.5t14 135q0 86 -12 130t-26 62q-10 14 -33 27.5t-76 13.5t-75.5 -13t-33.5 -28q-14 -18 -27 -62t-13 -130zM193 1085q0 -88 14 -135t35.5 -68.5t48 -25.5t51.5 -4t50.5 4 t47 25.5t35.5 68.5t14 135q0 86 -14 133.5t-35.5 69t-47 25.5t-50.5 4t-51.5 -4t-48 -25.5t-35.5 -69t-14 -133.5z" />
<glyph unicode="9" horiz-adv-x="753" d="M0 930v151q0 172 72 287q43 70 106.5 105.5t140.5 35.5q160 0 246 -114q76 -104 76 -269v-196v-4v-412q0 -113 -17.5 -202t-50.5 -152q-41 -78 -106.5 -119t-147.5 -41q-78 0 -140 30.5t-105 90.5q-74 104 -74 276v66h193v-66q0 -78 15 -118.5t36.5 -60t42 -22.5t32.5 -3 q41 0 67 33.5t39 82.5t17 104.5t4 100.5v14q-61 -29 -127 -28q-162 0 -245 125q-74 110 -74 305zM193 930q0 -88 14 -136.5t33.5 -70t41 -25.5t37.5 -4q45 0 71 32t38 73t15 78.5t3 50.5v198q0 72 -15 111t-35.5 56.5t-42 20.5t-34.5 3q-47 0 -72.5 -34t-37.5 -75t-14 -79.5 t-2 -47.5v-151z" />
<glyph unicode=":" horiz-adv-x="299" d="M0 334v284h193v-284h-193zM0 897v285h193v-285h-193z" />
<glyph unicode=";" horiz-adv-x="323" d="M0 422v196h193v-391zM0 897v285h193v-285h-193z" />
<glyph unicode="&#x3c;" />
<glyph unicode="=" d="M0 436v193h629v-193h-629zM0 887v192h629v-192h-629z" />
<glyph unicode="&#x3e;" />
<glyph unicode="?" horiz-adv-x="745" d="M0 995v97q0 186 74 294q86 123 245 123q78 0 142.5 -35.5t107.5 -105.5q66 -104 70 -258h2v-18h-2q-2 -82 -27.5 -151t-59.5 -123t-71 -95l-63 -68l-25 -24q-23 -29 -26.5 -74t-3.5 -123v-102h-195v102q0 45 1 89t8 84t23.5 77t45.5 72q8 8 16 17t19 20l49 51 q29 31 54.5 69.5t42.5 86t19 102.5q0 31 -7 68.5t-21.5 70.5t-38 54.5t-60.5 21.5q-14 0 -35.5 -3t-42 -24.5t-34.5 -67.5t-14 -130v-97h-193zM168 0v217h192v-217h-192z" />
<glyph unicode="@" horiz-adv-x="1417" d="M-29 805q41 254 207 424q74 76 167 126t198 72q73 15 144 16q25 0 50 -2q96 -7 182.5 -40t158 -89.5t122.5 -133.5q35 -57 57.5 -130t28.5 -155q1 -22 1 -44q0 -55 -7 -109q-10 -75 -37 -138q-25 -66 -78 -119t-125 -90q-70 -35 -138 -46q-30 -5 -58 -5q-35 0 -66 8 q-84 25 -116 96q-29 -4 -55.5 -5t-49.5 -1q-141 0 -211 80q-58 66 -58 178q0 31 5 66q18 147 90 225q82 92 225 92q29 0 60.5 -3t66.5 -13l2 22l193 -32l-17 -97l-4 -25l-10 -65l-14 -87l-17 -95q-8 -47 -14 -87t-10 -62q14 0 35.5 4t50.5 16q49 20 85 51t48 66q18 45 26 99 q5 35 4 69q0 20 -1 40q-4 54 -17.5 104t-38.5 87q-35 51 -83 90t-107.5 60.5t-126.5 25.5q-15 1 -30 1q-53 0 -107 -11q-168 -35 -280 -158t-140 -307q-9 -58 -10 -111q0 -96 31 -176q48 -123 171 -196q78 -47 173 -69q77 -17 156 -17q19 0 38 1q98 5 192.5 36.5t169.5 87.5 l78 55l115 -156l-78 -57q-111 -78 -244 -119t-272 -41q-117 0 -226.5 28t-203.5 87q-164 98 -238 266q-55 122 -54 270q-1 68 11 142zM483 741q-3 -26 -2 -45q0 -38 11 -49q4 -4 20 -9t45 -5q72 0 84 12q10 10 23.5 47t29.5 129q3 21 4 32q0 13 -4 19q-6 4 -27.5 9.5 t-58.5 5.5q-23 0 -42 -4t-35.5 -18.5t-29 -43.5t-18.5 -80z" />
<glyph unicode="A" horiz-adv-x="894" d="M0 0l348 1509h154l352 -1509h-201l-96 422h-262l-96 -422h-199zM340 614h172l-86 371z" />
<glyph unicode="B" horiz-adv-x="770" d="M0 0v193v1316h291q193 0 282 -114q88 -102 89 -310q0 -205 -89 -311q-4 -6 -16 -18q12 -12 16 -21q88 -106 89 -311q0 -207 -89 -309q-92 -115 -282 -115h-98h-193zM193 852h98q66 0 94.5 15.5t38.5 29.5q43 51 43 188q0 80 -13.5 126t-37 70t-56 30t-69.5 6h-98v-465z M193 193h98q37 0 69.5 6t56 29.5t37 69.5t13.5 126q0 82 -14.5 129t-38 70.5t-55 29.5t-68.5 6h-98v-466z" />
<glyph unicode="C" horiz-adv-x="794" d="M0 432v647q0 201 86 312q33 41 97.5 79.5t175 38.5t174 -38.5t96.5 -79.5q88 -113 88 -312v-96h-195v96q0 88 -17.5 137.5t-43 71t-54 25.5t-49.5 4q-23 0 -50 -4t-54 -25.5t-44 -71t-17 -137.5v-647q0 -133 47 -192q10 -14 36.5 -30.5t82 -16.5t81 16t37.5 31 q45 61 45 192v96h195v-96q0 -199 -88 -311q-33 -41 -96.5 -81t-174.5 -40q-55 0 -98 11.5t-76.5 28.5t-57.5 38.5t-40 42.5q-86 110 -86 311z" />
<glyph unicode="D" horiz-adv-x="802" d="M0 0v1509h301q195 0 293 -120q90 -109 90 -316v-635q0 -207 -90 -317q-98 -121 -293 -121h-301zM193 193h108q37 0 71 7t59.5 31.5t41.5 73.5t16 133v635q0 84 -16 133t-41.5 74t-59.5 31t-71 6h-108v-1124z" />
<glyph unicode="E" horiz-adv-x="761" d="M0 0v1509h625v-192h-432v-465h432v-193h-432v-466h432v-193h-625z" />
<glyph unicode="F" horiz-adv-x="761" d="M0 0v1509h625v-192h-432v-465h432v-193h-432v-659h-193z" />
<glyph unicode="G" horiz-adv-x="845" d="M0 430v651q0 203 88 312q92 117 270 116q180 0 273 -116q88 -109 88 -312v-96h-195v96q0 82 -14 129t-37.5 71t-53.5 30t-60.5 6t-60.5 -6t-53.5 -30t-37.5 -71t-14 -129v-651q0 -90 17 -138t44 -69.5t54.5 -25.5t50 -4t51 4t54 25.5t43 69.5t17.5 138v115h-233v194h428 v-309q0 -203 -88 -311q-33 -41 -97.5 -80t-175.5 -39q-109 0 -173 39t-97 80q-88 108 -88 311z" />
<glyph unicode="H" horiz-adv-x="837" d="M0 0v1509h193v-657h290v657h195v-1509h-195v657h-290v-657h-193z" />
<glyph unicode="I" horiz-adv-x="413" d="M61 0v1509h193v-1509h-193z" />
<glyph unicode="J" horiz-adv-x="829" d="M0 401v99h193v-99q0 -78 15 -120.5t37.5 -62t47 -22.5t45.5 -3q51 0 73.5 13t32.5 27q39 49 39 168v1108h193v-1108q0 -188 -82 -290q-29 -37 -90.5 -74t-165.5 -37q-102 0 -163.5 37t-92.5 74q-82 102 -82 290z" />
<glyph unicode="K" horiz-adv-x="919" d="M0 549l2 4v958h193v-659l428 659h231l-459 -706l445 -803h-222l-344 619l-79 -125v-494h-193v547h-2z" />
<glyph unicode="L" horiz-adv-x="729" d="M0 2v1509h193v-1316h464v-193h-657z" />
<glyph unicode="M" horiz-adv-x="1101" d="M0 2v1509h170l305 -1062l303 1062h170v-1509h-192v723l-209 -723h-146l-208 723v-723h-193z" />
<glyph unicode="N" horiz-adv-x="870" d="M0 2v1509h162l368 -913v913h195v-1509h-164l-368 913v-913h-193z" />
<glyph unicode="O" horiz-adv-x="829" d="M0 432v649q0 201 86 312q16 20 40 40.5t57.5 38t76.5 28.5t98 11q111 0 175.5 -38.5t97.5 -79.5q86 -111 86 -312v-649q0 -201 -86 -311q-33 -41 -97.5 -80t-175.5 -39q-109 0 -174 39t-98 80q-86 110 -86 311zM193 432q0 -90 17 -138t44 -69.5t54.5 -25.5t49.5 -4 q20 0 49 4t55.5 25.5t44 69.5t17.5 138v649q0 88 -17.5 136.5t-44 70t-55 25.5t-49.5 4q-23 0 -50 -4t-54 -25.5t-44 -70t-17 -136.5v-649z" />
<glyph unicode="P" horiz-adv-x="786" d="M0 2v1509h313q193 0 293 -112q92 -109 92 -312q0 -207 -92 -313q-98 -115 -293 -115h-120v-657h-193zM193 854h120q80 0 109 18.5t37 28.5q45 47 45 186q0 74 -12.5 119t-36 69.5t-59.5 33t-83 8.5h-120v-463z" />
<glyph unicode="Q" horiz-adv-x="829" d="M0 438v649q0 137 37 221.5t91 129.5t116.5 59t113.5 14q49 0 111.5 -14t118 -59t92.5 -129t37 -222v-649q0 -172 -66 -280l207 -248h-252l-98 119q-31 -12 -68 -20.5t-82 -8.5q-55 0 -98 11.5t-76.5 29.5t-57.5 40.5t-40 43.5q-86 112 -86 313zM193 438q0 -135 47 -194 q12 -16 37.5 -32.5t80.5 -16.5h15l-146 180h242l43 -53q10 51 10 116v649q0 80 -14 125t-38 69t-52.5 30t-59 6t-60.5 -6t-53.5 -30t-37.5 -69t-14 -125v-649z" />
<glyph unicode="R" horiz-adv-x="854" d="M0 2v1509h313q195 0 293 -114q90 -104 90 -316q0 -209 -90 -317q-4 -4 -9 -10t-11 -11q55 -53 84.5 -126.5t29.5 -167.5v-447h-194v447q0 199 -193 198h-96h-24v-645h-193zM193 842h24h96q78 0 108 18.5t38 28.5q45 57 45 192q0 76 -12.5 122t-36 71.5t-59.5 34t-83 8.5 h-120v-475z" />
<glyph unicode="S" horiz-adv-x="813" d="M0 430v96h193v-96q0 -133 47 -190q10 -14 36.5 -29.5t83.5 -15.5q55 0 88 23.5t50.5 57t22.5 73.5t5 71q0 53 -16 90t-43 62.5t-59.5 43t-65.5 31.5l-37 17q-33 14 -83 39.5t-99 72.5q-123 119 -123 303q0 96 25.5 176t73.5 136.5t115 88t146 31.5q111 0 175.5 -38.5 t97.5 -79.5q88 -113 88 -314v-96h-195v96q0 88 -17 137.5t-44 71t-55.5 25.5t-49.5 4q-59 0 -91.5 -28.5t-50 -68.5t-21.5 -80t-4 -61q0 -53 16 -91t43 -65.5t60.5 -47t70.5 -33.5l33 -15q29 -12 79 -35.5t99 -70.5q127 -117 127 -301q0 -174 -86 -289q-100 -129 -275 -129 q-180 0 -272 117q-88 108 -88 311z" />
<glyph unicode="T" horiz-adv-x="944" d="M0 1317v194h854v-194h-330v-1315h-194v1315h-330z" />
<glyph unicode="U" horiz-adv-x="829" d="M0 403v1108h193v-1108q0 -78 15 -120.5t37.5 -62t47 -22.5t45 -3t45.5 3t47.5 22.5t37.5 62.5t15 120v1108h193v-1108q0 -188 -82 -288q-31 -41 -92.5 -77t-163.5 -36t-163.5 36t-92.5 77q-82 100 -82 288z" />
<glyph unicode="V" horiz-adv-x="944" d="M0 1511h199l252 -1013l256 1013h198l-379 -1509h-151z" />
<glyph unicode="W" horiz-adv-x="1474" d="M0 1509h199l213 -962l213 962h155l211 -962l213 962h199l-334 -1509h-156l-211 965l-213 -965h-155z" />
<glyph unicode="X" horiz-adv-x="1019" d="M0 0l356 756l-350 753h215l244 -526l250 526h215l-359 -753l355 -756h-213l-248 528l-250 -528h-215z" />
<glyph unicode="Y" horiz-adv-x="1036" d="M-61 1509h221l305 -553l307 553h221l-432 -778v-731h-192v731z" />
<glyph unicode="Z" horiz-adv-x="935" d="M0 1317v192h778v-186l-528 -1130h561v-193h-778v188l528 1129h-561z" />
<glyph unicode="[" />
<glyph unicode="\" horiz-adv-x="786" d="M0 1509h207l559 -1509h-207z" />
<glyph unicode="]" />
<glyph unicode="^" />
<glyph unicode="_" horiz-adv-x="952" d="M0 0h956v-74h-956v74zM0 -121h956v-74h-956v74z" />
<glyph unicode="`" horiz-adv-x="323" d="M0 1204v309h193v-309h-193zM72 1276h49v164h-49v-164z" />
<glyph unicode="a" horiz-adv-x="894" d="M0 0l348 1509h154l352 -1509h-201l-96 422h-262l-96 -422h-199zM340 614h172l-86 371z" />
<glyph unicode="b" horiz-adv-x="770" d="M0 0v193v1316h291q193 0 282 -114q88 -102 89 -310q0 -205 -89 -311q-4 -6 -16 -18q12 -12 16 -21q88 -106 89 -311q0 -207 -89 -309q-92 -115 -282 -115h-98h-193zM193 852h98q66 0 94.5 15.5t38.5 29.5q43 51 43 188q0 80 -13.5 126t-37 70t-56 30t-69.5 6h-98v-465z M193 193h98q37 0 69.5 6t56 29.5t37 69.5t13.5 126q0 82 -14.5 129t-38 70.5t-55 29.5t-68.5 6h-98v-466z" />
<glyph unicode="c" horiz-adv-x="794" d="M0 432v647q0 201 86 312q33 41 97.5 79.5t175 38.5t174 -38.5t96.5 -79.5q88 -113 88 -312v-96h-195v96q0 88 -17.5 137.5t-43 71t-54 25.5t-49.5 4q-23 0 -50 -4t-54 -25.5t-44 -71t-17 -137.5v-647q0 -133 47 -192q10 -14 36.5 -30.5t82 -16.5t81 16t37.5 31 q45 61 45 192v96h195v-96q0 -199 -88 -311q-33 -41 -96.5 -81t-174.5 -40q-55 0 -98 11.5t-76.5 28.5t-57.5 38.5t-40 42.5q-86 110 -86 311z" />
<glyph unicode="d" horiz-adv-x="802" d="M0 0v1509h301q195 0 293 -120q90 -109 90 -316v-635q0 -207 -90 -317q-98 -121 -293 -121h-301zM193 193h108q37 0 71 7t59.5 31.5t41.5 73.5t16 133v635q0 84 -16 133t-41.5 74t-59.5 31t-71 6h-108v-1124z" />
<glyph unicode="e" horiz-adv-x="761" d="M0 0v1509h625v-192h-432v-465h432v-193h-432v-466h432v-193h-625z" />
<glyph unicode="f" horiz-adv-x="761" d="M0 0v1509h625v-192h-432v-465h432v-193h-432v-659h-193z" />
<glyph unicode="g" horiz-adv-x="845" d="M0 430v651q0 203 88 312q92 117 270 116q180 0 273 -116q88 -109 88 -312v-96h-195v96q0 82 -14 129t-37.5 71t-53.5 30t-60.5 6t-60.5 -6t-53.5 -30t-37.5 -71t-14 -129v-651q0 -90 17 -138t44 -69.5t54.5 -25.5t50 -4t51 4t54 25.5t43 69.5t17.5 138v115h-233v194h428 v-309q0 -203 -88 -311q-33 -41 -97.5 -80t-175.5 -39q-109 0 -173 39t-97 80q-88 108 -88 311z" />
<glyph unicode="h" horiz-adv-x="837" d="M0 0v1509h193v-657h290v657h195v-1509h-195v657h-290v-657h-193z" />
<glyph unicode="i" horiz-adv-x="413" d="M61 0v1509h193v-1509h-193z" />
<glyph unicode="j" horiz-adv-x="829" d="M0 401v99h193v-99q0 -78 15 -120.5t37.5 -62t47 -22.5t45.5 -3q51 0 73.5 13t32.5 27q39 49 39 168v1108h193v-1108q0 -188 -82 -290q-29 -37 -90.5 -74t-165.5 -37q-102 0 -163.5 37t-92.5 74q-82 102 -82 290z" />
<glyph unicode="k" horiz-adv-x="919" d="M0 549l2 4v958h193v-659l428 659h231l-459 -706l445 -803h-222l-344 619l-79 -125v-494h-193v547h-2z" />
<glyph unicode="l" horiz-adv-x="729" d="M0 2v1509h193v-1316h464v-193h-657z" />
<glyph unicode="m" horiz-adv-x="1101" d="M0 2v1509h170l305 -1062l303 1062h170v-1509h-192v723l-209 -723h-146l-208 723v-723h-193z" />
<glyph unicode="n" horiz-adv-x="870" d="M0 2v1509h162l368 -913v913h195v-1509h-164l-368 913v-913h-193z" />
<glyph unicode="o" horiz-adv-x="829" d="M0 432v649q0 201 86 312q16 20 40 40.5t57.5 38t76.5 28.5t98 11q111 0 175.5 -38.5t97.5 -79.5q86 -111 86 -312v-649q0 -201 -86 -311q-33 -41 -97.5 -80t-175.5 -39q-109 0 -174 39t-98 80q-86 110 -86 311zM193 432q0 -90 17 -138t44 -69.5t54.5 -25.5t49.5 -4 q20 0 49 4t55.5 25.5t44 69.5t17.5 138v649q0 88 -17.5 136.5t-44 70t-55 25.5t-49.5 4q-23 0 -50 -4t-54 -25.5t-44 -70t-17 -136.5v-649z" />
<glyph unicode="p" horiz-adv-x="786" d="M0 2v1509h313q193 0 293 -112q92 -109 92 -312q0 -207 -92 -313q-98 -115 -293 -115h-120v-657h-193zM193 854h120q80 0 109 18.5t37 28.5q45 47 45 186q0 74 -12.5 119t-36 69.5t-59.5 33t-83 8.5h-120v-463z" />
<glyph unicode="q" horiz-adv-x="829" d="M0 438v649q0 137 37 221.5t91 129.5t116.5 59t113.5 14q49 0 111.5 -14t118 -59t92.5 -129t37 -222v-649q0 -172 -66 -280l207 -248h-252l-98 119q-31 -12 -68 -20.5t-82 -8.5q-55 0 -98 11.5t-76.5 29.5t-57.5 40.5t-40 43.5q-86 112 -86 313zM193 438q0 -135 47 -194 q12 -16 37.5 -32.5t80.5 -16.5h15l-146 180h242l43 -53q10 51 10 116v649q0 80 -14 125t-38 69t-52.5 30t-59 6t-60.5 -6t-53.5 -30t-37.5 -69t-14 -125v-649z" />
<glyph unicode="r" horiz-adv-x="854" d="M0 2v1509h313q195 0 293 -114q90 -104 90 -316q0 -209 -90 -317q-4 -4 -9 -10t-11 -11q55 -53 84.5 -126.5t29.5 -167.5v-447h-194v447q0 199 -193 198h-96h-24v-645h-193zM193 842h24h96q78 0 108 18.5t38 28.5q45 57 45 192q0 76 -12.5 122t-36 71.5t-59.5 34t-83 8.5 h-120v-475z" />
<glyph unicode="s" horiz-adv-x="813" d="M0 430v96h193v-96q0 -133 47 -190q10 -14 36.5 -29.5t83.5 -15.5q55 0 88 23.5t50.5 57t22.5 73.5t5 71q0 53 -16 90t-43 62.5t-59.5 43t-65.5 31.5l-37 17q-33 14 -83 39.5t-99 72.5q-123 119 -123 303q0 96 25.5 176t73.5 136.5t115 88t146 31.5q111 0 175.5 -38.5 t97.5 -79.5q88 -113 88 -314v-96h-195v96q0 88 -17 137.5t-44 71t-55.5 25.5t-49.5 4q-59 0 -91.5 -28.5t-50 -68.5t-21.5 -80t-4 -61q0 -53 16 -91t43 -65.5t60.5 -47t70.5 -33.5l33 -15q29 -12 79 -35.5t99 -70.5q127 -117 127 -301q0 -174 -86 -289q-100 -129 -275 -129 q-180 0 -272 117q-88 108 -88 311z" />
<glyph unicode="t" horiz-adv-x="944" d="M0 1317v194h854v-194h-330v-1315h-194v1315h-330z" />
<glyph unicode="u" horiz-adv-x="829" d="M0 403v1108h193v-1108q0 -78 15 -120.5t37.5 -62t47 -22.5t45 -3t45.5 3t47.5 22.5t37.5 62.5t15 120v1108h193v-1108q0 -188 -82 -288q-31 -41 -92.5 -77t-163.5 -36t-163.5 36t-92.5 77q-82 100 -82 288z" />
<glyph unicode="v" horiz-adv-x="944" d="M0 1511h199l252 -1013l256 1013h198l-379 -1509h-151z" />
<glyph unicode="w" horiz-adv-x="1474" d="M0 1509h199l213 -962l213 962h155l211 -962l213 962h199l-334 -1509h-156l-211 965l-213 -965h-155z" />
<glyph unicode="x" horiz-adv-x="1019" d="M0 0l356 756l-350 753h215l244 -526l250 526h215l-359 -753l355 -756h-213l-248 528l-250 -528h-215z" />
<glyph unicode="y" horiz-adv-x="1036" d="M-61 1509h221l305 -553l307 553h221l-432 -778v-731h-192v731z" />
<glyph unicode="z" horiz-adv-x="935" d="M0 1317v192h778v-186l-528 -1130h561v-193h-778v188l528 1129h-561z" />
<glyph unicode="{" />
<glyph unicode="|" horiz-adv-x="413" d="M61 0v1509h193v-1509h-193z" />
<glyph unicode="}" />
<glyph unicode="~" />
<glyph unicode="&#xa9;" />
<glyph unicode="&#xad;" horiz-adv-x="770" d="M0 662v192h629v-192h-629z" />
<glyph unicode="&#xae;" />
<glyph unicode="&#x2000;" horiz-adv-x="755" />
<glyph unicode="&#x2001;" horiz-adv-x="1513" />
<glyph unicode="&#x2002;" horiz-adv-x="755" />
<glyph unicode="&#x2003;" horiz-adv-x="1513" />
<glyph unicode="&#x2004;" horiz-adv-x="503" />
<glyph unicode="&#x2005;" horiz-adv-x="376" />
<glyph unicode="&#x2006;" horiz-adv-x="251" />
<glyph unicode="&#x2007;" horiz-adv-x="251" />
<glyph unicode="&#x2008;" horiz-adv-x="188" />
<glyph unicode="&#x2009;" horiz-adv-x="301" />
<glyph unicode="&#x200a;" horiz-adv-x="83" />
<glyph unicode="&#x2010;" horiz-adv-x="770" d="M0 662v192h629v-192h-629z" />
<glyph unicode="&#x2011;" horiz-adv-x="770" d="M0 662v192h629v-192h-629z" />
<glyph unicode="&#x2012;" horiz-adv-x="770" d="M0 662v192h629v-192h-629z" />
<glyph unicode="&#x2013;" horiz-adv-x="770" d="M0 662v192h629v-192h-629z" />
<glyph unicode="&#x2014;" horiz-adv-x="770" d="M0 662v192h629v-192h-629z" />
<glyph unicode="&#x2018;" horiz-adv-x="323" d="M0 1200v309h193v-309h-193z" />
<glyph unicode="&#x2019;" horiz-adv-x="323" d="M0 1200v309h193v-309h-193z" />
<glyph unicode="&#x201c;" horiz-adv-x="579" d="M0 1200v309h193v-309h-193zM285 1200v309h192v-309h-192z" />
<glyph unicode="&#x201d;" horiz-adv-x="579" d="M0 1200v309h193v-309h-193zM285 1200v309h192v-309h-192z" />
<glyph unicode="&#x2022;" />
<glyph unicode="&#x2026;" horiz-adv-x="1142" d="M0 0v217h193v-217h-193zM381 0v217h192v-217h-192zM762 0v217h192v-217h-192z" />
<glyph unicode="&#x202f;" horiz-adv-x="301" />
<glyph unicode="&#x205f;" horiz-adv-x="376" />
<glyph unicode="&#xe000;" horiz-adv-x="1510" d="M0 1510h1510v-1510h-1510v1510z" />
</font>
</defs>
</svg>
