<?xml version="1.0" standalone="no"?>
<!DOCTYPE svg PUBLIC "-//W3C//DTD SVG 1.1//EN" "http://www.w3.org/Graphics/SVG/1.1/DTD/svg11.dtd" >
<svg xmlns="http://www.w3.org/2000/svg">
<metadata>
This is a custom SVG webfont generated by Font Squirrel.
Copyright   : Copyright c 2011 by Tyler Finck All rights reserved
Designer    : Tyler Finck
Foundry     : Tyler Finck
Foundry URL : httpwwwsurslycom
</metadata>
<defs>
<font id="OstrichSansMedium" horiz-adv-x="1705" >
<font-face units-per-em="2048" ascent="1536" descent="-512" />
<missing-glyph horiz-adv-x="430" />
<glyph unicode=" "  horiz-adv-x="430" />
<glyph unicode="&#x09;" horiz-adv-x="430" />
<glyph unicode="&#xa0;" horiz-adv-x="430" />
<glyph unicode="!" horiz-adv-x="190" d="M18 2v88h64v-88h-64zM18 203v1179h64v-1179h-64z" />
<glyph unicode="&#x22;" horiz-adv-x="331" d="M20 1200v180h64v-180h-64zM141 1200v180h66v-180h-66z" />
<glyph unicode="#" horiz-adv-x="1110" d="M-41 463v65h299l64 322h-299v65h311l90 465h68l-93 -465h291l88 465h66l-88 -465h245v-65h-260l-61 -322h258v-65h-272l-88 -463h-66l88 463h-289l-90 -463h-65l90 463h-287zM324 528h288l64 322h-289z" />
<glyph unicode="$" horiz-adv-x="655" d="M39 965q0 135 61 219q57 82 162 94v102h64v-102q41 -4 80.5 -19.5t71.5 -51.5t51.5 -95t19.5 -147v-33h-64v33q0 74 -14 121t-36.5 74.5t-51.5 38.5t-57 15v-514q4 -2 7 -3t7 -3q27 -12 63.5 -32.5t68.5 -53.5t54.5 -82t22.5 -120q0 -66 -15.5 -120.5t-46.5 -95.5 q-59 -78 -161 -90v-100h-64v100q-41 4 -81 20.5t-71.5 51.5t-51 93.5t-19.5 148.5v32h63v-32q0 -74 14.5 -121t37 -75t51 -40t57.5 -14v498l-8 4l-8 4l-63 35q-36 20 -67.5 54t-54 84t-22.5 122zM102 965q0 -53 15.5 -91t38 -64t51.5 -44t55 -31v477q-43 -6 -73.5 -29.5 t-50 -58t-28 -75.5t-8.5 -84zM326 166q76 10 117.5 72.5t41.5 167.5q0 53 -15 89.5t-38.5 62.5t-52.5 42l-53 29v-463z" />
<glyph unicode="%" horiz-adv-x="919" d="M0 922v176q0 84 47 136t121 52t121 -52t47 -136v-176q0 -84 -47 -136.5t-121 -52.5t-121 52.5t-47 136.5zM63 922q0 -43 24 -83t81 -40t79.5 40t22.5 83v176q0 43 -22.5 83t-79.5 40t-81 -40t-24 -83v-176zM109 0l553 1380h69l-553 -1380h-69zM502 281v176q0 84 46 135 t122 51q74 0 120 -51t46 -135v-176q0 -84 -46.5 -136.5t-119.5 -52.5q-76 0 -122 52.5t-46 136.5zM565 281q0 -43 22.5 -84t82.5 -41q57 0 79.5 41t22.5 84v176q0 20 -5 41.5t-17.5 40t-32 30t-48 11.5t-49 -11.5t-33 -30t-17.5 -40t-5 -41.5v-176z" />
<glyph unicode="&#x26;" horiz-adv-x="878" d="M0 340q0 68 16.5 119t44 91t63.5 73l73 65q16 16 34 32l37 32q-14 20 -36.5 59t-44 86t-37 99.5t-15.5 103.5q0 70 9.5 118t25.5 82q43 80 139 80q104 0 146 -94q18 -41 23 -92t5 -94q0 -74 -15 -133.5t-35.5 -104.5t-44 -74.5t-38.5 -46.5l268 -460q29 78 35 160.5 t6 148.5v20h66v-20q0 -78 -10 -180.5t-53 -194.5q0 -2 -1.5 -2t-1.5 -2l123 -211h-73l-86 147q-104 -147 -314 -147q-143 0 -227 100q-82 95 -82 240zM63 340q0 -51 14.5 -101.5t45.5 -89t77 -62.5t109 -24q190 0 277 146l-285 485l-32 -27l-31 -28q-37 -31 -69 -60.5 t-55.5 -63.5t-37 -76t-13.5 -99zM201 1100q0 -41 12 -85t29.5 -85t37 -76t33.5 -57q10 10 20.5 24.5t20.5 30.5q63 106 64 248q0 68 -8.5 109.5t-21.5 66t-33.5 33t-45.5 8.5q-23 0 -42 -7t-33.5 -30t-23.5 -65.5t-9 -114.5z" />
<glyph unicode="'" horiz-adv-x="165" d="M20 1200v180h64v-180h-64z" />
<glyph unicode="(" horiz-adv-x="339" d="M14 686q0 209 30 342t64.5 210t65.5 106.5t35 31.5l37 -55q-12 -10 -27 -27q-12 -14 -26.5 -36.5t-30.5 -57.5q-29 -66 -56.5 -188.5t-27.5 -325.5q0 -201 27.5 -323.5t56.5 -186.5q16 -35 29.5 -56.5t25.5 -35.5q12 -16 27 -25l-33 -55q-4 4 -36 33t-66 104 q-47 98 -71 234.5t-24 310.5z" />
<glyph unicode=")" horiz-adv-x="323" d="M27 1321h2l32 55q4 -4 36 -31.5t67 -105.5q94 -195 94 -545q0 -209 -29.5 -342t-65.5 -209.5t-68 -106.5t-34 -32l-34 55q10 10 24 27l26 37q15 23 32 57q29 63 56.5 187.5t27.5 326.5q0 100 -7.5 181t-19.5 143.5t-26.5 109t-28.5 76.5q-31 68 -56.5 92.5t-27.5 24.5z " />
<glyph unicode="*" horiz-adv-x="604" d="M20 1174l23 61l199 -74v211h63v-211l199 74l22 -61l-198 -74l149 -168l-49 -43l-156 176l-153 -176l-49 43l147 168z" />
<glyph unicode="+" horiz-adv-x="786" d="M25 651v66h299v299h65v-299h299v-66h-299v-299h-65v299h-299z" />
<glyph unicode="," horiz-adv-x="174" d="M27 -82v170h63v-170h-63z" />
<glyph unicode="-" horiz-adv-x="612" d="M27 657v64h499v-64h-499z" />
<glyph unicode="." horiz-adv-x="165" d="M25 0v88h65v-88h-65z" />
<glyph unicode="/" horiz-adv-x="786" d="M43 0l553 1380h70l-553 -1380h-70z" />
<glyph unicode="0" horiz-adv-x="655" d="M18 371v641q0 176 62 268q63 100 194 100q129 0 193 -100q63 -96 63 -268v-641q0 -172 -61 -269q-68 -102 -195 -102q-129 0 -194 102q-62 93 -62 269zM82 371q0 -307 192 -308q190 0 191 308v641q0 305 -191 305q-193 0 -192 -305v-641z" />
<glyph unicode="1" horiz-adv-x="397" d="M16 1108l209 272h64v-1380h-66v1270l-157 -203z" />
<glyph unicode="2" horiz-adv-x="655" d="M25 1010v32q0 162 63.5 250t192.5 88q123 0 194 -98q61 -90 62 -231q0 -279 -234 -488q-109 -96 -159 -215t-54 -285h191h223h33v-63h-33h-223h-256v33q0 92 12 167.5t37 141.5q53 150 186 270q211 193 211 439q0 123 -49 194.5t-141 71.5q-96 0 -142 -64 q-49 -68 -49 -211v-32h-65z" />
<glyph unicode="3" horiz-adv-x="620" d="M20 365v32h66v-32q0 -158 51 -230q47 -72 139 -72q88 0 140 80q27 39 39 93.5t12 119.5q0 92 -28.5 147.5t-59.5 84.5q-41 39 -83 54t-73 15h-59v64h59q37 0 80 18.5t79 55t60.5 93t24.5 134.5q0 66 -12.5 120t-38.5 95q-49 80 -140 80q-190 0 -190 -303v-33h-66v33 q0 174 62 266q68 100 194.5 100t194.5 -110q61 -92 61 -248q0 -106 -35.5 -174t-72.5 -103q-37 -37 -78 -57q45 -23 78 -55q37 -35 72.5 -101.5t35.5 -175.5q0 -164 -69.5 -260t-186.5 -96q-127 0 -194 98q-62 93 -62 267z" />
<glyph unicode="4" horiz-adv-x="663" d="M20 422v61l486 897h61v-1380h-65v422h-482zM96 485h406v750z" />
<glyph unicode="5" horiz-adv-x="634" d="M18 360v23h66v-23q0 -156 51 -227q45 -70 139 -70q90 0 140 84q27 41 39 95.5t12 117.5v146q0 152 -49 223q-45 66 -142 66q-90 0 -139 -78q-51 -80 -51 -211v-8v-4h-66v4v8v874h66h446v-63h-446v-561q70 104 190 104q125 0 195 -94q61 -90 61 -260v-146q0 -72 -16 -136 t-45 -111q-70 -113 -195 -113q-127 0 -192 96q-64 94 -64 264z" />
<glyph unicode="6" horiz-adv-x="638" d="M18 324v194v2v408q0 147 27 237t66 137.5t84 62.5t79 15q127 0 193 -90q63 -82 63 -225v-31h-65v31q0 121 -49 186.5t-142 65.5q-61 0 -99 -40t-58.5 -99.5t-26.5 -127t-6 -122.5v-154q70 104 190 105q131 0 195 -95q61 -92 61 -266v-149q0 -74 -16 -139.5t-45 -114.5 q-68 -115 -195 -115q-121 0 -188.5 85t-67.5 239zM84 324q0 -37 6 -82t26.5 -85t58.5 -67t99 -27q90 0 140 87q27 41 39 97t12 122v149q0 156 -49 230q-47 68 -142 67q-90 0 -139 -82q-51 -80 -51 -213v-196z" />
<glyph unicode="7" horiz-adv-x="770" d="M12 1317v63h682v-61l-551 -1319h-69l551 1317h-613z" />
<glyph unicode="8" horiz-adv-x="679" d="M14 360.5q0 178.5 66 268.5q30 41 70 61q-41 23 -70 62q-66 90 -66 268t66 268q68 92 213 92q143 0 211 -92q66 -86 65.5 -268t-65.5 -268q-29 -39 -70 -62q41 -20 70 -61q66 -86 65.5 -268.5t-65.5 -268.5q-68 -92 -211 -92q-145 0 -213 92q-66 90 -66 268.5zM80 360.5 q0 -159.5 51 -229.5q51 -68 161.5 -68t160.5 68q51 70 51 229.5t-51 231.5q-49 68 -160 67.5t-162 -67.5q-51 -72 -51 -231.5zM80 1020q0 -160 51 -229q51 -68 161.5 -68t160.5 68q51 70 51 229.5t-51 228.5q-49 68 -160 68t-162 -68q-51 -69 -51 -229z" />
<glyph unicode="9" horiz-adv-x="630" d="M16 334v33h66v-33q0 -133 49 -203q49 -68 141 -68q59 0 96.5 36t59 92.5t28.5 125t7 134.5v155q-33 -51 -81 -78.5t-110 -27.5q-127 0 -192 96q-63 90 -64 268v152q0 166 70 265t186 99q127 0 193 -88q63 -82 63 -231v-197v-2v-411q0 -211 -59 -326q-66 -125 -197 -125 q-127 0 -192 94q-64 88 -64 240zM82 864q0 -160 51 -231q45 -68 139 -68q90 0 140 82q25 39 38 94.5t13 120.5v199q0 127 -49 192q-47 63 -142 64q-88 0 -139 -82q-51 -84 -51 -219v-152z" />
<glyph unicode=":" horiz-adv-x="231" d="M29 334v155h63v-155h-63zM29 897v156h63v-156h-63z" />
<glyph unicode=";" horiz-adv-x="198" d="M27 260v229h65v-229h-65zM27 897v156h65v-156h-65z" />
<glyph unicode="&#x3c;" />
<glyph unicode="=" horiz-adv-x="638" d="M27 412v63h499v-63h-499zM27 842v63h499v-63h-499z" />
<glyph unicode="&#x3e;" />
<glyph unicode="?" horiz-adv-x="620" d="M29 997v31q0 166 63 258q66 96 193 96q121 0 194 -104q31 -47 46.5 -107.5t15.5 -132.5q0 -74 -17.5 -128t-42 -94t-52.5 -66.5t-50 -44.5l-19 -15q-8 -6 -12 -12q-41 -47 -64 -160q-22 -104 -22 -249v-25v-6v-33h-63v33v6q0 61 3 130.5t14 134t31.5 121t53.5 91.5 q12 16 37 33l45 41q25 23 45.5 56.5t33.5 78.5t13 108q0 61 -12 113.5t-37 89.5q-53 78 -141 78q-94 0 -140 -70q-51 -70 -51 -221v-31h-65zM197 2v88h65v-88h-65z" />
<glyph unicode="@" horiz-adv-x="1325" d="M25 727q18 117 66 214t122 175q68 70 152 115t180 65q68 14 133 14q22 0 44 -1q87 -6 164 -35t140.5 -79t108.5 -120q33 -51 51 -115.5t23 -133.5q2 -26 2 -53q0 -42 -5 -85q-8 -70 -32 -131q-23 -55 -69 -99t-102.5 -74t-114.5 -40q-27 -5 -51 -5q-29 0 -53 7 q-43 10 -64 43q-18 28 -18 65v15q-31 -23 -69.5 -28t-85.5 -5q-113 0 -162 58q-43 48 -43 134q0 28 4 60q14 125 74 191q66 70 178 69q29 0 76 -6t82 -31q12 -8 16 -14l4 16l4 31l64 -10l-4 -33l-5 -29l-13 -71l-16 -95q-9 -52 -16 -101l-14 -86q-6 -38 -8 -54q-1 -7 -1 -14 q0 -33 36 -43q16 -4 33 -5q33 0 74.5 12.5t81.5 36t73 56.5t49 74q20 53 29 114q5 38 5 76q0 24 -2 48q-5 62 -21.5 119.5t-43.5 100.5q-39 61 -96 105.5t-124.5 69t-144.5 29.5q-18 1 -37 1q-59 0 -120 -12q-74 -16 -148.5 -53t-140 -100.5t-115 -153.5t-67.5 -209 q-10 -61 -10 -119q0 -112 38 -205q56 -141 193 -225q86 -53 191 -76q82 -18 166 -18q23 0 47 2q109 6 212 38.5t187 94.5l25 18l39 -51l-27 -20q-88 -63 -198.5 -101.5t-233.5 -44.5h-45q-111 0 -212.5 25.5t-185.5 77.5q-154 96 -219 253q-43 102 -42 225q0 65 12 136z M410 680q-3 -28 -4 -51q0 -65 26 -92q33 -35 115 -35q51 0 79.5 5t49.5 23q23 23 39 74t33 139q5 27 4 47q0 22 -6 34q-11 24 -27 34q-16 12 -48 18.5t-73 6.5q-86 0 -131 -47q-23 -27 -37 -65t-20 -91z" />
<glyph unicode="A" horiz-adv-x="802" d="M20 0l109 479v6l209 895h51l316 -1380h-66l-94 422h-365l-94 -422h-66zM197 485h333l-168 721z" />
<glyph unicode="B" horiz-adv-x="688" d="M35 0v63v1317h227q158 0 234 -90q72 -90 71 -270q0 -178 -71 -268q-16 -20 -35 -35t-41 -27q43 -20 76 -59q72 -90 71.5 -270.5t-71.5 -270.5q-76 -90 -234 -90h-162h-65zM100 63h162q129 0 184.5 69t55.5 228.5t-58 229.5q-55 70 -182 69h-162v-596zM100 723h162 q127 0 182 70q57 70 58 227q0 160 -55.5 228.5t-184.5 68.5h-162v-594z" />
<glyph unicode="C" horiz-adv-x="704" d="M16 367v649q0 113 27 184.5t70 111.5t95 54t103 14q49 0 101.5 -14t95.5 -54t69.5 -112t26.5 -184v-33h-65v33q0 158 -58 229q-59 72 -170 72q-113 0 -172 -72q-57 -72 -57 -229v-649q0 -158 59 -232q55 -72 170 -72q111 0 170 72q57 76 58 232v32h65v-32 q0 -115 -26.5 -185.5t-69.5 -111.5t-95.5 -55.5t-101.5 -14.5q-51 0 -103 14.5t-95 55.5t-70 111.5t-27 185.5z" />
<glyph unicode="D" horiz-adv-x="712" d="M25 0v1380h235q164 0 244 -98q76 -90 76 -274v-635q0 -184 -76 -275q-80 -98 -244 -98h-235zM88 63h172q133 0 193.5 75t60.5 235v635q0 160 -60.5 234.5t-193.5 74.5h-172v-1254z" />
<glyph unicode="E" horiz-adv-x="620" d="M20 0v1380h496v-63h-432v-594h432v-64h-432v-596h432v-63h-496z" />
<glyph unicode="F" horiz-adv-x="630" d="M14 0v1380h496v-63h-432v-594h432v-64h-432v-659h-64z" />
<glyph unicode="G" horiz-adv-x="720" d="M20 365v653q0 178 72 268q76 94 223.5 94t221.5 -94q74 -90 73 -268v-33h-65v33q0 100 -22.5 159.5t-56.5 90t-74 40t-76.5 9.5t-77.5 -9.5t-75 -40t-56.5 -90t-22.5 -159.5v-653q0 -154 59 -230q55 -72 172 -72q115 0 170 72q59 76 60 230v180h-299v65h364v-245 q0 -178 -73 -271q-74 -94 -221.5 -94t-223.5 94q-72 95 -72 271z" />
<glyph unicode="H" horiz-adv-x="704" d="M20 0v1380h66v-659h418v659h65v-1380h-65v657h-418v-657h-66z" />
<glyph unicode="I" horiz-adv-x="223" d="M47 0v1380h64v-1380h-64z" />
<glyph unicode="J" horiz-adv-x="663" d="M0 338v31h63v-31q0 -92 20.5 -146.5t51.5 -83t68 -37t71 -8.5q102 0 156 64q53 70 53 211v1042h64v-1042q0 -168 -68 -250q-68 -88 -205 -88t-206 88q-68 82 -68 250z" />
<glyph unicode="K" horiz-adv-x="737" d="M16 0v1380h66v-784l524 784h78l-424 -632l424 -748h-74l-389 686l-139 -207v-479h-66z" />
<glyph unicode="L" horiz-adv-x="604" d="M8 0v1380h66v-1317h463v-63h-529z" />
<glyph unicode="M" horiz-adv-x="968" d="M14 0v1380h56l354 -1230l352 1230h58v-1380h-66v1118l-319 -1118h-50l-321 1118v-1118h-64z" />
<glyph unicode="N" horiz-adv-x="737" d="M18 0v1380h56l475 -1181v1181h65v-1380h-53l-477 1182v-1182h-66z" />
<glyph unicode="O" horiz-adv-x="729" d="M20 367v649q0 176 72 270q76 94 221 94q147 0 222 -94q74 -92 73 -270v-649q0 -115 -26.5 -185.5t-69.5 -111.5t-95 -55.5t-104 -14.5q-49 0 -101 14.5t-95 55.5t-70 111.5t-27 185.5zM84 367q0 -156 59 -232q55 -72 170 -72q113 0 172 72q57 72 58 232v649 q0 158 -57.5 229.5t-172.5 71.5q-117 0 -170 -72q-59 -76 -59 -229v-649z" />
<glyph unicode="P" horiz-adv-x="696" d="M23 0v1380h247q166 0 244 -90t78 -270t-78 -270.5t-244 -90.5h-184v-659h-63zM86 723h184q135 0 197 70q59 72 59 227q0 160 -59 228.5t-197 68.5h-184v-594z" />
<glyph unicode="Q" horiz-adv-x="712" d="M12 373v649q0 176 74 266q74 92 221 92q145 0 219 -92q74 -90 74 -266v-649q0 -176 -72 -273l-4 -4l133 -159h-84l-94 114q-70 -51 -172 -51q-147 0 -221 100q-74 95 -74 273zM78 373q0 -156 59 -234q55 -76 170 -76q78 0 131 37l-92 113h82l55 -66q51 76 52 226v649 q0 156 -58 227q-55 68 -169.5 68t-170.5 -68q-59 -76 -59 -227v-649z" />
<glyph unicode="R" horiz-adv-x="712" d="M23 2v1380h247q166 0 243 -89t77 -277q0 -184 -76 -275q-33 -39 -82 -63q39 -18 70 -49q92 -88 92 -244v-383h-66v383q0 125 -67.5 193.5t-190.5 68.5h-30h-154v-645h-63zM86 713h154h30q137 0 195 69q61 74 61 234q0 162 -59 231.5t-197 69.5h-184v-604z" />
<glyph unicode="S" horiz-adv-x="712" d="M20 1016q0 156 72 256q82 111 223 110q145 0 224 -96q74 -92 73 -270v-33h-65v33q0 156 -60 231q-55 70 -172 70q-111 0 -170 -84q-61 -84 -61 -217q0 -74 24.5 -125t60.5 -86t75 -55.5t69 -32.5l33 -15q27 -10 72 -31.5t88 -61.5t74.5 -101.5t31.5 -151.5 q0 -154 -73 -250q-80 -104 -224 -104q-147 0 -221 94q-74 88 -74 271v30h64v-30q0 -102 22.5 -162t56.5 -90.5t75 -39.5t77 -9q111 0 171.5 76.5t60.5 213.5q0 74 -25.5 124t-61.5 83t-75 51.5t-63 28.5l-35 14q-31 12 -76 36t-87 66t-73 104.5t-31 152.5z" />
<glyph unicode="T" horiz-adv-x="821" d="M10 1317v65h725v-65h-332v-1315h-63v1315h-330z" />
<glyph unicode="U" horiz-adv-x="712" d="M14 340v1042h64v-1042q0 -92 20.5 -146.5t51 -83t67.5 -36.5t72 -8q33 0 69.5 8t67.5 36.5t51.5 83t20.5 146.5v1042h63v-1042q0 -104 -25.5 -171t-64.5 -103.5t-88 -50t-94 -13.5q-47 0 -95.5 13.5t-88 50t-65.5 103.5t-26 171z" />
<glyph unicode="V" horiz-adv-x="821" d="M0 1382h66l305 -1216l303 1216h67l-346 -1380h-49z" />
<glyph unicode="W" horiz-adv-x="1333" d="M0 1380h66l266 -1198l264 1198h51l264 -1198l260 1198h68l-301 -1380h-53l-264 1198l-265 -1198h-51z" />
<glyph unicode="X" horiz-adv-x="802" d="M-8 0l327 690l-327 690h71l293 -614l287 614h72l-324 -690l328 -690h-72l-291 614l-293 -614h-71z" />
<glyph unicode="Y" horiz-adv-x="854" d="M-20 1380h73l342 -622l342 622h74l-383 -698v-682h-63v682z" />
<glyph unicode="Z" horiz-adv-x="837" d="M0 1317v63h672v-59l-590 -1258h600v-63h-672v63l588 1254h-598z" />
<glyph unicode="[" />
<glyph unicode="\" horiz-adv-x="778" d="M45 1380h70l553 -1380h-70z" />
<glyph unicode="]" />
<glyph unicode="^" />
<glyph unicode="_" horiz-adv-x="944" d="M41 0h827v-63h-827v63z" />
<glyph unicode="`" horiz-adv-x="165" d="M20 1200v180h64v-180h-64z" />
<glyph unicode="a" horiz-adv-x="802" d="M20 0l109 479v6l209 895h51l316 -1380h-66l-94 422h-365l-94 -422h-66zM197 485h333l-168 721z" />
<glyph unicode="b" horiz-adv-x="688" d="M35 0v63v1317h227q158 0 234 -90q72 -90 71 -270q0 -178 -71 -268q-16 -20 -35 -35t-41 -27q43 -20 76 -59q72 -90 71.5 -270.5t-71.5 -270.5q-76 -90 -234 -90h-162h-65zM100 63h162q129 0 184.5 69t55.5 228.5t-58 229.5q-55 70 -182 69h-162v-596zM100 723h162 q127 0 182 70q57 70 58 227q0 160 -55.5 228.5t-184.5 68.5h-162v-594z" />
<glyph unicode="c" horiz-adv-x="704" d="M16 367v649q0 113 27 184.5t70 111.5t95 54t103 14q49 0 101.5 -14t95.5 -54t69.5 -112t26.5 -184v-33h-65v33q0 158 -58 229q-59 72 -170 72q-113 0 -172 -72q-57 -72 -57 -229v-649q0 -158 59 -232q55 -72 170 -72q111 0 170 72q57 76 58 232v32h65v-32 q0 -115 -26.5 -185.5t-69.5 -111.5t-95.5 -55.5t-101.5 -14.5q-51 0 -103 14.5t-95 55.5t-70 111.5t-27 185.5z" />
<glyph unicode="d" horiz-adv-x="712" d="M25 0v1380h235q164 0 244 -98q76 -90 76 -274v-635q0 -184 -76 -275q-80 -98 -244 -98h-235zM88 63h172q133 0 193.5 75t60.5 235v635q0 160 -60.5 234.5t-193.5 74.5h-172v-1254z" />
<glyph unicode="e" horiz-adv-x="620" d="M20 0v1380h496v-63h-432v-594h432v-64h-432v-596h432v-63h-496z" />
<glyph unicode="f" horiz-adv-x="630" d="M14 0v1380h496v-63h-432v-594h432v-64h-432v-659h-64z" />
<glyph unicode="g" horiz-adv-x="720" d="M20 365v653q0 178 72 268q76 94 223.5 94t221.5 -94q74 -90 73 -268v-33h-65v33q0 100 -22.5 159.5t-56.5 90t-74 40t-76.5 9.5t-77.5 -9.5t-75 -40t-56.5 -90t-22.5 -159.5v-653q0 -154 59 -230q55 -72 172 -72q115 0 170 72q59 76 60 230v180h-299v65h364v-245 q0 -178 -73 -271q-74 -94 -221.5 -94t-223.5 94q-72 95 -72 271z" />
<glyph unicode="h" horiz-adv-x="704" d="M20 0v1380h66v-659h418v659h65v-1380h-65v657h-418v-657h-66z" />
<glyph unicode="i" horiz-adv-x="223" d="M47 0v1380h64v-1380h-64z" />
<glyph unicode="j" horiz-adv-x="663" d="M0 338v31h63v-31q0 -92 20.5 -146.5t51.5 -83t68 -37t71 -8.5q102 0 156 64q53 70 53 211v1042h64v-1042q0 -168 -68 -250q-68 -88 -205 -88t-206 88q-68 82 -68 250z" />
<glyph unicode="k" horiz-adv-x="737" d="M16 0v1380h66v-784l524 784h78l-424 -632l424 -748h-74l-389 686l-139 -207v-479h-66z" />
<glyph unicode="l" horiz-adv-x="604" d="M8 0v1380h66v-1317h463v-63h-529z" />
<glyph unicode="m" horiz-adv-x="968" d="M14 0v1380h56l354 -1230l352 1230h58v-1380h-66v1118l-319 -1118h-50l-321 1118v-1118h-64z" />
<glyph unicode="n" horiz-adv-x="737" d="M18 0v1380h56l475 -1181v1181h65v-1380h-53l-477 1182v-1182h-66z" />
<glyph unicode="o" horiz-adv-x="729" d="M20 367v649q0 176 72 270q76 94 221 94q147 0 222 -94q74 -92 73 -270v-649q0 -115 -26.5 -185.5t-69.5 -111.5t-95 -55.5t-104 -14.5q-49 0 -101 14.5t-95 55.5t-70 111.5t-27 185.5zM84 367q0 -156 59 -232q55 -72 170 -72q113 0 172 72q57 72 58 232v649 q0 158 -57.5 229.5t-172.5 71.5q-117 0 -170 -72q-59 -76 -59 -229v-649z" />
<glyph unicode="p" horiz-adv-x="696" d="M23 0v1380h247q166 0 244 -90t78 -270t-78 -270.5t-244 -90.5h-184v-659h-63zM86 723h184q135 0 197 70q59 72 59 227q0 160 -59 228.5t-197 68.5h-184v-594z" />
<glyph unicode="q" horiz-adv-x="712" d="M12 373v649q0 176 74 266q74 92 221 92q145 0 219 -92q74 -90 74 -266v-649q0 -176 -72 -273l-4 -4l133 -159h-84l-94 114q-70 -51 -172 -51q-147 0 -221 100q-74 95 -74 273zM78 373q0 -156 59 -234q55 -76 170 -76q78 0 131 37l-92 113h82l55 -66q51 76 52 226v649 q0 156 -58 227q-55 68 -169.5 68t-170.5 -68q-59 -76 -59 -227v-649z" />
<glyph unicode="r" horiz-adv-x="712" d="M23 2v1380h247q166 0 243 -89t77 -277q0 -184 -76 -275q-33 -39 -82 -63q39 -18 70 -49q92 -88 92 -244v-383h-66v383q0 125 -67.5 193.5t-190.5 68.5h-30h-154v-645h-63zM86 713h154h30q137 0 195 69q61 74 61 234q0 162 -59 231.5t-197 69.5h-184v-604z" />
<glyph unicode="s" horiz-adv-x="712" d="M20 1016q0 156 72 256q82 111 223 110q145 0 224 -96q74 -92 73 -270v-33h-65v33q0 156 -60 231q-55 70 -172 70q-111 0 -170 -84q-61 -84 -61 -217q0 -74 24.5 -125t60.5 -86t75 -55.5t69 -32.5l33 -15q27 -10 72 -31.5t88 -61.5t74.5 -101.5t31.5 -151.5 q0 -154 -73 -250q-80 -104 -224 -104q-147 0 -221 94q-74 88 -74 271v30h64v-30q0 -102 22.5 -162t56.5 -90.5t75 -39.5t77 -9q111 0 171.5 76.5t60.5 213.5q0 74 -25.5 124t-61.5 83t-75 51.5t-63 28.5l-35 14q-31 12 -76 36t-87 66t-73 104.5t-31 152.5z" />
<glyph unicode="t" horiz-adv-x="821" d="M10 1317v65h725v-65h-332v-1315h-63v1315h-330z" />
<glyph unicode="u" horiz-adv-x="712" d="M14 340v1042h64v-1042q0 -92 20.5 -146.5t51 -83t67.5 -36.5t72 -8q33 0 69.5 8t67.5 36.5t51.5 83t20.5 146.5v1042h63v-1042q0 -104 -25.5 -171t-64.5 -103.5t-88 -50t-94 -13.5q-47 0 -95.5 13.5t-88 50t-65.5 103.5t-26 171z" />
<glyph unicode="v" horiz-adv-x="821" d="M0 1382h66l305 -1216l303 1216h67l-346 -1380h-49z" />
<glyph unicode="w" horiz-adv-x="1333" d="M0 1380h66l266 -1198l264 1198h51l264 -1198l260 1198h68l-301 -1380h-53l-264 1198l-265 -1198h-51z" />
<glyph unicode="x" horiz-adv-x="802" d="M-8 0l327 690l-327 690h71l293 -614l287 614h72l-324 -690l328 -690h-72l-291 614l-293 -614h-71z" />
<glyph unicode="y" horiz-adv-x="854" d="M-20 1380h73l342 -622l342 622h74l-383 -698v-682h-63v682z" />
<glyph unicode="z" horiz-adv-x="837" d="M0 1317v63h672v-59l-590 -1258h600v-63h-672v63l588 1254h-598z" />
<glyph unicode="{" />
<glyph unicode="|" horiz-adv-x="182" d="M27 0v1380h63v-1380h-63z" />
<glyph unicode="}" />
<glyph unicode="~" />
<glyph unicode="&#xa9;" />
<glyph unicode="&#xad;" horiz-adv-x="612" d="M27 657v64h499v-64h-499z" />
<glyph unicode="&#xae;" />
<glyph unicode="&#x2000;" horiz-adv-x="690" />
<glyph unicode="&#x2001;" horiz-adv-x="1382" />
<glyph unicode="&#x2002;" horiz-adv-x="690" />
<glyph unicode="&#x2003;" horiz-adv-x="1382" />
<glyph unicode="&#x2004;" horiz-adv-x="460" />
<glyph unicode="&#x2005;" horiz-adv-x="344" />
<glyph unicode="&#x2006;" horiz-adv-x="229" />
<glyph unicode="&#x2007;" horiz-adv-x="229" />
<glyph unicode="&#x2008;" horiz-adv-x="172" />
<glyph unicode="&#x2009;" horiz-adv-x="276" />
<glyph unicode="&#x200a;" horiz-adv-x="75" />
<glyph unicode="&#x2010;" horiz-adv-x="612" d="M27 657v64h499v-64h-499z" />
<glyph unicode="&#x2011;" horiz-adv-x="612" d="M27 657v64h499v-64h-499z" />
<glyph unicode="&#x2012;" horiz-adv-x="612" d="M27 657v64h499v-64h-499z" />
<glyph unicode="&#x2013;" horiz-adv-x="612" d="M27 657v64h499v-64h-499z" />
<glyph unicode="&#x2014;" horiz-adv-x="612" d="M27 657v64h499v-64h-499z" />
<glyph unicode="&#x2018;" horiz-adv-x="165" d="M20 1200v180h64v-180h-64z" />
<glyph unicode="&#x2019;" horiz-adv-x="165" d="M20 1200v180h64v-180h-64z" />
<glyph unicode="&#x201c;" horiz-adv-x="307" d="M20 1200v180h64v-180h-64zM141 1200v180h66v-180h-66z" />
<glyph unicode="&#x201d;" horiz-adv-x="307" d="M20 1200v180h64v-180h-64zM141 1200v180h66v-180h-66z" />
<glyph unicode="&#x2022;" />
<glyph unicode="&#x2026;" horiz-adv-x="497" d="M25 0v88h65v-88h-65zM190 0v88h66v-88h-66zM356 0v88h66v-88h-66z" />
<glyph unicode="&#x202f;" horiz-adv-x="276" />
<glyph unicode="&#x205f;" horiz-adv-x="344" />
<glyph unicode="&#xe000;" horiz-adv-x="1380" d="M0 1380h1380v-1380h-1380v1380z" />
</font>
</defs>
</svg>
