<?xml version="1.0" encoding="UTF-8" standalone="no"?>
<svg
   xmlns:dc="http://purl.org/dc/elements/1.1/"
   xmlns:cc="http://creativecommons.org/ns#"
   xmlns:rdf="http://www.w3.org/1999/02/22-rdf-syntax-ns#"
   xmlns:svg="http://www.w3.org/2000/svg"
   xmlns="http://www.w3.org/2000/svg"
   xmlns:sodipodi="http://sodipodi.sourceforge.net/DTD/sodipodi-0.dtd"
   xmlns:inkscape="http://www.inkscape.org/namespaces/inkscape"
   id="svg3302"
   width="144px"
   version="1.1"
   height="144px"
   sodipodi:docname="folder_home.svg"
   inkscape:version="0.92.4 (5da689c313, 2019-01-14)">
  <sodipodi:namedview
     pagecolor="#ffffff"
     bordercolor="#666666"
     borderopacity="1"
     objecttolerance="10"
     gridtolerance="10"
     guidetolerance="10"
     inkscape:pageopacity="0"
     inkscape:pageshadow="2"
     inkscape:window-width="1280"
     inkscape:window-height="716"
     id="namedview13"
     showgrid="false"
     inkscape:zoom="2.4593053"
     inkscape:cx="30.837047"
     inkscape:cy="72"
     inkscape:window-x="0"
     inkscape:window-y="0"
     inkscape:window-maximized="1"
     inkscape:current-layer="svg3302" />
  <metadata
     id="metadata3306">
    <rdf:RDF>
      <cc:Work
         rdf:about="">
        <dc:format>image/svg+xml</dc:format>
        <dc:type
           rdf:resource="http://purl.org/dc/dcmitype/StillImage" />
      </cc:Work>
    </rdf:RDF>
  </metadata>
  <defs
     id="defs2" />
  <path
     style="fill:#ffff00;fill-opacity:1"
     d="M 24,30 H 66 L 81,45 H 15 Z"
     id="rect828"
     inkscape:connector-curvature="0"
     sodipodi:nodetypes="ccccc" />
  <rect
     id="rect19"
     width="114"
     height="45"
     x="14.999999"
     y="42"
     style="fill:#ffff00;fill-opacity:1" />
  <path
     style="fill:#0000ff"
     d="M 69 33 L 69 36 L 72 36 L 72 33 L 69 33 z M 69 36 L 66 36 L 66 39 L 69 39 L 69 36 z M 66 39 L 63 39 L 63 42 L 66 42 L 66 39 z M 63 42 L 60 42 L 60 45 L 63 45 L 63 42 z M 60 45 L 57 45 L 57 48 L 60 48 L 60 45 z M 57 48 L 54 48 L 54 51 L 57 51 L 57 48 z M 54 51 L 51 51 L 51 54 L 54 54 L 54 51 z M 75 42 L 75 45 L 78 45 L 78 42 L 75 42 z M 75 45 L 72 45 L 72 48 L 75 48 L 75 45 z M 72 48 L 69 48 L 69 51 L 72 51 L 72 48 z M 69 51 L 66 51 L 66 54 L 69 54 L 69 51 z M 84 45 L 84 48 L 87 48 L 87 45 L 84 45 z M 84 48 L 81 48 L 81 51 L 84 51 L 84 48 z M 81 51 L 78 51 L 78 54 L 81 54 L 81 51 z M 93 51 L 93 54 L 96 54 L 96 51 L 93 51 z "
     id="rect764" />
  <path
     style="fill:#000080"
     d="M 48 54 L 48 57 L 51 57 L 51 54 L 48 54 z M 48 57 L 45 57 L 45 60 L 48 60 L 48 57 z M 63 54 L 63 57 L 66 57 L 66 54 L 63 54 z M 63 57 L 60 57 L 60 60 L 63 60 L 63 57 z M 75 54 L 75 57 L 78 57 L 78 54 L 75 54 z M 75 57 L 72 57 L 72 60 L 75 60 L 75 57 z M 90 54 L 90 57 L 93 57 L 93 54 L 90 54 z M 90 57 L 87 57 L 87 60 L 90 60 L 90 57 z "
     id="rect924" />
  <path
     style="display:inline;fill:#ffffff"
     d="m 72,9 v 3 h -3 v 3 h -3 v 3 h -3 v 3 h -3 v 3 h -3 v 3 h -3 v 3 h -3 v 3 h -3 v 3 h -3 v 3 h -3 v 3 h -3 v 3 h -3 v 3 h -3 v 3 h -3 v 3 h -3 v 3 h 3 3 3 3 3 3 3 v -3 h 3 v -3 h 3 v -3 h 3 v -3 h 3 v -3 h 3 v -3 h 3 v -3 h 3 v -3 h 3 v 3 3 h -3 v 3 h -3 v 3 h -3 v 3 h -3 v 3 h -3 v 3 h -3 v 3 h 3 3 3 v -3 h 3 v -3 h 3 v -3 h 3 v -3 h 3 v -3 h 3 v 3 3 h -3 v 3 h -3 v 3 h -3 v 3 h 3 3 v -3 h 3 v -3 h 3 v -3 h 3 v -3 h 3 v 3 3 h -3 v 3 h -3 v 3 h 3 3 3 v -3 h 3 v -3 h 3 v 3 3 h 3 3 3 3 3 3 v 3 h 3 v 3 h 3 v 3 h 3 v 3 3 h 3 v 3 3 3 3 h 3 3 v -3 h 3 v -3 h 3 v -3 -3 h -3 v -3 h -3 v -3 h -3 v -3 h -3 v -3 h -3 v -3 h -3 v -3 h -3 v -3 h -3 v -3 h -3 v -3 h -3 v -3 h -3 v -3 h -3 V 36 H 99 V 33 H 96 V 30 H 93 V 27 H 90 V 24 H 87 V 21 H 84 V 18 H 81 V 15 H 78 V 12 H 75 V 9 Z M 21,27 v 3 h -3 v 3 h -3 v 3 3 3 3 3 3 3 3 3 h 3 v -3 -3 -3 -3 -3 -3 -3 -3 h 3 v -3 h 3 v -3 h 3 3 3 3 3 3 3 3 v -3 h -3 -3 -3 -3 -3 -3 -3 -3 z m 90,12 v 3 h 3 3 3 3 v -3 h -3 -3 -3 z M 3,63 v 3 3 3 3 3 3 3 h 3 v -3 -3 -3 -3 -3 -3 h 3 3 3 3 3 3 3 3 3 3 3 3 3 3 3 3 3 3 3 3 3 3 3 3 3 3 3 3 3 3 3 3 3 3 3 v -3 h -3 -3 -3 -3 -3 -3 -3 -3 -3 -3 -3 -3 -3 -3 -3 -3 -3 -3 -3 -3 -3 -3 -3 -3 -3 -3 -3 -3 -3 -3 -3 -3 -3 -3 -3 z m 3,21 v 3 3 3 3 3 h 3 v -3 -3 -3 -3 -3 z m 3,15 v 3 3 3 3 h 3 v -3 -3 -3 -3 z m 3,12 v 3 3 3 3 h 3 v -3 -3 -3 -3 z m 3,12 v 3 3 3 3 h 3 v -3 -3 -3 -3 z"
     id="rect3066"
     inkscape:connector-curvature="0" />
  <rect
     id="rect3718"
     width="109.99371"
     height="70.696716"
     x="-10.352736"
     y="67.622948"
     style="opacity:1;fill:#ffff00;fill-opacity:1;stroke-width:2.27115893"
     ry="0"
     transform="matrix(1,0,0.21777019,0.97600007,0,0)" />
  <path
     style="display:inline;fill:#c0c0c0"
     d="m 75,9 v 3 h 3 V 9 Z m 3,3 v 3 h 3 v -3 z m 3,3 v 3 h 3 v -3 z m 3,3 v 3 h 3 v -3 z m 3,3 v 3 h 3 v -3 z m 3,3 v 3 h 3 v -3 z m 3,3 v 3 h 3 v -3 z m 3,3 v 3 h 3 v -3 z m 3,3 v 3 h 3 v -3 z m 3,3 v 3 h 3 v -3 z m 3,3 v 3 h 3 v -3 z m 3,3 v 3 h 3 v -3 z m 3,3 v 3 h 3 v -3 z m 3,3 v 3 h 3 v -3 z m 3,3 v 3 h 3 v -3 z m 3,3 v 3 h 3 v -3 z m 3,3 v 3 h 3 v -3 z m 3,3 v 3 h 3 v -3 z m 3,3 v 3 h 3 v -3 z m 3,3 v 3 h 3 v -3 z m 3,3 v 3 h 3 v -3 z m 3,3 v 3 3 h 3 v -3 -3 z m 0,6 h -3 v 3 h 3 z m -3,3 h -3 v 3 h 3 z m -3,3 h -3 -3 v 3 3 h 3 v -3 h 3 z m -6,0 v -3 -3 -3 -3 h -3 v 3 3 3 3 z m -3,-12 v -3 -3 h -3 v 3 3 z m -3,-6 v -3 h -3 v 3 z m -3,-3 v -3 h -3 v 3 z m -3,0 h -3 v 3 3 h 3 v -3 z m 0,6 v 3 h -3 v 3 h 3 v 3 h 3 v -3 -3 -3 z m 3,9 v 3 h -3 v 3 h 3 v 3 h 3 v -3 -3 -3 z m 0,9 h -3 v 3 h 3 z m 0,3 v 3 h 3 v 3 h 3 v -3 -3 h -3 z m 3,6 h -3 v 3 h 3 z m 0,3 v 3 h 3 v -3 z m 3,3 v 3 h -3 v 3 h 3 v 3 h 3 v -3 -3 -3 z m 0,9 h -3 v 3 h 3 z m 0,3 v 3 h 3 v 3 h 3 v -3 -3 h -3 z m 3,6 h -3 v 3 h 3 z m 0,3 v 3 h 3 v -3 z m 0,3 h -3 v 3 h 3 z m 0,3 v 3 h 3 v -3 z m 0,3 h -3 v 3 h 3 z m -3,0 v -3 h -3 v 3 z m -3,0 h -3 v 3 h 3 z m -3,0 v -3 h -3 v 3 z m -3,0 h -3 v 3 h 3 z m -3,0 v -3 h -3 v 3 z m -3,0 h -3 v 3 h 3 z m -3,0 v -3 h -3 v 3 z m -3,0 h -3 v 3 h 3 z m -3,0 v -3 h -3 v 3 z m -3,0 h -3 v 3 h 3 z m -3,0 v -3 h -3 v 3 z m -3,0 h -3 v 3 h 3 z m -3,0 v -3 h -3 v 3 z m -3,0 h -3 v 3 h 3 z m -3,0 v -3 h -3 v 3 z m -3,0 h -3 v 3 h 3 z m -3,0 v -3 h -3 v 3 z m -3,0 h -3 v 3 h 3 z m -3,0 v -3 h -3 v 3 z m -3,0 h -3 v 3 h 3 z m -3,0 v -3 h -3 v 3 z m -3,0 h -3 v 3 h 3 z m -3,0 v -3 h -3 v 3 z m -3,0 h -3 v 3 h 3 z m -3,0 v -3 h -3 v 3 z m -3,0 h -3 v 3 h 3 z m -3,0 v -3 h -3 v 3 z m -3,0 h -3 v 3 h 3 z m -3,0 v -3 h -3 v 3 z m -3,0 h -3 v 3 h 3 z m -3,0 v -3 h -3 v 3 z m -3,0 h -3 v 3 h 3 z m -3,0 v -3 h -3 v 3 z m -3,0 h -3 v 3 h 3 z m -3,0 v -3 h -3 v 3 z m 0,-3 h 3 v -3 h -3 z m 0,-3 v -3 h -3 v 3 z m -3,-3 v -3 h -3 v 3 z m 0,-3 h 3 v -3 h -3 z m 0,-3 v -3 h -3 v 3 z m 0,-3 h 3 v -3 h -3 z m 0,-3 v -3 h -3 v 3 z m -3,-3 v -3 h -3 v 3 z m 0,-3 h 3 v -3 h -3 z m 0,-3 v -3 h -3 v 3 z M 12,99 V 96 H 9 v 3 z m 0,-3 h 3 v -3 h -3 z m 0,-3 V 90 H 9 v 3 z m 0,-3 h 3 v -3 h -3 z m 0,-3 V 84 H 9 v 3 z M 9,84 V 81 H 6 v 3 z m 0,-3 h 3 V 78 H 9 Z M 9,78 V 75 H 6 v 3 z m 0,-3 h 3 V 72 H 9 Z M 9,72 V 69 H 6 v 3 z m 0,-3 h 3 V 66 H 9 Z m 3,0 v 3 h 3 v -3 z m 3,0 h 3 v -3 h -3 z m 3,0 v 3 h 3 v -3 z m 3,0 h 3 v -3 h -3 z m 3,0 v 3 h 3 v -3 z m 3,0 h 3 v -3 h -3 z m 3,0 v 3 h 3 v -3 z m 3,0 h 3 v -3 h -3 z m 3,0 v 3 h 3 v -3 z m 3,0 h 3 v -3 h -3 z m 3,0 v 3 h 3 v -3 z m 3,0 h 3 v -3 h -3 z m 3,0 v 3 h 3 v -3 z m 3,0 h 3 v -3 h -3 z m 3,0 v 3 h 3 v -3 z m 3,0 h 3 v -3 h -3 z m 3,0 v 3 h 3 v -3 z m 3,0 h 3 v -3 h -3 z m 3,0 v 3 h 3 v -3 z m 3,0 h 3 v -3 h -3 z m 3,0 v 3 h 3 v -3 z m 3,0 h 3 v -3 h -3 z m 3,0 v 3 h 3 v -3 z m 3,0 h 3 v -3 h -3 z m 3,0 v 3 h 3 v -3 z m 3,0 h 3 v -3 h -3 z m 3,0 v 3 h 3 v -3 z m 3,0 h 3 v -3 h -3 z m 3,0 v 3 h 3 v -3 z m 3,0 h 3 v -3 h -3 z m 3,0 v 3 h 3 v -3 z m 3,0 h 3 v -3 h -3 z m 3,0 v 3 h 3 v -3 z m 0,3 h -3 v 3 h 3 z m 0,3 v 3 h 3 v -3 z m 3,3 v 3 h 3 v -3 z m 0,3 h -3 v 3 h 3 z m 0,3 v 3 h 3 v -3 z m 0,3 h -3 v 3 h 3 z m 0,3 v 3 h 3 v -3 z m 3,3 v 3 h 3 v -3 z m 0,3 h -3 v 3 h 3 z m 0,3 v 3 h 3 v -3 z m 3,3 v 3 h 3 v -3 z m 0,3 h -3 v 3 h 3 z m 0,3 v 3 h 3 v -3 z m 0,3 h -3 v 3 h 3 z m 0,3 v 3 h 3 v -3 z m 3,3 v 3 h 3 v -3 z m 0,3 h -3 v 3 h 3 z m 0,3 v 3 h 3 v -3 z m 0,3 h -3 v 3 h 3 z m -3,0 v -3 h -3 v 3 z m -3,0 h -3 v 3 h 3 z m -3,0 v -3 h -3 v 3 z m -3,0 h -3 v 3 h 3 z m -3,0 v -3 h -3 v 3 z m -3,0 h -3 v 3 h 3 z m -3,0 v -3 h -3 v 3 z m -3,0 h -3 v 3 h 3 z m -3,0 v -3 h -3 v 3 z m -3,0 h -3 v 3 h 3 z m -3,0 v -3 h -3 v 3 z m -3,0 h -3 v 3 h 3 z m -3,0 v -3 h -3 v 3 z m -3,0 h -3 v 3 h 3 z m -3,0 v -3 h -3 v 3 z m -3,0 h -3 v 3 h 3 z m -3,0 v -3 h -3 v 3 z m -3,0 h -3 v 3 h 3 z m -3,0 v -3 h -3 v 3 z m -3,0 h -3 v 3 h 3 z m -3,0 v -3 h -3 v 3 z m -3,0 h -3 v 3 h 3 z m -3,0 v -3 h -3 v 3 z m -3,0 h -3 v 3 h 3 z m -3,0 v -3 h -3 v 3 z m -3,0 h -3 v 3 h 3 z m -3,0 v -3 h -3 v 3 z m -3,0 h -3 v 3 h 3 z m -3,0 v -3 h -3 v 3 z m -3,0 h -3 v 3 h 3 z m -3,0 v -3 h -3 v 3 z m -3,-3 v -3 h -3 v 3 z m 0,-3 h 3 v -3 h -3 z m 0,-3 v -3 h -3 v 3 z m 0,-3 h 3 v -3 h -3 z m 0,-3 v -3 h -3 v 3 z m -3,-3 v -3 h -3 v 3 z m 0,-3 h 3 v -3 h -3 z m 0,-3 v -3 h -3 v 3 z m -3,-3 v -3 h -3 v 3 z m 0,-3 h 3 v -3 h -3 z m 0,-3 v -3 h -3 v 3 z m 0,-3 h 3 v -3 h -3 z m 0,-3 v -3 h -3 v 3 z m -3,-3 v -3 h -3 v 3 z m 0,-3 h 3 v -3 h -3 z m 0,-3 v -3 h -3 v 3 z m 0,-3 h 3 v -3 h -3 z m 3,0 v 3 h 3 v -3 z m 3,0 h 3 v -3 h -3 z m 3,0 v 3 h 3 v -3 z m 3,0 h 3 v -3 h -3 z m 3,0 v 3 h 3 v -3 z m 3,0 h 3 v -3 h -3 z m 3,0 v 3 h 3 v -3 z m 3,0 h 3 v -3 h -3 z m 3,0 v 3 h 3 v -3 z m 3,0 h 3 v -3 h -3 z m 3,0 v 3 h 3 v -3 z m 3,0 h 3 v -3 h -3 z m 3,0 v 3 h 3 v -3 z m 3,0 h 3 v -3 h -3 z m 3,0 v 3 h 3 v -3 z m 3,0 h 3 v -3 h -3 z m 3,0 v 3 h 3 v -3 z m 3,0 h 3 v -3 h -3 z m 3,0 v 3 h 3 v -3 z m 3,0 h 3 v -3 h -3 z m 3,0 v 3 h 3 v -3 z m 3,0 h 3 v -3 h -3 z m 3,0 v 3 h 3 v -3 z m 3,0 h 3 v -3 h -3 z m 3,0 v 3 h 3 v -3 z m 3,0 h 3 v -3 h -3 z m 3,0 v 3 h 3 v -3 z m 3,0 h 3 v -3 h -3 z m 3,0 v 3 h 3 v -3 z m 3,3 v 3 h 3 v -3 z m 0,3 h -3 v 3 h 3 z m 0,3 v 3 h 3 v -3 z m 0,3 h -3 v 3 h 3 z m 0,3 v 3 h 3 v -3 z m 3,3 v 3 h 3 v -3 z m 0,3 h -3 v 3 h 3 z m 0,3 v 3 h 3 v -3 z m 3,3 v 3 h 3 v -3 z m 0,3 h -3 v 3 h 3 z m 0,3 v 3 h 3 v -3 z m 0,3 h -3 v 3 h 3 z m 0,3 v 3 h 3 v -3 z m 3,3 v 3 h 3 v -3 z m 0,3 h -3 v 3 h 3 z m -3,0 v -3 h -3 v 3 z m -3,0 h -3 v 3 h 3 z m -3,0 v -3 h -3 v 3 z m -3,0 h -3 v 3 h 3 z m -3,0 v -3 h -3 v 3 z m -3,0 h -3 v 3 h 3 z m -3,0 v -3 h -3 v 3 z m -3,0 h -3 v 3 h 3 z m -3,0 v -3 h -3 v 3 z m -3,0 h -3 v 3 h 3 z m -3,0 v -3 h -3 v 3 z m -3,0 h -3 v 3 h 3 z m -3,0 v -3 h -3 v 3 z m -3,0 h -3 v 3 h 3 z m -3,0 v -3 h -3 v 3 z m -3,0 h -3 v 3 h 3 z m -3,0 v -3 h -3 v 3 z m -3,0 h -3 v 3 h 3 z m -3,0 v -3 h -3 v 3 z m -3,0 h -3 v 3 h 3 z m -3,0 v -3 h -3 v 3 z m -3,0 h -3 v 3 h 3 z m -3,0 v -3 h -3 v 3 z m -3,0 h -3 v 3 h 3 z m -3,0 v -3 h -3 v 3 z m -3,0 h -3 v 3 h 3 z m -3,0 v -3 h -3 v 3 z m -3,0 h -3 v 3 h 3 z m 0,-3 v -3 h -3 v 3 z m 0,-3 h 3 v -3 h -3 z m 0,-3 v -3 h -3 v 3 z m -3,-3 v -3 h -3 v 3 z m 0,-3 h 3 v -3 h -3 z m 0,-3 v -3 h -3 v 3 z m -3,-3 v -3 h -3 v 3 z m 0,-3 h 3 v -3 h -3 z m 0,-3 v -3 h -3 v 3 z m 0,-3 h 3 v -3 h -3 z m 0,-3 v -3 h -3 v 3 z m -3,-3 v -3 h -3 v 3 z m 0,-3 h 3 v -3 h -3 z m 3,0 v 3 h 3 v -3 z m 3,0 h 3 v -3 h -3 z m 3,0 v 3 h 3 v -3 z m 3,0 h 3 v -3 h -3 z m 3,0 v 3 h 3 v -3 z m 3,0 h 3 v -3 h -3 z m 3,0 v 3 h 3 v -3 z m 3,0 h 3 v -3 h -3 z m 3,0 v 3 h 3 v -3 z m 3,0 h 3 v -3 h -3 z m 3,0 v 3 h 3 v -3 z m 3,0 h 3 v -3 h -3 z m 3,0 v 3 h 3 v -3 z m 3,0 h 3 v -3 h -3 z m 3,0 v 3 h 3 v -3 z m 3,0 h 3 v -3 h -3 z m 3,0 v 3 h 3 v -3 z m 3,0 h 3 v -3 h -3 z m 3,0 v 3 h 3 v -3 z m 3,0 h 3 v -3 h -3 z m 3,0 v 3 h 3 v -3 z m 3,0 h 3 v -3 h -3 z m 3,0 v 3 h 3 v -3 z m 3,0 h 3 v -3 h -3 z m 3,0 v 3 h 3 v -3 z m 3,0 h 3 v -3 h -3 z m 0,3 v 3 h 3 v -3 z m 0,3 h -3 v 3 h 3 z m 0,3 v 3 h 3 v -3 z m 3,3 v 3 h 3 v -3 z m 0,3 h -3 v 3 h 3 z m 0,3 v 3 h 3 v -3 z m 3,3 v 3 h 3 v -3 z m 0,3 h -3 v 3 h 3 z m 0,3 v 3 h 3 v -3 z m 0,3 h -3 v 3 h 3 z m 0,3 v 3 h 3 v -3 z m -3,0 h -3 v 3 h 3 z m -3,0 v -3 h -3 v 3 z m -3,0 h -3 v 3 h 3 z m -3,0 v -3 h -3 v 3 z m -3,0 h -3 v 3 h 3 z m -3,0 v -3 h -3 v 3 z m -3,0 h -3 v 3 h 3 z m -3,0 v -3 h -3 v 3 z m -3,0 h -3 v 3 h 3 z m -3,0 v -3 h -3 v 3 z m -3,0 h -3 v 3 h 3 z m -3,0 v -3 h -3 v 3 z m -3,0 h -3 v 3 h 3 z m -3,0 v -3 h -3 v 3 z m -3,0 h -3 v 3 h 3 z m -3,0 v -3 h -3 v 3 z m -3,0 h -3 v 3 h 3 z m -3,0 v -3 h -3 v 3 z m -3,0 h -3 v 3 h 3 z m -3,0 v -3 h -3 v 3 z m -3,0 h -3 v 3 h 3 z m -3,0 v -3 h -3 v 3 z m -3,0 h -3 v 3 h 3 z m 0,-3 v -3 h -3 v 3 z m -3,-3 v -3 h -3 v 3 z m 0,-3 h 3 v -3 h -3 z m 0,-3 v -3 h -3 v 3 z m -3,-3 v -3 h -3 v 3 z m 0,-3 h 3 v -3 h -3 z m 0,-3 v -3 h -3 v 3 z m 0,-3 h 3 v -3 h -3 z m 0,-3 v -3 h -3 v 3 z m 3,0 h 3 v -3 h -3 z m 3,0 v 3 h 3 v -3 z m 3,0 h 3 v -3 h -3 z m 3,0 v 3 h 3 v -3 z m 3,0 h 3 v -3 h -3 z m 3,0 v 3 h 3 v -3 z m 3,0 h 3 v -3 h -3 z m 3,0 v 3 h 3 v -3 z m 3,0 h 3 v -3 h -3 z m 3,0 v 3 h 3 v -3 z m 3,0 h 3 v -3 h -3 z m 3,0 v 3 h 3 v -3 z m 3,0 h 3 v -3 h -3 z m 3,0 v 3 h 3 v -3 z m 3,0 h 3 v -3 h -3 z m 3,0 v 3 h 3 v -3 z m 3,0 h 3 v -3 h -3 z m 3,0 v 3 h 3 v -3 z m 3,0 h 3 v -3 h -3 z m 3,0 v 3 h 3 v -3 z m 3,0 h 3 v -3 h -3 z m 0,3 v 3 h 3 v -3 z m 3,3 v 3 h 3 v -3 z m 0,3 h -3 v 3 h 3 z m 0,3 v 3 h 3 v -3 z m 3,3 v 3 h 3 v -3 z m 0,3 h -3 v 3 h 3 z m 0,3 v 3 h 3 v -3 z m -3,0 h -3 v 3 h 3 z m -3,0 v -3 h -3 v 3 z m -3,0 h -3 v 3 h 3 z m -3,0 v -3 h -3 v 3 z m -3,0 h -3 v 3 h 3 z m -3,0 v -3 h -3 v 3 z m -3,0 h -3 v 3 h 3 z m -3,0 v -3 h -3 v 3 z m -3,0 h -3 v 3 h 3 z m -3,0 v -3 h -3 v 3 z m -3,0 h -3 v 3 h 3 z m -3,0 v -3 h -3 v 3 z m -3,0 h -3 v 3 h 3 z m -3,0 v -3 h -3 v 3 z m -3,0 h -3 v 3 h 3 z m -3,0 v -3 h -3 v 3 z m -3,0 h -3 v 3 h 3 z m -3,0 v -3 h -3 v 3 z m -3,0 h -3 v 3 h 3 z m -3,0 v -3 h -3 v 3 z m 0,-3 h 3 v -3 h -3 z m 0,-3 v -3 h -3 v 3 z m -3,-3 v -3 h -3 v 3 z m 0,-3 h 3 v -3 h -3 z m 0,-3 v -3 h -3 v 3 z m 3,0 h 3 v -3 h -3 z m 3,0 v 3 h 3 v -3 z m 3,0 h 3 v -3 h -3 z m 3,0 v 3 h 3 v -3 z m 3,0 h 3 v -3 h -3 z m 3,0 v 3 h 3 v -3 z m 3,0 h 3 v -3 h -3 z m 3,0 v 3 h 3 v -3 z m 3,0 h 3 v -3 h -3 z m 3,0 v 3 h 3 v -3 z m 3,0 h 3 v -3 h -3 z m 3,0 v 3 h 3 v -3 z m 3,0 h 3 v -3 h -3 z m 3,0 v 3 h 3 v -3 z m 3,0 h 3 v -3 h -3 z m 3,0 v 3 h 3 v -3 z m 3,0 h 3 v -3 h -3 z m 3,0 v 3 h 3 v -3 z m 0,3 h -3 v 3 h 3 z m 0,3 v 3 h 3 v -3 z m 3,3 v 3 h 3 v -3 z m -3,0 h -3 v 3 h 3 z m -3,0 v -3 h -3 v 3 z m -3,0 h -3 v 3 h 3 z m -3,0 v -3 h -3 v 3 z m -3,0 h -3 v 3 h 3 z m -3,0 v -3 h -3 v 3 z m -3,0 h -3 v 3 h 3 z m -3,0 v -3 h -3 v 3 z m -3,0 h -3 v 3 h 3 z m -3,0 v -3 h -3 v 3 z m -3,0 h -3 v 3 h 3 z m -3,0 v -3 h -3 v 3 z m -3,0 h -3 v 3 h 3 z m -3,0 v -3 h -3 v 3 z m -3,0 h -3 v 3 h 3 z m -3,0 v -3 h -3 v 3 z m -3,-3 v -3 h -3 v 3 z m 3,0 h 3 v -3 h -3 z m 6,0 h 3 v -3 h -3 z m 6,0 h 3 v -3 h -3 z m 6,0 h 3 v -3 h -3 z m 6,0 h 3 v -3 h -3 z m 6,0 h 3 v -3 h -3 z m 6,0 h 3 v -3 h -3 z m 33,-39 v -3 h -3 -3 -3 -3 -3 -3 v -3 h -3 v 3 h -3 v 3 h 3 3 3 3 3 3 3 z M 48,27 v 3 h 3 v -3 z m -24,3 v 3 h 3 v -3 z m 3,3 v 3 h 3 v -3 z m 3,0 h 3 v -3 h -3 z m 3,0 v 3 h 3 v -3 z m 3,0 h 3 v -3 h -3 z m 3,0 v 3 h 3 v -3 z m 3,0 h 3 v -3 h -3 z m -3,3 h -3 v 3 h 3 z m -3,3 h -3 v 3 h 3 z m -3,3 h -3 v 3 h 3 z m -3,3 h -3 v 3 h 3 z m -3,3 h -3 v 3 h 3 z m -3,3 h -3 v 3 h 3 z m -3,3 h -3 v 3 h 3 z m 0,-3 v -3 h -3 v 3 z m 0,-3 h 3 v -3 h -3 z m 0,-3 v -3 h -3 v 3 z m 0,-3 h 3 v -3 h -3 z m 0,-3 v -3 h -3 v 3 z m 0,-3 h 3 v -3 h -3 z m 3,0 v 3 h 3 v -3 z m 3,3 v 3 h 3 v -3 z m 3,0 h 3 v -3 h -3 z m -3,3 h -3 v 3 h 3 z m 42,-6 v 3 h 3 v -3 z m 0,3 h -3 v 3 h 3 z m -3,3 h -3 v 3 h 3 z m -3,3 h -3 v 3 h 3 z m -3,3 h -3 v 3 h 3 z m -3,3 h -3 v 3 h 3 z m -3,3 h -3 v 3 h -3 v 3 h 3 3 3 3 v -3 h -3 -3 z m 69,-15 v 3 3 h 3 v -3 -3 z m 3,6 v 3 h 3 v -3 z m 0,3 h -3 v 3 h 3 z m 0,3 v 3 h 3 v -3 z m -3,-3 v -3 h -3 v 3 z m -3,-3 v -3 h -3 v 3 z m -45,0 v 3 h 3 v -3 z m 0,3 h -3 v 3 h 3 z m -3,3 h -3 v 3 h 3 z m -3,3 h -3 v 3 h -3 v 3 h 3 3 3 v -3 h -3 z m 15,-6 v 3 h 3 v -3 z m 0,3 h -3 v 3 h 3 z m -3,3 h -3 v 3 h -3 v 3 h 3 3 3 3 v -3 h -3 -3 z m -57,3 v 3 h 3 3 3 3 3 3 3 v -3 h -3 -3 -3 -3 -3 -3 z"
     id="rect3138"
     inkscape:connector-curvature="0" />
  <path
     style="display:inline;fill:#ffff00"
     d="m 27,30 v 3 h 3 v -3 z m 3,3 v 3 h 3 v -3 z m 3,0 h 3 v -3 h -3 z m 3,0 v 3 h 3 v -3 z m 3,0 h 3 v -3 h -3 z m 3,0 v 3 h 3 v -3 z m 3,0 h 3 v -3 h -3 z m -3,3 h -3 v 3 h 3 z m -3,3 h -3 v 3 h 3 z m -3,3 h -3 v 3 h 3 z m -3,3 h -3 v 3 h 3 z m -3,3 h -3 v 3 h 3 z m -3,3 h -3 v 3 h 3 z m -3,3 h -3 v 3 h 3 z m -3,3 h -3 v 3 h 3 z m 0,-3 v -3 h -3 v 3 z m 0,-3 h 3 v -3 h -3 z m 0,-3 v -3 h -3 v 3 z m 0,-3 h 3 v -3 h -3 z m 0,-3 v -3 h -3 v 3 z m 0,-3 h 3 v -3 h -3 z m 3,-3 h 3 v -3 h -3 z m 3,0 v 3 h 3 v -3 z m 3,3 v 3 h 3 v -3 z m 3,0 h 3 v -3 h -3 z m -3,3 h -3 v 3 h 3 z m -3,3 h -3 v 3 h 3 z m 0,-3 v -3 h -3 v 3 z m 87,0 v 3 h 3 v -3 z m 3,3 v 3 h 3 v -3 z m 3,0 h 3 v -3 h -3 z m 3,0 v 3 h 3 v -3 z m 3,3 v 3 h 3 v -3 z m 0,3 h -3 v 3 h 3 z m 0,3 v 3 h 3 v -3 z m -3,-3 v -3 h -3 v 3 z M 6,66 v 3 h 3 v -3 z m 3,3 v 3 h 3 v -3 z m 3,0 h 3 v -3 h -3 z m 3,0 v 3 h 3 v -3 z m 3,0 h 3 v -3 h -3 z m 3,0 v 3 h 3 v -3 z m 3,0 h 3 v -3 h -3 z m 3,0 v 3 h 3 v -3 z m 3,0 h 3 v -3 h -3 z m 3,0 v 3 h 3 v -3 z m 3,0 h 3 v -3 h -3 z m 3,0 v 3 h 3 v -3 z m 3,0 h 3 v -3 h -3 z m 3,0 v 3 h 3 v -3 z m 3,0 h 3 v -3 h -3 z m 3,0 v 3 h 3 v -3 z m 3,0 h 3 v -3 h -3 z m 3,0 v 3 h 3 v -3 z m 3,0 h 3 v -3 h -3 z m 3,0 v 3 h 3 v -3 z m 3,0 h 3 v -3 h -3 z m 3,0 v 3 h 3 v -3 z m 3,0 h 3 v -3 h -3 z m 3,0 v 3 h 3 v -3 z m 3,0 h 3 v -3 h -3 z m 3,0 v 3 h 3 v -3 z m 3,0 h 3 v -3 h -3 z m 3,0 v 3 h 3 v -3 z m 3,0 h 3 v -3 h -3 z m 3,0 v 3 h 3 v -3 z m 3,0 h 3 v -3 h -3 z m 3,0 v 3 h 3 v -3 z m 3,0 h 3 v -3 h -3 z m 3,0 v 3 h 3 v -3 z m 3,0 h 3 v -3 h -3 z m 3,0 v 3 h 3 v -3 z m 0,3 h -3 v 3 h 3 z m 0,3 v 3 h 3 v -3 z m 3,3 v 3 h 3 v -3 z m 0,3 h -3 v 3 h 3 z m 0,3 v 3 h 3 v -3 z m 3,3 v 3 h 3 v -3 z m 0,3 h -3 v 3 h 3 z m 0,3 v 3 h 3 v -3 z m 3,3 v 3 h 3 v -3 z m 0,3 h -3 v 3 h 3 z m 0,3 v 3 h 3 v -3 z m 0,3 h -3 v 3 h 3 z m 0,3 v 3 h 3 v -3 z m 3,3 v 3 h 3 v -3 z m 0,3 h -3 v 3 h 3 z m 0,3 v 3 h 3 v -3 z m 3,3 v 3 h 3 v -3 z m 0,3 h -3 v 3 h 3 z m 0,3 v 3 h 3 v -3 z m 0,3 h -3 v 3 h 3 z m 0,3 v 3 h 3 v -3 z m -3,0 h -3 v 3 h 3 z m -3,0 v -3 h -3 v 3 z m -3,0 h -3 v 3 h 3 z m -3,0 v -3 h -3 v 3 z m -3,0 h -3 v 3 h 3 z m -3,0 v -3 h -3 v 3 z m -3,0 h -3 v 3 h 3 z m -3,0 v -3 h -3 v 3 z m -3,0 h -3 v 3 h 3 z m -3,0 v -3 h -3 v 3 z m -3,0 h -3 v 3 h 3 z m -3,0 v -3 h -3 v 3 z m -3,0 h -3 v 3 h 3 z m -3,0 v -3 h -3 v 3 z m -3,0 h -3 v 3 h 3 z m -3,0 v -3 h -3 v 3 z m -3,0 h -3 v 3 h 3 z m -3,0 v -3 h -3 v 3 z m -3,0 h -3 v 3 h 3 z m -3,0 v -3 h -3 v 3 z m -3,0 h -3 v 3 h 3 z m -3,0 v -3 h -3 v 3 z m -3,0 h -3 v 3 h 3 z m -3,0 v -3 h -3 v 3 z m -3,0 h -3 v 3 h 3 z m -3,0 v -3 h -3 v 3 z m -3,0 h -3 v 3 h 3 z m -3,0 v -3 h -3 v 3 z m -3,0 h -3 v 3 h 3 z m -3,0 v -3 h -3 v 3 z m -3,0 h -3 v 3 h 3 z m -3,0 v -3 h -3 v 3 z m -3,0 h -3 v 3 h 3 z m -3,0 v -3 h -3 v 3 z m -3,0 h -3 v 3 h 3 z m 0,-3 v -3 h -3 v 3 z m 0,-3 h 3 v -3 h -3 z m 0,-3 v -3 h -3 v 3 z m -3,-3 v -3 h -3 v 3 z m 0,-3 h 3 v -3 h -3 z m 0,-3 v -3 h -3 v 3 z m -3,-3 v -3 h -3 v 3 z m 0,-3 h 3 v -3 h -3 z m 0,-3 v -3 h -3 v 3 z m 0,-3 h 3 v -3 h -3 z m 0,-3 v -3 h -3 v 3 z M 12,96 V 93 H 9 v 3 z m 0,-3 h 3 v -3 h -3 z m 0,-3 V 87 H 9 v 3 z m 0,-3 h 3 v -3 h -3 z m 0,-3 V 81 H 9 v 3 z M 9,81 V 78 H 6 v 3 z m 0,-3 h 3 V 75 H 9 Z M 9,75 V 72 H 6 v 3 z m 3,0 h 3 v -3 h -3 z m 3,0 v 3 h 3 v -3 z m 3,0 h 3 v -3 h -3 z m 3,0 v 3 h 3 v -3 z m 3,0 h 3 v -3 h -3 z m 3,0 v 3 h 3 v -3 z m 3,0 h 3 v -3 h -3 z m 3,0 v 3 h 3 v -3 z m 3,0 h 3 v -3 h -3 z m 3,0 v 3 h 3 v -3 z m 3,0 h 3 v -3 h -3 z m 3,0 v 3 h 3 v -3 z m 3,0 h 3 v -3 h -3 z m 3,0 v 3 h 3 v -3 z m 3,0 h 3 v -3 h -3 z m 3,0 v 3 h 3 v -3 z m 3,0 h 3 v -3 h -3 z m 3,0 v 3 h 3 v -3 z m 3,0 h 3 v -3 h -3 z m 3,0 v 3 h 3 v -3 z m 3,0 h 3 v -3 h -3 z m 3,0 v 3 h 3 v -3 z m 3,0 h 3 v -3 h -3 z m 3,0 v 3 h 3 v -3 z m 3,0 h 3 v -3 h -3 z m 3,0 v 3 h 3 v -3 z m 3,0 h 3 v -3 h -3 z m 3,0 v 3 h 3 v -3 z m 3,0 h 3 v -3 h -3 z m 3,0 v 3 h 3 v -3 z m 3,0 h 3 v -3 h -3 z m 3,0 v 3 h 3 v -3 z m 3,3 v 3 h 3 v -3 z m 0,3 h -3 v 3 h 3 z m 0,3 v 3 h 3 v -3 z m 3,3 v 3 h 3 v -3 z m 0,3 h -3 v 3 h 3 z m 0,3 v 3 h 3 v -3 z m 3,3 v 3 h 3 v -3 z m 0,3 h -3 v 3 h 3 z m 0,3 v 3 h 3 v -3 z m 0,3 h -3 v 3 h 3 z m 0,3 v 3 h 3 v -3 z m 3,3 v 3 h 3 v -3 z m 0,3 h -3 v 3 h 3 z m 0,3 v 3 h 3 v -3 z m 3,3 v 3 h 3 v -3 z m 0,3 h -3 v 3 h 3 z m 0,3 v 3 h 3 v -3 z m -3,0 h -3 v 3 h 3 z m -3,0 v -3 h -3 v 3 z m -3,0 h -3 v 3 h 3 z m -3,0 v -3 h -3 v 3 z m -3,0 h -3 v 3 h 3 z m -3,0 v -3 h -3 v 3 z m -3,0 h -3 v 3 h 3 z m -3,0 v -3 h -3 v 3 z m -3,0 h -3 v 3 h 3 z m -3,0 v -3 h -3 v 3 z m -3,0 h -3 v 3 h 3 z m -3,0 v -3 h -3 v 3 z m -3,0 h -3 v 3 h 3 z m -3,0 v -3 h -3 v 3 z m -3,0 h -3 v 3 h 3 z m -3,0 v -3 h -3 v 3 z m -3,0 h -3 v 3 h 3 z m -3,0 v -3 h -3 v 3 z m -3,0 h -3 v 3 h 3 z m -3,0 v -3 h -3 v 3 z m -3,0 h -3 v 3 h 3 z m -3,0 v -3 h -3 v 3 z m -3,0 h -3 v 3 h 3 z m -3,0 v -3 h -3 v 3 z m -3,0 h -3 v 3 h 3 z m -3,0 v -3 h -3 v 3 z m -3,0 h -3 v 3 h 3 z m -3,0 v -3 h -3 v 3 z m -3,0 h -3 v 3 h 3 z m -3,0 v -3 h -3 v 3 z m -3,0 h -3 v 3 h 3 z m 0,-3 v -3 h -3 v 3 z m -3,-3 v -3 h -3 v 3 z m 0,-3 h 3 v -3 h -3 z m 0,-3 v -3 h -3 v 3 z m -3,-3 v -3 h -3 v 3 z m 0,-3 h 3 v -3 h -3 z m 0,-3 v -3 h -3 v 3 z m 0,-3 h 3 v -3 h -3 z m 0,-3 v -3 h -3 v 3 z m -3,-3 v -3 h -3 v 3 z m 0,-3 h 3 v -3 h -3 z m 0,-3 v -3 h -3 v 3 z m 0,-3 h 3 v -3 h -3 z m 0,-3 v -3 h -3 v 3 z m -3,-3 v -3 h -3 v 3 z m 3,0 h 3 v -3 h -3 z m 3,0 v 3 h 3 v -3 z m 3,0 h 3 v -3 h -3 z m 3,0 v 3 h 3 v -3 z m 3,0 h 3 v -3 h -3 z m 3,0 v 3 h 3 v -3 z m 3,0 h 3 v -3 h -3 z m 3,0 v 3 h 3 v -3 z m 3,0 h 3 v -3 h -3 z m 3,0 v 3 h 3 v -3 z m 3,0 h 3 v -3 h -3 z m 3,0 v 3 h 3 v -3 z m 3,0 h 3 v -3 h -3 z m 3,0 v 3 h 3 v -3 z m 3,0 h 3 v -3 h -3 z m 3,0 v 3 h 3 v -3 z m 3,0 h 3 v -3 h -3 z m 3,0 v 3 h 3 v -3 z m 3,0 h 3 v -3 h -3 z m 3,0 v 3 h 3 v -3 z m 3,0 h 3 v -3 h -3 z m 3,0 v 3 h 3 v -3 z m 3,0 h 3 v -3 h -3 z m 3,0 v 3 h 3 v -3 z m 3,0 h 3 v -3 h -3 z m 3,0 v 3 h 3 v -3 z m 3,0 h 3 v -3 h -3 z m 3,0 v 3 h 3 v -3 z m 3,0 h 3 v -3 h -3 z m 0,3 v 3 h 3 v -3 z m 3,3 v 3 h 3 v -3 z m 0,3 h -3 v 3 h 3 z m 0,3 v 3 h 3 v -3 z m 3,3 v 3 h 3 v -3 z m 0,3 h -3 v 3 h 3 z m 0,3 v 3 h 3 v -3 z m 0,3 h -3 v 3 h 3 z m 0,3 v 3 h 3 v -3 z m 3,3 v 3 h 3 v -3 z m 0,3 h -3 v 3 h 3 z m 0,3 v 3 h 3 v -3 z m 3,3 v 3 h 3 v -3 z m -3,0 h -3 v 3 h 3 z m -3,0 v -3 h -3 v 3 z m -3,0 h -3 v 3 h 3 z m -3,0 v -3 h -3 v 3 z m -3,0 h -3 v 3 h 3 z m -3,0 v -3 h -3 v 3 z m -3,0 h -3 v 3 h 3 z m -3,0 v -3 h -3 v 3 z m -3,0 h -3 v 3 h 3 z m -3,0 v -3 h -3 v 3 z m -3,0 h -3 v 3 h 3 z m -3,0 v -3 h -3 v 3 z m -3,0 h -3 v 3 h 3 z m -3,0 v -3 h -3 v 3 z m -3,0 h -3 v 3 h 3 z m -3,0 v -3 h -3 v 3 z m -3,0 h -3 v 3 h 3 z m -3,0 v -3 h -3 v 3 z m -3,0 h -3 v 3 h 3 z m -3,0 v -3 h -3 v 3 z m -3,0 h -3 v 3 h 3 z m -3,0 v -3 h -3 v 3 z m -3,0 h -3 v 3 h 3 z m -3,0 v -3 h -3 v 3 z m -3,0 h -3 v 3 h 3 z m -3,0 v -3 h -3 v 3 z m -3,0 h -3 v 3 h 3 z m -3,0 v -3 h -3 v 3 z m 0,-3 h 3 v -3 h -3 z m 0,-3 v -3 h -3 v 3 z m -3,-3 v -3 h -3 v 3 z m 0,-3 h 3 v -3 h -3 z m 0,-3 v -3 h -3 v 3 z m 0,-3 h 3 v -3 h -3 z m 0,-3 v -3 h -3 v 3 z m -3,-3 v -3 h -3 v 3 z m 0,-3 h 3 v -3 h -3 z m 0,-3 v -3 h -3 v 3 z m 0,-3 h 3 v -3 h -3 z m 3,0 v 3 h 3 v -3 z m 3,0 h 3 v -3 h -3 z m 3,0 v 3 h 3 v -3 z m 3,0 h 3 v -3 h -3 z m 3,0 v 3 h 3 v -3 z m 3,0 h 3 v -3 h -3 z m 3,0 v 3 h 3 v -3 z m 3,0 h 3 v -3 h -3 z m 3,0 v 3 h 3 v -3 z m 3,0 h 3 v -3 h -3 z m 3,0 v 3 h 3 v -3 z m 3,0 h 3 v -3 h -3 z m 3,0 v 3 h 3 v -3 z m 3,0 h 3 v -3 h -3 z m 3,0 v 3 h 3 v -3 z m 3,0 h 3 v -3 h -3 z m 3,0 v 3 h 3 v -3 z m 3,0 h 3 v -3 h -3 z m 3,0 v 3 h 3 v -3 z m 3,0 h 3 v -3 h -3 z m 3,0 v 3 h 3 v -3 z m 3,0 h 3 v -3 h -3 z m 3,0 v 3 h 3 v -3 z m 3,0 h 3 v -3 h -3 z m 3,0 v 3 h 3 v -3 z m 0,3 h -3 v 3 h 3 z m 0,3 v 3 h 3 v -3 z m 3,3 v 3 h 3 v -3 z m 0,3 h -3 v 3 h 3 z m 0,3 v 3 h 3 v -3 z m 0,3 h -3 v 3 h 3 z m 0,3 v 3 h 3 v -3 z m 3,3 v 3 h 3 v -3 z m 0,3 h -3 v 3 h 3 z m -3,0 v -3 h -3 v 3 z m -3,0 h -3 v 3 h 3 z m -3,0 v -3 h -3 v 3 z m -3,0 h -3 v 3 h 3 z m -3,0 v -3 h -3 v 3 z m -3,0 h -3 v 3 h 3 z m -3,0 v -3 h -3 v 3 z m -3,0 h -3 v 3 h 3 z m -3,0 v -3 h -3 v 3 z m -3,0 h -3 v 3 h 3 z m -3,0 v -3 h -3 v 3 z m -3,0 h -3 v 3 h 3 z m -3,0 v -3 h -3 v 3 z m -3,0 h -3 v 3 h 3 z m -3,0 v -3 h -3 v 3 z m -3,0 h -3 v 3 h 3 z m -3,0 v -3 h -3 v 3 z m -3,0 h -3 v 3 h 3 z m -3,0 v -3 h -3 v 3 z m -3,0 h -3 v 3 h 3 z m -3,0 v -3 h -3 v 3 z m -3,0 h -3 v 3 h 3 z m -3,0 v -3 h -3 v 3 z m -3,-3 v -3 h -3 v 3 z m 0,-3 h 3 v -3 h -3 z m 0,-3 v -3 h -3 v 3 z m 0,-3 h 3 v -3 h -3 z m 0,-3 v -3 h -3 v 3 z m -3,-3 v -3 h -3 v 3 z m 0,-3 h 3 v -3 h -3 z m 3,0 v 3 h 3 v -3 z m 3,0 h 3 v -3 h -3 z m 3,0 v 3 h 3 v -3 z m 3,0 h 3 v -3 h -3 z m 3,0 v 3 h 3 v -3 z m 3,0 h 3 v -3 h -3 z m 3,0 v 3 h 3 v -3 z m 3,0 h 3 v -3 h -3 z m 3,0 v 3 h 3 v -3 z m 3,0 h 3 v -3 h -3 z m 3,0 v 3 h 3 v -3 z m 3,0 h 3 v -3 h -3 z m 3,0 v 3 h 3 v -3 z m 3,0 h 3 v -3 h -3 z m 3,0 v 3 h 3 v -3 z m 3,0 h 3 v -3 h -3 z m 3,0 v 3 h 3 v -3 z m 3,0 h 3 v -3 h -3 z m 3,0 v 3 h 3 v -3 z m 3,0 h 3 v -3 h -3 z m 3,0 v 3 h 3 v -3 z m 3,3 v 3 h 3 v -3 z m 0,3 h -3 v 3 h 3 z m 0,3 v 3 h 3 v -3 z m 0,3 h -3 v 3 h 3 z m 0,3 v 3 h 3 v -3 z m -3,0 h -3 v 3 h 3 z m -3,0 v -3 h -3 v 3 z m -3,0 h -3 v 3 h 3 z m -3,0 v -3 h -3 v 3 z m -3,0 h -3 v 3 h 3 z m -3,0 v -3 h -3 v 3 z m -3,0 h -3 v 3 h 3 z m -3,0 v -3 h -3 v 3 z m -3,0 h -3 v 3 h 3 z m -3,0 v -3 h -3 v 3 z m -3,0 h -3 v 3 h 3 z m -3,0 v -3 h -3 v 3 z m -3,0 h -3 v 3 h 3 z m -3,0 v -3 h -3 v 3 z m -3,0 h -3 v 3 h 3 z m -3,0 v -3 h -3 v 3 z m -3,0 h -3 v 3 h 3 z m -3,0 v -3 h -3 v 3 z m -3,0 h -3 v 3 h 3 z m 0,-3 v -3 h -3 v 3 z m 0,-3 h 3 v -3 h -3 z m 0,-3 v -3 h -3 v 3 z m 3,0 h 3 v -3 h -3 z m 3,0 v 3 h 3 v -3 z m 3,0 h 3 v -3 h -3 z m 3,0 v 3 h 3 v -3 z m 3,0 h 3 v -3 h -3 z m 3,0 v 3 h 3 v -3 z m 3,0 h 3 v -3 h -3 z m 3,0 v 3 h 3 v -3 z m 3,0 h 3 v -3 h -3 z m 3,0 v 3 h 3 v -3 z m 3,0 h 3 v -3 h -3 z m 3,0 v 3 h 3 v -3 z m 3,0 h 3 v -3 h -3 z m 3,0 v 3 h 3 v -3 z m 3,0 h 3 v -3 h -3 z m 3,0 v 3 h 3 v -3 z m 3,0 h 3 v -3 h -3 z m 0,3 v 3 h 3 v -3 z m -3,0 h -3 v 3 h 3 z m -6,0 h -3 v 3 h 3 z m -6,0 h -3 v 3 h 3 z m -6,0 h -3 v 3 h 3 z m -6,0 h -3 v 3 h 3 z m -6,0 h -3 v 3 h 3 z m -6,0 h -3 v 3 h 3 z m -6,0 h -3 v 3 h 3 z"
     id="rect3140"
     inkscape:connector-curvature="0" />
  <path
     style="fill:#808080"
     d="M 72 6 L 72 9 L 75 9 L 75 6 L 72 6 z M 72 9 L 69 9 L 69 12 L 72 12 L 72 9 z M 69 12 L 66 12 L 66 15 L 69 15 L 69 12 z M 66 15 L 63 15 L 63 18 L 66 18 L 66 15 z M 63 18 L 60 18 L 60 21 L 63 21 L 63 18 z M 60 21 L 57 21 L 57 24 L 60 24 L 60 21 z M 57 24 L 54 24 L 51 24 L 48 24 L 45 24 L 42 24 L 39 24 L 36 24 L 33 24 L 30 24 L 27 24 L 24 24 L 21 24 L 21 27 L 24 27 L 27 27 L 30 27 L 33 27 L 36 27 L 39 27 L 42 27 L 45 27 L 48 27 L 51 27 L 51 30 L 54 30 L 54 27 L 57 27 L 57 24 z M 51 30 L 48 30 L 48 33 L 51 33 L 51 30 z M 48 33 L 45 33 L 45 36 L 48 36 L 48 33 z M 45 36 L 42 36 L 42 39 L 45 39 L 45 36 z M 42 39 L 39 39 L 39 42 L 42 42 L 42 39 z M 39 42 L 36 42 L 36 45 L 39 45 L 39 42 z M 36 45 L 33 45 L 33 48 L 36 48 L 36 45 z M 33 48 L 30 48 L 30 51 L 33 51 L 33 48 z M 30 51 L 27 51 L 27 54 L 30 54 L 30 51 z M 27 54 L 24 54 L 24 57 L 27 57 L 27 54 z M 24 57 L 21 57 L 21 60 L 24 60 L 24 57 z M 21 27 L 18 27 L 18 30 L 21 30 L 21 27 z M 18 30 L 15 30 L 15 33 L 18 33 L 18 30 z M 15 33 L 12 33 L 12 36 L 12 39 L 12 42 L 12 45 L 12 48 L 12 51 L 12 54 L 12 57 L 12 60 L 9 60 L 6 60 L 3 60 L 3 63 L 6 63 L 9 63 L 12 63 L 15 63 L 15 60 L 15 57 L 15 54 L 15 51 L 15 48 L 15 45 L 15 42 L 15 39 L 15 36 L 15 33 z M 3 63 L 0 63 L 0 66 L 0 69 L 0 72 L 0 75 L 0 78 L 0 81 L 0 84 L 3 84 L 3 81 L 3 78 L 3 75 L 3 72 L 3 69 L 3 66 L 3 63 z M 3 84 L 3 87 L 3 90 L 3 93 L 3 96 L 3 99 L 6 99 L 6 96 L 6 93 L 6 90 L 6 87 L 6 84 L 3 84 z M 6 99 L 6 102 L 6 105 L 6 108 L 6 111 L 9 111 L 9 108 L 9 105 L 9 102 L 9 99 L 6 99 z M 9 111 L 9 114 L 9 117 L 9 120 L 9 123 L 12 123 L 12 120 L 12 117 L 12 114 L 12 111 L 9 111 z M 12 123 L 12 126 L 12 129 L 12 132 L 12 135 L 15 135 L 15 132 L 15 129 L 15 126 L 15 123 L 12 123 z M 15 135 L 15 138 L 18 138 L 18 135 L 15 135 z M 108 36 L 108 39 L 111 39 L 114 39 L 117 39 L 120 39 L 123 39 L 126 39 L 126 36 L 123 36 L 120 36 L 117 36 L 114 36 L 111 36 L 108 36 z M 114 66 L 114 69 L 117 69 L 117 66 L 114 66 z M 117 72 L 117 75 L 117 78 L 120 78 L 120 75 L 120 72 L 117 72 z M 120 84 L 120 87 L 120 90 L 123 90 L 123 87 L 123 84 L 120 84 z M 123 96 L 123 99 L 123 102 L 126 102 L 126 99 L 126 96 L 123 96 z M 126 108 L 126 111 L 126 114 L 129 114 L 129 111 L 129 108 L 126 108 z "
     id="rect3146" />
  <path
     style="fill:#808000"
     d="M 126 42 L 126 45 L 129 45 L 129 42 L 126 42 z M 129 45 L 129 48 L 129 51 L 129 54 L 129 57 L 129 60 L 132 60 L 132 57 L 132 54 L 132 51 L 132 48 L 132 45 L 129 45 z M 15 60 L 15 63 L 18 63 L 21 63 L 24 63 L 27 63 L 30 63 L 33 63 L 36 63 L 39 63 L 42 63 L 45 63 L 48 63 L 51 63 L 54 63 L 57 63 L 60 63 L 63 63 L 66 63 L 69 63 L 72 63 L 75 63 L 78 63 L 81 63 L 84 63 L 87 63 L 90 63 L 93 63 L 96 63 L 99 63 L 102 63 L 105 63 L 108 63 L 111 63 L 114 63 L 114 60 L 111 60 L 108 60 L 105 60 L 102 60 L 99 60 L 96 60 L 93 60 L 90 60 L 87 60 L 84 60 L 81 60 L 78 60 L 75 60 L 72 60 L 69 60 L 66 60 L 63 60 L 60 60 L 57 60 L 54 60 L 51 60 L 48 60 L 45 60 L 42 60 L 39 60 L 36 60 L 33 60 L 30 60 L 27 60 L 24 60 L 21 60 L 18 60 L 15 60 z M 129 90 L 129 93 L 126 93 L 126 96 L 129 96 L 129 99 L 129 102 L 129 105 L 129 108 L 132 108 L 132 105 L 132 102 L 132 99 L 132 96 L 132 93 L 132 90 L 129 90 z M 129 126 L 129 129 L 129 132 L 129 135 L 126 135 L 123 135 L 120 135 L 117 135 L 114 135 L 111 135 L 108 135 L 105 135 L 102 135 L 99 135 L 96 135 L 93 135 L 90 135 L 87 135 L 84 135 L 81 135 L 78 135 L 75 135 L 72 135 L 69 135 L 66 135 L 63 135 L 60 135 L 57 135 L 54 135 L 51 135 L 48 135 L 45 135 L 42 135 L 39 135 L 36 135 L 33 135 L 30 135 L 27 135 L 24 135 L 21 135 L 18 135 L 18 138 L 21 138 L 24 138 L 27 138 L 30 138 L 33 138 L 36 138 L 39 138 L 42 138 L 45 138 L 48 138 L 51 138 L 54 138 L 57 138 L 60 138 L 63 138 L 66 138 L 69 138 L 72 138 L 75 138 L 78 138 L 81 138 L 84 138 L 87 138 L 90 138 L 93 138 L 96 138 L 99 138 L 102 138 L 105 138 L 108 138 L 111 138 L 114 138 L 117 138 L 120 138 L 123 138 L 126 138 L 129 138 L 132 138 L 132 135 L 132 132 L 132 129 L 132 126 L 129 126 z "
     id="rect3222" />
  <path
     style="display:inline;fill:#000000"
     d="m 75,6 v 3 h 3 V 6 Z m 3,3 v 3 h 3 V 9 Z m 3,3 v 3 h 3 v -3 z m 3,3 v 3 h 3 v -3 z m 3,3 v 3 h 3 v -3 z m 3,3 v 3 h 3 v -3 z m 3,3 v 3 h 3 v -3 z m 3,3 v 3 h 3 v -3 z m 3,3 v 3 h 3 v -3 z m 3,3 v 3 h 3 v -3 z m 3,3 v 3 h 3 v -3 z m 3,3 v 3 h 3 v -3 z m 3,3 v 3 h 3 v -3 z m 3,3 v 3 h 3 v -3 z m 3,3 v 3 h 3 v -3 z m 3,3 v 3 h 3 v -3 z m 3,3 v 3 h 3 v -3 z m 3,3 v 3 h 3 v -3 z m 3,3 v 3 h 3 v 3 h 3 v -3 -3 -3 -3 -3 -3 -3 h -3 v 3 3 3 3 3 z m 3,-15 v -3 h -3 v 3 z m -3,-3 v -3 h -3 v 3 z m 6,24 v 3 h 3 v -3 z m 3,3 v 3 h 3 v -3 z m 3,3 v 3 3 h 3 v -3 -3 z m 0,6 h -3 v 3 h 3 z m -3,3 h -3 v 3 h 3 z m -3,3 h -3 v 3 h -3 v 3 h 3 v 3 3 3 3 3 3 h -3 v 3 3 3 3 3 3 h 3 v 3 3 3 3 h 3 v -3 -3 -3 -3 -3 -3 -3 -3 -3 -3 -3 -3 -3 -3 -3 -3 -3 z m -3,54 h -3 -3 -3 -3 -3 -3 -3 -3 -3 -3 -3 -3 -3 -3 -3 -3 -3 -3 -3 -3 -3 -3 -3 -3 -3 -3 -3 -3 -3 -3 -3 -3 -3 -3 -3 -3 -3 -3 v 3 h 3 3 3 3 3 3 3 3 3 3 3 3 3 3 3 3 3 3 3 3 3 3 3 3 3 3 3 3 3 3 3 3 3 3 3 3 3 3 z m -3,-30 v -3 -3 -3 -3 h -3 v 3 3 3 3 z m -3,-12 v -3 h 3 v -3 h -3 v -3 -3 h -3 v 3 3 3 3 z m -3,-12 v -3 -3 -3 -3 h -3 v 3 3 3 3 z m -3,-12 v -3 -3 h -3 v 3 3 z m -3,-6 v -3 h -3 v 3 z"
     id="rect3300"
     inkscape:connector-curvature="0" />
</svg>
