<?xml version="1.0" encoding="UTF-8" standalone="no"?>
<svg
   xmlns:dc="http://purl.org/dc/elements/1.1/"
   xmlns:cc="http://creativecommons.org/ns#"
   xmlns:rdf="http://www.w3.org/1999/02/22-rdf-syntax-ns#"
   xmlns:svg="http://www.w3.org/2000/svg"
   xmlns="http://www.w3.org/2000/svg"
   height="192px"
   version="1.1"
   width="192px"
   id="svg1658">
  <metadata
     id="metadata1662">
    <rdf:RDF>
      <cc:Work
         rdf:about="">
        <dc:format>image/svg+xml</dc:format>
        <dc:type
           rdf:resource="http://purl.org/dc/dcmitype/StillImage" />
      </cc:Work>
    </rdf:RDF>
  </metadata>
  <defs
     id="defs2" />
  <path
     id="rect1464"
     d="M 88 88 L 88 92 L 92 92 L 92 88 L 88 88 z M 92 92 L 92 96 L 96 96 L 96 92 L 92 92 z M 96 96 L 96 100 L 100 100 L 100 96 L 96 96 z M 136 88 L 136 92 L 140 92 L 140 88 L 136 88 z M 140 92 L 140 96 L 144 96 L 144 92 L 140 92 z M 140 96 L 136 96 L 136 100 L 140 100 L 140 96 z M 136 100 L 132 100 L 132 104 L 136 104 L 136 100 z M 136 104 L 136 108 L 140 108 L 140 104 L 136 104 z M 140 108 L 140 112 L 144 112 L 144 108 L 140 108 z M 140 112 L 136 112 L 136 116 L 140 116 L 140 112 z M 136 116 L 132 116 L 132 120 L 136 120 L 136 116 z M 136 120 L 136 124 L 140 124 L 140 120 L 136 120 z M 132 116 L 132 112 L 128 112 L 128 116 L 132 116 z M 128 116 L 124 116 L 124 120 L 128 120 L 128 116 z M 132 112 L 136 112 L 136 108 L 132 108 L 132 112 z M 132 100 L 132 96 L 128 96 L 128 100 L 132 100 z M 132 96 L 136 96 L 136 92 L 132 92 L 132 96 z M 88 104 L 88 108 L 92 108 L 92 104 L 88 104 z M 92 108 L 92 112 L 96 112 L 96 108 L 92 108 z M 96 112 L 96 116 L 100 116 L 100 112 L 96 112 z M 100 116 L 100 120 L 104 120 L 104 116 L 100 116 z M 100 120 L 96 120 L 96 124 L 100 124 L 100 120 z M 96 124 L 92 124 L 92 128 L 96 128 L 96 124 z M 92 128 L 88 128 L 88 132 L 88 136 L 88 140 L 92 140 L 92 136 L 92 132 L 92 128 z M 92 124 L 92 120 L 88 120 L 88 124 L 92 124 z M 88 108 L 84 108 L 84 112 L 88 112 L 88 108 z M 76 108 L 76 112 L 80 112 L 80 108 L 76 108 z M 148 108 L 148 112 L 152 112 L 152 108 L 148 108 z M 108 116 L 108 120 L 112 120 L 112 116 L 108 116 z M 112 120 L 112 124 L 116 124 L 116 120 L 112 120 z M 116 120 L 120 120 L 120 116 L 116 116 L 116 120 z M 116 124 L 116 128 L 120 128 L 120 124 L 116 124 z M 116 128 L 112 128 L 112 132 L 116 132 L 116 128 z "
     style="fill:#ffff00" />
  <path
     id="rect1496"
     d="M 36 40 L 36 44 L 36 48 L 36 52 L 36 56 L 36 60 L 36 64 L 36 68 L 36 72 L 36 76 L 36 80 L 36 84 L 36 88 L 36 92 L 36 96 L 36 100 L 36 104 L 36 108 L 36 112 L 36 116 L 36 120 L 36 124 L 36 128 L 36 132 L 36 136 L 36 140 L 36 144 L 40 144 L 40 140 L 40 136 L 40 132 L 40 128 L 40 124 L 40 120 L 40 116 L 40 112 L 40 108 L 40 104 L 40 100 L 40 96 L 40 92 L 40 88 L 40 84 L 40 80 L 40 76 L 40 72 L 40 68 L 40 64 L 40 60 L 40 56 L 40 52 L 40 48 L 40 44 L 44 44 L 48 44 L 52 44 L 56 44 L 60 44 L 64 44 L 68 44 L 72 44 L 76 44 L 80 44 L 84 44 L 88 44 L 92 44 L 96 44 L 100 44 L 104 44 L 108 44 L 112 44 L 116 44 L 120 44 L 124 44 L 128 44 L 132 44 L 136 44 L 136 40 L 132 40 L 128 40 L 124 40 L 120 40 L 116 40 L 112 40 L 108 40 L 104 40 L 100 40 L 96 40 L 92 40 L 88 40 L 84 40 L 80 40 L 76 40 L 72 40 L 68 40 L 64 40 L 60 40 L 56 40 L 52 40 L 48 40 L 44 40 L 40 40 L 36 40 z M 92 48 L 92 52 L 92 56 L 92 60 L 92 64 L 92 68 L 92 72 L 92 76 L 92 80 L 92 84 L 96 84 L 96 80 L 96 76 L 96 72 L 96 68 L 96 64 L 96 60 L 96 56 L 96 52 L 100 52 L 104 52 L 108 52 L 112 52 L 116 52 L 120 52 L 120 48 L 116 48 L 112 48 L 108 48 L 104 48 L 100 48 L 96 48 L 92 48 z M 56 56 L 56 60 L 56 64 L 56 68 L 56 72 L 56 76 L 56 80 L 60 80 L 64 80 L 68 80 L 72 80 L 76 80 L 76 76 L 76 72 L 76 68 L 72 68 L 72 72 L 68 72 L 68 76 L 64 76 L 64 72 L 60 72 L 60 68 L 60 64 L 64 64 L 64 68 L 68 68 L 68 64 L 72 64 L 72 60 L 76 60 L 76 56 L 72 56 L 68 56 L 64 56 L 60 56 L 56 56 z M 80 56 L 80 60 L 80 64 L 80 68 L 80 72 L 80 76 L 80 80 L 80 84 L 76 84 L 72 84 L 68 84 L 64 84 L 60 84 L 56 84 L 52 84 L 52 88 L 56 88 L 60 88 L 64 88 L 68 88 L 72 88 L 76 88 L 80 88 L 84 88 L 84 84 L 84 80 L 84 76 L 84 72 L 84 68 L 84 64 L 84 60 L 84 56 L 80 56 z M 108 80 L 108 84 L 112 84 L 116 84 L 120 84 L 120 80 L 116 80 L 112 80 L 108 80 z M 92 88 L 92 92 L 96 92 L 96 88 L 92 88 z M 96 92 L 96 96 L 100 96 L 100 92 L 96 92 z M 100 96 L 100 100 L 104 100 L 104 96 L 100 96 z M 100 100 L 96 100 L 96 96 L 92 96 L 92 100 L 92 104 L 92 108 L 96 108 L 96 104 L 100 104 L 100 100 z M 100 104 L 100 108 L 104 108 L 104 104 L 100 104 z M 100 108 L 96 108 L 96 112 L 100 112 L 100 108 z M 100 112 L 100 116 L 104 116 L 104 112 L 100 112 z M 104 116 L 104 120 L 108 120 L 108 116 L 104 116 z M 100 116 L 96 116 L 96 120 L 100 120 L 100 116 z M 96 120 L 92 120 L 92 124 L 96 124 L 96 120 z M 96 116 L 96 112 L 92 112 L 92 116 L 96 116 z M 92 112 L 92 108 L 88 108 L 88 112 L 92 112 z M 92 96 L 92 92 L 88 92 L 88 96 L 92 96 z M 108 88 L 108 92 L 108 96 L 108 100 L 108 104 L 108 108 L 108 112 L 112 112 L 112 108 L 112 104 L 112 100 L 112 96 L 112 92 L 112 88 L 108 88 z M 140 88 L 140 92 L 144 92 L 144 88 L 140 88 z M 140 92 L 136 92 L 136 96 L 140 96 L 140 92 z M 136 96 L 132 96 L 132 100 L 136 100 L 136 96 z M 136 100 L 136 104 L 140 104 L 140 100 L 136 100 z M 140 104 L 140 108 L 144 108 L 144 104 L 140 104 z M 144 108 L 144 112 L 148 112 L 148 108 L 144 108 z M 140 108 L 136 108 L 136 112 L 140 112 L 140 108 z M 136 112 L 132 112 L 132 116 L 136 116 L 136 112 z M 132 116 L 128 116 L 128 120 L 132 120 L 132 116 z M 132 120 L 132 124 L 136 124 L 136 120 L 132 120 z M 136 124 L 136 128 L 140 128 L 140 124 L 136 124 z M 140 124 L 144 124 L 144 120 L 140 120 L 140 124 z M 56 104 L 56 108 L 56 112 L 56 116 L 56 120 L 56 124 L 56 128 L 60 128 L 64 128 L 68 128 L 72 128 L 76 128 L 76 124 L 72 124 L 72 120 L 72 116 L 72 112 L 72 108 L 72 104 L 68 104 L 64 104 L 60 104 L 56 104 z M 76 128 L 76 132 L 80 132 L 80 128 L 76 128 z M 76 132 L 72 132 L 68 132 L 64 132 L 60 132 L 56 132 L 52 132 L 48 132 L 48 136 L 52 136 L 56 136 L 60 136 L 64 136 L 68 136 L 72 136 L 76 136 L 76 132 z M 128 104 L 128 108 L 132 108 L 132 104 L 128 104 z M 80 108 L 80 112 L 84 112 L 84 108 L 80 108 z M 152 108 L 152 112 L 156 112 L 156 108 L 152 108 z M 112 116 L 112 120 L 116 120 L 116 116 L 112 116 z M 116 120 L 116 124 L 120 124 L 120 120 L 116 120 z M 120 120 L 124 120 L 124 116 L 120 116 L 120 120 z M 116 124 L 112 124 L 112 128 L 116 128 L 116 124 z M 116 128 L 116 132 L 120 132 L 120 128 L 116 128 z "
     style="fill:#ffffff" />
  <path
     id="rect1536"
     d="M 84 84 L 84 88 L 84 92 L 84 96 L 88 96 L 88 92 L 88 88 L 92 88 L 96 88 L 96 84 L 92 84 L 88 84 L 84 84 z M 88 96 L 88 100 L 88 104 L 92 104 L 92 100 L 92 96 L 88 96 z M 88 104 L 84 104 L 80 104 L 76 104 L 72 104 L 72 108 L 72 112 L 76 112 L 76 108 L 80 108 L 84 108 L 88 108 L 88 104 z M 76 112 L 76 116 L 76 120 L 76 124 L 80 124 L 84 124 L 84 120 L 88 120 L 88 116 L 92 116 L 92 112 L 88 112 L 84 112 L 80 112 L 76 112 z M 92 116 L 92 120 L 96 120 L 96 116 L 92 116 z M 84 124 L 84 128 L 84 132 L 84 136 L 84 140 L 88 140 L 88 136 L 88 132 L 88 128 L 92 128 L 92 124 L 88 124 L 84 124 z M 100 92 L 100 96 L 104 96 L 104 92 L 100 92 z M 128 92 L 128 96 L 132 96 L 132 92 L 128 92 z M 140 96 L 140 100 L 140 104 L 144 104 L 144 100 L 144 96 L 140 96 z M 144 112 L 144 116 L 144 120 L 148 120 L 148 124 L 152 124 L 156 124 L 156 120 L 156 116 L 156 112 L 152 112 L 148 112 L 144 112 z M 136 116 L 136 120 L 140 120 L 140 116 L 136 116 z M 108 120 L 108 124 L 104 124 L 100 124 L 100 128 L 96 128 L 96 132 L 96 136 L 100 136 L 100 132 L 104 132 L 108 132 L 108 136 L 108 140 L 112 140 L 112 144 L 116 144 L 120 144 L 120 140 L 120 136 L 120 132 L 116 132 L 112 132 L 112 128 L 112 124 L 112 120 L 108 120 z M 120 120 L 120 124 L 124 124 L 124 120 L 120 120 z M 124 124 L 124 128 L 124 132 L 128 132 L 132 132 L 132 136 L 136 136 L 136 140 L 140 140 L 144 140 L 144 136 L 144 132 L 144 128 L 144 124 L 140 124 L 140 128 L 136 128 L 136 124 L 132 124 L 128 124 L 124 124 z "
     style="fill:#808000" />
  <path
     id="rect1544"
     d="M 40 44 L 40 48 L 40 52 L 40 56 L 40 60 L 40 64 L 40 68 L 40 72 L 40 76 L 40 80 L 40 84 L 40 88 L 40 92 L 40 96 L 40 100 L 40 104 L 40 108 L 40 112 L 40 116 L 40 120 L 40 124 L 40 128 L 40 132 L 40 136 L 40 140 L 40 144 L 44 144 L 48 144 L 52 144 L 56 144 L 60 144 L 64 144 L 68 144 L 72 144 L 76 144 L 80 144 L 84 144 L 88 144 L 88 140 L 84 140 L 84 136 L 84 132 L 84 128 L 80 128 L 80 132 L 76 132 L 76 136 L 72 136 L 68 136 L 64 136 L 60 136 L 56 136 L 52 136 L 48 136 L 48 132 L 48 128 L 48 124 L 48 120 L 48 116 L 48 112 L 48 108 L 48 104 L 48 100 L 48 96 L 52 96 L 56 96 L 60 96 L 64 96 L 68 96 L 72 96 L 76 96 L 80 96 L 84 96 L 84 92 L 84 88 L 80 88 L 76 88 L 72 88 L 68 88 L 64 88 L 60 88 L 56 88 L 52 88 L 48 88 L 48 84 L 48 80 L 48 76 L 48 72 L 48 68 L 48 64 L 48 60 L 48 56 L 48 52 L 48 48 L 52 48 L 56 48 L 60 48 L 64 48 L 68 48 L 72 48 L 76 48 L 80 48 L 84 48 L 84 52 L 80 52 L 80 56 L 84 56 L 84 60 L 84 64 L 84 68 L 84 72 L 84 76 L 84 80 L 84 84 L 88 84 L 92 84 L 92 80 L 92 76 L 92 72 L 92 68 L 92 64 L 92 60 L 92 56 L 92 52 L 92 48 L 96 48 L 100 48 L 104 48 L 108 48 L 112 48 L 116 48 L 120 48 L 124 48 L 124 52 L 124 56 L 124 60 L 124 64 L 124 68 L 124 72 L 124 76 L 124 80 L 128 80 L 128 84 L 128 88 L 132 88 L 132 84 L 132 80 L 132 76 L 132 72 L 132 68 L 132 64 L 132 60 L 132 56 L 132 52 L 132 48 L 132 44 L 128 44 L 124 44 L 120 44 L 116 44 L 112 44 L 108 44 L 104 44 L 100 44 L 96 44 L 92 44 L 88 44 L 84 44 L 80 44 L 76 44 L 72 44 L 68 44 L 64 44 L 60 44 L 56 44 L 52 44 L 48 44 L 44 44 L 40 44 z M 124 80 L 120 80 L 120 84 L 124 84 L 124 80 z M 80 56 L 76 56 L 76 60 L 72 60 L 72 64 L 76 64 L 76 68 L 76 72 L 76 76 L 76 80 L 72 80 L 68 80 L 64 80 L 60 80 L 56 80 L 52 80 L 52 84 L 56 84 L 60 84 L 64 84 L 68 84 L 72 84 L 76 84 L 80 84 L 80 80 L 80 76 L 80 72 L 80 68 L 80 64 L 80 60 L 80 56 z M 72 64 L 68 64 L 68 68 L 72 68 L 72 64 z M 68 68 L 64 68 L 64 72 L 68 72 L 68 68 z M 64 68 L 64 64 L 60 64 L 60 68 L 64 68 z M 76 132 L 76 128 L 72 128 L 68 128 L 64 128 L 60 128 L 56 128 L 52 128 L 52 132 L 56 132 L 60 132 L 64 132 L 68 132 L 72 132 L 76 132 z M 96 52 L 96 56 L 96 60 L 96 64 L 96 68 L 96 72 L 96 76 L 96 80 L 100 80 L 104 80 L 108 80 L 108 76 L 112 76 L 116 76 L 116 72 L 116 68 L 116 64 L 116 60 L 116 56 L 116 52 L 112 52 L 108 52 L 104 52 L 100 52 L 96 52 z M 112 88 L 112 92 L 112 96 L 112 100 L 112 104 L 112 108 L 112 112 L 116 112 L 116 108 L 116 104 L 116 100 L 116 96 L 116 92 L 116 88 L 112 88 z M 80 100 L 80 104 L 84 104 L 84 100 L 80 100 z M 100 136 L 100 140 L 96 140 L 96 144 L 100 144 L 104 144 L 108 144 L 108 140 L 108 136 L 104 136 L 100 136 z M 124 136 L 124 140 L 124 144 L 128 144 L 132 144 L 136 144 L 136 140 L 132 140 L 132 136 L 128 136 L 124 136 z "
     style="fill:#c0c0c0" />
  <path
     id="rect1600"
     d="M 32 36 L 32 40 L 32 44 L 32 48 L 32 52 L 32 56 L 32 60 L 32 64 L 32 68 L 32 72 L 32 76 L 32 80 L 32 84 L 32 88 L 32 92 L 32 96 L 32 100 L 32 104 L 32 108 L 32 112 L 32 116 L 32 120 L 32 124 L 32 128 L 32 132 L 32 136 L 32 140 L 32 144 L 32 148 L 36 148 L 40 148 L 44 148 L 48 148 L 52 148 L 56 148 L 60 148 L 64 148 L 68 148 L 72 148 L 76 148 L 80 148 L 84 148 L 88 148 L 92 148 L 96 148 L 100 148 L 104 148 L 108 148 L 108 144 L 104 144 L 100 144 L 96 144 L 92 144 L 88 144 L 84 144 L 80 144 L 76 144 L 72 144 L 68 144 L 64 144 L 60 144 L 56 144 L 52 144 L 48 144 L 44 144 L 40 144 L 36 144 L 36 140 L 36 136 L 36 132 L 36 128 L 36 124 L 36 120 L 36 116 L 36 112 L 36 108 L 36 104 L 36 100 L 36 96 L 36 92 L 36 88 L 36 84 L 36 80 L 36 76 L 36 72 L 36 68 L 36 64 L 36 60 L 36 56 L 36 52 L 36 48 L 36 44 L 36 40 L 40 40 L 44 40 L 48 40 L 52 40 L 56 40 L 60 40 L 64 40 L 68 40 L 72 40 L 76 40 L 80 40 L 84 40 L 88 40 L 92 40 L 96 40 L 100 40 L 104 40 L 108 40 L 112 40 L 116 40 L 120 40 L 124 40 L 128 40 L 132 40 L 136 40 L 140 40 L 140 36 L 136 36 L 132 36 L 128 36 L 124 36 L 120 36 L 116 36 L 112 36 L 108 36 L 104 36 L 100 36 L 96 36 L 92 36 L 88 36 L 84 36 L 80 36 L 76 36 L 72 36 L 68 36 L 64 36 L 60 36 L 56 36 L 52 36 L 48 36 L 44 36 L 40 36 L 36 36 L 32 36 z M 132 44 L 132 48 L 132 52 L 132 56 L 132 60 L 132 64 L 132 68 L 132 72 L 132 76 L 132 80 L 132 84 L 132 88 L 136 88 L 136 84 L 136 80 L 136 76 L 136 72 L 136 68 L 136 64 L 136 60 L 136 56 L 136 52 L 136 48 L 136 44 L 132 44 z M 48 48 L 48 52 L 48 56 L 48 60 L 48 64 L 48 68 L 48 72 L 48 76 L 48 80 L 48 84 L 48 88 L 52 88 L 52 84 L 52 80 L 52 76 L 52 72 L 52 68 L 52 64 L 52 60 L 52 56 L 52 52 L 56 52 L 60 52 L 64 52 L 68 52 L 72 52 L 76 52 L 80 52 L 84 52 L 84 48 L 80 48 L 76 48 L 72 48 L 68 48 L 64 48 L 60 48 L 56 48 L 52 48 L 48 48 z M 116 52 L 116 56 L 116 60 L 116 64 L 116 68 L 116 72 L 116 76 L 112 76 L 108 76 L 108 80 L 112 80 L 116 80 L 120 80 L 124 80 L 124 76 L 120 76 L 120 72 L 120 68 L 120 64 L 120 60 L 120 56 L 120 52 L 116 52 z M 108 80 L 104 80 L 100 80 L 96 80 L 96 84 L 100 84 L 104 84 L 104 88 L 104 92 L 104 96 L 104 100 L 104 104 L 104 108 L 104 112 L 108 112 L 108 108 L 108 104 L 108 100 L 108 96 L 108 92 L 108 88 L 112 88 L 116 88 L 116 92 L 116 96 L 116 100 L 116 104 L 116 108 L 116 112 L 120 112 L 124 112 L 124 108 L 124 104 L 124 100 L 124 96 L 124 92 L 124 88 L 124 84 L 120 84 L 116 84 L 112 84 L 108 84 L 108 80 z M 48 96 L 48 100 L 48 104 L 48 108 L 48 112 L 48 116 L 48 120 L 48 124 L 48 128 L 48 132 L 52 132 L 52 128 L 52 124 L 52 120 L 52 116 L 52 112 L 52 108 L 52 104 L 52 100 L 56 100 L 60 100 L 64 100 L 68 100 L 72 100 L 76 100 L 80 100 L 84 100 L 84 96 L 80 96 L 76 96 L 72 96 L 68 96 L 64 96 L 60 96 L 56 96 L 52 96 L 48 96 z M 124 144 L 124 148 L 128 148 L 132 148 L 136 148 L 136 144 L 132 144 L 128 144 L 124 144 z "
     style="fill:#808080" />
  <path
     id="rect1656"
     d="M 136 40 L 136 44 L 136 48 L 136 52 L 136 56 L 136 60 L 136 64 L 136 68 L 136 72 L 136 76 L 136 80 L 136 84 L 136 88 L 140 88 L 144 88 L 144 84 L 140 84 L 140 80 L 140 76 L 140 72 L 140 68 L 140 64 L 140 60 L 140 56 L 140 52 L 140 48 L 140 44 L 140 40 L 136 40 z M 144 88 L 144 92 L 144 96 L 144 100 L 144 104 L 144 108 L 148 108 L 152 108 L 156 108 L 156 104 L 152 104 L 148 104 L 148 100 L 148 96 L 148 92 L 148 88 L 144 88 z M 156 108 L 156 112 L 156 116 L 156 120 L 156 124 L 160 124 L 160 120 L 160 116 L 160 112 L 160 108 L 156 108 z M 156 124 L 152 124 L 148 124 L 148 120 L 144 120 L 144 124 L 144 128 L 144 132 L 144 136 L 144 140 L 148 140 L 148 136 L 148 132 L 148 128 L 152 128 L 156 128 L 156 124 z M 144 140 L 140 140 L 136 140 L 136 144 L 136 148 L 132 148 L 128 148 L 124 148 L 124 144 L 124 140 L 124 136 L 128 136 L 132 136 L 132 132 L 128 132 L 124 132 L 124 128 L 124 124 L 120 124 L 120 128 L 120 132 L 120 136 L 120 140 L 120 144 L 116 144 L 112 144 L 112 140 L 108 140 L 108 144 L 108 148 L 104 148 L 100 148 L 96 148 L 92 148 L 88 148 L 84 148 L 80 148 L 76 148 L 72 148 L 68 148 L 64 148 L 60 148 L 56 148 L 52 148 L 48 148 L 44 148 L 40 148 L 36 148 L 32 148 L 32 152 L 36 152 L 40 152 L 44 152 L 48 152 L 52 152 L 56 152 L 60 152 L 64 152 L 68 152 L 72 152 L 76 152 L 80 152 L 84 152 L 88 152 L 92 152 L 96 152 L 100 152 L 104 152 L 108 152 L 112 152 L 116 152 L 120 152 L 124 152 L 128 152 L 132 152 L 136 152 L 140 152 L 140 148 L 140 144 L 144 144 L 144 140 z M 124 124 L 128 124 L 132 124 L 132 120 L 128 120 L 124 120 L 124 124 z M 132 136 L 132 140 L 136 140 L 136 136 L 132 136 z M 144 120 L 144 116 L 144 112 L 140 112 L 140 116 L 140 120 L 144 120 z M 136 88 L 132 88 L 128 88 L 128 84 L 128 80 L 124 80 L 124 84 L 124 88 L 124 92 L 124 96 L 124 100 L 124 104 L 124 108 L 124 112 L 120 112 L 116 112 L 112 112 L 108 112 L 104 112 L 104 116 L 108 116 L 112 116 L 116 116 L 120 116 L 124 116 L 128 116 L 128 112 L 132 112 L 132 108 L 128 108 L 128 104 L 132 104 L 132 100 L 128 100 L 128 96 L 128 92 L 132 92 L 136 92 L 136 88 z M 132 104 L 132 108 L 136 108 L 136 104 L 132 104 z M 104 112 L 104 108 L 100 108 L 100 112 L 104 112 z M 100 108 L 100 104 L 96 104 L 96 108 L 100 108 z M 100 104 L 104 104 L 104 100 L 100 100 L 100 104 z M 120 48 L 120 52 L 120 56 L 120 60 L 120 64 L 120 68 L 120 72 L 120 76 L 124 76 L 124 72 L 124 68 L 124 64 L 124 60 L 124 56 L 124 52 L 124 48 L 120 48 z M 52 52 L 52 56 L 52 60 L 52 64 L 52 68 L 52 72 L 52 76 L 52 80 L 56 80 L 56 76 L 56 72 L 56 68 L 56 64 L 56 60 L 56 56 L 60 56 L 64 56 L 68 56 L 72 56 L 76 56 L 80 56 L 80 52 L 76 52 L 72 52 L 68 52 L 64 52 L 60 52 L 56 52 L 52 52 z M 72 64 L 72 68 L 76 68 L 76 64 L 72 64 z M 72 68 L 68 68 L 68 72 L 72 72 L 72 68 z M 68 72 L 64 72 L 64 76 L 68 76 L 68 72 z M 64 72 L 64 68 L 60 68 L 60 72 L 64 72 z M 96 84 L 96 88 L 96 92 L 100 92 L 104 92 L 104 88 L 104 84 L 100 84 L 96 84 z M 84 96 L 84 100 L 84 104 L 88 104 L 88 100 L 88 96 L 84 96 z M 52 100 L 52 104 L 52 108 L 52 112 L 52 116 L 52 120 L 52 124 L 52 128 L 56 128 L 56 124 L 56 120 L 56 116 L 56 112 L 56 108 L 56 104 L 60 104 L 64 104 L 68 104 L 72 104 L 76 104 L 80 104 L 80 100 L 76 100 L 72 100 L 68 100 L 64 100 L 60 100 L 56 100 L 52 100 z M 72 112 L 72 116 L 72 120 L 72 124 L 76 124 L 76 120 L 76 116 L 76 112 L 72 112 z M 76 124 L 76 128 L 80 128 L 84 128 L 84 124 L 80 124 L 76 124 z M 84 124 L 88 124 L 88 120 L 84 120 L 84 124 z M 88 120 L 92 120 L 92 116 L 88 116 L 88 120 z M 100 120 L 100 124 L 104 124 L 108 124 L 108 120 L 104 120 L 100 120 z M 100 124 L 96 124 L 96 128 L 100 128 L 100 124 z M 96 128 L 92 128 L 92 132 L 92 136 L 92 140 L 88 140 L 88 144 L 92 144 L 96 144 L 96 140 L 100 140 L 100 136 L 96 136 L 96 132 L 96 128 z M 100 136 L 104 136 L 108 136 L 108 132 L 104 132 L 100 132 L 100 136 z "
     style="fill:#000000" />
</svg>
