<?xml version="1.0" encoding="UTF-8" standalone="no"?>
<svg
   xmlns:dc="http://purl.org/dc/elements/1.1/"
   xmlns:cc="http://creativecommons.org/ns#"
   xmlns:rdf="http://www.w3.org/1999/02/22-rdf-syntax-ns#"
   xmlns:svg="http://www.w3.org/2000/svg"
   xmlns="http://www.w3.org/2000/svg"
   xmlns:sodipodi="http://sodipodi.sourceforge.net/DTD/sodipodi-0.dtd"
   xmlns:inkscape="http://www.inkscape.org/namespaces/inkscape"
   id="svg808"
   width="96px"
   version="1.1"
   height="96px"
   sodipodi:docname="chicago95_tmp_file.svg"
   inkscape:version="0.92.4 (5da689c313, 2019-01-14)">
  <sodipodi:namedview
     pagecolor="#ffffff"
     bordercolor="#666666"
     borderopacity="1"
     objecttolerance="10"
     gridtolerance="10"
     guidetolerance="10"
     inkscape:pageopacity="0"
     inkscape:pageshadow="2"
     inkscape:window-width="640"
     inkscape:window-height="480"
     id="namedview407"
     showgrid="false"
     inkscape:zoom="2.4583333"
     inkscape:cx="47.999995"
     inkscape:cy="47.999995"
     inkscape:window-x="0"
     inkscape:window-y="0"
     inkscape:window-maximized="0"
     inkscape:current-layer="svg808" />
  <metadata
     id="metadata812">
    <rdf:RDF>
      <cc:Work
         rdf:about="">
        <dc:format>image/svg+xml</dc:format>
        <dc:type
           rdf:resource="http://purl.org/dc/dcmitype/StillImage" />
      </cc:Work>
    </rdf:RDF>
  </metadata>
  <defs
     id="defs2" />
  <path
     style="fill:#ffff00"
     d="M 36 15 L 36 18 L 39 18 L 39 15 L 36 15 z M 36 18 L 33 18 L 33 21 L 36 21 L 36 18 z M 33 21 L 30 21 L 30 24 L 33 24 L 33 21 z M 33 24 L 33 27 L 36 27 L 36 24 L 33 24 z M 33 27 L 30 27 L 30 30 L 33 30 L 33 27 z M 30 30 L 27 30 L 27 33 L 30 33 L 30 30 z M 27 30 L 27 27 L 24 27 L 24 30 L 27 30 z M 24 30 L 21 30 L 18 30 L 18 33 L 18 36 L 21 36 L 21 33 L 24 33 L 24 30 z M 27 27 L 30 27 L 30 24 L 27 24 L 27 27 z M 9 36 L 9 39 L 12 39 L 12 36 L 9 36 z M 9 42 L 9 45 L 12 45 L 12 42 L 9 42 z M 9 45 L 6 45 L 6 48 L 9 48 L 9 45 z M 9 48 L 9 51 L 12 51 L 12 48 L 9 48 z M 9 51 L 6 51 L 6 54 L 9 54 L 9 51 z M 9 54 L 9 57 L 12 57 L 12 54 L 9 54 z M 15 42 L 15 45 L 18 45 L 18 42 L 15 42 z M 18 45 L 18 48 L 21 48 L 21 45 L 18 45 z M 21 45 L 24 45 L 24 42 L 21 42 L 21 45 z M 24 45 L 24 48 L 27 48 L 27 45 L 24 45 z M 27 45 L 30 45 L 30 42 L 27 42 L 27 45 z M 30 45 L 30 48 L 33 48 L 33 45 L 30 45 z M 33 45 L 36 45 L 36 42 L 33 42 L 33 45 z M 33 48 L 33 51 L 36 51 L 36 48 L 33 48 z M 33 51 L 30 51 L 30 54 L 33 54 L 33 51 z M 33 54 L 33 57 L 36 57 L 36 54 L 33 54 z M 33 57 L 30 57 L 30 60 L 33 60 L 33 57 z M 33 60 L 33 63 L 36 63 L 36 60 L 33 60 z M 33 63 L 30 63 L 30 66 L 33 66 L 33 63 z M 33 66 L 33 69 L 36 69 L 36 66 L 33 66 z M 30 63 L 30 60 L 27 60 L 27 63 L 30 63 z M 27 63 L 24 63 L 24 66 L 27 66 L 27 63 z M 24 63 L 24 60 L 21 60 L 21 63 L 24 63 z M 21 60 L 21 57 L 18 57 L 18 60 L 21 60 z M 18 57 L 18 54 L 15 54 L 15 57 L 18 57 z M 18 54 L 21 54 L 21 51 L 18 51 L 18 54 z M 18 51 L 18 48 L 15 48 L 15 51 L 18 51 z M 21 51 L 24 51 L 24 48 L 21 48 L 21 51 z M 24 51 L 24 54 L 27 54 L 27 51 L 24 51 z M 27 51 L 30 51 L 30 48 L 27 48 L 27 51 z M 27 54 L 27 57 L 30 57 L 30 54 L 27 54 z M 27 57 L 24 57 L 24 60 L 27 60 L 27 57 z M 24 57 L 24 54 L 21 54 L 21 57 L 24 57 z "
     id="rect676" />
  <path
     style="fill:#ffffff"
     d="M 48 9 L 48 12 L 45 12 L 45 15 L 45 18 L 45 21 L 45 24 L 45 27 L 45 30 L 45 33 L 45 36 L 48 36 L 48 39 L 51 39 L 51 42 L 51 45 L 51 48 L 51 51 L 51 54 L 51 57 L 51 60 L 48 60 L 48 63 L 45 63 L 45 66 L 45 69 L 45 72 L 45 75 L 45 78 L 45 81 L 48 81 L 48 84 L 51 84 L 51 81 L 54 81 L 54 78 L 57 78 L 57 75 L 57 72 L 57 69 L 57 66 L 60 66 L 60 63 L 60 60 L 60 57 L 60 54 L 60 51 L 60 48 L 60 45 L 60 42 L 60 39 L 60 36 L 60 33 L 60 30 L 60 27 L 57 27 L 57 24 L 57 21 L 57 18 L 57 15 L 54 15 L 54 12 L 51 12 L 51 9 L 48 9 z M 36 18 L 36 21 L 39 21 L 39 18 L 36 18 z M 36 21 L 33 21 L 33 24 L 36 24 L 36 21 z M 33 24 L 30 24 L 30 27 L 33 27 L 33 24 z M 33 27 L 33 30 L 30 30 L 30 33 L 27 33 L 27 30 L 24 30 L 24 33 L 21 33 L 21 36 L 18 36 L 15 36 L 15 39 L 15 42 L 18 42 L 18 45 L 21 45 L 21 42 L 24 42 L 24 45 L 27 45 L 27 42 L 30 42 L 30 45 L 33 45 L 33 42 L 36 42 L 36 39 L 36 36 L 36 33 L 36 30 L 36 27 L 33 27 z M 33 45 L 33 48 L 36 48 L 36 45 L 33 45 z M 30 45 L 27 45 L 27 48 L 30 48 L 30 45 z M 24 45 L 21 45 L 21 48 L 24 48 L 24 45 z M 18 45 L 15 45 L 15 48 L 18 48 L 18 45 z M 27 30 L 30 30 L 30 27 L 27 27 L 27 30 z M 3 36 L 3 39 L 3 42 L 3 45 L 3 48 L 3 51 L 3 54 L 3 57 L 6 57 L 6 54 L 6 51 L 6 48 L 6 45 L 9 45 L 9 42 L 12 42 L 12 39 L 9 39 L 9 36 L 6 36 L 3 36 z M 9 45 L 9 48 L 12 48 L 12 45 L 9 45 z M 42 39 L 42 42 L 42 45 L 45 45 L 45 42 L 45 39 L 42 39 z "
     id="rect786" />
  <path
     style="fill:#808000"
     d="M 42 3 L 42 6 L 45 6 L 45 3 L 42 3 z M 42 6 L 39 6 L 39 9 L 42 9 L 42 6 z M 39 9 L 36 9 L 36 12 L 39 12 L 39 9 z M 36 12 L 33 12 L 33 15 L 36 15 L 36 12 z M 33 15 L 30 15 L 30 18 L 33 18 L 33 15 z M 30 18 L 27 18 L 27 21 L 30 21 L 30 18 z M 27 21 L 24 21 L 24 24 L 27 24 L 27 21 z M 24 24 L 21 24 L 21 27 L 24 27 L 24 24 z M 21 27 L 18 27 L 18 30 L 21 30 L 21 27 z M 18 30 L 15 30 L 12 30 L 9 30 L 6 30 L 6 33 L 9 33 L 12 33 L 15 33 L 15 36 L 18 36 L 18 33 L 18 30 z M 15 36 L 12 36 L 12 39 L 12 42 L 12 45 L 12 48 L 12 51 L 12 54 L 12 57 L 9 57 L 6 57 L 3 57 L 3 60 L 6 60 L 9 60 L 12 60 L 15 60 L 18 60 L 18 57 L 15 57 L 15 54 L 15 51 L 15 48 L 15 45 L 15 42 L 15 39 L 15 36 z M 18 60 L 18 63 L 21 63 L 21 60 L 18 60 z M 21 63 L 21 66 L 24 66 L 24 63 L 21 63 z M 24 66 L 24 69 L 27 69 L 27 72 L 30 72 L 30 75 L 33 75 L 33 78 L 36 78 L 36 81 L 39 81 L 39 84 L 42 84 L 42 81 L 42 78 L 39 78 L 39 75 L 39 72 L 36 72 L 36 69 L 33 69 L 30 69 L 30 66 L 27 66 L 24 66 z M 42 84 L 42 87 L 45 87 L 45 84 L 42 84 z M 3 57 L 3 54 L 3 51 L 3 48 L 3 45 L 3 42 L 3 39 L 3 36 L 0 36 L 0 39 L 0 42 L 0 45 L 0 48 L 0 51 L 0 54 L 0 57 L 3 57 z M 3 36 L 6 36 L 6 33 L 3 33 L 3 36 z "
     id="rect794" />
  <path
     style="fill:#c0c0c0"
     d="M 42 6 L 42 9 L 45 9 L 45 6 L 42 6 z M 45 9 L 45 12 L 48 12 L 48 9 L 45 9 z M 48 9 L 51 9 L 51 6 L 48 6 L 48 9 z M 51 9 L 51 12 L 54 12 L 54 9 L 51 9 z M 42 9 L 39 9 L 39 12 L 36 12 L 36 15 L 39 15 L 42 15 L 42 12 L 42 9 z M 36 15 L 33 15 L 33 18 L 36 18 L 36 15 z M 33 18 L 30 18 L 30 21 L 33 21 L 33 18 z M 30 21 L 27 21 L 27 24 L 30 24 L 30 21 z M 27 24 L 24 24 L 24 27 L 27 27 L 27 24 z M 24 27 L 21 27 L 21 30 L 24 30 L 24 27 z M 42 18 L 42 21 L 42 24 L 42 27 L 42 30 L 42 33 L 42 36 L 45 36 L 45 33 L 45 30 L 45 27 L 45 24 L 45 21 L 45 18 L 42 18 z M 36 21 L 36 24 L 36 27 L 39 27 L 39 24 L 39 21 L 36 21 z M 6 33 L 6 36 L 9 36 L 12 36 L 15 36 L 15 33 L 12 33 L 9 33 L 6 33 z M 42 45 L 42 48 L 42 51 L 45 51 L 45 48 L 45 45 L 42 45 z M 6 48 L 6 51 L 9 51 L 9 48 L 6 48 z M 9 51 L 9 54 L 12 54 L 12 51 L 9 51 z M 9 54 L 6 54 L 6 57 L 9 57 L 9 54 z M 18 48 L 18 51 L 21 51 L 21 48 L 18 48 z M 21 51 L 21 54 L 24 54 L 24 51 L 21 51 z M 24 51 L 27 51 L 27 48 L 24 48 L 24 51 z M 27 51 L 27 54 L 30 54 L 30 51 L 27 51 z M 30 51 L 33 51 L 33 48 L 30 48 L 30 51 z M 33 51 L 33 54 L 36 54 L 36 51 L 33 51 z M 33 54 L 30 54 L 30 57 L 33 57 L 33 54 z M 33 57 L 33 60 L 36 60 L 36 57 L 33 57 z M 33 60 L 30 60 L 30 63 L 33 63 L 33 60 z M 33 63 L 33 66 L 36 66 L 36 63 L 33 63 z M 33 66 L 30 66 L 30 69 L 33 69 L 33 66 z M 30 66 L 30 63 L 27 63 L 27 66 L 30 66 z M 27 63 L 27 60 L 24 60 L 24 63 L 27 63 z M 24 60 L 24 57 L 21 57 L 21 60 L 24 60 z M 21 57 L 21 54 L 18 54 L 18 57 L 21 57 z M 18 54 L 18 51 L 15 51 L 15 54 L 18 54 z M 24 57 L 27 57 L 27 54 L 24 54 L 24 57 z M 27 57 L 27 60 L 30 60 L 30 57 L 27 57 z M 48 54 L 48 57 L 48 60 L 51 60 L 51 57 L 51 54 L 48 54 z M 48 60 L 45 60 L 45 63 L 48 63 L 48 60 z M 45 63 L 42 63 L 42 66 L 42 69 L 42 72 L 42 75 L 45 75 L 45 72 L 45 69 L 45 66 L 45 63 z M 36 69 L 36 72 L 39 72 L 39 69 L 36 69 z M 45 81 L 45 84 L 48 84 L 48 81 L 45 81 z M 48 84 L 48 87 L 51 87 L 51 84 L 48 84 z M 51 84 L 54 84 L 54 81 L 51 81 L 51 84 z "
     id="rect798" />
  <path
     style="fill:#808080"
     d="M 51 6 L 51 9 L 54 9 L 54 6 L 51 6 z M 54 9 L 54 12 L 54 15 L 57 15 L 57 12 L 57 9 L 54 9 z M 57 15 L 57 18 L 57 21 L 57 24 L 57 27 L 60 27 L 60 24 L 60 21 L 60 18 L 60 15 L 57 15 z M 60 27 L 60 30 L 60 33 L 60 36 L 60 39 L 60 42 L 60 45 L 60 48 L 60 51 L 60 54 L 60 57 L 60 60 L 60 63 L 60 66 L 63 66 L 63 63 L 63 60 L 63 57 L 63 54 L 63 51 L 63 48 L 63 45 L 63 42 L 63 39 L 63 36 L 63 33 L 63 30 L 63 27 L 60 27 z M 60 66 L 57 66 L 57 69 L 57 72 L 57 75 L 57 78 L 60 78 L 60 75 L 60 72 L 60 69 L 60 66 z M 57 78 L 54 78 L 54 81 L 54 84 L 57 84 L 57 81 L 57 78 z M 54 84 L 51 84 L 51 87 L 54 87 L 54 84 z M 63 12 L 63 15 L 66 15 L 66 12 L 63 12 z M 39 15 L 39 18 L 42 18 L 45 18 L 45 15 L 42 15 L 39 15 z M 39 27 L 39 30 L 39 33 L 39 36 L 42 36 L 42 33 L 42 30 L 42 27 L 39 27 z M 42 36 L 42 39 L 45 39 L 45 42 L 45 45 L 45 48 L 45 51 L 42 51 L 42 48 L 42 45 L 42 42 L 42 39 L 39 39 L 39 42 L 39 45 L 39 48 L 39 51 L 39 54 L 42 54 L 45 54 L 48 54 L 48 51 L 48 48 L 48 45 L 48 42 L 48 39 L 48 36 L 45 36 L 42 36 z M 72 27 L 72 30 L 75 30 L 75 27 L 72 27 z M 72 30 L 69 30 L 69 33 L 72 33 L 72 30 z M 69 45 L 69 48 L 72 48 L 75 48 L 78 48 L 78 45 L 75 45 L 72 45 L 69 45 z M 39 57 L 39 60 L 39 63 L 39 66 L 42 66 L 42 63 L 45 63 L 45 60 L 48 60 L 48 57 L 45 57 L 42 57 L 39 57 z M 39 66 L 36 66 L 36 69 L 39 69 L 39 66 z M 69 60 L 69 63 L 72 63 L 72 60 L 69 60 z M 72 63 L 72 66 L 75 66 L 75 63 L 72 63 z M 39 75 L 39 78 L 42 78 L 45 78 L 45 75 L 42 75 L 39 75 z M 63 78 L 63 81 L 66 81 L 66 78 L 63 78 z "
     id="rect800" />
  <path
     style="fill:#000000"
     d="M 45 3 L 45 6 L 45 9 L 48 9 L 48 6 L 51 6 L 51 3 L 48 3 L 45 3 z M 45 9 L 42 9 L 42 12 L 42 15 L 45 15 L 45 12 L 45 9 z M 39 18 L 39 21 L 39 24 L 39 27 L 42 27 L 42 24 L 42 21 L 42 18 L 39 18 z M 39 27 L 36 27 L 36 30 L 36 33 L 36 36 L 36 39 L 36 42 L 36 45 L 36 48 L 36 51 L 36 54 L 36 57 L 36 60 L 36 63 L 36 66 L 39 66 L 39 63 L 39 60 L 39 57 L 42 57 L 45 57 L 48 57 L 48 54 L 45 54 L 42 54 L 39 54 L 39 51 L 39 48 L 39 45 L 39 42 L 39 39 L 42 39 L 42 36 L 39 36 L 39 33 L 39 30 L 39 27 z M 48 54 L 51 54 L 51 51 L 51 48 L 51 45 L 51 42 L 51 39 L 48 39 L 48 42 L 48 45 L 48 48 L 48 51 L 48 54 z M 39 66 L 39 69 L 39 72 L 39 75 L 42 75 L 42 72 L 42 69 L 42 66 L 39 66 z M 6 60 L 6 63 L 9 63 L 12 63 L 15 63 L 18 63 L 18 60 L 15 60 L 12 60 L 9 60 L 6 60 z M 18 63 L 18 66 L 21 66 L 21 63 L 18 63 z M 21 66 L 21 69 L 24 69 L 24 66 L 21 66 z M 24 69 L 24 72 L 27 72 L 27 69 L 24 69 z M 27 72 L 27 75 L 30 75 L 30 72 L 27 72 z M 30 75 L 30 78 L 33 78 L 33 75 L 30 75 z M 33 78 L 33 81 L 36 81 L 36 78 L 33 78 z M 36 81 L 36 84 L 39 84 L 39 81 L 36 81 z M 39 84 L 39 87 L 42 87 L 42 84 L 39 84 z M 42 84 L 45 84 L 45 81 L 45 78 L 42 78 L 42 81 L 42 84 z M 45 84 L 45 87 L 42 87 L 42 90 L 45 90 L 48 90 L 51 90 L 51 87 L 48 87 L 48 84 L 45 84 z "
     id="rect806" />
</svg>
