<?xml version="1.0" encoding="UTF-8" standalone="no"?>
<svg
   xmlns:dc="http://purl.org/dc/elements/1.1/"
   xmlns:cc="http://creativecommons.org/ns#"
   xmlns:rdf="http://www.w3.org/1999/02/22-rdf-syntax-ns#"
   xmlns:svg="http://www.w3.org/2000/svg"
   xmlns="http://www.w3.org/2000/svg"
   xmlns:sodipodi="http://sodipodi.sourceforge.net/DTD/sodipodi-0.dtd"
   xmlns:inkscape="http://www.inkscape.org/namespaces/inkscape"
   id="svg3388"
   width="144px"
   version="1.1"
   height="144px"
   sodipodi:docname="chicago95_tmp_file.svg"
   inkscape:version="0.92.4 (5da689c313, 2019-01-14)">
  <sodipodi:namedview
     pagecolor="#ffffff"
     bordercolor="#666666"
     borderopacity="1"
     objecttolerance="10"
     gridtolerance="10"
     guidetolerance="10"
     inkscape:pageopacity="0"
     inkscape:pageshadow="2"
     inkscape:window-width="640"
     inkscape:window-height="480"
     id="namedview1697"
     showgrid="false"
     inkscape:zoom="1.6388889"
     inkscape:cx="72"
     inkscape:cy="72"
     inkscape:window-x="0"
     inkscape:window-y="0"
     inkscape:window-maximized="0"
     inkscape:current-layer="svg3388" />
  <metadata
     id="metadata3392">
    <rdf:RDF>
      <cc:Work
         rdf:about="">
        <dc:format>image/svg+xml</dc:format>
        <dc:type
           rdf:resource="http://purl.org/dc/dcmitype/StillImage" />
      </cc:Work>
    </rdf:RDF>
  </metadata>
  <defs
     id="defs2" />
  <path
     style="fill:#00ff00"
     d="M 18 36 L 18 39 L 18 42 L 18 45 L 18 48 L 18 51 L 18 54 L 18 57 L 18 60 L 18 63 L 21 63 L 24 63 L 27 63 L 30 63 L 33 63 L 36 63 L 39 63 L 42 63 L 45 63 L 48 63 L 51 63 L 54 63 L 57 63 L 60 63 L 63 63 L 66 63 L 69 63 L 72 63 L 75 63 L 78 63 L 81 63 L 84 63 L 87 63 L 90 63 L 93 63 L 96 63 L 99 63 L 102 63 L 105 63 L 108 63 L 111 63 L 114 63 L 117 63 L 120 63 L 123 63 L 126 63 L 126 60 L 126 57 L 126 54 L 126 51 L 126 48 L 126 45 L 126 42 L 126 39 L 126 36 L 123 36 L 120 36 L 117 36 L 114 36 L 111 36 L 108 36 L 105 36 L 102 36 L 99 36 L 96 36 L 93 36 L 90 36 L 87 36 L 84 36 L 81 36 L 78 36 L 75 36 L 72 36 L 69 36 L 66 36 L 63 36 L 60 36 L 57 36 L 54 36 L 51 36 L 48 36 L 45 36 L 42 36 L 39 36 L 36 36 L 33 36 L 30 36 L 27 36 L 24 36 L 21 36 L 18 36 z M 18 72 L 18 75 L 18 78 L 18 81 L 18 84 L 18 87 L 18 90 L 18 93 L 18 96 L 18 99 L 21 99 L 24 99 L 27 99 L 30 99 L 33 99 L 36 99 L 39 99 L 42 99 L 45 99 L 48 99 L 51 99 L 54 99 L 57 99 L 60 99 L 63 99 L 66 99 L 69 99 L 72 99 L 75 99 L 78 99 L 81 99 L 84 99 L 87 99 L 90 99 L 93 99 L 96 99 L 99 99 L 102 99 L 105 99 L 108 99 L 111 99 L 114 99 L 117 99 L 120 99 L 123 99 L 126 99 L 126 96 L 126 93 L 126 90 L 126 87 L 126 84 L 126 81 L 126 78 L 126 75 L 126 72 L 123 72 L 120 72 L 117 72 L 114 72 L 111 72 L 108 72 L 105 72 L 102 72 L 99 72 L 96 72 L 93 72 L 90 72 L 87 72 L 84 72 L 81 72 L 78 72 L 75 72 L 72 72 L 69 72 L 66 72 L 63 72 L 60 72 L 57 72 L 54 72 L 51 72 L 48 72 L 45 72 L 42 72 L 39 72 L 36 72 L 33 72 L 30 72 L 27 72 L 24 72 L 21 72 L 18 72 z M 18 108 L 18 111 L 18 114 L 18 117 L 18 120 L 18 123 L 18 126 L 18 129 L 18 132 L 18 135 L 21 135 L 24 135 L 27 135 L 30 135 L 33 135 L 36 135 L 39 135 L 42 135 L 45 135 L 48 135 L 51 135 L 54 135 L 57 135 L 60 135 L 63 135 L 66 135 L 69 135 L 72 135 L 75 135 L 78 135 L 81 135 L 84 135 L 87 135 L 90 135 L 93 135 L 96 135 L 99 135 L 102 135 L 105 135 L 108 135 L 111 135 L 114 135 L 117 135 L 120 135 L 123 135 L 126 135 L 126 132 L 126 129 L 126 126 L 126 123 L 126 120 L 126 117 L 126 114 L 126 111 L 126 108 L 123 108 L 120 108 L 117 108 L 114 108 L 111 108 L 108 108 L 105 108 L 102 108 L 99 108 L 96 108 L 93 108 L 90 108 L 87 108 L 84 108 L 81 108 L 78 108 L 75 108 L 72 108 L 69 108 L 66 108 L 63 108 L 60 108 L 57 108 L 54 108 L 51 108 L 48 108 L 45 108 L 42 108 L 39 108 L 36 108 L 33 108 L 30 108 L 27 108 L 24 108 L 21 108 L 18 108 z "
     id="rect3128" />
  <path
     style="fill:#808080"
     d="M 9 0 L 9 3 L 9 6 L 9 9 L 9 12 L 9 15 L 9 18 L 9 21 L 9 24 L 9 27 L 9 30 L 9 33 L 9 36 L 9 39 L 9 42 L 9 45 L 9 48 L 9 51 L 9 54 L 9 57 L 9 60 L 9 63 L 9 66 L 9 69 L 9 72 L 9 75 L 9 78 L 9 81 L 9 84 L 9 87 L 9 90 L 9 93 L 9 96 L 9 99 L 9 102 L 9 105 L 9 108 L 9 111 L 9 114 L 9 117 L 9 120 L 9 123 L 9 126 L 9 129 L 9 132 L 9 135 L 9 138 L 9 141 L 9 144 L 12 144 L 15 144 L 18 144 L 21 144 L 24 144 L 27 144 L 30 144 L 33 144 L 36 144 L 39 144 L 42 144 L 45 144 L 48 144 L 51 144 L 54 144 L 57 144 L 60 144 L 63 144 L 66 144 L 69 144 L 72 144 L 75 144 L 78 144 L 81 144 L 84 144 L 87 144 L 90 144 L 93 144 L 96 144 L 99 144 L 102 144 L 105 144 L 108 144 L 111 144 L 114 144 L 117 144 L 120 144 L 123 144 L 126 144 L 129 144 L 132 144 L 135 144 L 135 141 L 135 138 L 135 135 L 135 132 L 135 129 L 135 126 L 135 123 L 135 120 L 135 117 L 135 114 L 135 111 L 135 108 L 135 105 L 135 102 L 135 99 L 135 96 L 135 93 L 135 90 L 135 87 L 135 84 L 135 81 L 135 78 L 135 75 L 135 72 L 135 69 L 135 66 L 135 63 L 135 60 L 135 57 L 135 54 L 135 51 L 135 48 L 135 45 L 135 42 L 135 39 L 135 36 L 135 33 L 135 30 L 135 27 L 135 24 L 135 21 L 135 18 L 135 15 L 135 12 L 135 9 L 135 6 L 135 3 L 135 0 L 132 0 L 129 0 L 126 0 L 126 3 L 126 6 L 126 9 L 126 12 L 126 15 L 126 18 L 126 21 L 126 24 L 126 27 L 123 27 L 120 27 L 117 27 L 114 27 L 111 27 L 108 27 L 105 27 L 102 27 L 99 27 L 96 27 L 93 27 L 90 27 L 87 27 L 84 27 L 81 27 L 78 27 L 75 27 L 72 27 L 69 27 L 66 27 L 63 27 L 60 27 L 57 27 L 54 27 L 51 27 L 48 27 L 45 27 L 42 27 L 39 27 L 36 27 L 33 27 L 30 27 L 27 27 L 24 27 L 21 27 L 18 27 L 18 24 L 18 21 L 18 18 L 18 15 L 18 12 L 18 9 L 18 6 L 18 3 L 18 0 L 15 0 L 12 0 L 9 0 z M 18 36 L 21 36 L 24 36 L 27 36 L 30 36 L 33 36 L 36 36 L 39 36 L 42 36 L 45 36 L 48 36 L 51 36 L 54 36 L 57 36 L 60 36 L 63 36 L 66 36 L 69 36 L 72 36 L 75 36 L 78 36 L 81 36 L 84 36 L 87 36 L 90 36 L 93 36 L 96 36 L 99 36 L 102 36 L 105 36 L 108 36 L 111 36 L 114 36 L 117 36 L 120 36 L 123 36 L 126 36 L 126 39 L 126 42 L 126 45 L 126 48 L 126 51 L 126 54 L 126 57 L 126 60 L 126 63 L 123 63 L 120 63 L 117 63 L 114 63 L 111 63 L 108 63 L 105 63 L 102 63 L 99 63 L 96 63 L 93 63 L 90 63 L 87 63 L 84 63 L 81 63 L 78 63 L 75 63 L 72 63 L 69 63 L 66 63 L 63 63 L 60 63 L 57 63 L 54 63 L 51 63 L 48 63 L 45 63 L 42 63 L 39 63 L 36 63 L 33 63 L 30 63 L 27 63 L 24 63 L 21 63 L 18 63 L 18 60 L 18 57 L 18 54 L 18 51 L 18 48 L 18 45 L 18 42 L 18 39 L 18 36 z M 18 72 L 21 72 L 24 72 L 27 72 L 30 72 L 33 72 L 36 72 L 39 72 L 42 72 L 45 72 L 48 72 L 51 72 L 54 72 L 57 72 L 60 72 L 63 72 L 66 72 L 69 72 L 72 72 L 75 72 L 78 72 L 81 72 L 84 72 L 87 72 L 90 72 L 93 72 L 96 72 L 99 72 L 102 72 L 105 72 L 108 72 L 111 72 L 114 72 L 117 72 L 120 72 L 123 72 L 126 72 L 126 75 L 126 78 L 126 81 L 126 84 L 126 87 L 126 90 L 126 93 L 126 96 L 126 99 L 123 99 L 120 99 L 117 99 L 114 99 L 111 99 L 108 99 L 105 99 L 102 99 L 99 99 L 96 99 L 93 99 L 90 99 L 87 99 L 84 99 L 81 99 L 78 99 L 75 99 L 72 99 L 69 99 L 66 99 L 63 99 L 60 99 L 57 99 L 54 99 L 51 99 L 48 99 L 45 99 L 42 99 L 39 99 L 36 99 L 33 99 L 30 99 L 27 99 L 24 99 L 21 99 L 18 99 L 18 96 L 18 93 L 18 90 L 18 87 L 18 84 L 18 81 L 18 78 L 18 75 L 18 72 z M 18 108 L 21 108 L 24 108 L 27 108 L 30 108 L 33 108 L 36 108 L 39 108 L 42 108 L 45 108 L 48 108 L 51 108 L 54 108 L 57 108 L 60 108 L 63 108 L 66 108 L 69 108 L 72 108 L 75 108 L 78 108 L 81 108 L 84 108 L 87 108 L 90 108 L 93 108 L 96 108 L 99 108 L 102 108 L 105 108 L 108 108 L 111 108 L 114 108 L 117 108 L 120 108 L 123 108 L 126 108 L 126 111 L 126 114 L 126 117 L 126 120 L 126 123 L 126 126 L 126 129 L 126 132 L 126 135 L 123 135 L 120 135 L 117 135 L 114 135 L 111 135 L 108 135 L 105 135 L 102 135 L 99 135 L 96 135 L 93 135 L 90 135 L 87 135 L 84 135 L 81 135 L 78 135 L 75 135 L 72 135 L 69 135 L 66 135 L 63 135 L 60 135 L 57 135 L 54 135 L 51 135 L 48 135 L 45 135 L 42 135 L 39 135 L 36 135 L 33 135 L 30 135 L 27 135 L 24 135 L 21 135 L 18 135 L 18 132 L 18 129 L 18 126 L 18 123 L 18 120 L 18 117 L 18 114 L 18 111 L 18 108 z "
     id="rect3386" />
</svg>
