<?xml version="1.0" encoding="UTF-8" standalone="no"?>
<svg
   xmlns:dc="http://purl.org/dc/elements/1.1/"
   xmlns:cc="http://creativecommons.org/ns#"
   xmlns:rdf="http://www.w3.org/1999/02/22-rdf-syntax-ns#"
   xmlns:svg="http://www.w3.org/2000/svg"
   xmlns="http://www.w3.org/2000/svg"
   xmlns:sodipodi="http://sodipodi.sourceforge.net/DTD/sodipodi-0.dtd"
   xmlns:inkscape="http://www.inkscape.org/namespaces/inkscape"
   id="svg3780"
   width="144px"
   version="1.1"
   height="144px"
   sodipodi:docname="chicago95_tmp_file.svg"
   inkscape:version="0.92.4 (5da689c313, 2019-01-14)">
  <sodipodi:namedview
     pagecolor="#ffffff"
     bordercolor="#666666"
     borderopacity="1"
     objecttolerance="10"
     gridtolerance="10"
     guidetolerance="10"
     inkscape:pageopacity="0"
     inkscape:pageshadow="2"
     inkscape:window-width="640"
     inkscape:window-height="480"
     id="namedview1893"
     showgrid="false"
     inkscape:zoom="1.6388889"
     inkscape:cx="72"
     inkscape:cy="72"
     inkscape:window-x="0"
     inkscape:window-y="0"
     inkscape:window-maximized="0"
     inkscape:current-layer="svg3780" />
  <metadata
     id="metadata3784">
    <rdf:RDF>
      <cc:Work
         rdf:about="">
        <dc:format>image/svg+xml</dc:format>
        <dc:type
           rdf:resource="http://purl.org/dc/dcmitype/StillImage" />
      </cc:Work>
    </rdf:RDF>
  </metadata>
  <defs
     id="defs2" />
  <path
     style="fill:#0000ff"
     d="M 132 39 L 132 42 L 129 42 L 129 45 L 126 45 L 126 48 L 123 48 L 123 51 L 120 51 L 120 54 L 117 54 L 117 57 L 114 57 L 114 60 L 111 60 L 111 63 L 108 63 L 108 66 L 105 66 L 105 69 L 102 69 L 102 72 L 99 72 L 99 75 L 96 75 L 96 78 L 93 78 L 93 81 L 90 81 L 90 84 L 87 84 L 87 87 L 84 87 L 84 90 L 81 90 L 81 93 L 78 93 L 78 96 L 75 96 L 75 99 L 78 99 L 81 99 L 84 99 L 84 96 L 87 96 L 87 93 L 90 93 L 90 90 L 93 90 L 93 87 L 96 87 L 96 84 L 99 84 L 99 81 L 102 81 L 102 78 L 105 78 L 105 75 L 108 75 L 108 72 L 111 72 L 111 69 L 114 69 L 114 66 L 117 66 L 117 63 L 120 63 L 120 60 L 123 60 L 123 57 L 126 57 L 126 54 L 129 54 L 129 51 L 132 51 L 132 48 L 135 48 L 135 45 L 138 45 L 138 42 L 138 39 L 135 39 L 132 39 z "
     id="rect2586" />
  <path
     style="fill:#000080"
     d="M 129 36 L 129 39 L 132 39 L 135 39 L 138 39 L 138 42 L 138 45 L 135 45 L 135 48 L 132 48 L 132 51 L 129 51 L 129 54 L 126 54 L 126 57 L 123 57 L 123 60 L 120 60 L 120 63 L 117 63 L 117 66 L 114 66 L 114 69 L 111 69 L 111 72 L 108 72 L 108 75 L 105 75 L 105 78 L 102 78 L 102 81 L 99 81 L 99 84 L 96 84 L 96 87 L 93 87 L 93 90 L 90 90 L 90 93 L 87 93 L 87 96 L 84 96 L 84 99 L 81 99 L 81 102 L 84 102 L 87 102 L 87 99 L 90 99 L 90 96 L 93 96 L 93 93 L 96 93 L 96 90 L 99 90 L 99 87 L 102 87 L 102 84 L 105 84 L 105 81 L 108 81 L 108 78 L 111 78 L 111 75 L 114 75 L 114 72 L 117 72 L 117 69 L 120 69 L 120 66 L 123 66 L 123 63 L 126 63 L 126 60 L 129 60 L 129 57 L 132 57 L 132 54 L 135 54 L 135 51 L 138 51 L 138 48 L 141 48 L 141 45 L 141 42 L 141 39 L 141 36 L 138 36 L 135 36 L 132 36 L 129 36 z M 129 39 L 126 39 L 126 42 L 129 42 L 129 39 z M 126 42 L 123 42 L 123 45 L 126 45 L 126 42 z M 123 45 L 120 45 L 120 48 L 123 48 L 123 45 z M 120 48 L 117 48 L 117 51 L 120 51 L 120 48 z M 117 51 L 114 51 L 114 54 L 117 54 L 117 51 z M 114 54 L 111 54 L 111 57 L 114 57 L 114 54 z M 111 57 L 108 57 L 108 60 L 111 60 L 111 57 z M 108 60 L 105 60 L 105 63 L 108 63 L 108 60 z M 105 63 L 102 63 L 102 66 L 105 66 L 105 63 z M 102 66 L 99 66 L 99 69 L 102 69 L 102 66 z M 99 69 L 96 69 L 96 72 L 99 72 L 99 69 z M 96 72 L 93 72 L 93 75 L 96 75 L 96 72 z M 93 75 L 90 75 L 90 78 L 93 78 L 93 75 z M 90 78 L 87 78 L 87 81 L 90 81 L 90 78 z M 87 81 L 84 81 L 84 84 L 87 84 L 87 81 z M 84 84 L 81 84 L 81 87 L 84 87 L 84 84 z M 81 87 L 78 87 L 78 90 L 81 90 L 81 87 z M 78 90 L 75 90 L 75 93 L 78 93 L 78 90 z M 75 93 L 72 93 L 72 96 L 75 96 L 75 93 z "
     id="rect2666" />
  <path
     style="fill:#00ff00"
     d="M 33 72 L 33 75 L 30 75 L 27 75 L 27 78 L 24 78 L 24 81 L 24 84 L 21 84 L 21 87 L 21 90 L 21 93 L 21 96 L 21 99 L 21 102 L 24 102 L 24 105 L 27 105 L 27 108 L 30 108 L 33 108 L 33 105 L 36 105 L 39 105 L 39 102 L 42 102 L 42 99 L 45 99 L 45 96 L 45 93 L 48 93 L 48 90 L 48 87 L 48 84 L 48 81 L 48 78 L 45 78 L 45 75 L 42 75 L 39 75 L 39 72 L 36 72 L 33 72 z "
     id="rect2786" />
  <path
     style="fill:#008000"
     d="M 24 69 L 24 72 L 27 72 L 30 72 L 33 72 L 36 72 L 39 72 L 39 69 L 36 69 L 33 69 L 30 69 L 27 69 L 24 69 z M 39 72 L 39 75 L 42 75 L 45 75 L 45 72 L 42 72 L 39 72 z M 45 75 L 45 78 L 48 78 L 48 75 L 45 75 z M 48 78 L 48 81 L 48 84 L 48 87 L 48 90 L 48 93 L 45 93 L 45 96 L 45 99 L 42 99 L 42 102 L 39 102 L 39 105 L 36 105 L 33 105 L 33 108 L 30 108 L 27 108 L 24 108 L 21 108 L 18 108 L 18 111 L 21 111 L 24 111 L 27 111 L 30 111 L 33 111 L 36 111 L 39 111 L 39 108 L 42 108 L 45 108 L 45 105 L 48 105 L 48 102 L 48 99 L 51 99 L 51 96 L 51 93 L 51 90 L 51 87 L 51 84 L 51 81 L 51 78 L 48 78 z M 18 108 L 18 105 L 15 105 L 15 108 L 18 108 z M 15 105 L 15 102 L 12 102 L 12 105 L 15 105 z M 24 72 L 21 72 L 18 72 L 18 75 L 21 75 L 24 75 L 24 72 z M 18 75 L 15 75 L 15 78 L 18 78 L 18 75 z M 15 78 L 12 78 L 12 81 L 12 84 L 15 84 L 15 81 L 15 78 z M 12 84 L 9 84 L 9 87 L 9 90 L 9 93 L 9 96 L 9 99 L 12 99 L 12 96 L 12 93 L 12 90 L 12 87 L 12 84 z "
     id="rect2868" />
  <path
     style="fill:#ffff00"
     d="M 129 39 L 129 42 L 132 42 L 132 39 L 129 39 z M 120 48 L 120 51 L 123 51 L 123 48 L 120 48 z M 120 51 L 117 51 L 117 54 L 120 54 L 120 51 z M 105 63 L 105 66 L 108 66 L 108 63 L 105 63 z M 105 66 L 102 66 L 102 69 L 105 69 L 105 66 z M 27 72 L 27 75 L 30 75 L 33 75 L 33 72 L 30 72 L 27 72 z M 27 75 L 24 75 L 21 75 L 21 78 L 18 78 L 18 81 L 15 81 L 15 84 L 15 87 L 15 90 L 15 93 L 15 96 L 15 99 L 18 99 L 18 102 L 18 105 L 21 105 L 21 108 L 24 108 L 27 108 L 27 105 L 24 105 L 24 102 L 21 102 L 21 99 L 21 96 L 21 93 L 21 90 L 21 87 L 21 84 L 24 84 L 24 81 L 24 78 L 27 78 L 27 75 z M 93 75 L 93 78 L 96 78 L 96 75 L 93 75 z M 93 78 L 90 78 L 90 81 L 93 81 L 93 78 z M 78 90 L 78 93 L 81 93 L 81 90 L 78 90 z M 78 93 L 75 93 L 75 96 L 78 96 L 78 93 z M 66 108 L 66 111 L 69 111 L 69 108 L 66 108 z M 66 111 L 63 111 L 63 114 L 66 114 L 66 111 z "
     id="rect2964" />
  <path
     style="fill:#ff00ff"
     d="M 42 33 L 42 36 L 45 36 L 45 33 L 42 33 z M 66 114 L 66 117 L 69 117 L 69 114 L 66 114 z M 66 117 L 63 117 L 63 120 L 66 120 L 66 117 z "
     id="rect3120" />
  <path
     style="fill:#ff0000"
     d="M 66 30 L 66 33 L 63 33 L 63 36 L 60 36 L 57 36 L 54 36 L 51 36 L 48 36 L 45 36 L 42 36 L 42 39 L 42 42 L 45 42 L 45 45 L 45 48 L 48 48 L 48 51 L 48 54 L 51 54 L 51 57 L 51 60 L 54 60 L 54 63 L 57 63 L 60 63 L 60 60 L 60 57 L 60 54 L 63 54 L 63 51 L 66 51 L 66 48 L 69 48 L 69 45 L 69 42 L 69 39 L 69 36 L 69 33 L 69 30 L 66 30 z M 69 114 L 69 117 L 72 117 L 72 114 L 69 114 z M 33 117 L 33 120 L 30 120 L 27 120 L 27 123 L 27 126 L 30 126 L 30 129 L 33 129 L 36 129 L 39 129 L 39 126 L 42 126 L 42 123 L 45 123 L 48 123 L 48 120 L 51 120 L 51 117 L 48 117 L 45 117 L 42 117 L 39 117 L 36 117 L 33 117 z M 57 117 L 57 120 L 54 120 L 54 123 L 57 123 L 60 123 L 63 123 L 63 120 L 63 117 L 60 117 L 57 117 z "
     id="rect3336" />
  <path
     style="fill:#800000"
     d="M 45 15 L 45 18 L 42 18 L 42 21 L 39 21 L 39 24 L 36 24 L 36 27 L 36 30 L 36 33 L 36 36 L 36 39 L 36 42 L 36 45 L 36 48 L 36 51 L 39 51 L 39 48 L 39 45 L 39 42 L 39 39 L 39 36 L 39 33 L 39 30 L 39 27 L 42 27 L 42 30 L 45 30 L 45 33 L 48 33 L 51 33 L 54 33 L 57 33 L 60 33 L 63 33 L 63 30 L 66 30 L 66 27 L 69 27 L 69 30 L 69 33 L 69 36 L 69 39 L 69 42 L 69 45 L 72 45 L 72 42 L 72 39 L 72 36 L 72 33 L 72 30 L 72 27 L 72 24 L 69 24 L 69 21 L 66 21 L 66 18 L 63 18 L 63 15 L 60 15 L 57 15 L 54 15 L 51 15 L 48 15 L 45 15 z M 57 114 L 57 117 L 60 117 L 60 114 L 57 114 z M 57 117 L 54 117 L 51 117 L 51 120 L 54 120 L 57 120 L 57 117 z M 72 114 L 72 117 L 69 117 L 66 117 L 66 120 L 63 120 L 63 123 L 66 123 L 69 123 L 69 120 L 72 120 L 75 120 L 75 117 L 78 117 L 78 114 L 75 114 L 72 114 z M 24 123 L 24 126 L 27 126 L 27 123 L 24 123 z M 27 126 L 27 129 L 30 129 L 30 126 L 27 126 z M 30 129 L 30 132 L 33 132 L 36 132 L 39 132 L 39 129 L 36 129 L 33 129 L 30 129 z M 39 129 L 42 129 L 42 126 L 39 126 L 39 129 z M 42 126 L 45 126 L 48 126 L 51 126 L 54 126 L 54 123 L 51 123 L 48 123 L 45 123 L 42 123 L 42 126 z "
     id="rect3414" />
  <path
     style="fill:#ffffff"
     d="M 3 3 L 3 6 L 3 9 L 3 12 L 3 15 L 3 18 L 3 21 L 3 24 L 3 27 L 3 30 L 3 33 L 3 36 L 3 39 L 3 42 L 3 45 L 3 48 L 3 51 L 3 54 L 3 57 L 3 60 L 3 63 L 3 66 L 3 69 L 3 72 L 3 75 L 3 78 L 3 81 L 3 84 L 3 87 L 3 90 L 3 93 L 3 96 L 3 99 L 3 102 L 3 105 L 3 108 L 3 111 L 3 114 L 3 117 L 3 120 L 3 123 L 3 126 L 3 129 L 3 132 L 3 135 L 3 138 L 6 138 L 9 138 L 12 138 L 15 138 L 18 138 L 21 138 L 24 138 L 27 138 L 30 138 L 33 138 L 36 138 L 39 138 L 42 138 L 45 138 L 48 138 L 51 138 L 54 138 L 57 138 L 60 138 L 63 138 L 66 138 L 69 138 L 72 138 L 75 138 L 78 138 L 81 138 L 84 138 L 87 138 L 90 138 L 93 138 L 96 138 L 99 138 L 102 138 L 105 138 L 108 138 L 111 138 L 111 135 L 111 132 L 111 129 L 111 126 L 111 123 L 111 120 L 111 117 L 111 114 L 111 111 L 111 108 L 111 105 L 111 102 L 111 99 L 111 96 L 111 93 L 111 90 L 111 87 L 111 84 L 111 81 L 108 81 L 108 84 L 105 84 L 105 87 L 102 87 L 102 90 L 99 90 L 99 93 L 96 93 L 96 96 L 93 96 L 93 99 L 90 99 L 90 102 L 87 102 L 87 105 L 87 108 L 84 108 L 84 111 L 84 114 L 81 114 L 81 117 L 78 117 L 78 120 L 75 120 L 75 123 L 72 123 L 69 123 L 69 126 L 66 126 L 63 126 L 60 126 L 57 126 L 54 126 L 51 126 L 48 126 L 45 126 L 42 126 L 42 129 L 39 129 L 39 132 L 36 132 L 33 132 L 30 132 L 30 129 L 27 129 L 27 126 L 24 126 L 24 123 L 27 123 L 27 120 L 30 120 L 33 120 L 33 117 L 36 117 L 39 117 L 42 117 L 45 117 L 48 117 L 51 117 L 54 117 L 57 117 L 57 114 L 60 114 L 60 111 L 63 111 L 63 108 L 63 105 L 63 102 L 66 102 L 66 99 L 69 99 L 69 96 L 72 96 L 72 93 L 75 93 L 75 90 L 72 90 L 69 90 L 66 90 L 63 90 L 60 90 L 60 87 L 60 84 L 60 81 L 57 81 L 54 81 L 54 84 L 54 87 L 54 90 L 54 93 L 54 96 L 54 99 L 54 102 L 54 105 L 51 105 L 51 108 L 48 108 L 48 111 L 45 111 L 45 114 L 42 114 L 39 114 L 36 114 L 33 114 L 30 114 L 27 114 L 24 114 L 21 114 L 18 114 L 18 111 L 18 108 L 15 108 L 15 105 L 12 105 L 12 102 L 9 102 L 9 99 L 9 96 L 9 93 L 9 90 L 9 87 L 9 84 L 9 81 L 12 81 L 12 78 L 12 75 L 15 75 L 15 72 L 18 72 L 21 72 L 21 69 L 24 69 L 27 69 L 30 69 L 33 69 L 36 69 L 36 66 L 36 63 L 36 60 L 36 57 L 36 54 L 36 51 L 36 48 L 36 45 L 36 42 L 36 39 L 36 36 L 36 33 L 36 30 L 36 27 L 36 24 L 36 21 L 39 21 L 39 18 L 42 18 L 42 15 L 45 15 L 48 15 L 51 15 L 54 15 L 57 15 L 60 15 L 63 15 L 66 15 L 66 18 L 69 18 L 69 21 L 72 21 L 72 24 L 72 27 L 72 30 L 72 33 L 72 36 L 72 39 L 72 42 L 75 42 L 78 42 L 81 42 L 84 42 L 87 42 L 90 42 L 93 42 L 96 42 L 99 42 L 102 42 L 102 45 L 102 48 L 102 51 L 102 54 L 102 57 L 102 60 L 102 63 L 105 63 L 105 60 L 108 60 L 108 57 L 111 57 L 111 54 L 111 51 L 111 48 L 111 45 L 111 42 L 111 39 L 111 36 L 111 33 L 108 33 L 105 33 L 102 33 L 99 33 L 96 33 L 93 33 L 90 33 L 87 33 L 87 30 L 87 27 L 87 24 L 87 21 L 87 18 L 87 15 L 87 12 L 87 9 L 87 6 L 87 3 L 84 3 L 81 3 L 78 3 L 75 3 L 72 3 L 69 3 L 66 3 L 63 3 L 60 3 L 57 3 L 54 3 L 51 3 L 48 3 L 45 3 L 42 3 L 39 3 L 36 3 L 33 3 L 30 3 L 27 3 L 24 3 L 21 3 L 18 3 L 15 3 L 12 3 L 9 3 L 6 3 L 3 3 z M 111 57 L 111 60 L 114 60 L 114 57 L 111 57 z M 114 57 L 117 57 L 117 54 L 114 54 L 114 57 z M 111 60 L 108 60 L 108 63 L 111 63 L 111 60 z M 69 99 L 69 102 L 72 102 L 75 102 L 75 99 L 72 99 L 69 99 z M 69 102 L 66 102 L 66 105 L 66 108 L 69 108 L 69 105 L 69 102 z M 90 12 L 90 15 L 90 18 L 90 21 L 90 24 L 90 27 L 90 30 L 93 30 L 96 30 L 99 30 L 102 30 L 105 30 L 108 30 L 108 27 L 105 27 L 105 24 L 102 24 L 102 21 L 99 21 L 99 18 L 96 18 L 96 15 L 93 15 L 93 12 L 90 12 z M 42 42 L 42 45 L 42 48 L 42 51 L 42 54 L 42 57 L 42 60 L 42 63 L 42 66 L 42 69 L 45 69 L 45 72 L 48 72 L 48 75 L 51 75 L 51 78 L 54 78 L 57 78 L 60 78 L 60 75 L 60 72 L 60 69 L 60 66 L 60 63 L 57 63 L 54 63 L 54 60 L 51 60 L 51 57 L 51 54 L 48 54 L 48 51 L 48 48 L 45 48 L 45 45 L 45 42 L 42 42 z M 126 42 L 126 45 L 129 45 L 129 42 L 126 42 z M 126 45 L 123 45 L 123 48 L 126 48 L 126 45 z M 72 45 L 72 48 L 69 48 L 69 51 L 66 51 L 66 54 L 69 54 L 72 54 L 75 54 L 78 54 L 81 54 L 84 54 L 87 54 L 90 54 L 90 51 L 93 51 L 93 48 L 96 48 L 96 45 L 93 45 L 90 45 L 87 45 L 84 45 L 81 45 L 78 45 L 75 45 L 72 45 z M 96 48 L 96 51 L 93 51 L 93 54 L 90 54 L 90 57 L 90 60 L 90 63 L 90 66 L 90 69 L 90 72 L 90 75 L 93 75 L 93 72 L 96 72 L 96 69 L 99 69 L 99 66 L 99 63 L 99 60 L 99 57 L 99 54 L 99 51 L 99 48 L 96 48 z M 99 69 L 99 72 L 102 72 L 102 69 L 99 69 z M 99 72 L 96 72 L 96 75 L 99 75 L 99 72 z M 63 57 L 63 60 L 63 63 L 63 66 L 63 69 L 63 72 L 63 75 L 63 78 L 63 81 L 63 84 L 63 87 L 66 87 L 69 87 L 72 87 L 75 87 L 78 87 L 81 87 L 81 84 L 84 84 L 84 81 L 87 81 L 87 78 L 87 75 L 87 72 L 87 69 L 87 66 L 87 63 L 87 60 L 87 57 L 84 57 L 81 57 L 78 57 L 75 57 L 72 57 L 69 57 L 66 57 L 63 57 z M 87 81 L 87 84 L 90 84 L 90 81 L 87 81 z M 87 84 L 84 84 L 84 87 L 87 87 L 87 84 z M 84 87 L 81 87 L 81 90 L 84 90 L 84 87 z "
     id="rect3618" />
  <path
     style="fill:#808080"
     d="M 0 0 L 0 3 L 0 6 L 0 9 L 0 12 L 0 15 L 0 18 L 0 21 L 0 24 L 0 27 L 0 30 L 0 33 L 0 36 L 0 39 L 0 42 L 0 45 L 0 48 L 0 51 L 0 54 L 0 57 L 0 60 L 0 63 L 0 66 L 0 69 L 0 72 L 0 75 L 0 78 L 0 81 L 0 84 L 0 87 L 0 90 L 0 93 L 0 96 L 0 99 L 0 102 L 0 105 L 0 108 L 0 111 L 0 114 L 0 117 L 0 120 L 0 123 L 0 126 L 0 129 L 0 132 L 0 135 L 0 138 L 0 141 L 3 141 L 3 138 L 3 135 L 3 132 L 3 129 L 3 126 L 3 123 L 3 120 L 3 117 L 3 114 L 3 111 L 3 108 L 3 105 L 3 102 L 3 99 L 3 96 L 3 93 L 3 90 L 3 87 L 3 84 L 3 81 L 3 78 L 3 75 L 3 72 L 3 69 L 3 66 L 3 63 L 3 60 L 3 57 L 3 54 L 3 51 L 3 48 L 3 45 L 3 42 L 3 39 L 3 36 L 3 33 L 3 30 L 3 27 L 3 24 L 3 21 L 3 18 L 3 15 L 3 12 L 3 9 L 3 6 L 3 3 L 6 3 L 9 3 L 12 3 L 15 3 L 18 3 L 21 3 L 24 3 L 27 3 L 30 3 L 33 3 L 36 3 L 39 3 L 42 3 L 45 3 L 48 3 L 51 3 L 54 3 L 57 3 L 60 3 L 63 3 L 66 3 L 69 3 L 72 3 L 75 3 L 78 3 L 81 3 L 84 3 L 87 3 L 87 6 L 87 9 L 87 12 L 87 15 L 87 18 L 87 21 L 87 24 L 87 27 L 87 30 L 90 30 L 90 27 L 90 24 L 90 21 L 90 18 L 90 15 L 90 12 L 90 9 L 93 9 L 93 6 L 90 6 L 90 3 L 90 0 L 87 0 L 84 0 L 81 0 L 78 0 L 75 0 L 72 0 L 69 0 L 66 0 L 63 0 L 60 0 L 57 0 L 54 0 L 51 0 L 48 0 L 45 0 L 42 0 L 39 0 L 36 0 L 33 0 L 30 0 L 27 0 L 24 0 L 21 0 L 18 0 L 15 0 L 12 0 L 9 0 L 6 0 L 3 0 L 0 0 z M 93 9 L 93 12 L 96 12 L 96 9 L 93 9 z M 96 12 L 96 15 L 99 15 L 99 12 L 96 12 z M 99 15 L 99 18 L 102 18 L 102 15 L 99 15 z M 102 18 L 102 21 L 105 21 L 105 18 L 102 18 z M 105 21 L 105 24 L 108 24 L 108 21 L 105 21 z M 108 24 L 108 27 L 111 27 L 111 24 L 108 24 z M 111 27 L 111 30 L 114 30 L 114 27 L 111 27 z M 39 18 L 39 21 L 42 21 L 42 18 L 39 18 z M 39 21 L 36 21 L 36 24 L 39 24 L 39 21 z M 66 18 L 66 21 L 69 21 L 69 18 L 66 18 z M 69 21 L 69 24 L 72 24 L 72 21 L 69 21 z M 66 27 L 66 30 L 69 30 L 69 27 L 66 27 z M 66 30 L 63 30 L 63 33 L 66 33 L 66 30 z M 63 33 L 60 33 L 60 36 L 63 36 L 63 33 z M 72 42 L 72 45 L 75 45 L 78 45 L 81 45 L 84 45 L 87 45 L 90 45 L 93 45 L 96 45 L 96 48 L 99 48 L 99 51 L 99 54 L 99 57 L 99 60 L 99 63 L 99 66 L 102 66 L 102 63 L 102 60 L 102 57 L 102 54 L 102 51 L 102 48 L 102 45 L 102 42 L 99 42 L 96 42 L 93 42 L 90 42 L 87 42 L 84 42 L 81 42 L 78 42 L 75 42 L 72 42 z M 96 48 L 93 48 L 93 51 L 96 51 L 96 48 z M 93 51 L 90 51 L 90 54 L 93 54 L 93 51 z M 90 54 L 87 54 L 84 54 L 81 54 L 78 54 L 75 54 L 72 54 L 69 54 L 66 54 L 66 51 L 63 51 L 63 54 L 60 54 L 60 57 L 60 60 L 60 63 L 60 66 L 60 69 L 60 72 L 60 75 L 60 78 L 57 78 L 54 78 L 51 78 L 51 81 L 51 84 L 54 84 L 54 81 L 57 81 L 60 81 L 60 84 L 60 87 L 60 90 L 63 90 L 66 90 L 69 90 L 72 90 L 75 90 L 78 90 L 78 87 L 75 87 L 72 87 L 69 87 L 66 87 L 63 87 L 63 84 L 63 81 L 63 78 L 63 75 L 63 72 L 63 69 L 63 66 L 63 63 L 63 60 L 63 57 L 66 57 L 69 57 L 72 57 L 75 57 L 78 57 L 81 57 L 84 57 L 87 57 L 87 60 L 87 63 L 87 66 L 87 69 L 87 72 L 87 75 L 87 78 L 90 78 L 90 75 L 90 72 L 90 69 L 90 66 L 90 63 L 90 60 L 90 57 L 90 54 z M 66 51 L 69 51 L 69 48 L 66 48 L 66 51 z M 69 48 L 72 48 L 72 45 L 69 45 L 69 48 z M 36 51 L 36 54 L 36 57 L 36 60 L 36 63 L 36 66 L 36 69 L 39 69 L 39 66 L 39 63 L 39 60 L 39 57 L 39 54 L 39 51 L 36 51 z M 39 69 L 39 72 L 42 72 L 42 69 L 39 69 z M 69 96 L 69 99 L 72 99 L 72 96 L 69 96 z M 69 99 L 66 99 L 66 102 L 69 102 L 69 99 z M 66 102 L 63 102 L 63 105 L 63 108 L 63 111 L 66 111 L 66 108 L 66 105 L 66 102 z M 66 111 L 66 114 L 69 114 L 69 111 L 66 111 z M 69 111 L 72 111 L 72 108 L 69 108 L 69 111 z M 72 108 L 75 108 L 75 105 L 72 105 L 72 108 z M 75 105 L 78 105 L 78 108 L 75 108 L 75 111 L 72 111 L 72 114 L 75 114 L 78 114 L 78 111 L 81 111 L 81 108 L 84 108 L 84 105 L 81 105 L 81 102 L 78 102 L 75 102 L 75 105 z M 63 111 L 60 111 L 60 114 L 63 114 L 63 111 z M 9 99 L 9 102 L 12 102 L 12 99 L 9 99 z M 51 99 L 51 102 L 51 105 L 54 105 L 54 102 L 54 99 L 51 99 z M 51 105 L 48 105 L 48 108 L 51 108 L 51 105 z M 48 108 L 45 108 L 45 111 L 48 111 L 48 108 z M 45 111 L 42 111 L 39 111 L 39 114 L 42 114 L 45 114 L 45 111 z M 18 111 L 18 114 L 21 114 L 24 114 L 24 111 L 21 111 L 18 111 z "
     id="rect3624" />
  <path
     style="fill:#c0c0c0"
     d="M 90 9 L 90 12 L 93 12 L 93 9 L 90 9 z M 93 12 L 93 15 L 96 15 L 96 12 L 93 12 z M 96 15 L 96 18 L 99 18 L 99 15 L 96 15 z M 99 18 L 99 21 L 102 21 L 102 18 L 99 18 z M 102 21 L 102 24 L 105 24 L 105 21 L 102 21 z M 105 24 L 105 27 L 108 27 L 108 24 L 105 24 z M 108 27 L 108 30 L 111 30 L 111 27 L 108 27 z M 42 15 L 42 18 L 45 18 L 45 15 L 42 15 z M 63 15 L 63 18 L 66 18 L 66 15 L 63 15 z M 39 27 L 39 30 L 39 33 L 39 36 L 39 39 L 39 42 L 39 45 L 39 48 L 39 51 L 39 54 L 39 57 L 39 60 L 39 63 L 39 66 L 39 69 L 42 69 L 42 66 L 42 63 L 42 60 L 42 57 L 42 54 L 42 51 L 42 48 L 42 45 L 42 42 L 42 39 L 42 36 L 42 33 L 45 33 L 45 30 L 42 30 L 42 27 L 39 27 z M 45 33 L 45 36 L 48 36 L 51 36 L 54 36 L 57 36 L 60 36 L 60 33 L 57 33 L 54 33 L 51 33 L 48 33 L 45 33 z M 42 69 L 42 72 L 45 72 L 45 69 L 42 69 z M 45 72 L 45 75 L 48 75 L 48 72 L 45 72 z M 48 75 L 48 78 L 51 78 L 51 75 L 48 75 z M 111 33 L 111 36 L 111 39 L 111 42 L 111 45 L 111 48 L 111 51 L 111 54 L 114 54 L 114 51 L 114 48 L 114 45 L 114 42 L 114 39 L 114 36 L 114 33 L 111 33 z M 21 69 L 21 72 L 24 72 L 24 69 L 21 69 z M 24 72 L 24 75 L 27 75 L 27 72 L 24 72 z M 15 72 L 15 75 L 18 75 L 18 72 L 15 72 z M 18 75 L 18 78 L 21 78 L 21 75 L 18 75 z M 18 78 L 15 78 L 15 81 L 18 81 L 18 78 z M 15 78 L 15 75 L 12 75 L 12 78 L 15 78 z M 111 78 L 111 81 L 111 84 L 111 87 L 111 90 L 111 93 L 111 96 L 111 99 L 111 102 L 111 105 L 111 108 L 111 111 L 111 114 L 111 117 L 111 120 L 111 123 L 111 126 L 111 129 L 111 132 L 111 135 L 111 138 L 108 138 L 105 138 L 102 138 L 99 138 L 96 138 L 93 138 L 90 138 L 87 138 L 84 138 L 81 138 L 78 138 L 75 138 L 72 138 L 69 138 L 66 138 L 63 138 L 60 138 L 57 138 L 54 138 L 51 138 L 48 138 L 45 138 L 42 138 L 39 138 L 36 138 L 33 138 L 30 138 L 27 138 L 24 138 L 21 138 L 18 138 L 15 138 L 12 138 L 9 138 L 6 138 L 3 138 L 3 141 L 6 141 L 9 141 L 12 141 L 15 141 L 18 141 L 21 141 L 24 141 L 27 141 L 30 141 L 33 141 L 36 141 L 39 141 L 42 141 L 45 141 L 48 141 L 51 141 L 54 141 L 57 141 L 60 141 L 63 141 L 66 141 L 69 141 L 72 141 L 75 141 L 78 141 L 81 141 L 84 141 L 87 141 L 90 141 L 93 141 L 96 141 L 99 141 L 102 141 L 105 141 L 108 141 L 111 141 L 114 141 L 114 138 L 114 135 L 114 132 L 114 129 L 114 126 L 114 123 L 114 120 L 114 117 L 114 114 L 114 111 L 114 108 L 114 105 L 114 102 L 114 99 L 114 96 L 114 93 L 114 90 L 114 87 L 114 84 L 114 81 L 114 78 L 111 78 z M 9 81 L 9 84 L 12 84 L 12 81 L 9 81 z M 12 84 L 12 87 L 12 90 L 12 93 L 12 96 L 12 99 L 12 102 L 15 102 L 15 105 L 18 105 L 18 102 L 18 99 L 15 99 L 15 96 L 15 93 L 15 90 L 15 87 L 15 84 L 12 84 z M 18 105 L 18 108 L 21 108 L 21 105 L 18 105 z M 69 102 L 69 105 L 69 108 L 72 108 L 72 105 L 75 105 L 75 102 L 72 102 L 69 102 z M 75 105 L 75 108 L 78 108 L 78 105 L 75 105 z M 75 108 L 72 108 L 72 111 L 75 111 L 75 108 z M 72 111 L 69 111 L 69 114 L 72 114 L 72 111 z M 60 114 L 60 117 L 63 117 L 66 117 L 66 114 L 63 114 L 60 114 z "
     id="rect3698" />
  <path
     style="fill:#000000"
     d="M 90 3 L 90 6 L 93 6 L 93 3 L 90 3 z M 93 6 L 93 9 L 96 9 L 96 6 L 93 6 z M 96 9 L 96 12 L 99 12 L 99 9 L 96 9 z M 99 12 L 99 15 L 102 15 L 102 12 L 99 12 z M 102 15 L 102 18 L 105 18 L 105 15 L 102 15 z M 105 18 L 105 21 L 108 21 L 108 18 L 105 18 z M 108 21 L 108 24 L 111 24 L 111 21 L 108 21 z M 111 24 L 111 27 L 114 27 L 114 24 L 111 24 z M 114 27 L 114 30 L 111 30 L 108 30 L 105 30 L 102 30 L 99 30 L 96 30 L 93 30 L 90 30 L 87 30 L 87 33 L 90 33 L 93 33 L 96 33 L 99 33 L 102 33 L 105 33 L 108 33 L 111 33 L 114 33 L 114 36 L 114 39 L 114 42 L 114 45 L 114 48 L 114 51 L 117 51 L 117 48 L 117 45 L 117 42 L 117 39 L 117 36 L 117 33 L 117 30 L 117 27 L 114 27 z M 141 39 L 141 42 L 141 45 L 141 48 L 144 48 L 144 45 L 144 42 L 144 39 L 141 39 z M 141 48 L 138 48 L 138 51 L 141 51 L 141 48 z M 138 51 L 135 51 L 135 54 L 138 54 L 138 51 z M 135 54 L 132 54 L 132 57 L 135 57 L 135 54 z M 132 57 L 129 57 L 129 60 L 132 60 L 132 57 z M 129 60 L 126 60 L 126 63 L 129 63 L 129 60 z M 126 63 L 123 63 L 123 66 L 126 66 L 126 63 z M 123 66 L 120 66 L 120 69 L 123 69 L 123 66 z M 120 69 L 117 69 L 117 72 L 120 72 L 120 69 z M 117 72 L 114 72 L 114 75 L 111 75 L 111 78 L 114 78 L 114 81 L 114 84 L 114 87 L 114 90 L 114 93 L 114 96 L 114 99 L 114 102 L 114 105 L 114 108 L 114 111 L 114 114 L 114 117 L 114 120 L 114 123 L 114 126 L 114 129 L 114 132 L 114 135 L 114 138 L 114 141 L 111 141 L 108 141 L 105 141 L 102 141 L 99 141 L 96 141 L 93 141 L 90 141 L 87 141 L 84 141 L 81 141 L 78 141 L 75 141 L 72 141 L 69 141 L 66 141 L 63 141 L 60 141 L 57 141 L 54 141 L 51 141 L 48 141 L 45 141 L 42 141 L 39 141 L 36 141 L 33 141 L 30 141 L 27 141 L 24 141 L 21 141 L 18 141 L 15 141 L 12 141 L 9 141 L 6 141 L 3 141 L 0 141 L 0 144 L 3 144 L 6 144 L 9 144 L 12 144 L 15 144 L 18 144 L 21 144 L 24 144 L 27 144 L 30 144 L 33 144 L 36 144 L 39 144 L 42 144 L 45 144 L 48 144 L 51 144 L 54 144 L 57 144 L 60 144 L 63 144 L 66 144 L 69 144 L 72 144 L 75 144 L 78 144 L 81 144 L 84 144 L 87 144 L 90 144 L 93 144 L 96 144 L 99 144 L 102 144 L 105 144 L 108 144 L 111 144 L 114 144 L 117 144 L 117 141 L 117 138 L 117 135 L 117 132 L 117 129 L 117 126 L 117 123 L 117 120 L 117 117 L 117 114 L 117 111 L 117 108 L 117 105 L 117 102 L 117 99 L 117 96 L 117 93 L 117 90 L 117 87 L 117 84 L 117 81 L 117 78 L 117 75 L 117 72 z M 111 78 L 108 78 L 108 81 L 111 81 L 111 78 z M 108 81 L 105 81 L 105 84 L 108 84 L 108 81 z M 105 84 L 102 84 L 102 87 L 105 87 L 105 84 z M 102 87 L 99 87 L 99 90 L 102 90 L 102 87 z M 99 90 L 96 90 L 96 93 L 99 93 L 99 90 z M 96 93 L 93 93 L 93 96 L 96 96 L 96 93 z M 93 96 L 90 96 L 90 99 L 93 99 L 93 96 z M 90 99 L 87 99 L 87 102 L 90 102 L 90 99 z M 87 102 L 84 102 L 81 102 L 81 105 L 84 105 L 84 108 L 87 108 L 87 105 L 87 102 z M 84 108 L 81 108 L 81 111 L 78 111 L 78 114 L 78 117 L 81 117 L 81 114 L 84 114 L 84 111 L 84 108 z M 78 117 L 75 117 L 75 120 L 78 120 L 78 117 z M 75 120 L 72 120 L 69 120 L 69 123 L 72 123 L 75 123 L 75 120 z M 69 123 L 66 123 L 63 123 L 60 123 L 57 123 L 54 123 L 54 126 L 57 126 L 60 126 L 63 126 L 66 126 L 69 126 L 69 123 z M 54 123 L 54 120 L 51 120 L 48 120 L 48 123 L 51 123 L 54 123 z M 81 102 L 81 99 L 78 99 L 75 99 L 75 102 L 78 102 L 81 102 z M 75 99 L 75 96 L 72 96 L 72 99 L 75 99 z M 51 84 L 51 87 L 51 90 L 51 93 L 51 96 L 51 99 L 54 99 L 54 96 L 54 93 L 54 90 L 54 87 L 54 84 L 51 84 z M 51 99 L 48 99 L 48 102 L 48 105 L 51 105 L 51 102 L 51 99 z M 48 105 L 45 105 L 45 108 L 48 108 L 48 105 z M 45 108 L 42 108 L 39 108 L 39 111 L 42 111 L 45 111 L 45 108 z M 39 111 L 36 111 L 33 111 L 30 111 L 27 111 L 24 111 L 24 114 L 27 114 L 30 114 L 33 114 L 36 114 L 39 114 L 39 111 z "
     id="rect3778" />
</svg>
