<?xml version="1.0" encoding="utf-8" ?>
<svg baseProfile="full" height="144px" version="1.1" width="144px" xmlns="http://www.w3.org/2000/svg" xmlns:ev="http://www.w3.org/2001/xml-events" xmlns:xlink="http://www.w3.org/1999/xlink"><defs /><rect fill="rgb(0,0,0)" height="3px" width="3px" x="63px" y="45px" /><rect fill="rgb(0,0,0)" height="3px" width="3px" x="66px" y="45px" /><rect fill="rgb(0,0,0)" height="3px" width="3px" x="69px" y="45px" /><rect fill="rgb(0,0,0)" height="3px" width="3px" x="72px" y="45px" /><rect fill="rgb(0,0,0)" height="3px" width="3px" x="75px" y="45px" /><rect fill="rgb(0,0,0)" height="3px" width="3px" x="78px" y="45px" /><rect fill="rgb(0,0,0)" height="3px" width="3px" x="57px" y="48px" /><rect fill="rgb(0,0,0)" height="3px" width="3px" x="60px" y="48px" /><rect fill="rgb(0,0,255)" height="3px" width="3px" x="63px" y="48px" /><rect fill="rgb(0,0,255)" height="3px" width="3px" x="66px" y="48px" /><rect fill="rgb(0,0,255)" height="3px" width="3px" x="69px" y="48px" /><rect fill="rgb(0,0,255)" height="3px" width="3px" x="72px" y="48px" /><rect fill="rgb(0,0,255)" height="3px" width="3px" x="75px" y="48px" /><rect fill="rgb(0,0,255)" height="3px" width="3px" x="78px" y="48px" /><rect fill="rgb(0,0,0)" height="3px" width="3px" x="81px" y="48px" /><rect fill="rgb(0,0,0)" height="3px" width="3px" x="84px" y="48px" /><rect fill="rgb(0,0,0)" height="3px" width="3px" x="54px" y="51px" /><rect fill="rgb(0,0,255)" height="3px" width="3px" x="57px" y="51px" /><rect fill="rgb(0,0,255)" height="3px" width="3px" x="60px" y="51px" /><rect fill="rgb(0,0,255)" height="3px" width="3px" x="63px" y="51px" /><rect fill="rgb(0,0,255)" height="3px" width="3px" x="66px" y="51px" /><rect fill="rgb(0,0,255)" height="3px" width="3px" x="69px" y="51px" /><rect fill="rgb(0,0,255)" height="3px" width="3px" x="72px" y="51px" /><rect fill="rgb(0,0,255)" height="3px" width="3px" x="75px" y="51px" /><rect fill="rgb(0,0,255)" height="3px" width="3px" x="78px" y="51px" /><rect fill="rgb(0,0,255)" height="3px" width="3px" x="81px" y="51px" /><rect fill="rgb(0,0,255)" height="3px" width="3px" x="84px" y="51px" /><rect fill="rgb(0,0,0)" height="3px" width="3px" x="87px" y="51px" /><rect fill="rgb(128,128,128)" height="3px" width="3px" x="90px" y="51px" /><rect fill="rgb(0,0,0)" height="3px" width="3px" x="51px" y="54px" /><rect fill="rgb(0,0,255)" height="3px" width="3px" x="54px" y="54px" /><rect fill="rgb(0,0,255)" height="3px" width="3px" x="57px" y="54px" /><rect fill="rgb(0,0,255)" height="3px" width="3px" x="60px" y="54px" /><rect fill="rgb(0,0,255)" height="3px" width="3px" x="63px" y="54px" /><rect fill="rgb(0,0,255)" height="3px" width="3px" x="66px" y="54px" /><rect fill="rgb(0,0,255)" height="3px" width="3px" x="69px" y="54px" /><rect fill="rgb(0,0,255)" height="3px" width="3px" x="72px" y="54px" /><rect fill="rgb(0,0,255)" height="3px" width="3px" x="75px" y="54px" /><rect fill="rgb(0,0,255)" height="3px" width="3px" x="78px" y="54px" /><rect fill="rgb(0,0,255)" height="3px" width="3px" x="81px" y="54px" /><rect fill="rgb(0,0,255)" height="3px" width="3px" x="84px" y="54px" /><rect fill="rgb(0,0,255)" height="3px" width="3px" x="87px" y="54px" /><rect fill="rgb(0,0,0)" height="3px" width="3px" x="90px" y="54px" /><rect fill="rgb(128,128,128)" height="3px" width="3px" x="93px" y="54px" /><rect fill="rgb(0,0,0)" height="3px" width="3px" x="48px" y="57px" /><rect fill="rgb(0,0,255)" height="3px" width="3px" x="51px" y="57px" /><rect fill="rgb(0,0,255)" height="3px" width="3px" x="54px" y="57px" /><rect fill="rgb(0,0,255)" height="3px" width="3px" x="57px" y="57px" /><rect fill="rgb(0,0,255)" height="3px" width="3px" x="60px" y="57px" /><rect fill="rgb(0,0,255)" height="3px" width="3px" x="63px" y="57px" /><rect fill="rgb(0,0,255)" height="3px" width="3px" x="66px" y="57px" /><rect fill="rgb(0,0,255)" height="3px" width="3px" x="69px" y="57px" /><rect fill="rgb(0,0,255)" height="3px" width="3px" x="72px" y="57px" /><rect fill="rgb(0,0,255)" height="3px" width="3px" x="75px" y="57px" /><rect fill="rgb(0,0,255)" height="3px" width="3px" x="78px" y="57px" /><rect fill="rgb(0,0,255)" height="3px" width="3px" x="81px" y="57px" /><rect fill="rgb(0,0,255)" height="3px" width="3px" x="84px" y="57px" /><rect fill="rgb(0,0,255)" height="3px" width="3px" x="87px" y="57px" /><rect fill="rgb(0,0,255)" height="3px" width="3px" x="90px" y="57px" /><rect fill="rgb(0,0,0)" height="3px" width="3px" x="93px" y="57px" /><rect fill="rgb(128,128,128)" height="3px" width="3px" x="96px" y="57px" /><rect fill="rgb(0,0,0)" height="3px" width="3px" x="48px" y="60px" /><rect fill="rgb(0,0,255)" height="3px" width="3px" x="51px" y="60px" /><rect fill="rgb(0,0,255)" height="3px" width="3px" x="54px" y="60px" /><rect fill="rgb(0,0,255)" height="3px" width="3px" x="57px" y="60px" /><rect fill="rgb(0,0,255)" height="3px" width="3px" x="60px" y="60px" /><rect fill="rgb(0,0,255)" height="3px" width="3px" x="63px" y="60px" /><rect fill="rgb(0,0,255)" height="3px" width="3px" x="66px" y="60px" /><rect fill="rgb(0,0,255)" height="3px" width="3px" x="69px" y="60px" /><rect fill="rgb(0,0,255)" height="3px" width="3px" x="72px" y="60px" /><rect fill="rgb(0,0,255)" height="3px" width="3px" x="75px" y="60px" /><rect fill="rgb(0,0,255)" height="3px" width="3px" x="78px" y="60px" /><rect fill="rgb(0,0,255)" height="3px" width="3px" x="81px" y="60px" /><rect fill="rgb(0,0,255)" height="3px" width="3px" x="84px" y="60px" /><rect fill="rgb(0,0,255)" height="3px" width="3px" x="87px" y="60px" /><rect fill="rgb(0,0,255)" height="3px" width="3px" x="90px" y="60px" /><rect fill="rgb(0,0,0)" height="3px" width="3px" x="93px" y="60px" /><rect fill="rgb(128,128,128)" height="3px" width="3px" x="96px" y="60px" /><rect fill="rgb(128,128,128)" height="3px" width="3px" x="99px" y="60px" /><rect fill="rgb(0,0,0)" height="3px" width="3px" x="45px" y="63px" /><rect fill="rgb(0,0,255)" height="3px" width="3px" x="48px" y="63px" /><rect fill="rgb(0,0,255)" height="3px" width="3px" x="51px" y="63px" /><rect fill="rgb(0,0,255)" height="3px" width="3px" x="54px" y="63px" /><rect fill="rgb(0,0,255)" height="3px" width="3px" x="57px" y="63px" /><rect fill="rgb(0,0,255)" height="3px" width="3px" x="60px" y="63px" /><rect fill="rgb(0,0,255)" height="3px" width="3px" x="63px" y="63px" /><rect fill="rgb(0,0,255)" height="3px" width="3px" x="66px" y="63px" /><rect fill="rgb(0,0,255)" height="3px" width="3px" x="69px" y="63px" /><rect fill="rgb(0,0,255)" height="3px" width="3px" x="72px" y="63px" /><rect fill="rgb(0,0,255)" height="3px" width="3px" x="75px" y="63px" /><rect fill="rgb(0,0,255)" height="3px" width="3px" x="78px" y="63px" /><rect fill="rgb(0,0,255)" height="3px" width="3px" x="81px" y="63px" /><rect fill="rgb(0,0,255)" height="3px" width="3px" x="84px" y="63px" /><rect fill="rgb(0,0,255)" height="3px" width="3px" x="87px" y="63px" /><rect fill="rgb(0,0,255)" height="3px" width="3px" x="90px" y="63px" /><rect fill="rgb(0,0,255)" height="3px" width="3px" x="93px" y="63px" /><rect fill="rgb(0,0,0)" height="3px" width="3px" x="96px" y="63px" /><rect fill="rgb(128,128,128)" height="3px" width="3px" x="99px" y="63px" /><rect fill="rgb(0,0,0)" height="3px" width="3px" x="45px" y="66px" /><rect fill="rgb(0,0,255)" height="3px" width="3px" x="48px" y="66px" /><rect fill="rgb(0,0,255)" height="3px" width="3px" x="51px" y="66px" /><rect fill="rgb(0,0,255)" height="3px" width="3px" x="54px" y="66px" /><rect fill="rgb(0,0,255)" height="3px" width="3px" x="57px" y="66px" /><rect fill="rgb(0,0,255)" height="3px" width="3px" x="60px" y="66px" /><rect fill="rgb(0,0,255)" height="3px" width="3px" x="63px" y="66px" /><rect fill="rgb(0,0,255)" height="3px" width="3px" x="66px" y="66px" /><rect fill="rgb(0,0,255)" height="3px" width="3px" x="69px" y="66px" /><rect fill="rgb(0,0,255)" height="3px" width="3px" x="72px" y="66px" /><rect fill="rgb(0,0,255)" height="3px" width="3px" x="75px" y="66px" /><rect fill="rgb(0,0,255)" height="3px" width="3px" x="78px" y="66px" /><rect fill="rgb(0,0,255)" height="3px" width="3px" x="81px" y="66px" /><rect fill="rgb(0,0,255)" height="3px" width="3px" x="84px" y="66px" /><rect fill="rgb(0,0,255)" height="3px" width="3px" x="87px" y="66px" /><rect fill="rgb(0,0,255)" height="3px" width="3px" x="90px" y="66px" /><rect fill="rgb(0,0,255)" height="3px" width="3px" x="93px" y="66px" /><rect fill="rgb(0,0,0)" height="3px" width="3px" x="96px" y="66px" /><rect fill="rgb(128,128,128)" height="3px" width="3px" x="99px" y="66px" /><rect fill="rgb(128,128,128)" height="3px" width="3px" x="102px" y="66px" /><rect fill="rgb(0,0,0)" height="3px" width="3px" x="45px" y="69px" /><rect fill="rgb(0,0,255)" height="3px" width="3px" x="48px" y="69px" /><rect fill="rgb(0,0,255)" height="3px" width="3px" x="51px" y="69px" /><rect fill="rgb(0,0,255)" height="3px" width="3px" x="54px" y="69px" /><rect fill="rgb(0,0,255)" height="3px" width="3px" x="57px" y="69px" /><rect fill="rgb(0,0,255)" height="3px" width="3px" x="60px" y="69px" /><rect fill="rgb(0,0,255)" height="3px" width="3px" x="63px" y="69px" /><rect fill="rgb(0,0,255)" height="3px" width="3px" x="66px" y="69px" /><rect fill="rgb(0,0,255)" height="3px" width="3px" x="69px" y="69px" /><rect fill="rgb(0,0,255)" height="3px" width="3px" x="72px" y="69px" /><rect fill="rgb(0,0,255)" height="3px" width="3px" x="75px" y="69px" /><rect fill="rgb(0,0,255)" height="3px" width="3px" x="78px" y="69px" /><rect fill="rgb(0,0,255)" height="3px" width="3px" x="81px" y="69px" /><rect fill="rgb(0,0,255)" height="3px" width="3px" x="84px" y="69px" /><rect fill="rgb(0,0,255)" height="3px" width="3px" x="87px" y="69px" /><rect fill="rgb(0,0,255)" height="3px" width="3px" x="90px" y="69px" /><rect fill="rgb(0,0,255)" height="3px" width="3px" x="93px" y="69px" /><rect fill="rgb(0,0,0)" height="3px" width="3px" x="96px" y="69px" /><rect fill="rgb(128,128,128)" height="3px" width="3px" x="99px" y="69px" /><rect fill="rgb(128,128,128)" height="3px" width="3px" x="102px" y="69px" /><rect fill="rgb(0,0,0)" height="3px" width="3px" x="45px" y="72px" /><rect fill="rgb(0,0,255)" height="3px" width="3px" x="48px" y="72px" /><rect fill="rgb(0,0,255)" height="3px" width="3px" x="51px" y="72px" /><rect fill="rgb(0,0,255)" height="3px" width="3px" x="54px" y="72px" /><rect fill="rgb(0,0,255)" height="3px" width="3px" x="57px" y="72px" /><rect fill="rgb(0,0,255)" height="3px" width="3px" x="60px" y="72px" /><rect fill="rgb(0,0,255)" height="3px" width="3px" x="63px" y="72px" /><rect fill="rgb(0,0,255)" height="3px" width="3px" x="66px" y="72px" /><rect fill="rgb(0,0,255)" height="3px" width="3px" x="69px" y="72px" /><rect fill="rgb(0,0,255)" height="3px" width="3px" x="72px" y="72px" /><rect fill="rgb(0,0,255)" height="3px" width="3px" x="75px" y="72px" /><rect fill="rgb(0,0,255)" height="3px" width="3px" x="78px" y="72px" /><rect fill="rgb(0,0,255)" height="3px" width="3px" x="81px" y="72px" /><rect fill="rgb(0,0,255)" height="3px" width="3px" x="84px" y="72px" /><rect fill="rgb(0,0,255)" height="3px" width="3px" x="87px" y="72px" /><rect fill="rgb(0,0,255)" height="3px" width="3px" x="90px" y="72px" /><rect fill="rgb(0,0,255)" height="3px" width="3px" x="93px" y="72px" /><rect fill="rgb(0,0,0)" height="3px" width="3px" x="96px" y="72px" /><rect fill="rgb(128,128,128)" height="3px" width="3px" x="99px" y="72px" /><rect fill="rgb(128,128,128)" height="3px" width="3px" x="102px" y="72px" /><rect fill="rgb(0,0,0)" height="3px" width="3px" x="45px" y="75px" /><rect fill="rgb(0,0,255)" height="3px" width="3px" x="48px" y="75px" /><rect fill="rgb(0,0,255)" height="3px" width="3px" x="51px" y="75px" /><rect fill="rgb(0,0,255)" height="3px" width="3px" x="54px" y="75px" /><rect fill="rgb(0,0,255)" height="3px" width="3px" x="57px" y="75px" /><rect fill="rgb(0,0,255)" height="3px" width="3px" x="60px" y="75px" /><rect fill="rgb(0,0,255)" height="3px" width="3px" x="63px" y="75px" /><rect fill="rgb(0,0,255)" height="3px" width="3px" x="66px" y="75px" /><rect fill="rgb(0,0,255)" height="3px" width="3px" x="69px" y="75px" /><rect fill="rgb(0,0,255)" height="3px" width="3px" x="72px" y="75px" /><rect fill="rgb(0,0,255)" height="3px" width="3px" x="75px" y="75px" /><rect fill="rgb(0,0,255)" height="3px" width="3px" x="78px" y="75px" /><rect fill="rgb(0,0,255)" height="3px" width="3px" x="81px" y="75px" /><rect fill="rgb(0,0,255)" height="3px" width="3px" x="84px" y="75px" /><rect fill="rgb(0,0,255)" height="3px" width="3px" x="87px" y="75px" /><rect fill="rgb(0,0,255)" height="3px" width="3px" x="90px" y="75px" /><rect fill="rgb(0,0,255)" height="3px" width="3px" x="93px" y="75px" /><rect fill="rgb(0,0,0)" height="3px" width="3px" x="96px" y="75px" /><rect fill="rgb(128,128,128)" height="3px" width="3px" x="99px" y="75px" /><rect fill="rgb(128,128,128)" height="3px" width="3px" x="102px" y="75px" /><rect fill="rgb(0,0,0)" height="3px" width="3px" x="48px" y="78px" /><rect fill="rgb(0,0,255)" height="3px" width="3px" x="51px" y="78px" /><rect fill="rgb(0,0,255)" height="3px" width="3px" x="54px" y="78px" /><rect fill="rgb(0,0,255)" height="3px" width="3px" x="57px" y="78px" /><rect fill="rgb(0,0,255)" height="3px" width="3px" x="60px" y="78px" /><rect fill="rgb(0,0,255)" height="3px" width="3px" x="63px" y="78px" /><rect fill="rgb(0,0,255)" height="3px" width="3px" x="66px" y="78px" /><rect fill="rgb(0,0,255)" height="3px" width="3px" x="69px" y="78px" /><rect fill="rgb(0,0,255)" height="3px" width="3px" x="72px" y="78px" /><rect fill="rgb(0,0,255)" height="3px" width="3px" x="75px" y="78px" /><rect fill="rgb(0,0,255)" height="3px" width="3px" x="78px" y="78px" /><rect fill="rgb(0,0,255)" height="3px" width="3px" x="81px" y="78px" /><rect fill="rgb(0,0,255)" height="3px" width="3px" x="84px" y="78px" /><rect fill="rgb(0,0,255)" height="3px" width="3px" x="87px" y="78px" /><rect fill="rgb(0,0,255)" height="3px" width="3px" x="90px" y="78px" /><rect fill="rgb(0,0,0)" height="3px" width="3px" x="93px" y="78px" /><rect fill="rgb(128,128,128)" height="3px" width="3px" x="96px" y="78px" /><rect fill="rgb(128,128,128)" height="3px" width="3px" x="99px" y="78px" /><rect fill="rgb(128,128,128)" height="3px" width="3px" x="102px" y="78px" /><rect fill="rgb(0,0,0)" height="3px" width="3px" x="48px" y="81px" /><rect fill="rgb(0,0,255)" height="3px" width="3px" x="51px" y="81px" /><rect fill="rgb(0,0,255)" height="3px" width="3px" x="54px" y="81px" /><rect fill="rgb(0,0,255)" height="3px" width="3px" x="57px" y="81px" /><rect fill="rgb(0,0,255)" height="3px" width="3px" x="60px" y="81px" /><rect fill="rgb(0,0,255)" height="3px" width="3px" x="63px" y="81px" /><rect fill="rgb(0,0,255)" height="3px" width="3px" x="66px" y="81px" /><rect fill="rgb(0,0,255)" height="3px" width="3px" x="69px" y="81px" /><rect fill="rgb(0,0,255)" height="3px" width="3px" x="72px" y="81px" /><rect fill="rgb(0,0,255)" height="3px" width="3px" x="75px" y="81px" /><rect fill="rgb(0,0,255)" height="3px" width="3px" x="78px" y="81px" /><rect fill="rgb(0,0,255)" height="3px" width="3px" x="81px" y="81px" /><rect fill="rgb(0,0,255)" height="3px" width="3px" x="84px" y="81px" /><rect fill="rgb(0,0,255)" height="3px" width="3px" x="87px" y="81px" /><rect fill="rgb(0,0,255)" height="3px" width="3px" x="90px" y="81px" /><rect fill="rgb(0,0,0)" height="3px" width="3px" x="93px" y="81px" /><rect fill="rgb(128,128,128)" height="3px" width="3px" x="96px" y="81px" /><rect fill="rgb(128,128,128)" height="3px" width="3px" x="99px" y="81px" /><rect fill="rgb(0,0,0)" height="3px" width="3px" x="51px" y="84px" /><rect fill="rgb(0,0,255)" height="3px" width="3px" x="54px" y="84px" /><rect fill="rgb(0,0,255)" height="3px" width="3px" x="57px" y="84px" /><rect fill="rgb(0,0,255)" height="3px" width="3px" x="60px" y="84px" /><rect fill="rgb(0,0,255)" height="3px" width="3px" x="63px" y="84px" /><rect fill="rgb(0,0,255)" height="3px" width="3px" x="66px" y="84px" /><rect fill="rgb(0,0,255)" height="3px" width="3px" x="69px" y="84px" /><rect fill="rgb(0,0,255)" height="3px" width="3px" x="72px" y="84px" /><rect fill="rgb(0,0,255)" height="3px" width="3px" x="75px" y="84px" /><rect fill="rgb(0,0,255)" height="3px" width="3px" x="78px" y="84px" /><rect fill="rgb(0,0,255)" height="3px" width="3px" x="81px" y="84px" /><rect fill="rgb(0,0,255)" height="3px" width="3px" x="84px" y="84px" /><rect fill="rgb(0,0,255)" height="3px" width="3px" x="87px" y="84px" /><rect fill="rgb(0,0,0)" height="3px" width="3px" x="90px" y="84px" /><rect fill="rgb(128,128,128)" height="3px" width="3px" x="93px" y="84px" /><rect fill="rgb(128,128,128)" height="3px" width="3px" x="96px" y="84px" /><rect fill="rgb(128,128,128)" height="3px" width="3px" x="99px" y="84px" /><rect fill="rgb(0,0,0)" height="3px" width="3px" x="54px" y="87px" /><rect fill="rgb(0,0,255)" height="3px" width="3px" x="57px" y="87px" /><rect fill="rgb(0,0,255)" height="3px" width="3px" x="60px" y="87px" /><rect fill="rgb(0,0,255)" height="3px" width="3px" x="63px" y="87px" /><rect fill="rgb(0,0,255)" height="3px" width="3px" x="66px" y="87px" /><rect fill="rgb(0,0,255)" height="3px" width="3px" x="69px" y="87px" /><rect fill="rgb(0,0,255)" height="3px" width="3px" x="72px" y="87px" /><rect fill="rgb(0,0,255)" height="3px" width="3px" x="75px" y="87px" /><rect fill="rgb(0,0,255)" height="3px" width="3px" x="78px" y="87px" /><rect fill="rgb(0,0,255)" height="3px" width="3px" x="81px" y="87px" /><rect fill="rgb(0,0,255)" height="3px" width="3px" x="84px" y="87px" /><rect fill="rgb(0,0,0)" height="3px" width="3px" x="87px" y="87px" /><rect fill="rgb(128,128,128)" height="3px" width="3px" x="90px" y="87px" /><rect fill="rgb(128,128,128)" height="3px" width="3px" x="93px" y="87px" /><rect fill="rgb(128,128,128)" height="3px" width="3px" x="96px" y="87px" /><rect fill="rgb(0,0,0)" height="3px" width="3px" x="57px" y="90px" /><rect fill="rgb(0,0,0)" height="3px" width="3px" x="60px" y="90px" /><rect fill="rgb(0,0,255)" height="3px" width="3px" x="63px" y="90px" /><rect fill="rgb(0,0,255)" height="3px" width="3px" x="66px" y="90px" /><rect fill="rgb(0,0,255)" height="3px" width="3px" x="69px" y="90px" /><rect fill="rgb(0,0,255)" height="3px" width="3px" x="72px" y="90px" /><rect fill="rgb(0,0,255)" height="3px" width="3px" x="75px" y="90px" /><rect fill="rgb(0,0,255)" height="3px" width="3px" x="78px" y="90px" /><rect fill="rgb(0,0,0)" height="3px" width="3px" x="81px" y="90px" /><rect fill="rgb(0,0,0)" height="3px" width="3px" x="84px" y="90px" /><rect fill="rgb(128,128,128)" height="3px" width="3px" x="87px" y="90px" /><rect fill="rgb(128,128,128)" height="3px" width="3px" x="90px" y="90px" /><rect fill="rgb(128,128,128)" height="3px" width="3px" x="93px" y="90px" /><rect fill="rgb(0,0,0)" height="3px" width="3px" x="63px" y="93px" /><rect fill="rgb(0,0,0)" height="3px" width="3px" x="66px" y="93px" /><rect fill="rgb(0,0,0)" height="3px" width="3px" x="69px" y="93px" /><rect fill="rgb(0,0,0)" height="3px" width="3px" x="72px" y="93px" /><rect fill="rgb(0,0,0)" height="3px" width="3px" x="75px" y="93px" /><rect fill="rgb(0,0,0)" height="3px" width="3px" x="78px" y="93px" /><rect fill="rgb(128,128,128)" height="3px" width="3px" x="81px" y="93px" /><rect fill="rgb(128,128,128)" height="3px" width="3px" x="84px" y="93px" /><rect fill="rgb(128,128,128)" height="3px" width="3px" x="87px" y="93px" /><rect fill="rgb(128,128,128)" height="3px" width="3px" x="90px" y="93px" /><rect fill="rgb(128,128,128)" height="3px" width="3px" x="69px" y="96px" /><rect fill="rgb(128,128,128)" height="3px" width="3px" x="72px" y="96px" /><rect fill="rgb(128,128,128)" height="3px" width="3px" x="75px" y="96px" /><rect fill="rgb(128,128,128)" height="3px" width="3px" x="78px" y="96px" /><rect fill="rgb(128,128,128)" height="3px" width="3px" x="81px" y="96px" /><rect fill="rgb(128,128,128)" height="3px" width="3px" x="84px" y="96px" /></svg>