<?xml version="1.0" encoding="UTF-8" standalone="no"?>
<svg
   xmlns:dc="http://purl.org/dc/elements/1.1/"
   xmlns:cc="http://creativecommons.org/ns#"
   xmlns:rdf="http://www.w3.org/1999/02/22-rdf-syntax-ns#"
   xmlns:svg="http://www.w3.org/2000/svg"
   xmlns="http://www.w3.org/2000/svg"
   xmlns:sodipodi="http://sodipodi.sourceforge.net/DTD/sodipodi-0.dtd"
   xmlns:inkscape="http://www.inkscape.org/namespaces/inkscape"
   id="svg556"
   width="144px"
   version="1.1"
   height="144px"
   sodipodi:docname="chicago95_tmp_file.svg"
   inkscape:version="0.92.4 (5da689c313, 2019-01-14)">
  <sodipodi:namedview
     pagecolor="#ffffff"
     bordercolor="#666666"
     borderopacity="1"
     objecttolerance="10"
     gridtolerance="10"
     guidetolerance="10"
     inkscape:pageopacity="0"
     inkscape:pageshadow="2"
     inkscape:window-width="640"
     inkscape:window-height="480"
     id="namedview281"
     showgrid="false"
     inkscape:zoom="1.6388889"
     inkscape:cx="72"
     inkscape:cy="72"
     inkscape:window-x="0"
     inkscape:window-y="0"
     inkscape:window-maximized="0"
     inkscape:current-layer="svg556" />
  <metadata
     id="metadata560">
    <rdf:RDF>
      <cc:Work
         rdf:about="">
        <dc:format>image/svg+xml</dc:format>
        <dc:type
           rdf:resource="http://purl.org/dc/dcmitype/StillImage" />
      </cc:Work>
    </rdf:RDF>
  </metadata>
  <defs
     id="defs2" />
  <path
     style="fill:#0000ff"
     d="M 63 48 L 63 51 L 60 51 L 57 51 L 57 54 L 54 54 L 54 57 L 51 57 L 51 60 L 51 63 L 48 63 L 48 66 L 48 69 L 48 72 L 48 75 L 48 78 L 51 78 L 51 81 L 51 84 L 54 84 L 54 87 L 57 87 L 57 90 L 60 90 L 63 90 L 63 93 L 66 93 L 69 93 L 72 93 L 75 93 L 78 93 L 81 93 L 81 90 L 84 90 L 87 90 L 87 87 L 90 87 L 90 84 L 93 84 L 93 81 L 93 78 L 96 78 L 96 75 L 96 72 L 96 69 L 96 66 L 96 63 L 93 63 L 93 60 L 93 57 L 90 57 L 90 54 L 87 54 L 87 51 L 84 51 L 81 51 L 81 48 L 78 48 L 75 48 L 72 48 L 69 48 L 66 48 L 63 48 z "
     id="rect512" />
  <path
     style="fill:#000000"
     d="M 63 45 L 63 48 L 66 48 L 69 48 L 72 48 L 75 48 L 78 48 L 81 48 L 81 45 L 78 45 L 75 45 L 72 45 L 69 45 L 66 45 L 63 45 z M 81 48 L 81 51 L 84 51 L 87 51 L 87 48 L 84 48 L 81 48 z M 87 51 L 87 54 L 90 54 L 90 51 L 87 51 z M 90 54 L 90 57 L 93 57 L 93 54 L 90 54 z M 93 57 L 93 60 L 93 63 L 96 63 L 96 60 L 96 57 L 93 57 z M 96 63 L 96 66 L 96 69 L 96 72 L 96 75 L 96 78 L 99 78 L 99 75 L 99 72 L 99 69 L 99 66 L 99 63 L 96 63 z M 96 78 L 93 78 L 93 81 L 93 84 L 96 84 L 96 81 L 96 78 z M 93 84 L 90 84 L 90 87 L 93 87 L 93 84 z M 90 87 L 87 87 L 87 90 L 90 90 L 90 87 z M 87 90 L 84 90 L 81 90 L 81 93 L 84 93 L 87 93 L 87 90 z M 81 93 L 78 93 L 75 93 L 72 93 L 69 93 L 66 93 L 63 93 L 63 96 L 66 96 L 69 96 L 72 96 L 75 96 L 78 96 L 81 96 L 81 93 z M 63 93 L 63 90 L 60 90 L 57 90 L 57 93 L 60 93 L 63 93 z M 57 90 L 57 87 L 54 87 L 54 90 L 57 90 z M 54 87 L 54 84 L 51 84 L 51 87 L 54 87 z M 51 84 L 51 81 L 51 78 L 48 78 L 48 81 L 48 84 L 51 84 z M 48 78 L 48 75 L 48 72 L 48 69 L 48 66 L 48 63 L 45 63 L 45 66 L 45 69 L 45 72 L 45 75 L 45 78 L 48 78 z M 48 63 L 51 63 L 51 60 L 51 57 L 48 57 L 48 60 L 48 63 z M 51 57 L 54 57 L 54 54 L 51 54 L 51 57 z M 54 54 L 57 54 L 57 51 L 54 51 L 54 54 z M 57 51 L 60 51 L 63 51 L 63 48 L 60 48 L 57 48 L 57 51 z "
     id="rect534" />
  <path
     style="fill:#808080"
     d="M 90 51 L 90 54 L 93 54 L 93 51 L 90 51 z M 93 54 L 93 57 L 96 57 L 96 54 L 93 54 z M 96 57 L 96 60 L 96 63 L 99 63 L 99 66 L 99 69 L 99 72 L 99 75 L 99 78 L 96 78 L 96 81 L 96 84 L 93 84 L 93 87 L 90 87 L 90 90 L 87 90 L 87 93 L 84 93 L 81 93 L 81 96 L 78 96 L 75 96 L 72 96 L 69 96 L 69 99 L 72 99 L 75 99 L 78 99 L 81 99 L 84 99 L 87 99 L 87 96 L 90 96 L 93 96 L 93 93 L 96 93 L 96 90 L 99 90 L 99 87 L 102 87 L 102 84 L 102 81 L 105 81 L 105 78 L 105 75 L 105 72 L 105 69 L 105 66 L 102 66 L 102 63 L 102 60 L 99 60 L 99 57 L 96 57 z "
     id="rect554" />
</svg>
