<?xml version="1.0" encoding="UTF-8" standalone="no"?>
<svg
   xmlns:dc="http://purl.org/dc/elements/1.1/"
   xmlns:cc="http://creativecommons.org/ns#"
   xmlns:rdf="http://www.w3.org/1999/02/22-rdf-syntax-ns#"
   xmlns:svg="http://www.w3.org/2000/svg"
   xmlns="http://www.w3.org/2000/svg"
   xmlns:sodipodi="http://sodipodi.sourceforge.net/DTD/sodipodi-0.dtd"
   xmlns:inkscape="http://www.inkscape.org/namespaces/inkscape"
   id="svg2858"
   width="144px"
   version="1.1"
   height="144px"
   sodipodi:docname="chicago95_tmp_file.svg"
   inkscape:version="0.92.4 (5da689c313, 2019-01-14)">
  <sodipodi:namedview
     pagecolor="#ffffff"
     bordercolor="#666666"
     borderopacity="1"
     objecttolerance="10"
     gridtolerance="10"
     guidetolerance="10"
     inkscape:pageopacity="0"
     inkscape:pageshadow="2"
     inkscape:window-width="640"
     inkscape:window-height="480"
     id="namedview1432"
     showgrid="false"
     inkscape:zoom="1.6388889"
     inkscape:cx="72"
     inkscape:cy="72"
     inkscape:window-x="0"
     inkscape:window-y="0"
     inkscape:window-maximized="0"
     inkscape:current-layer="svg2858" />
  <metadata
     id="metadata2862">
    <rdf:RDF>
      <cc:Work
         rdf:about="">
        <dc:format>image/svg+xml</dc:format>
        <dc:type
           rdf:resource="http://purl.org/dc/dcmitype/StillImage" />
      </cc:Work>
    </rdf:RDF>
  </metadata>
  <defs
     id="defs2" />
  <path
     style="fill:#0000ff"
     d="M 87 21 L 87 24 L 90 24 L 93 24 L 93 21 L 90 21 L 87 21 z M 93 24 L 93 27 L 96 27 L 99 27 L 99 24 L 96 24 L 93 24 z M 99 27 L 99 30 L 102 30 L 105 30 L 105 27 L 102 27 L 99 27 z M 78 30 L 78 33 L 81 33 L 84 33 L 84 30 L 81 30 L 78 30 z M 84 33 L 84 36 L 87 36 L 90 36 L 90 33 L 87 33 L 84 33 z M 90 36 L 90 39 L 93 39 L 96 39 L 96 36 L 93 36 L 90 36 z M 72 39 L 72 42 L 75 42 L 78 42 L 78 39 L 75 39 L 72 39 z M 78 42 L 78 45 L 81 45 L 84 45 L 84 42 L 81 42 L 78 42 z M 84 45 L 84 48 L 87 48 L 90 48 L 90 45 L 87 45 L 84 45 z M 66 48 L 66 51 L 69 51 L 72 51 L 72 48 L 69 48 L 66 48 z M 72 51 L 72 54 L 75 54 L 78 54 L 78 51 L 75 51 L 72 51 z M 78 54 L 78 57 L 81 57 L 84 57 L 84 54 L 81 54 L 78 54 z "
     id="rect568" />
  <path
     style="fill:#00ff00"
     d="M 30 72 L 30 75 L 33 75 L 36 75 L 36 72 L 33 72 L 30 72 z "
     id="rect1042" />
  <path
     style="fill:#008000"
     d="M 36 72 L 36 75 L 39 75 L 39 72 L 36 72 z "
     id="rect1044" />
  <path
     style="fill:#ffffff"
     d="M 87 12 L 87 15 L 84 15 L 84 18 L 81 18 L 81 21 L 78 21 L 78 24 L 75 24 L 75 27 L 72 27 L 72 30 L 69 30 L 69 33 L 66 33 L 66 36 L 66 39 L 63 39 L 63 42 L 60 42 L 60 45 L 60 48 L 57 48 L 57 51 L 57 54 L 60 54 L 60 57 L 63 57 L 66 57 L 66 60 L 69 60 L 72 60 L 72 63 L 75 63 L 78 63 L 78 66 L 81 66 L 84 66 L 84 69 L 87 69 L 87 66 L 90 66 L 90 63 L 90 60 L 93 60 L 93 57 L 93 54 L 96 54 L 96 51 L 96 48 L 99 48 L 99 45 L 99 42 L 102 42 L 102 39 L 105 39 L 105 36 L 108 36 L 108 33 L 111 33 L 111 30 L 114 30 L 114 27 L 117 27 L 120 27 L 120 24 L 117 24 L 114 24 L 114 21 L 111 21 L 108 21 L 108 18 L 105 18 L 102 18 L 102 15 L 99 15 L 96 15 L 96 12 L 93 12 L 90 12 L 87 12 z M 60 42 L 60 39 L 57 39 L 54 39 L 54 42 L 57 42 L 60 42 z M 54 42 L 51 42 L 48 42 L 48 45 L 51 45 L 54 45 L 54 42 z M 48 45 L 45 45 L 42 45 L 42 48 L 45 48 L 48 48 L 48 45 z M 42 48 L 39 48 L 36 48 L 36 51 L 39 51 L 42 51 L 42 48 z M 36 51 L 33 51 L 30 51 L 30 54 L 33 54 L 36 54 L 36 51 z M 30 54 L 27 54 L 24 54 L 24 57 L 27 57 L 30 57 L 30 54 z M 24 57 L 21 57 L 18 57 L 18 60 L 21 60 L 24 60 L 24 57 z M 18 60 L 15 60 L 12 60 L 12 63 L 15 63 L 18 63 L 18 60 z M 12 63 L 9 63 L 6 63 L 6 66 L 3 66 L 3 69 L 3 72 L 3 75 L 3 78 L 3 81 L 3 84 L 3 87 L 3 90 L 3 93 L 3 96 L 6 96 L 6 93 L 6 90 L 6 87 L 6 84 L 6 81 L 6 78 L 6 75 L 6 72 L 6 69 L 9 69 L 9 66 L 12 66 L 12 63 z M 9 69 L 9 72 L 12 72 L 15 72 L 15 69 L 12 69 L 9 69 z M 60 39 L 63 39 L 63 36 L 60 36 L 60 39 z M 87 21 L 90 21 L 93 21 L 93 24 L 96 24 L 99 24 L 99 27 L 102 27 L 105 27 L 105 30 L 102 30 L 99 30 L 99 27 L 96 27 L 93 27 L 93 24 L 90 24 L 87 24 L 87 21 z M 78 30 L 81 30 L 84 30 L 84 33 L 87 33 L 90 33 L 90 36 L 93 36 L 96 36 L 96 39 L 93 39 L 90 39 L 90 36 L 87 36 L 84 36 L 84 33 L 81 33 L 78 33 L 78 30 z M 72 39 L 75 39 L 78 39 L 78 42 L 81 42 L 84 42 L 84 45 L 87 45 L 90 45 L 90 48 L 87 48 L 84 48 L 84 45 L 81 45 L 78 45 L 78 42 L 75 42 L 72 42 L 72 39 z M 66 48 L 69 48 L 72 48 L 72 51 L 75 51 L 78 51 L 78 54 L 81 54 L 84 54 L 84 57 L 81 57 L 78 57 L 78 54 L 75 54 L 72 54 L 72 51 L 69 51 L 66 51 L 66 48 z M 18 72 L 18 75 L 21 75 L 24 75 L 24 72 L 21 72 L 18 72 z M 24 75 L 24 78 L 27 78 L 30 78 L 30 75 L 27 75 L 24 75 z M 30 78 L 30 81 L 33 81 L 36 81 L 36 78 L 33 78 L 30 78 z M 36 81 L 36 84 L 39 84 L 42 84 L 42 81 L 39 81 L 36 81 z M 42 84 L 42 87 L 45 87 L 48 87 L 48 84 L 45 84 L 42 84 z M 48 87 L 48 90 L 51 90 L 54 90 L 54 87 L 51 87 L 48 87 z M 54 90 L 54 93 L 57 93 L 60 93 L 60 90 L 57 90 L 54 90 z M 108 105 L 108 108 L 105 108 L 105 111 L 108 111 L 108 114 L 111 114 L 111 117 L 114 117 L 114 120 L 111 120 L 111 123 L 108 123 L 108 126 L 105 126 L 105 129 L 108 129 L 108 132 L 111 132 L 111 129 L 114 129 L 114 126 L 117 126 L 117 123 L 120 123 L 120 126 L 123 126 L 123 129 L 126 129 L 126 132 L 129 132 L 129 129 L 132 129 L 132 126 L 129 126 L 129 123 L 126 123 L 126 120 L 123 120 L 123 117 L 126 117 L 126 114 L 129 114 L 129 111 L 132 111 L 132 108 L 129 108 L 129 105 L 126 105 L 126 108 L 123 108 L 123 111 L 120 111 L 120 114 L 117 114 L 117 111 L 114 111 L 114 108 L 111 108 L 111 105 L 108 105 z "
     id="rect2730" />
  <path
     style="fill:#c0c0c0"
     d="M 114 27 L 114 30 L 117 30 L 117 27 L 114 27 z M 114 30 L 111 30 L 111 33 L 114 33 L 114 30 z M 111 33 L 108 33 L 108 36 L 111 36 L 111 33 z M 108 36 L 105 36 L 105 39 L 108 39 L 108 36 z M 105 39 L 102 39 L 102 42 L 105 42 L 105 39 z M 102 42 L 99 42 L 99 45 L 102 45 L 102 42 z M 54 42 L 54 45 L 51 45 L 48 45 L 48 48 L 45 48 L 42 48 L 42 51 L 39 51 L 36 51 L 36 54 L 33 54 L 30 54 L 30 57 L 27 57 L 24 57 L 24 60 L 21 60 L 18 60 L 18 63 L 15 63 L 12 63 L 12 66 L 9 66 L 9 69 L 12 69 L 15 69 L 18 69 L 21 69 L 21 66 L 24 66 L 27 66 L 27 63 L 30 63 L 33 63 L 33 60 L 36 60 L 39 60 L 39 57 L 42 57 L 45 57 L 45 54 L 48 54 L 51 54 L 51 51 L 54 51 L 54 48 L 57 48 L 57 45 L 57 42 L 54 42 z M 51 54 L 51 57 L 48 57 L 45 57 L 45 60 L 42 60 L 42 63 L 45 63 L 48 63 L 48 66 L 51 66 L 54 66 L 54 69 L 57 69 L 60 69 L 60 72 L 63 72 L 66 72 L 66 75 L 69 75 L 72 75 L 72 78 L 75 78 L 78 78 L 78 75 L 81 75 L 84 75 L 84 72 L 84 69 L 81 69 L 78 69 L 78 66 L 75 66 L 72 66 L 72 63 L 69 63 L 66 63 L 66 60 L 63 60 L 60 60 L 60 57 L 57 57 L 54 57 L 54 54 L 51 54 z M 84 75 L 84 78 L 87 78 L 90 78 L 90 75 L 87 75 L 84 75 z M 90 75 L 93 75 L 96 75 L 96 72 L 93 72 L 90 72 L 90 75 z M 90 72 L 90 69 L 90 66 L 87 66 L 87 69 L 87 72 L 90 72 z M 96 72 L 99 72 L 102 72 L 102 69 L 99 69 L 96 69 L 96 72 z M 96 69 L 96 66 L 93 66 L 93 69 L 96 69 z M 96 66 L 99 66 L 102 66 L 102 63 L 105 63 L 108 63 L 108 60 L 111 60 L 114 60 L 114 57 L 117 57 L 120 57 L 120 54 L 117 54 L 114 54 L 114 51 L 111 51 L 108 51 L 108 48 L 105 48 L 102 48 L 102 51 L 102 54 L 99 54 L 99 57 L 99 60 L 96 60 L 96 63 L 96 66 z M 120 57 L 120 60 L 123 60 L 126 60 L 126 57 L 123 57 L 120 57 z M 120 60 L 117 60 L 114 60 L 114 63 L 117 63 L 120 63 L 120 60 z M 114 63 L 111 63 L 108 63 L 108 66 L 111 66 L 114 66 L 114 63 z M 108 66 L 105 66 L 102 66 L 102 69 L 105 69 L 108 69 L 108 66 z M 84 78 L 81 78 L 78 78 L 78 81 L 81 81 L 84 81 L 84 78 z M 78 81 L 75 81 L 72 81 L 72 84 L 75 84 L 78 84 L 78 81 z M 72 84 L 69 84 L 66 84 L 66 87 L 69 87 L 72 87 L 72 84 z M 66 87 L 63 87 L 60 87 L 60 90 L 63 90 L 66 90 L 66 87 z M 60 87 L 60 84 L 63 84 L 66 84 L 66 81 L 69 81 L 72 81 L 72 78 L 69 78 L 66 78 L 66 75 L 63 75 L 60 75 L 60 72 L 57 72 L 54 72 L 54 69 L 51 69 L 48 69 L 48 66 L 45 66 L 42 66 L 42 63 L 39 63 L 36 63 L 33 63 L 33 66 L 30 66 L 27 66 L 27 69 L 24 69 L 21 69 L 21 72 L 24 72 L 24 75 L 27 75 L 30 75 L 30 72 L 33 72 L 36 72 L 39 72 L 39 75 L 36 75 L 33 75 L 30 75 L 30 78 L 33 78 L 36 78 L 36 81 L 39 81 L 42 81 L 42 84 L 45 84 L 48 84 L 48 87 L 51 87 L 54 87 L 57 87 L 60 87 z M 48 87 L 45 87 L 42 87 L 42 84 L 39 84 L 36 84 L 36 81 L 33 81 L 30 81 L 30 78 L 27 78 L 24 78 L 24 75 L 21 75 L 18 75 L 18 72 L 15 72 L 15 75 L 15 78 L 15 81 L 15 84 L 15 87 L 15 90 L 15 93 L 15 96 L 15 99 L 15 102 L 18 102 L 21 102 L 21 105 L 24 105 L 27 105 L 27 108 L 30 108 L 33 108 L 33 111 L 36 111 L 39 111 L 39 114 L 42 114 L 45 114 L 45 117 L 48 117 L 51 117 L 51 114 L 51 111 L 51 108 L 51 105 L 51 102 L 51 99 L 51 96 L 51 93 L 51 90 L 48 90 L 48 87 z M 45 117 L 42 117 L 39 117 L 39 114 L 36 114 L 33 114 L 33 111 L 30 111 L 27 111 L 27 108 L 24 108 L 21 108 L 21 105 L 18 105 L 15 105 L 15 102 L 12 102 L 9 102 L 9 105 L 9 108 L 9 111 L 9 114 L 12 114 L 15 114 L 15 117 L 18 117 L 21 117 L 21 120 L 24 120 L 27 120 L 27 123 L 30 123 L 33 123 L 33 126 L 36 126 L 39 126 L 39 129 L 42 129 L 45 129 L 45 132 L 48 132 L 51 132 L 51 135 L 54 135 L 57 135 L 57 138 L 60 138 L 60 135 L 60 132 L 60 129 L 60 126 L 57 126 L 57 123 L 54 123 L 51 123 L 51 120 L 48 120 L 45 120 L 45 117 z M 57 123 L 60 123 L 60 120 L 60 117 L 60 114 L 60 111 L 60 108 L 60 105 L 60 102 L 60 99 L 60 96 L 60 93 L 57 93 L 54 93 L 54 96 L 54 99 L 54 102 L 54 105 L 54 108 L 54 111 L 54 114 L 54 117 L 54 120 L 57 120 L 57 123 z M 9 69 L 6 69 L 6 72 L 6 75 L 6 78 L 6 81 L 6 84 L 6 87 L 6 90 L 6 93 L 6 96 L 9 96 L 9 99 L 12 99 L 12 96 L 12 93 L 12 90 L 12 87 L 12 84 L 12 81 L 12 78 L 12 75 L 12 72 L 9 72 L 9 69 z M 96 48 L 96 51 L 99 51 L 99 48 L 96 48 z M 93 54 L 93 57 L 96 57 L 96 54 L 93 54 z M 90 60 L 90 63 L 93 63 L 93 60 L 90 60 z M 129 72 L 129 75 L 129 78 L 129 81 L 129 84 L 129 87 L 132 87 L 132 84 L 135 84 L 135 81 L 138 81 L 138 78 L 141 78 L 141 75 L 138 75 L 135 75 L 135 72 L 132 72 L 129 72 z M 42 75 L 45 75 L 48 75 L 51 75 L 51 78 L 48 78 L 45 78 L 42 78 L 42 75 z "
     id="rect2792" />
  <path
     style="fill:#ff0000"
     d="M 42 75 L 42 78 L 45 78 L 48 78 L 48 75 L 45 75 L 42 75 z M 111 99 L 111 102 L 108 102 L 105 102 L 105 105 L 102 105 L 102 108 L 102 111 L 99 111 L 99 114 L 99 117 L 99 120 L 99 123 L 99 126 L 102 126 L 102 129 L 102 132 L 105 132 L 105 135 L 108 135 L 111 135 L 111 138 L 114 138 L 117 138 L 120 138 L 123 138 L 126 138 L 126 135 L 129 135 L 132 135 L 132 132 L 135 132 L 135 129 L 135 126 L 138 126 L 138 123 L 138 120 L 138 117 L 138 114 L 138 111 L 135 111 L 135 108 L 135 105 L 132 105 L 132 102 L 129 102 L 126 102 L 126 99 L 123 99 L 120 99 L 117 99 L 114 99 L 111 99 z M 108 105 L 111 105 L 111 108 L 114 108 L 114 111 L 117 111 L 117 114 L 120 114 L 120 111 L 123 111 L 123 108 L 126 108 L 126 105 L 129 105 L 129 108 L 132 108 L 132 111 L 129 111 L 129 114 L 126 114 L 126 117 L 123 117 L 123 120 L 126 120 L 126 123 L 129 123 L 129 126 L 132 126 L 132 129 L 129 129 L 129 132 L 126 132 L 126 129 L 123 129 L 123 126 L 120 126 L 120 123 L 117 123 L 117 126 L 114 126 L 114 129 L 111 129 L 111 132 L 108 132 L 108 129 L 105 129 L 105 126 L 108 126 L 108 123 L 111 123 L 111 120 L 114 120 L 114 117 L 111 117 L 111 114 L 108 114 L 108 111 L 105 111 L 105 108 L 108 108 L 108 105 z "
     id="rect2814" />
  <path
     style="fill:#000000"
     d="M 117 27 L 117 30 L 120 30 L 123 30 L 126 30 L 126 27 L 123 27 L 120 27 L 117 27 z M 117 30 L 114 30 L 114 33 L 117 33 L 117 30 z M 114 33 L 111 33 L 111 36 L 114 36 L 114 33 z M 111 36 L 108 36 L 108 39 L 111 39 L 111 36 z M 108 39 L 105 39 L 105 42 L 108 42 L 108 39 z M 105 42 L 102 42 L 102 45 L 105 45 L 105 42 z M 102 45 L 99 45 L 99 48 L 99 51 L 102 51 L 102 48 L 102 45 z M 99 51 L 96 51 L 96 54 L 96 57 L 99 57 L 99 54 L 99 51 z M 96 57 L 93 57 L 93 60 L 93 63 L 96 63 L 96 60 L 96 57 z M 93 63 L 90 63 L 90 66 L 90 69 L 93 69 L 93 66 L 93 63 z M 54 54 L 54 57 L 57 57 L 60 57 L 60 54 L 57 54 L 54 54 z M 60 57 L 60 60 L 63 60 L 66 60 L 66 57 L 63 57 L 60 57 z M 66 60 L 66 63 L 69 63 L 72 63 L 72 60 L 69 60 L 66 60 z M 72 63 L 72 66 L 75 66 L 78 66 L 78 63 L 75 63 L 72 63 z M 78 66 L 78 69 L 81 69 L 84 69 L 84 66 L 81 66 L 78 66 z M 84 69 L 84 72 L 87 72 L 87 69 L 84 69 z M 126 57 L 126 60 L 126 63 L 126 66 L 126 69 L 126 72 L 126 75 L 126 78 L 126 81 L 126 84 L 126 87 L 126 90 L 126 93 L 123 93 L 120 93 L 120 96 L 123 96 L 126 96 L 129 96 L 129 93 L 132 93 L 132 90 L 129 90 L 129 87 L 129 84 L 129 81 L 129 78 L 129 75 L 129 72 L 129 69 L 129 66 L 129 63 L 129 60 L 129 57 L 126 57 z M 132 90 L 135 90 L 135 87 L 132 87 L 132 90 z M 135 87 L 138 87 L 138 84 L 135 84 L 135 87 z M 138 84 L 141 84 L 141 81 L 138 81 L 138 84 z M 141 81 L 144 81 L 144 78 L 141 78 L 141 81 z M 96 105 L 96 108 L 99 108 L 99 105 L 96 105 z M 96 108 L 93 108 L 90 108 L 90 111 L 93 111 L 96 111 L 96 108 z M 90 111 L 87 111 L 84 111 L 84 114 L 87 114 L 90 114 L 90 111 z M 84 114 L 81 114 L 78 114 L 78 117 L 81 117 L 84 117 L 84 114 z M 78 117 L 75 117 L 72 117 L 72 120 L 75 120 L 78 120 L 78 117 z M 72 120 L 69 120 L 66 120 L 66 123 L 69 123 L 72 123 L 72 120 z M 66 123 L 63 123 L 60 123 L 60 126 L 63 126 L 66 126 L 66 123 z M 6 111 L 6 114 L 9 114 L 9 111 L 6 111 z M 9 114 L 9 117 L 12 117 L 15 117 L 15 114 L 12 114 L 9 114 z M 15 117 L 15 120 L 18 120 L 21 120 L 21 117 L 18 117 L 15 117 z M 21 120 L 21 123 L 24 123 L 27 123 L 27 120 L 24 120 L 21 120 z M 27 123 L 27 126 L 30 126 L 33 126 L 33 123 L 30 123 L 27 123 z M 33 126 L 33 129 L 36 129 L 39 129 L 39 126 L 36 126 L 33 126 z M 39 129 L 39 132 L 42 132 L 45 132 L 45 129 L 42 129 L 39 129 z M 45 132 L 45 135 L 48 135 L 51 135 L 51 132 L 48 132 L 45 132 z M 51 135 L 51 138 L 54 138 L 57 138 L 57 135 L 54 135 L 51 135 z M 57 138 L 57 141 L 60 141 L 63 141 L 66 141 L 66 138 L 63 138 L 60 138 L 57 138 z M 66 138 L 69 138 L 72 138 L 72 135 L 69 135 L 66 135 L 66 138 z M 72 135 L 75 135 L 78 135 L 78 132 L 75 132 L 72 132 L 72 135 z M 78 132 L 81 132 L 84 132 L 84 129 L 81 129 L 78 129 L 78 132 z M 84 129 L 87 129 L 90 129 L 90 126 L 87 126 L 84 126 L 84 129 z M 90 126 L 93 126 L 96 126 L 96 123 L 93 123 L 90 123 L 90 126 z "
     id="rect2828" />
  <path
     style="fill:#800000"
     d="M 48 75 L 48 78 L 51 78 L 51 75 L 48 75 z M 111 96 L 111 99 L 114 99 L 117 99 L 120 99 L 123 99 L 126 99 L 126 96 L 123 96 L 120 96 L 117 96 L 114 96 L 111 96 z M 126 99 L 126 102 L 129 102 L 132 102 L 132 99 L 129 99 L 126 99 z M 132 102 L 132 105 L 135 105 L 135 102 L 132 102 z M 135 105 L 135 108 L 135 111 L 138 111 L 138 108 L 138 105 L 135 105 z M 138 111 L 138 114 L 138 117 L 138 120 L 138 123 L 138 126 L 141 126 L 141 123 L 141 120 L 141 117 L 141 114 L 141 111 L 138 111 z M 138 126 L 135 126 L 135 129 L 135 132 L 138 132 L 138 129 L 138 126 z M 135 132 L 132 132 L 132 135 L 135 135 L 135 132 z M 132 135 L 129 135 L 126 135 L 126 138 L 129 138 L 132 138 L 132 135 z M 126 138 L 123 138 L 120 138 L 117 138 L 114 138 L 111 138 L 111 141 L 114 141 L 117 141 L 120 141 L 123 141 L 126 141 L 126 138 z M 111 138 L 111 135 L 108 135 L 105 135 L 105 138 L 108 138 L 111 138 z M 105 135 L 105 132 L 102 132 L 102 135 L 105 135 z M 102 132 L 102 129 L 102 126 L 99 126 L 99 129 L 99 132 L 102 132 z M 99 126 L 99 123 L 99 120 L 99 117 L 99 114 L 99 111 L 96 111 L 96 114 L 96 117 L 96 120 L 96 123 L 96 126 L 99 126 z M 99 111 L 102 111 L 102 108 L 102 105 L 99 105 L 99 108 L 99 111 z M 102 105 L 105 105 L 105 102 L 102 102 L 102 105 z M 105 102 L 108 102 L 111 102 L 111 99 L 108 99 L 105 99 L 105 102 z "
     id="rect2840" />
  <path
     style="fill:#808080"
     d="M 87 9 L 87 12 L 90 12 L 93 12 L 96 12 L 96 9 L 93 9 L 90 9 L 87 9 z M 96 12 L 96 15 L 99 15 L 102 15 L 102 12 L 99 12 L 96 12 z M 102 15 L 102 18 L 105 18 L 108 18 L 108 15 L 105 15 L 102 15 z M 108 18 L 108 21 L 111 21 L 114 21 L 114 18 L 111 18 L 108 18 z M 114 21 L 114 24 L 117 24 L 120 24 L 120 21 L 117 21 L 114 21 z M 120 24 L 120 27 L 123 27 L 126 27 L 126 24 L 123 24 L 120 24 z M 87 12 L 84 12 L 84 15 L 87 15 L 87 12 z M 84 15 L 81 15 L 81 18 L 84 18 L 84 15 z M 81 18 L 78 18 L 78 21 L 81 21 L 81 18 z M 78 21 L 75 21 L 75 24 L 78 24 L 78 21 z M 75 24 L 72 24 L 72 27 L 75 27 L 75 24 z M 72 27 L 69 27 L 69 30 L 72 30 L 72 27 z M 69 30 L 66 30 L 66 33 L 69 33 L 69 30 z M 66 33 L 63 33 L 60 33 L 60 36 L 63 36 L 63 39 L 66 39 L 66 36 L 66 33 z M 63 39 L 60 39 L 60 42 L 63 42 L 63 39 z M 60 42 L 57 42 L 57 45 L 57 48 L 60 48 L 60 45 L 60 42 z M 57 48 L 54 48 L 54 51 L 51 51 L 51 54 L 54 54 L 57 54 L 57 51 L 57 48 z M 51 54 L 48 54 L 45 54 L 45 57 L 48 57 L 51 57 L 51 54 z M 45 57 L 42 57 L 39 57 L 39 60 L 36 60 L 33 60 L 33 63 L 36 63 L 39 63 L 42 63 L 42 60 L 45 60 L 45 57 z M 42 63 L 42 66 L 45 66 L 48 66 L 48 63 L 45 63 L 42 63 z M 48 66 L 48 69 L 51 69 L 54 69 L 54 66 L 51 66 L 48 66 z M 54 69 L 54 72 L 57 72 L 60 72 L 60 69 L 57 69 L 54 69 z M 60 72 L 60 75 L 63 75 L 66 75 L 66 72 L 63 72 L 60 72 z M 66 75 L 66 78 L 69 78 L 72 78 L 72 75 L 69 75 L 66 75 z M 72 78 L 72 81 L 75 81 L 78 81 L 78 78 L 75 78 L 72 78 z M 78 78 L 81 78 L 84 78 L 84 75 L 81 75 L 78 75 L 78 78 z M 84 75 L 87 75 L 90 75 L 90 72 L 87 72 L 84 72 L 84 75 z M 90 72 L 93 72 L 96 72 L 96 69 L 93 69 L 90 69 L 90 72 z M 96 69 L 99 69 L 102 69 L 102 66 L 99 66 L 96 66 L 96 69 z M 96 66 L 96 63 L 93 63 L 93 66 L 96 66 z M 102 66 L 105 66 L 108 66 L 108 63 L 105 63 L 102 63 L 102 66 z M 108 63 L 111 63 L 114 63 L 114 60 L 111 60 L 108 60 L 108 63 z M 114 60 L 117 60 L 120 60 L 120 57 L 117 57 L 114 57 L 114 60 z M 120 57 L 123 57 L 126 57 L 126 54 L 123 54 L 120 54 L 120 57 z M 120 54 L 120 51 L 117 51 L 114 51 L 114 54 L 117 54 L 120 54 z M 114 51 L 114 48 L 111 48 L 108 48 L 108 51 L 111 51 L 114 51 z M 108 48 L 108 45 L 105 45 L 102 45 L 102 48 L 105 48 L 108 48 z M 120 60 L 120 63 L 117 63 L 114 63 L 114 66 L 111 66 L 108 66 L 108 69 L 105 69 L 102 69 L 102 72 L 99 72 L 96 72 L 96 75 L 93 75 L 90 75 L 90 78 L 87 78 L 84 78 L 84 81 L 81 81 L 78 81 L 78 84 L 75 84 L 72 84 L 72 87 L 69 87 L 66 87 L 66 90 L 63 90 L 60 90 L 60 93 L 60 96 L 60 99 L 60 102 L 60 105 L 60 108 L 60 111 L 60 114 L 60 117 L 60 120 L 60 123 L 63 123 L 66 123 L 66 120 L 69 120 L 72 120 L 72 117 L 75 117 L 78 117 L 78 114 L 81 114 L 84 114 L 84 111 L 87 111 L 90 111 L 90 108 L 93 108 L 96 108 L 96 105 L 99 105 L 102 105 L 102 102 L 105 102 L 105 99 L 108 99 L 111 99 L 111 96 L 114 96 L 117 96 L 120 96 L 120 93 L 123 93 L 126 93 L 126 90 L 126 87 L 126 84 L 126 81 L 126 78 L 126 75 L 126 72 L 126 69 L 126 66 L 126 63 L 126 60 L 123 60 L 120 60 z M 96 108 L 96 111 L 99 111 L 99 108 L 96 108 z M 96 111 L 93 111 L 90 111 L 90 114 L 87 114 L 84 114 L 84 117 L 81 117 L 78 117 L 78 120 L 75 120 L 72 120 L 72 123 L 69 123 L 66 123 L 66 126 L 63 126 L 60 126 L 60 129 L 60 132 L 60 135 L 60 138 L 63 138 L 66 138 L 66 135 L 69 135 L 72 135 L 72 132 L 75 132 L 78 132 L 78 129 L 81 129 L 84 129 L 84 126 L 87 126 L 90 126 L 90 123 L 93 123 L 96 123 L 96 120 L 96 117 L 96 114 L 96 111 z M 60 126 L 60 123 L 57 123 L 57 126 L 60 126 z M 57 123 L 57 120 L 54 120 L 54 117 L 54 114 L 54 111 L 54 108 L 54 105 L 54 102 L 54 99 L 54 96 L 54 93 L 54 90 L 51 90 L 51 93 L 51 96 L 51 99 L 51 102 L 51 105 L 51 108 L 51 111 L 51 114 L 51 117 L 48 117 L 45 117 L 45 120 L 48 120 L 51 120 L 51 123 L 54 123 L 57 123 z M 45 117 L 45 114 L 42 114 L 39 114 L 39 117 L 42 117 L 45 117 z M 39 114 L 39 111 L 36 111 L 33 111 L 33 114 L 36 114 L 39 114 z M 33 111 L 33 108 L 30 108 L 27 108 L 27 111 L 30 111 L 33 111 z M 27 108 L 27 105 L 24 105 L 21 105 L 21 108 L 24 108 L 27 108 z M 21 105 L 21 102 L 18 102 L 15 102 L 15 105 L 18 105 L 21 105 z M 15 102 L 15 99 L 15 96 L 15 93 L 15 90 L 15 87 L 15 84 L 15 81 L 15 78 L 15 75 L 15 72 L 12 72 L 12 75 L 12 78 L 12 81 L 12 84 L 12 87 L 12 90 L 12 93 L 12 96 L 12 99 L 9 99 L 9 96 L 6 96 L 3 96 L 3 93 L 3 90 L 3 87 L 3 84 L 3 81 L 3 78 L 3 75 L 3 72 L 3 69 L 3 66 L 6 66 L 6 63 L 3 63 L 0 63 L 0 66 L 0 69 L 0 72 L 0 75 L 0 78 L 0 81 L 0 84 L 0 87 L 0 90 L 0 93 L 0 96 L 0 99 L 3 99 L 6 99 L 6 102 L 6 105 L 6 108 L 6 111 L 9 111 L 9 108 L 9 105 L 9 102 L 12 102 L 15 102 z M 6 63 L 9 63 L 12 63 L 12 60 L 9 60 L 6 60 L 6 63 z M 12 60 L 15 60 L 18 60 L 18 57 L 15 57 L 12 57 L 12 60 z M 18 57 L 21 57 L 24 57 L 24 54 L 21 54 L 18 54 L 18 57 z M 24 54 L 27 54 L 30 54 L 30 51 L 27 51 L 24 51 L 24 54 z M 30 51 L 33 51 L 36 51 L 36 48 L 33 48 L 30 48 L 30 51 z M 36 48 L 39 48 L 42 48 L 42 45 L 39 45 L 36 45 L 36 48 z M 42 45 L 45 45 L 48 45 L 48 42 L 45 42 L 42 42 L 42 45 z M 48 42 L 51 42 L 54 42 L 54 39 L 51 39 L 48 39 L 48 42 z M 54 39 L 57 39 L 60 39 L 60 36 L 57 36 L 54 36 L 54 39 z M 15 72 L 18 72 L 21 72 L 21 69 L 18 69 L 15 69 L 15 72 z M 21 69 L 24 69 L 27 69 L 27 66 L 24 66 L 21 66 L 21 69 z M 27 66 L 30 66 L 33 66 L 33 63 L 30 63 L 27 63 L 27 66 z M 54 90 L 57 90 L 60 90 L 60 87 L 57 87 L 54 87 L 54 90 z M 60 87 L 63 87 L 66 87 L 66 84 L 63 84 L 60 84 L 60 87 z M 66 84 L 69 84 L 72 84 L 72 81 L 69 81 L 66 81 L 66 84 z M 99 51 L 99 54 L 102 54 L 102 51 L 99 51 z M 96 57 L 96 60 L 99 60 L 99 57 L 96 57 z M 129 69 L 129 72 L 132 72 L 135 72 L 135 69 L 132 69 L 129 69 z M 135 72 L 135 75 L 138 75 L 141 75 L 141 72 L 138 72 L 135 72 z M 141 75 L 141 78 L 144 78 L 144 75 L 141 75 z M 141 78 L 138 78 L 138 81 L 141 81 L 141 78 z M 138 81 L 135 81 L 135 84 L 138 84 L 138 81 z M 135 84 L 132 84 L 132 87 L 135 87 L 135 84 z M 132 87 L 129 87 L 129 90 L 132 90 L 132 87 z M 138 108 L 138 111 L 141 111 L 141 108 L 138 108 z M 141 114 L 141 117 L 141 120 L 141 123 L 141 126 L 138 126 L 138 129 L 138 132 L 135 132 L 135 135 L 132 135 L 132 138 L 129 138 L 126 138 L 126 141 L 123 141 L 120 141 L 117 141 L 114 141 L 114 144 L 117 144 L 120 144 L 123 144 L 126 144 L 129 144 L 129 141 L 132 141 L 135 141 L 135 138 L 138 138 L 138 135 L 141 135 L 141 132 L 141 129 L 144 129 L 144 126 L 144 123 L 144 120 L 144 117 L 144 114 L 141 114 z M 108 138 L 108 141 L 111 141 L 111 138 L 108 138 z "
     id="rect2856" />
</svg>
