<?xml version="1.0" encoding="UTF-8" standalone="no"?>
<svg
   xmlns:dc="http://purl.org/dc/elements/1.1/"
   xmlns:cc="http://creativecommons.org/ns#"
   xmlns:rdf="http://www.w3.org/1999/02/22-rdf-syntax-ns#"
   xmlns:svg="http://www.w3.org/2000/svg"
   xmlns="http://www.w3.org/2000/svg"
   height="960px"
   version="1.1"
   width="960px"
   id="svg3784">
  <metadata
     id="metadata3788">
    <rdf:RDF>
      <cc:Work
         rdf:about="">
        <dc:format>image/svg+xml</dc:format>
        <dc:type
           rdf:resource="http://purl.org/dc/dcmitype/StillImage" />
      </cc:Work>
    </rdf:RDF>
  </metadata>
  <defs
     id="defs2" />
  <path
     id="rect536"
     d="M 140 20 L 140 40 L 160 40 L 160 20 L 140 20 z M 160 40 L 160 60 L 180 60 L 180 40 L 160 40 z M 180 40 L 200 40 L 200 20 L 180 20 L 180 40 z M 200 40 L 200 60 L 220 60 L 220 40 L 200 40 z M 220 40 L 240 40 L 240 20 L 220 20 L 220 40 z M 240 40 L 240 60 L 260 60 L 260 40 L 240 40 z M 260 40 L 280 40 L 280 20 L 260 20 L 260 40 z M 280 40 L 280 60 L 300 60 L 300 40 L 280 40 z M 300 40 L 320 40 L 320 20 L 300 20 L 300 40 z M 320 40 L 320 60 L 340 60 L 340 40 L 320 40 z M 340 40 L 360 40 L 360 20 L 340 20 L 340 40 z M 360 40 L 360 60 L 380 60 L 380 40 L 360 40 z M 380 40 L 400 40 L 400 20 L 380 20 L 380 40 z M 400 40 L 400 60 L 420 60 L 420 40 L 400 40 z M 420 40 L 440 40 L 440 20 L 420 20 L 420 40 z M 440 40 L 440 60 L 460 60 L 460 40 L 440 40 z M 460 40 L 480 40 L 480 20 L 460 20 L 460 40 z M 480 40 L 480 60 L 500 60 L 500 40 L 480 40 z M 500 40 L 520 40 L 520 20 L 500 20 L 500 40 z M 520 40 L 520 60 L 540 60 L 540 40 L 520 40 z M 540 40 L 560 40 L 560 20 L 540 20 L 540 40 z M 560 40 L 560 60 L 580 60 L 580 40 L 560 40 z M 580 40 L 600 40 L 600 20 L 580 20 L 580 40 z M 600 40 L 600 60 L 620 60 L 620 40 L 600 40 z M 620 40 L 640 40 L 640 20 L 620 20 L 620 40 z M 640 40 L 640 60 L 660 60 L 660 40 L 640 40 z M 660 40 L 680 40 L 680 20 L 660 20 L 660 40 z M 680 40 L 680 60 L 700 60 L 700 40 L 680 40 z M 700 40 L 720 40 L 720 20 L 700 20 L 700 40 z M 720 40 L 720 60 L 740 60 L 740 40 L 720 40 z M 740 40 L 760 40 L 760 20 L 740 20 L 740 40 z M 760 40 L 760 60 L 780 60 L 780 40 L 760 40 z M 780 40 L 800 40 L 800 20 L 780 20 L 780 40 z M 800 40 L 800 60 L 820 60 L 820 40 L 800 40 z M 820 40 L 840 40 L 840 20 L 820 20 L 820 40 z M 140 40 L 120 40 L 120 60 L 140 60 L 140 40 z M 120 80 L 120 100 L 140 100 L 140 80 L 120 80 z M 140 100 L 140 120 L 160 120 L 160 100 L 140 100 z M 160 100 L 180 100 L 180 80 L 160 80 L 160 100 z M 180 100 L 180 120 L 200 120 L 200 100 L 180 100 z M 200 100 L 220 100 L 220 80 L 200 80 L 200 100 z M 220 100 L 220 120 L 240 120 L 240 100 L 220 100 z M 240 100 L 260 100 L 260 80 L 240 80 L 240 100 z M 260 100 L 260 120 L 280 120 L 280 100 L 260 100 z M 280 100 L 300 100 L 300 80 L 280 80 L 280 100 z M 300 100 L 300 120 L 320 120 L 320 100 L 300 100 z M 320 100 L 340 100 L 340 80 L 320 80 L 320 100 z M 340 100 L 340 120 L 360 120 L 360 100 L 340 100 z M 360 100 L 380 100 L 380 80 L 360 80 L 360 100 z M 380 100 L 380 120 L 400 120 L 400 100 L 380 100 z M 400 100 L 420 100 L 420 80 L 400 80 L 400 100 z M 420 100 L 420 120 L 440 120 L 440 100 L 420 100 z M 440 100 L 460 100 L 460 80 L 440 80 L 440 100 z M 460 100 L 460 120 L 480 120 L 480 100 L 460 100 z M 480 100 L 500 100 L 500 80 L 480 80 L 480 100 z M 500 100 L 500 120 L 520 120 L 520 100 L 500 100 z M 520 100 L 540 100 L 540 80 L 520 80 L 520 100 z M 540 100 L 540 120 L 560 120 L 560 100 L 540 100 z M 560 100 L 580 100 L 580 80 L 560 80 L 560 100 z M 580 100 L 580 120 L 600 120 L 600 100 L 580 100 z M 600 100 L 620 100 L 620 80 L 600 80 L 600 100 z M 620 100 L 620 120 L 640 120 L 640 100 L 620 100 z M 640 100 L 660 100 L 660 80 L 640 80 L 640 100 z M 660 100 L 660 120 L 680 120 L 680 100 L 660 100 z M 680 100 L 700 100 L 700 80 L 680 80 L 680 100 z M 700 100 L 700 120 L 720 120 L 720 100 L 700 100 z M 720 100 L 740 100 L 740 80 L 720 80 L 720 100 z M 740 100 L 740 120 L 760 120 L 760 100 L 740 100 z M 760 100 L 780 100 L 780 80 L 760 80 L 760 100 z M 760 120 L 760 140 L 780 140 L 780 120 L 760 120 z M 740 120 L 720 120 L 720 140 L 740 140 L 740 120 z M 700 120 L 680 120 L 680 140 L 700 140 L 700 120 z M 660 120 L 640 120 L 640 140 L 660 140 L 660 120 z M 620 120 L 600 120 L 600 140 L 620 140 L 620 120 z M 580 120 L 560 120 L 560 140 L 580 140 L 580 120 z M 540 120 L 520 120 L 520 140 L 540 140 L 540 120 z M 500 120 L 480 120 L 480 140 L 500 140 L 500 120 z M 460 120 L 440 120 L 440 140 L 460 140 L 460 120 z M 420 120 L 400 120 L 400 140 L 420 140 L 420 120 z M 380 120 L 360 120 L 360 140 L 380 140 L 380 120 z M 340 120 L 320 120 L 320 140 L 340 140 L 340 120 z M 300 120 L 280 120 L 280 140 L 300 140 L 300 120 z M 260 120 L 240 120 L 240 140 L 260 140 L 260 120 z M 220 120 L 200 120 L 200 140 L 220 140 L 220 120 z M 180 120 L 160 120 L 160 140 L 180 140 L 180 120 z M 140 120 L 120 120 L 120 140 L 140 140 L 140 120 z "
     style="fill:#ffff00" />
  <path
     id="rect538"
     d="M 120 0 L 120 20 L 140 20 L 160 20 L 180 20 L 200 20 L 220 20 L 240 20 L 260 20 L 280 20 L 300 20 L 320 20 L 340 20 L 360 20 L 380 20 L 400 20 L 420 20 L 440 20 L 460 20 L 480 20 L 500 20 L 520 20 L 540 20 L 560 20 L 580 20 L 600 20 L 620 20 L 640 20 L 660 20 L 680 20 L 700 20 L 720 20 L 740 20 L 760 20 L 780 20 L 800 20 L 820 20 L 840 20 L 840 40 L 820 40 L 820 60 L 800 60 L 800 80 L 780 80 L 780 100 L 780 120 L 780 140 L 800 140 L 800 120 L 820 120 L 820 100 L 840 100 L 840 80 L 860 80 L 860 60 L 860 40 L 860 20 L 860 0 L 840 0 L 820 0 L 800 0 L 780 0 L 760 0 L 740 0 L 720 0 L 700 0 L 680 0 L 660 0 L 640 0 L 620 0 L 600 0 L 580 0 L 560 0 L 540 0 L 520 0 L 500 0 L 480 0 L 460 0 L 440 0 L 420 0 L 400 0 L 380 0 L 360 0 L 340 0 L 320 0 L 300 0 L 280 0 L 260 0 L 240 0 L 220 0 L 200 0 L 180 0 L 160 0 L 140 0 L 120 0 z M 120 20 L 100 20 L 100 40 L 100 60 L 100 80 L 100 100 L 100 120 L 100 140 L 120 140 L 120 120 L 120 100 L 120 80 L 120 60 L 120 40 L 120 20 z "
     style="fill:#808000" />
  <path
     id="rect3128"
     d="M 120 60 L 120 80 L 140 80 L 160 80 L 180 80 L 200 80 L 220 80 L 240 80 L 260 80 L 280 80 L 300 80 L 320 80 L 340 80 L 360 80 L 380 80 L 400 80 L 420 80 L 440 80 L 460 80 L 480 80 L 500 80 L 520 80 L 540 80 L 560 80 L 580 80 L 600 80 L 620 80 L 640 80 L 660 80 L 680 80 L 700 80 L 720 80 L 740 80 L 760 80 L 780 80 L 800 80 L 800 60 L 780 60 L 760 60 L 740 60 L 720 60 L 700 60 L 680 60 L 660 60 L 640 60 L 620 60 L 600 60 L 580 60 L 560 60 L 540 60 L 520 60 L 500 60 L 480 60 L 460 60 L 440 60 L 420 60 L 400 60 L 380 60 L 360 60 L 340 60 L 320 60 L 300 60 L 280 60 L 260 60 L 240 60 L 220 60 L 200 60 L 180 60 L 160 60 L 140 60 L 120 60 z M 120 140 L 120 160 L 120 180 L 120 200 L 120 220 L 120 240 L 120 260 L 120 280 L 120 300 L 120 320 L 120 340 L 120 360 L 120 380 L 120 400 L 120 420 L 120 440 L 120 460 L 120 480 L 120 500 L 120 520 L 120 540 L 120 560 L 120 580 L 120 600 L 120 620 L 120 640 L 120 660 L 120 680 L 100 680 L 100 700 L 100 720 L 80 720 L 80 740 L 80 760 L 80 780 L 60 780 L 60 800 L 80 800 L 100 800 L 120 800 L 140 800 L 160 800 L 180 800 L 200 800 L 220 800 L 240 800 L 260 800 L 280 800 L 300 800 L 320 800 L 340 800 L 360 800 L 380 800 L 400 800 L 420 800 L 440 800 L 460 800 L 480 800 L 500 800 L 520 800 L 540 800 L 560 800 L 580 800 L 600 800 L 620 800 L 640 800 L 660 800 L 680 800 L 700 800 L 720 800 L 720 780 L 740 780 L 740 760 L 740 740 L 740 720 L 760 720 L 760 700 L 760 680 L 760 660 L 780 660 L 780 640 L 780 620 L 780 600 L 780 580 L 780 560 L 780 540 L 780 520 L 780 500 L 780 480 L 780 460 L 780 440 L 780 420 L 780 400 L 780 380 L 780 360 L 780 340 L 780 320 L 780 300 L 780 280 L 780 260 L 780 240 L 780 220 L 780 200 L 780 180 L 780 160 L 780 140 L 760 140 L 740 140 L 720 140 L 700 140 L 680 140 L 660 140 L 640 140 L 620 140 L 600 140 L 580 140 L 560 140 L 540 140 L 520 140 L 500 140 L 480 140 L 460 140 L 440 140 L 420 140 L 400 140 L 380 140 L 360 140 L 340 140 L 320 140 L 300 140 L 280 140 L 260 140 L 240 140 L 220 140 L 200 140 L 180 140 L 160 140 L 140 140 L 120 140 z "
     style="fill:#ffffff" />
  <path
     id="rect3710"
     d="M 120 20 L 120 40 L 140 40 L 140 20 L 120 20 z M 140 40 L 140 60 L 160 60 L 160 40 L 140 40 z M 160 40 L 180 40 L 180 20 L 160 20 L 160 40 z M 180 40 L 180 60 L 200 60 L 200 40 L 180 40 z M 200 40 L 220 40 L 220 20 L 200 20 L 200 40 z M 220 40 L 220 60 L 240 60 L 240 40 L 220 40 z M 240 40 L 260 40 L 260 20 L 240 20 L 240 40 z M 260 40 L 260 60 L 280 60 L 280 40 L 260 40 z M 280 40 L 300 40 L 300 20 L 280 20 L 280 40 z M 300 40 L 300 60 L 320 60 L 320 40 L 300 40 z M 320 40 L 340 40 L 340 20 L 320 20 L 320 40 z M 340 40 L 340 60 L 360 60 L 360 40 L 340 40 z M 360 40 L 380 40 L 380 20 L 360 20 L 360 40 z M 380 40 L 380 60 L 400 60 L 400 40 L 380 40 z M 400 40 L 420 40 L 420 20 L 400 20 L 400 40 z M 420 40 L 420 60 L 440 60 L 440 40 L 420 40 z M 440 40 L 460 40 L 460 20 L 440 20 L 440 40 z M 460 40 L 460 60 L 480 60 L 480 40 L 460 40 z M 480 40 L 500 40 L 500 20 L 480 20 L 480 40 z M 500 40 L 500 60 L 520 60 L 520 40 L 500 40 z M 520 40 L 540 40 L 540 20 L 520 20 L 520 40 z M 540 40 L 540 60 L 560 60 L 560 40 L 540 40 z M 560 40 L 580 40 L 580 20 L 560 20 L 560 40 z M 580 40 L 580 60 L 600 60 L 600 40 L 580 40 z M 600 40 L 620 40 L 620 20 L 600 20 L 600 40 z M 620 40 L 620 60 L 640 60 L 640 40 L 620 40 z M 640 40 L 660 40 L 660 20 L 640 20 L 640 40 z M 660 40 L 660 60 L 680 60 L 680 40 L 660 40 z M 680 40 L 700 40 L 700 20 L 680 20 L 680 40 z M 700 40 L 700 60 L 720 60 L 720 40 L 700 40 z M 720 40 L 740 40 L 740 20 L 720 20 L 720 40 z M 740 40 L 740 60 L 760 60 L 760 40 L 740 40 z M 760 40 L 780 40 L 780 20 L 760 20 L 760 40 z M 780 40 L 780 60 L 800 60 L 800 40 L 780 40 z M 800 40 L 820 40 L 820 20 L 800 20 L 800 40 z M 140 80 L 140 100 L 160 100 L 160 80 L 140 80 z M 160 100 L 160 120 L 180 120 L 180 100 L 160 100 z M 180 100 L 200 100 L 200 80 L 180 80 L 180 100 z M 200 100 L 200 120 L 220 120 L 220 100 L 200 100 z M 220 100 L 240 100 L 240 80 L 220 80 L 220 100 z M 240 100 L 240 120 L 260 120 L 260 100 L 240 100 z M 260 100 L 280 100 L 280 80 L 260 80 L 260 100 z M 280 100 L 280 120 L 300 120 L 300 100 L 280 100 z M 300 100 L 320 100 L 320 80 L 300 80 L 300 100 z M 320 100 L 320 120 L 340 120 L 340 100 L 320 100 z M 340 100 L 360 100 L 360 80 L 340 80 L 340 100 z M 360 100 L 360 120 L 380 120 L 380 100 L 360 100 z M 380 100 L 400 100 L 400 80 L 380 80 L 380 100 z M 400 100 L 400 120 L 420 120 L 420 100 L 400 100 z M 420 100 L 440 100 L 440 80 L 420 80 L 420 100 z M 440 100 L 440 120 L 460 120 L 460 100 L 440 100 z M 460 100 L 480 100 L 480 80 L 460 80 L 460 100 z M 480 100 L 480 120 L 500 120 L 500 100 L 480 100 z M 500 100 L 520 100 L 520 80 L 500 80 L 500 100 z M 520 100 L 520 120 L 540 120 L 540 100 L 520 100 z M 540 100 L 560 100 L 560 80 L 540 80 L 540 100 z M 560 100 L 560 120 L 580 120 L 580 100 L 560 100 z M 580 100 L 600 100 L 600 80 L 580 80 L 580 100 z M 600 100 L 600 120 L 620 120 L 620 100 L 600 100 z M 620 100 L 640 100 L 640 80 L 620 80 L 620 100 z M 640 100 L 640 120 L 660 120 L 660 100 L 640 100 z M 660 100 L 680 100 L 680 80 L 660 80 L 660 100 z M 680 100 L 680 120 L 700 120 L 700 100 L 680 100 z M 700 100 L 720 100 L 720 80 L 700 80 L 700 100 z M 720 100 L 720 120 L 740 120 L 740 100 L 720 100 z M 740 100 L 760 100 L 760 80 L 740 80 L 740 100 z M 760 100 L 760 120 L 780 120 L 780 100 L 760 100 z M 760 120 L 740 120 L 740 140 L 760 140 L 760 120 z M 720 120 L 700 120 L 700 140 L 720 140 L 720 120 z M 680 120 L 660 120 L 660 140 L 680 140 L 680 120 z M 640 120 L 620 120 L 620 140 L 640 140 L 640 120 z M 600 120 L 580 120 L 580 140 L 600 140 L 600 120 z M 560 120 L 540 120 L 540 140 L 560 140 L 560 120 z M 520 120 L 500 120 L 500 140 L 520 140 L 520 120 z M 480 120 L 460 120 L 460 140 L 480 140 L 480 120 z M 440 120 L 420 120 L 420 140 L 440 140 L 440 120 z M 400 120 L 380 120 L 380 140 L 400 140 L 400 120 z M 360 120 L 340 120 L 340 140 L 360 140 L 360 120 z M 320 120 L 300 120 L 300 140 L 320 140 L 320 120 z M 280 120 L 260 120 L 260 140 L 280 140 L 280 120 z M 240 120 L 220 120 L 220 140 L 240 140 L 240 120 z M 200 120 L 180 120 L 180 140 L 200 140 L 200 120 z M 160 120 L 140 120 L 140 140 L 160 140 L 160 120 z M 140 120 L 140 100 L 120 100 L 120 120 L 140 120 z M 800 620 L 800 640 L 800 660 L 800 680 L 780 680 L 780 700 L 780 720 L 780 740 L 760 740 L 760 760 L 760 780 L 760 800 L 740 800 L 740 820 L 740 840 L 720 840 L 700 840 L 680 840 L 660 840 L 640 840 L 620 840 L 600 840 L 580 840 L 560 840 L 540 840 L 520 840 L 500 840 L 480 840 L 460 840 L 440 840 L 420 840 L 400 840 L 380 840 L 360 840 L 340 840 L 320 840 L 300 840 L 280 840 L 260 840 L 240 840 L 220 840 L 200 840 L 180 840 L 160 840 L 140 840 L 120 840 L 100 840 L 80 840 L 80 860 L 80 880 L 100 880 L 120 880 L 140 880 L 160 880 L 180 880 L 200 880 L 220 880 L 240 880 L 260 880 L 280 880 L 300 880 L 320 880 L 340 880 L 360 880 L 380 880 L 400 880 L 420 880 L 440 880 L 460 880 L 480 880 L 500 880 L 520 880 L 540 880 L 560 880 L 580 880 L 600 880 L 620 880 L 640 880 L 660 880 L 680 880 L 700 880 L 720 880 L 740 880 L 760 880 L 760 860 L 780 860 L 780 840 L 780 820 L 780 800 L 800 800 L 800 780 L 800 760 L 800 740 L 820 740 L 820 720 L 820 700 L 820 680 L 820 660 L 820 640 L 820 620 L 800 620 z M 800 800 L 800 820 L 800 840 L 800 860 L 780 860 L 780 880 L 780 900 L 760 900 L 740 900 L 720 900 L 700 900 L 680 900 L 660 900 L 640 900 L 620 900 L 600 900 L 580 900 L 560 900 L 540 900 L 520 900 L 500 900 L 480 900 L 460 900 L 440 900 L 420 900 L 400 900 L 380 900 L 360 900 L 340 900 L 320 900 L 300 900 L 280 900 L 260 900 L 240 900 L 220 900 L 200 900 L 180 900 L 160 900 L 140 900 L 140 920 L 140 940 L 160 940 L 180 940 L 200 940 L 220 940 L 240 940 L 260 940 L 280 940 L 300 940 L 320 940 L 340 940 L 360 940 L 380 940 L 400 940 L 420 940 L 440 940 L 460 940 L 480 940 L 500 940 L 520 940 L 540 940 L 560 940 L 580 940 L 600 940 L 620 940 L 640 940 L 660 940 L 680 940 L 700 940 L 720 940 L 740 940 L 760 940 L 780 940 L 800 940 L 820 940 L 820 920 L 820 900 L 820 880 L 820 860 L 820 840 L 820 820 L 820 800 L 800 800 z M 740 800 L 740 780 L 720 780 L 720 800 L 740 800 z M 720 800 L 700 800 L 680 800 L 660 800 L 640 800 L 620 800 L 600 800 L 580 800 L 560 800 L 540 800 L 520 800 L 500 800 L 480 800 L 460 800 L 440 800 L 420 800 L 400 800 L 380 800 L 360 800 L 340 800 L 320 800 L 300 800 L 280 800 L 260 800 L 240 800 L 220 800 L 200 800 L 180 800 L 160 800 L 140 800 L 120 800 L 100 800 L 80 800 L 60 800 L 40 800 L 20 800 L 20 820 L 40 820 L 60 820 L 80 820 L 100 820 L 120 820 L 140 820 L 160 820 L 180 820 L 200 820 L 220 820 L 240 820 L 260 820 L 280 820 L 300 820 L 320 820 L 340 820 L 360 820 L 380 820 L 400 820 L 420 820 L 440 820 L 460 820 L 480 820 L 500 820 L 520 820 L 540 820 L 560 820 L 580 820 L 600 820 L 620 820 L 640 820 L 660 820 L 680 820 L 700 820 L 720 820 L 720 800 z M 760 740 L 760 720 L 740 720 L 740 740 L 760 740 z M 780 680 L 780 660 L 760 660 L 760 680 L 780 680 z "
     style="fill:#c0c0c0" />
  <path
     id="rect3712"
     d="M 860 0 L 860 20 L 860 40 L 860 60 L 860 80 L 860 100 L 860 120 L 860 140 L 860 160 L 860 180 L 860 200 L 860 220 L 860 240 L 860 260 L 860 280 L 860 300 L 860 320 L 860 340 L 860 360 L 860 380 L 860 400 L 860 420 L 860 440 L 860 460 L 860 480 L 860 500 L 860 520 L 860 540 L 860 560 L 860 580 L 860 600 L 860 620 L 860 640 L 860 660 L 860 680 L 860 700 L 860 720 L 860 740 L 860 760 L 860 780 L 860 800 L 860 820 L 860 840 L 860 860 L 860 880 L 860 900 L 880 900 L 880 880 L 880 860 L 880 840 L 880 820 L 880 800 L 880 780 L 880 760 L 880 740 L 880 720 L 880 700 L 880 680 L 880 660 L 880 640 L 880 620 L 880 600 L 880 580 L 880 560 L 880 540 L 880 520 L 880 500 L 880 480 L 880 460 L 880 440 L 880 420 L 880 400 L 880 380 L 880 360 L 880 340 L 880 320 L 880 300 L 880 280 L 880 260 L 880 240 L 880 220 L 880 200 L 880 180 L 880 160 L 880 140 L 880 120 L 880 100 L 880 80 L 880 60 L 880 40 L 880 20 L 880 0 L 860 0 z M 860 900 L 840 900 L 840 920 L 860 920 L 860 900 z M 840 920 L 820 920 L 820 940 L 840 940 L 840 920 z "
     style="fill:#000000" />
  <path
     id="rect3782"
     d="M 840 80 L 840 100 L 820 100 L 820 120 L 800 120 L 800 140 L 780 140 L 780 160 L 780 180 L 780 200 L 780 220 L 780 240 L 780 260 L 780 280 L 780 300 L 780 320 L 780 340 L 780 360 L 780 380 L 780 400 L 780 420 L 780 440 L 780 460 L 780 480 L 780 500 L 780 520 L 780 540 L 780 560 L 780 580 L 780 600 L 780 620 L 780 640 L 780 660 L 780 680 L 800 680 L 800 660 L 800 640 L 800 620 L 820 620 L 820 640 L 820 660 L 820 680 L 820 700 L 820 720 L 820 740 L 800 740 L 800 760 L 800 780 L 800 800 L 820 800 L 820 820 L 820 840 L 820 860 L 820 880 L 820 900 L 820 920 L 840 920 L 840 900 L 860 900 L 860 880 L 860 860 L 860 840 L 860 820 L 860 800 L 860 780 L 860 760 L 860 740 L 860 720 L 860 700 L 860 680 L 860 660 L 860 640 L 860 620 L 860 600 L 860 580 L 860 560 L 860 540 L 860 520 L 860 500 L 860 480 L 860 460 L 860 440 L 860 420 L 860 400 L 860 380 L 860 360 L 860 340 L 860 320 L 860 300 L 860 280 L 860 260 L 860 240 L 860 220 L 860 200 L 860 180 L 860 160 L 860 140 L 860 120 L 860 100 L 860 80 L 840 80 z M 800 800 L 780 800 L 780 820 L 780 840 L 780 860 L 800 860 L 800 840 L 800 820 L 800 800 z M 780 860 L 760 860 L 760 880 L 740 880 L 720 880 L 700 880 L 680 880 L 660 880 L 640 880 L 620 880 L 600 880 L 580 880 L 560 880 L 540 880 L 520 880 L 500 880 L 480 880 L 460 880 L 440 880 L 420 880 L 400 880 L 380 880 L 360 880 L 340 880 L 320 880 L 300 880 L 280 880 L 260 880 L 240 880 L 220 880 L 200 880 L 180 880 L 160 880 L 140 880 L 120 880 L 100 880 L 80 880 L 80 860 L 80 840 L 100 840 L 120 840 L 140 840 L 160 840 L 180 840 L 200 840 L 220 840 L 240 840 L 260 840 L 280 840 L 300 840 L 320 840 L 340 840 L 360 840 L 380 840 L 400 840 L 420 840 L 440 840 L 460 840 L 480 840 L 500 840 L 520 840 L 540 840 L 560 840 L 580 840 L 600 840 L 620 840 L 640 840 L 660 840 L 680 840 L 700 840 L 720 840 L 740 840 L 740 820 L 740 800 L 720 800 L 720 820 L 700 820 L 680 820 L 660 820 L 640 820 L 620 820 L 600 820 L 580 820 L 560 820 L 540 820 L 520 820 L 500 820 L 480 820 L 460 820 L 440 820 L 420 820 L 400 820 L 380 820 L 360 820 L 340 820 L 320 820 L 300 820 L 280 820 L 260 820 L 240 820 L 220 820 L 200 820 L 180 820 L 160 820 L 140 820 L 120 820 L 100 820 L 80 820 L 60 820 L 40 820 L 20 820 L 20 800 L 0 800 L 0 820 L 0 840 L 20 840 L 40 840 L 60 840 L 60 860 L 60 880 L 60 900 L 80 900 L 100 900 L 120 900 L 120 920 L 120 940 L 120 960 L 140 960 L 160 960 L 180 960 L 200 960 L 220 960 L 240 960 L 260 960 L 280 960 L 300 960 L 320 960 L 340 960 L 360 960 L 380 960 L 400 960 L 420 960 L 440 960 L 460 960 L 480 960 L 500 960 L 520 960 L 540 960 L 560 960 L 580 960 L 600 960 L 620 960 L 640 960 L 660 960 L 680 960 L 700 960 L 720 960 L 740 960 L 760 960 L 780 960 L 800 960 L 820 960 L 820 940 L 800 940 L 780 940 L 760 940 L 740 940 L 720 940 L 700 940 L 680 940 L 660 940 L 640 940 L 620 940 L 600 940 L 580 940 L 560 940 L 540 940 L 520 940 L 500 940 L 480 940 L 460 940 L 440 940 L 420 940 L 400 940 L 380 940 L 360 940 L 340 940 L 320 940 L 300 940 L 280 940 L 260 940 L 240 940 L 220 940 L 200 940 L 180 940 L 160 940 L 140 940 L 140 920 L 140 900 L 160 900 L 180 900 L 200 900 L 220 900 L 240 900 L 260 900 L 280 900 L 300 900 L 320 900 L 340 900 L 360 900 L 380 900 L 400 900 L 420 900 L 440 900 L 460 900 L 480 900 L 500 900 L 520 900 L 540 900 L 560 900 L 580 900 L 600 900 L 620 900 L 640 900 L 660 900 L 680 900 L 700 900 L 720 900 L 740 900 L 760 900 L 780 900 L 780 880 L 780 860 z M 20 800 L 40 800 L 60 800 L 60 780 L 40 780 L 20 780 L 20 800 z M 60 780 L 80 780 L 80 760 L 80 740 L 80 720 L 60 720 L 60 740 L 60 760 L 60 780 z M 80 720 L 100 720 L 100 700 L 100 680 L 80 680 L 80 700 L 80 720 z M 100 680 L 120 680 L 120 660 L 120 640 L 120 620 L 120 600 L 120 580 L 120 560 L 120 540 L 120 520 L 120 500 L 120 480 L 120 460 L 120 440 L 120 420 L 120 400 L 120 380 L 120 360 L 120 340 L 120 320 L 120 300 L 120 280 L 120 260 L 120 240 L 120 220 L 120 200 L 120 180 L 120 160 L 120 140 L 100 140 L 100 160 L 100 180 L 100 200 L 100 220 L 100 240 L 100 260 L 100 280 L 100 300 L 100 320 L 100 340 L 100 360 L 100 380 L 100 400 L 100 420 L 100 440 L 100 460 L 100 480 L 100 500 L 100 520 L 100 540 L 100 560 L 100 580 L 100 600 L 100 620 L 100 640 L 100 660 L 100 680 z M 740 800 L 760 800 L 760 780 L 760 760 L 760 740 L 740 740 L 740 760 L 740 780 L 740 800 z M 760 740 L 780 740 L 780 720 L 780 700 L 780 680 L 760 680 L 760 700 L 760 720 L 760 740 z "
     style="fill:#808080" />
</svg>
