<?xml version="1.0" encoding="UTF-8" standalone="no"?>
<svg
   xmlns:dc="http://purl.org/dc/elements/1.1/"
   xmlns:cc="http://creativecommons.org/ns#"
   xmlns:rdf="http://www.w3.org/1999/02/22-rdf-syntax-ns#"
   xmlns:svg="http://www.w3.org/2000/svg"
   xmlns="http://www.w3.org/2000/svg"
   height="640px"
   version="1.1"
   width="640px"
   id="svg1588">
  <metadata
     id="metadata1592">
    <rdf:RDF>
      <cc:Work
         rdf:about="">
        <dc:format>image/svg+xml</dc:format>
        <dc:type
           rdf:resource="http://purl.org/dc/dcmitype/StillImage" />
      </cc:Work>
    </rdf:RDF>
  </metadata>
  <defs
     id="defs2" />
  <path
     id="rect1150"
     d="M 180 280 L 180 300 L 200 300 L 200 280 L 180 280 z M 260 340 L 260 360 L 280 360 L 280 340 L 260 340 z M 360 400 L 360 420 L 380 420 L 380 400 L 360 400 z "
     style="fill:#c0c0c0" />
  <path
     id="rect1162"
     d="M 160 160 L 160 180 L 180 180 L 200 180 L 220 180 L 240 180 L 260 180 L 280 180 L 300 180 L 320 180 L 320 160 L 300 160 L 280 160 L 260 160 L 240 160 L 220 160 L 200 160 L 180 160 L 160 160 z M 380 160 L 380 180 L 400 180 L 420 180 L 440 180 L 440 160 L 420 160 L 400 160 L 380 160 z M 160 220 L 160 240 L 180 240 L 200 240 L 220 240 L 240 240 L 260 240 L 280 240 L 300 240 L 300 220 L 280 220 L 260 220 L 240 220 L 220 220 L 200 220 L 180 220 L 160 220 z M 360 220 L 360 240 L 380 240 L 400 240 L 420 240 L 420 220 L 400 220 L 380 220 L 360 220 z M 220 280 L 220 300 L 240 300 L 260 300 L 280 300 L 300 300 L 320 300 L 340 300 L 360 300 L 360 280 L 340 280 L 320 280 L 300 280 L 280 280 L 260 280 L 240 280 L 220 280 z M 420 280 L 420 300 L 440 300 L 460 300 L 480 300 L 500 300 L 500 280 L 480 280 L 460 280 L 440 280 L 420 280 z M 300 340 L 300 360 L 320 360 L 340 360 L 360 360 L 380 360 L 400 360 L 420 360 L 440 360 L 460 360 L 460 340 L 440 340 L 420 340 L 400 340 L 380 340 L 360 340 L 340 340 L 320 340 L 300 340 z M 400 400 L 400 420 L 420 420 L 420 400 L 400 400 z M 460 400 L 460 420 L 480 420 L 500 420 L 500 400 L 480 400 L 460 400 z "
     style="fill:#808080" />
  <path
     id="rect1536"
     d="M 100 40 L 100 60 L 100 80 L 120 80 L 140 80 L 160 80 L 180 80 L 200 80 L 220 80 L 240 80 L 260 80 L 280 80 L 300 80 L 320 80 L 340 80 L 360 80 L 380 80 L 400 80 L 420 80 L 440 80 L 460 80 L 480 80 L 500 80 L 520 80 L 540 80 L 560 80 L 580 80 L 600 80 L 620 80 L 620 60 L 620 40 L 600 40 L 580 40 L 560 40 L 540 40 L 520 40 L 500 40 L 480 40 L 460 40 L 440 40 L 420 40 L 400 40 L 380 40 L 360 40 L 340 40 L 320 40 L 300 40 L 280 40 L 260 40 L 240 40 L 220 40 L 200 40 L 180 40 L 160 40 L 140 40 L 120 40 L 100 40 z M 80 280 L 80 300 L 100 300 L 120 300 L 140 300 L 140 280 L 120 280 L 100 280 L 80 280 z M 80 320 L 80 340 L 100 340 L 100 320 L 80 320 z M 160 340 L 160 360 L 180 360 L 200 360 L 220 360 L 220 340 L 200 340 L 180 340 L 160 340 z M 80 360 L 80 380 L 100 380 L 100 360 L 80 360 z M 160 380 L 160 400 L 180 400 L 200 400 L 200 380 L 180 380 L 160 380 z M 80 400 L 80 420 L 100 420 L 100 400 L 80 400 z M 260 400 L 260 420 L 280 420 L 300 420 L 320 420 L 320 400 L 300 400 L 280 400 L 260 400 z M 160 420 L 160 440 L 180 440 L 200 440 L 200 420 L 180 420 L 160 420 z M 80 440 L 80 460 L 100 460 L 100 440 L 80 440 z M 260 440 L 260 460 L 280 460 L 300 460 L 320 460 L 320 440 L 300 440 L 280 440 L 260 440 z M 160 460 L 160 480 L 180 480 L 200 480 L 200 460 L 180 460 L 160 460 z M 260 480 L 260 500 L 280 500 L 300 500 L 320 500 L 340 500 L 360 500 L 360 480 L 340 480 L 320 480 L 300 480 L 280 480 L 260 480 z M 160 500 L 160 520 L 180 520 L 200 520 L 200 500 L 180 500 L 160 500 z M 260 520 L 260 540 L 280 540 L 300 540 L 320 540 L 340 540 L 360 540 L 360 520 L 340 520 L 320 520 L 300 520 L 280 520 L 260 520 z M 260 560 L 260 580 L 280 580 L 300 580 L 320 580 L 340 580 L 360 580 L 360 560 L 340 560 L 320 560 L 300 560 L 280 560 L 260 560 z "
     style="fill:#000080" />
  <path
     id="rect1562"
     d="M 100 100 L 100 120 L 100 140 L 100 160 L 100 180 L 100 200 L 100 220 L 100 240 L 120 240 L 140 240 L 160 240 L 160 220 L 180 220 L 200 220 L 220 220 L 240 220 L 260 220 L 280 220 L 300 220 L 300 240 L 280 240 L 260 240 L 240 240 L 220 240 L 200 240 L 180 240 L 180 260 L 200 260 L 200 280 L 220 280 L 240 280 L 260 280 L 280 280 L 300 280 L 320 280 L 340 280 L 360 280 L 360 300 L 340 300 L 320 300 L 300 300 L 280 300 L 260 300 L 260 320 L 280 320 L 280 340 L 300 340 L 320 340 L 340 340 L 360 340 L 380 340 L 400 340 L 420 340 L 440 340 L 460 340 L 460 360 L 440 360 L 420 360 L 400 360 L 380 360 L 360 360 L 360 380 L 380 380 L 380 400 L 400 400 L 420 400 L 420 420 L 420 440 L 420 460 L 420 480 L 440 480 L 460 480 L 480 480 L 500 480 L 520 480 L 540 480 L 560 480 L 580 480 L 600 480 L 620 480 L 620 460 L 620 440 L 620 420 L 620 400 L 620 380 L 620 360 L 620 340 L 620 320 L 620 300 L 620 280 L 620 260 L 620 240 L 620 220 L 620 200 L 620 180 L 620 160 L 620 140 L 620 120 L 620 100 L 600 100 L 580 100 L 560 100 L 540 100 L 520 100 L 500 100 L 480 100 L 460 100 L 440 100 L 420 100 L 400 100 L 380 100 L 360 100 L 340 100 L 320 100 L 300 100 L 280 100 L 260 100 L 240 100 L 220 100 L 200 100 L 180 100 L 160 100 L 140 100 L 120 100 L 100 100 z M 160 160 L 180 160 L 200 160 L 220 160 L 240 160 L 260 160 L 280 160 L 300 160 L 320 160 L 320 180 L 300 180 L 280 180 L 260 180 L 240 180 L 220 180 L 200 180 L 180 180 L 160 180 L 160 160 z M 380 160 L 400 160 L 420 160 L 440 160 L 440 180 L 420 180 L 400 180 L 380 180 L 380 160 z M 360 220 L 380 220 L 400 220 L 420 220 L 420 240 L 400 240 L 380 240 L 360 240 L 360 220 z M 40 260 L 40 280 L 40 300 L 40 320 L 40 340 L 40 360 L 40 380 L 40 400 L 40 420 L 40 440 L 40 460 L 40 480 L 60 480 L 80 480 L 100 480 L 100 460 L 80 460 L 80 440 L 100 440 L 100 420 L 80 420 L 80 400 L 100 400 L 100 380 L 80 380 L 80 360 L 100 360 L 100 340 L 80 340 L 80 320 L 100 320 L 100 300 L 80 300 L 80 280 L 100 280 L 120 280 L 140 280 L 140 300 L 160 300 L 160 280 L 160 260 L 140 260 L 120 260 L 100 260 L 80 260 L 60 260 L 40 260 z M 420 280 L 440 280 L 460 280 L 480 280 L 500 280 L 500 300 L 480 300 L 460 300 L 440 300 L 420 300 L 420 280 z M 120 320 L 120 340 L 120 360 L 120 380 L 120 400 L 120 420 L 120 440 L 120 460 L 120 480 L 120 500 L 120 520 L 120 540 L 140 540 L 160 540 L 180 540 L 200 540 L 200 520 L 180 520 L 160 520 L 160 500 L 180 500 L 200 500 L 200 480 L 180 480 L 160 480 L 160 460 L 180 460 L 200 460 L 200 440 L 180 440 L 160 440 L 160 420 L 180 420 L 200 420 L 200 400 L 180 400 L 160 400 L 160 380 L 180 380 L 200 380 L 200 360 L 180 360 L 160 360 L 160 340 L 180 340 L 200 340 L 220 340 L 220 360 L 240 360 L 240 340 L 240 320 L 220 320 L 200 320 L 180 320 L 160 320 L 140 320 L 120 320 z M 220 380 L 220 400 L 220 420 L 220 440 L 220 460 L 220 480 L 220 500 L 220 520 L 220 540 L 220 560 L 220 580 L 220 600 L 240 600 L 260 600 L 280 600 L 300 600 L 320 600 L 340 600 L 360 600 L 380 600 L 400 600 L 400 580 L 400 560 L 400 540 L 400 520 L 400 500 L 400 480 L 400 460 L 400 440 L 380 440 L 360 440 L 340 440 L 340 420 L 340 400 L 340 380 L 320 380 L 300 380 L 280 380 L 260 380 L 240 380 L 220 380 z M 260 400 L 280 400 L 300 400 L 320 400 L 320 420 L 300 420 L 280 420 L 260 420 L 260 400 z M 460 400 L 480 400 L 500 400 L 500 420 L 480 420 L 460 420 L 460 400 z M 260 440 L 280 440 L 300 440 L 320 440 L 320 460 L 300 460 L 280 460 L 260 460 L 260 440 z M 260 480 L 280 480 L 300 480 L 320 480 L 340 480 L 360 480 L 360 500 L 340 500 L 320 500 L 300 500 L 280 500 L 260 500 L 260 480 z M 260 520 L 280 520 L 300 520 L 320 520 L 340 520 L 360 520 L 360 540 L 340 540 L 320 540 L 300 540 L 280 540 L 260 540 L 260 520 z M 260 560 L 280 560 L 300 560 L 320 560 L 340 560 L 360 560 L 360 580 L 340 580 L 320 580 L 300 580 L 280 580 L 260 580 L 260 560 z "
     style="fill:#ffffff" />
  <path
     id="rect1586"
     d="M 80 20 L 80 40 L 80 60 L 80 80 L 80 100 L 80 120 L 80 140 L 80 160 L 80 180 L 80 200 L 80 220 L 80 240 L 60 240 L 40 240 L 20 240 L 20 260 L 20 280 L 20 300 L 20 320 L 20 340 L 20 360 L 20 380 L 20 400 L 20 420 L 20 440 L 20 460 L 20 480 L 20 500 L 40 500 L 60 500 L 80 500 L 100 500 L 100 520 L 100 540 L 100 560 L 120 560 L 140 560 L 160 560 L 180 560 L 200 560 L 200 580 L 200 600 L 200 620 L 220 620 L 240 620 L 260 620 L 280 620 L 300 620 L 320 620 L 340 620 L 360 620 L 380 620 L 400 620 L 420 620 L 420 600 L 420 580 L 420 560 L 420 540 L 420 520 L 420 500 L 440 500 L 460 500 L 480 500 L 500 500 L 520 500 L 540 500 L 560 500 L 580 500 L 600 500 L 620 500 L 640 500 L 640 480 L 640 460 L 640 440 L 640 420 L 640 400 L 640 380 L 640 360 L 640 340 L 640 320 L 640 300 L 640 280 L 640 260 L 640 240 L 640 220 L 640 200 L 640 180 L 640 160 L 640 140 L 640 120 L 640 100 L 640 80 L 640 60 L 640 40 L 640 20 L 620 20 L 600 20 L 580 20 L 560 20 L 540 20 L 520 20 L 500 20 L 480 20 L 460 20 L 440 20 L 420 20 L 400 20 L 380 20 L 360 20 L 340 20 L 320 20 L 300 20 L 280 20 L 260 20 L 240 20 L 220 20 L 200 20 L 180 20 L 160 20 L 140 20 L 120 20 L 100 20 L 80 20 z M 100 40 L 120 40 L 140 40 L 160 40 L 180 40 L 200 40 L 220 40 L 240 40 L 260 40 L 280 40 L 300 40 L 320 40 L 340 40 L 360 40 L 380 40 L 400 40 L 420 40 L 440 40 L 460 40 L 480 40 L 500 40 L 520 40 L 540 40 L 560 40 L 580 40 L 600 40 L 620 40 L 620 60 L 620 80 L 600 80 L 580 80 L 560 80 L 540 80 L 520 80 L 500 80 L 480 80 L 460 80 L 440 80 L 420 80 L 400 80 L 380 80 L 360 80 L 340 80 L 320 80 L 300 80 L 280 80 L 260 80 L 240 80 L 220 80 L 200 80 L 180 80 L 160 80 L 140 80 L 120 80 L 100 80 L 100 60 L 100 40 z M 100 100 L 120 100 L 140 100 L 160 100 L 180 100 L 200 100 L 220 100 L 240 100 L 260 100 L 280 100 L 300 100 L 320 100 L 340 100 L 360 100 L 380 100 L 400 100 L 420 100 L 440 100 L 460 100 L 480 100 L 500 100 L 520 100 L 540 100 L 560 100 L 580 100 L 600 100 L 620 100 L 620 120 L 620 140 L 620 160 L 620 180 L 620 200 L 620 220 L 620 240 L 620 260 L 620 280 L 620 300 L 620 320 L 620 340 L 620 360 L 620 380 L 620 400 L 620 420 L 620 440 L 620 460 L 620 480 L 600 480 L 580 480 L 560 480 L 540 480 L 520 480 L 500 480 L 480 480 L 460 480 L 440 480 L 420 480 L 420 460 L 420 440 L 420 420 L 400 420 L 400 400 L 380 400 L 380 420 L 360 420 L 360 400 L 380 400 L 380 380 L 360 380 L 360 360 L 340 360 L 320 360 L 300 360 L 300 340 L 280 340 L 280 360 L 260 360 L 260 340 L 280 340 L 280 320 L 260 320 L 260 300 L 240 300 L 220 300 L 220 280 L 200 280 L 200 300 L 180 300 L 180 280 L 200 280 L 200 260 L 180 260 L 180 240 L 160 240 L 140 240 L 120 240 L 100 240 L 100 220 L 100 200 L 100 180 L 100 160 L 100 140 L 100 120 L 100 100 z M 40 260 L 60 260 L 80 260 L 100 260 L 120 260 L 140 260 L 160 260 L 160 280 L 160 300 L 140 300 L 120 300 L 100 300 L 100 320 L 100 340 L 100 360 L 100 380 L 100 400 L 100 420 L 100 440 L 100 460 L 100 480 L 80 480 L 60 480 L 40 480 L 40 460 L 40 440 L 40 420 L 40 400 L 40 380 L 40 360 L 40 340 L 40 320 L 40 300 L 40 280 L 40 260 z M 120 320 L 140 320 L 160 320 L 180 320 L 200 320 L 220 320 L 240 320 L 240 340 L 240 360 L 220 360 L 200 360 L 200 380 L 200 400 L 200 420 L 200 440 L 200 460 L 200 480 L 200 500 L 200 520 L 200 540 L 180 540 L 160 540 L 140 540 L 120 540 L 120 520 L 120 500 L 120 480 L 120 460 L 120 440 L 120 420 L 120 400 L 120 380 L 120 360 L 120 340 L 120 320 z M 220 380 L 240 380 L 260 380 L 280 380 L 300 380 L 320 380 L 340 380 L 340 400 L 340 420 L 340 440 L 360 440 L 380 440 L 400 440 L 400 460 L 400 480 L 400 500 L 400 520 L 400 540 L 400 560 L 400 580 L 400 600 L 380 600 L 360 600 L 340 600 L 320 600 L 300 600 L 280 600 L 260 600 L 240 600 L 220 600 L 220 580 L 220 560 L 220 540 L 220 520 L 220 500 L 220 480 L 220 460 L 220 440 L 220 420 L 220 400 L 220 380 z "
     style="fill:#000000" />
</svg>
