<?xml version="1.0" encoding="UTF-8" standalone="no"?>
<svg
   xmlns:dc="http://purl.org/dc/elements/1.1/"
   xmlns:cc="http://creativecommons.org/ns#"
   xmlns:rdf="http://www.w3.org/1999/02/22-rdf-syntax-ns#"
   xmlns:svg="http://www.w3.org/2000/svg"
   xmlns="http://www.w3.org/2000/svg"
   height="960px"
   version="1.1"
   width="960px"
   id="svg4420">
  <metadata
     id="metadata4424">
    <rdf:RDF>
      <cc:Work
         rdf:about="">
        <dc:format>image/svg+xml</dc:format>
        <dc:type
           rdf:resource="http://purl.org/dc/dcmitype/StillImage" />
      </cc:Work>
    </rdf:RDF>
  </metadata>
  <defs
     id="defs2" />
  <path
     id="rect930"
     d="M 80 80 L 80 100 L 80 120 L 80 140 L 80 160 L 80 180 L 80 200 L 100 200 L 120 200 L 140 200 L 160 200 L 180 200 L 200 200 L 220 200 L 240 200 L 260 200 L 280 200 L 300 200 L 320 200 L 340 200 L 360 200 L 380 200 L 400 200 L 420 200 L 440 200 L 460 200 L 480 200 L 500 200 L 520 200 L 540 200 L 560 200 L 580 200 L 600 200 L 620 200 L 640 200 L 640 180 L 640 160 L 640 140 L 640 120 L 660 120 L 680 120 L 700 120 L 720 120 L 740 120 L 760 120 L 780 120 L 800 120 L 820 120 L 840 120 L 860 120 L 880 120 L 880 100 L 880 80 L 860 80 L 840 80 L 820 80 L 800 80 L 780 80 L 760 80 L 740 80 L 720 80 L 700 80 L 680 80 L 660 80 L 640 80 L 620 80 L 600 80 L 580 80 L 560 80 L 540 80 L 520 80 L 500 80 L 480 80 L 460 80 L 440 80 L 420 80 L 400 80 L 380 80 L 360 80 L 340 80 L 320 80 L 300 80 L 280 80 L 260 80 L 240 80 L 220 80 L 200 80 L 180 80 L 160 80 L 140 80 L 120 80 L 100 80 L 80 80 z "
     style="fill:#000080" />
  <path
     id="rect3830"
     d="M 120 280 L 120 300 L 120 320 L 120 340 L 120 360 L 120 380 L 120 400 L 120 420 L 120 440 L 120 460 L 120 480 L 120 500 L 120 520 L 120 540 L 120 560 L 120 580 L 120 600 L 120 620 L 120 640 L 120 660 L 120 680 L 120 700 L 120 720 L 120 740 L 120 760 L 120 780 L 120 800 L 140 800 L 160 800 L 180 800 L 200 800 L 220 800 L 240 800 L 260 800 L 280 800 L 300 800 L 320 800 L 340 800 L 360 800 L 380 800 L 400 800 L 420 800 L 440 800 L 460 800 L 480 800 L 500 800 L 520 800 L 540 800 L 560 800 L 580 800 L 600 800 L 620 800 L 640 800 L 660 800 L 680 800 L 700 800 L 720 800 L 740 800 L 760 800 L 780 800 L 800 800 L 820 800 L 840 800 L 840 780 L 840 760 L 840 740 L 840 720 L 840 700 L 840 680 L 840 660 L 840 640 L 840 620 L 840 600 L 840 580 L 840 560 L 840 540 L 840 520 L 840 500 L 840 480 L 840 460 L 840 440 L 840 420 L 840 400 L 840 380 L 840 360 L 840 340 L 840 320 L 840 300 L 840 280 L 820 280 L 800 280 L 780 280 L 760 280 L 740 280 L 720 280 L 700 280 L 680 280 L 660 280 L 640 280 L 620 280 L 600 280 L 580 280 L 560 280 L 540 280 L 520 280 L 500 280 L 480 280 L 460 280 L 440 280 L 420 280 L 400 280 L 380 280 L 360 280 L 340 280 L 320 280 L 300 280 L 280 280 L 260 280 L 240 280 L 220 280 L 200 280 L 180 280 L 160 280 L 140 280 L 120 280 z "
     style="fill:#ffffff" />
  <path
     id="rect4026"
     d="M 40 40 L 40 60 L 40 80 L 40 100 L 40 120 L 40 140 L 40 160 L 40 180 L 40 200 L 40 220 L 40 240 L 40 260 L 40 280 L 40 300 L 40 320 L 40 340 L 40 360 L 40 380 L 40 400 L 40 420 L 40 440 L 40 460 L 40 480 L 40 500 L 40 520 L 40 540 L 40 560 L 40 580 L 40 600 L 40 620 L 40 640 L 40 660 L 40 680 L 40 700 L 40 720 L 40 740 L 40 760 L 40 780 L 40 800 L 40 820 L 40 840 L 60 840 L 80 840 L 100 840 L 120 840 L 140 840 L 160 840 L 180 840 L 200 840 L 220 840 L 240 840 L 260 840 L 280 840 L 300 840 L 320 840 L 340 840 L 360 840 L 380 840 L 400 840 L 420 840 L 440 840 L 460 840 L 480 840 L 500 840 L 520 840 L 540 840 L 560 840 L 580 840 L 600 840 L 620 840 L 640 840 L 660 840 L 680 840 L 700 840 L 720 840 L 740 840 L 760 840 L 780 840 L 800 840 L 820 840 L 840 840 L 860 840 L 880 840 L 880 820 L 880 800 L 880 780 L 880 760 L 880 740 L 880 720 L 880 700 L 880 680 L 880 660 L 880 640 L 880 620 L 880 600 L 880 580 L 880 560 L 880 540 L 880 520 L 880 500 L 880 480 L 880 460 L 880 440 L 880 420 L 880 400 L 880 380 L 880 360 L 880 340 L 880 320 L 880 300 L 880 280 L 880 260 L 880 240 L 880 220 L 880 200 L 860 200 L 840 200 L 820 200 L 800 200 L 780 200 L 760 200 L 740 200 L 720 200 L 700 200 L 680 200 L 660 200 L 640 200 L 620 200 L 600 200 L 580 200 L 560 200 L 540 200 L 520 200 L 500 200 L 480 200 L 460 200 L 440 200 L 420 200 L 400 200 L 380 200 L 360 200 L 340 200 L 320 200 L 300 200 L 280 200 L 260 200 L 240 200 L 220 200 L 200 200 L 180 200 L 160 200 L 140 200 L 120 200 L 100 200 L 80 200 L 80 180 L 80 160 L 80 140 L 80 120 L 80 100 L 80 80 L 100 80 L 120 80 L 140 80 L 160 80 L 180 80 L 200 80 L 220 80 L 240 80 L 260 80 L 280 80 L 300 80 L 320 80 L 340 80 L 360 80 L 380 80 L 400 80 L 420 80 L 440 80 L 460 80 L 480 80 L 500 80 L 520 80 L 540 80 L 560 80 L 580 80 L 600 80 L 620 80 L 640 80 L 660 80 L 680 80 L 700 80 L 720 80 L 740 80 L 760 80 L 780 80 L 800 80 L 820 80 L 840 80 L 860 80 L 880 80 L 880 60 L 880 40 L 860 40 L 840 40 L 820 40 L 800 40 L 780 40 L 760 40 L 740 40 L 720 40 L 700 40 L 680 40 L 660 40 L 640 40 L 620 40 L 600 40 L 580 40 L 560 40 L 540 40 L 520 40 L 500 40 L 480 40 L 460 40 L 440 40 L 420 40 L 400 40 L 380 40 L 360 40 L 340 40 L 320 40 L 300 40 L 280 40 L 260 40 L 240 40 L 220 40 L 200 40 L 180 40 L 160 40 L 140 40 L 120 40 L 100 40 L 80 40 L 60 40 L 40 40 z M 640 120 L 640 140 L 640 160 L 660 160 L 680 160 L 680 140 L 680 120 L 660 120 L 640 120 z M 720 120 L 720 140 L 720 160 L 740 160 L 760 160 L 760 140 L 760 120 L 740 120 L 720 120 z M 800 120 L 800 140 L 800 160 L 820 160 L 840 160 L 840 140 L 840 120 L 820 120 L 800 120 z M 80 240 L 100 240 L 120 240 L 140 240 L 160 240 L 180 240 L 200 240 L 220 240 L 240 240 L 260 240 L 280 240 L 300 240 L 320 240 L 340 240 L 360 240 L 380 240 L 400 240 L 420 240 L 440 240 L 460 240 L 480 240 L 500 240 L 520 240 L 540 240 L 560 240 L 580 240 L 600 240 L 620 240 L 640 240 L 660 240 L 680 240 L 700 240 L 720 240 L 740 240 L 760 240 L 780 240 L 800 240 L 820 240 L 840 240 L 840 260 L 840 280 L 840 300 L 840 320 L 840 340 L 840 360 L 840 380 L 840 400 L 840 420 L 840 440 L 840 460 L 840 480 L 840 500 L 840 520 L 840 540 L 840 560 L 840 580 L 840 600 L 840 620 L 840 640 L 840 660 L 840 680 L 840 700 L 840 720 L 840 740 L 840 760 L 840 780 L 840 800 L 820 800 L 800 800 L 780 800 L 760 800 L 740 800 L 720 800 L 700 800 L 680 800 L 660 800 L 640 800 L 620 800 L 600 800 L 580 800 L 560 800 L 540 800 L 520 800 L 500 800 L 480 800 L 460 800 L 440 800 L 420 800 L 400 800 L 380 800 L 360 800 L 340 800 L 320 800 L 300 800 L 280 800 L 260 800 L 240 800 L 220 800 L 200 800 L 180 800 L 160 800 L 140 800 L 120 800 L 100 800 L 80 800 L 80 780 L 80 760 L 80 740 L 80 720 L 80 700 L 80 680 L 80 660 L 80 640 L 80 620 L 80 600 L 80 580 L 80 560 L 80 540 L 80 520 L 80 500 L 80 480 L 80 460 L 80 440 L 80 420 L 80 400 L 80 380 L 80 360 L 80 340 L 80 320 L 80 300 L 80 280 L 80 260 L 80 240 z "
     style="fill:#c0c0c0" />
  <path
     id="rect4222"
     d="M 0 0 L 0 20 L 0 40 L 0 60 L 0 80 L 0 100 L 0 120 L 0 140 L 0 160 L 0 180 L 0 200 L 0 220 L 0 240 L 0 260 L 0 280 L 0 300 L 0 320 L 0 340 L 0 360 L 0 380 L 0 400 L 0 420 L 0 440 L 0 460 L 0 480 L 0 500 L 0 520 L 0 540 L 0 560 L 0 580 L 0 600 L 0 620 L 0 640 L 0 660 L 0 680 L 0 700 L 0 720 L 0 740 L 0 760 L 0 780 L 0 800 L 0 820 L 0 840 L 0 860 L 0 880 L 20 880 L 40 880 L 60 880 L 80 880 L 100 880 L 120 880 L 140 880 L 160 880 L 180 880 L 200 880 L 220 880 L 240 880 L 260 880 L 280 880 L 300 880 L 320 880 L 340 880 L 360 880 L 380 880 L 400 880 L 420 880 L 440 880 L 460 880 L 480 880 L 500 880 L 520 880 L 540 880 L 560 880 L 580 880 L 600 880 L 620 880 L 640 880 L 660 880 L 680 880 L 700 880 L 720 880 L 740 880 L 760 880 L 780 880 L 800 880 L 820 880 L 840 880 L 860 880 L 880 880 L 900 880 L 920 880 L 920 860 L 920 840 L 920 820 L 920 800 L 920 780 L 920 760 L 920 740 L 920 720 L 920 700 L 920 680 L 920 660 L 920 640 L 920 620 L 920 600 L 920 580 L 920 560 L 920 540 L 920 520 L 920 500 L 920 480 L 920 460 L 920 440 L 920 420 L 920 400 L 920 380 L 920 360 L 920 340 L 920 320 L 920 300 L 920 280 L 920 260 L 920 240 L 920 220 L 920 200 L 920 180 L 920 160 L 920 140 L 920 120 L 920 100 L 920 80 L 920 60 L 920 40 L 920 20 L 920 0 L 900 0 L 880 0 L 860 0 L 840 0 L 820 0 L 800 0 L 780 0 L 760 0 L 740 0 L 720 0 L 700 0 L 680 0 L 660 0 L 640 0 L 620 0 L 600 0 L 580 0 L 560 0 L 540 0 L 520 0 L 500 0 L 480 0 L 460 0 L 440 0 L 420 0 L 400 0 L 380 0 L 360 0 L 340 0 L 320 0 L 300 0 L 280 0 L 260 0 L 240 0 L 220 0 L 200 0 L 180 0 L 160 0 L 140 0 L 120 0 L 100 0 L 80 0 L 60 0 L 40 0 L 20 0 L 0 0 z M 40 40 L 60 40 L 80 40 L 100 40 L 120 40 L 140 40 L 160 40 L 180 40 L 200 40 L 220 40 L 240 40 L 260 40 L 280 40 L 300 40 L 320 40 L 340 40 L 360 40 L 380 40 L 400 40 L 420 40 L 440 40 L 460 40 L 480 40 L 500 40 L 520 40 L 540 40 L 560 40 L 580 40 L 600 40 L 620 40 L 640 40 L 660 40 L 680 40 L 700 40 L 720 40 L 740 40 L 760 40 L 780 40 L 800 40 L 820 40 L 840 40 L 860 40 L 880 40 L 880 60 L 880 80 L 880 100 L 880 120 L 880 140 L 880 160 L 880 180 L 880 200 L 880 220 L 880 240 L 880 260 L 880 280 L 880 300 L 880 320 L 880 340 L 880 360 L 880 380 L 880 400 L 880 420 L 880 440 L 880 460 L 880 480 L 880 500 L 880 520 L 880 540 L 880 560 L 880 580 L 880 600 L 880 620 L 880 640 L 880 660 L 880 680 L 880 700 L 880 720 L 880 740 L 880 760 L 880 780 L 880 800 L 880 820 L 880 840 L 860 840 L 840 840 L 820 840 L 800 840 L 780 840 L 760 840 L 740 840 L 720 840 L 700 840 L 680 840 L 660 840 L 640 840 L 620 840 L 600 840 L 580 840 L 560 840 L 540 840 L 520 840 L 500 840 L 480 840 L 460 840 L 440 840 L 420 840 L 400 840 L 380 840 L 360 840 L 340 840 L 320 840 L 300 840 L 280 840 L 260 840 L 240 840 L 220 840 L 200 840 L 180 840 L 160 840 L 140 840 L 120 840 L 100 840 L 80 840 L 60 840 L 40 840 L 40 820 L 40 800 L 40 780 L 40 760 L 40 740 L 40 720 L 40 700 L 40 680 L 40 660 L 40 640 L 40 620 L 40 600 L 40 580 L 40 560 L 40 540 L 40 520 L 40 500 L 40 480 L 40 460 L 40 440 L 40 420 L 40 400 L 40 380 L 40 360 L 40 340 L 40 320 L 40 300 L 40 280 L 40 260 L 40 240 L 40 220 L 40 200 L 40 180 L 40 160 L 40 140 L 40 120 L 40 100 L 40 80 L 40 60 L 40 40 z M 80 240 L 80 260 L 80 280 L 80 300 L 80 320 L 80 340 L 80 360 L 80 380 L 80 400 L 80 420 L 80 440 L 80 460 L 80 480 L 80 500 L 80 520 L 80 540 L 80 560 L 80 580 L 80 600 L 80 620 L 80 640 L 80 660 L 80 680 L 80 700 L 80 720 L 80 740 L 80 760 L 80 780 L 80 800 L 100 800 L 120 800 L 120 780 L 120 760 L 120 740 L 120 720 L 120 700 L 120 680 L 120 660 L 120 640 L 120 620 L 120 600 L 120 580 L 120 560 L 120 540 L 120 520 L 120 500 L 120 480 L 120 460 L 120 440 L 120 420 L 120 400 L 120 380 L 120 360 L 120 340 L 120 320 L 120 300 L 120 280 L 140 280 L 160 280 L 180 280 L 200 280 L 220 280 L 240 280 L 260 280 L 280 280 L 300 280 L 320 280 L 340 280 L 360 280 L 380 280 L 400 280 L 420 280 L 440 280 L 460 280 L 480 280 L 500 280 L 520 280 L 540 280 L 560 280 L 580 280 L 600 280 L 620 280 L 640 280 L 660 280 L 680 280 L 700 280 L 720 280 L 740 280 L 760 280 L 780 280 L 800 280 L 820 280 L 840 280 L 840 260 L 840 240 L 820 240 L 800 240 L 780 240 L 760 240 L 740 240 L 720 240 L 700 240 L 680 240 L 660 240 L 640 240 L 620 240 L 600 240 L 580 240 L 560 240 L 540 240 L 520 240 L 500 240 L 480 240 L 460 240 L 440 240 L 420 240 L 400 240 L 380 240 L 360 240 L 340 240 L 320 240 L 300 240 L 280 240 L 260 240 L 240 240 L 220 240 L 200 240 L 180 240 L 160 240 L 140 240 L 120 240 L 100 240 L 80 240 z "
     style="fill:#808080" />
  <path
     id="rect4418"
     d="M 920 0 L 920 20 L 920 40 L 920 60 L 920 80 L 920 100 L 920 120 L 920 140 L 920 160 L 920 180 L 920 200 L 920 220 L 920 240 L 920 260 L 920 280 L 920 300 L 920 320 L 920 340 L 920 360 L 920 380 L 920 400 L 920 420 L 920 440 L 920 460 L 920 480 L 920 500 L 920 520 L 920 540 L 920 560 L 920 580 L 920 600 L 920 620 L 920 640 L 920 660 L 920 680 L 920 700 L 920 720 L 920 740 L 920 760 L 920 780 L 920 800 L 920 820 L 920 840 L 920 860 L 920 880 L 900 880 L 880 880 L 860 880 L 840 880 L 820 880 L 800 880 L 780 880 L 760 880 L 740 880 L 720 880 L 700 880 L 680 880 L 660 880 L 640 880 L 620 880 L 600 880 L 580 880 L 560 880 L 540 880 L 520 880 L 500 880 L 480 880 L 460 880 L 440 880 L 420 880 L 400 880 L 380 880 L 360 880 L 340 880 L 320 880 L 300 880 L 280 880 L 260 880 L 240 880 L 220 880 L 200 880 L 180 880 L 160 880 L 140 880 L 120 880 L 100 880 L 80 880 L 60 880 L 40 880 L 20 880 L 0 880 L 0 900 L 0 920 L 20 920 L 40 920 L 60 920 L 80 920 L 100 920 L 120 920 L 140 920 L 160 920 L 180 920 L 200 920 L 220 920 L 240 920 L 260 920 L 280 920 L 300 920 L 320 920 L 340 920 L 360 920 L 380 920 L 400 920 L 420 920 L 440 920 L 460 920 L 480 920 L 500 920 L 520 920 L 540 920 L 560 920 L 580 920 L 600 920 L 620 920 L 640 920 L 660 920 L 680 920 L 700 920 L 720 920 L 740 920 L 760 920 L 780 920 L 800 920 L 820 920 L 840 920 L 860 920 L 880 920 L 900 920 L 920 920 L 940 920 L 960 920 L 960 900 L 960 880 L 960 860 L 960 840 L 960 820 L 960 800 L 960 780 L 960 760 L 960 740 L 960 720 L 960 700 L 960 680 L 960 660 L 960 640 L 960 620 L 960 600 L 960 580 L 960 560 L 960 540 L 960 520 L 960 500 L 960 480 L 960 460 L 960 440 L 960 420 L 960 400 L 960 380 L 960 360 L 960 340 L 960 320 L 960 300 L 960 280 L 960 260 L 960 240 L 960 220 L 960 200 L 960 180 L 960 160 L 960 140 L 960 120 L 960 100 L 960 80 L 960 60 L 960 40 L 960 20 L 960 0 L 940 0 L 920 0 z M 680 120 L 680 140 L 680 160 L 660 160 L 640 160 L 640 180 L 640 200 L 660 200 L 680 200 L 700 200 L 720 200 L 740 200 L 760 200 L 780 200 L 800 200 L 820 200 L 840 200 L 860 200 L 880 200 L 880 180 L 880 160 L 880 140 L 880 120 L 860 120 L 840 120 L 840 140 L 840 160 L 820 160 L 800 160 L 800 140 L 800 120 L 780 120 L 760 120 L 760 140 L 760 160 L 740 160 L 720 160 L 720 140 L 720 120 L 700 120 L 680 120 z "
     style="fill:#000000" />
</svg>
