<?xml version="1.0" encoding="UTF-8" standalone="no"?>
<svg
   xmlns:dc="http://purl.org/dc/elements/1.1/"
   xmlns:cc="http://creativecommons.org/ns#"
   xmlns:rdf="http://www.w3.org/1999/02/22-rdf-syntax-ns#"
   xmlns:svg="http://www.w3.org/2000/svg"
   xmlns="http://www.w3.org/2000/svg"
   height="960px"
   version="1.1"
   width="960px"
   id="svg3658">
  <metadata
     id="metadata3662">
    <rdf:RDF>
      <cc:Work
         rdf:about="">
        <dc:format>image/svg+xml</dc:format>
        <dc:type
           rdf:resource="http://purl.org/dc/dcmitype/StillImage" />
      </cc:Work>
    </rdf:RDF>
  </metadata>
  <defs
     id="defs2" />
  <path
     id="rect2610"
     d="M 660 480 L 660 500 L 680 500 L 680 480 L 660 480 z M 660 500 L 640 500 L 640 520 L 660 520 L 660 500 z M 640 520 L 620 520 L 620 540 L 640 540 L 640 520 z M 640 540 L 640 560 L 660 560 L 660 540 L 640 540 z M 660 560 L 660 580 L 680 580 L 680 560 L 660 560 z M 660 580 L 640 580 L 640 600 L 660 600 L 660 580 z M 640 600 L 620 600 L 620 620 L 640 620 L 640 600 z M 640 620 L 640 640 L 660 640 L 660 620 L 640 620 z M 660 640 L 660 660 L 680 660 L 680 640 L 660 640 z M 480 500 L 480 520 L 500 520 L 500 500 L 480 500 z M 480 520 L 460 520 L 460 540 L 480 540 L 480 520 z M 480 540 L 480 560 L 500 560 L 500 540 L 480 540 z M 480 560 L 460 560 L 460 580 L 480 580 L 480 560 z M 480 580 L 480 600 L 500 600 L 500 580 L 480 580 z M 500 600 L 500 620 L 520 620 L 520 600 L 500 600 z M 520 620 L 520 640 L 540 640 L 540 620 L 520 620 z M 540 620 L 560 620 L 560 600 L 540 600 L 540 620 z M 560 620 L 560 640 L 580 640 L 580 620 L 560 620 z M 580 620 L 600 620 L 600 600 L 580 600 L 580 620 z M 560 640 L 540 640 L 540 660 L 560 660 L 560 640 z M 560 660 L 560 680 L 580 680 L 580 660 L 560 660 z M 560 680 L 540 680 L 540 700 L 560 700 L 560 680 z M 480 600 L 460 600 L 460 620 L 480 620 L 480 600 z M 460 620 L 440 620 L 440 640 L 460 640 L 460 620 z M 440 640 L 420 640 L 420 660 L 420 680 L 420 700 L 440 700 L 440 680 L 440 660 L 440 640 z M 420 560 L 420 580 L 440 580 L 440 560 L 420 560 z M 700 560 L 700 580 L 720 580 L 720 560 L 700 560 z "
     style="fill:#ffff00" />
  <path
     id="rect2768"
     d="M 460 480 L 460 500 L 480 500 L 500 500 L 500 480 L 480 480 L 460 480 z M 500 500 L 500 520 L 500 540 L 520 540 L 520 520 L 520 500 L 500 500 z M 660 500 L 660 520 L 660 540 L 660 560 L 680 560 L 680 540 L 680 520 L 680 500 L 660 500 z M 600 520 L 600 540 L 620 540 L 620 520 L 600 520 z M 460 540 L 460 560 L 480 560 L 480 540 L 460 540 z M 400 580 L 400 600 L 400 620 L 420 620 L 420 600 L 440 600 L 440 580 L 420 580 L 400 580 z M 420 620 L 420 640 L 440 640 L 440 620 L 420 620 z M 420 640 L 400 640 L 400 660 L 400 680 L 400 700 L 420 700 L 420 680 L 420 660 L 420 640 z M 500 580 L 500 600 L 520 600 L 520 580 L 500 580 z M 600 580 L 600 600 L 620 600 L 620 580 L 600 580 z M 680 580 L 680 600 L 680 620 L 700 620 L 720 620 L 720 600 L 720 580 L 700 580 L 680 580 z M 500 620 L 500 640 L 480 640 L 460 640 L 460 660 L 460 680 L 460 700 L 480 700 L 480 680 L 500 680 L 500 660 L 520 660 L 520 680 L 520 700 L 520 720 L 540 720 L 540 740 L 560 740 L 580 740 L 580 720 L 580 700 L 560 700 L 540 700 L 540 680 L 540 660 L 540 640 L 520 640 L 520 620 L 500 620 z M 600 640 L 600 660 L 620 660 L 640 660 L 640 680 L 660 680 L 660 700 L 680 700 L 700 700 L 700 680 L 700 660 L 680 660 L 660 660 L 660 640 L 640 640 L 620 640 L 600 640 z "
     style="fill:#808000" />
  <path
     id="rect3496"
     d="M 120 20 L 120 40 L 120 60 L 120 80 L 120 100 L 120 120 L 120 140 L 120 160 L 120 180 L 120 200 L 120 220 L 120 240 L 120 260 L 120 280 L 120 300 L 120 320 L 120 340 L 120 360 L 120 380 L 120 400 L 120 420 L 120 440 L 120 460 L 120 480 L 120 500 L 120 520 L 120 540 L 120 560 L 120 580 L 120 600 L 120 620 L 120 640 L 120 660 L 120 680 L 120 700 L 120 720 L 120 740 L 120 760 L 120 780 L 120 800 L 120 820 L 120 840 L 120 860 L 120 880 L 120 900 L 120 920 L 140 920 L 160 920 L 180 920 L 200 920 L 220 920 L 240 920 L 260 920 L 280 920 L 300 920 L 320 920 L 340 920 L 360 920 L 380 920 L 400 920 L 420 920 L 440 920 L 460 920 L 480 920 L 500 920 L 520 920 L 540 920 L 560 920 L 580 920 L 600 920 L 620 920 L 640 920 L 660 920 L 680 920 L 700 920 L 720 920 L 740 920 L 760 920 L 780 920 L 800 920 L 820 920 L 840 920 L 840 900 L 840 880 L 840 860 L 840 840 L 840 820 L 840 800 L 840 780 L 840 760 L 840 740 L 840 720 L 840 700 L 840 680 L 840 660 L 840 640 L 840 620 L 840 600 L 840 580 L 840 560 L 840 540 L 840 520 L 840 500 L 840 480 L 840 460 L 840 440 L 840 420 L 840 400 L 840 380 L 840 360 L 840 340 L 840 320 L 840 300 L 840 280 L 840 260 L 840 240 L 840 220 L 820 220 L 800 220 L 780 220 L 760 220 L 740 220 L 720 220 L 700 220 L 680 220 L 680 200 L 680 180 L 680 160 L 680 140 L 680 120 L 680 100 L 680 80 L 680 60 L 680 40 L 680 20 L 660 20 L 640 20 L 620 20 L 600 20 L 580 20 L 560 20 L 540 20 L 520 20 L 500 20 L 480 20 L 460 20 L 440 20 L 420 20 L 400 20 L 380 20 L 360 20 L 340 20 L 320 20 L 300 20 L 280 20 L 260 20 L 240 20 L 220 20 L 200 20 L 180 20 L 160 20 L 140 20 L 120 20 z M 700 80 L 700 100 L 700 120 L 700 140 L 700 160 L 700 180 L 700 200 L 720 200 L 740 200 L 760 200 L 780 200 L 800 200 L 820 200 L 820 180 L 800 180 L 800 160 L 780 160 L 780 140 L 760 140 L 760 120 L 740 120 L 740 100 L 720 100 L 720 80 L 700 80 z M 320 320 L 340 320 L 360 320 L 360 340 L 380 340 L 380 320 L 400 320 L 420 320 L 440 320 L 440 340 L 460 340 L 460 360 L 480 360 L 480 340 L 500 340 L 500 320 L 520 320 L 540 320 L 540 340 L 560 340 L 560 360 L 560 380 L 560 400 L 580 400 L 580 420 L 600 420 L 600 440 L 600 460 L 600 480 L 600 500 L 620 500 L 620 480 L 640 480 L 640 460 L 660 460 L 680 460 L 680 480 L 700 480 L 700 500 L 700 520 L 700 540 L 720 540 L 720 560 L 740 560 L 740 580 L 740 600 L 740 620 L 720 620 L 720 640 L 720 660 L 720 680 L 720 700 L 700 700 L 700 720 L 680 720 L 660 720 L 660 700 L 640 700 L 640 680 L 620 680 L 600 680 L 600 700 L 600 720 L 600 740 L 580 740 L 580 760 L 560 760 L 540 760 L 540 740 L 520 740 L 520 720 L 520 700 L 520 680 L 500 680 L 500 700 L 480 700 L 480 720 L 460 720 L 440 720 L 420 720 L 420 700 L 400 700 L 400 680 L 400 660 L 400 640 L 380 640 L 380 620 L 380 600 L 380 580 L 380 560 L 380 540 L 360 540 L 360 560 L 340 560 L 340 580 L 320 580 L 300 580 L 280 580 L 280 560 L 260 560 L 260 540 L 260 520 L 260 500 L 240 500 L 240 480 L 240 460 L 240 440 L 240 420 L 260 420 L 260 400 L 280 400 L 300 400 L 300 380 L 300 360 L 300 340 L 320 340 L 320 320 z M 260 420 L 260 440 L 280 440 L 280 420 L 260 420 z M 640 480 L 640 500 L 660 500 L 660 480 L 640 480 z M 640 500 L 620 500 L 620 520 L 640 520 L 640 500 z M 640 520 L 640 540 L 660 540 L 660 520 L 640 520 z M 640 540 L 620 540 L 620 560 L 640 560 L 640 540 z M 640 560 L 640 580 L 660 580 L 660 560 L 640 560 z M 640 580 L 620 580 L 620 600 L 640 600 L 640 580 z M 640 600 L 640 620 L 660 620 L 660 600 L 640 600 z M 660 620 L 660 640 L 680 640 L 680 620 L 660 620 z M 680 640 L 680 660 L 700 660 L 700 640 L 680 640 z M 620 600 L 600 600 L 600 620 L 620 620 L 620 600 z M 600 620 L 580 620 L 580 640 L 600 640 L 600 620 z M 580 640 L 560 640 L 560 660 L 580 660 L 580 640 z M 560 660 L 540 660 L 540 680 L 560 680 L 560 660 z M 560 680 L 560 700 L 580 700 L 580 680 L 560 680 z M 560 640 L 560 620 L 540 620 L 540 640 L 560 640 z M 540 620 L 540 600 L 520 600 L 520 620 L 540 620 z M 560 620 L 580 620 L 580 600 L 560 600 L 560 620 z M 620 580 L 620 560 L 600 560 L 600 580 L 620 580 z M 500 340 L 500 360 L 520 360 L 520 340 L 500 340 z M 500 360 L 480 360 L 480 380 L 500 380 L 500 360 z M 500 380 L 500 400 L 520 400 L 520 380 L 500 380 z M 500 400 L 480 400 L 480 420 L 500 420 L 500 400 z M 500 420 L 500 440 L 520 440 L 520 420 L 500 420 z M 500 440 L 480 440 L 480 460 L 500 460 L 500 440 z M 500 460 L 500 480 L 520 480 L 520 460 L 500 460 z M 480 440 L 480 420 L 460 420 L 460 440 L 480 440 z M 400 340 L 400 360 L 420 360 L 420 340 L 400 340 z M 400 360 L 380 360 L 380 380 L 400 380 L 400 360 z M 400 380 L 400 400 L 400 420 L 400 440 L 420 440 L 420 420 L 420 400 L 420 380 L 400 380 z M 320 360 L 320 380 L 340 380 L 340 360 L 320 360 z M 340 380 L 340 400 L 360 400 L 360 380 L 340 380 z M 300 420 L 300 440 L 320 440 L 320 420 L 300 420 z M 320 440 L 320 460 L 340 460 L 340 440 L 320 440 z M 340 460 L 340 480 L 360 480 L 360 460 L 340 460 z M 320 460 L 300 460 L 300 480 L 320 480 L 320 460 z M 360 420 L 360 440 L 380 440 L 380 420 L 360 420 z M 540 420 L 540 440 L 560 440 L 560 420 L 540 420 z M 380 460 L 380 480 L 400 480 L 400 460 L 380 460 z M 400 480 L 400 500 L 420 500 L 420 480 L 400 480 z M 420 480 L 440 480 L 440 460 L 420 460 L 420 480 z M 420 500 L 420 520 L 440 520 L 440 500 L 420 500 z M 420 520 L 400 520 L 400 540 L 420 540 L 420 520 z M 540 480 L 540 500 L 560 500 L 560 480 L 540 480 z M 460 500 L 460 520 L 480 520 L 480 500 L 460 500 z M 480 520 L 480 540 L 500 540 L 500 520 L 480 520 z M 540 520 L 540 540 L 540 560 L 540 580 L 560 580 L 560 560 L 560 540 L 560 520 L 540 520 z M 400 560 L 400 580 L 420 580 L 420 560 L 400 560 z M 440 560 L 440 580 L 460 580 L 460 560 L 440 560 z M 460 580 L 460 600 L 480 600 L 480 580 L 460 580 z M 480 600 L 480 620 L 500 620 L 500 600 L 480 600 z M 460 600 L 440 600 L 440 620 L 460 620 L 460 600 z M 500 560 L 500 580 L 520 580 L 520 560 L 500 560 z M 680 560 L 680 580 L 700 580 L 700 560 L 680 560 z "
     style="fill:#ffffff" />
  <path
     id="rect3504"
     d="M 100 0 L 100 20 L 100 40 L 100 60 L 100 80 L 100 100 L 100 120 L 100 140 L 100 160 L 100 180 L 100 200 L 100 220 L 100 240 L 100 260 L 100 280 L 100 300 L 100 320 L 100 340 L 100 360 L 100 380 L 100 400 L 100 420 L 100 440 L 100 460 L 100 480 L 100 500 L 100 520 L 100 540 L 100 560 L 100 580 L 100 600 L 100 620 L 100 640 L 100 660 L 100 680 L 100 700 L 100 720 L 100 740 L 100 760 L 100 780 L 100 800 L 100 820 L 100 840 L 100 860 L 100 880 L 100 900 L 100 920 L 100 940 L 120 940 L 140 940 L 140 920 L 120 920 L 120 900 L 120 880 L 120 860 L 120 840 L 120 820 L 120 800 L 120 780 L 120 760 L 120 740 L 120 720 L 120 700 L 120 680 L 120 660 L 120 640 L 120 620 L 120 600 L 120 580 L 120 560 L 120 540 L 120 520 L 120 500 L 120 480 L 120 460 L 120 440 L 120 420 L 120 400 L 120 380 L 120 360 L 120 340 L 120 320 L 120 300 L 120 280 L 120 260 L 120 240 L 120 220 L 120 200 L 120 180 L 120 160 L 120 140 L 120 120 L 120 100 L 120 80 L 120 60 L 120 40 L 120 20 L 140 20 L 160 20 L 180 20 L 200 20 L 220 20 L 240 20 L 260 20 L 280 20 L 300 20 L 320 20 L 340 20 L 360 20 L 380 20 L 400 20 L 420 20 L 440 20 L 460 20 L 480 20 L 500 20 L 520 20 L 540 20 L 560 20 L 580 20 L 600 20 L 620 20 L 640 20 L 660 20 L 680 20 L 680 40 L 680 60 L 680 80 L 680 100 L 680 120 L 680 140 L 680 160 L 680 180 L 680 200 L 680 220 L 700 220 L 700 200 L 700 180 L 700 160 L 700 140 L 700 120 L 700 100 L 700 80 L 700 60 L 720 60 L 720 40 L 700 40 L 700 20 L 700 0 L 680 0 L 660 0 L 640 0 L 620 0 L 600 0 L 580 0 L 560 0 L 540 0 L 520 0 L 500 0 L 480 0 L 460 0 L 440 0 L 420 0 L 400 0 L 380 0 L 360 0 L 340 0 L 320 0 L 300 0 L 280 0 L 260 0 L 240 0 L 220 0 L 200 0 L 180 0 L 160 0 L 140 0 L 120 0 L 100 0 z M 720 60 L 720 80 L 740 80 L 740 60 L 720 60 z M 740 80 L 740 100 L 760 100 L 760 80 L 740 80 z M 760 100 L 760 120 L 780 120 L 780 100 L 760 100 z M 780 120 L 780 140 L 800 140 L 800 120 L 780 120 z M 800 140 L 800 160 L 820 160 L 820 140 L 800 140 z M 820 160 L 820 180 L 840 180 L 840 160 L 820 160 z M 840 180 L 840 200 L 860 200 L 860 180 L 840 180 z M 320 340 L 320 360 L 340 360 L 360 360 L 360 340 L 340 340 L 320 340 z M 360 360 L 360 380 L 360 400 L 380 400 L 380 420 L 380 440 L 400 440 L 400 420 L 400 400 L 400 380 L 380 380 L 380 360 L 360 360 z M 380 360 L 400 360 L 400 340 L 380 340 L 380 360 z M 400 360 L 400 380 L 420 380 L 420 400 L 420 420 L 420 440 L 440 440 L 440 420 L 440 400 L 440 380 L 440 360 L 420 360 L 400 360 z M 380 440 L 360 440 L 360 460 L 380 460 L 380 440 z M 520 360 L 520 380 L 520 400 L 520 420 L 540 420 L 540 400 L 540 380 L 540 360 L 520 360 z M 460 380 L 460 400 L 480 400 L 480 380 L 460 380 z M 320 400 L 320 420 L 340 420 L 340 400 L 320 400 z M 260 440 L 260 460 L 260 480 L 280 480 L 280 460 L 300 460 L 300 440 L 280 440 L 260 440 z M 280 480 L 280 500 L 300 500 L 300 480 L 280 480 z M 280 500 L 260 500 L 260 520 L 260 540 L 260 560 L 280 560 L 280 540 L 280 520 L 280 500 z M 460 440 L 460 460 L 480 460 L 480 440 L 460 440 z M 540 440 L 540 460 L 560 460 L 580 460 L 580 440 L 560 440 L 540 440 z M 580 460 L 580 480 L 600 480 L 600 460 L 580 460 z M 580 480 L 560 480 L 560 500 L 540 500 L 540 480 L 520 480 L 520 500 L 520 520 L 520 540 L 520 560 L 520 580 L 540 580 L 540 560 L 540 540 L 540 520 L 560 520 L 560 540 L 560 560 L 560 580 L 580 580 L 580 560 L 580 540 L 580 520 L 580 500 L 580 480 z M 360 480 L 360 500 L 340 500 L 320 500 L 320 520 L 320 540 L 320 560 L 340 560 L 340 540 L 360 540 L 360 520 L 380 520 L 380 540 L 380 560 L 400 560 L 400 540 L 400 520 L 400 500 L 380 500 L 380 480 L 360 480 z "
     style="fill:#808080" />
  <path
     id="rect3576"
     d="M 700 60 L 700 80 L 720 80 L 720 60 L 700 60 z M 720 80 L 720 100 L 740 100 L 740 80 L 720 80 z M 740 100 L 740 120 L 760 120 L 760 100 L 740 100 z M 760 120 L 760 140 L 780 140 L 780 120 L 760 120 z M 780 140 L 780 160 L 800 160 L 800 140 L 780 140 z M 800 160 L 800 180 L 820 180 L 820 160 L 800 160 z M 820 180 L 820 200 L 840 200 L 840 180 L 820 180 z M 840 220 L 840 240 L 840 260 L 840 280 L 840 300 L 840 320 L 840 340 L 840 360 L 840 380 L 840 400 L 840 420 L 840 440 L 840 460 L 840 480 L 840 500 L 840 520 L 840 540 L 840 560 L 840 580 L 840 600 L 840 620 L 840 640 L 840 660 L 840 680 L 840 700 L 840 720 L 840 740 L 840 760 L 840 780 L 840 800 L 840 820 L 840 840 L 840 860 L 840 880 L 840 900 L 840 920 L 820 920 L 800 920 L 780 920 L 760 920 L 740 920 L 720 920 L 700 920 L 680 920 L 660 920 L 640 920 L 620 920 L 600 920 L 580 920 L 560 920 L 540 920 L 520 920 L 500 920 L 480 920 L 460 920 L 440 920 L 420 920 L 400 920 L 380 920 L 360 920 L 340 920 L 320 920 L 300 920 L 280 920 L 260 920 L 240 920 L 220 920 L 200 920 L 180 920 L 160 920 L 140 920 L 140 940 L 160 940 L 180 940 L 200 940 L 220 940 L 240 940 L 260 940 L 280 940 L 300 940 L 320 940 L 340 940 L 360 940 L 380 940 L 400 940 L 420 940 L 440 940 L 460 940 L 480 940 L 500 940 L 520 940 L 540 940 L 560 940 L 580 940 L 600 940 L 620 940 L 640 940 L 660 940 L 680 940 L 700 940 L 720 940 L 740 940 L 760 940 L 780 940 L 800 940 L 820 940 L 840 940 L 860 940 L 860 920 L 860 900 L 860 880 L 860 860 L 860 840 L 860 820 L 860 800 L 860 780 L 860 760 L 860 740 L 860 720 L 860 700 L 860 680 L 860 660 L 860 640 L 860 620 L 860 600 L 860 580 L 860 560 L 860 540 L 860 520 L 860 500 L 860 480 L 860 460 L 860 440 L 860 420 L 860 400 L 860 380 L 860 360 L 860 340 L 860 320 L 860 300 L 860 280 L 860 260 L 860 240 L 860 220 L 840 220 z M 380 320 L 380 340 L 400 340 L 400 320 L 380 320 z M 420 340 L 420 360 L 440 360 L 440 340 L 420 340 z M 520 340 L 520 360 L 540 360 L 540 340 L 520 340 z M 520 360 L 500 360 L 500 380 L 520 380 L 520 360 z M 500 380 L 480 380 L 480 400 L 500 400 L 500 380 z M 500 400 L 500 420 L 520 420 L 520 400 L 500 400 z M 520 420 L 520 440 L 540 440 L 540 420 L 520 420 z M 520 440 L 500 440 L 500 460 L 520 460 L 520 440 z M 520 460 L 520 480 L 540 480 L 540 460 L 520 460 z M 340 360 L 340 380 L 360 380 L 360 360 L 340 360 z M 340 380 L 320 380 L 320 400 L 340 400 L 340 380 z M 340 400 L 340 420 L 360 420 L 360 400 L 340 400 z M 340 420 L 320 420 L 320 440 L 340 440 L 340 420 z M 340 440 L 340 460 L 360 460 L 360 440 L 340 440 z M 360 460 L 360 480 L 380 480 L 380 460 L 360 460 z M 380 480 L 380 500 L 400 500 L 400 480 L 380 480 z M 400 480 L 420 480 L 420 460 L 400 460 L 400 480 z M 420 480 L 420 500 L 440 500 L 440 480 L 420 480 z M 440 480 L 460 480 L 460 460 L 440 460 L 440 480 z M 420 500 L 400 500 L 400 520 L 420 520 L 420 500 z M 420 520 L 420 540 L 440 540 L 440 520 L 420 520 z M 340 460 L 320 460 L 320 480 L 340 480 L 340 460 z M 320 480 L 300 480 L 300 500 L 320 500 L 320 480 z M 300 500 L 280 500 L 280 520 L 280 540 L 280 560 L 300 560 L 300 540 L 300 520 L 300 500 z M 280 420 L 280 440 L 300 440 L 300 420 L 280 420 z M 560 420 L 560 440 L 580 440 L 580 420 L 560 420 z "
     style="fill:#c0c0c0" />
  <path
     id="rect3656"
     d="M 700 20 L 700 40 L 720 40 L 720 20 L 700 20 z M 720 40 L 720 60 L 740 60 L 740 40 L 720 40 z M 740 60 L 740 80 L 760 80 L 760 60 L 740 60 z M 760 80 L 760 100 L 780 100 L 780 80 L 760 80 z M 780 100 L 780 120 L 800 120 L 800 100 L 780 100 z M 800 120 L 800 140 L 820 140 L 820 120 L 800 120 z M 820 140 L 820 160 L 840 160 L 840 140 L 820 140 z M 840 160 L 840 180 L 860 180 L 860 160 L 840 160 z M 860 180 L 860 200 L 840 200 L 820 200 L 800 200 L 780 200 L 760 200 L 740 200 L 720 200 L 700 200 L 700 220 L 720 220 L 740 220 L 760 220 L 780 220 L 800 220 L 820 220 L 840 220 L 860 220 L 860 240 L 860 260 L 860 280 L 860 300 L 860 320 L 860 340 L 860 360 L 860 380 L 860 400 L 860 420 L 860 440 L 860 460 L 860 480 L 860 500 L 860 520 L 860 540 L 860 560 L 860 580 L 860 600 L 860 620 L 860 640 L 860 660 L 860 680 L 860 700 L 860 720 L 860 740 L 860 760 L 860 780 L 860 800 L 860 820 L 860 840 L 860 860 L 860 880 L 860 900 L 860 920 L 860 940 L 840 940 L 820 940 L 800 940 L 780 940 L 760 940 L 740 940 L 720 940 L 700 940 L 680 940 L 660 940 L 640 940 L 620 940 L 600 940 L 580 940 L 560 940 L 540 940 L 520 940 L 500 940 L 480 940 L 460 940 L 440 940 L 420 940 L 400 940 L 380 940 L 360 940 L 340 940 L 320 940 L 300 940 L 280 940 L 260 940 L 240 940 L 220 940 L 200 940 L 180 940 L 160 940 L 140 940 L 120 940 L 100 940 L 100 960 L 120 960 L 140 960 L 160 960 L 180 960 L 200 960 L 220 960 L 240 960 L 260 960 L 280 960 L 300 960 L 320 960 L 340 960 L 360 960 L 380 960 L 400 960 L 420 960 L 440 960 L 460 960 L 480 960 L 500 960 L 520 960 L 540 960 L 560 960 L 580 960 L 600 960 L 620 960 L 640 960 L 660 960 L 680 960 L 700 960 L 720 960 L 740 960 L 760 960 L 780 960 L 800 960 L 820 960 L 840 960 L 860 960 L 880 960 L 880 940 L 880 920 L 880 900 L 880 880 L 880 860 L 880 840 L 880 820 L 880 800 L 880 780 L 880 760 L 880 740 L 880 720 L 880 700 L 880 680 L 880 660 L 880 640 L 880 620 L 880 600 L 880 580 L 880 560 L 880 540 L 880 520 L 880 500 L 880 480 L 880 460 L 880 440 L 880 420 L 880 400 L 880 380 L 880 360 L 880 340 L 880 320 L 880 300 L 880 280 L 880 260 L 880 240 L 880 220 L 880 200 L 880 180 L 860 180 z M 320 320 L 320 340 L 340 340 L 360 340 L 360 320 L 340 320 L 320 320 z M 360 340 L 360 360 L 380 360 L 380 340 L 360 340 z M 320 340 L 300 340 L 300 360 L 300 380 L 300 400 L 280 400 L 260 400 L 260 420 L 280 420 L 300 420 L 320 420 L 320 400 L 320 380 L 320 360 L 320 340 z M 260 420 L 240 420 L 240 440 L 240 460 L 240 480 L 240 500 L 260 500 L 280 500 L 280 480 L 260 480 L 260 460 L 260 440 L 260 420 z M 280 480 L 300 480 L 300 460 L 280 460 L 280 480 z M 300 460 L 320 460 L 320 440 L 300 440 L 300 460 z M 400 320 L 400 340 L 420 340 L 440 340 L 440 320 L 420 320 L 400 320 z M 440 340 L 440 360 L 440 380 L 440 400 L 440 420 L 440 440 L 420 440 L 400 440 L 380 440 L 380 460 L 400 460 L 420 460 L 440 460 L 460 460 L 460 440 L 460 420 L 480 420 L 480 400 L 460 400 L 460 380 L 480 380 L 480 360 L 460 360 L 460 340 L 440 340 z M 480 360 L 500 360 L 500 340 L 480 340 L 480 360 z M 500 340 L 520 340 L 540 340 L 540 320 L 520 320 L 500 320 L 500 340 z M 540 340 L 540 360 L 540 380 L 540 400 L 540 420 L 560 420 L 580 420 L 580 400 L 560 400 L 560 380 L 560 360 L 560 340 L 540 340 z M 580 420 L 580 440 L 580 460 L 600 460 L 600 440 L 600 420 L 580 420 z M 580 460 L 560 460 L 540 460 L 540 480 L 560 480 L 580 480 L 580 460 z M 580 480 L 580 500 L 580 520 L 580 540 L 580 560 L 580 580 L 560 580 L 540 580 L 520 580 L 520 600 L 540 600 L 560 600 L 580 600 L 600 600 L 600 580 L 600 560 L 620 560 L 620 540 L 600 540 L 600 520 L 620 520 L 620 500 L 600 500 L 600 480 L 580 480 z M 620 500 L 640 500 L 640 480 L 620 480 L 620 500 z M 640 480 L 660 480 L 680 480 L 680 460 L 660 460 L 640 460 L 640 480 z M 680 480 L 680 500 L 680 520 L 680 540 L 680 560 L 700 560 L 720 560 L 720 540 L 700 540 L 700 520 L 700 500 L 700 480 L 680 480 z M 720 560 L 720 580 L 720 600 L 720 620 L 740 620 L 740 600 L 740 580 L 740 560 L 720 560 z M 720 620 L 700 620 L 680 620 L 680 640 L 700 640 L 700 660 L 700 680 L 700 700 L 720 700 L 720 680 L 720 660 L 720 640 L 720 620 z M 700 700 L 680 700 L 660 700 L 660 720 L 680 720 L 700 720 L 700 700 z M 660 700 L 660 680 L 640 680 L 640 700 L 660 700 z M 640 680 L 640 660 L 620 660 L 600 660 L 600 640 L 580 640 L 580 660 L 580 680 L 580 700 L 580 720 L 580 740 L 600 740 L 600 720 L 600 700 L 600 680 L 620 680 L 640 680 z M 580 740 L 560 740 L 540 740 L 540 760 L 560 760 L 580 760 L 580 740 z M 540 740 L 540 720 L 520 720 L 520 740 L 540 740 z M 600 640 L 620 640 L 640 640 L 640 620 L 620 620 L 600 620 L 600 640 z M 680 620 L 680 600 L 680 580 L 660 580 L 660 600 L 660 620 L 680 620 z M 620 560 L 620 580 L 640 580 L 640 560 L 620 560 z M 540 460 L 540 440 L 520 440 L 520 460 L 540 460 z M 480 420 L 480 440 L 500 440 L 500 420 L 480 420 z M 460 460 L 460 480 L 480 480 L 500 480 L 500 460 L 480 460 L 460 460 z M 500 480 L 500 500 L 520 500 L 520 480 L 500 480 z M 460 480 L 440 480 L 440 500 L 440 520 L 440 540 L 420 540 L 400 540 L 400 560 L 420 560 L 440 560 L 460 560 L 460 540 L 460 520 L 460 500 L 460 480 z M 400 560 L 380 560 L 380 580 L 380 600 L 380 620 L 380 640 L 400 640 L 420 640 L 420 620 L 400 620 L 400 600 L 400 580 L 400 560 z M 420 620 L 440 620 L 440 600 L 420 600 L 420 620 z M 440 600 L 460 600 L 460 580 L 440 580 L 440 600 z M 360 400 L 360 420 L 380 420 L 380 400 L 360 400 z M 360 420 L 340 420 L 340 440 L 360 440 L 360 420 z M 320 480 L 320 500 L 340 500 L 360 500 L 360 480 L 340 480 L 320 480 z M 320 500 L 300 500 L 300 520 L 300 540 L 300 560 L 280 560 L 280 580 L 300 580 L 320 580 L 340 580 L 340 560 L 320 560 L 320 540 L 320 520 L 320 500 z M 340 560 L 360 560 L 360 540 L 340 540 L 340 560 z M 360 540 L 380 540 L 380 520 L 360 520 L 360 540 z M 500 540 L 500 560 L 520 560 L 520 540 L 500 540 z M 500 560 L 480 560 L 480 580 L 500 580 L 500 560 z M 460 620 L 460 640 L 480 640 L 500 640 L 500 620 L 480 620 L 460 620 z M 460 640 L 440 640 L 440 660 L 440 680 L 440 700 L 420 700 L 420 720 L 440 720 L 460 720 L 480 720 L 480 700 L 460 700 L 460 680 L 460 660 L 460 640 z M 480 700 L 500 700 L 500 680 L 480 680 L 480 700 z M 500 680 L 520 680 L 520 660 L 500 660 L 500 680 z "
     style="fill:#000000" />
</svg>
