<?xml version="1.0" encoding="UTF-8" standalone="no"?>
<svg
   xmlns:dc="http://purl.org/dc/elements/1.1/"
   xmlns:cc="http://creativecommons.org/ns#"
   xmlns:rdf="http://www.w3.org/1999/02/22-rdf-syntax-ns#"
   xmlns:svg="http://www.w3.org/2000/svg"
   xmlns="http://www.w3.org/2000/svg"
   height="960px"
   version="1.1"
   width="960px"
   id="svg3662">
  <metadata
     id="metadata3666">
    <rdf:RDF>
      <cc:Work
         rdf:about="">
        <dc:format>image/svg+xml</dc:format>
        <dc:type
           rdf:resource="http://purl.org/dc/dcmitype/StillImage" />
      </cc:Work>
    </rdf:RDF>
  </metadata>
  <defs
     id="defs2" />
  <path
     id="rect2246"
     d="M 100 120 L 100 140 L 80 140 L 80 160 L 60 160 L 60 180 L 40 180 L 40 200 L 40 220 L 40 240 L 40 260 L 60 260 L 60 280 L 60 300 L 40 300 L 40 320 L 60 320 L 60 340 L 80 340 L 80 360 L 100 360 L 100 380 L 120 380 L 120 400 L 140 400 L 160 400 L 180 400 L 200 400 L 220 400 L 220 380 L 240 380 L 240 400 L 260 400 L 260 420 L 260 440 L 280 440 L 280 460 L 300 460 L 320 460 L 320 480 L 340 480 L 340 500 L 360 500 L 360 520 L 380 520 L 380 540 L 380 560 L 400 560 L 400 580 L 420 580 L 440 580 L 460 580 L 460 560 L 440 560 L 440 540 L 420 540 L 420 520 L 400 520 L 400 500 L 380 500 L 380 480 L 360 480 L 360 460 L 340 460 L 340 440 L 320 440 L 320 420 L 300 420 L 300 400 L 280 400 L 280 380 L 260 380 L 260 360 L 240 360 L 240 340 L 260 340 L 280 340 L 280 360 L 300 360 L 300 380 L 320 380 L 320 400 L 340 400 L 340 420 L 360 420 L 360 440 L 380 440 L 380 460 L 400 460 L 400 480 L 420 480 L 420 500 L 440 500 L 440 520 L 460 520 L 460 540 L 480 540 L 480 560 L 500 560 L 500 540 L 500 520 L 480 520 L 480 500 L 460 500 L 460 480 L 440 480 L 440 460 L 420 460 L 420 440 L 400 440 L 400 420 L 380 420 L 380 400 L 360 400 L 360 380 L 340 380 L 340 360 L 320 360 L 320 340 L 300 340 L 300 320 L 300 300 L 320 300 L 320 280 L 320 260 L 320 240 L 320 220 L 320 200 L 300 200 L 300 180 L 280 180 L 280 160 L 260 160 L 260 140 L 240 140 L 220 140 L 200 140 L 180 140 L 160 140 L 140 140 L 120 140 L 120 120 L 100 120 z M 120 160 L 140 160 L 160 160 L 160 180 L 160 200 L 140 200 L 140 220 L 120 220 L 120 240 L 100 240 L 100 220 L 80 220 L 80 200 L 100 200 L 100 180 L 120 180 L 120 160 z M 220 180 L 240 180 L 240 200 L 260 200 L 260 220 L 280 220 L 280 240 L 260 240 L 260 260 L 240 260 L 240 280 L 220 280 L 220 300 L 200 300 L 200 320 L 180 320 L 180 340 L 160 340 L 160 360 L 140 360 L 140 340 L 120 340 L 120 320 L 100 320 L 100 300 L 120 300 L 120 280 L 140 280 L 140 260 L 160 260 L 160 240 L 180 240 L 180 220 L 200 220 L 200 200 L 220 200 L 220 180 z M 220 200 L 220 220 L 200 220 L 200 240 L 180 240 L 180 260 L 160 260 L 160 280 L 140 280 L 140 300 L 120 300 L 120 320 L 140 320 L 140 340 L 160 340 L 160 320 L 180 320 L 180 300 L 200 300 L 200 280 L 220 280 L 220 260 L 240 260 L 240 240 L 260 240 L 260 220 L 240 220 L 240 200 L 220 200 z "
     style="fill:#ffff00" />
  <path
     id="rect2400"
     d="M 120 120 L 120 140 L 140 140 L 160 140 L 180 140 L 180 120 L 160 120 L 140 120 L 120 120 z M 220 120 L 220 140 L 240 140 L 260 140 L 260 120 L 240 120 L 220 120 z M 260 140 L 260 160 L 280 160 L 280 140 L 260 140 z M 280 160 L 280 180 L 300 180 L 300 160 L 280 160 z M 300 180 L 300 200 L 320 200 L 320 180 L 300 180 z M 320 200 L 320 220 L 320 240 L 320 260 L 320 280 L 320 300 L 340 300 L 340 280 L 340 260 L 340 240 L 340 220 L 340 200 L 320 200 z M 320 300 L 300 300 L 300 320 L 320 320 L 320 300 z M 120 160 L 120 180 L 100 180 L 100 200 L 80 200 L 80 220 L 100 220 L 120 220 L 120 200 L 140 200 L 140 180 L 160 180 L 160 160 L 140 160 L 120 160 z M 220 180 L 220 200 L 240 200 L 240 180 L 220 180 z M 220 200 L 200 200 L 200 220 L 220 220 L 220 200 z M 200 220 L 180 220 L 180 240 L 200 240 L 200 220 z M 180 240 L 160 240 L 160 260 L 180 260 L 180 240 z M 160 260 L 140 260 L 140 280 L 160 280 L 160 260 z M 140 280 L 120 280 L 120 300 L 140 300 L 140 280 z M 120 300 L 100 300 L 100 320 L 120 320 L 120 300 z M 120 320 L 120 340 L 140 340 L 140 320 L 120 320 z M 140 340 L 140 360 L 160 360 L 160 340 L 140 340 z M 40 320 L 40 340 L 60 340 L 60 320 L 40 320 z M 60 340 L 60 360 L 80 360 L 80 340 L 60 340 z M 80 360 L 80 380 L 100 380 L 100 360 L 80 360 z M 100 380 L 100 400 L 120 400 L 120 380 L 100 380 z M 100 400 L 80 400 L 80 380 L 60 380 L 60 360 L 40 360 L 40 380 L 40 400 L 60 400 L 60 420 L 80 420 L 80 440 L 100 440 L 120 440 L 140 440 L 160 440 L 180 440 L 200 440 L 220 440 L 220 420 L 200 420 L 180 420 L 160 420 L 140 420 L 120 420 L 100 420 L 100 400 z M 220 420 L 240 420 L 240 400 L 220 400 L 220 420 z M 240 340 L 240 360 L 260 360 L 260 340 L 240 340 z M 260 360 L 260 380 L 280 380 L 280 360 L 260 360 z M 280 380 L 280 400 L 300 400 L 300 380 L 280 380 z M 300 400 L 300 420 L 320 420 L 320 400 L 300 400 z M 320 420 L 320 440 L 340 440 L 340 420 L 320 420 z M 340 440 L 340 460 L 360 460 L 360 440 L 340 440 z M 360 460 L 360 480 L 380 480 L 380 460 L 360 460 z M 380 480 L 380 500 L 400 500 L 400 480 L 380 480 z M 400 500 L 400 520 L 420 520 L 420 500 L 400 500 z M 420 520 L 420 540 L 440 540 L 440 520 L 420 520 z M 440 540 L 440 560 L 460 560 L 460 540 L 440 540 z M 460 560 L 460 580 L 480 580 L 480 560 L 460 560 z M 260 440 L 260 460 L 280 460 L 280 440 L 260 440 z M 300 460 L 300 480 L 320 480 L 320 460 L 300 460 z M 320 480 L 320 500 L 340 500 L 340 480 L 320 480 z M 300 480 L 280 480 L 260 480 L 260 500 L 280 500 L 300 500 L 300 480 z M 320 520 L 320 540 L 340 540 L 360 540 L 360 520 L 340 520 L 320 520 z M 380 560 L 380 580 L 400 580 L 400 560 L 380 560 z M 380 600 L 380 620 L 400 620 L 420 620 L 440 620 L 460 620 L 480 620 L 480 600 L 460 600 L 440 600 L 420 600 L 400 600 L 380 600 z "
     style="fill:#808000" />
  <path
     id="rect3428"
     d="M 200 40 L 200 60 L 200 80 L 200 100 L 220 100 L 240 100 L 260 100 L 260 120 L 280 120 L 280 140 L 300 140 L 300 160 L 320 160 L 320 180 L 340 180 L 340 200 L 360 200 L 360 220 L 380 220 L 400 220 L 420 220 L 440 220 L 460 220 L 480 220 L 500 220 L 520 220 L 540 220 L 560 220 L 580 220 L 600 220 L 620 220 L 640 220 L 660 220 L 680 220 L 680 240 L 700 240 L 700 260 L 700 280 L 700 300 L 700 320 L 700 340 L 700 360 L 700 380 L 700 400 L 700 420 L 700 440 L 720 440 L 740 440 L 760 440 L 780 440 L 800 440 L 820 440 L 820 460 L 840 460 L 840 480 L 840 500 L 840 520 L 840 540 L 840 560 L 840 580 L 840 600 L 840 620 L 840 640 L 840 660 L 840 680 L 840 700 L 840 720 L 840 740 L 840 760 L 840 780 L 840 800 L 820 800 L 800 800 L 780 800 L 760 800 L 740 800 L 720 800 L 700 800 L 680 800 L 660 800 L 640 800 L 620 800 L 600 800 L 580 800 L 560 800 L 540 800 L 520 800 L 500 800 L 480 800 L 460 800 L 440 800 L 420 800 L 420 780 L 400 780 L 400 760 L 400 740 L 400 720 L 400 700 L 400 680 L 400 660 L 400 640 L 380 640 L 380 620 L 360 620 L 360 600 L 360 580 L 360 560 L 340 560 L 320 560 L 320 540 L 300 540 L 300 520 L 280 520 L 260 520 L 260 500 L 240 500 L 240 480 L 240 460 L 220 460 L 200 460 L 200 480 L 200 500 L 200 520 L 200 540 L 200 560 L 200 580 L 200 600 L 200 620 L 200 640 L 200 660 L 200 680 L 200 700 L 200 720 L 200 740 L 200 760 L 200 780 L 200 800 L 200 820 L 200 840 L 200 860 L 200 880 L 220 880 L 240 880 L 260 880 L 280 880 L 300 880 L 320 880 L 340 880 L 360 880 L 380 880 L 400 880 L 420 880 L 440 880 L 460 880 L 480 880 L 500 880 L 520 880 L 540 880 L 560 880 L 580 880 L 600 880 L 620 880 L 640 880 L 660 880 L 680 880 L 700 880 L 720 880 L 740 880 L 760 880 L 780 880 L 800 880 L 820 880 L 840 880 L 860 880 L 880 880 L 880 860 L 880 840 L 880 820 L 880 800 L 880 780 L 880 760 L 880 740 L 880 720 L 880 700 L 880 680 L 880 660 L 880 640 L 880 620 L 880 600 L 880 580 L 880 560 L 880 540 L 880 520 L 880 500 L 880 480 L 880 460 L 880 440 L 880 420 L 880 400 L 880 380 L 880 360 L 880 340 L 880 320 L 880 300 L 880 280 L 880 260 L 880 240 L 880 220 L 860 220 L 840 220 L 820 220 L 800 220 L 780 220 L 760 220 L 740 220 L 740 200 L 720 200 L 720 180 L 720 160 L 720 140 L 720 120 L 720 100 L 720 80 L 720 60 L 720 40 L 700 40 L 680 40 L 660 40 L 640 40 L 620 40 L 600 40 L 580 40 L 560 40 L 540 40 L 520 40 L 500 40 L 480 40 L 460 40 L 440 40 L 420 40 L 400 40 L 380 40 L 360 40 L 340 40 L 320 40 L 300 40 L 280 40 L 260 40 L 240 40 L 220 40 L 200 40 z M 740 100 L 740 120 L 740 140 L 740 160 L 740 180 L 760 180 L 780 180 L 800 180 L 820 180 L 820 160 L 800 160 L 800 140 L 780 140 L 780 120 L 760 120 L 760 100 L 740 100 z M 240 200 L 240 220 L 260 220 L 260 200 L 240 200 z M 260 220 L 260 240 L 280 240 L 280 220 L 260 220 z M 260 240 L 240 240 L 240 260 L 260 260 L 260 240 z M 240 260 L 220 260 L 220 280 L 240 280 L 240 260 z M 220 280 L 200 280 L 200 300 L 220 300 L 220 280 z M 200 300 L 180 300 L 180 320 L 200 320 L 200 300 z M 180 320 L 160 320 L 160 340 L 180 340 L 180 320 z M 360 280 L 360 300 L 360 320 L 380 320 L 380 340 L 360 340 L 360 360 L 360 380 L 380 380 L 380 400 L 400 400 L 400 380 L 420 380 L 440 380 L 460 380 L 460 400 L 440 400 L 420 400 L 400 400 L 400 420 L 420 420 L 420 440 L 440 440 L 460 440 L 480 440 L 500 440 L 520 440 L 540 440 L 560 440 L 580 440 L 600 440 L 620 440 L 640 440 L 660 440 L 660 420 L 660 400 L 660 380 L 660 360 L 660 340 L 660 320 L 660 300 L 660 280 L 640 280 L 620 280 L 600 280 L 580 280 L 560 280 L 540 280 L 520 280 L 500 280 L 480 280 L 460 280 L 440 280 L 420 280 L 400 280 L 380 280 L 360 280 z M 400 320 L 420 320 L 440 320 L 460 320 L 460 340 L 440 340 L 420 340 L 400 340 L 400 320 z M 480 320 L 500 320 L 520 320 L 540 320 L 540 340 L 520 340 L 500 340 L 480 340 L 480 320 z M 560 320 L 580 320 L 600 320 L 620 320 L 620 340 L 600 340 L 580 340 L 560 340 L 560 320 z M 480 380 L 500 380 L 520 380 L 540 380 L 540 400 L 520 400 L 500 400 L 480 400 L 480 380 z M 560 380 L 580 380 L 600 380 L 620 380 L 620 400 L 600 400 L 580 400 L 560 400 L 560 380 z M 500 500 L 500 520 L 520 520 L 520 540 L 540 540 L 560 540 L 580 540 L 580 560 L 560 560 L 540 560 L 520 560 L 520 580 L 520 600 L 500 600 L 500 620 L 480 620 L 480 640 L 460 640 L 440 640 L 420 640 L 420 660 L 420 680 L 420 700 L 420 720 L 420 740 L 420 760 L 440 760 L 460 760 L 480 760 L 500 760 L 520 760 L 540 760 L 560 760 L 580 760 L 600 760 L 620 760 L 640 760 L 660 760 L 680 760 L 700 760 L 720 760 L 740 760 L 760 760 L 780 760 L 800 760 L 800 740 L 800 720 L 800 700 L 800 680 L 800 660 L 800 640 L 800 620 L 800 600 L 800 580 L 800 560 L 800 540 L 800 520 L 800 500 L 780 500 L 760 500 L 740 500 L 720 500 L 700 500 L 680 500 L 660 500 L 640 500 L 620 500 L 600 500 L 580 500 L 560 500 L 540 500 L 520 500 L 500 500 z M 600 540 L 620 540 L 640 540 L 660 540 L 680 540 L 700 540 L 720 540 L 740 540 L 760 540 L 760 560 L 760 580 L 760 600 L 760 620 L 740 620 L 720 620 L 700 620 L 680 620 L 660 620 L 640 620 L 620 620 L 600 620 L 600 600 L 600 580 L 600 560 L 600 540 z M 620 560 L 620 580 L 620 600 L 640 600 L 660 600 L 680 600 L 700 600 L 720 600 L 740 600 L 740 580 L 740 560 L 720 560 L 700 560 L 680 560 L 660 560 L 640 560 L 620 560 z M 460 660 L 480 660 L 500 660 L 520 660 L 540 660 L 560 660 L 580 660 L 580 680 L 560 680 L 540 680 L 520 680 L 500 680 L 480 680 L 460 680 L 460 660 z M 600 660 L 620 660 L 640 660 L 660 660 L 680 660 L 700 660 L 720 660 L 740 660 L 760 660 L 760 680 L 760 700 L 760 720 L 760 740 L 740 740 L 720 740 L 700 740 L 680 740 L 660 740 L 640 740 L 620 740 L 600 740 L 600 720 L 600 700 L 600 680 L 600 660 z M 620 680 L 620 700 L 620 720 L 640 720 L 660 720 L 680 720 L 700 720 L 720 720 L 740 720 L 740 700 L 740 680 L 720 680 L 700 680 L 680 680 L 660 680 L 640 680 L 620 680 z "
     style="fill:#ffffff" />
  <path
     id="rect3436"
     d="M 180 20 L 180 40 L 180 60 L 180 80 L 180 100 L 180 120 L 200 120 L 220 120 L 220 100 L 200 100 L 200 80 L 200 60 L 200 40 L 220 40 L 240 40 L 260 40 L 280 40 L 300 40 L 320 40 L 340 40 L 360 40 L 380 40 L 400 40 L 420 40 L 440 40 L 460 40 L 480 40 L 500 40 L 520 40 L 540 40 L 560 40 L 580 40 L 600 40 L 620 40 L 640 40 L 660 40 L 680 40 L 700 40 L 720 40 L 720 60 L 720 80 L 720 100 L 720 120 L 720 140 L 720 160 L 720 180 L 720 200 L 740 200 L 760 200 L 780 200 L 800 200 L 820 200 L 840 200 L 860 200 L 880 200 L 900 200 L 900 180 L 880 180 L 860 180 L 840 180 L 820 180 L 800 180 L 780 180 L 760 180 L 740 180 L 740 160 L 740 140 L 740 120 L 740 100 L 740 80 L 740 60 L 740 40 L 740 20 L 720 20 L 700 20 L 680 20 L 660 20 L 640 20 L 620 20 L 600 20 L 580 20 L 560 20 L 540 20 L 520 20 L 500 20 L 480 20 L 460 20 L 440 20 L 420 20 L 400 20 L 380 20 L 360 20 L 340 20 L 320 20 L 300 20 L 280 20 L 260 20 L 240 20 L 220 20 L 200 20 L 180 20 z M 680 240 L 680 260 L 680 280 L 680 300 L 680 320 L 680 340 L 680 360 L 680 380 L 680 400 L 680 420 L 680 440 L 700 440 L 700 420 L 700 400 L 700 380 L 700 360 L 700 340 L 700 320 L 700 300 L 700 280 L 700 260 L 700 240 L 680 240 z M 20 260 L 20 280 L 20 300 L 40 300 L 40 280 L 40 260 L 20 260 z M 320 320 L 320 340 L 340 340 L 340 320 L 320 320 z M 260 340 L 260 360 L 280 360 L 280 340 L 260 340 z M 280 360 L 280 380 L 300 380 L 300 360 L 280 360 z M 300 380 L 300 400 L 320 400 L 320 380 L 300 380 z M 320 400 L 320 420 L 340 420 L 340 400 L 320 400 z M 340 420 L 340 440 L 360 440 L 360 420 L 340 420 z M 360 440 L 360 460 L 380 460 L 380 440 L 360 440 z M 380 460 L 380 480 L 400 480 L 400 460 L 380 460 z M 400 480 L 400 500 L 420 500 L 420 480 L 400 480 z M 420 500 L 420 520 L 440 520 L 440 500 L 420 500 z M 440 520 L 440 540 L 460 540 L 460 520 L 440 520 z M 460 540 L 460 560 L 480 560 L 480 540 L 460 540 z M 180 460 L 180 480 L 180 500 L 180 520 L 180 540 L 180 560 L 180 580 L 180 600 L 180 620 L 180 640 L 180 660 L 180 680 L 180 700 L 180 720 L 180 740 L 180 760 L 180 780 L 180 800 L 180 820 L 180 840 L 180 860 L 180 880 L 180 900 L 200 900 L 200 880 L 200 860 L 200 840 L 200 820 L 200 800 L 200 780 L 200 760 L 200 740 L 200 720 L 200 700 L 200 680 L 200 660 L 200 640 L 200 620 L 200 600 L 200 580 L 200 560 L 200 540 L 200 520 L 200 500 L 200 480 L 200 460 L 180 460 z M 820 460 L 820 480 L 820 500 L 820 520 L 820 540 L 820 560 L 820 580 L 820 600 L 820 620 L 820 640 L 820 660 L 820 680 L 820 700 L 820 720 L 820 740 L 820 760 L 820 780 L 800 780 L 780 780 L 760 780 L 740 780 L 720 780 L 700 780 L 680 780 L 660 780 L 640 780 L 620 780 L 600 780 L 580 780 L 560 780 L 540 780 L 520 780 L 500 780 L 480 780 L 460 780 L 440 780 L 420 780 L 420 800 L 440 800 L 460 800 L 480 800 L 500 800 L 520 800 L 540 800 L 560 800 L 580 800 L 600 800 L 620 800 L 640 800 L 660 800 L 680 800 L 700 800 L 720 800 L 740 800 L 760 800 L 780 800 L 800 800 L 820 800 L 840 800 L 840 780 L 840 760 L 840 740 L 840 720 L 840 700 L 840 680 L 840 660 L 840 640 L 840 620 L 840 600 L 840 580 L 840 560 L 840 540 L 840 520 L 840 500 L 840 480 L 840 460 L 820 460 z "
     style="fill:#808080" />
  <path
     id="rect3584"
     d="M 740 20 L 740 40 L 760 40 L 760 20 L 740 20 z M 760 40 L 760 60 L 780 60 L 780 40 L 760 40 z M 780 60 L 780 80 L 800 80 L 800 60 L 780 60 z M 800 80 L 800 100 L 820 100 L 820 80 L 800 80 z M 820 100 L 820 120 L 840 120 L 840 100 L 820 100 z M 840 120 L 840 140 L 860 140 L 860 120 L 840 120 z M 860 140 L 860 160 L 880 160 L 880 140 L 860 140 z M 880 160 L 880 180 L 900 180 L 900 160 L 880 160 z M 900 180 L 900 200 L 900 220 L 900 240 L 900 260 L 900 280 L 900 300 L 900 320 L 900 340 L 900 360 L 900 380 L 900 400 L 900 420 L 900 440 L 900 460 L 900 480 L 900 500 L 900 520 L 900 540 L 900 560 L 900 580 L 900 600 L 900 620 L 900 640 L 900 660 L 900 680 L 900 700 L 900 720 L 900 740 L 900 760 L 900 780 L 900 800 L 900 820 L 900 840 L 900 860 L 900 880 L 900 900 L 880 900 L 860 900 L 840 900 L 820 900 L 800 900 L 780 900 L 760 900 L 740 900 L 720 900 L 700 900 L 680 900 L 660 900 L 640 900 L 620 900 L 600 900 L 580 900 L 560 900 L 540 900 L 520 900 L 500 900 L 480 900 L 460 900 L 440 900 L 420 900 L 400 900 L 380 900 L 360 900 L 340 900 L 320 900 L 300 900 L 280 900 L 260 900 L 240 900 L 220 900 L 200 900 L 180 900 L 180 920 L 200 920 L 220 920 L 240 920 L 260 920 L 280 920 L 300 920 L 320 920 L 340 920 L 360 920 L 380 920 L 400 920 L 420 920 L 440 920 L 460 920 L 480 920 L 500 920 L 520 920 L 540 920 L 560 920 L 580 920 L 600 920 L 620 920 L 640 920 L 660 920 L 680 920 L 700 920 L 720 920 L 740 920 L 760 920 L 780 920 L 800 920 L 820 920 L 840 920 L 860 920 L 880 920 L 900 920 L 920 920 L 920 900 L 920 880 L 920 860 L 920 840 L 920 820 L 920 800 L 920 780 L 920 760 L 920 740 L 920 720 L 920 700 L 920 680 L 920 660 L 920 640 L 920 620 L 920 600 L 920 580 L 920 560 L 920 540 L 920 520 L 920 500 L 920 480 L 920 460 L 920 440 L 920 420 L 920 400 L 920 380 L 920 360 L 920 340 L 920 320 L 920 300 L 920 280 L 920 260 L 920 240 L 920 220 L 920 200 L 920 180 L 900 180 z M 100 100 L 100 120 L 120 120 L 140 120 L 160 120 L 180 120 L 180 100 L 160 100 L 140 100 L 120 100 L 100 100 z M 180 120 L 180 140 L 200 140 L 220 140 L 220 120 L 200 120 L 180 120 z M 220 120 L 240 120 L 260 120 L 260 100 L 240 100 L 220 100 L 220 120 z M 260 120 L 260 140 L 280 140 L 280 120 L 260 120 z M 280 140 L 280 160 L 300 160 L 300 140 L 280 140 z M 300 160 L 300 180 L 320 180 L 320 160 L 300 160 z M 320 180 L 320 200 L 340 200 L 340 180 L 320 180 z M 340 200 L 340 220 L 340 240 L 340 260 L 340 280 L 340 300 L 320 300 L 320 320 L 340 320 L 340 340 L 320 340 L 320 360 L 340 360 L 340 380 L 360 380 L 360 360 L 360 340 L 360 320 L 360 300 L 360 280 L 360 260 L 360 240 L 360 220 L 360 200 L 340 200 z M 360 380 L 360 400 L 380 400 L 380 380 L 360 380 z M 380 400 L 380 420 L 400 420 L 400 400 L 380 400 z M 400 420 L 400 440 L 420 440 L 420 420 L 400 420 z M 420 440 L 420 460 L 440 460 L 440 440 L 420 440 z M 440 460 L 440 480 L 460 480 L 460 460 L 440 460 z M 460 480 L 460 500 L 480 500 L 480 480 L 460 480 z M 480 500 L 480 520 L 500 520 L 500 500 L 480 500 z M 500 520 L 500 540 L 500 560 L 480 560 L 480 580 L 460 580 L 440 580 L 420 580 L 400 580 L 380 580 L 380 560 L 380 540 L 380 520 L 360 520 L 360 540 L 340 540 L 320 540 L 320 560 L 340 560 L 360 560 L 360 580 L 360 600 L 360 620 L 380 620 L 380 600 L 400 600 L 420 600 L 440 600 L 460 600 L 480 600 L 480 620 L 500 620 L 500 600 L 520 600 L 520 580 L 520 560 L 520 540 L 520 520 L 500 520 z M 480 620 L 460 620 L 440 620 L 420 620 L 400 620 L 380 620 L 380 640 L 400 640 L 420 640 L 440 640 L 460 640 L 480 640 L 480 620 z M 320 540 L 320 520 L 340 520 L 360 520 L 360 500 L 340 500 L 320 500 L 320 480 L 300 480 L 300 500 L 280 500 L 260 500 L 260 520 L 280 520 L 300 520 L 300 540 L 320 540 z M 260 500 L 260 480 L 280 480 L 300 480 L 300 460 L 280 460 L 260 460 L 260 440 L 260 420 L 260 400 L 240 400 L 240 420 L 220 420 L 220 440 L 200 440 L 180 440 L 160 440 L 140 440 L 120 440 L 100 440 L 80 440 L 80 460 L 100 460 L 120 460 L 140 460 L 160 460 L 180 460 L 200 460 L 220 460 L 240 460 L 240 480 L 240 500 L 260 500 z M 80 440 L 80 420 L 60 420 L 60 440 L 80 440 z M 60 420 L 60 400 L 40 400 L 40 420 L 60 420 z M 40 400 L 40 380 L 40 360 L 60 360 L 60 340 L 40 340 L 40 320 L 40 300 L 20 300 L 20 320 L 20 340 L 20 360 L 20 380 L 20 400 L 40 400 z M 40 300 L 60 300 L 60 280 L 60 260 L 40 260 L 40 280 L 40 300 z M 40 260 L 40 240 L 40 220 L 40 200 L 40 180 L 20 180 L 20 200 L 20 220 L 20 240 L 20 260 L 40 260 z M 40 180 L 60 180 L 60 160 L 40 160 L 40 180 z M 60 160 L 80 160 L 80 140 L 60 140 L 60 160 z M 80 140 L 100 140 L 100 120 L 80 120 L 80 140 z M 60 360 L 60 380 L 80 380 L 80 360 L 60 360 z M 80 380 L 80 400 L 100 400 L 100 380 L 80 380 z M 100 400 L 100 420 L 120 420 L 140 420 L 160 420 L 180 420 L 200 420 L 220 420 L 220 400 L 200 400 L 180 400 L 160 400 L 140 400 L 120 400 L 100 400 z M 220 400 L 240 400 L 240 380 L 220 380 L 220 400 z M 320 340 L 320 320 L 300 320 L 300 340 L 320 340 z M 140 180 L 140 200 L 160 200 L 160 180 L 140 180 z M 140 200 L 120 200 L 120 220 L 140 220 L 140 200 z M 120 220 L 100 220 L 100 240 L 120 240 L 120 220 z "
     style="fill:#000000" />
  <path
     id="rect3660"
     d="M 740 40 L 740 60 L 740 80 L 740 100 L 760 100 L 760 120 L 780 120 L 780 140 L 800 140 L 800 160 L 820 160 L 820 180 L 840 180 L 860 180 L 880 180 L 880 160 L 860 160 L 860 140 L 840 140 L 840 120 L 820 120 L 820 100 L 800 100 L 800 80 L 780 80 L 780 60 L 760 60 L 760 40 L 740 40 z M 740 200 L 740 220 L 760 220 L 780 220 L 800 220 L 820 220 L 840 220 L 860 220 L 880 220 L 880 240 L 880 260 L 880 280 L 880 300 L 880 320 L 880 340 L 880 360 L 880 380 L 880 400 L 880 420 L 880 440 L 880 460 L 880 480 L 880 500 L 880 520 L 880 540 L 880 560 L 880 580 L 880 600 L 880 620 L 880 640 L 880 660 L 880 680 L 880 700 L 880 720 L 880 740 L 880 760 L 880 780 L 880 800 L 880 820 L 880 840 L 880 860 L 880 880 L 860 880 L 840 880 L 820 880 L 800 880 L 780 880 L 760 880 L 740 880 L 720 880 L 700 880 L 680 880 L 660 880 L 640 880 L 620 880 L 600 880 L 580 880 L 560 880 L 540 880 L 520 880 L 500 880 L 480 880 L 460 880 L 440 880 L 420 880 L 400 880 L 380 880 L 360 880 L 340 880 L 320 880 L 300 880 L 280 880 L 260 880 L 240 880 L 220 880 L 200 880 L 200 900 L 220 900 L 240 900 L 260 900 L 280 900 L 300 900 L 320 900 L 340 900 L 360 900 L 380 900 L 400 900 L 420 900 L 440 900 L 460 900 L 480 900 L 500 900 L 520 900 L 540 900 L 560 900 L 580 900 L 600 900 L 620 900 L 640 900 L 660 900 L 680 900 L 700 900 L 720 900 L 740 900 L 760 900 L 780 900 L 800 900 L 820 900 L 840 900 L 860 900 L 880 900 L 900 900 L 900 880 L 900 860 L 900 840 L 900 820 L 900 800 L 900 780 L 900 760 L 900 740 L 900 720 L 900 700 L 900 680 L 900 660 L 900 640 L 900 620 L 900 600 L 900 580 L 900 560 L 900 540 L 900 520 L 900 500 L 900 480 L 900 460 L 900 440 L 900 420 L 900 400 L 900 380 L 900 360 L 900 340 L 900 320 L 900 300 L 900 280 L 900 260 L 900 240 L 900 220 L 900 200 L 880 200 L 860 200 L 840 200 L 820 200 L 800 200 L 780 200 L 760 200 L 740 200 z M 360 220 L 360 240 L 360 260 L 360 280 L 380 280 L 400 280 L 420 280 L 440 280 L 460 280 L 480 280 L 500 280 L 520 280 L 540 280 L 560 280 L 580 280 L 600 280 L 620 280 L 640 280 L 660 280 L 660 300 L 660 320 L 660 340 L 660 360 L 660 380 L 660 400 L 660 420 L 660 440 L 640 440 L 620 440 L 600 440 L 580 440 L 560 440 L 540 440 L 520 440 L 500 440 L 480 440 L 460 440 L 440 440 L 440 460 L 460 460 L 460 480 L 480 480 L 480 500 L 500 500 L 520 500 L 540 500 L 560 500 L 580 500 L 600 500 L 620 500 L 640 500 L 660 500 L 680 500 L 700 500 L 720 500 L 740 500 L 760 500 L 780 500 L 800 500 L 800 520 L 800 540 L 800 560 L 800 580 L 800 600 L 800 620 L 800 640 L 800 660 L 800 680 L 800 700 L 800 720 L 800 740 L 800 760 L 780 760 L 760 760 L 740 760 L 720 760 L 700 760 L 680 760 L 660 760 L 640 760 L 620 760 L 600 760 L 580 760 L 560 760 L 540 760 L 520 760 L 500 760 L 480 760 L 460 760 L 440 760 L 420 760 L 420 740 L 420 720 L 420 700 L 420 680 L 420 660 L 420 640 L 400 640 L 400 660 L 400 680 L 400 700 L 400 720 L 400 740 L 400 760 L 400 780 L 420 780 L 440 780 L 460 780 L 480 780 L 500 780 L 520 780 L 540 780 L 560 780 L 580 780 L 600 780 L 620 780 L 640 780 L 660 780 L 680 780 L 700 780 L 720 780 L 740 780 L 760 780 L 780 780 L 800 780 L 820 780 L 820 760 L 820 740 L 820 720 L 820 700 L 820 680 L 820 660 L 820 640 L 820 620 L 820 600 L 820 580 L 820 560 L 820 540 L 820 520 L 820 500 L 820 480 L 820 460 L 820 440 L 800 440 L 780 440 L 760 440 L 740 440 L 720 440 L 700 440 L 680 440 L 680 420 L 680 400 L 680 380 L 680 360 L 680 340 L 680 320 L 680 300 L 680 280 L 680 260 L 680 240 L 680 220 L 660 220 L 640 220 L 620 220 L 600 220 L 580 220 L 560 220 L 540 220 L 520 220 L 500 220 L 480 220 L 460 220 L 440 220 L 420 220 L 400 220 L 380 220 L 360 220 z M 920 220 L 920 240 L 920 260 L 920 280 L 920 300 L 920 320 L 920 340 L 920 360 L 920 380 L 920 400 L 920 420 L 920 440 L 920 460 L 920 480 L 920 500 L 920 520 L 920 540 L 920 560 L 920 580 L 920 600 L 920 620 L 920 640 L 920 660 L 920 680 L 920 700 L 920 720 L 920 740 L 920 760 L 920 780 L 920 800 L 920 820 L 920 840 L 920 860 L 920 880 L 920 900 L 920 920 L 900 920 L 880 920 L 860 920 L 840 920 L 820 920 L 800 920 L 780 920 L 760 920 L 740 920 L 720 920 L 700 920 L 680 920 L 660 920 L 640 920 L 620 920 L 600 920 L 580 920 L 560 920 L 540 920 L 520 920 L 500 920 L 480 920 L 460 920 L 440 920 L 420 920 L 400 920 L 380 920 L 360 920 L 340 920 L 320 920 L 300 920 L 280 920 L 260 920 L 240 920 L 220 920 L 200 920 L 200 940 L 220 940 L 240 940 L 260 940 L 280 940 L 300 940 L 320 940 L 340 940 L 360 940 L 380 940 L 400 940 L 420 940 L 440 940 L 460 940 L 480 940 L 500 940 L 520 940 L 540 940 L 560 940 L 580 940 L 600 940 L 620 940 L 640 940 L 660 940 L 680 940 L 700 940 L 720 940 L 740 940 L 760 940 L 780 940 L 800 940 L 820 940 L 840 940 L 860 940 L 880 940 L 900 940 L 920 940 L 940 940 L 940 920 L 940 900 L 940 880 L 940 860 L 940 840 L 940 820 L 940 800 L 940 780 L 940 760 L 940 740 L 940 720 L 940 700 L 940 680 L 940 660 L 940 640 L 940 620 L 940 600 L 940 580 L 940 560 L 940 540 L 940 520 L 940 500 L 940 480 L 940 460 L 940 440 L 940 420 L 940 400 L 940 380 L 940 360 L 940 340 L 940 320 L 940 300 L 940 280 L 940 260 L 940 240 L 940 220 L 920 220 z M 360 320 L 360 340 L 380 340 L 380 320 L 360 320 z M 400 320 L 400 340 L 420 340 L 440 340 L 460 340 L 460 320 L 440 320 L 420 320 L 400 320 z M 480 320 L 480 340 L 500 340 L 520 340 L 540 340 L 540 320 L 520 320 L 500 320 L 480 320 z M 560 320 L 560 340 L 580 340 L 600 340 L 620 340 L 620 320 L 600 320 L 580 320 L 560 320 z M 400 380 L 400 400 L 420 400 L 440 400 L 460 400 L 460 380 L 440 380 L 420 380 L 400 380 z M 480 380 L 480 400 L 500 400 L 520 400 L 540 400 L 540 380 L 520 380 L 500 380 L 480 380 z M 560 380 L 560 400 L 580 400 L 600 400 L 620 400 L 620 380 L 600 380 L 580 380 L 560 380 z M 520 540 L 520 560 L 540 560 L 560 560 L 580 560 L 580 540 L 560 540 L 540 540 L 520 540 z M 600 540 L 600 560 L 600 580 L 600 600 L 600 620 L 620 620 L 640 620 L 660 620 L 680 620 L 700 620 L 720 620 L 740 620 L 760 620 L 760 600 L 760 580 L 760 560 L 760 540 L 740 540 L 720 540 L 700 540 L 680 540 L 660 540 L 640 540 L 620 540 L 600 540 z M 620 560 L 640 560 L 660 560 L 680 560 L 700 560 L 720 560 L 740 560 L 740 580 L 740 600 L 720 600 L 700 600 L 680 600 L 660 600 L 640 600 L 620 600 L 620 580 L 620 560 z M 460 660 L 460 680 L 480 680 L 500 680 L 520 680 L 540 680 L 560 680 L 580 680 L 580 660 L 560 660 L 540 660 L 520 660 L 500 660 L 480 660 L 460 660 z M 600 660 L 600 680 L 600 700 L 600 720 L 600 740 L 620 740 L 640 740 L 660 740 L 680 740 L 700 740 L 720 740 L 740 740 L 760 740 L 760 720 L 760 700 L 760 680 L 760 660 L 740 660 L 720 660 L 700 660 L 680 660 L 660 660 L 640 660 L 620 660 L 600 660 z M 620 680 L 640 680 L 660 680 L 680 680 L 700 680 L 720 680 L 740 680 L 740 700 L 740 720 L 720 720 L 700 720 L 680 720 L 660 720 L 640 720 L 620 720 L 620 700 L 620 680 z "
     style="fill:#c0c0c0" />
</svg>
