<?xml version="1.0" encoding="UTF-8" standalone="no"?>
<svg
   xmlns:dc="http://purl.org/dc/elements/1.1/"
   xmlns:cc="http://creativecommons.org/ns#"
   xmlns:rdf="http://www.w3.org/1999/02/22-rdf-syntax-ns#"
   xmlns:svg="http://www.w3.org/2000/svg"
   xmlns="http://www.w3.org/2000/svg"
   xmlns:sodipodi="http://sodipodi.sourceforge.net/DTD/sodipodi-0.dtd"
   xmlns:inkscape="http://www.inkscape.org/namespaces/inkscape"
   height="960px"
   version="1.1"
   width="960px"
   id="svg3444"
   sodipodi:docname="package-x-generic.svg"
   inkscape:version="0.92.4 (5da689c313, 2019-01-14)">
  <sodipodi:namedview
     pagecolor="#ffffff"
     bordercolor="#666666"
     borderopacity="1"
     objecttolerance="10"
     gridtolerance="10"
     guidetolerance="10"
     inkscape:pageopacity="0"
     inkscape:pageshadow="2"
     inkscape:window-width="687"
     inkscape:window-height="480"
     id="namedview11"
     showgrid="false"
     inkscape:zoom="0.24583333"
     inkscape:cx="480"
     inkscape:cy="480"
     inkscape:window-x="0"
     inkscape:window-y="0"
     inkscape:window-maximized="0"
     inkscape:current-layer="svg3444" />
  <metadata
     id="metadata3448">
    <rdf:RDF>
      <cc:Work
         rdf:about="">
        <dc:format>image/svg+xml</dc:format>
        <dc:type
           rdf:resource="http://purl.org/dc/dcmitype/StillImage" />
      </cc:Work>
    </rdf:RDF>
  </metadata>
  <defs
     id="defs2" />
  <rect
     style="opacity:1;fill:#ffff00;fill-opacity:1;stroke-width:6.3915205"
     id="rect13"
     width="880"
     height="601.63159"
     x="40"
     y="178.36842" />
  <path
     style="opacity:1;fill:#ffff00;fill-opacity:1;stroke-width:8.55060577"
     d="M 88.999994,65.5625 H 388 L 480,180 H 20 Z"
     id="rect15"
     inkscape:connector-curvature="0"
     sodipodi:nodetypes="ccccc" />
  <path
     id="rect3160"
     d="M 120 40 L 120 60 L 140 60 L 160 60 L 180 60 L 200 60 L 220 60 L 240 60 L 240 40 L 220 40 L 200 40 L 180 40 L 160 40 L 140 40 L 120 40 z M 240 60 L 240 80 L 240 100 L 240 120 L 240 140 L 240 160 L 240 180 L 240 200 L 240 220 L 260 220 L 260 200 L 260 180 L 260 160 L 260 140 L 260 120 L 260 100 L 260 80 L 280 80 L 280 60 L 260 60 L 240 60 z M 280 60 L 300 60 L 320 60 L 340 60 L 360 60 L 380 60 L 380 40 L 360 40 L 340 40 L 320 40 L 300 40 L 280 40 L 280 60 z M 120 60 L 100 60 L 100 80 L 120 80 L 120 60 z M 100 80 L 80 80 L 80 100 L 100 100 L 100 80 z M 80 100 L 60 100 L 60 120 L 80 120 L 80 100 z M 60 120 L 40 120 L 40 140 L 60 140 L 60 120 z M 40 140 L 20 140 L 20 160 L 40 160 L 40 140 z M 180 120 L 180 140 L 180 160 L 180 180 L 180 200 L 180 220 L 180 240 L 180 260 L 180 280 L 180 300 L 180 320 L 180 340 L 180 360 L 180 380 L 180 400 L 180 420 L 180 440 L 180 460 L 180 480 L 180 500 L 200 500 L 200 480 L 200 460 L 200 440 L 200 420 L 200 400 L 200 380 L 200 360 L 200 340 L 200 320 L 200 300 L 200 280 L 200 260 L 200 240 L 200 220 L 200 200 L 200 180 L 200 160 L 200 140 L 220 140 L 220 120 L 200 120 L 180 120 z M 300 120 L 300 140 L 320 140 L 320 120 L 300 120 z M 20 180 L 20 200 L 20 220 L 20 240 L 20 260 L 20 280 L 20 300 L 20 320 L 20 340 L 20 360 L 20 380 L 20 400 L 20 420 L 20 440 L 20 460 L 20 480 L 20 500 L 20 520 L 20 540 L 20 560 L 20 580 L 20 600 L 20 620 L 20 640 L 20 660 L 20 680 L 20 700 L 20 720 L 20 740 L 20 760 L 20 780 L 40 780 L 40 760 L 40 740 L 40 720 L 40 700 L 40 680 L 40 660 L 40 640 L 40 620 L 40 600 L 40 580 L 40 560 L 40 540 L 40 520 L 40 500 L 40 480 L 40 460 L 40 440 L 40 420 L 40 400 L 40 380 L 40 360 L 40 340 L 40 320 L 40 300 L 40 280 L 40 260 L 40 240 L 40 220 L 40 200 L 60 200 L 80 200 L 100 200 L 120 200 L 140 200 L 160 200 L 160 180 L 140 180 L 120 180 L 100 180 L 80 180 L 60 180 L 40 180 L 20 180 z M 360 180 L 360 200 L 380 200 L 400 200 L 420 200 L 440 200 L 460 200 L 480 200 L 500 200 L 520 200 L 540 200 L 560 200 L 580 200 L 600 200 L 620 200 L 640 200 L 660 200 L 680 200 L 700 200 L 720 200 L 740 200 L 760 200 L 780 200 L 800 200 L 820 200 L 840 200 L 860 200 L 880 200 L 900 200 L 920 200 L 920 180 L 900 180 L 880 180 L 860 180 L 840 180 L 820 180 L 800 180 L 780 180 L 760 180 L 740 180 L 720 180 L 700 180 L 680 180 L 660 180 L 640 180 L 620 180 L 600 180 L 580 180 L 560 180 L 540 180 L 520 180 L 500 180 L 480 180 L 460 180 L 440 180 L 420 180 L 400 180 L 380 180 L 360 180 z "
     style="fill:#ffffff" />
  <path
     id="rect3186"
     d="M 240 40 L 240 60 L 260 60 L 280 60 L 280 40 L 260 40 L 240 40 z M 240 60 L 220 60 L 220 80 L 220 100 L 200 100 L 180 100 L 180 120 L 200 120 L 220 120 L 220 140 L 220 160 L 220 180 L 220 200 L 220 220 L 220 240 L 220 260 L 220 280 L 220 300 L 240 300 L 260 300 L 280 300 L 300 300 L 300 280 L 300 260 L 300 240 L 300 220 L 280 220 L 280 240 L 280 260 L 280 280 L 260 280 L 240 280 L 240 260 L 240 240 L 240 220 L 240 200 L 240 180 L 240 160 L 240 140 L 240 120 L 240 100 L 240 80 L 240 60 z M 180 120 L 160 120 L 160 140 L 160 160 L 160 180 L 160 200 L 160 220 L 160 240 L 160 260 L 160 280 L 160 300 L 160 320 L 160 340 L 160 360 L 160 380 L 160 400 L 160 420 L 160 440 L 160 460 L 160 480 L 160 500 L 160 520 L 180 520 L 200 520 L 220 520 L 240 520 L 260 520 L 280 520 L 300 520 L 320 520 L 340 520 L 340 500 L 340 480 L 340 460 L 340 440 L 340 420 L 340 400 L 340 380 L 340 360 L 340 340 L 340 320 L 340 300 L 340 280 L 340 260 L 340 240 L 340 220 L 340 200 L 340 180 L 340 160 L 340 140 L 340 120 L 320 120 L 320 140 L 320 160 L 320 180 L 320 200 L 320 220 L 320 240 L 320 260 L 320 280 L 320 300 L 320 320 L 320 340 L 320 360 L 320 380 L 320 400 L 320 420 L 320 440 L 320 460 L 320 480 L 320 500 L 300 500 L 280 500 L 260 500 L 240 500 L 220 500 L 200 500 L 180 500 L 180 480 L 180 460 L 180 440 L 180 420 L 180 400 L 180 380 L 180 360 L 180 340 L 180 320 L 180 300 L 180 280 L 180 260 L 180 240 L 180 220 L 180 200 L 180 180 L 180 160 L 180 140 L 180 120 z M 280 360 L 280 380 L 280 400 L 280 420 L 280 440 L 280 460 L 260 460 L 240 460 L 220 460 L 220 480 L 240 480 L 260 480 L 280 480 L 300 480 L 300 460 L 300 440 L 300 420 L 300 400 L 300 380 L 300 360 L 280 360 z M 160 540 L 160 560 L 180 560 L 200 560 L 220 560 L 220 540 L 200 540 L 180 540 L 160 540 z M 220 560 L 220 580 L 240 580 L 240 560 L 220 560 z M 220 580 L 200 580 L 180 580 L 160 580 L 160 600 L 180 600 L 200 600 L 220 600 L 220 580 z M 220 600 L 220 620 L 240 620 L 240 600 L 220 600 z M 220 620 L 200 620 L 180 620 L 160 620 L 160 640 L 180 640 L 200 640 L 220 640 L 220 620 z M 220 640 L 220 660 L 240 660 L 240 640 L 220 640 z M 220 660 L 200 660 L 180 660 L 160 660 L 160 680 L 180 680 L 200 680 L 220 680 L 220 660 z M 220 680 L 220 700 L 240 700 L 240 680 L 220 680 z M 220 700 L 200 700 L 180 700 L 160 700 L 160 720 L 180 720 L 200 720 L 220 720 L 220 700 z M 220 720 L 220 740 L 240 740 L 240 720 L 220 720 z M 220 740 L 200 740 L 180 740 L 160 740 L 160 760 L 180 760 L 200 760 L 220 760 L 220 740 z M 220 760 L 220 780 L 240 780 L 240 760 L 220 760 z M 300 540 L 300 560 L 320 560 L 340 560 L 360 560 L 360 540 L 340 540 L 320 540 L 300 540 z M 300 560 L 280 560 L 280 580 L 300 580 L 300 560 z M 300 580 L 300 600 L 320 600 L 340 600 L 360 600 L 360 580 L 340 580 L 320 580 L 300 580 z M 300 600 L 280 600 L 280 620 L 300 620 L 300 600 z M 300 620 L 300 640 L 320 640 L 340 640 L 360 640 L 360 620 L 340 620 L 320 620 L 300 620 z M 300 640 L 280 640 L 280 660 L 300 660 L 300 640 z M 300 660 L 300 680 L 320 680 L 340 680 L 360 680 L 360 660 L 340 660 L 320 660 L 300 660 z M 300 680 L 280 680 L 280 700 L 300 700 L 300 680 z M 300 700 L 300 720 L 320 720 L 340 720 L 360 720 L 360 700 L 340 700 L 320 700 L 300 700 z M 300 720 L 280 720 L 280 740 L 300 740 L 300 720 z M 300 740 L 300 760 L 320 760 L 340 760 L 360 760 L 360 740 L 340 740 L 320 740 L 300 740 z M 300 760 L 280 760 L 280 780 L 300 780 L 300 760 z "
     style="fill:#808080" />
  <path
     id="rect3246"
     d="M 140 60 L 140 80 L 160 80 L 160 60 L 140 60 z M 160 80 L 160 100 L 180 100 L 180 80 L 160 80 z M 180 80 L 200 80 L 200 60 L 180 60 L 180 80 z M 200 80 L 200 100 L 220 100 L 220 80 L 200 80 z M 160 100 L 140 100 L 140 120 L 160 120 L 160 100 z M 140 120 L 120 120 L 120 140 L 140 140 L 140 120 z M 140 140 L 140 160 L 160 160 L 160 140 L 140 140 z M 140 160 L 120 160 L 120 180 L 140 180 L 140 160 z M 120 160 L 120 140 L 100 140 L 100 160 L 120 160 z M 100 160 L 80 160 L 80 180 L 100 180 L 100 160 z M 80 160 L 80 140 L 60 140 L 60 160 L 80 160 z M 60 160 L 40 160 L 40 180 L 60 180 L 60 160 z M 80 140 L 100 140 L 100 120 L 80 120 L 80 140 z M 100 120 L 120 120 L 120 100 L 100 100 L 100 120 z M 120 100 L 140 100 L 140 80 L 120 80 L 120 100 z M 300 60 L 300 80 L 320 80 L 320 60 L 300 60 z M 320 80 L 320 100 L 340 100 L 340 80 L 320 80 z M 340 80 L 360 80 L 360 60 L 340 60 L 340 80 z M 360 80 L 360 100 L 380 100 L 380 80 L 360 80 z M 380 80 L 400 80 L 400 60 L 380 60 L 380 80 z M 400 80 L 400 100 L 420 100 L 420 80 L 400 80 z M 420 100 L 420 120 L 440 120 L 440 100 L 420 100 z M 440 120 L 440 140 L 460 140 L 460 120 L 440 120 z M 460 140 L 460 160 L 480 160 L 480 140 L 460 140 z M 480 160 L 480 180 L 500 180 L 500 160 L 480 160 z M 460 160 L 440 160 L 440 180 L 460 180 L 460 160 z M 440 160 L 440 140 L 420 140 L 420 160 L 440 160 z M 420 160 L 400 160 L 400 180 L 420 180 L 420 160 z M 400 160 L 400 140 L 380 140 L 380 160 L 400 160 z M 380 160 L 360 160 L 360 180 L 380 180 L 380 160 z M 380 140 L 380 120 L 360 120 L 360 140 L 380 140 z M 360 120 L 360 100 L 340 100 L 340 120 L 360 120 z M 380 120 L 400 120 L 400 100 L 380 100 L 380 120 z M 400 120 L 400 140 L 420 140 L 420 120 L 400 120 z M 40 200 L 40 220 L 60 220 L 60 200 L 40 200 z M 60 220 L 60 240 L 80 240 L 80 220 L 60 220 z M 80 220 L 100 220 L 100 200 L 80 200 L 80 220 z M 100 220 L 100 240 L 120 240 L 120 220 L 100 220 z M 120 220 L 140 220 L 140 200 L 120 200 L 120 220 z M 140 220 L 140 240 L 160 240 L 160 220 L 140 220 z M 140 240 L 120 240 L 120 260 L 140 260 L 140 240 z M 140 260 L 140 280 L 160 280 L 160 260 L 140 260 z M 140 280 L 120 280 L 120 300 L 140 300 L 140 280 z M 140 300 L 140 320 L 160 320 L 160 300 L 140 300 z M 140 320 L 120 320 L 120 340 L 140 340 L 140 320 z M 140 340 L 140 360 L 160 360 L 160 340 L 140 340 z M 140 360 L 120 360 L 120 380 L 140 380 L 140 360 z M 140 380 L 140 400 L 160 400 L 160 380 L 140 380 z M 140 400 L 120 400 L 120 420 L 140 420 L 140 400 z M 140 420 L 140 440 L 160 440 L 160 420 L 140 420 z M 140 440 L 120 440 L 120 460 L 140 460 L 140 440 z M 140 460 L 140 480 L 160 480 L 160 460 L 140 460 z M 140 480 L 120 480 L 120 500 L 140 500 L 140 480 z M 140 500 L 140 520 L 160 520 L 160 500 L 140 500 z M 140 520 L 120 520 L 120 540 L 140 540 L 140 520 z M 140 540 L 140 560 L 160 560 L 160 540 L 140 540 z M 140 560 L 120 560 L 120 580 L 140 580 L 140 560 z M 140 580 L 140 600 L 160 600 L 160 580 L 140 580 z M 140 600 L 120 600 L 120 620 L 140 620 L 140 600 z M 140 620 L 140 640 L 160 640 L 160 620 L 140 620 z M 140 640 L 120 640 L 120 660 L 140 660 L 140 640 z M 140 660 L 140 680 L 160 680 L 160 660 L 140 660 z M 140 680 L 120 680 L 120 700 L 140 700 L 140 680 z M 140 700 L 140 720 L 160 720 L 160 700 L 140 700 z M 140 720 L 120 720 L 120 740 L 140 740 L 140 720 z M 140 740 L 140 760 L 160 760 L 160 740 L 140 740 z M 140 760 L 120 760 L 120 780 L 140 780 L 140 760 z M 120 760 L 120 740 L 100 740 L 100 760 L 120 760 z M 100 760 L 80 760 L 80 780 L 100 780 L 100 760 z M 80 760 L 80 740 L 60 740 L 60 760 L 80 760 z M 60 760 L 40 760 L 40 780 L 60 780 L 60 760 z M 60 740 L 60 720 L 40 720 L 40 740 L 60 740 z M 60 720 L 80 720 L 80 700 L 60 700 L 60 720 z M 60 700 L 60 680 L 40 680 L 40 700 L 60 700 z M 60 680 L 80 680 L 80 660 L 60 660 L 60 680 z M 60 660 L 60 640 L 40 640 L 40 660 L 60 660 z M 60 640 L 80 640 L 80 620 L 60 620 L 60 640 z M 60 620 L 60 600 L 40 600 L 40 620 L 60 620 z M 60 600 L 80 600 L 80 580 L 60 580 L 60 600 z M 60 580 L 60 560 L 40 560 L 40 580 L 60 580 z M 60 560 L 80 560 L 80 540 L 60 540 L 60 560 z M 60 540 L 60 520 L 40 520 L 40 540 L 60 540 z M 60 520 L 80 520 L 80 500 L 60 500 L 60 520 z M 60 500 L 60 480 L 40 480 L 40 500 L 60 500 z M 60 480 L 80 480 L 80 460 L 60 460 L 60 480 z M 60 460 L 60 440 L 40 440 L 40 460 L 60 460 z M 60 440 L 80 440 L 80 420 L 60 420 L 60 440 z M 60 420 L 60 400 L 40 400 L 40 420 L 60 420 z M 60 400 L 80 400 L 80 380 L 60 380 L 60 400 z M 60 380 L 60 360 L 40 360 L 40 380 L 60 380 z M 60 360 L 80 360 L 80 340 L 60 340 L 60 360 z M 60 340 L 60 320 L 40 320 L 40 340 L 60 340 z M 60 320 L 80 320 L 80 300 L 60 300 L 60 320 z M 60 300 L 60 280 L 40 280 L 40 300 L 60 300 z M 60 280 L 80 280 L 80 260 L 60 260 L 60 280 z M 60 260 L 60 240 L 40 240 L 40 260 L 60 260 z M 80 260 L 100 260 L 100 240 L 80 240 L 80 260 z M 100 260 L 100 280 L 120 280 L 120 260 L 100 260 z M 100 280 L 80 280 L 80 300 L 100 300 L 100 280 z M 100 300 L 100 320 L 120 320 L 120 300 L 100 300 z M 100 320 L 80 320 L 80 340 L 100 340 L 100 320 z M 100 340 L 100 360 L 120 360 L 120 340 L 100 340 z M 100 360 L 80 360 L 80 380 L 100 380 L 100 360 z M 100 380 L 100 400 L 120 400 L 120 380 L 100 380 z M 100 400 L 80 400 L 80 420 L 100 420 L 100 400 z M 100 420 L 100 440 L 120 440 L 120 420 L 100 420 z M 100 440 L 80 440 L 80 460 L 100 460 L 100 440 z M 100 460 L 100 480 L 120 480 L 120 460 L 100 460 z M 100 480 L 80 480 L 80 500 L 100 500 L 100 480 z M 100 500 L 100 520 L 120 520 L 120 500 L 100 500 z M 100 520 L 80 520 L 80 540 L 100 540 L 100 520 z M 100 540 L 100 560 L 120 560 L 120 540 L 100 540 z M 100 560 L 80 560 L 80 580 L 100 580 L 100 560 z M 100 580 L 100 600 L 120 600 L 120 580 L 100 580 z M 100 600 L 80 600 L 80 620 L 100 620 L 100 600 z M 100 620 L 100 640 L 120 640 L 120 620 L 100 620 z M 100 640 L 80 640 L 80 660 L 100 660 L 100 640 z M 100 660 L 100 680 L 120 680 L 120 660 L 100 660 z M 100 680 L 80 680 L 80 700 L 100 700 L 100 680 z M 100 700 L 100 720 L 120 720 L 120 700 L 100 700 z M 100 720 L 80 720 L 80 740 L 100 740 L 100 720 z M 360 200 L 360 220 L 380 220 L 380 200 L 360 200 z M 380 220 L 380 240 L 400 240 L 400 220 L 380 220 z M 400 220 L 420 220 L 420 200 L 400 200 L 400 220 z M 420 220 L 420 240 L 440 240 L 440 220 L 420 220 z M 440 220 L 460 220 L 460 200 L 440 200 L 440 220 z M 460 220 L 460 240 L 480 240 L 480 220 L 460 220 z M 480 220 L 500 220 L 500 200 L 480 200 L 480 220 z M 500 220 L 500 240 L 520 240 L 520 220 L 500 220 z M 520 220 L 540 220 L 540 200 L 520 200 L 520 220 z M 540 220 L 540 240 L 560 240 L 560 220 L 540 220 z M 560 220 L 580 220 L 580 200 L 560 200 L 560 220 z M 580 220 L 580 240 L 600 240 L 600 220 L 580 220 z M 600 220 L 620 220 L 620 200 L 600 200 L 600 220 z M 620 220 L 620 240 L 640 240 L 640 220 L 620 220 z M 640 220 L 660 220 L 660 200 L 640 200 L 640 220 z M 660 220 L 660 240 L 680 240 L 680 220 L 660 220 z M 680 220 L 700 220 L 700 200 L 680 200 L 680 220 z M 700 220 L 700 240 L 720 240 L 720 220 L 700 220 z M 720 220 L 740 220 L 740 200 L 720 200 L 720 220 z M 740 220 L 740 240 L 760 240 L 760 220 L 740 220 z M 760 220 L 780 220 L 780 200 L 760 200 L 760 220 z M 780 220 L 780 240 L 800 240 L 800 220 L 780 220 z M 800 220 L 820 220 L 820 200 L 800 200 L 800 220 z M 820 220 L 820 240 L 840 240 L 840 220 L 820 220 z M 840 220 L 860 220 L 860 200 L 840 200 L 840 220 z M 860 220 L 860 240 L 880 240 L 880 220 L 860 220 z M 880 220 L 900 220 L 900 200 L 880 200 L 880 220 z M 900 220 L 900 240 L 920 240 L 920 220 L 900 220 z M 900 240 L 880 240 L 880 260 L 900 260 L 900 240 z M 900 260 L 900 280 L 920 280 L 920 260 L 900 260 z M 900 280 L 880 280 L 880 300 L 900 300 L 900 280 z M 900 300 L 900 320 L 920 320 L 920 300 L 900 300 z M 900 320 L 880 320 L 880 340 L 900 340 L 900 320 z M 900 340 L 900 360 L 920 360 L 920 340 L 900 340 z M 900 360 L 880 360 L 880 380 L 900 380 L 900 360 z M 900 380 L 900 400 L 920 400 L 920 380 L 900 380 z M 900 400 L 880 400 L 880 420 L 900 420 L 900 400 z M 900 420 L 900 440 L 920 440 L 920 420 L 900 420 z M 900 440 L 880 440 L 880 460 L 900 460 L 900 440 z M 900 460 L 900 480 L 920 480 L 920 460 L 900 460 z M 900 480 L 880 480 L 880 500 L 900 500 L 900 480 z M 900 500 L 900 520 L 920 520 L 920 500 L 900 500 z M 900 520 L 880 520 L 880 540 L 900 540 L 900 520 z M 900 540 L 900 560 L 920 560 L 920 540 L 900 540 z M 900 560 L 880 560 L 880 580 L 900 580 L 900 560 z M 900 580 L 900 600 L 920 600 L 920 580 L 900 580 z M 900 600 L 880 600 L 880 620 L 900 620 L 900 600 z M 900 620 L 900 640 L 920 640 L 920 620 L 900 620 z M 900 640 L 880 640 L 880 660 L 900 660 L 900 640 z M 900 660 L 900 680 L 920 680 L 920 660 L 900 660 z M 900 680 L 880 680 L 880 700 L 900 700 L 900 680 z M 900 700 L 900 720 L 920 720 L 920 700 L 900 700 z M 900 720 L 880 720 L 880 740 L 900 740 L 900 720 z M 900 740 L 900 760 L 920 760 L 920 740 L 900 740 z M 900 760 L 880 760 L 880 780 L 900 780 L 900 760 z M 880 760 L 880 740 L 860 740 L 860 760 L 880 760 z M 860 760 L 840 760 L 840 780 L 860 780 L 860 760 z M 840 760 L 840 740 L 820 740 L 820 760 L 840 760 z M 820 760 L 800 760 L 800 780 L 820 780 L 820 760 z M 800 760 L 800 740 L 780 740 L 780 760 L 800 760 z M 780 760 L 760 760 L 760 780 L 780 780 L 780 760 z M 760 760 L 760 740 L 740 740 L 740 760 L 760 760 z M 740 760 L 720 760 L 720 780 L 740 780 L 740 760 z M 720 760 L 720 740 L 700 740 L 700 760 L 720 760 z M 700 760 L 680 760 L 680 780 L 700 780 L 700 760 z M 680 760 L 680 740 L 660 740 L 660 760 L 680 760 z M 660 760 L 640 760 L 640 780 L 660 780 L 660 760 z M 640 760 L 640 740 L 620 740 L 620 760 L 640 760 z M 620 760 L 600 760 L 600 780 L 620 780 L 620 760 z M 600 760 L 600 740 L 580 740 L 580 760 L 600 760 z M 580 760 L 560 760 L 560 780 L 580 780 L 580 760 z M 560 760 L 560 740 L 540 740 L 540 760 L 560 760 z M 540 760 L 520 760 L 520 780 L 540 780 L 540 760 z M 520 760 L 520 740 L 500 740 L 500 760 L 520 760 z M 500 760 L 480 760 L 480 780 L 500 780 L 500 760 z M 480 760 L 480 740 L 460 740 L 460 760 L 480 760 z M 460 760 L 440 760 L 440 780 L 460 780 L 460 760 z M 440 760 L 440 740 L 420 740 L 420 760 L 440 760 z M 420 760 L 400 760 L 400 780 L 420 780 L 420 760 z M 400 760 L 400 740 L 380 740 L 380 760 L 400 760 z M 380 760 L 360 760 L 360 780 L 380 780 L 380 760 z M 380 740 L 380 720 L 360 720 L 360 740 L 380 740 z M 380 720 L 400 720 L 400 700 L 380 700 L 380 720 z M 380 700 L 380 680 L 360 680 L 360 700 L 380 700 z M 380 680 L 400 680 L 400 660 L 380 660 L 380 680 z M 380 660 L 380 640 L 360 640 L 360 660 L 380 660 z M 380 640 L 400 640 L 400 620 L 380 620 L 380 640 z M 380 620 L 380 600 L 360 600 L 360 620 L 380 620 z M 380 600 L 400 600 L 400 580 L 380 580 L 380 600 z M 380 580 L 380 560 L 360 560 L 360 580 L 380 580 z M 380 560 L 400 560 L 400 540 L 380 540 L 380 560 z M 380 540 L 380 520 L 360 520 L 360 540 L 380 540 z M 380 520 L 400 520 L 400 500 L 380 500 L 380 520 z M 380 500 L 380 480 L 360 480 L 360 500 L 380 500 z M 380 480 L 400 480 L 400 460 L 380 460 L 380 480 z M 380 460 L 380 440 L 360 440 L 360 460 L 380 460 z M 380 440 L 400 440 L 400 420 L 380 420 L 380 440 z M 380 420 L 380 400 L 360 400 L 360 420 L 380 420 z M 380 400 L 400 400 L 400 380 L 380 380 L 380 400 z M 380 380 L 380 360 L 360 360 L 360 380 L 380 380 z M 380 360 L 400 360 L 400 340 L 380 340 L 380 360 z M 380 340 L 380 320 L 360 320 L 360 340 L 380 340 z M 380 320 L 400 320 L 400 300 L 380 300 L 380 320 z M 380 300 L 380 280 L 360 280 L 360 300 L 380 300 z M 380 280 L 400 280 L 400 260 L 380 260 L 380 280 z M 380 260 L 380 240 L 360 240 L 360 260 L 380 260 z M 400 260 L 420 260 L 420 240 L 400 240 L 400 260 z M 420 260 L 420 280 L 440 280 L 440 260 L 420 260 z M 440 260 L 460 260 L 460 240 L 440 240 L 440 260 z M 460 260 L 460 280 L 480 280 L 480 260 L 460 260 z M 480 260 L 500 260 L 500 240 L 480 240 L 480 260 z M 500 260 L 500 280 L 520 280 L 520 260 L 500 260 z M 520 260 L 540 260 L 540 240 L 520 240 L 520 260 z M 540 260 L 540 280 L 560 280 L 560 260 L 540 260 z M 560 260 L 580 260 L 580 240 L 560 240 L 560 260 z M 580 260 L 580 280 L 600 280 L 600 260 L 580 260 z M 600 260 L 620 260 L 620 240 L 600 240 L 600 260 z M 620 260 L 620 280 L 640 280 L 640 260 L 620 260 z M 640 260 L 660 260 L 660 240 L 640 240 L 640 260 z M 660 260 L 660 280 L 680 280 L 680 260 L 660 260 z M 680 260 L 700 260 L 700 240 L 680 240 L 680 260 z M 700 260 L 700 280 L 720 280 L 720 260 L 700 260 z M 720 260 L 740 260 L 740 240 L 720 240 L 720 260 z M 740 260 L 740 280 L 760 280 L 760 260 L 740 260 z M 760 260 L 780 260 L 780 240 L 760 240 L 760 260 z M 780 260 L 780 280 L 800 280 L 800 260 L 780 260 z M 800 260 L 820 260 L 820 240 L 800 240 L 800 260 z M 820 260 L 820 280 L 840 280 L 840 260 L 820 260 z M 840 260 L 860 260 L 860 240 L 840 240 L 840 260 z M 860 260 L 860 280 L 880 280 L 880 260 L 860 260 z M 860 280 L 840 280 L 840 300 L 860 300 L 860 280 z M 860 300 L 860 320 L 880 320 L 880 300 L 860 300 z M 860 320 L 840 320 L 840 340 L 860 340 L 860 320 z M 860 340 L 860 360 L 880 360 L 880 340 L 860 340 z M 860 360 L 840 360 L 840 380 L 860 380 L 860 360 z M 860 380 L 860 400 L 880 400 L 880 380 L 860 380 z M 860 400 L 840 400 L 840 420 L 860 420 L 860 400 z M 860 420 L 860 440 L 880 440 L 880 420 L 860 420 z M 860 440 L 840 440 L 840 460 L 860 460 L 860 440 z M 860 460 L 860 480 L 880 480 L 880 460 L 860 460 z M 860 480 L 840 480 L 840 500 L 860 500 L 860 480 z M 860 500 L 860 520 L 880 520 L 880 500 L 860 500 z M 860 520 L 840 520 L 840 540 L 860 540 L 860 520 z M 860 540 L 860 560 L 880 560 L 880 540 L 860 540 z M 860 560 L 840 560 L 840 580 L 860 580 L 860 560 z M 860 580 L 860 600 L 880 600 L 880 580 L 860 580 z M 860 600 L 840 600 L 840 620 L 860 620 L 860 600 z M 860 620 L 860 640 L 880 640 L 880 620 L 860 620 z M 860 640 L 840 640 L 840 660 L 860 660 L 860 640 z M 860 660 L 860 680 L 880 680 L 880 660 L 860 660 z M 860 680 L 840 680 L 840 700 L 860 700 L 860 680 z M 860 700 L 860 720 L 880 720 L 880 700 L 860 700 z M 860 720 L 840 720 L 840 740 L 860 740 L 860 720 z M 840 720 L 840 700 L 820 700 L 820 720 L 840 720 z M 820 720 L 800 720 L 800 740 L 820 740 L 820 720 z M 800 720 L 800 700 L 780 700 L 780 720 L 800 720 z M 780 720 L 760 720 L 760 740 L 780 740 L 780 720 z M 760 720 L 760 700 L 740 700 L 740 720 L 760 720 z M 740 720 L 720 720 L 720 740 L 740 740 L 740 720 z M 720 720 L 720 700 L 700 700 L 700 720 L 720 720 z M 700 720 L 680 720 L 680 740 L 700 740 L 700 720 z M 680 720 L 680 700 L 660 700 L 660 720 L 680 720 z M 660 720 L 640 720 L 640 740 L 660 740 L 660 720 z M 640 720 L 640 700 L 620 700 L 620 720 L 640 720 z M 620 720 L 600 720 L 600 740 L 620 740 L 620 720 z M 600 720 L 600 700 L 580 700 L 580 720 L 600 720 z M 580 720 L 560 720 L 560 740 L 580 740 L 580 720 z M 560 720 L 560 700 L 540 700 L 540 720 L 560 720 z M 540 720 L 520 720 L 520 740 L 540 740 L 540 720 z M 520 720 L 520 700 L 500 700 L 500 720 L 520 720 z M 500 720 L 480 720 L 480 740 L 500 740 L 500 720 z M 480 720 L 480 700 L 460 700 L 460 720 L 480 720 z M 460 720 L 440 720 L 440 740 L 460 740 L 460 720 z M 440 720 L 440 700 L 420 700 L 420 720 L 440 720 z M 420 720 L 400 720 L 400 740 L 420 740 L 420 720 z M 420 700 L 420 680 L 400 680 L 400 700 L 420 700 z M 420 680 L 440 680 L 440 660 L 420 660 L 420 680 z M 420 660 L 420 640 L 400 640 L 400 660 L 420 660 z M 420 640 L 440 640 L 440 620 L 420 620 L 420 640 z M 420 620 L 420 600 L 400 600 L 400 620 L 420 620 z M 420 600 L 440 600 L 440 580 L 420 580 L 420 600 z M 420 580 L 420 560 L 400 560 L 400 580 L 420 580 z M 420 560 L 440 560 L 440 540 L 420 540 L 420 560 z M 420 540 L 420 520 L 400 520 L 400 540 L 420 540 z M 420 520 L 440 520 L 440 500 L 420 500 L 420 520 z M 420 500 L 420 480 L 400 480 L 400 500 L 420 500 z M 420 480 L 440 480 L 440 460 L 420 460 L 420 480 z M 420 460 L 420 440 L 400 440 L 400 460 L 420 460 z M 420 440 L 440 440 L 440 420 L 420 420 L 420 440 z M 420 420 L 420 400 L 400 400 L 400 420 L 420 420 z M 420 400 L 440 400 L 440 380 L 420 380 L 420 400 z M 420 380 L 420 360 L 400 360 L 400 380 L 420 380 z M 420 360 L 440 360 L 440 340 L 420 340 L 420 360 z M 420 340 L 420 320 L 400 320 L 400 340 L 420 340 z M 420 320 L 440 320 L 440 300 L 420 300 L 420 320 z M 420 300 L 420 280 L 400 280 L 400 300 L 420 300 z M 440 300 L 460 300 L 460 280 L 440 280 L 440 300 z M 460 300 L 460 320 L 480 320 L 480 300 L 460 300 z M 480 300 L 500 300 L 500 280 L 480 280 L 480 300 z M 500 300 L 500 320 L 520 320 L 520 300 L 500 300 z M 520 300 L 540 300 L 540 280 L 520 280 L 520 300 z M 540 300 L 540 320 L 560 320 L 560 300 L 540 300 z M 560 300 L 580 300 L 580 280 L 560 280 L 560 300 z M 580 300 L 580 320 L 600 320 L 600 300 L 580 300 z M 600 300 L 620 300 L 620 280 L 600 280 L 600 300 z M 620 300 L 620 320 L 640 320 L 640 300 L 620 300 z M 640 300 L 660 300 L 660 280 L 640 280 L 640 300 z M 660 300 L 660 320 L 680 320 L 680 300 L 660 300 z M 680 300 L 700 300 L 700 280 L 680 280 L 680 300 z M 700 300 L 700 320 L 720 320 L 720 300 L 700 300 z M 720 300 L 740 300 L 740 280 L 720 280 L 720 300 z M 740 300 L 740 320 L 760 320 L 760 300 L 740 300 z M 760 300 L 780 300 L 780 280 L 760 280 L 760 300 z M 780 300 L 780 320 L 800 320 L 800 300 L 780 300 z M 800 300 L 820 300 L 820 280 L 800 280 L 800 300 z M 820 300 L 820 320 L 840 320 L 840 300 L 820 300 z M 820 320 L 800 320 L 800 340 L 820 340 L 820 320 z M 820 340 L 820 360 L 840 360 L 840 340 L 820 340 z M 820 360 L 800 360 L 800 380 L 820 380 L 820 360 z M 820 380 L 820 400 L 840 400 L 840 380 L 820 380 z M 820 400 L 800 400 L 800 420 L 820 420 L 820 400 z M 820 420 L 820 440 L 840 440 L 840 420 L 820 420 z M 820 440 L 800 440 L 800 460 L 820 460 L 820 440 z M 820 460 L 820 480 L 840 480 L 840 460 L 820 460 z M 820 480 L 800 480 L 800 500 L 820 500 L 820 480 z M 820 500 L 820 520 L 840 520 L 840 500 L 820 500 z M 820 520 L 800 520 L 800 540 L 820 540 L 820 520 z M 820 540 L 820 560 L 840 560 L 840 540 L 820 540 z M 820 560 L 800 560 L 800 580 L 820 580 L 820 560 z M 820 580 L 820 600 L 840 600 L 840 580 L 820 580 z M 820 600 L 800 600 L 800 620 L 820 620 L 820 600 z M 820 620 L 820 640 L 840 640 L 840 620 L 820 620 z M 820 640 L 800 640 L 800 660 L 820 660 L 820 640 z M 820 660 L 820 680 L 840 680 L 840 660 L 820 660 z M 820 680 L 800 680 L 800 700 L 820 700 L 820 680 z M 800 680 L 800 660 L 780 660 L 780 680 L 800 680 z M 780 680 L 760 680 L 760 700 L 780 700 L 780 680 z M 760 680 L 760 660 L 740 660 L 740 680 L 760 680 z M 740 680 L 720 680 L 720 700 L 740 700 L 740 680 z M 720 680 L 720 660 L 700 660 L 700 680 L 720 680 z M 700 680 L 680 680 L 680 700 L 700 700 L 700 680 z M 680 680 L 680 660 L 660 660 L 660 680 L 680 680 z M 660 680 L 640 680 L 640 700 L 660 700 L 660 680 z M 640 680 L 640 660 L 620 660 L 620 680 L 640 680 z M 620 680 L 600 680 L 600 700 L 620 700 L 620 680 z M 600 680 L 600 660 L 580 660 L 580 680 L 600 680 z M 580 680 L 560 680 L 560 700 L 580 700 L 580 680 z M 560 680 L 560 660 L 540 660 L 540 680 L 560 680 z M 540 680 L 520 680 L 520 700 L 540 700 L 540 680 z M 520 680 L 520 660 L 500 660 L 500 680 L 520 680 z M 500 680 L 480 680 L 480 700 L 500 700 L 500 680 z M 480 680 L 480 660 L 460 660 L 460 680 L 480 680 z M 460 680 L 440 680 L 440 700 L 460 700 L 460 680 z M 460 660 L 460 640 L 440 640 L 440 660 L 460 660 z M 460 640 L 480 640 L 480 620 L 460 620 L 460 640 z M 460 620 L 460 600 L 440 600 L 440 620 L 460 620 z M 460 600 L 480 600 L 480 580 L 460 580 L 460 600 z M 460 580 L 460 560 L 440 560 L 440 580 L 460 580 z M 460 560 L 480 560 L 480 540 L 460 540 L 460 560 z M 460 540 L 460 520 L 440 520 L 440 540 L 460 540 z M 460 520 L 480 520 L 480 500 L 460 500 L 460 520 z M 460 500 L 460 480 L 440 480 L 440 500 L 460 500 z M 460 480 L 480 480 L 480 460 L 460 460 L 460 480 z M 460 460 L 460 440 L 440 440 L 440 460 L 460 460 z M 460 440 L 480 440 L 480 420 L 460 420 L 460 440 z M 460 420 L 460 400 L 440 400 L 440 420 L 460 420 z M 460 400 L 480 400 L 480 380 L 460 380 L 460 400 z M 460 380 L 460 360 L 440 360 L 440 380 L 460 380 z M 460 360 L 480 360 L 480 340 L 460 340 L 460 360 z M 460 340 L 460 320 L 440 320 L 440 340 L 460 340 z M 480 340 L 500 340 L 500 320 L 480 320 L 480 340 z M 500 340 L 500 360 L 520 360 L 520 340 L 500 340 z M 520 340 L 540 340 L 540 320 L 520 320 L 520 340 z M 540 340 L 540 360 L 560 360 L 560 340 L 540 340 z M 560 340 L 580 340 L 580 320 L 560 320 L 560 340 z M 580 340 L 580 360 L 600 360 L 600 340 L 580 340 z M 600 340 L 620 340 L 620 320 L 600 320 L 600 340 z M 620 340 L 620 360 L 640 360 L 640 340 L 620 340 z M 640 340 L 660 340 L 660 320 L 640 320 L 640 340 z M 660 340 L 660 360 L 680 360 L 680 340 L 660 340 z M 680 340 L 700 340 L 700 320 L 680 320 L 680 340 z M 700 340 L 700 360 L 720 360 L 720 340 L 700 340 z M 720 340 L 740 340 L 740 320 L 720 320 L 720 340 z M 740 340 L 740 360 L 760 360 L 760 340 L 740 340 z M 760 340 L 780 340 L 780 320 L 760 320 L 760 340 z M 780 340 L 780 360 L 800 360 L 800 340 L 780 340 z M 780 360 L 760 360 L 760 380 L 780 380 L 780 360 z M 780 380 L 780 400 L 800 400 L 800 380 L 780 380 z M 780 400 L 760 400 L 760 420 L 780 420 L 780 400 z M 780 420 L 780 440 L 800 440 L 800 420 L 780 420 z M 780 440 L 760 440 L 760 460 L 780 460 L 780 440 z M 780 460 L 780 480 L 800 480 L 800 460 L 780 460 z M 780 480 L 760 480 L 760 500 L 780 500 L 780 480 z M 780 500 L 780 520 L 800 520 L 800 500 L 780 500 z M 780 520 L 760 520 L 760 540 L 780 540 L 780 520 z M 780 540 L 780 560 L 800 560 L 800 540 L 780 540 z M 780 560 L 760 560 L 760 580 L 780 580 L 780 560 z M 780 580 L 780 600 L 800 600 L 800 580 L 780 580 z M 780 600 L 760 600 L 760 620 L 780 620 L 780 600 z M 780 620 L 780 640 L 800 640 L 800 620 L 780 620 z M 780 640 L 760 640 L 760 660 L 780 660 L 780 640 z M 760 640 L 760 620 L 740 620 L 740 640 L 760 640 z M 740 640 L 720 640 L 720 660 L 740 660 L 740 640 z M 720 640 L 720 620 L 700 620 L 700 640 L 720 640 z M 700 640 L 680 640 L 680 660 L 700 660 L 700 640 z M 680 640 L 680 620 L 660 620 L 660 640 L 680 640 z M 660 640 L 640 640 L 640 660 L 660 660 L 660 640 z M 640 640 L 640 620 L 620 620 L 620 640 L 640 640 z M 620 640 L 600 640 L 600 660 L 620 660 L 620 640 z M 600 640 L 600 620 L 580 620 L 580 640 L 600 640 z M 580 640 L 560 640 L 560 660 L 580 660 L 580 640 z M 560 640 L 560 620 L 540 620 L 540 640 L 560 640 z M 540 640 L 520 640 L 520 660 L 540 660 L 540 640 z M 520 640 L 520 620 L 500 620 L 500 640 L 520 640 z M 500 640 L 480 640 L 480 660 L 500 660 L 500 640 z M 500 620 L 500 600 L 480 600 L 480 620 L 500 620 z M 500 600 L 520 600 L 520 580 L 500 580 L 500 600 z M 500 580 L 500 560 L 480 560 L 480 580 L 500 580 z M 500 560 L 520 560 L 520 540 L 500 540 L 500 560 z M 500 540 L 500 520 L 480 520 L 480 540 L 500 540 z M 500 520 L 520 520 L 520 500 L 500 500 L 500 520 z M 500 500 L 500 480 L 480 480 L 480 500 L 500 500 z M 500 480 L 520 480 L 520 460 L 500 460 L 500 480 z M 500 460 L 500 440 L 480 440 L 480 460 L 500 460 z M 500 440 L 520 440 L 520 420 L 500 420 L 500 440 z M 500 420 L 500 400 L 480 400 L 480 420 L 500 420 z M 500 400 L 520 400 L 520 380 L 500 380 L 500 400 z M 500 380 L 500 360 L 480 360 L 480 380 L 500 380 z M 520 380 L 540 380 L 540 360 L 520 360 L 520 380 z M 540 380 L 540 400 L 560 400 L 560 380 L 540 380 z M 560 380 L 580 380 L 580 360 L 560 360 L 560 380 z M 580 380 L 580 400 L 600 400 L 600 380 L 580 380 z M 600 380 L 620 380 L 620 360 L 600 360 L 600 380 z M 620 380 L 620 400 L 640 400 L 640 380 L 620 380 z M 640 380 L 660 380 L 660 360 L 640 360 L 640 380 z M 660 380 L 660 400 L 680 400 L 680 380 L 660 380 z M 680 380 L 700 380 L 700 360 L 680 360 L 680 380 z M 700 380 L 700 400 L 720 400 L 720 380 L 700 380 z M 720 380 L 740 380 L 740 360 L 720 360 L 720 380 z M 740 380 L 740 400 L 760 400 L 760 380 L 740 380 z M 740 400 L 720 400 L 720 420 L 740 420 L 740 400 z M 740 420 L 740 440 L 760 440 L 760 420 L 740 420 z M 740 440 L 720 440 L 720 460 L 740 460 L 740 440 z M 740 460 L 740 480 L 760 480 L 760 460 L 740 460 z M 740 480 L 720 480 L 720 500 L 740 500 L 740 480 z M 740 500 L 740 520 L 760 520 L 760 500 L 740 500 z M 740 520 L 720 520 L 720 540 L 740 540 L 740 520 z M 740 540 L 740 560 L 760 560 L 760 540 L 740 540 z M 740 560 L 720 560 L 720 580 L 740 580 L 740 560 z M 740 580 L 740 600 L 760 600 L 760 580 L 740 580 z M 740 600 L 720 600 L 720 620 L 740 620 L 740 600 z M 720 600 L 720 580 L 700 580 L 700 600 L 720 600 z M 700 600 L 680 600 L 680 620 L 700 620 L 700 600 z M 680 600 L 680 580 L 660 580 L 660 600 L 680 600 z M 660 600 L 640 600 L 640 620 L 660 620 L 660 600 z M 640 600 L 640 580 L 620 580 L 620 600 L 640 600 z M 620 600 L 600 600 L 600 620 L 620 620 L 620 600 z M 600 600 L 600 580 L 580 580 L 580 600 L 600 600 z M 580 600 L 560 600 L 560 620 L 580 620 L 580 600 z M 560 600 L 560 580 L 540 580 L 540 600 L 560 600 z M 540 600 L 520 600 L 520 620 L 540 620 L 540 600 z M 540 580 L 540 560 L 520 560 L 520 580 L 540 580 z M 540 560 L 560 560 L 560 540 L 540 540 L 540 560 z M 540 540 L 540 520 L 520 520 L 520 540 L 540 540 z M 540 520 L 560 520 L 560 500 L 540 500 L 540 520 z M 540 500 L 540 480 L 520 480 L 520 500 L 540 500 z M 540 480 L 560 480 L 560 460 L 540 460 L 540 480 z M 540 460 L 540 440 L 520 440 L 520 460 L 540 460 z M 540 440 L 560 440 L 560 420 L 540 420 L 540 440 z M 540 420 L 540 400 L 520 400 L 520 420 L 540 420 z M 560 420 L 580 420 L 580 400 L 560 400 L 560 420 z M 580 420 L 580 440 L 600 440 L 600 420 L 580 420 z M 600 420 L 620 420 L 620 400 L 600 400 L 600 420 z M 620 420 L 620 440 L 640 440 L 640 420 L 620 420 z M 640 420 L 660 420 L 660 400 L 640 400 L 640 420 z M 660 420 L 660 440 L 680 440 L 680 420 L 660 420 z M 680 420 L 700 420 L 700 400 L 680 400 L 680 420 z M 700 420 L 700 440 L 720 440 L 720 420 L 700 420 z M 700 440 L 680 440 L 680 460 L 700 460 L 700 440 z M 700 460 L 700 480 L 720 480 L 720 460 L 700 460 z M 700 480 L 680 480 L 680 500 L 700 500 L 700 480 z M 700 500 L 700 520 L 720 520 L 720 500 L 700 500 z M 700 520 L 680 520 L 680 540 L 700 540 L 700 520 z M 700 540 L 700 560 L 720 560 L 720 540 L 700 540 z M 700 560 L 680 560 L 680 580 L 700 580 L 700 560 z M 680 560 L 680 540 L 660 540 L 660 560 L 680 560 z M 660 560 L 640 560 L 640 580 L 660 580 L 660 560 z M 640 560 L 640 540 L 620 540 L 620 560 L 640 560 z M 620 560 L 600 560 L 600 580 L 620 580 L 620 560 z M 600 560 L 600 540 L 580 540 L 580 560 L 600 560 z M 580 560 L 560 560 L 560 580 L 580 580 L 580 560 z M 580 540 L 580 520 L 560 520 L 560 540 L 580 540 z M 580 520 L 600 520 L 600 500 L 580 500 L 580 520 z M 580 500 L 580 480 L 560 480 L 560 500 L 580 500 z M 580 480 L 600 480 L 600 460 L 580 460 L 580 480 z M 580 460 L 580 440 L 560 440 L 560 460 L 580 460 z M 600 460 L 620 460 L 620 440 L 600 440 L 600 460 z M 620 460 L 620 480 L 640 480 L 640 460 L 620 460 z M 640 460 L 660 460 L 660 440 L 640 440 L 640 460 z M 660 460 L 660 480 L 680 480 L 680 460 L 660 460 z M 660 480 L 640 480 L 640 500 L 660 500 L 660 480 z M 660 500 L 660 520 L 680 520 L 680 500 L 660 500 z M 660 520 L 640 520 L 640 540 L 660 540 L 660 520 z M 640 520 L 640 500 L 620 500 L 620 520 L 640 520 z M 620 520 L 600 520 L 600 540 L 620 540 L 620 520 z M 620 500 L 620 480 L 600 480 L 600 500 L 620 500 z M 260 240 L 260 260 L 280 260 L 280 240 L 260 240 z M 260 260 L 240 260 L 240 280 L 260 280 L 260 260 z M 260 360 L 260 380 L 280 380 L 280 360 L 260 360 z M 260 380 L 240 380 L 240 400 L 260 400 L 260 380 z M 260 400 L 260 420 L 280 420 L 280 400 L 260 400 z M 260 420 L 240 420 L 240 440 L 260 440 L 260 420 z M 260 440 L 260 460 L 280 460 L 280 440 L 260 440 z "
     style="fill:#ffff00" />
  <path
     id="rect3256"
     d="M 120 60 L 120 80 L 140 80 L 140 60 L 120 60 z M 140 80 L 140 100 L 160 100 L 160 80 L 140 80 z M 160 80 L 180 80 L 180 60 L 160 60 L 160 80 z M 180 80 L 180 100 L 200 100 L 200 80 L 180 80 z M 200 80 L 220 80 L 220 60 L 200 60 L 200 80 z M 180 100 L 160 100 L 160 120 L 180 120 L 180 100 z M 160 120 L 140 120 L 140 140 L 160 140 L 160 120 z M 140 140 L 120 140 L 120 160 L 140 160 L 140 140 z M 140 160 L 140 180 L 160 180 L 160 160 L 140 160 z M 120 160 L 100 160 L 100 180 L 120 180 L 120 160 z M 100 160 L 100 140 L 80 140 L 80 160 L 100 160 z M 80 160 L 60 160 L 60 180 L 80 180 L 80 160 z M 60 160 L 60 140 L 40 140 L 40 160 L 60 160 z M 40 160 L 20 160 L 20 180 L 40 180 L 40 160 z M 60 140 L 80 140 L 80 120 L 60 120 L 60 140 z M 80 120 L 100 120 L 100 100 L 80 100 L 80 120 z M 100 100 L 120 100 L 120 80 L 100 80 L 100 100 z M 120 100 L 120 120 L 140 120 L 140 100 L 120 100 z M 120 120 L 100 120 L 100 140 L 120 140 L 120 120 z M 320 60 L 320 80 L 340 80 L 340 60 L 320 60 z M 340 80 L 340 100 L 360 100 L 360 80 L 340 80 z M 360 80 L 380 80 L 380 60 L 360 60 L 360 80 z M 380 80 L 380 100 L 400 100 L 400 80 L 380 80 z M 400 100 L 400 120 L 420 120 L 420 100 L 400 100 z M 420 120 L 420 140 L 440 140 L 440 120 L 420 120 z M 440 140 L 440 160 L 460 160 L 460 140 L 440 140 z M 460 160 L 460 180 L 480 180 L 480 160 L 460 160 z M 440 160 L 420 160 L 420 180 L 440 180 L 440 160 z M 420 160 L 420 140 L 400 140 L 400 160 L 420 160 z M 400 160 L 380 160 L 380 180 L 400 180 L 400 160 z M 380 160 L 380 140 L 360 140 L 360 160 L 380 160 z M 380 140 L 400 140 L 400 120 L 380 120 L 380 140 z M 380 120 L 380 100 L 360 100 L 360 120 L 380 120 z M 320 80 L 300 80 L 300 100 L 320 100 L 320 80 z M 260 80 L 260 100 L 260 120 L 260 140 L 260 160 L 260 180 L 260 200 L 260 220 L 280 220 L 280 200 L 280 180 L 280 160 L 280 140 L 280 120 L 280 100 L 280 80 L 260 80 z M 200 140 L 200 160 L 200 180 L 200 200 L 200 220 L 200 240 L 200 260 L 200 280 L 200 300 L 200 320 L 200 340 L 200 360 L 200 380 L 200 400 L 200 420 L 200 440 L 200 460 L 200 480 L 200 500 L 220 500 L 240 500 L 260 500 L 280 500 L 300 500 L 320 500 L 320 480 L 320 460 L 320 440 L 320 420 L 320 400 L 320 380 L 320 360 L 320 340 L 320 320 L 320 300 L 320 280 L 320 260 L 320 240 L 320 220 L 320 200 L 320 180 L 320 160 L 320 140 L 300 140 L 300 160 L 300 180 L 300 200 L 300 220 L 300 240 L 300 260 L 300 280 L 300 300 L 280 300 L 260 300 L 240 300 L 220 300 L 220 280 L 220 260 L 220 240 L 220 220 L 220 200 L 220 180 L 220 160 L 220 140 L 200 140 z M 60 200 L 60 220 L 80 220 L 80 200 L 60 200 z M 80 220 L 80 240 L 100 240 L 100 220 L 80 220 z M 100 220 L 120 220 L 120 200 L 100 200 L 100 220 z M 120 220 L 120 240 L 140 240 L 140 220 L 120 220 z M 140 220 L 160 220 L 160 200 L 140 200 L 140 220 z M 140 240 L 140 260 L 160 260 L 160 240 L 140 240 z M 140 260 L 120 260 L 120 280 L 140 280 L 140 260 z M 140 280 L 140 300 L 160 300 L 160 280 L 140 280 z M 140 300 L 120 300 L 120 320 L 140 320 L 140 300 z M 140 320 L 140 340 L 160 340 L 160 320 L 140 320 z M 140 340 L 120 340 L 120 360 L 140 360 L 140 340 z M 140 360 L 140 380 L 160 380 L 160 360 L 140 360 z M 140 380 L 120 380 L 120 400 L 140 400 L 140 380 z M 140 400 L 140 420 L 160 420 L 160 400 L 140 400 z M 140 420 L 120 420 L 120 440 L 140 440 L 140 420 z M 140 440 L 140 460 L 160 460 L 160 440 L 140 440 z M 140 460 L 120 460 L 120 480 L 140 480 L 140 460 z M 140 480 L 140 500 L 160 500 L 160 480 L 140 480 z M 140 500 L 120 500 L 120 520 L 140 520 L 140 500 z M 140 520 L 140 540 L 160 540 L 180 540 L 180 520 L 160 520 L 140 520 z M 140 540 L 120 540 L 120 560 L 140 560 L 140 540 z M 140 560 L 140 580 L 160 580 L 180 580 L 200 580 L 220 580 L 220 560 L 200 560 L 180 560 L 160 560 L 140 560 z M 140 580 L 120 580 L 120 600 L 140 600 L 140 580 z M 140 600 L 140 620 L 160 620 L 180 620 L 200 620 L 220 620 L 220 600 L 200 600 L 180 600 L 160 600 L 140 600 z M 140 620 L 120 620 L 120 640 L 140 640 L 140 620 z M 140 640 L 140 660 L 160 660 L 180 660 L 200 660 L 220 660 L 220 640 L 200 640 L 180 640 L 160 640 L 140 640 z M 140 660 L 120 660 L 120 680 L 140 680 L 140 660 z M 140 680 L 140 700 L 160 700 L 180 700 L 200 700 L 220 700 L 220 680 L 200 680 L 180 680 L 160 680 L 140 680 z M 140 700 L 120 700 L 120 720 L 140 720 L 140 700 z M 140 720 L 140 740 L 160 740 L 180 740 L 200 740 L 220 740 L 220 720 L 200 720 L 180 720 L 160 720 L 140 720 z M 140 740 L 120 740 L 120 760 L 140 760 L 140 740 z M 140 760 L 140 780 L 160 780 L 180 780 L 200 780 L 220 780 L 220 760 L 200 760 L 180 760 L 160 760 L 140 760 z M 120 760 L 100 760 L 100 780 L 120 780 L 120 760 z M 100 760 L 100 740 L 80 740 L 80 760 L 100 760 z M 80 760 L 60 760 L 60 780 L 80 780 L 80 760 z M 60 760 L 60 740 L 40 740 L 40 760 L 60 760 z M 60 740 L 80 740 L 80 720 L 60 720 L 60 740 z M 60 720 L 60 700 L 40 700 L 40 720 L 60 720 z M 60 700 L 80 700 L 80 680 L 60 680 L 60 700 z M 60 680 L 60 660 L 40 660 L 40 680 L 60 680 z M 60 660 L 80 660 L 80 640 L 60 640 L 60 660 z M 60 640 L 60 620 L 40 620 L 40 640 L 60 640 z M 60 620 L 80 620 L 80 600 L 60 600 L 60 620 z M 60 600 L 60 580 L 40 580 L 40 600 L 60 600 z M 60 580 L 80 580 L 80 560 L 60 560 L 60 580 z M 60 560 L 60 540 L 40 540 L 40 560 L 60 560 z M 60 540 L 80 540 L 80 520 L 60 520 L 60 540 z M 60 520 L 60 500 L 40 500 L 40 520 L 60 520 z M 60 500 L 80 500 L 80 480 L 60 480 L 60 500 z M 60 480 L 60 460 L 40 460 L 40 480 L 60 480 z M 60 460 L 80 460 L 80 440 L 60 440 L 60 460 z M 60 440 L 60 420 L 40 420 L 40 440 L 60 440 z M 60 420 L 80 420 L 80 400 L 60 400 L 60 420 z M 60 400 L 60 380 L 40 380 L 40 400 L 60 400 z M 60 380 L 80 380 L 80 360 L 60 360 L 60 380 z M 60 360 L 60 340 L 40 340 L 40 360 L 60 360 z M 60 340 L 80 340 L 80 320 L 60 320 L 60 340 z M 60 320 L 60 300 L 40 300 L 40 320 L 60 320 z M 60 300 L 80 300 L 80 280 L 60 280 L 60 300 z M 60 280 L 60 260 L 40 260 L 40 280 L 60 280 z M 60 260 L 80 260 L 80 240 L 60 240 L 60 260 z M 60 240 L 60 220 L 40 220 L 40 240 L 60 240 z M 80 260 L 80 280 L 100 280 L 100 260 L 80 260 z M 100 260 L 120 260 L 120 240 L 100 240 L 100 260 z M 100 280 L 100 300 L 120 300 L 120 280 L 100 280 z M 100 300 L 80 300 L 80 320 L 100 320 L 100 300 z M 100 320 L 100 340 L 120 340 L 120 320 L 100 320 z M 100 340 L 80 340 L 80 360 L 100 360 L 100 340 z M 100 360 L 100 380 L 120 380 L 120 360 L 100 360 z M 100 380 L 80 380 L 80 400 L 100 400 L 100 380 z M 100 400 L 100 420 L 120 420 L 120 400 L 100 400 z M 100 420 L 80 420 L 80 440 L 100 440 L 100 420 z M 100 440 L 100 460 L 120 460 L 120 440 L 100 440 z M 100 460 L 80 460 L 80 480 L 100 480 L 100 460 z M 100 480 L 100 500 L 120 500 L 120 480 L 100 480 z M 100 500 L 80 500 L 80 520 L 100 520 L 100 500 z M 100 520 L 100 540 L 120 540 L 120 520 L 100 520 z M 100 540 L 80 540 L 80 560 L 100 560 L 100 540 z M 100 560 L 100 580 L 120 580 L 120 560 L 100 560 z M 100 580 L 80 580 L 80 600 L 100 600 L 100 580 z M 100 600 L 100 620 L 120 620 L 120 600 L 100 600 z M 100 620 L 80 620 L 80 640 L 100 640 L 100 620 z M 100 640 L 100 660 L 120 660 L 120 640 L 100 640 z M 100 660 L 80 660 L 80 680 L 100 680 L 100 660 z M 100 680 L 100 700 L 120 700 L 120 680 L 100 680 z M 100 700 L 80 700 L 80 720 L 100 720 L 100 700 z M 100 720 L 100 740 L 120 740 L 120 720 L 100 720 z M 380 200 L 380 220 L 400 220 L 400 200 L 380 200 z M 400 220 L 400 240 L 420 240 L 420 220 L 400 220 z M 420 220 L 440 220 L 440 200 L 420 200 L 420 220 z M 440 220 L 440 240 L 460 240 L 460 220 L 440 220 z M 460 220 L 480 220 L 480 200 L 460 200 L 460 220 z M 480 220 L 480 240 L 500 240 L 500 220 L 480 220 z M 500 220 L 520 220 L 520 200 L 500 200 L 500 220 z M 520 220 L 520 240 L 540 240 L 540 220 L 520 220 z M 540 220 L 560 220 L 560 200 L 540 200 L 540 220 z M 560 220 L 560 240 L 580 240 L 580 220 L 560 220 z M 580 220 L 600 220 L 600 200 L 580 200 L 580 220 z M 600 220 L 600 240 L 620 240 L 620 220 L 600 220 z M 620 220 L 640 220 L 640 200 L 620 200 L 620 220 z M 640 220 L 640 240 L 660 240 L 660 220 L 640 220 z M 660 220 L 680 220 L 680 200 L 660 200 L 660 220 z M 680 220 L 680 240 L 700 240 L 700 220 L 680 220 z M 700 220 L 720 220 L 720 200 L 700 200 L 700 220 z M 720 220 L 720 240 L 740 240 L 740 220 L 720 220 z M 740 220 L 760 220 L 760 200 L 740 200 L 740 220 z M 760 220 L 760 240 L 780 240 L 780 220 L 760 220 z M 780 220 L 800 220 L 800 200 L 780 200 L 780 220 z M 800 220 L 800 240 L 820 240 L 820 220 L 800 220 z M 820 220 L 840 220 L 840 200 L 820 200 L 820 220 z M 840 220 L 840 240 L 860 240 L 860 220 L 840 220 z M 860 220 L 880 220 L 880 200 L 860 200 L 860 220 z M 880 220 L 880 240 L 900 240 L 900 220 L 880 220 z M 900 220 L 920 220 L 920 200 L 900 200 L 900 220 z M 900 240 L 900 260 L 920 260 L 920 240 L 900 240 z M 900 260 L 880 260 L 880 280 L 900 280 L 900 260 z M 900 280 L 900 300 L 920 300 L 920 280 L 900 280 z M 900 300 L 880 300 L 880 320 L 900 320 L 900 300 z M 900 320 L 900 340 L 920 340 L 920 320 L 900 320 z M 900 340 L 880 340 L 880 360 L 900 360 L 900 340 z M 900 360 L 900 380 L 920 380 L 920 360 L 900 360 z M 900 380 L 880 380 L 880 400 L 900 400 L 900 380 z M 900 400 L 900 420 L 920 420 L 920 400 L 900 400 z M 900 420 L 880 420 L 880 440 L 900 440 L 900 420 z M 900 440 L 900 460 L 920 460 L 920 440 L 900 440 z M 900 460 L 880 460 L 880 480 L 900 480 L 900 460 z M 900 480 L 900 500 L 920 500 L 920 480 L 900 480 z M 900 500 L 880 500 L 880 520 L 900 520 L 900 500 z M 900 520 L 900 540 L 920 540 L 920 520 L 900 520 z M 900 540 L 880 540 L 880 560 L 900 560 L 900 540 z M 900 560 L 900 580 L 920 580 L 920 560 L 900 560 z M 900 580 L 880 580 L 880 600 L 900 600 L 900 580 z M 900 600 L 900 620 L 920 620 L 920 600 L 900 600 z M 900 620 L 880 620 L 880 640 L 900 640 L 900 620 z M 900 640 L 900 660 L 920 660 L 920 640 L 900 640 z M 900 660 L 880 660 L 880 680 L 900 680 L 900 660 z M 900 680 L 900 700 L 920 700 L 920 680 L 900 680 z M 900 700 L 880 700 L 880 720 L 900 720 L 900 700 z M 900 720 L 900 740 L 920 740 L 920 720 L 900 720 z M 900 740 L 880 740 L 880 760 L 900 760 L 900 740 z M 900 760 L 900 780 L 920 780 L 920 760 L 900 760 z M 880 760 L 860 760 L 860 780 L 880 780 L 880 760 z M 860 760 L 860 740 L 840 740 L 840 760 L 860 760 z M 840 760 L 820 760 L 820 780 L 840 780 L 840 760 z M 820 760 L 820 740 L 800 740 L 800 760 L 820 760 z M 800 760 L 780 760 L 780 780 L 800 780 L 800 760 z M 780 760 L 780 740 L 760 740 L 760 760 L 780 760 z M 760 760 L 740 760 L 740 780 L 760 780 L 760 760 z M 740 760 L 740 740 L 720 740 L 720 760 L 740 760 z M 720 760 L 700 760 L 700 780 L 720 780 L 720 760 z M 700 760 L 700 740 L 680 740 L 680 760 L 700 760 z M 680 760 L 660 760 L 660 780 L 680 780 L 680 760 z M 660 760 L 660 740 L 640 740 L 640 760 L 660 760 z M 640 760 L 620 760 L 620 780 L 640 780 L 640 760 z M 620 760 L 620 740 L 600 740 L 600 760 L 620 760 z M 600 760 L 580 760 L 580 780 L 600 780 L 600 760 z M 580 760 L 580 740 L 560 740 L 560 760 L 580 760 z M 560 760 L 540 760 L 540 780 L 560 780 L 560 760 z M 540 760 L 540 740 L 520 740 L 520 760 L 540 760 z M 520 760 L 500 760 L 500 780 L 520 780 L 520 760 z M 500 760 L 500 740 L 480 740 L 480 760 L 500 760 z M 480 760 L 460 760 L 460 780 L 480 780 L 480 760 z M 460 760 L 460 740 L 440 740 L 440 760 L 460 760 z M 440 760 L 420 760 L 420 780 L 440 780 L 440 760 z M 420 760 L 420 740 L 400 740 L 400 760 L 420 760 z M 400 760 L 380 760 L 380 780 L 400 780 L 400 760 z M 380 760 L 380 740 L 360 740 L 360 760 L 380 760 z M 360 760 L 340 760 L 320 760 L 300 760 L 300 780 L 320 780 L 340 780 L 360 780 L 360 760 z M 360 740 L 360 720 L 340 720 L 320 720 L 300 720 L 300 740 L 320 740 L 340 740 L 360 740 z M 360 720 L 380 720 L 380 700 L 360 700 L 360 720 z M 360 700 L 360 680 L 340 680 L 320 680 L 300 680 L 300 700 L 320 700 L 340 700 L 360 700 z M 360 680 L 380 680 L 380 660 L 360 660 L 360 680 z M 360 660 L 360 640 L 340 640 L 320 640 L 300 640 L 300 660 L 320 660 L 340 660 L 360 660 z M 360 640 L 380 640 L 380 620 L 360 620 L 360 640 z M 360 620 L 360 600 L 340 600 L 320 600 L 300 600 L 300 620 L 320 620 L 340 620 L 360 620 z M 360 600 L 380 600 L 380 580 L 360 580 L 360 600 z M 360 580 L 360 560 L 340 560 L 320 560 L 300 560 L 300 580 L 320 580 L 340 580 L 360 580 z M 360 560 L 380 560 L 380 540 L 360 540 L 360 560 z M 360 540 L 360 520 L 340 520 L 340 540 L 360 540 z M 360 520 L 380 520 L 380 500 L 360 500 L 360 520 z M 380 500 L 400 500 L 400 480 L 380 480 L 380 500 z M 380 480 L 380 460 L 360 460 L 360 480 L 380 480 z M 380 460 L 400 460 L 400 440 L 380 440 L 380 460 z M 380 440 L 380 420 L 360 420 L 360 440 L 380 440 z M 380 420 L 400 420 L 400 400 L 380 400 L 380 420 z M 380 400 L 380 380 L 360 380 L 360 400 L 380 400 z M 380 380 L 400 380 L 400 360 L 380 360 L 380 380 z M 380 360 L 380 340 L 360 340 L 360 360 L 380 360 z M 380 340 L 400 340 L 400 320 L 380 320 L 380 340 z M 380 320 L 380 300 L 360 300 L 360 320 L 380 320 z M 380 300 L 400 300 L 400 280 L 380 280 L 380 300 z M 380 280 L 380 260 L 360 260 L 360 280 L 380 280 z M 380 260 L 400 260 L 400 240 L 380 240 L 380 260 z M 380 240 L 380 220 L 360 220 L 360 240 L 380 240 z M 400 260 L 400 280 L 420 280 L 420 260 L 400 260 z M 420 260 L 440 260 L 440 240 L 420 240 L 420 260 z M 440 260 L 440 280 L 460 280 L 460 260 L 440 260 z M 460 260 L 480 260 L 480 240 L 460 240 L 460 260 z M 480 260 L 480 280 L 500 280 L 500 260 L 480 260 z M 500 260 L 520 260 L 520 240 L 500 240 L 500 260 z M 520 260 L 520 280 L 540 280 L 540 260 L 520 260 z M 540 260 L 560 260 L 560 240 L 540 240 L 540 260 z M 560 260 L 560 280 L 580 280 L 580 260 L 560 260 z M 580 260 L 600 260 L 600 240 L 580 240 L 580 260 z M 600 260 L 600 280 L 620 280 L 620 260 L 600 260 z M 620 260 L 640 260 L 640 240 L 620 240 L 620 260 z M 640 260 L 640 280 L 660 280 L 660 260 L 640 260 z M 660 260 L 680 260 L 680 240 L 660 240 L 660 260 z M 680 260 L 680 280 L 700 280 L 700 260 L 680 260 z M 700 260 L 720 260 L 720 240 L 700 240 L 700 260 z M 720 260 L 720 280 L 740 280 L 740 260 L 720 260 z M 740 260 L 760 260 L 760 240 L 740 240 L 740 260 z M 760 260 L 760 280 L 780 280 L 780 260 L 760 260 z M 780 260 L 800 260 L 800 240 L 780 240 L 780 260 z M 800 260 L 800 280 L 820 280 L 820 260 L 800 260 z M 820 260 L 840 260 L 840 240 L 820 240 L 820 260 z M 840 260 L 840 280 L 860 280 L 860 260 L 840 260 z M 860 260 L 880 260 L 880 240 L 860 240 L 860 260 z M 860 280 L 860 300 L 880 300 L 880 280 L 860 280 z M 860 300 L 840 300 L 840 320 L 860 320 L 860 300 z M 860 320 L 860 340 L 880 340 L 880 320 L 860 320 z M 860 340 L 840 340 L 840 360 L 860 360 L 860 340 z M 860 360 L 860 380 L 880 380 L 880 360 L 860 360 z M 860 380 L 840 380 L 840 400 L 860 400 L 860 380 z M 860 400 L 860 420 L 880 420 L 880 400 L 860 400 z M 860 420 L 840 420 L 840 440 L 860 440 L 860 420 z M 860 440 L 860 460 L 880 460 L 880 440 L 860 440 z M 860 460 L 840 460 L 840 480 L 860 480 L 860 460 z M 860 480 L 860 500 L 880 500 L 880 480 L 860 480 z M 860 500 L 840 500 L 840 520 L 860 520 L 860 500 z M 860 520 L 860 540 L 880 540 L 880 520 L 860 520 z M 860 540 L 840 540 L 840 560 L 860 560 L 860 540 z M 860 560 L 860 580 L 880 580 L 880 560 L 860 560 z M 860 580 L 840 580 L 840 600 L 860 600 L 860 580 z M 860 600 L 860 620 L 880 620 L 880 600 L 860 600 z M 860 620 L 840 620 L 840 640 L 860 640 L 860 620 z M 860 640 L 860 660 L 880 660 L 880 640 L 860 640 z M 860 660 L 840 660 L 840 680 L 860 680 L 860 660 z M 860 680 L 860 700 L 880 700 L 880 680 L 860 680 z M 860 700 L 840 700 L 840 720 L 860 720 L 860 700 z M 860 720 L 860 740 L 880 740 L 880 720 L 860 720 z M 840 720 L 820 720 L 820 740 L 840 740 L 840 720 z M 820 720 L 820 700 L 800 700 L 800 720 L 820 720 z M 800 720 L 780 720 L 780 740 L 800 740 L 800 720 z M 780 720 L 780 700 L 760 700 L 760 720 L 780 720 z M 760 720 L 740 720 L 740 740 L 760 740 L 760 720 z M 740 720 L 740 700 L 720 700 L 720 720 L 740 720 z M 720 720 L 700 720 L 700 740 L 720 740 L 720 720 z M 700 720 L 700 700 L 680 700 L 680 720 L 700 720 z M 680 720 L 660 720 L 660 740 L 680 740 L 680 720 z M 660 720 L 660 700 L 640 700 L 640 720 L 660 720 z M 640 720 L 620 720 L 620 740 L 640 740 L 640 720 z M 620 720 L 620 700 L 600 700 L 600 720 L 620 720 z M 600 720 L 580 720 L 580 740 L 600 740 L 600 720 z M 580 720 L 580 700 L 560 700 L 560 720 L 580 720 z M 560 720 L 540 720 L 540 740 L 560 740 L 560 720 z M 540 720 L 540 700 L 520 700 L 520 720 L 540 720 z M 520 720 L 500 720 L 500 740 L 520 740 L 520 720 z M 500 720 L 500 700 L 480 700 L 480 720 L 500 720 z M 480 720 L 460 720 L 460 740 L 480 740 L 480 720 z M 460 720 L 460 700 L 440 700 L 440 720 L 460 720 z M 440 720 L 420 720 L 420 740 L 440 740 L 440 720 z M 420 720 L 420 700 L 400 700 L 400 720 L 420 720 z M 400 720 L 380 720 L 380 740 L 400 740 L 400 720 z M 400 700 L 400 680 L 380 680 L 380 700 L 400 700 z M 400 680 L 420 680 L 420 660 L 400 660 L 400 680 z M 400 660 L 400 640 L 380 640 L 380 660 L 400 660 z M 400 640 L 420 640 L 420 620 L 400 620 L 400 640 z M 400 620 L 400 600 L 380 600 L 380 620 L 400 620 z M 400 600 L 420 600 L 420 580 L 400 580 L 400 600 z M 400 580 L 400 560 L 380 560 L 380 580 L 400 580 z M 400 560 L 420 560 L 420 540 L 400 540 L 400 560 z M 400 540 L 400 520 L 380 520 L 380 540 L 400 540 z M 400 520 L 420 520 L 420 500 L 400 500 L 400 520 z M 420 500 L 440 500 L 440 480 L 420 480 L 420 500 z M 420 480 L 420 460 L 400 460 L 400 480 L 420 480 z M 420 460 L 440 460 L 440 440 L 420 440 L 420 460 z M 420 440 L 420 420 L 400 420 L 400 440 L 420 440 z M 420 420 L 440 420 L 440 400 L 420 400 L 420 420 z M 420 400 L 420 380 L 400 380 L 400 400 L 420 400 z M 420 380 L 440 380 L 440 360 L 420 360 L 420 380 z M 420 360 L 420 340 L 400 340 L 400 360 L 420 360 z M 420 340 L 440 340 L 440 320 L 420 320 L 420 340 z M 420 320 L 420 300 L 400 300 L 400 320 L 420 320 z M 420 300 L 440 300 L 440 280 L 420 280 L 420 300 z M 440 300 L 440 320 L 460 320 L 460 300 L 440 300 z M 460 300 L 480 300 L 480 280 L 460 280 L 460 300 z M 480 300 L 480 320 L 500 320 L 500 300 L 480 300 z M 500 300 L 520 300 L 520 280 L 500 280 L 500 300 z M 520 300 L 520 320 L 540 320 L 540 300 L 520 300 z M 540 300 L 560 300 L 560 280 L 540 280 L 540 300 z M 560 300 L 560 320 L 580 320 L 580 300 L 560 300 z M 580 300 L 600 300 L 600 280 L 580 280 L 580 300 z M 600 300 L 600 320 L 620 320 L 620 300 L 600 300 z M 620 300 L 640 300 L 640 280 L 620 280 L 620 300 z M 640 300 L 640 320 L 660 320 L 660 300 L 640 300 z M 660 300 L 680 300 L 680 280 L 660 280 L 660 300 z M 680 300 L 680 320 L 700 320 L 700 300 L 680 300 z M 700 300 L 720 300 L 720 280 L 700 280 L 700 300 z M 720 300 L 720 320 L 740 320 L 740 300 L 720 300 z M 740 300 L 760 300 L 760 280 L 740 280 L 740 300 z M 760 300 L 760 320 L 780 320 L 780 300 L 760 300 z M 780 300 L 800 300 L 800 280 L 780 280 L 780 300 z M 800 300 L 800 320 L 820 320 L 820 300 L 800 300 z M 820 300 L 840 300 L 840 280 L 820 280 L 820 300 z M 820 320 L 820 340 L 840 340 L 840 320 L 820 320 z M 820 340 L 800 340 L 800 360 L 820 360 L 820 340 z M 820 360 L 820 380 L 840 380 L 840 360 L 820 360 z M 820 380 L 800 380 L 800 400 L 820 400 L 820 380 z M 820 400 L 820 420 L 840 420 L 840 400 L 820 400 z M 820 420 L 800 420 L 800 440 L 820 440 L 820 420 z M 820 440 L 820 460 L 840 460 L 840 440 L 820 440 z M 820 460 L 800 460 L 800 480 L 820 480 L 820 460 z M 820 480 L 820 500 L 840 500 L 840 480 L 820 480 z M 820 500 L 800 500 L 800 520 L 820 520 L 820 500 z M 820 520 L 820 540 L 840 540 L 840 520 L 820 520 z M 820 540 L 800 540 L 800 560 L 820 560 L 820 540 z M 820 560 L 820 580 L 840 580 L 840 560 L 820 560 z M 820 580 L 800 580 L 800 600 L 820 600 L 820 580 z M 820 600 L 820 620 L 840 620 L 840 600 L 820 600 z M 820 620 L 800 620 L 800 640 L 820 640 L 820 620 z M 820 640 L 820 660 L 840 660 L 840 640 L 820 640 z M 820 660 L 800 660 L 800 680 L 820 680 L 820 660 z M 820 680 L 820 700 L 840 700 L 840 680 L 820 680 z M 800 680 L 780 680 L 780 700 L 800 700 L 800 680 z M 780 680 L 780 660 L 760 660 L 760 680 L 780 680 z M 760 680 L 740 680 L 740 700 L 760 700 L 760 680 z M 740 680 L 740 660 L 720 660 L 720 680 L 740 680 z M 720 680 L 700 680 L 700 700 L 720 700 L 720 680 z M 700 680 L 700 660 L 680 660 L 680 680 L 700 680 z M 680 680 L 660 680 L 660 700 L 680 700 L 680 680 z M 660 680 L 660 660 L 640 660 L 640 680 L 660 680 z M 640 680 L 620 680 L 620 700 L 640 700 L 640 680 z M 620 680 L 620 660 L 600 660 L 600 680 L 620 680 z M 600 680 L 580 680 L 580 700 L 600 700 L 600 680 z M 580 680 L 580 660 L 560 660 L 560 680 L 580 680 z M 560 680 L 540 680 L 540 700 L 560 700 L 560 680 z M 540 680 L 540 660 L 520 660 L 520 680 L 540 680 z M 520 680 L 500 680 L 500 700 L 520 700 L 520 680 z M 500 680 L 500 660 L 480 660 L 480 680 L 500 680 z M 480 680 L 460 680 L 460 700 L 480 700 L 480 680 z M 460 680 L 460 660 L 440 660 L 440 680 L 460 680 z M 440 680 L 420 680 L 420 700 L 440 700 L 440 680 z M 440 660 L 440 640 L 420 640 L 420 660 L 440 660 z M 440 640 L 460 640 L 460 620 L 440 620 L 440 640 z M 440 620 L 440 600 L 420 600 L 420 620 L 440 620 z M 440 600 L 460 600 L 460 580 L 440 580 L 440 600 z M 440 580 L 440 560 L 420 560 L 420 580 L 440 580 z M 440 560 L 460 560 L 460 540 L 440 540 L 440 560 z M 440 540 L 440 520 L 420 520 L 420 540 L 440 540 z M 440 520 L 460 520 L 460 500 L 440 500 L 440 520 z M 460 500 L 480 500 L 480 480 L 460 480 L 460 500 z M 460 480 L 460 460 L 440 460 L 440 480 L 460 480 z M 460 460 L 480 460 L 480 440 L 460 440 L 460 460 z M 460 440 L 460 420 L 440 420 L 440 440 L 460 440 z M 460 420 L 480 420 L 480 400 L 460 400 L 460 420 z M 460 400 L 460 380 L 440 380 L 440 400 L 460 400 z M 460 380 L 480 380 L 480 360 L 460 360 L 460 380 z M 460 360 L 460 340 L 440 340 L 440 360 L 460 360 z M 460 340 L 480 340 L 480 320 L 460 320 L 460 340 z M 480 340 L 480 360 L 500 360 L 500 340 L 480 340 z M 500 340 L 520 340 L 520 320 L 500 320 L 500 340 z M 520 340 L 520 360 L 540 360 L 540 340 L 520 340 z M 540 340 L 560 340 L 560 320 L 540 320 L 540 340 z M 560 340 L 560 360 L 580 360 L 580 340 L 560 340 z M 580 340 L 600 340 L 600 320 L 580 320 L 580 340 z M 600 340 L 600 360 L 620 360 L 620 340 L 600 340 z M 620 340 L 640 340 L 640 320 L 620 320 L 620 340 z M 640 340 L 640 360 L 660 360 L 660 340 L 640 340 z M 660 340 L 680 340 L 680 320 L 660 320 L 660 340 z M 680 340 L 680 360 L 700 360 L 700 340 L 680 340 z M 700 340 L 720 340 L 720 320 L 700 320 L 700 340 z M 720 340 L 720 360 L 740 360 L 740 340 L 720 340 z M 740 340 L 760 340 L 760 320 L 740 320 L 740 340 z M 760 340 L 760 360 L 780 360 L 780 340 L 760 340 z M 780 340 L 800 340 L 800 320 L 780 320 L 780 340 z M 780 360 L 780 380 L 800 380 L 800 360 L 780 360 z M 780 380 L 760 380 L 760 400 L 780 400 L 780 380 z M 780 400 L 780 420 L 800 420 L 800 400 L 780 400 z M 780 420 L 760 420 L 760 440 L 780 440 L 780 420 z M 780 440 L 780 460 L 800 460 L 800 440 L 780 440 z M 780 460 L 760 460 L 760 480 L 780 480 L 780 460 z M 780 480 L 780 500 L 800 500 L 800 480 L 780 480 z M 780 500 L 760 500 L 760 520 L 780 520 L 780 500 z M 780 520 L 780 540 L 800 540 L 800 520 L 780 520 z M 780 540 L 760 540 L 760 560 L 780 560 L 780 540 z M 780 560 L 780 580 L 800 580 L 800 560 L 780 560 z M 780 580 L 760 580 L 760 600 L 780 600 L 780 580 z M 780 600 L 780 620 L 800 620 L 800 600 L 780 600 z M 780 620 L 760 620 L 760 640 L 780 640 L 780 620 z M 780 640 L 780 660 L 800 660 L 800 640 L 780 640 z M 760 640 L 740 640 L 740 660 L 760 660 L 760 640 z M 740 640 L 740 620 L 720 620 L 720 640 L 740 640 z M 720 640 L 700 640 L 700 660 L 720 660 L 720 640 z M 700 640 L 700 620 L 680 620 L 680 640 L 700 640 z M 680 640 L 660 640 L 660 660 L 680 660 L 680 640 z M 660 640 L 660 620 L 640 620 L 640 640 L 660 640 z M 640 640 L 620 640 L 620 660 L 640 660 L 640 640 z M 620 640 L 620 620 L 600 620 L 600 640 L 620 640 z M 600 640 L 580 640 L 580 660 L 600 660 L 600 640 z M 580 640 L 580 620 L 560 620 L 560 640 L 580 640 z M 560 640 L 540 640 L 540 660 L 560 660 L 560 640 z M 540 640 L 540 620 L 520 620 L 520 640 L 540 640 z M 520 640 L 500 640 L 500 660 L 520 660 L 520 640 z M 500 640 L 500 620 L 480 620 L 480 640 L 500 640 z M 480 640 L 460 640 L 460 660 L 480 660 L 480 640 z M 480 620 L 480 600 L 460 600 L 460 620 L 480 620 z M 480 600 L 500 600 L 500 580 L 480 580 L 480 600 z M 480 580 L 480 560 L 460 560 L 460 580 L 480 580 z M 480 560 L 500 560 L 500 540 L 480 540 L 480 560 z M 480 540 L 480 520 L 460 520 L 460 540 L 480 540 z M 480 520 L 500 520 L 500 500 L 480 500 L 480 520 z M 500 500 L 520 500 L 520 480 L 500 480 L 500 500 z M 500 480 L 500 460 L 480 460 L 480 480 L 500 480 z M 500 460 L 520 460 L 520 440 L 500 440 L 500 460 z M 500 440 L 500 420 L 480 420 L 480 440 L 500 440 z M 500 420 L 520 420 L 520 400 L 500 400 L 500 420 z M 500 400 L 500 380 L 480 380 L 480 400 L 500 400 z M 500 380 L 520 380 L 520 360 L 500 360 L 500 380 z M 520 380 L 520 400 L 540 400 L 540 380 L 520 380 z M 540 380 L 560 380 L 560 360 L 540 360 L 540 380 z M 560 380 L 560 400 L 580 400 L 580 380 L 560 380 z M 580 380 L 600 380 L 600 360 L 580 360 L 580 380 z M 600 380 L 600 400 L 620 400 L 620 380 L 600 380 z M 620 380 L 640 380 L 640 360 L 620 360 L 620 380 z M 640 380 L 640 400 L 660 400 L 660 380 L 640 380 z M 660 380 L 680 380 L 680 360 L 660 360 L 660 380 z M 680 380 L 680 400 L 700 400 L 700 380 L 680 380 z M 700 380 L 720 380 L 720 360 L 700 360 L 700 380 z M 720 380 L 720 400 L 740 400 L 740 380 L 720 380 z M 740 380 L 760 380 L 760 360 L 740 360 L 740 380 z M 740 400 L 740 420 L 760 420 L 760 400 L 740 400 z M 740 420 L 720 420 L 720 440 L 740 440 L 740 420 z M 740 440 L 740 460 L 760 460 L 760 440 L 740 440 z M 740 460 L 720 460 L 720 480 L 740 480 L 740 460 z M 740 480 L 740 500 L 760 500 L 760 480 L 740 480 z M 740 500 L 720 500 L 720 520 L 740 520 L 740 500 z M 740 520 L 740 540 L 760 540 L 760 520 L 740 520 z M 740 540 L 720 540 L 720 560 L 740 560 L 740 540 z M 740 560 L 740 580 L 760 580 L 760 560 L 740 560 z M 740 580 L 720 580 L 720 600 L 740 600 L 740 580 z M 740 600 L 740 620 L 760 620 L 760 600 L 740 600 z M 720 600 L 700 600 L 700 620 L 720 620 L 720 600 z M 700 600 L 700 580 L 680 580 L 680 600 L 700 600 z M 680 600 L 660 600 L 660 620 L 680 620 L 680 600 z M 660 600 L 660 580 L 640 580 L 640 600 L 660 600 z M 640 600 L 620 600 L 620 620 L 640 620 L 640 600 z M 620 600 L 620 580 L 600 580 L 600 600 L 620 600 z M 600 600 L 580 600 L 580 620 L 600 620 L 600 600 z M 580 600 L 580 580 L 560 580 L 560 600 L 580 600 z M 560 600 L 540 600 L 540 620 L 560 620 L 560 600 z M 540 600 L 540 580 L 520 580 L 520 600 L 540 600 z M 520 600 L 500 600 L 500 620 L 520 620 L 520 600 z M 520 580 L 520 560 L 500 560 L 500 580 L 520 580 z M 520 560 L 540 560 L 540 540 L 520 540 L 520 560 z M 520 540 L 520 520 L 500 520 L 500 540 L 520 540 z M 520 520 L 540 520 L 540 500 L 520 500 L 520 520 z M 540 500 L 560 500 L 560 480 L 540 480 L 540 500 z M 540 480 L 540 460 L 520 460 L 520 480 L 540 480 z M 540 460 L 560 460 L 560 440 L 540 440 L 540 460 z M 540 440 L 540 420 L 520 420 L 520 440 L 540 440 z M 540 420 L 560 420 L 560 400 L 540 400 L 540 420 z M 560 420 L 560 440 L 580 440 L 580 420 L 560 420 z M 580 420 L 600 420 L 600 400 L 580 400 L 580 420 z M 600 420 L 600 440 L 620 440 L 620 420 L 600 420 z M 620 420 L 640 420 L 640 400 L 620 400 L 620 420 z M 640 420 L 640 440 L 660 440 L 660 420 L 640 420 z M 660 420 L 680 420 L 680 400 L 660 400 L 660 420 z M 680 420 L 680 440 L 700 440 L 700 420 L 680 420 z M 700 420 L 720 420 L 720 400 L 700 400 L 700 420 z M 700 440 L 700 460 L 720 460 L 720 440 L 700 440 z M 700 460 L 680 460 L 680 480 L 700 480 L 700 460 z M 700 480 L 700 500 L 720 500 L 720 480 L 700 480 z M 700 500 L 680 500 L 680 520 L 700 520 L 700 500 z M 700 520 L 700 540 L 720 540 L 720 520 L 700 520 z M 700 540 L 680 540 L 680 560 L 700 560 L 700 540 z M 700 560 L 700 580 L 720 580 L 720 560 L 700 560 z M 680 560 L 660 560 L 660 580 L 680 580 L 680 560 z M 660 560 L 660 540 L 640 540 L 640 560 L 660 560 z M 640 560 L 620 560 L 620 580 L 640 580 L 640 560 z M 620 560 L 620 540 L 600 540 L 600 560 L 620 560 z M 600 560 L 580 560 L 580 580 L 600 580 L 600 560 z M 580 560 L 580 540 L 560 540 L 560 560 L 580 560 z M 560 560 L 540 560 L 540 580 L 560 580 L 560 560 z M 560 540 L 560 520 L 540 520 L 540 540 L 560 540 z M 560 520 L 580 520 L 580 500 L 560 500 L 560 520 z M 580 500 L 600 500 L 600 480 L 580 480 L 580 500 z M 580 480 L 580 460 L 560 460 L 560 480 L 580 480 z M 580 460 L 600 460 L 600 440 L 580 440 L 580 460 z M 600 460 L 600 480 L 620 480 L 620 460 L 600 460 z M 620 460 L 640 460 L 640 440 L 620 440 L 620 460 z M 640 460 L 640 480 L 660 480 L 660 460 L 640 460 z M 660 460 L 680 460 L 680 440 L 660 440 L 660 460 z M 660 480 L 660 500 L 680 500 L 680 480 L 660 480 z M 660 500 L 640 500 L 640 520 L 660 520 L 660 500 z M 660 520 L 660 540 L 680 540 L 680 520 L 660 520 z M 640 520 L 620 520 L 620 540 L 640 540 L 640 520 z M 620 520 L 620 500 L 600 500 L 600 520 L 620 520 z M 600 520 L 580 520 L 580 540 L 600 540 L 600 520 z M 620 500 L 640 500 L 640 480 L 620 480 L 620 500 z M 240 240 L 240 260 L 260 260 L 260 240 L 240 240 z M 260 260 L 260 280 L 280 280 L 280 260 L 260 260 z M 220 340 L 240 340 L 260 340 L 280 340 L 300 340 L 300 360 L 300 380 L 300 400 L 300 420 L 300 440 L 300 460 L 300 480 L 280 480 L 260 480 L 240 480 L 220 480 L 220 460 L 220 440 L 220 420 L 220 400 L 220 380 L 220 360 L 220 340 z M 240 360 L 240 380 L 260 380 L 260 360 L 240 360 z M 260 380 L 260 400 L 280 400 L 280 380 L 260 380 z M 260 400 L 240 400 L 240 420 L 260 420 L 260 400 z M 260 420 L 260 440 L 280 440 L 280 420 L 260 420 z M 260 440 L 240 440 L 240 460 L 260 460 L 260 440 z M 240 540 L 240 560 L 240 580 L 240 600 L 240 620 L 240 640 L 240 660 L 240 680 L 240 700 L 240 720 L 240 740 L 240 760 L 240 780 L 260 780 L 280 780 L 280 760 L 280 740 L 280 720 L 280 700 L 280 680 L 280 660 L 280 640 L 280 620 L 280 600 L 280 580 L 280 560 L 280 540 L 260 540 L 240 540 z M 20 780 L 20 800 L 40 800 L 40 780 L 20 780 z "
     style="fill:#c0c0c0" />
  <path
     id="rect3346"
     d="M 120 20 L 120 40 L 140 40 L 160 40 L 180 40 L 200 40 L 220 40 L 240 40 L 260 40 L 280 40 L 300 40 L 320 40 L 340 40 L 360 40 L 380 40 L 380 20 L 360 20 L 340 20 L 320 20 L 300 20 L 280 20 L 260 20 L 240 20 L 220 20 L 200 20 L 180 20 L 160 20 L 140 20 L 120 20 z M 380 40 L 380 60 L 400 60 L 400 40 L 380 40 z M 400 60 L 400 80 L 420 80 L 420 60 L 400 60 z M 420 80 L 420 100 L 440 100 L 440 80 L 420 80 z M 440 100 L 440 120 L 460 120 L 460 100 L 440 100 z M 460 120 L 460 140 L 480 140 L 480 120 L 460 120 z M 480 140 L 480 160 L 500 160 L 500 140 L 480 140 z M 500 160 L 500 180 L 520 180 L 540 180 L 560 180 L 580 180 L 600 180 L 620 180 L 640 180 L 660 180 L 680 180 L 700 180 L 720 180 L 740 180 L 760 180 L 780 180 L 800 180 L 820 180 L 840 180 L 860 180 L 880 180 L 900 180 L 900 160 L 880 160 L 860 160 L 840 160 L 820 160 L 800 160 L 780 160 L 760 160 L 740 160 L 720 160 L 700 160 L 680 160 L 660 160 L 640 160 L 620 160 L 600 160 L 580 160 L 560 160 L 540 160 L 520 160 L 500 160 z M 120 40 L 100 40 L 100 60 L 120 60 L 120 40 z M 100 60 L 80 60 L 80 80 L 100 80 L 100 60 z M 80 80 L 60 80 L 60 100 L 80 100 L 80 80 z M 60 100 L 40 100 L 40 120 L 60 120 L 60 100 z M 40 120 L 20 120 L 20 140 L 40 140 L 40 120 z M 20 140 L 0 140 L 0 160 L 0 180 L 0 200 L 0 220 L 0 240 L 0 260 L 0 280 L 0 300 L 0 320 L 0 340 L 0 360 L 0 380 L 0 400 L 0 420 L 0 440 L 0 460 L 0 480 L 0 500 L 0 520 L 0 540 L 0 560 L 0 580 L 0 600 L 0 620 L 0 640 L 0 660 L 0 680 L 0 700 L 0 720 L 0 740 L 0 760 L 0 780 L 0 800 L 20 800 L 20 780 L 20 760 L 20 740 L 20 720 L 20 700 L 20 680 L 20 660 L 20 640 L 20 620 L 20 600 L 20 580 L 20 560 L 20 540 L 20 520 L 20 500 L 20 480 L 20 460 L 20 440 L 20 420 L 20 400 L 20 380 L 20 360 L 20 340 L 20 320 L 20 300 L 20 280 L 20 260 L 20 240 L 20 220 L 20 200 L 20 180 L 20 160 L 20 140 z M 920 200 L 920 220 L 920 240 L 920 260 L 920 280 L 920 300 L 920 320 L 920 340 L 920 360 L 920 380 L 920 400 L 920 420 L 920 440 L 920 460 L 920 480 L 920 500 L 920 520 L 920 540 L 920 560 L 920 580 L 920 600 L 920 620 L 920 640 L 920 660 L 920 680 L 920 700 L 920 720 L 920 740 L 920 760 L 920 780 L 900 780 L 880 780 L 860 780 L 840 780 L 820 780 L 800 780 L 780 780 L 760 780 L 740 780 L 720 780 L 700 780 L 680 780 L 660 780 L 640 780 L 620 780 L 600 780 L 580 780 L 560 780 L 540 780 L 520 780 L 500 780 L 480 780 L 460 780 L 440 780 L 420 780 L 400 780 L 380 780 L 360 780 L 340 780 L 320 780 L 300 780 L 280 780 L 260 780 L 240 780 L 220 780 L 200 780 L 180 780 L 160 780 L 140 780 L 120 780 L 100 780 L 80 780 L 60 780 L 40 780 L 40 800 L 60 800 L 80 800 L 100 800 L 120 800 L 140 800 L 160 800 L 180 800 L 200 800 L 220 800 L 240 800 L 260 800 L 280 800 L 300 800 L 320 800 L 340 800 L 360 800 L 380 800 L 400 800 L 420 800 L 440 800 L 460 800 L 480 800 L 500 800 L 520 800 L 540 800 L 560 800 L 580 800 L 600 800 L 620 800 L 640 800 L 660 800 L 680 800 L 700 800 L 720 800 L 740 800 L 760 800 L 780 800 L 800 800 L 820 800 L 840 800 L 860 800 L 880 800 L 900 800 L 920 800 L 940 800 L 940 780 L 940 760 L 940 740 L 940 720 L 940 700 L 940 680 L 940 660 L 940 640 L 940 620 L 940 600 L 940 580 L 940 560 L 940 540 L 940 520 L 940 500 L 940 480 L 940 460 L 940 440 L 940 420 L 940 400 L 940 380 L 940 360 L 940 340 L 940 320 L 940 300 L 940 280 L 940 260 L 940 240 L 940 220 L 940 200 L 920 200 z "
     style="fill:#808000" />
  <path
     id="rect3442"
     d="M 380 20 L 380 40 L 400 40 L 400 20 L 380 20 z M 400 40 L 400 60 L 420 60 L 420 40 L 400 40 z M 420 60 L 420 80 L 440 80 L 440 60 L 420 60 z M 440 80 L 440 100 L 460 100 L 460 80 L 440 80 z M 460 100 L 460 120 L 480 120 L 480 100 L 460 100 z M 480 120 L 480 140 L 500 140 L 500 120 L 480 120 z M 500 140 L 500 160 L 520 160 L 520 140 L 500 140 z M 280 60 L 280 80 L 280 100 L 280 120 L 280 140 L 280 160 L 280 180 L 280 200 L 280 220 L 300 220 L 300 200 L 300 180 L 300 160 L 300 140 L 300 120 L 320 120 L 340 120 L 340 100 L 320 100 L 300 100 L 300 80 L 300 60 L 280 60 z M 340 120 L 340 140 L 340 160 L 340 180 L 340 200 L 340 220 L 340 240 L 340 260 L 340 280 L 340 300 L 340 320 L 340 340 L 340 360 L 340 380 L 340 400 L 340 420 L 340 440 L 340 460 L 340 480 L 340 500 L 340 520 L 360 520 L 360 500 L 360 480 L 360 460 L 360 440 L 360 420 L 360 400 L 360 380 L 360 360 L 360 340 L 360 320 L 360 300 L 360 280 L 360 260 L 360 240 L 360 220 L 360 200 L 360 180 L 360 160 L 360 140 L 360 120 L 340 120 z M 340 520 L 320 520 L 300 520 L 280 520 L 260 520 L 240 520 L 220 520 L 200 520 L 180 520 L 180 540 L 200 540 L 220 540 L 220 560 L 240 560 L 240 540 L 260 540 L 280 540 L 280 560 L 300 560 L 300 540 L 320 540 L 340 540 L 340 520 z M 280 220 L 260 220 L 240 220 L 240 240 L 260 240 L 280 240 L 280 220 z M 900 160 L 900 180 L 920 180 L 920 160 L 900 160 z M 920 180 L 920 200 L 940 200 L 940 180 L 920 180 z M 940 200 L 940 220 L 940 240 L 940 260 L 940 280 L 940 300 L 940 320 L 940 340 L 940 360 L 940 380 L 940 400 L 940 420 L 940 440 L 940 460 L 940 480 L 940 500 L 940 520 L 940 540 L 940 560 L 940 580 L 940 600 L 940 620 L 940 640 L 940 660 L 940 680 L 940 700 L 940 720 L 940 740 L 940 760 L 940 780 L 940 800 L 960 800 L 960 780 L 960 760 L 960 740 L 960 720 L 960 700 L 960 680 L 960 660 L 960 640 L 960 620 L 960 600 L 960 580 L 960 560 L 960 540 L 960 520 L 960 500 L 960 480 L 960 460 L 960 440 L 960 420 L 960 400 L 960 380 L 960 360 L 960 340 L 960 320 L 960 300 L 960 280 L 960 260 L 960 240 L 960 220 L 960 200 L 940 200 z M 940 800 L 920 800 L 900 800 L 880 800 L 860 800 L 840 800 L 820 800 L 800 800 L 780 800 L 760 800 L 740 800 L 720 800 L 700 800 L 680 800 L 660 800 L 640 800 L 620 800 L 600 800 L 580 800 L 560 800 L 540 800 L 520 800 L 500 800 L 480 800 L 460 800 L 440 800 L 420 800 L 400 800 L 380 800 L 360 800 L 340 800 L 320 800 L 300 800 L 280 800 L 260 800 L 240 800 L 220 800 L 200 800 L 180 800 L 160 800 L 140 800 L 120 800 L 100 800 L 80 800 L 60 800 L 40 800 L 20 800 L 0 800 L 0 820 L 20 820 L 40 820 L 60 820 L 80 820 L 100 820 L 120 820 L 140 820 L 160 820 L 180 820 L 200 820 L 220 820 L 240 820 L 260 820 L 280 820 L 300 820 L 320 820 L 340 820 L 360 820 L 380 820 L 400 820 L 420 820 L 440 820 L 460 820 L 480 820 L 500 820 L 520 820 L 540 820 L 560 820 L 580 820 L 600 820 L 620 820 L 640 820 L 660 820 L 680 820 L 700 820 L 720 820 L 740 820 L 760 820 L 780 820 L 800 820 L 820 820 L 840 820 L 860 820 L 880 820 L 900 820 L 920 820 L 940 820 L 940 800 z M 220 340 L 220 360 L 220 380 L 220 400 L 220 420 L 220 440 L 220 460 L 240 460 L 240 440 L 240 420 L 240 400 L 240 380 L 240 360 L 260 360 L 280 360 L 300 360 L 300 340 L 280 340 L 260 340 L 240 340 L 220 340 z M 220 580 L 220 600 L 240 600 L 240 580 L 220 580 z M 280 580 L 280 600 L 300 600 L 300 580 L 280 580 z M 220 620 L 220 640 L 240 640 L 240 620 L 220 620 z M 280 620 L 280 640 L 300 640 L 300 620 L 280 620 z M 220 660 L 220 680 L 240 680 L 240 660 L 220 660 z M 280 660 L 280 680 L 300 680 L 300 660 L 280 660 z M 220 700 L 220 720 L 240 720 L 240 700 L 220 700 z M 280 700 L 280 720 L 300 720 L 300 700 L 280 700 z M 220 740 L 220 760 L 240 760 L 240 740 L 220 740 z M 280 740 L 280 760 L 300 760 L 300 740 L 280 740 z "
     style="fill:#000000" />
</svg>
