<?xml version="1.0" encoding="UTF-8" standalone="no"?>
<svg
   xmlns:dc="http://purl.org/dc/elements/1.1/"
   xmlns:cc="http://creativecommons.org/ns#"
   xmlns:rdf="http://www.w3.org/1999/02/22-rdf-syntax-ns#"
   xmlns:svg="http://www.w3.org/2000/svg"
   xmlns="http://www.w3.org/2000/svg"
   height="640px"
   version="1.1"
   width="640px"
   id="svg1626">
  <metadata
     id="metadata1630">
    <rdf:RDF>
      <cc:Work
         rdf:about="">
        <dc:format>image/svg+xml</dc:format>
        <dc:type
           rdf:resource="http://purl.org/dc/dcmitype/StillImage" />
      </cc:Work>
    </rdf:RDF>
  </metadata>
  <defs
     id="defs2" />
  <path
     id="rect1248"
     d="M 80 180 L 80 200 L 80 220 L 80 240 L 80 260 L 80 280 L 80 300 L 80 320 L 80 340 L 80 360 L 80 380 L 80 400 L 80 420 L 80 440 L 80 460 L 80 480 L 80 500 L 100 500 L 120 500 L 140 500 L 140 480 L 140 460 L 140 440 L 140 420 L 140 400 L 140 380 L 140 360 L 140 340 L 160 340 L 160 320 L 180 320 L 200 320 L 220 320 L 220 340 L 240 340 L 240 360 L 240 380 L 240 400 L 240 420 L 240 440 L 240 460 L 240 480 L 240 500 L 260 500 L 280 500 L 300 500 L 300 480 L 300 460 L 300 440 L 300 420 L 300 400 L 300 380 L 300 360 L 300 340 L 300 320 L 300 300 L 280 300 L 280 280 L 260 280 L 260 260 L 240 260 L 220 260 L 200 260 L 180 260 L 180 280 L 160 280 L 160 300 L 140 300 L 140 280 L 140 260 L 140 240 L 140 220 L 140 200 L 140 180 L 120 180 L 100 180 L 80 180 z M 360 220 L 360 240 L 360 260 L 340 260 L 320 260 L 320 280 L 320 300 L 340 300 L 360 300 L 360 320 L 360 340 L 380 340 L 400 340 L 400 320 L 400 300 L 420 300 L 440 300 L 440 280 L 440 260 L 420 260 L 400 260 L 400 240 L 400 220 L 380 220 L 360 220 z M 360 380 L 360 400 L 360 420 L 340 420 L 320 420 L 320 440 L 320 460 L 340 460 L 360 460 L 360 480 L 360 500 L 380 500 L 400 500 L 400 480 L 400 460 L 420 460 L 440 460 L 440 440 L 440 420 L 420 420 L 400 420 L 400 400 L 400 380 L 380 380 L 360 380 z "
     style="fill:#000080" />
  <path
     id="rect1516"
     d="M 20 20 L 20 40 L 20 60 L 20 80 L 20 100 L 20 120 L 20 140 L 20 160 L 20 180 L 20 200 L 20 220 L 20 240 L 20 260 L 20 280 L 20 300 L 20 320 L 20 340 L 20 360 L 20 380 L 20 400 L 20 420 L 20 440 L 20 460 L 20 480 L 20 500 L 20 520 L 20 540 L 20 560 L 20 580 L 20 600 L 40 600 L 60 600 L 80 600 L 100 600 L 120 600 L 140 600 L 160 600 L 180 600 L 200 600 L 220 600 L 240 600 L 260 600 L 280 600 L 300 600 L 320 600 L 340 600 L 360 600 L 380 600 L 400 600 L 420 600 L 440 600 L 460 600 L 480 600 L 480 580 L 480 560 L 480 540 L 480 520 L 480 500 L 480 480 L 480 460 L 480 440 L 480 420 L 480 400 L 480 380 L 480 360 L 480 340 L 480 320 L 480 300 L 480 280 L 480 260 L 480 240 L 480 220 L 480 200 L 480 180 L 480 160 L 480 140 L 460 140 L 440 140 L 420 140 L 400 140 L 380 140 L 380 120 L 380 100 L 380 80 L 380 60 L 380 40 L 380 20 L 360 20 L 340 20 L 320 20 L 300 20 L 280 20 L 260 20 L 240 20 L 220 20 L 200 20 L 180 20 L 160 20 L 140 20 L 120 20 L 100 20 L 80 20 L 60 20 L 40 20 L 20 20 z M 400 80 L 400 100 L 400 120 L 420 120 L 440 120 L 440 100 L 420 100 L 420 80 L 400 80 z M 80 180 L 100 180 L 120 180 L 140 180 L 140 200 L 140 220 L 140 240 L 140 260 L 140 280 L 140 300 L 160 300 L 160 280 L 180 280 L 180 260 L 200 260 L 220 260 L 240 260 L 260 260 L 260 280 L 280 280 L 280 300 L 300 300 L 300 320 L 300 340 L 300 360 L 300 380 L 300 400 L 300 420 L 300 440 L 300 460 L 300 480 L 300 500 L 280 500 L 260 500 L 240 500 L 240 480 L 240 460 L 240 440 L 240 420 L 240 400 L 240 380 L 240 360 L 240 340 L 220 340 L 220 320 L 200 320 L 180 320 L 160 320 L 160 340 L 140 340 L 140 360 L 140 380 L 140 400 L 140 420 L 140 440 L 140 460 L 140 480 L 140 500 L 120 500 L 100 500 L 80 500 L 80 480 L 80 460 L 80 440 L 80 420 L 80 400 L 80 380 L 80 360 L 80 340 L 80 320 L 80 300 L 80 280 L 80 260 L 80 240 L 80 220 L 80 200 L 80 180 z M 360 220 L 380 220 L 400 220 L 400 240 L 400 260 L 420 260 L 440 260 L 440 280 L 440 300 L 420 300 L 400 300 L 400 320 L 400 340 L 380 340 L 360 340 L 360 320 L 360 300 L 340 300 L 320 300 L 320 280 L 320 260 L 340 260 L 360 260 L 360 240 L 360 220 z M 360 380 L 380 380 L 400 380 L 400 400 L 400 420 L 420 420 L 440 420 L 440 440 L 440 460 L 420 460 L 400 460 L 400 480 L 400 500 L 380 500 L 360 500 L 360 480 L 360 460 L 340 460 L 320 460 L 320 440 L 320 420 L 340 420 L 360 420 L 360 400 L 360 380 z "
     style="fill:#ffffff" />
  <path
     id="rect1522"
     d="M 0 0 L 0 20 L 0 40 L 0 60 L 0 80 L 0 100 L 0 120 L 0 140 L 0 160 L 0 180 L 0 200 L 0 220 L 0 240 L 0 260 L 0 280 L 0 300 L 0 320 L 0 340 L 0 360 L 0 380 L 0 400 L 0 420 L 0 440 L 0 460 L 0 480 L 0 500 L 0 520 L 0 540 L 0 560 L 0 580 L 0 600 L 0 620 L 20 620 L 20 600 L 20 580 L 20 560 L 20 540 L 20 520 L 20 500 L 20 480 L 20 460 L 20 440 L 20 420 L 20 400 L 20 380 L 20 360 L 20 340 L 20 320 L 20 300 L 20 280 L 20 260 L 20 240 L 20 220 L 20 200 L 20 180 L 20 160 L 20 140 L 20 120 L 20 100 L 20 80 L 20 60 L 20 40 L 20 20 L 40 20 L 60 20 L 80 20 L 100 20 L 120 20 L 140 20 L 160 20 L 180 20 L 200 20 L 220 20 L 240 20 L 260 20 L 280 20 L 300 20 L 320 20 L 340 20 L 360 20 L 380 20 L 380 40 L 380 60 L 380 80 L 380 100 L 380 120 L 380 140 L 400 140 L 400 120 L 400 100 L 400 80 L 400 60 L 420 60 L 420 40 L 400 40 L 400 20 L 400 0 L 380 0 L 360 0 L 340 0 L 320 0 L 300 0 L 280 0 L 260 0 L 240 0 L 220 0 L 200 0 L 180 0 L 160 0 L 140 0 L 120 0 L 100 0 L 80 0 L 60 0 L 40 0 L 20 0 L 0 0 z M 420 60 L 420 80 L 440 80 L 440 60 L 420 60 z M 440 80 L 440 100 L 460 100 L 460 80 L 440 80 z M 460 100 L 460 120 L 480 120 L 480 100 L 460 100 z "
     style="fill:#808080" />
  <path
     id="rect1570"
     d="M 400 60 L 400 80 L 420 80 L 420 60 L 400 60 z M 420 80 L 420 100 L 440 100 L 440 80 L 420 80 z M 440 100 L 440 120 L 460 120 L 460 100 L 440 100 z M 480 140 L 480 160 L 480 180 L 480 200 L 480 220 L 480 240 L 480 260 L 480 280 L 480 300 L 480 320 L 480 340 L 480 360 L 480 380 L 480 400 L 480 420 L 480 440 L 480 460 L 480 480 L 480 500 L 480 520 L 480 540 L 480 560 L 480 580 L 480 600 L 460 600 L 440 600 L 420 600 L 400 600 L 380 600 L 360 600 L 340 600 L 320 600 L 300 600 L 280 600 L 260 600 L 240 600 L 220 600 L 200 600 L 180 600 L 160 600 L 140 600 L 120 600 L 100 600 L 80 600 L 60 600 L 40 600 L 20 600 L 20 620 L 40 620 L 60 620 L 80 620 L 100 620 L 120 620 L 140 620 L 160 620 L 180 620 L 200 620 L 220 620 L 240 620 L 260 620 L 280 620 L 300 620 L 320 620 L 340 620 L 360 620 L 380 620 L 400 620 L 420 620 L 440 620 L 460 620 L 480 620 L 500 620 L 500 600 L 500 580 L 500 560 L 500 540 L 500 520 L 500 500 L 500 480 L 500 460 L 500 440 L 500 420 L 500 400 L 500 380 L 500 360 L 500 340 L 500 320 L 500 300 L 500 280 L 500 260 L 500 240 L 500 220 L 500 200 L 500 180 L 500 160 L 500 140 L 480 140 z "
     style="fill:#c0c0c0" />
  <path
     id="rect1624"
     d="M 400 20 L 400 40 L 420 40 L 420 20 L 400 20 z M 420 40 L 420 60 L 440 60 L 440 40 L 420 40 z M 440 60 L 440 80 L 460 80 L 460 60 L 440 60 z M 460 80 L 460 100 L 480 100 L 480 80 L 460 80 z M 480 100 L 480 120 L 460 120 L 440 120 L 420 120 L 400 120 L 400 140 L 420 140 L 440 140 L 460 140 L 480 140 L 500 140 L 500 160 L 500 180 L 500 200 L 500 220 L 500 240 L 500 260 L 500 280 L 500 300 L 500 320 L 500 340 L 500 360 L 500 380 L 500 400 L 500 420 L 500 440 L 500 460 L 500 480 L 500 500 L 500 520 L 500 540 L 500 560 L 500 580 L 500 600 L 500 620 L 480 620 L 460 620 L 440 620 L 420 620 L 400 620 L 380 620 L 360 620 L 340 620 L 320 620 L 300 620 L 280 620 L 260 620 L 240 620 L 220 620 L 200 620 L 180 620 L 160 620 L 140 620 L 120 620 L 100 620 L 80 620 L 60 620 L 40 620 L 20 620 L 0 620 L 0 640 L 20 640 L 40 640 L 60 640 L 80 640 L 100 640 L 120 640 L 140 640 L 160 640 L 180 640 L 200 640 L 220 640 L 240 640 L 260 640 L 280 640 L 300 640 L 320 640 L 340 640 L 360 640 L 380 640 L 400 640 L 420 640 L 440 640 L 460 640 L 480 640 L 500 640 L 520 640 L 520 620 L 520 600 L 520 580 L 520 560 L 520 540 L 520 520 L 520 500 L 520 480 L 520 460 L 520 440 L 520 420 L 520 400 L 520 380 L 520 360 L 520 340 L 520 320 L 520 300 L 520 280 L 520 260 L 520 240 L 520 220 L 520 200 L 520 180 L 520 160 L 520 140 L 520 120 L 500 120 L 500 100 L 480 100 z "
     style="fill:#000000" />
</svg>
