<?xml version="1.0" encoding="UTF-8" standalone="no"?>
<svg
   xmlns:dc="http://purl.org/dc/elements/1.1/"
   xmlns:cc="http://creativecommons.org/ns#"
   xmlns:rdf="http://www.w3.org/1999/02/22-rdf-syntax-ns#"
   xmlns:svg="http://www.w3.org/2000/svg"
   xmlns="http://www.w3.org/2000/svg"
   height="960px"
   version="1.1"
   width="960px"
   id="svg3710">
  <metadata
     id="metadata3714">
    <rdf:RDF>
      <cc:Work
         rdf:about="">
        <dc:format>image/svg+xml</dc:format>
        <dc:type
           rdf:resource="http://purl.org/dc/dcmitype/StillImage" />
      </cc:Work>
    </rdf:RDF>
  </metadata>
  <defs
     id="defs2" />
  <path
     id="rect3558"
     d="M 100 60 L 100 80 L 100 100 L 100 120 L 100 140 L 100 160 L 100 180 L 100 200 L 100 220 L 100 240 L 100 260 L 100 280 L 100 300 L 100 320 L 100 340 L 100 360 L 100 380 L 100 400 L 100 420 L 100 440 L 100 460 L 100 480 L 100 500 L 100 520 L 100 540 L 100 560 L 100 580 L 100 600 L 100 620 L 100 640 L 100 660 L 100 680 L 100 700 L 100 720 L 100 740 L 100 760 L 100 780 L 100 800 L 100 820 L 100 840 L 100 860 L 100 880 L 100 900 L 120 900 L 140 900 L 140 920 L 160 920 L 180 920 L 200 920 L 220 920 L 240 920 L 260 920 L 280 920 L 300 920 L 320 920 L 340 920 L 360 920 L 380 920 L 400 920 L 420 920 L 440 920 L 460 920 L 480 920 L 500 920 L 520 920 L 540 920 L 560 920 L 580 920 L 600 920 L 620 920 L 640 920 L 660 920 L 680 920 L 700 920 L 720 920 L 740 920 L 760 920 L 760 900 L 780 900 L 780 880 L 780 860 L 780 840 L 780 820 L 780 800 L 780 780 L 780 760 L 780 740 L 780 720 L 780 700 L 780 680 L 780 660 L 780 640 L 780 620 L 780 600 L 780 580 L 780 560 L 780 540 L 780 520 L 780 500 L 780 480 L 780 460 L 780 440 L 780 420 L 780 400 L 780 380 L 780 360 L 780 340 L 780 320 L 780 300 L 780 280 L 780 260 L 780 240 L 780 220 L 780 200 L 780 180 L 780 160 L 780 140 L 780 120 L 780 100 L 760 100 L 760 80 L 760 60 L 740 60 L 720 60 L 720 80 L 720 100 L 740 100 L 740 120 L 720 120 L 700 120 L 700 100 L 680 100 L 680 80 L 680 60 L 660 60 L 640 60 L 640 80 L 640 100 L 660 100 L 660 120 L 640 120 L 620 120 L 620 100 L 600 100 L 600 80 L 600 60 L 580 60 L 560 60 L 560 80 L 560 100 L 580 100 L 580 120 L 560 120 L 540 120 L 540 100 L 520 100 L 520 80 L 520 60 L 500 60 L 480 60 L 480 80 L 480 100 L 500 100 L 500 120 L 480 120 L 460 120 L 460 100 L 440 100 L 440 80 L 440 60 L 420 60 L 400 60 L 400 80 L 400 100 L 420 100 L 420 120 L 400 120 L 380 120 L 380 100 L 360 100 L 360 80 L 360 60 L 340 60 L 320 60 L 320 80 L 320 100 L 340 100 L 340 120 L 320 120 L 300 120 L 300 100 L 280 100 L 280 80 L 280 60 L 260 60 L 240 60 L 240 80 L 240 100 L 260 100 L 260 120 L 240 120 L 220 120 L 220 100 L 200 100 L 200 80 L 200 60 L 180 60 L 160 60 L 160 80 L 160 100 L 180 100 L 180 120 L 160 120 L 140 120 L 140 100 L 120 100 L 120 80 L 120 60 L 100 60 z M 820 60 L 820 80 L 820 100 L 840 100 L 840 80 L 840 60 L 820 60 z M 160 220 L 180 220 L 200 220 L 220 220 L 240 220 L 260 220 L 280 220 L 300 220 L 320 220 L 340 220 L 360 220 L 360 240 L 340 240 L 320 240 L 300 240 L 280 240 L 260 240 L 240 240 L 220 240 L 200 240 L 180 240 L 160 240 L 160 220 z M 520 220 L 540 220 L 560 220 L 580 220 L 580 240 L 560 240 L 540 240 L 520 240 L 520 220 z M 600 220 L 620 220 L 640 220 L 660 220 L 680 220 L 700 220 L 720 220 L 740 220 L 740 240 L 720 240 L 700 240 L 680 240 L 660 240 L 640 240 L 620 240 L 600 240 L 600 220 z M 160 260 L 180 260 L 200 260 L 220 260 L 240 260 L 260 260 L 280 260 L 300 260 L 320 260 L 340 260 L 360 260 L 360 280 L 340 280 L 320 280 L 300 280 L 280 280 L 260 280 L 240 280 L 220 280 L 200 280 L 180 280 L 160 280 L 160 260 z M 160 300 L 180 300 L 200 300 L 220 300 L 240 300 L 260 300 L 280 300 L 280 320 L 260 320 L 240 320 L 220 320 L 200 320 L 180 320 L 160 320 L 160 300 z M 160 400 L 180 400 L 200 400 L 220 400 L 240 400 L 260 400 L 280 400 L 300 400 L 320 400 L 340 400 L 340 420 L 320 420 L 300 420 L 280 420 L 260 420 L 240 420 L 220 420 L 200 420 L 180 420 L 160 420 L 160 400 z M 160 480 L 180 480 L 200 480 L 220 480 L 240 480 L 260 480 L 280 480 L 300 480 L 320 480 L 340 480 L 360 480 L 380 480 L 400 480 L 420 480 L 440 480 L 460 480 L 480 480 L 500 480 L 520 480 L 540 480 L 560 480 L 580 480 L 600 480 L 620 480 L 640 480 L 660 480 L 680 480 L 700 480 L 720 480 L 740 480 L 740 500 L 720 500 L 700 500 L 680 500 L 660 500 L 640 500 L 620 500 L 600 500 L 580 500 L 560 500 L 540 500 L 520 500 L 500 500 L 480 500 L 460 500 L 440 500 L 420 500 L 400 500 L 380 500 L 360 500 L 340 500 L 320 500 L 300 500 L 280 500 L 260 500 L 240 500 L 220 500 L 200 500 L 180 500 L 160 500 L 160 480 z M 160 520 L 180 520 L 200 520 L 220 520 L 240 520 L 260 520 L 280 520 L 300 520 L 320 520 L 340 520 L 360 520 L 380 520 L 400 520 L 420 520 L 440 520 L 460 520 L 480 520 L 500 520 L 520 520 L 540 520 L 560 520 L 580 520 L 600 520 L 620 520 L 640 520 L 660 520 L 680 520 L 700 520 L 720 520 L 740 520 L 740 540 L 720 540 L 700 540 L 680 540 L 660 540 L 640 540 L 620 540 L 600 540 L 580 540 L 560 540 L 540 540 L 520 540 L 500 540 L 480 540 L 460 540 L 440 540 L 420 540 L 400 540 L 380 540 L 360 540 L 340 540 L 320 540 L 300 540 L 280 540 L 260 540 L 240 540 L 220 540 L 200 540 L 180 540 L 160 540 L 160 520 z M 160 560 L 180 560 L 200 560 L 220 560 L 240 560 L 260 560 L 280 560 L 300 560 L 320 560 L 340 560 L 360 560 L 380 560 L 400 560 L 420 560 L 440 560 L 460 560 L 480 560 L 500 560 L 520 560 L 540 560 L 560 560 L 580 560 L 600 560 L 620 560 L 640 560 L 660 560 L 680 560 L 700 560 L 720 560 L 740 560 L 740 580 L 720 580 L 700 580 L 680 580 L 660 580 L 640 580 L 620 580 L 600 580 L 580 580 L 560 580 L 540 580 L 520 580 L 500 580 L 480 580 L 460 580 L 440 580 L 420 580 L 400 580 L 380 580 L 360 580 L 340 580 L 320 580 L 300 580 L 280 580 L 260 580 L 240 580 L 220 580 L 200 580 L 180 580 L 160 580 L 160 560 z M 160 600 L 180 600 L 200 600 L 220 600 L 240 600 L 260 600 L 280 600 L 300 600 L 320 600 L 340 600 L 360 600 L 380 600 L 400 600 L 420 600 L 440 600 L 460 600 L 480 600 L 500 600 L 520 600 L 540 600 L 560 600 L 580 600 L 600 600 L 620 600 L 640 600 L 660 600 L 680 600 L 700 600 L 720 600 L 740 600 L 740 620 L 720 620 L 700 620 L 680 620 L 660 620 L 640 620 L 620 620 L 600 620 L 580 620 L 560 620 L 540 620 L 520 620 L 500 620 L 480 620 L 460 620 L 440 620 L 420 620 L 400 620 L 380 620 L 360 620 L 340 620 L 320 620 L 300 620 L 280 620 L 260 620 L 240 620 L 220 620 L 200 620 L 180 620 L 160 620 L 160 600 z M 160 640 L 180 640 L 200 640 L 220 640 L 240 640 L 260 640 L 280 640 L 300 640 L 320 640 L 340 640 L 360 640 L 380 640 L 400 640 L 420 640 L 440 640 L 460 640 L 480 640 L 500 640 L 520 640 L 540 640 L 560 640 L 580 640 L 600 640 L 620 640 L 640 640 L 660 640 L 680 640 L 700 640 L 720 640 L 740 640 L 740 660 L 720 660 L 700 660 L 680 660 L 660 660 L 640 660 L 620 660 L 600 660 L 580 660 L 560 660 L 540 660 L 520 660 L 500 660 L 480 660 L 460 660 L 440 660 L 420 660 L 400 660 L 380 660 L 360 660 L 340 660 L 320 660 L 300 660 L 280 660 L 260 660 L 240 660 L 220 660 L 200 660 L 180 660 L 160 660 L 160 640 z M 160 680 L 180 680 L 200 680 L 220 680 L 240 680 L 260 680 L 280 680 L 300 680 L 320 680 L 340 680 L 360 680 L 380 680 L 400 680 L 420 680 L 440 680 L 460 680 L 480 680 L 500 680 L 520 680 L 540 680 L 560 680 L 580 680 L 600 680 L 620 680 L 640 680 L 660 680 L 680 680 L 700 680 L 720 680 L 740 680 L 740 700 L 720 700 L 700 700 L 680 700 L 660 700 L 640 700 L 620 700 L 600 700 L 580 700 L 560 700 L 540 700 L 520 700 L 500 700 L 480 700 L 460 700 L 440 700 L 420 700 L 400 700 L 380 700 L 360 700 L 340 700 L 320 700 L 300 700 L 280 700 L 260 700 L 240 700 L 220 700 L 200 700 L 180 700 L 160 700 L 160 680 z M 160 780 L 180 780 L 200 780 L 220 780 L 240 780 L 260 780 L 280 780 L 300 780 L 320 780 L 340 780 L 340 800 L 320 800 L 300 800 L 280 800 L 260 800 L 240 800 L 220 800 L 200 800 L 180 800 L 160 800 L 160 780 z M 160 820 L 180 820 L 200 820 L 220 820 L 240 820 L 260 820 L 280 820 L 300 820 L 320 820 L 340 820 L 340 840 L 320 840 L 300 840 L 280 840 L 260 840 L 240 840 L 220 840 L 200 840 L 180 840 L 160 840 L 160 820 z "
     style="fill:#ffffff" />
  <path
     id="rect3632"
     d="M 140 20 L 140 40 L 160 40 L 160 20 L 140 20 z M 140 40 L 120 40 L 120 60 L 120 80 L 120 100 L 140 100 L 140 80 L 140 60 L 140 40 z M 140 100 L 140 120 L 160 120 L 160 100 L 140 100 z M 220 20 L 220 40 L 240 40 L 240 20 L 220 20 z M 220 40 L 200 40 L 200 60 L 200 80 L 200 100 L 220 100 L 220 80 L 220 60 L 220 40 z M 220 100 L 220 120 L 240 120 L 240 100 L 220 100 z M 300 20 L 300 40 L 320 40 L 320 20 L 300 20 z M 300 40 L 280 40 L 280 60 L 280 80 L 280 100 L 300 100 L 300 80 L 300 60 L 300 40 z M 300 100 L 300 120 L 320 120 L 320 100 L 300 100 z M 380 20 L 380 40 L 400 40 L 400 20 L 380 20 z M 380 40 L 360 40 L 360 60 L 360 80 L 360 100 L 380 100 L 380 80 L 380 60 L 380 40 z M 380 100 L 380 120 L 400 120 L 400 100 L 380 100 z M 460 20 L 460 40 L 480 40 L 480 20 L 460 20 z M 460 40 L 440 40 L 440 60 L 440 80 L 440 100 L 460 100 L 460 80 L 460 60 L 460 40 z M 460 100 L 460 120 L 480 120 L 480 100 L 460 100 z M 540 20 L 540 40 L 560 40 L 560 20 L 540 20 z M 540 40 L 520 40 L 520 60 L 520 80 L 520 100 L 540 100 L 540 80 L 540 60 L 540 40 z M 540 100 L 540 120 L 560 120 L 560 100 L 540 100 z M 620 20 L 620 40 L 640 40 L 640 20 L 620 20 z M 620 40 L 600 40 L 600 60 L 600 80 L 600 100 L 620 100 L 620 80 L 620 60 L 620 40 z M 620 100 L 620 120 L 640 120 L 640 100 L 620 100 z M 700 20 L 700 40 L 720 40 L 720 20 L 700 20 z M 700 40 L 680 40 L 680 60 L 680 80 L 680 100 L 700 100 L 700 80 L 700 60 L 700 40 z M 700 100 L 700 120 L 720 120 L 720 100 L 700 100 z M 780 20 L 780 40 L 800 40 L 800 20 L 780 20 z M 780 40 L 760 40 L 760 60 L 760 80 L 760 100 L 780 100 L 780 80 L 780 60 L 780 40 z M 780 120 L 780 140 L 780 160 L 780 180 L 780 200 L 780 220 L 780 240 L 780 260 L 780 280 L 780 300 L 780 320 L 780 340 L 780 360 L 780 380 L 780 400 L 780 420 L 780 440 L 780 460 L 780 480 L 780 500 L 780 520 L 780 540 L 780 560 L 780 580 L 780 600 L 780 620 L 780 640 L 780 660 L 780 680 L 780 700 L 780 720 L 780 740 L 780 760 L 780 780 L 780 800 L 780 820 L 780 840 L 780 860 L 780 880 L 780 900 L 800 900 L 800 880 L 800 860 L 800 840 L 800 820 L 800 800 L 800 780 L 800 760 L 800 740 L 800 720 L 800 700 L 800 680 L 800 660 L 800 640 L 800 620 L 800 600 L 800 580 L 800 560 L 800 540 L 800 520 L 800 500 L 800 480 L 800 460 L 800 440 L 800 420 L 800 400 L 800 380 L 800 360 L 800 340 L 800 320 L 800 300 L 800 280 L 800 260 L 800 240 L 800 220 L 800 200 L 800 180 L 800 160 L 800 140 L 800 120 L 780 120 z M 800 900 L 800 920 L 820 920 L 820 900 L 800 900 z M 820 900 L 840 900 L 840 880 L 840 860 L 840 840 L 840 820 L 840 800 L 840 780 L 840 760 L 840 740 L 840 720 L 840 700 L 840 680 L 840 660 L 840 640 L 840 620 L 840 600 L 840 580 L 840 560 L 840 540 L 840 520 L 840 500 L 840 480 L 840 460 L 840 440 L 840 420 L 840 400 L 840 380 L 840 360 L 840 340 L 840 320 L 840 300 L 840 280 L 840 260 L 840 240 L 840 220 L 840 200 L 840 180 L 840 160 L 840 140 L 840 120 L 820 120 L 820 140 L 820 160 L 820 180 L 820 200 L 820 220 L 820 240 L 820 260 L 820 280 L 820 300 L 820 320 L 820 340 L 820 360 L 820 380 L 820 400 L 820 420 L 820 440 L 820 460 L 820 480 L 820 500 L 820 520 L 820 540 L 820 560 L 820 580 L 820 600 L 820 620 L 820 640 L 820 660 L 820 680 L 820 700 L 820 720 L 820 740 L 820 760 L 820 780 L 820 800 L 820 820 L 820 840 L 820 860 L 820 880 L 820 900 z M 780 900 L 760 900 L 760 920 L 780 920 L 780 900 z M 760 920 L 740 920 L 720 920 L 700 920 L 680 920 L 660 920 L 640 920 L 620 920 L 600 920 L 580 920 L 560 920 L 540 920 L 520 920 L 500 920 L 480 920 L 460 920 L 440 920 L 420 920 L 400 920 L 380 920 L 360 920 L 340 920 L 320 920 L 300 920 L 280 920 L 260 920 L 240 920 L 220 920 L 200 920 L 180 920 L 160 920 L 140 920 L 140 940 L 160 940 L 180 940 L 200 940 L 220 940 L 240 940 L 260 940 L 280 940 L 300 940 L 320 940 L 340 940 L 360 940 L 380 940 L 400 940 L 420 940 L 440 940 L 460 940 L 480 940 L 500 940 L 520 940 L 540 940 L 560 940 L 580 940 L 600 940 L 620 940 L 640 940 L 660 940 L 680 940 L 700 940 L 720 940 L 740 940 L 760 940 L 760 920 z M 140 920 L 140 900 L 120 900 L 120 920 L 140 920 z "
     style="fill:#c0c0c0" />
  <path
     id="rect3638"
     d="M 100 40 L 100 60 L 120 60 L 120 40 L 100 40 z M 100 60 L 80 60 L 80 80 L 80 100 L 80 120 L 80 140 L 80 160 L 80 180 L 80 200 L 80 220 L 80 240 L 80 260 L 80 280 L 80 300 L 80 320 L 80 340 L 80 360 L 80 380 L 80 400 L 80 420 L 80 440 L 80 460 L 80 480 L 80 500 L 80 520 L 80 540 L 80 560 L 80 580 L 80 600 L 80 620 L 80 640 L 80 660 L 80 680 L 80 700 L 80 720 L 80 740 L 80 760 L 80 780 L 80 800 L 80 820 L 80 840 L 80 860 L 80 880 L 80 900 L 100 900 L 100 880 L 100 860 L 100 840 L 100 820 L 100 800 L 100 780 L 100 760 L 100 740 L 100 720 L 100 700 L 100 680 L 100 660 L 100 640 L 100 620 L 100 600 L 100 580 L 100 560 L 100 540 L 100 520 L 100 500 L 100 480 L 100 460 L 100 440 L 100 420 L 100 400 L 100 380 L 100 360 L 100 340 L 100 320 L 100 300 L 100 280 L 100 260 L 100 240 L 100 220 L 100 200 L 100 180 L 100 160 L 100 140 L 100 120 L 100 100 L 100 80 L 100 60 z M 100 900 L 100 920 L 120 920 L 120 900 L 100 900 z M 120 920 L 120 940 L 140 940 L 140 920 L 120 920 z M 160 40 L 160 60 L 180 60 L 200 60 L 200 40 L 180 40 L 160 40 z M 240 40 L 240 60 L 260 60 L 280 60 L 280 40 L 260 40 L 240 40 z M 320 40 L 320 60 L 340 60 L 360 60 L 360 40 L 340 40 L 320 40 z M 400 40 L 400 60 L 420 60 L 440 60 L 440 40 L 420 40 L 400 40 z M 480 40 L 480 60 L 500 60 L 520 60 L 520 40 L 500 40 L 480 40 z M 560 40 L 560 60 L 580 60 L 600 60 L 600 40 L 580 40 L 560 40 z M 640 40 L 640 60 L 660 60 L 680 60 L 680 40 L 660 40 L 640 40 z M 720 40 L 720 60 L 740 60 L 760 60 L 760 40 L 740 40 L 720 40 z M 800 40 L 800 60 L 820 60 L 820 40 L 800 40 z M 840 60 L 840 80 L 840 100 L 840 120 L 840 140 L 840 160 L 840 180 L 840 200 L 840 220 L 840 240 L 840 260 L 840 280 L 840 300 L 840 320 L 840 340 L 840 360 L 840 380 L 840 400 L 840 420 L 840 440 L 840 460 L 840 480 L 840 500 L 840 520 L 840 540 L 840 560 L 840 580 L 840 600 L 840 620 L 840 640 L 840 660 L 840 680 L 840 700 L 840 720 L 840 740 L 840 760 L 840 780 L 840 800 L 840 820 L 840 840 L 840 860 L 840 880 L 840 900 L 860 900 L 860 880 L 860 860 L 860 840 L 860 820 L 860 800 L 860 780 L 860 760 L 860 740 L 860 720 L 860 700 L 860 680 L 860 660 L 860 640 L 860 620 L 860 600 L 860 580 L 860 560 L 860 540 L 860 520 L 860 500 L 860 480 L 860 460 L 860 440 L 860 420 L 860 400 L 860 380 L 860 360 L 860 340 L 860 320 L 860 300 L 860 280 L 860 260 L 860 240 L 860 220 L 860 200 L 860 180 L 860 160 L 860 140 L 860 120 L 860 100 L 860 80 L 860 60 L 840 60 z M 840 900 L 820 900 L 820 920 L 840 920 L 840 900 z M 820 920 L 800 920 L 780 920 L 780 940 L 800 940 L 820 940 L 820 920 z M 780 100 L 780 120 L 800 120 L 800 100 L 780 100 z "
     style="fill:#808080" />
  <path
     id="rect3708"
     d="M 160 20 L 160 40 L 180 40 L 200 40 L 200 20 L 180 20 L 160 20 z M 160 40 L 140 40 L 140 60 L 140 80 L 140 100 L 160 100 L 160 80 L 160 60 L 160 40 z M 160 100 L 160 120 L 180 120 L 180 100 L 160 100 z M 240 20 L 240 40 L 260 40 L 280 40 L 280 20 L 260 20 L 240 20 z M 240 40 L 220 40 L 220 60 L 220 80 L 220 100 L 240 100 L 240 80 L 240 60 L 240 40 z M 240 100 L 240 120 L 260 120 L 260 100 L 240 100 z M 320 20 L 320 40 L 340 40 L 360 40 L 360 20 L 340 20 L 320 20 z M 320 40 L 300 40 L 300 60 L 300 80 L 300 100 L 320 100 L 320 80 L 320 60 L 320 40 z M 320 100 L 320 120 L 340 120 L 340 100 L 320 100 z M 400 20 L 400 40 L 420 40 L 440 40 L 440 20 L 420 20 L 400 20 z M 400 40 L 380 40 L 380 60 L 380 80 L 380 100 L 400 100 L 400 80 L 400 60 L 400 40 z M 400 100 L 400 120 L 420 120 L 420 100 L 400 100 z M 480 20 L 480 40 L 500 40 L 520 40 L 520 20 L 500 20 L 480 20 z M 480 40 L 460 40 L 460 60 L 460 80 L 460 100 L 480 100 L 480 80 L 480 60 L 480 40 z M 480 100 L 480 120 L 500 120 L 500 100 L 480 100 z M 560 20 L 560 40 L 580 40 L 600 40 L 600 20 L 580 20 L 560 20 z M 560 40 L 540 40 L 540 60 L 540 80 L 540 100 L 560 100 L 560 80 L 560 60 L 560 40 z M 560 100 L 560 120 L 580 120 L 580 100 L 560 100 z M 640 20 L 640 40 L 660 40 L 680 40 L 680 20 L 660 20 L 640 20 z M 640 40 L 620 40 L 620 60 L 620 80 L 620 100 L 640 100 L 640 80 L 640 60 L 640 40 z M 640 100 L 640 120 L 660 120 L 660 100 L 640 100 z M 720 20 L 720 40 L 740 40 L 760 40 L 760 20 L 740 20 L 720 20 z M 720 40 L 700 40 L 700 60 L 700 80 L 700 100 L 720 100 L 720 80 L 720 60 L 720 40 z M 720 100 L 720 120 L 740 120 L 740 100 L 720 100 z M 800 20 L 800 40 L 820 40 L 820 60 L 840 60 L 860 60 L 860 40 L 840 40 L 840 20 L 820 20 L 800 20 z M 860 60 L 860 80 L 860 100 L 860 120 L 860 140 L 860 160 L 860 180 L 860 200 L 860 220 L 860 240 L 860 260 L 860 280 L 860 300 L 860 320 L 860 340 L 860 360 L 860 380 L 860 400 L 860 420 L 860 440 L 860 460 L 860 480 L 860 500 L 860 520 L 860 540 L 860 560 L 860 580 L 860 600 L 860 620 L 860 640 L 860 660 L 860 680 L 860 700 L 860 720 L 860 740 L 860 760 L 860 780 L 860 800 L 860 820 L 860 840 L 860 860 L 860 880 L 860 900 L 880 900 L 880 880 L 880 860 L 880 840 L 880 820 L 880 800 L 880 780 L 880 760 L 880 740 L 880 720 L 880 700 L 880 680 L 880 660 L 880 640 L 880 620 L 880 600 L 880 580 L 880 560 L 880 540 L 880 520 L 880 500 L 880 480 L 880 460 L 880 440 L 880 420 L 880 400 L 880 380 L 880 360 L 880 340 L 880 320 L 880 300 L 880 280 L 880 260 L 880 240 L 880 220 L 880 200 L 880 180 L 880 160 L 880 140 L 880 120 L 880 100 L 880 80 L 880 60 L 860 60 z M 860 900 L 840 900 L 840 920 L 860 920 L 860 900 z M 840 920 L 820 920 L 820 940 L 840 940 L 840 920 z M 820 940 L 800 940 L 780 940 L 780 920 L 760 920 L 760 940 L 740 940 L 720 940 L 700 940 L 680 940 L 660 940 L 640 940 L 620 940 L 600 940 L 580 940 L 560 940 L 540 940 L 520 940 L 500 940 L 480 940 L 460 940 L 440 940 L 420 940 L 400 940 L 380 940 L 360 940 L 340 940 L 320 940 L 300 940 L 280 940 L 260 940 L 240 940 L 220 940 L 200 940 L 180 940 L 160 940 L 140 940 L 140 960 L 160 960 L 180 960 L 200 960 L 220 960 L 240 960 L 260 960 L 280 960 L 300 960 L 320 960 L 340 960 L 360 960 L 380 960 L 400 960 L 420 960 L 440 960 L 460 960 L 480 960 L 500 960 L 520 960 L 540 960 L 560 960 L 580 960 L 600 960 L 620 960 L 640 960 L 660 960 L 680 960 L 700 960 L 720 960 L 740 960 L 760 960 L 780 960 L 800 960 L 820 960 L 820 940 z M 780 920 L 800 920 L 800 900 L 780 900 L 780 920 z M 800 900 L 820 900 L 820 880 L 820 860 L 820 840 L 820 820 L 820 800 L 820 780 L 820 760 L 820 740 L 820 720 L 820 700 L 820 680 L 820 660 L 820 640 L 820 620 L 820 600 L 820 580 L 820 560 L 820 540 L 820 520 L 820 500 L 820 480 L 820 460 L 820 440 L 820 420 L 820 400 L 820 380 L 820 360 L 820 340 L 820 320 L 820 300 L 820 280 L 820 260 L 820 240 L 820 220 L 820 200 L 820 180 L 820 160 L 820 140 L 820 120 L 840 120 L 840 100 L 820 100 L 820 80 L 820 60 L 800 60 L 800 40 L 780 40 L 780 60 L 780 80 L 780 100 L 800 100 L 800 120 L 800 140 L 800 160 L 800 180 L 800 200 L 800 220 L 800 240 L 800 260 L 800 280 L 800 300 L 800 320 L 800 340 L 800 360 L 800 380 L 800 400 L 800 420 L 800 440 L 800 460 L 800 480 L 800 500 L 800 520 L 800 540 L 800 560 L 800 580 L 800 600 L 800 620 L 800 640 L 800 660 L 800 680 L 800 700 L 800 720 L 800 740 L 800 760 L 800 780 L 800 800 L 800 820 L 800 840 L 800 860 L 800 880 L 800 900 z M 160 220 L 160 240 L 180 240 L 200 240 L 220 240 L 240 240 L 260 240 L 280 240 L 300 240 L 320 240 L 340 240 L 360 240 L 360 220 L 340 220 L 320 220 L 300 220 L 280 220 L 260 220 L 240 220 L 220 220 L 200 220 L 180 220 L 160 220 z M 520 220 L 520 240 L 540 240 L 560 240 L 580 240 L 580 220 L 560 220 L 540 220 L 520 220 z M 600 220 L 600 240 L 620 240 L 640 240 L 660 240 L 680 240 L 700 240 L 720 240 L 740 240 L 740 220 L 720 220 L 700 220 L 680 220 L 660 220 L 640 220 L 620 220 L 600 220 z M 160 260 L 160 280 L 180 280 L 200 280 L 220 280 L 240 280 L 260 280 L 280 280 L 300 280 L 320 280 L 340 280 L 360 280 L 360 260 L 340 260 L 320 260 L 300 260 L 280 260 L 260 260 L 240 260 L 220 260 L 200 260 L 180 260 L 160 260 z M 160 300 L 160 320 L 180 320 L 200 320 L 220 320 L 240 320 L 260 320 L 280 320 L 280 300 L 260 300 L 240 300 L 220 300 L 200 300 L 180 300 L 160 300 z M 160 400 L 160 420 L 180 420 L 200 420 L 220 420 L 240 420 L 260 420 L 280 420 L 300 420 L 320 420 L 340 420 L 340 400 L 320 400 L 300 400 L 280 400 L 260 400 L 240 400 L 220 400 L 200 400 L 180 400 L 160 400 z M 160 480 L 160 500 L 180 500 L 200 500 L 220 500 L 240 500 L 260 500 L 280 500 L 300 500 L 320 500 L 340 500 L 360 500 L 380 500 L 400 500 L 420 500 L 440 500 L 460 500 L 480 500 L 500 500 L 520 500 L 540 500 L 560 500 L 580 500 L 600 500 L 620 500 L 640 500 L 660 500 L 680 500 L 700 500 L 720 500 L 740 500 L 740 480 L 720 480 L 700 480 L 680 480 L 660 480 L 640 480 L 620 480 L 600 480 L 580 480 L 560 480 L 540 480 L 520 480 L 500 480 L 480 480 L 460 480 L 440 480 L 420 480 L 400 480 L 380 480 L 360 480 L 340 480 L 320 480 L 300 480 L 280 480 L 260 480 L 240 480 L 220 480 L 200 480 L 180 480 L 160 480 z M 160 520 L 160 540 L 180 540 L 200 540 L 220 540 L 240 540 L 260 540 L 280 540 L 300 540 L 320 540 L 340 540 L 360 540 L 380 540 L 400 540 L 420 540 L 440 540 L 460 540 L 480 540 L 500 540 L 520 540 L 540 540 L 560 540 L 580 540 L 600 540 L 620 540 L 640 540 L 660 540 L 680 540 L 700 540 L 720 540 L 740 540 L 740 520 L 720 520 L 700 520 L 680 520 L 660 520 L 640 520 L 620 520 L 600 520 L 580 520 L 560 520 L 540 520 L 520 520 L 500 520 L 480 520 L 460 520 L 440 520 L 420 520 L 400 520 L 380 520 L 360 520 L 340 520 L 320 520 L 300 520 L 280 520 L 260 520 L 240 520 L 220 520 L 200 520 L 180 520 L 160 520 z M 160 560 L 160 580 L 180 580 L 200 580 L 220 580 L 240 580 L 260 580 L 280 580 L 300 580 L 320 580 L 340 580 L 360 580 L 380 580 L 400 580 L 420 580 L 440 580 L 460 580 L 480 580 L 500 580 L 520 580 L 540 580 L 560 580 L 580 580 L 600 580 L 620 580 L 640 580 L 660 580 L 680 580 L 700 580 L 720 580 L 740 580 L 740 560 L 720 560 L 700 560 L 680 560 L 660 560 L 640 560 L 620 560 L 600 560 L 580 560 L 560 560 L 540 560 L 520 560 L 500 560 L 480 560 L 460 560 L 440 560 L 420 560 L 400 560 L 380 560 L 360 560 L 340 560 L 320 560 L 300 560 L 280 560 L 260 560 L 240 560 L 220 560 L 200 560 L 180 560 L 160 560 z M 160 600 L 160 620 L 180 620 L 200 620 L 220 620 L 240 620 L 260 620 L 280 620 L 300 620 L 320 620 L 340 620 L 360 620 L 380 620 L 400 620 L 420 620 L 440 620 L 460 620 L 480 620 L 500 620 L 520 620 L 540 620 L 560 620 L 580 620 L 600 620 L 620 620 L 640 620 L 660 620 L 680 620 L 700 620 L 720 620 L 740 620 L 740 600 L 720 600 L 700 600 L 680 600 L 660 600 L 640 600 L 620 600 L 600 600 L 580 600 L 560 600 L 540 600 L 520 600 L 500 600 L 480 600 L 460 600 L 440 600 L 420 600 L 400 600 L 380 600 L 360 600 L 340 600 L 320 600 L 300 600 L 280 600 L 260 600 L 240 600 L 220 600 L 200 600 L 180 600 L 160 600 z M 160 640 L 160 660 L 180 660 L 200 660 L 220 660 L 240 660 L 260 660 L 280 660 L 300 660 L 320 660 L 340 660 L 360 660 L 380 660 L 400 660 L 420 660 L 440 660 L 460 660 L 480 660 L 500 660 L 520 660 L 540 660 L 560 660 L 580 660 L 600 660 L 620 660 L 640 660 L 660 660 L 680 660 L 700 660 L 720 660 L 740 660 L 740 640 L 720 640 L 700 640 L 680 640 L 660 640 L 640 640 L 620 640 L 600 640 L 580 640 L 560 640 L 540 640 L 520 640 L 500 640 L 480 640 L 460 640 L 440 640 L 420 640 L 400 640 L 380 640 L 360 640 L 340 640 L 320 640 L 300 640 L 280 640 L 260 640 L 240 640 L 220 640 L 200 640 L 180 640 L 160 640 z M 160 680 L 160 700 L 180 700 L 200 700 L 220 700 L 240 700 L 260 700 L 280 700 L 300 700 L 320 700 L 340 700 L 360 700 L 380 700 L 400 700 L 420 700 L 440 700 L 460 700 L 480 700 L 500 700 L 520 700 L 540 700 L 560 700 L 580 700 L 600 700 L 620 700 L 640 700 L 660 700 L 680 700 L 700 700 L 720 700 L 740 700 L 740 680 L 720 680 L 700 680 L 680 680 L 660 680 L 640 680 L 620 680 L 600 680 L 580 680 L 560 680 L 540 680 L 520 680 L 500 680 L 480 680 L 460 680 L 440 680 L 420 680 L 400 680 L 380 680 L 360 680 L 340 680 L 320 680 L 300 680 L 280 680 L 260 680 L 240 680 L 220 680 L 200 680 L 180 680 L 160 680 z M 160 780 L 160 800 L 180 800 L 200 800 L 220 800 L 240 800 L 260 800 L 280 800 L 300 800 L 320 800 L 340 800 L 340 780 L 320 780 L 300 780 L 280 780 L 260 780 L 240 780 L 220 780 L 200 780 L 180 780 L 160 780 z M 160 820 L 160 840 L 180 840 L 200 840 L 220 840 L 240 840 L 260 840 L 280 840 L 300 840 L 320 840 L 340 840 L 340 820 L 320 820 L 300 820 L 280 820 L 260 820 L 240 820 L 220 820 L 200 820 L 180 820 L 160 820 z "
     style="fill:#000000" />
</svg>
