<?xml version="1.0" encoding="UTF-8" standalone="no"?>
<svg
   xmlns:dc="http://purl.org/dc/elements/1.1/"
   xmlns:cc="http://creativecommons.org/ns#"
   xmlns:rdf="http://www.w3.org/1999/02/22-rdf-syntax-ns#"
   xmlns:svg="http://www.w3.org/2000/svg"
   xmlns="http://www.w3.org/2000/svg"
   xmlns:sodipodi="http://sodipodi.sourceforge.net/DTD/sodipodi-0.dtd"
   xmlns:inkscape="http://www.inkscape.org/namespaces/inkscape"
   id="svg3466"
   width="960px"
   version="1.1"
   height="960px"
   sodipodi:docname="chicago95_tmp_file.svg"
   inkscape:version="0.92.4 (5da689c313, 2019-01-14)">
  <sodipodi:namedview
     pagecolor="#ffffff"
     bordercolor="#666666"
     borderopacity="1"
     objecttolerance="10"
     gridtolerance="10"
     guidetolerance="10"
     inkscape:pageopacity="0"
     inkscape:pageshadow="2"
     inkscape:window-width="640"
     inkscape:window-height="480"
     id="namedview1736"
     showgrid="false"
     inkscape:zoom="0.24583333"
     inkscape:cx="479.99995"
     inkscape:cy="479.99995"
     inkscape:window-x="0"
     inkscape:window-y="0"
     inkscape:window-maximized="0"
     inkscape:current-layer="svg3466" />
  <metadata
     id="metadata3470">
    <rdf:RDF>
      <cc:Work
         rdf:about="">
        <dc:format>image/svg+xml</dc:format>
        <dc:type
           rdf:resource="http://purl.org/dc/dcmitype/StillImage" />
      </cc:Work>
    </rdf:RDF>
  </metadata>
  <defs
     id="defs2" />
  <path
     style="fill:#ffff00"
     d="M 420 480 L 420 500 L 440 500 L 440 480 L 420 480 z M 440 500 L 440 520 L 460 520 L 460 500 L 440 500 z M 460 520 L 460 540 L 480 540 L 480 520 L 460 520 z M 640 480 L 640 500 L 660 500 L 660 480 L 640 480 z M 660 500 L 660 520 L 680 520 L 680 500 L 660 500 z M 660 520 L 640 520 L 620 520 L 620 540 L 640 540 L 660 540 L 660 520 z M 420 560 L 420 580 L 440 580 L 440 560 L 420 560 z M 440 580 L 440 600 L 460 600 L 460 580 L 440 580 z M 460 600 L 460 620 L 480 620 L 480 600 L 460 600 z M 480 620 L 480 640 L 500 640 L 500 620 L 480 620 z M 640 560 L 640 580 L 660 580 L 660 560 L 640 560 z M 660 580 L 660 600 L 680 600 L 680 580 L 660 580 z M 660 600 L 640 600 L 620 600 L 620 620 L 640 620 L 660 620 L 660 600 z M 620 620 L 600 620 L 600 640 L 620 640 L 620 620 z M 380 580 L 380 600 L 400 600 L 400 580 L 380 580 z M 700 580 L 700 600 L 720 600 L 720 580 L 700 580 z M 520 620 L 520 640 L 540 640 L 540 620 L 520 620 z M 560 620 L 560 640 L 560 660 L 580 660 L 580 640 L 580 620 L 560 620 z M 560 660 L 540 660 L 540 680 L 560 680 L 560 660 z M 440 640 L 440 660 L 460 660 L 460 640 L 440 640 z M 440 660 L 420 660 L 420 680 L 420 700 L 420 720 L 440 720 L 440 700 L 440 680 L 440 660 z "
     id="rect2536" />
  <path
     style="fill:#808000"
     d="M 480 500 L 480 520 L 500 520 L 500 500 L 480 500 z M 620 500 L 620 520 L 640 520 L 640 500 L 620 500 z M 420 520 L 420 540 L 420 560 L 440 560 L 440 540 L 440 520 L 420 520 z M 420 560 L 400 560 L 380 560 L 360 560 L 360 580 L 360 600 L 380 600 L 380 580 L 400 580 L 420 580 L 420 560 z M 380 600 L 380 620 L 380 640 L 400 640 L 420 640 L 420 620 L 440 620 L 440 600 L 420 600 L 400 600 L 380 600 z M 440 620 L 440 640 L 460 640 L 460 620 L 440 620 z M 440 640 L 420 640 L 420 660 L 440 660 L 440 640 z M 420 660 L 400 660 L 400 680 L 400 700 L 400 720 L 400 740 L 420 740 L 420 720 L 420 700 L 420 680 L 420 660 z M 660 520 L 660 540 L 660 560 L 680 560 L 680 540 L 680 520 L 660 520 z M 680 600 L 680 620 L 680 640 L 700 640 L 720 640 L 740 640 L 740 620 L 740 600 L 720 600 L 700 600 L 680 600 z M 680 640 L 660 640 L 660 660 L 640 660 L 640 640 L 620 640 L 600 640 L 600 660 L 600 680 L 620 680 L 640 680 L 640 700 L 640 720 L 660 720 L 680 720 L 680 700 L 680 680 L 680 660 L 680 640 z M 640 640 L 660 640 L 660 620 L 640 620 L 640 640 z M 480 640 L 480 660 L 460 660 L 460 680 L 460 700 L 480 700 L 480 680 L 500 680 L 520 680 L 520 700 L 520 720 L 540 720 L 540 740 L 560 740 L 580 740 L 580 720 L 580 700 L 580 680 L 560 680 L 540 680 L 540 660 L 540 640 L 520 640 L 500 640 L 480 640 z "
     id="rect2624" />
  <path
     style="fill:#ffffff"
     d="M 120 20 L 120 40 L 120 60 L 120 80 L 120 100 L 120 120 L 120 140 L 120 160 L 120 180 L 120 200 L 120 220 L 120 240 L 120 260 L 120 280 L 120 300 L 120 320 L 120 340 L 120 360 L 120 380 L 120 400 L 120 420 L 120 440 L 120 460 L 120 480 L 120 500 L 120 520 L 120 540 L 120 560 L 120 580 L 120 600 L 120 620 L 120 640 L 120 660 L 120 680 L 120 700 L 120 720 L 120 740 L 120 760 L 120 780 L 120 800 L 120 820 L 120 840 L 120 860 L 120 880 L 120 900 L 120 920 L 140 920 L 160 920 L 180 920 L 200 920 L 220 920 L 240 920 L 260 920 L 280 920 L 300 920 L 320 920 L 340 920 L 360 920 L 380 920 L 400 920 L 420 920 L 440 920 L 460 920 L 480 920 L 500 920 L 520 920 L 540 920 L 560 920 L 580 920 L 600 920 L 620 920 L 640 920 L 660 920 L 680 920 L 700 920 L 720 920 L 740 920 L 760 920 L 780 920 L 800 920 L 800 900 L 800 880 L 800 860 L 800 840 L 800 820 L 800 800 L 800 780 L 800 760 L 800 740 L 800 720 L 800 700 L 800 680 L 800 660 L 800 640 L 800 620 L 800 600 L 800 580 L 800 560 L 800 540 L 800 520 L 800 500 L 800 480 L 800 460 L 800 440 L 800 420 L 800 400 L 800 380 L 800 360 L 800 340 L 800 320 L 800 300 L 800 280 L 800 260 L 800 240 L 800 220 L 800 200 L 780 200 L 760 200 L 740 200 L 720 200 L 700 200 L 680 200 L 660 200 L 640 200 L 640 180 L 640 160 L 640 140 L 640 120 L 640 100 L 640 80 L 640 60 L 640 40 L 640 20 L 620 20 L 600 20 L 580 20 L 560 20 L 540 20 L 520 20 L 500 20 L 480 20 L 460 20 L 440 20 L 420 20 L 400 20 L 380 20 L 360 20 L 340 20 L 320 20 L 300 20 L 280 20 L 260 20 L 240 20 L 220 20 L 200 20 L 180 20 L 160 20 L 140 20 L 120 20 z M 660 120 L 660 140 L 660 160 L 660 180 L 680 180 L 700 180 L 720 180 L 720 160 L 700 160 L 700 140 L 680 140 L 680 120 L 660 120 z M 360 260 L 380 260 L 400 260 L 420 260 L 440 260 L 440 280 L 460 280 L 460 300 L 480 300 L 500 300 L 500 280 L 520 280 L 520 300 L 540 300 L 540 320 L 540 340 L 540 360 L 540 380 L 540 400 L 560 400 L 580 400 L 580 420 L 600 420 L 600 440 L 620 440 L 620 460 L 640 460 L 660 460 L 660 440 L 680 440 L 680 460 L 700 460 L 700 480 L 700 500 L 700 520 L 700 540 L 700 560 L 720 560 L 740 560 L 740 580 L 760 580 L 760 600 L 760 620 L 760 640 L 740 640 L 740 660 L 720 660 L 720 680 L 700 680 L 700 700 L 700 720 L 680 720 L 680 740 L 660 740 L 640 740 L 640 720 L 640 700 L 620 700 L 600 700 L 600 720 L 600 740 L 600 760 L 580 760 L 560 760 L 540 760 L 520 760 L 520 740 L 520 720 L 520 700 L 500 700 L 480 700 L 480 720 L 460 720 L 460 740 L 440 740 L 420 740 L 400 740 L 400 720 L 400 700 L 400 680 L 400 660 L 420 660 L 420 640 L 400 640 L 380 640 L 360 640 L 360 620 L 360 600 L 340 600 L 340 580 L 340 560 L 360 560 L 360 540 L 340 540 L 320 540 L 320 560 L 300 560 L 300 580 L 280 580 L 260 580 L 260 560 L 240 560 L 240 540 L 240 520 L 240 500 L 260 500 L 260 480 L 240 480 L 220 480 L 200 480 L 200 460 L 200 440 L 200 420 L 200 400 L 220 400 L 240 400 L 240 380 L 260 380 L 260 360 L 240 360 L 240 340 L 240 320 L 260 320 L 260 300 L 280 300 L 300 300 L 300 320 L 320 320 L 340 320 L 340 300 L 340 280 L 360 280 L 360 260 z M 360 280 L 360 300 L 380 300 L 400 300 L 420 300 L 420 280 L 400 280 L 380 280 L 360 280 z M 300 320 L 280 320 L 260 320 L 260 340 L 260 360 L 280 360 L 280 380 L 280 400 L 260 400 L 260 420 L 240 420 L 220 420 L 220 440 L 240 440 L 260 440 L 280 440 L 280 460 L 300 460 L 300 480 L 320 480 L 340 480 L 360 480 L 380 480 L 400 480 L 400 460 L 380 460 L 360 460 L 340 460 L 340 440 L 320 440 L 320 420 L 300 420 L 300 400 L 320 400 L 320 380 L 340 380 L 340 360 L 320 360 L 320 340 L 300 340 L 300 320 z M 320 400 L 320 420 L 340 420 L 340 400 L 320 400 z M 400 480 L 400 500 L 420 500 L 420 480 L 400 480 z M 420 500 L 420 520 L 440 520 L 440 500 L 420 500 z M 440 500 L 460 500 L 460 480 L 440 480 L 440 500 z M 460 480 L 480 480 L 480 460 L 500 460 L 500 440 L 520 440 L 520 420 L 520 400 L 500 400 L 500 380 L 500 360 L 520 360 L 520 340 L 520 320 L 520 300 L 500 300 L 500 320 L 480 320 L 480 340 L 480 360 L 460 360 L 460 380 L 480 380 L 480 400 L 460 400 L 460 420 L 480 420 L 480 440 L 460 440 L 460 460 L 460 480 z M 520 440 L 520 460 L 540 460 L 560 460 L 580 460 L 580 440 L 560 440 L 540 440 L 520 440 z M 460 500 L 460 520 L 480 520 L 480 500 L 460 500 z M 480 520 L 480 540 L 500 540 L 500 520 L 480 520 z M 480 540 L 460 540 L 460 520 L 440 520 L 440 540 L 440 560 L 440 580 L 460 580 L 460 560 L 480 560 L 480 540 z M 480 560 L 480 580 L 500 580 L 500 560 L 480 560 z M 480 580 L 460 580 L 460 600 L 480 600 L 480 580 z M 480 600 L 480 620 L 500 620 L 500 600 L 480 600 z M 500 620 L 500 640 L 520 640 L 520 620 L 500 620 z M 480 620 L 460 620 L 460 640 L 480 640 L 480 620 z M 460 620 L 460 600 L 440 600 L 440 620 L 460 620 z M 440 600 L 440 580 L 420 580 L 400 580 L 400 600 L 420 600 L 440 600 z M 400 500 L 380 500 L 380 520 L 400 520 L 400 500 z M 300 480 L 280 480 L 280 500 L 300 500 L 300 480 z M 280 500 L 260 500 L 260 520 L 260 540 L 260 560 L 280 560 L 280 540 L 280 520 L 280 500 z M 740 580 L 720 580 L 720 600 L 740 600 L 740 580 z M 680 460 L 660 460 L 660 480 L 660 500 L 680 500 L 680 480 L 680 460 z M 660 500 L 640 500 L 640 520 L 660 520 L 660 500 z M 360 320 L 360 340 L 360 360 L 360 380 L 360 400 L 360 420 L 360 440 L 380 440 L 380 420 L 380 400 L 380 380 L 380 360 L 380 340 L 380 320 L 360 320 z M 520 480 L 520 500 L 520 520 L 520 540 L 520 560 L 520 580 L 520 600 L 540 600 L 540 580 L 540 560 L 540 540 L 540 520 L 540 500 L 540 480 L 520 480 z M 640 540 L 640 560 L 660 560 L 660 540 L 640 540 z M 660 560 L 660 580 L 680 580 L 680 560 L 660 560 z M 680 580 L 680 600 L 700 600 L 700 580 L 680 580 z M 660 580 L 640 580 L 640 600 L 660 600 L 660 580 z M 640 580 L 640 560 L 620 560 L 620 580 L 640 580 z M 540 620 L 540 640 L 540 660 L 560 660 L 560 640 L 560 620 L 540 620 z M 560 660 L 560 680 L 580 680 L 580 660 L 560 660 z M 580 620 L 580 640 L 600 640 L 600 620 L 580 620 z M 620 620 L 620 640 L 640 640 L 640 620 L 620 620 z M 640 640 L 640 660 L 660 660 L 660 640 L 640 640 z "
     id="rect3312" />
  <path
     style="fill:#808080"
     d="M 100 0 L 100 20 L 100 40 L 100 60 L 100 80 L 100 100 L 100 120 L 100 140 L 100 160 L 100 180 L 100 200 L 100 220 L 100 240 L 100 260 L 100 280 L 100 300 L 100 320 L 100 340 L 100 360 L 100 380 L 100 400 L 100 420 L 100 440 L 100 460 L 100 480 L 100 500 L 100 520 L 100 540 L 100 560 L 100 580 L 100 600 L 100 620 L 100 640 L 100 660 L 100 680 L 100 700 L 100 720 L 100 740 L 100 760 L 100 780 L 100 800 L 100 820 L 100 840 L 100 860 L 100 880 L 100 900 L 100 920 L 100 940 L 120 940 L 120 920 L 120 900 L 120 880 L 120 860 L 120 840 L 120 820 L 120 800 L 120 780 L 120 760 L 120 740 L 120 720 L 120 700 L 120 680 L 120 660 L 120 640 L 120 620 L 120 600 L 120 580 L 120 560 L 120 540 L 120 520 L 120 500 L 120 480 L 120 460 L 120 440 L 120 420 L 120 400 L 120 380 L 120 360 L 120 340 L 120 320 L 120 300 L 120 280 L 120 260 L 120 240 L 120 220 L 120 200 L 120 180 L 120 160 L 120 140 L 120 120 L 120 100 L 120 80 L 120 60 L 120 40 L 120 20 L 140 20 L 160 20 L 180 20 L 200 20 L 220 20 L 240 20 L 260 20 L 280 20 L 300 20 L 320 20 L 340 20 L 360 20 L 380 20 L 400 20 L 420 20 L 440 20 L 460 20 L 480 20 L 500 20 L 520 20 L 540 20 L 560 20 L 580 20 L 600 20 L 620 20 L 640 20 L 640 40 L 640 60 L 640 80 L 640 100 L 640 120 L 640 140 L 640 160 L 640 180 L 640 200 L 660 200 L 660 180 L 660 160 L 660 140 L 660 120 L 660 100 L 660 80 L 680 80 L 680 100 L 700 100 L 700 120 L 720 120 L 720 140 L 740 140 L 740 160 L 760 160 L 760 180 L 780 180 L 800 180 L 800 160 L 780 160 L 780 140 L 760 140 L 760 120 L 740 120 L 740 100 L 720 100 L 720 80 L 700 80 L 700 60 L 680 60 L 680 40 L 660 40 L 660 20 L 660 0 L 640 0 L 620 0 L 600 0 L 580 0 L 560 0 L 540 0 L 520 0 L 500 0 L 480 0 L 460 0 L 440 0 L 420 0 L 400 0 L 380 0 L 360 0 L 340 0 L 320 0 L 300 0 L 280 0 L 260 0 L 240 0 L 220 0 L 200 0 L 180 0 L 160 0 L 140 0 L 120 0 L 100 0 z M 360 260 L 360 280 L 380 280 L 400 280 L 420 280 L 440 280 L 440 260 L 420 260 L 400 260 L 380 260 L 360 260 z M 360 280 L 340 280 L 340 300 L 340 320 L 340 340 L 320 340 L 320 360 L 340 360 L 340 380 L 340 400 L 340 420 L 340 440 L 360 440 L 360 420 L 360 400 L 360 380 L 360 360 L 360 340 L 360 320 L 380 320 L 400 320 L 400 340 L 400 360 L 400 380 L 400 400 L 400 420 L 400 440 L 420 440 L 440 440 L 440 420 L 440 400 L 440 380 L 440 360 L 440 340 L 440 320 L 440 300 L 420 300 L 400 300 L 380 300 L 360 300 L 360 280 z M 500 280 L 500 300 L 520 300 L 520 280 L 500 280 z M 520 300 L 520 320 L 540 320 L 540 300 L 520 300 z M 500 300 L 480 300 L 480 320 L 500 320 L 500 300 z M 260 300 L 260 320 L 280 320 L 300 320 L 300 300 L 280 300 L 260 300 z M 260 320 L 240 320 L 240 340 L 240 360 L 260 360 L 260 340 L 260 320 z M 260 360 L 260 380 L 240 380 L 240 400 L 220 400 L 200 400 L 200 420 L 200 440 L 220 440 L 220 420 L 240 420 L 260 420 L 260 400 L 280 400 L 280 380 L 280 360 L 260 360 z M 220 440 L 220 460 L 220 480 L 240 480 L 260 480 L 260 460 L 280 460 L 280 440 L 260 440 L 240 440 L 220 440 z M 280 460 L 280 480 L 300 480 L 300 460 L 280 460 z M 280 480 L 260 480 L 260 500 L 280 500 L 280 480 z M 260 500 L 240 500 L 240 520 L 240 540 L 240 560 L 260 560 L 260 540 L 260 520 L 260 500 z M 460 340 L 460 360 L 480 360 L 480 340 L 460 340 z M 500 360 L 500 380 L 500 400 L 520 400 L 520 380 L 520 360 L 500 360 z M 520 420 L 520 440 L 540 440 L 560 440 L 580 440 L 600 440 L 600 420 L 580 420 L 560 420 L 540 420 L 520 420 z M 520 440 L 500 440 L 500 460 L 480 460 L 480 480 L 500 480 L 500 500 L 500 520 L 500 540 L 500 560 L 500 580 L 500 600 L 520 600 L 520 580 L 520 560 L 520 540 L 520 520 L 520 500 L 520 480 L 540 480 L 560 480 L 560 500 L 560 520 L 560 540 L 560 560 L 560 580 L 560 600 L 580 600 L 600 600 L 600 580 L 600 560 L 600 540 L 600 520 L 600 500 L 600 480 L 600 460 L 580 460 L 560 460 L 540 460 L 520 460 L 520 440 z M 320 480 L 320 500 L 300 500 L 300 520 L 300 540 L 320 540 L 320 520 L 340 520 L 360 520 L 360 540 L 380 540 L 400 540 L 400 520 L 380 520 L 380 500 L 380 480 L 360 480 L 340 480 L 320 480 z "
     id="rect3318" />
  <path
     style="fill:#c0c0c0"
     d="M 660 80 L 660 100 L 660 120 L 680 120 L 680 140 L 700 140 L 700 160 L 720 160 L 720 180 L 740 180 L 760 180 L 760 160 L 740 160 L 740 140 L 720 140 L 720 120 L 700 120 L 700 100 L 680 100 L 680 80 L 660 80 z M 800 200 L 800 220 L 800 240 L 800 260 L 800 280 L 800 300 L 800 320 L 800 340 L 800 360 L 800 380 L 800 400 L 800 420 L 800 440 L 800 460 L 800 480 L 800 500 L 800 520 L 800 540 L 800 560 L 800 580 L 800 600 L 800 620 L 800 640 L 800 660 L 800 680 L 800 700 L 800 720 L 800 740 L 800 760 L 800 780 L 800 800 L 800 820 L 800 840 L 800 860 L 800 880 L 800 900 L 800 920 L 780 920 L 760 920 L 740 920 L 720 920 L 700 920 L 680 920 L 660 920 L 640 920 L 620 920 L 600 920 L 580 920 L 560 920 L 540 920 L 520 920 L 500 920 L 480 920 L 460 920 L 440 920 L 420 920 L 400 920 L 380 920 L 360 920 L 340 920 L 320 920 L 300 920 L 280 920 L 260 920 L 240 920 L 220 920 L 200 920 L 180 920 L 160 920 L 140 920 L 120 920 L 120 940 L 140 940 L 160 940 L 180 940 L 200 940 L 220 940 L 240 940 L 260 940 L 280 940 L 300 940 L 320 940 L 340 940 L 360 940 L 380 940 L 400 940 L 420 940 L 440 940 L 460 940 L 480 940 L 500 940 L 520 940 L 540 940 L 560 940 L 580 940 L 600 940 L 620 940 L 640 940 L 660 940 L 680 940 L 700 940 L 720 940 L 740 940 L 760 940 L 780 940 L 800 940 L 820 940 L 820 920 L 820 900 L 820 880 L 820 860 L 820 840 L 820 820 L 820 800 L 820 780 L 820 760 L 820 740 L 820 720 L 820 700 L 820 680 L 820 660 L 820 640 L 820 620 L 820 600 L 820 580 L 820 560 L 820 540 L 820 520 L 820 500 L 820 480 L 820 460 L 820 440 L 820 420 L 820 400 L 820 380 L 820 360 L 820 340 L 820 320 L 820 300 L 820 280 L 820 260 L 820 240 L 820 220 L 820 200 L 800 200 z M 420 280 L 420 300 L 440 300 L 440 280 L 420 280 z M 380 320 L 380 340 L 380 360 L 380 380 L 380 400 L 380 420 L 380 440 L 400 440 L 400 420 L 400 400 L 400 380 L 400 360 L 400 340 L 400 320 L 380 320 z M 580 440 L 580 460 L 600 460 L 600 440 L 580 440 z M 540 480 L 540 500 L 540 520 L 540 540 L 540 560 L 540 580 L 540 600 L 560 600 L 560 580 L 560 560 L 560 540 L 560 520 L 560 500 L 560 480 L 540 480 z "
     id="rect3388" />
  <path
     style="fill:#000000"
     d="M 660 20 L 660 40 L 680 40 L 680 20 L 660 20 z M 680 40 L 680 60 L 700 60 L 700 40 L 680 40 z M 700 60 L 700 80 L 720 80 L 720 60 L 700 60 z M 720 80 L 720 100 L 740 100 L 740 80 L 720 80 z M 740 100 L 740 120 L 760 120 L 760 100 L 740 100 z M 760 120 L 760 140 L 780 140 L 780 120 L 760 120 z M 780 140 L 780 160 L 800 160 L 800 140 L 780 140 z M 800 160 L 800 180 L 780 180 L 760 180 L 740 180 L 720 180 L 700 180 L 680 180 L 660 180 L 660 200 L 680 200 L 700 200 L 720 200 L 740 200 L 760 200 L 780 200 L 800 200 L 820 200 L 820 220 L 820 240 L 820 260 L 820 280 L 820 300 L 820 320 L 820 340 L 820 360 L 820 380 L 820 400 L 820 420 L 820 440 L 820 460 L 820 480 L 820 500 L 820 520 L 820 540 L 820 560 L 820 580 L 820 600 L 820 620 L 820 640 L 820 660 L 820 680 L 820 700 L 820 720 L 820 740 L 820 760 L 820 780 L 820 800 L 820 820 L 820 840 L 820 860 L 820 880 L 820 900 L 820 920 L 820 940 L 800 940 L 780 940 L 760 940 L 740 940 L 720 940 L 700 940 L 680 940 L 660 940 L 640 940 L 620 940 L 600 940 L 580 940 L 560 940 L 540 940 L 520 940 L 500 940 L 480 940 L 460 940 L 440 940 L 420 940 L 400 940 L 380 940 L 360 940 L 340 940 L 320 940 L 300 940 L 280 940 L 260 940 L 240 940 L 220 940 L 200 940 L 180 940 L 160 940 L 140 940 L 120 940 L 100 940 L 100 960 L 120 960 L 140 960 L 160 960 L 180 960 L 200 960 L 220 960 L 240 960 L 260 960 L 280 960 L 300 960 L 320 960 L 340 960 L 360 960 L 380 960 L 400 960 L 420 960 L 440 960 L 460 960 L 480 960 L 500 960 L 520 960 L 540 960 L 560 960 L 580 960 L 600 960 L 620 960 L 640 960 L 660 960 L 680 960 L 700 960 L 720 960 L 740 960 L 760 960 L 780 960 L 800 960 L 820 960 L 840 960 L 840 940 L 840 920 L 840 900 L 840 880 L 840 860 L 840 840 L 840 820 L 840 800 L 840 780 L 840 760 L 840 740 L 840 720 L 840 700 L 840 680 L 840 660 L 840 640 L 840 620 L 840 600 L 840 580 L 840 560 L 840 540 L 840 520 L 840 500 L 840 480 L 840 460 L 840 440 L 840 420 L 840 400 L 840 380 L 840 360 L 840 340 L 840 320 L 840 300 L 840 280 L 840 260 L 840 240 L 840 220 L 840 200 L 840 180 L 820 180 L 820 160 L 800 160 z M 440 280 L 440 300 L 440 320 L 440 340 L 440 360 L 440 380 L 440 400 L 440 420 L 440 440 L 420 440 L 400 440 L 380 440 L 360 440 L 340 440 L 340 460 L 360 460 L 380 460 L 400 460 L 400 480 L 420 480 L 440 480 L 460 480 L 460 460 L 460 440 L 480 440 L 480 420 L 460 420 L 460 400 L 480 400 L 480 380 L 460 380 L 460 360 L 460 340 L 480 340 L 480 320 L 480 300 L 460 300 L 460 280 L 440 280 z M 460 480 L 460 500 L 480 500 L 500 500 L 500 480 L 480 480 L 460 480 z M 400 480 L 380 480 L 380 500 L 400 500 L 400 480 z M 400 500 L 400 520 L 400 540 L 380 540 L 360 540 L 360 560 L 380 560 L 400 560 L 420 560 L 420 540 L 420 520 L 420 500 L 400 500 z M 360 560 L 340 560 L 340 580 L 340 600 L 360 600 L 360 580 L 360 560 z M 360 600 L 360 620 L 360 640 L 380 640 L 380 620 L 380 600 L 360 600 z M 360 540 L 360 520 L 340 520 L 320 520 L 320 540 L 340 540 L 360 540 z M 320 540 L 300 540 L 300 520 L 300 500 L 280 500 L 280 520 L 280 540 L 280 560 L 260 560 L 260 580 L 280 580 L 300 580 L 300 560 L 320 560 L 320 540 z M 300 500 L 320 500 L 320 480 L 300 480 L 300 500 z M 340 440 L 340 420 L 320 420 L 320 440 L 340 440 z M 320 420 L 320 400 L 300 400 L 300 420 L 320 420 z M 320 400 L 340 400 L 340 380 L 320 380 L 320 400 z M 300 320 L 300 340 L 320 340 L 340 340 L 340 320 L 320 320 L 300 320 z M 520 320 L 520 340 L 520 360 L 520 380 L 520 400 L 520 420 L 540 420 L 560 420 L 580 420 L 580 400 L 560 400 L 540 400 L 540 380 L 540 360 L 540 340 L 540 320 L 520 320 z M 200 440 L 200 460 L 200 480 L 220 480 L 220 460 L 220 440 L 200 440 z M 600 440 L 600 460 L 600 480 L 600 500 L 600 520 L 600 540 L 600 560 L 600 580 L 600 600 L 580 600 L 560 600 L 540 600 L 520 600 L 500 600 L 500 620 L 520 620 L 540 620 L 560 620 L 580 620 L 600 620 L 620 620 L 620 600 L 640 600 L 640 580 L 620 580 L 620 560 L 640 560 L 640 540 L 620 540 L 620 520 L 620 500 L 640 500 L 640 480 L 660 480 L 660 460 L 640 460 L 620 460 L 620 440 L 600 440 z M 660 460 L 680 460 L 680 440 L 660 440 L 660 460 z M 680 460 L 680 480 L 680 500 L 680 520 L 680 540 L 680 560 L 680 580 L 700 580 L 720 580 L 740 580 L 740 560 L 720 560 L 700 560 L 700 540 L 700 520 L 700 500 L 700 480 L 700 460 L 680 460 z M 740 580 L 740 600 L 740 620 L 740 640 L 760 640 L 760 620 L 760 600 L 760 580 L 740 580 z M 740 640 L 720 640 L 700 640 L 680 640 L 680 660 L 680 680 L 680 700 L 680 720 L 700 720 L 700 700 L 700 680 L 720 680 L 720 660 L 740 660 L 740 640 z M 680 720 L 660 720 L 640 720 L 640 740 L 660 740 L 680 740 L 680 720 z M 680 640 L 680 620 L 680 600 L 660 600 L 660 620 L 660 640 L 680 640 z M 500 600 L 500 580 L 480 580 L 480 600 L 500 600 z M 480 580 L 480 560 L 460 560 L 460 580 L 480 580 z M 480 560 L 500 560 L 500 540 L 480 540 L 480 560 z M 260 460 L 260 480 L 280 480 L 280 460 L 260 460 z M 420 620 L 420 640 L 440 640 L 440 620 L 420 620 z M 460 640 L 460 660 L 480 660 L 480 640 L 460 640 z M 460 660 L 440 660 L 440 680 L 440 700 L 440 720 L 420 720 L 420 740 L 440 740 L 460 740 L 460 720 L 480 720 L 480 700 L 460 700 L 460 680 L 460 660 z M 480 700 L 500 700 L 520 700 L 520 680 L 500 680 L 480 680 L 480 700 z M 580 640 L 580 660 L 580 680 L 580 700 L 580 720 L 580 740 L 560 740 L 540 740 L 540 720 L 520 720 L 520 740 L 520 760 L 540 760 L 560 760 L 580 760 L 600 760 L 600 740 L 600 720 L 600 700 L 620 700 L 640 700 L 640 680 L 620 680 L 600 680 L 600 660 L 600 640 L 580 640 z "
     id="rect3464" />
</svg>
