<?xml version="1.0" encoding="UTF-8" standalone="no"?>
<svg
   xmlns:dc="http://purl.org/dc/elements/1.1/"
   xmlns:cc="http://creativecommons.org/ns#"
   xmlns:rdf="http://www.w3.org/1999/02/22-rdf-syntax-ns#"
   xmlns:svg="http://www.w3.org/2000/svg"
   xmlns="http://www.w3.org/2000/svg"
   height="960px"
   version="1.1"
   width="960px"
   id="svg3658">
  <metadata
     id="metadata3662">
    <rdf:RDF>
      <cc:Work
         rdf:about="">
        <dc:format>image/svg+xml</dc:format>
        <dc:type
           rdf:resource="http://purl.org/dc/dcmitype/StillImage" />
      </cc:Work>
    </rdf:RDF>
  </metadata>
  <defs
     id="defs2" />
  <path
     id="rect3134"
     d="M 260 260 L 260 280 L 240 280 L 240 300 L 220 300 L 220 320 L 200 320 L 200 340 L 200 360 L 200 380 L 200 400 L 200 420 L 220 420 L 220 440 L 240 440 L 240 460 L 260 460 L 260 480 L 280 480 L 300 480 L 320 480 L 340 480 L 340 460 L 360 460 L 360 440 L 380 440 L 380 420 L 400 420 L 400 400 L 400 380 L 400 360 L 400 340 L 400 320 L 380 320 L 380 300 L 360 300 L 360 280 L 340 280 L 340 260 L 320 260 L 300 260 L 280 260 L 260 260 z M 540 260 L 540 280 L 540 300 L 540 320 L 540 340 L 540 360 L 540 380 L 540 400 L 540 420 L 540 440 L 540 460 L 540 480 L 560 480 L 580 480 L 600 480 L 620 480 L 640 480 L 660 480 L 680 480 L 700 480 L 720 480 L 740 480 L 740 460 L 740 440 L 740 420 L 740 400 L 740 380 L 740 360 L 740 340 L 740 320 L 740 300 L 740 280 L 740 260 L 720 260 L 700 260 L 680 260 L 660 260 L 640 260 L 620 260 L 600 260 L 580 260 L 560 260 L 540 260 z M 300 560 L 300 580 L 280 580 L 280 600 L 260 600 L 260 620 L 240 620 L 240 640 L 220 640 L 220 660 L 200 660 L 200 680 L 180 680 L 180 700 L 180 720 L 200 720 L 200 740 L 220 740 L 220 760 L 240 760 L 240 780 L 260 780 L 260 800 L 280 800 L 280 820 L 300 820 L 300 840 L 320 840 L 320 820 L 340 820 L 340 800 L 360 800 L 360 780 L 380 780 L 380 760 L 400 760 L 400 740 L 420 740 L 420 720 L 440 720 L 440 700 L 440 680 L 420 680 L 420 660 L 400 660 L 400 640 L 380 640 L 380 620 L 360 620 L 360 600 L 340 600 L 340 580 L 320 580 L 320 560 L 300 560 z M 620 640 L 620 660 L 600 660 L 600 680 L 600 700 L 580 700 L 580 720 L 580 740 L 580 760 L 560 760 L 560 780 L 540 780 L 540 800 L 540 820 L 560 820 L 580 820 L 600 820 L 620 820 L 640 820 L 660 820 L 680 820 L 700 820 L 720 820 L 720 800 L 720 780 L 700 780 L 700 760 L 680 760 L 680 740 L 680 720 L 680 700 L 660 700 L 660 680 L 660 660 L 640 660 L 640 640 L 620 640 z "
     style="fill:#00ff00" />
  <path
     id="rect3416"
     d="M 120 20 L 120 40 L 120 60 L 120 80 L 120 100 L 120 120 L 120 140 L 120 160 L 120 180 L 120 200 L 120 220 L 120 240 L 120 260 L 120 280 L 120 300 L 120 320 L 120 340 L 120 360 L 120 380 L 120 400 L 120 420 L 120 440 L 120 460 L 120 480 L 120 500 L 120 520 L 120 540 L 120 560 L 120 580 L 120 600 L 120 620 L 120 640 L 120 660 L 120 680 L 120 700 L 120 720 L 120 740 L 120 760 L 120 780 L 120 800 L 120 820 L 120 840 L 120 860 L 120 880 L 120 900 L 140 900 L 160 900 L 180 900 L 200 900 L 200 880 L 200 860 L 220 860 L 240 860 L 240 880 L 240 900 L 260 900 L 280 900 L 300 900 L 320 900 L 320 880 L 320 860 L 300 860 L 300 840 L 280 840 L 280 820 L 260 820 L 260 800 L 240 800 L 240 820 L 240 840 L 220 840 L 200 840 L 200 820 L 200 800 L 220 800 L 240 800 L 240 780 L 220 780 L 220 760 L 200 760 L 200 740 L 180 740 L 180 720 L 160 720 L 160 700 L 160 680 L 180 680 L 180 660 L 200 660 L 200 640 L 220 640 L 220 620 L 240 620 L 240 600 L 220 600 L 200 600 L 200 580 L 200 560 L 220 560 L 240 560 L 240 580 L 240 600 L 260 600 L 260 580 L 280 580 L 280 560 L 300 560 L 300 540 L 320 540 L 320 520 L 320 500 L 300 500 L 280 500 L 260 500 L 260 480 L 240 480 L 220 480 L 200 480 L 200 460 L 200 440 L 200 420 L 180 420 L 180 400 L 180 380 L 180 360 L 160 360 L 140 360 L 140 340 L 140 320 L 160 320 L 180 320 L 200 320 L 200 300 L 200 280 L 200 260 L 220 260 L 240 260 L 260 260 L 260 240 L 260 220 L 260 200 L 280 200 L 300 200 L 300 220 L 300 240 L 320 240 L 320 220 L 320 200 L 340 200 L 360 200 L 360 220 L 360 240 L 360 260 L 380 260 L 400 260 L 420 260 L 420 280 L 420 300 L 420 320 L 420 340 L 420 360 L 420 380 L 420 400 L 420 420 L 420 440 L 420 460 L 420 480 L 400 480 L 380 480 L 360 480 L 360 500 L 360 520 L 360 540 L 340 540 L 320 540 L 320 560 L 340 560 L 340 580 L 360 580 L 360 600 L 380 600 L 380 580 L 380 560 L 400 560 L 420 560 L 420 580 L 420 600 L 400 600 L 380 600 L 380 620 L 400 620 L 400 640 L 420 640 L 420 660 L 440 660 L 440 640 L 440 620 L 460 620 L 480 620 L 480 640 L 480 660 L 460 660 L 440 660 L 440 680 L 460 680 L 460 700 L 460 720 L 440 720 L 440 740 L 460 740 L 480 740 L 480 760 L 480 780 L 460 780 L 440 780 L 440 760 L 440 740 L 420 740 L 420 760 L 400 760 L 400 780 L 380 780 L 380 800 L 400 800 L 420 800 L 420 820 L 420 840 L 400 840 L 380 840 L 380 820 L 380 800 L 360 800 L 360 820 L 340 820 L 340 840 L 320 840 L 320 860 L 340 860 L 360 860 L 360 880 L 360 900 L 380 900 L 400 900 L 420 900 L 440 900 L 440 880 L 440 860 L 460 860 L 480 860 L 480 880 L 480 900 L 500 900 L 520 900 L 540 900 L 560 900 L 560 880 L 560 860 L 580 860 L 600 860 L 600 880 L 600 900 L 620 900 L 640 900 L 660 900 L 680 900 L 680 880 L 680 860 L 700 860 L 720 860 L 720 880 L 720 900 L 740 900 L 760 900 L 780 900 L 800 900 L 800 880 L 800 860 L 800 840 L 800 820 L 800 800 L 800 780 L 800 760 L 800 740 L 800 720 L 800 700 L 800 680 L 800 660 L 800 640 L 800 620 L 800 600 L 800 580 L 800 560 L 800 540 L 800 520 L 800 500 L 800 480 L 800 460 L 800 440 L 800 420 L 800 400 L 800 380 L 800 360 L 800 340 L 800 320 L 800 300 L 800 280 L 800 260 L 800 240 L 800 220 L 800 200 L 780 200 L 780 220 L 780 240 L 760 240 L 760 260 L 780 260 L 780 280 L 780 300 L 760 300 L 760 320 L 780 320 L 780 340 L 780 360 L 760 360 L 760 380 L 780 380 L 780 400 L 780 420 L 760 420 L 760 440 L 780 440 L 780 460 L 780 480 L 760 480 L 760 500 L 740 500 L 720 500 L 720 520 L 720 540 L 700 540 L 680 540 L 680 520 L 680 500 L 660 500 L 640 500 L 620 500 L 600 500 L 600 520 L 600 540 L 580 540 L 560 540 L 560 520 L 560 500 L 540 500 L 520 500 L 520 480 L 500 480 L 500 460 L 500 440 L 520 440 L 520 420 L 500 420 L 500 400 L 500 380 L 520 380 L 520 360 L 500 360 L 500 340 L 500 320 L 520 320 L 520 300 L 500 300 L 500 280 L 500 260 L 520 260 L 520 240 L 500 240 L 500 220 L 500 200 L 520 200 L 540 200 L 540 220 L 540 240 L 560 240 L 560 220 L 560 200 L 580 200 L 600 200 L 600 220 L 600 240 L 620 240 L 620 220 L 620 200 L 640 200 L 660 200 L 660 180 L 660 160 L 660 140 L 660 120 L 640 120 L 620 120 L 620 100 L 620 80 L 640 80 L 660 80 L 660 60 L 660 40 L 660 20 L 640 20 L 620 20 L 600 20 L 600 40 L 600 60 L 580 60 L 560 60 L 560 40 L 560 20 L 540 20 L 520 20 L 500 20 L 480 20 L 480 40 L 480 60 L 460 60 L 440 60 L 440 40 L 440 20 L 420 20 L 400 20 L 380 20 L 360 20 L 360 40 L 360 60 L 340 60 L 320 60 L 320 40 L 320 20 L 300 20 L 280 20 L 260 20 L 240 20 L 240 40 L 240 60 L 220 60 L 200 60 L 200 40 L 200 20 L 180 20 L 160 20 L 140 20 L 120 20 z M 660 200 L 660 220 L 660 240 L 680 240 L 680 220 L 680 200 L 660 200 z M 140 80 L 160 80 L 180 80 L 180 100 L 180 120 L 160 120 L 140 120 L 140 100 L 140 80 z M 200 80 L 220 80 L 240 80 L 240 100 L 240 120 L 220 120 L 200 120 L 200 100 L 200 80 z M 260 80 L 280 80 L 300 80 L 300 100 L 300 120 L 280 120 L 260 120 L 260 100 L 260 80 z M 320 80 L 340 80 L 360 80 L 360 100 L 360 120 L 340 120 L 320 120 L 320 100 L 320 80 z M 380 80 L 400 80 L 420 80 L 420 100 L 420 120 L 400 120 L 380 120 L 380 100 L 380 80 z M 440 80 L 460 80 L 480 80 L 480 100 L 480 120 L 460 120 L 440 120 L 440 100 L 440 80 z M 500 80 L 520 80 L 540 80 L 540 100 L 540 120 L 520 120 L 500 120 L 500 100 L 500 80 z M 560 80 L 580 80 L 600 80 L 600 100 L 600 120 L 580 120 L 560 120 L 560 100 L 560 80 z M 680 120 L 680 140 L 680 160 L 680 180 L 700 180 L 720 180 L 740 180 L 740 160 L 740 140 L 720 140 L 720 120 L 700 120 L 680 120 z M 200 140 L 220 140 L 240 140 L 240 160 L 240 180 L 220 180 L 200 180 L 200 160 L 200 140 z M 320 140 L 340 140 L 360 140 L 360 160 L 360 180 L 340 180 L 320 180 L 320 160 L 320 140 z M 440 140 L 460 140 L 480 140 L 480 160 L 480 180 L 460 180 L 440 180 L 440 160 L 440 140 z M 560 140 L 580 140 L 600 140 L 600 160 L 600 180 L 580 180 L 560 180 L 560 160 L 560 140 z M 140 200 L 160 200 L 180 200 L 180 220 L 180 240 L 160 240 L 140 240 L 140 220 L 140 200 z M 200 200 L 220 200 L 240 200 L 240 220 L 240 240 L 220 240 L 200 240 L 200 220 L 200 200 z M 380 200 L 400 200 L 420 200 L 420 220 L 420 240 L 400 240 L 380 240 L 380 220 L 380 200 z M 440 200 L 460 200 L 480 200 L 480 220 L 480 240 L 460 240 L 440 240 L 440 220 L 440 200 z M 720 200 L 720 220 L 720 240 L 740 240 L 740 220 L 740 200 L 720 200 z M 440 260 L 460 260 L 480 260 L 480 280 L 480 300 L 460 300 L 440 300 L 440 280 L 440 260 z M 440 320 L 460 320 L 480 320 L 480 340 L 480 360 L 460 360 L 440 360 L 440 340 L 440 320 z M 440 380 L 460 380 L 480 380 L 480 400 L 480 420 L 460 420 L 440 420 L 440 400 L 440 380 z M 140 440 L 160 440 L 180 440 L 180 460 L 180 480 L 160 480 L 140 480 L 140 460 L 140 440 z M 440 440 L 460 440 L 480 440 L 480 460 L 480 480 L 460 480 L 440 480 L 440 460 L 440 440 z M 200 500 L 220 500 L 240 500 L 240 520 L 240 540 L 220 540 L 200 540 L 200 520 L 200 500 z M 440 500 L 460 500 L 480 500 L 480 520 L 480 540 L 460 540 L 440 540 L 440 520 L 440 500 z M 140 560 L 160 560 L 180 560 L 180 580 L 180 600 L 160 600 L 140 600 L 140 580 L 140 560 z M 440 560 L 460 560 L 480 560 L 480 580 L 480 600 L 460 600 L 440 600 L 440 580 L 440 560 z M 500 560 L 520 560 L 540 560 L 540 580 L 540 600 L 520 600 L 500 600 L 500 580 L 500 560 z M 560 560 L 580 560 L 600 560 L 600 580 L 600 600 L 580 600 L 560 600 L 560 580 L 560 560 z M 680 560 L 700 560 L 720 560 L 720 580 L 720 600 L 700 600 L 680 600 L 680 580 L 680 560 z M 740 560 L 760 560 L 780 560 L 780 580 L 780 600 L 760 600 L 740 600 L 740 580 L 740 560 z M 620 600 L 640 600 L 640 620 L 640 640 L 660 640 L 660 660 L 680 660 L 680 640 L 680 620 L 700 620 L 720 620 L 720 640 L 720 660 L 700 660 L 680 660 L 680 680 L 680 700 L 700 700 L 700 720 L 700 740 L 700 760 L 720 760 L 720 780 L 740 780 L 740 800 L 760 800 L 780 800 L 780 820 L 780 840 L 760 840 L 740 840 L 720 840 L 700 840 L 680 840 L 660 840 L 640 840 L 620 840 L 600 840 L 580 840 L 560 840 L 540 840 L 520 840 L 500 840 L 500 820 L 500 800 L 520 800 L 520 780 L 540 780 L 540 760 L 560 760 L 560 740 L 560 720 L 560 700 L 580 700 L 580 680 L 580 660 L 560 660 L 560 640 L 560 620 L 580 620 L 600 620 L 600 640 L 620 640 L 620 620 L 620 600 z M 500 680 L 520 680 L 540 680 L 540 700 L 540 720 L 520 720 L 500 720 L 500 700 L 500 680 z M 740 680 L 760 680 L 780 680 L 780 700 L 780 720 L 760 720 L 740 720 L 740 700 L 740 680 z M 140 800 L 160 800 L 180 800 L 180 820 L 180 840 L 160 840 L 140 840 L 140 820 L 140 800 z M 440 800 L 460 800 L 480 800 L 480 820 L 480 840 L 460 840 L 440 840 L 440 820 L 440 800 z "
     style="fill:#ffffff" />
  <path
     id="rect3426"
     d="M 80 0 L 80 20 L 80 40 L 80 60 L 80 80 L 80 100 L 80 120 L 80 140 L 80 160 L 80 180 L 80 200 L 80 220 L 80 240 L 80 260 L 80 280 L 80 300 L 80 320 L 80 340 L 80 360 L 80 380 L 80 400 L 80 420 L 80 440 L 80 460 L 80 480 L 80 500 L 80 520 L 80 540 L 80 560 L 80 580 L 80 600 L 80 620 L 80 640 L 80 660 L 80 680 L 80 700 L 80 720 L 80 740 L 80 760 L 80 780 L 80 800 L 80 820 L 80 840 L 80 860 L 80 880 L 80 900 L 80 920 L 100 920 L 120 920 L 120 900 L 120 880 L 120 860 L 120 840 L 120 820 L 120 800 L 120 780 L 120 760 L 120 740 L 120 720 L 120 700 L 120 680 L 120 660 L 120 640 L 120 620 L 120 600 L 120 580 L 120 560 L 120 540 L 120 520 L 120 500 L 120 480 L 120 460 L 120 440 L 120 420 L 120 400 L 120 380 L 120 360 L 120 340 L 120 320 L 120 300 L 120 280 L 120 260 L 120 240 L 120 220 L 120 200 L 120 180 L 120 160 L 120 140 L 120 120 L 120 100 L 120 80 L 120 60 L 120 40 L 120 20 L 140 20 L 160 20 L 180 20 L 200 20 L 220 20 L 240 20 L 260 20 L 280 20 L 300 20 L 320 20 L 340 20 L 360 20 L 380 20 L 400 20 L 420 20 L 440 20 L 460 20 L 480 20 L 500 20 L 520 20 L 540 20 L 560 20 L 580 20 L 600 20 L 620 20 L 640 20 L 660 20 L 660 40 L 660 60 L 660 80 L 660 100 L 660 120 L 660 140 L 660 160 L 660 180 L 660 200 L 680 200 L 680 180 L 680 160 L 680 140 L 680 120 L 680 100 L 680 80 L 700 80 L 720 80 L 720 60 L 700 60 L 700 40 L 680 40 L 680 20 L 680 0 L 660 0 L 640 0 L 620 0 L 600 0 L 580 0 L 560 0 L 540 0 L 520 0 L 500 0 L 480 0 L 460 0 L 440 0 L 420 0 L 400 0 L 380 0 L 360 0 L 340 0 L 320 0 L 300 0 L 280 0 L 260 0 L 240 0 L 220 0 L 200 0 L 180 0 L 160 0 L 140 0 L 120 0 L 100 0 L 80 0 z M 720 80 L 720 100 L 720 120 L 740 120 L 740 140 L 760 140 L 780 140 L 780 120 L 760 120 L 760 100 L 740 100 L 740 80 L 720 80 z M 780 140 L 780 160 L 780 180 L 800 180 L 820 180 L 820 160 L 800 160 L 800 140 L 780 140 z M 680 200 L 680 220 L 680 240 L 700 240 L 720 240 L 720 220 L 720 200 L 700 200 L 680 200 z M 200 80 L 200 100 L 200 120 L 220 120 L 240 120 L 240 100 L 240 80 L 220 80 L 200 80 z M 320 80 L 320 100 L 320 120 L 340 120 L 360 120 L 360 100 L 360 80 L 340 80 L 320 80 z M 440 80 L 440 100 L 440 120 L 460 120 L 480 120 L 480 100 L 480 80 L 460 80 L 440 80 z M 560 80 L 560 100 L 560 120 L 580 120 L 600 120 L 600 100 L 600 80 L 580 80 L 560 80 z M 200 200 L 200 220 L 200 240 L 220 240 L 240 240 L 240 220 L 240 200 L 220 200 L 200 200 z M 320 200 L 320 220 L 320 240 L 340 240 L 360 240 L 360 220 L 360 200 L 340 200 L 320 200 z M 440 200 L 440 220 L 440 240 L 460 240 L 480 240 L 480 220 L 480 200 L 460 200 L 440 200 z M 560 200 L 560 220 L 560 240 L 580 240 L 600 240 L 600 220 L 600 200 L 580 200 L 560 200 z M 200 260 L 200 280 L 200 300 L 220 300 L 220 280 L 220 260 L 200 260 z M 380 260 L 380 280 L 380 300 L 400 300 L 420 300 L 420 280 L 420 260 L 400 260 L 380 260 z M 440 320 L 440 340 L 440 360 L 460 360 L 480 360 L 480 340 L 480 320 L 460 320 L 440 320 z M 500 320 L 500 340 L 500 360 L 520 360 L 520 340 L 520 320 L 500 320 z M 760 320 L 760 340 L 760 360 L 780 360 L 780 340 L 780 320 L 760 320 z M 200 440 L 200 460 L 200 480 L 220 480 L 220 460 L 220 440 L 200 440 z M 380 440 L 380 460 L 380 480 L 400 480 L 420 480 L 420 460 L 420 440 L 400 440 L 380 440 z M 440 440 L 440 460 L 440 480 L 460 480 L 480 480 L 480 460 L 480 440 L 460 440 L 440 440 z M 500 440 L 500 460 L 500 480 L 520 480 L 520 460 L 520 440 L 500 440 z M 760 440 L 760 460 L 760 480 L 780 480 L 780 460 L 780 440 L 760 440 z M 200 560 L 200 580 L 200 600 L 220 600 L 240 600 L 240 580 L 240 560 L 220 560 L 200 560 z M 440 560 L 440 580 L 440 600 L 460 600 L 480 600 L 480 580 L 480 560 L 460 560 L 440 560 z M 560 560 L 560 580 L 560 600 L 580 600 L 600 600 L 600 580 L 600 560 L 580 560 L 560 560 z M 680 560 L 680 580 L 680 600 L 700 600 L 720 600 L 720 580 L 720 560 L 700 560 L 680 560 z M 200 800 L 200 820 L 200 840 L 220 840 L 240 840 L 240 820 L 240 800 L 220 800 L 200 800 z M 440 800 L 440 820 L 440 840 L 460 840 L 480 840 L 480 820 L 480 800 L 460 800 L 440 800 z M 500 800 L 500 820 L 500 840 L 520 840 L 520 820 L 520 800 L 500 800 z M 740 800 L 740 820 L 740 840 L 760 840 L 780 840 L 780 820 L 780 800 L 760 800 L 740 800 z "
     style="fill:#808080" />
  <path
     id="rect3498"
     d="M 200 20 L 200 40 L 200 60 L 220 60 L 240 60 L 240 40 L 240 20 L 220 20 L 200 20 z M 320 20 L 320 40 L 320 60 L 340 60 L 360 60 L 360 40 L 360 20 L 340 20 L 320 20 z M 440 20 L 440 40 L 440 60 L 460 60 L 480 60 L 480 40 L 480 20 L 460 20 L 440 20 z M 560 20 L 560 40 L 560 60 L 580 60 L 600 60 L 600 40 L 600 20 L 580 20 L 560 20 z M 140 80 L 140 100 L 140 120 L 160 120 L 180 120 L 180 100 L 180 80 L 160 80 L 140 80 z M 260 80 L 260 100 L 260 120 L 280 120 L 300 120 L 300 100 L 300 80 L 280 80 L 260 80 z M 380 80 L 380 100 L 380 120 L 400 120 L 420 120 L 420 100 L 420 80 L 400 80 L 380 80 z M 500 80 L 500 100 L 500 120 L 520 120 L 540 120 L 540 100 L 540 80 L 520 80 L 500 80 z M 620 80 L 620 100 L 620 120 L 640 120 L 660 120 L 660 100 L 660 80 L 640 80 L 620 80 z M 680 80 L 680 100 L 680 120 L 700 120 L 720 120 L 720 100 L 720 80 L 700 80 L 680 80 z M 720 120 L 720 140 L 740 140 L 740 120 L 720 120 z M 740 140 L 740 160 L 740 180 L 760 180 L 780 180 L 780 160 L 780 140 L 760 140 L 740 140 z M 200 140 L 200 160 L 200 180 L 220 180 L 240 180 L 240 160 L 240 140 L 220 140 L 200 140 z M 320 140 L 320 160 L 320 180 L 340 180 L 360 180 L 360 160 L 360 140 L 340 140 L 320 140 z M 440 140 L 440 160 L 440 180 L 460 180 L 480 180 L 480 160 L 480 140 L 460 140 L 440 140 z M 560 140 L 560 160 L 560 180 L 580 180 L 600 180 L 600 160 L 600 140 L 580 140 L 560 140 z M 140 200 L 140 220 L 140 240 L 160 240 L 180 240 L 180 220 L 180 200 L 160 200 L 140 200 z M 260 200 L 260 220 L 260 240 L 280 240 L 300 240 L 300 220 L 300 200 L 280 200 L 260 200 z M 380 200 L 380 220 L 380 240 L 400 240 L 420 240 L 420 220 L 420 200 L 400 200 L 380 200 z M 500 200 L 500 220 L 500 240 L 520 240 L 540 240 L 540 220 L 540 200 L 520 200 L 500 200 z M 620 200 L 620 220 L 620 240 L 640 240 L 660 240 L 660 220 L 660 200 L 640 200 L 620 200 z M 740 200 L 740 220 L 740 240 L 760 240 L 780 240 L 780 220 L 780 200 L 760 200 L 740 200 z M 800 200 L 800 220 L 800 240 L 800 260 L 800 280 L 800 300 L 800 320 L 800 340 L 800 360 L 800 380 L 800 400 L 800 420 L 800 440 L 800 460 L 800 480 L 800 500 L 800 520 L 800 540 L 800 560 L 800 580 L 800 600 L 800 620 L 800 640 L 800 660 L 800 680 L 800 700 L 800 720 L 800 740 L 800 760 L 800 780 L 800 800 L 800 820 L 800 840 L 800 860 L 800 880 L 800 900 L 780 900 L 760 900 L 740 900 L 720 900 L 720 880 L 720 860 L 700 860 L 680 860 L 680 880 L 680 900 L 660 900 L 640 900 L 620 900 L 600 900 L 600 880 L 600 860 L 580 860 L 560 860 L 560 880 L 560 900 L 540 900 L 520 900 L 500 900 L 480 900 L 480 880 L 480 860 L 460 860 L 440 860 L 440 880 L 440 900 L 420 900 L 400 900 L 380 900 L 360 900 L 360 880 L 360 860 L 340 860 L 320 860 L 320 880 L 320 900 L 300 900 L 280 900 L 260 900 L 240 900 L 240 880 L 240 860 L 220 860 L 200 860 L 200 880 L 200 900 L 180 900 L 160 900 L 140 900 L 120 900 L 120 920 L 140 920 L 160 920 L 180 920 L 200 920 L 220 920 L 240 920 L 260 920 L 280 920 L 300 920 L 320 920 L 340 920 L 360 920 L 380 920 L 400 920 L 420 920 L 440 920 L 460 920 L 480 920 L 500 920 L 520 920 L 540 920 L 560 920 L 580 920 L 600 920 L 620 920 L 640 920 L 660 920 L 680 920 L 700 920 L 720 920 L 740 920 L 760 920 L 780 920 L 800 920 L 820 920 L 840 920 L 840 900 L 840 880 L 840 860 L 840 840 L 840 820 L 840 800 L 840 780 L 840 760 L 840 740 L 840 720 L 840 700 L 840 680 L 840 660 L 840 640 L 840 620 L 840 600 L 840 580 L 840 560 L 840 540 L 840 520 L 840 500 L 840 480 L 840 460 L 840 440 L 840 420 L 840 400 L 840 380 L 840 360 L 840 340 L 840 320 L 840 300 L 840 280 L 840 260 L 840 240 L 840 220 L 840 200 L 820 200 L 800 200 z M 440 260 L 440 280 L 440 300 L 460 300 L 480 300 L 480 280 L 480 260 L 460 260 L 440 260 z M 500 260 L 500 280 L 500 300 L 520 300 L 520 280 L 520 260 L 500 260 z M 760 260 L 760 280 L 760 300 L 780 300 L 780 280 L 780 260 L 760 260 z M 140 320 L 140 340 L 140 360 L 160 360 L 180 360 L 180 340 L 180 320 L 160 320 L 140 320 z M 440 380 L 440 400 L 440 420 L 460 420 L 480 420 L 480 400 L 480 380 L 460 380 L 440 380 z M 500 380 L 500 400 L 500 420 L 520 420 L 520 400 L 520 380 L 500 380 z M 760 380 L 760 400 L 760 420 L 780 420 L 780 400 L 780 380 L 760 380 z M 140 440 L 140 460 L 140 480 L 160 480 L 180 480 L 180 460 L 180 440 L 160 440 L 140 440 z M 200 500 L 200 520 L 200 540 L 220 540 L 240 540 L 240 520 L 240 500 L 220 500 L 200 500 z M 320 500 L 320 520 L 320 540 L 340 540 L 360 540 L 360 520 L 360 500 L 340 500 L 320 500 z M 440 500 L 440 520 L 440 540 L 460 540 L 480 540 L 480 520 L 480 500 L 460 500 L 440 500 z M 560 500 L 560 520 L 560 540 L 580 540 L 600 540 L 600 520 L 600 500 L 580 500 L 560 500 z M 680 500 L 680 520 L 680 540 L 700 540 L 720 540 L 720 520 L 720 500 L 700 500 L 680 500 z M 140 560 L 140 580 L 140 600 L 160 600 L 180 600 L 180 580 L 180 560 L 160 560 L 140 560 z M 380 560 L 380 580 L 380 600 L 400 600 L 420 600 L 420 580 L 420 560 L 400 560 L 380 560 z M 500 560 L 500 580 L 500 600 L 520 600 L 540 600 L 540 580 L 540 560 L 520 560 L 500 560 z M 740 560 L 740 580 L 740 600 L 760 600 L 780 600 L 780 580 L 780 560 L 760 560 L 740 560 z M 440 620 L 440 640 L 440 660 L 460 660 L 480 660 L 480 640 L 480 620 L 460 620 L 440 620 z M 560 620 L 560 640 L 560 660 L 580 660 L 600 660 L 600 640 L 600 620 L 580 620 L 560 620 z M 680 620 L 680 640 L 680 660 L 700 660 L 720 660 L 720 640 L 720 620 L 700 620 L 680 620 z M 500 680 L 500 700 L 500 720 L 520 720 L 540 720 L 540 700 L 540 680 L 520 680 L 500 680 z M 740 680 L 740 700 L 740 720 L 760 720 L 780 720 L 780 700 L 780 680 L 760 680 L 740 680 z M 440 740 L 440 760 L 440 780 L 460 780 L 480 780 L 480 760 L 480 740 L 460 740 L 440 740 z M 140 800 L 140 820 L 140 840 L 160 840 L 180 840 L 180 820 L 180 800 L 160 800 L 140 800 z M 380 800 L 380 820 L 380 840 L 400 840 L 420 840 L 420 820 L 420 800 L 400 800 L 380 800 z "
     style="fill:#c0c0c0" />
  <path
     id="rect3656"
     d="M 680 20 L 680 40 L 700 40 L 700 20 L 680 20 z M 700 40 L 700 60 L 720 60 L 720 40 L 700 40 z M 720 60 L 720 80 L 740 80 L 740 60 L 720 60 z M 740 80 L 740 100 L 760 100 L 760 80 L 740 80 z M 760 100 L 760 120 L 780 120 L 780 100 L 760 100 z M 780 120 L 780 140 L 800 140 L 800 120 L 780 120 z M 800 140 L 800 160 L 820 160 L 820 140 L 800 140 z M 820 160 L 820 180 L 800 180 L 780 180 L 760 180 L 740 180 L 720 180 L 700 180 L 680 180 L 680 200 L 700 200 L 720 200 L 740 200 L 760 200 L 780 200 L 800 200 L 820 200 L 840 200 L 840 220 L 840 240 L 840 260 L 840 280 L 840 300 L 840 320 L 840 340 L 840 360 L 840 380 L 840 400 L 840 420 L 840 440 L 840 460 L 840 480 L 840 500 L 840 520 L 840 540 L 840 560 L 840 580 L 840 600 L 840 620 L 840 640 L 840 660 L 840 680 L 840 700 L 840 720 L 840 740 L 840 760 L 840 780 L 840 800 L 840 820 L 840 840 L 840 860 L 840 880 L 840 900 L 840 920 L 820 920 L 800 920 L 780 920 L 760 920 L 740 920 L 720 920 L 700 920 L 680 920 L 660 920 L 640 920 L 620 920 L 600 920 L 580 920 L 560 920 L 540 920 L 520 920 L 500 920 L 480 920 L 460 920 L 440 920 L 420 920 L 400 920 L 380 920 L 360 920 L 340 920 L 320 920 L 300 920 L 280 920 L 260 920 L 240 920 L 220 920 L 200 920 L 180 920 L 160 920 L 140 920 L 120 920 L 100 920 L 80 920 L 80 940 L 80 960 L 100 960 L 120 960 L 140 960 L 160 960 L 180 960 L 200 960 L 220 960 L 240 960 L 260 960 L 280 960 L 300 960 L 320 960 L 340 960 L 360 960 L 380 960 L 400 960 L 420 960 L 440 960 L 460 960 L 480 960 L 500 960 L 520 960 L 540 960 L 560 960 L 580 960 L 600 960 L 620 960 L 640 960 L 660 960 L 680 960 L 700 960 L 720 960 L 740 960 L 760 960 L 780 960 L 800 960 L 820 960 L 840 960 L 860 960 L 860 940 L 860 920 L 860 900 L 860 880 L 860 860 L 860 840 L 860 820 L 860 800 L 860 780 L 860 760 L 860 740 L 860 720 L 860 700 L 860 680 L 860 660 L 860 640 L 860 620 L 860 600 L 860 580 L 860 560 L 860 540 L 860 520 L 860 500 L 860 480 L 860 460 L 860 440 L 860 420 L 860 400 L 860 380 L 860 360 L 860 340 L 860 320 L 860 300 L 860 280 L 860 260 L 860 240 L 860 220 L 860 200 L 860 180 L 840 180 L 840 160 L 820 160 z M 260 240 L 260 260 L 280 260 L 300 260 L 320 260 L 340 260 L 340 280 L 360 280 L 360 300 L 380 300 L 380 280 L 380 260 L 360 260 L 360 240 L 340 240 L 320 240 L 300 240 L 280 240 L 260 240 z M 380 300 L 380 320 L 400 320 L 400 340 L 400 360 L 400 380 L 400 400 L 400 420 L 380 420 L 380 440 L 400 440 L 420 440 L 420 420 L 420 400 L 420 380 L 420 360 L 420 340 L 420 320 L 420 300 L 400 300 L 380 300 z M 380 440 L 360 440 L 360 460 L 340 460 L 340 480 L 320 480 L 300 480 L 280 480 L 260 480 L 260 500 L 280 500 L 300 500 L 320 500 L 340 500 L 360 500 L 360 480 L 380 480 L 380 460 L 380 440 z M 260 480 L 260 460 L 240 460 L 240 440 L 220 440 L 220 460 L 220 480 L 240 480 L 260 480 z M 220 440 L 220 420 L 200 420 L 200 440 L 220 440 z M 200 420 L 200 400 L 200 380 L 200 360 L 200 340 L 200 320 L 180 320 L 180 340 L 180 360 L 180 380 L 180 400 L 180 420 L 200 420 z M 200 320 L 220 320 L 220 300 L 200 300 L 200 320 z M 220 300 L 240 300 L 240 280 L 260 280 L 260 260 L 240 260 L 220 260 L 220 280 L 220 300 z M 520 240 L 520 260 L 520 280 L 520 300 L 520 320 L 520 340 L 520 360 L 520 380 L 520 400 L 520 420 L 520 440 L 520 460 L 520 480 L 520 500 L 540 500 L 560 500 L 580 500 L 600 500 L 620 500 L 640 500 L 660 500 L 680 500 L 700 500 L 720 500 L 740 500 L 760 500 L 760 480 L 760 460 L 760 440 L 760 420 L 760 400 L 760 380 L 760 360 L 760 340 L 760 320 L 760 300 L 760 280 L 760 260 L 760 240 L 740 240 L 720 240 L 700 240 L 680 240 L 660 240 L 640 240 L 620 240 L 600 240 L 580 240 L 560 240 L 540 240 L 520 240 z M 540 260 L 560 260 L 580 260 L 600 260 L 620 260 L 640 260 L 660 260 L 680 260 L 700 260 L 720 260 L 740 260 L 740 280 L 740 300 L 740 320 L 740 340 L 740 360 L 740 380 L 740 400 L 740 420 L 740 440 L 740 460 L 740 480 L 720 480 L 700 480 L 680 480 L 660 480 L 640 480 L 620 480 L 600 480 L 580 480 L 560 480 L 540 480 L 540 460 L 540 440 L 540 420 L 540 400 L 540 380 L 540 360 L 540 340 L 540 320 L 540 300 L 540 280 L 540 260 z M 300 540 L 300 560 L 320 560 L 320 540 L 300 540 z M 320 560 L 320 580 L 340 580 L 340 560 L 320 560 z M 340 580 L 340 600 L 360 600 L 360 580 L 340 580 z M 360 600 L 360 620 L 380 620 L 380 600 L 360 600 z M 380 620 L 380 640 L 400 640 L 400 620 L 380 620 z M 400 640 L 400 660 L 420 660 L 420 640 L 400 640 z M 420 660 L 420 680 L 440 680 L 440 660 L 420 660 z M 440 680 L 440 700 L 440 720 L 460 720 L 460 700 L 460 680 L 440 680 z M 440 720 L 420 720 L 420 740 L 440 740 L 440 720 z M 420 740 L 400 740 L 400 760 L 420 760 L 420 740 z M 400 760 L 380 760 L 380 780 L 400 780 L 400 760 z M 380 780 L 360 780 L 360 800 L 380 800 L 380 780 z M 360 800 L 340 800 L 340 820 L 360 820 L 360 800 z M 340 820 L 320 820 L 320 840 L 340 840 L 340 820 z M 320 840 L 300 840 L 300 860 L 320 860 L 320 840 z M 300 840 L 300 820 L 280 820 L 280 840 L 300 840 z M 280 820 L 280 800 L 260 800 L 260 820 L 280 820 z M 260 800 L 260 780 L 240 780 L 240 800 L 260 800 z M 240 780 L 240 760 L 220 760 L 220 780 L 240 780 z M 220 760 L 220 740 L 200 740 L 200 760 L 220 760 z M 200 740 L 200 720 L 180 720 L 180 740 L 200 740 z M 180 720 L 180 700 L 180 680 L 160 680 L 160 700 L 160 720 L 180 720 z M 180 680 L 200 680 L 200 660 L 180 660 L 180 680 z M 200 660 L 220 660 L 220 640 L 200 640 L 200 660 z M 220 640 L 240 640 L 240 620 L 220 620 L 220 640 z M 240 620 L 260 620 L 260 600 L 240 600 L 240 620 z M 260 600 L 280 600 L 280 580 L 260 580 L 260 600 z M 280 580 L 300 580 L 300 560 L 280 560 L 280 580 z M 620 600 L 620 620 L 620 640 L 640 640 L 640 620 L 640 600 L 620 600 z M 640 640 L 640 660 L 660 660 L 660 640 L 640 640 z M 660 660 L 660 680 L 660 700 L 680 700 L 680 680 L 680 660 L 660 660 z M 680 700 L 680 720 L 680 740 L 680 760 L 700 760 L 700 740 L 700 720 L 700 700 L 680 700 z M 700 760 L 700 780 L 720 780 L 720 760 L 700 760 z M 720 780 L 720 800 L 720 820 L 700 820 L 680 820 L 660 820 L 640 820 L 620 820 L 600 820 L 580 820 L 560 820 L 540 820 L 540 800 L 540 780 L 520 780 L 520 800 L 520 820 L 520 840 L 540 840 L 560 840 L 580 840 L 600 840 L 620 840 L 640 840 L 660 840 L 680 840 L 700 840 L 720 840 L 740 840 L 740 820 L 740 800 L 740 780 L 720 780 z M 540 780 L 560 780 L 560 760 L 540 760 L 540 780 z M 560 760 L 580 760 L 580 740 L 580 720 L 580 700 L 560 700 L 560 720 L 560 740 L 560 760 z M 580 700 L 600 700 L 600 680 L 600 660 L 580 660 L 580 680 L 580 700 z M 600 660 L 620 660 L 620 640 L 600 640 L 600 660 z "
     style="fill:#000000" />
</svg>
