<?xml version="1.0" encoding="UTF-8" standalone="no"?>
<svg
   xmlns:dc="http://purl.org/dc/elements/1.1/"
   xmlns:cc="http://creativecommons.org/ns#"
   xmlns:rdf="http://www.w3.org/1999/02/22-rdf-syntax-ns#"
   xmlns:svg="http://www.w3.org/2000/svg"
   xmlns="http://www.w3.org/2000/svg"
   height="640px"
   version="1.1"
   width="640px"
   id="svg1790">
  <metadata
     id="metadata1794">
    <rdf:RDF>
      <cc:Work
         rdf:about="">
        <dc:format>image/svg+xml</dc:format>
        <dc:type
           rdf:resource="http://purl.org/dc/dcmitype/StillImage" />
      </cc:Work>
    </rdf:RDF>
  </metadata>
  <defs
     id="defs2" />
  <path
     id="rect256"
     d="M 140 0 L 140 20 L 160 20 L 180 20 L 200 20 L 220 20 L 240 20 L 260 20 L 280 20 L 300 20 L 320 20 L 340 20 L 360 20 L 380 20 L 400 20 L 420 20 L 440 20 L 460 20 L 480 20 L 500 20 L 520 20 L 540 20 L 560 20 L 580 20 L 600 20 L 600 40 L 580 40 L 580 60 L 580 80 L 580 100 L 600 100 L 600 80 L 620 80 L 620 60 L 620 40 L 620 20 L 620 0 L 600 0 L 580 0 L 560 0 L 540 0 L 520 0 L 500 0 L 480 0 L 460 0 L 440 0 L 420 0 L 400 0 L 380 0 L 360 0 L 340 0 L 320 0 L 300 0 L 280 0 L 260 0 L 240 0 L 220 0 L 200 0 L 180 0 L 160 0 L 140 0 z M 140 20 L 120 20 L 120 40 L 120 60 L 120 80 L 120 100 L 140 100 L 140 80 L 140 60 L 140 40 L 140 20 z "
     style="fill:#808000" />
  <path
     id="rect870"
     d="M 200 60 L 200 80 L 220 80 L 220 60 L 200 60 z M 400 60 L 400 80 L 420 80 L 420 60 L 400 60 z M 60 120 L 60 140 L 80 140 L 80 120 L 60 120 z M 480 160 L 480 180 L 500 180 L 500 160 L 480 160 z M 380 300 L 380 320 L 400 320 L 400 300 L 380 300 z "
     style="fill:#800000" />
  <path
     id="rect1006"
     d="M 140 20 L 140 40 L 160 40 L 160 20 L 140 20 z M 180 20 L 180 40 L 200 40 L 200 20 L 180 20 z M 220 20 L 220 40 L 240 40 L 240 20 L 220 20 z M 260 20 L 260 40 L 280 40 L 280 20 L 260 20 z M 300 20 L 300 40 L 320 40 L 320 20 L 300 20 z M 340 20 L 340 40 L 360 40 L 360 20 L 340 20 z M 380 20 L 380 40 L 400 40 L 400 20 L 380 20 z M 420 20 L 420 40 L 440 40 L 440 20 L 420 20 z M 460 20 L 460 40 L 480 40 L 480 20 L 460 20 z M 500 20 L 500 40 L 520 40 L 520 20 L 500 20 z M 540 20 L 540 40 L 560 40 L 560 20 L 540 20 z M 580 20 L 580 40 L 600 40 L 600 20 L 580 20 z M 140 60 L 140 80 L 160 80 L 160 60 L 140 60 z M 160 80 L 160 100 L 180 100 L 180 80 L 160 80 z M 260 60 L 260 80 L 280 80 L 280 60 L 260 60 z M 260 80 L 240 80 L 240 100 L 260 100 L 260 80 z M 300 60 L 300 80 L 320 80 L 320 60 L 300 60 z M 340 60 L 340 80 L 360 80 L 360 60 L 340 60 z M 360 80 L 360 100 L 380 100 L 380 80 L 360 80 z M 460 60 L 460 80 L 480 80 L 480 60 L 460 60 z M 480 80 L 480 100 L 500 100 L 500 80 L 480 80 z M 500 80 L 520 80 L 520 60 L 500 60 L 500 80 z M 520 80 L 520 100 L 540 100 L 540 80 L 520 80 z M 540 80 L 560 80 L 560 60 L 540 60 L 540 80 z M 560 80 L 560 100 L 580 100 L 580 80 L 560 80 z M 460 80 L 440 80 L 440 100 L 460 100 L 460 80 z M 300 100 L 300 120 L 320 120 L 320 140 L 340 140 L 360 140 L 360 120 L 340 120 L 340 100 L 320 100 L 300 100 z M 540 340 L 540 360 L 560 360 L 560 340 L 540 340 z "
     style="fill:#ffff00" />
  <path
     id="rect1214"
     d="M 40 220 L 40 240 L 60 240 L 60 260 L 60 280 L 60 300 L 60 320 L 60 340 L 60 360 L 60 380 L 60 400 L 60 420 L 60 440 L 80 440 L 100 440 L 120 440 L 120 420 L 120 400 L 140 400 L 140 380 L 140 360 L 120 360 L 120 380 L 100 380 L 100 360 L 100 340 L 100 320 L 100 300 L 100 280 L 100 260 L 100 240 L 120 240 L 120 220 L 100 220 L 80 220 L 60 220 L 40 220 z M 140 360 L 160 360 L 160 340 L 160 320 L 140 320 L 140 340 L 140 360 z M 160 320 L 180 320 L 180 340 L 180 360 L 180 380 L 180 400 L 180 420 L 180 440 L 200 440 L 220 440 L 240 440 L 240 420 L 240 400 L 260 400 L 260 380 L 260 360 L 240 360 L 240 380 L 220 380 L 220 360 L 220 340 L 220 320 L 220 300 L 220 280 L 220 260 L 220 240 L 220 220 L 200 220 L 200 240 L 180 240 L 180 260 L 180 280 L 160 280 L 160 300 L 160 320 z M 260 360 L 280 360 L 280 340 L 280 320 L 260 320 L 260 340 L 260 360 z M 280 320 L 300 320 L 300 300 L 300 280 L 280 280 L 280 300 L 280 320 z M 300 280 L 320 280 L 320 260 L 320 240 L 340 240 L 360 240 L 360 220 L 340 220 L 320 220 L 300 220 L 280 220 L 280 240 L 300 240 L 300 260 L 300 280 z "
     style="fill:#00ffff" />
  <path
     id="rect1520"
     d="M 140 40 L 140 60 L 160 60 L 180 60 L 200 60 L 200 40 L 180 40 L 160 40 L 140 40 z M 220 40 L 220 60 L 240 60 L 260 60 L 280 60 L 300 60 L 320 60 L 340 60 L 360 60 L 380 60 L 400 60 L 400 40 L 380 40 L 360 40 L 340 40 L 320 40 L 300 40 L 280 40 L 260 40 L 240 40 L 220 40 z M 420 40 L 420 60 L 440 60 L 460 60 L 480 60 L 500 60 L 520 60 L 540 60 L 560 60 L 580 60 L 580 40 L 560 40 L 540 40 L 520 40 L 500 40 L 480 40 L 460 40 L 440 40 L 420 40 z M 140 100 L 140 120 L 140 140 L 140 160 L 140 180 L 140 200 L 140 220 L 140 240 L 140 260 L 140 280 L 160 280 L 160 260 L 160 240 L 180 240 L 180 220 L 180 200 L 200 200 L 220 200 L 240 200 L 240 220 L 240 240 L 240 260 L 240 280 L 240 300 L 240 320 L 260 320 L 260 300 L 260 280 L 280 280 L 280 260 L 280 240 L 260 240 L 260 220 L 260 200 L 280 200 L 300 200 L 320 200 L 340 200 L 360 200 L 360 180 L 340 180 L 340 160 L 320 160 L 320 140 L 300 140 L 300 120 L 280 120 L 280 100 L 260 100 L 240 100 L 220 100 L 220 120 L 200 120 L 200 100 L 180 100 L 180 120 L 160 120 L 160 100 L 140 100 z M 380 100 L 380 120 L 380 140 L 400 140 L 400 160 L 420 160 L 420 180 L 440 180 L 440 200 L 460 200 L 460 220 L 480 220 L 480 240 L 500 240 L 500 260 L 520 260 L 520 280 L 540 280 L 540 300 L 560 300 L 560 320 L 580 320 L 580 300 L 580 280 L 580 260 L 580 240 L 580 220 L 580 200 L 580 180 L 580 160 L 580 140 L 580 120 L 560 120 L 560 100 L 540 100 L 540 120 L 520 120 L 520 100 L 500 100 L 500 120 L 480 120 L 480 100 L 460 100 L 460 120 L 440 120 L 440 100 L 420 100 L 420 120 L 400 120 L 400 100 L 380 100 z M 480 140 L 500 140 L 500 160 L 520 160 L 520 180 L 500 180 L 500 200 L 480 200 L 480 180 L 460 180 L 460 160 L 480 160 L 480 140 z M 380 220 L 380 240 L 360 240 L 360 260 L 340 260 L 340 280 L 320 280 L 320 300 L 320 320 L 300 320 L 300 340 L 300 360 L 280 360 L 280 380 L 280 400 L 260 400 L 260 420 L 260 440 L 240 440 L 240 460 L 220 460 L 200 460 L 180 460 L 160 460 L 160 440 L 160 420 L 160 400 L 140 400 L 140 420 L 140 440 L 140 460 L 140 480 L 120 480 L 120 500 L 120 520 L 100 520 L 100 540 L 120 540 L 140 540 L 160 540 L 180 540 L 200 540 L 220 540 L 240 540 L 260 540 L 280 540 L 300 540 L 320 540 L 340 540 L 360 540 L 380 540 L 400 540 L 420 540 L 440 540 L 460 540 L 480 540 L 500 540 L 520 540 L 540 540 L 540 520 L 560 520 L 560 500 L 560 480 L 560 460 L 580 460 L 580 440 L 580 420 L 580 400 L 580 380 L 560 380 L 540 380 L 540 360 L 520 360 L 520 340 L 500 340 L 500 320 L 480 320 L 480 300 L 460 300 L 460 280 L 440 280 L 440 260 L 420 260 L 420 240 L 400 240 L 400 220 L 380 220 z M 380 280 L 400 280 L 400 300 L 420 300 L 420 320 L 400 320 L 400 340 L 380 340 L 380 320 L 360 320 L 360 300 L 380 300 L 380 280 z "
     style="fill:#ffffff" />
  <path
     id="rect1740"
     d="M 160 20 L 160 40 L 180 40 L 180 20 L 160 20 z M 200 20 L 200 40 L 220 40 L 220 20 L 200 20 z M 240 20 L 240 40 L 260 40 L 260 20 L 240 20 z M 280 20 L 280 40 L 300 40 L 300 20 L 280 20 z M 320 20 L 320 40 L 340 40 L 340 20 L 320 20 z M 360 20 L 360 40 L 380 40 L 380 20 L 360 20 z M 400 20 L 400 40 L 420 40 L 420 20 L 400 20 z M 440 20 L 440 40 L 460 40 L 460 20 L 440 20 z M 480 20 L 480 40 L 500 40 L 500 20 L 480 20 z M 520 20 L 520 40 L 540 40 L 540 20 L 520 20 z M 560 20 L 560 40 L 580 40 L 580 20 L 560 20 z M 160 60 L 160 80 L 180 80 L 180 60 L 160 60 z M 180 80 L 180 100 L 200 100 L 200 80 L 180 80 z M 160 80 L 140 80 L 140 100 L 160 100 L 160 80 z M 240 60 L 240 80 L 260 80 L 260 60 L 240 60 z M 260 80 L 260 100 L 280 100 L 280 80 L 260 80 z M 280 80 L 300 80 L 300 60 L 280 60 L 280 80 z M 240 80 L 220 80 L 220 100 L 240 100 L 240 80 z M 320 60 L 320 80 L 340 80 L 340 60 L 320 60 z M 340 80 L 340 100 L 360 100 L 360 80 L 340 80 z M 360 80 L 380 80 L 380 60 L 360 60 L 360 80 z M 380 80 L 380 100 L 400 100 L 400 80 L 380 80 z M 380 100 L 360 100 L 360 120 L 380 120 L 380 100 z M 440 60 L 440 80 L 460 80 L 460 60 L 440 60 z M 460 80 L 460 100 L 480 100 L 480 80 L 460 80 z M 480 80 L 500 80 L 500 60 L 480 60 L 480 80 z M 500 80 L 500 100 L 520 100 L 520 80 L 500 80 z M 520 80 L 540 80 L 540 60 L 520 60 L 520 80 z M 540 80 L 540 100 L 560 100 L 560 80 L 540 80 z M 560 80 L 580 80 L 580 60 L 560 60 L 560 80 z M 440 80 L 420 80 L 420 100 L 440 100 L 440 80 z M 120 240 L 120 260 L 120 280 L 120 300 L 120 320 L 140 320 L 140 300 L 140 280 L 140 260 L 140 240 L 120 240 z M 580 460 L 580 480 L 580 500 L 580 520 L 560 520 L 560 540 L 560 560 L 540 560 L 520 560 L 500 560 L 480 560 L 460 560 L 440 560 L 420 560 L 400 560 L 380 560 L 360 560 L 340 560 L 320 560 L 300 560 L 280 560 L 260 560 L 240 560 L 220 560 L 200 560 L 180 560 L 160 560 L 140 560 L 120 560 L 120 580 L 140 580 L 160 580 L 180 580 L 200 580 L 220 580 L 240 580 L 260 580 L 280 580 L 300 580 L 320 580 L 340 580 L 360 580 L 380 580 L 400 580 L 420 580 L 440 580 L 460 580 L 480 580 L 500 580 L 520 580 L 540 580 L 560 580 L 580 580 L 580 560 L 580 540 L 600 540 L 600 520 L 600 500 L 600 480 L 600 460 L 580 460 z M 580 580 L 580 600 L 560 600 L 540 600 L 520 600 L 500 600 L 480 600 L 460 600 L 440 600 L 420 600 L 400 600 L 380 600 L 360 600 L 340 600 L 320 600 L 300 600 L 280 600 L 260 600 L 240 600 L 220 600 L 200 600 L 180 600 L 160 600 L 160 620 L 180 620 L 200 620 L 220 620 L 240 620 L 260 620 L 280 620 L 300 620 L 320 620 L 340 620 L 360 620 L 380 620 L 400 620 L 420 620 L 440 620 L 460 620 L 480 620 L 500 620 L 520 620 L 540 620 L 560 620 L 580 620 L 600 620 L 600 600 L 600 580 L 580 580 z "
     style="fill:#c0c0c0" />
  <path
     id="rect1742"
     d="M 620 0 L 620 20 L 620 40 L 620 60 L 620 80 L 620 100 L 620 120 L 620 140 L 620 160 L 620 180 L 620 200 L 620 220 L 620 240 L 620 260 L 620 280 L 620 300 L 620 320 L 620 340 L 620 360 L 620 380 L 620 400 L 620 420 L 620 440 L 620 460 L 620 480 L 620 500 L 620 520 L 620 540 L 620 560 L 620 580 L 620 600 L 640 600 L 640 580 L 640 560 L 640 540 L 640 520 L 640 500 L 640 480 L 640 460 L 640 440 L 640 420 L 640 400 L 640 380 L 640 360 L 640 340 L 640 320 L 640 300 L 640 280 L 640 260 L 640 240 L 640 220 L 640 200 L 640 180 L 640 160 L 640 140 L 640 120 L 640 100 L 640 80 L 640 60 L 640 40 L 640 20 L 640 0 L 620 0 z M 620 600 L 600 600 L 600 620 L 620 620 L 620 600 z M 300 80 L 300 100 L 320 100 L 340 100 L 340 80 L 320 80 L 300 80 z M 340 100 L 340 120 L 360 120 L 360 100 L 340 100 z M 360 120 L 360 140 L 340 140 L 320 140 L 320 160 L 340 160 L 340 180 L 360 180 L 360 200 L 380 200 L 380 220 L 400 220 L 400 240 L 420 240 L 420 260 L 440 260 L 440 280 L 460 280 L 460 300 L 480 300 L 480 320 L 500 320 L 500 340 L 520 340 L 520 360 L 540 360 L 540 340 L 560 340 L 560 360 L 540 360 L 540 380 L 560 380 L 580 380 L 580 360 L 580 340 L 580 320 L 560 320 L 560 300 L 540 300 L 540 280 L 520 280 L 520 260 L 500 260 L 500 240 L 480 240 L 480 220 L 460 220 L 460 200 L 440 200 L 440 180 L 420 180 L 420 160 L 400 160 L 400 140 L 380 140 L 380 120 L 360 120 z M 380 220 L 360 220 L 360 240 L 380 240 L 380 220 z M 360 220 L 360 200 L 340 200 L 320 200 L 300 200 L 280 200 L 260 200 L 260 220 L 260 240 L 280 240 L 280 220 L 300 220 L 320 220 L 340 220 L 360 220 z M 280 240 L 280 260 L 280 280 L 300 280 L 300 260 L 300 240 L 280 240 z M 300 280 L 300 300 L 300 320 L 320 320 L 320 300 L 320 280 L 300 280 z M 320 280 L 340 280 L 340 260 L 340 240 L 320 240 L 320 260 L 320 280 z M 300 320 L 280 320 L 280 340 L 280 360 L 300 360 L 300 340 L 300 320 z M 280 360 L 260 360 L 260 380 L 260 400 L 280 400 L 280 380 L 280 360 z M 260 400 L 240 400 L 240 420 L 240 440 L 260 440 L 260 420 L 260 400 z M 240 440 L 220 440 L 200 440 L 180 440 L 180 420 L 180 400 L 180 380 L 180 360 L 180 340 L 180 320 L 160 320 L 160 340 L 160 360 L 140 360 L 140 380 L 140 400 L 160 400 L 160 420 L 160 440 L 160 460 L 180 460 L 200 460 L 220 460 L 240 460 L 240 440 z M 140 400 L 120 400 L 120 420 L 120 440 L 140 440 L 140 420 L 140 400 z M 120 440 L 100 440 L 80 440 L 60 440 L 60 420 L 60 400 L 60 380 L 60 360 L 60 340 L 60 320 L 60 300 L 60 280 L 60 260 L 60 240 L 40 240 L 40 260 L 40 280 L 40 300 L 40 320 L 40 340 L 40 360 L 40 380 L 40 400 L 40 420 L 40 440 L 40 460 L 60 460 L 80 460 L 100 460 L 120 460 L 120 440 z M 40 240 L 40 220 L 60 220 L 80 220 L 100 220 L 120 220 L 120 240 L 140 240 L 140 220 L 140 200 L 120 200 L 100 200 L 80 200 L 60 200 L 40 200 L 20 200 L 20 220 L 20 240 L 40 240 z M 120 240 L 100 240 L 100 260 L 100 280 L 100 300 L 100 320 L 100 340 L 100 360 L 100 380 L 120 380 L 120 360 L 140 360 L 140 340 L 140 320 L 120 320 L 120 300 L 120 280 L 120 260 L 120 240 z M 140 320 L 160 320 L 160 300 L 160 280 L 140 280 L 140 300 L 140 320 z M 160 280 L 180 280 L 180 260 L 180 240 L 160 240 L 160 260 L 160 280 z M 180 240 L 200 240 L 200 220 L 220 220 L 220 240 L 220 260 L 220 280 L 220 300 L 220 320 L 220 340 L 220 360 L 220 380 L 240 380 L 240 360 L 260 360 L 260 340 L 260 320 L 240 320 L 240 300 L 240 280 L 240 260 L 240 240 L 240 220 L 240 200 L 220 200 L 200 200 L 180 200 L 180 220 L 180 240 z M 260 320 L 280 320 L 280 300 L 280 280 L 260 280 L 260 300 L 260 320 z M 320 140 L 320 120 L 300 120 L 300 140 L 320 140 z M 300 120 L 300 100 L 280 100 L 280 120 L 300 120 z "
     style="fill:#000000" />
  <path
     id="rect1788"
     d="M 200 40 L 200 60 L 220 60 L 220 40 L 200 40 z M 220 60 L 220 80 L 240 80 L 240 60 L 220 60 z M 220 80 L 200 80 L 200 100 L 200 120 L 220 120 L 220 100 L 220 80 z M 200 80 L 200 60 L 180 60 L 180 80 L 200 80 z M 400 40 L 400 60 L 420 60 L 420 40 L 400 40 z M 420 60 L 420 80 L 440 80 L 440 60 L 420 60 z M 420 80 L 400 80 L 400 100 L 400 120 L 420 120 L 420 100 L 420 80 z M 400 80 L 400 60 L 380 60 L 380 80 L 400 80 z M 280 80 L 280 100 L 300 100 L 300 80 L 280 80 z M 600 80 L 600 100 L 580 100 L 560 100 L 560 120 L 580 120 L 580 140 L 580 160 L 580 180 L 580 200 L 580 220 L 580 240 L 580 260 L 580 280 L 580 300 L 580 320 L 580 340 L 580 360 L 580 380 L 580 400 L 580 420 L 580 440 L 580 460 L 600 460 L 600 480 L 600 500 L 600 520 L 600 540 L 580 540 L 580 560 L 580 580 L 600 580 L 600 600 L 620 600 L 620 580 L 620 560 L 620 540 L 620 520 L 620 500 L 620 480 L 620 460 L 620 440 L 620 420 L 620 400 L 620 380 L 620 360 L 620 340 L 620 320 L 620 300 L 620 280 L 620 260 L 620 240 L 620 220 L 620 200 L 620 180 L 620 160 L 620 140 L 620 120 L 620 100 L 620 80 L 600 80 z M 580 580 L 560 580 L 540 580 L 520 580 L 500 580 L 480 580 L 460 580 L 440 580 L 420 580 L 400 580 L 380 580 L 360 580 L 340 580 L 320 580 L 300 580 L 280 580 L 260 580 L 240 580 L 220 580 L 200 580 L 180 580 L 160 580 L 140 580 L 120 580 L 120 560 L 140 560 L 160 560 L 180 560 L 200 560 L 220 560 L 240 560 L 260 560 L 280 560 L 300 560 L 320 560 L 340 560 L 360 560 L 380 560 L 400 560 L 420 560 L 440 560 L 460 560 L 480 560 L 500 560 L 520 560 L 540 560 L 560 560 L 560 540 L 560 520 L 540 520 L 540 540 L 520 540 L 500 540 L 480 540 L 460 540 L 440 540 L 420 540 L 400 540 L 380 540 L 360 540 L 340 540 L 320 540 L 300 540 L 280 540 L 260 540 L 240 540 L 220 540 L 200 540 L 180 540 L 160 540 L 140 540 L 120 540 L 100 540 L 100 520 L 80 520 L 80 540 L 80 560 L 100 560 L 100 580 L 100 600 L 120 600 L 140 600 L 140 620 L 140 640 L 160 640 L 180 640 L 200 640 L 220 640 L 240 640 L 260 640 L 280 640 L 300 640 L 320 640 L 340 640 L 360 640 L 380 640 L 400 640 L 420 640 L 440 640 L 460 640 L 480 640 L 500 640 L 520 640 L 540 640 L 560 640 L 580 640 L 600 640 L 600 620 L 580 620 L 560 620 L 540 620 L 520 620 L 500 620 L 480 620 L 460 620 L 440 620 L 420 620 L 400 620 L 380 620 L 360 620 L 340 620 L 320 620 L 300 620 L 280 620 L 260 620 L 240 620 L 220 620 L 200 620 L 180 620 L 160 620 L 160 600 L 180 600 L 200 600 L 220 600 L 240 600 L 260 600 L 280 600 L 300 600 L 320 600 L 340 600 L 360 600 L 380 600 L 400 600 L 420 600 L 440 600 L 460 600 L 480 600 L 500 600 L 520 600 L 540 600 L 560 600 L 580 600 L 580 580 z M 100 520 L 120 520 L 120 500 L 120 480 L 100 480 L 100 500 L 100 520 z M 120 480 L 140 480 L 140 460 L 140 440 L 120 440 L 120 460 L 120 480 z M 560 520 L 580 520 L 580 500 L 580 480 L 580 460 L 560 460 L 560 480 L 560 500 L 560 520 z M 60 100 L 60 120 L 80 120 L 80 100 L 60 100 z M 80 120 L 80 140 L 100 140 L 100 120 L 80 120 z M 80 140 L 60 140 L 60 160 L 80 160 L 80 140 z M 60 140 L 60 120 L 40 120 L 40 140 L 60 140 z M 120 100 L 120 120 L 120 140 L 120 160 L 120 180 L 120 200 L 140 200 L 140 180 L 140 160 L 140 140 L 140 120 L 140 100 L 120 100 z M 160 100 L 160 120 L 180 120 L 180 100 L 160 100 z M 440 100 L 440 120 L 460 120 L 460 100 L 440 100 z M 480 100 L 480 120 L 500 120 L 500 100 L 480 100 z M 520 100 L 520 120 L 540 120 L 540 100 L 520 100 z M 480 140 L 480 160 L 500 160 L 500 140 L 480 140 z M 500 160 L 500 180 L 520 180 L 520 160 L 500 160 z M 500 180 L 480 180 L 480 200 L 500 200 L 500 180 z M 480 180 L 480 160 L 460 160 L 460 180 L 480 180 z M 360 200 L 360 220 L 380 220 L 380 200 L 360 200 z M 340 240 L 340 260 L 360 260 L 360 240 L 340 240 z M 380 280 L 380 300 L 400 300 L 400 280 L 380 280 z M 400 300 L 400 320 L 420 320 L 420 300 L 400 300 z M 400 320 L 380 320 L 380 340 L 400 340 L 400 320 z M 380 320 L 380 300 L 360 300 L 360 320 L 380 320 z "
     style="fill:#808080" />
</svg>
