<?xml version="1.0" encoding="UTF-8" standalone="no"?>
<svg
   xmlns:dc="http://purl.org/dc/elements/1.1/"
   xmlns:cc="http://creativecommons.org/ns#"
   xmlns:rdf="http://www.w3.org/1999/02/22-rdf-syntax-ns#"
   xmlns:svg="http://www.w3.org/2000/svg"
   xmlns="http://www.w3.org/2000/svg"
   id="svg2816"
   width="960px"
   version="1.1"
   height="960px">
  <metadata
     id="metadata2820">
    <rdf:RDF>
      <cc:Work
         rdf:about="">
        <dc:format>image/svg+xml</dc:format>
        <dc:type
           rdf:resource="http://purl.org/dc/dcmitype/StillImage" />
      </cc:Work>
    </rdf:RDF>
  </metadata>
  <defs
     id="defs2" />
  <path
     style="fill:#333366"
     d="M 120 160 L 120 180 L 120 200 L 120 220 L 140 220 L 160 220 L 180 220 L 200 220 L 220 220 L 240 220 L 260 220 L 280 220 L 300 220 L 320 220 L 340 220 L 360 220 L 380 220 L 400 220 L 420 220 L 440 220 L 460 220 L 480 220 L 480 200 L 480 180 L 480 160 L 460 160 L 440 160 L 420 160 L 400 160 L 380 160 L 360 160 L 340 160 L 320 160 L 300 160 L 280 160 L 260 160 L 240 160 L 220 160 L 200 160 L 180 160 L 160 160 L 140 160 L 120 160 z "
     id="rect346" />
  <path
     style="fill:#868686"
     d="M 100 140 L 100 160 L 100 180 L 100 200 L 100 220 L 100 240 L 120 240 L 140 240 L 160 240 L 180 240 L 200 240 L 220 240 L 240 240 L 260 240 L 280 240 L 300 240 L 320 240 L 340 240 L 360 240 L 380 240 L 400 240 L 420 240 L 440 240 L 460 240 L 480 240 L 500 240 L 520 240 L 540 240 L 560 240 L 580 240 L 600 240 L 620 240 L 640 240 L 660 240 L 680 240 L 700 240 L 720 240 L 740 240 L 760 240 L 780 240 L 800 240 L 820 240 L 820 220 L 820 200 L 820 180 L 820 160 L 820 140 L 800 140 L 780 140 L 760 140 L 740 140 L 720 140 L 700 140 L 680 140 L 660 140 L 640 140 L 620 140 L 600 140 L 580 140 L 560 140 L 540 140 L 520 140 L 500 140 L 480 140 L 460 140 L 440 140 L 420 140 L 400 140 L 380 140 L 360 140 L 340 140 L 320 140 L 300 140 L 280 140 L 260 140 L 240 140 L 220 140 L 200 140 L 180 140 L 160 140 L 140 140 L 120 140 L 100 140 z M 120 160 L 140 160 L 160 160 L 180 160 L 200 160 L 220 160 L 240 160 L 260 160 L 280 160 L 300 160 L 320 160 L 340 160 L 360 160 L 380 160 L 400 160 L 420 160 L 440 160 L 460 160 L 480 160 L 480 180 L 480 200 L 480 220 L 460 220 L 440 220 L 420 220 L 400 220 L 380 220 L 360 220 L 340 220 L 320 220 L 300 220 L 280 220 L 260 220 L 240 220 L 220 220 L 200 220 L 180 220 L 160 220 L 140 220 L 120 220 L 120 200 L 120 180 L 120 160 z "
     id="rect456" />
  <path
     style="fill:#e3e3e3"
     d="M 560 400 L 560 420 L 580 420 L 580 400 L 560 400 z M 680 420 L 680 440 L 700 440 L 700 420 L 680 420 z "
     id="rect1204" />
  <path
     style="fill:#800000"
     d="M 620 340 L 620 360 L 640 360 L 640 340 L 620 340 z M 660 360 L 660 380 L 680 380 L 680 360 L 660 360 z M 700 400 L 700 420 L 700 440 L 700 460 L 720 460 L 720 440 L 720 420 L 720 400 L 700 400 z M 540 440 L 540 460 L 560 460 L 560 440 L 540 440 z "
     id="rect1282" />
  <path
     style="fill:#efd6c6"
     d="M 620 360 L 620 380 L 640 380 L 640 360 L 620 360 z M 700 360 L 700 380 L 720 380 L 720 360 L 700 360 z M 720 380 L 720 400 L 740 400 L 740 380 L 720 380 z M 520 380 L 520 400 L 540 400 L 540 380 L 520 380 z M 720 440 L 720 460 L 740 460 L 740 440 L 720 440 z "
     id="rect1284" />
  <path
     style="fill:#993333"
     d="M 560 360 L 560 380 L 580 380 L 580 360 L 560 360 z M 560 380 L 540 380 L 540 400 L 540 420 L 540 440 L 560 440 L 560 420 L 560 400 L 560 380 z M 680 360 L 680 380 L 700 380 L 700 360 L 680 360 z M 700 380 L 700 400 L 720 400 L 720 380 L 700 380 z M 560 460 L 560 480 L 580 480 L 580 460 L 560 460 z M 680 460 L 680 480 L 700 480 L 700 460 L 680 460 z "
     id="rect1356" />
  <path
     style="fill:#cc9999"
     d="M 580 340 L 580 360 L 600 360 L 600 340 L 580 340 z M 660 340 L 660 360 L 680 360 L 680 340 L 660 340 z M 660 360 L 640 360 L 640 380 L 660 380 L 660 360 z M 560 380 L 560 400 L 580 400 L 580 380 L 560 380 z M 680 400 L 680 420 L 700 420 L 700 400 L 680 400 z M 720 400 L 720 420 L 720 440 L 740 440 L 740 420 L 740 400 L 720 400 z M 520 440 L 520 460 L 540 460 L 540 440 L 520 440 z M 560 440 L 560 460 L 580 460 L 580 440 L 560 440 z M 580 460 L 580 480 L 600 480 L 620 480 L 640 480 L 640 460 L 620 460 L 600 460 L 580 460 z M 680 440 L 680 460 L 700 460 L 700 440 L 680 440 z M 700 460 L 700 480 L 720 480 L 720 460 L 700 460 z M 680 460 L 660 460 L 660 480 L 680 480 L 680 460 z "
     id="rect1358" />
  <path
     style="fill:#996666"
     d="M 520 420 L 520 440 L 540 440 L 540 420 L 520 420 z M 600 480 L 600 500 L 620 500 L 640 500 L 660 500 L 660 480 L 640 480 L 620 480 L 600 480 z "
     id="rect1428" />
  <path
     style="fill:#cc6666"
     d="M 600 340 L 600 360 L 620 360 L 620 340 L 600 340 z M 600 360 L 580 360 L 580 380 L 600 380 L 600 360 z M 640 340 L 640 360 L 660 360 L 660 340 L 640 340 z M 680 380 L 680 400 L 700 400 L 700 380 L 680 380 z M 520 400 L 520 420 L 540 420 L 540 400 L 520 400 z M 540 460 L 540 480 L 560 480 L 560 460 L 540 460 z M 580 480 L 580 500 L 600 500 L 600 480 L 580 480 z M 660 480 L 660 500 L 680 500 L 680 480 L 660 480 z "
     id="rect1430" />
  <path
     style="fill:#ffffff"
     d="M 460 240 L 460 260 L 460 280 L 460 300 L 460 320 L 460 340 L 480 340 L 500 340 L 520 340 L 540 340 L 560 340 L 560 320 L 560 300 L 560 280 L 560 260 L 560 240 L 540 240 L 520 240 L 500 240 L 480 240 L 460 240 z M 580 240 L 580 260 L 580 280 L 580 300 L 580 320 L 580 340 L 600 340 L 620 340 L 640 340 L 660 340 L 680 340 L 680 320 L 680 300 L 680 280 L 680 260 L 680 240 L 660 240 L 640 240 L 620 240 L 600 240 L 580 240 z M 700 240 L 700 260 L 700 280 L 700 300 L 700 320 L 700 340 L 720 340 L 740 340 L 760 340 L 780 340 L 800 340 L 800 320 L 800 300 L 800 280 L 800 260 L 800 240 L 780 240 L 760 240 L 740 240 L 720 240 L 700 240 z M 100 360 L 100 380 L 100 400 L 100 420 L 100 440 L 100 460 L 120 460 L 140 460 L 160 460 L 180 460 L 200 460 L 200 440 L 200 420 L 200 400 L 200 380 L 200 360 L 180 360 L 160 360 L 140 360 L 120 360 L 100 360 z M 220 360 L 220 380 L 220 400 L 220 420 L 220 440 L 220 460 L 240 460 L 260 460 L 280 460 L 300 460 L 320 460 L 320 440 L 320 420 L 320 400 L 320 380 L 320 360 L 300 360 L 280 360 L 260 360 L 240 360 L 220 360 z M 340 360 L 340 380 L 340 400 L 340 420 L 340 440 L 340 460 L 360 460 L 380 460 L 400 460 L 420 460 L 440 460 L 440 440 L 440 420 L 440 400 L 440 380 L 440 360 L 420 360 L 400 360 L 380 360 L 360 360 L 340 360 z M 460 360 L 460 380 L 460 400 L 460 420 L 460 440 L 460 460 L 480 460 L 500 460 L 520 460 L 520 440 L 520 420 L 520 400 L 520 380 L 540 380 L 540 360 L 520 360 L 500 360 L 480 360 L 460 360 z M 720 360 L 720 380 L 740 380 L 740 400 L 740 420 L 740 440 L 740 460 L 760 460 L 780 460 L 800 460 L 800 440 L 800 420 L 800 400 L 800 380 L 800 360 L 780 360 L 760 360 L 740 360 L 720 360 z M 580 380 L 580 400 L 580 420 L 560 420 L 560 440 L 580 440 L 580 460 L 600 460 L 620 460 L 640 460 L 660 460 L 680 460 L 680 440 L 680 420 L 680 400 L 680 380 L 660 380 L 640 380 L 620 380 L 600 380 L 580 380 z M 100 480 L 100 500 L 100 520 L 100 540 L 100 560 L 100 580 L 120 580 L 140 580 L 160 580 L 180 580 L 200 580 L 200 560 L 200 540 L 200 520 L 200 500 L 200 480 L 180 480 L 160 480 L 140 480 L 120 480 L 100 480 z M 220 480 L 220 500 L 220 520 L 220 540 L 220 560 L 220 580 L 240 580 L 260 580 L 280 580 L 300 580 L 320 580 L 320 560 L 320 540 L 320 520 L 320 500 L 320 480 L 300 480 L 280 480 L 260 480 L 240 480 L 220 480 z M 340 480 L 340 500 L 340 520 L 340 540 L 340 560 L 340 580 L 360 580 L 380 580 L 400 580 L 420 580 L 440 580 L 440 560 L 440 540 L 440 520 L 440 500 L 440 480 L 420 480 L 400 480 L 380 480 L 360 480 L 340 480 z M 460 480 L 460 500 L 460 520 L 460 540 L 460 560 L 460 580 L 480 580 L 500 580 L 520 580 L 540 580 L 560 580 L 560 560 L 560 540 L 560 520 L 560 500 L 560 480 L 540 480 L 520 480 L 500 480 L 480 480 L 460 480 z M 700 480 L 700 500 L 700 520 L 700 540 L 700 560 L 700 580 L 720 580 L 740 580 L 760 580 L 780 580 L 800 580 L 800 560 L 800 540 L 800 520 L 800 500 L 800 480 L 780 480 L 760 480 L 740 480 L 720 480 L 700 480 z M 580 500 L 580 520 L 580 540 L 580 560 L 580 580 L 600 580 L 620 580 L 640 580 L 660 580 L 680 580 L 680 560 L 680 540 L 680 520 L 680 500 L 660 500 L 640 500 L 620 500 L 600 500 L 580 500 z M 100 600 L 100 620 L 100 640 L 100 660 L 100 680 L 100 700 L 120 700 L 140 700 L 160 700 L 180 700 L 200 700 L 200 680 L 200 660 L 200 640 L 200 620 L 200 600 L 180 600 L 160 600 L 140 600 L 120 600 L 100 600 z M 220 600 L 220 620 L 220 640 L 220 660 L 220 680 L 220 700 L 240 700 L 260 700 L 280 700 L 300 700 L 320 700 L 320 680 L 320 660 L 320 640 L 320 620 L 320 600 L 300 600 L 280 600 L 260 600 L 240 600 L 220 600 z M 340 600 L 340 620 L 340 640 L 340 660 L 340 680 L 340 700 L 360 700 L 380 700 L 400 700 L 420 700 L 440 700 L 440 680 L 440 660 L 440 640 L 440 620 L 440 600 L 420 600 L 400 600 L 380 600 L 360 600 L 340 600 z M 460 600 L 460 620 L 460 640 L 460 660 L 460 680 L 460 700 L 480 700 L 500 700 L 520 700 L 540 700 L 560 700 L 560 680 L 560 660 L 560 640 L 560 620 L 560 600 L 540 600 L 520 600 L 500 600 L 480 600 L 460 600 z M 580 600 L 580 620 L 580 640 L 580 660 L 580 680 L 580 700 L 600 700 L 620 700 L 640 700 L 660 700 L 680 700 L 680 680 L 680 660 L 680 640 L 680 620 L 680 600 L 660 600 L 640 600 L 620 600 L 600 600 L 580 600 z M 700 600 L 700 620 L 700 640 L 700 660 L 700 680 L 700 700 L 720 700 L 740 700 L 760 700 L 780 700 L 800 700 L 800 680 L 800 660 L 800 640 L 800 620 L 800 600 L 780 600 L 760 600 L 740 600 L 720 600 L 700 600 z M 100 720 L 100 740 L 100 760 L 100 780 L 100 800 L 100 820 L 120 820 L 140 820 L 160 820 L 180 820 L 200 820 L 200 800 L 200 780 L 200 760 L 200 740 L 200 720 L 180 720 L 160 720 L 140 720 L 120 720 L 100 720 z M 220 720 L 220 740 L 220 760 L 220 780 L 220 800 L 220 820 L 240 820 L 260 820 L 280 820 L 300 820 L 320 820 L 320 800 L 320 780 L 320 760 L 320 740 L 320 720 L 300 720 L 280 720 L 260 720 L 240 720 L 220 720 z M 340 720 L 340 740 L 340 760 L 340 780 L 340 800 L 340 820 L 360 820 L 380 820 L 400 820 L 420 820 L 440 820 L 440 800 L 440 780 L 440 760 L 440 740 L 440 720 L 420 720 L 400 720 L 380 720 L 360 720 L 340 720 z "
     id="rect2622" />
  <path
     style="fill:#d7d7d7"
     d="M 100 240 L 100 260 L 100 280 L 100 300 L 100 320 L 100 340 L 120 340 L 140 340 L 160 340 L 180 340 L 200 340 L 200 320 L 200 300 L 200 280 L 200 260 L 200 240 L 180 240 L 160 240 L 140 240 L 120 240 L 100 240 z M 220 240 L 220 260 L 220 280 L 220 300 L 220 320 L 220 340 L 240 340 L 260 340 L 280 340 L 300 340 L 320 340 L 320 320 L 320 300 L 320 280 L 320 260 L 320 240 L 300 240 L 280 240 L 260 240 L 240 240 L 220 240 z M 340 240 L 340 260 L 340 280 L 340 300 L 340 320 L 340 340 L 360 340 L 380 340 L 400 340 L 420 340 L 440 340 L 440 320 L 440 300 L 440 280 L 440 260 L 440 240 L 420 240 L 400 240 L 380 240 L 360 240 L 340 240 z M 460 720 L 460 740 L 460 760 L 460 780 L 460 800 L 460 820 L 480 820 L 500 820 L 520 820 L 540 820 L 560 820 L 560 800 L 560 780 L 560 760 L 560 740 L 560 720 L 540 720 L 520 720 L 500 720 L 480 720 L 460 720 z M 580 720 L 580 740 L 580 760 L 580 780 L 580 800 L 580 820 L 600 820 L 620 820 L 640 820 L 660 820 L 680 820 L 680 800 L 680 780 L 680 760 L 680 740 L 680 720 L 660 720 L 640 720 L 620 720 L 600 720 L 580 720 z M 700 720 L 700 740 L 700 760 L 700 780 L 700 800 L 700 820 L 720 820 L 740 820 L 760 820 L 780 820 L 800 820 L 800 800 L 800 780 L 800 760 L 800 740 L 800 720 L 780 720 L 760 720 L 740 720 L 720 720 L 700 720 z "
     id="rect2658" />
  <path
     style="fill:#b2b2b2"
     d="M 80 120 L 80 140 L 80 160 L 80 180 L 80 200 L 80 220 L 80 240 L 80 260 L 80 280 L 80 300 L 80 320 L 80 340 L 80 360 L 80 380 L 80 400 L 80 420 L 80 440 L 80 460 L 80 480 L 80 500 L 80 520 L 80 540 L 80 560 L 80 580 L 80 600 L 80 620 L 80 640 L 80 660 L 80 680 L 80 700 L 80 720 L 80 740 L 80 760 L 80 780 L 80 800 L 80 820 L 80 840 L 100 840 L 120 840 L 140 840 L 160 840 L 180 840 L 200 840 L 220 840 L 240 840 L 260 840 L 280 840 L 300 840 L 320 840 L 340 840 L 360 840 L 380 840 L 400 840 L 420 840 L 440 840 L 460 840 L 480 840 L 500 840 L 520 840 L 540 840 L 560 840 L 580 840 L 600 840 L 620 840 L 640 840 L 660 840 L 680 840 L 700 840 L 720 840 L 740 840 L 760 840 L 780 840 L 800 840 L 820 840 L 820 820 L 820 800 L 820 780 L 820 760 L 820 740 L 820 720 L 820 700 L 820 680 L 820 660 L 820 640 L 820 620 L 820 600 L 820 580 L 820 560 L 820 540 L 820 520 L 820 500 L 820 480 L 820 460 L 820 440 L 820 420 L 820 400 L 820 380 L 820 360 L 820 340 L 820 320 L 820 300 L 820 280 L 820 260 L 820 240 L 800 240 L 800 260 L 800 280 L 800 300 L 800 320 L 800 340 L 780 340 L 760 340 L 740 340 L 720 340 L 700 340 L 700 320 L 700 300 L 700 280 L 700 260 L 700 240 L 680 240 L 680 260 L 680 280 L 680 300 L 680 320 L 680 340 L 680 360 L 700 360 L 720 360 L 740 360 L 760 360 L 780 360 L 800 360 L 800 380 L 800 400 L 800 420 L 800 440 L 800 460 L 780 460 L 760 460 L 740 460 L 720 460 L 720 480 L 740 480 L 760 480 L 780 480 L 800 480 L 800 500 L 800 520 L 800 540 L 800 560 L 800 580 L 780 580 L 760 580 L 740 580 L 720 580 L 700 580 L 700 560 L 700 540 L 700 520 L 700 500 L 700 480 L 680 480 L 680 500 L 680 520 L 680 540 L 680 560 L 680 580 L 660 580 L 640 580 L 620 580 L 600 580 L 580 580 L 580 560 L 580 540 L 580 520 L 580 500 L 580 480 L 560 480 L 560 500 L 560 520 L 560 540 L 560 560 L 560 580 L 540 580 L 520 580 L 500 580 L 480 580 L 460 580 L 460 560 L 460 540 L 460 520 L 460 500 L 460 480 L 480 480 L 500 480 L 520 480 L 540 480 L 540 460 L 520 460 L 500 460 L 480 460 L 460 460 L 460 440 L 460 420 L 460 400 L 460 380 L 460 360 L 480 360 L 500 360 L 520 360 L 540 360 L 540 380 L 560 380 L 560 360 L 580 360 L 580 340 L 580 320 L 580 300 L 580 280 L 580 260 L 580 240 L 560 240 L 560 260 L 560 280 L 560 300 L 560 320 L 560 340 L 540 340 L 520 340 L 500 340 L 480 340 L 460 340 L 460 320 L 460 300 L 460 280 L 460 260 L 460 240 L 440 240 L 440 260 L 440 280 L 440 300 L 440 320 L 440 340 L 420 340 L 400 340 L 380 340 L 360 340 L 340 340 L 340 320 L 340 300 L 340 280 L 340 260 L 340 240 L 320 240 L 320 260 L 320 280 L 320 300 L 320 320 L 320 340 L 300 340 L 280 340 L 260 340 L 240 340 L 220 340 L 220 320 L 220 300 L 220 280 L 220 260 L 220 240 L 200 240 L 200 260 L 200 280 L 200 300 L 200 320 L 200 340 L 180 340 L 160 340 L 140 340 L 120 340 L 100 340 L 100 320 L 100 300 L 100 280 L 100 260 L 100 240 L 100 220 L 100 200 L 100 180 L 100 160 L 100 140 L 120 140 L 140 140 L 160 140 L 180 140 L 200 140 L 220 140 L 240 140 L 260 140 L 280 140 L 300 140 L 320 140 L 340 140 L 360 140 L 380 140 L 400 140 L 420 140 L 440 140 L 460 140 L 480 140 L 500 140 L 520 140 L 540 140 L 560 140 L 580 140 L 600 140 L 620 140 L 640 140 L 660 140 L 680 140 L 700 140 L 720 140 L 740 140 L 760 140 L 780 140 L 800 140 L 820 140 L 820 120 L 800 120 L 780 120 L 760 120 L 740 120 L 720 120 L 700 120 L 680 120 L 660 120 L 640 120 L 620 120 L 600 120 L 580 120 L 560 120 L 540 120 L 520 120 L 500 120 L 480 120 L 460 120 L 440 120 L 420 120 L 400 120 L 380 120 L 360 120 L 340 120 L 320 120 L 300 120 L 280 120 L 260 120 L 240 120 L 220 120 L 200 120 L 180 120 L 160 120 L 140 120 L 120 120 L 100 120 L 80 120 z M 100 360 L 120 360 L 140 360 L 160 360 L 180 360 L 200 360 L 200 380 L 200 400 L 200 420 L 200 440 L 200 460 L 180 460 L 160 460 L 140 460 L 120 460 L 100 460 L 100 440 L 100 420 L 100 400 L 100 380 L 100 360 z M 220 360 L 240 360 L 260 360 L 280 360 L 300 360 L 320 360 L 320 380 L 320 400 L 320 420 L 320 440 L 320 460 L 300 460 L 280 460 L 260 460 L 240 460 L 220 460 L 220 440 L 220 420 L 220 400 L 220 380 L 220 360 z M 340 360 L 360 360 L 380 360 L 400 360 L 420 360 L 440 360 L 440 380 L 440 400 L 440 420 L 440 440 L 440 460 L 420 460 L 400 460 L 380 460 L 360 460 L 340 460 L 340 440 L 340 420 L 340 400 L 340 380 L 340 360 z M 600 360 L 600 380 L 620 380 L 620 360 L 600 360 z M 640 460 L 640 480 L 660 480 L 660 460 L 640 460 z M 100 480 L 120 480 L 140 480 L 160 480 L 180 480 L 200 480 L 200 500 L 200 520 L 200 540 L 200 560 L 200 580 L 180 580 L 160 580 L 140 580 L 120 580 L 100 580 L 100 560 L 100 540 L 100 520 L 100 500 L 100 480 z M 220 480 L 240 480 L 260 480 L 280 480 L 300 480 L 320 480 L 320 500 L 320 520 L 320 540 L 320 560 L 320 580 L 300 580 L 280 580 L 260 580 L 240 580 L 220 580 L 220 560 L 220 540 L 220 520 L 220 500 L 220 480 z M 340 480 L 360 480 L 380 480 L 400 480 L 420 480 L 440 480 L 440 500 L 440 520 L 440 540 L 440 560 L 440 580 L 420 580 L 400 580 L 380 580 L 360 580 L 340 580 L 340 560 L 340 540 L 340 520 L 340 500 L 340 480 z M 100 600 L 120 600 L 140 600 L 160 600 L 180 600 L 200 600 L 200 620 L 200 640 L 200 660 L 200 680 L 200 700 L 180 700 L 160 700 L 140 700 L 120 700 L 100 700 L 100 680 L 100 660 L 100 640 L 100 620 L 100 600 z M 220 600 L 240 600 L 260 600 L 280 600 L 300 600 L 320 600 L 320 620 L 320 640 L 320 660 L 320 680 L 320 700 L 300 700 L 280 700 L 260 700 L 240 700 L 220 700 L 220 680 L 220 660 L 220 640 L 220 620 L 220 600 z M 340 600 L 360 600 L 380 600 L 400 600 L 420 600 L 440 600 L 440 620 L 440 640 L 440 660 L 440 680 L 440 700 L 420 700 L 400 700 L 380 700 L 360 700 L 340 700 L 340 680 L 340 660 L 340 640 L 340 620 L 340 600 z M 460 600 L 480 600 L 500 600 L 520 600 L 540 600 L 560 600 L 560 620 L 560 640 L 560 660 L 560 680 L 560 700 L 540 700 L 520 700 L 500 700 L 480 700 L 460 700 L 460 680 L 460 660 L 460 640 L 460 620 L 460 600 z M 580 600 L 600 600 L 620 600 L 640 600 L 660 600 L 680 600 L 680 620 L 680 640 L 680 660 L 680 680 L 680 700 L 660 700 L 640 700 L 620 700 L 600 700 L 580 700 L 580 680 L 580 660 L 580 640 L 580 620 L 580 600 z M 700 600 L 720 600 L 740 600 L 760 600 L 780 600 L 800 600 L 800 620 L 800 640 L 800 660 L 800 680 L 800 700 L 780 700 L 760 700 L 740 700 L 720 700 L 700 700 L 700 680 L 700 660 L 700 640 L 700 620 L 700 600 z M 100 720 L 120 720 L 140 720 L 160 720 L 180 720 L 200 720 L 200 740 L 200 760 L 200 780 L 200 800 L 200 820 L 180 820 L 160 820 L 140 820 L 120 820 L 100 820 L 100 800 L 100 780 L 100 760 L 100 740 L 100 720 z M 220 720 L 240 720 L 260 720 L 280 720 L 300 720 L 320 720 L 320 740 L 320 760 L 320 780 L 320 800 L 320 820 L 300 820 L 280 820 L 260 820 L 240 820 L 220 820 L 220 800 L 220 780 L 220 760 L 220 740 L 220 720 z M 340 720 L 360 720 L 380 720 L 400 720 L 420 720 L 440 720 L 440 740 L 440 760 L 440 780 L 440 800 L 440 820 L 420 820 L 400 820 L 380 820 L 360 820 L 340 820 L 340 800 L 340 780 L 340 760 L 340 740 L 340 720 z M 460 720 L 480 720 L 500 720 L 520 720 L 540 720 L 560 720 L 560 740 L 560 760 L 560 780 L 560 800 L 560 820 L 540 820 L 520 820 L 500 820 L 480 820 L 460 820 L 460 800 L 460 780 L 460 760 L 460 740 L 460 720 z M 580 720 L 600 720 L 620 720 L 640 720 L 660 720 L 680 720 L 680 740 L 680 760 L 680 780 L 680 800 L 680 820 L 660 820 L 640 820 L 620 820 L 600 820 L 580 820 L 580 800 L 580 780 L 580 760 L 580 740 L 580 720 z M 700 720 L 720 720 L 740 720 L 760 720 L 780 720 L 800 720 L 800 740 L 800 760 L 800 780 L 800 800 L 800 820 L 780 820 L 760 820 L 740 820 L 720 820 L 700 820 L 700 800 L 700 780 L 700 760 L 700 740 L 700 720 z "
     id="rect2736" />
  <path
     style="fill:#222222"
     d="M 820 120 L 820 140 L 820 160 L 820 180 L 820 200 L 820 220 L 820 240 L 820 260 L 820 280 L 820 300 L 820 320 L 820 340 L 820 360 L 820 380 L 820 400 L 820 420 L 820 440 L 820 460 L 820 480 L 820 500 L 820 520 L 820 540 L 820 560 L 820 580 L 820 600 L 820 620 L 820 640 L 820 660 L 820 680 L 820 700 L 820 720 L 820 740 L 820 760 L 820 780 L 820 800 L 820 820 L 820 840 L 800 840 L 780 840 L 760 840 L 740 840 L 720 840 L 700 840 L 680 840 L 660 840 L 640 840 L 620 840 L 600 840 L 580 840 L 560 840 L 540 840 L 520 840 L 500 840 L 480 840 L 460 840 L 440 840 L 420 840 L 400 840 L 380 840 L 360 840 L 340 840 L 320 840 L 300 840 L 280 840 L 260 840 L 240 840 L 220 840 L 200 840 L 180 840 L 160 840 L 140 840 L 120 840 L 100 840 L 80 840 L 80 860 L 100 860 L 120 860 L 140 860 L 160 860 L 180 860 L 200 860 L 220 860 L 240 860 L 260 860 L 280 860 L 300 860 L 320 860 L 340 860 L 360 860 L 380 860 L 400 860 L 420 860 L 440 860 L 460 860 L 480 860 L 500 860 L 520 860 L 540 860 L 560 860 L 580 860 L 600 860 L 620 860 L 640 860 L 660 860 L 680 860 L 700 860 L 720 860 L 740 860 L 760 860 L 780 860 L 800 860 L 820 860 L 840 860 L 840 840 L 840 820 L 840 800 L 840 780 L 840 760 L 840 740 L 840 720 L 840 700 L 840 680 L 840 660 L 840 640 L 840 620 L 840 600 L 840 580 L 840 560 L 840 540 L 840 520 L 840 500 L 840 480 L 840 460 L 840 440 L 840 420 L 840 400 L 840 380 L 840 360 L 840 340 L 840 320 L 840 300 L 840 280 L 840 260 L 840 240 L 840 220 L 840 200 L 840 180 L 840 160 L 840 140 L 840 120 L 820 120 z "
     id="rect2814" />
</svg>
