<?xml version="1.0" encoding="UTF-8" standalone="no"?>
<svg
   xmlns:dc="http://purl.org/dc/elements/1.1/"
   xmlns:cc="http://creativecommons.org/ns#"
   xmlns:rdf="http://www.w3.org/1999/02/22-rdf-syntax-ns#"
   xmlns:svg="http://www.w3.org/2000/svg"
   xmlns="http://www.w3.org/2000/svg"
   height="960px"
   version="1.1"
   width="960px"
   id="svg3940">
  <metadata
     id="metadata3944">
    <rdf:RDF>
      <cc:Work
         rdf:about="">
        <dc:format>image/svg+xml</dc:format>
        <dc:type
           rdf:resource="http://purl.org/dc/dcmitype/StillImage" />
      </cc:Work>
    </rdf:RDF>
  </metadata>
  <defs
     id="defs2" />
  <path
     id="rect1848"
     d="M 920 140 L 920 160 L 900 160 L 900 180 L 880 180 L 880 200 L 860 200 L 860 220 L 840 220 L 840 240 L 820 240 L 820 260 L 800 260 L 800 280 L 780 280 L 780 300 L 760 300 L 760 320 L 760 340 L 760 360 L 760 380 L 760 400 L 780 400 L 780 420 L 800 420 L 800 440 L 820 440 L 840 440 L 860 440 L 880 440 L 880 420 L 900 420 L 900 400 L 920 400 L 920 380 L 940 380 L 940 360 L 940 340 L 940 320 L 920 320 L 920 340 L 900 340 L 900 360 L 880 360 L 880 380 L 860 380 L 860 400 L 840 400 L 840 420 L 820 420 L 820 400 L 820 380 L 840 380 L 840 360 L 860 360 L 860 340 L 880 340 L 880 320 L 900 320 L 900 300 L 920 300 L 920 280 L 940 280 L 940 260 L 940 240 L 920 240 L 920 260 L 900 260 L 900 280 L 880 280 L 860 280 L 860 300 L 860 320 L 840 320 L 820 320 L 820 340 L 820 360 L 800 360 L 780 360 L 780 340 L 780 320 L 800 320 L 820 320 L 820 300 L 820 280 L 840 280 L 860 280 L 860 260 L 860 240 L 880 240 L 880 220 L 900 220 L 900 200 L 920 200 L 940 200 L 940 180 L 940 160 L 940 140 L 920 140 z "
     style="fill:#0000ff" />
  <path
     id="rect2514"
     d="M 900 120 L 900 140 L 880 140 L 880 160 L 860 160 L 860 180 L 840 180 L 840 200 L 820 200 L 820 220 L 800 220 L 800 240 L 780 240 L 780 260 L 760 260 L 760 280 L 740 280 L 740 300 L 740 320 L 720 320 L 720 340 L 720 360 L 740 360 L 740 380 L 740 400 L 740 420 L 760 420 L 780 420 L 780 400 L 760 400 L 760 380 L 760 360 L 760 340 L 760 320 L 760 300 L 780 300 L 780 280 L 800 280 L 800 260 L 820 260 L 820 240 L 840 240 L 840 220 L 860 220 L 860 200 L 880 200 L 880 180 L 900 180 L 900 160 L 920 160 L 920 140 L 940 140 L 940 120 L 920 120 L 900 120 z M 780 420 L 780 440 L 800 440 L 800 420 L 780 420 z M 800 440 L 800 460 L 820 460 L 820 480 L 840 480 L 840 500 L 860 500 L 880 500 L 880 480 L 900 480 L 900 460 L 920 460 L 920 440 L 940 440 L 940 420 L 940 400 L 940 380 L 920 380 L 920 400 L 900 400 L 900 420 L 880 420 L 880 440 L 860 440 L 840 440 L 820 440 L 800 440 z M 900 200 L 900 220 L 920 220 L 920 200 L 900 200 z M 920 220 L 920 240 L 940 240 L 940 220 L 920 220 z M 920 240 L 900 240 L 900 260 L 920 260 L 920 240 z M 900 260 L 880 260 L 880 280 L 900 280 L 900 260 z M 880 260 L 880 240 L 860 240 L 860 260 L 880 260 z M 880 240 L 900 240 L 900 220 L 880 220 L 880 240 z M 820 280 L 820 300 L 840 300 L 840 280 L 820 280 z M 840 300 L 840 320 L 860 320 L 860 300 L 840 300 z M 920 280 L 920 300 L 900 300 L 900 320 L 880 320 L 880 340 L 860 340 L 860 360 L 840 360 L 840 380 L 820 380 L 820 400 L 820 420 L 840 420 L 840 400 L 860 400 L 860 380 L 880 380 L 880 360 L 900 360 L 900 340 L 920 340 L 920 320 L 940 320 L 940 300 L 940 280 L 920 280 z M 780 320 L 780 340 L 800 340 L 800 320 L 780 320 z M 800 340 L 800 360 L 820 360 L 820 340 L 800 340 z M 740 580 L 740 600 L 760 600 L 760 580 L 740 580 z "
     style="fill:#0000bf" />
  <path
     id="rect2886"
     d="M 880 240 L 880 260 L 900 260 L 900 240 L 880 240 z M 780 340 L 780 360 L 800 360 L 800 340 L 780 340 z M 660 480 L 660 500 L 680 500 L 680 480 L 660 480 z M 660 500 L 640 500 L 640 520 L 620 520 L 620 540 L 600 540 L 600 560 L 580 560 L 560 560 L 560 580 L 540 580 L 540 600 L 540 620 L 520 620 L 520 640 L 520 660 L 540 660 L 540 640 L 560 640 L 560 620 L 580 620 L 580 600 L 600 600 L 600 580 L 620 580 L 620 560 L 640 560 L 660 560 L 660 540 L 660 520 L 660 500 z M 460 680 L 460 700 L 480 700 L 480 680 L 460 680 z "
     style="fill:#ffff00" />
  <path
     id="rect3114"
     d="M 620 460 L 620 480 L 600 480 L 600 500 L 580 500 L 580 520 L 560 520 L 560 540 L 540 540 L 540 560 L 520 560 L 520 580 L 500 580 L 500 600 L 480 600 L 480 620 L 460 620 L 460 640 L 440 640 L 440 660 L 420 660 L 420 680 L 400 680 L 400 700 L 380 700 L 380 720 L 360 720 L 360 740 L 380 740 L 400 740 L 400 720 L 420 720 L 420 700 L 440 700 L 460 700 L 460 680 L 460 660 L 480 660 L 480 640 L 500 640 L 500 620 L 520 620 L 520 600 L 540 600 L 540 580 L 560 580 L 560 560 L 580 560 L 580 540 L 600 540 L 600 520 L 620 520 L 620 500 L 640 500 L 640 480 L 660 480 L 660 460 L 640 460 L 620 460 z M 360 740 L 340 740 L 340 760 L 360 760 L 360 740 z M 700 540 L 700 560 L 680 560 L 680 580 L 660 580 L 660 600 L 640 600 L 640 620 L 620 620 L 620 640 L 600 640 L 600 660 L 620 660 L 640 660 L 660 660 L 680 660 L 680 640 L 700 640 L 700 620 L 720 620 L 720 600 L 740 600 L 740 580 L 760 580 L 760 560 L 740 560 L 740 540 L 720 540 L 700 540 z "
     style="fill:#bfbf00" />
  <path
     id="rect3710"
     d="M 100 40 L 100 60 L 120 60 L 120 40 L 100 40 z M 120 60 L 120 80 L 120 100 L 120 120 L 100 120 L 100 100 L 100 80 L 100 60 L 80 60 L 60 60 L 60 80 L 60 100 L 60 120 L 60 140 L 60 160 L 60 180 L 60 200 L 60 220 L 80 220 L 100 220 L 120 220 L 140 220 L 160 220 L 180 220 L 200 220 L 220 220 L 240 220 L 260 220 L 280 220 L 300 220 L 320 220 L 340 220 L 360 220 L 380 220 L 400 220 L 420 220 L 440 220 L 460 220 L 480 220 L 500 220 L 520 220 L 540 220 L 560 220 L 580 220 L 600 220 L 620 220 L 640 220 L 660 220 L 680 220 L 700 220 L 720 220 L 740 220 L 740 200 L 740 180 L 740 160 L 740 140 L 740 120 L 720 120 L 720 100 L 720 80 L 720 60 L 700 60 L 680 60 L 660 60 L 660 80 L 660 100 L 660 120 L 640 120 L 640 100 L 640 80 L 640 60 L 620 60 L 600 60 L 580 60 L 560 60 L 560 80 L 560 100 L 560 120 L 540 120 L 540 100 L 540 80 L 540 60 L 520 60 L 500 60 L 480 60 L 480 80 L 480 100 L 480 120 L 460 120 L 460 100 L 460 80 L 460 60 L 440 60 L 420 60 L 400 60 L 380 60 L 380 80 L 380 100 L 380 120 L 360 120 L 360 100 L 360 80 L 360 60 L 340 60 L 320 60 L 300 60 L 300 80 L 300 100 L 300 120 L 280 120 L 280 100 L 280 80 L 280 60 L 260 60 L 240 60 L 220 60 L 200 60 L 200 80 L 200 100 L 200 120 L 180 120 L 180 100 L 180 80 L 180 60 L 160 60 L 140 60 L 120 60 z M 180 60 L 200 60 L 200 40 L 180 40 L 180 60 z M 280 60 L 300 60 L 300 40 L 280 40 L 280 60 z M 360 60 L 380 60 L 380 40 L 360 40 L 360 60 z M 460 60 L 480 60 L 480 40 L 460 40 L 460 60 z M 540 60 L 560 60 L 560 40 L 540 40 L 540 60 z M 640 60 L 660 60 L 660 40 L 640 40 L 640 60 z M 720 60 L 740 60 L 740 40 L 720 40 L 720 60 z M 920 200 L 920 220 L 940 220 L 940 200 L 920 200 z M 920 220 L 900 220 L 900 240 L 920 240 L 920 220 z M 60 240 L 60 260 L 60 280 L 60 300 L 80 300 L 100 300 L 120 300 L 140 300 L 160 300 L 180 300 L 200 300 L 220 300 L 240 300 L 260 300 L 280 300 L 300 300 L 320 300 L 340 300 L 360 300 L 380 300 L 400 300 L 420 300 L 440 300 L 460 300 L 480 300 L 500 300 L 520 300 L 540 300 L 560 300 L 580 300 L 600 300 L 620 300 L 640 300 L 660 300 L 680 300 L 700 300 L 720 300 L 740 300 L 740 280 L 740 260 L 740 240 L 720 240 L 700 240 L 680 240 L 660 240 L 640 240 L 620 240 L 600 240 L 580 240 L 560 240 L 540 240 L 520 240 L 500 240 L 480 240 L 460 240 L 440 240 L 420 240 L 400 240 L 380 240 L 360 240 L 340 240 L 320 240 L 300 240 L 280 240 L 260 240 L 240 240 L 220 240 L 200 240 L 180 240 L 160 240 L 140 240 L 120 240 L 100 240 L 80 240 L 60 240 z M 860 260 L 860 280 L 880 280 L 880 260 L 860 260 z M 860 280 L 840 280 L 840 300 L 860 300 L 860 280 z M 840 300 L 820 300 L 820 320 L 840 320 L 840 300 z M 820 320 L 800 320 L 800 340 L 820 340 L 820 320 z M 60 320 L 60 340 L 60 360 L 60 380 L 60 400 L 80 400 L 100 400 L 120 400 L 140 400 L 160 400 L 180 400 L 200 400 L 220 400 L 240 400 L 260 400 L 280 400 L 300 400 L 320 400 L 340 400 L 360 400 L 380 400 L 400 400 L 420 400 L 440 400 L 460 400 L 480 400 L 500 400 L 520 400 L 540 400 L 560 400 L 580 400 L 600 400 L 620 400 L 640 400 L 660 400 L 680 400 L 680 380 L 700 380 L 700 360 L 720 360 L 720 340 L 720 320 L 700 320 L 680 320 L 660 320 L 640 320 L 620 320 L 600 320 L 580 320 L 560 320 L 540 320 L 520 320 L 500 320 L 480 320 L 460 320 L 440 320 L 420 320 L 400 320 L 380 320 L 360 320 L 340 320 L 320 320 L 300 320 L 280 320 L 260 320 L 240 320 L 220 320 L 200 320 L 180 320 L 160 320 L 140 320 L 120 320 L 100 320 L 80 320 L 60 320 z M 720 400 L 720 420 L 740 420 L 740 400 L 720 400 z M 720 420 L 700 420 L 700 440 L 720 440 L 720 420 z M 60 420 L 60 440 L 60 460 L 60 480 L 80 480 L 100 480 L 120 480 L 140 480 L 160 480 L 180 480 L 200 480 L 220 480 L 240 480 L 260 480 L 280 480 L 300 480 L 320 480 L 340 480 L 360 480 L 380 480 L 400 480 L 420 480 L 440 480 L 460 480 L 480 480 L 500 480 L 520 480 L 540 480 L 560 480 L 580 480 L 600 480 L 620 480 L 620 460 L 640 460 L 660 460 L 660 440 L 660 420 L 640 420 L 620 420 L 600 420 L 580 420 L 560 420 L 540 420 L 520 420 L 500 420 L 480 420 L 460 420 L 440 420 L 420 420 L 400 420 L 380 420 L 360 420 L 340 420 L 320 420 L 300 420 L 280 420 L 260 420 L 240 420 L 220 420 L 200 420 L 180 420 L 160 420 L 140 420 L 120 420 L 100 420 L 80 420 L 60 420 z M 640 480 L 640 500 L 660 500 L 660 480 L 640 480 z M 660 500 L 660 520 L 660 540 L 680 540 L 680 520 L 680 500 L 660 500 z M 640 500 L 620 500 L 620 520 L 640 520 L 640 500 z M 620 520 L 600 520 L 600 540 L 620 540 L 620 520 z M 600 540 L 580 540 L 580 560 L 600 560 L 600 540 z M 60 500 L 60 520 L 60 540 L 60 560 L 60 580 L 80 580 L 100 580 L 120 580 L 140 580 L 160 580 L 180 580 L 200 580 L 220 580 L 240 580 L 260 580 L 280 580 L 300 580 L 320 580 L 340 580 L 360 580 L 380 580 L 400 580 L 420 580 L 440 580 L 460 580 L 480 580 L 500 580 L 520 580 L 520 560 L 540 560 L 540 540 L 560 540 L 560 520 L 580 520 L 580 500 L 560 500 L 540 500 L 520 500 L 500 500 L 480 500 L 460 500 L 440 500 L 420 500 L 400 500 L 380 500 L 360 500 L 340 500 L 320 500 L 300 500 L 280 500 L 260 500 L 240 500 L 220 500 L 200 500 L 180 500 L 160 500 L 140 500 L 120 500 L 100 500 L 80 500 L 60 500 z M 620 560 L 620 580 L 640 580 L 640 560 L 620 560 z M 620 580 L 600 580 L 600 600 L 620 600 L 620 580 z M 600 600 L 580 600 L 580 620 L 600 620 L 600 600 z M 580 620 L 560 620 L 560 640 L 540 640 L 540 660 L 560 660 L 580 660 L 580 640 L 580 620 z M 540 660 L 520 660 L 520 640 L 520 620 L 500 620 L 500 640 L 480 640 L 480 660 L 460 660 L 460 680 L 480 680 L 480 700 L 500 700 L 500 680 L 520 680 L 540 680 L 540 660 z M 520 620 L 540 620 L 540 600 L 520 600 L 520 620 z M 60 600 L 60 620 L 60 640 L 60 660 L 80 660 L 100 660 L 120 660 L 140 660 L 160 660 L 180 660 L 200 660 L 220 660 L 240 660 L 260 660 L 280 660 L 300 660 L 320 660 L 340 660 L 360 660 L 380 660 L 400 660 L 420 660 L 440 660 L 440 640 L 460 640 L 460 620 L 480 620 L 480 600 L 460 600 L 440 600 L 420 600 L 400 600 L 380 600 L 360 600 L 340 600 L 320 600 L 300 600 L 280 600 L 260 600 L 240 600 L 220 600 L 200 600 L 180 600 L 160 600 L 140 600 L 120 600 L 100 600 L 80 600 L 60 600 z M 60 680 L 60 700 L 60 720 L 60 740 L 60 760 L 80 760 L 100 760 L 120 760 L 140 760 L 160 760 L 180 760 L 200 760 L 220 760 L 240 760 L 260 760 L 280 760 L 300 760 L 320 760 L 340 760 L 340 740 L 360 740 L 360 720 L 380 720 L 380 700 L 400 700 L 400 680 L 380 680 L 360 680 L 340 680 L 320 680 L 300 680 L 280 680 L 260 680 L 240 680 L 220 680 L 200 680 L 180 680 L 160 680 L 140 680 L 120 680 L 100 680 L 80 680 L 60 680 z M 660 680 L 660 700 L 640 700 L 620 700 L 600 700 L 580 700 L 560 700 L 540 700 L 520 700 L 520 720 L 500 720 L 480 720 L 460 720 L 460 740 L 440 740 L 420 740 L 420 760 L 440 760 L 460 760 L 480 760 L 500 760 L 520 760 L 540 760 L 560 760 L 580 760 L 600 760 L 620 760 L 640 760 L 660 760 L 680 760 L 700 760 L 720 760 L 720 740 L 720 720 L 720 700 L 720 680 L 700 680 L 680 680 L 660 680 z M 420 700 L 420 720 L 440 720 L 440 700 L 420 700 z M 60 780 L 60 800 L 60 820 L 60 840 L 80 840 L 100 840 L 120 840 L 140 840 L 160 840 L 180 840 L 200 840 L 220 840 L 240 840 L 260 840 L 280 840 L 300 840 L 320 840 L 340 840 L 360 840 L 380 840 L 400 840 L 420 840 L 440 840 L 460 840 L 480 840 L 500 840 L 520 840 L 540 840 L 560 840 L 580 840 L 600 840 L 620 840 L 640 840 L 660 840 L 680 840 L 700 840 L 720 840 L 720 820 L 720 800 L 720 780 L 700 780 L 680 780 L 660 780 L 640 780 L 620 780 L 600 780 L 580 780 L 560 780 L 540 780 L 520 780 L 500 780 L 480 780 L 460 780 L 440 780 L 420 780 L 400 780 L 380 780 L 360 780 L 340 780 L 320 780 L 300 780 L 280 780 L 260 780 L 240 780 L 220 780 L 200 780 L 180 780 L 160 780 L 140 780 L 120 780 L 100 780 L 80 780 L 60 780 z M 60 860 L 60 880 L 60 900 L 80 900 L 100 900 L 120 900 L 140 900 L 160 900 L 180 900 L 200 900 L 220 900 L 240 900 L 260 900 L 280 900 L 300 900 L 320 900 L 340 900 L 360 900 L 380 900 L 400 900 L 420 900 L 440 900 L 460 900 L 480 900 L 500 900 L 520 900 L 540 900 L 560 900 L 580 900 L 600 900 L 620 900 L 640 900 L 660 900 L 680 900 L 700 900 L 720 900 L 720 880 L 720 860 L 700 860 L 680 860 L 660 860 L 640 860 L 620 860 L 600 860 L 580 860 L 560 860 L 540 860 L 520 860 L 500 860 L 480 860 L 460 860 L 440 860 L 420 860 L 400 860 L 380 860 L 360 860 L 340 860 L 320 860 L 300 860 L 280 860 L 260 860 L 240 860 L 220 860 L 200 860 L 180 860 L 160 860 L 140 860 L 120 860 L 100 860 L 80 860 L 60 860 z "
     style="fill:#ffffff" />
  <path
     id="rect3792"
     d="M 780 60 L 780 80 L 780 100 L 780 120 L 780 140 L 780 160 L 780 180 L 780 200 L 780 220 L 780 240 L 800 240 L 800 220 L 800 200 L 800 180 L 800 160 L 800 140 L 800 120 L 800 100 L 800 80 L 800 60 L 780 60 z M 60 220 L 60 240 L 80 240 L 100 240 L 120 240 L 140 240 L 160 240 L 180 240 L 200 240 L 220 240 L 240 240 L 260 240 L 280 240 L 300 240 L 320 240 L 340 240 L 360 240 L 380 240 L 400 240 L 420 240 L 440 240 L 460 240 L 480 240 L 500 240 L 520 240 L 540 240 L 560 240 L 580 240 L 600 240 L 620 240 L 640 240 L 660 240 L 680 240 L 700 240 L 720 240 L 740 240 L 740 220 L 720 220 L 700 220 L 680 220 L 660 220 L 640 220 L 620 220 L 600 220 L 580 220 L 560 220 L 540 220 L 520 220 L 500 220 L 480 220 L 460 220 L 440 220 L 420 220 L 400 220 L 380 220 L 360 220 L 340 220 L 320 220 L 300 220 L 280 220 L 260 220 L 240 220 L 220 220 L 200 220 L 180 220 L 160 220 L 140 220 L 120 220 L 100 220 L 80 220 L 60 220 z M 60 300 L 60 320 L 80 320 L 100 320 L 120 320 L 140 320 L 160 320 L 180 320 L 200 320 L 220 320 L 240 320 L 260 320 L 280 320 L 300 320 L 320 320 L 340 320 L 360 320 L 380 320 L 400 320 L 420 320 L 440 320 L 460 320 L 480 320 L 500 320 L 520 320 L 540 320 L 560 320 L 580 320 L 600 320 L 620 320 L 640 320 L 660 320 L 680 320 L 700 320 L 720 320 L 720 300 L 700 300 L 680 300 L 660 300 L 640 300 L 620 300 L 600 300 L 580 300 L 560 300 L 540 300 L 520 300 L 500 300 L 480 300 L 460 300 L 440 300 L 420 300 L 400 300 L 380 300 L 360 300 L 340 300 L 320 300 L 300 300 L 280 300 L 260 300 L 240 300 L 220 300 L 200 300 L 180 300 L 160 300 L 140 300 L 120 300 L 100 300 L 80 300 L 60 300 z M 60 400 L 60 420 L 80 420 L 100 420 L 120 420 L 140 420 L 160 420 L 180 420 L 200 420 L 220 420 L 240 420 L 260 420 L 280 420 L 300 420 L 320 420 L 340 420 L 360 420 L 380 420 L 400 420 L 420 420 L 440 420 L 460 420 L 480 420 L 500 420 L 520 420 L 540 420 L 560 420 L 580 420 L 600 420 L 620 420 L 640 420 L 660 420 L 660 400 L 640 400 L 620 400 L 600 400 L 580 400 L 560 400 L 540 400 L 520 400 L 500 400 L 480 400 L 460 400 L 440 400 L 420 400 L 400 400 L 380 400 L 360 400 L 340 400 L 320 400 L 300 400 L 280 400 L 260 400 L 240 400 L 220 400 L 200 400 L 180 400 L 160 400 L 140 400 L 120 400 L 100 400 L 80 400 L 60 400 z M 60 480 L 60 500 L 80 500 L 100 500 L 120 500 L 140 500 L 160 500 L 180 500 L 200 500 L 220 500 L 240 500 L 260 500 L 280 500 L 300 500 L 320 500 L 340 500 L 360 500 L 380 500 L 400 500 L 420 500 L 440 500 L 460 500 L 480 500 L 500 500 L 520 500 L 540 500 L 560 500 L 580 500 L 600 500 L 600 480 L 580 480 L 560 480 L 540 480 L 520 480 L 500 480 L 480 480 L 460 480 L 440 480 L 420 480 L 400 480 L 380 480 L 360 480 L 340 480 L 320 480 L 300 480 L 280 480 L 260 480 L 240 480 L 220 480 L 200 480 L 180 480 L 160 480 L 140 480 L 120 480 L 100 480 L 80 480 L 60 480 z M 680 500 L 680 520 L 680 540 L 660 540 L 660 560 L 640 560 L 640 580 L 620 580 L 620 600 L 600 600 L 600 620 L 580 620 L 580 640 L 580 660 L 600 660 L 600 640 L 620 640 L 620 620 L 640 620 L 640 600 L 660 600 L 660 580 L 680 580 L 680 560 L 700 560 L 700 540 L 720 540 L 720 520 L 700 520 L 700 500 L 680 500 z M 60 580 L 60 600 L 80 600 L 100 600 L 120 600 L 140 600 L 160 600 L 180 600 L 200 600 L 220 600 L 240 600 L 260 600 L 280 600 L 300 600 L 320 600 L 340 600 L 360 600 L 380 600 L 400 600 L 420 600 L 440 600 L 460 600 L 480 600 L 500 600 L 500 580 L 480 580 L 460 580 L 440 580 L 420 580 L 400 580 L 380 580 L 360 580 L 340 580 L 320 580 L 300 580 L 280 580 L 260 580 L 240 580 L 220 580 L 200 580 L 180 580 L 160 580 L 140 580 L 120 580 L 100 580 L 80 580 L 60 580 z M 780 600 L 780 620 L 780 640 L 780 660 L 780 680 L 780 700 L 780 720 L 780 740 L 780 760 L 780 780 L 780 800 L 780 820 L 780 840 L 780 860 L 780 880 L 780 900 L 800 900 L 800 880 L 800 860 L 800 840 L 800 820 L 800 800 L 800 780 L 800 760 L 800 740 L 800 720 L 800 700 L 800 680 L 800 660 L 800 640 L 800 620 L 800 600 L 780 600 z M 780 900 L 760 900 L 760 920 L 780 920 L 780 900 z M 720 640 L 720 660 L 700 660 L 700 680 L 720 680 L 720 700 L 720 720 L 720 740 L 720 760 L 700 760 L 680 760 L 660 760 L 640 760 L 620 760 L 600 760 L 580 760 L 560 760 L 540 760 L 520 760 L 500 760 L 480 760 L 460 760 L 440 760 L 420 760 L 400 760 L 380 760 L 380 780 L 400 780 L 420 780 L 440 780 L 460 780 L 480 780 L 500 780 L 520 780 L 540 780 L 560 780 L 580 780 L 600 780 L 620 780 L 640 780 L 660 780 L 680 780 L 700 780 L 720 780 L 720 800 L 720 820 L 720 840 L 700 840 L 680 840 L 660 840 L 640 840 L 620 840 L 600 840 L 580 840 L 560 840 L 540 840 L 520 840 L 500 840 L 480 840 L 460 840 L 440 840 L 420 840 L 400 840 L 380 840 L 360 840 L 340 840 L 320 840 L 300 840 L 280 840 L 260 840 L 240 840 L 220 840 L 200 840 L 180 840 L 160 840 L 140 840 L 120 840 L 100 840 L 80 840 L 60 840 L 60 860 L 80 860 L 100 860 L 120 860 L 140 860 L 160 860 L 180 860 L 200 860 L 220 860 L 240 860 L 260 860 L 280 860 L 300 860 L 320 860 L 340 860 L 360 860 L 380 860 L 400 860 L 420 860 L 440 860 L 460 860 L 480 860 L 500 860 L 520 860 L 540 860 L 560 860 L 580 860 L 600 860 L 620 860 L 640 860 L 660 860 L 680 860 L 700 860 L 720 860 L 720 880 L 720 900 L 740 900 L 740 880 L 740 860 L 740 840 L 740 820 L 740 800 L 740 780 L 740 760 L 740 740 L 740 720 L 740 700 L 740 680 L 740 660 L 740 640 L 720 640 z M 720 900 L 700 900 L 680 900 L 660 900 L 640 900 L 620 900 L 600 900 L 580 900 L 560 900 L 540 900 L 520 900 L 500 900 L 480 900 L 460 900 L 440 900 L 420 900 L 400 900 L 380 900 L 360 900 L 340 900 L 320 900 L 300 900 L 280 900 L 260 900 L 240 900 L 220 900 L 200 900 L 180 900 L 160 900 L 140 900 L 120 900 L 100 900 L 80 900 L 80 920 L 100 920 L 120 920 L 140 920 L 160 920 L 180 920 L 200 920 L 220 920 L 240 920 L 260 920 L 280 920 L 300 920 L 320 920 L 340 920 L 360 920 L 380 920 L 400 920 L 420 920 L 440 920 L 460 920 L 480 920 L 500 920 L 520 920 L 540 920 L 560 920 L 580 920 L 600 920 L 620 920 L 640 920 L 660 920 L 680 920 L 700 920 L 720 920 L 720 900 z M 60 660 L 60 680 L 80 680 L 100 680 L 120 680 L 140 680 L 160 680 L 180 680 L 200 680 L 220 680 L 240 680 L 260 680 L 280 680 L 300 680 L 320 680 L 340 680 L 360 680 L 380 680 L 400 680 L 420 680 L 420 660 L 400 660 L 380 660 L 360 660 L 340 660 L 320 660 L 300 660 L 280 660 L 260 660 L 240 660 L 220 660 L 200 660 L 180 660 L 160 660 L 140 660 L 120 660 L 100 660 L 80 660 L 60 660 z M 60 760 L 60 780 L 80 780 L 100 780 L 120 780 L 140 780 L 160 780 L 180 780 L 200 780 L 220 780 L 240 780 L 260 780 L 280 780 L 300 780 L 320 780 L 320 760 L 300 760 L 280 760 L 260 760 L 240 760 L 220 760 L 200 760 L 180 760 L 160 760 L 140 760 L 120 760 L 100 760 L 80 760 L 60 760 z "
     style="fill:#c0c0c0" />
  <path
     id="rect3858"
     d="M 80 20 L 80 40 L 60 40 L 60 60 L 80 60 L 100 60 L 100 40 L 120 40 L 120 60 L 140 60 L 160 60 L 180 60 L 180 40 L 200 40 L 200 60 L 220 60 L 240 60 L 260 60 L 280 60 L 280 40 L 300 40 L 300 60 L 320 60 L 340 60 L 360 60 L 360 40 L 380 40 L 380 60 L 400 60 L 420 60 L 440 60 L 460 60 L 460 40 L 480 40 L 480 60 L 500 60 L 520 60 L 540 60 L 540 40 L 560 40 L 560 60 L 580 60 L 600 60 L 620 60 L 640 60 L 640 40 L 660 40 L 660 60 L 680 60 L 700 60 L 720 60 L 720 40 L 740 40 L 740 60 L 720 60 L 720 80 L 720 100 L 720 120 L 740 120 L 740 140 L 740 160 L 740 180 L 740 200 L 740 220 L 740 240 L 740 260 L 740 280 L 760 280 L 760 260 L 760 240 L 760 220 L 760 200 L 760 180 L 760 160 L 760 140 L 760 120 L 760 100 L 760 80 L 760 60 L 760 40 L 760 20 L 740 20 L 720 20 L 700 20 L 680 20 L 660 20 L 640 20 L 620 20 L 600 20 L 580 20 L 560 20 L 540 20 L 520 20 L 500 20 L 480 20 L 460 20 L 440 20 L 420 20 L 400 20 L 380 20 L 360 20 L 340 20 L 320 20 L 300 20 L 280 20 L 260 20 L 240 20 L 220 20 L 200 20 L 180 20 L 160 20 L 140 20 L 120 20 L 100 20 L 80 20 z M 60 60 L 40 60 L 40 80 L 40 100 L 40 120 L 40 140 L 40 160 L 40 180 L 40 200 L 40 220 L 40 240 L 40 260 L 40 280 L 40 300 L 40 320 L 40 340 L 40 360 L 40 380 L 40 400 L 40 420 L 40 440 L 40 460 L 40 480 L 40 500 L 40 520 L 40 540 L 40 560 L 40 580 L 40 600 L 40 620 L 40 640 L 40 660 L 40 680 L 40 700 L 40 720 L 40 740 L 40 760 L 40 780 L 40 800 L 40 820 L 40 840 L 40 860 L 40 880 L 40 900 L 60 900 L 60 880 L 60 860 L 60 840 L 60 820 L 60 800 L 60 780 L 60 760 L 60 740 L 60 720 L 60 700 L 60 680 L 60 660 L 60 640 L 60 620 L 60 600 L 60 580 L 60 560 L 60 540 L 60 520 L 60 500 L 60 480 L 60 460 L 60 440 L 60 420 L 60 400 L 60 380 L 60 360 L 60 340 L 60 320 L 60 300 L 60 280 L 60 260 L 60 240 L 60 220 L 60 200 L 60 180 L 60 160 L 60 140 L 60 120 L 60 100 L 60 80 L 60 60 z M 60 900 L 60 920 L 80 920 L 80 900 L 60 900 z M 80 920 L 80 940 L 100 940 L 120 940 L 140 940 L 160 940 L 180 940 L 200 940 L 220 940 L 240 940 L 260 940 L 280 940 L 300 940 L 320 940 L 340 940 L 360 940 L 380 940 L 400 940 L 420 940 L 440 940 L 460 940 L 480 940 L 500 940 L 520 940 L 540 940 L 560 940 L 580 940 L 600 940 L 620 940 L 640 940 L 660 940 L 680 940 L 700 940 L 700 920 L 680 920 L 660 920 L 640 920 L 620 920 L 600 920 L 580 920 L 560 920 L 540 920 L 520 920 L 500 920 L 480 920 L 460 920 L 440 920 L 420 920 L 400 920 L 380 920 L 360 920 L 340 920 L 320 920 L 300 920 L 280 920 L 260 920 L 240 920 L 220 920 L 200 920 L 180 920 L 160 920 L 140 920 L 120 920 L 100 920 L 80 920 z M 800 80 L 800 100 L 800 120 L 800 140 L 800 160 L 800 180 L 800 200 L 800 220 L 820 220 L 820 200 L 820 180 L 820 160 L 820 140 L 820 120 L 820 100 L 820 80 L 800 80 z M 720 300 L 720 320 L 740 320 L 740 300 L 720 300 z M 800 600 L 800 620 L 800 640 L 800 660 L 800 680 L 800 700 L 800 720 L 800 740 L 800 760 L 800 780 L 800 800 L 800 820 L 800 840 L 800 860 L 800 880 L 820 880 L 820 860 L 820 840 L 820 820 L 820 800 L 820 780 L 820 760 L 820 740 L 820 720 L 820 700 L 820 680 L 820 660 L 820 640 L 820 620 L 820 600 L 800 600 z M 740 620 L 740 640 L 740 660 L 740 680 L 740 700 L 740 720 L 740 740 L 740 760 L 740 780 L 740 800 L 740 820 L 740 840 L 740 860 L 740 880 L 760 880 L 760 860 L 760 840 L 760 820 L 760 800 L 760 780 L 760 760 L 760 740 L 760 720 L 760 700 L 760 680 L 760 660 L 760 640 L 760 620 L 740 620 z M 760 880 L 760 900 L 780 900 L 780 880 L 760 880 z M 500 680 L 500 700 L 500 720 L 520 720 L 520 700 L 540 700 L 560 700 L 580 700 L 600 700 L 620 700 L 640 700 L 660 700 L 660 680 L 640 680 L 620 680 L 600 680 L 580 680 L 560 680 L 540 680 L 520 680 L 500 680 z "
     style="fill:#808080" />
  <path
     id="rect3938"
     d="M 80 0 L 80 20 L 100 20 L 120 20 L 140 20 L 140 0 L 120 0 L 100 0 L 80 0 z M 180 0 L 180 20 L 200 20 L 220 20 L 240 20 L 240 0 L 220 0 L 200 0 L 180 0 z M 280 0 L 280 20 L 300 20 L 320 20 L 320 0 L 300 0 L 280 0 z M 360 0 L 360 20 L 380 20 L 400 20 L 420 20 L 420 0 L 400 0 L 380 0 L 360 0 z M 460 0 L 460 20 L 480 20 L 500 20 L 500 0 L 480 0 L 460 0 z M 540 0 L 540 20 L 560 20 L 580 20 L 600 20 L 600 0 L 580 0 L 560 0 L 540 0 z M 640 0 L 640 20 L 660 20 L 680 20 L 680 0 L 660 0 L 640 0 z M 720 0 L 720 20 L 740 20 L 760 20 L 760 0 L 740 0 L 720 0 z M 760 20 L 760 40 L 760 60 L 760 80 L 760 100 L 760 120 L 760 140 L 760 160 L 760 180 L 760 200 L 760 220 L 760 240 L 760 260 L 780 260 L 780 240 L 780 220 L 780 200 L 780 180 L 780 160 L 780 140 L 780 120 L 780 100 L 780 80 L 780 60 L 800 60 L 800 80 L 820 80 L 820 60 L 820 40 L 800 40 L 780 40 L 780 20 L 760 20 z M 820 80 L 820 100 L 820 120 L 820 140 L 820 160 L 820 180 L 820 200 L 840 200 L 840 180 L 840 160 L 840 140 L 840 120 L 840 100 L 840 80 L 820 80 z M 100 60 L 100 80 L 100 100 L 100 120 L 120 120 L 120 100 L 120 80 L 120 60 L 100 60 z M 180 60 L 180 80 L 180 100 L 180 120 L 200 120 L 200 100 L 200 80 L 200 60 L 180 60 z M 280 60 L 280 80 L 280 100 L 280 120 L 300 120 L 300 100 L 300 80 L 300 60 L 280 60 z M 360 60 L 360 80 L 360 100 L 360 120 L 380 120 L 380 100 L 380 80 L 380 60 L 360 60 z M 460 60 L 460 80 L 460 100 L 460 120 L 480 120 L 480 100 L 480 80 L 480 60 L 460 60 z M 540 60 L 540 80 L 540 100 L 540 120 L 560 120 L 560 100 L 560 80 L 560 60 L 540 60 z M 640 60 L 640 80 L 640 100 L 640 120 L 660 120 L 660 100 L 660 80 L 660 60 L 640 60 z M 700 360 L 700 380 L 680 380 L 680 400 L 660 400 L 660 420 L 660 440 L 660 460 L 660 480 L 680 480 L 680 500 L 700 500 L 700 520 L 720 520 L 720 540 L 740 540 L 740 560 L 760 560 L 760 580 L 760 600 L 740 600 L 720 600 L 720 620 L 700 620 L 700 640 L 680 640 L 680 660 L 660 660 L 640 660 L 620 660 L 600 660 L 580 660 L 560 660 L 540 660 L 540 680 L 560 680 L 580 680 L 600 680 L 620 680 L 640 680 L 660 680 L 680 680 L 700 680 L 700 660 L 720 660 L 720 640 L 740 640 L 740 620 L 760 620 L 760 640 L 760 660 L 760 680 L 760 700 L 760 720 L 760 740 L 760 760 L 760 780 L 760 800 L 760 820 L 760 840 L 760 860 L 760 880 L 780 880 L 780 860 L 780 840 L 780 820 L 780 800 L 780 780 L 780 760 L 780 740 L 780 720 L 780 700 L 780 680 L 780 660 L 780 640 L 780 620 L 780 600 L 800 600 L 820 600 L 820 620 L 820 640 L 820 660 L 820 680 L 820 700 L 820 720 L 820 740 L 820 760 L 820 780 L 820 800 L 820 820 L 820 840 L 820 860 L 820 880 L 840 880 L 840 860 L 840 840 L 840 820 L 840 800 L 840 780 L 840 760 L 840 740 L 840 720 L 840 700 L 840 680 L 840 660 L 840 640 L 840 620 L 840 600 L 840 580 L 840 560 L 840 540 L 860 540 L 860 520 L 880 520 L 880 500 L 860 500 L 840 500 L 840 480 L 820 480 L 820 460 L 800 460 L 800 440 L 780 440 L 780 420 L 760 420 L 740 420 L 720 420 L 720 440 L 700 440 L 700 420 L 720 420 L 720 400 L 740 400 L 740 380 L 740 360 L 720 360 L 700 360 z M 880 500 L 900 500 L 900 480 L 880 480 L 880 500 z M 900 480 L 920 480 L 920 460 L 900 460 L 900 480 z M 820 880 L 800 880 L 800 900 L 780 900 L 780 920 L 760 920 L 760 900 L 760 880 L 740 880 L 740 900 L 720 900 L 720 920 L 700 920 L 700 940 L 680 940 L 660 940 L 640 940 L 620 940 L 600 940 L 580 940 L 560 940 L 540 940 L 520 940 L 500 940 L 480 940 L 460 940 L 440 940 L 420 940 L 400 940 L 380 940 L 360 940 L 340 940 L 320 940 L 300 940 L 280 940 L 260 940 L 240 940 L 220 940 L 200 940 L 180 940 L 160 940 L 140 940 L 120 940 L 100 940 L 80 940 L 80 960 L 100 960 L 120 960 L 140 960 L 160 960 L 180 960 L 200 960 L 220 960 L 240 960 L 260 960 L 280 960 L 300 960 L 320 960 L 340 960 L 360 960 L 380 960 L 400 960 L 420 960 L 440 960 L 460 960 L 480 960 L 500 960 L 520 960 L 540 960 L 560 960 L 580 960 L 600 960 L 620 960 L 640 960 L 660 960 L 680 960 L 700 960 L 720 960 L 740 960 L 760 960 L 780 960 L 780 940 L 800 940 L 800 920 L 820 920 L 820 900 L 820 880 z M 440 700 L 440 720 L 420 720 L 400 720 L 400 740 L 380 740 L 360 740 L 360 760 L 340 760 L 320 760 L 320 780 L 340 780 L 360 780 L 380 780 L 380 760 L 400 760 L 420 760 L 420 740 L 440 740 L 460 740 L 460 720 L 480 720 L 500 720 L 500 700 L 480 700 L 460 700 L 440 700 z "
     style="fill:#000000" />
</svg>
