<?xml version="1.0" encoding="UTF-8" standalone="no"?>
<svg
   xmlns:dc="http://purl.org/dc/elements/1.1/"
   xmlns:cc="http://creativecommons.org/ns#"
   xmlns:rdf="http://www.w3.org/1999/02/22-rdf-syntax-ns#"
   xmlns:svg="http://www.w3.org/2000/svg"
   xmlns="http://www.w3.org/2000/svg"
   height="960px"
   version="1.1"
   width="960px"
   id="svg2134">
  <metadata
     id="metadata2138">
    <rdf:RDF>
      <cc:Work
         rdf:about="">
        <dc:format>image/svg+xml</dc:format>
        <dc:type
           rdf:resource="http://purl.org/dc/dcmitype/StillImage" />
      </cc:Work>
    </rdf:RDF>
  </metadata>
  <defs
     id="defs2" />
  <path
     id="rect126"
     d="M 380 180 L 380 200 L 400 200 L 420 200 L 420 180 L 400 180 L 380 180 z M 520 180 L 520 200 L 540 200 L 560 200 L 560 180 L 540 180 L 520 180 z "
     style="fill:#ffffff" />
  <path
     id="rect1312"
     d="M 360 400 L 360 420 L 380 420 L 380 400 L 360 400 z M 380 420 L 380 440 L 400 440 L 400 420 L 380 420 z M 400 440 L 400 460 L 420 460 L 420 440 L 400 440 z M 420 440 L 440 440 L 440 420 L 420 420 L 420 440 z M 440 440 L 440 460 L 460 460 L 460 440 L 440 440 z M 440 460 L 420 460 L 420 480 L 440 480 L 440 460 z M 440 480 L 440 500 L 460 500 L 460 480 L 440 480 z M 440 500 L 420 500 L 420 480 L 400 480 L 400 460 L 380 460 L 380 480 L 360 480 L 360 500 L 340 500 L 340 520 L 360 520 L 360 540 L 380 540 L 380 560 L 400 560 L 400 540 L 420 540 L 420 520 L 440 520 L 440 500 z M 440 520 L 440 540 L 460 540 L 460 520 L 440 520 z M 440 540 L 420 540 L 420 560 L 440 560 L 440 540 z M 420 560 L 400 560 L 400 580 L 420 580 L 420 560 z M 420 580 L 420 600 L 440 600 L 440 580 L 420 580 z M 420 600 L 400 600 L 400 620 L 420 620 L 420 600 z M 400 600 L 400 580 L 380 580 L 380 600 L 400 600 z M 380 580 L 380 560 L 360 560 L 360 580 L 380 580 z M 360 560 L 360 540 L 340 540 L 340 560 L 360 560 z M 380 460 L 380 440 L 360 440 L 360 460 L 380 460 z M 580 520 L 580 540 L 600 540 L 600 520 L 580 520 z M 580 540 L 560 540 L 560 560 L 580 560 L 580 540 z M 580 560 L 580 580 L 600 580 L 600 560 L 580 560 z M 600 580 L 600 600 L 620 600 L 620 580 L 600 580 z M 600 600 L 580 600 L 580 620 L 600 620 L 600 600 z M 580 600 L 580 580 L 560 580 L 560 600 L 580 600 z M 560 600 L 540 600 L 540 620 L 560 620 L 560 600 z M 560 580 L 560 560 L 540 560 L 540 580 L 560 580 z "
     style="fill:#ff00ff" />
  <path
     id="rect2074"
     d="M 340 260 L 340 280 L 360 280 L 380 280 L 400 280 L 420 280 L 420 260 L 400 260 L 380 260 L 360 260 L 340 260 z M 500 260 L 500 280 L 520 280 L 540 280 L 560 280 L 580 280 L 600 280 L 620 280 L 620 260 L 600 260 L 580 260 L 560 260 L 540 260 L 520 260 L 500 260 z M 300 280 L 300 300 L 320 300 L 320 280 L 300 280 z M 300 300 L 280 300 L 280 320 L 300 320 L 300 300 z M 460 300 L 460 320 L 480 320 L 500 320 L 520 320 L 520 300 L 500 300 L 480 300 L 460 300 z M 300 400 L 300 420 L 320 420 L 320 400 L 300 400 z M 300 420 L 280 420 L 280 440 L 280 460 L 280 480 L 280 500 L 300 500 L 300 480 L 300 460 L 300 440 L 300 420 z M 660 400 L 660 420 L 680 420 L 680 400 L 660 400 z M 680 420 L 680 440 L 680 460 L 680 480 L 680 500 L 700 500 L 700 480 L 700 460 L 700 440 L 700 420 L 680 420 z M 740 400 L 740 420 L 740 440 L 760 440 L 760 420 L 760 400 L 740 400 z M 200 420 L 200 440 L 200 460 L 220 460 L 220 440 L 220 420 L 200 420 z M 620 420 L 620 440 L 620 460 L 620 480 L 620 500 L 640 500 L 640 480 L 640 460 L 640 440 L 640 420 L 620 420 z M 340 440 L 340 460 L 340 480 L 340 500 L 360 500 L 360 480 L 360 460 L 360 440 L 340 440 z M 460 460 L 460 480 L 460 500 L 460 520 L 460 540 L 460 560 L 460 580 L 460 600 L 460 620 L 460 640 L 460 660 L 460 680 L 460 700 L 460 720 L 460 740 L 460 760 L 460 780 L 460 800 L 460 820 L 460 840 L 480 840 L 480 820 L 480 800 L 480 780 L 480 760 L 480 740 L 480 720 L 480 700 L 480 680 L 480 660 L 480 640 L 480 620 L 480 600 L 480 580 L 480 560 L 480 540 L 480 520 L 480 500 L 480 480 L 480 460 L 460 460 z M 500 460 L 500 480 L 500 500 L 500 520 L 500 540 L 500 560 L 500 580 L 500 600 L 500 620 L 520 620 L 520 600 L 520 580 L 520 560 L 520 540 L 520 520 L 520 500 L 520 480 L 520 460 L 500 460 z M 340 640 L 340 660 L 360 660 L 380 660 L 380 640 L 360 640 L 340 640 z M 380 660 L 380 680 L 380 700 L 380 720 L 380 740 L 400 740 L 400 720 L 400 700 L 400 680 L 400 660 L 380 660 z M 380 740 L 360 740 L 340 740 L 340 760 L 360 760 L 380 760 L 380 740 z M 340 740 L 340 720 L 340 700 L 340 680 L 340 660 L 320 660 L 320 680 L 320 700 L 320 720 L 320 740 L 340 740 z M 600 640 L 600 660 L 620 660 L 640 660 L 640 640 L 620 640 L 600 640 z M 640 660 L 640 680 L 640 700 L 640 720 L 640 740 L 660 740 L 660 720 L 660 700 L 660 680 L 660 660 L 640 660 z M 640 740 L 620 740 L 600 740 L 600 760 L 620 760 L 640 760 L 640 740 z M 600 740 L 600 720 L 600 700 L 600 680 L 600 660 L 580 660 L 580 680 L 580 700 L 580 720 L 580 740 L 600 740 z M 220 720 L 220 740 L 240 740 L 240 760 L 260 760 L 260 740 L 260 720 L 240 720 L 220 720 z M 720 720 L 720 740 L 740 740 L 740 720 L 720 720 z M 520 860 L 520 880 L 540 880 L 540 860 L 520 860 z "
     style="fill:#800000" />
  <path
     id="rect2098"
     d="M 320 260 L 320 280 L 320 300 L 300 300 L 300 320 L 280 320 L 260 320 L 260 340 L 260 360 L 240 360 L 240 380 L 240 400 L 220 400 L 220 420 L 220 440 L 220 460 L 200 460 L 200 480 L 200 500 L 200 520 L 200 540 L 200 560 L 200 580 L 200 600 L 200 620 L 200 640 L 200 660 L 220 660 L 220 680 L 220 700 L 220 720 L 240 720 L 260 720 L 260 740 L 260 760 L 260 780 L 280 780 L 280 800 L 300 800 L 300 820 L 320 820 L 320 840 L 340 840 L 340 860 L 360 860 L 380 860 L 380 880 L 400 880 L 420 880 L 420 900 L 440 900 L 460 900 L 460 880 L 460 860 L 460 840 L 460 820 L 460 800 L 460 780 L 460 760 L 460 740 L 460 720 L 460 700 L 460 680 L 460 660 L 460 640 L 460 620 L 460 600 L 460 580 L 460 560 L 460 540 L 440 540 L 440 560 L 420 560 L 420 580 L 440 580 L 440 600 L 420 600 L 420 620 L 400 620 L 400 600 L 380 600 L 380 580 L 360 580 L 360 560 L 340 560 L 340 540 L 360 540 L 360 520 L 340 520 L 340 500 L 320 500 L 300 500 L 280 500 L 280 480 L 280 460 L 280 440 L 280 420 L 300 420 L 300 400 L 320 400 L 320 420 L 340 420 L 340 440 L 360 440 L 380 440 L 380 420 L 360 420 L 360 400 L 380 400 L 380 420 L 400 420 L 400 440 L 420 440 L 420 420 L 440 420 L 440 440 L 460 440 L 460 460 L 480 460 L 480 440 L 480 420 L 480 400 L 480 380 L 460 380 L 460 360 L 440 360 L 440 340 L 440 320 L 460 320 L 460 300 L 480 300 L 500 300 L 520 300 L 520 320 L 540 320 L 540 340 L 540 360 L 520 360 L 520 380 L 500 380 L 500 400 L 500 420 L 500 440 L 500 460 L 520 460 L 520 480 L 520 500 L 520 520 L 520 540 L 520 560 L 520 580 L 520 600 L 520 620 L 520 640 L 520 660 L 520 680 L 520 700 L 520 720 L 520 740 L 520 760 L 520 780 L 520 800 L 520 820 L 520 840 L 520 860 L 540 860 L 540 880 L 520 880 L 520 900 L 540 900 L 560 900 L 560 880 L 580 880 L 600 880 L 600 860 L 620 860 L 620 840 L 640 840 L 660 840 L 660 820 L 680 820 L 680 800 L 700 800 L 700 780 L 700 760 L 720 760 L 720 740 L 720 720 L 740 720 L 740 700 L 760 700 L 760 680 L 760 660 L 760 640 L 760 620 L 780 620 L 780 600 L 780 580 L 780 560 L 780 540 L 780 520 L 780 500 L 780 480 L 760 480 L 760 460 L 760 440 L 740 440 L 740 420 L 740 400 L 740 380 L 740 360 L 720 360 L 720 340 L 700 340 L 700 320 L 680 320 L 680 300 L 660 300 L 660 280 L 640 280 L 640 260 L 620 260 L 620 280 L 600 280 L 580 280 L 560 280 L 540 280 L 520 280 L 500 280 L 480 280 L 460 280 L 440 280 L 420 280 L 400 280 L 380 280 L 360 280 L 340 280 L 340 260 L 320 260 z M 460 460 L 440 460 L 440 480 L 460 480 L 460 460 z M 440 480 L 420 480 L 420 500 L 440 500 L 440 480 z M 440 500 L 440 520 L 460 520 L 460 500 L 440 500 z M 440 520 L 420 520 L 420 540 L 440 540 L 440 520 z M 420 540 L 400 540 L 400 560 L 420 560 L 420 540 z M 400 560 L 380 560 L 380 580 L 400 580 L 400 560 z M 400 580 L 400 600 L 420 600 L 420 580 L 400 580 z M 380 560 L 380 540 L 360 540 L 360 560 L 380 560 z M 420 480 L 420 460 L 400 460 L 400 480 L 420 480 z M 400 460 L 400 440 L 380 440 L 380 460 L 400 460 z M 380 460 L 360 460 L 360 480 L 380 480 L 380 460 z M 420 460 L 440 460 L 440 440 L 420 440 L 420 460 z M 660 400 L 680 400 L 680 420 L 700 420 L 700 440 L 700 460 L 700 480 L 700 500 L 680 500 L 660 500 L 640 500 L 620 500 L 620 480 L 620 460 L 620 440 L 620 420 L 640 420 L 660 420 L 660 400 z M 580 520 L 600 520 L 600 540 L 580 540 L 580 560 L 600 560 L 600 580 L 620 580 L 620 600 L 600 600 L 600 620 L 580 620 L 580 600 L 560 600 L 560 620 L 540 620 L 540 600 L 560 600 L 560 580 L 540 580 L 540 560 L 560 560 L 560 540 L 580 540 L 580 520 z M 560 560 L 560 580 L 580 580 L 580 560 L 560 560 z M 580 580 L 580 600 L 600 600 L 600 580 L 580 580 z M 340 640 L 360 640 L 380 640 L 380 660 L 400 660 L 400 680 L 400 700 L 400 720 L 400 740 L 380 740 L 380 760 L 360 760 L 340 760 L 340 740 L 320 740 L 320 720 L 320 700 L 320 680 L 320 660 L 340 660 L 340 640 z M 600 640 L 620 640 L 640 640 L 640 660 L 660 660 L 660 680 L 660 700 L 660 720 L 660 740 L 640 740 L 640 760 L 620 760 L 600 760 L 600 740 L 580 740 L 580 720 L 580 700 L 580 680 L 580 660 L 600 660 L 600 640 z "
     style="fill:#ff0000" />
  <path
     id="rect2126"
     d="M 380 200 L 380 220 L 400 220 L 420 220 L 420 200 L 400 200 L 380 200 z M 540 200 L 540 220 L 560 220 L 560 200 L 540 200 z M 720 340 L 720 360 L 740 360 L 740 340 L 720 340 z M 800 360 L 800 380 L 820 380 L 820 360 L 800 360 z M 740 380 L 740 400 L 760 400 L 760 380 L 740 380 z M 780 440 L 780 460 L 800 460 L 800 440 L 780 440 z M 780 500 L 780 520 L 780 540 L 780 560 L 780 580 L 780 600 L 800 600 L 800 580 L 800 560 L 800 540 L 800 520 L 800 500 L 780 500 z M 760 640 L 760 660 L 760 680 L 780 680 L 780 660 L 780 640 L 760 640 z M 860 660 L 860 680 L 880 680 L 880 660 L 860 660 z M 900 680 L 900 700 L 920 700 L 920 680 L 900 680 z M 920 700 L 920 720 L 920 740 L 940 740 L 940 720 L 940 700 L 920 700 z M 920 740 L 900 740 L 880 740 L 880 760 L 900 760 L 920 760 L 920 740 z M 740 700 L 740 720 L 760 720 L 760 700 L 740 700 z M 760 720 L 760 740 L 780 740 L 780 720 L 760 720 z M 780 740 L 780 760 L 800 760 L 800 740 L 780 740 z M 820 700 L 820 720 L 840 720 L 840 700 L 820 700 z M 720 760 L 720 780 L 740 780 L 740 760 L 720 760 z M 680 800 L 680 820 L 700 820 L 700 800 L 680 800 z M 720 800 L 720 820 L 740 820 L 740 800 L 720 800 z M 780 800 L 780 820 L 800 820 L 800 800 L 780 800 z M 780 820 L 760 820 L 760 840 L 780 840 L 780 820 z M 740 860 L 740 880 L 760 880 L 760 860 L 740 860 z M 740 920 L 740 940 L 760 940 L 760 920 L 740 920 z "
     style="fill:#c0c0c0" />
  <path
     id="rect2128"
     d="M 340 40 L 340 60 L 340 80 L 360 80 L 360 60 L 360 40 L 340 40 z M 360 80 L 360 100 L 360 120 L 380 120 L 380 140 L 400 140 L 420 140 L 420 120 L 400 120 L 400 100 L 380 100 L 380 80 L 360 80 z M 580 40 L 580 60 L 580 80 L 600 80 L 600 60 L 600 40 L 580 40 z M 580 80 L 560 80 L 560 100 L 560 120 L 580 120 L 580 100 L 580 80 z M 560 120 L 540 120 L 540 140 L 560 140 L 560 120 z M 240 100 L 240 120 L 260 120 L 260 100 L 240 100 z M 260 120 L 260 140 L 280 140 L 280 120 L 260 120 z M 200 120 L 200 140 L 220 140 L 220 120 L 200 120 z M 400 160 L 400 180 L 420 180 L 420 160 L 400 160 z M 520 160 L 520 180 L 540 180 L 540 160 L 520 160 z M 340 180 L 340 200 L 360 200 L 360 180 L 340 180 z M 360 200 L 360 220 L 380 220 L 380 200 L 360 200 z M 560 180 L 560 200 L 560 220 L 580 220 L 580 200 L 580 180 L 560 180 z M 260 220 L 260 240 L 280 240 L 280 220 L 260 220 z M 280 240 L 280 260 L 300 260 L 300 240 L 280 240 z M 300 260 L 300 280 L 320 280 L 320 260 L 300 260 z M 320 260 L 340 260 L 340 240 L 340 220 L 320 220 L 320 240 L 320 260 z M 260 240 L 240 240 L 240 260 L 260 260 L 260 240 z M 620 220 L 620 240 L 620 260 L 640 260 L 640 240 L 640 220 L 620 220 z M 640 260 L 640 280 L 660 280 L 660 260 L 640 260 z M 660 260 L 680 260 L 680 240 L 660 240 L 660 260 z M 680 240 L 700 240 L 700 220 L 680 220 L 680 240 z M 720 220 L 720 240 L 740 240 L 740 220 L 720 220 z M 700 260 L 700 280 L 720 280 L 720 260 L 700 260 z M 700 280 L 680 280 L 680 300 L 680 320 L 700 320 L 700 300 L 700 280 z M 700 320 L 700 340 L 720 340 L 720 320 L 700 320 z M 260 280 L 260 300 L 260 320 L 280 320 L 280 300 L 280 280 L 260 280 z M 240 340 L 240 360 L 260 360 L 260 340 L 240 340 z M 820 360 L 820 380 L 840 380 L 840 360 L 820 360 z M 140 380 L 140 400 L 160 400 L 160 380 L 140 380 z M 220 380 L 220 400 L 240 400 L 240 380 L 220 380 z M 220 400 L 200 400 L 180 400 L 180 420 L 200 420 L 220 420 L 220 400 z M 780 380 L 780 400 L 800 400 L 800 380 L 780 380 z M 800 420 L 800 440 L 820 440 L 820 420 L 800 420 z M 140 440 L 140 460 L 140 480 L 140 500 L 140 520 L 140 540 L 140 560 L 140 580 L 140 600 L 140 620 L 140 640 L 160 640 L 160 620 L 160 600 L 160 580 L 160 560 L 160 540 L 160 520 L 160 500 L 160 480 L 160 460 L 160 440 L 140 440 z M 760 440 L 760 460 L 760 480 L 780 480 L 780 460 L 780 440 L 760 440 z M 760 620 L 760 640 L 780 640 L 780 620 L 760 620 z M 820 660 L 820 680 L 820 700 L 840 700 L 840 680 L 840 660 L 820 660 z M 840 700 L 840 720 L 860 720 L 860 700 L 840 700 z M 860 720 L 860 740 L 880 740 L 880 720 L 860 720 z M 880 680 L 880 700 L 900 700 L 900 680 L 880 680 z M 40 700 L 40 720 L 60 720 L 80 720 L 80 700 L 60 700 L 40 700 z M 120 700 L 120 720 L 140 720 L 140 700 L 120 700 z M 120 720 L 100 720 L 100 740 L 120 740 L 120 720 z M 740 720 L 740 740 L 760 740 L 760 720 L 740 720 z M 760 740 L 760 760 L 780 760 L 780 740 L 760 740 z M 780 760 L 780 780 L 800 780 L 800 760 L 780 760 z M 760 760 L 740 760 L 740 780 L 740 800 L 740 820 L 760 820 L 760 800 L 760 780 L 760 760 z M 740 820 L 720 820 L 720 840 L 740 840 L 740 820 z M 740 840 L 740 860 L 760 860 L 760 840 L 740 840 z M 740 760 L 740 740 L 720 740 L 720 760 L 740 760 z M 720 760 L 700 760 L 700 780 L 720 780 L 720 760 z M 40 740 L 40 760 L 60 760 L 80 760 L 80 740 L 60 740 L 40 740 z M 200 740 L 200 760 L 220 760 L 220 740 L 200 740 z M 220 760 L 220 780 L 240 780 L 260 780 L 260 760 L 240 760 L 220 760 z M 260 780 L 260 800 L 280 800 L 280 780 L 260 780 z M 280 800 L 280 820 L 300 820 L 300 800 L 280 800 z M 300 820 L 300 840 L 320 840 L 320 820 L 300 820 z M 200 760 L 180 760 L 180 780 L 200 780 L 200 760 z M 180 800 L 180 820 L 200 820 L 200 800 L 180 800 z M 220 820 L 220 840 L 240 840 L 240 820 L 220 820 z M 220 840 L 200 840 L 200 860 L 220 860 L 220 840 z M 220 860 L 220 880 L 220 900 L 240 900 L 240 880 L 240 860 L 220 860 z M 220 900 L 200 900 L 200 920 L 220 920 L 220 900 z M 220 920 L 220 940 L 240 940 L 240 920 L 220 920 z M 620 840 L 620 860 L 640 860 L 640 840 L 620 840 z M 700 860 L 700 880 L 700 900 L 720 900 L 720 880 L 720 860 L 700 860 z M 720 900 L 720 920 L 740 920 L 740 900 L 720 900 z M 740 900 L 760 900 L 760 880 L 740 880 L 740 900 z M 780 900 L 780 920 L 800 920 L 800 900 L 780 900 z M 780 920 L 760 920 L 760 940 L 780 940 L 780 920 z "
     style="fill:#808080" />
  <path
     id="rect2132"
     d="M 320 20 L 320 40 L 320 60 L 340 60 L 340 40 L 340 20 L 320 20 z M 600 20 L 600 40 L 600 60 L 620 60 L 620 40 L 620 20 L 600 20 z M 180 100 L 180 120 L 200 120 L 220 120 L 220 140 L 240 140 L 240 160 L 240 180 L 240 200 L 240 220 L 240 240 L 260 240 L 260 220 L 260 200 L 260 180 L 260 160 L 260 140 L 260 120 L 240 120 L 240 100 L 220 100 L 200 100 L 180 100 z M 260 240 L 260 260 L 260 280 L 280 280 L 280 300 L 300 300 L 300 280 L 300 260 L 280 260 L 280 240 L 260 240 z M 720 100 L 720 120 L 720 140 L 720 160 L 720 180 L 720 200 L 720 220 L 740 220 L 740 200 L 740 180 L 740 160 L 740 140 L 760 140 L 760 120 L 780 120 L 780 100 L 760 100 L 740 100 L 720 100 z M 720 220 L 700 220 L 700 240 L 680 240 L 680 260 L 660 260 L 660 280 L 660 300 L 680 300 L 680 280 L 700 280 L 700 260 L 720 260 L 720 240 L 720 220 z M 400 140 L 400 160 L 420 160 L 420 180 L 420 200 L 420 220 L 400 220 L 380 220 L 360 220 L 360 200 L 340 200 L 340 220 L 340 240 L 340 260 L 360 260 L 380 260 L 400 260 L 420 260 L 420 280 L 440 280 L 460 280 L 480 280 L 500 280 L 500 260 L 520 260 L 540 260 L 560 260 L 580 260 L 600 260 L 620 260 L 620 240 L 620 220 L 620 200 L 600 200 L 600 180 L 580 180 L 580 200 L 580 220 L 560 220 L 540 220 L 540 200 L 520 200 L 520 180 L 520 160 L 540 160 L 540 140 L 520 140 L 500 140 L 480 140 L 460 140 L 440 140 L 420 140 L 400 140 z M 540 160 L 540 180 L 560 180 L 580 180 L 580 160 L 560 160 L 540 160 z M 360 200 L 380 200 L 380 180 L 360 180 L 360 200 z M 380 180 L 400 180 L 400 160 L 380 160 L 380 180 z M 440 320 L 440 340 L 440 360 L 460 360 L 460 380 L 480 380 L 480 400 L 480 420 L 480 440 L 480 460 L 480 480 L 480 500 L 480 520 L 480 540 L 480 560 L 480 580 L 480 600 L 480 620 L 480 640 L 480 660 L 480 680 L 480 700 L 480 720 L 480 740 L 480 760 L 480 780 L 480 800 L 480 820 L 480 840 L 460 840 L 460 860 L 480 860 L 500 860 L 520 860 L 520 840 L 520 820 L 520 800 L 520 780 L 520 760 L 520 740 L 520 720 L 520 700 L 520 680 L 520 660 L 520 640 L 520 620 L 500 620 L 500 600 L 500 580 L 500 560 L 500 540 L 500 520 L 500 500 L 500 480 L 500 460 L 500 440 L 500 420 L 500 400 L 500 380 L 520 380 L 520 360 L 540 360 L 540 340 L 540 320 L 520 320 L 500 320 L 480 320 L 460 320 L 440 320 z M 120 380 L 120 400 L 120 420 L 120 440 L 120 460 L 120 480 L 120 500 L 120 520 L 120 540 L 120 560 L 120 580 L 120 600 L 120 620 L 120 640 L 120 660 L 120 680 L 100 680 L 100 700 L 80 700 L 80 720 L 60 720 L 40 720 L 40 740 L 60 740 L 80 740 L 100 740 L 100 720 L 120 720 L 120 700 L 140 700 L 140 680 L 140 660 L 140 640 L 140 620 L 140 600 L 140 580 L 140 560 L 140 540 L 140 520 L 140 500 L 140 480 L 140 460 L 140 440 L 160 440 L 180 440 L 180 460 L 200 460 L 200 440 L 200 420 L 180 420 L 180 400 L 160 400 L 140 400 L 140 380 L 120 380 z M 800 380 L 800 400 L 780 400 L 760 400 L 760 420 L 760 440 L 780 440 L 800 440 L 800 420 L 820 420 L 820 440 L 820 460 L 820 480 L 820 500 L 820 520 L 820 540 L 820 560 L 820 580 L 820 600 L 820 620 L 820 640 L 820 660 L 840 660 L 840 640 L 840 620 L 840 600 L 840 580 L 840 560 L 840 540 L 840 520 L 840 500 L 840 480 L 840 460 L 840 440 L 840 420 L 840 400 L 840 380 L 820 380 L 800 380 z M 840 660 L 840 680 L 840 700 L 860 700 L 860 720 L 880 720 L 880 740 L 900 740 L 920 740 L 920 720 L 920 700 L 900 700 L 880 700 L 880 680 L 860 680 L 860 660 L 840 660 z M 300 420 L 300 440 L 300 460 L 300 480 L 300 500 L 320 500 L 340 500 L 340 480 L 340 460 L 340 440 L 340 420 L 320 420 L 300 420 z M 640 420 L 640 440 L 640 460 L 640 480 L 640 500 L 660 500 L 680 500 L 680 480 L 680 460 L 680 440 L 680 420 L 660 420 L 640 420 z M 340 660 L 340 680 L 340 700 L 340 720 L 340 740 L 360 740 L 380 740 L 380 720 L 380 700 L 380 680 L 380 660 L 360 660 L 340 660 z M 600 660 L 600 680 L 600 700 L 600 720 L 600 740 L 620 740 L 640 740 L 640 720 L 640 700 L 640 680 L 640 660 L 620 660 L 600 660 z M 220 740 L 220 760 L 240 760 L 240 740 L 220 740 z M 220 760 L 200 760 L 200 780 L 180 780 L 180 800 L 200 800 L 200 820 L 200 840 L 220 840 L 220 820 L 220 800 L 220 780 L 220 760 z M 220 840 L 220 860 L 240 860 L 240 840 L 220 840 z M 240 860 L 240 880 L 240 900 L 220 900 L 220 920 L 240 920 L 260 920 L 260 900 L 260 880 L 260 860 L 240 860 z M 220 920 L 200 920 L 180 920 L 180 940 L 200 940 L 220 940 L 220 920 z M 740 740 L 740 760 L 760 760 L 760 740 L 740 740 z M 760 760 L 760 780 L 760 800 L 760 820 L 780 820 L 780 800 L 800 800 L 800 780 L 780 780 L 780 760 L 760 760 z M 760 820 L 740 820 L 740 840 L 760 840 L 760 820 z M 740 840 L 720 840 L 720 860 L 720 880 L 720 900 L 740 900 L 740 880 L 740 860 L 740 840 z M 740 900 L 740 920 L 760 920 L 780 920 L 780 900 L 760 900 L 740 900 z M 780 920 L 780 940 L 800 940 L 820 940 L 820 920 L 800 920 L 780 920 z "
     style="fill:#000000" />
</svg>
