<?xml version="1.0" encoding="UTF-8" standalone="no"?>
<svg
   id="svg3238"
   width="48"
   version="1.1"
   height="48"
   sodipodi:docname="baobab.svg"
   xml:space="preserve"
   inkscape:version="1.3 (0e150ed6c4, 2023-07-21)"
   xmlns:inkscape="http://www.inkscape.org/namespaces/inkscape"
   xmlns:sodipodi="http://sodipodi.sourceforge.net/DTD/sodipodi-0.dtd"
   xmlns="http://www.w3.org/2000/svg"
   xmlns:svg="http://www.w3.org/2000/svg"
   xmlns:rdf="http://www.w3.org/1999/02/22-rdf-syntax-ns#"
   xmlns:cc="http://creativecommons.org/ns#"
   xmlns:dc="http://purl.org/dc/elements/1.1/"><sodipodi:namedview
     id="namedview1"
     pagecolor="#ffffff"
     bordercolor="#000000"
     borderopacity="0.25"
     inkscape:showpageshadow="2"
     inkscape:pageopacity="0.0"
     inkscape:pagecheckerboard="0"
     inkscape:deskcolor="#d1d1d1"
     showgrid="true"
     inkscape:zoom="10.739184"
     inkscape:cx="23.977613"
     inkscape:cy="23.232677"
     inkscape:window-width="1920"
     inkscape:window-height="1008"
     inkscape:window-x="0"
     inkscape:window-y="0"
     inkscape:window-maximized="1"
     inkscape:current-layer="svg3238"><inkscape:grid
       id="grid1"
       units="px"
       originx="0"
       originy="0"
       spacingx="1"
       spacingy="1"
       empcolor="#0099e5"
       empopacity="0.30196078"
       color="#0099e5"
       opacity="0.14901961"
       empspacing="5"
       dotted="false"
       gridanglex="30"
       gridanglez="30"
       visible="true" /></sodipodi:namedview><metadata
     id="metadata3242"><rdf:RDF><cc:Work
         rdf:about=""><dc:format>image/svg+xml</dc:format><dc:type
           rdf:resource="http://purl.org/dc/dcmitype/StillImage" /></cc:Work></rdf:RDF></metadata><defs
     id="defs2" /><g
     id="g2"><path
       style="fill:none"
       d="M 0,44 V 40 H 0.5 1 V 40.5 41 H 1.5 2 v 1 1 H 2.5 3 V 43.5 44 H 4 5 V 44.5 45 H 5.5 6 V 45.5 46 H 7.5 9 V 46.5 47 H 10.5 12 V 47.5 48 H 6 0 Z m 23,3.5 V 47 H 24.5 26 V 46.5 46 H 27.5 29 V 45.5 45 H 29.5 30 V 44.5 44 h 1 1 V 43.5 43 H 32.5 33 V 42 41 H 33.5 34 V 40.5 40 H 34.5 35 V 35.5 31 H 34.5 34 V 30.5 30 H 33.5 33 v -1 -1 h 2 2 V 27.5 27 h 1 1 V 26.5 26 h 1 1 V 25.5 25 h 1 1 V 24.5 24 H 43.5 44 V 23.5 23 H 44.5 45 V 22.5 22 H 45.5 46 V 21.5 21 H 46.5 47 V 20 19 H 47.5 48 V 33.5 48 H 35.5 23 Z M 0,15.5 V 0 H 10 20 V 0.5 1 H 18 16 V 1.5 2 H 15 14 V 2.5 3 H 13 12 V 3.5 4 H 11 10 V 4.5 5 H 9.5 9 V 5.5 6 H 8.5 8 V 6.5 7 H 7.5 7 V 7.5 8 H 6.5 6 v 1 1 H 5.5 5 V 14.5 19 H 5.5 6 v 1 1 H 6.5 7 V 21.5 22 H 7.5 8 V 22.5 23 H 8.5 9 v 1 1 H 7.5 6 V 25.5 26 H 5.5 5 V 26.5 27 H 4 3 V 27.5 28 H 2.5 2 v 1 1 H 1.5 1 V 30.5 31 H 0.5 0 Z M 47,9 V 8 H 46.5 46 V 7.5 7 H 45.5 45 V 6.5 6 H 44.5 44 V 5.5 5 H 43.5 43 V 4.5 4 H 42 41 V 3.5 3 H 40 39 V 2.5 2 H 38 37 V 1.5 1 H 35 33 V 0.5 0 h 7.5 7.5 v 5 5 H 47.5 47 Z"
       id="path7" /><path
       style="fill:#fe00fe"
       d="M 18,39.5 V 35 h 8 8 v 1 1 H 33.5 33 V 37.5 38 H 32.5 32 v 1 1 H 31 30 V 40.5 41 H 29.5 29 V 41.5 42 H 27.5 26 V 42.5 43 H 24.5 23 V 43.5 44 H 20.5 18 Z m 2,-16 V 23 H 18 16 V 22.5 22 H 15 14 V 21.5 21 H 13 12 V 20.5 20 H 11 10 V 19.5 19 H 9.5 9 V 18.5 18 H 8.5 8 V 17.5 17 H 7.5 7 V 16 15 H 6.5 6 V 12.5 10 H 6.5 7 V 9 8 H 7.5 8 V 7.5 7 H 8.5 9 V 6.5 6 H 9.5 10 V 5.5 5 h 1 1 V 4.5 4 h 1 1 V 3.5 3 H 15.5 17 V 3.5 4 H 17.5 18 V 4.5 5 H 18.5 19 V 5.5 6 H 19.5 20 V 6.5 7 H 20.5 21 V 7.5 8 H 21.5 22 V 8.5 9 H 22.5 23 V 9.5 10 H 23.5 24 V 10.5 11 H 24.5 25 V 11.5 12 H 25.5 26 V 12.5 13 H 36.5 47 v 1 1 H 46.5 46 v 1 1 H 45.5 45 V 17.5 18 H 44.5 44 V 18.5 19 H 43.5 43 V 19.5 20 H 42 41 V 20.5 21 H 40 39 V 21.5 22 H 38 37 V 22.5 23 H 35 33 V 23.5 24 H 26.5 20 Z"
       id="path6" /><path
       style="fill:#0000fe"
       d="M 12,43.5 V 43 H 10.5 9 V 42.5 42 H 7.5 6 V 41.5 41 H 5.5 5 V 40.5 40 H 4 3 V 39 38 H 2.5 2 V 37.5 37 H 1.5 1 V 34 31 H 1.5 2 V 30.5 30 H 2.5 3 V 29 28 H 4 5 V 27.5 27 H 5.5 6 V 26.5 26 H 7.5 9 V 25.5 25 H 9.5 10 v 0.5 0.5 h 1 1 v 0.5 0.5 h 1 1 v 0.5 0.5 h 1 1 v 0.5 0.5 h 2 2 V 29.5 30 H 26.5 33 V 30.5 31 H 33.5 34 V 32.5 34 H 25.5 17 v 5 5 H 14.5 12 Z m 14,-32 V 11 H 25.5 25 V 10.5 10 H 24.5 24 V 9.5 9 H 23.5 23 V 8.5 8 H 22.5 22 V 7.5 7 H 21.5 21 V 6.5 6 H 20.5 20 V 5.5 5 H 19.5 19 V 4.5 4 H 18.5 18 V 3.5 3 H 17.5 17 V 2.5 2 H 18.5 20 V 1.5 1 H 26.5 33 V 1.5 2 h 2 2 V 2.5 3 h 1 1 V 3.5 4 h 1 1 V 4.5 5 h 1 1 V 5.5 6 H 43.5 44 V 6.5 7 H 44.5 45 V 7.5 8 h 0.5 0.5 v 1 1 h 0.5 0.5 v 1 1 H 36.5 26 Z"
       id="path5" /><path
       style="fill:#7f007f"
       d="M 18,46 V 45 H 20.5 23 V 44.5 44 H 24.5 26 V 43.5 43 H 27.5 29 V 42.5 42 H 29.5 30 V 41.5 41 h 1 1 V 40.5 40 h 0.5 0.5 v -1 -1 h 0.5 0.5 v 1 1 H 33.5 33 V 40.5 41 H 32.5 32 v 1 1 H 31 30 V 43.5 44 H 29.5 29 V 44.5 45 H 27.5 26 V 45.5 46 H 24.5 23 V 46.5 47 H 20.5 18 Z M 20,27.5 V 27 H 18 16 V 26.5 26 H 15 14 V 25.5 25 H 13 12 V 24.5 24 H 11 10 V 23.5 23 H 9.5 9 V 22.5 22 H 8.5 8 V 21.5 21 H 7.5 7 V 20 19 H 6.5 6 V 18 17 H 5.5 5 V 13.5 10 H 5.5 6 V 9 8 H 6.5 7 V 7.5 7 H 7.5 8 V 6.5 6 H 8.5 9 V 5.5 5 H 9.5 10 V 4.5 4 h 1 1 V 3.5 3 h 1 1 V 2.5 2 h 1 1 V 2.5 3 H 15 14 V 3.5 4 H 13 12 V 4.5 5 H 11 10 V 5.5 6 H 9.5 9 V 6.5 7 H 8.5 8 V 7.5 8 H 7.5 7 v 1 1 H 6.5 6 V 13.5 17 H 6.5 7 V 17.5 18 H 7.5 8 V 18.5 19 H 8.5 9 V 19.5 20 H 9.5 10 v 0.5 0.5 h 1 1 v 0.5 0.5 h 1 1 v 0.5 0.5 h 1 1 v 0.5 0.5 h 2 2 V 24.5 25 H 26.5 33 V 24.5 24 h 2 2 V 23.5 23 h 1 1 V 22.5 22 h 1 1 V 21.5 21 h 1 1 V 20.5 20 H 43.5 44 V 19.5 19 H 44.5 45 V 18.5 18 H 45.5 46 V 17.5 17 h 0.5 0.5 v 1 1 H 46.5 46 v 1 1 H 45.5 45 V 21.5 22 H 44.5 44 V 22.5 23 H 43.5 43 V 23.5 24 H 42 41 V 24.5 25 H 40 39 V 25.5 26 H 38 37 V 26.5 27 H 35 33 V 27.5 28 H 26.5 20 Z"
       id="path4" /><path
       style="fill:#00007f"
       d="M 12,46.5 V 46 H 10.5 9 V 45.5 45 H 7.5 6 V 44.5 44 H 5.5 5 V 43.5 43 H 4 3 V 42 41 H 2.5 2 V 40.5 40 H 1.5 1 V 39 38 H 0.5 0 V 34.5 31 H 0.5 1 V 30.5 30 H 1.5 2 V 29 28 H 2.5 3 V 27.5 27 H 4 5 V 26.5 26 H 5.5 6 V 25.5 25 H 7.5 9 V 24.5 24 H 9.5 10 v 0.5 0.5 h 1 1 v 0.5 0.5 h 1 1 v 0.5 0.5 h 1 1 v 0.5 0.5 h 2 2 v 0.5 0.5 h 6 6 V 29.5 30 H 26 20 V 29.5 29 H 18 16 V 28.5 28 H 15 14 V 27.5 27 H 13 12 V 26.5 26 H 11 10 V 25.5 25 H 9.5 9 V 25.5 26 H 7.5 6 V 26.5 27 H 5.5 5 V 27.5 28 H 4 3 v 1 1 H 2.5 2 V 30.5 31 H 1.5 1 V 34.5 38 H 1.5 2 v 1 1 H 2.5 3 V 40.5 41 H 4 5 V 41.5 42 H 5.5 6 V 42.5 43 H 7.5 9 v 0.5 0.5 h 1.5 1.5 v 0.5 0.5 h 3 3 v 1 1 H 15 12 Z M 17,39 V 34 H 25.5 34 V 34.5 35 H 26 18 V 39.5 44 H 17.5 17 Z M 26,12.5 V 12 H 25.5 25 V 11.5 11 H 24.5 24 V 10.5 10 H 23.5 23 V 9.5 9 H 22.5 22 V 8.5 8 H 21.5 21 V 7.5 7 H 20.5 20 V 6.5 6 H 19.5 19 V 5.5 5 H 18.5 18 V 4.5 4 H 17.5 17 V 3.5 3 H 16.5 16 V 2 1 h 2 2 V 0.5 0 H 26.5 33 V 0.5 1 h 2 2 V 1.5 2 H 35 33 V 1.5 1 H 26.5 20 V 1.5 2 H 18.5 17 V 2.5 3 H 17.5 18 V 3.5 4 H 18.5 19 V 4.5 5 H 19.5 20 V 5.5 6 H 20.5 21 V 6.5 7 H 21.5 22 V 7.5 8 H 22.5 23 V 8.5 9 H 23.5 24 V 9.5 10 H 24.5 25 V 10.5 11 H 25.5 26 V 11.5 12 H 36.5 47 V 12.5 13 H 36.5 26 Z"
       id="path3" /><path
       style="fill:#000000"
       d="M 12,47.5 V 47 H 10.5 9 V 46.5 46 H 7.5 6 V 45.5 45 H 5.5 5 V 44.5 44 H 4 3 V 43.5 43 H 2.5 2 V 42 41 H 1.5 1 V 40.5 40 H 0.5 0 V 39 38 H 0.5 1 V 37.5 37 H 1.5 2 V 37.5 38 H 2.5 3 v 1 1 H 4 5 V 40.5 41 H 5.5 6 V 41.5 42 H 7.5 9 V 42.5 43 H 10.5 12 V 43.5 44 H 17.5 23 V 43.5 43 H 24.5 26 V 42.5 42 H 27.5 29 V 41.5 41 H 29.5 30 V 40.5 40 h 1 1 V 39 38 H 32.5 33 V 37.5 37 H 33.5 34 V 34 31 H 33.5 33 V 30.5 30 H 32.5 32 V 29.5 29 H 26 20 V 28.5 28 H 18 16 V 27.5 27 H 15 14 V 26.5 26 H 13 12 V 25.5 25 H 11 10 V 24.5 24 H 9.5 9 V 23.5 23 H 8.5 8 V 22.5 22 H 7.5 7 V 21.5 21 H 6.5 6 V 20 19 H 5.5 5 V 18 17 H 5.5 6 V 16 15 H 6.5 7 v 1 1 H 7.5 8 V 17.5 18 H 8.5 9 V 18.5 19 H 9.5 10 v 0.5 0.5 h 1 1 v 0.5 0.5 h 1 1 v 0.5 0.5 h 1 1 v 0.5 0.5 h 2 2 V 23.5 24 H 26.5 33 V 23.5 23 h 2 2 V 22.5 22 h 1 1 V 21.5 21 h 1 1 V 20.5 20 h 1 1 V 19.5 19 H 43.5 44 V 18.5 18 H 44.5 45 V 17.5 17 H 45.5 46 V 16 15 H 46.5 47 V 12.5 10 H 46.5 46 V 9 8 H 45.5 45 V 7.5 7 H 44.5 44 V 6.5 6 H 43.5 43 V 5.5 5 H 42 41 V 4.5 4 H 40 39 V 3.5 3 H 38 37 V 2.5 2 h 1 1 V 2.5 3 h 1 1 V 3.5 4 h 1 1 V 4.5 5 H 43.5 44 V 5.5 6 H 44.5 45 V 6.5 7 H 45.5 46 V 7.5 8 h 0.5 0.5 v 1 1 H 47.5 48 V 14.5 19 H 47.5 47 v 1 1 H 46.5 46 V 21.5 22 H 45.5 45 V 22.5 23 H 44.5 44 V 23.5 24 H 43.5 43 v 0.5 0.5 h -1 -1 v 0.5 0.5 h -1 -1 v 0.5 0.5 h -1 -1 v 0.5 0.5 h -2 -2 v 1 1 H 33.5 34 V 30.5 31 H 34.5 35 V 35.5 40 H 34.5 34 V 40.5 41 H 33.5 33 v 1 1 H 32.5 32 V 43.5 44 H 31 30 V 44.5 45 H 29.5 29 V 45.5 46 H 27.5 26 V 46.5 47 H 24.5 23 V 47.5 48 H 17.5 12 Z m 11,-1 V 46 H 24.5 26 V 45.5 45 H 27.5 29 V 44.5 44 H 29.5 30 V 43.5 43 h 1 1 V 42 41 H 32.5 33 V 40.5 40 H 33.5 34 V 39 38 H 33.5 33 v 1 1 H 32.5 32 V 40.5 41 H 31 30 V 41.5 42 H 29.5 29 V 42.5 43 H 27.5 26 V 43.5 44 H 24.5 23 V 44.5 45 H 17.5 12 V 44.5 44 H 10.5 9 V 43.5 43 H 7.5 6 V 42.5 42 H 5.5 5 V 41.5 41 H 4 3 V 40.5 40 H 2.5 2 V 39 38 H 1.5 1 v 1 1 H 1.5 2 V 40.5 41 H 2.5 3 v 1 1 H 4 5 V 43.5 44 H 5.5 6 V 44.5 45 H 7.5 9 v 0.5 0.5 h 1.5 1.5 v 0.5 0.5 h 5.5 5.5 z m 10,-19 V 27 h 2 2 V 26.5 26 h 1 1 V 25.5 25 h 1 1 V 24.5 24 h 1 1 V 23.5 23 H 43.5 44 V 22.5 22 H 44.5 45 V 21.5 21 H 45.5 46 V 20 19 H 46.5 47 V 18 17 H 46.5 46 V 17.5 18 H 45.5 45 V 18.5 19 H 44.5 44 V 19.5 20 H 43.5 43 V 20.5 21 H 42 41 V 21.5 22 H 40 39 V 22.5 23 H 38 37 V 23.5 24 H 35 33 V 24.5 25 H 26.5 20 V 24.5 24 H 18 16 V 23.5 23 H 15 14 V 22.5 22 H 13 12 V 21.5 21 H 11 10 V 20.5 20 H 9.5 9 V 19.5 19 H 8.5 8 V 18.5 18 H 7.5 7 V 17.5 17 H 6.5 6 v 1 1 H 6.5 7 v 1 1 H 7.5 8 V 21.5 22 H 8.5 9 V 22.5 23 H 9.5 10 v 0.5 0.5 h 1 1 v 0.5 0.5 h 1 1 v 0.5 0.5 h 1 1 v 0.5 0.5 h 2 2 v 0.5 0.5 h 6.5 6.5 z"
       id="path2" /></g></svg>
