<?xml version="1.0" encoding="UTF-8" standalone="no"?>
<svg
   xmlns:dc="http://purl.org/dc/elements/1.1/"
   xmlns:cc="http://creativecommons.org/ns#"
   xmlns:rdf="http://www.w3.org/1999/02/22-rdf-syntax-ns#"
   xmlns:svg="http://www.w3.org/2000/svg"
   xmlns="http://www.w3.org/2000/svg"
   height="900px"
   version="1.1"
   width="960px"
   id="svg4324">
  <metadata
     id="metadata4328">
    <rdf:RDF>
      <cc:Work
         rdf:about="">
        <dc:format>image/svg+xml</dc:format>
        <dc:type
           rdf:resource="http://purl.org/dc/dcmitype/StillImage" />
      </cc:Work>
    </rdf:RDF>
  </metadata>
  <defs
     id="defs2" />
  <path
     id="rect302"
     d="M 80 60 L 80 80 L 100 80 L 120 80 L 120 60 L 100 60 L 80 60 z "
     style="fill:#ff0000" />
  <path
     id="rect398"
     d="M 80 80 L 80 100 L 100 100 L 120 100 L 120 80 L 100 80 L 80 80 z "
     style="fill:#dd0000" />
  <path
     id="rect404"
     d="M 140 80 L 140 100 L 160 100 L 180 100 L 180 80 L 160 80 L 140 80 z "
     style="fill:#dddd00" />
  <path
     id="rect472"
     d="M 620 80 L 620 100 L 640 100 L 660 100 L 680 100 L 680 80 L 660 80 L 640 80 L 620 80 z M 720 80 L 720 100 L 740 100 L 760 100 L 780 100 L 780 80 L 760 80 L 740 80 L 720 80 z M 800 80 L 800 100 L 820 100 L 840 100 L 860 100 L 860 80 L 840 80 L 820 80 L 800 80 z "
     style="fill:#363694" />
  <path
     id="rect476"
     d="M 680 80 L 680 100 L 700 100 L 720 100 L 720 80 L 700 80 L 680 80 z M 780 80 L 780 100 L 800 100 L 800 80 L 780 80 z M 860 80 L 860 100 L 880 100 L 900 100 L 900 80 L 880 80 L 860 80 z "
     style="fill:#00005e" />
  <path
     id="rect496"
     d="M 120 60 L 120 80 L 120 100 L 100 100 L 80 100 L 80 120 L 100 120 L 120 120 L 140 120 L 140 100 L 140 80 L 140 60 L 120 60 z "
     style="fill:#800000" />
  <path
     id="rect686"
     d="M 80 120 L 80 140 L 80 160 L 100 160 L 120 160 L 120 140 L 120 120 L 100 120 L 80 120 z "
     style="fill:#00ffff" />
  <path
     id="rect692"
     d="M 140 120 L 140 140 L 140 160 L 160 160 L 180 160 L 180 140 L 180 120 L 160 120 L 140 120 z "
     style="fill:#00ff00" />
  <path
     id="rect790"
     d="M 180 120 L 180 140 L 180 160 L 160 160 L 140 160 L 140 180 L 160 180 L 180 180 L 200 180 L 200 160 L 200 140 L 200 120 L 180 120 z "
     style="fill:#008000" />
  <path
     id="rect832"
     d="M 60 60 L 60 80 L 60 100 L 60 120 L 60 140 L 60 160 L 60 180 L 80 180 L 80 160 L 80 140 L 80 120 L 80 100 L 80 80 L 80 60 L 60 60 z M 200 60 L 200 80 L 200 100 L 200 120 L 200 140 L 200 160 L 200 180 L 220 180 L 240 180 L 260 180 L 280 180 L 300 180 L 320 180 L 340 180 L 360 180 L 380 180 L 400 180 L 420 180 L 440 180 L 460 180 L 480 180 L 500 180 L 520 180 L 540 180 L 560 180 L 580 180 L 600 180 L 620 180 L 620 160 L 620 140 L 620 120 L 620 100 L 620 80 L 640 80 L 660 80 L 680 80 L 700 80 L 720 80 L 740 80 L 760 80 L 780 80 L 800 80 L 820 80 L 840 80 L 860 80 L 880 80 L 900 80 L 900 60 L 880 60 L 860 60 L 840 60 L 820 60 L 800 60 L 780 60 L 760 60 L 740 60 L 720 60 L 700 60 L 680 60 L 660 60 L 640 60 L 620 60 L 600 60 L 580 60 L 560 60 L 540 60 L 520 60 L 500 60 L 480 60 L 460 60 L 440 60 L 420 60 L 400 60 L 380 60 L 360 60 L 340 60 L 320 60 L 300 60 L 280 60 L 260 60 L 240 60 L 220 60 L 200 60 z "
     style="fill:#000080" />
  <path
     id="rect1566"
     d="M 260 320 L 260 340 L 280 340 L 280 320 L 260 320 z "
     style="fill:#efefef" />
  <path
     id="rect1610"
     d="M 240 320 L 240 340 L 260 340 L 260 320 L 240 320 z M 280 320 L 280 340 L 300 340 L 320 340 L 340 340 L 360 340 L 380 340 L 400 340 L 420 340 L 440 340 L 460 340 L 480 340 L 500 340 L 520 340 L 540 340 L 560 340 L 580 340 L 600 340 L 620 340 L 640 340 L 660 340 L 680 340 L 700 340 L 720 340 L 720 320 L 700 320 L 680 320 L 660 320 L 640 320 L 620 320 L 600 320 L 580 320 L 560 320 L 540 320 L 520 320 L 500 320 L 480 320 L 460 320 L 440 320 L 420 320 L 400 320 L 380 320 L 360 320 L 340 320 L 320 320 L 300 320 L 280 320 z "
     style="fill:#f1f1f1" />
  <path
     id="rect1612"
     d="M 720 320 L 720 340 L 740 340 L 740 320 L 720 320 z "
     style="fill:#2727e2" />
  <path
     id="rect1952"
     d="M 140 60 L 140 80 L 160 80 L 180 80 L 180 60 L 160 60 L 140 60 z M 260 380 L 260 400 L 260 420 L 280 420 L 300 420 L 300 400 L 300 380 L 280 380 L 260 380 z "
     style="fill:#ffff00" />
  <path
     id="rect2050"
     d="M 180 60 L 180 80 L 180 100 L 160 100 L 140 100 L 140 120 L 160 120 L 180 120 L 200 120 L 200 100 L 200 80 L 200 60 L 180 60 z M 300 380 L 300 400 L 300 420 L 280 420 L 260 420 L 260 440 L 280 440 L 300 440 L 320 440 L 320 420 L 320 400 L 320 380 L 300 380 z "
     style="fill:#808000" />
  <path
     id="rect2816"
     d="M 260 480 L 260 500 L 280 500 L 300 500 L 300 480 L 280 480 L 260 480 z M 260 560 L 260 580 L 260 600 L 280 600 L 300 600 L 300 580 L 300 560 L 280 560 L 260 560 z "
     style="fill:#ff00ff" />
  <path
     id="rect2914"
     d="M 300 480 L 300 500 L 280 500 L 260 500 L 260 520 L 260 540 L 280 540 L 300 540 L 320 540 L 320 520 L 320 500 L 320 480 L 300 480 z M 300 560 L 300 580 L 300 600 L 280 600 L 260 600 L 260 620 L 280 620 L 300 620 L 320 620 L 320 600 L 320 580 L 320 560 L 300 560 z "
     style="fill:#800080" />
  <path
     id="rect3006"
     d="M 260 620 L 260 640 L 280 640 L 280 620 L 260 620 z "
     style="fill:#984098" />
  <path
     id="rect3010"
     d="M 280 620 L 280 640 L 300 640 L 320 640 L 320 620 L 300 620 L 280 620 z "
     style="fill:#943694" />
  <path
     id="rect3040"
     d="M 560 620 L 560 640 L 580 640 L 600 640 L 620 640 L 620 620 L 600 620 L 580 620 L 560 620 z "
     style="fill:#363636" />
  <path
     id="rect3050"
     d="M 680 620 L 680 640 L 700 640 L 720 640 L 720 620 L 700 620 L 680 620 z "
     style="fill:#959595" />
  <path
     id="rect3290"
     d="M 200 680 L 200 700 L 220 700 L 240 700 L 240 680 L 220 680 L 200 680 z "
     style="fill:#e2e2e2" />
  <path
     id="rect3294"
     d="M 260 680 L 260 700 L 280 700 L 280 680 L 260 680 z "
     style="fill:#b9b9b9" />
  <path
     id="rect3328"
     d="M 240 680 L 240 700 L 260 700 L 260 680 L 240 680 z M 280 680 L 280 700 L 300 700 L 320 700 L 340 700 L 360 700 L 380 700 L 400 700 L 420 700 L 440 700 L 460 700 L 480 700 L 500 700 L 520 700 L 540 700 L 560 700 L 580 700 L 600 700 L 620 700 L 620 680 L 600 680 L 580 680 L 560 680 L 540 680 L 520 680 L 500 680 L 480 680 L 460 680 L 440 680 L 420 680 L 400 680 L 380 680 L 360 680 L 340 680 L 320 680 L 300 680 L 280 680 z "
     style="fill:#bcbcbc" />
  <path
     id="rect3332"
     d="M 620 680 L 620 700 L 640 700 L 660 700 L 660 680 L 640 680 L 620 680 z "
     style="fill:#272727" />
  <path
     id="rect3334"
     d="M 620 620 L 620 640 L 640 640 L 660 640 L 660 620 L 640 620 L 620 620 z M 660 680 L 660 700 L 680 700 L 680 680 L 660 680 z "
     style="fill:#bbbbbb" />
  <path
     id="rect3338"
     d="M 660 620 L 660 640 L 680 640 L 680 620 L 660 620 z M 680 680 L 680 700 L 700 700 L 720 700 L 720 680 L 700 680 L 680 680 z "
     style="fill:#444444" />
  <path
     id="rect3340"
     d="M 720 680 L 720 700 L 740 700 L 740 680 L 720 680 z "
     style="fill:#6b6b6b" />
  <path
     id="rect3734"
     d="M 120 120 L 120 140 L 120 160 L 100 160 L 80 160 L 80 180 L 100 180 L 120 180 L 140 180 L 140 160 L 140 140 L 140 120 L 120 120 z M 80 240 L 80 260 L 80 280 L 80 300 L 80 320 L 80 340 L 80 360 L 80 380 L 80 400 L 80 420 L 80 440 L 80 460 L 80 480 L 80 500 L 80 520 L 80 540 L 80 560 L 80 580 L 80 600 L 80 620 L 80 640 L 80 660 L 80 680 L 80 700 L 80 720 L 80 740 L 80 760 L 80 780 L 100 780 L 120 780 L 140 780 L 160 780 L 180 780 L 200 780 L 220 780 L 240 780 L 260 780 L 280 780 L 300 780 L 320 780 L 340 780 L 360 780 L 380 780 L 400 780 L 420 780 L 440 780 L 460 780 L 480 780 L 500 780 L 520 780 L 540 780 L 560 780 L 580 780 L 600 780 L 620 780 L 640 780 L 660 780 L 680 780 L 700 780 L 720 780 L 740 780 L 760 780 L 780 780 L 800 780 L 820 780 L 840 780 L 840 760 L 840 740 L 840 720 L 840 700 L 840 680 L 840 660 L 840 640 L 840 620 L 840 600 L 840 580 L 840 560 L 840 540 L 840 520 L 840 500 L 840 480 L 840 460 L 840 440 L 840 420 L 840 400 L 840 380 L 840 360 L 840 340 L 840 320 L 840 300 L 840 280 L 840 260 L 840 240 L 820 240 L 800 240 L 780 240 L 760 240 L 740 240 L 720 240 L 700 240 L 680 240 L 660 240 L 640 240 L 620 240 L 600 240 L 580 240 L 560 240 L 540 240 L 520 240 L 500 240 L 480 240 L 460 240 L 440 240 L 420 240 L 400 240 L 380 240 L 360 240 L 340 240 L 320 240 L 300 240 L 280 240 L 260 240 L 240 240 L 220 240 L 200 240 L 180 240 L 160 240 L 140 240 L 120 240 L 100 240 L 80 240 z M 200 300 L 220 300 L 240 300 L 260 300 L 280 300 L 300 300 L 320 300 L 340 300 L 360 300 L 380 300 L 400 300 L 420 300 L 440 300 L 460 300 L 480 300 L 500 300 L 520 300 L 540 300 L 560 300 L 580 300 L 600 300 L 620 300 L 640 300 L 660 300 L 680 300 L 700 300 L 720 300 L 720 320 L 740 320 L 740 340 L 740 360 L 740 380 L 740 400 L 740 420 L 740 440 L 740 460 L 740 480 L 740 500 L 740 520 L 740 540 L 740 560 L 740 580 L 740 600 L 740 620 L 740 640 L 740 660 L 740 680 L 740 700 L 740 720 L 740 740 L 740 760 L 720 760 L 700 760 L 680 760 L 660 760 L 660 740 L 660 720 L 640 720 L 620 720 L 600 720 L 580 720 L 560 720 L 540 720 L 520 720 L 500 720 L 480 720 L 460 720 L 440 720 L 420 720 L 400 720 L 380 720 L 360 720 L 340 720 L 320 720 L 300 720 L 280 720 L 260 720 L 240 720 L 220 720 L 200 720 L 200 700 L 200 680 L 200 660 L 200 640 L 200 620 L 200 600 L 200 580 L 200 560 L 200 540 L 200 520 L 200 500 L 200 480 L 200 460 L 200 440 L 200 420 L 200 400 L 200 380 L 200 360 L 200 340 L 200 320 L 200 300 z "
     style="fill:#0000ff" />
  <path
     id="rect3832"
     d="M 840 240 L 840 260 L 840 280 L 840 300 L 840 320 L 840 340 L 840 360 L 840 380 L 840 400 L 840 420 L 840 440 L 840 460 L 840 480 L 840 500 L 840 520 L 840 540 L 840 560 L 840 580 L 840 600 L 840 620 L 840 640 L 840 660 L 840 680 L 840 700 L 840 720 L 840 740 L 840 760 L 840 780 L 820 780 L 800 780 L 780 780 L 760 780 L 740 780 L 720 780 L 700 780 L 680 780 L 660 780 L 640 780 L 620 780 L 600 780 L 580 780 L 560 780 L 540 780 L 520 780 L 500 780 L 480 780 L 460 780 L 440 780 L 420 780 L 400 780 L 380 780 L 360 780 L 340 780 L 320 780 L 300 780 L 280 780 L 260 780 L 240 780 L 220 780 L 200 780 L 180 780 L 160 780 L 140 780 L 120 780 L 100 780 L 80 780 L 80 800 L 100 800 L 120 800 L 140 800 L 160 800 L 180 800 L 200 800 L 220 800 L 240 800 L 260 800 L 280 800 L 300 800 L 320 800 L 340 800 L 360 800 L 380 800 L 400 800 L 420 800 L 440 800 L 460 800 L 480 800 L 500 800 L 520 800 L 540 800 L 560 800 L 580 800 L 600 800 L 620 800 L 640 800 L 660 800 L 680 800 L 700 800 L 720 800 L 740 800 L 760 800 L 780 800 L 800 800 L 820 800 L 840 800 L 860 800 L 860 780 L 860 760 L 860 740 L 860 720 L 860 700 L 860 680 L 860 660 L 860 640 L 860 620 L 860 600 L 860 580 L 860 560 L 860 540 L 860 520 L 860 500 L 860 480 L 860 460 L 860 440 L 860 420 L 860 400 L 860 380 L 860 360 L 860 340 L 860 320 L 860 300 L 860 280 L 860 260 L 860 240 L 840 240 z M 200 300 L 200 320 L 200 340 L 200 360 L 200 380 L 200 400 L 200 420 L 200 440 L 200 460 L 200 480 L 200 500 L 200 520 L 200 540 L 200 560 L 200 580 L 200 600 L 200 620 L 200 640 L 200 660 L 200 680 L 220 680 L 240 680 L 240 660 L 240 640 L 240 620 L 240 600 L 240 580 L 240 560 L 240 540 L 240 520 L 240 500 L 240 480 L 240 460 L 240 440 L 240 420 L 240 400 L 240 380 L 240 360 L 240 340 L 240 320 L 260 320 L 280 320 L 300 320 L 320 320 L 340 320 L 360 320 L 380 320 L 400 320 L 420 320 L 440 320 L 460 320 L 480 320 L 500 320 L 520 320 L 540 320 L 560 320 L 580 320 L 600 320 L 620 320 L 640 320 L 660 320 L 680 320 L 700 320 L 720 320 L 720 300 L 700 300 L 680 300 L 660 300 L 640 300 L 620 300 L 600 300 L 580 300 L 560 300 L 540 300 L 520 300 L 500 300 L 480 300 L 460 300 L 440 300 L 420 300 L 400 300 L 380 300 L 360 300 L 340 300 L 320 300 L 300 300 L 280 300 L 260 300 L 240 300 L 220 300 L 200 300 z M 560 420 L 560 440 L 560 460 L 560 480 L 560 500 L 560 520 L 560 540 L 560 560 L 560 580 L 560 600 L 580 600 L 600 600 L 600 580 L 600 560 L 620 560 L 620 580 L 620 600 L 620 620 L 640 620 L 660 620 L 660 600 L 660 580 L 660 560 L 660 540 L 680 540 L 680 520 L 680 500 L 660 500 L 660 480 L 640 480 L 620 480 L 620 460 L 620 440 L 600 440 L 600 420 L 580 420 L 560 420 z M 660 640 L 660 660 L 660 680 L 680 680 L 680 660 L 680 640 L 660 640 z M 680 700 L 680 720 L 700 720 L 720 720 L 720 700 L 700 700 L 680 700 z "
     style="fill:#ffffff" />
  <path
     id="rect4028"
     d="M 20 20 L 20 40 L 20 60 L 20 80 L 20 100 L 20 120 L 20 140 L 20 160 L 20 180 L 20 200 L 20 220 L 20 240 L 20 260 L 20 280 L 20 300 L 20 320 L 20 340 L 20 360 L 20 380 L 20 400 L 20 420 L 20 440 L 20 460 L 20 480 L 20 500 L 20 520 L 20 540 L 20 560 L 20 580 L 20 600 L 20 620 L 20 640 L 20 660 L 20 680 L 20 700 L 20 720 L 20 740 L 20 760 L 20 780 L 20 800 L 20 820 L 20 840 L 40 840 L 60 840 L 80 840 L 100 840 L 120 840 L 140 840 L 160 840 L 180 840 L 200 840 L 220 840 L 240 840 L 260 840 L 280 840 L 300 840 L 320 840 L 340 840 L 360 840 L 380 840 L 400 840 L 420 840 L 440 840 L 460 840 L 480 840 L 500 840 L 520 840 L 540 840 L 560 840 L 580 840 L 600 840 L 620 840 L 640 840 L 660 840 L 680 840 L 700 840 L 720 840 L 740 840 L 760 840 L 780 840 L 800 840 L 820 840 L 840 840 L 860 840 L 880 840 L 900 840 L 900 820 L 900 800 L 900 780 L 900 760 L 900 740 L 900 720 L 900 700 L 900 680 L 900 660 L 900 640 L 900 620 L 900 600 L 900 580 L 900 560 L 900 540 L 900 520 L 900 500 L 900 480 L 900 460 L 900 440 L 900 420 L 900 400 L 900 380 L 900 360 L 900 340 L 900 320 L 900 300 L 900 280 L 900 260 L 900 240 L 900 220 L 900 200 L 900 180 L 880 180 L 860 180 L 840 180 L 820 180 L 800 180 L 780 180 L 760 180 L 740 180 L 720 180 L 700 180 L 680 180 L 660 180 L 640 180 L 620 180 L 600 180 L 580 180 L 560 180 L 540 180 L 520 180 L 500 180 L 480 180 L 460 180 L 440 180 L 420 180 L 400 180 L 380 180 L 360 180 L 340 180 L 320 180 L 300 180 L 280 180 L 260 180 L 240 180 L 220 180 L 200 180 L 180 180 L 160 180 L 140 180 L 120 180 L 100 180 L 80 180 L 60 180 L 60 160 L 60 140 L 60 120 L 60 100 L 60 80 L 60 60 L 80 60 L 100 60 L 120 60 L 140 60 L 160 60 L 180 60 L 200 60 L 220 60 L 240 60 L 260 60 L 280 60 L 300 60 L 320 60 L 340 60 L 360 60 L 380 60 L 400 60 L 420 60 L 440 60 L 460 60 L 480 60 L 500 60 L 520 60 L 540 60 L 560 60 L 580 60 L 600 60 L 620 60 L 640 60 L 660 60 L 680 60 L 700 60 L 720 60 L 740 60 L 760 60 L 780 60 L 800 60 L 820 60 L 840 60 L 860 60 L 880 60 L 900 60 L 900 40 L 900 20 L 880 20 L 860 20 L 840 20 L 820 20 L 800 20 L 780 20 L 760 20 L 740 20 L 720 20 L 700 20 L 680 20 L 660 20 L 640 20 L 620 20 L 600 20 L 580 20 L 560 20 L 540 20 L 520 20 L 500 20 L 480 20 L 460 20 L 440 20 L 420 20 L 400 20 L 380 20 L 360 20 L 340 20 L 320 20 L 300 20 L 280 20 L 260 20 L 240 20 L 220 20 L 200 20 L 180 20 L 160 20 L 140 20 L 120 20 L 100 20 L 80 20 L 60 20 L 40 20 L 20 20 z M 620 100 L 620 120 L 620 140 L 620 160 L 640 160 L 660 160 L 680 160 L 680 140 L 680 120 L 680 100 L 660 100 L 640 100 L 620 100 z M 720 100 L 720 120 L 720 140 L 720 160 L 740 160 L 760 160 L 780 160 L 780 140 L 780 120 L 780 100 L 760 100 L 740 100 L 720 100 z M 800 100 L 800 120 L 800 140 L 800 160 L 820 160 L 840 160 L 860 160 L 860 140 L 860 120 L 860 100 L 840 100 L 820 100 L 800 100 z M 60 200 L 80 200 L 100 200 L 120 200 L 140 200 L 160 200 L 180 200 L 200 200 L 220 200 L 240 200 L 260 200 L 280 200 L 300 200 L 320 200 L 340 200 L 360 200 L 380 200 L 400 200 L 420 200 L 440 200 L 460 200 L 480 200 L 500 200 L 520 200 L 540 200 L 560 200 L 580 200 L 600 200 L 620 200 L 640 200 L 660 200 L 680 200 L 700 200 L 720 200 L 740 200 L 760 200 L 780 200 L 800 200 L 820 200 L 840 200 L 860 200 L 860 220 L 860 240 L 860 260 L 860 280 L 860 300 L 860 320 L 860 340 L 860 360 L 860 380 L 860 400 L 860 420 L 860 440 L 860 460 L 860 480 L 860 500 L 860 520 L 860 540 L 860 560 L 860 580 L 860 600 L 860 620 L 860 640 L 860 660 L 860 680 L 860 700 L 860 720 L 860 740 L 860 760 L 860 780 L 860 800 L 840 800 L 820 800 L 800 800 L 780 800 L 760 800 L 740 800 L 720 800 L 700 800 L 680 800 L 660 800 L 640 800 L 620 800 L 600 800 L 580 800 L 560 800 L 540 800 L 520 800 L 500 800 L 480 800 L 460 800 L 440 800 L 420 800 L 400 800 L 380 800 L 360 800 L 340 800 L 320 800 L 300 800 L 280 800 L 260 800 L 240 800 L 220 800 L 200 800 L 180 800 L 160 800 L 140 800 L 120 800 L 100 800 L 80 800 L 60 800 L 60 780 L 60 760 L 60 740 L 60 720 L 60 700 L 60 680 L 60 660 L 60 640 L 60 620 L 60 600 L 60 580 L 60 560 L 60 540 L 60 520 L 60 500 L 60 480 L 60 460 L 60 440 L 60 420 L 60 400 L 60 380 L 60 360 L 60 340 L 60 320 L 60 300 L 60 280 L 60 260 L 60 240 L 60 220 L 60 200 z M 240 340 L 240 360 L 240 380 L 240 400 L 240 420 L 240 440 L 240 460 L 240 480 L 240 500 L 240 520 L 240 540 L 240 560 L 240 580 L 240 600 L 240 620 L 240 640 L 240 660 L 240 680 L 260 680 L 280 680 L 300 680 L 320 680 L 340 680 L 360 680 L 380 680 L 400 680 L 420 680 L 440 680 L 460 680 L 480 680 L 500 680 L 520 680 L 540 680 L 560 680 L 580 680 L 600 680 L 620 680 L 620 660 L 620 640 L 600 640 L 580 640 L 560 640 L 560 660 L 540 660 L 540 640 L 540 620 L 540 600 L 540 580 L 540 560 L 540 540 L 540 520 L 540 500 L 540 480 L 540 460 L 540 440 L 540 420 L 540 400 L 540 380 L 540 360 L 560 360 L 560 380 L 580 380 L 600 380 L 600 400 L 600 420 L 620 420 L 620 440 L 640 440 L 660 440 L 660 460 L 660 480 L 680 480 L 680 500 L 700 500 L 720 500 L 720 480 L 720 460 L 720 440 L 720 420 L 720 400 L 720 380 L 720 360 L 720 340 L 700 340 L 680 340 L 660 340 L 640 340 L 620 340 L 600 340 L 580 340 L 560 340 L 540 340 L 520 340 L 500 340 L 480 340 L 460 340 L 440 340 L 420 340 L 400 340 L 380 340 L 360 340 L 340 340 L 320 340 L 300 340 L 280 340 L 260 340 L 240 340 z M 260 380 L 280 380 L 300 380 L 320 380 L 320 400 L 320 420 L 320 440 L 300 440 L 280 440 L 260 440 L 260 420 L 260 400 L 260 380 z M 360 380 L 380 380 L 400 380 L 420 380 L 440 380 L 460 380 L 480 380 L 500 380 L 500 400 L 500 420 L 480 420 L 460 420 L 440 420 L 420 420 L 400 420 L 380 420 L 360 420 L 360 400 L 360 380 z M 260 480 L 280 480 L 300 480 L 320 480 L 320 500 L 320 520 L 320 540 L 300 540 L 280 540 L 260 540 L 260 520 L 260 500 L 260 480 z M 360 480 L 380 480 L 400 480 L 420 480 L 440 480 L 460 480 L 480 480 L 500 480 L 500 500 L 480 500 L 460 500 L 440 500 L 420 500 L 400 500 L 380 500 L 360 500 L 360 480 z M 260 560 L 280 560 L 300 560 L 320 560 L 320 580 L 320 600 L 320 620 L 320 640 L 300 640 L 280 640 L 260 640 L 260 620 L 260 600 L 260 580 L 260 560 z M 360 560 L 380 560 L 400 560 L 420 560 L 440 560 L 460 560 L 480 560 L 500 560 L 500 580 L 500 600 L 480 600 L 460 600 L 440 600 L 420 600 L 400 600 L 380 600 L 360 600 L 360 580 L 360 560 z M 680 560 L 680 580 L 680 600 L 680 620 L 700 620 L 720 620 L 720 600 L 720 580 L 720 560 L 700 560 L 680 560 z "
     style="fill:#cbcbcb" />
  <path
     id="rect4126"
     d="M 0 0 L 0 20 L 0 40 L 0 60 L 0 80 L 0 100 L 0 120 L 0 140 L 0 160 L 0 180 L 0 200 L 0 220 L 0 240 L 0 260 L 0 280 L 0 300 L 0 320 L 0 340 L 0 360 L 0 380 L 0 400 L 0 420 L 0 440 L 0 460 L 0 480 L 0 500 L 0 520 L 0 540 L 0 560 L 0 580 L 0 600 L 0 620 L 0 640 L 0 660 L 0 680 L 0 700 L 0 720 L 0 740 L 0 760 L 0 780 L 0 800 L 0 820 L 0 840 L 0 860 L 20 860 L 40 860 L 60 860 L 80 860 L 100 860 L 120 860 L 140 860 L 160 860 L 180 860 L 200 860 L 220 860 L 240 860 L 260 860 L 280 860 L 300 860 L 320 860 L 340 860 L 360 860 L 380 860 L 400 860 L 420 860 L 440 860 L 460 860 L 480 860 L 500 860 L 520 860 L 540 860 L 560 860 L 580 860 L 600 860 L 620 860 L 640 860 L 660 860 L 680 860 L 700 860 L 720 860 L 740 860 L 760 860 L 780 860 L 800 860 L 820 860 L 840 860 L 860 860 L 880 860 L 900 860 L 920 860 L 920 840 L 920 820 L 920 800 L 920 780 L 920 760 L 920 740 L 920 720 L 920 700 L 920 680 L 920 660 L 920 640 L 920 620 L 920 600 L 920 580 L 920 560 L 920 540 L 920 520 L 920 500 L 920 480 L 920 460 L 920 440 L 920 420 L 920 400 L 920 380 L 920 360 L 920 340 L 920 320 L 920 300 L 920 280 L 920 260 L 920 240 L 920 220 L 920 200 L 920 180 L 920 160 L 920 140 L 920 120 L 920 100 L 920 80 L 920 60 L 920 40 L 920 20 L 920 0 L 900 0 L 880 0 L 860 0 L 840 0 L 820 0 L 800 0 L 780 0 L 760 0 L 740 0 L 720 0 L 700 0 L 680 0 L 660 0 L 640 0 L 620 0 L 600 0 L 580 0 L 560 0 L 540 0 L 520 0 L 500 0 L 480 0 L 460 0 L 440 0 L 420 0 L 400 0 L 380 0 L 360 0 L 340 0 L 320 0 L 300 0 L 280 0 L 260 0 L 240 0 L 220 0 L 200 0 L 180 0 L 160 0 L 140 0 L 120 0 L 100 0 L 80 0 L 60 0 L 40 0 L 20 0 L 0 0 z M 20 20 L 40 20 L 60 20 L 80 20 L 100 20 L 120 20 L 140 20 L 160 20 L 180 20 L 200 20 L 220 20 L 240 20 L 260 20 L 280 20 L 300 20 L 320 20 L 340 20 L 360 20 L 380 20 L 400 20 L 420 20 L 440 20 L 460 20 L 480 20 L 500 20 L 520 20 L 540 20 L 560 20 L 580 20 L 600 20 L 620 20 L 640 20 L 660 20 L 680 20 L 700 20 L 720 20 L 740 20 L 760 20 L 780 20 L 800 20 L 820 20 L 840 20 L 860 20 L 880 20 L 900 20 L 900 40 L 900 60 L 900 80 L 900 100 L 900 120 L 900 140 L 900 160 L 900 180 L 900 200 L 900 220 L 900 240 L 900 260 L 900 280 L 900 300 L 900 320 L 900 340 L 900 360 L 900 380 L 900 400 L 900 420 L 900 440 L 900 460 L 900 480 L 900 500 L 900 520 L 900 540 L 900 560 L 900 580 L 900 600 L 900 620 L 900 640 L 900 660 L 900 680 L 900 700 L 900 720 L 900 740 L 900 760 L 900 780 L 900 800 L 900 820 L 900 840 L 880 840 L 860 840 L 840 840 L 820 840 L 800 840 L 780 840 L 760 840 L 740 840 L 720 840 L 700 840 L 680 840 L 660 840 L 640 840 L 620 840 L 600 840 L 580 840 L 560 840 L 540 840 L 520 840 L 500 840 L 480 840 L 460 840 L 440 840 L 420 840 L 400 840 L 380 840 L 360 840 L 340 840 L 320 840 L 300 840 L 280 840 L 260 840 L 240 840 L 220 840 L 200 840 L 180 840 L 160 840 L 140 840 L 120 840 L 100 840 L 80 840 L 60 840 L 40 840 L 20 840 L 20 820 L 20 800 L 20 780 L 20 760 L 20 740 L 20 720 L 20 700 L 20 680 L 20 660 L 20 640 L 20 620 L 20 600 L 20 580 L 20 560 L 20 540 L 20 520 L 20 500 L 20 480 L 20 460 L 20 440 L 20 420 L 20 400 L 20 380 L 20 360 L 20 340 L 20 320 L 20 300 L 20 280 L 20 260 L 20 240 L 20 220 L 20 200 L 20 180 L 20 160 L 20 140 L 20 120 L 20 100 L 20 80 L 20 60 L 20 40 L 20 20 z M 720 340 L 720 360 L 720 380 L 720 400 L 720 420 L 720 440 L 720 460 L 720 480 L 720 500 L 720 520 L 720 540 L 740 540 L 740 520 L 740 500 L 740 480 L 740 460 L 740 440 L 740 420 L 740 400 L 740 380 L 740 360 L 740 340 L 720 340 z M 360 380 L 360 400 L 360 420 L 380 420 L 400 420 L 420 420 L 440 420 L 460 420 L 480 420 L 500 420 L 500 400 L 500 380 L 480 380 L 460 380 L 440 380 L 420 380 L 400 380 L 380 380 L 360 380 z M 360 480 L 360 500 L 380 500 L 400 500 L 420 500 L 440 500 L 460 500 L 480 500 L 500 500 L 500 480 L 480 480 L 460 480 L 440 480 L 420 480 L 400 480 L 380 480 L 360 480 z M 360 560 L 360 580 L 360 600 L 380 600 L 400 600 L 420 600 L 440 600 L 460 600 L 480 600 L 500 600 L 500 580 L 500 560 L 480 560 L 460 560 L 440 560 L 420 560 L 400 560 L 380 560 L 360 560 z M 720 560 L 720 580 L 720 600 L 720 620 L 720 640 L 720 660 L 720 680 L 740 680 L 740 660 L 740 640 L 740 620 L 740 600 L 740 580 L 740 560 L 720 560 z M 200 700 L 200 720 L 220 720 L 240 720 L 260 720 L 280 720 L 300 720 L 320 720 L 340 720 L 360 720 L 380 720 L 400 720 L 420 720 L 440 720 L 460 720 L 480 720 L 500 720 L 520 720 L 540 720 L 560 720 L 580 720 L 600 720 L 620 720 L 640 720 L 660 720 L 660 700 L 640 700 L 620 700 L 600 700 L 580 700 L 560 700 L 540 700 L 520 700 L 500 700 L 480 700 L 460 700 L 440 700 L 420 700 L 400 700 L 380 700 L 360 700 L 340 700 L 320 700 L 300 700 L 280 700 L 260 700 L 240 700 L 220 700 L 200 700 z "
     style="fill:#929292" />
  <path
     id="rect4322"
     d="M 920 0 L 920 20 L 920 40 L 920 60 L 920 80 L 920 100 L 920 120 L 920 140 L 920 160 L 920 180 L 920 200 L 920 220 L 920 240 L 920 260 L 920 280 L 920 300 L 920 320 L 920 340 L 920 360 L 920 380 L 920 400 L 920 420 L 920 440 L 920 460 L 920 480 L 920 500 L 920 520 L 920 540 L 920 560 L 920 580 L 920 600 L 920 620 L 920 640 L 920 660 L 920 680 L 920 700 L 920 720 L 920 740 L 920 760 L 920 780 L 920 800 L 920 820 L 920 840 L 920 860 L 900 860 L 880 860 L 860 860 L 840 860 L 820 860 L 800 860 L 780 860 L 760 860 L 740 860 L 720 860 L 700 860 L 680 860 L 660 860 L 640 860 L 620 860 L 600 860 L 580 860 L 560 860 L 540 860 L 520 860 L 500 860 L 480 860 L 460 860 L 440 860 L 420 860 L 400 860 L 380 860 L 360 860 L 340 860 L 320 860 L 300 860 L 280 860 L 260 860 L 240 860 L 220 860 L 200 860 L 180 860 L 160 860 L 140 860 L 120 860 L 100 860 L 80 860 L 60 860 L 40 860 L 20 860 L 0 860 L 0 880 L 0 900 L 20 900 L 40 900 L 60 900 L 80 900 L 100 900 L 120 900 L 140 900 L 160 900 L 180 900 L 200 900 L 220 900 L 240 900 L 260 900 L 280 900 L 300 900 L 320 900 L 340 900 L 360 900 L 380 900 L 400 900 L 420 900 L 440 900 L 460 900 L 480 900 L 500 900 L 520 900 L 540 900 L 560 900 L 580 900 L 600 900 L 620 900 L 640 900 L 660 900 L 680 900 L 700 900 L 720 900 L 740 900 L 760 900 L 780 900 L 800 900 L 820 900 L 840 900 L 860 900 L 880 900 L 900 900 L 920 900 L 940 900 L 960 900 L 960 880 L 960 860 L 960 840 L 960 820 L 960 800 L 960 780 L 960 760 L 960 740 L 960 720 L 960 700 L 960 680 L 960 660 L 960 640 L 960 620 L 960 600 L 960 580 L 960 560 L 960 540 L 960 520 L 960 500 L 960 480 L 960 460 L 960 440 L 960 420 L 960 400 L 960 380 L 960 360 L 960 340 L 960 320 L 960 300 L 960 280 L 960 260 L 960 240 L 960 220 L 960 200 L 960 180 L 960 160 L 960 140 L 960 120 L 960 100 L 960 80 L 960 60 L 960 40 L 960 20 L 960 0 L 940 0 L 920 0 z M 680 100 L 680 120 L 680 140 L 680 160 L 660 160 L 640 160 L 620 160 L 620 180 L 640 180 L 660 180 L 680 180 L 700 180 L 720 180 L 740 180 L 760 180 L 780 180 L 800 180 L 820 180 L 840 180 L 860 180 L 880 180 L 900 180 L 900 160 L 900 140 L 900 120 L 900 100 L 880 100 L 860 100 L 860 120 L 860 140 L 860 160 L 840 160 L 820 160 L 800 160 L 800 140 L 800 120 L 800 100 L 780 100 L 780 120 L 780 140 L 780 160 L 760 160 L 740 160 L 720 160 L 720 140 L 720 120 L 720 100 L 700 100 L 680 100 z M 60 200 L 60 220 L 60 240 L 60 260 L 60 280 L 60 300 L 60 320 L 60 340 L 60 360 L 60 380 L 60 400 L 60 420 L 60 440 L 60 460 L 60 480 L 60 500 L 60 520 L 60 540 L 60 560 L 60 580 L 60 600 L 60 620 L 60 640 L 60 660 L 60 680 L 60 700 L 60 720 L 60 740 L 60 760 L 60 780 L 60 800 L 80 800 L 80 780 L 80 760 L 80 740 L 80 720 L 80 700 L 80 680 L 80 660 L 80 640 L 80 620 L 80 600 L 80 580 L 80 560 L 80 540 L 80 520 L 80 500 L 80 480 L 80 460 L 80 440 L 80 420 L 80 400 L 80 380 L 80 360 L 80 340 L 80 320 L 80 300 L 80 280 L 80 260 L 80 240 L 100 240 L 120 240 L 140 240 L 160 240 L 180 240 L 200 240 L 220 240 L 240 240 L 260 240 L 280 240 L 300 240 L 320 240 L 340 240 L 360 240 L 380 240 L 400 240 L 420 240 L 440 240 L 460 240 L 480 240 L 500 240 L 520 240 L 540 240 L 560 240 L 580 240 L 600 240 L 620 240 L 640 240 L 660 240 L 680 240 L 700 240 L 720 240 L 740 240 L 760 240 L 780 240 L 800 240 L 820 240 L 840 240 L 860 240 L 860 220 L 860 200 L 840 200 L 820 200 L 800 200 L 780 200 L 760 200 L 740 200 L 720 200 L 700 200 L 680 200 L 660 200 L 640 200 L 620 200 L 600 200 L 580 200 L 560 200 L 540 200 L 520 200 L 500 200 L 480 200 L 460 200 L 440 200 L 420 200 L 400 200 L 380 200 L 360 200 L 340 200 L 320 200 L 300 200 L 280 200 L 260 200 L 240 200 L 220 200 L 200 200 L 180 200 L 160 200 L 140 200 L 120 200 L 100 200 L 80 200 L 60 200 z M 540 360 L 540 380 L 540 400 L 540 420 L 540 440 L 540 460 L 540 480 L 540 500 L 540 520 L 540 540 L 540 560 L 540 580 L 540 600 L 540 620 L 540 640 L 540 660 L 560 660 L 560 640 L 560 620 L 580 620 L 600 620 L 620 620 L 620 600 L 620 580 L 620 560 L 600 560 L 600 580 L 600 600 L 580 600 L 560 600 L 560 580 L 560 560 L 560 540 L 560 520 L 560 500 L 560 480 L 560 460 L 560 440 L 560 420 L 580 420 L 600 420 L 600 400 L 600 380 L 580 380 L 560 380 L 560 360 L 540 360 z M 600 420 L 600 440 L 620 440 L 620 420 L 600 420 z M 620 440 L 620 460 L 620 480 L 640 480 L 660 480 L 660 460 L 660 440 L 640 440 L 620 440 z M 660 480 L 660 500 L 680 500 L 680 480 L 660 480 z M 680 500 L 680 520 L 680 540 L 660 540 L 660 560 L 660 580 L 660 600 L 660 620 L 680 620 L 680 600 L 680 580 L 680 560 L 700 560 L 720 560 L 740 560 L 740 540 L 720 540 L 720 520 L 720 500 L 700 500 L 680 500 z M 620 640 L 620 660 L 620 680 L 640 680 L 660 680 L 660 660 L 660 640 L 640 640 L 620 640 z M 680 640 L 680 660 L 680 680 L 700 680 L 720 680 L 720 660 L 720 640 L 700 640 L 680 640 z M 660 700 L 660 720 L 660 740 L 660 760 L 680 760 L 700 760 L 720 760 L 740 760 L 740 740 L 740 720 L 740 700 L 720 700 L 720 720 L 700 720 L 680 720 L 680 700 L 660 700 z "
     style="fill:#000000" />
</svg>
