<?xml version="1.0" encoding="UTF-8" standalone="no"?>
<svg
   xmlns:dc="http://purl.org/dc/elements/1.1/"
   xmlns:cc="http://creativecommons.org/ns#"
   xmlns:rdf="http://www.w3.org/1999/02/22-rdf-syntax-ns#"
   xmlns:svg="http://www.w3.org/2000/svg"
   xmlns="http://www.w3.org/2000/svg"
   id="svg1210"
   width="640px"
   version="1.1"
   height="640px">
  <metadata
     id="metadata1214">
    <rdf:RDF>
      <cc:Work
         rdf:about="">
        <dc:format>image/svg+xml</dc:format>
        <dc:type
           rdf:resource="http://purl.org/dc/dcmitype/StillImage" />
      </cc:Work>
    </rdf:RDF>
  </metadata>
  <defs
     id="defs2" />
  <path
     style="fill:#000080"
     d="M 180 120 L 180 140 L 200 140 L 220 140 L 240 140 L 260 140 L 260 120 L 240 120 L 220 120 L 200 120 L 180 120 z M 260 140 L 260 160 L 280 160 L 280 140 L 260 140 z M 180 140 L 160 140 L 140 140 L 140 160 L 140 180 L 160 180 L 160 160 L 180 160 L 180 140 z M 140 180 L 120 180 L 120 200 L 140 200 L 140 180 z M 120 180 L 120 160 L 100 160 L 100 180 L 120 180 z M 100 160 L 100 140 L 80 140 L 60 140 L 40 140 L 40 160 L 60 160 L 80 160 L 100 160 z M 40 160 L 20 160 L 20 180 L 40 180 L 40 160 z M 20 180 L 0 180 L 0 200 L 0 220 L 0 240 L 0 260 L 0 280 L 20 280 L 20 260 L 20 240 L 20 220 L 20 200 L 20 180 z M 20 280 L 20 300 L 40 300 L 40 280 L 20 280 z "
     id="rect570" />
  <path
     style="fill:#00ffff"
     d="M 180 140 L 180 160 L 200 160 L 220 160 L 220 140 L 200 140 L 180 140 z M 220 160 L 220 180 L 240 180 L 240 160 L 220 160 z M 240 180 L 240 200 L 240 220 L 240 240 L 240 260 L 240 280 L 260 280 L 260 260 L 260 240 L 260 220 L 260 200 L 260 180 L 240 180 z M 240 280 L 220 280 L 220 300 L 240 300 L 240 280 z M 60 160 L 60 180 L 80 180 L 80 160 L 60 160 z M 80 180 L 80 200 L 80 220 L 80 240 L 80 260 L 80 280 L 100 280 L 100 260 L 100 240 L 100 220 L 100 200 L 100 180 L 80 180 z M 160 200 L 160 220 L 180 220 L 200 220 L 200 200 L 180 200 L 160 200 z "
     id="rect588" />
  <path
     style="fill:#008080"
     d="M 220 140 L 220 160 L 240 160 L 240 180 L 260 180 L 260 200 L 260 220 L 260 240 L 260 260 L 260 280 L 240 280 L 240 300 L 220 300 L 220 280 L 240 280 L 240 260 L 240 240 L 240 220 L 240 200 L 240 180 L 220 180 L 220 160 L 200 160 L 180 160 L 160 160 L 160 180 L 180 180 L 200 180 L 200 200 L 220 200 L 220 220 L 220 240 L 220 260 L 200 260 L 200 280 L 180 280 L 160 280 L 160 300 L 180 300 L 180 320 L 200 320 L 220 320 L 240 320 L 260 320 L 260 300 L 280 300 L 280 280 L 280 260 L 280 240 L 280 220 L 280 200 L 280 180 L 280 160 L 260 160 L 260 140 L 240 140 L 220 140 z M 200 260 L 200 240 L 200 220 L 180 220 L 160 220 L 160 200 L 140 200 L 140 220 L 140 240 L 140 260 L 160 260 L 180 260 L 200 260 z M 40 160 L 40 180 L 20 180 L 20 200 L 20 220 L 20 240 L 20 260 L 20 280 L 40 280 L 40 300 L 60 300 L 80 300 L 100 300 L 100 280 L 80 280 L 80 260 L 80 240 L 80 220 L 80 200 L 80 180 L 60 180 L 60 160 L 40 160 z M 80 180 L 100 180 L 100 160 L 80 160 L 80 180 z M 100 180 L 100 200 L 100 220 L 100 240 L 100 260 L 100 280 L 120 280 L 120 260 L 120 240 L 120 220 L 120 200 L 120 180 L 100 180 z "
     id="rect642" />
  <path
     style="fill:#c0c0c0"
     d="M 300 200 L 300 220 L 320 220 L 320 200 L 300 200 z M 300 240 L 300 260 L 320 260 L 320 240 L 300 240 z M 320 260 L 320 280 L 340 280 L 340 260 L 320 260 z M 340 260 L 360 260 L 360 240 L 340 240 L 340 260 z M 340 280 L 340 300 L 360 300 L 360 280 L 340 280 z M 340 300 L 320 300 L 320 320 L 340 320 L 340 300 z M 320 320 L 300 320 L 300 340 L 320 340 L 320 320 z M 300 320 L 300 300 L 280 300 L 280 320 L 300 320 z M 280 320 L 260 320 L 260 340 L 280 340 L 280 320 z M 300 300 L 320 300 L 320 280 L 300 280 L 300 300 z M 360 380 L 360 400 L 380 400 L 380 380 L 360 380 z M 380 400 L 380 420 L 400 420 L 400 400 L 380 400 z M 400 420 L 400 440 L 420 440 L 420 420 L 400 420 z M 420 440 L 420 460 L 440 460 L 440 440 L 420 440 z M 440 460 L 440 480 L 460 480 L 460 460 L 440 460 z M 460 460 L 480 460 L 480 440 L 460 440 L 460 460 z M 480 460 L 480 480 L 500 480 L 500 460 L 480 460 z M 480 480 L 460 480 L 460 500 L 480 500 L 480 480 z M 440 480 L 420 480 L 420 500 L 440 500 L 440 480 z M 420 500 L 400 500 L 400 520 L 420 520 L 420 500 z M 400 500 L 400 480 L 380 480 L 380 500 L 400 500 z M 380 500 L 360 500 L 360 520 L 380 520 L 380 500 z M 360 500 L 360 480 L 340 480 L 340 500 L 360 500 z M 340 500 L 320 500 L 320 520 L 340 520 L 340 500 z M 320 500 L 320 480 L 300 480 L 300 500 L 320 500 z M 300 500 L 280 500 L 280 520 L 300 520 L 300 500 z M 280 520 L 260 520 L 260 540 L 280 540 L 280 520 z M 260 520 L 260 500 L 240 500 L 240 520 L 260 520 z M 240 520 L 220 520 L 220 540 L 240 540 L 240 520 z M 260 500 L 280 500 L 280 480 L 260 480 L 260 500 z M 280 480 L 300 480 L 300 460 L 280 460 L 280 480 z M 300 460 L 320 460 L 320 440 L 300 440 L 300 460 z M 320 440 L 340 440 L 340 420 L 320 420 L 320 440 z M 340 420 L 360 420 L 360 400 L 340 400 L 340 420 z M 360 420 L 360 440 L 380 440 L 380 420 L 360 420 z M 380 440 L 380 460 L 400 460 L 400 440 L 380 440 z M 400 460 L 400 480 L 420 480 L 420 460 L 400 460 z M 380 460 L 360 460 L 360 480 L 380 480 L 380 460 z M 360 460 L 360 440 L 340 440 L 340 460 L 360 460 z M 340 460 L 320 460 L 320 480 L 340 480 L 340 460 z "
     id="rect1154" />
  <path
     style="fill:#808000"
     d="M 160 80 L 160 100 L 160 120 L 160 140 L 180 140 L 180 120 L 180 100 L 200 100 L 220 100 L 240 100 L 260 100 L 280 100 L 300 100 L 320 100 L 340 100 L 360 100 L 380 100 L 400 100 L 420 100 L 440 100 L 460 100 L 480 100 L 500 100 L 520 100 L 540 100 L 560 100 L 580 100 L 600 100 L 600 120 L 600 140 L 600 160 L 620 160 L 620 140 L 620 120 L 620 100 L 620 80 L 600 80 L 580 80 L 560 80 L 540 80 L 520 80 L 500 80 L 480 80 L 460 80 L 440 80 L 420 80 L 400 80 L 380 80 L 360 80 L 340 80 L 320 80 L 300 80 L 280 80 L 260 80 L 240 80 L 220 80 L 200 80 L 180 80 L 160 80 z M 580 180 L 580 200 L 580 220 L 580 240 L 580 260 L 600 260 L 600 240 L 600 220 L 600 200 L 600 180 L 580 180 z M 320 200 L 320 220 L 340 220 L 340 200 L 320 200 z M 320 240 L 320 260 L 340 260 L 340 240 L 320 240 z M 340 260 L 340 280 L 360 280 L 360 260 L 340 260 z M 360 260 L 380 260 L 380 240 L 360 240 L 360 260 z M 360 280 L 360 300 L 380 300 L 380 280 L 360 280 z M 360 300 L 340 300 L 340 320 L 360 320 L 360 300 z M 340 320 L 320 320 L 320 340 L 340 340 L 340 320 z M 320 340 L 300 340 L 300 360 L 320 360 L 320 340 z M 300 340 L 300 320 L 280 320 L 280 340 L 300 340 z M 280 340 L 260 340 L 260 360 L 280 360 L 280 340 z M 300 320 L 320 320 L 320 300 L 300 300 L 300 320 z M 320 300 L 340 300 L 340 280 L 320 280 L 320 300 z M 320 280 L 320 260 L 300 260 L 300 280 L 320 280 z M 560 280 L 560 300 L 560 320 L 580 320 L 580 300 L 580 280 L 560 280 z M 140 300 L 140 320 L 140 340 L 140 360 L 140 380 L 160 380 L 160 360 L 160 340 L 160 320 L 160 300 L 140 300 z M 140 380 L 120 380 L 120 400 L 120 420 L 120 440 L 140 440 L 140 420 L 140 400 L 140 380 z M 120 440 L 100 440 L 100 460 L 120 460 L 120 440 z M 100 460 L 80 460 L 80 480 L 100 480 L 100 460 z M 80 480 L 60 480 L 60 500 L 80 500 L 80 480 z M 60 500 L 40 500 L 40 520 L 60 520 L 60 500 z M 40 520 L 20 520 L 20 540 L 40 540 L 40 520 z M 20 540 L 0 540 L 0 560 L 20 560 L 20 540 z M 540 360 L 540 380 L 540 400 L 560 400 L 560 380 L 560 360 L 540 360 z M 380 380 L 380 400 L 400 400 L 400 380 L 380 380 z M 400 400 L 400 420 L 420 420 L 420 400 L 400 400 z M 420 420 L 420 440 L 440 440 L 440 420 L 420 420 z M 440 440 L 440 460 L 460 460 L 460 440 L 440 440 z M 460 460 L 460 480 L 480 480 L 480 460 L 460 460 z M 460 480 L 440 480 L 440 500 L 460 500 L 460 480 z M 440 480 L 440 460 L 420 460 L 420 480 L 440 480 z M 420 480 L 400 480 L 400 500 L 420 500 L 420 480 z M 400 500 L 380 500 L 380 520 L 400 520 L 400 500 z M 380 500 L 380 480 L 360 480 L 360 500 L 380 500 z M 360 500 L 340 500 L 340 520 L 360 520 L 360 500 z M 340 500 L 340 480 L 320 480 L 320 500 L 340 500 z M 320 500 L 300 500 L 300 520 L 320 520 L 320 500 z M 300 520 L 280 520 L 280 540 L 300 540 L 300 520 z M 280 520 L 280 500 L 260 500 L 260 520 L 280 520 z M 260 520 L 240 520 L 240 540 L 260 540 L 260 520 z M 280 500 L 300 500 L 300 480 L 280 480 L 280 500 z M 300 480 L 320 480 L 320 460 L 300 460 L 300 480 z M 320 460 L 340 460 L 340 440 L 320 440 L 320 460 z M 340 440 L 360 440 L 360 420 L 340 420 L 340 440 z M 360 420 L 380 420 L 380 400 L 360 400 L 360 420 z M 380 420 L 380 440 L 400 440 L 400 420 L 380 420 z M 400 440 L 400 460 L 420 460 L 420 440 L 400 440 z M 400 460 L 380 460 L 380 480 L 400 480 L 400 460 z M 380 460 L 380 440 L 360 440 L 360 460 L 380 460 z M 360 460 L 340 460 L 340 480 L 360 480 L 360 460 z M 520 420 L 520 440 L 540 440 L 540 420 L 520 420 z M 500 460 L 500 480 L 520 480 L 520 460 L 500 460 z M 200 520 L 200 540 L 220 540 L 220 520 L 200 520 z "
     id="rect1170" />
  <path
     style="fill:#ffff00"
     d="M 180 100 L 180 120 L 200 120 L 200 100 L 180 100 z M 220 100 L 220 120 L 240 120 L 240 100 L 220 100 z M 260 100 L 260 120 L 280 120 L 280 100 L 260 100 z M 280 120 L 280 140 L 300 140 L 300 120 L 280 120 z M 300 120 L 320 120 L 320 100 L 300 100 L 300 120 z M 320 120 L 320 140 L 340 140 L 340 120 L 320 120 z M 340 120 L 360 120 L 360 100 L 340 100 L 340 120 z M 360 120 L 360 140 L 380 140 L 380 120 L 360 120 z M 380 120 L 400 120 L 400 100 L 380 100 L 380 120 z M 400 120 L 400 140 L 420 140 L 420 120 L 400 120 z M 420 120 L 440 120 L 440 100 L 420 100 L 420 120 z M 440 120 L 440 140 L 460 140 L 460 120 L 440 120 z M 460 120 L 480 120 L 480 100 L 460 100 L 460 120 z M 480 120 L 480 140 L 500 140 L 500 120 L 480 120 z M 500 120 L 520 120 L 520 100 L 500 100 L 500 120 z M 520 120 L 520 140 L 540 140 L 540 120 L 520 120 z M 540 120 L 560 120 L 560 100 L 540 100 L 540 120 z M 560 120 L 560 140 L 580 140 L 580 120 L 560 120 z M 580 120 L 600 120 L 600 100 L 580 100 L 580 120 z M 580 140 L 580 160 L 600 160 L 600 140 L 580 140 z M 580 160 L 560 160 L 560 180 L 580 180 L 580 160 z M 560 180 L 540 180 L 540 200 L 560 200 L 560 180 z M 560 200 L 560 220 L 580 220 L 580 200 L 560 200 z M 560 220 L 540 220 L 540 240 L 560 240 L 560 220 z M 560 240 L 560 260 L 580 260 L 580 240 L 560 240 z M 560 260 L 540 260 L 540 280 L 560 280 L 560 260 z M 540 280 L 520 280 L 520 300 L 540 300 L 540 280 z M 540 300 L 540 320 L 560 320 L 560 300 L 540 300 z M 540 320 L 520 320 L 520 340 L 540 340 L 540 320 z M 540 340 L 540 360 L 560 360 L 560 340 L 540 340 z M 540 360 L 520 360 L 520 380 L 540 380 L 540 360 z M 520 380 L 500 380 L 500 400 L 520 400 L 520 380 z M 520 400 L 520 420 L 540 420 L 540 400 L 520 400 z M 520 420 L 500 420 L 500 440 L 520 440 L 520 420 z M 500 420 L 500 400 L 480 400 L 480 420 L 500 420 z M 480 400 L 480 380 L 460 380 L 460 400 L 480 400 z M 460 400 L 440 400 L 440 420 L 460 420 L 460 400 z M 460 380 L 460 360 L 440 360 L 440 380 L 460 380 z M 440 360 L 440 340 L 420 340 L 420 360 L 440 360 z M 420 360 L 400 360 L 400 380 L 420 380 L 420 360 z M 400 360 L 400 340 L 380 340 L 380 360 L 400 360 z M 380 340 L 380 320 L 360 320 L 360 340 L 380 340 z M 360 340 L 340 340 L 340 360 L 360 360 L 360 340 z M 340 360 L 320 360 L 320 380 L 340 380 L 340 360 z M 320 380 L 300 380 L 300 400 L 320 400 L 320 380 z M 300 400 L 280 400 L 280 420 L 300 420 L 300 400 z M 280 420 L 260 420 L 260 440 L 280 440 L 280 420 z M 260 440 L 240 440 L 240 460 L 260 460 L 260 440 z M 240 460 L 220 460 L 220 480 L 240 480 L 240 460 z M 220 480 L 200 480 L 200 500 L 220 500 L 220 480 z M 200 500 L 180 500 L 180 520 L 200 520 L 200 500 z M 180 500 L 180 480 L 160 480 L 160 500 L 180 500 z M 160 500 L 140 500 L 140 520 L 160 520 L 160 500 z M 140 520 L 120 520 L 120 540 L 140 540 L 140 520 z M 120 520 L 120 500 L 100 500 L 100 520 L 120 520 z M 100 520 L 80 520 L 80 540 L 100 540 L 100 520 z M 80 540 L 60 540 L 60 520 L 40 520 L 40 540 L 20 540 L 20 560 L 40 560 L 60 560 L 80 560 L 80 540 z M 60 520 L 80 520 L 80 500 L 60 500 L 60 520 z M 80 500 L 100 500 L 100 480 L 80 480 L 80 500 z M 100 480 L 120 480 L 120 460 L 100 460 L 100 480 z M 120 460 L 140 460 L 140 440 L 120 440 L 120 460 z M 140 440 L 160 440 L 160 420 L 140 420 L 140 440 z M 160 420 L 180 420 L 180 400 L 160 400 L 160 420 z M 160 400 L 160 380 L 140 380 L 140 400 L 160 400 z M 160 380 L 180 380 L 180 360 L 160 360 L 160 380 z M 180 360 L 200 360 L 200 340 L 180 340 L 180 360 z M 180 340 L 180 320 L 160 320 L 160 340 L 180 340 z M 200 360 L 200 380 L 220 380 L 220 360 L 200 360 z M 220 360 L 240 360 L 240 340 L 220 340 L 220 360 z M 240 360 L 240 380 L 260 380 L 260 360 L 240 360 z M 260 380 L 260 400 L 280 400 L 280 380 L 260 380 z M 280 380 L 300 380 L 300 360 L 280 360 L 280 380 z M 260 400 L 240 400 L 240 420 L 260 420 L 260 400 z M 240 420 L 220 420 L 220 440 L 240 440 L 240 420 z M 220 440 L 200 440 L 200 460 L 220 460 L 220 440 z M 200 460 L 180 460 L 180 480 L 200 480 L 200 460 z M 180 460 L 180 440 L 160 440 L 160 460 L 180 460 z M 160 460 L 140 460 L 140 480 L 160 480 L 160 460 z M 140 480 L 120 480 L 120 500 L 140 500 L 140 480 z M 180 440 L 200 440 L 200 420 L 180 420 L 180 440 z M 200 420 L 220 420 L 220 400 L 200 400 L 200 420 z M 200 400 L 200 380 L 180 380 L 180 400 L 200 400 z M 220 400 L 240 400 L 240 380 L 220 380 L 220 400 z M 380 320 L 400 320 L 400 300 L 380 300 L 380 320 z M 400 300 L 420 300 L 420 280 L 400 280 L 400 300 z M 400 280 L 400 260 L 380 260 L 380 280 L 400 280 z M 400 260 L 420 260 L 420 240 L 400 240 L 400 260 z M 400 240 L 400 220 L 380 220 L 380 240 L 400 240 z M 380 220 L 380 200 L 360 200 L 360 220 L 380 220 z M 360 200 L 360 180 L 340 180 L 340 200 L 360 200 z M 340 180 L 340 160 L 320 160 L 320 180 L 340 180 z M 320 180 L 300 180 L 300 200 L 320 200 L 320 180 z M 320 160 L 320 140 L 300 140 L 300 160 L 320 160 z M 340 160 L 360 160 L 360 140 L 340 140 L 340 160 z M 360 160 L 360 180 L 380 180 L 380 160 L 360 160 z M 380 160 L 400 160 L 400 140 L 380 140 L 380 160 z M 400 160 L 400 180 L 420 180 L 420 160 L 400 160 z M 420 160 L 440 160 L 440 140 L 420 140 L 420 160 z M 440 160 L 440 180 L 460 180 L 460 160 L 440 160 z M 460 160 L 480 160 L 480 140 L 460 140 L 460 160 z M 480 160 L 480 180 L 500 180 L 500 160 L 480 160 z M 500 160 L 520 160 L 520 140 L 500 140 L 500 160 z M 520 160 L 520 180 L 540 180 L 540 160 L 520 160 z M 540 160 L 560 160 L 560 140 L 540 140 L 540 160 z M 520 180 L 500 180 L 500 200 L 520 200 L 520 180 z M 520 200 L 520 220 L 540 220 L 540 200 L 520 200 z M 520 220 L 500 220 L 500 240 L 520 240 L 520 220 z M 520 240 L 520 260 L 540 260 L 540 240 L 520 240 z M 520 260 L 500 260 L 500 280 L 520 280 L 520 260 z M 500 280 L 480 280 L 480 300 L 500 300 L 500 280 z M 500 300 L 500 320 L 520 320 L 520 300 L 500 300 z M 500 320 L 480 320 L 480 340 L 500 340 L 500 320 z M 500 340 L 500 360 L 520 360 L 520 340 L 500 340 z M 500 360 L 480 360 L 480 380 L 500 380 L 500 360 z M 480 360 L 480 340 L 460 340 L 460 360 L 480 360 z M 460 340 L 460 320 L 440 320 L 440 340 L 460 340 z M 440 320 L 440 300 L 420 300 L 420 320 L 440 320 z M 420 320 L 400 320 L 400 340 L 420 340 L 420 320 z M 440 300 L 460 300 L 460 280 L 440 280 L 440 300 z M 440 280 L 440 260 L 420 260 L 420 280 L 440 280 z M 440 260 L 460 260 L 460 240 L 440 240 L 440 260 z M 440 240 L 440 220 L 420 220 L 420 240 L 440 240 z M 420 220 L 420 200 L 400 200 L 400 220 L 420 220 z M 400 200 L 400 180 L 380 180 L 380 200 L 400 200 z M 420 200 L 440 200 L 440 180 L 420 180 L 420 200 z M 440 200 L 440 220 L 460 220 L 460 200 L 440 200 z M 460 200 L 480 200 L 480 180 L 460 180 L 460 200 z M 480 200 L 480 220 L 500 220 L 500 200 L 480 200 z M 480 220 L 460 220 L 460 240 L 480 240 L 480 220 z M 480 240 L 480 260 L 500 260 L 500 240 L 480 240 z M 480 260 L 460 260 L 460 280 L 480 280 L 480 260 z M 460 300 L 460 320 L 480 320 L 480 300 L 460 300 z "
     id="rect1176" />
  <path
     style="fill:#ffffff"
     d="M 200 100 L 200 120 L 220 120 L 220 100 L 200 100 z M 240 100 L 240 120 L 260 120 L 260 100 L 240 100 z M 260 120 L 260 140 L 280 140 L 280 120 L 260 120 z M 280 120 L 300 120 L 300 100 L 280 100 L 280 120 z M 300 120 L 300 140 L 320 140 L 320 120 L 300 120 z M 320 120 L 340 120 L 340 100 L 320 100 L 320 120 z M 340 120 L 340 140 L 360 140 L 360 120 L 340 120 z M 360 120 L 380 120 L 380 100 L 360 100 L 360 120 z M 380 120 L 380 140 L 400 140 L 400 120 L 380 120 z M 400 120 L 420 120 L 420 100 L 400 100 L 400 120 z M 420 120 L 420 140 L 440 140 L 440 120 L 420 120 z M 440 120 L 460 120 L 460 100 L 440 100 L 440 120 z M 460 120 L 460 140 L 480 140 L 480 120 L 460 120 z M 480 120 L 500 120 L 500 100 L 480 100 L 480 120 z M 500 120 L 500 140 L 520 140 L 520 120 L 500 120 z M 520 120 L 540 120 L 540 100 L 520 100 L 520 120 z M 540 120 L 540 140 L 560 140 L 560 120 L 540 120 z M 560 120 L 580 120 L 580 100 L 560 100 L 560 120 z M 580 120 L 580 140 L 600 140 L 600 120 L 580 120 z M 580 140 L 560 140 L 560 160 L 580 160 L 580 140 z M 580 160 L 580 180 L 600 180 L 600 160 L 580 160 z M 580 180 L 560 180 L 560 200 L 580 200 L 580 180 z M 560 200 L 540 200 L 540 220 L 560 220 L 560 200 z M 560 220 L 560 240 L 580 240 L 580 220 L 560 220 z M 560 240 L 540 240 L 540 260 L 560 260 L 560 240 z M 560 260 L 560 280 L 580 280 L 580 260 L 560 260 z M 560 280 L 540 280 L 540 300 L 560 300 L 560 280 z M 540 300 L 520 300 L 520 320 L 540 320 L 540 300 z M 540 320 L 540 340 L 560 340 L 560 320 L 540 320 z M 540 340 L 520 340 L 520 360 L 540 360 L 540 340 z M 520 360 L 500 360 L 500 380 L 520 380 L 520 360 z M 520 380 L 520 400 L 540 400 L 540 380 L 520 380 z M 520 400 L 500 400 L 500 420 L 520 420 L 520 400 z M 500 420 L 480 420 L 480 440 L 500 440 L 500 420 z M 480 420 L 480 400 L 460 400 L 460 420 L 480 420 z M 460 400 L 460 380 L 440 380 L 440 360 L 420 360 L 420 380 L 420 400 L 440 400 L 460 400 z M 420 360 L 420 340 L 400 340 L 400 360 L 420 360 z M 400 340 L 400 320 L 380 320 L 380 340 L 400 340 z M 380 340 L 360 340 L 360 360 L 380 360 L 380 340 z M 360 360 L 340 360 L 340 380 L 360 380 L 360 360 z M 340 380 L 320 380 L 320 400 L 340 400 L 340 380 z M 320 400 L 300 400 L 300 420 L 320 420 L 320 400 z M 300 420 L 280 420 L 280 440 L 300 440 L 300 420 z M 280 440 L 260 440 L 260 460 L 280 460 L 280 440 z M 260 460 L 240 460 L 240 480 L 260 480 L 260 460 z M 240 480 L 220 480 L 220 500 L 240 500 L 240 480 z M 220 480 L 220 460 L 200 460 L 200 480 L 220 480 z M 200 480 L 180 480 L 180 500 L 200 500 L 200 480 z M 180 500 L 160 500 L 160 520 L 180 520 L 180 500 z M 160 520 L 140 520 L 140 540 L 160 540 L 160 520 z M 140 520 L 140 500 L 120 500 L 120 520 L 140 520 z M 120 520 L 100 520 L 100 540 L 120 540 L 120 520 z M 100 540 L 80 540 L 80 560 L 100 560 L 100 540 z M 80 540 L 80 520 L 60 520 L 60 540 L 80 540 z M 80 520 L 100 520 L 100 500 L 80 500 L 80 520 z M 100 500 L 120 500 L 120 480 L 100 480 L 100 500 z M 120 480 L 140 480 L 140 460 L 120 460 L 120 480 z M 140 460 L 160 460 L 160 440 L 140 440 L 140 460 z M 160 440 L 180 440 L 180 420 L 160 420 L 160 440 z M 160 420 L 160 400 L 140 400 L 140 420 L 160 420 z M 160 400 L 180 400 L 180 380 L 160 380 L 160 400 z M 180 380 L 200 380 L 200 360 L 180 360 L 180 380 z M 180 360 L 180 340 L 160 340 L 160 360 L 180 360 z M 200 360 L 220 360 L 220 340 L 200 340 L 200 360 z M 220 360 L 220 380 L 240 380 L 240 360 L 220 360 z M 240 360 L 260 360 L 260 340 L 240 340 L 240 360 z M 260 360 L 260 380 L 280 380 L 280 360 L 260 360 z M 280 360 L 300 360 L 300 340 L 280 340 L 280 360 z M 300 360 L 300 380 L 320 380 L 320 360 L 300 360 z M 320 360 L 340 360 L 340 340 L 320 340 L 320 360 z M 340 340 L 360 340 L 360 320 L 340 320 L 340 340 z M 360 320 L 380 320 L 380 300 L 360 300 L 360 320 z M 380 300 L 400 300 L 400 280 L 380 280 L 380 300 z M 380 280 L 380 260 L 360 260 L 360 280 L 380 280 z M 380 260 L 400 260 L 400 240 L 380 240 L 380 260 z M 380 240 L 380 220 L 360 220 L 360 240 L 380 240 z M 360 220 L 360 200 L 340 200 L 340 220 L 360 220 z M 340 200 L 340 180 L 320 180 L 320 200 L 340 200 z M 320 180 L 320 160 L 300 160 L 300 180 L 320 180 z M 300 160 L 300 140 L 280 140 L 280 160 L 300 160 z M 320 160 L 340 160 L 340 140 L 320 140 L 320 160 z M 340 160 L 340 180 L 360 180 L 360 160 L 340 160 z M 360 160 L 380 160 L 380 140 L 360 140 L 360 160 z M 380 160 L 380 180 L 400 180 L 400 160 L 380 160 z M 400 160 L 420 160 L 420 140 L 400 140 L 400 160 z M 420 160 L 420 180 L 440 180 L 440 160 L 420 160 z M 440 160 L 460 160 L 460 140 L 440 140 L 440 160 z M 460 160 L 460 180 L 480 180 L 480 160 L 460 160 z M 480 160 L 500 160 L 500 140 L 480 140 L 480 160 z M 500 160 L 500 180 L 520 180 L 520 160 L 500 160 z M 520 160 L 540 160 L 540 140 L 520 140 L 520 160 z M 540 160 L 540 180 L 560 180 L 560 160 L 540 160 z M 540 180 L 520 180 L 520 200 L 540 200 L 540 180 z M 520 200 L 500 200 L 500 220 L 520 220 L 520 200 z M 520 220 L 520 240 L 540 240 L 540 220 L 520 220 z M 520 240 L 500 240 L 500 260 L 520 260 L 520 240 z M 520 260 L 520 280 L 540 280 L 540 260 L 520 260 z M 520 280 L 500 280 L 500 300 L 520 300 L 520 280 z M 500 300 L 480 300 L 480 320 L 500 320 L 500 300 z M 500 320 L 500 340 L 520 340 L 520 320 L 500 320 z M 500 340 L 480 340 L 480 360 L 500 360 L 500 340 z M 480 360 L 460 360 L 460 380 L 480 380 L 480 360 z M 480 380 L 480 400 L 500 400 L 500 380 L 480 380 z M 460 360 L 460 340 L 440 340 L 440 360 L 460 360 z M 440 340 L 440 320 L 420 320 L 420 340 L 440 340 z M 420 320 L 420 300 L 400 300 L 400 320 L 420 320 z M 420 300 L 440 300 L 440 280 L 420 280 L 420 300 z M 420 280 L 420 260 L 400 260 L 400 280 L 420 280 z M 420 260 L 440 260 L 440 240 L 420 240 L 420 260 z M 420 240 L 420 220 L 400 220 L 400 240 L 420 240 z M 400 220 L 400 200 L 380 200 L 380 220 L 400 220 z M 380 200 L 380 180 L 360 180 L 360 200 L 380 200 z M 400 200 L 420 200 L 420 180 L 400 180 L 400 200 z M 420 200 L 420 220 L 440 220 L 440 200 L 420 200 z M 440 200 L 460 200 L 460 180 L 440 180 L 440 200 z M 460 200 L 460 220 L 480 220 L 480 200 L 460 200 z M 480 200 L 500 200 L 500 180 L 480 180 L 480 200 z M 480 220 L 480 240 L 500 240 L 500 220 L 480 220 z M 480 240 L 460 240 L 460 260 L 480 260 L 480 240 z M 480 260 L 480 280 L 500 280 L 500 260 L 480 260 z M 480 280 L 460 280 L 460 300 L 480 300 L 480 280 z M 460 300 L 440 300 L 440 320 L 460 320 L 460 300 z M 460 320 L 460 340 L 480 340 L 480 320 L 460 320 z M 460 280 L 460 260 L 440 260 L 440 280 L 460 280 z M 460 240 L 460 220 L 440 220 L 440 240 L 460 240 z M 300 380 L 280 380 L 280 400 L 300 400 L 300 380 z M 280 400 L 260 400 L 260 420 L 280 420 L 280 400 z M 260 420 L 240 420 L 240 440 L 260 440 L 260 420 z M 240 440 L 220 440 L 220 460 L 240 460 L 240 440 z M 220 440 L 220 420 L 200 420 L 200 440 L 220 440 z M 200 440 L 180 440 L 180 460 L 200 460 L 200 440 z M 180 460 L 160 460 L 160 480 L 180 480 L 180 460 z M 160 480 L 140 480 L 140 500 L 160 500 L 160 480 z M 200 420 L 200 400 L 180 400 L 180 420 L 200 420 z M 200 400 L 220 400 L 220 380 L 200 380 L 200 400 z M 220 400 L 220 420 L 240 420 L 240 400 L 220 400 z M 240 400 L 260 400 L 260 380 L 240 380 L 240 400 z "
     id="rect1178" />
  <path
     style="fill:#000000"
     d="M 620 80 L 620 100 L 620 120 L 620 140 L 620 160 L 640 160 L 640 140 L 640 120 L 640 100 L 640 80 L 620 80 z M 620 160 L 600 160 L 600 180 L 600 200 L 600 220 L 600 240 L 600 260 L 620 260 L 620 240 L 620 220 L 620 200 L 620 180 L 620 160 z M 600 260 L 580 260 L 580 280 L 580 300 L 580 320 L 560 320 L 560 340 L 560 360 L 560 380 L 560 400 L 580 400 L 580 380 L 580 360 L 600 360 L 600 340 L 600 320 L 600 300 L 600 280 L 600 260 z M 560 400 L 540 400 L 540 420 L 540 440 L 520 440 L 500 440 L 480 440 L 480 460 L 500 460 L 520 460 L 520 480 L 540 480 L 540 460 L 560 460 L 560 440 L 560 420 L 560 400 z M 520 480 L 500 480 L 480 480 L 480 500 L 500 500 L 520 500 L 520 480 z M 480 500 L 460 500 L 440 500 L 420 500 L 420 520 L 440 520 L 460 520 L 480 520 L 480 500 z M 420 520 L 400 520 L 380 520 L 360 520 L 340 520 L 320 520 L 300 520 L 300 540 L 320 540 L 340 540 L 360 540 L 380 540 L 400 540 L 420 540 L 420 520 z M 300 540 L 280 540 L 260 540 L 240 540 L 220 540 L 200 540 L 200 520 L 180 520 L 160 520 L 160 540 L 140 540 L 120 540 L 100 540 L 100 560 L 120 560 L 140 560 L 160 560 L 180 560 L 200 560 L 220 560 L 240 560 L 260 560 L 280 560 L 300 560 L 300 540 z M 100 560 L 80 560 L 60 560 L 40 560 L 20 560 L 0 560 L 0 580 L 20 580 L 40 580 L 60 580 L 80 580 L 100 580 L 100 560 z M 200 520 L 220 520 L 240 520 L 240 500 L 220 500 L 200 500 L 200 520 z M 240 500 L 260 500 L 260 480 L 240 480 L 240 500 z M 260 480 L 280 480 L 280 460 L 260 460 L 260 480 z M 280 460 L 300 460 L 300 440 L 280 440 L 280 460 z M 300 440 L 320 440 L 320 420 L 300 420 L 300 440 z M 320 420 L 340 420 L 340 400 L 320 400 L 320 420 z M 340 400 L 360 400 L 360 380 L 340 380 L 340 400 z M 360 380 L 380 380 L 400 380 L 400 360 L 380 360 L 360 360 L 360 380 z M 400 380 L 400 400 L 420 400 L 420 380 L 400 380 z M 420 400 L 420 420 L 440 420 L 440 400 L 420 400 z M 440 420 L 440 440 L 460 440 L 480 440 L 480 420 L 460 420 L 440 420 z M 280 160 L 280 180 L 280 200 L 280 220 L 280 240 L 280 260 L 280 280 L 280 300 L 300 300 L 300 280 L 300 260 L 300 240 L 320 240 L 340 240 L 360 240 L 360 220 L 340 220 L 320 220 L 300 220 L 300 200 L 300 180 L 300 160 L 280 160 z M 280 300 L 260 300 L 260 320 L 280 320 L 280 300 z M 260 320 L 240 320 L 220 320 L 200 320 L 180 320 L 180 340 L 200 340 L 220 340 L 240 340 L 260 340 L 260 320 z M 180 320 L 180 300 L 160 300 L 160 320 L 180 320 z M 160 300 L 160 280 L 180 280 L 200 280 L 200 260 L 180 260 L 160 260 L 140 260 L 140 240 L 140 220 L 140 200 L 120 200 L 120 220 L 120 240 L 120 260 L 120 280 L 140 280 L 140 300 L 160 300 z M 120 280 L 100 280 L 100 300 L 120 300 L 120 280 z M 100 300 L 80 300 L 60 300 L 40 300 L 40 320 L 60 320 L 80 320 L 100 320 L 100 300 z M 140 200 L 160 200 L 180 200 L 200 200 L 200 180 L 180 180 L 160 180 L 140 180 L 140 200 z M 200 200 L 200 220 L 200 240 L 200 260 L 220 260 L 220 240 L 220 220 L 220 200 L 200 200 z "
     id="rect1208" />
</svg>
