<?xml version="1.0" encoding="UTF-8" standalone="no"?>
<svg
   xmlns:dc="http://purl.org/dc/elements/1.1/"
   xmlns:cc="http://creativecommons.org/ns#"
   xmlns:rdf="http://www.w3.org/1999/02/22-rdf-syntax-ns#"
   xmlns:svg="http://www.w3.org/2000/svg"
   xmlns="http://www.w3.org/2000/svg"
   id="svg3428"
   width="960px"
   version="1.1"
   height="960px">
  <metadata
     id="metadata3432">
    <rdf:RDF>
      <cc:Work
         rdf:about="">
        <dc:format>image/svg+xml</dc:format>
        <dc:type
           rdf:resource="http://purl.org/dc/dcmitype/StillImage" />
      </cc:Work>
    </rdf:RDF>
  </metadata>
  <defs
     id="defs2" />
  <path
     style="fill:#ff0000"
     d="M 240 120 L 240 140 L 260 140 L 260 120 L 240 120 z M 260 140 L 260 160 L 280 160 L 280 180 L 260 180 L 240 180 L 240 200 L 240 220 L 260 220 L 260 240 L 280 240 L 280 220 L 300 220 L 300 240 L 320 240 L 320 220 L 320 200 L 320 180 L 300 180 L 300 160 L 300 140 L 280 140 L 260 140 z M 300 240 L 280 240 L 280 260 L 300 260 L 300 240 z "
     id="rect752" />
  <path
     style="fill:#800000"
     d="M 240 140 L 240 160 L 240 180 L 260 180 L 280 180 L 280 160 L 260 160 L 260 140 L 240 140 z M 300 140 L 300 160 L 300 180 L 320 180 L 320 160 L 320 140 L 300 140 z M 280 220 L 280 240 L 300 240 L 300 220 L 280 220 z M 300 240 L 300 260 L 300 280 L 320 280 L 320 260 L 320 240 L 300 240 z "
     id="rect832" />
  <path
     style="fill:#008000"
     d="M 500 60 L 500 80 L 520 80 L 520 100 L 540 100 L 560 100 L 580 100 L 580 120 L 600 120 L 620 120 L 620 140 L 640 140 L 660 140 L 660 160 L 680 160 L 680 180 L 680 200 L 700 200 L 700 220 L 720 220 L 720 240 L 720 260 L 700 260 L 700 280 L 700 300 L 720 300 L 740 300 L 740 320 L 760 320 L 780 320 L 800 320 L 820 320 L 820 340 L 840 340 L 840 320 L 840 300 L 820 300 L 820 280 L 840 280 L 840 260 L 840 240 L 820 240 L 820 220 L 820 200 L 820 180 L 820 160 L 820 140 L 800 140 L 800 120 L 800 100 L 780 100 L 780 80 L 760 80 L 740 80 L 720 80 L 720 60 L 700 60 L 680 60 L 660 60 L 640 60 L 640 80 L 620 80 L 620 100 L 600 100 L 600 80 L 580 80 L 580 60 L 560 60 L 540 60 L 520 60 L 500 60 z M 840 240 L 860 240 L 880 240 L 880 220 L 860 220 L 840 220 L 840 240 z M 880 240 L 880 260 L 900 260 L 900 240 L 880 240 z M 840 280 L 840 300 L 860 300 L 860 280 L 840 280 z M 840 340 L 840 360 L 860 360 L 860 340 L 840 340 z M 880 300 L 880 320 L 900 320 L 900 300 L 880 300 z M 900 320 L 900 340 L 900 360 L 920 360 L 920 340 L 920 320 L 900 320 z M 900 360 L 880 360 L 880 380 L 900 380 L 900 360 z M 680 360 L 680 380 L 680 400 L 680 420 L 700 420 L 720 420 L 720 400 L 720 380 L 700 380 L 700 360 L 680 360 z M 900 400 L 900 420 L 920 420 L 920 400 L 900 400 z M 900 420 L 880 420 L 880 440 L 900 440 L 900 420 z "
     id="rect1556" />
  <path
     style="fill:#008080"
     d="M 460 20 L 460 40 L 440 40 L 440 60 L 460 60 L 480 60 L 480 40 L 480 20 L 460 20 z M 580 20 L 580 40 L 580 60 L 580 80 L 600 80 L 600 60 L 620 60 L 640 60 L 660 60 L 660 40 L 640 40 L 640 20 L 620 20 L 600 20 L 580 20 z M 800 120 L 800 140 L 820 140 L 820 120 L 800 120 z M 820 180 L 820 200 L 820 220 L 840 220 L 860 220 L 860 200 L 840 200 L 840 180 L 820 180 z M 680 200 L 680 220 L 700 220 L 700 200 L 680 200 z M 700 220 L 700 240 L 720 240 L 720 220 L 700 220 z M 860 240 L 860 260 L 880 260 L 880 240 L 860 240 z M 860 260 L 840 260 L 840 280 L 860 280 L 860 260 z M 860 280 L 860 300 L 880 300 L 880 280 L 860 280 z M 840 280 L 820 280 L 820 300 L 840 300 L 840 280 z M 720 300 L 720 320 L 740 320 L 740 300 L 720 300 z M 840 320 L 840 340 L 860 340 L 860 320 L 840 320 z M 860 340 L 860 360 L 860 380 L 880 380 L 880 360 L 880 340 L 860 340 z M 880 340 L 900 340 L 900 320 L 880 320 L 880 340 z M 140 340 L 140 360 L 140 380 L 160 380 L 180 380 L 180 360 L 180 340 L 160 340 L 140 340 z M 900 380 L 900 400 L 920 400 L 920 380 L 900 380 z M 680 420 L 680 440 L 680 460 L 700 460 L 720 460 L 720 440 L 720 420 L 700 420 L 680 420 z "
     id="rect1626" />
  <path
     style="fill:#000080"
     d="M 600 60 L 600 80 L 620 80 L 620 60 L 600 60 z M 840 180 L 840 200 L 860 200 L 880 200 L 880 180 L 860 180 L 840 180 z M 680 240 L 680 260 L 680 280 L 700 280 L 700 260 L 700 240 L 680 240 z M 840 240 L 840 260 L 860 260 L 860 240 L 840 240 z M 880 260 L 880 280 L 880 300 L 900 300 L 900 320 L 920 320 L 920 300 L 920 280 L 900 280 L 900 260 L 880 260 z M 920 320 L 920 340 L 920 360 L 900 360 L 900 380 L 920 380 L 940 380 L 940 360 L 940 340 L 940 320 L 920 320 z M 900 360 L 900 340 L 880 340 L 880 360 L 900 360 z M 880 340 L 880 320 L 860 320 L 860 340 L 880 340 z M 860 320 L 860 300 L 840 300 L 840 320 L 860 320 z M 680 300 L 680 320 L 680 340 L 680 360 L 700 360 L 720 360 L 720 380 L 720 400 L 720 420 L 720 440 L 740 440 L 740 420 L 760 420 L 760 400 L 760 380 L 780 380 L 780 360 L 760 360 L 740 360 L 740 340 L 720 340 L 700 340 L 700 320 L 700 300 L 680 300 z M 740 340 L 760 340 L 780 340 L 800 340 L 800 320 L 780 320 L 760 320 L 740 320 L 740 340 z M 840 380 L 840 400 L 840 420 L 840 440 L 860 440 L 860 460 L 860 480 L 840 480 L 840 460 L 840 440 L 820 440 L 820 460 L 820 480 L 820 500 L 800 500 L 800 520 L 820 520 L 840 520 L 840 540 L 840 560 L 840 580 L 840 600 L 840 620 L 840 640 L 840 660 L 840 680 L 860 680 L 860 660 L 880 660 L 880 640 L 880 620 L 900 620 L 900 600 L 900 580 L 920 580 L 920 560 L 920 540 L 940 540 L 940 520 L 940 500 L 940 480 L 940 460 L 940 440 L 940 420 L 920 420 L 920 440 L 900 440 L 900 460 L 880 460 L 880 440 L 880 420 L 860 420 L 860 400 L 860 380 L 840 380 z M 720 460 L 720 480 L 740 480 L 740 460 L 720 460 z M 760 480 L 760 500 L 780 500 L 780 480 L 760 480 z "
     id="rect2668" />
  <path
     style="fill:#0000ff"
     d="M 540 40 L 540 60 L 560 60 L 560 40 L 540 40 z M 700 240 L 700 260 L 720 260 L 720 240 L 700 240 z M 360 300 L 360 320 L 360 340 L 360 360 L 360 380 L 360 400 L 360 420 L 360 440 L 360 460 L 360 480 L 360 500 L 360 520 L 360 540 L 360 560 L 360 580 L 380 580 L 400 580 L 400 560 L 400 540 L 400 520 L 400 500 L 400 480 L 400 460 L 400 440 L 400 420 L 400 400 L 400 380 L 400 360 L 400 340 L 400 320 L 400 300 L 380 300 L 360 300 z M 700 300 L 700 320 L 700 340 L 720 340 L 740 340 L 740 320 L 720 320 L 720 300 L 700 300 z M 740 340 L 740 360 L 760 360 L 780 360 L 780 380 L 760 380 L 760 400 L 760 420 L 740 420 L 740 440 L 720 440 L 720 460 L 740 460 L 740 480 L 760 480 L 780 480 L 780 500 L 800 500 L 820 500 L 820 480 L 820 460 L 820 440 L 840 440 L 840 420 L 840 400 L 840 380 L 860 380 L 860 360 L 840 360 L 840 340 L 820 340 L 800 340 L 780 340 L 760 340 L 740 340 z M 860 380 L 860 400 L 860 420 L 880 420 L 900 420 L 900 400 L 880 400 L 880 380 L 860 380 z M 840 440 L 840 460 L 840 480 L 860 480 L 860 460 L 860 440 L 840 440 z M 420 360 L 420 380 L 420 400 L 420 420 L 420 440 L 420 460 L 420 480 L 420 500 L 420 520 L 420 540 L 420 560 L 420 580 L 420 600 L 440 600 L 460 600 L 460 580 L 460 560 L 460 540 L 460 520 L 460 500 L 460 480 L 460 460 L 460 440 L 460 420 L 460 400 L 460 380 L 460 360 L 440 360 L 420 360 z M 240 540 L 240 560 L 240 580 L 240 600 L 240 620 L 240 640 L 240 660 L 240 680 L 240 700 L 260 700 L 280 700 L 280 680 L 280 660 L 280 640 L 280 620 L 280 600 L 280 580 L 280 560 L 280 540 L 260 540 L 240 540 z "
     id="rect2698" />
  <path
     style="fill:#ffffff"
     d="M 400 0 L 400 20 L 420 20 L 420 0 L 400 0 z M 200 100 L 200 120 L 200 140 L 200 160 L 200 180 L 200 200 L 200 220 L 200 240 L 200 260 L 200 280 L 200 300 L 200 320 L 200 340 L 200 360 L 200 380 L 200 400 L 200 420 L 200 440 L 200 460 L 200 480 L 200 500 L 200 520 L 200 540 L 200 560 L 200 580 L 200 600 L 200 620 L 200 640 L 200 660 L 200 680 L 220 680 L 220 700 L 240 700 L 240 680 L 240 660 L 240 640 L 240 620 L 240 600 L 240 580 L 240 560 L 240 540 L 260 540 L 280 540 L 280 560 L 280 580 L 280 600 L 280 620 L 280 640 L 280 660 L 280 680 L 280 700 L 280 720 L 300 720 L 300 700 L 320 700 L 320 680 L 340 680 L 340 660 L 360 660 L 380 660 L 400 660 L 420 660 L 440 660 L 460 660 L 460 640 L 480 640 L 500 640 L 500 620 L 520 620 L 520 600 L 520 580 L 520 560 L 520 540 L 520 520 L 520 500 L 520 480 L 520 460 L 520 440 L 520 420 L 520 400 L 520 380 L 520 360 L 520 340 L 520 320 L 520 300 L 520 280 L 520 260 L 500 260 L 500 240 L 480 240 L 460 240 L 460 220 L 440 220 L 420 220 L 420 200 L 400 200 L 380 200 L 380 180 L 360 180 L 340 180 L 340 160 L 320 160 L 320 180 L 320 200 L 320 220 L 320 240 L 320 260 L 320 280 L 300 280 L 300 260 L 280 260 L 280 240 L 260 240 L 260 220 L 240 220 L 240 200 L 240 180 L 240 160 L 240 140 L 240 120 L 220 120 L 220 100 L 200 100 z M 320 700 L 320 720 L 300 720 L 300 740 L 280 740 L 260 740 L 240 740 L 220 740 L 220 720 L 200 720 L 200 700 L 180 700 L 180 680 L 180 660 L 160 660 L 160 640 L 160 620 L 140 620 L 140 600 L 140 580 L 120 580 L 120 560 L 100 560 L 100 540 L 80 540 L 60 540 L 60 560 L 80 560 L 80 580 L 100 580 L 100 600 L 100 620 L 120 620 L 120 640 L 140 640 L 140 660 L 140 680 L 160 680 L 160 700 L 160 720 L 180 720 L 180 740 L 200 740 L 200 760 L 220 760 L 240 760 L 260 760 L 280 760 L 300 760 L 320 760 L 320 740 L 340 740 L 340 720 L 360 720 L 380 720 L 400 720 L 420 720 L 440 720 L 460 720 L 460 700 L 480 700 L 500 700 L 520 700 L 520 680 L 540 680 L 560 680 L 560 660 L 580 660 L 600 660 L 600 640 L 620 640 L 640 640 L 640 620 L 660 620 L 680 620 L 680 600 L 700 600 L 720 600 L 720 580 L 740 580 L 760 580 L 760 560 L 780 560 L 780 540 L 800 540 L 800 520 L 780 520 L 760 520 L 760 500 L 740 500 L 720 500 L 720 480 L 700 480 L 680 480 L 680 500 L 700 500 L 700 520 L 720 520 L 720 540 L 720 560 L 700 560 L 680 560 L 680 580 L 660 580 L 640 580 L 640 600 L 620 600 L 600 600 L 600 620 L 580 620 L 560 620 L 560 640 L 540 640 L 520 640 L 520 660 L 500 660 L 480 660 L 480 680 L 460 680 L 440 680 L 420 680 L 400 680 L 380 680 L 360 680 L 360 700 L 340 700 L 320 700 z M 60 540 L 60 520 L 40 520 L 40 540 L 60 540 z M 140 300 L 140 320 L 140 340 L 160 340 L 180 340 L 180 320 L 180 300 L 160 300 L 140 300 z M 360 300 L 380 300 L 400 300 L 400 320 L 400 340 L 400 360 L 400 380 L 400 400 L 400 420 L 400 440 L 400 460 L 400 480 L 400 500 L 400 520 L 400 540 L 400 560 L 400 580 L 380 580 L 360 580 L 360 560 L 360 540 L 360 520 L 360 500 L 360 480 L 360 460 L 360 440 L 360 420 L 360 400 L 360 380 L 360 360 L 360 340 L 360 320 L 360 300 z M 420 360 L 440 360 L 460 360 L 460 380 L 460 400 L 460 420 L 460 440 L 460 460 L 460 480 L 460 500 L 460 520 L 460 540 L 460 560 L 460 580 L 460 600 L 440 600 L 420 600 L 420 580 L 420 560 L 420 540 L 420 520 L 420 500 L 420 480 L 420 460 L 420 440 L 420 420 L 420 400 L 420 380 L 420 360 z M 120 460 L 120 480 L 140 480 L 160 480 L 180 480 L 180 460 L 160 460 L 140 460 L 120 460 z M 120 480 L 100 480 L 80 480 L 80 500 L 100 500 L 120 500 L 120 480 z "
     id="rect2954" />
  <path
     style="fill:#c0c0c0"
     d="M 380 0 L 380 20 L 400 20 L 400 0 L 380 0 z M 400 20 L 400 40 L 420 40 L 420 20 L 400 20 z M 400 40 L 380 40 L 360 40 L 340 40 L 340 60 L 360 60 L 380 60 L 380 80 L 400 80 L 420 80 L 420 100 L 440 100 L 460 100 L 460 120 L 480 120 L 500 120 L 500 140 L 520 140 L 540 140 L 540 160 L 560 160 L 580 160 L 580 180 L 600 180 L 600 200 L 620 200 L 620 220 L 620 240 L 620 260 L 620 280 L 620 300 L 620 320 L 620 340 L 620 360 L 620 380 L 620 400 L 620 420 L 620 440 L 620 460 L 620 480 L 620 500 L 620 520 L 620 540 L 620 560 L 600 560 L 600 540 L 600 520 L 600 500 L 600 480 L 600 460 L 600 440 L 600 420 L 600 400 L 600 380 L 600 360 L 600 340 L 600 320 L 600 300 L 600 280 L 600 260 L 600 240 L 600 220 L 580 220 L 580 200 L 560 200 L 560 180 L 540 180 L 520 180 L 520 200 L 540 200 L 540 220 L 560 220 L 560 240 L 560 260 L 560 280 L 560 300 L 560 320 L 560 340 L 560 360 L 560 380 L 560 400 L 560 420 L 560 440 L 560 460 L 560 480 L 560 500 L 560 520 L 560 540 L 560 560 L 560 580 L 560 600 L 540 600 L 540 580 L 540 560 L 540 540 L 540 520 L 540 500 L 540 480 L 540 460 L 540 440 L 540 420 L 540 400 L 540 380 L 540 360 L 540 340 L 540 320 L 540 300 L 540 280 L 540 260 L 540 240 L 520 240 L 520 220 L 500 220 L 480 220 L 480 200 L 460 200 L 440 200 L 440 180 L 420 180 L 400 180 L 400 160 L 380 160 L 360 160 L 360 140 L 340 140 L 320 140 L 320 160 L 340 160 L 340 180 L 360 180 L 380 180 L 380 200 L 400 200 L 420 200 L 420 220 L 440 220 L 460 220 L 460 240 L 480 240 L 500 240 L 500 260 L 520 260 L 520 280 L 520 300 L 520 320 L 520 340 L 520 360 L 520 380 L 520 400 L 520 420 L 520 440 L 520 460 L 520 480 L 520 500 L 520 520 L 520 540 L 520 560 L 520 580 L 520 600 L 520 620 L 500 620 L 500 640 L 480 640 L 460 640 L 460 660 L 440 660 L 420 660 L 400 660 L 380 660 L 360 660 L 340 660 L 340 680 L 320 680 L 320 700 L 340 700 L 360 700 L 360 680 L 380 680 L 400 680 L 420 680 L 440 680 L 460 680 L 480 680 L 480 660 L 500 660 L 520 660 L 520 640 L 540 640 L 560 640 L 560 620 L 580 620 L 600 620 L 600 600 L 620 600 L 640 600 L 640 580 L 660 580 L 680 580 L 680 560 L 700 560 L 720 560 L 720 540 L 720 520 L 700 520 L 700 500 L 680 500 L 680 520 L 680 540 L 660 540 L 660 520 L 660 500 L 660 480 L 660 460 L 660 440 L 660 420 L 660 400 L 660 380 L 660 360 L 660 340 L 660 320 L 660 300 L 660 280 L 660 260 L 660 240 L 660 220 L 660 200 L 660 180 L 640 180 L 640 160 L 620 160 L 600 160 L 600 140 L 580 140 L 560 140 L 560 120 L 540 120 L 520 120 L 520 100 L 500 100 L 480 100 L 480 80 L 460 80 L 440 80 L 440 60 L 420 60 L 400 60 L 400 40 z M 320 700 L 300 700 L 300 720 L 320 720 L 320 700 z M 320 140 L 320 120 L 300 120 L 280 120 L 280 100 L 260 100 L 240 100 L 240 80 L 220 80 L 200 80 L 200 100 L 220 100 L 220 120 L 240 120 L 260 120 L 260 140 L 280 140 L 300 140 L 320 140 z M 520 180 L 520 160 L 500 160 L 480 160 L 480 140 L 460 140 L 440 140 L 440 120 L 420 120 L 400 120 L 400 140 L 420 140 L 420 160 L 440 160 L 460 160 L 460 180 L 480 180 L 500 180 L 520 180 z M 400 120 L 400 100 L 380 100 L 360 100 L 360 80 L 340 80 L 340 60 L 320 60 L 300 60 L 280 60 L 280 80 L 300 80 L 300 100 L 320 100 L 340 100 L 340 120 L 360 120 L 380 120 L 400 120 z M 480 20 L 480 40 L 480 60 L 500 60 L 520 60 L 520 40 L 500 40 L 500 20 L 480 20 z M 140 380 L 140 400 L 140 420 L 160 420 L 180 420 L 180 400 L 180 380 L 160 380 L 140 380 z M 120 440 L 120 460 L 140 460 L 160 460 L 180 460 L 180 440 L 160 440 L 140 440 L 120 440 z M 120 460 L 100 460 L 100 480 L 120 480 L 120 460 z M 120 480 L 120 500 L 140 500 L 140 480 L 120 480 z M 120 500 L 100 500 L 80 500 L 80 480 L 60 480 L 60 500 L 40 500 L 40 520 L 60 520 L 60 540 L 80 540 L 80 520 L 100 520 L 120 520 L 120 500 z M 60 540 L 40 540 L 40 520 L 20 520 L 20 540 L 20 560 L 20 580 L 20 600 L 20 620 L 20 640 L 20 660 L 20 680 L 20 700 L 20 720 L 40 720 L 40 740 L 60 740 L 60 760 L 80 760 L 100 760 L 100 780 L 120 780 L 140 780 L 140 800 L 160 800 L 180 800 L 180 820 L 200 820 L 220 820 L 220 840 L 240 840 L 260 840 L 260 860 L 280 860 L 300 860 L 300 880 L 320 880 L 340 880 L 340 900 L 360 900 L 380 900 L 380 920 L 400 920 L 420 920 L 420 940 L 440 940 L 460 940 L 460 920 L 460 900 L 460 880 L 460 860 L 460 840 L 460 820 L 460 800 L 460 780 L 460 760 L 460 740 L 460 720 L 440 720 L 420 720 L 400 720 L 380 720 L 360 720 L 340 720 L 340 740 L 320 740 L 320 760 L 300 760 L 280 760 L 260 760 L 240 760 L 220 760 L 200 760 L 200 740 L 180 740 L 180 720 L 160 720 L 160 700 L 160 680 L 140 680 L 140 660 L 140 640 L 120 640 L 120 620 L 100 620 L 100 600 L 100 580 L 80 580 L 80 560 L 60 560 L 60 540 z M 220 720 L 220 740 L 240 740 L 240 720 L 220 720 z "
     id="rect3414" />
  <path
     style="fill:#808080"
     d="M 300 0 L 300 20 L 280 20 L 260 20 L 260 40 L 240 40 L 220 40 L 220 60 L 200 60 L 200 80 L 220 80 L 240 80 L 240 100 L 260 100 L 280 100 L 280 120 L 300 120 L 320 120 L 320 140 L 340 140 L 360 140 L 360 160 L 380 160 L 400 160 L 400 180 L 420 180 L 440 180 L 440 200 L 460 200 L 480 200 L 480 220 L 500 220 L 520 220 L 520 240 L 540 240 L 560 240 L 560 220 L 540 220 L 540 200 L 520 200 L 520 180 L 500 180 L 480 180 L 460 180 L 460 160 L 440 160 L 420 160 L 420 140 L 400 140 L 400 120 L 380 120 L 360 120 L 340 120 L 340 100 L 320 100 L 300 100 L 300 80 L 280 80 L 280 60 L 300 60 L 320 60 L 340 60 L 340 40 L 360 40 L 380 40 L 400 40 L 400 20 L 380 20 L 380 0 L 360 0 L 340 0 L 320 0 L 300 0 z M 400 40 L 400 60 L 420 60 L 440 60 L 440 40 L 460 40 L 460 20 L 480 20 L 500 20 L 500 40 L 520 40 L 520 60 L 540 60 L 540 40 L 560 40 L 560 60 L 580 60 L 580 40 L 580 20 L 600 20 L 620 20 L 640 20 L 640 40 L 660 40 L 660 60 L 680 60 L 700 60 L 720 60 L 720 80 L 740 80 L 760 80 L 760 60 L 740 60 L 740 40 L 720 40 L 700 40 L 700 20 L 680 20 L 660 20 L 660 0 L 640 0 L 620 0 L 600 0 L 580 0 L 560 0 L 540 0 L 520 0 L 500 0 L 480 0 L 460 0 L 440 0 L 420 0 L 420 20 L 420 40 L 400 40 z M 440 60 L 440 80 L 460 80 L 480 80 L 480 100 L 500 100 L 520 100 L 520 80 L 500 80 L 500 60 L 480 60 L 460 60 L 440 60 z M 520 100 L 520 120 L 540 120 L 560 120 L 560 140 L 580 140 L 600 140 L 600 160 L 620 160 L 640 160 L 640 180 L 660 180 L 680 180 L 680 160 L 660 160 L 660 140 L 640 140 L 620 140 L 620 120 L 600 120 L 580 120 L 580 100 L 560 100 L 540 100 L 520 100 z M 340 60 L 340 80 L 360 80 L 360 100 L 380 100 L 400 100 L 400 120 L 420 120 L 440 120 L 440 140 L 460 140 L 480 140 L 480 160 L 500 160 L 520 160 L 520 180 L 540 180 L 560 180 L 560 200 L 580 200 L 580 220 L 600 220 L 620 220 L 620 200 L 600 200 L 600 180 L 580 180 L 580 160 L 560 160 L 540 160 L 540 140 L 520 140 L 500 140 L 500 120 L 480 120 L 460 120 L 460 100 L 440 100 L 420 100 L 420 80 L 400 80 L 380 80 L 380 60 L 360 60 L 340 60 z M 200 80 L 180 80 L 180 100 L 180 120 L 180 140 L 180 160 L 180 180 L 180 200 L 180 220 L 160 220 L 160 240 L 160 260 L 140 260 L 140 280 L 140 300 L 160 300 L 180 300 L 180 320 L 180 340 L 180 360 L 180 380 L 180 400 L 180 420 L 160 420 L 140 420 L 140 400 L 140 380 L 140 360 L 140 340 L 140 320 L 140 300 L 120 300 L 120 320 L 120 340 L 120 360 L 120 380 L 120 400 L 120 420 L 120 440 L 140 440 L 160 440 L 180 440 L 180 460 L 180 480 L 160 480 L 140 480 L 140 500 L 120 500 L 120 520 L 100 520 L 80 520 L 80 540 L 100 540 L 100 560 L 120 560 L 120 580 L 140 580 L 140 600 L 140 620 L 160 620 L 160 640 L 160 660 L 180 660 L 180 680 L 180 700 L 200 700 L 200 720 L 220 720 L 240 720 L 240 740 L 260 740 L 280 740 L 300 740 L 300 720 L 280 720 L 280 700 L 260 700 L 240 700 L 220 700 L 220 680 L 200 680 L 200 660 L 200 640 L 200 620 L 200 600 L 200 580 L 200 560 L 200 540 L 200 520 L 200 500 L 200 480 L 200 460 L 200 440 L 200 420 L 200 400 L 200 380 L 200 360 L 200 340 L 200 320 L 200 300 L 200 280 L 200 260 L 200 240 L 200 220 L 200 200 L 200 180 L 200 160 L 200 140 L 200 120 L 200 100 L 200 80 z M 120 440 L 100 440 L 80 440 L 80 460 L 60 460 L 40 460 L 40 480 L 20 480 L 0 480 L 0 500 L 0 520 L 0 540 L 0 560 L 0 580 L 0 600 L 0 620 L 0 640 L 0 660 L 0 680 L 0 700 L 0 720 L 0 740 L 20 740 L 20 720 L 20 700 L 20 680 L 20 660 L 20 640 L 20 620 L 20 600 L 20 580 L 20 560 L 20 540 L 20 520 L 40 520 L 40 500 L 60 500 L 60 480 L 80 480 L 100 480 L 100 460 L 120 460 L 120 440 z M 20 740 L 20 760 L 40 760 L 40 740 L 20 740 z M 620 60 L 620 80 L 640 80 L 640 60 L 620 60 z M 620 80 L 600 80 L 600 100 L 620 100 L 620 80 z M 820 120 L 820 140 L 820 160 L 840 160 L 840 180 L 860 180 L 860 160 L 860 140 L 840 140 L 840 120 L 820 120 z M 800 320 L 800 340 L 820 340 L 820 320 L 800 320 z M 880 380 L 880 400 L 900 400 L 900 380 L 880 380 z M 700 460 L 700 480 L 720 480 L 720 460 L 700 460 z M 720 480 L 720 500 L 740 500 L 760 500 L 760 480 L 740 480 L 720 480 z M 760 500 L 760 520 L 780 520 L 800 520 L 800 500 L 780 500 L 760 500 z M 800 520 L 800 540 L 780 540 L 780 560 L 760 560 L 760 580 L 740 580 L 720 580 L 720 600 L 700 600 L 680 600 L 680 620 L 660 620 L 640 620 L 640 640 L 620 640 L 600 640 L 600 660 L 580 660 L 560 660 L 560 680 L 540 680 L 520 680 L 520 700 L 500 700 L 480 700 L 460 700 L 460 720 L 460 740 L 460 760 L 460 780 L 460 800 L 460 820 L 460 840 L 460 860 L 460 880 L 460 900 L 460 920 L 460 940 L 480 940 L 480 920 L 500 920 L 520 920 L 520 900 L 540 900 L 560 900 L 560 880 L 580 880 L 600 880 L 600 860 L 620 860 L 640 860 L 640 840 L 660 840 L 680 840 L 680 820 L 700 820 L 720 820 L 720 800 L 740 800 L 760 800 L 760 780 L 780 780 L 800 780 L 800 760 L 820 760 L 820 740 L 820 720 L 820 700 L 820 680 L 820 660 L 820 640 L 820 620 L 820 600 L 820 580 L 820 560 L 820 540 L 840 540 L 840 520 L 820 520 L 800 520 z M 820 760 L 820 780 L 840 780 L 840 760 L 820 760 z "
     id="rect3416" />
  <path
     style="fill:#000000"
     d="M 780 80 L 780 100 L 800 100 L 800 80 L 780 80 z M 800 100 L 800 120 L 820 120 L 820 100 L 800 100 z M 820 160 L 820 180 L 840 180 L 840 160 L 820 160 z M 660 180 L 660 200 L 660 220 L 660 240 L 660 260 L 660 280 L 660 300 L 660 320 L 660 340 L 660 360 L 660 380 L 660 400 L 660 420 L 660 440 L 660 460 L 660 480 L 660 500 L 660 520 L 660 540 L 680 540 L 680 520 L 680 500 L 680 480 L 700 480 L 700 460 L 680 460 L 680 440 L 680 420 L 680 400 L 680 380 L 680 360 L 680 340 L 680 320 L 680 300 L 700 300 L 700 280 L 680 280 L 680 260 L 680 240 L 700 240 L 700 220 L 680 220 L 680 200 L 680 180 L 660 180 z M 880 180 L 880 200 L 860 200 L 860 220 L 880 220 L 880 240 L 900 240 L 900 260 L 900 280 L 920 280 L 920 300 L 920 320 L 940 320 L 940 340 L 940 360 L 940 380 L 920 380 L 920 400 L 920 420 L 940 420 L 940 440 L 940 460 L 940 480 L 940 500 L 940 520 L 940 540 L 960 540 L 960 520 L 960 500 L 960 480 L 960 460 L 960 440 L 960 420 L 960 400 L 960 380 L 960 360 L 960 340 L 960 320 L 960 300 L 940 300 L 940 280 L 940 260 L 920 260 L 920 240 L 920 220 L 900 220 L 900 200 L 900 180 L 880 180 z M 940 540 L 920 540 L 920 560 L 920 580 L 940 580 L 940 560 L 940 540 z M 920 580 L 900 580 L 900 600 L 900 620 L 920 620 L 920 600 L 920 580 z M 900 620 L 880 620 L 880 640 L 880 660 L 900 660 L 900 640 L 900 620 z M 880 660 L 860 660 L 860 680 L 880 680 L 880 660 z M 860 680 L 840 680 L 840 660 L 840 640 L 840 620 L 840 600 L 840 580 L 840 560 L 840 540 L 820 540 L 820 560 L 820 580 L 820 600 L 820 620 L 820 640 L 820 660 L 820 680 L 820 700 L 820 720 L 820 740 L 820 760 L 840 760 L 840 740 L 840 720 L 840 700 L 860 700 L 860 680 z M 820 760 L 800 760 L 800 780 L 820 780 L 820 760 z M 800 780 L 780 780 L 760 780 L 760 800 L 780 800 L 800 800 L 800 780 z M 760 800 L 740 800 L 720 800 L 720 820 L 740 820 L 760 820 L 760 800 z M 720 820 L 700 820 L 680 820 L 680 840 L 700 840 L 720 840 L 720 820 z M 680 840 L 660 840 L 640 840 L 640 860 L 660 860 L 680 860 L 680 840 z M 640 860 L 620 860 L 600 860 L 600 880 L 620 880 L 640 880 L 640 860 z M 600 880 L 580 880 L 560 880 L 560 900 L 580 900 L 600 900 L 600 880 z M 560 900 L 540 900 L 520 900 L 520 920 L 540 920 L 560 920 L 560 900 z M 520 920 L 500 920 L 480 920 L 480 940 L 500 940 L 520 940 L 520 920 z M 480 940 L 460 940 L 440 940 L 420 940 L 420 960 L 440 960 L 460 960 L 480 960 L 480 940 z M 420 940 L 420 920 L 400 920 L 380 920 L 380 940 L 400 940 L 420 940 z M 380 920 L 380 900 L 360 900 L 340 900 L 340 920 L 360 920 L 380 920 z M 340 900 L 340 880 L 320 880 L 300 880 L 300 900 L 320 900 L 340 900 z M 300 880 L 300 860 L 280 860 L 260 860 L 260 880 L 280 880 L 300 880 z M 260 860 L 260 840 L 240 840 L 220 840 L 220 860 L 240 860 L 260 860 z M 220 840 L 220 820 L 200 820 L 180 820 L 180 840 L 200 840 L 220 840 z M 180 820 L 180 800 L 160 800 L 140 800 L 140 820 L 160 820 L 180 820 z M 140 800 L 140 780 L 120 780 L 100 780 L 100 800 L 120 800 L 140 800 z M 100 780 L 100 760 L 80 760 L 60 760 L 60 780 L 80 780 L 100 780 z M 60 760 L 60 740 L 40 740 L 40 760 L 60 760 z M 40 740 L 40 720 L 20 720 L 20 740 L 40 740 z M 920 420 L 900 420 L 900 440 L 920 440 L 920 420 z M 900 440 L 880 440 L 880 460 L 900 460 L 900 440 z M 600 220 L 600 240 L 600 260 L 600 280 L 600 300 L 600 320 L 600 340 L 600 360 L 600 380 L 600 400 L 600 420 L 600 440 L 600 460 L 600 480 L 600 500 L 600 520 L 600 540 L 600 560 L 620 560 L 620 540 L 620 520 L 620 500 L 620 480 L 620 460 L 620 440 L 620 420 L 620 400 L 620 380 L 620 360 L 620 340 L 620 320 L 620 300 L 620 280 L 620 260 L 620 240 L 620 220 L 600 220 z M 820 220 L 820 240 L 840 240 L 840 220 L 820 220 z M 540 240 L 540 260 L 540 280 L 540 300 L 540 320 L 540 340 L 540 360 L 540 380 L 540 400 L 540 420 L 540 440 L 540 460 L 540 480 L 540 500 L 540 520 L 540 540 L 540 560 L 540 580 L 540 600 L 560 600 L 560 580 L 560 560 L 560 540 L 560 520 L 560 500 L 560 480 L 560 460 L 560 440 L 560 420 L 560 400 L 560 380 L 560 360 L 560 340 L 560 320 L 560 300 L 560 280 L 560 260 L 560 240 L 540 240 z M 860 260 L 860 280 L 880 280 L 880 260 L 860 260 z M 860 300 L 860 320 L 880 320 L 880 300 L 860 300 z M 700 360 L 700 380 L 720 380 L 720 360 L 700 360 z "
     id="rect3426" />
</svg>
