<?xml version="1.0" encoding="UTF-8" standalone="no"?>
<svg
   xmlns:dc="http://purl.org/dc/elements/1.1/"
   xmlns:cc="http://creativecommons.org/ns#"
   xmlns:rdf="http://www.w3.org/1999/02/22-rdf-syntax-ns#"
   xmlns:svg="http://www.w3.org/2000/svg"
   xmlns="http://www.w3.org/2000/svg"
   xmlns:sodipodi="http://sodipodi.sourceforge.net/DTD/sodipodi-0.dtd"
   xmlns:inkscape="http://www.inkscape.org/namespaces/inkscape"
   id="svg1200"
   width="640px"
   version="1.1"
   height="640px"
   sodipodi:docname="chicago95_tmp_file.svg"
   inkscape:version="0.92.5 (2060ec1f9f, 2020-04-08)">
  <sodipodi:namedview
     pagecolor="#ffffff"
     bordercolor="#666666"
     borderopacity="1"
     objecttolerance="10"
     gridtolerance="10"
     guidetolerance="10"
     inkscape:pageopacity="0"
     inkscape:pageshadow="2"
     inkscape:window-width="640"
     inkscape:window-height="485"
     id="namedview603"
     showgrid="false"
     inkscape:zoom="0.36875"
     inkscape:cx="320"
     inkscape:cy="320"
     inkscape:window-x="0"
     inkscape:window-y="0"
     inkscape:window-maximized="0"
     inkscape:current-layer="svg1200" />
  <metadata
     id="metadata1204">
    <rdf:RDF>
      <cc:Work
         rdf:about="">
        <dc:format>image/svg+xml</dc:format>
        <dc:type
           rdf:resource="http://purl.org/dc/dcmitype/StillImage" />
      </cc:Work>
    </rdf:RDF>
  </metadata>
  <defs
     id="defs2" />
  <path
     style="fill:#ff0000"
     d="M 520 260 L 520 280 L 520 281 L 520 301 L 541 301 L 541 281 L 541 280 L 541 260 L 520 260 z "
     id="rect562" />
  <path
     style="fill:#800000"
     d="M 540 260 L 540 280 L 540 281 L 540 301 L 560 301 L 561 301 L 581 301 L 581 281 L 581 280 L 581 260 L 561 260 L 560 260 L 540 260 z "
     id="rect566" />
  <path
     style="fill:#ffff00"
     d="M 240 100 L 240 121 L 261 121 L 261 100 L 240 100 z M 180 120 L 180 141 L 201 141 L 201 120 L 180 120 z M 280 120 L 280 141 L 301 141 L 301 120 L 280 120 z M 140 140 L 140 160 L 120 160 L 120 181 L 141 181 L 141 161 L 161 161 L 161 140 L 140 140 z M 220 140 L 220 161 L 241 161 L 241 140 L 220 140 z M 280 160 L 280 181 L 301 181 L 301 160 L 280 160 z M 200 180 L 200 201 L 221 201 L 221 180 L 200 180 z M 100 200 L 100 221 L 121 221 L 121 200 L 100 200 z M 240 200 L 240 221 L 261 221 L 261 200 L 240 200 z M 260 240 L 260 261 L 281 261 L 281 240 L 260 240 z M 300 240 L 300 261 L 321 261 L 321 240 L 300 240 z M 100 260 L 100 281 L 121 281 L 121 260 L 100 260 z M 160 260 L 160 281 L 181 281 L 181 260 L 160 260 z M 240 280 L 240 301 L 261 301 L 261 280 L 240 280 z M 280 280 L 280 301 L 301 301 L 301 280 L 280 280 z M 160 300 L 160 321 L 181 321 L 181 300 L 160 300 z M 120 320 L 120 341 L 141 341 L 141 320 L 120 320 z M 200 320 L 200 341 L 220 341 L 220 361 L 241 361 L 241 340 L 221 340 L 221 320 L 200 320 z M 260 320 L 260 341 L 281 341 L 281 320 L 260 320 z M 160 340 L 160 361 L 181 361 L 181 340 L 160 340 z "
     id="rect702" />
  <path
     style="fill:#000080"
     d="M 380 320 L 380 341 L 400 341 L 401 341 L 420 341 L 421 341 L 440 341 L 441 341 L 460 341 L 461 341 L 480 341 L 481 341 L 500 341 L 501 341 L 521 341 L 521 320 L 501 320 L 500 320 L 481 320 L 480 320 L 461 320 L 460 320 L 441 320 L 440 320 L 421 320 L 420 320 L 401 320 L 400 320 L 380 320 z M 360 360 L 360 381 L 380 381 L 381 381 L 400 381 L 401 381 L 420 381 L 421 381 L 440 381 L 441 381 L 460 381 L 461 381 L 480 381 L 481 381 L 501 381 L 501 360 L 481 360 L 480 360 L 461 360 L 460 360 L 441 360 L 440 360 L 421 360 L 420 360 L 401 360 L 400 360 L 381 360 L 380 360 L 360 360 z "
     id="rect786" />
  <path
     style="fill:#808000"
     d="M 360 200 L 360 221 L 381 221 L 381 200 L 360 200 z M 360 280 L 360 301 L 381 301 L 381 280 L 360 280 z M 340 320 L 340 340 L 320 340 L 320 360 L 300 360 L 300 381 L 321 381 L 321 361 L 341 361 L 341 341 L 361 341 L 361 320 L 340 320 z M 180 380 L 180 401 L 201 401 L 201 380 L 180 380 z M 260 380 L 260 401 L 281 401 L 281 380 L 260 380 z "
     id="rect824" />
  <path
     style="fill:#ffffff"
     d="M 240 40 L 240 60 L 220 60 L 220 81 L 240 81 L 241 81 L 260 81 L 261 81 L 280 81 L 280 100 L 260 100 L 260 120 L 241 120 L 241 100 L 221 100 L 220 100 L 201 100 L 200 100 L 180 100 L 180 120 L 160 120 L 160 140 L 160 141 L 160 160 L 160 161 L 160 180 L 141 180 L 140 180 L 121 180 L 120 180 L 100 180 L 100 200 L 80 200 L 80 220 L 80 221 L 80 240 L 80 241 L 80 260 L 80 261 L 80 280 L 80 281 L 80 301 L 100 301 L 100 320 L 100 321 L 100 341 L 120 341 L 120 361 L 140 361 L 141 361 L 161 361 L 161 341 L 180 341 L 180 361 L 200 361 L 201 361 L 221 361 L 221 341 L 240 341 L 241 341 L 261 341 L 261 321 L 280 321 L 281 321 L 301 321 L 301 301 L 321 301 L 321 281 L 321 280 L 321 261 L 341 261 L 341 241 L 341 240 L 341 221 L 341 220 L 341 201 L 341 200 L 341 181 L 341 180 L 341 161 L 341 160 L 341 141 L 360 141 L 360 161 L 380 161 L 380 180 L 380 181 L 380 201 L 400 201 L 400 221 L 420 221 L 421 221 L 440 221 L 441 221 L 460 221 L 461 221 L 480 221 L 481 221 L 500 221 L 501 221 L 520 221 L 521 221 L 540 221 L 541 221 L 561 221 L 561 200 L 541 200 L 540 200 L 521 200 L 521 180 L 501 180 L 500 180 L 481 180 L 481 160 L 461 160 L 460 160 L 441 160 L 441 140 L 421 140 L 420 140 L 401 140 L 401 120 L 381 120 L 380 120 L 361 120 L 361 100 L 341 100 L 340 100 L 321 100 L 321 80 L 301 80 L 300 80 L 281 80 L 281 60 L 261 60 L 261 40 L 240 40 z M 281 101 L 300 101 L 301 101 L 320 101 L 320 120 L 300 120 L 300 140 L 281 140 L 281 121 L 281 120 L 281 101 z M 181 121 L 200 121 L 200 140 L 181 140 L 181 121 z M 321 121 L 340 121 L 340 140 L 321 140 L 321 121 z M 221 141 L 240 141 L 240 160 L 221 160 L 221 141 z M 281 161 L 300 161 L 300 180 L 281 180 L 281 161 z M 161 181 L 180 181 L 180 201 L 200 201 L 200 221 L 220 221 L 220 241 L 240 241 L 241 241 L 261 241 L 261 221 L 280 221 L 281 221 L 300 221 L 300 240 L 280 240 L 280 260 L 260 260 L 260 280 L 260 281 L 260 300 L 241 300 L 241 280 L 221 280 L 221 260 L 201 260 L 201 240 L 181 240 L 181 220 L 161 220 L 161 201 L 161 200 L 161 181 z M 201 181 L 220 181 L 220 200 L 201 200 L 201 181 z M 101 201 L 120 201 L 120 220 L 101 220 L 101 201 z M 241 201 L 260 201 L 260 220 L 241 220 L 241 201 z M 301 201 L 320 201 L 320 220 L 301 220 L 301 201 z M 440 240 L 440 260 L 440 261 L 440 280 L 440 281 L 440 300 L 440 301 L 440 321 L 460 321 L 461 321 L 480 321 L 481 321 L 500 321 L 501 321 L 520 321 L 520 340 L 501 340 L 500 340 L 481 340 L 480 340 L 461 340 L 460 340 L 441 340 L 440 340 L 420 340 L 420 361 L 440 361 L 441 361 L 460 361 L 461 361 L 480 361 L 481 361 L 500 361 L 500 380 L 481 380 L 480 380 L 461 380 L 460 380 L 441 380 L 440 380 L 421 380 L 420 380 L 400 380 L 400 400 L 381 400 L 380 400 L 360 400 L 360 421 L 380 421 L 381 421 L 400 421 L 401 421 L 420 421 L 421 421 L 440 421 L 441 421 L 460 421 L 461 421 L 480 421 L 481 421 L 500 421 L 501 421 L 520 421 L 521 421 L 540 421 L 541 421 L 560 421 L 561 421 L 581 421 L 581 401 L 581 400 L 581 381 L 581 380 L 581 361 L 581 360 L 581 341 L 581 340 L 581 321 L 581 320 L 581 300 L 561 300 L 560 300 L 541 300 L 540 300 L 521 300 L 521 281 L 521 280 L 521 261 L 540 261 L 541 261 L 560 261 L 561 261 L 581 261 L 581 240 L 561 240 L 560 240 L 541 240 L 540 240 L 521 240 L 520 240 L 501 240 L 500 240 L 481 240 L 480 240 L 461 240 L 460 240 L 440 240 z M 301 241 L 320 241 L 320 260 L 301 260 L 301 241 z M 101 261 L 120 261 L 120 280 L 101 280 L 101 261 z M 161 261 L 180 261 L 180 280 L 161 280 L 161 261 z M 281 281 L 300 281 L 300 300 L 281 300 L 281 281 z M 161 301 L 180 301 L 180 320 L 161 320 L 161 301 z M 121 321 L 140 321 L 140 340 L 121 340 L 121 321 z M 201 321 L 220 321 L 220 340 L 201 340 L 201 321 z M 80 360 L 80 380 L 60 380 L 60 401 L 80 401 L 81 401 L 100 401 L 100 421 L 121 421 L 121 400 L 101 400 L 101 381 L 101 380 L 101 360 L 80 360 z M 220 460 L 220 481 L 240 481 L 241 481 L 260 481 L 260 501 L 280 501 L 281 501 L 300 501 L 300 521 L 320 521 L 321 521 L 340 521 L 340 541 L 360 541 L 361 541 L 380 541 L 380 561 L 400 561 L 401 561 L 421 561 L 421 541 L 421 540 L 421 521 L 441 521 L 441 501 L 441 500 L 441 480 L 421 480 L 420 480 L 401 480 L 400 480 L 381 480 L 380 480 L 361 480 L 360 480 L 341 480 L 340 480 L 321 480 L 320 480 L 301 480 L 300 480 L 281 480 L 280 480 L 261 480 L 261 460 L 241 460 L 240 460 L 220 460 z "
     id="rect1168" />
  <path
     style="fill:#c0c0c0"
     d="M 280 60 L 280 81 L 301 81 L 301 60 L 280 60 z M 320 80 L 320 101 L 341 101 L 341 80 L 320 80 z M 160 100 L 160 120 L 140 120 L 140 140 L 120 140 L 120 160 L 100 160 L 100 181 L 121 181 L 121 161 L 141 161 L 141 141 L 161 141 L 161 121 L 181 121 L 181 100 L 160 100 z M 360 100 L 360 121 L 381 121 L 381 100 L 360 100 z M 400 120 L 400 141 L 421 141 L 421 120 L 400 120 z M 440 140 L 440 161 L 461 161 L 461 140 L 440 140 z M 340 160 L 340 180 L 340 181 L 340 200 L 340 201 L 340 220 L 340 221 L 340 240 L 340 241 L 340 260 L 320 260 L 320 280 L 320 281 L 320 300 L 300 300 L 300 320 L 280 320 L 280 340 L 261 340 L 260 340 L 240 340 L 240 360 L 221 360 L 220 360 L 201 360 L 200 360 L 181 360 L 180 360 L 161 360 L 160 360 L 140 360 L 140 380 L 121 380 L 121 360 L 101 360 L 101 340 L 80 340 L 80 360 L 60 360 L 60 381 L 81 381 L 81 361 L 100 361 L 100 380 L 100 381 L 100 400 L 80 400 L 80 421 L 101 421 L 101 401 L 120 401 L 120 420 L 120 421 L 120 441 L 140 441 L 141 441 L 160 441 L 160 461 L 180 461 L 181 461 L 200 461 L 200 481 L 221 481 L 221 461 L 241 461 L 241 441 L 241 440 L 241 420 L 221 420 L 220 420 L 201 420 L 200 420 L 181 420 L 181 400 L 161 400 L 160 400 L 141 400 L 141 381 L 160 381 L 161 381 L 180 381 L 181 381 L 200 381 L 200 401 L 220 401 L 221 401 L 240 401 L 241 401 L 261 401 L 261 381 L 280 381 L 281 381 L 301 381 L 301 361 L 321 361 L 321 341 L 341 341 L 341 321 L 361 321 L 361 301 L 361 300 L 361 281 L 381 281 L 381 261 L 381 260 L 381 241 L 381 240 L 381 220 L 361 220 L 361 201 L 361 200 L 361 181 L 361 180 L 361 160 L 340 160 z M 480 160 L 480 181 L 501 181 L 501 160 L 480 160 z M 520 180 L 520 201 L 541 201 L 541 180 L 520 180 z M 160 200 L 160 221 L 180 221 L 180 241 L 200 241 L 200 261 L 220 261 L 220 281 L 240 281 L 241 281 L 261 281 L 261 260 L 241 260 L 240 260 L 221 260 L 221 240 L 201 240 L 201 220 L 181 220 L 181 200 L 160 200 z M 400 240 L 400 260 L 400 261 L 400 280 L 400 281 L 400 300 L 380 300 L 380 321 L 400 321 L 401 321 L 420 321 L 421 321 L 441 321 L 441 301 L 441 300 L 441 281 L 441 280 L 441 261 L 441 260 L 441 240 L 421 240 L 420 240 L 400 240 z M 580 240 L 580 260 L 580 261 L 580 280 L 580 281 L 580 300 L 580 301 L 580 320 L 580 321 L 580 340 L 580 341 L 580 360 L 580 361 L 580 380 L 580 381 L 580 400 L 580 401 L 580 420 L 561 420 L 560 420 L 541 420 L 540 420 L 521 420 L 520 420 L 501 420 L 500 420 L 481 420 L 480 420 L 461 420 L 460 420 L 441 420 L 440 420 L 421 420 L 420 420 L 401 420 L 400 420 L 381 420 L 380 420 L 361 420 L 361 401 L 380 401 L 381 401 L 401 401 L 401 380 L 381 380 L 380 380 L 361 380 L 361 361 L 380 361 L 381 361 L 400 361 L 401 361 L 421 361 L 421 340 L 401 340 L 400 340 L 381 340 L 380 340 L 360 340 L 360 360 L 340 360 L 340 380 L 320 380 L 320 400 L 301 400 L 300 400 L 280 400 L 280 420 L 260 420 L 260 441 L 280 441 L 281 441 L 300 441 L 301 441 L 320 441 L 321 441 L 340 441 L 341 441 L 360 441 L 361 441 L 380 441 L 381 441 L 400 441 L 401 441 L 420 441 L 421 441 L 440 441 L 441 441 L 460 441 L 461 441 L 480 441 L 481 441 L 500 441 L 501 441 L 520 441 L 521 441 L 540 441 L 541 441 L 560 441 L 561 441 L 580 441 L 581 441 L 601 441 L 601 421 L 601 420 L 601 401 L 601 400 L 601 381 L 601 380 L 601 361 L 601 360 L 601 341 L 601 340 L 601 321 L 601 320 L 601 301 L 601 300 L 601 281 L 601 280 L 601 261 L 601 260 L 601 240 L 580 240 z M 80 300 L 80 321 L 101 321 L 101 300 L 80 300 z M 260 460 L 260 480 L 240 480 L 240 501 L 261 501 L 261 481 L 280 481 L 281 481 L 300 481 L 301 481 L 320 481 L 321 481 L 340 481 L 341 481 L 360 481 L 361 481 L 380 481 L 381 481 L 400 481 L 401 481 L 420 481 L 421 481 L 440 481 L 440 501 L 461 501 L 461 481 L 461 480 L 461 460 L 441 460 L 440 460 L 421 460 L 420 460 L 401 460 L 400 460 L 381 460 L 380 460 L 361 460 L 360 460 L 341 460 L 340 460 L 321 460 L 320 460 L 301 460 L 300 460 L 281 460 L 280 460 L 260 460 z M 280 500 L 280 521 L 301 521 L 301 500 L 280 500 z M 320 520 L 320 541 L 341 541 L 341 520 L 320 520 z M 420 520 L 420 541 L 441 541 L 441 520 L 420 520 z M 360 540 L 360 561 L 381 561 L 381 540 L 360 540 z M 400 560 L 400 581 L 421 581 L 421 560 L 400 560 z "
     id="rect1182" />
  <path
     style="fill:#000000"
     d="M 220 0 L 220 20 L 200 20 L 200 40 L 200 41 L 200 60 L 180 60 L 180 81 L 200 81 L 201 81 L 221 81 L 221 61 L 221 60 L 221 41 L 240 41 L 241 41 L 260 41 L 260 61 L 280 61 L 281 61 L 300 61 L 300 81 L 320 81 L 321 81 L 340 81 L 340 101 L 360 101 L 361 101 L 380 101 L 380 121 L 400 121 L 401 121 L 420 121 L 420 141 L 440 141 L 441 141 L 460 141 L 460 161 L 480 161 L 481 161 L 500 161 L 500 181 L 520 181 L 521 181 L 540 181 L 540 201 L 560 201 L 561 201 L 580 201 L 580 221 L 600 221 L 600 240 L 600 241 L 600 260 L 600 261 L 600 280 L 600 281 L 600 300 L 600 301 L 600 320 L 600 321 L 600 340 L 600 341 L 600 360 L 600 361 L 600 380 L 600 381 L 600 400 L 600 401 L 600 420 L 600 421 L 600 440 L 581 440 L 580 440 L 561 440 L 560 440 L 541 440 L 540 440 L 521 440 L 520 440 L 501 440 L 500 440 L 481 440 L 480 440 L 461 440 L 460 440 L 441 440 L 440 440 L 421 440 L 420 440 L 401 440 L 400 440 L 381 440 L 380 440 L 361 440 L 360 440 L 341 440 L 340 440 L 321 440 L 320 440 L 301 440 L 300 440 L 281 440 L 280 440 L 261 440 L 260 440 L 240 440 L 240 461 L 260 461 L 261 461 L 280 461 L 281 461 L 300 461 L 301 461 L 320 461 L 321 461 L 340 461 L 341 461 L 360 461 L 361 461 L 380 461 L 381 461 L 400 461 L 401 461 L 420 461 L 421 461 L 440 461 L 441 461 L 460 461 L 460 480 L 460 481 L 460 500 L 440 500 L 440 520 L 440 521 L 440 540 L 420 540 L 420 560 L 420 561 L 420 580 L 401 580 L 401 560 L 381 560 L 380 560 L 361 560 L 361 540 L 341 540 L 340 540 L 321 540 L 321 520 L 301 520 L 300 520 L 281 520 L 281 500 L 261 500 L 260 500 L 241 500 L 241 480 L 221 480 L 220 480 L 201 480 L 201 460 L 181 460 L 180 460 L 161 460 L 161 440 L 141 440 L 140 440 L 121 440 L 121 420 L 101 420 L 100 420 L 81 420 L 81 400 L 61 400 L 61 381 L 61 380 L 61 361 L 81 361 L 81 341 L 81 340 L 81 321 L 81 320 L 81 300 L 60 300 L 60 320 L 60 321 L 60 340 L 40 340 L 40 360 L 40 361 L 40 380 L 20 380 L 20 400 L 20 401 L 20 421 L 40 421 L 41 421 L 60 421 L 60 441 L 80 441 L 81 441 L 100 441 L 100 461 L 120 461 L 121 461 L 140 461 L 140 481 L 160 481 L 161 481 L 180 481 L 180 501 L 200 501 L 201 501 L 220 501 L 220 521 L 240 521 L 241 521 L 260 521 L 260 541 L 280 541 L 281 541 L 300 541 L 300 561 L 320 561 L 321 561 L 340 561 L 340 581 L 360 581 L 361 581 L 380 581 L 380 601 L 400 601 L 400 621 L 421 621 L 421 601 L 441 601 L 441 581 L 441 580 L 441 561 L 461 561 L 461 541 L 461 540 L 461 521 L 481 521 L 481 501 L 481 500 L 481 481 L 501 481 L 501 461 L 520 461 L 521 461 L 540 461 L 541 461 L 560 461 L 561 461 L 580 461 L 581 461 L 600 461 L 601 461 L 621 461 L 621 441 L 621 440 L 621 421 L 621 420 L 621 401 L 621 400 L 621 381 L 621 380 L 621 361 L 621 360 L 621 341 L 621 340 L 621 321 L 621 320 L 621 301 L 621 300 L 621 281 L 621 280 L 621 261 L 621 260 L 621 241 L 621 240 L 621 220 L 601 220 L 601 201 L 601 200 L 601 180 L 581 180 L 580 180 L 561 180 L 561 160 L 541 160 L 540 160 L 521 160 L 521 140 L 501 140 L 500 140 L 481 140 L 481 120 L 461 120 L 460 120 L 441 120 L 441 100 L 421 100 L 420 100 L 401 100 L 401 80 L 381 80 L 380 80 L 361 80 L 361 60 L 341 60 L 340 60 L 321 60 L 321 40 L 301 40 L 300 40 L 281 40 L 281 20 L 261 20 L 260 20 L 241 20 L 241 0 L 220 0 z M 160 180 L 160 201 L 180 201 L 180 221 L 200 221 L 200 241 L 220 241 L 220 261 L 240 261 L 241 261 L 261 261 L 261 241 L 280 241 L 281 241 L 301 241 L 301 221 L 321 221 L 321 200 L 300 200 L 300 220 L 281 220 L 280 220 L 260 220 L 260 240 L 241 240 L 240 240 L 221 240 L 221 220 L 201 220 L 201 200 L 181 200 L 181 180 L 160 180 z M 360 180 L 360 201 L 380 201 L 380 220 L 380 221 L 380 240 L 380 241 L 380 260 L 380 261 L 380 280 L 380 281 L 380 300 L 360 300 L 360 320 L 360 321 L 360 340 L 340 340 L 340 360 L 320 360 L 320 380 L 301 380 L 300 380 L 280 380 L 280 400 L 261 400 L 260 400 L 241 400 L 240 400 L 221 400 L 220 400 L 201 400 L 200 400 L 181 400 L 181 380 L 161 380 L 160 380 L 141 380 L 141 360 L 120 360 L 120 381 L 140 381 L 140 401 L 160 401 L 161 401 L 180 401 L 180 421 L 200 421 L 201 421 L 220 421 L 221 421 L 240 421 L 241 421 L 260 421 L 261 421 L 281 421 L 281 401 L 300 401 L 301 401 L 321 401 L 321 381 L 341 381 L 341 361 L 361 361 L 361 341 L 381 341 L 381 321 L 381 320 L 381 301 L 401 301 L 401 281 L 401 280 L 401 261 L 401 260 L 401 241 L 401 240 L 401 221 L 401 220 L 401 200 L 381 200 L 381 180 L 360 180 z "
     id="rect1196" />
  <path
     style="fill:#808080"
     d="M 240 0 L 240 21 L 261 21 L 261 0 L 240 0 z M 280 20 L 280 41 L 301 41 L 301 20 L 280 20 z M 220 40 L 220 61 L 241 61 L 241 40 L 220 40 z M 320 40 L 320 61 L 341 61 L 341 40 L 320 40 z M 360 60 L 360 81 L 381 81 L 381 60 L 360 60 z M 160 80 L 160 100 L 140 100 L 140 120 L 120 120 L 120 140 L 100 140 L 100 160 L 80 160 L 80 180 L 80 181 L 80 200 L 60 200 L 60 220 L 60 221 L 60 240 L 60 241 L 60 260 L 60 261 L 60 280 L 60 281 L 60 301 L 81 301 L 81 281 L 81 280 L 81 261 L 81 260 L 81 241 L 81 240 L 81 221 L 81 220 L 81 201 L 101 201 L 101 181 L 101 180 L 101 161 L 121 161 L 121 141 L 141 141 L 141 121 L 161 121 L 161 101 L 180 101 L 181 101 L 200 101 L 201 101 L 220 101 L 221 101 L 240 101 L 241 101 L 260 101 L 261 101 L 280 101 L 280 121 L 300 121 L 301 121 L 320 121 L 320 141 L 340 141 L 340 161 L 360 161 L 360 181 L 381 181 L 381 160 L 361 160 L 361 140 L 341 140 L 341 120 L 321 120 L 321 100 L 301 100 L 300 100 L 281 100 L 281 80 L 261 80 L 260 80 L 241 80 L 240 80 L 221 80 L 220 80 L 201 80 L 200 80 L 181 80 L 180 80 L 160 80 z M 400 80 L 400 101 L 421 101 L 421 80 L 400 80 z M 440 100 L 440 121 L 461 121 L 461 100 L 440 100 z M 480 120 L 480 141 L 501 141 L 501 120 L 480 120 z M 520 140 L 520 161 L 541 161 L 541 140 L 520 140 z M 140 160 L 140 181 L 161 181 L 161 160 L 140 160 z M 560 160 L 560 181 L 581 181 L 581 160 L 560 160 z M 560 200 L 560 220 L 541 220 L 540 220 L 521 220 L 520 220 L 501 220 L 500 220 L 481 220 L 480 220 L 461 220 L 460 220 L 441 220 L 440 220 L 421 220 L 420 220 L 400 220 L 400 241 L 420 241 L 421 241 L 440 241 L 441 241 L 460 241 L 461 241 L 480 241 L 481 241 L 500 241 L 501 241 L 520 241 L 521 241 L 540 241 L 541 241 L 560 241 L 561 241 L 580 241 L 581 241 L 601 241 L 601 220 L 581 220 L 581 200 L 560 200 z M 80 320 L 80 341 L 100 341 L 100 361 L 121 361 L 121 340 L 101 340 L 101 320 L 80 320 z M 40 420 L 40 441 L 61 441 L 61 420 L 40 420 z M 240 420 L 240 441 L 261 441 L 261 420 L 240 420 z M 80 440 L 80 461 L 101 461 L 101 440 L 80 440 z M 120 460 L 120 481 L 141 481 L 141 460 L 120 460 z M 160 480 L 160 501 L 181 501 L 181 480 L 160 480 z M 480 480 L 480 501 L 501 501 L 501 480 L 480 480 z M 200 500 L 200 521 L 221 521 L 221 500 L 200 500 z M 240 520 L 240 541 L 261 541 L 261 520 L 240 520 z M 460 520 L 460 541 L 481 541 L 481 520 L 460 520 z M 280 540 L 280 561 L 301 561 L 301 540 L 280 540 z M 320 560 L 320 581 L 341 581 L 341 560 L 320 560 z M 440 560 L 440 581 L 461 581 L 461 560 L 440 560 z M 360 580 L 360 601 L 381 601 L 381 580 L 360 580 z M 420 600 L 420 621 L 441 621 L 441 600 L 420 600 z "
     id="rect1198" />
</svg>
