<?xml version="1.0" encoding="UTF-8" standalone="no"?>
<svg
   xmlns:dc="http://purl.org/dc/elements/1.1/"
   xmlns:cc="http://creativecommons.org/ns#"
   xmlns:rdf="http://www.w3.org/1999/02/22-rdf-syntax-ns#"
   xmlns:svg="http://www.w3.org/2000/svg"
   xmlns="http://www.w3.org/2000/svg"
   height="960px"
   version="1.1"
   width="960px"
   id="svg3852">
  <metadata
     id="metadata3856">
    <rdf:RDF>
      <cc:Work
         rdf:about="">
        <dc:format>image/svg+xml</dc:format>
        <dc:type
           rdf:resource="http://purl.org/dc/dcmitype/StillImage" />
      </cc:Work>
    </rdf:RDF>
  </metadata>
  <defs
     id="defs2" />
  <path
     id="rect3476"
     d="M 440 80 L 440 100 L 440 120 L 460 120 L 480 120 L 480 100 L 480 80 L 460 80 L 440 80 z M 780 120 L 780 140 L 800 140 L 800 120 L 780 120 z M 780 140 L 760 140 L 740 140 L 740 160 L 740 180 L 760 180 L 780 180 L 780 160 L 780 140 z M 140 140 L 140 160 L 140 180 L 160 180 L 180 180 L 180 160 L 180 140 L 160 140 L 140 140 z M 440 180 L 440 200 L 460 200 L 480 200 L 480 180 L 460 180 L 440 180 z M 320 200 L 320 220 L 320 240 L 340 240 L 360 240 L 360 220 L 360 200 L 340 200 L 320 200 z M 320 240 L 300 240 L 280 240 L 260 240 L 260 260 L 280 260 L 300 260 L 300 280 L 300 300 L 320 300 L 320 280 L 320 260 L 320 240 z M 380 200 L 380 220 L 380 240 L 400 240 L 420 240 L 420 220 L 420 200 L 400 200 L 380 200 z M 500 200 L 500 220 L 500 240 L 520 240 L 540 240 L 540 220 L 540 200 L 520 200 L 500 200 z M 560 240 L 560 260 L 580 260 L 600 260 L 620 260 L 620 240 L 600 240 L 580 240 L 560 240 z M 440 260 L 440 280 L 440 300 L 440 320 L 460 320 L 480 320 L 480 300 L 480 280 L 480 260 L 460 260 L 440 260 z M 660 300 L 660 320 L 660 340 L 660 360 L 680 360 L 680 340 L 680 320 L 680 300 L 660 300 z M 180 380 L 180 400 L 180 420 L 200 420 L 200 400 L 200 380 L 180 380 z M 380 380 L 380 400 L 380 420 L 400 420 L 420 420 L 420 400 L 420 380 L 400 380 L 380 380 z M 680 380 L 680 400 L 680 420 L 700 420 L 720 420 L 720 400 L 720 380 L 700 380 L 680 380 z M 440 420 L 440 440 L 460 440 L 480 440 L 480 420 L 460 420 L 440 420 z M 480 440 L 480 460 L 480 480 L 500 480 L 500 460 L 500 440 L 480 440 z M 480 480 L 460 480 L 440 480 L 440 500 L 460 500 L 480 500 L 480 480 z M 440 500 L 420 500 L 420 520 L 420 540 L 440 540 L 440 520 L 440 500 z M 420 500 L 420 480 L 400 480 L 380 480 L 380 500 L 400 500 L 420 500 z M 420 480 L 440 480 L 440 460 L 440 440 L 420 440 L 420 460 L 420 480 z M 60 440 L 60 460 L 60 480 L 80 480 L 80 460 L 80 440 L 60 440 z M 140 440 L 140 460 L 140 480 L 160 480 L 180 480 L 200 480 L 200 460 L 200 440 L 180 440 L 160 440 L 140 440 z M 240 440 L 240 460 L 240 480 L 260 480 L 280 480 L 300 480 L 300 460 L 300 440 L 280 440 L 260 440 L 240 440 z M 600 440 L 600 460 L 600 480 L 620 480 L 640 480 L 660 480 L 660 460 L 660 440 L 640 440 L 620 440 L 600 440 z M 720 440 L 720 460 L 720 480 L 740 480 L 760 480 L 780 480 L 780 460 L 780 440 L 760 440 L 740 440 L 720 440 z M 800 440 L 800 460 L 800 480 L 820 480 L 840 480 L 860 480 L 860 460 L 860 440 L 840 440 L 820 440 L 800 440 z M 720 500 L 720 520 L 720 540 L 720 560 L 740 560 L 740 540 L 740 520 L 740 500 L 720 500 z M 720 560 L 700 560 L 680 560 L 680 580 L 680 600 L 700 600 L 720 600 L 720 580 L 720 560 z M 680 600 L 660 600 L 660 620 L 680 620 L 680 600 z M 140 560 L 140 580 L 140 600 L 160 600 L 180 600 L 180 580 L 180 560 L 160 560 L 140 560 z M 180 600 L 180 620 L 180 640 L 180 660 L 200 660 L 200 640 L 200 620 L 200 600 L 180 600 z M 560 560 L 560 580 L 560 600 L 580 600 L 600 600 L 600 580 L 600 560 L 580 560 L 560 560 z M 620 660 L 620 680 L 640 680 L 660 680 L 660 660 L 640 660 L 620 660 z M 240 680 L 240 700 L 240 720 L 260 720 L 260 700 L 260 680 L 240 680 z M 420 680 L 420 700 L 420 720 L 440 720 L 440 700 L 440 680 L 420 680 z M 540 720 L 540 740 L 560 740 L 560 720 L 540 720 z M 720 720 L 720 740 L 740 740 L 740 720 L 720 720 z M 740 740 L 740 760 L 740 780 L 760 780 L 780 780 L 780 760 L 780 740 L 760 740 L 740 740 z M 780 780 L 780 800 L 800 800 L 800 780 L 780 780 z M 140 740 L 140 760 L 140 780 L 160 780 L 180 780 L 180 760 L 180 740 L 160 740 L 140 740 z M 320 740 L 320 760 L 320 780 L 340 780 L 360 780 L 360 760 L 360 740 L 340 740 L 320 740 z M 420 780 L 420 800 L 440 800 L 440 780 L 420 780 z "
     style="fill:#ffff00" />
  <path
     id="rect3606"
     d="M 440 120 L 440 140 L 460 140 L 480 140 L 480 120 L 460 120 L 440 120 z M 240 240 L 240 260 L 240 280 L 240 300 L 260 300 L 280 300 L 300 300 L 300 280 L 300 260 L 280 260 L 260 260 L 260 240 L 240 240 z M 300 300 L 300 320 L 320 320 L 320 300 L 300 300 z M 320 320 L 320 340 L 320 360 L 340 360 L 360 360 L 360 340 L 360 320 L 340 320 L 320 320 z M 240 300 L 220 300 L 200 300 L 200 320 L 220 320 L 240 320 L 240 300 z M 440 320 L 440 340 L 440 360 L 460 360 L 480 360 L 480 340 L 480 320 L 460 320 L 440 320 z M 620 380 L 620 400 L 620 420 L 640 420 L 660 420 L 660 400 L 660 380 L 640 380 L 620 380 z M 420 420 L 420 440 L 440 440 L 440 420 L 420 420 z M 420 440 L 400 440 L 380 440 L 380 460 L 380 480 L 400 480 L 420 480 L 420 460 L 420 440 z M 300 440 L 300 460 L 300 480 L 320 480 L 320 460 L 320 440 L 300 440 z M 420 560 L 420 580 L 420 600 L 420 620 L 420 640 L 420 660 L 440 660 L 440 640 L 440 620 L 440 600 L 440 580 L 440 560 L 420 560 z M 360 660 L 360 680 L 380 680 L 380 660 L 360 660 z M 660 660 L 660 680 L 680 680 L 680 660 L 660 660 z M 600 680 L 600 700 L 600 720 L 620 720 L 620 700 L 620 680 L 600 680 z M 260 720 L 260 740 L 280 740 L 300 740 L 300 720 L 280 720 L 260 720 z M 420 740 L 420 760 L 420 780 L 440 780 L 440 760 L 440 740 L 420 740 z M 480 740 L 480 760 L 480 780 L 500 780 L 500 760 L 500 740 L 480 740 z M 420 800 L 420 820 L 420 840 L 440 840 L 440 820 L 440 800 L 420 800 z "
     style="fill:#ffffff" />
  <path
     id="rect3784"
     d="M 0 0 L 0 20 L 20 20 L 20 0 L 0 0 z M 20 20 L 20 40 L 20 60 L 40 60 L 60 60 L 60 40 L 60 20 L 40 20 L 20 20 z M 60 20 L 80 20 L 80 0 L 60 0 L 60 20 z M 80 20 L 80 40 L 80 60 L 100 60 L 120 60 L 120 40 L 120 20 L 100 20 L 80 20 z M 120 20 L 140 20 L 140 0 L 120 0 L 120 20 z M 140 20 L 140 40 L 140 60 L 160 60 L 180 60 L 180 40 L 180 20 L 160 20 L 140 20 z M 180 20 L 200 20 L 200 0 L 180 0 L 180 20 z M 200 20 L 200 40 L 200 60 L 220 60 L 240 60 L 240 40 L 240 20 L 220 20 L 200 20 z M 240 20 L 260 20 L 260 0 L 240 0 L 240 20 z M 260 20 L 260 40 L 260 60 L 280 60 L 300 60 L 300 40 L 300 20 L 280 20 L 260 20 z M 300 20 L 320 20 L 320 0 L 300 0 L 300 20 z M 320 20 L 320 40 L 320 60 L 340 60 L 360 60 L 360 40 L 360 20 L 340 20 L 320 20 z M 360 20 L 380 20 L 380 0 L 360 0 L 360 20 z M 380 20 L 380 40 L 380 60 L 400 60 L 420 60 L 420 40 L 420 20 L 400 20 L 380 20 z M 420 20 L 440 20 L 440 0 L 420 0 L 420 20 z M 380 60 L 360 60 L 360 80 L 380 80 L 380 60 z M 380 80 L 380 100 L 380 120 L 400 120 L 420 120 L 420 100 L 420 80 L 400 80 L 380 80 z M 360 80 L 340 80 L 320 80 L 320 100 L 320 120 L 340 120 L 360 120 L 360 100 L 360 80 z M 320 120 L 300 120 L 300 140 L 320 140 L 320 120 z M 300 120 L 300 100 L 300 80 L 280 80 L 260 80 L 260 100 L 260 120 L 280 120 L 300 120 z M 260 80 L 260 60 L 240 60 L 240 80 L 260 80 z M 300 80 L 320 80 L 320 60 L 300 60 L 300 80 z M 200 60 L 180 60 L 180 80 L 200 80 L 200 60 z M 140 60 L 120 60 L 120 80 L 140 80 L 140 60 z M 120 80 L 100 80 L 80 80 L 80 100 L 80 120 L 100 120 L 120 120 L 120 100 L 120 80 z M 80 120 L 60 120 L 60 140 L 80 140 L 80 120 z M 80 140 L 80 160 L 80 180 L 100 180 L 120 180 L 120 160 L 120 140 L 100 140 L 80 140 z M 120 180 L 120 200 L 140 200 L 140 180 L 120 180 z M 140 200 L 140 220 L 140 240 L 160 240 L 180 240 L 180 220 L 180 200 L 160 200 L 140 200 z M 180 240 L 180 260 L 200 260 L 200 240 L 180 240 z M 180 260 L 160 260 L 140 260 L 140 280 L 140 300 L 160 300 L 180 300 L 180 280 L 180 260 z M 140 300 L 120 300 L 120 320 L 140 320 L 140 300 z M 120 320 L 100 320 L 80 320 L 80 340 L 80 360 L 100 360 L 120 360 L 120 340 L 120 320 z M 120 360 L 120 380 L 140 380 L 140 360 L 120 360 z M 120 380 L 100 380 L 80 380 L 80 400 L 80 420 L 100 420 L 120 420 L 120 400 L 120 380 z M 80 380 L 80 360 L 60 360 L 60 380 L 80 380 z M 60 380 L 40 380 L 20 380 L 20 400 L 20 420 L 40 420 L 60 420 L 60 400 L 60 380 z M 20 420 L 0 420 L 0 440 L 20 440 L 20 420 z M 20 380 L 20 360 L 0 360 L 0 380 L 20 380 z M 20 360 L 40 360 L 60 360 L 60 340 L 60 320 L 40 320 L 20 320 L 20 340 L 20 360 z M 20 320 L 20 300 L 0 300 L 0 320 L 20 320 z M 20 300 L 40 300 L 60 300 L 60 280 L 60 260 L 40 260 L 20 260 L 20 280 L 20 300 z M 20 260 L 20 240 L 0 240 L 0 260 L 20 260 z M 20 240 L 40 240 L 60 240 L 60 220 L 60 200 L 40 200 L 20 200 L 20 220 L 20 240 z M 20 200 L 20 180 L 0 180 L 0 200 L 20 200 z M 20 180 L 40 180 L 60 180 L 60 160 L 60 140 L 40 140 L 20 140 L 20 160 L 20 180 z M 20 140 L 20 120 L 0 120 L 0 140 L 20 140 z M 20 120 L 40 120 L 60 120 L 60 100 L 60 80 L 40 80 L 20 80 L 20 100 L 20 120 z M 20 80 L 20 60 L 0 60 L 0 80 L 20 80 z M 60 80 L 80 80 L 80 60 L 60 60 L 60 80 z M 60 180 L 60 200 L 80 200 L 80 180 L 60 180 z M 80 200 L 80 220 L 80 240 L 100 240 L 120 240 L 120 220 L 120 200 L 100 200 L 80 200 z M 120 240 L 120 260 L 140 260 L 140 240 L 120 240 z M 120 260 L 100 260 L 80 260 L 80 280 L 80 300 L 100 300 L 120 300 L 120 280 L 120 260 z M 80 300 L 60 300 L 60 320 L 80 320 L 80 300 z M 80 260 L 80 240 L 60 240 L 60 260 L 80 260 z M 480 0 L 480 20 L 500 20 L 500 0 L 480 0 z M 500 20 L 500 40 L 500 60 L 520 60 L 540 60 L 540 40 L 540 20 L 520 20 L 500 20 z M 540 20 L 560 20 L 560 0 L 540 0 L 540 20 z M 560 20 L 560 40 L 560 60 L 580 60 L 600 60 L 600 40 L 600 20 L 580 20 L 560 20 z M 600 20 L 620 20 L 620 0 L 600 0 L 600 20 z M 620 20 L 620 40 L 620 60 L 640 60 L 660 60 L 660 40 L 660 20 L 640 20 L 620 20 z M 660 20 L 680 20 L 680 0 L 660 0 L 660 20 z M 680 20 L 680 40 L 680 60 L 700 60 L 720 60 L 720 40 L 720 20 L 700 20 L 680 20 z M 720 20 L 740 20 L 740 0 L 720 0 L 720 20 z M 740 20 L 740 40 L 740 60 L 760 60 L 780 60 L 780 40 L 780 20 L 760 20 L 740 20 z M 780 20 L 800 20 L 800 0 L 780 0 L 780 20 z M 800 20 L 800 40 L 800 60 L 820 60 L 840 60 L 840 40 L 840 20 L 820 20 L 800 20 z M 840 20 L 860 20 L 860 0 L 840 0 L 840 20 z M 860 20 L 860 40 L 860 60 L 880 60 L 900 60 L 900 40 L 900 20 L 880 20 L 860 20 z M 900 20 L 920 20 L 920 0 L 900 0 L 900 20 z M 860 60 L 840 60 L 840 80 L 860 80 L 860 60 z M 840 80 L 820 80 L 800 80 L 800 100 L 800 120 L 820 120 L 840 120 L 840 100 L 840 80 z M 800 80 L 800 60 L 780 60 L 780 80 L 800 80 z M 740 60 L 720 60 L 720 80 L 740 80 L 740 60 z M 720 80 L 700 80 L 680 80 L 680 100 L 680 120 L 700 120 L 720 120 L 720 100 L 720 80 z M 680 120 L 660 120 L 660 140 L 680 140 L 680 120 z M 660 140 L 640 140 L 620 140 L 620 160 L 620 180 L 640 180 L 660 180 L 660 160 L 660 140 z M 660 180 L 660 200 L 680 200 L 680 180 L 660 180 z M 620 140 L 620 120 L 600 120 L 600 140 L 620 140 z M 600 120 L 600 100 L 600 80 L 580 80 L 560 80 L 560 100 L 560 120 L 580 120 L 600 120 z M 560 120 L 540 120 L 540 140 L 560 140 L 560 120 z M 560 80 L 560 60 L 540 60 L 540 80 L 560 80 z M 600 80 L 620 80 L 620 60 L 600 60 L 600 80 z M 620 80 L 620 100 L 620 120 L 640 120 L 660 120 L 660 100 L 660 80 L 640 80 L 620 80 z M 660 80 L 680 80 L 680 60 L 660 60 L 660 80 z M 540 300 L 540 320 L 560 320 L 560 300 L 540 300 z M 300 360 L 300 380 L 320 380 L 320 360 L 300 360 z M 320 380 L 320 400 L 320 420 L 340 420 L 360 420 L 360 400 L 360 380 L 340 380 L 320 380 z M 0 540 L 0 560 L 20 560 L 20 540 L 0 540 z M 20 560 L 20 580 L 20 600 L 40 600 L 60 600 L 60 580 L 60 560 L 40 560 L 20 560 z M 60 560 L 80 560 L 80 540 L 60 540 L 60 560 z M 80 560 L 80 580 L 80 600 L 100 600 L 120 600 L 120 580 L 120 560 L 100 560 L 80 560 z M 120 600 L 120 620 L 140 620 L 140 600 L 120 600 z M 120 620 L 100 620 L 80 620 L 80 640 L 80 660 L 100 660 L 120 660 L 120 640 L 120 620 z M 120 660 L 120 680 L 140 680 L 140 660 L 120 660 z M 140 680 L 140 700 L 140 720 L 160 720 L 180 720 L 180 700 L 180 680 L 160 680 L 140 680 z M 140 720 L 120 720 L 120 740 L 140 740 L 140 720 z M 120 740 L 100 740 L 80 740 L 80 760 L 80 780 L 100 780 L 120 780 L 120 760 L 120 740 z M 80 780 L 60 780 L 60 800 L 80 800 L 80 780 z M 60 800 L 40 800 L 20 800 L 20 820 L 20 840 L 40 840 L 60 840 L 60 820 L 60 800 z M 60 840 L 60 860 L 80 860 L 80 840 L 60 840 z M 60 860 L 40 860 L 20 860 L 20 880 L 20 900 L 40 900 L 60 900 L 60 880 L 60 860 z M 20 900 L 0 900 L 0 920 L 20 920 L 20 900 z M 20 860 L 20 840 L 0 840 L 0 860 L 20 860 z M 20 800 L 20 780 L 0 780 L 0 800 L 20 800 z M 20 780 L 40 780 L 60 780 L 60 760 L 60 740 L 40 740 L 20 740 L 20 760 L 20 780 z M 20 740 L 20 720 L 0 720 L 0 740 L 20 740 z M 20 720 L 40 720 L 60 720 L 60 700 L 60 680 L 40 680 L 20 680 L 20 700 L 20 720 z M 20 680 L 20 660 L 0 660 L 0 680 L 20 680 z M 20 660 L 40 660 L 60 660 L 60 640 L 60 620 L 40 620 L 20 620 L 20 640 L 20 660 z M 20 620 L 20 600 L 0 600 L 0 620 L 20 620 z M 60 620 L 80 620 L 80 600 L 60 600 L 60 620 z M 60 660 L 60 680 L 80 680 L 80 660 L 60 660 z M 80 680 L 80 700 L 80 720 L 100 720 L 120 720 L 120 700 L 120 680 L 100 680 L 80 680 z M 80 720 L 60 720 L 60 740 L 80 740 L 80 720 z M 240 540 L 240 560 L 260 560 L 260 540 L 240 540 z M 260 560 L 260 580 L 260 600 L 280 600 L 300 600 L 300 580 L 300 560 L 280 560 L 260 560 z M 300 560 L 320 560 L 320 540 L 300 540 L 300 560 z "
     style="fill:#0000ff" />
  <path
     id="rect3800"
     d="M 420 20 L 420 40 L 420 60 L 420 80 L 440 80 L 440 60 L 440 40 L 440 20 L 420 20 z M 480 60 L 480 80 L 480 100 L 480 120 L 500 120 L 500 100 L 500 80 L 500 60 L 480 60 z M 180 120 L 180 140 L 200 140 L 200 120 L 180 120 z M 200 140 L 200 160 L 200 180 L 220 180 L 240 180 L 240 160 L 240 140 L 220 140 L 200 140 z M 240 180 L 240 200 L 260 200 L 260 180 L 240 180 z M 360 140 L 360 160 L 360 180 L 360 200 L 380 200 L 380 180 L 380 160 L 380 140 L 360 140 z M 480 140 L 480 160 L 480 180 L 500 180 L 500 160 L 500 140 L 480 140 z M 500 180 L 500 200 L 520 200 L 540 200 L 540 180 L 520 180 L 500 180 z M 800 140 L 800 160 L 800 180 L 820 180 L 840 180 L 840 160 L 840 140 L 820 140 L 800 140 z M 800 180 L 780 180 L 780 200 L 800 200 L 800 180 z M 780 200 L 760 200 L 740 200 L 740 220 L 740 240 L 760 240 L 780 240 L 780 220 L 780 200 z M 740 240 L 720 240 L 720 260 L 740 260 L 740 240 z M 720 260 L 700 260 L 680 260 L 680 280 L 680 300 L 700 300 L 720 300 L 720 280 L 720 260 z M 300 180 L 300 200 L 320 200 L 320 180 L 300 180 z M 560 180 L 560 200 L 580 200 L 600 200 L 600 180 L 580 180 L 560 180 z M 620 200 L 620 220 L 620 240 L 640 240 L 660 240 L 680 240 L 680 220 L 680 200 L 660 200 L 640 200 L 620 200 z M 480 240 L 480 260 L 480 280 L 480 300 L 480 320 L 480 340 L 480 360 L 480 380 L 500 380 L 500 360 L 500 340 L 500 320 L 500 300 L 500 280 L 500 260 L 500 240 L 480 240 z M 180 260 L 180 280 L 180 300 L 200 300 L 200 280 L 200 260 L 180 260 z M 320 260 L 320 280 L 320 300 L 340 300 L 360 300 L 360 280 L 360 260 L 340 260 L 320 260 z M 600 260 L 600 280 L 600 300 L 620 300 L 620 280 L 620 260 L 600 260 z M 620 300 L 620 320 L 640 320 L 660 320 L 660 300 L 640 300 L 620 300 z M 620 320 L 600 320 L 600 340 L 600 360 L 620 360 L 620 340 L 620 320 z M 600 360 L 580 360 L 560 360 L 560 380 L 580 380 L 600 380 L 600 360 z M 260 320 L 260 340 L 260 360 L 280 360 L 300 360 L 300 340 L 300 320 L 280 320 L 260 320 z M 260 360 L 240 360 L 240 380 L 260 380 L 260 360 z M 240 380 L 220 380 L 200 380 L 200 400 L 200 420 L 220 420 L 240 420 L 240 400 L 240 380 z M 720 320 L 720 340 L 720 360 L 740 360 L 740 340 L 740 320 L 720 320 z M 660 360 L 660 380 L 680 380 L 680 360 L 660 360 z M 120 380 L 120 400 L 120 420 L 140 420 L 140 400 L 140 380 L 120 380 z M 120 420 L 100 420 L 80 420 L 60 420 L 40 420 L 20 420 L 20 440 L 40 440 L 60 440 L 80 440 L 100 440 L 120 440 L 120 420 z M 740 380 L 740 400 L 740 420 L 760 420 L 780 420 L 780 400 L 780 380 L 760 380 L 740 380 z M 780 420 L 780 440 L 800 440 L 820 440 L 840 440 L 860 440 L 880 440 L 900 440 L 920 440 L 920 420 L 900 420 L 880 420 L 860 420 L 840 420 L 820 420 L 800 420 L 780 420 z M 260 420 L 260 440 L 280 440 L 300 440 L 320 440 L 340 440 L 360 440 L 360 420 L 340 420 L 320 420 L 300 420 L 280 420 L 260 420 z M 540 420 L 540 440 L 560 440 L 560 420 L 540 420 z M 200 440 L 200 460 L 200 480 L 220 480 L 240 480 L 240 460 L 240 440 L 220 440 L 200 440 z M 540 480 L 540 500 L 540 520 L 540 540 L 560 540 L 560 520 L 560 500 L 560 480 L 540 480 z M 560 540 L 560 560 L 580 560 L 600 560 L 600 540 L 580 540 L 560 540 z M 600 560 L 600 580 L 600 600 L 620 600 L 620 580 L 620 560 L 600 560 z M 600 600 L 580 600 L 560 600 L 560 620 L 580 620 L 600 620 L 600 600 z M 560 600 L 560 580 L 560 560 L 540 560 L 540 580 L 540 600 L 560 600 z M 600 480 L 600 500 L 620 500 L 640 500 L 660 500 L 660 480 L 640 480 L 620 480 L 600 480 z M 240 500 L 240 520 L 240 540 L 260 540 L 280 540 L 300 540 L 320 540 L 340 540 L 360 540 L 360 520 L 360 500 L 340 500 L 320 500 L 300 500 L 280 500 L 260 500 L 240 500 z M 800 500 L 800 520 L 800 540 L 820 540 L 840 540 L 840 520 L 840 500 L 820 500 L 800 500 z M 800 540 L 780 540 L 780 560 L 800 560 L 800 540 z M 780 560 L 760 560 L 740 560 L 740 580 L 740 600 L 740 620 L 760 620 L 780 620 L 780 600 L 780 580 L 780 560 z M 180 540 L 180 560 L 200 560 L 200 540 L 180 540 z M 360 560 L 360 580 L 360 600 L 380 600 L 380 580 L 380 560 L 360 560 z M 360 600 L 340 600 L 320 600 L 320 620 L 340 620 L 360 620 L 360 600 z M 440 560 L 440 580 L 440 600 L 440 620 L 440 640 L 440 660 L 460 660 L 480 660 L 480 640 L 480 620 L 480 600 L 480 580 L 480 560 L 460 560 L 440 560 z M 200 600 L 200 620 L 220 620 L 240 620 L 240 600 L 220 600 L 200 600 z M 140 620 L 140 640 L 140 660 L 160 660 L 180 660 L 180 640 L 180 620 L 160 620 L 140 620 z M 180 660 L 180 680 L 200 680 L 200 660 L 180 660 z M 540 660 L 540 680 L 560 680 L 580 680 L 600 680 L 600 660 L 580 660 L 560 660 L 540 660 z M 540 680 L 520 680 L 500 680 L 500 700 L 500 720 L 520 720 L 540 720 L 540 700 L 540 680 z M 720 660 L 720 680 L 740 680 L 740 660 L 720 660 z M 740 680 L 740 700 L 740 720 L 760 720 L 780 720 L 780 700 L 780 680 L 760 680 L 740 680 z M 780 720 L 780 740 L 800 740 L 800 720 L 780 720 z M 300 680 L 300 700 L 300 720 L 320 720 L 320 700 L 320 680 L 300 680 z M 380 680 L 380 700 L 380 720 L 400 720 L 420 720 L 420 700 L 420 680 L 400 680 L 380 680 z M 380 720 L 360 720 L 360 740 L 380 740 L 380 720 z M 660 680 L 660 700 L 660 720 L 680 720 L 680 700 L 680 680 L 660 680 z M 660 720 L 640 720 L 620 720 L 620 740 L 640 740 L 660 740 L 660 720 z M 620 740 L 600 740 L 580 740 L 560 740 L 560 760 L 560 780 L 580 780 L 600 780 L 620 780 L 620 760 L 620 740 z M 560 780 L 540 780 L 520 780 L 500 780 L 480 780 L 480 800 L 500 800 L 520 800 L 540 800 L 560 800 L 560 780 z M 480 800 L 460 800 L 440 800 L 440 820 L 440 840 L 460 840 L 480 840 L 480 820 L 480 800 z M 200 720 L 200 740 L 220 740 L 240 740 L 240 760 L 240 780 L 260 780 L 280 780 L 300 780 L 300 760 L 300 740 L 280 740 L 260 740 L 260 720 L 240 720 L 220 720 L 200 720 z M 240 780 L 220 780 L 200 780 L 200 800 L 220 800 L 240 800 L 240 780 z M 200 800 L 180 800 L 180 820 L 180 840 L 200 840 L 200 820 L 200 800 z M 680 740 L 680 760 L 680 780 L 700 780 L 720 780 L 720 760 L 720 740 L 700 740 L 680 740 z M 720 780 L 720 800 L 740 800 L 740 780 L 720 780 z M 740 800 L 740 820 L 740 840 L 760 840 L 780 840 L 780 820 L 780 800 L 760 800 L 740 800 z M 80 800 L 80 820 L 80 840 L 100 840 L 120 840 L 120 820 L 120 800 L 100 800 L 80 800 z M 120 840 L 120 860 L 140 860 L 140 840 L 120 840 z M 380 860 L 380 880 L 380 900 L 380 920 L 400 920 L 420 920 L 420 900 L 420 880 L 420 860 L 400 860 L 380 860 z "
     style="fill:#800000" />
  <path
     id="rect3806"
     d="M 480 20 L 480 40 L 480 60 L 500 60 L 500 40 L 500 20 L 480 20 z M 420 80 L 420 100 L 420 120 L 420 140 L 440 140 L 440 120 L 440 100 L 440 80 L 420 80 z M 140 120 L 140 140 L 160 140 L 180 140 L 180 120 L 160 120 L 140 120 z M 180 140 L 180 160 L 180 180 L 200 180 L 200 160 L 200 140 L 180 140 z M 200 180 L 200 200 L 220 200 L 240 200 L 240 180 L 220 180 L 200 180 z M 240 200 L 240 220 L 240 240 L 260 240 L 280 240 L 300 240 L 300 220 L 300 200 L 280 200 L 260 200 L 240 200 z M 740 120 L 740 140 L 760 140 L 780 140 L 780 120 L 760 120 L 740 120 z M 740 140 L 720 140 L 720 160 L 720 180 L 740 180 L 740 160 L 740 140 z M 720 180 L 700 180 L 680 180 L 680 200 L 700 200 L 720 200 L 720 180 z M 540 180 L 540 200 L 560 200 L 560 180 L 540 180 z M 560 200 L 560 220 L 560 240 L 580 240 L 600 240 L 620 240 L 620 220 L 620 200 L 600 200 L 580 200 L 560 200 z M 560 240 L 540 240 L 520 240 L 500 240 L 500 260 L 520 260 L 540 260 L 560 260 L 560 240 z M 420 200 L 420 220 L 420 240 L 440 240 L 440 220 L 440 200 L 420 200 z M 420 240 L 400 240 L 380 240 L 360 240 L 340 240 L 320 240 L 320 260 L 340 260 L 360 260 L 380 260 L 400 260 L 420 260 L 420 240 z M 660 260 L 660 280 L 660 300 L 680 300 L 680 280 L 680 260 L 660 260 z M 680 300 L 680 320 L 700 320 L 720 320 L 720 300 L 700 300 L 680 300 z M 240 300 L 240 320 L 240 340 L 240 360 L 260 360 L 260 340 L 260 320 L 280 320 L 300 320 L 300 300 L 280 300 L 260 300 L 240 300 z M 240 360 L 220 360 L 200 360 L 200 380 L 220 380 L 240 380 L 240 360 z M 600 300 L 600 320 L 620 320 L 620 300 L 600 300 z M 600 320 L 580 320 L 560 320 L 560 340 L 560 360 L 580 360 L 600 360 L 600 340 L 600 320 z M 560 360 L 540 360 L 540 380 L 560 380 L 560 360 z M 540 380 L 520 380 L 500 380 L 480 380 L 480 400 L 480 420 L 500 420 L 500 440 L 520 440 L 540 440 L 540 420 L 540 400 L 540 380 z M 540 440 L 540 460 L 540 480 L 560 480 L 560 460 L 560 440 L 540 440 z M 140 320 L 140 340 L 140 360 L 160 360 L 180 360 L 180 340 L 180 320 L 160 320 L 140 320 z M 720 360 L 720 380 L 720 400 L 720 420 L 740 420 L 740 400 L 740 380 L 740 360 L 720 360 z M 720 420 L 700 420 L 680 420 L 680 440 L 700 440 L 720 440 L 720 420 z M 180 420 L 180 440 L 200 440 L 220 440 L 240 440 L 240 420 L 220 420 L 200 420 L 180 420 z M 380 420 L 380 440 L 400 440 L 420 440 L 420 420 L 400 420 L 380 420 z M 120 440 L 120 460 L 120 480 L 140 480 L 140 460 L 140 440 L 120 440 z M 780 480 L 780 500 L 800 500 L 820 500 L 840 500 L 860 500 L 880 500 L 900 500 L 900 480 L 880 480 L 860 480 L 840 480 L 820 480 L 800 480 L 780 480 z M 120 500 L 120 520 L 120 540 L 120 560 L 120 580 L 120 600 L 140 600 L 140 580 L 140 560 L 140 540 L 140 520 L 140 500 L 120 500 z M 140 600 L 140 620 L 160 620 L 180 620 L 180 600 L 160 600 L 140 600 z M 180 500 L 180 520 L 180 540 L 200 540 L 200 520 L 200 500 L 180 500 z M 360 540 L 360 560 L 380 560 L 380 540 L 360 540 z M 360 560 L 340 560 L 320 560 L 320 580 L 320 600 L 340 600 L 360 600 L 360 580 L 360 560 z M 320 600 L 300 600 L 300 620 L 320 620 L 320 600 z M 300 620 L 280 620 L 260 620 L 240 620 L 240 640 L 240 660 L 260 660 L 280 660 L 300 660 L 300 640 L 300 620 z M 680 540 L 680 560 L 700 560 L 720 560 L 720 540 L 700 540 L 680 540 z M 620 600 L 620 620 L 640 620 L 660 620 L 660 600 L 640 600 L 620 600 z M 620 620 L 600 620 L 600 640 L 600 660 L 620 660 L 620 640 L 620 620 z M 440 660 L 440 680 L 440 700 L 440 720 L 440 740 L 460 740 L 480 740 L 500 740 L 520 740 L 540 740 L 540 720 L 520 720 L 500 720 L 480 720 L 480 700 L 480 680 L 480 660 L 460 660 L 440 660 z M 540 720 L 560 720 L 580 720 L 600 720 L 600 700 L 600 680 L 580 680 L 560 680 L 540 680 L 540 700 L 540 720 z M 600 720 L 600 740 L 620 740 L 620 720 L 600 720 z M 620 740 L 620 760 L 620 780 L 640 780 L 660 780 L 660 760 L 660 740 L 640 740 L 620 740 z M 660 740 L 680 740 L 680 720 L 660 720 L 660 740 z M 680 720 L 700 720 L 720 720 L 740 720 L 740 700 L 740 680 L 720 680 L 700 680 L 680 680 L 680 700 L 680 720 z M 540 740 L 540 760 L 540 780 L 560 780 L 560 760 L 560 740 L 540 740 z M 560 780 L 560 800 L 580 800 L 600 800 L 600 780 L 580 780 L 560 780 z M 260 680 L 260 700 L 260 720 L 280 720 L 300 720 L 300 700 L 300 680 L 280 680 L 260 680 z M 140 720 L 140 740 L 160 740 L 180 740 L 180 720 L 160 720 L 140 720 z M 140 740 L 120 740 L 120 760 L 120 780 L 140 780 L 140 760 L 140 740 z M 140 780 L 140 800 L 140 820 L 140 840 L 160 840 L 180 840 L 180 820 L 180 800 L 200 800 L 200 780 L 180 780 L 160 780 L 140 780 z M 200 780 L 220 780 L 240 780 L 240 760 L 240 740 L 220 740 L 200 740 L 200 760 L 200 780 z M 120 780 L 100 780 L 80 780 L 80 800 L 100 800 L 120 800 L 120 780 z M 320 720 L 320 740 L 340 740 L 360 740 L 360 720 L 340 720 L 320 720 z M 320 740 L 300 740 L 300 760 L 300 780 L 320 780 L 320 760 L 320 740 z M 320 780 L 320 800 L 340 800 L 360 800 L 380 800 L 380 820 L 380 840 L 380 860 L 400 860 L 420 860 L 420 840 L 420 820 L 420 800 L 420 780 L 400 780 L 380 780 L 360 780 L 340 780 L 320 780 z M 380 720 L 380 740 L 400 740 L 420 740 L 420 720 L 400 720 L 380 720 z M 720 740 L 720 760 L 720 780 L 740 780 L 740 760 L 740 740 L 720 740 z M 740 780 L 740 800 L 760 800 L 780 800 L 780 780 L 760 780 L 740 780 z M 440 780 L 440 800 L 460 800 L 480 800 L 480 780 L 460 780 L 440 780 z M 440 900 L 440 920 L 460 920 L 480 920 L 480 900 L 460 900 L 440 900 z "
     style="fill:#808000" />
  <path
     id="rect3812"
     d="M 900 20 L 900 40 L 900 60 L 920 60 L 920 40 L 920 20 L 900 20 z M 900 60 L 880 60 L 860 60 L 860 80 L 880 80 L 900 80 L 900 60 z M 440 60 L 440 80 L 460 80 L 480 80 L 480 60 L 460 60 L 440 60 z M 440 140 L 440 160 L 440 180 L 460 180 L 480 180 L 480 160 L 480 140 L 460 140 L 440 140 z M 440 180 L 420 180 L 400 180 L 380 180 L 380 200 L 400 200 L 420 200 L 440 200 L 440 180 z M 440 200 L 440 220 L 440 240 L 440 260 L 460 260 L 480 260 L 480 240 L 480 220 L 480 200 L 460 200 L 440 200 z M 380 200 L 360 200 L 360 220 L 360 240 L 380 240 L 380 220 L 380 200 z M 180 180 L 180 200 L 200 200 L 200 180 L 180 180 z M 200 200 L 200 220 L 200 240 L 220 240 L 240 240 L 240 220 L 240 200 L 220 200 L 200 200 z M 720 180 L 720 200 L 740 200 L 740 180 L 720 180 z M 720 200 L 700 200 L 680 200 L 680 220 L 680 240 L 700 240 L 720 240 L 720 220 L 720 200 z M 680 240 L 660 240 L 640 240 L 620 240 L 620 260 L 620 280 L 620 300 L 640 300 L 660 300 L 660 280 L 660 260 L 680 260 L 680 240 z M 840 180 L 840 200 L 860 200 L 860 180 L 840 180 z M 840 200 L 820 200 L 800 200 L 800 220 L 800 240 L 820 240 L 840 240 L 840 220 L 840 200 z M 800 240 L 780 240 L 780 260 L 800 260 L 800 240 z M 780 260 L 760 260 L 740 260 L 740 280 L 740 300 L 760 300 L 780 300 L 780 280 L 780 260 z M 540 200 L 540 220 L 540 240 L 560 240 L 560 220 L 560 200 L 540 200 z M 200 260 L 200 280 L 200 300 L 220 300 L 240 300 L 240 280 L 240 260 L 220 260 L 200 260 z M 320 300 L 320 320 L 340 320 L 360 320 L 360 300 L 340 300 L 320 300 z M 360 320 L 360 340 L 360 360 L 360 380 L 380 380 L 400 380 L 420 380 L 420 360 L 400 360 L 380 360 L 380 340 L 380 320 L 360 320 z M 560 300 L 560 320 L 580 320 L 600 320 L 600 300 L 580 300 L 560 300 z M 560 320 L 540 320 L 540 340 L 540 360 L 560 360 L 560 340 L 560 320 z M 540 360 L 520 360 L 500 360 L 500 380 L 520 380 L 540 380 L 540 360 z M 180 320 L 180 340 L 180 360 L 180 380 L 200 380 L 200 360 L 220 360 L 240 360 L 240 340 L 240 320 L 220 320 L 200 320 L 180 320 z M 180 380 L 160 380 L 140 380 L 140 400 L 140 420 L 140 440 L 160 440 L 180 440 L 180 420 L 180 400 L 180 380 z M 680 320 L 680 340 L 680 360 L 680 380 L 700 380 L 720 380 L 720 360 L 720 340 L 720 320 L 700 320 L 680 320 z M 440 360 L 440 380 L 440 400 L 440 420 L 460 420 L 480 420 L 480 400 L 480 380 L 480 360 L 460 360 L 440 360 z M 480 420 L 480 440 L 500 440 L 500 420 L 480 420 z M 500 440 L 500 460 L 500 480 L 480 480 L 480 500 L 460 500 L 440 500 L 440 520 L 440 540 L 420 540 L 420 560 L 440 560 L 460 560 L 480 560 L 480 540 L 500 540 L 500 520 L 500 500 L 520 500 L 540 500 L 540 480 L 540 460 L 540 440 L 520 440 L 500 440 z M 440 500 L 440 480 L 420 480 L 420 500 L 440 500 z M 440 480 L 460 480 L 480 480 L 480 460 L 480 440 L 460 440 L 440 440 L 440 460 L 440 480 z M 600 420 L 600 440 L 620 440 L 640 440 L 660 440 L 660 420 L 640 420 L 620 420 L 600 420 z M 660 440 L 660 460 L 660 480 L 680 480 L 700 480 L 720 480 L 720 460 L 720 440 L 700 440 L 680 440 L 660 440 z M 720 480 L 720 500 L 740 500 L 740 480 L 720 480 z M 740 500 L 740 520 L 740 540 L 760 540 L 780 540 L 780 520 L 780 500 L 760 500 L 740 500 z M 600 440 L 580 440 L 560 440 L 560 460 L 560 480 L 580 480 L 600 480 L 600 460 L 600 440 z M 0 440 L 0 460 L 0 480 L 20 480 L 40 480 L 60 480 L 60 460 L 60 440 L 40 440 L 20 440 L 0 440 z M 80 440 L 80 460 L 80 480 L 100 480 L 120 480 L 120 460 L 120 440 L 100 440 L 80 440 z M 120 480 L 120 500 L 140 500 L 140 520 L 140 540 L 140 560 L 160 560 L 180 560 L 180 540 L 180 520 L 180 500 L 200 500 L 200 480 L 180 480 L 160 480 L 140 480 L 120 480 z M 180 560 L 180 580 L 180 600 L 200 600 L 200 580 L 200 560 L 180 560 z M 320 440 L 320 460 L 320 480 L 340 480 L 360 480 L 360 500 L 360 520 L 360 540 L 380 540 L 380 520 L 380 500 L 380 480 L 380 460 L 380 440 L 360 440 L 340 440 L 320 440 z M 360 540 L 340 540 L 320 540 L 320 560 L 340 560 L 360 560 L 360 540 z M 320 560 L 300 560 L 300 580 L 300 600 L 320 600 L 320 580 L 320 560 z M 300 600 L 280 600 L 260 600 L 260 620 L 280 620 L 300 620 L 300 600 z M 780 440 L 780 460 L 780 480 L 800 480 L 800 460 L 800 440 L 780 440 z M 860 440 L 860 460 L 860 480 L 880 480 L 900 480 L 900 460 L 900 440 L 880 440 L 860 440 z M 540 540 L 540 560 L 560 560 L 560 540 L 540 540 z M 660 540 L 660 560 L 660 580 L 660 600 L 680 600 L 680 580 L 680 560 L 680 540 L 660 540 z M 680 600 L 680 620 L 700 620 L 720 620 L 720 600 L 700 600 L 680 600 z M 680 620 L 660 620 L 640 620 L 620 620 L 620 640 L 620 660 L 640 660 L 660 660 L 680 660 L 680 640 L 680 620 z M 620 620 L 620 600 L 600 600 L 600 620 L 620 620 z M 840 540 L 840 560 L 860 560 L 880 560 L 900 560 L 900 540 L 880 540 L 860 540 L 840 540 z M 200 620 L 200 640 L 200 660 L 200 680 L 200 700 L 200 720 L 220 720 L 240 720 L 240 700 L 240 680 L 260 680 L 260 660 L 240 660 L 240 640 L 240 620 L 220 620 L 200 620 z M 200 720 L 180 720 L 180 740 L 180 760 L 180 780 L 200 780 L 200 760 L 200 740 L 200 720 z M 420 660 L 420 680 L 440 680 L 440 660 L 420 660 z M 780 660 L 780 680 L 800 680 L 800 660 L 780 660 z M 800 680 L 800 700 L 800 720 L 820 720 L 840 720 L 840 700 L 840 680 L 820 680 L 800 680 z M 840 720 L 840 740 L 840 760 L 840 780 L 860 780 L 860 760 L 860 740 L 860 720 L 840 720 z M 860 780 L 860 800 L 880 800 L 900 800 L 900 780 L 880 780 L 860 780 z M 620 680 L 620 700 L 620 720 L 640 720 L 660 720 L 660 700 L 660 680 L 640 680 L 620 680 z M 300 720 L 300 740 L 320 740 L 320 720 L 300 720 z M 420 720 L 420 740 L 440 740 L 440 720 L 420 720 z M 440 740 L 440 760 L 440 780 L 460 780 L 480 780 L 480 760 L 480 740 L 460 740 L 440 740 z M 420 740 L 400 740 L 380 740 L 360 740 L 360 760 L 360 780 L 380 780 L 400 780 L 420 780 L 420 760 L 420 740 z M 120 780 L 120 800 L 140 800 L 140 780 L 120 780 z M 240 800 L 240 820 L 240 840 L 260 840 L 260 820 L 260 800 L 240 800 z M 240 840 L 220 840 L 200 840 L 200 860 L 220 860 L 240 860 L 240 840 z M 200 860 L 180 860 L 160 860 L 140 860 L 140 880 L 140 900 L 160 900 L 180 900 L 200 900 L 200 880 L 200 860 z M 480 800 L 480 820 L 480 840 L 500 840 L 500 820 L 500 800 L 480 800 z M 500 840 L 500 860 L 500 880 L 500 900 L 500 920 L 520 920 L 540 920 L 540 900 L 540 880 L 540 860 L 540 840 L 520 840 L 500 840 z M 420 840 L 420 860 L 420 880 L 420 900 L 440 900 L 440 880 L 440 860 L 440 840 L 420 840 z M 60 860 L 60 880 L 60 900 L 80 900 L 80 880 L 80 860 L 60 860 z M 60 900 L 40 900 L 20 900 L 20 920 L 40 920 L 60 920 L 60 900 z "
     style="fill:#c0c0c0" />
  <path
     id="rect3834"
     d="M 20 0 L 20 20 L 40 20 L 60 20 L 60 0 L 40 0 L 20 0 z M 60 20 L 60 40 L 60 60 L 80 60 L 80 40 L 80 20 L 60 20 z M 80 20 L 100 20 L 120 20 L 120 0 L 100 0 L 80 0 L 80 20 z M 120 20 L 120 40 L 120 60 L 140 60 L 140 40 L 140 20 L 120 20 z M 140 20 L 160 20 L 180 20 L 180 0 L 160 0 L 140 0 L 140 20 z M 180 20 L 180 40 L 180 60 L 200 60 L 200 40 L 200 20 L 180 20 z M 200 20 L 220 20 L 240 20 L 240 0 L 220 0 L 200 0 L 200 20 z M 240 20 L 240 40 L 240 60 L 260 60 L 260 40 L 260 20 L 240 20 z M 260 20 L 280 20 L 300 20 L 300 0 L 280 0 L 260 0 L 260 20 z M 300 20 L 300 40 L 300 60 L 320 60 L 320 40 L 320 20 L 300 20 z M 320 20 L 340 20 L 360 20 L 360 0 L 340 0 L 320 0 L 320 20 z M 360 20 L 360 40 L 360 60 L 380 60 L 380 40 L 380 20 L 360 20 z M 380 20 L 400 20 L 420 20 L 420 0 L 400 0 L 380 0 L 380 20 z M 380 60 L 380 80 L 400 80 L 420 80 L 420 60 L 400 60 L 380 60 z M 380 80 L 360 80 L 360 100 L 360 120 L 380 120 L 380 100 L 380 80 z M 380 120 L 380 140 L 400 140 L 420 140 L 420 120 L 400 120 L 380 120 z M 360 120 L 340 120 L 320 120 L 320 140 L 340 140 L 360 140 L 360 120 z M 320 120 L 320 100 L 320 80 L 300 80 L 300 100 L 300 120 L 320 120 z M 300 80 L 300 60 L 280 60 L 260 60 L 260 80 L 280 80 L 300 80 z M 320 80 L 340 80 L 360 80 L 360 60 L 340 60 L 320 60 L 320 80 z M 240 60 L 220 60 L 200 60 L 200 80 L 220 80 L 240 80 L 240 60 z M 180 60 L 160 60 L 140 60 L 140 80 L 160 80 L 180 80 L 180 60 z M 140 80 L 120 80 L 120 100 L 120 120 L 140 120 L 140 100 L 140 80 z M 120 120 L 100 120 L 80 120 L 80 140 L 100 140 L 120 140 L 120 120 z M 80 140 L 60 140 L 60 160 L 60 180 L 80 180 L 80 160 L 80 140 z M 80 180 L 80 200 L 100 200 L 120 200 L 120 180 L 100 180 L 80 180 z M 120 200 L 120 220 L 120 240 L 140 240 L 140 220 L 140 200 L 120 200 z M 140 240 L 140 260 L 160 260 L 180 260 L 180 240 L 160 240 L 140 240 z M 140 260 L 120 260 L 120 280 L 120 300 L 140 300 L 140 280 L 140 260 z M 140 300 L 140 320 L 160 320 L 180 320 L 180 300 L 160 300 L 140 300 z M 140 320 L 120 320 L 120 340 L 120 360 L 140 360 L 140 340 L 140 320 z M 120 360 L 100 360 L 80 360 L 80 380 L 100 380 L 120 380 L 120 360 z M 80 380 L 60 380 L 60 400 L 60 420 L 80 420 L 80 400 L 80 380 z M 60 380 L 60 360 L 40 360 L 20 360 L 20 380 L 40 380 L 60 380 z M 20 380 L 0 380 L 0 400 L 0 420 L 20 420 L 20 400 L 20 380 z M 20 360 L 20 340 L 20 320 L 0 320 L 0 340 L 0 360 L 20 360 z M 20 320 L 40 320 L 60 320 L 60 300 L 40 300 L 20 300 L 20 320 z M 20 300 L 20 280 L 20 260 L 0 260 L 0 280 L 0 300 L 20 300 z M 20 260 L 40 260 L 60 260 L 60 240 L 40 240 L 20 240 L 20 260 z M 20 240 L 20 220 L 20 200 L 0 200 L 0 220 L 0 240 L 20 240 z M 20 200 L 40 200 L 60 200 L 60 180 L 40 180 L 20 180 L 20 200 z M 20 180 L 20 160 L 20 140 L 0 140 L 0 160 L 0 180 L 20 180 z M 20 140 L 40 140 L 60 140 L 60 120 L 40 120 L 20 120 L 20 140 z M 20 120 L 20 100 L 20 80 L 0 80 L 0 100 L 0 120 L 20 120 z M 20 80 L 40 80 L 60 80 L 60 60 L 40 60 L 20 60 L 20 80 z M 20 60 L 20 40 L 20 20 L 0 20 L 0 40 L 0 60 L 20 60 z M 60 80 L 60 100 L 60 120 L 80 120 L 80 100 L 80 80 L 60 80 z M 80 80 L 100 80 L 120 80 L 120 60 L 100 60 L 80 60 L 80 80 z M 60 200 L 60 220 L 60 240 L 80 240 L 80 220 L 80 200 L 60 200 z M 80 240 L 80 260 L 100 260 L 120 260 L 120 240 L 100 240 L 80 240 z M 80 260 L 60 260 L 60 280 L 60 300 L 80 300 L 80 280 L 80 260 z M 80 300 L 80 320 L 100 320 L 120 320 L 120 300 L 100 300 L 80 300 z M 80 320 L 60 320 L 60 340 L 60 360 L 80 360 L 80 340 L 80 320 z M 440 0 L 440 20 L 460 20 L 480 20 L 480 0 L 460 0 L 440 0 z M 500 0 L 500 20 L 520 20 L 540 20 L 540 0 L 520 0 L 500 0 z M 560 0 L 560 20 L 580 20 L 600 20 L 600 0 L 580 0 L 560 0 z M 600 20 L 600 40 L 600 60 L 620 60 L 620 40 L 620 20 L 600 20 z M 620 20 L 640 20 L 660 20 L 660 0 L 640 0 L 620 0 L 620 20 z M 660 20 L 660 40 L 660 60 L 680 60 L 680 40 L 680 20 L 660 20 z M 680 20 L 700 20 L 720 20 L 720 0 L 700 0 L 680 0 L 680 20 z M 720 20 L 720 40 L 720 60 L 740 60 L 740 40 L 740 20 L 720 20 z M 740 20 L 760 20 L 780 20 L 780 0 L 760 0 L 740 0 L 740 20 z M 780 20 L 780 40 L 780 60 L 800 60 L 800 40 L 800 20 L 780 20 z M 800 20 L 820 20 L 840 20 L 840 0 L 820 0 L 800 0 L 800 20 z M 840 20 L 840 40 L 840 60 L 860 60 L 860 40 L 860 20 L 840 20 z M 860 20 L 880 20 L 900 20 L 900 0 L 880 0 L 860 0 L 860 20 z M 840 60 L 820 60 L 800 60 L 800 80 L 820 80 L 840 80 L 840 60 z M 780 60 L 760 60 L 740 60 L 740 80 L 760 80 L 780 80 L 780 60 z M 740 80 L 720 80 L 720 100 L 720 120 L 740 120 L 740 100 L 740 80 z M 720 120 L 700 120 L 680 120 L 680 140 L 700 140 L 720 140 L 720 120 z M 680 140 L 660 140 L 660 160 L 660 180 L 680 180 L 680 160 L 680 140 z M 660 140 L 660 120 L 640 120 L 620 120 L 620 140 L 640 140 L 660 140 z M 620 140 L 600 140 L 600 160 L 600 180 L 620 180 L 620 160 L 620 140 z M 620 120 L 620 100 L 620 80 L 600 80 L 600 100 L 600 120 L 620 120 z M 620 80 L 640 80 L 660 80 L 660 60 L 640 60 L 620 60 L 620 80 z M 660 80 L 660 100 L 660 120 L 680 120 L 680 100 L 680 80 L 660 80 z M 680 80 L 700 80 L 720 80 L 720 60 L 700 60 L 680 60 L 680 80 z M 920 0 L 920 20 L 940 20 L 960 20 L 960 0 L 940 0 L 920 0 z M 540 260 L 540 280 L 540 300 L 560 300 L 560 280 L 560 260 L 540 260 z M 380 300 L 380 320 L 400 320 L 420 320 L 420 300 L 400 300 L 380 300 z M 300 380 L 300 400 L 300 420 L 320 420 L 320 400 L 320 380 L 300 380 z M 260 540 L 260 560 L 280 560 L 300 560 L 300 540 L 280 540 L 260 540 z M 0 560 L 0 580 L 0 600 L 20 600 L 20 580 L 20 560 L 0 560 z M 20 600 L 20 620 L 40 620 L 60 620 L 60 600 L 40 600 L 20 600 z M 60 620 L 60 640 L 60 660 L 80 660 L 80 640 L 80 620 L 60 620 z M 80 620 L 100 620 L 120 620 L 120 600 L 100 600 L 80 600 L 80 620 z M 120 620 L 120 640 L 120 660 L 140 660 L 140 640 L 140 620 L 120 620 z M 140 660 L 140 680 L 160 680 L 180 680 L 180 660 L 160 660 L 140 660 z M 140 680 L 120 680 L 120 700 L 120 720 L 140 720 L 140 700 L 140 680 z M 120 720 L 100 720 L 80 720 L 80 740 L 100 740 L 120 740 L 120 720 z M 80 740 L 60 740 L 60 760 L 60 780 L 80 780 L 80 760 L 80 740 z M 60 780 L 40 780 L 20 780 L 20 800 L 40 800 L 60 800 L 60 780 z M 60 800 L 60 820 L 60 840 L 80 840 L 80 820 L 80 800 L 60 800 z M 60 840 L 40 840 L 20 840 L 20 860 L 40 860 L 60 860 L 60 840 z M 20 860 L 0 860 L 0 880 L 0 900 L 20 900 L 20 880 L 20 860 z M 20 840 L 20 820 L 20 800 L 0 800 L 0 820 L 0 840 L 20 840 z M 20 780 L 20 760 L 20 740 L 0 740 L 0 760 L 0 780 L 20 780 z M 20 740 L 40 740 L 60 740 L 60 720 L 40 720 L 20 720 L 20 740 z M 20 720 L 20 700 L 20 680 L 0 680 L 0 700 L 0 720 L 20 720 z M 20 680 L 40 680 L 60 680 L 60 660 L 40 660 L 20 660 L 20 680 z M 20 660 L 20 640 L 20 620 L 0 620 L 0 640 L 0 660 L 20 660 z M 60 680 L 60 700 L 60 720 L 80 720 L 80 700 L 80 680 L 60 680 z M 80 680 L 100 680 L 120 680 L 120 660 L 100 660 L 80 660 L 80 680 z M 0 920 L 0 940 L 0 960 L 20 960 L 20 940 L 20 920 L 0 920 z "
     style="fill:#008080" />
  <path
     id="rect3844"
     d="M 440 20 L 440 40 L 440 60 L 460 60 L 480 60 L 480 40 L 480 20 L 460 20 L 440 20 z M 540 20 L 540 40 L 540 60 L 560 60 L 560 40 L 560 20 L 540 20 z M 560 60 L 560 80 L 580 80 L 600 80 L 600 60 L 580 60 L 560 60 z M 560 80 L 540 80 L 540 60 L 520 60 L 500 60 L 500 80 L 500 100 L 500 120 L 480 120 L 480 140 L 500 140 L 500 160 L 500 180 L 520 180 L 540 180 L 560 180 L 580 180 L 600 180 L 600 160 L 600 140 L 600 120 L 580 120 L 560 120 L 560 140 L 540 140 L 540 120 L 560 120 L 560 100 L 560 80 z M 600 180 L 600 200 L 620 200 L 640 200 L 660 200 L 660 180 L 640 180 L 620 180 L 600 180 z M 920 20 L 920 40 L 920 60 L 940 60 L 960 60 L 960 40 L 960 20 L 940 20 L 920 20 z M 920 60 L 900 60 L 900 80 L 920 80 L 920 60 z M 900 80 L 880 80 L 860 80 L 860 100 L 860 120 L 880 120 L 900 120 L 900 100 L 900 80 z M 860 120 L 840 120 L 820 120 L 800 120 L 800 140 L 820 140 L 840 140 L 840 160 L 840 180 L 860 180 L 860 160 L 860 140 L 860 120 z M 840 180 L 820 180 L 800 180 L 800 200 L 820 200 L 840 200 L 840 180 z M 800 200 L 780 200 L 780 220 L 780 240 L 800 240 L 800 220 L 800 200 z M 780 240 L 760 240 L 740 240 L 740 260 L 760 260 L 780 260 L 780 240 z M 740 260 L 720 260 L 720 280 L 720 300 L 720 320 L 740 320 L 740 300 L 740 280 L 740 260 z M 740 320 L 740 340 L 740 360 L 740 380 L 760 380 L 780 380 L 780 360 L 780 340 L 780 320 L 760 320 L 740 320 z M 800 120 L 800 100 L 800 80 L 780 80 L 760 80 L 740 80 L 740 100 L 740 120 L 760 120 L 780 120 L 800 120 z M 740 120 L 720 120 L 720 140 L 740 140 L 740 120 z M 720 140 L 700 140 L 680 140 L 680 160 L 680 180 L 700 180 L 720 180 L 720 160 L 720 140 z M 140 80 L 140 100 L 140 120 L 160 120 L 180 120 L 200 120 L 200 140 L 220 140 L 240 140 L 240 160 L 240 180 L 260 180 L 260 200 L 280 200 L 300 200 L 300 180 L 320 180 L 320 200 L 340 200 L 360 200 L 360 180 L 360 160 L 360 140 L 340 140 L 320 140 L 300 140 L 300 120 L 280 120 L 260 120 L 260 100 L 260 80 L 240 80 L 220 80 L 200 80 L 180 80 L 160 80 L 140 80 z M 360 140 L 380 140 L 380 120 L 360 120 L 360 140 z M 380 140 L 380 160 L 380 180 L 400 180 L 420 180 L 420 160 L 420 140 L 400 140 L 380 140 z M 140 120 L 120 120 L 120 140 L 120 160 L 120 180 L 140 180 L 140 160 L 140 140 L 140 120 z M 140 180 L 140 200 L 160 200 L 180 200 L 180 180 L 160 180 L 140 180 z M 180 200 L 180 220 L 180 240 L 200 240 L 200 220 L 200 200 L 180 200 z M 200 240 L 200 260 L 220 260 L 240 260 L 240 240 L 220 240 L 200 240 z M 360 260 L 360 280 L 360 300 L 360 320 L 380 320 L 380 300 L 400 300 L 420 300 L 420 280 L 420 260 L 400 260 L 380 260 L 360 260 z M 380 320 L 380 340 L 380 360 L 400 360 L 420 360 L 420 340 L 420 320 L 400 320 L 380 320 z M 500 260 L 500 280 L 500 300 L 500 320 L 500 340 L 500 360 L 520 360 L 540 360 L 540 340 L 540 320 L 540 300 L 540 280 L 540 260 L 520 260 L 500 260 z M 560 260 L 560 280 L 560 300 L 580 300 L 600 300 L 600 280 L 600 260 L 580 260 L 560 260 z M 300 320 L 300 340 L 300 360 L 320 360 L 320 340 L 320 320 L 300 320 z M 320 360 L 320 380 L 340 380 L 360 380 L 360 360 L 340 360 L 320 360 z M 360 380 L 360 400 L 360 420 L 360 440 L 380 440 L 380 420 L 380 400 L 380 380 L 360 380 z M 300 360 L 280 360 L 260 360 L 260 380 L 240 380 L 240 400 L 240 420 L 240 440 L 260 440 L 260 420 L 280 420 L 300 420 L 300 400 L 300 380 L 300 360 z M 620 320 L 620 340 L 620 360 L 640 360 L 660 360 L 660 340 L 660 320 L 640 320 L 620 320 z M 620 360 L 600 360 L 600 380 L 620 380 L 620 360 z M 600 380 L 580 380 L 560 380 L 540 380 L 540 400 L 540 420 L 560 420 L 580 420 L 600 420 L 600 400 L 600 380 z M 660 380 L 660 400 L 660 420 L 680 420 L 680 400 L 680 380 L 660 380 z M 740 420 L 740 440 L 760 440 L 780 440 L 780 420 L 760 420 L 740 420 z M 920 440 L 920 460 L 920 480 L 920 500 L 940 500 L 960 500 L 960 480 L 960 460 L 960 440 L 940 440 L 920 440 z M 920 500 L 900 500 L 880 500 L 860 500 L 840 500 L 840 520 L 840 540 L 860 540 L 880 540 L 900 540 L 920 540 L 920 520 L 920 500 z M 840 540 L 820 540 L 800 540 L 800 560 L 820 560 L 840 560 L 840 540 z M 800 560 L 780 560 L 780 580 L 780 600 L 780 620 L 800 620 L 800 600 L 800 580 L 800 560 z M 780 620 L 760 620 L 740 620 L 720 620 L 720 640 L 720 660 L 740 660 L 740 680 L 760 680 L 780 680 L 780 660 L 780 640 L 780 620 z M 780 680 L 780 700 L 780 720 L 800 720 L 800 700 L 800 680 L 780 680 z M 800 720 L 800 740 L 800 760 L 800 780 L 820 780 L 840 780 L 840 760 L 840 740 L 840 720 L 820 720 L 800 720 z M 840 780 L 840 800 L 840 820 L 840 840 L 860 840 L 860 820 L 860 800 L 860 780 L 840 780 z M 840 840 L 820 840 L 800 840 L 780 840 L 780 860 L 800 860 L 820 860 L 840 860 L 840 840 z M 800 540 L 800 520 L 800 500 L 780 500 L 780 520 L 780 540 L 800 540 z M 0 480 L 0 500 L 0 520 L 0 540 L 20 540 L 20 560 L 40 560 L 60 560 L 60 540 L 80 540 L 80 560 L 100 560 L 120 560 L 120 540 L 120 520 L 120 500 L 100 500 L 80 500 L 60 500 L 40 500 L 20 500 L 20 480 L 0 480 z M 80 560 L 60 560 L 60 580 L 60 600 L 80 600 L 80 580 L 80 560 z M 660 480 L 660 500 L 680 500 L 680 520 L 680 540 L 700 540 L 720 540 L 720 520 L 720 500 L 720 480 L 700 480 L 680 480 L 660 480 z M 200 500 L 200 520 L 200 540 L 200 560 L 200 580 L 200 600 L 220 600 L 240 600 L 240 620 L 260 620 L 260 600 L 260 580 L 260 560 L 240 560 L 240 540 L 240 520 L 240 500 L 220 500 L 200 500 z M 560 500 L 560 520 L 560 540 L 580 540 L 600 540 L 600 520 L 600 500 L 580 500 L 560 500 z M 600 540 L 600 560 L 620 560 L 620 540 L 600 540 z M 620 560 L 620 580 L 620 600 L 640 600 L 660 600 L 660 580 L 660 560 L 640 560 L 620 560 z M 380 540 L 380 560 L 380 580 L 380 600 L 360 600 L 360 620 L 380 620 L 380 640 L 380 660 L 380 680 L 400 680 L 420 680 L 420 660 L 420 640 L 420 620 L 420 600 L 420 580 L 420 560 L 420 540 L 400 540 L 380 540 z M 380 680 L 360 680 L 340 680 L 320 680 L 320 700 L 320 720 L 340 720 L 360 720 L 380 720 L 380 700 L 380 680 z M 320 680 L 320 660 L 340 660 L 360 660 L 360 640 L 360 620 L 340 620 L 320 620 L 300 620 L 300 640 L 300 660 L 280 660 L 260 660 L 260 680 L 280 680 L 300 680 L 320 680 z M 480 560 L 480 580 L 480 600 L 480 620 L 480 640 L 480 660 L 480 680 L 480 700 L 480 720 L 500 720 L 500 700 L 500 680 L 520 680 L 540 680 L 540 660 L 520 660 L 500 660 L 500 640 L 500 620 L 500 600 L 500 580 L 500 560 L 480 560 z M 560 620 L 560 640 L 560 660 L 580 660 L 600 660 L 600 640 L 600 620 L 580 620 L 560 620 z M 180 680 L 180 700 L 180 720 L 200 720 L 200 700 L 200 680 L 180 680 z M 660 740 L 660 760 L 660 780 L 680 780 L 680 760 L 680 740 L 660 740 z M 660 780 L 640 780 L 620 780 L 600 780 L 600 800 L 620 800 L 640 800 L 660 800 L 660 780 z M 600 800 L 580 800 L 560 800 L 540 800 L 520 800 L 500 800 L 500 820 L 500 840 L 520 840 L 540 840 L 560 840 L 580 840 L 600 840 L 600 820 L 600 800 z M 500 840 L 480 840 L 480 860 L 480 880 L 480 900 L 480 920 L 500 920 L 500 900 L 500 880 L 500 860 L 500 840 z M 480 920 L 460 920 L 440 920 L 420 920 L 420 940 L 420 960 L 440 960 L 460 960 L 480 960 L 480 940 L 480 920 z M 240 780 L 240 800 L 260 800 L 280 800 L 300 800 L 320 800 L 320 780 L 300 780 L 280 780 L 260 780 L 240 780 z M 320 800 L 320 820 L 320 840 L 340 840 L 360 840 L 360 860 L 380 860 L 380 840 L 380 820 L 380 800 L 360 800 L 340 800 L 320 800 z M 240 800 L 220 800 L 200 800 L 200 820 L 200 840 L 220 840 L 240 840 L 240 820 L 240 800 z M 200 840 L 180 840 L 160 840 L 140 840 L 140 860 L 160 860 L 180 860 L 200 860 L 200 840 z M 140 860 L 120 860 L 120 840 L 100 840 L 80 840 L 80 860 L 80 880 L 80 900 L 100 900 L 120 900 L 140 900 L 140 880 L 140 860 z M 80 900 L 60 900 L 60 920 L 80 920 L 80 900 z M 60 920 L 40 920 L 20 920 L 20 940 L 20 960 L 40 960 L 60 960 L 60 940 L 60 920 z "
     style="fill:#000000" />
  <path
     id="rect3850"
     d="M 840 80 L 840 100 L 840 120 L 860 120 L 860 100 L 860 80 L 840 80 z M 420 140 L 420 160 L 420 180 L 440 180 L 440 160 L 440 140 L 420 140 z M 780 140 L 780 160 L 780 180 L 800 180 L 800 160 L 800 140 L 780 140 z M 780 180 L 760 180 L 740 180 L 740 200 L 760 200 L 780 200 L 780 180 z M 740 200 L 720 200 L 720 220 L 720 240 L 740 240 L 740 220 L 740 200 z M 720 240 L 700 240 L 680 240 L 680 260 L 700 260 L 720 260 L 720 240 z M 860 140 L 860 160 L 860 180 L 860 200 L 840 200 L 840 220 L 840 240 L 820 240 L 800 240 L 800 260 L 780 260 L 780 280 L 780 300 L 760 300 L 740 300 L 740 320 L 760 320 L 780 320 L 800 320 L 800 300 L 820 300 L 840 300 L 840 280 L 840 260 L 860 260 L 860 240 L 880 240 L 900 240 L 900 220 L 900 200 L 900 180 L 900 160 L 900 140 L 880 140 L 860 140 z M 480 180 L 480 200 L 480 220 L 480 240 L 500 240 L 500 220 L 500 200 L 500 180 L 480 180 z M 300 200 L 300 220 L 300 240 L 320 240 L 320 220 L 320 200 L 300 200 z M 420 240 L 420 260 L 420 280 L 420 300 L 420 320 L 420 340 L 420 360 L 420 380 L 420 400 L 420 420 L 440 420 L 440 400 L 440 380 L 440 360 L 440 340 L 440 320 L 440 300 L 440 280 L 440 260 L 440 240 L 420 240 z M 180 300 L 180 320 L 200 320 L 200 300 L 180 300 z M 140 360 L 140 380 L 160 380 L 180 380 L 180 360 L 160 360 L 140 360 z M 620 360 L 620 380 L 640 380 L 660 380 L 660 360 L 640 360 L 620 360 z M 620 380 L 600 380 L 600 400 L 600 420 L 620 420 L 620 400 L 620 380 z M 600 420 L 580 420 L 560 420 L 560 440 L 580 440 L 600 440 L 600 420 z M 120 420 L 120 440 L 140 440 L 140 420 L 120 420 z M 660 420 L 660 440 L 680 440 L 680 420 L 660 420 z M 720 420 L 720 440 L 740 440 L 740 420 L 720 420 z M 920 420 L 920 440 L 940 440 L 960 440 L 960 420 L 940 420 L 920 420 z M 920 440 L 900 440 L 900 460 L 900 480 L 900 500 L 920 500 L 920 480 L 920 460 L 920 440 z M 920 500 L 920 520 L 920 540 L 900 540 L 900 560 L 880 560 L 860 560 L 840 560 L 820 560 L 800 560 L 800 580 L 800 600 L 820 600 L 840 600 L 860 600 L 880 600 L 900 600 L 920 600 L 920 580 L 920 560 L 940 560 L 960 560 L 960 540 L 960 520 L 960 500 L 940 500 L 920 500 z M 20 480 L 20 500 L 40 500 L 60 500 L 80 500 L 100 500 L 120 500 L 120 480 L 100 480 L 80 480 L 60 480 L 40 480 L 20 480 z M 200 480 L 200 500 L 220 500 L 240 500 L 260 500 L 280 500 L 300 500 L 320 500 L 340 500 L 360 500 L 360 480 L 340 480 L 320 480 L 300 480 L 280 480 L 260 480 L 240 480 L 220 480 L 200 480 z M 560 480 L 560 500 L 580 500 L 600 500 L 600 480 L 580 480 L 560 480 z M 740 480 L 740 500 L 760 500 L 780 500 L 780 480 L 760 480 L 740 480 z M 380 500 L 380 520 L 380 540 L 400 540 L 420 540 L 420 520 L 420 500 L 400 500 L 380 500 z M 500 500 L 500 520 L 500 540 L 480 540 L 480 560 L 500 560 L 520 560 L 540 560 L 540 540 L 540 520 L 540 500 L 520 500 L 500 500 z M 740 540 L 740 560 L 760 560 L 780 560 L 780 540 L 760 540 L 740 540 z M 740 560 L 720 560 L 720 580 L 720 600 L 720 620 L 740 620 L 740 600 L 740 580 L 740 560 z M 720 620 L 700 620 L 680 620 L 680 640 L 680 660 L 680 680 L 700 680 L 720 680 L 720 660 L 720 640 L 720 620 z M 360 620 L 360 640 L 360 660 L 380 660 L 380 640 L 380 620 L 360 620 z M 360 660 L 340 660 L 320 660 L 320 680 L 340 680 L 360 680 L 360 660 z M 780 620 L 780 640 L 780 660 L 800 660 L 800 640 L 800 620 L 780 620 z M 800 660 L 800 680 L 820 680 L 840 680 L 840 660 L 820 660 L 800 660 z M 840 680 L 840 700 L 840 720 L 860 720 L 860 700 L 860 680 L 840 680 z M 860 720 L 860 740 L 860 760 L 860 780 L 880 780 L 900 780 L 900 800 L 880 800 L 860 800 L 860 820 L 860 840 L 840 840 L 840 860 L 860 860 L 880 860 L 900 860 L 900 840 L 920 840 L 920 820 L 920 800 L 920 780 L 920 760 L 920 740 L 900 740 L 900 720 L 880 720 L 860 720 z M 840 840 L 840 820 L 840 800 L 840 780 L 820 780 L 800 780 L 800 800 L 780 800 L 780 820 L 780 840 L 800 840 L 820 840 L 840 840 z M 800 780 L 800 760 L 800 740 L 780 740 L 780 760 L 780 780 L 800 780 z M 780 740 L 780 720 L 760 720 L 740 720 L 740 740 L 760 740 L 780 740 z M 600 660 L 600 680 L 620 680 L 620 660 L 600 660 z M 560 720 L 560 740 L 580 740 L 600 740 L 600 720 L 580 720 L 560 720 z M 680 720 L 680 740 L 700 740 L 720 740 L 720 720 L 700 720 L 680 720 z M 500 740 L 500 760 L 500 780 L 520 780 L 540 780 L 540 760 L 540 740 L 520 740 L 500 740 z M 120 800 L 120 820 L 120 840 L 140 840 L 140 820 L 140 800 L 120 800 z M 260 800 L 260 820 L 260 840 L 280 840 L 300 840 L 300 820 L 300 800 L 280 800 L 260 800 z M 260 840 L 240 840 L 240 860 L 260 860 L 260 840 z M 240 860 L 220 860 L 200 860 L 200 880 L 200 900 L 220 900 L 240 900 L 240 880 L 240 860 z M 200 900 L 180 900 L 160 900 L 140 900 L 140 920 L 160 920 L 180 920 L 200 920 L 200 900 z M 440 840 L 440 860 L 440 880 L 440 900 L 460 900 L 480 900 L 480 880 L 480 860 L 480 840 L 460 840 L 440 840 z M 440 900 L 420 900 L 420 920 L 440 920 L 440 900 z M 540 840 L 540 860 L 540 880 L 540 900 L 540 920 L 560 920 L 560 900 L 560 880 L 560 860 L 560 840 L 540 840 z M 540 920 L 520 920 L 500 920 L 480 920 L 480 940 L 480 960 L 500 960 L 520 960 L 540 960 L 540 940 L 540 920 z "
     style="fill:#808080" />
</svg>
