<?xml version="1.0" encoding="UTF-8" standalone="no"?>
<svg
   xmlns:dc="http://purl.org/dc/elements/1.1/"
   xmlns:cc="http://creativecommons.org/ns#"
   xmlns:rdf="http://www.w3.org/1999/02/22-rdf-syntax-ns#"
   xmlns:svg="http://www.w3.org/2000/svg"
   xmlns="http://www.w3.org/2000/svg"
   xmlns:sodipodi="http://sodipodi.sourceforge.net/DTD/sodipodi-0.dtd"
   xmlns:inkscape="http://www.inkscape.org/namespaces/inkscape"
   id="svg3566"
   width="960px"
   version="1.1"
   height="900px"
   sodipodi:docname="chicago95_tmp_file.svg"
   inkscape:version="0.92.4 (5da689c313, 2019-01-14)">
  <sodipodi:namedview
     pagecolor="#ffffff"
     bordercolor="#666666"
     borderopacity="1"
     objecttolerance="10"
     gridtolerance="10"
     guidetolerance="10"
     inkscape:pageopacity="0"
     inkscape:pageshadow="2"
     inkscape:window-width="640"
     inkscape:window-height="480"
     id="namedview1786"
     showgrid="false"
     inkscape:zoom="0.26222222"
     inkscape:cx="480"
     inkscape:cy="450"
     inkscape:window-x="0"
     inkscape:window-y="0"
     inkscape:window-maximized="0"
     inkscape:current-layer="svg3566" />
  <metadata
     id="metadata3570">
    <rdf:RDF>
      <cc:Work
         rdf:about="">
        <dc:format>image/svg+xml</dc:format>
        <dc:type
           rdf:resource="http://purl.org/dc/dcmitype/StillImage" />
      </cc:Work>
    </rdf:RDF>
  </metadata>
  <defs
     id="defs2" />
  <path
     style="fill:#afafaf"
     d="M 260 80 L 260 100 L 280 100 L 280 80 L 260 80 z "
     id="rect142" />
  <path
     style="fill:#bbbbbb"
     d="M 700 140 L 700 160 L 700 180 L 720 180 L 720 160 L 720 140 L 700 140 z "
     id="rect400" />
  <path
     style="opacity:0.8745098;fill:#d5d5d5"
     d="M 140 200 L 140 220 L 160 220 L 160 200 L 140 200 z "
     id="rect472" />
  <path
     style="opacity:0.8745098;fill:#9c9c9c"
     d="M 740 200 L 740 220 L 760 220 L 780 220 L 780 200 L 760 200 L 740 200 z "
     id="rect534" />
  <path
     style="fill:#d9d9d9"
     d="M 700 340 L 700 360 L 700 380 L 720 380 L 720 360 L 720 340 L 700 340 z M 260 380 L 260 400 L 260 420 L 280 420 L 280 400 L 280 380 L 260 380 z M 700 420 L 700 440 L 720 440 L 720 420 L 700 420 z M 260 440 L 260 460 L 260 480 L 280 480 L 280 460 L 280 440 L 260 440 z M 700 520 L 700 540 L 720 540 L 720 520 L 700 520 z M 260 540 L 260 560 L 260 580 L 280 580 L 280 560 L 280 540 L 260 540 z M 700 580 L 700 600 L 700 620 L 720 620 L 720 600 L 720 580 L 700 580 z "
     id="rect2320" />
  <path
     style="fill:#f1f1f1"
     d="M 260 340 L 260 360 L 260 380 L 280 380 L 280 360 L 280 340 L 260 340 z M 700 380 L 700 400 L 700 420 L 720 420 L 720 400 L 720 380 L 700 380 z M 260 420 L 260 440 L 280 440 L 280 420 L 260 420 z M 700 440 L 700 460 L 700 480 L 720 480 L 720 460 L 720 440 L 700 440 z M 260 480 L 260 500 L 260 520 L 280 520 L 280 500 L 280 480 L 260 480 z M 700 620 L 700 640 L 720 640 L 720 620 L 700 620 z "
     id="rect2414" />
  <path
     style="opacity:0.90980392;fill:#fbfbfb"
     d="M 700 640 L 700 660 L 720 660 L 720 640 L 700 640 z "
     id="rect2508" />
  <path
     style="opacity:0.8745098;fill:#ebebeb"
     d="M 160 640 L 160 660 L 180 660 L 200 660 L 200 640 L 180 640 L 160 640 z M 720 640 L 720 660 L 740 660 L 740 640 L 720 640 z M 60 740 L 60 760 L 80 760 L 100 760 L 100 740 L 80 740 L 60 740 z M 820 740 L 820 760 L 840 760 L 840 740 L 820 740 z "
     id="rect2990" />
  <path
     style="opacity:0.8745098;fill:#e0e0e0"
     d="M 140 640 L 140 660 L 160 660 L 160 640 L 140 640 z M 740 640 L 740 660 L 760 660 L 780 660 L 780 640 L 760 640 L 740 640 z M 40 740 L 40 760 L 60 760 L 60 740 L 40 740 z M 840 740 L 840 760 L 860 760 L 880 760 L 880 740 L 860 740 L 840 740 z "
     id="rect2994" />
  <path
     style="fill:#cbcbcb"
     d="M 60 340 L 60 360 L 60 380 L 40 380 L 40 400 L 40 420 L 60 420 L 80 420 L 100 420 L 100 440 L 120 440 L 140 440 L 140 460 L 140 480 L 160 480 L 160 500 L 160 520 L 180 520 L 200 520 L 200 540 L 220 540 L 240 540 L 240 560 L 240 580 L 260 580 L 260 560 L 260 540 L 280 540 L 300 540 L 320 540 L 340 540 L 360 540 L 380 540 L 400 540 L 420 540 L 440 540 L 460 540 L 480 540 L 500 540 L 520 540 L 540 540 L 560 540 L 580 540 L 600 540 L 620 540 L 640 540 L 640 560 L 640 580 L 660 580 L 680 580 L 680 560 L 680 540 L 700 540 L 700 520 L 720 520 L 740 520 L 740 500 L 740 480 L 760 480 L 780 480 L 780 460 L 780 440 L 800 440 L 820 440 L 820 420 L 840 420 L 860 420 L 880 420 L 880 400 L 880 380 L 860 380 L 840 380 L 840 360 L 840 340 L 820 340 L 820 360 L 820 380 L 800 380 L 780 380 L 780 400 L 780 420 L 760 420 L 740 420 L 740 440 L 720 440 L 720 460 L 720 480 L 700 480 L 680 480 L 680 500 L 680 520 L 660 520 L 640 520 L 640 500 L 640 480 L 620 480 L 600 480 L 600 500 L 600 520 L 580 520 L 580 500 L 580 480 L 560 480 L 540 480 L 540 500 L 540 520 L 520 520 L 500 520 L 500 500 L 500 480 L 480 480 L 480 500 L 480 520 L 460 520 L 440 520 L 440 500 L 440 480 L 420 480 L 400 480 L 400 500 L 400 520 L 380 520 L 380 500 L 380 480 L 360 480 L 340 480 L 340 500 L 340 520 L 320 520 L 300 520 L 300 500 L 300 480 L 280 480 L 280 500 L 280 520 L 260 520 L 240 520 L 240 500 L 240 480 L 220 480 L 200 480 L 200 460 L 200 440 L 180 440 L 160 440 L 160 420 L 140 420 L 140 400 L 140 380 L 120 380 L 100 380 L 100 360 L 100 340 L 80 340 L 60 340 z M 140 380 L 160 380 L 160 360 L 160 340 L 140 340 L 140 360 L 140 380 z M 160 380 L 160 400 L 160 420 L 180 420 L 200 420 L 200 400 L 200 380 L 180 380 L 160 380 z M 200 380 L 220 380 L 240 380 L 240 360 L 240 340 L 220 340 L 200 340 L 200 360 L 200 380 z M 240 380 L 240 400 L 240 420 L 260 420 L 260 400 L 260 380 L 240 380 z M 240 420 L 220 420 L 200 420 L 200 440 L 220 440 L 240 440 L 240 420 z M 240 440 L 240 460 L 240 480 L 260 480 L 260 460 L 260 440 L 240 440 z M 300 480 L 320 480 L 340 480 L 340 460 L 340 440 L 320 440 L 300 440 L 300 460 L 300 480 z M 300 440 L 300 420 L 280 420 L 280 440 L 300 440 z M 300 420 L 320 420 L 340 420 L 340 400 L 340 380 L 320 380 L 300 380 L 300 400 L 300 420 z M 300 380 L 300 360 L 300 340 L 280 340 L 280 360 L 280 380 L 300 380 z M 340 380 L 360 380 L 380 380 L 380 360 L 380 340 L 360 340 L 340 340 L 340 360 L 340 380 z M 380 380 L 380 400 L 380 420 L 400 420 L 400 400 L 400 380 L 380 380 z M 400 380 L 420 380 L 440 380 L 440 360 L 440 340 L 420 340 L 400 340 L 400 360 L 400 380 z M 440 380 L 440 400 L 440 420 L 460 420 L 480 420 L 480 400 L 480 380 L 460 380 L 440 380 z M 480 380 L 500 380 L 500 360 L 500 340 L 480 340 L 480 360 L 480 380 z M 500 380 L 500 400 L 500 420 L 520 420 L 540 420 L 540 400 L 540 380 L 520 380 L 500 380 z M 540 380 L 560 380 L 580 380 L 580 360 L 580 340 L 560 340 L 540 340 L 540 360 L 540 380 z M 580 380 L 580 400 L 580 420 L 600 420 L 600 400 L 600 380 L 580 380 z M 600 380 L 620 380 L 640 380 L 640 360 L 640 340 L 620 340 L 600 340 L 600 360 L 600 380 z M 640 380 L 640 400 L 640 420 L 660 420 L 680 420 L 680 400 L 680 380 L 660 380 L 640 380 z M 680 380 L 700 380 L 700 360 L 700 340 L 680 340 L 680 360 L 680 380 z M 680 420 L 680 440 L 700 440 L 700 420 L 680 420 z M 680 440 L 660 440 L 640 440 L 640 460 L 640 480 L 660 480 L 680 480 L 680 460 L 680 440 z M 640 440 L 640 420 L 620 420 L 600 420 L 600 440 L 620 440 L 640 440 z M 600 440 L 580 440 L 580 460 L 580 480 L 600 480 L 600 460 L 600 440 z M 580 440 L 580 420 L 560 420 L 540 420 L 540 440 L 560 440 L 580 440 z M 540 440 L 520 440 L 500 440 L 500 460 L 500 480 L 520 480 L 540 480 L 540 460 L 540 440 z M 500 440 L 500 420 L 480 420 L 480 440 L 500 440 z M 480 440 L 460 440 L 440 440 L 440 460 L 440 480 L 460 480 L 480 480 L 480 460 L 480 440 z M 440 440 L 440 420 L 420 420 L 400 420 L 400 440 L 420 440 L 440 440 z M 400 440 L 380 440 L 380 460 L 380 480 L 400 480 L 400 460 L 400 440 z M 380 440 L 380 420 L 360 420 L 340 420 L 340 440 L 360 440 L 380 440 z M 740 420 L 740 400 L 740 380 L 720 380 L 720 400 L 720 420 L 740 420 z M 740 380 L 760 380 L 780 380 L 780 360 L 780 340 L 760 340 L 740 340 L 740 360 L 740 380 z M 680 580 L 680 600 L 680 620 L 700 620 L 700 600 L 700 580 L 680 580 z M 240 580 L 220 580 L 200 580 L 200 600 L 200 620 L 220 620 L 240 620 L 240 600 L 240 580 z M 200 620 L 180 620 L 160 620 L 160 640 L 180 640 L 200 640 L 200 620 z M 720 620 L 720 640 L 740 640 L 740 620 L 720 620 z M 140 660 L 140 680 L 160 680 L 160 660 L 140 660 z M 140 680 L 120 680 L 100 680 L 100 700 L 100 720 L 120 720 L 140 720 L 140 700 L 140 680 z M 100 720 L 80 720 L 60 720 L 60 740 L 80 740 L 100 740 L 100 720 z M 740 660 L 740 680 L 760 680 L 780 680 L 780 660 L 760 660 L 740 660 z M 780 680 L 780 700 L 780 720 L 800 720 L 820 720 L 820 700 L 820 680 L 800 680 L 780 680 z M 820 720 L 820 740 L 840 740 L 840 720 L 820 720 z M 40 760 L 40 780 L 60 780 L 60 760 L 40 760 z M 840 760 L 840 780 L 860 780 L 880 780 L 880 760 L 860 760 L 840 760 z "
     id="rect3088" />
  <path
     style="fill:#ffffff"
     d="M 300 40 L 300 60 L 300 80 L 280 80 L 280 100 L 260 100 L 240 100 L 240 120 L 240 140 L 220 140 L 200 140 L 200 160 L 200 180 L 180 180 L 160 180 L 160 200 L 160 220 L 140 220 L 140 240 L 120 240 L 100 240 L 100 260 L 100 280 L 80 280 L 60 280 L 60 300 L 60 320 L 40 320 L 40 340 L 40 360 L 40 380 L 60 380 L 60 360 L 60 340 L 80 340 L 100 340 L 100 360 L 100 380 L 120 380 L 140 380 L 140 360 L 140 340 L 160 340 L 160 360 L 160 380 L 180 380 L 200 380 L 200 360 L 200 340 L 220 340 L 240 340 L 240 360 L 240 380 L 260 380 L 260 360 L 260 340 L 280 340 L 300 340 L 300 360 L 300 380 L 320 380 L 340 380 L 340 360 L 340 340 L 360 340 L 380 340 L 380 360 L 380 380 L 400 380 L 400 360 L 400 340 L 420 340 L 440 340 L 440 360 L 440 380 L 460 380 L 480 380 L 480 360 L 480 340 L 500 340 L 500 360 L 500 380 L 520 380 L 540 380 L 540 360 L 540 340 L 560 340 L 580 340 L 580 360 L 580 380 L 600 380 L 600 360 L 600 340 L 620 340 L 640 340 L 640 360 L 640 380 L 660 380 L 680 380 L 680 360 L 680 340 L 700 340 L 720 340 L 720 360 L 720 380 L 740 380 L 740 360 L 740 340 L 760 340 L 780 340 L 780 360 L 780 380 L 800 380 L 820 380 L 820 360 L 820 340 L 840 340 L 840 360 L 840 380 L 860 380 L 880 380 L 880 360 L 880 340 L 880 320 L 860 320 L 840 320 L 840 300 L 840 280 L 820 280 L 820 260 L 820 240 L 800 240 L 780 240 L 780 220 L 760 220 L 740 220 L 740 200 L 740 180 L 720 180 L 700 180 L 700 160 L 700 140 L 680 140 L 680 120 L 680 100 L 660 100 L 640 100 L 640 80 L 620 80 L 600 80 L 600 60 L 600 40 L 580 40 L 560 40 L 540 40 L 520 40 L 500 40 L 480 40 L 460 40 L 440 40 L 420 40 L 400 40 L 380 40 L 360 40 L 340 40 L 320 40 L 300 40 z M 780 380 L 760 380 L 740 380 L 740 400 L 740 420 L 760 420 L 780 420 L 780 400 L 780 380 z M 740 420 L 720 420 L 720 440 L 740 440 L 740 420 z M 680 380 L 680 400 L 680 420 L 700 420 L 700 400 L 700 380 L 680 380 z M 680 420 L 660 420 L 640 420 L 640 440 L 660 440 L 680 440 L 680 420 z M 680 440 L 680 460 L 680 480 L 700 480 L 700 460 L 700 440 L 680 440 z M 680 480 L 660 480 L 640 480 L 640 500 L 640 520 L 660 520 L 680 520 L 680 500 L 680 480 z M 640 480 L 640 460 L 640 440 L 620 440 L 600 440 L 600 460 L 600 480 L 620 480 L 640 480 z M 600 480 L 580 480 L 580 500 L 580 520 L 600 520 L 600 500 L 600 480 z M 580 480 L 580 460 L 580 440 L 560 440 L 540 440 L 540 460 L 540 480 L 560 480 L 580 480 z M 540 480 L 520 480 L 500 480 L 500 500 L 500 520 L 520 520 L 540 520 L 540 500 L 540 480 z M 500 480 L 500 460 L 500 440 L 480 440 L 480 460 L 480 480 L 500 480 z M 480 480 L 460 480 L 440 480 L 440 500 L 440 520 L 460 520 L 480 520 L 480 500 L 480 480 z M 440 480 L 440 460 L 440 440 L 420 440 L 400 440 L 400 460 L 400 480 L 420 480 L 440 480 z M 400 480 L 380 480 L 380 500 L 380 520 L 400 520 L 400 500 L 400 480 z M 380 480 L 380 460 L 380 440 L 360 440 L 340 440 L 340 460 L 340 480 L 360 480 L 380 480 z M 340 480 L 320 480 L 300 480 L 300 500 L 300 520 L 320 520 L 340 520 L 340 500 L 340 480 z M 300 480 L 300 460 L 300 440 L 280 440 L 280 460 L 280 480 L 300 480 z M 300 440 L 320 440 L 340 440 L 340 420 L 320 420 L 300 420 L 300 440 z M 300 420 L 300 400 L 300 380 L 280 380 L 280 400 L 280 420 L 300 420 z M 340 420 L 360 420 L 380 420 L 380 400 L 380 380 L 360 380 L 340 380 L 340 400 L 340 420 z M 380 420 L 380 440 L 400 440 L 400 420 L 380 420 z M 400 420 L 420 420 L 440 420 L 440 400 L 440 380 L 420 380 L 400 380 L 400 400 L 400 420 z M 440 420 L 440 440 L 460 440 L 480 440 L 480 420 L 460 420 L 440 420 z M 480 420 L 500 420 L 500 400 L 500 380 L 480 380 L 480 400 L 480 420 z M 500 420 L 500 440 L 520 440 L 540 440 L 540 420 L 520 420 L 500 420 z M 540 420 L 560 420 L 580 420 L 580 400 L 580 380 L 560 380 L 540 380 L 540 400 L 540 420 z M 580 420 L 580 440 L 600 440 L 600 420 L 580 420 z M 600 420 L 620 420 L 640 420 L 640 400 L 640 380 L 620 380 L 600 380 L 600 400 L 600 420 z M 240 380 L 220 380 L 200 380 L 200 400 L 200 420 L 220 420 L 240 420 L 240 400 L 240 380 z M 240 420 L 240 440 L 260 440 L 260 420 L 240 420 z M 240 440 L 220 440 L 200 440 L 200 460 L 200 480 L 220 480 L 240 480 L 240 460 L 240 440 z M 240 480 L 240 500 L 240 520 L 260 520 L 260 500 L 260 480 L 240 480 z M 200 440 L 200 420 L 180 420 L 160 420 L 160 440 L 180 440 L 200 440 z M 160 420 L 160 400 L 160 380 L 140 380 L 140 400 L 140 420 L 160 420 z M 40 420 L 40 440 L 40 460 L 40 480 L 40 500 L 40 520 L 40 540 L 40 560 L 40 580 L 40 600 L 40 620 L 40 640 L 40 660 L 40 680 L 40 700 L 40 720 L 40 740 L 60 740 L 60 720 L 80 720 L 100 720 L 100 700 L 100 680 L 120 680 L 140 680 L 140 660 L 140 640 L 160 640 L 160 620 L 180 620 L 200 620 L 200 600 L 200 580 L 220 580 L 240 580 L 240 560 L 240 540 L 220 540 L 200 540 L 200 520 L 180 520 L 160 520 L 160 500 L 160 480 L 140 480 L 140 460 L 140 440 L 120 440 L 100 440 L 100 420 L 80 420 L 60 420 L 40 420 z M 240 580 L 240 600 L 240 620 L 220 620 L 200 620 L 200 640 L 200 660 L 180 660 L 160 660 L 160 680 L 140 680 L 140 700 L 140 720 L 120 720 L 100 720 L 100 740 L 100 760 L 80 760 L 60 760 L 60 780 L 40 780 L 40 800 L 40 820 L 60 820 L 80 820 L 100 820 L 120 820 L 140 820 L 160 820 L 180 820 L 200 820 L 220 820 L 240 820 L 260 820 L 280 820 L 300 820 L 320 820 L 340 820 L 360 820 L 380 820 L 400 820 L 420 820 L 440 820 L 460 820 L 480 820 L 500 820 L 520 820 L 540 820 L 560 820 L 580 820 L 600 820 L 620 820 L 640 820 L 660 820 L 680 820 L 700 820 L 720 820 L 740 820 L 760 820 L 780 820 L 800 820 L 820 820 L 840 820 L 860 820 L 880 820 L 880 800 L 880 780 L 860 780 L 840 780 L 840 760 L 820 760 L 820 740 L 820 720 L 800 720 L 780 720 L 780 700 L 780 680 L 760 680 L 740 680 L 740 660 L 720 660 L 700 660 L 700 640 L 700 620 L 680 620 L 680 600 L 680 580 L 660 580 L 640 580 L 640 560 L 640 540 L 620 540 L 600 540 L 580 540 L 560 540 L 540 540 L 520 540 L 500 540 L 480 540 L 460 540 L 440 540 L 420 540 L 400 540 L 380 540 L 360 540 L 340 540 L 320 540 L 300 540 L 280 540 L 280 560 L 280 580 L 260 580 L 240 580 z M 680 580 L 700 580 L 720 580 L 720 600 L 720 620 L 740 620 L 740 640 L 760 640 L 780 640 L 780 660 L 780 680 L 800 680 L 820 680 L 820 700 L 820 720 L 840 720 L 840 740 L 860 740 L 880 740 L 880 720 L 880 700 L 880 680 L 880 660 L 880 640 L 880 620 L 880 600 L 880 580 L 880 560 L 880 540 L 880 520 L 880 500 L 880 480 L 880 460 L 880 440 L 880 420 L 860 420 L 840 420 L 820 420 L 820 440 L 800 440 L 780 440 L 780 460 L 780 480 L 760 480 L 740 480 L 740 500 L 740 520 L 720 520 L 720 540 L 700 540 L 680 540 L 680 560 L 680 580 z "
     id="rect3276" />
  <path
     style="fill:#929292"
     d="M 300 0 L 300 20 L 300 40 L 320 40 L 340 40 L 360 40 L 380 40 L 400 40 L 420 40 L 440 40 L 460 40 L 480 40 L 500 40 L 520 40 L 540 40 L 560 40 L 580 40 L 600 40 L 600 20 L 600 0 L 580 0 L 560 0 L 540 0 L 520 0 L 500 0 L 480 0 L 460 0 L 440 0 L 420 0 L 400 0 L 380 0 L 360 0 L 340 0 L 320 0 L 300 0 z M 300 40 L 280 40 L 260 40 L 260 60 L 260 80 L 280 80 L 300 80 L 300 60 L 300 40 z M 260 80 L 240 80 L 240 100 L 260 100 L 260 80 z M 240 100 L 220 100 L 200 100 L 200 120 L 200 140 L 220 140 L 240 140 L 240 120 L 240 100 z M 200 140 L 180 140 L 160 140 L 160 160 L 160 180 L 180 180 L 200 180 L 200 160 L 200 140 z M 160 180 L 140 180 L 140 200 L 160 200 L 160 180 z M 140 200 L 120 200 L 100 200 L 100 220 L 100 240 L 120 240 L 140 240 L 140 220 L 140 200 z M 100 240 L 80 240 L 60 240 L 60 260 L 60 280 L 80 280 L 100 280 L 100 260 L 100 240 z M 60 280 L 40 280 L 40 300 L 40 320 L 60 320 L 60 300 L 60 280 z M 40 320 L 20 320 L 0 320 L 0 340 L 0 360 L 0 380 L 0 400 L 0 420 L 0 440 L 0 460 L 0 480 L 0 500 L 0 520 L 0 540 L 0 560 L 0 580 L 0 600 L 0 620 L 0 640 L 0 660 L 0 680 L 0 700 L 0 720 L 0 740 L 0 760 L 0 780 L 0 800 L 0 820 L 0 840 L 0 860 L 20 860 L 40 860 L 60 860 L 80 860 L 100 860 L 120 860 L 140 860 L 160 860 L 180 860 L 200 860 L 220 860 L 240 860 L 260 860 L 280 860 L 300 860 L 320 860 L 340 860 L 360 860 L 380 860 L 400 860 L 420 860 L 440 860 L 460 860 L 480 860 L 500 860 L 520 860 L 540 860 L 560 860 L 580 860 L 600 860 L 620 860 L 640 860 L 660 860 L 680 860 L 700 860 L 720 860 L 740 860 L 760 860 L 780 860 L 800 860 L 820 860 L 840 860 L 860 860 L 880 860 L 900 860 L 920 860 L 920 840 L 920 820 L 920 800 L 920 780 L 920 760 L 920 740 L 920 720 L 920 700 L 920 680 L 920 660 L 920 640 L 920 620 L 920 600 L 920 580 L 920 560 L 920 540 L 920 520 L 920 500 L 920 480 L 920 460 L 920 440 L 920 420 L 920 400 L 920 380 L 920 360 L 920 340 L 900 340 L 880 340 L 880 360 L 880 380 L 880 400 L 880 420 L 880 440 L 880 460 L 880 480 L 880 500 L 880 520 L 880 540 L 880 560 L 880 580 L 880 600 L 880 620 L 880 640 L 880 660 L 880 680 L 880 700 L 880 720 L 880 740 L 880 760 L 880 780 L 880 800 L 880 820 L 860 820 L 840 820 L 820 820 L 800 820 L 780 820 L 760 820 L 740 820 L 720 820 L 700 820 L 680 820 L 660 820 L 640 820 L 620 820 L 600 820 L 580 820 L 560 820 L 540 820 L 520 820 L 500 820 L 480 820 L 460 820 L 440 820 L 420 820 L 400 820 L 380 820 L 360 820 L 340 820 L 320 820 L 300 820 L 280 820 L 260 820 L 240 820 L 220 820 L 200 820 L 180 820 L 160 820 L 140 820 L 120 820 L 100 820 L 80 820 L 60 820 L 40 820 L 40 800 L 40 780 L 40 760 L 40 740 L 40 720 L 40 700 L 40 680 L 40 660 L 40 640 L 40 620 L 40 600 L 40 580 L 40 560 L 40 540 L 40 520 L 40 500 L 40 480 L 40 460 L 40 440 L 40 420 L 40 400 L 40 380 L 40 360 L 40 340 L 40 320 z "
     id="rect3468" />
  <path
     style="fill:#000000"
     d="M 600 40 L 600 60 L 600 80 L 620 80 L 640 80 L 640 60 L 640 40 L 620 40 L 600 40 z M 640 80 L 640 100 L 660 100 L 680 100 L 680 80 L 660 80 L 640 80 z M 680 100 L 680 120 L 680 140 L 700 140 L 720 140 L 720 120 L 720 100 L 700 100 L 680 100 z M 720 140 L 720 160 L 720 180 L 740 180 L 740 160 L 740 140 L 720 140 z M 740 180 L 740 200 L 760 200 L 780 200 L 780 180 L 760 180 L 740 180 z M 780 200 L 780 220 L 780 240 L 800 240 L 820 240 L 820 220 L 820 200 L 800 200 L 780 200 z M 820 240 L 820 260 L 820 280 L 840 280 L 840 260 L 840 240 L 820 240 z M 840 280 L 840 300 L 840 320 L 860 320 L 880 320 L 880 300 L 880 280 L 860 280 L 840 280 z M 880 320 L 880 340 L 900 340 L 920 340 L 920 320 L 900 320 L 880 320 z M 920 340 L 920 360 L 920 380 L 920 400 L 920 420 L 920 440 L 920 460 L 920 480 L 920 500 L 920 520 L 920 540 L 920 560 L 920 580 L 920 600 L 920 620 L 920 640 L 920 660 L 920 680 L 920 700 L 920 720 L 920 740 L 920 760 L 920 780 L 920 800 L 920 820 L 920 840 L 920 860 L 900 860 L 880 860 L 860 860 L 840 860 L 820 860 L 800 860 L 780 860 L 760 860 L 740 860 L 720 860 L 700 860 L 680 860 L 660 860 L 640 860 L 620 860 L 600 860 L 580 860 L 560 860 L 540 860 L 520 860 L 500 860 L 480 860 L 460 860 L 440 860 L 420 860 L 400 860 L 380 860 L 360 860 L 340 860 L 320 860 L 300 860 L 280 860 L 260 860 L 240 860 L 220 860 L 200 860 L 180 860 L 160 860 L 140 860 L 120 860 L 100 860 L 80 860 L 60 860 L 40 860 L 20 860 L 0 860 L 0 880 L 20 880 L 40 880 L 60 880 L 80 880 L 100 880 L 120 880 L 140 880 L 160 880 L 180 880 L 200 880 L 220 880 L 240 880 L 260 880 L 280 880 L 300 880 L 320 880 L 340 880 L 360 880 L 380 880 L 400 880 L 420 880 L 440 880 L 460 880 L 480 880 L 500 880 L 520 880 L 540 880 L 560 880 L 580 880 L 600 880 L 620 880 L 640 880 L 660 880 L 680 880 L 700 880 L 720 880 L 740 880 L 760 880 L 780 880 L 800 880 L 820 880 L 840 880 L 860 880 L 880 880 L 900 880 L 920 880 L 940 880 L 940 860 L 940 840 L 940 820 L 940 800 L 940 780 L 940 760 L 940 740 L 940 720 L 940 700 L 940 680 L 940 660 L 940 640 L 940 620 L 940 600 L 940 580 L 940 560 L 940 540 L 940 520 L 940 500 L 940 480 L 940 460 L 940 440 L 940 420 L 940 400 L 940 380 L 940 360 L 940 340 L 920 340 z "
     id="rect3564" />
</svg>
