<?xml version="1.0" encoding="UTF-8" standalone="no"?>
<svg
   xmlns:dc="http://purl.org/dc/elements/1.1/"
   xmlns:cc="http://creativecommons.org/ns#"
   xmlns:rdf="http://www.w3.org/1999/02/22-rdf-syntax-ns#"
   xmlns:svg="http://www.w3.org/2000/svg"
   xmlns="http://www.w3.org/2000/svg"
   id="svg1108"
   width="640px"
   version="1.1"
   height="640px">
  <metadata
     id="metadata1112">
    <rdf:RDF>
      <cc:Work
         rdf:about="">
        <dc:format>image/svg+xml</dc:format>
        <dc:type
           rdf:resource="http://purl.org/dc/dcmitype/StillImage" />
      </cc:Work>
    </rdf:RDF>
  </metadata>
  <defs
     id="defs2" />
  <path
     style="fill:#9b9b9b"
     d="M 320 240 L 320 260 L 320 280 L 300 280 L 300 300 L 280 300 L 280 320 L 260 320 L 240 320 L 240 340 L 260 340 L 260 360 L 280 360 L 280 380 L 280 400 L 260 400 L 260 420 L 260 440 L 280 440 L 280 420 L 300 420 L 300 400 L 320 400 L 340 400 L 340 420 L 360 420 L 360 440 L 380 440 L 380 460 L 400 460 L 400 440 L 400 420 L 380 420 L 380 400 L 380 380 L 360 380 L 360 360 L 380 360 L 380 340 L 400 340 L 400 320 L 420 320 L 420 300 L 400 300 L 380 300 L 360 300 L 360 280 L 340 280 L 340 260 L 340 240 L 320 240 z M 400 460 L 400 480 L 420 480 L 420 460 L 400 460 z M 260 440 L 240 440 L 240 460 L 260 460 L 260 440 z "
     id="rect842" />
  <path
     style="fill:#808000"
     d="M 320 160 L 320 180 L 320 200 L 340 200 L 340 180 L 340 160 L 320 160 z M 340 200 L 340 220 L 340 240 L 360 240 L 360 220 L 360 200 L 340 200 z M 360 240 L 360 260 L 360 280 L 380 280 L 380 260 L 380 240 L 360 240 z M 320 200 L 300 200 L 300 220 L 300 240 L 320 240 L 320 220 L 320 200 z M 300 240 L 280 240 L 280 260 L 280 280 L 300 280 L 300 260 L 300 240 z M 280 280 L 260 280 L 240 280 L 220 280 L 200 280 L 180 280 L 160 280 L 160 300 L 180 300 L 180 320 L 200 320 L 200 300 L 220 300 L 240 300 L 260 300 L 280 300 L 280 280 z M 200 320 L 200 340 L 220 340 L 220 320 L 200 320 z M 220 340 L 220 360 L 240 360 L 240 340 L 220 340 z M 240 360 L 240 380 L 240 400 L 260 400 L 260 380 L 260 360 L 240 360 z M 240 400 L 220 400 L 220 420 L 220 440 L 240 440 L 240 420 L 240 400 z M 220 440 L 200 440 L 200 460 L 200 480 L 200 500 L 220 500 L 220 480 L 220 460 L 220 440 z M 300 400 L 300 420 L 320 420 L 340 420 L 340 400 L 320 400 L 300 400 z M 380 400 L 380 420 L 400 420 L 400 400 L 380 400 z M 400 440 L 400 460 L 420 460 L 420 440 L 400 440 z "
     id="rect864" />
  <path
     style="fill:#ffffff"
     d="M 140 80 L 140 100 L 140 120 L 140 140 L 140 160 L 140 180 L 140 200 L 140 220 L 140 240 L 140 260 L 140 280 L 140 300 L 140 320 L 140 340 L 140 360 L 140 380 L 140 400 L 140 420 L 140 440 L 140 460 L 140 480 L 140 500 L 140 520 L 140 540 L 140 560 L 160 560 L 180 560 L 200 560 L 220 560 L 240 560 L 260 560 L 280 560 L 300 560 L 320 560 L 340 560 L 360 560 L 380 560 L 400 560 L 420 560 L 440 560 L 460 560 L 480 560 L 500 560 L 500 540 L 500 520 L 500 500 L 500 480 L 500 460 L 500 440 L 500 420 L 500 400 L 500 380 L 500 360 L 500 340 L 500 320 L 500 300 L 500 280 L 500 260 L 500 240 L 500 220 L 500 200 L 500 180 L 480 180 L 460 180 L 440 180 L 420 180 L 420 160 L 420 140 L 420 120 L 420 100 L 420 80 L 400 80 L 380 80 L 360 80 L 340 80 L 320 80 L 300 80 L 280 80 L 260 80 L 240 80 L 220 80 L 200 80 L 180 80 L 160 80 L 140 80 z M 440 140 L 440 160 L 460 160 L 460 140 L 440 140 z M 320 160 L 340 160 L 340 180 L 340 200 L 360 200 L 360 220 L 360 240 L 380 240 L 380 260 L 380 280 L 400 280 L 420 280 L 440 280 L 460 280 L 480 280 L 480 300 L 460 300 L 460 320 L 440 320 L 440 340 L 420 340 L 420 360 L 400 360 L 400 380 L 400 400 L 420 400 L 420 420 L 420 440 L 440 440 L 440 460 L 440 480 L 440 500 L 420 500 L 400 500 L 400 480 L 380 480 L 380 460 L 360 460 L 360 440 L 340 440 L 340 420 L 320 420 L 300 420 L 300 440 L 280 440 L 280 460 L 260 460 L 260 480 L 240 480 L 240 500 L 220 500 L 200 500 L 200 480 L 200 460 L 200 440 L 220 440 L 220 420 L 220 400 L 240 400 L 240 380 L 240 360 L 220 360 L 220 340 L 200 340 L 200 320 L 180 320 L 180 300 L 160 300 L 160 280 L 180 280 L 200 280 L 220 280 L 240 280 L 260 280 L 280 280 L 280 260 L 280 240 L 300 240 L 300 220 L 300 200 L 320 200 L 320 180 L 320 160 z M 320 200 L 320 220 L 320 240 L 340 240 L 340 220 L 340 200 L 320 200 z M 320 240 L 300 240 L 300 260 L 300 280 L 320 280 L 320 260 L 320 240 z M 300 280 L 280 280 L 280 300 L 300 300 L 300 280 z M 280 300 L 260 300 L 240 300 L 220 300 L 200 300 L 200 320 L 220 320 L 220 340 L 240 340 L 240 320 L 260 320 L 280 320 L 280 300 z M 240 340 L 240 360 L 260 360 L 260 340 L 240 340 z M 260 360 L 260 380 L 260 400 L 280 400 L 280 380 L 280 360 L 260 360 z M 260 400 L 240 400 L 240 420 L 240 440 L 260 440 L 260 420 L 260 400 z M 240 440 L 220 440 L 220 460 L 220 480 L 240 480 L 240 460 L 240 440 z "
     id="rect1018" />
  <path
     style="fill:#808080"
     d="M 120 60 L 120 80 L 120 100 L 120 120 L 120 140 L 120 160 L 120 180 L 120 200 L 120 220 L 120 240 L 120 260 L 120 280 L 120 300 L 120 320 L 120 340 L 120 360 L 120 380 L 120 400 L 120 420 L 120 440 L 120 460 L 120 480 L 120 500 L 120 520 L 120 540 L 120 560 L 120 580 L 140 580 L 140 560 L 140 540 L 140 520 L 140 500 L 140 480 L 140 460 L 140 440 L 140 420 L 140 400 L 140 380 L 140 360 L 140 340 L 140 320 L 140 300 L 140 280 L 140 260 L 140 240 L 140 220 L 140 200 L 140 180 L 140 160 L 140 140 L 140 120 L 140 100 L 140 80 L 160 80 L 180 80 L 200 80 L 220 80 L 240 80 L 260 80 L 280 80 L 300 80 L 320 80 L 340 80 L 360 80 L 380 80 L 400 80 L 420 80 L 420 100 L 420 120 L 420 140 L 420 160 L 420 180 L 440 180 L 440 160 L 440 140 L 440 120 L 460 120 L 460 100 L 440 100 L 440 80 L 440 60 L 420 60 L 400 60 L 380 60 L 360 60 L 340 60 L 320 60 L 300 60 L 280 60 L 260 60 L 240 60 L 220 60 L 200 60 L 180 60 L 160 60 L 140 60 L 120 60 z M 460 120 L 460 140 L 480 140 L 480 120 L 460 120 z M 480 140 L 480 160 L 500 160 L 500 140 L 480 140 z "
     id="rect1024" />
  <path
     style="fill:#c0c0c0"
     d="M 440 120 L 440 140 L 460 140 L 460 120 L 440 120 z M 460 140 L 460 160 L 480 160 L 480 140 L 460 140 z M 500 180 L 500 200 L 500 220 L 500 240 L 500 260 L 500 280 L 500 300 L 500 320 L 500 340 L 500 360 L 500 380 L 500 400 L 500 420 L 500 440 L 500 460 L 500 480 L 500 500 L 500 520 L 500 540 L 500 560 L 480 560 L 460 560 L 440 560 L 420 560 L 400 560 L 380 560 L 360 560 L 340 560 L 320 560 L 300 560 L 280 560 L 260 560 L 240 560 L 220 560 L 200 560 L 180 560 L 160 560 L 140 560 L 140 580 L 160 580 L 180 580 L 200 580 L 220 580 L 240 580 L 260 580 L 280 580 L 300 580 L 320 580 L 340 580 L 360 580 L 380 580 L 400 580 L 420 580 L 440 580 L 460 580 L 480 580 L 500 580 L 520 580 L 520 560 L 520 540 L 520 520 L 520 500 L 520 480 L 520 460 L 520 440 L 520 420 L 520 400 L 520 380 L 520 360 L 520 340 L 520 320 L 520 300 L 520 280 L 520 260 L 520 240 L 520 220 L 520 200 L 520 180 L 500 180 z M 340 240 L 340 260 L 340 280 L 360 280 L 360 260 L 360 240 L 340 240 z M 360 280 L 360 300 L 380 300 L 380 280 L 360 280 z M 420 300 L 420 320 L 440 320 L 440 300 L 420 300 z M 420 320 L 400 320 L 400 340 L 420 340 L 420 320 z M 400 340 L 380 340 L 380 360 L 400 360 L 400 340 z M 380 360 L 360 360 L 360 380 L 380 380 L 380 360 z "
     id="rect1062" />
  <path
     style="fill:#000000"
     d="M 440 80 L 440 100 L 460 100 L 460 80 L 440 80 z M 460 100 L 460 120 L 480 120 L 480 100 L 460 100 z M 480 120 L 480 140 L 500 140 L 500 120 L 480 120 z M 500 140 L 500 160 L 480 160 L 460 160 L 440 160 L 440 180 L 460 180 L 480 180 L 500 180 L 520 180 L 520 200 L 520 220 L 520 240 L 520 260 L 520 280 L 520 300 L 520 320 L 520 340 L 520 360 L 520 380 L 520 400 L 520 420 L 520 440 L 520 460 L 520 480 L 520 500 L 520 520 L 520 540 L 520 560 L 520 580 L 500 580 L 480 580 L 460 580 L 440 580 L 420 580 L 400 580 L 380 580 L 360 580 L 340 580 L 320 580 L 300 580 L 280 580 L 260 580 L 240 580 L 220 580 L 200 580 L 180 580 L 160 580 L 140 580 L 120 580 L 120 600 L 140 600 L 160 600 L 180 600 L 200 600 L 220 600 L 240 600 L 260 600 L 280 600 L 300 600 L 320 600 L 340 600 L 360 600 L 380 600 L 400 600 L 420 600 L 440 600 L 460 600 L 480 600 L 500 600 L 520 600 L 540 600 L 540 580 L 540 560 L 540 540 L 540 520 L 540 500 L 540 480 L 540 460 L 540 440 L 540 420 L 540 400 L 540 380 L 540 360 L 540 340 L 540 320 L 540 300 L 540 280 L 540 260 L 540 240 L 540 220 L 540 200 L 540 180 L 540 160 L 520 160 L 520 140 L 500 140 z M 380 280 L 380 300 L 400 300 L 420 300 L 440 300 L 440 320 L 460 320 L 460 300 L 480 300 L 480 280 L 460 280 L 440 280 L 420 280 L 400 280 L 380 280 z M 440 320 L 420 320 L 420 340 L 440 340 L 440 320 z M 420 340 L 400 340 L 400 360 L 420 360 L 420 340 z M 400 360 L 380 360 L 380 380 L 380 400 L 400 400 L 400 380 L 400 360 z M 400 400 L 400 420 L 400 440 L 420 440 L 420 420 L 420 400 L 400 400 z M 420 440 L 420 460 L 420 480 L 400 480 L 400 500 L 420 500 L 440 500 L 440 480 L 440 460 L 440 440 L 420 440 z M 400 480 L 400 460 L 380 460 L 380 480 L 400 480 z M 380 460 L 380 440 L 360 440 L 360 460 L 380 460 z M 360 440 L 360 420 L 340 420 L 340 440 L 360 440 z M 280 420 L 280 440 L 300 440 L 300 420 L 280 420 z M 280 440 L 260 440 L 260 460 L 280 460 L 280 440 z M 260 460 L 240 460 L 240 480 L 260 480 L 260 460 z M 240 480 L 220 480 L 220 500 L 240 500 L 240 480 z "
     id="rect1106" />
</svg>
