<?xml version="1.0" encoding="UTF-8" standalone="no"?>
<svg
   xmlns:dc="http://purl.org/dc/elements/1.1/"
   xmlns:cc="http://creativecommons.org/ns#"
   xmlns:rdf="http://www.w3.org/1999/02/22-rdf-syntax-ns#"
   xmlns:svg="http://www.w3.org/2000/svg"
   xmlns="http://www.w3.org/2000/svg"
   id="svg1144"
   width="640px"
   version="1.1"
   height="640px">
  <metadata
     id="metadata1148">
    <rdf:RDF>
      <cc:Work
         rdf:about="">
        <dc:format>image/svg+xml</dc:format>
        <dc:type
           rdf:resource="http://purl.org/dc/dcmitype/StillImage" />
      </cc:Work>
    </rdf:RDF>
  </metadata>
  <defs
     id="defs2" />
  <path
     style="fill:#00bfbf"
     d="M 300 60 L 300 80 L 280 80 L 280 100 L 280 120 L 280 140 L 300 140 L 320 140 L 340 140 L 360 140 L 360 120 L 360 100 L 360 80 L 360 60 L 340 60 L 320 60 L 300 60 z "
     id="rect158" />
  <path
     style="fill:#00ffff"
     d="M 280 60 L 280 80 L 300 80 L 300 60 L 280 60 z M 100 400 L 100 420 L 120 420 L 120 400 L 100 400 z M 440 400 L 440 420 L 460 420 L 460 400 L 440 400 z "
     id="rect564" />
  <path
     style="fill:#0000ff"
     d="M 120 400 L 120 420 L 100 420 L 100 440 L 100 460 L 120 460 L 140 460 L 160 460 L 180 460 L 180 440 L 180 420 L 180 400 L 160 400 L 140 400 L 120 400 z M 460 400 L 460 420 L 440 420 L 440 440 L 440 460 L 460 460 L 480 460 L 500 460 L 520 460 L 520 440 L 520 420 L 520 400 L 500 400 L 480 400 L 460 400 z "
     id="rect666" />
  <path
     style="fill:#0000bf"
     d="M 180 400 L 180 420 L 180 440 L 180 460 L 160 460 L 140 460 L 120 460 L 100 460 L 100 480 L 120 480 L 140 480 L 160 480 L 180 480 L 200 480 L 200 460 L 200 440 L 200 420 L 200 400 L 180 400 z M 520 400 L 520 420 L 520 440 L 520 460 L 500 460 L 480 460 L 460 460 L 440 460 L 440 480 L 460 480 L 480 480 L 500 480 L 520 480 L 540 480 L 540 460 L 540 440 L 540 420 L 540 400 L 520 400 z "
     id="rect716" />
  <path
     style="fill:#ffffff"
     d="M 220 20 L 220 40 L 220 60 L 220 80 L 220 100 L 220 120 L 220 140 L 220 160 L 240 160 L 240 140 L 240 120 L 240 100 L 240 80 L 240 60 L 240 40 L 240 20 L 220 20 z M 200 200 L 200 220 L 200 240 L 200 260 L 220 260 L 220 240 L 220 220 L 240 220 L 260 220 L 280 220 L 300 220 L 320 220 L 340 220 L 360 220 L 380 220 L 400 220 L 420 220 L 420 200 L 400 200 L 380 200 L 360 200 L 340 200 L 320 200 L 300 200 L 280 200 L 260 200 L 240 200 L 220 200 L 200 200 z M 40 360 L 40 380 L 40 400 L 40 420 L 40 440 L 40 460 L 40 480 L 40 500 L 60 500 L 60 480 L 60 460 L 60 440 L 60 420 L 60 400 L 60 380 L 60 360 L 40 360 z M 380 360 L 380 380 L 380 400 L 380 420 L 380 440 L 380 460 L 380 480 L 380 500 L 400 500 L 400 480 L 400 460 L 400 440 L 400 420 L 400 400 L 400 380 L 400 360 L 380 360 z M 20 540 L 20 560 L 20 580 L 20 600 L 40 600 L 40 580 L 40 560 L 60 560 L 80 560 L 100 560 L 120 560 L 140 560 L 160 560 L 180 560 L 200 560 L 220 560 L 240 560 L 240 540 L 220 540 L 200 540 L 180 540 L 160 540 L 140 540 L 120 540 L 100 540 L 80 540 L 60 540 L 40 540 L 20 540 z M 360 540 L 360 560 L 360 580 L 360 600 L 380 600 L 380 580 L 380 560 L 400 560 L 420 560 L 440 560 L 460 560 L 480 560 L 500 560 L 520 560 L 540 560 L 560 560 L 580 560 L 580 540 L 560 540 L 540 540 L 520 540 L 500 540 L 480 540 L 460 540 L 440 540 L 420 540 L 400 540 L 380 540 L 360 540 z "
     id="rect1014" />
  <path
     style="fill:#00ff00"
     d="M 240 240 L 240 260 L 260 260 L 280 260 L 280 240 L 260 240 L 240 240 z M 60 580 L 60 600 L 80 600 L 100 600 L 100 580 L 80 580 L 60 580 z M 400 580 L 400 600 L 420 600 L 440 600 L 440 580 L 420 580 L 400 580 z "
     id="rect1020" />
  <path
     style="fill:#c0c0c0"
     d="M 240 20 L 240 40 L 260 40 L 280 40 L 300 40 L 320 40 L 340 40 L 360 40 L 380 40 L 380 60 L 380 80 L 380 100 L 380 120 L 380 140 L 360 140 L 340 140 L 320 140 L 300 140 L 280 140 L 260 140 L 240 140 L 240 160 L 260 160 L 280 160 L 300 160 L 320 160 L 340 160 L 360 160 L 380 160 L 400 160 L 400 140 L 400 120 L 400 100 L 400 80 L 400 60 L 400 40 L 400 20 L 380 20 L 360 20 L 340 20 L 320 20 L 300 20 L 280 20 L 260 20 L 240 20 z M 420 180 L 420 200 L 440 200 L 440 180 L 420 180 z M 220 220 L 220 240 L 220 260 L 240 260 L 240 240 L 260 240 L 280 240 L 280 260 L 300 260 L 320 260 L 320 240 L 320 220 L 300 220 L 280 220 L 260 220 L 240 220 L 220 220 z M 400 220 L 400 240 L 400 260 L 420 260 L 420 240 L 420 220 L 400 220 z M 60 360 L 60 380 L 80 380 L 100 380 L 120 380 L 140 380 L 160 380 L 180 380 L 200 380 L 200 400 L 200 420 L 200 440 L 200 460 L 200 480 L 180 480 L 160 480 L 140 480 L 120 480 L 100 480 L 80 480 L 60 480 L 60 500 L 80 500 L 100 500 L 120 500 L 140 500 L 160 500 L 180 500 L 200 500 L 220 500 L 220 480 L 220 460 L 220 440 L 220 420 L 220 400 L 220 380 L 220 360 L 200 360 L 180 360 L 160 360 L 140 360 L 120 360 L 100 360 L 80 360 L 60 360 z M 400 360 L 400 380 L 420 380 L 440 380 L 460 380 L 480 380 L 500 380 L 520 380 L 540 380 L 540 400 L 540 420 L 540 440 L 540 460 L 540 480 L 520 480 L 500 480 L 480 480 L 460 480 L 440 480 L 420 480 L 400 480 L 400 500 L 420 500 L 440 500 L 460 500 L 480 500 L 500 500 L 520 500 L 540 500 L 560 500 L 560 480 L 560 460 L 560 440 L 560 420 L 560 400 L 560 380 L 560 360 L 540 360 L 520 360 L 500 360 L 480 360 L 460 360 L 440 360 L 420 360 L 400 360 z M 240 520 L 240 540 L 260 540 L 260 520 L 240 520 z M 580 520 L 580 540 L 600 540 L 600 520 L 580 520 z M 40 560 L 40 580 L 40 600 L 60 600 L 60 580 L 80 580 L 100 580 L 100 600 L 120 600 L 140 600 L 140 580 L 140 560 L 120 560 L 100 560 L 80 560 L 60 560 L 40 560 z M 220 560 L 220 580 L 220 600 L 240 600 L 240 580 L 240 560 L 220 560 z M 380 560 L 380 580 L 380 600 L 400 600 L 400 580 L 420 580 L 440 580 L 440 600 L 460 600 L 480 600 L 480 580 L 480 560 L 460 560 L 440 560 L 420 560 L 400 560 L 380 560 z M 560 560 L 560 580 L 560 600 L 580 600 L 580 580 L 580 560 L 560 560 z "
     id="rect1034" />
  <path
     style="fill:#808080"
     d="M 220 0 L 220 20 L 240 20 L 260 20 L 280 20 L 300 20 L 320 20 L 340 20 L 360 20 L 380 20 L 400 20 L 400 40 L 400 60 L 400 80 L 400 100 L 400 120 L 400 140 L 400 160 L 380 160 L 360 160 L 340 160 L 320 160 L 300 160 L 280 160 L 260 160 L 240 160 L 220 160 L 220 140 L 220 120 L 220 100 L 220 80 L 220 60 L 220 40 L 220 20 L 200 20 L 200 40 L 200 60 L 200 80 L 200 100 L 200 120 L 200 140 L 200 160 L 200 180 L 200 200 L 220 200 L 220 180 L 240 180 L 260 180 L 280 180 L 300 180 L 320 180 L 340 180 L 360 180 L 380 180 L 400 180 L 420 180 L 420 160 L 420 140 L 420 120 L 420 100 L 420 80 L 420 60 L 420 40 L 420 20 L 420 0 L 400 0 L 380 0 L 360 0 L 340 0 L 320 0 L 300 0 L 280 0 L 260 0 L 240 0 L 220 0 z M 200 200 L 180 200 L 180 220 L 180 240 L 180 260 L 180 280 L 200 280 L 220 280 L 240 280 L 260 280 L 280 280 L 300 280 L 320 280 L 340 280 L 360 280 L 380 280 L 400 280 L 420 280 L 440 280 L 440 260 L 440 240 L 440 220 L 440 200 L 420 200 L 420 220 L 420 240 L 420 260 L 400 260 L 380 260 L 360 260 L 340 260 L 320 260 L 300 260 L 280 260 L 260 260 L 240 260 L 220 260 L 200 260 L 200 240 L 200 220 L 200 200 z M 240 40 L 240 60 L 240 80 L 240 100 L 240 120 L 240 140 L 260 140 L 260 120 L 260 100 L 260 80 L 260 60 L 260 40 L 240 40 z M 360 40 L 360 60 L 360 80 L 360 100 L 360 120 L 360 140 L 380 140 L 380 120 L 380 100 L 380 80 L 380 60 L 380 40 L 360 40 z M 320 220 L 320 240 L 340 240 L 360 240 L 380 240 L 400 240 L 400 220 L 380 220 L 360 220 L 340 220 L 320 220 z M 40 340 L 40 360 L 60 360 L 80 360 L 100 360 L 120 360 L 140 360 L 160 360 L 180 360 L 200 360 L 220 360 L 220 380 L 220 400 L 220 420 L 220 440 L 220 460 L 220 480 L 220 500 L 200 500 L 180 500 L 160 500 L 140 500 L 120 500 L 100 500 L 80 500 L 60 500 L 40 500 L 40 480 L 40 460 L 40 440 L 40 420 L 40 400 L 40 380 L 40 360 L 20 360 L 20 380 L 20 400 L 20 420 L 20 440 L 20 460 L 20 480 L 20 500 L 20 520 L 20 540 L 40 540 L 40 520 L 60 520 L 80 520 L 100 520 L 120 520 L 140 520 L 160 520 L 180 520 L 200 520 L 220 520 L 240 520 L 240 500 L 240 480 L 240 460 L 240 440 L 240 420 L 240 400 L 240 380 L 240 360 L 240 340 L 220 340 L 200 340 L 180 340 L 160 340 L 140 340 L 120 340 L 100 340 L 80 340 L 60 340 L 40 340 z M 20 540 L 0 540 L 0 560 L 0 580 L 0 600 L 0 620 L 20 620 L 40 620 L 60 620 L 80 620 L 100 620 L 120 620 L 140 620 L 160 620 L 180 620 L 200 620 L 220 620 L 240 620 L 260 620 L 260 600 L 260 580 L 260 560 L 260 540 L 240 540 L 240 560 L 240 580 L 240 600 L 220 600 L 200 600 L 180 600 L 160 600 L 140 600 L 120 600 L 100 600 L 80 600 L 60 600 L 40 600 L 20 600 L 20 580 L 20 560 L 20 540 z M 380 340 L 380 360 L 400 360 L 420 360 L 440 360 L 460 360 L 480 360 L 500 360 L 520 360 L 540 360 L 560 360 L 560 380 L 560 400 L 560 420 L 560 440 L 560 460 L 560 480 L 560 500 L 540 500 L 520 500 L 500 500 L 480 500 L 460 500 L 440 500 L 420 500 L 400 500 L 380 500 L 380 480 L 380 460 L 380 440 L 380 420 L 380 400 L 380 380 L 380 360 L 360 360 L 360 380 L 360 400 L 360 420 L 360 440 L 360 460 L 360 480 L 360 500 L 360 520 L 360 540 L 380 540 L 380 520 L 400 520 L 420 520 L 440 520 L 460 520 L 480 520 L 500 520 L 520 520 L 540 520 L 560 520 L 580 520 L 580 500 L 580 480 L 580 460 L 580 440 L 580 420 L 580 400 L 580 380 L 580 360 L 580 340 L 560 340 L 540 340 L 520 340 L 500 340 L 480 340 L 460 340 L 440 340 L 420 340 L 400 340 L 380 340 z M 360 540 L 340 540 L 340 560 L 340 580 L 340 600 L 340 620 L 360 620 L 380 620 L 400 620 L 420 620 L 440 620 L 460 620 L 480 620 L 500 620 L 520 620 L 540 620 L 560 620 L 580 620 L 600 620 L 600 600 L 600 580 L 600 560 L 600 540 L 580 540 L 580 560 L 580 580 L 580 600 L 560 600 L 540 600 L 520 600 L 500 600 L 480 600 L 460 600 L 440 600 L 420 600 L 400 600 L 380 600 L 360 600 L 360 580 L 360 560 L 360 540 z M 60 380 L 60 400 L 60 420 L 60 440 L 60 460 L 60 480 L 80 480 L 80 460 L 80 440 L 80 420 L 80 400 L 80 380 L 60 380 z M 400 380 L 400 400 L 400 420 L 400 440 L 400 460 L 400 480 L 420 480 L 420 460 L 420 440 L 420 420 L 420 400 L 420 380 L 400 380 z M 140 560 L 140 580 L 160 580 L 180 580 L 200 580 L 220 580 L 220 560 L 200 560 L 180 560 L 160 560 L 140 560 z M 480 560 L 480 580 L 500 580 L 520 580 L 540 580 L 560 580 L 560 560 L 540 560 L 520 560 L 500 560 L 480 560 z "
     id="rect1092" />
  <path
     style="fill:#000000"
     d="M 420 20 L 420 40 L 420 60 L 420 80 L 420 100 L 420 120 L 420 140 L 420 160 L 420 180 L 440 180 L 440 160 L 440 140 L 440 120 L 440 100 L 440 80 L 440 60 L 440 40 L 440 20 L 420 20 z M 440 180 L 440 200 L 440 220 L 440 240 L 440 260 L 440 280 L 460 280 L 460 260 L 460 240 L 460 220 L 460 200 L 460 180 L 440 180 z M 440 280 L 420 280 L 400 280 L 380 280 L 360 280 L 340 280 L 320 280 L 300 280 L 280 280 L 260 280 L 240 280 L 220 280 L 200 280 L 200 300 L 220 300 L 240 300 L 260 300 L 280 300 L 300 300 L 300 320 L 300 340 L 300 360 L 300 380 L 280 380 L 280 400 L 300 400 L 320 400 L 340 400 L 340 380 L 320 380 L 320 360 L 320 340 L 320 320 L 320 300 L 340 300 L 360 300 L 380 300 L 400 300 L 420 300 L 440 300 L 440 280 z M 340 400 L 340 420 L 360 420 L 360 400 L 340 400 z M 280 400 L 260 400 L 260 380 L 260 360 L 240 360 L 240 380 L 240 400 L 240 420 L 240 440 L 240 460 L 240 480 L 240 500 L 240 520 L 260 520 L 260 500 L 260 480 L 260 460 L 260 440 L 260 420 L 280 420 L 280 400 z M 260 520 L 260 540 L 260 560 L 260 580 L 260 600 L 260 620 L 280 620 L 280 600 L 280 580 L 280 560 L 280 540 L 280 520 L 260 520 z M 260 620 L 240 620 L 220 620 L 200 620 L 180 620 L 160 620 L 140 620 L 120 620 L 100 620 L 80 620 L 60 620 L 40 620 L 20 620 L 20 640 L 40 640 L 60 640 L 80 640 L 100 640 L 120 640 L 140 640 L 160 640 L 180 640 L 200 640 L 220 640 L 240 640 L 260 640 L 260 620 z M 240 520 L 220 520 L 200 520 L 180 520 L 160 520 L 140 520 L 120 520 L 100 520 L 80 520 L 60 520 L 40 520 L 40 540 L 60 540 L 80 540 L 100 540 L 120 540 L 140 540 L 160 540 L 180 540 L 200 540 L 220 540 L 240 540 L 240 520 z M 420 180 L 400 180 L 380 180 L 360 180 L 340 180 L 320 180 L 300 180 L 280 180 L 260 180 L 240 180 L 220 180 L 220 200 L 240 200 L 260 200 L 280 200 L 300 200 L 320 200 L 340 200 L 360 200 L 380 200 L 400 200 L 420 200 L 420 180 z M 260 40 L 260 60 L 260 80 L 260 100 L 260 120 L 260 140 L 280 140 L 280 120 L 280 100 L 280 80 L 280 60 L 300 60 L 320 60 L 340 60 L 360 60 L 360 40 L 340 40 L 320 40 L 300 40 L 280 40 L 260 40 z M 320 240 L 320 260 L 340 260 L 360 260 L 380 260 L 400 260 L 400 240 L 380 240 L 360 240 L 340 240 L 320 240 z M 580 360 L 580 380 L 580 400 L 580 420 L 580 440 L 580 460 L 580 480 L 580 500 L 580 520 L 600 520 L 600 500 L 600 480 L 600 460 L 600 440 L 600 420 L 600 400 L 600 380 L 600 360 L 580 360 z M 600 520 L 600 540 L 600 560 L 600 580 L 600 600 L 600 620 L 620 620 L 620 600 L 620 580 L 620 560 L 620 540 L 620 520 L 600 520 z M 600 620 L 580 620 L 560 620 L 540 620 L 520 620 L 500 620 L 480 620 L 460 620 L 440 620 L 420 620 L 400 620 L 380 620 L 360 620 L 360 640 L 380 640 L 400 640 L 420 640 L 440 640 L 460 640 L 480 640 L 500 640 L 520 640 L 540 640 L 560 640 L 580 640 L 600 640 L 600 620 z M 580 520 L 560 520 L 540 520 L 520 520 L 500 520 L 480 520 L 460 520 L 440 520 L 420 520 L 400 520 L 380 520 L 380 540 L 400 540 L 420 540 L 440 540 L 460 540 L 480 540 L 500 540 L 520 540 L 540 540 L 560 540 L 580 540 L 580 520 z M 80 380 L 80 400 L 80 420 L 80 440 L 80 460 L 80 480 L 100 480 L 100 460 L 100 440 L 100 420 L 100 400 L 120 400 L 140 400 L 160 400 L 180 400 L 200 400 L 200 380 L 180 380 L 160 380 L 140 380 L 120 380 L 100 380 L 80 380 z M 420 380 L 420 400 L 420 420 L 420 440 L 420 460 L 420 480 L 440 480 L 440 460 L 440 440 L 440 420 L 440 400 L 460 400 L 480 400 L 500 400 L 520 400 L 540 400 L 540 380 L 520 380 L 500 380 L 480 380 L 460 380 L 440 380 L 420 380 z M 140 580 L 140 600 L 160 600 L 180 600 L 200 600 L 220 600 L 220 580 L 200 580 L 180 580 L 160 580 L 140 580 z M 480 580 L 480 600 L 500 600 L 520 600 L 540 600 L 560 600 L 560 580 L 540 580 L 520 580 L 500 580 L 480 580 z "
     id="rect1142" />
</svg>
