<?xml version="1.0" encoding="UTF-8" standalone="no"?>
<svg
   xmlns:dc="http://purl.org/dc/elements/1.1/"
   xmlns:cc="http://creativecommons.org/ns#"
   xmlns:rdf="http://www.w3.org/1999/02/22-rdf-syntax-ns#"
   xmlns:svg="http://www.w3.org/2000/svg"
   xmlns="http://www.w3.org/2000/svg"
   height="960px"
   version="1.1"
   width="960px"
   id="svg3216">
  <metadata
     id="metadata3220">
    <rdf:RDF>
      <cc:Work
         rdf:about="">
        <dc:format>image/svg+xml</dc:format>
        <dc:type
           rdf:resource="http://purl.org/dc/dcmitype/StillImage" />
      </cc:Work>
    </rdf:RDF>
  </metadata>
  <defs
     id="defs2" />
  <path
     id="rect2662"
     d="M 780 600 L 780 620 L 780 640 L 780 660 L 760 660 L 760 680 L 760 700 L 740 700 L 720 700 L 700 700 L 680 700 L 680 680 L 660 680 L 640 680 L 620 680 L 600 680 L 580 680 L 580 660 L 560 660 L 540 660 L 540 680 L 520 680 L 520 700 L 500 700 L 500 720 L 480 720 L 480 740 L 500 740 L 520 740 L 540 740 L 560 740 L 580 740 L 600 740 L 620 740 L 640 740 L 660 740 L 680 740 L 700 740 L 720 740 L 740 740 L 760 740 L 780 740 L 780 720 L 800 720 L 820 720 L 820 700 L 840 700 L 840 680 L 860 680 L 860 660 L 860 640 L 840 640 L 820 640 L 820 620 L 800 620 L 800 600 L 780 600 z "
     style="fill:#00ff00" />
  <path
     id="rect2802"
     d="M 760 580 L 760 600 L 760 620 L 760 640 L 760 660 L 780 660 L 780 640 L 780 620 L 780 600 L 800 600 L 800 580 L 780 580 L 760 580 z M 800 600 L 800 620 L 820 620 L 820 600 L 800 600 z M 820 620 L 820 640 L 840 640 L 860 640 L 860 620 L 840 620 L 820 620 z M 860 640 L 860 660 L 880 660 L 880 640 L 860 640 z M 880 660 L 880 680 L 900 680 L 900 660 L 880 660 z M 880 680 L 860 680 L 860 700 L 880 700 L 880 680 z M 860 700 L 840 700 L 840 720 L 860 720 L 860 700 z M 840 720 L 820 720 L 820 740 L 840 740 L 840 720 z M 820 740 L 800 740 L 780 740 L 780 760 L 800 760 L 820 760 L 820 740 z M 780 760 L 760 760 L 740 760 L 720 760 L 700 760 L 680 760 L 660 760 L 640 760 L 620 760 L 600 760 L 580 760 L 560 760 L 540 760 L 520 760 L 500 760 L 480 760 L 460 760 L 460 780 L 480 780 L 500 780 L 520 780 L 540 780 L 560 780 L 580 780 L 600 780 L 620 780 L 640 780 L 660 780 L 680 780 L 700 780 L 720 780 L 740 780 L 760 780 L 780 780 L 780 760 z M 460 760 L 460 740 L 440 740 L 420 740 L 420 760 L 440 760 L 460 760 z M 760 660 L 740 660 L 720 660 L 720 680 L 700 680 L 700 660 L 680 660 L 660 660 L 640 660 L 620 660 L 600 660 L 580 660 L 580 680 L 600 680 L 620 680 L 640 680 L 660 680 L 680 680 L 680 700 L 700 700 L 720 700 L 740 700 L 760 700 L 760 680 L 760 660 z M 580 660 L 580 640 L 560 640 L 540 640 L 540 660 L 560 660 L 580 660 z "
     style="fill:#008000" />
  <path
     id="rect2958"
     d="M 560 0 L 560 20 L 580 20 L 600 20 L 620 20 L 640 20 L 660 20 L 680 20 L 700 20 L 720 20 L 740 20 L 760 20 L 780 20 L 800 20 L 820 20 L 840 20 L 860 20 L 860 0 L 840 0 L 820 0 L 800 0 L 780 0 L 760 0 L 740 0 L 720 0 L 700 0 L 680 0 L 660 0 L 640 0 L 620 0 L 600 0 L 580 0 L 560 0 z M 860 20 L 860 40 L 880 40 L 900 40 L 900 20 L 880 20 L 860 20 z M 900 40 L 900 60 L 920 60 L 920 40 L 900 40 z M 920 60 L 920 80 L 920 100 L 920 120 L 920 140 L 940 140 L 940 120 L 940 100 L 940 80 L 940 60 L 920 60 z M 920 140 L 900 140 L 880 140 L 880 160 L 880 180 L 900 180 L 900 160 L 920 160 L 920 140 z M 880 180 L 860 180 L 860 200 L 860 220 L 840 220 L 820 220 L 800 220 L 780 220 L 780 240 L 780 260 L 800 260 L 800 240 L 820 240 L 840 240 L 860 240 L 860 260 L 880 260 L 880 240 L 880 220 L 880 200 L 880 180 z M 880 260 L 880 280 L 880 300 L 900 300 L 900 280 L 900 260 L 880 260 z M 900 300 L 900 320 L 920 320 L 920 300 L 900 300 z M 920 320 L 920 340 L 920 360 L 940 360 L 940 340 L 940 320 L 920 320 z M 920 360 L 900 360 L 880 360 L 860 360 L 860 380 L 860 400 L 860 420 L 860 440 L 860 460 L 860 480 L 880 480 L 880 460 L 880 440 L 880 420 L 880 400 L 880 380 L 900 380 L 920 380 L 920 360 z M 860 480 L 840 480 L 820 480 L 820 500 L 840 500 L 860 500 L 860 480 z M 820 500 L 800 500 L 780 500 L 760 500 L 740 500 L 720 500 L 700 500 L 680 500 L 660 500 L 640 500 L 640 520 L 660 520 L 680 520 L 700 520 L 720 520 L 740 520 L 740 540 L 740 560 L 740 580 L 740 600 L 740 620 L 740 640 L 740 660 L 760 660 L 760 640 L 760 620 L 760 600 L 760 580 L 760 560 L 760 540 L 760 520 L 780 520 L 800 520 L 820 520 L 820 500 z M 880 140 L 880 120 L 860 120 L 840 120 L 820 120 L 800 120 L 780 120 L 780 140 L 800 140 L 820 140 L 840 140 L 860 140 L 880 140 z M 780 140 L 760 140 L 740 140 L 740 160 L 760 160 L 780 160 L 780 140 z M 740 160 L 720 160 L 720 180 L 740 180 L 740 160 z M 720 180 L 700 180 L 700 200 L 720 200 L 720 180 z M 700 200 L 680 200 L 680 220 L 700 220 L 700 200 z M 680 220 L 660 220 L 660 240 L 680 240 L 680 220 z M 660 240 L 640 240 L 640 260 L 660 260 L 660 240 z M 640 260 L 620 260 L 620 240 L 600 240 L 600 260 L 580 260 L 580 280 L 600 280 L 600 300 L 620 300 L 620 280 L 640 280 L 640 260 z M 580 260 L 580 240 L 560 240 L 560 260 L 580 260 z M 560 240 L 560 220 L 540 220 L 520 220 L 520 240 L 540 240 L 560 240 z M 520 220 L 520 200 L 500 200 L 500 220 L 520 220 z M 620 240 L 640 240 L 640 220 L 620 220 L 620 240 z M 640 220 L 660 220 L 660 200 L 640 200 L 640 220 z M 660 200 L 680 200 L 680 180 L 660 180 L 660 200 z M 680 180 L 700 180 L 700 160 L 680 160 L 680 180 z M 700 160 L 720 160 L 720 140 L 700 140 L 700 160 z M 560 20 L 540 20 L 520 20 L 500 20 L 500 40 L 520 40 L 540 40 L 560 40 L 560 20 z M 500 40 L 480 40 L 460 40 L 460 60 L 480 60 L 500 60 L 500 40 z M 460 60 L 440 60 L 440 80 L 460 80 L 460 60 z M 440 80 L 420 80 L 420 100 L 440 100 L 440 80 z M 420 100 L 400 100 L 400 120 L 420 120 L 420 100 z M 400 120 L 380 120 L 380 140 L 380 160 L 380 180 L 400 180 L 400 160 L 400 140 L 400 120 z M 440 320 L 440 340 L 460 340 L 480 340 L 500 340 L 520 340 L 540 340 L 540 320 L 520 320 L 500 320 L 480 320 L 460 320 L 440 320 z M 440 340 L 420 340 L 420 360 L 440 360 L 440 340 z M 420 360 L 400 360 L 400 380 L 420 380 L 420 360 z M 400 380 L 380 380 L 380 400 L 400 400 L 400 380 z M 380 400 L 360 400 L 360 420 L 380 420 L 380 400 z M 360 420 L 340 420 L 340 440 L 360 440 L 360 420 z M 340 440 L 320 440 L 320 460 L 340 460 L 340 440 z M 320 460 L 300 460 L 280 460 L 280 480 L 300 480 L 320 480 L 320 460 z M 280 480 L 260 480 L 260 500 L 280 500 L 280 480 z M 260 500 L 240 500 L 240 520 L 260 520 L 260 500 z M 240 520 L 220 520 L 220 540 L 220 560 L 220 580 L 240 580 L 240 560 L 240 540 L 240 520 z M 240 580 L 240 600 L 260 600 L 260 580 L 240 580 z M 260 600 L 260 620 L 280 620 L 280 600 L 260 600 z M 280 620 L 280 640 L 280 660 L 300 660 L 320 660 L 320 640 L 300 640 L 300 620 L 280 620 z M 280 660 L 260 660 L 260 680 L 280 680 L 280 660 z M 260 680 L 240 680 L 240 700 L 260 700 L 260 680 z M 240 700 L 220 700 L 220 720 L 240 720 L 240 700 z M 220 720 L 200 720 L 200 740 L 220 740 L 220 720 z M 200 740 L 180 740 L 180 760 L 180 780 L 200 780 L 200 760 L 200 740 z M 600 320 L 600 340 L 620 340 L 620 320 L 600 320 z M 600 340 L 580 340 L 580 360 L 600 360 L 600 340 z M 520 380 L 520 400 L 520 420 L 500 420 L 480 420 L 460 420 L 440 420 L 440 440 L 460 440 L 480 440 L 500 440 L 520 440 L 540 440 L 540 460 L 540 480 L 540 500 L 560 500 L 560 520 L 580 520 L 580 500 L 580 480 L 560 480 L 560 460 L 580 460 L 580 440 L 560 440 L 560 420 L 540 420 L 540 400 L 540 380 L 520 380 z M 560 420 L 580 420 L 580 400 L 560 400 L 560 420 z M 580 400 L 600 400 L 600 380 L 580 380 L 580 400 z M 600 400 L 600 420 L 620 420 L 620 400 L 600 400 z M 620 420 L 620 440 L 640 440 L 640 420 L 620 420 z M 620 440 L 600 440 L 600 460 L 620 460 L 620 440 z M 600 460 L 580 460 L 580 480 L 600 480 L 600 460 z M 600 440 L 600 420 L 580 420 L 580 440 L 600 440 z M 580 520 L 580 540 L 580 560 L 600 560 L 600 540 L 600 520 L 580 520 z M 580 560 L 560 560 L 540 560 L 520 560 L 520 580 L 520 600 L 520 620 L 520 640 L 520 660 L 520 680 L 540 680 L 540 660 L 540 640 L 540 620 L 540 600 L 540 580 L 560 580 L 580 580 L 580 560 z M 520 680 L 500 680 L 500 700 L 520 700 L 520 680 z M 500 700 L 480 700 L 480 720 L 500 720 L 500 700 z M 480 720 L 460 720 L 440 720 L 420 720 L 400 720 L 380 720 L 360 720 L 340 720 L 320 720 L 300 720 L 300 740 L 320 740 L 340 740 L 360 740 L 380 740 L 400 740 L 400 760 L 400 780 L 400 800 L 400 820 L 400 840 L 400 860 L 420 860 L 420 840 L 420 820 L 420 800 L 420 780 L 420 760 L 420 740 L 440 740 L 460 740 L 480 740 L 480 720 z "
     style="fill:#000000" />
  <path
     id="rect3002"
     d="M 260 200 L 260 220 L 280 220 L 280 200 L 260 200 z M 280 220 L 280 240 L 300 240 L 300 220 L 280 220 z M 300 220 L 320 220 L 320 200 L 300 200 L 300 220 z M 320 220 L 320 240 L 340 240 L 340 220 L 320 220 z M 340 220 L 360 220 L 360 200 L 340 200 L 340 220 z M 360 220 L 360 240 L 380 240 L 380 220 L 360 220 z M 380 220 L 400 220 L 400 200 L 380 200 L 380 220 z M 400 220 L 400 240 L 420 240 L 420 220 L 400 220 z M 420 220 L 440 220 L 440 200 L 420 200 L 420 220 z M 440 220 L 440 240 L 460 240 L 460 220 L 440 220 z M 460 220 L 480 220 L 480 200 L 460 200 L 460 220 z M 360 240 L 340 240 L 340 260 L 360 260 L 360 240 z M 320 240 L 300 240 L 300 260 L 320 260 L 320 240 z M 300 260 L 280 260 L 280 280 L 300 280 L 300 260 z M 280 260 L 280 240 L 260 240 L 260 260 L 280 260 z M 260 260 L 240 260 L 240 280 L 260 280 L 260 260 z M 240 280 L 220 280 L 220 300 L 240 300 L 240 280 z M 220 280 L 220 260 L 200 260 L 200 280 L 220 280 z M 200 280 L 180 280 L 180 300 L 200 300 L 200 280 z M 180 300 L 160 300 L 160 320 L 180 320 L 180 300 z M 160 320 L 140 320 L 140 340 L 160 340 L 160 320 z M 140 340 L 120 340 L 120 360 L 140 360 L 140 340 z M 120 360 L 100 360 L 100 380 L 120 380 L 120 360 z M 100 380 L 80 380 L 80 400 L 100 400 L 100 380 z M 80 400 L 60 400 L 60 420 L 80 420 L 80 400 z M 60 420 L 40 420 L 40 440 L 60 440 L 60 420 z M 80 380 L 80 360 L 60 360 L 60 380 L 80 380 z M 80 360 L 100 360 L 100 340 L 80 340 L 80 360 z M 100 340 L 120 340 L 120 320 L 100 320 L 100 340 z M 120 320 L 140 320 L 140 300 L 120 300 L 120 320 z M 140 300 L 160 300 L 160 280 L 140 280 L 140 300 z M 160 280 L 180 280 L 180 260 L 160 260 L 160 280 z M 180 260 L 200 260 L 200 240 L 180 240 L 180 260 z M 220 260 L 240 260 L 240 240 L 220 240 L 220 260 z M 240 240 L 260 240 L 260 220 L 240 220 L 240 240 z M 440 340 L 440 360 L 420 360 L 420 380 L 400 380 L 400 400 L 380 400 L 380 420 L 360 420 L 360 440 L 340 440 L 340 460 L 320 460 L 320 480 L 300 480 L 280 480 L 280 500 L 260 500 L 260 520 L 240 520 L 240 540 L 240 560 L 240 580 L 260 580 L 260 600 L 280 600 L 280 620 L 300 620 L 300 640 L 320 640 L 320 660 L 300 660 L 280 660 L 280 680 L 260 680 L 260 700 L 240 700 L 240 720 L 220 720 L 220 740 L 200 740 L 200 760 L 200 780 L 180 780 L 180 800 L 200 800 L 220 800 L 220 820 L 240 820 L 240 840 L 260 840 L 280 840 L 280 860 L 300 860 L 320 860 L 320 880 L 340 880 L 360 880 L 360 860 L 360 840 L 360 820 L 360 800 L 360 780 L 360 760 L 340 760 L 320 760 L 320 740 L 300 740 L 300 720 L 320 720 L 340 720 L 360 720 L 380 720 L 400 720 L 420 720 L 420 700 L 440 700 L 460 700 L 460 680 L 480 680 L 480 660 L 500 660 L 500 640 L 500 620 L 500 600 L 500 580 L 520 580 L 520 560 L 520 540 L 520 520 L 520 500 L 520 480 L 520 460 L 520 440 L 500 440 L 480 440 L 480 460 L 480 480 L 460 480 L 440 480 L 420 480 L 420 460 L 420 440 L 420 420 L 440 420 L 460 420 L 480 420 L 500 420 L 520 420 L 520 400 L 520 380 L 540 380 L 540 360 L 540 340 L 520 340 L 500 340 L 480 340 L 460 340 L 440 340 z M 40 460 L 40 480 L 60 480 L 60 460 L 40 460 z M 40 500 L 40 520 L 60 520 L 60 500 L 40 500 z M 40 540 L 40 560 L 60 560 L 60 540 L 40 540 z M 40 580 L 40 600 L 60 600 L 60 580 L 40 580 z "
     style="fill:#ffffff" />
  <path
     id="rect3004"
     d="M 580 20 L 580 40 L 600 40 L 600 20 L 580 20 z M 600 40 L 600 60 L 620 60 L 620 40 L 600 40 z M 620 40 L 640 40 L 640 20 L 620 20 L 620 40 z M 600 60 L 580 60 L 580 80 L 600 80 L 600 60 z M 580 80 L 560 80 L 560 100 L 580 100 L 580 80 z M 560 100 L 540 100 L 540 120 L 560 120 L 560 100 z M 540 120 L 520 120 L 520 140 L 540 140 L 540 120 z M 520 140 L 500 140 L 500 160 L 520 160 L 520 140 z M 500 160 L 480 160 L 480 180 L 500 180 L 500 160 z M 480 160 L 480 140 L 460 140 L 460 160 L 480 160 z M 460 160 L 440 160 L 440 180 L 460 180 L 460 160 z M 440 160 L 440 140 L 420 140 L 420 160 L 440 160 z M 420 160 L 400 160 L 400 180 L 420 180 L 420 160 z M 420 140 L 420 120 L 400 120 L 400 140 L 420 140 z M 420 120 L 440 120 L 440 100 L 420 100 L 420 120 z M 440 100 L 460 100 L 460 80 L 440 80 L 440 100 z M 460 80 L 480 80 L 480 60 L 460 60 L 460 80 z M 480 80 L 480 100 L 500 100 L 500 80 L 480 80 z M 500 80 L 520 80 L 520 60 L 500 60 L 500 80 z M 520 60 L 540 60 L 540 40 L 520 40 L 520 60 z M 540 60 L 540 80 L 560 80 L 560 60 L 540 60 z M 560 60 L 580 60 L 580 40 L 560 40 L 560 60 z M 540 80 L 520 80 L 520 100 L 540 100 L 540 80 z M 520 100 L 500 100 L 500 120 L 520 120 L 520 100 z M 500 120 L 480 120 L 480 140 L 500 140 L 500 120 z M 480 120 L 480 100 L 460 100 L 460 120 L 480 120 z M 460 120 L 440 120 L 440 140 L 460 140 L 460 120 z M 660 20 L 660 40 L 680 40 L 680 20 L 660 20 z M 700 20 L 700 40 L 720 40 L 720 20 L 700 20 z M 740 20 L 740 40 L 760 40 L 760 20 L 740 20 z M 780 140 L 780 160 L 760 160 L 740 160 L 740 180 L 720 180 L 720 200 L 700 200 L 700 220 L 680 220 L 680 240 L 660 240 L 660 260 L 640 260 L 640 280 L 640 300 L 620 300 L 620 320 L 620 340 L 600 340 L 600 360 L 600 380 L 600 400 L 620 400 L 620 420 L 640 420 L 640 440 L 620 440 L 620 460 L 600 460 L 600 480 L 580 480 L 580 500 L 580 520 L 600 520 L 600 540 L 600 560 L 580 560 L 580 580 L 560 580 L 540 580 L 540 600 L 540 620 L 540 640 L 560 640 L 580 640 L 580 660 L 600 660 L 620 660 L 640 660 L 660 660 L 680 660 L 700 660 L 720 660 L 720 640 L 720 620 L 720 600 L 720 580 L 720 560 L 720 540 L 700 540 L 700 520 L 680 520 L 660 520 L 640 520 L 640 500 L 660 500 L 680 500 L 700 500 L 720 500 L 740 500 L 740 480 L 760 480 L 780 480 L 800 480 L 800 460 L 820 460 L 840 460 L 840 440 L 840 420 L 840 400 L 840 380 L 860 380 L 860 360 L 860 340 L 860 320 L 860 300 L 860 280 L 860 260 L 860 240 L 840 240 L 840 260 L 820 260 L 800 260 L 800 280 L 780 280 L 780 260 L 780 240 L 780 220 L 800 220 L 820 220 L 840 220 L 860 220 L 860 200 L 860 180 L 880 180 L 880 160 L 880 140 L 860 140 L 840 140 L 820 140 L 800 140 L 780 140 z M 580 520 L 560 520 L 560 500 L 540 500 L 540 480 L 540 460 L 540 440 L 520 440 L 520 460 L 520 480 L 520 500 L 520 520 L 520 540 L 540 540 L 560 540 L 580 540 L 580 520 z M 280 200 L 280 220 L 300 220 L 300 200 L 280 200 z M 300 220 L 300 240 L 320 240 L 320 220 L 300 220 z M 320 220 L 340 220 L 340 200 L 320 200 L 320 220 z M 340 220 L 340 240 L 360 240 L 360 220 L 340 220 z M 360 220 L 380 220 L 380 200 L 360 200 L 360 220 z M 380 220 L 380 240 L 360 240 L 360 260 L 340 260 L 340 240 L 320 240 L 320 260 L 300 260 L 300 280 L 280 280 L 280 260 L 260 260 L 260 280 L 240 280 L 240 300 L 220 300 L 220 280 L 200 280 L 200 300 L 180 300 L 180 320 L 160 320 L 160 340 L 140 340 L 140 360 L 120 360 L 120 380 L 100 380 L 100 400 L 80 400 L 80 420 L 60 420 L 60 440 L 40 440 L 40 460 L 60 460 L 60 480 L 40 480 L 40 500 L 60 500 L 60 520 L 40 520 L 40 540 L 60 540 L 60 560 L 40 560 L 40 580 L 60 580 L 60 600 L 40 600 L 40 620 L 60 620 L 60 640 L 60 660 L 80 660 L 80 680 L 100 680 L 120 680 L 120 660 L 140 660 L 140 640 L 160 640 L 160 620 L 180 620 L 180 600 L 160 600 L 160 580 L 180 580 L 180 560 L 200 560 L 200 540 L 180 540 L 180 520 L 200 520 L 200 500 L 220 500 L 220 480 L 200 480 L 200 460 L 220 460 L 220 440 L 240 440 L 240 420 L 260 420 L 260 400 L 280 400 L 280 380 L 300 380 L 300 360 L 320 360 L 320 340 L 340 340 L 340 320 L 360 320 L 360 300 L 380 300 L 380 320 L 400 320 L 400 300 L 420 300 L 420 320 L 400 320 L 400 340 L 420 340 L 440 340 L 440 320 L 460 320 L 480 320 L 500 320 L 520 320 L 540 320 L 560 320 L 580 320 L 580 300 L 580 280 L 580 260 L 560 260 L 560 240 L 540 240 L 520 240 L 520 220 L 500 220 L 500 200 L 480 200 L 480 220 L 460 220 L 460 240 L 440 240 L 440 220 L 420 220 L 420 240 L 400 240 L 400 220 L 380 220 z M 400 220 L 420 220 L 420 200 L 400 200 L 400 220 z M 440 220 L 460 220 L 460 200 L 440 200 L 440 220 z M 400 340 L 380 340 L 380 360 L 400 360 L 400 340 z M 380 360 L 360 360 L 360 380 L 380 380 L 380 360 z M 360 380 L 340 380 L 340 400 L 360 400 L 360 380 z M 340 400 L 320 400 L 320 420 L 340 420 L 340 400 z M 320 420 L 300 420 L 300 440 L 320 440 L 320 420 z M 300 440 L 280 440 L 280 460 L 300 460 L 300 440 z M 280 460 L 260 460 L 260 480 L 280 480 L 280 460 z M 260 480 L 240 480 L 240 500 L 260 500 L 260 480 z M 240 500 L 220 500 L 220 520 L 240 520 L 240 500 z M 220 520 L 200 520 L 200 540 L 220 540 L 220 520 z M 240 480 L 240 460 L 220 460 L 220 480 L 240 480 z M 240 460 L 260 460 L 260 440 L 240 440 L 240 460 z M 260 440 L 280 440 L 280 420 L 260 420 L 260 440 z M 280 420 L 300 420 L 300 400 L 280 400 L 280 420 z M 300 400 L 320 400 L 320 380 L 300 380 L 300 400 z M 320 380 L 340 380 L 340 360 L 320 360 L 320 380 z M 340 360 L 360 360 L 360 340 L 340 340 L 340 360 z M 360 340 L 380 340 L 380 320 L 360 320 L 360 340 z M 200 560 L 200 580 L 220 580 L 220 560 L 200 560 z M 200 580 L 180 580 L 180 600 L 200 600 L 200 580 z M 200 600 L 200 620 L 220 620 L 220 600 L 200 600 z M 220 620 L 220 640 L 240 640 L 240 620 L 220 620 z M 220 640 L 200 640 L 200 660 L 220 660 L 220 640 z M 220 660 L 220 680 L 240 680 L 240 660 L 220 660 z M 220 680 L 200 680 L 200 700 L 220 700 L 220 680 z M 200 700 L 180 700 L 180 720 L 200 720 L 200 700 z M 180 720 L 160 720 L 160 740 L 180 740 L 180 720 z M 160 740 L 140 740 L 140 760 L 160 760 L 160 740 z M 140 740 L 140 720 L 120 720 L 120 740 L 140 740 z M 120 720 L 120 700 L 100 700 L 100 720 L 120 720 z M 120 700 L 140 700 L 140 680 L 120 680 L 120 700 z M 140 680 L 160 680 L 160 660 L 140 660 L 140 680 z M 160 660 L 180 660 L 180 640 L 160 640 L 160 660 z M 180 640 L 200 640 L 200 620 L 180 620 L 180 640 z M 180 660 L 180 680 L 200 680 L 200 660 L 180 660 z M 180 680 L 160 680 L 160 700 L 180 700 L 180 680 z M 160 700 L 140 700 L 140 720 L 160 720 L 160 700 z M 60 420 L 60 400 L 40 400 L 40 420 L 60 420 z M 60 400 L 80 400 L 80 380 L 60 380 L 60 400 z M 80 380 L 100 380 L 100 360 L 80 360 L 80 380 z M 100 360 L 120 360 L 120 340 L 100 340 L 100 360 z M 100 340 L 100 320 L 80 320 L 80 340 L 100 340 z M 100 320 L 120 320 L 120 300 L 100 300 L 100 320 z M 120 300 L 140 300 L 140 280 L 120 280 L 120 300 z M 140 280 L 160 280 L 160 260 L 140 260 L 140 280 z M 160 280 L 160 300 L 180 300 L 180 280 L 160 280 z M 180 280 L 200 280 L 200 260 L 180 260 L 180 280 z M 200 260 L 220 260 L 220 240 L 200 240 L 200 260 z M 220 240 L 240 240 L 240 220 L 220 220 L 220 240 z M 240 240 L 240 260 L 260 260 L 260 240 L 240 240 z M 260 240 L 280 240 L 280 220 L 260 220 L 260 240 z M 280 240 L 280 260 L 300 260 L 300 240 L 280 240 z M 240 260 L 220 260 L 220 280 L 240 280 L 240 260 z M 160 300 L 140 300 L 140 320 L 160 320 L 160 300 z M 140 320 L 120 320 L 120 340 L 140 340 L 140 320 z M 420 420 L 420 440 L 420 460 L 420 480 L 440 480 L 440 460 L 440 440 L 440 420 L 420 420 z M 500 580 L 500 600 L 500 620 L 500 640 L 500 660 L 480 660 L 480 680 L 460 680 L 460 700 L 440 700 L 420 700 L 420 720 L 440 720 L 460 720 L 480 720 L 480 700 L 500 700 L 500 680 L 520 680 L 520 660 L 520 640 L 520 620 L 520 600 L 520 580 L 500 580 z M 860 660 L 860 680 L 880 680 L 880 660 L 860 660 z M 860 680 L 840 680 L 840 700 L 860 700 L 860 680 z M 840 700 L 820 700 L 820 720 L 840 720 L 840 700 z M 820 720 L 800 720 L 780 720 L 780 740 L 800 740 L 820 740 L 820 720 z M 780 740 L 760 740 L 740 740 L 720 740 L 700 740 L 680 740 L 660 740 L 640 740 L 620 740 L 600 740 L 580 740 L 560 740 L 540 740 L 520 740 L 500 740 L 480 740 L 460 740 L 460 760 L 480 760 L 500 760 L 520 760 L 540 760 L 560 760 L 580 760 L 600 760 L 620 760 L 640 760 L 660 760 L 680 760 L 700 760 L 720 760 L 740 760 L 760 760 L 780 760 L 780 740 z M 320 740 L 320 760 L 340 760 L 360 760 L 360 780 L 360 800 L 360 820 L 360 840 L 360 860 L 360 880 L 380 880 L 380 860 L 380 840 L 380 820 L 380 800 L 380 780 L 380 760 L 380 740 L 360 740 L 340 740 L 320 740 z "
     style="fill:#c0c0c0" />
  <path
     id="rect3006"
     d="M 560 20 L 560 40 L 580 40 L 580 20 L 560 20 z M 580 40 L 580 60 L 600 60 L 600 40 L 580 40 z M 600 40 L 620 40 L 620 20 L 600 20 L 600 40 z M 620 40 L 620 60 L 600 60 L 600 80 L 580 80 L 580 100 L 560 100 L 560 120 L 540 120 L 540 140 L 520 140 L 520 160 L 500 160 L 500 180 L 480 180 L 480 160 L 460 160 L 460 180 L 440 180 L 440 160 L 420 160 L 420 180 L 400 180 L 380 180 L 360 180 L 340 180 L 320 180 L 300 180 L 280 180 L 260 180 L 260 200 L 280 200 L 300 200 L 320 200 L 340 200 L 360 200 L 380 200 L 400 200 L 420 200 L 440 200 L 460 200 L 480 200 L 500 200 L 520 200 L 520 220 L 540 220 L 560 220 L 560 240 L 580 240 L 580 260 L 600 260 L 600 240 L 620 240 L 620 220 L 640 220 L 640 200 L 660 200 L 660 180 L 680 180 L 680 160 L 700 160 L 700 140 L 720 140 L 720 160 L 740 160 L 740 140 L 760 140 L 780 140 L 780 120 L 800 120 L 820 120 L 840 120 L 860 120 L 880 120 L 880 140 L 900 140 L 920 140 L 920 120 L 920 100 L 920 80 L 920 60 L 900 60 L 900 40 L 880 40 L 860 40 L 860 20 L 840 20 L 820 20 L 800 20 L 780 20 L 760 20 L 760 40 L 740 40 L 740 20 L 720 20 L 720 40 L 700 40 L 700 20 L 680 20 L 680 40 L 660 40 L 660 20 L 640 20 L 640 40 L 620 40 z M 720 160 L 700 160 L 700 180 L 720 180 L 720 160 z M 700 180 L 680 180 L 680 200 L 700 200 L 700 180 z M 680 200 L 660 200 L 660 220 L 680 220 L 680 200 z M 660 220 L 640 220 L 640 240 L 660 240 L 660 220 z M 640 240 L 620 240 L 620 260 L 640 260 L 640 240 z M 260 200 L 240 200 L 220 200 L 220 220 L 240 220 L 260 220 L 260 200 z M 220 220 L 200 220 L 180 220 L 180 240 L 200 240 L 220 240 L 220 220 z M 180 240 L 160 240 L 140 240 L 140 260 L 160 260 L 180 260 L 180 240 z M 140 260 L 120 260 L 120 280 L 140 280 L 140 260 z M 120 280 L 100 280 L 100 300 L 120 300 L 120 280 z M 100 300 L 80 300 L 80 320 L 100 320 L 100 300 z M 80 320 L 60 320 L 60 340 L 60 360 L 80 360 L 80 340 L 80 320 z M 60 360 L 40 360 L 40 380 L 40 400 L 60 400 L 60 380 L 60 360 z M 40 400 L 20 400 L 20 420 L 20 440 L 20 460 L 20 480 L 20 500 L 20 520 L 20 540 L 20 560 L 20 580 L 20 600 L 20 620 L 40 620 L 40 600 L 40 580 L 40 560 L 40 540 L 40 520 L 40 500 L 40 480 L 40 460 L 40 440 L 40 420 L 40 400 z M 40 620 L 40 640 L 40 660 L 60 660 L 60 640 L 60 620 L 40 620 z M 60 660 L 60 680 L 80 680 L 80 660 L 60 660 z M 80 680 L 80 700 L 80 720 L 100 720 L 100 700 L 120 700 L 120 680 L 100 680 L 80 680 z M 120 680 L 140 680 L 140 660 L 120 660 L 120 680 z M 140 660 L 160 660 L 160 640 L 140 640 L 140 660 z M 160 640 L 180 640 L 180 620 L 160 620 L 160 640 z M 180 620 L 200 620 L 200 600 L 180 600 L 180 620 z M 180 600 L 180 580 L 160 580 L 160 600 L 180 600 z M 180 580 L 200 580 L 200 560 L 180 560 L 180 580 z M 200 560 L 220 560 L 220 540 L 200 540 L 200 560 z M 200 540 L 200 520 L 180 520 L 180 540 L 200 540 z M 200 520 L 220 520 L 220 500 L 200 500 L 200 520 z M 220 500 L 240 500 L 240 480 L 220 480 L 220 500 z M 220 480 L 220 460 L 200 460 L 200 480 L 220 480 z M 220 460 L 240 460 L 240 440 L 220 440 L 220 460 z M 240 440 L 260 440 L 260 420 L 240 420 L 240 440 z M 260 420 L 280 420 L 280 400 L 260 400 L 260 420 z M 280 400 L 300 400 L 300 380 L 280 380 L 280 400 z M 300 380 L 320 380 L 320 360 L 300 360 L 300 380 z M 320 360 L 340 360 L 340 340 L 320 340 L 320 360 z M 340 340 L 360 340 L 360 320 L 340 320 L 340 340 z M 360 320 L 380 320 L 380 300 L 360 300 L 360 320 z M 380 320 L 380 340 L 400 340 L 400 320 L 380 320 z M 400 320 L 420 320 L 420 300 L 400 300 L 400 320 z M 400 340 L 400 360 L 420 360 L 420 340 L 400 340 z M 400 360 L 380 360 L 380 380 L 400 380 L 400 360 z M 380 380 L 360 380 L 360 400 L 380 400 L 380 380 z M 360 400 L 340 400 L 340 420 L 360 420 L 360 400 z M 340 420 L 320 420 L 320 440 L 340 440 L 340 420 z M 320 440 L 300 440 L 300 460 L 320 460 L 320 440 z M 300 440 L 300 420 L 280 420 L 280 440 L 300 440 z M 280 440 L 260 440 L 260 460 L 280 460 L 280 440 z M 260 460 L 240 460 L 240 480 L 260 480 L 260 460 z M 300 420 L 320 420 L 320 400 L 300 400 L 300 420 z M 320 400 L 340 400 L 340 380 L 320 380 L 320 400 z M 340 380 L 360 380 L 360 360 L 340 360 L 340 380 z M 360 360 L 380 360 L 380 340 L 360 340 L 360 360 z M 200 580 L 200 600 L 220 600 L 220 620 L 240 620 L 240 640 L 220 640 L 220 660 L 240 660 L 240 680 L 260 680 L 260 660 L 280 660 L 280 640 L 280 620 L 260 620 L 260 600 L 240 600 L 240 580 L 220 580 L 200 580 z M 240 680 L 220 680 L 220 700 L 240 700 L 240 680 z M 220 700 L 200 700 L 200 720 L 220 720 L 220 700 z M 200 720 L 180 720 L 180 740 L 200 740 L 200 720 z M 180 740 L 160 740 L 160 760 L 140 760 L 140 780 L 160 780 L 180 780 L 180 760 L 180 740 z M 140 760 L 140 740 L 120 740 L 120 760 L 140 760 z M 120 740 L 120 720 L 100 720 L 100 740 L 120 740 z M 120 720 L 140 720 L 140 700 L 120 700 L 120 720 z M 140 700 L 160 700 L 160 680 L 140 680 L 140 700 z M 160 680 L 180 680 L 180 660 L 160 660 L 160 680 z M 180 660 L 200 660 L 200 640 L 180 640 L 180 660 z M 200 640 L 220 640 L 220 620 L 200 620 L 200 640 z M 200 660 L 200 680 L 220 680 L 220 660 L 200 660 z M 200 680 L 180 680 L 180 700 L 200 700 L 200 680 z M 180 700 L 160 700 L 160 720 L 180 720 L 180 700 z M 160 720 L 140 720 L 140 740 L 160 740 L 160 720 z M 420 160 L 420 140 L 400 140 L 400 160 L 420 160 z M 420 140 L 440 140 L 440 120 L 420 120 L 420 140 z M 440 120 L 460 120 L 460 100 L 440 100 L 440 120 z M 460 100 L 480 100 L 480 80 L 460 80 L 460 100 z M 480 80 L 500 80 L 500 60 L 480 60 L 480 80 z M 500 60 L 520 60 L 520 40 L 500 40 L 500 60 z M 520 60 L 520 80 L 540 80 L 540 60 L 520 60 z M 540 60 L 560 60 L 560 40 L 540 40 L 540 60 z M 560 60 L 560 80 L 580 80 L 580 60 L 560 60 z M 560 80 L 540 80 L 540 100 L 560 100 L 560 80 z M 540 100 L 520 100 L 520 120 L 540 120 L 540 100 z M 520 120 L 500 120 L 500 140 L 520 140 L 520 120 z M 500 140 L 480 140 L 480 160 L 500 160 L 500 140 z M 480 140 L 480 120 L 460 120 L 460 140 L 480 140 z M 460 140 L 440 140 L 440 160 L 460 160 L 460 140 z M 480 120 L 500 120 L 500 100 L 480 100 L 480 120 z M 500 100 L 520 100 L 520 80 L 500 80 L 500 100 z M 800 240 L 800 260 L 820 260 L 840 260 L 840 240 L 820 240 L 800 240 z M 800 260 L 780 260 L 780 280 L 800 280 L 800 260 z M 860 260 L 860 280 L 860 300 L 860 320 L 860 340 L 860 360 L 880 360 L 900 360 L 920 360 L 920 340 L 920 320 L 900 320 L 900 300 L 880 300 L 880 280 L 880 260 L 860 260 z M 580 280 L 580 300 L 580 320 L 560 320 L 540 320 L 540 340 L 540 360 L 540 380 L 540 400 L 540 420 L 560 420 L 560 400 L 580 400 L 580 380 L 600 380 L 600 360 L 580 360 L 580 340 L 600 340 L 600 320 L 620 320 L 620 300 L 600 300 L 600 280 L 580 280 z M 620 300 L 640 300 L 640 280 L 620 280 L 620 300 z M 580 400 L 580 420 L 600 420 L 600 400 L 580 400 z M 600 420 L 600 440 L 620 440 L 620 420 L 600 420 z M 600 440 L 580 440 L 580 460 L 600 460 L 600 440 z M 580 460 L 560 460 L 560 480 L 580 480 L 580 460 z M 580 440 L 580 420 L 560 420 L 560 440 L 580 440 z M 840 380 L 840 400 L 840 420 L 840 440 L 840 460 L 820 460 L 800 460 L 800 480 L 780 480 L 760 480 L 740 480 L 740 500 L 760 500 L 780 500 L 800 500 L 820 500 L 820 480 L 840 480 L 860 480 L 860 460 L 860 440 L 860 420 L 860 400 L 860 380 L 840 380 z M 460 460 L 460 480 L 480 480 L 480 460 L 460 460 z M 700 520 L 700 540 L 720 540 L 720 560 L 720 580 L 720 600 L 720 620 L 720 640 L 720 660 L 740 660 L 740 640 L 740 620 L 740 600 L 740 580 L 740 560 L 740 540 L 740 520 L 720 520 L 700 520 z M 720 660 L 700 660 L 700 680 L 720 680 L 720 660 z M 520 540 L 520 560 L 540 560 L 560 560 L 580 560 L 580 540 L 560 540 L 540 540 L 520 540 z M 380 740 L 380 760 L 380 780 L 380 800 L 380 820 L 380 840 L 380 860 L 380 880 L 400 880 L 400 860 L 400 840 L 400 820 L 400 800 L 400 780 L 400 760 L 400 740 L 380 740 z "
     style="fill:#808080" />
  <path
     id="rect3170"
     d="M 440 440 L 440 460 L 440 480 L 460 480 L 460 460 L 480 460 L 480 440 L 460 440 L 440 440 z M 440 780 L 440 800 L 440 820 L 440 840 L 440 860 L 420 860 L 420 880 L 420 900 L 400 900 L 400 920 L 380 920 L 360 920 L 360 900 L 340 900 L 320 900 L 320 880 L 300 880 L 280 880 L 280 860 L 260 860 L 240 860 L 240 840 L 220 840 L 200 840 L 200 820 L 180 820 L 180 800 L 160 800 L 140 800 L 120 800 L 120 820 L 100 820 L 100 840 L 80 840 L 80 860 L 60 860 L 60 880 L 60 900 L 40 900 L 40 920 L 60 920 L 80 920 L 80 940 L 100 940 L 120 940 L 140 940 L 160 940 L 180 940 L 200 940 L 220 940 L 240 940 L 260 940 L 280 940 L 300 940 L 320 940 L 340 940 L 360 940 L 380 940 L 400 940 L 420 940 L 440 940 L 460 940 L 460 920 L 480 920 L 500 920 L 500 900 L 520 900 L 520 880 L 540 880 L 540 860 L 520 860 L 520 840 L 500 840 L 500 820 L 480 820 L 480 800 L 460 800 L 460 780 L 440 780 z "
     style="fill:#0000ff" />
  <path
     id="rect3214"
     d="M 420 760 L 420 780 L 420 800 L 420 820 L 420 840 L 420 860 L 440 860 L 440 840 L 440 820 L 440 800 L 440 780 L 460 780 L 460 760 L 440 760 L 420 760 z M 460 780 L 460 800 L 480 800 L 480 780 L 460 780 z M 480 800 L 480 820 L 500 820 L 500 800 L 480 800 z M 500 820 L 500 840 L 520 840 L 520 820 L 500 820 z M 520 840 L 520 860 L 540 860 L 540 840 L 520 840 z M 540 860 L 540 880 L 520 880 L 520 900 L 500 900 L 500 920 L 520 920 L 540 920 L 540 900 L 560 900 L 560 880 L 560 860 L 540 860 z M 500 920 L 480 920 L 460 920 L 460 940 L 480 940 L 500 940 L 500 920 z M 460 940 L 440 940 L 420 940 L 400 940 L 380 940 L 360 940 L 340 940 L 320 940 L 300 940 L 280 940 L 260 940 L 240 940 L 220 940 L 200 940 L 180 940 L 160 940 L 140 940 L 120 940 L 100 940 L 80 940 L 80 920 L 60 920 L 40 920 L 40 900 L 20 900 L 20 920 L 20 940 L 40 940 L 60 940 L 60 960 L 80 960 L 100 960 L 120 960 L 140 960 L 160 960 L 180 960 L 200 960 L 220 960 L 240 960 L 260 960 L 280 960 L 300 960 L 320 960 L 340 960 L 360 960 L 380 960 L 400 960 L 420 960 L 440 960 L 460 960 L 460 940 z M 40 900 L 60 900 L 60 880 L 60 860 L 40 860 L 40 880 L 40 900 z M 60 860 L 80 860 L 80 840 L 60 840 L 60 860 z M 80 840 L 100 840 L 100 820 L 80 820 L 80 840 z M 100 820 L 120 820 L 120 800 L 100 800 L 100 820 z M 120 800 L 140 800 L 160 800 L 180 800 L 180 780 L 160 780 L 140 780 L 120 780 L 120 800 z M 180 800 L 180 820 L 200 820 L 200 840 L 220 840 L 240 840 L 240 820 L 220 820 L 220 800 L 200 800 L 180 800 z M 240 840 L 240 860 L 260 860 L 280 860 L 280 840 L 260 840 L 240 840 z M 280 860 L 280 880 L 300 880 L 320 880 L 320 860 L 300 860 L 280 860 z M 320 880 L 320 900 L 340 900 L 360 900 L 360 920 L 380 920 L 400 920 L 400 900 L 420 900 L 420 880 L 420 860 L 400 860 L 400 880 L 380 880 L 360 880 L 340 880 L 320 880 z "
     style="fill:#000080" />
</svg>
