<?xml version="1.0" encoding="UTF-8" standalone="no"?>
<svg
   xmlns:dc="http://purl.org/dc/elements/1.1/"
   xmlns:cc="http://creativecommons.org/ns#"
   xmlns:rdf="http://www.w3.org/1999/02/22-rdf-syntax-ns#"
   xmlns:svg="http://www.w3.org/2000/svg"
   xmlns="http://www.w3.org/2000/svg"
   id="svg872"
   width="640px"
   version="1.1"
   height="640px">
  <metadata
     id="metadata876">
    <rdf:RDF>
      <cc:Work
         rdf:about="">
        <dc:format>image/svg+xml</dc:format>
        <dc:type
           rdf:resource="http://purl.org/dc/dcmitype/StillImage" />
      </cc:Work>
    </rdf:RDF>
  </metadata>
  <defs
     id="defs2" />
  <path
     style="fill:#ffff00"
     d="M 100 20 L 100 40 L 120 40 L 120 20 L 100 20 z M 540 20 L 540 40 L 560 40 L 560 20 L 540 20 z M 240 40 L 240 60 L 260 60 L 260 40 L 240 40 z M 260 60 L 260 80 L 280 80 L 280 60 L 260 60 z M 280 60 L 300 60 L 300 40 L 280 40 L 280 60 z M 300 60 L 300 80 L 320 80 L 320 60 L 300 60 z M 320 60 L 340 60 L 340 40 L 320 40 L 320 60 z M 340 60 L 340 80 L 360 80 L 360 60 L 340 60 z M 360 60 L 380 60 L 380 80 L 400 80 L 400 100 L 380 100 L 380 120 L 400 120 L 400 140 L 420 140 L 420 160 L 400 160 L 400 180 L 380 180 L 380 200 L 400 200 L 400 220 L 380 220 L 380 240 L 360 240 L 360 260 L 340 260 L 340 280 L 320 280 L 320 300 L 340 300 L 340 320 L 360 320 L 360 340 L 340 340 L 320 340 L 320 360 L 340 360 L 340 380 L 340 400 L 340 420 L 340 440 L 340 460 L 340 480 L 340 500 L 360 500 L 360 480 L 360 460 L 360 440 L 360 420 L 380 420 L 380 400 L 380 380 L 400 380 L 400 360 L 420 360 L 420 340 L 440 340 L 440 320 L 440 300 L 460 300 L 460 280 L 480 280 L 480 260 L 480 240 L 480 220 L 480 200 L 480 180 L 480 160 L 480 140 L 460 140 L 460 120 L 460 100 L 440 100 L 440 80 L 420 80 L 420 60 L 400 60 L 400 40 L 380 40 L 360 40 L 360 60 z M 320 360 L 300 360 L 300 340 L 320 340 L 320 320 L 320 300 L 300 300 L 300 320 L 280 320 L 280 300 L 260 300 L 260 280 L 240 280 L 240 260 L 220 260 L 220 280 L 200 280 L 200 300 L 220 300 L 220 320 L 220 340 L 240 340 L 240 360 L 260 360 L 260 380 L 280 380 L 280 400 L 280 420 L 300 420 L 300 440 L 300 460 L 300 480 L 300 500 L 320 500 L 320 480 L 320 460 L 320 440 L 320 420 L 320 400 L 320 380 L 320 360 z M 200 280 L 200 260 L 180 260 L 180 280 L 200 280 z M 200 260 L 220 260 L 220 240 L 200 240 L 200 260 z M 200 240 L 200 220 L 180 220 L 180 240 L 200 240 z M 180 220 L 180 200 L 160 200 L 160 220 L 180 220 z M 180 200 L 200 200 L 200 180 L 180 180 L 180 200 z M 180 180 L 180 160 L 160 160 L 160 180 L 180 180 z M 180 160 L 200 160 L 200 140 L 180 140 L 180 160 z M 180 140 L 180 120 L 160 120 L 160 140 L 180 140 z M 180 120 L 200 120 L 200 100 L 180 100 L 180 120 z M 200 100 L 220 100 L 220 80 L 200 80 L 200 100 z M 220 80 L 240 80 L 240 60 L 220 60 L 220 80 z M 240 80 L 240 100 L 260 100 L 260 80 L 240 80 z M 240 100 L 220 100 L 220 120 L 240 120 L 240 100 z M 220 120 L 200 120 L 200 140 L 220 140 L 220 120 z M 200 160 L 200 180 L 220 180 L 220 160 L 200 160 z M 200 200 L 200 220 L 220 220 L 220 200 L 200 200 z M 220 220 L 220 240 L 240 240 L 240 220 L 220 220 z M 240 240 L 240 260 L 260 260 L 260 240 L 240 240 z M 260 240 L 280 240 L 280 220 L 260 220 L 260 240 z M 280 240 L 280 260 L 300 260 L 300 240 L 280 240 z M 300 240 L 320 240 L 320 220 L 300 220 L 300 240 z M 320 220 L 340 220 L 340 200 L 320 200 L 320 220 z M 340 220 L 340 240 L 360 240 L 360 220 L 340 220 z M 360 220 L 380 220 L 380 200 L 360 200 L 360 220 z M 340 240 L 320 240 L 320 260 L 340 260 L 340 240 z M 320 260 L 300 260 L 300 280 L 320 280 L 320 260 z M 300 280 L 280 280 L 280 300 L 300 300 L 300 280 z M 280 280 L 280 260 L 260 260 L 260 280 L 280 280 z M 400 160 L 400 140 L 380 140 L 380 160 L 400 160 z M 380 140 L 380 120 L 360 120 L 360 140 L 380 140 z M 360 140 L 340 140 L 340 160 L 360 160 L 360 140 z M 360 120 L 360 100 L 340 100 L 340 120 L 360 120 z M 340 100 L 340 80 L 320 80 L 320 100 L 340 100 z M 360 100 L 380 100 L 380 80 L 360 80 L 360 100 z M 300 80 L 280 80 L 280 100 L 300 100 L 300 80 z M 40 60 L 40 80 L 60 80 L 60 60 L 40 60 z M 600 60 L 600 80 L 620 80 L 620 60 L 600 60 z M 80 80 L 80 100 L 100 100 L 100 80 L 80 80 z M 560 80 L 560 100 L 580 100 L 580 80 L 560 80 z M 40 140 L 40 160 L 60 160 L 60 140 L 40 140 z M 600 140 L 600 160 L 620 160 L 620 140 L 600 140 z M 40 320 L 40 340 L 60 340 L 60 320 L 40 320 z M 80 320 L 80 340 L 100 340 L 100 320 L 80 320 z M 560 320 L 560 340 L 580 340 L 580 320 L 560 320 z M 600 320 L 600 340 L 620 340 L 620 320 L 600 320 z M 100 380 L 100 400 L 120 400 L 120 380 L 100 380 z M 520 380 L 520 400 L 540 400 L 540 380 L 520 380 z M 60 400 L 60 420 L 80 420 L 80 400 L 60 400 z M 560 400 L 560 420 L 580 420 L 580 400 L 560 400 z M 20 420 L 20 440 L 40 440 L 40 420 L 20 420 z M 140 420 L 140 440 L 160 440 L 160 420 L 140 420 z M 480 420 L 480 440 L 500 440 L 500 420 L 480 420 z M 600 420 L 600 440 L 620 440 L 620 420 L 600 420 z M 100 460 L 100 480 L 120 480 L 120 460 L 100 460 z M 520 460 L 520 480 L 540 480 L 540 460 L 520 460 z "
     id="rect766" />
  <path
     style="fill:#808000"
     d="M 220 20 L 220 40 L 240 40 L 260 40 L 260 20 L 240 20 L 220 20 z M 220 40 L 200 40 L 200 60 L 220 60 L 220 40 z M 200 60 L 180 60 L 180 80 L 200 80 L 200 60 z M 180 80 L 160 80 L 160 100 L 180 100 L 180 80 z M 160 100 L 140 100 L 140 120 L 140 140 L 160 140 L 160 120 L 160 100 z M 140 140 L 120 140 L 120 160 L 120 180 L 120 200 L 120 220 L 120 240 L 120 260 L 120 280 L 140 280 L 140 260 L 140 240 L 140 220 L 140 200 L 140 180 L 140 160 L 140 140 z M 140 280 L 140 300 L 160 300 L 160 280 L 140 280 z M 160 300 L 160 320 L 160 340 L 180 340 L 180 320 L 180 300 L 160 300 z M 180 340 L 180 360 L 200 360 L 200 340 L 180 340 z M 200 360 L 200 380 L 220 380 L 220 360 L 200 360 z M 220 380 L 220 400 L 220 420 L 240 420 L 240 400 L 240 380 L 220 380 z M 240 420 L 240 440 L 240 460 L 240 480 L 240 500 L 240 520 L 240 540 L 240 560 L 240 580 L 260 580 L 260 560 L 260 540 L 260 520 L 260 500 L 260 480 L 260 460 L 260 440 L 260 420 L 240 420 z "
     id="rect820" />
  <path
     style="fill:#808080"
     d="M 260 0 L 260 20 L 280 20 L 300 20 L 320 20 L 340 20 L 360 20 L 380 20 L 380 0 L 360 0 L 340 0 L 320 0 L 300 0 L 280 0 L 260 0 z M 380 20 L 380 40 L 400 40 L 400 20 L 380 20 z M 320 160 L 320 180 L 340 180 L 340 160 L 320 160 z M 280 200 L 280 220 L 300 220 L 300 200 L 280 200 z M 320 220 L 320 240 L 340 240 L 340 220 L 320 220 z M 320 260 L 320 280 L 340 280 L 340 260 L 320 260 z M 320 280 L 300 280 L 300 300 L 320 300 L 320 280 z M 320 300 L 320 320 L 320 340 L 340 340 L 340 320 L 340 300 L 320 300 z M 320 340 L 300 340 L 300 360 L 320 360 L 320 340 z M 280 500 L 280 520 L 300 520 L 320 520 L 340 520 L 340 500 L 320 500 L 300 500 L 280 500 z M 280 540 L 280 560 L 300 560 L 320 560 L 340 560 L 340 540 L 320 540 L 300 540 L 280 540 z M 280 580 L 280 600 L 300 600 L 320 600 L 340 600 L 340 580 L 320 580 L 300 580 L 280 580 z "
     id="rect844" />
  <path
     style="fill:#ffffff"
     d="M 260 20 L 260 40 L 260 60 L 280 60 L 280 40 L 300 40 L 300 60 L 320 60 L 320 40 L 340 40 L 340 60 L 360 60 L 360 40 L 380 40 L 380 20 L 360 20 L 340 20 L 320 20 L 300 20 L 280 20 L 260 20 z M 360 60 L 360 80 L 380 80 L 380 60 L 360 60 z M 380 80 L 380 100 L 400 100 L 400 80 L 380 80 z M 380 100 L 360 100 L 360 120 L 380 120 L 380 100 z M 380 120 L 380 140 L 400 140 L 400 120 L 380 120 z M 400 140 L 400 160 L 420 160 L 420 140 L 400 140 z M 400 160 L 380 160 L 380 140 L 360 140 L 360 160 L 340 160 L 340 180 L 320 180 L 320 160 L 340 160 L 340 140 L 360 140 L 360 120 L 340 120 L 340 100 L 320 100 L 320 80 L 300 80 L 300 100 L 280 100 L 280 80 L 260 80 L 260 100 L 240 100 L 240 120 L 220 120 L 220 140 L 200 140 L 200 160 L 220 160 L 220 180 L 200 180 L 200 200 L 220 200 L 220 220 L 240 220 L 240 240 L 260 240 L 260 220 L 280 220 L 280 200 L 300 200 L 300 220 L 320 220 L 320 200 L 340 200 L 340 220 L 360 220 L 360 200 L 380 200 L 380 180 L 400 180 L 400 160 z M 380 200 L 380 220 L 400 220 L 400 200 L 380 200 z M 380 220 L 360 220 L 360 240 L 380 240 L 380 220 z M 360 240 L 340 240 L 340 260 L 360 260 L 360 240 z M 300 220 L 280 220 L 280 240 L 300 240 L 300 220 z M 300 240 L 300 260 L 320 260 L 320 240 L 300 240 z M 300 260 L 280 260 L 280 280 L 300 280 L 300 260 z M 280 280 L 260 280 L 260 300 L 280 300 L 280 280 z M 280 300 L 280 320 L 300 320 L 300 300 L 280 300 z M 260 280 L 260 260 L 240 260 L 240 280 L 260 280 z M 240 260 L 240 240 L 220 240 L 220 260 L 240 260 z M 220 260 L 200 260 L 200 280 L 220 280 L 220 260 z M 200 280 L 180 280 L 180 260 L 200 260 L 200 240 L 180 240 L 180 220 L 160 220 L 160 200 L 180 200 L 180 180 L 160 180 L 160 160 L 180 160 L 180 140 L 160 140 L 140 140 L 140 160 L 140 180 L 140 200 L 140 220 L 140 240 L 140 260 L 140 280 L 160 280 L 160 300 L 180 300 L 180 320 L 180 340 L 200 340 L 200 360 L 220 360 L 220 380 L 240 380 L 240 400 L 240 420 L 260 420 L 260 440 L 260 460 L 260 480 L 260 500 L 260 520 L 260 540 L 260 560 L 260 580 L 260 600 L 280 600 L 280 580 L 300 580 L 320 580 L 340 580 L 360 580 L 360 560 L 340 560 L 320 560 L 300 560 L 280 560 L 280 540 L 300 540 L 320 540 L 340 540 L 360 540 L 360 520 L 340 520 L 320 520 L 300 520 L 280 520 L 280 500 L 300 500 L 300 480 L 300 460 L 300 440 L 300 420 L 280 420 L 280 400 L 280 380 L 260 380 L 260 360 L 240 360 L 240 340 L 220 340 L 220 320 L 220 300 L 200 300 L 200 280 z M 360 520 L 380 520 L 380 500 L 360 500 L 360 520 z M 360 540 L 360 560 L 380 560 L 380 540 L 360 540 z M 360 580 L 360 600 L 380 600 L 380 580 L 360 580 z M 360 600 L 340 600 L 320 600 L 300 600 L 280 600 L 280 620 L 300 620 L 320 620 L 340 620 L 360 620 L 360 600 z M 180 140 L 200 140 L 200 120 L 180 120 L 180 140 z M 180 120 L 180 100 L 160 100 L 160 120 L 180 120 z M 180 100 L 200 100 L 200 80 L 180 80 L 180 100 z M 200 80 L 220 80 L 220 60 L 200 60 L 200 80 z M 220 60 L 240 60 L 240 40 L 220 40 L 220 60 z M 240 60 L 240 80 L 260 80 L 260 60 L 240 60 z M 240 80 L 220 80 L 220 100 L 240 100 L 240 80 z M 220 100 L 200 100 L 200 120 L 220 120 L 220 100 z M 180 160 L 180 180 L 200 180 L 200 160 L 180 160 z M 180 200 L 180 220 L 200 220 L 200 200 L 180 200 z M 200 220 L 200 240 L 220 240 L 220 220 L 200 220 z M 260 260 L 280 260 L 280 240 L 260 240 L 260 260 z M 280 80 L 300 80 L 300 60 L 280 60 L 280 80 z M 320 80 L 340 80 L 340 60 L 320 60 L 320 80 z M 340 80 L 340 100 L 360 100 L 360 80 L 340 80 z M 400 40 L 400 60 L 420 60 L 420 40 L 400 40 z M 420 60 L 420 80 L 440 80 L 440 60 L 420 60 z M 440 80 L 440 100 L 460 100 L 460 80 L 440 80 z M 460 100 L 460 120 L 460 140 L 480 140 L 480 120 L 480 100 L 460 100 z M 480 140 L 480 160 L 480 180 L 480 200 L 480 220 L 480 240 L 480 260 L 480 280 L 500 280 L 500 260 L 500 240 L 500 220 L 500 200 L 500 180 L 500 160 L 500 140 L 480 140 z M 480 280 L 460 280 L 460 300 L 480 300 L 480 280 z M 460 300 L 440 300 L 440 320 L 440 340 L 460 340 L 460 320 L 460 300 z M 440 340 L 420 340 L 420 360 L 440 360 L 440 340 z M 420 360 L 400 360 L 400 380 L 420 380 L 420 360 z M 400 380 L 380 380 L 380 400 L 380 420 L 400 420 L 400 400 L 400 380 z M 380 420 L 360 420 L 360 440 L 360 460 L 360 480 L 380 480 L 380 460 L 380 440 L 380 420 z M 340 320 L 340 340 L 360 340 L 360 320 L 340 320 z M 320 360 L 320 380 L 320 400 L 320 420 L 320 440 L 320 460 L 320 480 L 320 500 L 340 500 L 340 480 L 340 460 L 340 440 L 340 420 L 340 400 L 340 380 L 340 360 L 320 360 z "
     id="rect860" />
  <path
     style="fill:#000000"
     d="M 400 20 L 400 40 L 420 40 L 420 20 L 400 20 z M 420 40 L 420 60 L 440 60 L 440 40 L 420 40 z M 440 60 L 440 80 L 460 80 L 460 60 L 440 60 z M 460 80 L 460 100 L 480 100 L 480 80 L 460 80 z M 480 100 L 480 120 L 480 140 L 500 140 L 500 120 L 500 100 L 480 100 z M 500 140 L 500 160 L 500 180 L 500 200 L 500 220 L 500 240 L 500 260 L 500 280 L 520 280 L 520 260 L 520 240 L 520 220 L 520 200 L 520 180 L 520 160 L 520 140 L 500 140 z M 500 280 L 480 280 L 480 300 L 500 300 L 500 280 z M 480 300 L 460 300 L 460 320 L 460 340 L 480 340 L 480 320 L 480 300 z M 460 340 L 440 340 L 440 360 L 460 360 L 460 340 z M 440 360 L 420 360 L 420 380 L 440 380 L 440 360 z M 420 380 L 400 380 L 400 400 L 400 420 L 420 420 L 420 400 L 420 380 z M 400 420 L 380 420 L 380 440 L 380 460 L 380 480 L 360 480 L 360 500 L 380 500 L 380 520 L 360 520 L 360 540 L 380 540 L 380 560 L 360 560 L 360 580 L 380 580 L 380 600 L 400 600 L 400 580 L 400 560 L 400 540 L 400 520 L 400 500 L 400 480 L 400 460 L 400 440 L 400 420 z M 380 600 L 360 600 L 360 620 L 380 620 L 380 600 z M 360 620 L 340 620 L 320 620 L 300 620 L 280 620 L 280 640 L 300 640 L 320 640 L 340 640 L 360 640 L 360 620 z M 280 620 L 280 600 L 260 600 L 260 620 L 280 620 z M 260 600 L 260 580 L 240 580 L 240 600 L 260 600 z M 360 600 L 360 580 L 340 580 L 340 600 L 360 600 z M 360 560 L 360 540 L 340 540 L 340 560 L 360 560 z M 360 520 L 360 500 L 340 500 L 340 520 L 360 520 z "
     id="rect870" />
</svg>
