<?xml version="1.0" encoding="UTF-8" standalone="no"?>
<svg
   xmlns:dc="http://purl.org/dc/elements/1.1/"
   xmlns:cc="http://creativecommons.org/ns#"
   xmlns:rdf="http://www.w3.org/1999/02/22-rdf-syntax-ns#"
   xmlns:svg="http://www.w3.org/2000/svg"
   xmlns="http://www.w3.org/2000/svg"
   xmlns:sodipodi="http://sodipodi.sourceforge.net/DTD/sodipodi-0.dtd"
   xmlns:inkscape="http://www.inkscape.org/namespaces/inkscape"
   id="svg1008"
   width="640px"
   version="1.1"
   height="640px"
   sodipodi:docname="chicago95_tmp_file.svg"
   inkscape:version="0.92.5 (2060ec1f9f, 2020-04-08)">
  <sodipodi:namedview
     pagecolor="#ffffff"
     bordercolor="#666666"
     borderopacity="1"
     objecttolerance="10"
     gridtolerance="10"
     guidetolerance="10"
     inkscape:pageopacity="0"
     inkscape:pageshadow="2"
     inkscape:window-width="640"
     inkscape:window-height="485"
     id="namedview507"
     showgrid="false"
     inkscape:zoom="0.36875"
     inkscape:cx="320"
     inkscape:cy="320"
     inkscape:window-x="0"
     inkscape:window-y="0"
     inkscape:window-maximized="0"
     inkscape:current-layer="svg1008" />
  <metadata
     id="metadata1012">
    <rdf:RDF>
      <cc:Work
         rdf:about="">
        <dc:format>image/svg+xml</dc:format>
        <dc:type
           rdf:resource="http://purl.org/dc/dcmitype/StillImage" />
      </cc:Work>
    </rdf:RDF>
  </metadata>
  <defs
     id="defs2" />
  <path
     style="fill:#ffffff"
     d="M 340 100 L 340 120 L 320 120 L 320 140 L 300 140 L 300 161 L 320 161 L 320 180 L 300 180 L 300 201 L 321 201 L 321 181 L 340 181 L 340 201 L 361 201 L 361 181 L 381 181 L 381 161 L 401 161 L 401 140 L 381 140 L 381 121 L 401 121 L 401 100 L 380 100 L 380 120 L 361 120 L 361 100 L 340 100 z M 341 121 L 360 121 L 360 140 L 341 140 L 341 121 z M 321 141 L 340 141 L 340 160 L 321 160 L 321 141 z M 361 141 L 380 141 L 380 160 L 361 160 L 361 141 z M 341 161 L 360 161 L 360 180 L 341 180 L 341 161 z M 280 420 L 280 440 L 260 440 L 260 460 L 240 460 L 240 480 L 220 480 L 220 501 L 240 501 L 240 521 L 261 521 L 261 501 L 280 501 L 280 521 L 301 521 L 301 501 L 320 501 L 320 521 L 341 521 L 341 501 L 360 501 L 360 521 L 381 521 L 381 501 L 400 501 L 400 521 L 421 521 L 421 501 L 441 501 L 441 480 L 421 480 L 421 460 L 401 460 L 401 440 L 381 440 L 381 420 L 360 420 L 360 440 L 341 440 L 341 420 L 320 420 L 320 440 L 301 440 L 301 420 L 280 420 z M 281 441 L 300 441 L 300 460 L 281 460 L 281 441 z M 321 441 L 340 441 L 340 460 L 321 460 L 321 441 z M 361 441 L 380 441 L 380 460 L 361 460 L 361 441 z M 261 461 L 280 461 L 280 480 L 261 480 L 261 461 z M 301 461 L 320 461 L 320 480 L 301 480 L 301 461 z M 341 461 L 360 461 L 360 480 L 341 480 L 341 461 z M 381 461 L 400 461 L 400 480 L 381 480 L 381 461 z M 241 481 L 260 481 L 260 500 L 241 500 L 241 481 z M 281 481 L 300 481 L 300 500 L 281 500 L 281 481 z M 321 481 L 340 481 L 340 500 L 321 500 L 321 481 z M 361 481 L 380 481 L 380 500 L 361 500 L 361 481 z M 401 481 L 420 481 L 420 500 L 401 500 L 401 481 z "
     id="rect820" />
  <path
     style="fill:#008080"
     d="M 220 40 L 220 60 L 201 60 L 200 60 L 180 60 L 180 80 L 160 80 L 160 100 L 140 100 L 140 120 L 140 121 L 140 140 L 120 140 L 120 160 L 120 161 L 120 180 L 120 181 L 120 200 L 120 201 L 120 221 L 140 221 L 140 240 L 140 241 L 140 261 L 160 261 L 160 281 L 180 281 L 181 281 L 200 281 L 200 301 L 221 301 L 221 281 L 240 281 L 240 301 L 261 301 L 261 281 L 280 281 L 280 301 L 301 301 L 301 280 L 281 280 L 281 260 L 261 260 L 261 240 L 241 240 L 241 220 L 221 220 L 221 201 L 241 201 L 241 180 L 221 180 L 221 161 L 241 161 L 241 141 L 261 141 L 261 120 L 241 120 L 241 101 L 261 101 L 261 81 L 281 81 L 281 61 L 281 60 L 281 40 L 261 40 L 260 40 L 241 40 L 240 40 L 220 40 z M 241 61 L 260 61 L 260 80 L 241 80 L 241 61 z M 181 81 L 200 81 L 200 100 L 181 100 L 181 81 z M 221 81 L 240 81 L 240 100 L 221 100 L 221 81 z M 161 101 L 180 101 L 180 120 L 161 120 L 161 101 z M 201 101 L 220 101 L 220 120 L 201 120 L 201 101 z M 181 121 L 200 121 L 200 140 L 181 140 L 181 121 z M 221 121 L 240 121 L 240 140 L 221 140 L 221 121 z M 161 141 L 180 141 L 180 160 L 161 160 L 161 141 z M 201 141 L 220 141 L 220 160 L 201 160 L 201 141 z M 141 161 L 160 161 L 160 180 L 141 180 L 141 161 z M 181 161 L 200 161 L 200 180 L 181 180 L 181 161 z M 161 181 L 180 181 L 180 200 L 161 200 L 161 181 z M 201 181 L 220 181 L 220 200 L 201 200 L 201 181 z M 141 201 L 160 201 L 160 220 L 141 220 L 141 201 z M 181 201 L 200 201 L 200 220 L 181 220 L 181 201 z M 161 221 L 180 221 L 180 240 L 161 240 L 161 221 z M 201 221 L 220 221 L 220 240 L 201 240 L 201 221 z M 181 241 L 200 241 L 200 260 L 181 260 L 181 241 z M 221 241 L 240 241 L 240 260 L 221 260 L 221 241 z M 201 261 L 220 261 L 220 280 L 201 280 L 201 261 z M 241 261 L 260 261 L 260 280 L 241 280 L 241 261 z M 160 360 L 160 380 L 160 381 L 160 400 L 141 400 L 141 380 L 120 380 L 120 400 L 100 400 L 100 420 L 80 420 L 80 440 L 60 440 L 60 460 L 60 461 L 60 480 L 40 480 L 40 500 L 40 501 L 40 521 L 60 521 L 60 540 L 40 540 L 40 561 L 60 561 L 61 561 L 80 561 L 81 561 L 101 561 L 101 541 L 120 541 L 120 561 L 141 561 L 141 541 L 161 541 L 161 520 L 141 520 L 141 501 L 161 501 L 161 481 L 181 481 L 181 460 L 161 460 L 161 441 L 181 441 L 181 421 L 201 421 L 201 401 L 221 401 L 221 381 L 240 381 L 241 381 L 260 381 L 261 381 L 281 381 L 281 360 L 261 360 L 260 360 L 241 360 L 240 360 L 221 360 L 220 360 L 201 360 L 200 360 L 181 360 L 180 360 L 160 360 z M 181 381 L 200 381 L 200 400 L 181 400 L 181 381 z M 121 401 L 140 401 L 140 420 L 121 420 L 121 401 z M 161 401 L 180 401 L 180 420 L 161 420 L 161 401 z M 101 421 L 120 421 L 120 440 L 101 440 L 101 421 z M 141 421 L 160 421 L 160 440 L 141 440 L 141 421 z M 81 441 L 100 441 L 100 460 L 81 460 L 81 441 z M 121 441 L 140 441 L 140 460 L 121 460 L 121 441 z M 101 461 L 120 461 L 120 480 L 101 480 L 101 461 z M 141 461 L 160 461 L 160 480 L 141 480 L 141 461 z M 81 481 L 100 481 L 100 500 L 81 500 L 81 481 z M 121 481 L 140 481 L 140 500 L 121 500 L 121 481 z M 61 501 L 80 501 L 80 520 L 61 520 L 61 501 z M 101 501 L 120 501 L 120 520 L 101 520 L 101 501 z M 81 521 L 100 521 L 100 540 L 81 540 L 81 521 z M 121 521 L 140 521 L 140 540 L 121 540 L 121 521 z "
     id="rect904" />
  <path
     style="fill:#c0c0c0"
     d="M 360 60 L 360 80 L 340 80 L 340 100 L 320 100 L 320 120 L 300 120 L 300 140 L 280 140 L 280 160 L 280 161 L 280 180 L 280 181 L 280 201 L 300 201 L 300 221 L 320 221 L 320 241 L 340 241 L 340 261 L 361 261 L 361 241 L 380 241 L 380 261 L 401 261 L 401 241 L 421 241 L 421 221 L 441 221 L 441 201 L 461 201 L 461 180 L 441 180 L 441 161 L 461 161 L 461 140 L 441 140 L 441 120 L 421 120 L 421 100 L 401 100 L 401 80 L 381 80 L 381 60 L 360 60 z M 200 100 L 200 120 L 180 120 L 180 140 L 160 140 L 160 161 L 180 161 L 180 180 L 160 180 L 160 201 L 180 201 L 180 221 L 200 221 L 200 241 L 221 241 L 221 221 L 240 221 L 240 241 L 261 241 L 261 220 L 241 220 L 241 200 L 221 200 L 221 181 L 241 181 L 241 160 L 221 160 L 221 141 L 241 141 L 241 121 L 261 121 L 261 100 L 240 100 L 240 120 L 221 120 L 221 100 L 200 100 z M 341 101 L 360 101 L 360 120 L 341 120 L 341 101 z M 381 101 L 400 101 L 400 120 L 381 120 L 381 101 z M 201 121 L 220 121 L 220 140 L 201 140 L 201 121 z M 321 121 L 340 121 L 340 140 L 321 140 L 321 121 z M 361 121 L 380 121 L 380 140 L 361 140 L 361 121 z M 181 141 L 200 141 L 200 160 L 181 160 L 181 141 z M 301 141 L 320 141 L 320 160 L 301 160 L 301 141 z M 341 141 L 360 141 L 360 160 L 341 160 L 341 141 z M 381 141 L 400 141 L 400 160 L 381 160 L 381 141 z M 421 141 L 440 141 L 440 160 L 421 160 L 421 141 z M 201 161 L 220 161 L 220 180 L 201 180 L 201 161 z M 321 161 L 340 161 L 340 180 L 321 180 L 321 161 z M 361 161 L 380 161 L 380 180 L 361 180 L 361 161 z M 401 161 L 420 161 L 420 180 L 401 180 L 401 161 z M 181 181 L 200 181 L 200 200 L 181 200 L 181 181 z M 301 181 L 320 181 L 320 200 L 301 200 L 301 181 z M 341 181 L 360 181 L 360 200 L 341 200 L 341 181 z M 381 181 L 400 181 L 400 200 L 381 200 L 381 181 z M 421 181 L 440 181 L 440 200 L 421 200 L 421 181 z M 201 201 L 220 201 L 220 220 L 201 220 L 201 201 z M 321 201 L 340 201 L 340 220 L 321 220 L 321 201 z M 361 201 L 380 201 L 380 220 L 361 220 L 361 201 z M 401 201 L 420 201 L 420 220 L 401 220 L 401 201 z M 341 221 L 360 221 L 360 240 L 341 240 L 341 221 z M 381 221 L 400 221 L 400 240 L 381 240 L 381 221 z M 220 380 L 220 400 L 200 400 L 200 420 L 181 420 L 181 400 L 160 400 L 160 420 L 140 420 L 140 440 L 120 440 L 120 460 L 100 460 L 100 480 L 80 480 L 80 501 L 100 501 L 100 520 L 80 520 L 80 541 L 100 541 L 100 561 L 121 561 L 121 541 L 140 541 L 140 561 L 161 561 L 161 540 L 141 540 L 141 521 L 161 521 L 161 500 L 141 500 L 141 481 L 161 481 L 161 461 L 181 461 L 181 441 L 201 441 L 201 421 L 221 421 L 221 401 L 241 401 L 241 380 L 220 380 z M 260 400 L 260 420 L 240 420 L 240 440 L 220 440 L 220 460 L 220 461 L 220 480 L 200 480 L 200 501 L 220 501 L 220 520 L 200 520 L 200 541 L 221 541 L 221 521 L 240 521 L 240 541 L 261 541 L 261 521 L 280 521 L 280 541 L 301 541 L 301 521 L 320 521 L 320 541 L 341 541 L 341 521 L 360 521 L 360 541 L 381 541 L 381 521 L 400 521 L 400 541 L 421 541 L 421 521 L 440 521 L 440 541 L 461 541 L 461 521 L 480 521 L 480 541 L 501 541 L 501 520 L 481 520 L 481 501 L 501 501 L 501 480 L 481 480 L 481 460 L 461 460 L 461 440 L 440 440 L 440 460 L 421 460 L 421 441 L 421 440 L 421 420 L 401 420 L 401 400 L 381 400 L 380 400 L 361 400 L 360 400 L 341 400 L 340 400 L 321 400 L 320 400 L 301 400 L 300 400 L 281 400 L 280 400 L 260 400 z M 161 421 L 180 421 L 180 440 L 161 440 L 161 421 z M 281 421 L 300 421 L 300 440 L 281 440 L 281 421 z M 321 421 L 340 421 L 340 440 L 321 440 L 321 421 z M 361 421 L 380 421 L 380 440 L 361 440 L 361 421 z M 141 441 L 160 441 L 160 460 L 141 460 L 141 441 z M 261 441 L 280 441 L 280 460 L 261 460 L 261 441 z M 301 441 L 320 441 L 320 460 L 301 460 L 301 441 z M 341 441 L 360 441 L 360 460 L 341 460 L 341 441 z M 381 441 L 400 441 L 400 460 L 381 460 L 381 441 z M 121 461 L 140 461 L 140 480 L 121 480 L 121 461 z M 241 461 L 260 461 L 260 480 L 241 480 L 241 461 z M 281 461 L 300 461 L 300 480 L 281 480 L 281 461 z M 321 461 L 340 461 L 340 480 L 321 480 L 321 461 z M 361 461 L 380 461 L 380 480 L 361 480 L 361 461 z M 401 461 L 420 461 L 420 480 L 401 480 L 401 461 z M 441 461 L 460 461 L 460 480 L 441 480 L 441 461 z M 101 481 L 120 481 L 120 500 L 101 500 L 101 481 z M 221 481 L 240 481 L 240 500 L 221 500 L 221 481 z M 261 481 L 280 481 L 280 500 L 261 500 L 261 481 z M 301 481 L 320 481 L 320 500 L 301 500 L 301 481 z M 341 481 L 360 481 L 360 500 L 341 500 L 341 481 z M 381 481 L 400 481 L 400 500 L 381 500 L 381 481 z M 421 481 L 440 481 L 440 500 L 421 500 L 421 481 z M 461 481 L 480 481 L 480 500 L 461 500 L 461 481 z M 121 501 L 140 501 L 140 520 L 121 520 L 121 501 z M 241 501 L 260 501 L 260 520 L 241 520 L 241 501 z M 281 501 L 300 501 L 300 520 L 281 520 L 281 501 z M 321 501 L 340 501 L 340 520 L 321 520 L 321 501 z M 361 501 L 380 501 L 380 520 L 361 520 L 361 501 z M 401 501 L 420 501 L 420 520 L 401 520 L 401 501 z M 441 501 L 460 501 L 460 520 L 441 520 L 441 501 z M 101 521 L 120 521 L 120 540 L 101 540 L 101 521 z "
     id="rect906" />
  <path
     style="fill:#808080"
     d="M 280 40 L 280 60 L 280 61 L 280 80 L 261 80 L 261 60 L 240 60 L 240 80 L 220 80 L 220 101 L 241 101 L 241 81 L 260 81 L 260 101 L 280 101 L 280 120 L 280 121 L 280 140 L 260 140 L 260 160 L 260 161 L 260 180 L 260 181 L 260 200 L 240 200 L 240 221 L 261 221 L 261 201 L 280 201 L 280 221 L 300 221 L 300 240 L 280 240 L 280 261 L 300 261 L 300 281 L 321 281 L 321 261 L 340 261 L 340 281 L 360 281 L 360 301 L 381 301 L 381 281 L 400 281 L 400 301 L 421 301 L 421 281 L 441 281 L 441 261 L 461 261 L 461 241 L 481 241 L 481 221 L 501 221 L 501 200 L 481 200 L 481 181 L 501 181 L 501 160 L 481 160 L 481 140 L 461 140 L 461 121 L 481 121 L 481 100 L 461 100 L 461 80 L 440 80 L 440 100 L 421 100 L 421 80 L 401 80 L 401 61 L 421 61 L 421 40 L 400 40 L 400 60 L 380 60 L 380 81 L 400 81 L 400 101 L 420 101 L 420 121 L 440 121 L 440 140 L 420 140 L 420 160 L 400 160 L 400 180 L 380 180 L 380 200 L 360 200 L 360 220 L 341 220 L 341 200 L 320 200 L 320 220 L 301 220 L 301 200 L 281 200 L 281 181 L 281 180 L 281 161 L 281 160 L 281 141 L 301 141 L 301 121 L 321 121 L 321 101 L 341 101 L 341 81 L 361 81 L 361 60 L 340 60 L 340 80 L 321 80 L 320 80 L 301 80 L 301 61 L 301 60 L 301 40 L 280 40 z M 180 80 L 180 100 L 160 100 L 160 121 L 181 121 L 181 101 L 201 101 L 201 80 L 180 80 z M 281 81 L 300 81 L 300 100 L 281 100 L 281 81 z M 441 101 L 460 101 L 460 120 L 441 120 L 441 101 z M 441 141 L 460 141 L 460 160 L 441 160 L 441 141 z M 140 160 L 140 181 L 161 181 L 161 160 L 140 160 z M 421 161 L 440 161 L 440 180 L 421 180 L 421 161 z M 461 161 L 480 161 L 480 180 L 461 180 L 461 161 z M 401 181 L 420 181 L 420 200 L 401 200 L 401 181 z M 441 181 L 460 181 L 460 200 L 441 200 L 441 181 z M 140 200 L 140 221 L 160 221 L 160 241 L 180 241 L 180 261 L 200 261 L 200 281 L 220 281 L 220 301 L 241 301 L 241 281 L 260 281 L 260 301 L 281 301 L 281 280 L 261 280 L 261 260 L 241 260 L 241 240 L 220 240 L 220 260 L 201 260 L 201 240 L 181 240 L 181 220 L 161 220 L 161 200 L 140 200 z M 381 201 L 400 201 L 400 220 L 381 220 L 381 201 z M 421 201 L 440 201 L 440 220 L 421 220 L 421 201 z M 461 201 L 480 201 L 480 220 L 461 220 L 461 201 z M 321 221 L 340 221 L 340 240 L 321 240 L 321 221 z M 361 221 L 380 221 L 380 240 L 361 240 L 361 221 z M 401 221 L 420 221 L 420 240 L 401 240 L 401 221 z M 441 221 L 460 221 L 460 240 L 441 240 L 441 221 z M 301 241 L 320 241 L 320 260 L 301 260 L 301 241 z M 341 241 L 360 241 L 360 260 L 341 260 L 341 241 z M 381 241 L 400 241 L 400 260 L 381 260 L 381 241 z M 421 241 L 440 241 L 440 260 L 421 260 L 421 241 z M 221 261 L 240 261 L 240 280 L 221 280 L 221 261 z M 361 261 L 380 261 L 380 280 L 361 280 L 361 261 z M 401 261 L 420 261 L 420 280 L 401 280 L 401 261 z M 320 360 L 320 380 L 301 380 L 300 380 L 280 380 L 280 401 L 300 401 L 301 401 L 320 401 L 321 401 L 340 401 L 341 401 L 360 401 L 361 401 L 380 401 L 381 401 L 400 401 L 400 421 L 420 421 L 420 440 L 420 441 L 420 461 L 440 461 L 440 481 L 460 481 L 460 500 L 440 500 L 440 520 L 420 520 L 420 540 L 401 540 L 401 520 L 380 520 L 380 540 L 361 540 L 361 520 L 340 520 L 340 540 L 321 540 L 321 520 L 300 520 L 300 540 L 281 540 L 281 520 L 260 520 L 260 540 L 241 540 L 241 520 L 221 520 L 221 500 L 201 500 L 201 481 L 221 481 L 221 461 L 221 460 L 221 441 L 241 441 L 241 421 L 261 421 L 261 400 L 240 400 L 240 420 L 220 420 L 220 440 L 200 440 L 200 460 L 200 461 L 200 480 L 180 480 L 180 500 L 180 501 L 180 520 L 180 521 L 180 540 L 180 541 L 180 561 L 200 561 L 201 561 L 220 561 L 221 561 L 240 561 L 241 561 L 260 561 L 261 561 L 280 561 L 281 561 L 300 561 L 301 561 L 320 561 L 321 561 L 340 561 L 341 561 L 360 561 L 361 561 L 380 561 L 381 561 L 400 561 L 401 561 L 420 561 L 421 561 L 440 561 L 441 561 L 460 561 L 461 561 L 480 561 L 481 561 L 500 561 L 501 561 L 520 561 L 521 561 L 540 561 L 541 561 L 560 561 L 561 561 L 581 561 L 581 541 L 601 541 L 601 520 L 581 520 L 581 500 L 561 500 L 561 480 L 541 480 L 541 461 L 561 461 L 561 440 L 541 440 L 541 420 L 521 420 L 521 400 L 500 400 L 500 420 L 481 420 L 481 400 L 461 400 L 461 380 L 440 380 L 440 400 L 421 400 L 421 380 L 401 380 L 400 380 L 381 380 L 381 360 L 361 360 L 360 360 L 341 360 L 340 360 L 320 360 z M 140 380 L 140 400 L 120 400 L 120 420 L 100 420 L 100 440 L 80 440 L 80 461 L 101 461 L 101 441 L 121 441 L 121 421 L 141 421 L 141 401 L 161 401 L 161 380 L 140 380 z M 180 380 L 180 401 L 201 401 L 201 380 L 180 380 z M 441 401 L 460 401 L 460 420 L 441 420 L 441 401 z M 461 421 L 480 421 L 480 440 L 461 440 L 461 421 z M 501 421 L 520 421 L 520 440 L 501 440 L 501 421 z M 441 441 L 460 441 L 460 460 L 441 460 L 441 441 z M 481 441 L 500 441 L 500 460 L 481 460 L 481 441 z M 521 441 L 540 441 L 540 460 L 521 460 L 521 441 z M 461 461 L 480 461 L 480 480 L 461 480 L 461 461 z M 501 461 L 520 461 L 520 480 L 501 480 L 501 461 z M 481 481 L 500 481 L 500 500 L 481 500 L 481 481 z M 521 481 L 540 481 L 540 500 L 521 500 L 521 481 z M 60 500 L 60 520 L 40 520 L 40 541 L 61 541 L 61 521 L 81 521 L 81 500 L 60 500 z M 461 501 L 480 501 L 480 520 L 461 520 L 461 501 z M 541 501 L 560 501 L 560 520 L 541 520 L 541 501 z M 201 521 L 220 521 L 220 540 L 201 540 L 201 521 z M 441 521 L 460 521 L 460 540 L 441 540 L 441 521 z M 481 521 L 500 521 L 500 540 L 481 540 L 481 521 z M 521 521 L 540 521 L 540 540 L 521 540 L 521 521 z M 561 521 L 580 521 L 580 540 L 561 540 L 561 521 z "
     id="rect948" />
  <path
     style="fill:#000000"
     d="M 340 40 L 340 60 L 321 60 L 320 60 L 300 60 L 300 80 L 280 80 L 280 100 L 260 100 L 260 120 L 260 121 L 260 140 L 240 140 L 240 160 L 240 161 L 240 180 L 240 181 L 240 201 L 260 201 L 260 220 L 260 221 L 260 240 L 260 241 L 260 261 L 280 261 L 280 281 L 300 281 L 300 300 L 281 300 L 280 300 L 261 300 L 260 300 L 241 300 L 240 300 L 220 300 L 220 321 L 240 321 L 241 321 L 260 321 L 261 321 L 280 321 L 281 321 L 301 321 L 301 301 L 320 301 L 321 301 L 340 301 L 340 321 L 360 321 L 361 321 L 380 321 L 381 321 L 400 321 L 401 321 L 421 321 L 421 301 L 440 301 L 441 301 L 461 301 L 461 281 L 481 281 L 481 261 L 501 261 L 501 241 L 501 240 L 501 221 L 521 221 L 521 201 L 521 200 L 521 181 L 521 180 L 521 161 L 521 160 L 521 140 L 501 140 L 501 121 L 501 120 L 501 100 L 481 100 L 481 80 L 461 80 L 461 60 L 441 60 L 440 60 L 421 60 L 420 60 L 401 60 L 401 40 L 381 40 L 380 40 L 361 40 L 360 40 L 340 40 z M 341 61 L 360 61 L 361 61 L 380 61 L 381 61 L 400 61 L 400 81 L 420 81 L 420 101 L 440 101 L 440 121 L 460 121 L 460 141 L 480 141 L 480 160 L 460 160 L 460 181 L 480 181 L 480 200 L 460 200 L 460 220 L 440 220 L 440 240 L 420 240 L 420 260 L 400 260 L 400 280 L 381 280 L 381 260 L 360 260 L 360 280 L 341 280 L 341 260 L 321 260 L 321 240 L 301 240 L 301 220 L 281 220 L 281 200 L 261 200 L 261 181 L 261 180 L 261 161 L 261 160 L 261 141 L 281 141 L 281 121 L 281 120 L 281 101 L 301 101 L 301 81 L 320 81 L 321 81 L 341 81 L 341 61 z M 441 81 L 460 81 L 460 100 L 441 100 L 441 81 z M 461 101 L 480 101 L 480 120 L 461 120 L 461 101 z M 481 161 L 500 161 L 500 180 L 481 180 L 481 161 z M 481 201 L 500 201 L 500 220 L 481 220 L 481 201 z M 461 221 L 480 221 L 480 240 L 461 240 L 461 221 z M 281 241 L 300 241 L 300 260 L 281 260 L 281 241 z M 441 241 L 460 241 L 460 260 L 441 260 L 441 241 z M 301 261 L 320 261 L 320 280 L 301 280 L 301 261 z M 421 261 L 440 261 L 440 280 L 421 280 L 421 261 z M 180 280 L 180 301 L 201 301 L 201 280 L 180 280 z M 361 281 L 380 281 L 380 300 L 361 300 L 361 281 z M 401 281 L 420 281 L 420 300 L 401 300 L 401 281 z M 280 360 L 280 380 L 261 380 L 260 380 L 240 380 L 240 400 L 220 400 L 220 420 L 200 420 L 200 440 L 180 440 L 180 460 L 180 461 L 180 480 L 160 480 L 160 500 L 160 501 L 160 520 L 160 521 L 160 540 L 160 541 L 160 560 L 141 560 L 140 560 L 121 560 L 120 560 L 101 560 L 100 560 L 81 560 L 80 560 L 61 560 L 60 560 L 40 560 L 40 581 L 60 581 L 61 581 L 80 581 L 81 581 L 100 581 L 101 581 L 120 581 L 121 581 L 140 581 L 141 581 L 160 581 L 161 581 L 180 581 L 181 581 L 200 581 L 201 581 L 220 581 L 221 581 L 240 581 L 241 581 L 260 581 L 261 581 L 280 581 L 281 581 L 300 581 L 301 581 L 320 581 L 321 581 L 340 581 L 341 581 L 360 581 L 361 581 L 380 581 L 381 581 L 400 581 L 401 581 L 420 581 L 421 581 L 440 581 L 441 581 L 460 581 L 461 581 L 480 581 L 481 581 L 500 581 L 501 581 L 520 581 L 521 581 L 540 581 L 541 581 L 560 581 L 561 581 L 580 581 L 581 581 L 601 581 L 601 561 L 601 560 L 601 540 L 581 540 L 581 521 L 601 521 L 601 501 L 601 500 L 601 480 L 581 480 L 581 461 L 581 460 L 581 440 L 561 440 L 561 420 L 541 420 L 541 400 L 521 400 L 521 380 L 501 380 L 500 380 L 481 380 L 481 360 L 461 360 L 460 360 L 441 360 L 440 360 L 421 360 L 420 360 L 401 360 L 400 360 L 380 360 L 380 381 L 400 381 L 401 381 L 420 381 L 420 401 L 440 401 L 440 421 L 460 421 L 460 441 L 480 441 L 480 461 L 500 461 L 500 481 L 520 481 L 520 501 L 540 501 L 540 520 L 520 520 L 520 541 L 541 541 L 541 521 L 560 521 L 560 541 L 580 541 L 580 560 L 561 560 L 560 560 L 541 560 L 540 560 L 521 560 L 520 560 L 501 560 L 500 560 L 481 560 L 480 560 L 461 560 L 460 560 L 441 560 L 440 560 L 421 560 L 420 560 L 401 560 L 400 560 L 381 560 L 380 560 L 361 560 L 360 560 L 341 560 L 340 560 L 321 560 L 320 560 L 301 560 L 300 560 L 281 560 L 280 560 L 261 560 L 260 560 L 241 560 L 240 560 L 221 560 L 220 560 L 201 560 L 200 560 L 181 560 L 181 541 L 181 540 L 181 521 L 181 520 L 181 501 L 181 500 L 181 481 L 201 481 L 201 461 L 201 460 L 201 441 L 221 441 L 221 421 L 241 421 L 241 401 L 260 401 L 261 401 L 281 401 L 281 381 L 300 381 L 301 381 L 321 381 L 321 360 L 301 360 L 300 360 L 280 360 z M 441 381 L 460 381 L 460 400 L 441 400 L 441 381 z M 461 401 L 480 401 L 480 420 L 461 420 L 461 401 z M 501 401 L 520 401 L 520 420 L 501 420 L 501 401 z M 481 421 L 500 421 L 500 440 L 481 440 L 481 421 z M 521 421 L 540 421 L 540 440 L 521 440 L 521 421 z M 501 441 L 520 441 L 520 460 L 501 460 L 501 441 z M 541 441 L 560 441 L 560 460 L 541 460 L 541 441 z M 521 461 L 540 461 L 540 480 L 521 480 L 521 461 z M 541 481 L 560 481 L 560 500 L 541 500 L 541 481 z M 561 501 L 580 501 L 580 520 L 561 520 L 561 501 z "
     id="rect1006" />
</svg>
