<?xml version="1.0" encoding="UTF-8" standalone="no"?>
<svg
   xmlns:dc="http://purl.org/dc/elements/1.1/"
   xmlns:cc="http://creativecommons.org/ns#"
   xmlns:rdf="http://www.w3.org/1999/02/22-rdf-syntax-ns#"
   xmlns:svg="http://www.w3.org/2000/svg"
   xmlns="http://www.w3.org/2000/svg"
   id="svg580"
   width="640px"
   version="1.1"
   height="640px">
  <metadata
     id="metadata584">
    <rdf:RDF>
      <cc:Work
         rdf:about="">
        <dc:format>image/svg+xml</dc:format>
        <dc:type
           rdf:resource="http://purl.org/dc/dcmitype/StillImage" />
      </cc:Work>
    </rdf:RDF>
  </metadata>
  <defs
     id="defs2" />
  <path
     style="fill:#ff0000"
     d="M 0 140 L 0 160 L 0 180 L 20 180 L 40 180 L 60 180 L 60 200 L 80 200 L 80 220 L 100 220 L 100 240 L 120 240 L 120 260 L 140 260 L 140 280 L 160 280 L 160 300 L 180 300 L 180 320 L 200 320 L 200 340 L 200 360 L 220 360 L 220 380 L 220 400 L 220 420 L 220 440 L 200 440 L 180 440 L 160 440 L 140 440 L 140 460 L 140 480 L 160 480 L 180 480 L 200 480 L 220 480 L 240 480 L 260 480 L 280 480 L 300 480 L 320 480 L 340 480 L 360 480 L 380 480 L 380 460 L 380 440 L 360 440 L 340 440 L 320 440 L 320 420 L 320 400 L 320 380 L 320 360 L 320 340 L 340 340 L 340 320 L 360 320 L 360 300 L 380 300 L 380 280 L 400 280 L 400 260 L 420 260 L 420 240 L 440 240 L 460 240 L 460 220 L 480 220 L 500 220 L 500 200 L 500 180 L 480 180 L 460 180 L 440 180 L 420 180 L 400 180 L 380 180 L 360 180 L 340 180 L 320 180 L 300 180 L 300 200 L 300 220 L 320 220 L 340 220 L 360 220 L 360 240 L 340 240 L 340 260 L 320 260 L 320 280 L 300 280 L 300 300 L 280 300 L 280 280 L 260 280 L 260 260 L 240 260 L 240 240 L 220 240 L 220 220 L 200 220 L 200 200 L 180 200 L 180 180 L 200 180 L 220 180 L 240 180 L 260 180 L 260 160 L 260 140 L 240 140 L 220 140 L 200 140 L 180 140 L 160 140 L 140 140 L 120 140 L 100 140 L 80 140 L 60 140 L 40 140 L 20 140 L 0 140 z M 540 180 L 540 200 L 520 200 L 520 220 L 520 240 L 520 260 L 500 260 L 500 280 L 500 300 L 500 320 L 480 320 L 480 340 L 480 360 L 480 380 L 480 400 L 500 400 L 520 400 L 540 400 L 540 380 L 560 380 L 560 360 L 560 340 L 580 340 L 580 320 L 600 320 L 600 300 L 600 280 L 620 280 L 620 260 L 620 240 L 640 240 L 640 220 L 620 220 L 620 200 L 600 200 L 580 200 L 580 180 L 560 180 L 540 180 z M 440 420 L 440 440 L 440 460 L 440 480 L 460 480 L 480 480 L 500 480 L 500 460 L 500 440 L 500 420 L 480 420 L 460 420 L 440 420 z "
     id="rect546" />
  <path
     style="fill:#000000"
     d="M 260 160 L 260 180 L 240 180 L 220 180 L 200 180 L 180 180 L 180 200 L 200 200 L 220 200 L 240 200 L 260 200 L 280 200 L 280 180 L 280 160 L 260 160 z M 20 180 L 20 200 L 40 200 L 60 200 L 60 180 L 40 180 L 20 180 z M 500 200 L 500 220 L 480 220 L 460 220 L 460 240 L 440 240 L 420 240 L 420 260 L 400 260 L 400 280 L 380 280 L 380 300 L 360 300 L 360 320 L 340 320 L 340 340 L 320 340 L 320 360 L 320 380 L 320 400 L 320 420 L 320 440 L 340 440 L 340 420 L 340 400 L 340 380 L 340 360 L 360 360 L 360 340 L 380 340 L 380 320 L 400 320 L 400 300 L 420 300 L 420 280 L 440 280 L 440 260 L 460 260 L 480 260 L 480 240 L 500 240 L 520 240 L 520 220 L 520 200 L 500 200 z M 320 220 L 320 240 L 340 240 L 360 240 L 360 220 L 340 220 L 320 220 z M 620 240 L 620 260 L 620 280 L 600 280 L 600 300 L 600 320 L 580 320 L 580 340 L 560 340 L 560 360 L 560 380 L 540 380 L 540 400 L 520 400 L 500 400 L 500 420 L 520 420 L 540 420 L 560 420 L 560 400 L 580 400 L 580 380 L 580 360 L 600 360 L 600 340 L 620 340 L 620 320 L 620 300 L 640 300 L 640 280 L 640 260 L 640 240 L 620 240 z M 500 440 L 500 460 L 500 480 L 480 480 L 460 480 L 460 500 L 480 500 L 500 500 L 520 500 L 520 480 L 520 460 L 520 440 L 500 440 z M 380 460 L 380 480 L 360 480 L 340 480 L 320 480 L 300 480 L 280 480 L 260 480 L 240 480 L 220 480 L 200 480 L 180 480 L 160 480 L 160 500 L 180 500 L 200 500 L 220 500 L 240 500 L 260 500 L 280 500 L 300 500 L 320 500 L 340 500 L 360 500 L 380 500 L 400 500 L 400 480 L 400 460 L 380 460 z "
     id="rect578" />
</svg>
