<?xml version="1.0" encoding="UTF-8" standalone="no"?>
<svg
   xmlns:dc="http://purl.org/dc/elements/1.1/"
   xmlns:cc="http://creativecommons.org/ns#"
   xmlns:rdf="http://www.w3.org/1999/02/22-rdf-syntax-ns#"
   xmlns:svg="http://www.w3.org/2000/svg"
   xmlns="http://www.w3.org/2000/svg"
   height="920px"
   version="1.1"
   width="960px"
   id="svg3254">
  <metadata
     id="metadata3258">
    <rdf:RDF>
      <cc:Work
         rdf:about="">
        <dc:format>image/svg+xml</dc:format>
        <dc:type
           rdf:resource="http://purl.org/dc/dcmitype/StillImage" />
      </cc:Work>
    </rdf:RDF>
  </metadata>
  <defs
     id="defs2" />
  <path
     id="rect216"
     d="M 480 160 L 480 180 L 500 180 L 500 160 L 480 160 z "
     style="fill:#f1f136" />
  <path
     id="rect1364"
     d="M 20 480 L 20 500 L 40 500 L 40 480 L 20 480 z "
     style="fill:#404040" />
  <path
     id="rect1370"
     d="M 60 480 L 60 500 L 80 500 L 100 500 L 100 480 L 80 480 L 60 480 z "
     style="fill:#a1a1a1" />
  <path
     id="rect1382"
     d="M 180 480 L 180 500 L 200 500 L 220 500 L 220 480 L 200 480 L 180 480 z "
     style="fill:#bcbcbc" />
  <path
     id="rect1384"
     d="M 160 480 L 160 500 L 180 500 L 180 480 L 160 480 z M 220 480 L 220 500 L 240 500 L 240 480 L 220 480 z "
     style="fill:#9595d9" />
  <path
     id="rect1406"
     d="M 360 480 L 360 500 L 380 500 L 400 500 L 400 480 L 380 480 L 360 480 z M 440 480 L 440 500 L 460 500 L 460 480 L 440 480 z "
     style="fill:#ffffbb" />
  <path
     id="rect1408"
     d="M 400 480 L 400 500 L 420 500 L 440 500 L 440 480 L 420 480 L 400 480 z M 460 480 L 460 500 L 480 500 L 480 480 L 460 480 z "
     style="fill:#ffff44" />
  <path
     id="rect1410"
     d="M 480 480 L 480 500 L 500 500 L 500 480 L 480 480 z "
     style="fill:#dfdf3f" />
  <path
     id="rect1430"
     d="M 620 480 L 620 500 L 640 500 L 640 480 L 620 480 z M 680 480 L 680 500 L 700 500 L 700 480 L 680 480 z "
     style="fill:#af6baf" />
  <path
     id="rect1434"
     d="M 640 480 L 640 500 L 660 500 L 680 500 L 680 480 L 660 480 L 640 480 z M 700 480 L 700 500 L 720 500 L 740 500 L 740 480 L 720 480 L 700 480 z "
     style="fill:#e227e2" />
  <path
     id="rect2546"
     d="M 480 180 L 480 200 L 480 220 L 500 220 L 500 200 L 500 180 L 480 180 z M 480 240 L 480 260 L 480 280 L 500 280 L 500 260 L 500 240 L 480 240 z M 480 300 L 480 320 L 480 340 L 500 340 L 500 320 L 500 300 L 480 300 z M 480 360 L 480 380 L 480 400 L 500 400 L 500 380 L 500 360 L 480 360 z M 480 420 L 480 440 L 480 460 L 500 460 L 500 440 L 500 420 L 480 420 z M 480 500 L 480 520 L 500 520 L 500 500 L 480 500 z M 480 560 L 480 580 L 500 580 L 500 560 L 480 560 z M 480 620 L 480 640 L 500 640 L 500 620 L 480 620 z M 480 680 L 480 700 L 500 700 L 500 680 L 480 680 z M 480 740 L 480 760 L 500 760 L 500 740 L 480 740 z "
     style="fill:#ddddbb" />
  <path
     id="rect2572"
     d="M 760 240 L 760 260 L 760 280 L 740 280 L 740 300 L 740 320 L 740 340 L 740 360 L 740 380 L 740 400 L 740 420 L 740 440 L 740 460 L 740 480 L 740 500 L 740 520 L 740 540 L 740 560 L 740 580 L 740 600 L 740 620 L 740 640 L 740 660 L 740 680 L 740 700 L 740 720 L 740 740 L 740 760 L 760 760 L 760 740 L 780 740 L 800 740 L 800 720 L 800 700 L 800 680 L 800 660 L 800 640 L 800 620 L 800 600 L 800 580 L 800 560 L 800 540 L 800 520 L 800 500 L 800 480 L 800 460 L 800 440 L 800 420 L 800 400 L 800 380 L 800 360 L 800 340 L 800 320 L 800 300 L 800 280 L 800 260 L 800 240 L 780 240 L 760 240 z "
     style="fill:#800080" />
  <path
     id="rect2700"
     d="M 220 360 L 220 380 L 220 400 L 200 400 L 180 400 L 180 420 L 160 420 L 160 440 L 160 460 L 180 460 L 200 460 L 220 460 L 240 460 L 240 440 L 240 420 L 260 420 L 280 420 L 280 400 L 300 400 L 300 380 L 300 360 L 280 360 L 260 360 L 240 360 L 220 360 z M 160 500 L 160 520 L 180 520 L 180 500 L 160 500 z M 180 520 L 180 540 L 180 560 L 200 560 L 220 560 L 220 540 L 220 520 L 200 520 L 180 520 z M 220 520 L 240 520 L 240 500 L 220 500 L 220 520 z M 220 560 L 220 580 L 240 580 L 240 560 L 220 560 z M 220 580 L 200 580 L 180 580 L 180 600 L 180 620 L 200 620 L 220 620 L 220 600 L 220 580 z M 220 620 L 220 640 L 240 640 L 240 620 L 220 620 z M 220 640 L 200 640 L 180 640 L 180 660 L 180 680 L 200 680 L 220 680 L 220 660 L 220 640 z M 220 680 L 220 700 L 240 700 L 240 680 L 220 680 z M 220 700 L 200 700 L 180 700 L 180 720 L 180 740 L 200 740 L 220 740 L 220 720 L 220 700 z M 220 740 L 220 760 L 240 760 L 240 740 L 220 740 z M 220 760 L 200 760 L 180 760 L 180 780 L 180 800 L 200 800 L 220 800 L 220 780 L 220 760 z M 180 760 L 180 740 L 160 740 L 160 760 L 180 760 z M 180 700 L 180 680 L 160 680 L 160 700 L 180 700 z M 180 640 L 180 620 L 160 620 L 160 640 L 180 640 z M 180 580 L 180 560 L 160 560 L 160 580 L 180 580 z "
     style="fill:#0000ff" />
  <path
     id="rect2706"
     d="M 300 400 L 300 420 L 280 420 L 280 440 L 280 460 L 260 460 L 240 460 L 240 480 L 240 500 L 240 520 L 240 540 L 240 560 L 240 580 L 240 600 L 240 620 L 240 640 L 240 660 L 240 680 L 240 700 L 240 720 L 240 740 L 240 760 L 240 780 L 240 800 L 260 800 L 280 800 L 280 780 L 280 760 L 300 760 L 300 740 L 320 740 L 340 740 L 340 720 L 340 700 L 340 680 L 340 660 L 340 640 L 340 620 L 340 600 L 340 580 L 340 560 L 340 540 L 340 520 L 340 500 L 340 480 L 340 460 L 340 440 L 340 420 L 340 400 L 320 400 L 300 400 z "
     style="fill:#000080" />
  <path
     id="rect2726"
     d="M 440 100 L 440 120 L 420 120 L 400 120 L 400 140 L 400 160 L 380 160 L 360 160 L 360 180 L 380 180 L 400 180 L 420 180 L 440 180 L 460 180 L 480 180 L 480 160 L 500 160 L 520 160 L 520 140 L 520 120 L 540 120 L 560 120 L 560 100 L 540 100 L 520 100 L 500 100 L 480 100 L 460 100 L 440 100 z M 400 220 L 400 240 L 420 240 L 440 240 L 440 220 L 420 220 L 400 220 z M 440 240 L 440 260 L 440 280 L 460 280 L 460 260 L 460 240 L 440 240 z M 460 240 L 480 240 L 480 220 L 460 220 L 460 240 z M 460 280 L 460 300 L 480 300 L 480 280 L 460 280 z M 460 300 L 440 300 L 440 320 L 440 340 L 460 340 L 460 320 L 460 300 z M 460 340 L 460 360 L 480 360 L 480 340 L 460 340 z M 460 360 L 440 360 L 440 380 L 440 400 L 460 400 L 460 380 L 460 360 z M 460 400 L 460 420 L 480 420 L 480 400 L 460 400 z M 460 420 L 440 420 L 440 440 L 440 460 L 460 460 L 460 440 L 460 420 z M 460 460 L 460 480 L 480 480 L 480 460 L 460 460 z M 440 460 L 420 460 L 400 460 L 400 480 L 420 480 L 440 480 L 440 460 z M 400 460 L 400 440 L 400 420 L 380 420 L 360 420 L 360 440 L 360 460 L 380 460 L 400 460 z M 400 420 L 420 420 L 440 420 L 440 400 L 420 400 L 400 400 L 400 420 z M 400 400 L 400 380 L 400 360 L 380 360 L 360 360 L 360 380 L 360 400 L 380 400 L 400 400 z M 400 360 L 420 360 L 440 360 L 440 340 L 420 340 L 400 340 L 400 360 z M 400 340 L 400 320 L 400 300 L 380 300 L 360 300 L 360 320 L 360 340 L 380 340 L 400 340 z M 400 300 L 420 300 L 440 300 L 440 280 L 420 280 L 400 280 L 400 300 z M 400 280 L 400 260 L 400 240 L 380 240 L 360 240 L 360 260 L 360 280 L 380 280 L 400 280 z M 360 500 L 360 520 L 380 520 L 400 520 L 400 500 L 380 500 L 360 500 z M 400 520 L 400 540 L 400 560 L 420 560 L 440 560 L 440 540 L 440 520 L 420 520 L 400 520 z M 440 520 L 460 520 L 460 500 L 440 500 L 440 520 z M 460 520 L 460 540 L 460 560 L 480 560 L 480 540 L 480 520 L 460 520 z M 460 560 L 440 560 L 440 580 L 460 580 L 460 560 z M 460 580 L 460 600 L 460 620 L 480 620 L 480 600 L 480 580 L 460 580 z M 460 620 L 440 620 L 440 640 L 460 640 L 460 620 z M 460 640 L 460 660 L 460 680 L 480 680 L 480 660 L 480 640 L 460 640 z M 460 680 L 440 680 L 440 700 L 460 700 L 460 680 z M 460 700 L 460 720 L 460 740 L 480 740 L 480 720 L 480 700 L 460 700 z M 460 740 L 440 740 L 440 760 L 460 760 L 460 740 z M 460 760 L 460 780 L 460 800 L 480 800 L 480 780 L 480 760 L 460 760 z M 440 760 L 420 760 L 400 760 L 400 780 L 400 800 L 420 800 L 440 800 L 440 780 L 440 760 z M 400 760 L 400 740 L 380 740 L 360 740 L 360 760 L 380 760 L 400 760 z M 400 740 L 420 740 L 440 740 L 440 720 L 440 700 L 420 700 L 400 700 L 400 720 L 400 740 z M 400 700 L 400 680 L 380 680 L 360 680 L 360 700 L 380 700 L 400 700 z M 400 680 L 420 680 L 440 680 L 440 660 L 440 640 L 420 640 L 400 640 L 400 660 L 400 680 z M 400 640 L 400 620 L 380 620 L 360 620 L 360 640 L 380 640 L 400 640 z M 400 620 L 420 620 L 440 620 L 440 600 L 440 580 L 420 580 L 400 580 L 400 600 L 400 620 z M 400 580 L 400 560 L 380 560 L 360 560 L 360 580 L 380 580 L 400 580 z "
     style="fill:#ffff00" />
  <path
     id="rect2728"
     d="M 480 220 L 480 240 L 500 240 L 500 220 L 480 220 z M 480 280 L 480 300 L 500 300 L 500 280 L 480 280 z M 480 340 L 480 360 L 500 360 L 500 340 L 480 340 z M 480 400 L 480 420 L 500 420 L 500 400 L 480 400 z M 480 460 L 480 480 L 500 480 L 500 460 L 480 460 z M 480 520 L 480 540 L 480 560 L 500 560 L 500 540 L 500 520 L 480 520 z M 480 580 L 480 600 L 480 620 L 500 620 L 500 600 L 500 580 L 480 580 z M 480 640 L 480 660 L 480 680 L 500 680 L 500 660 L 500 640 L 480 640 z M 480 700 L 480 720 L 480 740 L 500 740 L 500 720 L 500 700 L 480 700 z M 480 760 L 480 780 L 480 800 L 500 800 L 500 780 L 500 760 L 480 760 z "
     style="fill:#dddd00" />
  <path
     id="rect2730"
     d="M 560 120 L 560 140 L 560 160 L 540 160 L 520 160 L 520 180 L 500 180 L 500 200 L 500 220 L 500 240 L 500 260 L 500 280 L 500 300 L 500 320 L 500 340 L 500 360 L 500 380 L 500 400 L 500 420 L 500 440 L 500 460 L 500 480 L 500 500 L 500 520 L 500 540 L 500 560 L 500 580 L 500 600 L 500 620 L 500 640 L 500 660 L 500 680 L 500 700 L 500 720 L 500 740 L 500 760 L 500 780 L 500 800 L 520 800 L 520 780 L 520 760 L 540 760 L 560 760 L 560 740 L 580 740 L 580 720 L 580 700 L 580 680 L 580 660 L 580 640 L 580 620 L 580 600 L 580 580 L 580 560 L 580 540 L 580 520 L 580 500 L 580 480 L 580 460 L 580 440 L 580 420 L 580 400 L 580 380 L 580 360 L 580 340 L 580 320 L 580 300 L 580 280 L 580 260 L 580 240 L 580 220 L 580 200 L 580 180 L 580 160 L 580 140 L 580 120 L 560 120 z "
     style="fill:#808000" />
  <path
     id="rect2752"
     d="M 680 220 L 680 240 L 660 240 L 640 240 L 640 260 L 640 280 L 620 280 L 620 300 L 620 320 L 620 340 L 640 340 L 640 320 L 640 300 L 660 300 L 680 300 L 680 320 L 680 340 L 700 340 L 700 320 L 700 300 L 720 300 L 740 300 L 740 280 L 740 260 L 740 240 L 760 240 L 760 220 L 740 220 L 720 220 L 700 220 L 680 220 z M 700 340 L 700 360 L 720 360 L 740 360 L 740 340 L 720 340 L 700 340 z M 700 360 L 680 360 L 680 380 L 680 400 L 700 400 L 700 380 L 700 360 z M 700 400 L 700 420 L 720 420 L 740 420 L 740 400 L 720 400 L 700 400 z M 700 420 L 680 420 L 680 440 L 680 460 L 700 460 L 700 440 L 700 420 z M 700 460 L 700 480 L 720 480 L 740 480 L 740 460 L 720 460 L 700 460 z M 680 460 L 660 460 L 640 460 L 640 480 L 660 480 L 680 480 L 680 460 z M 640 460 L 640 440 L 640 420 L 620 420 L 620 440 L 620 460 L 640 460 z M 640 420 L 660 420 L 680 420 L 680 400 L 660 400 L 640 400 L 640 420 z M 640 400 L 640 380 L 640 360 L 620 360 L 620 380 L 620 400 L 640 400 z M 640 360 L 660 360 L 680 360 L 680 340 L 660 340 L 640 340 L 640 360 z M 620 500 L 620 520 L 640 520 L 640 500 L 620 500 z M 640 520 L 640 540 L 640 560 L 660 560 L 680 560 L 680 540 L 680 520 L 660 520 L 640 520 z M 680 520 L 700 520 L 700 500 L 680 500 L 680 520 z M 700 520 L 700 540 L 700 560 L 720 560 L 740 560 L 740 540 L 740 520 L 720 520 L 700 520 z M 700 560 L 680 560 L 680 580 L 700 580 L 700 560 z M 700 580 L 700 600 L 700 620 L 720 620 L 740 620 L 740 600 L 740 580 L 720 580 L 700 580 z M 700 620 L 680 620 L 680 640 L 700 640 L 700 620 z M 700 640 L 700 660 L 700 680 L 720 680 L 740 680 L 740 660 L 740 640 L 720 640 L 700 640 z M 700 680 L 680 680 L 680 700 L 700 700 L 700 680 z M 700 700 L 700 720 L 700 740 L 720 740 L 740 740 L 740 720 L 740 700 L 720 700 L 700 700 z M 700 740 L 680 740 L 680 760 L 700 760 L 700 740 z M 700 760 L 700 780 L 700 800 L 720 800 L 740 800 L 740 780 L 740 760 L 720 760 L 700 760 z M 680 760 L 660 760 L 640 760 L 640 780 L 640 800 L 660 800 L 680 800 L 680 780 L 680 760 z M 640 760 L 640 740 L 620 740 L 620 760 L 640 760 z M 640 740 L 660 740 L 680 740 L 680 720 L 680 700 L 660 700 L 640 700 L 640 720 L 640 740 z M 640 700 L 640 680 L 620 680 L 620 700 L 640 700 z M 640 680 L 660 680 L 680 680 L 680 660 L 680 640 L 660 640 L 640 640 L 640 660 L 640 680 z M 640 640 L 640 620 L 620 620 L 620 640 L 640 640 z M 640 620 L 660 620 L 680 620 L 680 600 L 680 580 L 660 580 L 640 580 L 640 600 L 640 620 z M 640 580 L 640 560 L 620 560 L 620 580 L 640 580 z "
     style="fill:#ff00ff" />
  <path
     id="rect2940"
     d="M 20 220 L 20 240 L 20 260 L 20 280 L 20 300 L 20 320 L 20 340 L 20 360 L 20 380 L 20 400 L 20 420 L 20 440 L 20 460 L 20 480 L 40 480 L 40 460 L 40 440 L 40 420 L 40 400 L 40 380 L 40 360 L 40 340 L 40 320 L 40 300 L 40 280 L 40 260 L 40 240 L 40 220 L 20 220 z M 20 500 L 20 520 L 20 540 L 20 560 L 20 580 L 20 600 L 20 620 L 20 640 L 20 660 L 20 680 L 20 700 L 20 720 L 20 740 L 20 760 L 20 780 L 20 800 L 20 820 L 20 840 L 20 860 L 40 860 L 40 840 L 40 820 L 40 800 L 40 780 L 40 760 L 40 740 L 40 720 L 40 700 L 40 680 L 40 660 L 40 640 L 40 620 L 40 600 L 40 580 L 40 560 L 40 540 L 40 520 L 40 500 L 20 500 z "
     style="fill:#444444" />
  <path
     id="rect2942"
     d="M 180 60 L 180 80 L 180 100 L 200 100 L 220 100 L 220 80 L 220 60 L 200 60 L 180 60 z M 180 100 L 160 100 L 160 120 L 180 120 L 180 100 z M 160 120 L 140 120 L 120 120 L 120 140 L 120 160 L 140 160 L 160 160 L 160 140 L 160 120 z M 120 160 L 100 160 L 100 180 L 120 180 L 120 160 z M 100 180 L 80 180 L 60 180 L 60 200 L 60 220 L 80 220 L 100 220 L 100 200 L 100 180 z M 60 220 L 40 220 L 40 240 L 40 260 L 40 280 L 40 300 L 40 320 L 40 340 L 40 360 L 40 380 L 40 400 L 40 420 L 40 440 L 40 460 L 40 480 L 40 500 L 40 520 L 40 540 L 40 560 L 40 580 L 40 600 L 40 620 L 40 640 L 40 660 L 40 680 L 40 700 L 40 720 L 40 740 L 40 760 L 40 780 L 40 800 L 40 820 L 40 840 L 40 860 L 60 860 L 60 840 L 60 820 L 60 800 L 60 780 L 60 760 L 60 740 L 60 720 L 60 700 L 60 680 L 60 660 L 60 640 L 60 620 L 60 600 L 60 580 L 60 560 L 60 540 L 60 520 L 60 500 L 60 480 L 60 460 L 60 440 L 60 420 L 60 400 L 60 380 L 60 360 L 60 340 L 60 320 L 60 300 L 60 280 L 60 260 L 60 240 L 60 220 z M 360 180 L 360 200 L 360 220 L 360 240 L 380 240 L 400 240 L 400 220 L 420 220 L 440 220 L 440 240 L 460 240 L 460 220 L 480 220 L 480 200 L 480 180 L 460 180 L 440 180 L 420 180 L 400 180 L 380 180 L 360 180 z M 460 240 L 460 260 L 460 280 L 480 280 L 480 260 L 480 240 L 460 240 z M 460 280 L 440 280 L 440 300 L 460 300 L 460 280 z M 460 300 L 460 320 L 460 340 L 480 340 L 480 320 L 480 300 L 460 300 z M 460 340 L 440 340 L 440 360 L 460 360 L 460 340 z M 460 360 L 460 380 L 460 400 L 480 400 L 480 380 L 480 360 L 460 360 z M 460 400 L 440 400 L 440 420 L 460 420 L 460 400 z M 460 420 L 460 440 L 460 460 L 480 460 L 480 440 L 480 420 L 460 420 z M 460 460 L 440 460 L 440 480 L 460 480 L 460 460 z M 440 460 L 440 440 L 440 420 L 420 420 L 400 420 L 400 440 L 400 460 L 420 460 L 440 460 z M 400 460 L 380 460 L 360 460 L 360 480 L 380 480 L 400 480 L 400 460 z M 400 420 L 400 400 L 380 400 L 360 400 L 360 420 L 380 420 L 400 420 z M 400 400 L 420 400 L 440 400 L 440 380 L 440 360 L 420 360 L 400 360 L 400 380 L 400 400 z M 400 360 L 400 340 L 380 340 L 360 340 L 360 360 L 380 360 L 400 360 z M 400 340 L 420 340 L 440 340 L 440 320 L 440 300 L 420 300 L 400 300 L 400 320 L 400 340 z M 400 300 L 400 280 L 380 280 L 360 280 L 360 300 L 380 300 L 400 300 z M 400 280 L 420 280 L 440 280 L 440 260 L 440 240 L 420 240 L 400 240 L 400 260 L 400 280 z M 400 500 L 400 520 L 420 520 L 440 520 L 440 500 L 420 500 L 400 500 z M 440 520 L 440 540 L 440 560 L 460 560 L 460 540 L 460 520 L 440 520 z M 460 520 L 480 520 L 480 500 L 460 500 L 460 520 z M 460 560 L 460 580 L 480 580 L 480 560 L 460 560 z M 460 580 L 440 580 L 440 600 L 440 620 L 460 620 L 460 600 L 460 580 z M 460 620 L 460 640 L 480 640 L 480 620 L 460 620 z M 460 640 L 440 640 L 440 660 L 440 680 L 460 680 L 460 660 L 460 640 z M 460 680 L 460 700 L 480 700 L 480 680 L 460 680 z M 460 700 L 440 700 L 440 720 L 440 740 L 460 740 L 460 720 L 460 700 z M 460 740 L 460 760 L 480 760 L 480 740 L 460 740 z M 460 760 L 440 760 L 440 780 L 440 800 L 460 800 L 460 780 L 460 760 z M 440 760 L 440 740 L 420 740 L 400 740 L 400 760 L 420 760 L 440 760 z M 400 760 L 380 760 L 360 760 L 360 780 L 360 800 L 380 800 L 400 800 L 400 780 L 400 760 z M 400 740 L 400 720 L 400 700 L 380 700 L 360 700 L 360 720 L 360 740 L 380 740 L 400 740 z M 400 700 L 420 700 L 440 700 L 440 680 L 420 680 L 400 680 L 400 700 z M 400 680 L 400 660 L 400 640 L 380 640 L 360 640 L 360 660 L 360 680 L 380 680 L 400 680 z M 400 640 L 420 640 L 440 640 L 440 620 L 420 620 L 400 620 L 400 640 z M 400 620 L 400 600 L 400 580 L 380 580 L 360 580 L 360 600 L 360 620 L 380 620 L 400 620 z M 400 580 L 420 580 L 440 580 L 440 560 L 420 560 L 400 560 L 400 580 z M 400 560 L 400 540 L 400 520 L 380 520 L 360 520 L 360 540 L 360 560 L 380 560 L 400 560 z M 100 800 L 100 820 L 120 820 L 120 800 L 100 800 z M 300 800 L 300 820 L 320 820 L 340 820 L 340 800 L 320 800 L 300 800 z M 560 800 L 560 820 L 580 820 L 580 800 L 560 800 z M 740 800 L 740 820 L 760 820 L 780 820 L 800 820 L 800 800 L 780 800 L 760 800 L 740 800 z "
     style="fill:#ffffff" />
  <path
     id="rect3012"
     d="M 560 100 L 560 120 L 580 120 L 580 100 L 560 100 z M 560 120 L 540 120 L 520 120 L 520 140 L 520 160 L 540 160 L 560 160 L 560 140 L 560 120 z M 520 160 L 500 160 L 500 180 L 520 180 L 520 160 z M 180 120 L 180 140 L 180 160 L 200 160 L 220 160 L 220 140 L 220 120 L 200 120 L 180 120 z M 180 160 L 160 160 L 160 180 L 180 180 L 180 160 z M 180 180 L 180 200 L 180 220 L 200 220 L 220 220 L 220 200 L 220 180 L 200 180 L 180 180 z M 180 220 L 160 220 L 160 240 L 180 240 L 180 220 z M 180 240 L 180 260 L 180 280 L 200 280 L 220 280 L 220 260 L 220 240 L 200 240 L 180 240 z M 180 280 L 160 280 L 160 300 L 180 300 L 180 280 z M 180 300 L 180 320 L 180 340 L 200 340 L 220 340 L 220 320 L 220 300 L 200 300 L 180 300 z M 180 340 L 160 340 L 160 360 L 180 360 L 180 340 z M 160 360 L 140 360 L 120 360 L 120 380 L 120 400 L 140 400 L 160 400 L 160 380 L 160 360 z M 120 400 L 100 400 L 100 420 L 120 420 L 120 400 z M 100 420 L 80 420 L 60 420 L 60 440 L 60 460 L 80 460 L 100 460 L 100 440 L 100 420 z M 100 400 L 100 380 L 100 360 L 80 360 L 60 360 L 60 380 L 60 400 L 80 400 L 100 400 z M 100 360 L 120 360 L 120 340 L 100 340 L 100 360 z M 100 340 L 100 320 L 100 300 L 80 300 L 60 300 L 60 320 L 60 340 L 80 340 L 100 340 z M 100 300 L 120 300 L 120 280 L 100 280 L 100 300 z M 100 280 L 100 260 L 100 240 L 80 240 L 60 240 L 60 260 L 60 280 L 80 280 L 100 280 z M 100 240 L 120 240 L 120 220 L 100 220 L 100 240 z M 120 220 L 140 220 L 160 220 L 160 200 L 160 180 L 140 180 L 120 180 L 120 200 L 120 220 z M 120 240 L 120 260 L 120 280 L 140 280 L 160 280 L 160 260 L 160 240 L 140 240 L 120 240 z M 120 300 L 120 320 L 120 340 L 140 340 L 160 340 L 160 320 L 160 300 L 140 300 L 120 300 z M 160 460 L 160 480 L 180 480 L 200 480 L 220 480 L 240 480 L 240 460 L 220 460 L 200 460 L 180 460 L 160 460 z M 60 500 L 60 520 L 80 520 L 100 520 L 100 500 L 80 500 L 60 500 z M 60 560 L 60 580 L 80 580 L 100 580 L 100 560 L 80 560 L 60 560 z M 60 620 L 60 640 L 80 640 L 100 640 L 100 620 L 80 620 L 60 620 z M 60 680 L 60 700 L 80 700 L 100 700 L 100 680 L 80 680 L 60 680 z M 820 680 L 820 700 L 840 700 L 860 700 L 880 700 L 900 700 L 920 700 L 920 680 L 900 680 L 880 680 L 860 680 L 840 680 L 820 680 z M 60 740 L 60 760 L 80 760 L 100 760 L 100 740 L 80 740 L 60 740 z M 60 820 L 60 840 L 60 860 L 80 860 L 100 860 L 120 860 L 140 860 L 160 860 L 180 860 L 200 860 L 220 860 L 240 860 L 260 860 L 280 860 L 300 860 L 320 860 L 340 860 L 360 860 L 380 860 L 400 860 L 420 860 L 440 860 L 460 860 L 480 860 L 500 860 L 520 860 L 540 860 L 560 860 L 580 860 L 600 860 L 620 860 L 640 860 L 660 860 L 680 860 L 700 860 L 720 860 L 740 860 L 760 860 L 760 840 L 760 820 L 740 820 L 720 820 L 700 820 L 680 820 L 660 820 L 640 820 L 620 820 L 600 820 L 580 820 L 560 820 L 540 820 L 520 820 L 500 820 L 480 820 L 460 820 L 440 820 L 420 820 L 400 820 L 380 820 L 360 820 L 340 820 L 320 820 L 300 820 L 280 820 L 260 820 L 240 820 L 220 820 L 200 820 L 180 820 L 160 820 L 140 820 L 120 820 L 100 820 L 80 820 L 60 820 z "
     style="fill:#cbcbcb" />
  <path
     id="rect3100"
     d="M 220 0 L 220 20 L 200 20 L 180 20 L 180 40 L 180 60 L 200 60 L 220 60 L 220 80 L 220 100 L 220 120 L 220 140 L 220 160 L 220 180 L 220 200 L 220 220 L 220 240 L 220 260 L 220 280 L 220 300 L 220 320 L 220 340 L 220 360 L 240 360 L 260 360 L 280 360 L 300 360 L 320 360 L 340 360 L 340 380 L 340 400 L 340 420 L 340 440 L 340 460 L 340 480 L 340 500 L 340 520 L 340 540 L 340 560 L 340 580 L 340 600 L 340 620 L 340 640 L 340 660 L 340 680 L 340 700 L 340 720 L 340 740 L 320 740 L 300 740 L 300 760 L 320 760 L 340 760 L 340 780 L 340 800 L 340 820 L 360 820 L 380 820 L 400 820 L 420 820 L 440 820 L 460 820 L 480 820 L 500 820 L 520 820 L 520 800 L 500 800 L 480 800 L 460 800 L 440 800 L 420 800 L 400 800 L 380 800 L 360 800 L 360 780 L 360 760 L 360 740 L 360 720 L 360 700 L 360 680 L 360 660 L 360 640 L 360 620 L 360 600 L 360 580 L 360 560 L 360 540 L 360 520 L 360 500 L 360 480 L 360 460 L 360 440 L 360 420 L 360 400 L 360 380 L 360 360 L 360 340 L 360 320 L 360 300 L 360 280 L 360 260 L 360 240 L 360 220 L 360 200 L 360 180 L 360 160 L 340 160 L 340 180 L 340 200 L 340 220 L 340 240 L 340 260 L 340 280 L 340 300 L 340 320 L 340 340 L 320 340 L 300 340 L 280 340 L 260 340 L 240 340 L 240 320 L 240 300 L 240 280 L 240 260 L 240 240 L 240 220 L 240 200 L 240 180 L 240 160 L 240 140 L 240 120 L 240 100 L 240 80 L 240 60 L 240 40 L 240 20 L 240 0 L 220 0 z M 360 160 L 380 160 L 400 160 L 400 140 L 400 120 L 380 120 L 360 120 L 360 140 L 360 160 z M 400 120 L 420 120 L 440 120 L 440 100 L 420 100 L 400 100 L 400 120 z M 440 100 L 460 100 L 480 100 L 500 100 L 520 100 L 540 100 L 560 100 L 580 100 L 580 120 L 580 140 L 580 160 L 580 180 L 580 200 L 580 220 L 580 240 L 580 260 L 580 280 L 580 300 L 580 320 L 580 340 L 580 360 L 580 380 L 580 400 L 580 420 L 580 440 L 580 460 L 580 480 L 580 500 L 580 520 L 580 540 L 580 560 L 580 580 L 580 600 L 580 620 L 580 640 L 580 660 L 580 680 L 580 700 L 580 720 L 580 740 L 560 740 L 560 760 L 580 760 L 580 780 L 580 800 L 580 820 L 600 820 L 620 820 L 640 820 L 660 820 L 680 820 L 700 820 L 720 820 L 740 820 L 740 800 L 720 800 L 700 800 L 680 800 L 660 800 L 640 800 L 620 800 L 620 780 L 620 760 L 620 740 L 620 720 L 620 700 L 620 680 L 620 660 L 620 640 L 620 620 L 620 600 L 620 580 L 620 560 L 620 540 L 620 520 L 620 500 L 620 480 L 620 460 L 620 440 L 620 420 L 620 400 L 620 380 L 620 360 L 620 340 L 620 320 L 620 300 L 620 280 L 640 280 L 640 260 L 640 240 L 620 240 L 620 220 L 620 200 L 620 180 L 620 160 L 620 140 L 620 120 L 620 100 L 620 80 L 620 60 L 600 60 L 580 60 L 560 60 L 540 60 L 520 60 L 500 60 L 480 60 L 460 60 L 440 60 L 440 80 L 440 100 z M 640 240 L 660 240 L 680 240 L 680 220 L 660 220 L 640 220 L 640 240 z M 680 220 L 700 220 L 720 220 L 740 220 L 760 220 L 780 220 L 800 220 L 800 240 L 800 260 L 800 280 L 800 300 L 800 320 L 800 340 L 800 360 L 800 380 L 800 400 L 800 420 L 800 440 L 800 460 L 800 480 L 800 500 L 800 520 L 800 540 L 800 560 L 800 580 L 800 600 L 800 620 L 800 640 L 800 660 L 800 680 L 800 700 L 800 720 L 800 740 L 820 740 L 820 720 L 820 700 L 820 680 L 840 680 L 860 680 L 880 680 L 900 680 L 920 680 L 920 700 L 940 700 L 960 700 L 960 680 L 960 660 L 960 640 L 940 640 L 920 640 L 900 640 L 880 640 L 860 640 L 840 640 L 820 640 L 820 620 L 820 600 L 820 580 L 820 560 L 820 540 L 820 520 L 820 500 L 820 480 L 820 460 L 820 440 L 820 420 L 820 400 L 820 380 L 820 360 L 820 340 L 820 320 L 820 300 L 820 280 L 820 260 L 820 240 L 820 220 L 820 200 L 820 180 L 800 180 L 780 180 L 760 180 L 740 180 L 720 180 L 700 180 L 680 180 L 680 200 L 680 220 z M 920 700 L 900 700 L 900 720 L 900 740 L 920 740 L 920 720 L 920 700 z M 900 740 L 880 740 L 860 740 L 860 760 L 880 760 L 900 760 L 900 740 z M 860 760 L 840 760 L 820 760 L 820 780 L 820 800 L 840 800 L 860 800 L 860 780 L 860 760 z M 820 800 L 800 800 L 800 820 L 820 820 L 820 800 z M 800 820 L 780 820 L 760 820 L 760 840 L 760 860 L 780 860 L 800 860 L 800 840 L 800 820 z M 760 860 L 740 860 L 720 860 L 700 860 L 680 860 L 660 860 L 640 860 L 620 860 L 600 860 L 580 860 L 560 860 L 540 860 L 520 860 L 500 860 L 480 860 L 460 860 L 440 860 L 420 860 L 400 860 L 380 860 L 360 860 L 340 860 L 320 860 L 300 860 L 280 860 L 260 860 L 240 860 L 220 860 L 200 860 L 180 860 L 160 860 L 140 860 L 120 860 L 100 860 L 80 860 L 60 860 L 40 860 L 20 860 L 20 840 L 20 820 L 20 800 L 20 780 L 20 760 L 20 740 L 20 720 L 20 700 L 20 680 L 20 660 L 20 640 L 20 620 L 20 600 L 20 580 L 20 560 L 20 540 L 20 520 L 20 500 L 20 480 L 20 460 L 20 440 L 20 420 L 20 400 L 20 380 L 20 360 L 20 340 L 20 320 L 20 300 L 20 280 L 20 260 L 20 240 L 20 220 L 0 220 L 0 240 L 0 260 L 0 280 L 0 300 L 0 320 L 0 340 L 0 360 L 0 380 L 0 400 L 0 420 L 0 440 L 0 460 L 0 480 L 0 500 L 0 520 L 0 540 L 0 560 L 0 580 L 0 600 L 0 620 L 0 640 L 0 660 L 0 680 L 0 700 L 0 720 L 0 740 L 0 760 L 0 780 L 0 800 L 0 820 L 0 840 L 0 860 L 0 880 L 0 900 L 20 900 L 20 880 L 40 880 L 60 880 L 80 880 L 100 880 L 120 880 L 140 880 L 160 880 L 180 880 L 200 880 L 220 880 L 240 880 L 260 880 L 280 880 L 300 880 L 320 880 L 340 880 L 360 880 L 380 880 L 400 880 L 420 880 L 440 880 L 460 880 L 480 880 L 500 880 L 520 880 L 540 880 L 560 880 L 580 880 L 600 880 L 620 880 L 640 880 L 660 880 L 680 880 L 700 880 L 720 880 L 740 880 L 760 880 L 760 860 z M 20 220 L 40 220 L 60 220 L 60 200 L 60 180 L 40 180 L 20 180 L 20 200 L 20 220 z M 60 180 L 80 180 L 100 180 L 100 160 L 80 160 L 60 160 L 60 180 z M 100 160 L 120 160 L 120 140 L 120 120 L 100 120 L 100 140 L 100 160 z M 120 120 L 140 120 L 160 120 L 160 100 L 140 100 L 120 100 L 120 120 z M 160 100 L 180 100 L 180 80 L 180 60 L 160 60 L 160 80 L 160 100 z M 800 740 L 780 740 L 760 740 L 760 760 L 780 760 L 800 760 L 800 740 z M 760 760 L 740 760 L 740 780 L 740 800 L 760 800 L 760 780 L 760 760 z M 560 760 L 540 760 L 520 760 L 520 780 L 520 800 L 540 800 L 560 800 L 560 780 L 560 760 z M 300 760 L 280 760 L 280 780 L 280 800 L 300 800 L 300 780 L 300 760 z M 280 800 L 260 800 L 240 800 L 220 800 L 200 800 L 180 800 L 160 800 L 160 780 L 160 760 L 160 740 L 160 720 L 160 700 L 160 680 L 160 660 L 160 640 L 160 620 L 160 600 L 160 580 L 160 560 L 160 540 L 160 520 L 160 500 L 160 480 L 160 460 L 160 440 L 160 420 L 140 420 L 120 420 L 120 440 L 120 460 L 120 480 L 120 500 L 120 520 L 120 540 L 120 560 L 120 580 L 120 600 L 120 620 L 120 640 L 120 660 L 120 680 L 120 700 L 120 720 L 120 740 L 120 760 L 100 760 L 100 780 L 100 800 L 120 800 L 120 820 L 140 820 L 160 820 L 180 820 L 200 820 L 220 820 L 240 820 L 260 820 L 280 820 L 280 800 z M 100 800 L 80 800 L 60 800 L 60 820 L 80 820 L 100 820 L 100 800 z M 160 420 L 180 420 L 180 400 L 160 400 L 160 420 z M 180 400 L 200 400 L 220 400 L 220 380 L 220 360 L 200 360 L 180 360 L 180 380 L 180 400 z "
     style="opacity:0.26666667;fill:#000000" />
  <path
     id="rect3102"
     d="M 20 880 L 20 900 L 40 900 L 40 880 L 20 880 z "
     style="opacity:0.49411765;fill:#4f4f4f" />
  <path
     id="rect3252"
     d="M 180 100 L 180 120 L 200 120 L 220 120 L 220 100 L 200 100 L 180 100 z M 180 120 L 160 120 L 160 140 L 160 160 L 180 160 L 180 140 L 180 120 z M 180 160 L 180 180 L 200 180 L 220 180 L 220 160 L 200 160 L 180 160 z M 180 180 L 160 180 L 160 200 L 160 220 L 180 220 L 180 200 L 180 180 z M 180 220 L 180 240 L 200 240 L 220 240 L 220 220 L 200 220 L 180 220 z M 180 240 L 160 240 L 160 260 L 160 280 L 180 280 L 180 260 L 180 240 z M 180 280 L 180 300 L 200 300 L 220 300 L 220 280 L 200 280 L 180 280 z M 180 300 L 160 300 L 160 320 L 160 340 L 180 340 L 180 320 L 180 300 z M 180 340 L 180 360 L 200 360 L 220 360 L 220 340 L 200 340 L 180 340 z M 180 360 L 160 360 L 160 380 L 160 400 L 180 400 L 180 380 L 180 360 z M 160 400 L 140 400 L 120 400 L 120 420 L 140 420 L 160 420 L 160 400 z M 120 420 L 100 420 L 100 440 L 100 460 L 80 460 L 60 460 L 60 480 L 80 480 L 100 480 L 100 500 L 100 520 L 80 520 L 60 520 L 60 540 L 60 560 L 80 560 L 100 560 L 100 580 L 80 580 L 60 580 L 60 600 L 60 620 L 80 620 L 100 620 L 100 640 L 80 640 L 60 640 L 60 660 L 60 680 L 80 680 L 100 680 L 100 700 L 80 700 L 60 700 L 60 720 L 60 740 L 80 740 L 100 740 L 100 760 L 120 760 L 120 740 L 120 720 L 120 700 L 120 680 L 120 660 L 120 640 L 120 620 L 120 600 L 120 580 L 120 560 L 120 540 L 120 520 L 120 500 L 120 480 L 120 460 L 120 440 L 120 420 z M 100 760 L 80 760 L 60 760 L 60 780 L 60 800 L 80 800 L 100 800 L 100 780 L 100 760 z M 100 420 L 100 400 L 80 400 L 60 400 L 60 420 L 80 420 L 100 420 z M 100 400 L 120 400 L 120 380 L 120 360 L 100 360 L 100 380 L 100 400 z M 100 360 L 100 340 L 80 340 L 60 340 L 60 360 L 80 360 L 100 360 z M 100 340 L 120 340 L 120 320 L 120 300 L 100 300 L 100 320 L 100 340 z M 100 300 L 100 280 L 80 280 L 60 280 L 60 300 L 80 300 L 100 300 z M 100 280 L 120 280 L 120 260 L 120 240 L 100 240 L 100 260 L 100 280 z M 100 240 L 100 220 L 80 220 L 60 220 L 60 240 L 80 240 L 100 240 z M 100 220 L 120 220 L 120 200 L 120 180 L 100 180 L 100 200 L 100 220 z M 120 180 L 140 180 L 160 180 L 160 160 L 140 160 L 120 160 L 120 180 z M 120 220 L 120 240 L 140 240 L 160 240 L 160 220 L 140 220 L 120 220 z M 120 280 L 120 300 L 140 300 L 160 300 L 160 280 L 140 280 L 120 280 z M 120 340 L 120 360 L 140 360 L 160 360 L 160 340 L 140 340 L 120 340 z M 760 220 L 760 240 L 780 240 L 800 240 L 800 220 L 780 220 L 760 220 z M 760 240 L 740 240 L 740 260 L 740 280 L 760 280 L 760 260 L 760 240 z M 640 300 L 640 320 L 640 340 L 660 340 L 680 340 L 680 320 L 680 300 L 660 300 L 640 300 z M 680 340 L 680 360 L 700 360 L 700 340 L 680 340 z M 700 340 L 720 340 L 740 340 L 740 320 L 740 300 L 720 300 L 700 300 L 700 320 L 700 340 z M 700 360 L 700 380 L 700 400 L 720 400 L 740 400 L 740 380 L 740 360 L 720 360 L 700 360 z M 700 400 L 680 400 L 680 420 L 700 420 L 700 400 z M 700 420 L 700 440 L 700 460 L 720 460 L 740 460 L 740 440 L 740 420 L 720 420 L 700 420 z M 700 460 L 680 460 L 680 480 L 700 480 L 700 460 z M 680 460 L 680 440 L 680 420 L 660 420 L 640 420 L 640 440 L 640 460 L 660 460 L 680 460 z M 640 460 L 620 460 L 620 480 L 640 480 L 640 460 z M 640 420 L 640 400 L 620 400 L 620 420 L 640 420 z M 640 400 L 660 400 L 680 400 L 680 380 L 680 360 L 660 360 L 640 360 L 640 380 L 640 400 z M 640 360 L 640 340 L 620 340 L 620 360 L 640 360 z M 300 360 L 300 380 L 300 400 L 320 400 L 340 400 L 340 380 L 340 360 L 320 360 L 300 360 z M 300 400 L 280 400 L 280 420 L 300 420 L 300 400 z M 280 420 L 260 420 L 240 420 L 240 440 L 240 460 L 260 460 L 280 460 L 280 440 L 280 420 z M 180 500 L 180 520 L 200 520 L 220 520 L 220 500 L 200 500 L 180 500 z M 220 520 L 220 540 L 220 560 L 240 560 L 240 540 L 240 520 L 220 520 z M 220 560 L 200 560 L 180 560 L 180 580 L 200 580 L 220 580 L 220 560 z M 220 580 L 220 600 L 220 620 L 240 620 L 240 600 L 240 580 L 220 580 z M 220 620 L 200 620 L 180 620 L 180 640 L 200 640 L 220 640 L 220 620 z M 220 640 L 220 660 L 220 680 L 240 680 L 240 660 L 240 640 L 220 640 z M 220 680 L 200 680 L 180 680 L 180 700 L 200 700 L 220 700 L 220 680 z M 220 700 L 220 720 L 220 740 L 240 740 L 240 720 L 240 700 L 220 700 z M 220 740 L 200 740 L 180 740 L 180 760 L 200 760 L 220 760 L 220 740 z M 220 760 L 220 780 L 220 800 L 240 800 L 240 780 L 240 760 L 220 760 z M 180 760 L 160 760 L 160 780 L 160 800 L 180 800 L 180 780 L 180 760 z M 180 740 L 180 720 L 180 700 L 160 700 L 160 720 L 160 740 L 180 740 z M 180 680 L 180 660 L 180 640 L 160 640 L 160 660 L 160 680 L 180 680 z M 180 620 L 180 600 L 180 580 L 160 580 L 160 600 L 160 620 L 180 620 z M 180 560 L 180 540 L 180 520 L 160 520 L 160 540 L 160 560 L 180 560 z M 640 500 L 640 520 L 660 520 L 680 520 L 680 500 L 660 500 L 640 500 z M 680 520 L 680 540 L 680 560 L 700 560 L 700 540 L 700 520 L 680 520 z M 700 520 L 720 520 L 740 520 L 740 500 L 720 500 L 700 500 L 700 520 z M 700 560 L 700 580 L 720 580 L 740 580 L 740 560 L 720 560 L 700 560 z M 700 580 L 680 580 L 680 600 L 680 620 L 700 620 L 700 600 L 700 580 z M 700 620 L 700 640 L 720 640 L 740 640 L 740 620 L 720 620 L 700 620 z M 700 640 L 680 640 L 680 660 L 680 680 L 700 680 L 700 660 L 700 640 z M 700 680 L 700 700 L 720 700 L 740 700 L 740 680 L 720 680 L 700 680 z M 700 700 L 680 700 L 680 720 L 680 740 L 700 740 L 700 720 L 700 700 z M 700 740 L 700 760 L 720 760 L 740 760 L 740 740 L 720 740 L 700 740 z M 700 760 L 680 760 L 680 780 L 680 800 L 700 800 L 700 780 L 700 760 z M 680 760 L 680 740 L 660 740 L 640 740 L 640 760 L 660 760 L 680 760 z M 640 760 L 620 760 L 620 780 L 620 800 L 640 800 L 640 780 L 640 760 z M 640 740 L 640 720 L 640 700 L 620 700 L 620 720 L 620 740 L 640 740 z M 640 700 L 660 700 L 680 700 L 680 680 L 660 680 L 640 680 L 640 700 z M 640 680 L 640 660 L 640 640 L 620 640 L 620 660 L 620 680 L 640 680 z M 640 640 L 660 640 L 680 640 L 680 620 L 660 620 L 640 620 L 640 640 z M 640 620 L 640 600 L 640 580 L 620 580 L 620 600 L 620 620 L 640 620 z M 640 580 L 660 580 L 680 580 L 680 560 L 660 560 L 640 560 L 640 580 z M 640 560 L 640 540 L 640 520 L 620 520 L 620 540 L 620 560 L 640 560 z M 820 700 L 820 720 L 820 740 L 800 740 L 800 760 L 780 760 L 760 760 L 760 780 L 760 800 L 780 800 L 800 800 L 820 800 L 820 780 L 820 760 L 840 760 L 860 760 L 860 740 L 880 740 L 900 740 L 900 720 L 900 700 L 880 700 L 860 700 L 840 700 L 820 700 z M 900 740 L 900 760 L 920 760 L 920 740 L 900 740 z M 920 740 L 940 740 L 960 740 L 960 720 L 960 700 L 940 700 L 920 700 L 920 720 L 920 740 z M 900 760 L 880 760 L 860 760 L 860 780 L 860 800 L 880 800 L 900 800 L 900 780 L 900 760 z M 860 800 L 840 800 L 820 800 L 820 820 L 840 820 L 860 820 L 860 800 z M 820 820 L 800 820 L 800 840 L 800 860 L 820 860 L 820 840 L 820 820 z M 800 860 L 780 860 L 760 860 L 760 880 L 740 880 L 720 880 L 700 880 L 680 880 L 660 880 L 640 880 L 620 880 L 600 880 L 580 880 L 560 880 L 540 880 L 520 880 L 500 880 L 480 880 L 460 880 L 440 880 L 420 880 L 400 880 L 380 880 L 360 880 L 340 880 L 320 880 L 300 880 L 280 880 L 260 880 L 240 880 L 220 880 L 200 880 L 180 880 L 160 880 L 140 880 L 120 880 L 100 880 L 80 880 L 60 880 L 40 880 L 40 900 L 20 900 L 20 920 L 40 920 L 60 920 L 80 920 L 100 920 L 120 920 L 140 920 L 160 920 L 180 920 L 200 920 L 220 920 L 240 920 L 260 920 L 280 920 L 300 920 L 320 920 L 340 920 L 360 920 L 380 920 L 400 920 L 420 920 L 440 920 L 460 920 L 480 920 L 500 920 L 520 920 L 540 920 L 560 920 L 580 920 L 600 920 L 620 920 L 640 920 L 660 920 L 680 920 L 700 920 L 720 920 L 740 920 L 760 920 L 760 900 L 780 900 L 800 900 L 800 880 L 800 860 z M 300 760 L 300 780 L 300 800 L 320 800 L 340 800 L 340 780 L 340 760 L 320 760 L 300 760 z M 300 800 L 280 800 L 280 820 L 300 820 L 300 800 z M 560 760 L 560 780 L 560 800 L 580 800 L 580 780 L 580 760 L 560 760 z M 560 800 L 540 800 L 520 800 L 520 820 L 540 820 L 560 820 L 560 800 z "
     style="fill:#929292" />
</svg>
