<?xml version="1.0" encoding="UTF-8" standalone="no"?>
<svg
   xmlns:dc="http://purl.org/dc/elements/1.1/"
   xmlns:cc="http://creativecommons.org/ns#"
   xmlns:rdf="http://www.w3.org/1999/02/22-rdf-syntax-ns#"
   xmlns:svg="http://www.w3.org/2000/svg"
   xmlns="http://www.w3.org/2000/svg"
   id="svg2668"
   width="960px"
   version="1.1"
   height="960px">
  <metadata
     id="metadata2672">
    <rdf:RDF>
      <cc:Work
         rdf:about="">
        <dc:format>image/svg+xml</dc:format>
        <dc:type
           rdf:resource="http://purl.org/dc/dcmitype/StillImage" />
      </cc:Work>
    </rdf:RDF>
  </metadata>
  <defs
     id="defs2" />
  <path
     style="fill:#008080"
     d="M 460 160 L 460 180 L 480 180 L 480 160 L 460 160 z M 460 180 L 440 180 L 440 200 L 460 200 L 460 180 z M 440 200 L 420 200 L 420 220 L 440 220 L 440 200 z M 420 220 L 400 220 L 400 240 L 420 240 L 420 220 z M 400 240 L 380 240 L 380 260 L 400 260 L 400 240 z M 380 260 L 360 260 L 360 280 L 380 280 L 380 260 z M 360 280 L 340 280 L 340 300 L 360 300 L 360 280 z M 340 300 L 320 300 L 320 320 L 340 320 L 340 300 z M 20 480 L 20 500 L 40 500 L 60 500 L 80 500 L 100 500 L 120 500 L 140 500 L 160 500 L 180 500 L 200 500 L 220 500 L 240 500 L 260 500 L 280 500 L 300 500 L 320 500 L 320 480 L 300 480 L 280 480 L 260 480 L 240 480 L 220 480 L 200 480 L 180 480 L 160 480 L 140 480 L 120 480 L 100 480 L 80 480 L 60 480 L 40 480 L 20 480 z "
     id="rect1472" />
  <path
     style="fill:#00ffff"
     d="M 340 160 L 340 180 L 360 180 L 380 180 L 400 180 L 420 180 L 440 180 L 460 180 L 460 160 L 440 160 L 420 160 L 400 160 L 380 160 L 360 160 L 340 160 z M 340 180 L 320 180 L 320 200 L 340 200 L 340 180 z M 320 200 L 300 200 L 300 220 L 320 220 L 320 200 z M 300 220 L 280 220 L 280 240 L 300 240 L 300 220 z M 280 240 L 260 240 L 260 260 L 280 260 L 280 240 z M 60 180 L 60 200 L 80 200 L 80 220 L 100 220 L 100 240 L 120 240 L 120 260 L 140 260 L 140 280 L 160 280 L 160 300 L 180 300 L 180 320 L 200 320 L 200 340 L 220 340 L 220 360 L 240 360 L 240 380 L 260 380 L 260 400 L 280 400 L 280 420 L 300 420 L 300 440 L 320 440 L 320 460 L 340 460 L 340 480 L 360 480 L 360 500 L 380 500 L 400 500 L 420 500 L 440 500 L 460 500 L 460 480 L 440 480 L 440 460 L 420 460 L 420 440 L 400 440 L 400 420 L 380 420 L 380 400 L 360 400 L 360 380 L 340 380 L 340 360 L 320 360 L 320 340 L 300 340 L 300 320 L 280 320 L 280 300 L 260 300 L 260 280 L 240 280 L 240 260 L 220 260 L 220 240 L 200 240 L 200 220 L 180 220 L 180 200 L 160 200 L 160 180 L 140 180 L 120 180 L 100 180 L 80 180 L 60 180 z M 160 340 L 160 360 L 180 360 L 180 340 L 160 340 z M 160 360 L 140 360 L 140 380 L 160 380 L 160 360 z M 140 380 L 120 380 L 120 400 L 140 400 L 140 380 z M 120 400 L 100 400 L 100 420 L 120 420 L 120 400 z M 100 420 L 80 420 L 80 440 L 100 440 L 100 420 z M 80 440 L 60 440 L 60 460 L 80 460 L 80 440 z M 60 460 L 40 460 L 40 480 L 60 480 L 60 460 z "
     id="rect1486" />
  <path
     style="fill:#ccffff"
     d="M 20 160 L 20 180 L 40 180 L 60 180 L 80 180 L 100 180 L 120 180 L 140 180 L 160 180 L 160 160 L 140 160 L 120 160 L 100 160 L 80 160 L 60 160 L 40 160 L 20 160 z M 160 180 L 160 200 L 180 200 L 180 180 L 160 180 z M 180 200 L 180 220 L 200 220 L 200 200 L 180 200 z M 200 220 L 200 240 L 220 240 L 220 220 L 200 220 z M 220 240 L 220 260 L 240 260 L 240 240 L 220 240 z M 240 260 L 240 280 L 260 280 L 260 260 L 240 260 z M 260 280 L 260 300 L 280 300 L 280 280 L 260 280 z M 280 300 L 280 320 L 300 320 L 300 300 L 280 300 z M 300 320 L 300 340 L 320 340 L 320 320 L 300 320 z M 320 340 L 320 360 L 340 360 L 340 340 L 320 340 z M 340 360 L 340 380 L 360 380 L 360 360 L 340 360 z M 360 380 L 360 400 L 380 400 L 380 380 L 360 380 z M 380 400 L 380 420 L 400 420 L 400 400 L 380 400 z M 400 420 L 400 440 L 420 440 L 420 420 L 400 420 z M 420 440 L 420 460 L 440 460 L 440 440 L 420 440 z M 440 460 L 440 480 L 460 480 L 460 460 L 440 460 z M 460 480 L 460 500 L 480 500 L 480 480 L 460 480 z "
     id="rect1488" />
  <path
     style="fill:#00cccc"
     d="M 40 180 L 40 200 L 60 200 L 60 180 L 40 180 z M 60 200 L 60 220 L 80 220 L 80 200 L 60 200 z M 80 220 L 80 240 L 100 240 L 100 220 L 80 220 z M 100 240 L 100 260 L 120 260 L 120 240 L 100 240 z M 120 260 L 120 280 L 140 280 L 140 260 L 120 260 z M 140 280 L 140 300 L 160 300 L 160 280 L 140 280 z M 160 300 L 160 320 L 180 320 L 180 300 L 160 300 z M 180 320 L 180 340 L 200 340 L 200 320 L 180 320 z M 200 340 L 200 360 L 220 360 L 220 340 L 200 340 z M 220 360 L 220 380 L 240 380 L 240 360 L 220 360 z M 240 380 L 240 400 L 260 400 L 260 380 L 240 380 z M 260 400 L 260 420 L 280 420 L 280 400 L 260 400 z M 280 420 L 280 440 L 300 440 L 300 420 L 280 420 z M 300 440 L 300 460 L 320 460 L 320 440 L 300 440 z M 320 460 L 320 480 L 340 480 L 340 460 L 320 460 z M 340 480 L 340 500 L 360 500 L 360 480 L 340 480 z M 360 500 L 360 520 L 380 520 L 400 520 L 420 520 L 440 520 L 460 520 L 480 520 L 500 520 L 500 500 L 480 500 L 460 500 L 440 500 L 420 500 L 400 500 L 380 500 L 360 500 z M 300 460 L 280 460 L 280 440 L 260 440 L 260 420 L 240 420 L 240 400 L 220 400 L 220 380 L 200 380 L 200 360 L 180 360 L 160 360 L 160 380 L 140 380 L 140 400 L 120 400 L 120 420 L 100 420 L 100 440 L 80 440 L 80 460 L 60 460 L 60 480 L 80 480 L 100 480 L 120 480 L 140 480 L 160 480 L 180 480 L 200 480 L 220 480 L 240 480 L 260 480 L 280 480 L 300 480 L 300 460 z M 340 180 L 340 200 L 320 200 L 320 220 L 300 220 L 300 240 L 280 240 L 280 260 L 280 280 L 300 280 L 300 300 L 320 300 L 340 300 L 340 280 L 360 280 L 360 260 L 380 260 L 380 240 L 400 240 L 400 220 L 420 220 L 420 200 L 440 200 L 440 180 L 420 180 L 400 180 L 380 180 L 360 180 L 340 180 z M 400 380 L 400 400 L 420 400 L 420 420 L 440 420 L 440 400 L 460 400 L 460 380 L 440 380 L 420 380 L 400 380 z "
     id="rect1578" />
  <path
     style="fill:#777777"
     d="M 480 180 L 480 200 L 500 200 L 520 200 L 520 180 L 500 180 L 480 180 z M 520 200 L 520 220 L 540 220 L 560 220 L 560 200 L 540 200 L 520 200 z M 560 220 L 560 240 L 580 240 L 600 240 L 600 220 L 580 220 L 560 220 z M 600 240 L 600 260 L 620 260 L 640 260 L 640 240 L 620 240 L 600 240 z M 640 260 L 640 280 L 660 280 L 680 280 L 680 260 L 660 260 L 640 260 z M 680 280 L 680 300 L 700 300 L 720 300 L 720 280 L 700 280 L 680 280 z M 720 300 L 720 320 L 740 320 L 760 320 L 760 300 L 740 300 L 720 300 z M 760 320 L 760 340 L 780 340 L 800 340 L 800 320 L 780 320 L 760 320 z M 800 340 L 800 360 L 820 360 L 840 360 L 840 340 L 820 340 L 800 340 z M 840 360 L 840 380 L 860 380 L 880 380 L 880 360 L 860 360 L 840 360 z M 200 520 L 200 540 L 200 560 L 220 560 L 220 540 L 220 520 L 200 520 z M 200 560 L 180 560 L 180 580 L 180 600 L 200 600 L 200 580 L 200 560 z M 180 600 L 160 600 L 160 620 L 160 640 L 180 640 L 180 620 L 180 600 z M 160 640 L 140 640 L 140 660 L 160 660 L 160 640 z "
     id="rect2098" />
  <path
     style="fill:#ff00ff"
     d="M 400 580 L 400 600 L 400 620 L 380 620 L 380 640 L 380 660 L 400 660 L 420 660 L 420 640 L 440 640 L 440 620 L 440 600 L 440 580 L 420 580 L 400 580 z "
     id="rect2124" />
  <path
     style="fill:#9900cc"
     d="M 440 600 L 440 620 L 440 640 L 460 640 L 460 620 L 460 600 L 440 600 z M 440 640 L 420 640 L 420 660 L 420 680 L 440 680 L 440 660 L 440 640 z "
     id="rect2196" />
  <path
     style="fill:#ff0000"
     d="M 600 580 L 600 600 L 600 620 L 580 620 L 580 640 L 580 660 L 560 660 L 560 680 L 560 700 L 540 700 L 540 720 L 540 740 L 560 740 L 580 740 L 580 720 L 600 720 L 600 700 L 600 680 L 620 680 L 620 660 L 620 640 L 640 640 L 640 620 L 640 600 L 640 580 L 620 580 L 600 580 z "
     id="rect2388" />
  <path
     style="fill:#a50021"
     d="M 640 600 L 640 620 L 640 640 L 660 640 L 660 620 L 660 600 L 640 600 z M 640 640 L 620 640 L 620 660 L 620 680 L 640 680 L 640 660 L 640 640 z M 620 680 L 600 680 L 600 700 L 600 720 L 620 720 L 620 700 L 620 680 z M 600 720 L 580 720 L 580 740 L 580 760 L 600 760 L 600 740 L 600 720 z "
     id="rect2440" />
  <path
     style="fill:#0000ff"
     d="M 500 580 L 500 600 L 500 620 L 480 620 L 480 640 L 480 660 L 460 660 L 460 680 L 440 680 L 420 680 L 420 700 L 440 700 L 460 700 L 460 720 L 480 720 L 500 720 L 500 700 L 500 680 L 520 680 L 520 660 L 520 640 L 540 640 L 540 620 L 540 600 L 540 580 L 520 580 L 500 580 z M 500 720 L 500 740 L 520 740 L 540 740 L 540 720 L 520 720 L 500 720 z M 540 740 L 540 760 L 560 760 L 580 760 L 580 740 L 560 740 L 540 740 z M 580 760 L 580 780 L 600 780 L 620 780 L 620 760 L 600 760 L 580 760 z M 420 680 L 420 660 L 400 660 L 380 660 L 380 680 L 400 680 L 420 680 z M 380 660 L 380 640 L 360 640 L 340 640 L 340 660 L 360 660 L 380 660 z "
     id="rect2486" />
  <path
     style="fill:#000080"
     d="M 540 600 L 540 620 L 540 640 L 560 640 L 560 620 L 560 600 L 540 600 z M 540 640 L 520 640 L 520 660 L 520 680 L 540 680 L 540 660 L 540 640 z M 520 680 L 500 680 L 500 700 L 500 720 L 520 720 L 520 700 L 520 680 z M 500 720 L 480 720 L 460 720 L 460 740 L 480 740 L 500 740 L 500 720 z M 500 740 L 500 760 L 520 760 L 540 760 L 540 740 L 520 740 L 500 740 z M 540 760 L 540 780 L 560 780 L 580 780 L 580 760 L 560 760 L 540 760 z M 580 780 L 580 800 L 600 800 L 620 800 L 620 780 L 600 780 L 580 780 z M 460 720 L 460 700 L 440 700 L 420 700 L 420 720 L 440 720 L 460 720 z M 420 700 L 420 680 L 400 680 L 380 680 L 380 700 L 400 700 L 420 700 z M 380 680 L 380 660 L 360 660 L 340 660 L 340 680 L 360 680 L 380 680 z "
     id="rect2526" />
  <path
     style="fill:#c0c0c0"
     d="M 340 40 L 340 60 L 340 80 L 320 80 L 320 100 L 320 120 L 300 120 L 300 140 L 300 160 L 280 160 L 280 180 L 280 200 L 300 200 L 300 180 L 320 180 L 320 160 L 340 160 L 340 140 L 360 140 L 380 140 L 400 140 L 420 140 L 440 140 L 460 140 L 480 140 L 500 140 L 500 160 L 500 180 L 520 180 L 520 200 L 540 200 L 560 200 L 560 220 L 580 220 L 600 220 L 600 240 L 620 240 L 640 240 L 640 260 L 660 260 L 680 260 L 680 280 L 700 280 L 720 280 L 720 300 L 740 300 L 760 300 L 760 320 L 780 320 L 800 320 L 800 340 L 820 340 L 840 340 L 840 360 L 860 360 L 880 360 L 880 380 L 900 380 L 900 360 L 900 340 L 920 340 L 920 320 L 900 320 L 880 320 L 880 300 L 860 300 L 840 300 L 840 280 L 820 280 L 800 280 L 800 260 L 780 260 L 760 260 L 760 240 L 740 240 L 720 240 L 720 220 L 700 220 L 680 220 L 680 200 L 660 200 L 640 200 L 640 180 L 620 180 L 600 180 L 600 160 L 580 160 L 560 160 L 560 140 L 540 140 L 520 140 L 520 120 L 500 120 L 480 120 L 480 100 L 460 100 L 440 100 L 440 80 L 420 80 L 400 80 L 400 60 L 380 60 L 360 60 L 360 40 L 340 40 z M 280 200 L 260 200 L 260 220 L 280 220 L 280 200 z M 420 240 L 420 260 L 440 260 L 460 260 L 460 240 L 440 240 L 420 240 z M 460 260 L 460 280 L 480 280 L 500 280 L 500 260 L 480 260 L 460 260 z M 500 280 L 500 300 L 520 300 L 540 300 L 540 280 L 520 280 L 500 280 z M 540 300 L 540 320 L 560 320 L 580 320 L 580 300 L 560 300 L 540 300 z M 580 320 L 580 340 L 600 340 L 620 340 L 620 320 L 600 320 L 580 320 z M 620 340 L 620 360 L 640 360 L 660 360 L 660 340 L 640 340 L 620 340 z M 660 360 L 660 380 L 680 380 L 700 380 L 700 360 L 680 360 L 660 360 z M 700 380 L 700 400 L 720 400 L 740 400 L 740 380 L 720 380 L 700 380 z M 740 400 L 740 420 L 760 420 L 780 420 L 780 400 L 760 400 L 740 400 z M 780 420 L 780 440 L 800 440 L 820 440 L 820 420 L 800 420 L 780 420 z M 820 440 L 820 460 L 840 460 L 860 460 L 860 440 L 840 440 L 820 440 z M 360 300 L 360 320 L 380 320 L 400 320 L 400 300 L 380 300 L 360 300 z M 400 320 L 400 340 L 420 340 L 440 340 L 440 320 L 420 320 L 400 320 z M 440 340 L 440 360 L 460 360 L 480 360 L 480 340 L 460 340 L 440 340 z M 500 360 L 500 380 L 520 380 L 520 360 L 500 360 z M 520 380 L 520 400 L 540 400 L 560 400 L 560 380 L 540 380 L 520 380 z M 560 400 L 560 420 L 580 420 L 600 420 L 600 400 L 580 400 L 560 400 z M 600 420 L 600 440 L 620 440 L 640 440 L 640 420 L 620 420 L 600 420 z M 640 440 L 640 460 L 660 460 L 680 460 L 680 440 L 660 440 L 640 440 z M 680 460 L 680 480 L 700 480 L 720 480 L 720 460 L 700 460 L 680 460 z M 720 480 L 720 500 L 740 500 L 760 500 L 760 480 L 740 480 L 720 480 z M 760 500 L 760 520 L 780 520 L 800 520 L 800 500 L 780 500 L 760 500 z M 800 520 L 800 540 L 820 540 L 820 520 L 800 520 z M 440 420 L 440 440 L 460 440 L 460 420 L 440 420 z M 460 440 L 460 460 L 480 460 L 500 460 L 500 440 L 480 440 L 460 440 z M 500 460 L 500 480 L 520 480 L 540 480 L 540 460 L 520 460 L 500 460 z M 540 480 L 540 500 L 560 500 L 580 500 L 580 480 L 560 480 L 540 480 z M 580 500 L 580 520 L 600 520 L 620 520 L 620 500 L 600 500 L 580 500 z M 620 520 L 620 540 L 640 540 L 660 540 L 660 520 L 640 520 L 620 520 z M 660 540 L 660 560 L 680 560 L 700 560 L 700 540 L 680 540 L 660 540 z M 700 560 L 700 580 L 720 580 L 740 580 L 740 560 L 720 560 L 700 560 z M 740 580 L 740 600 L 760 600 L 780 600 L 780 580 L 760 580 L 740 580 z M 100 520 L 100 540 L 100 560 L 80 560 L 80 580 L 80 600 L 60 600 L 60 620 L 80 620 L 100 620 L 100 640 L 120 640 L 140 640 L 160 640 L 160 620 L 160 600 L 180 600 L 180 580 L 180 560 L 200 560 L 200 540 L 200 520 L 180 520 L 160 520 L 140 520 L 120 520 L 100 520 z M 200 560 L 200 580 L 200 600 L 220 600 L 220 580 L 220 560 L 200 560 z M 220 600 L 220 620 L 240 620 L 260 620 L 260 600 L 240 600 L 220 600 z M 260 620 L 260 640 L 280 640 L 300 640 L 300 620 L 280 620 L 260 620 z M 300 640 L 300 660 L 320 660 L 340 660 L 340 640 L 320 640 L 300 640 z M 200 600 L 180 600 L 180 620 L 200 620 L 200 600 z M 160 640 L 160 660 L 180 660 L 180 640 L 160 640 z M 220 520 L 220 540 L 240 540 L 240 520 L 220 520 z M 260 520 L 260 540 L 280 540 L 300 540 L 300 520 L 280 520 L 260 520 z M 300 540 L 300 560 L 320 560 L 340 560 L 340 540 L 320 540 L 300 540 z M 340 560 L 340 580 L 360 580 L 380 580 L 380 560 L 360 560 L 340 560 z M 380 580 L 380 600 L 400 600 L 400 580 L 380 580 z M 480 540 L 480 560 L 500 560 L 520 560 L 520 540 L 500 540 L 480 540 z M 520 560 L 520 580 L 540 580 L 560 580 L 560 560 L 540 560 L 520 560 z M 560 580 L 560 600 L 580 600 L 600 600 L 600 580 L 580 580 L 560 580 z M 460 620 L 460 640 L 480 640 L 480 620 L 460 620 z M 660 620 L 660 640 L 680 640 L 680 620 L 660 620 z M 680 640 L 680 660 L 700 660 L 720 660 L 720 640 L 700 640 L 680 640 z M 720 660 L 720 680 L 740 680 L 740 660 L 720 660 z M 540 660 L 540 680 L 560 680 L 560 660 L 540 660 z M 620 700 L 620 720 L 640 720 L 660 720 L 660 700 L 640 700 L 620 700 z M 660 720 L 660 740 L 680 740 L 700 740 L 700 720 L 680 720 L 660 720 z M 620 800 L 620 820 L 640 820 L 660 820 L 660 800 L 640 800 L 620 800 z "
     id="rect2564" />
  <path
     style="fill:#ffffff"
     d="M 460 200 L 460 220 L 440 220 L 440 240 L 460 240 L 460 260 L 480 260 L 500 260 L 500 280 L 520 280 L 540 280 L 540 300 L 560 300 L 580 300 L 580 320 L 600 320 L 620 320 L 620 340 L 640 340 L 660 340 L 660 360 L 680 360 L 700 360 L 700 380 L 720 380 L 740 380 L 740 400 L 760 400 L 780 400 L 780 420 L 800 420 L 820 420 L 820 440 L 840 440 L 860 440 L 860 420 L 880 420 L 880 400 L 880 380 L 860 380 L 840 380 L 840 360 L 820 360 L 800 360 L 800 340 L 780 340 L 760 340 L 760 320 L 740 320 L 720 320 L 720 300 L 700 300 L 680 300 L 680 280 L 660 280 L 640 280 L 640 260 L 620 260 L 600 260 L 600 240 L 580 240 L 560 240 L 560 220 L 540 220 L 520 220 L 520 200 L 500 200 L 480 200 L 460 200 z M 820 440 L 800 440 L 780 440 L 780 420 L 760 420 L 740 420 L 740 400 L 720 400 L 700 400 L 700 380 L 680 380 L 660 380 L 660 360 L 640 360 L 620 360 L 620 340 L 600 340 L 580 340 L 580 320 L 560 320 L 540 320 L 540 300 L 520 300 L 500 300 L 500 280 L 480 280 L 460 280 L 460 260 L 440 260 L 420 260 L 400 260 L 400 280 L 380 280 L 380 300 L 400 300 L 400 320 L 420 320 L 440 320 L 440 340 L 460 340 L 480 340 L 480 360 L 500 360 L 520 360 L 520 380 L 540 380 L 560 380 L 560 400 L 580 400 L 600 400 L 600 420 L 620 420 L 640 420 L 640 440 L 660 440 L 680 440 L 680 460 L 700 460 L 720 460 L 720 480 L 740 480 L 760 480 L 760 500 L 780 500 L 800 500 L 800 520 L 820 520 L 820 500 L 840 500 L 840 480 L 840 460 L 820 460 L 820 440 z M 800 520 L 780 520 L 760 520 L 760 500 L 740 500 L 720 500 L 720 480 L 700 480 L 680 480 L 680 460 L 660 460 L 640 460 L 640 440 L 620 440 L 600 440 L 600 420 L 580 420 L 560 420 L 560 400 L 540 400 L 520 400 L 520 380 L 500 380 L 480 380 L 480 400 L 460 400 L 460 420 L 460 440 L 480 440 L 500 440 L 500 460 L 520 460 L 540 460 L 540 480 L 560 480 L 580 480 L 580 500 L 600 500 L 620 500 L 620 520 L 640 520 L 660 520 L 660 540 L 680 540 L 700 540 L 700 560 L 720 560 L 740 560 L 740 580 L 760 580 L 780 580 L 800 580 L 800 560 L 800 540 L 800 520 z M 740 580 L 720 580 L 700 580 L 700 560 L 680 560 L 660 560 L 660 540 L 640 540 L 620 540 L 620 520 L 600 520 L 580 520 L 580 500 L 560 500 L 540 500 L 540 480 L 520 480 L 500 480 L 500 500 L 520 500 L 520 520 L 540 520 L 540 540 L 520 540 L 520 560 L 540 560 L 560 560 L 560 580 L 580 580 L 600 580 L 620 580 L 640 580 L 640 600 L 660 600 L 660 620 L 680 620 L 680 640 L 700 640 L 720 640 L 720 660 L 740 660 L 760 660 L 760 640 L 760 620 L 780 620 L 780 600 L 760 600 L 740 600 L 740 580 z M 720 660 L 700 660 L 680 660 L 680 640 L 660 640 L 640 640 L 640 660 L 640 680 L 620 680 L 620 700 L 640 700 L 660 700 L 660 720 L 680 720 L 700 720 L 700 740 L 720 740 L 720 720 L 720 700 L 740 700 L 740 680 L 720 680 L 720 660 z M 700 740 L 680 740 L 660 740 L 660 720 L 640 720 L 620 720 L 600 720 L 600 740 L 600 760 L 620 760 L 620 780 L 620 800 L 640 800 L 660 800 L 660 820 L 680 820 L 680 800 L 680 780 L 700 780 L 700 760 L 700 740 z M 660 820 L 640 820 L 620 820 L 620 800 L 600 800 L 580 800 L 580 780 L 560 780 L 540 780 L 540 760 L 520 760 L 500 760 L 500 740 L 480 740 L 460 740 L 460 720 L 440 720 L 420 720 L 420 700 L 400 700 L 380 700 L 380 680 L 360 680 L 340 680 L 340 660 L 320 660 L 300 660 L 300 640 L 280 640 L 260 640 L 260 620 L 240 620 L 220 620 L 220 600 L 200 600 L 200 620 L 180 620 L 180 640 L 180 660 L 180 680 L 200 680 L 220 680 L 220 700 L 240 700 L 260 700 L 260 720 L 280 720 L 300 720 L 300 740 L 320 740 L 340 740 L 340 760 L 360 760 L 380 760 L 380 780 L 400 780 L 420 780 L 420 800 L 440 800 L 460 800 L 460 820 L 480 820 L 500 820 L 500 840 L 520 840 L 540 840 L 540 860 L 560 860 L 580 860 L 580 880 L 600 880 L 620 880 L 620 900 L 640 900 L 640 880 L 640 860 L 660 860 L 660 840 L 660 820 z M 220 600 L 240 600 L 260 600 L 260 620 L 280 620 L 300 620 L 300 640 L 320 640 L 340 640 L 360 640 L 380 640 L 380 620 L 400 620 L 400 600 L 380 600 L 380 580 L 360 580 L 340 580 L 340 560 L 320 560 L 300 560 L 300 540 L 280 540 L 260 540 L 260 520 L 240 520 L 240 540 L 220 540 L 220 560 L 220 580 L 220 600 z M 300 540 L 320 540 L 340 540 L 340 560 L 360 560 L 380 560 L 380 580 L 400 580 L 420 580 L 440 580 L 440 600 L 460 600 L 460 620 L 480 620 L 500 620 L 500 600 L 500 580 L 520 580 L 520 560 L 500 560 L 480 560 L 480 540 L 460 540 L 440 540 L 420 540 L 400 540 L 380 540 L 360 540 L 360 520 L 340 520 L 320 520 L 300 520 L 300 540 z M 560 580 L 540 580 L 540 600 L 560 600 L 560 580 z M 560 600 L 560 620 L 560 640 L 540 640 L 540 660 L 560 660 L 580 660 L 580 640 L 580 620 L 600 620 L 600 600 L 580 600 L 560 600 z M 500 480 L 500 460 L 480 460 L 480 480 L 500 480 z M 440 340 L 420 340 L 400 340 L 400 320 L 380 320 L 360 320 L 340 320 L 340 340 L 360 340 L 360 360 L 380 360 L 400 360 L 420 360 L 440 360 L 440 340 z M 440 640 L 440 660 L 440 680 L 460 680 L 460 660 L 480 660 L 480 640 L 460 640 L 440 640 z M 520 680 L 520 700 L 520 720 L 540 720 L 540 700 L 560 700 L 560 680 L 540 680 L 520 680 z "
     id="rect2650" />
  <path
     style="fill:#000000"
     d="M 320 0 L 320 20 L 320 40 L 300 40 L 300 60 L 300 80 L 280 80 L 280 100 L 280 120 L 260 120 L 260 140 L 260 160 L 240 160 L 240 180 L 240 200 L 220 200 L 200 200 L 200 220 L 220 220 L 220 240 L 240 240 L 240 260 L 260 260 L 260 240 L 280 240 L 280 220 L 260 220 L 260 200 L 280 200 L 280 180 L 280 160 L 300 160 L 300 140 L 300 120 L 320 120 L 320 100 L 320 80 L 340 80 L 340 60 L 340 40 L 360 40 L 360 60 L 380 60 L 400 60 L 400 80 L 420 80 L 440 80 L 440 100 L 460 100 L 480 100 L 480 120 L 500 120 L 520 120 L 520 140 L 540 140 L 560 140 L 560 160 L 580 160 L 600 160 L 600 180 L 620 180 L 640 180 L 640 200 L 660 200 L 680 200 L 680 220 L 700 220 L 720 220 L 720 240 L 740 240 L 760 240 L 760 260 L 780 260 L 800 260 L 800 280 L 820 280 L 840 280 L 840 300 L 860 300 L 880 300 L 880 320 L 900 320 L 920 320 L 920 340 L 900 340 L 900 360 L 900 380 L 880 380 L 880 400 L 880 420 L 860 420 L 860 440 L 860 460 L 840 460 L 840 480 L 840 500 L 820 500 L 820 520 L 820 540 L 800 540 L 800 560 L 800 580 L 780 580 L 780 600 L 780 620 L 760 620 L 760 640 L 760 660 L 740 660 L 740 680 L 740 700 L 720 700 L 720 720 L 720 740 L 700 740 L 700 760 L 700 780 L 680 780 L 680 800 L 680 820 L 660 820 L 660 840 L 660 860 L 640 860 L 640 880 L 640 900 L 620 900 L 620 880 L 600 880 L 580 880 L 580 860 L 560 860 L 540 860 L 540 840 L 520 840 L 500 840 L 500 820 L 480 820 L 460 820 L 460 800 L 440 800 L 420 800 L 420 780 L 400 780 L 380 780 L 380 760 L 360 760 L 340 760 L 340 740 L 320 740 L 300 740 L 300 720 L 280 720 L 260 720 L 260 700 L 240 700 L 220 700 L 220 680 L 200 680 L 180 680 L 180 660 L 160 660 L 140 660 L 140 640 L 120 640 L 100 640 L 100 620 L 80 620 L 60 620 L 60 600 L 80 600 L 80 580 L 80 560 L 100 560 L 100 540 L 100 520 L 120 520 L 140 520 L 160 520 L 180 520 L 200 520 L 220 520 L 240 520 L 260 520 L 280 520 L 300 520 L 320 520 L 340 520 L 360 520 L 360 500 L 340 500 L 340 480 L 320 480 L 320 500 L 300 500 L 280 500 L 260 500 L 240 500 L 220 500 L 200 500 L 180 500 L 160 500 L 140 500 L 120 500 L 100 500 L 80 500 L 60 500 L 40 500 L 20 500 L 20 480 L 0 480 L 0 500 L 0 520 L 20 520 L 40 520 L 60 520 L 60 540 L 60 560 L 40 560 L 40 580 L 40 600 L 20 600 L 20 620 L 20 640 L 40 640 L 60 640 L 60 660 L 80 660 L 100 660 L 100 680 L 120 680 L 140 680 L 140 700 L 160 700 L 180 700 L 180 720 L 200 720 L 220 720 L 220 740 L 240 740 L 260 740 L 260 760 L 280 760 L 300 760 L 300 780 L 320 780 L 340 780 L 340 800 L 360 800 L 380 800 L 380 820 L 400 820 L 420 820 L 420 840 L 440 840 L 460 840 L 460 860 L 480 860 L 500 860 L 500 880 L 520 880 L 540 880 L 540 900 L 560 900 L 580 900 L 580 920 L 600 920 L 620 920 L 620 940 L 640 940 L 660 940 L 660 920 L 660 900 L 680 900 L 680 880 L 680 860 L 700 860 L 700 840 L 700 820 L 720 820 L 720 800 L 720 780 L 740 780 L 740 760 L 740 740 L 760 740 L 760 720 L 760 700 L 780 700 L 780 680 L 780 660 L 800 660 L 800 640 L 800 620 L 820 620 L 820 600 L 820 580 L 840 580 L 840 560 L 840 540 L 860 540 L 860 520 L 860 500 L 880 500 L 880 480 L 880 460 L 900 460 L 900 440 L 900 420 L 920 420 L 920 400 L 920 380 L 940 380 L 940 360 L 940 340 L 960 340 L 960 320 L 960 300 L 940 300 L 920 300 L 920 280 L 900 280 L 880 280 L 880 260 L 860 260 L 840 260 L 840 240 L 820 240 L 800 240 L 800 220 L 780 220 L 760 220 L 760 200 L 740 200 L 720 200 L 720 180 L 700 180 L 680 180 L 680 160 L 660 160 L 640 160 L 640 140 L 620 140 L 600 140 L 600 120 L 580 120 L 560 120 L 560 100 L 540 100 L 520 100 L 520 80 L 500 80 L 480 80 L 480 60 L 460 60 L 440 60 L 440 40 L 420 40 L 400 40 L 400 20 L 380 20 L 360 20 L 360 0 L 340 0 L 320 0 z M 20 480 L 40 480 L 40 460 L 20 460 L 20 480 z M 40 460 L 60 460 L 60 440 L 40 440 L 40 460 z M 60 440 L 80 440 L 80 420 L 60 420 L 60 440 z M 80 420 L 100 420 L 100 400 L 80 400 L 80 420 z M 100 400 L 120 400 L 120 380 L 100 380 L 100 400 z M 120 380 L 140 380 L 140 360 L 120 360 L 120 380 z M 140 360 L 160 360 L 160 340 L 140 340 L 140 360 z M 160 340 L 180 340 L 180 320 L 160 320 L 160 340 z M 160 320 L 160 300 L 140 300 L 140 320 L 160 320 z M 140 300 L 140 280 L 120 280 L 120 300 L 140 300 z M 120 280 L 120 260 L 100 260 L 100 280 L 120 280 z M 100 260 L 100 240 L 80 240 L 80 260 L 100 260 z M 80 240 L 80 220 L 60 220 L 60 240 L 80 240 z M 60 220 L 60 200 L 40 200 L 40 220 L 60 220 z M 40 200 L 40 180 L 20 180 L 20 200 L 40 200 z M 20 180 L 20 160 L 40 160 L 60 160 L 80 160 L 100 160 L 120 160 L 140 160 L 160 160 L 160 140 L 140 140 L 120 140 L 100 140 L 80 140 L 60 140 L 40 140 L 20 140 L 0 140 L 0 160 L 0 180 L 20 180 z M 160 160 L 160 180 L 180 180 L 180 160 L 160 160 z M 180 180 L 180 200 L 200 200 L 200 180 L 180 180 z M 180 340 L 180 360 L 200 360 L 200 340 L 180 340 z M 200 360 L 200 380 L 220 380 L 220 360 L 200 360 z M 220 380 L 220 400 L 240 400 L 240 380 L 220 380 z M 240 400 L 240 420 L 260 420 L 260 400 L 240 400 z M 260 420 L 260 440 L 280 440 L 280 420 L 260 420 z M 280 440 L 280 460 L 300 460 L 300 440 L 280 440 z M 300 460 L 300 480 L 320 480 L 320 460 L 300 460 z M 360 520 L 360 540 L 380 540 L 400 540 L 420 540 L 440 540 L 460 540 L 480 540 L 500 540 L 520 540 L 540 540 L 540 520 L 520 520 L 520 500 L 500 500 L 500 520 L 480 520 L 460 520 L 440 520 L 420 520 L 400 520 L 380 520 L 360 520 z M 500 500 L 500 480 L 480 480 L 480 500 L 500 500 z M 480 480 L 480 460 L 460 460 L 460 480 L 480 480 z M 460 460 L 460 440 L 440 440 L 440 460 L 460 460 z M 440 440 L 440 420 L 420 420 L 420 440 L 440 440 z M 420 420 L 420 400 L 400 400 L 400 420 L 420 420 z M 400 400 L 400 380 L 420 380 L 440 380 L 460 380 L 460 400 L 480 400 L 480 380 L 500 380 L 500 360 L 480 360 L 460 360 L 440 360 L 420 360 L 400 360 L 380 360 L 360 360 L 360 380 L 380 380 L 380 400 L 400 400 z M 360 360 L 360 340 L 340 340 L 340 360 L 360 360 z M 340 340 L 340 320 L 320 320 L 320 340 L 340 340 z M 320 320 L 320 300 L 300 300 L 300 320 L 320 320 z M 300 300 L 300 280 L 280 280 L 280 300 L 300 300 z M 280 280 L 280 260 L 260 260 L 260 280 L 280 280 z M 340 320 L 360 320 L 360 300 L 340 300 L 340 320 z M 360 300 L 380 300 L 380 280 L 360 280 L 360 300 z M 380 280 L 400 280 L 400 260 L 380 260 L 380 280 z M 400 260 L 420 260 L 420 240 L 400 240 L 400 260 z M 420 240 L 440 240 L 440 220 L 420 220 L 420 240 z M 440 220 L 460 220 L 460 200 L 440 200 L 440 220 z M 460 200 L 480 200 L 480 180 L 460 180 L 460 200 z M 480 180 L 500 180 L 500 160 L 500 140 L 480 140 L 460 140 L 440 140 L 420 140 L 400 140 L 380 140 L 360 140 L 340 140 L 340 160 L 360 160 L 380 160 L 400 160 L 420 160 L 440 160 L 460 160 L 480 160 L 480 180 z M 340 160 L 320 160 L 320 180 L 340 180 L 340 160 z M 320 180 L 300 180 L 300 200 L 320 200 L 320 180 z M 300 200 L 280 200 L 280 220 L 300 220 L 300 200 z M 460 400 L 440 400 L 440 420 L 460 420 L 460 400 z "
     id="rect2666" />
</svg>
