<?xml version="1.0" encoding="UTF-8" standalone="no"?>
<svg
   xmlns:dc="http://purl.org/dc/elements/1.1/"
   xmlns:cc="http://creativecommons.org/ns#"
   xmlns:rdf="http://www.w3.org/1999/02/22-rdf-syntax-ns#"
   xmlns:svg="http://www.w3.org/2000/svg"
   xmlns="http://www.w3.org/2000/svg"
   xmlns:sodipodi="http://sodipodi.sourceforge.net/DTD/sodipodi-0.dtd"
   xmlns:inkscape="http://www.inkscape.org/namespaces/inkscape"
   id="svg2430"
   width="900px"
   version="1.1"
   height="960px"
   sodipodi:docname="chicago95_tmp_file.svg"
   inkscape:version="0.92.4 (5da689c313, 2019-01-14)">
  <sodipodi:namedview
     pagecolor="#ffffff"
     bordercolor="#666666"
     borderopacity="1"
     objecttolerance="10"
     gridtolerance="10"
     guidetolerance="10"
     inkscape:pageopacity="0"
     inkscape:pageshadow="2"
     inkscape:window-width="640"
     inkscape:window-height="480"
     id="namedview1218"
     showgrid="false"
     inkscape:zoom="0.24583333"
     inkscape:cx="449.99991"
     inkscape:cy="479.99991"
     inkscape:window-x="0"
     inkscape:window-y="0"
     inkscape:window-maximized="0"
     inkscape:current-layer="svg2430" />
  <metadata
     id="metadata2434">
    <rdf:RDF>
      <cc:Work
         rdf:about="">
        <dc:format>image/svg+xml</dc:format>
        <dc:type
           rdf:resource="http://purl.org/dc/dcmitype/StillImage" />
      </cc:Work>
    </rdf:RDF>
  </metadata>
  <defs
     id="defs2" />
  <path
     style="fill:#00ff00"
     d="M 500 80 L 500 100 L 520 100 L 540 100 L 540 80 L 520 80 L 500 80 z M 500 100 L 480 100 L 460 100 L 440 100 L 420 100 L 420 120 L 440 120 L 440 140 L 460 140 L 460 120 L 480 120 L 500 120 L 500 100 z M 440 140 L 420 140 L 420 160 L 440 160 L 440 140 z M 420 160 L 400 160 L 400 180 L 420 180 L 420 160 z M 400 180 L 380 180 L 380 200 L 400 200 L 400 180 z M 380 180 L 380 160 L 360 160 L 360 180 L 380 180 z M 360 160 L 360 140 L 340 140 L 340 160 L 360 160 z M 360 140 L 380 140 L 380 120 L 360 120 L 360 140 z M 380 140 L 380 160 L 400 160 L 400 140 L 380 140 z M 400 140 L 420 140 L 420 120 L 400 120 L 400 140 z M 560 180 L 560 200 L 580 200 L 580 180 L 560 180 z M 580 200 L 580 220 L 600 220 L 600 200 L 580 200 z M 580 220 L 560 220 L 560 240 L 580 240 L 580 220 z M 580 240 L 580 260 L 580 280 L 580 300 L 600 300 L 600 280 L 620 280 L 640 280 L 660 280 L 660 260 L 660 240 L 660 220 L 640 220 L 640 200 L 620 200 L 620 220 L 620 240 L 600 240 L 580 240 z M 640 200 L 660 200 L 660 180 L 640 180 L 640 200 z M 660 200 L 660 220 L 680 220 L 680 200 L 660 200 z M 600 300 L 600 320 L 620 320 L 620 300 L 600 300 z M 620 320 L 620 340 L 640 340 L 640 320 L 620 320 z M 640 340 L 640 360 L 660 360 L 660 340 L 640 340 z M 660 360 L 660 380 L 680 380 L 680 360 L 660 360 z M 680 360 L 700 360 L 700 340 L 680 340 L 680 360 z M 620 340 L 600 340 L 600 360 L 620 360 L 620 340 z M 600 360 L 580 360 L 580 380 L 600 380 L 600 360 z M 580 360 L 580 340 L 560 340 L 560 360 L 580 360 z M 580 340 L 600 340 L 600 320 L 580 320 L 580 340 z M 580 320 L 580 300 L 560 300 L 560 320 L 580 320 z M 560 300 L 560 280 L 540 280 L 540 300 L 560 300 z M 560 220 L 560 200 L 540 200 L 540 220 L 560 220 z M 400 380 L 400 400 L 420 400 L 420 380 L 400 380 z M 400 400 L 380 400 L 380 420 L 400 420 L 400 400 z M 380 420 L 360 420 L 360 440 L 380 440 L 380 420 z "
     id="rect1560" />
  <path
     style="fill:#0000ff"
     d="M 600 80 L 600 100 L 600 120 L 580 120 L 580 140 L 560 140 L 540 140 L 540 160 L 520 160 L 520 140 L 500 140 L 480 140 L 480 160 L 460 160 L 460 180 L 440 180 L 440 200 L 420 200 L 420 220 L 420 240 L 420 260 L 420 280 L 420 300 L 420 320 L 420 340 L 440 340 L 460 340 L 460 360 L 480 360 L 500 360 L 500 380 L 520 380 L 520 360 L 540 360 L 540 340 L 540 320 L 520 320 L 520 300 L 520 280 L 540 280 L 540 260 L 560 260 L 560 240 L 540 240 L 540 220 L 520 220 L 520 240 L 520 260 L 500 260 L 480 260 L 480 240 L 480 220 L 500 220 L 520 220 L 520 200 L 540 200 L 540 180 L 560 180 L 560 160 L 580 160 L 580 180 L 600 180 L 620 180 L 620 160 L 640 160 L 640 140 L 660 140 L 660 120 L 640 120 L 640 100 L 620 100 L 620 80 L 600 80 z M 660 140 L 660 160 L 680 160 L 680 140 L 660 140 z M 680 160 L 680 180 L 700 180 L 700 160 L 680 160 z M 700 180 L 700 200 L 700 220 L 700 240 L 720 240 L 720 220 L 720 200 L 720 180 L 700 180 z M 520 380 L 520 400 L 540 400 L 540 380 L 520 380 z M 540 400 L 540 420 L 560 420 L 560 400 L 540 400 z M 540 420 L 520 420 L 520 440 L 540 440 L 540 420 z M 520 440 L 500 440 L 500 460 L 520 460 L 520 440 z M 500 440 L 500 420 L 480 420 L 480 440 L 500 440 z M 480 440 L 460 440 L 460 460 L 480 460 L 480 440 z M 480 420 L 480 400 L 460 400 L 460 420 L 480 420 z M 480 400 L 500 400 L 500 380 L 480 380 L 480 400 z M 500 400 L 500 420 L 520 420 L 520 400 L 500 400 z M 580 400 L 580 420 L 600 420 L 620 420 L 620 400 L 600 400 L 580 400 z M 620 420 L 620 440 L 640 440 L 640 420 L 620 420 z "
     id="rect1644" />
  <path
     style="fill:#008000"
     d="M 540 80 L 540 100 L 520 100 L 500 100 L 500 120 L 480 120 L 460 120 L 460 140 L 440 140 L 440 160 L 420 160 L 420 180 L 400 180 L 400 200 L 400 220 L 420 220 L 420 200 L 440 200 L 440 180 L 460 180 L 460 160 L 480 160 L 480 140 L 500 140 L 520 140 L 520 160 L 540 160 L 540 140 L 560 140 L 580 140 L 580 120 L 600 120 L 600 100 L 600 80 L 580 80 L 560 80 L 540 80 z M 400 180 L 400 160 L 380 160 L 380 180 L 400 180 z M 400 160 L 420 160 L 420 140 L 400 140 L 400 160 z M 420 140 L 440 140 L 440 120 L 420 120 L 420 140 z M 560 160 L 560 180 L 580 180 L 580 160 L 560 160 z M 580 180 L 580 200 L 600 200 L 600 220 L 580 220 L 580 240 L 600 240 L 620 240 L 620 220 L 620 200 L 640 200 L 640 180 L 660 180 L 660 200 L 680 200 L 680 220 L 660 220 L 660 240 L 660 260 L 680 260 L 680 280 L 700 280 L 700 300 L 700 320 L 700 340 L 700 360 L 720 360 L 720 340 L 720 320 L 720 300 L 720 280 L 720 260 L 720 240 L 700 240 L 700 220 L 700 200 L 700 180 L 680 180 L 680 160 L 660 160 L 640 160 L 620 160 L 620 180 L 600 180 L 580 180 z M 700 360 L 680 360 L 680 380 L 660 380 L 660 360 L 640 360 L 640 340 L 620 340 L 620 360 L 600 360 L 600 380 L 600 400 L 620 400 L 620 420 L 640 420 L 640 440 L 660 440 L 680 440 L 680 420 L 700 420 L 700 400 L 700 380 L 700 360 z M 600 360 L 600 340 L 580 340 L 580 360 L 600 360 z M 580 360 L 560 360 L 560 340 L 560 320 L 540 320 L 540 340 L 540 360 L 540 380 L 560 380 L 580 380 L 580 360 z M 540 320 L 540 300 L 540 280 L 520 280 L 520 300 L 520 320 L 540 320 z M 540 280 L 560 280 L 560 300 L 580 300 L 580 280 L 580 260 L 580 240 L 560 240 L 560 260 L 540 260 L 540 280 z M 560 240 L 560 220 L 540 220 L 540 240 L 560 240 z M 540 220 L 540 200 L 520 200 L 520 220 L 540 220 z M 520 220 L 500 220 L 480 220 L 480 240 L 480 260 L 500 260 L 520 260 L 520 240 L 520 220 z M 540 200 L 560 200 L 560 180 L 540 180 L 540 200 z M 560 200 L 560 220 L 580 220 L 580 200 L 560 200 z M 580 300 L 580 320 L 600 320 L 600 300 L 580 300 z M 600 300 L 620 300 L 620 320 L 640 320 L 640 300 L 640 280 L 620 280 L 600 280 L 600 300 z M 640 320 L 640 340 L 660 340 L 660 320 L 640 320 z M 660 340 L 660 360 L 680 360 L 680 340 L 660 340 z M 620 320 L 600 320 L 600 340 L 620 340 L 620 320 z M 660 220 L 660 200 L 640 200 L 640 220 L 660 220 z M 420 340 L 420 360 L 400 360 L 400 380 L 420 380 L 420 400 L 400 400 L 400 420 L 380 420 L 380 440 L 360 440 L 360 420 L 340 420 L 340 440 L 320 440 L 320 460 L 340 460 L 340 480 L 360 480 L 380 480 L 400 480 L 400 460 L 420 460 L 420 440 L 440 440 L 440 420 L 440 400 L 460 400 L 480 400 L 480 380 L 480 360 L 460 360 L 460 340 L 440 340 L 420 340 z M 360 420 L 380 420 L 380 400 L 360 400 L 360 420 z M 380 400 L 400 400 L 400 380 L 380 380 L 380 400 z "
     id="rect1698" />
  <path
     style="fill:#000080"
     d="M 640 140 L 640 160 L 660 160 L 660 140 L 640 140 z M 480 360 L 480 380 L 500 380 L 500 360 L 480 360 z M 500 380 L 500 400 L 520 400 L 520 380 L 500 380 z M 520 380 L 540 380 L 540 360 L 520 360 L 520 380 z M 540 380 L 540 400 L 560 400 L 560 380 L 540 380 z M 560 400 L 560 420 L 540 420 L 540 440 L 520 440 L 520 460 L 500 460 L 500 440 L 480 440 L 480 460 L 460 460 L 440 460 L 420 460 L 420 480 L 400 480 L 400 500 L 420 500 L 420 520 L 440 520 L 460 520 L 480 520 L 500 520 L 520 520 L 540 520 L 560 520 L 580 520 L 580 500 L 600 500 L 620 500 L 620 480 L 640 480 L 640 460 L 640 440 L 620 440 L 620 420 L 600 420 L 580 420 L 580 400 L 560 400 z M 480 440 L 480 420 L 460 420 L 460 440 L 480 440 z M 480 420 L 500 420 L 500 400 L 480 400 L 480 420 z M 500 420 L 500 440 L 520 440 L 520 420 L 500 420 z M 520 420 L 540 420 L 540 400 L 520 400 L 520 420 z "
     id="rect1838" />
  <path
     style="fill:#ffffff"
     d="M 320 40 L 320 60 L 300 60 L 300 80 L 280 80 L 280 100 L 300 100 L 300 120 L 320 120 L 320 140 L 340 140 L 360 140 L 360 120 L 360 100 L 380 100 L 380 80 L 400 80 L 420 80 L 420 100 L 440 100 L 440 80 L 440 60 L 460 60 L 480 60 L 500 60 L 520 60 L 540 60 L 560 60 L 560 80 L 580 80 L 600 80 L 620 80 L 620 60 L 600 60 L 600 40 L 580 40 L 560 40 L 540 40 L 520 40 L 500 40 L 480 40 L 460 40 L 440 40 L 420 40 L 400 40 L 380 40 L 360 40 L 340 40 L 320 40 z M 620 80 L 620 100 L 640 100 L 640 80 L 620 80 z M 640 100 L 640 120 L 660 120 L 660 100 L 640 100 z M 660 120 L 660 140 L 680 140 L 680 120 L 660 120 z M 680 140 L 680 160 L 700 160 L 700 140 L 680 140 z M 700 160 L 700 180 L 720 180 L 720 160 L 700 160 z M 720 180 L 720 200 L 720 220 L 720 240 L 740 240 L 740 260 L 740 280 L 740 300 L 740 320 L 740 340 L 740 360 L 720 360 L 720 380 L 720 400 L 720 420 L 700 420 L 700 440 L 680 440 L 680 460 L 660 460 L 660 480 L 640 480 L 640 500 L 620 500 L 620 520 L 600 520 L 580 520 L 580 540 L 560 540 L 540 540 L 520 540 L 500 540 L 480 540 L 460 540 L 440 540 L 420 540 L 420 520 L 400 520 L 380 520 L 380 500 L 360 500 L 360 480 L 340 480 L 340 460 L 320 460 L 320 440 L 300 440 L 300 460 L 300 480 L 300 500 L 320 500 L 320 520 L 340 520 L 340 540 L 360 540 L 360 560 L 380 560 L 380 580 L 400 580 L 400 600 L 420 600 L 420 620 L 440 620 L 440 640 L 460 640 L 460 660 L 480 660 L 500 660 L 520 660 L 520 640 L 540 640 L 540 620 L 560 620 L 560 600 L 580 600 L 580 580 L 600 580 L 600 560 L 620 560 L 620 540 L 640 540 L 640 520 L 660 520 L 660 500 L 680 500 L 680 480 L 700 480 L 700 460 L 720 460 L 720 440 L 740 440 L 740 420 L 760 420 L 760 400 L 780 400 L 780 380 L 800 380 L 800 360 L 820 360 L 820 340 L 840 340 L 840 320 L 840 300 L 840 280 L 820 280 L 820 260 L 800 260 L 800 240 L 780 240 L 780 220 L 760 220 L 760 200 L 740 200 L 740 180 L 720 180 z M 420 100 L 400 100 L 400 120 L 420 120 L 420 100 z M 400 120 L 380 120 L 380 140 L 400 140 L 400 120 z M 380 140 L 360 140 L 360 160 L 380 160 L 380 140 z M 100 120 L 100 140 L 120 140 L 140 140 L 160 140 L 180 140 L 200 140 L 220 140 L 240 140 L 260 140 L 260 120 L 240 120 L 220 120 L 200 120 L 180 120 L 160 120 L 140 120 L 120 120 L 100 120 z M 100 140 L 80 140 L 80 160 L 100 160 L 100 140 z M 80 160 L 60 160 L 60 180 L 80 180 L 80 160 z M 60 180 L 40 180 L 40 200 L 60 200 L 60 180 z M 40 200 L 20 200 L 20 220 L 20 240 L 20 260 L 20 280 L 20 300 L 20 320 L 20 340 L 20 360 L 40 360 L 40 340 L 40 320 L 40 300 L 40 280 L 40 260 L 40 240 L 40 220 L 40 200 z M 40 360 L 40 380 L 60 380 L 60 360 L 40 360 z M 60 380 L 60 400 L 80 400 L 80 380 L 60 380 z M 80 400 L 80 420 L 100 420 L 100 400 L 80 400 z M 100 420 L 100 440 L 120 440 L 120 420 L 100 420 z M 120 440 L 120 460 L 140 460 L 140 440 L 120 440 z M 140 460 L 140 480 L 160 480 L 160 460 L 140 460 z M 160 480 L 160 500 L 160 520 L 180 520 L 180 500 L 180 480 L 160 480 z M 160 520 L 140 520 L 140 540 L 160 540 L 160 520 z M 140 540 L 120 540 L 120 560 L 120 580 L 140 580 L 140 560 L 140 540 z M 180 200 L 180 220 L 200 220 L 220 220 L 220 200 L 200 200 L 180 200 z M 240 220 L 240 240 L 220 240 L 200 240 L 180 240 L 180 260 L 180 280 L 200 280 L 220 280 L 240 280 L 240 260 L 260 260 L 260 240 L 260 220 L 240 220 z M 660 260 L 660 280 L 680 280 L 680 260 L 660 260 z M 680 280 L 680 300 L 700 300 L 700 280 L 680 280 z M 680 300 L 660 300 L 660 320 L 680 320 L 680 300 z M 680 320 L 680 340 L 700 340 L 700 320 L 680 320 z M 660 300 L 660 280 L 640 280 L 640 300 L 660 300 z M 160 660 L 160 680 L 180 680 L 180 660 L 160 660 z M 160 680 L 140 680 L 120 680 L 120 700 L 120 720 L 140 720 L 140 700 L 160 700 L 160 680 z M 140 720 L 140 740 L 160 740 L 160 720 L 140 720 z M 160 740 L 160 760 L 180 760 L 180 740 L 160 740 z M 180 780 L 180 800 L 200 800 L 200 780 L 180 780 z M 140 820 L 140 840 L 140 860 L 160 860 L 160 840 L 160 820 L 140 820 z "
     id="rect2352" />
  <path
     style="fill:#c0c0c0"
     d="M 320 20 L 320 40 L 340 40 L 360 40 L 380 40 L 400 40 L 420 40 L 440 40 L 460 40 L 480 40 L 500 40 L 520 40 L 540 40 L 560 40 L 580 40 L 600 40 L 600 20 L 580 20 L 560 20 L 540 20 L 520 20 L 500 20 L 480 20 L 460 20 L 440 20 L 420 20 L 400 20 L 380 20 L 360 20 L 340 20 L 320 20 z M 600 40 L 600 60 L 620 60 L 620 40 L 600 40 z M 620 60 L 620 80 L 640 80 L 640 60 L 620 60 z M 640 80 L 640 100 L 660 100 L 660 80 L 640 80 z M 660 100 L 660 120 L 680 120 L 680 100 L 660 100 z M 680 120 L 680 140 L 700 140 L 700 120 L 680 120 z M 700 140 L 700 160 L 720 160 L 720 140 L 700 140 z M 720 160 L 720 180 L 740 180 L 740 160 L 720 160 z M 740 180 L 740 200 L 760 200 L 760 180 L 740 180 z M 760 200 L 760 220 L 780 220 L 780 200 L 760 200 z M 780 220 L 780 240 L 800 240 L 800 220 L 780 220 z M 800 240 L 800 260 L 820 260 L 820 240 L 800 240 z M 820 260 L 820 280 L 840 280 L 840 260 L 820 260 z M 840 280 L 840 300 L 840 320 L 840 340 L 860 340 L 860 320 L 860 300 L 860 280 L 840 280 z M 840 340 L 820 340 L 820 360 L 840 360 L 840 340 z M 820 360 L 800 360 L 800 380 L 820 380 L 820 360 z M 800 380 L 780 380 L 780 400 L 800 400 L 800 380 z M 780 400 L 760 400 L 760 420 L 780 420 L 780 400 z M 760 420 L 740 420 L 740 440 L 760 440 L 760 420 z M 740 440 L 720 440 L 720 460 L 740 460 L 740 440 z M 720 460 L 700 460 L 700 480 L 720 480 L 720 460 z M 700 480 L 680 480 L 680 500 L 700 500 L 700 480 z M 680 500 L 660 500 L 660 520 L 680 520 L 680 500 z M 660 520 L 640 520 L 640 540 L 660 540 L 660 520 z M 640 540 L 620 540 L 620 560 L 640 560 L 640 540 z M 620 560 L 600 560 L 600 580 L 620 580 L 620 560 z M 600 580 L 580 580 L 580 600 L 600 600 L 600 580 z M 580 600 L 560 600 L 560 620 L 580 620 L 580 600 z M 560 620 L 540 620 L 540 640 L 560 640 L 560 620 z M 540 640 L 520 640 L 520 660 L 540 660 L 540 640 z M 520 660 L 500 660 L 480 660 L 460 660 L 460 680 L 480 680 L 500 680 L 520 680 L 520 660 z M 460 660 L 460 640 L 440 640 L 440 660 L 460 660 z M 440 640 L 440 620 L 420 620 L 420 640 L 440 640 z M 420 620 L 420 600 L 400 600 L 400 620 L 420 620 z M 400 600 L 400 580 L 380 580 L 380 600 L 400 600 z M 380 580 L 380 560 L 360 560 L 360 580 L 380 580 z M 360 560 L 360 540 L 340 540 L 340 560 L 360 560 z M 340 540 L 340 520 L 320 520 L 320 540 L 340 540 z M 320 520 L 320 500 L 300 500 L 300 520 L 320 520 z M 320 40 L 300 40 L 300 60 L 320 60 L 320 40 z M 300 60 L 280 60 L 280 80 L 300 80 L 300 60 z M 440 80 L 440 100 L 460 100 L 480 100 L 500 100 L 500 80 L 480 80 L 460 80 L 440 80 z M 380 100 L 380 120 L 400 120 L 400 100 L 380 100 z M 100 240 L 100 260 L 120 260 L 140 260 L 140 240 L 120 240 L 100 240 z M 280 240 L 280 260 L 300 260 L 320 260 L 320 240 L 300 240 L 280 240 z M 100 280 L 100 300 L 120 300 L 140 300 L 160 300 L 160 280 L 140 280 L 120 280 L 100 280 z M 260 280 L 260 300 L 280 300 L 300 300 L 320 300 L 320 280 L 300 280 L 280 280 L 260 280 z M 660 280 L 660 300 L 680 300 L 680 280 L 660 280 z M 680 300 L 680 320 L 700 320 L 700 300 L 680 300 z M 680 320 L 660 320 L 660 340 L 680 340 L 680 320 z M 660 320 L 660 300 L 640 300 L 640 320 L 660 320 z M 540 300 L 540 320 L 560 320 L 560 300 L 540 300 z M 560 320 L 560 340 L 580 340 L 580 320 L 560 320 z M 100 320 L 100 340 L 120 340 L 140 340 L 160 340 L 180 340 L 200 340 L 220 340 L 240 340 L 260 340 L 280 340 L 300 340 L 320 340 L 320 320 L 300 320 L 280 320 L 260 320 L 240 320 L 220 320 L 200 320 L 180 320 L 160 320 L 140 320 L 120 320 L 100 320 z M 140 360 L 140 380 L 160 380 L 180 380 L 200 380 L 220 380 L 240 380 L 260 380 L 280 380 L 280 360 L 260 360 L 240 360 L 220 360 L 200 360 L 180 360 L 160 360 L 140 360 z M 220 460 L 220 480 L 240 480 L 240 460 L 220 460 z M 220 480 L 200 480 L 200 500 L 200 520 L 200 540 L 200 560 L 200 580 L 200 600 L 200 620 L 200 640 L 200 660 L 200 680 L 200 700 L 200 720 L 200 740 L 200 760 L 200 780 L 200 800 L 200 820 L 200 840 L 200 860 L 200 880 L 200 900 L 220 900 L 220 880 L 220 860 L 220 840 L 220 820 L 220 800 L 220 780 L 220 760 L 220 740 L 220 720 L 220 700 L 220 680 L 220 660 L 220 640 L 220 620 L 220 600 L 220 580 L 220 560 L 220 540 L 220 520 L 220 500 L 220 480 z "
     id="rect2392" />
  <path
     style="fill:#ffff00"
     d="M 100 140 L 100 160 L 80 160 L 80 180 L 60 180 L 60 200 L 40 200 L 40 220 L 40 240 L 40 260 L 40 280 L 40 300 L 40 320 L 40 340 L 40 360 L 60 360 L 60 380 L 80 380 L 80 400 L 100 400 L 100 420 L 120 420 L 120 440 L 140 440 L 140 460 L 160 460 L 160 480 L 180 480 L 180 500 L 180 520 L 160 520 L 160 540 L 140 540 L 140 560 L 140 580 L 160 580 L 160 600 L 180 600 L 180 620 L 180 640 L 180 660 L 180 680 L 160 680 L 160 700 L 140 700 L 140 720 L 160 720 L 160 740 L 180 740 L 180 760 L 180 780 L 200 780 L 200 760 L 200 740 L 200 720 L 200 700 L 200 680 L 200 660 L 200 640 L 200 620 L 200 600 L 200 580 L 200 560 L 200 540 L 200 520 L 200 500 L 200 480 L 220 480 L 220 460 L 240 460 L 260 460 L 260 440 L 280 440 L 300 440 L 300 420 L 320 420 L 320 400 L 340 400 L 340 380 L 360 380 L 360 360 L 380 360 L 380 340 L 380 320 L 380 300 L 380 280 L 380 260 L 380 240 L 380 220 L 360 220 L 360 200 L 340 200 L 340 180 L 320 180 L 320 160 L 300 160 L 300 140 L 280 140 L 280 160 L 280 180 L 280 200 L 280 220 L 280 240 L 300 240 L 320 240 L 320 260 L 300 260 L 280 260 L 280 280 L 300 280 L 320 280 L 320 300 L 300 300 L 280 300 L 260 300 L 240 300 L 220 300 L 200 300 L 180 300 L 160 300 L 140 300 L 120 300 L 100 300 L 100 280 L 120 280 L 140 280 L 140 260 L 120 260 L 100 260 L 100 240 L 120 240 L 140 240 L 140 220 L 140 200 L 140 180 L 160 180 L 160 160 L 180 160 L 200 160 L 220 160 L 240 160 L 260 160 L 260 140 L 240 140 L 220 140 L 200 140 L 180 140 L 160 140 L 140 140 L 120 140 L 100 140 z M 100 320 L 120 320 L 140 320 L 160 320 L 180 320 L 200 320 L 220 320 L 240 320 L 260 320 L 280 320 L 300 320 L 320 320 L 320 340 L 300 340 L 280 340 L 260 340 L 240 340 L 220 340 L 200 340 L 180 340 L 160 340 L 140 340 L 120 340 L 100 340 L 100 320 z M 140 360 L 160 360 L 180 360 L 200 360 L 220 360 L 240 360 L 260 360 L 280 360 L 280 380 L 260 380 L 240 380 L 220 380 L 200 380 L 180 380 L 160 380 L 140 380 L 140 360 z M 260 480 L 260 500 L 260 520 L 260 540 L 260 560 L 260 580 L 260 600 L 260 620 L 260 640 L 260 660 L 260 680 L 260 700 L 260 720 L 260 740 L 260 760 L 260 780 L 260 800 L 260 820 L 260 840 L 260 860 L 260 880 L 280 880 L 280 860 L 280 840 L 280 820 L 280 800 L 280 780 L 280 760 L 280 740 L 280 720 L 280 700 L 280 680 L 280 660 L 280 640 L 280 620 L 280 600 L 280 580 L 280 560 L 280 540 L 280 520 L 280 500 L 280 480 L 260 480 z M 180 800 L 180 820 L 160 820 L 160 840 L 160 860 L 160 880 L 180 880 L 180 900 L 200 900 L 200 880 L 200 860 L 200 840 L 200 820 L 200 800 L 180 800 z M 200 900 L 200 920 L 220 920 L 220 900 L 200 900 z "
     id="rect2406" />
  <path
     style="fill:#808000"
     d="M 100 100 L 100 120 L 120 120 L 140 120 L 160 120 L 180 120 L 200 120 L 220 120 L 240 120 L 260 120 L 260 100 L 240 100 L 220 100 L 200 100 L 180 100 L 160 100 L 140 100 L 120 100 L 100 100 z M 100 120 L 80 120 L 80 140 L 100 140 L 100 120 z M 80 140 L 60 140 L 60 160 L 80 160 L 80 140 z M 60 160 L 40 160 L 40 180 L 60 180 L 60 160 z M 40 180 L 20 180 L 20 200 L 40 200 L 40 180 z M 20 200 L 0 200 L 0 220 L 0 240 L 0 260 L 0 280 L 0 300 L 0 320 L 0 340 L 0 360 L 20 360 L 20 340 L 20 320 L 20 300 L 20 280 L 20 260 L 20 240 L 20 220 L 20 200 z M 20 360 L 20 380 L 40 380 L 40 360 L 20 360 z M 40 380 L 40 400 L 60 400 L 60 380 L 40 380 z M 60 400 L 60 420 L 80 420 L 80 400 L 60 400 z M 80 420 L 80 440 L 100 440 L 100 420 L 80 420 z M 100 440 L 100 460 L 120 460 L 120 440 L 100 440 z M 120 460 L 120 480 L 140 480 L 140 460 L 120 460 z M 140 480 L 140 500 L 140 520 L 160 520 L 160 500 L 160 480 L 140 480 z M 140 520 L 120 520 L 120 540 L 140 540 L 140 520 z M 120 540 L 100 540 L 100 560 L 100 580 L 120 580 L 120 560 L 120 540 z M 120 580 L 120 600 L 140 600 L 160 600 L 160 580 L 140 580 L 120 580 z M 160 600 L 160 620 L 180 620 L 180 600 L 160 600 z M 280 100 L 280 120 L 280 140 L 300 140 L 300 120 L 300 100 L 280 100 z M 300 140 L 300 160 L 320 160 L 320 140 L 300 140 z M 320 160 L 320 180 L 340 180 L 340 160 L 320 160 z M 340 180 L 340 200 L 360 200 L 360 180 L 340 180 z M 360 200 L 360 220 L 380 220 L 380 200 L 360 200 z M 380 240 L 380 260 L 380 280 L 380 300 L 380 320 L 380 340 L 380 360 L 400 360 L 400 340 L 400 320 L 400 300 L 400 280 L 400 260 L 400 240 L 380 240 z M 380 360 L 360 360 L 360 380 L 380 380 L 380 360 z M 360 380 L 340 380 L 340 400 L 360 400 L 360 380 z M 340 400 L 320 400 L 320 420 L 340 420 L 340 400 z M 320 420 L 300 420 L 300 440 L 320 440 L 320 420 z M 300 440 L 280 440 L 260 440 L 260 460 L 240 460 L 240 480 L 260 480 L 280 480 L 280 460 L 300 460 L 300 440 z M 240 480 L 220 480 L 220 500 L 220 520 L 220 540 L 220 560 L 220 580 L 220 600 L 220 620 L 220 640 L 220 660 L 220 680 L 220 700 L 220 720 L 220 740 L 220 760 L 220 780 L 220 800 L 220 820 L 220 840 L 220 860 L 220 880 L 220 900 L 220 920 L 200 920 L 200 940 L 220 940 L 240 940 L 240 920 L 240 900 L 240 880 L 240 860 L 240 840 L 240 820 L 240 800 L 240 780 L 240 760 L 240 740 L 240 720 L 240 700 L 240 680 L 240 660 L 240 640 L 240 620 L 240 600 L 240 580 L 240 560 L 240 540 L 240 520 L 240 500 L 240 480 z M 200 920 L 200 900 L 180 900 L 180 920 L 200 920 z M 180 900 L 180 880 L 160 880 L 160 900 L 180 900 z M 160 880 L 160 860 L 140 860 L 140 880 L 160 880 z M 140 860 L 140 840 L 140 820 L 120 820 L 120 840 L 120 860 L 140 860 z M 140 820 L 160 820 L 160 800 L 140 800 L 140 820 z M 140 640 L 140 660 L 120 660 L 120 680 L 140 680 L 160 680 L 160 660 L 160 640 L 140 640 z M 120 680 L 100 680 L 100 700 L 100 720 L 120 720 L 120 700 L 120 680 z M 120 720 L 120 740 L 120 760 L 140 760 L 140 780 L 160 780 L 180 780 L 180 760 L 160 760 L 160 740 L 140 740 L 140 720 L 120 720 z M 260 880 L 260 900 L 280 900 L 280 880 L 260 880 z "
     id="rect2418" />
  <path
     style="fill:#808080"
     d="M 320 0 L 320 20 L 340 20 L 360 20 L 380 20 L 400 20 L 420 20 L 440 20 L 460 20 L 480 20 L 500 20 L 520 20 L 540 20 L 560 20 L 580 20 L 600 20 L 600 40 L 620 40 L 620 20 L 620 0 L 600 0 L 580 0 L 560 0 L 540 0 L 520 0 L 500 0 L 480 0 L 460 0 L 440 0 L 420 0 L 400 0 L 380 0 L 360 0 L 340 0 L 320 0 z M 620 40 L 620 60 L 640 60 L 640 40 L 620 40 z M 640 60 L 640 80 L 660 80 L 660 60 L 640 60 z M 660 80 L 660 100 L 680 100 L 680 80 L 660 80 z M 680 100 L 680 120 L 700 120 L 700 100 L 680 100 z M 700 120 L 700 140 L 720 140 L 720 120 L 700 120 z M 720 140 L 720 160 L 740 160 L 740 140 L 720 140 z M 740 160 L 740 180 L 760 180 L 760 160 L 740 160 z M 760 180 L 760 200 L 780 200 L 780 180 L 760 180 z M 780 200 L 780 220 L 800 220 L 800 200 L 780 200 z M 800 220 L 800 240 L 820 240 L 820 220 L 800 220 z M 820 240 L 820 260 L 840 260 L 840 240 L 820 240 z M 840 260 L 840 280 L 860 280 L 860 260 L 840 260 z M 860 280 L 860 300 L 860 320 L 860 340 L 880 340 L 880 320 L 880 300 L 880 280 L 860 280 z M 860 340 L 840 340 L 840 360 L 860 360 L 860 340 z M 840 360 L 820 360 L 820 380 L 840 380 L 840 360 z M 820 380 L 800 380 L 800 400 L 820 400 L 820 380 z M 800 400 L 780 400 L 780 420 L 800 420 L 800 400 z M 780 420 L 760 420 L 760 440 L 780 440 L 780 420 z M 760 440 L 740 440 L 740 460 L 760 460 L 760 440 z M 740 460 L 720 460 L 720 480 L 740 480 L 740 460 z M 720 480 L 700 480 L 700 500 L 720 500 L 720 480 z M 700 500 L 680 500 L 680 520 L 700 520 L 700 500 z M 680 520 L 660 520 L 660 540 L 680 540 L 680 520 z M 660 540 L 640 540 L 640 560 L 660 560 L 660 540 z M 640 560 L 620 560 L 620 580 L 640 580 L 640 560 z M 620 580 L 600 580 L 600 600 L 620 600 L 620 580 z M 600 600 L 580 600 L 580 620 L 600 620 L 600 600 z M 580 620 L 560 620 L 560 640 L 580 640 L 580 620 z M 560 640 L 540 640 L 540 660 L 560 660 L 560 640 z M 540 660 L 520 660 L 520 680 L 540 680 L 540 660 z M 320 20 L 300 20 L 300 40 L 320 40 L 320 20 z M 300 40 L 280 40 L 280 60 L 300 60 L 300 40 z M 280 60 L 260 60 L 260 80 L 260 100 L 280 100 L 280 80 L 280 60 z M 100 40 L 100 60 L 120 60 L 140 60 L 160 60 L 180 60 L 200 60 L 220 60 L 220 40 L 200 40 L 180 40 L 160 40 L 140 40 L 120 40 L 100 40 z M 220 60 L 220 80 L 240 80 L 240 60 L 220 60 z M 100 60 L 80 60 L 80 80 L 100 80 L 100 60 z M 80 80 L 60 80 L 60 100 L 60 120 L 60 140 L 80 140 L 80 120 L 80 100 L 80 80 z M 440 60 L 440 80 L 460 80 L 480 80 L 500 80 L 520 80 L 540 80 L 560 80 L 560 60 L 540 60 L 520 60 L 500 60 L 480 60 L 460 60 L 440 60 z M 380 80 L 380 100 L 400 100 L 420 100 L 420 80 L 400 80 L 380 80 z M 380 100 L 360 100 L 360 120 L 380 120 L 380 100 z M 160 180 L 160 200 L 160 220 L 180 220 L 180 200 L 200 200 L 220 200 L 240 200 L 240 180 L 220 180 L 200 180 L 180 180 L 160 180 z M 240 200 L 240 220 L 260 220 L 260 200 L 240 200 z M 240 220 L 220 220 L 220 240 L 240 240 L 240 220 z M 380 220 L 380 240 L 400 240 L 400 220 L 380 220 z M 160 240 L 160 260 L 160 280 L 180 280 L 180 260 L 180 240 L 160 240 z M 240 260 L 240 280 L 260 280 L 260 260 L 240 260 z M 240 480 L 240 500 L 240 520 L 240 540 L 240 560 L 240 580 L 240 600 L 240 620 L 240 640 L 240 660 L 240 680 L 240 700 L 240 720 L 240 740 L 240 760 L 240 780 L 240 800 L 240 820 L 240 840 L 240 860 L 240 880 L 240 900 L 240 920 L 240 940 L 260 940 L 260 920 L 260 900 L 260 880 L 260 860 L 260 840 L 260 820 L 260 800 L 260 780 L 260 760 L 260 740 L 260 720 L 260 700 L 260 680 L 260 660 L 260 640 L 260 620 L 260 600 L 260 580 L 260 560 L 260 540 L 260 520 L 260 500 L 260 480 L 240 480 z M 300 520 L 300 540 L 320 540 L 320 520 L 300 520 z M 320 540 L 320 560 L 340 560 L 340 540 L 320 540 z M 340 560 L 340 580 L 360 580 L 360 560 L 340 560 z M 360 580 L 360 600 L 380 600 L 380 580 L 360 580 z M 380 600 L 380 620 L 400 620 L 400 600 L 380 600 z M 400 620 L 400 640 L 420 640 L 420 620 L 400 620 z M 420 640 L 420 660 L 440 660 L 440 640 L 420 640 z M 440 660 L 440 680 L 460 680 L 460 660 L 440 660 z M 460 680 L 460 700 L 480 700 L 480 680 L 460 680 z "
     id="rect2420" />
  <path
     style="fill:#000000"
     d="M 100 20 L 100 40 L 120 40 L 140 40 L 160 40 L 180 40 L 200 40 L 220 40 L 220 20 L 200 20 L 180 20 L 160 20 L 140 20 L 120 20 L 100 20 z M 220 40 L 220 60 L 240 60 L 240 40 L 220 40 z M 240 60 L 240 80 L 240 100 L 260 100 L 260 80 L 260 60 L 240 60 z M 260 100 L 260 120 L 260 140 L 260 160 L 240 160 L 220 160 L 200 160 L 180 160 L 160 160 L 160 180 L 180 180 L 200 180 L 220 180 L 240 180 L 240 200 L 260 200 L 260 220 L 260 240 L 260 260 L 260 280 L 280 280 L 280 260 L 280 240 L 280 220 L 280 200 L 280 180 L 280 160 L 280 140 L 280 120 L 280 100 L 260 100 z M 260 280 L 240 280 L 220 280 L 200 280 L 180 280 L 160 280 L 160 300 L 180 300 L 200 300 L 220 300 L 240 300 L 260 300 L 260 280 z M 160 280 L 160 260 L 160 240 L 180 240 L 200 240 L 220 240 L 220 220 L 200 220 L 180 220 L 160 220 L 160 200 L 160 180 L 140 180 L 140 200 L 140 220 L 140 240 L 140 260 L 140 280 L 160 280 z M 220 220 L 240 220 L 240 200 L 220 200 L 220 220 z M 100 40 L 80 40 L 80 60 L 100 60 L 100 40 z M 80 60 L 60 60 L 60 80 L 80 80 L 80 60 z M 60 80 L 40 80 L 40 100 L 40 120 L 40 140 L 40 160 L 60 160 L 60 140 L 60 120 L 60 100 L 60 80 z M 620 20 L 620 40 L 640 40 L 640 20 L 620 20 z M 640 40 L 640 60 L 660 60 L 660 40 L 640 40 z M 660 60 L 660 80 L 680 80 L 680 60 L 660 60 z M 680 80 L 680 100 L 700 100 L 700 80 L 680 80 z M 700 100 L 700 120 L 720 120 L 720 100 L 700 100 z M 720 120 L 720 140 L 740 140 L 740 120 L 720 120 z M 740 140 L 740 160 L 760 160 L 760 140 L 740 140 z M 760 160 L 760 180 L 780 180 L 780 160 L 760 160 z M 780 180 L 780 200 L 800 200 L 800 180 L 780 180 z M 800 200 L 800 220 L 820 220 L 820 200 L 800 200 z M 820 220 L 820 240 L 840 240 L 840 220 L 820 220 z M 840 240 L 840 260 L 860 260 L 860 240 L 840 240 z M 860 260 L 860 280 L 880 280 L 880 260 L 860 260 z M 880 280 L 880 300 L 880 320 L 880 340 L 900 340 L 900 320 L 900 300 L 900 280 L 880 280 z M 880 340 L 860 340 L 860 360 L 880 360 L 880 340 z M 860 360 L 840 360 L 840 380 L 860 380 L 860 360 z M 840 380 L 820 380 L 820 400 L 840 400 L 840 380 z M 820 400 L 800 400 L 800 420 L 820 420 L 820 400 z M 800 420 L 780 420 L 780 440 L 800 440 L 800 420 z M 780 440 L 760 440 L 760 460 L 780 460 L 780 440 z M 760 460 L 740 460 L 740 480 L 760 480 L 760 460 z M 740 480 L 720 480 L 720 500 L 740 500 L 740 480 z M 720 500 L 700 500 L 700 520 L 720 520 L 720 500 z M 700 520 L 680 520 L 680 540 L 700 540 L 700 520 z M 680 540 L 660 540 L 660 560 L 680 560 L 680 540 z M 660 560 L 640 560 L 640 580 L 660 580 L 660 560 z M 640 580 L 620 580 L 620 600 L 640 600 L 640 580 z M 620 600 L 600 600 L 600 620 L 620 620 L 620 600 z M 600 620 L 580 620 L 580 640 L 600 640 L 600 620 z M 580 640 L 560 640 L 560 660 L 580 660 L 580 640 z M 560 660 L 540 660 L 540 680 L 560 680 L 560 660 z M 540 680 L 520 680 L 500 680 L 480 680 L 480 700 L 500 700 L 520 700 L 540 700 L 540 680 z M 300 120 L 300 140 L 320 140 L 320 120 L 300 120 z M 320 140 L 320 160 L 340 160 L 340 140 L 320 140 z M 340 160 L 340 180 L 360 180 L 360 160 L 340 160 z M 360 180 L 360 200 L 380 200 L 380 180 L 360 180 z M 380 200 L 380 220 L 400 220 L 400 200 L 380 200 z M 400 220 L 400 240 L 400 260 L 400 280 L 400 300 L 400 320 L 400 340 L 400 360 L 420 360 L 420 340 L 420 320 L 420 300 L 420 280 L 420 260 L 420 240 L 420 220 L 400 220 z M 400 360 L 380 360 L 380 380 L 400 380 L 400 360 z M 380 380 L 360 380 L 360 400 L 380 400 L 380 380 z M 360 400 L 340 400 L 340 420 L 360 420 L 360 400 z M 340 420 L 320 420 L 320 440 L 340 440 L 340 420 z M 720 240 L 720 260 L 720 280 L 720 300 L 720 320 L 720 340 L 720 360 L 740 360 L 740 340 L 740 320 L 740 300 L 740 280 L 740 260 L 740 240 L 720 240 z M 720 360 L 700 360 L 700 380 L 700 400 L 700 420 L 720 420 L 720 400 L 720 380 L 720 360 z M 700 420 L 680 420 L 680 440 L 700 440 L 700 420 z M 680 440 L 660 440 L 640 440 L 640 460 L 640 480 L 660 480 L 660 460 L 680 460 L 680 440 z M 640 480 L 620 480 L 620 500 L 640 500 L 640 480 z M 620 500 L 600 500 L 580 500 L 580 520 L 600 520 L 620 520 L 620 500 z M 580 520 L 560 520 L 540 520 L 520 520 L 500 520 L 480 520 L 460 520 L 440 520 L 420 520 L 420 540 L 440 540 L 460 540 L 480 540 L 500 540 L 520 540 L 540 540 L 560 540 L 580 540 L 580 520 z M 420 520 L 420 500 L 400 500 L 400 480 L 380 480 L 360 480 L 360 500 L 380 500 L 380 520 L 400 520 L 420 520 z M 400 480 L 420 480 L 420 460 L 400 460 L 400 480 z M 420 460 L 440 460 L 460 460 L 460 440 L 460 420 L 460 400 L 440 400 L 440 420 L 440 440 L 420 440 L 420 460 z M 560 380 L 560 400 L 580 400 L 600 400 L 600 380 L 580 380 L 560 380 z M 280 460 L 280 480 L 280 500 L 280 520 L 280 540 L 280 560 L 280 580 L 280 600 L 280 620 L 280 640 L 280 660 L 280 680 L 280 700 L 280 720 L 280 740 L 280 760 L 280 780 L 280 800 L 280 820 L 280 840 L 280 860 L 280 880 L 280 900 L 300 900 L 300 880 L 300 860 L 300 840 L 300 820 L 300 800 L 300 780 L 300 760 L 300 740 L 300 720 L 300 700 L 300 680 L 300 660 L 300 640 L 300 620 L 300 600 L 300 580 L 300 560 L 300 540 L 300 520 L 300 500 L 300 480 L 300 460 L 280 460 z M 280 900 L 260 900 L 260 920 L 260 940 L 280 940 L 280 920 L 280 900 z M 260 940 L 240 940 L 220 940 L 200 940 L 200 960 L 220 960 L 240 960 L 260 960 L 260 940 z M 200 940 L 200 920 L 180 920 L 180 940 L 200 940 z M 180 920 L 180 900 L 160 900 L 160 920 L 180 920 z M 160 900 L 160 880 L 140 880 L 140 900 L 160 900 z M 140 880 L 140 860 L 120 860 L 120 880 L 140 880 z M 140 600 L 140 620 L 160 620 L 160 600 L 140 600 z M 160 620 L 160 640 L 160 660 L 180 660 L 180 640 L 180 620 L 160 620 z M 160 780 L 160 800 L 160 820 L 180 820 L 180 800 L 180 780 L 160 780 z "
     id="rect2428" />
</svg>
