<?xml version="1.0" encoding="UTF-8" standalone="no"?>
<svg
   xmlns:dc="http://purl.org/dc/elements/1.1/"
   xmlns:cc="http://creativecommons.org/ns#"
   xmlns:rdf="http://www.w3.org/1999/02/22-rdf-syntax-ns#"
   xmlns:svg="http://www.w3.org/2000/svg"
   xmlns="http://www.w3.org/2000/svg"
   id="svg3550"
   width="960px"
   version="1.1"
   height="960px">
  <metadata
     id="metadata3554">
    <rdf:RDF>
      <cc:Work
         rdf:about="">
        <dc:format>image/svg+xml</dc:format>
        <dc:type
           rdf:resource="http://purl.org/dc/dcmitype/StillImage" />
      </cc:Work>
    </rdf:RDF>
  </metadata>
  <defs
     id="defs2" />
  <path
     style="fill:#ffffff"
     d="M 200 20 L 200 40 L 200 60 L 200 80 L 200 100 L 200 120 L 200 140 L 200 160 L 200 180 L 220 180 L 240 180 L 260 180 L 280 180 L 300 180 L 320 180 L 340 180 L 360 180 L 360 200 L 380 200 L 400 200 L 400 220 L 420 220 L 420 240 L 440 240 L 460 240 L 480 240 L 500 240 L 520 240 L 540 240 L 560 240 L 580 240 L 580 260 L 560 260 L 540 260 L 520 260 L 500 260 L 480 260 L 460 260 L 460 280 L 480 280 L 480 300 L 500 300 L 500 320 L 500 340 L 520 340 L 520 360 L 540 360 L 560 360 L 580 360 L 600 360 L 620 360 L 640 360 L 660 360 L 680 360 L 700 360 L 720 360 L 740 360 L 740 380 L 720 380 L 700 380 L 680 380 L 660 380 L 640 380 L 620 380 L 600 380 L 580 380 L 560 380 L 540 380 L 520 380 L 520 400 L 520 420 L 540 420 L 560 420 L 580 420 L 600 420 L 620 420 L 640 420 L 660 420 L 680 420 L 700 420 L 720 420 L 740 420 L 740 440 L 720 440 L 700 440 L 680 440 L 660 440 L 640 440 L 620 440 L 600 440 L 580 440 L 560 440 L 540 440 L 520 440 L 520 460 L 520 480 L 540 480 L 560 480 L 580 480 L 600 480 L 620 480 L 640 480 L 660 480 L 680 480 L 700 480 L 720 480 L 740 480 L 740 500 L 720 500 L 700 500 L 680 500 L 660 500 L 640 500 L 620 500 L 600 500 L 580 500 L 560 500 L 540 500 L 520 500 L 500 500 L 500 520 L 500 540 L 520 540 L 540 540 L 560 540 L 580 540 L 600 540 L 620 540 L 640 540 L 660 540 L 680 540 L 700 540 L 720 540 L 740 540 L 740 560 L 720 560 L 700 560 L 680 560 L 660 560 L 640 560 L 620 560 L 600 560 L 580 560 L 560 560 L 540 560 L 520 560 L 520 580 L 540 580 L 540 600 L 560 600 L 580 600 L 600 600 L 620 600 L 640 600 L 660 600 L 680 600 L 700 600 L 720 600 L 740 600 L 740 620 L 720 620 L 700 620 L 680 620 L 660 620 L 640 620 L 620 620 L 600 620 L 580 620 L 580 640 L 600 640 L 600 660 L 620 660 L 640 660 L 660 660 L 680 660 L 700 660 L 720 660 L 740 660 L 740 680 L 720 680 L 700 680 L 680 680 L 660 680 L 640 680 L 640 700 L 660 700 L 660 720 L 680 720 L 700 720 L 720 720 L 740 720 L 740 740 L 720 740 L 700 740 L 700 760 L 720 760 L 720 780 L 740 780 L 740 800 L 760 800 L 760 820 L 780 820 L 780 840 L 800 840 L 800 860 L 820 860 L 840 860 L 860 860 L 880 860 L 880 840 L 880 820 L 880 800 L 880 780 L 880 760 L 880 740 L 880 720 L 880 700 L 880 680 L 880 660 L 880 640 L 880 620 L 880 600 L 880 580 L 880 560 L 880 540 L 880 520 L 880 500 L 880 480 L 880 460 L 880 440 L 880 420 L 880 400 L 880 380 L 880 360 L 880 340 L 880 320 L 880 300 L 880 280 L 880 260 L 880 240 L 860 240 L 840 240 L 820 240 L 800 240 L 780 240 L 760 240 L 740 240 L 720 240 L 700 240 L 700 220 L 700 200 L 700 180 L 700 160 L 700 140 L 700 120 L 700 100 L 700 80 L 700 60 L 700 40 L 700 20 L 680 20 L 660 20 L 640 20 L 620 20 L 600 20 L 580 20 L 560 20 L 540 20 L 520 20 L 500 20 L 480 20 L 460 20 L 440 20 L 420 20 L 400 20 L 380 20 L 360 20 L 340 20 L 320 20 L 300 20 L 280 20 L 260 20 L 240 20 L 220 20 L 200 20 z M 720 100 L 720 120 L 720 140 L 720 160 L 720 180 L 720 200 L 720 220 L 740 220 L 760 220 L 780 220 L 800 220 L 820 220 L 840 220 L 840 200 L 820 200 L 820 180 L 800 180 L 800 160 L 780 160 L 780 140 L 760 140 L 760 120 L 740 120 L 740 100 L 720 100 z M 200 200 L 200 220 L 220 220 L 220 200 L 200 200 z M 220 220 L 220 240 L 240 240 L 240 220 L 220 220 z M 240 220 L 260 220 L 260 200 L 240 200 L 240 220 z M 260 220 L 260 240 L 280 240 L 280 220 L 260 220 z M 280 220 L 300 220 L 300 200 L 280 200 L 280 220 z M 300 220 L 300 240 L 320 240 L 320 220 L 300 220 z M 320 240 L 320 260 L 340 260 L 340 240 L 320 240 z M 340 260 L 340 280 L 360 280 L 360 260 L 340 260 z M 360 260 L 380 260 L 380 240 L 360 240 L 360 260 z M 300 240 L 280 240 L 280 260 L 300 260 L 300 240 z M 280 260 L 260 260 L 260 280 L 280 280 L 280 260 z M 260 280 L 240 280 L 240 300 L 260 300 L 260 280 z M 240 300 L 220 300 L 220 320 L 240 320 L 240 300 z M 220 320 L 200 320 L 200 340 L 220 340 L 220 320 z M 200 340 L 180 340 L 180 360 L 200 360 L 200 340 z M 200 320 L 200 300 L 180 300 L 180 320 L 200 320 z M 200 300 L 220 300 L 220 280 L 200 280 L 200 300 z M 200 280 L 200 260 L 180 260 L 180 280 L 200 280 z M 200 260 L 220 260 L 220 240 L 200 240 L 200 260 z M 200 240 L 200 220 L 180 220 L 180 240 L 200 240 z M 220 260 L 220 280 L 240 280 L 240 260 L 220 260 z M 240 260 L 260 260 L 260 240 L 240 240 L 240 260 z M 140 220 L 140 240 L 160 240 L 160 220 L 140 220 z M 140 240 L 120 240 L 120 260 L 100 260 L 100 280 L 120 280 L 120 300 L 100 300 L 100 320 L 120 320 L 120 340 L 100 340 L 100 360 L 120 360 L 120 380 L 100 380 L 100 400 L 120 400 L 120 420 L 140 420 L 140 440 L 160 440 L 160 420 L 160 400 L 160 380 L 160 360 L 160 340 L 160 320 L 160 300 L 160 280 L 160 260 L 140 260 L 140 240 z M 140 440 L 120 440 L 120 460 L 140 460 L 140 440 z M 140 460 L 140 480 L 160 480 L 160 460 L 140 460 z M 140 480 L 120 480 L 120 500 L 140 500 L 140 480 z M 140 500 L 140 520 L 160 520 L 160 500 L 140 500 z M 140 520 L 120 520 L 120 540 L 140 540 L 140 520 z M 140 540 L 140 560 L 160 560 L 160 540 L 140 540 z M 120 540 L 100 540 L 100 560 L 120 560 L 120 540 z M 100 540 L 100 520 L 80 520 L 80 540 L 100 540 z M 80 520 L 80 500 L 60 500 L 60 520 L 80 520 z M 60 500 L 60 480 L 40 480 L 40 500 L 60 500 z M 40 480 L 40 460 L 20 460 L 20 480 L 40 480 z M 40 460 L 60 460 L 60 440 L 40 440 L 40 460 z M 40 440 L 40 420 L 20 420 L 20 440 L 40 440 z M 40 420 L 60 420 L 60 400 L 40 400 L 40 420 z M 40 400 L 40 380 L 20 380 L 20 400 L 40 400 z M 40 380 L 60 380 L 60 360 L 40 360 L 40 380 z M 40 360 L 40 340 L 20 340 L 20 360 L 40 360 z M 40 340 L 60 340 L 60 320 L 40 320 L 40 340 z M 60 320 L 80 320 L 80 300 L 60 300 L 60 320 z M 80 300 L 100 300 L 100 280 L 80 280 L 80 300 z M 80 280 L 80 260 L 60 260 L 60 280 L 80 280 z M 80 260 L 100 260 L 100 240 L 80 240 L 80 260 z M 80 320 L 80 340 L 100 340 L 100 320 L 80 320 z M 80 340 L 60 340 L 60 360 L 80 360 L 80 340 z M 80 360 L 80 380 L 100 380 L 100 360 L 80 360 z M 80 380 L 60 380 L 60 400 L 80 400 L 80 380 z M 80 400 L 80 420 L 100 420 L 100 400 L 80 400 z M 100 420 L 100 440 L 120 440 L 120 420 L 100 420 z M 100 440 L 80 440 L 80 460 L 100 460 L 100 440 z M 100 460 L 100 480 L 120 480 L 120 460 L 100 460 z M 100 480 L 80 480 L 80 500 L 100 500 L 100 480 z M 100 500 L 100 520 L 120 520 L 120 500 L 100 500 z M 80 480 L 80 460 L 60 460 L 60 480 L 80 480 z M 80 440 L 80 420 L 60 420 L 60 440 L 80 440 z M 380 580 L 380 600 L 380 620 L 400 620 L 400 640 L 420 640 L 420 660 L 440 660 L 440 640 L 440 620 L 420 620 L 420 600 L 400 600 L 400 580 L 380 580 z M 380 620 L 360 620 L 360 600 L 340 600 L 340 620 L 320 620 L 300 620 L 280 620 L 260 620 L 240 620 L 220 620 L 200 620 L 200 640 L 200 660 L 200 680 L 200 700 L 200 720 L 200 740 L 200 760 L 200 780 L 200 800 L 200 820 L 200 840 L 200 860 L 220 860 L 240 860 L 260 860 L 280 860 L 300 860 L 320 860 L 340 860 L 360 860 L 380 860 L 400 860 L 420 860 L 440 860 L 460 860 L 480 860 L 500 860 L 520 860 L 540 860 L 560 860 L 560 840 L 540 840 L 540 820 L 520 820 L 520 800 L 500 800 L 500 780 L 480 780 L 480 760 L 460 760 L 460 740 L 440 740 L 420 740 L 400 740 L 380 740 L 360 740 L 340 740 L 320 740 L 320 720 L 340 720 L 360 720 L 380 720 L 400 720 L 420 720 L 440 720 L 440 700 L 420 700 L 420 680 L 400 680 L 380 680 L 360 680 L 340 680 L 320 680 L 320 660 L 340 660 L 360 660 L 380 660 L 380 640 L 380 620 z "
     id="rect3362" />
  <path
     style="fill:#808080"
     d="M 180 0 L 180 20 L 180 40 L 180 60 L 180 80 L 180 100 L 180 120 L 180 140 L 180 160 L 180 180 L 160 180 L 160 200 L 140 200 L 120 200 L 120 220 L 140 220 L 160 220 L 180 220 L 180 200 L 200 200 L 220 200 L 240 200 L 260 200 L 280 200 L 300 200 L 320 200 L 340 200 L 340 180 L 320 180 L 300 180 L 280 180 L 260 180 L 240 180 L 220 180 L 200 180 L 200 160 L 200 140 L 200 120 L 200 100 L 200 80 L 200 60 L 200 40 L 200 20 L 220 20 L 240 20 L 260 20 L 280 20 L 300 20 L 320 20 L 340 20 L 360 20 L 380 20 L 400 20 L 420 20 L 440 20 L 460 20 L 480 20 L 500 20 L 520 20 L 540 20 L 560 20 L 580 20 L 600 20 L 620 20 L 640 20 L 660 20 L 680 20 L 700 20 L 700 40 L 700 60 L 700 80 L 700 100 L 700 120 L 700 140 L 700 160 L 700 180 L 700 200 L 700 220 L 700 240 L 720 240 L 720 220 L 720 200 L 720 180 L 720 160 L 720 140 L 720 120 L 720 100 L 720 80 L 740 80 L 740 60 L 720 60 L 720 40 L 720 20 L 720 0 L 700 0 L 680 0 L 660 0 L 640 0 L 620 0 L 600 0 L 580 0 L 560 0 L 540 0 L 520 0 L 500 0 L 480 0 L 460 0 L 440 0 L 420 0 L 400 0 L 380 0 L 360 0 L 340 0 L 320 0 L 300 0 L 280 0 L 260 0 L 240 0 L 220 0 L 200 0 L 180 0 z M 740 80 L 740 100 L 760 100 L 760 80 L 740 80 z M 760 100 L 760 120 L 780 120 L 780 100 L 760 100 z M 780 120 L 780 140 L 800 140 L 800 120 L 780 120 z M 800 140 L 800 160 L 820 160 L 820 140 L 800 140 z M 820 160 L 820 180 L 840 180 L 840 160 L 820 160 z M 840 180 L 840 200 L 860 200 L 860 180 L 840 180 z M 860 200 L 860 220 L 880 220 L 880 200 L 860 200 z M 120 220 L 100 220 L 80 220 L 80 240 L 100 240 L 120 240 L 120 220 z M 80 240 L 60 240 L 60 260 L 80 260 L 80 240 z M 60 260 L 40 260 L 40 280 L 40 300 L 60 300 L 60 280 L 60 260 z M 40 300 L 20 300 L 20 320 L 20 340 L 40 340 L 40 320 L 40 300 z M 20 340 L 0 340 L 0 360 L 0 380 L 0 400 L 0 420 L 0 440 L 0 460 L 20 460 L 20 440 L 20 420 L 20 400 L 20 380 L 20 360 L 20 340 z M 360 200 L 360 220 L 380 220 L 380 200 L 360 200 z M 400 220 L 400 240 L 420 240 L 420 220 L 400 220 z M 420 240 L 420 260 L 440 260 L 440 240 L 420 240 z M 440 260 L 440 280 L 440 300 L 460 300 L 460 320 L 460 340 L 480 340 L 480 320 L 480 300 L 480 280 L 460 280 L 460 260 L 440 260 z M 480 340 L 480 360 L 480 380 L 480 400 L 480 420 L 480 440 L 480 460 L 460 460 L 460 480 L 460 500 L 460 520 L 460 540 L 480 540 L 480 520 L 480 500 L 480 480 L 500 480 L 500 460 L 500 440 L 520 440 L 520 420 L 500 420 L 500 400 L 500 380 L 520 380 L 520 360 L 500 360 L 500 340 L 480 340 z M 480 540 L 480 560 L 500 560 L 500 540 L 480 540 z M 500 560 L 500 580 L 520 580 L 520 560 L 500 560 z M 520 580 L 520 600 L 540 600 L 540 580 L 520 580 z M 540 600 L 540 620 L 560 620 L 560 600 L 540 600 z M 560 620 L 560 640 L 580 640 L 580 620 L 560 620 z M 580 640 L 580 660 L 600 660 L 600 640 L 580 640 z M 600 660 L 600 680 L 620 680 L 620 660 L 600 660 z M 620 680 L 620 700 L 640 700 L 640 680 L 620 680 z M 640 700 L 640 720 L 660 720 L 660 700 L 640 700 z M 660 720 L 660 740 L 680 740 L 680 720 L 660 720 z M 680 740 L 680 760 L 700 760 L 700 740 L 680 740 z M 700 760 L 700 780 L 720 780 L 720 760 L 700 760 z M 720 780 L 720 800 L 740 800 L 740 780 L 720 780 z M 740 800 L 740 820 L 760 820 L 760 800 L 740 800 z M 760 820 L 760 840 L 780 840 L 780 820 L 760 820 z M 780 840 L 780 860 L 800 860 L 800 840 L 780 840 z M 280 400 L 280 420 L 300 420 L 320 420 L 340 420 L 360 420 L 380 420 L 400 420 L 420 420 L 420 400 L 400 400 L 380 400 L 360 400 L 340 400 L 320 400 L 300 400 L 280 400 z M 280 460 L 280 480 L 300 480 L 320 480 L 340 480 L 360 480 L 380 480 L 400 480 L 400 460 L 380 460 L 360 460 L 340 460 L 320 460 L 300 460 L 280 460 z M 20 480 L 20 500 L 40 500 L 40 480 L 20 480 z M 40 500 L 40 520 L 40 540 L 60 540 L 60 520 L 60 500 L 40 500 z M 60 540 L 60 560 L 80 560 L 80 540 L 60 540 z M 80 560 L 80 580 L 100 580 L 120 580 L 120 560 L 100 560 L 80 560 z M 280 520 L 280 540 L 300 540 L 320 540 L 340 540 L 360 540 L 360 520 L 340 520 L 320 520 L 300 520 L 280 520 z M 420 540 L 420 560 L 420 580 L 440 580 L 440 600 L 460 600 L 460 620 L 480 620 L 480 600 L 480 580 L 460 580 L 460 560 L 440 560 L 440 540 L 420 540 z M 180 620 L 180 640 L 180 660 L 180 680 L 180 700 L 180 720 L 180 740 L 180 760 L 180 780 L 180 800 L 180 820 L 180 840 L 180 860 L 180 880 L 200 880 L 200 860 L 200 840 L 200 820 L 200 800 L 200 780 L 200 760 L 200 740 L 200 720 L 200 700 L 200 680 L 200 660 L 200 640 L 200 620 L 180 620 z M 380 640 L 380 660 L 400 660 L 400 640 L 380 640 z M 400 660 L 400 680 L 420 680 L 420 660 L 400 660 z "
     id="rect3368" />
  <path
     style="fill:#c0c0c0"
     d="M 720 80 L 720 100 L 740 100 L 740 80 L 720 80 z M 740 100 L 740 120 L 760 120 L 760 100 L 740 100 z M 760 120 L 760 140 L 780 140 L 780 120 L 760 120 z M 780 140 L 780 160 L 800 160 L 800 140 L 780 140 z M 800 160 L 800 180 L 820 180 L 820 160 L 800 160 z M 820 180 L 820 200 L 840 200 L 840 180 L 820 180 z M 840 200 L 840 220 L 860 220 L 860 200 L 840 200 z M 340 180 L 340 200 L 360 200 L 360 180 L 340 180 z M 380 200 L 380 220 L 400 220 L 400 200 L 380 200 z M 160 220 L 160 240 L 160 260 L 160 280 L 160 300 L 160 320 L 160 340 L 160 360 L 160 380 L 160 400 L 160 420 L 160 440 L 160 460 L 160 480 L 160 500 L 160 520 L 160 540 L 160 560 L 180 560 L 200 560 L 200 540 L 180 540 L 180 520 L 200 520 L 200 500 L 180 500 L 180 480 L 200 480 L 200 460 L 180 460 L 180 440 L 200 440 L 200 420 L 180 420 L 180 400 L 200 400 L 200 380 L 180 380 L 180 360 L 180 340 L 180 320 L 180 300 L 180 280 L 180 260 L 180 240 L 180 220 L 160 220 z M 200 380 L 220 380 L 220 360 L 200 360 L 200 380 z M 220 360 L 240 360 L 240 340 L 220 340 L 220 360 z M 240 340 L 260 340 L 260 320 L 240 320 L 240 340 z M 260 320 L 280 320 L 280 300 L 260 300 L 260 320 z M 280 300 L 300 300 L 300 280 L 280 280 L 280 300 z M 300 280 L 320 280 L 320 260 L 300 260 L 300 280 z M 320 280 L 320 300 L 340 300 L 340 280 L 320 280 z M 340 300 L 340 320 L 360 320 L 360 300 L 340 300 z M 360 300 L 380 300 L 380 280 L 360 280 L 360 300 z M 380 280 L 400 280 L 400 260 L 380 260 L 380 280 z M 400 280 L 400 300 L 420 300 L 420 280 L 400 280 z M 400 300 L 380 300 L 380 320 L 400 320 L 400 300 z M 400 320 L 400 340 L 420 340 L 420 320 L 400 320 z M 400 340 L 380 340 L 380 360 L 400 360 L 400 340 z M 400 360 L 400 380 L 420 380 L 420 360 L 400 360 z M 400 380 L 380 380 L 380 400 L 400 400 L 400 380 z M 380 380 L 380 360 L 360 360 L 360 380 L 380 380 z M 360 380 L 340 380 L 340 400 L 360 400 L 360 380 z M 340 380 L 340 360 L 320 360 L 320 380 L 340 380 z M 320 380 L 300 380 L 300 400 L 320 400 L 320 380 z M 300 380 L 300 360 L 280 360 L 280 380 L 300 380 z M 280 380 L 260 380 L 260 400 L 280 400 L 280 380 z M 260 400 L 240 400 L 240 420 L 260 420 L 260 400 z M 260 420 L 260 440 L 280 440 L 280 420 L 260 420 z M 280 440 L 280 460 L 300 460 L 300 440 L 280 440 z M 300 440 L 320 440 L 320 420 L 300 420 L 300 440 z M 320 440 L 320 460 L 340 460 L 340 440 L 320 440 z M 340 440 L 360 440 L 360 420 L 340 420 L 340 440 z M 360 440 L 360 460 L 380 460 L 380 440 L 360 440 z M 380 440 L 400 440 L 400 420 L 380 420 L 380 440 z M 400 440 L 400 460 L 420 460 L 420 440 L 400 440 z M 280 460 L 260 460 L 260 480 L 280 480 L 280 460 z M 280 480 L 280 500 L 300 500 L 300 480 L 280 480 z M 300 500 L 300 520 L 320 520 L 320 500 L 300 500 z M 320 500 L 340 500 L 340 480 L 320 480 L 320 500 z M 340 500 L 340 520 L 360 520 L 360 500 L 340 500 z M 360 500 L 380 500 L 380 480 L 360 480 L 360 500 z M 280 500 L 260 500 L 260 520 L 280 520 L 280 500 z M 260 520 L 240 520 L 240 540 L 260 540 L 260 520 z M 260 540 L 260 560 L 280 560 L 280 540 L 260 540 z M 280 560 L 280 580 L 300 580 L 300 560 L 280 560 z M 300 560 L 320 560 L 320 540 L 300 540 L 300 560 z M 260 560 L 240 560 L 240 580 L 260 580 L 260 560 z M 240 560 L 240 540 L 220 540 L 220 560 L 240 560 z M 220 560 L 200 560 L 200 580 L 220 580 L 220 560 z M 220 540 L 220 520 L 200 520 L 200 540 L 220 540 z M 220 520 L 240 520 L 240 500 L 220 500 L 220 520 z M 220 500 L 220 480 L 200 480 L 200 500 L 220 500 z M 220 480 L 240 480 L 240 460 L 220 460 L 220 480 z M 220 460 L 220 440 L 200 440 L 200 460 L 220 460 z M 220 440 L 240 440 L 240 420 L 220 420 L 220 440 z M 220 420 L 220 400 L 200 400 L 200 420 L 220 420 z M 220 400 L 240 400 L 240 380 L 220 380 L 220 400 z M 240 380 L 260 380 L 260 360 L 240 360 L 240 380 z M 260 360 L 280 360 L 280 340 L 260 340 L 260 360 z M 280 340 L 300 340 L 300 320 L 280 320 L 280 340 z M 300 320 L 320 320 L 320 300 L 300 300 L 300 320 z M 320 320 L 320 340 L 340 340 L 340 320 L 320 320 z M 340 340 L 340 360 L 360 360 L 360 340 L 340 340 z M 360 340 L 380 340 L 380 320 L 360 320 L 360 340 z M 320 340 L 300 340 L 300 360 L 320 360 L 320 340 z M 240 440 L 240 460 L 260 460 L 260 440 L 240 440 z M 240 480 L 240 500 L 260 500 L 260 480 L 240 480 z M 440 240 L 440 260 L 460 260 L 480 260 L 500 260 L 520 260 L 540 260 L 560 260 L 580 260 L 580 240 L 560 240 L 540 240 L 520 240 L 500 240 L 480 240 L 460 240 L 440 240 z M 880 240 L 880 260 L 880 280 L 880 300 L 880 320 L 880 340 L 880 360 L 880 380 L 880 400 L 880 420 L 880 440 L 880 460 L 880 480 L 880 500 L 880 520 L 880 540 L 880 560 L 880 580 L 880 600 L 880 620 L 880 640 L 880 660 L 880 680 L 880 700 L 880 720 L 880 740 L 880 760 L 880 780 L 880 800 L 880 820 L 880 840 L 880 860 L 860 860 L 840 860 L 820 860 L 800 860 L 780 860 L 780 880 L 800 880 L 820 880 L 840 880 L 860 880 L 880 880 L 900 880 L 900 860 L 900 840 L 900 820 L 900 800 L 900 780 L 900 760 L 900 740 L 900 720 L 900 700 L 900 680 L 900 660 L 900 640 L 900 620 L 900 600 L 900 580 L 900 560 L 900 540 L 900 520 L 900 500 L 900 480 L 900 460 L 900 440 L 900 420 L 900 400 L 900 380 L 900 360 L 900 340 L 900 320 L 900 300 L 900 280 L 900 260 L 900 240 L 880 240 z M 480 300 L 480 320 L 480 340 L 500 340 L 500 320 L 500 300 L 480 300 z M 500 340 L 500 360 L 520 360 L 520 340 L 500 340 z M 520 360 L 520 380 L 540 380 L 560 380 L 580 380 L 600 380 L 620 380 L 640 380 L 660 380 L 680 380 L 700 380 L 720 380 L 740 380 L 740 360 L 720 360 L 700 360 L 680 360 L 660 360 L 640 360 L 620 360 L 600 360 L 580 360 L 560 360 L 540 360 L 520 360 z M 520 380 L 500 380 L 500 400 L 500 420 L 520 420 L 520 400 L 520 380 z M 520 420 L 520 440 L 540 440 L 560 440 L 580 440 L 600 440 L 620 440 L 640 440 L 660 440 L 680 440 L 700 440 L 720 440 L 740 440 L 740 420 L 720 420 L 700 420 L 680 420 L 660 420 L 640 420 L 620 420 L 600 420 L 580 420 L 560 420 L 540 420 L 520 420 z M 520 440 L 500 440 L 500 460 L 500 480 L 480 480 L 480 500 L 480 520 L 480 540 L 500 540 L 500 520 L 500 500 L 520 500 L 540 500 L 560 500 L 580 500 L 600 500 L 620 500 L 640 500 L 660 500 L 680 500 L 700 500 L 720 500 L 740 500 L 740 480 L 720 480 L 700 480 L 680 480 L 660 480 L 640 480 L 620 480 L 600 480 L 580 480 L 560 480 L 540 480 L 520 480 L 520 460 L 520 440 z M 500 540 L 500 560 L 520 560 L 540 560 L 560 560 L 580 560 L 600 560 L 620 560 L 640 560 L 660 560 L 680 560 L 700 560 L 720 560 L 740 560 L 740 540 L 720 540 L 700 540 L 680 540 L 660 540 L 640 540 L 620 540 L 600 540 L 580 540 L 560 540 L 540 540 L 520 540 L 500 540 z M 400 560 L 400 580 L 400 600 L 420 600 L 420 620 L 440 620 L 440 640 L 460 640 L 460 620 L 460 600 L 440 600 L 440 580 L 420 580 L 420 560 L 400 560 z M 360 600 L 360 620 L 380 620 L 380 600 L 360 600 z M 380 620 L 380 640 L 400 640 L 400 620 L 380 620 z M 400 640 L 400 660 L 420 660 L 420 640 L 400 640 z M 400 660 L 380 660 L 360 660 L 340 660 L 320 660 L 320 680 L 340 680 L 360 680 L 380 680 L 400 680 L 400 660 z M 560 600 L 560 620 L 580 620 L 600 620 L 620 620 L 640 620 L 660 620 L 680 620 L 700 620 L 720 620 L 740 620 L 740 600 L 720 600 L 700 600 L 680 600 L 660 600 L 640 600 L 620 600 L 600 600 L 580 600 L 560 600 z M 620 660 L 620 680 L 640 680 L 660 680 L 680 680 L 700 680 L 720 680 L 740 680 L 740 660 L 720 660 L 700 660 L 680 660 L 660 660 L 640 660 L 620 660 z M 320 720 L 320 740 L 340 740 L 360 740 L 380 740 L 400 740 L 420 740 L 440 740 L 440 720 L 420 720 L 400 720 L 380 720 L 360 720 L 340 720 L 320 720 z M 680 720 L 680 740 L 700 740 L 720 740 L 740 740 L 740 720 L 720 720 L 700 720 L 680 720 z M 200 860 L 200 880 L 220 880 L 240 880 L 260 880 L 280 880 L 300 880 L 320 880 L 340 880 L 360 880 L 380 880 L 400 880 L 420 880 L 440 880 L 460 880 L 480 880 L 500 880 L 520 880 L 540 880 L 560 880 L 580 880 L 580 860 L 560 860 L 540 860 L 520 860 L 500 860 L 480 860 L 460 860 L 440 860 L 420 860 L 400 860 L 380 860 L 360 860 L 340 860 L 320 860 L 300 860 L 280 860 L 260 860 L 240 860 L 220 860 L 200 860 z "
     id="rect3438" />
  <path
     style="fill:#008080"
     d="M 420 320 L 420 340 L 420 360 L 420 380 L 420 400 L 420 420 L 420 440 L 420 460 L 400 460 L 400 480 L 400 500 L 380 500 L 380 520 L 360 520 L 360 540 L 340 540 L 340 560 L 320 560 L 320 580 L 340 580 L 360 580 L 360 560 L 380 560 L 400 560 L 400 540 L 400 520 L 420 520 L 420 500 L 420 480 L 440 480 L 440 460 L 440 440 L 440 420 L 440 400 L 440 380 L 440 360 L 440 340 L 440 320 L 420 320 z M 320 580 L 300 580 L 280 580 L 260 580 L 240 580 L 220 580 L 200 580 L 180 580 L 180 560 L 160 560 L 140 560 L 120 560 L 120 580 L 140 580 L 160 580 L 160 600 L 180 600 L 200 600 L 220 600 L 240 600 L 260 600 L 280 600 L 300 600 L 320 600 L 320 580 z M 440 660 L 440 680 L 460 680 L 460 660 L 440 660 z M 460 680 L 460 700 L 480 700 L 480 680 L 460 680 z M 480 700 L 480 720 L 500 720 L 500 700 L 480 700 z M 500 720 L 500 740 L 520 740 L 520 720 L 500 720 z M 520 740 L 520 760 L 540 760 L 540 740 L 520 740 z M 540 760 L 540 780 L 560 780 L 560 760 L 540 760 z M 560 780 L 560 800 L 580 800 L 580 780 L 560 780 z M 580 800 L 580 820 L 600 820 L 600 800 L 580 800 z M 600 820 L 600 840 L 620 840 L 620 820 L 600 820 z M 620 840 L 620 860 L 640 860 L 640 840 L 620 840 z M 640 860 L 640 880 L 660 880 L 660 860 L 640 860 z M 660 880 L 660 900 L 680 900 L 680 880 L 660 880 z M 680 900 L 680 920 L 700 920 L 700 900 L 680 900 z "
     id="rect3522" />
  <path
     style="fill:#00ffff"
     d="M 180 200 L 180 220 L 200 220 L 200 200 L 180 200 z M 200 220 L 200 240 L 220 240 L 220 220 L 200 220 z M 220 220 L 240 220 L 240 200 L 220 200 L 220 220 z M 240 220 L 240 240 L 260 240 L 260 220 L 240 220 z M 260 220 L 280 220 L 280 200 L 260 200 L 260 220 z M 280 220 L 280 240 L 300 240 L 300 220 L 280 220 z M 300 220 L 320 220 L 320 200 L 300 200 L 300 220 z M 320 220 L 320 240 L 340 240 L 340 220 L 320 220 z M 340 240 L 340 260 L 360 260 L 360 240 L 340 240 z M 360 260 L 360 280 L 380 280 L 380 260 L 360 260 z M 380 280 L 380 300 L 400 300 L 400 280 L 380 280 z M 400 300 L 400 320 L 420 320 L 420 300 L 400 300 z M 400 320 L 380 320 L 380 340 L 400 340 L 400 320 z M 400 340 L 400 360 L 420 360 L 420 340 L 400 340 z M 400 360 L 380 360 L 380 380 L 400 380 L 400 360 z M 400 380 L 400 400 L 420 400 L 420 380 L 400 380 z M 380 380 L 360 380 L 360 400 L 380 400 L 380 380 z M 360 380 L 360 360 L 340 360 L 340 380 L 360 380 z M 340 380 L 320 380 L 320 400 L 340 400 L 340 380 z M 320 380 L 320 360 L 300 360 L 300 380 L 320 380 z M 300 380 L 280 380 L 280 400 L 300 400 L 300 380 z M 280 400 L 260 400 L 260 420 L 280 420 L 280 400 z M 280 420 L 280 440 L 300 440 L 300 420 L 280 420 z M 300 440 L 300 460 L 320 460 L 320 440 L 300 440 z M 320 440 L 340 440 L 340 420 L 320 420 L 320 440 z M 340 440 L 340 460 L 360 460 L 360 440 L 340 440 z M 360 440 L 380 440 L 380 420 L 360 420 L 360 440 z M 380 440 L 380 460 L 400 460 L 400 440 L 380 440 z M 400 440 L 420 440 L 420 420 L 400 420 L 400 440 z M 280 440 L 260 440 L 260 460 L 280 460 L 280 440 z M 260 460 L 240 460 L 240 480 L 260 480 L 260 460 z M 260 480 L 260 500 L 280 500 L 280 480 L 260 480 z M 280 500 L 280 520 L 300 520 L 300 500 L 280 500 z M 300 500 L 320 500 L 320 480 L 300 480 L 300 500 z M 320 500 L 320 520 L 340 520 L 340 500 L 320 500 z M 340 500 L 360 500 L 360 480 L 340 480 L 340 500 z M 360 500 L 360 520 L 380 520 L 380 500 L 360 500 z M 380 500 L 400 500 L 400 480 L 380 480 L 380 500 z M 280 520 L 260 520 L 260 540 L 280 540 L 280 520 z M 280 540 L 280 560 L 300 560 L 300 540 L 280 540 z M 300 560 L 300 580 L 320 580 L 320 560 L 300 560 z M 320 560 L 340 560 L 340 540 L 320 540 L 320 560 z M 280 560 L 260 560 L 260 580 L 280 580 L 280 560 z M 260 560 L 260 540 L 240 540 L 240 560 L 260 560 z M 240 560 L 220 560 L 220 580 L 240 580 L 240 560 z M 220 560 L 220 540 L 200 540 L 200 560 L 220 560 z M 200 560 L 180 560 L 180 580 L 200 580 L 200 560 z M 200 540 L 200 520 L 180 520 L 180 540 L 200 540 z M 200 520 L 220 520 L 220 500 L 200 500 L 200 520 z M 200 500 L 200 480 L 180 480 L 180 500 L 200 500 z M 200 480 L 220 480 L 220 460 L 200 460 L 200 480 z M 200 460 L 200 440 L 180 440 L 180 460 L 200 460 z M 200 440 L 220 440 L 220 420 L 200 420 L 200 440 z M 200 420 L 200 400 L 180 400 L 180 420 L 200 420 z M 200 400 L 220 400 L 220 380 L 200 380 L 200 400 z M 200 380 L 200 360 L 180 360 L 180 380 L 200 380 z M 200 360 L 220 360 L 220 340 L 200 340 L 200 360 z M 200 340 L 200 320 L 180 320 L 180 340 L 200 340 z M 200 320 L 220 320 L 220 300 L 200 300 L 200 320 z M 200 300 L 200 280 L 180 280 L 180 300 L 200 300 z M 200 280 L 220 280 L 220 260 L 200 260 L 200 280 z M 200 260 L 200 240 L 180 240 L 180 260 L 200 260 z M 220 260 L 240 260 L 240 240 L 220 240 L 220 260 z M 240 260 L 240 280 L 260 280 L 260 260 L 240 260 z M 260 260 L 280 260 L 280 240 L 260 240 L 260 260 z M 280 260 L 280 280 L 300 280 L 300 260 L 280 260 z M 300 260 L 320 260 L 320 240 L 300 240 L 300 260 z M 320 260 L 320 280 L 340 280 L 340 260 L 320 260 z M 340 280 L 340 300 L 360 300 L 360 280 L 340 280 z M 360 300 L 360 320 L 380 320 L 380 300 L 360 300 z M 360 320 L 340 320 L 340 340 L 360 340 L 360 320 z M 360 340 L 360 360 L 380 360 L 380 340 L 360 340 z M 340 340 L 320 340 L 320 360 L 340 360 L 340 340 z M 320 340 L 320 320 L 300 320 L 300 340 L 320 340 z M 300 340 L 280 340 L 280 360 L 300 360 L 300 340 z M 280 360 L 260 360 L 260 380 L 280 380 L 280 360 z M 260 380 L 240 380 L 240 400 L 260 400 L 260 380 z M 240 400 L 220 400 L 220 420 L 240 420 L 240 400 z M 240 420 L 240 440 L 260 440 L 260 420 L 240 420 z M 240 440 L 220 440 L 220 460 L 240 460 L 240 440 z M 240 380 L 240 360 L 220 360 L 220 380 L 240 380 z M 240 360 L 260 360 L 260 340 L 240 340 L 240 360 z M 240 340 L 240 320 L 220 320 L 220 340 L 240 340 z M 240 320 L 260 320 L 260 300 L 240 300 L 240 320 z M 240 300 L 240 280 L 220 280 L 220 300 L 240 300 z M 260 300 L 280 300 L 280 280 L 260 280 L 260 300 z M 280 300 L 280 320 L 300 320 L 300 300 L 280 300 z M 300 300 L 320 300 L 320 280 L 300 280 L 300 300 z M 320 300 L 320 320 L 340 320 L 340 300 L 320 300 z M 280 320 L 260 320 L 260 340 L 280 340 L 280 320 z M 220 480 L 220 500 L 240 500 L 240 480 L 220 480 z M 240 500 L 240 520 L 260 520 L 260 500 L 240 500 z M 240 520 L 220 520 L 220 540 L 240 540 L 240 520 z M 120 220 L 120 240 L 140 240 L 140 220 L 120 220 z M 140 240 L 140 260 L 160 260 L 160 240 L 140 240 z M 120 240 L 100 240 L 100 260 L 120 260 L 120 240 z M 100 260 L 80 260 L 80 280 L 100 280 L 100 260 z M 100 280 L 100 300 L 120 300 L 120 280 L 100 280 z M 100 300 L 80 300 L 80 320 L 100 320 L 100 300 z M 100 320 L 100 340 L 120 340 L 120 320 L 100 320 z M 100 340 L 80 340 L 80 360 L 100 360 L 100 340 z M 100 360 L 100 380 L 120 380 L 120 360 L 100 360 z M 100 380 L 80 380 L 80 400 L 100 400 L 100 380 z M 100 400 L 100 420 L 120 420 L 120 400 L 100 400 z M 120 420 L 120 440 L 140 440 L 140 420 L 120 420 z M 140 440 L 140 460 L 160 460 L 160 440 L 140 440 z M 140 460 L 120 460 L 120 480 L 140 480 L 140 460 z M 140 480 L 140 500 L 160 500 L 160 480 L 140 480 z M 140 500 L 120 500 L 120 520 L 140 520 L 140 500 z M 140 520 L 140 540 L 160 540 L 160 520 L 140 520 z M 140 540 L 120 540 L 120 560 L 140 560 L 140 540 z M 120 540 L 120 520 L 100 520 L 100 540 L 120 540 z M 100 540 L 80 540 L 80 560 L 100 560 L 100 540 z M 80 540 L 80 520 L 60 520 L 60 540 L 80 540 z M 80 520 L 100 520 L 100 500 L 80 500 L 80 520 z M 80 500 L 80 480 L 60 480 L 60 500 L 80 500 z M 60 480 L 60 460 L 40 460 L 40 480 L 60 480 z M 40 460 L 40 440 L 20 440 L 20 460 L 40 460 z M 40 440 L 60 440 L 60 420 L 40 420 L 40 440 z M 40 420 L 40 400 L 20 400 L 20 420 L 40 420 z M 40 400 L 60 400 L 60 380 L 40 380 L 40 400 z M 40 380 L 40 360 L 20 360 L 20 380 L 40 380 z M 40 360 L 60 360 L 60 340 L 40 340 L 40 360 z M 60 340 L 80 340 L 80 320 L 60 320 L 60 340 z M 60 320 L 60 300 L 40 300 L 40 320 L 60 320 z M 60 300 L 80 300 L 80 280 L 60 280 L 60 300 z M 60 360 L 60 380 L 80 380 L 80 360 L 60 360 z M 60 400 L 60 420 L 80 420 L 80 400 L 60 400 z M 80 420 L 80 440 L 100 440 L 100 420 L 80 420 z M 100 440 L 100 460 L 120 460 L 120 440 L 100 440 z M 100 460 L 80 460 L 80 480 L 100 480 L 100 460 z M 100 480 L 100 500 L 120 500 L 120 480 L 100 480 z M 80 460 L 80 440 L 60 440 L 60 460 L 80 460 z M 460 620 L 460 640 L 440 640 L 440 660 L 460 660 L 460 680 L 480 680 L 480 700 L 500 700 L 500 720 L 520 720 L 520 740 L 540 740 L 540 760 L 560 760 L 560 780 L 580 780 L 580 800 L 600 800 L 600 820 L 620 820 L 620 840 L 640 840 L 640 860 L 660 860 L 660 880 L 680 880 L 680 900 L 700 900 L 700 920 L 720 920 L 720 900 L 720 880 L 700 880 L 700 860 L 680 860 L 680 840 L 660 840 L 660 820 L 640 820 L 640 800 L 620 800 L 620 780 L 600 780 L 600 760 L 580 760 L 580 740 L 560 740 L 560 720 L 540 720 L 540 700 L 520 700 L 520 680 L 500 680 L 500 660 L 480 660 L 480 640 L 480 620 L 460 620 z "
     id="rect3524" />
  <path
     style="fill:#0000ff"
     d="M 480 600 L 480 620 L 480 640 L 480 660 L 500 660 L 500 680 L 520 680 L 520 700 L 540 700 L 540 720 L 560 720 L 560 740 L 580 740 L 580 760 L 600 760 L 600 780 L 620 780 L 620 800 L 640 800 L 640 820 L 660 820 L 660 840 L 680 840 L 680 860 L 700 860 L 700 880 L 720 880 L 720 900 L 720 920 L 740 920 L 740 900 L 740 880 L 740 860 L 740 840 L 720 840 L 720 820 L 700 820 L 700 800 L 680 800 L 680 780 L 660 780 L 660 760 L 640 760 L 640 740 L 620 740 L 620 720 L 600 720 L 600 700 L 580 700 L 580 680 L 560 680 L 560 660 L 540 660 L 540 640 L 520 640 L 520 620 L 500 620 L 500 600 L 480 600 z M 420 660 L 420 680 L 440 680 L 440 660 L 420 660 z M 440 680 L 440 700 L 460 700 L 460 680 L 440 680 z M 460 700 L 460 720 L 480 720 L 480 700 L 460 700 z M 480 720 L 480 740 L 500 740 L 500 720 L 480 720 z M 500 740 L 500 760 L 520 760 L 520 740 L 500 740 z M 520 760 L 520 780 L 540 780 L 540 760 L 520 760 z M 540 780 L 540 800 L 560 800 L 560 780 L 540 780 z M 560 800 L 560 820 L 580 820 L 580 800 L 560 800 z M 580 820 L 580 840 L 600 840 L 600 820 L 580 820 z M 600 840 L 600 860 L 620 860 L 620 840 L 600 840 z M 620 860 L 620 880 L 640 880 L 640 860 L 620 860 z M 640 880 L 640 900 L 660 900 L 660 880 L 640 880 z M 660 900 L 660 920 L 680 920 L 680 900 L 660 900 z "
     id="rect3526" />
  <path
     style="fill:#000080"
     d="M 500 600 L 500 620 L 520 620 L 520 600 L 500 600 z M 520 620 L 520 640 L 540 640 L 540 620 L 520 620 z M 540 640 L 540 660 L 560 660 L 560 640 L 540 640 z M 560 660 L 560 680 L 580 680 L 580 660 L 560 660 z M 580 680 L 580 700 L 600 700 L 600 680 L 580 680 z M 600 700 L 600 720 L 620 720 L 620 700 L 600 700 z M 620 720 L 620 740 L 640 740 L 640 720 L 620 720 z M 640 740 L 640 760 L 660 760 L 660 740 L 640 740 z M 660 760 L 660 780 L 680 780 L 680 760 L 660 760 z M 680 780 L 680 800 L 700 800 L 700 780 L 680 780 z M 700 800 L 700 820 L 720 820 L 720 800 L 700 800 z M 720 820 L 720 840 L 740 840 L 740 820 L 720 820 z M 740 840 L 740 860 L 740 880 L 740 900 L 740 920 L 760 920 L 760 900 L 760 880 L 760 860 L 760 840 L 740 840 z M 740 920 L 720 920 L 700 920 L 680 920 L 660 920 L 660 940 L 680 940 L 700 940 L 720 940 L 740 940 L 740 920 z M 660 920 L 660 900 L 640 900 L 640 880 L 620 880 L 620 860 L 600 860 L 600 840 L 580 840 L 580 820 L 560 820 L 560 800 L 540 800 L 540 780 L 520 780 L 520 760 L 500 760 L 500 740 L 480 740 L 480 720 L 460 720 L 460 700 L 440 700 L 440 720 L 440 740 L 460 740 L 460 760 L 480 760 L 480 780 L 500 780 L 500 800 L 520 800 L 520 820 L 540 820 L 540 840 L 560 840 L 560 860 L 580 860 L 580 880 L 600 880 L 600 900 L 620 900 L 620 920 L 640 920 L 660 920 z M 440 700 L 440 680 L 420 680 L 420 700 L 440 700 z "
     id="rect3538" />
  <path
     style="fill:#000000"
     d="M 720 20 L 720 40 L 720 60 L 740 60 L 740 80 L 760 80 L 760 100 L 780 100 L 780 120 L 800 120 L 800 140 L 820 140 L 820 160 L 840 160 L 840 180 L 860 180 L 860 200 L 880 200 L 880 220 L 860 220 L 840 220 L 820 220 L 800 220 L 780 220 L 760 220 L 740 220 L 720 220 L 720 240 L 740 240 L 760 240 L 780 240 L 800 240 L 820 240 L 840 240 L 860 240 L 880 240 L 900 240 L 900 260 L 900 280 L 900 300 L 900 320 L 900 340 L 900 360 L 900 380 L 900 400 L 900 420 L 900 440 L 900 460 L 900 480 L 900 500 L 900 520 L 900 540 L 900 560 L 900 580 L 900 600 L 900 620 L 900 640 L 900 660 L 900 680 L 900 700 L 900 720 L 900 740 L 900 760 L 900 780 L 900 800 L 900 820 L 900 840 L 900 860 L 900 880 L 880 880 L 860 880 L 840 880 L 820 880 L 800 880 L 780 880 L 780 860 L 780 840 L 760 840 L 760 860 L 760 880 L 760 900 L 760 920 L 780 920 L 780 900 L 800 900 L 820 900 L 840 900 L 860 900 L 880 900 L 900 900 L 920 900 L 920 880 L 920 860 L 920 840 L 920 820 L 920 800 L 920 780 L 920 760 L 920 740 L 920 720 L 920 700 L 920 680 L 920 660 L 920 640 L 920 620 L 920 600 L 920 580 L 920 560 L 920 540 L 920 520 L 920 500 L 920 480 L 920 460 L 920 440 L 920 420 L 920 400 L 920 380 L 920 360 L 920 340 L 920 320 L 920 300 L 920 280 L 920 260 L 920 240 L 920 220 L 920 200 L 900 200 L 900 180 L 880 180 L 880 160 L 860 160 L 860 140 L 840 140 L 840 120 L 820 120 L 820 100 L 800 100 L 800 80 L 780 80 L 780 60 L 760 60 L 760 40 L 740 40 L 740 20 L 720 20 z M 760 920 L 740 920 L 740 940 L 760 940 L 760 920 z M 740 940 L 720 940 L 700 940 L 680 940 L 660 940 L 660 960 L 680 960 L 700 960 L 720 960 L 740 960 L 740 940 z M 760 840 L 760 820 L 740 820 L 740 840 L 760 840 z M 740 820 L 740 800 L 720 800 L 720 820 L 740 820 z M 720 800 L 720 780 L 700 780 L 700 800 L 720 800 z M 700 780 L 700 760 L 680 760 L 680 780 L 700 780 z M 680 760 L 680 740 L 660 740 L 660 760 L 680 760 z M 660 740 L 660 720 L 640 720 L 640 740 L 660 740 z M 640 720 L 640 700 L 620 700 L 620 720 L 640 720 z M 620 700 L 620 680 L 600 680 L 600 700 L 620 700 z M 600 680 L 600 660 L 580 660 L 580 680 L 600 680 z M 580 660 L 580 640 L 560 640 L 560 660 L 580 660 z M 560 640 L 560 620 L 540 620 L 540 640 L 560 640 z M 540 620 L 540 600 L 520 600 L 520 620 L 540 620 z M 520 600 L 520 580 L 500 580 L 500 560 L 480 560 L 480 540 L 460 540 L 460 520 L 460 500 L 460 480 L 460 460 L 480 460 L 480 440 L 480 420 L 480 400 L 480 380 L 480 360 L 480 340 L 460 340 L 460 320 L 460 300 L 440 300 L 440 280 L 440 260 L 420 260 L 420 240 L 400 240 L 400 220 L 380 220 L 360 220 L 360 200 L 340 200 L 320 200 L 320 220 L 340 220 L 340 240 L 360 240 L 380 240 L 380 260 L 400 260 L 400 280 L 420 280 L 420 300 L 420 320 L 440 320 L 440 340 L 440 360 L 440 380 L 440 400 L 440 420 L 440 440 L 440 460 L 440 480 L 420 480 L 420 500 L 420 520 L 400 520 L 400 540 L 400 560 L 420 560 L 420 540 L 440 540 L 440 560 L 460 560 L 460 580 L 480 580 L 480 600 L 500 600 L 520 600 z M 400 560 L 380 560 L 360 560 L 360 580 L 340 580 L 320 580 L 320 600 L 300 600 L 280 600 L 260 600 L 240 600 L 220 600 L 200 600 L 180 600 L 160 600 L 160 580 L 140 580 L 120 580 L 100 580 L 100 600 L 120 600 L 140 600 L 140 620 L 160 620 L 180 620 L 200 620 L 220 620 L 240 620 L 260 620 L 280 620 L 300 620 L 320 620 L 340 620 L 340 600 L 360 600 L 380 600 L 380 580 L 400 580 L 400 560 z M 180 880 L 180 900 L 200 900 L 220 900 L 240 900 L 260 900 L 280 900 L 300 900 L 320 900 L 340 900 L 360 900 L 380 900 L 400 900 L 420 900 L 440 900 L 460 900 L 480 900 L 500 900 L 520 900 L 540 900 L 560 900 L 580 900 L 600 900 L 600 880 L 580 880 L 560 880 L 540 880 L 520 880 L 500 880 L 480 880 L 460 880 L 440 880 L 420 880 L 400 880 L 380 880 L 360 880 L 340 880 L 320 880 L 300 880 L 280 880 L 260 880 L 240 880 L 220 880 L 200 880 L 180 880 z "
     id="rect3548" />
</svg>
