<?xml version="1.0" encoding="UTF-8" standalone="no"?>
<svg
   xmlns:dc="http://purl.org/dc/elements/1.1/"
   xmlns:cc="http://creativecommons.org/ns#"
   xmlns:rdf="http://www.w3.org/1999/02/22-rdf-syntax-ns#"
   xmlns:svg="http://www.w3.org/2000/svg"
   xmlns="http://www.w3.org/2000/svg"
   id="svg1596"
   width="640px"
   version="1.1"
   height="640px">
  <metadata
     id="metadata1600">
    <rdf:RDF>
      <cc:Work
         rdf:about="">
        <dc:format>image/svg+xml</dc:format>
        <dc:type
           rdf:resource="http://purl.org/dc/dcmitype/StillImage" />
      </cc:Work>
    </rdf:RDF>
  </metadata>
  <defs
     id="defs2" />
  <path
     style="fill:#008080"
     d="M 240 160 L 240 180 L 260 180 L 260 160 L 240 160 z M 260 180 L 260 200 L 280 200 L 280 180 L 260 180 z M 280 220 L 280 240 L 280 260 L 280 280 L 280 300 L 280 320 L 300 320 L 300 300 L 300 280 L 300 260 L 300 240 L 300 220 L 280 220 z M 280 320 L 260 320 L 260 340 L 240 340 L 240 360 L 220 360 L 220 380 L 240 380 L 260 380 L 260 360 L 280 360 L 280 340 L 280 320 z M 220 380 L 200 380 L 180 380 L 160 380 L 140 380 L 120 380 L 100 380 L 100 400 L 120 400 L 140 400 L 160 400 L 180 400 L 200 400 L 220 400 L 220 380 z "
     id="rect1036" />
  <path
     style="fill:#ffffff"
     d="M 140 20 L 140 40 L 140 60 L 140 80 L 140 100 L 140 120 L 160 120 L 180 120 L 200 120 L 220 120 L 240 120 L 260 120 L 260 140 L 280 140 L 280 160 L 300 160 L 320 160 L 340 160 L 360 160 L 380 160 L 400 160 L 400 180 L 380 180 L 360 180 L 340 180 L 320 180 L 320 200 L 340 200 L 340 220 L 340 240 L 360 240 L 380 240 L 400 240 L 420 240 L 440 240 L 460 240 L 480 240 L 500 240 L 500 260 L 480 260 L 460 260 L 440 260 L 420 260 L 400 260 L 380 260 L 360 260 L 340 260 L 340 280 L 360 280 L 380 280 L 400 280 L 420 280 L 440 280 L 460 280 L 480 280 L 500 280 L 500 300 L 480 300 L 460 300 L 440 300 L 420 300 L 400 300 L 380 300 L 360 300 L 340 300 L 340 320 L 360 320 L 380 320 L 400 320 L 420 320 L 440 320 L 460 320 L 480 320 L 500 320 L 500 340 L 480 340 L 460 340 L 440 340 L 420 340 L 400 340 L 380 340 L 360 340 L 340 340 L 320 340 L 320 360 L 340 360 L 360 360 L 380 360 L 400 360 L 420 360 L 440 360 L 460 360 L 480 360 L 500 360 L 500 380 L 480 380 L 460 380 L 440 380 L 420 380 L 400 380 L 380 380 L 360 380 L 360 400 L 380 400 L 400 400 L 420 400 L 440 400 L 460 400 L 480 400 L 500 400 L 500 420 L 480 420 L 460 420 L 440 420 L 420 420 L 400 420 L 400 440 L 420 440 L 440 440 L 460 440 L 480 440 L 500 440 L 500 460 L 480 460 L 460 460 L 440 460 L 440 480 L 460 480 L 480 480 L 500 480 L 500 500 L 480 500 L 480 520 L 500 520 L 500 540 L 520 540 L 520 560 L 540 560 L 560 560 L 580 560 L 580 540 L 580 520 L 580 500 L 580 480 L 580 460 L 580 440 L 580 420 L 580 400 L 580 380 L 580 360 L 580 340 L 580 320 L 580 300 L 580 280 L 580 260 L 580 240 L 580 220 L 580 200 L 580 180 L 580 160 L 560 160 L 540 160 L 520 160 L 500 160 L 480 160 L 460 160 L 460 140 L 460 120 L 460 100 L 460 80 L 460 60 L 460 40 L 460 20 L 440 20 L 420 20 L 400 20 L 380 20 L 360 20 L 340 20 L 320 20 L 300 20 L 280 20 L 260 20 L 240 20 L 220 20 L 200 20 L 180 20 L 160 20 L 140 20 z M 480 80 L 480 100 L 480 120 L 480 140 L 500 140 L 520 140 L 540 140 L 540 120 L 520 120 L 520 100 L 500 100 L 500 80 L 480 80 z M 120 140 L 120 160 L 140 160 L 140 140 L 120 140 z M 140 160 L 140 180 L 160 180 L 160 160 L 140 160 z M 160 160 L 180 160 L 180 140 L 160 140 L 160 160 z M 140 180 L 120 180 L 120 200 L 140 200 L 140 180 z M 200 140 L 200 160 L 220 160 L 220 140 L 200 140 z M 60 160 L 60 180 L 80 180 L 80 160 L 60 160 z M 80 180 L 80 200 L 60 200 L 60 220 L 80 220 L 80 240 L 60 240 L 60 260 L 80 260 L 80 280 L 100 280 L 100 260 L 100 240 L 100 220 L 100 200 L 100 180 L 80 180 z M 80 280 L 60 280 L 60 300 L 80 300 L 80 280 z M 80 300 L 80 320 L 100 320 L 100 300 L 80 300 z M 80 320 L 60 320 L 60 340 L 80 340 L 80 320 z M 80 340 L 80 360 L 100 360 L 100 340 L 80 340 z M 60 320 L 60 300 L 40 300 L 40 320 L 60 320 z M 40 300 L 40 280 L 20 280 L 20 300 L 40 300 z M 40 280 L 60 280 L 60 260 L 40 260 L 40 280 z M 40 260 L 40 240 L 20 240 L 20 260 L 40 260 z M 40 240 L 60 240 L 60 220 L 40 220 L 40 240 z M 60 200 L 60 180 L 40 180 L 40 200 L 60 200 z M 260 400 L 260 420 L 280 420 L 280 400 L 260 400 z M 280 420 L 280 440 L 300 440 L 300 420 L 280 420 z M 140 420 L 140 440 L 140 460 L 140 480 L 140 500 L 140 520 L 140 540 L 140 560 L 160 560 L 180 560 L 200 560 L 220 560 L 240 560 L 260 560 L 280 560 L 300 560 L 320 560 L 340 560 L 360 560 L 360 540 L 340 540 L 340 520 L 320 520 L 320 500 L 300 500 L 280 500 L 260 500 L 240 500 L 220 500 L 200 500 L 200 480 L 220 480 L 240 480 L 260 480 L 280 480 L 280 460 L 260 460 L 240 460 L 220 460 L 200 460 L 200 440 L 220 440 L 240 440 L 240 420 L 220 420 L 200 420 L 180 420 L 160 420 L 140 420 z "
     id="rect1474" />
  <path
     style="fill:#808080"
     d="M 120 0 L 120 20 L 120 40 L 120 60 L 120 80 L 120 100 L 120 120 L 100 120 L 100 140 L 120 140 L 140 140 L 160 140 L 180 140 L 200 140 L 200 120 L 180 120 L 160 120 L 140 120 L 140 100 L 140 80 L 140 60 L 140 40 L 140 20 L 160 20 L 180 20 L 200 20 L 220 20 L 240 20 L 260 20 L 280 20 L 300 20 L 320 20 L 340 20 L 360 20 L 380 20 L 400 20 L 420 20 L 440 20 L 460 20 L 460 40 L 460 60 L 460 80 L 460 100 L 460 120 L 460 140 L 460 160 L 480 160 L 480 140 L 480 120 L 480 100 L 480 80 L 480 60 L 500 60 L 500 40 L 480 40 L 480 20 L 480 0 L 460 0 L 440 0 L 420 0 L 400 0 L 380 0 L 360 0 L 340 0 L 320 0 L 300 0 L 280 0 L 260 0 L 240 0 L 220 0 L 200 0 L 180 0 L 160 0 L 140 0 L 120 0 z M 500 60 L 500 80 L 520 80 L 520 60 L 500 60 z M 520 80 L 520 100 L 540 100 L 540 80 L 520 80 z M 540 100 L 540 120 L 560 120 L 560 100 L 540 100 z M 560 120 L 560 140 L 580 140 L 580 120 L 560 120 z M 100 140 L 80 140 L 60 140 L 60 160 L 80 160 L 100 160 L 100 140 z M 60 160 L 40 160 L 40 180 L 60 180 L 60 160 z M 40 180 L 20 180 L 20 200 L 20 220 L 40 220 L 40 200 L 40 180 z M 20 220 L 0 220 L 0 240 L 0 260 L 0 280 L 0 300 L 0 320 L 20 320 L 20 300 L 20 280 L 20 260 L 20 240 L 20 220 z M 20 320 L 20 340 L 20 360 L 40 360 L 40 340 L 40 320 L 20 320 z M 40 360 L 40 380 L 60 380 L 60 360 L 40 360 z M 220 120 L 220 140 L 240 140 L 240 120 L 220 120 z M 260 140 L 260 160 L 280 160 L 280 140 L 260 140 z M 280 160 L 280 180 L 300 180 L 300 160 L 280 160 z M 300 180 L 300 200 L 300 220 L 320 220 L 320 200 L 320 180 L 300 180 z M 320 220 L 320 240 L 320 260 L 320 280 L 320 300 L 320 320 L 340 320 L 340 300 L 340 280 L 340 260 L 340 240 L 340 220 L 320 220 z M 320 320 L 300 320 L 300 340 L 300 360 L 320 360 L 320 340 L 320 320 z M 320 360 L 320 380 L 340 380 L 340 360 L 320 360 z M 340 380 L 340 400 L 360 400 L 360 380 L 340 380 z M 360 400 L 360 420 L 380 420 L 380 400 L 360 400 z M 380 420 L 380 440 L 400 440 L 400 420 L 380 420 z M 400 440 L 400 460 L 420 460 L 420 440 L 400 440 z M 420 460 L 420 480 L 440 480 L 440 460 L 420 460 z M 440 480 L 440 500 L 460 500 L 460 480 L 440 480 z M 460 500 L 460 520 L 480 520 L 480 500 L 460 500 z M 480 520 L 480 540 L 500 540 L 500 520 L 480 520 z M 500 540 L 500 560 L 520 560 L 520 540 L 500 540 z M 320 380 L 300 380 L 300 360 L 280 360 L 280 380 L 280 400 L 300 400 L 300 420 L 320 420 L 320 400 L 320 380 z M 180 260 L 180 280 L 200 280 L 220 280 L 240 280 L 260 280 L 280 280 L 280 260 L 260 260 L 240 260 L 220 260 L 200 260 L 180 260 z M 180 300 L 180 320 L 200 320 L 220 320 L 240 320 L 260 320 L 280 320 L 280 300 L 260 300 L 240 300 L 220 300 L 200 300 L 180 300 z M 180 340 L 180 360 L 200 360 L 220 360 L 240 360 L 240 340 L 220 340 L 200 340 L 180 340 z M 220 400 L 220 420 L 240 420 L 240 400 L 220 400 z M 240 420 L 240 440 L 260 440 L 260 420 L 240 420 z M 260 440 L 260 460 L 280 460 L 280 440 L 260 440 z M 120 420 L 120 440 L 120 460 L 120 480 L 120 500 L 120 520 L 120 540 L 120 560 L 120 580 L 140 580 L 140 560 L 140 540 L 140 520 L 140 500 L 140 480 L 140 460 L 140 440 L 140 420 L 120 420 z "
     id="rect1480" />
  <path
     style="fill:#c0c0c0"
     d="M 480 60 L 480 80 L 500 80 L 500 60 L 480 60 z M 500 80 L 500 100 L 520 100 L 520 80 L 500 80 z M 520 100 L 520 120 L 540 120 L 540 100 L 520 100 z M 540 120 L 540 140 L 560 140 L 560 120 L 540 120 z M 240 120 L 240 140 L 260 140 L 260 120 L 240 120 z M 100 140 L 100 160 L 100 180 L 100 200 L 100 220 L 100 240 L 100 260 L 100 280 L 100 300 L 100 320 L 100 340 L 100 360 L 100 380 L 120 380 L 120 360 L 140 360 L 140 340 L 120 340 L 120 320 L 140 320 L 140 300 L 120 300 L 120 280 L 140 280 L 140 260 L 120 260 L 120 240 L 140 240 L 140 220 L 120 220 L 120 200 L 120 180 L 120 160 L 120 140 L 100 140 z M 140 220 L 160 220 L 160 200 L 140 200 L 140 220 z M 160 200 L 180 200 L 180 180 L 160 180 L 160 200 z M 180 180 L 200 180 L 200 160 L 180 160 L 180 180 z M 200 180 L 200 200 L 220 200 L 220 180 L 200 180 z M 220 180 L 240 180 L 240 160 L 220 160 L 220 180 z M 240 180 L 240 200 L 260 200 L 260 180 L 240 180 z M 260 200 L 260 220 L 280 220 L 280 200 L 260 200 z M 260 220 L 240 220 L 240 240 L 260 240 L 260 220 z M 260 240 L 260 260 L 280 260 L 280 240 L 260 240 z M 240 240 L 220 240 L 220 260 L 240 260 L 240 240 z M 220 240 L 220 220 L 200 220 L 200 240 L 220 240 z M 200 240 L 180 240 L 180 260 L 200 260 L 200 240 z M 180 260 L 160 260 L 160 280 L 180 280 L 180 260 z M 180 280 L 180 300 L 200 300 L 200 280 L 180 280 z M 180 300 L 160 300 L 160 320 L 180 320 L 180 300 z M 180 320 L 180 340 L 200 340 L 200 320 L 180 320 z M 180 340 L 160 340 L 160 360 L 180 360 L 180 340 z M 180 360 L 180 380 L 200 380 L 200 360 L 180 360 z M 160 360 L 140 360 L 140 380 L 160 380 L 160 360 z M 160 340 L 160 320 L 140 320 L 140 340 L 160 340 z M 160 300 L 160 280 L 140 280 L 140 300 L 160 300 z M 160 260 L 160 240 L 140 240 L 140 260 L 160 260 z M 160 240 L 180 240 L 180 220 L 160 220 L 160 240 z M 180 220 L 200 220 L 200 200 L 180 200 L 180 220 z M 220 220 L 240 220 L 240 200 L 220 200 L 220 220 z M 300 160 L 300 180 L 320 180 L 340 180 L 360 180 L 380 180 L 400 180 L 400 160 L 380 160 L 360 160 L 340 160 L 320 160 L 300 160 z M 580 160 L 580 180 L 580 200 L 580 220 L 580 240 L 580 260 L 580 280 L 580 300 L 580 320 L 580 340 L 580 360 L 580 380 L 580 400 L 580 420 L 580 440 L 580 460 L 580 480 L 580 500 L 580 520 L 580 540 L 580 560 L 560 560 L 540 560 L 520 560 L 520 580 L 540 580 L 560 580 L 580 580 L 600 580 L 600 560 L 600 540 L 600 520 L 600 500 L 600 480 L 600 460 L 600 440 L 600 420 L 600 400 L 600 380 L 600 360 L 600 340 L 600 320 L 600 300 L 600 280 L 600 260 L 600 240 L 600 220 L 600 200 L 600 180 L 600 160 L 580 160 z M 320 200 L 320 220 L 340 220 L 340 200 L 320 200 z M 340 240 L 340 260 L 360 260 L 380 260 L 400 260 L 420 260 L 440 260 L 460 260 L 480 260 L 500 260 L 500 240 L 480 240 L 460 240 L 440 240 L 420 240 L 400 240 L 380 240 L 360 240 L 340 240 z M 220 280 L 220 300 L 240 300 L 240 280 L 220 280 z M 260 280 L 260 300 L 280 300 L 280 280 L 260 280 z M 340 280 L 340 300 L 360 300 L 380 300 L 400 300 L 420 300 L 440 300 L 460 300 L 480 300 L 500 300 L 500 280 L 480 280 L 460 280 L 440 280 L 420 280 L 400 280 L 380 280 L 360 280 L 340 280 z M 220 320 L 220 340 L 240 340 L 240 320 L 220 320 z M 320 320 L 320 340 L 340 340 L 360 340 L 380 340 L 400 340 L 420 340 L 440 340 L 460 340 L 480 340 L 500 340 L 500 320 L 480 320 L 460 320 L 440 320 L 420 320 L 400 320 L 380 320 L 360 320 L 340 320 L 320 320 z M 40 340 L 40 360 L 60 360 L 60 340 L 40 340 z M 60 360 L 60 380 L 80 380 L 80 360 L 60 360 z M 340 360 L 340 380 L 360 380 L 380 380 L 400 380 L 420 380 L 440 380 L 460 380 L 480 380 L 500 380 L 500 360 L 480 360 L 460 360 L 440 360 L 420 360 L 400 360 L 380 360 L 360 360 L 340 360 z M 260 380 L 260 400 L 280 400 L 280 380 L 260 380 z M 280 400 L 280 420 L 300 420 L 300 400 L 280 400 z M 280 420 L 260 420 L 260 440 L 280 440 L 280 420 z M 260 440 L 240 440 L 220 440 L 200 440 L 200 460 L 220 460 L 240 460 L 260 460 L 260 440 z M 260 420 L 260 400 L 240 400 L 240 420 L 260 420 z M 380 400 L 380 420 L 400 420 L 420 420 L 440 420 L 460 420 L 480 420 L 500 420 L 500 400 L 480 400 L 460 400 L 440 400 L 420 400 L 400 400 L 380 400 z M 420 440 L 420 460 L 440 460 L 460 460 L 480 460 L 500 460 L 500 440 L 480 440 L 460 440 L 440 440 L 420 440 z M 200 480 L 200 500 L 220 500 L 240 500 L 260 500 L 280 500 L 300 500 L 300 480 L 280 480 L 260 480 L 240 480 L 220 480 L 200 480 z M 460 480 L 460 500 L 480 500 L 500 500 L 500 480 L 480 480 L 460 480 z M 140 560 L 140 580 L 160 580 L 180 580 L 200 580 L 220 580 L 240 580 L 260 580 L 280 580 L 300 580 L 320 580 L 340 580 L 360 580 L 380 580 L 380 560 L 360 560 L 340 560 L 320 560 L 300 560 L 280 560 L 260 560 L 240 560 L 220 560 L 200 560 L 180 560 L 160 560 L 140 560 z "
     id="rect1526" />
  <path
     style="fill:#000080"
     d="M 280 460 L 280 480 L 300 480 L 300 460 L 280 460 z M 300 480 L 300 500 L 320 500 L 320 480 L 300 480 z M 320 500 L 320 520 L 340 520 L 340 500 L 320 500 z M 340 520 L 340 540 L 360 540 L 360 520 L 340 520 z M 360 540 L 360 560 L 380 560 L 380 540 L 360 540 z M 380 560 L 380 580 L 400 580 L 400 560 L 380 560 z M 400 580 L 400 600 L 420 600 L 420 580 L 400 580 z M 420 600 L 420 620 L 440 620 L 440 600 L 420 600 z "
     id="rect1580" />
  <path
     style="fill:#00ffff"
     d="M 140 140 L 140 160 L 160 160 L 160 140 L 140 140 z M 160 160 L 160 180 L 180 180 L 180 160 L 160 160 z M 180 160 L 200 160 L 200 140 L 180 140 L 180 160 z M 200 160 L 200 180 L 220 180 L 220 160 L 200 160 z M 220 180 L 220 200 L 240 200 L 240 180 L 220 180 z M 240 200 L 240 220 L 260 220 L 260 200 L 240 200 z M 260 220 L 260 240 L 280 240 L 280 220 L 260 220 z M 260 240 L 240 240 L 240 260 L 260 260 L 260 240 z M 240 240 L 240 220 L 220 220 L 220 240 L 240 240 z M 220 240 L 200 240 L 200 260 L 220 260 L 220 240 z M 200 240 L 200 220 L 180 220 L 180 240 L 200 240 z M 180 240 L 160 240 L 160 260 L 180 260 L 180 240 z M 160 260 L 140 260 L 140 280 L 160 280 L 160 260 z M 160 280 L 160 300 L 180 300 L 180 280 L 160 280 z M 160 300 L 140 300 L 140 320 L 160 320 L 160 300 z M 160 320 L 160 340 L 180 340 L 180 320 L 160 320 z M 160 340 L 140 340 L 140 360 L 160 360 L 160 340 z M 160 360 L 160 380 L 180 380 L 180 360 L 160 360 z M 140 360 L 120 360 L 120 380 L 140 380 L 140 360 z M 140 340 L 140 320 L 120 320 L 120 340 L 140 340 z M 140 300 L 140 280 L 120 280 L 120 300 L 140 300 z M 140 260 L 140 240 L 120 240 L 120 260 L 140 260 z M 140 240 L 160 240 L 160 220 L 140 220 L 140 240 z M 140 220 L 140 200 L 120 200 L 120 220 L 140 220 z M 140 200 L 160 200 L 160 180 L 140 180 L 140 200 z M 140 180 L 140 160 L 120 160 L 120 180 L 140 180 z M 160 200 L 160 220 L 180 220 L 180 200 L 160 200 z M 180 200 L 200 200 L 200 180 L 180 180 L 180 200 z M 200 200 L 200 220 L 220 220 L 220 200 L 200 200 z M 80 160 L 80 180 L 100 180 L 100 160 L 80 160 z M 80 180 L 60 180 L 60 200 L 80 200 L 80 180 z M 60 200 L 40 200 L 40 220 L 60 220 L 60 200 z M 60 220 L 60 240 L 80 240 L 80 220 L 60 220 z M 60 240 L 40 240 L 40 260 L 60 260 L 60 240 z M 60 260 L 60 280 L 80 280 L 80 260 L 60 260 z M 80 280 L 80 300 L 100 300 L 100 280 L 80 280 z M 80 300 L 60 300 L 60 320 L 80 320 L 80 300 z M 80 320 L 80 340 L 100 340 L 100 320 L 80 320 z M 80 340 L 60 340 L 60 360 L 80 360 L 80 340 z M 80 360 L 80 380 L 100 380 L 100 360 L 80 360 z M 60 340 L 60 320 L 40 320 L 40 340 L 60 340 z M 40 320 L 40 300 L 20 300 L 20 320 L 40 320 z M 40 300 L 60 300 L 60 280 L 40 280 L 40 300 z M 40 280 L 40 260 L 20 260 L 20 280 L 40 280 z M 40 240 L 40 220 L 20 220 L 20 240 L 40 240 z M 200 280 L 200 300 L 220 300 L 220 280 L 200 280 z M 240 280 L 240 300 L 260 300 L 260 280 L 240 280 z M 200 320 L 200 340 L 220 340 L 220 320 L 200 320 z M 240 320 L 240 340 L 260 340 L 260 320 L 240 320 z M 200 360 L 200 380 L 220 380 L 220 360 L 200 360 z M 300 420 L 300 440 L 300 460 L 320 460 L 320 480 L 340 480 L 340 500 L 360 500 L 360 520 L 380 520 L 380 540 L 400 540 L 400 560 L 420 560 L 420 580 L 440 580 L 440 600 L 460 600 L 460 620 L 480 620 L 480 600 L 480 580 L 460 580 L 460 560 L 440 560 L 440 540 L 420 540 L 420 520 L 400 520 L 400 500 L 380 500 L 380 480 L 360 480 L 360 460 L 340 460 L 340 440 L 320 440 L 320 420 L 300 420 z "
     id="rect1584" />
  <path
     style="fill:#0000ff"
     d="M 320 400 L 320 420 L 320 440 L 340 440 L 340 460 L 360 460 L 360 480 L 380 480 L 380 500 L 400 500 L 400 520 L 420 520 L 420 540 L 440 540 L 440 560 L 460 560 L 460 580 L 480 580 L 480 600 L 480 620 L 500 620 L 500 600 L 500 580 L 500 560 L 480 560 L 480 540 L 460 540 L 460 520 L 440 520 L 440 500 L 420 500 L 420 480 L 400 480 L 400 460 L 380 460 L 380 440 L 360 440 L 360 420 L 340 420 L 340 400 L 320 400 z M 280 440 L 280 460 L 300 460 L 300 440 L 280 440 z M 300 460 L 300 480 L 320 480 L 320 460 L 300 460 z M 320 480 L 320 500 L 340 500 L 340 480 L 320 480 z M 340 500 L 340 520 L 360 520 L 360 500 L 340 500 z M 360 520 L 360 540 L 380 540 L 380 520 L 360 520 z M 380 540 L 380 560 L 400 560 L 400 540 L 380 540 z M 400 560 L 400 580 L 420 580 L 420 560 L 400 560 z M 420 580 L 420 600 L 440 600 L 440 580 L 420 580 z M 440 600 L 440 620 L 460 620 L 460 600 L 440 600 z "
     id="rect1586" />
  <path
     style="fill:#000000"
     d="M 480 20 L 480 40 L 500 40 L 500 20 L 480 20 z M 500 40 L 500 60 L 520 60 L 520 40 L 500 40 z M 520 60 L 520 80 L 540 80 L 540 60 L 520 60 z M 540 80 L 540 100 L 560 100 L 560 80 L 540 80 z M 560 100 L 560 120 L 580 120 L 580 100 L 560 100 z M 580 120 L 580 140 L 560 140 L 540 140 L 520 140 L 500 140 L 480 140 L 480 160 L 500 160 L 520 160 L 540 160 L 560 160 L 580 160 L 600 160 L 600 180 L 600 200 L 600 220 L 600 240 L 600 260 L 600 280 L 600 300 L 600 320 L 600 340 L 600 360 L 600 380 L 600 400 L 600 420 L 600 440 L 600 460 L 600 480 L 600 500 L 600 520 L 600 540 L 600 560 L 600 580 L 580 580 L 560 580 L 540 580 L 520 580 L 520 560 L 500 560 L 500 580 L 500 600 L 500 620 L 520 620 L 520 600 L 540 600 L 560 600 L 580 600 L 600 600 L 620 600 L 620 580 L 620 560 L 620 540 L 620 520 L 620 500 L 620 480 L 620 460 L 620 440 L 620 420 L 620 400 L 620 380 L 620 360 L 620 340 L 620 320 L 620 300 L 620 280 L 620 260 L 620 240 L 620 220 L 620 200 L 620 180 L 620 160 L 620 140 L 600 140 L 600 120 L 580 120 z M 500 620 L 480 620 L 460 620 L 440 620 L 440 640 L 460 640 L 480 640 L 500 640 L 500 620 z M 500 560 L 500 540 L 480 540 L 480 560 L 500 560 z M 480 540 L 480 520 L 460 520 L 460 540 L 480 540 z M 460 520 L 460 500 L 440 500 L 440 520 L 460 520 z M 440 500 L 440 480 L 420 480 L 420 500 L 440 500 z M 420 480 L 420 460 L 400 460 L 400 480 L 420 480 z M 400 460 L 400 440 L 380 440 L 380 460 L 400 460 z M 380 440 L 380 420 L 360 420 L 360 440 L 380 440 z M 360 420 L 360 400 L 340 400 L 340 420 L 360 420 z M 340 400 L 340 380 L 320 380 L 320 400 L 340 400 z M 320 380 L 320 360 L 300 360 L 300 380 L 320 380 z M 300 360 L 300 340 L 300 320 L 280 320 L 280 340 L 280 360 L 300 360 z M 280 360 L 260 360 L 260 380 L 280 380 L 280 360 z M 260 380 L 240 380 L 220 380 L 220 400 L 240 400 L 260 400 L 260 380 z M 220 400 L 200 400 L 180 400 L 160 400 L 140 400 L 120 400 L 100 400 L 100 420 L 120 420 L 140 420 L 160 420 L 180 420 L 200 420 L 220 420 L 220 400 z M 100 400 L 100 380 L 80 380 L 60 380 L 60 400 L 80 400 L 100 400 z M 300 320 L 320 320 L 320 300 L 320 280 L 320 260 L 320 240 L 320 220 L 300 220 L 300 240 L 300 260 L 300 280 L 300 300 L 300 320 z M 300 220 L 300 200 L 300 180 L 280 180 L 280 200 L 280 220 L 300 220 z M 280 180 L 280 160 L 260 160 L 260 180 L 280 180 z M 260 160 L 260 140 L 240 140 L 220 140 L 220 160 L 240 160 L 260 160 z M 220 140 L 220 120 L 200 120 L 200 140 L 220 140 z M 120 580 L 120 600 L 140 600 L 160 600 L 180 600 L 200 600 L 220 600 L 240 600 L 260 600 L 280 600 L 300 600 L 320 600 L 340 600 L 360 600 L 380 600 L 400 600 L 400 580 L 380 580 L 360 580 L 340 580 L 320 580 L 300 580 L 280 580 L 260 580 L 240 580 L 220 580 L 200 580 L 180 580 L 160 580 L 140 580 L 120 580 z "
     id="rect1594" />
</svg>
