<?xml version="1.0" encoding="UTF-8" standalone="no"?>
<svg
   xmlns:dc="http://purl.org/dc/elements/1.1/"
   xmlns:cc="http://creativecommons.org/ns#"
   xmlns:rdf="http://www.w3.org/1999/02/22-rdf-syntax-ns#"
   xmlns:svg="http://www.w3.org/2000/svg"
   xmlns="http://www.w3.org/2000/svg"
   id="svg1316"
   width="640px"
   version="1.1"
   height="640px">
  <metadata
     id="metadata1320">
    <rdf:RDF>
      <cc:Work
         rdf:about="">
        <dc:format>image/svg+xml</dc:format>
        <dc:type
           rdf:resource="http://purl.org/dc/dcmitype/StillImage" />
      </cc:Work>
    </rdf:RDF>
  </metadata>
  <defs
     id="defs2" />
  <path
     style="fill:#000080"
     d="M 20 140 L 20 160 L 20 180 L 20 200 L 20 220 L 20 240 L 20 260 L 20 280 L 20 300 L 20 320 L 20 340 L 20 360 L 20 380 L 20 400 L 20 420 L 20 440 L 20 460 L 20 480 L 40 480 L 60 480 L 80 480 L 100 480 L 120 480 L 140 480 L 160 480 L 160 460 L 160 440 L 160 420 L 160 400 L 160 380 L 160 360 L 160 340 L 160 320 L 160 300 L 160 280 L 160 260 L 160 240 L 160 220 L 160 200 L 160 180 L 160 160 L 160 140 L 140 140 L 120 140 L 100 140 L 80 140 L 60 140 L 40 140 L 20 140 z "
     id="rect1106" />
  <path
     style="fill:#ffffff"
     d="M 0 120 L 0 140 L 0 160 L 0 180 L 0 200 L 0 220 L 0 240 L 0 260 L 0 280 L 0 300 L 0 320 L 0 340 L 0 360 L 0 380 L 0 400 L 0 420 L 0 440 L 0 460 L 0 480 L 0 500 L 20 500 L 20 480 L 20 460 L 20 440 L 20 420 L 20 400 L 20 380 L 20 360 L 20 340 L 20 320 L 20 300 L 20 280 L 20 260 L 20 240 L 20 220 L 20 200 L 20 180 L 20 160 L 20 140 L 40 140 L 60 140 L 80 140 L 100 140 L 120 140 L 140 140 L 160 140 L 180 140 L 200 140 L 220 140 L 240 140 L 260 140 L 280 140 L 300 140 L 320 140 L 340 140 L 360 140 L 380 140 L 400 140 L 420 140 L 440 140 L 460 140 L 480 140 L 500 140 L 520 140 L 540 140 L 560 140 L 580 140 L 600 140 L 620 140 L 620 120 L 600 120 L 580 120 L 560 120 L 540 120 L 520 120 L 500 120 L 480 120 L 460 120 L 440 120 L 420 120 L 400 120 L 380 120 L 360 120 L 340 120 L 320 120 L 300 120 L 280 120 L 260 120 L 240 120 L 220 120 L 200 120 L 180 120 L 160 120 L 140 120 L 120 120 L 100 120 L 80 120 L 60 120 L 40 120 L 20 120 L 0 120 z "
     id="rect1156" />
  <path
     style="fill:#c0c0c0"
     d="M 160 140 L 160 160 L 160 180 L 160 200 L 160 220 L 160 240 L 160 260 L 160 280 L 160 300 L 160 320 L 160 340 L 160 360 L 160 380 L 160 400 L 160 420 L 160 440 L 160 460 L 160 480 L 180 480 L 200 480 L 220 480 L 240 480 L 260 480 L 280 480 L 300 480 L 320 480 L 340 480 L 360 480 L 380 480 L 400 480 L 400 500 L 420 500 L 420 520 L 440 520 L 440 540 L 460 540 L 460 560 L 480 560 L 500 560 L 500 540 L 520 540 L 520 520 L 540 520 L 540 500 L 560 500 L 560 480 L 580 480 L 600 480 L 600 460 L 600 440 L 600 420 L 600 400 L 600 380 L 600 360 L 600 340 L 600 320 L 600 300 L 600 280 L 600 260 L 600 240 L 600 220 L 600 200 L 600 180 L 600 160 L 600 140 L 580 140 L 560 140 L 540 140 L 520 140 L 500 140 L 480 140 L 460 140 L 440 140 L 420 140 L 400 140 L 380 140 L 360 140 L 340 140 L 320 140 L 300 140 L 280 140 L 260 140 L 240 140 L 220 140 L 200 140 L 180 140 L 160 140 z "
     id="rect1302" />
  <path
     style="fill:#808080"
     d="M 600 140 L 600 160 L 600 180 L 600 200 L 600 220 L 600 240 L 600 260 L 600 280 L 600 300 L 600 320 L 600 340 L 600 360 L 600 380 L 600 400 L 600 420 L 600 440 L 600 460 L 600 480 L 580 480 L 560 480 L 560 500 L 580 500 L 600 500 L 620 500 L 620 480 L 620 460 L 620 440 L 620 420 L 620 400 L 620 380 L 620 360 L 620 340 L 620 320 L 620 300 L 620 280 L 620 260 L 620 240 L 620 220 L 620 200 L 620 180 L 620 160 L 620 140 L 600 140 z M 560 500 L 540 500 L 540 520 L 560 520 L 560 500 z M 540 520 L 520 520 L 520 540 L 540 540 L 540 520 z M 520 540 L 500 540 L 500 560 L 520 560 L 520 540 z M 500 560 L 480 560 L 480 580 L 500 580 L 500 560 z M 20 480 L 20 500 L 40 500 L 60 500 L 80 500 L 100 500 L 120 500 L 140 500 L 160 500 L 180 500 L 200 500 L 220 500 L 240 500 L 260 500 L 280 500 L 300 500 L 320 500 L 340 500 L 360 500 L 380 500 L 400 500 L 400 480 L 380 480 L 360 480 L 340 480 L 320 480 L 300 480 L 280 480 L 260 480 L 240 480 L 220 480 L 200 480 L 180 480 L 160 480 L 140 480 L 120 480 L 100 480 L 80 480 L 60 480 L 40 480 L 20 480 z "
     id="rect1310" />
  <path
     style="fill:#000000"
     d="M 620 120 L 620 140 L 620 160 L 620 180 L 620 200 L 620 220 L 620 240 L 620 260 L 620 280 L 620 300 L 620 320 L 620 340 L 620 360 L 620 380 L 620 400 L 620 420 L 620 440 L 620 460 L 620 480 L 620 500 L 600 500 L 580 500 L 560 500 L 560 520 L 580 520 L 600 520 L 620 520 L 640 520 L 640 500 L 640 480 L 640 460 L 640 440 L 640 420 L 640 400 L 640 380 L 640 360 L 640 340 L 640 320 L 640 300 L 640 280 L 640 260 L 640 240 L 640 220 L 640 200 L 640 180 L 640 160 L 640 140 L 640 120 L 620 120 z M 560 520 L 540 520 L 540 540 L 560 540 L 560 520 z M 540 540 L 520 540 L 520 560 L 540 560 L 540 540 z M 520 560 L 500 560 L 500 580 L 520 580 L 520 560 z M 500 580 L 480 580 L 480 600 L 500 600 L 500 580 z M 480 580 L 480 560 L 460 560 L 460 580 L 480 580 z M 460 560 L 460 540 L 440 540 L 440 560 L 460 560 z M 440 540 L 440 520 L 420 520 L 420 540 L 440 540 z M 420 520 L 420 500 L 400 500 L 380 500 L 360 500 L 340 500 L 320 500 L 300 500 L 280 500 L 260 500 L 240 500 L 220 500 L 200 500 L 180 500 L 160 500 L 140 500 L 120 500 L 100 500 L 80 500 L 60 500 L 40 500 L 20 500 L 0 500 L 0 520 L 20 520 L 40 520 L 60 520 L 80 520 L 100 520 L 120 520 L 140 520 L 160 520 L 180 520 L 200 520 L 220 520 L 240 520 L 260 520 L 280 520 L 300 520 L 320 520 L 340 520 L 360 520 L 380 520 L 400 520 L 420 520 z "
     id="rect1314" />
</svg>
