<?xml version="1.0" encoding="UTF-8" standalone="no"?>
<svg
   xmlns:dc="http://purl.org/dc/elements/1.1/"
   xmlns:cc="http://creativecommons.org/ns#"
   xmlns:rdf="http://www.w3.org/1999/02/22-rdf-syntax-ns#"
   xmlns:svg="http://www.w3.org/2000/svg"
   xmlns="http://www.w3.org/2000/svg"
   height="640px"
   version="1.1"
   width="640px"
   id="svg1670">
  <metadata
     id="metadata1674">
    <rdf:RDF>
      <cc:Work
         rdf:about="">
        <dc:format>image/svg+xml</dc:format>
        <dc:type
           rdf:resource="http://purl.org/dc/dcmitype/StillImage" />
      </cc:Work>
    </rdf:RDF>
  </metadata>
  <defs
     id="defs2" />
  <path
     id="rect514"
     d="M 140 160 L 140 180 L 160 180 L 160 160 L 140 160 z M 140 180 L 120 180 L 120 200 L 140 200 L 140 180 z "
     style="fill:#ff00ff" />
  <path
     id="rect516"
     d="M 420 20 L 420 40 L 420 60 L 400 60 L 400 80 L 380 80 L 380 100 L 380 120 L 380 140 L 400 140 L 400 120 L 420 120 L 420 100 L 420 80 L 440 80 L 440 60 L 440 40 L 440 20 L 420 20 z M 120 160 L 120 180 L 140 180 L 140 160 L 120 160 z M 140 180 L 140 200 L 160 200 L 160 180 L 140 180 z "
     style="fill:#00ff00" />
  <path
     id="rect546"
     d="M 420 180 L 420 200 L 440 200 L 460 200 L 460 180 L 440 180 L 420 180 z "
     style="fill:#7b007b" />
  <path
     id="rect748"
     d="M 120 240 L 120 260 L 140 260 L 140 240 L 120 240 z M 140 260 L 140 280 L 160 280 L 160 260 L 140 260 z "
     style="fill:#00ffff" />
  <path
     id="rect1112"
     d="M 100 140 L 100 160 L 100 180 L 100 200 L 100 220 L 100 240 L 100 260 L 100 280 L 100 300 L 100 320 L 100 340 L 100 360 L 100 380 L 100 400 L 120 400 L 140 400 L 160 400 L 180 400 L 200 400 L 220 400 L 240 400 L 260 400 L 280 400 L 300 400 L 320 400 L 320 380 L 340 380 L 340 360 L 360 360 L 360 340 L 380 340 L 380 320 L 380 300 L 380 280 L 380 260 L 380 240 L 380 220 L 380 200 L 380 180 L 400 180 L 400 160 L 380 160 L 380 140 L 360 140 L 340 140 L 320 140 L 300 140 L 280 140 L 260 140 L 240 140 L 220 140 L 200 140 L 180 140 L 160 140 L 140 140 L 120 140 L 100 140 z M 120 160 L 140 160 L 160 160 L 160 180 L 160 200 L 140 200 L 120 200 L 120 180 L 120 160 z M 120 240 L 140 240 L 160 240 L 160 260 L 160 280 L 140 280 L 120 280 L 120 260 L 120 240 z "
     style="fill:#0000ff" />
  <path
     id="rect1168"
     d="M 460 160 L 460 180 L 480 180 L 480 160 L 460 160 z M 80 400 L 80 420 L 100 420 L 120 420 L 140 420 L 160 420 L 180 420 L 200 420 L 220 420 L 240 420 L 260 420 L 280 420 L 300 420 L 300 400 L 280 400 L 260 400 L 240 400 L 220 400 L 200 400 L 180 400 L 160 400 L 140 400 L 120 400 L 100 400 L 80 400 z "
     style="fill:#00007b" />
  <path
     id="rect1494"
     d="M 420 80 L 420 100 L 440 100 L 440 80 L 420 80 z M 400 120 L 400 140 L 420 140 L 420 120 L 400 120 z M 500 220 L 500 240 L 480 240 L 480 260 L 500 260 L 500 280 L 520 280 L 540 280 L 540 260 L 520 260 L 520 240 L 520 220 L 500 220 z M 500 280 L 480 280 L 480 260 L 460 260 L 460 280 L 440 280 L 440 300 L 420 300 L 420 320 L 400 320 L 400 340 L 420 340 L 420 360 L 440 360 L 460 360 L 460 340 L 460 320 L 480 320 L 500 320 L 500 300 L 500 280 z M 420 360 L 400 360 L 400 340 L 380 340 L 380 360 L 360 360 L 360 380 L 340 380 L 340 400 L 320 400 L 320 420 L 340 420 L 340 440 L 360 440 L 380 440 L 380 420 L 380 400 L 400 400 L 420 400 L 420 380 L 420 360 z M 340 440 L 320 440 L 320 420 L 300 420 L 300 440 L 280 440 L 280 460 L 260 460 L 260 480 L 240 480 L 240 500 L 260 500 L 260 520 L 280 520 L 300 520 L 300 500 L 300 480 L 320 480 L 340 480 L 340 460 L 340 440 z M 260 520 L 240 520 L 240 500 L 220 500 L 220 520 L 200 520 L 200 540 L 220 540 L 220 560 L 240 560 L 260 560 L 260 540 L 260 520 z "
     style="fill:#ffff00" />
  <path
     id="rect1534"
     d="M 440 100 L 440 120 L 460 120 L 460 100 L 440 100 z M 440 120 L 420 120 L 420 140 L 440 140 L 440 120 z M 440 140 L 440 160 L 460 160 L 460 140 L 440 140 z M 420 140 L 400 140 L 380 140 L 380 160 L 400 160 L 420 160 L 420 140 z M 500 200 L 500 220 L 520 220 L 520 200 L 500 200 z M 500 220 L 480 220 L 480 240 L 500 240 L 500 220 z M 480 240 L 460 240 L 460 260 L 480 260 L 480 240 z M 480 260 L 480 280 L 500 280 L 500 260 L 480 260 z M 460 260 L 440 260 L 440 280 L 460 280 L 460 260 z M 440 280 L 420 280 L 420 300 L 440 300 L 440 280 z M 420 300 L 400 300 L 400 320 L 420 320 L 420 300 z M 400 320 L 380 320 L 380 340 L 400 340 L 400 320 z M 400 340 L 400 360 L 420 360 L 420 340 L 400 340 z M 380 340 L 360 340 L 360 360 L 380 360 L 380 340 z M 360 360 L 340 360 L 340 380 L 360 380 L 360 360 z M 340 380 L 320 380 L 320 400 L 340 400 L 340 380 z M 320 400 L 300 400 L 300 420 L 320 420 L 320 400 z M 320 420 L 320 440 L 340 440 L 340 420 L 320 420 z M 300 420 L 280 420 L 280 440 L 300 440 L 300 420 z M 280 440 L 260 440 L 260 460 L 280 460 L 280 440 z M 260 460 L 240 460 L 240 480 L 260 480 L 260 460 z M 240 480 L 220 480 L 220 500 L 240 500 L 240 480 z M 240 500 L 240 520 L 260 520 L 260 500 L 240 500 z M 220 500 L 200 500 L 200 520 L 220 520 L 220 500 z M 200 520 L 180 520 L 180 540 L 200 540 L 200 520 z M 520 240 L 520 260 L 540 260 L 540 240 L 520 240 z M 540 260 L 540 280 L 560 280 L 560 260 L 540 260 z M 540 280 L 520 280 L 520 300 L 540 300 L 540 280 z M 520 300 L 500 300 L 500 320 L 520 320 L 520 300 z M 500 320 L 480 320 L 480 340 L 500 340 L 500 320 z M 480 340 L 460 340 L 460 360 L 480 360 L 480 340 z M 460 360 L 440 360 L 440 380 L 460 380 L 460 360 z M 440 380 L 420 380 L 420 400 L 440 400 L 440 380 z M 420 400 L 400 400 L 400 420 L 420 420 L 420 400 z M 400 420 L 380 420 L 380 440 L 400 440 L 400 420 z M 380 440 L 360 440 L 360 460 L 380 460 L 380 440 z M 360 460 L 340 460 L 340 480 L 360 480 L 360 460 z M 340 480 L 320 480 L 320 500 L 340 500 L 340 480 z M 320 500 L 300 500 L 300 520 L 320 520 L 320 500 z M 300 520 L 280 520 L 280 540 L 300 540 L 300 520 z M 280 540 L 260 540 L 260 560 L 280 560 L 280 540 z M 260 560 L 240 560 L 240 580 L 260 580 L 260 560 z "
     style="fill:#7b7d00" />
  <path
     id="rect1548"
     d="M 380 180 L 380 200 L 380 220 L 380 240 L 380 260 L 380 280 L 380 300 L 380 320 L 400 320 L 400 300 L 400 280 L 400 260 L 400 240 L 400 220 L 420 220 L 440 220 L 460 220 L 460 200 L 440 200 L 420 200 L 400 200 L 400 180 L 380 180 z M 380 460 L 380 480 L 380 500 L 380 520 L 380 540 L 380 560 L 380 580 L 400 580 L 400 560 L 400 540 L 400 520 L 400 500 L 400 480 L 400 460 L 380 460 z "
     style="fill:#7b0000" />
  <path
     id="rect1554"
     d="M 420 220 L 420 240 L 420 260 L 420 280 L 440 280 L 440 260 L 460 260 L 460 240 L 460 220 L 440 220 L 420 220 z M 140 240 L 140 260 L 160 260 L 160 240 L 140 240 z M 140 260 L 120 260 L 120 280 L 140 280 L 140 260 z M 440 400 L 440 420 L 420 420 L 420 440 L 420 460 L 420 480 L 420 500 L 420 520 L 420 540 L 420 560 L 400 560 L 400 580 L 420 580 L 440 580 L 460 580 L 460 560 L 460 540 L 460 520 L 460 500 L 460 480 L 460 460 L 460 440 L 460 420 L 460 400 L 440 400 z "
     style="fill:#ff0000" />
  <path
     id="rect1626"
     d="M 540 20 L 540 40 L 560 40 L 560 20 L 540 20 z M 540 40 L 520 40 L 520 60 L 540 60 L 540 40 z M 520 60 L 500 60 L 480 60 L 460 60 L 460 80 L 480 80 L 500 80 L 520 80 L 520 60 z M 60 60 L 60 80 L 80 80 L 100 80 L 120 80 L 140 80 L 160 80 L 180 80 L 200 80 L 220 80 L 240 80 L 260 80 L 280 80 L 300 80 L 320 80 L 340 80 L 360 80 L 380 80 L 400 80 L 400 60 L 380 60 L 360 60 L 340 60 L 320 60 L 300 60 L 280 60 L 260 60 L 240 60 L 220 60 L 200 60 L 180 60 L 160 60 L 140 60 L 120 60 L 100 60 L 80 60 L 60 60 z M 60 80 L 40 80 L 40 100 L 40 120 L 40 140 L 40 160 L 40 180 L 40 200 L 40 220 L 40 240 L 40 260 L 40 280 L 40 300 L 40 320 L 40 340 L 40 360 L 40 380 L 40 400 L 40 420 L 40 440 L 40 460 L 60 460 L 60 440 L 60 420 L 60 400 L 60 380 L 60 360 L 60 340 L 60 320 L 60 300 L 60 280 L 60 260 L 60 240 L 60 220 L 60 200 L 60 180 L 60 160 L 60 140 L 60 120 L 60 100 L 60 80 z M 480 100 L 480 120 L 480 140 L 480 160 L 480 180 L 480 200 L 480 220 L 500 220 L 500 200 L 500 180 L 500 160 L 500 140 L 500 120 L 500 100 L 480 100 z M 400 180 L 400 200 L 420 200 L 420 180 L 400 180 z M 400 240 L 400 260 L 400 280 L 400 300 L 420 300 L 420 280 L 420 260 L 420 240 L 400 240 z M 480 360 L 480 380 L 480 400 L 480 420 L 480 440 L 500 440 L 500 420 L 500 400 L 500 380 L 500 360 L 480 360 z M 80 420 L 80 440 L 100 440 L 120 440 L 140 440 L 160 440 L 180 440 L 200 440 L 220 440 L 240 440 L 260 440 L 280 440 L 280 420 L 260 420 L 240 420 L 220 420 L 200 420 L 180 420 L 160 420 L 140 420 L 120 420 L 100 420 L 80 420 z M 100 560 L 100 580 L 100 600 L 120 600 L 140 600 L 160 600 L 160 580 L 180 580 L 200 580 L 200 560 L 180 560 L 160 560 L 140 560 L 120 560 L 100 560 z M 160 600 L 160 620 L 180 620 L 200 620 L 220 620 L 240 620 L 260 620 L 280 620 L 300 620 L 320 620 L 340 620 L 360 620 L 360 600 L 340 600 L 320 600 L 300 600 L 280 600 L 260 600 L 240 600 L 220 600 L 200 600 L 180 600 L 160 600 z "
     style="fill:#ffffff" />
  <path
     id="rect1630"
     d="M 100 20 L 100 40 L 80 40 L 80 60 L 100 60 L 120 60 L 140 60 L 160 60 L 180 60 L 200 60 L 220 60 L 240 60 L 260 60 L 280 60 L 300 60 L 320 60 L 340 60 L 360 60 L 380 60 L 400 60 L 420 60 L 420 40 L 420 20 L 400 20 L 380 20 L 360 20 L 340 20 L 320 20 L 300 20 L 280 20 L 260 20 L 240 20 L 220 20 L 200 20 L 180 20 L 160 20 L 140 20 L 120 20 L 100 20 z M 440 20 L 440 40 L 440 60 L 460 60 L 480 60 L 500 60 L 520 60 L 520 40 L 540 40 L 540 20 L 520 20 L 500 20 L 480 20 L 460 20 L 440 20 z M 60 80 L 60 100 L 60 120 L 60 140 L 60 160 L 60 180 L 60 200 L 60 220 L 60 240 L 60 260 L 60 280 L 60 300 L 60 320 L 60 340 L 60 360 L 60 380 L 60 400 L 60 420 L 60 440 L 60 460 L 80 460 L 100 460 L 120 460 L 140 460 L 160 460 L 180 460 L 200 460 L 220 460 L 240 460 L 260 460 L 260 440 L 240 440 L 220 440 L 200 440 L 180 440 L 160 440 L 140 440 L 120 440 L 100 440 L 80 440 L 80 420 L 80 400 L 80 380 L 80 360 L 80 340 L 80 320 L 80 300 L 80 280 L 80 260 L 80 240 L 80 220 L 80 200 L 80 180 L 80 160 L 80 140 L 80 120 L 80 100 L 100 100 L 120 100 L 140 100 L 160 100 L 180 100 L 200 100 L 220 100 L 240 100 L 260 100 L 280 100 L 300 100 L 320 100 L 340 100 L 360 100 L 380 100 L 380 80 L 360 80 L 340 80 L 320 80 L 300 80 L 280 80 L 260 80 L 240 80 L 220 80 L 200 80 L 180 80 L 160 80 L 140 80 L 120 80 L 100 80 L 80 80 L 60 80 z M 460 80 L 460 100 L 480 100 L 500 100 L 500 120 L 500 140 L 500 160 L 500 180 L 500 200 L 520 200 L 520 180 L 520 160 L 520 140 L 520 120 L 520 100 L 520 80 L 500 80 L 480 80 L 460 80 z M 400 220 L 400 240 L 420 240 L 420 220 L 400 220 z M 500 340 L 500 360 L 500 380 L 500 400 L 500 420 L 500 440 L 480 440 L 480 460 L 500 460 L 520 460 L 520 440 L 520 420 L 520 400 L 520 380 L 520 360 L 520 340 L 500 340 z M 400 440 L 400 460 L 400 480 L 400 500 L 400 520 L 400 540 L 400 560 L 420 560 L 420 540 L 420 520 L 420 500 L 420 480 L 420 460 L 420 440 L 400 440 z M 320 520 L 320 540 L 300 540 L 300 560 L 280 560 L 280 580 L 260 580 L 260 600 L 280 600 L 300 600 L 320 600 L 340 600 L 360 600 L 360 620 L 380 620 L 400 620 L 400 600 L 400 580 L 380 580 L 380 560 L 380 540 L 360 540 L 360 520 L 340 520 L 320 520 z M 140 540 L 140 560 L 160 560 L 180 560 L 200 560 L 200 540 L 180 540 L 160 540 L 140 540 z M 200 560 L 200 580 L 180 580 L 160 580 L 160 600 L 180 600 L 200 600 L 220 600 L 240 600 L 240 580 L 220 580 L 220 560 L 200 560 z M 160 600 L 140 600 L 140 620 L 160 620 L 160 600 z "
     style="fill:#bdbebd" />
  <path
     id="rect1634"
     d="M 100 0 L 100 20 L 120 20 L 140 20 L 160 20 L 180 20 L 200 20 L 220 20 L 240 20 L 260 20 L 280 20 L 300 20 L 320 20 L 340 20 L 360 20 L 380 20 L 400 20 L 420 20 L 440 20 L 460 20 L 480 20 L 500 20 L 520 20 L 540 20 L 560 20 L 560 40 L 540 40 L 540 60 L 520 60 L 520 80 L 520 100 L 520 120 L 520 140 L 520 160 L 520 180 L 520 200 L 520 220 L 540 220 L 540 240 L 560 240 L 560 260 L 580 260 L 580 240 L 580 220 L 580 200 L 580 180 L 580 160 L 580 140 L 580 120 L 580 100 L 580 80 L 580 60 L 580 40 L 580 20 L 580 0 L 560 0 L 540 0 L 520 0 L 500 0 L 480 0 L 460 0 L 440 0 L 420 0 L 400 0 L 380 0 L 360 0 L 340 0 L 320 0 L 300 0 L 280 0 L 260 0 L 240 0 L 220 0 L 200 0 L 180 0 L 160 0 L 140 0 L 120 0 L 100 0 z M 100 20 L 80 20 L 80 40 L 100 40 L 100 20 z M 80 40 L 60 40 L 60 60 L 80 60 L 80 40 z M 60 60 L 40 60 L 40 80 L 60 80 L 60 60 z M 40 80 L 20 80 L 20 100 L 20 120 L 20 140 L 20 160 L 20 180 L 20 200 L 20 220 L 20 240 L 20 260 L 20 280 L 20 300 L 20 320 L 20 340 L 20 360 L 20 380 L 20 400 L 20 420 L 20 440 L 20 460 L 20 480 L 40 480 L 60 480 L 80 480 L 100 480 L 120 480 L 140 480 L 160 480 L 180 480 L 200 480 L 220 480 L 240 480 L 240 460 L 220 460 L 200 460 L 180 460 L 160 460 L 140 460 L 120 460 L 100 460 L 80 460 L 60 460 L 40 460 L 40 440 L 40 420 L 40 400 L 40 380 L 40 360 L 40 340 L 40 320 L 40 300 L 40 280 L 40 260 L 40 240 L 40 220 L 40 200 L 40 180 L 40 160 L 40 140 L 40 120 L 40 100 L 40 80 z M 80 100 L 80 120 L 100 120 L 120 120 L 140 120 L 160 120 L 180 120 L 200 120 L 220 120 L 240 120 L 260 120 L 280 120 L 300 120 L 320 120 L 340 120 L 360 120 L 380 120 L 380 100 L 360 100 L 340 100 L 320 100 L 300 100 L 280 100 L 260 100 L 240 100 L 220 100 L 200 100 L 180 100 L 160 100 L 140 100 L 120 100 L 100 100 L 80 100 z M 420 100 L 420 120 L 440 120 L 440 100 L 420 100 z M 440 120 L 440 140 L 460 140 L 460 120 L 440 120 z M 440 140 L 420 140 L 420 160 L 440 160 L 440 140 z M 560 280 L 560 300 L 540 300 L 540 320 L 520 320 L 520 340 L 520 360 L 520 380 L 520 400 L 520 420 L 520 440 L 520 460 L 500 460 L 480 460 L 480 480 L 500 480 L 520 480 L 540 480 L 540 460 L 560 460 L 560 440 L 580 440 L 580 420 L 580 400 L 580 380 L 580 360 L 580 340 L 580 320 L 580 300 L 580 280 L 560 280 z M 340 500 L 340 520 L 360 520 L 360 500 L 340 500 z M 360 520 L 360 540 L 380 540 L 380 520 L 360 520 z M 140 520 L 140 540 L 160 540 L 180 540 L 180 520 L 160 520 L 140 520 z M 140 540 L 120 540 L 100 540 L 100 560 L 120 560 L 140 560 L 140 540 z M 100 560 L 80 560 L 80 580 L 80 600 L 100 600 L 100 580 L 100 560 z M 200 540 L 200 560 L 220 560 L 220 540 L 200 540 z M 220 560 L 220 580 L 240 580 L 240 560 L 220 560 z M 240 580 L 240 600 L 260 600 L 260 580 L 240 580 z M 460 580 L 460 600 L 480 600 L 480 580 L 460 580 z M 400 600 L 400 620 L 420 620 L 440 620 L 440 600 L 420 600 L 400 600 z "
     style="fill:#7b7d7b" />
  <path
     id="rect1668"
     d="M 580 20 L 580 40 L 580 60 L 580 80 L 580 100 L 580 120 L 580 140 L 580 160 L 580 180 L 580 200 L 580 220 L 580 240 L 580 260 L 560 260 L 560 280 L 580 280 L 580 300 L 580 320 L 580 340 L 580 360 L 580 380 L 580 400 L 580 420 L 580 440 L 600 440 L 600 420 L 600 400 L 600 380 L 600 360 L 600 340 L 600 320 L 600 300 L 600 280 L 600 260 L 600 240 L 600 220 L 600 200 L 600 180 L 600 160 L 600 140 L 600 120 L 600 100 L 600 80 L 600 60 L 600 40 L 600 20 L 580 20 z M 580 440 L 560 440 L 560 460 L 580 460 L 580 440 z M 560 460 L 540 460 L 540 480 L 560 480 L 560 460 z M 540 480 L 520 480 L 500 480 L 480 480 L 480 460 L 480 440 L 480 420 L 480 400 L 480 380 L 480 360 L 460 360 L 460 380 L 440 380 L 440 400 L 460 400 L 460 420 L 460 440 L 460 460 L 460 480 L 460 500 L 460 520 L 460 540 L 460 560 L 460 580 L 480 580 L 480 600 L 500 600 L 500 580 L 500 560 L 480 560 L 480 540 L 480 520 L 480 500 L 500 500 L 520 500 L 540 500 L 540 480 z M 480 600 L 460 600 L 460 580 L 440 580 L 420 580 L 400 580 L 400 600 L 420 600 L 440 600 L 440 620 L 460 620 L 480 620 L 480 600 z M 440 620 L 420 620 L 400 620 L 380 620 L 360 620 L 340 620 L 320 620 L 300 620 L 280 620 L 260 620 L 240 620 L 220 620 L 200 620 L 180 620 L 160 620 L 140 620 L 140 640 L 160 640 L 180 640 L 200 640 L 220 640 L 240 640 L 260 640 L 280 640 L 300 640 L 320 640 L 340 640 L 360 640 L 380 640 L 400 640 L 420 640 L 440 640 L 440 620 z M 140 620 L 140 600 L 120 600 L 100 600 L 100 620 L 120 620 L 140 620 z M 440 400 L 420 400 L 420 420 L 440 420 L 440 400 z M 420 420 L 400 420 L 400 440 L 420 440 L 420 420 z M 400 440 L 380 440 L 380 460 L 400 460 L 400 440 z M 380 460 L 360 460 L 360 480 L 340 480 L 340 500 L 360 500 L 360 520 L 380 520 L 380 500 L 380 480 L 380 460 z M 340 500 L 320 500 L 320 520 L 340 520 L 340 500 z M 320 520 L 300 520 L 300 540 L 320 540 L 320 520 z M 300 540 L 280 540 L 280 560 L 300 560 L 300 540 z M 280 560 L 260 560 L 260 580 L 280 580 L 280 560 z M 280 540 L 280 520 L 260 520 L 260 540 L 280 540 z M 320 500 L 320 480 L 300 480 L 300 500 L 320 500 z M 360 460 L 360 440 L 340 440 L 340 460 L 360 460 z M 400 420 L 400 400 L 380 400 L 380 420 L 400 420 z M 440 380 L 440 360 L 420 360 L 420 380 L 440 380 z M 480 360 L 500 360 L 500 340 L 480 340 L 480 360 z M 480 340 L 480 320 L 460 320 L 460 340 L 480 340 z M 500 340 L 520 340 L 520 320 L 500 320 L 500 340 z M 520 320 L 540 320 L 540 300 L 520 300 L 520 320 z M 520 300 L 520 280 L 500 280 L 500 300 L 520 300 z M 540 300 L 560 300 L 560 280 L 540 280 L 540 300 z M 560 260 L 560 240 L 540 240 L 540 260 L 560 260 z M 540 240 L 540 220 L 520 220 L 520 240 L 540 240 z M 440 60 L 440 80 L 440 100 L 460 100 L 460 80 L 460 60 L 440 60 z M 460 100 L 460 120 L 460 140 L 460 160 L 480 160 L 480 140 L 480 120 L 480 100 L 460 100 z M 460 160 L 440 160 L 420 160 L 400 160 L 400 180 L 420 180 L 440 180 L 460 180 L 460 160 z M 460 180 L 460 200 L 460 220 L 460 240 L 480 240 L 480 220 L 480 200 L 480 180 L 460 180 z M 80 120 L 80 140 L 80 160 L 80 180 L 80 200 L 80 220 L 80 240 L 80 260 L 80 280 L 80 300 L 80 320 L 80 340 L 80 360 L 80 380 L 80 400 L 100 400 L 100 380 L 100 360 L 100 340 L 100 320 L 100 300 L 100 280 L 100 260 L 100 240 L 100 220 L 100 200 L 100 180 L 100 160 L 100 140 L 120 140 L 140 140 L 160 140 L 180 140 L 200 140 L 220 140 L 240 140 L 260 140 L 280 140 L 300 140 L 320 140 L 340 140 L 360 140 L 380 140 L 380 120 L 360 120 L 340 120 L 320 120 L 300 120 L 280 120 L 260 120 L 240 120 L 220 120 L 200 120 L 180 120 L 160 120 L 140 120 L 120 120 L 100 120 L 80 120 z M 40 480 L 40 500 L 60 500 L 80 500 L 100 500 L 120 500 L 140 500 L 160 500 L 180 500 L 200 500 L 220 500 L 220 480 L 200 480 L 180 480 L 160 480 L 140 480 L 120 480 L 100 480 L 80 480 L 60 480 L 40 480 z "
     style="fill:#000000" />
</svg>
