<?xml version="1.0" encoding="UTF-8" standalone="no"?>
<svg
   xmlns:dc="http://purl.org/dc/elements/1.1/"
   xmlns:cc="http://creativecommons.org/ns#"
   xmlns:rdf="http://www.w3.org/1999/02/22-rdf-syntax-ns#"
   xmlns:svg="http://www.w3.org/2000/svg"
   xmlns="http://www.w3.org/2000/svg"
   id="svg1860"
   width="640px"
   version="1.1"
   height="640px">
  <metadata
     id="metadata1864">
    <rdf:RDF>
      <cc:Work
         rdf:about="">
        <dc:format>image/svg+xml</dc:format>
        <dc:type
           rdf:resource="http://purl.org/dc/dcmitype/StillImage" />
      </cc:Work>
    </rdf:RDF>
  </metadata>
  <defs
     id="defs2" />
  <path
     style="fill:#000080"
     d="M 40 60 L 40 80 L 40 100 L 40 120 L 40 140 L 60 140 L 80 140 L 100 140 L 120 140 L 140 140 L 160 140 L 180 140 L 200 140 L 220 140 L 240 140 L 260 140 L 280 140 L 300 140 L 320 140 L 340 140 L 360 140 L 380 140 L 400 140 L 420 140 L 420 120 L 420 100 L 420 80 L 440 80 L 460 80 L 480 80 L 500 80 L 520 80 L 540 80 L 560 80 L 580 80 L 600 80 L 600 60 L 580 60 L 560 60 L 540 60 L 520 60 L 500 60 L 480 60 L 460 60 L 440 60 L 420 60 L 400 60 L 380 60 L 360 60 L 340 60 L 320 60 L 300 60 L 280 60 L 260 60 L 240 60 L 220 60 L 200 60 L 180 60 L 160 60 L 140 60 L 120 60 L 100 60 L 80 60 L 60 60 L 40 60 z "
     id="rect364" />
  <path
     style="fill:#ffffff"
     d="M 60 180 L 60 200 L 60 220 L 60 240 L 60 260 L 60 280 L 60 300 L 60 320 L 60 340 L 60 360 L 60 380 L 60 400 L 60 420 L 60 440 L 60 460 L 60 480 L 60 500 L 60 520 L 60 540 L 80 540 L 100 540 L 120 540 L 140 540 L 160 540 L 180 540 L 200 540 L 220 540 L 240 540 L 260 540 L 280 540 L 300 540 L 320 540 L 340 540 L 360 540 L 380 540 L 400 540 L 420 540 L 440 540 L 460 540 L 480 540 L 500 540 L 520 540 L 540 540 L 560 540 L 580 540 L 580 520 L 580 500 L 580 480 L 580 460 L 580 440 L 580 420 L 580 400 L 580 380 L 580 360 L 580 340 L 580 320 L 580 300 L 580 280 L 580 260 L 580 240 L 580 220 L 580 200 L 580 180 L 560 180 L 540 180 L 520 180 L 500 180 L 480 180 L 460 180 L 440 180 L 420 180 L 400 180 L 380 180 L 360 180 L 340 180 L 320 180 L 300 180 L 280 180 L 260 180 L 240 180 L 220 180 L 200 180 L 180 180 L 160 180 L 140 180 L 120 180 L 100 180 L 80 180 L 60 180 z "
     id="rect1660" />
  <path
     style="fill:#c0c0c0"
     d="M 20 40 L 20 60 L 20 80 L 20 100 L 20 120 L 20 140 L 20 160 L 20 180 L 20 200 L 20 220 L 20 240 L 20 260 L 20 280 L 20 300 L 20 320 L 20 340 L 20 360 L 20 380 L 20 400 L 20 420 L 20 440 L 20 460 L 20 480 L 20 500 L 20 520 L 20 540 L 20 560 L 40 560 L 60 560 L 80 560 L 100 560 L 120 560 L 140 560 L 160 560 L 180 560 L 200 560 L 220 560 L 240 560 L 260 560 L 280 560 L 300 560 L 320 560 L 340 560 L 360 560 L 380 560 L 400 560 L 420 560 L 440 560 L 460 560 L 480 560 L 500 560 L 520 560 L 540 560 L 560 560 L 580 560 L 600 560 L 600 540 L 600 520 L 600 500 L 600 480 L 600 460 L 600 440 L 600 420 L 600 400 L 600 380 L 600 360 L 600 340 L 600 320 L 600 300 L 600 280 L 600 260 L 600 240 L 600 220 L 600 200 L 600 180 L 600 160 L 600 140 L 580 140 L 560 140 L 540 140 L 520 140 L 500 140 L 480 140 L 460 140 L 440 140 L 420 140 L 400 140 L 380 140 L 360 140 L 340 140 L 320 140 L 300 140 L 280 140 L 260 140 L 240 140 L 220 140 L 200 140 L 180 140 L 160 140 L 140 140 L 120 140 L 100 140 L 80 140 L 60 140 L 40 140 L 40 120 L 40 100 L 40 80 L 40 60 L 60 60 L 80 60 L 100 60 L 120 60 L 140 60 L 160 60 L 180 60 L 200 60 L 220 60 L 240 60 L 260 60 L 280 60 L 300 60 L 320 60 L 340 60 L 360 60 L 380 60 L 400 60 L 420 60 L 440 60 L 460 60 L 480 60 L 500 60 L 520 60 L 540 60 L 560 60 L 580 60 L 600 60 L 600 40 L 580 40 L 560 40 L 540 40 L 520 40 L 500 40 L 480 40 L 460 40 L 440 40 L 420 40 L 400 40 L 380 40 L 360 40 L 340 40 L 320 40 L 300 40 L 280 40 L 260 40 L 240 40 L 220 40 L 200 40 L 180 40 L 160 40 L 140 40 L 120 40 L 100 40 L 80 40 L 60 40 L 40 40 L 20 40 z M 420 80 L 420 100 L 420 120 L 440 120 L 460 120 L 460 100 L 460 80 L 440 80 L 420 80 z M 480 80 L 480 100 L 480 120 L 500 120 L 520 120 L 520 100 L 520 80 L 500 80 L 480 80 z M 540 80 L 540 100 L 540 120 L 560 120 L 580 120 L 580 100 L 580 80 L 560 80 L 540 80 z M 40 160 L 60 160 L 80 160 L 100 160 L 120 160 L 140 160 L 160 160 L 180 160 L 200 160 L 220 160 L 240 160 L 260 160 L 280 160 L 300 160 L 320 160 L 340 160 L 360 160 L 380 160 L 400 160 L 420 160 L 440 160 L 460 160 L 480 160 L 500 160 L 520 160 L 540 160 L 560 160 L 580 160 L 580 180 L 580 200 L 580 220 L 580 240 L 580 260 L 580 280 L 580 300 L 580 320 L 580 340 L 580 360 L 580 380 L 580 400 L 580 420 L 580 440 L 580 460 L 580 480 L 580 500 L 580 520 L 580 540 L 560 540 L 540 540 L 520 540 L 500 540 L 480 540 L 460 540 L 440 540 L 420 540 L 400 540 L 380 540 L 360 540 L 340 540 L 320 540 L 300 540 L 280 540 L 260 540 L 240 540 L 220 540 L 200 540 L 180 540 L 160 540 L 140 540 L 120 540 L 100 540 L 80 540 L 60 540 L 40 540 L 40 520 L 40 500 L 40 480 L 40 460 L 40 440 L 40 420 L 40 400 L 40 380 L 40 360 L 40 340 L 40 320 L 40 300 L 40 280 L 40 260 L 40 240 L 40 220 L 40 200 L 40 180 L 40 160 z "
     id="rect1726" />
  <path
     style="fill:#808080"
     d="M 0 20 L 0 40 L 0 60 L 0 80 L 0 100 L 0 120 L 0 140 L 0 160 L 0 180 L 0 200 L 0 220 L 0 240 L 0 260 L 0 280 L 0 300 L 0 320 L 0 340 L 0 360 L 0 380 L 0 400 L 0 420 L 0 440 L 0 460 L 0 480 L 0 500 L 0 520 L 0 540 L 0 560 L 0 580 L 20 580 L 40 580 L 60 580 L 80 580 L 100 580 L 120 580 L 140 580 L 160 580 L 180 580 L 200 580 L 220 580 L 240 580 L 260 580 L 280 580 L 300 580 L 320 580 L 340 580 L 360 580 L 380 580 L 400 580 L 420 580 L 440 580 L 460 580 L 480 580 L 500 580 L 520 580 L 540 580 L 560 580 L 580 580 L 600 580 L 620 580 L 620 560 L 620 540 L 620 520 L 620 500 L 620 480 L 620 460 L 620 440 L 620 420 L 620 400 L 620 380 L 620 360 L 620 340 L 620 320 L 620 300 L 620 280 L 620 260 L 620 240 L 620 220 L 620 200 L 620 180 L 620 160 L 620 140 L 620 120 L 620 100 L 620 80 L 620 60 L 620 40 L 620 20 L 600 20 L 580 20 L 560 20 L 540 20 L 520 20 L 500 20 L 480 20 L 460 20 L 440 20 L 420 20 L 400 20 L 380 20 L 360 20 L 340 20 L 320 20 L 300 20 L 280 20 L 260 20 L 240 20 L 220 20 L 200 20 L 180 20 L 160 20 L 140 20 L 120 20 L 100 20 L 80 20 L 60 20 L 40 20 L 20 20 L 0 20 z M 20 40 L 40 40 L 60 40 L 80 40 L 100 40 L 120 40 L 140 40 L 160 40 L 180 40 L 200 40 L 220 40 L 240 40 L 260 40 L 280 40 L 300 40 L 320 40 L 340 40 L 360 40 L 380 40 L 400 40 L 420 40 L 440 40 L 460 40 L 480 40 L 500 40 L 520 40 L 540 40 L 560 40 L 580 40 L 600 40 L 600 60 L 600 80 L 600 100 L 600 120 L 600 140 L 600 160 L 600 180 L 600 200 L 600 220 L 600 240 L 600 260 L 600 280 L 600 300 L 600 320 L 600 340 L 600 360 L 600 380 L 600 400 L 600 420 L 600 440 L 600 460 L 600 480 L 600 500 L 600 520 L 600 540 L 600 560 L 580 560 L 560 560 L 540 560 L 520 560 L 500 560 L 480 560 L 460 560 L 440 560 L 420 560 L 400 560 L 380 560 L 360 560 L 340 560 L 320 560 L 300 560 L 280 560 L 260 560 L 240 560 L 220 560 L 200 560 L 180 560 L 160 560 L 140 560 L 120 560 L 100 560 L 80 560 L 60 560 L 40 560 L 20 560 L 20 540 L 20 520 L 20 500 L 20 480 L 20 460 L 20 440 L 20 420 L 20 400 L 20 380 L 20 360 L 20 340 L 20 320 L 20 300 L 20 280 L 20 260 L 20 240 L 20 220 L 20 200 L 20 180 L 20 160 L 20 140 L 20 120 L 20 100 L 20 80 L 20 60 L 20 40 z M 40 160 L 40 180 L 40 200 L 40 220 L 40 240 L 40 260 L 40 280 L 40 300 L 40 320 L 40 340 L 40 360 L 40 380 L 40 400 L 40 420 L 40 440 L 40 460 L 40 480 L 40 500 L 40 520 L 40 540 L 60 540 L 60 520 L 60 500 L 60 480 L 60 460 L 60 440 L 60 420 L 60 400 L 60 380 L 60 360 L 60 340 L 60 320 L 60 300 L 60 280 L 60 260 L 60 240 L 60 220 L 60 200 L 60 180 L 80 180 L 100 180 L 120 180 L 140 180 L 160 180 L 180 180 L 200 180 L 220 180 L 240 180 L 260 180 L 280 180 L 300 180 L 320 180 L 340 180 L 360 180 L 380 180 L 400 180 L 420 180 L 440 180 L 460 180 L 480 180 L 500 180 L 520 180 L 540 180 L 560 180 L 580 180 L 580 160 L 560 160 L 540 160 L 520 160 L 500 160 L 480 160 L 460 160 L 440 160 L 420 160 L 400 160 L 380 160 L 360 160 L 340 160 L 320 160 L 300 160 L 280 160 L 260 160 L 240 160 L 220 160 L 200 160 L 180 160 L 160 160 L 140 160 L 120 160 L 100 160 L 80 160 L 60 160 L 40 160 z "
     id="rect1792" />
  <path
     style="fill:#000000"
     d="M 620 20 L 620 40 L 620 60 L 620 80 L 620 100 L 620 120 L 620 140 L 620 160 L 620 180 L 620 200 L 620 220 L 620 240 L 620 260 L 620 280 L 620 300 L 620 320 L 620 340 L 620 360 L 620 380 L 620 400 L 620 420 L 620 440 L 620 460 L 620 480 L 620 500 L 620 520 L 620 540 L 620 560 L 620 580 L 600 580 L 580 580 L 560 580 L 540 580 L 520 580 L 500 580 L 480 580 L 460 580 L 440 580 L 420 580 L 400 580 L 380 580 L 360 580 L 340 580 L 320 580 L 300 580 L 280 580 L 260 580 L 240 580 L 220 580 L 200 580 L 180 580 L 160 580 L 140 580 L 120 580 L 100 580 L 80 580 L 60 580 L 40 580 L 20 580 L 0 580 L 0 600 L 20 600 L 40 600 L 60 600 L 80 600 L 100 600 L 120 600 L 140 600 L 160 600 L 180 600 L 200 600 L 220 600 L 240 600 L 260 600 L 280 600 L 300 600 L 320 600 L 340 600 L 360 600 L 380 600 L 400 600 L 420 600 L 440 600 L 460 600 L 480 600 L 500 600 L 520 600 L 540 600 L 560 600 L 580 600 L 600 600 L 620 600 L 640 600 L 640 580 L 640 560 L 640 540 L 640 520 L 640 500 L 640 480 L 640 460 L 640 440 L 640 420 L 640 400 L 640 380 L 640 360 L 640 340 L 640 320 L 640 300 L 640 280 L 640 260 L 640 240 L 640 220 L 640 200 L 640 180 L 640 160 L 640 140 L 640 120 L 640 100 L 640 80 L 640 60 L 640 40 L 640 20 L 620 20 z M 460 80 L 460 100 L 460 120 L 440 120 L 420 120 L 420 140 L 440 140 L 460 140 L 480 140 L 500 140 L 520 140 L 540 140 L 560 140 L 580 140 L 600 140 L 600 120 L 600 100 L 600 80 L 580 80 L 580 100 L 580 120 L 560 120 L 540 120 L 540 100 L 540 80 L 520 80 L 520 100 L 520 120 L 500 120 L 480 120 L 480 100 L 480 80 L 460 80 z "
     id="rect1858" />
</svg>
