<?xml version="1.0" encoding="UTF-8" standalone="no"?>
<svg
   xmlns:dc="http://purl.org/dc/elements/1.1/"
   xmlns:cc="http://creativecommons.org/ns#"
   xmlns:rdf="http://www.w3.org/1999/02/22-rdf-syntax-ns#"
   xmlns:svg="http://www.w3.org/2000/svg"
   xmlns="http://www.w3.org/2000/svg"
   id="svg3806"
   width="960px"
   version="1.1"
   height="960px">
  <metadata
     id="metadata3810">
    <rdf:RDF>
      <cc:Work
         rdf:about="">
        <dc:format>image/svg+xml</dc:format>
        <dc:type
           rdf:resource="http://purl.org/dc/dcmitype/StillImage" />
      </cc:Work>
    </rdf:RDF>
  </metadata>
  <defs
     id="defs2" />
  <path
     style="fill:#0000ff"
     d="M 120 200 L 120 220 L 140 220 L 140 200 L 120 200 z M 140 260 L 140 280 L 160 280 L 160 260 L 140 260 z M 160 280 L 160 300 L 180 300 L 180 280 L 160 280 z M 180 280 L 200 280 L 200 260 L 180 260 L 180 280 z M 200 280 L 200 300 L 220 300 L 220 280 L 200 280 z M 220 300 L 220 320 L 240 320 L 240 300 L 220 300 z M 240 320 L 240 340 L 220 340 L 220 360 L 200 360 L 200 380 L 180 380 L 180 400 L 200 400 L 220 400 L 220 380 L 240 380 L 240 360 L 260 360 L 260 340 L 260 320 L 240 320 z M 260 320 L 280 320 L 280 340 L 280 360 L 300 360 L 300 340 L 320 340 L 320 320 L 300 320 L 300 300 L 280 300 L 260 300 L 260 320 z M 320 320 L 340 320 L 340 300 L 320 300 L 320 320 z M 340 320 L 340 340 L 360 340 L 360 320 L 340 320 z M 280 360 L 260 360 L 260 380 L 280 380 L 280 360 z M 180 400 L 160 400 L 160 420 L 180 420 L 180 400 z M 160 420 L 140 420 L 140 440 L 160 440 L 160 420 z M 140 420 L 140 400 L 120 400 L 120 420 L 140 420 z M 140 400 L 160 400 L 160 380 L 140 380 L 140 400 z M 160 380 L 180 380 L 180 360 L 160 360 L 160 380 z M 160 360 L 160 340 L 140 340 L 140 360 L 160 360 z M 160 340 L 180 340 L 180 320 L 160 320 L 160 340 z M 160 320 L 160 300 L 140 300 L 140 320 L 160 320 z M 180 320 L 200 320 L 200 300 L 180 300 L 180 320 z M 200 320 L 200 340 L 220 340 L 220 320 L 200 320 z M 200 340 L 180 340 L 180 360 L 200 360 L 200 340 z "
     id="rect1746" />
  <path
     style="fill:#000080"
     d="M 160 220 L 160 240 L 180 240 L 180 220 L 160 220 z M 200 240 L 200 260 L 220 260 L 220 240 L 200 240 z M 240 260 L 240 280 L 260 280 L 260 260 L 240 260 z M 280 280 L 280 300 L 300 300 L 300 280 L 280 280 z M 300 300 L 300 320 L 320 320 L 320 300 L 300 300 z M 320 320 L 320 340 L 340 340 L 340 320 L 320 320 z M 340 320 L 360 320 L 360 300 L 340 300 L 340 320 z M 320 340 L 300 340 L 300 360 L 320 360 L 320 340 z M 260 340 L 260 360 L 280 360 L 280 340 L 260 340 z M 260 360 L 240 360 L 240 380 L 260 380 L 260 360 z M 240 380 L 220 380 L 220 400 L 240 400 L 240 380 z M 220 400 L 200 400 L 200 420 L 220 420 L 220 400 z M 120 420 L 120 440 L 140 440 L 140 420 L 120 420 z M 160 420 L 160 440 L 180 440 L 180 420 L 160 420 z "
     id="rect1748" />
  <path
     style="fill:#800080"
     d="M 120 180 L 120 200 L 140 200 L 140 180 L 120 180 z M 140 200 L 140 220 L 140 240 L 160 240 L 160 220 L 160 200 L 140 200 z M 160 240 L 160 260 L 180 260 L 200 260 L 200 240 L 180 240 L 160 240 z M 220 260 L 220 280 L 240 280 L 240 260 L 220 260 z M 240 280 L 240 300 L 260 300 L 280 300 L 280 280 L 260 280 L 240 280 z M 280 360 L 280 380 L 300 380 L 300 360 L 280 360 z M 240 380 L 240 400 L 260 400 L 260 380 L 240 380 z M 180 400 L 180 420 L 200 420 L 200 400 L 180 400 z M 120 440 L 120 460 L 140 460 L 140 440 L 120 440 z "
     id="rect1840" />
  <path
     style="fill:#ffff00"
     d="M 20 140 L 20 160 L 20 180 L 20 200 L 20 220 L 20 240 L 20 260 L 20 280 L 20 300 L 20 320 L 20 340 L 20 360 L 20 380 L 20 400 L 20 420 L 20 440 L 20 460 L 20 480 L 20 500 L 40 500 L 60 500 L 80 500 L 100 500 L 120 500 L 140 500 L 160 500 L 180 500 L 200 500 L 220 500 L 240 500 L 260 500 L 280 500 L 300 500 L 320 500 L 340 500 L 360 500 L 380 500 L 380 480 L 380 460 L 380 440 L 380 420 L 380 400 L 380 380 L 380 360 L 360 360 L 360 380 L 340 380 L 340 400 L 340 420 L 340 440 L 340 460 L 320 460 L 300 460 L 280 460 L 260 460 L 240 460 L 220 460 L 200 460 L 200 480 L 180 480 L 160 480 L 140 480 L 120 480 L 120 460 L 100 460 L 80 460 L 60 460 L 60 440 L 60 420 L 60 400 L 60 380 L 60 360 L 60 340 L 60 320 L 60 300 L 60 280 L 60 260 L 60 240 L 60 220 L 60 200 L 60 180 L 80 180 L 100 180 L 120 180 L 140 180 L 160 180 L 180 180 L 200 180 L 220 180 L 240 180 L 260 180 L 280 180 L 300 180 L 320 180 L 340 180 L 340 200 L 340 220 L 340 240 L 340 260 L 340 280 L 340 300 L 360 300 L 380 300 L 380 280 L 380 260 L 380 240 L 380 220 L 380 200 L 380 180 L 380 160 L 380 140 L 360 140 L 340 140 L 320 140 L 300 140 L 280 140 L 260 140 L 240 140 L 220 140 L 200 140 L 180 140 L 160 140 L 140 140 L 120 140 L 100 140 L 80 140 L 60 140 L 40 140 L 20 140 z "
     id="rect2056" />
  <path
     style="fill:#808000"
     d="M 380 120 L 380 140 L 380 160 L 380 180 L 380 200 L 380 220 L 380 240 L 380 260 L 380 280 L 380 300 L 360 300 L 360 320 L 360 340 L 340 340 L 340 360 L 340 380 L 360 380 L 360 360 L 380 360 L 380 380 L 380 400 L 380 420 L 380 440 L 380 460 L 380 480 L 380 500 L 360 500 L 340 500 L 320 500 L 300 500 L 280 500 L 260 500 L 240 500 L 220 500 L 200 500 L 180 500 L 160 500 L 140 500 L 120 500 L 100 500 L 80 500 L 60 500 L 40 500 L 20 500 L 20 520 L 40 520 L 60 520 L 80 520 L 100 520 L 120 520 L 140 520 L 160 520 L 180 520 L 200 520 L 220 520 L 240 520 L 260 520 L 280 520 L 300 520 L 320 520 L 340 520 L 360 520 L 380 520 L 400 520 L 400 500 L 400 480 L 400 460 L 400 440 L 400 420 L 400 400 L 400 380 L 400 360 L 400 340 L 400 320 L 400 300 L 400 280 L 400 260 L 400 240 L 400 220 L 400 200 L 400 180 L 400 160 L 400 140 L 400 120 L 380 120 z M 60 180 L 60 200 L 60 220 L 60 240 L 60 260 L 60 280 L 60 300 L 60 320 L 60 340 L 60 360 L 60 380 L 60 400 L 60 420 L 60 440 L 80 440 L 80 420 L 80 400 L 80 380 L 80 360 L 80 340 L 80 320 L 80 300 L 80 280 L 80 260 L 80 240 L 80 220 L 80 200 L 100 200 L 120 200 L 120 180 L 100 180 L 80 180 L 60 180 z M 140 180 L 140 200 L 160 200 L 180 200 L 200 200 L 220 200 L 240 200 L 260 200 L 280 200 L 300 200 L 320 200 L 340 200 L 340 180 L 320 180 L 300 180 L 280 180 L 260 180 L 240 180 L 220 180 L 200 180 L 180 180 L 160 180 L 140 180 z M 120 460 L 120 480 L 140 480 L 140 460 L 120 460 z "
     id="rect2154" />
  <path
     style="fill:#ffffff"
     d="M 220 40 L 220 60 L 220 80 L 220 100 L 220 120 L 240 120 L 260 120 L 280 120 L 300 120 L 320 120 L 340 120 L 360 120 L 380 120 L 400 120 L 420 120 L 420 140 L 420 160 L 420 180 L 420 200 L 420 220 L 420 240 L 440 240 L 440 220 L 460 220 L 480 220 L 480 200 L 500 200 L 520 200 L 520 180 L 540 180 L 540 160 L 560 160 L 580 160 L 600 160 L 620 160 L 620 180 L 640 180 L 640 200 L 640 220 L 660 220 L 660 240 L 680 240 L 680 260 L 700 260 L 700 280 L 720 280 L 740 280 L 740 260 L 760 260 L 780 260 L 780 280 L 780 300 L 780 320 L 780 340 L 780 360 L 760 360 L 740 360 L 740 380 L 720 380 L 720 400 L 700 400 L 680 400 L 680 420 L 660 420 L 640 420 L 620 420 L 600 420 L 580 420 L 560 420 L 560 440 L 560 460 L 580 460 L 580 480 L 580 500 L 600 500 L 600 520 L 600 540 L 620 540 L 620 560 L 620 580 L 640 580 L 640 600 L 640 620 L 660 620 L 660 640 L 660 660 L 640 660 L 640 680 L 620 680 L 620 700 L 600 700 L 580 700 L 580 720 L 560 720 L 540 720 L 540 740 L 520 740 L 500 740 L 500 760 L 480 760 L 480 780 L 460 780 L 440 780 L 440 800 L 420 800 L 420 820 L 400 820 L 380 820 L 380 800 L 360 800 L 360 780 L 360 760 L 340 760 L 340 740 L 340 720 L 320 720 L 320 700 L 320 680 L 300 680 L 300 660 L 300 640 L 300 620 L 280 620 L 280 600 L 280 580 L 280 560 L 260 560 L 260 540 L 240 540 L 220 540 L 220 560 L 220 580 L 220 600 L 220 620 L 220 640 L 220 660 L 220 680 L 220 700 L 220 720 L 220 740 L 220 760 L 220 780 L 220 800 L 220 820 L 220 840 L 220 860 L 220 880 L 240 880 L 260 880 L 280 880 L 300 880 L 320 880 L 340 880 L 360 880 L 380 880 L 400 880 L 420 880 L 440 880 L 460 880 L 480 880 L 500 880 L 520 880 L 540 880 L 560 880 L 580 880 L 600 880 L 620 880 L 640 880 L 660 880 L 680 880 L 700 880 L 720 880 L 740 880 L 760 880 L 780 880 L 800 880 L 820 880 L 840 880 L 860 880 L 880 880 L 900 880 L 900 860 L 900 840 L 900 820 L 900 800 L 900 780 L 900 760 L 900 740 L 900 720 L 900 700 L 900 680 L 900 660 L 900 640 L 900 620 L 900 600 L 900 580 L 900 560 L 900 540 L 900 520 L 900 500 L 900 480 L 900 460 L 900 440 L 900 420 L 900 400 L 900 380 L 900 360 L 900 340 L 900 320 L 900 300 L 900 280 L 900 260 L 900 240 L 900 220 L 880 220 L 860 220 L 840 220 L 820 220 L 800 220 L 780 220 L 760 220 L 740 220 L 740 200 L 740 180 L 740 160 L 740 140 L 740 120 L 740 100 L 740 80 L 740 60 L 740 40 L 720 40 L 700 40 L 680 40 L 660 40 L 640 40 L 620 40 L 600 40 L 580 40 L 560 40 L 540 40 L 520 40 L 500 40 L 480 40 L 460 40 L 440 40 L 420 40 L 400 40 L 380 40 L 360 40 L 340 40 L 320 40 L 300 40 L 280 40 L 260 40 L 240 40 L 220 40 z M 420 800 L 420 780 L 440 780 L 440 760 L 420 760 L 400 760 L 400 780 L 400 800 L 420 800 z M 760 100 L 760 120 L 760 140 L 760 160 L 760 180 L 780 180 L 800 180 L 820 180 L 840 180 L 840 160 L 820 160 L 820 140 L 800 140 L 800 120 L 780 120 L 780 100 L 760 100 z M 580 180 L 580 200 L 600 200 L 600 180 L 580 180 z M 600 200 L 600 220 L 600 240 L 620 240 L 620 220 L 620 200 L 600 200 z M 620 240 L 620 260 L 640 260 L 640 240 L 620 240 z M 80 200 L 80 220 L 80 240 L 80 260 L 80 280 L 80 300 L 80 320 L 80 340 L 80 360 L 80 380 L 80 400 L 80 420 L 80 440 L 100 440 L 100 420 L 100 400 L 100 380 L 100 360 L 100 340 L 100 320 L 100 300 L 100 280 L 100 260 L 100 240 L 100 220 L 100 200 L 80 200 z M 180 200 L 180 220 L 200 220 L 220 220 L 220 240 L 240 240 L 260 240 L 260 260 L 280 260 L 300 260 L 300 280 L 320 280 L 320 260 L 320 240 L 320 220 L 320 200 L 300 200 L 280 200 L 260 200 L 240 200 L 220 200 L 200 200 L 180 200 z M 480 260 L 480 280 L 480 300 L 500 300 L 500 280 L 500 260 L 480 260 z M 640 280 L 640 300 L 660 300 L 660 280 L 640 280 z M 660 300 L 660 320 L 680 320 L 680 300 L 660 300 z M 680 320 L 680 340 L 700 340 L 700 320 L 680 320 z M 480 320 L 480 340 L 460 340 L 460 360 L 480 360 L 500 360 L 500 340 L 500 320 L 480 320 z M 480 380 L 480 400 L 480 420 L 500 420 L 500 400 L 520 400 L 520 380 L 500 380 L 480 380 z M 300 400 L 300 420 L 280 420 L 260 420 L 260 440 L 280 440 L 300 440 L 320 440 L 320 420 L 320 400 L 300 400 z M 500 440 L 500 460 L 480 460 L 480 480 L 500 480 L 520 480 L 520 460 L 520 440 L 500 440 z M 800 460 L 820 460 L 840 460 L 860 460 L 880 460 L 880 480 L 880 500 L 880 520 L 880 540 L 880 560 L 880 580 L 880 600 L 880 620 L 880 640 L 880 660 L 880 680 L 880 700 L 880 720 L 880 740 L 860 740 L 860 760 L 840 760 L 840 780 L 820 780 L 800 780 L 800 800 L 780 800 L 780 780 L 760 780 L 740 780 L 740 760 L 740 740 L 740 720 L 720 720 L 720 740 L 720 760 L 720 780 L 700 780 L 700 800 L 680 800 L 680 820 L 660 820 L 640 820 L 620 820 L 620 800 L 600 800 L 600 780 L 600 760 L 620 760 L 620 740 L 640 740 L 640 720 L 660 720 L 680 720 L 700 720 L 700 700 L 700 680 L 700 660 L 700 640 L 700 620 L 700 600 L 700 580 L 700 560 L 700 540 L 700 520 L 700 500 L 720 500 L 740 500 L 740 480 L 760 480 L 780 480 L 800 480 L 800 460 z M 740 720 L 760 720 L 760 700 L 780 700 L 780 680 L 800 680 L 820 680 L 840 680 L 840 660 L 840 640 L 840 620 L 840 600 L 840 580 L 840 560 L 840 540 L 840 520 L 820 520 L 800 520 L 780 520 L 760 520 L 760 540 L 740 540 L 740 560 L 740 580 L 740 600 L 740 620 L 740 640 L 740 660 L 740 680 L 740 700 L 740 720 z M 520 500 L 520 520 L 500 520 L 500 540 L 520 540 L 540 540 L 540 520 L 560 520 L 560 500 L 540 500 L 520 500 z M 320 560 L 320 580 L 320 600 L 340 600 L 340 580 L 340 560 L 320 560 z M 540 560 L 540 580 L 540 600 L 540 620 L 560 620 L 560 600 L 580 600 L 580 580 L 580 560 L 560 560 L 540 560 z M 340 620 L 340 640 L 340 660 L 360 660 L 360 640 L 380 640 L 380 620 L 360 620 L 340 620 z M 580 640 L 580 660 L 580 680 L 600 680 L 600 660 L 620 660 L 620 640 L 600 640 L 580 640 z M 360 680 L 360 700 L 360 720 L 360 740 L 380 740 L 380 720 L 400 720 L 400 700 L 400 680 L 380 680 L 360 680 z "
     id="rect3572" />
  <path
     style="fill:#808080"
     d="M 200 20 L 200 40 L 200 60 L 200 80 L 200 100 L 200 120 L 220 120 L 220 100 L 220 80 L 220 60 L 220 40 L 240 40 L 260 40 L 280 40 L 300 40 L 320 40 L 340 40 L 360 40 L 380 40 L 400 40 L 420 40 L 440 40 L 460 40 L 480 40 L 500 40 L 520 40 L 540 40 L 560 40 L 580 40 L 600 40 L 620 40 L 640 40 L 660 40 L 680 40 L 700 40 L 720 40 L 740 40 L 740 60 L 740 80 L 740 100 L 740 120 L 740 140 L 740 160 L 740 180 L 740 200 L 760 200 L 780 200 L 800 200 L 820 200 L 840 200 L 860 200 L 880 200 L 900 200 L 920 200 L 920 180 L 900 180 L 900 160 L 880 160 L 880 180 L 860 180 L 840 180 L 820 180 L 800 180 L 780 180 L 760 180 L 760 160 L 760 140 L 760 120 L 760 100 L 760 80 L 760 60 L 780 60 L 780 40 L 760 40 L 760 20 L 740 20 L 720 20 L 700 20 L 680 20 L 660 20 L 640 20 L 620 20 L 600 20 L 580 20 L 560 20 L 540 20 L 520 20 L 500 20 L 480 20 L 460 20 L 440 20 L 420 20 L 400 20 L 380 20 L 360 20 L 340 20 L 320 20 L 300 20 L 280 20 L 260 20 L 240 20 L 220 20 L 200 20 z M 780 60 L 780 80 L 800 80 L 800 60 L 780 60 z M 800 80 L 800 100 L 820 100 L 820 80 L 800 80 z M 820 100 L 820 120 L 840 120 L 840 100 L 820 100 z M 840 120 L 840 140 L 860 140 L 860 120 L 840 120 z M 860 140 L 860 160 L 880 160 L 880 140 L 860 140 z M 400 120 L 400 140 L 400 160 L 400 180 L 400 200 L 400 220 L 400 240 L 400 260 L 400 280 L 400 300 L 400 320 L 400 340 L 400 360 L 400 380 L 400 400 L 400 420 L 400 440 L 400 460 L 400 480 L 400 500 L 400 520 L 420 520 L 420 500 L 420 480 L 420 460 L 420 440 L 420 420 L 420 400 L 420 380 L 420 360 L 420 340 L 420 320 L 420 300 L 420 280 L 420 260 L 420 240 L 420 220 L 420 200 L 420 180 L 420 160 L 420 140 L 420 120 L 400 120 z M 400 520 L 380 520 L 360 520 L 340 520 L 320 520 L 300 520 L 280 520 L 260 520 L 240 520 L 220 520 L 200 520 L 200 540 L 200 560 L 200 580 L 200 600 L 200 620 L 200 640 L 200 660 L 200 680 L 200 700 L 200 720 L 200 740 L 200 760 L 200 780 L 200 800 L 200 820 L 200 840 L 200 860 L 200 880 L 200 900 L 220 900 L 220 880 L 220 860 L 220 840 L 220 820 L 220 800 L 220 780 L 220 760 L 220 740 L 220 720 L 220 700 L 220 680 L 220 660 L 220 640 L 220 620 L 220 600 L 220 580 L 220 560 L 220 540 L 240 540 L 260 540 L 260 560 L 280 560 L 280 540 L 300 540 L 300 560 L 320 560 L 320 540 L 340 540 L 340 560 L 360 560 L 360 540 L 380 540 L 380 560 L 400 560 L 400 540 L 400 520 z M 400 560 L 400 580 L 420 580 L 420 560 L 400 560 z M 420 560 L 440 560 L 440 540 L 420 540 L 420 560 z M 440 540 L 460 540 L 460 520 L 440 520 L 440 540 z M 460 540 L 460 560 L 480 560 L 480 540 L 460 540 z M 480 560 L 480 580 L 500 580 L 500 560 L 480 560 z M 500 560 L 520 560 L 520 540 L 500 540 L 500 560 z M 520 560 L 520 580 L 540 580 L 540 560 L 520 560 z M 540 560 L 560 560 L 560 540 L 540 540 L 540 560 z M 560 540 L 580 540 L 580 520 L 560 520 L 560 540 z M 580 540 L 580 560 L 600 560 L 600 540 L 580 540 z M 520 580 L 500 580 L 500 600 L 520 600 L 520 580 z M 520 600 L 520 620 L 540 620 L 540 600 L 520 600 z M 540 620 L 540 640 L 560 640 L 560 620 L 540 620 z M 560 620 L 580 620 L 580 600 L 560 600 L 560 620 z M 580 600 L 600 600 L 600 580 L 580 580 L 580 600 z M 600 600 L 600 620 L 620 620 L 620 600 L 600 600 z M 620 620 L 620 640 L 640 640 L 640 620 L 620 620 z M 640 640 L 640 660 L 660 660 L 660 640 L 640 640 z M 640 660 L 620 660 L 620 680 L 640 680 L 640 660 z M 620 680 L 600 680 L 600 700 L 620 700 L 620 680 z M 600 620 L 580 620 L 580 640 L 600 640 L 600 620 z M 580 640 L 560 640 L 560 660 L 580 660 L 580 640 z M 560 660 L 540 660 L 540 680 L 560 680 L 560 660 z M 560 680 L 560 700 L 580 700 L 580 680 L 560 680 z M 560 700 L 540 700 L 540 720 L 560 720 L 560 700 z M 540 720 L 520 720 L 520 740 L 540 740 L 540 720 z M 520 720 L 520 700 L 500 700 L 500 720 L 520 720 z M 500 720 L 480 720 L 480 740 L 500 740 L 500 720 z M 480 740 L 460 740 L 460 760 L 480 760 L 480 740 z M 460 760 L 440 760 L 440 780 L 460 780 L 460 760 z M 440 780 L 420 780 L 420 800 L 440 800 L 440 780 z M 420 800 L 400 800 L 400 820 L 420 820 L 420 800 z M 400 800 L 400 780 L 380 780 L 380 800 L 400 800 z M 380 780 L 380 760 L 360 760 L 360 780 L 380 780 z M 360 760 L 360 740 L 340 740 L 340 760 L 360 760 z M 380 760 L 400 760 L 400 740 L 380 740 L 380 760 z M 400 740 L 420 740 L 420 720 L 400 720 L 400 740 z M 420 720 L 440 720 L 440 700 L 420 700 L 420 720 z M 420 700 L 420 680 L 400 680 L 400 700 L 420 700 z M 400 680 L 400 660 L 380 660 L 380 680 L 400 680 z M 380 660 L 380 640 L 360 640 L 360 660 L 380 660 z M 360 660 L 340 660 L 340 680 L 360 680 L 360 660 z M 340 680 L 320 680 L 320 700 L 340 700 L 340 680 z M 340 700 L 340 720 L 360 720 L 360 700 L 340 700 z M 320 680 L 320 660 L 300 660 L 300 680 L 320 680 z M 320 660 L 340 660 L 340 640 L 320 640 L 320 660 z M 320 640 L 320 620 L 300 620 L 300 640 L 320 640 z M 300 620 L 300 600 L 280 600 L 280 620 L 300 620 z M 300 600 L 320 600 L 320 580 L 300 580 L 300 600 z M 300 580 L 300 560 L 280 560 L 280 580 L 300 580 z M 320 600 L 320 620 L 340 620 L 340 600 L 320 600 z M 340 600 L 360 600 L 360 580 L 340 580 L 340 600 z M 360 580 L 380 580 L 380 560 L 360 560 L 360 580 z M 380 580 L 380 600 L 400 600 L 400 580 L 380 580 z M 400 600 L 400 620 L 420 620 L 420 600 L 400 600 z M 420 600 L 440 600 L 440 580 L 420 580 L 420 600 z M 440 580 L 460 580 L 460 560 L 440 560 L 440 580 z M 460 580 L 460 600 L 480 600 L 480 580 L 460 580 z M 480 600 L 480 620 L 500 620 L 500 600 L 480 600 z M 500 620 L 500 640 L 520 640 L 520 620 L 500 620 z M 520 640 L 520 660 L 540 660 L 540 640 L 520 640 z M 520 660 L 500 660 L 500 680 L 520 680 L 520 660 z M 520 680 L 520 700 L 540 700 L 540 680 L 520 680 z M 500 680 L 480 680 L 480 700 L 500 700 L 500 680 z M 480 700 L 460 700 L 460 720 L 480 720 L 480 700 z M 460 720 L 440 720 L 440 740 L 460 740 L 460 720 z M 440 740 L 420 740 L 420 760 L 440 760 L 440 740 z M 460 700 L 460 680 L 440 680 L 440 700 L 460 700 z M 440 680 L 440 660 L 420 660 L 420 680 L 440 680 z M 420 660 L 420 640 L 400 640 L 400 660 L 420 660 z M 400 640 L 400 620 L 380 620 L 380 640 L 400 640 z M 380 620 L 380 600 L 360 600 L 360 620 L 380 620 z M 420 640 L 440 640 L 440 620 L 420 620 L 420 640 z M 440 620 L 460 620 L 460 600 L 440 600 L 440 620 z M 460 620 L 460 640 L 480 640 L 480 620 L 460 620 z M 480 640 L 480 660 L 500 660 L 500 640 L 480 640 z M 480 660 L 460 660 L 460 680 L 480 680 L 480 660 z M 460 660 L 460 640 L 440 640 L 440 660 L 460 660 z M 160 200 L 160 220 L 180 220 L 180 200 L 160 200 z M 180 220 L 180 240 L 200 240 L 200 220 L 180 220 z M 120 220 L 120 240 L 120 260 L 120 280 L 120 300 L 120 320 L 120 340 L 120 360 L 120 380 L 120 400 L 140 400 L 140 380 L 160 380 L 160 360 L 140 360 L 140 340 L 160 340 L 160 320 L 140 320 L 140 300 L 160 300 L 160 280 L 140 280 L 140 260 L 160 260 L 160 240 L 140 240 L 140 220 L 120 220 z M 160 260 L 160 280 L 180 280 L 180 260 L 160 260 z M 180 280 L 180 300 L 200 300 L 200 280 L 180 280 z M 200 280 L 220 280 L 220 260 L 200 260 L 200 280 z M 220 260 L 240 260 L 240 240 L 220 240 L 220 260 z M 220 280 L 220 300 L 240 300 L 240 280 L 220 280 z M 240 300 L 240 320 L 260 320 L 260 300 L 240 300 z M 260 320 L 260 340 L 280 340 L 280 320 L 260 320 z M 240 320 L 220 320 L 220 340 L 240 340 L 240 320 z M 220 340 L 200 340 L 200 360 L 220 360 L 220 340 z M 200 360 L 180 360 L 180 380 L 200 380 L 200 360 z M 180 380 L 160 380 L 160 400 L 180 400 L 180 380 z M 160 400 L 140 400 L 140 420 L 160 420 L 160 400 z M 180 360 L 180 340 L 160 340 L 160 360 L 180 360 z M 180 340 L 200 340 L 200 320 L 180 320 L 180 340 z M 180 320 L 180 300 L 160 300 L 160 320 L 180 320 z M 200 320 L 220 320 L 220 300 L 200 300 L 200 320 z M 560 220 L 560 240 L 540 240 L 540 260 L 540 280 L 540 300 L 540 320 L 540 340 L 560 340 L 560 360 L 540 360 L 540 380 L 560 380 L 560 400 L 560 420 L 580 420 L 580 400 L 600 400 L 600 380 L 580 380 L 580 360 L 600 360 L 600 340 L 580 340 L 580 320 L 560 320 L 560 300 L 580 300 L 580 280 L 560 280 L 560 260 L 580 260 L 580 280 L 600 280 L 600 300 L 580 300 L 580 320 L 600 320 L 600 340 L 620 340 L 620 360 L 640 360 L 640 380 L 660 380 L 660 400 L 680 400 L 700 400 L 700 380 L 680 380 L 680 360 L 660 360 L 660 340 L 640 340 L 640 320 L 620 320 L 620 300 L 620 280 L 620 260 L 600 260 L 600 240 L 580 240 L 580 220 L 560 220 z M 700 380 L 720 380 L 720 360 L 700 360 L 700 380 z M 720 360 L 740 360 L 740 340 L 720 340 L 720 360 z M 740 340 L 760 340 L 760 320 L 760 300 L 760 280 L 760 260 L 740 260 L 740 280 L 740 300 L 740 320 L 740 340 z M 660 400 L 640 400 L 640 420 L 660 420 L 660 400 z M 640 400 L 640 380 L 620 380 L 620 400 L 640 400 z M 620 400 L 600 400 L 600 420 L 620 420 L 620 400 z M 620 380 L 620 360 L 600 360 L 600 380 L 620 380 z M 260 260 L 260 280 L 280 280 L 280 260 L 260 260 z M 300 280 L 300 300 L 320 300 L 320 280 L 300 280 z M 320 340 L 320 360 L 300 360 L 300 380 L 280 380 L 260 380 L 260 400 L 240 400 L 220 400 L 220 420 L 200 420 L 180 420 L 180 440 L 160 440 L 140 440 L 140 460 L 140 480 L 160 480 L 160 460 L 180 460 L 200 460 L 200 440 L 220 440 L 240 440 L 240 420 L 260 420 L 280 420 L 280 400 L 300 400 L 320 400 L 320 380 L 340 380 L 340 360 L 340 340 L 320 340 z M 100 420 L 100 440 L 100 460 L 120 460 L 120 440 L 120 420 L 100 420 z M 820 460 L 820 480 L 840 480 L 840 460 L 820 460 z M 820 480 L 800 480 L 800 500 L 820 500 L 820 480 z M 800 500 L 780 500 L 780 520 L 800 520 L 800 500 z M 780 500 L 780 480 L 760 480 L 760 500 L 780 500 z M 560 480 L 560 500 L 580 500 L 580 480 L 560 480 z M 840 500 L 840 520 L 860 520 L 860 500 L 840 500 z M 700 520 L 700 540 L 720 540 L 720 520 L 700 520 z M 740 520 L 740 540 L 760 540 L 760 520 L 740 520 z M 840 540 L 840 560 L 840 580 L 860 580 L 860 560 L 860 540 L 840 540 z M 700 580 L 700 600 L 720 600 L 720 580 L 700 580 z M 840 600 L 840 620 L 860 620 L 860 600 L 840 600 z M 700 620 L 700 640 L 720 640 L 720 620 L 700 620 z M 840 640 L 840 660 L 860 660 L 860 640 L 840 640 z M 700 660 L 700 680 L 720 680 L 720 660 L 700 660 z M 840 680 L 840 700 L 860 700 L 860 680 L 840 680 z M 840 700 L 820 700 L 800 700 L 780 700 L 780 720 L 760 720 L 760 740 L 760 760 L 780 760 L 800 760 L 820 760 L 820 740 L 840 740 L 840 720 L 840 700 z M 700 700 L 700 720 L 720 720 L 720 700 L 700 700 z M 640 740 L 640 760 L 620 760 L 620 780 L 620 800 L 640 800 L 660 800 L 680 800 L 680 780 L 700 780 L 700 760 L 700 740 L 680 740 L 660 740 L 640 740 z "
     id="rect3580" />
  <path
     style="fill:#000000"
     d="M 760 20 L 760 40 L 780 40 L 780 20 L 760 20 z M 780 40 L 780 60 L 800 60 L 800 40 L 780 40 z M 800 60 L 800 80 L 820 80 L 820 60 L 800 60 z M 820 80 L 820 100 L 840 100 L 840 80 L 820 80 z M 840 100 L 840 120 L 860 120 L 860 100 L 840 100 z M 860 120 L 860 140 L 880 140 L 880 120 L 860 120 z M 880 140 L 880 160 L 900 160 L 900 140 L 880 140 z M 900 160 L 900 180 L 920 180 L 920 160 L 900 160 z M 920 180 L 920 200 L 920 220 L 920 240 L 920 260 L 920 280 L 920 300 L 920 320 L 920 340 L 920 360 L 920 380 L 920 400 L 920 420 L 920 440 L 920 460 L 920 480 L 920 500 L 920 520 L 920 540 L 920 560 L 920 580 L 920 600 L 920 620 L 920 640 L 920 660 L 920 680 L 920 700 L 920 720 L 920 740 L 920 760 L 920 780 L 920 800 L 920 820 L 920 840 L 920 860 L 920 880 L 920 900 L 900 900 L 880 900 L 860 900 L 840 900 L 820 900 L 800 900 L 780 900 L 760 900 L 740 900 L 720 900 L 700 900 L 680 900 L 660 900 L 640 900 L 620 900 L 600 900 L 580 900 L 560 900 L 540 900 L 520 900 L 500 900 L 480 900 L 460 900 L 440 900 L 420 900 L 400 900 L 380 900 L 360 900 L 340 900 L 320 900 L 300 900 L 280 900 L 260 900 L 240 900 L 220 900 L 200 900 L 200 920 L 220 920 L 240 920 L 260 920 L 280 920 L 300 920 L 320 920 L 340 920 L 360 920 L 380 920 L 400 920 L 420 920 L 440 920 L 460 920 L 480 920 L 500 920 L 520 920 L 540 920 L 560 920 L 580 920 L 600 920 L 620 920 L 640 920 L 660 920 L 680 920 L 700 920 L 720 920 L 740 920 L 760 920 L 780 920 L 800 920 L 820 920 L 840 920 L 860 920 L 880 920 L 900 920 L 920 920 L 940 920 L 940 900 L 940 880 L 940 860 L 940 840 L 940 820 L 940 800 L 940 780 L 940 760 L 940 740 L 940 720 L 940 700 L 940 680 L 940 660 L 940 640 L 940 620 L 940 600 L 940 580 L 940 560 L 940 540 L 940 520 L 940 500 L 940 480 L 940 460 L 940 440 L 940 420 L 940 400 L 940 380 L 940 360 L 940 340 L 940 320 L 940 300 L 940 280 L 940 260 L 940 240 L 940 220 L 940 200 L 940 180 L 920 180 z "
     id="rect3728" />
  <path
     style="fill:#c0c0c0"
     d="M 760 60 L 760 80 L 760 100 L 780 100 L 780 120 L 800 120 L 800 140 L 820 140 L 820 160 L 840 160 L 840 180 L 860 180 L 880 180 L 880 160 L 860 160 L 860 140 L 840 140 L 840 120 L 820 120 L 820 100 L 800 100 L 800 80 L 780 80 L 780 60 L 760 60 z M 0 120 L 0 140 L 0 160 L 0 180 L 0 200 L 0 220 L 0 240 L 0 260 L 0 280 L 0 300 L 0 320 L 0 340 L 0 360 L 0 380 L 0 400 L 0 420 L 0 440 L 0 460 L 0 480 L 0 500 L 0 520 L 20 520 L 20 500 L 20 480 L 20 460 L 20 440 L 20 420 L 20 400 L 20 380 L 20 360 L 20 340 L 20 320 L 20 300 L 20 280 L 20 260 L 20 240 L 20 220 L 20 200 L 20 180 L 20 160 L 20 140 L 40 140 L 60 140 L 80 140 L 100 140 L 120 140 L 140 140 L 160 140 L 180 140 L 200 140 L 220 140 L 240 140 L 260 140 L 280 140 L 300 140 L 320 140 L 340 140 L 360 140 L 380 140 L 380 120 L 360 120 L 340 120 L 320 120 L 300 120 L 280 120 L 260 120 L 240 120 L 220 120 L 200 120 L 180 120 L 160 120 L 140 120 L 120 120 L 100 120 L 80 120 L 60 120 L 40 120 L 20 120 L 0 120 z M 540 160 L 540 180 L 520 180 L 520 200 L 500 200 L 480 200 L 480 220 L 460 220 L 440 220 L 440 240 L 420 240 L 420 260 L 420 280 L 420 300 L 420 320 L 420 340 L 420 360 L 420 380 L 420 400 L 420 420 L 420 440 L 420 460 L 420 480 L 420 500 L 420 520 L 400 520 L 400 540 L 400 560 L 420 560 L 420 540 L 440 540 L 440 520 L 460 520 L 460 540 L 480 540 L 480 560 L 500 560 L 500 540 L 500 520 L 520 520 L 520 500 L 540 500 L 560 500 L 560 480 L 580 480 L 580 460 L 560 460 L 560 440 L 560 420 L 560 400 L 560 380 L 540 380 L 540 360 L 560 360 L 560 340 L 540 340 L 540 320 L 540 300 L 540 280 L 540 260 L 540 240 L 560 240 L 560 220 L 580 220 L 580 240 L 600 240 L 600 220 L 600 200 L 580 200 L 580 180 L 600 180 L 600 200 L 620 200 L 620 220 L 620 240 L 640 240 L 640 260 L 620 260 L 620 280 L 620 300 L 620 320 L 640 320 L 640 340 L 660 340 L 660 360 L 680 360 L 680 380 L 700 380 L 700 360 L 720 360 L 720 340 L 740 340 L 740 320 L 740 300 L 740 280 L 720 280 L 700 280 L 700 260 L 680 260 L 680 240 L 660 240 L 660 220 L 640 220 L 640 200 L 640 180 L 620 180 L 620 160 L 600 160 L 580 160 L 560 160 L 540 160 z M 740 340 L 740 360 L 760 360 L 780 360 L 780 340 L 780 320 L 780 300 L 780 280 L 780 260 L 760 260 L 760 280 L 760 300 L 760 320 L 760 340 L 740 340 z M 740 360 L 720 360 L 720 380 L 740 380 L 740 360 z M 720 380 L 700 380 L 700 400 L 720 400 L 720 380 z M 620 260 L 620 240 L 600 240 L 600 260 L 620 260 z M 560 500 L 560 520 L 580 520 L 580 540 L 600 540 L 600 520 L 600 500 L 580 500 L 560 500 z M 600 540 L 600 560 L 580 560 L 580 580 L 600 580 L 600 600 L 620 600 L 620 620 L 640 620 L 640 600 L 640 580 L 620 580 L 620 560 L 620 540 L 600 540 z M 640 620 L 640 640 L 660 640 L 660 620 L 640 620 z M 640 640 L 620 640 L 620 660 L 640 660 L 640 640 z M 620 660 L 600 660 L 600 680 L 620 680 L 620 660 z M 600 680 L 580 680 L 580 700 L 600 700 L 600 680 z M 580 700 L 560 700 L 560 720 L 580 720 L 580 700 z M 560 700 L 560 680 L 540 680 L 540 700 L 560 700 z M 540 700 L 520 700 L 520 720 L 540 720 L 540 700 z M 520 720 L 500 720 L 500 740 L 520 740 L 520 720 z M 500 740 L 480 740 L 480 760 L 500 760 L 500 740 z M 480 760 L 460 760 L 460 780 L 480 780 L 480 760 z M 460 760 L 460 740 L 440 740 L 440 760 L 460 760 z M 440 740 L 440 720 L 420 720 L 420 740 L 440 740 z M 420 740 L 400 740 L 400 760 L 420 760 L 420 740 z M 400 760 L 380 760 L 380 780 L 400 780 L 400 760 z M 380 780 L 360 780 L 360 800 L 380 800 L 380 780 z M 380 800 L 380 820 L 400 820 L 400 800 L 380 800 z M 380 760 L 380 740 L 360 740 L 360 760 L 380 760 z M 360 740 L 360 720 L 340 720 L 340 740 L 360 740 z M 340 720 L 340 700 L 320 700 L 320 720 L 340 720 z M 340 700 L 360 700 L 360 680 L 340 680 L 340 700 z M 340 680 L 340 660 L 320 660 L 320 680 L 340 680 z M 320 660 L 320 640 L 300 640 L 300 660 L 320 660 z M 320 640 L 340 640 L 340 620 L 320 620 L 320 640 z M 320 620 L 320 600 L 300 600 L 300 620 L 320 620 z M 300 600 L 300 580 L 280 580 L 280 600 L 300 600 z M 300 580 L 320 580 L 320 560 L 300 560 L 300 580 z M 300 560 L 300 540 L 280 540 L 280 560 L 300 560 z M 320 560 L 340 560 L 340 540 L 320 540 L 320 560 z M 340 560 L 340 580 L 360 580 L 360 560 L 340 560 z M 360 560 L 380 560 L 380 540 L 360 540 L 360 560 z M 380 560 L 380 580 L 400 580 L 400 560 L 380 560 z M 400 580 L 400 600 L 420 600 L 420 580 L 400 580 z M 420 580 L 440 580 L 440 560 L 420 560 L 420 580 z M 440 560 L 460 560 L 460 540 L 440 540 L 440 560 z M 460 560 L 460 580 L 480 580 L 480 560 L 460 560 z M 480 580 L 480 600 L 500 600 L 500 580 L 480 580 z M 500 580 L 520 580 L 520 560 L 500 560 L 500 580 z M 520 560 L 540 560 L 540 540 L 520 540 L 520 560 z M 540 540 L 560 540 L 560 520 L 540 520 L 540 540 z M 560 540 L 560 560 L 580 560 L 580 540 L 560 540 z M 520 580 L 520 600 L 540 600 L 540 580 L 520 580 z M 520 600 L 500 600 L 500 620 L 520 620 L 520 600 z M 520 620 L 520 640 L 540 640 L 540 620 L 520 620 z M 540 640 L 540 660 L 560 660 L 560 640 L 540 640 z M 560 640 L 580 640 L 580 620 L 560 620 L 560 640 z M 580 620 L 600 620 L 600 600 L 580 600 L 580 620 z M 600 620 L 600 640 L 620 640 L 620 620 L 600 620 z M 560 660 L 560 680 L 580 680 L 580 660 L 560 660 z M 540 660 L 520 660 L 520 680 L 540 680 L 540 660 z M 520 680 L 500 680 L 500 700 L 520 700 L 520 680 z M 500 700 L 480 700 L 480 720 L 500 720 L 500 700 z M 480 720 L 460 720 L 460 740 L 480 740 L 480 720 z M 460 720 L 460 700 L 440 700 L 440 720 L 460 720 z M 440 700 L 440 680 L 420 680 L 420 700 L 440 700 z M 420 700 L 400 700 L 400 720 L 420 720 L 420 700 z M 400 720 L 380 720 L 380 740 L 400 740 L 400 720 z M 420 680 L 420 660 L 400 660 L 400 680 L 420 680 z M 400 660 L 400 640 L 380 640 L 380 660 L 400 660 z M 380 660 L 360 660 L 360 680 L 380 680 L 380 660 z M 400 640 L 420 640 L 420 620 L 400 620 L 400 640 z M 400 620 L 400 600 L 380 600 L 380 620 L 400 620 z M 380 600 L 380 580 L 360 580 L 360 600 L 380 600 z M 360 600 L 340 600 L 340 620 L 360 620 L 360 600 z M 420 620 L 440 620 L 440 600 L 420 600 L 420 620 z M 440 600 L 460 600 L 460 580 L 440 580 L 440 600 z M 460 600 L 460 620 L 480 620 L 480 600 L 460 600 z M 480 620 L 480 640 L 500 640 L 500 620 L 480 620 z M 500 640 L 500 660 L 520 660 L 520 640 L 500 640 z M 500 660 L 480 660 L 480 680 L 500 680 L 500 660 z M 480 680 L 460 680 L 460 700 L 480 700 L 480 680 z M 460 680 L 460 660 L 440 660 L 440 680 L 460 680 z M 440 660 L 440 640 L 420 640 L 420 660 L 440 660 z M 440 640 L 460 640 L 460 620 L 440 620 L 440 640 z M 460 640 L 460 660 L 480 660 L 480 640 L 460 640 z M 100 200 L 100 220 L 100 240 L 100 260 L 100 280 L 100 300 L 100 320 L 100 340 L 100 360 L 100 380 L 100 400 L 100 420 L 120 420 L 120 400 L 120 380 L 120 360 L 120 340 L 120 320 L 120 300 L 120 280 L 120 260 L 120 240 L 120 220 L 120 200 L 100 200 z M 320 200 L 320 220 L 320 240 L 320 260 L 320 280 L 320 300 L 340 300 L 340 280 L 340 260 L 340 240 L 340 220 L 340 200 L 320 200 z M 740 200 L 740 220 L 760 220 L 780 220 L 800 220 L 820 220 L 840 220 L 860 220 L 880 220 L 900 220 L 900 240 L 900 260 L 900 280 L 900 300 L 900 320 L 900 340 L 900 360 L 900 380 L 900 400 L 900 420 L 900 440 L 900 460 L 900 480 L 900 500 L 900 520 L 900 540 L 900 560 L 900 580 L 900 600 L 900 620 L 900 640 L 900 660 L 900 680 L 900 700 L 900 720 L 900 740 L 900 760 L 900 780 L 900 800 L 900 820 L 900 840 L 900 860 L 900 880 L 880 880 L 860 880 L 840 880 L 820 880 L 800 880 L 780 880 L 760 880 L 740 880 L 720 880 L 700 880 L 680 880 L 660 880 L 640 880 L 620 880 L 600 880 L 580 880 L 560 880 L 540 880 L 520 880 L 500 880 L 480 880 L 460 880 L 440 880 L 420 880 L 400 880 L 380 880 L 360 880 L 340 880 L 320 880 L 300 880 L 280 880 L 260 880 L 240 880 L 220 880 L 220 900 L 240 900 L 260 900 L 280 900 L 300 900 L 320 900 L 340 900 L 360 900 L 380 900 L 400 900 L 420 900 L 440 900 L 460 900 L 480 900 L 500 900 L 520 900 L 540 900 L 560 900 L 580 900 L 600 900 L 620 900 L 640 900 L 660 900 L 680 900 L 700 900 L 720 900 L 740 900 L 760 900 L 780 900 L 800 900 L 820 900 L 840 900 L 860 900 L 880 900 L 900 900 L 920 900 L 920 880 L 920 860 L 920 840 L 920 820 L 920 800 L 920 780 L 920 760 L 920 740 L 920 720 L 920 700 L 920 680 L 920 660 L 920 640 L 920 620 L 920 600 L 920 580 L 920 560 L 920 540 L 920 520 L 920 500 L 920 480 L 920 460 L 920 440 L 920 420 L 920 400 L 920 380 L 920 360 L 920 340 L 920 320 L 920 300 L 920 280 L 920 260 L 920 240 L 920 220 L 920 200 L 900 200 L 880 200 L 860 200 L 840 200 L 820 200 L 800 200 L 780 200 L 760 200 L 740 200 z M 200 220 L 200 240 L 220 240 L 220 220 L 200 220 z M 940 220 L 940 240 L 940 260 L 940 280 L 940 300 L 940 320 L 940 340 L 940 360 L 940 380 L 940 400 L 940 420 L 940 440 L 940 460 L 940 480 L 940 500 L 940 520 L 940 540 L 940 560 L 940 580 L 940 600 L 940 620 L 940 640 L 940 660 L 940 680 L 940 700 L 940 720 L 940 740 L 940 760 L 940 780 L 940 800 L 940 820 L 940 840 L 940 860 L 940 880 L 940 900 L 940 920 L 920 920 L 900 920 L 880 920 L 860 920 L 840 920 L 820 920 L 800 920 L 780 920 L 760 920 L 740 920 L 720 920 L 700 920 L 680 920 L 660 920 L 640 920 L 620 920 L 600 920 L 580 920 L 560 920 L 540 920 L 520 920 L 500 920 L 480 920 L 460 920 L 440 920 L 420 920 L 400 920 L 380 920 L 360 920 L 340 920 L 320 920 L 300 920 L 280 920 L 260 920 L 240 920 L 220 920 L 220 940 L 240 940 L 260 940 L 280 940 L 300 940 L 320 940 L 340 940 L 360 940 L 380 940 L 400 940 L 420 940 L 440 940 L 460 940 L 480 940 L 500 940 L 520 940 L 540 940 L 560 940 L 580 940 L 600 940 L 620 940 L 640 940 L 660 940 L 680 940 L 700 940 L 720 940 L 740 940 L 760 940 L 780 940 L 800 940 L 820 940 L 840 940 L 860 940 L 880 940 L 900 940 L 920 940 L 940 940 L 960 940 L 960 920 L 960 900 L 960 880 L 960 860 L 960 840 L 960 820 L 960 800 L 960 780 L 960 760 L 960 740 L 960 720 L 960 700 L 960 680 L 960 660 L 960 640 L 960 620 L 960 600 L 960 580 L 960 560 L 960 540 L 960 520 L 960 500 L 960 480 L 960 460 L 960 440 L 960 420 L 960 400 L 960 380 L 960 360 L 960 340 L 960 320 L 960 300 L 960 280 L 960 260 L 960 240 L 960 220 L 940 220 z M 240 240 L 240 260 L 260 260 L 260 240 L 240 240 z M 280 260 L 280 280 L 300 280 L 300 260 L 280 260 z M 480 260 L 500 260 L 500 280 L 500 300 L 480 300 L 480 280 L 480 260 z M 560 260 L 560 280 L 580 280 L 580 260 L 560 260 z M 580 280 L 580 300 L 600 300 L 600 280 L 580 280 z M 580 300 L 560 300 L 560 320 L 580 320 L 580 300 z M 580 320 L 580 340 L 600 340 L 600 320 L 580 320 z M 600 340 L 600 360 L 620 360 L 620 340 L 600 340 z M 620 360 L 620 380 L 640 380 L 640 360 L 620 360 z M 640 380 L 640 400 L 660 400 L 660 380 L 640 380 z M 660 400 L 660 420 L 680 420 L 680 400 L 660 400 z M 640 400 L 620 400 L 620 420 L 640 420 L 640 400 z M 620 400 L 620 380 L 600 380 L 600 400 L 620 400 z M 600 400 L 580 400 L 580 420 L 600 420 L 600 400 z M 600 380 L 600 360 L 580 360 L 580 380 L 600 380 z M 640 280 L 660 280 L 660 300 L 680 300 L 680 320 L 700 320 L 700 340 L 680 340 L 680 320 L 660 320 L 660 300 L 640 300 L 640 280 z M 480 320 L 500 320 L 500 340 L 500 360 L 480 360 L 460 360 L 460 340 L 480 340 L 480 320 z M 320 380 L 320 400 L 320 420 L 320 440 L 300 440 L 280 440 L 260 440 L 260 420 L 240 420 L 240 440 L 220 440 L 200 440 L 200 460 L 220 460 L 240 460 L 260 460 L 280 460 L 300 460 L 320 460 L 340 460 L 340 440 L 340 420 L 340 400 L 340 380 L 320 380 z M 200 460 L 180 460 L 160 460 L 160 480 L 180 480 L 200 480 L 200 460 z M 480 380 L 500 380 L 520 380 L 520 400 L 500 400 L 500 420 L 480 420 L 480 400 L 480 380 z M 280 400 L 280 420 L 300 420 L 300 400 L 280 400 z M 60 440 L 60 460 L 80 460 L 100 460 L 100 440 L 80 440 L 60 440 z M 500 440 L 520 440 L 520 460 L 520 480 L 500 480 L 480 480 L 480 460 L 500 460 L 500 440 z M 800 460 L 800 480 L 820 480 L 820 460 L 800 460 z M 820 480 L 820 500 L 800 500 L 800 520 L 820 520 L 840 520 L 840 500 L 860 500 L 860 520 L 840 520 L 840 540 L 860 540 L 860 560 L 860 580 L 840 580 L 840 600 L 860 600 L 860 620 L 840 620 L 840 640 L 860 640 L 860 660 L 840 660 L 840 680 L 860 680 L 860 700 L 840 700 L 840 720 L 840 740 L 820 740 L 820 760 L 800 760 L 780 760 L 760 760 L 760 740 L 760 720 L 740 720 L 740 740 L 740 760 L 740 780 L 760 780 L 780 780 L 780 800 L 800 800 L 800 780 L 820 780 L 840 780 L 840 760 L 860 760 L 860 740 L 880 740 L 880 720 L 880 700 L 880 680 L 880 660 L 880 640 L 880 620 L 880 600 L 880 580 L 880 560 L 880 540 L 880 520 L 880 500 L 880 480 L 880 460 L 860 460 L 840 460 L 840 480 L 820 480 z M 740 720 L 740 700 L 740 680 L 740 660 L 740 640 L 740 620 L 740 600 L 740 580 L 740 560 L 740 540 L 740 520 L 760 520 L 780 520 L 780 500 L 760 500 L 760 480 L 740 480 L 740 500 L 720 500 L 700 500 L 700 520 L 720 520 L 720 540 L 700 540 L 700 560 L 700 580 L 720 580 L 720 600 L 700 600 L 700 620 L 720 620 L 720 640 L 700 640 L 700 660 L 720 660 L 720 680 L 700 680 L 700 700 L 720 700 L 720 720 L 740 720 z M 720 720 L 700 720 L 680 720 L 660 720 L 640 720 L 640 740 L 660 740 L 680 740 L 700 740 L 700 760 L 700 780 L 720 780 L 720 760 L 720 740 L 720 720 z M 700 780 L 680 780 L 680 800 L 700 800 L 700 780 z M 680 800 L 660 800 L 640 800 L 620 800 L 620 820 L 640 820 L 660 820 L 680 820 L 680 800 z M 620 800 L 620 780 L 620 760 L 600 760 L 600 780 L 600 800 L 620 800 z M 620 760 L 640 760 L 640 740 L 620 740 L 620 760 z M 780 500 L 800 500 L 800 480 L 780 480 L 780 500 z M 760 720 L 780 720 L 780 700 L 760 700 L 760 720 z M 780 700 L 800 700 L 820 700 L 840 700 L 840 680 L 820 680 L 800 680 L 780 680 L 780 700 z "
     id="rect3804" />
</svg>
