<?xml version="1.0" encoding="UTF-8" standalone="no"?>
<svg
   xmlns:dc="http://purl.org/dc/elements/1.1/"
   xmlns:cc="http://creativecommons.org/ns#"
   xmlns:rdf="http://www.w3.org/1999/02/22-rdf-syntax-ns#"
   xmlns:svg="http://www.w3.org/2000/svg"
   xmlns="http://www.w3.org/2000/svg"
   height="960px"
   version="1.1"
   width="960px"
   id="svg3820">
  <metadata
     id="metadata3824">
    <rdf:RDF>
      <cc:Work
         rdf:about="">
        <dc:format>image/svg+xml</dc:format>
        <dc:type
           rdf:resource="http://purl.org/dc/dcmitype/StillImage" />
      </cc:Work>
    </rdf:RDF>
  </metadata>
  <defs
     id="defs2" />
  <path
     id="rect1694"
     d="M 160 480 L 160 500 L 180 500 L 180 480 L 160 480 z "
     style="fill:#00ff00" />
  <path
     id="rect1950"
     d="M 180 360 L 180 380 L 160 380 L 160 400 L 160 420 L 180 420 L 200 420 L 220 420 L 220 400 L 220 380 L 220 360 L 200 360 L 180 360 z M 800 480 L 800 500 L 780 500 L 780 520 L 780 540 L 800 540 L 820 540 L 820 520 L 840 520 L 840 500 L 840 480 L 820 480 L 800 480 z "
     style="fill:#0000ff" />
  <path
     id="rect1952"
     d="M 160 360 L 160 380 L 180 380 L 180 360 L 160 360 z M 600 520 L 600 540 L 620 540 L 640 540 L 640 520 L 620 520 L 600 520 z M 820 520 L 820 540 L 840 540 L 840 520 L 820 520 z "
     style="fill:#00ffff" />
  <path
     id="rect2100"
     d="M 160 240 L 160 260 L 180 260 L 180 240 L 160 240 z M 380 480 L 380 500 L 360 500 L 360 520 L 360 540 L 340 540 L 340 560 L 340 580 L 360 580 L 380 580 L 400 580 L 400 560 L 420 560 L 440 560 L 440 540 L 460 540 L 460 520 L 460 500 L 440 500 L 440 480 L 420 480 L 400 480 L 380 480 z M 400 520 L 420 520 L 420 540 L 400 540 L 400 520 z "
     style="fill:#ff0000" />
  <path
     id="rect2120"
     d="M 180 480 L 180 500 L 160 500 L 160 520 L 160 540 L 180 540 L 200 540 L 220 540 L 220 520 L 220 500 L 220 480 L 200 480 L 180 480 z M 580 480 L 580 500 L 580 520 L 560 520 L 560 540 L 540 540 L 540 560 L 540 580 L 560 580 L 580 580 L 600 580 L 600 560 L 620 560 L 640 560 L 640 540 L 620 540 L 600 540 L 600 520 L 620 520 L 640 520 L 640 540 L 660 540 L 660 520 L 660 500 L 660 480 L 640 480 L 620 480 L 600 480 L 580 480 z "
     style="fill:#008080" />
  <path
     id="rect2122"
     d="M 600 560 L 600 580 L 620 580 L 620 560 L 600 560 z "
     style="fill:#002080" />
  <path
     id="rect2148"
     d="M 860 560 L 860 580 L 880 580 L 880 560 L 860 560 z "
     style="fill:#000060" />
  <path
     id="rect2200"
     d="M 180 240 L 180 260 L 160 260 L 160 280 L 160 300 L 180 300 L 200 300 L 220 300 L 220 280 L 220 260 L 220 240 L 200 240 L 180 240 z M 440 540 L 440 560 L 420 560 L 400 560 L 400 580 L 380 580 L 360 580 L 360 600 L 380 600 L 400 600 L 420 600 L 440 600 L 440 580 L 460 580 L 460 560 L 460 540 L 440 540 z "
     style="fill:#800000" />
  <path
     id="rect2220"
     d="M 280 340 L 280 360 L 280 380 L 280 400 L 280 420 L 300 420 L 320 420 L 340 420 L 360 420 L 380 420 L 400 420 L 420 420 L 440 420 L 460 420 L 480 420 L 500 420 L 520 420 L 540 420 L 560 420 L 580 420 L 600 420 L 620 420 L 640 420 L 660 420 L 680 420 L 700 420 L 720 420 L 740 420 L 760 420 L 760 400 L 760 380 L 760 360 L 780 360 L 800 360 L 820 360 L 840 360 L 860 360 L 880 360 L 900 360 L 920 360 L 940 360 L 940 340 L 920 340 L 900 340 L 880 340 L 860 340 L 840 340 L 820 340 L 800 340 L 780 340 L 760 340 L 740 340 L 720 340 L 700 340 L 680 340 L 660 340 L 640 340 L 620 340 L 600 340 L 580 340 L 560 340 L 540 340 L 520 340 L 500 340 L 480 340 L 460 340 L 440 340 L 420 340 L 400 340 L 380 340 L 360 340 L 340 340 L 320 340 L 300 340 L 280 340 z M 840 480 L 840 500 L 840 520 L 840 540 L 820 540 L 800 540 L 780 540 L 760 540 L 760 560 L 760 580 L 780 580 L 800 580 L 820 580 L 840 580 L 860 580 L 860 560 L 880 560 L 880 540 L 880 520 L 880 500 L 860 500 L 860 480 L 840 480 z M 640 540 L 640 560 L 620 560 L 620 580 L 600 580 L 580 580 L 580 600 L 600 600 L 620 600 L 640 600 L 640 580 L 660 580 L 660 560 L 660 540 L 640 540 z "
     style="fill:#000080" />
  <path
     id="rect2370"
     d="M 200 620 L 200 640 L 220 640 L 220 620 L 200 620 z "
     style="fill:#802080" />
  <path
     id="rect2814"
     d="M 800 700 L 800 720 L 820 720 L 820 700 L 800 700 z "
     style="fill:#ff40ff" />
  <path
     id="rect3008"
     d="M 160 120 L 160 140 L 180 140 L 180 120 L 160 120 z M 400 520 L 400 540 L 420 540 L 420 520 L 400 520 z M 600 720 L 600 740 L 600 760 L 620 760 L 620 740 L 640 740 L 640 720 L 620 720 L 600 720 z M 820 720 L 820 740 L 820 760 L 840 760 L 840 740 L 840 720 L 820 720 z "
     style="fill:#ffff00" />
  <path
     id="rect3082"
     d="M 180 120 L 180 140 L 160 140 L 160 160 L 160 180 L 180 180 L 200 180 L 220 180 L 220 160 L 220 140 L 220 120 L 200 120 L 180 120 z M 600 700 L 600 720 L 620 720 L 640 720 L 640 740 L 620 740 L 620 760 L 640 760 L 660 760 L 660 740 L 660 720 L 660 700 L 640 700 L 620 700 L 600 700 z M 620 760 L 600 760 L 600 740 L 600 720 L 580 720 L 580 740 L 560 740 L 560 760 L 540 760 L 540 780 L 560 780 L 580 780 L 600 780 L 620 780 L 620 760 z "
     style="fill:#808000" />
  <path
     id="rect3104"
     d="M 160 600 L 160 620 L 180 620 L 180 600 L 160 600 z M 820 700 L 820 720 L 840 720 L 840 740 L 840 760 L 860 760 L 880 760 L 880 740 L 880 720 L 880 700 L 860 700 L 840 700 L 820 700 z M 840 760 L 820 760 L 820 740 L 820 720 L 800 720 L 780 720 L 780 740 L 760 740 L 760 760 L 780 760 L 800 760 L 800 780 L 820 780 L 840 780 L 840 760 z "
     style="fill:#ff00ff" />
  <path
     id="rect3108"
     d="M 180 600 L 180 620 L 160 620 L 160 640 L 160 660 L 180 660 L 180 640 L 200 640 L 200 620 L 220 620 L 220 600 L 200 600 L 180 600 z M 760 760 L 760 780 L 780 780 L 800 780 L 800 760 L 780 760 L 760 760 z M 840 760 L 840 780 L 860 780 L 880 780 L 880 760 L 860 760 L 840 760 z "
     style="fill:#800080" />
  <path
     id="rect3666"
     d="M 0 0 L 0 20 L 0 40 L 0 60 L 0 80 L 0 100 L 0 120 L 0 140 L 0 160 L 0 180 L 0 200 L 0 220 L 0 240 L 0 260 L 0 280 L 0 300 L 0 320 L 0 340 L 0 360 L 0 380 L 0 400 L 0 420 L 0 440 L 0 460 L 0 480 L 0 500 L 0 520 L 0 540 L 0 560 L 0 580 L 0 600 L 0 620 L 0 640 L 0 660 L 0 680 L 0 700 L 0 720 L 0 740 L 0 760 L 20 760 L 40 760 L 60 760 L 80 760 L 100 760 L 120 760 L 120 740 L 120 720 L 120 700 L 120 680 L 120 660 L 120 640 L 120 620 L 120 600 L 120 580 L 120 560 L 120 540 L 120 520 L 120 500 L 120 480 L 120 460 L 120 440 L 120 420 L 120 400 L 120 380 L 120 360 L 120 340 L 120 320 L 120 300 L 120 280 L 120 260 L 120 240 L 120 220 L 120 200 L 120 180 L 120 160 L 120 140 L 120 120 L 120 100 L 120 80 L 120 60 L 120 40 L 140 40 L 160 40 L 180 40 L 200 40 L 220 40 L 240 40 L 260 40 L 280 40 L 300 40 L 320 40 L 340 40 L 360 40 L 380 40 L 400 40 L 420 40 L 440 40 L 460 40 L 480 40 L 500 40 L 520 40 L 520 20 L 520 0 L 500 0 L 480 0 L 460 0 L 440 0 L 420 0 L 400 0 L 380 0 L 360 0 L 340 0 L 320 0 L 300 0 L 280 0 L 260 0 L 240 0 L 220 0 L 200 0 L 180 0 L 160 0 L 140 0 L 120 0 L 100 0 L 80 0 L 60 0 L 40 0 L 20 0 L 0 0 z M 240 120 L 240 140 L 240 160 L 260 160 L 280 160 L 300 160 L 320 160 L 340 160 L 360 160 L 380 160 L 400 160 L 420 160 L 440 160 L 460 160 L 460 140 L 460 120 L 440 120 L 420 120 L 400 120 L 380 120 L 360 120 L 340 120 L 320 120 L 300 120 L 280 120 L 260 120 L 240 120 z M 240 240 L 240 260 L 240 280 L 260 280 L 280 280 L 300 280 L 320 280 L 340 280 L 360 280 L 380 280 L 400 280 L 420 280 L 440 280 L 460 280 L 460 260 L 460 240 L 440 240 L 420 240 L 400 240 L 380 240 L 360 240 L 340 240 L 320 240 L 300 240 L 280 240 L 260 240 L 240 240 z M 240 300 L 240 320 L 240 340 L 240 360 L 240 380 L 240 400 L 240 420 L 240 440 L 240 460 L 240 480 L 240 500 L 240 520 L 240 540 L 240 560 L 240 580 L 240 600 L 240 620 L 240 640 L 220 640 L 200 640 L 180 640 L 180 660 L 180 680 L 180 700 L 180 720 L 180 740 L 180 760 L 180 780 L 180 800 L 180 820 L 180 840 L 180 860 L 180 880 L 180 900 L 180 920 L 180 940 L 200 940 L 220 940 L 220 920 L 220 900 L 220 880 L 220 860 L 220 840 L 220 820 L 220 800 L 220 780 L 220 760 L 220 740 L 220 720 L 220 700 L 220 680 L 220 660 L 240 660 L 260 660 L 280 660 L 300 660 L 320 660 L 340 660 L 360 660 L 380 660 L 400 660 L 420 660 L 440 660 L 460 660 L 480 660 L 480 640 L 460 640 L 440 640 L 420 640 L 400 640 L 380 640 L 360 640 L 340 640 L 320 640 L 300 640 L 280 640 L 280 620 L 280 600 L 280 580 L 280 560 L 280 540 L 280 520 L 280 500 L 280 480 L 280 460 L 280 440 L 280 420 L 280 400 L 280 380 L 280 360 L 280 340 L 300 340 L 320 340 L 340 340 L 360 340 L 380 340 L 400 340 L 420 340 L 440 340 L 460 340 L 480 340 L 500 340 L 520 340 L 540 340 L 560 340 L 580 340 L 600 340 L 620 340 L 640 340 L 660 340 L 680 340 L 700 340 L 720 340 L 740 340 L 760 340 L 780 340 L 800 340 L 820 340 L 840 340 L 860 340 L 880 340 L 900 340 L 920 340 L 940 340 L 940 320 L 940 300 L 920 300 L 900 300 L 880 300 L 860 300 L 840 300 L 820 300 L 800 300 L 780 300 L 760 300 L 740 300 L 720 300 L 700 300 L 680 300 L 660 300 L 640 300 L 620 300 L 600 300 L 580 300 L 560 300 L 540 300 L 520 300 L 500 300 L 480 300 L 460 300 L 440 300 L 420 300 L 400 300 L 380 300 L 360 300 L 340 300 L 320 300 L 300 300 L 280 300 L 260 300 L 240 300 z M 540 640 L 540 660 L 560 660 L 580 660 L 600 660 L 620 660 L 640 660 L 660 660 L 660 640 L 640 640 L 620 640 L 600 640 L 580 640 L 560 640 L 540 640 z M 760 640 L 760 660 L 780 660 L 800 660 L 820 660 L 840 660 L 860 660 L 880 660 L 880 640 L 860 640 L 840 640 L 820 640 L 800 640 L 780 640 L 760 640 z M 540 840 L 540 860 L 560 860 L 580 860 L 600 860 L 620 860 L 640 860 L 660 860 L 660 840 L 640 840 L 620 840 L 600 840 L 580 840 L 560 840 L 540 840 z M 760 840 L 760 860 L 780 860 L 800 860 L 820 860 L 840 860 L 860 860 L 880 860 L 880 840 L 860 840 L 840 840 L 820 840 L 800 840 L 780 840 L 760 840 z "
     style="fill:#808080" />
  <path
     id="rect3692"
     d="M 760 360 L 760 380 L 760 400 L 780 400 L 800 400 L 800 380 L 800 360 L 780 360 L 760 360 z M 820 360 L 820 380 L 820 400 L 840 400 L 860 400 L 860 380 L 860 360 L 840 360 L 820 360 z M 880 360 L 880 380 L 880 400 L 900 400 L 920 400 L 920 380 L 920 360 L 900 360 L 880 360 z M 300 460 L 300 480 L 300 500 L 300 520 L 300 540 L 300 560 L 300 580 L 300 600 L 300 620 L 300 640 L 320 640 L 340 640 L 360 640 L 380 640 L 400 640 L 420 640 L 440 640 L 460 640 L 480 640 L 500 640 L 520 640 L 520 660 L 520 680 L 520 700 L 520 720 L 520 740 L 520 760 L 520 780 L 520 800 L 520 820 L 520 840 L 520 860 L 520 880 L 520 900 L 540 900 L 560 900 L 580 900 L 600 900 L 620 900 L 640 900 L 660 900 L 680 900 L 700 900 L 720 900 L 740 900 L 760 900 L 780 900 L 800 900 L 820 900 L 840 900 L 860 900 L 880 900 L 900 900 L 900 880 L 900 860 L 900 840 L 900 820 L 900 800 L 900 780 L 900 760 L 900 740 L 900 720 L 900 700 L 900 680 L 900 660 L 900 640 L 900 620 L 900 600 L 900 580 L 900 560 L 900 540 L 900 520 L 900 500 L 900 480 L 900 460 L 880 460 L 860 460 L 840 460 L 820 460 L 800 460 L 780 460 L 760 460 L 740 460 L 720 460 L 700 460 L 680 460 L 660 460 L 640 460 L 620 460 L 600 460 L 580 460 L 560 460 L 540 460 L 520 460 L 500 460 L 480 460 L 460 460 L 440 460 L 420 460 L 400 460 L 380 460 L 360 460 L 340 460 L 320 460 L 300 460 z M 380 480 L 400 480 L 420 480 L 440 480 L 440 500 L 460 500 L 460 520 L 460 540 L 460 560 L 460 580 L 440 580 L 440 600 L 420 600 L 400 600 L 380 600 L 360 600 L 360 580 L 340 580 L 340 560 L 340 540 L 360 540 L 360 520 L 360 500 L 380 500 L 380 480 z M 580 480 L 600 480 L 620 480 L 640 480 L 660 480 L 660 500 L 660 520 L 660 540 L 660 560 L 660 580 L 640 580 L 640 600 L 620 600 L 600 600 L 580 600 L 580 580 L 560 580 L 540 580 L 540 560 L 540 540 L 560 540 L 560 520 L 580 520 L 580 500 L 580 480 z M 800 480 L 820 480 L 840 480 L 860 480 L 860 500 L 880 500 L 880 520 L 880 540 L 880 560 L 880 580 L 860 580 L 860 600 L 840 600 L 820 600 L 800 600 L 780 600 L 780 580 L 760 580 L 760 560 L 760 540 L 780 540 L 780 520 L 780 500 L 800 500 L 800 480 z M 540 640 L 560 640 L 580 640 L 600 640 L 620 640 L 640 640 L 660 640 L 660 660 L 640 660 L 620 660 L 600 660 L 580 660 L 560 660 L 540 660 L 540 640 z M 760 640 L 780 640 L 800 640 L 820 640 L 840 640 L 860 640 L 880 640 L 880 660 L 860 660 L 840 660 L 820 660 L 800 660 L 780 660 L 760 660 L 760 640 z M 220 660 L 220 680 L 220 700 L 220 720 L 220 740 L 220 760 L 220 780 L 220 800 L 220 820 L 220 840 L 220 860 L 220 880 L 220 900 L 220 920 L 220 940 L 240 940 L 260 940 L 280 940 L 300 940 L 320 940 L 340 940 L 360 940 L 380 940 L 400 940 L 420 940 L 440 940 L 460 940 L 480 940 L 480 920 L 480 900 L 480 880 L 480 860 L 480 840 L 480 820 L 480 800 L 480 780 L 480 760 L 480 740 L 480 720 L 480 700 L 480 680 L 480 660 L 460 660 L 440 660 L 420 660 L 400 660 L 380 660 L 360 660 L 340 660 L 320 660 L 300 660 L 280 660 L 260 660 L 240 660 L 220 660 z M 300 700 L 320 700 L 340 700 L 360 700 L 380 700 L 400 700 L 420 700 L 420 720 L 420 740 L 420 760 L 420 780 L 420 800 L 420 820 L 400 820 L 400 800 L 380 800 L 380 780 L 360 780 L 360 800 L 340 800 L 340 820 L 320 820 L 320 840 L 300 840 L 300 860 L 300 880 L 320 880 L 320 900 L 300 900 L 300 880 L 280 880 L 280 860 L 280 840 L 280 820 L 280 800 L 280 780 L 300 780 L 300 760 L 320 760 L 320 740 L 320 720 L 300 720 L 300 700 z M 600 700 L 620 700 L 640 700 L 660 700 L 660 720 L 660 740 L 660 760 L 660 780 L 660 800 L 640 800 L 640 820 L 620 820 L 600 820 L 580 820 L 580 800 L 580 780 L 560 780 L 540 780 L 540 760 L 560 760 L 560 740 L 580 740 L 580 720 L 600 720 L 600 700 z M 800 700 L 820 700 L 840 700 L 860 700 L 880 700 L 880 720 L 880 740 L 880 760 L 880 780 L 880 800 L 860 800 L 860 820 L 840 820 L 820 820 L 800 820 L 800 800 L 800 780 L 780 780 L 760 780 L 760 760 L 760 740 L 780 740 L 780 720 L 800 720 L 800 700 z M 540 840 L 560 840 L 580 840 L 600 840 L 620 840 L 640 840 L 660 840 L 660 860 L 640 860 L 620 860 L 600 860 L 580 860 L 560 860 L 540 860 L 540 840 z M 760 840 L 780 840 L 800 840 L 820 840 L 840 840 L 860 840 L 880 840 L 880 860 L 860 860 L 840 860 L 820 860 L 800 860 L 780 860 L 760 860 L 760 840 z "
     style="fill:#ffffff" />
  <path
     id="rect3738"
     d="M 120 40 L 120 60 L 120 80 L 120 100 L 120 120 L 120 140 L 120 160 L 120 180 L 120 200 L 120 220 L 120 240 L 120 260 L 120 280 L 120 300 L 120 320 L 120 340 L 120 360 L 120 380 L 120 400 L 120 420 L 120 440 L 120 460 L 120 480 L 120 500 L 120 520 L 120 540 L 120 560 L 120 580 L 120 600 L 120 620 L 120 640 L 120 660 L 120 680 L 120 700 L 120 720 L 120 740 L 120 760 L 140 760 L 160 760 L 180 760 L 180 740 L 180 720 L 180 700 L 180 680 L 180 660 L 160 660 L 160 640 L 160 620 L 160 600 L 180 600 L 200 600 L 220 600 L 220 620 L 220 640 L 240 640 L 240 620 L 240 600 L 240 580 L 240 560 L 240 540 L 240 520 L 240 500 L 240 480 L 240 460 L 240 440 L 240 420 L 240 400 L 240 380 L 240 360 L 240 340 L 240 320 L 240 300 L 260 300 L 280 300 L 300 300 L 320 300 L 340 300 L 360 300 L 380 300 L 400 300 L 420 300 L 440 300 L 460 300 L 480 300 L 500 300 L 520 300 L 520 280 L 520 260 L 520 240 L 520 220 L 520 200 L 520 180 L 520 160 L 520 140 L 520 120 L 520 100 L 520 80 L 520 60 L 520 40 L 500 40 L 480 40 L 460 40 L 440 40 L 420 40 L 400 40 L 380 40 L 360 40 L 340 40 L 320 40 L 300 40 L 280 40 L 260 40 L 240 40 L 220 40 L 200 40 L 180 40 L 160 40 L 140 40 L 120 40 z M 160 120 L 180 120 L 200 120 L 220 120 L 220 140 L 220 160 L 220 180 L 200 180 L 180 180 L 160 180 L 160 160 L 160 140 L 160 120 z M 240 120 L 260 120 L 280 120 L 300 120 L 320 120 L 340 120 L 360 120 L 380 120 L 400 120 L 420 120 L 440 120 L 460 120 L 460 140 L 460 160 L 440 160 L 420 160 L 400 160 L 380 160 L 360 160 L 340 160 L 320 160 L 300 160 L 280 160 L 260 160 L 240 160 L 240 140 L 240 120 z M 160 240 L 180 240 L 200 240 L 220 240 L 220 260 L 220 280 L 220 300 L 200 300 L 180 300 L 160 300 L 160 280 L 160 260 L 160 240 z M 240 240 L 260 240 L 280 240 L 300 240 L 320 240 L 340 240 L 360 240 L 380 240 L 400 240 L 420 240 L 440 240 L 460 240 L 460 260 L 460 280 L 440 280 L 420 280 L 400 280 L 380 280 L 360 280 L 340 280 L 320 280 L 300 280 L 280 280 L 260 280 L 240 280 L 240 260 L 240 240 z M 160 360 L 180 360 L 200 360 L 220 360 L 220 380 L 220 400 L 220 420 L 200 420 L 180 420 L 160 420 L 160 400 L 160 380 L 160 360 z M 280 420 L 280 440 L 280 460 L 280 480 L 280 500 L 280 520 L 280 540 L 280 560 L 280 580 L 280 600 L 280 620 L 280 640 L 300 640 L 300 620 L 300 600 L 300 580 L 300 560 L 300 540 L 300 520 L 300 500 L 300 480 L 300 460 L 320 460 L 340 460 L 360 460 L 380 460 L 400 460 L 420 460 L 440 460 L 460 460 L 480 460 L 500 460 L 520 460 L 540 460 L 560 460 L 580 460 L 600 460 L 620 460 L 640 460 L 660 460 L 680 460 L 700 460 L 720 460 L 740 460 L 760 460 L 780 460 L 800 460 L 820 460 L 840 460 L 860 460 L 880 460 L 900 460 L 900 480 L 900 500 L 900 520 L 900 540 L 900 560 L 900 580 L 900 600 L 900 620 L 900 640 L 900 660 L 900 680 L 900 700 L 900 720 L 900 740 L 900 760 L 900 780 L 900 800 L 900 820 L 900 840 L 900 860 L 900 880 L 900 900 L 880 900 L 860 900 L 840 900 L 820 900 L 800 900 L 780 900 L 760 900 L 740 900 L 720 900 L 700 900 L 680 900 L 660 900 L 640 900 L 620 900 L 600 900 L 580 900 L 560 900 L 540 900 L 520 900 L 520 920 L 520 940 L 540 940 L 560 940 L 580 940 L 600 940 L 620 940 L 640 940 L 660 940 L 680 940 L 700 940 L 720 940 L 740 940 L 760 940 L 780 940 L 800 940 L 820 940 L 840 940 L 860 940 L 880 940 L 900 940 L 920 940 L 940 940 L 940 920 L 940 900 L 940 880 L 940 860 L 940 840 L 940 820 L 940 800 L 940 780 L 940 760 L 940 740 L 940 720 L 940 700 L 940 680 L 940 660 L 940 640 L 940 620 L 940 600 L 940 580 L 940 560 L 940 540 L 940 520 L 940 500 L 940 480 L 940 460 L 940 440 L 940 420 L 920 420 L 900 420 L 880 420 L 860 420 L 840 420 L 820 420 L 800 420 L 780 420 L 760 420 L 740 420 L 720 420 L 700 420 L 680 420 L 660 420 L 640 420 L 620 420 L 600 420 L 580 420 L 560 420 L 540 420 L 520 420 L 500 420 L 480 420 L 460 420 L 440 420 L 420 420 L 400 420 L 380 420 L 360 420 L 340 420 L 320 420 L 300 420 L 280 420 z M 160 480 L 180 480 L 200 480 L 220 480 L 220 500 L 220 520 L 220 540 L 200 540 L 180 540 L 160 540 L 160 520 L 160 500 L 160 480 z "
     style="fill:#c0c0c0" />
  <path
     id="rect3818"
     d="M 520 0 L 520 20 L 520 40 L 520 60 L 520 80 L 520 100 L 520 120 L 520 140 L 520 160 L 520 180 L 520 200 L 520 220 L 520 240 L 520 260 L 520 280 L 520 300 L 540 300 L 540 280 L 540 260 L 540 240 L 540 220 L 540 200 L 540 180 L 540 160 L 540 140 L 540 120 L 540 100 L 540 80 L 540 60 L 540 40 L 540 20 L 540 0 L 520 0 z M 940 300 L 940 320 L 940 340 L 940 360 L 920 360 L 920 380 L 920 400 L 900 400 L 880 400 L 880 380 L 880 360 L 860 360 L 860 380 L 860 400 L 840 400 L 820 400 L 820 380 L 820 360 L 800 360 L 800 380 L 800 400 L 780 400 L 760 400 L 760 420 L 780 420 L 800 420 L 820 420 L 840 420 L 860 420 L 880 420 L 900 420 L 920 420 L 940 420 L 940 440 L 940 460 L 940 480 L 940 500 L 940 520 L 940 540 L 940 560 L 940 580 L 940 600 L 940 620 L 940 640 L 940 660 L 940 680 L 940 700 L 940 720 L 940 740 L 940 760 L 940 780 L 940 800 L 940 820 L 940 840 L 940 860 L 940 880 L 940 900 L 940 920 L 940 940 L 920 940 L 900 940 L 880 940 L 860 940 L 840 940 L 820 940 L 800 940 L 780 940 L 760 940 L 740 940 L 720 940 L 700 940 L 680 940 L 660 940 L 640 940 L 620 940 L 600 940 L 580 940 L 560 940 L 540 940 L 520 940 L 520 920 L 520 900 L 520 880 L 520 860 L 520 840 L 520 820 L 520 800 L 520 780 L 520 760 L 520 740 L 520 720 L 520 700 L 520 680 L 520 660 L 520 640 L 500 640 L 480 640 L 480 660 L 480 680 L 480 700 L 480 720 L 480 740 L 480 760 L 480 780 L 480 800 L 480 820 L 480 840 L 480 860 L 480 880 L 480 900 L 480 920 L 480 940 L 460 940 L 440 940 L 420 940 L 400 940 L 380 940 L 360 940 L 340 940 L 320 940 L 300 940 L 280 940 L 260 940 L 240 940 L 220 940 L 200 940 L 180 940 L 180 960 L 200 960 L 220 960 L 240 960 L 260 960 L 280 960 L 300 960 L 320 960 L 340 960 L 360 960 L 380 960 L 400 960 L 420 960 L 440 960 L 460 960 L 480 960 L 500 960 L 520 960 L 540 960 L 560 960 L 580 960 L 600 960 L 620 960 L 640 960 L 660 960 L 680 960 L 700 960 L 720 960 L 740 960 L 760 960 L 780 960 L 800 960 L 820 960 L 840 960 L 860 960 L 880 960 L 900 960 L 920 960 L 940 960 L 960 960 L 960 940 L 960 920 L 960 900 L 960 880 L 960 860 L 960 840 L 960 820 L 960 800 L 960 780 L 960 760 L 960 740 L 960 720 L 960 700 L 960 680 L 960 660 L 960 640 L 960 620 L 960 600 L 960 580 L 960 560 L 960 540 L 960 520 L 960 500 L 960 480 L 960 460 L 960 440 L 960 420 L 960 400 L 960 380 L 960 360 L 960 340 L 960 320 L 960 300 L 940 300 z M 780 580 L 780 600 L 800 600 L 820 600 L 840 600 L 860 600 L 860 580 L 840 580 L 820 580 L 800 580 L 780 580 z M 300 700 L 300 720 L 320 720 L 320 740 L 320 760 L 300 760 L 300 780 L 280 780 L 280 800 L 280 820 L 280 840 L 280 860 L 280 880 L 300 880 L 300 860 L 300 840 L 320 840 L 320 820 L 340 820 L 340 800 L 360 800 L 360 780 L 380 780 L 380 800 L 400 800 L 400 820 L 420 820 L 420 800 L 420 780 L 420 760 L 420 740 L 420 720 L 420 700 L 400 700 L 380 700 L 360 700 L 340 700 L 320 700 L 300 700 z M 300 880 L 300 900 L 320 900 L 320 880 L 300 880 z M 0 760 L 0 780 L 20 780 L 40 780 L 60 780 L 80 780 L 100 780 L 120 780 L 140 780 L 160 780 L 180 780 L 180 760 L 160 760 L 140 760 L 120 760 L 100 760 L 80 760 L 60 760 L 40 760 L 20 760 L 0 760 z M 620 760 L 620 780 L 600 780 L 580 780 L 580 800 L 580 820 L 600 820 L 620 820 L 640 820 L 640 800 L 660 800 L 660 780 L 660 760 L 640 760 L 620 760 z M 800 780 L 800 800 L 800 820 L 820 820 L 840 820 L 860 820 L 860 800 L 880 800 L 880 780 L 860 780 L 840 780 L 820 780 L 800 780 z "
     style="fill:#000000" />
</svg>
