<?xml version="1.0" encoding="UTF-8" standalone="no"?>
<svg
   xmlns:dc="http://purl.org/dc/elements/1.1/"
   xmlns:cc="http://creativecommons.org/ns#"
   xmlns:rdf="http://www.w3.org/1999/02/22-rdf-syntax-ns#"
   xmlns:svg="http://www.w3.org/2000/svg"
   xmlns="http://www.w3.org/2000/svg"
   id="svg1890"
   width="960px"
   version="1.1"
   height="960px">
  <metadata
     id="metadata1894">
    <rdf:RDF>
      <cc:Work
         rdf:about="">
        <dc:format>image/svg+xml</dc:format>
        <dc:type
           rdf:resource="http://purl.org/dc/dcmitype/StillImage" />
      </cc:Work>
    </rdf:RDF>
  </metadata>
  <defs
     id="defs2" />
  <path
     style="fill:#ffffff"
     d="M 580 280 L 580 300 L 600 300 L 600 280 L 580 280 z M 600 300 L 600 320 L 620 320 L 620 300 L 600 300 z M 620 300 L 640 300 L 640 280 L 620 280 L 620 300 z M 640 300 L 640 320 L 660 320 L 660 300 L 640 300 z M 660 300 L 680 300 L 680 280 L 660 280 L 660 300 z M 680 300 L 680 320 L 700 320 L 700 300 L 680 300 z M 680 320 L 660 320 L 660 340 L 680 340 L 680 320 z M 640 320 L 620 320 L 620 340 L 640 340 L 640 320 z M 600 320 L 580 320 L 580 340 L 600 340 L 600 320 z M 580 340 L 560 340 L 560 360 L 580 360 L 580 340 z M 560 360 L 540 360 L 540 380 L 560 380 L 560 360 z M 560 380 L 560 400 L 580 400 L 580 380 L 560 380 z M 580 400 L 580 420 L 600 420 L 600 400 L 580 400 z M 580 420 L 560 420 L 560 440 L 580 440 L 580 420 z M 580 440 L 580 460 L 600 460 L 600 440 L 580 440 z M 600 460 L 600 480 L 620 480 L 620 460 L 600 460 z M 620 460 L 640 460 L 640 440 L 620 440 L 620 460 z M 640 460 L 640 480 L 660 480 L 660 460 L 640 460 z M 660 460 L 680 460 L 680 440 L 680 420 L 660 420 L 660 440 L 660 460 z M 660 420 L 660 400 L 640 400 L 640 420 L 660 420 z M 680 460 L 680 480 L 700 480 L 700 460 L 680 460 z M 700 480 L 700 500 L 720 500 L 720 480 L 700 480 z M 680 480 L 660 480 L 660 500 L 680 500 L 680 480 z M 660 500 L 640 500 L 640 520 L 660 520 L 660 500 z M 640 520 L 620 520 L 620 540 L 640 540 L 640 520 z M 640 540 L 640 560 L 660 560 L 660 540 L 640 540 z M 660 560 L 660 580 L 680 580 L 680 560 L 660 560 z M 640 560 L 620 560 L 620 580 L 640 580 L 640 560 z M 620 580 L 600 580 L 600 600 L 620 600 L 620 580 z M 620 600 L 620 620 L 640 620 L 640 600 L 620 600 z M 640 620 L 640 640 L 660 640 L 660 620 L 640 620 z M 640 640 L 620 640 L 620 660 L 640 660 L 640 640 z M 620 640 L 620 620 L 600 620 L 600 640 L 620 640 z M 600 640 L 580 640 L 580 660 L 600 660 L 600 640 z M 580 640 L 580 620 L 560 620 L 560 640 L 580 640 z M 560 640 L 540 640 L 540 660 L 560 660 L 560 640 z M 540 640 L 540 620 L 520 620 L 520 640 L 540 640 z M 520 640 L 500 640 L 500 660 L 520 660 L 520 640 z M 500 660 L 480 660 L 480 680 L 500 680 L 500 660 z M 480 680 L 460 680 L 460 700 L 480 700 L 480 680 z M 480 700 L 480 720 L 500 720 L 500 700 L 480 700 z M 500 720 L 500 740 L 520 740 L 520 720 L 500 720 z M 520 740 L 520 760 L 540 760 L 540 740 L 520 740 z M 520 760 L 500 760 L 500 780 L 520 780 L 520 760 z M 500 760 L 500 740 L 480 740 L 480 760 L 500 760 z M 480 760 L 460 760 L 460 780 L 480 780 L 480 760 z M 460 760 L 460 740 L 440 740 L 440 760 L 460 760 z M 440 740 L 440 720 L 420 720 L 420 740 L 440 740 z M 420 720 L 420 700 L 400 700 L 400 720 L 420 720 z M 400 720 L 380 720 L 380 740 L 400 740 L 400 720 z M 380 720 L 380 700 L 360 700 L 360 720 L 380 720 z M 360 700 L 360 680 L 340 680 L 340 700 L 360 700 z M 360 680 L 380 680 L 380 660 L 360 660 L 360 680 z M 360 660 L 360 640 L 340 640 L 340 660 L 360 660 z M 380 660 L 400 660 L 400 640 L 380 640 L 380 660 z M 400 640 L 420 640 L 420 620 L 400 620 L 400 640 z M 420 620 L 440 620 L 440 600 L 420 600 L 420 620 z M 420 600 L 420 580 L 400 580 L 400 600 L 420 600 z M 420 580 L 440 580 L 440 560 L 420 560 L 420 580 z M 420 560 L 420 540 L 400 540 L 400 560 L 420 560 z M 400 540 L 400 520 L 380 520 L 380 540 L 400 540 z M 380 520 L 380 500 L 360 500 L 360 520 L 380 520 z M 360 500 L 360 480 L 340 480 L 340 500 L 360 500 z M 340 480 L 340 460 L 320 460 L 320 480 L 340 480 z M 340 460 L 360 460 L 360 440 L 340 440 L 340 460 z M 360 460 L 360 480 L 380 480 L 380 460 L 360 460 z M 380 460 L 400 460 L 400 440 L 380 440 L 380 460 z M 400 440 L 420 440 L 420 420 L 400 420 L 400 440 z M 420 420 L 440 420 L 440 400 L 420 400 L 420 420 z M 440 420 L 440 440 L 460 440 L 460 420 L 440 420 z M 460 420 L 480 420 L 480 400 L 460 400 L 460 420 z M 480 400 L 500 400 L 500 380 L 480 380 L 480 400 z M 480 380 L 480 360 L 460 360 L 460 380 L 480 380 z M 480 360 L 500 360 L 500 340 L 480 340 L 480 360 z M 500 340 L 520 340 L 520 320 L 500 320 L 500 340 z M 520 340 L 520 360 L 540 360 L 540 340 L 520 340 z M 540 340 L 560 340 L 560 320 L 540 320 L 540 340 z M 560 320 L 580 320 L 580 300 L 560 300 L 560 320 z M 520 360 L 500 360 L 500 380 L 520 380 L 520 360 z M 520 380 L 520 400 L 540 400 L 540 380 L 520 380 z M 540 400 L 540 420 L 560 420 L 560 400 L 540 400 z M 540 420 L 520 420 L 520 440 L 540 440 L 540 420 z M 540 440 L 540 460 L 560 460 L 560 440 L 540 440 z M 560 460 L 560 480 L 580 480 L 580 460 L 560 460 z M 580 480 L 580 500 L 600 500 L 600 480 L 580 480 z M 600 500 L 600 520 L 620 520 L 620 500 L 600 500 z M 620 500 L 640 500 L 640 480 L 620 480 L 620 500 z M 600 520 L 580 520 L 580 540 L 600 540 L 600 520 z M 600 540 L 600 560 L 620 560 L 620 540 L 600 540 z M 600 560 L 580 560 L 580 580 L 600 580 L 600 560 z M 580 580 L 560 580 L 560 600 L 580 600 L 580 580 z M 580 600 L 580 620 L 600 620 L 600 600 L 580 600 z M 560 600 L 540 600 L 540 620 L 560 620 L 560 600 z M 540 600 L 540 580 L 520 580 L 520 600 L 540 600 z M 520 600 L 500 600 L 500 620 L 520 620 L 520 600 z M 500 620 L 480 620 L 480 640 L 500 640 L 500 620 z M 480 640 L 460 640 L 460 660 L 480 660 L 480 640 z M 460 660 L 440 660 L 440 680 L 460 680 L 460 660 z M 440 680 L 420 680 L 420 700 L 440 700 L 440 680 z M 440 700 L 440 720 L 460 720 L 460 700 L 440 700 z M 460 720 L 460 740 L 480 740 L 480 720 L 460 720 z M 420 680 L 420 660 L 400 660 L 400 680 L 420 680 z M 400 680 L 380 680 L 380 700 L 400 700 L 400 680 z M 420 660 L 440 660 L 440 640 L 420 640 L 420 660 z M 440 640 L 460 640 L 460 620 L 440 620 L 440 640 z M 460 620 L 480 620 L 480 600 L 460 600 L 460 620 z M 460 600 L 460 580 L 440 580 L 440 600 L 460 600 z M 460 580 L 480 580 L 480 560 L 460 560 L 460 580 z M 460 560 L 460 540 L 440 540 L 440 560 L 460 560 z M 440 540 L 440 520 L 420 520 L 420 540 L 440 540 z M 420 520 L 420 500 L 400 500 L 400 520 L 420 520 z M 400 500 L 400 480 L 380 480 L 380 500 L 400 500 z M 400 480 L 420 480 L 420 460 L 400 460 L 400 480 z M 420 460 L 440 460 L 440 440 L 420 440 L 420 460 z M 440 460 L 440 480 L 460 480 L 460 460 L 440 460 z M 460 460 L 480 460 L 480 440 L 460 440 L 460 460 z M 480 440 L 500 440 L 500 420 L 480 420 L 480 440 z M 500 420 L 520 420 L 520 400 L 500 400 L 500 420 z M 500 440 L 500 460 L 520 460 L 520 440 L 500 440 z M 520 460 L 520 480 L 540 480 L 540 460 L 520 460 z M 540 480 L 540 500 L 560 500 L 560 480 L 540 480 z M 560 500 L 560 520 L 580 520 L 580 500 L 560 500 z M 560 520 L 540 520 L 540 540 L 560 540 L 560 520 z M 560 540 L 560 560 L 580 560 L 580 540 L 560 540 z M 560 560 L 540 560 L 540 580 L 560 580 L 560 560 z M 540 560 L 540 540 L 520 540 L 520 560 L 540 560 z M 520 560 L 500 560 L 500 580 L 520 580 L 520 560 z M 500 580 L 480 580 L 480 600 L 500 600 L 500 580 z M 500 560 L 500 540 L 480 540 L 480 560 L 500 560 z M 480 540 L 480 520 L 460 520 L 460 540 L 480 540 z M 460 520 L 460 500 L 440 500 L 440 520 L 460 520 z M 440 500 L 440 480 L 420 480 L 420 500 L 440 500 z M 460 500 L 480 500 L 480 480 L 460 480 L 460 500 z M 480 480 L 500 480 L 500 460 L 480 460 L 480 480 z M 500 480 L 500 500 L 520 500 L 520 480 L 500 480 z M 520 500 L 520 520 L 540 520 L 540 500 L 520 500 z M 520 520 L 500 520 L 500 540 L 520 540 L 520 520 z M 500 520 L 500 500 L 480 500 L 480 520 L 500 520 z "
     id="rect1672" />
  <path
     style="fill:#808080"
     d="M 620 340 L 620 360 L 640 360 L 640 340 L 620 340 z M 640 360 L 640 380 L 660 380 L 660 360 L 640 360 z M 660 360 L 680 360 L 680 380 L 700 380 L 700 360 L 700 340 L 680 340 L 660 340 L 660 360 z M 680 380 L 660 380 L 660 400 L 680 400 L 680 380 z M 620 360 L 600 360 L 600 380 L 620 380 L 620 360 z M 680 560 L 680 580 L 680 600 L 680 620 L 700 620 L 700 600 L 700 580 L 700 560 L 680 560 z M 640 580 L 640 600 L 660 600 L 660 580 L 640 580 z M 540 700 L 540 720 L 560 720 L 580 720 L 580 700 L 560 700 L 540 700 z M 580 760 L 580 780 L 600 780 L 600 760 L 580 760 z "
     id="rect1680" />
  <path
     style="fill:#c0c0c0"
     d="M 580 260 L 580 280 L 600 280 L 600 300 L 620 300 L 620 280 L 640 280 L 640 300 L 660 300 L 660 280 L 680 280 L 680 260 L 660 260 L 640 260 L 620 260 L 600 260 L 580 260 z M 680 280 L 680 300 L 700 300 L 700 320 L 680 320 L 680 340 L 700 340 L 720 340 L 720 320 L 720 300 L 720 280 L 700 280 L 680 280 z M 680 320 L 680 300 L 660 300 L 660 320 L 680 320 z M 660 320 L 640 320 L 640 340 L 660 340 L 660 320 z M 640 320 L 640 300 L 620 300 L 620 320 L 640 320 z M 620 320 L 600 320 L 600 340 L 620 340 L 620 320 z M 600 340 L 580 340 L 580 360 L 600 360 L 600 340 z M 580 360 L 560 360 L 560 380 L 580 380 L 580 360 z M 580 380 L 580 400 L 600 400 L 620 400 L 640 400 L 660 400 L 660 380 L 640 380 L 620 380 L 600 380 L 580 380 z M 660 380 L 680 380 L 680 360 L 660 360 L 660 380 z M 660 400 L 660 420 L 680 420 L 680 440 L 680 460 L 700 460 L 700 480 L 720 480 L 720 460 L 720 440 L 700 440 L 700 420 L 700 400 L 680 400 L 660 400 z M 720 480 L 720 500 L 700 500 L 700 480 L 680 480 L 680 500 L 660 500 L 660 520 L 680 520 L 700 520 L 720 520 L 740 520 L 740 500 L 740 480 L 720 480 z M 660 520 L 640 520 L 640 540 L 660 540 L 660 520 z M 660 540 L 660 560 L 680 560 L 700 560 L 700 540 L 680 540 L 660 540 z M 660 560 L 640 560 L 640 580 L 660 580 L 660 560 z M 640 580 L 620 580 L 620 600 L 640 600 L 640 580 z M 640 600 L 640 620 L 660 620 L 660 640 L 640 640 L 640 660 L 620 660 L 620 640 L 600 640 L 600 660 L 580 660 L 580 640 L 560 640 L 560 660 L 540 660 L 540 640 L 520 640 L 520 660 L 500 660 L 500 680 L 480 680 L 480 700 L 500 700 L 500 720 L 520 720 L 520 740 L 540 740 L 540 760 L 520 760 L 520 780 L 500 780 L 500 760 L 480 760 L 480 780 L 460 780 L 460 800 L 480 800 L 500 800 L 500 820 L 520 820 L 540 820 L 540 800 L 560 800 L 560 780 L 580 780 L 580 760 L 580 740 L 580 720 L 560 720 L 540 720 L 540 700 L 520 700 L 520 680 L 540 680 L 560 680 L 580 680 L 600 680 L 620 680 L 640 680 L 660 680 L 660 660 L 680 660 L 680 640 L 700 640 L 700 620 L 680 620 L 680 600 L 660 600 L 640 600 z M 460 780 L 460 760 L 440 760 L 440 740 L 420 740 L 420 720 L 400 720 L 400 740 L 380 740 L 380 760 L 400 760 L 420 760 L 420 780 L 440 780 L 460 780 z M 380 740 L 380 720 L 360 720 L 360 700 L 340 700 L 340 720 L 340 740 L 360 740 L 380 740 z M 360 700 L 380 700 L 380 680 L 360 680 L 360 700 z M 360 680 L 360 660 L 340 660 L 340 680 L 360 680 z M 360 660 L 380 660 L 380 640 L 360 640 L 360 660 z M 380 640 L 400 640 L 400 620 L 380 620 L 380 640 z M 400 620 L 420 620 L 420 600 L 400 600 L 400 620 z M 420 600 L 440 600 L 440 580 L 420 580 L 420 600 z M 420 580 L 420 560 L 400 560 L 400 540 L 380 540 L 380 520 L 360 520 L 360 500 L 340 500 L 340 480 L 320 480 L 320 500 L 320 520 L 340 520 L 340 540 L 360 540 L 360 560 L 380 560 L 380 580 L 400 580 L 420 580 z M 340 480 L 360 480 L 360 460 L 340 460 L 340 480 z M 340 460 L 340 440 L 320 440 L 320 460 L 340 460 z M 360 460 L 380 460 L 380 440 L 400 440 L 400 420 L 380 420 L 360 420 L 360 440 L 360 460 z M 400 420 L 420 420 L 420 400 L 400 400 L 400 420 z M 420 420 L 420 440 L 440 440 L 440 420 L 420 420 z M 440 420 L 460 420 L 460 400 L 480 400 L 480 380 L 460 380 L 440 380 L 440 400 L 440 420 z M 480 380 L 500 380 L 500 360 L 480 360 L 480 380 z M 480 360 L 480 340 L 460 340 L 460 360 L 480 360 z M 480 340 L 500 340 L 500 320 L 480 320 L 480 340 z M 500 320 L 520 320 L 520 340 L 540 340 L 540 320 L 560 320 L 560 300 L 580 300 L 580 280 L 560 280 L 540 280 L 540 300 L 520 300 L 500 300 L 500 320 z M 580 300 L 580 320 L 600 320 L 600 300 L 580 300 z M 580 320 L 560 320 L 560 340 L 580 340 L 580 320 z M 560 340 L 540 340 L 540 360 L 560 360 L 560 340 z M 540 360 L 520 360 L 520 380 L 540 380 L 540 360 z M 540 380 L 540 400 L 560 400 L 560 380 L 540 380 z M 560 400 L 560 420 L 580 420 L 580 400 L 560 400 z M 580 420 L 580 440 L 600 440 L 600 420 L 580 420 z M 600 440 L 600 460 L 620 460 L 620 440 L 600 440 z M 620 460 L 620 480 L 640 480 L 640 460 L 620 460 z M 640 460 L 660 460 L 660 440 L 660 420 L 640 420 L 640 440 L 640 460 z M 660 460 L 660 480 L 680 480 L 680 460 L 660 460 z M 660 480 L 640 480 L 640 500 L 660 500 L 660 480 z M 640 500 L 620 500 L 620 520 L 640 520 L 640 500 z M 620 520 L 600 520 L 600 540 L 620 540 L 620 520 z M 620 540 L 620 560 L 640 560 L 640 540 L 620 540 z M 620 560 L 600 560 L 600 580 L 620 580 L 620 560 z M 600 580 L 580 580 L 580 600 L 600 600 L 600 580 z M 600 600 L 600 620 L 620 620 L 620 600 L 600 600 z M 620 620 L 620 640 L 640 640 L 640 620 L 620 620 z M 600 620 L 580 620 L 580 640 L 600 640 L 600 620 z M 580 620 L 580 600 L 560 600 L 560 620 L 580 620 z M 560 620 L 540 620 L 540 640 L 560 640 L 560 620 z M 540 620 L 540 600 L 520 600 L 520 620 L 540 620 z M 520 620 L 500 620 L 500 640 L 520 640 L 520 620 z M 500 640 L 480 640 L 480 660 L 500 660 L 500 640 z M 480 660 L 460 660 L 460 680 L 480 680 L 480 660 z M 460 680 L 440 680 L 440 700 L 460 700 L 460 680 z M 460 700 L 460 720 L 480 720 L 480 700 L 460 700 z M 480 720 L 480 740 L 500 740 L 500 720 L 480 720 z M 500 740 L 500 760 L 520 760 L 520 740 L 500 740 z M 480 740 L 460 740 L 460 760 L 480 760 L 480 740 z M 460 740 L 460 720 L 440 720 L 440 740 L 460 740 z M 440 720 L 440 700 L 420 700 L 420 720 L 440 720 z M 420 700 L 420 680 L 400 680 L 400 700 L 420 700 z M 400 700 L 380 700 L 380 720 L 400 720 L 400 700 z M 400 680 L 400 660 L 380 660 L 380 680 L 400 680 z M 400 660 L 420 660 L 420 640 L 400 640 L 400 660 z M 420 640 L 440 640 L 440 620 L 420 620 L 420 640 z M 440 620 L 460 620 L 460 600 L 440 600 L 440 620 z M 460 600 L 480 600 L 480 580 L 460 580 L 460 600 z M 460 580 L 460 560 L 440 560 L 440 580 L 460 580 z M 440 560 L 440 540 L 420 540 L 420 560 L 440 560 z M 420 540 L 420 520 L 400 520 L 400 540 L 420 540 z M 400 520 L 400 500 L 380 500 L 380 520 L 400 520 z M 380 500 L 380 480 L 360 480 L 360 500 L 380 500 z M 380 480 L 400 480 L 400 460 L 380 460 L 380 480 z M 400 460 L 420 460 L 420 440 L 400 440 L 400 460 z M 420 460 L 420 480 L 440 480 L 440 460 L 420 460 z M 440 460 L 460 460 L 460 440 L 440 440 L 440 460 z M 460 440 L 480 440 L 480 420 L 460 420 L 460 440 z M 480 420 L 500 420 L 500 400 L 480 400 L 480 420 z M 500 400 L 520 400 L 520 380 L 500 380 L 500 400 z M 520 400 L 520 420 L 540 420 L 540 400 L 520 400 z M 540 420 L 540 440 L 560 440 L 560 420 L 540 420 z M 560 440 L 560 460 L 580 460 L 580 440 L 560 440 z M 580 460 L 580 480 L 600 480 L 600 460 L 580 460 z M 600 480 L 600 500 L 620 500 L 620 480 L 600 480 z M 600 500 L 580 500 L 580 520 L 600 520 L 600 500 z M 580 520 L 560 520 L 560 540 L 580 540 L 580 520 z M 580 540 L 580 560 L 600 560 L 600 540 L 580 540 z M 580 560 L 560 560 L 560 580 L 580 580 L 580 560 z M 560 580 L 540 580 L 540 600 L 560 600 L 560 580 z M 540 580 L 540 560 L 520 560 L 520 580 L 540 580 z M 520 580 L 500 580 L 500 600 L 520 600 L 520 580 z M 500 600 L 480 600 L 480 620 L 500 620 L 500 600 z M 480 620 L 460 620 L 460 640 L 480 640 L 480 620 z M 460 640 L 440 640 L 440 660 L 460 660 L 460 640 z M 440 660 L 420 660 L 420 680 L 440 680 L 440 660 z M 500 580 L 500 560 L 480 560 L 480 580 L 500 580 z M 480 560 L 480 540 L 460 540 L 460 560 L 480 560 z M 460 540 L 460 520 L 440 520 L 440 540 L 460 540 z M 440 520 L 440 500 L 420 500 L 420 520 L 440 520 z M 420 500 L 420 480 L 400 480 L 400 500 L 420 500 z M 440 500 L 460 500 L 460 480 L 440 480 L 440 500 z M 460 480 L 480 480 L 480 460 L 460 460 L 460 480 z M 480 460 L 500 460 L 500 440 L 480 440 L 480 460 z M 500 440 L 520 440 L 520 420 L 500 420 L 500 440 z M 520 440 L 520 460 L 540 460 L 540 440 L 520 440 z M 540 460 L 540 480 L 560 480 L 560 460 L 540 460 z M 560 480 L 560 500 L 580 500 L 580 480 L 560 480 z M 560 500 L 540 500 L 540 520 L 560 520 L 560 500 z M 540 520 L 520 520 L 520 540 L 540 540 L 540 520 z M 540 540 L 540 560 L 560 560 L 560 540 L 540 540 z M 520 540 L 500 540 L 500 560 L 520 560 L 520 540 z M 500 540 L 500 520 L 480 520 L 480 540 L 500 540 z M 480 520 L 480 500 L 460 500 L 460 520 L 480 520 z M 480 500 L 500 500 L 500 480 L 480 480 L 480 500 z M 500 480 L 520 480 L 520 460 L 500 460 L 500 480 z M 520 480 L 520 500 L 540 500 L 540 480 L 520 480 z M 520 500 L 500 500 L 500 520 L 520 520 L 520 500 z M 520 360 L 520 340 L 500 340 L 500 360 L 520 360 z "
     id="rect1746" />
  <path
     style="fill:#000080"
     d="M 300 720 L 300 740 L 300 760 L 320 760 L 320 740 L 340 740 L 340 720 L 320 720 L 300 720 z M 340 740 L 340 760 L 360 760 L 380 760 L 380 740 L 360 740 L 340 740 z M 380 760 L 380 780 L 400 780 L 420 780 L 420 760 L 400 760 L 380 760 z M 420 780 L 420 800 L 440 800 L 440 820 L 460 820 L 460 840 L 480 840 L 480 820 L 500 820 L 500 800 L 480 800 L 460 800 L 460 780 L 440 780 L 420 780 z M 500 820 L 500 840 L 520 840 L 520 860 L 540 860 L 540 840 L 540 820 L 520 820 L 500 820 z M 540 820 L 560 820 L 560 800 L 540 800 L 540 820 z M 560 800 L 580 800 L 600 800 L 600 780 L 580 780 L 560 780 L 560 800 z M 600 800 L 600 820 L 620 820 L 620 800 L 600 800 z M 620 820 L 620 840 L 640 840 L 640 820 L 620 820 z M 640 840 L 640 860 L 660 860 L 660 840 L 640 840 z M 620 840 L 600 840 L 580 840 L 580 860 L 600 860 L 620 860 L 620 840 z M 500 840 L 480 840 L 480 860 L 500 860 L 500 840 z M 460 840 L 440 840 L 440 860 L 460 860 L 460 840 z M 440 840 L 440 820 L 420 820 L 420 840 L 440 840 z M 420 840 L 400 840 L 400 860 L 420 860 L 420 840 z M 400 840 L 400 820 L 380 820 L 380 840 L 400 840 z M 380 840 L 360 840 L 360 860 L 380 860 L 380 840 z M 360 840 L 360 820 L 340 820 L 340 840 L 360 840 z M 340 840 L 320 840 L 320 860 L 340 860 L 340 840 z M 360 820 L 380 820 L 380 800 L 360 800 L 360 820 z M 400 820 L 420 820 L 420 800 L 400 800 L 400 820 z M 300 760 L 280 760 L 280 780 L 280 800 L 300 800 L 300 780 L 300 760 z M 280 800 L 260 800 L 260 820 L 260 840 L 280 840 L 280 820 L 280 800 z M 280 840 L 280 860 L 300 860 L 300 840 L 280 840 z M 260 840 L 240 840 L 240 860 L 260 860 L 260 840 z "
     id="rect1842" />
  <path
     style="fill:#0000ff"
     d="M 320 740 L 320 760 L 300 760 L 300 780 L 300 800 L 280 800 L 280 820 L 280 840 L 300 840 L 300 860 L 320 860 L 320 840 L 340 840 L 340 820 L 360 820 L 360 800 L 380 800 L 380 820 L 400 820 L 400 800 L 420 800 L 420 780 L 400 780 L 380 780 L 380 760 L 360 760 L 340 760 L 340 740 L 320 740 z M 420 800 L 420 820 L 440 820 L 440 800 L 420 800 z M 440 820 L 440 840 L 460 840 L 460 820 L 440 820 z M 460 840 L 460 860 L 480 860 L 480 840 L 460 840 z M 480 840 L 500 840 L 500 820 L 480 820 L 480 840 z M 500 840 L 500 860 L 520 860 L 520 840 L 500 840 z M 440 840 L 420 840 L 420 860 L 440 860 L 440 840 z M 420 840 L 420 820 L 400 820 L 400 840 L 420 840 z M 400 840 L 380 840 L 380 860 L 400 860 L 400 840 z M 380 840 L 380 820 L 360 820 L 360 840 L 380 840 z M 360 840 L 340 840 L 340 860 L 360 860 L 360 840 z M 280 840 L 260 840 L 260 860 L 280 860 L 280 840 z M 600 780 L 600 800 L 620 800 L 620 780 L 600 780 z M 620 800 L 620 820 L 640 820 L 640 800 L 620 800 z M 640 820 L 640 840 L 660 840 L 660 820 L 640 820 z M 660 840 L 660 860 L 680 860 L 680 840 L 660 840 z M 640 840 L 620 840 L 620 860 L 640 860 L 640 840 z M 620 840 L 620 820 L 600 820 L 600 800 L 580 800 L 560 800 L 560 820 L 540 820 L 540 840 L 560 840 L 560 860 L 580 860 L 580 840 L 600 840 L 620 840 z "
     id="rect1844" />
  <path
     style="fill:#000000"
     d="M 440 80 L 440 100 L 420 100 L 400 100 L 380 100 L 380 120 L 360 120 L 340 120 L 320 120 L 320 140 L 300 140 L 280 140 L 280 160 L 260 160 L 260 180 L 240 180 L 240 200 L 220 200 L 220 220 L 200 220 L 200 240 L 200 260 L 180 260 L 180 280 L 180 300 L 160 300 L 160 320 L 160 340 L 160 360 L 160 380 L 160 400 L 160 420 L 160 440 L 160 460 L 160 480 L 160 500 L 160 520 L 180 520 L 180 540 L 180 560 L 200 560 L 200 580 L 200 600 L 220 600 L 220 620 L 240 620 L 240 640 L 260 640 L 260 660 L 280 660 L 300 660 L 320 660 L 320 680 L 320 700 L 320 720 L 340 720 L 340 700 L 340 680 L 340 660 L 340 640 L 360 640 L 380 640 L 380 620 L 400 620 L 400 600 L 400 580 L 380 580 L 380 560 L 360 560 L 360 540 L 340 540 L 340 520 L 320 520 L 320 500 L 320 480 L 320 460 L 320 440 L 340 440 L 360 440 L 360 420 L 380 420 L 400 420 L 400 400 L 420 400 L 440 400 L 440 380 L 460 380 L 460 360 L 460 340 L 480 340 L 480 320 L 500 320 L 500 300 L 520 300 L 540 300 L 540 280 L 560 280 L 580 280 L 580 260 L 600 260 L 620 260 L 640 260 L 660 260 L 680 260 L 680 280 L 700 280 L 720 280 L 720 300 L 720 320 L 720 340 L 740 340 L 740 320 L 740 300 L 740 280 L 760 280 L 760 260 L 780 260 L 780 240 L 780 220 L 780 200 L 780 180 L 760 180 L 740 180 L 740 160 L 720 160 L 720 140 L 700 140 L 680 140 L 680 120 L 660 120 L 640 120 L 620 120 L 620 100 L 600 100 L 580 100 L 560 100 L 540 100 L 520 100 L 520 80 L 500 80 L 480 80 L 460 80 L 440 80 z M 720 340 L 700 340 L 700 360 L 700 380 L 720 380 L 720 360 L 720 340 z M 700 380 L 680 380 L 680 400 L 700 400 L 700 380 z M 700 400 L 700 420 L 700 440 L 720 440 L 720 420 L 720 400 L 700 400 z M 720 440 L 720 460 L 720 480 L 740 480 L 740 460 L 740 440 L 720 440 z M 740 480 L 740 500 L 740 520 L 760 520 L 760 500 L 760 480 L 740 480 z M 740 520 L 720 520 L 700 520 L 680 520 L 660 520 L 660 540 L 680 540 L 700 540 L 700 560 L 700 580 L 700 600 L 700 620 L 700 640 L 720 640 L 720 620 L 720 600 L 720 580 L 720 560 L 720 540 L 740 540 L 740 520 z M 700 640 L 680 640 L 680 660 L 700 660 L 700 640 z M 680 660 L 660 660 L 660 680 L 680 680 L 680 660 z M 660 680 L 640 680 L 620 680 L 600 680 L 580 680 L 560 680 L 540 680 L 520 680 L 520 700 L 540 700 L 560 700 L 580 700 L 580 720 L 580 740 L 580 760 L 600 760 L 600 780 L 620 780 L 620 760 L 620 740 L 600 740 L 600 720 L 600 700 L 620 700 L 640 700 L 660 700 L 660 680 z M 620 780 L 620 800 L 640 800 L 640 780 L 620 780 z M 640 800 L 640 820 L 660 820 L 660 800 L 640 800 z M 660 820 L 660 840 L 680 840 L 680 820 L 660 820 z M 680 840 L 680 860 L 700 860 L 700 840 L 680 840 z M 680 860 L 660 860 L 640 860 L 620 860 L 600 860 L 580 860 L 560 860 L 560 840 L 540 840 L 540 860 L 520 860 L 500 860 L 480 860 L 460 860 L 440 860 L 420 860 L 400 860 L 380 860 L 360 860 L 340 860 L 320 860 L 300 860 L 280 860 L 260 860 L 260 880 L 280 880 L 300 880 L 320 880 L 340 880 L 360 880 L 380 880 L 400 880 L 420 880 L 440 880 L 460 880 L 480 880 L 500 880 L 520 880 L 540 880 L 560 880 L 580 880 L 600 880 L 620 880 L 640 880 L 660 880 L 680 880 L 680 860 z M 600 340 L 600 360 L 620 360 L 620 340 L 600 340 z M 620 360 L 620 380 L 640 380 L 640 360 L 620 360 z M 640 360 L 660 360 L 660 340 L 640 340 L 640 360 z M 600 360 L 580 360 L 580 380 L 600 380 L 600 360 z M 600 400 L 600 420 L 600 440 L 620 440 L 640 440 L 640 420 L 640 400 L 620 400 L 600 400 z M 660 580 L 660 600 L 680 600 L 680 580 L 660 580 z "
     id="rect1888" />
</svg>
