<?xml version="1.0" encoding="UTF-8" standalone="no"?>
<svg
   xmlns:dc="http://purl.org/dc/elements/1.1/"
   xmlns:cc="http://creativecommons.org/ns#"
   xmlns:rdf="http://www.w3.org/1999/02/22-rdf-syntax-ns#"
   xmlns:svg="http://www.w3.org/2000/svg"
   xmlns="http://www.w3.org/2000/svg"
   id="svg1948"
   width="960px"
   version="1.1"
   height="960px">
  <metadata
     id="metadata1952">
    <rdf:RDF>
      <cc:Work
         rdf:about="">
        <dc:format>image/svg+xml</dc:format>
        <dc:type
           rdf:resource="http://purl.org/dc/dcmitype/StillImage" />
      </cc:Work>
    </rdf:RDF>
  </metadata>
  <defs
     id="defs2" />
  <path
     style="fill:#aadfaa"
     d="M 500 280 L 500 300 L 520 300 L 520 280 L 500 280 z M 500 380 L 500 400 L 520 400 L 520 380 L 500 380 z M 500 480 L 500 500 L 520 500 L 520 480 L 500 480 z "
     id="rect1056" />
  <path
     style="fill:#d4dfaa"
     d="M 320 220 L 320 240 L 320 260 L 320 280 L 320 300 L 320 320 L 320 340 L 320 360 L 320 380 L 320 400 L 320 420 L 320 440 L 320 460 L 320 480 L 320 500 L 320 520 L 340 520 L 360 520 L 380 520 L 400 520 L 420 520 L 440 520 L 460 520 L 480 520 L 500 520 L 520 520 L 540 520 L 560 520 L 580 520 L 600 520 L 620 520 L 640 520 L 640 500 L 640 480 L 640 460 L 640 440 L 640 420 L 640 400 L 640 380 L 640 360 L 640 340 L 640 320 L 640 300 L 640 280 L 640 260 L 640 240 L 640 220 L 620 220 L 600 220 L 600 240 L 600 260 L 600 280 L 620 280 L 620 300 L 600 300 L 580 300 L 560 300 L 540 300 L 540 280 L 540 260 L 540 240 L 540 220 L 520 220 L 500 220 L 500 240 L 500 260 L 500 280 L 520 280 L 520 300 L 500 300 L 480 300 L 460 300 L 440 300 L 420 300 L 420 280 L 440 280 L 440 260 L 440 240 L 440 220 L 420 220 L 400 220 L 400 240 L 400 260 L 400 280 L 400 300 L 380 300 L 360 300 L 340 300 L 340 280 L 340 260 L 340 240 L 340 220 L 320 220 z M 340 320 L 360 320 L 380 320 L 400 320 L 400 340 L 400 360 L 400 380 L 400 400 L 380 400 L 360 400 L 340 400 L 340 380 L 340 360 L 340 340 L 340 320 z M 440 320 L 460 320 L 480 320 L 500 320 L 500 340 L 500 360 L 500 380 L 520 380 L 520 400 L 500 400 L 480 400 L 460 400 L 440 400 L 420 400 L 420 380 L 440 380 L 440 360 L 440 340 L 440 320 z M 540 320 L 560 320 L 580 320 L 600 320 L 600 340 L 600 360 L 600 380 L 620 380 L 620 400 L 600 400 L 580 400 L 560 400 L 540 400 L 540 380 L 540 360 L 540 340 L 540 320 z M 340 420 L 360 420 L 380 420 L 400 420 L 400 440 L 400 460 L 400 480 L 400 500 L 380 500 L 360 500 L 340 500 L 340 480 L 340 460 L 340 440 L 340 420 z M 440 420 L 460 420 L 480 420 L 500 420 L 500 440 L 500 460 L 500 480 L 520 480 L 520 500 L 500 500 L 480 500 L 460 500 L 440 500 L 420 500 L 420 480 L 440 480 L 440 460 L 440 440 L 440 420 z M 540 420 L 560 420 L 580 420 L 600 420 L 600 440 L 600 460 L 600 480 L 620 480 L 620 500 L 600 500 L 580 500 L 560 500 L 540 500 L 540 480 L 540 460 L 540 440 L 540 420 z "
     id="rect1122" />
  <path
     style="fill:#7f7f55"
     d="M 600 580 L 600 600 L 620 600 L 620 580 L 600 580 z "
     id="rect1336" />
  <path
     style="fill:#aabfaa"
     d="M 300 200 L 300 220 L 300 240 L 300 260 L 300 280 L 300 300 L 300 320 L 300 340 L 300 360 L 300 380 L 300 400 L 300 420 L 300 440 L 300 460 L 300 480 L 300 500 L 300 520 L 320 520 L 320 500 L 320 480 L 320 460 L 320 440 L 320 420 L 320 400 L 320 380 L 320 360 L 320 340 L 320 320 L 320 300 L 320 280 L 320 260 L 320 240 L 320 220 L 340 220 L 360 220 L 380 220 L 400 220 L 420 220 L 440 220 L 460 220 L 480 220 L 500 220 L 520 220 L 540 220 L 560 220 L 580 220 L 600 220 L 620 220 L 640 220 L 640 200 L 620 200 L 600 200 L 580 200 L 560 200 L 540 200 L 520 200 L 500 200 L 480 200 L 460 200 L 440 200 L 420 200 L 400 200 L 380 200 L 360 200 L 340 200 L 320 200 L 300 200 z M 420 280 L 420 300 L 440 300 L 440 280 L 420 280 z M 600 280 L 600 300 L 620 300 L 620 280 L 600 280 z M 660 280 L 660 300 L 660 320 L 660 340 L 660 360 L 660 380 L 660 400 L 660 420 L 660 440 L 660 460 L 660 480 L 660 500 L 660 520 L 660 540 L 660 560 L 660 580 L 660 600 L 660 620 L 660 640 L 660 660 L 680 660 L 680 640 L 680 620 L 680 600 L 680 580 L 680 560 L 680 540 L 680 520 L 680 500 L 680 480 L 680 460 L 680 440 L 680 420 L 680 400 L 680 380 L 680 360 L 680 340 L 680 320 L 680 300 L 680 280 L 660 280 z M 260 340 L 260 360 L 260 380 L 260 400 L 260 420 L 260 440 L 260 460 L 260 480 L 260 500 L 260 520 L 260 540 L 260 560 L 260 580 L 260 600 L 280 600 L 280 580 L 280 560 L 280 540 L 280 520 L 280 500 L 280 480 L 280 460 L 280 440 L 280 420 L 280 400 L 280 380 L 280 360 L 280 340 L 260 340 z M 420 380 L 420 400 L 440 400 L 440 380 L 420 380 z M 600 380 L 600 400 L 620 400 L 620 380 L 600 380 z M 420 480 L 420 500 L 440 500 L 440 480 L 420 480 z M 600 480 L 600 500 L 620 500 L 620 480 L 600 480 z M 360 520 L 360 540 L 380 540 L 400 540 L 420 540 L 440 540 L 460 540 L 480 540 L 500 540 L 520 540 L 540 540 L 560 540 L 580 540 L 600 540 L 600 520 L 580 520 L 560 520 L 540 520 L 520 520 L 500 520 L 480 520 L 460 520 L 440 520 L 420 520 L 400 520 L 380 520 L 360 520 z M 620 520 L 620 540 L 640 540 L 640 520 L 620 520 z M 620 640 L 620 660 L 640 660 L 640 640 L 620 640 z M 400 680 L 400 700 L 420 700 L 440 700 L 440 720 L 440 740 L 460 740 L 460 720 L 460 700 L 480 700 L 480 720 L 500 720 L 500 700 L 520 700 L 540 700 L 560 700 L 560 680 L 540 680 L 520 680 L 500 680 L 480 680 L 460 680 L 440 680 L 420 680 L 400 680 z M 240 720 L 240 740 L 260 740 L 260 720 L 240 720 z M 480 740 L 480 760 L 500 760 L 500 740 L 480 740 z M 220 760 L 220 780 L 240 780 L 240 760 L 220 760 z M 440 760 L 440 780 L 460 780 L 460 760 L 440 760 z "
     id="rect1806" />
  <path
     style="fill:#553f55"
     d="M 320 540 L 320 560 L 320 580 L 340 580 L 360 580 L 360 560 L 360 540 L 340 540 L 320 540 z M 600 540 L 600 560 L 600 580 L 620 580 L 620 560 L 620 540 L 600 540 z M 320 600 L 320 620 L 320 640 L 340 640 L 360 640 L 360 620 L 360 600 L 340 600 L 320 600 z M 600 600 L 600 620 L 600 640 L 620 640 L 620 620 L 620 600 L 600 600 z M 280 720 L 280 740 L 280 760 L 300 760 L 320 760 L 320 740 L 320 720 L 300 720 L 280 720 z M 460 720 L 460 740 L 480 740 L 480 720 L 460 720 z M 620 720 L 620 740 L 640 740 L 640 760 L 660 760 L 660 740 L 680 740 L 680 720 L 660 720 L 640 720 L 620 720 z M 360 740 L 360 760 L 380 760 L 400 760 L 420 760 L 420 740 L 400 740 L 380 740 L 360 740 z M 540 740 L 540 760 L 560 760 L 580 760 L 580 740 L 560 740 L 540 740 z M 460 760 L 460 780 L 480 780 L 480 760 L 460 760 z "
     id="rect1808" />
  <path
     style="fill:#c0dcc0"
     d="M 220 120 L 220 140 L 220 160 L 220 180 L 220 200 L 240 200 L 240 220 L 240 240 L 240 260 L 240 280 L 240 300 L 260 300 L 260 280 L 260 260 L 260 240 L 260 220 L 260 200 L 260 180 L 260 160 L 240 160 L 240 140 L 240 120 L 220 120 z M 500 120 L 500 140 L 520 140 L 540 140 L 540 120 L 520 120 L 500 120 z M 400 140 L 400 160 L 420 160 L 440 160 L 460 160 L 480 160 L 480 140 L 460 140 L 440 140 L 420 140 L 400 140 z M 660 200 L 660 220 L 660 240 L 660 260 L 660 280 L 680 280 L 680 260 L 680 240 L 680 220 L 680 200 L 660 200 z M 240 640 L 240 660 L 240 680 L 240 700 L 240 720 L 260 720 L 260 700 L 260 680 L 260 660 L 260 640 L 240 640 z M 500 720 L 500 740 L 500 760 L 500 780 L 520 780 L 520 760 L 520 740 L 520 720 L 500 720 z "
     id="rect1812" />
  <path
     style="fill:#a0a0a4"
     d="M 700 120 L 700 140 L 720 140 L 720 120 L 700 120 z M 260 180 L 260 200 L 260 220 L 260 240 L 260 260 L 260 280 L 260 300 L 260 320 L 260 340 L 280 340 L 280 320 L 280 300 L 280 280 L 280 260 L 280 240 L 280 220 L 280 200 L 280 180 L 260 180 z M 680 200 L 680 220 L 680 240 L 680 260 L 680 280 L 680 300 L 680 320 L 700 320 L 700 300 L 700 280 L 700 260 L 700 240 L 700 220 L 700 200 L 680 200 z M 340 220 L 340 240 L 360 240 L 360 220 L 340 220 z M 380 220 L 380 240 L 400 240 L 400 220 L 380 220 z M 440 220 L 440 240 L 460 240 L 460 220 L 440 220 z M 480 220 L 480 240 L 500 240 L 500 220 L 480 220 z M 540 220 L 540 240 L 560 240 L 560 220 L 540 220 z M 580 220 L 580 240 L 600 240 L 600 220 L 580 220 z M 340 260 L 340 280 L 340 300 L 360 300 L 380 300 L 400 300 L 400 280 L 400 260 L 380 260 L 380 280 L 360 280 L 360 260 L 340 260 z M 440 260 L 440 280 L 440 300 L 460 300 L 480 300 L 500 300 L 500 280 L 500 260 L 480 260 L 480 280 L 460 280 L 460 260 L 440 260 z M 540 260 L 540 280 L 540 300 L 560 300 L 580 300 L 600 300 L 600 280 L 600 260 L 580 260 L 580 280 L 560 280 L 560 260 L 540 260 z M 340 320 L 340 340 L 360 340 L 360 320 L 340 320 z M 380 320 L 380 340 L 400 340 L 400 320 L 380 320 z M 440 320 L 440 340 L 460 340 L 460 320 L 440 320 z M 480 320 L 480 340 L 500 340 L 500 320 L 480 320 z M 540 320 L 540 340 L 560 340 L 560 320 L 540 320 z M 580 320 L 580 340 L 600 340 L 600 320 L 580 320 z M 340 360 L 340 380 L 340 400 L 360 400 L 380 400 L 400 400 L 400 380 L 400 360 L 380 360 L 380 380 L 360 380 L 360 360 L 340 360 z M 440 360 L 440 380 L 440 400 L 460 400 L 480 400 L 500 400 L 500 380 L 500 360 L 480 360 L 480 380 L 460 380 L 460 360 L 440 360 z M 540 360 L 540 380 L 540 400 L 560 400 L 580 400 L 600 400 L 600 380 L 600 360 L 580 360 L 580 380 L 560 380 L 560 360 L 540 360 z M 340 420 L 340 440 L 360 440 L 360 420 L 340 420 z M 380 420 L 380 440 L 400 440 L 400 420 L 380 420 z M 440 420 L 440 440 L 460 440 L 460 420 L 440 420 z M 480 420 L 480 440 L 500 440 L 500 420 L 480 420 z M 540 420 L 540 440 L 560 440 L 560 420 L 540 420 z M 580 420 L 580 440 L 600 440 L 600 420 L 580 420 z M 340 460 L 340 480 L 340 500 L 360 500 L 380 500 L 400 500 L 400 480 L 400 460 L 380 460 L 380 480 L 360 480 L 360 460 L 340 460 z M 440 460 L 440 480 L 440 500 L 460 500 L 480 500 L 500 500 L 500 480 L 500 460 L 480 460 L 480 480 L 460 480 L 460 460 L 440 460 z M 540 460 L 540 480 L 540 500 L 560 500 L 580 500 L 600 500 L 600 480 L 600 460 L 580 460 L 580 480 L 560 480 L 560 460 L 540 460 z M 300 520 L 300 540 L 320 540 L 340 540 L 360 540 L 360 520 L 340 520 L 320 520 L 300 520 z M 600 520 L 600 540 L 620 540 L 620 520 L 600 520 z M 680 540 L 680 560 L 680 580 L 680 600 L 680 620 L 680 640 L 680 660 L 660 660 L 660 680 L 640 680 L 620 680 L 600 680 L 580 680 L 560 680 L 560 700 L 540 700 L 520 700 L 500 700 L 500 720 L 520 720 L 540 720 L 560 720 L 580 720 L 600 720 L 600 740 L 600 760 L 620 760 L 620 740 L 620 720 L 620 700 L 640 700 L 660 700 L 680 700 L 680 720 L 680 740 L 680 760 L 700 760 L 720 760 L 720 740 L 720 720 L 720 700 L 720 680 L 720 660 L 720 640 L 700 640 L 700 620 L 700 600 L 700 580 L 700 560 L 700 540 L 680 540 z M 600 760 L 580 760 L 580 780 L 600 780 L 600 760 z M 400 560 L 400 580 L 400 600 L 400 620 L 400 640 L 420 640 L 440 640 L 460 640 L 480 640 L 500 640 L 520 640 L 540 640 L 560 640 L 560 620 L 560 600 L 560 580 L 560 560 L 540 560 L 520 560 L 500 560 L 480 560 L 460 560 L 440 560 L 420 560 L 400 560 z M 560 640 L 560 660 L 580 660 L 600 660 L 600 640 L 580 640 L 560 640 z M 360 580 L 360 600 L 380 600 L 380 580 L 360 580 z M 580 580 L 580 600 L 600 600 L 600 580 L 580 580 z M 620 580 L 620 600 L 640 600 L 640 580 L 620 580 z M 260 620 L 260 640 L 260 660 L 260 680 L 260 700 L 260 720 L 280 720 L 280 700 L 300 700 L 320 700 L 320 720 L 340 720 L 340 740 L 340 760 L 360 760 L 360 740 L 360 720 L 380 720 L 400 720 L 420 720 L 420 740 L 440 740 L 440 720 L 440 700 L 420 700 L 400 700 L 380 700 L 380 680 L 360 680 L 340 680 L 320 680 L 300 680 L 300 660 L 280 660 L 280 640 L 280 620 L 260 620 z M 300 660 L 320 660 L 340 660 L 340 640 L 320 640 L 300 640 L 300 660 z M 360 640 L 360 660 L 380 660 L 380 640 L 360 640 z M 460 700 L 460 720 L 480 720 L 480 700 L 460 700 z M 240 740 L 240 760 L 260 760 L 260 740 L 240 740 z M 280 760 L 280 780 L 300 780 L 300 760 L 280 760 z M 520 760 L 520 780 L 540 780 L 540 760 L 520 760 z M 640 760 L 640 780 L 660 780 L 660 760 L 640 760 z M 480 780 L 480 800 L 500 800 L 500 780 L 480 780 z "
     id="rect1862" />
  <path
     style="fill:#d4dfff"
     d="M 440 120 L 440 140 L 460 140 L 480 140 L 500 140 L 500 120 L 480 120 L 460 120 L 440 120 z M 640 120 L 640 140 L 660 140 L 660 120 L 640 120 z M 640 140 L 620 140 L 620 160 L 640 160 L 640 140 z M 340 140 L 340 160 L 360 160 L 380 160 L 400 160 L 400 140 L 380 140 L 360 140 L 340 140 z M 240 300 L 240 320 L 240 340 L 240 360 L 240 380 L 240 400 L 260 400 L 260 380 L 260 360 L 260 340 L 260 320 L 260 300 L 240 300 z M 240 540 L 240 560 L 240 580 L 240 600 L 240 620 L 240 640 L 260 640 L 260 620 L 260 600 L 260 580 L 260 560 L 260 540 L 240 540 z M 300 660 L 300 680 L 320 680 L 320 660 L 300 660 z M 640 660 L 640 680 L 660 680 L 660 660 L 640 660 z M 320 780 L 320 800 L 340 800 L 360 800 L 380 800 L 400 800 L 420 800 L 440 800 L 460 800 L 460 780 L 440 780 L 420 780 L 400 780 L 380 780 L 360 780 L 340 780 L 320 780 z M 500 780 L 500 800 L 520 800 L 540 800 L 560 800 L 580 800 L 600 800 L 620 800 L 640 800 L 640 780 L 620 780 L 600 780 L 580 780 L 560 780 L 540 780 L 520 780 L 500 780 z "
     id="rect1876" />
  <path
     style="fill:#ffffff"
     d="M 240 120 L 240 140 L 240 160 L 260 160 L 260 180 L 280 180 L 280 160 L 300 160 L 320 160 L 340 160 L 340 140 L 360 140 L 380 140 L 400 140 L 420 140 L 440 140 L 440 120 L 420 120 L 400 120 L 380 120 L 360 120 L 340 120 L 320 120 L 300 120 L 280 120 L 260 120 L 240 120 z M 580 120 L 580 140 L 600 140 L 600 160 L 620 160 L 620 140 L 640 140 L 640 120 L 620 120 L 600 120 L 580 120 z M 220 200 L 220 220 L 220 240 L 220 260 L 220 280 L 220 300 L 220 320 L 220 340 L 220 360 L 220 380 L 220 400 L 220 420 L 220 440 L 220 460 L 220 480 L 220 500 L 220 520 L 220 540 L 220 560 L 220 580 L 220 600 L 220 620 L 220 640 L 220 660 L 220 680 L 220 700 L 220 720 L 220 740 L 220 760 L 240 760 L 240 740 L 240 720 L 240 700 L 240 680 L 240 660 L 240 640 L 240 620 L 240 600 L 240 580 L 240 560 L 240 540 L 260 540 L 260 520 L 260 500 L 260 480 L 260 460 L 260 440 L 260 420 L 260 400 L 240 400 L 240 380 L 240 360 L 240 340 L 240 320 L 240 300 L 240 280 L 240 260 L 240 240 L 240 220 L 240 200 L 220 200 z M 640 200 L 640 220 L 640 240 L 640 260 L 640 280 L 640 300 L 640 320 L 640 340 L 640 360 L 640 380 L 640 400 L 640 420 L 640 440 L 640 460 L 640 480 L 640 500 L 640 520 L 640 540 L 640 560 L 640 580 L 640 600 L 640 620 L 640 640 L 640 660 L 660 660 L 660 640 L 660 620 L 660 600 L 660 580 L 660 560 L 660 540 L 660 520 L 660 500 L 660 480 L 660 460 L 660 440 L 660 420 L 660 400 L 660 380 L 660 360 L 660 340 L 660 320 L 660 300 L 660 280 L 660 260 L 660 240 L 660 220 L 660 200 L 640 200 z M 640 660 L 620 660 L 600 660 L 580 660 L 560 660 L 540 660 L 520 660 L 500 660 L 480 660 L 460 660 L 440 660 L 420 660 L 400 660 L 380 660 L 360 660 L 340 660 L 320 660 L 320 680 L 340 680 L 360 680 L 380 680 L 400 680 L 420 680 L 440 680 L 460 680 L 480 680 L 500 680 L 520 680 L 540 680 L 560 680 L 580 680 L 600 680 L 620 680 L 640 680 L 640 660 z M 440 740 L 440 760 L 460 760 L 460 740 L 440 740 z M 400 800 L 400 820 L 420 820 L 440 820 L 460 820 L 480 820 L 500 820 L 520 820 L 540 820 L 540 800 L 520 800 L 500 800 L 480 800 L 460 800 L 440 800 L 420 800 L 400 800 z "
     id="rect1910" />
  <path
     style="fill:#aa9faa"
     d="M 540 120 L 540 140 L 520 140 L 500 140 L 480 140 L 480 160 L 460 160 L 440 160 L 420 160 L 400 160 L 380 160 L 360 160 L 340 160 L 320 160 L 300 160 L 280 160 L 280 180 L 300 180 L 320 180 L 340 180 L 360 180 L 380 180 L 400 180 L 420 180 L 440 180 L 460 180 L 480 180 L 500 180 L 520 180 L 540 180 L 560 180 L 580 180 L 600 180 L 620 180 L 640 180 L 660 180 L 660 200 L 680 200 L 700 200 L 700 180 L 700 160 L 700 140 L 700 120 L 680 120 L 660 120 L 660 140 L 640 140 L 640 160 L 620 160 L 600 160 L 600 140 L 580 140 L 580 120 L 560 120 L 540 120 z M 260 600 L 260 620 L 280 620 L 280 600 L 260 600 z M 380 680 L 380 700 L 400 700 L 400 680 L 380 680 z M 240 760 L 240 780 L 260 780 L 280 780 L 280 760 L 260 760 L 240 760 z M 300 760 L 300 780 L 300 800 L 320 800 L 320 780 L 340 780 L 360 780 L 360 760 L 340 760 L 320 760 L 300 760 z M 420 760 L 420 780 L 440 780 L 440 760 L 420 760 z M 600 760 L 600 780 L 620 780 L 640 780 L 640 760 L 620 760 L 600 760 z M 640 780 L 640 800 L 660 800 L 660 780 L 640 780 z M 660 780 L 680 780 L 700 780 L 720 780 L 720 760 L 700 760 L 680 760 L 660 760 L 660 780 z M 380 800 L 380 820 L 400 820 L 400 800 L 380 800 z M 540 800 L 540 820 L 560 820 L 560 800 L 540 800 z "
     id="rect1912" />
  <path
     style="fill:#808080"
     d="M 220 100 L 220 120 L 240 120 L 260 120 L 280 120 L 300 120 L 320 120 L 340 120 L 360 120 L 380 120 L 400 120 L 420 120 L 440 120 L 460 120 L 480 120 L 500 120 L 520 120 L 540 120 L 560 120 L 580 120 L 600 120 L 620 120 L 620 100 L 600 100 L 580 100 L 560 100 L 540 100 L 520 100 L 500 100 L 480 100 L 460 100 L 440 100 L 420 100 L 400 100 L 380 100 L 360 100 L 340 100 L 320 100 L 300 100 L 280 100 L 260 100 L 240 100 L 220 100 z M 220 120 L 200 120 L 200 140 L 200 160 L 200 180 L 200 200 L 200 220 L 200 240 L 200 260 L 200 280 L 200 300 L 200 320 L 200 340 L 200 360 L 200 380 L 200 400 L 200 420 L 200 440 L 200 460 L 200 480 L 200 500 L 200 520 L 200 540 L 200 560 L 200 580 L 200 600 L 200 620 L 200 640 L 200 660 L 200 680 L 200 700 L 200 720 L 200 740 L 200 760 L 200 780 L 220 780 L 220 760 L 220 740 L 220 720 L 220 700 L 220 680 L 220 660 L 220 640 L 220 620 L 220 600 L 220 580 L 220 560 L 220 540 L 220 520 L 220 500 L 220 480 L 220 460 L 220 440 L 220 420 L 220 400 L 220 380 L 220 360 L 220 340 L 220 320 L 220 300 L 220 280 L 220 260 L 220 240 L 220 220 L 220 200 L 220 180 L 220 160 L 220 140 L 220 120 z M 700 140 L 700 160 L 700 180 L 700 200 L 700 220 L 700 240 L 700 260 L 700 280 L 700 300 L 700 320 L 680 320 L 680 340 L 680 360 L 680 380 L 680 400 L 680 420 L 680 440 L 680 460 L 680 480 L 680 500 L 680 520 L 680 540 L 700 540 L 700 560 L 700 580 L 700 600 L 700 620 L 700 640 L 720 640 L 720 620 L 720 600 L 720 580 L 720 560 L 720 540 L 720 520 L 720 500 L 720 480 L 720 460 L 720 440 L 720 420 L 720 400 L 720 380 L 720 360 L 720 340 L 720 320 L 720 300 L 720 280 L 720 260 L 720 240 L 720 220 L 720 200 L 720 180 L 720 160 L 720 140 L 700 140 z M 280 180 L 280 200 L 280 220 L 280 240 L 280 260 L 280 280 L 280 300 L 280 320 L 280 340 L 280 360 L 280 380 L 280 400 L 280 420 L 280 440 L 280 460 L 280 480 L 280 500 L 280 520 L 280 540 L 280 560 L 280 580 L 280 600 L 280 620 L 280 640 L 280 660 L 300 660 L 300 640 L 320 640 L 320 620 L 320 600 L 340 600 L 360 600 L 360 580 L 340 580 L 320 580 L 320 560 L 320 540 L 300 540 L 300 520 L 300 500 L 300 480 L 300 460 L 300 440 L 300 420 L 300 400 L 300 380 L 300 360 L 300 340 L 300 320 L 300 300 L 300 280 L 300 260 L 300 240 L 300 220 L 300 200 L 300 180 L 280 180 z M 360 580 L 380 580 L 380 600 L 360 600 L 360 620 L 360 640 L 380 640 L 380 660 L 400 660 L 420 660 L 440 660 L 460 660 L 480 660 L 500 660 L 520 660 L 540 660 L 560 660 L 560 640 L 540 640 L 520 640 L 500 640 L 480 640 L 460 640 L 440 640 L 420 640 L 400 640 L 400 620 L 400 600 L 400 580 L 400 560 L 420 560 L 440 560 L 460 560 L 480 560 L 500 560 L 520 560 L 540 560 L 560 560 L 560 580 L 560 600 L 560 620 L 560 640 L 580 640 L 580 620 L 580 600 L 580 580 L 580 560 L 580 540 L 560 540 L 540 540 L 520 540 L 500 540 L 480 540 L 460 540 L 440 540 L 420 540 L 400 540 L 380 540 L 360 540 L 360 560 L 360 580 z M 360 640 L 340 640 L 340 660 L 360 660 L 360 640 z M 360 220 L 360 240 L 340 240 L 340 260 L 360 260 L 360 280 L 380 280 L 380 260 L 400 260 L 400 240 L 380 240 L 380 220 L 360 220 z M 460 220 L 460 240 L 440 240 L 440 260 L 460 260 L 460 280 L 480 280 L 480 260 L 500 260 L 500 240 L 480 240 L 480 220 L 460 220 z M 560 220 L 560 240 L 540 240 L 540 260 L 560 260 L 560 280 L 580 280 L 580 260 L 600 260 L 600 240 L 580 240 L 580 220 L 560 220 z M 360 320 L 360 340 L 340 340 L 340 360 L 360 360 L 360 380 L 380 380 L 380 360 L 400 360 L 400 340 L 380 340 L 380 320 L 360 320 z M 460 320 L 460 340 L 440 340 L 440 360 L 460 360 L 460 380 L 480 380 L 480 360 L 500 360 L 500 340 L 480 340 L 480 320 L 460 320 z M 560 320 L 560 340 L 540 340 L 540 360 L 560 360 L 560 380 L 580 380 L 580 360 L 600 360 L 600 340 L 580 340 L 580 320 L 560 320 z M 360 420 L 360 440 L 340 440 L 340 460 L 360 460 L 360 480 L 380 480 L 380 460 L 400 460 L 400 440 L 380 440 L 380 420 L 360 420 z M 460 420 L 460 440 L 440 440 L 440 460 L 460 460 L 460 480 L 480 480 L 480 460 L 500 460 L 500 440 L 480 440 L 480 420 L 460 420 z M 560 420 L 560 440 L 540 440 L 540 460 L 560 460 L 560 480 L 580 480 L 580 460 L 600 460 L 600 440 L 580 440 L 580 420 L 560 420 z M 600 640 L 600 660 L 620 660 L 620 640 L 600 640 z M 280 700 L 280 720 L 300 720 L 320 720 L 320 700 L 300 700 L 280 700 z M 320 720 L 320 740 L 320 760 L 340 760 L 340 740 L 340 720 L 320 720 z M 280 720 L 260 720 L 260 740 L 260 760 L 280 760 L 280 740 L 280 720 z M 620 700 L 620 720 L 640 720 L 660 720 L 680 720 L 680 700 L 660 700 L 640 700 L 620 700 z M 360 720 L 360 740 L 380 740 L 380 720 L 360 720 z M 400 720 L 400 740 L 420 740 L 420 720 L 400 720 z M 420 740 L 420 760 L 440 760 L 440 740 L 420 740 z M 420 760 L 400 760 L 400 780 L 420 780 L 420 760 z M 520 720 L 520 740 L 520 760 L 540 760 L 540 740 L 540 720 L 520 720 z M 580 720 L 580 740 L 580 760 L 600 760 L 600 740 L 600 720 L 580 720 z M 460 740 L 460 760 L 480 760 L 480 740 L 460 740 z M 360 760 L 360 780 L 380 780 L 380 760 L 360 760 z M 240 780 L 240 800 L 260 800 L 280 800 L 300 800 L 300 780 L 280 780 L 260 780 L 240 780 z M 460 780 L 460 800 L 480 800 L 480 780 L 460 780 z M 660 780 L 660 800 L 680 800 L 680 780 L 660 780 z M 320 800 L 320 820 L 340 820 L 360 820 L 380 820 L 380 800 L 360 800 L 340 800 L 320 800 z M 560 800 L 560 820 L 580 820 L 580 800 L 560 800 z "
     id="rect1914" />
  <path
     style="fill:#555f55"
     d="M 620 100 L 620 120 L 640 120 L 660 120 L 680 120 L 700 120 L 720 120 L 720 100 L 700 100 L 680 100 L 660 100 L 640 100 L 620 100 z M 720 120 L 720 140 L 720 160 L 720 180 L 720 200 L 720 220 L 720 240 L 720 260 L 720 280 L 720 300 L 720 320 L 720 340 L 720 360 L 720 380 L 720 400 L 720 420 L 720 440 L 720 460 L 720 480 L 720 500 L 720 520 L 720 540 L 720 560 L 720 580 L 720 600 L 720 620 L 720 640 L 720 660 L 720 680 L 720 700 L 720 720 L 720 740 L 720 760 L 720 780 L 740 780 L 740 760 L 740 740 L 740 720 L 740 700 L 740 680 L 740 660 L 740 640 L 740 620 L 740 600 L 740 580 L 740 560 L 740 540 L 740 520 L 740 500 L 740 480 L 740 460 L 740 440 L 740 420 L 740 400 L 740 380 L 740 360 L 740 340 L 740 320 L 740 300 L 740 280 L 740 260 L 740 240 L 740 220 L 740 200 L 740 180 L 740 160 L 740 140 L 740 120 L 720 120 z M 720 780 L 700 780 L 680 780 L 680 800 L 700 800 L 720 800 L 720 780 z M 680 800 L 660 800 L 640 800 L 620 800 L 600 800 L 580 800 L 580 820 L 600 820 L 620 820 L 640 820 L 660 820 L 680 820 L 680 800 z M 580 820 L 560 820 L 540 820 L 520 820 L 500 820 L 480 820 L 460 820 L 440 820 L 420 820 L 400 820 L 380 820 L 360 820 L 360 840 L 380 840 L 400 840 L 420 840 L 440 840 L 460 840 L 480 840 L 500 840 L 520 840 L 540 840 L 560 840 L 580 840 L 580 820 z M 300 180 L 300 200 L 320 200 L 340 200 L 360 200 L 380 200 L 400 200 L 420 200 L 440 200 L 460 200 L 480 200 L 500 200 L 520 200 L 540 200 L 560 200 L 580 200 L 600 200 L 620 200 L 640 200 L 660 200 L 660 180 L 640 180 L 620 180 L 600 180 L 580 180 L 560 180 L 540 180 L 520 180 L 500 180 L 480 180 L 460 180 L 440 180 L 420 180 L 400 180 L 380 180 L 360 180 L 340 180 L 320 180 L 300 180 z M 580 540 L 580 560 L 580 580 L 600 580 L 600 560 L 600 540 L 580 540 z M 620 540 L 620 560 L 620 580 L 640 580 L 640 560 L 640 540 L 620 540 z M 580 600 L 580 620 L 580 640 L 600 640 L 600 620 L 600 600 L 580 600 z M 620 600 L 620 620 L 620 640 L 640 640 L 640 620 L 640 600 L 620 600 z M 380 720 L 380 740 L 400 740 L 400 720 L 380 720 z M 480 720 L 480 740 L 500 740 L 500 720 L 480 720 z M 540 720 L 540 740 L 560 740 L 580 740 L 580 720 L 560 720 L 540 720 z M 620 740 L 620 760 L 640 760 L 640 740 L 620 740 z M 660 740 L 660 760 L 680 760 L 680 740 L 660 740 z M 380 760 L 380 780 L 400 780 L 400 760 L 380 760 z M 480 760 L 480 780 L 500 780 L 500 760 L 480 760 z M 540 760 L 540 780 L 560 780 L 580 780 L 580 760 L 560 760 L 540 760 z M 220 780 L 220 800 L 240 800 L 240 780 L 220 780 z M 280 800 L 280 820 L 300 820 L 320 820 L 320 800 L 300 800 L 280 800 z "
     id="rect1946" />
</svg>
