<?xml version="1.0" encoding="UTF-8" standalone="no"?>
<svg
   xmlns:dc="http://purl.org/dc/elements/1.1/"
   xmlns:cc="http://creativecommons.org/ns#"
   xmlns:rdf="http://www.w3.org/1999/02/22-rdf-syntax-ns#"
   xmlns:svg="http://www.w3.org/2000/svg"
   xmlns="http://www.w3.org/2000/svg"
   height="960px"
   version="1.1"
   width="940px"
   id="svg4214">
  <metadata
     id="metadata4218">
    <rdf:RDF>
      <cc:Work
         rdf:about="">
        <dc:format>image/svg+xml</dc:format>
        <dc:type
           rdf:resource="http://purl.org/dc/dcmitype/StillImage" />
      </cc:Work>
    </rdf:RDF>
  </metadata>
  <defs
     id="defs2" />
  <path
     id="rect702"
     d="M 400 140 L 400 160 L 420 160 L 420 140 L 400 140 z "
     style="opacity:0.90980392;fill:#6d859e" />
  <path
     id="rect740"
     d="M 260 140 L 260 160 L 280 160 L 300 160 L 320 160 L 340 160 L 360 160 L 380 160 L 400 160 L 400 140 L 380 140 L 360 140 L 340 140 L 320 140 L 300 140 L 280 140 L 260 140 z M 420 140 L 420 160 L 440 160 L 460 160 L 480 160 L 500 160 L 520 160 L 540 160 L 560 160 L 580 160 L 600 160 L 620 160 L 640 160 L 660 160 L 680 160 L 700 160 L 720 160 L 740 160 L 760 160 L 780 160 L 800 160 L 800 140 L 780 140 L 760 140 L 740 140 L 720 140 L 700 140 L 680 140 L 660 140 L 640 140 L 620 140 L 600 140 L 580 140 L 560 140 L 540 140 L 520 140 L 500 140 L 480 140 L 460 140 L 440 140 L 420 140 z "
     style="opacity:0.8745098;fill:#667c93" />
  <path
     id="rect742"
     d="M 140 140 L 140 160 L 160 160 L 180 160 L 200 160 L 220 160 L 240 160 L 260 160 L 260 140 L 240 140 L 220 140 L 200 140 L 180 140 L 160 140 L 140 140 z M 800 140 L 800 160 L 820 160 L 820 140 L 800 140 z "
     style="opacity:0.8745098;fill:#203f5e" />
  <path
     id="rect746"
     d="M 840 140 L 840 160 L 860 160 L 860 140 L 840 140 z "
     style="opacity:0.90980392;fill:#aaaaad" />
  <path
     id="rect928"
     d="M 260 160 L 260 180 L 260 200 L 280 200 L 300 200 L 320 200 L 340 200 L 360 200 L 380 200 L 400 200 L 420 200 L 440 200 L 460 200 L 480 200 L 500 200 L 520 200 L 540 200 L 560 200 L 580 200 L 600 200 L 620 200 L 640 200 L 660 200 L 680 200 L 700 200 L 720 200 L 740 200 L 760 200 L 780 200 L 800 200 L 800 180 L 800 160 L 780 160 L 760 160 L 740 160 L 720 160 L 700 160 L 680 160 L 660 160 L 640 160 L 620 160 L 600 160 L 580 160 L 560 160 L 540 160 L 520 160 L 500 160 L 480 160 L 460 160 L 440 160 L 420 160 L 400 160 L 380 160 L 360 160 L 340 160 L 320 160 L 300 160 L 280 160 L 260 160 z "
     style="fill:#a6caf0" />
  <path
     id="rect1060"
     d="M 180 180 L 180 200 L 200 200 L 200 180 L 180 180 z M 200 200 L 200 220 L 200 240 L 220 240 L 240 240 L 240 220 L 240 200 L 220 200 L 200 200 z "
     style="fill:#00ffff" />
  <path
     id="rect2564"
     d="M 200 180 L 200 200 L 220 200 L 240 200 L 240 180 L 220 180 L 200 180 z M 200 260 L 200 280 L 200 300 L 220 300 L 240 300 L 240 280 L 240 260 L 220 260 L 200 260 z M 180 360 L 180 380 L 200 380 L 200 360 L 180 360 z M 200 380 L 200 400 L 200 420 L 220 420 L 240 420 L 240 400 L 240 380 L 220 380 L 200 380 z M 200 440 L 200 460 L 200 480 L 220 480 L 240 480 L 240 460 L 240 440 L 220 440 L 200 440 z M 200 540 L 200 560 L 220 560 L 240 560 L 240 540 L 220 540 L 200 540 z "
     style="fill:#ffff00" />
  <path
     id="rect2584"
     d="M 360 500 L 360 520 L 360 540 L 360 560 L 380 560 L 400 560 L 420 560 L 440 560 L 440 540 L 440 520 L 440 500 L 420 500 L 400 500 L 380 500 L 360 500 z "
     style="fill:#ffcc66" />
  <path
     id="rect2596"
     d="M 440 500 L 440 520 L 440 540 L 440 560 L 460 560 L 480 560 L 500 560 L 520 560 L 540 560 L 560 560 L 560 540 L 560 520 L 560 500 L 540 500 L 520 500 L 500 500 L 480 500 L 460 500 L 440 500 z "
     style="fill:#cccc66" />
  <path
     id="rect2604"
     d="M 560 500 L 560 520 L 560 540 L 560 560 L 580 560 L 600 560 L 620 560 L 640 560 L 640 540 L 640 520 L 640 500 L 620 500 L 600 500 L 580 500 L 560 500 z "
     style="fill:#cc9933" />
  <path
     id="rect2608"
     d="M 640 500 L 640 520 L 640 540 L 640 560 L 660 560 L 680 560 L 680 540 L 680 520 L 680 500 L 660 500 L 640 500 z "
     style="fill:#999900" />
  <path
     id="rect2614"
     d="M 680 500 L 680 520 L 680 540 L 680 560 L 700 560 L 720 560 L 740 560 L 740 540 L 740 520 L 740 500 L 720 500 L 700 500 L 680 500 z "
     style="fill:#996600" />
  <path
     id="rect2904"
     d="M 140 160 L 140 180 L 140 200 L 140 220 L 140 240 L 140 260 L 140 280 L 140 300 L 140 320 L 140 340 L 140 360 L 140 380 L 140 400 L 140 420 L 140 440 L 140 460 L 140 480 L 140 500 L 140 520 L 140 540 L 140 560 L 140 580 L 140 600 L 140 620 L 160 620 L 180 620 L 200 620 L 220 620 L 240 620 L 260 620 L 260 600 L 260 580 L 260 560 L 260 540 L 260 520 L 260 500 L 260 480 L 260 460 L 260 440 L 260 420 L 260 400 L 260 380 L 260 360 L 260 340 L 260 320 L 260 300 L 260 280 L 260 260 L 260 240 L 260 220 L 260 200 L 260 180 L 260 160 L 240 160 L 220 160 L 200 160 L 180 160 L 160 160 L 140 160 z M 800 160 L 800 180 L 800 200 L 800 220 L 800 240 L 800 260 L 800 280 L 800 300 L 800 320 L 800 340 L 800 360 L 800 380 L 800 400 L 800 420 L 800 440 L 800 460 L 800 480 L 800 500 L 800 520 L 800 540 L 800 560 L 800 580 L 800 600 L 800 620 L 820 620 L 820 600 L 820 580 L 820 560 L 820 540 L 820 520 L 820 500 L 820 480 L 820 460 L 820 440 L 820 420 L 820 400 L 820 380 L 820 360 L 820 340 L 820 320 L 820 300 L 820 280 L 820 260 L 820 240 L 820 220 L 820 200 L 820 180 L 820 160 L 800 160 z M 180 180 L 200 180 L 220 180 L 240 180 L 240 200 L 240 220 L 240 240 L 220 240 L 200 240 L 180 240 L 180 220 L 180 200 L 180 180 z M 520 240 L 520 260 L 520 280 L 520 300 L 520 320 L 520 340 L 520 360 L 520 380 L 520 400 L 520 420 L 520 440 L 520 460 L 520 480 L 540 480 L 560 480 L 580 480 L 600 480 L 620 480 L 640 480 L 660 480 L 680 480 L 700 480 L 720 480 L 740 480 L 740 460 L 740 440 L 740 420 L 740 400 L 740 380 L 740 360 L 740 340 L 740 320 L 740 300 L 740 280 L 740 260 L 740 240 L 720 240 L 700 240 L 680 240 L 660 240 L 640 240 L 620 240 L 600 240 L 580 240 L 560 240 L 540 240 L 520 240 z M 180 260 L 200 260 L 220 260 L 240 260 L 240 280 L 240 300 L 240 320 L 220 320 L 200 320 L 180 320 L 180 300 L 180 280 L 180 260 z M 560 260 L 580 260 L 580 280 L 580 300 L 560 300 L 560 280 L 560 260 z M 620 260 L 640 260 L 660 260 L 680 260 L 700 260 L 700 280 L 700 300 L 680 300 L 660 300 L 640 300 L 620 300 L 620 280 L 620 260 z M 560 320 L 580 320 L 580 340 L 580 360 L 560 360 L 560 340 L 560 320 z M 620 320 L 640 320 L 660 320 L 680 320 L 700 320 L 700 340 L 700 360 L 680 360 L 660 360 L 640 360 L 620 360 L 620 340 L 620 320 z M 180 360 L 200 360 L 220 360 L 240 360 L 240 380 L 240 400 L 240 420 L 220 420 L 200 420 L 180 420 L 180 400 L 180 380 L 180 360 z M 560 380 L 580 380 L 580 400 L 580 420 L 560 420 L 560 400 L 560 380 z M 620 380 L 640 380 L 660 380 L 680 380 L 700 380 L 700 400 L 700 420 L 680 420 L 660 420 L 640 420 L 620 420 L 620 400 L 620 380 z M 180 440 L 200 440 L 220 440 L 240 440 L 240 460 L 240 480 L 240 500 L 220 500 L 200 500 L 180 500 L 180 480 L 180 460 L 180 440 z M 180 540 L 200 540 L 220 540 L 240 540 L 240 560 L 240 580 L 240 600 L 220 600 L 200 600 L 180 600 L 180 580 L 180 560 L 180 540 z "
     style="fill:#336699" />
  <path
     id="rect3544"
     d="M 620 740 L 620 760 L 640 760 L 640 740 L 620 740 z "
     style="fill:#00ff00" />
  <path
     id="rect3638"
     d="M 620 760 L 620 780 L 640 780 L 640 760 L 620 760 z "
     style="opacity:0.8745098;fill:#3a9e3a" />
  <path
     id="rect3656"
     d="M 700 760 L 700 780 L 720 780 L 740 780 L 760 780 L 780 780 L 800 780 L 820 780 L 820 760 L 800 760 L 780 760 L 760 760 L 740 760 L 720 760 L 700 760 z "
     style="opacity:0.8745098;fill:#79797a" />
  <path
     id="rect3750"
     d="M 620 780 L 620 800 L 640 800 L 640 780 L 620 780 z M 700 780 L 700 800 L 720 800 L 740 800 L 760 800 L 780 800 L 800 800 L 820 800 L 820 780 L 800 780 L 780 780 L 760 780 L 740 780 L 720 780 L 700 780 z "
     style="fill:#5f605f" />
  <path
     id="rect3862"
     d="M 20 820 L 20 840 L 40 840 L 60 840 L 60 820 L 40 820 L 20 820 z "
     style="opacity:0.8745098;fill:#555555" />
  <path
     id="rect3942"
     d="M 400 820 L 400 840 L 420 840 L 420 820 L 400 820 z M 840 820 L 840 840 L 860 840 L 860 820 L 840 820 z "
     style="opacity:0.90980392;fill:#363636" />
  <path
     id="rect3946"
     d="M 0 820 L 0 840 L 20 840 L 20 820 L 0 820 z M 60 820 L 60 840 L 80 840 L 100 840 L 120 840 L 140 840 L 160 840 L 180 840 L 200 840 L 220 840 L 240 840 L 260 840 L 280 840 L 300 840 L 320 840 L 340 840 L 360 840 L 380 840 L 400 840 L 400 820 L 380 820 L 360 820 L 340 820 L 320 820 L 300 820 L 280 820 L 260 820 L 240 820 L 220 820 L 200 820 L 180 820 L 160 820 L 140 820 L 120 820 L 100 820 L 80 820 L 60 820 z M 420 820 L 420 840 L 440 840 L 460 840 L 480 840 L 500 840 L 520 840 L 540 840 L 560 840 L 580 840 L 600 840 L 620 840 L 640 840 L 660 840 L 680 840 L 700 840 L 720 840 L 740 840 L 760 840 L 780 840 L 800 840 L 820 840 L 840 840 L 840 820 L 820 820 L 800 820 L 780 820 L 760 820 L 740 820 L 720 820 L 700 820 L 680 820 L 660 820 L 640 820 L 620 820 L 600 820 L 580 820 L 560 820 L 540 820 L 520 820 L 500 820 L 480 820 L 460 820 L 440 820 L 420 820 z M 860 820 L 860 840 L 880 840 L 900 840 L 900 820 L 880 820 L 860 820 z "
     style="opacity:0.8745098;fill:#3d3d3d" />
  <path
     id="rect4142"
     d="M 380 860 L 380 880 L 380 900 L 380 920 L 400 920 L 400 900 L 400 880 L 400 860 L 380 860 z "
     style="fill:#dfdfdf" />
  <path
     id="rect4148"
     d="M 200 360 L 200 380 L 220 380 L 240 380 L 240 360 L 220 360 L 200 360 z M 140 620 L 140 640 L 140 660 L 140 680 L 160 680 L 180 680 L 180 660 L 200 660 L 220 660 L 240 660 L 260 660 L 260 640 L 260 620 L 240 620 L 220 620 L 200 620 L 180 620 L 160 620 L 140 620 z M 300 620 L 300 640 L 300 660 L 300 680 L 320 680 L 320 660 L 340 660 L 360 660 L 380 660 L 400 660 L 400 640 L 400 620 L 380 620 L 360 620 L 340 620 L 320 620 L 300 620 z M 440 620 L 440 640 L 440 660 L 440 680 L 460 680 L 460 660 L 480 660 L 500 660 L 520 660 L 540 660 L 560 660 L 560 640 L 560 620 L 540 620 L 520 620 L 500 620 L 480 620 L 460 620 L 440 620 z M 580 620 L 580 640 L 580 660 L 580 680 L 600 680 L 620 680 L 620 660 L 640 660 L 660 660 L 680 660 L 700 660 L 700 640 L 700 620 L 680 620 L 660 620 L 640 620 L 620 620 L 600 620 L 580 620 z M 440 880 L 440 900 L 440 920 L 460 920 L 460 900 L 460 880 L 440 880 z "
     style="fill:#cbcbcb" />
  <path
     id="rect4176"
     d="M 20 40 L 20 60 L 20 80 L 20 100 L 20 120 L 20 140 L 20 160 L 20 180 L 20 200 L 20 220 L 20 240 L 20 260 L 20 280 L 20 300 L 20 320 L 20 340 L 20 360 L 20 380 L 20 400 L 20 420 L 20 440 L 20 460 L 20 480 L 20 500 L 20 520 L 20 540 L 20 560 L 20 580 L 20 600 L 20 620 L 20 640 L 20 660 L 20 680 L 20 700 L 20 720 L 20 740 L 20 760 L 20 780 L 20 800 L 40 800 L 60 800 L 60 780 L 60 760 L 60 740 L 60 720 L 60 700 L 60 680 L 60 660 L 60 640 L 60 620 L 60 600 L 60 580 L 60 560 L 60 540 L 60 520 L 60 500 L 60 480 L 60 460 L 60 440 L 60 420 L 60 400 L 60 380 L 60 360 L 60 340 L 60 320 L 60 300 L 60 280 L 60 260 L 60 240 L 60 220 L 60 200 L 60 180 L 60 160 L 60 140 L 60 120 L 60 100 L 60 80 L 60 60 L 80 60 L 100 60 L 120 60 L 140 60 L 160 60 L 180 60 L 200 60 L 220 60 L 240 60 L 260 60 L 280 60 L 300 60 L 320 60 L 340 60 L 360 60 L 380 60 L 400 60 L 420 60 L 440 60 L 460 60 L 480 60 L 500 60 L 520 60 L 540 60 L 560 60 L 580 60 L 600 60 L 620 60 L 640 60 L 660 60 L 680 60 L 700 60 L 720 60 L 740 60 L 760 60 L 780 60 L 800 60 L 820 60 L 840 60 L 860 60 L 880 60 L 880 40 L 860 40 L 840 40 L 820 40 L 800 40 L 780 40 L 760 40 L 740 40 L 720 40 L 700 40 L 680 40 L 660 40 L 640 40 L 620 40 L 600 40 L 580 40 L 560 40 L 540 40 L 520 40 L 500 40 L 480 40 L 460 40 L 440 40 L 420 40 L 400 40 L 380 40 L 360 40 L 340 40 L 320 40 L 300 40 L 280 40 L 260 40 L 240 40 L 220 40 L 200 40 L 180 40 L 160 40 L 140 40 L 120 40 L 100 40 L 80 40 L 60 40 L 40 40 L 20 40 z M 820 120 L 820 140 L 820 160 L 820 180 L 820 200 L 820 220 L 820 240 L 820 260 L 820 280 L 820 300 L 820 320 L 820 340 L 820 360 L 820 380 L 820 400 L 820 420 L 820 440 L 820 460 L 820 480 L 820 500 L 820 520 L 820 540 L 820 560 L 820 580 L 820 600 L 820 620 L 820 640 L 820 660 L 820 680 L 800 680 L 780 680 L 760 680 L 740 680 L 720 680 L 700 680 L 680 680 L 660 680 L 640 680 L 620 680 L 600 680 L 580 680 L 560 680 L 540 680 L 520 680 L 500 680 L 480 680 L 460 680 L 440 680 L 420 680 L 400 680 L 380 680 L 360 680 L 340 680 L 320 680 L 300 680 L 280 680 L 260 680 L 240 680 L 220 680 L 200 680 L 180 680 L 160 680 L 140 680 L 120 680 L 120 700 L 120 720 L 140 720 L 160 720 L 180 720 L 200 720 L 220 720 L 240 720 L 260 720 L 280 720 L 300 720 L 320 720 L 340 720 L 360 720 L 380 720 L 400 720 L 420 720 L 440 720 L 460 720 L 480 720 L 500 720 L 520 720 L 540 720 L 560 720 L 580 720 L 600 720 L 620 720 L 640 720 L 660 720 L 680 720 L 700 720 L 720 720 L 740 720 L 760 720 L 780 720 L 800 720 L 820 720 L 840 720 L 840 700 L 840 680 L 840 660 L 840 640 L 840 620 L 840 600 L 840 580 L 840 560 L 840 540 L 840 520 L 840 500 L 840 480 L 840 460 L 840 440 L 840 420 L 840 400 L 840 380 L 840 360 L 840 340 L 840 320 L 840 300 L 840 280 L 840 260 L 840 240 L 840 220 L 840 200 L 840 180 L 840 160 L 840 140 L 840 120 L 820 120 z M 180 200 L 180 220 L 180 240 L 200 240 L 200 220 L 200 200 L 180 200 z M 260 200 L 260 220 L 260 240 L 260 260 L 260 280 L 260 300 L 260 320 L 260 340 L 260 360 L 260 380 L 260 400 L 260 420 L 260 440 L 260 460 L 260 480 L 260 500 L 260 520 L 260 540 L 260 560 L 260 580 L 260 600 L 260 620 L 280 620 L 300 620 L 320 620 L 340 620 L 360 620 L 380 620 L 400 620 L 420 620 L 440 620 L 460 620 L 480 620 L 500 620 L 520 620 L 540 620 L 560 620 L 580 620 L 600 620 L 620 620 L 640 620 L 660 620 L 680 620 L 700 620 L 720 620 L 740 620 L 760 620 L 780 620 L 800 620 L 800 600 L 800 580 L 800 560 L 800 540 L 800 520 L 800 500 L 800 480 L 800 460 L 800 440 L 800 420 L 800 400 L 800 380 L 800 360 L 800 340 L 800 320 L 800 300 L 800 280 L 800 260 L 800 240 L 800 220 L 800 200 L 780 200 L 760 200 L 740 200 L 720 200 L 700 200 L 680 200 L 660 200 L 640 200 L 620 200 L 600 200 L 580 200 L 560 200 L 540 200 L 520 200 L 500 200 L 480 200 L 460 200 L 440 200 L 420 200 L 400 200 L 380 200 L 360 200 L 340 200 L 320 200 L 300 200 L 280 200 L 260 200 z M 520 240 L 540 240 L 560 240 L 580 240 L 600 240 L 620 240 L 640 240 L 660 240 L 680 240 L 700 240 L 720 240 L 740 240 L 740 260 L 740 280 L 740 300 L 740 320 L 740 340 L 740 360 L 740 380 L 740 400 L 740 420 L 740 440 L 740 460 L 740 480 L 720 480 L 700 480 L 680 480 L 660 480 L 640 480 L 620 480 L 600 480 L 580 480 L 560 480 L 540 480 L 520 480 L 520 460 L 520 440 L 520 420 L 520 400 L 520 380 L 520 360 L 520 340 L 520 320 L 520 300 L 520 280 L 520 260 L 520 240 z M 180 260 L 180 280 L 180 300 L 180 320 L 200 320 L 220 320 L 240 320 L 240 300 L 220 300 L 200 300 L 200 280 L 200 260 L 180 260 z M 560 260 L 560 280 L 560 300 L 580 300 L 580 280 L 580 260 L 560 260 z M 620 260 L 620 280 L 620 300 L 640 300 L 660 300 L 680 300 L 700 300 L 700 280 L 700 260 L 680 260 L 660 260 L 640 260 L 620 260 z M 560 320 L 560 340 L 560 360 L 580 360 L 580 340 L 580 320 L 560 320 z M 620 320 L 620 340 L 620 360 L 640 360 L 660 360 L 680 360 L 700 360 L 700 340 L 700 320 L 680 320 L 660 320 L 640 320 L 620 320 z M 180 380 L 180 400 L 180 420 L 200 420 L 200 400 L 200 380 L 180 380 z M 560 380 L 560 400 L 560 420 L 580 420 L 580 400 L 580 380 L 560 380 z M 620 380 L 620 400 L 620 420 L 640 420 L 660 420 L 680 420 L 700 420 L 700 400 L 700 380 L 680 380 L 660 380 L 640 380 L 620 380 z M 180 440 L 180 460 L 180 480 L 180 500 L 200 500 L 220 500 L 240 500 L 240 480 L 220 480 L 200 480 L 200 460 L 200 440 L 180 440 z M 360 500 L 380 500 L 400 500 L 420 500 L 440 500 L 460 500 L 480 500 L 500 500 L 520 500 L 540 500 L 560 500 L 580 500 L 600 500 L 620 500 L 640 500 L 660 500 L 680 500 L 700 500 L 720 500 L 740 500 L 740 520 L 740 540 L 740 560 L 720 560 L 700 560 L 680 560 L 660 560 L 640 560 L 620 560 L 600 560 L 580 560 L 560 560 L 540 560 L 520 560 L 500 560 L 480 560 L 460 560 L 440 560 L 420 560 L 400 560 L 380 560 L 360 560 L 360 540 L 360 520 L 360 500 z M 180 540 L 180 560 L 180 580 L 180 600 L 200 600 L 220 600 L 240 600 L 240 580 L 240 560 L 220 560 L 200 560 L 200 540 L 180 540 z M 300 860 L 300 880 L 300 900 L 300 920 L 300 940 L 320 940 L 320 920 L 320 900 L 320 880 L 320 860 L 300 860 z "
     style="fill:#ffffff" />
  <path
     id="rect4180"
     d="M 320 860 L 320 880 L 320 900 L 320 920 L 320 940 L 340 940 L 360 940 L 360 920 L 360 900 L 360 880 L 360 860 L 340 860 L 320 860 z "
     style="fill:#f4f4f4" />
  <path
     id="rect4182"
     d="M 360 860 L 360 880 L 360 900 L 360 920 L 360 940 L 380 940 L 380 920 L 380 900 L 380 880 L 380 860 L 360 860 z "
     style="fill:#e8e9e8" />
  <path
     id="rect4184"
     d="M 380 920 L 380 940 L 400 940 L 400 920 L 380 920 z "
     style="fill:#e4e4e4" />
  <path
     id="rect4188"
     d="M 880 40 L 880 60 L 900 60 L 900 40 L 880 40 z M 880 60 L 860 60 L 840 60 L 820 60 L 800 60 L 780 60 L 760 60 L 740 60 L 720 60 L 700 60 L 680 60 L 660 60 L 640 60 L 620 60 L 600 60 L 580 60 L 560 60 L 540 60 L 520 60 L 500 60 L 480 60 L 460 60 L 440 60 L 420 60 L 400 60 L 380 60 L 360 60 L 340 60 L 320 60 L 300 60 L 280 60 L 260 60 L 240 60 L 220 60 L 200 60 L 180 60 L 160 60 L 140 60 L 120 60 L 100 60 L 80 60 L 60 60 L 60 80 L 60 100 L 60 120 L 60 140 L 60 160 L 60 180 L 60 200 L 60 220 L 60 240 L 60 260 L 60 280 L 60 300 L 60 320 L 60 340 L 60 360 L 60 380 L 60 400 L 60 420 L 60 440 L 60 460 L 60 480 L 60 500 L 60 520 L 60 540 L 60 560 L 60 580 L 60 600 L 60 620 L 60 640 L 60 660 L 60 680 L 60 700 L 60 720 L 60 740 L 60 760 L 60 780 L 60 800 L 80 800 L 80 780 L 80 760 L 80 740 L 80 720 L 80 700 L 80 680 L 80 660 L 80 640 L 80 620 L 80 600 L 80 580 L 80 560 L 80 540 L 80 520 L 80 500 L 80 480 L 80 460 L 80 440 L 80 420 L 80 400 L 80 380 L 80 360 L 80 340 L 80 320 L 80 300 L 80 280 L 80 260 L 80 240 L 80 220 L 80 200 L 80 180 L 80 160 L 80 140 L 80 120 L 80 100 L 100 100 L 120 100 L 140 100 L 160 100 L 180 100 L 200 100 L 220 100 L 240 100 L 260 100 L 280 100 L 300 100 L 320 100 L 340 100 L 360 100 L 380 100 L 400 100 L 420 100 L 440 100 L 460 100 L 480 100 L 500 100 L 520 100 L 540 100 L 560 100 L 580 100 L 600 100 L 620 100 L 640 100 L 660 100 L 680 100 L 700 100 L 720 100 L 740 100 L 760 100 L 780 100 L 800 100 L 820 100 L 840 100 L 860 100 L 880 100 L 880 80 L 880 60 z M 60 800 L 40 800 L 20 800 L 20 820 L 40 820 L 60 820 L 60 800 z M 400 860 L 400 880 L 400 900 L 400 920 L 400 940 L 420 940 L 440 940 L 440 920 L 440 900 L 440 880 L 440 860 L 420 860 L 400 860 z "
     style="fill:#d6d6d5" />
  <path
     id="rect4194"
     d="M 440 860 L 440 880 L 460 880 L 460 900 L 460 920 L 440 920 L 440 940 L 460 940 L 480 940 L 500 940 L 500 920 L 500 900 L 500 880 L 500 860 L 480 860 L 460 860 L 440 860 z "
     style="fill:#bfbfbf" />
  <path
     id="rect4196"
     d="M 80 100 L 80 120 L 80 140 L 80 160 L 80 180 L 80 200 L 80 220 L 80 240 L 80 260 L 80 280 L 80 300 L 80 320 L 80 340 L 80 360 L 80 380 L 80 400 L 80 420 L 80 440 L 80 460 L 80 480 L 80 500 L 80 520 L 80 540 L 80 560 L 80 580 L 80 600 L 80 620 L 80 640 L 80 660 L 80 680 L 80 700 L 80 720 L 80 740 L 80 760 L 80 780 L 80 800 L 100 800 L 120 800 L 140 800 L 160 800 L 180 800 L 200 800 L 220 800 L 240 800 L 260 800 L 280 800 L 300 800 L 320 800 L 340 800 L 360 800 L 380 800 L 400 800 L 420 800 L 440 800 L 460 800 L 480 800 L 500 800 L 520 800 L 540 800 L 560 800 L 580 800 L 600 800 L 620 800 L 620 780 L 620 760 L 620 740 L 600 740 L 580 740 L 560 740 L 540 740 L 520 740 L 500 740 L 480 740 L 460 740 L 440 740 L 420 740 L 400 740 L 380 740 L 360 740 L 340 740 L 320 740 L 300 740 L 280 740 L 260 740 L 240 740 L 220 740 L 200 740 L 180 740 L 160 740 L 140 740 L 120 740 L 120 720 L 120 700 L 120 680 L 120 660 L 120 640 L 120 620 L 120 600 L 120 580 L 120 560 L 120 540 L 120 520 L 120 500 L 120 480 L 120 460 L 120 440 L 120 420 L 120 400 L 120 380 L 120 360 L 120 340 L 120 320 L 120 300 L 120 280 L 120 260 L 120 240 L 120 220 L 120 200 L 120 180 L 120 160 L 120 140 L 120 120 L 140 120 L 160 120 L 180 120 L 200 120 L 220 120 L 240 120 L 260 120 L 280 120 L 300 120 L 320 120 L 340 120 L 360 120 L 380 120 L 400 120 L 420 120 L 440 120 L 460 120 L 480 120 L 500 120 L 520 120 L 540 120 L 560 120 L 580 120 L 600 120 L 620 120 L 640 120 L 660 120 L 680 120 L 700 120 L 720 120 L 740 120 L 760 120 L 780 120 L 800 120 L 820 120 L 840 120 L 840 140 L 860 140 L 860 160 L 840 160 L 840 180 L 840 200 L 840 220 L 840 240 L 840 260 L 840 280 L 840 300 L 840 320 L 840 340 L 840 360 L 840 380 L 840 400 L 840 420 L 840 440 L 840 460 L 840 480 L 840 500 L 840 520 L 840 540 L 840 560 L 840 580 L 840 600 L 840 620 L 840 640 L 840 660 L 840 680 L 840 700 L 840 720 L 840 740 L 820 740 L 800 740 L 780 740 L 760 740 L 740 740 L 720 740 L 700 740 L 680 740 L 660 740 L 640 740 L 640 760 L 640 780 L 640 800 L 660 800 L 680 800 L 700 800 L 700 780 L 700 760 L 720 760 L 740 760 L 760 760 L 780 760 L 800 760 L 820 760 L 820 780 L 820 800 L 840 800 L 860 800 L 880 800 L 880 780 L 880 760 L 880 740 L 880 720 L 880 700 L 880 680 L 880 660 L 880 640 L 880 620 L 880 600 L 880 580 L 880 560 L 880 540 L 880 520 L 880 500 L 880 480 L 880 460 L 880 440 L 880 420 L 880 400 L 880 380 L 880 360 L 880 340 L 880 320 L 880 300 L 880 280 L 880 260 L 880 240 L 880 220 L 880 200 L 880 180 L 880 160 L 880 140 L 880 120 L 880 100 L 860 100 L 840 100 L 820 100 L 800 100 L 780 100 L 760 100 L 740 100 L 720 100 L 700 100 L 680 100 L 660 100 L 640 100 L 620 100 L 600 100 L 580 100 L 560 100 L 540 100 L 520 100 L 500 100 L 480 100 L 460 100 L 440 100 L 420 100 L 400 100 L 380 100 L 360 100 L 340 100 L 320 100 L 300 100 L 280 100 L 260 100 L 240 100 L 220 100 L 200 100 L 180 100 L 160 100 L 140 100 L 120 100 L 100 100 L 80 100 z M 500 860 L 500 880 L 500 900 L 500 920 L 500 940 L 520 940 L 520 920 L 520 900 L 520 880 L 520 860 L 500 860 z "
     style="fill:#a0a0a4" />
  <path
     id="rect4200"
     d="M 520 860 L 520 880 L 520 900 L 520 920 L 520 940 L 540 940 L 560 940 L 560 920 L 560 900 L 560 880 L 560 860 L 540 860 L 520 860 z "
     style="fill:#a7a7a7" />
  <path
     id="rect4202"
     d="M 0 0 L 0 20 L 0 40 L 0 60 L 0 80 L 0 100 L 0 120 L 0 140 L 0 160 L 0 180 L 0 200 L 0 220 L 0 240 L 0 260 L 0 280 L 0 300 L 0 320 L 0 340 L 0 360 L 0 380 L 0 400 L 0 420 L 0 440 L 0 460 L 0 480 L 0 500 L 0 520 L 0 540 L 0 560 L 0 580 L 0 600 L 0 620 L 0 640 L 0 660 L 0 680 L 0 700 L 0 720 L 0 740 L 0 760 L 0 780 L 0 800 L 0 820 L 20 820 L 20 800 L 20 780 L 20 760 L 20 740 L 20 720 L 20 700 L 20 680 L 20 660 L 20 640 L 20 620 L 20 600 L 20 580 L 20 560 L 20 540 L 20 520 L 20 500 L 20 480 L 20 460 L 20 440 L 20 420 L 20 400 L 20 380 L 20 360 L 20 340 L 20 320 L 20 300 L 20 280 L 20 260 L 20 240 L 20 220 L 20 200 L 20 180 L 20 160 L 20 140 L 20 120 L 20 100 L 20 80 L 20 60 L 20 40 L 40 40 L 60 40 L 80 40 L 100 40 L 120 40 L 140 40 L 160 40 L 180 40 L 200 40 L 220 40 L 240 40 L 260 40 L 280 40 L 300 40 L 320 40 L 340 40 L 360 40 L 380 40 L 400 40 L 420 40 L 440 40 L 460 40 L 480 40 L 500 40 L 520 40 L 540 40 L 560 40 L 580 40 L 600 40 L 620 40 L 640 40 L 660 40 L 680 40 L 700 40 L 720 40 L 740 40 L 760 40 L 780 40 L 800 40 L 820 40 L 840 40 L 860 40 L 880 40 L 900 40 L 900 20 L 900 0 L 880 0 L 860 0 L 840 0 L 820 0 L 800 0 L 780 0 L 760 0 L 740 0 L 720 0 L 700 0 L 680 0 L 660 0 L 640 0 L 620 0 L 600 0 L 580 0 L 560 0 L 540 0 L 520 0 L 500 0 L 480 0 L 460 0 L 440 0 L 420 0 L 400 0 L 380 0 L 360 0 L 340 0 L 320 0 L 300 0 L 280 0 L 260 0 L 240 0 L 220 0 L 200 0 L 180 0 L 160 0 L 140 0 L 120 0 L 100 0 L 80 0 L 60 0 L 40 0 L 20 0 L 0 0 z M 880 60 L 880 80 L 880 100 L 880 120 L 880 140 L 880 160 L 880 180 L 880 200 L 880 220 L 880 240 L 880 260 L 880 280 L 880 300 L 880 320 L 880 340 L 880 360 L 880 380 L 880 400 L 880 420 L 880 440 L 880 460 L 880 480 L 880 500 L 880 520 L 880 540 L 880 560 L 880 580 L 880 600 L 880 620 L 880 640 L 880 660 L 880 680 L 880 700 L 880 720 L 880 740 L 880 760 L 880 780 L 880 800 L 860 800 L 840 800 L 820 800 L 800 800 L 780 800 L 760 800 L 740 800 L 720 800 L 700 800 L 680 800 L 660 800 L 640 800 L 620 800 L 600 800 L 580 800 L 560 800 L 540 800 L 520 800 L 500 800 L 480 800 L 460 800 L 440 800 L 420 800 L 400 800 L 380 800 L 360 800 L 340 800 L 320 800 L 300 800 L 280 800 L 260 800 L 240 800 L 220 800 L 200 800 L 180 800 L 160 800 L 140 800 L 120 800 L 100 800 L 80 800 L 60 800 L 60 820 L 80 820 L 100 820 L 120 820 L 140 820 L 160 820 L 180 820 L 200 820 L 220 820 L 240 820 L 260 820 L 280 820 L 300 820 L 320 820 L 340 820 L 360 820 L 380 820 L 400 820 L 420 820 L 440 820 L 460 820 L 480 820 L 500 820 L 520 820 L 540 820 L 560 820 L 580 820 L 600 820 L 620 820 L 640 820 L 660 820 L 680 820 L 700 820 L 720 820 L 740 820 L 760 820 L 780 820 L 800 820 L 820 820 L 840 820 L 860 820 L 880 820 L 900 820 L 900 800 L 900 780 L 900 760 L 900 740 L 900 720 L 900 700 L 900 680 L 900 660 L 900 640 L 900 620 L 900 600 L 900 580 L 900 560 L 900 540 L 900 520 L 900 500 L 900 480 L 900 460 L 900 440 L 900 420 L 900 400 L 900 380 L 900 360 L 900 340 L 900 320 L 900 300 L 900 280 L 900 260 L 900 240 L 900 220 L 900 200 L 900 180 L 900 160 L 900 140 L 900 120 L 900 100 L 900 80 L 900 60 L 880 60 z M 120 720 L 120 740 L 140 740 L 160 740 L 180 740 L 200 740 L 220 740 L 240 740 L 260 740 L 280 740 L 300 740 L 320 740 L 340 740 L 360 740 L 380 740 L 400 740 L 420 740 L 440 740 L 460 740 L 480 740 L 500 740 L 520 740 L 540 740 L 560 740 L 580 740 L 600 740 L 620 740 L 640 740 L 660 740 L 680 740 L 700 740 L 720 740 L 740 740 L 760 740 L 780 740 L 800 740 L 820 740 L 840 740 L 840 720 L 820 720 L 800 720 L 780 720 L 760 720 L 740 720 L 720 720 L 700 720 L 680 720 L 660 720 L 640 720 L 620 720 L 600 720 L 580 720 L 560 720 L 540 720 L 520 720 L 500 720 L 480 720 L 460 720 L 440 720 L 420 720 L 400 720 L 380 720 L 360 720 L 340 720 L 320 720 L 300 720 L 280 720 L 260 720 L 240 720 L 220 720 L 200 720 L 180 720 L 160 720 L 140 720 L 120 720 z M 560 860 L 560 880 L 560 900 L 560 920 L 560 940 L 580 940 L 580 920 L 580 900 L 580 880 L 580 860 L 560 860 z M 260 880 L 260 900 L 260 920 L 260 940 L 280 940 L 300 940 L 300 920 L 300 900 L 300 880 L 280 880 L 260 880 z "
     style="fill:#989898" />
  <path
     id="rect4206"
     d="M 580 860 L 580 880 L 580 900 L 580 920 L 580 940 L 600 940 L 620 940 L 620 920 L 620 900 L 620 880 L 620 860 L 600 860 L 580 860 z "
     style="fill:#8a8a8a" />
  <path
     id="rect4208"
     d="M 260 620 L 260 640 L 260 660 L 240 660 L 220 660 L 200 660 L 180 660 L 180 680 L 200 680 L 220 680 L 240 680 L 260 680 L 280 680 L 300 680 L 300 660 L 300 640 L 300 620 L 280 620 L 260 620 z M 400 620 L 400 640 L 400 660 L 380 660 L 360 660 L 340 660 L 320 660 L 320 680 L 340 680 L 360 680 L 380 680 L 400 680 L 420 680 L 440 680 L 440 660 L 440 640 L 440 620 L 420 620 L 400 620 z M 560 620 L 560 640 L 560 660 L 540 660 L 520 660 L 500 660 L 480 660 L 460 660 L 460 680 L 480 680 L 500 680 L 520 680 L 540 680 L 560 680 L 580 680 L 580 660 L 580 640 L 580 620 L 560 620 z M 700 620 L 700 640 L 700 660 L 680 660 L 660 660 L 640 660 L 620 660 L 620 680 L 640 680 L 660 680 L 680 680 L 700 680 L 720 680 L 740 680 L 760 680 L 780 680 L 800 680 L 820 680 L 820 660 L 820 640 L 820 620 L 800 620 L 780 620 L 760 620 L 740 620 L 720 620 L 700 620 z M 260 860 L 260 880 L 280 880 L 300 880 L 300 860 L 280 860 L 260 860 z M 620 860 L 620 880 L 620 900 L 620 920 L 620 940 L 640 940 L 640 920 L 640 900 L 640 880 L 640 860 L 620 860 z "
     style="fill:#797979" />
  <path
     id="rect4212"
     d="M 900 0 L 900 20 L 900 40 L 900 60 L 900 80 L 900 100 L 900 120 L 900 140 L 900 160 L 900 180 L 900 200 L 900 220 L 900 240 L 900 260 L 900 280 L 900 300 L 900 320 L 900 340 L 900 360 L 900 380 L 900 400 L 900 420 L 900 440 L 900 460 L 900 480 L 900 500 L 900 520 L 900 540 L 900 560 L 900 580 L 900 600 L 900 620 L 900 640 L 900 660 L 900 680 L 900 700 L 900 720 L 900 740 L 900 760 L 900 780 L 900 800 L 900 820 L 900 840 L 880 840 L 860 840 L 840 840 L 820 840 L 800 840 L 780 840 L 760 840 L 740 840 L 720 840 L 700 840 L 680 840 L 660 840 L 640 840 L 620 840 L 600 840 L 580 840 L 560 840 L 540 840 L 520 840 L 500 840 L 480 840 L 460 840 L 440 840 L 420 840 L 400 840 L 380 840 L 360 840 L 340 840 L 320 840 L 300 840 L 280 840 L 260 840 L 240 840 L 220 840 L 200 840 L 180 840 L 160 840 L 140 840 L 120 840 L 100 840 L 80 840 L 60 840 L 40 840 L 20 840 L 0 840 L 0 860 L 20 860 L 40 860 L 60 860 L 80 860 L 100 860 L 120 860 L 140 860 L 160 860 L 180 860 L 200 860 L 220 860 L 240 860 L 260 860 L 280 860 L 300 860 L 320 860 L 340 860 L 360 860 L 380 860 L 400 860 L 420 860 L 440 860 L 460 860 L 480 860 L 500 860 L 520 860 L 540 860 L 560 860 L 580 860 L 600 860 L 620 860 L 640 860 L 640 880 L 640 900 L 640 920 L 640 940 L 660 940 L 680 940 L 680 920 L 680 900 L 680 880 L 680 860 L 700 860 L 720 860 L 740 860 L 760 860 L 780 860 L 800 860 L 820 860 L 840 860 L 860 860 L 880 860 L 900 860 L 920 860 L 940 860 L 940 840 L 940 820 L 940 800 L 940 780 L 940 760 L 940 740 L 940 720 L 940 700 L 940 680 L 940 660 L 940 640 L 940 620 L 940 600 L 940 580 L 940 560 L 940 540 L 940 520 L 940 500 L 940 480 L 940 460 L 940 440 L 940 420 L 940 400 L 940 380 L 940 360 L 940 340 L 940 320 L 940 300 L 940 280 L 940 260 L 940 240 L 940 220 L 940 200 L 940 180 L 940 160 L 940 140 L 940 120 L 940 100 L 940 80 L 940 60 L 940 40 L 940 20 L 940 0 L 920 0 L 900 0 z M 120 120 L 120 140 L 120 160 L 120 180 L 120 200 L 120 220 L 120 240 L 120 260 L 120 280 L 120 300 L 120 320 L 120 340 L 120 360 L 120 380 L 120 400 L 120 420 L 120 440 L 120 460 L 120 480 L 120 500 L 120 520 L 120 540 L 120 560 L 120 580 L 120 600 L 120 620 L 120 640 L 120 660 L 120 680 L 140 680 L 140 660 L 140 640 L 140 620 L 140 600 L 140 580 L 140 560 L 140 540 L 140 520 L 140 500 L 140 480 L 140 460 L 140 440 L 140 420 L 140 400 L 140 380 L 140 360 L 140 340 L 140 320 L 140 300 L 140 280 L 140 260 L 140 240 L 140 220 L 140 200 L 140 180 L 140 160 L 140 140 L 160 140 L 180 140 L 200 140 L 220 140 L 240 140 L 260 140 L 280 140 L 300 140 L 320 140 L 340 140 L 360 140 L 380 140 L 400 140 L 420 140 L 440 140 L 460 140 L 480 140 L 500 140 L 520 140 L 540 140 L 560 140 L 580 140 L 600 140 L 620 140 L 640 140 L 660 140 L 680 140 L 700 140 L 720 140 L 740 140 L 760 140 L 780 140 L 800 140 L 820 140 L 820 120 L 800 120 L 780 120 L 760 120 L 740 120 L 720 120 L 700 120 L 680 120 L 660 120 L 640 120 L 620 120 L 600 120 L 580 120 L 560 120 L 540 120 L 520 120 L 500 120 L 480 120 L 460 120 L 440 120 L 420 120 L 400 120 L 380 120 L 360 120 L 340 120 L 320 120 L 300 120 L 280 120 L 260 120 L 240 120 L 220 120 L 200 120 L 180 120 L 160 120 L 140 120 L 120 120 z "
     style="fill:#020202" />
</svg>
