<?xml version="1.0" encoding="UTF-8" standalone="no"?>
<svg
   xmlns:dc="http://purl.org/dc/elements/1.1/"
   xmlns:cc="http://creativecommons.org/ns#"
   xmlns:rdf="http://www.w3.org/1999/02/22-rdf-syntax-ns#"
   xmlns:svg="http://www.w3.org/2000/svg"
   xmlns="http://www.w3.org/2000/svg"
   id="svg746"
   width="940px"
   version="1.1"
   height="960px">
  <metadata
     id="metadata750">
    <rdf:RDF>
      <cc:Work
         rdf:about="">
        <dc:format>image/svg+xml</dc:format>
        <dc:type
           rdf:resource="http://purl.org/dc/dcmitype/StillImage" />
      </cc:Work>
    </rdf:RDF>
  </metadata>
  <defs
     id="defs2" />
  <path
     style="opacity:0.73333333;fill:#808000"
     d="M 300 240 L 300 260 L 320 260 L 320 240 L 300 240 z M 520 240 L 520 260 L 540 260 L 560 260 L 560 240 L 540 240 L 520 240 z M 200 300 L 200 320 L 220 320 L 240 320 L 240 300 L 220 300 L 200 300 z M 620 300 L 620 320 L 640 320 L 640 300 L 620 300 z M 140 380 L 140 400 L 140 420 L 160 420 L 180 420 L 180 400 L 180 380 L 160 380 L 140 380 z M 680 380 L 680 400 L 680 420 L 700 420 L 700 400 L 700 380 L 680 380 z M 120 500 L 120 520 L 120 540 L 140 540 L 140 520 L 140 500 L 120 500 z M 140 620 L 140 640 L 140 660 L 160 660 L 180 660 L 180 640 L 180 620 L 160 620 L 140 620 z M 680 620 L 680 640 L 680 660 L 700 660 L 700 640 L 700 620 L 680 620 z M 620 720 L 620 740 L 640 740 L 640 720 L 620 720 z M 300 760 L 300 780 L 300 800 L 320 800 L 320 780 L 320 760 L 300 760 z M 520 760 L 520 780 L 520 800 L 540 800 L 560 800 L 560 780 L 560 760 L 540 760 L 520 760 z M 400 800 L 400 820 L 400 840 L 420 840 L 440 840 L 440 820 L 440 800 L 420 800 L 400 800 z "
     id="rect688" />
  <path
     style="fill:#ff0000"
     d="M 320 0 L 320 20 L 320 40 L 300 40 L 300 60 L 300 80 L 300 100 L 300 120 L 300 140 L 300 160 L 300 180 L 320 180 L 320 200 L 320 220 L 320 240 L 340 240 L 360 240 L 360 260 L 360 280 L 360 300 L 360 320 L 340 320 L 320 320 L 320 340 L 320 360 L 320 380 L 320 400 L 320 420 L 300 420 L 300 440 L 300 460 L 300 480 L 300 500 L 280 500 L 260 500 L 260 520 L 260 540 L 260 560 L 240 560 L 240 580 L 240 600 L 240 620 L 240 640 L 240 660 L 220 660 L 200 660 L 200 680 L 180 680 L 180 700 L 180 720 L 160 720 L 140 720 L 140 740 L 160 740 L 180 740 L 180 760 L 180 780 L 180 800 L 160 800 L 140 800 L 140 820 L 120 820 L 120 840 L 120 860 L 100 860 L 80 860 L 80 880 L 60 880 L 60 860 L 60 840 L 80 840 L 80 820 L 80 800 L 100 800 L 120 800 L 120 780 L 140 780 L 140 760 L 140 740 L 120 740 L 100 740 L 80 740 L 80 760 L 60 760 L 60 780 L 60 800 L 40 800 L 20 800 L 20 820 L 0 820 L 0 840 L 0 860 L 0 880 L 0 900 L 0 920 L 0 940 L 20 940 L 40 940 L 60 940 L 80 940 L 80 920 L 100 920 L 120 920 L 120 900 L 120 880 L 140 880 L 140 860 L 160 860 L 180 860 L 180 840 L 200 840 L 200 820 L 200 800 L 200 780 L 220 780 L 240 780 L 240 760 L 240 740 L 240 720 L 260 720 L 260 700 L 260 680 L 280 680 L 300 680 L 300 660 L 320 660 L 340 660 L 360 660 L 380 660 L 380 640 L 380 620 L 400 620 L 420 620 L 440 620 L 440 600 L 460 600 L 480 600 L 500 600 L 520 600 L 520 580 L 520 560 L 540 560 L 560 560 L 580 560 L 600 560 L 620 560 L 640 560 L 660 560 L 680 560 L 680 580 L 680 600 L 700 600 L 720 600 L 740 600 L 740 620 L 760 620 L 780 620 L 800 620 L 820 620 L 840 620 L 860 620 L 880 620 L 900 620 L 900 600 L 880 600 L 860 600 L 840 600 L 820 600 L 800 600 L 800 580 L 800 560 L 780 560 L 760 560 L 740 560 L 740 540 L 760 540 L 780 540 L 800 540 L 820 540 L 840 540 L 860 540 L 880 540 L 880 560 L 900 560 L 900 580 L 900 600 L 920 600 L 940 600 L 940 580 L 940 560 L 940 540 L 920 540 L 900 540 L 900 520 L 900 500 L 880 500 L 860 500 L 840 500 L 820 500 L 800 500 L 780 500 L 760 500 L 740 500 L 720 500 L 700 500 L 680 500 L 660 500 L 640 500 L 620 500 L 620 480 L 600 480 L 580 480 L 580 460 L 580 440 L 560 440 L 540 440 L 520 440 L 520 420 L 500 420 L 500 400 L 500 380 L 480 380 L 460 380 L 460 360 L 460 340 L 460 320 L 440 320 L 440 300 L 440 280 L 440 260 L 440 240 L 440 220 L 440 200 L 440 180 L 440 160 L 440 140 L 440 120 L 440 100 L 440 80 L 440 60 L 440 40 L 420 40 L 420 20 L 420 0 L 400 0 L 380 0 L 360 0 L 340 0 L 320 0 z M 360 40 L 380 40 L 380 60 L 400 60 L 400 80 L 400 100 L 400 120 L 400 140 L 400 160 L 400 180 L 400 200 L 400 220 L 400 240 L 380 240 L 380 220 L 380 200 L 360 200 L 360 180 L 360 160 L 360 140 L 360 120 L 360 100 L 360 80 L 360 60 L 360 40 z M 380 360 L 400 360 L 400 380 L 420 380 L 440 380 L 440 400 L 440 420 L 460 420 L 460 440 L 480 440 L 500 440 L 500 460 L 500 480 L 520 480 L 520 500 L 540 500 L 560 500 L 560 520 L 560 540 L 540 540 L 520 540 L 500 540 L 480 540 L 460 540 L 460 560 L 440 560 L 420 560 L 400 560 L 380 560 L 380 580 L 380 600 L 360 600 L 360 620 L 340 620 L 320 620 L 300 620 L 300 600 L 320 600 L 320 580 L 320 560 L 320 540 L 320 520 L 320 500 L 340 500 L 360 500 L 360 480 L 360 460 L 360 440 L 360 420 L 380 420 L 380 400 L 380 380 L 380 360 z "
     id="rect744" />
</svg>
