<?xml version="1.0" encoding="UTF-8" standalone="no"?>
<svg
   xmlns:dc="http://purl.org/dc/elements/1.1/"
   xmlns:cc="http://creativecommons.org/ns#"
   xmlns:rdf="http://www.w3.org/1999/02/22-rdf-syntax-ns#"
   xmlns:svg="http://www.w3.org/2000/svg"
   xmlns="http://www.w3.org/2000/svg"
   id="svg2380"
   width="960px"
   version="1.1"
   height="960px">
  <metadata
     id="metadata2384">
    <rdf:RDF>
      <cc:Work
         rdf:about="">
        <dc:format>image/svg+xml</dc:format>
        <dc:type
           rdf:resource="http://purl.org/dc/dcmitype/StillImage" />
      </cc:Work>
    </rdf:RDF>
  </metadata>
  <defs
     id="defs2" />
  <path
     style="fill:#ffffff"
     d="M 100 260 L 100 280 L 120 280 L 120 260 L 100 260 z M 740 320 L 740 340 L 760 340 L 760 320 L 740 320 z M 760 340 L 760 360 L 780 360 L 780 340 L 760 340 z M 780 360 L 780 380 L 800 380 L 800 360 L 780 360 z M 780 380 L 760 380 L 760 400 L 780 400 L 780 380 z M 760 400 L 740 400 L 740 420 L 760 420 L 760 400 z M 740 420 L 720 420 L 720 440 L 740 440 L 740 420 z M 720 440 L 700 440 L 700 460 L 720 460 L 720 440 z M 700 460 L 680 460 L 680 480 L 700 480 L 700 460 z M 680 480 L 660 480 L 660 500 L 680 500 L 680 480 z M 660 500 L 640 500 L 640 520 L 660 520 L 660 500 z M 640 500 L 640 480 L 620 480 L 620 500 L 640 500 z M 620 480 L 620 460 L 600 460 L 600 480 L 620 480 z M 620 460 L 640 460 L 640 440 L 620 440 L 620 460 z M 640 440 L 660 440 L 660 420 L 640 420 L 640 440 z M 660 420 L 680 420 L 680 400 L 660 400 L 660 420 z M 680 400 L 700 400 L 700 380 L 680 380 L 680 400 z M 700 380 L 720 380 L 720 360 L 700 360 L 700 380 z M 720 360 L 740 360 L 740 340 L 720 340 L 720 360 z M 740 360 L 740 380 L 760 380 L 760 360 L 740 360 z M 740 380 L 720 380 L 720 400 L 740 400 L 740 380 z M 720 400 L 700 400 L 700 420 L 720 420 L 720 400 z M 700 420 L 680 420 L 680 440 L 700 440 L 700 420 z M 680 440 L 660 440 L 660 460 L 680 460 L 680 440 z M 660 460 L 640 460 L 640 480 L 660 480 L 660 460 z M 280 360 L 280 380 L 300 380 L 300 360 L 280 360 z M 380 640 L 380 660 L 400 660 L 400 640 L 380 640 z M 400 660 L 400 680 L 420 680 L 420 660 L 400 660 z M 420 680 L 420 700 L 440 700 L 440 680 L 420 680 z M 420 700 L 400 700 L 400 720 L 420 720 L 420 700 z M 400 720 L 380 720 L 380 740 L 400 740 L 400 720 z M 380 740 L 360 740 L 360 760 L 380 760 L 380 740 z M 360 760 L 340 760 L 340 780 L 360 780 L 360 760 z M 340 780 L 320 780 L 320 800 L 340 800 L 340 780 z M 320 800 L 300 800 L 300 820 L 320 820 L 320 800 z M 300 820 L 280 820 L 280 840 L 300 840 L 300 820 z M 280 820 L 280 800 L 260 800 L 260 820 L 280 820 z M 260 800 L 260 780 L 240 780 L 240 800 L 260 800 z M 260 780 L 280 780 L 280 760 L 260 760 L 260 780 z M 280 760 L 300 760 L 300 740 L 280 740 L 280 760 z M 300 740 L 320 740 L 320 720 L 300 720 L 300 740 z M 320 720 L 340 720 L 340 700 L 320 700 L 320 720 z M 340 700 L 360 700 L 360 680 L 340 680 L 340 700 z M 360 680 L 380 680 L 380 660 L 360 660 L 360 680 z M 380 680 L 380 700 L 400 700 L 400 680 L 380 680 z M 380 700 L 360 700 L 360 720 L 380 720 L 380 700 z M 360 720 L 340 720 L 340 740 L 360 740 L 360 720 z M 340 740 L 320 740 L 320 760 L 340 760 L 340 740 z M 320 760 L 300 760 L 300 780 L 320 780 L 320 760 z M 300 780 L 280 780 L 280 800 L 300 800 L 300 780 z "
     id="rect2104" />
  <path
     style="fill:#00ffff"
     d="M 400 240 L 400 260 L 400 280 L 400 300 L 400 320 L 400 340 L 400 360 L 400 380 L 400 400 L 400 420 L 420 420 L 420 440 L 440 440 L 440 460 L 460 460 L 460 440 L 460 420 L 460 400 L 460 380 L 460 360 L 460 340 L 440 340 L 440 320 L 440 300 L 440 280 L 440 260 L 420 260 L 420 240 L 400 240 z M 340 260 L 340 280 L 320 280 L 320 300 L 320 320 L 340 320 L 360 320 L 360 300 L 360 280 L 360 260 L 340 260 z M 200 420 L 200 440 L 220 440 L 240 440 L 240 420 L 220 420 L 200 420 z M 240 440 L 240 460 L 260 460 L 260 440 L 240 440 z M 280 460 L 280 480 L 300 480 L 320 480 L 320 460 L 300 460 L 280 460 z M 320 480 L 320 500 L 340 500 L 360 500 L 360 480 L 340 480 L 320 480 z M 360 500 L 360 520 L 380 520 L 400 520 L 400 500 L 380 500 L 360 500 z M 580 680 L 580 700 L 600 700 L 600 720 L 620 720 L 620 740 L 620 760 L 640 760 L 640 780 L 660 780 L 660 800 L 660 820 L 680 820 L 680 840 L 700 840 L 700 860 L 700 880 L 720 880 L 740 880 L 740 860 L 760 860 L 760 840 L 760 820 L 740 820 L 740 800 L 720 800 L 720 780 L 700 780 L 700 760 L 680 760 L 680 740 L 660 740 L 660 720 L 640 720 L 640 700 L 620 700 L 620 680 L 600 680 L 580 680 z "
     id="rect2252" />
  <path
     style="fill:#808080"
     d="M 440 200 L 440 220 L 460 220 L 480 220 L 500 220 L 520 220 L 540 220 L 560 220 L 580 220 L 600 220 L 600 200 L 580 200 L 560 200 L 540 200 L 520 200 L 500 200 L 480 200 L 460 200 L 440 200 z M 600 220 L 600 240 L 620 240 L 640 240 L 660 240 L 660 220 L 640 220 L 620 220 L 600 220 z M 660 240 L 660 260 L 680 260 L 700 260 L 700 240 L 680 240 L 660 240 z M 700 260 L 700 280 L 720 280 L 740 280 L 740 260 L 720 260 L 700 260 z M 440 220 L 420 220 L 400 220 L 400 240 L 420 240 L 440 240 L 440 220 z M 340 240 L 340 260 L 360 260 L 360 240 L 340 240 z M 340 260 L 320 260 L 300 260 L 300 280 L 320 280 L 340 280 L 340 260 z M 300 280 L 280 280 L 280 300 L 300 300 L 300 280 z M 280 300 L 260 300 L 260 320 L 280 320 L 280 300 z M 260 320 L 240 320 L 240 340 L 260 340 L 260 320 z M 240 340 L 220 340 L 220 360 L 240 360 L 240 340 z M 220 360 L 200 360 L 200 380 L 200 400 L 220 400 L 220 380 L 220 360 z M 200 400 L 180 400 L 180 420 L 180 440 L 200 440 L 200 420 L 200 400 z M 180 440 L 160 440 L 160 460 L 160 480 L 160 500 L 180 500 L 180 480 L 180 460 L 180 440 z M 160 500 L 140 500 L 140 520 L 140 540 L 140 560 L 140 580 L 140 600 L 140 620 L 140 640 L 140 660 L 160 660 L 160 640 L 180 640 L 180 620 L 160 620 L 160 600 L 160 580 L 160 560 L 160 540 L 160 520 L 160 500 z M 180 640 L 180 660 L 200 660 L 200 640 L 180 640 z M 200 640 L 220 640 L 220 620 L 200 620 L 200 640 z M 220 640 L 220 660 L 240 660 L 240 640 L 220 640 z M 240 640 L 260 640 L 260 620 L 240 620 L 240 640 z M 260 640 L 260 660 L 280 660 L 280 640 L 260 640 z M 280 640 L 300 640 L 300 620 L 280 620 L 280 640 z M 300 640 L 300 660 L 320 660 L 320 640 L 300 640 z M 320 640 L 340 640 L 340 620 L 320 620 L 320 640 z M 340 640 L 340 660 L 360 660 L 360 640 L 340 640 z M 360 640 L 380 640 L 380 620 L 360 620 L 360 640 z M 380 620 L 400 620 L 400 600 L 400 580 L 400 560 L 400 540 L 380 540 L 380 560 L 380 580 L 380 600 L 380 620 z M 400 540 L 420 540 L 420 520 L 420 500 L 400 500 L 400 520 L 400 540 z M 420 500 L 440 500 L 440 480 L 420 480 L 420 500 z M 440 480 L 460 480 L 480 480 L 480 460 L 460 460 L 440 460 L 440 480 z M 480 460 L 500 460 L 520 460 L 540 460 L 560 460 L 560 440 L 540 440 L 520 440 L 500 440 L 480 440 L 480 460 z M 560 460 L 560 480 L 580 480 L 600 480 L 600 460 L 580 460 L 560 460 z M 600 480 L 600 500 L 620 500 L 620 480 L 600 480 z M 620 500 L 620 520 L 620 540 L 640 540 L 640 520 L 640 500 L 620 500 z M 640 540 L 640 560 L 640 580 L 640 600 L 640 620 L 660 620 L 660 600 L 660 580 L 660 560 L 660 540 L 640 540 z M 660 540 L 680 540 L 680 520 L 660 520 L 660 540 z M 680 520 L 700 520 L 700 500 L 680 500 L 680 520 z M 700 500 L 720 500 L 720 480 L 700 480 L 700 500 z M 720 480 L 740 480 L 740 460 L 720 460 L 720 480 z M 740 460 L 760 460 L 760 440 L 740 440 L 740 460 z M 760 440 L 780 440 L 780 420 L 760 420 L 760 440 z M 780 420 L 800 420 L 800 400 L 780 400 L 780 420 z M 800 400 L 820 400 L 820 380 L 800 380 L 800 400 z M 820 400 L 820 420 L 840 420 L 840 400 L 820 400 z M 820 420 L 800 420 L 800 440 L 820 440 L 820 420 z M 820 440 L 820 460 L 840 460 L 840 440 L 820 440 z M 840 460 L 840 480 L 860 480 L 860 460 L 840 460 z M 840 480 L 820 480 L 820 500 L 840 500 L 840 480 z M 840 500 L 840 520 L 860 520 L 860 500 L 840 500 z M 860 520 L 860 540 L 880 540 L 880 520 L 860 520 z M 840 520 L 820 520 L 820 540 L 840 540 L 840 520 z M 820 520 L 820 500 L 800 500 L 800 520 L 820 520 z M 800 520 L 780 520 L 780 540 L 800 540 L 800 520 z M 780 520 L 780 500 L 760 500 L 760 520 L 780 520 z M 760 520 L 740 520 L 740 540 L 760 540 L 760 520 z M 740 520 L 740 500 L 720 500 L 720 520 L 740 520 z M 720 520 L 700 520 L 700 540 L 720 540 L 720 520 z M 740 500 L 760 500 L 760 480 L 740 480 L 740 500 z M 760 480 L 780 480 L 780 460 L 760 460 L 760 480 z M 780 460 L 800 460 L 800 440 L 780 440 L 780 460 z M 800 460 L 800 480 L 820 480 L 820 460 L 800 460 z M 800 480 L 780 480 L 780 500 L 800 500 L 800 480 z M 640 620 L 620 620 L 620 640 L 620 660 L 640 660 L 640 640 L 640 620 z M 620 660 L 600 660 L 600 680 L 620 680 L 620 660 z M 600 660 L 600 640 L 600 620 L 580 620 L 580 640 L 560 640 L 560 660 L 580 660 L 600 660 z M 560 660 L 540 660 L 520 660 L 500 660 L 480 660 L 480 680 L 500 680 L 520 680 L 540 680 L 560 680 L 560 660 z M 560 680 L 560 700 L 580 700 L 580 680 L 560 680 z M 560 700 L 540 700 L 520 700 L 500 700 L 480 700 L 480 720 L 500 720 L 520 720 L 540 720 L 560 720 L 560 700 z M 480 700 L 480 680 L 460 680 L 440 680 L 440 700 L 460 700 L 480 700 z M 440 680 L 440 660 L 420 660 L 420 680 L 440 680 z M 420 660 L 420 640 L 420 620 L 400 620 L 400 640 L 400 660 L 420 660 z M 420 620 L 440 620 L 440 600 L 440 580 L 440 560 L 440 540 L 420 540 L 420 560 L 420 580 L 420 600 L 420 620 z M 440 540 L 460 540 L 460 520 L 480 520 L 480 500 L 460 500 L 440 500 L 440 520 L 440 540 z M 480 500 L 500 500 L 520 500 L 540 500 L 560 500 L 560 480 L 540 480 L 520 480 L 500 480 L 480 480 L 480 500 z M 560 500 L 560 520 L 580 520 L 580 540 L 600 540 L 600 520 L 600 500 L 580 500 L 560 500 z M 600 540 L 600 560 L 600 580 L 600 600 L 600 620 L 620 620 L 620 600 L 620 580 L 620 560 L 620 540 L 600 540 z M 440 620 L 440 640 L 440 660 L 460 660 L 480 660 L 480 640 L 460 640 L 460 620 L 440 620 z M 340 660 L 320 660 L 320 680 L 340 680 L 340 660 z M 320 680 L 300 680 L 300 700 L 320 700 L 320 680 z M 300 700 L 280 700 L 280 720 L 300 720 L 300 700 z M 280 720 L 260 720 L 260 740 L 280 740 L 280 720 z M 260 740 L 240 740 L 240 760 L 260 760 L 260 740 z M 240 760 L 220 760 L 220 740 L 200 740 L 200 720 L 180 720 L 180 740 L 180 760 L 200 760 L 200 780 L 200 800 L 220 800 L 220 780 L 240 780 L 240 760 z M 220 800 L 220 820 L 240 820 L 240 800 L 220 800 z M 240 820 L 240 840 L 260 840 L 260 820 L 240 820 z M 260 840 L 260 860 L 280 860 L 280 840 L 260 840 z M 280 860 L 280 880 L 300 880 L 300 860 L 280 860 z M 300 880 L 300 900 L 320 900 L 340 900 L 340 880 L 320 880 L 300 880 z M 180 720 L 180 700 L 200 700 L 200 680 L 180 680 L 180 660 L 160 660 L 160 680 L 160 700 L 160 720 L 180 720 z M 200 680 L 220 680 L 220 660 L 200 660 L 200 680 z M 220 680 L 220 700 L 240 700 L 240 680 L 220 680 z M 240 680 L 260 680 L 260 660 L 240 660 L 240 680 z M 260 680 L 260 700 L 280 700 L 280 680 L 260 680 z M 280 680 L 300 680 L 300 660 L 280 660 L 280 680 z M 260 700 L 240 700 L 240 720 L 260 720 L 260 700 z M 240 720 L 220 720 L 220 740 L 240 740 L 240 720 z M 220 720 L 220 700 L 200 700 L 200 720 L 220 720 z M 80 280 L 80 300 L 100 300 L 120 300 L 120 280 L 100 280 L 80 280 z M 260 380 L 260 400 L 280 400 L 300 400 L 300 380 L 280 380 L 260 380 z "
     id="rect2258" />
  <path
     style="fill:#00ff00"
     d="M 300 280 L 300 300 L 280 300 L 280 320 L 300 320 L 320 320 L 320 300 L 320 280 L 300 280 z M 280 320 L 260 320 L 260 340 L 280 340 L 280 320 z M 260 340 L 240 340 L 240 360 L 260 360 L 260 340 z M 240 360 L 220 360 L 220 380 L 240 380 L 240 360 z M 380 420 L 380 440 L 380 460 L 400 460 L 420 460 L 420 480 L 440 480 L 440 460 L 440 440 L 420 440 L 420 420 L 400 420 L 380 420 z M 560 700 L 560 720 L 580 720 L 580 700 L 560 700 z M 580 720 L 580 740 L 580 760 L 580 780 L 580 800 L 580 820 L 600 820 L 600 840 L 600 860 L 600 880 L 600 900 L 620 900 L 620 920 L 640 920 L 660 920 L 660 900 L 680 900 L 680 880 L 660 880 L 660 860 L 660 840 L 640 840 L 640 820 L 640 800 L 620 800 L 620 780 L 620 760 L 600 760 L 600 740 L 600 720 L 580 720 z "
     id="rect2330" />
  <path
     style="fill:#c0c0c0"
     d="M 520 220 L 520 240 L 520 260 L 520 280 L 520 300 L 520 320 L 520 340 L 520 360 L 520 380 L 520 400 L 520 420 L 520 440 L 540 440 L 560 440 L 560 460 L 580 460 L 600 460 L 620 460 L 620 440 L 640 440 L 640 420 L 660 420 L 660 400 L 680 400 L 680 380 L 700 380 L 700 360 L 720 360 L 720 340 L 740 340 L 740 320 L 760 320 L 760 300 L 740 300 L 740 280 L 720 280 L 700 280 L 700 260 L 680 260 L 660 260 L 660 240 L 640 240 L 620 240 L 600 240 L 600 220 L 580 220 L 560 220 L 540 220 L 520 220 z M 760 320 L 760 340 L 780 340 L 780 320 L 760 320 z M 780 340 L 780 360 L 800 360 L 800 340 L 780 340 z M 800 360 L 800 380 L 820 380 L 820 360 L 800 360 z M 800 380 L 780 380 L 780 400 L 800 400 L 800 380 z M 800 400 L 800 420 L 820 420 L 820 400 L 800 400 z M 820 420 L 820 440 L 840 440 L 840 420 L 820 420 z M 840 440 L 840 460 L 860 460 L 860 440 L 840 440 z M 840 460 L 820 460 L 820 480 L 840 480 L 840 460 z M 840 480 L 840 500 L 860 500 L 860 480 L 840 480 z M 860 500 L 860 520 L 880 520 L 880 500 L 860 500 z M 860 520 L 840 520 L 840 540 L 820 540 L 820 520 L 800 520 L 800 540 L 780 540 L 780 520 L 760 520 L 760 540 L 740 540 L 740 520 L 720 520 L 720 540 L 700 540 L 700 520 L 680 520 L 680 540 L 660 540 L 660 560 L 660 580 L 660 600 L 660 620 L 640 620 L 640 640 L 640 660 L 620 660 L 620 680 L 620 700 L 640 700 L 640 720 L 660 720 L 660 740 L 680 740 L 680 760 L 700 760 L 700 780 L 720 780 L 720 800 L 740 800 L 740 820 L 760 820 L 760 840 L 780 840 L 780 820 L 800 820 L 800 800 L 820 800 L 820 780 L 820 760 L 840 760 L 840 740 L 840 720 L 860 720 L 860 700 L 860 680 L 860 660 L 880 660 L 880 640 L 880 620 L 880 600 L 880 580 L 880 560 L 880 540 L 860 540 L 860 520 z M 660 540 L 660 520 L 640 520 L 640 540 L 660 540 z M 660 520 L 680 520 L 680 500 L 660 500 L 660 520 z M 660 500 L 660 480 L 640 480 L 640 500 L 660 500 z M 640 480 L 640 460 L 620 460 L 620 480 L 640 480 z M 640 460 L 660 460 L 660 440 L 640 440 L 640 460 z M 660 440 L 680 440 L 680 420 L 660 420 L 660 440 z M 680 420 L 700 420 L 700 400 L 680 400 L 680 420 z M 700 400 L 720 400 L 720 380 L 700 380 L 700 400 z M 720 380 L 740 380 L 740 360 L 720 360 L 720 380 z M 740 360 L 760 360 L 760 340 L 740 340 L 740 360 z M 760 360 L 760 380 L 780 380 L 780 360 L 760 360 z M 760 380 L 740 380 L 740 400 L 760 400 L 760 380 z M 760 400 L 760 420 L 780 420 L 780 400 L 760 400 z M 780 420 L 780 440 L 800 440 L 800 420 L 780 420 z M 800 440 L 800 460 L 820 460 L 820 440 L 800 440 z M 800 460 L 780 460 L 780 480 L 800 480 L 800 460 z M 800 480 L 800 500 L 820 500 L 820 480 L 800 480 z M 820 500 L 820 520 L 840 520 L 840 500 L 820 500 z M 800 500 L 780 500 L 780 520 L 800 520 L 800 500 z M 780 500 L 780 480 L 760 480 L 760 500 L 780 500 z M 760 500 L 740 500 L 740 520 L 760 520 L 760 500 z M 740 500 L 740 480 L 720 480 L 720 500 L 740 500 z M 720 500 L 700 500 L 700 520 L 720 520 L 720 500 z M 700 500 L 700 480 L 680 480 L 680 500 L 700 500 z M 680 480 L 680 460 L 660 460 L 660 480 L 680 480 z M 680 460 L 700 460 L 700 440 L 680 440 L 680 460 z M 700 440 L 720 440 L 720 420 L 700 420 L 700 440 z M 720 420 L 740 420 L 740 400 L 720 400 L 720 420 z M 740 420 L 740 440 L 760 440 L 760 420 L 740 420 z M 760 440 L 760 460 L 780 460 L 780 440 L 760 440 z M 760 460 L 740 460 L 740 480 L 760 480 L 760 460 z M 740 460 L 740 440 L 720 440 L 720 460 L 740 460 z M 720 460 L 700 460 L 700 480 L 720 480 L 720 460 z M 100 240 L 100 260 L 120 260 L 120 240 L 100 240 z M 100 260 L 80 260 L 80 280 L 100 280 L 100 260 z M 280 340 L 280 360 L 300 360 L 300 340 L 280 340 z M 280 360 L 260 360 L 260 380 L 280 380 L 280 360 z M 220 380 L 220 400 L 200 400 L 200 420 L 220 420 L 240 420 L 240 400 L 240 380 L 220 380 z M 180 440 L 180 460 L 180 480 L 180 500 L 160 500 L 160 520 L 160 540 L 160 560 L 160 580 L 160 600 L 160 620 L 180 620 L 180 640 L 200 640 L 200 620 L 220 620 L 220 640 L 240 640 L 240 620 L 260 620 L 260 640 L 280 640 L 280 620 L 300 620 L 300 640 L 320 640 L 320 620 L 340 620 L 340 640 L 360 640 L 360 620 L 380 620 L 380 600 L 380 580 L 380 560 L 380 540 L 400 540 L 400 520 L 380 520 L 360 520 L 360 500 L 340 500 L 320 500 L 320 480 L 300 480 L 280 480 L 280 460 L 260 460 L 240 460 L 240 440 L 220 440 L 200 440 L 180 440 z M 320 480 L 340 480 L 360 480 L 360 500 L 380 500 L 400 500 L 420 500 L 420 480 L 420 460 L 400 460 L 380 460 L 380 440 L 360 440 L 360 460 L 340 460 L 320 460 L 320 480 z M 380 620 L 380 640 L 400 640 L 400 620 L 380 620 z M 380 640 L 360 640 L 360 660 L 380 660 L 380 640 z M 380 660 L 380 680 L 400 680 L 400 660 L 380 660 z M 400 680 L 400 700 L 420 700 L 420 680 L 400 680 z M 420 700 L 420 720 L 400 720 L 400 740 L 380 740 L 380 760 L 360 760 L 360 780 L 340 780 L 340 800 L 320 800 L 320 820 L 300 820 L 300 840 L 280 840 L 280 860 L 300 860 L 300 880 L 320 880 L 340 880 L 340 900 L 360 900 L 380 900 L 380 920 L 400 920 L 420 920 L 440 920 L 440 940 L 460 940 L 480 940 L 500 940 L 520 940 L 520 920 L 520 900 L 520 880 L 520 860 L 520 840 L 520 820 L 520 800 L 520 780 L 520 760 L 520 740 L 520 720 L 500 720 L 480 720 L 480 700 L 460 700 L 440 700 L 420 700 z M 280 840 L 280 820 L 260 820 L 260 840 L 280 840 z M 260 820 L 260 800 L 240 800 L 240 820 L 260 820 z M 240 800 L 240 780 L 220 780 L 220 800 L 240 800 z M 240 780 L 260 780 L 260 760 L 240 760 L 240 780 z M 240 760 L 240 740 L 220 740 L 220 760 L 240 760 z M 220 740 L 220 720 L 200 720 L 200 740 L 220 740 z M 200 720 L 200 700 L 180 700 L 180 720 L 200 720 z M 200 700 L 220 700 L 220 680 L 200 680 L 200 700 z M 200 680 L 200 660 L 180 660 L 180 680 L 200 680 z M 180 660 L 180 640 L 160 640 L 160 660 L 180 660 z M 200 660 L 220 660 L 220 640 L 200 640 L 200 660 z M 220 660 L 220 680 L 240 680 L 240 660 L 220 660 z M 240 660 L 260 660 L 260 640 L 240 640 L 240 660 z M 260 660 L 260 680 L 280 680 L 280 660 L 260 660 z M 280 660 L 300 660 L 300 640 L 280 640 L 280 660 z M 300 660 L 300 680 L 320 680 L 320 660 L 300 660 z M 320 660 L 340 660 L 340 640 L 320 640 L 320 660 z M 340 660 L 340 680 L 360 680 L 360 660 L 340 660 z M 360 680 L 360 700 L 380 700 L 380 680 L 360 680 z M 380 700 L 380 720 L 400 720 L 400 700 L 380 700 z M 380 720 L 360 720 L 360 740 L 380 740 L 380 720 z M 360 740 L 340 740 L 340 760 L 360 760 L 360 740 z M 340 760 L 320 760 L 320 780 L 340 780 L 340 760 z M 320 780 L 300 780 L 300 800 L 320 800 L 320 780 z M 300 800 L 280 800 L 280 820 L 300 820 L 300 800 z M 280 800 L 280 780 L 260 780 L 260 800 L 280 800 z M 280 780 L 300 780 L 300 760 L 280 760 L 280 780 z M 280 760 L 280 740 L 260 740 L 260 760 L 280 760 z M 260 740 L 260 720 L 240 720 L 240 740 L 260 740 z M 240 720 L 240 700 L 220 700 L 220 720 L 240 720 z M 240 700 L 260 700 L 260 680 L 240 680 L 240 700 z M 260 700 L 260 720 L 280 720 L 280 700 L 260 700 z M 280 700 L 300 700 L 300 680 L 280 680 L 280 700 z M 300 700 L 300 720 L 320 720 L 320 700 L 300 700 z M 320 700 L 340 700 L 340 680 L 320 680 L 320 700 z M 340 700 L 340 720 L 360 720 L 360 700 L 340 700 z M 340 720 L 320 720 L 320 740 L 340 740 L 340 720 z M 320 740 L 300 740 L 300 760 L 320 760 L 320 740 z M 300 740 L 300 720 L 280 720 L 280 740 L 300 740 z M 580 700 L 580 720 L 600 720 L 600 700 L 580 700 z M 600 720 L 600 740 L 600 760 L 620 760 L 620 740 L 620 720 L 600 720 z M 620 760 L 620 780 L 620 800 L 640 800 L 640 820 L 640 840 L 660 840 L 660 860 L 660 880 L 680 880 L 680 900 L 700 900 L 700 880 L 700 860 L 700 840 L 680 840 L 680 820 L 660 820 L 660 800 L 660 780 L 640 780 L 640 760 L 620 760 z "
     id="rect2348" />
  <path
     style="fill:#ffff00"
     d="M 440 220 L 440 240 L 420 240 L 420 260 L 440 260 L 440 280 L 440 300 L 440 320 L 440 340 L 460 340 L 460 360 L 460 380 L 460 400 L 460 420 L 460 440 L 460 460 L 480 460 L 480 440 L 500 440 L 520 440 L 520 420 L 520 400 L 520 380 L 520 360 L 520 340 L 520 320 L 520 300 L 520 280 L 520 260 L 520 240 L 520 220 L 500 220 L 480 220 L 460 220 L 440 220 z M 520 720 L 520 740 L 520 760 L 520 780 L 520 800 L 520 820 L 520 840 L 520 860 L 520 880 L 520 900 L 520 920 L 520 940 L 540 940 L 560 940 L 580 940 L 600 940 L 600 920 L 620 920 L 620 900 L 600 900 L 600 880 L 600 860 L 600 840 L 600 820 L 580 820 L 580 800 L 580 780 L 580 760 L 580 740 L 580 720 L 560 720 L 540 720 L 520 720 z "
     id="rect2356" />
  <path
     style="fill:#000000"
     d="M 180 0 L 180 20 L 180 40 L 180 60 L 180 80 L 180 100 L 180 120 L 180 140 L 180 160 L 180 180 L 180 200 L 180 220 L 160 220 L 140 220 L 120 220 L 100 220 L 100 240 L 120 240 L 120 260 L 120 280 L 120 300 L 100 300 L 80 300 L 80 280 L 80 260 L 60 260 L 60 280 L 60 300 L 60 320 L 60 340 L 80 340 L 80 360 L 100 360 L 120 360 L 140 360 L 160 360 L 180 360 L 180 340 L 200 340 L 200 320 L 220 320 L 220 300 L 220 280 L 220 260 L 220 240 L 220 220 L 220 200 L 220 180 L 220 160 L 220 140 L 220 120 L 220 100 L 240 100 L 240 120 L 260 120 L 280 120 L 280 140 L 300 140 L 320 140 L 320 160 L 340 160 L 360 160 L 360 180 L 360 200 L 360 220 L 360 240 L 360 260 L 360 280 L 360 300 L 360 320 L 340 320 L 320 320 L 300 320 L 280 320 L 280 340 L 300 340 L 300 360 L 300 380 L 300 400 L 280 400 L 260 400 L 260 380 L 260 360 L 240 360 L 240 380 L 240 400 L 240 420 L 240 440 L 260 440 L 260 460 L 280 460 L 300 460 L 320 460 L 340 460 L 360 460 L 360 440 L 380 440 L 380 420 L 400 420 L 400 400 L 400 380 L 400 360 L 400 340 L 400 320 L 400 300 L 400 280 L 400 260 L 400 240 L 400 220 L 400 200 L 400 180 L 400 160 L 400 140 L 400 120 L 400 100 L 380 100 L 380 80 L 360 80 L 340 80 L 340 60 L 320 60 L 300 60 L 300 40 L 280 40 L 260 40 L 260 20 L 240 20 L 220 20 L 220 0 L 200 0 L 180 0 z M 260 360 L 280 360 L 280 340 L 260 340 L 260 360 z M 80 260 L 100 260 L 100 240 L 80 240 L 80 260 z M 740 280 L 740 300 L 760 300 L 760 280 L 740 280 z M 760 300 L 760 320 L 780 320 L 780 300 L 760 300 z M 780 320 L 780 340 L 800 340 L 800 320 L 780 320 z M 800 340 L 800 360 L 820 360 L 820 340 L 800 340 z M 820 360 L 820 380 L 820 400 L 840 400 L 840 380 L 840 360 L 820 360 z M 840 400 L 840 420 L 840 440 L 860 440 L 860 420 L 860 400 L 840 400 z M 860 440 L 860 460 L 860 480 L 860 500 L 880 500 L 880 480 L 880 460 L 880 440 L 860 440 z M 880 500 L 880 520 L 880 540 L 880 560 L 880 580 L 880 600 L 880 620 L 880 640 L 880 660 L 900 660 L 900 640 L 900 620 L 900 600 L 900 580 L 900 560 L 900 540 L 900 520 L 900 500 L 880 500 z M 880 660 L 860 660 L 860 680 L 860 700 L 860 720 L 880 720 L 880 700 L 880 680 L 880 660 z M 860 720 L 840 720 L 840 740 L 840 760 L 860 760 L 860 740 L 860 720 z M 840 760 L 820 760 L 820 780 L 820 800 L 840 800 L 840 780 L 840 760 z M 820 800 L 800 800 L 800 820 L 820 820 L 820 800 z M 800 820 L 780 820 L 780 840 L 800 840 L 800 820 z M 780 840 L 760 840 L 760 860 L 780 860 L 780 840 z M 760 860 L 740 860 L 740 880 L 760 880 L 760 860 z M 740 880 L 720 880 L 700 880 L 700 900 L 720 900 L 740 900 L 740 880 z M 700 900 L 680 900 L 660 900 L 660 920 L 680 920 L 700 920 L 700 900 z M 660 920 L 640 920 L 620 920 L 600 920 L 600 940 L 620 940 L 640 940 L 660 940 L 660 920 z M 600 940 L 580 940 L 560 940 L 540 940 L 520 940 L 500 940 L 480 940 L 460 940 L 440 940 L 440 960 L 460 960 L 480 960 L 500 960 L 520 960 L 540 960 L 560 960 L 580 960 L 600 960 L 600 940 z M 440 940 L 440 920 L 420 920 L 400 920 L 380 920 L 380 940 L 400 940 L 420 940 L 440 940 z M 380 920 L 380 900 L 360 900 L 340 900 L 340 920 L 360 920 L 380 920 z M 480 460 L 480 480 L 500 480 L 520 480 L 540 480 L 560 480 L 560 460 L 540 460 L 520 460 L 500 460 L 480 460 z M 560 480 L 560 500 L 580 500 L 600 500 L 600 480 L 580 480 L 560 480 z M 600 500 L 600 520 L 600 540 L 620 540 L 620 520 L 620 500 L 600 500 z M 620 540 L 620 560 L 620 580 L 620 600 L 620 620 L 640 620 L 640 600 L 640 580 L 640 560 L 640 540 L 620 540 z M 620 620 L 600 620 L 600 640 L 600 660 L 620 660 L 620 640 L 620 620 z M 600 660 L 580 660 L 560 660 L 560 680 L 580 680 L 600 680 L 600 660 z M 560 680 L 540 680 L 520 680 L 500 680 L 480 680 L 480 700 L 500 700 L 520 700 L 540 700 L 560 700 L 560 680 z M 480 680 L 480 660 L 460 660 L 440 660 L 440 680 L 460 680 L 480 680 z M 440 660 L 440 640 L 440 620 L 420 620 L 420 640 L 420 660 L 440 660 z M 420 620 L 420 600 L 420 580 L 420 560 L 420 540 L 400 540 L 400 560 L 400 580 L 400 600 L 400 620 L 420 620 z M 420 540 L 440 540 L 440 520 L 440 500 L 420 500 L 420 520 L 420 540 z M 440 500 L 460 500 L 480 500 L 480 480 L 460 480 L 440 480 L 440 500 z "
     id="rect2378" />
</svg>
