<?xml version="1.0" encoding="UTF-8" standalone="no"?>
<svg
   xmlns:dc="http://purl.org/dc/elements/1.1/"
   xmlns:cc="http://creativecommons.org/ns#"
   xmlns:rdf="http://www.w3.org/1999/02/22-rdf-syntax-ns#"
   xmlns:svg="http://www.w3.org/2000/svg"
   xmlns="http://www.w3.org/2000/svg"
   id="svg2826"
   width="960px"
   version="1.1"
   height="960px">
  <metadata
     id="metadata2830">
    <rdf:RDF>
      <cc:Work
         rdf:about="">
        <dc:format>image/svg+xml</dc:format>
        <dc:type
           rdf:resource="http://purl.org/dc/dcmitype/StillImage" />
      </cc:Work>
    </rdf:RDF>
  </metadata>
  <defs
     id="defs2" />
  <path
     style="fill:#008080"
     d="M 320 440 L 320 460 L 340 460 L 340 440 L 320 440 z M 360 440 L 360 460 L 380 460 L 380 440 L 360 440 z M 400 440 L 400 460 L 420 460 L 420 440 L 400 440 z M 420 460 L 420 480 L 440 480 L 440 460 L 420 460 z M 440 460 L 460 460 L 460 440 L 440 440 L 440 460 z M 460 460 L 460 480 L 480 480 L 480 460 L 460 460 z M 480 460 L 500 460 L 500 440 L 480 440 L 480 460 z M 500 460 L 500 480 L 520 480 L 520 460 L 500 460 z M 520 460 L 540 460 L 540 440 L 520 440 L 520 460 z M 540 460 L 540 480 L 560 480 L 560 460 L 540 460 z M 560 460 L 580 460 L 580 440 L 560 440 L 560 460 z M 580 460 L 580 480 L 600 480 L 600 460 L 580 460 z M 600 460 L 620 460 L 620 440 L 600 440 L 600 460 z M 620 460 L 620 480 L 640 480 L 640 460 L 620 460 z M 640 460 L 660 460 L 660 440 L 640 440 L 640 460 z M 660 460 L 660 480 L 680 480 L 680 460 L 660 460 z M 680 460 L 700 460 L 700 440 L 680 440 L 680 460 z M 700 460 L 700 480 L 720 480 L 720 460 L 700 460 z M 720 460 L 740 460 L 740 440 L 720 440 L 720 460 z M 740 460 L 740 480 L 760 480 L 760 460 L 740 460 z M 760 460 L 780 460 L 780 440 L 760 440 L 760 460 z M 740 480 L 720 480 L 720 500 L 740 500 L 740 480 z M 720 500 L 700 500 L 700 520 L 720 520 L 720 500 z M 700 520 L 680 520 L 680 540 L 700 540 L 700 520 z M 680 540 L 660 540 L 660 560 L 680 560 L 680 540 z M 660 560 L 640 560 L 640 580 L 660 580 L 660 560 z M 640 560 L 640 540 L 620 540 L 620 560 L 640 560 z M 640 540 L 660 540 L 660 520 L 640 520 L 640 540 z M 640 520 L 640 500 L 620 500 L 620 520 L 640 520 z M 620 500 L 620 480 L 600 480 L 600 500 L 620 500 z M 600 500 L 580 500 L 580 520 L 600 520 L 600 500 z M 580 500 L 580 480 L 560 480 L 560 500 L 580 500 z M 640 500 L 660 500 L 660 480 L 640 480 L 640 500 z M 660 500 L 660 520 L 680 520 L 680 500 L 660 500 z M 680 500 L 700 500 L 700 480 L 680 480 L 680 500 z M 540 480 L 520 480 L 520 500 L 540 500 L 540 480 z "
     id="rect1602" />
  <path
     style="fill:#00ffff"
     d="M 300 460 L 300 480 L 320 480 L 320 460 L 300 460 z M 320 480 L 320 500 L 340 500 L 340 480 L 320 480 z M 340 480 L 360 480 L 360 460 L 340 460 L 340 480 z M 360 480 L 360 500 L 380 500 L 380 480 L 360 480 z M 380 480 L 400 480 L 400 460 L 380 460 L 380 480 z M 400 480 L 400 500 L 420 500 L 420 480 L 400 480 z M 420 500 L 420 520 L 440 520 L 440 500 L 420 500 z M 440 500 L 460 500 L 460 480 L 440 480 L 440 500 z M 460 500 L 460 520 L 480 520 L 480 500 L 460 500 z M 480 500 L 500 500 L 500 480 L 480 480 L 480 500 z M 500 500 L 500 520 L 520 520 L 520 500 L 500 500 z M 520 520 L 520 540 L 540 540 L 540 520 L 520 520 z M 540 520 L 560 520 L 560 500 L 540 500 L 540 520 z M 560 520 L 560 540 L 580 540 L 580 520 L 560 520 z M 580 540 L 580 560 L 600 560 L 600 540 L 580 540 z M 600 540 L 620 540 L 620 520 L 600 520 L 600 540 z M 600 560 L 600 580 L 580 580 L 580 600 L 600 600 L 620 600 L 620 580 L 620 560 L 600 560 z M 580 600 L 560 600 L 560 620 L 580 620 L 580 600 z M 580 620 L 580 640 L 600 640 L 600 620 L 580 620 z M 560 620 L 540 620 L 540 640 L 560 640 L 560 620 z M 540 620 L 540 600 L 520 600 L 520 620 L 540 620 z M 520 620 L 500 620 L 500 640 L 520 640 L 520 620 z M 540 600 L 560 600 L 560 580 L 540 580 L 540 600 z M 540 580 L 540 560 L 520 560 L 520 580 L 540 580 z M 520 560 L 520 540 L 500 540 L 500 560 L 520 560 z M 500 560 L 480 560 L 480 580 L 480 600 L 500 600 L 500 580 L 500 560 z M 480 600 L 460 600 L 460 620 L 480 620 L 480 600 z M 460 620 L 440 620 L 440 640 L 460 640 L 460 620 z M 480 560 L 480 540 L 460 540 L 460 560 L 480 560 z M 460 560 L 440 560 L 440 580 L 460 580 L 460 560 z M 440 580 L 420 580 L 420 600 L 440 600 L 440 580 z M 420 600 L 400 600 L 400 620 L 420 620 L 420 600 z M 400 620 L 380 620 L 380 640 L 400 640 L 400 620 z M 400 600 L 400 580 L 380 580 L 380 600 L 400 600 z M 380 580 L 380 560 L 360 560 L 360 580 L 380 580 z M 360 580 L 340 580 L 340 600 L 360 600 L 360 580 z M 340 600 L 320 600 L 320 620 L 340 620 L 340 600 z M 320 600 L 320 580 L 300 580 L 300 600 L 320 600 z M 300 580 L 300 560 L 280 560 L 280 580 L 300 580 z M 280 580 L 260 580 L 260 600 L 280 600 L 280 580 z M 260 580 L 260 560 L 240 560 L 240 580 L 260 580 z M 240 560 L 240 540 L 220 540 L 220 560 L 240 560 z M 220 560 L 200 560 L 200 580 L 220 580 L 220 560 z M 200 580 L 180 580 L 180 600 L 200 600 L 200 580 z M 180 600 L 160 600 L 160 620 L 180 620 L 180 600 z M 180 620 L 180 640 L 200 640 L 200 620 L 180 620 z M 160 620 L 140 620 L 140 640 L 160 640 L 160 620 z M 240 540 L 260 540 L 260 520 L 240 520 L 240 540 z M 260 520 L 280 520 L 280 500 L 260 500 L 260 520 z M 280 500 L 300 500 L 300 480 L 280 480 L 280 500 z M 300 500 L 300 520 L 320 520 L 320 500 L 300 500 z M 320 520 L 320 540 L 340 540 L 340 520 L 320 520 z M 340 520 L 360 520 L 360 500 L 340 500 L 340 520 z M 360 520 L 360 540 L 380 540 L 380 520 L 360 520 z M 380 520 L 400 520 L 400 500 L 380 500 L 380 520 z M 400 520 L 400 540 L 420 540 L 420 520 L 400 520 z M 420 540 L 420 560 L 440 560 L 440 540 L 420 540 z M 440 540 L 460 540 L 460 520 L 440 520 L 440 540 z M 420 560 L 400 560 L 400 580 L 420 580 L 420 560 z M 400 560 L 400 540 L 380 540 L 380 560 L 400 560 z M 360 540 L 340 540 L 340 560 L 360 560 L 360 540 z M 340 560 L 320 560 L 320 580 L 340 580 L 340 560 z M 320 560 L 320 540 L 300 540 L 300 560 L 320 560 z M 300 540 L 300 520 L 280 520 L 280 540 L 300 540 z M 280 540 L 260 540 L 260 560 L 280 560 L 280 540 z M 480 540 L 500 540 L 500 520 L 480 520 L 480 540 z M 540 560 L 560 560 L 560 540 L 540 540 L 540 560 z M 560 560 L 560 580 L 580 580 L 580 560 L 560 560 z M 220 600 L 220 620 L 240 620 L 240 600 L 220 600 z M 280 620 L 280 640 L 300 640 L 300 620 L 280 620 z "
     id="rect1848" />
  <path
     style="opacity:0.98431373;fill:#050505"
     d="M 820 700 L 820 720 L 840 720 L 840 700 L 820 700 z "
     id="rect2222" />
  <path
     style="opacity:0.09803922;fill:#2f8f8f"
     d="M 840 700 L 840 720 L 860 720 L 860 700 L 840 700 z "
     id="rect2224" />
  <path
     style="opacity:0.85882353;fill:#010100"
     d="M 800 720 L 800 740 L 820 740 L 820 720 L 800 720 z "
     id="rect2304" />
  <path
     style="opacity:0.2;fill:#459797"
     d="M 820 720 L 820 740 L 840 740 L 840 720 L 820 720 z "
     id="rect2306" />
  <path
     style="fill:#0d0d00"
     d="M 780 740 L 780 760 L 800 760 L 800 740 L 780 740 z "
     id="rect2384" />
  <path
     style="opacity:0.96470588;fill:#0e0e00"
     d="M 760 760 L 760 780 L 780 780 L 780 760 L 760 760 z "
     id="rect2462" />
  <path
     style="fill:#00ff00"
     d="M 80 780 L 80 800 L 100 800 L 120 800 L 120 780 L 100 780 L 80 780 z "
     id="rect2474" />
  <path
     style="opacity:0.37254902;fill:#9e9e5b"
     d="M 760 780 L 760 800 L 780 800 L 780 780 L 760 780 z "
     id="rect2540" />
  <path
     style="fill:#008000"
     d="M 120 780 L 120 800 L 100 800 L 80 800 L 80 820 L 100 820 L 120 820 L 140 820 L 140 800 L 140 780 L 120 780 z "
     id="rect2552" />
  <path
     style="opacity:0.99607843;fill:#002424"
     d="M 720 800 L 720 820 L 740 820 L 740 800 L 720 800 z "
     id="rect2612" />
  <path
     style="opacity:0.45882353;fill:#585858"
     d="M 740 800 L 740 820 L 760 820 L 760 800 L 740 800 z "
     id="rect2614" />
  <path
     style="fill:#c0c0c0"
     d="M 60 80 L 60 100 L 80 100 L 80 120 L 100 120 L 100 140 L 120 140 L 120 160 L 140 160 L 140 180 L 160 180 L 160 200 L 180 200 L 180 220 L 200 220 L 200 240 L 220 240 L 220 260 L 240 260 L 240 280 L 260 280 L 260 300 L 280 300 L 280 320 L 300 320 L 300 340 L 320 340 L 320 360 L 340 360 L 340 380 L 360 380 L 360 400 L 380 400 L 400 400 L 400 380 L 420 380 L 420 400 L 440 400 L 440 380 L 460 380 L 460 400 L 480 400 L 480 380 L 500 380 L 500 400 L 520 400 L 520 380 L 540 380 L 540 360 L 560 360 L 560 380 L 580 380 L 580 360 L 600 360 L 600 340 L 620 340 L 620 320 L 600 320 L 600 300 L 580 300 L 580 280 L 600 280 L 600 300 L 620 300 L 620 280 L 640 280 L 640 260 L 620 260 L 620 240 L 600 240 L 600 260 L 580 260 L 580 240 L 600 240 L 600 220 L 580 220 L 580 200 L 560 200 L 560 180 L 540 180 L 540 160 L 560 160 L 560 140 L 540 140 L 540 120 L 520 120 L 520 100 L 500 100 L 500 80 L 480 80 L 460 80 L 440 80 L 420 80 L 400 80 L 380 80 L 360 80 L 340 80 L 320 80 L 300 80 L 280 80 L 260 80 L 240 80 L 220 80 L 200 80 L 180 80 L 160 80 L 140 80 L 120 80 L 100 80 L 80 80 L 60 80 z M 520 100 L 540 100 L 540 80 L 520 80 L 520 100 z M 540 100 L 540 120 L 560 120 L 560 100 L 540 100 z M 560 120 L 560 140 L 580 140 L 580 120 L 560 120 z M 580 140 L 580 160 L 600 160 L 600 140 L 580 140 z M 600 160 L 600 180 L 620 180 L 620 160 L 600 160 z M 620 180 L 620 200 L 640 200 L 640 180 L 620 180 z M 640 200 L 640 220 L 660 220 L 660 200 L 640 200 z M 660 220 L 660 240 L 680 240 L 680 220 L 660 220 z M 680 240 L 680 260 L 700 260 L 700 240 L 680 240 z M 700 260 L 700 280 L 720 280 L 720 260 L 700 260 z M 720 280 L 720 300 L 740 300 L 740 280 L 720 280 z M 740 300 L 740 320 L 760 320 L 760 300 L 740 300 z M 760 320 L 760 340 L 780 340 L 780 320 L 760 320 z M 780 340 L 780 360 L 800 360 L 800 340 L 780 340 z M 800 360 L 800 380 L 820 380 L 820 360 L 800 360 z M 820 380 L 820 400 L 840 400 L 840 380 L 820 380 z M 800 380 L 780 380 L 780 400 L 800 400 L 800 380 z M 780 380 L 780 360 L 760 360 L 760 380 L 780 380 z M 760 380 L 740 380 L 740 400 L 760 400 L 760 380 z M 740 380 L 740 360 L 720 360 L 720 380 L 740 380 z M 720 380 L 700 380 L 700 400 L 720 400 L 720 380 z M 700 380 L 700 360 L 680 360 L 680 380 L 700 380 z M 680 380 L 660 380 L 660 400 L 680 400 L 680 380 z M 660 380 L 660 360 L 640 360 L 640 380 L 660 380 z M 640 380 L 620 380 L 620 400 L 640 400 L 640 380 z M 620 380 L 620 360 L 600 360 L 600 380 L 620 380 z M 600 380 L 580 380 L 580 400 L 600 400 L 600 380 z M 620 360 L 640 360 L 640 340 L 620 340 L 620 360 z M 640 340 L 660 340 L 660 320 L 640 320 L 640 340 z M 640 320 L 640 300 L 620 300 L 620 320 L 640 320 z M 640 300 L 660 300 L 660 280 L 640 280 L 640 300 z M 660 280 L 680 280 L 680 260 L 660 260 L 660 280 z M 660 260 L 660 240 L 640 240 L 640 260 L 660 260 z M 640 240 L 640 220 L 620 220 L 620 240 L 640 240 z M 620 220 L 620 200 L 600 200 L 600 220 L 620 220 z M 600 200 L 600 180 L 580 180 L 580 200 L 600 200 z M 580 180 L 580 160 L 560 160 L 560 180 L 580 180 z M 680 280 L 680 300 L 700 300 L 700 280 L 680 280 z M 700 300 L 700 320 L 720 320 L 720 300 L 700 300 z M 720 320 L 720 340 L 740 340 L 740 320 L 720 320 z M 740 340 L 740 360 L 760 360 L 760 340 L 740 340 z M 720 340 L 700 340 L 700 360 L 720 360 L 720 340 z M 700 340 L 700 320 L 680 320 L 680 340 L 700 340 z M 680 340 L 660 340 L 660 360 L 680 360 L 680 340 z M 680 320 L 680 300 L 660 300 L 660 320 L 680 320 z M 560 380 L 540 380 L 540 400 L 560 400 L 560 380 z M 360 400 L 340 400 L 340 380 L 320 380 L 320 400 L 300 400 L 300 420 L 280 420 L 280 440 L 260 440 L 260 460 L 240 460 L 240 480 L 220 480 L 220 500 L 200 500 L 200 520 L 180 520 L 180 540 L 160 540 L 160 560 L 140 560 L 140 580 L 120 580 L 120 600 L 100 600 L 100 620 L 80 620 L 80 640 L 60 640 L 60 660 L 80 660 L 100 660 L 120 660 L 140 660 L 160 660 L 180 660 L 200 660 L 220 660 L 240 660 L 260 660 L 280 660 L 300 660 L 320 660 L 340 660 L 360 660 L 380 660 L 400 660 L 420 660 L 440 660 L 460 660 L 480 660 L 500 660 L 520 660 L 540 660 L 560 660 L 580 660 L 600 660 L 620 660 L 640 660 L 660 660 L 660 640 L 680 640 L 680 620 L 700 620 L 700 600 L 720 600 L 720 580 L 740 580 L 740 560 L 760 560 L 760 540 L 780 540 L 780 520 L 800 520 L 800 500 L 820 500 L 820 480 L 840 480 L 840 460 L 860 460 L 860 440 L 880 440 L 880 420 L 860 420 L 840 420 L 820 420 L 820 440 L 800 440 L 800 460 L 780 460 L 780 480 L 760 480 L 760 500 L 740 500 L 740 520 L 720 520 L 720 540 L 700 540 L 700 560 L 680 560 L 680 580 L 660 580 L 660 600 L 640 600 L 640 620 L 620 620 L 620 640 L 600 640 L 580 640 L 560 640 L 540 640 L 520 640 L 500 640 L 480 640 L 460 640 L 440 640 L 420 640 L 400 640 L 380 640 L 360 640 L 340 640 L 320 640 L 300 640 L 280 640 L 260 640 L 240 640 L 220 640 L 200 640 L 180 640 L 160 640 L 140 640 L 120 640 L 120 620 L 140 620 L 140 600 L 160 600 L 160 580 L 180 580 L 180 560 L 200 560 L 200 540 L 220 540 L 220 520 L 240 520 L 240 500 L 260 500 L 260 480 L 280 480 L 280 460 L 300 460 L 300 440 L 320 440 L 320 420 L 340 420 L 360 420 L 360 400 z M 320 380 L 320 360 L 300 360 L 300 380 L 320 380 z M 300 360 L 300 340 L 280 340 L 280 360 L 300 360 z M 280 340 L 280 320 L 260 320 L 260 340 L 280 340 z M 260 320 L 260 300 L 240 300 L 240 320 L 260 320 z M 240 300 L 240 280 L 220 280 L 220 300 L 240 300 z M 220 280 L 220 260 L 200 260 L 200 280 L 220 280 z M 200 260 L 200 240 L 180 240 L 180 260 L 200 260 z M 180 240 L 180 220 L 160 220 L 160 240 L 180 240 z M 160 220 L 160 200 L 140 200 L 140 220 L 160 220 z M 140 200 L 140 180 L 120 180 L 120 200 L 140 200 z M 120 180 L 120 160 L 100 160 L 100 180 L 120 180 z M 100 160 L 100 140 L 80 140 L 80 160 L 100 160 z M 80 140 L 80 120 L 60 120 L 60 140 L 80 140 z M 60 120 L 60 100 L 40 100 L 40 120 L 60 120 z M 480 120 L 500 120 L 500 140 L 480 140 L 480 120 z M 520 200 L 540 200 L 540 220 L 520 220 L 520 200 z M 460 220 L 480 220 L 480 240 L 460 240 L 460 220 z M 540 240 L 560 240 L 560 260 L 540 260 L 540 240 z M 420 280 L 440 280 L 440 300 L 420 300 L 420 280 z M 480 280 L 500 280 L 500 300 L 480 300 L 480 280 z M 520 280 L 540 280 L 540 300 L 520 300 L 520 280 z M 460 320 L 480 320 L 480 340 L 460 340 L 460 320 z M 560 320 L 580 320 L 580 340 L 560 340 L 560 320 z M 400 340 L 420 340 L 420 360 L 400 360 L 400 340 z M 500 340 L 520 340 L 520 360 L 500 360 L 500 340 z M 340 440 L 340 460 L 360 460 L 360 440 L 340 440 z M 360 460 L 360 480 L 380 480 L 380 460 L 360 460 z M 380 460 L 400 460 L 400 440 L 380 440 L 380 460 z M 400 460 L 400 480 L 420 480 L 420 460 L 400 460 z M 420 460 L 440 460 L 440 440 L 420 440 L 420 460 z M 440 460 L 440 480 L 460 480 L 460 460 L 440 460 z M 460 460 L 480 460 L 480 440 L 460 440 L 460 460 z M 480 460 L 480 480 L 500 480 L 500 460 L 480 460 z M 500 460 L 520 460 L 520 440 L 500 440 L 500 460 z M 520 460 L 520 480 L 540 480 L 540 460 L 520 460 z M 540 460 L 560 460 L 560 440 L 540 440 L 540 460 z M 560 460 L 560 480 L 580 480 L 580 460 L 560 460 z M 580 460 L 600 460 L 600 440 L 580 440 L 580 460 z M 600 460 L 600 480 L 620 480 L 620 460 L 600 460 z M 620 460 L 640 460 L 640 440 L 620 440 L 620 460 z M 640 460 L 640 480 L 660 480 L 660 460 L 640 460 z M 660 460 L 680 460 L 680 440 L 660 440 L 660 460 z M 680 460 L 680 480 L 700 480 L 700 460 L 680 460 z M 700 460 L 720 460 L 720 440 L 700 440 L 700 460 z M 720 460 L 720 480 L 740 480 L 740 460 L 720 460 z M 740 460 L 760 460 L 760 440 L 740 440 L 740 460 z M 720 480 L 700 480 L 700 500 L 720 500 L 720 480 z M 700 500 L 680 500 L 680 520 L 700 520 L 700 500 z M 680 520 L 660 520 L 660 540 L 680 540 L 680 520 z M 660 540 L 640 540 L 640 560 L 660 560 L 660 540 z M 640 560 L 620 560 L 620 580 L 640 580 L 640 560 z M 620 560 L 620 540 L 600 540 L 600 560 L 620 560 z M 600 560 L 580 560 L 580 580 L 600 580 L 600 560 z M 580 560 L 580 540 L 560 540 L 560 560 L 580 560 z M 560 540 L 560 520 L 540 520 L 540 540 L 560 540 z M 540 520 L 540 500 L 520 500 L 520 520 L 540 520 z M 520 520 L 500 520 L 500 540 L 520 540 L 520 520 z M 500 520 L 500 500 L 480 500 L 480 520 L 500 520 z M 480 500 L 480 480 L 460 480 L 460 500 L 480 500 z M 500 500 L 520 500 L 520 480 L 500 480 L 500 500 z M 540 500 L 560 500 L 560 480 L 540 480 L 540 500 z M 560 500 L 560 520 L 580 520 L 580 500 L 560 500 z M 580 500 L 600 500 L 600 480 L 580 480 L 580 500 z M 600 500 L 600 520 L 620 520 L 620 500 L 600 500 z M 620 500 L 640 500 L 640 480 L 620 480 L 620 500 z M 640 500 L 640 520 L 660 520 L 660 500 L 640 500 z M 660 500 L 680 500 L 680 480 L 660 480 L 660 500 z M 640 520 L 620 520 L 620 540 L 640 540 L 640 520 z M 600 520 L 580 520 L 580 540 L 600 540 L 600 520 z M 440 480 L 420 480 L 420 500 L 440 500 L 440 480 z M 400 480 L 380 480 L 380 500 L 400 500 L 400 480 z M 360 480 L 340 480 L 340 500 L 360 500 L 360 480 z M 340 480 L 340 460 L 320 460 L 320 480 L 340 480 z M 320 480 L 300 480 L 300 500 L 320 500 L 320 480 z M 900 640 L 900 660 L 920 660 L 920 640 L 900 640 z M 900 660 L 880 660 L 880 680 L 900 680 L 900 660 z M 60 700 L 60 720 L 60 740 L 60 760 L 60 780 L 60 800 L 60 820 L 60 840 L 80 840 L 100 840 L 120 840 L 140 840 L 160 840 L 180 840 L 200 840 L 220 840 L 240 840 L 260 840 L 280 840 L 300 840 L 320 840 L 340 840 L 360 840 L 380 840 L 400 840 L 420 840 L 440 840 L 460 840 L 480 840 L 500 840 L 520 840 L 540 840 L 560 840 L 580 840 L 600 840 L 620 840 L 640 840 L 640 820 L 640 800 L 640 780 L 640 760 L 640 740 L 640 720 L 640 700 L 620 700 L 600 700 L 580 700 L 560 700 L 540 700 L 520 700 L 500 700 L 480 700 L 460 700 L 440 700 L 420 700 L 400 700 L 380 700 L 360 700 L 340 700 L 320 700 L 300 700 L 280 700 L 260 700 L 240 700 L 220 700 L 200 700 L 180 700 L 160 700 L 140 700 L 120 700 L 100 700 L 80 700 L 60 700 z M 800 740 L 800 760 L 820 760 L 820 740 L 800 740 z M 800 760 L 780 760 L 780 780 L 800 780 L 800 760 z M 80 780 L 100 780 L 120 780 L 140 780 L 140 800 L 140 820 L 120 820 L 100 820 L 80 820 L 80 800 L 80 780 z "
     id="rect2676" />
  <path
     style="fill:#ffffff"
     d="M 280 500 L 280 520 L 300 520 L 300 500 L 280 500 z M 300 520 L 300 540 L 320 540 L 320 520 L 300 520 z M 320 520 L 340 520 L 340 500 L 320 500 L 320 520 z M 340 520 L 340 540 L 360 540 L 360 520 L 340 520 z M 360 520 L 380 520 L 380 500 L 360 500 L 360 520 z M 380 520 L 380 540 L 400 540 L 400 520 L 380 520 z M 400 520 L 420 520 L 420 500 L 400 500 L 400 520 z M 420 520 L 420 540 L 440 540 L 440 520 L 420 520 z M 440 520 L 460 520 L 460 500 L 440 500 L 440 520 z M 460 520 L 460 540 L 480 540 L 480 520 L 460 520 z M 480 540 L 480 560 L 500 560 L 500 540 L 480 540 z M 500 560 L 500 580 L 500 600 L 480 600 L 480 620 L 460 620 L 460 640 L 480 640 L 500 640 L 500 620 L 520 620 L 520 600 L 540 600 L 540 580 L 520 580 L 520 560 L 500 560 z M 520 560 L 540 560 L 540 540 L 520 540 L 520 560 z M 540 560 L 540 580 L 560 580 L 560 560 L 540 560 z M 560 580 L 560 600 L 580 600 L 580 580 L 560 580 z M 580 600 L 580 620 L 600 620 L 620 620 L 620 600 L 600 600 L 580 600 z M 620 600 L 640 600 L 640 580 L 620 580 L 620 600 z M 580 620 L 560 620 L 560 640 L 580 640 L 580 620 z M 560 620 L 560 600 L 540 600 L 540 620 L 560 620 z M 540 620 L 520 620 L 520 640 L 540 640 L 540 620 z M 460 620 L 460 600 L 480 600 L 480 580 L 480 560 L 460 560 L 460 580 L 440 580 L 440 600 L 420 600 L 420 620 L 400 620 L 400 640 L 420 640 L 440 640 L 440 620 L 460 620 z M 400 620 L 400 600 L 380 600 L 380 580 L 360 580 L 360 600 L 340 600 L 340 620 L 320 620 L 320 600 L 300 600 L 300 580 L 280 580 L 280 600 L 260 600 L 260 580 L 240 580 L 240 560 L 220 560 L 220 580 L 200 580 L 200 600 L 180 600 L 180 620 L 200 620 L 200 640 L 220 640 L 240 640 L 260 640 L 280 640 L 280 620 L 300 620 L 300 640 L 320 640 L 340 640 L 360 640 L 380 640 L 380 620 L 400 620 z M 180 620 L 160 620 L 160 640 L 180 640 L 180 620 z M 240 560 L 260 560 L 260 540 L 240 540 L 240 560 z M 260 540 L 280 540 L 280 520 L 260 520 L 260 540 z M 280 540 L 280 560 L 300 560 L 300 540 L 280 540 z M 300 560 L 300 580 L 320 580 L 320 560 L 300 560 z M 320 560 L 340 560 L 340 540 L 320 540 L 320 560 z M 340 560 L 340 580 L 360 580 L 360 560 L 340 560 z M 360 560 L 380 560 L 380 540 L 360 540 L 360 560 z M 380 560 L 380 580 L 400 580 L 400 560 L 380 560 z M 400 560 L 420 560 L 420 540 L 400 540 L 400 560 z M 420 560 L 420 580 L 440 580 L 440 560 L 420 560 z M 440 560 L 460 560 L 460 540 L 440 540 L 440 560 z M 420 580 L 400 580 L 400 600 L 420 600 L 420 580 z M 340 580 L 320 580 L 320 600 L 340 600 L 340 580 z M 280 560 L 260 560 L 260 580 L 280 580 L 280 560 z M 220 600 L 240 600 L 240 620 L 220 620 L 220 600 z M 40 680 L 40 700 L 40 720 L 40 740 L 40 760 L 40 780 L 40 800 L 40 820 L 40 840 L 60 840 L 60 820 L 60 800 L 60 780 L 60 760 L 60 740 L 60 720 L 60 700 L 80 700 L 100 700 L 120 700 L 140 700 L 160 700 L 180 700 L 200 700 L 220 700 L 240 700 L 260 700 L 280 700 L 300 700 L 320 700 L 340 700 L 360 700 L 380 700 L 400 700 L 420 700 L 440 700 L 460 700 L 480 700 L 500 700 L 520 700 L 540 700 L 560 700 L 580 700 L 600 700 L 620 700 L 640 700 L 640 720 L 640 740 L 640 760 L 640 780 L 640 800 L 640 820 L 640 840 L 660 840 L 660 820 L 660 800 L 660 780 L 660 760 L 660 740 L 660 720 L 660 700 L 660 680 L 640 680 L 620 680 L 600 680 L 580 680 L 560 680 L 540 680 L 520 680 L 500 680 L 480 680 L 460 680 L 440 680 L 420 680 L 400 680 L 380 680 L 360 680 L 340 680 L 320 680 L 300 680 L 280 680 L 260 680 L 240 680 L 220 680 L 200 680 L 180 680 L 160 680 L 140 680 L 120 680 L 100 680 L 80 680 L 60 680 L 40 680 z "
     id="rect2678" />
  <path
     style="opacity:0.98823529;fill:#001b1b"
     d="M 700 820 L 700 840 L 720 840 L 720 820 L 700 820 z "
     id="rect2684" />
  <path
     style="opacity:0.33333333;fill:#79a8a8"
     d="M 720 820 L 720 840 L 740 840 L 740 820 L 720 820 z "
     id="rect2686" />
  <path
     style="fill:#808080"
     d="M 20 60 L 20 80 L 20 100 L 20 120 L 40 120 L 40 100 L 60 100 L 60 80 L 80 80 L 100 80 L 120 80 L 140 80 L 160 80 L 180 80 L 200 80 L 220 80 L 240 80 L 260 80 L 280 80 L 300 80 L 320 80 L 340 80 L 360 80 L 380 80 L 400 80 L 420 80 L 440 80 L 460 80 L 480 80 L 500 80 L 500 100 L 520 100 L 520 80 L 540 80 L 540 60 L 520 60 L 500 60 L 480 60 L 460 60 L 440 60 L 420 60 L 400 60 L 380 60 L 360 60 L 340 60 L 320 60 L 300 60 L 280 60 L 260 60 L 240 60 L 220 60 L 200 60 L 180 60 L 160 60 L 140 60 L 120 60 L 100 60 L 80 60 L 60 60 L 40 60 L 20 60 z M 540 80 L 540 100 L 560 100 L 560 80 L 540 80 z M 560 100 L 560 120 L 580 120 L 580 100 L 560 100 z M 580 120 L 580 140 L 600 140 L 600 120 L 580 120 z M 600 140 L 600 160 L 620 160 L 620 140 L 600 140 z M 620 160 L 620 180 L 640 180 L 640 160 L 620 160 z M 640 180 L 640 200 L 660 200 L 660 180 L 640 180 z M 660 200 L 660 220 L 680 220 L 680 200 L 660 200 z M 680 220 L 680 240 L 700 240 L 700 220 L 680 220 z M 700 240 L 700 260 L 720 260 L 720 240 L 700 240 z M 720 260 L 720 280 L 740 280 L 740 260 L 720 260 z M 740 280 L 740 300 L 760 300 L 760 280 L 740 280 z M 760 300 L 760 320 L 780 320 L 780 300 L 760 300 z M 780 320 L 780 340 L 800 340 L 800 320 L 780 320 z M 800 340 L 800 360 L 820 360 L 820 340 L 800 340 z M 820 360 L 820 380 L 840 380 L 840 360 L 820 360 z M 840 380 L 840 400 L 860 400 L 860 380 L 840 380 z M 820 380 L 800 380 L 800 400 L 780 400 L 780 380 L 760 380 L 760 400 L 740 400 L 740 380 L 720 380 L 720 400 L 700 400 L 700 380 L 680 380 L 680 400 L 660 400 L 660 380 L 640 380 L 640 400 L 620 400 L 620 380 L 600 380 L 600 400 L 580 400 L 580 380 L 560 380 L 560 400 L 540 400 L 540 380 L 520 380 L 520 400 L 500 400 L 500 380 L 480 380 L 480 400 L 460 400 L 460 380 L 440 380 L 440 400 L 420 400 L 420 380 L 400 380 L 400 400 L 380 400 L 360 400 L 360 420 L 380 420 L 400 420 L 420 420 L 440 420 L 460 420 L 480 420 L 500 420 L 520 420 L 540 420 L 560 420 L 580 420 L 600 420 L 620 420 L 640 420 L 660 420 L 680 420 L 700 420 L 720 420 L 740 420 L 760 420 L 780 420 L 800 420 L 820 420 L 820 400 L 820 380 z M 360 400 L 360 380 L 340 380 L 340 400 L 360 400 z M 340 380 L 340 360 L 320 360 L 320 380 L 340 380 z M 320 380 L 300 380 L 300 400 L 320 400 L 320 380 z M 300 400 L 280 400 L 280 420 L 300 420 L 300 400 z M 280 420 L 260 420 L 260 440 L 280 440 L 280 420 z M 260 440 L 240 440 L 240 460 L 260 460 L 260 440 z M 240 460 L 220 460 L 220 480 L 240 480 L 240 460 z M 220 480 L 200 480 L 200 500 L 220 500 L 220 480 z M 200 500 L 180 500 L 180 520 L 200 520 L 200 500 z M 180 520 L 160 520 L 160 540 L 180 540 L 180 520 z M 160 540 L 140 540 L 140 560 L 160 560 L 160 540 z M 140 560 L 120 560 L 120 580 L 140 580 L 140 560 z M 120 580 L 100 580 L 100 600 L 120 600 L 120 580 z M 100 600 L 80 600 L 80 620 L 100 620 L 100 600 z M 80 620 L 60 620 L 60 640 L 80 640 L 80 620 z M 60 640 L 40 640 L 40 660 L 20 660 L 20 680 L 20 700 L 20 720 L 20 740 L 20 760 L 20 780 L 20 800 L 20 820 L 20 840 L 20 860 L 40 860 L 60 860 L 80 860 L 100 860 L 120 860 L 140 860 L 160 860 L 180 860 L 200 860 L 220 860 L 240 860 L 260 860 L 280 860 L 300 860 L 320 860 L 340 860 L 360 860 L 380 860 L 400 860 L 420 860 L 440 860 L 460 860 L 480 860 L 500 860 L 520 860 L 540 860 L 560 860 L 580 860 L 600 860 L 620 860 L 640 860 L 660 860 L 680 860 L 680 840 L 700 840 L 700 820 L 720 820 L 720 800 L 740 800 L 740 780 L 760 780 L 760 760 L 780 760 L 780 740 L 800 740 L 800 720 L 820 720 L 820 700 L 840 700 L 840 680 L 860 680 L 860 660 L 880 660 L 880 640 L 900 640 L 900 620 L 900 600 L 900 580 L 900 560 L 900 540 L 900 520 L 900 500 L 900 480 L 900 460 L 900 440 L 900 420 L 880 420 L 880 440 L 860 440 L 860 460 L 840 460 L 840 480 L 820 480 L 820 500 L 800 500 L 800 520 L 780 520 L 780 540 L 760 540 L 760 560 L 740 560 L 740 580 L 720 580 L 720 600 L 700 600 L 700 620 L 680 620 L 680 640 L 660 640 L 660 660 L 640 660 L 620 660 L 600 660 L 580 660 L 560 660 L 540 660 L 520 660 L 500 660 L 480 660 L 460 660 L 440 660 L 420 660 L 400 660 L 380 660 L 360 660 L 340 660 L 320 660 L 300 660 L 280 660 L 260 660 L 240 660 L 220 660 L 200 660 L 180 660 L 160 660 L 140 660 L 120 660 L 100 660 L 80 660 L 60 660 L 60 640 z M 300 380 L 300 360 L 280 360 L 280 380 L 300 380 z M 280 360 L 280 340 L 260 340 L 260 360 L 280 360 z M 260 340 L 260 320 L 240 320 L 240 340 L 260 340 z M 240 320 L 240 300 L 220 300 L 220 320 L 240 320 z M 220 300 L 220 280 L 200 280 L 200 300 L 220 300 z M 200 280 L 200 260 L 180 260 L 180 280 L 200 280 z M 180 260 L 180 240 L 160 240 L 160 260 L 180 260 z M 160 240 L 160 220 L 140 220 L 140 240 L 160 240 z M 140 220 L 140 200 L 120 200 L 120 220 L 140 220 z M 120 200 L 120 180 L 100 180 L 100 200 L 120 200 z M 100 180 L 100 160 L 80 160 L 80 180 L 100 180 z M 80 160 L 80 140 L 60 140 L 60 160 L 80 160 z M 60 140 L 60 120 L 40 120 L 40 140 L 60 140 z M 60 120 L 80 120 L 80 100 L 60 100 L 60 120 z M 80 120 L 80 140 L 100 140 L 100 120 L 80 120 z M 100 140 L 100 160 L 120 160 L 120 140 L 100 140 z M 120 160 L 120 180 L 140 180 L 140 160 L 120 160 z M 140 180 L 140 200 L 160 200 L 160 180 L 140 180 z M 160 200 L 160 220 L 180 220 L 180 200 L 160 200 z M 180 220 L 180 240 L 200 240 L 200 220 L 180 220 z M 200 240 L 200 260 L 220 260 L 220 240 L 200 240 z M 220 260 L 220 280 L 240 280 L 240 260 L 220 260 z M 240 280 L 240 300 L 260 300 L 260 280 L 240 280 z M 260 300 L 260 320 L 280 320 L 280 300 L 260 300 z M 280 320 L 280 340 L 300 340 L 300 320 L 280 320 z M 300 340 L 300 360 L 320 360 L 320 340 L 300 340 z M 540 380 L 560 380 L 560 360 L 540 360 L 540 380 z M 580 380 L 600 380 L 600 360 L 580 360 L 580 380 z M 600 360 L 620 360 L 620 340 L 600 340 L 600 360 z M 620 340 L 640 340 L 640 320 L 620 320 L 620 340 z M 620 320 L 620 300 L 600 300 L 600 320 L 620 320 z M 600 300 L 600 280 L 580 280 L 580 300 L 600 300 z M 620 300 L 640 300 L 640 280 L 620 280 L 620 300 z M 640 280 L 660 280 L 660 260 L 640 260 L 640 280 z M 640 260 L 640 240 L 620 240 L 620 260 L 640 260 z M 620 240 L 620 220 L 600 220 L 600 240 L 620 240 z M 600 240 L 580 240 L 580 260 L 600 260 L 600 240 z M 600 220 L 600 200 L 580 200 L 580 220 L 600 220 z M 580 200 L 580 180 L 560 180 L 560 200 L 580 200 z M 560 180 L 560 160 L 540 160 L 540 180 L 560 180 z M 560 160 L 580 160 L 580 140 L 560 140 L 560 160 z M 560 140 L 560 120 L 540 120 L 540 140 L 560 140 z M 540 120 L 540 100 L 520 100 L 520 120 L 540 120 z M 580 160 L 580 180 L 600 180 L 600 160 L 580 160 z M 600 180 L 600 200 L 620 200 L 620 180 L 600 180 z M 620 200 L 620 220 L 640 220 L 640 200 L 620 200 z M 640 220 L 640 240 L 660 240 L 660 220 L 640 220 z M 660 240 L 660 260 L 680 260 L 680 240 L 660 240 z M 680 260 L 680 280 L 700 280 L 700 260 L 680 260 z M 700 280 L 700 300 L 720 300 L 720 280 L 700 280 z M 720 300 L 720 320 L 740 320 L 740 300 L 720 300 z M 740 320 L 740 340 L 760 340 L 760 320 L 740 320 z M 760 340 L 760 360 L 780 360 L 780 340 L 760 340 z M 780 360 L 780 380 L 800 380 L 800 360 L 780 360 z M 760 360 L 740 360 L 740 380 L 760 380 L 760 360 z M 740 360 L 740 340 L 720 340 L 720 360 L 740 360 z M 720 360 L 700 360 L 700 380 L 720 380 L 720 360 z M 700 360 L 700 340 L 680 340 L 680 360 L 700 360 z M 680 360 L 660 360 L 660 380 L 680 380 L 680 360 z M 660 360 L 660 340 L 640 340 L 640 360 L 660 360 z M 640 360 L 620 360 L 620 380 L 640 380 L 640 360 z M 660 340 L 680 340 L 680 320 L 660 320 L 660 340 z M 660 320 L 660 300 L 640 300 L 640 320 L 660 320 z M 660 300 L 680 300 L 680 280 L 660 280 L 660 300 z M 680 300 L 680 320 L 700 320 L 700 300 L 680 300 z M 700 320 L 700 340 L 720 340 L 720 320 L 700 320 z M 480 120 L 480 140 L 500 140 L 500 120 L 480 120 z M 520 200 L 520 220 L 540 220 L 540 200 L 520 200 z M 460 220 L 460 240 L 480 240 L 480 220 L 460 220 z M 540 240 L 540 260 L 560 260 L 560 240 L 540 240 z M 420 280 L 420 300 L 440 300 L 440 280 L 420 280 z M 480 280 L 480 300 L 500 300 L 500 280 L 480 280 z M 520 280 L 520 300 L 540 300 L 540 280 L 520 280 z M 460 320 L 460 340 L 480 340 L 480 320 L 460 320 z M 560 320 L 560 340 L 580 340 L 580 320 L 560 320 z M 400 340 L 400 360 L 420 360 L 420 340 L 400 340 z M 500 340 L 500 360 L 520 360 L 520 340 L 500 340 z M 300 440 L 300 460 L 320 460 L 320 440 L 300 440 z M 300 460 L 280 460 L 280 480 L 300 480 L 300 460 z M 280 480 L 260 480 L 260 500 L 280 500 L 280 480 z M 260 500 L 240 500 L 240 520 L 260 520 L 260 500 z M 240 520 L 220 520 L 220 540 L 240 540 L 240 520 z M 220 540 L 200 540 L 200 560 L 220 560 L 220 540 z M 200 560 L 180 560 L 180 580 L 200 580 L 200 560 z M 180 580 L 160 580 L 160 600 L 180 600 L 180 580 z M 160 600 L 140 600 L 140 620 L 160 620 L 160 600 z M 140 620 L 120 620 L 120 640 L 140 640 L 140 620 z M 40 680 L 60 680 L 80 680 L 100 680 L 120 680 L 140 680 L 160 680 L 180 680 L 200 680 L 220 680 L 240 680 L 260 680 L 280 680 L 300 680 L 320 680 L 340 680 L 360 680 L 380 680 L 400 680 L 420 680 L 440 680 L 460 680 L 480 680 L 500 680 L 520 680 L 540 680 L 560 680 L 580 680 L 600 680 L 620 680 L 640 680 L 660 680 L 660 700 L 660 720 L 660 740 L 660 760 L 660 780 L 660 800 L 660 820 L 660 840 L 640 840 L 620 840 L 600 840 L 580 840 L 560 840 L 540 840 L 520 840 L 500 840 L 480 840 L 460 840 L 440 840 L 420 840 L 400 840 L 380 840 L 360 840 L 340 840 L 320 840 L 300 840 L 280 840 L 260 840 L 240 840 L 220 840 L 200 840 L 180 840 L 160 840 L 140 840 L 120 840 L 100 840 L 80 840 L 60 840 L 40 840 L 40 820 L 40 800 L 40 780 L 40 760 L 40 740 L 40 720 L 40 700 L 40 680 z "
     id="rect2752" />
  <path
     style="fill:#000101"
     d="M 680 840 L 680 860 L 700 860 L 700 840 L 680 840 z "
     id="rect2754" />
  <path
     style="opacity:0.42352941;fill:#81abab"
     d="M 700 840 L 700 860 L 720 860 L 720 840 L 700 840 z "
     id="rect2756" />
  <path
     style="opacity:0.9254902;fill:#303000"
     d="M 680 860 L 680 880 L 700 880 L 700 860 L 680 860 z "
     id="rect2822" />
  <path
     style="opacity:0.00784314;fill:#000000"
     d="M 540 60 L 540 80 L 560 80 L 560 60 L 540 60 z M 560 80 L 560 100 L 580 100 L 580 80 L 560 80 z M 580 100 L 580 120 L 600 120 L 600 100 L 580 100 z M 600 120 L 600 140 L 620 140 L 620 120 L 600 120 z M 620 140 L 620 160 L 640 160 L 640 140 L 620 140 z M 640 160 L 640 180 L 660 180 L 660 160 L 640 160 z M 660 180 L 660 200 L 680 200 L 680 180 L 660 180 z M 680 200 L 680 220 L 700 220 L 700 200 L 680 200 z M 700 220 L 700 240 L 720 240 L 720 220 L 700 220 z M 720 240 L 720 260 L 740 260 L 740 240 L 720 240 z M 740 260 L 740 280 L 760 280 L 760 260 L 740 260 z M 760 280 L 760 300 L 780 300 L 780 280 L 760 280 z M 780 300 L 780 320 L 800 320 L 800 300 L 780 300 z M 800 320 L 800 340 L 820 340 L 820 320 L 800 320 z M 820 340 L 820 360 L 840 360 L 840 340 L 820 340 z M 840 360 L 840 380 L 860 380 L 860 360 L 840 360 z M 860 380 L 860 400 L 840 400 L 820 400 L 820 420 L 840 420 L 860 420 L 880 420 L 900 420 L 900 400 L 880 400 L 880 380 L 860 380 z M 900 420 L 900 440 L 900 460 L 900 480 L 900 500 L 900 520 L 900 540 L 900 560 L 900 580 L 900 600 L 900 620 L 900 640 L 920 640 L 920 620 L 920 600 L 920 580 L 920 560 L 920 540 L 920 520 L 920 500 L 920 480 L 920 460 L 920 440 L 920 420 L 900 420 z M 900 640 L 880 640 L 880 660 L 900 660 L 900 640 z M 880 660 L 860 660 L 860 680 L 880 680 L 880 660 z M 860 680 L 840 680 L 840 700 L 860 700 L 860 680 z M 820 420 L 800 420 L 780 420 L 760 420 L 740 420 L 720 420 L 700 420 L 680 420 L 660 420 L 640 420 L 620 420 L 600 420 L 580 420 L 560 420 L 540 420 L 520 420 L 500 420 L 480 420 L 460 420 L 440 420 L 420 420 L 400 420 L 380 420 L 360 420 L 340 420 L 320 420 L 320 440 L 340 440 L 360 440 L 380 440 L 400 440 L 420 440 L 440 440 L 460 440 L 480 440 L 500 440 L 520 440 L 540 440 L 560 440 L 580 440 L 600 440 L 620 440 L 640 440 L 660 440 L 680 440 L 700 440 L 720 440 L 740 440 L 760 440 L 780 440 L 780 460 L 800 460 L 800 440 L 820 440 L 820 420 z M 780 460 L 760 460 L 760 480 L 780 480 L 780 460 z M 760 480 L 740 480 L 740 500 L 760 500 L 760 480 z M 740 500 L 720 500 L 720 520 L 740 520 L 740 500 z M 720 520 L 700 520 L 700 540 L 720 540 L 720 520 z M 700 540 L 680 540 L 680 560 L 700 560 L 700 540 z M 680 560 L 660 560 L 660 580 L 680 580 L 680 560 z M 660 580 L 640 580 L 640 600 L 660 600 L 660 580 z M 640 600 L 620 600 L 620 620 L 640 620 L 640 600 z M 620 620 L 600 620 L 600 640 L 620 640 L 620 620 z M 740 780 L 740 800 L 760 800 L 760 780 L 740 780 z M 40 860 L 40 880 L 60 880 L 80 880 L 100 880 L 120 880 L 140 880 L 160 880 L 180 880 L 200 880 L 220 880 L 240 880 L 260 880 L 280 880 L 300 880 L 320 880 L 340 880 L 360 880 L 380 880 L 400 880 L 420 880 L 440 880 L 460 880 L 480 880 L 500 880 L 520 880 L 540 880 L 560 880 L 580 880 L 600 880 L 620 880 L 640 880 L 660 880 L 680 880 L 680 860 L 660 860 L 640 860 L 620 860 L 600 860 L 580 860 L 560 860 L 540 860 L 520 860 L 500 860 L 480 860 L 460 860 L 440 860 L 420 860 L 400 860 L 380 860 L 360 860 L 340 860 L 320 860 L 300 860 L 280 860 L 260 860 L 240 860 L 220 860 L 200 860 L 180 860 L 160 860 L 140 860 L 120 860 L 100 860 L 80 860 L 60 860 L 40 860 z M 700 860 L 700 880 L 720 880 L 720 860 L 700 860 z "
     id="rect2824" />
</svg>
