<?xml version="1.0" encoding="UTF-8" standalone="no"?>
<svg
   xmlns:dc="http://purl.org/dc/elements/1.1/"
   xmlns:cc="http://creativecommons.org/ns#"
   xmlns:rdf="http://www.w3.org/1999/02/22-rdf-syntax-ns#"
   xmlns:svg="http://www.w3.org/2000/svg"
   xmlns="http://www.w3.org/2000/svg"
   xmlns:sodipodi="http://sodipodi.sourceforge.net/DTD/sodipodi-0.dtd"
   xmlns:inkscape="http://www.inkscape.org/namespaces/inkscape"
   id="svg2512"
   width="960px"
   version="1.1"
   height="960px"
   sodipodi:docname="chicago95_tmp_file.svg"
   inkscape:version="0.92.4 (5da689c313, 2019-01-14)">
  <sodipodi:namedview
     pagecolor="#ffffff"
     bordercolor="#666666"
     borderopacity="1"
     objecttolerance="10"
     gridtolerance="10"
     guidetolerance="10"
     inkscape:pageopacity="0"
     inkscape:pageshadow="2"
     inkscape:window-width="640"
     inkscape:window-height="480"
     id="namedview1259"
     showgrid="false"
     inkscape:zoom="0.24583333"
     inkscape:cx="479.99995"
     inkscape:cy="479.99995"
     inkscape:window-x="0"
     inkscape:window-y="0"
     inkscape:window-maximized="0"
     inkscape:current-layer="svg2512" />
  <metadata
     id="metadata2516">
    <rdf:RDF>
      <cc:Work
         rdf:about="">
        <dc:format>image/svg+xml</dc:format>
        <dc:type
           rdf:resource="http://purl.org/dc/dcmitype/StillImage" />
      </cc:Work>
    </rdf:RDF>
  </metadata>
  <defs
     id="defs2" />
  <path
     style="fill:#ffff00"
     d="M 440 100 L 440 120 L 440 140 L 460 140 L 460 160 L 480 160 L 480 180 L 480 200 L 480 220 L 480 240 L 460 240 L 460 260 L 440 260 L 440 280 L 420 280 L 400 280 L 380 280 L 380 260 L 360 260 L 360 240 L 340 240 L 340 220 L 340 200 L 340 180 L 360 180 L 360 160 L 380 160 L 380 140 L 400 140 L 400 120 L 380 120 L 360 120 L 340 120 L 340 140 L 320 140 L 320 160 L 300 160 L 300 180 L 300 200 L 280 200 L 280 220 L 280 240 L 280 260 L 280 280 L 280 300 L 280 320 L 280 340 L 280 360 L 300 360 L 300 380 L 300 400 L 320 400 L 320 420 L 340 420 L 340 440 L 360 440 L 360 460 L 380 460 L 400 460 L 400 480 L 420 480 L 440 480 L 460 480 L 480 480 L 500 480 L 520 480 L 540 480 L 560 480 L 580 480 L 580 500 L 600 500 L 600 520 L 620 520 L 620 540 L 640 540 L 640 560 L 660 560 L 660 580 L 660 600 L 660 620 L 680 620 L 700 620 L 720 620 L 740 620 L 740 600 L 720 600 L 720 580 L 700 580 L 700 560 L 680 560 L 680 540 L 660 540 L 660 520 L 640 520 L 640 500 L 620 500 L 620 480 L 600 480 L 600 460 L 620 460 L 620 440 L 600 440 L 600 420 L 580 420 L 580 440 L 560 440 L 560 420 L 540 420 L 540 440 L 520 440 L 520 420 L 500 420 L 500 400 L 480 400 L 480 420 L 460 420 L 460 400 L 440 400 L 440 380 L 420 380 L 420 360 L 400 360 L 400 340 L 420 340 L 420 320 L 440 320 L 440 300 L 460 300 L 460 280 L 480 280 L 480 260 L 500 260 L 500 240 L 520 240 L 520 220 L 540 220 L 540 200 L 560 200 L 560 180 L 540 180 L 540 160 L 520 160 L 520 140 L 500 140 L 500 120 L 500 100 L 480 100 L 460 100 L 440 100 z M 520 140 L 540 140 L 540 120 L 520 120 L 520 140 z M 540 140 L 540 160 L 560 160 L 560 140 L 540 140 z M 560 160 L 560 180 L 580 180 L 580 160 L 560 160 z M 580 180 L 580 200 L 600 200 L 600 180 L 580 180 z M 600 200 L 600 220 L 620 220 L 620 200 L 600 200 z M 620 220 L 620 240 L 640 240 L 640 220 L 620 220 z M 620 240 L 600 240 L 600 260 L 620 260 L 620 240 z M 620 260 L 620 280 L 640 280 L 640 260 L 620 260 z M 620 280 L 600 280 L 600 300 L 620 300 L 620 280 z M 620 300 L 620 320 L 640 320 L 640 300 L 620 300 z M 620 320 L 600 320 L 600 340 L 620 340 L 620 320 z M 620 340 L 620 360 L 640 360 L 640 340 L 620 340 z M 620 360 L 600 360 L 600 380 L 620 380 L 620 360 z M 620 380 L 620 400 L 640 400 L 640 380 L 620 380 z M 620 400 L 600 400 L 600 420 L 620 420 L 620 400 z M 600 400 L 600 380 L 580 380 L 580 400 L 600 400 z M 580 400 L 560 400 L 560 420 L 580 420 L 580 400 z M 560 400 L 560 380 L 540 380 L 540 400 L 560 400 z M 540 400 L 520 400 L 520 420 L 540 420 L 540 400 z M 520 400 L 520 380 L 500 380 L 500 400 L 520 400 z M 500 380 L 500 360 L 480 360 L 480 380 L 500 380 z M 480 380 L 460 380 L 460 400 L 480 400 L 480 380 z M 460 380 L 460 360 L 440 360 L 440 380 L 460 380 z M 440 360 L 440 340 L 420 340 L 420 360 L 440 360 z M 440 340 L 460 340 L 460 320 L 440 320 L 440 340 z M 460 320 L 480 320 L 480 300 L 460 300 L 460 320 z M 480 300 L 500 300 L 500 280 L 480 280 L 480 300 z M 500 280 L 520 280 L 520 260 L 500 260 L 500 280 z M 520 260 L 540 260 L 540 240 L 520 240 L 520 260 z M 540 240 L 560 240 L 560 220 L 540 220 L 540 240 z M 560 220 L 580 220 L 580 200 L 560 200 L 560 220 z M 580 220 L 580 240 L 600 240 L 600 220 L 580 220 z M 580 240 L 560 240 L 560 260 L 580 260 L 580 240 z M 580 260 L 580 280 L 600 280 L 600 260 L 580 260 z M 580 280 L 560 280 L 560 300 L 580 300 L 580 280 z M 580 300 L 580 320 L 600 320 L 600 300 L 580 300 z M 580 320 L 560 320 L 560 340 L 580 340 L 580 320 z M 580 340 L 580 360 L 600 360 L 600 340 L 580 340 z M 580 360 L 560 360 L 560 380 L 580 380 L 580 360 z M 560 360 L 560 340 L 540 340 L 540 360 L 560 360 z M 540 360 L 520 360 L 520 380 L 540 380 L 540 360 z M 520 360 L 520 340 L 500 340 L 500 360 L 520 360 z M 500 340 L 500 320 L 480 320 L 480 340 L 500 340 z M 480 340 L 460 340 L 460 360 L 480 360 L 480 340 z M 500 320 L 520 320 L 520 300 L 500 300 L 500 320 z M 520 300 L 540 300 L 540 280 L 520 280 L 520 300 z M 540 280 L 560 280 L 560 260 L 540 260 L 540 280 z M 540 300 L 540 320 L 560 320 L 560 300 L 540 300 z M 540 320 L 520 320 L 520 340 L 540 340 L 540 320 z M 620 460 L 620 480 L 640 480 L 640 460 L 620 460 z M 640 480 L 640 500 L 660 500 L 660 480 L 640 480 z M 660 500 L 660 520 L 680 520 L 680 500 L 660 500 z M 680 520 L 680 540 L 700 540 L 700 520 L 680 520 z M 700 540 L 700 560 L 720 560 L 720 540 L 700 540 z M 720 560 L 720 580 L 740 580 L 740 560 L 720 560 z M 740 580 L 740 600 L 760 600 L 760 580 L 740 580 z M 760 600 L 760 620 L 780 620 L 780 600 L 760 600 z M 780 620 L 780 640 L 800 640 L 800 620 L 780 620 z M 800 640 L 800 660 L 820 660 L 820 640 L 800 640 z M 820 660 L 820 680 L 840 680 L 840 660 L 820 660 z M 840 680 L 840 700 L 860 700 L 860 680 L 840 680 z M 860 700 L 860 720 L 880 720 L 880 700 L 860 700 z M 880 720 L 880 740 L 900 740 L 900 720 L 880 720 z M 900 740 L 900 760 L 880 760 L 880 780 L 900 780 L 920 780 L 920 760 L 920 740 L 900 740 z M 840 700 L 820 700 L 820 680 L 800 680 L 800 660 L 780 660 L 780 680 L 780 700 L 780 720 L 800 720 L 820 720 L 840 720 L 840 700 z "
     id="rect2244" />
  <path
     style="fill:#808000"
     d="M 480 80 L 480 100 L 500 100 L 500 80 L 480 80 z M 520 100 L 520 120 L 540 120 L 540 100 L 520 100 z M 540 120 L 540 140 L 560 140 L 580 140 L 580 120 L 560 120 L 540 120 z M 580 140 L 580 160 L 600 160 L 600 140 L 580 140 z M 600 160 L 600 180 L 620 180 L 620 160 L 600 160 z M 620 180 L 620 200 L 640 200 L 640 180 L 620 180 z M 640 200 L 640 220 L 660 220 L 660 200 L 640 200 z M 280 140 L 280 160 L 300 160 L 300 140 L 280 140 z M 280 160 L 260 160 L 260 180 L 260 200 L 280 200 L 280 180 L 280 160 z M 260 200 L 240 200 L 240 220 L 240 240 L 240 260 L 240 280 L 240 300 L 240 320 L 240 340 L 240 360 L 260 360 L 260 340 L 260 320 L 260 300 L 260 280 L 260 260 L 260 240 L 260 220 L 260 200 z M 260 360 L 260 380 L 260 400 L 280 400 L 280 380 L 280 360 L 260 360 z M 280 400 L 280 420 L 300 420 L 300 400 L 280 400 z M 300 420 L 300 440 L 320 440 L 320 420 L 300 420 z M 320 440 L 320 460 L 340 460 L 340 440 L 320 440 z M 340 460 L 340 480 L 360 480 L 360 460 L 340 460 z M 360 480 L 360 500 L 380 500 L 400 500 L 400 480 L 380 480 L 360 480 z M 400 500 L 400 520 L 420 520 L 440 520 L 460 520 L 480 520 L 500 520 L 520 520 L 540 520 L 560 520 L 580 520 L 580 500 L 560 500 L 540 500 L 520 500 L 500 500 L 480 500 L 460 500 L 440 500 L 420 500 L 400 500 z M 580 520 L 580 540 L 600 540 L 600 520 L 580 520 z M 660 240 L 660 260 L 660 280 L 660 300 L 660 320 L 660 340 L 660 360 L 660 380 L 660 400 L 660 420 L 680 420 L 680 400 L 680 380 L 680 360 L 680 340 L 680 320 L 680 300 L 680 280 L 680 260 L 680 240 L 660 240 z M 680 420 L 680 440 L 700 440 L 700 420 L 680 420 z M 700 440 L 700 460 L 720 460 L 720 440 L 700 440 z M 720 460 L 720 480 L 740 480 L 740 460 L 720 460 z M 740 480 L 740 500 L 760 500 L 760 480 L 740 480 z M 760 500 L 760 520 L 780 520 L 780 500 L 760 500 z M 780 520 L 780 540 L 800 540 L 800 520 L 780 520 z M 800 540 L 800 560 L 820 560 L 820 540 L 800 540 z M 820 560 L 820 580 L 840 580 L 840 560 L 820 560 z M 840 580 L 840 600 L 860 600 L 860 580 L 840 580 z M 860 600 L 860 620 L 880 620 L 880 600 L 860 600 z M 880 620 L 880 640 L 900 640 L 900 620 L 880 620 z M 900 640 L 900 660 L 920 660 L 920 640 L 900 640 z M 920 660 L 920 680 L 940 680 L 940 660 L 920 660 z M 620 560 L 620 580 L 620 600 L 620 620 L 640 620 L 640 600 L 640 580 L 640 560 L 620 560 z M 640 620 L 640 640 L 660 640 L 660 620 L 640 620 z M 660 640 L 660 660 L 680 660 L 680 640 L 660 640 z M 740 660 L 740 680 L 740 700 L 760 700 L 760 680 L 760 660 L 740 660 z M 760 720 L 760 740 L 780 740 L 780 720 L 760 720 z M 920 760 L 920 780 L 900 780 L 880 780 L 880 800 L 900 800 L 920 800 L 940 800 L 940 780 L 940 760 L 920 760 z "
     id="rect2292" />
  <path
     style="fill:#ffffff"
     d="M 120 80 L 120 100 L 140 100 L 160 100 L 180 100 L 200 100 L 220 100 L 220 80 L 200 80 L 180 80 L 160 80 L 140 80 L 120 80 z M 120 100 L 100 100 L 100 120 L 120 120 L 120 100 z M 100 120 L 80 120 L 80 140 L 100 140 L 100 120 z M 80 140 L 60 140 L 60 160 L 80 160 L 80 140 z M 60 160 L 40 160 L 40 180 L 60 180 L 60 160 z M 40 180 L 20 180 L 20 200 L 20 220 L 20 240 L 20 260 L 20 280 L 20 300 L 20 320 L 20 340 L 40 340 L 40 320 L 40 300 L 40 280 L 40 260 L 40 240 L 40 220 L 40 200 L 40 180 z M 40 340 L 40 360 L 60 360 L 60 340 L 40 340 z M 60 360 L 60 380 L 80 380 L 80 360 L 60 360 z M 80 380 L 80 400 L 100 400 L 100 380 L 80 380 z M 100 400 L 100 420 L 120 420 L 120 400 L 100 400 z M 120 420 L 120 440 L 140 440 L 140 420 L 120 420 z M 140 440 L 140 460 L 160 460 L 160 440 L 140 440 z M 160 460 L 160 480 L 180 480 L 180 460 L 160 460 z M 180 480 L 180 500 L 200 500 L 200 480 L 180 480 z M 180 500 L 160 500 L 160 520 L 180 520 L 180 500 z M 160 520 L 140 520 L 140 540 L 140 560 L 160 560 L 160 540 L 160 520 z M 160 560 L 160 580 L 180 580 L 180 560 L 160 560 z M 180 580 L 180 600 L 200 600 L 200 580 L 180 580 z M 200 600 L 200 620 L 200 640 L 220 640 L 220 620 L 220 600 L 200 600 z M 200 640 L 180 640 L 180 660 L 200 660 L 200 640 z M 180 660 L 160 660 L 160 680 L 180 680 L 180 660 z M 160 680 L 140 680 L 140 700 L 140 720 L 160 720 L 160 700 L 160 680 z M 160 720 L 160 740 L 180 740 L 180 720 L 160 720 z M 180 740 L 180 760 L 200 760 L 200 740 L 180 740 z M 200 760 L 200 780 L 200 800 L 220 800 L 220 780 L 220 760 L 200 760 z M 200 800 L 180 800 L 180 820 L 180 840 L 180 860 L 200 860 L 200 840 L 200 820 L 200 800 z M 260 80 L 260 100 L 280 100 L 300 100 L 320 100 L 320 80 L 300 80 L 280 80 L 260 80 z M 380 80 L 380 100 L 360 100 L 340 100 L 340 120 L 360 120 L 380 120 L 400 120 L 400 100 L 400 80 L 380 80 z M 340 120 L 320 120 L 320 140 L 340 140 L 340 120 z M 320 140 L 300 140 L 300 160 L 320 160 L 320 140 z M 300 160 L 280 160 L 280 180 L 280 200 L 300 200 L 300 180 L 300 160 z M 280 200 L 260 200 L 260 220 L 260 240 L 260 260 L 260 280 L 260 300 L 260 320 L 260 340 L 260 360 L 280 360 L 280 340 L 280 320 L 280 300 L 280 280 L 280 260 L 280 240 L 280 220 L 280 200 z M 280 360 L 280 380 L 280 400 L 300 400 L 300 380 L 300 360 L 280 360 z M 300 400 L 300 420 L 320 420 L 320 400 L 300 400 z M 320 420 L 320 440 L 340 440 L 340 420 L 320 420 z M 340 440 L 340 460 L 360 460 L 360 440 L 340 440 z M 360 460 L 360 480 L 380 480 L 400 480 L 400 460 L 380 460 L 360 460 z M 400 480 L 400 500 L 420 500 L 440 500 L 460 500 L 480 500 L 500 500 L 520 500 L 540 500 L 560 500 L 580 500 L 580 480 L 560 480 L 540 480 L 520 480 L 500 480 L 480 480 L 460 480 L 440 480 L 420 480 L 400 480 z M 580 500 L 580 520 L 600 520 L 600 500 L 580 500 z M 600 520 L 600 540 L 620 540 L 620 520 L 600 520 z M 360 480 L 340 480 L 340 500 L 360 500 L 360 480 z M 360 500 L 360 520 L 380 520 L 380 500 L 360 500 z M 380 520 L 380 540 L 400 540 L 400 520 L 380 520 z M 400 540 L 400 560 L 420 560 L 420 580 L 420 600 L 420 620 L 420 640 L 420 660 L 420 680 L 420 700 L 420 720 L 420 740 L 420 760 L 420 780 L 420 800 L 420 820 L 420 840 L 420 860 L 420 880 L 440 880 L 440 860 L 440 840 L 440 820 L 440 800 L 440 780 L 440 760 L 440 740 L 440 720 L 440 700 L 440 680 L 440 660 L 440 640 L 440 620 L 440 600 L 440 580 L 440 560 L 460 560 L 460 540 L 440 540 L 440 520 L 420 520 L 420 540 L 400 540 z M 460 540 L 480 540 L 480 520 L 460 520 L 460 540 z M 440 80 L 440 100 L 460 100 L 460 80 L 440 80 z M 140 180 L 140 200 L 160 200 L 160 180 L 140 180 z M 140 200 L 120 200 L 120 220 L 140 220 L 140 200 z M 140 220 L 140 240 L 160 240 L 160 220 L 140 220 z M 140 240 L 120 240 L 120 260 L 140 260 L 140 240 z M 140 260 L 140 280 L 160 280 L 160 260 L 140 260 z M 160 280 L 160 300 L 180 300 L 180 280 L 160 280 z M 180 300 L 180 320 L 200 320 L 200 300 L 180 300 z M 180 320 L 160 320 L 160 340 L 180 340 L 180 320 z M 180 340 L 180 360 L 200 360 L 200 340 L 180 340 z M 180 360 L 160 360 L 160 380 L 180 380 L 180 360 z M 180 380 L 180 400 L 200 400 L 200 380 L 180 380 z M 160 360 L 160 340 L 140 340 L 140 360 L 160 360 z M 140 340 L 140 320 L 120 320 L 120 340 L 140 340 z M 140 320 L 160 320 L 160 300 L 140 300 L 140 320 z M 140 300 L 140 280 L 120 280 L 120 300 L 140 300 z M 220 220 L 220 240 L 220 260 L 220 280 L 220 300 L 220 320 L 220 340 L 220 360 L 220 380 L 220 400 L 220 420 L 220 440 L 240 440 L 240 420 L 240 400 L 240 380 L 240 360 L 240 340 L 240 320 L 240 300 L 240 280 L 240 260 L 240 240 L 240 220 L 220 220 z M 240 440 L 240 460 L 260 460 L 260 440 L 240 440 z M 260 460 L 260 480 L 280 480 L 280 460 L 260 460 z M 280 480 L 280 500 L 300 500 L 300 480 L 280 480 z M 300 500 L 300 520 L 320 520 L 320 500 L 300 500 z M 320 520 L 320 540 L 340 540 L 340 520 L 320 520 z M 340 540 L 340 560 L 360 560 L 360 540 L 340 540 z M 340 560 L 320 560 L 320 580 L 340 580 L 340 560 z M 320 580 L 300 580 L 300 600 L 300 620 L 320 620 L 320 600 L 320 580 z M 320 620 L 320 640 L 340 640 L 340 620 L 320 620 z M 280 500 L 260 500 L 260 520 L 260 540 L 260 560 L 260 580 L 260 600 L 260 620 L 260 640 L 260 660 L 260 680 L 260 700 L 260 720 L 260 740 L 260 760 L 260 780 L 260 800 L 260 820 L 280 820 L 280 800 L 280 780 L 280 760 L 280 740 L 280 720 L 280 700 L 280 680 L 280 660 L 280 640 L 280 620 L 280 600 L 280 580 L 280 560 L 280 540 L 280 520 L 280 500 z M 640 560 L 640 580 L 640 600 L 640 620 L 660 620 L 660 600 L 660 580 L 660 560 L 640 560 z M 660 620 L 660 640 L 680 640 L 700 640 L 720 640 L 740 640 L 760 640 L 760 620 L 740 620 L 720 620 L 700 620 L 680 620 L 660 620 z M 760 640 L 760 660 L 760 680 L 760 700 L 760 720 L 780 720 L 780 700 L 780 680 L 780 660 L 780 640 L 760 640 z M 780 720 L 780 740 L 800 740 L 820 740 L 840 740 L 860 740 L 860 720 L 840 720 L 820 720 L 800 720 L 780 720 z M 860 740 L 860 760 L 860 780 L 860 800 L 880 800 L 880 780 L 880 760 L 880 740 L 860 740 z M 340 700 L 340 720 L 360 720 L 360 700 L 340 700 z M 340 720 L 320 720 L 320 740 L 340 740 L 340 720 z M 320 740 L 300 740 L 300 760 L 300 780 L 320 780 L 320 760 L 320 740 z M 320 780 L 320 800 L 340 800 L 340 780 L 320 780 z M 340 800 L 340 820 L 360 820 L 360 800 L 340 800 z M 360 820 L 360 840 L 360 860 L 360 880 L 360 900 L 380 900 L 380 880 L 380 860 L 380 840 L 380 820 L 360 820 z "
     id="rect2456" />
  <path
     style="fill:#c0c0c0"
     d="M 320 80 L 320 100 L 340 100 L 340 80 L 320 80 z M 320 100 L 300 100 L 280 100 L 260 100 L 260 120 L 260 140 L 280 140 L 300 140 L 300 120 L 320 120 L 320 100 z M 460 80 L 460 100 L 480 100 L 480 80 L 460 80 z M 120 100 L 120 120 L 100 120 L 100 140 L 80 140 L 80 160 L 60 160 L 60 180 L 40 180 L 40 200 L 40 220 L 40 240 L 40 260 L 40 280 L 40 300 L 40 320 L 40 340 L 60 340 L 60 360 L 80 360 L 80 380 L 100 380 L 100 400 L 120 400 L 120 420 L 140 420 L 140 440 L 160 440 L 160 460 L 180 460 L 180 480 L 200 480 L 200 500 L 180 500 L 180 520 L 160 520 L 160 540 L 160 560 L 180 560 L 180 580 L 200 580 L 200 600 L 220 600 L 220 620 L 220 640 L 200 640 L 200 660 L 180 660 L 180 680 L 160 680 L 160 700 L 160 720 L 180 720 L 180 740 L 200 740 L 200 760 L 220 760 L 220 780 L 220 800 L 200 800 L 200 820 L 200 840 L 200 860 L 200 880 L 220 880 L 220 900 L 240 900 L 240 880 L 260 880 L 280 880 L 280 860 L 300 860 L 300 840 L 320 840 L 320 820 L 320 800 L 300 800 L 300 780 L 280 780 L 280 800 L 280 820 L 260 820 L 240 820 L 240 800 L 240 780 L 240 760 L 240 740 L 240 720 L 240 700 L 240 680 L 240 660 L 240 640 L 240 620 L 240 600 L 240 580 L 240 560 L 240 540 L 240 520 L 240 500 L 240 480 L 240 460 L 220 460 L 220 440 L 200 440 L 200 420 L 200 400 L 180 400 L 180 380 L 160 380 L 160 360 L 140 360 L 140 340 L 120 340 L 120 320 L 140 320 L 140 300 L 120 300 L 120 280 L 140 280 L 140 260 L 120 260 L 120 240 L 140 240 L 140 220 L 120 220 L 120 200 L 140 200 L 140 180 L 160 180 L 160 160 L 180 160 L 180 140 L 200 140 L 200 120 L 220 120 L 220 100 L 200 100 L 180 100 L 160 100 L 140 100 L 120 100 z M 140 200 L 140 220 L 160 220 L 160 200 L 140 200 z M 140 240 L 140 260 L 160 260 L 160 240 L 140 240 z M 160 260 L 160 280 L 180 280 L 180 260 L 160 260 z M 180 280 L 180 300 L 200 300 L 200 280 L 180 280 z M 180 300 L 160 300 L 160 320 L 180 320 L 180 300 z M 180 320 L 180 340 L 200 340 L 200 320 L 180 320 z M 180 340 L 160 340 L 160 360 L 180 360 L 180 340 z M 180 360 L 180 380 L 200 380 L 200 360 L 180 360 z M 160 340 L 160 320 L 140 320 L 140 340 L 160 340 z M 160 300 L 160 280 L 140 280 L 140 300 L 160 300 z M 500 100 L 500 120 L 500 140 L 520 140 L 520 120 L 520 100 L 500 100 z M 520 140 L 520 160 L 540 160 L 540 140 L 520 140 z M 540 160 L 540 180 L 560 180 L 560 160 L 540 160 z M 560 160 L 580 160 L 580 140 L 560 140 L 560 160 z M 580 160 L 580 180 L 600 180 L 600 160 L 580 160 z M 600 180 L 600 200 L 620 200 L 620 180 L 600 180 z M 620 200 L 620 220 L 640 220 L 640 200 L 620 200 z M 640 220 L 640 240 L 620 240 L 620 260 L 640 260 L 640 280 L 620 280 L 620 300 L 640 300 L 640 320 L 620 320 L 620 340 L 640 340 L 640 360 L 620 360 L 620 380 L 640 380 L 640 400 L 620 400 L 620 420 L 640 420 L 660 420 L 660 400 L 660 380 L 660 360 L 660 340 L 660 320 L 660 300 L 660 280 L 660 260 L 660 240 L 660 220 L 640 220 z M 660 420 L 660 440 L 680 440 L 680 420 L 660 420 z M 680 440 L 680 460 L 700 460 L 700 440 L 680 440 z M 700 460 L 700 480 L 720 480 L 720 460 L 700 460 z M 720 480 L 720 500 L 740 500 L 740 480 L 720 480 z M 740 500 L 740 520 L 760 520 L 760 500 L 740 500 z M 760 520 L 760 540 L 780 540 L 780 520 L 760 520 z M 780 540 L 780 560 L 800 560 L 800 540 L 780 540 z M 800 560 L 800 580 L 820 580 L 820 560 L 800 560 z M 820 580 L 820 600 L 840 600 L 840 580 L 820 580 z M 840 600 L 840 620 L 860 620 L 860 600 L 840 600 z M 860 620 L 860 640 L 880 640 L 880 620 L 860 620 z M 880 640 L 880 660 L 900 660 L 900 640 L 880 640 z M 900 660 L 900 680 L 920 680 L 920 660 L 900 660 z M 920 680 L 920 700 L 940 700 L 940 680 L 920 680 z M 620 420 L 600 420 L 600 440 L 620 440 L 620 420 z M 620 440 L 620 460 L 640 460 L 640 440 L 620 440 z M 640 460 L 640 480 L 660 480 L 660 460 L 640 460 z M 660 480 L 660 500 L 680 500 L 680 480 L 660 480 z M 680 500 L 680 520 L 700 520 L 700 500 L 680 500 z M 700 520 L 700 540 L 720 540 L 720 520 L 700 520 z M 720 540 L 720 560 L 740 560 L 740 540 L 720 540 z M 740 560 L 740 580 L 760 580 L 760 560 L 740 560 z M 760 580 L 760 600 L 780 600 L 780 580 L 760 580 z M 780 600 L 780 620 L 800 620 L 800 600 L 780 600 z M 800 620 L 800 640 L 820 640 L 820 620 L 800 620 z M 820 640 L 820 660 L 840 660 L 840 640 L 820 640 z M 840 660 L 840 680 L 860 680 L 860 660 L 840 660 z M 860 680 L 860 700 L 880 700 L 880 680 L 860 680 z M 880 700 L 880 720 L 900 720 L 900 700 L 880 700 z M 900 720 L 900 740 L 920 740 L 920 720 L 900 720 z M 900 740 L 880 740 L 880 760 L 900 760 L 900 740 z M 880 740 L 880 720 L 860 720 L 860 740 L 880 740 z M 860 720 L 860 700 L 840 700 L 840 720 L 860 720 z M 840 700 L 840 680 L 820 680 L 820 700 L 840 700 z M 820 680 L 820 660 L 800 660 L 800 680 L 820 680 z M 800 660 L 800 640 L 780 640 L 780 660 L 800 660 z M 780 640 L 780 620 L 760 620 L 760 640 L 780 640 z M 760 620 L 760 600 L 740 600 L 740 620 L 760 620 z M 740 600 L 740 580 L 720 580 L 720 600 L 740 600 z M 720 580 L 720 560 L 700 560 L 700 580 L 720 580 z M 700 560 L 700 540 L 680 540 L 680 560 L 700 560 z M 680 540 L 680 520 L 660 520 L 660 540 L 680 540 z M 660 520 L 660 500 L 640 500 L 640 520 L 660 520 z M 640 500 L 640 480 L 620 480 L 620 500 L 640 500 z M 620 480 L 620 460 L 600 460 L 600 480 L 620 480 z M 600 420 L 600 400 L 580 400 L 580 420 L 600 420 z M 580 420 L 560 420 L 560 440 L 580 440 L 580 420 z M 560 420 L 560 400 L 540 400 L 540 420 L 560 420 z M 540 420 L 520 420 L 520 440 L 540 440 L 540 420 z M 520 420 L 520 400 L 500 400 L 500 420 L 520 420 z M 500 400 L 500 380 L 480 380 L 480 400 L 500 400 z M 480 400 L 460 400 L 460 420 L 480 420 L 480 400 z M 460 400 L 460 380 L 440 380 L 440 400 L 460 400 z M 460 380 L 480 380 L 480 360 L 460 360 L 460 380 z M 480 360 L 500 360 L 500 340 L 480 340 L 480 360 z M 500 340 L 520 340 L 520 320 L 500 320 L 500 340 z M 520 320 L 540 320 L 540 300 L 520 300 L 520 320 z M 540 300 L 560 300 L 560 280 L 540 280 L 540 300 z M 560 280 L 580 280 L 580 260 L 560 260 L 560 280 z M 580 260 L 600 260 L 600 240 L 580 240 L 580 260 z M 580 240 L 580 220 L 560 220 L 560 240 L 580 240 z M 560 220 L 560 200 L 540 200 L 540 220 L 560 220 z M 560 200 L 580 200 L 580 180 L 560 180 L 560 200 z M 580 200 L 580 220 L 600 220 L 600 200 L 580 200 z M 600 220 L 600 240 L 620 240 L 620 220 L 600 220 z M 600 260 L 600 280 L 620 280 L 620 260 L 600 260 z M 600 280 L 580 280 L 580 300 L 600 300 L 600 280 z M 600 300 L 600 320 L 620 320 L 620 300 L 600 300 z M 600 320 L 580 320 L 580 340 L 600 340 L 600 320 z M 600 340 L 600 360 L 620 360 L 620 340 L 600 340 z M 600 360 L 580 360 L 580 380 L 600 380 L 600 360 z M 600 380 L 600 400 L 620 400 L 620 380 L 600 380 z M 580 380 L 560 380 L 560 400 L 580 400 L 580 380 z M 560 380 L 560 360 L 540 360 L 540 380 L 560 380 z M 540 380 L 520 380 L 520 400 L 540 400 L 540 380 z M 520 380 L 520 360 L 500 360 L 500 380 L 520 380 z M 520 360 L 540 360 L 540 340 L 520 340 L 520 360 z M 540 340 L 560 340 L 560 320 L 540 320 L 540 340 z M 560 320 L 580 320 L 580 300 L 560 300 L 560 320 z M 560 340 L 560 360 L 580 360 L 580 340 L 560 340 z M 360 180 L 360 200 L 380 200 L 380 180 L 360 180 z M 420 180 L 420 200 L 400 200 L 400 220 L 400 240 L 420 240 L 440 240 L 460 240 L 460 220 L 460 200 L 460 180 L 440 180 L 420 180 z M 220 200 L 220 220 L 240 220 L 240 200 L 220 200 z M 240 360 L 240 380 L 240 400 L 240 420 L 240 440 L 260 440 L 260 460 L 280 460 L 280 480 L 300 480 L 300 500 L 320 500 L 320 520 L 340 520 L 340 540 L 360 540 L 360 560 L 340 560 L 340 580 L 320 580 L 320 600 L 320 620 L 340 620 L 340 640 L 340 660 L 360 660 L 360 680 L 360 700 L 360 720 L 340 720 L 340 740 L 320 740 L 320 760 L 320 780 L 340 780 L 340 800 L 360 800 L 360 820 L 380 820 L 380 840 L 380 860 L 380 880 L 380 900 L 360 900 L 360 920 L 380 920 L 400 920 L 420 920 L 440 920 L 460 920 L 460 900 L 480 900 L 480 880 L 480 860 L 480 840 L 480 820 L 480 800 L 480 780 L 480 760 L 480 740 L 480 720 L 480 700 L 480 680 L 480 660 L 480 640 L 480 620 L 480 600 L 480 580 L 480 560 L 480 540 L 460 540 L 460 560 L 440 560 L 440 580 L 440 600 L 440 620 L 440 640 L 440 660 L 440 680 L 440 700 L 440 720 L 440 740 L 440 760 L 440 780 L 440 800 L 440 820 L 440 840 L 440 860 L 440 880 L 420 880 L 400 880 L 400 860 L 400 840 L 400 820 L 400 800 L 400 780 L 400 760 L 400 740 L 400 720 L 400 700 L 400 680 L 400 660 L 400 640 L 400 620 L 400 600 L 400 580 L 420 580 L 420 560 L 400 560 L 400 540 L 380 540 L 380 520 L 360 520 L 360 500 L 340 500 L 340 480 L 340 460 L 320 460 L 320 440 L 300 440 L 300 420 L 280 420 L 280 400 L 260 400 L 260 380 L 260 360 L 240 360 z M 380 520 L 400 520 L 400 500 L 380 500 L 380 520 z M 400 520 L 400 540 L 420 540 L 420 520 L 400 520 z M 460 540 L 460 520 L 440 520 L 440 540 L 460 540 z M 480 540 L 500 540 L 500 520 L 480 520 L 480 540 z M 340 660 L 320 660 L 320 640 L 300 640 L 300 620 L 280 620 L 280 640 L 280 660 L 280 680 L 280 700 L 280 720 L 280 740 L 300 740 L 300 720 L 320 720 L 320 700 L 340 700 L 340 680 L 340 660 z M 280 520 L 280 540 L 280 560 L 280 580 L 300 580 L 300 560 L 320 560 L 320 540 L 300 540 L 300 520 L 280 520 z "
     id="rect2488" />
  <path
     style="fill:#808080"
     d="M 280 20 L 280 40 L 300 40 L 320 40 L 340 40 L 360 40 L 360 60 L 380 60 L 380 80 L 400 80 L 400 100 L 400 120 L 400 140 L 420 140 L 420 120 L 420 100 L 420 80 L 420 60 L 400 60 L 400 40 L 380 40 L 380 20 L 360 20 L 340 20 L 320 20 L 300 20 L 280 20 z M 380 80 L 360 80 L 340 80 L 340 100 L 360 100 L 380 100 L 380 80 z M 340 100 L 320 100 L 320 120 L 340 120 L 340 100 z M 320 120 L 300 120 L 300 140 L 320 140 L 320 120 z M 340 80 L 340 60 L 320 60 L 300 60 L 280 60 L 280 40 L 260 40 L 260 60 L 240 60 L 240 80 L 240 100 L 240 120 L 240 140 L 240 160 L 240 180 L 240 200 L 260 200 L 260 180 L 260 160 L 280 160 L 280 140 L 260 140 L 260 120 L 260 100 L 260 80 L 280 80 L 300 80 L 320 80 L 340 80 z M 120 60 L 120 80 L 140 80 L 160 80 L 180 80 L 200 80 L 220 80 L 220 60 L 200 60 L 180 60 L 160 60 L 140 60 L 120 60 z M 120 80 L 100 80 L 100 100 L 120 100 L 120 80 z M 100 100 L 80 100 L 80 120 L 100 120 L 100 100 z M 80 120 L 60 120 L 60 140 L 80 140 L 80 120 z M 60 140 L 40 140 L 40 160 L 60 160 L 60 140 z M 40 160 L 20 160 L 20 180 L 40 180 L 40 160 z M 20 180 L 0 180 L 0 200 L 0 220 L 0 240 L 0 260 L 0 280 L 0 300 L 0 320 L 0 340 L 20 340 L 20 320 L 20 300 L 20 280 L 20 260 L 20 240 L 20 220 L 20 200 L 20 180 z M 20 340 L 20 360 L 40 360 L 40 340 L 20 340 z M 40 360 L 40 380 L 60 380 L 60 360 L 40 360 z M 60 380 L 60 400 L 80 400 L 80 380 L 60 380 z M 80 400 L 80 420 L 100 420 L 100 400 L 80 400 z M 100 420 L 100 440 L 120 440 L 120 420 L 100 420 z M 120 440 L 120 460 L 140 460 L 140 440 L 120 440 z M 140 460 L 140 480 L 160 480 L 160 460 L 140 460 z M 160 480 L 160 500 L 180 500 L 180 480 L 160 480 z M 160 500 L 140 500 L 140 520 L 160 520 L 160 500 z M 140 520 L 120 520 L 120 540 L 120 560 L 140 560 L 140 540 L 140 520 z M 140 560 L 140 580 L 160 580 L 160 560 L 140 560 z M 440 60 L 440 80 L 460 80 L 480 80 L 480 60 L 460 60 L 440 60 z M 200 140 L 200 160 L 180 160 L 180 180 L 180 200 L 180 220 L 180 240 L 200 240 L 200 260 L 200 280 L 200 300 L 200 320 L 200 340 L 200 360 L 200 380 L 200 400 L 200 420 L 200 440 L 220 440 L 220 420 L 220 400 L 220 380 L 220 360 L 220 340 L 220 320 L 220 300 L 220 280 L 220 260 L 220 240 L 220 220 L 220 200 L 220 180 L 220 160 L 220 140 L 200 140 z M 220 440 L 220 460 L 240 460 L 240 440 L 220 440 z M 240 460 L 240 480 L 240 500 L 240 520 L 240 540 L 240 560 L 240 580 L 240 600 L 240 620 L 240 640 L 240 660 L 240 680 L 240 700 L 240 720 L 240 740 L 240 760 L 240 780 L 240 800 L 240 820 L 260 820 L 260 800 L 260 780 L 260 760 L 260 740 L 260 720 L 260 700 L 260 680 L 260 660 L 260 640 L 260 620 L 260 600 L 260 580 L 260 560 L 260 540 L 260 520 L 260 500 L 280 500 L 280 480 L 260 480 L 260 460 L 240 460 z M 280 500 L 280 520 L 300 520 L 300 500 L 280 500 z M 300 520 L 300 540 L 320 540 L 320 520 L 300 520 z M 320 540 L 320 560 L 340 560 L 340 540 L 320 540 z M 320 560 L 300 560 L 300 580 L 320 580 L 320 560 z M 300 580 L 280 580 L 280 600 L 280 620 L 300 620 L 300 600 L 300 580 z M 300 620 L 300 640 L 320 640 L 320 620 L 300 620 z M 380 160 L 380 180 L 380 200 L 400 200 L 400 180 L 400 160 L 380 160 z M 380 200 L 360 200 L 360 220 L 380 220 L 380 200 z M 380 220 L 380 240 L 380 260 L 400 260 L 420 260 L 440 260 L 440 240 L 420 240 L 400 240 L 400 220 L 380 220 z M 420 160 L 420 180 L 440 180 L 440 160 L 420 160 z M 620 420 L 620 440 L 640 440 L 640 420 L 620 420 z M 640 440 L 640 460 L 660 460 L 660 440 L 640 440 z M 660 460 L 660 480 L 680 480 L 680 460 L 660 460 z M 680 480 L 680 500 L 700 500 L 700 480 L 680 480 z M 700 500 L 700 520 L 720 520 L 720 500 L 700 500 z M 720 520 L 720 540 L 740 540 L 740 520 L 720 520 z M 740 540 L 740 560 L 760 560 L 760 540 L 740 540 z M 760 560 L 760 580 L 780 580 L 780 560 L 760 560 z M 780 580 L 780 600 L 800 600 L 800 580 L 780 580 z M 800 600 L 800 620 L 820 620 L 820 600 L 800 600 z M 820 620 L 820 640 L 840 640 L 840 620 L 820 620 z M 840 640 L 840 660 L 860 660 L 860 640 L 840 640 z M 860 660 L 860 680 L 880 680 L 880 660 L 860 660 z M 880 680 L 880 700 L 900 700 L 900 680 L 880 680 z M 900 700 L 900 720 L 920 720 L 920 700 L 900 700 z M 920 720 L 920 740 L 920 760 L 940 760 L 940 740 L 940 720 L 920 720 z M 500 520 L 500 540 L 520 540 L 520 520 L 500 520 z M 500 540 L 480 540 L 480 560 L 480 580 L 480 600 L 480 620 L 480 640 L 480 660 L 480 680 L 480 700 L 480 720 L 480 740 L 480 760 L 480 780 L 480 800 L 480 820 L 480 840 L 480 860 L 480 880 L 480 900 L 500 900 L 500 880 L 500 860 L 500 840 L 500 820 L 500 800 L 500 780 L 500 760 L 500 740 L 500 720 L 500 700 L 500 680 L 500 660 L 500 640 L 500 620 L 500 600 L 500 580 L 500 560 L 500 540 z M 480 900 L 460 900 L 460 920 L 480 920 L 480 900 z M 460 920 L 440 920 L 420 920 L 400 920 L 400 940 L 420 940 L 440 940 L 460 940 L 460 920 z M 400 580 L 400 600 L 400 620 L 400 640 L 400 660 L 400 680 L 400 700 L 400 720 L 400 740 L 400 760 L 400 780 L 400 800 L 400 820 L 400 840 L 400 860 L 400 880 L 420 880 L 420 860 L 420 840 L 420 820 L 420 800 L 420 780 L 420 760 L 420 740 L 420 720 L 420 700 L 420 680 L 420 660 L 420 640 L 420 620 L 420 600 L 420 580 L 400 580 z M 160 640 L 160 660 L 180 660 L 180 640 L 160 640 z M 160 660 L 140 660 L 140 680 L 160 680 L 160 660 z M 140 680 L 120 680 L 120 700 L 120 720 L 140 720 L 140 700 L 140 680 z M 140 720 L 140 740 L 160 740 L 160 720 L 140 720 z M 680 640 L 680 660 L 700 660 L 700 640 L 680 640 z M 320 700 L 320 720 L 340 720 L 340 700 L 320 700 z M 320 720 L 300 720 L 300 740 L 320 740 L 320 720 z M 300 740 L 280 740 L 280 760 L 280 780 L 300 780 L 300 760 L 300 740 z M 300 780 L 300 800 L 320 800 L 320 780 L 300 780 z M 740 700 L 740 720 L 760 720 L 760 700 L 740 700 z M 780 740 L 780 760 L 800 760 L 800 740 L 780 740 z M 840 760 L 840 780 L 840 800 L 860 800 L 860 780 L 860 760 L 840 760 z M 860 800 L 860 820 L 880 820 L 880 800 L 860 800 z M 160 800 L 160 820 L 160 840 L 160 860 L 180 860 L 180 840 L 180 820 L 180 800 L 160 800 z M 320 820 L 320 840 L 340 840 L 340 820 L 320 820 z M 340 840 L 340 860 L 340 880 L 340 900 L 340 920 L 360 920 L 360 900 L 360 880 L 360 860 L 360 840 L 340 840 z M 320 840 L 300 840 L 300 860 L 320 860 L 320 840 z M 300 860 L 280 860 L 280 880 L 300 880 L 300 860 z M 280 880 L 260 880 L 240 880 L 240 900 L 260 900 L 280 900 L 280 880 z "
     id="rect2502" />
  <path
     style="fill:#000000"
     d="M 280 0 L 280 20 L 300 20 L 320 20 L 340 20 L 360 20 L 380 20 L 380 0 L 360 0 L 340 0 L 320 0 L 300 0 L 280 0 z M 380 20 L 380 40 L 400 40 L 400 20 L 380 20 z M 400 40 L 400 60 L 420 60 L 420 40 L 400 40 z M 420 60 L 420 80 L 420 100 L 420 120 L 420 140 L 400 140 L 380 140 L 380 160 L 400 160 L 400 180 L 400 200 L 420 200 L 420 180 L 420 160 L 440 160 L 440 180 L 460 180 L 460 200 L 460 220 L 460 240 L 480 240 L 480 220 L 480 200 L 480 180 L 480 160 L 460 160 L 460 140 L 440 140 L 440 120 L 440 100 L 440 80 L 440 60 L 420 60 z M 460 240 L 440 240 L 440 260 L 460 260 L 460 240 z M 440 260 L 420 260 L 400 260 L 380 260 L 380 280 L 400 280 L 420 280 L 440 280 L 440 260 z M 380 260 L 380 240 L 380 220 L 360 220 L 360 200 L 360 180 L 340 180 L 340 200 L 340 220 L 340 240 L 360 240 L 360 260 L 380 260 z M 360 180 L 380 180 L 380 160 L 360 160 L 360 180 z M 380 220 L 400 220 L 400 200 L 380 200 L 380 220 z M 280 20 L 260 20 L 260 40 L 280 40 L 280 20 z M 260 40 L 240 40 L 240 60 L 260 60 L 260 40 z M 240 60 L 220 60 L 220 80 L 220 100 L 220 120 L 200 120 L 200 140 L 220 140 L 220 160 L 220 180 L 220 200 L 240 200 L 240 180 L 240 160 L 240 140 L 240 120 L 240 100 L 240 80 L 240 60 z M 200 140 L 180 140 L 180 160 L 200 160 L 200 140 z M 180 160 L 160 160 L 160 180 L 160 200 L 160 220 L 160 240 L 160 260 L 180 260 L 180 280 L 200 280 L 200 260 L 200 240 L 180 240 L 180 220 L 180 200 L 180 180 L 180 160 z M 480 60 L 480 80 L 500 80 L 500 60 L 480 60 z M 500 80 L 500 100 L 520 100 L 540 100 L 540 80 L 520 80 L 500 80 z M 540 100 L 540 120 L 560 120 L 580 120 L 580 100 L 560 100 L 540 100 z M 580 120 L 580 140 L 600 140 L 600 120 L 580 120 z M 600 140 L 600 160 L 620 160 L 620 140 L 600 140 z M 620 160 L 620 180 L 640 180 L 640 160 L 620 160 z M 640 180 L 640 200 L 660 200 L 660 180 L 640 180 z M 660 200 L 660 220 L 660 240 L 680 240 L 680 220 L 680 200 L 660 200 z M 680 240 L 680 260 L 680 280 L 680 300 L 680 320 L 680 340 L 680 360 L 680 380 L 680 400 L 680 420 L 700 420 L 700 400 L 700 380 L 700 360 L 700 340 L 700 320 L 700 300 L 700 280 L 700 260 L 700 240 L 680 240 z M 700 420 L 700 440 L 720 440 L 720 420 L 700 420 z M 720 440 L 720 460 L 740 460 L 740 440 L 720 440 z M 740 460 L 740 480 L 760 480 L 760 460 L 740 460 z M 760 480 L 760 500 L 780 500 L 780 480 L 760 480 z M 780 500 L 780 520 L 800 520 L 800 500 L 780 500 z M 800 520 L 800 540 L 820 540 L 820 520 L 800 520 z M 820 540 L 820 560 L 840 560 L 840 540 L 820 540 z M 840 560 L 840 580 L 860 580 L 860 560 L 840 560 z M 860 580 L 860 600 L 880 600 L 880 580 L 860 580 z M 880 600 L 880 620 L 900 620 L 900 600 L 880 600 z M 900 620 L 900 640 L 920 640 L 920 620 L 900 620 z M 920 640 L 920 660 L 940 660 L 940 640 L 920 640 z M 940 660 L 940 680 L 940 700 L 920 700 L 920 720 L 940 720 L 940 740 L 940 760 L 940 780 L 940 800 L 960 800 L 960 780 L 960 760 L 960 740 L 960 720 L 960 700 L 960 680 L 960 660 L 940 660 z M 940 800 L 920 800 L 900 800 L 880 800 L 880 820 L 900 820 L 920 820 L 940 820 L 940 800 z M 920 700 L 920 680 L 900 680 L 900 700 L 920 700 z M 900 680 L 900 660 L 880 660 L 880 680 L 900 680 z M 880 660 L 880 640 L 860 640 L 860 660 L 880 660 z M 860 640 L 860 620 L 840 620 L 840 640 L 860 640 z M 840 620 L 840 600 L 820 600 L 820 620 L 840 620 z M 820 600 L 820 580 L 800 580 L 800 600 L 820 600 z M 800 580 L 800 560 L 780 560 L 780 580 L 800 580 z M 780 560 L 780 540 L 760 540 L 760 560 L 780 560 z M 760 540 L 760 520 L 740 520 L 740 540 L 760 540 z M 740 520 L 740 500 L 720 500 L 720 520 L 740 520 z M 720 500 L 720 480 L 700 480 L 700 500 L 720 500 z M 700 480 L 700 460 L 680 460 L 680 480 L 700 480 z M 680 460 L 680 440 L 660 440 L 660 460 L 680 460 z M 660 440 L 660 420 L 640 420 L 640 440 L 660 440 z M 520 220 L 520 240 L 540 240 L 540 220 L 520 220 z M 540 240 L 540 260 L 560 260 L 560 240 L 540 240 z M 540 260 L 520 260 L 520 280 L 540 280 L 540 260 z M 520 280 L 500 280 L 500 300 L 520 300 L 520 280 z M 500 300 L 480 300 L 480 320 L 500 320 L 500 300 z M 480 320 L 460 320 L 460 340 L 480 340 L 480 320 z M 460 340 L 440 340 L 440 360 L 460 360 L 460 340 z M 440 360 L 420 360 L 420 380 L 440 380 L 440 360 z M 420 360 L 420 340 L 400 340 L 400 360 L 420 360 z M 420 340 L 440 340 L 440 320 L 420 320 L 420 340 z M 440 320 L 460 320 L 460 300 L 440 300 L 440 320 z M 460 300 L 480 300 L 480 280 L 460 280 L 460 300 z M 480 280 L 500 280 L 500 260 L 480 260 L 480 280 z M 500 260 L 520 260 L 520 240 L 500 240 L 500 260 z M 520 520 L 520 540 L 540 540 L 540 520 L 520 520 z M 520 540 L 500 540 L 500 560 L 500 580 L 500 600 L 500 620 L 500 640 L 500 660 L 500 680 L 500 700 L 500 720 L 500 740 L 500 760 L 500 780 L 500 800 L 500 820 L 500 840 L 500 860 L 500 880 L 500 900 L 520 900 L 520 880 L 520 860 L 520 840 L 520 820 L 520 800 L 520 780 L 520 760 L 520 740 L 520 720 L 520 700 L 520 680 L 520 660 L 520 640 L 520 620 L 520 600 L 520 580 L 520 560 L 520 540 z M 500 900 L 480 900 L 480 920 L 500 920 L 500 900 z M 480 920 L 460 920 L 460 940 L 480 940 L 480 920 z M 460 940 L 440 940 L 420 940 L 400 940 L 400 960 L 420 960 L 440 960 L 460 960 L 460 940 z M 400 940 L 400 920 L 380 920 L 360 920 L 360 940 L 380 940 L 400 940 z M 600 540 L 600 560 L 620 560 L 640 560 L 640 540 L 620 540 L 600 540 z M 160 580 L 160 600 L 180 600 L 180 580 L 160 580 z M 180 600 L 180 620 L 180 640 L 200 640 L 200 620 L 200 600 L 180 600 z M 320 640 L 320 660 L 340 660 L 340 640 L 320 640 z M 340 660 L 340 680 L 340 700 L 360 700 L 360 680 L 360 660 L 340 660 z M 700 640 L 700 660 L 720 660 L 740 660 L 760 660 L 760 640 L 740 640 L 720 640 L 700 640 z M 160 740 L 160 760 L 180 760 L 180 740 L 160 740 z M 180 760 L 180 780 L 180 800 L 200 800 L 200 780 L 200 760 L 180 760 z M 800 740 L 800 760 L 820 760 L 840 760 L 860 760 L 860 740 L 840 740 L 820 740 L 800 740 z M 320 800 L 320 820 L 340 820 L 340 800 L 320 800 z M 340 820 L 340 840 L 360 840 L 360 820 L 340 820 z M 340 840 L 320 840 L 320 860 L 340 860 L 340 840 z M 320 860 L 300 860 L 300 880 L 320 880 L 320 860 z M 300 880 L 280 880 L 280 900 L 300 900 L 300 880 z M 280 900 L 260 900 L 240 900 L 220 900 L 220 920 L 240 920 L 260 920 L 280 920 L 280 900 z M 220 900 L 220 880 L 200 880 L 200 900 L 220 900 z M 200 880 L 200 860 L 180 860 L 180 880 L 200 880 z "
     id="rect2510" />
</svg>
