<?xml version="1.0" encoding="UTF-8" standalone="no"?>
<svg
   xmlns:dc="http://purl.org/dc/elements/1.1/"
   xmlns:cc="http://creativecommons.org/ns#"
   xmlns:rdf="http://www.w3.org/1999/02/22-rdf-syntax-ns#"
   xmlns:svg="http://www.w3.org/2000/svg"
   xmlns="http://www.w3.org/2000/svg"
   xmlns:sodipodi="http://sodipodi.sourceforge.net/DTD/sodipodi-0.dtd"
   xmlns:inkscape="http://www.inkscape.org/namespaces/inkscape"
   id="svg1108"
   width="960px"
   version="1.1"
   height="960px"
   sodipodi:docname="chicago95_tmp_file.svg"
   inkscape:version="0.92.5 (2060ec1f9f, 2020-04-08)">
  <sodipodi:namedview
     pagecolor="#ffffff"
     bordercolor="#666666"
     borderopacity="1"
     objecttolerance="10"
     gridtolerance="10"
     guidetolerance="10"
     inkscape:pageopacity="0"
     inkscape:pageshadow="2"
     inkscape:window-width="462"
     inkscape:window-height="485"
     id="namedview557"
     showgrid="false"
     inkscape:zoom="0.24583333"
     inkscape:cx="479.99982"
     inkscape:cy="479.99982"
     inkscape:window-x="0"
     inkscape:window-y="0"
     inkscape:window-maximized="0"
     inkscape:current-layer="svg1108" />
  <metadata
     id="metadata1112">
    <rdf:RDF>
      <cc:Work
         rdf:about="">
        <dc:format>image/svg+xml</dc:format>
        <dc:type
           rdf:resource="http://purl.org/dc/dcmitype/StillImage" />
      </cc:Work>
    </rdf:RDF>
  </metadata>
  <defs
     id="defs2" />
  <path
     style="fill:#00ff00"
     d="M 480 280 L 480 301 L 500 301 L 500 321 L 520 321 L 521 321 L 541 321 L 541 300 L 521 300 L 521 280 L 501 280 L 500 280 L 480 280 z "
     id="rect148" />
  <path
     style="fill:#009933"
     d="M 480 260 L 480 281 L 500 281 L 501 281 L 520 281 L 520 301 L 540 301 L 540 321 L 561 321 L 561 300 L 541 300 L 541 281 L 541 280 L 541 260 L 521 260 L 520 260 L 501 260 L 500 260 L 480 260 z M 480 300 L 480 321 L 501 321 L 501 300 L 480 300 z "
     id="rect150" />
  <path
     style="fill:#006633"
     d="M 460 280 L 460 301 L 481 301 L 481 280 L 460 280 z M 540 280 L 540 301 L 561 301 L 561 280 L 540 280 z M 500 320 L 500 341 L 520 341 L 521 341 L 541 341 L 541 320 L 521 320 L 520 320 L 500 320 z "
     id="rect184" />
  <path
     style="fill:#a50021"
     d="M 440 300 L 440 320 L 420 320 L 420 341 L 441 341 L 441 321 L 460 321 L 460 341 L 480 341 L 480 361 L 501 361 L 501 340 L 481 340 L 481 320 L 461 320 L 461 300 L 440 300 z M 420 360 L 420 381 L 441 381 L 441 360 L 420 360 z "
     id="rect252" />
  <path
     style="fill:#cc0033"
     d="M 440 320 L 440 340 L 420 340 L 420 361 L 441 361 L 441 341 L 461 341 L 461 320 L 440 320 z M 480 360 L 480 380 L 461 380 L 460 380 L 440 380 L 440 401 L 460 401 L 461 401 L 481 401 L 481 381 L 501 381 L 501 360 L 480 360 z "
     id="rect296" />
  <path
     style="fill:#ff0000"
     d="M 440 340 L 440 360 L 440 361 L 440 381 L 460 381 L 461 381 L 481 381 L 481 361 L 481 360 L 481 340 L 461 340 L 460 340 L 440 340 z M 420 420 L 420 440 L 420 441 L 420 460 L 400 460 L 400 481 L 421 481 L 421 461 L 441 461 L 441 441 L 441 440 L 441 420 L 420 420 z "
     id="rect438" />
  <path
     style="fill:#000080"
     d="M 520 380 L 520 401 L 540 401 L 540 421 L 561 421 L 561 400 L 541 400 L 541 380 L 520 380 z M 500 460 L 500 481 L 521 481 L 521 460 L 500 460 z "
     id="rect448" />
  <path
     style="fill:#0000ff"
     d="M 400 380 L 400 400 L 400 401 L 400 420 L 380 420 L 380 441 L 401 441 L 401 421 L 421 421 L 421 401 L 421 400 L 421 380 L 400 380 z M 500 380 L 500 400 L 480 400 L 480 420 L 480 421 L 480 441 L 500 441 L 500 461 L 520 461 L 521 461 L 541 461 L 541 441 L 541 440 L 541 421 L 541 420 L 541 400 L 521 400 L 521 380 L 500 380 z M 460 460 L 460 480 L 440 480 L 440 501 L 461 501 L 461 481 L 481 481 L 481 460 L 460 460 z "
     id="rect476" />
  <path
     style="fill:#f8f8f8"
     d="M 480 180 L 480 200 L 460 200 L 460 220 L 440 220 L 440 240 L 420 240 L 420 260 L 400 260 L 400 280 L 380 280 L 380 300 L 360 300 L 360 320 L 340 320 L 340 340 L 340 341 L 340 360 L 340 361 L 340 380 L 340 381 L 340 400 L 340 401 L 340 420 L 340 421 L 340 440 L 340 441 L 340 461 L 361 461 L 361 441 L 380 441 L 380 461 L 400 461 L 401 461 L 421 461 L 421 440 L 401 440 L 400 440 L 381 440 L 381 421 L 401 421 L 401 401 L 401 400 L 401 381 L 401 380 L 401 361 L 401 360 L 401 341 L 401 340 L 401 321 L 401 320 L 401 301 L 421 301 L 421 281 L 421 280 L 421 261 L 441 261 L 441 241 L 460 241 L 461 241 L 480 241 L 481 241 L 500 241 L 501 241 L 520 241 L 521 241 L 540 241 L 540 261 L 560 261 L 560 281 L 580 281 L 580 301 L 600 301 L 600 321 L 620 321 L 620 341 L 640 341 L 640 361 L 660 361 L 660 380 L 640 380 L 640 400 L 620 400 L 620 420 L 601 420 L 600 420 L 580 420 L 580 440 L 580 441 L 580 460 L 560 460 L 560 480 L 540 480 L 540 500 L 521 500 L 520 500 L 501 500 L 501 480 L 480 480 L 480 500 L 461 500 L 460 500 L 441 500 L 441 481 L 461 481 L 461 461 L 461 460 L 461 440 L 440 440 L 440 460 L 440 461 L 440 480 L 421 480 L 420 480 L 400 480 L 400 501 L 420 501 L 421 501 L 440 501 L 440 521 L 460 521 L 461 521 L 480 521 L 481 521 L 500 521 L 501 521 L 520 521 L 521 521 L 540 521 L 541 521 L 561 521 L 561 501 L 581 501 L 581 481 L 601 481 L 601 461 L 621 461 L 621 441 L 641 441 L 641 421 L 661 421 L 661 401 L 681 401 L 681 381 L 681 380 L 681 361 L 681 360 L 681 340 L 661 340 L 661 320 L 641 320 L 641 300 L 621 300 L 621 280 L 601 280 L 601 260 L 581 260 L 581 240 L 561 240 L 561 220 L 541 220 L 541 200 L 521 200 L 521 180 L 501 180 L 500 180 L 480 180 z "
     id="rect522" />
  <path
     style="fill:#b2b2b2"
     d="M 520 180 L 520 201 L 540 201 L 540 221 L 560 221 L 560 241 L 580 241 L 580 261 L 601 261 L 601 240 L 581 240 L 581 220 L 561 220 L 561 200 L 541 200 L 541 180 L 520 180 z M 620 280 L 620 301 L 640 301 L 640 321 L 660 321 L 660 341 L 681 341 L 681 320 L 661 320 L 661 300 L 641 300 L 641 280 L 620 280 z M 660 400 L 660 420 L 640 420 L 640 441 L 661 441 L 661 421 L 681 421 L 681 400 L 660 400 z M 460 440 L 460 461 L 481 461 L 481 440 L 460 440 z M 600 460 L 600 480 L 580 480 L 580 500 L 560 500 L 560 521 L 581 521 L 581 501 L 601 501 L 601 481 L 621 481 L 621 460 L 600 460 z M 500 480 L 500 501 L 521 501 L 521 480 L 500 480 z "
     id="rect524" />
  <path
     style="fill:#c0c0c0"
     d="M 440 240 L 440 260 L 420 260 L 420 281 L 441 281 L 441 261 L 461 261 L 461 240 L 440 240 z M 600 260 L 600 281 L 621 281 L 621 260 L 600 260 z M 680 340 L 680 360 L 680 361 L 680 380 L 680 381 L 680 401 L 701 401 L 701 381 L 701 380 L 701 361 L 701 360 L 701 340 L 680 340 z M 620 380 L 620 400 L 600 400 L 600 421 L 621 421 L 621 401 L 641 401 L 641 380 L 620 380 z M 420 400 L 420 420 L 400 420 L 400 441 L 421 441 L 421 421 L 440 421 L 440 441 L 461 441 L 461 420 L 441 420 L 441 400 L 420 400 z M 360 440 L 360 460 L 340 460 L 340 481 L 360 481 L 361 481 L 380 481 L 381 481 L 401 481 L 401 460 L 381 460 L 381 440 L 360 440 z M 560 440 L 560 460 L 540 460 L 540 481 L 561 481 L 561 461 L 581 461 L 581 440 L 560 440 z M 620 440 L 620 461 L 641 461 L 641 440 L 620 440 z M 420 460 L 420 481 L 441 481 L 441 460 L 420 460 z M 480 460 L 480 480 L 460 480 L 460 501 L 481 501 L 481 481 L 501 481 L 501 460 L 480 460 z M 400 500 L 400 521 L 420 521 L 420 541 L 440 541 L 441 541 L 460 541 L 461 541 L 480 541 L 481 541 L 500 541 L 501 541 L 520 541 L 521 541 L 540 541 L 541 541 L 561 541 L 561 520 L 541 520 L 540 520 L 521 520 L 520 520 L 501 520 L 500 520 L 481 520 L 480 520 L 461 520 L 460 520 L 441 520 L 441 500 L 421 500 L 420 500 L 400 500 z "
     id="rect558" />
  <path
     style="fill:#777777"
     d="M 400 240 L 400 261 L 421 261 L 421 240 L 400 240 z M 300 520 L 300 540 L 280 540 L 280 561 L 301 561 L 301 541 L 321 541 L 321 520 L 300 520 z "
     id="rect568" />
  <path
     style="fill:#868686"
     d="M 480 160 L 480 180 L 460 180 L 460 200 L 440 200 L 440 220 L 420 220 L 420 241 L 441 241 L 441 221 L 461 221 L 461 201 L 481 201 L 481 181 L 500 181 L 501 181 L 521 181 L 521 160 L 501 160 L 500 160 L 480 160 z M 460 240 L 460 261 L 481 261 L 481 240 L 460 240 z M 380 260 L 380 280 L 360 280 L 360 300 L 340 300 L 340 320 L 320 320 L 320 340 L 320 341 L 320 360 L 320 361 L 320 380 L 320 381 L 320 400 L 320 401 L 320 420 L 320 421 L 320 440 L 320 441 L 320 460 L 320 461 L 320 481 L 341 481 L 341 461 L 341 460 L 341 441 L 341 440 L 341 421 L 341 420 L 341 401 L 341 400 L 341 381 L 341 380 L 341 361 L 341 360 L 341 341 L 341 340 L 341 321 L 361 321 L 361 301 L 381 301 L 381 281 L 401 281 L 401 260 L 380 260 z M 400 300 L 400 321 L 421 321 L 421 300 L 400 300 z M 540 360 L 540 381 L 560 381 L 560 401 L 580 401 L 580 420 L 560 420 L 560 440 L 540 440 L 540 461 L 561 461 L 561 441 L 581 441 L 581 421 L 601 421 L 601 401 L 621 401 L 621 380 L 600 380 L 600 400 L 581 400 L 581 380 L 561 380 L 561 360 L 540 360 z M 380 480 L 380 500 L 361 500 L 360 500 L 341 500 L 340 500 L 320 500 L 320 521 L 340 521 L 341 521 L 360 521 L 361 521 L 380 521 L 381 521 L 401 521 L 401 501 L 401 500 L 401 480 L 380 480 z M 280 560 L 280 580 L 280 581 L 280 601 L 300 601 L 300 621 L 320 621 L 321 621 L 341 621 L 341 600 L 321 600 L 320 600 L 301 600 L 301 581 L 301 580 L 301 560 L 280 560 z "
     id="rect690" />
  <path
     style="fill:#ffff00"
     d="M 560 340 L 560 360 L 560 361 L 560 381 L 581 381 L 581 361 L 581 360 L 581 340 L 560 340 z M 240 540 L 240 560 L 220 560 L 220 580 L 200 580 L 200 600 L 200 601 L 200 620 L 200 621 L 200 640 L 200 641 L 200 660 L 200 661 L 200 681 L 221 681 L 221 661 L 221 660 L 221 641 L 221 640 L 221 621 L 221 620 L 221 601 L 241 601 L 241 581 L 261 581 L 261 561 L 261 560 L 261 540 L 240 540 z M 340 540 L 340 560 L 340 561 L 340 581 L 360 581 L 360 601 L 380 601 L 380 621 L 400 621 L 400 640 L 380 640 L 380 661 L 400 661 L 400 681 L 421 681 L 421 661 L 441 661 L 441 641 L 460 641 L 461 641 L 481 641 L 481 621 L 500 621 L 500 641 L 521 641 L 521 621 L 540 621 L 540 641 L 561 641 L 561 621 L 580 621 L 580 641 L 601 641 L 601 621 L 620 621 L 620 641 L 641 641 L 641 621 L 660 621 L 660 641 L 681 641 L 681 621 L 700 621 L 700 641 L 721 641 L 721 621 L 740 621 L 740 641 L 761 641 L 761 620 L 741 620 L 741 600 L 721 600 L 720 600 L 701 600 L 700 600 L 681 600 L 680 600 L 661 600 L 660 600 L 641 600 L 640 600 L 621 600 L 620 600 L 601 600 L 600 600 L 581 600 L 580 600 L 561 600 L 560 600 L 541 600 L 540 600 L 521 600 L 520 600 L 501 600 L 500 600 L 481 600 L 480 600 L 461 600 L 460 600 L 441 600 L 441 580 L 421 580 L 421 560 L 401 560 L 401 540 L 381 540 L 380 540 L 361 540 L 360 540 L 340 540 z M 361 561 L 380 561 L 380 580 L 361 580 L 361 561 z M 381 581 L 400 581 L 400 600 L 381 600 L 381 581 z M 401 601 L 420 601 L 420 620 L 401 620 L 401 601 z M 421 621 L 440 621 L 440 640 L 421 640 L 421 621 z M 401 641 L 420 641 L 420 660 L 401 660 L 401 641 z "
     id="rect870" />
  <path
     style="fill:#808000"
     d="M 620 340 L 620 361 L 641 361 L 641 340 L 620 340 z M 260 500 L 260 520 L 240 520 L 240 540 L 220 540 L 220 560 L 200 560 L 200 580 L 180 580 L 180 600 L 180 601 L 180 620 L 180 621 L 180 640 L 180 641 L 180 660 L 180 661 L 180 680 L 180 681 L 180 700 L 180 701 L 180 721 L 201 721 L 201 701 L 201 700 L 201 681 L 201 680 L 201 661 L 201 660 L 201 641 L 201 640 L 201 621 L 201 620 L 201 601 L 201 600 L 201 581 L 221 581 L 221 561 L 241 561 L 241 541 L 261 541 L 261 521 L 280 521 L 281 521 L 301 521 L 301 500 L 281 500 L 280 500 L 260 500 z M 380 520 L 380 541 L 400 541 L 400 561 L 420 561 L 420 581 L 440 581 L 440 601 L 460 601 L 461 601 L 480 601 L 481 601 L 500 601 L 501 601 L 520 601 L 521 601 L 540 601 L 541 601 L 560 601 L 561 601 L 580 601 L 581 601 L 600 601 L 601 601 L 620 601 L 621 601 L 640 601 L 641 601 L 660 601 L 661 601 L 680 601 L 681 601 L 700 601 L 701 601 L 720 601 L 721 601 L 740 601 L 740 621 L 761 621 L 761 600 L 741 600 L 741 580 L 721 580 L 720 580 L 701 580 L 700 580 L 681 580 L 680 580 L 661 580 L 660 580 L 641 580 L 640 580 L 621 580 L 620 580 L 601 580 L 600 580 L 581 580 L 580 580 L 561 580 L 560 580 L 541 580 L 540 580 L 521 580 L 520 580 L 501 580 L 500 580 L 481 580 L 480 580 L 461 580 L 460 580 L 441 580 L 441 560 L 421 560 L 421 540 L 401 540 L 401 520 L 380 520 z "
     id="rect970" />
  <path
     style="fill:#cccc00"
     d="M 560 320 L 560 340 L 540 340 L 540 361 L 561 361 L 561 341 L 580 341 L 580 360 L 580 361 L 580 381 L 601 381 L 601 361 L 601 360 L 601 341 L 601 340 L 601 320 L 581 320 L 580 320 L 560 320 z M 260 520 L 260 541 L 281 541 L 281 520 L 260 520 z M 340 520 L 340 540 L 320 540 L 320 561 L 341 561 L 341 541 L 360 541 L 361 541 L 381 541 L 381 520 L 361 520 L 360 520 L 340 520 z M 360 560 L 360 581 L 380 581 L 380 601 L 400 601 L 400 620 L 380 620 L 380 641 L 400 641 L 400 660 L 381 660 L 380 660 L 360 660 L 360 680 L 340 680 L 340 700 L 321 700 L 320 700 L 301 700 L 300 700 L 281 700 L 281 680 L 261 680 L 261 660 L 241 660 L 241 641 L 241 640 L 241 621 L 241 620 L 241 601 L 261 601 L 261 580 L 240 580 L 240 600 L 220 600 L 220 620 L 220 621 L 220 640 L 220 641 L 220 660 L 220 661 L 220 680 L 200 680 L 200 701 L 220 701 L 220 721 L 240 721 L 240 741 L 260 741 L 260 761 L 281 761 L 281 741 L 300 741 L 300 761 L 321 761 L 321 741 L 340 741 L 340 761 L 361 761 L 361 741 L 380 741 L 380 761 L 401 761 L 401 741 L 421 741 L 421 721 L 441 721 L 441 701 L 441 700 L 441 681 L 460 681 L 461 681 L 481 681 L 481 661 L 500 661 L 500 681 L 521 681 L 521 661 L 540 661 L 540 681 L 561 681 L 561 661 L 580 661 L 580 681 L 601 681 L 601 661 L 620 661 L 620 681 L 641 681 L 641 661 L 660 661 L 660 681 L 681 681 L 681 661 L 700 661 L 700 681 L 721 681 L 721 661 L 740 661 L 740 681 L 761 681 L 761 661 L 761 660 L 761 640 L 741 640 L 741 620 L 720 620 L 720 640 L 701 640 L 701 620 L 680 620 L 680 640 L 661 640 L 661 620 L 640 620 L 640 640 L 621 640 L 621 620 L 600 620 L 600 640 L 581 640 L 581 620 L 560 620 L 560 640 L 541 640 L 541 620 L 520 620 L 520 640 L 501 640 L 501 620 L 480 620 L 480 640 L 461 640 L 460 640 L 441 640 L 441 620 L 421 620 L 421 600 L 401 600 L 401 580 L 381 580 L 381 560 L 360 560 z M 401 621 L 420 621 L 420 640 L 401 640 L 401 621 z M 421 641 L 440 641 L 440 660 L 421 660 L 421 641 z M 401 661 L 420 661 L 420 680 L 401 680 L 401 661 z M 401 701 L 420 701 L 420 720 L 401 720 L 401 701 z M 261 721 L 280 721 L 280 740 L 261 740 L 261 721 z M 301 721 L 320 721 L 320 740 L 301 740 L 301 721 z M 341 721 L 360 721 L 360 740 L 341 740 L 341 721 z M 381 721 L 400 721 L 400 740 L 381 740 L 381 721 z "
     id="rect1070" />
  <path
     style="fill:#999900"
     d="M 600 340 L 600 361 L 621 361 L 621 340 L 600 340 z M 320 520 L 320 540 L 300 540 L 300 560 L 300 561 L 300 581 L 320 581 L 321 581 L 340 581 L 340 601 L 360 601 L 360 620 L 360 621 L 360 640 L 360 641 L 360 660 L 340 660 L 340 680 L 321 680 L 320 680 L 301 680 L 300 680 L 281 680 L 281 660 L 261 660 L 261 641 L 261 640 L 261 621 L 261 620 L 261 600 L 240 600 L 240 620 L 240 621 L 240 640 L 240 641 L 240 661 L 260 661 L 260 681 L 280 681 L 280 701 L 300 701 L 301 701 L 320 701 L 321 701 L 341 701 L 341 681 L 361 681 L 361 661 L 381 661 L 381 641 L 381 640 L 381 621 L 381 620 L 381 600 L 361 600 L 361 580 L 341 580 L 341 560 L 321 560 L 321 541 L 341 541 L 341 520 L 320 520 z M 760 640 L 760 660 L 760 661 L 760 680 L 741 680 L 741 660 L 720 660 L 720 680 L 701 680 L 701 660 L 680 660 L 680 680 L 661 680 L 661 660 L 640 660 L 640 680 L 621 680 L 621 660 L 600 660 L 600 680 L 581 680 L 581 660 L 560 660 L 560 680 L 541 680 L 541 660 L 520 660 L 520 680 L 501 680 L 501 660 L 480 660 L 480 680 L 461 680 L 460 680 L 440 680 L 440 700 L 440 701 L 440 720 L 421 720 L 421 700 L 400 700 L 400 720 L 380 720 L 380 740 L 361 740 L 361 720 L 340 720 L 340 740 L 321 740 L 321 720 L 300 720 L 300 740 L 281 740 L 281 720 L 260 720 L 260 740 L 241 740 L 241 720 L 221 720 L 221 700 L 200 700 L 200 721 L 220 721 L 220 741 L 240 741 L 240 761 L 260 761 L 260 781 L 280 781 L 281 781 L 300 781 L 301 781 L 320 781 L 321 781 L 340 781 L 341 781 L 360 781 L 361 781 L 380 781 L 381 781 L 401 781 L 401 761 L 421 761 L 421 741 L 441 741 L 441 721 L 461 721 L 461 701 L 480 701 L 481 701 L 500 701 L 501 701 L 521 701 L 521 681 L 540 681 L 540 701 L 560 701 L 560 721 L 581 721 L 581 701 L 601 701 L 601 681 L 620 681 L 620 701 L 640 701 L 640 721 L 661 721 L 661 701 L 681 701 L 681 681 L 700 681 L 700 701 L 720 701 L 720 721 L 741 721 L 741 701 L 761 701 L 761 681 L 781 681 L 781 661 L 781 660 L 781 640 L 760 640 z M 401 721 L 420 721 L 420 740 L 401 740 L 401 721 z M 261 741 L 280 741 L 280 760 L 261 760 L 261 741 z M 301 741 L 320 741 L 320 760 L 301 760 L 301 741 z M 341 741 L 360 741 L 360 760 L 341 760 L 341 741 z M 381 741 L 400 741 L 400 760 L 381 760 L 381 741 z "
     id="rect1090" />
  <path
     style="fill:#080808"
     d="M 500 340 L 500 360 L 500 361 L 500 381 L 520 381 L 521 381 L 540 381 L 540 401 L 561 401 L 561 380 L 541 380 L 541 361 L 541 360 L 541 340 L 521 340 L 520 340 L 500 340 z M 520 680 L 520 700 L 501 700 L 500 700 L 481 700 L 480 700 L 460 700 L 460 720 L 440 720 L 440 740 L 420 740 L 420 760 L 400 760 L 400 781 L 421 781 L 421 761 L 441 761 L 441 741 L 461 741 L 461 721 L 480 721 L 481 721 L 500 721 L 501 721 L 521 721 L 521 701 L 540 701 L 540 721 L 561 721 L 561 700 L 541 700 L 541 680 L 520 680 z M 680 680 L 680 701 L 700 701 L 700 721 L 721 721 L 721 700 L 701 700 L 701 680 L 680 680 z "
     id="rect1092" />
  <path
     style="fill:#000000"
     d="M 520 160 L 520 181 L 540 181 L 540 201 L 560 201 L 560 221 L 580 221 L 580 241 L 600 241 L 600 261 L 620 261 L 620 281 L 640 281 L 640 301 L 660 301 L 660 321 L 680 321 L 680 341 L 700 341 L 700 360 L 700 361 L 700 380 L 700 381 L 700 400 L 680 400 L 680 420 L 660 420 L 660 440 L 640 440 L 640 460 L 620 460 L 620 480 L 600 480 L 600 500 L 580 500 L 580 520 L 560 520 L 560 540 L 541 540 L 540 540 L 521 540 L 520 540 L 501 540 L 500 540 L 481 540 L 480 540 L 461 540 L 460 540 L 441 540 L 440 540 L 421 540 L 421 520 L 400 520 L 400 541 L 420 541 L 420 561 L 440 561 L 441 561 L 460 561 L 461 561 L 480 561 L 481 561 L 500 561 L 501 561 L 520 561 L 521 561 L 540 561 L 541 561 L 561 561 L 561 541 L 581 541 L 581 521 L 601 521 L 601 501 L 621 501 L 621 481 L 641 481 L 641 461 L 661 461 L 661 441 L 681 441 L 681 421 L 701 421 L 701 401 L 721 401 L 721 381 L 721 380 L 721 361 L 721 360 L 721 340 L 701 340 L 701 320 L 681 320 L 681 300 L 661 300 L 661 280 L 641 280 L 641 260 L 621 260 L 621 240 L 601 240 L 601 220 L 581 220 L 581 200 L 561 200 L 561 180 L 541 180 L 541 160 L 520 160 z M 480 240 L 480 260 L 461 260 L 460 260 L 440 260 L 440 280 L 420 280 L 420 300 L 420 301 L 420 320 L 400 320 L 400 340 L 400 341 L 400 360 L 400 361 L 400 381 L 420 381 L 420 401 L 440 401 L 440 421 L 460 421 L 460 441 L 480 441 L 480 461 L 501 461 L 501 440 L 481 440 L 481 421 L 481 420 L 481 401 L 501 401 L 501 380 L 480 380 L 480 400 L 461 400 L 460 400 L 441 400 L 441 380 L 421 380 L 421 361 L 421 360 L 421 341 L 421 340 L 421 321 L 441 321 L 441 301 L 460 301 L 460 321 L 480 321 L 480 341 L 501 341 L 501 320 L 481 320 L 481 300 L 461 300 L 461 281 L 481 281 L 481 261 L 500 261 L 501 261 L 520 261 L 521 261 L 540 261 L 540 281 L 560 281 L 560 300 L 560 301 L 560 320 L 540 320 L 540 341 L 561 341 L 561 321 L 580 321 L 581 321 L 600 321 L 600 341 L 621 341 L 621 320 L 601 320 L 601 300 L 581 300 L 581 280 L 561 280 L 561 260 L 541 260 L 541 240 L 521 240 L 520 240 L 501 240 L 500 240 L 480 240 z M 600 360 L 600 380 L 580 380 L 580 400 L 560 400 L 560 420 L 540 420 L 540 441 L 561 441 L 561 421 L 581 421 L 581 401 L 601 401 L 601 381 L 620 381 L 621 381 L 640 381 L 641 381 L 661 381 L 661 360 L 641 360 L 640 360 L 621 360 L 620 360 L 600 360 z M 520 460 L 520 480 L 520 481 L 520 501 L 541 501 L 541 481 L 541 480 L 541 460 L 520 460 z M 300 480 L 300 500 L 300 501 L 300 520 L 280 520 L 280 540 L 260 540 L 260 560 L 260 561 L 260 580 L 260 581 L 260 600 L 260 601 L 260 620 L 260 621 L 260 640 L 260 641 L 260 661 L 280 661 L 280 681 L 300 681 L 301 681 L 320 681 L 321 681 L 341 681 L 341 661 L 361 661 L 361 641 L 361 640 L 361 621 L 361 620 L 361 600 L 341 600 L 341 580 L 321 580 L 320 580 L 300 580 L 300 600 L 281 600 L 281 581 L 281 580 L 281 561 L 281 560 L 281 541 L 301 541 L 301 521 L 321 521 L 321 501 L 340 501 L 341 501 L 360 501 L 361 501 L 381 501 L 381 480 L 361 480 L 360 480 L 341 480 L 340 480 L 321 480 L 320 480 L 300 480 z M 301 601 L 320 601 L 321 601 L 340 601 L 340 620 L 321 620 L 320 620 L 301 620 L 301 601 z M 760 620 L 760 641 L 780 641 L 780 660 L 780 661 L 780 680 L 760 680 L 760 700 L 740 700 L 740 720 L 720 720 L 720 741 L 741 741 L 741 721 L 761 721 L 761 701 L 781 701 L 781 681 L 801 681 L 801 661 L 801 660 L 801 640 L 781 640 L 781 620 L 760 620 z M 281 621 L 300 621 L 300 641 L 320 641 L 321 641 L 340 641 L 340 660 L 321 660 L 320 660 L 301 660 L 300 660 L 281 660 L 281 641 L 281 640 L 281 621 z M 600 680 L 600 700 L 580 700 L 580 720 L 560 720 L 560 741 L 581 741 L 581 721 L 601 721 L 601 701 L 620 701 L 620 721 L 640 721 L 640 741 L 661 741 L 661 721 L 681 721 L 681 700 L 660 700 L 660 720 L 641 720 L 641 700 L 621 700 L 621 680 L 600 680 z M 200 720 L 200 741 L 220 741 L 220 761 L 240 761 L 240 781 L 260 781 L 260 801 L 280 801 L 281 801 L 300 801 L 301 801 L 320 801 L 321 801 L 340 801 L 341 801 L 360 801 L 361 801 L 380 801 L 381 801 L 401 801 L 401 780 L 381 780 L 380 780 L 361 780 L 360 780 L 341 780 L 340 780 L 321 780 L 320 780 L 301 780 L 300 780 L 281 780 L 280 780 L 261 780 L 261 760 L 241 760 L 241 740 L 221 740 L 221 720 L 200 720 z "
     id="rect1106" />
</svg>
