<?xml version="1.0" encoding="UTF-8" standalone="no"?>
<svg
   xmlns:dc="http://purl.org/dc/elements/1.1/"
   xmlns:cc="http://creativecommons.org/ns#"
   xmlns:rdf="http://www.w3.org/1999/02/22-rdf-syntax-ns#"
   xmlns:svg="http://www.w3.org/2000/svg"
   xmlns="http://www.w3.org/2000/svg"
   id="svg3822"
   width="960px"
   version="1.1"
   height="960px">
  <metadata
     id="metadata3826">
    <rdf:RDF>
      <cc:Work
         rdf:about="">
        <dc:format>image/svg+xml</dc:format>
        <dc:type
           rdf:resource="http://purl.org/dc/dcmitype/StillImage" />
      </cc:Work>
    </rdf:RDF>
  </metadata>
  <defs
     id="defs2" />
  <path
     style="fill:#00ff00"
     d="M 660 20 L 660 40 L 660 60 L 640 60 L 640 80 L 620 80 L 620 100 L 620 120 L 600 120 L 600 140 L 600 160 L 600 180 L 600 200 L 620 200 L 620 180 L 620 160 L 640 160 L 640 140 L 660 140 L 660 120 L 660 100 L 680 100 L 680 80 L 680 60 L 680 40 L 680 20 L 660 20 z M 200 220 L 200 240 L 200 260 L 220 260 L 220 240 L 240 240 L 240 220 L 220 220 L 200 220 z M 240 260 L 240 280 L 260 280 L 260 260 L 240 260 z "
     id="rect1154" />
  <path
     style="fill:#800080"
     d="M 660 260 L 660 280 L 640 280 L 620 280 L 620 300 L 640 300 L 660 300 L 680 300 L 700 300 L 700 280 L 700 260 L 680 260 L 660 260 z "
     id="rect1286" />
  <path
     style="fill:#00ffff"
     d="M 200 340 L 200 360 L 200 380 L 220 380 L 220 360 L 240 360 L 240 340 L 220 340 L 200 340 z M 240 380 L 240 400 L 260 400 L 260 380 L 240 380 z "
     id="rect1682" />
  <path
     style="fill:#0000ff"
     d="M 160 180 L 160 200 L 160 220 L 160 240 L 160 260 L 160 280 L 160 300 L 160 320 L 160 340 L 160 360 L 160 380 L 160 400 L 160 420 L 160 440 L 160 460 L 160 480 L 160 500 L 160 520 L 160 540 L 160 560 L 160 580 L 160 600 L 180 600 L 200 600 L 220 600 L 240 600 L 260 600 L 280 600 L 300 600 L 320 600 L 340 600 L 360 600 L 380 600 L 400 600 L 420 600 L 440 600 L 460 600 L 480 600 L 480 580 L 500 580 L 500 560 L 520 560 L 520 540 L 540 540 L 540 520 L 560 520 L 560 500 L 580 500 L 580 480 L 600 480 L 600 460 L 600 440 L 600 420 L 600 400 L 600 380 L 600 360 L 600 340 L 600 320 L 600 300 L 600 280 L 620 280 L 620 260 L 620 240 L 620 220 L 620 200 L 600 200 L 600 180 L 580 180 L 560 180 L 540 180 L 520 180 L 500 180 L 480 180 L 460 180 L 440 180 L 420 180 L 400 180 L 380 180 L 360 180 L 340 180 L 320 180 L 300 180 L 280 180 L 260 180 L 240 180 L 220 180 L 200 180 L 180 180 L 160 180 z M 200 220 L 220 220 L 240 220 L 260 220 L 260 240 L 260 260 L 260 280 L 240 280 L 220 280 L 200 280 L 200 260 L 200 240 L 200 220 z M 200 340 L 220 340 L 240 340 L 260 340 L 260 360 L 260 380 L 260 400 L 240 400 L 220 400 L 200 400 L 200 380 L 200 360 L 200 340 z "
     id="rect2584" />
  <path
     style="fill:#000080"
     d="M 720 220 L 720 240 L 720 260 L 700 260 L 700 280 L 720 280 L 740 280 L 740 260 L 740 240 L 740 220 L 720 220 z M 620 260 L 620 280 L 640 280 L 640 260 L 620 260 z M 620 280 L 600 280 L 600 300 L 620 300 L 620 280 z M 140 600 L 140 620 L 160 620 L 180 620 L 200 620 L 220 620 L 240 620 L 260 620 L 280 620 L 300 620 L 320 620 L 340 620 L 360 620 L 380 620 L 400 620 L 420 620 L 440 620 L 460 620 L 460 600 L 440 600 L 420 600 L 400 600 L 380 600 L 360 600 L 340 600 L 320 600 L 300 600 L 280 600 L 260 600 L 240 600 L 220 600 L 200 600 L 180 600 L 160 600 L 140 600 z "
     id="rect2670" />
  <path
     style="fill:#ffff00"
     d="M 660 120 L 660 140 L 680 140 L 680 120 L 660 120 z M 660 140 L 640 140 L 640 160 L 620 160 L 620 180 L 620 200 L 640 200 L 640 180 L 660 180 L 660 160 L 660 140 z M 760 340 L 760 360 L 740 360 L 740 380 L 720 380 L 720 400 L 700 400 L 700 420 L 680 420 L 680 440 L 660 440 L 660 460 L 640 460 L 640 480 L 620 480 L 620 500 L 600 500 L 600 520 L 580 520 L 580 540 L 560 540 L 560 560 L 540 560 L 540 580 L 520 580 L 520 600 L 500 600 L 500 620 L 480 620 L 480 640 L 460 640 L 460 660 L 440 660 L 440 680 L 420 680 L 420 700 L 400 700 L 400 720 L 380 720 L 380 740 L 400 740 L 400 760 L 420 760 L 420 780 L 440 780 L 460 780 L 460 760 L 480 760 L 480 740 L 480 720 L 480 700 L 500 700 L 500 720 L 520 720 L 520 700 L 540 700 L 540 680 L 540 660 L 520 660 L 520 640 L 520 620 L 540 620 L 540 640 L 560 640 L 560 660 L 580 660 L 580 640 L 600 640 L 600 620 L 600 600 L 600 580 L 620 580 L 620 600 L 640 600 L 640 580 L 660 580 L 660 560 L 660 540 L 640 540 L 640 520 L 640 500 L 660 500 L 660 520 L 680 520 L 680 540 L 700 540 L 700 520 L 720 520 L 720 500 L 720 480 L 720 460 L 740 460 L 740 480 L 760 480 L 760 460 L 780 460 L 780 440 L 780 420 L 760 420 L 760 400 L 760 380 L 780 380 L 780 400 L 800 400 L 800 420 L 820 420 L 820 400 L 840 400 L 840 380 L 820 380 L 820 360 L 800 360 L 800 340 L 780 340 L 760 340 z M 380 740 L 360 740 L 360 760 L 340 760 L 340 780 L 340 800 L 360 800 L 360 820 L 380 820 L 380 840 L 400 840 L 400 820 L 420 820 L 420 800 L 400 800 L 400 780 L 380 780 L 380 760 L 380 740 z "
     id="rect3444" />
  <path
     style="fill:#ff00ff"
     d="M 240 220 L 240 240 L 220 240 L 220 260 L 200 260 L 200 280 L 220 280 L 240 280 L 240 260 L 260 260 L 260 240 L 260 220 L 240 220 z M 640 340 L 640 360 L 640 380 L 640 400 L 640 420 L 660 420 L 660 400 L 660 380 L 660 360 L 660 340 L 640 340 z M 640 640 L 640 660 L 640 680 L 640 700 L 640 720 L 640 740 L 640 760 L 640 780 L 640 800 L 640 820 L 640 840 L 660 840 L 660 820 L 660 800 L 660 780 L 660 760 L 660 740 L 660 720 L 660 700 L 660 680 L 660 660 L 660 640 L 640 640 z "
     id="rect3470" />
  <path
     style="fill:#808000"
     d="M 680 100 L 680 120 L 700 120 L 700 100 L 680 100 z M 680 140 L 680 160 L 700 160 L 700 180 L 700 200 L 720 200 L 720 180 L 720 160 L 720 140 L 700 140 L 680 140 z M 700 200 L 680 200 L 680 220 L 700 220 L 700 200 z M 680 220 L 660 220 L 660 200 L 640 200 L 620 200 L 620 220 L 640 220 L 640 240 L 660 240 L 680 240 L 680 220 z M 660 200 L 680 200 L 680 180 L 660 180 L 660 200 z M 780 280 L 780 300 L 800 300 L 800 280 L 780 280 z M 780 300 L 760 300 L 760 320 L 780 320 L 780 300 z M 760 320 L 740 320 L 740 340 L 760 340 L 760 320 z M 740 340 L 720 340 L 720 360 L 740 360 L 740 340 z M 720 360 L 700 360 L 700 380 L 720 380 L 720 360 z M 700 380 L 680 380 L 680 400 L 700 400 L 700 380 z M 680 400 L 660 400 L 660 420 L 680 420 L 680 400 z M 660 420 L 640 420 L 640 440 L 660 440 L 660 420 z M 640 440 L 620 440 L 620 460 L 640 460 L 640 440 z M 620 460 L 600 460 L 600 480 L 620 480 L 620 460 z M 600 480 L 580 480 L 580 500 L 600 500 L 600 480 z M 580 500 L 560 500 L 560 520 L 580 520 L 580 500 z M 560 520 L 540 520 L 540 540 L 560 540 L 560 520 z M 540 540 L 520 540 L 520 560 L 540 560 L 540 540 z M 520 560 L 500 560 L 500 580 L 520 580 L 520 560 z M 500 580 L 480 580 L 480 600 L 500 600 L 500 580 z M 480 600 L 460 600 L 460 620 L 480 620 L 480 600 z M 460 620 L 440 620 L 440 640 L 460 640 L 460 620 z M 440 640 L 420 640 L 420 660 L 440 660 L 440 640 z M 420 660 L 400 660 L 400 680 L 420 680 L 420 660 z M 400 680 L 380 680 L 380 700 L 400 700 L 400 680 z M 380 700 L 360 700 L 360 720 L 380 720 L 380 700 z M 800 320 L 800 340 L 820 340 L 820 320 L 800 320 z M 820 340 L 820 360 L 840 360 L 840 340 L 820 340 z M 840 360 L 840 380 L 860 380 L 860 360 L 840 360 z M 860 380 L 860 400 L 880 400 L 880 380 L 860 380 z M 860 400 L 840 400 L 840 420 L 860 420 L 860 400 z M 840 420 L 820 420 L 820 440 L 840 440 L 840 420 z M 820 440 L 800 440 L 800 460 L 820 460 L 820 440 z M 800 460 L 780 460 L 780 480 L 800 480 L 800 460 z M 780 480 L 760 480 L 760 500 L 780 500 L 780 480 z M 760 500 L 740 500 L 740 520 L 760 520 L 760 500 z M 740 520 L 720 520 L 720 540 L 740 540 L 740 520 z M 720 540 L 700 540 L 700 560 L 720 560 L 720 540 z M 700 560 L 680 560 L 680 580 L 700 580 L 700 560 z M 680 580 L 660 580 L 660 600 L 680 600 L 680 580 z M 660 600 L 640 600 L 640 620 L 660 620 L 660 600 z M 640 620 L 620 620 L 620 640 L 640 640 L 640 620 z M 620 640 L 600 640 L 600 660 L 620 660 L 620 640 z M 600 660 L 580 660 L 580 680 L 600 680 L 600 660 z M 580 680 L 560 680 L 560 700 L 580 700 L 580 680 z M 560 700 L 540 700 L 540 720 L 560 720 L 560 700 z M 540 720 L 520 720 L 520 740 L 540 740 L 540 720 z M 520 740 L 500 740 L 500 760 L 520 760 L 520 740 z M 500 760 L 480 760 L 480 780 L 500 780 L 500 760 z M 480 780 L 460 780 L 460 800 L 480 800 L 480 780 z M 460 800 L 440 800 L 440 820 L 460 820 L 460 800 z M 440 820 L 420 820 L 420 840 L 440 840 L 440 820 z M 420 840 L 400 840 L 380 840 L 380 860 L 400 860 L 420 860 L 420 840 z M 380 840 L 380 820 L 360 820 L 360 840 L 380 840 z M 360 820 L 360 800 L 340 800 L 340 820 L 360 820 z M 340 800 L 340 780 L 320 780 L 320 800 L 340 800 z M 320 780 L 320 760 L 300 760 L 300 780 L 320 780 z M 320 760 L 340 760 L 340 740 L 320 740 L 320 760 z M 760 380 L 760 400 L 780 400 L 780 380 L 760 380 z M 640 500 L 640 520 L 660 520 L 660 500 L 640 500 z M 520 620 L 520 640 L 540 640 L 540 620 L 520 620 z M 380 740 L 380 760 L 400 760 L 400 740 L 380 740 z "
     id="rect3510" />
  <path
     style="fill:#ff0000"
     d="M 660 320 L 660 340 L 660 360 L 660 380 L 660 400 L 680 400 L 680 380 L 700 380 L 700 360 L 700 340 L 700 320 L 680 320 L 660 320 z M 240 340 L 240 360 L 220 360 L 220 380 L 200 380 L 200 400 L 220 400 L 240 400 L 240 380 L 260 380 L 260 360 L 260 340 L 240 340 z M 680 600 L 680 620 L 660 620 L 660 640 L 660 660 L 660 680 L 660 700 L 660 720 L 660 740 L 660 760 L 660 780 L 660 800 L 660 820 L 660 840 L 640 840 L 620 840 L 620 860 L 640 860 L 660 860 L 680 860 L 700 860 L 700 840 L 700 820 L 700 800 L 700 780 L 700 760 L 700 740 L 700 720 L 700 700 L 700 680 L 700 660 L 700 640 L 700 620 L 700 600 L 680 600 z "
     id="rect3538" />
  <path
     style="fill:#800000"
     d="M 700 280 L 700 300 L 680 300 L 660 300 L 640 300 L 620 300 L 600 300 L 600 320 L 600 340 L 600 360 L 600 380 L 600 400 L 600 420 L 600 440 L 600 460 L 620 460 L 620 440 L 620 420 L 620 400 L 620 380 L 620 360 L 620 340 L 620 320 L 640 320 L 660 320 L 680 320 L 700 320 L 700 340 L 700 360 L 720 360 L 720 340 L 720 320 L 720 300 L 720 280 L 700 280 z M 700 580 L 700 600 L 700 620 L 700 640 L 700 660 L 700 680 L 700 700 L 700 720 L 700 740 L 700 760 L 700 780 L 700 800 L 700 820 L 700 840 L 700 860 L 720 860 L 720 840 L 720 820 L 720 800 L 720 780 L 720 760 L 720 740 L 720 720 L 720 700 L 720 680 L 720 660 L 720 640 L 720 620 L 720 600 L 720 580 L 700 580 z M 700 860 L 680 860 L 660 860 L 640 860 L 620 860 L 620 880 L 640 880 L 660 880 L 680 880 L 700 880 L 700 860 z M 620 860 L 620 840 L 620 820 L 620 800 L 620 780 L 620 760 L 620 740 L 620 720 L 620 700 L 620 680 L 600 680 L 600 700 L 600 720 L 600 740 L 600 760 L 600 780 L 600 800 L 600 820 L 600 840 L 600 860 L 620 860 z "
     id="rect3604" />
  <path
     style="fill:#c0c0c0"
     d="M 100 20 L 100 40 L 80 40 L 80 60 L 60 60 L 60 80 L 80 80 L 100 80 L 120 80 L 140 80 L 160 80 L 180 80 L 200 80 L 220 80 L 240 80 L 260 80 L 280 80 L 300 80 L 320 80 L 340 80 L 360 80 L 380 80 L 400 80 L 420 80 L 440 80 L 460 80 L 480 80 L 500 80 L 520 80 L 540 80 L 560 80 L 580 80 L 600 80 L 620 80 L 640 80 L 640 60 L 660 60 L 660 40 L 660 20 L 640 20 L 620 20 L 600 20 L 580 20 L 560 20 L 540 20 L 520 20 L 500 20 L 480 20 L 460 20 L 440 20 L 420 20 L 400 20 L 380 20 L 360 20 L 340 20 L 320 20 L 300 20 L 280 20 L 260 20 L 240 20 L 220 20 L 200 20 L 180 20 L 160 20 L 140 20 L 120 20 L 100 20 z M 680 20 L 680 40 L 700 40 L 700 60 L 700 80 L 720 80 L 740 80 L 760 80 L 780 80 L 800 80 L 820 80 L 820 60 L 840 60 L 840 40 L 860 40 L 860 20 L 840 20 L 820 20 L 800 20 L 780 20 L 760 20 L 740 20 L 720 20 L 700 20 L 680 20 z M 80 100 L 80 120 L 80 140 L 80 160 L 80 180 L 80 200 L 80 220 L 80 240 L 80 260 L 80 280 L 80 300 L 80 320 L 80 340 L 80 360 L 80 380 L 80 400 L 80 420 L 80 440 L 80 460 L 80 480 L 80 500 L 80 520 L 80 540 L 80 560 L 80 580 L 80 600 L 80 620 L 80 640 L 80 660 L 80 680 L 80 700 L 100 700 L 120 700 L 140 700 L 160 700 L 180 700 L 200 700 L 220 700 L 240 700 L 260 700 L 280 700 L 300 700 L 320 700 L 340 700 L 360 700 L 380 700 L 380 680 L 400 680 L 400 660 L 420 660 L 420 640 L 400 640 L 380 640 L 360 640 L 340 640 L 320 640 L 300 640 L 280 640 L 260 640 L 240 640 L 220 640 L 200 640 L 180 640 L 160 640 L 140 640 L 140 620 L 140 600 L 140 580 L 140 560 L 140 540 L 140 520 L 140 500 L 140 480 L 140 460 L 140 440 L 140 420 L 140 400 L 140 380 L 140 360 L 140 340 L 140 320 L 140 300 L 140 280 L 140 260 L 140 240 L 140 220 L 140 200 L 140 180 L 140 160 L 140 140 L 160 140 L 180 140 L 200 140 L 220 140 L 240 140 L 260 140 L 280 140 L 300 140 L 320 140 L 340 140 L 360 140 L 380 140 L 400 140 L 420 140 L 440 140 L 460 140 L 480 140 L 500 140 L 520 140 L 540 140 L 560 140 L 580 140 L 600 140 L 600 120 L 620 120 L 620 100 L 600 100 L 580 100 L 560 100 L 540 100 L 520 100 L 500 100 L 480 100 L 460 100 L 440 100 L 420 100 L 400 100 L 380 100 L 360 100 L 340 100 L 320 100 L 300 100 L 280 100 L 260 100 L 240 100 L 220 100 L 200 100 L 180 100 L 160 100 L 140 100 L 120 100 L 100 100 L 80 100 z M 660 100 L 660 120 L 680 120 L 680 100 L 660 100 z M 680 120 L 680 140 L 700 140 L 700 120 L 680 120 z M 680 140 L 660 140 L 660 160 L 660 180 L 680 180 L 680 160 L 680 140 z M 660 180 L 640 180 L 640 200 L 660 200 L 660 180 z M 720 100 L 720 120 L 720 140 L 740 140 L 760 140 L 760 160 L 760 180 L 760 200 L 760 220 L 760 240 L 760 260 L 760 280 L 760 300 L 780 300 L 780 280 L 800 280 L 800 300 L 820 300 L 820 280 L 820 260 L 820 240 L 820 220 L 820 200 L 820 180 L 820 160 L 820 140 L 820 120 L 820 100 L 800 100 L 780 100 L 760 100 L 740 100 L 720 100 z M 800 300 L 780 300 L 780 320 L 780 340 L 800 340 L 800 320 L 800 300 z M 800 340 L 800 360 L 820 360 L 820 340 L 800 340 z M 820 360 L 820 380 L 840 380 L 840 360 L 820 360 z M 840 380 L 840 400 L 860 400 L 860 380 L 840 380 z M 840 400 L 820 400 L 820 420 L 840 420 L 840 400 z M 620 320 L 620 340 L 640 340 L 660 340 L 660 320 L 640 320 L 620 320 z M 760 400 L 760 420 L 780 420 L 780 400 L 760 400 z M 780 420 L 780 440 L 780 460 L 800 460 L 800 440 L 800 420 L 780 420 z M 780 460 L 760 460 L 760 480 L 780 480 L 780 460 z M 720 480 L 720 500 L 720 520 L 740 520 L 740 500 L 740 480 L 720 480 z M 720 520 L 700 520 L 700 540 L 720 540 L 720 520 z M 800 480 L 800 500 L 780 500 L 780 520 L 760 520 L 760 540 L 760 560 L 760 580 L 760 600 L 760 620 L 740 620 L 740 640 L 740 660 L 740 680 L 740 700 L 760 700 L 780 700 L 800 700 L 820 700 L 820 680 L 820 660 L 820 640 L 820 620 L 820 600 L 820 580 L 820 560 L 820 540 L 820 520 L 820 500 L 820 480 L 800 480 z M 640 520 L 640 540 L 660 540 L 660 520 L 640 520 z M 660 540 L 660 560 L 660 580 L 680 580 L 680 560 L 680 540 L 660 540 z M 660 580 L 640 580 L 640 600 L 660 600 L 660 580 z M 600 600 L 600 620 L 600 640 L 620 640 L 620 620 L 620 600 L 600 600 z M 600 640 L 580 640 L 580 660 L 600 660 L 600 640 z M 520 640 L 520 660 L 540 660 L 540 640 L 520 640 z M 540 660 L 540 680 L 540 700 L 560 700 L 560 680 L 560 660 L 540 660 z M 540 700 L 520 700 L 520 720 L 540 720 L 540 700 z M 620 660 L 620 680 L 620 700 L 620 720 L 620 740 L 620 760 L 620 780 L 620 800 L 620 820 L 620 840 L 640 840 L 640 820 L 640 800 L 640 780 L 640 760 L 640 740 L 640 720 L 640 700 L 640 680 L 640 660 L 620 660 z M 480 720 L 480 740 L 480 760 L 500 760 L 500 740 L 500 720 L 480 720 z M 480 760 L 460 760 L 460 780 L 480 780 L 480 760 z M 460 780 L 440 780 L 440 800 L 460 800 L 460 780 z M 440 800 L 420 800 L 420 820 L 440 820 L 440 800 z M 420 820 L 400 820 L 400 840 L 420 840 L 420 820 z M 420 800 L 420 780 L 400 780 L 400 800 L 420 800 z M 400 780 L 400 760 L 380 760 L 380 780 L 400 780 z M 540 760 L 540 780 L 560 780 L 560 760 L 540 760 z M 560 780 L 560 800 L 580 800 L 580 780 L 560 780 z M 580 800 L 580 820 L 600 820 L 600 800 L 580 800 z M 580 820 L 560 820 L 560 800 L 540 800 L 540 820 L 520 820 L 520 840 L 500 840 L 500 860 L 480 860 L 480 880 L 460 880 L 460 860 L 440 860 L 420 860 L 420 880 L 400 880 L 400 860 L 380 860 L 380 840 L 360 840 L 360 820 L 340 820 L 340 800 L 320 800 L 300 800 L 280 800 L 280 820 L 260 820 L 240 820 L 240 840 L 220 840 L 200 840 L 200 860 L 180 860 L 180 880 L 200 880 L 200 900 L 220 900 L 240 900 L 260 900 L 260 920 L 280 920 L 300 920 L 320 920 L 340 920 L 360 920 L 380 920 L 400 920 L 420 920 L 440 920 L 460 920 L 480 920 L 500 920 L 520 920 L 540 920 L 560 920 L 580 920 L 580 900 L 600 900 L 600 880 L 580 880 L 580 860 L 600 860 L 600 840 L 580 840 L 580 820 z M 600 860 L 600 880 L 620 880 L 620 860 L 600 860 z M 620 880 L 620 900 L 640 900 L 640 880 L 620 880 z M 620 900 L 600 900 L 600 920 L 620 920 L 620 900 z M 460 860 L 480 860 L 480 840 L 460 840 L 460 860 z M 480 840 L 500 840 L 500 820 L 480 820 L 480 840 z M 500 820 L 520 820 L 520 800 L 500 800 L 500 820 z M 520 800 L 540 800 L 540 780 L 520 780 L 520 800 z "
     id="rect3720" />
  <path
     style="fill:#ffffff"
     d="M 860 20 L 860 40 L 880 40 L 880 20 L 860 20 z M 860 40 L 840 40 L 840 60 L 860 60 L 860 40 z M 840 60 L 820 60 L 820 80 L 840 80 L 840 60 z M 820 80 L 800 80 L 780 80 L 760 80 L 740 80 L 720 80 L 700 80 L 700 100 L 720 100 L 740 100 L 760 100 L 780 100 L 800 100 L 820 100 L 820 80 z M 60 80 L 60 100 L 60 120 L 60 140 L 60 160 L 60 180 L 60 200 L 60 220 L 60 240 L 60 260 L 60 280 L 60 300 L 60 320 L 60 340 L 60 360 L 60 380 L 60 400 L 60 420 L 60 440 L 60 460 L 60 480 L 60 500 L 60 520 L 60 540 L 60 560 L 60 580 L 60 600 L 60 620 L 60 640 L 60 660 L 60 680 L 60 700 L 80 700 L 80 680 L 80 660 L 80 640 L 80 620 L 80 600 L 80 580 L 80 560 L 80 540 L 80 520 L 80 500 L 80 480 L 80 460 L 80 440 L 80 420 L 80 400 L 80 380 L 80 360 L 80 340 L 80 320 L 80 300 L 80 280 L 80 260 L 80 240 L 80 220 L 80 200 L 80 180 L 80 160 L 80 140 L 80 120 L 80 100 L 100 100 L 120 100 L 140 100 L 160 100 L 180 100 L 200 100 L 220 100 L 240 100 L 260 100 L 280 100 L 300 100 L 320 100 L 340 100 L 360 100 L 380 100 L 400 100 L 420 100 L 440 100 L 460 100 L 480 100 L 500 100 L 520 100 L 540 100 L 560 100 L 580 100 L 600 100 L 620 100 L 620 80 L 600 80 L 580 80 L 560 80 L 540 80 L 520 80 L 500 80 L 480 80 L 460 80 L 440 80 L 420 80 L 400 80 L 380 80 L 360 80 L 340 80 L 320 80 L 300 80 L 280 80 L 260 80 L 240 80 L 220 80 L 200 80 L 180 80 L 160 80 L 140 80 L 120 80 L 100 80 L 80 80 L 60 80 z M 740 140 L 740 160 L 740 180 L 740 200 L 740 220 L 740 240 L 740 260 L 740 280 L 740 300 L 740 320 L 760 320 L 760 300 L 760 280 L 760 260 L 760 240 L 760 220 L 760 200 L 760 180 L 760 160 L 760 140 L 740 140 z M 760 320 L 760 340 L 780 340 L 780 320 L 760 320 z M 760 340 L 740 340 L 740 360 L 760 360 L 760 340 z M 740 360 L 720 360 L 720 380 L 740 380 L 740 360 z M 720 380 L 700 380 L 700 400 L 720 400 L 720 380 z M 700 400 L 680 400 L 680 420 L 700 420 L 700 400 z M 680 420 L 660 420 L 660 440 L 680 440 L 680 420 z M 660 440 L 640 440 L 640 460 L 660 460 L 660 440 z M 640 460 L 620 460 L 620 480 L 640 480 L 640 460 z M 620 480 L 600 480 L 600 500 L 620 500 L 620 480 z M 600 500 L 580 500 L 580 520 L 600 520 L 600 500 z M 580 520 L 560 520 L 560 540 L 580 540 L 580 520 z M 560 540 L 540 540 L 540 560 L 560 560 L 560 540 z M 540 560 L 520 560 L 520 580 L 540 580 L 540 560 z M 520 580 L 500 580 L 500 600 L 520 600 L 520 580 z M 500 600 L 480 600 L 480 620 L 500 620 L 500 600 z M 480 620 L 460 620 L 460 640 L 480 640 L 480 620 z M 460 640 L 440 640 L 440 660 L 460 660 L 460 640 z M 440 660 L 420 660 L 420 680 L 440 680 L 440 660 z M 420 680 L 400 680 L 400 700 L 420 700 L 420 680 z M 400 700 L 380 700 L 380 720 L 400 720 L 400 700 z M 380 720 L 360 720 L 360 740 L 380 740 L 380 720 z M 360 740 L 340 740 L 340 760 L 360 760 L 360 740 z M 340 760 L 320 760 L 320 780 L 340 780 L 340 760 z M 320 780 L 300 780 L 280 780 L 280 800 L 300 800 L 320 800 L 320 780 z M 280 800 L 260 800 L 240 800 L 240 820 L 260 820 L 280 820 L 280 800 z M 240 820 L 220 820 L 200 820 L 200 840 L 220 840 L 240 840 L 240 820 z M 200 840 L 180 840 L 180 860 L 200 860 L 200 840 z M 180 860 L 160 860 L 160 880 L 160 900 L 180 900 L 200 900 L 200 880 L 180 880 L 180 860 z M 200 900 L 200 920 L 220 920 L 240 920 L 260 920 L 260 900 L 240 900 L 220 900 L 200 900 z M 260 920 L 260 940 L 280 940 L 300 940 L 320 940 L 340 940 L 360 940 L 380 940 L 400 940 L 420 940 L 440 940 L 460 940 L 480 940 L 500 940 L 520 940 L 540 940 L 560 940 L 580 940 L 600 940 L 600 920 L 580 920 L 560 920 L 540 920 L 520 920 L 500 920 L 480 920 L 460 920 L 440 920 L 420 920 L 400 920 L 380 920 L 360 920 L 340 920 L 320 920 L 300 920 L 280 920 L 260 920 z M 440 640 L 440 620 L 420 620 L 400 620 L 380 620 L 360 620 L 340 620 L 320 620 L 300 620 L 280 620 L 260 620 L 240 620 L 220 620 L 200 620 L 180 620 L 160 620 L 140 620 L 140 640 L 160 640 L 180 640 L 200 640 L 220 640 L 240 640 L 260 640 L 280 640 L 300 640 L 320 640 L 340 640 L 360 640 L 380 640 L 400 640 L 420 640 L 440 640 z M 640 440 L 640 420 L 640 400 L 640 380 L 640 360 L 640 340 L 620 340 L 620 360 L 620 380 L 620 400 L 620 420 L 620 440 L 640 440 z M 640 260 L 640 280 L 660 280 L 660 260 L 640 260 z M 740 540 L 740 560 L 740 580 L 740 600 L 740 620 L 760 620 L 760 600 L 760 580 L 760 560 L 760 540 L 740 540 z "
     id="rect3772" />
  <path
     style="fill:#808080"
     d="M 100 0 L 100 20 L 120 20 L 140 20 L 160 20 L 180 20 L 200 20 L 220 20 L 240 20 L 260 20 L 280 20 L 300 20 L 320 20 L 340 20 L 360 20 L 380 20 L 400 20 L 420 20 L 440 20 L 460 20 L 480 20 L 500 20 L 520 20 L 540 20 L 560 20 L 580 20 L 600 20 L 620 20 L 640 20 L 660 20 L 680 20 L 700 20 L 720 20 L 740 20 L 760 20 L 780 20 L 800 20 L 820 20 L 840 20 L 860 20 L 880 20 L 880 40 L 860 40 L 860 60 L 840 60 L 840 80 L 820 80 L 820 100 L 820 120 L 820 140 L 820 160 L 820 180 L 820 200 L 820 220 L 820 240 L 820 260 L 820 280 L 820 300 L 820 320 L 840 320 L 840 340 L 860 340 L 860 360 L 880 360 L 880 380 L 900 380 L 900 360 L 900 340 L 900 320 L 900 300 L 900 280 L 900 260 L 900 240 L 900 220 L 900 200 L 900 180 L 900 160 L 900 140 L 900 120 L 900 100 L 900 80 L 900 60 L 900 40 L 900 20 L 900 0 L 880 0 L 860 0 L 840 0 L 820 0 L 800 0 L 780 0 L 760 0 L 740 0 L 720 0 L 700 0 L 680 0 L 660 0 L 640 0 L 620 0 L 600 0 L 580 0 L 560 0 L 540 0 L 520 0 L 500 0 L 480 0 L 460 0 L 440 0 L 420 0 L 400 0 L 380 0 L 360 0 L 340 0 L 320 0 L 300 0 L 280 0 L 260 0 L 240 0 L 220 0 L 200 0 L 180 0 L 160 0 L 140 0 L 120 0 L 100 0 z M 100 20 L 80 20 L 80 40 L 100 40 L 100 20 z M 80 40 L 60 40 L 60 60 L 80 60 L 80 40 z M 60 60 L 40 60 L 40 80 L 40 100 L 40 120 L 40 140 L 40 160 L 40 180 L 40 200 L 40 220 L 40 240 L 40 260 L 40 280 L 40 300 L 40 320 L 40 340 L 40 360 L 40 380 L 40 400 L 40 420 L 40 440 L 40 460 L 40 480 L 40 500 L 40 520 L 40 540 L 40 560 L 40 580 L 40 600 L 40 620 L 40 640 L 40 660 L 40 680 L 40 700 L 40 720 L 60 720 L 80 720 L 100 720 L 120 720 L 140 720 L 160 720 L 180 720 L 200 720 L 220 720 L 240 720 L 260 720 L 280 720 L 300 720 L 320 720 L 340 720 L 360 720 L 360 700 L 340 700 L 320 700 L 300 700 L 280 700 L 260 700 L 240 700 L 220 700 L 200 700 L 180 700 L 160 700 L 140 700 L 120 700 L 100 700 L 80 700 L 60 700 L 60 680 L 60 660 L 60 640 L 60 620 L 60 600 L 60 580 L 60 560 L 60 540 L 60 520 L 60 500 L 60 480 L 60 460 L 60 440 L 60 420 L 60 400 L 60 380 L 60 360 L 60 340 L 60 320 L 60 300 L 60 280 L 60 260 L 60 240 L 60 220 L 60 200 L 60 180 L 60 160 L 60 140 L 60 120 L 60 100 L 60 80 L 60 60 z M 140 140 L 140 160 L 160 160 L 180 160 L 200 160 L 220 160 L 240 160 L 260 160 L 280 160 L 300 160 L 320 160 L 340 160 L 360 160 L 380 160 L 400 160 L 420 160 L 440 160 L 460 160 L 480 160 L 500 160 L 520 160 L 540 160 L 560 160 L 580 160 L 600 160 L 600 140 L 580 140 L 560 140 L 540 140 L 520 140 L 500 140 L 480 140 L 460 140 L 440 140 L 420 140 L 400 140 L 380 140 L 360 140 L 340 140 L 320 140 L 300 140 L 280 140 L 260 140 L 240 140 L 220 140 L 200 140 L 180 140 L 160 140 L 140 140 z M 680 160 L 680 180 L 680 200 L 700 200 L 700 180 L 700 160 L 680 160 z M 680 200 L 660 200 L 660 220 L 680 220 L 680 200 z M 880 400 L 880 420 L 860 420 L 860 440 L 840 440 L 840 460 L 820 460 L 820 480 L 820 500 L 820 520 L 820 540 L 820 560 L 820 580 L 820 600 L 820 620 L 820 640 L 820 660 L 820 680 L 820 700 L 800 700 L 780 700 L 760 700 L 740 700 L 740 720 L 760 720 L 780 720 L 800 720 L 820 720 L 840 720 L 840 700 L 860 700 L 860 680 L 880 680 L 880 660 L 900 660 L 900 640 L 900 620 L 900 600 L 900 580 L 900 560 L 900 540 L 900 520 L 900 500 L 900 480 L 900 460 L 900 440 L 900 420 L 900 400 L 880 400 z M 300 740 L 300 760 L 320 760 L 320 740 L 300 740 z M 300 760 L 280 760 L 280 780 L 300 780 L 300 760 z M 280 780 L 260 780 L 240 780 L 240 800 L 260 800 L 280 800 L 280 780 z M 240 800 L 220 800 L 200 800 L 200 820 L 220 820 L 240 820 L 240 800 z M 200 820 L 180 820 L 180 840 L 200 840 L 200 820 z M 180 840 L 160 840 L 160 860 L 180 860 L 180 840 z M 160 860 L 140 860 L 140 880 L 140 900 L 160 900 L 160 880 L 160 860 z M 540 740 L 540 760 L 560 760 L 560 780 L 580 780 L 580 800 L 600 800 L 600 780 L 600 760 L 600 740 L 580 740 L 560 740 L 540 740 z M 580 800 L 560 800 L 560 820 L 580 820 L 580 800 z M 580 820 L 580 840 L 600 840 L 600 820 L 580 820 z M 560 800 L 560 780 L 540 780 L 540 800 L 560 800 z M 540 800 L 520 800 L 520 820 L 540 820 L 540 800 z M 520 820 L 500 820 L 500 840 L 520 840 L 520 820 z M 500 840 L 480 840 L 480 860 L 500 860 L 500 840 z M 480 860 L 460 860 L 460 880 L 480 880 L 480 860 z M 460 860 L 460 840 L 440 840 L 440 860 L 460 860 z M 460 840 L 480 840 L 480 820 L 460 820 L 460 840 z M 480 820 L 500 820 L 500 800 L 480 800 L 480 820 z M 500 800 L 520 800 L 520 780 L 500 780 L 500 800 z M 520 780 L 540 780 L 540 760 L 520 760 L 520 780 z M 740 800 L 740 820 L 740 840 L 740 860 L 720 860 L 720 880 L 700 880 L 700 900 L 720 900 L 740 900 L 740 880 L 760 880 L 760 860 L 780 860 L 780 840 L 780 820 L 760 820 L 760 800 L 740 800 z M 700 900 L 680 900 L 660 900 L 640 900 L 620 900 L 620 920 L 600 920 L 600 940 L 620 940 L 640 940 L 640 920 L 660 920 L 680 920 L 700 920 L 700 900 z M 600 920 L 600 900 L 580 900 L 580 920 L 600 920 z M 600 900 L 620 900 L 620 880 L 600 880 L 600 900 z M 600 880 L 600 860 L 580 860 L 580 880 L 600 880 z "
     id="rect3776" />
  <path
     style="fill:#000000"
     d="M 900 20 L 900 40 L 900 60 L 900 80 L 900 100 L 900 120 L 900 140 L 900 160 L 900 180 L 900 200 L 900 220 L 900 240 L 900 260 L 900 280 L 900 300 L 900 320 L 900 340 L 900 360 L 900 380 L 880 380 L 880 400 L 900 400 L 900 420 L 900 440 L 900 460 L 900 480 L 900 500 L 900 520 L 900 540 L 900 560 L 900 580 L 900 600 L 900 620 L 900 640 L 900 660 L 920 660 L 920 640 L 920 620 L 920 600 L 920 580 L 920 560 L 920 540 L 920 520 L 920 500 L 920 480 L 920 460 L 920 440 L 920 420 L 920 400 L 920 380 L 920 360 L 920 340 L 920 320 L 920 300 L 920 280 L 920 260 L 920 240 L 920 220 L 920 200 L 920 180 L 920 160 L 920 140 L 920 120 L 920 100 L 920 80 L 920 60 L 920 40 L 920 20 L 900 20 z M 900 660 L 880 660 L 880 680 L 900 680 L 900 660 z M 880 680 L 860 680 L 860 700 L 880 700 L 880 680 z M 860 700 L 840 700 L 840 720 L 860 720 L 860 700 z M 840 720 L 820 720 L 800 720 L 780 720 L 760 720 L 740 720 L 740 700 L 740 680 L 740 660 L 740 640 L 740 620 L 740 600 L 740 580 L 740 560 L 740 540 L 720 540 L 720 560 L 700 560 L 700 580 L 720 580 L 720 600 L 720 620 L 720 640 L 720 660 L 720 680 L 720 700 L 720 720 L 720 740 L 720 760 L 720 780 L 720 800 L 720 820 L 720 840 L 720 860 L 740 860 L 740 840 L 740 820 L 740 800 L 760 800 L 760 780 L 740 780 L 740 760 L 740 740 L 760 740 L 780 740 L 800 740 L 820 740 L 840 740 L 840 720 z M 760 800 L 760 820 L 780 820 L 780 800 L 760 800 z M 780 820 L 780 840 L 780 860 L 800 860 L 800 840 L 800 820 L 780 820 z M 780 860 L 760 860 L 760 880 L 780 880 L 780 860 z M 760 880 L 740 880 L 740 900 L 760 900 L 760 880 z M 740 900 L 720 900 L 700 900 L 700 920 L 720 920 L 740 920 L 740 900 z M 700 920 L 680 920 L 660 920 L 640 920 L 640 940 L 660 940 L 680 940 L 700 940 L 700 920 z M 640 940 L 620 940 L 600 940 L 580 940 L 560 940 L 540 940 L 520 940 L 500 940 L 480 940 L 460 940 L 440 940 L 420 940 L 400 940 L 380 940 L 360 940 L 340 940 L 320 940 L 300 940 L 280 940 L 260 940 L 260 960 L 280 960 L 300 960 L 320 960 L 340 960 L 360 960 L 380 960 L 400 960 L 420 960 L 440 960 L 460 960 L 480 960 L 500 960 L 520 960 L 540 960 L 560 960 L 580 960 L 600 960 L 620 960 L 640 960 L 640 940 z M 260 940 L 260 920 L 240 920 L 220 920 L 200 920 L 200 940 L 220 940 L 240 940 L 260 940 z M 200 920 L 200 900 L 180 900 L 160 900 L 160 920 L 180 920 L 200 920 z M 700 900 L 700 880 L 680 880 L 660 880 L 640 880 L 640 900 L 660 900 L 680 900 L 700 900 z M 700 880 L 720 880 L 720 860 L 700 860 L 700 880 z M 700 580 L 680 580 L 680 600 L 700 600 L 700 580 z M 680 600 L 660 600 L 660 620 L 680 620 L 680 600 z M 660 620 L 640 620 L 640 640 L 660 640 L 660 620 z M 640 640 L 620 640 L 620 660 L 640 660 L 640 640 z M 620 660 L 600 660 L 600 680 L 620 680 L 620 660 z M 600 680 L 580 680 L 580 700 L 560 700 L 560 720 L 540 720 L 540 740 L 560 740 L 580 740 L 600 740 L 600 720 L 600 700 L 600 680 z M 540 740 L 520 740 L 520 760 L 540 760 L 540 740 z M 520 760 L 500 760 L 500 780 L 520 780 L 520 760 z M 500 780 L 480 780 L 480 800 L 500 800 L 500 780 z M 480 800 L 460 800 L 460 820 L 480 820 L 480 800 z M 460 820 L 440 820 L 440 840 L 460 840 L 460 820 z M 440 840 L 420 840 L 420 860 L 440 860 L 440 840 z M 420 860 L 400 860 L 400 880 L 420 880 L 420 860 z M 520 740 L 520 720 L 500 720 L 500 740 L 520 740 z M 500 720 L 500 700 L 480 700 L 480 720 L 500 720 z M 580 680 L 580 660 L 560 660 L 560 680 L 580 680 z M 560 660 L 560 640 L 540 640 L 540 660 L 560 660 z M 640 620 L 640 600 L 620 600 L 620 620 L 640 620 z M 620 600 L 620 580 L 600 580 L 600 600 L 620 600 z M 700 560 L 700 540 L 680 540 L 680 560 L 700 560 z M 680 540 L 680 520 L 660 520 L 660 540 L 680 540 z M 740 540 L 760 540 L 760 520 L 740 520 L 740 540 z M 760 520 L 780 520 L 780 500 L 760 500 L 760 520 z M 760 500 L 760 480 L 740 480 L 740 500 L 760 500 z M 740 480 L 740 460 L 720 460 L 720 480 L 740 480 z M 780 500 L 800 500 L 800 480 L 780 480 L 780 500 z M 800 480 L 820 480 L 820 460 L 800 460 L 800 480 z M 820 460 L 840 460 L 840 440 L 820 440 L 820 460 z M 820 440 L 820 420 L 800 420 L 800 440 L 820 440 z M 800 420 L 800 400 L 780 400 L 780 420 L 800 420 z M 840 440 L 860 440 L 860 420 L 840 420 L 840 440 z M 860 420 L 880 420 L 880 400 L 860 400 L 860 420 z M 880 380 L 880 360 L 860 360 L 860 380 L 880 380 z M 860 360 L 860 340 L 840 340 L 840 360 L 860 360 z M 840 340 L 840 320 L 820 320 L 820 340 L 840 340 z M 820 320 L 820 300 L 800 300 L 800 320 L 820 320 z M 680 40 L 680 60 L 680 80 L 680 100 L 700 100 L 700 80 L 700 60 L 700 40 L 680 40 z M 700 100 L 700 120 L 700 140 L 720 140 L 720 120 L 720 100 L 700 100 z M 720 140 L 720 160 L 720 180 L 720 200 L 700 200 L 700 220 L 680 220 L 680 240 L 660 240 L 640 240 L 640 220 L 620 220 L 620 240 L 620 260 L 640 260 L 660 260 L 680 260 L 700 260 L 720 260 L 720 240 L 720 220 L 740 220 L 740 200 L 740 180 L 740 160 L 740 140 L 720 140 z M 140 160 L 140 180 L 140 200 L 140 220 L 140 240 L 140 260 L 140 280 L 140 300 L 140 320 L 140 340 L 140 360 L 140 380 L 140 400 L 140 420 L 140 440 L 140 460 L 140 480 L 140 500 L 140 520 L 140 540 L 140 560 L 140 580 L 140 600 L 160 600 L 160 580 L 160 560 L 160 540 L 160 520 L 160 500 L 160 480 L 160 460 L 160 440 L 160 420 L 160 400 L 160 380 L 160 360 L 160 340 L 160 320 L 160 300 L 160 280 L 160 260 L 160 240 L 160 220 L 160 200 L 160 180 L 180 180 L 200 180 L 220 180 L 240 180 L 260 180 L 280 180 L 300 180 L 320 180 L 340 180 L 360 180 L 380 180 L 400 180 L 420 180 L 440 180 L 460 180 L 480 180 L 500 180 L 520 180 L 540 180 L 560 180 L 580 180 L 600 180 L 600 160 L 580 160 L 560 160 L 540 160 L 520 160 L 500 160 L 480 160 L 460 160 L 440 160 L 420 160 L 400 160 L 380 160 L 360 160 L 340 160 L 320 160 L 300 160 L 280 160 L 260 160 L 240 160 L 220 160 L 200 160 L 180 160 L 160 160 L 140 160 z M 720 280 L 720 300 L 720 320 L 720 340 L 740 340 L 740 320 L 740 300 L 740 280 L 720 280 z M 60 720 L 60 740 L 80 740 L 100 740 L 120 740 L 140 740 L 160 740 L 180 740 L 200 740 L 220 740 L 240 740 L 260 740 L 280 740 L 300 740 L 320 740 L 340 740 L 360 740 L 360 720 L 340 720 L 320 720 L 300 720 L 280 720 L 260 720 L 240 720 L 220 720 L 200 720 L 180 720 L 160 720 L 140 720 L 120 720 L 100 720 L 80 720 L 60 720 z M 400 760 L 400 780 L 420 780 L 420 760 L 400 760 z M 420 780 L 420 800 L 440 800 L 440 780 L 420 780 z "
     id="rect3820" />
</svg>
