<?xml version="1.0" encoding="UTF-8" standalone="no"?>
<svg
   xmlns:dc="http://purl.org/dc/elements/1.1/"
   xmlns:cc="http://creativecommons.org/ns#"
   xmlns:rdf="http://www.w3.org/1999/02/22-rdf-syntax-ns#"
   xmlns:svg="http://www.w3.org/2000/svg"
   xmlns="http://www.w3.org/2000/svg"
   height="960px"
   version="1.1"
   width="960px"
   id="svg3718">
  <metadata
     id="metadata3722">
    <rdf:RDF>
      <cc:Work
         rdf:about="">
        <dc:format>image/svg+xml</dc:format>
        <dc:type
           rdf:resource="http://purl.org/dc/dcmitype/StillImage" />
      </cc:Work>
    </rdf:RDF>
  </metadata>
  <defs
     id="defs2" />
  <path
     id="rect974"
     d="M 240 220 L 240 240 L 240 260 L 240 280 L 260 280 L 260 260 L 260 240 L 260 220 L 240 220 z "
     style="fill:#00ffff" />
  <path
     id="rect2392"
     d="M 0 600 L 0 620 L 20 620 L 20 640 L 40 640 L 40 620 L 60 620 L 60 640 L 80 640 L 80 620 L 100 620 L 100 640 L 120 640 L 120 620 L 140 620 L 140 640 L 160 640 L 160 620 L 180 620 L 180 600 L 160 600 L 140 600 L 120 600 L 100 600 L 80 600 L 60 600 L 40 600 L 20 600 L 0 600 z "
     style="fill:#008080" />
  <path
     id="rect3240"
     d="M 200 180 L 200 200 L 200 220 L 200 240 L 200 260 L 200 280 L 200 300 L 200 320 L 200 340 L 200 360 L 200 380 L 200 400 L 200 420 L 200 440 L 200 460 L 200 480 L 200 500 L 220 500 L 240 500 L 260 500 L 280 500 L 300 500 L 320 500 L 340 500 L 360 500 L 380 500 L 400 500 L 420 500 L 440 500 L 460 500 L 480 500 L 500 500 L 520 500 L 540 500 L 560 500 L 580 500 L 600 500 L 620 500 L 640 500 L 660 500 L 680 500 L 680 480 L 680 460 L 680 440 L 680 420 L 680 400 L 680 380 L 680 360 L 680 340 L 680 320 L 680 300 L 680 280 L 680 260 L 680 240 L 680 220 L 680 200 L 680 180 L 660 180 L 640 180 L 620 180 L 600 180 L 580 180 L 560 180 L 540 180 L 520 180 L 500 180 L 480 180 L 460 180 L 440 180 L 420 180 L 400 180 L 380 180 L 360 180 L 340 180 L 320 180 L 300 180 L 280 180 L 260 180 L 240 180 L 220 180 L 200 180 z M 240 220 L 260 220 L 260 240 L 260 260 L 260 280 L 240 280 L 240 260 L 240 240 L 240 220 z M 320 240 L 340 240 L 360 240 L 380 240 L 400 240 L 420 240 L 440 240 L 460 240 L 480 240 L 500 240 L 520 240 L 520 260 L 520 280 L 520 300 L 520 320 L 540 320 L 560 320 L 580 320 L 580 340 L 580 360 L 580 380 L 580 400 L 580 420 L 580 440 L 580 460 L 580 480 L 560 480 L 540 480 L 520 480 L 500 480 L 480 480 L 460 480 L 440 480 L 420 480 L 400 480 L 380 480 L 380 460 L 380 440 L 380 420 L 380 400 L 360 400 L 340 400 L 320 400 L 320 380 L 320 360 L 320 340 L 320 320 L 320 300 L 320 280 L 320 260 L 320 240 z M 380 340 L 380 360 L 400 360 L 420 360 L 440 360 L 460 360 L 480 360 L 500 360 L 520 360 L 540 360 L 560 360 L 560 340 L 540 340 L 520 340 L 500 340 L 480 340 L 460 340 L 440 340 L 420 340 L 400 340 L 380 340 z M 0 620 L 0 640 L 0 660 L 0 680 L 0 700 L 0 720 L 0 740 L 20 740 L 20 760 L 40 760 L 40 740 L 60 740 L 60 760 L 80 760 L 80 740 L 100 740 L 100 760 L 120 760 L 120 740 L 140 740 L 140 760 L 160 760 L 160 740 L 180 740 L 180 720 L 180 700 L 180 680 L 180 660 L 180 640 L 180 620 L 160 620 L 160 640 L 140 640 L 140 620 L 120 620 L 120 640 L 100 640 L 100 620 L 80 620 L 80 640 L 60 640 L 60 620 L 40 620 L 40 640 L 20 640 L 20 620 L 0 620 z M 160 760 L 160 780 L 180 780 L 180 760 L 160 760 z M 160 780 L 140 780 L 140 800 L 160 800 L 160 780 z M 160 800 L 160 820 L 180 820 L 180 800 L 160 800 z M 140 800 L 120 800 L 120 820 L 140 820 L 140 800 z M 120 800 L 120 780 L 100 780 L 100 800 L 120 800 z M 100 800 L 80 800 L 80 820 L 100 820 L 100 800 z M 80 800 L 80 780 L 60 780 L 60 800 L 80 800 z M 60 800 L 40 800 L 40 820 L 60 820 L 60 800 z M 40 800 L 40 780 L 20 780 L 20 800 L 40 800 z M 20 800 L 0 800 L 0 820 L 20 820 L 20 800 z M 20 780 L 20 760 L 0 760 L 0 780 L 20 780 z M 40 780 L 60 780 L 60 760 L 40 760 L 40 780 z M 80 780 L 100 780 L 100 760 L 80 760 L 80 780 z M 120 780 L 140 780 L 140 760 L 120 760 L 120 780 z "
     style="fill:#0000ff" />
  <path
     id="rect3424"
     d="M 680 160 L 680 180 L 680 200 L 680 220 L 680 240 L 680 260 L 680 280 L 680 300 L 680 320 L 680 340 L 680 360 L 680 380 L 680 400 L 680 420 L 680 440 L 680 460 L 680 480 L 680 500 L 660 500 L 640 500 L 620 500 L 600 500 L 580 500 L 560 500 L 540 500 L 520 500 L 500 500 L 480 500 L 460 500 L 440 500 L 420 500 L 400 500 L 380 500 L 360 500 L 340 500 L 320 500 L 300 500 L 280 500 L 260 500 L 240 500 L 220 500 L 200 500 L 180 500 L 180 520 L 200 520 L 220 520 L 240 520 L 260 520 L 280 520 L 300 520 L 320 520 L 340 520 L 360 520 L 380 520 L 400 520 L 420 520 L 440 520 L 460 520 L 480 520 L 500 520 L 520 520 L 540 520 L 560 520 L 580 520 L 600 520 L 620 520 L 640 520 L 660 520 L 680 520 L 700 520 L 700 500 L 700 480 L 700 460 L 700 440 L 700 420 L 700 400 L 700 380 L 700 360 L 700 340 L 700 320 L 700 300 L 700 280 L 700 260 L 700 240 L 700 220 L 700 200 L 700 180 L 700 160 L 680 160 z M 320 260 L 320 280 L 340 280 L 360 280 L 380 280 L 400 280 L 420 280 L 440 280 L 460 280 L 480 280 L 500 280 L 500 260 L 480 260 L 460 260 L 440 260 L 420 260 L 400 260 L 380 260 L 360 260 L 340 260 L 320 260 z M 380 320 L 380 340 L 400 340 L 420 340 L 440 340 L 460 340 L 480 340 L 500 340 L 520 340 L 540 340 L 560 340 L 560 320 L 540 320 L 520 320 L 500 320 L 480 320 L 460 320 L 440 320 L 420 320 L 400 320 L 380 320 z M 0 580 L 0 600 L 20 600 L 40 600 L 60 600 L 80 600 L 100 600 L 120 600 L 140 600 L 160 600 L 180 600 L 180 620 L 180 640 L 180 660 L 180 680 L 180 700 L 180 720 L 180 740 L 160 740 L 160 760 L 180 760 L 180 780 L 160 780 L 160 800 L 180 800 L 180 820 L 160 820 L 160 800 L 140 800 L 140 820 L 120 820 L 120 800 L 100 800 L 100 820 L 80 820 L 80 800 L 60 800 L 60 820 L 40 820 L 40 800 L 20 800 L 20 820 L 0 820 L 0 840 L 0 860 L 20 860 L 40 860 L 60 860 L 80 860 L 100 860 L 120 860 L 140 860 L 160 860 L 180 860 L 200 860 L 200 840 L 200 820 L 200 800 L 200 780 L 200 760 L 200 740 L 200 720 L 200 700 L 200 680 L 200 660 L 200 640 L 200 620 L 200 600 L 200 580 L 180 580 L 160 580 L 140 580 L 120 580 L 100 580 L 80 580 L 60 580 L 40 580 L 20 580 L 0 580 z M 20 800 L 20 780 L 0 780 L 0 800 L 20 800 z M 20 780 L 40 780 L 40 760 L 20 760 L 20 780 z M 20 760 L 20 740 L 0 740 L 0 760 L 20 760 z M 40 760 L 60 760 L 60 740 L 40 740 L 40 760 z M 60 760 L 60 780 L 80 780 L 80 760 L 60 760 z M 80 760 L 100 760 L 100 740 L 80 740 L 80 760 z M 100 760 L 100 780 L 120 780 L 120 760 L 100 760 z M 120 760 L 140 760 L 140 740 L 120 740 L 120 760 z M 140 760 L 140 780 L 160 780 L 160 760 L 140 760 z M 140 780 L 120 780 L 120 800 L 140 800 L 140 780 z M 100 780 L 80 780 L 80 800 L 100 800 L 100 780 z M 60 780 L 40 780 L 40 800 L 60 800 L 60 780 z "
     style="fill:#000080" />
  <path
     id="rect3630"
     d="M 800 20 L 800 40 L 820 40 L 820 20 L 800 20 z M 800 40 L 780 40 L 780 60 L 800 60 L 800 40 z M 780 60 L 760 60 L 760 80 L 780 80 L 780 60 z M 760 80 L 740 80 L 720 80 L 700 80 L 680 80 L 660 80 L 640 80 L 620 80 L 600 80 L 580 80 L 560 80 L 540 80 L 520 80 L 500 80 L 480 80 L 460 80 L 440 80 L 420 80 L 400 80 L 380 80 L 360 80 L 340 80 L 320 80 L 300 80 L 280 80 L 260 80 L 240 80 L 220 80 L 200 80 L 180 80 L 160 80 L 140 80 L 140 100 L 160 100 L 180 100 L 200 100 L 220 100 L 240 100 L 260 100 L 280 100 L 300 100 L 320 100 L 340 100 L 360 100 L 380 100 L 400 100 L 420 100 L 440 100 L 460 100 L 480 100 L 500 100 L 520 100 L 540 100 L 560 100 L 580 100 L 600 100 L 620 100 L 640 100 L 660 100 L 680 100 L 700 100 L 720 100 L 740 100 L 760 100 L 760 80 z M 140 100 L 120 100 L 120 120 L 120 140 L 120 160 L 120 180 L 120 200 L 120 220 L 120 240 L 120 260 L 120 280 L 120 300 L 120 320 L 120 340 L 120 360 L 120 380 L 120 400 L 120 420 L 120 440 L 120 460 L 120 480 L 120 500 L 120 520 L 120 540 L 120 560 L 120 580 L 140 580 L 140 560 L 140 540 L 140 520 L 140 500 L 140 480 L 140 460 L 140 440 L 140 420 L 140 400 L 140 380 L 140 360 L 140 340 L 140 320 L 140 300 L 140 280 L 140 260 L 140 240 L 140 220 L 140 200 L 140 180 L 140 160 L 140 140 L 140 120 L 140 100 z M 700 140 L 700 160 L 700 180 L 700 200 L 700 220 L 700 240 L 700 260 L 700 280 L 700 300 L 700 320 L 700 340 L 700 360 L 700 380 L 700 400 L 700 420 L 700 440 L 700 460 L 700 480 L 700 500 L 700 520 L 680 520 L 660 520 L 640 520 L 620 520 L 600 520 L 580 520 L 560 520 L 540 520 L 520 520 L 500 520 L 480 520 L 460 520 L 440 520 L 420 520 L 400 520 L 380 520 L 360 520 L 340 520 L 320 520 L 300 520 L 280 520 L 260 520 L 240 520 L 220 520 L 200 520 L 180 520 L 180 540 L 200 540 L 220 540 L 240 540 L 260 540 L 280 540 L 300 540 L 320 540 L 340 540 L 360 540 L 380 540 L 400 540 L 420 540 L 440 540 L 460 540 L 480 540 L 500 540 L 520 540 L 540 540 L 560 540 L 580 540 L 600 540 L 620 540 L 640 540 L 660 540 L 680 540 L 700 540 L 720 540 L 720 520 L 720 500 L 720 480 L 720 460 L 720 440 L 720 420 L 720 400 L 720 380 L 720 360 L 720 340 L 720 320 L 720 300 L 720 280 L 720 260 L 720 240 L 720 220 L 720 200 L 720 180 L 720 160 L 720 140 L 700 140 z M 340 280 L 340 300 L 340 320 L 340 340 L 340 360 L 340 380 L 360 380 L 380 380 L 380 360 L 380 340 L 380 320 L 400 320 L 420 320 L 440 320 L 460 320 L 480 320 L 500 320 L 500 300 L 500 280 L 480 280 L 460 280 L 440 280 L 420 280 L 400 280 L 380 280 L 360 280 L 340 280 z M 400 360 L 400 380 L 400 400 L 400 420 L 400 440 L 400 460 L 420 460 L 440 460 L 460 460 L 480 460 L 500 460 L 520 460 L 540 460 L 560 460 L 560 440 L 560 420 L 560 400 L 560 380 L 560 360 L 540 360 L 520 360 L 500 360 L 480 360 L 460 360 L 440 360 L 420 360 L 400 360 z M 460 660 L 460 680 L 480 680 L 500 680 L 520 680 L 540 680 L 560 680 L 580 680 L 600 680 L 620 680 L 640 680 L 660 680 L 680 680 L 700 680 L 720 680 L 740 680 L 760 680 L 780 680 L 800 680 L 820 680 L 820 660 L 800 660 L 780 660 L 760 660 L 740 660 L 720 660 L 700 660 L 680 660 L 660 660 L 640 660 L 620 660 L 600 660 L 580 660 L 560 660 L 540 660 L 520 660 L 500 660 L 480 660 L 460 660 z M 240 680 L 240 700 L 260 700 L 260 680 L 240 680 z M 260 700 L 260 720 L 280 720 L 280 740 L 260 740 L 260 760 L 280 760 L 280 780 L 260 780 L 260 800 L 280 800 L 280 820 L 300 820 L 320 820 L 320 840 L 340 840 L 340 860 L 360 860 L 380 860 L 400 860 L 420 860 L 420 880 L 440 880 L 460 880 L 480 880 L 480 900 L 500 900 L 520 900 L 540 900 L 560 900 L 560 880 L 580 880 L 600 880 L 600 860 L 620 860 L 640 860 L 640 840 L 620 840 L 600 840 L 600 820 L 580 820 L 560 820 L 540 820 L 540 840 L 520 840 L 520 820 L 500 820 L 480 820 L 480 800 L 460 800 L 460 780 L 480 780 L 500 780 L 520 780 L 540 780 L 560 780 L 580 780 L 600 780 L 600 800 L 620 800 L 640 800 L 640 780 L 620 780 L 620 760 L 600 760 L 580 760 L 580 740 L 560 740 L 540 740 L 540 720 L 520 720 L 500 720 L 500 700 L 480 700 L 460 700 L 440 700 L 420 700 L 400 700 L 380 700 L 360 700 L 340 700 L 320 700 L 300 700 L 300 680 L 280 680 L 280 700 L 260 700 z M 640 780 L 660 780 L 660 760 L 640 760 L 640 780 z M 260 800 L 240 800 L 240 820 L 260 820 L 260 800 z M 260 780 L 260 760 L 240 760 L 240 780 L 260 780 z M 260 740 L 260 720 L 240 720 L 240 740 L 260 740 z "
     style="fill:#ffffff" />
  <path
     id="rect3676"
     d="M 200 20 L 200 40 L 180 40 L 180 60 L 160 60 L 160 80 L 180 80 L 200 80 L 220 80 L 240 80 L 260 80 L 280 80 L 300 80 L 320 80 L 340 80 L 360 80 L 380 80 L 400 80 L 420 80 L 440 80 L 460 80 L 480 80 L 500 80 L 520 80 L 540 80 L 560 80 L 580 80 L 600 80 L 620 80 L 640 80 L 660 80 L 680 80 L 700 80 L 720 80 L 740 80 L 760 80 L 760 60 L 780 60 L 780 40 L 800 40 L 800 20 L 780 20 L 760 20 L 740 20 L 720 20 L 700 20 L 680 20 L 660 20 L 640 20 L 620 20 L 600 20 L 580 20 L 560 20 L 540 20 L 520 20 L 500 20 L 480 20 L 460 20 L 440 20 L 420 20 L 400 20 L 380 20 L 360 20 L 340 20 L 320 20 L 300 20 L 280 20 L 260 20 L 240 20 L 220 20 L 200 20 z M 140 100 L 140 120 L 140 140 L 140 160 L 140 180 L 140 200 L 140 220 L 140 240 L 140 260 L 140 280 L 140 300 L 140 320 L 140 340 L 140 360 L 140 380 L 140 400 L 140 420 L 140 440 L 140 460 L 140 480 L 140 500 L 140 520 L 140 540 L 140 560 L 140 580 L 160 580 L 180 580 L 200 580 L 220 580 L 240 580 L 260 580 L 280 580 L 300 580 L 320 580 L 340 580 L 360 580 L 380 580 L 400 580 L 420 580 L 440 580 L 460 580 L 480 580 L 500 580 L 520 580 L 540 580 L 560 580 L 580 580 L 600 580 L 620 580 L 640 580 L 660 580 L 680 580 L 700 580 L 720 580 L 740 580 L 760 580 L 760 560 L 760 540 L 760 520 L 760 500 L 760 480 L 760 460 L 760 440 L 760 420 L 760 400 L 760 380 L 760 360 L 760 340 L 760 320 L 760 300 L 760 280 L 760 260 L 760 240 L 760 220 L 760 200 L 760 180 L 760 160 L 760 140 L 760 120 L 760 100 L 740 100 L 720 100 L 700 100 L 680 100 L 660 100 L 640 100 L 620 100 L 600 100 L 580 100 L 560 100 L 540 100 L 520 100 L 500 100 L 480 100 L 460 100 L 440 100 L 420 100 L 400 100 L 380 100 L 360 100 L 340 100 L 320 100 L 300 100 L 280 100 L 260 100 L 240 100 L 220 100 L 200 100 L 180 100 L 160 100 L 140 100 z M 180 140 L 200 140 L 220 140 L 240 140 L 260 140 L 280 140 L 300 140 L 320 140 L 340 140 L 360 140 L 380 140 L 400 140 L 420 140 L 440 140 L 460 140 L 480 140 L 500 140 L 520 140 L 540 140 L 560 140 L 580 140 L 600 140 L 620 140 L 640 140 L 660 140 L 680 140 L 700 140 L 720 140 L 720 160 L 720 180 L 720 200 L 720 220 L 720 240 L 720 260 L 720 280 L 720 300 L 720 320 L 720 340 L 720 360 L 720 380 L 720 400 L 720 420 L 720 440 L 720 460 L 720 480 L 720 500 L 720 520 L 720 540 L 700 540 L 680 540 L 660 540 L 640 540 L 620 540 L 600 540 L 580 540 L 560 540 L 540 540 L 520 540 L 500 540 L 480 540 L 460 540 L 440 540 L 420 540 L 400 540 L 380 540 L 360 540 L 340 540 L 320 540 L 300 540 L 280 540 L 260 540 L 240 540 L 220 540 L 200 540 L 180 540 L 180 520 L 180 500 L 180 480 L 180 460 L 180 440 L 180 420 L 180 400 L 180 380 L 180 360 L 180 340 L 180 320 L 180 300 L 180 280 L 180 260 L 180 240 L 180 220 L 180 200 L 180 180 L 180 160 L 180 140 z M 900 560 L 900 580 L 920 580 L 920 560 L 900 560 z M 900 580 L 880 580 L 880 600 L 900 600 L 900 580 z M 880 600 L 860 600 L 860 620 L 880 620 L 880 600 z M 860 620 L 840 620 L 840 640 L 860 640 L 860 620 z M 840 640 L 820 640 L 820 660 L 840 660 L 840 640 z M 220 680 L 220 700 L 220 720 L 220 740 L 220 760 L 220 780 L 220 800 L 220 820 L 240 820 L 240 800 L 260 800 L 260 780 L 240 780 L 240 760 L 260 760 L 260 740 L 240 740 L 240 720 L 260 720 L 260 700 L 240 700 L 240 680 L 220 680 z M 260 700 L 280 700 L 280 680 L 260 680 L 260 700 z M 260 720 L 260 740 L 280 740 L 280 720 L 260 720 z M 260 760 L 260 780 L 280 780 L 280 760 L 260 760 z M 260 800 L 260 820 L 280 820 L 280 800 L 260 800 z M 280 820 L 280 840 L 300 840 L 320 840 L 320 820 L 300 820 L 280 820 z M 320 840 L 320 860 L 340 860 L 340 840 L 320 840 z M 300 680 L 300 700 L 320 700 L 340 700 L 360 700 L 380 700 L 400 700 L 420 700 L 440 700 L 460 700 L 460 680 L 440 680 L 420 680 L 400 680 L 380 680 L 360 680 L 340 680 L 320 680 L 300 680 z M 520 680 L 520 700 L 540 700 L 560 700 L 560 720 L 580 720 L 600 720 L 620 720 L 640 720 L 640 740 L 660 740 L 680 740 L 700 740 L 720 740 L 740 740 L 760 740 L 760 760 L 760 780 L 740 780 L 720 780 L 700 780 L 700 800 L 720 800 L 740 800 L 760 800 L 780 800 L 800 800 L 820 800 L 820 780 L 820 760 L 820 740 L 820 720 L 820 700 L 820 680 L 800 680 L 780 680 L 760 680 L 740 680 L 720 680 L 700 680 L 680 680 L 660 680 L 640 680 L 620 680 L 600 680 L 580 680 L 560 680 L 540 680 L 520 680 z M 700 780 L 700 760 L 680 760 L 660 760 L 660 780 L 640 780 L 640 800 L 660 800 L 680 800 L 680 780 L 700 780 z M 560 720 L 540 720 L 540 740 L 560 740 L 560 720 z M 520 700 L 500 700 L 500 720 L 520 720 L 520 700 z M 580 740 L 580 760 L 600 760 L 620 760 L 620 740 L 600 740 L 580 740 z M 560 780 L 560 800 L 580 800 L 600 800 L 600 780 L 580 780 L 560 780 z M 480 800 L 480 820 L 500 820 L 520 820 L 520 800 L 500 800 L 480 800 z M 520 820 L 520 840 L 540 840 L 540 820 L 520 820 z M 600 820 L 600 840 L 620 840 L 640 840 L 640 860 L 620 860 L 600 860 L 600 880 L 580 880 L 560 880 L 560 900 L 580 900 L 600 900 L 620 900 L 620 880 L 640 880 L 660 880 L 680 880 L 680 860 L 700 860 L 720 860 L 720 840 L 740 840 L 760 840 L 760 820 L 740 820 L 720 820 L 700 820 L 680 820 L 660 820 L 640 820 L 620 820 L 600 820 z M 560 900 L 540 900 L 520 900 L 500 900 L 480 900 L 480 920 L 500 920 L 520 920 L 540 920 L 560 920 L 560 900 z M 480 900 L 480 880 L 460 880 L 440 880 L 420 880 L 420 900 L 440 900 L 460 900 L 480 900 z M 420 880 L 420 860 L 400 860 L 380 860 L 360 860 L 360 880 L 380 880 L 400 880 L 420 880 z M 800 840 L 800 860 L 820 860 L 820 840 L 800 840 z "
     style="fill:#c0c0c0" />
  <path
     id="rect3702"
     d="M 200 0 L 200 20 L 220 20 L 240 20 L 260 20 L 280 20 L 300 20 L 320 20 L 340 20 L 360 20 L 380 20 L 400 20 L 420 20 L 440 20 L 460 20 L 480 20 L 500 20 L 520 20 L 540 20 L 560 20 L 580 20 L 600 20 L 620 20 L 640 20 L 660 20 L 680 20 L 700 20 L 720 20 L 740 20 L 760 20 L 780 20 L 800 20 L 820 20 L 820 40 L 800 40 L 800 60 L 780 60 L 780 80 L 760 80 L 760 100 L 760 120 L 760 140 L 760 160 L 760 180 L 760 200 L 760 220 L 760 240 L 760 260 L 760 280 L 760 300 L 760 320 L 760 340 L 760 360 L 760 380 L 760 400 L 760 420 L 760 440 L 760 460 L 760 480 L 760 500 L 760 520 L 760 540 L 760 560 L 760 580 L 740 580 L 720 580 L 700 580 L 680 580 L 660 580 L 640 580 L 620 580 L 600 580 L 580 580 L 560 580 L 540 580 L 520 580 L 500 580 L 480 580 L 460 580 L 440 580 L 420 580 L 400 580 L 380 580 L 360 580 L 340 580 L 320 580 L 300 580 L 280 580 L 260 580 L 240 580 L 220 580 L 200 580 L 200 600 L 220 600 L 240 600 L 260 600 L 280 600 L 300 600 L 320 600 L 340 600 L 360 600 L 380 600 L 400 600 L 420 600 L 440 600 L 460 600 L 480 600 L 500 600 L 520 600 L 540 600 L 560 600 L 580 600 L 600 600 L 620 600 L 640 600 L 660 600 L 680 600 L 700 600 L 720 600 L 740 600 L 760 600 L 780 600 L 800 600 L 800 580 L 820 580 L 820 560 L 840 560 L 840 540 L 840 520 L 840 500 L 840 480 L 840 460 L 840 440 L 840 420 L 840 400 L 840 380 L 840 360 L 840 340 L 840 320 L 840 300 L 840 280 L 840 260 L 840 240 L 840 220 L 840 200 L 840 180 L 840 160 L 840 140 L 840 120 L 840 100 L 840 80 L 840 60 L 840 40 L 840 20 L 840 0 L 820 0 L 800 0 L 780 0 L 760 0 L 740 0 L 720 0 L 700 0 L 680 0 L 660 0 L 640 0 L 620 0 L 600 0 L 580 0 L 560 0 L 540 0 L 520 0 L 500 0 L 480 0 L 460 0 L 440 0 L 420 0 L 400 0 L 380 0 L 360 0 L 340 0 L 320 0 L 300 0 L 280 0 L 260 0 L 240 0 L 220 0 L 200 0 z M 840 560 L 840 580 L 820 580 L 820 600 L 800 600 L 800 620 L 780 620 L 760 620 L 740 620 L 720 620 L 700 620 L 680 620 L 660 620 L 640 620 L 620 620 L 600 620 L 580 620 L 560 620 L 540 620 L 520 620 L 500 620 L 480 620 L 460 620 L 440 620 L 420 620 L 400 620 L 380 620 L 360 620 L 340 620 L 320 620 L 300 620 L 280 620 L 260 620 L 240 620 L 220 620 L 220 640 L 220 660 L 220 680 L 240 680 L 260 680 L 280 680 L 300 680 L 320 680 L 340 680 L 360 680 L 380 680 L 400 680 L 420 680 L 440 680 L 460 680 L 460 660 L 480 660 L 500 660 L 520 660 L 540 660 L 560 660 L 580 660 L 600 660 L 620 660 L 640 660 L 660 660 L 680 660 L 700 660 L 720 660 L 740 660 L 760 660 L 780 660 L 800 660 L 820 660 L 820 640 L 840 640 L 840 620 L 860 620 L 860 600 L 880 600 L 880 580 L 900 580 L 900 560 L 920 560 L 920 540 L 900 540 L 880 540 L 860 540 L 860 560 L 840 560 z M 900 580 L 900 600 L 880 600 L 880 620 L 860 620 L 860 640 L 840 640 L 840 660 L 820 660 L 820 680 L 820 700 L 820 720 L 820 740 L 820 760 L 820 780 L 820 800 L 820 820 L 820 840 L 820 860 L 800 860 L 780 860 L 760 860 L 760 880 L 780 880 L 800 880 L 820 880 L 840 880 L 840 860 L 860 860 L 860 840 L 880 840 L 880 820 L 900 820 L 900 800 L 920 800 L 920 780 L 920 760 L 920 740 L 920 720 L 920 700 L 920 680 L 920 660 L 920 640 L 920 620 L 920 600 L 920 580 L 900 580 z M 760 860 L 760 840 L 740 840 L 720 840 L 720 860 L 740 860 L 760 860 z M 720 860 L 700 860 L 680 860 L 680 880 L 700 880 L 720 880 L 720 860 z M 680 880 L 660 880 L 640 880 L 620 880 L 620 900 L 640 900 L 660 900 L 680 900 L 680 880 z M 620 900 L 600 900 L 580 900 L 560 900 L 560 920 L 580 920 L 600 920 L 620 920 L 620 900 z M 560 920 L 540 920 L 520 920 L 500 920 L 480 920 L 480 940 L 500 940 L 520 940 L 540 940 L 560 940 L 560 920 z M 480 920 L 480 900 L 460 900 L 440 900 L 420 900 L 420 920 L 440 920 L 460 920 L 480 920 z M 420 900 L 420 880 L 400 880 L 380 880 L 380 900 L 400 900 L 420 900 z M 760 840 L 780 840 L 800 840 L 800 820 L 800 800 L 780 800 L 760 800 L 740 800 L 720 800 L 700 800 L 680 800 L 680 820 L 700 820 L 720 820 L 740 820 L 760 820 L 760 840 z M 460 680 L 460 700 L 480 700 L 500 700 L 520 700 L 520 680 L 500 680 L 480 680 L 460 680 z M 520 700 L 520 720 L 540 720 L 560 720 L 560 700 L 540 700 L 520 700 z M 560 720 L 560 740 L 580 740 L 600 740 L 620 740 L 620 760 L 620 780 L 640 780 L 640 760 L 660 760 L 680 760 L 700 760 L 720 760 L 740 760 L 760 760 L 760 740 L 740 740 L 720 740 L 700 740 L 680 740 L 660 740 L 640 740 L 640 720 L 620 720 L 600 720 L 580 720 L 560 720 z M 200 20 L 180 20 L 180 40 L 200 40 L 200 20 z M 180 40 L 160 40 L 160 60 L 180 60 L 180 40 z M 160 60 L 140 60 L 140 80 L 160 80 L 160 60 z M 140 80 L 120 80 L 120 100 L 140 100 L 140 80 z M 120 100 L 100 100 L 100 120 L 100 140 L 100 160 L 100 180 L 100 200 L 100 220 L 100 240 L 100 260 L 100 280 L 100 300 L 100 320 L 100 340 L 100 360 L 100 380 L 100 400 L 100 420 L 100 440 L 100 460 L 100 480 L 100 500 L 100 520 L 100 540 L 100 560 L 100 580 L 120 580 L 120 560 L 120 540 L 120 520 L 120 500 L 120 480 L 120 460 L 120 440 L 120 420 L 120 400 L 120 380 L 120 360 L 120 340 L 120 320 L 120 300 L 120 280 L 120 260 L 120 240 L 120 220 L 120 200 L 120 180 L 120 160 L 120 140 L 120 120 L 120 100 z M 180 140 L 180 160 L 200 160 L 220 160 L 240 160 L 260 160 L 280 160 L 300 160 L 320 160 L 340 160 L 360 160 L 380 160 L 400 160 L 420 160 L 440 160 L 460 160 L 480 160 L 500 160 L 520 160 L 540 160 L 560 160 L 580 160 L 600 160 L 620 160 L 640 160 L 660 160 L 680 160 L 700 160 L 700 140 L 680 140 L 660 140 L 640 140 L 620 140 L 600 140 L 580 140 L 560 140 L 540 140 L 520 140 L 500 140 L 480 140 L 460 140 L 440 140 L 420 140 L 400 140 L 380 140 L 360 140 L 340 140 L 320 140 L 300 140 L 280 140 L 260 140 L 240 140 L 220 140 L 200 140 L 180 140 z M 320 280 L 320 300 L 320 320 L 320 340 L 320 360 L 320 380 L 340 380 L 340 360 L 340 340 L 340 320 L 340 300 L 340 280 L 320 280 z M 380 360 L 380 380 L 380 400 L 380 420 L 380 440 L 380 460 L 400 460 L 400 440 L 400 420 L 400 400 L 400 380 L 400 360 L 380 360 z M 460 780 L 460 800 L 480 800 L 500 800 L 500 780 L 480 780 L 460 780 z M 520 800 L 520 820 L 540 820 L 560 820 L 560 800 L 540 800 L 520 800 z M 220 820 L 220 840 L 240 840 L 260 840 L 280 840 L 280 820 L 260 820 L 240 820 L 220 820 z M 300 840 L 300 860 L 320 860 L 320 840 L 300 840 z M 300 860 L 280 860 L 260 860 L 240 860 L 220 860 L 200 860 L 200 880 L 220 880 L 240 880 L 260 880 L 280 880 L 300 880 L 300 860 z M 340 860 L 340 880 L 360 880 L 360 860 L 340 860 z "
     style="fill:#808080" />
  <path
     id="rect3716"
     d="M 840 20 L 840 40 L 840 60 L 840 80 L 840 100 L 840 120 L 840 140 L 840 160 L 840 180 L 840 200 L 840 220 L 840 240 L 840 260 L 840 280 L 840 300 L 840 320 L 840 340 L 840 360 L 840 380 L 840 400 L 840 420 L 840 440 L 840 460 L 840 480 L 840 500 L 840 520 L 840 540 L 840 560 L 860 560 L 860 540 L 860 520 L 860 500 L 860 480 L 860 460 L 860 440 L 860 420 L 860 400 L 860 380 L 860 360 L 860 340 L 860 320 L 860 300 L 860 280 L 860 260 L 860 240 L 860 220 L 860 200 L 860 180 L 860 160 L 860 140 L 860 120 L 860 100 L 860 80 L 860 60 L 860 40 L 860 20 L 840 20 z M 840 560 L 820 560 L 820 580 L 840 580 L 840 560 z M 820 580 L 800 580 L 800 600 L 820 600 L 820 580 z M 800 600 L 780 600 L 760 600 L 740 600 L 720 600 L 700 600 L 680 600 L 660 600 L 640 600 L 620 600 L 600 600 L 580 600 L 560 600 L 540 600 L 520 600 L 500 600 L 480 600 L 460 600 L 440 600 L 420 600 L 400 600 L 380 600 L 360 600 L 340 600 L 320 600 L 300 600 L 280 600 L 260 600 L 240 600 L 220 600 L 200 600 L 200 620 L 200 640 L 200 660 L 200 680 L 200 700 L 200 720 L 200 740 L 200 760 L 200 780 L 200 800 L 200 820 L 200 840 L 200 860 L 220 860 L 240 860 L 260 860 L 280 860 L 300 860 L 300 840 L 280 840 L 260 840 L 240 840 L 220 840 L 220 820 L 220 800 L 220 780 L 220 760 L 220 740 L 220 720 L 220 700 L 220 680 L 220 660 L 220 640 L 220 620 L 240 620 L 260 620 L 280 620 L 300 620 L 320 620 L 340 620 L 360 620 L 380 620 L 400 620 L 420 620 L 440 620 L 460 620 L 480 620 L 500 620 L 520 620 L 540 620 L 560 620 L 580 620 L 600 620 L 620 620 L 640 620 L 660 620 L 680 620 L 700 620 L 720 620 L 740 620 L 760 620 L 780 620 L 800 620 L 800 600 z M 300 860 L 300 880 L 280 880 L 260 880 L 240 880 L 220 880 L 200 880 L 200 860 L 180 860 L 160 860 L 140 860 L 120 860 L 100 860 L 80 860 L 60 860 L 40 860 L 20 860 L 0 860 L 0 880 L 20 880 L 40 880 L 40 900 L 60 900 L 80 900 L 100 900 L 120 900 L 140 900 L 160 900 L 180 900 L 200 900 L 220 900 L 240 900 L 260 900 L 280 900 L 300 900 L 320 900 L 340 900 L 360 900 L 380 900 L 380 880 L 360 880 L 340 880 L 340 860 L 320 860 L 300 860 z M 380 900 L 380 920 L 400 920 L 420 920 L 420 900 L 400 900 L 380 900 z M 420 920 L 420 940 L 440 940 L 460 940 L 480 940 L 480 920 L 460 920 L 440 920 L 420 920 z M 480 940 L 480 960 L 500 960 L 520 960 L 540 960 L 560 960 L 560 940 L 540 940 L 520 940 L 500 940 L 480 940 z M 560 940 L 580 940 L 600 940 L 620 940 L 620 920 L 600 920 L 580 920 L 560 920 L 560 940 z M 620 920 L 640 920 L 660 920 L 680 920 L 680 900 L 660 900 L 640 900 L 620 900 L 620 920 z M 680 900 L 700 900 L 720 900 L 740 900 L 760 900 L 780 900 L 800 900 L 820 900 L 840 900 L 840 880 L 820 880 L 800 880 L 780 880 L 760 880 L 760 860 L 740 860 L 720 860 L 720 880 L 700 880 L 680 880 L 680 900 z M 760 860 L 780 860 L 800 860 L 800 840 L 780 840 L 760 840 L 760 860 z M 800 840 L 820 840 L 820 820 L 820 800 L 800 800 L 800 820 L 800 840 z M 840 880 L 860 880 L 860 860 L 840 860 L 840 880 z M 860 860 L 880 860 L 880 840 L 860 840 L 860 860 z M 880 840 L 900 840 L 900 820 L 880 820 L 880 840 z M 900 820 L 920 820 L 920 800 L 900 800 L 900 820 z M 920 800 L 940 800 L 940 780 L 940 760 L 940 740 L 940 720 L 940 700 L 940 680 L 940 660 L 940 640 L 940 620 L 940 600 L 940 580 L 940 560 L 920 560 L 920 580 L 920 600 L 920 620 L 920 640 L 920 660 L 920 680 L 920 700 L 920 720 L 920 740 L 920 760 L 920 780 L 920 800 z M 180 160 L 180 180 L 180 200 L 180 220 L 180 240 L 180 260 L 180 280 L 180 300 L 180 320 L 180 340 L 180 360 L 180 380 L 180 400 L 180 420 L 180 440 L 180 460 L 180 480 L 180 500 L 200 500 L 200 480 L 200 460 L 200 440 L 200 420 L 200 400 L 200 380 L 200 360 L 200 340 L 200 320 L 200 300 L 200 280 L 200 260 L 200 240 L 200 220 L 200 200 L 200 180 L 220 180 L 240 180 L 260 180 L 280 180 L 300 180 L 320 180 L 340 180 L 360 180 L 380 180 L 400 180 L 420 180 L 440 180 L 460 180 L 480 180 L 500 180 L 520 180 L 540 180 L 560 180 L 580 180 L 600 180 L 620 180 L 640 180 L 660 180 L 680 180 L 680 160 L 660 160 L 640 160 L 620 160 L 600 160 L 580 160 L 560 160 L 540 160 L 520 160 L 500 160 L 480 160 L 460 160 L 440 160 L 420 160 L 400 160 L 380 160 L 360 160 L 340 160 L 320 160 L 300 160 L 280 160 L 260 160 L 240 160 L 220 160 L 200 160 L 180 160 z M 320 240 L 320 260 L 340 260 L 360 260 L 380 260 L 400 260 L 420 260 L 440 260 L 460 260 L 480 260 L 500 260 L 500 280 L 500 300 L 500 320 L 520 320 L 520 300 L 520 280 L 520 260 L 520 240 L 500 240 L 480 240 L 460 240 L 440 240 L 420 240 L 400 240 L 380 240 L 360 240 L 340 240 L 320 240 z M 560 320 L 560 340 L 560 360 L 560 380 L 560 400 L 560 420 L 560 440 L 560 460 L 540 460 L 520 460 L 500 460 L 480 460 L 460 460 L 440 460 L 420 460 L 400 460 L 380 460 L 380 480 L 400 480 L 420 480 L 440 480 L 460 480 L 480 480 L 500 480 L 520 480 L 540 480 L 560 480 L 580 480 L 580 460 L 580 440 L 580 420 L 580 400 L 580 380 L 580 360 L 580 340 L 580 320 L 560 320 z M 320 380 L 320 400 L 340 400 L 360 400 L 380 400 L 380 380 L 360 380 L 340 380 L 320 380 z M 700 760 L 700 780 L 720 780 L 740 780 L 760 780 L 760 760 L 740 760 L 720 760 L 700 760 z M 700 780 L 680 780 L 680 800 L 700 800 L 700 780 z M 680 800 L 660 800 L 640 800 L 620 800 L 600 800 L 580 800 L 560 800 L 560 820 L 580 820 L 600 820 L 620 820 L 640 820 L 660 820 L 680 820 L 680 800 z M 560 800 L 560 780 L 540 780 L 520 780 L 500 780 L 500 800 L 520 800 L 540 800 L 560 800 z "
     style="fill:#000000" />
</svg>
