<?xml version="1.0" encoding="UTF-8" standalone="no"?>
<svg
   xmlns:dc="http://purl.org/dc/elements/1.1/"
   xmlns:cc="http://creativecommons.org/ns#"
   xmlns:rdf="http://www.w3.org/1999/02/22-rdf-syntax-ns#"
   xmlns:svg="http://www.w3.org/2000/svg"
   xmlns="http://www.w3.org/2000/svg"
   height="640px"
   version="1.1"
   width="640px"
   id="svg756">
  <metadata
     id="metadata760">
    <rdf:RDF>
      <cc:Work
         rdf:about="">
        <dc:format>image/svg+xml</dc:format>
        <dc:type
           rdf:resource="http://purl.org/dc/dcmitype/StillImage" />
      </cc:Work>
    </rdf:RDF>
  </metadata>
  <defs
     id="defs2" />
  <path
     id="rect4"
     d="M 240 0 L 240 20 L 260 20 L 260 0 L 240 0 z "
     style="fill:#7079b0" />
  <path
     id="rect6"
     d="M 260 0 L 260 20 L 280 20 L 280 0 L 260 0 z "
     style="fill:#163fa2" />
  <path
     id="rect8"
     d="M 220 20 L 220 40 L 240 40 L 240 20 L 220 20 z "
     style="fill:#888cb5" />
  <path
     id="rect10"
     d="M 240 20 L 240 40 L 260 40 L 260 20 L 240 20 z "
     style="fill:#4f69cc" />
  <path
     id="rect12"
     d="M 260 20 L 260 40 L 280 40 L 280 20 L 260 20 z "
     style="fill:#325bad" />
  <path
     id="rect14"
     d="M 200 40 L 200 60 L 220 60 L 220 40 L 200 40 z "
     style="fill:#787fb4" />
  <path
     id="rect16"
     d="M 220 40 L 220 60 L 240 60 L 240 40 L 220 40 z "
     style="fill:#707fd5" />
  <path
     id="rect18"
     d="M 240 40 L 240 60 L 260 60 L 260 40 L 240 40 z "
     style="fill:#5172d6" />
  <path
     id="rect20"
     d="M 260 40 L 260 60 L 280 60 L 280 40 L 260 40 z "
     style="fill:#1340b1" />
  <path
     id="rect24"
     d="M 200 60 L 200 80 L 220 80 L 220 60 L 200 60 z "
     style="fill:#6277d0" />
  <path
     id="rect26"
     d="M 220 60 L 220 80 L 240 80 L 240 60 L 220 60 z "
     style="fill:#8297db" />
  <path
     id="rect28"
     d="M 240 60 L 240 80 L 260 80 L 260 60 L 240 60 z "
     style="fill:#2852db" />
  <path
     id="rect30"
     d="M 260 60 L 260 80 L 280 80 L 280 60 L 260 60 z "
     style="fill:#1635c5" />
  <path
     id="rect34"
     d="M 160 80 L 160 100 L 180 100 L 180 80 L 160 80 z "
     style="fill:#767db2" />
  <path
     id="rect36"
     d="M 180 80 L 180 100 L 200 100 L 200 80 L 180 80 z "
     style="fill:#5d74ce" />
  <path
     id="rect38"
     d="M 200 80 L 200 100 L 220 100 L 220 80 L 200 80 z "
     style="fill:#7e95dd" />
  <path
     id="rect40"
     d="M 220 80 L 220 100 L 240 100 L 240 80 L 220 80 z "
     style="fill:#5a77e1" />
  <path
     id="rect42"
     d="M 240 80 L 240 100 L 260 100 L 260 80 L 240 80 z "
     style="fill:#2f48ec" />
  <path
     id="rect44"
     d="M 260 80 L 260 100 L 280 100 L 280 80 L 260 80 z "
     style="fill:#182fc9" />
  <path
     id="rect48"
     d="M 360 80 L 360 100 L 380 100 L 380 80 L 360 80 z "
     style="fill:#7c87af" />
  <path
     id="rect54"
     d="M 380 80 L 380 100 L 400 100 L 420 100 L 440 100 L 440 80 L 420 80 L 400 80 L 380 80 z "
     style="fill:#3546d2" />
  <path
     id="rect56"
     d="M 440 80 L 440 100 L 460 100 L 460 80 L 440 80 z "
     style="fill:#293dcc" />
  <path
     id="rect58"
     d="M 460 80 L 460 100 L 480 100 L 480 80 L 460 80 z "
     style="fill:#717da8" />
  <path
     id="rect60"
     d="M 160 100 L 160 120 L 180 120 L 180 100 L 160 100 z "
     style="fill:#4b66c6" />
  <path
     id="rect62"
     d="M 180 100 L 180 120 L 200 120 L 200 100 L 180 100 z "
     style="fill:#8096dd" />
  <path
     id="rect64"
     d="M 200 100 L 200 120 L 220 120 L 220 100 L 200 100 z "
     style="fill:#5c75e5" />
  <path
     id="rect66"
     d="M 220 100 L 220 120 L 240 120 L 240 100 L 220 100 z "
     style="fill:#5f72eb" />
  <path
     id="rect68"
     d="M 240 100 L 240 120 L 260 120 L 260 100 L 240 100 z "
     style="fill:#3345ea" />
  <path
     id="rect70"
     d="M 260 100 L 260 120 L 280 120 L 280 100 L 260 100 z "
     style="fill:#1a2ec3" />
  <path
     id="rect74"
     d="M 360 100 L 360 120 L 380 120 L 380 100 L 360 100 z "
     style="fill:#335db0" />
  <path
     id="rect76"
     d="M 380 100 L 380 120 L 400 120 L 400 100 L 380 100 z "
     style="fill:#6f84dd" />
  <path
     id="rect78"
     d="M 400 100 L 400 120 L 420 120 L 420 100 L 400 100 z "
     style="fill:#6b83de" />
  <path
     id="rect80"
     d="M 420 100 L 420 120 L 440 120 L 440 100 L 420 100 z "
     style="fill:#6982de" />
  <path
     id="rect82"
     d="M 440 100 L 440 120 L 460 120 L 460 100 L 440 100 z "
     style="fill:#4e71d3" />
  <path
     id="rect84"
     d="M 460 100 L 460 120 L 480 120 L 480 100 L 460 100 z "
     style="fill:#08399f" />
  <path
     id="rect88"
     d="M 180 120 L 180 140 L 200 140 L 200 120 L 180 120 z "
     style="fill:#7183e6" />
  <path
     id="rect94"
     d="M 240 120 L 240 140 L 260 140 L 260 120 L 240 120 z "
     style="fill:#3444ea" />
  <path
     id="rect96"
     d="M 260 120 L 260 140 L 280 140 L 280 120 L 260 120 z "
     style="fill:#1a2ec4" />
  <path
     id="rect100"
     d="M 360 120 L 360 140 L 380 140 L 380 120 L 360 120 z "
     style="fill:#2e5aab" />
  <path
     id="rect102"
     d="M 380 120 L 380 140 L 400 140 L 400 120 L 380 120 z "
     style="fill:#5f7be0" />
  <path
     id="rect104"
     d="M 400 120 L 400 140 L 420 140 L 420 120 L 400 120 z "
     style="fill:#5d78ee" />
  <path
     id="rect106"
     d="M 420 120 L 420 140 L 440 140 L 440 120 L 420 120 z "
     style="fill:#5b75ee" />
  <path
     id="rect108"
     d="M 440 120 L 440 140 L 460 140 L 460 120 L 440 120 z "
     style="fill:#4663ea" />
  <path
     id="rect110"
     d="M 460 120 L 460 140 L 480 140 L 480 120 L 460 120 z "
     style="fill:#0c29c5" />
  <path
     id="rect114"
     d="M 160 140 L 160 160 L 180 160 L 180 140 L 160 140 z "
     style="fill:#5574c5" />
  <path
     id="rect116"
     d="M 180 140 L 180 160 L 200 160 L 200 140 L 180 140 z "
     style="fill:#7181ea" />
  <path
     id="rect118"
     d="M 200 140 L 200 160 L 220 160 L 220 140 L 200 140 z "
     style="fill:#6270f3" />
  <path
     id="rect120"
     d="M 220 140 L 220 160 L 240 160 L 240 140 L 220 140 z "
     style="fill:#6170f4" />
  <path
     id="rect122"
     d="M 240 140 L 240 160 L 260 160 L 260 140 L 240 140 z "
     style="fill:#3346f0" />
  <path
     id="rect124"
     d="M 260 140 L 260 160 L 280 160 L 280 140 L 260 140 z "
     style="fill:#192fc7" />
  <path
     id="rect128"
     d="M 360 140 L 360 160 L 380 160 L 380 140 L 360 140 z "
     style="fill:#2f5caa" />
  <path
     id="rect130"
     d="M 380 140 L 380 160 L 400 160 L 400 140 L 380 140 z "
     style="fill:#617ae4" />
  <path
     id="rect132"
     d="M 400 140 L 400 160 L 420 160 L 420 140 L 400 140 z "
     style="fill:#6273f6" />
  <path
     id="rect134"
     d="M 420 140 L 420 160 L 440 160 L 440 140 L 420 140 z "
     style="fill:#5f6ff7" />
  <path
     id="rect144"
     d="M 180 160 L 180 180 L 200 180 L 200 160 L 180 160 z "
     style="fill:#7083ec" />
  <path
     id="rect146"
     d="M 200 160 L 200 180 L 220 180 L 220 160 L 200 160 z "
     style="fill:#6272f8" />
  <path
     id="rect150"
     d="M 240 160 L 240 180 L 260 180 L 260 160 L 240 160 z "
     style="fill:#3147f6" />
  <path
     id="rect152"
     d="M 260 160 L 260 180 L 280 180 L 280 160 L 260 160 z "
     style="fill:#182fcb" />
  <path
     id="rect156"
     d="M 360 160 L 360 180 L 380 180 L 380 160 L 360 160 z "
     style="fill:#3e65b0" />
  <path
     id="rect158"
     d="M 380 160 L 380 180 L 400 180 L 400 160 L 380 160 z "
     style="fill:#7184e5" />
  <path
     id="rect160"
     d="M 400 160 L 400 180 L 420 180 L 420 160 L 400 160 z "
     style="fill:#6170f1" />
  <path
     id="rect162"
     d="M 420 160 L 420 180 L 440 180 L 440 160 L 420 160 z "
     style="fill:#5f6df2" />
  <path
     id="rect166"
     d="M 460 160 L 460 180 L 480 180 L 480 160 L 460 160 z "
     style="fill:#1020ca" />
  <path
     id="rect176"
     d="M 220 180 L 220 200 L 240 200 L 240 180 L 220 180 z "
     style="fill:#6173fb" />
  <path
     id="rect178"
     d="M 240 180 L 240 200 L 260 200 L 260 180 L 240 180 z "
     style="fill:#324af6" />
  <path
     id="rect180"
     d="M 260 180 L 260 200 L 280 200 L 280 180 L 260 180 z "
     style="fill:#1830cd" />
  <path
     id="rect184"
     d="M 360 180 L 360 200 L 380 200 L 380 180 L 360 180 z "
     style="fill:#496fb4" />
  <path
     id="rect186"
     d="M 380 180 L 380 200 L 400 200 L 400 180 L 380 180 z "
     style="fill:#7689e2" />
  <path
     id="rect190"
     d="M 420 180 L 420 200 L 440 200 L 440 180 L 420 180 z "
     style="fill:#5f6bee" />
  <path
     id="rect206"
     d="M 240 200 L 240 220 L 260 220 L 260 200 L 240 200 z "
     style="fill:#4c60f5" />
  <path
     id="rect208"
     d="M 260 200 L 260 220 L 280 220 L 280 200 L 260 200 z "
     style="fill:#344dd7" />
  <path
     id="rect210"
     d="M 280 200 L 280 220 L 300 220 L 300 200 L 280 200 z "
     style="fill:#768ed2" />
  <path
     id="rect212"
     d="M 300 200 L 300 220 L 320 220 L 320 200 L 300 200 z "
     style="fill:#778dce" />
  <path
     id="rect214"
     d="M 320 200 L 320 220 L 340 220 L 340 200 L 320 200 z "
     style="fill:#788ecf" />
  <path
     id="rect216"
     d="M 340 200 L 340 220 L 360 220 L 360 200 L 340 200 z "
     style="fill:#899cd6" />
  <path
     id="rect218"
     d="M 360 200 L 360 220 L 380 220 L 380 200 L 360 200 z "
     style="fill:#8b9ad7" />
  <path
     id="rect220"
     d="M 380 200 L 380 220 L 400 220 L 400 200 L 380 200 z "
     style="fill:#7085e2" />
  <path
     id="rect234"
     d="M 180 180 L 180 200 L 200 200 L 200 180 L 180 180 z M 180 220 L 180 240 L 200 240 L 200 220 L 180 220 z "
     style="fill:#7183ed" />
  <path
     id="rect236"
     d="M 200 220 L 200 240 L 220 240 L 220 220 L 200 220 z "
     style="fill:#6271f6" />
  <path
     id="rect242"
     d="M 260 220 L 260 240 L 280 240 L 280 220 L 260 220 z "
     style="fill:#6479eb" />
  <path
     id="rect244"
     d="M 280 220 L 280 240 L 300 240 L 300 220 L 280 220 z "
     style="fill:#6f88d8" />
  <path
     id="rect246"
     d="M 300 220 L 300 240 L 320 240 L 320 220 L 300 220 z "
     style="fill:#7385d3" />
  <path
     id="rect248"
     d="M 320 220 L 320 240 L 340 240 L 340 220 L 320 220 z "
     style="fill:#8495da" />
  <path
     id="rect250"
     d="M 340 220 L 340 240 L 360 240 L 360 220 L 340 220 z "
     style="fill:#8293db" />
  <path
     id="rect252"
     d="M 360 220 L 360 240 L 380 240 L 380 220 L 360 220 z "
     style="fill:#6e83da" />
  <path
     id="rect254"
     d="M 380 220 L 380 240 L 400 240 L 400 220 L 380 220 z "
     style="fill:#5d75e1" />
  <path
     id="rect258"
     d="M 420 200 L 420 220 L 420 240 L 440 240 L 440 220 L 440 200 L 420 200 z "
     style="fill:#5e6bed" />
  <path
     id="rect262"
     d="M 460 200 L 460 220 L 460 240 L 480 240 L 480 220 L 480 200 L 460 200 z "
     style="fill:#0f22d0" />
  <path
     id="rect266"
     d="M 160 200 L 160 220 L 160 240 L 160 260 L 180 260 L 180 240 L 180 220 L 180 200 L 160 200 z "
     style="fill:#5575c4" />
  <path
     id="rect268"
     d="M 180 240 L 180 260 L 200 260 L 200 240 L 180 240 z "
     style="fill:#7283ec" />
  <path
     id="rect270"
     d="M 240 220 L 240 240 L 260 240 L 260 220 L 240 220 z M 200 240 L 200 260 L 220 260 L 220 240 L 200 240 z "
     style="fill:#6271f4" />
  <path
     id="rect272"
     d="M 220 240 L 220 260 L 240 260 L 240 240 L 220 240 z "
     style="fill:#6170f3" />
  <path
     id="rect276"
     d="M 260 240 L 260 260 L 280 260 L 280 240 L 260 240 z "
     style="fill:#606fec" />
  <path
     id="rect278"
     d="M 280 240 L 280 260 L 300 260 L 300 240 L 280 240 z "
     style="fill:#5d75e2" />
  <path
     id="rect282"
     d="M 300 240 L 300 260 L 320 260 L 340 260 L 340 240 L 320 240 L 300 240 z "
     style="fill:#5c75df" />
  <path
     id="rect284"
     d="M 340 240 L 340 260 L 360 260 L 360 240 L 340 240 z "
     style="fill:#5c75e1" />
  <path
     id="rect286"
     d="M 360 240 L 360 260 L 380 260 L 380 240 L 360 240 z "
     style="fill:#5d74e3" />
  <path
     id="rect288"
     d="M 380 240 L 380 260 L 400 260 L 400 240 L 380 240 z "
     style="fill:#6170e9" />
  <path
     id="rect292"
     d="M 420 240 L 420 260 L 440 260 L 440 240 L 420 240 z "
     style="fill:#5f6bef" />
  <path
     id="rect294"
     d="M 440 240 L 440 260 L 460 260 L 460 240 L 440 240 z "
     style="fill:#4b58eb" />
  <path
     id="rect296"
     d="M 460 180 L 460 200 L 480 200 L 480 180 L 460 180 z M 460 240 L 460 260 L 480 260 L 480 240 L 460 240 z "
     style="fill:#1021cd" />
  <path
     id="rect302"
     d="M 180 260 L 180 280 L 200 280 L 200 260 L 180 260 z "
     style="fill:#7282eb" />
  <path
     id="rect306"
     d="M 220 260 L 220 280 L 240 280 L 240 260 L 220 260 z "
     style="fill:#626fef" />
  <path
     id="rect312"
     d="M 280 260 L 280 280 L 300 280 L 300 260 L 280 260 z "
     style="fill:#6170ef" />
  <path
     id="rect314"
     d="M 300 260 L 300 280 L 320 280 L 320 260 L 300 260 z "
     style="fill:#606fed" />
  <path
     id="rect316"
     d="M 320 260 L 320 280 L 340 280 L 340 260 L 320 260 z "
     style="fill:#616fec" />
  <path
     id="rect320"
     d="M 200 120 L 200 140 L 220 140 L 220 120 L 200 120 z M 340 260 L 340 280 L 360 280 L 380 280 L 380 260 L 360 260 L 340 260 z "
     style="fill:#616fee" />
  <path
     id="rect324"
     d="M 400 260 L 400 280 L 420 280 L 420 260 L 400 260 z "
     style="fill:#626ff0" />
  <path
     id="rect326"
     d="M 420 260 L 420 280 L 440 280 L 440 260 L 420 260 z "
     style="fill:#606df1" />
  <path
     id="rect328"
     d="M 440 260 L 440 280 L 460 280 L 460 260 L 440 260 z "
     style="fill:#4b59ec" />
  <path
     id="rect330"
     d="M 460 260 L 460 280 L 480 280 L 480 260 L 460 260 z "
     style="fill:#1020cc" />
  <path
     id="rect336"
     d="M 180 280 L 180 300 L 200 300 L 200 280 L 180 280 z "
     style="fill:#7182e9" />
  <path
     id="rect338"
     d="M 240 240 L 240 260 L 260 260 L 260 240 L 240 240 z M 200 280 L 200 300 L 220 300 L 220 280 L 200 280 z "
     style="fill:#616fef" />
  <path
     id="rect342"
     d="M 240 280 L 240 300 L 260 300 L 260 280 L 240 280 z "
     style="fill:#5f6df0" />
  <path
     id="rect344"
     d="M 260 280 L 260 300 L 280 300 L 280 280 L 260 280 z "
     style="fill:#5565f2" />
  <path
     id="rect348"
     d="M 280 280 L 280 300 L 300 300 L 320 300 L 320 280 L 300 280 L 280 280 z "
     style="fill:#4b5df2" />
  <path
     id="rect350"
     d="M 320 280 L 320 300 L 340 300 L 340 280 L 320 280 z "
     style="fill:#4c5def" />
  <path
     id="rect352"
     d="M 340 280 L 340 300 L 360 300 L 360 280 L 340 280 z "
     style="fill:#4e5dee" />
  <path
     id="rect354"
     d="M 360 280 L 360 300 L 380 300 L 380 280 L 360 280 z "
     style="fill:#5d69ef" />
  <path
     id="rect356"
     d="M 200 260 L 200 280 L 220 280 L 220 260 L 200 260 z M 380 280 L 380 300 L 400 300 L 400 280 L 380 280 z "
     style="fill:#6170f2" />
  <path
     id="rect358"
     d="M 400 280 L 400 300 L 420 300 L 420 280 L 400 280 z "
     style="fill:#6271f5" />
  <path
     id="rect360"
     d="M 420 280 L 420 300 L 440 300 L 440 280 L 420 280 z "
     style="fill:#606ef4" />
  <path
     id="rect364"
     d="M 460 280 L 460 300 L 480 300 L 480 280 L 460 280 z "
     style="fill:#1120c9" />
  <path
     id="rect372"
     d="M 400 240 L 400 260 L 420 260 L 420 240 L 400 240 z M 240 260 L 240 280 L 260 280 L 260 260 L 240 260 z M 200 300 L 200 320 L 220 320 L 220 300 L 200 300 z "
     style="fill:#616dee" />
  <path
     id="rect376"
     d="M 240 300 L 240 320 L 260 320 L 260 300 L 240 300 z "
     style="fill:#4e5eef" />
  <path
     id="rect378"
     d="M 260 300 L 260 320 L 280 320 L 280 300 L 260 300 z "
     style="fill:#1f35eb" />
  <path
     id="rect380"
     d="M 280 300 L 280 320 L 300 320 L 300 300 L 280 300 z "
     style="fill:#1327e1" />
  <path
     id="rect382"
     d="M 300 300 L 300 320 L 320 320 L 320 300 L 300 300 z "
     style="fill:#1226e1" />
  <path
     id="rect384"
     d="M 320 300 L 320 320 L 340 320 L 340 300 L 320 300 z "
     style="fill:#1326df" />
  <path
     id="rect386"
     d="M 340 300 L 340 320 L 360 320 L 360 300 L 340 300 z "
     style="fill:#1729e0" />
  <path
     id="rect388"
     d="M 360 300 L 360 320 L 380 320 L 380 300 L 360 300 z "
     style="fill:#3a4cee" />
  <path
     id="rect390"
     d="M 380 300 L 380 320 L 400 320 L 400 300 L 380 300 z "
     style="fill:#5f6ff5" />
  <path
     id="rect392"
     d="M 220 160 L 220 180 L 240 180 L 240 160 L 220 160 z M 400 300 L 400 320 L 420 320 L 420 300 L 400 300 z "
     style="fill:#6172f9" />
  <path
     id="rect394"
     d="M 420 300 L 420 320 L 440 320 L 440 300 L 420 300 z "
     style="fill:#5f6ef6" />
  <path
     id="rect396"
     d="M 440 300 L 440 320 L 460 320 L 460 300 L 440 300 z "
     style="fill:#4a5af1" />
  <path
     id="rect398"
     d="M 460 300 L 460 320 L 480 320 L 480 300 L 460 300 z "
     style="fill:#1021ca" />
  <path
     id="rect410"
     d="M 240 320 L 240 340 L 260 340 L 260 320 L 240 320 z "
     style="fill:#3b4cec" />
  <path
     id="rect412"
     d="M 260 320 L 260 340 L 280 340 L 280 320 L 260 320 z "
     style="fill:#1b2ed3" />
  <path
     id="rect414"
     d="M 280 320 L 280 340 L 300 340 L 300 320 L 280 320 z "
     style="fill:#919191" />
  <path
     id="rect422"
     d="M 360 320 L 360 340 L 380 340 L 380 320 L 360 320 z "
     style="fill:#3954d0" />
  <path
     id="rect424"
     d="M 380 320 L 380 340 L 400 340 L 400 320 L 380 320 z "
     style="fill:#5c72f2" />
  <path
     id="rect428"
     d="M 420 320 L 420 340 L 440 340 L 440 320 L 420 320 z "
     style="fill:#5f70f9" />
  <path
     id="rect430"
     d="M 440 320 L 440 340 L 460 340 L 460 320 L 440 320 z "
     style="fill:#4a5cf3" />
  <path
     id="rect444"
     d="M 240 340 L 240 360 L 260 360 L 260 340 L 240 340 z "
     style="fill:#3a4aed" />
  <path
     id="rect446"
     d="M 260 340 L 260 360 L 280 360 L 280 340 L 260 340 z "
     style="fill:#1529c9" />
  <path
     id="rect450"
     d="M 360 340 L 360 360 L 380 360 L 380 340 L 360 340 z "
     style="fill:#305bb8" />
  <path
     id="rect452"
     d="M 380 340 L 380 360 L 400 360 L 400 340 L 380 340 z "
     style="fill:#5c7ae9" />
  <path
     id="rect454"
     d="M 200 180 L 200 200 L 200 220 L 220 220 L 220 200 L 220 180 L 200 180 z M 400 340 L 400 360 L 420 360 L 420 340 L 400 340 z "
     style="fill:#6173f9" />
  <path
     id="rect456"
     d="M 420 340 L 420 360 L 440 360 L 440 340 L 420 340 z "
     style="fill:#5f70fa" />
  <path
     id="rect458"
     d="M 440 340 L 440 360 L 460 360 L 460 340 L 440 340 z "
     style="fill:#4a5cf4" />
  <path
     id="rect472"
     d="M 240 360 L 240 380 L 260 380 L 260 360 L 240 360 z "
     style="fill:#3a4aec" />
  <path
     id="rect474"
     d="M 260 360 L 260 380 L 280 380 L 280 360 L 260 360 z "
     style="fill:#1529c8" />
  <path
     id="rect478"
     d="M 360 360 L 360 380 L 380 380 L 380 360 L 360 360 z "
     style="fill:#2d5aad" />
  <path
     id="rect480"
     d="M 380 360 L 380 380 L 400 380 L 400 360 L 380 360 z "
     style="fill:#5a7ce6" />
  <path
     id="rect488"
     d="M 460 140 L 460 160 L 480 160 L 480 140 L 460 140 z M 460 320 L 460 340 L 460 360 L 460 380 L 480 380 L 480 360 L 480 340 L 480 320 L 460 320 z "
     style="fill:#1021cb" />
  <path
     id="rect496"
     d="M 200 380 L 200 400 L 220 400 L 220 380 L 200 380 z "
     style="fill:#616ded" />
  <path
     id="rect500"
     d="M 240 380 L 240 400 L 260 400 L 260 380 L 240 380 z "
     style="fill:#3a4aeb" />
  <path
     id="rect502"
     d="M 260 380 L 260 400 L 280 400 L 280 380 L 260 380 z "
     style="fill:#1529c6" />
  <path
     id="rect510"
     d="M 400 380 L 400 400 L 420 400 L 420 380 L 400 380 z "
     style="fill:#6172f7" />
  <path
     id="rect512"
     d="M 420 380 L 420 400 L 440 400 L 440 380 L 420 380 z "
     style="fill:#5f6ff6" />
  <path
     id="rect514"
     d="M 440 380 L 440 400 L 460 400 L 460 380 L 440 380 z "
     style="fill:#4a5af0" />
  <path
     id="rect516"
     d="M 460 380 L 460 400 L 480 400 L 480 380 L 460 380 z "
     style="fill:#1121ca" />
  <path
     id="rect526"
     d="M 200 400 L 200 420 L 220 420 L 240 420 L 240 400 L 220 400 L 200 400 z "
     style="fill:#626eed" />
  <path
     id="rect530"
     d="M 260 400 L 260 420 L 280 420 L 280 400 L 260 400 z "
     style="fill:#1529c4" />
  <path
     id="rect536"
     d="M 380 400 L 380 420 L 400 420 L 400 400 L 380 400 z "
     style="fill:#5b79e0" />
  <path
     id="rect538"
     d="M 400 400 L 400 420 L 420 420 L 420 400 L 400 400 z "
     style="fill:#6171f4" />
  <path
     id="rect540"
     d="M 420 400 L 420 420 L 440 420 L 440 400 L 420 400 z "
     style="fill:#5f6ef3" />
  <path
     id="rect542"
     d="M 440 160 L 440 180 L 460 180 L 460 160 L 440 160 z M 440 400 L 440 420 L 460 420 L 460 400 L 440 400 z "
     style="fill:#4a59ed" />
  <path
     id="rect544"
     d="M 460 400 L 460 420 L 480 420 L 480 400 L 460 400 z "
     style="fill:#1021cc" />
  <path
     id="rect550"
     d="M 180 300 L 180 320 L 180 340 L 180 360 L 180 380 L 180 400 L 180 420 L 180 440 L 200 440 L 200 420 L 200 400 L 200 380 L 200 360 L 200 340 L 200 320 L 200 300 L 180 300 z "
     style="fill:#7181e8" />
  <path
     id="rect552"
     d="M 220 120 L 220 140 L 240 140 L 240 120 L 220 120 z M 220 280 L 220 300 L 240 300 L 240 280 L 220 280 z M 220 340 L 220 360 L 220 380 L 240 380 L 240 360 L 240 340 L 220 340 z M 200 420 L 200 440 L 220 440 L 220 420 L 200 420 z "
     style="fill:#616eef" />
  <path
     id="rect554"
     d="M 400 180 L 400 200 L 420 200 L 420 180 L 400 180 z M 380 260 L 380 280 L 400 280 L 400 260 L 380 260 z M 220 300 L 220 320 L 200 320 L 200 340 L 200 360 L 200 380 L 220 380 L 220 360 L 220 340 L 240 340 L 240 320 L 240 300 L 220 300 z M 220 380 L 220 400 L 240 400 L 240 380 L 220 380 z M 220 420 L 220 440 L 240 440 L 240 420 L 220 420 z "
     style="fill:#616eee" />
  <path
     id="rect556"
     d="M 240 400 L 240 420 L 240 440 L 260 440 L 260 420 L 260 400 L 240 400 z "
     style="fill:#3a4ae8" />
  <path
     id="rect558"
     d="M 260 420 L 260 440 L 280 440 L 280 420 L 260 420 z "
     style="fill:#1528c2" />
  <path
     id="rect564"
     d="M 380 420 L 380 440 L 400 440 L 400 420 L 380 420 z "
     style="fill:#5b79de" />
  <path
     id="rect566"
     d="M 400 420 L 400 440 L 420 440 L 420 420 L 400 420 z "
     style="fill:#6170f0" />
  <path
     id="rect568"
     d="M 420 420 L 420 440 L 440 440 L 440 420 L 420 420 z "
     style="fill:#5e6cef" />
  <path
     id="rect570"
     d="M 440 180 L 440 200 L 440 220 L 440 240 L 460 240 L 460 220 L 460 200 L 460 180 L 440 180 z M 440 420 L 440 440 L 460 440 L 460 420 L 440 420 z "
     style="fill:#4958eb" />
  <path
     id="rect572"
     d="M 460 420 L 460 440 L 480 440 L 480 420 L 460 420 z "
     style="fill:#0f21ce" />
  <path
     id="rect576"
     d="M 160 160 L 160 180 L 160 200 L 180 200 L 180 180 L 180 160 L 160 160 z M 160 260 L 160 280 L 160 300 L 160 320 L 160 340 L 160 360 L 160 380 L 160 400 L 160 420 L 160 440 L 160 460 L 180 460 L 180 440 L 180 420 L 180 400 L 180 380 L 180 360 L 180 340 L 180 320 L 180 300 L 180 280 L 180 260 L 160 260 z "
     style="fill:#5574c4" />
  <path
     id="rect578"
     d="M 180 440 L 180 460 L 200 460 L 200 440 L 180 440 z "
     style="fill:#7182eb" />
  <path
     id="rect580"
     d="M 200 440 L 200 460 L 220 460 L 220 440 L 200 440 z "
     style="fill:#6271f3" />
  <path
     id="rect582"
     d="M 220 440 L 220 460 L 240 460 L 240 440 L 220 440 z "
     style="fill:#6270f2" />
  <path
     id="rect584"
     d="M 240 440 L 240 460 L 260 460 L 260 440 L 240 440 z "
     style="fill:#3a49ea" />
  <path
     id="rect586"
     d="M 260 440 L 260 460 L 280 460 L 280 440 L 260 440 z "
     style="fill:#1528c1" />
  <path
     id="rect592"
     d="M 380 440 L 380 460 L 400 460 L 400 440 L 380 440 z "
     style="fill:#5c79dd" />
  <path
     id="rect594"
     d="M 400 200 L 400 220 L 400 240 L 420 240 L 420 220 L 420 200 L 400 200 z M 400 440 L 400 460 L 420 460 L 420 440 L 400 440 z "
     style="fill:#616eed" />
  <path
     id="rect596"
     d="M 420 440 L 420 460 L 440 460 L 440 440 L 420 440 z "
     style="fill:#5f6cef" />
  <path
     id="rect598"
     d="M 440 280 L 440 300 L 460 300 L 460 280 L 440 280 z M 440 440 L 440 460 L 460 460 L 460 440 L 440 440 z "
     style="fill:#4a5aee" />
  <path
     id="rect600"
     d="M 460 440 L 460 460 L 480 460 L 480 440 L 460 440 z "
     style="fill:#0e22d3" />
  <path
     id="rect604"
     d="M 160 460 L 160 480 L 180 480 L 180 460 L 160 460 z "
     style="fill:#5573c5" />
  <path
     id="rect606"
     d="M 180 200 L 180 220 L 200 220 L 200 200 L 180 200 z M 180 460 L 180 480 L 200 480 L 200 460 L 180 460 z "
     style="fill:#7183ee" />
  <path
     id="rect610"
     d="M 220 220 L 220 240 L 240 240 L 240 220 L 220 220 z M 200 460 L 200 480 L 220 480 L 240 480 L 240 460 L 220 460 L 200 460 z "
     style="fill:#6271f7" />
  <path
     id="rect612"
     d="M 240 460 L 240 480 L 260 480 L 260 460 L 240 460 z "
     style="fill:#3a4bed" />
  <path
     id="rect614"
     d="M 260 460 L 260 480 L 280 480 L 280 460 L 260 460 z "
     style="fill:#1528c4" />
  <path
     id="rect620"
     d="M 380 460 L 380 480 L 400 480 L 400 460 L 380 460 z "
     style="fill:#5b79dd" />
  <path
     id="rect622"
     d="M 260 260 L 260 280 L 280 280 L 280 260 L 260 260 z M 400 460 L 400 480 L 420 480 L 420 460 L 400 460 z "
     style="fill:#616ff0" />
  <path
     id="rect624"
     d="M 420 460 L 420 480 L 440 480 L 440 460 L 420 460 z "
     style="fill:#606ef3" />
  <path
     id="rect626"
     d="M 440 140 L 440 160 L 460 160 L 460 140 L 440 140 z M 440 360 L 440 380 L 460 380 L 460 360 L 440 360 z M 440 460 L 440 480 L 460 480 L 460 460 L 440 460 z "
     style="fill:#4a5bf2" />
  <path
     id="rect628"
     d="M 460 460 L 460 480 L 480 480 L 480 460 L 460 460 z "
     style="fill:#0e23d7" />
  <path
     id="rect632"
     d="M 160 120 L 160 140 L 180 140 L 180 120 L 160 120 z M 160 480 L 160 500 L 180 500 L 180 480 L 160 480 z "
     style="fill:#5574c6" />
  <path
     id="rect634"
     d="M 180 480 L 180 500 L 200 500 L 200 480 L 180 480 z "
     style="fill:#7184f1" />
  <path
     id="rect638"
     d="M 220 200 L 220 220 L 240 220 L 240 200 L 220 200 z M 400 320 L 400 340 L 420 340 L 420 320 L 400 320 z M 400 360 L 400 380 L 420 380 L 420 360 L 400 360 z M 200 480 L 200 500 L 220 500 L 240 500 L 240 480 L 220 480 L 200 480 z "
     style="fill:#6173fa" />
  <path
     id="rect640"
     d="M 240 480 L 240 500 L 260 500 L 260 480 L 240 480 z "
     style="fill:#384cf3" />
  <path
     id="rect642"
     d="M 260 480 L 260 500 L 280 500 L 280 480 L 260 480 z "
     style="fill:#142ac8" />
  <path
     id="rect646"
     d="M 360 400 L 360 420 L 360 440 L 360 460 L 360 480 L 360 500 L 380 500 L 380 480 L 380 460 L 380 440 L 380 420 L 380 400 L 360 400 z "
     style="fill:#2e5aaa" />
  <path
     id="rect648"
     d="M 380 480 L 380 500 L 400 500 L 400 480 L 380 480 z "
     style="fill:#5b7ae0" />
  <path
     id="rect650"
     d="M 400 480 L 400 500 L 420 500 L 420 480 L 400 480 z "
     style="fill:#6171f5" />
  <path
     id="rect652"
     d="M 420 360 L 420 380 L 440 380 L 440 360 L 420 360 z M 420 480 L 420 500 L 440 500 L 440 480 L 420 480 z "
     style="fill:#5f70f8" />
  <path
     id="rect654"
     d="M 440 480 L 440 500 L 460 500 L 460 480 L 440 480 z "
     style="fill:#485df9" />
  <path
     id="rect656"
     d="M 460 480 L 460 500 L 480 500 L 480 480 L 460 480 z "
     style="fill:#0b24df" />
  <path
     id="rect660"
     d="M 160 500 L 160 520 L 180 520 L 180 500 L 160 500 z "
     style="fill:#2f5abf" />
  <path
     id="rect662"
     d="M 180 500 L 180 520 L 200 520 L 200 500 L 180 500 z "
     style="fill:#4260ee" />
  <path
     id="rect666"
     d="M 200 500 L 200 520 L 220 520 L 240 520 L 240 500 L 220 500 L 200 500 z "
     style="fill:#3f57fa" />
  <path
     id="rect668"
     d="M 240 500 L 240 520 L 260 520 L 260 500 L 240 500 z "
     style="fill:#2640f6" />
  <path
     id="rect670"
     d="M 260 500 L 260 520 L 280 520 L 280 500 L 260 500 z "
     style="fill:#132acd" />
  <path
     id="rect674"
     d="M 360 380 L 360 400 L 380 400 L 380 380 L 360 380 z M 360 500 L 360 520 L 380 520 L 380 500 L 360 500 z "
     style="fill:#2e5bab" />
  <path
     id="rect676"
     d="M 380 380 L 380 400 L 400 400 L 400 380 L 380 380 z M 380 500 L 380 520 L 400 520 L 400 500 L 380 500 z "
     style="fill:#5a7ce5" />
  <path
     id="rect678"
     d="M 400 500 L 400 520 L 420 520 L 420 500 L 400 500 z "
     style="fill:#6172fa" />
  <path
     id="rect680"
     d="M 420 500 L 420 520 L 440 520 L 440 500 L 420 500 z "
     style="fill:#566afb" />
  <path
     id="rect682"
     d="M 440 500 L 440 520 L 460 520 L 460 500 L 440 500 z "
     style="fill:#3d55fa" />
  <path
     id="rect684"
     d="M 460 500 L 460 520 L 480 520 L 480 500 L 460 500 z "
     style="fill:#122cdd" />
  <path
     id="rect688"
     d="M 160 520 L 160 540 L 180 540 L 180 520 L 160 520 z "
     style="fill:#3a53a4" />
  <path
     id="rect690"
     d="M 180 520 L 180 540 L 200 540 L 200 520 L 180 520 z "
     style="fill:#051fd5" />
  <path
     id="rect692"
     d="M 200 520 L 200 540 L 220 540 L 220 520 L 200 520 z "
     style="fill:#051de2" />
  <path
     id="rect694"
     d="M 220 520 L 220 540 L 240 540 L 240 520 L 220 520 z "
     style="fill:#051ce3" />
  <path
     id="rect696"
     d="M 240 520 L 240 540 L 260 540 L 260 520 L 240 520 z "
     style="fill:#031ce0" />
  <path
     id="rect698"
     d="M 260 520 L 260 540 L 280 540 L 280 520 L 260 520 z "
     style="fill:#0d23c9" />
  <path
     id="rect702"
     d="M 360 520 L 360 540 L 380 540 L 380 520 L 360 520 z "
     style="fill:#2f5bb2" />
  <path
     id="rect704"
     d="M 380 520 L 380 540 L 400 540 L 400 520 L 380 520 z "
     style="fill:#5b7de7" />
  <path
     id="rect706"
     d="M 400 520 L 400 540 L 420 540 L 420 520 L 400 520 z "
     style="fill:#4f64fa" />
  <path
     id="rect710"
     d="M 440 520 L 440 540 L 460 540 L 460 520 L 440 520 z "
     style="fill:#1e36e3" />
  <path
     id="rect712"
     d="M 460 520 L 460 540 L 480 540 L 480 520 L 460 520 z "
     style="fill:#7f839f" />
  <path
     id="rect714"
     d="M 180 540 L 180 560 L 200 560 L 200 540 L 180 540 z "
     style="fill:#787b9f" />
  <path
     id="rect722"
     d="M 200 540 L 200 560 L 220 560 L 240 560 L 260 560 L 280 560 L 280 540 L 260 540 L 240 540 L 220 540 L 200 540 z "
     style="fill:#636790" />
  <path
     id="rect724"
     d="M 280 40 L 280 60 L 280 80 L 280 100 L 280 120 L 280 140 L 280 160 L 280 180 L 280 200 L 300 200 L 300 180 L 300 160 L 300 140 L 300 120 L 300 100 L 300 80 L 300 60 L 300 40 L 280 40 z M 480 120 L 480 140 L 480 160 L 480 180 L 480 200 L 480 220 L 480 240 L 480 260 L 480 280 L 480 300 L 480 320 L 480 340 L 480 360 L 480 380 L 480 400 L 480 420 L 480 440 L 480 460 L 480 480 L 480 500 L 480 520 L 500 520 L 500 500 L 500 480 L 500 460 L 500 440 L 500 420 L 500 400 L 500 380 L 500 360 L 500 340 L 500 320 L 500 300 L 500 280 L 500 260 L 500 240 L 500 220 L 500 200 L 500 180 L 500 160 L 500 140 L 500 120 L 480 120 z M 300 320 L 300 340 L 320 340 L 340 340 L 360 340 L 360 320 L 340 320 L 320 320 L 300 320 z M 300 340 L 280 340 L 280 360 L 280 380 L 280 400 L 280 420 L 280 440 L 280 460 L 280 480 L 280 500 L 280 520 L 280 540 L 280 560 L 300 560 L 300 540 L 300 520 L 300 500 L 300 480 L 300 460 L 300 440 L 300 420 L 300 400 L 300 380 L 300 360 L 300 340 z "
     style="fill:#999999" />
  <path
     id="rect726"
     d="M 360 540 L 360 560 L 380 560 L 380 540 L 360 540 z "
     style="fill:#2f5cb6" />
  <path
     id="rect728"
     d="M 380 540 L 380 560 L 400 560 L 400 540 L 380 540 z "
     style="fill:#5071e7" />
  <path
     id="rect730"
     d="M 420 520 L 420 540 L 440 540 L 440 520 L 420 520 z M 420 540 L 400 540 L 400 560 L 420 560 L 420 540 z "
     style="fill:#1f3bf9" />
  <path
     id="rect732"
     d="M 420 540 L 420 560 L 440 560 L 440 540 L 420 540 z "
     style="fill:#132ae9" />
  <path
     id="rect734"
     d="M 440 540 L 440 560 L 460 560 L 460 540 L 440 540 z "
     style="fill:#7a7e9b" />
  <path
     id="rect736"
     d="M 360 560 L 360 580 L 380 580 L 380 560 L 360 560 z "
     style="fill:#1e51b3" />
  <path
     id="rect738"
     d="M 380 560 L 380 580 L 400 580 L 400 560 L 380 560 z "
     style="fill:#1440dd" />
  <path
     id="rect740"
     d="M 400 560 L 400 580 L 420 580 L 420 560 L 400 560 z "
     style="fill:#2134d4" />
  <path
     id="rect742"
     d="M 420 560 L 420 580 L 440 580 L 440 560 L 420 560 z "
     style="fill:#7e8097" />
  <path
     id="rect744"
     d="M 360 580 L 360 600 L 380 600 L 380 580 L 360 580 z "
     style="fill:#1144a9" />
  <path
     id="rect746"
     d="M 380 580 L 380 600 L 400 600 L 400 580 L 380 580 z "
     style="fill:#1135c3" />
  <path
     id="rect748"
     d="M 400 580 L 400 600 L 420 600 L 420 580 L 400 580 z "
     style="fill:#7e8096" />
  <path
     id="rect750"
     d="M 360 600 L 360 620 L 380 620 L 380 600 L 360 600 z "
     style="fill:#2c4f93" />
  <path
     id="rect752"
     d="M 380 600 L 380 620 L 400 620 L 400 600 L 380 600 z "
     style="fill:#7e8490" />
  <path
     id="rect754"
     d="M 360 620 L 360 640 L 380 640 L 380 620 L 360 620 z "
     style="fill:#808690" />
</svg>
