<?xml version="1.0" encoding="UTF-8" standalone="no"?>
<svg
   xmlns:dc="http://purl.org/dc/elements/1.1/"
   xmlns:cc="http://creativecommons.org/ns#"
   xmlns:rdf="http://www.w3.org/1999/02/22-rdf-syntax-ns#"
   xmlns:svg="http://www.w3.org/2000/svg"
   xmlns="http://www.w3.org/2000/svg"
   id="svg1400"
   width="640px"
   version="1.1"
   height="640px">
  <metadata
     id="metadata1404">
    <rdf:RDF>
      <cc:Work
         rdf:about="">
        <dc:format>image/svg+xml</dc:format>
        <dc:type
           rdf:resource="http://purl.org/dc/dcmitype/StillImage" />
      </cc:Work>
    </rdf:RDF>
  </metadata>
  <defs
     id="defs2" />
  <path
     style="fill:#0000ff"
     d="M 140 60 L 140 80 L 140 100 L 160 100 L 160 80 L 160 60 L 140 60 z M 160 100 L 160 120 L 160 140 L 180 140 L 180 120 L 180 100 L 160 100 z M 180 140 L 180 160 L 180 180 L 200 180 L 200 160 L 200 140 L 180 140 z M 200 180 L 200 200 L 220 200 L 220 180 L 200 180 z M 220 200 L 220 220 L 240 220 L 240 200 L 220 200 z "
     id="rect406" />
  <path
     style="fill:#00ff00"
     d="M 200 20 L 200 40 L 180 40 L 180 60 L 180 80 L 200 80 L 200 100 L 200 120 L 220 120 L 220 140 L 220 160 L 240 160 L 240 140 L 240 120 L 240 100 L 240 80 L 220 80 L 220 60 L 220 40 L 220 20 L 200 20 z M 20 180 L 20 200 L 20 220 L 40 220 L 60 220 L 80 220 L 80 240 L 100 240 L 120 240 L 140 240 L 140 220 L 120 220 L 100 220 L 100 200 L 80 200 L 60 200 L 60 180 L 40 180 L 20 180 z "
     id="rect448" />
  <path
     style="fill:#ffff00"
     d="M 220 20 L 220 40 L 220 60 L 220 80 L 240 80 L 240 100 L 240 120 L 240 140 L 240 160 L 240 180 L 240 200 L 260 200 L 260 180 L 260 160 L 280 160 L 280 140 L 260 140 L 260 120 L 280 120 L 280 100 L 260 100 L 260 80 L 280 80 L 280 60 L 260 60 L 260 40 L 280 40 L 280 20 L 260 20 L 240 20 L 220 20 z M 40 160 L 40 180 L 60 180 L 60 200 L 80 200 L 100 200 L 100 220 L 120 220 L 140 220 L 140 200 L 120 200 L 120 180 L 100 180 L 80 180 L 80 160 L 60 160 L 40 160 z M 140 220 L 140 240 L 160 240 L 160 220 L 140 220 z "
     id="rect450" />
  <path
     style="fill:#ff00ff"
     d="M 20 220 L 20 240 L 20 260 L 40 260 L 60 260 L 80 260 L 100 260 L 120 260 L 140 260 L 160 260 L 180 260 L 200 260 L 200 240 L 180 240 L 160 240 L 140 240 L 120 240 L 100 240 L 80 240 L 80 220 L 60 220 L 40 220 L 20 220 z "
     id="rect506" />
  <path
     style="fill:#ffffff"
     d="M 340 40 L 340 60 L 360 60 L 360 40 L 340 40 z M 360 60 L 360 80 L 380 80 L 380 60 L 360 60 z M 380 80 L 380 100 L 360 100 L 360 120 L 340 120 L 340 140 L 320 140 L 320 160 L 300 160 L 300 180 L 320 180 L 320 200 L 320 220 L 340 220 L 340 200 L 360 200 L 360 180 L 380 180 L 380 160 L 400 160 L 400 140 L 420 140 L 420 120 L 440 120 L 440 100 L 440 80 L 420 80 L 420 60 L 400 60 L 400 80 L 380 80 z M 320 220 L 300 220 L 300 240 L 320 240 L 320 220 z M 320 140 L 320 120 L 300 120 L 300 140 L 320 140 z M 320 120 L 340 120 L 340 100 L 320 100 L 320 120 z M 320 100 L 320 80 L 300 80 L 300 100 L 320 100 z M 320 80 L 340 80 L 340 60 L 320 60 L 320 80 z M 340 80 L 340 100 L 360 100 L 360 80 L 340 80 z M 240 240 L 240 260 L 260 260 L 260 240 L 240 240 z M 440 260 L 440 280 L 460 280 L 480 280 L 480 300 L 500 300 L 500 280 L 500 260 L 480 260 L 460 260 L 440 260 z M 200 280 L 200 300 L 180 300 L 180 320 L 160 320 L 160 340 L 140 340 L 140 360 L 120 360 L 120 380 L 100 380 L 100 400 L 80 400 L 80 420 L 80 440 L 100 440 L 100 460 L 120 460 L 120 440 L 120 420 L 140 420 L 140 400 L 160 400 L 160 380 L 180 380 L 180 360 L 200 360 L 200 340 L 220 340 L 220 320 L 240 320 L 240 300 L 220 300 L 220 280 L 200 280 z "
     id="rect1048" />
  <path
     style="fill:#00ffff"
     d="M 60 120 L 60 140 L 40 140 L 40 160 L 60 160 L 80 160 L 80 180 L 100 180 L 120 180 L 120 160 L 100 160 L 100 140 L 80 140 L 80 120 L 60 120 z M 120 180 L 120 200 L 140 200 L 140 180 L 120 180 z M 140 200 L 140 220 L 160 220 L 160 200 L 140 200 z M 160 220 L 160 240 L 180 240 L 180 220 L 160 220 z M 320 240 L 320 260 L 340 260 L 340 240 L 320 240 z M 320 260 L 300 260 L 300 280 L 320 280 L 320 260 z M 300 280 L 280 280 L 280 300 L 300 300 L 300 280 z M 280 300 L 260 300 L 260 320 L 280 320 L 280 300 z M 260 320 L 240 320 L 240 340 L 260 340 L 260 320 z M 240 340 L 220 340 L 220 360 L 240 360 L 240 340 z M 220 360 L 200 360 L 200 380 L 220 380 L 220 360 z M 200 380 L 180 380 L 180 400 L 200 400 L 200 380 z M 160 420 L 160 440 L 180 440 L 200 440 L 200 420 L 180 420 L 160 420 z M 200 440 L 200 460 L 220 460 L 240 460 L 240 440 L 220 440 L 200 440 z M 240 460 L 240 480 L 260 480 L 280 480 L 280 460 L 260 460 L 240 460 z M 280 480 L 280 500 L 300 500 L 320 500 L 320 480 L 300 480 L 280 480 z M 320 500 L 320 520 L 340 520 L 360 520 L 360 500 L 340 500 L 320 500 z M 360 520 L 360 540 L 380 540 L 400 540 L 400 520 L 380 520 L 360 520 z M 400 540 L 400 560 L 420 560 L 440 560 L 440 540 L 420 540 L 400 540 z "
     id="rect1298" />
  <path
     style="fill:#008080"
     d="M 100 60 L 100 80 L 80 80 L 80 100 L 100 100 L 100 120 L 120 120 L 120 140 L 140 140 L 140 160 L 160 160 L 160 180 L 180 180 L 180 160 L 180 140 L 160 140 L 160 120 L 160 100 L 140 100 L 140 80 L 140 60 L 120 60 L 100 60 z M 180 180 L 180 200 L 200 200 L 200 180 L 180 180 z M 340 240 L 340 260 L 320 260 L 320 280 L 300 280 L 300 300 L 280 300 L 280 320 L 260 320 L 260 340 L 240 340 L 240 360 L 220 360 L 220 380 L 200 380 L 200 400 L 200 420 L 220 420 L 240 420 L 240 440 L 260 440 L 280 440 L 280 460 L 300 460 L 320 460 L 320 480 L 340 480 L 360 480 L 360 500 L 380 500 L 400 500 L 400 520 L 420 520 L 440 520 L 440 540 L 460 540 L 480 540 L 480 520 L 500 520 L 500 500 L 520 500 L 520 480 L 540 480 L 540 460 L 560 460 L 560 440 L 580 440 L 580 420 L 600 420 L 600 400 L 620 400 L 620 380 L 600 380 L 600 360 L 580 360 L 560 360 L 560 340 L 540 340 L 520 340 L 520 320 L 500 320 L 480 320 L 480 300 L 460 300 L 440 300 L 440 280 L 420 280 L 400 280 L 400 260 L 380 260 L 360 260 L 360 240 L 340 240 z M 340 300 L 360 300 L 360 320 L 340 320 L 340 340 L 320 340 L 320 360 L 300 360 L 300 380 L 280 380 L 280 360 L 300 360 L 300 340 L 320 340 L 320 320 L 340 320 L 340 300 z M 380 340 L 400 340 L 400 360 L 380 360 L 380 380 L 360 380 L 360 400 L 340 400 L 340 380 L 360 380 L 360 360 L 380 360 L 380 340 z M 140 420 L 140 440 L 140 460 L 140 480 L 160 480 L 180 480 L 180 500 L 200 500 L 220 500 L 220 520 L 240 520 L 260 520 L 260 540 L 280 540 L 300 540 L 300 560 L 320 560 L 340 560 L 340 580 L 360 580 L 380 580 L 380 600 L 400 600 L 420 600 L 420 580 L 420 560 L 400 560 L 400 540 L 380 540 L 360 540 L 360 520 L 340 520 L 320 520 L 320 500 L 300 500 L 280 500 L 280 480 L 260 480 L 260 500 L 240 500 L 240 480 L 240 460 L 220 460 L 220 480 L 200 480 L 200 460 L 200 440 L 180 440 L 160 440 L 160 420 L 140 420 z "
     id="rect1348" />
  <path
     style="fill:#c0c0c0"
     d="M 280 20 L 280 40 L 260 40 L 260 60 L 280 60 L 280 80 L 260 80 L 260 100 L 280 100 L 280 120 L 260 120 L 260 140 L 280 140 L 280 160 L 260 160 L 260 180 L 260 200 L 280 200 L 300 200 L 320 200 L 320 180 L 300 180 L 300 160 L 320 160 L 320 140 L 300 140 L 300 120 L 320 120 L 320 100 L 300 100 L 300 80 L 320 80 L 320 60 L 340 60 L 340 40 L 320 40 L 320 20 L 300 20 L 280 20 z M 340 60 L 340 80 L 360 80 L 360 60 L 340 60 z M 360 60 L 380 60 L 380 40 L 360 40 L 360 60 z M 380 60 L 380 80 L 400 80 L 400 60 L 380 60 z M 380 80 L 360 80 L 360 100 L 380 100 L 380 80 z M 360 100 L 340 100 L 340 120 L 360 120 L 360 100 z M 340 120 L 320 120 L 320 140 L 340 140 L 340 120 z M 340 100 L 340 80 L 320 80 L 320 100 L 340 100 z M 160 40 L 160 60 L 160 80 L 180 80 L 180 60 L 180 40 L 160 40 z M 180 80 L 180 100 L 180 120 L 200 120 L 200 100 L 200 80 L 180 80 z M 200 120 L 200 140 L 200 160 L 220 160 L 220 140 L 220 120 L 200 120 z M 220 160 L 220 180 L 220 200 L 240 200 L 240 180 L 240 160 L 220 160 z M 60 100 L 60 120 L 80 120 L 80 140 L 100 140 L 100 160 L 120 160 L 120 180 L 140 180 L 140 200 L 160 200 L 160 220 L 180 220 L 180 240 L 200 240 L 200 220 L 200 200 L 180 200 L 180 180 L 160 180 L 160 160 L 140 160 L 140 140 L 120 140 L 120 120 L 100 120 L 100 100 L 80 100 L 60 100 z M 440 100 L 440 120 L 460 120 L 460 100 L 440 100 z M 440 120 L 420 120 L 420 140 L 440 140 L 440 120 z M 440 140 L 440 160 L 460 160 L 460 140 L 440 140 z M 460 160 L 460 180 L 480 180 L 480 160 L 460 160 z M 480 180 L 480 200 L 500 200 L 500 180 L 480 180 z M 480 200 L 460 200 L 460 220 L 480 220 L 480 200 z M 480 220 L 480 240 L 460 240 L 460 220 L 440 220 L 440 240 L 420 240 L 420 220 L 400 220 L 400 240 L 400 260 L 420 260 L 440 260 L 460 260 L 480 260 L 500 260 L 500 240 L 500 220 L 480 220 z M 400 220 L 400 200 L 380 200 L 380 220 L 400 220 z M 380 220 L 360 220 L 360 240 L 380 240 L 380 220 z M 360 220 L 360 200 L 340 200 L 340 220 L 360 220 z M 360 200 L 380 200 L 380 180 L 360 180 L 360 200 z M 380 180 L 400 180 L 400 160 L 380 160 L 380 180 z M 400 160 L 420 160 L 420 140 L 400 140 L 400 160 z M 420 160 L 420 180 L 440 180 L 440 160 L 420 160 z M 440 180 L 440 200 L 460 200 L 460 180 L 440 180 z M 440 200 L 420 200 L 420 220 L 440 220 L 440 200 z M 420 200 L 420 180 L 400 180 L 400 200 L 420 200 z M 260 240 L 260 260 L 240 260 L 240 280 L 260 280 L 280 280 L 280 260 L 280 240 L 260 240 z M 20 260 L 20 280 L 20 300 L 40 300 L 40 280 L 60 280 L 60 300 L 80 300 L 80 280 L 100 280 L 100 300 L 120 300 L 120 280 L 140 280 L 140 300 L 160 300 L 160 280 L 180 280 L 180 260 L 160 260 L 140 260 L 120 260 L 100 260 L 80 260 L 60 260 L 40 260 L 20 260 z M 160 300 L 160 320 L 180 320 L 180 300 L 160 300 z M 160 320 L 140 320 L 140 340 L 160 340 L 160 320 z M 140 340 L 120 340 L 120 360 L 140 360 L 140 340 z M 120 360 L 100 360 L 100 380 L 120 380 L 120 360 z M 100 380 L 80 380 L 80 400 L 100 400 L 100 380 z M 80 400 L 60 400 L 60 420 L 80 420 L 80 400 z M 80 380 L 80 360 L 60 360 L 60 380 L 80 380 z M 60 360 L 60 340 L 40 340 L 40 360 L 60 360 z M 40 340 L 40 320 L 20 320 L 20 340 L 40 340 z M 40 320 L 60 320 L 60 300 L 40 300 L 40 320 z M 60 320 L 60 340 L 80 340 L 80 320 L 60 320 z M 80 320 L 100 320 L 100 300 L 80 300 L 80 320 z M 100 320 L 100 340 L 120 340 L 120 320 L 100 320 z M 120 320 L 140 320 L 140 300 L 120 300 L 120 320 z M 100 340 L 80 340 L 80 360 L 100 360 L 100 340 z M 580 460 L 580 480 L 600 480 L 600 460 L 580 460 z M 580 480 L 560 480 L 560 500 L 580 500 L 580 480 z M 560 500 L 540 500 L 540 520 L 560 520 L 560 500 z M 540 520 L 520 520 L 520 540 L 540 540 L 540 520 z M 460 580 L 460 600 L 480 600 L 480 580 L 460 580 z "
     id="rect1354" />
  <path
     style="fill:#808080"
     d="M 140 40 L 140 60 L 160 60 L 160 40 L 140 40 z M 160 80 L 160 100 L 180 100 L 180 80 L 160 80 z M 180 120 L 180 140 L 200 140 L 200 120 L 180 120 z M 440 120 L 440 140 L 460 140 L 460 120 L 440 120 z M 460 140 L 460 160 L 480 160 L 480 140 L 460 140 z M 460 160 L 440 160 L 440 180 L 460 180 L 460 160 z M 460 180 L 460 200 L 480 200 L 480 180 L 460 180 z M 480 200 L 480 220 L 500 220 L 500 200 L 480 200 z M 480 220 L 460 220 L 460 240 L 480 240 L 480 220 z M 460 220 L 460 200 L 440 200 L 440 220 L 460 220 z M 440 220 L 420 220 L 420 240 L 440 240 L 440 220 z M 420 220 L 420 200 L 400 200 L 400 220 L 420 220 z M 400 220 L 380 220 L 380 240 L 400 240 L 400 220 z M 380 220 L 380 200 L 360 200 L 360 220 L 380 220 z M 380 200 L 400 200 L 400 180 L 380 180 L 380 200 z M 400 180 L 420 180 L 420 160 L 400 160 L 400 180 z M 420 160 L 440 160 L 440 140 L 420 140 L 420 160 z M 420 180 L 420 200 L 440 200 L 440 180 L 420 180 z M 200 160 L 200 180 L 220 180 L 220 160 L 200 160 z M 200 200 L 200 220 L 200 240 L 200 260 L 180 260 L 180 280 L 160 280 L 160 300 L 180 300 L 200 300 L 200 280 L 220 280 L 220 260 L 220 240 L 240 240 L 240 220 L 220 220 L 220 200 L 200 200 z M 240 220 L 260 220 L 280 220 L 300 220 L 320 220 L 320 200 L 300 200 L 280 200 L 260 200 L 240 200 L 240 220 z M 160 300 L 140 300 L 140 320 L 160 320 L 160 300 z M 140 320 L 120 320 L 120 340 L 140 340 L 140 320 z M 120 340 L 100 340 L 100 360 L 120 360 L 120 340 z M 100 360 L 80 360 L 80 380 L 100 380 L 100 360 z M 80 380 L 60 380 L 60 400 L 80 400 L 80 380 z M 60 380 L 60 360 L 40 360 L 40 380 L 60 380 z M 60 360 L 80 360 L 80 340 L 60 340 L 60 360 z M 60 340 L 60 320 L 40 320 L 40 340 L 60 340 z M 40 320 L 40 300 L 20 300 L 20 320 L 40 320 z M 40 300 L 60 300 L 60 280 L 40 280 L 40 300 z M 60 300 L 60 320 L 80 320 L 80 300 L 60 300 z M 80 300 L 100 300 L 100 280 L 80 280 L 80 300 z M 100 300 L 100 320 L 120 320 L 120 300 L 100 300 z M 120 300 L 140 300 L 140 280 L 120 280 L 120 300 z M 100 320 L 80 320 L 80 340 L 100 340 L 100 320 z M 340 300 L 340 320 L 360 320 L 360 300 L 340 300 z M 340 320 L 320 320 L 320 340 L 340 340 L 340 320 z M 320 340 L 300 340 L 300 360 L 320 360 L 320 340 z M 300 360 L 280 360 L 280 380 L 300 380 L 300 360 z M 380 340 L 380 360 L 400 360 L 400 340 L 380 340 z M 380 360 L 360 360 L 360 380 L 380 380 L 380 360 z M 360 380 L 340 380 L 340 400 L 360 400 L 360 380 z M 580 440 L 580 460 L 600 460 L 600 440 L 580 440 z M 580 460 L 560 460 L 560 480 L 580 480 L 580 460 z M 580 480 L 580 500 L 600 500 L 600 480 L 580 480 z M 580 500 L 560 500 L 560 520 L 580 520 L 580 500 z M 560 520 L 540 520 L 540 540 L 560 540 L 560 520 z M 540 520 L 540 500 L 520 500 L 520 520 L 540 520 z M 520 520 L 500 520 L 500 540 L 480 540 L 480 560 L 500 560 L 520 560 L 520 540 L 520 520 z M 480 560 L 460 560 L 440 560 L 440 580 L 440 600 L 440 620 L 460 620 L 480 620 L 480 600 L 460 600 L 460 580 L 480 580 L 480 560 z M 480 580 L 480 600 L 500 600 L 500 580 L 480 580 z M 540 500 L 560 500 L 560 480 L 540 480 L 540 500 z M 580 580 L 580 600 L 600 600 L 600 580 L 580 580 z "
     id="rect1378" />
  <path
     style="fill:#000000"
     d="M 200 0 L 200 20 L 220 20 L 240 20 L 260 20 L 280 20 L 300 20 L 320 20 L 320 0 L 300 0 L 280 0 L 260 0 L 240 0 L 220 0 L 200 0 z M 320 20 L 320 40 L 340 40 L 360 40 L 380 40 L 380 20 L 360 20 L 340 20 L 320 20 z M 380 40 L 380 60 L 400 60 L 420 60 L 420 40 L 400 40 L 380 40 z M 420 60 L 420 80 L 440 80 L 440 60 L 420 60 z M 440 80 L 440 100 L 460 100 L 460 80 L 440 80 z M 460 100 L 460 120 L 460 140 L 480 140 L 480 120 L 480 100 L 460 100 z M 480 140 L 480 160 L 480 180 L 500 180 L 500 160 L 500 140 L 480 140 z M 500 180 L 500 200 L 500 220 L 500 240 L 500 260 L 500 280 L 500 300 L 480 300 L 480 320 L 500 320 L 520 320 L 520 300 L 520 280 L 520 260 L 520 240 L 520 220 L 520 200 L 520 180 L 500 180 z M 520 320 L 520 340 L 540 340 L 560 340 L 560 320 L 540 320 L 520 320 z M 560 340 L 560 360 L 580 360 L 600 360 L 600 340 L 580 340 L 560 340 z M 600 360 L 600 380 L 620 380 L 620 400 L 640 400 L 640 380 L 640 360 L 620 360 L 600 360 z M 620 400 L 600 400 L 600 420 L 580 420 L 580 440 L 600 440 L 600 460 L 600 480 L 600 500 L 620 500 L 620 480 L 640 480 L 640 460 L 640 440 L 620 440 L 620 420 L 620 400 z M 600 500 L 580 500 L 580 520 L 600 520 L 600 500 z M 580 520 L 560 520 L 560 540 L 580 540 L 580 520 z M 560 540 L 540 540 L 520 540 L 520 560 L 500 560 L 480 560 L 480 580 L 500 580 L 500 600 L 520 600 L 540 600 L 560 600 L 560 620 L 580 620 L 580 640 L 600 640 L 600 620 L 620 620 L 620 640 L 640 640 L 640 620 L 640 600 L 620 600 L 620 580 L 600 580 L 600 600 L 580 600 L 580 580 L 600 580 L 600 560 L 580 560 L 560 560 L 560 540 z M 500 600 L 480 600 L 480 620 L 500 620 L 500 600 z M 480 620 L 460 620 L 440 620 L 440 600 L 440 580 L 440 560 L 420 560 L 420 580 L 420 600 L 400 600 L 380 600 L 380 620 L 400 620 L 420 620 L 420 640 L 440 640 L 460 640 L 480 640 L 480 620 z M 380 600 L 380 580 L 360 580 L 340 580 L 340 600 L 360 600 L 380 600 z M 340 580 L 340 560 L 320 560 L 300 560 L 300 580 L 320 580 L 340 580 z M 300 560 L 300 540 L 280 540 L 260 540 L 260 560 L 280 560 L 300 560 z M 260 540 L 260 520 L 240 520 L 220 520 L 220 540 L 240 540 L 260 540 z M 220 520 L 220 500 L 200 500 L 180 500 L 180 520 L 200 520 L 220 520 z M 180 500 L 180 480 L 160 480 L 140 480 L 140 500 L 160 500 L 180 500 z M 140 480 L 140 460 L 140 440 L 140 420 L 120 420 L 120 440 L 120 460 L 100 460 L 100 480 L 120 480 L 140 480 z M 100 460 L 100 440 L 80 440 L 80 460 L 100 460 z M 80 440 L 80 420 L 60 420 L 60 440 L 80 440 z M 60 420 L 60 400 L 60 380 L 40 380 L 40 400 L 40 420 L 60 420 z M 40 380 L 40 360 L 40 340 L 20 340 L 20 360 L 20 380 L 40 380 z M 20 340 L 20 320 L 20 300 L 20 280 L 20 260 L 20 240 L 20 220 L 20 200 L 20 180 L 0 180 L 0 200 L 0 220 L 0 240 L 0 260 L 0 280 L 0 300 L 0 320 L 0 340 L 20 340 z M 20 180 L 40 180 L 40 160 L 40 140 L 20 140 L 20 160 L 20 180 z M 40 140 L 60 140 L 60 120 L 60 100 L 40 100 L 40 120 L 40 140 z M 60 100 L 80 100 L 80 80 L 60 80 L 60 100 z M 80 80 L 100 80 L 100 60 L 80 60 L 80 80 z M 100 60 L 120 60 L 140 60 L 140 40 L 120 40 L 100 40 L 100 60 z M 140 40 L 160 40 L 180 40 L 200 40 L 200 20 L 180 20 L 160 20 L 140 20 L 140 40 z M 140 420 L 160 420 L 180 420 L 200 420 L 200 400 L 180 400 L 180 380 L 160 380 L 160 400 L 140 400 L 140 420 z M 180 380 L 200 380 L 200 360 L 180 360 L 180 380 z M 200 360 L 220 360 L 220 340 L 200 340 L 200 360 z M 220 340 L 240 340 L 240 320 L 220 320 L 220 340 z M 240 320 L 260 320 L 260 300 L 280 300 L 280 280 L 260 280 L 240 280 L 240 260 L 240 240 L 220 240 L 220 260 L 220 280 L 220 300 L 240 300 L 240 320 z M 240 240 L 260 240 L 280 240 L 280 260 L 280 280 L 300 280 L 300 260 L 320 260 L 320 240 L 300 240 L 300 220 L 280 220 L 260 220 L 240 220 L 240 240 z M 320 240 L 340 240 L 360 240 L 360 220 L 340 220 L 320 220 L 320 240 z M 360 240 L 360 260 L 380 260 L 400 260 L 400 240 L 380 240 L 360 240 z M 400 260 L 400 280 L 420 280 L 440 280 L 440 260 L 420 260 L 400 260 z M 440 280 L 440 300 L 460 300 L 480 300 L 480 280 L 460 280 L 440 280 z M 200 420 L 200 440 L 220 440 L 240 440 L 240 420 L 220 420 L 200 420 z M 240 440 L 240 460 L 260 460 L 280 460 L 280 440 L 260 440 L 240 440 z M 280 460 L 280 480 L 300 480 L 320 480 L 320 460 L 300 460 L 280 460 z M 320 480 L 320 500 L 340 500 L 360 500 L 360 480 L 340 480 L 320 480 z M 360 500 L 360 520 L 380 520 L 400 520 L 400 500 L 380 500 L 360 500 z M 400 520 L 400 540 L 420 540 L 440 540 L 440 520 L 420 520 L 400 520 z M 440 540 L 440 560 L 460 560 L 480 560 L 480 540 L 460 540 L 440 540 z M 480 540 L 500 540 L 500 520 L 480 520 L 480 540 z M 500 520 L 520 520 L 520 500 L 500 500 L 500 520 z M 520 500 L 540 500 L 540 480 L 520 480 L 520 500 z M 540 480 L 560 480 L 560 460 L 540 460 L 540 480 z M 560 460 L 580 460 L 580 440 L 560 440 L 560 460 z M 200 460 L 200 480 L 220 480 L 220 460 L 200 460 z M 240 480 L 240 500 L 260 500 L 260 480 L 240 480 z "
     id="rect1398" />
</svg>
