<?xml version="1.0" encoding="UTF-8" standalone="no"?>
<svg
   id="svg3826"
   width="48"
   version="1.1"
   height="48"
   sodipodi:docname="utilities-system-monitor.svg"
   xml:space="preserve"
   inkscape:version="1.3 (0e150ed6c4, 2023-07-21)"
   xmlns:inkscape="http://www.inkscape.org/namespaces/inkscape"
   xmlns:sodipodi="http://sodipodi.sourceforge.net/DTD/sodipodi-0.dtd"
   xmlns="http://www.w3.org/2000/svg"
   xmlns:svg="http://www.w3.org/2000/svg"
   xmlns:rdf="http://www.w3.org/1999/02/22-rdf-syntax-ns#"
   xmlns:cc="http://creativecommons.org/ns#"
   xmlns:dc="http://purl.org/dc/elements/1.1/"><sodipodi:namedview
     id="namedview1"
     pagecolor="#ffffff"
     bordercolor="#000000"
     borderopacity="0.25"
     inkscape:showpageshadow="2"
     inkscape:pageopacity="0.0"
     inkscape:pagecheckerboard="0"
     inkscape:deskcolor="#d1d1d1"
     inkscape:zoom="8.774142"
     inkscape:cx="17.380617"
     inkscape:cy="20.685783"
     inkscape:window-width="1920"
     inkscape:window-height="1008"
     inkscape:window-x="0"
     inkscape:window-y="0"
     inkscape:window-maximized="1"
     inkscape:current-layer="svg3826" /><metadata
     id="metadata3830"><rdf:RDF><cc:Work
         rdf:about=""><dc:format>image/svg+xml</dc:format><dc:type
           rdf:resource="http://purl.org/dc/dcmitype/StillImage" /></cc:Work></rdf:RDF></metadata><defs
     id="defs2" /><g
     id="g1"><path
       style="fill:#fefefe"
       d="M 2,40 V 35 H 21.5 41 V 35.5 36 H 22 3 V 40.5 45 H 2.5 2 Z M 6,19 V 7 H 6.5 7 V 6.5 6 H 22.5 38 V 5.5 5 H 38.5 39 V 4.5 4 H 39.5 40 V 3.5 3 H 40.5 41 V 3.5 4 H 40.5 40 V 4.5 5 H 39.5 39 V 5.5 6 H 38.5 38 V 6.5 7 H 22.5 7 V 19 31 H 6.5 6 Z m 3,9.5 V 28 H 22 35 V 18.5 9 H 35.5 36 V 19 29 H 22.5 9 Z"
       id="path6" /><path
       style="fill:#bfbfbf"
       d="M 3,40.5 V 36 H 22 41 V 40.5 45 H 22 3 Z M 9,41 V 40 H 7.5 6 v 1 1 H 7.5 9 Z m 25,0.5 V 41 h 2 2 V 40 39 H 30.5 23 v 1 1 h 5 5 v 0.5 0.5 h 0.5 0.5 z m 7,-7 V 34 H 41.5 42 V 33.5 33 H 42.5 43 V 32.5 32 H 43.5 44 V 31.5 31 H 44.5 45 V 30.5 30 H 45.5 46 V 30.5 31 H 45.5 45 V 31.5 32 H 44.5 44 V 32.5 33 H 43.5 43 V 33.5 34 H 42.5 42 V 34.5 35 H 41.5 41 Z M 7,19 V 7 H 22.5 38 V 19 31 H 22.5 7 Z m 29,0 V 9 H 22.5 9 V 19 29 H 22.5 36 Z M 8,5.5 V 5 H 8.5 9 V 4.5 4 H 9.5 10 V 3.5 3 H 25 40 V 3.5 4 H 39.5 39 V 4.5 5 H 38.5 38 V 5.5 6 H 23 8 Z"
       id="path5" /><path
       style="fill:#7f7f7f"
       d="M 1,40.5 V 35 H 1.5 2 V 34.5 34 H 2.5 3 V 33.5 33 H 3.5 4 V 32.5 32 H 4.5 5 V 19.5 7 H 5.5 6 V 6.5 6 H 6.5 7 V 5.5 5 H 7.5 8 V 4.5 4 H 8.5 9 V 3.5 3 H 9.5 10 V 2.5 2 H 26 42 V 16 30 H 42.5 43 V 29.5 29 H 44.5 46 V 29.5 30 H 45.5 45 V 30.5 31 H 45.5 46 V 36.5 42 H 45.5 45 V 42.5 43 H 44.5 44 V 43.5 44 H 43.5 43 V 44.5 45 H 42.5 42 V 45.5 46 H 21.5 1 Z M 41,40 V 35 H 41.5 42 V 34.5 34 H 42.5 43 V 33.5 33 H 43.5 44 V 32.5 32 H 44.5 45 V 31.5 31 H 44.5 44 V 31.5 32 H 43.5 43 V 32.5 33 H 42.5 42 V 33.5 34 H 41.5 41 V 34.5 35 H 21.5 2 v 5 5 H 21.5 41 Z m -8,1.5 V 41 H 33.5 34 V 41.5 42 H 33.5 33 Z m -10,-2 V 39 H 30.5 38 V 39.5 40 H 30.5 23 Z m 17,-7 V 32 H 40.5 41 V 31.5 31 H 41.5 42 V 30.5 30 H 41.5 41 V 30.5 31 H 40.5 40 V 31.5 32 H 22.5 5 V 32.5 33 H 22.5 40 Z m -2,-14 V 6 H 38.5 39 V 5.5 5 H 39.5 40 V 4.5 4 H 40.5 41 V 3.5 3 H 25.5 10 V 3.5 4 H 9.5 9 V 4.5 5 H 8.5 8 V 5.5 6 H 7.5 7 V 6.5 7 H 6.5 6 V 19 31 H 22 38 Z M 9,9.5 V 9 H 22 35 V 9.5 10 H 22 9 Z"
       id="path4" /><path
       style="fill:#00fe00"
       d="M 6,40.5 V 40 H 7.5 9 V 40.5 41 H 7.5 6 Z M 21,22 V 19 H 20.5 20 V 19.5 20 H 14.5 9 V 19.5 19 H 13.5 18 V 18 17 H 18.5 19 V 15.5 14 h 0.5 0.5 v 1 1 H 20.5 21 V 17.5 19 H 21.5 22 V 18 17 H 22.5 23 V 14.5 12 h 0.5 0.5 v 2 2 h 0.5 0.5 v 1.5 1.5 h 5 5 V 19.5 20 H 29.5 24 V 18.5 17 H 23.5 23 v 2 2 H 22.5 22 v 2 2 H 21.5 21 Z"
       id="path3" /><path
       style="fill:#007f00"
       d="M 6,41.5 V 41 H 7.5 9 V 41.5 42 H 7.5 6 Z"
       id="path2" /><path
       style="fill:#000000"
       d="M 2,46.5 V 46 H 22 42 V 45.5 45 H 42.5 43 V 44.5 44 H 43.5 44 V 43.5 43 H 44.5 45 V 42.5 42 h 0.5 0.5 v -6 -6 h 0.5 0.5 v 6 6 H 46.5 46 V 42.5 43 H 45.5 45 V 43.5 44 H 44.5 44 V 44.5 45 H 43.5 43 V 45.5 46 H 42.5 42 V 46.5 47 H 22 2 Z m 21,-6 V 40 H 30.5 38 V 40.5 41 H 30.5 23 Z M 5,32.5 V 32 H 22.5 40 V 31.5 31 H 40.5 41 V 30.5 30 H 41.5 42 V 16.5 3 H 42.5 43 V 16.5 30 H 42.5 42 V 30.5 31 H 41.5 41 V 31.5 32 H 40.5 40 V 32.5 33 H 22.5 5 Z M 9,24 V 20 H 14.5 20 V 19.5 19 H 20.5 21 V 17.5 16 H 20.5 20 V 15 14 H 19.5 19 V 15.5 17 H 18.5 18 v 1 1 H 13.5 9 V 14.5 10 H 22 35 V 14.5 19 H 30 25 V 17.5 16 H 24.5 24 V 14 12 H 23.5 23 v 2.5 2.5 h 0.5 0.5 v 1.5 1.5 h 5.5 5.5 v 4 4 H 22 9 Z M 22,23 V 21 H 22.5 23 V 19 17 H 22.5 22 v 1 1 H 21.5 21 v 3 3 h 0.5 0.5 z"
       id="path1" /></g></svg>
