<?xml version="1.0" encoding="UTF-8" standalone="no"?>
<svg
   id="svg3748"
   width="48"
   version="1.1"
   height="48"
   sodipodi:docname="utilities-terminal.svg"
   xml:space="preserve"
   inkscape:version="1.3 (0e150ed6c4, 2023-07-21)"
   xmlns:inkscape="http://www.inkscape.org/namespaces/inkscape"
   xmlns:sodipodi="http://sodipodi.sourceforge.net/DTD/sodipodi-0.dtd"
   xmlns="http://www.w3.org/2000/svg"
   xmlns:svg="http://www.w3.org/2000/svg"
   xmlns:rdf="http://www.w3.org/1999/02/22-rdf-syntax-ns#"
   xmlns:cc="http://creativecommons.org/ns#"
   xmlns:dc="http://purl.org/dc/elements/1.1/"><sodipodi:namedview
     id="namedview1"
     pagecolor="#ffffff"
     bordercolor="#000000"
     borderopacity="0.25"
     inkscape:showpageshadow="2"
     inkscape:pageopacity="0.0"
     inkscape:pagecheckerboard="0"
     inkscape:deskcolor="#d1d1d1"
     inkscape:zoom="6.075"
     inkscape:cx="8.8065844"
     inkscape:cy="29.382716"
     inkscape:window-width="1920"
     inkscape:window-height="1008"
     inkscape:window-x="0"
     inkscape:window-y="0"
     inkscape:window-maximized="1"
     inkscape:current-layer="svg3748" /><metadata
     id="metadata3752"><rdf:RDF><cc:Work
         rdf:about=""><dc:format>image/svg+xml</dc:format><dc:type
           rdf:resource="http://purl.org/dc/dcmitype/StillImage" /></cc:Work></rdf:RDF></metadata><defs
     id="defs2" /><g
     id="g7"><g
       id="g12"><path
         style="fill:#fefefe"
         d="M 9,24.5 V 24 H 8.5 8 V 21 18 H 8.5 9 V 17.5 17 H 11.5 14 V 17.5 18 H 14.5 15 V 18.5 19 H 14.5 14 V 18.5 18 H 11.5 9 v 3 3 H 11.5 14 V 23.5 23 H 14.5 15 V 23.5 24 H 14.5 14 V 24.5 25 H 11.5 9 Z m 9,0 V 24 H 18.5 19 V 24.5 25 H 18.5 18 Z M 24,24 V 23 H 23.5 23 V 22 21 H 22.5 22 V 20 19 H 21.5 21 v -1 -1 h 0.5 0.5 v 1 1 h 0.5 0.5 v 1 1 h 0.5 0.5 v 1 1 h 0.5 0.5 v 1 1 H 24.5 24 Z m 3,0.5 V 24 H 32.5 38 V 24.5 25 H 32.5 27 Z m -9,-4 V 20 H 18.5 19 V 20.5 21 H 18.5 18 Z M 18,7 V 6 h 1 1 v 1 1 h -1 -1 z m 3,0 V 6 h 1 1 v 1 1 h -1 -1 z m 3,0 V 6 h 1 1 v 1 1 h -1 -1 z m 3,0 V 6 h 1 1 v 1 1 h -1 -1 z"
         id="path16" /><path
         style="fill:#bfbfbf"
         d="M 0,22.5 V 3 H 24 48 V 3.5 4 H 24.5 1 V 23 42 H 0.5 0 Z M 2,6.5 V 5 H 3.5 5 V 6.5 8 H 3.5 2 Z m 35,0 V 5 H 38.5 40 V 6.5 8 H 38.5 37 Z m 5,0 V 5 H 43.5 45 V 6.5 8 H 43.5 42 Z"
         id="path15" /><path
         style="fill:#7f7f7f"
         d="M 1,41.5 V 41 H 24 47 V 22.5 4 H 47.5 48 V 23 42 H 24.5 1 Z M 2,8.5 V 8 H 3.5 5 V 6.5 5 H 5.5 6 V 7 9 H 4 2 Z m 35,0 V 8 H 38.5 40 V 6.5 5 h 0.5 0.5 v 2 2 h -2 -2 z m 5,0 V 8 H 43.5 45 V 6.5 5 h 0.5 0.5 v 2 2 h -2 -2 z"
         id="path14" /><path
         style="fill:#0000fe"
         d="M 7,7 V 5 H 21.5 36 V 7 9 H 21.5 7 Z M 20,7 V 6 h -1 -1 v 1 1 h 1 1 z m 3,0 V 6 h -1 -1 v 1 1 h 1 1 z m 3,0 V 6 h -1 -1 v 1 1 h 1 1 z m 3,0 V 6 h -1 -1 v 1 1 h 1 1 z"
         id="path13" /><path
         style="fill:#000000"
         d="M 1,22.5 V 4 H 24 47 V 22.5 41 H 24 1 Z m 13,2 V 24 H 14.5 15 V 23.5 23 H 14.5 14 V 23.5 24 H 11.5 9 V 21 18 H 11.5 14 V 18.5 19 H 14.5 15 V 18.5 18 H 14.5 14 V 17.5 17 H 11.5 9 V 17.5 18 H 8.5 8 v 3 3 H 8.5 9 v 0.5 0.5 h 2.5 2.5 z m 5,0 V 24 H 18.5 18 V 24.5 25 H 18.5 19 Z M 25,24 V 23 H 24.5 24 V 22 21 H 23.5 23 V 20 19 H 22.5 22 V 18 17 H 21.5 21 v 1 1 h 0.5 0.5 v 1 1 h 0.5 0.5 v 1 1 h 0.5 0.5 v 1 1 h 0.5 0.5 z m 13,0.5 V 24 H 32.5 27 v 0.5 0.5 h 5.5 5.5 z m -19,-4 V 20 H 18.5 18 V 20.5 21 H 18.5 19 Z M 6,7 V 5 H 4 2 V 7 9 H 4 6 Z M 36,7 V 5 H 21.5 7 V 7 9 H 21.5 36 Z m 5,0 V 5 h -2 -2 v 2 2 h 2 2 z m 5,0 V 5 h -2 -2 v 2 2 h 2 2 z"
         id="path12" /></g></g></svg>
