<?xml version="1.0" encoding="UTF-8" standalone="no"?>
<svg
   xmlns:dc="http://purl.org/dc/elements/1.1/"
   xmlns:cc="http://creativecommons.org/ns#"
   xmlns:rdf="http://www.w3.org/1999/02/22-rdf-syntax-ns#"
   xmlns:svg="http://www.w3.org/2000/svg"
   xmlns="http://www.w3.org/2000/svg"
   height="640px"
   version="1.1"
   width="640px"
   id="svg1320">
  <metadata
     id="metadata1324">
    <rdf:RDF>
      <cc:Work
         rdf:about="">
        <dc:format>image/svg+xml</dc:format>
        <dc:type
           rdf:resource="http://purl.org/dc/dcmitype/StillImage" />
      </cc:Work>
    </rdf:RDF>
  </metadata>
  <defs
     id="defs2" />
  <path
     id="rect152"
     d="M 320 40 L 320 60 L 320 80 L 320 100 L 340 100 L 360 100 L 380 100 L 400 100 L 420 100 L 440 100 L 460 100 L 480 100 L 500 100 L 520 100 L 540 100 L 560 100 L 560 80 L 560 60 L 560 40 L 540 40 L 520 40 L 500 40 L 480 40 L 460 40 L 440 40 L 420 40 L 400 40 L 380 40 L 360 40 L 340 40 L 320 40 z "
     style="fill:#0000ff" />
  <path
     id="rect636"
     d="M 300 180 L 300 200 L 280 200 L 280 220 L 280 240 L 280 260 L 280 280 L 280 300 L 280 320 L 280 340 L 280 360 L 300 360 L 320 360 L 340 360 L 360 360 L 380 360 L 400 360 L 420 360 L 440 360 L 460 360 L 460 340 L 480 340 L 480 320 L 480 300 L 480 280 L 480 260 L 480 240 L 480 220 L 480 200 L 460 200 L 460 180 L 440 180 L 420 180 L 400 180 L 400 200 L 400 220 L 400 240 L 420 240 L 440 240 L 440 260 L 440 280 L 440 300 L 440 320 L 440 340 L 420 340 L 400 340 L 400 320 L 400 300 L 400 280 L 400 260 L 400 240 L 380 240 L 360 240 L 340 240 L 340 260 L 340 280 L 340 300 L 340 320 L 340 340 L 320 340 L 300 340 L 300 320 L 300 300 L 300 280 L 300 260 L 300 240 L 320 240 L 340 240 L 340 220 L 340 200 L 340 180 L 320 180 L 300 180 z "
     style="fill:#c0c0c0" />
  <path
     id="rect674"
     d="M 300 140 L 300 160 L 320 160 L 340 160 L 360 160 L 380 160 L 400 160 L 420 160 L 440 160 L 460 160 L 460 140 L 440 140 L 420 140 L 400 140 L 380 140 L 360 140 L 340 140 L 320 140 L 300 140 z M 300 160 L 280 160 L 280 180 L 300 180 L 300 160 z M 280 180 L 260 180 L 260 200 L 280 200 L 280 180 z M 260 200 L 240 200 L 240 220 L 240 240 L 240 260 L 240 280 L 240 300 L 240 320 L 240 340 L 260 340 L 260 320 L 260 300 L 260 280 L 260 260 L 260 240 L 260 220 L 260 200 z M 260 340 L 260 360 L 280 360 L 280 340 L 260 340 z M 280 360 L 280 380 L 300 380 L 320 380 L 340 380 L 360 380 L 380 380 L 400 380 L 420 380 L 440 380 L 460 380 L 460 360 L 440 360 L 420 360 L 400 360 L 380 360 L 360 360 L 340 360 L 320 360 L 300 360 L 280 360 z M 460 360 L 480 360 L 480 340 L 460 340 L 460 360 z M 480 340 L 500 340 L 500 320 L 500 300 L 500 280 L 500 260 L 500 240 L 500 220 L 500 200 L 480 200 L 480 220 L 480 240 L 480 260 L 480 280 L 480 300 L 480 320 L 480 340 z M 480 200 L 480 180 L 460 180 L 460 200 L 480 200 z M 340 180 L 340 200 L 340 220 L 340 240 L 360 240 L 360 220 L 360 200 L 380 200 L 400 200 L 400 180 L 380 180 L 360 180 L 340 180 z M 340 240 L 320 240 L 300 240 L 300 260 L 300 280 L 300 300 L 300 320 L 300 340 L 320 340 L 320 320 L 320 300 L 320 280 L 320 260 L 340 260 L 340 240 z M 400 240 L 400 260 L 400 280 L 400 300 L 400 320 L 400 340 L 420 340 L 420 320 L 420 300 L 420 280 L 420 260 L 440 260 L 440 240 L 420 240 L 400 240 z "
     style="fill:#808080" />
  <path
     id="rect1278"
     d="M 220 40 L 220 60 L 220 80 L 220 100 L 240 100 L 260 100 L 280 100 L 300 100 L 300 80 L 300 60 L 300 40 L 280 40 L 260 40 L 240 40 L 220 40 z M 240 60 L 260 60 L 280 60 L 280 80 L 260 80 L 240 80 L 240 60 z M 220 120 L 220 140 L 220 160 L 220 180 L 220 200 L 220 220 L 220 240 L 220 260 L 220 280 L 220 300 L 220 320 L 220 340 L 220 360 L 220 380 L 220 400 L 200 400 L 200 420 L 180 420 L 160 420 L 140 420 L 120 420 L 100 420 L 80 420 L 60 420 L 60 440 L 60 460 L 60 480 L 60 500 L 60 520 L 60 540 L 60 560 L 60 580 L 80 580 L 100 580 L 120 580 L 140 580 L 160 580 L 180 580 L 200 580 L 200 600 L 220 600 L 240 600 L 260 600 L 280 600 L 300 600 L 320 600 L 340 600 L 360 600 L 380 600 L 400 600 L 420 600 L 440 600 L 460 600 L 480 600 L 500 600 L 520 600 L 540 600 L 560 600 L 580 600 L 580 580 L 580 560 L 580 540 L 580 520 L 580 500 L 580 480 L 580 460 L 580 440 L 580 420 L 580 400 L 560 400 L 560 380 L 560 360 L 560 340 L 560 320 L 560 300 L 560 280 L 560 260 L 560 240 L 560 220 L 560 200 L 560 180 L 560 160 L 560 140 L 560 120 L 540 120 L 520 120 L 500 120 L 480 120 L 460 120 L 440 120 L 420 120 L 400 120 L 380 120 L 360 120 L 340 120 L 320 120 L 300 120 L 280 120 L 260 120 L 240 120 L 220 120 z M 300 140 L 320 140 L 340 140 L 360 140 L 380 140 L 400 140 L 420 140 L 440 140 L 460 140 L 480 140 L 500 140 L 500 160 L 520 160 L 520 180 L 540 180 L 540 200 L 540 220 L 540 240 L 540 260 L 540 280 L 540 300 L 540 320 L 540 340 L 520 340 L 520 360 L 500 360 L 500 380 L 480 380 L 480 400 L 460 400 L 440 400 L 420 400 L 400 400 L 380 400 L 360 400 L 340 400 L 320 400 L 300 400 L 300 380 L 280 380 L 280 360 L 260 360 L 260 340 L 240 340 L 240 320 L 240 300 L 240 280 L 240 260 L 240 240 L 240 220 L 240 200 L 260 200 L 260 180 L 280 180 L 280 160 L 300 160 L 300 140 z M 300 160 L 300 180 L 320 180 L 340 180 L 360 180 L 380 180 L 400 180 L 420 180 L 440 180 L 460 180 L 460 160 L 440 160 L 420 160 L 400 160 L 380 160 L 360 160 L 340 160 L 320 160 L 300 160 z M 300 180 L 280 180 L 280 200 L 300 200 L 300 180 z M 280 200 L 260 200 L 260 220 L 260 240 L 260 260 L 260 280 L 260 300 L 260 320 L 260 340 L 280 340 L 280 320 L 280 300 L 280 280 L 280 260 L 280 240 L 280 220 L 280 200 z M 220 420 L 240 420 L 260 420 L 280 420 L 300 420 L 320 420 L 320 440 L 300 440 L 280 440 L 280 460 L 280 480 L 280 500 L 280 520 L 280 540 L 280 560 L 300 560 L 320 560 L 320 580 L 300 580 L 280 580 L 260 580 L 240 580 L 220 580 L 220 560 L 200 560 L 200 540 L 200 520 L 200 500 L 200 480 L 180 480 L 160 480 L 160 500 L 160 520 L 160 540 L 160 560 L 140 560 L 140 540 L 140 520 L 140 500 L 140 480 L 120 480 L 100 480 L 100 500 L 100 520 L 100 540 L 100 560 L 80 560 L 80 540 L 80 520 L 80 500 L 80 480 L 80 460 L 100 460 L 120 460 L 140 460 L 140 480 L 160 480 L 160 460 L 180 460 L 200 460 L 200 480 L 220 480 L 220 500 L 220 520 L 220 540 L 220 560 L 240 560 L 260 560 L 260 540 L 260 520 L 260 500 L 260 480 L 260 460 L 260 440 L 240 440 L 220 440 L 220 420 z M 340 420 L 360 420 L 380 420 L 400 420 L 420 420 L 420 440 L 440 440 L 440 460 L 440 480 L 440 500 L 420 500 L 420 520 L 400 520 L 400 540 L 420 540 L 420 560 L 440 560 L 440 580 L 420 580 L 420 560 L 400 560 L 400 540 L 380 540 L 380 520 L 360 520 L 360 540 L 360 560 L 360 580 L 340 580 L 340 560 L 340 540 L 340 520 L 340 500 L 340 480 L 340 460 L 340 440 L 340 420 z M 420 500 L 420 480 L 420 460 L 420 440 L 400 440 L 380 440 L 360 440 L 360 460 L 360 480 L 360 500 L 380 500 L 400 500 L 420 500 z M 480 420 L 500 420 L 520 420 L 540 420 L 540 440 L 560 440 L 560 460 L 540 460 L 540 440 L 520 440 L 500 440 L 480 440 L 480 460 L 480 480 L 480 500 L 480 520 L 480 540 L 480 560 L 500 560 L 520 560 L 540 560 L 540 540 L 560 540 L 560 560 L 540 560 L 540 580 L 520 580 L 500 580 L 480 580 L 480 560 L 460 560 L 460 540 L 460 520 L 460 500 L 460 480 L 460 460 L 460 440 L 480 440 L 480 420 z "
     style="fill:#ffffff" />
  <path
     id="rect1318"
     d="M 200 20 L 200 40 L 200 60 L 200 80 L 200 100 L 200 120 L 200 140 L 200 160 L 200 180 L 200 200 L 200 220 L 200 240 L 200 260 L 200 280 L 200 300 L 200 320 L 200 340 L 200 360 L 200 380 L 200 400 L 220 400 L 220 380 L 220 360 L 220 340 L 220 320 L 220 300 L 220 280 L 220 260 L 220 240 L 220 220 L 220 200 L 220 180 L 220 160 L 220 140 L 220 120 L 240 120 L 260 120 L 280 120 L 300 120 L 320 120 L 340 120 L 360 120 L 380 120 L 400 120 L 420 120 L 440 120 L 460 120 L 480 120 L 500 120 L 520 120 L 540 120 L 560 120 L 560 140 L 560 160 L 560 180 L 560 200 L 560 220 L 560 240 L 560 260 L 560 280 L 560 300 L 560 320 L 560 340 L 560 360 L 560 380 L 560 400 L 580 400 L 580 380 L 580 360 L 580 340 L 580 320 L 580 300 L 580 280 L 580 260 L 580 240 L 580 220 L 580 200 L 580 180 L 580 160 L 580 140 L 580 120 L 580 100 L 580 80 L 580 60 L 580 40 L 580 20 L 560 20 L 540 20 L 520 20 L 500 20 L 480 20 L 460 20 L 440 20 L 420 20 L 400 20 L 380 20 L 360 20 L 340 20 L 320 20 L 300 20 L 280 20 L 260 20 L 240 20 L 220 20 L 200 20 z M 580 400 L 580 420 L 580 440 L 580 460 L 580 480 L 580 500 L 580 520 L 580 540 L 580 560 L 580 580 L 580 600 L 600 600 L 600 580 L 600 560 L 600 540 L 600 520 L 600 500 L 600 480 L 600 460 L 600 440 L 600 420 L 600 400 L 580 400 z M 580 600 L 560 600 L 540 600 L 520 600 L 500 600 L 480 600 L 460 600 L 440 600 L 420 600 L 400 600 L 380 600 L 360 600 L 340 600 L 320 600 L 300 600 L 280 600 L 260 600 L 240 600 L 220 600 L 200 600 L 200 620 L 220 620 L 240 620 L 260 620 L 280 620 L 300 620 L 320 620 L 340 620 L 360 620 L 380 620 L 400 620 L 420 620 L 440 620 L 460 620 L 480 620 L 500 620 L 520 620 L 540 620 L 560 620 L 580 620 L 580 600 z M 200 600 L 200 580 L 180 580 L 160 580 L 140 580 L 120 580 L 100 580 L 80 580 L 60 580 L 60 600 L 80 600 L 100 600 L 120 600 L 140 600 L 160 600 L 180 600 L 200 600 z M 60 580 L 60 560 L 60 540 L 60 520 L 60 500 L 60 480 L 60 460 L 60 440 L 60 420 L 40 420 L 40 440 L 40 460 L 40 480 L 40 500 L 40 520 L 40 540 L 40 560 L 40 580 L 60 580 z M 60 420 L 80 420 L 100 420 L 120 420 L 140 420 L 160 420 L 180 420 L 200 420 L 200 400 L 180 400 L 160 400 L 140 400 L 120 400 L 100 400 L 80 400 L 60 400 L 60 420 z M 220 40 L 240 40 L 260 40 L 280 40 L 300 40 L 300 60 L 300 80 L 300 100 L 280 100 L 260 100 L 240 100 L 220 100 L 220 80 L 220 60 L 220 40 z M 320 40 L 340 40 L 360 40 L 380 40 L 400 40 L 420 40 L 440 40 L 460 40 L 480 40 L 500 40 L 520 40 L 540 40 L 560 40 L 560 60 L 560 80 L 560 100 L 540 100 L 520 100 L 500 100 L 480 100 L 460 100 L 440 100 L 420 100 L 400 100 L 380 100 L 360 100 L 340 100 L 320 100 L 320 80 L 320 60 L 320 40 z M 240 60 L 240 80 L 260 80 L 280 80 L 280 60 L 260 60 L 240 60 z M 460 140 L 460 160 L 460 180 L 480 180 L 480 200 L 500 200 L 500 220 L 500 240 L 500 260 L 500 280 L 500 300 L 500 320 L 500 340 L 480 340 L 480 360 L 460 360 L 460 380 L 440 380 L 420 380 L 400 380 L 380 380 L 360 380 L 340 380 L 320 380 L 300 380 L 300 400 L 320 400 L 340 400 L 360 400 L 380 400 L 400 400 L 420 400 L 440 400 L 460 400 L 480 400 L 480 380 L 500 380 L 500 360 L 520 360 L 520 340 L 540 340 L 540 320 L 540 300 L 540 280 L 540 260 L 540 240 L 540 220 L 540 200 L 540 180 L 520 180 L 520 160 L 500 160 L 500 140 L 480 140 L 460 140 z M 360 200 L 360 220 L 360 240 L 380 240 L 400 240 L 400 220 L 400 200 L 380 200 L 360 200 z M 320 260 L 320 280 L 320 300 L 320 320 L 320 340 L 340 340 L 340 320 L 340 300 L 340 280 L 340 260 L 320 260 z M 420 260 L 420 280 L 420 300 L 420 320 L 420 340 L 440 340 L 440 320 L 440 300 L 440 280 L 440 260 L 420 260 z M 220 420 L 220 440 L 240 440 L 260 440 L 260 460 L 260 480 L 260 500 L 260 520 L 260 540 L 260 560 L 240 560 L 220 560 L 220 580 L 240 580 L 260 580 L 280 580 L 300 580 L 320 580 L 320 560 L 300 560 L 280 560 L 280 540 L 280 520 L 280 500 L 280 480 L 280 460 L 280 440 L 300 440 L 320 440 L 320 420 L 300 420 L 280 420 L 260 420 L 240 420 L 220 420 z M 220 560 L 220 540 L 220 520 L 220 500 L 220 480 L 200 480 L 200 500 L 200 520 L 200 540 L 200 560 L 220 560 z M 200 480 L 200 460 L 180 460 L 160 460 L 160 480 L 180 480 L 200 480 z M 160 480 L 140 480 L 140 500 L 140 520 L 140 540 L 140 560 L 160 560 L 160 540 L 160 520 L 160 500 L 160 480 z M 140 480 L 140 460 L 120 460 L 100 460 L 80 460 L 80 480 L 80 500 L 80 520 L 80 540 L 80 560 L 100 560 L 100 540 L 100 520 L 100 500 L 100 480 L 120 480 L 140 480 z M 340 420 L 340 440 L 340 460 L 340 480 L 340 500 L 340 520 L 340 540 L 340 560 L 340 580 L 360 580 L 360 560 L 360 540 L 360 520 L 380 520 L 380 540 L 400 540 L 400 520 L 420 520 L 420 500 L 400 500 L 380 500 L 360 500 L 360 480 L 360 460 L 360 440 L 380 440 L 400 440 L 420 440 L 420 420 L 400 420 L 380 420 L 360 420 L 340 420 z M 420 440 L 420 460 L 420 480 L 420 500 L 440 500 L 440 480 L 440 460 L 440 440 L 420 440 z M 400 540 L 400 560 L 420 560 L 420 540 L 400 540 z M 420 560 L 420 580 L 440 580 L 440 560 L 420 560 z M 480 420 L 480 440 L 500 440 L 520 440 L 540 440 L 540 420 L 520 420 L 500 420 L 480 420 z M 540 440 L 540 460 L 560 460 L 560 440 L 540 440 z M 480 440 L 460 440 L 460 460 L 460 480 L 460 500 L 460 520 L 460 540 L 460 560 L 480 560 L 480 540 L 480 520 L 480 500 L 480 480 L 480 460 L 480 440 z M 480 560 L 480 580 L 500 580 L 520 580 L 540 580 L 540 560 L 520 560 L 500 560 L 480 560 z M 540 560 L 560 560 L 560 540 L 540 540 L 540 560 z "
     style="fill:#000000" />
</svg>
