<?xml version="1.0" encoding="UTF-8" standalone="no"?>
<svg
   id="svg1332"
   width="48"
   version="1.1"
   height="48"
   sodipodi:docname="notifyosdconf.svg"
   xml:space="preserve"
   inkscape:version="1.3 (0e150ed6c4, 2023-07-21)"
   xmlns:inkscape="http://www.inkscape.org/namespaces/inkscape"
   xmlns:sodipodi="http://sodipodi.sourceforge.net/DTD/sodipodi-0.dtd"
   xmlns="http://www.w3.org/2000/svg"
   xmlns:svg="http://www.w3.org/2000/svg"
   xmlns:rdf="http://www.w3.org/1999/02/22-rdf-syntax-ns#"
   xmlns:cc="http://creativecommons.org/ns#"
   xmlns:dc="http://purl.org/dc/elements/1.1/"><sodipodi:namedview
     id="namedview1"
     pagecolor="#ffffff"
     bordercolor="#000000"
     borderopacity="0.25"
     inkscape:showpageshadow="2"
     inkscape:pageopacity="0.0"
     inkscape:pagecheckerboard="0"
     inkscape:deskcolor="#d1d1d1"
     inkscape:zoom="3.2217553"
     inkscape:cx="6.0526013"
     inkscape:cy="75.269528"
     inkscape:window-width="1920"
     inkscape:window-height="1008"
     inkscape:window-x="0"
     inkscape:window-y="0"
     inkscape:window-maximized="1"
     inkscape:current-layer="g1" /><metadata
     id="metadata1336"><rdf:RDF><cc:Work
         rdf:about=""><dc:format>image/svg+xml</dc:format><dc:type
           rdf:resource="http://purl.org/dc/dcmitype/StillImage" /></cc:Work></rdf:RDF></metadata><defs
     id="defs2" /><g
     id="g1"
     transform="translate(200,80)"><path
       style="fill:#fefe03"
       d="m -198,-38 v -1 h -0.5 -0.5 v -2 -2 h 0.5 0.5 v -1 -1 h 0.5 0.5 v -1 -1 h 0.5 0.5 v -1 -1 h 0.5 0.5 v -1 -1 h 0.5 0.5 v -1 -1 h 0.5 0.5 v -1 -1 h 0.5 0.5 v -1 -1 h 0.5 0.5 v -1 -1 h 0.5 0.5 v -1 -1 h 0.5 0.5 v -1 -1 h 0.5 0.5 v -1 -1 h 0.5 0.5 v -1 -1 h 0.5 0.5 v -1 -1 h 0.5 0.5 v -1 -1 h 0.5 0.5 v -1 -1 h 0.5 0.5 v -1 -1 h 0.5 0.5 v -1 -1 h 0.5 0.5 v -1 -1 h 1.5 1.5 v 0.5 0.5 h 0.5 0.5 v 0.5 0.5 h 0.5 0.5 v 1 1 h 0.5 0.5 v 1 1 h 0.5 0.5 v 1 1 h 0.5 0.5 v 1 1 h 0.5 0.5 v 1 1 h 0.5 0.5 v 1 1 h 0.5 0.5 v 1 1 h 0.5 0.5 v 1 1 h 0.5 0.5 v 1 1 h 0.5 0.5 v 1 1 h 0.5 0.5 v 1 1 h 0.5 0.5 v 1 1 h 0.5 0.5 v 1 1 h 0.5 0.5 v 1 1 h 0.5 0.5 v 1 1 h 0.5 0.5 v 1 1 h 0.5 0.5 v 1 1 h 0.5 0.5 v 1 1 h -0.5 -0.5 v 1 1 h -0.5 -0.5 v 0.5 0.5 h -1 -1 v 0.5 0.5 h -17.5 -17.5 z m 21,-4.5 V -43 h 0.5 0.5 v -1.5 -1.5 h -0.5 -0.5 v -0.5 -0.5 h -1.5 -1.5 v 0.5 0.5 h -0.5 -0.5 v 1.5 1.5 h 0.5 0.5 v 0.5 0.5 h 1.5 1.5 z m -1,-7.5 v -1 h 0.5 0.5 v -1 -1 h 0.5 0.5 v -1.5 -1.5 h 0.5 0.5 v -4.5 -4.5 h -0.5 -0.5 v -1 -1 h -2.5 -2.5 v 1 1 h -0.5 -0.5 v 4.5 4.5 h 0.5 0.5 v 1.5 1.5 h 0.5 0.5 v 1 1 h 0.5 0.5 v 1 1 h 0.5 0.5 z"
       id="path3" /><path
       style="fill:#7d7d7d"
       d="M -192,-32.5 V -33 h -0.5 -0.5 v -0.5 -0.5 h -0.5 -0.5 v -0.5 -0.5 h 17.5 17.5 v -0.5 -0.5 h 0.5 0.5 v -0.5 -0.5 h 0.5 0.5 v -3 -3 h -0.5 -0.5 v -1 -1 h -0.5 -0.5 v -1 -1 h -0.5 -0.5 v -1 -1 h -0.5 -0.5 v -1 -1 h -0.5 -0.5 v -1 -1 h -0.5 -0.5 v -1 -1 h -0.5 -0.5 v -1 -1 h -0.5 -0.5 v -1 -1 h -0.5 -0.5 v -1 -1 h -0.5 -0.5 v -1 -1 h -0.5 -0.5 v -1 -1 h -0.5 -0.5 v -1 -1 h -0.5 -0.5 v -1 -1 h -0.5 -0.5 v -1 -1 h -0.5 -0.5 v -1 -1 h -0.5 -0.5 v -1 -1 h -0.5 -0.5 v -1 -1 h -0.5 -0.5 v -0.5 -0.5 h 1.5 1.5 v 0.5 0.5 h 0.5 0.5 v 1 1 h 0.5 0.5 v 1 1 h 0.5 0.5 v 1 1 h 0.5 0.5 v 1 1 h 0.5 0.5 v 1 1 h 0.5 0.5 v 1 1 h 0.5 0.5 v 1 1 h 0.5 0.5 v 1 1 h 0.5 0.5 v 1 1 h 0.5 0.5 v 1 1 h 0.5 0.5 v 1 1 h 0.5 0.5 v 1 1 h 0.5 0.5 v 1 1 h 0.5 0.5 v 1 1 h 0.5 0.5 v 1 1 h 0.5 0.5 v 1 1 h 0.5 0.5 v 1 1 h 0.5 0.5 v 1 1 h 0.5 0.5 v 1 1 h 0.5 0.5 v 2 2 h -0.5 -0.5 v 0.5 0.5 h -0.5 -0.5 v 0.5 0.5 h -0.5 -0.5 v 0.5 0.5 h -18.5 -18.5 z m -5,-3 V -36 h -0.5 -0.5 v -0.5 -0.5 h -0.5 -0.5 v -0.5 -0.5 h -0.5 -0.5 v -2.5 -2.5 h 0.5 0.5 v -1 -1 h 0.5 0.5 v -1 -1 h 0.5 0.5 v -1 -1 h 0.5 0.5 v -1 -1 h 0.5 0.5 v -1 -1 h 0.5 0.5 v -1 -1 h 0.5 0.5 v -1 -1 h 0.5 0.5 v -1 -1 h 0.5 0.5 v -1 -1 h 0.5 0.5 v -1 -1 h 0.5 0.5 v -1 -1 h 0.5 0.5 v -1 -1 h 0.5 0.5 v -1 -1 h 0.5 0.5 v -1 -1 h 0.5 0.5 v -1 -1 h 0.5 0.5 v -1 -1 h 0.5 0.5 v -1 -1 h 0.5 0.5 v -1 -1 h 0.5 0.5 v -0.5 -0.5 h 2 2 v 1 1 h 0.5 0.5 v 0.5 0.5 h -0.5 -0.5 v -0.5 -0.5 h -0.5 -0.5 v -0.5 -0.5 h -1.5 -1.5 v 1 1 h -0.5 -0.5 v 1 1 h -0.5 -0.5 v 1 1 h -0.5 -0.5 v 1 1 h -0.5 -0.5 v 1 1 h -0.5 -0.5 v 1 1 h -0.5 -0.5 v 1 1 h -0.5 -0.5 v 1 1 h -0.5 -0.5 v 1 1 h -0.5 -0.5 v 1 1 h -0.5 -0.5 v 1 1 h -0.5 -0.5 v 1 1 h -0.5 -0.5 v 1 1 h -0.5 -0.5 v 1 1 h -0.5 -0.5 v 1 1 h -0.5 -0.5 v 1 1 h -0.5 -0.5 v 1 1 h -0.5 -0.5 v 1 1 h -0.5 -0.5 v 2 2 h 0.5 0.5 v 1 1 h 17.5 17.5 v -0.5 -0.5 h 1 1 v -0.5 -0.5 h 0.5 0.5 v -1 -1 h 0.5 0.5 v -0.5 -0.5 h 0.5 0.5 v 2 2 h -0.5 -0.5 v 0.5 0.5 h -0.5 -0.5 v 0.5 0.5 h -18 -18 v 0.5 0.5 h -0.5 -0.5 z m 17,-7 V -43 h -0.5 -0.5 v -0.5 -0.5 h 0.5 0.5 v 0.5 0.5 h 0.5 0.5 v 0.5 0.5 h -0.5 -0.5 z m 2,0 V -43 h 0.5 0.5 v -0.5 -0.5 h 0.5 0.5 v 0.5 0.5 h -0.5 -0.5 v 0.5 0.5 h -0.5 -0.5 z m 18,-1 V -44 h 0.5 0.5 v 0.5 0.5 h -0.5 -0.5 z m -21,-2 V -46 h 0.5 0.5 v -0.5 -0.5 h 0.5 0.5 v 0.5 0.5 h -0.5 -0.5 v 0.5 0.5 h -0.5 -0.5 z m 4,0 V -46 h -0.5 -0.5 v -0.5 -0.5 h 0.5 0.5 v 0.5 0.5 h 0.5 0.5 v 0.5 0.5 h -0.5 -0.5 z m 16,0 V -46 h 0.5 0.5 v 0.5 0.5 h -0.5 -0.5 z m -1,-2 V -48 h 0.5 0.5 v 0.5 0.5 h -0.5 -0.5 z m -1,-2 V -50 h 0.5 0.5 v 0.5 0.5 h -0.5 -0.5 z m -1,-2 V -52 h 0.5 0.5 v 0.5 0.5 h -0.5 -0.5 z m -17,-2 V -54 h 0.5 0.5 v 0.5 0.5 h -0.5 -0.5 z m 4,0 V -54 h 0.5 0.5 v 0.5 0.5 h -0.5 -0.5 z m 12,0 V -54 h 0.5 0.5 v 0.5 0.5 h -0.5 -0.5 z m -1,-2 V -56 h 0.5 0.5 v 0.5 0.5 h -0.5 -0.5 z m -16,-1.5 v -1 h 0.5 0.5 v 1 1 h -0.5 -0.5 z m 6,0 v -1 h 0.5 0.5 v 1 1 h -0.5 -0.5 z m 9,-0.5 V -58 h 0.5 0.5 v 0.5 0.5 h -0.5 -0.5 z m -1,-2 V -60 h 0.5 0.5 v 0.5 0.5 h -0.5 -0.5 z m -1,-2 V -62 h 0.5 0.5 v 0.5 0.5 h -0.5 -0.5 z m -1,-2 V -64 h 0.5 0.5 v 0.5 0.5 h -0.5 -0.5 z m -12,-1 V -65 h 0.5 0.5 v 0.5 0.5 h -0.5 -0.5 z m 6,0 V -65 h 0.5 0.5 v 0.5 0.5 h -0.5 -0.5 z m 5,-1 V -66 h 0.5 0.5 v 0.5 0.5 h -0.5 -0.5 z m -10,-1 V -67 h 0.5 0.5 v 0.5 0.5 h -0.5 -0.5 z m 4,0 V -67 h 0.5 0.5 v 0.5 0.5 h -0.5 -0.5 z m 5,-1 V -68 h 0.5 0.5 v 0.5 0.5 h -0.5 -0.5 z m -1,-2 V -70 h 0.5 0.5 v 0.5 0.5 h -0.5 -0.5 z m -1,-2 V -72 h 0.5 0.5 v 0.5 0.5 h -0.5 -0.5 z m -1,-2 V -74 h 0.5 0.5 v 0.5 0.5 h -0.5 -0.5 z m -1,-2 V -76 h 0.5 0.5 v 0.5 0.5 h -0.5 -0.5 z"
       id="path2" /><path
       style="fill:#000000"
       d="M -196,-35.5 V -36 h 18 18 v -0.5 -0.5 h 0.5 0.5 v -0.5 -0.5 h 0.5 0.5 v -2 -2 h -0.5 -0.5 v -1 -1 h -0.5 -0.5 v -1 -1 h -0.5 -0.5 v -1 -1 h -0.5 -0.5 v -1 -1 h -0.5 -0.5 v -1 -1 h -0.5 -0.5 v -1 -1 h -0.5 -0.5 v -1 -1 h -0.5 -0.5 v -1 -1 h -0.5 -0.5 v -1 -1 h -0.5 -0.5 v -1 -1 h -0.5 -0.5 v -1 -1 h -0.5 -0.5 v -1 -1 h -0.5 -0.5 v -1 -1 h -0.5 -0.5 v -1 -1 h -0.5 -0.5 v -1 -1 h -0.5 -0.5 v -1 -1 h -0.5 -0.5 v -1 -1 h -0.5 -0.5 v -1 -1 h -0.5 -0.5 v -1 -1 h 0.5 0.5 v 1 1 h 0.5 0.5 v 0.5 0.5 h 0.5 0.5 v 1 1 h 0.5 0.5 v 1 1 h 0.5 0.5 v 1 1 h 0.5 0.5 v 1 1 h 0.5 0.5 v 1 1 h 0.5 0.5 v 1 1 h 0.5 0.5 v 1 1 h 0.5 0.5 v 1 1 h 0.5 0.5 v 1 1 h 0.5 0.5 v 1 1 h 0.5 0.5 v 1 1 h 0.5 0.5 v 1 1 h 0.5 0.5 v 1 1 h 0.5 0.5 v 1 1 h 0.5 0.5 v 1 1 h 0.5 0.5 v 1 1 h 0.5 0.5 v 1 1 h 0.5 0.5 v 3 3 h -0.5 -0.5 v 0.5 0.5 h -0.5 -0.5 v 0.5 0.5 h -18.5 -18.5 z m 17,-7 V -43 h -0.5 -0.5 v -0.5 -0.5 h -0.5 -0.5 v -0.5 -0.5 h 0.5 0.5 v -0.5 -0.5 h 0.5 0.5 v -0.5 -0.5 h 0.5 0.5 v 0.5 0.5 h 0.5 0.5 v 0.5 0.5 h 0.5 0.5 v 0.5 0.5 h -0.5 -0.5 v 0.5 0.5 h -0.5 -0.5 v 0.5 0.5 h -0.5 -0.5 z m 0,-7.5 v -1 h -0.5 -0.5 v -1.5 -1.5 h -0.5 -0.5 v -2 -2 h -0.5 -0.5 v -3 -3 h 0.5 0.5 v -1 -1 h 0.5 0.5 v -0.5 -0.5 h 1.5 1.5 v 0.5 0.5 h 0.5 0.5 v 1 1 h 0.5 0.5 v 3 3 h -0.5 -0.5 v 2 2 h -0.5 -0.5 v 1.5 1.5 h -0.5 -0.5 v 1 1 h -0.5 -0.5 z"
       id="path1" /></g></svg>
