<?xml version="1.0" encoding="UTF-8" standalone="no"?>
<svg
   xmlns:dc="http://purl.org/dc/elements/1.1/"
   xmlns:cc="http://creativecommons.org/ns#"
   xmlns:rdf="http://www.w3.org/1999/02/22-rdf-syntax-ns#"
   xmlns:svg="http://www.w3.org/2000/svg"
   xmlns="http://www.w3.org/2000/svg"
   id="svg1758"
   width="960px"
   version="1.1"
   height="960px">
  <metadata
     id="metadata1762">
    <rdf:RDF>
      <cc:Work
         rdf:about="">
        <dc:format>image/svg+xml</dc:format>
        <dc:type
           rdf:resource="http://purl.org/dc/dcmitype/StillImage" />
      </cc:Work>
    </rdf:RDF>
  </metadata>
  <defs
     id="defs2" />
  <path
     style="fill:#800000"
     d="M 560 240 L 560 260 L 580 260 L 600 260 L 600 240 L 580 240 L 560 240 z M 560 380 L 560 400 L 560 420 L 580 420 L 600 420 L 600 400 L 600 380 L 580 380 L 560 380 z "
     id="rect700" />
  <path
     style="fill:#008000"
     d="M 780 240 L 780 260 L 800 260 L 800 240 L 780 240 z M 780 380 L 780 400 L 780 420 L 800 420 L 800 400 L 800 380 L 780 380 z "
     id="rect720" />
  <path
     style="fill:#00ff00"
     d="M 720 240 L 720 260 L 720 280 L 720 300 L 720 320 L 720 340 L 720 360 L 720 380 L 740 380 L 760 380 L 780 380 L 800 380 L 800 400 L 800 420 L 820 420 L 840 420 L 840 400 L 840 380 L 840 360 L 840 340 L 840 320 L 840 300 L 840 280 L 840 260 L 820 260 L 800 260 L 780 260 L 780 240 L 760 240 L 740 240 L 720 240 z "
     id="rect724" />
  <path
     style="fill:#ff0000"
     d="M 600 240 L 600 260 L 580 260 L 560 260 L 540 260 L 540 280 L 540 300 L 540 320 L 540 340 L 540 360 L 540 380 L 540 400 L 540 420 L 560 420 L 560 400 L 560 380 L 580 380 L 600 380 L 620 380 L 640 380 L 660 380 L 660 360 L 660 340 L 660 320 L 660 300 L 660 280 L 660 260 L 660 240 L 640 240 L 620 240 L 600 240 z M 20 320 L 20 340 L 20 360 L 20 380 L 40 380 L 60 380 L 60 360 L 60 340 L 60 320 L 40 320 L 20 320 z M 420 320 L 420 340 L 420 360 L 400 360 L 380 360 L 360 360 L 360 380 L 360 400 L 360 420 L 360 440 L 380 440 L 380 420 L 400 420 L 420 420 L 440 420 L 440 400 L 440 380 L 440 360 L 440 340 L 440 320 L 420 320 z M 120 360 L 120 380 L 100 380 L 80 380 L 80 400 L 80 420 L 80 440 L 100 440 L 120 440 L 120 420 L 140 420 L 140 400 L 140 380 L 140 360 L 120 360 z M 300 360 L 300 380 L 280 380 L 260 380 L 260 400 L 260 420 L 260 440 L 260 460 L 260 480 L 280 480 L 300 480 L 300 460 L 300 440 L 320 440 L 320 420 L 320 400 L 320 380 L 320 360 L 300 360 z M 200 380 L 200 400 L 200 420 L 180 420 L 180 440 L 180 460 L 180 480 L 200 480 L 200 460 L 200 440 L 220 440 L 240 440 L 240 420 L 240 400 L 240 380 L 220 380 L 200 380 z "
     id="rect854" />
  <path
     style="fill:#000080"
     d="M 560 480 L 560 500 L 580 500 L 600 500 L 600 480 L 580 480 L 560 480 z M 560 620 L 560 640 L 560 660 L 580 660 L 600 660 L 600 640 L 600 620 L 580 620 L 560 620 z "
     id="rect1416" />
  <path
     style="fill:#808000"
     d="M 780 480 L 780 500 L 800 500 L 800 480 L 780 480 z M 780 620 L 780 640 L 780 660 L 800 660 L 800 640 L 800 620 L 780 620 z "
     id="rect1436" />
  <path
     style="fill:#ffff00"
     d="M 720 480 L 720 500 L 720 520 L 720 540 L 720 560 L 720 580 L 720 600 L 720 620 L 740 620 L 760 620 L 780 620 L 800 620 L 800 640 L 800 660 L 820 660 L 840 660 L 840 640 L 840 620 L 840 600 L 840 580 L 840 560 L 840 540 L 840 520 L 840 500 L 820 500 L 800 500 L 780 500 L 780 480 L 760 480 L 740 480 L 720 480 z "
     id="rect1440" />
  <path
     style="fill:#0000ff"
     d="M 600 480 L 600 500 L 580 500 L 560 500 L 540 500 L 540 520 L 540 540 L 540 560 L 540 580 L 540 600 L 540 620 L 540 640 L 540 660 L 560 660 L 560 640 L 560 620 L 580 620 L 600 620 L 620 620 L 640 620 L 660 620 L 660 600 L 660 580 L 660 560 L 660 540 L 660 520 L 660 500 L 660 480 L 640 480 L 620 480 L 600 480 z M 20 560 L 20 580 L 20 600 L 20 620 L 40 620 L 60 620 L 60 600 L 60 580 L 60 560 L 40 560 L 20 560 z M 420 560 L 420 580 L 420 600 L 400 600 L 380 600 L 360 600 L 360 620 L 360 640 L 360 660 L 360 680 L 380 680 L 380 660 L 400 660 L 420 660 L 440 660 L 440 640 L 440 620 L 440 600 L 440 580 L 440 560 L 420 560 z M 120 600 L 120 620 L 100 620 L 80 620 L 80 640 L 80 660 L 80 680 L 100 680 L 120 680 L 120 660 L 140 660 L 140 640 L 140 620 L 140 600 L 120 600 z M 300 600 L 300 620 L 280 620 L 260 620 L 260 640 L 260 660 L 260 680 L 260 700 L 260 720 L 280 720 L 300 720 L 300 700 L 300 680 L 320 680 L 320 660 L 320 640 L 320 620 L 320 600 L 300 600 z M 200 620 L 200 640 L 200 660 L 180 660 L 180 680 L 180 700 L 180 720 L 200 720 L 200 700 L 200 680 L 220 680 L 240 680 L 240 660 L 240 640 L 240 620 L 220 620 L 200 620 z "
     id="rect1570" />
  <path
     style="fill:#000000"
     d="M 560 140 L 560 160 L 560 180 L 540 180 L 520 180 L 500 180 L 500 200 L 480 200 L 480 220 L 480 240 L 480 260 L 480 280 L 480 300 L 480 320 L 480 340 L 480 360 L 480 380 L 480 400 L 480 420 L 480 440 L 480 460 L 480 480 L 480 500 L 480 520 L 480 540 L 480 560 L 480 580 L 480 600 L 480 620 L 480 640 L 480 660 L 480 680 L 480 700 L 480 720 L 480 740 L 480 760 L 480 780 L 500 780 L 520 780 L 540 780 L 540 760 L 540 740 L 560 740 L 580 740 L 600 740 L 600 720 L 620 720 L 640 720 L 660 720 L 680 720 L 700 720 L 720 720 L 740 720 L 760 720 L 780 720 L 780 740 L 800 740 L 820 740 L 840 740 L 840 760 L 840 780 L 860 780 L 880 780 L 900 780 L 900 760 L 900 740 L 900 720 L 900 700 L 900 680 L 900 660 L 900 640 L 900 620 L 900 600 L 900 580 L 900 560 L 900 540 L 900 520 L 900 500 L 900 480 L 900 460 L 900 440 L 900 420 L 900 400 L 900 380 L 900 360 L 900 340 L 900 320 L 900 300 L 900 280 L 900 260 L 900 240 L 900 220 L 900 200 L 880 200 L 860 200 L 860 180 L 840 180 L 820 180 L 800 180 L 800 160 L 800 140 L 780 140 L 760 140 L 740 140 L 720 140 L 700 140 L 680 140 L 660 140 L 640 140 L 620 140 L 600 140 L 580 140 L 560 140 z M 20 200 L 20 220 L 20 240 L 20 260 L 40 260 L 60 260 L 60 240 L 60 220 L 60 200 L 40 200 L 20 200 z M 420 200 L 420 220 L 420 240 L 400 240 L 380 240 L 360 240 L 360 260 L 360 280 L 360 300 L 360 320 L 380 320 L 380 300 L 400 300 L 420 300 L 440 300 L 440 280 L 440 260 L 440 240 L 440 220 L 440 200 L 420 200 z M 120 240 L 120 260 L 100 260 L 80 260 L 80 280 L 80 300 L 80 320 L 100 320 L 120 320 L 120 300 L 140 300 L 140 280 L 140 260 L 140 240 L 120 240 z M 300 240 L 300 260 L 280 260 L 260 260 L 260 280 L 260 300 L 260 320 L 260 340 L 260 360 L 280 360 L 300 360 L 300 340 L 300 320 L 320 320 L 320 300 L 320 280 L 320 260 L 320 240 L 300 240 z M 560 240 L 580 240 L 600 240 L 620 240 L 640 240 L 660 240 L 660 260 L 660 280 L 660 300 L 660 320 L 660 340 L 660 360 L 660 380 L 640 380 L 620 380 L 600 380 L 600 400 L 600 420 L 580 420 L 560 420 L 540 420 L 540 400 L 540 380 L 540 360 L 540 340 L 540 320 L 540 300 L 540 280 L 540 260 L 560 260 L 560 240 z M 720 240 L 740 240 L 760 240 L 780 240 L 800 240 L 800 260 L 820 260 L 840 260 L 840 280 L 840 300 L 840 320 L 840 340 L 840 360 L 840 380 L 840 400 L 840 420 L 820 420 L 800 420 L 780 420 L 780 400 L 780 380 L 760 380 L 740 380 L 720 380 L 720 360 L 720 340 L 720 320 L 720 300 L 720 280 L 720 260 L 720 240 z M 200 260 L 200 280 L 200 300 L 180 300 L 180 320 L 180 340 L 180 360 L 200 360 L 200 340 L 200 320 L 220 320 L 240 320 L 240 300 L 240 280 L 240 260 L 220 260 L 200 260 z M 20 440 L 20 460 L 20 480 L 20 500 L 40 500 L 60 500 L 60 480 L 60 460 L 60 440 L 40 440 L 20 440 z M 420 440 L 420 460 L 420 480 L 400 480 L 380 480 L 360 480 L 360 500 L 360 520 L 360 540 L 360 560 L 380 560 L 380 540 L 400 540 L 420 540 L 440 540 L 440 520 L 440 500 L 440 480 L 440 460 L 440 440 L 420 440 z M 120 480 L 120 500 L 100 500 L 80 500 L 80 520 L 80 540 L 80 560 L 100 560 L 120 560 L 120 540 L 140 540 L 140 520 L 140 500 L 140 480 L 120 480 z M 300 480 L 300 500 L 280 500 L 260 500 L 260 520 L 260 540 L 260 560 L 260 580 L 260 600 L 280 600 L 300 600 L 300 580 L 300 560 L 320 560 L 320 540 L 320 520 L 320 500 L 320 480 L 300 480 z M 560 480 L 580 480 L 600 480 L 620 480 L 640 480 L 660 480 L 660 500 L 660 520 L 660 540 L 660 560 L 660 580 L 660 600 L 660 620 L 640 620 L 620 620 L 600 620 L 600 640 L 600 660 L 580 660 L 560 660 L 540 660 L 540 640 L 540 620 L 540 600 L 540 580 L 540 560 L 540 540 L 540 520 L 540 500 L 560 500 L 560 480 z M 720 480 L 740 480 L 760 480 L 780 480 L 800 480 L 800 500 L 820 500 L 840 500 L 840 520 L 840 540 L 840 560 L 840 580 L 840 600 L 840 620 L 840 640 L 840 660 L 820 660 L 800 660 L 780 660 L 780 640 L 780 620 L 760 620 L 740 620 L 720 620 L 720 600 L 720 580 L 720 560 L 720 540 L 720 520 L 720 500 L 720 480 z M 200 500 L 200 520 L 200 540 L 180 540 L 180 560 L 180 580 L 180 600 L 200 600 L 200 580 L 200 560 L 220 560 L 240 560 L 240 540 L 240 520 L 240 500 L 220 500 L 200 500 z M 20 680 L 20 700 L 20 720 L 20 740 L 40 740 L 60 740 L 60 720 L 60 700 L 60 680 L 40 680 L 20 680 z M 420 680 L 420 700 L 420 720 L 400 720 L 380 720 L 360 720 L 360 740 L 360 760 L 360 780 L 360 800 L 380 800 L 380 780 L 400 780 L 420 780 L 440 780 L 440 760 L 440 740 L 440 720 L 440 700 L 440 680 L 420 680 z M 120 720 L 120 740 L 100 740 L 80 740 L 80 760 L 80 780 L 80 800 L 100 800 L 120 800 L 120 780 L 140 780 L 140 760 L 140 740 L 140 720 L 120 720 z M 300 720 L 300 740 L 280 740 L 260 740 L 260 760 L 260 780 L 260 800 L 260 820 L 260 840 L 280 840 L 300 840 L 300 820 L 300 800 L 320 800 L 320 780 L 320 760 L 320 740 L 320 720 L 300 720 z M 200 740 L 200 760 L 200 780 L 180 780 L 180 800 L 180 820 L 180 840 L 200 840 L 200 820 L 200 800 L 220 800 L 240 800 L 240 780 L 240 760 L 240 740 L 220 740 L 200 740 z "
     id="rect1756" />
</svg>
