<?xml version="1.0" encoding="UTF-8" standalone="no"?>
<svg
   id="svg906"
   width="48"
   version="1.1"
   height="48"
   sodipodi:docname="xfce4-cpufreq-plugin.svg"
   inkscape:version="1.3 (0e150ed6c4, 2023-07-21)"
   xml:space="preserve"
   xmlns:inkscape="http://www.inkscape.org/namespaces/inkscape"
   xmlns:sodipodi="http://sodipodi.sourceforge.net/DTD/sodipodi-0.dtd"
   xmlns="http://www.w3.org/2000/svg"
   xmlns:svg="http://www.w3.org/2000/svg"
   xmlns:rdf="http://www.w3.org/1999/02/22-rdf-syntax-ns#"
   xmlns:cc="http://creativecommons.org/ns#"
   xmlns:dc="http://purl.org/dc/elements/1.1/"><sodipodi:namedview
     pagecolor="#ffffff"
     bordercolor="#666666"
     borderopacity="1"
     objecttolerance="10"
     gridtolerance="10"
     guidetolerance="10"
     inkscape:pageopacity="0"
     inkscape:pageshadow="2"
     inkscape:window-width="1920"
     inkscape:window-height="1008"
     id="namedview456"
     showgrid="false"
     inkscape:zoom="11.8"
     inkscape:cx="9.7881356"
     inkscape:cy="23.771187"
     inkscape:window-x="0"
     inkscape:window-y="0"
     inkscape:window-maximized="1"
     inkscape:current-layer="svg906"
     inkscape:showpageshadow="2"
     inkscape:pagecheckerboard="0"
     inkscape:deskcolor="#d1d1d1" /><metadata
     id="metadata910"><rdf:RDF><cc:Work
         rdf:about=""><dc:format>image/svg+xml</dc:format><dc:type
           rdf:resource="http://purl.org/dc/dcmitype/StillImage" /></cc:Work></rdf:RDF></metadata><defs
     id="defs2" /><g
     id="g4"
     transform="translate(17.711866,6.7796611)"><path
       style="fill:#fefefe"
       d="m -4.7118664,29.720339 v -0.5 h -0.5 -0.5 v -0.5 -0.5 h -0.5 -0.5 v -1 -1 h 0.5 0.5 v 0.5 0.5 h 0.5 0.5 v 0.5 0.5 h 0.5 0.5 v 1 1 h -0.5 -0.5 z m -7.9999996,-8 v -0.5 h -0.5 -0.5 v -0.5 -0.5 h -0.5 -0.5 v -0.5 -0.5 h -0.5 -0.5 v -1 -1 h 0.5 0.5 v 0.5 0.5 h 0.5 0.5 v 0.5 0.5 h 0.5 0.5 v 0.5 0.5 h 0.5 0.5 v 0.5 0.5 h 0.5 0.5 v 0.5 0.5 h -1 -1 z"
       id="path7" /><path
       style="fill:#bfbfbf"
       d="m -4.7118664,34.720339 v -0.5 h -0.5 -0.5 v -0.5 -0.5 h -0.5 -0.5 v -2.5 -2.5 h 0.5 0.5 v 0.5 0.5 h 0.5 0.5 v 0.5 0.5 h 0.5 0.5 v 2.5 2.5 h -0.5 -0.5 z m 4.00000002,-4 v -0.5 h 1 0.99999998 v 0.5 0.5 h -0.99999998 -1 z m -8.00000002,-1 v -0.5 h -0.5 -0.5 v -3.5 -3.5 h 1.5 1.5 v -0.5 -0.5 h -2.5 -2.4999996 v -0.5 -0.5 h -0.5 -0.5 v -0.5 -0.5 h -0.5 -0.5 v -0.5 -0.5 h -0.5 -0.5 v -0.5 -0.5 h -0.5 -0.5 v -0.5 -0.5 h 0.5 0.5 v -0.5 -0.5 h 1 1 v -0.5 -0.5 h 1 1 v -0.5 -0.5 h 0.9999996 1 v -0.5 -0.5 h 1 1 v -0.5 -0.5 h 1 1 v -0.5 -0.5 h 1 1 v -0.5000002 -0.5 h 1 1.00000002 v -0.5 -0.5 h 1 0.99999998 v -0.5 -0.5 h 1 1 v -0.5 -0.5 h 1 1 v -0.5 -0.5 h 1 1 v -0.5 -0.5 h 1 1 v -0.5 -0.5 h 1.0000004 1 v -0.5 -0.5 h 1 1 v -0.5 -0.5 h 1.5 1.5 v 0.5 0.5 h 0.5 0.5 v 0.5 0.5 h 0.5 0.5 v 0.5 0.5 h 0.5 0.5 v 0.5 0.5 h 0.5 0.5 v 0.5 0.5 h 0.5 0.5 v 0.5 0.5 h 0.5 0.5 v 0.5 0.5 h 0.5 0.5 v 0.5 0.5 h 0.5 0.5 v 0.5 0.5000002 h 0.5 0.5 v 0.5 0.5 h 0.5 0.5 v 0.5 0.5 h 0.5 0.5 v 0.5 0.5 h 0.5 0.5 v 0.5 0.5 h -1 -1 v 0.5 0.5 h -1 -1 v 0.5 0.5 h -1 -1 v 0.5 0.5 h -1 -1 v 0.5 0.5 h -1 -1 v 0.5 0.5 h -1 -1 v 0.5 0.5 h -1 -1 v 0.5 0.5 h -1 -1 v 0.5 0.5 h -1 -1 v 0.5 0.5 h -1.0000004 -1 v 0.5 0.5 h -1 -1 v 0.5 0.5 h -1 -1 v 0.5 0.5 h -1 -1 v 0.5 0.5 h -1 -0.99999998 v 0.5 0.5 h -1 -1.00000002 v 0.5 0.5 h -1 -1 v -0.5 -0.5 h -0.5 -0.5 v -0.5 -0.5 h -0.5 -0.5 v -0.5 -0.5 h -0.5 -0.5 v -1 -1 h 0.5 0.5 v -1 -1 h -0.5 -0.5 v 0.5 0.5 h -0.5 -0.5 v 3.5 3.5 h -0.5 -0.5 z m 14,-2 v -0.5 h 1 1 v 0.5 0.5 h -1 -1 z m -17.9999996,-1 v -0.5 h -0.5 -0.5 v -0.5 -0.5 h -0.5 -0.5 v -0.5 -0.5 h -0.5 -0.5 v -2.5 -2.5 h 0.5 0.5 v 0.5 0.5 h 0.5 0.5 v 0.5 0.5 h 0.5 0.5 v 0.5 0.5 h 0.5 0.5 v 2.5 2.5 h -0.5 -0.5 z m 24,-2 v -0.5 h 1 1 v 0.5 0.5 h -1 -1 z m 6,-3 v -0.5 h 1 1 v 0.5 0.5 h -1 -1 z m 6,-3 v -0.5 h 1 1 v 0.5 0.5 h -1 -1 z"
       id="path6" /><path
       style="fill:#7f7f7f"
       d="m -0.71186638,34.720339 v -3.5 h 1 0.99999998 v 3.5 3.5 h -0.99999998 -1 z m -3.00000002,-2 v -3.5 h 1 1 v -0.5 -0.5 h 1.00000002 1 v -0.5 -0.5 h 0.99999998 1 v -0.5 -0.5 h 1 1 v -0.5 -0.5 h 1 1 v -0.5 -0.5 h 1 1 v -0.5 -0.5 h 1 1.0000004 v -0.5 -0.5 h 1 1 v -0.5 -0.5 h 1 1 v -0.5 -0.5 h 1 1 v -0.5 -0.5 h 1 1 v -0.5 -0.5 h 1 1 v -0.5 -0.5 h 1 1 v -0.5 -0.5 h 1 1 v -0.5 -0.5 h 1 1 v -0.5 -0.5 h 1 1 v 3.5 3.5 h -1 -1 v -1.5 -1.5 h -0.5 -0.5 v -0.5 -0.5 h -1 -1 v 0.5 0.5 h -0.5 -0.5 v 3 3 h -1 -1 v -1.5 -1.5 h -0.5 -0.5 v -0.5 -0.5 h -1 -1 v 0.5 0.5 h -0.5 -0.5 v 3 3 h -1 -1 v -1.5 -1.5 h -0.5 -0.5 v -0.5 -0.5 h -1 -1 v 0.5 0.5 h -0.5 -0.5 v 3 3 h -1.0000004 -1 v -1.5 -1.5 h -0.5 -0.5 v -0.5 -0.5 h -1 -1 v 0.5 0.5 h -0.5 -0.5 v 3 3 h -1 -1 v -1.5 -1.5 h -0.5 -0.5 v -0.5 -0.5 h -0.99999998 -1 v 0.5 0.5 h -0.50000002 -0.5 v 3 3 h -1 -1 z m 9,-1 v -3.5 h 1 1 v 3.5 3.5 h -1 -1 z m -13,-4 v -4.5 h 0.5 0.5 v -0.5 -0.5 h -1.5 -1.5 v 3 3 h -0.9999996 -1 v -3 -3 h 0.5 0.5 v -0.5 -0.5 h 1.9999996 2 v 0.5 0.5 h 0.5 0.5 v 1 1 h -0.5 -0.5 v 4 4 h -0.5 -0.5 z m 19.0000004,1 v -3.5 h 1 1 v 3.5 3.5 h -1 -1 z m 6,-3 v -3.5 h 1 1 v 3.5 3.5 h -1 -1 z m 6,-3 v -3.5 h 1 1 v 3.5 3.5 h -1 -1 z m -41,-2.5 v -4 h 0.5 0.5 v -0.5 -0.5 h 1 1 v -0.5 -0.5 h 1 1 v -0.5 -0.5 h 1 1 v -0.5 -0.5 h 0.9999996 1 v -0.5 -0.5 h 1 1 v -0.5 -0.5 h 1 1 v -0.5000002 -0.5 h 1 1 v -0.5 -0.5 h 1 1.00000002 v -0.5 -0.5 h 1 0.99999998 v -0.5 -0.5 h 1 1 v -0.5 -0.5 h 1 1 v -0.5 -0.5 h 1 1 v -0.5 -0.5 h 1 1 v -0.5 -0.5 h 1.0000004 1 v -0.5 -0.5 h 0.5 0.5 v -0.49999998 -0.5 h 1.5 1.5 v 0.5 0.49999998 h -1 -1 v 0.5 0.5 h -1 -1 v 0.5 0.5 h -1 -1.0000004 v 0.5 0.5 h -1 -1 v 0.5 0.5 h -1 -1 v 0.5 0.5 h -1 -1 v 0.5 0.5 h -1 -1 v 0.5 0.5 h -0.99999998 -1 v 0.5 0.5 h -1.00000002 -1 v 0.5 0.5000002 h -1 -1 v 0.5 0.5 h -1 -1 v 0.5 0.5 h -1 -1 v 0.5 0.5 h -1 -0.9999996 v 0.5 0.5 h -1 -1 v 0.5 0.5 h -1 -1 v 0.5 0.5 h -0.5 -0.5 v 4 4 h -1 -1 z"
       id="path5" /><path
       style="fill:#000000"
       d="m -0.71186638,38.720339 v -0.5 h -0.50000002 -0.5 v -0.5 -0.5 h -1 -1 v -0.5 -0.5 h -0.5 -0.5 v -0.5 -0.5 h -0.5 -0.5 v -0.5 -0.5 h -0.5 -0.5 v -0.5 -0.5 h -0.5 -0.5 v -0.5 -0.5 h 0.5 0.5 v 0.5 0.5 h 0.5 0.5 v 0.5 0.5 h 0.5 0.5 v 0.5 0.5 h 0.5 0.5 v 0.5 0.5 h 1 1 v -3 -3 h 0.5 0.50000002 v -0.5 -0.5 h 1 0.99999998 v 0.5 0.5 h 0.5 0.5 v 1.5 1.5 h 1 1 v -3 -3 h 0.5 0.5 v -0.5 -0.5 h 1 1 v 0.5 0.5 h 0.5 0.5 v 1.5 1.5 h 1 1.0000004 v -3 -3 h 0.5 0.5 v -0.5 -0.5 h 1 1 v 0.5 0.5 h 0.5 0.5 v 1.5 1.5 h 1 1 v -3 -3 h 0.5 0.5 v -0.5 -0.5 h 1 1 v 0.5 0.5 h 0.5 0.5 v 1.5 1.5 h 1 1 v -3 -3 h 0.5 0.5 v -0.5 -0.5 h 1 1 v 0.5 0.5 h 0.5 0.5 v 1.5 1.5 h 1 1 v -4 -4 h -0.5 -0.5 v -0.5 -0.5 h -0.5 -0.5 v -0.5 -0.5 h -0.5 -0.5 v -0.5 -0.5 h -0.5 -0.5 v -0.5000002 -0.5 h -0.5 -0.5 v -0.5 -0.5 h -0.5 -0.5 v -0.5 -0.5 h -0.5 -0.5 v -0.5 -0.5 h -0.5 -0.5 v -0.5 -0.5 h -0.5 -0.5 v -0.5 -0.5 h -0.5 -0.5 v -0.5 -0.5 h -0.5 -0.5 v -0.5 -0.5 h -0.5 -0.5 v -0.5 -0.5 h -0.5 -0.5 v -0.49999998 -0.5 h 0.5 0.5 v 0.5 0.49999998 h 0.5 0.5 v 0.5 0.5 h 0.5 0.5 v 0.5 0.5 h 0.5 0.5 v 0.5 0.5 h 0.5 0.5 v 0.5 0.5 h 0.5 0.5 v 0.5 0.5 h 0.5 0.5 v 0.5 0.5 h 0.5 0.5 v 0.5 0.5 h 0.5 0.5 v 0.5 0.5 h 0.5 0.5 v 0.5 0.5000002 h 0.5 0.5 v 0.5 0.5 h 0.5 0.5 v 0.5 0.5 h 0.5 0.5 v 0.5 0.5 h 0.5 0.5 v 4 4 h -0.5 -0.5 v 0.5 0.5 h -1 -1 v 2 2 h -0.5 -0.5 v 0.5 0.5 h -1 -1 v -0.5 -0.5 h -0.5 -0.5 v -0.5 -0.5 h -1 -1 v 2 2 h -0.5 -0.5 v 0.5 0.5 h -1 -1 v -0.5 -0.5 h -0.5 -0.5 v -0.5 -0.5 h -1 -1 v 2 2 h -0.5 -0.5 v 0.5 0.5 h -1 -1 v -0.5 -0.5 h -0.5 -0.5 v -0.5 -0.5 h -1.0000004 -1 v 2 2 h -0.5 -0.5 v 0.5 0.5 h -1 -1 v -0.5 -0.5 h -0.5 -0.5 v -0.5 -0.5 h -1 -1 v 2 2 h -0.5 -0.5 v 0.5 0.5 h -0.99999998 -1 z m 1.99999998,-4.5 v -4 h -0.99999998 -1 v 4 4 h 1 0.99999998 z m 6,-3 v -4 h -1 -1 v 4 4 h 1 1 z m 6.0000004,-3 v -4 h -1 -1 v 4 4 h 1 1 z m 6,-3 v -4 h -1 -1 v 4 4 h 1 1 z m 6,-3 v -4 h -1 -1 v 4 4 h 1 1 z m -34.0000004,8.5 v -0.5 h -0.5 -0.5 v -0.5 -0.5 h -0.9999996 -1 v -0.5 -0.5 h -0.5 -0.5 v -0.5 -0.5 h -0.5 -0.5 v -0.5 -0.5 h -0.5 -0.5 v -0.5 -0.5 h -0.5 -0.5 v -0.5 -0.5 h 0.5 0.5 v 0.5 0.5 h 0.5 0.5 v 0.5 0.5 h 0.5 0.5 v 0.5 0.5 h 0.5 0.5 v 0.5 0.5 h 1 0.9999996 v 0.5 0.5 h 0.5 0.5 v 0.5 0.5 h 0.5 0.5 v 0.5 0.5 h -0.5 -0.5 z m -6.9999996,-16 v -0.5 h 0.5 0.5 v -0.5 -0.5 h 1 1 v 0.5 0.5 h -1 -1 v 0.5 0.5 h -0.5 -0.5 z m 5.9999996,-3 v -0.5 h 0.5 0.5 v -0.5 -0.5 h 1 1 v 0.5 0.5 h -1 -1 v 0.5 0.5 h -0.5 -0.5 z m 6,-3.0000002 v -0.5 h 0.5 0.5 v -0.5 -0.5 h 1 1.00000002 v 0.5 0.5 h -1.00000002 -1 v 0.5 0.5 h -0.5 -0.5 z m 6,-3 v -0.5 h 0.5 0.5 v -0.5 -0.5 h 1 1 v 0.5 0.5 h -1 -1 v 0.5 0.5 h -0.5 -0.5 z m 6,-3 v -0.5 h 0.5 0.5 v -0.5 -0.5 h 1.0000004 1 v 0.5 0.5 h -1 -1.0000004 v 0.5 0.5 h -0.5 -0.5 z"
       id="path4" /></g></svg>
