/* XPM */
static char * bottom_inactive_xpm[] = {
"16 5 4 1",
" 	c None",
".	c #000000 s inactive_border_color",
"@	c #C0C0C0 s inactive_color_2",
"#	c #808080 s inactive_shadow_2",
"@@@@@@@@@@@@@@@@",
"@@@@@@@@@@@@@@@@",
"@@@@@@@@@@@@@@@@",
"################",
"................"};
