/* XPM */
static char * bottom_right_inactive_xpm[] = {
"12 12 4 1",
" 	c None",
".	c #000000 s inactive_border_color",
"@	c #D8D8D8 s inactive_color_2",
"#	c #B2B2B2 s inactive_shadow_2",
"       @@@#.",
"       @@@#.",
"       @@@#.",
"       @@@#.",
"       @@@#.",
"       @@@#.",
"       @@@#.",
"@@@@@@@@@@#.",
"@@@@@@@@@@#.",
"@@@@@@@@@@#.",
"###########.",
"............"};
