/* XPM */
static char * close_pressed_xpm[] = {
"18 24 5 1",
"       c None",
".      c #000000 s active_border_color",
"+      c #808080 s active_shadow_2",
"@      c #C0C0C0 s active_color_2",
"#      c #FFFFFF s active_hilight_2",
"                  ",
"                  ",
"                  ",
"                  ",
"                  ",
"                  ",
"  .++++++++++++++#",
"  .+@@@@@@@@@@@@@#",
"  .+@@@@@@@@@@@@@#",
"  .+@@@@@@@@@@@@@#",
"  .+@@@..@@@@..@@#",
"  .+@@@@..@@..@@@#",
"  .+@@@@@....@@@@#",
"  .+@@@@@@..@@@@@#",
"  .+@@@@@....@@@@#",
"  .+@@@@..@@..@@@#",
"  .+@@@..@@@@..@@#",
"  .+@@@@@@@@@@@@@#",
"  .+@@@@@@@@@@@@@#",
"  .###############",
"                  ",
"                  ",
"                  ",
"                  "};
