/* XPM */
static char * close_pressed_xpm[] = {
"18 24 8 1",
"       c None",
"^      c #8CB754 s active_color_1",
"+      c #000000 s active_shadow_1",
"&      c #FFFFFF s active_hilight_2",
"#      c #FFFFFF s active_hilight_1",
"@      c #C0C0C0 s active_mid_1",
".      c #FF00FF s active_mid_2",
"S      c #808080 s active_shadow_2",
"                  ",
"                  ",
"                  ",
"                  ",
"^^^^^^^^^^^^^^^^^^",
"^^^^^^^^^^^^^^^^^^",
"^^+++++++++++++++&",
"^^+SSSSSSSSSSSSS#&",
"^^+S@@@@@@@@@@@@#&",
"^^+S@@@@@@@@@@@@#&",
"^^+S@@@..@@@@..@#&",
"^^+S@@@@..@@..@@#&",
"^^+S@@@@@....@@@#&",
"^^+S@@@@@@..@@@@#&",
"^^+S@@@@@....@@@#&",
"^^+S@@@@..@@..@@#&",
"^^+S@@@..@@@@..@#&",
"^^+S@@@@@@@@@@@@#&",
"^^+##############&",
"^^&&&&&&&&&&&&&&&&",
"^^^^^^^^^^^^^^^^^^",
"^^^^^^^^^^^^^^^^^^",
"                  ",
"                  "};
