/* XPM */
static char * hide_inactive_xpm[] = {
"16 24 8 1",
"       c None",
"^      c #8CB754 s inactive_color_1",
"&      c #000000 s inactive_shadow_1",
"+      c #FFFFFF s inactive_hilight_2",
"S      c #FFFFFF s inactive_hilight_1",
"@      c #C0C0C0 s inactive_mid_1",
"#      c #808080 s inactive_shadow_2",
".      c #FF00FF s inactive_mid_2",
"                ",
"                ",
"                ",
"                ",
"^^^^^^^^^^^^^^^^",
"^^^^^^^^^^^^^^^^",
"+++++++++++++++&",
"+SSSSSSSSSSSSS#&",
"+S@@@@@@@@@@@@#&",
"+S@@@@@@@@@@@@#&",
"+S@@@@@@@@@@@@#&",
"+S@@@@@@@@@@@@#&",
"+S@@@@@@@@@@@@#&",
"+S@@@@@@@@@@@@#&",
"+S@@@@@@@@@@@@#&",
"+S@@......@@@@#&",
"+S@@......@@@@#&",
"+S@@@@@@@@@@@@#&",
"+##############&",
"&&&&&&&&&&&&&&&&",
"^^^^^^^^^^^^^^^^",
"^^^^^^^^^^^^^^^^",
"                ",
"                "};

