/* XPM */
static char * hide_pressed_xpm[] = {
"16 24 7 1",
"       c None",
"&      c #000000 s active_shadow_1",
"+      c #FFFFFF s active_shadow_2",
"S      c #FFFFFF s active_hilight_1",
"@      c #C0C0C0 s active_mid_1",
".      c #FF00FF s active_mid_2",
"#      c #808080 s active_hilight_2",
"                ",
"                ",
"                ",
"                ",
"                ",
"                ",
"&&&&&&&&&&&&&&&#",
"&+++++++++++++S#",
"&+@@@@@@@@@@@@S#",
"&+@@@@@@@@@@@@S#",
"&+@@@@@@@@@@@@S#",
"&+@@@@@@@@@@@@S#",
"&+@@@@@@@@@@@@S#",
"&+@@@@@@@@@@@@S#",
"&+@@@@@@@@@@@@S#",
"&+@@@@@@@@@@@@S#",
"&+@@@......@@@S#",
"&+@@@......@@@S#",
"&SSSSSSSSSSSSSS#",
"################",
"                ",
"                ",
"                ",
"                "};

