/* XPM */
static char * left_active_xpm[] = {
"5 1 3 1",
" 	c None",
"+	c #FFFFFF s active_hilight_2",
"@	c #D8D8D8 s active_color_2",
"@+@@@"};