/* XPM */
static char * maximize_active_xpm[] = {
"16 24 7 1",
"       c None",
"&      c #000000 s active_shadow_1",
"+      c #FFFFFF s active_hilight_2",
"S      c #FFFFFF s active_hilight_1",
"@      c #C0C0C0 s active_mid_1",
".      c #C0C0C0 s active_mid_2",
"#      c #808080 s active_shadow_2",
"                ",
"                ",
"                ",
"                ",
"                ",
"                ",
"+++++++++++++++&",
"+SSSSSSSSSSSSS#&",
"+S@.........@@#&",
"+S@.........@@#&",
"+S@.@@@@@@@.@@#&",
"+S@.@@@@@@@.@@#&",
"+S@.@@@@@@@.@@#&",
"+S@.@@@@@@@.@@#&",
"+S@.@@@@@@@.@@#&",
"+S@.@@@@@@@.@@#&",
"+S@.........@@#&",
"+S@@@@@@@@@@@@#&",
"+##############&",
"&&&&&&&&&&&&&&&&",
"                ",
"                ",
"                ",
"                "};

