/* XPM */
static char * maximize_pressed_xpm[] = {
"16 24 5 1",
"       c None",
".      c #000000 s active_border_color",
"+      c #B2B2B2 s active_shadow_2",
"@      c #D8D8D8 s active_color_2",
"#      c #FFFFFF s active_hilight_2",
"                ",
"                ",
"                ",
"                ",
"                ",
"                ",
"................",
".+@@@@@@@@@@@@@#",
".+@@@@@@@@@@@@@#",
".+@@.........@@#",
".+@@.........@@#",
".+@@.@@@@@@@.@@#",
".+@@.@@@@@@@.@@#",
".+@@.@@@@@@@.@@#",
".+@@.@@@@@@@.@@#",
".+@@.@@@@@@@.@@#",
".+@@.@@@@@@@.@@#",
".+@@.........@@#",
".+@@@@@@@@@@@@@#",
".###############",
"                ",
"                ",
"                ",
"                "};

