/* XPM */
static char * maximize_toggled_inactive_xpm[] = {
"16 24 6 1",
" 	c None",
".	c #FFFFFF",
"+	c #000000",
"@	c #EBEBEB",
"#	c #B2B2B2",
"$	c #D8D8D8",
"                ",
"                ",
"                ",
"                ",
"                ",
"                ",
"...............+",
".@@@@@@@@@@@@@#+",
".@$$$++++++$$$#+",
".@$$$++++++$$$#+",
".@$$$+$$$$+$$$#+",
".@$++++++$+$$$#+",
".@$++++++$+$$$#+",
".@$+$$$$+++$$$#+",
".@$+$$$$+$$$$$#+",
".@$+$$$$+$$$$$#+",
".@$++++++$$$$$#+",
".@$$$$$$$$$$$$#+",
".##############+",
"++++++++++++++++",
"                ",
"                ",
"                ",
"                "};
