/* XPM */
static char * top_right_active_xpm[] = {
"4 24 7 1",
" 	c None",
".	c #000000 s active_shadow_1",
"+	c #FFFFFF s active_hilight_2",
"@	c #C0C0C0 s active_mid_1",
"&      c #FF00FF s active_border_color",
"#	c #808080 s active_shadow_2",
"S      c #FF00FF s active_hilight_1",
"SSS.",
"++#.",
"&&#.",
"@&#.",
"@&#.",
"@&#.",
"@&#.",
"@&#.",
"@&#.",
"@&#.",
"@&#.",
"@&#.",
"@&#.",
"@&#.",
"@&#.",
"@&#.",
"@&#.",
"@&#.",
"@&#.",
"@&#.",
"@&#.",
"@&#.",
"@&#.",
"@&#."};
