<?xml version="1.0" encoding="UTF-8" standalone="no"?>
<svg
   xmlns:dc="http://purl.org/dc/elements/1.1/"
   xmlns:cc="http://creativecommons.org/ns#"
   xmlns:rdf="http://www.w3.org/1999/02/22-rdf-syntax-ns#"
   xmlns:svg="http://www.w3.org/2000/svg"
   xmlns="http://www.w3.org/2000/svg"
   xmlns:sodipodi="http://sodipodi.sourceforge.net/DTD/sodipodi-0.dtd"
   xmlns:inkscape="http://www.inkscape.org/namespaces/inkscape"
   id="svg216"
   width="320px"
   version="1.1"
   height="320px"
   sodipodi:docname="chicago95_tmp_file.svg"
   inkscape:version="0.92.5 (2060ec1f9f, 2020-04-08)">
  <sodipodi:namedview
     pagecolor="#ffffff"
     bordercolor="#666666"
     borderopacity="1"
     objecttolerance="10"
     gridtolerance="10"
     guidetolerance="10"
     inkscape:pageopacity="0"
     inkscape:pageshadow="2"
     inkscape:window-width="640"
     inkscape:window-height="480"
     id="namedview111"
     showgrid="false"
     inkscape:zoom="0.7375"
     inkscape:cx="160"
     inkscape:cy="160"
     inkscape:window-x="0"
     inkscape:window-y="0"
     inkscape:window-maximized="0"
     inkscape:current-layer="svg216" />
  <metadata
     id="metadata220">
    <rdf:RDF>
      <cc:Work
         rdf:about="">
        <dc:format>image/svg+xml</dc:format>
        <dc:type
           rdf:resource="http://purl.org/dc/dcmitype/StillImage" />
      </cc:Work>
    </rdf:RDF>
  </metadata>
  <defs
     id="defs2" />
  <path
     style="fill:#800000"
     d="M 80 20 L 80 40 L 60 40 L 60 60 L 40 60 L 40 80 L 20 80 L 20 100 L 20 101 L 20 120 L 20 121 L 20 140 L 20 141 L 20 160 L 20 161 L 20 180 L 20 181 L 20 200 L 20 201 L 20 220 L 20 221 L 20 241 L 40 241 L 40 261 L 60 261 L 60 281 L 80 281 L 80 301 L 100 301 L 101 301 L 120 301 L 121 301 L 140 301 L 141 301 L 160 301 L 161 301 L 180 301 L 181 301 L 200 301 L 201 301 L 220 301 L 221 301 L 241 301 L 241 281 L 261 281 L 261 261 L 281 261 L 281 241 L 301 241 L 301 221 L 301 220 L 301 201 L 301 200 L 301 181 L 301 180 L 301 161 L 301 160 L 301 141 L 301 140 L 301 121 L 301 120 L 301 101 L 301 100 L 301 80 L 281 80 L 281 60 L 261 60 L 261 40 L 241 40 L 241 20 L 221 20 L 220 20 L 201 20 L 200 20 L 181 20 L 180 20 L 161 20 L 160 20 L 141 20 L 140 20 L 121 20 L 120 20 L 101 20 L 100 20 L 80 20 z M 101 61 L 120 61 L 121 61 L 140 61 L 141 61 L 160 61 L 161 61 L 180 61 L 181 61 L 200 61 L 201 61 L 220 61 L 220 80 L 200 80 L 200 100 L 180 100 L 180 120 L 160 120 L 160 140 L 140 140 L 140 160 L 120 160 L 120 180 L 100 180 L 100 200 L 80 200 L 80 220 L 61 220 L 61 201 L 61 200 L 61 181 L 61 180 L 61 161 L 61 160 L 61 141 L 61 140 L 61 121 L 61 120 L 61 101 L 81 101 L 81 81 L 101 81 L 101 61 z M 241 101 L 260 101 L 260 120 L 260 121 L 260 140 L 260 141 L 260 160 L 260 161 L 260 180 L 260 181 L 260 200 L 260 201 L 260 220 L 240 220 L 240 240 L 220 240 L 220 260 L 201 260 L 200 260 L 181 260 L 180 260 L 161 260 L 160 260 L 141 260 L 140 260 L 121 260 L 120 260 L 101 260 L 101 241 L 121 241 L 121 221 L 141 221 L 141 201 L 161 201 L 161 181 L 181 181 L 181 161 L 201 161 L 201 141 L 221 141 L 221 121 L 241 121 L 241 101 z "
     id="rect214" />
</svg>
