<?xml version="1.0" encoding="UTF-8" standalone="no"?>
<svg
   xmlns:dc="http://purl.org/dc/elements/1.1/"
   xmlns:cc="http://creativecommons.org/ns#"
   xmlns:rdf="http://www.w3.org/1999/02/22-rdf-syntax-ns#"
   xmlns:svg="http://www.w3.org/2000/svg"
   xmlns="http://www.w3.org/2000/svg"
   xmlns:sodipodi="http://sodipodi.sourceforge.net/DTD/sodipodi-0.dtd"
   xmlns:inkscape="http://www.inkscape.org/namespaces/inkscape"
   id="svg348"
   width="320px"
   version="1.1"
   height="320px"
   sodipodi:docname="chicago95_tmp_file.svg"
   inkscape:version="0.92.5 (2060ec1f9f, 2020-04-08)">
  <sodipodi:namedview
     pagecolor="#ffffff"
     bordercolor="#666666"
     borderopacity="1"
     objecttolerance="10"
     gridtolerance="10"
     guidetolerance="10"
     inkscape:pageopacity="0"
     inkscape:pageshadow="2"
     inkscape:window-width="452"
     inkscape:window-height="423"
     id="namedview177"
     showgrid="false"
     inkscape:zoom="0.7375"
     inkscape:cx="162.71186"
     inkscape:cy="154.57627"
     inkscape:window-x="0"
     inkscape:window-y="0"
     inkscape:window-maximized="0"
     inkscape:current-layer="svg348" />
  <metadata
     id="metadata352">
    <rdf:RDF>
      <cc:Work
         rdf:about="">
        <dc:format>image/svg+xml</dc:format>
        <dc:type
           rdf:resource="http://purl.org/dc/dcmitype/StillImage" />
      </cc:Work>
    </rdf:RDF>
  </metadata>
  <defs
     id="defs2" />
  <path
     style="fill:#00ff00"
     d="M 260 80 L 260 101 L 281 101 L 281 80 L 260 80 z "
     id="rect74" />
  <path
     style="fill:#ffff00"
     d="M 260 160 L 260 181 L 281 181 L 281 160 L 260 160 z "
     id="rect194" />
  <path
     style="fill:#00ffff"
     d="M 260 200 L 260 221 L 281 221 L 281 200 L 260 200 z "
     id="rect254" />
  <path
     style="fill:#808080"
     d="M 40 40 L 40 60 L 21 60 L 20 60 L 0 60 L 0 80 L 0 81 L 0 100 L 0 101 L 0 120 L 0 121 L 0 140 L 0 141 L 0 160 L 0 161 L 0 180 L 0 181 L 0 200 L 0 201 L 0 220 L 0 221 L 0 240 L 0 241 L 0 261 L 21 261 L 21 241 L 21 240 L 21 221 L 21 220 L 21 201 L 21 200 L 21 181 L 21 180 L 21 161 L 21 160 L 21 141 L 21 140 L 21 121 L 21 120 L 21 101 L 21 100 L 21 81 L 40 81 L 40 100 L 40 101 L 40 120 L 40 121 L 40 140 L 40 141 L 40 160 L 40 161 L 40 180 L 40 181 L 40 200 L 40 201 L 40 221 L 61 221 L 61 201 L 61 200 L 61 181 L 61 180 L 61 161 L 61 160 L 61 141 L 61 140 L 61 121 L 61 120 L 61 101 L 61 100 L 61 81 L 61 80 L 61 61 L 80 61 L 81 61 L 100 61 L 101 61 L 120 61 L 120 81 L 141 81 L 141 60 L 121 60 L 121 40 L 101 40 L 100 40 L 81 40 L 80 40 L 61 40 L 60 40 L 40 40 z M 180 40 L 180 60 L 160 60 L 160 81 L 181 81 L 181 61 L 200 61 L 201 61 L 220 61 L 221 61 L 240 61 L 241 61 L 261 61 L 261 40 L 241 40 L 240 40 L 221 40 L 220 40 L 201 40 L 200 40 L 180 40 z "
     id="rect288" />
  <path
     style="fill:#ffffff"
     d="M 60 60 L 60 80 L 60 81 L 60 100 L 60 101 L 60 120 L 60 121 L 60 140 L 60 141 L 60 160 L 60 161 L 60 180 L 60 181 L 60 200 L 60 201 L 60 221 L 80 221 L 81 221 L 100 221 L 101 221 L 120 221 L 120 240 L 101 240 L 100 240 L 81 240 L 80 240 L 61 240 L 60 240 L 41 240 L 41 221 L 41 220 L 41 201 L 41 200 L 41 181 L 41 180 L 41 161 L 41 160 L 41 141 L 41 140 L 41 121 L 41 120 L 41 101 L 41 100 L 41 80 L 20 80 L 20 100 L 20 101 L 20 120 L 20 121 L 20 140 L 20 141 L 20 160 L 20 161 L 20 180 L 20 181 L 20 200 L 20 201 L 20 220 L 20 221 L 20 240 L 20 241 L 20 261 L 40 261 L 41 261 L 60 261 L 61 261 L 80 261 L 81 261 L 100 261 L 101 261 L 121 261 L 121 241 L 141 241 L 141 220 L 121 220 L 121 201 L 141 201 L 141 181 L 141 180 L 141 160 L 121 160 L 121 141 L 141 141 L 141 120 L 121 120 L 121 101 L 141 101 L 141 80 L 121 80 L 121 60 L 101 60 L 100 60 L 81 60 L 80 60 L 60 60 z M 180 60 L 180 80 L 160 80 L 160 100 L 160 101 L 160 121 L 180 121 L 180 140 L 160 140 L 160 161 L 180 161 L 180 180 L 160 180 L 160 200 L 160 201 L 160 220 L 160 221 L 160 241 L 180 241 L 180 261 L 200 261 L 201 261 L 220 261 L 221 261 L 240 261 L 241 261 L 260 261 L 261 261 L 281 261 L 281 240 L 261 240 L 260 240 L 241 240 L 240 240 L 221 240 L 220 240 L 201 240 L 200 240 L 181 240 L 181 221 L 200 221 L 201 221 L 220 221 L 221 221 L 241 221 L 241 201 L 241 200 L 241 181 L 241 180 L 241 161 L 241 160 L 241 141 L 241 140 L 241 121 L 241 120 L 241 101 L 241 100 L 241 81 L 241 80 L 241 60 L 221 60 L 220 60 L 201 60 L 200 60 L 180 60 z M 81 81 L 100 81 L 101 81 L 120 81 L 120 100 L 101 100 L 100 100 L 81 100 L 81 81 z M 181 101 L 200 101 L 201 101 L 220 101 L 220 120 L 201 120 L 200 120 L 181 120 L 181 101 z M 260 120 L 260 141 L 281 141 L 281 120 L 260 120 z M 81 121 L 100 121 L 101 121 L 120 121 L 120 140 L 101 140 L 100 140 L 81 140 L 81 121 z M 181 141 L 200 141 L 201 141 L 220 141 L 220 160 L 201 160 L 200 160 L 181 160 L 181 141 z M 81 181 L 100 181 L 101 181 L 120 181 L 120 200 L 101 200 L 100 200 L 81 200 L 81 181 z "
     id="rect314" />
  <path
     style="fill:#000000"
     d="M 240 60 L 240 80 L 240 81 L 240 100 L 240 101 L 240 120 L 240 121 L 240 140 L 240 141 L 240 160 L 240 161 L 240 180 L 240 181 L 240 200 L 240 201 L 240 220 L 221 220 L 220 220 L 201 220 L 200 220 L 180 220 L 180 240 L 161 240 L 161 221 L 161 220 L 161 201 L 161 200 L 161 181 L 181 181 L 181 161 L 200 161 L 201 161 L 221 161 L 221 140 L 201 140 L 200 140 L 181 140 L 181 121 L 200 121 L 201 121 L 221 121 L 221 100 L 201 100 L 200 100 L 180 100 L 180 120 L 161 120 L 161 101 L 161 100 L 161 80 L 140 80 L 140 100 L 121 100 L 121 80 L 101 80 L 100 80 L 80 80 L 80 101 L 100 101 L 101 101 L 120 101 L 120 120 L 101 120 L 100 120 L 80 120 L 80 141 L 100 141 L 101 141 L 120 141 L 120 161 L 140 161 L 140 180 L 140 181 L 140 200 L 121 200 L 121 180 L 101 180 L 100 180 L 80 180 L 80 201 L 100 201 L 101 201 L 120 201 L 120 220 L 101 220 L 100 220 L 81 220 L 80 220 L 61 220 L 60 220 L 40 220 L 40 241 L 60 241 L 61 241 L 80 241 L 81 241 L 100 241 L 101 241 L 120 241 L 120 260 L 101 260 L 100 260 L 81 260 L 80 260 L 61 260 L 60 260 L 41 260 L 40 260 L 21 260 L 20 260 L 0 260 L 0 281 L 20 281 L 21 281 L 40 281 L 41 281 L 60 281 L 61 281 L 80 281 L 81 281 L 100 281 L 101 281 L 120 281 L 121 281 L 140 281 L 141 281 L 160 281 L 161 281 L 180 281 L 181 281 L 200 281 L 201 281 L 220 281 L 221 281 L 240 281 L 241 281 L 260 281 L 261 281 L 280 281 L 281 281 L 301 281 L 301 261 L 301 260 L 301 241 L 301 240 L 301 221 L 301 220 L 301 201 L 301 200 L 301 181 L 301 180 L 301 161 L 301 160 L 301 141 L 301 140 L 301 121 L 301 120 L 301 101 L 301 100 L 301 81 L 301 80 L 301 60 L 281 60 L 280 60 L 261 60 L 260 60 L 240 60 z M 261 81 L 280 81 L 280 100 L 261 100 L 261 81 z M 121 121 L 140 121 L 140 140 L 121 140 L 121 121 z M 261 121 L 280 121 L 280 140 L 261 140 L 261 121 z M 161 141 L 180 141 L 180 160 L 161 160 L 161 141 z M 261 161 L 280 161 L 280 180 L 261 180 L 261 161 z M 261 201 L 280 201 L 280 220 L 261 220 L 261 201 z M 121 221 L 140 221 L 140 240 L 121 240 L 121 221 z M 181 241 L 200 241 L 201 241 L 220 241 L 221 241 L 240 241 L 241 241 L 260 241 L 261 241 L 280 241 L 280 260 L 261 260 L 260 260 L 241 260 L 240 260 L 221 260 L 220 260 L 201 260 L 200 260 L 181 260 L 181 241 z "
     id="rect346" />
</svg>
