<?xml version="1.0" encoding="UTF-8" standalone="no"?>
<svg
   xmlns:dc="http://purl.org/dc/elements/1.1/"
   xmlns:cc="http://creativecommons.org/ns#"
   xmlns:rdf="http://www.w3.org/1999/02/22-rdf-syntax-ns#"
   xmlns:svg="http://www.w3.org/2000/svg"
   xmlns="http://www.w3.org/2000/svg"
   xmlns:sodipodi="http://sodipodi.sourceforge.net/DTD/sodipodi-0.dtd"
   xmlns:inkscape="http://www.inkscape.org/namespaces/inkscape"
   id="svg194"
   width="320px"
   version="1.1"
   height="320px"
   sodipodi:docname="chicago95_tmp_file.svg"
   inkscape:version="0.92.5 (2060ec1f9f, 2020-04-08)">
  <sodipodi:namedview
     pagecolor="#ffffff"
     bordercolor="#666666"
     borderopacity="1"
     objecttolerance="10"
     gridtolerance="10"
     guidetolerance="10"
     inkscape:pageopacity="0"
     inkscape:pageshadow="2"
     inkscape:window-width="640"
     inkscape:window-height="480"
     id="namedview100"
     showgrid="false"
     inkscape:zoom="0.7375"
     inkscape:cx="160"
     inkscape:cy="160"
     inkscape:window-x="0"
     inkscape:window-y="0"
     inkscape:window-maximized="0"
     inkscape:current-layer="svg194" />
  <metadata
     id="metadata198">
    <rdf:RDF>
      <cc:Work
         rdf:about="">
        <dc:format>image/svg+xml</dc:format>
        <dc:type
           rdf:resource="http://purl.org/dc/dcmitype/StillImage" />
      </cc:Work>
    </rdf:RDF>
  </metadata>
  <defs
     id="defs2" />
  <path
     style="fill:#ffffff"
     d="M 220 120 L 220 140 L 220 141 L 220 160 L 220 161 L 220 181 L 240 181 L 241 181 L 260 181 L 261 181 L 281 181 L 281 161 L 281 160 L 281 141 L 281 140 L 281 120 L 261 120 L 260 120 L 241 120 L 240 120 L 220 120 z "
     id="rect120" />
  <path
     style="fill:#c0c0c0"
     d="M 60 120 L 60 140 L 60 141 L 60 160 L 60 161 L 60 180 L 60 181 L 60 200 L 60 201 L 60 220 L 60 221 L 60 240 L 60 241 L 60 261 L 80 261 L 81 261 L 100 261 L 101 261 L 120 261 L 121 261 L 141 261 L 141 241 L 141 240 L 141 221 L 141 220 L 141 201 L 141 200 L 141 181 L 141 180 L 141 161 L 141 160 L 141 141 L 141 140 L 141 120 L 121 120 L 120 120 L 101 120 L 100 120 L 81 120 L 80 120 L 60 120 z "
     id="rect178" />
  <path
     style="fill:#000000"
     d="M 0 60 L 0 81 L 20 81 L 21 81 L 40 81 L 41 81 L 60 81 L 61 81 L 80 81 L 81 81 L 100 81 L 101 81 L 120 81 L 121 81 L 140 81 L 141 81 L 160 81 L 161 81 L 180 81 L 181 81 L 200 81 L 201 81 L 220 81 L 221 81 L 240 81 L 241 81 L 260 81 L 261 81 L 280 81 L 281 81 L 300 81 L 301 81 L 321 81 L 321 60 L 301 60 L 300 60 L 281 60 L 280 60 L 261 60 L 260 60 L 241 60 L 240 60 L 221 60 L 220 60 L 201 60 L 200 60 L 181 60 L 180 60 L 161 60 L 160 60 L 141 60 L 140 60 L 121 60 L 120 60 L 101 60 L 100 60 L 81 60 L 80 60 L 61 60 L 60 60 L 41 60 L 40 60 L 21 60 L 20 60 L 0 60 z M 40 100 L 40 120 L 40 121 L 40 140 L 40 141 L 40 160 L 40 161 L 40 180 L 40 181 L 40 200 L 40 201 L 40 220 L 40 221 L 40 240 L 40 241 L 40 260 L 40 261 L 40 281 L 60 281 L 61 281 L 80 281 L 81 281 L 100 281 L 101 281 L 120 281 L 121 281 L 140 281 L 141 281 L 161 281 L 161 261 L 161 260 L 161 241 L 161 240 L 161 221 L 161 220 L 161 201 L 161 200 L 161 181 L 161 180 L 161 161 L 161 160 L 161 141 L 161 140 L 161 121 L 161 120 L 161 100 L 141 100 L 140 100 L 121 100 L 120 100 L 101 100 L 100 100 L 81 100 L 80 100 L 61 100 L 60 100 L 40 100 z M 200 100 L 200 120 L 200 121 L 200 140 L 200 141 L 200 160 L 200 161 L 200 180 L 200 181 L 200 201 L 220 201 L 221 201 L 240 201 L 241 201 L 260 201 L 261 201 L 280 201 L 281 201 L 301 201 L 301 181 L 301 180 L 301 161 L 301 160 L 301 141 L 301 140 L 301 121 L 301 120 L 301 100 L 281 100 L 280 100 L 261 100 L 260 100 L 241 100 L 240 100 L 221 100 L 220 100 L 200 100 z M 61 121 L 80 121 L 81 121 L 100 121 L 101 121 L 120 121 L 121 121 L 140 121 L 140 140 L 140 141 L 140 160 L 140 161 L 140 180 L 140 181 L 140 200 L 140 201 L 140 220 L 140 221 L 140 240 L 140 241 L 140 260 L 121 260 L 120 260 L 101 260 L 100 260 L 81 260 L 80 260 L 61 260 L 61 241 L 61 240 L 61 221 L 61 220 L 61 201 L 61 200 L 61 181 L 61 180 L 61 161 L 61 160 L 61 141 L 61 140 L 61 121 z M 221 121 L 240 121 L 241 121 L 260 121 L 261 121 L 280 121 L 280 140 L 280 141 L 280 160 L 280 161 L 280 180 L 261 180 L 260 180 L 241 180 L 240 180 L 221 180 L 221 161 L 221 160 L 221 141 L 221 140 L 221 121 z "
     id="rect192" />
</svg>
