<?xml version="1.0" encoding="UTF-8" standalone="no"?>
<svg
   xmlns:dc="http://purl.org/dc/elements/1.1/"
   xmlns:cc="http://creativecommons.org/ns#"
   xmlns:rdf="http://www.w3.org/1999/02/22-rdf-syntax-ns#"
   xmlns:svg="http://www.w3.org/2000/svg"
   xmlns="http://www.w3.org/2000/svg"
   xmlns:sodipodi="http://sodipodi.sourceforge.net/DTD/sodipodi-0.dtd"
   xmlns:inkscape="http://www.inkscape.org/namespaces/inkscape"
   id="svg172"
   width="320px"
   version="1.1"
   height="320px"
   sodipodi:docname="chicago95_tmp_file.svg"
   inkscape:version="0.92.5 (2060ec1f9f, 2020-04-08)">
  <sodipodi:namedview
     pagecolor="#ffffff"
     bordercolor="#666666"
     borderopacity="1"
     objecttolerance="10"
     gridtolerance="10"
     guidetolerance="10"
     inkscape:pageopacity="0"
     inkscape:pageshadow="2"
     inkscape:window-width="640"
     inkscape:window-height="480"
     id="namedview89"
     showgrid="false"
     inkscape:zoom="0.7375"
     inkscape:cx="160"
     inkscape:cy="160"
     inkscape:window-x="0"
     inkscape:window-y="0"
     inkscape:window-maximized="0"
     inkscape:current-layer="svg172" />
  <metadata
     id="metadata176">
    <rdf:RDF>
      <cc:Work
         rdf:about="">
        <dc:format>image/svg+xml</dc:format>
        <dc:type
           rdf:resource="http://purl.org/dc/dcmitype/StillImage" />
      </cc:Work>
    </rdf:RDF>
  </metadata>
  <defs
     id="defs2" />
  <path
     style="fill:#ffffff"
     d="M 200 140 L 200 160 L 200 161 L 200 180 L 200 181 L 200 201 L 220 201 L 221 201 L 240 201 L 241 201 L 261 201 L 261 181 L 261 180 L 261 161 L 261 160 L 261 140 L 241 140 L 240 140 L 221 140 L 220 140 L 200 140 z "
     id="rect122" />
  <path
     style="fill:#c0c0c0"
     d="M 40 100 L 40 120 L 40 121 L 40 140 L 40 141 L 40 160 L 40 161 L 40 180 L 40 181 L 40 200 L 40 201 L 40 220 L 40 221 L 40 241 L 60 241 L 61 241 L 80 241 L 81 241 L 100 241 L 101 241 L 121 241 L 121 221 L 121 220 L 121 201 L 121 200 L 121 181 L 121 180 L 121 161 L 121 160 L 121 141 L 121 140 L 121 121 L 121 120 L 121 100 L 101 100 L 100 100 L 81 100 L 80 100 L 61 100 L 60 100 L 40 100 z "
     id="rect156" />
  <path
     style="fill:#000000"
     d="M 20 80 L 20 100 L 20 101 L 20 120 L 20 121 L 20 140 L 20 141 L 20 160 L 0 160 L 0 181 L 20 181 L 20 200 L 20 201 L 20 220 L 20 221 L 20 240 L 20 241 L 20 261 L 40 261 L 41 261 L 60 261 L 61 261 L 80 261 L 81 261 L 100 261 L 101 261 L 120 261 L 121 261 L 141 261 L 141 241 L 141 240 L 141 221 L 141 220 L 141 201 L 141 200 L 141 181 L 160 181 L 161 181 L 180 181 L 180 200 L 180 201 L 180 221 L 200 221 L 201 221 L 220 221 L 221 221 L 240 221 L 241 221 L 260 221 L 261 221 L 281 221 L 281 201 L 281 200 L 281 181 L 300 181 L 301 181 L 321 181 L 321 160 L 301 160 L 300 160 L 281 160 L 281 141 L 281 140 L 281 120 L 261 120 L 260 120 L 241 120 L 240 120 L 221 120 L 220 120 L 201 120 L 200 120 L 180 120 L 180 140 L 180 141 L 180 160 L 161 160 L 160 160 L 141 160 L 141 141 L 141 140 L 141 121 L 141 120 L 141 101 L 141 100 L 141 80 L 121 80 L 120 80 L 101 80 L 100 80 L 81 80 L 80 80 L 61 80 L 60 80 L 41 80 L 40 80 L 20 80 z M 41 101 L 60 101 L 61 101 L 80 101 L 81 101 L 100 101 L 101 101 L 120 101 L 120 120 L 120 121 L 120 140 L 120 141 L 120 160 L 120 161 L 120 180 L 120 181 L 120 200 L 120 201 L 120 220 L 120 221 L 120 240 L 101 240 L 100 240 L 81 240 L 80 240 L 61 240 L 60 240 L 41 240 L 41 221 L 41 220 L 41 201 L 41 200 L 41 181 L 41 180 L 41 161 L 41 160 L 41 141 L 41 140 L 41 121 L 41 120 L 41 101 z M 201 141 L 220 141 L 221 141 L 240 141 L 241 141 L 260 141 L 260 160 L 260 161 L 260 180 L 260 181 L 260 200 L 241 200 L 240 200 L 221 200 L 220 200 L 201 200 L 201 181 L 201 180 L 201 161 L 201 160 L 201 141 z "
     id="rect170" />
</svg>
