<?xml version="1.0" encoding="UTF-8" standalone="no"?>
<svg
   xmlns:dc="http://purl.org/dc/elements/1.1/"
   xmlns:cc="http://creativecommons.org/ns#"
   xmlns:rdf="http://www.w3.org/1999/02/22-rdf-syntax-ns#"
   xmlns:svg="http://www.w3.org/2000/svg"
   xmlns="http://www.w3.org/2000/svg"
   xmlns:sodipodi="http://sodipodi.sourceforge.net/DTD/sodipodi-0.dtd"
   xmlns:inkscape="http://www.inkscape.org/namespaces/inkscape"
   id="svg508"
   width="320px"
   version="1.1"
   height="320px"
   sodipodi:docname="chicago95_tmp_file.svg"
   inkscape:version="0.92.5 (2060ec1f9f, 2020-04-08)">
  <sodipodi:namedview
     pagecolor="#ffffff"
     bordercolor="#666666"
     borderopacity="1"
     objecttolerance="10"
     gridtolerance="10"
     guidetolerance="10"
     inkscape:pageopacity="0"
     inkscape:pageshadow="2"
     inkscape:window-width="452"
     inkscape:window-height="423"
     id="namedview257"
     showgrid="false"
     inkscape:zoom="0.7375"
     inkscape:cx="165.42372"
     inkscape:cy="149.15254"
     inkscape:window-x="0"
     inkscape:window-y="0"
     inkscape:window-maximized="0"
     inkscape:current-layer="svg508" />
  <metadata
     id="metadata512">
    <rdf:RDF>
      <cc:Work
         rdf:about="">
        <dc:format>image/svg+xml</dc:format>
        <dc:type
           rdf:resource="http://purl.org/dc/dcmitype/StillImage" />
      </cc:Work>
    </rdf:RDF>
  </metadata>
  <defs
     id="defs2" />
  <path
     style="fill:#c0c0c0"
     d="M 40 40 L 40 60 L 40 61 L 40 80 L 40 81 L 40 100 L 40 101 L 40 120 L 40 121 L 40 141 L 60 141 L 60 160 L 40 160 L 40 180 L 40 181 L 40 200 L 40 201 L 40 220 L 40 221 L 40 240 L 40 241 L 40 260 L 40 261 L 40 281 L 60 281 L 61 281 L 80 281 L 81 281 L 100 281 L 101 281 L 120 281 L 121 281 L 140 281 L 141 281 L 161 281 L 161 261 L 180 261 L 180 281 L 200 281 L 201 281 L 220 281 L 221 281 L 240 281 L 241 281 L 260 281 L 261 281 L 281 281 L 281 261 L 281 260 L 281 241 L 281 240 L 281 221 L 281 220 L 281 201 L 281 200 L 281 181 L 281 180 L 281 160 L 261 160 L 261 141 L 281 141 L 281 121 L 281 120 L 281 101 L 281 100 L 281 81 L 281 80 L 281 61 L 281 60 L 281 40 L 261 40 L 260 40 L 241 40 L 240 40 L 221 40 L 220 40 L 201 40 L 200 40 L 181 40 L 180 40 L 160 40 L 160 60 L 141 60 L 141 40 L 121 40 L 120 40 L 101 40 L 100 40 L 81 40 L 80 40 L 61 40 L 60 40 L 40 40 z M 101 61 L 120 61 L 120 80 L 101 80 L 101 61 z M 161 61 L 180 61 L 180 80 L 180 81 L 180 100 L 180 101 L 180 120 L 180 121 L 180 141 L 200 141 L 200 161 L 220 161 L 221 161 L 240 161 L 240 180 L 221 180 L 220 180 L 201 180 L 200 180 L 180 180 L 180 200 L 161 200 L 160 200 L 141 200 L 141 181 L 141 180 L 141 161 L 161 161 L 161 141 L 161 140 L 161 121 L 161 120 L 161 101 L 161 100 L 161 81 L 161 80 L 161 61 z M 201 61 L 220 61 L 220 80 L 201 80 L 201 61 z M 61 101 L 80 101 L 80 120 L 61 120 L 61 101 z M 241 101 L 260 101 L 260 120 L 241 120 L 241 101 z M 61 201 L 80 201 L 80 220 L 61 220 L 61 201 z M 121 201 L 140 201 L 140 220 L 121 220 L 121 201 z M 241 201 L 260 201 L 260 220 L 241 220 L 241 201 z M 101 241 L 120 241 L 120 260 L 101 260 L 101 241 z M 201 241 L 220 241 L 220 260 L 201 260 L 201 241 z "
     id="rect442" />
  <path
     style="fill:#ff0000"
     d="M 20 0 L 20 20 L 0 20 L 0 40 L 0 41 L 0 60 L 0 61 L 0 80 L 0 81 L 0 100 L 0 101 L 0 120 L 0 121 L 0 140 L 0 141 L 0 160 L 0 161 L 0 180 L 0 181 L 0 200 L 0 201 L 0 220 L 0 221 L 0 240 L 0 241 L 0 260 L 0 261 L 0 280 L 0 281 L 0 301 L 20 301 L 21 301 L 40 301 L 41 301 L 60 301 L 61 301 L 80 301 L 81 301 L 100 301 L 101 301 L 120 301 L 121 301 L 140 301 L 141 301 L 160 301 L 161 301 L 180 301 L 181 301 L 200 301 L 201 301 L 220 301 L 221 301 L 240 301 L 241 301 L 260 301 L 261 301 L 280 301 L 281 301 L 301 301 L 301 281 L 301 280 L 301 261 L 301 260 L 301 241 L 301 240 L 301 221 L 301 220 L 301 201 L 301 200 L 301 181 L 301 180 L 301 161 L 301 160 L 301 141 L 301 140 L 301 121 L 301 120 L 301 101 L 301 100 L 301 81 L 301 80 L 301 61 L 301 60 L 301 41 L 301 40 L 301 21 L 301 20 L 301 0 L 281 0 L 280 0 L 261 0 L 260 0 L 241 0 L 240 0 L 221 0 L 220 0 L 201 0 L 200 0 L 181 0 L 180 0 L 161 0 L 160 0 L 141 0 L 140 0 L 121 0 L 120 0 L 101 0 L 100 0 L 81 0 L 80 0 L 61 0 L 60 0 L 41 0 L 40 0 L 20 0 z M 21 21 L 40 21 L 41 21 L 60 21 L 61 21 L 80 21 L 81 21 L 100 21 L 101 21 L 120 21 L 121 21 L 140 21 L 141 21 L 160 21 L 161 21 L 180 21 L 181 21 L 200 21 L 201 21 L 220 21 L 221 21 L 240 21 L 241 21 L 260 21 L 261 21 L 280 21 L 280 40 L 280 41 L 280 60 L 280 61 L 280 80 L 280 81 L 280 100 L 280 101 L 280 120 L 280 121 L 280 140 L 280 141 L 280 160 L 280 161 L 280 180 L 280 181 L 280 200 L 280 201 L 280 220 L 280 221 L 280 240 L 280 241 L 280 260 L 280 261 L 280 280 L 261 280 L 260 280 L 241 280 L 240 280 L 221 280 L 220 280 L 201 280 L 200 280 L 181 280 L 180 280 L 161 280 L 160 280 L 141 280 L 140 280 L 121 280 L 120 280 L 101 280 L 100 280 L 81 280 L 80 280 L 61 280 L 60 280 L 41 280 L 40 280 L 21 280 L 21 261 L 21 260 L 21 241 L 21 240 L 21 221 L 21 220 L 21 201 L 21 200 L 21 181 L 21 180 L 21 161 L 21 160 L 21 141 L 21 140 L 21 121 L 21 120 L 21 101 L 21 100 L 21 81 L 21 80 L 21 61 L 21 60 L 21 41 L 21 40 L 21 21 z "
     id="rect476" />
  <path
     style="fill:#000000"
     d="M 20 20 L 20 40 L 20 41 L 20 60 L 20 61 L 20 80 L 20 81 L 20 100 L 20 101 L 20 120 L 20 121 L 20 140 L 20 141 L 20 160 L 20 161 L 20 180 L 20 181 L 20 200 L 20 201 L 20 220 L 20 221 L 20 240 L 20 241 L 20 260 L 20 261 L 20 281 L 41 281 L 41 261 L 41 260 L 41 241 L 41 240 L 41 221 L 41 220 L 41 201 L 41 200 L 41 181 L 41 180 L 41 161 L 61 161 L 61 140 L 41 140 L 41 121 L 41 120 L 41 101 L 41 100 L 41 81 L 41 80 L 41 61 L 41 60 L 41 41 L 60 41 L 61 41 L 80 41 L 81 41 L 100 41 L 101 41 L 120 41 L 121 41 L 140 41 L 140 61 L 160 61 L 160 80 L 160 81 L 160 100 L 160 101 L 160 120 L 160 121 L 160 140 L 160 141 L 160 160 L 140 160 L 140 180 L 140 181 L 140 200 L 120 200 L 120 221 L 141 221 L 141 201 L 160 201 L 161 201 L 181 201 L 181 181 L 200 181 L 201 181 L 220 181 L 221 181 L 241 181 L 241 160 L 221 160 L 220 160 L 201 160 L 201 140 L 181 140 L 181 121 L 181 120 L 181 101 L 181 100 L 181 81 L 181 80 L 181 60 L 161 60 L 161 41 L 180 41 L 181 41 L 200 41 L 201 41 L 220 41 L 221 41 L 240 41 L 241 41 L 260 41 L 261 41 L 281 41 L 281 20 L 261 20 L 260 20 L 241 20 L 240 20 L 221 20 L 220 20 L 201 20 L 200 20 L 181 20 L 180 20 L 161 20 L 160 20 L 141 20 L 140 20 L 121 20 L 120 20 L 101 20 L 100 20 L 81 20 L 80 20 L 61 20 L 60 20 L 41 20 L 40 20 L 20 20 z M 300 20 L 300 40 L 300 41 L 300 60 L 300 61 L 300 80 L 300 81 L 300 100 L 300 101 L 300 120 L 300 121 L 300 140 L 300 141 L 300 160 L 300 161 L 300 180 L 300 181 L 300 200 L 300 201 L 300 220 L 300 221 L 300 240 L 300 241 L 300 260 L 300 261 L 300 280 L 300 281 L 300 300 L 281 300 L 280 300 L 261 300 L 260 300 L 241 300 L 240 300 L 221 300 L 220 300 L 201 300 L 200 300 L 181 300 L 180 300 L 161 300 L 160 300 L 141 300 L 140 300 L 121 300 L 120 300 L 101 300 L 100 300 L 81 300 L 80 300 L 61 300 L 60 300 L 41 300 L 40 300 L 20 300 L 20 321 L 40 321 L 41 321 L 60 321 L 61 321 L 80 321 L 81 321 L 100 321 L 101 321 L 120 321 L 121 321 L 140 321 L 141 321 L 160 321 L 161 321 L 180 321 L 181 321 L 200 321 L 201 321 L 220 321 L 221 321 L 240 321 L 241 321 L 260 321 L 261 321 L 280 321 L 281 321 L 301 321 L 301 301 L 321 301 L 321 281 L 321 280 L 321 261 L 321 260 L 321 241 L 321 240 L 321 221 L 321 220 L 321 201 L 321 200 L 321 181 L 321 180 L 321 161 L 321 160 L 321 141 L 321 140 L 321 121 L 321 120 L 321 101 L 321 100 L 321 81 L 321 80 L 321 61 L 321 60 L 321 41 L 321 40 L 321 20 L 300 20 z M 100 60 L 100 81 L 121 81 L 121 60 L 100 60 z M 200 60 L 200 81 L 221 81 L 221 60 L 200 60 z M 60 100 L 60 121 L 81 121 L 81 100 L 60 100 z M 240 100 L 240 121 L 261 121 L 261 100 L 240 100 z M 260 140 L 260 161 L 281 161 L 281 140 L 260 140 z M 60 200 L 60 221 L 81 221 L 81 200 L 60 200 z M 240 200 L 240 221 L 261 221 L 261 200 L 240 200 z M 100 240 L 100 261 L 121 261 L 121 240 L 100 240 z M 200 240 L 200 261 L 221 261 L 221 240 L 200 240 z M 160 260 L 160 281 L 181 281 L 181 260 L 160 260 z "
     id="rect506" />
</svg>
