<?xml version="1.0" encoding="UTF-8" standalone="no"?>
<svg
   xmlns:dc="http://purl.org/dc/elements/1.1/"
   xmlns:cc="http://creativecommons.org/ns#"
   xmlns:rdf="http://www.w3.org/1999/02/22-rdf-syntax-ns#"
   xmlns:svg="http://www.w3.org/2000/svg"
   xmlns="http://www.w3.org/2000/svg"
   xmlns:sodipodi="http://sodipodi.sourceforge.net/DTD/sodipodi-0.dtd"
   xmlns:inkscape="http://www.inkscape.org/namespaces/inkscape"
   id="svg256"
   width="320px"
   version="1.1"
   height="320px"
   sodipodi:docname="chicago95_tmp_file.svg"
   inkscape:version="0.92.5 (2060ec1f9f, 2020-04-08)">
  <sodipodi:namedview
     pagecolor="#ffffff"
     bordercolor="#666666"
     borderopacity="1"
     objecttolerance="10"
     gridtolerance="10"
     guidetolerance="10"
     inkscape:pageopacity="0"
     inkscape:pageshadow="2"
     inkscape:window-width="452"
     inkscape:window-height="423"
     id="namedview131"
     showgrid="false"
     inkscape:zoom="0.7375"
     inkscape:cx="176.27116"
     inkscape:cy="127.45762"
     inkscape:window-x="0"
     inkscape:window-y="0"
     inkscape:window-maximized="0"
     inkscape:current-layer="svg256" />
  <metadata
     id="metadata260">
    <rdf:RDF>
      <cc:Work
         rdf:about="">
        <dc:format>image/svg+xml</dc:format>
        <dc:type
           rdf:resource="http://purl.org/dc/dcmitype/StillImage" />
      </cc:Work>
    </rdf:RDF>
  </metadata>
  <defs
     id="defs2" />
  <path
     style="fill:#800000"
     d="M 160 60 L 160 80 L 160 81 L 160 100 L 140 100 L 140 121 L 160 121 L 160 141 L 181 141 L 181 121 L 201 121 L 201 100 L 181 100 L 181 81 L 181 80 L 181 60 L 160 60 z "
     id="rect92" />
  <path
     style="fill:#0000ff"
     d="M 140 200 L 140 220 L 120 220 L 120 241 L 141 241 L 141 221 L 160 221 L 160 241 L 181 241 L 181 220 L 161 220 L 161 200 L 140 200 z "
     id="rect162" />
  <path
     style="fill:#87888f"
     d="M 60 260 L 60 281 L 80 281 L 81 281 L 100 281 L 101 281 L 120 281 L 121 281 L 140 281 L 141 281 L 160 281 L 161 281 L 180 281 L 181 281 L 201 281 L 201 260 L 181 260 L 180 260 L 161 260 L 160 260 L 141 260 L 140 260 L 121 260 L 120 260 L 101 260 L 100 260 L 81 260 L 80 260 L 60 260 z "
     id="rect212" />
  <path
     style="fill:#a8a857"
     d="M 240 220 L 240 240 L 220 240 L 220 260 L 220 261 L 220 281 L 241 281 L 241 261 L 261 261 L 261 241 L 261 240 L 261 220 L 240 220 z "
     id="rect216" />
  <path
     style="fill:#ffff00"
     d="M 100 20 L 100 40 L 80 40 L 80 61 L 100 61 L 100 81 L 121 81 L 121 60 L 101 60 L 101 41 L 121 41 L 121 20 L 100 20 z M 140 20 L 140 41 L 161 41 L 161 20 L 140 20 z M 180 20 L 180 41 L 201 41 L 201 20 L 180 20 z M 220 20 L 220 41 L 240 41 L 240 60 L 220 60 L 220 81 L 241 81 L 241 61 L 261 61 L 261 40 L 241 40 L 241 20 L 220 20 z M 120 160 L 120 181 L 140 181 L 140 200 L 120 200 L 120 220 L 100 220 L 100 240 L 80 240 L 80 261 L 101 261 L 101 241 L 120 241 L 120 261 L 141 261 L 141 241 L 160 241 L 160 261 L 181 261 L 181 241 L 201 241 L 201 221 L 221 221 L 221 200 L 201 200 L 201 180 L 180 180 L 180 200 L 161 200 L 161 180 L 141 180 L 141 160 L 120 160 z M 141 201 L 160 201 L 160 220 L 141 220 L 141 201 z M 181 201 L 200 201 L 200 220 L 181 220 L 181 201 z M 121 221 L 140 221 L 140 240 L 121 240 L 121 221 z M 161 221 L 180 221 L 180 240 L 161 240 L 161 221 z M 80 280 L 80 301 L 101 301 L 101 280 L 80 280 z M 120 280 L 120 301 L 141 301 L 141 280 L 120 280 z M 160 280 L 160 301 L 181 301 L 181 280 L 160 280 z "
     id="rect232" />
  <path
     style="fill:#ffffff"
     d="M 120 20 L 120 40 L 100 40 L 100 60 L 80 60 L 80 81 L 101 81 L 101 61 L 121 61 L 121 41 L 141 41 L 141 20 L 120 20 z M 160 20 L 160 41 L 181 41 L 181 20 L 160 20 z M 200 20 L 200 41 L 220 41 L 220 61 L 240 61 L 240 81 L 261 81 L 261 60 L 241 60 L 241 40 L 221 40 L 221 20 L 200 20 z M 180 160 L 180 180 L 160 180 L 160 201 L 180 201 L 180 221 L 200 221 L 200 240 L 180 240 L 180 261 L 201 261 L 201 241 L 221 241 L 221 221 L 241 221 L 241 200 L 220 200 L 220 220 L 201 220 L 201 200 L 181 200 L 181 181 L 201 181 L 201 160 L 180 160 z M 120 180 L 120 200 L 100 200 L 100 220 L 80 220 L 80 240 L 60 240 L 60 261 L 81 261 L 81 241 L 100 241 L 100 261 L 121 261 L 121 240 L 101 240 L 101 221 L 121 221 L 121 201 L 141 201 L 141 180 L 120 180 z M 140 240 L 140 261 L 161 261 L 161 240 L 140 240 z M 60 280 L 60 301 L 81 301 L 81 280 L 60 280 z M 100 280 L 100 301 L 121 301 L 121 280 L 100 280 z M 140 280 L 140 301 L 161 301 L 161 280 L 140 280 z M 180 280 L 180 301 L 201 301 L 201 280 L 180 280 z "
     id="rect234" />
  <path
     style="fill:#000000"
     d="M 100 0 L 100 20 L 80 20 L 80 40 L 60 40 L 60 60 L 60 61 L 60 81 L 80 81 L 80 101 L 100 101 L 101 101 L 121 101 L 121 81 L 141 81 L 141 61 L 160 61 L 161 61 L 180 61 L 181 61 L 200 61 L 200 81 L 220 81 L 220 101 L 240 101 L 241 101 L 261 101 L 261 81 L 281 81 L 281 61 L 281 60 L 281 40 L 261 40 L 261 20 L 241 20 L 241 0 L 221 0 L 220 0 L 201 0 L 200 0 L 181 0 L 180 0 L 161 0 L 160 0 L 141 0 L 140 0 L 121 0 L 120 0 L 100 0 z M 101 21 L 120 21 L 121 21 L 140 21 L 141 21 L 160 21 L 161 21 L 180 21 L 181 21 L 200 21 L 201 21 L 220 21 L 221 21 L 240 21 L 240 41 L 260 41 L 260 60 L 260 61 L 260 80 L 241 80 L 240 80 L 221 80 L 221 61 L 221 60 L 221 40 L 201 40 L 200 40 L 181 40 L 180 40 L 161 40 L 160 40 L 141 40 L 140 40 L 120 40 L 120 60 L 120 61 L 120 80 L 101 80 L 100 80 L 81 80 L 81 61 L 81 60 L 81 41 L 101 41 L 101 21 z M 120 140 L 120 160 L 100 160 L 100 180 L 100 181 L 100 200 L 80 200 L 80 220 L 60 220 L 60 240 L 40 240 L 40 260 L 40 261 L 40 280 L 40 281 L 40 301 L 60 301 L 60 321 L 80 321 L 81 321 L 100 321 L 101 321 L 120 321 L 121 321 L 140 321 L 141 321 L 160 321 L 161 321 L 180 321 L 181 321 L 200 321 L 201 321 L 221 321 L 221 301 L 241 301 L 241 281 L 261 281 L 261 261 L 281 261 L 281 241 L 281 240 L 281 221 L 281 220 L 281 200 L 261 200 L 261 180 L 241 180 L 241 160 L 221 160 L 221 140 L 201 140 L 200 140 L 180 140 L 180 160 L 161 160 L 161 140 L 141 140 L 140 140 L 120 140 z M 121 161 L 140 161 L 140 181 L 160 181 L 161 181 L 181 181 L 181 161 L 200 161 L 200 180 L 200 181 L 200 201 L 220 201 L 221 201 L 240 201 L 240 220 L 220 220 L 220 240 L 200 240 L 200 260 L 200 261 L 200 280 L 200 281 L 200 300 L 181 300 L 180 300 L 161 300 L 160 300 L 141 300 L 140 300 L 121 300 L 120 300 L 101 300 L 100 300 L 81 300 L 80 300 L 61 300 L 61 281 L 61 280 L 61 261 L 61 260 L 61 241 L 81 241 L 81 221 L 101 221 L 101 201 L 121 201 L 121 181 L 121 180 L 121 161 z M 241 221 L 260 221 L 260 240 L 260 241 L 260 260 L 240 260 L 240 280 L 221 280 L 221 261 L 221 260 L 221 241 L 241 241 L 241 221 z "
     id="rect254" />
</svg>
