<?xml version="1.0" encoding="UTF-8" standalone="no"?>
<svg
   xmlns:dc="http://purl.org/dc/elements/1.1/"
   xmlns:cc="http://creativecommons.org/ns#"
   xmlns:rdf="http://www.w3.org/1999/02/22-rdf-syntax-ns#"
   xmlns:svg="http://www.w3.org/2000/svg"
   xmlns="http://www.w3.org/2000/svg"
   xmlns:sodipodi="http://sodipodi.sourceforge.net/DTD/sodipodi-0.dtd"
   xmlns:inkscape="http://www.inkscape.org/namespaces/inkscape"
   id="svg260"
   width="320px"
   version="1.1"
   height="320px"
   sodipodi:docname="chicago95_tmp_file.svg"
   inkscape:version="0.92.5 (2060ec1f9f, 2020-04-08)">
  <sodipodi:namedview
     pagecolor="#ffffff"
     bordercolor="#666666"
     borderopacity="1"
     objecttolerance="10"
     gridtolerance="10"
     guidetolerance="10"
     inkscape:pageopacity="0"
     inkscape:pageshadow="2"
     inkscape:window-width="452"
     inkscape:window-height="423"
     id="namedview133"
     showgrid="false"
     inkscape:zoom="0.7375"
     inkscape:cx="162.71186"
     inkscape:cy="154.57627"
     inkscape:window-x="0"
     inkscape:window-y="0"
     inkscape:window-maximized="0"
     inkscape:current-layer="svg260" />
  <metadata
     id="metadata264">
    <rdf:RDF>
      <cc:Work
         rdf:about="">
        <dc:format>image/svg+xml</dc:format>
        <dc:type
           rdf:resource="http://purl.org/dc/dcmitype/StillImage" />
      </cc:Work>
    </rdf:RDF>
  </metadata>
  <defs
     id="defs2" />
  <path
     style="fill:#ffffff"
     d="M 40 100 L 40 120 L 20 120 L 20 141 L 40 141 L 40 160 L 20 160 L 20 181 L 40 181 L 40 200 L 20 200 L 20 221 L 41 221 L 41 201 L 61 201 L 61 181 L 81 181 L 81 161 L 101 161 L 101 141 L 120 141 L 120 161 L 141 161 L 141 141 L 160 141 L 160 161 L 181 161 L 181 141 L 201 141 L 201 120 L 180 120 L 180 140 L 161 140 L 161 120 L 140 120 L 140 140 L 121 140 L 121 120 L 100 120 L 100 140 L 81 140 L 81 120 L 61 120 L 61 100 L 40 100 z M 41 121 L 60 121 L 60 140 L 41 140 L 41 121 z M 61 141 L 80 141 L 80 160 L 61 160 L 61 141 z M 41 161 L 60 161 L 60 180 L 41 180 L 41 161 z "
     id="rect162" />
  <path
     style="fill:#ffff00"
     d="M 20 100 L 20 121 L 40 121 L 40 140 L 20 140 L 20 161 L 40 161 L 40 180 L 20 180 L 20 201 L 40 201 L 40 220 L 20 220 L 20 241 L 41 241 L 41 221 L 61 221 L 61 201 L 81 201 L 81 181 L 101 181 L 101 161 L 121 161 L 121 141 L 140 141 L 140 161 L 161 161 L 161 141 L 180 141 L 180 161 L 201 161 L 201 140 L 181 140 L 181 120 L 160 120 L 160 140 L 141 140 L 141 120 L 120 120 L 120 140 L 101 140 L 101 120 L 81 120 L 81 100 L 60 100 L 60 120 L 41 120 L 41 100 L 20 100 z M 61 121 L 80 121 L 80 140 L 61 140 L 61 121 z M 41 141 L 60 141 L 60 160 L 41 160 L 41 141 z M 81 141 L 100 141 L 100 160 L 81 160 L 81 141 z M 61 161 L 80 161 L 80 180 L 61 180 L 61 161 z M 41 181 L 60 181 L 60 200 L 41 200 L 41 181 z "
     id="rect190" />
  <path
     style="fill:#808000"
     d="M 100 180 L 100 200 L 80 200 L 80 220 L 60 220 L 60 240 L 40 240 L 40 261 L 60 261 L 61 261 L 80 261 L 81 261 L 100 261 L 101 261 L 120 261 L 121 261 L 140 261 L 141 261 L 160 261 L 161 261 L 180 261 L 181 261 L 200 261 L 201 261 L 221 261 L 221 241 L 241 241 L 241 221 L 261 221 L 261 201 L 281 201 L 281 180 L 261 180 L 260 180 L 241 180 L 240 180 L 221 180 L 220 180 L 201 180 L 200 180 L 181 180 L 180 180 L 161 180 L 160 180 L 141 180 L 140 180 L 121 180 L 120 180 L 100 180 z "
     id="rect234" />
  <path
     style="fill:#000000"
     d="M 180 20 L 180 40 L 160 40 L 160 61 L 181 61 L 181 41 L 200 41 L 201 41 L 220 41 L 221 41 L 240 41 L 240 61 L 260 61 L 260 80 L 240 80 L 240 101 L 260 101 L 261 101 L 280 101 L 281 101 L 301 101 L 301 81 L 301 80 L 301 61 L 301 60 L 301 40 L 280 40 L 280 60 L 261 60 L 261 40 L 241 40 L 241 20 L 221 20 L 220 20 L 201 20 L 200 20 L 180 20 z M 20 80 L 20 100 L 0 100 L 0 120 L 0 121 L 0 140 L 0 141 L 0 160 L 0 161 L 0 180 L 0 181 L 0 200 L 0 201 L 0 220 L 0 221 L 0 240 L 0 241 L 0 260 L 0 261 L 0 281 L 20 281 L 21 281 L 40 281 L 41 281 L 60 281 L 61 281 L 80 281 L 81 281 L 100 281 L 101 281 L 120 281 L 121 281 L 140 281 L 141 281 L 160 281 L 161 281 L 180 281 L 181 281 L 200 281 L 201 281 L 221 281 L 221 261 L 241 261 L 241 241 L 261 241 L 261 221 L 281 221 L 281 201 L 301 201 L 301 181 L 321 181 L 321 160 L 301 160 L 300 160 L 281 160 L 280 160 L 261 160 L 260 160 L 241 160 L 240 160 L 221 160 L 221 141 L 221 140 L 221 121 L 221 120 L 221 100 L 201 100 L 200 100 L 181 100 L 180 100 L 161 100 L 160 100 L 141 100 L 140 100 L 121 100 L 120 100 L 101 100 L 100 100 L 81 100 L 81 80 L 61 80 L 60 80 L 41 80 L 40 80 L 20 80 z M 21 101 L 40 101 L 41 101 L 60 101 L 61 101 L 80 101 L 80 121 L 100 121 L 101 121 L 120 121 L 121 121 L 140 121 L 141 121 L 160 121 L 161 121 L 180 121 L 181 121 L 200 121 L 200 140 L 200 141 L 200 160 L 181 160 L 180 160 L 161 160 L 160 160 L 141 160 L 140 160 L 121 160 L 120 160 L 100 160 L 100 180 L 80 180 L 80 200 L 60 200 L 60 220 L 40 220 L 40 240 L 21 240 L 21 221 L 21 220 L 21 201 L 21 200 L 21 181 L 21 180 L 21 161 L 21 160 L 21 141 L 21 140 L 21 121 L 21 120 L 21 101 z M 101 181 L 120 181 L 121 181 L 140 181 L 141 181 L 160 181 L 161 181 L 180 181 L 181 181 L 200 181 L 201 181 L 220 181 L 221 181 L 240 181 L 241 181 L 260 181 L 261 181 L 280 181 L 280 200 L 260 200 L 260 220 L 240 220 L 240 240 L 220 240 L 220 260 L 201 260 L 200 260 L 181 260 L 180 260 L 161 260 L 160 260 L 141 260 L 140 260 L 121 260 L 120 260 L 101 260 L 100 260 L 81 260 L 80 260 L 61 260 L 60 260 L 41 260 L 41 241 L 61 241 L 61 221 L 81 221 L 81 201 L 101 201 L 101 181 z "
     id="rect258" />
</svg>
