<?xml version="1.0" encoding="UTF-8" standalone="no"?>
<svg
   xmlns:dc="http://purl.org/dc/elements/1.1/"
   xmlns:cc="http://creativecommons.org/ns#"
   xmlns:rdf="http://www.w3.org/1999/02/22-rdf-syntax-ns#"
   xmlns:svg="http://www.w3.org/2000/svg"
   xmlns="http://www.w3.org/2000/svg"
   xmlns:sodipodi="http://sodipodi.sourceforge.net/DTD/sodipodi-0.dtd"
   xmlns:inkscape="http://www.inkscape.org/namespaces/inkscape"
   id="svg394"
   width="320px"
   version="1.1"
   height="320px"
   sodipodi:docname="chicago95_tmp_file.svg"
   inkscape:version="0.92.5 (2060ec1f9f, 2020-04-08)">
  <sodipodi:namedview
     pagecolor="#ffffff"
     bordercolor="#666666"
     borderopacity="1"
     objecttolerance="10"
     gridtolerance="10"
     guidetolerance="10"
     inkscape:pageopacity="0"
     inkscape:pageshadow="2"
     inkscape:window-width="452"
     inkscape:window-height="423"
     id="namedview200"
     showgrid="false"
     inkscape:zoom="0.7375"
     inkscape:cx="160"
     inkscape:cy="160"
     inkscape:window-x="0"
     inkscape:window-y="0"
     inkscape:window-maximized="0"
     inkscape:current-layer="svg394" />
  <metadata
     id="metadata398">
    <rdf:RDF>
      <cc:Work
         rdf:about="">
        <dc:format>image/svg+xml</dc:format>
        <dc:type
           rdf:resource="http://purl.org/dc/dcmitype/StillImage" />
      </cc:Work>
    </rdf:RDF>
  </metadata>
  <defs
     id="defs2" />
  <path
     style="fill:#c0c0c0"
     d="M 80 40 L 80 60 L 80 61 L 80 80 L 80 81 L 80 100 L 80 101 L 80 120 L 80 121 L 80 140 L 80 141 L 80 161 L 100 161 L 101 161 L 120 161 L 121 161 L 140 161 L 141 161 L 160 161 L 161 161 L 180 161 L 181 161 L 200 161 L 201 161 L 220 161 L 221 161 L 241 161 L 241 141 L 241 140 L 241 121 L 241 120 L 241 101 L 241 100 L 241 81 L 241 80 L 241 61 L 241 60 L 241 40 L 221 40 L 220 40 L 201 40 L 200 40 L 181 40 L 180 40 L 161 40 L 160 40 L 141 40 L 140 40 L 121 40 L 120 40 L 101 40 L 100 40 L 80 40 z M 260 40 L 260 61 L 281 61 L 281 40 L 260 40 z M 200 220 L 200 240 L 200 241 L 200 260 L 200 261 L 200 281 L 220 281 L 221 281 L 241 281 L 241 261 L 241 260 L 241 241 L 241 240 L 241 220 L 221 220 L 220 220 L 200 220 z "
     id="rect360" />
  <path
     style="fill:#808000"
     d="M 40 40 L 40 60 L 40 61 L 40 80 L 40 81 L 40 100 L 40 101 L 40 120 L 40 121 L 40 140 L 40 141 L 40 160 L 40 161 L 40 180 L 40 181 L 40 200 L 40 201 L 40 220 L 40 221 L 40 240 L 40 241 L 40 260 L 40 261 L 40 281 L 60 281 L 61 281 L 81 281 L 81 261 L 81 260 L 81 241 L 81 240 L 81 221 L 81 220 L 81 201 L 100 201 L 101 201 L 120 201 L 121 201 L 140 201 L 141 201 L 160 201 L 161 201 L 180 201 L 181 201 L 200 201 L 201 201 L 220 201 L 221 201 L 240 201 L 241 201 L 260 201 L 260 220 L 260 221 L 260 240 L 260 241 L 260 260 L 260 261 L 260 281 L 281 281 L 281 261 L 281 260 L 281 241 L 281 240 L 281 221 L 281 220 L 281 201 L 281 200 L 281 181 L 281 180 L 281 161 L 281 160 L 281 141 L 281 140 L 281 121 L 281 120 L 281 101 L 281 100 L 281 80 L 260 80 L 260 100 L 260 101 L 260 120 L 260 121 L 260 140 L 260 141 L 260 160 L 240 160 L 240 180 L 221 180 L 220 180 L 201 180 L 200 180 L 181 180 L 180 180 L 161 180 L 160 180 L 141 180 L 140 180 L 121 180 L 120 180 L 101 180 L 100 180 L 81 180 L 81 160 L 61 160 L 61 141 L 61 140 L 61 121 L 61 120 L 61 101 L 61 100 L 61 81 L 61 80 L 61 61 L 61 60 L 61 40 L 40 40 z "
     id="rect364" />
  <path
     style="fill:#000000"
     d="M 20 20 L 20 40 L 20 41 L 20 60 L 20 61 L 20 80 L 20 81 L 20 100 L 20 101 L 20 120 L 20 121 L 20 140 L 20 141 L 20 160 L 20 161 L 20 180 L 20 181 L 20 200 L 20 201 L 20 220 L 20 221 L 20 240 L 20 241 L 20 260 L 20 261 L 20 281 L 40 281 L 40 301 L 60 301 L 61 301 L 80 301 L 81 301 L 100 301 L 101 301 L 120 301 L 121 301 L 140 301 L 141 301 L 160 301 L 161 301 L 180 301 L 181 301 L 200 301 L 201 301 L 220 301 L 221 301 L 240 301 L 241 301 L 260 301 L 261 301 L 280 301 L 281 301 L 301 301 L 301 281 L 301 280 L 301 261 L 301 260 L 301 241 L 301 240 L 301 221 L 301 220 L 301 201 L 301 200 L 301 181 L 301 180 L 301 161 L 301 160 L 301 141 L 301 140 L 301 121 L 301 120 L 301 101 L 301 100 L 301 81 L 301 80 L 301 61 L 301 60 L 301 41 L 301 40 L 301 20 L 281 20 L 280 20 L 261 20 L 260 20 L 241 20 L 240 20 L 221 20 L 220 20 L 201 20 L 200 20 L 181 20 L 180 20 L 161 20 L 160 20 L 141 20 L 140 20 L 121 20 L 120 20 L 101 20 L 100 20 L 81 20 L 80 20 L 61 20 L 60 20 L 41 20 L 40 20 L 20 20 z M 41 41 L 60 41 L 60 60 L 60 61 L 60 80 L 60 81 L 60 100 L 60 101 L 60 120 L 60 121 L 60 140 L 60 141 L 60 161 L 80 161 L 80 181 L 100 181 L 101 181 L 120 181 L 121 181 L 140 181 L 141 181 L 160 181 L 161 181 L 180 181 L 181 181 L 200 181 L 201 181 L 220 181 L 221 181 L 241 181 L 241 161 L 261 161 L 261 141 L 261 140 L 261 121 L 261 120 L 261 101 L 261 100 L 261 81 L 280 81 L 280 100 L 280 101 L 280 120 L 280 121 L 280 140 L 280 141 L 280 160 L 280 161 L 280 180 L 280 181 L 280 200 L 280 201 L 280 220 L 280 221 L 280 240 L 280 241 L 280 260 L 280 261 L 280 280 L 261 280 L 261 261 L 261 260 L 261 241 L 261 240 L 261 221 L 261 220 L 261 200 L 241 200 L 240 200 L 221 200 L 220 200 L 201 200 L 200 200 L 181 200 L 180 200 L 161 200 L 160 200 L 141 200 L 140 200 L 121 200 L 120 200 L 101 200 L 100 200 L 80 200 L 80 220 L 80 221 L 80 240 L 80 241 L 80 260 L 80 261 L 80 280 L 61 280 L 60 280 L 41 280 L 41 261 L 41 260 L 41 241 L 41 240 L 41 221 L 41 220 L 41 201 L 41 200 L 41 181 L 41 180 L 41 161 L 41 160 L 41 141 L 41 140 L 41 121 L 41 120 L 41 101 L 41 100 L 41 81 L 41 80 L 41 61 L 41 60 L 41 41 z M 81 41 L 100 41 L 101 41 L 120 41 L 121 41 L 140 41 L 141 41 L 160 41 L 161 41 L 180 41 L 181 41 L 200 41 L 201 41 L 220 41 L 221 41 L 240 41 L 240 60 L 240 61 L 240 80 L 240 81 L 240 100 L 240 101 L 240 120 L 240 121 L 240 140 L 240 141 L 240 160 L 221 160 L 220 160 L 201 160 L 200 160 L 181 160 L 180 160 L 161 160 L 160 160 L 141 160 L 140 160 L 121 160 L 120 160 L 101 160 L 100 160 L 81 160 L 81 141 L 81 140 L 81 121 L 81 120 L 81 101 L 81 100 L 81 81 L 81 80 L 81 61 L 81 60 L 81 41 z M 261 41 L 280 41 L 280 60 L 261 60 L 261 41 z M 201 221 L 220 221 L 221 221 L 240 221 L 240 240 L 240 241 L 240 260 L 240 261 L 240 280 L 221 280 L 220 280 L 201 280 L 201 261 L 201 260 L 201 241 L 201 240 L 201 221 z "
     id="rect392" />
</svg>
