<?xml version="1.0" encoding="UTF-8" standalone="no"?>
<svg
   xmlns:dc="http://purl.org/dc/elements/1.1/"
   xmlns:cc="http://creativecommons.org/ns#"
   xmlns:rdf="http://www.w3.org/1999/02/22-rdf-syntax-ns#"
   xmlns:svg="http://www.w3.org/2000/svg"
   xmlns="http://www.w3.org/2000/svg"
   xmlns:sodipodi="http://sodipodi.sourceforge.net/DTD/sodipodi-0.dtd"
   xmlns:inkscape="http://www.inkscape.org/namespaces/inkscape"
   id="svg390"
   width="320px"
   version="1.1"
   height="320px"
   sodipodi:docname="chicago95_tmp_file.svg"
   inkscape:version="0.92.5 (2060ec1f9f, 2020-04-08)">
  <sodipodi:namedview
     pagecolor="#ffffff"
     bordercolor="#666666"
     borderopacity="1"
     objecttolerance="10"
     gridtolerance="10"
     guidetolerance="10"
     inkscape:pageopacity="0"
     inkscape:pageshadow="2"
     inkscape:window-width="452"
     inkscape:window-height="423"
     id="namedview198"
     showgrid="false"
     inkscape:zoom="0.7375"
     inkscape:cx="170.84744"
     inkscape:cy="138.30508"
     inkscape:window-x="0"
     inkscape:window-y="0"
     inkscape:window-maximized="0"
     inkscape:current-layer="svg390" />
  <metadata
     id="metadata394">
    <rdf:RDF>
      <cc:Work
         rdf:about="">
        <dc:format>image/svg+xml</dc:format>
        <dc:type
           rdf:resource="http://purl.org/dc/dcmitype/StillImage" />
      </cc:Work>
    </rdf:RDF>
  </metadata>
  <defs
     id="defs2" />
  <path
     style="fill:#00ffff"
     d="M 160 140 L 160 160 L 160 161 L 160 181 L 181 181 L 181 161 L 201 161 L 201 140 L 181 140 L 180 140 L 160 140 z M 200 200 L 200 221 L 221 221 L 221 200 L 200 200 z "
     id="rect266" />
  <path
     style="fill:#c0c0c0"
     d="M 180 40 L 180 61 L 201 61 L 201 40 L 180 40 z M 180 120 L 180 141 L 200 141 L 200 160 L 180 160 L 180 180 L 161 180 L 161 160 L 140 160 L 140 180 L 140 181 L 140 201 L 160 201 L 160 221 L 180 221 L 180 241 L 200 241 L 201 241 L 221 241 L 221 220 L 201 220 L 201 201 L 221 201 L 221 181 L 221 180 L 221 161 L 221 160 L 221 141 L 221 140 L 221 120 L 201 120 L 200 120 L 180 120 z M 240 160 L 240 180 L 240 181 L 240 201 L 261 201 L 261 181 L 261 180 L 261 160 L 240 160 z "
     id="rect294" />
  <path
     style="fill:#808080"
     d="M 160 120 L 160 140 L 140 140 L 140 161 L 161 161 L 161 141 L 181 141 L 181 120 L 160 120 z M 220 120 L 220 140 L 220 141 L 220 160 L 220 161 L 220 180 L 220 181 L 220 200 L 220 201 L 220 220 L 220 221 L 220 241 L 241 241 L 241 221 L 261 221 L 261 200 L 241 200 L 241 181 L 241 180 L 241 161 L 261 161 L 261 140 L 241 140 L 241 120 L 220 120 z M 140 200 L 140 221 L 160 221 L 160 241 L 181 241 L 181 220 L 161 220 L 161 200 L 140 200 z "
     id="rect296" />
  <path
     style="fill:#ffffff"
     d="M 20 20 L 20 40 L 20 41 L 20 60 L 20 61 L 20 80 L 20 81 L 20 100 L 20 101 L 20 120 L 20 121 L 20 140 L 20 141 L 20 160 L 20 161 L 20 180 L 20 181 L 20 200 L 20 201 L 20 220 L 20 221 L 20 240 L 20 241 L 20 260 L 20 261 L 20 281 L 40 281 L 41 281 L 60 281 L 61 281 L 80 281 L 81 281 L 100 281 L 101 281 L 120 281 L 121 281 L 140 281 L 141 281 L 160 281 L 161 281 L 180 281 L 181 281 L 200 281 L 201 281 L 221 281 L 221 260 L 201 260 L 200 260 L 181 260 L 180 260 L 161 260 L 161 240 L 141 240 L 141 220 L 121 220 L 121 201 L 121 200 L 121 181 L 121 180 L 121 161 L 121 160 L 121 141 L 141 141 L 141 121 L 161 121 L 161 101 L 180 101 L 181 101 L 200 101 L 201 101 L 221 101 L 221 80 L 201 80 L 200 80 L 181 80 L 180 80 L 161 80 L 161 61 L 161 60 L 161 41 L 161 40 L 161 20 L 141 20 L 140 20 L 121 20 L 120 20 L 101 20 L 100 20 L 81 20 L 80 20 L 61 20 L 60 20 L 41 20 L 40 20 L 20 20 z "
     id="rect352" />
  <path
     style="fill:#000000"
     d="M 0 0 L 0 20 L 0 21 L 0 40 L 0 41 L 0 60 L 0 61 L 0 80 L 0 81 L 0 100 L 0 101 L 0 120 L 0 121 L 0 140 L 0 141 L 0 160 L 0 161 L 0 180 L 0 181 L 0 200 L 0 201 L 0 220 L 0 221 L 0 240 L 0 241 L 0 260 L 0 261 L 0 280 L 0 281 L 0 301 L 20 301 L 21 301 L 40 301 L 41 301 L 60 301 L 61 301 L 80 301 L 81 301 L 100 301 L 101 301 L 120 301 L 121 301 L 140 301 L 141 301 L 160 301 L 161 301 L 180 301 L 181 301 L 200 301 L 201 301 L 220 301 L 221 301 L 241 301 L 241 281 L 241 280 L 241 261 L 260 261 L 260 281 L 280 281 L 280 301 L 300 301 L 301 301 L 321 301 L 321 281 L 321 280 L 321 260 L 301 260 L 301 240 L 281 240 L 281 221 L 281 220 L 281 201 L 281 200 L 281 181 L 281 180 L 281 161 L 281 160 L 281 140 L 261 140 L 261 120 L 241 120 L 241 101 L 241 100 L 241 81 L 241 80 L 241 60 L 221 60 L 221 40 L 201 40 L 201 20 L 181 20 L 181 0 L 161 0 L 160 0 L 141 0 L 140 0 L 121 0 L 120 0 L 101 0 L 100 0 L 81 0 L 80 0 L 61 0 L 60 0 L 41 0 L 40 0 L 21 0 L 20 0 L 0 0 z M 21 21 L 40 21 L 41 21 L 60 21 L 61 21 L 80 21 L 81 21 L 100 21 L 101 21 L 120 21 L 121 21 L 140 21 L 141 21 L 160 21 L 160 40 L 160 41 L 160 60 L 160 61 L 160 81 L 180 81 L 181 81 L 200 81 L 201 81 L 220 81 L 220 100 L 201 100 L 200 100 L 181 100 L 180 100 L 160 100 L 160 120 L 140 120 L 140 140 L 120 140 L 120 160 L 120 161 L 120 180 L 120 181 L 120 200 L 120 201 L 120 221 L 140 221 L 140 241 L 160 241 L 160 261 L 180 261 L 181 261 L 200 261 L 201 261 L 220 261 L 220 280 L 201 280 L 200 280 L 181 280 L 180 280 L 161 280 L 160 280 L 141 280 L 140 280 L 121 280 L 120 280 L 101 280 L 100 280 L 81 280 L 80 280 L 61 280 L 60 280 L 41 280 L 40 280 L 21 280 L 21 261 L 21 260 L 21 241 L 21 240 L 21 221 L 21 220 L 21 201 L 21 200 L 21 181 L 21 180 L 21 161 L 21 160 L 21 141 L 21 140 L 21 121 L 21 120 L 21 101 L 21 100 L 21 81 L 21 80 L 21 61 L 21 60 L 21 41 L 21 40 L 21 21 z M 181 41 L 200 41 L 200 60 L 181 60 L 181 41 z M 161 121 L 180 121 L 181 121 L 200 121 L 201 121 L 220 121 L 221 121 L 240 121 L 240 141 L 260 141 L 260 160 L 260 161 L 260 180 L 260 181 L 260 200 L 260 201 L 260 220 L 240 220 L 240 240 L 221 240 L 220 240 L 201 240 L 200 240 L 181 240 L 180 240 L 161 240 L 161 220 L 141 220 L 141 201 L 141 200 L 141 181 L 141 180 L 141 161 L 141 160 L 141 141 L 161 141 L 161 121 z "
     id="rect388" />
</svg>
