<?xml version="1.0" encoding="UTF-8" standalone="no"?>
<svg
   xmlns:dc="http://purl.org/dc/elements/1.1/"
   xmlns:cc="http://creativecommons.org/ns#"
   xmlns:rdf="http://www.w3.org/1999/02/22-rdf-syntax-ns#"
   xmlns:svg="http://www.w3.org/2000/svg"
   xmlns="http://www.w3.org/2000/svg"
   xmlns:sodipodi="http://sodipodi.sourceforge.net/DTD/sodipodi-0.dtd"
   xmlns:inkscape="http://www.inkscape.org/namespaces/inkscape"
   id="svg88"
   width="320px"
   version="1.1"
   height="320px"
   sodipodi:docname="chicago95_tmp_file.svg"
   inkscape:version="0.92.5 (2060ec1f9f, 2020-04-08)">
  <sodipodi:namedview
     pagecolor="#ffffff"
     bordercolor="#666666"
     borderopacity="1"
     objecttolerance="10"
     gridtolerance="10"
     guidetolerance="10"
     inkscape:pageopacity="0"
     inkscape:pageshadow="2"
     inkscape:window-width="452"
     inkscape:window-height="423"
     id="namedview47"
     showgrid="false"
     inkscape:zoom="0.7375"
     inkscape:cx="162.71186"
     inkscape:cy="154.57627"
     inkscape:window-x="0"
     inkscape:window-y="0"
     inkscape:window-maximized="0"
     inkscape:current-layer="svg88" />
  <metadata
     id="metadata92">
    <rdf:RDF>
      <cc:Work
         rdf:about="">
        <dc:format>image/svg+xml</dc:format>
        <dc:type
           rdf:resource="http://purl.org/dc/dcmitype/StillImage" />
      </cc:Work>
    </rdf:RDF>
  </metadata>
  <defs
     id="defs2" />
  <path
     style="fill:#000000"
     d="M 120 20 L 120 40 L 120 41 L 120 60 L 120 61 L 120 80 L 120 81 L 120 101 L 140 101 L 140 120 L 140 121 L 140 141 L 160 141 L 160 160 L 160 161 L 160 181 L 181 181 L 181 161 L 181 160 L 181 141 L 201 141 L 201 121 L 201 120 L 201 101 L 221 101 L 221 81 L 221 80 L 221 61 L 221 60 L 221 41 L 221 40 L 221 20 L 200 20 L 200 40 L 200 41 L 200 60 L 200 61 L 200 80 L 180 80 L 180 100 L 180 101 L 180 120 L 161 120 L 161 101 L 161 100 L 161 80 L 141 80 L 141 61 L 141 60 L 141 41 L 141 40 L 141 20 L 120 20 z "
     id="rect38" />
  <path
     style="fill:#00007f"
     d="M 140 160 L 140 180 L 140 181 L 140 200 L 121 200 L 120 200 L 100 200 L 100 220 L 80 220 L 80 240 L 80 241 L 80 260 L 80 261 L 80 281 L 100 281 L 100 301 L 120 301 L 121 301 L 141 301 L 141 281 L 161 281 L 161 261 L 161 260 L 161 241 L 161 240 L 161 221 L 161 220 L 161 201 L 161 200 L 161 181 L 161 180 L 161 160 L 140 160 z M 180 160 L 180 180 L 180 181 L 180 200 L 180 201 L 180 220 L 180 221 L 180 240 L 180 241 L 180 261 L 200 261 L 200 281 L 220 281 L 221 281 L 241 281 L 241 261 L 261 261 L 261 241 L 261 240 L 261 221 L 261 220 L 261 200 L 241 200 L 241 180 L 221 180 L 220 180 L 201 180 L 201 160 L 180 160 z M 201 201 L 220 201 L 221 201 L 240 201 L 240 220 L 240 221 L 240 240 L 240 241 L 240 260 L 221 260 L 220 260 L 201 260 L 201 241 L 201 240 L 201 221 L 201 220 L 201 201 z M 101 221 L 120 221 L 121 221 L 140 221 L 140 240 L 140 241 L 140 260 L 140 261 L 140 280 L 121 280 L 120 280 L 101 280 L 101 261 L 101 260 L 101 241 L 101 240 L 101 221 z "
     id="rect86" />
</svg>
