<?xml version="1.0" encoding="UTF-8" standalone="no"?>
<svg
   xmlns:dc="http://purl.org/dc/elements/1.1/"
   xmlns:cc="http://creativecommons.org/ns#"
   xmlns:rdf="http://www.w3.org/1999/02/22-rdf-syntax-ns#"
   xmlns:svg="http://www.w3.org/2000/svg"
   xmlns="http://www.w3.org/2000/svg"
   xmlns:sodipodi="http://sodipodi.sourceforge.net/DTD/sodipodi-0.dtd"
   xmlns:inkscape="http://www.inkscape.org/namespaces/inkscape"
   id="svg148"
   width="320px"
   version="1.1"
   height="320px"
   sodipodi:docname="chicago95_tmp_file.svg"
   inkscape:version="0.92.5 (2060ec1f9f, 2020-04-08)">
  <sodipodi:namedview
     pagecolor="#ffffff"
     bordercolor="#666666"
     borderopacity="1"
     objecttolerance="10"
     gridtolerance="10"
     guidetolerance="10"
     inkscape:pageopacity="0"
     inkscape:pageshadow="2"
     inkscape:window-width="452"
     inkscape:window-height="423"
     id="namedview77"
     showgrid="false"
     inkscape:zoom="0.7375"
     inkscape:cx="173.5593"
     inkscape:cy="132.88135"
     inkscape:window-x="0"
     inkscape:window-y="0"
     inkscape:window-maximized="0"
     inkscape:current-layer="svg148" />
  <metadata
     id="metadata152">
    <rdf:RDF>
      <cc:Work
         rdf:about="">
        <dc:format>image/svg+xml</dc:format>
        <dc:type
           rdf:resource="http://purl.org/dc/dcmitype/StillImage" />
      </cc:Work>
    </rdf:RDF>
  </metadata>
  <defs
     id="defs2" />
  <path
     style="fill:#00ffff"
     d="M 60 160 L 60 181 L 81 181 L 81 160 L 60 160 z "
     id="rect70" />
  <path
     style="fill:#ffffff"
     d="M 40 140 L 40 160 L 40 161 L 40 181 L 61 181 L 61 161 L 81 161 L 81 140 L 61 140 L 60 140 L 40 140 z M 120 180 L 120 200 L 100 200 L 100 220 L 80 220 L 80 241 L 101 241 L 101 221 L 121 221 L 121 201 L 141 201 L 141 180 L 120 180 z "
     id="rect114" />
  <path
     style="fill:#808080"
     d="M 40 120 L 40 140 L 20 140 L 20 161 L 41 161 L 41 141 L 61 141 L 61 120 L 40 120 z M 100 120 L 100 141 L 120 141 L 120 161 L 141 161 L 141 140 L 121 140 L 121 120 L 100 120 z M 20 200 L 20 221 L 40 221 L 40 241 L 61 241 L 61 220 L 41 220 L 41 200 L 20 200 z M 120 200 L 120 220 L 100 220 L 100 241 L 121 241 L 121 221 L 141 221 L 141 200 L 120 200 z "
     id="rect116" />
  <path
     style="fill:#800000"
     d="M 240 0 L 240 20 L 240 21 L 240 40 L 221 40 L 220 40 L 200 40 L 200 60 L 180 60 L 180 80 L 180 81 L 180 100 L 180 101 L 180 121 L 201 121 L 201 101 L 201 100 L 201 81 L 201 80 L 201 61 L 220 61 L 221 61 L 240 61 L 240 80 L 240 81 L 240 101 L 261 101 L 261 81 L 281 81 L 281 61 L 301 61 L 301 40 L 281 40 L 281 20 L 261 20 L 261 0 L 240 0 z M 300 120 L 300 140 L 300 141 L 300 160 L 300 161 L 300 180 L 281 180 L 280 180 L 261 180 L 261 161 L 261 160 L 261 140 L 240 140 L 240 160 L 220 160 L 220 180 L 200 180 L 200 201 L 220 201 L 220 221 L 240 221 L 240 241 L 261 241 L 261 221 L 261 220 L 261 201 L 280 201 L 281 201 L 301 201 L 301 181 L 321 181 L 321 161 L 321 160 L 321 141 L 321 140 L 321 120 L 300 120 z "
     id="rect122" />
  <path
     style="fill:#000000"
     d="M 40 100 L 40 120 L 20 120 L 20 140 L 0 140 L 0 160 L 0 161 L 0 180 L 0 181 L 0 200 L 0 201 L 0 221 L 20 221 L 20 241 L 40 241 L 40 261 L 60 261 L 61 261 L 80 261 L 81 261 L 100 261 L 101 261 L 121 261 L 121 241 L 141 241 L 141 221 L 161 221 L 161 201 L 161 200 L 161 181 L 161 180 L 161 161 L 161 160 L 161 140 L 141 140 L 141 120 L 121 120 L 121 100 L 101 100 L 100 100 L 81 100 L 80 100 L 61 100 L 60 100 L 40 100 z M 41 121 L 60 121 L 61 121 L 80 121 L 81 121 L 100 121 L 101 121 L 120 121 L 120 141 L 140 141 L 140 160 L 140 161 L 140 180 L 140 181 L 140 200 L 140 201 L 140 220 L 120 220 L 120 240 L 101 240 L 100 240 L 81 240 L 80 240 L 61 240 L 60 240 L 41 240 L 41 220 L 21 220 L 21 201 L 21 200 L 21 181 L 21 180 L 21 161 L 21 160 L 21 141 L 41 141 L 41 121 z "
     id="rect130" />
  <path
     style="fill:#000080"
     d="M 140 220 L 140 240 L 120 240 L 120 261 L 140 261 L 140 281 L 160 281 L 160 301 L 180 301 L 181 301 L 201 301 L 201 281 L 201 280 L 201 260 L 181 260 L 181 240 L 161 240 L 161 220 L 140 220 z "
     id="rect146" />
</svg>
