<?xml version="1.0" encoding="UTF-8" standalone="no"?>
<svg
   xmlns:dc="http://purl.org/dc/elements/1.1/"
   xmlns:cc="http://creativecommons.org/ns#"
   xmlns:rdf="http://www.w3.org/1999/02/22-rdf-syntax-ns#"
   xmlns:svg="http://www.w3.org/2000/svg"
   xmlns="http://www.w3.org/2000/svg"
   xmlns:sodipodi="http://sodipodi.sourceforge.net/DTD/sodipodi-0.dtd"
   xmlns:inkscape="http://www.inkscape.org/namespaces/inkscape"
   id="svg60"
   width="320px"
   version="1.1"
   height="320px"
   sodipodi:docname="chicago95_tmp_file.svg"
   inkscape:version="0.92.5 (2060ec1f9f, 2020-04-08)">
  <sodipodi:namedview
     pagecolor="#ffffff"
     bordercolor="#666666"
     borderopacity="1"
     objecttolerance="10"
     gridtolerance="10"
     guidetolerance="10"
     inkscape:pageopacity="0"
     inkscape:pageshadow="2"
     inkscape:window-width="640"
     inkscape:window-height="480"
     id="namedview33"
     showgrid="false"
     inkscape:zoom="0.7375"
     inkscape:cx="160"
     inkscape:cy="160"
     inkscape:window-x="0"
     inkscape:window-y="0"
     inkscape:window-maximized="0"
     inkscape:current-layer="svg60" />
  <metadata
     id="metadata64">
    <rdf:RDF>
      <cc:Work
         rdf:about="">
        <dc:format>image/svg+xml</dc:format>
        <dc:type
           rdf:resource="http://purl.org/dc/dcmitype/StillImage" />
      </cc:Work>
    </rdf:RDF>
  </metadata>
  <defs
     id="defs2" />
  <path
     style="fill:#000080"
     d="M 80 80 L 80 100 L 60 100 L 60 120 L 40 120 L 40 140 L 40 141 L 40 160 L 40 161 L 40 181 L 60 181 L 60 200 L 60 201 L 60 221 L 81 221 L 81 201 L 81 200 L 81 180 L 61 180 L 61 161 L 61 160 L 61 141 L 61 140 L 61 121 L 81 121 L 81 101 L 100 101 L 101 101 L 120 101 L 121 101 L 140 101 L 141 101 L 160 101 L 160 121 L 180 121 L 181 121 L 200 121 L 200 141 L 220 141 L 220 160 L 200 160 L 200 180 L 180 180 L 180 201 L 200 201 L 201 201 L 220 201 L 221 201 L 240 201 L 241 201 L 260 201 L 261 201 L 281 201 L 281 181 L 281 180 L 281 161 L 281 160 L 281 141 L 281 140 L 281 121 L 281 120 L 281 100 L 260 100 L 260 120 L 240 120 L 240 140 L 221 140 L 221 120 L 201 120 L 201 100 L 181 100 L 180 100 L 161 100 L 161 80 L 141 80 L 140 80 L 121 80 L 120 80 L 101 80 L 100 80 L 80 80 z "
     id="rect58" />
</svg>
