<?xml version="1.0" encoding="UTF-8" standalone="no"?>
<svg
   xmlns:dc="http://purl.org/dc/elements/1.1/"
   xmlns:cc="http://creativecommons.org/ns#"
   xmlns:rdf="http://www.w3.org/1999/02/22-rdf-syntax-ns#"
   xmlns:svg="http://www.w3.org/2000/svg"
   xmlns="http://www.w3.org/2000/svg"
   xmlns:sodipodi="http://sodipodi.sourceforge.net/DTD/sodipodi-0.dtd"
   xmlns:inkscape="http://www.inkscape.org/namespaces/inkscape"
   id="svg274"
   width="320px"
   version="1.1"
   height="320px"
   sodipodi:docname="chicago95_tmp_file.svg"
   inkscape:version="0.92.5 (2060ec1f9f, 2020-04-08)">
  <sodipodi:namedview
     pagecolor="#ffffff"
     bordercolor="#666666"
     borderopacity="1"
     objecttolerance="10"
     gridtolerance="10"
     guidetolerance="10"
     inkscape:pageopacity="0"
     inkscape:pageshadow="2"
     inkscape:window-width="452"
     inkscape:window-height="423"
     id="namedview140"
     showgrid="false"
     inkscape:zoom="0.7375"
     inkscape:cx="160"
     inkscape:cy="160"
     inkscape:window-x="0"
     inkscape:window-y="0"
     inkscape:window-maximized="0"
     inkscape:current-layer="svg274" />
  <metadata
     id="metadata278">
    <rdf:RDF>
      <cc:Work
         rdf:about="">
        <dc:format>image/svg+xml</dc:format>
        <dc:type
           rdf:resource="http://purl.org/dc/dcmitype/StillImage" />
      </cc:Work>
    </rdf:RDF>
  </metadata>
  <defs
     id="defs2" />
  <path
     style="fill:#ffffff"
     d="M 140 40 L 140 60 L 120 60 L 120 80 L 100 80 L 100 100 L 80 100 L 80 120 L 60 120 L 60 140 L 40 140 L 40 160 L 20 160 L 20 180 L 20 181 L 20 201 L 40 201 L 40 221 L 60 221 L 60 241 L 80 241 L 80 261 L 100 261 L 100 281 L 120 281 L 121 281 L 141 281 L 141 261 L 161 261 L 161 241 L 181 241 L 181 221 L 201 221 L 201 201 L 221 201 L 221 181 L 241 181 L 241 161 L 261 161 L 261 141 L 261 140 L 261 120 L 241 120 L 241 100 L 221 100 L 221 80 L 201 80 L 201 60 L 180 60 L 180 80 L 180 81 L 180 100 L 180 101 L 180 120 L 161 120 L 161 101 L 161 100 L 161 81 L 161 80 L 161 61 L 161 60 L 161 40 L 140 40 z M 141 121 L 160 121 L 160 140 L 141 140 L 141 121 z M 181 121 L 200 121 L 200 140 L 181 140 L 181 121 z M 161 141 L 180 141 L 180 160 L 161 160 L 161 141 z "
     id="rect264" />
  <path
     style="fill:#000000"
     d="M 80 0 L 80 20 L 80 21 L 80 40 L 80 41 L 80 60 L 80 61 L 80 80 L 80 81 L 80 100 L 60 100 L 60 120 L 40 120 L 40 140 L 20 140 L 20 160 L 0 160 L 0 180 L 0 181 L 0 201 L 20 201 L 20 221 L 40 221 L 40 241 L 60 241 L 60 261 L 80 261 L 80 281 L 100 281 L 100 301 L 120 301 L 121 301 L 141 301 L 141 281 L 161 281 L 161 261 L 181 261 L 181 241 L 201 241 L 201 221 L 221 221 L 221 201 L 241 201 L 241 181 L 261 181 L 261 161 L 280 161 L 280 180 L 280 181 L 280 200 L 280 201 L 280 220 L 280 221 L 280 240 L 280 241 L 280 260 L 280 261 L 280 281 L 301 281 L 301 261 L 321 261 L 321 241 L 321 240 L 321 221 L 321 220 L 321 201 L 321 200 L 321 181 L 321 180 L 321 161 L 321 160 L 321 141 L 321 140 L 321 120 L 301 120 L 301 100 L 281 100 L 281 80 L 261 80 L 260 80 L 241 80 L 241 60 L 221 60 L 220 60 L 201 60 L 201 40 L 181 40 L 181 21 L 181 20 L 181 0 L 160 0 L 160 20 L 140 20 L 140 40 L 120 40 L 120 60 L 101 60 L 101 41 L 101 40 L 101 21 L 101 20 L 101 0 L 80 0 z M 141 41 L 160 41 L 160 60 L 160 61 L 160 80 L 160 81 L 160 100 L 160 101 L 160 120 L 140 120 L 140 141 L 160 141 L 160 161 L 181 161 L 181 141 L 201 141 L 201 120 L 181 120 L 181 101 L 181 100 L 181 81 L 181 80 L 181 61 L 200 61 L 200 81 L 220 81 L 220 101 L 240 101 L 240 121 L 260 121 L 260 140 L 260 141 L 260 160 L 240 160 L 240 180 L 220 180 L 220 200 L 200 200 L 200 220 L 180 220 L 180 240 L 160 240 L 160 260 L 140 260 L 140 280 L 121 280 L 120 280 L 101 280 L 101 260 L 81 260 L 81 240 L 61 240 L 61 220 L 41 220 L 41 200 L 21 200 L 21 181 L 21 180 L 21 161 L 41 161 L 41 141 L 61 141 L 61 121 L 81 121 L 81 101 L 101 101 L 101 81 L 121 81 L 121 61 L 141 61 L 141 41 z M 161 121 L 180 121 L 180 140 L 161 140 L 161 121 z "
     id="rect272" />
</svg>
