<?xml version="1.0" encoding="UTF-8" standalone="no"?>
<svg
   xmlns:dc="http://purl.org/dc/elements/1.1/"
   xmlns:cc="http://creativecommons.org/ns#"
   xmlns:rdf="http://www.w3.org/1999/02/22-rdf-syntax-ns#"
   xmlns:svg="http://www.w3.org/2000/svg"
   xmlns="http://www.w3.org/2000/svg"
   xmlns:sodipodi="http://sodipodi.sourceforge.net/DTD/sodipodi-0.dtd"
   xmlns:inkscape="http://www.inkscape.org/namespaces/inkscape"
   id="svg226"
   width="320px"
   version="1.1"
   height="320px"
   sodipodi:docname="chicago95_tmp_file.svg"
   inkscape:version="0.92.5 (2060ec1f9f, 2020-04-08)">
  <sodipodi:namedview
     pagecolor="#ffffff"
     bordercolor="#666666"
     borderopacity="1"
     objecttolerance="10"
     gridtolerance="10"
     guidetolerance="10"
     inkscape:pageopacity="0"
     inkscape:pageshadow="2"
     inkscape:window-width="452"
     inkscape:window-height="423"
     id="namedview116"
     showgrid="false"
     inkscape:zoom="0.7375"
     inkscape:cx="165.42372"
     inkscape:cy="149.15254"
     inkscape:window-x="0"
     inkscape:window-y="0"
     inkscape:window-maximized="0"
     inkscape:current-layer="svg226" />
  <metadata
     id="metadata230">
    <rdf:RDF>
      <cc:Work
         rdf:about="">
        <dc:format>image/svg+xml</dc:format>
        <dc:type
           rdf:resource="http://purl.org/dc/dcmitype/StillImage" />
      </cc:Work>
    </rdf:RDF>
  </metadata>
  <defs
     id="defs2" />
  <path
     style="fill:#ffffff"
     d="M 60 120 L 60 141 L 81 141 L 81 120 L 60 120 z M 100 120 L 100 141 L 121 141 L 121 120 L 100 120 z M 20 160 L 20 181 L 40 181 L 40 200 L 20 200 L 20 221 L 40 221 L 40 240 L 20 240 L 20 261 L 40 261 L 40 281 L 61 281 L 61 261 L 80 261 L 80 281 L 101 281 L 101 261 L 120 261 L 120 281 L 141 281 L 141 261 L 160 261 L 160 281 L 181 281 L 181 261 L 201 261 L 201 240 L 181 240 L 181 221 L 201 221 L 201 200 L 181 200 L 181 181 L 201 181 L 201 160 L 180 160 L 180 180 L 161 180 L 161 160 L 140 160 L 140 180 L 121 180 L 121 160 L 100 160 L 100 180 L 81 180 L 81 160 L 60 160 L 60 180 L 41 180 L 41 160 L 20 160 z M 61 181 L 80 181 L 80 200 L 61 200 L 61 181 z M 101 181 L 120 181 L 120 200 L 101 200 L 101 181 z M 141 181 L 160 181 L 160 200 L 141 200 L 141 181 z M 41 201 L 60 201 L 60 220 L 41 220 L 41 201 z M 81 201 L 100 201 L 100 220 L 81 220 L 81 201 z M 121 201 L 140 201 L 140 220 L 121 220 L 121 201 z M 161 201 L 180 201 L 180 220 L 161 220 L 161 201 z M 61 221 L 80 221 L 80 240 L 61 240 L 61 221 z M 101 221 L 120 221 L 120 240 L 101 240 L 101 221 z M 141 221 L 160 221 L 160 240 L 141 240 L 141 221 z M 41 241 L 60 241 L 60 260 L 41 260 L 41 241 z M 81 241 L 100 241 L 100 260 L 81 260 L 81 241 z M 121 241 L 140 241 L 140 260 L 121 260 L 121 241 z M 161 241 L 180 241 L 180 260 L 161 260 L 161 241 z "
     id="rect198" />
  <path
     style="fill:#ffff00"
     d="M 40 120 L 40 141 L 61 141 L 61 120 L 40 120 z M 80 120 L 80 141 L 101 141 L 101 120 L 80 120 z M 40 160 L 40 180 L 20 180 L 20 201 L 40 201 L 40 220 L 20 220 L 20 241 L 40 241 L 40 260 L 20 260 L 20 281 L 41 281 L 41 261 L 60 261 L 60 281 L 81 281 L 81 261 L 100 261 L 100 281 L 121 281 L 121 261 L 140 261 L 140 281 L 161 281 L 161 261 L 180 261 L 180 281 L 201 281 L 201 260 L 181 260 L 181 241 L 201 241 L 201 220 L 181 220 L 181 201 L 201 201 L 201 180 L 181 180 L 181 160 L 160 160 L 160 180 L 141 180 L 141 160 L 120 160 L 120 180 L 101 180 L 101 160 L 80 160 L 80 180 L 61 180 L 61 160 L 40 160 z M 41 181 L 60 181 L 60 200 L 41 200 L 41 181 z M 81 181 L 100 181 L 100 200 L 81 200 L 81 181 z M 121 181 L 140 181 L 140 200 L 121 200 L 121 181 z M 161 181 L 180 181 L 180 200 L 161 200 L 161 181 z M 61 201 L 80 201 L 80 220 L 61 220 L 61 201 z M 101 201 L 120 201 L 120 220 L 101 220 L 101 201 z M 141 201 L 160 201 L 160 220 L 141 220 L 141 201 z M 41 221 L 60 221 L 60 240 L 41 240 L 41 221 z M 81 221 L 100 221 L 100 240 L 81 240 L 81 221 z M 121 221 L 140 221 L 140 240 L 121 240 L 121 221 z M 161 221 L 180 221 L 180 240 L 161 240 L 161 221 z M 61 241 L 80 241 L 80 260 L 61 260 L 61 241 z M 101 241 L 120 241 L 120 260 L 101 260 L 101 241 z M 141 241 L 160 241 L 160 260 L 141 260 L 141 241 z "
     id="rect200" />
  <path
     style="fill:#000000"
     d="M 200 20 L 200 41 L 221 41 L 221 20 L 200 20 z M 200 60 L 200 81 L 221 81 L 221 60 L 200 60 z M 140 80 L 140 101 L 160 101 L 160 121 L 180 121 L 180 140 L 161 140 L 160 140 L 141 140 L 141 120 L 121 120 L 121 100 L 101 100 L 100 100 L 81 100 L 80 100 L 61 100 L 60 100 L 40 100 L 40 120 L 20 120 L 20 140 L 0 140 L 0 160 L 0 161 L 0 180 L 0 181 L 0 200 L 0 201 L 0 220 L 0 221 L 0 240 L 0 241 L 0 260 L 0 261 L 0 280 L 0 281 L 0 301 L 20 301 L 21 301 L 40 301 L 41 301 L 60 301 L 61 301 L 80 301 L 81 301 L 100 301 L 101 301 L 120 301 L 121 301 L 140 301 L 141 301 L 160 301 L 161 301 L 180 301 L 181 301 L 200 301 L 201 301 L 221 301 L 221 281 L 221 280 L 221 261 L 221 260 L 221 241 L 221 240 L 221 221 L 221 220 L 221 201 L 221 200 L 221 181 L 240 181 L 240 201 L 260 201 L 260 221 L 281 221 L 281 200 L 261 200 L 261 180 L 241 180 L 241 161 L 261 161 L 261 140 L 241 140 L 241 121 L 261 121 L 261 101 L 281 101 L 281 80 L 260 80 L 260 100 L 240 100 L 240 120 L 221 120 L 221 100 L 200 100 L 200 120 L 181 120 L 181 100 L 161 100 L 161 80 L 140 80 z M 41 121 L 60 121 L 61 121 L 80 121 L 81 121 L 100 121 L 101 121 L 120 121 L 120 140 L 101 140 L 100 140 L 81 140 L 80 140 L 61 140 L 60 140 L 41 140 L 41 121 z M 201 121 L 220 121 L 220 141 L 240 141 L 240 160 L 221 160 L 220 160 L 201 160 L 201 141 L 201 140 L 201 121 z M 280 140 L 280 161 L 301 161 L 301 140 L 280 140 z M 21 161 L 40 161 L 41 161 L 60 161 L 61 161 L 80 161 L 81 161 L 100 161 L 101 161 L 120 161 L 121 161 L 140 161 L 141 161 L 160 161 L 161 161 L 180 161 L 181 161 L 200 161 L 200 180 L 200 181 L 200 200 L 200 201 L 200 220 L 200 221 L 200 240 L 200 241 L 200 260 L 200 261 L 200 280 L 181 280 L 180 280 L 161 280 L 160 280 L 141 280 L 140 280 L 121 280 L 120 280 L 101 280 L 100 280 L 81 280 L 80 280 L 61 280 L 60 280 L 41 280 L 40 280 L 21 280 L 21 261 L 21 260 L 21 241 L 21 240 L 21 221 L 21 220 L 21 201 L 21 200 L 21 181 L 21 180 L 21 161 z "
     id="rect224" />
</svg>
