<?xml version="1.0" encoding="UTF-8" standalone="no"?>
<svg
   xmlns:dc="http://purl.org/dc/elements/1.1/"
   xmlns:cc="http://creativecommons.org/ns#"
   xmlns:rdf="http://www.w3.org/1999/02/22-rdf-syntax-ns#"
   xmlns:svg="http://www.w3.org/2000/svg"
   xmlns="http://www.w3.org/2000/svg"
   xmlns:sodipodi="http://sodipodi.sourceforge.net/DTD/sodipodi-0.dtd"
   xmlns:inkscape="http://www.inkscape.org/namespaces/inkscape"
   id="svg328"
   width="320px"
   version="1.1"
   height="320px"
   sodipodi:docname="chicago95_tmp_file.svg"
   inkscape:version="0.92.5 (2060ec1f9f, 2020-04-08)">
  <sodipodi:namedview
     pagecolor="#ffffff"
     bordercolor="#666666"
     borderopacity="1"
     objecttolerance="10"
     gridtolerance="10"
     guidetolerance="10"
     inkscape:pageopacity="0"
     inkscape:pageshadow="2"
     inkscape:window-width="452"
     inkscape:window-height="423"
     id="namedview167"
     showgrid="false"
     inkscape:zoom="0.7375"
     inkscape:cx="160"
     inkscape:cy="160"
     inkscape:window-x="0"
     inkscape:window-y="0"
     inkscape:window-maximized="0"
     inkscape:current-layer="svg328" />
  <metadata
     id="metadata332">
    <rdf:RDF>
      <cc:Work
         rdf:about="">
        <dc:format>image/svg+xml</dc:format>
        <dc:type
           rdf:resource="http://purl.org/dc/dcmitype/StillImage" />
      </cc:Work>
    </rdf:RDF>
  </metadata>
  <defs
     id="defs2" />
  <path
     style="fill:#ffff00"
     d="M 120 20 L 120 40 L 100 40 L 100 61 L 121 61 L 121 41 L 141 41 L 141 20 L 120 20 z M 40 40 L 40 61 L 61 61 L 61 40 L 40 40 z "
     id="rect52" />
  <path
     style="fill:#ffffff"
     d="M 80 20 L 80 41 L 101 41 L 101 20 L 80 20 z M 20 60 L 20 81 L 41 81 L 41 60 L 20 60 z "
     id="rect74" />
  <path
     style="fill:#00ff00"
     d="M 180 20 L 180 41 L 200 41 L 200 60 L 180 60 L 180 81 L 201 81 L 201 61 L 221 61 L 221 41 L 241 41 L 241 20 L 220 20 L 220 40 L 201 40 L 201 20 L 180 20 z M 80 40 L 80 60 L 60 60 L 60 81 L 81 81 L 81 61 L 101 61 L 101 40 L 80 40 z M 140 40 L 140 60 L 120 60 L 120 80 L 100 80 L 100 100 L 80 100 L 80 121 L 101 121 L 101 101 L 120 101 L 120 120 L 120 121 L 120 141 L 141 141 L 141 121 L 141 120 L 141 101 L 160 101 L 160 121 L 181 121 L 181 100 L 161 100 L 161 80 L 141 80 L 141 61 L 161 61 L 161 40 L 140 40 z M 260 60 L 260 81 L 281 81 L 281 60 L 260 60 z M 20 80 L 20 101 L 41 101 L 41 80 L 20 80 z M 220 80 L 220 100 L 200 100 L 200 121 L 221 121 L 221 101 L 240 101 L 240 121 L 261 121 L 261 100 L 241 100 L 241 80 L 220 80 z M 121 81 L 140 81 L 140 100 L 121 100 L 121 81 z M 40 120 L 40 141 L 61 141 L 61 120 L 40 120 z "
     id="rect178" />
  <path
     style="fill:#008000"
     d="M 80 0 L 80 20 L 61 20 L 60 20 L 40 20 L 40 40 L 20 40 L 20 60 L 0 60 L 0 80 L 0 81 L 0 100 L 0 101 L 0 121 L 20 121 L 21 121 L 40 121 L 41 121 L 60 121 L 61 121 L 80 121 L 80 141 L 100 141 L 101 141 L 120 141 L 120 161 L 141 161 L 141 141 L 160 141 L 160 161 L 181 161 L 181 141 L 200 141 L 200 161 L 221 161 L 221 141 L 240 141 L 240 161 L 261 161 L 261 141 L 281 141 L 281 121 L 301 121 L 301 101 L 301 100 L 301 81 L 321 81 L 321 60 L 301 60 L 301 40 L 281 40 L 281 20 L 261 20 L 260 20 L 241 20 L 241 0 L 221 0 L 220 0 L 201 0 L 200 0 L 181 0 L 180 0 L 161 0 L 160 0 L 141 0 L 140 0 L 121 0 L 120 0 L 101 0 L 100 0 L 80 0 z M 81 21 L 100 21 L 100 41 L 120 41 L 120 60 L 101 60 L 100 60 L 81 60 L 81 41 L 81 40 L 81 21 z M 121 21 L 140 21 L 140 40 L 121 40 L 121 21 z M 181 21 L 200 21 L 200 40 L 181 40 L 181 21 z M 221 21 L 240 21 L 240 40 L 221 40 L 221 21 z M 41 41 L 60 41 L 60 60 L 41 60 L 41 41 z M 141 41 L 160 41 L 160 60 L 141 60 L 141 41 z M 201 41 L 220 41 L 220 60 L 201 60 L 201 41 z M 21 61 L 40 61 L 40 80 L 40 81 L 40 100 L 21 100 L 21 81 L 21 80 L 21 61 z M 61 61 L 80 61 L 80 80 L 61 80 L 61 61 z M 121 61 L 140 61 L 140 80 L 121 80 L 121 61 z M 181 61 L 200 61 L 200 80 L 181 80 L 181 61 z M 261 61 L 280 61 L 280 80 L 261 80 L 261 61 z M 101 81 L 120 81 L 120 100 L 101 100 L 101 81 z M 141 81 L 160 81 L 160 100 L 141 100 L 141 81 z M 221 81 L 240 81 L 240 101 L 260 101 L 261 101 L 280 101 L 280 120 L 260 120 L 260 140 L 241 140 L 241 120 L 220 120 L 220 140 L 201 140 L 201 121 L 201 120 L 201 101 L 221 101 L 221 81 z M 81 101 L 100 101 L 100 120 L 81 120 L 81 101 z M 121 101 L 140 101 L 140 120 L 140 121 L 140 140 L 121 140 L 121 121 L 121 120 L 121 101 z M 161 101 L 180 101 L 180 120 L 161 120 L 161 101 z "
     id="rect218" />
  <path
     style="fill:#c0c0c0"
     d="M 180 180 L 180 201 L 201 201 L 201 180 L 180 180 z "
     id="rect252" />
  <path
     style="fill:#808000"
     d="M 60 160 L 60 181 L 80 181 L 80 201 L 100 201 L 100 221 L 120 221 L 120 240 L 120 241 L 120 260 L 120 261 L 120 280 L 120 281 L 120 301 L 141 301 L 141 281 L 141 280 L 141 261 L 141 260 L 141 241 L 141 240 L 141 221 L 141 220 L 141 201 L 141 200 L 141 180 L 120 180 L 120 200 L 101 200 L 101 180 L 81 180 L 81 160 L 60 160 z "
     id="rect304" />
  <path
     style="fill:#000000"
     d="M 300 80 L 300 100 L 300 101 L 300 120 L 281 120 L 281 100 L 260 100 L 260 120 L 241 120 L 241 100 L 220 100 L 220 120 L 200 120 L 200 140 L 180 140 L 180 160 L 161 160 L 161 140 L 140 140 L 140 160 L 121 160 L 121 140 L 101 140 L 100 140 L 81 140 L 81 120 L 60 120 L 60 140 L 41 140 L 41 120 L 20 120 L 20 141 L 40 141 L 40 161 L 60 161 L 61 161 L 80 161 L 81 161 L 100 161 L 101 161 L 120 161 L 120 181 L 140 181 L 141 181 L 160 181 L 160 200 L 160 201 L 160 220 L 160 221 L 160 240 L 160 241 L 160 260 L 160 261 L 160 280 L 160 281 L 160 300 L 141 300 L 140 300 L 121 300 L 120 300 L 100 300 L 100 321 L 120 321 L 121 321 L 140 321 L 141 321 L 160 321 L 161 321 L 180 321 L 181 321 L 201 321 L 201 300 L 181 300 L 181 281 L 181 280 L 181 261 L 181 260 L 181 241 L 201 241 L 201 221 L 221 221 L 221 201 L 241 201 L 241 181 L 261 181 L 261 161 L 280 161 L 281 161 L 301 161 L 301 141 L 321 141 L 321 121 L 321 120 L 321 101 L 321 100 L 321 80 L 300 80 z M 221 121 L 240 121 L 240 140 L 221 140 L 221 121 z M 261 121 L 280 121 L 280 140 L 261 140 L 261 121 z M 201 141 L 220 141 L 220 160 L 201 160 L 201 141 z M 241 141 L 260 141 L 260 160 L 241 160 L 241 141 z M 181 181 L 200 181 L 201 181 L 220 181 L 220 200 L 200 200 L 200 220 L 181 220 L 181 201 L 181 200 L 181 181 z "
     id="rect324" />
  <path
     style="fill:#800000"
     d="M 80 160 L 80 181 L 100 181 L 100 201 L 121 201 L 121 180 L 101 180 L 101 160 L 80 160 z M 140 180 L 140 200 L 140 201 L 140 220 L 140 221 L 140 240 L 140 241 L 140 260 L 140 261 L 140 280 L 140 281 L 140 301 L 161 301 L 161 281 L 161 280 L 161 261 L 161 260 L 161 241 L 161 240 L 161 221 L 161 220 L 161 201 L 161 200 L 161 180 L 140 180 z M 200 180 L 200 200 L 180 200 L 180 221 L 201 221 L 201 201 L 221 201 L 221 180 L 200 180 z M 240 220 L 240 240 L 240 241 L 240 260 L 221 260 L 220 260 L 200 260 L 200 281 L 220 281 L 220 301 L 240 301 L 240 321 L 261 321 L 261 301 L 281 301 L 281 281 L 301 281 L 301 260 L 281 260 L 280 260 L 261 260 L 261 241 L 261 240 L 261 220 L 240 220 z "
     id="rect326" />
</svg>
