<?xml version="1.0" encoding="UTF-8" standalone="no"?>
<svg
   xmlns:dc="http://purl.org/dc/elements/1.1/"
   xmlns:cc="http://creativecommons.org/ns#"
   xmlns:rdf="http://www.w3.org/1999/02/22-rdf-syntax-ns#"
   xmlns:svg="http://www.w3.org/2000/svg"
   xmlns="http://www.w3.org/2000/svg"
   xmlns:sodipodi="http://sodipodi.sourceforge.net/DTD/sodipodi-0.dtd"
   xmlns:inkscape="http://www.inkscape.org/namespaces/inkscape"
   id="svg250"
   width="320px"
   version="1.1"
   height="320px"
   sodipodi:docname="chicago95_tmp_file.svg"
   inkscape:version="0.92.5 (2060ec1f9f, 2020-04-08)">
  <sodipodi:namedview
     pagecolor="#ffffff"
     bordercolor="#666666"
     borderopacity="1"
     objecttolerance="10"
     gridtolerance="10"
     guidetolerance="10"
     inkscape:pageopacity="0"
     inkscape:pageshadow="2"
     inkscape:window-width="452"
     inkscape:window-height="423"
     id="namedview128"
     showgrid="false"
     inkscape:zoom="0.7375"
     inkscape:cx="173.5593"
     inkscape:cy="132.88135"
     inkscape:window-x="0"
     inkscape:window-y="0"
     inkscape:window-maximized="0"
     inkscape:current-layer="svg250" />
  <metadata
     id="metadata254">
    <rdf:RDF>
      <cc:Work
         rdf:about="">
        <dc:format>image/svg+xml</dc:format>
        <dc:type
           rdf:resource="http://purl.org/dc/dcmitype/StillImage" />
      </cc:Work>
    </rdf:RDF>
  </metadata>
  <defs
     id="defs2" />
  <path
     style="fill:#ffff00"
     d="M 160 20 L 160 40 L 140 40 L 140 61 L 160 61 L 161 61 L 181 61 L 181 41 L 181 40 L 181 20 L 160 20 z M 60 80 L 60 101 L 81 101 L 81 80 L 60 80 z "
     id="rect44" />
  <path
     style="fill:#ff00ff"
     d="M 80 80 L 80 100 L 60 100 L 60 121 L 80 121 L 81 121 L 101 121 L 101 101 L 101 100 L 101 80 L 80 80 z "
     id="rect62" />
  <path
     style="fill:#00ff00"
     d="M 220 100 L 220 121 L 241 121 L 241 100 L 220 100 z "
     id="rect68" />
  <path
     style="fill:#008000"
     d="M 240 100 L 240 120 L 220 120 L 220 141 L 240 141 L 241 141 L 261 141 L 261 121 L 261 120 L 261 100 L 240 100 z "
     id="rect84" />
  <path
     style="fill:#808080"
     d="M 120 0 L 120 21 L 141 21 L 141 0 L 120 0 z M 180 0 L 180 21 L 201 21 L 201 0 L 180 0 z M 40 60 L 40 81 L 61 81 L 61 60 L 40 60 z M 100 60 L 100 81 L 121 81 L 121 60 L 100 60 z M 180 60 L 180 81 L 200 81 L 200 101 L 221 101 L 221 80 L 201 80 L 201 60 L 180 60 z M 260 80 L 260 101 L 281 101 L 281 80 L 260 80 z M 100 120 L 100 141 L 120 141 L 120 161 L 141 161 L 141 140 L 121 140 L 121 120 L 100 120 z M 20 140 L 20 161 L 41 161 L 41 140 L 20 140 z M 260 140 L 260 161 L 281 161 L 281 140 L 260 140 z "
     id="rect106" />
  <path
     style="fill:#ffffff"
     d="M 140 20 L 140 41 L 161 41 L 161 20 L 140 20 z M 60 140 L 60 161 L 80 161 L 80 181 L 100 181 L 100 201 L 120 201 L 120 221 L 141 221 L 141 201 L 141 200 L 141 181 L 160 181 L 160 200 L 160 201 L 160 220 L 160 221 L 160 240 L 141 240 L 140 240 L 121 240 L 120 240 L 101 240 L 101 220 L 81 220 L 81 200 L 61 200 L 61 180 L 40 180 L 40 201 L 60 201 L 60 221 L 80 221 L 80 241 L 100 241 L 100 261 L 120 261 L 121 261 L 140 261 L 141 261 L 160 261 L 161 261 L 180 261 L 181 261 L 200 261 L 201 261 L 220 261 L 221 261 L 241 261 L 241 241 L 241 240 L 241 220 L 221 220 L 220 220 L 201 220 L 201 200 L 181 200 L 181 180 L 161 180 L 161 160 L 140 160 L 140 180 L 121 180 L 121 161 L 121 160 L 121 140 L 101 140 L 100 140 L 81 140 L 80 140 L 60 140 z "
     id="rect204" />
  <path
     style="fill:#c0c0c0"
     d="M 40 160 L 40 181 L 60 181 L 60 201 L 80 201 L 80 221 L 100 221 L 100 241 L 121 241 L 121 220 L 101 220 L 101 200 L 81 200 L 81 180 L 61 180 L 61 160 L 40 160 z M 140 220 L 140 241 L 161 241 L 161 220 L 140 220 z M 240 240 L 240 260 L 221 260 L 220 260 L 201 260 L 200 260 L 181 260 L 180 260 L 161 260 L 160 260 L 141 260 L 140 260 L 120 260 L 120 281 L 140 281 L 141 281 L 160 281 L 161 281 L 180 281 L 181 281 L 200 281 L 201 281 L 220 281 L 221 281 L 240 281 L 241 281 L 261 281 L 261 261 L 261 260 L 261 240 L 240 240 z "
     id="rect226" />
  <path
     style="fill:#000000"
     d="M 140 0 L 140 20 L 120 20 L 120 40 L 120 41 L 120 61 L 140 61 L 140 81 L 160 81 L 161 81 L 181 81 L 181 61 L 201 61 L 201 41 L 201 40 L 201 20 L 181 20 L 181 0 L 161 0 L 160 0 L 140 0 z M 141 21 L 160 21 L 161 21 L 180 21 L 180 40 L 180 41 L 180 60 L 161 60 L 160 60 L 141 60 L 141 41 L 141 40 L 141 21 z M 60 60 L 60 80 L 40 80 L 40 100 L 40 101 L 40 121 L 60 121 L 60 140 L 40 140 L 40 160 L 20 160 L 20 180 L 20 181 L 20 201 L 40 201 L 40 221 L 60 221 L 60 241 L 80 241 L 80 261 L 100 261 L 100 281 L 120 281 L 120 301 L 140 301 L 141 301 L 160 301 L 161 301 L 180 301 L 181 301 L 200 301 L 201 301 L 220 301 L 221 301 L 240 301 L 241 301 L 260 301 L 261 301 L 280 301 L 281 301 L 301 301 L 301 281 L 301 280 L 301 261 L 301 260 L 301 241 L 301 240 L 301 221 L 301 220 L 301 200 L 281 200 L 280 200 L 260 200 L 260 220 L 241 220 L 241 200 L 221 200 L 220 200 L 201 200 L 201 180 L 181 180 L 181 160 L 161 160 L 161 140 L 140 140 L 140 160 L 120 160 L 120 181 L 140 181 L 140 200 L 140 201 L 140 220 L 121 220 L 121 200 L 101 200 L 101 180 L 81 180 L 81 160 L 61 160 L 61 141 L 80 141 L 81 141 L 101 141 L 101 121 L 121 121 L 121 101 L 121 100 L 121 80 L 101 80 L 101 60 L 81 60 L 80 60 L 60 60 z M 220 80 L 220 100 L 200 100 L 200 120 L 200 121 L 200 141 L 220 141 L 220 161 L 240 161 L 241 161 L 261 161 L 261 141 L 281 141 L 281 121 L 281 120 L 281 100 L 261 100 L 261 80 L 241 80 L 240 80 L 220 80 z M 61 81 L 80 81 L 81 81 L 100 81 L 100 100 L 100 101 L 100 120 L 81 120 L 80 120 L 61 120 L 61 101 L 61 100 L 61 81 z M 221 101 L 240 101 L 241 101 L 260 101 L 260 120 L 260 121 L 260 140 L 241 140 L 240 140 L 221 140 L 221 121 L 221 120 L 221 101 z M 41 161 L 60 161 L 60 181 L 80 181 L 80 201 L 100 201 L 100 221 L 120 221 L 120 241 L 141 241 L 141 221 L 161 221 L 161 201 L 161 200 L 161 181 L 180 181 L 180 201 L 200 201 L 200 221 L 220 221 L 221 221 L 240 221 L 240 241 L 260 241 L 260 260 L 260 261 L 260 280 L 241 280 L 240 280 L 221 280 L 220 280 L 201 280 L 200 280 L 181 280 L 180 280 L 161 280 L 160 280 L 141 280 L 140 280 L 121 280 L 121 260 L 101 260 L 101 240 L 81 240 L 81 220 L 61 220 L 61 200 L 41 200 L 41 181 L 41 180 L 41 161 z M 141 161 L 160 161 L 160 180 L 141 180 L 141 161 z "
     id="rect248" />
</svg>
