<?xml version="1.0" encoding="UTF-8" standalone="no"?>
<svg
   xmlns:dc="http://purl.org/dc/elements/1.1/"
   xmlns:cc="http://creativecommons.org/ns#"
   xmlns:rdf="http://www.w3.org/1999/02/22-rdf-syntax-ns#"
   xmlns:svg="http://www.w3.org/2000/svg"
   xmlns="http://www.w3.org/2000/svg"
   xmlns:sodipodi="http://sodipodi.sourceforge.net/DTD/sodipodi-0.dtd"
   xmlns:inkscape="http://www.inkscape.org/namespaces/inkscape"
   id="svg284"
   width="320px"
   version="1.1"
   height="320px"
   sodipodi:docname="chicago95_tmp_file.svg"
   inkscape:version="0.92.5 (2060ec1f9f, 2020-04-08)">
  <sodipodi:namedview
     pagecolor="#ffffff"
     bordercolor="#666666"
     borderopacity="1"
     objecttolerance="10"
     gridtolerance="10"
     guidetolerance="10"
     inkscape:pageopacity="0"
     inkscape:pageshadow="2"
     inkscape:window-width="452"
     inkscape:window-height="423"
     id="namedview145"
     showgrid="false"
     inkscape:zoom="0.7375"
     inkscape:cx="168.13558"
     inkscape:cy="143.72881"
     inkscape:window-x="0"
     inkscape:window-y="0"
     inkscape:window-maximized="0"
     inkscape:current-layer="svg284" />
  <metadata
     id="metadata288">
    <rdf:RDF>
      <cc:Work
         rdf:about="">
        <dc:format>image/svg+xml</dc:format>
        <dc:type
           rdf:resource="http://purl.org/dc/dcmitype/StillImage" />
      </cc:Work>
    </rdf:RDF>
  </metadata>
  <defs
     id="defs2" />
  <path
     style="fill:#808080"
     d="M 20 60 L 20 80 L 20 81 L 20 100 L 20 101 L 20 120 L 20 121 L 20 140 L 20 141 L 20 160 L 20 161 L 20 180 L 20 181 L 20 200 L 20 201 L 20 220 L 20 221 L 20 241 L 41 241 L 41 221 L 41 220 L 41 201 L 41 200 L 41 181 L 41 180 L 41 161 L 41 160 L 41 141 L 41 140 L 41 121 L 41 120 L 41 101 L 41 100 L 41 81 L 60 81 L 61 81 L 80 81 L 81 81 L 100 81 L 101 81 L 120 81 L 121 81 L 140 81 L 141 81 L 160 81 L 161 81 L 180 81 L 181 81 L 200 81 L 201 81 L 220 81 L 221 81 L 240 81 L 241 81 L 260 81 L 261 81 L 281 81 L 281 60 L 261 60 L 260 60 L 241 60 L 240 60 L 221 60 L 220 60 L 201 60 L 200 60 L 181 60 L 180 60 L 161 60 L 160 60 L 141 60 L 140 60 L 121 60 L 120 60 L 101 60 L 100 60 L 81 60 L 80 60 L 61 60 L 60 60 L 41 60 L 40 60 L 20 60 z "
     id="rect228" />
  <path
     style="fill:#ffff00"
     d="M 80 80 L 80 100 L 80 101 L 80 120 L 61 120 L 61 100 L 40 100 L 40 121 L 60 121 L 60 140 L 40 140 L 40 161 L 60 161 L 60 180 L 40 180 L 40 200 L 40 201 L 40 221 L 60 221 L 60 241 L 81 241 L 81 221 L 100 221 L 100 241 L 121 241 L 121 221 L 140 221 L 140 241 L 161 241 L 161 221 L 180 221 L 180 241 L 201 241 L 201 221 L 220 221 L 220 241 L 241 241 L 241 220 L 221 220 L 221 200 L 201 200 L 201 180 L 181 180 L 181 161 L 201 161 L 201 141 L 220 141 L 220 161 L 240 161 L 240 181 L 260 181 L 260 201 L 281 201 L 281 180 L 261 180 L 261 161 L 281 161 L 281 140 L 261 140 L 261 121 L 281 121 L 281 100 L 261 100 L 261 80 L 240 80 L 240 100 L 221 100 L 221 80 L 200 80 L 200 100 L 181 100 L 181 80 L 160 80 L 160 100 L 141 100 L 141 80 L 120 80 L 120 100 L 101 100 L 101 80 L 80 80 z M 121 101 L 140 101 L 140 120 L 121 120 L 121 101 z M 161 101 L 180 101 L 180 120 L 161 120 L 161 101 z M 201 101 L 220 101 L 220 120 L 201 120 L 201 101 z M 241 101 L 260 101 L 260 120 L 241 120 L 241 101 z M 81 121 L 100 121 L 101 121 L 120 121 L 120 141 L 140 141 L 140 161 L 160 161 L 160 181 L 180 181 L 180 200 L 160 200 L 160 220 L 141 220 L 141 200 L 121 200 L 121 180 L 100 180 L 100 200 L 80 200 L 80 220 L 61 220 L 61 201 L 61 200 L 61 181 L 81 181 L 81 161 L 101 161 L 101 140 L 81 140 L 81 121 z M 141 121 L 160 121 L 160 140 L 141 140 L 141 121 z M 181 121 L 200 121 L 200 140 L 181 140 L 181 121 z M 221 121 L 240 121 L 240 140 L 221 140 L 221 121 z M 61 141 L 80 141 L 80 160 L 61 160 L 61 141 z M 161 141 L 180 141 L 180 160 L 161 160 L 161 141 z M 241 141 L 260 141 L 260 160 L 241 160 L 241 141 z M 101 201 L 120 201 L 120 220 L 101 220 L 101 201 z M 181 201 L 200 201 L 200 220 L 181 220 L 181 201 z "
     id="rect248" />
  <path
     style="fill:#c0c0c0"
     d="M 60 80 L 60 101 L 81 101 L 81 80 L 60 80 z M 100 80 L 100 101 L 120 101 L 120 120 L 100 120 L 100 141 L 120 141 L 120 161 L 140 161 L 140 180 L 120 180 L 120 200 L 100 200 L 100 220 L 80 220 L 80 241 L 101 241 L 101 221 L 120 221 L 120 241 L 141 241 L 141 221 L 160 221 L 160 241 L 181 241 L 181 221 L 200 221 L 200 241 L 221 241 L 221 221 L 240 221 L 240 241 L 261 241 L 261 221 L 281 221 L 281 200 L 261 200 L 261 181 L 281 181 L 281 160 L 261 160 L 261 141 L 281 141 L 281 120 L 260 120 L 260 140 L 240 140 L 240 160 L 220 160 L 220 180 L 200 180 L 200 200 L 180 200 L 180 220 L 161 220 L 161 200 L 141 200 L 141 181 L 161 181 L 161 161 L 181 161 L 181 141 L 201 141 L 201 121 L 221 121 L 221 101 L 241 101 L 241 80 L 220 80 L 220 100 L 201 100 L 201 80 L 180 80 L 180 100 L 161 100 L 161 80 L 140 80 L 140 100 L 121 100 L 121 80 L 100 80 z M 141 101 L 160 101 L 160 120 L 141 120 L 141 101 z M 181 101 L 200 101 L 200 120 L 181 120 L 181 101 z M 40 120 L 40 141 L 60 141 L 60 160 L 40 160 L 40 181 L 60 181 L 60 201 L 81 201 L 81 181 L 101 181 L 101 160 L 81 160 L 81 140 L 61 140 L 61 120 L 40 120 z M 121 121 L 140 121 L 140 140 L 121 140 L 121 121 z M 161 121 L 180 121 L 180 140 L 161 140 L 161 121 z M 141 141 L 160 141 L 160 160 L 141 160 L 141 141 z M 61 161 L 80 161 L 80 180 L 61 180 L 61 161 z M 241 161 L 260 161 L 260 180 L 241 180 L 241 161 z M 221 181 L 240 181 L 240 200 L 221 200 L 221 181 z M 121 201 L 140 201 L 140 220 L 121 220 L 121 201 z M 201 201 L 220 201 L 220 220 L 201 220 L 201 201 z M 241 201 L 260 201 L 260 220 L 241 220 L 241 201 z "
     id="rect250" />
  <path
     style="fill:#000000"
     d="M 280 60 L 280 80 L 260 80 L 260 100 L 240 100 L 240 120 L 220 120 L 220 140 L 200 140 L 200 160 L 180 160 L 180 180 L 161 180 L 160 180 L 141 180 L 141 160 L 121 160 L 121 140 L 101 140 L 101 120 L 81 120 L 81 100 L 61 100 L 61 80 L 40 80 L 40 101 L 60 101 L 60 121 L 80 121 L 80 141 L 100 141 L 100 160 L 100 161 L 100 180 L 80 180 L 80 200 L 60 200 L 60 220 L 40 220 L 40 240 L 20 240 L 20 261 L 40 261 L 41 261 L 60 261 L 61 261 L 80 261 L 81 261 L 100 261 L 101 261 L 120 261 L 121 261 L 140 261 L 141 261 L 160 261 L 161 261 L 180 261 L 181 261 L 200 261 L 201 261 L 220 261 L 221 261 L 240 261 L 241 261 L 260 261 L 261 261 L 280 261 L 281 261 L 301 261 L 301 241 L 301 240 L 301 221 L 301 220 L 301 201 L 301 200 L 301 181 L 301 180 L 301 161 L 301 160 L 301 141 L 301 140 L 301 121 L 301 120 L 301 101 L 301 100 L 301 81 L 301 80 L 301 60 L 280 60 z M 261 101 L 280 101 L 280 120 L 280 121 L 280 140 L 280 141 L 280 160 L 280 161 L 280 180 L 280 181 L 280 200 L 280 201 L 280 220 L 261 220 L 261 200 L 241 200 L 241 180 L 221 180 L 221 161 L 221 160 L 221 141 L 241 141 L 241 121 L 261 121 L 261 101 z M 101 181 L 120 181 L 121 181 L 140 181 L 140 201 L 160 201 L 161 201 L 181 201 L 181 181 L 200 181 L 201 181 L 220 181 L 220 201 L 240 201 L 240 221 L 260 221 L 260 240 L 241 240 L 240 240 L 221 240 L 220 240 L 201 240 L 200 240 L 181 240 L 180 240 L 161 240 L 160 240 L 141 240 L 140 240 L 121 240 L 120 240 L 101 240 L 100 240 L 81 240 L 80 240 L 61 240 L 61 221 L 81 221 L 81 201 L 101 201 L 101 181 z "
     id="rect282" />
</svg>
