<?xml version="1.0" encoding="UTF-8" standalone="no"?>
<svg
   xmlns:dc="http://purl.org/dc/elements/1.1/"
   xmlns:cc="http://creativecommons.org/ns#"
   xmlns:rdf="http://www.w3.org/1999/02/22-rdf-syntax-ns#"
   xmlns:svg="http://www.w3.org/2000/svg"
   xmlns="http://www.w3.org/2000/svg"
   xmlns:sodipodi="http://sodipodi.sourceforge.net/DTD/sodipodi-0.dtd"
   xmlns:inkscape="http://www.inkscape.org/namespaces/inkscape"
   id="svg68"
   width="320px"
   version="1.1"
   height="320px"
   sodipodi:docname="chicago95_tmp_file.svg"
   inkscape:version="0.92.5 (2060ec1f9f, 2020-04-08)">
  <sodipodi:namedview
     pagecolor="#ffffff"
     bordercolor="#666666"
     borderopacity="1"
     objecttolerance="10"
     gridtolerance="10"
     guidetolerance="10"
     inkscape:pageopacity="0"
     inkscape:pageshadow="2"
     inkscape:window-width="640"
     inkscape:window-height="480"
     id="namedview37"
     showgrid="false"
     inkscape:zoom="0.7375"
     inkscape:cx="160"
     inkscape:cy="160"
     inkscape:window-x="0"
     inkscape:window-y="0"
     inkscape:window-maximized="0"
     inkscape:current-layer="svg68" />
  <metadata
     id="metadata72">
    <rdf:RDF>
      <cc:Work
         rdf:about="">
        <dc:format>image/svg+xml</dc:format>
        <dc:type
           rdf:resource="http://purl.org/dc/dcmitype/StillImage" />
      </cc:Work>
    </rdf:RDF>
  </metadata>
  <defs
     id="defs2" />
  <path
     style="fill:#000000"
     d="M 100 80 L 100 100 L 100 101 L 100 120 L 100 121 L 100 140 L 100 141 L 100 160 L 100 161 L 100 180 L 100 181 L 100 200 L 100 201 L 100 220 L 100 221 L 100 241 L 120 241 L 121 241 L 141 241 L 141 221 L 141 220 L 141 201 L 141 200 L 141 181 L 141 180 L 141 161 L 141 160 L 141 141 L 141 140 L 141 121 L 141 120 L 141 101 L 141 100 L 141 80 L 121 80 L 120 80 L 100 80 z M 180 80 L 180 100 L 180 101 L 180 120 L 180 121 L 180 140 L 180 141 L 180 160 L 180 161 L 180 180 L 180 181 L 180 200 L 180 201 L 180 220 L 180 221 L 180 241 L 200 241 L 201 241 L 221 241 L 221 221 L 221 220 L 221 201 L 221 200 L 221 181 L 221 180 L 221 161 L 221 160 L 221 141 L 221 140 L 221 121 L 221 120 L 221 101 L 221 100 L 221 80 L 201 80 L 200 80 L 180 80 z "
     id="rect66" />
</svg>
