<?xml version="1.0" encoding="UTF-8" standalone="no"?>
<svg
   xmlns:dc="http://purl.org/dc/elements/1.1/"
   xmlns:cc="http://creativecommons.org/ns#"
   xmlns:rdf="http://www.w3.org/1999/02/22-rdf-syntax-ns#"
   xmlns:svg="http://www.w3.org/2000/svg"
   xmlns="http://www.w3.org/2000/svg"
   xmlns:sodipodi="http://sodipodi.sourceforge.net/DTD/sodipodi-0.dtd"
   xmlns:inkscape="http://www.inkscape.org/namespaces/inkscape"
   id="svg126"
   width="320px"
   version="1.1"
   height="320px"
   sodipodi:docname="chicago95_tmp_file.svg"
   inkscape:version="0.92.5 (2060ec1f9f, 2020-04-08)">
  <sodipodi:namedview
     pagecolor="#ffffff"
     bordercolor="#666666"
     borderopacity="1"
     objecttolerance="10"
     gridtolerance="10"
     guidetolerance="10"
     inkscape:pageopacity="0"
     inkscape:pageshadow="2"
     inkscape:window-width="452"
     inkscape:window-height="423"
     id="namedview66"
     showgrid="false"
     inkscape:zoom="0.7375"
     inkscape:cx="162.71186"
     inkscape:cy="154.57627"
     inkscape:window-x="0"
     inkscape:window-y="0"
     inkscape:window-maximized="0"
     inkscape:current-layer="svg126" />
  <metadata
     id="metadata130">
    <rdf:RDF>
      <cc:Work
         rdf:about="">
        <dc:format>image/svg+xml</dc:format>
        <dc:type
           rdf:resource="http://purl.org/dc/dcmitype/StillImage" />
      </cc:Work>
    </rdf:RDF>
  </metadata>
  <defs
     id="defs2" />
  <path
     style="fill:#000000"
     d="M 40 60 L 40 81 L 60 81 L 61 81 L 80 81 L 81 81 L 100 81 L 100 100 L 81 100 L 80 100 L 61 100 L 60 100 L 40 100 L 40 120 L 20 120 L 20 140 L 20 141 L 20 161 L 40 161 L 40 181 L 60 181 L 61 181 L 80 181 L 81 181 L 100 181 L 101 181 L 120 181 L 121 181 L 141 181 L 141 161 L 141 160 L 141 141 L 141 140 L 141 121 L 141 120 L 141 101 L 141 100 L 141 80 L 121 80 L 121 60 L 101 60 L 100 60 L 81 60 L 80 60 L 61 60 L 60 60 L 40 60 z M 180 60 L 180 80 L 160 80 L 160 100 L 160 101 L 160 120 L 160 121 L 160 140 L 160 141 L 160 161 L 180 161 L 180 181 L 200 181 L 201 181 L 220 181 L 221 181 L 240 181 L 241 181 L 261 181 L 261 161 L 281 161 L 281 140 L 261 140 L 260 140 L 240 140 L 240 160 L 221 160 L 220 160 L 201 160 L 201 141 L 201 140 L 201 121 L 220 121 L 221 121 L 240 121 L 241 121 L 260 121 L 261 121 L 281 121 L 281 101 L 281 100 L 281 80 L 261 80 L 261 60 L 241 60 L 240 60 L 221 60 L 220 60 L 201 60 L 200 60 L 180 60 z M 201 81 L 220 81 L 221 81 L 240 81 L 240 100 L 221 100 L 220 100 L 201 100 L 201 81 z M 61 121 L 80 121 L 81 121 L 100 121 L 100 140 L 100 141 L 100 160 L 81 160 L 80 160 L 61 160 L 61 141 L 61 140 L 61 121 z "
     id="rect98" />
  <path
     style="fill:#800000"
     d="M 40 200 L 40 220 L 20 220 L 20 241 L 41 241 L 41 221 L 60 221 L 60 241 L 81 241 L 81 221 L 100 221 L 100 241 L 121 241 L 121 221 L 140 221 L 140 241 L 161 241 L 161 221 L 180 221 L 180 241 L 201 241 L 201 221 L 220 221 L 220 241 L 241 241 L 241 221 L 260 221 L 260 241 L 281 241 L 281 220 L 261 220 L 261 200 L 240 200 L 240 220 L 221 220 L 221 200 L 200 200 L 200 220 L 181 220 L 181 200 L 160 200 L 160 220 L 141 220 L 141 200 L 120 200 L 120 220 L 101 220 L 101 200 L 80 200 L 80 220 L 61 220 L 61 200 L 40 200 z "
     id="rect124" />
</svg>
