<?xml version="1.0" encoding="UTF-8" standalone="no"?>
<svg
   xmlns:dc="http://purl.org/dc/elements/1.1/"
   xmlns:cc="http://creativecommons.org/ns#"
   xmlns:rdf="http://www.w3.org/1999/02/22-rdf-syntax-ns#"
   xmlns:svg="http://www.w3.org/2000/svg"
   xmlns="http://www.w3.org/2000/svg"
   xmlns:sodipodi="http://sodipodi.sourceforge.net/DTD/sodipodi-0.dtd"
   xmlns:inkscape="http://www.inkscape.org/namespaces/inkscape"
   id="svg126"
   width="320px"
   version="1.1"
   height="320px"
   sodipodi:docname="chicago95_tmp_file.svg"
   inkscape:version="0.92.5 (2060ec1f9f, 2020-04-08)">
  <sodipodi:namedview
     pagecolor="#ffffff"
     bordercolor="#666666"
     borderopacity="1"
     objecttolerance="10"
     gridtolerance="10"
     guidetolerance="10"
     inkscape:pageopacity="0"
     inkscape:pageshadow="2"
     inkscape:window-width="452"
     inkscape:window-height="423"
     id="namedview66"
     showgrid="false"
     inkscape:zoom="0.7375"
     inkscape:cx="165.42372"
     inkscape:cy="149.15254"
     inkscape:window-x="0"
     inkscape:window-y="0"
     inkscape:window-maximized="0"
     inkscape:current-layer="svg126" />
  <metadata
     id="metadata130">
    <rdf:RDF>
      <cc:Work
         rdf:about="">
        <dc:format>image/svg+xml</dc:format>
        <dc:type
           rdf:resource="http://purl.org/dc/dcmitype/StillImage" />
      </cc:Work>
    </rdf:RDF>
  </metadata>
  <defs
     id="defs2" />
  <path
     style="fill:#ffffff"
     d="M 220 80 L 220 100 L 220 101 L 220 121 L 240 121 L 241 121 L 261 121 L 261 101 L 261 100 L 261 80 L 241 80 L 240 80 L 220 80 z M 220 200 L 220 220 L 220 221 L 220 241 L 240 241 L 241 241 L 261 241 L 261 221 L 261 220 L 261 200 L 241 200 L 240 200 L 220 200 z "
     id="rect100" />
  <path
     style="fill:#000080"
     d="M 20 60 L 20 81 L 40 81 L 41 81 L 60 81 L 61 81 L 80 81 L 81 81 L 101 81 L 101 60 L 81 60 L 80 60 L 61 60 L 60 60 L 41 60 L 40 60 L 20 60 z M 200 60 L 200 80 L 200 81 L 200 100 L 200 101 L 200 120 L 200 121 L 200 141 L 220 141 L 221 141 L 240 141 L 241 141 L 260 141 L 261 141 L 281 141 L 281 121 L 281 120 L 281 101 L 281 100 L 281 81 L 281 80 L 281 60 L 261 60 L 260 60 L 241 60 L 240 60 L 221 60 L 220 60 L 200 60 z M 221 81 L 240 81 L 241 81 L 260 81 L 260 100 L 260 101 L 260 120 L 241 120 L 240 120 L 221 120 L 221 101 L 221 100 L 221 81 z M 20 120 L 20 141 L 40 141 L 41 141 L 60 141 L 61 141 L 80 141 L 81 141 L 101 141 L 101 120 L 81 120 L 80 120 L 61 120 L 60 120 L 41 120 L 40 120 L 20 120 z M 20 180 L 20 201 L 40 201 L 41 201 L 60 201 L 61 201 L 80 201 L 81 201 L 101 201 L 101 180 L 81 180 L 80 180 L 61 180 L 60 180 L 41 180 L 40 180 L 20 180 z M 200 180 L 200 200 L 200 201 L 200 220 L 200 221 L 200 240 L 200 241 L 200 261 L 220 261 L 221 261 L 240 261 L 241 261 L 260 261 L 261 261 L 281 261 L 281 241 L 281 240 L 281 221 L 281 220 L 281 201 L 281 200 L 281 180 L 261 180 L 260 180 L 241 180 L 240 180 L 221 180 L 220 180 L 200 180 z M 221 201 L 240 201 L 241 201 L 260 201 L 260 220 L 260 221 L 260 240 L 241 240 L 240 240 L 221 240 L 221 221 L 221 220 L 221 201 z M 20 240 L 20 261 L 40 261 L 41 261 L 60 261 L 61 261 L 80 261 L 81 261 L 101 261 L 101 240 L 81 240 L 80 240 L 61 240 L 60 240 L 41 240 L 40 240 L 20 240 z "
     id="rect120" />
  <path
     style="fill:#800000"
     d="M 140 40 L 140 60 L 140 61 L 140 80 L 140 81 L 140 100 L 140 101 L 140 120 L 140 121 L 140 140 L 140 141 L 140 160 L 140 161 L 140 180 L 140 181 L 140 200 L 140 201 L 140 220 L 140 221 L 140 240 L 140 241 L 140 260 L 140 261 L 140 280 L 140 281 L 140 301 L 161 301 L 161 281 L 161 280 L 161 261 L 161 260 L 161 241 L 161 240 L 161 221 L 161 220 L 161 201 L 161 200 L 161 181 L 161 180 L 161 161 L 161 160 L 161 141 L 161 140 L 161 121 L 161 120 L 161 101 L 161 100 L 161 81 L 161 80 L 161 61 L 161 60 L 161 40 L 140 40 z "
     id="rect124" />
</svg>
