<?xml version="1.0" encoding="UTF-8" standalone="no"?>
<svg
   xmlns:dc="http://purl.org/dc/elements/1.1/"
   xmlns:cc="http://creativecommons.org/ns#"
   xmlns:rdf="http://www.w3.org/1999/02/22-rdf-syntax-ns#"
   xmlns:svg="http://www.w3.org/2000/svg"
   xmlns="http://www.w3.org/2000/svg"
   xmlns:sodipodi="http://sodipodi.sourceforge.net/DTD/sodipodi-0.dtd"
   xmlns:inkscape="http://www.inkscape.org/namespaces/inkscape"
   id="svg220"
   width="320px"
   version="1.1"
   height="320px"
   sodipodi:docname="chicago95_tmp_file.svg"
   inkscape:version="0.92.5 (2060ec1f9f, 2020-04-08)">
  <sodipodi:namedview
     pagecolor="#ffffff"
     bordercolor="#666666"
     borderopacity="1"
     objecttolerance="10"
     gridtolerance="10"
     guidetolerance="10"
     inkscape:pageopacity="0"
     inkscape:pageshadow="2"
     inkscape:window-width="452"
     inkscape:window-height="423"
     id="namedview113"
     showgrid="false"
     inkscape:zoom="0.7375"
     inkscape:cx="162.71186"
     inkscape:cy="154.57627"
     inkscape:window-x="0"
     inkscape:window-y="0"
     inkscape:window-maximized="0"
     inkscape:current-layer="svg220" />
  <metadata
     id="metadata224">
    <rdf:RDF>
      <cc:Work
         rdf:about="">
        <dc:format>image/svg+xml</dc:format>
        <dc:type
           rdf:resource="http://purl.org/dc/dcmitype/StillImage" />
      </cc:Work>
    </rdf:RDF>
  </metadata>
  <defs
     id="defs2" />
  <path
     style="fill:#f8fcf8"
     d="M 20 100 L 20 121 L 41 121 L 41 100 L 20 100 z M 60 100 L 60 121 L 80 121 L 81 121 L 100 121 L 101 121 L 120 121 L 121 121 L 141 121 L 141 100 L 121 100 L 120 100 L 101 100 L 100 100 L 81 100 L 80 100 L 60 100 z M 280 120 L 280 140 L 260 140 L 260 161 L 281 161 L 281 141 L 301 141 L 301 120 L 280 120 z "
     id="rect116" />
  <path
     style="fill:#f80000"
     d="M 60 180 L 60 201 L 81 201 L 81 180 L 60 180 z "
     id="rect152" />
  <path
     style="fill:#c0c0c0"
     d="M 140 100 L 140 120 L 121 120 L 120 120 L 101 120 L 100 120 L 81 120 L 80 120 L 60 120 L 60 141 L 80 141 L 81 141 L 100 141 L 101 141 L 120 141 L 121 141 L 140 141 L 141 141 L 160 141 L 160 160 L 141 160 L 140 160 L 121 160 L 120 160 L 101 160 L 100 160 L 81 160 L 80 160 L 60 160 L 60 181 L 80 181 L 80 201 L 100 201 L 101 201 L 120 201 L 121 201 L 140 201 L 141 201 L 161 201 L 161 181 L 180 181 L 180 201 L 201 201 L 201 181 L 221 181 L 221 161 L 221 160 L 221 141 L 221 140 L 221 121 L 221 120 L 221 100 L 201 100 L 200 100 L 180 100 L 180 120 L 180 121 L 180 140 L 161 140 L 161 121 L 161 120 L 161 100 L 140 100 z M 280 140 L 280 161 L 301 161 L 301 140 L 280 140 z "
     id="rect164" />
  <path
     style="fill:#808080"
     d="M 0 60 L 0 80 L 0 81 L 0 100 L 0 101 L 0 120 L 0 121 L 0 141 L 21 141 L 21 121 L 21 120 L 21 101 L 41 101 L 41 80 L 21 80 L 21 60 L 0 60 z M 80 60 L 80 80 L 60 80 L 60 101 L 80 101 L 81 101 L 100 101 L 101 101 L 120 101 L 121 101 L 140 101 L 141 101 L 160 101 L 161 101 L 180 101 L 181 101 L 200 101 L 201 101 L 220 101 L 220 120 L 220 121 L 220 140 L 220 141 L 220 160 L 220 161 L 220 180 L 220 181 L 220 200 L 201 200 L 200 200 L 181 200 L 180 200 L 161 200 L 160 200 L 141 200 L 140 200 L 121 200 L 120 200 L 101 200 L 100 200 L 81 200 L 80 200 L 61 200 L 61 181 L 61 180 L 61 160 L 40 160 L 40 180 L 40 181 L 40 200 L 40 201 L 40 221 L 60 221 L 61 221 L 80 221 L 81 221 L 100 221 L 101 221 L 120 221 L 121 221 L 140 221 L 141 221 L 160 221 L 161 221 L 180 221 L 181 221 L 200 221 L 201 221 L 220 221 L 221 221 L 241 221 L 241 201 L 241 200 L 241 181 L 241 180 L 241 161 L 241 160 L 241 141 L 241 140 L 241 121 L 241 120 L 241 101 L 241 100 L 241 80 L 221 80 L 220 80 L 201 80 L 200 80 L 181 80 L 180 80 L 161 80 L 160 80 L 141 80 L 140 80 L 121 80 L 120 80 L 101 80 L 101 60 L 80 60 z M 280 100 L 280 120 L 260 120 L 260 141 L 281 141 L 281 121 L 300 121 L 301 121 L 321 121 L 321 100 L 301 100 L 300 100 L 280 100 z M 280 160 L 280 181 L 301 181 L 301 160 L 280 160 z "
     id="rect194" />
  <path
     style="fill:#000000"
     d="M 40 100 L 40 120 L 20 120 L 20 140 L 0 140 L 0 161 L 21 161 L 21 141 L 40 141 L 40 161 L 60 161 L 61 161 L 80 161 L 81 161 L 100 161 L 101 161 L 120 161 L 121 161 L 140 161 L 141 161 L 161 161 L 161 141 L 181 141 L 181 121 L 181 120 L 181 100 L 160 100 L 160 120 L 160 121 L 160 140 L 141 140 L 140 140 L 121 140 L 120 140 L 101 140 L 100 140 L 81 140 L 80 140 L 61 140 L 61 121 L 61 120 L 61 100 L 40 100 z M 240 100 L 240 120 L 240 121 L 240 140 L 240 141 L 240 160 L 240 161 L 240 180 L 240 181 L 240 200 L 240 201 L 240 220 L 221 220 L 220 220 L 201 220 L 200 220 L 181 220 L 180 220 L 161 220 L 160 220 L 141 220 L 140 220 L 121 220 L 120 220 L 101 220 L 100 220 L 81 220 L 80 220 L 61 220 L 60 220 L 40 220 L 40 241 L 60 241 L 61 241 L 80 241 L 81 241 L 100 241 L 101 241 L 120 241 L 121 241 L 140 241 L 141 241 L 160 241 L 161 241 L 180 241 L 181 241 L 200 241 L 201 241 L 220 241 L 221 241 L 240 241 L 241 241 L 261 241 L 261 221 L 261 220 L 261 201 L 261 200 L 261 181 L 280 181 L 280 201 L 300 201 L 301 201 L 321 201 L 321 181 L 321 180 L 321 161 L 321 160 L 321 141 L 321 140 L 321 120 L 300 120 L 300 140 L 300 141 L 300 160 L 300 161 L 300 180 L 281 180 L 281 160 L 261 160 L 261 141 L 261 140 L 261 121 L 261 120 L 261 100 L 240 100 z M 160 180 L 160 201 L 181 201 L 181 180 L 160 180 z M 200 180 L 200 201 L 221 201 L 221 180 L 200 180 z "
     id="rect218" />
</svg>
