<?xml version="1.0" encoding="UTF-8" standalone="no"?>
<svg
   xmlns:dc="http://purl.org/dc/elements/1.1/"
   xmlns:cc="http://creativecommons.org/ns#"
   xmlns:rdf="http://www.w3.org/1999/02/22-rdf-syntax-ns#"
   xmlns:svg="http://www.w3.org/2000/svg"
   xmlns="http://www.w3.org/2000/svg"
   xmlns:sodipodi="http://sodipodi.sourceforge.net/DTD/sodipodi-0.dtd"
   xmlns:inkscape="http://www.inkscape.org/namespaces/inkscape"
   id="svg116"
   width="320px"
   version="1.1"
   height="320px"
   sodipodi:docname="chicago95_tmp_file.svg"
   inkscape:version="0.92.5 (2060ec1f9f, 2020-04-08)">
  <sodipodi:namedview
     pagecolor="#ffffff"
     bordercolor="#666666"
     borderopacity="1"
     objecttolerance="10"
     gridtolerance="10"
     guidetolerance="10"
     inkscape:pageopacity="0"
     inkscape:pageshadow="2"
     inkscape:window-width="640"
     inkscape:window-height="480"
     id="namedview61"
     showgrid="false"
     inkscape:zoom="0.7375"
     inkscape:cx="160"
     inkscape:cy="160"
     inkscape:window-x="0"
     inkscape:window-y="0"
     inkscape:window-maximized="0"
     inkscape:current-layer="svg116" />
  <metadata
     id="metadata120">
    <rdf:RDF>
      <cc:Work
         rdf:about="">
        <dc:format>image/svg+xml</dc:format>
        <dc:type
           rdf:resource="http://purl.org/dc/dcmitype/StillImage" />
      </cc:Work>
    </rdf:RDF>
  </metadata>
  <defs
     id="defs2" />
  <path
     style="fill:#000000"
     d="M 40 60 L 40 81 L 60 81 L 60 101 L 80 101 L 80 121 L 100 121 L 100 141 L 120 141 L 120 160 L 120 161 L 120 180 L 100 180 L 100 200 L 80 200 L 80 220 L 60 220 L 60 240 L 40 240 L 40 261 L 60 261 L 61 261 L 80 261 L 81 261 L 101 261 L 101 241 L 121 241 L 121 221 L 141 221 L 141 201 L 160 201 L 161 201 L 180 201 L 180 221 L 200 221 L 200 241 L 220 241 L 220 261 L 240 261 L 241 261 L 260 261 L 261 261 L 281 261 L 281 240 L 261 240 L 261 220 L 241 220 L 241 200 L 221 200 L 221 180 L 201 180 L 201 161 L 201 160 L 201 141 L 221 141 L 221 121 L 241 121 L 241 101 L 261 101 L 261 81 L 281 81 L 281 60 L 261 60 L 260 60 L 241 60 L 240 60 L 220 60 L 220 80 L 200 80 L 200 100 L 180 100 L 180 120 L 161 120 L 160 120 L 141 120 L 141 100 L 121 100 L 121 80 L 101 80 L 101 60 L 81 60 L 80 60 L 61 60 L 60 60 L 40 60 z "
     id="rect114" />
</svg>
