<?xml version="1.0" encoding="UTF-8" standalone="no"?>
<svg
   xmlns:dc="http://purl.org/dc/elements/1.1/"
   xmlns:cc="http://creativecommons.org/ns#"
   xmlns:rdf="http://www.w3.org/1999/02/22-rdf-syntax-ns#"
   xmlns:svg="http://www.w3.org/2000/svg"
   xmlns="http://www.w3.org/2000/svg"
   xmlns:sodipodi="http://sodipodi.sourceforge.net/DTD/sodipodi-0.dtd"
   xmlns:inkscape="http://www.inkscape.org/namespaces/inkscape"
   id="svg124"
   width="320px"
   version="1.1"
   height="320px"
   sodipodi:docname="chicago95_tmp_file.svg"
   inkscape:version="0.92.5 (2060ec1f9f, 2020-04-08)">
  <sodipodi:namedview
     pagecolor="#ffffff"
     bordercolor="#666666"
     borderopacity="1"
     objecttolerance="10"
     gridtolerance="10"
     guidetolerance="10"
     inkscape:pageopacity="0"
     inkscape:pageshadow="2"
     inkscape:window-width="452"
     inkscape:window-height="423"
     id="namedview65"
     showgrid="false"
     inkscape:zoom="0.7375"
     inkscape:cx="162.71186"
     inkscape:cy="154.57627"
     inkscape:window-x="0"
     inkscape:window-y="0"
     inkscape:window-maximized="0"
     inkscape:current-layer="svg124" />
  <metadata
     id="metadata128">
    <rdf:RDF>
      <cc:Work
         rdf:about="">
        <dc:format>image/svg+xml</dc:format>
        <dc:type
           rdf:resource="http://purl.org/dc/dcmitype/StillImage" />
      </cc:Work>
    </rdf:RDF>
  </metadata>
  <defs
     id="defs2" />
  <path
     style="fill:#c0c0c0"
     d="M 140 100 L 140 121 L 160 121 L 161 121 L 180 121 L 181 121 L 200 121 L 200 140 L 200 141 L 200 161 L 221 161 L 221 141 L 221 140 L 221 121 L 221 120 L 221 100 L 201 100 L 200 100 L 181 100 L 180 100 L 161 100 L 160 100 L 140 100 z M 100 160 L 100 180 L 100 181 L 100 200 L 100 201 L 100 221 L 120 221 L 121 221 L 140 221 L 141 221 L 160 221 L 161 221 L 181 221 L 181 201 L 181 200 L 181 181 L 181 180 L 181 160 L 161 160 L 160 160 L 141 160 L 140 160 L 121 160 L 120 160 L 100 160 z "
     id="rect108" />
  <path
     style="fill:#000000"
     d="M 120 60 L 120 80 L 120 81 L 120 100 L 120 101 L 120 120 L 101 120 L 100 120 L 80 120 L 80 140 L 80 141 L 80 160 L 80 161 L 80 180 L 80 181 L 80 200 L 80 201 L 80 220 L 80 221 L 80 241 L 100 241 L 101 241 L 120 241 L 121 241 L 140 241 L 141 241 L 160 241 L 161 241 L 180 241 L 181 241 L 201 241 L 201 221 L 201 220 L 201 201 L 201 200 L 201 181 L 220 181 L 221 181 L 241 181 L 241 161 L 241 160 L 241 141 L 241 140 L 241 121 L 241 120 L 241 101 L 241 100 L 241 81 L 241 80 L 241 60 L 221 60 L 220 60 L 201 60 L 200 60 L 181 60 L 180 60 L 161 60 L 160 60 L 141 60 L 140 60 L 120 60 z M 141 101 L 160 101 L 161 101 L 180 101 L 181 101 L 200 101 L 201 101 L 220 101 L 220 120 L 220 121 L 220 140 L 220 141 L 220 160 L 201 160 L 201 141 L 201 140 L 201 120 L 181 120 L 180 120 L 161 120 L 160 120 L 141 120 L 141 101 z M 101 161 L 120 161 L 121 161 L 140 161 L 141 161 L 160 161 L 161 161 L 180 161 L 180 180 L 180 181 L 180 200 L 180 201 L 180 220 L 161 220 L 160 220 L 141 220 L 140 220 L 121 220 L 120 220 L 101 220 L 101 201 L 101 200 L 101 181 L 101 180 L 101 161 z "
     id="rect122" />
</svg>
