<?xml version="1.0" encoding="UTF-8" standalone="no"?>
<svg
   xmlns:dc="http://purl.org/dc/elements/1.1/"
   xmlns:cc="http://creativecommons.org/ns#"
   xmlns:rdf="http://www.w3.org/1999/02/22-rdf-syntax-ns#"
   xmlns:svg="http://www.w3.org/2000/svg"
   xmlns="http://www.w3.org/2000/svg"
   xmlns:sodipodi="http://sodipodi.sourceforge.net/DTD/sodipodi-0.dtd"
   xmlns:inkscape="http://www.inkscape.org/namespaces/inkscape"
   id="svg142"
   width="320px"
   version="1.1"
   height="320px"
   sodipodi:docname="chicago95_tmp_file.svg"
   inkscape:version="0.92.5 (2060ec1f9f, 2020-04-08)">
  <sodipodi:namedview
     pagecolor="#ffffff"
     bordercolor="#666666"
     borderopacity="1"
     objecttolerance="10"
     gridtolerance="10"
     guidetolerance="10"
     inkscape:pageopacity="0"
     inkscape:pageshadow="2"
     inkscape:window-width="640"
     inkscape:window-height="480"
     id="namedview74"
     showgrid="false"
     inkscape:zoom="0.7375"
     inkscape:cx="160"
     inkscape:cy="160"
     inkscape:window-x="0"
     inkscape:window-y="0"
     inkscape:window-maximized="0"
     inkscape:current-layer="svg142" />
  <metadata
     id="metadata146">
    <rdf:RDF>
      <cc:Work
         rdf:about="">
        <dc:format>image/svg+xml</dc:format>
        <dc:type
           rdf:resource="http://purl.org/dc/dcmitype/StillImage" />
      </cc:Work>
    </rdf:RDF>
  </metadata>
  <defs
     id="defs2" />
  <path
     style="fill:#87888f"
     d="M 60 0 L 60 21 L 81 21 L 81 0 L 60 0 z M 160 0 L 160 21 L 181 21 L 181 0 L 160 0 z M 40 40 L 40 61 L 61 61 L 61 40 L 40 40 z M 180 40 L 180 61 L 201 61 L 201 40 L 180 40 z M 0 60 L 0 81 L 21 81 L 21 60 L 0 60 z M 220 60 L 220 81 L 241 81 L 241 60 L 220 60 z M 0 160 L 0 181 L 21 181 L 21 160 L 0 160 z M 220 160 L 220 181 L 241 181 L 241 160 L 220 160 z M 40 180 L 40 201 L 61 201 L 61 180 L 40 180 z M 180 180 L 180 201 L 201 201 L 201 180 L 180 180 z M 60 220 L 60 241 L 81 241 L 81 220 L 60 220 z M 160 220 L 160 241 L 181 241 L 181 220 L 160 220 z "
     id="rect118" />
  <path
     style="fill:#000080"
     d="M 60 60 L 60 80 L 60 81 L 60 101 L 81 101 L 81 81 L 101 81 L 101 60 L 81 60 L 80 60 L 60 60 z M 140 60 L 140 81 L 160 81 L 160 101 L 181 101 L 181 81 L 181 80 L 181 60 L 161 60 L 160 60 L 140 60 z M 60 140 L 60 160 L 60 161 L 60 181 L 80 181 L 81 181 L 101 181 L 101 160 L 81 160 L 81 140 L 60 140 z M 160 140 L 160 160 L 140 160 L 140 181 L 160 181 L 161 181 L 181 181 L 181 161 L 181 160 L 181 140 L 160 140 z M 240 220 L 240 240 L 220 240 L 220 261 L 240 261 L 240 281 L 260 281 L 260 301 L 281 301 L 281 281 L 301 281 L 301 260 L 281 260 L 281 240 L 261 240 L 261 220 L 240 220 z M 241 241 L 260 241 L 260 260 L 241 260 L 241 241 z M 261 261 L 280 261 L 280 280 L 261 280 L 261 261 z "
     id="rect138" />
  <path
     style="fill:#000000"
     d="M 80 0 L 80 20 L 61 20 L 60 20 L 40 20 L 40 40 L 20 40 L 20 60 L 20 61 L 20 80 L 0 80 L 0 100 L 0 101 L 0 120 L 0 121 L 0 140 L 0 141 L 0 161 L 20 161 L 20 180 L 20 181 L 20 201 L 40 201 L 40 221 L 60 221 L 61 221 L 80 221 L 80 241 L 100 241 L 101 241 L 120 241 L 121 241 L 140 241 L 141 241 L 161 241 L 161 221 L 180 221 L 181 221 L 200 221 L 200 241 L 220 241 L 221 241 L 240 241 L 240 261 L 260 261 L 260 281 L 280 281 L 280 301 L 301 301 L 301 280 L 281 280 L 281 260 L 261 260 L 261 240 L 241 240 L 241 221 L 241 220 L 241 200 L 221 200 L 221 181 L 221 180 L 221 161 L 241 161 L 241 141 L 241 140 L 241 121 L 241 120 L 241 101 L 241 100 L 241 80 L 221 80 L 221 61 L 221 60 L 221 40 L 201 40 L 201 20 L 181 20 L 180 20 L 161 20 L 161 0 L 141 0 L 140 0 L 121 0 L 120 0 L 101 0 L 100 0 L 80 0 z M 81 21 L 100 21 L 101 21 L 120 21 L 121 21 L 140 21 L 141 21 L 160 21 L 160 41 L 180 41 L 181 41 L 200 41 L 200 60 L 200 61 L 200 81 L 220 81 L 220 100 L 220 101 L 220 120 L 220 121 L 220 140 L 220 141 L 220 160 L 200 160 L 200 180 L 200 181 L 200 200 L 181 200 L 180 200 L 160 200 L 160 220 L 141 220 L 140 220 L 121 220 L 120 220 L 101 220 L 100 220 L 81 220 L 81 200 L 61 200 L 60 200 L 41 200 L 41 181 L 41 180 L 41 160 L 21 160 L 21 141 L 21 140 L 21 121 L 21 120 L 21 101 L 21 100 L 21 81 L 41 81 L 41 61 L 41 60 L 41 41 L 60 41 L 61 41 L 81 41 L 81 21 z "
     id="rect140" />
</svg>
