<?xml version="1.0" encoding="utf-8" ?>
<svg baseProfile="full" height="96px" version="1.1" width="96px" xmlns="http://www.w3.org/2000/svg" xmlns:ev="http://www.w3.org/2001/xml-events" xmlns:xlink="http://www.w3.org/1999/xlink"><defs /><rect fill="rgb(128,128,128)" height="3px" width="3px" x="66px" y="0px" /><rect fill="rgb(128,128,128)" height="3px" width="3px" x="69px" y="0px" /><rect fill="rgb(128,128,128)" height="3px" width="3px" x="72px" y="0px" /><rect fill="rgb(128,128,128)" height="3px" width="3px" x="75px" y="0px" /><rect fill="rgb(128,128,128)" height="3px" width="3px" x="78px" y="0px" /><rect fill="rgb(128,128,128)" height="3px" width="3px" x="60px" y="3px" /><rect fill="rgb(128,128,128)" height="3px" width="3px" x="63px" y="3px" /><rect fill="rgb(128,128,128)" height="3px" width="3px" x="66px" y="3px" /><rect fill="rgb(192,192,192)" height="3px" width="3px" x="69px" y="3px" /><rect fill="rgb(128,128,128)" height="3px" width="3px" x="72px" y="3px" /><rect fill="rgb(192,192,192)" height="3px" width="3px" x="75px" y="3px" /><rect fill="rgb(0,0,0)" height="3px" width="3px" x="78px" y="3px" /><rect fill="rgb(0,0,0)" height="3px" width="3px" x="81px" y="3px" /><rect fill="rgb(128,128,128)" height="3px" width="3px" x="60px" y="6px" /><rect fill="rgb(128,128,128)" height="3px" width="3px" x="63px" y="6px" /><rect fill="rgb(192,192,192)" height="3px" width="3px" x="66px" y="6px" /><rect fill="rgb(255,255,255)" height="3px" width="3px" x="69px" y="6px" /><rect fill="rgb(255,255,0)" height="3px" width="3px" x="72px" y="6px" /><rect fill="rgb(255,255,255)" height="3px" width="3px" x="75px" y="6px" /><rect fill="rgb(192,192,192)" height="3px" width="3px" x="78px" y="6px" /><rect fill="rgb(128,128,128)" height="3px" width="3px" x="81px" y="6px" /><rect fill="rgb(0,0,0)" height="3px" width="3px" x="84px" y="6px" /><rect fill="rgb(128,128,128)" height="3px" width="3px" x="57px" y="9px" /><rect fill="rgb(128,128,128)" height="3px" width="3px" x="60px" y="9px" /><rect fill="rgb(192,192,192)" height="3px" width="3px" x="63px" y="9px" /><rect fill="rgb(128,128,128)" height="3px" width="3px" x="66px" y="9px" /><rect fill="rgb(255,255,0)" height="3px" width="3px" x="69px" y="9px" /><rect fill="rgb(128,128,128)" height="3px" width="3px" x="72px" y="9px" /><rect fill="rgb(255,255,0)" height="3px" width="3px" x="75px" y="9px" /><rect fill="rgb(128,128,128)" height="3px" width="3px" x="78px" y="9px" /><rect fill="rgb(192,192,192)" height="3px" width="3px" x="81px" y="9px" /><rect fill="rgb(0,0,0)" height="3px" width="3px" x="84px" y="9px" /><rect fill="rgb(0,0,0)" height="3px" width="3px" x="87px" y="9px" /><rect fill="rgb(128,128,128)" height="3px" width="3px" x="57px" y="12px" /><rect fill="rgb(192,192,192)" height="3px" width="3px" x="60px" y="12px" /><rect fill="rgb(255,255,255)" height="3px" width="3px" x="63px" y="12px" /><rect fill="rgb(255,255,0)" height="3px" width="3px" x="66px" y="12px" /><rect fill="rgb(128,128,128)" height="3px" width="3px" x="69px" y="12px" /><rect fill="rgb(255,255,255)" height="3px" width="3px" x="72px" y="12px" /><rect fill="rgb(192,192,192)" height="3px" width="3px" x="75px" y="12px" /><rect fill="rgb(192,192,192)" height="3px" width="3px" x="78px" y="12px" /><rect fill="rgb(192,192,192)" height="3px" width="3px" x="81px" y="12px" /><rect fill="rgb(128,128,128)" height="3px" width="3px" x="84px" y="12px" /><rect fill="rgb(0,0,0)" height="3px" width="3px" x="87px" y="12px" /><rect fill="rgb(128,128,128)" height="3px" width="3px" x="57px" y="15px" /><rect fill="rgb(128,128,128)" height="3px" width="3px" x="60px" y="15px" /><rect fill="rgb(255,255,255)" height="3px" width="3px" x="63px" y="15px" /><rect fill="rgb(128,128,128)" height="3px" width="3px" x="66px" y="15px" /><rect fill="rgb(255,255,0)" height="3px" width="3px" x="69px" y="15px" /><rect fill="rgb(0,0,0)" height="3px" width="3px" x="72px" y="15px" /><rect fill="rgb(192,192,192)" height="3px" width="3px" x="75px" y="15px" /><rect fill="rgb(0,0,0)" height="3px" width="3px" x="78px" y="15px" /><rect fill="rgb(128,128,128)" height="3px" width="3px" x="81px" y="15px" /><rect fill="rgb(0,0,0)" height="3px" width="3px" x="84px" y="15px" /><rect fill="rgb(0,0,0)" height="3px" width="3px" x="87px" y="15px" /><rect fill="rgb(128,128,128)" height="3px" width="3px" x="57px" y="18px" /><rect fill="rgb(192,192,192)" height="3px" width="3px" x="60px" y="18px" /><rect fill="rgb(255,255,255)" height="3px" width="3px" x="63px" y="18px" /><rect fill="rgb(255,255,0)" height="3px" width="3px" x="66px" y="18px" /><rect fill="rgb(192,192,192)" height="3px" width="3px" x="69px" y="18px" /><rect fill="rgb(192,192,192)" height="3px" width="3px" x="72px" y="18px" /><rect fill="rgb(0,0,0)" height="3px" width="3px" x="75px" y="18px" /><rect fill="rgb(192,192,192)" height="3px" width="3px" x="78px" y="18px" /><rect fill="rgb(0,0,0)" height="3px" width="3px" x="81px" y="18px" /><rect fill="rgb(128,128,128)" height="3px" width="3px" x="84px" y="18px" /><rect fill="rgb(0,0,0)" height="3px" width="3px" x="87px" y="18px" /><rect fill="rgb(0,0,0)" height="3px" width="3px" x="57px" y="21px" /><rect fill="rgb(0,0,0)" height="3px" width="3px" x="60px" y="21px" /><rect fill="rgb(192,192,192)" height="3px" width="3px" x="63px" y="21px" /><rect fill="rgb(128,128,128)" height="3px" width="3px" x="66px" y="21px" /><rect fill="rgb(192,192,192)" height="3px" width="3px" x="69px" y="21px" /><rect fill="rgb(0,0,0)" height="3px" width="3px" x="72px" y="21px" /><rect fill="rgb(192,192,192)" height="3px" width="3px" x="75px" y="21px" /><rect fill="rgb(0,0,0)" height="3px" width="3px" x="78px" y="21px" /><rect fill="rgb(128,128,128)" height="3px" width="3px" x="81px" y="21px" /><rect fill="rgb(0,0,0)" height="3px" width="3px" x="84px" y="21px" /><rect fill="rgb(0,0,0)" height="3px" width="3px" x="87px" y="21px" /><rect fill="rgb(0,128,128)" height="3px" width="3px" x="54px" y="24px" /><rect fill="rgb(0,255,255)" height="3px" width="3px" x="57px" y="24px" /><rect fill="rgb(0,0,0)" height="3px" width="3px" x="60px" y="24px" /><rect fill="rgb(192,192,192)" height="3px" width="3px" x="63px" y="24px" /><rect fill="rgb(0,0,0)" height="3px" width="3px" x="66px" y="24px" /><rect fill="rgb(192,192,192)" height="3px" width="3px" x="69px" y="24px" /><rect fill="rgb(128,128,128)" height="3px" width="3px" x="72px" y="24px" /><rect fill="rgb(0,0,0)" height="3px" width="3px" x="75px" y="24px" /><rect fill="rgb(128,128,128)" height="3px" width="3px" x="78px" y="24px" /><rect fill="rgb(0,0,0)" height="3px" width="3px" x="81px" y="24px" /><rect fill="rgb(0,0,0)" height="3px" width="3px" x="84px" y="24px" /><rect fill="rgb(0,128,128)" height="3px" width="3px" x="51px" y="27px" /><rect fill="rgb(0,255,255)" height="3px" width="3px" x="54px" y="27px" /><rect fill="rgb(255,255,255)" height="3px" width="3px" x="57px" y="27px" /><rect fill="rgb(0,128,128)" height="3px" width="3px" x="60px" y="27px" /><rect fill="rgb(0,0,0)" height="3px" width="3px" x="63px" y="27px" /><rect fill="rgb(0,0,0)" height="3px" width="3px" x="66px" y="27px" /><rect fill="rgb(128,128,128)" height="3px" width="3px" x="69px" y="27px" /><rect fill="rgb(0,0,0)" height="3px" width="3px" x="72px" y="27px" /><rect fill="rgb(128,128,128)" height="3px" width="3px" x="75px" y="27px" /><rect fill="rgb(0,0,0)" height="3px" width="3px" x="78px" y="27px" /><rect fill="rgb(0,0,0)" height="3px" width="3px" x="81px" y="27px" /><rect fill="rgb(0,0,0)" height="3px" width="3px" x="84px" y="27px" /><rect fill="rgb(0,128,128)" height="3px" width="3px" x="48px" y="30px" /><rect fill="rgb(0,255,255)" height="3px" width="3px" x="51px" y="30px" /><rect fill="rgb(255,255,255)" height="3px" width="3px" x="54px" y="30px" /><rect fill="rgb(0,128,128)" height="3px" width="3px" x="57px" y="30px" /><rect fill="rgb(0,128,128)" height="3px" width="3px" x="60px" y="30px" /><rect fill="rgb(0,128,128)" height="3px" width="3px" x="63px" y="30px" /><rect fill="rgb(0,0,0)" height="3px" width="3px" x="66px" y="30px" /><rect fill="rgb(0,0,0)" height="3px" width="3px" x="69px" y="30px" /><rect fill="rgb(0,0,0)" height="3px" width="3px" x="72px" y="30px" /><rect fill="rgb(0,0,0)" height="3px" width="3px" x="75px" y="30px" /><rect fill="rgb(0,0,0)" height="3px" width="3px" x="78px" y="30px" /><rect fill="rgb(0,128,128)" height="3px" width="3px" x="45px" y="33px" /><rect fill="rgb(0,255,255)" height="3px" width="3px" x="48px" y="33px" /><rect fill="rgb(255,255,255)" height="3px" width="3px" x="51px" y="33px" /><rect fill="rgb(0,128,128)" height="3px" width="3px" x="54px" y="33px" /><rect fill="rgb(0,128,128)" height="3px" width="3px" x="57px" y="33px" /><rect fill="rgb(0,128,128)" height="3px" width="3px" x="60px" y="33px" /><rect fill="rgb(0,0,0)" height="3px" width="3px" x="63px" y="33px" /><rect fill="rgb(0,128,128)" height="3px" width="3px" x="42px" y="36px" /><rect fill="rgb(0,255,255)" height="3px" width="3px" x="45px" y="36px" /><rect fill="rgb(255,255,255)" height="3px" width="3px" x="48px" y="36px" /><rect fill="rgb(0,128,128)" height="3px" width="3px" x="51px" y="36px" /><rect fill="rgb(0,128,128)" height="3px" width="3px" x="54px" y="36px" /><rect fill="rgb(0,128,128)" height="3px" width="3px" x="57px" y="36px" /><rect fill="rgb(0,0,0)" height="3px" width="3px" x="60px" y="36px" /><rect fill="rgb(0,128,128)" height="3px" width="3px" x="39px" y="39px" /><rect fill="rgb(0,255,255)" height="3px" width="3px" x="42px" y="39px" /><rect fill="rgb(255,255,255)" height="3px" width="3px" x="45px" y="39px" /><rect fill="rgb(0,0,0)" height="3px" width="3px" x="48px" y="39px" /><rect fill="rgb(0,0,0)" height="3px" width="3px" x="51px" y="39px" /><rect fill="rgb(0,0,0)" height="3px" width="3px" x="54px" y="39px" /><rect fill="rgb(0,0,0)" height="3px" width="3px" x="57px" y="39px" /><rect fill="rgb(0,128,128)" height="3px" width="3px" x="36px" y="42px" /><rect fill="rgb(0,255,255)" height="3px" width="3px" x="39px" y="42px" /><rect fill="rgb(255,255,255)" height="3px" width="3px" x="42px" y="42px" /><rect fill="rgb(0,0,0)" height="3px" width="3px" x="45px" y="42px" /><rect fill="rgb(0,128,128)" height="3px" width="3px" x="48px" y="42px" /><rect fill="rgb(0,128,128)" height="3px" width="3px" x="51px" y="42px" /><rect fill="rgb(0,0,0)" height="3px" width="3px" x="54px" y="42px" /><rect fill="rgb(0,128,128)" height="3px" width="3px" x="33px" y="45px" /><rect fill="rgb(0,255,255)" height="3px" width="3px" x="36px" y="45px" /><rect fill="rgb(255,255,255)" height="3px" width="3px" x="39px" y="45px" /><rect fill="rgb(0,0,0)" height="3px" width="3px" x="42px" y="45px" /><rect fill="rgb(0,128,128)" height="3px" width="3px" x="45px" y="45px" /><rect fill="rgb(0,128,128)" height="3px" width="3px" x="48px" y="45px" /><rect fill="rgb(0,128,128)" height="3px" width="3px" x="51px" y="45px" /><rect fill="rgb(0,0,0)" height="3px" width="3px" x="54px" y="45px" /><rect fill="rgb(0,128,128)" height="3px" width="3px" x="30px" y="48px" /><rect fill="rgb(0,255,255)" height="3px" width="3px" x="33px" y="48px" /><rect fill="rgb(255,255,255)" height="3px" width="3px" x="36px" y="48px" /><rect fill="rgb(0,0,0)" height="3px" width="3px" x="39px" y="48px" /><rect fill="rgb(0,128,128)" height="3px" width="3px" x="42px" y="48px" /><rect fill="rgb(0,128,128)" height="3px" width="3px" x="45px" y="48px" /><rect fill="rgb(0,255,255)" height="3px" width="3px" x="48px" y="48px" /><rect fill="rgb(0,128,128)" height="3px" width="3px" x="51px" y="48px" /><rect fill="rgb(0,0,0)" height="3px" width="3px" x="54px" y="48px" /><rect fill="rgb(0,128,128)" height="3px" width="3px" x="27px" y="51px" /><rect fill="rgb(0,255,255)" height="3px" width="3px" x="30px" y="51px" /><rect fill="rgb(255,255,255)" height="3px" width="3px" x="33px" y="51px" /><rect fill="rgb(0,128,128)" height="3px" width="3px" x="36px" y="51px" /><rect fill="rgb(0,0,0)" height="3px" width="3px" x="39px" y="51px" /><rect fill="rgb(0,128,128)" height="3px" width="3px" x="42px" y="51px" /><rect fill="rgb(0,128,128)" height="3px" width="3px" x="45px" y="51px" /><rect fill="rgb(0,128,128)" height="3px" width="3px" x="48px" y="51px" /><rect fill="rgb(0,255,255)" height="3px" width="3px" x="51px" y="51px" /><rect fill="rgb(0,255,255)" height="3px" width="3px" x="54px" y="51px" /><rect fill="rgb(0,0,0)" height="3px" width="3px" x="57px" y="51px" /><rect fill="rgb(0,128,128)" height="3px" width="3px" x="24px" y="54px" /><rect fill="rgb(0,255,255)" height="3px" width="3px" x="27px" y="54px" /><rect fill="rgb(255,255,255)" height="3px" width="3px" x="30px" y="54px" /><rect fill="rgb(0,128,128)" height="3px" width="3px" x="33px" y="54px" /><rect fill="rgb(0,128,128)" height="3px" width="3px" x="36px" y="54px" /><rect fill="rgb(0,0,0)" height="3px" width="3px" x="39px" y="54px" /><rect fill="rgb(0,0,0)" height="3px" width="3px" x="42px" y="54px" /><rect fill="rgb(0,0,0)" height="3px" width="3px" x="45px" y="54px" /><rect fill="rgb(0,0,0)" height="3px" width="3px" x="48px" y="54px" /><rect fill="rgb(0,255,255)" height="3px" width="3px" x="51px" y="54px" /><rect fill="rgb(0,255,255)" height="3px" width="3px" x="54px" y="54px" /><rect fill="rgb(0,0,0)" height="3px" width="3px" x="57px" y="54px" /><rect fill="rgb(0,0,0)" height="3px" width="3px" x="60px" y="54px" /><rect fill="rgb(128,128,128)" height="3px" width="3px" x="63px" y="54px" /><rect fill="rgb(128,128,128)" height="3px" width="3px" x="66px" y="54px" /><rect fill="rgb(128,128,128)" height="3px" width="3px" x="69px" y="54px" /><rect fill="rgb(0,128,128)" height="3px" width="3px" x="21px" y="57px" /><rect fill="rgb(0,255,255)" height="3px" width="3px" x="24px" y="57px" /><rect fill="rgb(255,255,255)" height="3px" width="3px" x="27px" y="57px" /><rect fill="rgb(0,128,128)" height="3px" width="3px" x="30px" y="57px" /><rect fill="rgb(0,128,128)" height="3px" width="3px" x="33px" y="57px" /><rect fill="rgb(0,128,128)" height="3px" width="3px" x="36px" y="57px" /><rect fill="rgb(0,0,0)" height="3px" width="3px" x="39px" y="57px" /><rect fill="rgb(0,0,0)" height="3px" width="3px" x="51px" y="57px" /><rect fill="rgb(0,0,0)" height="3px" width="3px" x="54px" y="57px" /><rect fill="rgb(0,0,0)" height="3px" width="3px" x="57px" y="57px" /><rect fill="rgb(255,255,255)" height="3px" width="3px" x="60px" y="57px" /><rect fill="rgb(255,255,255)" height="3px" width="3px" x="63px" y="57px" /><rect fill="rgb(255,255,255)" height="3px" width="3px" x="66px" y="57px" /><rect fill="rgb(255,255,255)" height="3px" width="3px" x="69px" y="57px" /><rect fill="rgb(128,128,128)" height="3px" width="3px" x="72px" y="57px" /><rect fill="rgb(0,128,128)" height="3px" width="3px" x="21px" y="60px" /><rect fill="rgb(255,255,255)" height="3px" width="3px" x="24px" y="60px" /><rect fill="rgb(0,128,128)" height="3px" width="3px" x="27px" y="60px" /><rect fill="rgb(0,128,128)" height="3px" width="3px" x="30px" y="60px" /><rect fill="rgb(0,128,128)" height="3px" width="3px" x="33px" y="60px" /><rect fill="rgb(0,0,0)" height="3px" width="3px" x="36px" y="60px" /><rect fill="rgb(0,0,0)" height="3px" width="3px" x="54px" y="60px" /><rect fill="rgb(255,255,255)" height="3px" width="3px" x="57px" y="60px" /><rect fill="rgb(192,192,192)" height="3px" width="3px" x="60px" y="60px" /><rect fill="rgb(192,192,192)" height="3px" width="3px" x="63px" y="60px" /><rect fill="rgb(192,192,192)" height="3px" width="3px" x="66px" y="60px" /><rect fill="rgb(192,192,192)" height="3px" width="3px" x="69px" y="60px" /><rect fill="rgb(128,128,128)" height="3px" width="3px" x="72px" y="60px" /><rect fill="rgb(0,0,0)" height="3px" width="3px" x="75px" y="60px" /><rect fill="rgb(128,128,128)" height="3px" width="3px" x="18px" y="63px" /><rect fill="rgb(192,192,192)" height="3px" width="3px" x="21px" y="63px" /><rect fill="rgb(0,0,0)" height="3px" width="3px" x="24px" y="63px" /><rect fill="rgb(0,128,128)" height="3px" width="3px" x="27px" y="63px" /><rect fill="rgb(0,128,128)" height="3px" width="3px" x="30px" y="63px" /><rect fill="rgb(0,0,0)" height="3px" width="3px" x="33px" y="63px" /><rect fill="rgb(128,128,128)" height="3px" width="3px" x="54px" y="63px" /><rect fill="rgb(255,255,255)" height="3px" width="3px" x="57px" y="63px" /><rect fill="rgb(192,192,192)" height="3px" width="3px" x="60px" y="63px" /><rect fill="rgb(255,255,255)" height="3px" width="3px" x="63px" y="63px" /><rect fill="rgb(255,255,255)" height="3px" width="3px" x="66px" y="63px" /><rect fill="rgb(128,128,128)" height="3px" width="3px" x="69px" y="63px" /><rect fill="rgb(128,128,128)" height="3px" width="3px" x="72px" y="63px" /><rect fill="rgb(0,0,0)" height="3px" width="3px" x="75px" y="63px" /><rect fill="rgb(128,128,128)" height="3px" width="3px" x="18px" y="66px" /><rect fill="rgb(192,192,192)" height="3px" width="3px" x="21px" y="66px" /><rect fill="rgb(128,128,128)" height="3px" width="3px" x="24px" y="66px" /><rect fill="rgb(0,0,0)" height="3px" width="3px" x="27px" y="66px" /><rect fill="rgb(0,0,0)" height="3px" width="3px" x="30px" y="66px" /><rect fill="rgb(128,128,128)" height="3px" width="3px" x="54px" y="66px" /><rect fill="rgb(255,255,255)" height="3px" width="3px" x="57px" y="66px" /><rect fill="rgb(192,192,192)" height="3px" width="3px" x="60px" y="66px" /><rect fill="rgb(255,255,255)" height="3px" width="3px" x="63px" y="66px" /><rect fill="rgb(192,192,192)" height="3px" width="3px" x="66px" y="66px" /><rect fill="rgb(0,0,0)" height="3px" width="3px" x="69px" y="66px" /><rect fill="rgb(128,128,128)" height="3px" width="3px" x="72px" y="66px" /><rect fill="rgb(0,0,0)" height="3px" width="3px" x="75px" y="66px" /><rect fill="rgb(128,128,128)" height="3px" width="3px" x="15px" y="69px" /><rect fill="rgb(192,192,192)" height="3px" width="3px" x="18px" y="69px" /><rect fill="rgb(0,0,0)" height="3px" width="3px" x="21px" y="69px" /><rect fill="rgb(0,0,0)" height="3px" width="3px" x="24px" y="69px" /><rect fill="rgb(128,128,128)" height="3px" width="3px" x="54px" y="69px" /><rect fill="rgb(255,255,255)" height="3px" width="3px" x="57px" y="69px" /><rect fill="rgb(192,192,192)" height="3px" width="3px" x="60px" y="69px" /><rect fill="rgb(128,128,128)" height="3px" width="3px" x="63px" y="69px" /><rect fill="rgb(0,0,0)" height="3px" width="3px" x="66px" y="69px" /><rect fill="rgb(0,0,0)" height="3px" width="3px" x="69px" y="69px" /><rect fill="rgb(128,128,128)" height="3px" width="3px" x="72px" y="69px" /><rect fill="rgb(0,0,0)" height="3px" width="3px" x="75px" y="69px" /><rect fill="rgb(128,128,128)" height="3px" width="3px" x="12px" y="72px" /><rect fill="rgb(192,192,192)" height="3px" width="3px" x="15px" y="72px" /><rect fill="rgb(0,0,0)" height="3px" width="3px" x="18px" y="72px" /><rect fill="rgb(128,128,128)" height="3px" width="3px" x="57px" y="72px" /><rect fill="rgb(128,128,128)" height="3px" width="3px" x="60px" y="72px" /><rect fill="rgb(128,128,128)" height="3px" width="3px" x="63px" y="72px" /><rect fill="rgb(128,128,128)" height="3px" width="3px" x="66px" y="72px" /><rect fill="rgb(128,128,128)" height="3px" width="3px" x="69px" y="72px" /><rect fill="rgb(0,0,0)" height="3px" width="3px" x="72px" y="72px" /><rect fill="rgb(0,0,0)" height="3px" width="3px" x="12px" y="75px" /><rect fill="rgb(0,0,0)" height="3px" width="3px" x="15px" y="75px" /><rect fill="rgb(0,0,0)" height="3px" width="3px" x="60px" y="75px" /><rect fill="rgb(0,0,0)" height="3px" width="3px" x="63px" y="75px" /><rect fill="rgb(0,0,0)" height="3px" width="3px" x="66px" y="75px" /><rect fill="rgb(0,0,0)" height="3px" width="3px" x="69px" y="75px" /><rect fill="rgb(0,0,0)" height="3px" width="3px" x="9px" y="78px" /><rect fill="rgb(128,128,128)" height="3px" width="3px" x="60px" y="78px" /><rect fill="rgb(255,255,255)" height="3px" width="3px" x="63px" y="78px" /><rect fill="rgb(128,128,128)" height="3px" width="3px" x="66px" y="78px" /><rect fill="rgb(0,0,0)" height="3px" width="3px" x="69px" y="78px" /><rect fill="rgb(0,0,0)" height="3px" width="3px" x="6px" y="81px" /><rect fill="rgb(128,128,128)" height="3px" width="3px" x="60px" y="81px" /><rect fill="rgb(255,255,255)" height="3px" width="3px" x="63px" y="81px" /><rect fill="rgb(128,128,128)" height="3px" width="3px" x="66px" y="81px" /><rect fill="rgb(0,0,0)" height="3px" width="3px" x="69px" y="81px" /><rect fill="rgb(0,0,0)" height="3px" width="3px" x="6px" y="84px" /><rect fill="rgb(128,128,128)" height="3px" width="3px" x="57px" y="84px" /><rect fill="rgb(128,128,128)" height="3px" width="3px" x="60px" y="84px" /><rect fill="rgb(128,128,128)" height="3px" width="3px" x="63px" y="84px" /><rect fill="rgb(128,128,128)" height="3px" width="3px" x="66px" y="84px" /><rect fill="rgb(0,0,0)" height="3px" width="3px" x="69px" y="84px" /><rect fill="rgb(0,0,0)" height="3px" width="3px" x="72px" y="84px" /><rect fill="rgb(0,0,0)" height="3px" width="3px" x="3px" y="87px" /><rect fill="rgb(128,128,128)" height="3px" width="3px" x="57px" y="87px" /><rect fill="rgb(255,255,255)" height="3px" width="3px" x="60px" y="87px" /><rect fill="rgb(255,255,255)" height="3px" width="3px" x="63px" y="87px" /><rect fill="rgb(128,128,128)" height="3px" width="3px" x="66px" y="87px" /><rect fill="rgb(128,128,128)" height="3px" width="3px" x="69px" y="87px" /><rect fill="rgb(0,0,0)" height="3px" width="3px" x="72px" y="87px" /><rect fill="rgb(0,0,0)" height="3px" width="3px" x="3px" y="90px" /><rect fill="rgb(128,128,128)" height="3px" width="3px" x="57px" y="90px" /><rect fill="rgb(255,255,255)" height="3px" width="3px" x="60px" y="90px" /><rect fill="rgb(255,255,255)" height="3px" width="3px" x="63px" y="90px" /><rect fill="rgb(128,128,128)" height="3px" width="3px" x="66px" y="90px" /><rect fill="rgb(128,128,128)" height="3px" width="3px" x="69px" y="90px" /><rect fill="rgb(0,0,0)" height="3px" width="3px" x="72px" y="90px" /><rect fill="rgb(0,0,0)" height="3px" width="3px" x="3px" y="93px" /><rect fill="rgb(128,128,128)" height="3px" width="3px" x="57px" y="93px" /><rect fill="rgb(255,255,255)" height="3px" width="3px" x="60px" y="93px" /><rect fill="rgb(255,255,255)" height="3px" width="3px" x="63px" y="93px" /><rect fill="rgb(128,128,128)" height="3px" width="3px" x="66px" y="93px" /><rect fill="rgb(128,128,128)" height="3px" width="3px" x="69px" y="93px" /><rect fill="rgb(0,0,0)" height="3px" width="3px" x="72px" y="93px" /></svg>