<?xml version="1.0" encoding="UTF-8" standalone="no"?>
<svg
   xmlns:dc="http://purl.org/dc/elements/1.1/"
   xmlns:cc="http://creativecommons.org/ns#"
   xmlns:rdf="http://www.w3.org/1999/02/22-rdf-syntax-ns#"
   xmlns:svg="http://www.w3.org/2000/svg"
   xmlns="http://www.w3.org/2000/svg"
   height="144px"
   version="1.1"
   width="144px"
   id="svg3494">
  <metadata
     id="metadata3498">
    <rdf:RDF>
      <cc:Work
         rdf:about="">
        <dc:format>image/svg+xml</dc:format>
        <dc:type
           rdf:resource="http://purl.org/dc/dcmitype/StillImage" />
      </cc:Work>
    </rdf:RDF>
  </metadata>
  <defs
     id="defs2" />
  <path
     id="rect1078"
     d="M 33 45 L 33 48 L 33 51 L 33 54 L 36 54 L 36 51 L 36 48 L 36 45 L 33 45 z "
     style="fill:#00ffff" />
  <path
     id="rect1512"
     d="M 93 12 L 93 15 L 96 15 L 96 12 L 93 12 z M 93 15 L 90 15 L 90 18 L 93 18 L 93 15 z M 93 18 L 93 21 L 96 21 L 96 18 L 93 18 z M 93 21 L 90 21 L 90 24 L 93 24 L 93 21 z M 90 24 L 87 24 L 87 27 L 90 27 L 90 24 z M 90 27 L 90 30 L 93 30 L 93 27 L 90 27 z M 90 30 L 87 30 L 87 33 L 90 33 L 90 30 z M 87 33 L 84 33 L 84 36 L 87 36 L 87 33 z M 84 33 L 84 30 L 81 30 L 81 33 L 84 33 z M 81 33 L 78 33 L 78 36 L 81 36 L 81 33 z M 81 30 L 81 27 L 78 27 L 78 30 L 81 30 z M 81 27 L 84 27 L 84 24 L 81 24 L 81 27 z M 84 24 L 87 24 L 87 21 L 84 21 L 84 24 z M 87 21 L 90 21 L 90 18 L 87 18 L 87 21 z M 84 27 L 84 30 L 87 30 L 87 27 L 84 27 z M 60 39 L 60 42 L 63 42 L 63 39 L 60 39 z M 63 42 L 63 45 L 66 45 L 66 48 L 63 48 L 63 51 L 66 51 L 66 54 L 69 54 L 69 51 L 69 48 L 69 45 L 69 42 L 69 39 L 66 39 L 66 42 L 63 42 z M 66 54 L 63 54 L 63 57 L 66 57 L 66 54 z M 66 57 L 66 60 L 69 60 L 69 57 L 66 57 z M 63 57 L 60 57 L 60 60 L 63 60 L 63 57 z M 63 54 L 63 51 L 60 51 L 60 54 L 63 54 z M 63 48 L 63 45 L 60 45 L 60 48 L 63 48 z M 75 45 L 75 48 L 78 48 L 78 45 L 75 45 z M 78 48 L 78 51 L 81 51 L 81 48 L 78 48 z M 81 48 L 84 48 L 84 45 L 81 45 L 81 48 z M 84 48 L 84 51 L 87 51 L 87 48 L 84 48 z M 87 48 L 90 48 L 90 45 L 87 45 L 87 48 z M 90 48 L 90 51 L 93 51 L 93 48 L 90 48 z M 90 51 L 87 51 L 87 54 L 90 54 L 90 51 z M 90 54 L 90 57 L 93 57 L 93 54 L 90 54 z M 90 57 L 87 57 L 87 60 L 90 60 L 90 57 z M 90 60 L 90 63 L 93 63 L 93 60 L 90 60 z M 90 63 L 87 63 L 87 66 L 90 66 L 90 63 z M 90 66 L 90 69 L 93 69 L 93 66 L 90 66 z M 87 66 L 84 66 L 84 69 L 87 69 L 87 66 z M 84 66 L 84 63 L 81 63 L 81 66 L 84 66 z M 81 63 L 81 60 L 78 60 L 78 63 L 81 63 z M 78 60 L 78 57 L 75 57 L 75 60 L 78 60 z M 78 57 L 81 57 L 81 54 L 78 54 L 78 57 z M 78 54 L 78 51 L 75 51 L 75 54 L 78 54 z M 81 54 L 84 54 L 84 51 L 81 51 L 81 54 z M 84 54 L 84 57 L 87 57 L 87 54 L 84 54 z M 84 57 L 81 57 L 81 60 L 84 60 L 84 57 z M 84 60 L 84 63 L 87 63 L 87 60 L 84 60 z "
     style="fill:#ffff00" />
  <path
     id="rect1968"
     d="M 27 39 L 27 42 L 27 45 L 27 48 L 27 51 L 27 54 L 27 57 L 27 60 L 27 63 L 27 66 L 27 69 L 27 72 L 27 75 L 27 78 L 27 81 L 27 84 L 27 87 L 30 87 L 33 87 L 36 87 L 39 87 L 42 87 L 45 87 L 48 87 L 51 87 L 54 87 L 57 87 L 60 87 L 63 87 L 66 87 L 69 87 L 72 87 L 75 87 L 78 87 L 81 87 L 84 87 L 87 87 L 90 87 L 90 84 L 87 84 L 87 81 L 84 81 L 84 78 L 81 78 L 81 75 L 78 75 L 78 72 L 75 72 L 75 69 L 72 69 L 72 66 L 69 66 L 66 66 L 63 66 L 60 66 L 60 63 L 57 63 L 57 60 L 54 60 L 54 57 L 54 54 L 54 51 L 54 48 L 54 45 L 54 42 L 54 39 L 51 39 L 48 39 L 45 39 L 42 39 L 39 39 L 36 39 L 33 39 L 30 39 L 27 39 z M 33 45 L 36 45 L 36 48 L 36 51 L 36 54 L 33 54 L 33 51 L 33 48 L 33 45 z "
     style="fill:#0000ff" />
  <path
     id="rect2044"
     d="M 24 87 L 24 90 L 27 90 L 30 90 L 33 90 L 36 90 L 39 90 L 42 90 L 45 90 L 48 90 L 51 90 L 54 90 L 57 90 L 60 90 L 63 90 L 66 90 L 69 90 L 72 90 L 75 90 L 78 90 L 81 90 L 84 90 L 87 90 L 90 90 L 93 90 L 93 87 L 90 87 L 87 87 L 84 87 L 81 87 L 78 87 L 75 87 L 72 87 L 69 87 L 66 87 L 63 87 L 60 87 L 57 87 L 54 87 L 51 87 L 48 87 L 45 87 L 42 87 L 39 87 L 36 87 L 33 87 L 30 87 L 27 87 L 24 87 z "
     style="fill:#000080" />
  <path
     id="rect2124"
     d="M 99 0 L 99 3 L 102 3 L 105 3 L 105 0 L 102 0 L 99 0 z M 99 3 L 96 3 L 96 6 L 99 6 L 99 3 z M 96 6 L 93 6 L 93 9 L 96 9 L 96 6 z M 93 9 L 90 9 L 90 12 L 93 12 L 93 9 z M 90 12 L 87 12 L 87 15 L 90 15 L 90 12 z M 87 15 L 84 15 L 84 18 L 87 18 L 87 15 z M 84 18 L 81 18 L 81 21 L 84 21 L 84 18 z M 81 21 L 78 21 L 78 24 L 81 24 L 81 21 z M 78 24 L 75 24 L 75 27 L 78 27 L 78 24 z M 75 27 L 72 27 L 72 30 L 75 30 L 75 27 z M 72 30 L 69 30 L 69 33 L 66 33 L 63 33 L 60 33 L 57 33 L 57 36 L 60 36 L 63 36 L 66 36 L 69 36 L 69 39 L 69 42 L 69 45 L 69 48 L 69 51 L 69 54 L 69 57 L 69 60 L 66 60 L 63 60 L 60 60 L 57 60 L 57 63 L 60 63 L 63 63 L 66 63 L 69 63 L 72 63 L 72 60 L 72 57 L 72 54 L 72 51 L 72 48 L 72 45 L 72 42 L 72 39 L 72 36 L 72 33 L 72 30 z M 57 60 L 57 57 L 57 54 L 57 51 L 57 48 L 57 45 L 57 42 L 57 39 L 57 36 L 54 36 L 54 39 L 54 42 L 54 45 L 54 48 L 54 51 L 54 54 L 54 57 L 54 60 L 57 60 z M 75 66 L 75 69 L 78 69 L 78 66 L 75 66 z M 78 69 L 78 72 L 81 72 L 81 75 L 84 75 L 84 78 L 87 78 L 87 81 L 90 81 L 90 84 L 93 84 L 93 87 L 96 87 L 96 90 L 99 90 L 99 93 L 102 93 L 102 90 L 102 87 L 99 87 L 99 84 L 99 81 L 99 78 L 96 78 L 93 78 L 90 78 L 90 75 L 87 75 L 87 72 L 84 72 L 84 69 L 81 69 L 78 69 z M 87 72 L 90 72 L 90 69 L 87 69 L 87 72 z M 90 72 L 90 75 L 93 75 L 93 72 L 90 72 z "
     style="fill:#808000" />
  <path
     id="rect3036"
     d="M 15 126 L 15 129 L 18 129 L 21 129 L 24 129 L 24 126 L 21 126 L 18 126 L 15 126 z "
     style="fill:#00ff00" />
  <path
     id="rect3120"
     d="M 15 129 L 15 132 L 18 132 L 21 132 L 24 132 L 24 129 L 21 129 L 18 129 L 15 129 z "
     style="fill:#008000" />
  <path
     id="rect3270"
     d="M 111 12 L 111 15 L 108 15 L 108 18 L 108 21 L 108 24 L 108 27 L 108 30 L 108 33 L 108 36 L 111 36 L 111 39 L 111 42 L 111 45 L 111 48 L 111 51 L 111 54 L 111 57 L 111 60 L 111 63 L 108 63 L 108 66 L 108 69 L 108 72 L 108 75 L 108 78 L 108 81 L 108 84 L 108 87 L 111 87 L 111 84 L 114 84 L 114 81 L 117 81 L 117 78 L 117 75 L 117 72 L 117 69 L 120 69 L 120 66 L 120 63 L 120 60 L 120 57 L 120 54 L 120 51 L 120 48 L 120 45 L 120 42 L 120 39 L 120 36 L 120 33 L 120 30 L 120 27 L 117 27 L 117 24 L 117 21 L 117 18 L 117 15 L 114 15 L 114 12 L 111 12 z M 93 15 L 93 18 L 96 18 L 96 15 L 93 15 z M 93 18 L 90 18 L 90 21 L 93 21 L 93 18 z M 93 21 L 93 24 L 96 24 L 96 21 L 93 21 z M 93 24 L 90 24 L 90 27 L 93 27 L 93 24 z M 90 27 L 87 27 L 87 30 L 90 30 L 90 27 z M 90 30 L 90 33 L 87 33 L 87 36 L 84 36 L 84 33 L 81 33 L 81 36 L 78 36 L 78 33 L 75 33 L 75 36 L 75 39 L 75 42 L 75 45 L 78 45 L 78 48 L 81 48 L 81 45 L 84 45 L 84 48 L 87 48 L 87 45 L 90 45 L 90 48 L 93 48 L 93 45 L 93 42 L 93 39 L 93 36 L 93 33 L 93 30 L 90 30 z M 90 48 L 87 48 L 87 51 L 90 51 L 90 48 z M 84 48 L 81 48 L 81 51 L 84 51 L 84 48 z M 78 48 L 75 48 L 75 51 L 78 51 L 78 48 z M 78 33 L 81 33 L 81 30 L 78 30 L 78 33 z M 81 30 L 84 30 L 84 27 L 81 27 L 81 30 z M 84 27 L 87 27 L 87 24 L 84 24 L 84 27 z M 87 24 L 90 24 L 90 21 L 87 21 L 87 24 z M 84 30 L 84 33 L 87 33 L 87 30 L 84 30 z M 18 24 L 18 27 L 21 27 L 24 27 L 27 27 L 30 27 L 33 27 L 36 27 L 39 27 L 42 27 L 45 27 L 48 27 L 51 27 L 54 27 L 57 27 L 60 27 L 63 27 L 66 27 L 69 27 L 72 27 L 75 27 L 75 24 L 72 24 L 69 24 L 66 24 L 63 24 L 60 24 L 57 24 L 54 24 L 51 24 L 48 24 L 45 24 L 42 24 L 39 24 L 36 24 L 33 24 L 30 24 L 27 24 L 24 24 L 21 24 L 18 24 z M 18 27 L 15 27 L 15 30 L 15 33 L 15 36 L 15 39 L 15 42 L 15 45 L 15 48 L 15 51 L 15 54 L 15 57 L 15 60 L 15 63 L 15 66 L 15 69 L 15 72 L 15 75 L 15 78 L 15 81 L 15 84 L 15 87 L 15 90 L 15 93 L 15 96 L 15 99 L 18 99 L 18 96 L 18 93 L 18 90 L 18 87 L 18 84 L 18 81 L 18 78 L 18 75 L 18 72 L 18 69 L 18 66 L 18 63 L 18 60 L 18 57 L 18 54 L 18 51 L 18 48 L 18 45 L 18 42 L 18 39 L 18 36 L 18 33 L 18 30 L 18 27 z M 57 39 L 57 42 L 57 45 L 57 48 L 57 51 L 57 54 L 57 57 L 60 57 L 60 54 L 60 51 L 63 51 L 63 48 L 60 48 L 60 45 L 63 45 L 63 42 L 60 42 L 60 39 L 57 39 z M 63 42 L 66 42 L 66 39 L 63 39 L 63 42 z M 63 45 L 63 48 L 66 48 L 66 45 L 63 45 z M 99 39 L 99 42 L 99 45 L 102 45 L 105 45 L 105 42 L 105 39 L 102 39 L 99 39 z M 24 90 L 24 93 L 27 93 L 30 93 L 33 93 L 36 93 L 39 93 L 42 93 L 45 93 L 48 93 L 51 93 L 54 93 L 57 93 L 60 93 L 63 93 L 66 93 L 69 93 L 72 93 L 75 93 L 78 93 L 81 93 L 84 93 L 87 93 L 90 93 L 93 93 L 96 93 L 96 90 L 93 90 L 90 90 L 87 90 L 84 90 L 81 90 L 78 90 L 75 90 L 72 90 L 69 90 L 66 90 L 63 90 L 60 90 L 57 90 L 54 90 L 51 90 L 48 90 L 45 90 L 42 90 L 39 90 L 36 90 L 33 90 L 30 90 L 27 90 L 24 90 z M 3 111 L 3 114 L 3 117 L 3 120 L 3 123 L 3 126 L 3 129 L 3 132 L 3 135 L 3 138 L 6 138 L 6 135 L 6 132 L 6 129 L 6 126 L 6 123 L 6 120 L 6 117 L 6 114 L 9 114 L 12 114 L 15 114 L 18 114 L 21 114 L 24 114 L 27 114 L 30 114 L 33 114 L 36 114 L 39 114 L 42 114 L 45 114 L 48 114 L 51 114 L 54 114 L 57 114 L 60 114 L 63 114 L 66 114 L 69 114 L 72 114 L 75 114 L 78 114 L 81 114 L 84 114 L 87 114 L 90 114 L 93 114 L 96 114 L 99 114 L 102 114 L 105 114 L 108 114 L 108 111 L 105 111 L 102 111 L 99 111 L 96 111 L 93 111 L 90 111 L 87 111 L 84 111 L 81 111 L 78 111 L 75 111 L 72 111 L 69 111 L 66 111 L 63 111 L 60 111 L 57 111 L 54 111 L 51 111 L 48 111 L 45 111 L 42 111 L 39 111 L 36 111 L 33 111 L 30 111 L 27 111 L 24 111 L 21 111 L 18 111 L 15 111 L 12 111 L 9 111 L 6 111 L 3 111 z "
     style="fill:#ffffff" />
  <path
     id="rect3338"
     d="M 99 3 L 99 6 L 96 6 L 96 9 L 93 9 L 93 12 L 96 12 L 96 15 L 99 15 L 99 12 L 99 9 L 102 9 L 102 6 L 105 6 L 105 3 L 102 3 L 99 3 z M 93 12 L 90 12 L 90 15 L 93 15 L 93 12 z M 90 15 L 87 15 L 87 18 L 90 18 L 90 15 z M 87 18 L 84 18 L 84 21 L 87 21 L 87 18 z M 84 21 L 81 21 L 81 24 L 84 24 L 84 21 z M 81 24 L 78 24 L 78 27 L 81 27 L 81 24 z M 78 27 L 75 27 L 75 30 L 72 30 L 72 33 L 72 36 L 72 39 L 72 42 L 72 45 L 72 48 L 72 51 L 72 54 L 72 57 L 72 60 L 72 63 L 75 63 L 75 66 L 78 66 L 78 69 L 81 69 L 84 69 L 84 66 L 81 66 L 81 63 L 78 63 L 78 60 L 75 60 L 75 57 L 78 57 L 78 54 L 75 54 L 75 51 L 75 48 L 75 45 L 75 42 L 75 39 L 75 36 L 75 33 L 78 33 L 78 30 L 78 27 z M 78 54 L 81 54 L 81 51 L 78 51 L 78 54 z M 81 54 L 81 57 L 84 57 L 84 54 L 81 54 z M 84 54 L 87 54 L 87 51 L 84 51 L 84 54 z M 87 54 L 87 57 L 90 57 L 90 54 L 87 54 z M 90 54 L 93 54 L 93 51 L 90 51 L 90 54 z M 90 57 L 90 60 L 93 60 L 93 57 L 90 57 z M 90 60 L 87 60 L 87 63 L 90 63 L 90 60 z M 90 63 L 90 66 L 93 66 L 93 63 L 90 63 z M 90 66 L 87 66 L 87 69 L 90 69 L 90 66 z M 90 69 L 90 72 L 93 72 L 93 69 L 90 69 z M 90 72 L 87 72 L 87 75 L 90 75 L 90 72 z M 90 75 L 90 78 L 93 78 L 93 75 L 90 75 z M 87 72 L 87 69 L 84 69 L 84 72 L 87 72 z M 87 66 L 87 63 L 84 63 L 84 66 L 87 66 z M 84 63 L 84 60 L 81 60 L 81 63 L 84 63 z M 81 60 L 81 57 L 78 57 L 78 60 L 81 60 z M 84 60 L 87 60 L 87 57 L 84 57 L 84 60 z M 72 30 L 72 27 L 69 27 L 66 27 L 63 27 L 60 27 L 57 27 L 54 27 L 51 27 L 48 27 L 45 27 L 42 27 L 39 27 L 36 27 L 33 27 L 30 27 L 27 27 L 24 27 L 21 27 L 18 27 L 18 30 L 18 33 L 18 36 L 18 39 L 18 42 L 18 45 L 18 48 L 18 51 L 18 54 L 18 57 L 18 60 L 18 63 L 18 66 L 18 69 L 18 72 L 18 75 L 18 78 L 18 81 L 18 84 L 18 87 L 18 90 L 18 93 L 18 96 L 18 99 L 21 99 L 24 99 L 27 99 L 30 99 L 33 99 L 36 99 L 39 99 L 42 99 L 45 99 L 48 99 L 51 99 L 54 99 L 57 99 L 60 99 L 63 99 L 66 99 L 69 99 L 72 99 L 75 99 L 78 99 L 81 99 L 84 99 L 87 99 L 90 99 L 93 99 L 96 99 L 99 99 L 102 99 L 105 99 L 108 99 L 108 96 L 105 96 L 102 96 L 99 96 L 99 93 L 96 93 L 93 93 L 90 93 L 87 93 L 84 93 L 81 93 L 78 93 L 75 93 L 72 93 L 69 93 L 66 93 L 63 93 L 60 93 L 57 93 L 54 93 L 51 93 L 48 93 L 45 93 L 42 93 L 39 93 L 36 93 L 33 93 L 30 93 L 27 93 L 24 93 L 24 90 L 24 87 L 24 84 L 24 81 L 24 78 L 24 75 L 24 72 L 24 69 L 24 66 L 24 63 L 24 60 L 24 57 L 24 54 L 24 51 L 24 48 L 24 45 L 24 42 L 24 39 L 24 36 L 24 33 L 27 33 L 30 33 L 33 33 L 36 33 L 39 33 L 42 33 L 45 33 L 48 33 L 51 33 L 54 33 L 57 33 L 60 33 L 63 33 L 66 33 L 69 33 L 69 30 L 72 30 z M 78 24 L 78 21 L 81 21 L 81 18 L 84 18 L 84 15 L 81 15 L 78 15 L 75 15 L 72 15 L 69 15 L 66 15 L 63 15 L 60 15 L 57 15 L 54 15 L 51 15 L 48 15 L 45 15 L 42 15 L 39 15 L 36 15 L 33 15 L 30 15 L 27 15 L 27 18 L 24 18 L 24 21 L 21 21 L 21 24 L 24 24 L 27 24 L 30 24 L 33 24 L 36 24 L 39 24 L 42 24 L 45 24 L 48 24 L 51 24 L 54 24 L 57 24 L 60 24 L 63 24 L 66 24 L 69 24 L 72 24 L 75 24 L 78 24 z M 138 3 L 138 6 L 141 6 L 141 3 L 138 3 z M 138 6 L 135 6 L 135 9 L 138 9 L 138 6 z M 135 9 L 132 9 L 132 12 L 135 12 L 135 9 z M 132 12 L 129 12 L 129 15 L 132 15 L 132 12 z M 129 15 L 126 15 L 126 18 L 129 18 L 129 15 z M 108 6 L 108 9 L 105 9 L 105 12 L 105 15 L 102 15 L 102 18 L 102 21 L 102 24 L 102 27 L 102 30 L 102 33 L 105 33 L 105 36 L 108 36 L 108 33 L 108 30 L 108 27 L 108 24 L 108 21 L 108 18 L 108 15 L 111 15 L 111 12 L 114 12 L 114 9 L 114 6 L 111 6 L 108 6 z M 114 12 L 114 15 L 117 15 L 117 12 L 114 12 z M 117 15 L 117 18 L 117 21 L 117 24 L 117 27 L 120 27 L 120 24 L 120 21 L 120 18 L 120 15 L 117 15 z M 120 27 L 120 30 L 120 33 L 120 36 L 120 39 L 120 42 L 120 45 L 120 48 L 120 51 L 120 54 L 120 57 L 120 60 L 120 63 L 120 66 L 120 69 L 123 69 L 123 66 L 123 63 L 123 60 L 123 57 L 123 54 L 123 51 L 123 48 L 123 45 L 123 42 L 123 39 L 123 36 L 123 33 L 123 30 L 123 27 L 120 27 z M 120 69 L 117 69 L 117 72 L 117 75 L 117 78 L 117 81 L 120 81 L 120 78 L 120 75 L 120 72 L 120 69 z M 117 81 L 114 81 L 114 84 L 117 84 L 117 81 z M 114 84 L 111 84 L 111 87 L 108 87 L 108 84 L 108 81 L 108 78 L 108 75 L 108 72 L 108 69 L 108 66 L 108 63 L 111 63 L 111 60 L 111 57 L 111 54 L 108 54 L 108 57 L 108 60 L 105 60 L 105 63 L 102 63 L 102 66 L 102 69 L 102 72 L 102 75 L 102 78 L 102 81 L 102 84 L 105 84 L 105 87 L 105 90 L 108 90 L 108 93 L 111 93 L 111 90 L 114 90 L 114 87 L 114 84 z M 108 36 L 108 39 L 108 42 L 111 42 L 111 39 L 111 36 L 108 36 z M 93 24 L 93 27 L 96 27 L 96 24 L 93 24 z M 138 24 L 138 27 L 141 27 L 144 27 L 144 24 L 141 24 L 138 24 z M 138 27 L 135 27 L 132 27 L 132 30 L 135 30 L 138 30 L 138 27 z M 132 30 L 129 30 L 129 33 L 132 33 L 132 30 z M 57 36 L 57 39 L 60 39 L 63 39 L 66 39 L 69 39 L 69 36 L 66 36 L 63 36 L 60 36 L 57 36 z M 99 45 L 99 48 L 99 51 L 99 54 L 102 54 L 105 54 L 105 51 L 105 48 L 105 45 L 102 45 L 99 45 z M 129 45 L 129 48 L 132 48 L 135 48 L 138 48 L 141 48 L 144 48 L 144 45 L 141 45 L 138 45 L 135 45 L 132 45 L 129 45 z M 63 51 L 63 54 L 66 54 L 66 51 L 63 51 z M 66 54 L 66 57 L 69 57 L 69 54 L 66 54 z M 66 57 L 63 57 L 63 60 L 66 60 L 66 57 z M 63 57 L 63 54 L 60 54 L 60 57 L 63 57 z M 60 57 L 57 57 L 57 60 L 60 60 L 60 57 z M 129 60 L 129 63 L 132 63 L 132 60 L 129 60 z M 132 63 L 132 66 L 135 66 L 138 66 L 138 63 L 135 63 L 132 63 z M 138 66 L 138 69 L 141 69 L 144 69 L 144 66 L 141 66 L 138 66 z M 126 78 L 126 81 L 129 81 L 129 78 L 126 78 z M 129 81 L 129 84 L 132 84 L 132 81 L 129 81 z M 132 84 L 132 87 L 135 87 L 135 84 L 132 84 z M 135 87 L 135 90 L 138 90 L 138 87 L 135 87 z M 138 90 L 138 93 L 141 93 L 141 90 L 138 90 z M 120 96 L 120 99 L 123 99 L 123 96 L 120 96 z M 120 99 L 117 99 L 117 102 L 120 102 L 120 99 z M 117 102 L 114 102 L 114 105 L 117 105 L 117 102 z M 114 105 L 111 105 L 111 108 L 114 108 L 114 105 z M 111 108 L 108 108 L 108 111 L 111 111 L 111 108 z M 6 114 L 6 117 L 6 120 L 6 123 L 6 126 L 6 129 L 6 132 L 6 135 L 6 138 L 9 138 L 12 138 L 15 138 L 18 138 L 21 138 L 24 138 L 27 138 L 30 138 L 33 138 L 36 138 L 39 138 L 42 138 L 45 138 L 48 138 L 51 138 L 54 138 L 57 138 L 60 138 L 63 138 L 66 138 L 69 138 L 72 138 L 75 138 L 78 138 L 81 138 L 84 138 L 87 138 L 90 138 L 93 138 L 96 138 L 99 138 L 102 138 L 105 138 L 108 138 L 108 135 L 108 132 L 108 129 L 108 126 L 108 123 L 108 120 L 108 117 L 108 114 L 105 114 L 102 114 L 99 114 L 96 114 L 93 114 L 90 114 L 87 114 L 84 114 L 81 114 L 78 114 L 75 114 L 72 114 L 69 114 L 66 114 L 63 114 L 60 114 L 57 114 L 54 114 L 51 114 L 48 114 L 45 114 L 42 114 L 39 114 L 36 114 L 33 114 L 30 114 L 27 114 L 24 114 L 21 114 L 18 114 L 15 114 L 12 114 L 9 114 L 6 114 z M 66 123 L 69 123 L 72 123 L 75 123 L 78 123 L 81 123 L 84 123 L 87 123 L 90 123 L 93 123 L 96 123 L 99 123 L 99 126 L 99 129 L 96 129 L 93 129 L 90 129 L 87 129 L 84 129 L 81 129 L 78 129 L 75 129 L 72 129 L 69 129 L 66 129 L 66 126 L 66 123 z M 15 126 L 18 126 L 21 126 L 24 126 L 24 129 L 24 132 L 21 132 L 18 132 L 15 132 L 15 129 L 15 126 z "
     style="fill:#c0c0c0" />
  <path
     id="rect3418"
     d="M 138 0 L 138 3 L 141 3 L 141 0 L 138 0 z M 138 3 L 135 3 L 135 6 L 138 6 L 138 3 z M 135 6 L 132 6 L 132 9 L 135 9 L 135 6 z M 132 9 L 129 9 L 129 12 L 132 12 L 132 9 z M 129 12 L 126 12 L 126 15 L 129 15 L 129 12 z M 105 3 L 105 6 L 108 6 L 108 3 L 105 3 z M 105 6 L 102 6 L 102 9 L 105 9 L 105 6 z M 102 9 L 99 9 L 99 12 L 99 15 L 102 15 L 102 12 L 102 9 z M 99 15 L 96 15 L 96 18 L 96 21 L 96 24 L 96 27 L 99 27 L 99 24 L 99 21 L 99 18 L 99 15 z M 99 27 L 99 30 L 99 33 L 99 36 L 102 36 L 102 39 L 105 39 L 105 42 L 105 45 L 105 48 L 105 51 L 105 54 L 108 54 L 108 51 L 108 48 L 108 45 L 108 42 L 108 39 L 108 36 L 105 36 L 105 33 L 102 33 L 102 30 L 102 27 L 99 27 z M 105 54 L 102 54 L 99 54 L 99 57 L 102 57 L 105 57 L 105 54 z M 96 27 L 93 27 L 93 30 L 93 33 L 93 36 L 93 39 L 93 42 L 93 45 L 93 48 L 93 51 L 93 54 L 93 57 L 93 60 L 93 63 L 93 66 L 93 69 L 93 72 L 93 75 L 93 78 L 96 78 L 99 78 L 99 75 L 96 75 L 96 72 L 96 69 L 96 66 L 96 63 L 96 60 L 96 57 L 96 54 L 96 51 L 96 48 L 96 45 L 96 42 L 96 39 L 96 36 L 96 33 L 96 30 L 96 27 z M 99 75 L 102 75 L 102 72 L 102 69 L 102 66 L 102 63 L 105 63 L 105 60 L 102 60 L 99 60 L 99 63 L 99 66 L 99 69 L 99 72 L 99 75 z M 111 3 L 111 6 L 114 6 L 114 3 L 111 3 z M 114 6 L 114 9 L 114 12 L 117 12 L 117 9 L 117 6 L 114 6 z M 117 12 L 117 15 L 120 15 L 120 12 L 117 12 z M 120 15 L 120 18 L 120 21 L 120 24 L 120 27 L 123 27 L 123 24 L 123 21 L 123 18 L 123 15 L 120 15 z M 123 27 L 123 30 L 123 33 L 123 36 L 123 39 L 123 42 L 123 45 L 123 48 L 123 51 L 123 54 L 123 57 L 123 60 L 123 63 L 123 66 L 123 69 L 126 69 L 126 66 L 126 63 L 126 60 L 126 57 L 126 54 L 126 51 L 126 48 L 126 45 L 126 42 L 126 39 L 126 36 L 126 33 L 126 30 L 126 27 L 123 27 z M 123 69 L 120 69 L 120 72 L 120 75 L 120 78 L 120 81 L 123 81 L 123 78 L 123 75 L 123 72 L 123 69 z M 120 81 L 117 81 L 117 84 L 120 84 L 120 81 z M 117 84 L 114 84 L 114 87 L 114 90 L 117 90 L 117 87 L 117 84 z M 114 90 L 111 90 L 111 93 L 114 93 L 114 90 z M 114 93 L 114 96 L 111 96 L 111 99 L 108 99 L 108 102 L 105 102 L 105 105 L 102 105 L 99 105 L 96 105 L 93 105 L 90 105 L 87 105 L 84 105 L 81 105 L 78 105 L 75 105 L 72 105 L 69 105 L 66 105 L 63 105 L 60 105 L 57 105 L 54 105 L 51 105 L 48 105 L 45 105 L 42 105 L 39 105 L 36 105 L 33 105 L 30 105 L 27 105 L 24 105 L 21 105 L 18 105 L 15 105 L 12 105 L 12 102 L 9 102 L 9 105 L 6 105 L 6 108 L 3 108 L 3 111 L 6 111 L 9 111 L 12 111 L 15 111 L 18 111 L 21 111 L 24 111 L 27 111 L 30 111 L 33 111 L 36 111 L 39 111 L 42 111 L 45 111 L 48 111 L 51 111 L 54 111 L 57 111 L 60 111 L 63 111 L 66 111 L 69 111 L 72 111 L 75 111 L 78 111 L 81 111 L 84 111 L 87 111 L 90 111 L 93 111 L 96 111 L 99 111 L 102 111 L 105 111 L 108 111 L 108 108 L 111 108 L 111 105 L 114 105 L 114 102 L 117 102 L 117 99 L 120 99 L 120 96 L 123 96 L 123 93 L 120 93 L 117 93 L 114 93 z M 120 99 L 120 102 L 117 102 L 117 105 L 114 105 L 114 108 L 111 108 L 111 111 L 108 111 L 108 114 L 108 117 L 108 120 L 108 123 L 108 126 L 108 129 L 108 132 L 108 135 L 108 138 L 105 138 L 102 138 L 99 138 L 96 138 L 93 138 L 90 138 L 87 138 L 84 138 L 81 138 L 78 138 L 75 138 L 72 138 L 69 138 L 66 138 L 63 138 L 60 138 L 57 138 L 54 138 L 51 138 L 48 138 L 45 138 L 42 138 L 39 138 L 36 138 L 33 138 L 30 138 L 27 138 L 24 138 L 21 138 L 18 138 L 15 138 L 12 138 L 9 138 L 6 138 L 3 138 L 3 135 L 3 132 L 3 129 L 3 126 L 3 123 L 3 120 L 3 117 L 3 114 L 3 111 L 0 111 L 0 114 L 0 117 L 0 120 L 0 123 L 0 126 L 0 129 L 0 132 L 0 135 L 0 138 L 0 141 L 3 141 L 6 141 L 9 141 L 12 141 L 15 141 L 18 141 L 21 141 L 24 141 L 27 141 L 30 141 L 33 141 L 36 141 L 39 141 L 42 141 L 45 141 L 48 141 L 51 141 L 54 141 L 57 141 L 60 141 L 63 141 L 66 141 L 69 141 L 72 141 L 75 141 L 78 141 L 81 141 L 84 141 L 87 141 L 90 141 L 93 141 L 96 141 L 99 141 L 102 141 L 105 141 L 108 141 L 111 141 L 111 138 L 114 138 L 114 135 L 117 135 L 117 132 L 120 132 L 120 129 L 123 129 L 123 126 L 123 123 L 123 120 L 123 117 L 123 114 L 123 111 L 123 108 L 123 105 L 123 102 L 123 99 L 120 99 z M 12 102 L 15 102 L 18 102 L 21 102 L 24 102 L 27 102 L 30 102 L 33 102 L 36 102 L 39 102 L 42 102 L 45 102 L 48 102 L 51 102 L 54 102 L 57 102 L 60 102 L 63 102 L 66 102 L 69 102 L 72 102 L 75 102 L 78 102 L 81 102 L 84 102 L 87 102 L 90 102 L 93 102 L 96 102 L 99 102 L 102 102 L 105 102 L 105 99 L 102 99 L 99 99 L 96 99 L 93 99 L 90 99 L 87 99 L 84 99 L 81 99 L 78 99 L 75 99 L 72 99 L 69 99 L 66 99 L 63 99 L 60 99 L 57 99 L 54 99 L 51 99 L 48 99 L 45 99 L 42 99 L 39 99 L 36 99 L 33 99 L 30 99 L 27 99 L 24 99 L 21 99 L 18 99 L 15 99 L 15 96 L 15 93 L 15 90 L 15 87 L 15 84 L 15 81 L 15 78 L 15 75 L 15 72 L 15 69 L 15 66 L 15 63 L 15 60 L 15 57 L 15 54 L 15 51 L 15 48 L 15 45 L 15 42 L 15 39 L 15 36 L 15 33 L 15 30 L 15 27 L 12 27 L 12 30 L 12 33 L 12 36 L 12 39 L 12 42 L 12 45 L 12 48 L 12 51 L 12 54 L 12 57 L 12 60 L 12 63 L 12 66 L 12 69 L 12 72 L 12 75 L 12 78 L 12 81 L 12 84 L 12 87 L 12 90 L 12 93 L 12 96 L 12 99 L 12 102 z M 15 27 L 18 27 L 18 24 L 15 24 L 15 27 z M 18 24 L 21 24 L 21 21 L 18 21 L 18 24 z M 21 21 L 24 21 L 24 18 L 21 18 L 21 21 z M 24 18 L 27 18 L 27 15 L 24 15 L 24 18 z M 27 15 L 30 15 L 33 15 L 36 15 L 39 15 L 42 15 L 45 15 L 48 15 L 51 15 L 54 15 L 57 15 L 60 15 L 63 15 L 66 15 L 69 15 L 72 15 L 75 15 L 78 15 L 81 15 L 84 15 L 87 15 L 87 12 L 84 12 L 81 12 L 78 12 L 75 12 L 72 12 L 69 12 L 66 12 L 63 12 L 60 12 L 57 12 L 54 12 L 51 12 L 48 12 L 45 12 L 42 12 L 39 12 L 36 12 L 33 12 L 30 12 L 27 12 L 27 15 z M 138 21 L 138 24 L 141 24 L 144 24 L 144 21 L 141 21 L 138 21 z M 138 24 L 135 24 L 132 24 L 132 27 L 135 27 L 138 27 L 138 24 z M 132 27 L 129 27 L 129 30 L 132 30 L 132 27 z M 24 33 L 24 36 L 27 36 L 30 36 L 33 36 L 36 36 L 39 36 L 42 36 L 45 36 L 48 36 L 51 36 L 54 36 L 57 36 L 57 33 L 54 33 L 51 33 L 48 33 L 45 33 L 42 33 L 39 33 L 36 33 L 33 33 L 30 33 L 27 33 L 24 33 z M 129 42 L 129 45 L 132 45 L 135 45 L 138 45 L 141 45 L 144 45 L 144 42 L 141 42 L 138 42 L 135 42 L 132 42 L 129 42 z M 129 57 L 129 60 L 132 60 L 132 57 L 129 57 z M 132 60 L 132 63 L 135 63 L 138 63 L 138 60 L 135 60 L 132 60 z M 138 63 L 138 66 L 141 66 L 144 66 L 144 63 L 141 63 L 138 63 z M 126 75 L 126 78 L 129 78 L 129 75 L 126 75 z M 129 78 L 129 81 L 132 81 L 132 78 L 129 78 z M 132 81 L 132 84 L 135 84 L 135 81 L 132 81 z M 135 84 L 135 87 L 138 87 L 138 84 L 135 84 z M 138 87 L 138 90 L 141 90 L 141 87 L 138 87 z M 99 84 L 99 87 L 102 87 L 102 84 L 99 84 z M 66 123 L 66 126 L 69 126 L 72 126 L 75 126 L 78 126 L 81 126 L 84 126 L 87 126 L 90 126 L 93 126 L 96 126 L 99 126 L 99 123 L 96 123 L 93 123 L 90 123 L 87 123 L 84 123 L 81 123 L 78 123 L 75 123 L 72 123 L 69 123 L 66 123 z "
     style="fill:#808080" />
  <path
     id="rect3492"
     d="M 105 0 L 105 3 L 108 3 L 108 6 L 111 6 L 111 3 L 111 0 L 108 0 L 105 0 z M 108 6 L 105 6 L 105 9 L 108 9 L 108 6 z M 105 9 L 102 9 L 102 12 L 102 15 L 105 15 L 105 12 L 105 9 z M 102 15 L 99 15 L 99 18 L 99 21 L 99 24 L 99 27 L 102 27 L 102 24 L 102 21 L 102 18 L 102 15 z M 99 27 L 96 27 L 96 30 L 96 33 L 96 36 L 96 39 L 96 42 L 96 45 L 96 48 L 96 51 L 96 54 L 96 57 L 96 60 L 96 63 L 96 66 L 96 69 L 96 72 L 96 75 L 99 75 L 99 72 L 99 69 L 99 66 L 99 63 L 99 60 L 102 60 L 105 60 L 108 60 L 108 57 L 108 54 L 105 54 L 105 57 L 102 57 L 99 57 L 99 54 L 99 51 L 99 48 L 99 45 L 99 42 L 99 39 L 102 39 L 102 36 L 99 36 L 99 33 L 99 30 L 99 27 z M 108 54 L 111 54 L 111 51 L 111 48 L 111 45 L 111 42 L 108 42 L 108 45 L 108 48 L 108 51 L 108 54 z M 99 75 L 99 78 L 99 81 L 99 84 L 102 84 L 102 81 L 102 78 L 102 75 L 99 75 z M 102 84 L 102 87 L 102 90 L 102 93 L 99 93 L 99 96 L 102 96 L 105 96 L 108 96 L 108 99 L 111 99 L 111 96 L 114 96 L 114 93 L 111 93 L 108 93 L 108 90 L 105 90 L 105 87 L 105 84 L 102 84 z M 108 99 L 105 99 L 105 102 L 108 102 L 108 99 z M 105 102 L 102 102 L 99 102 L 96 102 L 93 102 L 90 102 L 87 102 L 84 102 L 81 102 L 78 102 L 75 102 L 72 102 L 69 102 L 66 102 L 63 102 L 60 102 L 57 102 L 54 102 L 51 102 L 48 102 L 45 102 L 42 102 L 39 102 L 36 102 L 33 102 L 30 102 L 27 102 L 24 102 L 21 102 L 18 102 L 15 102 L 12 102 L 12 105 L 15 105 L 18 105 L 21 105 L 24 105 L 27 105 L 30 105 L 33 105 L 36 105 L 39 105 L 42 105 L 45 105 L 48 105 L 51 105 L 54 105 L 57 105 L 60 105 L 63 105 L 66 105 L 69 105 L 72 105 L 75 105 L 78 105 L 81 105 L 84 105 L 87 105 L 90 105 L 93 105 L 96 105 L 99 105 L 102 105 L 105 105 L 105 102 z M 99 93 L 99 90 L 96 90 L 96 93 L 99 93 z M 96 90 L 96 87 L 93 87 L 93 90 L 96 90 z M 93 87 L 93 84 L 90 84 L 90 87 L 93 87 z M 90 84 L 90 81 L 87 81 L 87 84 L 90 84 z M 87 81 L 87 78 L 84 78 L 84 81 L 87 81 z M 84 78 L 84 75 L 81 75 L 81 78 L 84 78 z M 81 75 L 81 72 L 78 72 L 78 75 L 81 75 z M 78 72 L 78 69 L 75 69 L 75 72 L 78 72 z M 75 69 L 75 66 L 75 63 L 72 63 L 69 63 L 66 63 L 63 63 L 60 63 L 60 66 L 63 66 L 66 66 L 69 66 L 72 66 L 72 69 L 75 69 z M 24 36 L 24 39 L 24 42 L 24 45 L 24 48 L 24 51 L 24 54 L 24 57 L 24 60 L 24 63 L 24 66 L 24 69 L 24 72 L 24 75 L 24 78 L 24 81 L 24 84 L 24 87 L 27 87 L 27 84 L 27 81 L 27 78 L 27 75 L 27 72 L 27 69 L 27 66 L 27 63 L 27 60 L 27 57 L 27 54 L 27 51 L 27 48 L 27 45 L 27 42 L 27 39 L 30 39 L 33 39 L 36 39 L 39 39 L 42 39 L 45 39 L 48 39 L 51 39 L 54 39 L 54 36 L 51 36 L 48 36 L 45 36 L 42 36 L 39 36 L 36 36 L 33 36 L 30 36 L 27 36 L 24 36 z M 123 96 L 123 99 L 123 102 L 123 105 L 123 108 L 123 111 L 123 114 L 123 117 L 123 120 L 123 123 L 123 126 L 123 129 L 126 129 L 126 126 L 126 123 L 126 120 L 126 117 L 126 114 L 126 111 L 126 108 L 126 105 L 126 102 L 126 99 L 126 96 L 123 96 z M 123 129 L 120 129 L 120 132 L 123 132 L 123 129 z M 120 132 L 117 132 L 117 135 L 120 135 L 120 132 z M 117 135 L 114 135 L 114 138 L 117 138 L 117 135 z M 114 138 L 111 138 L 111 141 L 114 141 L 114 138 z M 111 141 L 108 141 L 105 141 L 102 141 L 99 141 L 96 141 L 93 141 L 90 141 L 87 141 L 84 141 L 81 141 L 78 141 L 75 141 L 72 141 L 69 141 L 66 141 L 63 141 L 60 141 L 57 141 L 54 141 L 51 141 L 48 141 L 45 141 L 42 141 L 39 141 L 36 141 L 33 141 L 30 141 L 27 141 L 24 141 L 21 141 L 18 141 L 15 141 L 12 141 L 9 141 L 6 141 L 3 141 L 3 144 L 6 144 L 9 144 L 12 144 L 15 144 L 18 144 L 21 144 L 24 144 L 27 144 L 30 144 L 33 144 L 36 144 L 39 144 L 42 144 L 45 144 L 48 144 L 51 144 L 54 144 L 57 144 L 60 144 L 63 144 L 66 144 L 69 144 L 72 144 L 75 144 L 78 144 L 81 144 L 84 144 L 87 144 L 90 144 L 93 144 L 96 144 L 99 144 L 102 144 L 105 144 L 108 144 L 111 144 L 111 141 z M 66 126 L 66 129 L 69 129 L 72 129 L 75 129 L 78 129 L 81 129 L 84 129 L 87 129 L 90 129 L 93 129 L 96 129 L 99 129 L 99 126 L 96 126 L 93 126 L 90 126 L 87 126 L 84 126 L 81 126 L 78 126 L 75 126 L 72 126 L 69 126 L 66 126 z "
     style="fill:#000000" />
</svg>
