<?xml version="1.0" encoding="UTF-8" standalone="no"?>
<svg
   xmlns:dc="http://purl.org/dc/elements/1.1/"
   xmlns:cc="http://creativecommons.org/ns#"
   xmlns:rdf="http://www.w3.org/1999/02/22-rdf-syntax-ns#"
   xmlns:svg="http://www.w3.org/2000/svg"
   xmlns="http://www.w3.org/2000/svg"
   height="96px"
   version="1.1"
   width="96px"
   id="svg1178">
  <metadata
     id="metadata1182">
    <rdf:RDF>
      <cc:Work
         rdf:about="">
        <dc:format>image/svg+xml</dc:format>
        <dc:type
           rdf:resource="http://purl.org/dc/dcmitype/StillImage" />
      </cc:Work>
    </rdf:RDF>
  </metadata>
  <defs
     id="defs2" />
  <path
     id="rect322"
     d="M 27 24 L 27 27 L 30 27 L 30 24 L 27 24 z M 51 24 L 51 27 L 54 27 L 54 24 L 51 24 z M 54 27 L 54 30 L 57 30 L 57 27 L 54 27 z "
     style="fill:#a6caf0" />
  <path
     id="rect370"
     d="M 60 30 L 60 33 L 63 33 L 63 30 L 60 30 z "
     style="fill:#d4ffff" />
  <path
     id="rect780"
     d="M 30 33 L 30 36 L 33 36 L 33 33 L 30 33 z M 36 39 L 36 42 L 39 42 L 39 39 L 36 39 z M 54 57 L 54 60 L 57 60 L 57 57 L 54 57 z "
     style="fill:#aadfff" />
  <path
     id="rect868"
     d="M 51 63 L 51 66 L 54 66 L 54 63 L 51 63 z "
     style="fill:#ccccff" />
  <path
     id="rect910"
     d="M 48 21 L 48 24 L 51 24 L 51 21 L 48 21 z M 27 30 L 27 33 L 30 33 L 30 30 L 27 30 z M 54 30 L 54 33 L 57 33 L 57 30 L 54 30 z M 54 33 L 51 33 L 51 36 L 54 36 L 54 33 z M 54 36 L 54 39 L 57 39 L 57 36 L 54 36 z M 33 36 L 33 39 L 36 39 L 36 36 L 33 36 z M 39 42 L 39 45 L 39 48 L 42 48 L 42 45 L 42 42 L 39 42 z M 39 48 L 36 48 L 36 51 L 39 51 L 39 48 z M 36 51 L 33 51 L 33 54 L 36 54 L 36 51 z M 36 54 L 36 57 L 39 57 L 39 54 L 36 54 z M 33 54 L 30 54 L 30 57 L 33 57 L 33 54 z M 30 57 L 27 57 L 27 60 L 30 60 L 30 57 z M 30 60 L 30 63 L 33 63 L 33 60 L 30 60 z M 48 42 L 48 45 L 51 45 L 51 42 L 48 42 z M 48 51 L 48 54 L 51 54 L 51 51 L 48 51 z M 51 54 L 51 57 L 54 57 L 54 54 L 51 54 z M 54 60 L 54 63 L 57 63 L 57 60 L 54 60 z M 48 66 L 48 69 L 51 69 L 51 66 L 48 66 z "
     style="fill:#d4dfff" />
  <path
     id="rect1028"
     d="M 42 9 L 42 12 L 45 12 L 45 9 L 42 9 z M 45 12 L 45 15 L 48 15 L 48 12 L 45 12 z M 45 15 L 42 15 L 42 18 L 45 18 L 45 15 z M 51 18 L 51 21 L 54 21 L 54 18 L 51 18 z M 54 21 L 54 24 L 57 24 L 57 21 L 54 21 z M 57 24 L 57 27 L 60 27 L 60 24 L 57 24 z M 60 27 L 60 30 L 63 30 L 63 27 L 60 27 z M 42 21 L 42 24 L 45 24 L 45 21 L 42 21 z M 27 27 L 27 30 L 30 30 L 33 30 L 33 27 L 30 27 L 27 27 z M 33 30 L 33 33 L 36 33 L 36 30 L 33 30 z M 36 33 L 36 36 L 39 36 L 39 33 L 36 33 z M 42 27 L 42 30 L 45 30 L 45 27 L 42 27 z M 45 30 L 45 33 L 48 33 L 48 30 L 45 30 z M 45 33 L 42 33 L 42 36 L 45 36 L 45 33 z M 57 33 L 57 36 L 60 36 L 60 33 L 57 33 z M 51 39 L 51 42 L 54 42 L 54 39 L 51 39 z M 51 48 L 51 51 L 54 51 L 54 48 L 51 48 z M 54 51 L 54 54 L 57 54 L 57 51 L 54 51 z M 57 54 L 57 57 L 60 57 L 60 54 L 57 54 z M 60 57 L 60 60 L 60 63 L 63 63 L 63 60 L 63 57 L 60 57 z M 36 51 L 36 54 L 39 54 L 42 54 L 42 51 L 39 51 L 36 51 z M 30 57 L 30 60 L 33 60 L 36 60 L 36 57 L 33 57 L 30 57 z M 45 60 L 45 63 L 48 63 L 48 60 L 45 60 z M 45 63 L 42 63 L 42 66 L 45 66 L 45 63 z M 42 69 L 42 72 L 45 72 L 45 69 L 42 69 z M 42 75 L 42 78 L 45 78 L 45 75 L 42 75 z "
     style="fill:#fffbf0" />
  <path
     id="rect1064"
     d="M 42 12 L 42 15 L 45 15 L 45 12 L 42 12 z M 45 15 L 45 18 L 42 18 L 42 21 L 45 21 L 45 24 L 42 24 L 42 27 L 45 27 L 45 30 L 48 30 L 48 27 L 48 24 L 48 21 L 51 21 L 51 18 L 51 15 L 48 15 L 45 15 z M 51 21 L 51 24 L 54 24 L 54 21 L 51 21 z M 54 24 L 54 27 L 57 27 L 57 24 L 54 24 z M 57 27 L 57 30 L 57 33 L 60 33 L 60 30 L 60 27 L 57 27 z M 57 33 L 54 33 L 54 36 L 57 36 L 57 33 z M 54 36 L 51 36 L 48 36 L 48 33 L 45 33 L 45 36 L 42 36 L 39 36 L 36 36 L 36 39 L 39 39 L 39 42 L 42 42 L 42 45 L 42 48 L 39 48 L 39 51 L 42 51 L 42 54 L 42 57 L 42 60 L 42 63 L 45 63 L 45 60 L 48 60 L 48 57 L 48 54 L 48 51 L 51 51 L 51 48 L 51 45 L 48 45 L 48 42 L 51 42 L 51 39 L 54 39 L 54 36 z M 51 51 L 51 54 L 54 54 L 54 51 L 51 51 z M 54 54 L 54 57 L 57 57 L 57 54 L 54 54 z M 57 57 L 57 60 L 57 63 L 54 63 L 54 66 L 51 66 L 51 69 L 48 69 L 48 66 L 48 63 L 45 63 L 45 66 L 42 66 L 42 69 L 45 69 L 45 72 L 42 72 L 42 75 L 45 75 L 45 78 L 48 78 L 48 75 L 51 75 L 51 72 L 54 72 L 54 69 L 57 69 L 57 66 L 60 66 L 60 63 L 60 60 L 60 57 L 57 57 z M 45 78 L 42 78 L 42 81 L 45 81 L 45 78 z M 36 36 L 36 33 L 33 33 L 33 36 L 36 36 z M 33 33 L 33 30 L 30 30 L 30 33 L 33 33 z M 45 33 L 45 30 L 42 30 L 42 33 L 45 33 z M 33 54 L 33 57 L 36 57 L 36 54 L 33 54 z M 27 60 L 27 63 L 30 63 L 30 60 L 27 60 z "
     style="fill:#ffffff" />
  <path
     id="rect1072"
     d="M 36 9 L 36 12 L 39 12 L 39 9 L 36 9 z M 30 12 L 30 15 L 33 15 L 33 12 L 30 12 z M 54 12 L 54 15 L 57 15 L 57 12 L 54 12 z M 60 15 L 60 18 L 63 18 L 63 15 L 60 15 z M 30 18 L 30 21 L 33 21 L 33 18 L 30 18 z M 30 21 L 27 21 L 27 24 L 30 24 L 30 21 z M 36 18 L 36 21 L 39 21 L 39 18 L 36 18 z M 63 21 L 63 24 L 66 24 L 66 21 L 63 21 z M 36 24 L 36 27 L 39 27 L 39 24 L 36 24 z M 21 27 L 21 30 L 24 30 L 24 27 L 21 27 z M 15 33 L 15 36 L 18 36 L 18 33 L 15 33 z M 21 36 L 21 39 L 24 39 L 24 36 L 21 36 z M 27 39 L 27 42 L 30 42 L 30 39 L 27 39 z M 60 39 L 60 42 L 63 42 L 63 39 L 60 39 z M 66 39 L 66 42 L 69 42 L 69 39 L 66 39 z M 15 42 L 15 45 L 18 45 L 18 42 L 15 42 z M 21 42 L 21 45 L 24 45 L 24 42 L 21 42 z M 54 42 L 54 45 L 57 45 L 57 42 L 54 42 z M 27 45 L 27 48 L 30 48 L 30 45 L 27 45 z M 60 45 L 60 48 L 63 48 L 63 45 L 60 45 z M 66 45 L 66 48 L 69 48 L 69 45 L 66 45 z M 18 51 L 18 54 L 21 54 L 21 51 L 18 51 z M 63 51 L 63 54 L 66 54 L 66 51 L 63 51 z M 66 54 L 66 57 L 69 57 L 69 54 L 66 54 z M 24 54 L 24 57 L 27 57 L 27 54 L 24 54 z M 18 57 L 18 60 L 21 60 L 21 57 L 18 57 z M 36 60 L 36 63 L 39 63 L 39 60 L 36 60 z M 21 66 L 21 69 L 24 69 L 24 66 L 21 66 z M 36 66 L 36 69 L 39 69 L 39 66 L 36 66 z M 36 69 L 33 69 L 33 72 L 36 72 L 36 69 z M 27 69 L 27 72 L 30 72 L 30 69 L 27 69 z M 60 72 L 60 75 L 63 75 L 63 72 L 60 72 z M 30 75 L 30 78 L 33 78 L 33 75 L 30 75 z M 36 75 L 36 78 L 39 78 L 39 75 L 36 75 z M 54 78 L 54 81 L 57 81 L 57 78 L 54 78 z "
     style="fill:#2a3fff" />
  <path
     id="rect1086"
     d="M 42 6 L 42 9 L 45 9 L 45 6 L 42 6 z M 45 9 L 45 12 L 48 12 L 48 9 L 45 9 z M 18 12 L 18 15 L 21 15 L 21 12 L 18 12 z M 69 12 L 69 15 L 72 15 L 72 12 L 69 12 z M 15 18 L 15 21 L 18 21 L 18 18 L 15 18 z M 72 18 L 72 21 L 75 21 L 75 18 L 72 18 z M 12 27 L 12 30 L 15 30 L 15 27 L 12 27 z M 75 27 L 75 30 L 78 30 L 78 27 L 75 27 z M 24 60 L 24 63 L 27 63 L 27 60 L 24 60 z M 27 63 L 27 66 L 30 66 L 30 63 L 27 63 z M 15 69 L 15 72 L 18 72 L 18 69 L 15 69 z M 72 69 L 72 72 L 75 72 L 75 69 L 72 69 z M 18 75 L 18 78 L 21 78 L 21 75 L 18 75 z M 69 75 L 69 78 L 72 78 L 72 75 L 69 75 z M 24 81 L 24 84 L 27 84 L 27 81 L 24 81 z "
     style="fill:#7f9fff" />
  <path
     id="rect1112"
     d="M 66 9 L 66 12 L 69 12 L 69 9 L 66 9 z M 48 12 L 48 15 L 51 15 L 51 12 L 48 12 z M 51 15 L 51 18 L 54 18 L 54 15 L 51 15 z M 54 18 L 54 21 L 57 21 L 57 18 L 54 18 z M 57 21 L 57 24 L 60 24 L 60 21 L 57 21 z M 60 24 L 60 27 L 63 27 L 63 24 L 60 24 z M 63 27 L 63 30 L 66 30 L 66 27 L 63 27 z M 24 27 L 24 30 L 27 30 L 27 27 L 24 27 z M 12 60 L 12 63 L 15 63 L 15 60 L 12 60 z M 75 60 L 75 63 L 78 63 L 78 60 L 75 60 z M 66 78 L 66 81 L 69 81 L 69 78 L 66 78 z M 66 81 L 63 81 L 63 84 L 66 84 L 66 81 z "
     style="fill:#559fff" />
  <path
     id="rect1130"
     d="M 36 6 L 36 9 L 39 9 L 39 6 L 36 6 z M 45 6 L 45 9 L 48 9 L 48 6 L 45 6 z M 66 15 L 66 18 L 69 18 L 69 15 L 66 15 z M 69 21 L 69 24 L 72 24 L 72 21 L 69 21 z M 72 33 L 72 36 L 75 36 L 75 33 L 72 33 z M 72 42 L 72 45 L 75 45 L 75 42 L 72 42 z M 72 51 L 72 54 L 75 54 L 75 51 L 72 51 z M 75 54 L 75 57 L 78 57 L 78 54 L 75 54 z M 12 54 L 12 57 L 15 57 L 15 54 L 12 54 z M 27 54 L 27 57 L 30 57 L 30 54 L 27 54 z M 27 57 L 24 57 L 24 60 L 27 60 L 27 57 z M 18 66 L 18 69 L 21 69 L 21 66 L 18 66 z M 69 69 L 69 72 L 72 72 L 72 69 L 69 69 z M 66 75 L 66 78 L 69 78 L 69 75 L 66 75 z M 24 78 L 24 81 L 27 81 L 27 78 L 24 78 z M 57 81 L 57 84 L 60 84 L 60 81 L 57 81 z M 45 84 L 45 87 L 48 87 L 48 84 L 45 84 z "
     style="fill:#007fff" />
  <path
     id="rect1136"
     d="M 36 0 L 36 3 L 39 3 L 42 3 L 42 6 L 45 6 L 48 6 L 48 3 L 51 3 L 54 3 L 54 0 L 51 0 L 48 0 L 45 0 L 42 0 L 39 0 L 36 0 z M 54 3 L 54 6 L 57 6 L 57 3 L 54 3 z M 36 3 L 33 3 L 33 6 L 36 6 L 36 3 z M 27 6 L 27 9 L 30 9 L 30 6 L 27 6 z M 27 9 L 24 9 L 24 12 L 27 12 L 27 9 z M 60 6 L 60 9 L 63 9 L 63 6 L 60 6 z M 18 15 L 18 18 L 21 18 L 21 15 L 18 15 z M 69 15 L 69 18 L 72 18 L 72 15 L 69 15 z M 15 21 L 15 24 L 18 24 L 18 21 L 15 21 z M 30 24 L 30 27 L 33 27 L 33 24 L 30 24 z M 33 27 L 33 30 L 36 30 L 36 27 L 33 27 z M 36 30 L 36 33 L 39 33 L 39 30 L 36 30 z M 39 33 L 39 36 L 42 36 L 42 33 L 39 33 z M 48 24 L 48 27 L 48 30 L 48 33 L 51 33 L 51 30 L 51 27 L 51 24 L 48 24 z M 72 24 L 72 27 L 72 30 L 75 30 L 75 27 L 75 24 L 72 24 z M 75 30 L 75 33 L 75 36 L 78 36 L 78 33 L 78 30 L 75 30 z M 12 30 L 12 33 L 12 36 L 15 36 L 15 33 L 15 30 L 12 30 z M 57 36 L 57 39 L 60 39 L 60 36 L 57 36 z M 57 39 L 54 39 L 54 42 L 57 42 L 57 39 z M 54 42 L 51 42 L 51 45 L 51 48 L 54 48 L 54 45 L 54 42 z M 54 48 L 54 51 L 57 51 L 57 48 L 54 48 z M 57 51 L 57 54 L 60 54 L 60 51 L 57 51 z M 60 54 L 60 57 L 63 57 L 63 54 L 60 54 z M 63 57 L 63 60 L 66 60 L 66 57 L 63 57 z M 39 54 L 39 57 L 42 57 L 42 54 L 39 54 z M 39 57 L 36 57 L 36 60 L 39 60 L 39 57 z M 36 60 L 33 60 L 33 63 L 36 63 L 36 60 z M 33 63 L 30 63 L 30 66 L 33 66 L 33 63 z M 48 57 L 48 60 L 48 63 L 48 66 L 51 66 L 51 63 L 51 60 L 51 57 L 48 57 z M 72 60 L 72 63 L 72 66 L 75 66 L 75 63 L 75 60 L 72 60 z M 15 66 L 15 69 L 18 69 L 18 66 L 15 66 z M 18 72 L 18 75 L 21 75 L 21 72 L 18 72 z M 21 75 L 21 78 L 24 78 L 24 75 L 21 75 z M 27 81 L 27 84 L 30 84 L 30 81 L 27 81 z M 42 81 L 42 84 L 45 84 L 45 81 L 42 81 z M 60 81 L 60 84 L 63 84 L 63 81 L 60 81 z M 33 84 L 33 87 L 36 87 L 39 87 L 39 84 L 36 84 L 33 84 z M 51 84 L 51 87 L 54 87 L 57 87 L 57 84 L 54 84 L 51 84 z "
     style="fill:#2a7fff" />
  <path
     id="rect1138"
     d="M 30 3 L 30 6 L 33 6 L 33 3 L 30 3 z M 57 3 L 57 6 L 60 6 L 60 3 L 57 3 z M 24 6 L 24 9 L 27 9 L 27 6 L 24 6 z M 24 9 L 21 9 L 21 12 L 24 12 L 24 9 z M 63 6 L 63 9 L 66 9 L 66 6 L 63 6 z M 72 21 L 72 24 L 75 24 L 75 21 L 72 21 z M 48 33 L 48 36 L 51 36 L 51 33 L 48 33 z M 48 54 L 48 57 L 51 57 L 51 54 L 48 54 z M 12 57 L 12 60 L 15 60 L 15 57 L 12 57 z M 75 57 L 75 60 L 78 60 L 78 57 L 75 57 z M 63 60 L 63 63 L 66 63 L 66 60 L 63 60 z M 63 63 L 60 63 L 60 66 L 63 66 L 63 63 z M 60 66 L 57 66 L 57 69 L 60 69 L 60 66 z M 57 69 L 54 69 L 54 72 L 57 72 L 57 69 z M 54 72 L 51 72 L 51 75 L 54 75 L 54 72 z M 51 75 L 48 75 L 48 78 L 51 78 L 51 75 z M 48 78 L 45 78 L 45 81 L 48 81 L 48 78 z M 72 66 L 72 69 L 75 69 L 75 66 L 72 66 z M 69 72 L 69 75 L 72 75 L 72 72 L 69 72 z M 21 78 L 21 81 L 24 81 L 24 78 L 21 78 z M 30 84 L 30 87 L 33 87 L 33 84 L 30 84 z M 57 84 L 57 87 L 60 87 L 60 84 L 57 84 z "
     style="fill:#557fff" />
  <path
     id="rect1158"
     d="M 36 3 L 36 6 L 39 6 L 39 9 L 39 12 L 36 12 L 36 9 L 36 6 L 33 6 L 30 6 L 30 9 L 27 9 L 27 12 L 24 12 L 21 12 L 21 15 L 21 18 L 18 18 L 18 21 L 18 24 L 15 24 L 15 27 L 15 30 L 15 33 L 18 33 L 18 36 L 15 36 L 12 36 L 12 39 L 12 42 L 12 45 L 12 48 L 12 51 L 12 54 L 15 54 L 15 57 L 15 60 L 15 63 L 15 66 L 18 66 L 21 66 L 24 66 L 24 69 L 21 69 L 18 69 L 18 72 L 21 72 L 21 75 L 24 75 L 24 78 L 27 78 L 27 81 L 30 81 L 30 84 L 33 84 L 36 84 L 39 84 L 39 87 L 36 87 L 36 90 L 39 90 L 42 90 L 45 90 L 48 90 L 51 90 L 54 90 L 54 87 L 51 87 L 51 84 L 54 84 L 57 84 L 57 81 L 54 81 L 54 78 L 57 78 L 57 81 L 60 81 L 63 81 L 66 81 L 66 78 L 66 75 L 69 75 L 69 72 L 69 69 L 72 69 L 72 66 L 72 63 L 72 60 L 75 60 L 75 57 L 75 54 L 72 54 L 72 51 L 75 51 L 75 54 L 78 54 L 78 51 L 78 48 L 78 45 L 78 42 L 78 39 L 78 36 L 75 36 L 72 36 L 72 33 L 75 33 L 75 30 L 72 30 L 72 27 L 72 24 L 69 24 L 69 21 L 72 21 L 72 18 L 69 18 L 66 18 L 66 15 L 69 15 L 69 12 L 66 12 L 66 9 L 63 9 L 60 9 L 60 6 L 57 6 L 54 6 L 54 3 L 51 3 L 48 3 L 48 6 L 48 9 L 48 12 L 51 12 L 51 15 L 54 15 L 54 12 L 57 12 L 57 15 L 54 15 L 54 18 L 57 18 L 57 21 L 60 21 L 60 24 L 63 24 L 63 21 L 66 21 L 66 24 L 63 24 L 63 27 L 66 27 L 66 30 L 63 30 L 63 33 L 60 33 L 60 36 L 60 39 L 63 39 L 63 42 L 60 42 L 60 39 L 57 39 L 57 42 L 57 45 L 54 45 L 54 48 L 57 48 L 57 51 L 60 51 L 60 54 L 63 54 L 63 51 L 66 51 L 66 54 L 69 54 L 69 57 L 66 57 L 66 60 L 66 63 L 63 63 L 63 66 L 60 66 L 60 69 L 57 69 L 57 72 L 54 72 L 54 75 L 51 75 L 51 78 L 48 78 L 48 81 L 45 81 L 45 84 L 48 84 L 48 87 L 45 87 L 45 84 L 42 84 L 42 81 L 42 78 L 42 75 L 42 72 L 42 69 L 42 66 L 42 63 L 42 60 L 42 57 L 39 57 L 39 60 L 39 63 L 36 63 L 33 63 L 33 66 L 30 66 L 27 66 L 27 63 L 24 63 L 24 60 L 24 57 L 24 54 L 27 54 L 30 54 L 33 54 L 33 51 L 36 51 L 36 48 L 39 48 L 39 45 L 39 42 L 36 42 L 36 39 L 33 39 L 33 36 L 30 36 L 30 33 L 27 33 L 27 30 L 24 30 L 21 30 L 21 27 L 24 27 L 27 27 L 27 24 L 27 21 L 30 21 L 30 18 L 33 18 L 33 21 L 30 21 L 30 24 L 33 24 L 33 27 L 36 27 L 36 24 L 39 24 L 39 27 L 36 27 L 36 30 L 39 30 L 39 33 L 42 33 L 42 30 L 42 27 L 42 24 L 42 21 L 42 18 L 42 15 L 42 12 L 42 9 L 42 6 L 42 3 L 39 3 L 36 3 z M 66 57 L 66 54 L 63 54 L 63 57 L 66 57 z M 30 12 L 33 12 L 33 15 L 30 15 L 30 12 z M 60 15 L 63 15 L 63 18 L 60 18 L 60 15 z M 36 18 L 39 18 L 39 21 L 36 21 L 36 18 z M 51 27 L 51 30 L 51 33 L 54 33 L 54 30 L 54 27 L 51 27 z M 21 36 L 24 36 L 24 39 L 21 39 L 21 36 z M 27 39 L 30 39 L 30 42 L 27 42 L 27 39 z M 66 39 L 69 39 L 69 42 L 66 42 L 66 39 z M 15 42 L 18 42 L 18 45 L 15 45 L 15 42 z M 21 42 L 24 42 L 24 45 L 21 45 L 21 42 z M 72 42 L 75 42 L 75 45 L 72 45 L 72 42 z M 27 45 L 30 45 L 30 48 L 27 48 L 27 45 z M 60 45 L 63 45 L 63 48 L 60 48 L 60 45 z M 66 45 L 69 45 L 69 48 L 66 48 L 66 45 z M 18 51 L 21 51 L 21 54 L 18 54 L 18 51 z M 18 57 L 21 57 L 21 60 L 18 60 L 18 57 z M 51 57 L 51 60 L 51 63 L 54 63 L 54 60 L 54 57 L 51 57 z M 36 66 L 39 66 L 39 69 L 36 69 L 36 72 L 33 72 L 33 69 L 36 69 L 36 66 z M 27 69 L 30 69 L 30 72 L 27 72 L 27 69 z M 60 72 L 63 72 L 63 75 L 60 75 L 60 72 z M 30 75 L 33 75 L 33 78 L 30 78 L 30 75 z M 36 75 L 39 75 L 39 78 L 36 78 L 36 75 z "
     style="fill:#2a5fff" />
  <path
     id="rect1176"
     d="M 72 15 L 72 18 L 75 18 L 75 15 L 72 15 z M 75 21 L 75 24 L 75 27 L 78 27 L 78 24 L 78 21 L 75 21 z M 78 30 L 78 33 L 78 36 L 78 39 L 78 42 L 78 45 L 78 48 L 78 51 L 78 54 L 78 57 L 78 60 L 78 63 L 75 63 L 75 66 L 75 69 L 75 72 L 72 72 L 72 75 L 72 78 L 69 78 L 69 81 L 66 81 L 66 84 L 63 84 L 60 84 L 60 87 L 57 87 L 54 87 L 54 90 L 51 90 L 48 90 L 45 90 L 42 90 L 39 90 L 39 93 L 42 93 L 45 93 L 48 93 L 51 93 L 54 93 L 57 93 L 57 90 L 60 90 L 63 90 L 63 87 L 66 87 L 69 87 L 69 84 L 72 84 L 72 81 L 75 81 L 75 78 L 75 75 L 78 75 L 78 72 L 78 69 L 78 66 L 81 66 L 81 63 L 81 60 L 81 57 L 81 54 L 81 51 L 81 48 L 81 45 L 81 42 L 81 39 L 81 36 L 81 33 L 81 30 L 78 30 z M 27 84 L 27 87 L 30 87 L 30 84 L 27 84 z M 33 87 L 33 90 L 36 90 L 36 87 L 33 87 z "
     style="fill:#000000" />
</svg>
