<?xml version="1.0" encoding="UTF-8" standalone="no"?>
<svg
   xmlns:dc="http://purl.org/dc/elements/1.1/"
   xmlns:cc="http://creativecommons.org/ns#"
   xmlns:rdf="http://www.w3.org/1999/02/22-rdf-syntax-ns#"
   xmlns:svg="http://www.w3.org/2000/svg"
   xmlns="http://www.w3.org/2000/svg"
   height="96px"
   version="1.1"
   width="96px"
   id="svg1400">
  <metadata
     id="metadata1404">
    <rdf:RDF>
      <cc:Work
         rdf:about="">
        <dc:format>image/svg+xml</dc:format>
        <dc:type
           rdf:resource="http://purl.org/dc/dcmitype/StillImage" />
      </cc:Work>
    </rdf:RDF>
  </metadata>
  <defs
     id="defs2" />
  <path
     id="rect1224"
     d="M 69 9 L 69 12 L 72 12 L 72 9 L 69 9 z M 69 12 L 66 12 L 66 15 L 69 15 L 69 12 z M 66 15 L 63 15 L 63 18 L 66 18 L 66 15 z M 63 18 L 60 18 L 60 21 L 63 21 L 63 18 z M 60 21 L 57 21 L 54 21 L 51 21 L 48 21 L 45 21 L 42 21 L 39 21 L 36 21 L 33 21 L 30 21 L 27 21 L 24 21 L 21 21 L 18 21 L 15 21 L 12 21 L 9 21 L 6 21 L 6 24 L 6 27 L 6 30 L 6 33 L 6 36 L 6 39 L 6 42 L 6 45 L 6 48 L 6 51 L 6 54 L 6 57 L 6 60 L 6 63 L 6 66 L 6 69 L 6 72 L 6 75 L 6 78 L 6 81 L 9 81 L 9 78 L 9 75 L 9 72 L 9 69 L 9 66 L 9 63 L 9 60 L 9 57 L 9 54 L 9 51 L 9 48 L 9 45 L 9 42 L 9 39 L 9 36 L 9 33 L 9 30 L 9 27 L 9 24 L 12 24 L 15 24 L 18 24 L 21 24 L 24 24 L 27 24 L 30 24 L 33 24 L 36 24 L 39 24 L 42 24 L 45 24 L 48 24 L 51 24 L 54 24 L 54 27 L 57 27 L 57 24 L 60 24 L 60 21 z M 54 27 L 51 27 L 51 30 L 54 30 L 54 27 z M 51 30 L 48 30 L 48 33 L 51 33 L 51 30 z M 48 33 L 45 33 L 45 36 L 48 36 L 48 33 z M 45 36 L 42 36 L 42 39 L 45 39 L 45 36 z M 42 39 L 39 39 L 39 42 L 42 42 L 42 39 z M 39 42 L 36 42 L 36 45 L 39 45 L 39 42 z M 36 45 L 33 45 L 33 48 L 30 48 L 30 51 L 30 54 L 33 54 L 36 54 L 36 51 L 39 51 L 39 48 L 36 48 L 36 45 z M 75 21 L 75 24 L 78 24 L 81 24 L 84 24 L 87 24 L 90 24 L 90 21 L 87 21 L 84 21 L 81 21 L 78 21 L 75 21 z "
     style="fill:#ffffff" />
  <path
     id="rect1292"
     d="M 69 12 L 69 15 L 66 15 L 66 18 L 63 18 L 63 21 L 60 21 L 60 24 L 57 24 L 57 27 L 54 27 L 54 30 L 51 30 L 51 33 L 48 33 L 48 36 L 45 36 L 45 39 L 42 39 L 42 42 L 39 42 L 39 45 L 36 45 L 36 48 L 39 48 L 42 48 L 42 45 L 45 45 L 45 42 L 48 42 L 48 39 L 51 39 L 51 36 L 54 36 L 54 33 L 57 33 L 57 30 L 60 30 L 60 27 L 63 27 L 63 24 L 66 24 L 66 21 L 69 21 L 69 18 L 72 18 L 72 15 L 75 15 L 75 12 L 72 12 L 69 12 z M 51 30 L 51 27 L 54 27 L 54 24 L 51 24 L 48 24 L 45 24 L 42 24 L 39 24 L 36 24 L 33 24 L 30 24 L 27 24 L 24 24 L 21 24 L 18 24 L 15 24 L 12 24 L 9 24 L 9 27 L 9 30 L 9 33 L 9 36 L 9 39 L 9 42 L 9 45 L 9 48 L 9 51 L 9 54 L 9 57 L 9 60 L 9 63 L 9 66 L 9 69 L 9 72 L 9 75 L 9 78 L 9 81 L 12 81 L 15 81 L 15 78 L 15 75 L 15 72 L 15 69 L 15 66 L 15 63 L 15 60 L 15 57 L 15 54 L 15 51 L 15 48 L 15 45 L 15 42 L 15 39 L 15 36 L 15 33 L 15 30 L 18 30 L 21 30 L 24 30 L 27 30 L 30 30 L 33 30 L 36 30 L 39 30 L 42 30 L 45 30 L 48 30 L 51 30 z M 72 24 L 72 27 L 69 27 L 69 30 L 72 30 L 75 30 L 78 30 L 81 30 L 81 33 L 81 36 L 81 39 L 81 42 L 81 45 L 81 48 L 81 51 L 81 54 L 81 57 L 81 60 L 81 63 L 81 66 L 81 69 L 81 72 L 81 75 L 81 78 L 81 81 L 84 81 L 87 81 L 90 81 L 90 78 L 90 75 L 90 72 L 90 69 L 90 66 L 90 63 L 90 60 L 90 57 L 90 54 L 90 51 L 90 48 L 90 45 L 90 42 L 90 39 L 90 36 L 90 33 L 90 30 L 90 27 L 90 24 L 87 24 L 84 24 L 81 24 L 78 24 L 75 24 L 72 24 z M 18 75 L 18 78 L 18 81 L 18 84 L 21 84 L 21 81 L 21 78 L 24 78 L 27 78 L 30 78 L 33 78 L 36 78 L 39 78 L 42 78 L 45 78 L 48 78 L 51 78 L 54 78 L 57 78 L 60 78 L 63 78 L 66 78 L 69 78 L 72 78 L 75 78 L 78 78 L 78 75 L 75 75 L 72 75 L 69 75 L 66 75 L 63 75 L 60 75 L 57 75 L 54 75 L 51 75 L 48 75 L 45 75 L 42 75 L 39 75 L 36 75 L 33 75 L 30 75 L 27 75 L 24 75 L 21 75 L 18 75 z "
     style="fill:#c0c0c0" />
  <path
     id="rect1338"
     d="M 72 15 L 72 18 L 75 18 L 75 15 L 72 15 z M 72 18 L 69 18 L 69 21 L 72 21 L 72 18 z M 69 21 L 66 21 L 66 24 L 69 24 L 69 21 z M 66 24 L 63 24 L 63 27 L 66 27 L 66 24 z M 63 27 L 60 27 L 60 30 L 63 30 L 63 27 z M 60 30 L 57 30 L 57 33 L 60 33 L 60 30 z M 57 33 L 54 33 L 54 36 L 57 36 L 57 33 z M 54 36 L 51 36 L 51 39 L 54 39 L 54 36 z M 51 39 L 48 39 L 48 42 L 51 42 L 51 39 z M 48 42 L 45 42 L 45 45 L 48 45 L 48 42 z M 45 45 L 42 45 L 42 48 L 45 48 L 45 45 z M 42 48 L 39 48 L 39 51 L 42 51 L 42 48 z M 39 51 L 36 51 L 36 54 L 39 54 L 39 51 z M 6 18 L 6 21 L 9 21 L 12 21 L 15 21 L 18 21 L 21 21 L 24 21 L 27 21 L 30 21 L 33 21 L 36 21 L 39 21 L 42 21 L 45 21 L 48 21 L 51 21 L 54 21 L 57 21 L 60 21 L 60 18 L 57 18 L 54 18 L 51 18 L 48 18 L 45 18 L 42 18 L 39 18 L 36 18 L 33 18 L 30 18 L 27 18 L 24 18 L 21 18 L 18 18 L 15 18 L 12 18 L 9 18 L 6 18 z M 6 21 L 3 21 L 3 24 L 3 27 L 3 30 L 3 33 L 3 36 L 3 39 L 3 42 L 3 45 L 3 48 L 3 51 L 3 54 L 3 57 L 3 60 L 3 63 L 3 66 L 3 69 L 3 72 L 3 75 L 3 78 L 3 81 L 3 84 L 6 84 L 9 84 L 12 84 L 15 84 L 15 81 L 12 81 L 9 81 L 6 81 L 6 78 L 6 75 L 6 72 L 6 69 L 6 66 L 6 63 L 6 60 L 6 57 L 6 54 L 6 51 L 6 48 L 6 45 L 6 42 L 6 39 L 6 36 L 6 33 L 6 30 L 6 27 L 6 24 L 6 21 z M 78 18 L 78 21 L 81 21 L 84 21 L 87 21 L 90 21 L 90 18 L 87 18 L 84 18 L 81 18 L 78 18 z M 21 36 L 21 39 L 21 42 L 21 45 L 21 48 L 21 51 L 21 54 L 21 57 L 21 60 L 21 63 L 21 66 L 21 69 L 24 69 L 27 69 L 30 69 L 33 69 L 36 69 L 39 69 L 42 69 L 45 69 L 48 69 L 51 69 L 54 69 L 57 69 L 60 69 L 63 69 L 66 69 L 69 69 L 72 69 L 75 69 L 75 66 L 75 63 L 75 60 L 75 57 L 75 54 L 75 51 L 75 48 L 75 45 L 75 42 L 75 39 L 75 36 L 72 36 L 69 36 L 66 36 L 63 36 L 60 36 L 60 39 L 57 39 L 57 42 L 54 42 L 54 45 L 51 45 L 51 48 L 48 48 L 48 51 L 45 51 L 45 54 L 42 54 L 42 57 L 39 57 L 36 57 L 33 57 L 30 57 L 30 54 L 30 51 L 30 48 L 33 48 L 33 45 L 36 45 L 36 42 L 39 42 L 39 39 L 42 39 L 42 36 L 39 36 L 36 36 L 33 36 L 30 36 L 27 36 L 24 36 L 21 36 z M 21 78 L 21 81 L 21 84 L 24 84 L 27 84 L 30 84 L 33 84 L 36 84 L 39 84 L 42 84 L 45 84 L 48 84 L 51 84 L 54 84 L 57 84 L 60 84 L 63 84 L 66 84 L 69 84 L 72 84 L 75 84 L 78 84 L 78 81 L 78 78 L 75 78 L 72 78 L 69 78 L 66 78 L 63 78 L 60 78 L 57 78 L 54 78 L 51 78 L 48 78 L 45 78 L 42 78 L 39 78 L 36 78 L 33 78 L 30 78 L 27 78 L 24 78 L 21 78 z M 81 81 L 81 84 L 84 84 L 87 84 L 90 84 L 90 81 L 87 81 L 84 81 L 81 81 z "
     style="fill:#808080" />
  <path
     id="rect1398"
     d="M 72 9 L 72 12 L 75 12 L 75 9 L 72 9 z M 75 12 L 75 15 L 75 18 L 72 18 L 72 21 L 69 21 L 69 24 L 66 24 L 66 27 L 63 27 L 63 30 L 60 30 L 60 33 L 57 33 L 57 36 L 54 36 L 54 39 L 51 39 L 51 42 L 48 42 L 48 45 L 45 45 L 45 48 L 42 48 L 42 51 L 39 51 L 39 54 L 36 54 L 33 54 L 30 54 L 30 57 L 33 57 L 36 57 L 39 57 L 42 57 L 42 54 L 45 54 L 45 51 L 48 51 L 48 48 L 51 48 L 51 45 L 54 45 L 54 42 L 57 42 L 57 39 L 60 39 L 60 36 L 63 36 L 66 36 L 69 36 L 72 36 L 75 36 L 75 39 L 75 42 L 75 45 L 75 48 L 75 51 L 75 54 L 75 57 L 75 60 L 75 63 L 75 66 L 75 69 L 72 69 L 69 69 L 66 69 L 63 69 L 60 69 L 57 69 L 54 69 L 51 69 L 48 69 L 45 69 L 42 69 L 39 69 L 36 69 L 33 69 L 30 69 L 27 69 L 24 69 L 21 69 L 21 66 L 21 63 L 21 60 L 21 57 L 21 54 L 21 51 L 21 48 L 21 45 L 21 42 L 21 39 L 21 36 L 24 36 L 27 36 L 30 36 L 33 36 L 36 36 L 39 36 L 42 36 L 45 36 L 45 33 L 48 33 L 48 30 L 45 30 L 42 30 L 39 30 L 36 30 L 33 30 L 30 30 L 27 30 L 24 30 L 21 30 L 18 30 L 15 30 L 15 33 L 15 36 L 15 39 L 15 42 L 15 45 L 15 48 L 15 51 L 15 54 L 15 57 L 15 60 L 15 63 L 15 66 L 15 69 L 15 72 L 15 75 L 15 78 L 15 81 L 15 84 L 12 84 L 9 84 L 6 84 L 6 87 L 9 87 L 12 87 L 15 87 L 18 87 L 21 87 L 24 87 L 27 87 L 30 87 L 33 87 L 36 87 L 39 87 L 42 87 L 45 87 L 48 87 L 51 87 L 54 87 L 57 87 L 60 87 L 63 87 L 66 87 L 69 87 L 72 87 L 75 87 L 78 87 L 81 87 L 84 87 L 87 87 L 90 87 L 93 87 L 93 84 L 93 81 L 93 78 L 93 75 L 93 72 L 93 69 L 93 66 L 93 63 L 93 60 L 93 57 L 93 54 L 93 51 L 93 48 L 93 45 L 93 42 L 93 39 L 93 36 L 93 33 L 93 30 L 93 27 L 93 24 L 93 21 L 90 21 L 90 24 L 90 27 L 90 30 L 90 33 L 90 36 L 90 39 L 90 42 L 90 45 L 90 48 L 90 51 L 90 54 L 90 57 L 90 60 L 90 63 L 90 66 L 90 69 L 90 72 L 90 75 L 90 78 L 90 81 L 90 84 L 87 84 L 84 84 L 81 84 L 81 81 L 81 78 L 81 75 L 81 72 L 81 69 L 81 66 L 81 63 L 81 60 L 81 57 L 81 54 L 81 51 L 81 48 L 81 45 L 81 42 L 81 39 L 81 36 L 81 33 L 81 30 L 78 30 L 75 30 L 72 30 L 69 30 L 69 27 L 72 27 L 72 24 L 75 24 L 75 21 L 78 21 L 78 18 L 78 15 L 78 12 L 75 12 z M 18 75 L 21 75 L 24 75 L 27 75 L 30 75 L 33 75 L 36 75 L 39 75 L 42 75 L 45 75 L 48 75 L 51 75 L 54 75 L 57 75 L 60 75 L 63 75 L 66 75 L 69 75 L 72 75 L 75 75 L 78 75 L 78 78 L 78 81 L 78 84 L 75 84 L 72 84 L 69 84 L 66 84 L 63 84 L 60 84 L 57 84 L 54 84 L 51 84 L 48 84 L 45 84 L 42 84 L 39 84 L 36 84 L 33 84 L 30 84 L 27 84 L 24 84 L 21 84 L 18 84 L 18 81 L 18 78 L 18 75 z "
     style="fill:#000000" />
</svg>
