<?xml version="1.0" encoding="UTF-8" standalone="no"?>
<svg
   xmlns:dc="http://purl.org/dc/elements/1.1/"
   xmlns:cc="http://creativecommons.org/ns#"
   xmlns:rdf="http://www.w3.org/1999/02/22-rdf-syntax-ns#"
   xmlns:svg="http://www.w3.org/2000/svg"
   xmlns="http://www.w3.org/2000/svg"
   height="144px"
   version="1.1"
   width="144px"
   id="svg2168">
  <metadata
     id="metadata2172">
    <rdf:RDF>
      <cc:Work
         rdf:about="">
        <dc:format>image/svg+xml</dc:format>
        <dc:type
           rdf:resource="http://purl.org/dc/dcmitype/StillImage" />
      </cc:Work>
    </rdf:RDF>
  </metadata>
  <defs
     id="defs2" />
  <path
     id="rect952"
     d="M 12 84 L 12 87 L 12 90 L 15 90 L 18 90 L 18 87 L 18 84 L 15 84 L 12 84 z "
     style="fill:#ff0000" />
  <path
     id="rect1050"
     d="M 18 84 L 18 87 L 18 90 L 15 90 L 12 90 L 12 93 L 15 93 L 18 93 L 21 93 L 21 90 L 21 87 L 21 84 L 18 84 z "
     style="fill:#800000" />
  <path
     id="rect1902"
     d="M 3 69 L 3 72 L 3 75 L 3 78 L 3 81 L 3 84 L 3 87 L 3 90 L 3 93 L 3 96 L 3 99 L 3 102 L 3 105 L 3 108 L 3 111 L 3 114 L 3 117 L 3 120 L 6 120 L 6 117 L 6 114 L 6 111 L 6 108 L 6 105 L 6 102 L 6 99 L 6 96 L 6 93 L 6 90 L 6 87 L 6 84 L 6 81 L 6 78 L 6 75 L 6 72 L 9 72 L 12 72 L 15 72 L 18 72 L 21 72 L 24 72 L 27 72 L 30 72 L 33 72 L 36 72 L 39 72 L 42 72 L 45 72 L 48 72 L 51 72 L 54 72 L 57 72 L 60 72 L 63 72 L 66 72 L 69 72 L 72 72 L 75 72 L 78 72 L 81 72 L 84 72 L 87 72 L 90 72 L 93 72 L 96 72 L 99 72 L 102 72 L 105 72 L 108 72 L 111 72 L 114 72 L 117 72 L 120 72 L 123 72 L 126 72 L 129 72 L 129 69 L 126 69 L 123 69 L 120 69 L 117 69 L 114 69 L 111 69 L 108 69 L 105 69 L 102 69 L 99 69 L 96 69 L 93 69 L 90 69 L 87 69 L 84 69 L 81 69 L 78 69 L 75 69 L 72 69 L 69 69 L 66 69 L 63 69 L 60 69 L 57 69 L 54 69 L 51 69 L 48 69 L 45 69 L 42 69 L 39 69 L 36 69 L 33 69 L 30 69 L 27 69 L 24 69 L 21 69 L 18 69 L 15 69 L 12 69 L 9 69 L 6 69 L 3 69 z M 30 93 L 30 96 L 33 96 L 36 96 L 39 96 L 39 93 L 36 93 L 33 93 L 30 93 z M 39 96 L 39 99 L 42 99 L 45 99 L 48 99 L 51 99 L 54 99 L 57 99 L 60 99 L 63 99 L 66 99 L 69 99 L 72 99 L 75 99 L 78 99 L 81 99 L 84 99 L 87 99 L 90 99 L 93 99 L 96 99 L 99 99 L 102 99 L 105 99 L 108 99 L 108 96 L 105 96 L 102 96 L 99 96 L 96 96 L 93 96 L 90 96 L 87 96 L 84 96 L 81 96 L 78 96 L 75 96 L 72 96 L 69 96 L 66 96 L 63 96 L 60 96 L 57 96 L 54 96 L 51 96 L 48 96 L 45 96 L 42 96 L 39 96 z M 108 96 L 111 96 L 114 96 L 117 96 L 117 93 L 114 93 L 111 93 L 108 93 L 108 96 z M 33 108 L 33 111 L 30 111 L 30 114 L 33 114 L 36 114 L 36 111 L 36 108 L 33 108 z M 42 108 L 42 111 L 39 111 L 39 114 L 42 114 L 45 114 L 45 111 L 45 108 L 42 108 z M 51 108 L 51 111 L 48 111 L 48 114 L 51 114 L 54 114 L 54 111 L 54 108 L 51 108 z M 60 108 L 60 111 L 57 111 L 57 114 L 60 114 L 63 114 L 63 111 L 63 108 L 60 108 z M 69 108 L 69 111 L 66 111 L 66 114 L 69 114 L 72 114 L 72 111 L 72 108 L 69 108 z M 78 108 L 78 111 L 75 111 L 75 114 L 78 114 L 81 114 L 81 111 L 81 108 L 78 108 z M 87 108 L 87 111 L 84 111 L 84 114 L 87 114 L 90 114 L 90 111 L 90 108 L 87 108 z M 96 108 L 96 111 L 93 111 L 93 114 L 96 114 L 99 114 L 99 111 L 99 108 L 96 108 z M 105 108 L 105 111 L 102 111 L 102 114 L 105 114 L 108 114 L 108 111 L 108 108 L 105 108 z M 114 108 L 114 111 L 111 111 L 111 114 L 114 114 L 117 114 L 117 111 L 117 108 L 114 108 z "
     style="fill:#ffffff" />
  <path
     id="rect1984"
     d="M 12 60 L 12 63 L 9 63 L 9 66 L 6 66 L 6 69 L 9 69 L 12 69 L 15 69 L 18 69 L 21 69 L 24 69 L 27 69 L 30 69 L 33 69 L 36 69 L 39 69 L 42 69 L 45 69 L 48 69 L 51 69 L 54 69 L 57 69 L 60 69 L 63 69 L 66 69 L 69 69 L 72 69 L 75 69 L 78 69 L 81 69 L 84 69 L 87 69 L 90 69 L 93 69 L 96 69 L 99 69 L 102 69 L 105 69 L 108 69 L 111 69 L 114 69 L 117 69 L 120 69 L 123 69 L 126 69 L 129 69 L 132 69 L 132 66 L 135 66 L 135 63 L 138 63 L 138 60 L 135 60 L 132 60 L 129 60 L 126 60 L 123 60 L 120 60 L 117 60 L 114 60 L 111 60 L 108 60 L 105 60 L 102 60 L 99 60 L 96 60 L 93 60 L 90 60 L 87 60 L 84 60 L 81 60 L 78 60 L 75 60 L 72 60 L 69 60 L 66 60 L 63 60 L 60 60 L 57 60 L 54 60 L 51 60 L 48 60 L 45 60 L 42 60 L 39 60 L 36 60 L 33 60 L 30 60 L 27 60 L 24 60 L 21 60 L 18 60 L 15 60 L 12 60 z M 6 72 L 6 75 L 6 78 L 6 81 L 6 84 L 6 87 L 6 90 L 6 93 L 6 96 L 6 99 L 6 102 L 6 105 L 6 108 L 6 111 L 6 114 L 6 117 L 6 120 L 9 120 L 12 120 L 15 120 L 18 120 L 21 120 L 24 120 L 27 120 L 30 120 L 33 120 L 36 120 L 39 120 L 42 120 L 45 120 L 48 120 L 51 120 L 54 120 L 57 120 L 60 120 L 63 120 L 66 120 L 69 120 L 72 120 L 75 120 L 78 120 L 81 120 L 84 120 L 87 120 L 90 120 L 93 120 L 96 120 L 99 120 L 102 120 L 105 120 L 108 120 L 111 120 L 114 120 L 117 120 L 120 120 L 123 120 L 126 120 L 129 120 L 129 117 L 129 114 L 129 111 L 129 108 L 129 105 L 129 102 L 129 99 L 129 96 L 129 93 L 129 90 L 129 87 L 129 84 L 129 81 L 129 78 L 129 75 L 129 72 L 126 72 L 123 72 L 120 72 L 117 72 L 114 72 L 111 72 L 108 72 L 105 72 L 102 72 L 99 72 L 96 72 L 93 72 L 90 72 L 87 72 L 84 72 L 81 72 L 78 72 L 75 72 L 72 72 L 69 72 L 66 72 L 63 72 L 60 72 L 57 72 L 54 72 L 51 72 L 48 72 L 45 72 L 42 72 L 39 72 L 36 72 L 33 72 L 30 72 L 27 72 L 24 72 L 21 72 L 18 72 L 15 72 L 12 72 L 9 72 L 6 72 z M 39 81 L 42 81 L 45 81 L 48 81 L 51 81 L 54 81 L 57 81 L 60 81 L 63 81 L 66 81 L 69 81 L 72 81 L 75 81 L 78 81 L 81 81 L 84 81 L 87 81 L 90 81 L 93 81 L 96 81 L 99 81 L 102 81 L 105 81 L 108 81 L 108 84 L 111 84 L 114 84 L 117 84 L 117 87 L 117 90 L 114 90 L 111 90 L 108 90 L 108 93 L 111 93 L 114 93 L 117 93 L 117 96 L 114 96 L 111 96 L 108 96 L 108 99 L 105 99 L 102 99 L 99 99 L 96 99 L 93 99 L 90 99 L 87 99 L 84 99 L 81 99 L 78 99 L 75 99 L 72 99 L 69 99 L 66 99 L 63 99 L 60 99 L 57 99 L 54 99 L 51 99 L 48 99 L 45 99 L 42 99 L 39 99 L 39 96 L 36 96 L 33 96 L 30 96 L 30 93 L 33 93 L 36 93 L 39 93 L 39 90 L 36 90 L 33 90 L 30 90 L 30 87 L 30 84 L 33 84 L 36 84 L 39 84 L 39 81 z M 12 84 L 15 84 L 18 84 L 21 84 L 21 87 L 21 90 L 21 93 L 18 93 L 15 93 L 12 93 L 12 90 L 12 87 L 12 84 z M 30 105 L 33 105 L 36 105 L 36 108 L 36 111 L 36 114 L 33 114 L 30 114 L 30 111 L 30 108 L 30 105 z M 39 105 L 42 105 L 45 105 L 45 108 L 45 111 L 45 114 L 42 114 L 39 114 L 39 111 L 39 108 L 39 105 z M 48 105 L 51 105 L 54 105 L 54 108 L 54 111 L 54 114 L 51 114 L 48 114 L 48 111 L 48 108 L 48 105 z M 57 105 L 60 105 L 63 105 L 63 108 L 63 111 L 63 114 L 60 114 L 57 114 L 57 111 L 57 108 L 57 105 z M 66 105 L 69 105 L 72 105 L 72 108 L 72 111 L 72 114 L 69 114 L 66 114 L 66 111 L 66 108 L 66 105 z M 75 105 L 78 105 L 81 105 L 81 108 L 81 111 L 81 114 L 78 114 L 75 114 L 75 111 L 75 108 L 75 105 z M 84 105 L 87 105 L 90 105 L 90 108 L 90 111 L 90 114 L 87 114 L 84 114 L 84 111 L 84 108 L 84 105 z M 93 105 L 96 105 L 99 105 L 99 108 L 99 111 L 99 114 L 96 114 L 93 114 L 93 111 L 93 108 L 93 105 z M 102 105 L 105 105 L 108 105 L 108 108 L 108 111 L 108 114 L 105 114 L 102 114 L 102 111 L 102 108 L 102 105 z M 111 105 L 114 105 L 117 105 L 117 108 L 117 111 L 117 114 L 114 114 L 111 114 L 111 111 L 111 108 L 111 105 z "
     style="fill:#c0c0c0" />
  <path
     id="rect2078"
     d="M 12 57 L 12 60 L 15 60 L 18 60 L 21 60 L 24 60 L 27 60 L 30 60 L 33 60 L 36 60 L 39 60 L 42 60 L 45 60 L 48 60 L 51 60 L 54 60 L 57 60 L 60 60 L 63 60 L 66 60 L 69 60 L 72 60 L 75 60 L 78 60 L 81 60 L 84 60 L 87 60 L 90 60 L 93 60 L 96 60 L 99 60 L 102 60 L 105 60 L 108 60 L 111 60 L 114 60 L 117 60 L 120 60 L 123 60 L 126 60 L 129 60 L 132 60 L 135 60 L 138 60 L 138 63 L 135 63 L 135 66 L 132 66 L 132 69 L 129 69 L 129 72 L 129 75 L 129 78 L 129 81 L 129 84 L 129 87 L 129 90 L 129 93 L 129 96 L 129 99 L 129 102 L 129 105 L 129 108 L 129 111 L 129 114 L 129 117 L 129 120 L 126 120 L 123 120 L 120 120 L 117 120 L 114 120 L 111 120 L 108 120 L 105 120 L 102 120 L 99 120 L 96 120 L 93 120 L 90 120 L 87 120 L 84 120 L 81 120 L 78 120 L 75 120 L 72 120 L 69 120 L 66 120 L 63 120 L 60 120 L 57 120 L 54 120 L 51 120 L 48 120 L 45 120 L 42 120 L 39 120 L 36 120 L 33 120 L 30 120 L 27 120 L 24 120 L 21 120 L 18 120 L 15 120 L 12 120 L 9 120 L 6 120 L 3 120 L 3 117 L 3 114 L 3 111 L 3 108 L 3 105 L 3 102 L 3 99 L 3 96 L 3 93 L 3 90 L 3 87 L 3 84 L 3 81 L 3 78 L 3 75 L 3 72 L 3 69 L 0 69 L 0 72 L 0 75 L 0 78 L 0 81 L 0 84 L 0 87 L 0 90 L 0 93 L 0 96 L 0 99 L 0 102 L 0 105 L 0 108 L 0 111 L 0 114 L 0 117 L 0 120 L 0 123 L 3 123 L 6 123 L 9 123 L 12 123 L 15 123 L 18 123 L 21 123 L 24 123 L 27 123 L 30 123 L 33 123 L 36 123 L 39 123 L 42 123 L 45 123 L 48 123 L 51 123 L 54 123 L 57 123 L 60 123 L 63 123 L 66 123 L 69 123 L 72 123 L 75 123 L 78 123 L 81 123 L 84 123 L 87 123 L 90 123 L 93 123 L 96 123 L 99 123 L 102 123 L 105 123 L 108 123 L 111 123 L 114 123 L 117 123 L 120 123 L 123 123 L 126 123 L 129 123 L 132 123 L 132 120 L 135 120 L 135 117 L 138 117 L 138 114 L 141 114 L 141 111 L 141 108 L 141 105 L 141 102 L 141 99 L 141 96 L 141 93 L 141 90 L 141 87 L 141 84 L 141 81 L 141 78 L 141 75 L 141 72 L 141 69 L 141 66 L 141 63 L 141 60 L 141 57 L 138 57 L 135 57 L 132 57 L 129 57 L 126 57 L 123 57 L 120 57 L 117 57 L 114 57 L 111 57 L 108 57 L 105 57 L 102 57 L 99 57 L 96 57 L 93 57 L 90 57 L 87 57 L 84 57 L 81 57 L 78 57 L 75 57 L 72 57 L 69 57 L 66 57 L 63 57 L 60 57 L 57 57 L 54 57 L 51 57 L 48 57 L 45 57 L 42 57 L 39 57 L 36 57 L 33 57 L 30 57 L 27 57 L 24 57 L 21 57 L 18 57 L 15 57 L 12 57 z M 3 69 L 6 69 L 6 66 L 3 66 L 3 69 z M 6 66 L 9 66 L 9 63 L 6 63 L 6 66 z M 9 63 L 12 63 L 12 60 L 9 60 L 9 63 z M 39 81 L 39 84 L 42 84 L 45 84 L 48 84 L 51 84 L 54 84 L 57 84 L 60 84 L 63 84 L 66 84 L 69 84 L 72 84 L 75 84 L 78 84 L 81 84 L 84 84 L 87 84 L 90 84 L 93 84 L 96 84 L 99 84 L 102 84 L 105 84 L 108 84 L 108 81 L 105 81 L 102 81 L 99 81 L 96 81 L 93 81 L 90 81 L 87 81 L 84 81 L 81 81 L 78 81 L 75 81 L 72 81 L 69 81 L 66 81 L 63 81 L 60 81 L 57 81 L 54 81 L 51 81 L 48 81 L 45 81 L 42 81 L 39 81 z M 108 84 L 108 87 L 108 90 L 111 90 L 114 90 L 117 90 L 117 87 L 117 84 L 114 84 L 111 84 L 108 84 z M 39 84 L 36 84 L 33 84 L 30 84 L 30 87 L 30 90 L 33 90 L 36 90 L 39 90 L 39 87 L 39 84 z M 39 93 L 39 96 L 42 96 L 45 96 L 48 96 L 51 96 L 54 96 L 57 96 L 60 96 L 63 96 L 66 96 L 69 96 L 72 96 L 75 96 L 78 96 L 81 96 L 84 96 L 87 96 L 90 96 L 93 96 L 96 96 L 99 96 L 102 96 L 105 96 L 108 96 L 108 93 L 105 93 L 102 93 L 99 93 L 96 93 L 93 93 L 90 93 L 87 93 L 84 93 L 81 93 L 78 93 L 75 93 L 72 93 L 69 93 L 66 93 L 63 93 L 60 93 L 57 93 L 54 93 L 51 93 L 48 93 L 45 93 L 42 93 L 39 93 z M 30 105 L 30 108 L 30 111 L 33 111 L 33 108 L 36 108 L 36 105 L 33 105 L 30 105 z M 39 105 L 39 108 L 39 111 L 42 111 L 42 108 L 45 108 L 45 105 L 42 105 L 39 105 z M 48 105 L 48 108 L 48 111 L 51 111 L 51 108 L 54 108 L 54 105 L 51 105 L 48 105 z M 57 105 L 57 108 L 57 111 L 60 111 L 60 108 L 63 108 L 63 105 L 60 105 L 57 105 z M 66 105 L 66 108 L 66 111 L 69 111 L 69 108 L 72 108 L 72 105 L 69 105 L 66 105 z M 75 105 L 75 108 L 75 111 L 78 111 L 78 108 L 81 108 L 81 105 L 78 105 L 75 105 z M 84 105 L 84 108 L 84 111 L 87 111 L 87 108 L 90 108 L 90 105 L 87 105 L 84 105 z M 93 105 L 93 108 L 93 111 L 96 111 L 96 108 L 99 108 L 99 105 L 96 105 L 93 105 z M 102 105 L 102 108 L 102 111 L 105 111 L 105 108 L 108 108 L 108 105 L 105 105 L 102 105 z M 111 105 L 111 108 L 111 111 L 114 111 L 114 108 L 117 108 L 117 105 L 114 105 L 111 105 z "
     style="fill:#808080" />
  <path
     id="rect2166"
     d="M 141 60 L 141 63 L 141 66 L 141 69 L 141 72 L 141 75 L 141 78 L 141 81 L 141 84 L 141 87 L 141 90 L 141 93 L 141 96 L 141 99 L 141 102 L 141 105 L 141 108 L 141 111 L 141 114 L 144 114 L 144 111 L 144 108 L 144 105 L 144 102 L 144 99 L 144 96 L 144 93 L 144 90 L 144 87 L 144 84 L 144 81 L 144 78 L 144 75 L 144 72 L 144 69 L 144 66 L 144 63 L 144 60 L 141 60 z M 141 114 L 138 114 L 138 117 L 141 117 L 141 114 z M 138 117 L 135 117 L 135 120 L 138 120 L 138 117 z M 135 120 L 132 120 L 132 123 L 135 123 L 135 120 z M 132 123 L 129 123 L 126 123 L 123 123 L 120 123 L 117 123 L 114 123 L 111 123 L 108 123 L 105 123 L 102 123 L 99 123 L 96 123 L 93 123 L 90 123 L 87 123 L 84 123 L 81 123 L 78 123 L 75 123 L 72 123 L 69 123 L 66 123 L 63 123 L 60 123 L 57 123 L 54 123 L 51 123 L 48 123 L 45 123 L 42 123 L 39 123 L 36 123 L 33 123 L 30 123 L 27 123 L 24 123 L 21 123 L 18 123 L 15 123 L 12 123 L 9 123 L 6 123 L 3 123 L 3 126 L 6 126 L 9 126 L 12 126 L 15 126 L 18 126 L 21 126 L 24 126 L 27 126 L 30 126 L 33 126 L 36 126 L 39 126 L 42 126 L 45 126 L 48 126 L 51 126 L 54 126 L 57 126 L 60 126 L 63 126 L 66 126 L 69 126 L 72 126 L 75 126 L 78 126 L 81 126 L 84 126 L 87 126 L 90 126 L 93 126 L 96 126 L 99 126 L 102 126 L 105 126 L 108 126 L 111 126 L 114 126 L 117 126 L 120 126 L 123 126 L 126 126 L 129 126 L 132 126 L 132 123 z M 39 84 L 39 87 L 39 90 L 39 93 L 42 93 L 45 93 L 48 93 L 51 93 L 54 93 L 57 93 L 60 93 L 63 93 L 66 93 L 69 93 L 72 93 L 75 93 L 78 93 L 81 93 L 84 93 L 87 93 L 90 93 L 93 93 L 96 93 L 99 93 L 102 93 L 105 93 L 108 93 L 108 90 L 108 87 L 108 84 L 105 84 L 102 84 L 99 84 L 96 84 L 93 84 L 90 84 L 87 84 L 84 84 L 81 84 L 78 84 L 75 84 L 72 84 L 69 84 L 66 84 L 63 84 L 60 84 L 57 84 L 54 84 L 51 84 L 48 84 L 45 84 L 42 84 L 39 84 z "
     style="fill:#000000" />
</svg>
